<?xml version="1.0" encoding="utf-8"?>
<svg class="shirt" width="86" height="380" viewBox="202.715 584.407 86.5933 380.048" preserveAspectRatio="xMidYMid meet" xmlns="http://www.w3.org/2000/svg" xmlns:xlink="http://www.w3.org/1999/xlink">
  <defs id="svgEditorDefs">
    <path id="svgEditorClosePathDefs" fill="moccasin" style="stroke-width: 0px; stroke: none; fill-opacity: 1;" class="shirt"/>
    <pattern id="pattern-0" x="0" y="0" width="20" height="20" patternUnits="userSpaceOnUse" viewBox="0 0 100 100">
      <g transform="matrix(0.14918, 0, 0, 0.161783, 1.464341, 1.86252)">
        <g id="layer3" transform="translate(-142.4 -15.948)">
          <path id="path3590" style="stroke-linejoin: round; stroke-linecap: round; stroke-miterlimit: 4.4; fill: url(#gradient-0);" d="m949.52 522.59c0 147.52-148.39 267.1-331.44 267.1s-331.44-119.59-331.44-267.1c0-147.52 148.39-267.1 331.44-267.1s331.44 119.59 331.44 267.1z" transform="matrix(.7705 0 0 .83224 -13.788 -60.25)"/>
          <path id="path3598" style="stroke-linejoin: round; stroke-linecap: round; stroke-miterlimit: 4.4; fill: url(#gradient-1);" d="m766.39 247.62c0 3.25-190.81-121.06-332.64-121.06-141.82 0-292.96 241.69-291.34 244.48 53.91 93.13 133.98-248 275.81-248s297.7 195.39 348.17 124.58z"/>
          <ellipse transform="matrix(-0.189311, 0.981917, -0.987215, -0.161833, 905.010267, -93.711485)" cx="391.334" cy="341.765" rx="90.793" ry="97.934" style="fill: rgb(238, 48, 48);"/>
          <ellipse transform="matrix(-0.323995, 0.946059, -0.961167, -0.279881, 883.291954, 566.41741)" cx="138.783" cy="643.727" rx="59.681" ry="63.706" style="fill: rgb(218, 67, 241);"/>
          <ellipse transform="matrix(-0.607856, 0.794047, -0.840551, -0.547109, 385.523133, 109.379454)" cx="98.858" cy="179.587" rx="21.207" ry="21.727" style="fill: rgb(211, 37, 37);"/>
          <ellipse transform="matrix(-0.420356, 0.907359, -0.932018, -0.367128, 924.783154, 191.471452)" cx="308.208" cy="423.977" rx="112.445" ry="118.718" style="fill: rgb(10, 226, 254);"/>
          <rect style="fill: rgb(216, 216, 216);" x="387.181" y="391.746" width="325.497" height="8.915"/>
          <rect style="fill: rgb(216, 216, 216);" x="349.582" y="475.944" width="110.648" height="61.415"/>
          <rect style="fill: rgb(216, 216, 216);" x="508.571" y="159.954" width="71.975" height="70.33"/>
        </g>
        <g id="layer1" transform="translate(-142.4 -15.948)">
          <path id="path2189" style="fill-rule: evenodd; stroke: rgb(0, 0, 0); stroke-width: 0.62234px; fill: url(#gradient-2);" d="m220.65 336.09c5.88-0.73 5.13-7.17 8.13-13.14 2.71-5.39 7.11 2.16 7.11-8.09 0-3.01 11.39-3.46 13.21-7.08 0.91-1.81 12.97 0.95 13.21 1.01 4.11 1.02 15.24-1.01 21.34-1.01 2.79 0 5.42 1.35 8.13 2.02 6.57 1.63 11.02 0.38 12.19 5.06 0.21 0.83 3.84 7.64 5.08 10.11 2.81 5.59 2.03 3.1 2.03 9.1 0 4.17 1.18 8.4 3.05 12.13 2.02 4.02-2.16 8.74-3.05 13.15-0.49 2.46-2.38 10.51-3.04 13.14-0.58 2.3-6.88 6.61-8.13 9.1-2.77 5.5-4.46 3.23-10.16 6.07-6.59 3.27-7.13 4.55-12.2 7.07-6.13 3.06-5.4 2.4-8.13-3.03-2.12-4.22-9.62 1.15-14.22 0-6.69-1.66-13.98-0.38-17.27-2.02-3.28-1.63-6.1-5.46-6.1-9.1 0-3.01-7.47-3.36 0-7.08 2.86-1.42-5.86-5-5.08-8.09 0.57-2.26-9.64 0.49-3.05-6.06 2-1.99-7.21-2.94-2.03-8.09 2.44-2.43-0.49-7.04-2.03-10.11-0.78-1.54 0.67-3.37 1.01-5.06z"/>
          <path id="path2187" d="m278.5 629.27c0 31.932-28.803 57.818-64.333 57.818s-64.333-25.886-64.333-57.818 28.803-57.818 64.333-57.818 64.333 25.886 64.333 57.818z" transform="matrix(.63243 0 0 .68219 132.15 -80.509)" style="fill: url(#gradient-3);"/>
          <path id="path2191" style="fill-rule: evenodd; stroke: rgb(0, 0, 0); stroke-width: 0.62234px; fill: url(#gradient-4);" d="m336.84 512.59c5.87-0.72 5.13-7.17 8.13-13.14 2.7-5.39 7.11 2.16 7.11-8.09 0-3.01 11.39-3.46 13.21-7.08 0.91-1.81 12.97 0.95 13.21 1.01 4.1 1.02 15.24-1.01 21.34-1.01 2.79 0 5.41 1.35 8.12 2.02 6.57 1.64 11.02 0.39 12.2 5.06 0.21 0.84 3.84 7.64 5.08 10.11 2.81 5.59 2.03 3.1 2.03 9.1 0 4.17 1.17 8.4 3.05 12.13 2.02 4.03-2.16 8.74-3.05 13.15-0.5 2.46-2.39 10.51-3.05 13.14-0.58 2.3-6.88 6.61-8.13 9.1-2.76 5.5-4.45 3.23-10.16 6.07-6.58 3.28-7.12 4.55-12.19 7.08-6.14 3.05-5.4 2.39-8.13-3.04-2.12-4.22-9.62 1.15-14.22 0-6.7-1.66-13.98-0.38-17.28-2.02-3.27-1.63-6.09-5.45-6.09-9.1 0-3-7.47-3.36 0-7.08 2.85-1.42-5.86-5-5.08-8.08 0.56-2.27-9.64 0.49-3.05-6.07 2-1.99-7.21-2.94-2.04-8.09 2.45-2.43-0.48-7.04-2.03-10.11-0.77-1.54 0.68-3.37 1.02-5.06z"/>
          <path id="path2193" d="m278.5 629.27c0 31.932-28.803 57.818-64.333 57.818s-64.333-25.886-64.333-57.818 28.803-57.818 64.333-57.818 64.333 25.886 64.333 57.818z" transform="matrix(.63243 0 0 .68219 248.64 97.084)" style="fill: url(#gradient-5);"/>
          <path id="path2195" style="fill-rule: evenodd; stroke: rgb(0, 0, 0); stroke-width: 0.62234px; fill: url(#gradient-6);" d="m567.72 457.93c5.88-0.73 5.13-7.18 8.13-13.15 2.71-5.38 7.11 2.16 7.11-8.09 0-3 11.39-3.46 13.21-7.08 0.91-1.8 12.97 0.96 13.21 1.02 4.11 1.02 15.24-1.02 21.34-1.02 2.79 0 5.42 1.35 8.13 2.03 6.56 1.63 11.02 0.38 12.19 5.05 0.21 0.84 3.84 7.64 5.08 10.11 2.81 5.6 2.03 3.1 2.03 9.1 0 4.17 1.18 8.41 3.05 12.14 2.02 4.02-2.16 8.73-3.05 13.14-0.49 2.47-2.39 10.52-3.05 13.15-0.57 2.3-6.87 6.61-8.12 9.1-2.77 5.5-4.46 3.22-10.17 6.06-6.58 3.28-7.12 4.56-12.19 7.08-6.14 3.05-5.4 2.39-8.13-3.03-2.12-4.22-9.62 1.14-14.22 0-6.7-1.67-13.98-0.39-17.28-2.02-3.27-1.64-6.09-5.46-6.09-9.11 0-3-7.47-3.36 0-7.07 2.86-1.42-5.86-5.01-5.08-8.09 0.57-2.26-9.64 0.49-3.05-6.07 2-1.99-7.21-2.94-2.03-8.09 2.44-2.43-0.49-7.03-2.04-10.11-0.77-1.54 0.68-3.37 1.02-5.05z"/>
          <path id="path2197" d="m278.5 629.27c0 31.932-28.803 57.818-64.333 57.818s-64.333-25.886-64.333-57.818 28.803-57.818 64.333-57.818 64.333 25.886 64.333 57.818z" transform="matrix(.63243 0 0 .68219 479.52 40.945)" style="fill: url(#gradient-7);"/>
          <path id="path2199" style="fill-rule: evenodd; stroke: rgb(0, 0, 0); stroke-width: 0.62234px; fill: url(#gradient-8);" d="m571.91 259.22c5.87-0.73 5.12-7.18 8.12-13.15 2.71-5.38 7.12 2.16 7.12-8.09 0-3 11.39-3.45 13.21-7.07 0.9-1.81 12.96 0.95 13.21 1.01 4.1 1.02 15.24-1.01 21.33-1.01 2.8 0 5.42 1.34 8.13 2.02 6.57 1.63 11.02 0.38 12.19 5.05 0.22 0.84 3.84 7.65 5.08 10.11 2.82 5.6 2.04 3.1 2.04 9.1 0 4.17 1.17 8.41 3.05 12.14 2.02 4.02-2.17 8.73-3.05 13.14-0.5 2.47-2.39 10.52-3.05 13.15-0.58 2.3-6.88 6.61-8.13 9.1-2.76 5.5-4.46 3.23-10.16 6.06-6.59 3.28-7.12 4.56-12.19 7.08-6.14 3.06-5.41 2.39-8.13-3.03-2.12-4.22-9.63 1.14-14.23 0-6.69-1.67-13.98-0.38-17.27-2.02-3.28-1.63-6.1-5.46-6.1-9.1 0-3.01-7.47-3.37 0-7.08 2.86-1.42-5.85-5.01-5.08-8.09 0.57-2.26-9.64 0.49-3.05-6.07 2-1.99-7.2-2.94-2.03-8.09 2.44-2.43-0.49-7.03-2.03-10.11-0.77-1.53 0.68-3.37 1.02-5.05z"/>
          <path id="path2201" d="m278.5 629.27c0 31.932-28.803 57.818-64.333 57.818s-64.333-25.886-64.333-57.818 28.803-57.818 64.333-57.818 64.333 25.886 64.333 57.818z" transform="matrix(.63243 0 0 .68219 483.71 -157.76)" style="fill: url(#gradient-9);"/>
          <path id="path2203" style="fill-rule: evenodd; stroke: rgb(0, 0, 0); stroke-width: 0.62234px; fill: url(#gradient-10);" d="m371.18 190.89c5.87-0.73 5.13-7.17 8.13-13.14 2.7-5.39 7.11 2.16 7.11-8.09 0-3.01 11.39-3.46 13.21-7.08 0.91-1.81 12.97 0.95 13.21 1.01 4.1 1.02 15.24-1.01 21.34-1.01 2.79 0 5.41 1.35 8.12 2.02 6.57 1.64 11.02 0.38 12.2 5.06 0.21 0.84 3.84 7.64 5.08 10.11 2.81 5.59 2.03 3.1 2.03 9.1 0 4.17 1.17 8.4 3.05 12.13 2.02 4.02-2.16 8.74-3.05 13.15-0.5 2.46-2.39 10.51-3.05 13.14-0.58 2.3-6.88 6.61-8.13 9.1-2.76 5.5-4.45 3.23-10.16 6.07-6.58 3.27-7.12 4.55-12.19 7.08-6.14 3.05-5.4 2.39-8.13-3.04-2.12-4.22-9.63 1.15-14.23 0-6.69-1.66-13.97-0.38-17.27-2.02-3.28-1.63-6.1-5.45-6.1-9.1 0-3.01-7.46-3.36 0-7.08 2.86-1.42-5.85-5-5.08-8.09 0.57-2.26-9.63 0.49-3.04-6.06 1.99-1.99-7.21-2.94-2.04-8.09 2.45-2.43-0.48-7.04-2.03-10.11-0.77-1.54 0.68-3.37 1.02-5.06z"/>
          <path id="path2205" d="m278.5 629.27c0 31.932-28.803 57.818-64.333 57.818s-64.333-25.886-64.333-57.818 28.803-57.818 64.333-57.818 64.333 25.886 64.333 57.818z" transform="matrix(.63243 0 0 .68219 283.01 -225.08)" style="fill: url(#gradient-11);"/>
          <path id="path2314" d="m647.34 381c2.8-0.23 7.03-5.73-2.17 3.85 1.5-1.66 2.54-4.25 3.65-6.67 0.86-1.89 1.58-3.97 2.35-5.98 0.69-1.72 1.11-3.69 1.57-5.62 0.49-2.31 0.72-4.77 1-7.18 0.18-1.83 0.19-3.69 0.23-5.55 0.01-1.64 0-3.28 0-4.92 0.01-0.74-0.01-1.49-0.02-2.24l5.9-5.51c-0.01 0.75-0.02 1.51-0.01 2.26 0 1.65 0.01 3.3 0 4.95-0.04 1.92-0.04 3.84-0.23 5.74-0.25 2.49-0.53 4.98-0.93 7.41-0.43 2.01-0.84 4.02-1.49 5.85-0.8 2.06-1.58 4.15-2.4 6.19-1.13 2.4-2.14 5.06-3.54 6.95-3.63 3.83-5.53 7.37-9.28 7.62l5.37-7.15z" style="fill: url(#gradient-12);"/>
          <path id="path2316" d="m639.3 396.66c0.86 0.05 1.72 0.03 2.58 0.03 0.92 0 1.83 0.01 2.74 0.01 0.92-0.16 1.81 0.13 2.71 0.44 0.76 0.39 1.47 1.02 2.2 1.57 0.65 0.2 1.26 0.62 1.9 0.95l-4.64 7c-0.64-0.32-1.28-0.65-1.92-1.04-0.7-0.52-1.38-1.18-2.11-1.41-0.89-0.22-1.76-0.44-2.65-0.31-0.92 0-1.84 0.01-2.75 0.01-0.88-0.01-1.75-0.02-2.63 0.03l4.57-7.28z" style="fill: url(#gradient-13);"/>
          <path id="path2318" d="m633.87 400.92c0.74-1.01 1.1-2.58 1.52-4.14 0.3-1.57 0.27-3.26 0.33-4.92 0.03-1.61-0.02-3.22-0.04-4.83l4.97-5.75c0.04 1.66 0.11 3.34 0.07 5.02-0.03 1.78-0.02 3.58-0.25 5.32-0.36 1.73-0.65 3.44-1.36 4.72l-5.24 4.58z" style="fill: url(#gradient-14);"/>
          <path id="path2320" d="m597.77 362.94c-3.86 0.25-9.69 6.34 3-4.26-2.07 1.83-3.51 4.7-5.04 7.38-1.18 2.09-2.18 4.39-3.24 6.62-0.96 1.9-1.53 4.08-2.16 6.22-0.69 2.56-1 5.28-1.38 7.95-0.25 2.03-0.27 4.09-0.32 6.14-0.01 1.81 0 3.63 0 5.44-0.01 0.83 0.02 1.66 0.02 2.49l-8.13 6.1c0-0.83 0.03-1.67 0.01-2.51 0-1.82-0.01-3.64 0-5.47 0.05-2.12 0.06-4.26 0.31-6.36 0.35-2.76 0.73-5.51 1.29-8.19 0.59-2.23 1.16-4.46 2.05-6.49 1.11-2.28 2.19-4.59 3.32-6.85 1.56-2.66 2.95-5.6 4.88-7.69 5-4.25 7.63-8.16 12.8-8.44l-7.41 7.92z" style="fill: url(#gradient-15);"/>
          <path id="path2322" d="m607.11 348.83c-1.19-0.07-2.37-0.04-3.56-0.04-1.26 0-2.52-0.01-3.78-0.01-1.27 0.17-2.5-0.15-3.74-0.49-1.05-0.42-2.02-1.13-3.03-1.74-0.89-0.22-1.74-0.68-2.62-1.05l6.39-7.75c0.89 0.36 1.78 0.73 2.65 1.16 0.97 0.57 1.91 1.3 2.92 1.55 1.22 0.25 2.43 0.5 3.66 0.35 1.26 0 2.53-0.01 3.79-0.01 1.21 0 2.41 0.02 3.62-0.04l-6.3 8.07z" style="fill: url(#gradient-16);"/>
          <path id="path2324" d="m614.61 344.11c-1.02 1.12-1.52 2.86-2.11 4.58-0.41 1.74-0.36 3.61-0.45 5.45-0.04 1.78 0.02 3.56 0.05 5.34l-6.85 6.37c-0.05-1.84-0.16-3.7-0.1-5.56 0.04-1.97 0.03-3.96 0.34-5.88 0.51-1.92 0.91-3.82 1.88-5.23l7.24-5.07z" style="fill: url(#gradient-17);"/>
        </g>
        <g id="layer2" transform="translate(-142.4 -15.948)">
          <path id="path2219" d="m289.84 458.46c-4.85-0.16-12.16-3.99 3.76 2.68-2.6-1.16-4.4-2.96-6.33-4.64-1.48-1.32-2.73-2.77-4.06-4.17-1.2-1.2-1.91-2.57-2.71-3.92-0.86-1.61-1.25-3.32-1.73-5-0.31-1.28-0.33-2.57-0.4-3.86-0.01-1.15 0-2.29 0-3.43-0.02-0.52 0.02-1.04 0.03-1.56l-10.21-3.84c0.01 0.52 0.04 1.05 0.02 1.57 0 1.15-0.01 2.3 0 3.45 0.06 1.34 0.07 2.68 0.38 4 0.45 1.73 0.92 3.47 1.62 5.16 0.75 1.4 1.46 2.8 2.58 4.08 1.39 1.43 2.74 2.89 4.16 4.31 1.95 1.67 3.7 3.52 6.13 4.84 6.27 2.67 9.56 5.13 16.05 5.31l-9.29-4.98z" style="fill: url(#gradient-18);"/>
          <path id="path2221" d="m303.76 469.37c-1.49 0.04-2.98 0.02-4.47 0.02h-4.74c-1.59-0.1-3.13 0.1-4.7 0.31-1.31 0.27-2.53 0.71-3.79 1.1-1.12 0.14-2.19 0.43-3.29 0.66l8.02 4.88c1.11-0.23 2.23-0.46 3.33-0.73 1.2-0.36 2.38-0.82 3.66-0.98 1.53-0.15 3.04-0.31 4.59-0.22 1.58 0 3.17 0 4.75 0.01 1.52-0.01 3.03-0.02 4.54 0.02l-7.9-5.07z" style="fill: url(#gradient-19);"/>
          <path id="path2223" d="m313.17 472.33c-1.29-0.7-1.91-1.79-2.65-2.88-0.51-1.09-0.45-2.27-0.56-3.43-0.06-1.12 0.03-2.24 0.06-3.36l-8.6-4c-0.06 1.15-0.19 2.32-0.11 3.49 0.05 1.24 0.03 2.5 0.42 3.7 0.64 1.21 1.14 2.4 2.36 3.29l9.08 3.19z" style="fill: url(#gradient-20);"/>
          <path id="path2225" d="m326.47 425.49c4.98 0.19 12.49 4.59-3.86-3.07 2.67 1.32 4.52 3.39 6.5 5.33 1.52 1.51 2.8 3.18 4.17 4.78 1.23 1.38 1.96 2.96 2.78 4.5 0.88 1.85 1.28 3.81 1.78 5.75 0.32 1.46 0.34 2.95 0.4 4.43 0.02 1.32 0.01 2.63 0.01 3.94 0.01 0.6-0.02 1.2-0.03 1.8l10.48 4.41c-0.01-0.61-0.04-1.21-0.02-1.82 0-1.31 0.01-2.63 0-3.95-0.06-1.54-0.07-3.08-0.4-4.6-0.45-1.99-0.94-3.98-1.65-5.92-0.77-1.61-1.5-3.22-2.65-4.69-1.43-1.65-2.81-3.32-4.28-4.95-2-1.92-3.79-4.04-6.29-5.56-6.44-3.07-9.82-5.89-16.48-6.1l9.54 5.72z" style="fill: url(#gradient-21);"/>
          <path id="path2227" d="m312.18 412.96c1.53-0.04 3.06-0.02 4.58-0.02 1.63 0 3.25-0.01 4.88-0.01 1.63 0.13 3.21-0.1 4.82-0.35 1.34-0.31 2.6-0.82 3.89-1.26 1.16-0.16 2.25-0.49 3.38-0.76l-8.23-5.6c-1.15 0.26-2.29 0.52-3.42 0.84-1.24 0.41-2.45 0.94-3.76 1.12-1.57 0.18-3.13 0.36-4.71 0.25h-4.89c-1.55 0-3.11 0.01-4.66-0.03l8.12 5.82z" style="fill: url(#gradient-22);"/>
          <path id="path2229" d="m302.52 409.56c1.31 0.8 1.95 2.06 2.71 3.3 0.53 1.26 0.47 2.62 0.58 3.94 0.06 1.29-0.03 2.58-0.06 3.87l8.83 4.6c0.06-1.33 0.19-2.68 0.12-4.02-0.06-1.42-0.03-2.86-0.44-4.25-0.65-1.39-1.17-2.76-2.42-3.78l-9.32-3.66z" style="fill: url(#gradient-23);"/>
          <path id="path2240" d="m326.45 268.71c-3.93 0.09-9.85 2.22 3.05-1.49-2.11 0.64-3.57 1.65-5.13 2.58-1.2 0.73-2.21 1.54-3.29 2.32-0.97 0.66-1.55 1.43-2.2 2.17-0.69 0.9-1 1.85-1.39 2.78-0.26 0.71-0.27 1.43-0.32 2.15-0.02 0.63-0.01 1.27-0.01 1.9-0.01 0.29 0.02 0.58 0.02 0.87l-8.26 2.13c0-0.29 0.03-0.58 0.01-0.87 0-0.64-0.01-1.28 0-1.92 0.05-0.74 0.06-1.49 0.32-2.22 0.36-0.96 0.74-1.93 1.3-2.86 0.61-0.78 1.19-1.56 2.09-2.27 1.13-0.8 2.22-1.61 3.37-2.4 1.58-0.93 3-1.95 4.96-2.69 5.08-1.48 7.75-2.85 13-2.95l-7.52 2.77z" style="fill: url(#gradient-24);"/>
          <path id="path2242" d="m337.72 262.65c-1.2-0.02-2.41-0.01-3.62-0.01h-3.84c-1.29 0.06-2.53-0.06-3.8-0.18-1.06-0.14-2.05-0.39-3.07-0.6-0.91-0.08-1.77-0.24-2.66-0.37l6.49-2.71c0.9 0.13 1.8 0.25 2.69 0.4 0.98 0.21 1.93 0.46 2.97 0.55 1.24 0.08 2.46 0.17 3.71 0.12h3.86c1.22 0 2.45 0 3.67-0.02l-6.4 2.82z" style="fill: url(#gradient-25);"/>
          <path id="path2244" d="m345.34 261c-1.04 0.39-1.54 1-2.14 1.6-0.42 0.61-0.37 1.27-0.45 1.91-0.05 0.62 0.02 1.25 0.04 1.87l-6.96 2.22c-0.05-0.64-0.16-1.29-0.09-1.94 0.04-0.69 0.02-1.39 0.34-2.06 0.51-0.67 0.92-1.33 1.91-1.82l7.35-1.78z" style="fill: url(#gradient-26);"/>
          <path id="path2246" d="m356.11 287.03c4.04-0.11 10.11-2.55-3.13 1.71 2.17-0.74 3.66-1.89 5.27-2.97 1.23-0.84 2.27-1.76 3.38-2.66 0.99-0.76 1.59-1.64 2.25-2.49 0.71-1.03 1.04-2.12 1.44-3.2 0.26-0.81 0.27-1.64 0.33-2.46 0.01-0.73 0-1.46 0-2.19 0.01-0.33-0.01-0.66-0.02-1l8.48-2.45c0 0.34-0.03 0.68-0.01 1.01 0 0.73 0.01 1.47 0 2.2-0.05 0.85-0.06 1.71-0.32 2.55-0.37 1.11-0.77 2.22-1.34 3.29-0.63 0.9-1.22 1.79-2.15 2.61-1.16 0.91-2.28 1.84-3.46 2.75-1.62 1.06-3.07 2.24-5.09 3.09-5.22 1.7-7.96 3.27-13.35 3.39l7.72-3.18z" style="fill: url(#gradient-27);"/>
          <path id="path2248" d="m344.54 293.99c1.24 0.02 2.48 0.01 3.71 0.01h3.95c1.32-0.07 2.6 0.06 3.9 0.2 1.09 0.17 2.11 0.45 3.16 0.7 0.93 0.09 1.82 0.27 2.73 0.42l-6.67 3.11c-0.92-0.14-1.85-0.29-2.76-0.46-1.01-0.23-1.99-0.52-3.05-0.63-1.27-0.09-2.53-0.19-3.81-0.14-1.32 0.01-2.64 0.01-3.96 0.01-1.26 0-2.52-0.01-3.77 0.01l6.57-3.23z" style="fill: url(#gradient-28);"/>
          <path id="path2250" d="m336.72 295.88c1.06-0.45 1.58-1.15 2.19-1.84 0.44-0.7 0.38-1.45 0.47-2.19 0.05-0.71-0.02-1.43-0.05-2.14l7.15-2.56c0.05 0.74 0.16 1.49 0.1 2.23-0.04 0.79-0.03 1.59-0.36 2.36-0.52 0.78-0.94 1.54-1.95 2.1l-7.55 2.04z" style="fill: url(#gradient-29);"/>
          <path id="path2290" d="m524.64 200.71c6.3 0.11 15.78 2.78-4.89-1.86 3.38 0.8 5.72 2.06 8.22 3.23 1.92 0.91 3.55 1.92 5.28 2.9 1.55 0.83 2.48 1.78 3.52 2.72 1.11 1.12 1.61 2.3 2.24 3.48 0.4 0.88 0.43 1.78 0.51 2.68 0.02 0.79 0.01 1.59 0.01 2.38 0.02 0.36-0.03 0.73-0.04 1.09l13.25 2.67c-0.01-0.37-0.05-0.73-0.02-1.1 0-0.8 0.02-1.59 0-2.39-0.08-0.93-0.09-1.87-0.5-2.79-0.58-1.2-1.2-2.41-2.1-3.58-0.97-0.98-1.89-1.95-3.35-2.84-1.81-0.99-3.55-2.01-5.4-2.99-2.54-1.17-4.8-2.45-7.95-3.37-8.15-1.86-12.42-3.57-20.84-3.69l12.06 3.46z" style="fill: url(#gradient-30);"/>
          <path id="path2292" d="m506.57 193.13c1.93-0.03 3.86-0.02 5.8-0.02h6.16c2.06 0.08 4.06-0.06 6.09-0.21 1.7-0.19 3.29-0.5 4.93-0.77 1.45-0.09 2.84-0.29 4.26-0.45l-10.41-3.39c-1.44 0.15-2.89 0.31-4.31 0.5-1.57 0.25-3.1 0.57-4.76 0.68-1.98 0.11-3.95 0.22-5.96 0.15h-6.17c-1.97 0-3.93 0.01-5.9-0.02l10.27 3.53z" style="fill: url(#gradient-31);"/>
          <path id="path2294" d="m494.35 191.07c1.67 0.49 2.47 1.25 3.43 2 0.68 0.76 0.6 1.58 0.73 2.38 0.08 0.78-0.03 1.56-0.07 2.34l11.16 2.79c0.08-0.81 0.25-1.62 0.15-2.43-0.06-0.87-0.04-1.74-0.55-2.58-0.82-0.84-1.48-1.67-3.06-2.28l-11.79-2.22z" style="fill: url(#gradient-32);"/>
          <path id="path2296" d="m507.27 266.31c-6.47-0.12-16.21-3.18 5.01 2.14-3.46-0.92-5.86-2.36-8.43-3.7-1.98-1.06-3.65-2.21-5.42-3.33-1.6-0.95-2.55-2.05-3.62-3.13-1.14-1.28-1.66-2.65-2.3-3.99-0.41-1.02-0.44-2.05-0.52-3.09-0.03-0.91-0.01-1.82-0.01-2.73-0.02-0.42 0.02-0.83 0.03-1.25l-13.6-3.07c0.01 0.42 0.05 0.84 0.03 1.26-0.01 0.92-0.02 1.84-0.01 2.75 0.08 1.07 0.1 2.14 0.52 3.2 0.59 1.39 1.22 2.77 2.15 4.12 1 1.12 1.95 2.24 3.44 3.25 1.86 1.15 3.65 2.31 5.55 3.45 2.6 1.33 4.92 2.81 8.16 3.86 8.37 2.14 12.75 4.1 21.4 4.24l-12.38-3.98z" style="fill: url(#gradient-33);"/>
          <path id="path2298" d="m525.82 275.02c-1.98 0.03-3.97 0.02-5.95 0.02-2.11 0-4.22 0.01-6.33 0.01-2.12-0.09-4.17 0.07-6.26 0.24-1.74 0.22-3.37 0.57-5.05 0.88-1.5 0.11-2.92 0.34-4.38 0.52l10.68 3.9c1.49-0.18 2.97-0.37 4.44-0.58 1.61-0.29 3.18-0.66 4.88-0.79 2.04-0.12 4.06-0.24 6.12-0.17h6.34c2.02 0 4.03-0.01 6.05 0.02l-10.54-4.05z" style="fill: url(#gradient-34);"/>
          <path id="path2300" d="m538.36 277.39c-1.71-0.56-2.53-1.43-3.52-2.3-0.69-0.87-0.61-1.81-0.75-2.73-0.08-0.9 0.04-1.8 0.08-2.69l-11.47-3.2c-0.07 0.93-0.25 1.86-0.15 2.79 0.07 0.99 0.04 2 0.57 2.96 0.84 0.96 1.51 1.92 3.14 2.63l12.1 2.54z" style="fill: url(#gradient-35);"/>
          <path id="path2302" d="m507.01 533.8c6.9-0.1 17.27-2.69-5.34 1.82 3.7-0.78 6.25-2 8.99-3.14 2.1-0.89 3.88-1.87 5.77-2.82 1.7-0.81 2.71-1.73 3.85-2.64 1.22-1.09 1.77-2.25 2.45-3.38 0.45-0.86 0.48-1.74 0.57-2.61 0.02-0.77 0.01-1.55 0-2.32 0.02-0.35-0.02-0.7-0.03-1.05l14.48-2.6c0 0.36-0.05 0.71-0.02 1.07 0.01 0.77 0.02 1.55 0 2.32-0.08 0.91-0.1 1.82-0.55 2.71-0.63 1.17-1.3 2.34-2.29 3.48-1.06 0.95-2.07 1.9-3.66 2.76-1.98 0.97-3.89 1.95-5.92 2.91-2.77 1.13-5.24 2.38-8.69 3.27-8.91 1.81-13.58 3.47-22.8 3.59l13.19-3.37z" style="fill: url(#gradient-36);"/>
          <path id="path2304" d="m487.25 541.17c2.12 0.03 4.23 0.02 6.34 0.02h6.74c2.26-0.07 4.45 0.07 6.67 0.21 1.85 0.18 3.6 0.48 5.39 0.74 1.59 0.1 3.1 0.29 4.66 0.45l-11.38 3.29c-1.58-0.15-3.17-0.31-4.73-0.49-1.71-0.24-3.38-0.55-5.2-0.66-2.17-0.1-4.32-0.21-6.51-0.15-2.25 0-4.5 0.01-6.76 0.01-2.15-0.01-4.3-0.01-6.44 0.01l11.22-3.43z" style="fill: url(#gradient-37);"/>
          <path id="path2306" d="m473.89 543.18c1.82-0.48 2.71-1.21 3.75-1.95 0.74-0.74 0.65-1.53 0.8-2.31 0.09-0.76-0.03-1.52-0.08-2.28l12.21-2.7c0.08 0.78 0.27 1.57 0.16 2.36-0.07 0.84-0.04 1.69-0.6 2.5-0.9 0.82-1.61 1.62-3.34 2.22l-12.9 2.16z" style="fill: url(#gradient-38);"/>
          <path id="path2308" d="m503.6 467.59c-8.31 0.15-20.83 3.74 6.45-2.51-4.46 1.08-7.54 2.77-10.84 4.35-2.54 1.23-4.68 2.59-6.97 3.91-2.05 1.12-3.27 2.4-4.64 3.67-1.47 1.5-2.13 3.11-2.96 4.69-0.53 1.19-0.57 2.41-0.67 3.62-0.04 1.07-0.02 2.14-0.01 3.21-0.03 0.49 0.03 0.98 0.04 1.46l-17.47 3.6c0.01-0.49 0.06-0.98 0.02-1.47 0-1.08-0.02-2.16 0-3.23 0.1-1.26 0.12-2.52 0.66-3.76 0.77-1.62 1.58-3.25 2.77-4.83 1.28-1.31 2.5-2.63 4.42-3.82 2.38-1.35 4.69-2.72 7.13-4.04 3.34-1.57 6.33-3.31 10.49-4.55 10.75-2.5 16.38-4.8 27.5-4.97l-15.92 4.67z" style="fill: url(#gradient-39);"/>
          <path id="path2310" d="m521.44 461.17c-2.55-0.04-5.1-0.02-7.65-0.02-2.71 0-5.42-0.01-8.12-0.01-2.73 0.11-5.37-0.08-8.05-0.29-2.24-0.25-4.34-0.66-6.5-1.02-1.92-0.13-3.74-0.4-5.62-0.62l13.73-4.57c1.9 0.21 3.81 0.42 5.7 0.68 2.07 0.34 4.08 0.77 6.27 0.92 2.62 0.14 5.21 0.29 7.86 0.2h8.15c2.59 0 5.18 0.01 7.77-0.03l-13.54 4.76z" style="fill: url(#gradient-40);"/>
          <path id="path2312" d="m537.56 458.39c-2.2 0.66-3.26 1.68-4.53 2.7-0.89 1.03-0.78 2.13-0.96 3.21-0.1 1.05 0.04 2.11 0.1 3.16l-14.73 3.75c-0.1-1.08-0.33-2.18-0.2-3.27 0.09-1.17 0.05-2.35 0.73-3.48 1.09-1.13 1.95-2.25 4.03-3.08l15.56-2.99z" style="fill: url(#gradient-41);"/>
          <path id="path3631" style="fill-rule: evenodd; stroke: rgb(0, 0, 0); stroke-width: 0.7192px; fill: url(#gradient-42);" d="m236.75 100.81c6.74-0.846 5.88-8.351 9.33-15.301 3.1-6.269 8.16 2.516 8.16-9.416 0-3.497 13.07-4.025 15.15-8.238 1.04-2.105 14.88 1.107 15.16 1.177 4.71 1.189 17.48-1.177 24.48-1.177 3.2 0 6.22 1.569 9.33 2.353 7.53 1.903 12.64 0.445 13.98 5.885 0.25 0.976 4.41 8.896 5.83 11.769 3.23 6.512 2.34 3.609 2.34 10.593 0 4.855 1.34 9.785 3.49 14.125 2.32 4.68-2.48 10.17-3.49 15.3-0.57 2.87-2.74 12.24-3.5 15.3-0.67 2.68-7.89 7.69-9.33 10.59-3.17 6.4-5.11 3.76-11.66 7.06-7.55 3.82-8.17 5.3-13.99 8.24-7.04 3.56-6.19 2.79-9.32-3.53-2.44-4.91-11.05 1.33-16.32 0-7.68-1.94-16.04-0.45-19.82-2.35-3.76-1.9-7-6.35-7-10.6 0-3.5-8.57-3.91 0-8.23 3.28-1.66-6.71-5.83-5.83-9.42 0.66-2.63-11.05 0.57-3.49-7.06 2.29-2.32-8.27-3.42-2.33-9.42 2.8-2.83-0.56-8.19-2.34-11.77-0.88-1.79 0.78-3.92 1.17-5.88z"/>
          <path id="path3643" style="fill-rule: evenodd; stroke: rgb(0, 0, 0); stroke-width: 0.7192px; fill: url(#gradient-43);" d="m306.81 59.996c6.74-0.845 5.89-8.35 9.33-15.3 3.11-6.269 8.16 2.516 8.16-9.416 0-3.497 13.07-4.025 15.16-8.238 1.04-2.105 14.87 1.107 15.15 1.177 4.71 1.189 17.49-1.177 24.48-1.177 3.21 0 6.22 1.569 9.33 2.354 7.54 1.902 12.64 0.444 13.99 5.884 0.24 0.976 4.41 8.896 5.83 11.77 3.22 6.511 2.33 3.608 2.33 10.592 0 4.853 1.35 9.783 3.5 14.123 2.32 4.682-2.48 10.168-3.5 15.3-0.57 2.869-2.74 12.239-3.5 15.305-0.66 2.67-7.89 7.69-9.32 10.59-3.18 6.4-5.12 3.76-11.66 7.06-7.56 3.81-8.17 5.3-13.99 8.24-7.04 3.55-6.2 2.78-9.33-3.53-2.43-4.92-11.04 1.33-16.32 0-7.68-1.94-16.04-0.45-19.82-2.36-3.76-1.89-6.99-6.35-6.99-10.59 0-3.5-8.57-3.91 0-8.24 3.28-1.65-6.72-5.822-5.83-9.413 0.65-2.633-11.06 0.571-3.5-7.062 2.29-2.314-8.27-3.42-2.33-9.415 2.8-2.829-0.56-8.191-2.33-11.769-0.89-1.79 0.78-3.923 1.16-5.885z"/>
          <path id="path3601" style="fill-rule: evenodd; stroke: rgb(0, 0, 0); stroke-width: 0.7192px; fill: url(#gradient-44);" d="m176.47 144.78c6.73-0.85 5.88-8.35 9.32-15.3 3.11-6.27 8.16 2.52 8.16-9.42 0-3.49 13.07-4.02 15.16-8.24 1.04-2.1 14.88 1.11 15.15 1.18 4.71 1.19 17.49-1.18 24.48-1.18 3.21 0 6.22 1.57 9.33 2.36 7.54 1.9 12.64 0.44 13.99 5.88 0.24 0.98 4.41 8.9 5.83 11.77 3.22 6.51 2.33 3.61 2.33 10.6 0 4.85 1.35 9.78 3.5 14.12 2.32 4.68-2.48 10.17-3.5 15.3-0.57 2.87-2.74 12.24-3.5 15.3-0.66 2.68-7.89 7.69-9.32 10.59-3.17 6.4-5.11 3.76-11.66 7.06-7.56 3.82-8.17 5.3-13.99 8.24-7.04 3.56-6.2 2.79-9.33-3.53-2.43-4.91-11.04 1.33-16.32 0-7.68-1.94-16.04-0.45-19.82-2.35-3.76-1.9-6.99-6.35-6.99-10.6 0-3.5-8.57-3.91 0-8.23 3.28-1.66-6.72-5.83-5.83-9.42 0.65-2.63-11.06 0.57-3.5-7.06 2.3-2.32-8.27-3.42-2.33-9.42 2.8-2.83-0.56-8.19-2.33-11.77-0.89-1.79 0.78-3.92 1.17-5.88z"/>
          <path id="path3633" d="m278.5 629.27c0 31.932-28.803 57.818-64.333 57.818s-64.333-25.886-64.333-57.818 28.803-57.818 64.333-57.818 64.333 25.886 64.333 57.818z" transform="matrix(.72562 0 0 .79406 135.59 -383.38)" style="fill: url(#gradient-45);"/>
          <path id="path3645" d="m278.5 629.27c0 31.932-28.803 57.818-64.333 57.818s-64.333-25.886-64.333-57.818 28.803-57.818 64.333-57.818 64.333 25.886 64.333 57.818z" transform="matrix(.72562 0 0 .79406 205.62 -423.65)" style="fill: url(#gradient-46);"/>
          <path id="path3603" d="m278.5 629.27c0 31.932-28.803 57.818-64.333 57.818s-64.333-25.886-64.333-57.818 28.803-57.818 64.333-57.818 64.333 25.886 64.333 57.818z" transform="matrix(.72562 0 0 .79406 74.922 -338.33)" style="fill: url(#gradient-47);"/>
          <path id="path3726" style="fill-rule: evenodd; stroke: rgb(0, 0, 0); stroke-width: 0.7192px; fill: url(#gradient-48);" d="m379.53 49.975c6.74-0.844 5.88-8.349 9.33-15.3 3.1-6.269 8.16 2.517 8.16-9.415 0-3.498 13.07-4.025 15.15-8.239 1.04-2.104 14.88 1.107 15.16 1.177 4.71 1.189 17.48-1.177 24.48-1.177 3.2 0 6.22 1.57 9.33 2.354 7.53 1.902 12.64 0.444 13.99 5.885 0.24 0.976 4.4 8.896 5.82 11.769 3.23 6.511 2.34 3.609 2.34 10.593 0 4.852 1.34 9.782 3.49 14.123 2.32 4.681-2.48 10.167-3.49 15.3-0.57 2.868-2.74 12.239-3.5 15.3-0.66 2.679-7.89 7.695-9.33 10.595-3.17 6.4-5.11 3.75-11.66 7.06-7.55 3.81-8.17 5.3-13.99 8.24-7.04 3.55-6.19 2.78-9.32-3.53-2.43-4.92-11.04 1.33-16.32 0-7.68-1.94-16.04-0.45-19.82-2.36-3.76-1.89-7-6.35-7-10.59 0-3.499-8.57-3.912 0-8.238 3.28-1.655-6.71-5.825-5.82-9.416 0.65-2.633-11.06 0.571-3.5-7.061 2.29-2.315-8.27-3.42-2.33-9.416 2.8-2.829-0.56-8.19-2.34-11.769-0.88-1.789 0.78-3.923 1.17-5.885z"/>
          <path id="path3734" style="fill-rule: evenodd; stroke: rgb(0, 0, 0); stroke-width: 0.7192px; fill: url(#gradient-49);" d="m448.93 52.276c6.74-0.845 5.89-8.35 9.33-15.3 3.1-6.269 8.16 2.516 8.16-9.416 0-3.497 13.07-4.025 15.16-8.238 1.04-2.105 14.87 1.107 15.15 1.177 4.71 1.189 17.49-1.177 24.48-1.177 3.21 0 6.22 1.569 9.33 2.354 7.54 1.902 12.64 0.444 13.99 5.884 0.24 0.976 4.4 8.896 5.83 11.77 3.22 6.511 2.33 3.608 2.33 10.592 0 4.853 1.35 9.783 3.5 14.123 2.32 4.682-2.48 10.168-3.5 15.3-0.57 2.868-2.74 12.239-3.5 15.3-0.66 2.68-7.89 7.695-9.32 10.595-3.18 6.4-5.12 3.76-11.66 7.06-7.56 3.81-8.17 5.3-13.99 8.24-7.04 3.55-6.2 2.78-9.33-3.53-2.43-4.92-11.04 1.33-16.32 0-7.68-1.94-16.04-0.45-19.82-2.36-3.76-1.89-6.99-6.35-6.99-10.59 0-3.5-8.57-3.91 0-8.238 3.28-1.655-6.72-5.825-5.83-9.415 0.65-2.633-11.06 0.571-3.5-7.062 2.29-2.315-8.27-3.42-2.33-9.415 2.8-2.829-0.56-8.191-2.33-11.77-0.89-1.789 0.78-3.923 1.16-5.884z"/>
          <path id="path3728" d="m278.5 629.27c0 31.932-28.803 57.818-64.333 57.818s-64.333-25.886-64.333-57.818 28.803-57.818 64.333-57.818 64.333 25.886 64.333 57.818z" transform="matrix(.72562 0 0 .79406 278.34 -435.39)" style="fill: url(#gradient-50);"/>
          <path id="path3736" d="m278.5 629.27c0 31.932-28.803 57.818-64.333 57.818s-64.333-25.886-64.333-57.818 28.803-57.818 64.333-57.818 64.333 25.886 64.333 57.818z" transform="matrix(.72562 0 0 .79406 347.74 -431.28)" style="fill: url(#gradient-51);"/>
        </g>
      </g>
    </pattern>
    <pattern id="pattern-0-0" patternTransform="matrix(-8.821464, -2.977481, 2.889758, -8.561521, 304.12292, 836.766847)" xlink:href="#pattern-0"/>
    <radialGradient id="gradient-0" gradientUnits="userSpaceOnUse" cx="619.474" cy="523.78" r="331.44">
      <stop offset="0" style="stop-color: rgb(152, 32, 158);"/>
      <stop offset="1" style="stop-color: rgba(0, 0, 0, 1)"/>
    </radialGradient>
    <radialGradient id="gradient-1" gradientUnits="userSpaceOnUse" cx="454.394" cy="255.093" r="311.996">
      <stop offset="0" style="stop-color: rgba(78, 16, 82, 1)"/>
      <stop offset="1" style="stop-color: rgba(0, 0, 0, 1)"/>
    </radialGradient>
    <radialGradient id="gradient-2" gradientUnits="userSpaceOnUse" cx="267.044" cy="351.858" r="47.631">
      <stop offset="0" style="stop-color: rgba(78, 16, 82, 1)"/>
      <stop offset="1" style="stop-color: rgba(0, 0, 0, 1)"/>
    </radialGradient>
    <radialGradient id="gradient-3" gradientUnits="userSpaceOnUse" cx="214.167" cy="629.27" r="64.333">
      <stop offset="0" style="stop-color: rgba(78, 16, 82, 1)"/>
      <stop offset="1" style="stop-color: rgba(0, 0, 0, 1)"/>
    </radialGradient>
    <radialGradient id="gradient-4" gradientUnits="userSpaceOnUse" cx="383.231" cy="528.359" r="47.634">
      <stop offset="0" style="stop-color: rgba(78, 16, 82, 1)"/>
      <stop offset="1" style="stop-color: rgba(0, 0, 0, 1)"/>
    </radialGradient>
    <radialGradient id="gradient-5" gradientUnits="userSpaceOnUse" cx="214.167" cy="629.27" r="64.333">
      <stop offset="0" style="stop-color: rgba(78, 16, 82, 1)"/>
      <stop offset="1" style="stop-color: rgba(0, 0, 0, 1)"/>
    </radialGradient>
    <radialGradient id="gradient-6" gradientUnits="userSpaceOnUse" cx="614.111" cy="473.692" r="47.634">
      <stop offset="0" style="stop-color: rgba(78, 16, 82, 1)"/>
      <stop offset="1" style="stop-color: rgba(0, 0, 0, 1)"/>
    </radialGradient>
    <radialGradient id="gradient-7" gradientUnits="userSpaceOnUse" cx="214.167" cy="629.27" r="64.333">
      <stop offset="0" style="stop-color: rgba(78, 16, 82, 1)"/>
      <stop offset="1" style="stop-color: rgba(0, 0, 0, 1)"/>
    </radialGradient>
    <radialGradient id="gradient-8" gradientUnits="userSpaceOnUse" cx="618.301" cy="274.987" r="47.633">
      <stop offset="0" style="stop-color: rgba(78, 16, 82, 1)"/>
      <stop offset="1" style="stop-color: rgba(0, 0, 0, 1)"/>
    </radialGradient>
    <radialGradient id="gradient-9" gradientUnits="userSpaceOnUse" cx="214.167" cy="629.27" r="64.333">
      <stop offset="0" style="stop-color: rgba(78, 16, 82, 1)"/>
      <stop offset="1" style="stop-color: rgba(0, 0, 0, 1)"/>
    </radialGradient>
    <radialGradient id="gradient-10" gradientUnits="userSpaceOnUse" cx="417.571" cy="206.659" r="47.634">
      <stop offset="0" style="stop-color: rgba(78, 16, 82, 1)"/>
      <stop offset="1" style="stop-color: rgba(0, 0, 0, 1)"/>
    </radialGradient>
    <radialGradient id="gradient-11" gradientUnits="userSpaceOnUse" cx="214.167" cy="629.27" r="64.333">
      <stop offset="0" style="stop-color: rgba(78, 16, 82, 1)"/>
      <stop offset="1" style="stop-color: rgba(0, 0, 0, 1)"/>
    </radialGradient>
    <radialGradient id="gradient-12" gradientUnits="userSpaceOnUse" cx="650.91" cy="364.665" r="8.94">
      <stop offset="0" style="stop-color: rgba(78, 16, 82, 1)"/>
      <stop offset="1" style="stop-color: rgba(0, 0, 0, 1)"/>
    </radialGradient>
    <radialGradient id="gradient-13" gradientUnits="userSpaceOnUse" cx="643.08" cy="401.657" r="8.35">
      <stop offset="0" style="stop-color: rgba(78, 16, 82, 1)"/>
      <stop offset="1" style="stop-color: rgba(0, 0, 0, 1)"/>
    </radialGradient>
    <radialGradient id="gradient-14" gradientUnits="userSpaceOnUse" cx="637.301" cy="391.1" r="3.431">
      <stop offset="0" style="stop-color: rgba(78, 16, 82, 1)"/>
      <stop offset="1" style="stop-color: rgba(0, 0, 0, 1)"/>
    </radialGradient>
    <radialGradient id="gradient-15" gradientUnits="userSpaceOnUse" cx="592.85" cy="381.02" r="12.33">
      <stop offset="0" style="stop-color: rgba(78, 16, 82, 1)"/>
      <stop offset="1" style="stop-color: rgba(0, 0, 0, 1)"/>
    </radialGradient>
    <radialGradient id="gradient-16" gradientUnits="userSpaceOnUse" cx="601.895" cy="343.29" r="11.515">
      <stop offset="0" style="stop-color: rgba(78, 16, 82, 1)"/>
      <stop offset="1" style="stop-color: rgba(0, 0, 0, 1)"/>
    </radialGradient>
    <radialGradient id="gradient-17" gradientUnits="userSpaceOnUse" cx="609.871" cy="354.98" r="4.739">
      <stop offset="0" style="stop-color: rgba(78, 16, 82, 1)"/>
      <stop offset="1" style="stop-color: rgba(0, 0, 0, 1)"/>
    </radialGradient>
    <radialGradient id="gradient-18" gradientUnits="userSpaceOnUse" cx="283.66" cy="447.08" r="15.47">
      <stop offset="0" style="stop-color: rgba(78, 16, 82, 1)"/>
      <stop offset="1" style="stop-color: rgba(0, 0, 0, 1)"/>
    </radialGradient>
    <radialGradient id="gradient-19" gradientUnits="userSpaceOnUse" cx="297.215" cy="472.852" r="14.445">
      <stop offset="0" style="stop-color: rgba(78, 16, 82, 1)"/>
      <stop offset="1" style="stop-color: rgba(0, 0, 0, 1)"/>
    </radialGradient>
    <radialGradient id="gradient-20" gradientUnits="userSpaceOnUse" cx="307.227" cy="465.495" r="5.943">
      <stop offset="0" style="stop-color: rgba(78, 16, 82, 1)"/>
      <stop offset="1" style="stop-color: rgba(0, 0, 0, 1)"/>
    </radialGradient>
    <radialGradient id="gradient-21" gradientUnits="userSpaceOnUse" cx="332.815" cy="438.565" r="15.885">
      <stop offset="0" style="stop-color: rgba(78, 16, 82, 1)"/>
      <stop offset="1" style="stop-color: rgba(0, 0, 0, 1)"/>
    </radialGradient>
    <radialGradient id="gradient-22" gradientUnits="userSpaceOnUse" cx="318.895" cy="408.964" r="14.835">
      <stop offset="0" style="stop-color: rgba(78, 16, 82, 1)"/>
      <stop offset="1" style="stop-color: rgba(0, 0, 0, 1)"/>
    </radialGradient>
    <radialGradient id="gradient-23" gradientUnits="userSpaceOnUse" cx="308.62" cy="417.415" r="6.1">
      <stop offset="0" style="stop-color: rgba(78, 16, 82, 1)"/>
      <stop offset="1" style="stop-color: rgba(0, 0, 0, 1)"/>
    </radialGradient>
    <radialGradient id="gradient-24" gradientUnits="userSpaceOnUse" cx="321.445" cy="275.03" r="12.525">
      <stop offset="0" style="stop-color: rgba(78, 16, 82, 1)"/>
      <stop offset="1" style="stop-color: rgba(0, 0, 0, 1)"/>
    </radialGradient>
    <radialGradient id="gradient-25" gradientUnits="userSpaceOnUse" cx="332.425" cy="260.718" r="11.695">
      <stop offset="0" style="stop-color: rgba(78, 16, 82, 1)"/>
      <stop offset="1" style="stop-color: rgba(0, 0, 0, 1)"/>
    </radialGradient>
    <radialGradient id="gradient-26" gradientUnits="userSpaceOnUse" cx="340.529" cy="264.8" r="4.811">
      <stop offset="0" style="stop-color: rgba(78, 16, 82, 1)"/>
      <stop offset="1" style="stop-color: rgba(0, 0, 0, 1)"/>
    </radialGradient>
    <radialGradient id="gradient-27" gradientUnits="userSpaceOnUse" cx="361.25" cy="279.765" r="12.86">
      <stop offset="0" style="stop-color: rgba(78, 16, 82, 1)"/>
      <stop offset="1" style="stop-color: rgba(0, 0, 0, 1)"/>
    </radialGradient>
    <radialGradient id="gradient-28" gradientUnits="userSpaceOnUse" cx="349.98" cy="296.205" r="12.01">
      <stop offset="0" style="stop-color: rgba(78, 16, 82, 1)"/>
      <stop offset="1" style="stop-color: rgba(0, 0, 0, 1)"/>
    </radialGradient>
    <radialGradient id="gradient-29" gradientUnits="userSpaceOnUse" cx="341.659" cy="291.515" r="4.939">
      <stop offset="0" style="stop-color: rgba(78, 16, 82, 1)"/>
      <stop offset="1" style="stop-color: rgba(0, 0, 0, 1)"/>
    </radialGradient>
    <radialGradient id="gradient-30" gradientUnits="userSpaceOnUse" cx="532.66" cy="208.625" r="20.08">
      <stop offset="0" style="stop-color: rgba(78, 16, 82, 1)"/>
      <stop offset="1" style="stop-color: rgba(0, 0, 0, 1)"/>
    </radialGradient>
    <radialGradient id="gradient-31" gradientUnits="userSpaceOnUse" cx="515.055" cy="190.712" r="18.755">
      <stop offset="0" style="stop-color: rgba(78, 16, 82, 1)"/>
      <stop offset="1" style="stop-color: rgba(0, 0, 0, 1)"/>
    </radialGradient>
    <radialGradient id="gradient-32" gradientUnits="userSpaceOnUse" cx="502.065" cy="195.825" r="7.715">
      <stop offset="0" style="stop-color: rgba(78, 16, 82, 1)"/>
      <stop offset="1" style="stop-color: rgba(0, 0, 0, 1)"/>
    </radialGradient>
    <radialGradient id="gradient-33" gradientUnits="userSpaceOnUse" cx="499.03" cy="257.225" r="20.62">
      <stop offset="0" style="stop-color: rgba(78, 16, 82, 1)"/>
      <stop offset="1" style="stop-color: rgba(0, 0, 0, 1)"/>
    </radialGradient>
    <radialGradient id="gradient-34" gradientUnits="userSpaceOnUse" cx="517.105" cy="277.805" r="19.255">
      <stop offset="0" style="stop-color: rgba(78, 16, 82, 1)"/>
      <stop offset="1" style="stop-color: rgba(0, 0, 0, 1)"/>
    </radialGradient>
    <radialGradient id="gradient-35" gradientUnits="userSpaceOnUse" cx="530.44" cy="271.93" r="7.92">
      <stop offset="0" style="stop-color: rgba(78, 16, 82, 1)"/>
      <stop offset="1" style="stop-color: rgba(0, 0, 0, 1)"/>
    </radialGradient>
    <radialGradient id="gradient-36" gradientUnits="userSpaceOnUse" cx="515.785" cy="526.115" r="21.965">
      <stop offset="0" style="stop-color: rgba(78, 16, 82, 1)"/>
      <stop offset="1" style="stop-color: rgba(0, 0, 0, 1)"/>
    </radialGradient>
    <radialGradient id="gradient-37" gradientUnits="userSpaceOnUse" cx="496.54" cy="543.525" r="20.51">
      <stop offset="0" style="stop-color: rgba(78, 16, 82, 1)"/>
      <stop offset="1" style="stop-color: rgba(0, 0, 0, 1)"/>
    </radialGradient>
    <radialGradient id="gradient-38" gradientUnits="userSpaceOnUse" cx="482.327" cy="538.56" r="8.437">
      <stop offset="0" style="stop-color: rgba(78, 16, 82, 1)"/>
      <stop offset="1" style="stop-color: rgba(0, 0, 0, 1)"/>
    </radialGradient>
    <radialGradient id="gradient-39" gradientUnits="userSpaceOnUse" cx="493.025" cy="478.255" r="26.495">
      <stop offset="0" style="stop-color: rgba(78, 16, 82, 1)"/>
      <stop offset="1" style="stop-color: rgba(0, 0, 0, 1)"/>
    </radialGradient>
    <radialGradient id="gradient-40" gradientUnits="userSpaceOnUse" cx="510.24" cy="457.906" r="24.74">
      <stop offset="0" style="stop-color: rgba(78, 16, 82, 1)"/>
      <stop offset="1" style="stop-color: rgba(0, 0, 0, 1)"/>
    </radialGradient>
    <radialGradient id="gradient-41" gradientUnits="userSpaceOnUse" cx="527.381" cy="464.8" r="10.179">
      <stop offset="0" style="stop-color: rgba(78, 16, 82, 1)"/>
      <stop offset="1" style="stop-color: rgba(0, 0, 0, 1)"/>
    </radialGradient>
    <radialGradient id="gradient-42" gradientUnits="userSpaceOnUse" cx="289.976" cy="119.164" r="54.65">
      <stop offset="0" style="stop-color: rgba(78, 16, 82, 1)"/>
      <stop offset="1" style="stop-color: rgba(0, 0, 0, 1)"/>
    </radialGradient>
    <radialGradient id="gradient-43" gradientUnits="userSpaceOnUse" cx="360.044" cy="78.349" r="54.652">
      <stop offset="0" style="stop-color: rgba(78, 16, 82, 1)"/>
      <stop offset="1" style="stop-color: rgba(0, 0, 0, 1)"/>
    </radialGradient>
    <radialGradient id="gradient-44" gradientUnits="userSpaceOnUse" cx="229.694" cy="163.133" r="54.652">
      <stop offset="0" style="stop-color: rgba(78, 16, 82, 1)"/>
      <stop offset="1" style="stop-color: rgba(0, 0, 0, 1)"/>
    </radialGradient>
    <radialGradient id="gradient-45" gradientUnits="userSpaceOnUse" cx="214.167" cy="629.27" r="64.333">
      <stop offset="0" style="stop-color: rgba(78, 16, 82, 1)"/>
      <stop offset="1" style="stop-color: rgba(0, 0, 0, 1)"/>
    </radialGradient>
    <radialGradient id="gradient-46" gradientUnits="userSpaceOnUse" cx="214.167" cy="629.27" r="64.333">
      <stop offset="0" style="stop-color: rgba(78, 16, 82, 1)"/>
      <stop offset="1" style="stop-color: rgba(0, 0, 0, 1)"/>
    </radialGradient>
    <radialGradient id="gradient-47" gradientUnits="userSpaceOnUse" cx="214.167" cy="629.27" r="64.333">
      <stop offset="0" style="stop-color: rgba(78, 16, 82, 1)"/>
      <stop offset="1" style="stop-color: rgba(0, 0, 0, 1)"/>
    </radialGradient>
    <radialGradient id="gradient-48" gradientUnits="userSpaceOnUse" cx="432.756" cy="68.329" r="54.65">
      <stop offset="0" style="stop-color: rgba(78, 16, 82, 1)"/>
      <stop offset="1" style="stop-color: rgba(0, 0, 0, 1)"/>
    </radialGradient>
    <radialGradient id="gradient-49" gradientUnits="userSpaceOnUse" cx="502.164" cy="70.629" r="54.652">
      <stop offset="0" style="stop-color: rgba(78, 16, 82, 1)"/>
      <stop offset="1" style="stop-color: rgba(0, 0, 0, 1)"/>
    </radialGradient>
    <radialGradient id="gradient-50" gradientUnits="userSpaceOnUse" cx="214.167" cy="629.27" r="64.333">
      <stop offset="0" style="stop-color: rgba(78, 16, 82, 1)"/>
      <stop offset="1" style="stop-color: rgba(0, 0, 0, 1)"/>
    </radialGradient>
    <radialGradient id="gradient-51" gradientUnits="userSpaceOnUse" cx="214.167" cy="629.27" r="64.333">
      <stop offset="0" style="stop-color: rgba(78, 16, 82, 1)"/>
      <stop offset="1" style="stop-color: rgba(0, 0, 0, 1)"/>
    </radialGradient>
  </defs>
  <rect id="svgEditorBackground" x="202.71499633789062" y="584.4310302734375" width="86.59329986572266" height="115.80899810791016" style="fill: none; stroke: none;" class="shirt"/>
  <polygon id="e7_polygon" style="stroke: none; stroke-width: 0px;" points="254.828 683.96 247.215 684.916 244.518 727.947 245.893 727.947 247.955 690.833" fill="black" transform="matrix(-0.52 0 0 1.46972 403.612 -317.826)" class="shirt"/>
  <polygon id="e2_polygon" style="stroke-width: 0px; stroke: none; fill: url(#pattern-0-0);" points="238.386 653.06 204.02 670.242 201.958 701.858 211.581 701.858 212.268 688.112 208.832 792.583 278.937 793.957 280.312 765.778 280.312 697.734 289.246 699.109 291.308 676.428 288.559 675.741 259.005 654.434" class="shirt"/>
</svg>