<svg class="shirtOverlay" width="86" height="380" viewBox="202.715 584.407 86.593 380.048" xmlns="http://www.w3.org/2000/svg"><defs><linearGradient id="b" gradientUnits="userSpaceOnUse" gradientTransform="translate(708.74 136.38) scale(450.65)"><stop offset="0" stop-color="#fff"/><stop offset="1" stop-color="#b3c4d3"/></linearGradient><linearGradient id="c" gradientUnits="userSpaceOnUse" gradientTransform="translate(731.07 261.86) scale(453.64)"><stop offset="0" stop-color="#fff"/><stop offset="1" stop-color="#b3c4d3"/></linearGradient><linearGradient id="d" gradientUnits="userSpaceOnUse" gradientTransform="matrix(17.608 -1.6733 1.6733 17.608 734.15 213.32)"><stop offset="0" stop-color="#bdbcbc"/><stop offset="1" stop-color="#5a5758"/></linearGradient><filter id="a"><feGaussianBlur stdDeviation="5.812"/></filter></defs><path class="shirtOverlay" fill="none" d="M202.715 584.431h86.593V700.24h-86.593z"/><path d="M1138.8 10.269c-105.5 41.31-209.26 86.949-313.87 130.44-36.72 15.36-73.54 30.5-110.18 46.06l42.5 456.31c.52 5.52 5.35 9.55 10.78 9.03l458.27-43.53c5.4-.51 9.4-5.39 8.9-10.91l-36.7-385.87c-1.2-7.79-12.5-12.22-19.4-10.75-131.2 14.28-262.53 26.77-393.85 39.5 126.86-52.42 253.75-104.83 380.55-157.25l-27-73.031z" filter="url(#a)" fill="#231f20" transform="matrix(.10157 0 0 .10157 144.751 669.399)"/><path d="M264.785 690.398l-42.905 4.076-1.56.65-.27-.476-1.818.172a1.009 1.009 0 0 0-.9 1.11l3.723 39.191c.053.56.542.972 1.094.92l46.547-4.423c.548-.053.954-.549.904-1.11l-3.728-39.19a1.003 1.003 0 0 0-1.087-.92" fill="#231f20"/><path d="M222.679 694.742l39.872-16.477.386-1.143-45.384 12.09 3.296 5.704.27.478 1.56-.652z" fill="#5a5758"/><path d="M759.21 245.2L1159.4 77.78 1114 21.132l-405.26 169.64 32.46 56.14 2.66 4.72 15.35-6.43z" fill="url(#b)" transform="matrix(.10157 0 0 .10157 144.751 669.399)"/><path d="M1184.7 204.77l-440.51 43.21-13.12 70.96L1179 278.08l5.7-73.31z" fill="url(#c)" transform="matrix(.10157 0 0 .10157 144.751 669.399)"/><path d="M743.03 203.64c-.3 0-.61.01-.91.03-3.95.38-7.04 3.31-7.81 7-.06.29-.13.56-.16.85a9.121 9.121 0 0 0 .35 3.56c.08.28.2.55.31.81 0 .01-.01.03 0 .03.11.26.21.51.34.75.55 1.03 1.28 1.9 2.16 2.63a8.68 8.68 0 0 0 2.97 1.62c.01.01.02 0 .03 0 .26.09.54.17.81.22.57.12 1.15.19 1.75.19.3 0 .6 0 .91-.03.62-.06 1.21-.2 1.78-.38.28-.08.54-.16.81-.28.54-.22 1.03-.49 1.5-.81.37-.24.71-.52 1.03-.81.1-.09.19-.19.28-.28.32-.32.61-.64.88-1 .07-.1.15-.19.22-.28 0-.01-.01-.03 0-.04.16-.23.3-.46.43-.71.14-.25.27-.49.38-.75.34-.79.56-1.66.66-2.54.06-.58.05-1.17 0-1.78-.03-.3-.07-.61-.13-.9-.05-.26-.11-.5-.19-.75l-.03-.1c-.07-.24-.16-.45-.25-.68-.08-.22-.18-.42-.28-.63l-.03-.09c-.03-.06-.06-.13-.09-.19-.1-.18-.21-.36-.32-.53-.14-.23-.3-.45-.47-.66-.4-.53-.86-1.01-1.37-1.44-.2-.16-.39-.32-.59-.46-.1-.07-.19-.13-.29-.19l-.06-.03c-.2-.13-.44-.27-.65-.38-.02-.01-.05-.02-.07-.03-.34-.17-.69-.31-1.06-.44-.09-.03-.16-.06-.25-.09a7.97 7.97 0 0 0-.84-.22c-.23-.05-.46-.09-.69-.12-.35-.05-.71-.06-1.06-.07z" fill="url(#d)" transform="matrix(.10157 0 0 .10157 144.751 669.399)"/><path d="M269.518 729.036c.041.477-.314.9-.792.944l-43.64 4.02a.869.869 0 0 1-.947-.784l-2.733-29.669a.869.869 0 0 1 .787-.943l43.638-4.02a.875.875 0 0 1 .955.784l2.732 29.668z" stroke="#231f20" stroke-width=".26723066999999995" fill="none"/><path d="M259.808 670.848l-2.66.99 4.61 5.8 1.22-.525-3.17-6.265zm-6.886 2.726l-5.993 2.568 4.602 5.803 5.992-2.572-4.6-5.799zm-11.373 4.689l-5.995 2.57 4.608 5.799 5.996-2.568-4.609-5.801zm-10.982 4.697l-5.996 2.568 4.61 5.801 5.995-2.57-4.61-5.799zm-13.915 5.824l1.086 11.411 5.132-2.035.254-2.774-6.472-6.602zm48.51 1.743l-1.362 7.282 1.33-.11.427-7.033-.396-.139zm-6.298.26l-6.389.606-1.371 7.723 6.338-.714 1.422-7.615zm-10.645 1.083l-6.347.533-1.352 7.462 6.43-.21 1.27-7.785zm-11.536 1.095l-6.342.618-1.358 7.377 6.342-.394 1.358-7.601z" fill="#231f20"/><text style="line-height:125%" transform="rotate(-5.745 6749.11 -1108.393) scale(.10157)" y="577.06" x="787.125" font-size="60" font-family="Bitstream Vera Sans" fill="#fff" font-weight="700" font-style="oblique" white-space="pre"><tspan x="787.125" y="577.06">Inkscape</tspan></text></svg>