<svg class="shirtOverlay" width="86" height="380" viewBox="202.715 584.407 86.593 380.048" xmlns="http://www.w3.org/2000/svg" xmlns:xlink="http://www.w3.org/1999/xlink"><defs><pattern id="a" width="20" height="20" patternUnits="userSpaceOnUse" viewBox="0 0 100 100"><g stroke-linejoin="round" stroke-linecap="round" stroke-miterlimit="4.4"><path d="M949.52 522.59c0 147.52-148.39 267.1-331.44 267.1S286.64 670.1 286.64 522.59c0-147.52 148.39-267.1 331.44-267.1s331.44 119.59 331.44 267.1z" transform="matrix(.11494 0 0 .13464 -21.836 -10.465)" fill="#f6ffd5"/><path d="M766.39 247.62c0 3.25-190.81-121.06-332.64-121.06-141.82 0-292.96 241.69-291.34 244.48 53.91 93.13 133.98-248 275.81-248s297.7 195.39 348.17 124.58z" fill="#55d400" transform="matrix(.14918 0 0 .16178 -19.779 -.718)"/></g><path d="M220.65 336.09c5.88-.73 5.13-7.17 8.13-13.14 2.71-5.39 7.11 2.16 7.11-8.09 0-3.01 11.39-3.46 13.21-7.08.91-1.81 12.97.95 13.21 1.01 4.11 1.02 15.24-1.01 21.34-1.01 2.79 0 5.42 1.35 8.13 2.02 6.57 1.63 11.02.38 12.19 5.06.21.83 3.84 7.64 5.08 10.11 2.81 5.59 2.03 3.1 2.03 9.1 0 4.17 1.18 8.4 3.05 12.13 2.02 4.02-2.16 8.74-3.05 13.15-.49 2.46-2.38 10.51-3.04 13.14-.58 2.3-6.88 6.61-8.13 9.1-2.77 5.5-4.46 3.23-10.16 6.07-6.59 3.27-7.13 4.55-12.2 7.07-6.13 3.06-5.4 2.4-8.13-3.03-2.12-4.22-9.62 1.15-14.22 0-6.69-1.66-13.98-.38-17.27-2.02-3.28-1.63-6.1-5.46-6.1-9.1 0-3.01-7.47-3.36 0-7.08 2.86-1.42-5.86-5-5.08-8.09.57-2.26-9.64.49-3.05-6.06 2-1.99-7.21-2.94-2.03-8.09 2.44-2.43-.49-7.04-2.03-10.11-.78-1.54.67-3.37 1.01-5.06z" fill-rule="evenodd" stroke="#000" stroke-width=".622" fill="maroon" transform="matrix(.14918 0 0 .16178 -19.779 -.718)"/><path d="M278.5 629.27c0 31.932-28.803 57.818-64.333 57.818s-64.333-25.886-64.333-57.818 28.803-57.818 64.333-57.818S278.5 597.338 278.5 629.27z" transform="matrix(.09435 0 0 .11037 -.065 -13.743)" fill="#ffb380"/><path d="M336.84 512.59c5.87-.72 5.13-7.17 8.13-13.14 2.7-5.39 7.11 2.16 7.11-8.09 0-3.01 11.39-3.46 13.21-7.08.91-1.81 12.97.95 13.21 1.01 4.1 1.02 15.24-1.01 21.34-1.01 2.79 0 5.41 1.35 8.12 2.02 6.57 1.64 11.02.39 12.2 5.06.21.84 3.84 7.64 5.08 10.11 2.81 5.59 2.03 3.1 2.03 9.1 0 4.17 1.17 8.4 3.05 12.13 2.02 4.03-2.16 8.74-3.05 13.15-.5 2.46-2.39 10.51-3.05 13.14-.58 2.3-6.88 6.61-8.13 9.1-2.76 5.5-4.45 3.23-10.16 6.07-6.58 3.28-7.12 4.55-12.19 7.08-6.14 3.05-5.4 2.39-8.13-3.04-2.12-4.22-9.62 1.15-14.22 0-6.7-1.66-13.98-.38-17.28-2.02-3.27-1.63-6.09-5.45-6.09-9.1 0-3-7.47-3.36 0-7.08 2.85-1.42-5.86-5-5.08-8.08.56-2.27-9.64.49-3.05-6.07 2-1.99-7.21-2.94-2.04-8.09 2.45-2.43-.48-7.04-2.03-10.11-.77-1.54.68-3.37 1.02-5.06z" fill-rule="evenodd" stroke="#000" stroke-width=".622" fill="#ff8080" transform="matrix(.14918 0 0 .16178 -19.779 -.718)"/><path d="M278.5 629.27c0 31.932-28.803 57.818-64.333 57.818s-64.333-25.886-64.333-57.818 28.803-57.818 64.333-57.818S278.5 597.338 278.5 629.27z" transform="matrix(.09435 0 0 .11037 17.313 14.989)" fill="#f60"/><path d="M567.72 457.93c5.88-.73 5.13-7.18 8.13-13.15 2.71-5.38 7.11 2.16 7.11-8.09 0-3 11.39-3.46 13.21-7.08.91-1.8 12.97.96 13.21 1.02 4.11 1.02 15.24-1.02 21.34-1.02 2.79 0 5.42 1.35 8.13 2.03 6.56 1.63 11.02.38 12.19 5.05.21.84 3.84 7.64 5.08 10.11 2.81 5.6 2.03 3.1 2.03 9.1 0 4.17 1.18 8.41 3.05 12.14 2.02 4.02-2.16 8.73-3.05 13.14-.49 2.47-2.39 10.52-3.05 13.15-.57 2.3-6.87 6.61-8.12 9.1-2.77 5.5-4.46 3.22-10.17 6.06-6.58 3.28-7.12 4.56-12.19 7.08-6.14 3.05-5.4 2.39-8.13-3.03-2.12-4.22-9.62 1.14-14.22 0-6.7-1.67-13.98-.39-17.28-2.02-3.27-1.64-6.09-5.46-6.09-9.11 0-3-7.47-3.36 0-7.07 2.86-1.42-5.86-5.01-5.08-8.09.57-2.26-9.64.49-3.05-6.07 2-1.99-7.21-2.94-2.03-8.09 2.44-2.43-.49-7.03-2.04-10.11-.77-1.54.68-3.37 1.02-5.05z" fill-rule="evenodd" stroke="#000" stroke-width=".622" fill="#2a2aff" transform="matrix(.14918 0 0 .16178 -19.779 -.718)"/><path d="M278.5 629.27c0 31.932-28.803 57.818-64.333 57.818s-64.333-25.886-64.333-57.818 28.803-57.818 64.333-57.818S278.5 597.338 278.5 629.27z" transform="matrix(.09435 0 0 .11037 51.756 5.907)" fill="#008066"/><path d="M571.91 259.22c5.87-.73 5.12-7.18 8.12-13.15 2.71-5.38 7.12 2.16 7.12-8.09 0-3 11.39-3.45 13.21-7.07.9-1.81 12.96.95 13.21 1.01 4.1 1.02 15.24-1.01 21.33-1.01 2.8 0 5.42 1.34 8.13 2.02 6.57 1.63 11.02.38 12.19 5.05.22.84 3.84 7.65 5.08 10.11 2.82 5.6 2.04 3.1 2.04 9.1 0 4.17 1.17 8.41 3.05 12.14 2.02 4.02-2.17 8.73-3.05 13.14-.5 2.47-2.39 10.52-3.05 13.15-.58 2.3-6.88 6.61-8.13 9.1-2.76 5.5-4.46 3.23-10.16 6.06-6.59 3.28-7.12 4.56-12.19 7.08-6.14 3.06-5.41 2.39-8.13-3.03-2.12-4.22-9.63 1.14-14.23 0-6.69-1.67-13.98-.38-17.27-2.02-3.28-1.63-6.1-5.46-6.1-9.1 0-3.01-7.47-3.37 0-7.08 2.86-1.42-5.85-5.01-5.08-8.09.57-2.26-9.64.49-3.05-6.07 2-1.99-7.2-2.94-2.03-8.09 2.44-2.43-.49-7.03-2.03-10.11-.77-1.53.68-3.37 1.02-5.05z" fill-rule="evenodd" stroke="#000" stroke-width=".622" fill="#c83771" transform="matrix(.14918 0 0 .16178 -19.779 -.718)"/><path d="M278.5 629.27c0 31.932-28.803 57.818-64.333 57.818s-64.333-25.886-64.333-57.818 28.803-57.818 64.333-57.818S278.5 597.338 278.5 629.27z" transform="matrix(.09435 0 0 .11037 52.381 -26.24)" fill="#ff2ad4"/><path d="M371.18 190.89c5.87-.73 5.13-7.17 8.13-13.14 2.7-5.39 7.11 2.16 7.11-8.09 0-3.01 11.39-3.46 13.21-7.08.91-1.81 12.97.95 13.21 1.01 4.1 1.02 15.24-1.01 21.34-1.01 2.79 0 5.41 1.35 8.12 2.02 6.57 1.64 11.02.38 12.2 5.06.21.84 3.84 7.64 5.08 10.11 2.81 5.59 2.03 3.1 2.03 9.1 0 4.17 1.17 8.4 3.05 12.13 2.02 4.02-2.16 8.74-3.05 13.15-.5 2.46-2.39 10.51-3.05 13.14-.58 2.3-6.88 6.61-8.13 9.1-2.76 5.5-4.45 3.23-10.16 6.07-6.58 3.27-7.12 4.55-12.19 7.08-6.14 3.05-5.4 2.39-8.13-3.04-2.12-4.22-9.63 1.15-14.23 0-6.69-1.66-13.97-.38-17.27-2.02-3.28-1.63-6.1-5.45-6.1-9.1 0-3.01-7.46-3.36 0-7.08 2.86-1.42-5.85-5-5.08-8.09.57-2.26-9.63.49-3.04-6.06 1.99-1.99-7.21-2.94-2.04-8.09 2.45-2.43-.48-7.04-2.03-10.11-.77-1.54.68-3.37 1.02-5.06z" fill-rule="evenodd" stroke="#000" stroke-width=".622" fill="#222b00" transform="matrix(.14918 0 0 .16178 -19.779 -.718)"/><path d="M278.5 629.27c0 31.932-28.803 57.818-64.333 57.818s-64.333-25.886-64.333-57.818 28.803-57.818 64.333-57.818S278.5 597.338 278.5 629.27z" transform="matrix(.09435 0 0 .11037 22.44 -37.132)" fill="#4a0"/><path d="M647.34 381c2.8-.23 7.03-5.73-2.17 3.85 1.5-1.66 2.54-4.25 3.65-6.67.86-1.89 1.58-3.97 2.35-5.98.69-1.72 1.11-3.69 1.57-5.62.49-2.31.72-4.77 1-7.18.18-1.83.19-3.69.23-5.55.01-1.64 0-3.28 0-4.92.01-.74-.01-1.49-.02-2.24l5.9-5.51c-.01.75-.02 1.51-.01 2.26 0 1.65.01 3.3 0 4.95-.04 1.92-.04 3.84-.23 5.74-.25 2.49-.53 4.98-.93 7.41-.43 2.01-.84 4.02-1.49 5.85-.8 2.06-1.58 4.15-2.4 6.19-1.13 2.4-2.14 5.06-3.54 6.95-3.63 3.83-5.53 7.37-9.28 7.62l5.37-7.15zM639.3 396.66c.86.05 1.72.03 2.58.03.92 0 1.83.01 2.74.01.92-.16 1.81.13 2.71.44.76.39 1.47 1.02 2.2 1.57.65.2 1.26.62 1.9.95l-4.64 7c-.64-.32-1.28-.65-1.92-1.04-.7-.52-1.38-1.18-2.11-1.41-.89-.22-1.76-.44-2.65-.31-.92 0-1.84.01-2.75.01-.88-.01-1.75-.02-2.63.03l4.57-7.28zM633.87 400.92c.74-1.01 1.1-2.58 1.52-4.14.3-1.57.27-3.26.33-4.92.03-1.61-.02-3.22-.04-4.83l4.97-5.75c.04 1.66.11 3.34.07 5.02-.03 1.78-.02 3.58-.25 5.32-.36 1.73-.65 3.44-1.36 4.72l-5.24 4.58zM597.77 362.94c-3.86.25-9.69 6.34 3-4.26-2.07 1.83-3.51 4.7-5.04 7.38-1.18 2.09-2.18 4.39-3.24 6.62-.96 1.9-1.53 4.08-2.16 6.22-.69 2.56-1 5.28-1.38 7.95-.25 2.03-.27 4.09-.32 6.14-.01 1.81 0 3.63 0 5.44-.01.83.02 1.66.02 2.49l-8.13 6.1c0-.83.03-1.67.01-2.51 0-1.82-.01-3.64 0-5.47.05-2.12.06-4.26.31-6.36.35-2.76.73-5.51 1.29-8.19.59-2.23 1.16-4.46 2.05-6.49 1.11-2.28 2.19-4.59 3.32-6.85 1.56-2.66 2.95-5.6 4.88-7.69 5-4.25 7.63-8.16 12.8-8.44l-7.41 7.92zM607.11 348.83c-1.19-.07-2.37-.04-3.56-.04-1.26 0-2.52-.01-3.78-.01-1.27.17-2.5-.15-3.74-.49-1.05-.42-2.02-1.13-3.03-1.74-.89-.22-1.74-.68-2.62-1.05l6.39-7.75c.89.36 1.78.73 2.65 1.16.97.57 1.91 1.3 2.92 1.55 1.22.25 2.43.5 3.66.35 1.26 0 2.53-.01 3.79-.01 1.21 0 2.41.02 3.62-.04l-6.3 8.07zM614.61 344.11c-1.02 1.12-1.52 2.86-2.11 4.58-.41 1.74-.36 3.61-.45 5.45-.04 1.78.02 3.56.05 5.34l-6.85 6.37c-.05-1.84-.16-3.7-.1-5.56.04-1.97.03-3.96.34-5.88.51-1.92.91-3.82 1.88-5.23l7.24-5.07z" fill="#9f5" transform="matrix(.14918 0 0 .16178 -19.779 -.718)"/><g><path d="M289.84 458.46c-4.85-.16-12.16-3.99 3.76 2.68-2.6-1.16-4.4-2.96-6.33-4.64-1.48-1.32-2.73-2.77-4.06-4.17-1.2-1.2-1.91-2.57-2.71-3.92-.86-1.61-1.25-3.32-1.73-5-.31-1.28-.33-2.57-.4-3.86-.01-1.15 0-2.29 0-3.43-.02-.52.02-1.04.03-1.56l-10.21-3.84c.01.52.04 1.05.02 1.57 0 1.15-.01 2.3 0 3.45.06 1.34.07 2.68.38 4 .45 1.73.92 3.47 1.62 5.16.75 1.4 1.46 2.8 2.58 4.08 1.39 1.43 2.74 2.89 4.16 4.31 1.95 1.67 3.7 3.52 6.13 4.84 6.27 2.67 9.56 5.13 16.05 5.31l-9.29-4.98zM303.76 469.37c-1.49.04-2.98.02-4.47.02h-4.74c-1.59-.1-3.13.1-4.7.31-1.31.27-2.53.71-3.79 1.1-1.12.14-2.19.43-3.29.66l8.02 4.88c1.11-.23 2.23-.46 3.33-.73 1.2-.36 2.38-.82 3.66-.98 1.53-.15 3.04-.31 4.59-.22 1.58 0 3.17 0 4.75.01 1.52-.01 3.03-.02 4.54.02l-7.9-5.07zM313.17 472.33c-1.29-.7-1.91-1.79-2.65-2.88-.51-1.09-.45-2.27-.56-3.43-.06-1.12.03-2.24.06-3.36l-8.6-4c-.06 1.15-.19 2.32-.11 3.49.05 1.24.03 2.5.42 3.7.64 1.21 1.14 2.4 2.36 3.29l9.08 3.19zM326.47 425.49c4.98.19 12.49 4.59-3.86-3.07 2.67 1.32 4.52 3.39 6.5 5.33 1.52 1.51 2.8 3.18 4.17 4.78 1.23 1.38 1.96 2.96 2.78 4.5.88 1.85 1.28 3.81 1.78 5.75.32 1.46.34 2.95.4 4.43.02 1.32.01 2.63.01 3.94.01.6-.02 1.2-.03 1.8l10.48 4.41c-.01-.61-.04-1.21-.02-1.82 0-1.31.01-2.63 0-3.95-.06-1.54-.07-3.08-.4-4.6-.45-1.99-.94-3.98-1.65-5.92-.77-1.61-1.5-3.22-2.65-4.69-1.43-1.65-2.81-3.32-4.28-4.95-2-1.92-3.79-4.04-6.29-5.56-6.44-3.07-9.82-5.89-16.48-6.1l9.54 5.72zM312.18 412.96c1.53-.04 3.06-.02 4.58-.02 1.63 0 3.25-.01 4.88-.01 1.63.13 3.21-.1 4.82-.35 1.34-.31 2.6-.82 3.89-1.26 1.16-.16 2.25-.49 3.38-.76l-8.23-5.6c-1.15.26-2.29.52-3.42.84-1.24.41-2.45.94-3.76 1.12-1.57.18-3.13.36-4.71.25h-4.89c-1.55 0-3.11.01-4.66-.03l8.12 5.82zM302.52 409.56c1.31.8 1.95 2.06 2.71 3.3.53 1.26.47 2.62.58 3.94.06 1.29-.03 2.58-.06 3.87l8.83 4.6c.06-1.33.19-2.68.12-4.02-.06-1.42-.03-2.86-.44-4.25-.65-1.39-1.17-2.76-2.42-3.78l-9.32-3.66zM326.45 268.71c-3.93.09-9.85 2.22 3.05-1.49-2.11.64-3.57 1.65-5.13 2.58-1.2.73-2.21 1.54-3.29 2.32-.97.66-1.55 1.43-2.2 2.17-.69.9-1 1.85-1.39 2.78-.26.71-.27 1.43-.32 2.15-.02.63-.01 1.27-.01 1.9-.01.29.02.58.02.87l-8.26 2.13c0-.29.03-.58.01-.87 0-.64-.01-1.28 0-1.92.05-.74.06-1.49.32-2.22.36-.96.74-1.93 1.3-2.86.61-.78 1.19-1.56 2.09-2.27 1.13-.8 2.22-1.61 3.37-2.4 1.58-.93 3-1.95 4.96-2.69 5.08-1.48 7.75-2.85 13-2.95l-7.52 2.77zM337.72 262.65c-1.2-.02-2.41-.01-3.62-.01h-3.84c-1.29.06-2.53-.06-3.8-.18-1.06-.14-2.05-.39-3.07-.6-.91-.08-1.77-.24-2.66-.37l6.49-2.71c.9.13 1.8.25 2.69.4.98.21 1.93.46 2.97.55 1.24.08 2.46.17 3.71.12h3.86c1.22 0 2.45 0 3.67-.02l-6.4 2.82zM345.34 261c-1.04.39-1.54 1-2.14 1.6-.42.61-.37 1.27-.45 1.91-.05.62.02 1.25.04 1.87l-6.96 2.22c-.05-.64-.16-1.29-.09-1.94.04-.69.02-1.39.34-2.06.51-.67.92-1.33 1.91-1.82l7.35-1.78zM356.11 287.03c4.04-.11 10.11-2.55-3.13 1.71 2.17-.74 3.66-1.89 5.27-2.97 1.23-.84 2.27-1.76 3.38-2.66.99-.76 1.59-1.64 2.25-2.49.71-1.03 1.04-2.12 1.44-3.2.26-.81.27-1.64.33-2.46.01-.73 0-1.46 0-2.19.01-.33-.01-.66-.02-1l8.48-2.45c0 .34-.03.68-.01 1.01 0 .73.01 1.47 0 2.2-.05.85-.06 1.71-.32 2.55-.37 1.11-.77 2.22-1.34 3.29-.63.9-1.22 1.79-2.15 2.61-1.16.91-2.28 1.84-3.46 2.75-1.62 1.06-3.07 2.24-5.09 3.09-5.22 1.7-7.96 3.27-13.35 3.39l7.72-3.18zM344.54 293.99c1.24.02 2.48.01 3.71.01h3.95c1.32-.07 2.6.06 3.9.2 1.09.17 2.11.45 3.16.7.93.09 1.82.27 2.73.42l-6.67 3.11c-.92-.14-1.85-.29-2.76-.46-1.01-.23-1.99-.52-3.05-.63-1.27-.09-2.53-.19-3.81-.14-1.32.01-2.64.01-3.96.01-1.26 0-2.52-.01-3.77.01l6.57-3.23zM336.72 295.88c1.06-.45 1.58-1.15 2.19-1.84.44-.7.38-1.45.47-2.19.05-.71-.02-1.43-.05-2.14l7.15-2.56c.05.74.16 1.49.1 2.23-.04.79-.03 1.59-.36 2.36-.52.78-.94 1.54-1.95 2.1l-7.55 2.04zM524.64 200.71c6.3.11 15.78 2.78-4.89-1.86 3.38.8 5.72 2.06 8.22 3.23 1.92.91 3.55 1.92 5.28 2.9 1.55.83 2.48 1.78 3.52 2.72 1.11 1.12 1.61 2.3 2.24 3.48.4.88.43 1.78.51 2.68.02.79.01 1.59.01 2.38.02.36-.03.73-.04 1.09l13.25 2.67c-.01-.37-.05-.73-.02-1.1 0-.8.02-1.59 0-2.39-.08-.93-.09-1.87-.5-2.79-.58-1.2-1.2-2.41-2.1-3.58-.97-.98-1.89-1.95-3.35-2.84-1.81-.99-3.55-2.01-5.4-2.99-2.54-1.17-4.8-2.45-7.95-3.37-8.15-1.86-12.42-3.57-20.84-3.69l12.06 3.46zM506.57 193.13c1.93-.03 3.86-.02 5.8-.02h6.16c2.06.08 4.06-.06 6.09-.21 1.7-.19 3.29-.5 4.93-.77 1.45-.09 2.84-.29 4.26-.45l-10.41-3.39c-1.44.15-2.89.31-4.31.5-1.57.25-3.1.57-4.76.68-1.98.11-3.95.22-5.96.15h-6.17c-1.97 0-3.93.01-5.9-.02l10.27 3.53zM494.35 191.07c1.67.49 2.47 1.25 3.43 2 .68.76.6 1.58.73 2.38.08.78-.03 1.56-.07 2.34l11.16 2.79c.08-.81.25-1.62.15-2.43-.06-.87-.04-1.74-.55-2.58-.82-.84-1.48-1.67-3.06-2.28l-11.79-2.22zM507.27 266.31c-6.47-.12-16.21-3.18 5.01 2.14-3.46-.92-5.86-2.36-8.43-3.7-1.98-1.06-3.65-2.21-5.42-3.33-1.6-.95-2.55-2.05-3.62-3.13-1.14-1.28-1.66-2.65-2.3-3.99-.41-1.02-.44-2.05-.52-3.09-.03-.91-.01-1.82-.01-2.73-.02-.42.02-.83.03-1.25l-13.6-3.07c.01.42.05.84.03 1.26-.01.92-.02 1.84-.01 2.75.08 1.07.1 2.14.52 3.2.59 1.39 1.22 2.77 2.15 4.12 1 1.12 1.95 2.24 3.44 3.25 1.86 1.15 3.65 2.31 5.55 3.45 2.6 1.33 4.92 2.81 8.16 3.86 8.37 2.14 12.75 4.1 21.4 4.24l-12.38-3.98zM525.82 275.02c-1.98.03-3.97.02-5.95.02-2.11 0-4.22.01-6.33.01-2.12-.09-4.17.07-6.26.24-1.74.22-3.37.57-5.05.88-1.5.11-2.92.34-4.38.52l10.68 3.9c1.49-.18 2.97-.37 4.44-.58 1.61-.29 3.18-.66 4.88-.79 2.04-.12 4.06-.24 6.12-.17h6.34c2.02 0 4.03-.01 6.05.02l-10.54-4.05zM538.36 277.39c-1.71-.56-2.53-1.43-3.52-2.3-.69-.87-.61-1.81-.75-2.73-.08-.9.04-1.8.08-2.69l-11.47-3.2c-.07.93-.25 1.86-.15 2.79.07.99.04 2 .57 2.96.84.96 1.51 1.92 3.14 2.63l12.1 2.54zM507.01 533.8c6.9-.1 17.27-2.69-5.34 1.82 3.7-.78 6.25-2 8.99-3.14 2.1-.89 3.88-1.87 5.77-2.82 1.7-.81 2.71-1.73 3.85-2.64 1.22-1.09 1.77-2.25 2.45-3.38.45-.86.48-1.74.57-2.61.02-.77.01-1.55 0-2.32.02-.35-.02-.7-.03-1.05l14.48-2.6c0 .36-.05.71-.02 1.07.01.77.02 1.55 0 2.32-.08.91-.1 1.82-.55 2.71-.63 1.17-1.3 2.34-2.29 3.48-1.06.95-2.07 1.9-3.66 2.76-1.98.97-3.89 1.95-5.92 2.91-2.77 1.13-5.24 2.38-8.69 3.27-8.91 1.81-13.58 3.47-22.8 3.59l13.19-3.37zM487.25 541.17c2.12.03 4.23.02 6.34.02h6.74c2.26-.07 4.45.07 6.67.21 1.85.18 3.6.48 5.39.74 1.59.1 3.1.29 4.66.45l-11.38 3.29c-1.58-.15-3.17-.31-4.73-.49-1.71-.24-3.38-.55-5.2-.66-2.17-.1-4.32-.21-6.51-.15-2.25 0-4.5.01-6.76.01-2.15-.01-4.3-.01-6.44.01l11.22-3.43zM473.89 543.18c1.82-.48 2.71-1.21 3.75-1.95.74-.74.65-1.53.8-2.31.09-.76-.03-1.52-.08-2.28l12.21-2.7c.08.78.27 1.57.16 2.36-.07.84-.04 1.69-.6 2.5-.9.82-1.61 1.62-3.34 2.22l-12.9 2.16zM503.6 467.59c-8.31.15-20.83 3.74 6.45-2.51-4.46 1.08-7.54 2.77-10.84 4.35-2.54 1.23-4.68 2.59-6.97 3.91-2.05 1.12-3.27 2.4-4.64 3.67-1.47 1.5-2.13 3.11-2.96 4.69-.53 1.19-.57 2.41-.67 3.62-.04 1.07-.02 2.14-.01 3.21-.03.49.03.98.04 1.46l-17.47 3.6c.01-.49.06-.98.02-1.47 0-1.08-.02-2.16 0-3.23.1-1.26.12-2.52.66-3.76.77-1.62 1.58-3.25 2.77-4.83 1.28-1.31 2.5-2.63 4.42-3.82 2.38-1.35 4.69-2.72 7.13-4.04 3.34-1.57 6.33-3.31 10.49-4.55 10.75-2.5 16.38-4.8 27.5-4.97l-15.92 4.67zM521.44 461.17c-2.55-.04-5.1-.02-7.65-.02-2.71 0-5.42-.01-8.12-.01-2.73.11-5.37-.08-8.05-.29-2.24-.25-4.34-.66-6.5-1.02-1.92-.13-3.74-.4-5.62-.62l13.73-4.57c1.9.21 3.81.42 5.7.68 2.07.34 4.08.77 6.27.92 2.62.14 5.21.29 7.86.2h8.15c2.59 0 5.18.01 7.77-.03l-13.54 4.76z" fill="#9f5" transform="matrix(.14918 0 0 .16178 -19.779 -.718)"/><path d="M537.56 458.39c-2.2.66-3.26 1.68-4.53 2.7-.89 1.03-.78 2.13-.96 3.21-.1 1.05.04 2.11.1 3.16l-14.73 3.75c-.1-1.08-.33-2.18-.2-3.27.09-1.17.05-2.35.73-3.48 1.09-1.13 1.95-2.25 4.03-3.08l15.56-2.99z" fill="#9f5" transform="matrix(.14918 0 0 .16178 -19.779 -.718)"/><path d="M236.75 100.81c6.74-.846 5.88-8.351 9.33-15.301 3.1-6.269 8.16 2.516 8.16-9.416 0-3.497 13.07-4.025 15.15-8.238 1.04-2.105 14.88 1.107 15.16 1.177 4.71 1.189 17.48-1.177 24.48-1.177 3.2 0 6.22 1.569 9.33 2.353 7.53 1.903 12.64.445 13.98 5.885.25.976 4.41 8.896 5.83 11.769 3.23 6.512 2.34 3.609 2.34 10.593 0 4.855 1.34 9.785 3.49 14.125 2.32 4.68-2.48 10.17-3.49 15.3-.57 2.87-2.74 12.24-3.5 15.3-.67 2.68-7.89 7.69-9.33 10.59-3.17 6.4-5.11 3.76-11.66 7.06-7.55 3.82-8.17 5.3-13.99 8.24-7.04 3.56-6.19 2.79-9.32-3.53-2.44-4.91-11.05 1.33-16.32 0-7.68-1.94-16.04-.45-19.82-2.35-3.76-1.9-7-6.35-7-10.6 0-3.5-8.57-3.91 0-8.23 3.28-1.66-6.71-5.83-5.83-9.42.66-2.63-11.05.57-3.49-7.06 2.29-2.32-8.27-3.42-2.33-9.42 2.8-2.83-.56-8.19-2.34-11.77-.88-1.79.78-3.92 1.17-5.88z" fill-rule="evenodd" stroke="#000" stroke-width=".719" fill="#222b00" transform="matrix(.14918 0 0 .16178 -19.779 -.718)"/><path d="M306.81 59.996c6.74-.845 5.89-8.35 9.33-15.3 3.11-6.269 8.16 2.516 8.16-9.416 0-3.497 13.07-4.025 15.16-8.238 1.04-2.105 14.87 1.107 15.15 1.177 4.71 1.189 17.49-1.177 24.48-1.177 3.21 0 6.22 1.569 9.33 2.354 7.54 1.902 12.64.444 13.99 5.884.24.976 4.41 8.896 5.83 11.77 3.22 6.511 2.33 3.608 2.33 10.592 0 4.853 1.35 9.783 3.5 14.123 2.32 4.682-2.48 10.168-3.5 15.3-.57 2.869-2.74 12.239-3.5 15.305-.66 2.67-7.89 7.69-9.32 10.59-3.18 6.4-5.12 3.76-11.66 7.06-7.56 3.81-8.17 5.3-13.99 8.24-7.04 3.55-6.2 2.78-9.33-3.53-2.43-4.92-11.04 1.33-16.32 0-7.68-1.94-16.04-.45-19.82-2.36-3.76-1.89-6.99-6.35-6.99-10.59 0-3.5-8.57-3.91 0-8.24 3.28-1.65-6.72-5.822-5.83-9.413.65-2.633-11.06.571-3.5-7.062 2.29-2.314-8.27-3.42-2.33-9.415 2.8-2.829-.56-8.191-2.33-11.769-.89-1.79.78-3.923 1.16-5.885z" fill-rule="evenodd" stroke="#000" stroke-width=".719" fill="#ff8080" transform="matrix(.14918 0 0 .16178 -19.779 -.718)"/><path d="M176.47 144.78c6.73-.85 5.88-8.35 9.32-15.3 3.11-6.27 8.16 2.52 8.16-9.42 0-3.49 13.07-4.02 15.16-8.24 1.04-2.1 14.88 1.11 15.15 1.18 4.71 1.19 17.49-1.18 24.48-1.18 3.21 0 6.22 1.57 9.33 2.36 7.54 1.9 12.64.44 13.99 5.88.24.98 4.41 8.9 5.83 11.77 3.22 6.51 2.33 3.61 2.33 10.6 0 4.85 1.35 9.78 3.5 14.12 2.32 4.68-2.48 10.17-3.5 15.3-.57 2.87-2.74 12.24-3.5 15.3-.66 2.68-7.89 7.69-9.32 10.59-3.17 6.4-5.11 3.76-11.66 7.06-7.56 3.82-8.17 5.3-13.99 8.24-7.04 3.56-6.2 2.79-9.33-3.53-2.43-4.91-11.04 1.33-16.32 0-7.68-1.94-16.04-.45-19.82-2.35-3.76-1.9-6.99-6.35-6.99-10.6 0-3.5-8.57-3.91 0-8.23 3.28-1.66-6.72-5.83-5.83-9.42.65-2.63-11.06.57-3.5-7.06 2.3-2.32-8.27-3.42-2.33-9.42 2.8-2.83-.56-8.19-2.33-11.77-.89-1.79.78-3.92 1.17-5.88z" fill-rule="evenodd" stroke="#000" stroke-width=".719" fill="maroon" transform="matrix(.14918 0 0 .16178 -19.779 -.718)"/><path d="M278.5 629.27c0 31.932-28.803 57.818-64.333 57.818s-64.333-25.886-64.333-57.818 28.803-57.818 64.333-57.818S278.5 597.338 278.5 629.27z" transform="matrix(.10825 0 0 .12847 .448 -62.742)" fill="#4a0"/><path d="M278.5 629.27c0 31.932-28.803 57.818-64.333 57.818s-64.333-25.886-64.333-57.818 28.803-57.818 64.333-57.818S278.5 597.338 278.5 629.27z" transform="matrix(.10825 0 0 .12847 10.896 -69.257)" fill="#f60"/><path d="M278.5 629.27c0 31.932-28.803 57.818-64.333 57.818s-64.333-25.886-64.333-57.818 28.803-57.818 64.333-57.818S278.5 597.338 278.5 629.27z" transform="matrix(.10825 0 0 .12847 -8.602 -55.454)" fill="#ffb380"/><path d="M379.53 49.975c6.74-.844 5.88-8.349 9.33-15.3 3.1-6.269 8.16 2.517 8.16-9.415 0-3.498 13.07-4.025 15.15-8.239 1.04-2.104 14.88 1.107 15.16 1.177 4.71 1.189 17.48-1.177 24.48-1.177 3.2 0 6.22 1.57 9.33 2.354 7.53 1.902 12.64.444 13.99 5.885.24.976 4.4 8.896 5.82 11.769 3.23 6.511 2.34 3.609 2.34 10.593 0 4.852 1.34 9.782 3.49 14.123 2.32 4.681-2.48 10.167-3.49 15.3-.57 2.868-2.74 12.239-3.5 15.3-.66 2.679-7.89 7.695-9.33 10.595-3.17 6.4-5.11 3.75-11.66 7.06-7.55 3.81-8.17 5.3-13.99 8.24-7.04 3.55-6.19 2.78-9.32-3.53-2.43-4.92-11.04 1.33-16.32 0-7.68-1.94-16.04-.45-19.82-2.36-3.76-1.89-7-6.35-7-10.59 0-3.499-8.57-3.912 0-8.238 3.28-1.655-6.71-5.825-5.82-9.416.65-2.633-11.06.571-3.5-7.061 2.29-2.315-8.27-3.42-2.33-9.416 2.8-2.829-.56-8.19-2.34-11.769-.88-1.789.78-3.923 1.17-5.885z" fill-rule="evenodd" stroke="#000" stroke-width=".719" fill="#c83771" transform="matrix(.14918 0 0 .16178 -19.779 -.718)"/><path d="M448.93 52.276c6.74-.845 5.89-8.35 9.33-15.3 3.1-6.269 8.16 2.516 8.16-9.416 0-3.497 13.07-4.025 15.16-8.238 1.04-2.105 14.87 1.107 15.15 1.177 4.71 1.189 17.49-1.177 24.48-1.177 3.21 0 6.22 1.569 9.33 2.354 7.54 1.902 12.64.444 13.99 5.884.24.976 4.4 8.896 5.83 11.77 3.22 6.511 2.33 3.608 2.33 10.592 0 4.853 1.35 9.783 3.5 14.123 2.32 4.682-2.48 10.168-3.5 15.3-.57 2.868-2.74 12.239-3.5 15.3-.66 2.68-7.89 7.695-9.32 10.595-3.18 6.4-5.12 3.76-11.66 7.06-7.56 3.81-8.17 5.3-13.99 8.24-7.04 3.55-6.2 2.78-9.33-3.53-2.43-4.92-11.04 1.33-16.32 0-7.68-1.94-16.04-.45-19.82-2.36-3.76-1.89-6.99-6.35-6.99-10.59 0-3.5-8.57-3.91 0-8.238 3.28-1.655-6.72-5.825-5.83-9.415.65-2.633-11.06.571-3.5-7.062 2.29-2.315-8.27-3.42-2.33-9.415 2.8-2.829-.56-8.191-2.33-11.77-.89-1.789.78-3.923 1.16-5.884z" fill-rule="evenodd" stroke="#000" stroke-width=".719" fill="#2a2aff" transform="matrix(.14918 0 0 .16178 -19.779 -.718)"/><path d="M278.5 629.27c0 31.932-28.803 57.818-64.333 57.818s-64.333-25.886-64.333-57.818 28.803-57.818 64.333-57.818S278.5 597.338 278.5 629.27z" transform="matrix(.10825 0 0 .12847 21.744 -71.156)" fill="#ff2ad4"/><path d="M278.5 629.27c0 31.932-28.803 57.818-64.333 57.818s-64.333-25.886-64.333-57.818 28.803-57.818 64.333-57.818S278.5 597.338 278.5 629.27z" transform="matrix(.10825 0 0 .12847 32.097 -70.491)" fill="#008066"/></g></pattern><pattern id="b" patternTransform="matrix(1.08022 -.4202 1.0365 2.66453 233.688 717.814)" xlink:href="#a"/></defs><path class="shirtOverlay" fill="none" d="M202.715 584.431h86.593V700.24h-86.593z"/><path class="shirtOverlay" stroke-width="0" d="M271.101 687.404l3.96 1.405 1.402 63.243h-.715l-1.073-54.547z"/><path class="shirtOverlay" stroke-width="0" fill="url(#b)" d="M238.386 653.06l-34.366 17.182-2.062 31.616h9.623l.687-13.746-3.436 104.471 70.105 1.374 1.375-28.179v-68.044l8.934 1.375 2.062-22.681-2.749-.687-29.554-21.307z"/></svg>