<?xml version="1.0" encoding="utf-8"?>
<svg width="86" height="380" viewBox="202.715 584.407 86.5933 380.048" preserveAspectRatio="xMidYMid meet" xmlns="http://www.w3.org/2000/svg">
  <defs id="svgEditorDefs">
    <path id="svgEditorClosePathDefs" fill="moccasin" style="stroke-width: 0px; stroke: none; fill-opacity: 1;" class="shirt"/>
    <linearGradient id="linearGradient3924" y2="411.16" gradientUnits="userSpaceOnUse" x2="600.22" y1="803.81" x1="601.54">
      <stop id="stop3904" style="stop-color:#00ff00" offset="0"/>
      <stop id="stop3910" style="stop-color:#f7ff00" offset="0.6195"/>
      <stop id="stop3906" style="stop-color:#ff0000" offset="1"/>
    </linearGradient>
    <radialGradient id="radialGradient3926" gradientUnits="userSpaceOnUse" cy="790.63" cx="581.71" gradientTransform="matrix(.52070 -.29138 .30720 .53690 35.938 535.6)" r="39.374">
      <stop id="stop3914" style="stop-color:#ffffff" offset="0"/>
      <stop id="stop3916" style="stop-color:#ffffff;stop-opacity:0" offset="1"/>
    </radialGradient>
  </defs>
  <rect id="svgEditorBackground" x="202.71499633789062" y="584.4310302734375" width="86.59329986572266" height="115.80899810791016" style="fill: none; stroke: none;" class="shirt"/>
  <g transform="matrix(0.13448584309878467, 0, 0, 0.13448584309878467, 230.3173828125, 678.9103143076679)">
    <g id="layer1" transform="translate(-259.65 -264.84)">
      <g id="g3920" transform="translate(-232.16 4.7662)">
        <path id="path3893" style="fill:url(#linearGradient3924)" d="m541.25 347.62v365.47c0 1.5319 0.10158 3.0304 0.21875 4.5312-22.689 17.218-37.344 44.477-37.344 75.156 0 52.073 42.209 94.281 94.281 94.281 52.073 0 94.281-42.209 94.281-94.281 0-30.676-14.659-57.938-37.344-75.156 0.11717-1.5008 0.1875-2.9993 0.1875-4.5312v-365.41h-111.88c-0.81045 0-1.6042-0.0294-2.4062-0.0625z"/>
        <path id="path3895" style="fill:url(#radialGradient3926)" d="m616.08 788.61a34.374 33.713 0 1 1 -68.747 0 34.374 33.713 0 1 1 68.747 0z" transform="matrix(2.0769 0 0 2.1373 -644.96 -906.11)"/>
      </g>
      <path id="path3069" style="stroke-linejoin:bevel;stroke:#000000;stroke-width:10;fill:none" d="m365.72 269.83c-31.657 0-57.156 25.468-57.156 57.125v391.44c0 1.5319 0.10158 3.0304 0.21875 4.5312-22.689 17.218-37.344 44.477-37.344 75.156 0 52.073 42.209 94.281 94.281 94.281 52.073 0 94.281-42.209 94.281-94.281 0-30.676-14.659-57.938-37.344-75.156 0.11717-1.5008 0.1875-2.9993 0.1875-4.5312v-391.44c0-31.657-25.468-57.125-57.125-57.125z"/>
      <path id="path3869" style="stroke:#000000;stroke-width:10;fill:none" d="m321.9 712.36h87.642"/>
      <path id="path3873" style="stroke:#000000;stroke-width:10;fill:none" d="m321.9 618.17h87.642"/>
      <path id="path3877" style="stroke:#000000;stroke-width:10;fill:none" d="m321.9 523.97h87.642"/>
      <path id="path3881" style="stroke:#000000;stroke-width:10;fill:none" d="m321.9 429.77h87.642"/>
      <path id="path3889" style="stroke:#000000;stroke-width:10;fill:none" d="m321.9 335.57h87.642"/>
    </g>
  </g>
</svg>