<?xml version="1.0" encoding="utf-8"?>
<svg width="86" height="380" viewBox="202.715 584.407 86.5933 380.048" preserveAspectRatio="xMidYMid meet" xmlns="http://www.w3.org/2000/svg">
  <defs id="svgEditorDefs">
    <path id="svgEditorClosePathDefs" fill="moccasin" style="stroke-width: 0px; stroke: none; fill-opacity: 1;" class="shirt"/>
  </defs>
  <rect id="svgEditorBackground" x="202.71499633789062" y="584.4310302734375" width="86.59329986572266" height="115.80899810791016" style="fill: none; stroke: none;" class="shirt"/>
  <g transform="matrix(0.21472, 0.263968, -0.263968, 0.21472, 243.259735, 657.504211)">
    <g id="layer1" transform="matrix(.23553 0 0 .23553 45.318 -36.695)">
      <path id="35611352" d="m868.34 491.46c1.9521-8.3286-0.57834-14.808-3.6222-19.444-5.023-7.6818-13.575-10.254-22.596-9.9692-9.9371 0.22582-19.867 0.73551-29.586 2.2312-11.864 1.8526-23.276 5.2264-34.955 7.7806-1.6239 0.49665-3.2962 1.0968-4.8331 1.6167-10.732 0.75823-21.34 1.4539-32.072 2.2121 2.4108 0.73916 4.6416 1.7976 7.0525 2.5368 0.95003 0.62727 1.8744 2.094 1.1199 2.8236-1.1318 1.0944-3.0998 0.0791-4.688-0.25321-5.674-1.4272-11.017-3.4139-16.807-4.4064-4.9848-0.86978-10.043-0.82237-15.099-0.0342-4.2677 0.62683-8.2042 2.0994-11.992 4.066-4.7568 2.4524-8.8316 6.1798-13.311 8.9862-2.5818 1.6376-5.6278 2.6215-8.4874 3.9051-1.846 2.0211-3.5761 3.9671-5.4221 5.9882 0.7795-2.2137 1.6234-4.3247 2.4898-6.5151 1.4051-1.7665 2.8945-3.5195 4.3866-5.2628-12.565 2.0373-25.096 4.0114-37.638 5.9617-27.714 1.8916-53.802 2.8147-82.962 2.4552-2.4466 0.0898-5.553 0.29014-8.0866 0.35669-9.2587 0.12807-18.604 0.50205-27.909 0.80399-12.513 1.4924-24.378 2.696-36.743 1.8986-3.7506-0.25957-4.3982-4.0682-5.4721-7.7103-3.4594-11.083-2.3321-22.235-6.5103-33.417-7.6472-19.1-23.108-37.887-43.237-46.914-7.4746-3.4004-16.094-3.6474-21.535 3.0944-3.6113 4.4365-2.5961 10.384-1.8545 15.615 1.1729 8.141 1.5286 16.265 2.4408 24.336 0.55692 4.5285 2.6902 9.003 2.0472 13.489-0.82947 5.1819-3.7676 9.888-6.2255 14.54-2.9516 5.4519-5.8958 10.243-9.0786 15.167-3.1829 4.924-11.338 12.736-10.163 14.262 1.0478 1.3057 8.5944-4.2323 13.958-5.1245 3.5892-0.52905 6.9037-2.5151 10.58-3.0209 1.7512-0.27617 3.439 1.0845 5.2771 0.83164 4.1341-0.47624 8.0731-2.6871 12.271-3.0531 2.5802-0.24038 4.9402 1.0455 7.4908 1.2631 3.3563 0.34029 6.8352 0.27598 10.348 0.37875-3.0801 1.4109-5.8451 3.3604-9.0696 4.2668-2.3023 0.5944-4.7774-0.26683-7.1201 0.13038-27.974 5.6422-55.747 11.989-83.617 17.938-22.167 3.0983-44.462 6.2568-66.629 9.3551-58.493 6.8753-116.42 2.9965-159.62-14.169-11.425-6.043-22.152-13.361-31.625-22.515-5.1532-10.326-11.897-20.63-18.673-31.856-4.5014-7.542-4.993-3.9299-5.4651-1.8202-0.62893 2.3472 0.84096 4.8595 0.38586 7.2533-0.40224 1.8489-2.5051 2.771-3.3187 4.4166-1.0403 2.1438-0.51741 5.6692-2.4845 7.0989-1.5028 1.0881-5.2522-0.85215-6.8278-1.9266-12.52-8.57-18.603-18.87-26.362-31.3-21.556-52.73-35.796-108.81-53.546-163.23-7.428-23.048-17.481-45.326-28.51-67.103-4.7947-9.5773-31.369-66.258-44.01-63.589-2.2557 0.42051-3.6869 3.3758-3.2373 10.391-1.0191 8.6718 0.57149 16.668 3.5997 24.841 1.3176 3.4278 1.1789 7.3984 0.74556 11.103-0.52672 4.0518-3.7362 7.6421-3.4342 11.73 0.12383 3.0148 3.8667 4.7721 4.669 7.6892 0.77924 3.0041-1.4684 6.5092-0.29507 9.4325 1.029 2.4188 4.843 2.7703 6.2664 5.1084 1.1688 1.8972 0.11207 4.5076 0.95029 6.5957 8.0398 20.417 8.8817 21.776 7.9935 42.129 7.0045 18.369 12.768 39.279 15.254 58.86 2.3514 6.8728 2.7867 13.236 1.0522 19.014-0.11925 31.741-10.285 59.947-28.31 85.492-5.2204 11.832-14.326 22.168-26.963 31.081-10.764 13.049-26.07 23.582-42.42 33.83-0.41276 1.1939-0.81297 2.2953-1.226 3.4891-9.1024 5.1082-16.618 9.1379-25.79 14.507-4.2352 2.5922 0.15124 7.8685 5.5022 7.7183 11.12-0.46783 22.106-2.5477 32.997-4.9406 15.953-3.5521 31.743-8.2658 47.518-12.891 13.008-3.689 25.632-8.4126 38.937-12.861 7.441-2.3854 14.429-3.3937 21.328-3.4086 1.7387 0.46589 3.0652 1.0788 4.0959 2.1004 18.909 30.969 41.767 60.105 64.702 84.047 0.72953 0.75454 1.2779 1.7607 1.8972 2.5789 1.4296 1.967-0.03562 2.3017-3.9664 2.3666-1.7682-0.008-5.039 0.71903-6.5294 1.0651-9.1626 2.2036-13.676 11.321-6.4935 16.507 15.64 11.179 32.997 13.513 45.753 11.807 1.3335-0.1086 1.8797-1.3547 2.0723-2.4212 3.7894 1.8539 16.648 13.283 17.339 12.443-1.9584 8.6996-3.9382 19.938-6.6789 28.428-1.059 3.2569-3.3749 5.9932-5.4073 8.7098-4.7323 6.186-2.782 10.706 3.1778 10.719 23.271 0.0858 46.495-4.8749 68.59-1.0975 8.7291 1.5004 15.841 7.5833 22.589 12.653-21.338 3.134-42.772 6.3459-64.198 9.4567-2.0352 0.29321-6.3691 1.5584-5.2639 3.3453 2.3206 3.5102 7.2496 4.5346 11.312 5.7163 4.1262 1.2919 8.652 1.1265 12.988 1.636 38.847-3.1015 82.54-0.35799 120.5-7.797 5.8166 3.3289 5.9572-1.0114 11.838 2.4278-43.031 6.546-86.407 8.5369-130.61 7.9681 7.2047 1.2782 14.471 2.5885 21.675 3.8667 4.7597-0.0291 9.5548-0.14702 14.315-0.17612 4.5966 0.57941 9.2326 1.0555 13.829 1.635 3.5364 0.0158 7.0842-0.0494 10.621-0.0336 33.503 0.49807 63.948-6.7216 96.857-13.744 17.267 2.6701 32.471 3.3055 48.689 0.84939 28.865-9.3167 56.472-18.125 80.442-31.083 4.3625-2.3717 7.137-6.8681 10.88-10.058 5.0721-4.3246 9.9691-8.9665 15.533-12.693 1.3693-0.93753 3.2891-0.79973 4.9533-1.0992 1.0091-0.28865 3.0735 0.64235 4.1462 0.46393 0.9858-0.20173 2.1044-0.54646 2.0129-1.5959-0.2666-4.9165-4.9482-9.3324-3.8642-14.073 0.89764-4.0455 3.2095-6.7764 4.9702-10.218 3.9811-8.2508 2.9955 14.287 4.0371 15.964 2.5069 2.8148 11.842 4.1152 12.488 2.0521-1.007-6.3262-3.5647-14.916-4.6058-21.81-0.40803-2.9978 3.7789-2.6278 4.5812 0.28932 1.7894 6.5359-0.55734 14.294 4.4923 19.095 0.99494 1.8506 11.029 2.2992 9.9942 0.25151-2.128-4.5767-7.2821-14.536-5.8828-21.149 0.85106-3.8717 3.2239-3.4158 4.9359-0.0686 2.1979 4.3159 1.5344 8.8926 3.4886 13.423 0.69379 1.5836 2.8901 3.8427 4.2919 4.8705 5.2422 3.734 10.754 2.3237 9.5309-2.849-0.57108-2.3892-2.3951-4.2704-3.7145-6.3011-1.7245-2.6051-2.995-6.8757-1.9252-9.4775 2.1334-4.8325 5.9525-5.9393 8.2419-0.5739 1.5552 3.5847-0.0802 8.3694 2.0495 11.549 2.1933 3.2898 5.1632 5.6514 9.2849 5.9172 2.1796 0.21132 7.6246 0.48363 6.9013-0.64194-3.4769-6.1494-5.3578-13.372-5.8586-21.24-0.15348-2.5568 1.5158-1.1946 2.8868-3.5293 2.2948-4.0439 0.80241-10.659 1.6427-15.186 0.47835-2.4807 3.0178-0.80643 3.2428 0.0924 1.091 3.9262-4.0726 10.751-0.73045 13.231 1.2279 0.98124 3.2628-1.0785 4.7236-0.96662 4.4291 0.16185 8.901-0.86056 13.504-0.65215 6.6552 0.19929 15.673 2.6129 23.371 3.0918 6.9564 0.46633 11.611-3.697 18.472-5.3063 7.8461-1.811 9.4711-2.5778 17.327-7.5542 3.133-1.9558 5.8652-4.5896 8.3788-7.3636 24.829-27.636 55.332-47.135 88.86-62.377 3.5909-1.9262 7.2037-3.9488 10.795-5.8751 4.9012-1.9479 9.793-3.8852 14.607-5.8564-8.653-2.1322-14.169-6.8778-13.766-13.944 0.4243-5.7563 3.0725-11.578 7.4492-16.089 4.667-4.899 12.013-7.579 17.444-5.9376 7.7542 2.3573 10.96 9.4642 8.6512 15.647-1.0761 2.9728-4.9551 8.1671-7.4562 10.199-4.271 3.4212-7.5986 2.9837-12.338 5.7202 5.5916 2.43 11.805 2.5239 18.574-0.13478 4.1296-1.5024 8.281-3.0817 12.243-5.0017 3.875-1.9433 7.4367-4.5334 11.288-6.3898 3.3239-1.6251 6.771-2.9376 10.199-4.2553 2.6159-1.0694 5.3335-1.8229 7.8222-3.1128 3.0398-1.608 5.4478-4.4129 8.7188-5.4931 1.7108-0.47333 4.3133-0.43988 5.2043 1.1033 1.2092 2.0943-2.8851 7.6282-0.45556 7.2543 17.923-2.5584 34.423-11.277 52.144-14.822 9.2666-1.8963 15.867 0.60347 20.628 4.3949 3.2086 2.6301 5.5408 7.4491 2.246 13.834-6.2061 12.034-17.873 21.566-21.906 34.183-2.0338 6.2834-4.639 11.666-7.1734 17.716-0.40258 0.66518-1.0275 1.6904-1.496 1.9609-0.63812 0.29493-1.0641-0.83899-1.6494-1.089-1.6689-0.72672-2.5105-1.4245-4.2027-2.0643-2.978 3.1157-7.8574-2.4004-12.007-3.6056-4.2368-1.2284-3.8394-2.6904-4.4651-3.1376-3.3827-2.6768-3.2943-2.9378-4.9524-3.0093-4.58-0.29536-7.7428-3.8461-14.597-7.8259-1.1473-0.58695-37.307-5.4413-29.832-2.0406 0.8461 0.3199 1.7961 0.6715 2.6018 0.79422 19.467 1.7685 35.526 9.5448 50.678 17.332 3.2912 1.6274 6.5776 3.3179 9.8456 5.0322 1.332 1.2887 2.5584 2.6654 3.8904 3.9541-1.0217 1.0308-2.0398 2.0635-3.0614 3.0943-4.426-2.9564-8.6341-6.4079-13.374-8.8893-16.143-8.6117-35.176-13.458-54.521-16.032-1.045 1.1177 0.18194 2.4791 1.7236 2.9853 19.762 2.4066 37.231 6.8051 52.15 15.462 4.5192 2.6086 8.4139 6.0849 12.643 9.0816-0.84778 1.0774-2.089 1.9572-2.6992 3.1914-0.58696 1.1473-0.40743 2.5009-0.64662 3.7414-0.83987-0.69094-1.5642-1.4453-2.3807-2.2232-18.239-15.044-39.515-23.553-64.683-23.867-0.99213 0.57281-1.968 1.0566-2.9368 1.5425 1.1643 0.87109 2.8805 2.4439 4.7886 1.9302 23.476-0.32555 44.415 6.4156 62.449 23.268 1.2047 1.0682 2.202 2.8274 2.1304 4.4855-0.0653 1.2871-1.3358 2.6094-2.6927 2.8049-0.89894 0.22504-0.99718-1.4798-1.6865-2.0372-16.097-12.606-34.541-19.582-54.947-21.323-1.1194 0.35234-2.1695 0.70754-3.202 1.0832 1.4547 0.48297 3.0426 2.3073 4.5842 2.8136 21.004 1.2485 38.702 6.8393 52.306 19.709 1.0308 1.0217 0.73109 3.101-0.13998 4.2654-1.5853 2.0911-3.9983 3.4954-6.3303 4.5478-0.74836 0.35858-1.4749-0.40683-2.1005-0.85401-2.3985-1.4813-4.503-3.4298-6.9715-4.6503-1.8831-0.97049-3.9016-1.7094-5.9944-1.8974-2.3769-0.17098-4.8216 0.27511-7.1008 0.7826-1.8212 0.53703-3.3128 1.8402-5.134 2.3772-1.4035 0.36939-2.9422 0.95478-4.3969 0.47182-1.02-0.36648-2.4909-1.8748-1.8869-2.7379 1.0512-1.4888 6.653-1.1976 5.0245-1.7272-6.5205-1.7472-13.065-5.0704-20.287-6.6329-3.0895-0.64145 5.8336 3.8975 8.0224 6.1613 0.55575 0.70803-1.236 1.8118-2.152 1.7528-2.9452-0.13686-5.8871-0.94975-8.5527-2.1299-1.6456-0.81367-3.4848-3.3329-4.0218-5.154-0.26539-1.0961 3.5554-1.1126 2.7622-1.9775-1.1581-1.2421-3.394-0.16531-5.0458-0.60793-2.7821-0.74545-5.1852-2.6033-8.0604-3.001-1.1768-0.12896 3.8794 2.252 2.7429 2.3202-2.7309 0.1069-5.6536 0.26062-8.2386-0.52518-5.0596-1.6352-9.7567-4.285-14.956-5.3986-3.785-0.82782-7.7746 0.14002-11.653-0.34005-3.223-0.49087-6.284-2.9844-9.5024-2.4491-7.7069 1.2895-15.048-0.4903-23.113 0.0508-7.6478 0.37351-14.898 3.7348-21.703 7.2228-7.0659 3.4181-12.887 8.8741-19.403 13.371-2.9531 1.6315-6.0162 3.2122-9.0562 4.8203-2.0416 0.66432-3.9736 1.3797-6.0152 2.044 0.9813-1.228 1.9747-2.574 2.8691-3.8253 5.4714-3.3794 10.869-6.7723 16.364-10.239 4.1952-2.7895 8.655-5.2316 12.746-8.3286 2.1007-1.5803 1.0594-2.8723 2.0578-3.8162 0.64436-0.66598-0.0646-2.1642 0.78772-2.2154 2.4934-0.26371 4.9751 0.118 7.2775-0.47642 4.2742-0.99791 14.283-1.1069 14.138-5.4322-0.0586-4.3021-9.979 2.4506-14.183 3.1877-1.9252 0.22962-3.8523 0.45851-5.7138 0.79835-1.3569 0.19551-2.7564 0.1983-4.073 0.59097-1.4268 0.45634-0.84452 2.8575-2.144 3.5343-1.416 1.1115-2.7731 2.3277-4.1891 3.4392-1.9035 1.54-3.7735 2.9849-5.6538 4.4379-4.5026 2.8936-9.1055 5.7541-13.608 8.6476-2.4019 1.3133-4.8296 2.7343-7.2315 4.0475 0.20799 0.61483 0.33832 1.21 0.56961 1.7379-0.29661 0.75918-0.58072 1.4283-0.85401 2.1005-0.77165 0.44552-1.5247 0.88031-2.2964 1.3258-1.6893 1.7837-3.3124 3.6015-4.9784 5.2983-2.1706 1.8411-4.3234 3.6657-6.581 5.4836 5.2959-2.0287 10.596-4.0335 15.892-6.0622 1.3927-1.0246 2.7015-2.1813 4.0942-3.2058 3.5384-1.3814 4.7302-0.95728 3.5796 1.2503 0.1722 1.4439 0.35406 2.8706 0.52627 4.3145 2.54-0.43758 4.9942-0.87591 7.5342-1.3135 1.1939 0.41309 2.3938 0.80708 3.5877 1.2201-1.4455 1.5695-3.0089 3.2221-4.4544 4.7916-1.4859 1.3723-0.0727 1.6473 1.7592 1.7655 2.9002-1.0865 5.316-0.34334 7.7674 0.59306-1.2995 0.67681-2.6035 1.347-3.7928 1.9601-0.93015 2.0803-1.4198 3.9069 1.1947 4.2348 1.7808-0.73419 3.6528-1.4333 5.4336-2.1675 0.60858 0.16308 1.2025 0.32222 1.8111 0.48529 0.42055 2.2559 0.84561 4.4892 1.2662 6.745 1.5138-0.43302 3.0574-0.93033 4.5711-1.3634 0.99334 3.248 1.6994 6.4998 1.2147 9.3518 2.7667-0.93594 5.4668-1.901 8.2103-2.75-0.0778 2.0292-0.16906 4.084-0.24687 6.1132 4.4202-1.8906 8.7758-3.891 13.196-5.7816 0.18592 4.5226-0.33097 8.8324-2.2316 12.796 1.0541 0.93473 2.1292 1.7947 3.1833 2.7294 6.1-0.5087 11.267-2.0173 15.479-4.5228-0.30786 5.3221-0.90331 10.659-1.9936 15.771 7.3699-0.72749 13.232-4.5602 19.221-8.8261-2.1523 5.946-4.3727 11.876-7.0978 16.83-0.00001 0.00001 0.0905 0.0243 0.0905 0.0243l-2.4286 2.4228c-1.5604 0.60691-3.1344 0.94727-4.6589 0.72513-4.4231-0.53288-6.6831-3.6581-10.803-5.3212 1.2625-3.6685 0.86957-7.0512 2.219-10.696 0.55285-1.7155 0.46618-1.353-1.0942-0.74612-5.1623 1.8781-10.22 2.2824-15.382 4.1606-2.5088-1.4177-2.895-2.7374-3.9474-5.0694 1.6398-4.0333 1.833-7.2368 3.4961-11.357-4.9993 1.2696-9.9046 0.13983-14.904 1.4094-6.9797-5.5975-13.175-9.5849-17.851-17.174-2.2246-1.4347-3.6561-0.31712-5.662-0.48185-2.9913-5.181-5.9801-10.358-8.9714-15.539-1.5695-1.4455-2.7058-1.3916-2.5632 0.51025 4.5603 11.845 12.099 25.794 22.922 36.521l3.9661 1.2568c6.0371 8.4199 13.654 14.454 23.439 20.71-17.166-6.1837-31.773-14.271-42.858-28.889-4.6119-7.479-8.3101-15.272-11.124-23.201l-0.90096 2.638c0.52152 19.615 10.906 37.573 39.056 55.273 12.294 7.6737 47.561 13.117 51.858 22.469 6.3415 25.367-137.11 25.524-173.89 41.761-8.387 2.7845-17.377 5.0361-26.222 7.7911-29.609 9.3049-64.838 10.28-104.27 6.516-14.626-1.4032-29.722-4.8663-45.359-4.5835-43.004 0.87037-80.094-7.7877-120.8-18.974-2.0774 1.4933-11.435 1.6192-13.449 3.2228 30.62 8.4841 63.58 18.339 96.579 20.378 36.379 2.2931 73.369 5.1206 110.73 8.6092 9.635 0.90439 19.421 0.16995 29.335 0.0311 13.014-2.6631 26.063-5.4082 39.1-8.1582 13.467-3.6597 26.939-7.3191 40.406-10.979 13.539-5.3178 25.684-7.5703 35.969-7.7029l6.6746 8.7766c-4.6494-5.2526-9.1575-7.4829-13.694-5.1576-6.3641 3.2334-13.288 5.094-19.837 7.6256-12.854 4.849-27.4 8.3214-43.503 10.343 2.5679 0.50166 5.1461 1.0153 7.714 1.517 2.119 2.5246 1.6269 4.617-1.5233 6.2888 24.472 10.564 40.028 16.591 61.872 32.787 26.819 11.193 42.011 31.661 56.486 52.405 4.966 7.2011 2.249 6.1986-2.6845 0.96302-7.4003-7.8534-16.478-17.84-23.908-25.235-15.892-14.415-33.124-27.957-50.041-38.546-15.467-11.133-33.083-11.754-46.989-23.494-5.8591-2.129-13.513-2.1234-19.372-4.2525-2.79 1.0229-3.3002 2.5501-1.459 4.7207 59.985 18.868 115.5 57.23 163.91 117.91 2.8441 2.253 5.4274 4.7183 7.2241 0.44747-1.8252-25.182-9.3564-50.96-25.075-74.368-9.4568-14.089-22.42-25.846-33.285-40.592-7.3628-10.08-13.693-21.561-20.852-32.052 22.961-6.0545 77.635-10.15 116.07-18.302 11.506-2.601 29.77-12.352 30.918-16.983 0.59777-0.49209 0.17742-1.7098-0.78349-2.9922-2.7151-3.4298-6.3463-5.8131-11.626-7.3211-1.7388-0.4659-3.4881-1.2775-5.1104-2.1781-2.4451-1.3074-4.0363-3.438-6.2206-4.6756-1.9468-1.0807-4.2811-1.6841-5.8165-2.5614-2.8969-1.708-4.8228-2.8892-4.7529-3.15 1.1598-0.15515 1.89-1.4349 11.132 3.371 1.4717 0.76709 3.0642 3.4197 4.8683 2.5986 2.6627-1.2433 9.057-4.563 9.2708 0.89883 0.12394 3.015 3.116 5.4859 7.3357 6.4302 5.5471 1.2068 4.6169 4.599 5.5483 6.3395 7.8005-6.8553 15.601-13.727 23.315-20.605 0.52956-1.6286 1.0686-3.249 1.5981-4.8776 0.9472-1.7962 1.6437-3.7536 2.6779-5.5265 2.0853-3.2617 4.8489-6.2398 6.6967-9.6584 1.104-2.0337 1.0541-4.6634 2.3087-6.5636 0.76082-1.1007 2.4998-0.89723 3.388-1.7774 9.1591-8.4481 18.224-15.174 26.417-20.712 0.88188-0.50915-3.5465-0.64964-2.2419-5.5183 0.83239-2.7588 2.6626-5.1654 3.037-7.9537 0.988-6.8171-3.47-10.607-9.4717-14.638-0.79952-0.49376 2.947-2.025 3.9033-1.7688 4.9323 1.4148 8.7951 7.5751 9.3999 15.751 0.15348 2.5571-2.4521 4.5632-3.1044 6.9975-0.34943 1.3041-1.1833 3.4112-0.0127 3.9112 1.1473 0.58696 2.1621-1.4769 2.8997-2.4906 1.3182-1.79 2.0824-3.8987 3.4007-5.6887 4.5758-5.9489 10.262-11.148 14.213-17.544 2.6257-4.2351 3.4284-9.3276 5.2546-14.056 1.2064-0.32903 2.864 0.0376 3.7755-0.92951 2.5837-3.035 4.9408-6.3123 6.9624-9.6842 0.32478-0.54167 1.9317-4.101 2.914-6.0456l0.0604 0.0162c3.9562-6.7667 5.131-11.557 9.1042-18.04 3.8397-6.332 11.081-12.122 15.182-18.385 6.226-9.3264 11.042-19.309 13.38-29.77zm-41.875 71.278c-1.2668 2.6416-2.6812 5.1417-4.9382 6.959-1.7695 1.389-1.8249 0.91734-2.6395-1.2572 1.6377-2.6354 2.9562-5.1729 5.4335-7.1175 1.3054-1.0476 2.7775 0.0949 2.1442 1.4157zm-39.406 43.47c-1.7542 3.0699-2.5246 6.3265-3.1256 9.6123-3.7936 2.3372-8.4438 4.3573-13.401 5.8236-2.7069 0.0199-3.3311-0.43343-1.9388-1.4577 4.7343-3.7619 8.6814-7.6459 12.252-12.279 0.24248-4.034-0.42142-2.636-3.785-1.2083-4.5309 3.3506-10.87 8.9223-17.042 8.6657 1.7854-4.9247 5.0302-8.7018 8.0494-13.016 0.67372-1.1237 1.2951-2.3605 1.9688-3.4842-0.97314-0.54023-2.0716-1.0158-3.0681-1.4691-1.0788 0.54936-2.1012 1.1907-3.1163 1.8502-3.564 4.2618-9.5184 11.535-15.846 10.118 1.8178-2.9597 3.338-6.1164 3.8986-9.5993 0.51693-0.8862 1.0353-1.7674 1.5289-2.5668-0.0744-0.76521-0.26712-1.4616-0.34156-2.2268-2.1837-1.2372-4.2736-2.4342-6.4573-3.6714-4.0793 3.7511-7.594 8.4634-13.05 9.7031 0.91452-3.7607 1.7929-7.4156 2.771-11.066-0.71238-0.47035-0.58268-2.3031-1.2951-2.7734-2.6121-1.7246-6.1981-2.2213-8.8102-3.946-3.8946 4.4527-6.1075 7.1085-11.391 9.7916-0.81802 0.61924-1.4352 0.45385-1.6602-0.44485 0.76398-3.8942 1.5285-7.7776 0.94217-11.847-2.7626-1.8581-5.6007-3.0018-8.5854-3.3357-4.2685 2.0236-7.7193 5.1276-11.027 8.4333-2.2104 1.6435-2.1418-0.0294-2.7656-1.8734 0.32148-2.2428 0.52493-4.4176 0.82313-6.5734 0.0528-0.54478 0.0105-1.0196 0.04-1.4775-2.3297-0.34476-4.78-0.65049-7.133-0.90835-0.87708 1.535-1.7554 3.0978-2.6325 4.6328-1.6423 1.6094-3.1972 3.3055-4.7525 4.9382-0.85211 0.0511-1.6049 0.063-2.4337 0.0273-0.36304-1.7741-0.6391-3.5414-1.0022-5.3155 0.042-1.1998 0.0137-2.5097 0.079-3.7964-0.98562 0.20167-1.8504 0.36095-2.8127 0.47572-1.8502 0.99475-3.8216 2.0472-5.7588 3.0186-1.0804 1.9463-1.8998 3.2934-3.4319 4.8392-1.6497-1.8394-2.4268-3.1586-3.5022-5.403-0.57266-0.99185-1.0846-1.8786-1.6573-2.8705-1.0276 1.4015-2.0236 2.727-3.1149 4.0182-0.51693 0.88621-1.0615 1.8653-1.6017 2.8384-1.3828-2.1405-2.7685-2.5306-4.1512-4.6711 2.2382-0.70448 4.4073-3.2089 6.6455-3.9134 4.4299-1.2351 8.9428-2.4286 13.373-3.6637 2.5734 0.13059 5.2114 0.2769 7.7615 0.49442 2.9614 0.42087 5.9304 0.92639 8.8918 1.3473 0.90949 0.43003 1.722 0.85742 2.6314 1.2874 0.89246 0.14597 1.8947 0.21262 2.8741 0.38188 2.3376-1.4231 3.1592-1.6797 6.0632-1.74 3.5124 0.10275 5.14 0.91999 8.2661-0.66446 1.7832 1.6889 1.3565 1.8443 1.6901 4.0763 1.9525 0.70948 3.7964 1.4858 5.6154 2.3458 0.65043-1.0368 1.4025-2.0366 2.0529-3.0734 0.69534 0.18632 1.5686 0.4203 2.2639 0.60661 2.4661 2.6171 5.2416 4.4004 8.341 5.6967 3.4239 1.4764 6.8421 2.9528 10.289 4.3423 4.3816 0.33565 8.0483 1.5758 11.129 3.985 0 0.00001 4.4237 2.3176 5.8143 2.6903 2.3468 0.62882 5.7662 0.0568 9.1559 0.96512 3.0188 0.90205 6.0311 3.1818 8.1467 3.2829 1.4838 0.025 4.2356-0.17202 6.6397 0.93795 3.3261 0.79807 5.4797 3.1538 7.2084 6.7844 0.66581 0.64419 1.0305 0.0804 1.0787-1.4903-3.1564-6.9941-7.3894-8.5872-14.791-8.428 0.5107-0.51527 0.88955-0.98208 1.29-1.4337 8.3769-1.0159 10.606 1.0879 15.138 6.7737 1.3362 2.3143 1.4865 4.58 0.77076 6.9035zm-44.031 57.954c0.6535 1.3865-11.746 14.564-13.069 15.327-0.85525-2.3723-3.2435-3.1895-7.0768-2.4462 0.20675-3.206 0.4112-6.3303 0.68161-9.426-3.515 1.2945-7.031 2.5805-10.482 3.9853-2.9077-2.3632-9.6229 0.0488-10.169-3.8248-0.0574-0.48129-0.19852-0.97842-0.25592-1.4597l1.189-4.4372 0.66164-2.8315c6.2368-3.4538 11.883-7.1578 17.026-11.744-0.76128 6.3188-2.9513 12.082-6.0538 17.401 4.8861-3.6294 9.5943-8.0416 14.024-13.098 0.69507 5.4044-0.97823 10.987-2.4566 15.809 4.2168-1.4792 8.2199-4.96 11.442-8.2899-0.0687 4.0816-0.46226 6.2945-3.0755 9.7875 3.0804-1.411 4.9459-3.1392 7.6148-4.7536zm17.108-75.682c-3.6476 1.4447-9.1995 1.3342-12.721-0.82042-3.1103-1.9513-4.7863-3.6805-8.6742-4.8154-3.9113-1.048-9.6457-1.5743-12.847-4.5748-3.2887-3.0238-10.024-4.353-9.4476-6.155 0.32605-1.2168 3.3687 1.7438 4.4986 2.0466 1.3907 0.37263 3.0456 0.81996 4.413 1.2795 1.9122 0.51236 2.8456 2.2429 4.7174 2.5581 1.3503 0.17551 2.7082-0.1233 3.9716 0.0289 1.3736 0.0886 2.8949 0.0394 4.1521 0.56257 1.4543 0.48283 2.6755 1.4766 3.973 2.1969 0.97313 0.54022 2.0443 1.0888 2.7737 1.8432 6.315 7.3747 15.916 5.5783 15.191 5.8498zm17.848-89.913c0.0544-0.98566-1.0632-1.5376-2.3383-0.69124-3.1565 2.0429-5.6398 4.7197-8.686 6.6989-2.582 1.6377-2.5928 4.0442-0.25162 5.0443 1.8428 0.77333 4.0036 1.0728 5.9163 1.5853 1.0666 0.19261 1.5118-0.0542 1.2232-1.0634-0.22505-0.89894-0.51581-1.528-0.76415-2.34-0.85357-3.7696 2.0086-5.4247 4.4122-8.1352 0.31209-0.38228 0.47031-0.76995 0.48846-1.0985zm-57.748 180.74c-4.0277-0.61344-4.9407-0.66441-7.2842-4.087 2.4012-1.3129 5.3531-2.271 7.7543-3.5839-0.7515 3.1523-0.6344 4.4596-0.47015 7.671zm11.454-62.186c-0.53139 2.0701-1.5227 3.9676-2.7296 4.995-1.8394 1.6498 0.27633-5.592-1.1172-8.3874-1.4106-3.0795-5.6812-5.8988-9.0369-6.239-4.3118-0.59639-12.307 4.9065-13.84 2.6325-0.93736-1.369 9.1133-6.4979 14.324-6.1265 5.0599 0.23791 10.506 2.4444 12.303 7.2112 0.68201 1.6267 0.62899 3.8442 0.0976 5.9143zm-10.47 11.59c-0.68621 1.8656-3.7272 2.8251-4.6816 1.172-0.89079-1.5429-1.7286-6.064-3.6174-6.6633-2.5842-0.7856-5.5034 0.78383-8.4602 1.3889-2.3655 0.48405-9.9289 1.2448-7.7481 0.0592 4.6054-2.5854 9.949-4.8704 14.641-7.4326 2.5984-1.3532 6.8448-0.77709 8.6621 1.4798 2.2054 2.5472 2.4133 6.8732 1.2039 9.9959zm-19.951 38.718c-0.008 1.7679-0.86383 3.599-2.8334 2.6054-2.8915-0.68163-5.4718-3.2416-8.3633-3.9233l-13.032-6.6625-14.607-6.3403c-5.2179-3.8202-10.325-7.698-13.536-12.75-6.3865-5.717-12.256-12.306-17.969-19.147-0.40338-1.9712 0.3536-2.4338 2.1897-1.2897 5.1044 6.6777 10.313 11.618 16.619 16.941 4.0697-0.58635 8.5568 0.055 12.54-0.55467-0.83218 2.758-1.5813 5.5245-2.4134 8.2826 1.0164 3.1602 3.151 5.7116 6.2613 7.6629 4.1691-1.305 8.27-2.7383 12.439-4.0433 2.2615-0.79139 1.8714-0.69124 1.3528 1.5919-0.67539 2.5206-1.994 4.3023-2.6693 6.8228 4.6469 1.4314 13.257 9.9753 16.552 7.4115 3.0284-2.2627 6.0588-4.6198 9.0003-6.9059-0.53734 3.396-0.9928 6.9026-1.5301 10.299zm-0.16257-8.8111c-0.087-0.0233-0.0906-0.0242-0.0906-0.0243l-0.47546 0.32553c0.19719-0.0403 0.3203-0.0798 0.51749-0.12016l0.0485-0.18111zm33.678-160.34c-0.88349 1.9063-1.5603 2.9543-3.6064 2.5924-0.71252-0.47044-0.9768-1.1987-0.87738-1.9174 2.3106-7.5803-0.68186-12.403-7.7838-17.194 1.4284-1.8535 3.9396-3.2227 6.9419-2.6046 6.6365 1.3124 8.3488 12.014 5.3256 19.124zm-41.006 117.42c-0.10564 1.0896-3.8827-0.0335-5.5574-0.38912-2.4337-0.6521-3.055-1.1717-5.5245-0.99499-3.9999 0.32559-15.001 8.086-12.418 5.0518 3.6277-4.1516 9.1102-6.5884 14.248-8.3791 0.52774-0.23122 9.3486 1.5699 9.2521 4.7114zm28.542-117.75c0.37977-0.92746 0.58483-1.8857 0.60127-2.8477 0.0219-1.2827-0.2996-2.5907-1.1025-3.8542-1.1689-1.8973-6.241-3.8013-10.969-1.8067 0.1614 0.78871-0.2618 1.6147-0.99309 2.2574-0.95178 0.76997-2.0983 0.91046-2.9615 0.30645-0.40059 0.45175-0.80481 0.90757-1.2054 1.3593-1.562 2.0042-3.1531 6.1456-2.9019 9.3811 0.13018 2.644 2.1684 4.4154 4.8698 4.7666 2.0928 0.18804 5.4649-0.86487 8.0469-2.5026 2.8786-1.7446 5.4758-4.2773 6.6151-7.0597zm-191.82 26.57c-0.27599 0.5084-0.71802 1.0279-0.98818 1.5146-3.4516 6.6224-7.4619 13.007-10.763 19.763-1.1971 2.3813-1.8039 4.9065-2.5896 7.4913-1.292 4.1262-3.2696 8.0777-3.7792 12.414-0.60275 4.6836 0.61912 9.4834 0.6715 14.156-0.0545 1.9421-0.26965 3.8268-0.49802 5.7223-0.25789 2.3534-0.50208 3.8733-2.1043 5.6802-0.53409 0.60228-1.8545 1.3718-2.5034 1.0116-0.82274-0.40681-1.6389-1.1858-1.777-2.0614-0.21877-1.2699 0.75915-2.4999 0.88811-3.6767 0.33403-2.9853 0.32924-6.0535 0.37917-9.0218 0.0175-4.9336-0.60232-9.8503-0.2138-14.778 0.24085-2.6375 1.2726-5.1744 2.2959-7.6023 1.3664-3.3609 3.3392-6.536 5.03-9.7167 1.5108-2.8563 3.3328-5.4545 4.7566-8.3341 1.2437-2.5552 1.8249-5.4872 3.2424-7.9958 1.371-2.3347 2.7916-4.8451 4.9155-6.5122 0.9284-0.68298 2.6518-0.4839 3.1377 0.48486 0.29804 0.45256 0.1756 0.95292-0.10038 1.4613zm-29.798 110.85c-0.21931 0.38382-0.56231 0.7125-0.94499 0.74972-1.4438 0.1722-3.02-0.53746-4.2076-1.3215-1.1642-0.87101-2.3864-1.9555-2.7558-3.359-0.90636-3.2244-0.35524-6.6045-0.75703-9.9733-0.13186-1.2466-0.92998-2.5035-0.9516-3.8138-0.0915-1.0494 0.72282-2.0166 0.71825-3.0428 0.0624-3.7103-0.68498-7.4602-0.42541-11.211 0.39934-4.2722 1.6166-8.5206 2.3001-12.81 0.46129-2.7648 1.1622-5.6608 1.1656-8.4552 0.0358-0.82901-1.0099-1.4663-1.0843-2.2317-0.17967-4.8933-0.11212-9.7189 0.45027-14.6 0.42722-3.333 1.3389-6.6436 2.4615-9.7903 2.2857-6.0962 5.0865-12.048 7.7836-17.941 1.267-2.6421 2.4619-5.3773 4.2908-7.6825 4.5056-5.6877 9.7815-10.826 14.849-16.177 0.6676-0.75287 1.3949-2.0281 2.3978-1.9457 1.287 0.0653 3.4844 1.2145 2.9844 2.3849-1.0233 2.4279-4.2914 3.1206-6.1778 4.9446-3.6858 3.6712-7.7202 7.2721-10.763 11.675-1.0511 1.4887-0.2612 3.8291-1.0112 5.5848-1.017 2.0569-3.0582 3.3864-3.9882 5.4665-2.2437 4.8962-4.4377 9.9789-5.4876 15.288-1.755 8.2882-1.6332 16.88-2.8666 25.308-0.99417 7.1876-3.006 14.29-3.8263 21.524-0.50332 3.9648-0.37991 8.0199-0.14118 11.997 0.0915 1.0495 0.90112 1.9302 1.2767 2.9626 1.7041 5.1154 3.728 10.037 4.9276 15.297 0.0924 0.35087 0.003 0.78749-0.21679 1.1713zm-18.107 5.2745c-0.29659 0.75911-1.768 0.0685-2.5038-0.31501-1.3847-0.74374-3.1407-1.4782-3.7708-2.9515-1.3706-2.883-1.0473-6.2529-1.9133-9.2802-0.90632-3.2245-2.8406-6.0656-3.5498-9.3304-0.39722-2.3426-0.032-4.7682 0.22593-7.1217 0.0591-0.91591 0.796-1.5363 0.91871-2.342 1.4151-10.15 2.7043-20.254 3.7484-30.41 0.28121-2.4404-0.13787-4.9623 0.23026-7.3794 1.126-5.941 2.8388-11.725 4.1154-17.532 2.1447-9.3951 7.6212-17.914 15.33-25.818 4.7307-4.7888 8.6118-10.252 13.834-14.443 0.95171-0.76993 4.4961-0.77913 3.8223 0.34477-5.976 8.7412-14.372 15.733-20.521 24.427-2.7062 3.8405-4.3991 8.4053-5.8712 12.856-2.2919 6.4672-5.3557 13.019-5.4044 19.807-0.10702 16.743-0.57195 32.721-3.7154 48.277-0.44882 2.0228-0.13355 4.28 0.35684 6.2749 0.85352 3.7694 2.5153 7.3812 3.7631 11.07 0.39264 1.3165 1.5154 2.6319 0.90524 3.866zm18.085-126.54c-16.874 12.902-30.953 27.106-34.427 48.071-0.0528 0.5449 1.4112 0.66414 1.3351 1.296-0.56406 6.278-1.8561 12.554-3.052 18.755-0.19259 1.0665-1.0931 1.9498-1.0886 2.9759-0.43099 11.345 0.46655 22.663-0.11502 33.874-0.0778 2.029-2.0265 3.6511-2.1043 5.6802-0.21298 3.5768 0.38461 7.2917 1.2211 10.777 0.58815 2.6733 3.2709 4.8752 2.9198 7.5764-0.15225 1.2636-2.8845 0.32837-3.7414-0.64662-1.4358-1.596-2.0111-3.9889-2.368-6.1344-0.66716-4.4648 0.11352-9.0735-0.75079-13.498-0.28242-1.3801-2.3756-1.9526-2.4841-3.2862-0.0853-1.4205 1.8625-2.4062 1.9511-3.7801 0.55706-14.945-0.36515-30.006-0.0689-45.021 0.0545-1.9421 0.95303-3.8418 1.2047-5.8242 3.0337-20.711 14.288-39.11 39.261-51.985 0.7716-0.44547 2.9922 0.69953 2.3075 1.1683zm-48.678 129.15c0.17845 1.0727-2.6154 0.69554-3.2347-0.12264-3.6757-4.7119-4.653-13.269-5.4845-20.946-0.53821-5.6416-0.21819-11.327 0.0726-16.933 0.4447-8.2666 1.5571-16.533 2.3728-24.793 2.654-27.987 9.3707-51.349 26.515-62.129 1.346-0.85059 4.5282 1.4773 2.8049 2.6927-15.83 11.785-22.465 34.144-25.238 60.142-0.36357 3.4432 0.36877 7.008 0.52681 10.591 0.24498 3.6063 0.84568 7.2082 0.52247 10.849-0.51124 5.7331-2.5703 11.336-3.0179 17.179-0.60607 7.478 2.6636 15.149 4.1609 23.47zm-26.429 3.3683c-0.45339 0.9966-2.6084 1.7223-3.0323 2.261-6.8919 8.6821-15.063 16.532-25.083 22.978-6.0688 3.8712-12.157 7.8264-18.481 11.257-5.8824 3.1758-13.188 4.3203-19.261 7.1653-4.0256 1.8098-6.9453 3.3516-11.115 4.6568-1.5136 0.43298-3.6324-0.71058-2.4648-2.6339 1.121-1.7495 2.9468-2.9322 4.6468-4.0607 6.9739-4.4673 17.684-4.1145 25.533-8.7199 2.5352-1.4637 1.4523-6.1253 3.6694-8.1402 3.8364-3.5376 8.4919-5.2886 8.4674-9.0222 0.0591-0.91592 1.039-1.0908 2.0776-1.8374 6.5222-4.8678 12.994-9.4954 19.111-14.938 2.304-1.9916 3.2449-3.7789 4.1533-7.1693 0.44258-1.6517 0.68743-1.4981-0.87738-1.9174-1.2171-0.32611-2.6559-0.24964-4.0809-1.1905-1.2512-0.89431-1.8936-3.6598-0.0492-4.2837 5.8807-1.7786 12.199-1.4054 18.265-2.4823 1.6875-0.3864 2.6002 0.42366 2.2104 1.5305-0.49999 1.1705-0.90092 2.2756-1.2503 3.5796-0.48918 1.8256-1.0581 3.6156-1.3734 5.4878-0.23919 1.2404-0.76737 2.5016-1.0935 3.7187-0.48294 1.4546 0.4811 2.7637 0.0277 3.7603zm30.695-209.7c-1.2416 2.2049-7.2564 1.0204-8.8817 0.30541-7.1735-3.1334-13.272-1.5996-19.224 1.837-0.79489 0.53241-1.5734 2.0902-2.4597 1.5732-3.2677-1.7142-5.8798-3.4506-9.4054-2.8113-0.48126 0.0574-1.0159 0.56508-1.5142 0.33838-0.62559-0.44715-0.56629-1.3397-0.86121-1.9778-1.9075-4.704-3.2307-9.826-2.0535-14.915 3.4446-15.29 34.505-3.5324 43.716 12.167 0.98215 1.6375 1.0981 2.7483 0.68427 3.4833zm-105.9 197.27c-1.7807 0.73414-3.418 1.9622-5.3431 2.1918-13.498 1.6941-27.021 2.0888-40.514 3.4118-1.8148 0.16595-4.8474-0.66737-5.5974 1.0884-1.4425 3.9927 2.4791 9.1535 0.30076 12.763-1.5744 2.7461-6.6006 0.27343-9.2058 1.9979-3.3131 2.2802-3.8029 7.6631-7.4109 9.3052-2.796 1.3938-6.1284-0.81777-9.2643-1.2853-3.5676 1.8393-7.1989 3.5541-10.83 5.2832-17.884 4.1528-35.832 8.2055-53.693 12.271-13.379 3.6828-26.755 7.3688-40.134 11.052-2.012 0.20631-5.4536 0.12656-7.4888 0.4198-5.6082-7.9318-9.2307-10.688-18.16-14.572-0.99661-0.45339-1.8774 1.7616-2.9206 1.4821-14.113-3.3156-27.979-6.4722-43.554-4.682-7.8973 0.95872-15.946 1.3824-23.859 0.65988-2.6375-0.24085-2.8994-2.3595-1.9181-3.5874 1.2716-1.616 3.0585-3.0834 3.571-4.996 2.2083-9.2848 3.147-19.752 4.6366-29.137 8.4866 5.5351 16.766 11.21 25.729 15.662 4.0268 2.0107 8.5044 3.0345 12.781 4.46-4.9644-3.38-9.9498-6.7632-14.914-10.143-10.38-7.1607-20.854-14.279-31.234-21.44-9.0827-6.4402-16.609-14.504-26.01-21.496-1.5523-1.1613-2.1006 2.609-1.2795 4.413 2.2848 4.3392 15.038 9.2575 10.34 10.794-11.501 3.627-24.64-0.57423-37.032-7.5286-9.7332-5.4033-0.41152-14.832 6.9654-12.11 5.5979 2.059 10.369 3.7205 13.475 4.646 4.1262 1.292 7.0243-1.1926 1.6565-6.5443-26.016-26.352-56.164-63.678-76.971-97.299-1.8052-2.9994-3.5872-6.0806-5.3055-9.0568-5.8765-11.451-11.912-22.68-14.755-35.368-2.4628-10.63-2.3416-21.852-2.0504-32.675 0.05907-0.91593 1.8856-2.1205 2.2441-1.3722 6.4351 14.582 11.102 29.803 19.593 41.582 11.993 16.444 27.77 31.026 45.957 45.216 9.9736 7.9834 20.053 15.911 30.05 23.807 12.794 10.323 25.215 20.997 38.323 30.845 13.171 9.9584 26.517 19.86 40.606 28.48 2.3347 1.371 5.4577 1.9347 8.0362 3.0915 13.929 6.4344 30.342 12.252 46.045 18.323 35.614 13.829 67.772 18.704 106.82 22.832 5.7098 0.59817 11.218-2.9638 16.923-3.3918 2.841-0.17053 5.5056 1.3795 8.2999 1.3828 6.5279-0.0212 13.002-1.1594 19.489-1.3777 4.4989-0.099 8.9885 0.82191 13.47 0.43885 2.0756-0.0961 3.854-1.87 5.9064-1.8791 2.7711 0.0903 5.5024 1.4058 8.2206 2.041zm-394.86-135.08c0.03374 0.49261-0.07431 0.91455-0.3618 1.2295-0.38331 0.41996-1.1057 0.64452-2.3217 0.57495-7.4235-2.5482-13.035-0.0441-22.488 2.5477-1.7108 0.47335-3.1362 1.5718-4.8299 2.3293-8.8864 3.9548-18.652 6.7435-27.927 10.408-28.462 11.288-71.418 16.099-67.495 12.585 3.9001-3.4274 25.833-6.3077 28.553-7.0696 14.034-3.6936 29.149-4.7655 42.137-11.162 6.758-3.3138 9.2247-3.8602 10.503-11.065 2.0424-11.1 1.793-11.922 14.103-18.221 5.1977-2.707 9.6139-7.3173 12.258-12.665 0.81361-1.6455 1.611-3.2979 2.4013-4.8565 4.2605 10.18 7.6344 20.505 13.409 30.251 0.68623 1.5466 1.958 3.6356 2.0592 5.1134zm-23.614-294.62c-0.95459-1.6534-1.7021-3.4182-2.7901-4.9211-1.0881-1.5028-2.693-2.4828-3.7174-3.8754-2.3268-3.1392-2.6352-7.8029-4.9388-11.029-2.749-3.9977-5.3323-8.3237-8.8995-11.702-1.2682-1.1784-3.0182-2.3073-5.083-1.5561-2.6563 0.87224-0.90108 13.481-0.01646 15.395 3.7299 7.9876 3.1341 13.316 0.26609 21.586-1.0994 3.0597 1.1598 5.4328 0.92957 8.7254 0 0 2.1422 5.2392 2.3437 6.225 1.153 5.4336-0.54589 5.5154 4.5222 9.2028 0.68942 0.55743 1.1322 1.6285 1.2935 2.4171 0.61152 2.5864 1.2171 4.871 1.237 7.5784-0.45796-0.0295-0.90917-0.0456-1.2802-0.0519-0.40513-0.57443-0.79148-1.2383-1.1733-1.8997-1.0228-2.7898-0.57162-5.1691-2.6967-7.3225-4.1229-4.0863-7.4326-2.5622-5.8686-11.181 0.43801-2.6779-0.4652-4.4987-2.1449-5.8805-2.004-1.5619-0.93223-3.7943-0.22083-7.1443 0.7112-3.3501 1.4234-5.9739 1.9375-9.2836 0.26872-1.6983 0.66337-4.644 0.3638-6.3083-0.62224-3.2415-1.0888-1.8718-1.9082-5.073-1.2524-4.7148-3.3131-9.465-3.4292-14.248-0.27116-5.9427 0.10738-15.735 7.6825-9.2325 2.8207 2.3398 5.4074 4.9145 7.5835 7.9201 5.8862 8.2858 10.395 17.784 15.486 26.602 0.80402 1.5199 0.3321 3.3294 0.52135 5.0573z"/>
    </g>
  </g>
</svg>