<?xml version="1.0" encoding="utf-8"?>
<svg width="86" height="380" viewBox="202.715 584.407 86.5933 380.048" preserveAspectRatio="xMidYMid meet" xmlns="http://www.w3.org/2000/svg">
  <defs id="svgEditorDefs">
    <path id="svgEditorClosePathDefs" fill="moccasin" style="stroke-width: 0px; stroke: none; fill-opacity: 1;" class="shirt"/>
  </defs>
  <rect x="218.55" y="666.02" width="56.033" height="65.168" style="fill: rgb(255, 255, 255);"/>
  <rect id="svgEditorBackground" x="202.71499633789062" y="584.4310302734375" width="86.59329986572266" height="115.80899810791016" style="fill: none; stroke: none;" class="shirt"/>
  <g transform="matrix(0.091201, 0, 0, 0.092224, 220.604721, 668.480591)">
    <g id="layer1" transform="translate(-172.27 -352.65)">
      <g id="g3278" transform="matrix(1.6507 0 0 1.5589 -112.1 -197.09)">
        <path id="path2476" style="fill-rule:evenodd;fill:#ffdc99" d="m196.82 770.49l105.3-47.78-1.62-58.32-12.15-7.29-8.1-14.58-1.62-2.43-10.53 9.72-18.63-9.72-12.15-30.78 0.81-29.16 9.72-6.48 8.91 13.77v-26.73l-8.1-65.6 4.05-28.35 8.91-22.68 3.24 16.2-6.48 42.93 2.43 20.25 13.77-33.21 12.15-34.83 8.1-8.1-2.43 63.99 8.91-29.16 22.68 51.03s21.86 18.62 19.43 11.34c-2.43-7.29-16.19-25.11-16.19-25.11l-11.34-32.4 41.3 45.36 31.59-2.43-55.08-79.38 76.95 89.1 14.58 14.57-9.72 23.49 13.77-2.43 9.72 12.15-5.67 13.77-12.15 33.21-12.96 11.34-4.86 4.86-6.48-10.53-6.48 17.82-17.01 6.48-0.81 63.18 101.25 42.11-277.01 0.81z"/>
        <path id="path3272" style="fill-rule:evenodd;fill:#ffffff" d="m273.21 586.77s-1.85-0.23-2.77-0.69c-0.92-0.47-4.39-2.08-4.39-2.08l-2.08-1.16-2.07-2.54-1.16-1.15-0.92-1.62 2.31-5.31 8.31-3.93 2.77 3.24v15.24z"/>
        <path id="path3270" style="fill-rule:evenodd;fill:#ffffff" d="m305.78 570.6l-0.23 4.16-0.93 1.62-1.15 3.46-0.93 1.39-0.69 1.61-1.62 0.93s-0.23 1.15-1.15 1.38c-0.93 0.23-1.16 0.46-1.16 0.46l-1.38-3.46-0.23-10.85 1.15-4.39 8.32 3.69z"/>
        <path id="path3268" style="fill-rule:evenodd;fill:#ffffff" d="m351.97 571.76l1.15 3.46 2.08 2.54s0.23 2.08 1.38 2.54c1.16 0.46 4.85 2.54 4.85 2.54l3.93 2.77 2.08 0.47 4.39 0.46-4.62-22.4-6.7 2.54-8.54 5.08z"/>
        <path id="path3266" style="fill-rule:evenodd;fill:#ffffff" d="m392.84 565.52l-0.69 21.02 2.77 0.46 2.08-0.46 3-0.93s0.23-0.46 2.31-0.69 3.93-0.92 5.31-1.15c1.39-0.23 5.78-4.39 5.78-4.39s1.85-0.46 1.85-1.85c0-1.38-4.85-8.54-4.85-8.54l-6.93-3.93-8.09-0.69-2.54 1.15z"/>
        <g id="g2470">
          <path id="path2474" style="fill:#ebae11" d="m195.24 770.87c0.22-0.66 3.29-2.39 6.83-3.85 6.14-2.52 6.42-2.79 6.17-5.81-0.14-1.75-2.11-5.9-4.39-9.24-2.27-3.33-5.34-9.51-6.81-13.72-1.47-4.22-3.14-8.57-3.72-9.67-1.49-2.83-8.07-24.01-9.33-30-1.32-6.35-3.78-14.19-5.59-17.83-0.77-1.56-1.4-4.57-1.4-6.69s-0.46-5.05-1.01-6.52c-0.56-1.47-1.74-10.38-2.62-19.81-1.31-14.02-1.41-19.53-0.51-30.15 0.6-7.15 1.35-21.78 1.66-32.5 0.31-10.73 1-21.53 1.53-24 4.03-18.73 5.26-29.72 5.95-53 0.7-23.58 2.26-36.88 4.89-41.79 0.6-1.13 1.51-5.01 2.02-8.61 0.78-5.45 1.6-7.37 4.89-11.33 3.73-4.5 7.61-9.88 14.62-20.27 3.85-5.7 26.1-27.66 34.3-33.84 3.41-2.58 9.26-6 13-7.61 3.73-1.61 10.73-5.35 15.55-8.31s14.04-7.39 20.5-9.83c6.45-2.45 14.88-6.1 18.73-8.11 9.19-4.79 15.08-6.07 26-5.65 15.17 0.59 23.29 2.2 32.39 6.44 4.61 2.15 8.93 3.91 9.59 3.91s5.66 2.18 11.11 4.84 15.31 6.99 21.91 9.61c28.33 11.25 41.99 20.26 49.87 32.89 2.46 3.93 7.79 10.61 11.85 14.84 4.05 4.22 7.97 8.94 8.7 10.5 0.73 1.55 2.19 4.39 3.24 6.32 1.05 1.92 3.28 6.25 4.97 9.62 1.68 3.36 5.16 8.7 7.72 11.85s5.44 6.7 6.4 7.88c2 2.46 4.64 11.21 5.21 17.3 0.21 2.28 1.09 5.52 1.96 7.2 0.87 1.67 1.58 4.88 1.58 7.13 0 2.24 0.64 5.62 1.43 7.51s1.75 5.58 2.13 8.22c0.38 2.63 1.24 6.15 1.92 7.81 1.34 3.3 2.61 18.32 2.61 30.98-0.01 10.98-3 25.54-8.43 41-4.65 13.25-6.89 21.79-10.61 40.5-1.15 5.77-2.5 11.4-3 12.5s-2.04 4.92-3.43 8.5c-1.39 3.57-3.44 8.39-4.57 10.7s-2.05 4.9-2.05 5.75-0.79 2.34-1.75 3.31c-2.36 2.39-4.18 5.29-9.23 14.74-7.09 13.28-7.39 13.79-11.02 18.6-1.92 2.56-4.29 6.09-5.25 7.85-1.78 3.27-4 3.66-4.56 0.81-0.16-0.87 1.49-5.33 3.68-9.92 5.53-11.58 9.67-21.45 11.47-27.34 0.84-2.75 3.17-9.5 5.17-15 4.55-12.48 8.49-35.13 8.49-48.78 0-5.41-0.38-9.6-0.85-9.32-1 0.62-4.23 12.16-7.17 25.6-2.84 12.98-10.91 40.72-13.1 45-2.9 5.67-5.88 12.56-5.88 13.57 0 2.23-7.87 16.65-9.84 18.03-3.05 2.13-4.14 1-4.28-4.41l-0.11-4.69-0.83 4c-0.45 2.2-0.85 7-0.88 10.66-0.07 7.5-0.68 9.84-2.57 9.84-0.94 0-1.49-2.98-2.01-10.75-0.39-5.92-1.03-11.34-1.41-12.05s-1.23 2.67-1.88 7.5c-0.64 4.84-2.57 14.36-4.27 21.17-2.57 10.28-2.87 12.58-1.76 13.59 0.74 0.67 11.59 5.4 24.12 10.52 21.65 8.85 24.69 10.38 23.34 11.73-0.72 0.72-6.84-1.6-41.11-15.65-14.84-6.09-27.51-11.06-28.16-11.06-0.66 0-2.46-0.67-4.02-1.49-3.55-1.86-9.56-4.44-19.83-8.5-13.78-5.44-12.5-2.46-12.5-29.04 0-24.19-0.11-24.72-4.41-21.47-1.05 0.8-5.52 2.62-9.94 4.05-4.41 1.43-9.72 3.46-11.8 4.52-2.07 1.06-4.22 1.93-4.76 1.93-1.45 0-10.09-6-10.09-7.01 0-0.47-1.01-1.18-2.25-1.57-1.9-0.61-9.36-5.98-14.76-10.64-1.45-1.25-8.81-5.78-9.39-5.78-0.15 0-0.56 11.84-0.9 26.31s-0.88 27-1.2 27.83c-0.63 1.63-33.05 16.86-35.9 16.86-1.13 0-2.75-2.27-4.82-6.75-1.71-3.72-4.58-9-6.37-11.75-4.26-6.53-7.76-15.99-7.01-18.95 0.66-2.66-3.17-12.81-4.53-11.98-0.48 0.3-0.87 4.91-0.87 10.24-0.01 5.33-0.48 15.93-1.06 23.56-0.74 9.8-0.73 14.78 0.02 16.94 0.74 2.12 0.75 3.38 0.03 4.1-1.54 1.54-4.05-0.39-6.5-5-1.15-2.15-2.78-5.04-3.63-6.41-0.85-1.38-2.13-4.53-2.84-7-0.71-2.48-3.03-8.68-5.15-13.79-2.13-5.1-3.87-10.28-3.88-11.5 0-1.22-0.71-3.56-1.57-5.21s-1.8-5.25-2.09-8-1.39-6.22-2.43-7.71c-1.05-1.49-1.9-4.24-1.9-6.1 0-4.46-1.92-9.86-3.22-9.05-1.22 0.74-0.15 36.1 1.22 40.86 1.33 4.58 4.08 32.75 4.3 44l0.2 10 4.75-0.3c2.61-0.17 4.75-0.06 4.75 0.24 0 0.98-15.42 8.31-20.94 9.95-6.49 1.92-7.35 1.98-6.82 0.4zm226.37-48.54c-1.02-35.88-1.76-47.24-2.85-44-0.51 1.51-1.34 2.75-1.84 2.75-0.51 0-0.92 1.54-0.92 3.43s-0.47 4.69-1.06 6.21c-1.77 4.68-6.27 47.75-5.18 49.7 0.66 1.17 8.35 4.5 10.62 4.59 1.81 0.06 1.86-0.83 1.23-22.68zm24.27-28.56c-0.11-3.96-0.16-4.03-0.88-1.19-1.13 4.43-1.13 6.69 0 6 0.55-0.34 0.95-2.51 0.88-4.81zm-98.88-11.19c0-2.48-0.45-4.5-1-4.5s-1 2.02-1 4.5c0 2.47 0.45 4.5 1 4.5s1-2.03 1-4.5zm-16.32-0.69c-0.32-0.8-0.55-0.56-0.6 0.6-0.04 1.06 0.19 1.65 0.52 1.32 0.34-0.34 0.37-1.2 0.08-1.92zm26.91-6.56c-1.08-1.07-1.65 0.43-0.89 2.35 0.71 1.81 0.76 1.81 1.11 0.07 0.2-1.01 0.1-2.09-0.22-2.42zm-3.75-6.74c9.71-3.46 21.59-7.73 26.39-9.49l8.72-3.2 5.44-17.16c3-9.44 7.31-23.24 9.58-30.66 2.28-7.43 5.3-16.74 6.7-20.71 2.16-6.05 2.43-7.96 1.7-12-0.82-4.52-1.18-4.95-6.3-7.54-5.35-2.72-11.42-3.61-12.51-1.85-0.31 0.49-0.62 5.23-0.69 10.52s-0.57 9.89-1.09 10.22c-1.15 0.71-24 0.46-24.74-0.27-0.28-0.28-0.37-3.14-0.21-6.37 0.3-6.12-1.27-14-2.79-14-0.49 0-2.3 1.19-4.03 2.64-3.8 3.2-10.23 3.88-10.79 1.14-0.48-2.34 8.97-8.31 16.48-10.4 3.22-0.9 11.43-1.84 18.45-2.12 14.13-0.55 18.85 0.45 27.24 5.77 2.57 1.63 4.85 2.97 5.05 2.97 0.54 0 3.56-9.12 3.56-10.76 0-0.77-2.92-4.76-6.5-8.85-3.58-4.1-6.5-7.87-6.5-8.38s-1.69-1.24-3.75-1.62c-2.06-0.39-4.25-1.39-4.87-2.23-3.22-4.4-35.18-3.76-39.73 0.79-1.53 1.53-5.65 1.29-5.65-0.33 0-0.76 0.68-1.94 1.5-2.62 2.33-1.94 1.89-2.59-3.96-5.9-3.61-2.03-6.24-4.43-7.75-7.05s-3.1-4.07-4.69-4.26c-1.32-0.16-2.88-1.19-3.48-2.29-5.1-9.45-10.56-15.89-12.13-14.33-0.44 0.44 2.38 8.64 4.93 14.33 0.74 1.65 2.86 6.37 4.71 10.5 1.85 4.12 4.26 8.43 5.36 9.57 1.11 1.13 2.79 3.52 3.74 5.29 1.18 2.21 3.44 4.01 7.15 5.71 2.98 1.37 5.97 3.14 6.63 3.94 1.66 1.99 0.51 4.49-2.05 4.49-2.37 0-24.53-11.51-25.71-13.35-0.41-0.65-2.1-1.63-3.74-2.19-1.72-0.58-3.14-1.84-3.34-2.98-0.19-1.09-1.91-5.94-3.82-10.77s-4.17-11.13-5.01-14c-1.46-5-2.21-6.99-5.53-14.69l-1.5-3.47-2.11 6.47c-1.16 3.56-2.41 10.3-2.78 14.98-0.37 4.67-1.3 9.71-2.05 11.2-2.06 4.06-1.68 5.57 1.58 6.29 3.16 0.69 4.98 3.97 3.2 5.76-0.73 0.73-1.89 0.49-3.84-0.78-2.33-1.53-4.98-1.84-16.3-1.9-12.62-0.07-13.71 0.08-16.59 2.24-1.69 1.27-4.56 2.35-6.36 2.4l-3.29 0.1 0.59 4.59c0.33 2.53 1.12 9.32 1.77 15.1 0.65 5.77 1.32 10.67 1.49 10.88 0.18 0.21 1.44-0.35 2.81-1.25 1.38-0.9 2.96-1.63 3.52-1.63 0.96 0 1.79-0.61 7.27-5.24 1.77-1.49 3.48-1.65 12.66-1.13 8.79 0.5 11.39 1.04 15.12 3.12 6.04 3.39 8 5.2 8 7.4 0 2.26-3.37 2.42-7 0.35-1.38-0.79-2.84-1.45-3.25-1.47s-0.75 4.01-0.75 8.95c0 10.41 0.69 9.19-12.59 9.89-4.4 0.23-8.03-0.55-9.2-0.19-3.1 0.96-4.7 0.89-4.75-7.89-0.02-4.24-0.36-8.03-0.76-8.43s-2.31 0.03-4.24 0.95c-2.51 1.2-3.68 2.52-4.1 4.66-0.33 1.64-1.23 3.5-1.99 4.14-0.82 0.67-1.05 1.62-0.56 2.27 1.19 1.59 8.33 19.88 13.62 34.9 2.48 7.04 5.16 14.24 5.95 16 0.79 1.77 2.66 7.04 4.15 11.72 1.49 4.67 3.44 9.27 4.34 10.22s10.86 5.99 22.14 11.19c15.66 7.23 21.16 9.33 23.33 8.92 1.56-0.29 10.79-3.36 20.5-6.82zm-26.66-11.21c-11.02-0.36-11.3-0.43-11-2.59 0.2-1.36 0.99-2.18 2.07-2.13 0.96 0.05 7.49 0.17 14.5 0.27 12.89 0.18 16.77 1.03 14.61 3.18-1.43 1.43-6.07 1.72-20.18 1.27zm5.12-19.1c-0.83-0.52-1.02-2.55-0.61-6.48 0.54-5.2 0.81-5.72 2.97-5.72 4.48 0 5.65 7.54 1.77 11.43-1.76 1.75-2.4 1.87-4.13 0.77zm39.6 32.05c0.06-0.69-0.35-1.25-0.9-1.25s-0.96 1.68-0.9 3.75c0.09 3.34 0.19 3.48 0.9 1.25 0.44-1.38 0.85-3.07 0.9-3.75zm78.02-31c1.48-12.4 5.91-33.93 7.71-37.45 0.75-1.49 1.36-4.19 1.34-6l-0.03-3.3-2.92 3.21c-2.94 3.22-3.8 5.72-5.84 16.79-1.2 6.53-2.8 36.5-1.95 36.5 0.29 0 1.05-4.39 1.69-9.75zm-41.49 4.5c5.65-4.23 17.57-24.13 17.57-29.34 0-0.73 2.02-5.27 4.5-10.08 3.47-6.73 4.5-9.83 4.5-13.47 0-9.24-2.07-11.51-10.93-11.98l-5.39-0.28-1.81 6.45c-2.61 9.33-2.32 9.97 1.88 4.15 2.64-3.66 4.34-5.12 5.75-4.95 2.61 0.32 7.82 9.66 6.36 11.41-1.46 1.77-3.5 0.62-4.89-2.74-1.51-3.65-2.06-3.65-4.78 0.04-2.75 3.71-2.73 4.1 0.31 9.82 2.96 5.56 3.19 10.4 0.68 14.06-0.99 1.46-3.07 5.19-4.6 8.29-3.19 6.43-6.2 8.67-9.39 6.97-2.43-1.3-3.8-4.89-2.4-6.3 0.66-0.65 1.69-0.62 3.04 0.11 1.7 0.91 2.32 0.71 3.61-1.13 0.86-1.23 1.56-2.72 1.56-3.31 0-0.6 1.12-2.61 2.5-4.47 1.38-1.87 2.5-4.71 2.5-6.32 0-3.74-5.03-15.06-6.17-13.91-1.47 1.47-11.99 35.54-12.01 38.88-0.02 3.18 1.04 9.2 1.86 10.6 0.68 1.16 1.1 0.97 5.75-2.5zm-134.78-2.52l2.16-4.27-3.52-9.73c-1.94-5.35-5.16-14.56-7.16-20.45-3.15-9.29-3.93-10.72-5.86-10.75-1.6-0.02-2.84-1.23-4.39-4.28-1.19-2.34-2.97-4.82-3.96-5.51-0.98-0.7-1.93-2.49-2.1-4-0.44-3.73-3.53-4.25-4.41-0.74-0.37 1.48-1.71 3.04-3.04 3.54-2.61 1-2.88 3.04-1.72 12.71 0.73 6.09 1.74 6.64 3.32 1.83 1.27-3.84 4.76-6.58 8.36-6.58 3.17 0 7.45 6.42 8.89 13.33 1.01 4.84 0.91 5.41-1.57 9.06-4.64 6.81-2.65 16.61 3.38 16.61 2.3 0 2.97 0.44 2.97 2 0 1.65-0.67 2-3.83 2-4.7 0-7.52-2.72-9.14-8.84-1.32-4.96-0.68-9.2 2.12-14.05 2.09-3.63 1.86-7.17-0.8-12.36-1.93-3.79-4.01-3.45-6.1 1-1.11 2.37-2.56 3.86-3.93 4.06-3.96 0.56-4.32 2.23-2.19 10.19 2.82 10.5 8.36 20.65 12.81 23.46 1.97 1.24 4.2 3 4.94 3.89s1.74 1.38 2.23 1.08c0.48-0.3 1.67-0.07 2.63 0.51 0.97 0.57 3.11 0.94 4.76 0.8 2.42-0.2 3.41-1.06 5.15-4.51zm21.04-70.87c0.76-1.99-0.83-4.75-2.98-5.17-2.26-0.45-4.21 3.5-2.66 5.37 1.61 1.94 4.87 1.82 5.64-0.2zm92.81-2.36c0-1.56-0.65-2.6-1.75-2.81-1.98-0.38-3.27 2.01-2.36 4.38 0.95 2.49 4.11 1.28 4.11-1.57zm-130.11-35.59c0.34-0.87 0.61-10.55 0.61-21.51 0-16.99 0.32-21.29 2.18-29.16 2.4-10.14 2.51-12.17 1.2-21.71l-0.88-6.47-4 13.97c-3.76 13.13-4 14.75-3.97 26.97 0.02 7.15 0.57 18.4 1.23 25 0.65 6.6 1.2 12.56 1.22 13.25 0.03 1.77 1.69 1.55 2.41-0.34zm22.28-4.56c9.03 0.2 10.23 0.03 10.68-1.56 0.28-0.99 0.82-17.27 1.2-36.18 0.52-25.72 0.41-34.2-0.45-33.68-3.95 2.44-16.4 33.95-20.57 52.07-2.01 8.71-4.16 16.72-5.05 18.86-0.68 1.62-0.47 1.76 1.62 1.06 1.32-0.44 6.98-0.7 12.57-0.57zm111.58-3.62c-1.62-1.52-3.71-4.22-4.63-6s-2.35-3.23-3.18-3.23-2.33-1.92-3.34-4.27c-1-2.34-2.6-4.9-3.54-5.68-0.94-0.79-2.79-3.55-4.1-6.14-3.97-7.83-7.96-13.06-15.57-20.41-8.43-8.15-8.76-8.75 11.4 20.87 18.75 27.55 18.81 27.63 22.81 27.63h3.11l-2.96-2.77z"/>
          <path id="path2472" style="fill:#1a1a1a" d="m195.19 771.01c0.25-0.74 3.34-2.53 6.88-3.99 6.14-2.52 6.42-2.79 6.17-5.81-0.14-1.75-2.11-5.9-4.39-9.24-2.27-3.33-5.34-9.51-6.81-13.72-1.47-4.22-3.14-8.57-3.72-9.67-1.49-2.83-8.07-24.01-9.33-30-1.32-6.35-3.78-14.19-5.59-17.83-0.77-1.56-1.4-4.57-1.4-6.69s-0.46-5.05-1.01-6.52c-0.56-1.47-1.74-10.38-2.62-19.81-1.31-14.02-1.41-19.53-0.51-30.15 0.6-7.15 1.35-21.78 1.66-32.5 0.31-10.73 1-21.53 1.53-24 4.03-18.73 5.26-29.72 5.95-53 0.7-23.58 2.26-36.88 4.89-41.79 0.6-1.13 1.51-5.01 2.02-8.61 0.78-5.45 1.6-7.37 4.89-11.33 3.73-4.5 7.61-9.88 14.62-20.27 3.85-5.7 26.1-27.66 34.3-33.84 3.41-2.58 9.26-6 13-7.61 3.73-1.61 10.73-5.35 15.55-8.31s14.04-7.39 20.5-9.83c6.45-2.45 14.88-6.1 18.73-8.11 9.19-4.79 15.08-6.07 26-5.65 15.17 0.59 23.29 2.2 32.39 6.44 4.61 2.15 8.93 3.91 9.59 3.91s5.66 2.18 11.11 4.84 15.31 6.99 21.91 9.61c28.33 11.25 41.99 20.26 49.87 32.89 2.46 3.93 7.79 10.61 11.85 14.84 4.05 4.22 7.97 8.94 8.7 10.5 0.73 1.55 2.19 4.39 3.24 6.32 1.05 1.92 3.28 6.25 4.97 9.62 1.68 3.36 5.16 8.7 7.72 11.85s5.44 6.7 6.4 7.88c2 2.46 4.64 11.21 5.21 17.3 0.21 2.28 1.09 5.52 1.96 7.2 0.87 1.67 1.58 4.88 1.58 7.13 0 2.24 0.64 5.62 1.43 7.51s1.75 5.58 2.13 8.22c0.38 2.63 1.24 6.15 1.92 7.81 1.34 3.3 2.61 18.32 2.61 30.98-0.01 10.98-3 25.54-8.43 41-4.65 13.25-6.89 21.79-10.61 40.5-1.15 5.77-2.5 11.4-3 12.5s-2.04 4.92-3.43 8.5c-1.39 3.57-3.44 8.39-4.57 10.7s-2.05 4.9-2.05 5.75-0.79 2.34-1.75 3.31c-2.36 2.39-4.18 5.29-9.23 14.74-7.09 13.28-7.39 13.79-11.02 18.6-1.92 2.56-4.29 6.09-5.25 7.85-1.78 3.27-4 3.66-4.56 0.81-0.16-0.87 1.49-5.33 3.68-9.92 5.53-11.58 9.67-21.45 11.47-27.34 0.84-2.75 3.17-9.5 5.17-15 4.55-12.48 8.49-35.13 8.49-48.78 0-5.41-0.38-9.6-0.85-9.32-1 0.62-4.23 12.16-7.17 25.6-2.84 12.98-10.91 40.72-13.1 45-2.9 5.67-5.88 12.56-5.88 13.57 0 2.23-7.87 16.65-9.84 18.03-3.05 2.13-4.14 1-4.28-4.41l-0.11-4.69-0.83 4c-0.45 2.2-0.85 7-0.88 10.66-0.07 7.5-0.68 9.84-2.57 9.84-0.94 0-1.49-2.98-2.01-10.75-0.39-5.92-1.03-11.34-1.41-12.05s-1.23 2.67-1.88 7.5c-0.64 4.84-2.57 14.36-4.27 21.17-2.57 10.28-2.87 12.58-1.76 13.59 0.74 0.67 11.59 5.4 24.12 10.52 21.65 8.85 24.69 10.38 23.34 11.73-0.73 0.73-7.6-1.89-38.62-14.74-13.48-5.58-26.36-10.74-28.63-11.47-2.27-0.74-4.97-1.81-6-2.4-1.03-0.58-6.82-3.09-12.87-5.57-17.86-7.32-17.98-7.4-18.1-12.04-0.05-2.2-0.18-15.58-0.29-29.74-0.12-14.17-0.52-25.74-0.91-25.73-0.64 0.02-9.69 2.65-22.7 6.6-2.75 0.83-6.35 1.9-8 2.38-1.65 0.47-3.93 1.15-5.07 1.5-1.3 0.4-2.55 0.06-3.36-0.92-1.06-1.28-1.05-1.64 0.07-1.98 8.53-2.66 53.89-19.12 55.5-20.15 1.52-0.96 3.2-4.78 5.81-13.16 2.01-6.48 7.2-22.82 11.52-36.29 8.98-27.96 9.26-29.02 8.08-30.45-0.47-0.58-1.01-2.18-1.2-3.55-0.66-4.72-16.92-10.69-18.37-6.75-0.25 0.68-0.58 5.52-0.72 10.75l-0.26 9.5-11.86 0.28c-7 0.17-12.36-0.13-13.08-0.74-0.8-0.66-1.07-2.86-0.79-6.29 0.45-5.47-1.19-13.75-2.73-13.75-0.49 0-2.23 1.12-3.86 2.5-4 3.36-8.91 4.36-9.82 1.99-1.3-3.38 7.32-8.27 19.4-11.01 5.19-1.18 10.67-1.56 19.17-1.32 11.76 0.33 11.98 0.38 20.02 4.56 5.55 2.89 8.27 3.84 8.57 3 2-5.53 3.48-10.1 3.48-10.76 0-0.43-3.15-4.43-7-8.89-3.85-4.47-7-8.56-7-9.1 0-0.53-1.4-0.97-3.11-0.97-1.88 0-4.31-1.02-6.17-2.59-3.06-2.57-3.14-2.58-18.65-2.25-13.83 0.3-16.05 0.59-19.85 2.59-3.69 1.94-4.36 2.04-4.87 0.71-0.33-0.85 0.15-2.36 1.05-3.36 1.87-2.06 1.63-2.33-4.83-5.61-2.16-1.1-5.46-4.13-7.34-6.74-2.38-3.31-4.12-4.75-5.73-4.75-1.66 0-2.6-0.84-3.35-2.99-2.44-7.01-9.72-14.78-11.85-12.65-1.18 1.18 11.19 30.4 14.67 34.64 7.42 9.05 9.39 10.86 13.52 12.44 4.46 1.7 6.02 4.5 3.42 6.11-1.39 0.86-24.96-11.25-26.72-13.71-0.72-1.02-2.19-1.84-3.28-1.84-1.08 0-2.23-0.79-2.55-1.75-0.32-0.97-1.84-4.9-3.39-8.75s-4.17-11.05-5.83-16c-4.45-13.28-7.91-21.23-8.48-19.5-3.04 9.21-4.66 16.91-4.68 22.15-0.02 4.16-0.71 7.86-2.01 10.73-2.05 4.5-1.46 7.12 1.58 7.12 1.56 0 4.45 2.71 4.45 4.18 0 0.64-1.08 0.79-2.75 0.39-8.63-2.07-12.07-2.51-21.17-2.73-9.14-0.23-10.32-0.04-13.18 2.07-1.72 1.27-4.54 2.38-6.27 2.45-1.72 0.08-3.39 0.48-3.7 0.91-0.5 0.68 0.31 8.46 2.7 25.98 0.4 2.96 1.15 4.75 1.98 4.75 1.62 0 7.77-3.36 12.03-6.57 2.97-2.24 3.68-2.33 13.5-1.77 9.04 0.51 11.04 0.97 15.69 3.58 5.63 3.16 7.15 5.17 5.31 7.01-0.83 0.83-2.04 0.69-4.66-0.56-1.95-0.93-3.76-1.69-4.01-1.69-0.26 0-0.47 4.03-0.47 8.95v8.96l-3.25 0.5c-7.67 1.17-21.8 1.31-22.52 0.21-0.4-0.62-0.75-4.37-0.78-8.34s-0.37-7.54-0.76-7.93c-0.4-0.39-2.3 0.04-4.23 0.96-2.51 1.2-3.68 2.52-4.1 4.66-0.33 1.64-1.23 3.5-1.99 4.14-0.88 0.73-1.06 1.56-0.48 2.27 0.5 0.61 1.82 3.82 2.94 7.12 1.11 3.3 5.44 15.22 9.63 26.5 4.19 11.27 8.95 24.59 10.57 29.59 1.63 5 3.75 9.77 4.72 10.59 0.96 0.83 9.4 5.03 18.75 9.32 16.86 7.75 22.03 10.5 19.77 10.5-2.59 0-12.08-2.96-17.2-5.35-2.99-1.4-5.73-2.36-6.09-2.14s-0.94 12.2-1.29 26.62c-0.38 15.7-1.05 26.63-1.66 27.24-0.71 0.7-1.03-1.46-1.03-6.82 0-6.28-0.49-8.88-2.45-12.95-1.35-2.81-3.63-10.05-5.08-16.1-3.73-15.59-11.1-40.33-12.47-41.83-0.42-0.46-1.94 0.36-3.39 1.8-1.44 1.45-4.2 3.29-6.12 4.09-1.92 0.81-3.49 1.89-3.49 2.4 0 0.52 1.15 4 2.56 7.74s3.46 9.95 4.55 13.8c4.12 14.46 7.16 25.17 8.66 30.5 0.86 3.02 3.06 9.18 4.89 13.69 3.81 9.35 4.01 10.58 1.63 10.12-2.36-0.45-6.45-11.85-14.83-41.31-2.03-7.15-5.22-17.73-7.08-23.51-1.86-5.77-3.4-11.17-3.42-12-0.02-0.82-1.09-2.79-2.39-4.37-2.37-2.91-4.57-2.86-4.57 0.1 0 0.88 4.95 20.11 11 42.73s11 41.71 11 42.42-0.56 1.11-1.25 0.88c-1.39-0.46-0.93 1.11-14.81-50.75-8.52-31.87-10.54-38.25-13.42-42.5-1.87-2.75-5.21-8.83-7.43-13.5-3.75-7.91-4.04-9.17-4.23-18.07-0.11-5.27 0.13-10.1 0.53-10.75 1.32-2.14 2.61-1.24 2.61 1.82 0 4.02 1.64 3.79 3.43-0.49 0.96-2.31 2.71-4.09 5.13-5.24l3.67-1.76 2.9 3.48c5.03 6.02 6.35 14.86 2.87 19.28-2.45 3.11-2.72 11.25-0.49 14.44 0.83 1.19 2.74 2.3 4.25 2.47 3.82 0.44 3.61 3.23-0.28 3.61-7.94 0.78-12.29-12.37-7.21-21.81 2.27-4.23 2.34-4.81 1.1-9.08-1.43-4.9-4.24-8.23-6-7.1-0.6 0.38-1.85 2.18-2.78 3.99s-2.75 3.7-4.04 4.19c-3.42 1.3-3.54 1.88-1.97 9.41 1.34 6.38 8.77 22.61 10.35 22.61 0.39 0 2.55 1.57 4.8 3.5 2.25 1.92 5 3.5 6.12 3.5s2.31 0.45 2.65 1c0.9 1.45 4.74 1.22 7.09-0.43 1.12-0.79 2.62-3.18 3.33-5.33 1.23-3.74 1.03-4.62-4.95-21.32-3.43-9.58-6.67-18.66-7.2-20.17-0.68-1.92-1.66-2.75-3.26-2.75-1.74 0-2.68-0.96-3.87-3.95-0.87-2.18-2.44-4.41-3.5-4.98-1.05-0.56-2.2-2.6-2.57-4.55-0.87-4.62-4.18-4.93-5.72-0.52-1.05 3-3.85 4.2-3.85 1.65 0-3.19 2.28-7.46 4.53-8.49 2.67-1.21 2.64-3.4-0.15-11.66-0.74-2.2-1.36-4.75-1.37-5.66 0-0.92-1.52-5.19-3.36-9.5-3.72-8.71-5.07-14-6.58-25.84-0.56-4.4-1.69-11.15-2.51-15-2.72-12.81-1.48-27.94 3.76-46 2.49-8.59 19.32-32.85 31.58-45.54 3.63-3.75 8.22-8.65 10.19-10.89 3.12-3.54 4.14-4.07 7.75-4.07 3.03 0 4.16 0.4 4.16 1.5 0 1.05-1.06 1.5-3.54 1.5-2.43 0-4.13 0.7-5.45 2.25-1.06 1.23-5.75 6.3-10.41 11.25-13.96 14.8-26.23 32.81-31.03 45.56-5.21 13.79-6.86 29.1-4.49 41.44 0.53 2.75 1.84 10.17 2.9 16.5 2.82 16.73 3.59 19.84 6.59 26.5 1.49 3.3 3.73 10.07 4.99 15.06 4.78 19.03 6.12 22.39 7.8 19.67 0.7-1.13-1.02-26.53-2.77-41.11-5.77-47.83-5.83-55.66-0.6-72.62 6.01-19.46 6.87-22.05 8.93-26.84 3.17-7.35 4.59-5.71 4.5 5.18-0.04 5.04 0.23 9.16 0.62 9.16 0.38 0 1.48-2.14 2.44-4.75 4.8-13.02 18.52-32.4 18.52-26.16 0 1.08-2.01 3.95-7.23 10.3-3.78 4.61-9.34 18.02-11.09 26.77-0.8 4.04-2.67 11.84-4.15 17.34-2.86 10.65-4.48 30.64-3.08 38.07 0.97 5.19 1.58 3.89 6.07-13.06 2.04-7.7 4.98-17.37 6.54-21.5 6.92-18.32 8.26-20.98 17.84-35.43l2.6-3.91v-36.43c0-20.04-0.25-36.84-0.56-37.34-0.98-1.58-9.69 2.09-22.29 9.39-6.68 3.87-15.3 8.5-19.15 10.28-10.68 4.96-28.93 21.55-41.21 37.47-11.78 15.26-17.01 23.57-18.22 28.96-0.67 3.02-1.92 7.3-2.76 9.5-3.32 8.7-4.58 19.86-5.01 44.47-0.24 13.47-0.86 24.99-1.38 25.62-0.52 0.62-1.35 4.23-1.86 8.02-0.5 3.79-1.39 10.26-1.98 14.39-0.58 4.12-1.56 18.97-2.17 33-0.61 14.02-1.33 29.55-1.6 34.5-0.68 12.67 3.35 50.55 5.62 52.83 0.59 0.59 1.07 2.1 1.07 3.36 0 1.25 0.9 4.65 2 7.55 1.1 2.89 2.01 6.61 2.01 8.26 0.01 1.65 1.39 6.82 3.07 11.5 1.67 4.67 3.51 10.07 4.09 12 0.57 1.92 1.4 3.95 1.84 4.5s2.41 5.68 4.37 11.4c3.28 9.58 6.54 15.1 8.92 15.1 1.48 0 0.12-20.86-2.32-35.5-1.68-10.06-2.27-18.67-2.62-38-0.33-18.04-0.83-25.84-1.8-28-2.4-5.33-3.58-19.58-3.41-41.24 0.11-13.41-0.21-21.65-0.87-22.47-0.57-0.71-1.54-5.12-2.15-9.79-0.61-4.68-1.39-10.08-1.73-12-1.3-7.25-1.49-24.48-0.36-32.84 0.65-4.76 1.49-10.98 1.86-13.81 0.38-2.83 1.25-5.83 1.94-6.66s2.14-6.59 3.22-12.79 2.46-13.1 3.06-15.34c0.6-2.23 1.47-6.71 1.93-9.95 1.15-8.08 6.92-16.47 20.37-29.64 5.89-5.76 14.69-15.65 19.55-21.97 12.64-16.45 34.46-37.09 37.32-35.32 0.59 0.36-1.1 2.41-3.87 4.7-9.3 7.66-28.09 27.12-31.97 33.12-4.37 6.75-10.87 14.05-20.45 22.95-3.58 3.32-8.15 8.29-10.16 11.04-2.02 2.75-4.65 6.26-5.86 7.79-1.37 1.74-1.99 3.58-1.65 4.89 0.31 1.15-0.51 6.65-1.81 12.21-1.31 5.56-3.14 14.35-4.08 19.52-0.94 5.18-2.3 10.58-3.02 12-5.04 10.03-4.9 56.11 0.21 67.95 1.27 2.93 1.58 7.81 1.6 24.96 0.02 25.65 1.14 38.16 3.57 39.9 3.7 2.65 4.2 3.51 4.2 7.22 0 2.11 0.89 5.81 1.98 8.21 1.09 2.39 1.99 6.17 2 8.38 0.01 2.22 0.66 4.95 1.45 6.07s2.11 5.39 2.94 9.47c2.06 10.09 4.76 18.98 8.5 27.94 1.72 4.12 3.12 7.83 3.13 8.24 0.01 2.06 4.53 10.75 5.45 10.45 1.37-0.46 2.31-14.01 2.44-35.38 0.11-16.92 0.72-20.1 3.38-17.44 1.34 1.34 1.18 22.23-0.33 43.17-0.75 10.42-0.74 15.35 0.04 17.41 0.77 2.03 0.78 3.18 0.03 3.94-1.56 1.56-4.05-0.34-6.52-4.98-1.15-2.15-2.78-5.04-3.63-6.41-0.85-1.38-2.13-4.53-2.84-7-0.71-2.48-3.03-8.68-5.15-13.79-2.13-5.1-3.87-10.28-3.88-11.5 0-1.22-0.71-3.56-1.57-5.21s-1.8-5.25-2.09-8-1.39-6.22-2.43-7.71c-1.05-1.49-1.9-4.24-1.9-6.1 0-4.46-1.92-9.86-3.22-9.05-1.22 0.74-0.15 36.1 1.22 40.86 1.33 4.58 4.08 32.75 4.3 44l0.2 10 3.25-0.15c4.93-0.22 3.04 1.35-7.54 6.26-11.27 5.23-14.67 6.28-14.02 4.32zm226.42-48.68c-1.02-35.88-1.76-47.24-2.85-44-0.51 1.51-1.34 2.75-1.84 2.75-0.51 0-0.92 1.54-0.92 3.43s-0.47 4.69-1.06 6.21c-1.77 4.68-6.27 47.75-5.18 49.7 0.66 1.17 8.35 4.5 10.62 4.59 1.81 0.06 1.86-0.83 1.23-22.68zm7.26 8c1.12-4.82 2.51-11.68 3.08-15.25 1.28-8.02 1.27-48.79-0.02-59-0.52-4.13-1.22-13.92-1.56-21.75-0.34-7.84-0.9-14.24-1.25-14.23-0.34 0.01-2.06 3.09-3.82 6.84l-3.21 6.82 0.91 35.41c1.32 51.06 2.13 69.91 3.04 69.91 0.44 0 1.71-3.94 2.83-8.75zm-22.77 7.5c0.06-0.14 0.45-4.53 0.88-9.75 1.88-22.92 4.81-42.48 7.57-50.5 0.76-2.2 1.87-9.4 2.47-16 0.61-6.6 1.34-13.92 1.64-16.25 0.3-2.34 0.24-4.25-0.13-4.25s-3.6 2.47-7.16 5.5c-3.57 3.02-6.88 5.5-7.36 5.5-1.12 0-3.74-2.63-5.05-5.08-0.57-1.06-1.4-1.92-1.85-1.92s-1.82 3.38-3.05 7.52c-1.82 6.14-2.04 8.11-1.15 10.65 2.03 5.81 0.88 42.64-1.92 61.83-0.89 6.03-0.8 6.62 1.19 8.29 3.18 2.66 4.82 1.76 6.92-3.79 1.73-4.56 1.9-8.07 1.9-39.75 0-23.21 0.34-34.75 1.03-34.75 0.57 0 1.22 0.56 1.45 1.25 0.23 0.68 0.61 15.42 0.85 32.75 0.39 28.5 0.25 32.21-1.47 38.98-1.04 4.11-1.68 8.05-1.41 8.75 0.4 1.04 4.3 1.89 4.65 1.02zm-19.04-8.86c1.64-3.07 3.44-27.74 3.44-47.23 0-15.34-0.17-16.95-1.89-18.21-1.41-1.03-2.39-1.11-3.88-0.31-1.92 1.03-1.97 1.72-1.28 18.05 0.57 13.55 0.36 20.01-1.07 32-1.75 14.7-1.75 15.06 0.1 16.42 2.56 1.87 3.25 1.76 4.58-0.72zm-7.82-16.97c1.35-10.4 1.6-17.09 1.12-29.7-0.36-9.24-1.07-16.54-1.65-16.9-2.84-1.76-3.46 3.07-3.94 30.94-0.26 15.53-0.28 28.6-0.03 29.04 1.54 2.77 2.95-1.42 4.5-13.38zm73.09-9.39c1.37-2.46 3.03-6.17 3.69-8.25s2-5.58 2.97-7.78c0.98-2.2 2.88-6.48 4.22-9.5 1.35-3.03 3.69-10 5.2-15.5s3.38-12.25 4.16-15c0.77-2.75 2.06-8.15 2.87-12 0.8-3.85 2.41-10.6 3.58-15 3.66-13.84 5.23-22.23 8.61-46 2.58-18.11 0.73-52.06-3.24-59.66-0.77-1.46-1.39-3.26-1.4-4-0.01-1.67-9.15-22.91-11.22-26.07-0.84-1.28-3.41-6.08-5.72-10.67-2.95-5.88-3.88-8.67-3.14-9.41 0.58-0.58 1.18-0.87 1.32-0.63 0.15 0.24 2.58 4.94 5.41 10.44 2.82 5.5 6.07 11.8 7.22 14 5.01 9.58 11.41 25.47 12.48 31 1.54 7.96 1.48 72.4-0.1 99.5-1.21 20.78-2.33 31.33-4.11 38.52-1.5 6.06-12.09 35.92-15.56 43.83-1.09 2.5-1.27 3.71-0.51 3.46 0.65-0.22 4.03-5.94 7.51-12.73 3.49-6.78 7.04-13.1 7.89-14.03 0.84-0.94 1.54-1.97 1.54-2.29s1.54-3.89 3.41-7.92c4.8-10.31 7.94-20.32 11-35.07 1.45-7 3.78-16.45 5.18-21 12.53-40.93 12.85-42.65 12.03-63.92-0.44-11.44-1.12-17.8-2.17-20.32-1.58-3.79-2.19-6.27-5.55-22.53-1.07-5.23-2.38-11.53-2.89-14-2.76-13.31-4.07-16.14-12.06-26-3.64-4.51-10.01-15.22-15.74-26.5-1.67-3.3-5.58-8.48-8.69-11.5-3.1-3.03-8.13-9.19-11.17-13.71-3.04-4.51-7.53-9.68-9.97-11.5-2.45-1.81-6.06-4.52-8.03-6.03-4.27-3.26-12.99-7.46-26.74-12.88-5.56-2.19-15.29-6.4-21.61-9.34s-12.62-5.68-14-6.08-4.52-1.73-7-2.95c-9.59-4.76-17.1-6.62-30.23-7.49-14.67-0.98-21.33 0.29-31.15 5.91-2.95 1.69-6.24 3.07-7.3 3.07-1.07 0-2.81 0.64-3.88 1.42-1.85 1.36-1.94 2.98-2.01 36.75-0.06 28.17-1.65 86.27-2.56 93.83-0.4 3.28 0.16 6.36 0.99 5.45 2.08-2.29 3.45-8.72 4.02-18.87 0.35-6.18 1.08-11.07 1.67-11.27 0.57-0.19 2.99 5.4 5.36 12.42 2.38 7.02 4.94 13.76 5.7 14.98 0.77 1.22 1.39 2.99 1.39 3.94 0 0.94 0.82 3.54 1.83 5.78s2.39 5.87 3.08 8.07c2.89 9.32 5.59 14.54 7.85 15.13 1.24 0.32 3.19 1.89 4.32 3.48 2.2 3.09 4.92 3.85 4.92 1.39 0-0.83-0.68-1.5-1.52-1.5s-2.01-1.24-2.6-2.75c-1.53-3.89-6.96-16.4-8.04-18.54-0.5-0.98-2.29-5.93-3.98-11-1.7-5.07-3.75-10.5-4.56-12.08-1.06-2.06-1.17-3.17-0.38-3.95 0.78-0.78 2.13-0.08 4.83 2.49 2.06 1.97 5.74 4.99 8.17 6.72 2.43 1.72 5.83 5.49 7.55 8.37 2.03 3.38 3.93 5.35 5.35 5.56 1.34 0.19 2.98 1.77 4.17 4 1.08 2.02 2.54 4.39 3.24 5.26 1.66 2.07 5.77 4.25 6.55 3.47 0.82-0.82-2.47-6.48-5.42-9.34-1.3-1.26-2.36-2.81-2.36-3.44 0-2.2-9.43-21.31-12.51-25.34-1.7-2.24-3.73-5.62-4.51-7.5-0.78-1.89-3.54-6.08-6.14-9.32-5.46-6.78-11.84-18.41-11.84-21.57 0-3.52 1.81-1.41 5.9 6.88 2.11 4.26 5.68 10.41 7.93 13.66 11.31 16.29 15.26 22.76 19.66 32.14 2.77 5.93 5.78 10.88 7.15 11.78 1.3 0.85 2.36 2.28 2.36 3.18 0 1.84 7.47 11.93 9.31 12.56 2.05 0.7 16.69-0.42 16.69-1.28 0-0.81-16.47-21.16-40.44-49.96-16.11-19.37-15.09-18-13.39-18 0.77 0 7.33 7.12 14.57 15.83 19.46 23.43 21.31 24.19 7.17 2.96-4.51-6.76-10.33-15.22-12.95-18.79-4.82-6.58-6.42-10.5-4.29-10.5 0.64 0 7.16 6.53 14.5 14.52 7.33 7.98 16.06 17.31 19.4 20.72 3.35 3.42 7.36 8.75 8.94 11.86 2.78 5.51 6.97 11.36 11.73 16.4 1.3 1.37 3.47 4.18 4.81 6.23 2.28 3.47 4.96 5.64 4.94 3.99-0.01-0.4-1.36-5.18-3-10.64-1.65-5.45-2.99-10.58-2.99-11.4 0-1.38-9.57-15.18-23.2-33.46-3.19-4.28-5.8-7.99-5.8-8.25s0.59-0.47 1.32-0.47c0.95 0 33.15 42.85 40.88 54.4 0.38 0.57 0.99 0.74 1.36 0.37s-3.88-12.28-9.44-26.47c-5.57-14.2-10.12-26.41-10.12-27.14 0-2.71 2.46-0.39 4.14 3.9 0.96 2.44 6.99 17.71 13.42 33.94 6.42 16.22 11.73 30.17 11.8 31 0.33 3.62-2.72 0.74-10.01-9.48-8.59-12.05-9.78-12.11-6.33-0.34 2.42 8.26 5.9 14 9.47 15.63 1.33 0.6 3.18 2.58 4.11 4.38 1.76 3.41 9.46 12.81 10.49 12.81 0.32 0 1.13-1.2 1.8-2.66 1.8-3.94 3.23-1.64 1.99 3.21-0.86 3.41-0.68 4.92 1.16 9.5 1.2 2.99 3.01 7.83 4.03 10.74s2.7 6.51 3.74 8c2.29 3.29 4.19 8.67 4.19 11.86 0 4.61 1.79 2.24 2.95-3.9 0.85-4.49 0.88-7.52 0.14-10.75-0.57-2.48-1.05-6.17-1.07-8.21-0.01-2.03-0.43-4.73-0.93-6-0.5-1.26-1.9-6.57-3.12-11.79-1.22-5.23-3.01-11.08-3.99-13-0.98-1.93-3.23-7.55-5.01-12.5s-3.85-9.71-4.6-10.58-1.37-2.12-1.37-2.79c0-0.66-2.48-5.86-5.52-11.54-3.04-5.69-6.83-14.2-8.42-18.92-1.6-4.72-4.29-10.6-5.99-13.07-1.69-2.46-2.67-4.73-2.18-5.04 1.55-0.96 6.62 5.8 9.01 12.01 6.17 16.02 8.58 21.48 12.32 27.93 2.23 3.85 4.62 7.67 5.3 8.5 0.68 0.82 1.46 2.85 1.73 4.5 0.28 1.65 2.74 8.4 5.47 15 7.59 18.34 11.24 36.02 11.32 54.82l0.03 9.18 2.46-3c2.31-2.82 2.46-3.73 2.47-15.13 0-9.58-0.61-15.04-2.92-26-1.61-7.63-3.38-15.22-3.94-16.87-1.7-4.99-6.25-20.77-7.08-24.5-0.42-1.93-2.79-8-5.26-13.5s-6.65-15.09-9.3-21.3c-2.64-6.21-6.8-14.76-9.22-19-5.59-9.74-7.4-14.01-6.26-14.71 0.97-0.6 2.13 1.04 6.71 9.51 1.64 3.02 3.98 7.16 5.19 9.19 2.36 3.94 7.81 16.34 11.68 26.54 1.29 3.43 3.65 8.83 5.24 12s4.53 11.62 6.53 18.77c2.01 7.15 4.14 14.35 4.75 16 0.6 1.65 1.44 4.8 1.86 7s1.78 8.5 3.03 14c1.24 5.5 2.54 14.92 2.88 20.93 0.58 10.42 0.69 10.85 2.36 9.18 1.57-1.57 1.75-4.21 1.75-25.22 0-22.49-1.29-41.76-2.94-43.89-1.01-1.3-5.06-14.83-5.06-16.91 0-7.6 8.68 14.88 9.43 24.41 0.39 5.08 0.77 46.6 0.6 65.65-0.02 2.11-1.18 4.54-3.51 7.32-3.49 4.18-4.29 6.39-6.34 17.53-1.21 6.57-2.8 36.5-1.94 36.5 0.29 0 1.08-4.62 1.76-10.25 1.32-11.15 5.38-31.6 7.14-36 0.61-1.52 1.49-2.75 1.96-2.75 0.89 0 0.64 1.87-1.76 13.5-1.92 9.25-3.26 18.12-4.33 28.5-0.48 4.67-1.54 12.32-2.37 17-1.53 8.65-2.74 48-1.48 48 0.37 0 1.79-2.01 3.17-4.47zm12.83-51.41c-0.98-0.62-1.07-1.37-0.34-2.74 0.56-1.04 2.02-7.51 3.25-14.38 1.23-6.88 2.84-14.25 3.58-16.38 0.87-2.5 1.35-8.61 1.35-17.22 0-9.22 0.43-14.35 1.4-16.62 2.79-6.51 3.79-15.78 2.64-24.29-2.31-16.98-3.67-22.54-5.9-24.11-1.51-1.06-2.15-2.58-2.18-5.19-0.03-2.03-0.61-6.38-1.29-9.66-1.04-5.04-1.62-6.05-3.7-6.54-1.9-0.44-2.67-1.49-3.32-4.53-0.47-2.18-1.49-5.78-2.25-8-1.59-4.57-1.76-6.46-0.6-6.46 1.1 0 5.2 8.62 5.2 10.94 0 3.19 1.13 5.06 3.05 5.06 1.01 0 2.19 0.56 2.64 1.25 1.06 1.65 3.16 11.48 3.25 15.18 0.03 1.62 0.94 3.87 2.02 5.02 1.85 1.97 2.96 6.57 6.16 25.48 1.43 8.45-0.41 26.75-2.94 29.29-0.79 0.78-1.18 5.56-1.18 14.23 0 7.18-0.49 14.63-1.09 16.55-1.77 5.68-4.88 23.17-4.89 27.55-0.01 2.22-0.56 4.59-1.22 5.25-1.41 1.41-1.85 1.45-3.64 0.32zm30.17-44.74c0.33-2.69 1-8.27 1.48-12.41 0.49-4.14 1.4-8.5 2.04-9.68 1.47-2.77 1.52-31.2 0.09-52.75-0.99-14.92-1.21-16.07-3.5-18.19-1.47-1.36-2.44-3.37-2.44-5.06 0-1.53-0.86-5.04-1.9-7.79s-2.34-8.66-2.88-13.13c-1.03-8.52-3.17-12.8-7.97-15.94-1.29-0.85-4.01-4.05-6.05-7.11-2.03-3.06-4.41-6.62-5.27-7.91-0.86-1.3-3.56-3.9-6-5.79s-10.82-10-18.63-18.03c-9.52-9.78-14.91-14.59-16.34-14.59-2.63 0-2.1-2.4 0.62-2.76 1.94-0.27 11.06 8.06 26.05 23.78 3.92 4.11 8.97 8.8 11.23 10.41s5.58 5.37 7.38 8.37c1.79 2.99 6.47 9.03 10.4 13.42l7.14 7.98 0.71 7.65c0.39 4.21 1.52 10.12 2.52 13.15 0.99 3.02 2.05 6.62 2.36 8 0.3 1.37 1.58 2.95 2.84 3.5 2.84 1.24 3.24 5.3 4.34 44.18 0.66 23.48 0.56 27.5-0.75 29.5-0.83 1.27-1.78 4.79-2.11 7.82-0.95 8.86-3.14 17.31-4.61 17.8-1.08 0.36-1.23-0.56-0.75-4.42zm-148.33-177.47c-11.28-4.31-25.79-9.75-32.25-12.08-6.77-2.45-11.75-4.79-11.75-5.54 0-1.95 1.68-1.62 11.51 2.24 11 4.32 19.26 6.84 17.87 5.44-0.88-0.87-7.46-4.52-24.71-13.7-1.8-0.95-2.49-1.85-1.89-2.46 0.61-0.6 5.49 1.4 13.34 5.49 6.81 3.54 20.48 10.59 30.38 15.67 19.44 9.96 20.4 10.56 18.95 11.91-0.56 0.52-9.32-2.32-21.45-6.97zm31-25.98c-1.38-1.11-5.51-4.02-9.2-6.47l-6.69-4.46h-19.09c-14.16 0-19.96 0.36-22.46 1.41-5.45 2.28-14.64 3.91-15.75 2.79-1.4-1.39-0.33-1.86 10.62-4.71 8.62-2.24 11.56-2.49 28.86-2.49h19.26l5.48 4.12c3.01 2.26 7.61 5.52 10.22 7.23s4.75 3.46 4.75 3.88c0 1.47-3.52 0.71-6-1.3zm67.88 290.76c-0.11-3.96-0.16-4.03-0.88-1.19-1.13 4.43-1.13 6.69 0 6 0.55-0.34 0.95-2.51 0.88-4.81zm-147.1-14.26l-0.28-13.91-4.5-2.15c-2.48-1.18-4.77-1.99-5.09-1.8-0.33 0.19 0.19 2.95 1.15 6.14 0.96 3.18 2.28 8.26 2.94 11.29 2.35 10.75 4.18 16.21 5.13 15.27 0.51-0.51 0.8-7.19 0.65-14.84zm145.1-25.45c2.56-42.94 3.54-50.62 7.37-57.8 4-7.49 2.89-8.74-1.67-1.87-4.5 6.79-7.51 9.32-12.7 10.72-4.77 1.28-5.79 4.24-3.56 10.26 1.06 2.85 2.23 14.05 3.64 34.71 2.66 39.24 3.13 44 4.06 41.46 0.41-1.1 1.7-17.97 2.86-37.48zm-33.69-11.25c5.42-4.89 14.09-19.49 16.47-27.73 0.87-3.03 3.33-8.84 5.46-12.92 4.04-7.72 4.58-11.03 2.83-17.32-1.32-4.76-4.01-6.26-11.19-6.26h-5.75l-3.49 10.5c-12.85 38.71-14.52 44.68-13.88 49.64 0.74 5.64 1.93 8.36 3.65 8.34 0.66-0.02 3.32-1.93 5.9-4.25zm-2.44-11.81c-2.11-1.23-2.34-4.92-0.31-4.92 0.79 0 1.74 0.48 2.1 1.06 0.93 1.51 4.12-1.58 4.92-4.77 0.35-1.4 1.74-4.17 3.09-6.15 3.06-4.51 3.05-6.31-0.06-12.99-1.37-2.94-2.49-5.92-2.49-6.61 0-1.29 6.6-10.51 8.4-11.73 1.46-0.99 2.26-0.25 5.22 4.8 1.78 3.05 2.32 4.85 1.64 5.53s-1.73 0.01-3.21-2.07c-2.73-3.83-4.15-3.87-6.33-0.17-2.2 3.72-2.17 5.63 0.17 9.48 3.81 6.28 3.63 8.61-1.44 18.26-5.87 11.16-7.59 12.67-11.7 10.28zm17.22-55.9c3.76-0.63 3.82-0.85 2.45-7.74-0.71-3.6-2.45-5.52-4.04-4.48-1.25 0.82-4.38 9.72-4.38 12.43 0 1.23 0.43 1.62 1.22 1.13 0.66-0.41 2.8-1.01 4.75-1.34zm-130.28-4.66c0.76-1.99-0.83-4.75-2.98-5.17-2.26-0.45-4.21 3.5-2.66 5.37 1.61 1.94 4.87 1.82 5.64-0.2zm92.81-2.36c0-1.56-0.65-2.6-1.75-2.81-1.98-0.38-3.27 2.01-2.36 4.38 0.95 2.49 4.11 1.28 4.11-1.57zm-130.11-34.59c0.34-0.87 0.61-10.04 0.61-20.39 0-14.88 0.42-20.83 2-28.5 1.09-5.34 2.24-10.1 2.54-10.59 0.84-1.35-0.7-20.93-1.64-20.93-0.45 0-1.32 1.91-1.92 4.25-0.6 2.33-2.22 7.85-3.59 12.25-4.12 13.22-4.97 21.66-3.49 34.67 0.71 6.23 1.66 15.6 2.11 20.83 0.45 5.22 0.86 9.61 0.9 9.75 0.31 0.88 1.98-0.02 2.48-1.34zm33.52-6c0.33-0.32 0.69-7.86 0.8-16.75 0.12-8.89 0.52-25.05 0.89-35.91 0.74-21.46 0.38-22.85-4.05-15.84-3.78 5.99-12.88 28.45-15.84 39.09-2.62 9.43-7.71 29.28-7.71 30.08 0 0.65 25.25 0 25.91-0.67zm103.09-0.98c0-0.31-1.29-1.65-2.87-2.98s-3.43-3.76-4.11-5.4-2.09-3.26-3.14-3.59c-1.05-0.34-2.61-2.26-3.45-4.29-0.84-2.02-2.59-4.8-3.88-6.17-1.28-1.38-3.47-4.78-4.86-7.57-3.05-6.09-20.98-26.47-22.22-25.24-0.28 0.28 5.39 9.24 12.6 19.91 7.2 10.67 15.6 23.11 18.67 27.65 5.35 7.94 5.7 8.25 9.41 8.25 2.12 0 3.85-0.26 3.85-0.57zm-133.14 206.99c-1.75-3.81-4.66-9.17-6.45-11.92-3.68-5.65-7.79-15.91-7.12-17.77 0.47-1.32 0.7-0.96 9.54 15.27 8.16 14.96 9.75 18.81 8.36 20.2-0.85 0.85-1.94-0.6-4.33-5.78zm-65.66-23.62c-0.66-0.66-1.2-1.92-1.2-2.79s-0.9-4.14-2-7.27-2-8.07-2-10.97c0.01-8.32-3.02-32.96-4.45-36.27-2.06-4.76-3.55-16.63-3.55-28.22 0-8.64 0.5-12.31 2.6-19.23 1.43-4.71 3.07-9.14 3.66-9.85 2.26-2.76 2.57 0.62 0.61 6.81-1.12 3.57-2.45 7.87-2.96 9.56-2.15 7.22-0.27 33.93 2.63 37.43 0.68 0.82 1.51 4.42 1.85 8 0.34 3.57 1.06 9.87 1.61 14 0.55 4.12 1.37 12 1.82 17.5s1.68 12.35 2.73 15.22c1.3 3.57 1.58 5.55 0.88 6.25-0.71 0.7-1.41 0.65-2.23-0.17zm30.83-14.05c-0.62-2.89-1.4-7.28-1.74-9.75-0.34-2.48-1.27-4.98-2.06-5.57-2.36-1.74-4.15-16.29-5.23-42.43-0.55-13.48-1.56-28.55-2.24-33.5-1.8-13.22-1.71-67.21 0.12-70.43 0.76-1.33 1.7-6.62 2.08-11.75 0.71-9.39 1.34-11.47 2.95-9.76 1.27 1.36-0.53 21.28-2.1 23.16-1.75 2.11-1.81 54.88-0.07 67.78 0.67 4.95 1.67 19.6 2.23 32.56s1.48 25.79 2.04 28.5c0.55 2.72 1.29 6.51 1.62 8.44 0.34 1.92 1.26 4.02 2.05 4.65 1.08 0.86 4.11 17.12 4.31 23.1 0.01 0.13-0.63 0.25-1.41 0.25-0.9 0-1.83-1.92-2.55-5.25zm91-40.22c-1.94-2.34-0.01-2.62 15.52-2.31 11.61 0.23 13.95 0.53 13.95 1.78 0 2.25-27.62 2.76-29.47 0.53zm15.17-23.27c0.34-6.57 2.5-8.17 5.29-3.92 1.46 2.22 1.47 2.82 0.11 6.06-1.04 2.51-2.13 3.6-3.6 3.6-1.92 0-2.07-0.48-1.8-5.74z"/>
        </g>
        <path id="path3248" style="fill-rule:evenodd;fill:#ffffff" d="m294.76 568.71a2.9381 3.3172 0 1 1 -5.88 0 2.9381 3.3172 0 1 1 5.88 0z" transform="matrix(1.0645 0 0 1 -19.017 0)"/>
        <path id="path3250" style="fill-rule:evenodd;fill:#ffffff" d="m387.83 568.05a2.4642 3.0329 0 1 1 -4.93 0 2.4642 3.0329 0 1 1 4.93 0z"/>
        <path id="path3252" style="fill-rule:evenodd;fill:#6864ff" d="m271.63 578.1l0.19 7.96s-0.19 0.57 0.57 0.76 6.82 0.57 6.82 0.57 18.96-0.76 18.96-1.52v-9.48c-2.04-0.48-1.26 0.79-2.84 1.9-1.9 1.32-6.07 3.22-6.07 3.22-5-0.18-9.76-0.99-14.41-2.84-0.94-0.38-3.03-1.14-3.22-0.57z"/>
        <path id="path3254" style="fill-rule:evenodd;fill:#6864ff" d="m366.79 577.91l-0.19 4.93 0.19 2.27 1.7 1.52 24.08 0.19v-9.48h-0.76l-0.38 1.14s0.38 0.38-0.76 0.57c-1.14 0.18-1.7 0.37-2.46 0.75s-1.33 1.14-1.33 1.14 0 0.38-1.33 0.57c-1.32 0.19-0.57 0.38-2.27 0.38h-4.17s-3.03-0.38-4.36-0.76-3.79-0.95-3.79-0.95l-4.17-2.27z"/>
        <path id="path3260" style="fill-rule:evenodd;fill:#5653e6" d="m273.01 584.74c0.09 0.02 1.31 0.18 1.5 0.22 0.19 0.05 0.38 0.13 0.56 0.2 0.23 0.07 0.4 0.13 0.4 0.05 0.01-0.04-0.07-0.02-0.1-0.03 1.36 0.16 0.37-0.02 1.1 0.2 0.03 0.01 0.07 0.03 0.1 0.02 0.2-0.07-0.64-0.02-0.07-0.07 0.52-0.07 0.78 0.03 1.34 0.21 0.1 0.04 0.27 0.2 0.2 0.01-0.08 0-0.29 0.02-0.22 0 0.3-0.1 1.28-0.06 1.6-0.04 0.34-0.01 0.46-0.01 1.02-0.01h1.79 1.99 1.86 0.94 1.84 1.45 0.16c0.04 0 0.15-0.02 0.12 0-0.33 0.19-0.67 0.34-1 0.51 0.17-0.18 0.31-0.39 0.51-0.54 0.55-0.38 1.52-0.15 2.15-0.14 0.08 0 0.16 0 0.24-0.01 0.04 0-0.08-0.01-0.12 0-0.08 0.02-0.3 0.13-0.23 0.08 0.33-0.24 0.75-0.26 1.14-0.36 0.11-0.03 0.42-0.12 0.53-0.13 0.21-0.01 0.77-0.14 0.62 0-0.92 0.9-1.15 0.41-0.78 0.14 0.15-0.1 0.32-0.18 0.48-0.28 0.14-0.02 0.27-0.06 0.41-0.06 0.2-0.01 0.4 0.01 0.6 0.03 0.52 0.03 0.46 0.09-0.73 0.32-0.05 0.01 0.03-0.09 0.06-0.13 0.12-0.15 0.25-0.28 0.37-0.42-0.05 0.05-0.18 0.22-0.16 0.15 0.21-0.64 1.02-0.81 1.6-0.89-1.23 1.01-0.18-0.21-0.06-0.26 0.65-0.3 0.93-0.16 1.5-0.05 0.42-0.01 0.17-0.01-0.73 0.2l1.44 1.24c-1.14 0.43-0.68 0.45-1.33 0.35-0.08-0.02-0.15-0.03-0.22-0.05-0.02 0-0.08 0.01-0.06 0 0.74-0.28 0.41 0.02 0.7-0.45 0.04-0.06-0.07 0.13-0.1 0.19-0.25 0.23-0.51 0.46-0.76 0.68-0.08-0.02-0.1-0.04-0.2-0.01-0.08 0.02-0.24 0.17-0.24 0.08-0.01-0.12 0.17-0.18 0.24-0.28 0-0.01-0.01-0.05-0.02-0.04-0.12 0.18-0.22 0.36-0.33 0.55 0.26-0.6-0.01 0-0.02 0.02 0 0-0.99 0.82-1.38 0.64-0.06-0.02 0.23 0.05 0.17-0.07 0.06-0.06 0.12-0.12 0.18-0.19 0.01-0.01-0.01 0-0.02 0-0.35 0.15-0.71 0.25-1.04 0.44-0.09 0.05 0.22-0.01 0.33-0.03 0.01 0-0.04-0.01-0.06-0.01-0.08 0.02-0.16 0.04-0.24 0.07-0.15 0.04-0.3 0.1-0.45 0.13-0.19 0.03-0.13-0.08-0.29-0.01-0.2 0.08-0.37 0.22-0.57 0.28-0.08 0.02-0.66 0-0.83 0-0.08 0-0.52-0.03-0.63-0.04-0.02 0 0.04 0 0.03-0.01-0.02-0.03-0.07-0.02-0.09-0.04-0.1-0.12 0.44-0.51 0.16-0.42-0.35 0.23-0.7 0.48-1.07 0.69-0.1 0.06-1.03-0.08-1.13 0h-1.84-1.53-1.87-1.39-1.79c-0.56 0-1.12 0.01-1.68 0-0.06 0-0.11 0.01-0.16-0.01-0.05-0.01 0.17 0.01 0.13 0-0.43-0.05-0.87 0.06-1.29 0.06-0.45-0.06-0.35-0.02-0.76-0.19-0.06-0.03-0.24-0.09-0.18-0.1 0.16-0.03 0.32 0.03 0.48 0.04 0.11 0.02-0.43-0.02-0.32 0-0.37 0.04-0.72 0.07-1.09-0.01-0.08-0.02-0.15-0.05-0.23-0.07-0.04-0.01-0.15-0.02-0.12-0.03 0.09-0.04 0.18-0.02 0.27-0.03-0.25 0.01-0.5 0.03-0.75 0.02-0.39-0.02-0.71-0.2-1.08-0.27-0.19-0.04-0.39-0.07-0.59-0.09-0.22-0.03-0.44-0.05-0.66-0.07l0.3-1.88z"/>
        <path id="path3262" style="fill-rule:evenodd;fill:#5653e6" d="m368.29 584.49c0.68 0.27 1.49 0.18 2.15 0.51 0.18 0.09 0.33 0.21 0.48 0.34 0.08 0.08 0.31 0.33 0.21 0.27-0.16-0.1-0.28-0.26-0.42-0.39-0.1-0.01-0.38 0.01-0.29-0.02 0.19-0.05 0.39-0.04 0.59-0.06 0.58-0.04 1.15-0.05 1.73-0.01 0.98-0.07 1.93 0.12 2.89 0.26 0.11-0.17 0 0.02-0.46 0.02-0.06 0 0.11-0.03 0.16-0.05 0.37-0.08 0.71-0.06 1.09-0.05 0.3 0.04 0.61-0.04 0.91 0.01 0.63 0.08 0.53 0.15 1.11 0.22 0.15 0.02 0.3 0.02 0.46 0.02 0.7-0.03 1.41-0.09 2.11-0.06 0.89 0.01 1.78 0 2.66 0h1.7 0.94 0.16c-0.66 0.07-0.63 0.12-0.21-0.17 0.84-0.55 1.63-0.12 2.51-0.18-0.16 0.01-0.31 0.05-0.47 0.04-0.04-0.01 0.08-0.05 0.12-0.07 0.11-0.06 0.22-0.12 0.34-0.16 0.41-0.13 0.8-0.06 1.22 0 0.99-0.15-0.94 0.51-0.43 0.13 0.15-0.11 0.3-0.21 0.46-0.31 0.03-0.02 0.06-0.03 0.1-0.04 0.44-0.22 0.85-0.23 1.34-0.21 0.08 0 0.16 0.03 0.24 0.04 0.06 0 0.21 0 0.16 0.01-0.18 0.02-0.36 0.02-0.55 0.03 0.54-0.22 0.24-0.12 0.9-0.26l0.53 1.82c-0.29-0.01-0.15-0.03-0.41 0.04-0.31 0.07-0.61 0.16-0.92 0.21-0.07 0.01-0.14-0.02-0.21-0.03-0.05 0-0.18 0.01-0.14-0.01 0.06-0.02 0.44-0.03 0.09-0.05-0.09 0.05-0.19 0.2-0.28 0.14-0.07-0.04 0.12-0.13 0.18-0.2 0.03-0.04-0.06 0.09-0.1 0.11-0.73 0.37-0.85 0.5-1.49 0.4-0.06-0.01-0.25 0.02-0.2-0.03 0.06-0.05 0.16 0.02 0.23 0 0.06-0.01 0.15-0.15 0.1-0.13-0.08 0.03-0.15 0.1-0.23 0.15-0.29 0.08-0.58 0.16-0.88 0.25-0.23-0.01-0.73-0.01-0.94-0.1-0.03-0.02 0.1 0.01 0.11-0.02 0.03-0.06-0.19-0.08-0.17-0.11-0.77 0.51-1.25 0.63-1.8 0.58h-1.7c-1.1 0-2.2 0.02-3.3-0.01-0.28 0-1.62 0.1-2.21 0.05-0.21-0.03-0.42-0.04-0.63-0.07-0.27-0.04-0.53-0.13-0.8-0.15-0.32-0.03-0.64 0.01-0.95-0.02 0.03 0 0.13 0.01 0.1 0-0.35-0.12-0.72 0.14-1.09 0.03-0.17-0.02-0.76-0.12-0.86-0.14-0.08-0.01-0.16-0.06-0.25-0.06-0.54-0.03-1.08 0.03-1.62-0.01-0.51-0.02-1.41 0-2.08 0.08-0.24-0.14-0.48-0.29-0.73-0.42-0.03-0.02 0.04 0.06 0.07 0.08 0.02 0.01 0.07 0.01 0.05 0-0.63-0.18-1.28-0.27-1.92-0.42l0.54-1.82z"/>
        <path id="path3274" style="fill-rule:evenodd;fill:#e9c47d" d="m302.88 668.5l36.57 26.29 32.13-12.9s0.2-12.89-0.3-12.89c-0.51 0-36.67 10.78-36.67 10.78l-31.02-11.08-0.71-0.2z"/>
        <path id="path3276" style="fill-rule:evenodd;fill:#1a1a1a" d="m318.52 671.41l17.29 6.3-1.1 2.04-21.12-7.47 4.93-0.87z"/>
      </g>
    </g>
  </g>
</svg>