<?xml version="1.0" encoding="utf-8"?>
<svg width="86" height="380" viewBox="202.715 584.407 86.5933 380.048" preserveAspectRatio="xMidYMid meet" xmlns="http://www.w3.org/2000/svg">
  <defs id="svgEditorDefs">
    <path id="svgEditorClosePathDefs" fill="moccasin" style="stroke-width: 0px; stroke: none; fill-opacity: 1;" class="shirt"/>
  </defs>
  <rect id="svgEditorBackground" x="202.71499633789062" y="584.4310302734375" width="86.59329986572266" height="115.80899810791016" style="fill: none; stroke: none;" class="shirt"/>
  <g transform="matrix(0.508584, 0, 0, 0.543249, 213.831299, 664.964661)">
    <g id="layer2">
      <path id="path3297" style="stroke-linejoin:round;stroke:#000000;stroke-width:4;fill:#ff0000" d="m106.71 28.014c-4.89 0-8.792 3.967-8.792 8.858v10.402c2.067 1.021 4.412 1.61 6.842 1.61 8.87 0 16.04-7.573 16.04-16.911 0-1.362-0.18-2.69-0.47-3.959h-13.62z"/>
      <path id="path2278" style="stroke-linejoin:round;stroke:#000000;stroke-width:6;fill:#ffff0e" d="m80 11.237c-13.043 0-23.622 10.888-23.622 24.293 0 7.731 3.51 14.61 8.993 19.058-3.244-0.338-6.563-0.537-9.932-0.537-4.863 0-9.605 0.451-14.227 1.141-3.885-8.127-12.934-15.106-20.41-17.24-10.119 11.161-12.098 22.857-12.002 33.283 0.1115 12.123 3.619 21.561 8.589 28.855 11.516 6.47 25.352 10.26 40.197 10.26 12.481 0 24.224-2.68 34.493-7.38 6.567-7.886 10.541-17.98 10.541-28.988 0-7.858-2.02-15.23-5.575-21.675 4.065-4.363 6.575-10.263 6.575-16.777 0-13.405-10.577-24.293-23.62-24.293z"/>
      <path id="path3307" style="stroke-linejoin:round;stroke:#000000;stroke-width:2;fill:#050505" d="m43.13 14.642a2.4668 2.5464 0 1 1 -4.934 0 2.4668 2.5464 0 1 1 4.934 0z" transform="matrix(1.6225 0 0 1.5047 19.96 6.8349)"/>
    </g>
  </g>
</svg>