<svg class="shirtOverlay" width="86" height="380" viewBox="202.715 584.407 86.593 380.048" xmlns="http://www.w3.org/2000/svg"><path class="shirtOverlay" fill="none" d="M202.715 584.431h86.593V700.24h-86.593z"/><g transform="matrix(.15124 0 0 .15124 216.114 678.636)"><path d="M159.91 201.46c46.575 34.697 81.758 46.493 113.89 40.593 32.136-5.896 43.344-20.908 51.146-43.534 7.796-22.623-3.806-55.9-3.806-55.9l3.648 1.54c.02.054 8.407 20.434 8.079 43.782-.328 23.455-13.369 56.591-48.773 68.401-29.503 9.84-60.632-2.016-84.554-14.339-23.979-12.357-40.692-27.127-40.738-27.167l1.1-13.37" fill="#D1D3D4"/><path clip-path="url(#XMLID_33_)" fill="#FFF" d="M267.18 234.33h15.846v35.684H267.18z"/><g clip-path="url(#XMLID_34_)"><path fill="#6D6F71" clip-path="url(#XMLID_35_)" d="M268.33 319.54l-2.27-.4 42.45-240.697 2.26.399"/><path fill="#808284" clip-path="url(#XMLID_35_)" d="M270.59 319.94l-2.26-.4 42.44-240.698 2.26.398"/><path fill="#939598" clip-path="url(#XMLID_35_)" d="M272.85 320.34l-2.26-.4 42.44-240.7 2.27.4"/><path fill="#A7A9AC" clip-path="url(#XMLID_35_)" d="M275.12 320.74l-2.27-.4 42.45-240.7 2.26.401"/><path fill="#BCBEC0" clip-path="url(#XMLID_35_)" d="M277.38 321.14l-2.26-.4 42.44-240.699 2.26.397"/><path fill="#D1D3D4" clip-path="url(#XMLID_35_)" d="M279.64 321.54l-2.26-.4 42.44-240.702 2.27.399"/></g><g clip-path="url(#XMLID_36_)"><path fill="#6D6F71" clip-path="url(#XMLID_37_)" d="M300.27 80.451l2.26.398-42.44 240.701-2.27-.4"/><path fill="#808284" clip-path="url(#XMLID_37_)" d="M298.01 80.053l2.26.398-42.45 240.699-2.26-.4"/><path fill="#939598" clip-path="url(#XMLID_37_)" d="M295.74 79.654l2.27.399-42.45 240.697-2.26-.4"/><path fill="#A7A9AC" clip-path="url(#XMLID_37_)" d="M293.48 79.256l2.26.398L253.3 320.35l-2.26-.4"/><path fill="#BCBEC0" clip-path="url(#XMLID_37_)" d="M291.22 78.854l2.26.402-42.44 240.694-2.27-.4"/><path fill="#D1D3D4" clip-path="url(#XMLID_37_)" d="M288.95 78.456l2.27.398-42.45 240.696-2.26-.4"/></g><g clip-path="url(#XMLID_38_)"><path fill="#6D6F71" clip-path="url(#XMLID_39_)" d="M168.22 256.28l-2.26-.4L208.4 15.178l2.26.399"/><path fill="#808284" clip-path="url(#XMLID_39_)" d="M170.48 256.67l-2.26-.39 42.44-240.703 2.26.402"/><path fill="#939598" clip-path="url(#XMLID_39_)" d="M172.74 257.07l-2.26-.4 42.44-240.691 2.26.396"/><path fill="#A7A9AC" clip-path="url(#XMLID_39_)" d="M175 257.47l-2.26-.4 42.44-240.695 2.26.4"/><path fill="#BCBEC0" clip-path="url(#XMLID_39_)" d="M177.26 257.87l-2.26-.4 42.44-240.695 2.26.399"/><path fill="#D1D3D4" clip-path="url(#XMLID_39_)" d="M179.52 258.27l-2.26-.4L219.7 17.174l2.26.398"/></g><g clip-path="url(#XMLID_40_)"><path clip-path="url(#XMLID_41_)" fill="#939598" d="M331.26 19.305h2.297v244.41h-2.297z"/><path clip-path="url(#XMLID_41_)" fill="#A7A9AC" d="M328.96 19.305h2.299v244.41h-2.299z"/><path clip-path="url(#XMLID_41_)" fill="#BCBEC0" d="M326.66 19.305h2.297v244.41h-2.297z"/><path clip-path="url(#XMLID_41_)" fill="#D1D3D4" d="M324.36 19.305h2.297v244.41h-2.297z"/></g><path stroke="#000" stroke-width="1.629" stroke-miterlimit="3.864" d="M159.91 201.46c46.575 34.697 81.758 46.493 113.89 40.593 32.136-5.896 43.344-20.908 51.146-43.534 7.796-22.623-3.806-55.9-3.806-55.9l3.648 1.54c.02.054 8.407 20.434 8.079 43.782-.328 23.455-13.369 56.591-48.773 68.401-29.503 9.84-60.632-2.016-84.554-14.339-23.979-12.357-40.692-27.127-40.738-27.167l1.1-13.37z" fill="none"/><circle cy="285.6" cx="51.187" r="44.454"/><circle r="44.454" cy="285.6" stroke="#000" cx="51.187" stroke-miterlimit="3.864" stroke-width="1.629" fill="none"/><circle cy="283.97" cx="51.188" r="40.898" fill="#FFF"/><circle r="40.898" cy="283.97" stroke="#000" cx="51.188" stroke-miterlimit="3.864" stroke-width="1.498" fill="none"/><path fill="#E7E7E8" clip-path="url(#XMLID_42_)" d="M62.786 230.13l2.025-1.37 43.719 64.81-2.03 1.37"/><path fill="#E3E4E5" clip-path="url(#XMLID_42_)" d="M60.76 231.49l2.026-1.36 43.714 64.81-2.02 1.36"/><path fill="#E1E2E3" clip-path="url(#XMLID_42_)" d="M58.732 232.86l2.028-1.37 43.72 64.81-2.03 1.37"/><path fill="#DEDFE1" clip-path="url(#XMLID_42_)" d="M56.708 234.22l2.024-1.36 43.718 64.81-2.03 1.36"/><path fill="#DBDCDD" clip-path="url(#XMLID_42_)" d="M54.683 235.59l2.025-1.37 43.712 64.81-2.023 1.37"/><path fill="#D9DADB" clip-path="url(#XMLID_42_)" d="M52.658 236.96l2.025-1.37 43.714 64.81-2.024 1.37"/><path fill="#D6D7D9" clip-path="url(#XMLID_42_)" d="M50.633 238.32l2.025-1.36 43.715 64.81-2.025 1.36"/><path fill="#D4D5D6" clip-path="url(#XMLID_42_)" d="M48.608 239.69l2.025-1.37 43.715 64.81-2.025 1.37"/><path fill="#D0D2D3" clip-path="url(#XMLID_42_)" d="M46.583 241.05l2.025-1.36 43.715 64.81-2.025 1.36"/><path fill="#CECFD1" clip-path="url(#XMLID_42_)" d="M44.557 242.42l2.026-1.37 43.715 64.81-2.026 1.37"/><path fill="#CBCDCF" clip-path="url(#XMLID_42_)" d="M42.532 243.79l2.025-1.37 43.715 64.81-2.024 1.37"/><path fill="#C8CACB" clip-path="url(#XMLID_42_)" d="M40.508 245.15l2.024-1.36 43.716 64.81-2.026 1.36"/><path fill="#C5C7C9" clip-path="url(#XMLID_42_)" d="M38.479 246.52l2.029-1.37 43.714 64.81-2.025 1.37"/><path fill="#C3C5C7" clip-path="url(#XMLID_42_)" d="M36.455 247.89l2.024-1.37 43.718 64.81-2.024 1.37"/><path fill="#C0C1C3" clip-path="url(#XMLID_42_)" d="M34.43 249.25l2.025-1.36 43.718 64.81-2.028 1.36"/><path fill="#BDBFC1" clip-path="url(#XMLID_42_)" d="M32.404 250.62l2.026-1.37 43.715 64.81-2.026 1.37"/><path fill="#BBBCBF" clip-path="url(#XMLID_42_)" d="M30.379 251.98l2.025-1.36 43.715 64.81-2.025 1.37"/><path fill="#B8BABC" clip-path="url(#XMLID_42_)" d="M28.354 253.35l2.025-1.37 43.715 64.82-2.025 1.36"/><path fill="#B5B7B9" clip-path="url(#XMLID_42_)" d="M26.33 254.72l2.024-1.37 43.715 64.81-2.025 1.36"/><path fill="#B2B4B7" clip-path="url(#XMLID_42_)" d="M24.305 256.08l2.025-1.36 43.714 64.8-2.025 1.37"/><path fill="#B0B2B4" clip-path="url(#XMLID_42_)" d="M22.278 257.45l2.027-1.37 43.714 64.81-2.024 1.37"/><path fill="#ADAFB1" clip-path="url(#XMLID_42_)" d="M20.254 258.81l2.024-1.36 43.717 64.81-2.025 1.36"/><path fill="#AAACAF" clip-path="url(#XMLID_42_)" d="M18.229 260.18l2.025-1.37 43.716 64.81-2.027 1.37"/><path fill="#A8AAAC" clip-path="url(#XMLID_42_)" d="M16.201 261.54l2.028-1.36 43.714 64.81-2.024 1.37"/><path fill="#A5A7A9" clip-path="url(#XMLID_42_)" d="M14.176 262.91l2.025-1.37 43.718 64.82-2.025 1.36"/><path fill="#A2A4A7" clip-path="url(#XMLID_42_)" d="M12.151 264.28l2.025-1.37 43.718 64.81-2.027 1.37"/><path fill="#A0A2A5" clip-path="url(#XMLID_42_)" d="M10.126 265.65l2.025-1.37 43.716 64.81-2.027 1.37"/><path fill="#9DA0A2" clip-path="url(#XMLID_42_)" d="M8.101 267.01l2.025-1.36 43.714 64.81-2.024 1.36"/><path fill="#9A9D9F" clip-path="url(#XMLID_42_)" d="M6.076 268.38l2.025-1.37 43.715 64.81-2.025 1.37"/><path fill="#989A9D" clip-path="url(#XMLID_42_)" d="M4.051 269.74l2.025-1.36 43.715 64.81-2.025 1.36"/><path fill="#96989B" clip-path="url(#XMLID_42_)" d="M2.026 271.11l2.025-1.37 43.715 64.81-2.025 1.37"/><path fill="#939598" clip-path="url(#XMLID_42_)" d="M0 272.48l2.026-1.37 43.715 64.81-2.025 1.36"/><circle r="39.087" cy="283.02" stroke="#000" cx="54.261" stroke-miterlimit="3.864" stroke-width="1.498" fill="none"/><circle cy="278.4" cx="53.629" r="29.553" fill="#FFF"/><circle r="29.553" cy="278.4" stroke="#000" cx="53.629" stroke-miterlimit="3.864" stroke-width="1.629" fill="none"/><g><path fill="#939598" clip-path="url(#XMLID_43_)" d="M41.242 312.85l-2.319.89-19.581-51 2.32-.89"/><path fill="#989A9D" clip-path="url(#XMLID_43_)" d="M43.56 311.96l-2.318.89-19.58-51 2.317-.89"/><path fill="#9D9FA1" clip-path="url(#XMLID_43_)" d="M45.879 311.07l-2.319.89-19.581-51 2.32-.89"/><path fill="#A1A3A6" clip-path="url(#XMLID_43_)" d="M48.197 310.18l-2.318.89-19.58-51 2.318-.9"/><path fill="#A6A8AB" clip-path="url(#XMLID_43_)" d="M50.517 309.29l-2.32.89-19.58-51.01 2.319-.89"/><path fill="#ABADB0" clip-path="url(#XMLID_43_)" d="M52.833 308.4l-2.316.89-19.581-51.01 2.319-.88"/><path fill="#B0B2B4" clip-path="url(#XMLID_43_)" d="M55.154 307.51l-2.321.89-19.578-51 2.318-.9"/><path fill="#B5B7B9" clip-path="url(#XMLID_43_)" d="M57.471 306.62l-2.317.89-19.581-51.01 2.32-.89"/><path fill="#BABCBE" clip-path="url(#XMLID_43_)" d="M59.791 305.73l-2.32.89-19.578-51.01 2.317-.89"/><path fill="#BFC1C3" clip-path="url(#XMLID_43_)" d="M62.108 304.84l-2.317.89-19.581-51.01 2.32-.89"/><path fill="#C4C5C8" clip-path="url(#XMLID_43_)" d="M64.426 303.95l-2.318.89-19.578-51.01 2.318-.88"/><path fill="#C9CACC" clip-path="url(#XMLID_43_)" d="M66.746 303.06l-2.32.89-19.578-51 2.319-.9"/><path fill="#CECFD1" clip-path="url(#XMLID_43_)" d="M69.063 302.17l-2.317.89-19.579-51.01 2.317-.89"/><path fill="#D4D5D6" clip-path="url(#XMLID_43_)" d="M71.383 301.28l-2.32.89-19.579-51.01 2.32-.89"/><path fill="#D8D9DA" clip-path="url(#XMLID_43_)" d="M73.701 300.39l-2.318.89-19.579-51.01 2.317-.89"/><path fill="#DDDFE0" clip-path="url(#XMLID_43_)" d="M76.02 299.5l-2.319.89-19.58-51.01 2.32-.89"/><path fill="#E2E3E4" clip-path="url(#XMLID_43_)" d="M78.337 298.61l-2.317.89-19.579-51.01 2.317-.89"/><path fill="#E7E8E9" clip-path="url(#XMLID_43_)" d="M80.657 297.72l-2.32.89-19.579-51.01 2.32-.89"/><path fill="#EDEDEE" clip-path="url(#XMLID_43_)" d="M82.974 296.83l-2.317.89-19.579-51.01 2.32-.88"/><path fill="#F2F2F3" clip-path="url(#XMLID_43_)" d="M85.294 295.94l-2.32.89-19.576-51 2.316-.9"/><path fill="#F7F7F8" clip-path="url(#XMLID_43_)" d="M87.614 295.05l-2.32.89-19.58-51.01 2.319-.89"/><path fill="#FFF" clip-path="url(#XMLID_43_)" d="M89.931 294.16l-2.317.89-19.581-51.01 2.318-.88"/></g><circle r="27.31" cy="278.46" stroke="#000" cx="54.642" stroke-miterlimit="3.864" stroke-width="1.629" fill="none"/><g><path fill="#E7E7E8" d="M79.287 278.4c0 14.165-11.498 25.658-25.659 25.658-14.162 0-25.657-11.493-25.657-25.658 0-14.162 11.495-25.656 25.657-25.656 14.161 0 25.659 11.5 25.659 25.66m2.724-.1c0-15.651-12.704-28.356-28.357-28.356-15.654 0-28.359 12.705-28.359 28.356 0 15.654 12.705 28.359 28.359 28.359 15.653 0 28.357-12.7 28.357-28.36" clip-path="url(#XMLID_44_)"/><path fill="#D9DBDC" d="M76.585 278.4c0 12.674-10.286 22.958-22.957 22.958-12.673 0-22.957-10.284-22.957-22.958 0-12.67 10.283-22.956 22.957-22.956 12.671 0 22.957 10.29 22.957 22.96m2.726-.1c0-14.162-11.495-25.655-25.657-25.655-14.164 0-25.659 11.493-25.659 25.655 0 14.165 11.495 25.658 25.659 25.658 14.162 0 25.657-11.49 25.657-25.66" clip-path="url(#XMLID_44_)"/><path fill="#CDCED0" d="M73.884 278.4c0 11.182-9.076 20.258-20.256 20.258-11.183 0-20.259-9.076-20.259-20.258s9.076-20.254 20.259-20.254c11.18-.01 20.256 9.07 20.256 20.25m2.726.05c0-12.673-10.285-22.958-22.957-22.958-12.673 0-22.958 10.285-22.958 22.958s10.285 22.955 22.958 22.955c12.673.01 22.957-10.28 22.957-22.95" clip-path="url(#XMLID_44_)"/><path fill="#C0C2C4" d="M71.183 278.4c0 9.69-7.865 17.558-17.555 17.558-9.692 0-17.557-7.867-17.557-17.558 0-9.689 7.865-17.554 17.557-17.554 9.69-.01 17.555 7.86 17.555 17.55m2.725.05c0-11.184-9.076-20.258-20.254-20.258-11.183 0-20.257 9.074-20.257 20.258 0 11.179 9.074 20.255 20.257 20.255 11.179.01 20.254-9.07 20.254-20.25" clip-path="url(#XMLID_44_)"/><path fill="#B3B5B7" d="M68.482 278.4c0 8.201-6.655 14.854-14.854 14.854-8.202 0-14.856-6.653-14.856-14.854 0-8.198 6.654-14.854 14.856-14.854 8.199-.01 14.854 6.65 14.854 14.85m2.726.05c0-9.69-7.866-17.555-17.554-17.555-9.69 0-17.556 7.864-17.556 17.555 0 9.689 7.866 17.555 17.556 17.555 9.688-.01 17.554-7.88 17.554-17.57" clip-path="url(#XMLID_44_)"/><path fill="#A7A9AC" d="M65.781 278.4c0 6.71-5.446 12.154-12.153 12.154-6.708 0-12.156-5.444-12.156-12.154 0-6.708 5.447-12.15 12.156-12.15 6.707 0 12.153 5.44 12.153 12.15m2.578.05c0-8.2-6.655-14.854-14.854-14.854s-14.854 6.654-14.854 14.854c0 8.198 6.655 14.854 14.854 14.854 8.199.01 14.854-6.65 14.854-14.85" clip-path="url(#XMLID_44_)"/><path fill="#9B9DA0" d="M63.08 278.4c0 5.22-4.235 9.453-9.452 9.453-5.218 0-9.454-4.233-9.454-9.453 0-5.217 4.236-9.45 9.454-9.45 5.216 0 9.452 4.23 9.452 9.45m2.726.05c0-6.709-5.443-12.154-12.152-12.154s-12.153 5.444-12.153 12.154c0 6.709 5.444 12.153 12.153 12.153 6.708 0 12.152-5.44 12.152-12.15" clip-path="url(#XMLID_44_)"/><path fill="#8F9194" d="M60.379 278.4a6.756 6.756 0 0 1-6.751 6.753 6.756 6.756 0 0 1-6.753-6.753 6.753 6.753 0 0 1 13.504 0m2.726.05c0-5.22-4.233-9.453-9.452-9.453-5.22 0-9.453 4.233-9.453 9.453 0 5.217 4.233 9.45 9.453 9.45 5.219 0 9.452-4.23 9.452-9.45" clip-path="url(#XMLID_44_)"/><path fill="#848688" d="M57.679 278.4a4.053 4.053 0 0 1-4.051 4.052 4.053 4.053 0 0 1-4.052-4.052 4.054 4.054 0 0 1 4.052-4.051 4.05 4.05 0 0 1 4.051 4.05m2.725.05a6.754 6.754 0 0 0-6.75-6.753 6.752 6.752 0 1 0 6.75 6.753" clip-path="url(#XMLID_44_)"/><path fill="#797A7D" d="M54.977 278.4c0 .748-.604 1.349-1.349 1.349a1.349 1.349 0 1 1 0-2.7c.746 0 1.349.6 1.349 1.35m2.726-.1a4.051 4.051 0 0 0-8.1 0 4.049 4.049 0 1 0 8.1.002" clip-path="url(#XMLID_44_)"/><path fill="#6D6F71" d="M55.002 278.3c0-.744-.604-1.351-1.349-1.351a1.352 1.352 0 0 0 0 2.703c.745 0 1.349-.6 1.349-1.35" clip-path="url(#XMLID_44_)"/></g><circle r="23.643" cy="278.4" stroke="#000" cx="53.628" stroke-miterlimit="3.864" stroke-width="1.629" fill="none"/><g><path clip-path="url(#XMLID_45_)" d="M51.529 305.49l2.276.69-8.591 28.1-2.277-.69"/><path fill="#4F5051" clip-path="url(#XMLID_45_)" d="M49.253 304.79l2.276.7-8.592 28.1-2.276-.7"/><path fill="#717375" clip-path="url(#XMLID_45_)" d="M46.979 304.09l2.274.7-8.592 28.1-2.275-.69"/><path fill="#8F9194" clip-path="url(#XMLID_45_)" d="M44.701 303.4l2.278.69-8.593 28.11-2.277-.7"/><path fill="#AFB1B4" clip-path="url(#XMLID_45_)" d="M42.426 302.7l2.275.7-8.592 28.1-2.274-.7"/><path fill="#D1D3D4" clip-path="url(#XMLID_45_)" d="M40.151 302.01l2.275.69-8.591 28.1-2.275-.69"/></g><path stroke="#000" stroke-miterlimit="3.864" stroke-width="1.6289348399999999" fill="none" d="M31.713 329.562l9.634-27.179 12.276 4.351-9.635 27.18z"/><path d="M145.21 22.162s10.14.641 12.064 14.307c1.923 13.666-.962 13.344-.962 13.344s-11.426 6.265-29.575 8.857c-4.487.642-8.856-8.657-10.137-12.383-1.283-3.726-3.088-9.177 1.602-12.062 4.69-2.886 15.59-8.857 27.01-12.063" fill="#FFF"/><g><path d="M142.01 23.791s10.085.642 12.009 14.308c1.924 13.662-.96 13.342-.96 13.342" clip-path="url(#XMLID_46_)" stroke="#000" stroke-miterlimit="3.864" stroke-width="1.629" fill="none"/></g><path stroke="#000" stroke-width="1.629" stroke-miterlimit="3.864" d="M145.21 22.162s10.14.641 12.064 14.307c1.923 13.666-.962 13.344-.962 13.344s-11.426 6.265-29.575 8.857c-4.487.642-8.856-8.657-10.137-12.383-1.283-3.726-3.088-9.177 1.602-12.062 4.69-2.886 15.59-8.857 27.01-12.063z" fill="none"/><path d="M320.92 135.97c.021.054 8.434 20.434 8.104 43.782-.328 23.454-9.524 50.132-44.929 61.944-29.503 9.839-61.04-.28-84.963-12.605-23.979-12.353-40.693-27.122-40.736-27.162l2.218-2.426s4.104 3.625 11.152 8.769c29.853 21.791 73.52 42.924 111.26 30.335 42.788-14.273 48.17-52.531 38.862-88.679-2.004-7.781-4.046-12.73-4.046-12.73l3.09-1.22"/><path d="M114.68 41.279c2.124 0-26.368 8.856-35.868 34.264-7.837 20.966 25.574 91.267 116.1 186.28l7.729-12.161c-90.53-95.01-122.55-154.16-112.41-174.12 10.138-19.958 31.698-23.166 29.575-23.166 0 0 2.003-3.646.841-7.05-1.16-3.404-5.96-4.045-5.96-4.045" fill="#D1D3D4"/><g><path fill="#FFF" d="M98.431 130.7s37.343 68.543 95.686 124.03l2.822-3.989s-52.66-46.97-98.509-120.04" clip-path="url(#XMLID_47_)"/></g><path stroke="#000" stroke-width="1.629" stroke-miterlimit="3.864" d="M114.68 41.279c2.124 0-26.368 8.856-35.868 34.264-7.837 20.966 25.574 91.267 116.1 186.28l7.729-12.161c-90.53-95.01-122.55-154.16-112.41-174.12 10.138-19.958 31.698-23.166 29.575-23.166 0 0 2.003-3.646.841-7.05-1.16-3.404-5.96-4.045-5.96-4.045z" fill="none"/><path d="M48.085 335.32c-.342 1.036-15.839 48.519-15.839 64.939 0 24.125 10.895 58.587 35.777 73.44 43.027 25.688 67.275-62.993 163.64 18.145 14.013 11.796 32.647 29.854 49.233 37.338 28.852 13.014 65.159.498 75.952-18.935 22.047-39.69 12.32-73.465 6.729-87.723-4.896-12.492-39.118-76.37-50.594-97.691-21.963 6.001-49.863-1.144-80.407-23.373-16.092-11.716-31.818-25.838-44.839-40.979 0 0 2.746-8.329 6.94-11.428 3.414-2.524 10.326-3.453 10.326-3.453 3.808 4.419 69.505 77.139 107.97 54.767 39.781-23.135 21.62-109.23 20.674-113.29 0 0 6.276-5.027 11.102-5.967 4.262-.829 11.101.81 11.101.81s5.972 25.635 5.521 54.999c-.562 36.542-10.991 62.934-28.199 77.34a6363.338 6363.338 0 0 1 21.297 39.894c29.644 56.04 58.903 101.26 22.302 167.16-17.513 31.53-67.502 45.674-105.25 28.644-41.3-18.635-79.915-83.544-128.54-67.95-28.802 9.238-54.94 30.189-86.64 11.262-34.72-20.73-46.875-65.04-46.875-93 0-17.925 10.997-53.925 16.985-72.08 0 0 7.928-.972 12.518.714 4.086 1.5 9.127 6.43 9.127 6.43z"/><path stroke="#000" stroke-width="1.629" stroke-miterlimit="3.864" d="M48.085 335.32c-.342 1.036-15.839 48.519-15.839 64.939 0 24.125 10.895 58.587 35.777 73.44 43.027 25.688 67.275-62.993 163.64 18.145 14.013 11.796 32.647 29.854 49.233 37.338 28.852 13.014 65.159.498 75.952-18.935 22.047-39.69 12.32-73.465 6.729-87.723-4.896-12.492-39.118-76.37-50.594-97.691-21.963 6.001-49.863-1.144-80.407-23.373-16.092-11.716-31.818-25.838-44.839-40.979 0 0 2.746-8.329 6.94-11.428 3.414-2.524 10.326-3.453 10.326-3.453 3.808 4.419 69.505 77.139 107.97 54.767 39.781-23.135 21.62-109.23 20.674-113.29 0 0 6.276-5.027 11.102-5.967 4.262-.829 11.101.81 11.101.81s5.972 25.635 5.521 54.999c-.562 36.542-10.991 62.934-28.199 77.34a6363.338 6363.338 0 0 1 21.297 39.894c29.644 56.04 58.903 101.26 22.302 167.16-17.513 31.53-67.502 45.674-105.25 28.644-41.3-18.635-79.915-83.544-128.54-67.95-28.802 9.238-54.94 30.189-86.64 11.262-34.72-20.73-46.875-65.04-46.875-93 0-17.925 10.997-53.925 16.985-72.08 0 0 7.928-.972 12.518.714 4.086 1.5 9.127 6.43 9.127 6.43z" fill="none"/><path d="M46.9 476.7s7.273 12.357 26.613 16.414c10.764 2.258 24.353 1.13 24.353 1.13s-16.96-2.068-27.178-5.649c-9.789-3.42-23.788-11.89-23.788-11.89M361.17 524.25c18.671-16.414 20.402-45.285 20.402-45.285s7.872 24.354-14.753 48.141c-22.624 23.789-47.544 15.283-47.544 15.283s21.7-.39 41.89-18.13M258.1 309.65s19.27 14.155 48.706 10.768c0 0-1.691-3.355-15.278-3.955-13.59-.598-19.84-4.552-22.661-5.681-2.82-1.13-10.77-1.13-10.77-1.13" fill="#FFF"/><path d="M147.33 200.33l19.116 23.604s1.923-9.99 12.102-3.204l-19.2-21.838s-7.41-6.7-12.02 1.44z" fill="#BCBEC0"/><path stroke="#000" stroke-width="1.629" stroke-miterlimit="3.864" d="M147.33 200.33l19.116 23.604s1.923-9.99 12.102-3.204l-19.2-21.838s-7.41-6.7-12.02 1.44z" fill="none"/><path d="M352.35 185.98l-13.067 5.173c-42.27-143.58-87.5-175.36-94.2-178.22-6.697-2.87-46.983 6.246-46.983 6.246l-6.219-11.941s32.715-7.286 41.914-6.33 16.849 0 25.093 9.2c8.244 9.199 43.967 37.709 77.186 127.37 8.39 22.62 13.91 39.27 16.28 48.5z" fill="#D1D3D4"/><path stroke="#000" stroke-width="1.629" stroke-miterlimit="3.864" d="M352.35 185.98l-13.067 5.173c-42.27-143.58-87.5-175.36-94.2-178.22-6.697-2.87-46.983 6.246-46.983 6.246l-6.219-11.941s32.715-7.286 41.914-6.33 16.849 0 25.093 9.2c8.244 9.199 43.967 37.709 77.186 127.37 8.39 22.62 13.91 39.27 16.28 48.5z" fill="none"/><path d="M331.19 171.72c2.526-18.468 11.899-19.48 11.899-19.48l-9.654-26.608s-14.147-8.813-14.988 12.18l12.74 33.91z" fill="#BCBEC0"/><path stroke="#000" stroke-width="1.629" stroke-miterlimit="3.864" d="M331.19 171.72c2.526-18.468 11.899-19.48 11.899-19.48l-9.654-26.608s-14.147-8.813-14.988 12.18l12.74 33.91z" fill="none"/><path d="M253.62 16.472s17.384 10.288 29.403 30.017c12.017 19.732 25.376 47.791 25.376 47.791s-26.082-45.615-34.713-57.126c-5.03-6.706-20.07-20.682-20.07-20.682M203.6 25.689c-2.886 3.848-20.596 14.949-27.331 16.55-6.731 1.604-9.817-2.565-11.743-6.09-1.923-3.528-5.017-16.77 2.247-21.239 13.023-8.016 27.65-10.581 27.65-10.581s12.69 3.327 9.17 21.36" fill="#FFF"/><g><ellipse clip-path="url(#XMLID_48_)" rx="10.039" cy="28.196" ry="14.568" stroke="#000" cx="171.04" stroke-miterlimit="3.864" stroke-width="1.629" fill="none"/></g><path stroke="#000" stroke-width="1.629" stroke-miterlimit="3.864" d="M203.6 25.689c-2.886 3.848-20.596 14.949-27.331 16.55-6.731 1.604-9.817-2.565-11.743-6.09-1.923-3.528-5.017-16.77 2.247-21.239 13.023-8.016 27.65-10.581 27.65-10.581s12.69 3.327 9.17 21.36z" fill="none"/><path d="M169.01 28.196c0-2.979 1.267-5.393 2.828-5.393 1.559 0 2.825 2.414 2.825 5.393 0 2.975-1.266 5.389-2.825 5.389-1.56-.001-2.83-2.415-2.83-5.389z"/><path stroke="#000" stroke-width="1.629" stroke-miterlimit="3.864" d="M169.01 28.196c0-2.979 1.267-5.393 2.828-5.393 1.559 0 2.825 2.414 2.825 5.393 0 2.975-1.266 5.389-2.825 5.389-1.56-.001-2.83-2.415-2.83-5.389z" fill="none"/></g></svg>