<svg class="hairPieces" width="86" height="380" viewBox="202.715 584.407 105 380.048" xmlns="http://www.w3.org/2000/svg"><defs><linearGradient id="g" y2="453.08" gradientUnits="userSpaceOnUse" x2="-485" gradientTransform="matrix(.85616 0 0 .85619 572.56 608.04)" y1="378.79" x1="-530"><stop offset="0" stop-color="#fff"/><stop offset="1" stop-color="#fff"/></linearGradient><linearGradient id="b" y2="348.08" gradientUnits="userSpaceOnUse" x2="-559.29" gradientTransform="matrix(.85616 0 0 .85619 572.56 608.04)" y1="363.08" x1="-631.43"><stop offset="0" stop-color="#dc0000"/><stop offset="1" stop-color="#ff4141"/></linearGradient><radialGradient id="c" gradientUnits="userSpaceOnUse" cy="415.38" cx="-450.02" gradientTransform="matrix(-.01209 -.30645 .98436 -.03884 -227.06 848.9)" r="97.129"><stop offset="0" stop-color="#f60"/><stop offset="1" stop-color="#dc0000"/></radialGradient><radialGradient id="f" gradientUnits="userSpaceOnUse" cy="324.24" cx="-551.79" gradientTransform="matrix(.4919 .57168 -1.3085 1.126 795.85 816.97)" r="23"><stop offset="0" stop-color="#f60"/><stop offset="1" stop-color="#f60"/></radialGradient><linearGradient id="d" y2="943.47" gradientUnits="userSpaceOnUse" x2="109.6" y1="869.22" x1="77.075"><stop offset="0" stop-color="#f60"/><stop offset="1" stop-color="#dc0000"/></linearGradient><linearGradient id="a" y2="863.56" gradientUnits="userSpaceOnUse" x2="97.581" gradientTransform="translate(-2.828 1.414)" y1="859.32" x1="96.874"><stop offset="0" stop-color="#ff4141"/><stop offset="1" stop-color="#b50000"/></linearGradient><linearGradient id="e" y2="894.32" gradientUnits="userSpaceOnUse" x2="70.357" gradientTransform="matrix(.95101 0 0 1.0149 3.268 -14.34)" y1="885.84" x1="64.7"><stop offset="0" stop-color="#b50000"/><stop offset="1" stop-color="#f60"/></linearGradient></defs><g transform="matrix(.46425 0 0 .46425 199.019 559.222)"><path d="M85.883 866.14s-.586-2.99 0-3.825c.615-.876 1.97-.887 3.02-1.093 3.707-.724 7.62-1.173 11.325-.437 1.54.306 3.374.685 4.278 1.968.548.777.252 2.841.252 2.841-6.15 1.416-12.313 2.722-18.874.546z" stroke="#e85555" stroke-width=".257" fill="url(#a)" transform="translate(0 -802.36)"/><path d="M62.53 961.1c48.465 50.078 42.438 46.091 63.601 48.314 40.281 4.23 37.811-21.87 97.236-34.248 19.165-3.992-17.051-9.401-44.031-32.413-44.299-7.503-45.993 16.365-116.81 18.347z" fill="url(#b)" transform="translate(0 -802.36)"/><path d="M28.284 961.72l36.081-.612c26.241-1.051 34.888-3.538 48.924-6.115-3.3 3.586 16.164-14.182 64.824-13.454 2.089.03-1.36-34.833-17.735-52.595-18.359-19.914-40.309-28.172-54.305-25.441-7.074 1.38-17.435-.234-23.85 1.223-14.804 3.363-37.914 15.918-47.211 30.945-3.85 6.224-3.097 16.144-4.892 23.239-1.869 7.384-4.197 14.432-4.893 22.016-.635 6.929 3.058 20.793 3.058 20.793z" fill="url(#b)" transform="translate(0 -802.36)"/><path d="M63.944 961.46c48.465 50.078 41.024 45.738 62.187 47.96 40.281 4.23 37.811-21.87 97.236-34.248 19.165-3.992-17.051-9.401-44.031-32.413-44.299-7.503-44.579 16.719-115.39 18.7z" stroke="#641919" stroke-width=".086" fill="url(#c)" transform="translate(0 -802.36)"/><path d="M28.284 961.72l36.081-.612c26.241-1.051 34.888-3.538 48.924-6.115-3.3 3.586 16.164-13.121 64.824-12.394 2.089.03-1.36-35.893-17.735-53.655-18.359-19.914-41.37-26.404-54.305-25.441-7.187.535-17.435-.234-23.85 1.223-14.804 3.363-37.914 15.918-47.211 30.945-3.85 6.224-3.097 16.144-4.892 23.239-1.869 7.384-4.197 14.432-4.893 22.016-.635 6.929 3.058 20.793 3.058 20.793z" fill="url(#d)" transform="translate(0 -802.36)"/><path style="block-progression:tb;text-indent:0;text-transform:none" d="M91.865 865.27l-.025.027-.128.109.51.679.126-.109 1.807-1.466-.483-.706zm-3.41 2.906l-.56.516.535.651.56-.488 1.323-1.14-.51-.68zm-4.02 3.693h-.025l-.23.217.56.652.23-.217 1.603-1.494-.535-.652zm-2.137 2.064h-.025l-1.654 1.71.56.625 1.653-1.684.026-.027.076-.081-.56-.625zm-4.25 4.453l-.025.027-.84.978.586.597.865-.977v-.027l.814-.87-.585-.624zm-3.892 4.698v.027l-.204.272.662.516.178-.245v-.027l1.374-1.71-.636-.57zm-1.68 2.417l-.737 1.168-.586 1.004.687.462.586-.978v-.027l.712-1.14h.025v-.027l-.203-.136-.127-.109-.331-.244h-.026zm-2.544 4.67v.028l-.89 2.254.737.326.89-2.227v-.027l.052-.109-.738-.38zm-1.908 5.242v.027l-.535 2.01.79.244.533-2.01.153-.461-.763-.3zm-1.272 6.463v.027l-.051.787.814.055.05-.76v-.028l.23-1.792-.815-.109zm-.051 3.449v.19l.127 1.656.102.788.814-.109-.102-.76v-.027l-.127-1.603v-.163zm.661 5.24l.484 2.553.788-.19-.483-2.553zm.942 5.106l.127.95v.027l.178 1.575.814-.108-.178-1.575v-.027l-.153-.978zm.483 7.712h.814l-.05-2.607h-.815zm.102 5.214h.814l-.05-2.607h-.815zm.076 3.34v.027l.025 1.847h.815l-.026-1.874-.025-.733h-.814zm.102 7.088h.814l-.05-2.607h-.815zm.076 5.214h.814l-.05-2.607h-.815zm.051 5.214h.814l-.025-2.607h-.814zm.05 5.213h.815l-.025-2.606h-.814zm.052 5.214h.814l-.025-2.607h-.815z" color="#000" fill="url(#e)" transform="translate(0 -802.36)"/><path style="block-progression:tb;text-indent:0;text-transform:none" d="M98.78 865.33l.615.535.803.75.589-.643-.83-.749-.615-.535zm3.264 3.05l1.445 1.445.348.375.615-.589-.348-.401-1.471-1.445zm3.532 3.693l.936 1.016.776.883.642-.562-.776-.883v-.026l-.936-1.017zm3.344 3.852l.963 1.178.642.83.67-.51-.643-.855-.963-1.178zm3.13 4.067l1.285 1.766v.027l.187.267.722-.454-.187-.295-.027-.026-1.284-1.793zm2.89 4.201l.08.134.027.026 1.23 2.034.723-.455-1.23-2.033v-.027h-.027l-.08-.134zm2.595 4.415l.67 1.23v.027l.508.99.776-.374-.509-1.017h-.027l-.668-1.284zm2.248 4.548l.856 2.034.027.026.107.295.802-.295-.133-.348-.857-2.033zm1.926 4.763l.134.267.776 2.114.803-.294-.776-2.114h-.027l-.107-.294zm1.793 4.79l.883 2.434.802-.294-.883-2.435zm1.712 4.842l.856 2.435.803-.295-.83-2.434zm1.712 4.843l.535 1.552h-.026l.32.882.804-.267-.295-.91-.535-1.525zm1.632 4.87l.83 2.434.803-.267-.803-2.435zm1.66 4.869l.16.508.642 1.927.803-.268-.643-1.926-.16-.509zm1.605 4.87l.802 2.434.803-.267-.803-2.435zm1.578 4.896l.803 2.435.803-.268-.776-2.435zm1.605 4.87l.268.882v.027l.508 1.552.803-.268-.482-1.552-.294-.91zm1.552 4.896l.776 2.435.83-.241-.776-2.462z" color="#000" fill="url(#f)" transform="translate(0 -802.36)"/><path d="M162.82 1000.9c-3.674 2.283-7.187 4.607-13.096 6.332-11.327-5.087-24.152-35.494-37.051-51.588 0 0 7.706-31.747-6.115-56.876-4.232-16.841-20.072-23.727-34.266-30.941 1.195-1.18 1.418-.685 4.911-1.701 0 0 22.596 10.099 29.354 16.742 24.878 24.454 21.373 68.104 18.958 68.495-3.62.587 35.267 50.555 37.304 49.537z" opacity=".941" fill="url(#g)" transform="translate(0 -802.36)"/><path d="M174.7 189.32l-7.987 6.406c-7.658-6.31-24.621-31.899-37.521-47.993 0 0 5.87-28.689-7.95-53.818-11.178-21.085-19.632-21.777-41.203-31.19 3.745-.838 2.895.55 6.64.45 0 0 20.533 8.292 27.29 14.935 24.879 24.454 24.976 65.562 22.56 65.953-3.619.587 36.133 46.275 38.17 45.256z" opacity=".941" fill="#fff"/><path d="M112.67 153.24l12.847-5.714 4.894-1.714 6.73-1.142" stroke="#b99b9b" stroke-dasharray=".248,.248" stroke-width=".248" fill="none"/></g></svg>