<?xml version="1.0" encoding="utf-8"?>
<svg id="woman" width="86" height="380" viewBox="202.715 584.407 86.5933 380.048" preserveAspectRatio="xMidYMid meet" xmlns="http://www.w3.org/2000/svg" xmlns:xlink="http://www.w3.org/1999/xlink">
  <defs id="svgEditorDefs">
    <path id="svgEditorClosePathDefs" class="lines" fill="black" style="stroke-width: 0px; stroke: none;"/>
    <pattern id="pattern4359" patternTransform="matrix(2.8174 0 0 2.8174 -3.9063e-7 -.000023438)" undefined="undefined" xlink:href="#pattern4347"/>
    <pattern id="pattern4350" patternTransform="matrix(.29409 0 0 .29409 -3.9063e-7 .000017754)" undefined="undefined" xlink:href="#pattern4338"/>
    <pattern id="pattern4341" patternTransform="matrix(.60417 0 0 .60417 .000049609 .000011836)" undefined="undefined" xlink:href="#pattern4329"/>
    <pattern id="pattern4323" patternTransform="translate(1024 446.51)" xlink:href="#pattern4078"/>
    <pattern id="pattern4078" width="129.79595" patternUnits="userSpaceOnUse" patternTransform="translate(834.11 482.88)" height="226.4174">
      <path id="path4076" style="fill-rule:evenodd;stroke:#053fa0;stroke-width:4;fill:#ffed00" d="m21.601 52.341s24.286-61.429 58.572-48.572c34.287 12.858 62.857 54.286 38.567 77.143-24.282 22.858-94.282 104.29-112.85 71.428-18.575-32.86 34.283-81.428 55.711-71.428 21.429 10 65.719-28.571 64.289 39.998-1.43 68.57-37.146 128.57-54.289 92.86s-48.571-158.57-50-161.43z"/>
    </pattern>
    <pattern id="pattern4329" width="193.9493" patternUnits="userSpaceOnUse" patternTransform="translate(1004.1 440.81)" height="232.11729">
      <g id="g4325" transform="translate(-1004.1 -440.81)">
        <rect id="rect4321" style="fill-rule:evenodd;fill:#ffffff" height="231.73" width="193.95" y="440.81" x="1004.1"/>
        <rect id="rect4081" style="fill:url(#pattern4323)" height="226.42" width="129.8" y="446.51" x="1024"/>
      </g>
    </pattern>
    <pattern id="pattern4338" width="117.1777" patternUnits="userSpaceOnUse" patternTransform="translate(979.85 512.49)" height="140.23753">
      <rect id="rect4334" style="fill:url(#pattern4341)" height="140.24" width="117.18" y="0" x="0"/>
    </pattern>
    <pattern id="pattern4347" width="34.460896" patternUnits="userSpaceOnUse" patternTransform="translate(979.85 611.48)" height="41.242584">
      <rect id="rect4343" style="fill:url(#pattern4350)" height="41.243" width="34.461" y="0" x="0"/>
    </pattern>
    <pattern id="pattern4356" width="97.090355" patternUnits="userSpaceOnUse" patternTransform="translate(979.85 536.53)" height="116.19713">
      <rect id="rect4352" style="fill:url(#pattern4359)" height="116.2" width="97.09" y="0" x="0"/>
    </pattern>
    <radialGradient id="gradient-21" gradientUnits="userSpaceOnUse" cx="255.999" cy="515.664" r="55.476">
      <stop offset="0" style="stop-color: rgba(138, 88, 47, 1)"/>
      <stop offset="1" style="stop-color: rgba(62, 40, 21, 1)"/>
    </radialGradient>
    <radialGradient id="gradient-22" gradientUnits="userSpaceOnUse" cx="253.538" cy="521.892" r="35.998">
      <stop offset="0" style="stop-color: rgba(138, 88, 47, 1)"/>
      <stop offset="1" style="stop-color: rgba(62, 40, 21, 1)"/>
    </radialGradient>
    <radialGradient id="gradient-23" gradientUnits="userSpaceOnUse" cx="234.145" cy="523.965" r="12.658">
      <stop offset="0" style="stop-color: rgba(138, 88, 47, 1)"/>
      <stop offset="1" style="stop-color: rgba(62, 40, 21, 1)"/>
    </radialGradient>
  </defs>
  <g transform="matrix(0.134489, 0, 0, 0.134489, 202.714981, 586.638977)">
    <g id="layer1" transform="translate(-38.254 -179.35)">
      <g id="g9835" transform="matrix(5.5071 0 0 5.5071 -1052 -2439.7)">
        <path id="path575" d="m219.81 506.7c0.17-0.77-1.18 10.41-0.92 7.99 1.71-9.5 0.99-19.79 4.82-28.83 0.95-1.99 2.17-3.26 3.73-3.17 22.19 0.69 45.07-22.3 61.71 28.81 51.31 24.02 3.57 43.31-37.05 41.6-40.14-1.68-74.42-30.62-32.29-46.4z" style="stroke-linejoin: round; fill-rule: evenodd; fill-opacity: 0.99167; stroke: rgb(0, 0, 0); stroke-width: 2.38; fill: url(#gradient-21);"/>
        <path id="path576" d="m218.77 513.56c25.65 16.12 67.95 6.18 69.69-1.71 2.42 2.74 0 10.29 0 10.29-11.1 14.41-64.84 11.32-70.73 1.03-0.69-2.75 0.69-8.58 1.04-9.61z" style="fill-rule: evenodd; stroke: rgb(0, 0, 0); stroke-width: 1.19; fill: url(#gradient-22);"/>
        <path id="path590" d="m223.82 516.53c4.16 2.06 16.1 5.16 20.95 5.5 3.47 2.41 1.74 6.63 0.35 9.37-9.36 0-20.11-2.4-22.88-5.49-1.74-3.09-0.15-6.29 1.58-9.38z" style="fill-rule: evenodd; stroke: rgb(0, 0, 0); stroke-width: 0.44704pt; fill-opacity: 0.31667; fill: url(#gradient-23);"/>
      </g>
    </g>
  </g>
</svg>