<svg class="pants" width="86" height="380" viewBox="202.715 584.407 86.5933 380.048" preserveAspectRatio="xMidYMax" xmlns="http://www.w3.org/2000/svg"> <defs id="svgEditorDefs"> <path id="svgEditorClosePathDefs" class="skin" class="clothes" fill="black" style="stroke-width: 0px; stroke: none;"/> </defs> <path d="M214.66531372070312,768.85302734375c1.2782465385533328,11.91083753217606,22.03371125380957,25.990569084709023,31.604202270507812,24.65130615234375c9.570491016698298,-1.3392629323652727,24.359016657508334,-16.826113539882726,24.019180297851562,-28.44378662109375c17.990595669908146,6.712758948353894,-48.0524550236745,-11.910860241956584,-55.623382568359375,3.79248046875Z" id="e37_area3" class="clothes" class="clothes" fill="silver" style="stroke: none; stroke-width: 0px;"/> <path d="M 230.122 750.726 C 188.707 767.366 230.632 826.412 227.404 853.777 C 247.027 856.648 251.19 848.193 260.312 852.35 C 245.537 837.926 252.391 803.702 239.313 787.112 C 251.155 800.764 257.49 823.476 261.866 829.382 C 266.242 835.288 256.433 858.605 265.678 856.509 C 277.82 859.913 263.082 860.618 280.28 856.463 C 285.142 825.335 284.717 834.894 284.001 817.774 C 269.73 788.438 279.587 785.391 267.501 761.723 C 259.762 758.674 239.665 772.826 230.122 750.726 Z" id="e2_area3" class="clothes" fill="black" style="stroke: none; stroke-width: 0px;"/></svg>