<svg class="shirt" width="86" height="380" viewBox="202.715 584.407 86.5933 380.048" preserveAspectRatio="xMidYMid meet" xmlns="http://www.w3.org/2000/svg">
 <defs id="svgEditorDefs">
  <path id="svgEditorClosePathDefs" class="skin" fill="black" style="stroke-width: 0px; stroke: none;" class="clothes" />
 </defs>
 <path d="M 219.13 783.615 C 222.463 777.523 239.555 745.442 233.907 737.92 C 228.258 730.398 212.084 703.513 211.008 673.349 C 209.926 643.185 277.459 693.922 281.117 693.926 C 284.784 693.931 258.992 736.045 261.28 738.984 C 263.572 741.925 262.749 737.857 265.04 751.978 C 267.337 766.099 266.946 763.322 266.977 766.097 C 267.008 768.872 279.799 770.012 278.184 780.825 C 264.275 792.601 277.565 817.622 258.637 806.541 C 239.706 795.46 258.609 810.393 219.13 783.615 Z" id="path-1" class="skin" style="stroke: none; stroke-width: 0px; fill: rgb(255, 0, 0);" transform="matrix(-0.999542, 0.030274, -0.030274, -0.999542, 514.654955, 1465.287216)" class="clothes" />
</svg>