<svg class="shirt" xmlns="http://www.w3.org/2000/svg" width="86" height="380" viewBox="202.715 584.407 86.5933 380.048" preserveAspectRatio="xMidYMax" xmlns:xlink="http://www.w3.org/1999/xlink"><defs id="svgEditorDefs"><path id="svgEditorClosePathDefs" fill="black" style="stroke-width: 0px; stroke: none;" class="clothes" /></defs><path d="M231.51259393835142,657.8595841129164c12.2541186535191,-3.669447789489709,15.749501702100503,-3.1539934285680147,28.86681758008524,-0.6873545778818198c17.24114718975511,22.398490190909342,24.267617462317162,28.969019474366746,24.055673082761018,28.17955375378483c1.8499712763288017,6.770891684329968,-9.503539340620478,39.3768337497595,-8.247645636353923,32.30330704321182c-5.617158482017317,-0.20047452026381052,-12.913781502269671,6.275497954175989,-13.746124267578125,3.4365234375c-0.8323427653084536,-2.8389745166759894,0.03002471660397532,-15.197294576822515,1.3746337890625,-13.74609375c1.3446090724585247,1.4512008268225145,-1.6754182592098914,43.64363477218296,-4.811139312131559,30.928762952395346c-7.946857583320366,-0.3433778844769222,-31.146551370871606,2.4362293325948485,-26.80490643433066,-1.3745987613539228c0.9051188433990944,-5.185438531205591,2.9341932989911186,-14.56253202515802,2.7492244573997198,-17.869960089478923c-0.1849688415913988,-3.307428064320902,-6.442546484651217,-10.827097913395733,-6.185760498046875,-10.3095703125c0.25678598660434204,0.5175276008957326,5.392936811721768,13.790003487630202,2.061920166015625,15.1207275390625c-3.3310166457061428,1.3307240514322984,-10.727368421098163,0.16453993974334935,-13.746105425902897,0.6872961983673349c-2.3314317861762675,4.646587570394445,-8.114035596930364,-25.8371671686358,-7.560352093628353,-35.052591608523585c0.5536835033020395,-9.215424439887784,11.114256376385782,-10.76392356938436,21.99376459264829,-31.616001824583577Z" id="e4_area3" fill="red" style="stroke: none; stroke-width: 0px;" class="clothes" /></svg>