<?xml version="1.0" encoding="utf-8"?>
<svg class="pants" width="86" height="380" viewBox="202.71499633789062 584.406982421875 86.58999633789062 380.0480041503906" preserveAspectRatio="xMidYMid meet" xmlns="http://www.w3.org/2000/svg">
  <defs id="svgEditorDefs">
    <path id="svgEditorClosePathDefs" class="lines" fill="black" style="stroke-width: 0px; stroke: none;"/>
  </defs>
  <path d="M 223.018 756.348 C 218.577 758.667 221.796 762.012 219.846 763.962 C 213.582 770.226 214.135 783.972 214.135 792.513 C 214.135 797.478 204.056 825.578 207.156 828.678 C 210.681 832.203 218.4 834.212 221.749 837.561 C 225.973 841.785 224.573 850.536 227.459 853.423 C 228.051 854.014 239.196 854.217 247.763 847.713 C 248.825 846.907 269.245 844.451 269.969 845.175 C 270.937 846.143 283.933 827.415 289.003 832.485 C 289.792 833.274 288.369 826.386 288.369 822.968 C 288.369 817.445 288.003 810.547 285.196 807.741 C 278.618 801.162 280.774 783.65 274.41 777.286 C 272.668 775.544 276.314 769.038 276.314 769.038 C 276.314 769.038 269.335 762.816 264.894 755.714" style="stroke: rgb(0, 0, 0); fill: rgb(216, 216, 216);"/>
</svg>