<?xml version="1.0" encoding="utf-8"?>
<svg class="shirt" width="86" height="380" viewBox="202.715 584.407 86.5933 380.048" preserveAspectRatio="xMidYMax" xmlns="http://www.w3.org/2000/svg">
  <defs id="svgEditorDefs">
    <path id="svgEditorClosePathDefs" fill="red" style="stroke-width: 0px; stroke: none;"/>
  </defs>
  <polygon class="clothes" id="e1_polygon" style="stroke-width: 0px; stroke: none;" points="210.359 632.026 244.611 653.366 274.672 632.623 264.639 664.123 281.686 686.039 274.813 720.404 277.562 755.457 285.122 763.705 285.122 762.33 269.314 766.454 261.754 731.401 262.441 718.342 262.441 719.03 257.63 733.463 260.379 739.649 274.813 767.828 283.061 776.076 287.872 787.76 248.695 887.42 218.454 804.255 217.079 765.766 233.575 737.587 235.636 726.59 232.2 713.531 227.389 707.346 231.513 723.841 232.2 730.714 224.64 766.454 219.828 765.079 208.144 767.828 208.832 767.828 218.454 748.584 218.454 747.897 219.141 730.027 209.519 689.476 225.327 663.358" fill="red" transform=""/>
</svg>