<svg class="shirt" width="86" height="380" viewBox="202.715 584.407 86.5933 380.048" preserveAspectRatio="xMidYMax" xmlns="http://www.w3.org/2000/svg">
  <defs id="svgEditorDefs">
    <path id="svgEditorClosePathDefs" fill="black" style="stroke-width: 0px; stroke: none;" class="clothes"/>
  </defs>
  <polygon id="e1_polygon" style="stroke-width: 0px; stroke: none;" points="234.262 657.86 246.633 660.609 258.318 658.547 280.999 679.853 281.686 686.039 274.813 720.404 277.562 755.457 285.122 763.705 285.122 762.33 268.627 762.33 261.754 731.401 262.441 718.342 262.441 719.03 257.63 733.463 260.379 739.649 273.438 767.141 276.875 780.2 278.249 786.386 228.763 792.571 212.955 792.571 217.079 765.766 233.575 737.587 235.636 726.59 232.2 713.531 227.389 707.346 231.513 723.841 232.2 730.714 224.64 766.454 219.828 765.079 208.144 767.828 208.832 767.828 218.454 748.584 218.454 747.897 219.141 730.027 209.519 689.476 215.705 679.853" fill="red" class="clothes"/>
</svg>