<?xml version="1.0" encoding="utf-8"?>
<svg class="glasses" width="86" height="380" viewBox="202.715 584.407 86.5933 380.048" preserveAspectRatio="xMidYMax" xmlns="http://www.w3.org/2000/svg">
  <defs id="svgEditorDefs">
    <path id="svgEditorClosePathDefs" class="clothes" fill="black" style="stroke-width: 0px; stroke: none;"/>
    <pattern id="pattern-0" x="0" y="0" width="20" height="20" patternUnits="userSpaceOnUse" viewBox="0 0 100 100">
      <path d="M 0 0 L 50 0 L 50 100 L 0 100 Z" style="fill: black;"/>
    </pattern>
  </defs>
  <path d="M 224.17 777.496 C 210.366 779.828 222.105 744.169 209.414 774.692 C 208.091 777.874 212.866 806.989 215.588 815.501 C 219.18 826.734 222.393 834.692 226.008 845.537 C 226.527 847.092 226.945 853.829 227.847 854.731 C 228.695 855.579 232.03 848.71 232.751 847.989 C 235.441 845.299 241.856 842.038 243.785 838.181 C 245.797 834.157 246.423 828.918 248.075 824.695 C 250.835 817.642 249.588 812.722 248.076 811.21 C 239.565 802.699 255.528 774.334 259.109 770.753 C 261.489 768.373 260.31 761.583 264.013 757.881 L 263.4 757.268" style="stroke: rgb(0, 0, 0); fill: rgb(216, 216, 216);"/>
  <path d="M 213.749 767.075 C 213.749 778.933 213.353 799.049 218.04 809.984 C 220.098 814.786 222.598 820.326 224.782 824.695 C 225.171 825.473 229.849 829.436 229.073 830.212 C 228.709 830.576 226.077 815.975 227.847 812.436 C 234.503 799.124 245.418 784.037 252.366 770.14 C 253.124 768.626 261.561 759.107 261.561 759.107 C 261.561 759.107 251.699 764.677 250.527 765.849 C 240.373 776.004 212.523 791.83 212.523 768.301" style="stroke: rgb(0, 0, 0); fill: rgb(216, 216, 216);"/>
  <path d="M 373.737 795.885 L 373.737 795.885" style="stroke: rgb(0, 0, 0); fill: rgb(216, 216, 216);"/>
</svg>