<?xml version="1.0" encoding="utf-8"?><svg class="shirt" width="86" height="380" viewBox="202.715 584.407 86.5933 380.048" preserveAspectRatio="xMidYMid meet" xmlns="http://www.w3.org/2000/svg"> <defs id="svgEditorDefs"> <path id="svgEditorClosePathDefs" fill="moccasin" style="stroke-width: 0px; stroke: none; fill-opacity: 1;" class="shirt"/> </defs> <rect id="svgEditorBackground" x="202.71499633789062" y="584.4310302734375" width="86.59329986572266" height="115.80899810791016" style="fill: none; stroke: none;" class="shirt"/> <polygon id="e6_polygon" style="stroke: none; stroke-width: 0px;" points="221.89 684.725 212.955 700.004 211.581 749.913 212.955 749.913 215.017 694.911" fill="black" class="shirt"/> <polygon id="e7_polygon" style="stroke: none; stroke-width: 0px;" points="276.463 752.052 272.504 750.647 271.101 687.404 271.816 687.404 272.889 741.951" fill="black" transform="matrix(-1, 0, 0, -1, 547.564033, 1439.45605)" class="shirt"/> <g transform="matrix(0.99938, 0.035204, -0.061664, 1.750514, 180.211166, 531.28833)"> <polygon stroke="black" id="polygon-1" points="38.156 78.428 39.477 149.163 105.131 148.66 105.443 143.443 100.486 76.295 79.304 70.276 70.75 115.183 59.987 70.846" style="stroke-width: 0; stroke-opacity: 0; fill: rgb(255, 0, 0);" class="shirt"/> <rect x="68.992" y="107.212" stroke="black" id="e5_rectangle" width="3.085" height="40.575" style="stroke-width: 0; stroke-opacity: 0; fill: rgb(255, 0, 0);" class="shirt"/> <polygon stroke="black" id="polygon-2" points="59.242 71.425 47.599 92.815 62.762 99.313 62.762 107.707 68.719 106.894 73.322 107.165 77.925 108.248 77.383 97.688 90.109 92.273 89.838 92.544 79.279 71.154 71.426 106.353 69.531 106.353" style="stroke-width: 0; stroke-opacity: 0; fill: rgb(255, 0, 0);" class="shirt"/> <circle id="e7_circle" cx="57.665" cy="84.313" stroke="black" r="2.511" transform="matrix(1.000003, 0, 0, 1, 22.020321, 27.863701)" style="stroke-width: 0; stroke-opacity: 0; fill: rgb(255, 0, 0);" class="shirt"/> <circle id="e8_circle" cx="52.219" cy="84.507" stroke="black" r="2.577" transform="matrix(0.999873, -0.015869, 0.015872, 0.999876, 25.589551, 36.223096)" style="stroke-width: 0; stroke-opacity: 0; fill: rgb(255, 0, 0);" class="shirt"/> <circle id="e1_circle" cx="36.875" cy="93.924" stroke="black" r="2.577" transform="matrix(0.999874, -0.015868, 0.015871, 0.999876, 25.589611, 36.223228)" style="stroke-width: 0; stroke-opacity: 0; fill: rgb(255, 0, 0);" class="shirt"/> <circle id="e2_circle" cx="37.215" cy="104.673" stroke="black" r="2.577" transform="matrix(0.999874, -0.015868, 0.015871, 0.999873, 25.589619, 36.223515)" style="stroke-width: 0; stroke-opacity: 0; fill: rgb(255, 0, 0);" class="shirt"/> </g></svg>