<svg class="shirt" width="86" height="380" viewBox="202.715 584.407 86.5933 380.048" preserveAspectRatio="xMidYMid meet" xmlns="http://www.w3.org/2000/svg"> <defs id="svgEditorDefs"> <path id="svgEditorClosePathDefs" fill="moccasin" style="stroke-width: 0px; stroke: none; fill-opacity: 1;" class="clothes" /> </defs> <rect id="svgEditorBackground" x="202.71499633789062" y="584.4310302734375" width="86.59329986572266" height="115.80899810791016" style="fill: none; stroke: none;" class="clothes" /> <polygon id="e7_polygon" style="stroke: none; stroke-width: 0px;" points="254.828 683.96 247.215 684.916 244.518 727.947 245.893 727.947 247.955 690.833" fill="black" transform="matrix(-0.52 0 0 1.46972 403.612 -317.826)" class="clothes" /> <polygon id="e2_polygon" style="stroke-width: 0px; stroke: none;" points="238.386 653.06 204.02 670.242 201.958 701.858 211.581 701.858 212.268 688.112 208.832 792.583 278.937 793.957 280.312 765.778 280.312 697.734 289.246 699.109 291.308 676.428 288.559 675.741 259.005 654.434" fill="red" class="clothes" /> <rect transform="matrix(0.998387, 0.056753, -0.056754, 0.998389, -168.981584, 572.374657)" x="375.516" y="76.81" width="12.97" height="64.923" style="fill: rgb(43, 255, 0); stroke-width: 0;" class="clothes" /> <rect transform="matrix(0.998988, -0.044969, 0.044969, 0.998989, -100.664373, 619.10861)" x="375.516" y="71.945" width="12.97" height="60.811" style="fill: rgb(68, 255, 0); stroke-width: 0;" class="clothes" /></svg>