<?xml version="1.0" encoding="utf-8"?>
<svg class="shirt" width="86" height="380" viewBox="202.715 584.407 86.5933 380.048" preserveAspectRatio="xMidYMax" xmlns="http://www.w3.org/2000/svg">
  <defs id="svgEditorDefs">
    <path id="svgEditorClosePathDefs" fill="red" style="stroke-width: 0px; stroke: none;" class="clothes"/>
  </defs>
  <rect id="svgEditorBackground" x="202.71499633789062" y="584.4310302734375" width="86.59329986572266" height="115.80899810791016" style="fill: none; stroke: none;" class="clothes"/>
  <rect id="rect-1" x="-403.988" y="499.579" width="1300" height="550" style="fill: none; stroke: none;" class="clothes"/>
  <polygon id="e1_polygon" style="stroke-width: 0px; stroke: none;" points="239.073 683.29 251.445 672.98 270.689 666.107 276.187 674.355 281.686 686.039 274.813 720.404 277.562 755.457 285.122 763.705 285.122 762.33 269.314 766.454 261.754 731.401 262.441 718.342 262.441 719.03 257.63 733.463 260.379 739.649 274.813 767.828 282.373 780.887 289.934 787.76 206.082 798.07 217.079 782.261 217.079 765.766 233.575 737.587 235.636 726.59 232.2 713.531 227.389 707.346 231.513 723.841 232.2 730.714 224.64 766.454 219.828 765.079 208.144 767.828 208.832 767.828 218.454 748.584 218.454 747.897 219.141 730.027 209.519 689.476 221.89 690.85" fill="red" class="clothes"/>
  <g transform="matrix(0.08017, 0, 0, 0.08017, 234.193314, 695.532959)">
    <g id="layer1" transform="translate(-224.86 -215.06)">
      <g id="g2095">
        <g id="g2067">
          <g id="g1385">
            <path id="path2116" style="stroke:#000000;stroke-width:6;fill:#ffffff" d="m389.29 458.79a82.5 54.286 0 1 1 -165 0 82.5 54.286 0 1 1 165 0z" transform="translate(110.36 18.571)"/>
            <path id="path2114" style="stroke:#000000;stroke-width:6;fill:#ffffff" d="m389.29 458.79a82.5 54.286 0 1 1 -165 0 82.5 54.286 0 1 1 165 0z" transform="translate(111.43 -12.857)"/>
            <path id="path1291" style="fill-rule:evenodd;stroke:#000000;stroke-width:6;fill:#ffffff" d="m412.84 218.06c-98.57 0-178.56 53.76-178.56 120 0 21.09 8.17 40.9 22.41 58.13-12.06 9.58-19.53 22.89-19.53 37.59 0 29.18 29.41 52.88 65.68 52.88 27.66 0 51.31-13.81 61-33.28 15.6 2.99 31.99 4.68 49 4.68 98.58 0 178.6-53.76 178.6-120s-80.02-120-178.6-120z"/>
            <path id="path2055" style="stroke:#000000;stroke-width:6;fill:#ffffff" d="m-380 456.65a95.714 104.29 0 1 1 -191.43 0 95.714 104.29 0 1 1 191.43 0z" transform="matrix(.53674 0 0 .49413 659.62 128.15)"/>
            <path id="path2059" style="stroke:#000000;stroke-width:2.5902;fill:#000000" d="m451.62 355.22c-4.28 23.85-19.28 43.21-43.05 43.21-23.76 0-37.34-29.36-37.34-53.21s12.15-36.78 35.91-36.78c30.2 5.71 36.63 17.21 44.48 46.78z"/>
            <g id="g2065">
              <path id="path2057" style="stroke:#000000;stroke-width:6;fill:#ffffff" d="m-380 456.65a95.714 104.29 0 1 1 -191.43 0 95.714 104.29 0 1 1 191.43 0z" transform="matrix(.34837 0 0 -.38773 438.58 497.99)"/>
              <path id="path2062" style="stroke:#000000;stroke-width:6;fill:#000000" d="m-369.92 456.65c0 57.56-42.88 112.83-95.71 112.83-52.84 0-85.63-36.04-105.8-112.83 12.61-70.38 42.88-91.47 95.72-104.29 52.83 0 105.79 46.72 105.79 104.29z" transform="matrix(.28336 0 0 -.33439 409.8 475.06)"/>
            </g>
            <path id="path2092" style="stroke:#000000;stroke-width:6.17;fill:#ffffff" d="m422.5 273.93c-26.07 0-47.93 10.67-55.64 25.33 10.67-9.31 28.01-15.44 47.74-15.44 32.47 0 58.85 16.43 58.85 36.69 0 3.99-1.31 7.77-3.2 11.36 6.89-6.01 11.06-13.3 11.06-21.25 0-20.25-26.34-36.69-58.81-36.69z"/>
            <path id="path2097" style="stroke:#000000;stroke-width:6;fill:#ffffff" d="m269.99 255.94c-23.27 0-42.13 15.21-42.13 33.94 0 4.35 1.11 8.45 2.97 12.28 0.61-18.3 19.16-33 42.03-33 17.86 0 33.02 8.98 39.16 21.62 0.01-0.31 0.12-0.59 0.12-0.9 0-18.73-18.89-33.94-42.15-33.94z"/>
            <path id="path2104" style="fill:#000000" d="m321.43 415.22c0 16.95-1.52-9.29-17.14-12.86-14.2 0-17.15 29.1-17.15 12.15 0-16.96 2.24-20 19.29-35.72 13.48 17.14 15 19.48 15 36.43z"/>
            <path id="path2109" style="stroke:#000000;stroke-width:6;fill:#ffffff" d="m448.47 391.7c-3.91 3.12-6.34 6.59-6.34 10.31 0 12.82 26.08 23.22 58.22 23.22 30.36 0 55.31-9.29 57.97-21.12-9.56 7.61-29.08 12.9-51.88 12.9-32.13 0-58.22-10.4-58.22-23.22 0-0.7 0.1-1.4 0.25-2.09z"/>
            <path id="path2118" style="stroke:#000000;stroke-width:6;fill:#ffffff" d="m262.86 454.86a13.571 13.214 0 1 1 -27.15 0 13.571 13.214 0 1 1 27.15 0z"/>
            <path id="path2120" style="stroke:#000000;stroke-width:6;fill:#ffffff" d="m262.86 454.86a13.571 13.214 0 1 1 -27.15 0 13.571 13.214 0 1 1 27.15 0z" transform="translate(23.571 16.071)"/>
            <path id="path2122" style="stroke:#000000;stroke-width:6;fill:#ffffff" d="m262.86 454.86a13.571 13.214 0 1 1 -27.15 0 13.571 13.214 0 1 1 27.15 0z" transform="translate(50.714 22.5)"/>
            <path id="path2124" style="stroke:#000000;stroke-width:6;fill:#ffffff" d="m262.86 454.86a13.571 13.214 0 1 1 -27.15 0 13.571 13.214 0 1 1 27.15 0z" transform="translate(78.571 19.643)"/>
          </g>
          <path id="path1317" style="fill-rule:evenodd;fill:#999999" d="m549.18 279.84c-18.98-15.15-42.1-20.54-61.9-16.43 15.67 0.56 32.12 6.37 46.28 17.67 30.81 24.59 39.06 65.57 18.4 91.46-7.99 10-19.15 16.23-31.59 18.77 18.53 0.72 36-5.96 47.21-20.02 20.66-25.88 12.42-66.86-18.4-91.45z"/>
          <path id="path2080" style="fill:#999999" d="m315.31 248.08c-8.03 0-14.97 4.47-18.77 11.06 3.72-2.98 8.33-4.83 13.42-4.83 12.05 0 21.87 9.96 21.87 22.25 0 4.09-1.17 7.89-3.06 11.19 5.06-4.08 8.36-10.34 8.36-17.42 0-12.29-9.77-22.25-21.82-22.25z"/>
        </g>
        <path id="path2088" style="fill:#999999" d="m485.74 485.07c-6.15 7.99-20.26 15.78-37.84 19.84-10.67 2.47-20.74 3.07-29.12 2.24 2.09 7.27 19.46 9.52 39.18 4.96 19.98-4.62 34.8-14.46 33.07-21.95-0.5-2.17-2.45-3.83-5.29-5.09z"/>
        <path id="path2093" style="fill:#999999" d="m483.63 452.66c-6.16 8-20.26 15.78-37.85 19.84-10.67 2.47-20.74 3.08-29.12 2.24 2.1 7.28 19.46 9.52 39.19 4.96 19.98-4.61 34.79-14.45 33.06-21.94-0.5-2.17-2.44-3.84-5.28-5.1z"/>
      </g>
    </g>
  </g>
  <g transform="matrix(0.117558, 0, 0, 0.112712, 206.529083, 681.171265)">
    <g id="g-1" transform="matrix(0.993114, 0.122196, -0.112329, 0.993114, 76.98381, -368.481415)">
      <path id="path3004" d="m 579.33572,941.01652 c -5.79466,-5.4153 -10.53573,-11.0456 -10.53573,-12.5118 0,-1.4661 -1.56886,-3.7645 -3.48636,-5.1076 -3.23093,-2.263 -3.40754,-3.5358 -2.41069,-17.3717 0.66494,-9.2293 1.99608,-15.9468 3.48634,-17.5935 1.3259,-1.4651 2.41071,-4.5554 2.41071,-6.8673 0,-3.0826 1.91055,-5.4599 7.16423,-8.9146 6.7218,-4.4201 7.9367,-4.6466 19.6692,-3.6684 6.8776,0.5734 12.8798,1.4176 13.3381,1.8759 0.4583,0.4583 -0.048,2.7686 -1.1263,5.134 -1.0777,2.3654 -1.9595,7.5808 -1.9595,11.5898 0,6.461 -0.676,7.7447 -5.9505,11.2993 -7.0136,4.7266 -15.1131,16.8534 -16.5904,24.8398 -1.0826,5.8522 1.565,13.5317 7.7836,22.5775 5.501,8.0018 -0.4134,5.3531 -11.7927,-5.2814 z m -22.75716,-73.6466 c -2.79443,-2.8378 -0.94624,-7.393 4.90364,-12.086 7.35732,-5.9022 6.45028,-9.7121 -1.98628,-8.343 -11.40412,1.8506 -17.97787,-10.1206 -7.55308,-13.7547 3.40333,-1.1864 5.05715,-2.8942 5.05715,-5.2221 0,-3.5586 -4.0452,-4.7745 -5.9,-1.7734 -2.69308,4.3575 -12.64286,-0.4482 -12.64286,-6.1064 0,-1.3718 2.60313,-3.5818 5.78473,-4.9112 7.16643,-2.9943 8.40329,-4.8439 5.08241,-7.5999 -1.95529,-1.6228 -3.0548,-1.6691 -4.53287,-0.191 -2.53831,2.5383 -8.48293,2.4999 -11.05427,-0.072 -3.17187,-3.1719 -2.39434,-7.1548 2.24817,-11.5162 6.28535,-5.9048 4.81345,-9.2181 -4.09499,-9.2181 -9.70919,0 -12.68631,-3.9752 -7.28392,-9.7258 5.68807,-6.0546 4.89091,-8.566 -2.29132,-7.2186 -5.83539,1.0947 -10.82937,-0.9088 -10.82937,-4.3446 0,-0.8198 1.87055,-3.1169 4.15679,-5.1048 4.99849,-4.346 4.13521,-6.4776 -2.62346,-6.4776 -6.21105,0 -8.07122,-3.9983 -3.96904,-8.5312 3.87553,-4.2824 1.18417,-7.8934 -3.86792,-5.1896 -2.35155,1.2585 -3.85042,1.2067 -5.23812,-0.181 -2.69871,-2.6987 -2.45388,-4.3039 1.40449,-9.209 3.90325,-4.9622 3.11683,-7.2321 -2.5056,-7.2321 -5.42685,0 -6.8502,-2.8988 -3.33211,-6.7863 3.51854,-3.8879 2.16968,-8.3851 -2.51499,-8.3851 -4.10497,0 -4.66801,-5.2979 -0.89575,-8.4286 3.69338,-3.0652 3.08996,-6.4286 -1.26429,-7.047 -5.41767,-0.7694 -5.66702,-6.5678 -0.49154,-11.43 4.27732,-4.0183 5.6991,-8.4944 2.69817,-8.4944 -0.87242,0 -2.05505,0.7586 -2.62806,1.6857 -0.57301,0.9272 -2.13492,1.6857 -3.47092,1.6857 -4.53797,0 -2.45197,-5.5259 5.15664,-13.6601 8.67632,-9.2757 10.00892,-13.5181 2.50315,-7.9688 -4.60286,3.403 -5.33055,3.5097 -7.71004,1.1302 -2.37949,-2.3795 -1.80503,-3.6157 6.08658,-13.0985 4.79272,-5.759 8.31475,-10.87024 7.82673,-11.35825 -0.48801,-0.48802 -3.20808,0.48361 -6.0446,2.1592 -3.77655,2.23085 -5.65789,2.54595 -7.02703,1.17675 -3.30083,-3.30081 0.1871,-9.08073 7.46869,-12.37656 8.41311,-3.80797 17.46063,-11.13029 15.80205,-12.78887 -0.65522,-0.6552 -3.08194,-0.32984 -5.39271,0.72302 -5.04658,2.29937 -9.65704,0.89697 -8.95946,-2.72527 0.57947,-3.0089 12.95898,-10.69102 22.07816,-13.70062 6.93769,-2.28964 9.12406,-4.64516 6.62824,-7.14099 -1.11339,-1.11339 -5.40062,-0.56105 -12.74304,1.64172 -6.08583,1.8258 -11.45827,2.92649 -11.93876,2.446 -3.20682,-3.20681 8.66519,-12.19538 16.20261,-12.26736 5.24596,-0.0501 18.20514,-6.07416 18.20514,-8.46264 0,-1.27046 -3.57022,-1.80391 -10.53571,-1.57423 -13.63924,0.44973 -13.47053,0.49703 -11.48147,-3.21956 1.61867,-3.02453 13.46127,-6.64779 30.86718,-9.44385 9.0962,-1.4612 7.77865,-3.97277 -2.39607,-4.56746 -4.79463,-0.28024 -8.98668,-1.32784 -9.31568,-2.32799 -0.64585,-1.96339 16.96369,-7.45296 23.90773,-7.45296 2.73111,0 4.23974,-0.94291 4.23974,-2.64987 0,-2.20235 -1.49464,-2.47766 -8.85,-1.63016 -9.01173,1.03835 -15.3765,-0.96347 -12.20734,-3.83939 0.91939,-0.83433 6.43489,-2.49142 12.25668,-3.68244 5.82178,-1.19102 10.98691,-2.81569 11.47806,-3.61039 1.91932,-3.10554 -1.23384,-4.31935 -8.00436,-3.08127 -15.51571,2.83724 -15.70555,-4.32885 -0.24693,-9.32077 11.23799,-3.62899 13.50891,-7.17085 3.88817,-6.06419 -11.69781,1.34558 -14.32857,1.06622 -14.32857,-1.52153 0,-1.62669 3.90811,-3.78598 10.95714,-6.05397 8.55846,-2.75364 11.07506,-4.32202 11.49582,-7.16429 0.4297,-2.90278 -0.31535,-3.63888 -3.68312,-3.63888 -2.32199,0 -6.29112,0.78676 -8.82032,1.74836 -6.75395,2.56784 -9.10678,-0.57944 -4.27672,-5.7208 3.74876,-3.99037 3.75085,-4.02311 0.31482,-4.92165 -5.2663,-1.37717 -4.15119,-5.33917 2.87275,-10.20676 9.33584,-6.46974 16.24325,-8.53773 20.64636,-6.18127 2.10736,1.12783 6.28016,1.4859 9.99726,0.85789 l 6.3802,-1.07792 0.9468,7.05866 c 1.401,10.44551 0.3728,11.87587 -7.6181,10.59807 -5.3882,-0.86161 -6.6299,-0.59888 -6.0145,1.27269 0.4266,1.29714 3.2206,2.59899 6.209,2.893 4.0468,0.39813 5.8596,1.65538 7.1033,4.92641 2.3832,6.26827 0.7644,8.85871 -5.5792,8.92823 l -5.5315,0.0606 4.6357,3.79556 c 8.3423,6.83038 4.9984,17.43917 -4.8959,15.53258 -4.7644,-0.91809 -4.7607,-0.90748 0.5526,1.56531 6.71,3.12281 7.6743,4.69462 6.2825,10.23992 -1.0031,3.9967 -1.679,4.33222 -6.7944,3.37257 -6.65077,-1.2477 -7.53688,1.07153 -1.4662,3.83752 3.3141,1.51 4.2143,3.1669 4.2143,7.75681 0,7.07656 -1.6201,8.30374 -7.8404,5.9388 l -4.7519,-1.80667 4.13259,4.39894 c 3.30481,3.51779 3.75871,4.97467 2.26601,7.27317 -1.0905,1.67921 -3.69528,2.74229 -6.265,2.55688 -5.56521,-0.40154 -5.55434,0.95476 0.0433,5.41824 3.90863,3.11663 4.19665,3.99995 2.39929,7.35835 -1.2231,2.28539 -3.00512,3.42595 -4.44184,2.84294 -1.31956,-0.53547 -3.5371,-1.43403 -4.92781,-1.9968 -3.78632,-1.53217 -3.04909,2.31173 0.84285,4.39464 4.00585,2.14387 4.39781,7.16394 0.79295,10.15571 -2.0045,1.66358 -3.59936,1.70467 -7.16429,0.1846 l -4.5858,-1.95536 4.95388,4.13168 c 4.46721,3.7258 4.75845,4.56058 2.96458,8.49769 -1.09411,2.40131 -3.06524,4.77889 -4.3803,5.28353 -3.38665,1.29958 -12.26552,-3.67185 -15.57288,-8.71949 -2.04676,-3.12375 -3.29205,-3.76339 -4.65158,-2.38923 -1.3561,1.37069 -0.26614,3.19943 4.04344,6.78407 3.245,2.69914 6.67943,4.92794 7.63206,4.95288 0.95265,0.025 3.39081,1.20718 5.41817,2.62719 3.23148,2.26343 3.44616,3.14699 1.74062,7.16428 -1.07001,2.52035 -2.49184,5.23497 -3.15964,6.0325 -2.11779,2.52923 -18.04886,-3.91956 -21.57011,-8.73144 -2.99251,-4.08937 -3.41999,-4.22596 -4.50008,-1.4379 -1.63118,4.21061 1.7731,7.21103 13.72603,12.09768 11.14764,4.55741 10.9715,4.02899 7.22947,21.68961 l -2.09694,9.8965 -11.24343,-0.8044 c -6.18388,-0.4425 -13.61939,-1.9898 -16.52334,-3.4385 -5.99293,-2.9896 -9.00964,-0.8274 -4.7661,3.4161 1.91165,1.9117 6.42007,2.6903 16.53171,2.8549 13.89752,0.2264 13.90381,0.2285 15.23218,5.1955 0.91919,3.437 0.62569,5.6724 -0.95184,7.2499 -3.09119,3.0912 -25.04936,3.426 -28.65104,0.4369 -1.46406,-1.2151 -3.89487,-1.7361 -5.40182,-1.1578 -2.30737,0.8854 -2.38734,1.4762 -0.50652,3.7424 1.84068,2.2179 5.20855,2.5849 19.15415,2.0872 l 16.92076,-0.6038 0.54422,5.6929 c 0.29933,3.1311 -0.19187,6.429 -1.09154,7.3287 -1.05719,1.0572 -0.65345,3.3548 1.1415,6.4962 2.12258,3.7147 2.33913,5.5594 0.91863,7.8256 -2.43067,3.8777 -14.19415,5.942 -26.55207,4.6594 -7.73135,-0.8024 -9.70237,-0.5455 -9.1036,1.1865 0.88019,2.5461 24.34019,2.1272 31.41025,-0.5608 5.1964,-1.9757 6.49834,-0.6417 7.8928,8.0868 l 1.11849,7.001 -9.28069,2.0769 c -8.07691,1.8076 -12.12015,1.7187 -18.77181,-0.4124 -2.44292,-0.7827 -3.06004,3.213 -0.63313,4.0995 2.61044,0.9535 22.91167,-1.1993 26.92873,-2.8557 2.08163,-0.8583 3.55729,0.2254 5.54745,4.074 1.49128,2.8838 2.30346,5.9033 1.80486,6.7101 -1.51575,2.4525 -17.63573,5.6261 -23.06349,4.5405 -3.64824,-0.7296 -4.89454,-0.4248 -4.38731,1.073 0.80368,2.3731 13.26404,2.6514 24.21283,0.5408 6.70939,-1.2934 7.04783,-1.1445 9.7605,4.2931 2.63427,5.2806 2.62933,5.7652 -0.0791,7.7456 -3.99904,2.9241 -13.16799,4.434 -20.09754,3.3095 -4.40922,-0.7155 -5.80574,-0.3467 -5.80574,1.5334 0,1.3615 1.08429,2.8915 2.40951,3.4001 2.39483,0.919 18.59357,-1.3422 25.80573,-3.6023 2.82504,-0.8852 4.05352,-0.3932 4.89194,1.9592 0.61576,1.7277 2.24681,4.4545 3.62456,6.0596 3.44874,4.0179 0.64482,7.0472 -9.03017,9.756 -6.14742,1.7212 -8.40818,1.7234 -11.60722,0.012 -4.91118,-2.6283 -8.77932,-0.8871 -5.8555,2.6358 2.54104,3.0618 10.70651,2.9199 19.26116,-0.3348 11.89817,-4.5268 12.53887,-4.586 13.73957,-1.2708 0.6257,1.7277 2.5313,5.1548 4.2347,7.6158 1.7035,2.461 3.0971,4.969 3.0971,5.5734 0,0.6043 -3.499,2.6466 -7.7756,4.5384 -5.87757,2.5999 -9.5811,3.1688 -15.17145,2.3305 -7.55596,-1.1331 -9.41913,0.3768 -4.99531,4.0483 1.85754,1.5416 6.08231,1.365 18.67936,-0.7809 8.9535,-1.5251 16.4225,-2.5184 16.5978,-2.2072 1.682,2.9855 4.1889,12.2921 3.5776,13.2812 -1.2626,2.043 -22.2463,5.1658 -26.88611,4.0013 -4.76342,-1.1955 -5.38585,0.4779 -1.93378,5.1989 2.17583,2.9756 3.18816,3.0414 16.18239,1.0522 7.6238,-1.167 14.1043,-1.8791 14.4011,-1.5822 0.2969,0.2968 1.6525,3.7694 3.0125,7.7169 1.7748,5.1515 1.944,7.5041 0.5992,8.3353 -3.746,2.3151 -20.2575,3.6606 -23.5166,1.9164 -4.6731,-2.501 -7.10333,0.6572 -3.2142,4.1768 2.7776,2.5137 4.644,2.6103 16.913,0.8753 7.585,-1.0727 14.2303,-1.5109 14.7674,-0.9738 1.5551,1.5552 4.2011,14.7996 3.2606,16.3214 -0.4693,0.7594 -5.0773,1.9084 -10.24,2.5535 -7.4293,0.9282 -10.2999,0.5745 -13.7656,-1.6964 -4.1922,-2.7468 -4.4936,-2.7207 -7.0712,0.6113 -1.9578,2.5307 -5.4525,3.781 -12.80676,4.582 -5.56286,0.6059 -10.68321,0.5239 -11.37857,-0.1822 z m -26.69047,-172.0331 c 0.3863,-0.3475 -2.02487,-0.6318 -5.35816,-0.6318 -3.33332,0 -7.27209,-1.2115 -8.75286,-2.6923 -1.48076,-1.4808 -3.81065,-2.2631 -5.17755,-1.7386 -2.61402,1.0031 -3.32081,4.7192 -1.28482,6.7552 1.1339,1.1339 19.0718,-0.3418 20.57339,-1.6925 z m -3.61001,-57.2023 c -2.52633,-1.371 -5.42387,-4.04464 -6.43899,-5.94139 -1.47552,-2.75707 -2.32915,-3.04737 -4.25667,-1.44768 -1.32605,1.10052 -2.41101,3.38161 -2.41101,5.06907 0,2.3845 1.59627,3.2118 7.16429,3.7133 3.94036,0.355 7.92286,0.7475 8.85,0.8724 0.92714,0.1249 -0.38129,-0.8948 -2.90762,-2.2657 z M 562.76211,479.5961 c 1.46656,-0.56277 2.66645,-1.70062 2.66645,-2.52857 0,-2.45872 -6.1594,-1.71099 -8.42857,1.02321 -1.71092,2.06153 -1.61883,2.52857 0.49858,2.52857 1.42841,0 3.797,-0.46044 5.26354,-1.02321 z m -8.11226,-20.60236 c -2.01367,-3.25818 1.05463,-6.90076 7.97734,-9.47042 3.85861,-1.43228 8.5328,-2.4773 10.38708,-2.32226 1.85425,0.15504 4.93935,-0.23448 6.85575,-0.86559 2.523,-0.83092 4.6158,0.059 7.5857,3.22566 l 4.1014,4.37315 -4.1882,3.39716 c -3.3458,2.71388 -5.5497,3.16736 -10.9572,2.25462 -9.24374,-1.56026 -11.13516,-1.57822 -16.27784,-0.15456 -2.53329,0.7013 -4.89664,0.51265 -5.48403,-0.43776 z" style="fill: rgb(255, 255, 255); stroke: rgb(0, 0, 0); stroke-width: 6.07981;"/>
    </g>
    <g id="g-2" transform="matrix(-1.089101, 0.524679, -0.112329, 0.993114, 816.920105, -495.757935)">
      <path id="path-1" d="M 569.966 952.208 C 564.171 947.1 559.43 941.789 559.43 940.406 C 559.43 939.023 557.861 936.855 555.944 935.588 C 552.713 933.454 552.536 932.253 553.533 919.202 C 554.198 910.496 555.529 904.159 557.019 902.606 C 558.345 901.224 559.43 898.309 559.43 896.128 C 559.43 893.22 561.341 890.978 566.594 887.719 C 573.316 883.55 574.531 883.336 586.263 884.259 C 593.141 884.8 599.143 885.596 599.601 886.028 C 600.06 886.461 599.554 888.64 598.475 890.871 C 597.398 893.102 596.516 898.022 596.516 901.804 C 596.516 907.898 595.84 909.109 590.565 912.462 C 583.552 916.921 575.452 928.36 573.975 935.893 C 572.892 941.414 575.54 948.657 581.758 957.19 C 587.259 964.738 581.345 962.24 569.966 952.208 Z M 547.209 882.738 C 544.414 880.062 546.262 875.765 552.112 871.338 C 559.47 865.77 558.562 862.177 550.126 863.468 C 538.722 865.214 532.148 853.921 542.573 850.493 C 545.976 849.374 547.63 847.763 547.63 845.567 C 547.63 842.211 543.585 841.064 541.73 843.895 C 539.037 848.005 529.087 843.472 529.087 838.134 C 529.087 836.84 531.69 834.756 534.872 833.502 C 542.038 830.677 543.275 828.933 539.954 826.333 C 537.999 824.802 536.899 824.758 535.421 826.153 C 532.883 828.547 526.938 828.511 524.367 826.085 C 521.195 823.093 521.973 819.336 526.615 815.222 C 532.901 809.652 531.429 806.526 522.52 806.526 C 512.811 806.526 509.834 802.777 515.236 797.352 C 520.924 791.641 520.127 789.272 512.945 790.543 C 507.11 791.576 502.116 789.686 502.116 786.445 C 502.116 785.671 503.986 783.505 506.273 781.629 C 511.271 777.53 510.408 775.519 503.649 775.519 C 497.438 775.519 495.578 771.748 499.68 767.472 C 503.556 763.432 500.864 760.026 495.812 762.576 C 493.461 763.764 491.962 763.715 490.574 762.406 C 487.875 759.86 488.12 758.346 491.978 753.719 C 495.882 749.038 495.095 746.897 489.473 746.897 C 484.046 746.897 482.623 744.163 486.141 740.496 C 489.659 736.828 488.31 732.586 483.626 732.586 C 479.521 732.586 478.958 727.589 482.73 724.635 C 486.423 721.744 485.82 718.571 481.466 717.988 C 476.048 717.262 475.799 711.793 480.974 707.206 C 485.251 703.416 486.673 699.194 483.672 699.194 C 482.8 699.194 481.617 699.909 481.044 700.784 C 480.471 701.658 478.909 702.374 477.573 702.374 C 473.035 702.374 475.121 697.161 482.73 689.488 C 491.406 680.739 492.739 676.737 485.233 681.972 C 480.63 685.182 479.903 685.282 477.523 683.038 C 475.144 680.793 475.718 679.627 483.61 670.682 C 488.402 665.25 491.924 660.428 491.436 659.968 C 490.948 659.508 488.228 660.424 485.392 662.005 C 481.615 664.109 479.734 664.406 478.365 663.115 C 475.064 660.001 478.552 654.549 485.833 651.44 C 494.247 647.848 503.294 640.941 501.636 639.376 C 500.98 638.758 498.554 639.065 496.243 640.058 C 491.196 642.227 486.586 640.905 487.283 637.488 C 487.863 634.649 500.242 627.403 509.362 624.564 C 516.299 622.404 518.486 620.182 515.99 617.828 C 514.876 616.778 510.589 617.299 503.247 619.377 C 497.161 621.099 491.788 622.137 491.308 621.684 C 488.101 618.659 499.973 610.18 507.511 610.112 C 512.757 610.065 525.716 604.383 525.716 602.13 C 525.716 600.931 522.146 600.428 515.18 600.645 C 501.541 601.069 501.709 601.113 503.699 597.608 C 505.317 594.755 517.16 591.337 534.566 588.699 C 543.662 587.321 542.344 584.952 532.17 584.391 C 527.375 584.127 523.183 583.138 522.854 582.195 C 522.208 580.343 539.818 575.165 546.762 575.165 C 549.493 575.165 551.001 574.275 551.001 572.665 C 551.001 570.588 549.507 570.328 542.151 571.127 C 533.14 572.107 526.775 570.219 529.944 567.506 C 530.863 566.719 536.379 565.156 542.201 564.032 C 548.023 562.909 553.188 561.376 553.679 560.627 C 555.598 557.697 552.445 556.552 545.674 557.72 C 530.159 560.396 529.969 553.637 545.428 548.928 C 556.666 545.505 558.936 542.164 549.316 543.208 C 537.618 544.477 534.987 544.213 534.987 541.772 C 534.987 540.238 538.895 538.201 545.944 536.062 C 554.503 533.464 557.019 531.985 557.44 529.304 C 557.87 526.566 557.125 525.871 553.757 525.871 C 551.435 525.871 547.466 526.613 544.937 527.52 C 538.183 529.943 535.83 526.974 540.66 522.124 C 544.409 518.36 544.411 518.329 540.975 517.481 C 535.708 516.182 536.824 512.445 543.848 507.854 C 553.183 501.751 560.091 499.8 564.494 502.023 C 566.601 503.087 570.774 503.424 574.491 502.832 L 580.871 501.815 L 581.818 508.474 C 583.219 518.327 582.191 519.676 574.2 518.471 C 568.812 517.658 567.57 517.906 568.186 519.671 C 568.612 520.895 571.406 522.123 574.395 522.4 C 578.441 522.776 580.254 523.962 581.498 527.047 C 583.881 532.96 582.262 535.403 575.919 535.469 L 570.387 535.526 L 575.023 539.107 C 583.365 545.55 580.021 555.557 570.127 553.758 C 565.363 552.892 565.366 552.902 570.679 555.235 C 577.39 558.18 578.354 559.663 576.962 564.894 C 575.959 568.664 575.283 568.98 570.168 568.075 C 563.517 566.898 562.631 569.086 568.701 571.695 C 572.015 573.119 572.916 574.682 572.916 579.012 C 572.916 585.687 571.296 586.845 565.075 584.614 L 560.323 582.91 L 564.456 587.059 C 567.761 590.378 568.215 591.752 566.722 593.92 C 565.632 595.504 563.027 596.507 560.457 596.332 C 554.892 595.953 554.903 597.232 560.5 601.443 C 564.409 604.383 564.697 605.216 562.9 608.384 C 561.677 610.54 559.894 611.616 558.458 611.066 C 557.138 610.56 554.921 609.713 553.53 609.182 C 549.744 607.737 550.481 611.363 554.373 613.327 C 558.379 615.35 558.771 620.085 555.166 622.907 C 553.161 624.476 551.566 624.515 548.001 623.081 L 543.416 621.237 L 548.37 625.134 C 552.837 628.649 553.128 629.436 551.334 633.15 C 550.24 635.415 548.269 637.658 546.954 638.134 C 543.567 639.36 534.688 634.67 531.381 629.909 C 529.334 626.962 528.089 626.359 526.729 627.655 C 525.373 628.948 526.463 630.673 530.773 634.055 C 534.018 636.601 537.452 638.703 538.405 638.727 C 539.358 638.75 541.796 639.865 543.823 641.205 C 547.054 643.34 547.269 644.173 545.564 647.963 C 544.494 650.34 543.072 652.901 542.404 653.653 C 540.286 656.039 524.355 649.956 520.834 645.417 C 517.841 641.559 517.414 641.43 516.334 644.06 C 514.703 648.032 518.107 650.862 530.06 655.472 C 541.208 659.771 541.031 659.273 537.289 675.932 L 535.192 685.267 L 523.949 684.508 C 517.765 684.091 510.33 682.631 507.426 681.265 C 501.433 678.445 498.416 680.484 502.66 684.487 C 504.571 686.29 509.08 687.025 519.191 687.18 C 533.089 687.394 533.095 687.395 534.423 692.081 C 535.343 695.323 535.049 697.432 533.472 698.92 C 530.38 701.835 508.422 702.151 504.821 699.332 C 503.356 698.185 500.926 697.694 499.419 698.24 C 497.111 699.075 497.031 699.632 498.912 701.77 C 500.753 703.862 504.121 704.208 518.066 703.739 L 534.987 703.169 L 535.531 708.539 C 535.831 711.493 535.339 714.603 534.44 715.452 C 533.383 716.449 533.786 718.617 535.581 721.58 C 537.704 725.084 537.92 726.824 536.5 728.962 C 534.069 732.619 522.306 734.567 509.948 733.357 C 502.216 732.6 500.245 732.842 500.844 734.476 C 501.724 736.878 525.184 736.483 532.255 733.947 C 537.451 732.083 538.753 733.342 540.147 741.575 L 541.266 748.179 L 531.985 750.138 C 523.908 751.843 519.865 751.76 513.213 749.749 C 510.77 749.011 510.153 752.78 512.58 753.616 C 515.191 754.516 535.492 752.485 539.509 750.923 C 541.591 750.113 543.066 751.135 545.056 754.766 C 546.548 757.486 547.36 760.334 546.861 761.095 C 545.345 763.408 529.225 766.402 523.798 765.378 C 520.149 764.69 518.903 764.977 519.41 766.39 C 520.214 768.629 532.674 768.891 543.623 766.9 C 550.333 765.68 550.671 765.821 553.384 770.95 C 556.018 775.931 556.013 776.388 553.305 778.256 C 549.306 781.015 540.137 782.439 533.207 781.378 C 528.798 780.703 527.401 781.051 527.401 782.825 C 527.401 784.109 528.486 785.552 529.811 786.032 C 532.206 786.899 548.404 784.766 555.617 782.634 C 558.442 781.799 559.67 782.263 560.509 784.482 C 561.124 786.112 562.755 788.684 564.133 790.198 C 567.582 793.988 564.778 796.845 555.103 799.401 C 548.956 801.024 546.695 801.026 543.496 799.412 C 538.585 796.933 534.716 798.575 537.64 801.898 C 540.181 804.786 548.347 804.653 556.901 801.582 C 568.799 797.312 569.44 797.256 570.641 800.384 C 571.267 802.013 573.172 805.246 574.876 807.568 C 576.579 809.889 577.973 812.255 577.973 812.825 C 577.973 813.395 574.474 815.321 570.197 817.106 C 564.32 819.558 560.616 820.095 555.026 819.304 C 547.47 818.235 545.607 819.66 550.03 823.123 C 551.888 824.577 556.113 824.411 568.71 822.386 C 577.663 820.948 585.132 820.011 585.307 820.304 C 586.989 823.121 589.496 831.899 588.885 832.832 C 587.622 834.759 566.639 837.705 561.999 836.607 C 557.236 835.479 556.613 837.058 560.065 841.511 C 562.241 844.318 563.253 844.38 576.248 842.503 C 583.871 841.402 590.352 840.731 590.649 841.011 C 590.946 841.291 592.301 844.566 593.661 848.29 C 595.436 853.149 595.605 855.369 594.26 856.153 C 590.514 858.336 574.003 859.606 570.744 857.96 C 566.071 855.601 563.64 858.58 567.53 861.9 C 570.307 864.271 572.174 864.363 584.443 862.726 C 592.028 861.714 598.673 861.301 599.21 861.807 C 600.765 863.274 603.411 875.768 602.471 877.203 C 602.001 877.92 597.393 879.003 592.231 879.612 C 584.801 880.487 581.931 880.154 578.465 878.012 C 574.273 875.421 573.971 875.445 571.394 878.588 C 569.436 880.976 565.941 882.155 558.587 882.91 C 553.024 883.482 547.904 883.405 547.208 882.739 Z M 520.518 720.462 C 520.904 720.134 518.493 719.866 515.16 719.866 C 511.827 719.866 507.888 718.723 506.407 717.326 C 504.926 715.929 502.596 715.191 501.23 715.686 C 498.616 716.632 497.909 720.138 499.945 722.058 C 501.079 723.128 519.016 721.736 520.518 720.462 Z M 516.908 666.503 C 514.382 665.21 511.484 662.688 510.469 660.899 C 508.994 658.298 508.14 658.024 506.212 659.533 C 504.886 660.571 503.801 662.723 503.801 664.315 C 503.801 666.564 505.398 667.345 510.966 667.818 C 514.906 668.152 518.889 668.523 519.816 668.641 C 520.743 668.758 519.434 667.797 516.908 666.503 Z M 553.392 516.956 C 554.859 516.425 556.059 515.352 556.059 514.571 C 556.059 512.251 549.899 512.957 547.63 515.536 C 545.919 517.481 546.011 517.921 548.129 517.921 C 549.557 517.921 551.926 517.487 553.392 516.956 Z M 545.28 497.522 C 543.266 494.449 546.334 491.013 553.257 488.589 C 557.116 487.238 561.79 486.252 563.644 486.398 C 565.499 486.544 568.584 486.177 570.5 485.582 C 573.023 484.798 575.116 485.637 578.086 488.624 L 582.187 492.749 L 577.999 495.954 C 574.653 498.514 572.449 498.942 567.042 498.081 C 557.798 496.609 555.907 496.592 550.764 497.935 C 548.231 498.596 545.867 498.418 545.28 497.522 Z" style="fill: rgb(255, 255, 255); stroke: rgb(0, 0, 0); stroke-width: 5.98582;"/>
    </g>
  </g>
  <g transform="matrix(0.033913, 0, 0, 0.033913, 307.990814, 749.836487)"/>
  <g>
    <polygon style="stroke: rgb(0, 0, 0);" points="239.686 696.056 254.516 702.2 267.227 706.225 264.261 700.717 260.66 697.327 266.38 683.133 259.177 679.743 251.338 679.319 245.83 693.726 234.178 692.031"/>
    <polyline style="stroke: rgb(0, 0, 0); fill: rgb(255, 255, 255);" points="245.406 692.666 261.719 698.386 262.567 694.149 246.254 689.065"/>
  </g>
</svg>