<?xml version="1.0" encoding="utf-8"?>
<svg class="shirt" width="86" height="380" viewBox="202.715 584.407 86.5933 380.048" preserveAspectRatio="xMidYMax" xmlns="http://www.w3.org/2000/svg" xmlns:xlink="http://www.w3.org/1999/xlink">
  <defs id="svgEditorDefs">
    <path id="svgEditorClosePathDefs" fill="red" style="stroke-width: 0px; stroke: none;" class="clothes"/>
    <pattern id="pattern-0-0" patternTransform="matrix(32.433228, 0, 0, 38.633212, 130.784668, -204.262817)" xlink:href="#pattern-0"/>
    <pattern id="pattern-0" x="0" y="0" width="20" height="20" patternUnits="userSpaceOnUse" viewBox="0 0 100 100">
      <rect x="-8.469" y="-1.629" width="109.772" height="104.723" style="fill: rgb(255, 255, 255);"/>
      <g transform="matrix(0.155462, 0, 0, 0.198891, 0.783484, 8.892949)">
        <title id="title2985">Redback spider</title>
        <g id="layer2" transform="translate(0 -627.36)">
          <g id="g4147">
            <g id="g4074" transform="translate(-53.022 312.43)">
              <path id="rect4028" style="fill:#000000" d="m235.71 316.86c-7.2433 0.21166-17.56 3.0025-42.031 9.4375-29.822 7.8421-65.422 20.844-57.094 20.844 1.1115 0 10.682-2.7528 21.25-6.0938 21.065-6.6593 54.388-15.437 64.406-17 3.0667-0.10984 6.1179 0.00059 9.25 0.28125 1.5707 0.34331 3.2267 0.81056 5.0938 1.4688 4.1924 1.4779 8.5074 2.6875 9.5625 2.6875 3.2954 0 80.664 26.327 84.219 28.656 1.8549 1.2154 4.3511 4.0537 5.5625 6.3125s5.4125 8.8755 9.3125 14.719c3.9 5.8433 10.753 17.568 15.219 26.062 4.4656 8.4946 9.7183 17.562 11.688 20.125 1.9692 2.563 4.6389 6.7495 5.9375 9.3125s4.3806 6.9081 6.8438 9.6562c2.4632 2.7482 4.4688 5.5485 4.4688 6.2188 0 0.67029 0.37191 2.1644 0.8125 3.3125 0.0617 0.16084 0.12817 0.77452 0.15625 1.0938-0.11595 0.34472-0.24697 0.71078-0.6875 1.0312l-0.3125-0.0937s-3.8693-1.1932-5.0625 0c-1.0238 1.0238 0 4.3438 0 4.3438-0.96216 1.4789-1.686 3.3142-2.0938 5.2812 0 0-2.8643 0.63375-3.1875 1.8125-0.51697 1.8852 2.9062 5.0938 2.9062 5.0938l0.21875-0.12505c0.12757 0.63096 0.28623 1.2526 0.5 1.8438 0.30367 0.83977 1.4935 3.0036 2.0312 3.375 0.17128 0.6253 0.56441 1.1742 1.0938 1.5938-0.28555 0.10483-0.57032 0.2078-0.84375 0.25-1.3696 0.21136-5.2872-0.0523-9.7812-0.6875-6.2764-0.88717-12.92-3.6361-28.594-11.812-14.074-7.3416-26.372-12.567-39.688-16.875-28.987-9.3775-30.412-9.7395-42.625-10.406-6.2244-0.33977-14.597-1.5624-18.625-2.7188-4.0276-1.1563-18.712-3.8784-32.625-6.0625-17.679-2.7753-26.126-3.6748-36.156-3.5938-1.433 0.0116-2.9089 0.0448-4.4375 0.0937-29.545 0.94545-58.851 4.6767-95.531 12.125-18.405 3.7373-20.587 4.3814-19.625 5.9375 0.83223 1.3466 5.8816 0.68108 26.594-3.5625 28.72-5.8843 70.15-9.4512 83.219-7.1562 7.5429 1.3246 12.615 2.0688 51.25 7.3438 20.624 2.8158 40.457 7.4956 69.906 16.531 4.7599 1.4604 11.972 3.6662 16 4.9062 4.0276 1.24 15.686 6.601 25.938 11.906 10.252 5.3053 22.602 10.932 27.438 12.5 7.1199 2.3084 11.587 4.4683 12.781 6.0938 0.0744 0.21361 0.32479 0.44011 0.34375 0.625 0.0202 0.19724 0.0656 0.52911-0.15625 0.75-0.0466 0.0464-0.11061 0.0794-0.15625 0.125-0.57328 0.57329-4.1807 1.4283-8 1.9062-31.311 3.9182-72.844 13.807-72.844 17.344 0 0.33586-0.89974 0.68552-1.375 0.90625-0.47527 0.22072-0.95747 0.3125-1.25 0.3125-3.6048 0-36.409 16.972-58.969 30.531-5.0016 3.0062-6.4419 5.4062-3.2812 5.4062 0.92708 0 7.9477-3.621 15.625-8.0625 25.712-14.875 44.882-23.261 50.156-21.938 1.7023 0.42724 10.441-1.0618 19.406-3.3125 26.843-6.7392 40.743-8.1674 69.156-7.125 10.647 0.39061 16.868 0.5318 20.844 0.375 0.12721-0.006 0.25322 0.008 0.375 0 0.27772-0.0126 0.46347-0.0466 0.71875-0.0625 3.3815-0.2109 4.9419-0.69572 6.3125-1.5938 5.43-3.5579 7.1714-0.43629 7.0625-1.1875 0.0251 0.0228 0.0917 0.0786 0.15625 0.1875 0.32762 1.0667 0.96875 3.357 0.96875 4.5312 0 3.6668 0.98053 5.6938 4.2188 8.7188 0.85563 0.79928 3.0584 2.6882 3.0625 4.6875-0.0315 0.002-0.0617-0.001-0.0937 0 1.1971 2.5736 1.0776 5.0045 2 15.719 1.259 14.624 2.4734 18.092 2.75 21.062 0.27656 2.9704-0.85979 4.1229-0.125 13.781 1.9676 25.863 5.2531 43.466 7.6875 41.031 1.0077-1.0077 0.96856-7.2624-0.15625-21.531-0.87263-11.071-1.2239-25.036-0.78125-31.031 0.0959-1.2984 0.14959-2.8114 0.1875-4.4062 0.34139-0.82683 0.33056-2.4618 0.0625-4.875-0.0411-4.5812-0.2999-9.3714-0.6875-12.938-0.51609-4.7484-0.9203-9.9503-0.0312-12.344 0.42971 0.36426 0.86951 0.71884 1.2812 1.0938 1.3374 0.75923 4.1041 3.3799 7.0625 6.7812 3.8187 4.3905 10.595 11.425 15.031 15.656 4.4363 4.2316 11.314 12.515 15.281 18.375 7.0453 10.408 8.8101 12.854 21.219 29.281 3.3189 4.3937 10.225 13.99 15.344 21.312 5.1183 7.3228 12.113 16.535 15.562 20.5 7.4552 8.5693 21.721 28.681 30.562 43.094 11.522 18.783 20.907 32.628 27.656 40.812 3.6614 4.4402 7.0972 8.0888 7.6562 8.0938 1.5174 0.0142-2.3885-8.6458-6.7812-15.031-8.8977-12.934-18.755-28.707-22.031-35.219-1.9292-3.8344-7.7617-13.72-12.969-21.969-5.207-8.2483-11.855-19.588-14.75-25.219-5.0767-9.8746-12.184-20.463-27.719-41.219-8.7119-11.64-10.068-13.577-18.406-25.938-6.9867-10.357-15.86-21.363-22.312-27.719-6.7694-6.668-16.451-20.937-16.5-24.312-0.003-0.009 0.003-0.0222 0-0.0312-0.22581-0.62042-0.375-1.2369-0.375-1.8125 0-1.7383 2.2234-3.6643 3.3438-4.3438 0.61631-0.0298 0.77243 0.044 0.84375 0.0312 8.0037 12.451 19.729 20.924 44.156 25.781 41.48 8.2484 55.13-19.985 54.688-45.844-0.22304-13.023-13.188-34.9-31.062-47.719-0.99118-2.3037 0.26992-5.1762 1.5312-6.4375 1.0969-1.0969 6.9572-3.8444 13-6.125 6.0429-2.2806 12.306-4.824 13.906-5.625 3.6939-1.8483 21.153-0.42149 35.688 2.9062 5.8583 1.3413 14.553 2.8484 19.312 3.3438 4.7598 0.49531 15.526 2.7816 23.938 5.0938l15.312 4.2188 6.9688 9.9688c5.7639 8.2407 13.01 21.887 26.062 49.031 2.2481 4.6752 9.8691 13.012 10.938 11.969 0.51666-0.50453-2.3718-8.032-6.4062-16.719-4.0345-8.6868-8.9521-19.653-10.938-24.375-7.6186-18.121-15.312-31.33-23.031-39.594-4.7976-5.1359-11.585-7.1183-39.594-11.5-12.409-1.9413-26.894-4.689-32.188-6.125-5.6095-1.5217-11.843-2.3144-18-2.375-0.8796-0.009-1.7502 0.0106-2.625 0.0312-8.998 0.212-17.64 1.9606-23.781 5.0938-2.2032 1.124-4.6359 2.0685-6.125 2.4375l-0.5 0.40625s-3.525 0.2708-6.625 2.9062c-1.8328 1.5582-4.183 2.987-6.3125 4.1562-0.8428 0.53664-1.697 1.0732-2.625 1.625-4.3973 2.6144-9.6103 5.5571-16.062 5.4688-0.0209-0.00004-0.0416 0-0.0625 0-7.4636 0-15.375 0.49205-22.781 1.9688-2.9763-2.5075 8.1958-15.635 12.25-18.469 2.3869-1.6685 9.4011-4.3 15.562-5.8125 5.3462-1.3124 8.1674-1.9458 9.9688-2 1.8014-0.0541 2.5808 0.4791 3.8125 1.5938 2.6528 2.4007 6.6777 8.3919 6.9062 10.344 0.57828-0.0513 1.1281-1.3567 4.8125-1.8125l0.46875-0.5625c-1.909-2.3507-6.1566-9.3443-7.2188-12.594-0.41349-1.2649-0.98921-3.8204-2.1875-5.5312-1.2488-1.783-2.0489-2.5431-4.1875-2.6562-0.3208-0.017-0.67593-0.0115-1.0625 0-1.1597 0.0345-2.6398 0.18166-4.625 0.40625-9.8803 1.1178-24.144 5.0933-28.438 7.9062-1.8404 1.2059-9.9773 12.063-18.094 24.125-2.5791 3.8327-8.079 11.608-10.438 15-2.532 2.24-4.6428 4.8771-6.2188 7.9688-0.28882-0.12551-0.52656-0.21688-0.71875-0.3125-0.0197-0.0107-0.0427-0.0206-0.0625-0.0312-0.18942-0.0912-0.38156-0.1913-0.5625-0.25-3.8046-1.9381-8.6594-3.2632-13.781-3.8438-1.9984-3.6196-0.67839-12.594 1.7812-23.156 0.93791-4.0276 2.405-11.82 3.25-17.312 0.84501-5.4921 2.1336-13.303 2.8438-17.375 2.5285-14.497 2.0628-16.326-6.375-25.531-4.2106-4.5935-11.263-11.733-15.656-15.844-15.752-14.739-20.047-18.638-24.656-18.469-1.5365 0.0564-3.1168 0.57491-5.1562 1.2812-6.3708 2.2065-29.931 15.432-32.062 18-0.95347 1.1488-2.2076 2.8695-3.3125 3.9688-1.0847-1.1303-2.2843-2.1345-3.4062-3-1.6904-0.82704-3.7143-2.231-6.25-4.25-7.6814-6.116-12.058-8-18.375-8-3.8417 0-33.662-9.0478-65.875-19.969-7.1472-2.423-10.929-3.8209-16.562-3.6562zm146.47 24.125c0.12539-0.0115 0.22832 0.004 0.34375 0 1.2176 0.57282 2.9395 1.6241 5 3.0625 1.7198 1.8564 6.2214 5.8845 11.531 10.219 6.7736 5.529 14.809 12.973 17.844 16.531l5.5 6.4688-1.1875 11.812c-0.65873 6.4988-1.8461 13.954-2.625 16.562-3.9961 13.383-5.4829 21.808-5.8125 32.688-0.14248 4.7027-0.31964 10.084-1.5312 12.406-5.1792 0.49114-12.5-4.8709-12.5-6.2812 0-0.68686-1.5484-3.0733-3.4062-5.2812s-8.3735-13.943-14.5-26.094-13.482-25.209-16.344-29.031c-5.9349-7.9268-10.953-15.439-13.406-19.938-0.56423-0.87278-1.031-1.7837-1.3125-2.7188-0.0237-0.061-0.0415-0.0986-0.0625-0.15625-0.0148-0.0529-0.0465-0.10341-0.0625-0.15625-0.0443-0.13181-0.0973-0.26394-0.125-0.375-0.0631-0.17763-0.14354-0.35552-0.21875-0.53125 0-4.0762 25.336-18.495 32.875-19.188zm-34.031 17.125c0.20966 0.27304 0.3859 0.5543 0.53125 0.875-0.17036-0.29143-0.33565-0.59108-0.53125-0.875zm66.5 150.28c0.0905 0.16372 0.19109 0.36215 0.3125 0.59375 0.0295 0.14868 0.0876 0.33236 0.0937 0.4375 0.004 0.0115-0.21248-0.53058-0.40625-1.0312z"/>
              <path id="rect4033" style="fill-opacity:.74503;fill:#f9f9f9" d="m235.71 316.86c-7.2433 0.21166-17.56 3.0025-42.031 9.4375-29.822 7.8421-65.422 20.844-57.094 20.844 1.1115 0 10.682-2.7528 21.25-6.0938 21.065-6.6593 54.388-15.437 64.406-17 3.0667-0.10984 6.1179 0.00059 9.25 0.28125 1.5707 0.34331 3.2267 0.81056 5.0938 1.4688 4.1924 1.4779 8.5074 2.6875 9.5625 2.6875 3.2954 0 80.664 26.327 84.219 28.656 1.8549 1.2154 4.3511 4.0537 5.5625 6.3125s5.4125 8.8755 9.3125 14.719c3.9 5.8433 10.753 17.568 15.219 26.062 4.4656 8.4946 9.7183 17.562 11.688 20.125 1.9692 2.563 4.6389 6.7495 5.9375 9.3125s4.3806 6.9081 6.8438 9.6562c2.4632 2.7482 4.4688 5.5485 4.4688 6.2188 0 0.67029 0.37191 2.1644 0.8125 3.3125 0.0617 0.16084 0.12817 0.77452 0.15625 1.0938-0.11595 0.34472-0.24697 0.71078-0.6875 1.0312l-0.3125-0.0937s-3.8693-1.1932-5.0625 0c-1.0238 1.0238 0 4.3438 0 4.3438-0.96216 1.4789-1.686 3.3142-2.0938 5.2812 0 0-2.8643 0.63375-3.1875 1.8125-0.51697 1.8852 2.9062 5.0938 2.9062 5.0938l0.21875-0.12505c0.12757 0.63096 0.28623 1.2526 0.5 1.8438 0.30367 0.83977 1.4935 3.0036 2.0312 3.375 0.17128 0.6253 0.56441 1.1742 1.0938 1.5938-0.28555 0.10483-0.57032 0.2078-0.84375 0.25-1.3696 0.21136-5.2872-0.0523-9.7812-0.6875-6.2764-0.88717-12.92-3.6361-28.594-11.812-14.074-7.3416-26.372-12.567-39.688-16.875-28.987-9.3775-30.412-9.7395-42.625-10.406-6.2244-0.33977-14.597-1.5624-18.625-2.7188-4.0276-1.1563-18.712-3.8784-32.625-6.0625-17.679-2.7753-26.126-3.6748-36.156-3.5938-1.433 0.0116-2.9089 0.0448-4.4375 0.0937-29.545 0.94545-58.851 4.6767-95.531 12.125-18.405 3.7373-20.587 4.3814-19.625 5.9375 0.83223 1.3466 5.8816 0.68108 26.594-3.5625 28.72-5.8843 70.15-9.4512 83.219-7.1562 7.5429 1.3246 12.615 2.0688 51.25 7.3438 20.624 2.8158 40.457 7.4956 69.906 16.531 4.7599 1.4604 11.972 3.6662 16 4.9062 4.0276 1.24 15.686 6.601 25.938 11.906 10.252 5.3053 22.602 10.932 27.438 12.5 7.1199 2.3084 11.587 4.4683 12.781 6.0938 0.0744 0.21361 0.32479 0.44011 0.34375 0.625 0.0202 0.19724 0.0656 0.52911-0.15625 0.75-0.0466 0.0464-0.11061 0.0794-0.15625 0.125-0.57328 0.57329-4.1807 1.4283-8 1.9062-31.311 3.9182-72.844 13.807-72.844 17.344 0 0.33586-0.89974 0.68552-1.375 0.90625-0.47527 0.22072-0.95747 0.3125-1.25 0.3125-3.6048 0-36.409 16.972-58.969 30.531-5.0016 3.0062-6.4419 5.4062-3.2812 5.4062 0.92708 0 7.9477-3.621 15.625-8.0625 25.712-14.875 44.882-23.261 50.156-21.938 1.7023 0.42724 10.441-1.0618 19.406-3.3125 26.843-6.7392 40.743-8.1674 69.156-7.125 10.647 0.39061 16.868 0.5318 20.844 0.375 0.12721-0.006 0.25322 0.008 0.375 0 0.27772-0.0126 0.46347-0.0466 0.71875-0.0625 3.3815-0.2109 4.9419-0.69572 6.3125-1.5938 5.43-3.5579 7.1714-0.43629 7.0625-1.1875 0.0251 0.0228 0.0917 0.0786 0.15625 0.1875 0.32762 1.0667 0.96875 3.357 0.96875 4.5312 0 3.6668 0.98053 5.6938 4.2188 8.7188 0.85563 0.79928 3.0584 2.6882 3.0625 4.6875-0.0315 0.002-0.0617-0.001-0.0937 0 1.1971 2.5736 1.0776 5.0045 2 15.719 1.259 14.624 2.4734 18.092 2.75 21.062 0.27656 2.9704-0.85979 4.1229-0.125 13.781 1.9676 25.863 5.2531 43.466 7.6875 41.031 1.0077-1.0077 0.96856-7.2624-0.15625-21.531-0.87263-11.071-1.2239-25.036-0.78125-31.031 0.0959-1.2984 0.14959-2.8114 0.1875-4.4062 0.34139-0.82683 0.33056-2.4618 0.0625-4.875-0.0411-4.5812-0.2999-9.3714-0.6875-12.938-0.51609-4.7484-0.9203-9.9503-0.0312-12.344 0.42971 0.36426 0.86951 0.71884 1.2812 1.0938 1.3374 0.75923 4.1041 3.3799 7.0625 6.7812 3.8187 4.3905 10.595 11.425 15.031 15.656 4.4363 4.2316 11.314 12.515 15.281 18.375 7.0453 10.408 8.8101 12.854 21.219 29.281 3.3189 4.3937 10.225 13.99 15.344 21.312 5.1183 7.3228 12.113 16.535 15.562 20.5 7.4552 8.5693 21.721 28.681 30.562 43.094 11.522 18.783 20.907 32.628 27.656 40.812 3.6614 4.4402 7.0972 8.0888 7.6562 8.0938 1.5174 0.0142-2.3885-8.6458-6.7812-15.031-8.8977-12.934-18.755-28.707-22.031-35.219-1.9292-3.8344-7.7617-13.72-12.969-21.969-5.207-8.2483-11.855-19.588-14.75-25.219-5.0767-9.8746-12.184-20.463-27.719-41.219-8.7119-11.64-10.068-13.577-18.406-25.938-6.9867-10.357-15.86-21.363-22.312-27.719-6.7694-6.668-16.451-20.937-16.5-24.312-0.003-0.009 0.003-0.0222 0-0.0312-0.22581-0.62042-0.375-1.2369-0.375-1.8125 0-1.7383 2.2234-3.6643 3.3438-4.3438 0.61631-0.0298 0.77243 0.044 0.84375 0.0312 8.0037 12.451 19.729 20.924 44.156 25.781 41.48 8.2484 55.13-19.985 54.688-45.844-0.22304-13.023-13.188-34.9-31.062-47.719-0.99118-2.3037 0.26992-5.1762 1.5312-6.4375 1.0969-1.0969 6.9572-3.8444 13-6.125 6.0429-2.2806 12.306-4.824 13.906-5.625 3.6939-1.8483 21.153-0.42149 35.688 2.9062 5.8583 1.3413 14.553 2.8484 19.312 3.3438 4.7598 0.49531 15.526 2.7816 23.938 5.0938l15.312 4.2188 6.9688 9.9688c5.7639 8.2407 13.01 21.887 26.062 49.031 2.2481 4.6752 9.8691 13.012 10.938 11.969 0.51666-0.50453-2.3718-8.032-6.4062-16.719-4.0345-8.6868-8.9521-19.653-10.938-24.375-7.6186-18.121-15.312-31.33-23.031-39.594-4.7976-5.1359-11.585-7.1183-39.594-11.5-12.409-1.9413-26.894-4.689-32.188-6.125-5.6095-1.5217-11.843-2.3144-18-2.375-0.8796-0.009-1.7502 0.0106-2.625 0.0312-8.998 0.212-17.64 1.9606-23.781 5.0938-2.2032 1.124-4.6359 2.0685-6.125 2.4375l-0.5 0.40625s-3.525 0.2708-6.625 2.9062c-1.8328 1.5582-4.183 2.987-6.3125 4.1562-0.8428 0.53664-1.697 1.0732-2.625 1.625-4.3973 2.6144-9.6103 5.5571-16.062 5.4688-0.0209-0.00004-0.0416 0-0.0625 0-7.4636 0-15.375 0.49205-22.781 1.9688-2.9763-2.5075 8.1958-15.635 12.25-18.469 2.3869-1.6685 9.4011-4.3 15.562-5.8125 5.3462-1.3124 8.1674-1.9458 9.9688-2 1.8014-0.0541 2.5808 0.4791 3.8125 1.5938 2.6528 2.4007 6.6777 8.3919 6.9062 10.344 0.57828-0.0513 1.1281-1.3567 4.8125-1.8125l0.46875-0.5625c-1.909-2.3507-6.1566-9.3443-7.2188-12.594-0.41349-1.2649-0.98921-3.8204-2.1875-5.5312-1.2488-1.783-2.0489-2.5431-4.1875-2.6562-0.3208-0.017-0.67593-0.0115-1.0625 0-1.1597 0.0345-2.6398 0.18166-4.625 0.40625-9.8803 1.1178-24.144 5.0933-28.438 7.9062-1.8404 1.2059-9.9773 12.063-18.094 24.125-2.5791 3.8327-8.079 11.608-10.438 15-2.532 2.24-4.6428 4.8771-6.2188 7.9688-0.28882-0.12551-0.52656-0.21688-0.71875-0.3125-0.0197-0.0107-0.0427-0.0206-0.0625-0.0312-0.18942-0.0912-0.38156-0.1913-0.5625-0.25-3.8046-1.9381-8.6594-3.2632-13.781-3.8438-1.9984-3.6196-0.67839-12.594 1.7812-23.156 0.93791-4.0276 2.405-11.82 3.25-17.312 0.84501-5.4921 2.1336-13.303 2.8438-17.375 2.5285-14.497 2.0628-16.326-6.375-25.531-4.2106-4.5935-11.263-11.733-15.656-15.844-15.752-14.739-20.047-18.638-24.656-18.469-1.5365 0.0564-3.1168 0.57491-5.1562 1.2812-6.3708 2.2065-29.931 15.432-32.062 18-0.95347 1.1488-2.2076 2.8695-3.3125 3.9688-1.0847-1.1303-2.2843-2.1345-3.4062-3-1.6904-0.82704-3.7143-2.231-6.25-4.25-7.6814-6.116-12.058-8-18.375-8-3.8417 0-33.662-9.0478-65.875-19.969-7.1472-2.423-10.929-3.8209-16.562-3.6562zm146.47 24.125c0.12539-0.0115 0.22832 0.004 0.34375 0 1.2176 0.57282 2.9395 1.6241 5 3.0625 1.7198 1.8564 6.2214 5.8845 11.531 10.219 6.7736 5.529 14.809 12.973 17.844 16.531l5.5 6.4688-1.1875 11.812c-0.65873 6.4988-1.8461 13.954-2.625 16.562-3.9961 13.383-5.4829 21.808-5.8125 32.688-0.14248 4.7027-0.31964 10.084-1.5312 12.406-5.1792 0.49114-12.5-4.8709-12.5-6.2812 0-0.68686-1.5484-3.0733-3.4062-5.2812s-8.3735-13.943-14.5-26.094-13.482-25.209-16.344-29.031c-5.9349-7.9268-10.953-15.439-13.406-19.938-0.56423-0.87278-1.031-1.7837-1.3125-2.7188-0.0237-0.061-0.0415-0.0986-0.0625-0.15625-0.0148-0.0529-0.0465-0.10341-0.0625-0.15625-0.0443-0.13181-0.0973-0.26394-0.125-0.375-0.0631-0.17763-0.14354-0.35552-0.21875-0.53125 0-4.0762 25.336-18.495 32.875-19.188zm-34.031 17.125c0.20966 0.27304 0.3859 0.5543 0.53125 0.875-0.17036-0.29143-0.33565-0.59108-0.53125-0.875zm66.5 150.28c0.0905 0.16372 0.19109 0.36215 0.3125 0.59375 0.0295 0.14868 0.0876 0.33236 0.0937 0.4375 0.004 0.0115-0.21248-0.53058-0.40625-1.0312z"/>
              <path id="path3127" style="fill:#000000" d="m235.71 316.86c-7.2433 0.21166-17.56 3.0025-42.031 9.4375-29.822 7.8421-65.422 20.844-57.094 20.844 1.1115 0 10.682-2.7528 21.25-6.0938 21.065-6.6593 54.388-15.437 64.406-17 3.0667-0.10984 6.1179 0.00059 9.25 0.28125 1.5707 0.34331 3.2267 0.81056 5.0938 1.4688 4.1924 1.4779 8.5074 2.6875 9.5625 2.6875 3.2954 0 80.664 26.327 84.219 28.656 1.8549 1.2154 4.3511 4.0537 5.5625 6.3125s5.4125 8.8755 9.3125 14.719c3.9 5.8433 10.753 17.568 15.219 26.062 4.4656 8.4946 9.7183 17.562 11.688 20.125 1.9692 2.563 4.6389 6.7495 5.9375 9.3125s4.3806 6.9081 6.8438 9.6562c2.4632 2.7482 4.4688 5.5485 4.4688 6.2188 0 0.67029 0.37191 2.1644 0.8125 3.3125 0.0721 0.18786 0.0885 0.39031 0.0937 0.59375 0.23264-0.5104 0.47965-0.81971 1.125-1.1875 1.5042-0.58022 2.6505-0.61967 3.5312-0.5625 0 0 4.0642 0.34439 4.9062 3.6562 2.0725-1.8158 4.7705-3.876 7.625-5.0312-3.5669-1.1055-8.75-4.3354-8.75-5.875 0-0.68686-1.5484-3.0733-3.4062-5.2812s-8.3735-13.943-14.5-26.094-13.482-25.209-16.344-29.031c-5.9349-7.9268-10.953-15.439-13.406-19.938-0.56423-0.87278-1.031-1.7837-1.3125-2.7188-0.0237-0.061-0.0415-0.0986-0.0625-0.15625-0.0148-0.0529-0.0465-0.10341-0.0625-0.15625-0.0443-0.13181-0.0973-0.26394-0.125-0.375-0.0631-0.17763-0.14354-0.35552-0.21875-0.53125 0-4.0762 25.336-18.495 32.875-19.188 0.12539-0.0115 0.22832 0.004 0.34375 0 1.2176 0.57282 2.9395 1.6241 5 3.0625 1.7198 1.8564 6.2214 5.8845 11.531 10.219 6.7736 5.529 14.809 12.973 17.844 16.531l5.5 6.4688-1.1875 11.812c-0.65873 6.4988-1.8461 13.954-2.625 16.562-3.9961 13.383-5.4829 21.808-5.8125 32.688-0.1667 5.5022-0.34356 8.5308-0.78125 10.219 0.40775-0.007 5.1189-0.6875 5.5312-0.6875 4.1839 0 4.8616 0.3397 7.6875 1.5312-0.0105-0.0178-0.0218-0.0448-0.0312-0.0625-1.3883-2.594-0.6539-10.379 2.125-22.312 0.93791-4.0276 2.405-11.82 3.25-17.312 0.84501-5.4921 2.1336-13.303 2.8438-17.375 2.5285-14.497 2.0628-16.326-6.375-25.531-4.2106-4.5935-11.263-11.733-15.656-15.844-15.752-14.739-20.047-18.638-24.656-18.469-1.5365 0.0564-3.1168 0.57491-5.1562 1.2812-6.3708 2.2065-29.931 15.432-32.062 18-1.0322 1.2437-2.0221 2.9027-3.1875 3.9688 0.99402 0.83956 1.7936 1.9672 2.375 3.25-1.4202-2.4294-3.7892-4.6168-5.9062-6.25-1.6904-0.82704-3.7143-2.231-6.25-4.25-7.6814-6.116-12.058-8-18.375-8-3.8417 0-33.662-9.0478-65.875-19.969-7.1472-2.423-10.929-3.8209-16.562-3.6562zm272.75 82.344c-1.1597 0.0345-2.6398 0.18166-4.625 0.40625-9.8803 1.1178-24.144 5.0933-28.438 7.9062-1.8404 1.2059-9.9773 12.063-18.094 24.125-2.6412 3.925-5.091 7.5032-7.3438 10.75 4.8892-3.8065 11.436-6.4296 18.781-7.25-0.0273-0.0171-0.0514-0.0445-0.0625-0.0625-0.96201-1.5566 8.2628-13.598 12.906-16.844 2.3869-1.6685 9.4011-4.3 15.562-5.8125 5.3462-1.3124 8.1674-1.9458 9.9688-2 1.8014-0.0541 2.5808 0.4791 3.8125 1.5938 2.6528 2.4007 6.6777 8.3919 6.9062 10.344 0.57828-0.0513 1.1281-1.3567 4.8125-1.8125l0.46875-0.5625c-1.909-2.3507-6.1566-9.3443-7.2188-12.594-0.41349-1.2649-0.98921-3.8204-2.1875-5.5312-1.2488-1.783-2.0489-2.5431-4.1875-2.6562-0.3208-0.017-0.67593-0.0115-1.0625 0zm48.375 13.406c-0.8796-0.009-1.7502 0.0106-2.625 0.0312-8.998 0.212-17.64 1.9606-23.781 5.0938-2.2032 1.124-4.6359 2.0685-6.125 2.4375l-0.5 0.40625s-3.525 0.2708-6.625 2.9062c-1.8328 1.5582-4.183 2.987-6.3125 4.1562-0.8428 0.53664-1.697 1.0732-2.625 1.625-4.3973 2.6144-6.7623 3.9397-9.875 4.7188 7.5974 1.1234 14.923 4.4429 21.625 9.0312-0.13863-1.5652 0.47932-3.1043 1.875-4.5 1.0969-1.0969 6.9572-3.8444 13-6.125 6.0429-2.2806 12.306-4.824 13.906-5.625 3.6939-1.8483 21.153-0.42149 35.688 2.9062 5.8583 1.3413 14.553 2.8484 19.312 3.3438 4.7598 0.49531 15.526 2.7816 23.938 5.0938l15.312 4.2188 6.9688 9.9688c5.7639 8.2407 13.01 21.887 26.062 49.031 2.2481 4.6752 9.8691 13.012 10.938 11.969 0.51666-0.50453-2.3718-8.032-6.4062-16.719-4.0345-8.6868-8.9521-19.653-10.938-24.375-7.6186-18.121-15.312-31.33-23.031-39.594-4.7976-5.1359-11.585-7.1183-39.594-11.5-12.409-1.9413-26.894-4.689-32.188-6.125-5.6095-1.5217-11.843-2.3144-18-2.375zm-380 13.594c-1.433 0.0116-2.9089 0.0448-4.4375 0.0937-29.545 0.94545-58.851 4.6767-95.531 12.125-18.405 3.7373-20.587 4.3814-19.625 5.9375 0.83223 1.3466 5.8816 0.68108 26.594-3.5625 28.72-5.8843 70.15-9.4512 83.219-7.1562 7.5429 1.3246 12.615 2.0688 51.25 7.3438 20.624 2.8158 40.457 7.4956 69.906 16.531 4.7599 1.4604 11.972 3.6662 16 4.9062 4.0276 1.24 15.686 6.601 25.938 11.906 10.252 5.3053 22.602 10.932 27.438 12.5 7.1658 2.3233 11.653 4.496 12.812 6.125 2.0287-0.94317 5.6899-0.75139 7.9375-1.2188 1.9482-0.4051 5.2461-0.33639 7.2812-1.2188l2.9062-6.0937c-0.0254-2.2763 0.79896-4.7654-0.15625-6.7812-0.38554-0.81364-2.0679 0.50738-3.4375 0.71875-1.3696 0.21136-5.2872-0.0523-9.7812-0.6875-6.2764-0.88717-12.92-3.6361-28.594-11.812-14.074-7.3416-26.372-12.567-39.688-16.875-28.987-9.3775-30.412-9.7395-42.625-10.406-6.2244-0.33977-14.597-1.5624-18.625-2.7188-4.0276-1.1563-18.712-3.8784-32.625-6.0625-17.679-2.7753-26.126-3.6748-36.156-3.5938zm315.28 8.5312c-30.756 0-68.988 8.5724-49.125 58.281 2.9367 7.3494 5.789 13.856 9.4062 19.531 0 0-1.4147-1.2488-2.1875-1-0.19608 0.0631-0.41289-0.13057-0.59375-0.34375s-0.3125-0.46875-0.3125-0.46875c-3.107-5.2373-5.6823-11.136-8.3125-17.719-6.4555-16.156-5.9972-27.633-2.2812-36.25 0.00012 0.005 0.009-0.0316 0.0625-0.125 0.081-0.14633 0.20909-0.38005 0.375-0.625 0.42832-0.56256 1.1875-1.0312 1.1875-1.0312l0.25-0.34375s-0.32009-0.1765-0.65625-0.34375c-0.0197-0.0107-0.0427-0.0206-0.0625-0.0312-0.18942-0.0912-0.38156-0.1913-0.5625-0.25-5.3021-2.7008-12.648-4.2689-19.906-4.1875-0.79121-0.009-1.5913 0.001-2.4062 0.0312-20.122 0.74353-25.085 23.164-25.219 31.219-0.0672 4.0477 1.2205 19.246 21.219 21.594 15.43 1.8113 28.963 11.234 37.188 10.188 0.11417-0.006 1.0194 0.0168 1.2188 0 0.69387-0.0426 1.0815-0.11166 1.1562-0.125 8.0037 12.451 19.729 20.924 44.156 25.781 41.48 8.2484 55.13-19.985 54.688-45.844-0.32994-19.264-28.526-57.938-59.281-57.938zm-97.906 17.469c-0.8218 0.0695-1.7517-0.0906-3.125 0.71875-0.90559 0.53371-0.4713 1.3824-1.4062 2.0625l-0.3125-0.0937s-3.8693-1.1932-5.0625 0c-1.0238 1.0238 0 4.3438 0 4.3438-0.96216 1.4789-1.686 3.3142-2.0938 5.2812 0 0-2.8643 0.63375-3.1875 1.8125-0.51697 1.8852 2.9062 5.0938 2.9062 5.0938l0.21875-0.12505c0.12757 0.63096 0.28623 1.2526 0.5 1.8438 0.3331 0.92117 1.7569 3.4453 2.1875 3.4375 0 0 0.6618-0.67815 1.5312-0.625 0.86945 0.0531 3.2053 1.3048 3.75 0.625 2.6956-3.3644 2.9188-8.2859 5.1875-13.969 2.2687-5.6829 4.7278-4.3069 4-6.9375-0.95219-3.4416-5.0938-3.4688-5.0938-3.4688zm-3.9062 31.188-3.7812 8.0312c-2.0352 0.88236-5.3643 0.81365-7.3125 1.2188-2.6297 0.54681-7.1914 0.16017-8.8125 1.7812-0.57328 0.57329-4.1807 1.4283-8 1.9062-31.311 3.9182-72.844 13.807-72.844 17.344 0 0.33586-0.89974 0.68552-1.375 0.90625-0.47527 0.22072-0.95747 0.3125-1.25 0.3125-3.6048 0-36.409 16.972-58.969 30.531-5.0016 3.0062-6.4419 5.4062-3.2812 5.4062 0.92708 0 7.9477-3.621 15.625-8.0625 25.712-14.875 44.882-23.261 50.156-21.938 1.7023 0.42724 10.441-1.0618 19.406-3.3125 26.843-6.7392 40.743-8.1674 69.156-7.125 10.647 0.39061 16.868 0.5318 20.844 0.375 0.12721-0.006 0.25322 0.008 0.375 0 0.27772-0.0126 0.46347-0.0466 0.71875-0.0625 3.3815-0.2109 4.9419-0.69572 6.3125-1.5938 5.43-3.5579 7.1714-0.43629 7.0625-1.1875-0.0795-0.54845-0.11564-1.4772-0.15625-1.7812 0.11745-0.40169 0.36505-1.3351 0.6875-1.8125 0.25494-0.37746-0.8641-0.125-1.25-0.125-11.869 0-21.674-9.0403-23.312-20.812zm26.125 20.969c-0.10613 0.2079-0.20183 0.41498-0.34375 0.59375-1.0554 1.3294-1.1191 2.9708-1.0312 4.4688 0.007 0.0195 0.0247 0.0426 0.0312 0.0625 0.25895 0.77133 0.375 1.8276 0.375 3.1562 0 3.6668 0.98053 5.6938 4.2188 8.7188 0.86912 0.81188 1.5609 1.4587 2.125 2.1562 1.3142 0.47165 2.6871 1.0533 4.0938 1.7812 3.2672 1.6907 6.293 3.9046 8.9375 6.3125 1.3374 0.75923 4.1041 3.3799 7.0625 6.7812 3.8187 4.3905 10.595 11.425 15.031 15.656 4.4363 4.2316 11.314 12.515 15.281 18.375 7.0453 10.408 8.8101 12.854 21.219 29.281 3.3189 4.3937 10.225 13.99 15.344 21.312 5.1183 7.3228 12.113 16.535 15.562 20.5 7.4552 8.5693 21.721 28.681 30.562 43.094 11.522 18.783 20.907 32.628 27.656 40.812 3.6614 4.4402 7.0972 8.0888 7.6562 8.0938 1.5174 0.0142-2.3885-8.6458-6.7812-15.031-8.8977-12.934-18.755-28.707-22.031-35.219-1.9292-3.8344-7.7617-13.72-12.969-21.969-5.207-8.2483-11.855-19.588-14.75-25.219-5.0767-9.8746-12.184-20.463-27.719-41.219-8.7119-11.64-10.068-13.577-18.406-25.938-6.9867-10.357-15.86-21.363-22.312-27.719-6.7694-6.668-16.451-20.937-16.5-24.312-0.003-0.009 0.003-0.0222 0-0.0312-0.22581-0.62042-0.375-1.2369-0.375-1.8125 0-1.2903 0.61802-2.251 1.6562-2.8125-7.8314 0.15778-19.864-7.5429-33.594-9.875zm6.2188 21.688c1.1971 2.5736 1.0776 5.0045 2 15.719 1.259 14.624 2.4734 18.092 2.75 21.062 0.27656 2.9704-0.85979 4.1229-0.125 13.781 1.9676 25.863 5.2531 43.466 7.6875 41.031 1.0077-1.0077 0.96856-7.2624-0.15625-21.531-0.87263-11.071-1.2239-25.036-0.78125-31.031 0.0959-1.2984 0.14959-2.8114 0.1875-4.4062 0.34139-0.82683 0.33056-2.4618 0.0625-4.875-0.0411-4.5812-0.2999-9.3714-0.6875-12.938-0.54055-4.9735-0.58328-9.1078-0.375-11.031-1.5717-1.7327-4.0572-3.3052-5.125-3.9062-1.9012-1.0702-3.1617-1.962-5.4375-1.875z"/>
              <path id="path3047" style="filter:url(#filter3988);fill:#999999" d="m393.77 455.7c-1.2192 0-2.2188 0.99954-2.2188 2.2188 0 1.2192 0.99954 2.1875 2.2188 2.1875 1.2192 0 2.1875-0.96829 2.1875-2.1875s-0.96829-2.2188-2.1875-2.2188zm0 0.59375c0.89145 0 1.5938 0.73355 1.5938 1.625s-0.7023 1.5938-1.5938 1.5938c-0.89145 0-1.625-0.7023-1.625-1.5938 0-0.89145 0.73355-1.625 1.625-1.625zm-2.5 4.875c-1.2192 0-2.2188 0.99954-2.2188 2.2188 0 1.2192 0.99954 2.1875 2.2188 2.1875 1.2192 0 2.1875-0.96829 2.1875-2.1875s-0.96829-2.2188-2.1875-2.2188zm0 0.59375c0.89145 0 1.5938 0.73355 1.5938 1.625s-0.7023 1.5938-1.5938 1.5938c-0.89145 0-1.625-0.7023-1.625-1.5938 0-0.89145 0.73355-1.625 1.625-1.625z"/>
              <path id="path3014" style="filter:url(#filter3804);fill:#c6340b" d="m493.39 449.95c-6.6179 0-12 5.0036-12 11.156 0 6.1526 5.3821 11.125 12 11.125 1.8178 0 3.519-0.38906 5.0625-1.0625 0.63386 2.175 1.5029 4.5088 2.5938 6.9688 3.4772 7.8414 16.547 12.318 25.344 14.812 0.8517 7.1867 11.877 17.537 15.743 23.496 2.5885 3.9906 6.1907-12.057 6.1907-19.243 0-6.0328-6.3691-14.403-10.903-17.19-1.0761-3.4621-2.7952-6.9778-5.2812-9.9375-7.0553-8.3993-19.907-11.644-27.312-12.312-1.5263-4.5207-6.0713-7.8125-11.438-7.8125z"/>
              <path id="path3810" style="filter:url(#filter3850);fill:#e8810b" d="m488.42 455.2c-0.65533 0.0454-1.4928 0.23727-2.5625 0.59375-3.0393 1.0128-2.0206 9.5628 1.75 12 2.9458 1.9041 10.509 2.6312 13.625 2.125-1.3473 3.204 0.77758 10.092 3.875 12.094 3.7706 2.4372 17.444 8.8746 17.312 7.3438-0.3706-4.3242-13.355-5.2966-17.312-10.656-2.1851-2.9596-2.4384-7.7548-2.4688-9.4688-0.00026-0.0145 0.00022-0.0172 0-0.0312-0.002-0.0234 0.002-0.0397 0-0.0625-0.004-0.30088-0.0312-0.71875-0.0312-0.71875-0.0453 0.0181-0.0816 0.0419-0.125 0.0625-1.1629-2.9692-7.8641 1.1654-11.562-3.8438-2.3334-3.1604 2.0873-9.7552-2.5-9.4375z"/>
              <path id="path3824" style="filter:url(#filter3866);fill:#e8de82" d="m435.38 443.87c0 1.5091-1.2234 2.7325-2.7325 2.7325s-2.7325-1.2234-2.7325-2.7325 1.2234-2.7325 2.7325-2.7325 2.7325 1.2234 2.7325 2.7325z" transform="translate(56.924 16.528)"/>
              <path id="path3830" style="filter:url(#filter3837);fill:#cccccc" d="m484.74 491.71c5.4373 2.4041 12.409 28.169 14.546 23.336 2.137-4.8332-8.5461-38.434-13.983-40.838-5.4373-2.4041-11.577-0.43496-13.714 4.3982s7.7148 10.7 13.152 13.104z"/>
              <path id="path3870" style="filter:url(#filter3902);fill:#cccccc" d="m402.99 484.84c14.34 10.913 16.507 0.47015 20.541 7.9458 2.6114 4.8399 20.815 8.5183 18.814 9.7929-2.3008 1.4654-44.453-10.252-45.09-18.695-0.25171-3.3343 2.2114-6.0545 4.9392-6.0545s-1.8642 4.9854 0.79664 7.0105z"/>
              <path id="path3873" style="filter:url(#filter3894);fill:#ffffff" d="m410.5 471.63c0 1.3477-3.7388 4.1536-6.3342-0.2596-1.5263-2.5953-5.8669-0.0541-5.8669-1.4018s3.6868-1.8691 6.6977-1.8691c3.0108 0 5.5035 2.1828 5.5035 3.5306z"/>
              <path id="rect3906" style="filter:url(#filter3963);fill:#ffffff" d="m238.77 321.52c-0.1808-0.008-0.3341 0.01-0.4375 0.0312-0.10673 0.0223-0.1684 0.0695-0.1875 0.125-0.93452 2.717 64.583 19.249 69.75 23.75 4.9202 4.2861 5.3438-1.1562 5.3438-1.1562s-13.817-4.5847-20.469-6.5312c-6.7506-1.9753-48.395-15.975-54-16.219zm82.594 23.844c-5.1171 0.16057-3.0625 2.3125-3.0625 2.3125s-0.2401 1.7122 6.6562 2.4062c5.3482 0.53828 13.605 11.36 13.344 7.875-0.21492-2.8651-11.016-12.496-15.812-12.594-0.40774-0.008-0.78386-0.0107-1.125 0zm155.78 66.812c-2.5706 0.27579-6.85 6.1588-9.6562 9.2812-4.3617 4.8533-3.1875 7.0625-3.1875 7.0625s3.7825-4.0438 8.8125-8.8125c3.9008-3.6982 7.8408-5.203 5.0312-7.2812-0.28874-0.21358-0.63277-0.2894-1-0.25zm76.625 4.5312c-0.62809 0.033-1.2556 0.15765-1.8125 0.375-2.6928 1.0511-2.6875 3.7812-2.6875 3.7812s2.0909 0.25944 5.0312-0.625c2.2803-0.68589 3.7912-0.89914 3.0938-2.2812-0.35841-0.71019-1.6185-1.1956-3-1.25-0.20722-0.008-0.41564-0.011-0.625 0zm-10.062 1.9375c-3.5785 0.18516-9.9301 3.3802-14 4.9688-7.3803 2.8807-7.3125 5.9062-7.3125 5.9062s6.285-2.326 14.344-4.75c6.2497-1.8799 11.349-1.3682 9.4375-5.1562-0.39292-0.77859-1.2759-1.0305-2.4688-0.96875zm-26.594 10.031c-0.1634-0.00087-0.32812 0.013-0.5 0.0312-0.45835 0.0486-0.94251 0.1818-1.4375 0.375-2.6928 1.0511-0.84375 3.0938-0.84375 3.0938s0.2784 0.94694 3.2188 0.0625c2.2803-0.68589 2.6975-0.96164 2-2.3438-0.37633-0.7457-1.2937-1.2126-2.4375-1.2188zm-344.88 0.375c-1.3602 0.0402-3.0249 0.30676-4.375 0.5-3.6723 0.52559-2.2812 1.3125-2.2812 1.3125s1.1609 0.68247 5.0938 0.4375c3.05-0.18997 4.6547 0.61857 4.1875-1.3125-0.19207-0.79385-1.2648-0.97768-2.625-0.9375zm13.438 0.59375c-5.803 0.14519-9.2188 2.1875-9.2188 2.1875s15.691 0.46467 22.562 1.375c7.4299 0.98435 59.01 11.912 59.344 10.062 0.50967-2.8276-66.672-13.527-71.469-13.625-0.40774-0.008-0.83189-0.01-1.2188 0zm205.81 13.562c-0.99381 0.14156-1.4375 1.3438-1.4375 1.3438s-0.71056 0.71223 1.4375 2.9062c1.6658 1.7015 2.0995 1.9468 3 0.6875 0.74038-1.0353 0.29095-2.8549-1.3125-4.25-0.68149-0.59295-1.2358-0.75185-1.6875-0.6875zm-122.81 1.0312c-6.5239-0.13281-4.3438 1.5625-4.3438 1.5625s1.8224 1.5559 8.7188 2.25c5.3482 0.53828 7.8552 2.4224 7.5938-1.0625-0.21492-2.8651-7.1719-2.6523-11.969-2.75zm150.94 1.5c-0.74814-0.0311-1.4375 0.21875-1.4375 0.21875s-1.1233 0.009-0.96875 2.2812c0.11983 1.7619 0.29894 2.1242 2.0312 1.875 1.4242-0.20489 2.426-1.4066 2.125-2.9688-0.2047-1.0623-1.0019-1.3752-1.75-1.4062zm-46.344 38.438c-3.2778-0.0969-2.1562 1.1875-2.1562 1.1875s-1.0274 1.7748 2.4375 2.2812c2.687 0.39276 2.2117 0.93883 2.6875-1.5625 0.27595-1.4507-0.55867-1.835-2.9688-1.9062zm11.977 10.511c-4.4922-0.13281-2.9688 1.5625-2.9688 1.5625s1.2513 1.5559 6 2.25c3.6827 0.53828 5.43 2.4224 5.25-1.0625-0.14799-2.8651-4.9782-2.6523-8.2812-2.75zm-25.321 2.5205c-0.0655-0.002-0.12779 0.0147-0.1875 0.0312-0.28659 0.0793-0.5 0.34375-0.5 0.34375s0.94865 0.88972 1.0625 5.6875c0.0883 3.7208-4.3332 4.0136-0.84375 4.0312 2.0119 0.0102 2.3025-3.79 1.8438-7.0625-0.34127-2.4339-0.91668-3.0147-1.375-3.0312zm-18.438 5.9062c-11.276 0.22949-46.741 10.094-49.594 11.438-4.5983 2.1662-5.7188 3.5312-5.7188 3.5312s11.597-3.1586 16.562-4.6875c5.369-1.6532 42.336-7.365 42.156-9.2812-0.069-0.73367-1.318-1.0425-3.4062-1zm84.188 23.656c-0.0135 0.0249-0.003 0.10456 0.0625 0.25 1.458 3.2231 1.7072 5.571 0.75 12.188-0.17913 1.2382 4.1187 0.48693 3.4375-0.5625-2.91-4.4833-0.62176-5.3999-1.9062-8.5312-0.42407-1.0338-2.2492-3.5184-2.3438-3.3438zm4 16.312c-0.38496 0.0346-0.69838 0.13469-0.65625 0.34375 1.5028 7.4576-2.4537 9.1185 0.84375 11.562 0.45688 0.33864 1.2223 5.0068 1.4062 4.4688 1.164-3.4041-0.88114-8.1286-0.125-15.906 0.0344-0.35376-0.82715-0.52636-1.4688-0.46875zm38.031 12.594c-0.81766 0-1.5 0.79606-1.5 1.75s0.68234 1.7188 1.5 1.7188 1.4688-0.76481 1.4688-1.7188c0-0.95394-0.65109-1.75-1.4688-1.75zm-34.312 7.5312c-0.11285 0.005-0.26046 0.0197-0.40625 0.0937-0.6955 0.35307-2.148 2.3632-4.0625 0.4375-0.17291-0.17392-0.62351-0.36107-0.75-0.3125-0.54812 0.21049-0.51476 1.9372 0.53125 2.125 1.9046 0.34195 2.8663 0.2951 4.4062-0.4375 1.0335-0.49166 1.0712-1.9445 0.28125-1.9062zm45 4.4062c-1.4062-0.0148-3.0213 1.5324-3.2812 2.9062-0.50876 2.6885 6.984 7.4251 12.594 14.656 10.066 12.975 35 45.469 35 45.469s-17.021-29.672-27.656-40.625c-6.3754-6.566-12.211-20.814-16.062-22.281-0.18667-0.0711-0.39286-0.12289-0.59375-0.125zm48.312 65.781c-0.66582 0.0109-1.2834 0.0684-1.75 0.25-2.2635 0.8807-2.9688 4.7188-2.9688 4.7188s3.0254-1.6644 4.6875-2c1.4512-0.29306 4.4375 0 4.4375 0v-2.4688s-2.4088-0.53273-4.4062-0.5zm1.5625 4.9688c-0.74952 0-1.3438 0.82167-1.3438 1.8438s0.59423 1.8438 1.3438 1.8438c0.74952 0 1.375-0.82167 1.375-1.8438s-0.62548-1.8438-1.375-1.8438z"/>
              <path id="path3967" style="filter:url(#filter3977);fill:#f9f9f9" d="m374.58 484.48c-0.80426 0-1.4688 0.63324-1.4688 1.4375s0.66449 1.4688 1.4688 1.4688c0.80426 0 1.4375-0.66449 1.4375-1.4688 0-0.80426-0.63324-1.4375-1.4375-1.4375zm12.215 10.477c-0.57447 0-1.0312 0.45678-1.0312 1.0312 0 0.57447 0.45678 1.0625 1.0312 1.0625 0.57447 0 1.0625-0.48803 1.0625-1.0625s-0.48803-1.0312-1.0625-1.0312zm4.6246 2.3836c-0.9766 0-1.7812 0.94986-1.7812 2.1562 0 1.2064 0.80465 2.1875 1.7812 2.1875 0.9766 0 1.7812-0.98111 1.7812-2.1875s-0.80465-2.1562-1.7812-2.1562zm10.192 6.2649c-1.6085 0-2.9062 0.98111-2.9062 2.1875s1.2977 2.1875 2.9062 2.1875 2.9062-0.98111 2.9062-2.1875-1.2977-2.1875-2.9062-2.1875z"/>
              <path id="path3994" style="filter:url(#filter4003);fill:#f2f2f2" d="m394.24 456.7c-0.52401 0-0.9375 0.41349-0.9375 0.9375s0.41349 0.96875 0.9375 0.96875 0.96875-0.44474 0.96875-0.96875-0.44474-0.9375-0.96875-0.9375zm-2.3125 5.3438c-0.52401 0-0.9375 0.41349-0.9375 0.9375s0.41349 0.96875 0.9375 0.96875 0.9375-0.44474 0.9375-0.96875-0.41349-0.9375-0.9375-0.9375z"/>
              <path id="path4007" style="fill:#ffffff" d="m381.3 464.05c0 0.24597-0.19939 0.44536-0.44535 0.44536s-0.44536-0.19939-0.44536-0.44536c0-0.24596 0.1994-0.44535 0.44536-0.44535s0.44535 0.19939 0.44535 0.44535z" transform="translate(11.26 -1.203)"/>
              <path id="path4009" style="fill:#ffffff" d="m381.3 464.05c0 0.24597-0.19939 0.44536-0.44535 0.44536s-0.44536-0.19939-0.44536-0.44536c0-0.24596 0.1994-0.44535 0.44536-0.44535s0.44535 0.19939 0.44535 0.44535z" transform="translate(13.7 -6.5472)"/>
            </g>
          </g>
        </g>
      </g>
    </pattern>
    <filter id="filter3988" color-interpolation-filters="sRGB">
      <feGaussianBlur id="feGaussianBlur3990" stdDeviation="0.20976563"/>
    </filter>
    <filter id="filter3804" color-interpolation-filters="sRGB">
      <feGaussianBlur id="feGaussianBlur3806" stdDeviation="1.364219"/>
    </filter>
    <filter id="filter3850" height="1.3045" width="1.2732" color-interpolation-filters="sRGB" y="-.15226" x="-.13659">
      <feGaussianBlur id="feGaussianBlur3852" stdDeviation="2.1823858"/>
    </filter>
    <filter id="filter3866" height="1.6" width="1.6" color-interpolation-filters="sRGB" y="-0.3" x="-0.3">
      <feGaussianBlur id="feGaussianBlur3868" stdDeviation="0.68312067"/>
    </filter>
    <filter id="filter3837" height="1.4997" width="1.7506" color-interpolation-filters="sRGB" y="-.24987" x="-.37528">
      <feGaussianBlur id="feGaussianBlur3839" stdDeviation="4.4212984"/>
    </filter>
    <filter id="filter3902" height="1.4814" width="1.2875" color-interpolation-filters="sRGB" y="-.24072" x="-.14374">
      <feGaussianBlur id="feGaussianBlur3904" stdDeviation="2.2212563"/>
    </filter>
    <filter id="filter3894" height="1.947" width="1.4391" color-interpolation-filters="sRGB" y="-.47352" x="-.21955">
      <feGaussianBlur id="feGaussianBlur3896" stdDeviation="1.1161421"/>
    </filter>
    <filter id="filter3963" color-interpolation-filters="sRGB">
      <feGaussianBlur id="feGaussianBlur3965" stdDeviation="1.7819387"/>
    </filter>
    <filter id="filter3977" color-interpolation-filters="sRGB">
      <feGaussianBlur id="feGaussianBlur3979" stdDeviation="0.68632812"/>
    </filter>
    <filter id="filter4003" color-interpolation-filters="sRGB">
      <feGaussianBlur id="feGaussianBlur4005" stdDeviation="0.14335938"/>
    </filter>
    <pattern id="pattern-0-1" patternTransform="matrix(0.873376, 0.487048, -0.487046, 0.873376, 244.144699, 718.484253)" xlink:href="#pattern-0"/>
  </defs>
  <rect id="svgEditorBackground" x="202.71499633789062" y="584.4310302734375" width="86.59329986572266" height="115.80899810791016" style="fill: none; stroke: none;" class="clothes"/>
  <rect id="rect-1" x="-403.988" y="499.579" width="1300" height="550" style="fill: none; stroke: none;" class="clothes"/>
  <polygon id="e1_polygon" style="stroke-width: 0px; stroke: none; fill: url(#pattern-0-1);" points="239.073 683.29 251.445 672.98 270.689 666.107 276.187 674.355 281.686 686.039 274.813 720.404 277.562 755.457 285.122 763.705 285.122 762.33 269.314 766.454 261.754 731.401 262.441 718.342 262.441 719.03 257.63 733.463 260.379 739.649 274.813 767.828 282.373 780.887 289.934 787.76 206.082 798.07 217.079 782.261 217.079 765.766 233.575 737.587 235.636 726.59 232.2 713.531 227.389 707.346 231.513 723.841 232.2 730.714 224.64 766.454 219.828 765.079 208.144 767.828 208.832 767.828 218.454 748.584 218.454 747.897 219.141 730.027 209.519 689.476 221.89 690.85" class="clothes"/>
  <g transform="matrix(0.049917, 0, 0, 0.049917, 220.950012, 702.408997)">
    <rect id="rect-2" x="-972.286" y="-4226.448" width="1734.746" height="2320.031" style="fill: none; stroke: none;" class="clothes"/>
    <rect id="rect-3" x="-13126.523" y="-5926.307" width="26043.231" height="11018.29" style="fill: none; stroke: none;" class="clothes"/>
    <path d="M 291.263 484.607 C 182.382 -70.394 -0.862 53.511 149.347 -191.315 C 193.24 -262.874 418.835 -361.137 473.766 -306.206 C 488.11 -291.862 506.36 -162.687 500.811 -198.046 C 482.46 -314.86 487.969 -225.793 521.084 -258.887 C 563.094 -300.896 808.462 -389.344 859.046 -299.434 C 1050.303 40.53 693.931 -33.974 832.001 241.263 C 843.219 263.64 696.817 755.316 696.817 667.09" style="stroke: rgb(70, 70, 70); fill: url(#pattern-0-0);"/>
  </g>
  <path d="M 277.61 789.286 C 279.932 791.607 279.123 801.257 278.229 806.617 C 275.992 820.042 278.848 835.226 278.848 848.707" style="stroke: rgb(0, 0, 0); fill: rgb(216, 216, 216); stroke-width: 0.6; stroke-opacity: 0.75;"/>
  <g transform="matrix(0.000664, 0.054856, -0.054896, 0.000665, 288.348053, 840.879333)">
    <g clip-rule="evenodd" fill-rule="evenodd">
      <path d="m196.98 214.02c-9.23 1.206-12.292 10.126-17.998 14.998-11.417 9.747-28.095 19.973-49.994 16.998-8.482-1.152-20.606-6.137-27.996-10.999-7.235-4.76-9.177-8.041-14.998-14.998-2.579-3.081-6.701-5.75-7.999-7.999-3.354-5.811-4.033-14.46-7-19.997-1.547-1.785-6.001-0.664-6.999-3 2.198-4.527 3.081-2.799 0-6.999 1.926-1.407 4.023-2.643 6.999-3 5.014-17.338 17.409-34.332 32.996-43.994 11.479-7.117 33.366-14.248 50.994-7 15.709 6.46 29.76 20.593 42.995 29.997-12.764-16.901-37.814-30.176-48.994-51.994-5.303-2.696-10.947-5.05-13.998-9.999-14.68-5.318-33.565-6.43-43.995-15.998-11.06-0.957-21.925-5.303-32.996-7.999-11.268-2.745-23.096-4.299-32.996-7.999-4.103-1.534-8.737-5.095-12.999-7-4.288-1.919-11.287-1.518-11.004-8.004 7.371-2.747 16.046-0.777 22.997 1 8.413 2.15 16.168 7.328 24.997 9.999 4.508 1.364 9.355 1.645 13.998 3 4.121 1.203 8.027 3.991 11.999 5 7.454 1.893 16.166 0.333 23.997 2 5.526 1.176 11.649 5.14 17.998 7.999 2.786 1.255 5.853 2.649 8.999 4 5.831 2.502 9.95 4.507 18.998 5 5.167 2.165 6.468 8.197 8.999 12.999 1.289 1.377 4.343 0.989 6.999 1 20.113 18.216 32.377 44.28 56.993 57.993 6.841-9.387-3.629-18.169-7.999-25.997-4.941-8.85-7.179-18.912-12.999-25.997-1.058-13.129-14.179-21.364-22.997-30.996-8.231-8.991-14.238-18.574-20.998-25.997-11.526-12.658-21.604-24.091-33.996-35.995-3.378-3.245-10.456-7.702-6.999-13.999 7.512-0.751 11.324 7.685 15.998 11.999 14.525 13.405 29.009 30.259 41.995 45.994 2.872 0.795 5.308 2.024 7.999 3 8.877 13.787 17.988 27.339 28.996 38.995-0.22 3.219 1.769 4.23 1 7.999 1.733 3.266 6.969 3.029 8.999 5.999 5.477 17.521 11.052 34.942 18.998 49.994 2.121-2.545 1.152-8.18 3-10.999 11.593-16.07 26.802-28.525 39.995-42.995 3.22 0.22 4.23-1.769 7.999-1 1.789-1.877 3.57-3.762 4.999-5.999 22.77-9.76 42.994-25.147 66.992-33.996 17.432-6.428 33.383-15.293 51.993-22.998 5.365-2.221 12.458-6.75 18.998-4 0.935 8.03-9.1 9.967-13.999 11.999-17.863 7.408-34.643 15.168-51.993 24.997-22.141 12.542-45.267 22.697-65.991 35.996-2.396 0.604-4.562 1.438-7.999 1-1.588 2.745-4.049 4.617-5 7.999-6.951 5.423-13.479 11.15-19.997 16.998-5.95 5.339-14 11.037-15.998 19.998 9.833-5.175 21.141-12.046 33.996-16.998 6.304-2.428 13.208-4.05 19.997-6.999 5.944-2.582 12.266-7.005 17.998-7.999 4.734-0.821 10.114 0.518 14.998 0 11.216-1.188 21.275-6.947 31.996-9.999 23.18-6.599 47.866-8.733 71.99-13.999 23.677-5.167 46.205-15.273 68.992-14.998 1.846 9.867-6.985 9.116-15.998 9.999-16.194 1.587-38.014 9.712-54.993 13.998-6.421 1.621-13.209 2.241-18.998 4-4.618 1.402-8.112 5.327-12.998 6.999-15.61 5.343-35.96 4.94-52.993 9.999-2.944 0.874-5.044 3.112-7.999 4-6.917 2.077-14.571 2.011-20.998 3.999-10.929 3.382-21.388 8.831-31.996 11.999-9.791 2.924-25.038 2.301-28.996 13.999 7.83 0.174 25.785-3.09 34.996 1 1.853 2.146 0.674 7.324 1 10.999-4.19 0.856-2.19-4.476-4-6h-15.998c-2.276 2.02 4.619 3.323 4 6.999-3.727-0.743-9.028-2.308-9.999 2-0.651 4.812 7.422 5.151 8.999 2 3.176 4.222-4.617 6.015-6 8.999 10.037 1.037 16.668-1.331 22.998-4 1.453 16.78-26.425 10.354-36.996 8.999 3.261 12.251 21.347 9.563 33.996 12.998 7.268 1.974 18.645 8.209 25.997 10.999 7.698 2.921 16.71 2.87 25.996 4.999 13.944 3.197 28.794 8.044 43.995 10.999 7.898 1.535 15.931 2.689 22.997 4.999 7.232 2.364 13.357 5.743 19.997 6.999 4.705 0.891 9.331 0.261 13.998 1 16.114 2.552 30.645 9.07 44.994 11.999 6.038 1.231 14.938-2.835 14.999 8.998-7.406 3.341-15.825-0.271-22.997-1.999-22.604-5.447-45.826-8.541-68.992-11.999-22.043-3.29-44.978-10.509-64.991-16.998-4.545-1.473-7.962-4.583-13.999-4.999-2.725-0.188-6.431 1.438-8.998 1-3.688-0.629-6.665-4.006-9.999-4.999-6.591-1.965-14.106-1.973-20.997-4-17.922-5.271-36.022-12.437-50.994-21.997 9.876 15.121 24.02 25.975 36.995 37.995 0.576 2.091 2.479 2.854 2 5.999 3.998-0.331 5.55 1.782 9.999 1 13.959 13.038 33.373 20.62 52.993 27.997 11.591 8.784 24.76 16.903 38.995 23.996 6.606 3.292 13.811 6.823 20.997 9.999 6.378 2.818 16.792 3.623 18.998 11.999-5.553 5.437-12.042 0.231-16.998-2-5.623-2.532-11.688-4.502-16.998-6.999-14.809-6.964-25.512-16.755-44.994-18.998-8.443-5.744-17.13-11.584-26.996-16.998-13.07-7.171-28.783-10.511-36.996-21.997-3.708 0.709-4.291-1.708-7.999-1-14.563-16.432-32.259-29.733-42.994-49.993-9.052 13.279-13.005 31.656-18.998 47.994-2.797 1.868-4.878 4.453-8.999 4.999 0.196 3.863 0.036 7.368-1 9.999-11.63 10.7-21.141 23.52-29.996 36.995-3.056-0.723-3.644 1.022-6 1-18.199 17.463-31.979 39.345-52.993 53.993-1.69 2.891-5.384 6.604-7.999 3-2.667-5.96 4.27-10.182 8.999-11.999 25.009-27.65 49.9-55.419 75.99-81.989 3.669-7.942 5.308-15.812 8.999-23.997 5.3-11.753 19-21.506 14.998-34.996-22.711 14.618-36.786 37.871-54.993 56.993-2.833 0.167-4.167 1.832-6.999 2-3.87 2.796-5.194 8.137-8.999 10.998-14.155 1.784-22.79 4.259-34.996 9.999-3.941 1.854-6.921 5.238-9.999 5.999-7.093 1.755-15.045-0.308-21.998 1-7.643 1.438-15.245 5.951-22.997 7.999-3.228 0.853-7.03 0.12-9.999 1-5.218 1.546-9.96 4.173-14.998 5.999-5.383 1.951-10.256 2.771-15.998 4-3.779 0.809-10.853 5.571-14.998 0 0.968-6.719 9.033-6.996 13.998-8.999 4.838-1.952 10.108-5.48 14.998-6.999 19.15-5.947 42.905-6.236 61.992-13.999 6.427-2.613 10.482-5.946 18.998-7.999 7.284-1.755 15.112-2.181 21.998-4.999 6.041-2.473 9.442-8.468 15.998-8.999 10.87-23.43 35.31-33.32 48.97-53.99z"/>
      <path d="m131.98 183.02c-8.182-1.77-11.652-12.618-19.998-10.999-2.207 6.995-1.354 19.998 0 28.997 11.081-0.477 11.027-11.73 19.998-11.999 8.958-0.268 9.628 10.647 20.997 10.999 0.747-7.473 3.599-24.643-2-28.997-7.45-1.1-10.02 11.3-19 12z"/>
      <path fill="#EE3224" d="m150.98 171.02c5.598 4.354 2.746 21.524 2 28.997-11.369-0.352-12.039-11.267-20.997-10.999-8.971 0.269-8.917 11.522-19.998 11.999-1.354-8.999-2.207-22.002 0-28.997 8.345-1.619 11.816 9.229 19.998 10.999 8.98-0.7 11.55-13.1 19-12z"/>
    </g>
  </g>
</svg>