<?xml version="1.0" encoding="utf-8"?>
<svg class="glasses" width="86" height="380" viewBox="202.715 584.407 86.5933 380.048" preserveAspectRatio="xMidYMax" xmlns="http://www.w3.org/2000/svg">
  <defs id="svgEditorDefs">
    <path id="svgEditorClosePathDefs" class="skin" fill="black" style="stroke-width: 0px; stroke: none;"/>
    <pattern id="pattern-0" x="0" y="0" width="20" height="20" patternUnits="userSpaceOnUse" viewBox="0 0 100 100"/>
    <pattern id="pattern-2" x="0" y="0" width="20" height="20" patternUnits="userSpaceOnUse" viewBox="0 0 100 100">
      <rect x="1.869" y="1.286" width="98.292" height="97.749" style="fill: rgb(241, 141, 211);"/>
      <g transform="matrix(0.026611, 0, 0, 0.013754, 18.982269, 41.229153)">
        <g id="g-4" transform="translate(1344.9 2676.1)">
          <path id="path3170" style="fill-rule:evenodd;fill:#ffaacc" d="m-295.78-2224.4c-64.85-51.8-177.76 27.8-151.84 122.6 23.57 86.2 102.66 122.8 166.11 177.9 52.45-82.4 154.07-130.5 166.59-231.4 13.59-109.5-112.81-149-180.86-69.1z"/>
          <path id="path3187" style="fill-rule:evenodd;fill:#6600ff" d="m-470.74-2643.5c-94.65-63.3-200.03 11.6-174.11 106.4 23.58 86.2 124.93 138.9 188.37 194.1 52.46-82.4 147.76-104.3 178.74-201.1 31.81-99.4-124.96-179.3-193-99.4z"/>
          <path id="path3189" style="fill-rule:evenodd;fill:#ff2a7f" d="m-927.14-2505.7c-111.26-122-202.26-1.8-132.66 92.1 55.1 74.3 100.38 104.9 144.35 154 43.66-67.8 105.07-104.8 136.43-189.5 38.29-103.5-73.22-168.6-148.12-56.6z"/>
          <path id="path3191" style="fill-rule:evenodd;fill:#ffcc00" d="m-397.27-1751.5c-123.93-165.7-228.96 54.1-174.69 107.9 81.25 80.5 122.95 53.4 185.78 125.7 43.72-70.6 111.66-55.8 168.85-146.8 41.75-66.5-46.79-251.2-179.94-86.8z"/>
          <path id="path3193" style="fill-rule:evenodd;fill:#ff2ad4" d="m-686.52-2200.9c94.64-63.3 177.76 27.8 151.84 122.6-23.58 86.2-102.67 122.7-166.11 177.9-52.46-82.4-154.07-130.5-166.59-231.4-13.6-109.5 112.81-149 180.86-69.1z"/>
          <path id="path3197" style="fill-rule:evenodd;fill:#ff2ad4" d="m-897.7-1767.4c-85.34-207.3-268.7 135 10.89 229.5 261.79-76.2 173.95-427.6-10.89-229.5z"/>
          <path id="path3199" style="fill-rule:evenodd;fill:#d40055" d="m-1150-2098.2c-205.5-183.2-313 101.3 9.5 201.2 266.3-86.3 260.87-384.6-9.5-201.2z"/>
          <path id="path3201" style="fill:#ff0000" d="m46.681-2379.9c27.679-265.5-204.5-142.3-186.91-22 17.54 119.9 115.88 138.5 187.49 200.8 59.21-93 204.29-147.9 188.04-261.2-16.3-113.6-241.15-124.2-188.62 82.4z"/>
          <path id="path3203" style="fill-rule:evenodd;fill:#ff0066" d="m85.85-1958.5c4.235-138.4 214.08-56.2 204.92 46.4-9.69 108.6-166.88 185.8-218.69 243.6-57.477-82.7-136.3-94.4-160.78-223.3-18.87-99.5 172.71-201.4 174.55-66.7z"/>
        </g>
      </g>
      <g transform="matrix(0.026611, 0, 0, 0.013754, 31.735346, 23.544264)">
        <g id="g-1" transform="translate(1344.9 2676.1)">
          <path id="path-1" style="fill-rule:evenodd;fill:#ffaacc" d="m-295.78-2224.4c-64.85-51.8-177.76 27.8-151.84 122.6 23.57 86.2 102.66 122.8 166.11 177.9 52.45-82.4 154.07-130.5 166.59-231.4 13.59-109.5-112.81-149-180.86-69.1z"/>
          <path id="path-2" style="fill-rule:evenodd;fill:#6600ff" d="m-470.74-2643.5c-94.65-63.3-200.03 11.6-174.11 106.4 23.58 86.2 124.93 138.9 188.37 194.1 52.46-82.4 147.76-104.3 178.74-201.1 31.81-99.4-124.96-179.3-193-99.4z"/>
          <path id="path-3" style="fill-rule:evenodd;fill:#ff2a7f" d="m-927.14-2505.7c-111.26-122-202.26-1.8-132.66 92.1 55.1 74.3 100.38 104.9 144.35 154 43.66-67.8 105.07-104.8 136.43-189.5 38.29-103.5-73.22-168.6-148.12-56.6z"/>
          <path id="path-4" style="fill-rule:evenodd;fill:#ffcc00" d="m-397.27-1751.5c-123.93-165.7-228.96 54.1-174.69 107.9 81.25 80.5 122.95 53.4 185.78 125.7 43.72-70.6 111.66-55.8 168.85-146.8 41.75-66.5-46.79-251.2-179.94-86.8z"/>
          <path id="path-5" style="fill-rule:evenodd;fill:#ff2ad4" d="m-686.52-2200.9c94.64-63.3 177.76 27.8 151.84 122.6-23.58 86.2-102.67 122.7-166.11 177.9-52.46-82.4-154.07-130.5-166.59-231.4-13.6-109.5 112.81-149 180.86-69.1z"/>
          <path id="path-6" style="fill-rule:evenodd;fill:#ff2ad4" d="m-897.7-1767.4c-85.34-207.3-268.7 135 10.89 229.5 261.79-76.2 173.95-427.6-10.89-229.5z"/>
          <path id="path-7" style="fill-rule:evenodd;fill:#d40055" d="m-1150-2098.2c-205.5-183.2-313 101.3 9.5 201.2 266.3-86.3 260.87-384.6-9.5-201.2z"/>
          <path id="path-8" style="fill:#ff0000" d="m46.681-2379.9c27.679-265.5-204.5-142.3-186.91-22 17.54 119.9 115.88 138.5 187.49 200.8 59.21-93 204.29-147.9 188.04-261.2-16.3-113.6-241.15-124.2-188.62 82.4z"/>
          <path id="path-9" style="fill-rule:evenodd;fill:#ff0066" d="m85.85-1958.5c4.235-138.4 214.08-56.2 204.92 46.4-9.69 108.6-166.88 185.8-218.69 243.6-57.477-82.7-136.3-94.4-160.78-223.3-18.87-99.5 172.71-201.4 174.55-66.7z"/>
        </g>
      </g>
      <g transform="matrix(0.026611, 0, 0, 0.013754, 40.444767, 61.164845)">
        <g id="g-2" transform="translate(1344.9 2676.1)">
          <path id="path-10" style="fill-rule:evenodd;fill:#ffaacc" d="m-295.78-2224.4c-64.85-51.8-177.76 27.8-151.84 122.6 23.57 86.2 102.66 122.8 166.11 177.9 52.45-82.4 154.07-130.5 166.59-231.4 13.59-109.5-112.81-149-180.86-69.1z"/>
          <path id="path-11" style="fill-rule:evenodd;fill:#6600ff" d="m-470.74-2643.5c-94.65-63.3-200.03 11.6-174.11 106.4 23.58 86.2 124.93 138.9 188.37 194.1 52.46-82.4 147.76-104.3 178.74-201.1 31.81-99.4-124.96-179.3-193-99.4z"/>
          <path id="path-12" style="fill-rule:evenodd;fill:#ff2a7f" d="m-927.14-2505.7c-111.26-122-202.26-1.8-132.66 92.1 55.1 74.3 100.38 104.9 144.35 154 43.66-67.8 105.07-104.8 136.43-189.5 38.29-103.5-73.22-168.6-148.12-56.6z"/>
          <path id="path-13" style="fill-rule:evenodd;fill:#ffcc00" d="m-397.27-1751.5c-123.93-165.7-228.96 54.1-174.69 107.9 81.25 80.5 122.95 53.4 185.78 125.7 43.72-70.6 111.66-55.8 168.85-146.8 41.75-66.5-46.79-251.2-179.94-86.8z"/>
          <path id="path-14" style="fill-rule:evenodd;fill:#ff2ad4" d="m-686.52-2200.9c94.64-63.3 177.76 27.8 151.84 122.6-23.58 86.2-102.67 122.7-166.11 177.9-52.46-82.4-154.07-130.5-166.59-231.4-13.6-109.5 112.81-149 180.86-69.1z"/>
          <path id="path-15" style="fill-rule:evenodd;fill:#ff2ad4" d="m-897.7-1767.4c-85.34-207.3-268.7 135 10.89 229.5 261.79-76.2 173.95-427.6-10.89-229.5z"/>
          <path id="path-16" style="fill-rule:evenodd;fill:#d40055" d="m-1150-2098.2c-205.5-183.2-313 101.3 9.5 201.2 266.3-86.3 260.87-384.6-9.5-201.2z"/>
          <path id="path-17" style="fill:#ff0000" d="m46.681-2379.9c27.679-265.5-204.5-142.3-186.91-22 17.54 119.9 115.88 138.5 187.49 200.8 59.21-93 204.29-147.9 188.04-261.2-16.3-113.6-241.15-124.2-188.62 82.4z"/>
          <path id="path-18" style="fill-rule:evenodd;fill:#ff0066" d="m85.85-1958.5c4.235-138.4 214.08-56.2 204.92 46.4-9.69 108.6-166.88 185.8-218.69 243.6-57.477-82.7-136.3-94.4-160.78-223.3-18.87-99.5 172.71-201.4 174.55-66.7z"/>
        </g>
      </g>
      <g transform="matrix(0.026611, 0, 0, 0.013754, 2.807626, 56.502464)">
        <g id="g-3" transform="translate(1344.9 2676.1)">
          <path id="path-19" style="fill-rule:evenodd;fill:#ffaacc" d="m-295.78-2224.4c-64.85-51.8-177.76 27.8-151.84 122.6 23.57 86.2 102.66 122.8 166.11 177.9 52.45-82.4 154.07-130.5 166.59-231.4 13.59-109.5-112.81-149-180.86-69.1z"/>
          <path id="path-20" style="fill-rule:evenodd;fill:#6600ff" d="m-470.74-2643.5c-94.65-63.3-200.03 11.6-174.11 106.4 23.58 86.2 124.93 138.9 188.37 194.1 52.46-82.4 147.76-104.3 178.74-201.1 31.81-99.4-124.96-179.3-193-99.4z"/>
          <path id="path-21" style="fill-rule:evenodd;fill:#ff2a7f" d="m-927.14-2505.7c-111.26-122-202.26-1.8-132.66 92.1 55.1 74.3 100.38 104.9 144.35 154 43.66-67.8 105.07-104.8 136.43-189.5 38.29-103.5-73.22-168.6-148.12-56.6z"/>
          <path id="path-22" style="fill-rule:evenodd;fill:#ffcc00" d="m-397.27-1751.5c-123.93-165.7-228.96 54.1-174.69 107.9 81.25 80.5 122.95 53.4 185.78 125.7 43.72-70.6 111.66-55.8 168.85-146.8 41.75-66.5-46.79-251.2-179.94-86.8z"/>
          <path id="path-23" style="fill-rule:evenodd;fill:#ff2ad4" d="m-686.52-2200.9c94.64-63.3 177.76 27.8 151.84 122.6-23.58 86.2-102.67 122.7-166.11 177.9-52.46-82.4-154.07-130.5-166.59-231.4-13.6-109.5 112.81-149 180.86-69.1z"/>
          <path id="path-24" style="fill-rule:evenodd;fill:#ff2ad4" d="m-897.7-1767.4c-85.34-207.3-268.7 135 10.89 229.5 261.79-76.2 173.95-427.6-10.89-229.5z"/>
          <path id="path-25" style="fill-rule:evenodd;fill:#d40055" d="m-1150-2098.2c-205.5-183.2-313 101.3 9.5 201.2 266.3-86.3 260.87-384.6-9.5-201.2z"/>
          <path id="path-26" style="fill:#ff0000" d="m46.681-2379.9c27.679-265.5-204.5-142.3-186.91-22 17.54 119.9 115.88 138.5 187.49 200.8 59.21-93 204.29-147.9 188.04-261.2-16.3-113.6-241.15-124.2-188.62 82.4z"/>
          <path id="path-27" style="fill-rule:evenodd;fill:#ff0066" d="m85.85-1958.5c4.235-138.4 214.08-56.2 204.92 46.4-9.69 108.6-166.88 185.8-218.69 243.6-57.477-82.7-136.3-94.4-160.78-223.3-18.87-99.5 172.71-201.4 174.55-66.7z"/>
        </g>
      </g>
    </pattern>
    <radialGradient id="gradient-29" gradientUnits="userSpaceOnUse" cx="218.841" cy="810.279" r="13.242">
      <stop offset="0" style="stop-color: rgba(179, 191, 132, 1)"/>
      <stop offset="1" style="stop-color: rgba(131, 145, 76, 1)"/>
    </radialGradient>
    <radialGradient id="gradient-30" gradientUnits="userSpaceOnUse" cx="230.817" cy="804.105" r="16.66">
      <stop offset="0" style="stop-color: rgba(179, 191, 132, 1)"/>
      <stop offset="1" style="stop-color: rgba(131, 145, 76, 1)"/>
    </radialGradient>
    <radialGradient id="gradient-31" gradientUnits="userSpaceOnUse" cx="239.262" cy="823.556" r="7.992">
      <stop offset="0" style="stop-color: rgba(179, 191, 132, 1)"/>
      <stop offset="1" style="stop-color: rgba(131, 145, 76, 1)"/>
    </radialGradient>
    <radialGradient id="gradient-32" gradientUnits="userSpaceOnUse" cx="235.04" cy="818.383" r="11.703">
      <stop offset="0" style="stop-color: rgba(179, 191, 132, 1)"/>
      <stop offset="1" style="stop-color: rgba(131, 145, 76, 1)"/>
    </radialGradient>
    <radialGradient id="gradient-33" gradientUnits="userSpaceOnUse" cx="249.665" cy="829.421" r="3.568">
      <stop offset="0" style="stop-color: rgba(179, 191, 132, 1)"/>
      <stop offset="1" style="stop-color: rgba(131, 145, 76, 1)"/>
    </radialGradient>
    <radialGradient id="gradient-35" gradientUnits="userSpaceOnUse" cx="254.845" cy="825.765" r="12.183">
      <stop offset="0" style="stop-color: rgba(179, 191, 132, 1)"/>
      <stop offset="1" style="stop-color: rgba(131, 145, 76, 1)"/>
    </radialGradient>
    <radialGradient id="gradient-36" gradientUnits="userSpaceOnUse" cx="262.713" cy="870.198" r="7.023">
      <stop offset="0" style="stop-color: rgba(179, 191, 132, 1)"/>
      <stop offset="1" style="stop-color: rgba(131, 145, 76, 1)"/>
    </radialGradient>
    <radialGradient id="gradient-37" gradientUnits="userSpaceOnUse" cx="262.396" cy="823.185" r="16.101">
      <stop offset="0" style="stop-color: rgba(179, 191, 132, 1)"/>
      <stop offset="1" style="stop-color: rgba(131, 145, 76, 1)"/>
    </radialGradient>
    <radialGradient id="gradient-38" gradientUnits="userSpaceOnUse" cx="266.592" cy="816.247" r="15.607">
      <stop offset="0" style="stop-color: rgba(179, 191, 132, 1)"/>
      <stop offset="1" style="stop-color: rgba(131, 145, 76, 1)"/>
    </radialGradient>
    <radialGradient id="gradient-39" gradientUnits="userSpaceOnUse" cx="269.926" cy="824.534" r="14.664">
      <stop offset="0" style="stop-color: rgba(179, 191, 132, 1)"/>
      <stop offset="1" style="stop-color: rgba(131, 145, 76, 1)"/>
    </radialGradient>
    <radialGradient id="gradient-40" gradientUnits="userSpaceOnUse" cx="245.566" cy="757.077" r="23.299">
      <stop offset="0" style="stop-color: rgba(179, 191, 132, 1)"/>
      <stop offset="1" style="stop-color: rgba(131, 145, 76, 1)"/>
    </radialGradient>
    <radialGradient id="gradient-41" gradientUnits="userSpaceOnUse" cx="244.264" cy="764.043" r="27.271">
      <stop offset="0" style="stop-color: rgba(179, 191, 132, 1)"/>
      <stop offset="1" style="stop-color: rgba(131, 145, 76, 1)"/>
    </radialGradient>
    <radialGradient id="gradient-42" gradientUnits="userSpaceOnUse" cx="244.021" cy="772.456" r="31.305">
      <stop offset="0" style="stop-color: rgba(179, 191, 132, 1)"/>
      <stop offset="1" style="stop-color: rgba(131, 145, 76, 1)"/>
    </radialGradient>
    <radialGradient id="gradient-43" gradientUnits="userSpaceOnUse" cx="228.734" cy="783.004" r="16.854">
      <stop offset="0" style="stop-color: rgba(179, 191, 132, 1)"/>
      <stop offset="1" style="stop-color: rgba(131, 145, 76, 1)"/>
    </radialGradient>
    <radialGradient id="gradient-44" gradientUnits="userSpaceOnUse" cx="261.303" cy="787.865" r="16.428">
      <stop offset="0" style="stop-color: rgba(179, 191, 132, 1)"/>
      <stop offset="1" style="stop-color: rgba(131, 145, 76, 1)"/>
    </radialGradient>
    <radialGradient id="gradient-45" gradientUnits="userSpaceOnUse" cx="264.122" cy="794.594" r="15.512">
      <stop offset="0" style="stop-color: rgba(179, 191, 132, 1)"/>
      <stop offset="1" style="stop-color: rgba(131, 145, 76, 1)"/>
    </radialGradient>
    <radialGradient id="gradient-46" gradientUnits="userSpaceOnUse" cx="268.553" cy="802.635" r="14.513">
      <stop offset="0" style="stop-color: rgba(179, 191, 132, 1)"/>
      <stop offset="1" style="stop-color: rgba(131, 145, 76, 1)"/>
    </radialGradient>
    <radialGradient id="gradient-47" gradientUnits="userSpaceOnUse" cx="231.847" cy="795.861" r="18.134">
      <stop offset="0" style="stop-color: rgba(179, 191, 132, 1)"/>
      <stop offset="1" style="stop-color: rgba(131, 145, 76, 1)"/>
    </radialGradient>
    <radialGradient id="gradient-48" gradientUnits="userSpaceOnUse" cx="231.535" cy="805.593" r="21.087">
      <stop offset="0" style="stop-color: rgba(179, 191, 132, 1)"/>
      <stop offset="1" style="stop-color: rgba(131, 145, 76, 1)"/>
    </radialGradient>
    <radialGradient id="gradient-49" gradientUnits="userSpaceOnUse" cx="230.446" cy="816.85" r="22.433">
      <stop offset="0" style="stop-color: rgba(179, 191, 132, 1)"/>
      <stop offset="1" style="stop-color: rgba(131, 145, 76, 1)"/>
    </radialGradient>
    <radialGradient id="gradient-50" gradientUnits="userSpaceOnUse" cx="237.506" cy="824.029" r="16.377">
      <stop offset="0" style="stop-color: rgba(179, 191, 132, 1)"/>
      <stop offset="1" style="stop-color: rgba(131, 145, 76, 1)"/>
    </radialGradient>
    <radialGradient id="gradient-51" gradientUnits="userSpaceOnUse" cx="239.275" cy="833.212" r="15.105">
      <stop offset="0" style="stop-color: rgba(179, 191, 132, 1)"/>
      <stop offset="1" style="stop-color: rgba(131, 145, 76, 1)"/>
    </radialGradient>
    <radialGradient id="gradient-52" gradientUnits="userSpaceOnUse" cx="239.441" cy="840.208" r="13.8">
      <stop offset="0" style="stop-color: rgba(179, 191, 132, 1)"/>
      <stop offset="1" style="stop-color: rgba(131, 145, 76, 1)"/>
    </radialGradient>
    <radialGradient id="gradient-53" gradientUnits="userSpaceOnUse" cx="272.768" cy="827.157" r="9.242">
      <stop offset="0" style="stop-color: rgba(179, 191, 132, 1)"/>
      <stop offset="1" style="stop-color: rgba(131, 145, 76, 1)"/>
    </radialGradient>
    <radialGradient id="gradient-54" gradientUnits="userSpaceOnUse" cx="271.936" cy="835.205" r="8.45">
      <stop offset="0" style="stop-color: rgba(179, 191, 132, 1)"/>
      <stop offset="1" style="stop-color: rgba(131, 145, 76, 1)"/>
    </radialGradient>
    <radialGradient id="gradient-55" gradientUnits="userSpaceOnUse" cx="269.209" cy="844.263" r="9.196">
      <stop offset="0" style="stop-color: rgba(179, 191, 132, 1)"/>
      <stop offset="1" style="stop-color: rgba(131, 145, 76, 1)"/>
    </radialGradient>
    <radialGradient id="gradient-56" gradientUnits="userSpaceOnUse" cx="274.493" cy="820.25" r="11.291">
      <stop offset="0" style="stop-color: rgba(179, 191, 132, 1)"/>
      <stop offset="1" style="stop-color: rgba(131, 145, 76, 1)"/>
    </radialGradient>
    <radialGradient id="gradient-57" gradientUnits="userSpaceOnUse" cx="271.899" cy="810.677" r="12.08">
      <stop offset="0" style="stop-color: rgba(179, 191, 132, 1)"/>
      <stop offset="1" style="stop-color: rgba(131, 145, 76, 1)"/>
    </radialGradient>
    <radialGradient id="gradient-58" gradientUnits="userSpaceOnUse" cx="267.482" cy="850.807" r="9.799">
      <stop offset="0" style="stop-color: rgba(179, 191, 132, 1)"/>
      <stop offset="1" style="stop-color: rgba(131, 145, 76, 1)"/>
    </radialGradient>
    <radialGradient id="gradient-59" gradientUnits="userSpaceOnUse" cx="239.544" cy="847.742" r="12.787">
      <stop offset="0" style="stop-color: rgba(179, 191, 132, 1)"/>
      <stop offset="1" style="stop-color: rgba(131, 145, 76, 1)"/>
    </radialGradient>
  </defs>
  <rect id="svgEditorBackground" x="202.71499633789062" y="584.4310302734375" width="86.59329986572266" height="115.80899810791016" style="fill: none; stroke: none;"/>
  <rect id="rect-1" x="-403.988" y="499.579" width="1300" height="550" style="fill: none; stroke: none;"/>
  <g transform="matrix(1, 0, 0, 1, 88.41103496516638, -26.179375750343866)">
    <g transform="matrix(1, 0, 0, 1, -88.228111, 30.585747)">
      <path style="stroke-opacity: 0; stroke: rgb(80, 106, 71); fill: url(#gradient-29);" d="M 232.043 751.824 C 212.898 760.785 210.862 785.226 225.933 825.145 C 232.119 841.53 211.208 859.881 205.611 868.709 C 204.712 870.128 252.839 808.964 212.902 867.428 C 212.902 867.428 235.195 836.813 222.267 798.26 C 210.581 763.41 233.15 753.176 232.043 751.824 Z"/>
      <path style="stroke-opacity: 0; stroke: rgb(80, 106, 71); fill: url(#gradient-30);" d="M 227.339 754.151 C 204.695 761.418 214.475 781.056 232.301 813.428 C 239.617 826.716 240.264 834.936 241.522 851.09 C 241.628 852.452 242.079 853.108 247.477 854.059 C 247.477 854.059 243.255 822.891 227.965 791.627 C 214.143 763.365 228.648 755.248 227.339 754.151 Z" transform="matrix(0.996783, 0.080145, -0.080145, 0.996783, 65.187526, -15.912219)"/>
      <path style="stroke-opacity: 0; stroke: rgb(80, 106, 71); fill: url(#gradient-31);" d="M 236.321 757.934 C 228.378 763.229 229.803 791.336 240.598 842.253 C 243.009 853.625 243.416 865.642 241.82 878.303 C 241.649 879.658 243.399 869.794 245.486 880.136 C 253.977 922.222 228.688 805.883 236.932 767.099 C 240.807 748.87 238.249 768.319 241.209 759.767"/>
      <path style="stroke-opacity: 0; stroke: rgb(80, 106, 71); fill: url(#gradient-32);" d="M 240.598 758.545 C 236.728 775.45 237.339 797.242 242.431 823.923 C 248.093 853.59 234.022 868.843 223.746 877.92 C 221.924 879.529 226.592 874.469 229.764 867.67 C 230.168 866.804 235.916 865.911 237.114 860.798 C 238.084 856.663 239.541 854 241.854 857.435 C 248.907 867.91 247.636 830.952 242.431 797.038"/>
      <path style="stroke-opacity: 0; stroke: rgb(80, 106, 71); fill: url(#gradient-33);" d="M 246.097 793.983 C 252.003 819.238 254.243 842.864 252.818 864.86"/>
      <path style="stroke-opacity: 0; stroke: rgb(80, 106, 71); fill: url(#gradient-35);" d="M 243.653 760.378 C 244.468 776.875 246.301 786.04 255.262 800.093 C 260.735 808.676 266.883 826.381 262.594 836.143 C 256.316 850.433 259.568 839.546 257.569 859.846 C 257.482 860.733 277.956 832.744 258.928 889.301 C 253.481 905.492 287.121 839.031 244.875 771.376 C 241.799 766.45 241.188 764.21 247.93 759.767"/>
      <path style="stroke-opacity: 0; stroke: rgb(80, 106, 71); fill: url(#gradient-36);" d="M 255.713 871.044 C 255.102 862.693 266.708 860.768 269.356 849.973 C 270.791 844.122 267.674 883.615 267.948 868.445 C 268.864 817.623 252.661 885.363 265.216 891.02"/>
      <path style="stroke-opacity: 0; stroke: rgb(80, 106, 71); fill: url(#gradient-37);" d="M 246.708 759.767 C 244.875 764.248 249.152 774.838 259.539 791.539 C 267.438 804.24 272.172 817.885 265.038 836.143 C 258.542 852.768 280.238 871.53 278.384 886.474 C 278.076 888.956 265.701 854.614 269.675 854.169 C 269.675 854.169 265.356 856.738 274.814 816.591"/>
      <path style="stroke-opacity: 0; stroke: rgb(80, 106, 71); fill: url(#gradient-38);" d="M 250.985 760.989 C 271.963 795.613 280.313 818.424 276.036 829.422 C 272.277 839.087 270.04 837.993 282.199 871.506 L 280.313 823.312 C 280.313 823.312 275.191 778.751 255.262 761.6"/>
      <path style="stroke-opacity: 0; stroke: rgb(80, 106, 71); fill: url(#gradient-39);" d="M 255.262 757.628 C 276.24 792.252 284.59 815.063 280.313 826.061 C 276.554 835.726 273.092 857.926 269.926 891.439 L 284.59 819.951 C 284.59 819.951 279.468 775.39 259.539 758.239"/>
      <path style="stroke-opacity: 0; stroke: rgb(80, 106, 71); fill: url(#gradient-40);" d="M 226.855 748.158 C 230.869 762.415 243.675 766.488 265.273 760.378 C 266.926 759.911 270.914 766.351 267.567 765.266 C 253.251 760.628 240.445 776.718 222.267 750.602"/>
      <path style="stroke-opacity: 0; stroke: rgb(80, 106, 71); fill: url(#gradient-41);" d="M 219.918 754.513 C 224.616 768.77 242.05 774.065 267.33 767.955 C 269.265 767.488 273.933 773.928 270.015 772.843 C 253.259 768.205 238.27 784.295 216.993 758.179"/>
      <path style="stroke-opacity: 0; stroke: rgb(80, 106, 71); fill: url(#gradient-42);" d="M 215.572 762.457 C 220.743 776.713 243.354 781.397 271.183 775.287 C 273.313 774.82 277.841 782.482 273.528 781.397 C 255.083 776.759 236.138 793.461 212.716 767.344"/>
      <path style="stroke-opacity: 0; stroke: rgb(80, 106, 71); fill: url(#gradient-43);" d="M 213.019 773.209 C 218.147 784.614 226.313 789.095 242.075 786.651 C 243.808 786.382 246.966 793.378 244.923 792.761 C 235.805 790.007 232.142 795.499 211.88 779.93"/>
      <path style="stroke-opacity: 0; stroke: rgb(80, 106, 71); fill: url(#gradient-44);" d="M 244.875 787.262 C 261.78 782.578 269.519 782.578 274.203 786.04 C 275.524 787.016 278.986 785.59 277.258 787.873 C 277.258 787.873 258.724 781.559 247.93 792.15"/>
      <path style="stroke-opacity: 0; stroke: rgb(80, 106, 71); fill: url(#gradient-45);" d="M 248.61 793.992 C 264.572 789.308 271.879 789.308 276.302 792.77 C 277.549 793.746 280.818 792.32 279.186 794.603 C 279.186 794.603 261.686 788.289 251.495 798.88"/>
      <path style="stroke-opacity: 0; stroke: rgb(80, 106, 71); fill: url(#gradient-46);" d="M 254.04 803.148 C 260.15 798.057 269.111 796.631 280.924 798.871 C 282.736 799.214 278.177 802.204 281.535 804.37 C 288.508 808.867 270.178 790.333 256.484 807.426"/>
      <path style="stroke-opacity: 0; stroke: rgb(80, 106, 71); fill: url(#gradient-47);" d="M 213.713 787.262 C 227.261 796.02 238.518 799.89 247.487 798.871 C 249.205 798.676 251.815 805.301 248.06 804.37 C 220.934 797.644 232.954 798.459 213.713 792.15"/>
      <path style="stroke-opacity: 0; stroke: rgb(80, 106, 71); fill: url(#gradient-48);" d="M 215.742 796.994 C 229.519 805.752 240.965 809.622 250.085 808.603 C 251.832 808.408 254.486 815.033 250.668 814.102 C 223.085 807.376 218.837 792.31 210.448 812.469"/>
      <path style="stroke-opacity: 0; stroke: rgb(80, 106, 71); fill: url(#gradient-49);" d="M 218.812 806.949 C 231.459 815.707 242.571 819.676 250.943 818.657 C 252.547 818.462 254.381 824.988 250.875 824.057 C 233.798 819.521 233.341 818.415 229.344 816.24 C 227.415 815.19 220.194 804.811 208.013 826.751" transform="matrix(0.98673, -0.162371, 0.162371, 0.98673, -129.291691, 49.117)"/>
      <path style="stroke-opacity: 0; stroke: rgb(80, 106, 71); fill: url(#gradient-50);" d="M 221.129 815.43 C 233.288 824.188 243.973 828.157 252.021 827.138 C 253.564 826.943 255.328 833.469 251.957 832.538 C 227.61 825.812 238.399 826.627 221.129 820.318" transform="matrix(0.98673, -0.162371, 0.162371, 0.98673, -130.646699, 49.49919)"/>
      <path style="stroke-opacity: 0; stroke: rgb(80, 106, 71); fill: url(#gradient-51);" d="M 224.17 824.804 C 235.958 833.562 245.614 838.035 253.418 837.016 C 254.913 836.821 254.912 842.446 251.644 841.515 C 228.041 834.789 240.912 836.001 224.17 829.692" transform="matrix(0.98673, -0.162371, 0.162371, 0.98673, -132.114148, 49.908273)"/>
      <path style="stroke-opacity: 0; stroke: rgb(80, 106, 71); fill: url(#gradient-52);" d="M 225.641 831.801 C 236.41 840.559 245.232 845.031 252.362 844.012 C 253.728 843.817 253.727 849.442 250.741 848.512 C 229.177 841.785 240.936 842.997 225.641 836.689" transform="matrix(0.98673, -0.162371, 0.162371, 0.98673, -133.248048, 50.028067)"/>
      <path style="stroke-opacity: 0; stroke: rgb(80, 106, 71); fill: url(#gradient-53);" d="M 263.526 818.798 C 270.806 827.556 276.769 832.029 281.589 831.01 C 282.512 830.815 281.909 836.341 279.891 835.41 C 265.314 828.684 273.866 829.995 263.526 823.686" transform="matrix(0.98673, -0.162371, 0.162371, 0.98673, -130.686583, 55.266231)"/>
      <path style="stroke-opacity: 0; stroke: rgb(80, 106, 71); fill: url(#gradient-54);" d="M 263.486 827.893 C 270.138 835.868 275.586 839.941 279.99 839.013 C 280.833 838.835 280.329 843.256 278.485 842.408 C 265.166 836.283 272.933 838.089 263.486 832.344" transform="matrix(0.98673, -0.162371, 0.162371, 0.98673, -132.004348, 55.237855)"/>
      <path style="stroke-opacity: 0; stroke: rgb(80, 106, 71); fill: url(#gradient-55);" d="M 262.928 836.798 C 270.208 845.556 273.256 848.93 278.076 847.911 C 278.999 847.716 277.892 852.54 275.874 851.609 C 261.297 844.883 270.353 846.896 260.013 840.587" transform="matrix(0.98673, -0.162371, 0.162371, 0.98673, -133.511387, 54.915318)"/>
      <path style="stroke-opacity: 0; stroke: rgb(80, 106, 71); fill: url(#gradient-56);" d="M 263.205 819.532 C 263.055 822.701 269.214 822.09 283.468 822.09 C 285.624 822.09 287.615 819.394 282.882 818.921 C 269.253 817.561 278.474 819.052 263.205 819.532 Z"/>
      <path style="stroke-opacity: 0; stroke: rgb(80, 106, 71); fill: url(#gradient-57);" d="M 260.15 813.536 L 283.979 811.703 L 282.757 808.037 C 273.592 807.018 257.298 809.666 260.15 813.536 Z"/>
      <path style="stroke-opacity: 0; stroke: rgb(80, 106, 71); fill: url(#gradient-58);" d="M 260.789 843.243 C 268.547 852.117 271.794 855.536 276.93 854.504 C 277.914 854.306 276.734 859.194 274.584 858.251 C 259.051 851.435 268.701 853.475 257.683 847.082" transform="matrix(0.98673, -0.162371, 0.162371, 0.98673, -134.59688, 54.721716)"/>
      <path style="stroke-opacity: 0; stroke: rgb(80, 106, 71); fill: url(#gradient-59);" d="M 227.371 839.165 C 238.939 849.28 243.586 853.188 251.245 852.011 C 252.711 851.786 253.078 857.253 249.871 856.178 C 226.709 848.409 243.186 851.867 226.757 844.581" transform="matrix(0.962763, -0.270346, 0.270346, 0.962763, -220.26374, 96.326959)"/>
    </g>
  </g>
</svg>