<?xml version="1.0" encoding="utf-8"?>
<svg class="glasses" width="86" height="380" viewBox="202.715 584.407 86.5933 380.048" preserveAspectRatio="xMidYMax" xmlns="http://www.w3.org/2000/svg">
  <defs id="svgEditorDefs">
    <path id="svgEditorClosePathDefs" class="skin" fill="black" style="stroke-width: 0px; stroke: none;"/>
  </defs>
  <rect id="svgEditorBackground" x="202.71499633789062" y="584.4310302734375" width="86.59329986572266" height="115.80899810791016" style="fill: none; stroke: none;"/>
  <rect id="rect-1" x="-403.988" y="499.579" width="1300" height="550" style="fill: none; stroke: none;"/>
  <rect id="rect-2" x="203.411" y="583.672" width="86.593" height="115.809" style="fill: none; stroke: none;"/>
  <rect id="rect-3" x="-403.292" y="498.82" width="1300" height="550" style="fill: none; stroke: none;"/>
  <g transform="matrix(0.109233, 0, 0, 0.109233, 406.571045, 659.192993)">
    <path stroke="#F3EDE9" stroke-width="0.0938" d="M -1350.228 987.464 C -1350.849 989.347 -1351.525 991.379 -1353.33 992.461 C -1360.174 997.458 -1365.177 1004.368 -1371.052 1010.369 C -1373.88 1014.164 -1376.468 1018.145 -1379.588 1021.72 C -1382.003 1024.356 -1383.611 1027.589 -1385.918 1030.303 C -1387.717 1032.449 -1388.548 1035.199 -1390.216 1037.44 C -1392.188 1040.184 -1393.826 1043.136 -1395.284 1046.185 C -1400.993 1055.754 -1405.236 1066.089 -1409.839 1076.214 C -1411.184 1080.303 -1413.24 1084.098 -1414.675 1088.157 C -1417.556 1095.862 -1419.618 1103.865 -1420.837 1111.994 C -1420.921 1115.234 -1420.986 1118.498 -1420.496 1121.713 C -1420.114 1124.098 -1420.478 1126.525 -1420.12 1128.916 C -1419.534 1132.634 -1419.444 1136.423 -1418.512 1140.087 C -1417.687 1143.303 -1417.573 1146.674 -1416.378 1149.801 C -1415.559 1152.024 -1415.446 1154.415 -1414.794 1156.68 C -1412.816 1161.881 -1408.482 1165.652 -1405.972 1170.542 C -1404.866 1172.389 -1403.108 1173.734 -1401.973 1175.569 C -1400.538 1177.852 -1398.345 1179.46 -1396.498 1181.378 C -1394.704 1183.16 -1393.007 1185.042 -1391.136 1186.758 C -1388.9 1188.802 -1386.205 1190.231 -1383.736 1191.97 C -1380.951 1193.955 -1377.502 1194.678 -1374.669 1196.614 C -1370.67 1199.376 -1365.763 1200.063 -1361.333 1201.874 C -1353.838 1204.056 -1345.906 1203.614 -1338.189 1203.399 C -1330.79 1202.795 -1324.131 1199.221 -1317.526 1196.124 C -1314.071 1194.594 -1311.178 1192.132 -1308.022 1190.093 C -1298.811 1183.757 -1290.658 1175.933 -1283.731 1167.164 C -1281.376 1164.08 -1280.066 1160.249 -1277.12 1157.625 C -1274.161 1154.116 -1270.186 1151.241 -1268.74 1146.68 C -1268.961 1146.387 -1269.397 1145.802 -1269.612 1145.509 C -1272.266 1146.722 -1274.914 1147.983 -1277.329 1149.627 C -1284.896 1155.443 -1294.322 1157.828 -1303.216 1160.823 C -1306.528 1162.09 -1310.12 1161.618 -1313.575 1161.677 C -1323.479 1161.749 -1333.647 1161.02 -1342.852 1157.081 C -1347.299 1154.851 -1352.098 1153.07 -1355.786 1149.621 C -1358.01 1147.434 -1360.873 1145.963 -1362.738 1143.417 C -1366.91 1139.029 -1371.435 1134.786 -1374.28 1129.352 C -1376.043 1126.244 -1377.012 1122.789 -1378.153 1119.43 C -1379.654 1115.192 -1379.283 1110.596 -1380.329 1106.256 C -1381.094 1103.698 -1380.239 1101.056 -1380.58 1098.468 C -1380.819 1096.471 -1380.921 1094.457 -1380.64 1092.467 C -1380.15 1089.305 -1381.19 1086.095 -1380.353 1082.963 C -1378.895 1076.298 -1377.424 1069.604 -1375.326 1063.106 C -1373.449 1056.203 -1370.024 1049.855 -1366.791 1043.519 C -1365.087 1039.538 -1362.834 1035.838 -1360.969 1031.935 C -1358.183 1026.119 -1354.065 1021.05 -1351.459 1015.145 C -1350.544 1013.023 -1348.966 1011.331 -1347.388 1009.694 C -1345.254 1007.524 -1344.974 1004.296 -1343.139 1001.941 C -1341.064 999.239 -1339.439 996.227 -1337.335 993.543 C -1334.203 989.245 -1330.497 985.36 -1327.705 980.823 C -1328.793 980.943 -1329.905 980.973 -1330.921 981.379 C -1337.042 984.272 -1343.611 986.119 -1350.228 987.464 Z" transform="matrix(-0.536029, 0.844199, -0.844199, -0.536029, -1143.640518, 2812.952697)" style="fill: rgb(255, 243, 0);"/>
    <path stroke="#F3EDE9" stroke-width="0.0938" d="M -1235.48 1323.684 C -1236.454 1326.23 -1238.881 1327.97 -1239.425 1330.689 C -1239.891 1332.859 -1241.457 1334.509 -1242.336 1336.487 C -1242.933 1338.693 -1243.244 1340.994 -1244.26 1343.074 C -1245.037 1344.975 -1246.627 1346.505 -1246.998 1348.573 C -1247.422 1350.498 -1248.068 1352.369 -1248.564 1354.282 C -1249.502 1357.766 -1249.7 1361.389 -1250.004 1364.975 C -1250.237 1367.127 -1249.275 1369.123 -1248.707 1371.149 C -1247.835 1374.228 -1246.765 1377.348 -1244.81 1379.93 C -1243.555 1380.976 -1241.923 1382.518 -1240.142 1381.897 C -1238.104 1381.287 -1235.946 1380.665 -1234.362 1379.165 C -1232.025 1376.929 -1229.353 1374.993 -1227.488 1372.303 C -1224.9 1368.514 -1221.863 1364.993 -1219.951 1360.785 C -1216.974 1354.329 -1213.119 1348.155 -1211.565 1341.144 C -1213.866 1343.54 -1217.219 1344.999 -1220.56 1344.365 C -1224.189 1343.349 -1227.345 1340.606 -1228.767 1337.103 C -1229.514 1335.298 -1230.519 1333.433 -1230.118 1331.419 C -1229.52 1328.579 -1231.409 1326.057 -1231.373 1323.254 C -1231.624 1320.396 -1230.22 1317.748 -1230.226 1314.915 C -1233.149 1317.001 -1233.71 1320.767 -1235.48 1323.684 Z" transform="matrix(-0.53603, 0.844199, -0.844199, -0.53603, -752.165739, 3110.343755)" style="fill: rgb(255, 215, 114);"/>
    <path stroke="#F3EDE9" stroke-width="0.0938" d="M -1305.076 1146.879 C -1302.022 1150.555 -1298.148 1153.466 -1295.154 1157.201 C -1292.434 1160.866 -1288.698 1163.561 -1285.471 1166.741 C -1281.926 1170.184 -1277.288 1172.067 -1273.301 1174.894 C -1271.46 1176.215 -1269.129 1176.335 -1267.043 1177.07 C -1259.559 1180.184 -1251.478 1181.463 -1243.558 1182.981 C -1250.677 1178.188 -1257.658 1173.179 -1264.215 1167.65 C -1265.991 1165.827 -1267.503 1163.765 -1269.434 1162.103 C -1271.681 1160.142 -1274.072 1158.337 -1276.062 1156.108 C -1278.262 1153.914 -1279.84 1151.141 -1282.344 1149.27 C -1286.612 1146.072 -1289.153 1141.266 -1292.273 1137.082 C -1294.98 1134.392 -1295.769 1130.549 -1297.622 1127.333 C -1298.937 1125.014 -1300.223 1122.569 -1302.338 1120.884 C -1304.974 1118.708 -1307.168 1115.863 -1310.479 1114.673 C -1312.918 1113.562 -1316.762 1113.657 -1317.903 1116.532 C -1320.701 1122.743 -1318.417 1130.089 -1313.934 1134.882 C -1311.352 1139.144 -1308.071 1142.904 -1305.076 1146.879 Z" transform="matrix(-0.536029, 0.8442, -0.8442, -0.536029, -998.617396, 2845.834709)" style="fill: rgb(255, 140, 0);"/>
    <path stroke="#F3EDE9" stroke-width="0.0938" d="M -1318.135 1116.078 C -1317.429 1117.363 -1316.365 1118.409 -1315.432 1119.538 C -1314.721 1119.449 -1313.992 1119.377 -1313.263 1119.311 C -1310.078 1122.933 -1304.763 1122.276 -1300.985 1124.948 C -1298.475 1126.353 -1295.469 1126 -1292.708 1126.424 C -1284.89 1126.675 -1277.154 1128.062 -1269.318 1128.098 C -1272.193 1124.338 -1276.975 1123.005 -1280.537 1120.058 C -1284.25 1116.801 -1288.846 1114.864 -1292.886 1112.091 C -1295.576 1110.076 -1298.792 1108.971 -1301.637 1107.219 C -1306.927 1104.679 -1312.917 1106.974 -1317.542 1109.849 C -1318.291 1111.804 -1318.302 1114.009 -1318.135 1116.078 Z" transform="matrix(-0.536029, 0.8442, -0.8442, -0.536029, -1044.20348, 2808.114614)" style="fill: rgb(236, 169, 210);"/>
    <path stroke="#F3EDE9" stroke-width="0.0938" d="M -1428.775 1101.776 C -1430.228 1105.661 -1431.531 1109.66 -1431.806 1113.826 C -1432.362 1120.293 -1431.148 1126.814 -1429.044 1132.917 C -1426.145 1138.996 -1423.205 1145.398 -1417.939 1149.827 C -1415.745 1151.482 -1413.264 1152.732 -1411.011 1154.31 C -1408.632 1155.977 -1405.679 1156.282 -1402.936 1156.987 C -1399.104 1157.938 -1395.135 1158.972 -1391.161 1158.356 C -1387.49 1157.233 -1384.526 1154.662 -1381.226 1152.797 C -1378.232 1151.106 -1375.847 1148.554 -1372.846 1146.874 C -1369.559 1144.961 -1366.188 1143.192 -1363.002 1141.106 C -1355.058 1135.691 -1347.156 1130.018 -1340.73 1122.798 C -1336.666 1118.494 -1332.105 1114.639 -1328.537 1109.881 C -1327.012 1107.902 -1325.213 1106.043 -1324.412 1103.622 C -1329.063 1107.263 -1333.42 1111.459 -1338.859 1113.915 C -1341.729 1115.446 -1344.472 1117.191 -1347.431 1118.548 C -1350.527 1120.084 -1354.018 1120.478 -1357.222 1121.746 C -1361.83 1122.959 -1366.582 1123.861 -1371.364 1123.766 C -1375.883 1123.838 -1380.611 1124.011 -1384.801 1122.027 C -1390.312 1119.767 -1394.4 1114.639 -1395.811 1108.906 C -1396.074 1106.569 -1396.187 1104.214 -1396.462 1101.889 C -1396.851 1098.673 -1394.956 1095.691 -1392.625 1093.664 C -1390.557 1091.925 -1388.823 1089.701 -1386.271 1088.637 C -1383.528 1087.562 -1381.687 1085.045 -1378.919 1084.017 C -1373.838 1081.841 -1368.399 1080.712 -1363.163 1078.978 C -1359.391 1077.657 -1355.339 1077.777 -1351.489 1076.82 C -1349.099 1076.247 -1346.636 1076.145 -1344.209 1075.822 C -1341.477 1075.464 -1338.889 1074.418 -1336.14 1074.167 C -1329.672 1073.904 -1324.137 1070.15 -1318.585 1067.227 C -1314.723 1065.284 -1311.412 1062.493 -1307.808 1060.138 C -1305.793 1058.781 -1304.305 1056.82 -1302.56 1055.159 C -1300.037 1052.613 -1297.228 1050.329 -1295.082 1047.43 C -1298.537 1048.106 -1301.346 1050.395 -1304.729 1051.244 C -1307.293 1051.883 -1309.368 1053.784 -1312.033 1054.089 C -1317.455 1055.123 -1322.757 1056.677 -1328.154 1057.759 C -1334.914 1057.872 -1341.687 1059.265 -1348.435 1058.207 C -1351.22 1057.675 -1354.054 1058.285 -1356.833 1057.819 C -1362.129 1056.677 -1367.586 1057.753 -1372.912 1056.803 C -1380.569 1055.386 -1388.578 1055.996 -1395.871 1058.739 C -1397.885 1059.845 -1399.589 1061.441 -1401.579 1062.595 C -1403.073 1063.437 -1404.131 1064.806 -1405.147 1066.145 C -1406.839 1068.41 -1409.296 1069.959 -1410.939 1072.272 C -1413.235 1075.565 -1415.978 1078.56 -1417.879 1082.122 C -1419.995 1085.954 -1422.936 1089.295 -1424.669 1093.348 C -1425.876 1096.235 -1427.717 1098.817 -1428.775 1101.776 Z" transform="matrix(-0.536029, 0.844199, -0.844199, -0.536029, -1163.253523, 2845.29416)" style="fill: rgb(128, 159, 254);"/>
    <path stroke="#F3EDE9" stroke-width="0.0938" d="M -1351.978 1091.345 C -1355.272 1092.483 -1358.123 1095.276 -1361.24 1097.102 C -1365.595 1099.54 -1370.164 1101.237 -1374.835 1101.182 C -1380.408 1103.449 -1386.081 1105.039 -1391.846 1105.641 C -1397.743 1106.222 -1402.763 1111.731 -1408.636 1112.322 C -1410.621 1112.848 -1412.211 1115.061 -1414.209 1115.565 C -1416.53 1116.274 -1419.037 1116.725 -1420.721 1119.528 C -1423.902 1124.147 -1428.543 1126.241 -1431.014 1131.955 C -1432.067 1135.048 -1432.891 1138.777 -1432.411 1142.267 C -1430.176 1148.229 -1427.146 1154.168 -1422.648 1156.444 C -1418.27 1159.817 -1413.271 1158.743 -1408.536 1158.872 C -1403.823 1158.959 -1399.224 1157.079 -1394.697 1155.285 C -1390.651 1153.739 -1387.299 1149.774 -1383.395 1147.66 C -1377.657 1144.362 -1372.965 1138.326 -1368.123 1132.869 C -1358.632 1124.555 -1352.322 1110.656 -1345.073 1098.682 C -1341.369 1091.58 -1337.251 1084.944 -1333.969 1077.382 C -1340.66 1079.97 -1345.222 1089.003 -1351.978 1091.345 Z" transform="matrix(-0.53603, 0.844199, -0.844199, -0.53603, -1180.779693, 2885.272889)" style="fill: rgb(255, 243, 0);"/>
    <path stroke="#F3EDE9" stroke-width="0.0938" d="M -1277.527 1441.874 C -1277.987 1443.612 -1278.325 1445.695 -1278.809 1447.38 C -1282.616 1460.112 -1286.679 1472.045 -1290.169 1485.823 C -1291.396 1489.423 -1292.177 1494.432 -1293.503 1497.677 C -1294.232 1499.46 -1294.46 1502.625 -1295.111 1504.646 C -1295.613 1506.233 -1296.102 1507.909 -1296.421 1510.001 C -1297.124 1514.532 -1298.154 1518.344 -1298.879 1522.84 C -1299.504 1526.679 -1300.288 1530.198 -1300.832 1534.188 C -1301.684 1540.403 -1303.028 1545.741 -1303.695 1552.266 C -1304.087 1555.946 -1304.885 1559.146 -1304.981 1563.163 C -1305.115 1567.073 -1305.502 1570.796 -1305.91 1574.458 C -1306.545 1580.052 -1306.793 1586.019 -1307.288 1591.756 C -1308.156 1606.837 -1309.058 1622.078 -1308.909 1637.523 C -1308.898 1640.839 -1308.511 1643.968 -1308.428 1647.267 C -1308.216 1657.445 -1307.659 1667.517 -1306.921 1677.411 C -1306.351 1687.9 -1305.489 1698.424 -1303.818 1707.574 C -1303.141 1712.397 -1302.605 1717.46 -1301.797 1722.08 C -1300.691 1728.295 -1299.76 1734.847 -1298.863 1741.434 C -1297.182 1751.053 -1294.7 1758.616 -1292.332 1766.241 C -1290.522 1773.139 -1288.459 1779.194 -1286.287 1784.736 C -1285.018 1787.804 -1284.082 1792.201 -1282.72 1794.852 C -1281.41 1798.07 -1279.925 1800.251 -1278.49 1802.716 C -1277.415 1804.454 -1276.246 1805.456 -1275.211 1807.477 C -1273.906 1809.995 -1272.444 1811.299 -1271.001 1812.575 C -1268.564 1814.455 -1266.224 1817.576 -1263.769 1819.207 C -1262.158 1819.722 -1260.597 1821.326 -1258.981 1821.698 C -1256.139 1822.532 -1253.276 1823.871 -1250.429 1822.541 C -1248.395 1821.62 -1246.225 1821.982 -1244.36 1818.605 C -1242.82 1815.945 -1241.233 1813.613 -1239.646 1811.299 C -1237.716 1805.926 -1235.423 1802.318 -1233.454 1797.123 C -1232.249 1793.221 -1231.104 1789.071 -1229.783 1785.605 C -1228.275 1781.899 -1227.007 1777.226 -1225.558 1773.273 C -1223.723 1768.175 -1222.998 1760.31 -1221.994 1753.342 C -1221.479 1749.103 -1220.765 1745.211 -1220.125 1741.194 C -1219.074 1733.375 -1217.957 1725.644 -1216.726 1718.133 C -1215.63 1711.085 -1214.694 1703.779 -1213.617 1696.704 C -1212.846 1688.441 -1212.668 1679.725 -1212.448 1671.134 C -1212.181 1661.621 -1211.321 1652.435 -1211.12 1642.904 C -1210.96 1638.33 -1210.566 1633.888 -1210.505 1629.277 C -1210.09 1619.117 -1210.364 1608.841 -1210.312 1598.618 C -1210.267 1593.29 -1210.838 1588.174 -1210.819 1582.854 C -1210.809 1578.705 -1210.958 1574.476 -1211.509 1570.725 C -1211.713 1570.539 -1212.124 1570.149 -1212.328 1569.963 C -1213.384 1575.105 -1213.447 1581.498 -1214.054 1587.252 C -1214.475 1591.969 -1214.712 1596.88 -1215.275 1601.464 C -1216.171 1608.983 -1216.666 1616.998 -1217.704 1624.321 C -1218.828 1633.843 -1220.224 1643.02 -1221.022 1652.95 C -1222.164 1665.052 -1223.853 1676.472 -1225.833 1687.244 C -1227.035 1693.743 -1227.783 1701.456 -1229.553 1706.536 C -1230.116 1708.327 -1230.298 1710.987 -1230.761 1713.035 C -1232.053 1718.16 -1233.692 1722.097 -1235.031 1727.071 C -1236.161 1731.229 -1237.502 1734.616 -1238.801 1738.126 C -1239.68 1740.432 -1240.457 1743.261 -1241.468 1744.91 C -1242.935 1747.205 -1244.112 1751.177 -1245.649 1753.014 C -1249.119 1758.722 -1252.944 1760.921 -1256.691 1763.483 C -1259.188 1765.346 -1261.758 1764.743 -1264.292 1764.778 C -1265.683 1764.663 -1267.116 1765 -1268.436 1763.253 C -1269.743 1761.604 -1271.192 1761.4 -1272.413 1758.98 C -1273.326 1757.251 -1274.348 1756.266 -1275.229 1754.352 C -1277.274 1750.123 -1279.407 1746.301 -1281.227 1740.964 C -1282.506 1737.976 -1283.497 1733.827 -1284.801 1730.972 C -1285.575 1729.394 -1285.881 1726.361 -1286.446 1724.127 C -1288.208 1716.928 -1289.565 1708.753 -1291.22 1701.305 C -1292.175 1696.509 -1292.847 1691.056 -1293.069 1685.32 C -1294.965 1676.152 -1295.783 1665.105 -1296.303 1654.2 C -1296.627 1645.901 -1297.875 1638.01 -1297.498 1629.463 C -1297.163 1620.03 -1297.901 1610.605 -1297.48 1601.198 C -1297.477 1592.9 -1296.847 1584.814 -1296.005 1577.082 C -1295.255 1570.255 -1294.789 1562.959 -1293.628 1556.735 C -1292.368 1549.722 -1291.688 1541.281 -1289.798 1535.766 C -1289.087 1532.486 -1288.841 1528.221 -1287.981 1525.251 C -1287.016 1521.855 -1286.156 1518.149 -1285.452 1514.08 C -1285.162 1513.938 -1284.856 1514 -1284.576 1513.672 C -1283.999 1511.712 -1283.847 1508.858 -1283.559 1506.375 C -1283.308 1503.476 -1282.613 1501.472 -1282.09 1499.149 C -1280.597 1492.207 -1279.02 1485.398 -1277.167 1479.502 C -1276.236 1476.434 -1275.519 1472.693 -1274.541 1469.776 C -1273.595 1466.681 -1272.324 1464.979 -1271.466 1461.548 C -1268.993 1452.097 -1265.994 1444.525 -1263.029 1436.971 C -1261.167 1433.044 -1259.562 1427.954 -1257.763 1423.725 C -1256.079 1418.76 -1254.178 1414.753 -1252.489 1409.805 C -1251.025 1405.514 -1249.409 1401.906 -1247.877 1397.916 C -1246.515 1394.396 -1244.959 1391.878 -1243.539 1388.651 C -1241.528 1383.97 -1239.264 1380.795 -1237.18 1376.54 C -1234.461 1370.821 -1231.493 1366.69 -1228.581 1362.301 C -1226.431 1357.939 -1223.961 1355.891 -1221.819 1351.449 C -1220.117 1347.893 -1218.237 1345.482 -1216.506 1342.113 C -1215.452 1340.056 -1214.265 1339.063 -1213.178 1337.263 C -1211.823 1335.117 -1210.573 1332.174 -1209.125 1330.755 C -1207.305 1328.902 -1205.629 1325.764 -1203.814 1323.866 C -1201.378 1321.525 -1198.967 1318.919 -1196.522 1316.685 C -1192.203 1310.7 -1187.635 1307.295 -1183.211 1302.366 C -1182.008 1300.841 -1180.452 1302.038 -1179.537 1298.42 C -1180.549 1298.11 -1181.582 1298.128 -1182.555 1299.218 C -1184.469 1301.151 -1186.482 1300.681 -1188.445 1301.32 C -1191.337 1302.889 -1194.25 1300.814 -1197.152 1301.009 C -1198.499 1301.08 -1199.749 1302.986 -1201.051 1303.909 C -1202.988 1305.221 -1204.934 1306.568 -1206.824 1308.537 C -1208.079 1310.789 -1209.559 1310.567 -1210.835 1312.624 C -1212.636 1315.541 -1214.569 1317.403 -1216.381 1320.258 C -1218.219 1322.323 -1219.863 1325.905 -1221.686 1328.104 C -1225.616 1333.512 -1229.577 1338.69 -1233.36 1345.207 C -1236.297 1350.81 -1239.552 1354.339 -1242.355 1360.767 C -1244.018 1364.774 -1245.832 1367.975 -1247.579 1371.521 C -1249.26 1374.97 -1251.069 1377.781 -1252.607 1381.975 C -1253.19 1383.464 -1253.153 1386.195 -1253.308 1388.394 C -1254.696 1391.488 -1256.469 1391.852 -1257.745 1395.566 C -1259.724 1399.795 -1261.952 1402.677 -1263.787 1407.678 C -1265.144 1411.1 -1266.611 1414.034 -1267.869 1417.891 C -1269.079 1421.606 -1270.572 1424.027 -1271.793 1427.706 C -1273.09 1430.614 -1274.191 1434.32 -1275.355 1437.787 C -1275.969 1439.764 -1276.811 1440.464 -1277.527 1441.874 Z" style="fill: rgb(81, 242, 66);"/>
    <path stroke="#F3EDE9" stroke-width="0.0938" d="M -1314.005 1263.499 C -1313.393 1266.739 -1313.242 1270.879 -1312.614 1274.1 C -1311.942 1277.35 -1311.958 1281.799 -1311.336 1285.149 C -1310.985 1287.159 -1310.614 1289.139 -1310.311 1291.289 C -1309.014 1300.399 -1307.463 1308.929 -1305.829 1317.189 C -1304.956 1321.119 -1303.497 1321.929 -1302.244 1320.659 C -1301.12 1320.299 -1300.48 1316.159 -1300.116 1312.549 C -1300.108 1307.319 -1300.226 1301.989 -1300.561 1296.919 C -1301.264 1290.399 -1302.391 1284.719 -1303.416 1278.919 C -1304.054 1275.089 -1305.066 1272.589 -1305.863 1269.339 C -1306.752 1265.759 -1307.638 1262.159 -1308.64 1259.039 C -1309.717 1255.73 -1310.303 1250.759 -1311.32 1247.239 C -1312.567 1242.899 -1313.362 1237.1 -1314.57 1232.629 C -1315.801 1226.919 -1316.798 1220.359 -1317.368 1213.259 C -1317.532 1213.739 -1317.689 1214.269 -1317.841 1214.829 C -1317.953 1223.619 -1317.572 1232.509 -1316.67 1240.619 C -1315.676 1248.059 -1315.31 1256.659 -1314.005 1263.499 Z" style="fill: rgb(255, 162, 0);"/>
    <path stroke="#F3EDE9" stroke-width="0.0938" d="M -1318.78 1284.529 C -1318.78 1275.329 -1319.737 1266.689 -1319.886 1257.559 C -1320.28 1246.469 -1321.698 1236.389 -1322.302 1225.479 C -1322.628 1225.949 -1323.078 1225.919 -1323.248 1227.319 C -1323.415 1228.849 -1323.295 1230.559 -1323.266 1232.179 C -1322.984 1238.739 -1323.319 1245.379 -1323.238 1251.989 C -1323.078 1259.649 -1323.258 1267.369 -1323.481 1274.999 C -1324.273 1290.22 -1324.035 1306.669 -1322.129 1320.6 C -1321.677 1323.119 -1320.934 1325.499 -1320.084 1325.22 C -1319.185 1323.539 -1318.233 1320.799 -1318.105 1316.709 C -1317.906 1311.98 -1318.136 1307.209 -1318.074 1302.47 C -1317.922 1296.289 -1318.829 1290.689 -1318.78 1284.529 Z" style="fill: rgb(236, 169, 210);"/>
    <path stroke="#F3EDE9" stroke-width="0.0938" d="M -1272.219 1661.05 C -1271.806 1665.09 -1271.732 1669.51 -1271.313 1673.56 C -1270.652 1680.19 -1269.473 1685.76 -1268.484 1691.68 C -1266.953 1700.49 -1264.38 1705.19 -1262.435 1712.43 C -1260.917 1718.69 -1258.863 1722.33 -1257.056 1727.16 C -1254.873 1733.39 -1252.264 1736.9 -1249.691 1740 C -1245.837 1746.12 -1241.635 1747.95 -1237.5 1748.97 C -1235.225 1749.52 -1233.009 1747.2 -1230.746 1746.79 C -1228.583 1744.89 -1226.399 1743.32 -1224.237 1741.38 C -1220.895 1737.74 -1217.605 1733.46 -1214.277 1729.63 C -1212.687 1728.88 -1211.319 1725.561 -1209.855 1723.35 C -1207.599 1719.66 -1205.376 1715.61 -1203.313 1710.49 C -1201.954 1708.2 -1200.681 1705.33 -1199.442 1702.22 C -1197.732 1699.09 -1196.383 1693.89 -1194.77 1690.191 C -1192.743 1685.36 -1190.75 1680.28 -1188.933 1674.34 C -1187.817 1670.571 -1186.363 1668.36 -1185.43 1663.8 C -1184.203 1658.17 -1182.682 1653.64 -1181.213 1648.99 C -1180.211 1645.8 -1179.444 1641.68 -1178.42 1638.6 C -1176.972 1634.15 -1175.943 1628.12 -1174.573 1623.37 C -1174.11 1621.75 -1173.698 1619.92 -1173.355 1617.92 C -1172.234 1611.35 -1170.844 1605.54 -1169.63 1599.23 C -1168.813 1594.74 -1167.948 1590.39 -1167.041 1586.17 C -1163.97 1570.54 -1161.328 1553.74 -1158.857 1536.66 C -1158.363 1532.79 -1158.022 1528.64 -1157.423 1524.97 C -1156.603 1519.76 -1156.079 1513.99 -1155.465 1508.41 C -1154.624 1500.72 -1154.213 1492.47 -1153.332 1484.83 C -1152.624 1474.28 -1150.932 1464.92 -1150.521 1454.07 C -1151.87 1456.79 -1151.926 1463.41 -1152.697 1467.92 C -1153.975 1476.03 -1154.765 1485.06 -1156.048 1493.16 C -1157.654 1505.35 -1159.354 1517.42 -1161.418 1528.57 C -1162.102 1533.27 -1163.182 1536.91 -1163.812 1541.73 C -1164.489 1546.82 -1165.598 1550.75 -1166.427 1555.45 C -1167.624 1562.41 -1168.933 1569.11 -1170.402 1575.26 C -1172.22 1582.02 -1173.821 1589.59 -1175.771 1595.82 C -1177.05 1600.63 -1178.504 1604.64 -1179.91 1608.87 C -1182.185 1616.66 -1184.682 1623.42 -1187.079 1630.64 C -1187.932 1633.09 -1188.915 1634.78 -1189.765 1637.23 C -1191.506 1642.23 -1193.494 1645.7 -1195.396 1649.68 C -1198.02 1655.06 -1200.723 1660.02 -1203.578 1663.34 C -1205.214 1665.91 -1206.883 1668.19 -1208.558 1670.35 C -1211.187 1673.56 -1213.969 1674.43 -1216.56 1678.07 C -1217.81 1679.71 -1219.154 1678.46 -1220.427 1679.58 C -1222.323 1680.06 -1224.151 1682.6 -1226.062 1682.09 C -1227.979 1681.7 -1229.9 1683.39 -1231.803 1682.11 C -1233.352 1681.18 -1234.938 1680.9 -1236.427 1678.89 C -1237.488 1677.39 -1238.651 1678.33 -1239.715 1676.94 C -1241.01 1675.36 -1242.366 1674.58 -1243.621 1672.59 C -1244.625 1670.92 -1245.779 1670.22 -1246.571 1667.12 C -1248.281 1667.06 -1249.693 1663.05 -1251.15 1660.18 C -1252.719 1657.18 -1253.953 1652.33 -1255.318 1648.23 C -1256.313 1645.34 -1256.964 1641.2 -1257.836 1637.85 C -1258.99 1633.75 -1259.521 1627.88 -1260.094 1622.44 C -1260.801 1615.75 -1260.959 1608.51 -1261.14 1601.42 C -1261.237 1596.37 -1261.772 1591.51 -1261.626 1586.42 C -1261.452 1581.29 -1262.04 1576.43 -1262.026 1571.35 C -1262.036 1562.71 -1261.038 1554.67 -1260.896 1546.11 C -1262.66 1549.78 -1264.052 1555.46 -1265.74 1559.58 C -1267.633 1563.75 -1269.198 1569.81 -1270.531 1576.35 C -1271.581 1583.36 -1272.079 1591.34 -1272.713 1599 C -1273.594 1610.11 -1273.858 1621.88 -1273.444 1633.39 C -1273.087 1642.62 -1273.136 1652.26 -1272.219 1661.05 Z" style="fill: rgb(236, 169, 210);"/>
    <path stroke="#F3EDE9" stroke-width="0.0938" d="M -1192.987 1591.967 C -1191.625 1587.547 -1189.879 1585.667 -1188.27 1582.987 C -1185.556 1579.347 -1182.984 1574.327 -1180.256 1570.817 C -1178.672 1568.797 -1176.915 1568.397 -1175.511 1564.607 C -1176.803 1564.707 -1178.018 1566.637 -1179.307 1566.807 C -1180.382 1567.047 -1181.407 1568.347 -1182.445 1569.327 C -1184.783 1571.927 -1187.154 1573.907 -1189.51 1576.227 C -1190.835 1577.397 -1192.08 1579.687 -1193.432 1580.437 C -1196.292 1581.917 -1198.941 1586.597 -1201.543 1591.117 C -1204.27 1594.367 -1206.707 1600.327 -1208.919 1607.137 C -1209.86 1610.397 -1210.383 1614.947 -1211.036 1619.017 C -1211.669 1622.947 -1212.048 1627.567 -1211.886 1632.227 C -1211.847 1637.087 -1210.663 1640.378 -1209.546 1641.667 C -1206.869 1642.607 -1204.17 1641.217 -1201.543 1639.237 C -1199.55 1637.248 -1197.485 1636.177 -1195.584 1633.017 C -1194.086 1630.587 -1192.412 1629.907 -1191.005 1626.647 C -1189.743 1623.807 -1188.278 1622.707 -1186.994 1620.027 C -1185.19 1616.347 -1183.235 1613.897 -1181.464 1609.957 C -1178.907 1605.227 -1176.489 1599.477 -1173.963 1594.537 C -1172.888 1591.037 -1171.625 1588.737 -1170.357 1586.467 C -1168.326 1581.648 -1166.067 1578.307 -1164.155 1572.778 C -1165.722 1572.577 -1167.28 1571.827 -1168.843 1571.677 C -1170.825 1577.608 -1173.126 1581.617 -1175.231 1586.837 C -1176.863 1590.237 -1178.46 1593.857 -1180.066 1597.437 C -1182.699 1601.758 -1185.217 1607.317 -1188.02 1609.967 C -1189.865 1611.827 -1191.743 1614.367 -1193.678 1613.567 C -1194.595 1612.697 -1195.801 1611.337 -1196.049 1607.337 C -1195.785 1604.867 -1195.307 1602.817 -1195.079 1600.287 C -1194.778 1596.337 -1193.733 1594.517 -1192.987 1591.967 Z" style="fill: rgb(241, 33, 161);"/>
    <path stroke="#F3EDE9" stroke-width="0.0938" d="M -1229.758 1690.209 C -1231.374 1681.149 -1233.633 1674.049 -1236.114 1668.659 C -1237.892 1665.019 -1239.317 1659.409 -1241.056 1655.549 C -1243.2 1651.359 -1244.847 1644.299 -1246.983 1640.049 C -1247.927 1638.169 -1248.641 1635.089 -1249.47 1632.629 C -1250.291 1630.149 -1251.073 1627.459 -1251.752 1624.429 C -1252.477 1621.179 -1253.347 1618.339 -1253.876 1614.539 C -1254.54 1609.899 -1255.206 1605.189 -1256.161 1601.319 C -1257.319 1596.769 -1257.915 1590.729 -1258.799 1585.459 C -1260.674 1574.189 -1262.13 1561.979 -1263.302 1549.429 C -1263.994 1538.039 -1264.734 1526.349 -1264.389 1514.579 C -1264.245 1509.699 -1264.204 1504.799 -1264.204 1499.899 C -1264.431 1499.939 -1264.656 1500.009 -1264.878 1500.099 C -1265.161 1504.029 -1265.728 1507.579 -1265.95 1511.589 C -1266.243 1513.049 -1266.609 1514.389 -1266.761 1516.189 C -1267.38 1524.029 -1267.584 1532.219 -1267.997 1540.229 C -1267.556 1546.489 -1267.681 1552.959 -1267.582 1559.369 C -1266.633 1579.929 -1264.737 1600.329 -1261.27 1616.709 C -1260.692 1619.599 -1260.496 1623.499 -1259.732 1625.889 C -1258.736 1629.119 -1258.138 1633.699 -1257.178 1637.069 C -1256.048 1641.109 -1255.07 1645.719 -1253.962 1649.849 C -1252.508 1655.109 -1251.601 1662.069 -1250.218 1667.569 C -1248.73 1674.189 -1248.581 1683.239 -1248.534 1691.559 C -1248.581 1694.849 -1248.879 1697.999 -1249.033 1701.239 C -1249.167 1704.749 -1249.844 1707.399 -1250.215 1710.559 C -1250.516 1713.299 -1251.256 1714.819 -1251.575 1717.529 C -1252.077 1721.98 -1253.149 1724.829 -1253.925 1728.529 C -1254.725 1732.25 -1255.834 1734.639 -1256.906 1737.029 C -1258.859 1741.809 -1260.995 1745.539 -1263.21 1748.11 C -1265.472 1749.669 -1267.809 1750.82 -1270.097 1749.35 C -1271.752 1748.1 -1273.512 1746.95 -1274.861 1742.8 C -1275.946 1739.68 -1277.361 1738.74 -1278.372 1735.19 C -1280.626 1726.47 -1283.317 1719.09 -1284.927 1708.239 C -1286.258 1702.049 -1286.59 1693.989 -1287.121 1686.489 C -1287.699 1679.009 -1287.903 1671.22 -1288.193 1663.549 C -1288.115 1658.849 -1287.994 1654.179 -1287.976 1649.48 C -1287.095 1628.379 -1285.85 1607.399 -1283.819 1587.449 C -1283.408 1579.769 -1282.475 1572.749 -1281.923 1565.239 C -1281.209 1557.759 -1280.218 1550.689 -1279.186 1543.789 C -1278.391 1537.73 -1277.253 1532.159 -1276.874 1525.429 C -1278.074 1527.679 -1278.971 1531.529 -1279.957 1534.859 C -1281.063 1538.639 -1282.198 1542.279 -1283.327 1545.97 C -1285.317 1552.359 -1286.854 1560.47 -1288.729 1567.329 C -1289.963 1571.559 -1290.528 1577.689 -1291.532 1582.619 C -1292.513 1587.179 -1292.688 1593.269 -1293.464 1598.249 C -1294.244 1603.089 -1294.557 1608.689 -1295.07 1613.959 C -1295.614 1619.659 -1296.16 1625.369 -1296.639 1631.169 C -1297.355 1639.23 -1297.481 1647.949 -1298.503 1655.63 C -1298.984 1663.13 -1299.86 1670.21 -1300.111 1677.919 C -1300.283 1681.49 -1300.822 1684.73 -1300.84 1688.439 C -1300.906 1695.709 -1300.676 1703.1 -1300.012 1709.95 C -1299.23 1717.1 -1298.333 1724.08 -1297.3 1730.75 C -1295.831 1738.059 -1294.649 1746.279 -1292.853 1752.569 C -1291.55 1756.949 -1290.295 1761.699 -1288.737 1764.769 C -1286.868 1768.5 -1285.05 1773.009 -1282.94 1774.49 C -1280.506 1776.23 -1278.205 1779.75 -1275.855 1782.63 C -1274.652 1784.319 -1273.331 1783.929 -1272.121 1785.569 C -1271.002 1787.019 -1269.867 1788.309 -1268.698 1789.1 C -1267.179 1790.079 -1265.697 1792.25 -1264.136 1792.139 C -1262.454 1792.019 -1260.797 1793.38 -1259.113 1793.399 C -1257.596 1793.449 -1256.075 1795.509 -1254.563 1794.1 C -1251.185 1790.829 -1247.545 1791.24 -1244.4 1784.919 C -1242.489 1780.949 -1240.598 1776.839 -1238.737 1772.539 C -1237.403 1769.439 -1236.538 1764.279 -1235.319 1760.659 C -1234.564 1758.23 -1233.68 1756.25 -1233.092 1753.169 C -1232.697 1750.38 -1232.6 1747.139 -1232.224 1744.329 C -1231.688 1740.179 -1231.086 1736.149 -1230.38 1732.409 C -1229.938 1729.97 -1229.473 1727.319 -1229.457 1724.25 C -1229.392 1716.99 -1229.394 1709.73 -1229.444 1702.479 C -1229.486 1698.389 -1229.243 1693.979 -1229.758 1690.209 Z"/>
    <path stroke="#F3EDE9" stroke-width="0.0938" d="M -1325.321 1577.469 C -1322.979 1574.579 -1320.688 1571.039 -1318.508 1566.649 C -1317.041 1565.029 -1315.896 1561.059 -1314.541 1558.569 C -1313.516 1556.449 -1312.47 1554.469 -1311.459 1552.259 C -1311.108 1551.669 -1311.04 1550.159 -1310.894 1548.989 C -1313.216 1548.809 -1315.548 1550.349 -1317.723 1553.469 C -1319.465 1555.909 -1321.449 1556.009 -1323 1560.259 C -1324.341 1563.929 -1326.056 1566.569 -1326.76 1572.719 C -1327.079 1575.869 -1326.082 1578.919 -1325.321 1577.469 Z" style="fill: rgb(236, 169, 210);"/>
    <path stroke="#F3EDE9" stroke-width="0.0938" d="M -1268.424 1698.169 C -1270.965 1703.039 -1274.273 1699.529 -1275.967 1690.999 C -1276.396 1688.839 -1276.417 1686.049 -1276.67 1683.639 C -1277.094 1680.959 -1277.802 1678.839 -1277.918 1675.579 C -1278.278 1668.619 -1278.451 1661.549 -1278.71 1654.549 C -1279.047 1645.789 -1279.709 1637.23 -1279.902 1628.399 C -1279.779 1616.36 -1279.272 1604.429 -1278.65 1592.639 C -1278.365 1583.639 -1276.924 1574.72 -1277.857 1565.6 C -1279.478 1573.73 -1279.902 1584.009 -1280.796 1593.399 C -1281.191 1599.11 -1282.119 1604.08 -1282.36 1609.98 C -1283.518 1620.029 -1283.853 1631.019 -1284.454 1641.669 C -1285.092 1651.209 -1285.053 1661.409 -1284.326 1670.87 C -1283.916 1680.049 -1283.184 1689.029 -1282.088 1697.37 C -1281.521 1702.839 -1280.281 1706.58 -1279.494 1711.53 C -1277.876 1717.8 -1276.092 1723.75 -1273.956 1727.3 C -1272.565 1729.6 -1271.245 1733.24 -1269.666 1733.17 C -1266.756 1733.52 -1263.594 1734.39 -1260.993 1728.4 C -1259.667 1725.08 -1258.148 1722.96 -1256.935 1718.98 C -1254.77 1712.27 -1253.007 1702.82 -1252.728 1691.97 C -1252.72 1685.74 -1252.994 1679.159 -1254.059 1674.21 C -1255.86 1666.12 -1257.536 1657.56 -1259.607 1650.41 C -1261.471 1642.72 -1262.92 1633.76 -1264.596 1625.5 C -1265.877 1620.06 -1266.857 1613.68 -1267.65 1607.05 C -1268.243 1601.42 -1269.085 1596.18 -1269.464 1590.25 C -1270.332 1591.64 -1271.062 1594.65 -1271.049 1598.44 C -1271.284 1603.96 -1270.325 1608.589 -1269.854 1613.52 C -1268.939 1623.43 -1267.522 1632.5 -1266.185 1641.65 C -1265.221 1649.07 -1264.12 1656.47 -1263.905 1664.9 C -1263.435 1672.19 -1264.13 1679.41 -1264.747 1686.24 C -1265.365 1692.279 -1266.905 1695.929 -1268.424 1698.169 Z" style="fill: rgb(241, 33, 161);"/>
    <path stroke="#F3EDE9" stroke-width="0.0938" d="M -1220.936 1685.519 C -1217.804 1685.419 -1214.653 1684.519 -1211.607 1681.569 C -1212.425 1678.849 -1213.469 1681.639 -1214.402 1680.769 C -1215.764 1679.899 -1217.16 1680.259 -1218.507 1678.999 C -1219.932 1677.679 -1221.412 1677.499 -1222.816 1675.889 C -1223.122 1676.879 -1223.441 1677.859 -1223.697 1679.049 C -1223.872 1681.209 -1223.524 1683.429 -1223.104 1684.829 C -1222.395 1685.409 -1221.66 1685.369 -1220.936 1685.519 Z" style="fill: rgb(236, 169, 210);"/>
    <path stroke="#F3EDE9" stroke-width="0.0938" d="M -1231.128 1780.549 C -1232.059 1782.6 -1233.073 1783.949 -1234.07 1785.399 C -1235.4 1787.259 -1236.417 1791.22 -1237.673 1793.63 C -1238.376 1795.049 -1239.163 1795.799 -1239.837 1797.449 C -1240.183 1798.6 -1240.363 1800.279 -1240.601 1801.769 C -1239.44 1802.009 -1238.287 1801.319 -1237.152 1800.429 C -1235.147 1798.839 -1233.094 1797.99 -1231.136 1795.589 C -1229.648 1793.719 -1228.022 1793.669 -1226.612 1790.879 C -1225.114 1787.969 -1223.585 1785.299 -1222.144 1781.969 C -1218.706 1773.889 -1215.069 1767.129 -1211.633 1759.029 C -1209.716 1755.869 -1208.25 1750.079 -1206.576 1745.519 C -1205.617 1742.899 -1204.754 1739.849 -1203.833 1737.049 C -1203.046 1734.689 -1202.487 1731.419 -1201.692 1729.099 C -1200.764 1726.339 -1199.862 1723.459 -1198.918 1720.799 C -1197.611 1717.159 -1196.748 1711.789 -1195.514 1707.839 C -1193.286 1699.059 -1190.666 1691.889 -1188.451 1683.059 C -1189.672 1684.059 -1190.904 1685.569 -1191.73 1689.389 C -1193.479 1694.029 -1195.145 1699.109 -1196.957 1703.399 C -1198.29 1708.169 -1200.136 1710.239 -1201.342 1715.559 C -1202.309 1719.719 -1203.682 1721.889 -1204.824 1725.209 C -1205.75 1727.889 -1206.793 1729.879 -1207.889 1731.299 C -1208.958 1732.529 -1209.706 1735.839 -1210.59 1738.229 C -1211.398 1740.439 -1212.404 1741.089 -1213.265 1742.889 C -1213.939 1744.219 -1214.501 1746.199 -1215.103 1747.939 C -1215.884 1750.309 -1216.928 1750.669 -1217.757 1752.719 C -1219.069 1755.789 -1220.178 1760.369 -1221.723 1761.739 C -1222.866 1762.799 -1223.828 1765.439 -1224.761 1768.059 C -1225.705 1770.779 -1226.968 1771.139 -1227.878 1774.109 C -1228.84 1777.079 -1230.074 1778.169 -1231.128 1780.549 Z" style="fill: rgb(236, 169, 210);"/>
    <path stroke="#F3EDE9" stroke-width="0.0938" d="M -1225.653 1744.639 C -1224.134 1743.169 -1222.581 1741.72 -1221.226 1738.569 C -1219.223 1734.169 -1217.03 1730.949 -1215.231 1725.299 C -1213.811 1720.959 -1212.138 1718.029 -1210.765 1713.47 C -1209.852 1710.519 -1208.788 1708.379 -1207.81 1705.779 C -1206.142 1701.429 -1204.074 1698.889 -1202.809 1692.559 C -1204.066 1693.999 -1205.358 1694.919 -1206.628 1696.139 C -1207.515 1696.859 -1208.14 1699.989 -1209.071 1700.119 C -1210.768 1700.489 -1212.091 1705.369 -1213.782 1705.899 C -1215.155 1706.329 -1216.086 1710.6 -1217.302 1712.519 C -1218.557 1714.549 -1219.71 1717.35 -1220.97 1719.339 C -1222.416 1721.519 -1223.389 1726.789 -1223.917 1732.199 C -1224.366 1736.589 -1225.038 1740.569 -1225.653 1744.639 Z" style="fill: rgb(236, 169, 210);"/>
    <path stroke="#F3EDE9" stroke-width="0.0938" d="M -1295.432 1327.728 C -1295.893 1329.466 -1296.23 1331.549 -1296.714 1333.234 C -1300.521 1345.966 -1304.584 1357.899 -1308.074 1371.677 C -1309.302 1375.277 -1310.083 1380.286 -1311.409 1383.531 C -1312.138 1385.314 -1312.365 1388.479 -1313.016 1390.5 C -1313.519 1392.087 -1314.008 1393.763 -1314.327 1395.855 C -1315.03 1400.386 -1316.06 1404.198 -1316.785 1408.694 C -1317.41 1412.533 -1318.193 1416.052 -1318.738 1420.042 C -1319.589 1426.257 -1320.933 1431.595 -1321.6 1438.12 C -1321.993 1441.8 -1322.791 1445 -1322.886 1449.017 C -1323.021 1452.927 -1323.407 1456.65 -1323.816 1460.312 C -1324.451 1465.906 -1324.698 1471.873 -1325.193 1477.61 C -1326.062 1492.691 -1326.964 1507.932 -1326.815 1523.377 C -1326.803 1526.693 -1326.417 1529.822 -1326.333 1533.121 C -1326.121 1543.299 -1325.565 1553.371 -1324.827 1563.265 C -1324.256 1573.754 -1323.395 1584.278 -1321.724 1593.428 C -1321.047 1598.251 -1320.51 1603.314 -1319.703 1607.934 C -1318.597 1614.149 -1317.666 1620.701 -1316.769 1627.288 C -1315.088 1636.907 -1312.605 1644.47 -1310.238 1652.095 C -1308.427 1658.993 -1306.365 1665.048 -1304.193 1670.59 C -1302.923 1673.658 -1301.988 1678.055 -1300.625 1680.706 C -1299.316 1683.924 -1297.831 1686.105 -1296.396 1688.57 C -1295.321 1690.308 -1294.151 1691.31 -1293.117 1693.331 C -1291.812 1695.849 -1290.349 1697.153 -1288.906 1698.429 C -1286.469 1700.309 -1284.13 1703.43 -1281.675 1705.061 C -1280.063 1705.576 -1278.503 1707.18 -1276.886 1707.552 C -1274.045 1708.386 -1271.182 1709.725 -1268.334 1708.395 C -1266.301 1707.474 -1264.13 1707.836 -1262.266 1704.459 C -1260.725 1701.799 -1259.139 1699.467 -1257.552 1697.153 C -1255.621 1691.78 -1253.328 1688.172 -1251.359 1682.977 C -1250.155 1679.075 -1249.01 1674.925 -1247.688 1671.459 C -1246.181 1667.753 -1244.912 1663.08 -1243.464 1659.127 C -1241.629 1654.029 -1240.904 1646.164 -1239.9 1639.196 C -1239.385 1634.957 -1238.671 1631.065 -1238.031 1627.048 C -1236.979 1619.229 -1235.863 1611.498 -1234.631 1603.987 C -1233.536 1596.939 -1232.599 1589.633 -1231.522 1582.558 C -1230.751 1574.295 -1230.573 1565.579 -1230.354 1556.988 C -1230.087 1547.475 -1229.227 1538.289 -1229.026 1528.758 C -1228.865 1524.184 -1228.472 1519.742 -1228.411 1515.131 C -1227.995 1504.971 -1228.27 1494.695 -1228.218 1484.472 C -1228.172 1479.144 -1228.744 1474.028 -1228.724 1468.708 C -1228.714 1464.559 -1228.864 1460.33 -1229.415 1456.579 C -1229.619 1456.393 -1230.03 1456.003 -1230.234 1455.817 C -1231.29 1460.959 -1231.353 1467.352 -1231.959 1473.106 C -1232.38 1477.823 -1232.618 1482.734 -1233.181 1487.318 C -1234.077 1494.837 -1234.572 1502.852 -1235.609 1510.175 C -1236.734 1519.697 -1238.13 1528.874 -1238.927 1538.804 C -1240.069 1550.906 -1241.759 1562.326 -1243.739 1573.098 C -1244.941 1579.597 -1245.688 1587.31 -1247.458 1592.39 C -1248.021 1594.181 -1248.203 1596.841 -1248.667 1598.889 C -1249.958 1604.014 -1251.598 1607.951 -1252.937 1612.925 C -1254.067 1617.083 -1255.407 1620.47 -1256.707 1623.98 C -1257.586 1626.286 -1258.363 1629.115 -1259.374 1630.764 C -1260.841 1633.059 -1262.018 1637.031 -1263.555 1638.868 C -1267.025 1644.576 -1270.849 1646.775 -1274.597 1649.337 C -1277.094 1651.2 -1279.664 1650.597 -1282.198 1650.632 C -1283.589 1650.517 -1285.021 1650.854 -1286.342 1649.107 C -1287.649 1647.458 -1289.098 1647.254 -1290.318 1644.834 C -1291.232 1643.105 -1292.254 1642.12 -1293.135 1640.206 C -1295.18 1635.977 -1297.312 1632.155 -1299.133 1626.818 C -1300.411 1623.83 -1301.402 1619.681 -1302.707 1616.826 C -1303.48 1615.248 -1303.786 1612.215 -1304.352 1609.981 C -1306.114 1602.782 -1307.47 1594.607 -1309.125 1587.159 C -1310.081 1582.363 -1310.753 1576.91 -1310.974 1571.174 C -1312.87 1562.006 -1313.688 1550.959 -1314.208 1540.054 C -1314.532 1531.755 -1315.781 1523.864 -1315.404 1515.317 C -1315.068 1505.884 -1315.807 1496.459 -1315.385 1487.052 C -1315.383 1478.754 -1314.753 1470.668 -1313.911 1462.936 C -1313.161 1456.109 -1312.694 1448.813 -1311.534 1442.589 C -1310.274 1435.576 -1309.594 1427.135 -1307.703 1421.62 C -1306.993 1418.34 -1306.746 1414.075 -1305.886 1411.105 C -1304.922 1407.709 -1304.062 1404.003 -1303.358 1399.934 C -1303.068 1399.792 -1302.761 1399.854 -1302.482 1399.526 C -1301.905 1397.566 -1301.753 1394.712 -1301.464 1392.229 C -1301.214 1389.33 -1300.519 1387.326 -1299.995 1385.003 C -1298.503 1378.061 -1296.926 1371.252 -1295.073 1365.356 C -1294.141 1362.288 -1293.425 1358.547 -1292.447 1355.63 C -1291.5 1352.535 -1290.229 1350.833 -1289.371 1347.402 C -1286.899 1337.951 -1283.9 1330.379 -1280.935 1322.825 C -1279.073 1318.898 -1277.468 1313.808 -1275.668 1309.579 C -1273.984 1304.614 -1272.083 1300.607 -1270.395 1295.659 C -1268.931 1291.368 -1267.315 1287.76 -1265.782 1283.77 C -1264.421 1280.25 -1262.865 1277.732 -1261.444 1274.505 C -1259.433 1269.824 -1257.17 1266.649 -1255.086 1262.394 C -1252.367 1256.675 -1249.399 1252.544 -1246.487 1248.155 C -1244.337 1243.793 -1241.867 1241.745 -1239.724 1237.303 C -1238.022 1233.747 -1236.143 1231.336 -1234.411 1227.967 C -1233.358 1225.91 -1232.171 1224.917 -1231.083 1223.117 C -1229.729 1220.971 -1228.479 1218.028 -1227.031 1216.609 C -1225.211 1214.756 -1223.535 1211.618 -1221.719 1209.72 C -1219.284 1207.379 -1216.873 1204.773 -1214.427 1202.539 C -1210.109 1196.554 -1205.541 1193.149 -1201.117 1188.22 C -1199.914 1186.695 -1198.358 1187.892 -1197.443 1184.274 C -1198.454 1183.964 -1199.488 1183.982 -1200.461 1185.072 C -1202.375 1187.005 -1204.388 1186.535 -1206.35 1187.174 C -1209.243 1188.743 -1212.156 1186.668 -1215.057 1186.863 C -1216.405 1186.934 -1217.655 1188.84 -1218.957 1189.763 C -1220.894 1191.075 -1222.839 1192.422 -1224.729 1194.391 C -1225.984 1196.643 -1227.464 1196.421 -1228.74 1198.478 C -1230.542 1201.395 -1232.474 1203.257 -1234.286 1206.112 C -1236.125 1208.177 -1237.769 1211.759 -1239.592 1213.958 C -1243.521 1219.366 -1247.483 1224.544 -1251.266 1231.061 C -1254.203 1236.664 -1257.458 1240.193 -1260.26 1246.621 C -1261.923 1250.628 -1263.738 1253.829 -1265.484 1257.375 C -1267.166 1260.824 -1268.974 1263.635 -1270.513 1267.829 C -1271.095 1269.318 -1271.058 1272.049 -1271.214 1274.248 C -1272.602 1277.342 -1274.375 1277.706 -1275.651 1281.42 C -1277.63 1285.649 -1279.858 1288.531 -1281.693 1293.532 C -1283.05 1296.954 -1284.516 1299.888 -1285.775 1303.745 C -1286.984 1307.46 -1288.478 1309.881 -1289.698 1313.56 C -1290.995 1316.468 -1292.097 1320.174 -1293.26 1323.641 C -1293.875 1325.618 -1294.717 1326.318 -1295.432 1327.728 Z" style="fill: rgb(81, 242, 66);"/>
    <path stroke="#F3EDE9" stroke-width="0.0938" d="M -1345.777 1221.449 C -1346.237 1223.187 -1346.575 1225.27 -1347.059 1226.955 C -1350.866 1239.687 -1354.929 1251.62 -1358.419 1265.398 C -1359.646 1268.998 -1360.427 1274.007 -1361.753 1277.252 C -1362.482 1279.035 -1362.71 1282.2 -1363.361 1284.221 C -1363.863 1285.809 -1364.352 1287.484 -1364.671 1289.576 C -1365.374 1294.107 -1366.404 1297.919 -1367.129 1302.415 C -1367.754 1306.254 -1368.538 1309.773 -1369.082 1313.763 C -1369.934 1319.978 -1371.278 1325.316 -1371.945 1331.841 C -1372.337 1335.521 -1373.135 1338.721 -1373.231 1342.738 C -1373.365 1346.648 -1373.752 1350.372 -1374.16 1354.033 C -1374.795 1359.627 -1375.043 1365.594 -1375.538 1371.331 C -1376.406 1386.413 -1377.308 1401.653 -1377.159 1417.098 C -1377.148 1420.415 -1376.761 1423.544 -1376.678 1426.843 C -1376.466 1437.021 -1375.909 1447.093 -1375.171 1456.987 C -1374.601 1467.476 -1373.739 1478 -1372.068 1487.15 C -1371.391 1491.973 -1370.855 1497.036 -1370.047 1501.656 C -1368.941 1507.871 -1368.01 1514.423 -1367.113 1521.01 C -1365.432 1530.629 -1362.95 1538.192 -1360.582 1545.817 C -1358.772 1552.715 -1356.709 1558.77 -1354.537 1564.312 C -1353.268 1567.38 -1352.332 1571.777 -1350.97 1574.428 C -1349.66 1577.646 -1348.175 1579.827 -1346.74 1582.292 C -1345.665 1584.03 -1344.496 1585.032 -1343.461 1587.053 C -1342.156 1589.571 -1340.694 1590.875 -1339.251 1592.151 C -1336.814 1594.031 -1334.474 1597.152 -1332.019 1598.783 C -1330.408 1599.298 -1328.847 1600.902 -1327.231 1601.274 C -1324.389 1602.108 -1321.526 1603.447 -1318.679 1602.117 C -1316.645 1601.196 -1314.475 1601.558 -1312.61 1598.181 C -1311.07 1595.521 -1309.483 1593.189 -1307.896 1590.875 C -1305.966 1585.502 -1303.673 1581.894 -1301.704 1576.699 C -1300.499 1572.797 -1299.354 1568.647 -1298.033 1565.181 C -1296.525 1561.475 -1295.257 1556.802 -1293.808 1552.849 C -1291.973 1547.751 -1291.248 1539.886 -1290.244 1532.918 C -1289.729 1528.679 -1289.015 1524.787 -1288.375 1520.77 C -1287.324 1512.951 -1286.207 1505.22 -1284.976 1497.709 C -1283.88 1490.661 -1282.944 1483.355 -1281.867 1476.28 C -1281.096 1468.017 -1280.918 1459.301 -1280.698 1450.71 C -1280.431 1441.197 -1279.571 1432.011 -1279.37 1422.48 C -1279.21 1417.906 -1278.816 1413.464 -1278.755 1408.853 C -1278.34 1398.693 -1278.614 1388.417 -1278.562 1378.194 C -1278.517 1372.866 -1279.088 1367.75 -1279.069 1362.43 C -1279.059 1358.281 -1279.208 1354.052 -1279.759 1350.301 C -1279.963 1350.115 -1280.374 1349.725 -1280.578 1349.538 C -1281.634 1354.681 -1281.697 1361.074 -1282.304 1366.828 C -1282.725 1371.545 -1282.962 1376.456 -1283.525 1381.04 C -1284.421 1388.559 -1284.916 1396.574 -1285.954 1403.897 C -1287.078 1413.419 -1288.474 1422.596 -1289.272 1432.526 C -1290.414 1444.628 -1292.103 1456.048 -1294.083 1466.82 C -1295.285 1473.319 -1296.033 1481.032 -1297.803 1486.112 C -1298.366 1487.903 -1298.548 1490.563 -1299.011 1492.611 C -1300.303 1497.736 -1301.942 1501.673 -1303.281 1506.647 C -1304.411 1510.805 -1305.752 1514.192 -1307.051 1517.702 C -1307.93 1520.008 -1308.707 1522.837 -1309.718 1524.486 C -1311.185 1526.781 -1312.362 1530.753 -1313.899 1532.59 C -1317.369 1538.298 -1321.194 1540.497 -1324.941 1543.059 C -1327.438 1544.922 -1330.008 1544.319 -1332.542 1544.354 C -1333.933 1544.239 -1335.366 1544.576 -1336.686 1542.829 C -1337.993 1541.18 -1339.442 1540.976 -1340.663 1538.556 C -1341.576 1536.827 -1342.598 1535.842 -1343.479 1533.928 C -1345.524 1529.699 -1347.657 1525.877 -1349.477 1520.54 C -1350.756 1517.552 -1351.747 1513.403 -1353.051 1510.548 C -1353.825 1508.97 -1354.131 1505.937 -1354.696 1503.703 C -1356.458 1496.504 -1357.815 1488.329 -1359.47 1480.881 C -1360.425 1476.085 -1361.097 1470.632 -1361.319 1464.896 C -1363.215 1455.728 -1364.033 1444.681 -1364.553 1433.776 C -1364.877 1425.477 -1366.125 1417.586 -1365.748 1409.038 C -1365.413 1399.606 -1366.151 1390.18 -1365.73 1380.773 C -1365.727 1372.476 -1365.097 1364.389 -1364.255 1356.658 C -1363.505 1349.83 -1363.039 1342.534 -1361.878 1336.31 C -1360.618 1329.297 -1359.938 1320.856 -1358.048 1315.341 C -1357.337 1312.061 -1357.091 1307.796 -1356.231 1304.826 C -1355.266 1301.43 -1354.406 1297.724 -1353.702 1293.655 C -1353.412 1293.513 -1353.106 1293.575 -1352.826 1293.247 C -1352.249 1291.288 -1352.097 1288.434 -1351.809 1285.95 C -1351.558 1283.051 -1350.863 1281.047 -1350.34 1278.724 C -1348.847 1271.783 -1347.27 1264.973 -1345.417 1259.077 C -1344.486 1256.009 -1343.769 1252.268 -1342.791 1249.351 C -1341.845 1246.256 -1340.574 1244.554 -1339.716 1241.123 C -1337.243 1231.672 -1334.244 1224.1 -1331.279 1216.546 C -1329.417 1212.619 -1327.812 1207.529 -1326.013 1203.3 C -1324.329 1198.335 -1322.428 1194.328 -1320.739 1189.38 C -1319.275 1185.089 -1317.659 1181.481 -1316.127 1177.491 C -1314.765 1173.971 -1313.209 1171.453 -1311.789 1168.226 C -1309.778 1163.545 -1307.514 1160.37 -1305.43 1156.115 C -1302.711 1150.396 -1299.743 1146.265 -1296.831 1141.876 C -1294.681 1137.514 -1292.211 1135.466 -1290.069 1131.024 C -1288.367 1127.468 -1286.487 1125.057 -1284.756 1121.688 C -1283.702 1119.631 -1282.515 1118.638 -1281.428 1116.838 C -1280.073 1114.692 -1278.823 1111.749 -1277.375 1110.33 C -1275.555 1108.477 -1273.879 1105.339 -1272.064 1103.441 C -1269.628 1101.1 -1267.217 1098.494 -1264.772 1096.26 C -1260.453 1090.275 -1255.885 1086.87 -1251.462 1081.941 C -1250.259 1080.416 -1248.703 1081.613 -1247.787 1077.995 C -1248.8 1077.685 -1249.833 1077.703 -1250.806 1078.793 C -1252.719 1080.726 -1254.733 1080.256 -1256.696 1080.895 C -1259.588 1082.464 -1262.5 1080.389 -1265.402 1080.584 C -1266.75 1080.655 -1268 1082.561 -1269.302 1083.484 C -1271.239 1084.796 -1273.185 1086.143 -1275.074 1088.112 C -1276.329 1090.364 -1277.809 1090.142 -1279.085 1092.199 C -1280.886 1095.116 -1282.819 1096.978 -1284.631 1099.833 C -1286.469 1101.898 -1288.113 1105.48 -1289.936 1107.679 C -1293.866 1113.087 -1297.827 1118.265 -1301.61 1124.782 C -1304.547 1130.385 -1307.802 1133.914 -1310.605 1140.342 C -1312.268 1144.349 -1314.082 1147.55 -1315.829 1151.096 C -1317.51 1154.545 -1319.319 1157.356 -1320.857 1161.55 C -1321.44 1163.039 -1321.403 1165.77 -1321.558 1167.969 C -1322.946 1171.063 -1324.719 1171.427 -1325.995 1175.141 C -1327.974 1179.37 -1330.202 1182.252 -1332.037 1187.253 C -1333.394 1190.675 -1334.861 1193.609 -1336.119 1197.466 C -1337.329 1201.181 -1338.822 1203.602 -1340.043 1207.281 C -1341.34 1210.189 -1342.441 1213.895 -1343.605 1217.362 C -1344.219 1219.339 -1345.061 1220.039 -1345.777 1221.449 Z" transform="matrix(0.989128, -0.147055, 0.147055, 0.989128, -211.359148, -178.435951)" style="fill: rgb(81, 242, 66);"/>
  </g>
</svg>