<svg class="bottomOverlay" width="86" height="380" viewBox="202.715 584.407 86.593 380.048" preserveAspectRatio="xMidYMax" xmlns="http://www.w3.org/2000/svg"><defs><radialGradient id="a" gradientUnits="userSpaceOnUse" cx="227.37" cy="813.536" r="11.395"><stop offset="0" stop-color="#d08888"/><stop offset="1" stop-color="#ae4545"/></radialGradient><radialGradient id="c" gradientUnits="userSpaceOnUse" cx="232.317" cy="815.892" r="14.22" gradientTransform="matrix(1.17155 0 0 .81117 -41.355 142.28)"><stop offset="0" stop-color="#d08888"/><stop offset="1" stop-color="#ae4545"/></radialGradient><radialGradient id="e" gradientUnits="userSpaceOnUse" cx="238.791" cy="819.54" r="7.521"><stop offset="0" stop-color="#d08888"/><stop offset="1" stop-color="#ae4545"/></radialGradient><radialGradient id="g" gradientUnits="userSpaceOnUse" cx="244.397" cy="821.616" r="6.306"><stop offset="0" stop-color="#d08888"/><stop offset="1" stop-color="#ae4545"/></radialGradient><radialGradient id="i" gradientUnits="userSpaceOnUse" cx="249.665" cy="829.421" r="3.568" gradientTransform="matrix(1 0 0 1 .002 0)"><stop offset="0" stop-color="#d08888"/><stop offset="1" stop-color="#ae4545"/></radialGradient><radialGradient id="k" gradientUnits="userSpaceOnUse" cx="254.916" cy="826.155" r="12.253" gradientTransform="rotate(.081 333 0)"><stop offset="0" stop-color="#d08888"/><stop offset="1" stop-color="#ae4545"/></radialGradient><radialGradient id="m" gradientUnits="userSpaceOnUse" cx="253.624" cy="873.371" r="2.2" gradientTransform="matrix(1 0 0 1 .002 0)"><stop offset="0" stop-color="#d08888"/><stop offset="1" stop-color="#ae4545"/></radialGradient><radialGradient id="o" gradientUnits="userSpaceOnUse" cx="260.555" cy="826.919" r="14.259"><stop offset="0" stop-color="#d08888"/><stop offset="1" stop-color="#ae4545"/></radialGradient><radialGradient id="q" gradientUnits="userSpaceOnUse" cx="265.649" cy="827.895" r="14.664"><stop offset="0" stop-color="#d08888"/><stop offset="1" stop-color="#ae4545"/></radialGradient><radialGradient id="s" gradientUnits="userSpaceOnUse" cx="269.926" cy="824.534" r="14.664"><stop offset="0" stop-color="#d08888"/><stop offset="1" stop-color="#ae4545"/></radialGradient><radialGradient id="u" gradientUnits="userSpaceOnUse" cx="245.566" cy="757.077" r="23.299" gradientTransform="rotate(.081 176 0)"><stop offset="0" stop-color="#d08888"/><stop offset="1" stop-color="#ae4545"/></radialGradient><radialGradient id="w" gradientUnits="userSpaceOnUse" cx="244.264" cy="764.043" r="27.271" gradientTransform="rotate(.081 152 0)"><stop offset="0" stop-color="#d08888"/><stop offset="1" stop-color="#ae4545"/></radialGradient><radialGradient id="y" gradientUnits="userSpaceOnUse" cx="244.021" cy="772.456" r="31.305"><stop offset="0" stop-color="#d08888"/><stop offset="1" stop-color="#ae4545"/></radialGradient><radialGradient id="A" gradientUnits="userSpaceOnUse" cx="228.734" cy="783.004" r="16.854"><stop offset="0" stop-color="#d08888"/><stop offset="1" stop-color="#ae4545"/></radialGradient><radialGradient id="C" gradientUnits="userSpaceOnUse" cx="261.303" cy="787.865" r="16.428"><stop offset="0" stop-color="#d08888"/><stop offset="1" stop-color="#ae4545"/></radialGradient><radialGradient id="E" gradientUnits="userSpaceOnUse" cx="264.122" cy="794.594" r="15.512"><stop offset="0" stop-color="#d08888"/><stop offset="1" stop-color="#ae4545"/></radialGradient><radialGradient id="G" gradientUnits="userSpaceOnUse" cx="268.553" cy="802.635" r="14.513"><stop offset="0" stop-color="#d08888"/><stop offset="1" stop-color="#ae4545"/></radialGradient><radialGradient id="I" gradientUnits="userSpaceOnUse" cx="231.847" cy="795.861" r="18.134"><stop offset="0" stop-color="#d08888"/><stop offset="1" stop-color="#ae4545"/></radialGradient><radialGradient id="K" gradientUnits="userSpaceOnUse" cx="234.182" cy="805.593" r="18.44" gradientTransform="rotate(.081 194 0)"><stop offset="0" stop-color="#d08888"/><stop offset="1" stop-color="#ae4545"/></radialGradient><radialGradient id="M" gradientUnits="userSpaceOnUse" cx="235.846" cy="815.548" r="17.034"><stop offset="0" stop-color="#d08888"/><stop offset="1" stop-color="#ae4545"/></radialGradient><radialGradient id="O" gradientUnits="userSpaceOnUse" cx="237.506" cy="824.029" r="16.377"><stop offset="0" stop-color="#d08888"/><stop offset="1" stop-color="#ae4545"/></radialGradient><radialGradient id="Q" gradientUnits="userSpaceOnUse" cx="239.275" cy="833.212" r="15.105"><stop offset="0" stop-color="#d08888"/><stop offset="1" stop-color="#ae4545"/></radialGradient><radialGradient id="S" gradientUnits="userSpaceOnUse" cx="239.441" cy="840.208" r="13.8"><stop offset="0" stop-color="#d08888"/><stop offset="1" stop-color="#ae4545"/></radialGradient><radialGradient id="U" gradientUnits="userSpaceOnUse" cx="272.768" cy="827.157" r="9.242"><stop offset="0" stop-color="#d08888"/><stop offset="1" stop-color="#ae4545"/></radialGradient><radialGradient id="W" gradientUnits="userSpaceOnUse" cx="271.936" cy="835.205" r="8.45"><stop offset="0" stop-color="#d08888"/><stop offset="1" stop-color="#ae4545"/></radialGradient><radialGradient id="Y" gradientUnits="userSpaceOnUse" cx="269.209" cy="844.263" r="9.196"><stop offset="0" stop-color="#d08888"/><stop offset="1" stop-color="#ae4545"/></radialGradient><radialGradient id="aa" gradientUnits="userSpaceOnUse" cx="274.493" cy="820.25" r="11.291"><stop offset="0" stop-color="#d08888"/><stop offset="1" stop-color="#ae4545"/></radialGradient><radialGradient id="ac" gradientUnits="userSpaceOnUse" cx="271.899" cy="810.677" r="12.08"><stop offset="0" stop-color="#d08888"/><stop offset="1" stop-color="#ae4545"/></radialGradient><radialGradient id="ae" gradientUnits="userSpaceOnUse" cx="267.482" cy="850.807" r="9.799"><stop offset="0" stop-color="#d08888"/><stop offset="1" stop-color="#ae4545"/></radialGradient><radialGradient id="ag" gradientUnits="userSpaceOnUse" cx="239.544" cy="847.742" r="12.787"><stop offset="0" stop-color="#d08888"/><stop offset="1" stop-color="#ae4545"/></radialGradient><linearGradient id="ai" y2="104.88" gradientUnits="userSpaceOnUse" x2="45.75" gradientTransform="scale(1.1209 .89214)" y1="72.177" x1="12.655"><stop offset="0" stop-color="#e1deb7"/><stop offset="1" stop-color="#a8b076"/></linearGradient><linearGradient id="aj" y2="75.147" gradientUnits="userSpaceOnUse" x2="67.759" gradientTransform="scale(1.0153 .9849)" y1="52.569" x1="49.531"><stop offset="0" stop-color="#e1deb7"/><stop offset="1" stop-color="#a8b076"/></linearGradient><linearGradient id="ak" y2="46.206" gradientUnits="userSpaceOnUse" x2="109.38" gradientTransform="scale(.88021 1.1361)" y1="20.531" x1="84.089"><stop offset="0" stop-color="#e1deb7"/><stop offset="1" stop-color="#a8b076"/></linearGradient><linearGradient id="al" y2="104.88" gradientUnits="userSpaceOnUse" x2="45.75" gradientTransform="scale(1.1209 .89214)" y1="72.177" x1="12.655"><stop offset="0" stop-color="#e1deb7"/><stop offset="1" stop-color="#a8b076"/></linearGradient><linearGradient id="am" y2="75.147" gradientUnits="userSpaceOnUse" x2="67.759" gradientTransform="scale(1.0153 .9849)" y1="52.569" x1="49.531"><stop offset="0" stop-color="#e1deb7"/><stop offset="1" stop-color="#a8b076"/></linearGradient><linearGradient id="an" y2="46.206" gradientUnits="userSpaceOnUse" x2="109.38" gradientTransform="scale(.88021 1.1361)" y1="20.531" x1="84.089"><stop offset="0" stop-color="#e1deb7"/><stop offset="1" stop-color="#a8b076"/></linearGradient><linearGradient id="ao" y2="104.88" gradientUnits="userSpaceOnUse" x2="45.75" gradientTransform="scale(1.1209 .89214)" y1="72.177" x1="12.655"><stop offset="0" stop-color="#e1deb7"/><stop offset="1" stop-color="#a8b076"/></linearGradient><linearGradient id="ap" y2="75.147" gradientUnits="userSpaceOnUse" x2="67.759" gradientTransform="scale(1.0153 .9849)" y1="52.569" x1="49.531"><stop offset="0" stop-color="#e1deb7"/><stop offset="1" stop-color="#a8b076"/></linearGradient><linearGradient id="aq" y2="46.206" gradientUnits="userSpaceOnUse" x2="109.38" gradientTransform="scale(.88021 1.1361)" y1="20.531" x1="84.089"><stop offset="0" stop-color="#e1deb7"/><stop offset="1" stop-color="#a8b076"/></linearGradient><linearGradient id="ar" y2="104.88" gradientUnits="userSpaceOnUse" x2="45.75" gradientTransform="scale(1.1209 .89214)" y1="72.177" x1="12.655"><stop offset="0" stop-color="#e1deb7"/><stop offset="1" stop-color="#a8b076"/></linearGradient><linearGradient id="as" y2="75.147" gradientUnits="userSpaceOnUse" x2="67.759" gradientTransform="scale(1.0153 .9849)" y1="52.569" x1="49.531"><stop offset="0" stop-color="#e1deb7"/><stop offset="1" stop-color="#a8b076"/></linearGradient><linearGradient id="at" y2="46.206" gradientUnits="userSpaceOnUse" x2="109.38" gradientTransform="scale(.88021 1.1361)" y1="20.531" x1="84.089"><stop offset="0" stop-color="#e1deb7"/><stop offset="1" stop-color="#a8b076"/></linearGradient><linearGradient id="au" y2="104.88" gradientUnits="userSpaceOnUse" x2="45.75" gradientTransform="scale(1.1209 .89214)" y1="72.177" x1="12.655"><stop offset="0" stop-color="#e1deb7"/><stop offset="1" stop-color="#a8b076"/></linearGradient><linearGradient id="av" y2="75.147" gradientUnits="userSpaceOnUse" x2="67.759" gradientTransform="scale(1.0153 .9849)" y1="52.569" x1="49.531"><stop offset="0" stop-color="#e1deb7"/><stop offset="1" stop-color="#a8b076"/></linearGradient><linearGradient id="aw" y2="46.206" gradientUnits="userSpaceOnUse" x2="109.38" gradientTransform="scale(.88021 1.1361)" y1="20.531" x1="84.089"><stop offset="0" stop-color="#e1deb7"/><stop offset="1" stop-color="#a8b076"/></linearGradient><linearGradient id="ax" y2="104.88" gradientUnits="userSpaceOnUse" x2="45.75" gradientTransform="scale(1.1209 .89214)" y1="72.177" x1="12.655"><stop offset="0" stop-color="#e1deb7"/><stop offset="1" stop-color="#a8b076"/></linearGradient><linearGradient id="ay" y2="75.147" gradientUnits="userSpaceOnUse" x2="67.759" gradientTransform="scale(1.0153 .9849)" y1="52.569" x1="49.531"><stop offset="0" stop-color="#e1deb7"/><stop offset="1" stop-color="#a8b076"/></linearGradient><linearGradient id="az" y2="46.206" gradientUnits="userSpaceOnUse" x2="109.38" gradientTransform="scale(.88021 1.1361)" y1="20.531" x1="84.089"><stop offset="0" stop-color="#e1deb7"/><stop offset="1" stop-color="#a8b076"/></linearGradient><radialGradient id="b" gradientUnits="userSpaceOnUse" cx="218.841" cy="810.279" r="13.242"><stop offset="0" stop-color="#e5a25f"/><stop offset="1" stop-color="#bf6f1f"/></radialGradient><radialGradient id="d" gradientUnits="userSpaceOnUse" cx="230.817" cy="804.105" r="16.66"><stop offset="0" stop-color="#e5a25f"/><stop offset="1" stop-color="#bf6f1f"/></radialGradient><radialGradient id="f" gradientUnits="userSpaceOnUse" cx="239.262" cy="823.556" r="7.992"><stop offset="0" stop-color="#e5a25f"/><stop offset="1" stop-color="#bf6f1f"/></radialGradient><radialGradient id="h" gradientUnits="userSpaceOnUse" cx="235.04" cy="818.383" r="11.703"><stop offset="0" stop-color="#e5a25f"/><stop offset="1" stop-color="#bf6f1f"/></radialGradient><radialGradient id="j" gradientUnits="userSpaceOnUse" cx="249.665" cy="829.421" r="3.568"><stop offset="0" stop-color="#e5a25f"/><stop offset="1" stop-color="#bf6f1f"/></radialGradient><radialGradient id="l" gradientUnits="userSpaceOnUse" cx="254.845" cy="825.765" r="12.183"><stop offset="0" stop-color="#e5a25f"/><stop offset="1" stop-color="#bf6f1f"/></radialGradient><radialGradient id="n" gradientUnits="userSpaceOnUse" cx="262.713" cy="870.198" r="7.023"><stop offset="0" stop-color="#e5a25f"/><stop offset="1" stop-color="#bf6f1f"/></radialGradient><radialGradient id="p" gradientUnits="userSpaceOnUse" cx="262.396" cy="823.185" r="16.101"><stop offset="0" stop-color="#e5a25f"/><stop offset="1" stop-color="#bf6f1f"/></radialGradient><radialGradient id="r" gradientUnits="userSpaceOnUse" cx="266.592" cy="816.247" r="15.607"><stop offset="0" stop-color="#e5a25f"/><stop offset="1" stop-color="#bf6f1f"/></radialGradient><radialGradient id="t" gradientUnits="userSpaceOnUse" cx="269.926" cy="824.534" r="14.664"><stop offset="0" stop-color="#e5a25f"/><stop offset="1" stop-color="#bf6f1f"/></radialGradient><radialGradient id="v" gradientUnits="userSpaceOnUse" cx="245.566" cy="757.077" r="23.299"><stop offset="0" stop-color="#e5a25f"/><stop offset="1" stop-color="#bf6f1f"/></radialGradient><radialGradient id="x" gradientUnits="userSpaceOnUse" cx="244.264" cy="764.043" r="27.271"><stop offset="0" stop-color="#e5a25f"/><stop offset="1" stop-color="#bf6f1f"/></radialGradient><radialGradient id="z" gradientUnits="userSpaceOnUse" cx="244.021" cy="772.456" r="31.305"><stop offset="0" stop-color="#e5a25f"/><stop offset="1" stop-color="#bf6f1f"/></radialGradient><radialGradient id="B" gradientUnits="userSpaceOnUse" cx="228.734" cy="783.004" r="16.854"><stop offset="0" stop-color="#e5a25f"/><stop offset="1" stop-color="#bf6f1f"/></radialGradient><radialGradient id="D" gradientUnits="userSpaceOnUse" cx="261.303" cy="787.865" r="16.428"><stop offset="0" stop-color="#e5a25f"/><stop offset="1" stop-color="#bf6f1f"/></radialGradient><radialGradient id="F" gradientUnits="userSpaceOnUse" cx="264.122" cy="794.594" r="15.512"><stop offset="0" stop-color="#e5a25f"/><stop offset="1" stop-color="#bf6f1f"/></radialGradient><radialGradient id="H" gradientUnits="userSpaceOnUse" cx="268.553" cy="802.635" r="14.513"><stop offset="0" stop-color="#e5a25f"/><stop offset="1" stop-color="#bf6f1f"/></radialGradient><radialGradient id="J" gradientUnits="userSpaceOnUse" cx="231.847" cy="795.861" r="18.134"><stop offset="0" stop-color="#e5a25f"/><stop offset="1" stop-color="#bf6f1f"/></radialGradient><radialGradient id="L" gradientUnits="userSpaceOnUse" cx="231.535" cy="805.593" r="21.087"><stop offset="0" stop-color="#e5a25f"/><stop offset="1" stop-color="#bf6f1f"/></radialGradient><radialGradient id="N" gradientUnits="userSpaceOnUse" cx="230.446" cy="816.85" r="22.433"><stop offset="0" stop-color="#e5a25f"/><stop offset="1" stop-color="#bf6f1f"/></radialGradient><radialGradient id="P" gradientUnits="userSpaceOnUse" cx="237.506" cy="824.029" r="16.377"><stop offset="0" stop-color="#e5a25f"/><stop offset="1" stop-color="#bf6f1f"/></radialGradient><radialGradient id="R" gradientUnits="userSpaceOnUse" cx="239.275" cy="833.212" r="15.105"><stop offset="0" stop-color="#e5a25f"/><stop offset="1" stop-color="#bf6f1f"/></radialGradient><radialGradient id="T" gradientUnits="userSpaceOnUse" cx="239.441" cy="840.208" r="13.8"><stop offset="0" stop-color="#e5a25f"/><stop offset="1" stop-color="#bf6f1f"/></radialGradient><radialGradient id="V" gradientUnits="userSpaceOnUse" cx="272.768" cy="827.157" r="9.242"><stop offset="0" stop-color="#e5a25f"/><stop offset="1" stop-color="#bf6f1f"/></radialGradient><radialGradient id="X" gradientUnits="userSpaceOnUse" cx="271.936" cy="835.205" r="8.45"><stop offset="0" stop-color="#e5a25f"/><stop offset="1" stop-color="#bf6f1f"/></radialGradient><radialGradient id="Z" gradientUnits="userSpaceOnUse" cx="269.209" cy="844.263" r="9.196"><stop offset="0" stop-color="#e5a25f"/><stop offset="1" stop-color="#bf6f1f"/></radialGradient><radialGradient id="ab" gradientUnits="userSpaceOnUse" cx="274.493" cy="820.25" r="11.291"><stop offset="0" stop-color="#e5a25f"/><stop offset="1" stop-color="#bf6f1f"/></radialGradient><radialGradient id="ad" gradientUnits="userSpaceOnUse" cx="271.899" cy="810.677" r="12.08"><stop offset="0" stop-color="#e5a25f"/><stop offset="1" stop-color="#bf6f1f"/></radialGradient><radialGradient id="af" gradientUnits="userSpaceOnUse" cx="267.482" cy="850.807" r="9.799"><stop offset="0" stop-color="#e5a25f"/><stop offset="1" stop-color="#bf6f1f"/></radialGradient><radialGradient id="ah" gradientUnits="userSpaceOnUse" cx="239.544" cy="847.742" r="12.787"><stop offset="0" stop-color="#e5a25f"/><stop offset="1" stop-color="#bf6f1f"/></radialGradient></defs><path fill="none" d="M202.715 584.431h86.593V700.24h-86.593z"/><path fill="none" d="M-403.988 499.579h1300v550h-1300z"/><path d="M232.043 751.824c-19.145 8.961-21.181 33.402-6.11 73.321 6.186 16.385-14.725 34.736-20.322 43.564-.899 1.419 47.228-59.745 7.291-1.281 0 0 22.293-30.615 9.365-69.168-11.686-34.85 10.883-45.084 9.776-46.436z" fill="url(#b)" transform="translate(.183 4.406)"/><path d="M227.339 754.151c-22.644 7.267-12.864 26.905 4.962 59.277 7.316 13.288 7.963 21.508 9.221 37.662.106 1.362.557 2.018 5.955 2.969 0 0-4.222-31.168-19.512-62.432-13.822-28.262.683-36.379-.626-37.476z" transform="rotate(4.597 176.02 808.587)" fill="url(#d)"/><path d="M236.321 757.934c-7.943 5.295-6.518 33.402 4.277 84.319 2.411 11.372 2.818 23.389 1.222 36.05-.171 1.355 1.579-8.509 3.666 1.833 8.491 42.086-16.798-74.253-8.554-113.037 3.875-18.229 1.317 1.22 4.277-7.332" fill="url(#f)" transform="translate(.183 4.406)"/><path d="M240.598 758.545c-3.87 16.905-3.259 38.697 1.833 65.378 5.662 29.667-8.409 44.92-18.685 53.997-1.822 1.609 2.846-3.451 6.018-10.25.404-.866 6.152-1.759 7.35-6.872.97-4.135 2.427-6.798 4.74-3.363 7.053 10.475 5.782-26.483.577-60.397" fill="url(#h)" transform="translate(.183 4.406)"/><path d="M246.097 793.983c5.906 25.255 8.146 48.881 6.721 70.877" fill="url(#j)" transform="translate(.183 4.406)"/><path d="M243.653 760.378c.815 16.497 2.648 25.662 11.609 39.715 5.473 8.583 11.621 26.288 7.332 36.05-6.278 14.29-3.026 3.403-5.025 23.703-.087.887 20.387-27.102 1.359 29.455-5.447 16.191 28.193-50.27-14.053-117.925-3.076-4.926-3.687-7.166 3.055-11.609" fill="url(#l)" transform="translate(.183 4.406)"/><path d="M255.713 871.044c-.611-8.351 10.995-10.276 13.643-21.071 1.435-5.851-1.682 33.642-1.408 18.472.916-50.822-15.287 16.918-2.732 22.575" fill="url(#n)" transform="translate(.183 4.406)"/><path d="M246.708 759.767c-1.833 4.481 2.444 15.071 12.831 31.772 7.899 12.701 12.633 26.346 5.499 44.604-6.496 16.625 15.2 35.387 13.346 50.331-.308 2.482-12.683-31.86-8.709-32.305 0 0-4.319 2.569 5.139-37.578" fill="url(#p)" transform="translate(.183 4.406)"/><path d="M250.985 760.989c20.978 34.624 29.328 57.435 25.051 68.433-3.759 9.665-5.996 8.571 6.163 42.084l-1.886-48.194s-5.122-44.561-25.051-61.712" fill="url(#r)" transform="translate(.183 4.406)"/><path d="M255.262 757.628c20.978 34.624 29.328 57.435 25.051 68.433-3.759 9.665-7.221 31.865-10.387 65.378l14.664-71.488s-5.122-44.561-25.051-61.712" fill="url(#t)" transform="translate(.183 4.406)"/><path d="M226.855 748.158c4.014 14.257 16.82 18.33 38.418 12.22 1.653-.467 5.641 5.973 2.294 4.888-14.316-4.638-27.122 11.452-45.3-14.664" fill="url(#v)" transform="translate(.183 4.406)"/><path d="M219.918 754.513c4.698 14.257 22.132 19.552 47.412 13.442 1.935-.467 6.603 5.973 2.685 4.888-16.756-4.638-31.745 11.452-53.022-14.664" fill="url(#x)" transform="translate(.183 4.406)"/><path d="M215.572 762.457c5.171 14.256 27.782 18.94 55.611 12.83 2.13-.467 6.658 7.195 2.345 6.11-18.445-4.638-37.39 12.064-60.812-14.053" fill="url(#z)" transform="translate(.183 4.406)"/><path d="M213.019 773.209c5.128 11.405 13.294 15.886 29.056 13.442 1.733-.269 4.891 6.727 2.848 6.11-9.118-2.754-12.781 2.738-33.043-12.831" fill="url(#B)" transform="translate(.183 4.406)"/><path d="M244.875 787.262c16.905-4.684 24.644-4.684 29.328-1.222 1.321.976 4.783-.45 3.055 1.833 0 0-18.534-6.314-29.328 4.277" fill="url(#D)" transform="translate(.183 4.406)"/><path d="M248.61 793.992c15.962-4.684 23.269-4.684 27.692-1.222 1.247.976 4.516-.45 2.884 1.833 0 0-17.5-6.314-27.691 4.277" fill="url(#F)" transform="translate(.183 4.406)"/><path d="M254.04 803.148c6.11-5.091 15.071-6.517 26.884-4.277 1.812.343-2.747 3.333.611 5.499 6.973 4.497-11.357-14.037-25.051 3.056" fill="url(#H)" transform="translate(.183 4.406)"/><path d="M213.713 787.262c13.548 8.758 24.805 12.628 33.774 11.609 1.718-.195 4.328 6.43.573 5.499-27.126-6.726-15.106-5.911-34.347-12.22" fill="url(#J)" transform="translate(.183 4.406)"/><path d="M215.742 796.994c13.777 8.758 25.223 12.628 34.343 11.609 1.747-.195 4.401 6.43.583 5.499-27.583-6.726-31.831-21.792-40.22-1.633" fill="url(#L)" transform="translate(.183 4.406)"/><path d="M218.812 806.949c12.647 8.758 23.759 12.727 32.131 11.708 1.604-.195 3.438 6.331-.068 5.4-17.077-4.536-17.534-5.642-21.531-7.817-1.929-1.05-9.15-11.429-21.331 10.511" transform="rotate(-9.344 262.896 816.632)" fill="url(#N)"/><path d="M221.129 815.43c12.159 8.758 22.844 12.727 30.892 11.708 1.543-.195 3.307 6.331-.064 5.4-24.347-6.726-13.558-5.911-30.828-12.22" transform="rotate(-9.344 264.557 825.113)" fill="url(#P)"/><path d="M224.17 824.804c11.788 8.758 21.444 13.231 29.248 12.212 1.495-.195 1.494 5.43-1.774 4.499-23.603-6.726-10.732-5.514-27.474-11.823" transform="rotate(-9.344 266.326 834.295)" fill="url(#R)"/><path d="M225.641 831.801c10.769 8.758 19.591 13.23 26.721 12.211 1.366-.195 1.365 5.43-1.621 4.5-21.564-6.727-9.805-5.515-25.1-11.823" transform="rotate(-9.344 266.491 841.292)" fill="url(#T)"/><path d="M263.526 818.798c7.28 8.758 13.243 13.231 18.063 12.212.923-.195.32 5.331-1.698 4.4-14.577-6.726-6.025-5.415-16.365-11.724" transform="rotate(-9.344 299.819 828.24)" fill="url(#V)"/><path d="M263.486 827.893c6.652 7.975 12.1 12.048 16.504 11.12.843-.178.339 4.243-1.505 3.395-13.319-6.125-5.552-4.319-14.999-10.064" transform="rotate(-9.344 298.986 836.288)" fill="url(#X)"/><path d="M262.928 836.798c7.28 8.758 10.328 12.132 15.148 11.113.923-.195-.184 4.629-2.202 3.698-14.577-6.726-5.521-4.713-15.861-11.022" transform="rotate(-9.344 296.26 845.347)" fill="url(#Z)"/><path d="M263.205 819.532c-.15 3.169 6.009 2.558 20.263 2.558 2.156 0 4.147-2.696-.586-3.169-13.629-1.36-4.408.131-19.677.611z" fill="url(#ab)" transform="translate(.183 4.406)"/><path d="M260.15 813.536l23.829-1.833-1.222-3.666c-9.165-1.019-25.459 1.629-22.607 5.499z" fill="url(#ad)" transform="translate(.183 4.406)"/><path d="M260.789 843.243c7.758 8.874 11.005 12.293 16.141 11.261.984-.198-.196 4.69-2.346 3.747-15.533-6.816-5.883-4.776-16.901-11.169" transform="rotate(-9.344 294.532 851.891)" fill="url(#af)"/><path d="M227.371 839.165c11.568 10.115 16.215 14.023 23.874 12.846 1.466-.225 1.833 5.242-1.374 4.167-23.162-7.769-6.685-4.311-23.114-11.597" transform="rotate(-15.685 255.63 849.281)" fill="url(#ah)"/><g><path d="M228.232 780.9c-3.251.153-4.877 3.572-5.65 6.306-.829.537-2.096 1.13-2.4 2.013.119.519-.968.81-1.99 1.305-3.221.192-6.932 1.767-8.086 5.009-.727 2.826 1.946 5.663 4.811 5.168 2.67-.304 5.508-1.532 7.037-3.812 1.85-.582 3.253-2.108 4.557-3.354 3.513.001 5.33-3.816 5.862-6.805.696-2.546-.895-5.654-3.717-5.785-.139.034-.287-.094-.424-.045zm.386 3.164c1.558 1.053.447 3.317-.17 4.686-.596 1.512-.33-1.339-1.371-1.568-1.37-.287-.712-1.265-.191-2.104.379-.566.965-1.25 1.732-1.014zm-7.16 4.645c-.442.73-.278-.467 0 0zm1.386 2.121c.74 1.06.641 1.806-.54 2.508-.772-.965-.857-1.926.423-2.537.05-.025.153-.192.117.03zm-5.396 3.996c.246 1.172 1.038 1.963-.672 2.236-1.098.568-3.483 1.185-3.659-.61.631-1.714 2.73-2.407 4.382-2.75l-.05 1.124z"/><path d="M36.831 56.959c-7.087.029-13.896 2.686-20.048 6.013-5.482 3.081-10.713 7.671-12.402 13.953-1.443 5.547.707 11.664 4.748 15.59 4.241 3.964 10.492 4.744 16.033 3.906 6.448-1.021 12.604-3.608 18.113-7.069 4.949-3.201 9.42-7.923 10.435-13.929.78-5.11-.336-9.296-4.005-12.888-2.436 2.696-4.334 4.789-4.651 7.432-.165 1.438.31 2.589-.203 4.184-.731 3.744-4.357 6.072-7.411 7.987-4.576 2.622-9.58 4.805-14.88 5.311-3.025.277-6.642-.406-8.285-3.252-1.533-2.351-1.216-5.526.475-7.706 3.105-4.173 8.007-6.45 12.718-8.326 2.868-1.073 5.075-1.912 8.158-1.939a26.479 26.479 0 0 1 3.827-8.934c-1.19-.204-1.416-.325-2.622-.333z" fill="url(#ai)" transform="matrix(.23332 0 0 .23332 209.515 777.684)"/><path d="M66.887 39.968c-4.891.17-9.662 1.84-13.672 4.631a49.963 49.963 0 0 0-5.641 4.553l.325 2.691 3.571-3.409-1.136 5.032 3.734-2.273-1.137 4.383 2.48-1.136a68.835 68.835 0 0 1 2.329-2.033c1.83-1.455 3.884-2.859 6.116-3.738 1.469-.549 3.352-.472 4.395.844 1.637 1.279.48 2.44.86 3.804 1.576 2.346 4.747 2.898 7.452 1.799 1.028-3.192 1.354-4.931.547-8.24-1.171-3.86-4.937-6.894-9.025-6.908a15.952 15.952 0 0 0-1.198 0zm-23.05 13.1a48.16 48.16 0 0 0-3.681 4.858c-.7 1.354-1.831 3.03-2.463 4.63a24.311 24.311 0 0 0-1.814 10.925c.238 2.886.874 5.043 3.489 6.415 2.205-1.798 4.863-3.681 4.656-6.687-1.165-1.461-.37-3.391.482-4.886 1.598-3.184 3.627-6.11 5.938-8.802l-1.571.601.325-3.734-3.896 2.11 1.461-4.545-3.734 4.545 1.299-4.707s-.352-.511-.491-.723zm18.073 9.433c-2.859 3.222-3.74 4.985-7.231 7.513.874 3.449.19 7.057-1.465 10.187 7.218-2.369 11.537-6.33 16.456-11.956.964-.893 1.376-1.596-.186-1.672-2.616-.775-5.695-2.071-7.574-4.072z" fill="url(#aj)" transform="matrix(.23332 0 0 .23332 209.515 777.684)"/><path d="M80.322 15.685c-5.888-.125-11.078 3.667-14.468 8.21-3.792 5.123-6.792 11.16-8.245 17.338 2.355-1.579 8.369-2.565 10.871-2.247 1.685-4.59 3.677-9.366 7.645-12.438 2.344-1.937 5.927-2.023 8.314-.127 2.888 2.249 3.047 6.349 2.592 9.682-.792 4.952-2.611 9.737-5.133 14.063-1.835 2.953-4.473 6.12-8.188 6.426-3.093.216-5.988-1.642-6.664-4.668-.652-.882-.026-2.799-.907-2.839-1.288-.379-4.53 1.277-7.531 3.682.45 5.042 2.101 8.388 6.602 10.851 4.484 2.585 10.272 3.192 14.954.737 5.521-2.737 9.221-8.066 11.786-13.5 3.003-6.652 5.329-14.055 4.183-21.423-.678-4.679-3.366-9.146-7.595-11.415-2.505-1.394-5.337-2.285-8.216-2.332z" fill="url(#ak)" transform="matrix(.23332 0 0 .23332 209.515 777.684)"/><path d="M229.487 808.026c-3.25.153-4.877 3.573-5.65 6.307-.828.536-2.096 1.13-2.4 2.013.12.518-.967.81-1.99 1.305-3.221.192-6.931 1.766-8.086 5.009-.727 2.826 1.946 5.662 4.812 5.168 2.669-.304 5.508-1.532 7.036-3.812 1.851-.582 3.253-2.109 4.557-3.354 3.514.001 5.331-3.816 5.863-6.805.695-2.546-.895-5.654-3.718-5.785-.138.034-.287-.095-.424-.046zm.387 3.165c1.557 1.052.447 3.317-.17 4.686-.596 1.512-.33-1.339-1.372-1.568-1.37-.288-.712-1.265-.191-2.105.38-.565.965-1.25 1.733-1.013zm-7.16 4.644c-.443.73-.278-.467 0 0zm1.385 2.122c.74 1.06.642 1.806-.54 2.508-.771-.965-.857-1.926.423-2.537.05-.025.153-.192.117.03zm-5.395 3.996c.245 1.172 1.037 1.963-.673 2.236-1.098.568-3.483 1.185-3.658-.61.63-1.714 2.73-2.408 4.382-2.75l-.051 1.124z"/><path d="M36.831 56.959c-7.087.029-13.896 2.686-20.048 6.013-5.482 3.081-10.713 7.671-12.402 13.953-1.443 5.547.707 11.664 4.748 15.59 4.241 3.964 10.492 4.744 16.033 3.906 6.448-1.021 12.604-3.608 18.113-7.069 4.949-3.201 9.42-7.923 10.435-13.929.78-5.11-.336-9.296-4.005-12.888-2.436 2.696-4.334 4.789-4.651 7.432-.165 1.438.31 2.589-.203 4.184-.731 3.744-4.357 6.072-7.411 7.987-4.576 2.622-9.58 4.805-14.88 5.311-3.025.277-6.642-.406-8.285-3.252-1.533-2.351-1.216-5.526.475-7.706 3.105-4.173 8.007-6.45 12.718-8.326 2.868-1.073 5.075-1.912 8.158-1.939a26.479 26.479 0 0 1 3.827-8.934c-1.19-.204-1.416-.325-2.622-.333z" fill="url(#al)" transform="matrix(.23332 0 0 .23332 210.77 804.811)"/><path d="M66.887 39.968c-4.891.17-9.662 1.84-13.672 4.631a49.963 49.963 0 0 0-5.641 4.553l.325 2.691 3.571-3.409-1.136 5.032 3.734-2.273-1.137 4.383 2.48-1.136a68.835 68.835 0 0 1 2.329-2.033c1.83-1.455 3.884-2.859 6.116-3.738 1.469-.549 3.352-.472 4.395.844 1.637 1.279.48 2.44.86 3.804 1.576 2.346 4.747 2.898 7.452 1.799 1.028-3.192 1.354-4.931.547-8.24-1.171-3.86-4.937-6.894-9.025-6.908a15.952 15.952 0 0 0-1.198 0zm-23.05 13.1a48.16 48.16 0 0 0-3.681 4.858c-.7 1.354-1.831 3.03-2.463 4.63a24.311 24.311 0 0 0-1.814 10.925c.238 2.886.874 5.043 3.489 6.415 2.205-1.798 4.863-3.681 4.656-6.687-1.165-1.461-.37-3.391.482-4.886 1.598-3.184 3.627-6.11 5.938-8.802l-1.571.601.325-3.734-3.896 2.11 1.461-4.545-3.734 4.545 1.299-4.707s-.352-.511-.491-.723zm18.073 9.433c-2.859 3.222-3.74 4.985-7.231 7.513.874 3.449.19 7.057-1.465 10.187 7.218-2.369 11.537-6.33 16.456-11.956.964-.893 1.376-1.596-.186-1.672-2.616-.775-5.695-2.071-7.574-4.072z" fill="url(#am)" transform="matrix(.23332 0 0 .23332 210.77 804.811)"/><path d="M80.322 15.685c-5.888-.125-11.078 3.667-14.468 8.21-3.792 5.123-6.792 11.16-8.245 17.338 2.355-1.579 8.369-2.565 10.871-2.247 1.685-4.59 3.677-9.366 7.645-12.438 2.344-1.937 5.927-2.023 8.314-.127 2.888 2.249 3.047 6.349 2.592 9.682-.792 4.952-2.611 9.737-5.133 14.063-1.835 2.953-4.473 6.12-8.188 6.426-3.093.216-5.988-1.642-6.664-4.668-.652-.882-.026-2.799-.907-2.839-1.288-.379-4.53 1.277-7.531 3.682.45 5.042 2.101 8.388 6.602 10.851 4.484 2.585 10.272 3.192 14.954.737 5.521-2.737 9.221-8.066 11.786-13.5 3.003-6.652 5.329-14.055 4.183-21.423-.678-4.679-3.366-9.146-7.595-11.415-2.505-1.394-5.337-2.285-8.216-2.332z" fill="url(#an)" transform="matrix(.23332 0 0 .23332 210.77 804.811)"/><g><path d="M235.833 808.91c-.927-3.12-4.637-3.879-7.477-3.974-.72-.676-1.6-1.764-2.53-1.847-.474.24-1.017-.746-1.743-1.62-.959-3.08-3.377-6.306-6.801-6.649-2.918-.028-5.031 3.247-3.864 5.91.935 2.518 2.807 4.98 5.387 5.918 1.009 1.657 2.827 2.652 4.348 3.62.842 3.411 4.984 4.26 8.013 4.06 2.638.065 5.274-2.224 4.725-4.996-.067-.126.023-.3-.058-.422zm-2.98 1.133c-.648 1.765-3.112 1.23-4.59.958-1.61-.216 1.221-.641 1.194-1.707-.049-1.398 1.058-.994 1.997-.69.64.233 1.445.638 1.4 1.44zm-6.225-5.837c-.815-.255.387-.382 0 0zm-1.727 1.853c-.852.973-1.6 1.056-2.565.077.752-.98 1.665-1.294 2.565-.197.036.042.223.102 0 .12zm-5.173-4.28c-1.079.52-1.657 1.478-2.332-.117-.814-.93-1.986-3.098-.285-3.698 1.816.201 2.992 2.073 3.72 3.595l-1.103.22z"/><path d="M36.831 56.959c-7.087.029-13.896 2.686-20.048 6.013-5.482 3.081-10.713 7.671-12.402 13.953-1.443 5.547.707 11.664 4.748 15.59 4.241 3.964 10.492 4.744 16.033 3.906 6.448-1.021 12.604-3.608 18.113-7.069 4.949-3.201 9.42-7.923 10.435-13.929.78-5.11-.336-9.296-4.005-12.888-2.436 2.696-4.334 4.789-4.651 7.432-.165 1.438.31 2.589-.203 4.184-.731 3.744-4.357 6.072-7.411 7.987-4.576 2.622-9.58 4.805-14.88 5.311-3.025.277-6.642-.406-8.285-3.252-1.533-2.351-1.216-5.526.475-7.706 3.105-4.173 8.007-6.45 12.718-8.326 2.868-1.073 5.075-1.912 8.158-1.939a26.479 26.479 0 0 1 3.827-8.934c-1.19-.204-1.416-.325-2.622-.333z" fill="url(#ao)" transform="matrix(.05593 .22651 -.22651 .05593 234.468 789.968)"/><path d="M66.887 39.968c-4.891.17-9.662 1.84-13.672 4.631a49.963 49.963 0 0 0-5.641 4.553l.325 2.691 3.571-3.409-1.136 5.032 3.734-2.273-1.137 4.383 2.48-1.136a68.835 68.835 0 0 1 2.329-2.033c1.83-1.455 3.884-2.859 6.116-3.738 1.469-.549 3.352-.472 4.395.844 1.637 1.279.48 2.44.86 3.804 1.576 2.346 4.747 2.898 7.452 1.799 1.028-3.192 1.354-4.931.547-8.24-1.171-3.86-4.937-6.894-9.025-6.908a15.952 15.952 0 0 0-1.198 0zm-23.05 13.1a48.16 48.16 0 0 0-3.681 4.858c-.7 1.354-1.831 3.03-2.463 4.63a24.311 24.311 0 0 0-1.814 10.925c.238 2.886.874 5.043 3.489 6.415 2.205-1.798 4.863-3.681 4.656-6.687-1.165-1.461-.37-3.391.482-4.886 1.598-3.184 3.627-6.11 5.938-8.802l-1.571.601.325-3.734-3.896 2.11 1.461-4.545-3.734 4.545 1.299-4.707s-.352-.511-.491-.723zm18.073 9.433c-2.859 3.222-3.74 4.985-7.231 7.513.874 3.449.19 7.057-1.465 10.187 7.218-2.369 11.537-6.33 16.456-11.956.964-.893 1.376-1.596-.186-1.672-2.616-.775-5.695-2.071-7.574-4.072z" fill="url(#ap)" transform="matrix(.05593 .22651 -.22651 .05593 234.468 789.968)"/><path d="M80.322 15.685c-5.888-.125-11.078 3.667-14.468 8.21-3.792 5.123-6.792 11.16-8.245 17.338 2.355-1.579 8.369-2.565 10.871-2.247 1.685-4.59 3.677-9.366 7.645-12.438 2.344-1.937 5.927-2.023 8.314-.127 2.888 2.249 3.047 6.349 2.592 9.682-.792 4.952-2.611 9.737-5.133 14.063-1.835 2.953-4.473 6.12-8.188 6.426-3.093.216-5.988-1.642-6.664-4.668-.652-.882-.026-2.799-.907-2.839-1.288-.379-4.53 1.277-7.531 3.682.45 5.042 2.101 8.388 6.602 10.851 4.484 2.585 10.272 3.192 14.954.737 5.521-2.737 9.221-8.066 11.786-13.5 3.003-6.652 5.329-14.055 4.183-21.423-.678-4.679-3.366-9.146-7.595-11.415-2.505-1.394-5.337-2.285-8.216-2.332z" fill="url(#aq)" transform="matrix(.05593 .22651 -.22651 .05593 234.468 789.968)"/></g><g><path d="M226.444 754.804c-3.25.153-4.877 3.572-5.65 6.307-.828.536-2.096 1.13-2.4 2.012.12.519-.968.81-1.99 1.305-3.221.192-6.932 1.767-8.086 5.01-.727 2.825 1.946 5.662 4.811 5.167 2.67-.304 5.509-1.531 7.037-3.812 1.851-.582 3.253-2.108 4.557-3.353 3.514 0 5.331-3.817 5.863-6.806.695-2.546-.896-5.653-3.718-5.785-.139.034-.287-.094-.424-.045zm.386 3.164c1.558 1.053.448 3.317-.17 4.686-.596 1.512-.33-1.338-1.37-1.568-1.37-.287-.713-1.265-.192-2.104.379-.565.965-1.25 1.732-1.014zm-7.16 4.645c-.442.73-.277-.467 0 0zm1.386 2.122c.74 1.06.642 1.805-.54 2.508-.772-.965-.857-1.926.423-2.538.05-.025.153-.192.117.03zm-5.396 3.995c.246 1.172 1.038 1.963-.672 2.237-1.098.567-3.483 1.184-3.658-.61.63-1.715 2.729-2.408 4.382-2.75l-.052 1.123z"/><path d="M36.831 56.959c-7.087.029-13.896 2.686-20.048 6.013-5.482 3.081-10.713 7.671-12.402 13.953-1.443 5.547.707 11.664 4.748 15.59 4.241 3.964 10.492 4.744 16.033 3.906 6.448-1.021 12.604-3.608 18.113-7.069 4.949-3.201 9.42-7.923 10.435-13.929.78-5.11-.336-9.296-4.005-12.888-2.436 2.696-4.334 4.789-4.651 7.432-.165 1.438.31 2.589-.203 4.184-.731 3.744-4.357 6.072-7.411 7.987-4.576 2.622-9.58 4.805-14.88 5.311-3.025.277-6.642-.406-8.285-3.252-1.533-2.351-1.216-5.526.475-7.706 3.105-4.173 8.007-6.45 12.718-8.326 2.868-1.073 5.075-1.912 8.158-1.939a26.479 26.479 0 0 1 3.827-8.934c-1.19-.204-1.416-.325-2.622-.333z" fill="url(#ar)" transform="matrix(.23332 0 0 .23332 207.728 751.589)"/><path d="M66.887 39.968c-4.891.17-9.662 1.84-13.672 4.631a49.963 49.963 0 0 0-5.641 4.553l.325 2.691 3.571-3.409-1.136 5.032 3.734-2.273-1.137 4.383 2.48-1.136a68.835 68.835 0 0 1 2.329-2.033c1.83-1.455 3.884-2.859 6.116-3.738 1.469-.549 3.352-.472 4.395.844 1.637 1.279.48 2.44.86 3.804 1.576 2.346 4.747 2.898 7.452 1.799 1.028-3.192 1.354-4.931.547-8.24-1.171-3.86-4.937-6.894-9.025-6.908a15.952 15.952 0 0 0-1.198 0zm-23.05 13.1a48.16 48.16 0 0 0-3.681 4.858c-.7 1.354-1.831 3.03-2.463 4.63a24.311 24.311 0 0 0-1.814 10.925c.238 2.886.874 5.043 3.489 6.415 2.205-1.798 4.863-3.681 4.656-6.687-1.165-1.461-.37-3.391.482-4.886 1.598-3.184 3.627-6.11 5.938-8.802l-1.571.601.325-3.734-3.896 2.11 1.461-4.545-3.734 4.545 1.299-4.707s-.352-.511-.491-.723zm18.073 9.433c-2.859 3.222-3.74 4.985-7.231 7.513.874 3.449.19 7.057-1.465 10.187 7.218-2.369 11.537-6.33 16.456-11.956.964-.893 1.376-1.596-.186-1.672-2.616-.775-5.695-2.071-7.574-4.072z" fill="url(#as)" transform="matrix(.23332 0 0 .23332 207.728 751.589)"/><path d="M80.322 15.685c-5.888-.125-11.078 3.667-14.468 8.21-3.792 5.123-6.792 11.16-8.245 17.338 2.355-1.579 8.369-2.565 10.871-2.247 1.685-4.59 3.677-9.366 7.645-12.438 2.344-1.937 5.927-2.023 8.314-.127 2.888 2.249 3.047 6.349 2.592 9.682-.792 4.952-2.611 9.737-5.133 14.063-1.835 2.953-4.473 6.12-8.188 6.426-3.093.216-5.988-1.642-6.664-4.668-.652-.882-.026-2.799-.907-2.839-1.288-.379-4.53 1.277-7.531 3.682.45 5.042 2.101 8.388 6.602 10.851 4.484 2.585 10.272 3.192 14.954.737 5.521-2.737 9.221-8.066 11.786-13.5 3.003-6.652 5.329-14.055 4.183-21.423-.678-4.679-3.366-9.146-7.595-11.415-2.505-1.394-5.337-2.285-8.216-2.332z" fill="url(#at)" transform="matrix(.23332 0 0 .23332 207.728 751.589)"/></g><g><path d="M234.046 782.814c-.928-3.12-4.637-3.878-7.478-3.974-.719-.675-1.6-1.763-2.529-1.847-.475.24-1.018-.746-1.744-1.62-.958-3.08-3.377-6.305-6.801-6.649-2.918-.028-5.031 3.247-3.864 5.91.935 2.519 2.807 4.98 5.387 5.918 1.01 1.657 2.827 2.652 4.349 3.62.841 3.411 4.983 4.26 8.012 4.06 2.639.065 5.274-2.224 4.725-4.996-.066-.126.023-.3-.057-.422zm-2.98 1.134c-.649 1.764-3.113 1.229-4.59.957-1.611-.215 1.22-.64 1.193-1.706-.049-1.399 1.058-.995 1.998-.69.64.232 1.445.637 1.399 1.439zm-6.225-5.838c-.816-.254.386-.382 0 0zm-1.728 1.853c-.852.973-1.6 1.056-2.565.078.752-.981 1.665-1.294 2.565-.198.037.042.223.102 0 .12zm-5.173-4.28c-1.078.52-1.656 1.478-2.332-.117-.814-.93-1.985-3.097-.284-3.698 1.815.202 2.99 2.073 3.719 3.595l-1.103.22z"/><path d="M36.831 56.959c-7.087.029-13.896 2.686-20.048 6.013-5.482 3.081-10.713 7.671-12.402 13.953-1.443 5.547.707 11.664 4.748 15.59 4.241 3.964 10.492 4.744 16.033 3.906 6.448-1.021 12.604-3.608 18.113-7.069 4.949-3.201 9.42-7.923 10.435-13.929.78-5.11-.336-9.296-4.005-12.888-2.436 2.696-4.334 4.789-4.651 7.432-.165 1.438.31 2.589-.203 4.184-.731 3.744-4.357 6.072-7.411 7.987-4.576 2.622-9.58 4.805-14.88 5.311-3.025.277-6.642-.406-8.285-3.252-1.533-2.351-1.216-5.526.475-7.706 3.105-4.173 8.007-6.45 12.718-8.326 2.868-1.073 5.075-1.912 8.158-1.939a26.479 26.479 0 0 1 3.827-8.934c-1.19-.204-1.416-.325-2.622-.333z" fill="url(#au)" transform="matrix(.05593 .22651 -.22651 .05593 232.68 763.872)"/><path d="M66.887 39.968c-4.891.17-9.662 1.84-13.672 4.631a49.963 49.963 0 0 0-5.641 4.553l.325 2.691 3.571-3.409-1.136 5.032 3.734-2.273-1.137 4.383 2.48-1.136a68.835 68.835 0 0 1 2.329-2.033c1.83-1.455 3.884-2.859 6.116-3.738 1.469-.549 3.352-.472 4.395.844 1.637 1.279.48 2.44.86 3.804 1.576 2.346 4.747 2.898 7.452 1.799 1.028-3.192 1.354-4.931.547-8.24-1.171-3.86-4.937-6.894-9.025-6.908a15.952 15.952 0 0 0-1.198 0zm-23.05 13.1a48.16 48.16 0 0 0-3.681 4.858c-.7 1.354-1.831 3.03-2.463 4.63a24.311 24.311 0 0 0-1.814 10.925c.238 2.886.874 5.043 3.489 6.415 2.205-1.798 4.863-3.681 4.656-6.687-1.165-1.461-.37-3.391.482-4.886 1.598-3.184 3.627-6.11 5.938-8.802l-1.571.601.325-3.734-3.896 2.11 1.461-4.545-3.734 4.545 1.299-4.707s-.352-.511-.491-.723zm18.073 9.433c-2.859 3.222-3.74 4.985-7.231 7.513.874 3.449.19 7.057-1.465 10.187 7.218-2.369 11.537-6.33 16.456-11.956.964-.893 1.376-1.596-.186-1.672-2.616-.775-5.695-2.071-7.574-4.072z" fill="url(#av)" transform="matrix(.05593 .22651 -.22651 .05593 232.68 763.872)"/><path d="M80.322 15.685c-5.888-.125-11.078 3.667-14.468 8.21-3.792 5.123-6.792 11.16-8.245 17.338 2.355-1.579 8.369-2.565 10.871-2.247 1.685-4.59 3.677-9.366 7.645-12.438 2.344-1.937 5.927-2.023 8.314-.127 2.888 2.249 3.047 6.349 2.592 9.682-.792 4.952-2.611 9.737-5.133 14.063-1.835 2.953-4.473 6.12-8.188 6.426-3.093.216-5.988-1.642-6.664-4.668-.652-.882-.026-2.799-.907-2.839-1.288-.379-4.53 1.277-7.531 3.682.45 5.042 2.101 8.388 6.602 10.851 4.484 2.585 10.272 3.192 14.954.737 5.521-2.737 9.221-8.066 11.786-13.5 3.003-6.652 5.329-14.055 4.183-21.423-.678-4.679-3.366-9.146-7.595-11.415-2.505-1.394-5.337-2.285-8.216-2.332z" fill="url(#aw)" transform="matrix(.05593 .22651 -.22651 .05593 232.68 763.872)"/></g><g><path d="M237.089 836.036c-.928-3.12-4.637-3.878-7.478-3.974-.719-.675-1.6-1.763-2.529-1.846-.475.24-1.018-.746-1.744-1.62-.958-3.081-3.377-6.306-6.801-6.65-2.918-.028-5.031 3.247-3.864 5.91.935 2.52 2.807 4.981 5.388 5.918 1.008 1.658 2.826 2.653 4.348 3.62.841 3.412 4.983 4.261 8.012 4.06 2.639.066 5.274-2.223 4.725-4.995-.066-.126.023-.301-.057-.423zm-2.98 1.134c-.648 1.764-3.113 1.23-4.59.958-1.61-.216 1.22-.641 1.193-1.707-.049-1.398 1.058-.994 1.998-.69.64.233 1.445.638 1.399 1.44zm-6.225-5.838c-.815-.254.386-.381 0 0zm-1.728 1.854c-.852.973-1.6 1.056-2.564.077.751-.98 1.664-1.294 2.564-.197.037.042.223.102 0 .12zm-5.172-4.28c-1.08.519-1.657 1.478-2.333-.117-.814-.93-1.985-3.098-.284-3.698 1.815.201 2.991 2.072 3.719 3.595l-1.102.22z"/><path d="M36.831 56.959c-7.087.029-13.896 2.686-20.048 6.013-5.482 3.081-10.713 7.671-12.402 13.953-1.443 5.547.707 11.664 4.748 15.59 4.241 3.964 10.492 4.744 16.033 3.906 6.448-1.021 12.604-3.608 18.113-7.069 4.949-3.201 9.42-7.923 10.435-13.929.78-5.11-.336-9.296-4.005-12.888-2.436 2.696-4.334 4.789-4.651 7.432-.165 1.438.31 2.589-.203 4.184-.731 3.744-4.357 6.072-7.411 7.987-4.576 2.622-9.58 4.805-14.88 5.311-3.025.277-6.642-.406-8.285-3.252-1.533-2.351-1.216-5.526.475-7.706 3.105-4.173 8.007-6.45 12.718-8.326 2.868-1.073 5.075-1.912 8.158-1.939a26.479 26.479 0 0 1 3.827-8.934c-1.19-.204-1.416-.325-2.622-.333z" fill="url(#ax)" transform="matrix(.05593 .22651 -.22651 .05593 235.724 817.095)"/><path d="M66.887 39.968c-4.891.17-9.662 1.84-13.672 4.631a49.963 49.963 0 0 0-5.641 4.553l.325 2.691 3.571-3.409-1.136 5.032 3.734-2.273-1.137 4.383 2.48-1.136a68.835 68.835 0 0 1 2.329-2.033c1.83-1.455 3.884-2.859 6.116-3.738 1.469-.549 3.352-.472 4.395.844 1.637 1.279.48 2.44.86 3.804 1.576 2.346 4.747 2.898 7.452 1.799 1.028-3.192 1.354-4.931.547-8.24-1.171-3.86-4.937-6.894-9.025-6.908a15.952 15.952 0 0 0-1.198 0zm-23.05 13.1a48.16 48.16 0 0 0-3.681 4.858c-.7 1.354-1.831 3.03-2.463 4.63a24.311 24.311 0 0 0-1.814 10.925c.238 2.886.874 5.043 3.489 6.415 2.205-1.798 4.863-3.681 4.656-6.687-1.165-1.461-.37-3.391.482-4.886 1.598-3.184 3.627-6.11 5.938-8.802l-1.571.601.325-3.734-3.896 2.11 1.461-4.545-3.734 4.545 1.299-4.707s-.352-.511-.491-.723zm18.073 9.433c-2.859 3.222-3.74 4.985-7.231 7.513.874 3.449.19 7.057-1.465 10.187 7.218-2.369 11.537-6.33 16.456-11.956.964-.893 1.376-1.596-.186-1.672-2.616-.775-5.695-2.071-7.574-4.072z" fill="url(#ay)" transform="matrix(.05593 .22651 -.22651 .05593 235.724 817.095)"/><path d="M80.322 15.685c-5.888-.125-11.078 3.667-14.468 8.21-3.792 5.123-6.792 11.16-8.245 17.338 2.355-1.579 8.369-2.565 10.871-2.247 1.685-4.59 3.677-9.366 7.645-12.438 2.344-1.937 5.927-2.023 8.314-.127 2.888 2.249 3.047 6.349 2.592 9.682-.792 4.952-2.611 9.737-5.133 14.063-1.835 2.953-4.473 6.12-8.188 6.426-3.093.216-5.988-1.642-6.664-4.668-.652-.882-.026-2.799-.907-2.839-1.288-.379-4.53 1.277-7.531 3.682.45 5.042 2.101 8.388 6.602 10.851 4.484 2.585 10.272 3.192 14.954.737 5.521-2.737 9.221-8.066 11.786-13.5 3.003-6.652 5.329-14.055 4.183-21.423-.678-4.679-3.366-9.146-7.595-11.415-2.505-1.394-5.337-2.285-8.216-2.332z" fill="url(#az)" transform="matrix(.05593 .22651 -.22651 .05593 235.724 817.095)"/></g></g><g><g fill="#bababa"><path d="M259.717 766.985s3.67 8.87 3.969 8.682c.245-.155 1.535-2.619 6.863.335-1.364-3.201-1.065-9.314-1.065-9.314.172-1.275-.376-1.898-1.504-2.379-2.889-1.232-7.74-.87-8.383 1.104a2.007 2.007 0 0 0 .12 1.572z"/><path clip-path="url(#clipPath4002)" transform="matrix(-.0444 .00909 -.0086 -.0552 254.167 801.343)" opacity=".75" d="M-509.528 429.118h251.749v229.879h-251.749z"/><path d="M263.544 775.028c.006 0 .012 0 .016-.003.246-.155 1.535-2.62 6.863.334-.086-.202-.235-.55-.309-.774-5.258-2.883-6.537-.443-6.781-.289l.211.732zm-3.37-6.93a2.283 2.283 0 0 1 .106-.721c.617-1.981 5.077-2.457 7.713-1.299 1.029.452 1.524 1.059 1.348 2.333l.134-.817c.174-1.275-.344-1.889-1.418-2.354-2.751-1.192-7.39-.768-8.018 1.21a2.077 2.077 0 0 0 .103 1.567l.032.08z"/><path d="M295.02 230.72c-.43.555-.736.918-1.531 2.031-1.221 1.71-2.883 3.959-5.125 6.438-4.485 4.957-11.342 10.91-22 15.938-20.876 9.847-56.387 16.006-116.94 4.75 2.345 2.824 4.952 5.909 6.844 8.625 61.322 11.593 96.43 5.172 116.72-4.5 10.173-4.85 16.639-10.526 20.875-15.22 2.117-2.346 3.687-4.462 4.875-6.124a35.42 35.42 0 0 1 2.03-2.594l-5.75-9.344zm100.19 106.84c.172 2.733.101 5.496-.344 8.281-1.598 10.002-8.916 19.297-19.719 27.562s-25.15 15.53-41.219 21.406c-32.137 11.751-71.077 17.892-101.88 14.47-12.027-1.337-21.486-4.027-28.125-9.563-3.349-2.793-5.9-6.317-7.687-10.625.484 11.199 3.851 18.462 10.03 23.406 6.224 4.979 15.503 7.66 27.782 8.969 31.473 3.354 71.802-2.734 104.91-14.344 16.552-5.806 31.292-12.982 42.219-21 10.926-8.019 17.955-16.85 19.438-25.75 1.364-8.188-.306-15.98-5.406-22.812z" opacity=".8" stroke="#92421a" stroke-dasharray="2,1" stroke-width="19.812" transform="matrix(-.04427 -.01295 .00924 -.05442 274.506 791.282)"/><path d="M262.589 776.605l2.516.093s-1.377-7.923-1.252-8.603c.126-.68-.583-1.247-1.045-1.225-.7.034-.674.63-1.74.725-.526.047-.89-.052-1.35-.61.946 3.141 2.87 9.62 2.87 9.62zM270.582 775.868c-.725-3.666-.98-6.572-1.085-9.526-.155 2-2.462 1.942-2.928.761.73 3.062 1.127 6.879 1.07 9.31.56 1.65 3.039 1.847 2.943-.545z"/><path clip-path="url(#clipPath3935)" transform="matrix(-.04268 .01699 -.01683 -.05248 252.604 802.99)" opacity=".75" d="M-470.98 356.83h86.592V567.3h-86.592z"/><path d="M227.45 757.543s-6.192 5.985-6.401 5.648c-.172-.277-.544-3.227-6.322-3.523 2.27-2.139 3.975-7.839 3.975-7.839.257-1.25.955-1.509 2.131-1.315 3.015.495 7.29 3.528 7.233 5.673-.014.55-.206 1.032-.617 1.356z"/><path clip-path="url(#clipPath4002-96-2)" transform="matrix(.03726 .03298 .02563 -.04518 222.248 794.107)" opacity=".75" d="M-509.53 429.12h251.75V659h-251.75z"/><path d="M221.385 762.691a.027.027 0 0 1-.014-.01c-.172-.278-.542-3.23-6.321-3.525.143-.135.39-.367.53-.529 5.693.322 6.062 3.245 6.233 3.52l-.428.544zm5.293-4.395c.082-.218.127-.458.137-.711.081-2.138-3.803-5.056-6.564-5.477-1.078-.164-1.722.11-1.975 1.36l.143-.814c.255-1.251.923-1.518 2.045-1.34 2.877.454 6.939 3.424 6.868 5.565-.018.549-.205 1.033-.6 1.361l-.054.056z"/><g opacity=".8" stroke="#92421a" stroke-dasharray="2,1" stroke-width="19.812"><path d="M819.25 547.88l-5.75 9.344a35.39 35.39 0 0 1 2.031 2.594c1.188 1.662 2.757 3.778 4.875 6.125 4.236 4.693 10.702 10.369 20.875 15.219 20.288 9.672 55.396 16.093 116.72 4.5 1.892-2.716 4.498-5.8 6.844-8.625-60.551 11.256-96.062 5.097-116.94-4.75-10.658-5.028-17.515-10.98-22-15.938-2.242-2.48-3.904-4.728-5.125-6.438-.795-1.114-1.1-1.477-1.531-2.031zM719.06 654.72c-5.1 6.834-6.77 14.625-5.406 22.812 1.482 8.9 8.51 17.732 19.438 25.75 10.926 8.018 25.667 15.195 42.219 21 33.104 11.61 73.433 17.698 104.91 14.344 12.279-1.309 21.558-3.99 27.78-8.969 6.18-4.944 9.548-12.207 10.032-23.406-1.787 4.308-4.339 7.833-7.688 10.625-6.639 5.536-16.098 8.226-28.125 9.563-30.798 3.423-69.738-2.718-101.88-14.47-16.068-5.875-30.416-13.14-41.219-21.405s-18.12-17.56-19.719-27.562c-.445-2.786-.516-5.548-.343-8.281z" transform="matrix(-.04427 -.01295 .00924 -.05442 252.604 802.99)"/></g><path d="M221.74 764.652l-2.308-1.318s3.809-6.406 3.915-7.091c.107-.686.932-.804 1.343-.527.622.42.406.947 1.341 1.627.46.335.822.448 1.42.2-1.873 2.317-5.71 7.11-5.71 7.11zM214.743 759.53c1.842-2.916 3.013-5.405 4.062-8.021-.507 1.898 1.601 3.13 2.405 2.322-1.65 2.365-3.244 5.599-3.979 7.833-1.04 1.18-3.349-.023-2.488-2.135z"/><path clip-path="url(#clipPath3935-0-4)" transform="matrix(.03315 .03918 .03221 -.03813 222.248 794.107)" opacity=".75" d="M-470.98 356.83h86.592V567.3h-86.592z"/><path d="M240.956 777.75c7.307 2.148 14.806 2.717 22.387.996 1.074-.244 2.117-.83 1.925-2.329 0 0-.958-7.673-1.409-8.612.057.79-.688 1.727-1.228 1.854-7.363 1.73-13.835 1.322-20.2-.6-6.384-1.808-12.375-5.048-18.483-10.72-.447-.415-.819-1.679-.512-2.363-.712.6-4.06 7.012-4.06 7.012-.659 1.25.096 2.362.99 3.182 6.309 5.785 13.282 9.452 20.593 11.58z"/><path clip-path="url(#clipPath4236-2-5)" transform="matrix(.03798 .03167 .02455 -.04611 222.248 794.107)" opacity=".7" d="M-493.48 395.58h74.631v203.2h-74.631z"/><path d="M241.18 776.8c7.194 2.062 14.573 2.584 22.03.89 1.074-.243 2.121-.786 1.93-2.285 0 0-.032-.267-.072-.578.064 1.333-.929 1.873-1.947 2.104-7.406 1.682-14.734 1.177-21.882-.85-7.127-2.15-13.924-5.779-20.085-11.43-.848-.777-1.572-1.819-1.083-2.99-.137.259-.252.483-.252.483-.658 1.25.115 2.326 1.008 3.145 6.204 5.69 13.053 9.332 20.234 11.476l.06.017.059.018zm1.897-5.575c6.299 1.87 12.71 2.248 19.995.537.54-.127 1.333-1.11 1.276-1.9l-.18-.886c.056.79-.739 1.774-1.279 1.9-7.534 1.77-14.134 1.305-20.642-.734-6.55-1.782-12.677-5.04-18.926-10.844-.448-.415-.85-1.749-.543-2.432l-.45.7c-.306.684.094 2.016.542 2.432 6.04 5.61 11.968 8.843 18.276 10.662.321.093.644.182.968.267.32.103.641.203.963.298z"/><path clip-path="url(#clipPath3096-9-7)" transform="matrix(.03748 .03259 .0253 -.04546 222.248 794.107)" opacity=".65" d="M-383.38 386.62h74.631v203.2h-74.631z"/><path clip-path="url(#clipPath4236-9-0-7-1)" transform="matrix(.03798 .03167 .02455 -.04611 222.248 794.107)" opacity=".7" d="M-493.48 395.58h74.631v203.2h-74.631z"/><path clip-path="url(#clipPath4236)" transform="matrix(-.04463 .0075 -.00731 -.05544 252.604 802.99)" opacity=".7" d="M-493.48 395.58h74.631v203.2h-74.631z"/><path clip-path="url(#clipPath3096)" transform="matrix(-.04447 .00861 -.00821 -.05527 252.604 802.99)" opacity=".65" d="M-383.38 386.62h74.631v203.2h-74.631z"/><path clip-path="url(#clipPath4236-9-0)" transform="matrix(-.04463 .0075 -.00731 -.05544 252.604 802.99)" opacity=".7" d="M-493.48 395.58h74.631v203.2h-74.631z"/><path d="M301.99 330.25c.388-5.477 2.339-11.255 5.281-16.531 4.375-7.845 10.585-14.599 16.656-17.312 155.83-69.655 299.82-95.355 447.47-93h.063c147.65-2.355 291.64 23.345 447.47 93 6.071 2.714 12.28 9.467 16.656 17.312 2.942 5.276 6.41 11.59 5.28 19.388m4.05-8.254c1.85-6.155-.545-16.873-4.674-24.29-4.136-7.43-10.263-13.823-15.344-16.094-150.33-67.197-289.46-93.372-431.66-92.906a1158.164 1158.164 0 0 0-21.844.28c-7.273-.16-14.527-.257-21.78-.28-142.2-.466-281.33 25.709-431.66 92.906-5.081 2.27-11.209 8.664-15.345 16.094-4.129 7.417-6.256 15.814-4.406 21.969m471.89-238.29c-162.2.745-322.69 29.377-476.78 97.125-11.017 4.844-21.53 10.95-28 18.75-5.426 6.54-11.225 16.842-2.242 38.93.646 1.589-2.712-4.265-2.32-10.055.544-7.168 3.59-13.45 8.25-18.781 6.928-7.929 17.23-13.945 27.875-18.625 153.43-67.46 313.17-96.2 474.56-97.312 161.39 1.112 321.13 29.852 474.56 97.312 10.644 4.68 20.947 10.697 27.875 18.625 4.659 5.331 8.777 11.256 8.071 23.78 4.217-12.521 2.893-25.642-4.384-33.874-6.711-7.592-16.983-13.906-28-18.75-154.09-67.748-314.58-96.38-476.78-97.125-.434-.002-.883.002-1.344 0-.46.002-.91-.002-1.343 0z" opacity=".75" stroke="#92421a" stroke-dasharray="2,1" stroke-width="19.812" transform="matrix(-.04427 -.01295 .00924 -.05442 274.506 791.282)"/><path d="M241.686 778.49c6.76 1.987 13.683 2.622 20.682 1.345l1.686-9.932c-.22.256-.473.444-.693.495-7.363 1.73-13.835 1.323-20.2-.6-6.384-1.808-12.375-5.047-18.483-10.719-.231-.215-.443-.657-.55-1.128l-1.719 10.125c5.958 5.117 12.47 8.432 19.277 10.414z" opacity=".15"/></g></g></svg>