<?xml version="1.0" encoding="utf-8"?>
<svg class="glasses" width="86" height="380" viewBox="202.715 584.407 86.5933 380.048" preserveAspectRatio="xMidYMax" xmlns="http://www.w3.org/2000/svg">
  <defs id="svgEditorDefs">
    <path id="svgEditorClosePathDefs" class="skin" fill="black" style="stroke-width: 0px; stroke: none;"/>
    <radialGradient id="radialGradient50846" spreadMethod="reflect" gradientUnits="userSpaceOnUse" cy="273.66" cx="291.32" gradientTransform="matrix(0.265283, 0, 0.166955, 0.282174, 115.01171, 148.870055)" r="2.3099">
      <stop id="stop14419" style="stop-color:#e0b524" offset="0"/>
      <stop id="stop14420" style="stop-color:#f3d727" offset="1"/>
    </radialGradient>
    <radialGradient id="radialGradient50845" spreadMethod="reflect" gradientUnits="userSpaceOnUse" cy="273.66" cx="291.32" gradientTransform="matrix(0.276499, -0.01154, 0.011283, 0.27025, 154.227419, 158.235078)" r="2.3099">
      <stop id="stop14419" style="stop-color:#e0b524" offset="0"/>
      <stop id="stop14420" style="stop-color:#f3d727" offset="1"/>
    </radialGradient>
    <radialGradient id="radialGradient50844" spreadMethod="reflect" gradientUnits="userSpaceOnUse" cy="273.66" cx="291.32" gradientTransform="matrix(.26370 -.083975 .082076 .25773 139.2 185.48)" r="2.3099">
      <stop id="stop14419" style="stop-color:#e0b524" offset="0"/>
      <stop id="stop14420" style="stop-color:#f3d727" offset="1"/>
    </radialGradient>
    <radialGradient id="gradient-1" spreadMethod="reflect" gradientUnits="userSpaceOnUse" cy="273.66" cx="291.32" gradientTransform="matrix(0.19065, -0.068595, 0.059333, 0.21052, 165.74055, 194.568689)" r="2.3099">
      <stop id="stop-1" style="stop-color:#e0b524" offset="0"/>
      <stop id="stop-2" style="stop-color:#f3d727" offset="1"/>
    </radialGradient>
    <radialGradient id="gradient-2" spreadMethod="reflect" gradientUnits="userSpaceOnUse" cy="273.66" cx="291.32" gradientTransform="matrix(.27650 -.011541 .011280 .27025 152.06 158.35)" r="2.3099">
      <stop id="stop-1" style="stop-color:#e0b524" offset="0"/>
      <stop id="stop-2" style="stop-color:#f3d727" offset="1"/>
    </radialGradient>
    <radialGradient id="gradient-3" spreadMethod="reflect" gradientUnits="userSpaceOnUse" cy="273.66" cx="291.32" gradientTransform="scale(1.0115 .98863)" r="2.3099">
      <stop id="stop-1" style="stop-color:#e0b524" offset="0"/>
      <stop id="stop-2" style="stop-color:#f3d727" offset="1"/>
    </radialGradient>
    <radialGradient id="gradient-4" spreadMethod="reflect" gradientUnits="userSpaceOnUse" cy="273.66" cx="291.32" gradientTransform="matrix(0.212099, -0.007868, 0.018688, 0.184361, 173.519057, 187.015796)" r="2.3099">
      <stop id="stop-3" style="stop-color:#e0b524" offset="0"/>
      <stop id="stop-4" style="stop-color:#f3d727" offset="1"/>
    </radialGradient>
  </defs>
  <rect id="svgEditorBackground" x="202.71499633789062" y="584.4310302734375" width="86.59329986572266" height="115.80899810791016" style="fill: none; stroke: none;"/>
  <rect id="rect-1" x="-403.988" y="499.579" width="1300" height="550" style="fill: none; stroke: none;"/>
  <path d="M 222.342 744.381 C 222.342 758.038 241.446 759.668 253.604 758.479 C 266.135 757.253 267.744 752.124 268.929 762.157 C 269.486 766.871 264.117 764.565 259.734 764.609 C 242.044 764.785 235.266 770.229 222.955 759.092 C 212.75 749.86 213.509 760.319 217.438 750.511" style="stroke: rgb(0, 0, 0); fill: rgb(135, 172, 72);"/>
  <path d="M 215.6 752.349 C 215.6 767.856 235.596 768.9 249.926 768.9 C 253.338 768.9 257.793 769.411 263.412 768.9 C 264.364 768.813 265.641 768.146 267.012 767.516 C 269.703 766.278 270.308 765.796 271.994 769.513 C 274.104 774.165 254.759 772.397 252.378 773.191 C 232.754 779.732 214.987 772.867 214.987 754.801" style="stroke: rgb(0, 0, 0); fill: rgb(135, 172, 72);"/>
  <path d="M 212.535 764.609 C 214.181 764.609 219.045 772.155 221.116 773.191 C 223.941 774.603 229.98 775.311 232.15 777.482 C 233.083 778.414 239.879 777.482 241.345 777.482 C 248.691 777.482 256.656 773.99 262.186 774.417 C 273.566 775.296 273.016 764.199 276.898 779.934 C 278.176 785.115 260.795 781.01 254.83 782.999 C 235.381 789.482 212.535 785.176 212.535 763.996" style="stroke: rgb(0, 0, 0); fill: rgb(135, 172, 72);"/>
  <g transform="matrix(0.090084, -0.020101, -0.006538, 0.151296, 209.396072, 765.088562)">
    <g id="layer1" transform="translate(-36.11 -38.059)">
      <g id="g50771" transform="matrix(9.7374 0 0 9.7374 -1412.1 -1860.3)">
        <g id="g50772">
          <g id="g50773" transform="matrix(-.063493 -.68889 .68889 -.063493 71.355 376.37)">
            <path id="path50774" style="fill-rule: evenodd; stroke: rgb(0, 0, 0); stroke-width: 0.068399pt; fill: rgb(224, 181, 36);" d="m237.76 229.53c-1.09 0.39-1.78 1.73-1.48 2.62 0.32 0.97 0.75 1.39 2.13 1.75 0.09 0.44 0.21 0.78 0.48 1.18-1.6 0.15-3.19-0.84-3.72-2.47-0.55-1.66 0.26-3.47 2.27-4.12 2.08-0.67 3.79 0.38 4.31 1.89 0.51 1.47-0.07 3.76-1.64 4.32-0.27-0.31-0.45-0.64-0.52-1.02 0.64-0.25 1.4-2 1.02-3.04-0.38-1.05-1.64-1.53-2.85-1.11z"/>
            <path id="path50775" style="fill-rule: evenodd; stroke: rgb(0, 0, 0); stroke-width: 0.068399pt; fill: rgb(224, 181, 36);" d="m235.54 226.82c-1.16 0.08-2.18 1.19-2.13 2.13 0.06 1.03 0.36 1.54 1.6 2.25-0.03 0.45 0 0.81 0.15 1.27-1.58-0.28-2.85-1.65-2.94-3.37-0.09-1.74 1.17-3.27 3.28-3.37 2.18-0.1 3.55 1.36 3.66 2.96 0.11 1.55-1.06 3.6-2.72 3.74-0.18-0.38-0.26-0.74-0.23-1.13 0.68-0.07 1.88-1.56 1.78-2.66-0.09-1.11-1.18-1.92-2.45-1.82z"/>
            <path id="path50776" style="fill-rule: evenodd; stroke: rgb(0, 0, 0); stroke-width: 0.25pt; fill: rgb(224, 181, 36);" d="m294.41 262.73c-4.25 0.13-8.13 4.04-8.09 7.48 0.04 3.75 1.08 5.67 5.49 8.47-0.18 1.62-0.12 2.93 0.36 4.63-5.73-1.25-10.17-6.45-10.23-12.74-0.05-6.38 4.78-11.76 12.5-11.81 7.98-0.05 12.75 5.53 12.91 11.37 0.16 5.67-4.41 13-10.5 13.22-0.62-1.38-0.85-2.73-0.69-4.15 2.49-0.14 7.1-5.41 6.93-9.43-0.17-4.08-4.02-7.18-8.68-7.04z" transform="matrix(.27187 .030699 -.030699 .27187 161.53 143.51)"/>
          </g>
          <g id="g50777" transform="matrix(.075718 -.68765 .68765 .075718 33.628 349.92)">
            <path id="path50778" style="fill-rule: evenodd; stroke: rgb(0, 0, 0); stroke-width: 0.068399pt; fill: rgb(224, 181, 36);" d="m237.76 229.53c-1.09 0.39-1.78 1.73-1.48 2.62 0.32 0.97 0.75 1.39 2.13 1.75 0.09 0.44 0.21 0.78 0.48 1.18-1.6 0.15-3.19-0.84-3.72-2.47-0.55-1.66 0.26-3.47 2.27-4.12 2.08-0.67 3.79 0.38 4.31 1.89 0.51 1.47-0.07 3.76-1.64 4.32-0.27-0.31-0.45-0.64-0.52-1.02 0.64-0.25 1.4-2 1.02-3.04-0.38-1.05-1.64-1.53-2.85-1.11z"/>
            <path id="path50779" style="fill-rule: evenodd; stroke: rgb(0, 0, 0); stroke-width: 0.068399pt; fill: rgb(224, 181, 36);" d="m235.54 226.82c-1.16 0.08-2.18 1.19-2.13 2.13 0.06 1.03 0.36 1.54 1.6 2.25-0.03 0.45 0 0.81 0.15 1.27-1.58-0.28-2.85-1.65-2.94-3.37-0.09-1.74 1.17-3.27 3.28-3.37 2.18-0.1 3.55 1.36 3.66 2.96 0.11 1.55-1.06 3.6-2.72 3.74-0.18-0.38-0.26-0.74-0.23-1.13 0.68-0.07 1.88-1.56 1.78-2.66-0.09-1.11-1.18-1.92-2.45-1.82z"/>
            <path id="path50780" style="fill-rule: evenodd; stroke: rgb(0, 0, 0); stroke-width: 0.25pt; fill: rgb(224, 181, 36);" d="m294.41 262.73c-4.25 0.13-8.13 4.04-8.09 7.48 0.04 3.75 1.08 5.67 5.49 8.47-0.18 1.62-0.12 2.93 0.36 4.63-5.73-1.25-10.17-6.45-10.23-12.74-0.05-6.38 4.78-11.76 12.5-11.81 7.98-0.05 12.75 5.53 12.91 11.37 0.16 5.67-4.41 13-10.5 13.22-0.62-1.38-0.85-2.73-0.69-4.15 2.49-0.14 7.1-5.41 6.93-9.43-0.17-4.08-4.02-7.18-8.68-7.04z" transform="matrix(.27187 .030699 -.030699 .27187 161.53 143.51)"/>
          </g>
        </g>
        <g id="g50781" transform="matrix(.50725 -.47042 .47042 .50725 -34.965 199.05)">
          <g id="g50782" transform="matrix(.94606 -0.324 0.324 .94606 -84.548 98.129)">
            <g id="g50783" transform="matrix(.97975 -.20022 .20022 .97975 -16.038 67.479)">
              <path id="path50784" style="fill-rule: evenodd; stroke: rgb(0, 0, 0); stroke-width: 0.068399pt; fill: rgb(224, 181, 36);" d="m237.76 229.53c-1.09 0.39-1.78 1.73-1.48 2.62 0.32 0.97 0.75 1.39 2.13 1.75 0.09 0.44 0.21 0.78 0.48 1.18-1.6 0.15-3.19-0.84-3.72-2.47-0.55-1.66 0.26-3.47 2.27-4.12 2.08-0.67 3.79 0.38 4.31 1.89 0.51 1.47-0.07 3.76-1.64 4.32-0.27-0.31-0.45-0.64-0.52-1.02 0.64-0.25 1.4-2 1.02-3.04-0.38-1.05-1.64-1.53-2.85-1.11z"/>
              <path id="path50785" style="fill-rule: evenodd; stroke: rgb(0, 0, 0); stroke-width: 0.068399pt; fill: rgb(224, 181, 36);" d="m235.54 226.82c-1.16 0.08-2.18 1.19-2.13 2.13 0.06 1.03 0.36 1.54 1.6 2.25-0.03 0.45 0 0.81 0.15 1.27-1.58-0.28-2.85-1.65-2.94-3.37-0.09-1.74 1.17-3.27 3.28-3.37 2.18-0.1 3.55 1.36 3.66 2.96 0.11 1.55-1.06 3.6-2.72 3.74-0.18-0.38-0.26-0.74-0.23-1.13 0.68-0.07 1.88-1.56 1.78-2.66-0.09-1.11-1.18-1.92-2.45-1.82z"/>
              <path id="path50786" style="fill-rule: evenodd; stroke: rgb(0, 0, 0); stroke-width: 0.25pt; fill: rgb(224, 181, 36);" d="m294.41 262.73c-4.25 0.13-8.13 4.04-8.09 7.48 0.04 3.75 1.08 5.67 5.49 8.47-0.18 1.62-0.12 2.93 0.36 4.63-5.73-1.25-10.17-6.45-10.23-12.74-0.05-6.38 4.78-11.76 12.5-11.81 7.98-0.05 12.75 5.53 12.91 11.37 0.16 5.67-4.41 13-10.5 13.22-0.62-1.38-0.85-2.73-0.69-4.15 2.49-0.14 7.1-5.41 6.93-9.43-0.17-4.08-4.02-7.18-8.68-7.04z" transform="matrix(.27187 .030699 -.030699 .27187 161.53 143.51)"/>
            </g>
            <g id="g50787" transform="translate(15.99 9.0895)">
              <path id="path50788" style="fill-rule: evenodd; stroke: rgb(0, 0, 0); stroke-width: 0.068399pt; fill: rgb(224, 181, 36);" d="m237.76 229.53c-1.09 0.39-1.78 1.73-1.48 2.62 0.32 0.97 0.75 1.39 2.13 1.75 0.09 0.44 0.21 0.78 0.48 1.18-1.6 0.15-3.19-0.84-3.72-2.47-0.55-1.66 0.26-3.47 2.27-4.12 2.08-0.67 3.79 0.38 4.31 1.89 0.51 1.47-0.07 3.76-1.64 4.32-0.27-0.31-0.45-0.64-0.52-1.02 0.64-0.25 1.4-2 1.02-3.04-0.38-1.05-1.64-1.53-2.85-1.11z"/>
              <path id="path50789" style="fill-rule: evenodd; stroke: rgb(0, 0, 0); stroke-width: 0.068399pt; fill: rgb(224, 181, 36);" d="m235.54 226.82c-1.16 0.08-2.18 1.19-2.13 2.13 0.06 1.03 0.36 1.54 1.6 2.25-0.03 0.45 0 0.81 0.15 1.27-1.58-0.28-2.85-1.65-2.94-3.37-0.09-1.74 1.17-3.27 3.28-3.37 2.18-0.1 3.55 1.36 3.66 2.96 0.11 1.55-1.06 3.6-2.72 3.74-0.18-0.38-0.26-0.74-0.23-1.13 0.68-0.07 1.88-1.56 1.78-2.66-0.09-1.11-1.18-1.92-2.45-1.82z"/>
              <path id="path50790" style="fill-rule: evenodd; stroke: rgb(0, 0, 0); stroke-width: 0.25pt; fill: rgb(224, 181, 36);" d="m294.41 262.73c-4.25 0.13-8.13 4.04-8.09 7.48 0.04 3.75 1.08 5.67 5.49 8.47-0.18 1.62-0.12 2.93 0.36 4.63-5.73-1.25-10.17-6.45-10.23-12.74-0.05-6.38 4.78-11.76 12.5-11.81 7.98-0.05 12.75 5.53 12.91 11.37 0.16 5.67-4.41 13-10.5 13.22-0.62-1.38-0.85-2.73-0.69-4.15 2.49-0.14 7.1-5.41 6.93-9.43-0.17-4.08-4.02-7.18-8.68-7.04z" transform="matrix(.27187 .030699 -.030699 .27187 161.53 143.51)"/>
            </g>
          </g>
          <g id="g50791" transform="matrix(.97975 -.20022 .20022 .97975 -56.077 59.789)">
            <path id="path50792" style="fill-rule: evenodd; stroke: rgb(0, 0, 0); stroke-width: 0.068399pt; fill: rgb(224, 181, 36);" d="m237.76 229.53c-1.09 0.39-1.78 1.73-1.48 2.62 0.32 0.97 0.75 1.39 2.13 1.75 0.09 0.44 0.21 0.78 0.48 1.18-1.6 0.15-3.19-0.84-3.72-2.47-0.55-1.66 0.26-3.47 2.27-4.12 2.08-0.67 3.79 0.38 4.31 1.89 0.51 1.47-0.07 3.76-1.64 4.32-0.27-0.31-0.45-0.64-0.52-1.02 0.64-0.25 1.4-2 1.02-3.04-0.38-1.05-1.64-1.53-2.85-1.11z"/>
            <path id="path50793" style="fill-rule: evenodd; stroke: rgb(0, 0, 0); stroke-width: 0.068399pt; fill: rgb(224, 181, 36);" d="m235.54 226.82c-1.16 0.08-2.18 1.19-2.13 2.13 0.06 1.03 0.36 1.54 1.6 2.25-0.03 0.45 0 0.81 0.15 1.27-1.58-0.28-2.85-1.65-2.94-3.37-0.09-1.74 1.17-3.27 3.28-3.37 2.18-0.1 3.55 1.36 3.66 2.96 0.11 1.55-1.06 3.6-2.72 3.74-0.18-0.38-0.26-0.74-0.23-1.13 0.68-0.07 1.88-1.56 1.78-2.66-0.09-1.11-1.18-1.92-2.45-1.82z"/>
            <path id="path50794" style="fill-rule: evenodd; stroke: rgb(0, 0, 0); stroke-width: 0.25pt; fill: rgb(224, 181, 36);" d="m294.41 262.73c-4.25 0.13-8.13 4.04-8.09 7.48 0.04 3.75 1.08 5.67 5.49 8.47-0.18 1.62-0.12 2.93 0.36 4.63-5.73-1.25-10.17-6.45-10.23-12.74-0.05-6.38 4.78-11.76 12.5-11.81 7.98-0.05 12.75 5.53 12.91 11.37 0.16 5.67-4.41 13-10.5 13.22-0.62-1.38-0.85-2.73-0.69-4.15 2.49-0.14 7.1-5.41 6.93-9.43-0.17-4.08-4.02-7.18-8.68-7.04z" transform="matrix(.27187 .030699 -.030699 .27187 161.53 143.51)"/>
          </g>
          <g id="g50795" transform="translate(-24.049 1.3996)">
            <path id="path50796" style="fill-rule: evenodd; stroke: rgb(0, 0, 0); stroke-width: 0.068399pt; fill: rgb(224, 181, 36);" d="m237.76 229.53c-1.09 0.39-1.78 1.73-1.48 2.62 0.32 0.97 0.75 1.39 2.13 1.75 0.09 0.44 0.21 0.78 0.48 1.18-1.6 0.15-3.19-0.84-3.72-2.47-0.55-1.66 0.26-3.47 2.27-4.12 2.08-0.67 3.79 0.38 4.31 1.89 0.51 1.47-0.07 3.76-1.64 4.32-0.27-0.31-0.45-0.64-0.52-1.02 0.64-0.25 1.4-2 1.02-3.04-0.38-1.05-1.64-1.53-2.85-1.11z"/>
            <path id="path50797" style="fill-rule: evenodd; stroke: rgb(0, 0, 0); stroke-width: 0.068399pt; fill: rgb(224, 181, 36);" d="m235.54 226.82c-1.16 0.08-2.18 1.19-2.13 2.13 0.06 1.03 0.36 1.54 1.6 2.25-0.03 0.45 0 0.81 0.15 1.27-1.58-0.28-2.85-1.65-2.94-3.37-0.09-1.74 1.17-3.27 3.28-3.37 2.18-0.1 3.55 1.36 3.66 2.96 0.11 1.55-1.06 3.6-2.72 3.74-0.18-0.38-0.26-0.74-0.23-1.13 0.68-0.07 1.88-1.56 1.78-2.66-0.09-1.11-1.18-1.92-2.45-1.82z"/>
            <path id="path50798" style="fill-rule: evenodd; stroke: rgb(0, 0, 0); stroke-width: 0.25pt; fill: rgb(224, 181, 36);" d="m294.41 262.73c-4.25 0.13-8.13 4.04-8.09 7.48 0.04 3.75 1.08 5.67 5.49 8.47-0.18 1.62-0.12 2.93 0.36 4.63-5.73-1.25-10.17-6.45-10.23-12.74-0.05-6.38 4.78-11.76 12.5-11.81 7.98-0.05 12.75 5.53 12.91 11.37 0.16 5.67-4.41 13-10.5 13.22-0.62-1.38-0.85-2.73-0.69-4.15 2.49-0.14 7.1-5.41 6.93-9.43-0.17-4.08-4.02-7.18-8.68-7.04z" transform="matrix(.27187 .030699 -.030699 .27187 161.53 143.51)"/>
          </g>
        </g>
        <g id="g50799" transform="matrix(.69162 .016131 -.016131 .69162 10.079 42.059)">
          <g id="g50800" transform="matrix(.94606 -0.324 0.324 .94606 -84.548 98.129)">
            <g id="g50801" transform="matrix(.97975 -.20022 .20022 .97975 -16.038 67.479)">
              <path id="path50802" style="fill-rule: evenodd; stroke: rgb(0, 0, 0); stroke-width: 0.068399pt; fill: rgb(224, 181, 36);" d="m237.76 229.53c-1.09 0.39-1.78 1.73-1.48 2.62 0.32 0.97 0.75 1.39 2.13 1.75 0.09 0.44 0.21 0.78 0.48 1.18-1.6 0.15-3.19-0.84-3.72-2.47-0.55-1.66 0.26-3.47 2.27-4.12 2.08-0.67 3.79 0.38 4.31 1.89 0.51 1.47-0.07 3.76-1.64 4.32-0.27-0.31-0.45-0.64-0.52-1.02 0.64-0.25 1.4-2 1.02-3.04-0.38-1.05-1.64-1.53-2.85-1.11z"/>
              <path id="path50803" style="fill-rule: evenodd; stroke: rgb(0, 0, 0); stroke-width: 0.068399pt; fill: rgb(224, 181, 36);" d="m235.54 226.82c-1.16 0.08-2.18 1.19-2.13 2.13 0.06 1.03 0.36 1.54 1.6 2.25-0.03 0.45 0 0.81 0.15 1.27-1.58-0.28-2.85-1.65-2.94-3.37-0.09-1.74 1.17-3.27 3.28-3.37 2.18-0.1 3.55 1.36 3.66 2.96 0.11 1.55-1.06 3.6-2.72 3.74-0.18-0.38-0.26-0.74-0.23-1.13 0.68-0.07 1.88-1.56 1.78-2.66-0.09-1.11-1.18-1.92-2.45-1.82z"/>
              <path id="path50804" style="fill-rule: evenodd; stroke: rgb(0, 0, 0); stroke-width: 0.25pt; fill: rgb(224, 181, 36);" d="m294.41 262.73c-4.25 0.13-8.13 4.04-8.09 7.48 0.04 3.75 1.08 5.67 5.49 8.47-0.18 1.62-0.12 2.93 0.36 4.63-5.73-1.25-10.17-6.45-10.23-12.74-0.05-6.38 4.78-11.76 12.5-11.81 7.98-0.05 12.75 5.53 12.91 11.37 0.16 5.67-4.41 13-10.5 13.22-0.62-1.38-0.85-2.73-0.69-4.15 2.49-0.14 7.1-5.41 6.93-9.43-0.17-4.08-4.02-7.18-8.68-7.04z" transform="matrix(.27187 .030699 -.030699 .27187 161.53 143.51)"/>
            </g>
            <g id="g50805" transform="translate(15.99 9.0895)">
              <path id="path50806" style="fill-rule: evenodd; stroke: rgb(0, 0, 0); stroke-width: 0.068399pt; fill: rgb(224, 181, 36);" d="m237.76 229.53c-1.09 0.39-1.78 1.73-1.48 2.62 0.32 0.97 0.75 1.39 2.13 1.75 0.09 0.44 0.21 0.78 0.48 1.18-1.6 0.15-3.19-0.84-3.72-2.47-0.55-1.66 0.26-3.47 2.27-4.12 2.08-0.67 3.79 0.38 4.31 1.89 0.51 1.47-0.07 3.76-1.64 4.32-0.27-0.31-0.45-0.64-0.52-1.02 0.64-0.25 1.4-2 1.02-3.04-0.38-1.05-1.64-1.53-2.85-1.11z"/>
              <path id="path50807" style="fill-rule: evenodd; stroke: rgb(0, 0, 0); stroke-width: 0.068399pt; fill: rgb(224, 181, 36);" d="m235.54 226.82c-1.16 0.08-2.18 1.19-2.13 2.13 0.06 1.03 0.36 1.54 1.6 2.25-0.03 0.45 0 0.81 0.15 1.27-1.58-0.28-2.85-1.65-2.94-3.37-0.09-1.74 1.17-3.27 3.28-3.37 2.18-0.1 3.55 1.36 3.66 2.96 0.11 1.55-1.06 3.6-2.72 3.74-0.18-0.38-0.26-0.74-0.23-1.13 0.68-0.07 1.88-1.56 1.78-2.66-0.09-1.11-1.18-1.92-2.45-1.82z"/>
              <path id="path50808" style="fill-rule: evenodd; stroke: rgb(0, 0, 0); stroke-width: 0.25pt; fill: rgb(224, 181, 36);" d="m294.41 262.73c-4.25 0.13-8.13 4.04-8.09 7.48 0.04 3.75 1.08 5.67 5.49 8.47-0.18 1.62-0.12 2.93 0.36 4.63-5.73-1.25-10.17-6.45-10.23-12.74-0.05-6.38 4.78-11.76 12.5-11.81 7.98-0.05 12.75 5.53 12.91 11.37 0.16 5.67-4.41 13-10.5 13.22-0.62-1.38-0.85-2.73-0.69-4.15 2.49-0.14 7.1-5.41 6.93-9.43-0.17-4.08-4.02-7.18-8.68-7.04z" transform="matrix(.27187 .030699 -.030699 .27187 161.53 143.51)"/>
            </g>
          </g>
          <g id="g50809" transform="matrix(.97975 -.20022 .20022 .97975 -56.077 59.789)">
            <path id="path50810" style="fill-rule: evenodd; stroke: rgb(0, 0, 0); stroke-width: 0.068399pt; fill: rgb(224, 181, 36);" d="m237.76 229.53c-1.09 0.39-1.78 1.73-1.48 2.62 0.32 0.97 0.75 1.39 2.13 1.75 0.09 0.44 0.21 0.78 0.48 1.18-1.6 0.15-3.19-0.84-3.72-2.47-0.55-1.66 0.26-3.47 2.27-4.12 2.08-0.67 3.79 0.38 4.31 1.89 0.51 1.47-0.07 3.76-1.64 4.32-0.27-0.31-0.45-0.64-0.52-1.02 0.64-0.25 1.4-2 1.02-3.04-0.38-1.05-1.64-1.53-2.85-1.11z"/>
            <path id="path50811" style="fill-rule: evenodd; stroke: rgb(0, 0, 0); stroke-width: 0.068399pt; fill: rgb(224, 181, 36);" d="m235.54 226.82c-1.16 0.08-2.18 1.19-2.13 2.13 0.06 1.03 0.36 1.54 1.6 2.25-0.03 0.45 0 0.81 0.15 1.27-1.58-0.28-2.85-1.65-2.94-3.37-0.09-1.74 1.17-3.27 3.28-3.37 2.18-0.1 3.55 1.36 3.66 2.96 0.11 1.55-1.06 3.6-2.72 3.74-0.18-0.38-0.26-0.74-0.23-1.13 0.68-0.07 1.88-1.56 1.78-2.66-0.09-1.11-1.18-1.92-2.45-1.82z"/>
            <path id="path50812" style="fill-rule: evenodd; stroke: rgb(0, 0, 0); stroke-width: 0.25pt; fill: rgb(224, 181, 36);" d="m294.41 262.73c-4.25 0.13-8.13 4.04-8.09 7.48 0.04 3.75 1.08 5.67 5.49 8.47-0.18 1.62-0.12 2.93 0.36 4.63-5.73-1.25-10.17-6.45-10.23-12.74-0.05-6.38 4.78-11.76 12.5-11.81 7.98-0.05 12.75 5.53 12.91 11.37 0.16 5.67-4.41 13-10.5 13.22-0.62-1.38-0.85-2.73-0.69-4.15 2.49-0.14 7.1-5.41 6.93-9.43-0.17-4.08-4.02-7.18-8.68-7.04z" transform="matrix(.27187 .030699 -.030699 .27187 161.53 143.51)"/>
          </g>
          <g id="g50813" transform="translate(-24.049 1.3996)">
            <path id="path50814" style="fill-rule: evenodd; stroke: rgb(0, 0, 0); stroke-width: 0.068399pt; fill: rgb(224, 181, 36);" d="m237.76 229.53c-1.09 0.39-1.78 1.73-1.48 2.62 0.32 0.97 0.75 1.39 2.13 1.75 0.09 0.44 0.21 0.78 0.48 1.18-1.6 0.15-3.19-0.84-3.72-2.47-0.55-1.66 0.26-3.47 2.27-4.12 2.08-0.67 3.79 0.38 4.31 1.89 0.51 1.47-0.07 3.76-1.64 4.32-0.27-0.31-0.45-0.64-0.52-1.02 0.64-0.25 1.4-2 1.02-3.04-0.38-1.05-1.64-1.53-2.85-1.11z"/>
            <path id="path50815" style="fill-rule: evenodd; stroke: rgb(0, 0, 0); stroke-width: 0.068399pt; fill: rgb(224, 181, 36);" d="m235.54 226.82c-1.16 0.08-2.18 1.19-2.13 2.13 0.06 1.03 0.36 1.54 1.6 2.25-0.03 0.45 0 0.81 0.15 1.27-1.58-0.28-2.85-1.65-2.94-3.37-0.09-1.74 1.17-3.27 3.28-3.37 2.18-0.1 3.55 1.36 3.66 2.96 0.11 1.55-1.06 3.6-2.72 3.74-0.18-0.38-0.26-0.74-0.23-1.13 0.68-0.07 1.88-1.56 1.78-2.66-0.09-1.11-1.18-1.92-2.45-1.82z"/>
            <path id="path50816" style="fill-rule: evenodd; stroke: rgb(0, 0, 0); stroke-width: 0.25pt; fill: rgb(224, 181, 36);" d="m294.41 262.73c-4.25 0.13-8.13 4.04-8.09 7.48 0.04 3.75 1.08 5.67 5.49 8.47-0.18 1.62-0.12 2.93 0.36 4.63-5.73-1.25-10.17-6.45-10.23-12.74-0.05-6.38 4.78-11.76 12.5-11.81 7.98-0.05 12.75 5.53 12.91 11.37 0.16 5.67-4.41 13-10.5 13.22-0.62-1.38-0.85-2.73-0.69-4.15 2.49-0.14 7.1-5.41 6.93-9.43-0.17-4.08-4.02-7.18-8.68-7.04z" transform="matrix(.27187 .030699 -.030699 .27187 161.53 143.51)"/>
          </g>
        </g>
      </g>
    </g>
  </g>
  <g transform="matrix(0.058164, -0.059399, 0.061841, 0.117922, 236.397263, 825.241821)">
    <g id="g-1" transform="matrix(0.657853, 0, 0, 1, 198.484909, -61.805916)">
      <g id="g-2" transform="matrix(9.7374 0 0 9.7374 -1412.1 -1860.3)">
        <g id="g-3">
          <g id="g-4" transform="matrix(-.063493 -.68889 .68889 -.063493 71.355 376.37)">
            <path id="path-1" style="fill-rule:evenodd;stroke:#000000;stroke-width:.068399pt;fill:url(#radialGradient50844)" d="m237.76 229.53c-1.09 0.39-1.78 1.73-1.48 2.62 0.32 0.97 0.75 1.39 2.13 1.75 0.09 0.44 0.21 0.78 0.48 1.18-1.6 0.15-3.19-0.84-3.72-2.47-0.55-1.66 0.26-3.47 2.27-4.12 2.08-0.67 3.79 0.38 4.31 1.89 0.51 1.47-0.07 3.76-1.64 4.32-0.27-0.31-0.45-0.64-0.52-1.02 0.64-0.25 1.4-2 1.02-3.04-0.38-1.05-1.64-1.53-2.85-1.11z"/>
            <path id="path-2" style="fill-rule:evenodd;stroke:#000000;stroke-width:.068399pt;fill:url(#radialGradient50845)" d="m235.54 226.82c-1.16 0.08-2.18 1.19-2.13 2.13 0.06 1.03 0.36 1.54 1.6 2.25-0.03 0.45 0 0.81 0.15 1.27-1.58-0.28-2.85-1.65-2.94-3.37-0.09-1.74 1.17-3.27 3.28-3.37 2.18-0.1 3.55 1.36 3.66 2.96 0.11 1.55-1.06 3.6-2.72 3.74-0.18-0.38-0.26-0.74-0.23-1.13 0.68-0.07 1.88-1.56 1.78-2.66-0.09-1.11-1.18-1.92-2.45-1.82z"/>
            <path id="path-3" style="fill-rule:evenodd;stroke:#000000;stroke-width:.25pt;fill:url(#radialGradient50846)" d="m294.41 262.73c-4.25 0.13-8.13 4.04-8.09 7.48 0.04 3.75 1.08 5.67 5.49 8.47-0.18 1.62-0.12 2.93 0.36 4.63-5.73-1.25-10.17-6.45-10.23-12.74-0.05-6.38 4.78-11.76 12.5-11.81 7.98-0.05 12.75 5.53 12.91 11.37 0.16 5.67-4.41 13-10.5 13.22-0.62-1.38-0.85-2.73-0.69-4.15 2.49-0.14 7.1-5.41 6.93-9.43-0.17-4.08-4.02-7.18-8.68-7.04z" transform="matrix(.27187 .030699 -.030699 .27187 161.53 143.51)"/>
          </g>
          <g id="g-5" transform="matrix(.075718 -.68765 .68765 .075718 33.628 349.92)">
            <path id="path-4" style="fill-rule:evenodd;stroke:#000000;stroke-width:.068399pt;fill:url(#radialGradient50844)" d="m237.76 229.53c-1.09 0.39-1.78 1.73-1.48 2.62 0.32 0.97 0.75 1.39 2.13 1.75 0.09 0.44 0.21 0.78 0.48 1.18-1.6 0.15-3.19-0.84-3.72-2.47-0.55-1.66 0.26-3.47 2.27-4.12 2.08-0.67 3.79 0.38 4.31 1.89 0.51 1.47-0.07 3.76-1.64 4.32-0.27-0.31-0.45-0.64-0.52-1.02 0.64-0.25 1.4-2 1.02-3.04-0.38-1.05-1.64-1.53-2.85-1.11z"/>
            <path id="path-5" style="fill-rule:evenodd;stroke:#000000;stroke-width:.068399pt;fill:url(#radialGradient50845)" d="m235.54 226.82c-1.16 0.08-2.18 1.19-2.13 2.13 0.06 1.03 0.36 1.54 1.6 2.25-0.03 0.45 0 0.81 0.15 1.27-1.58-0.28-2.85-1.65-2.94-3.37-0.09-1.74 1.17-3.27 3.28-3.37 2.18-0.1 3.55 1.36 3.66 2.96 0.11 1.55-1.06 3.6-2.72 3.74-0.18-0.38-0.26-0.74-0.23-1.13 0.68-0.07 1.88-1.56 1.78-2.66-0.09-1.11-1.18-1.92-2.45-1.82z"/>
            <path id="path-6" style="fill-rule:evenodd;stroke:#000000;stroke-width:.25pt;fill:url(#radialGradient50846)" d="m294.41 262.73c-4.25 0.13-8.13 4.04-8.09 7.48 0.04 3.75 1.08 5.67 5.49 8.47-0.18 1.62-0.12 2.93 0.36 4.63-5.73-1.25-10.17-6.45-10.23-12.74-0.05-6.38 4.78-11.76 12.5-11.81 7.98-0.05 12.75 5.53 12.91 11.37 0.16 5.67-4.41 13-10.5 13.22-0.62-1.38-0.85-2.73-0.69-4.15 2.49-0.14 7.1-5.41 6.93-9.43-0.17-4.08-4.02-7.18-8.68-7.04z" transform="matrix(.27187 .030699 -.030699 .27187 161.53 143.51)"/>
          </g>
        </g>
        <g id="g-6" transform="matrix(.50725 -.47042 .47042 .50725 -34.965 199.05)">
          <g id="g-7" transform="matrix(.94606 -0.324 0.324 .94606 -84.548 98.129)">
            <g id="g-8" transform="matrix(.97975 -.20022 .20022 .97975 -16.038 67.479)">
              <path id="path-7" style="fill-rule:evenodd;stroke:#000000;stroke-width:.068399pt;fill:url(#radialGradient50844)" d="m237.76 229.53c-1.09 0.39-1.78 1.73-1.48 2.62 0.32 0.97 0.75 1.39 2.13 1.75 0.09 0.44 0.21 0.78 0.48 1.18-1.6 0.15-3.19-0.84-3.72-2.47-0.55-1.66 0.26-3.47 2.27-4.12 2.08-0.67 3.79 0.38 4.31 1.89 0.51 1.47-0.07 3.76-1.64 4.32-0.27-0.31-0.45-0.64-0.52-1.02 0.64-0.25 1.4-2 1.02-3.04-0.38-1.05-1.64-1.53-2.85-1.11z"/>
              <path id="path-8" style="fill-rule:evenodd;stroke:#000000;stroke-width:.068399pt;fill:url(#radialGradient50845)" d="m235.54 226.82c-1.16 0.08-2.18 1.19-2.13 2.13 0.06 1.03 0.36 1.54 1.6 2.25-0.03 0.45 0 0.81 0.15 1.27-1.58-0.28-2.85-1.65-2.94-3.37-0.09-1.74 1.17-3.27 3.28-3.37 2.18-0.1 3.55 1.36 3.66 2.96 0.11 1.55-1.06 3.6-2.72 3.74-0.18-0.38-0.26-0.74-0.23-1.13 0.68-0.07 1.88-1.56 1.78-2.66-0.09-1.11-1.18-1.92-2.45-1.82z"/>
              <path id="path-9" style="fill-rule:evenodd;stroke:#000000;stroke-width:.25pt;fill:url(#radialGradient50846)" d="m294.41 262.73c-4.25 0.13-8.13 4.04-8.09 7.48 0.04 3.75 1.08 5.67 5.49 8.47-0.18 1.62-0.12 2.93 0.36 4.63-5.73-1.25-10.17-6.45-10.23-12.74-0.05-6.38 4.78-11.76 12.5-11.81 7.98-0.05 12.75 5.53 12.91 11.37 0.16 5.67-4.41 13-10.5 13.22-0.62-1.38-0.85-2.73-0.69-4.15 2.49-0.14 7.1-5.41 6.93-9.43-0.17-4.08-4.02-7.18-8.68-7.04z" transform="matrix(.27187 .030699 -.030699 .27187 161.53 143.51)"/>
            </g>
            <g id="g-9" transform="translate(15.99 9.0895)">
              <path id="path-10" style="fill-rule:evenodd;stroke:#000000;stroke-width:.068399pt;fill:url(#radialGradient50844)" d="m237.76 229.53c-1.09 0.39-1.78 1.73-1.48 2.62 0.32 0.97 0.75 1.39 2.13 1.75 0.09 0.44 0.21 0.78 0.48 1.18-1.6 0.15-3.19-0.84-3.72-2.47-0.55-1.66 0.26-3.47 2.27-4.12 2.08-0.67 3.79 0.38 4.31 1.89 0.51 1.47-0.07 3.76-1.64 4.32-0.27-0.31-0.45-0.64-0.52-1.02 0.64-0.25 1.4-2 1.02-3.04-0.38-1.05-1.64-1.53-2.85-1.11z"/>
              <path id="path-11" style="fill-rule:evenodd;stroke:#000000;stroke-width:.068399pt;fill:url(#radialGradient50845)" d="m235.54 226.82c-1.16 0.08-2.18 1.19-2.13 2.13 0.06 1.03 0.36 1.54 1.6 2.25-0.03 0.45 0 0.81 0.15 1.27-1.58-0.28-2.85-1.65-2.94-3.37-0.09-1.74 1.17-3.27 3.28-3.37 2.18-0.1 3.55 1.36 3.66 2.96 0.11 1.55-1.06 3.6-2.72 3.74-0.18-0.38-0.26-0.74-0.23-1.13 0.68-0.07 1.88-1.56 1.78-2.66-0.09-1.11-1.18-1.92-2.45-1.82z"/>
              <path id="path-12" style="fill-rule:evenodd;stroke:#000000;stroke-width:.25pt;fill:url(#radialGradient50846)" d="m294.41 262.73c-4.25 0.13-8.13 4.04-8.09 7.48 0.04 3.75 1.08 5.67 5.49 8.47-0.18 1.62-0.12 2.93 0.36 4.63-5.73-1.25-10.17-6.45-10.23-12.74-0.05-6.38 4.78-11.76 12.5-11.81 7.98-0.05 12.75 5.53 12.91 11.37 0.16 5.67-4.41 13-10.5 13.22-0.62-1.38-0.85-2.73-0.69-4.15 2.49-0.14 7.1-5.41 6.93-9.43-0.17-4.08-4.02-7.18-8.68-7.04z" transform="matrix(.27187 .030699 -.030699 .27187 161.53 143.51)"/>
            </g>
          </g>
          <g id="g-10" transform="matrix(.97975 -.20022 .20022 .97975 -56.077 59.789)">
            <path id="path-13" style="fill-rule:evenodd;stroke:#000000;stroke-width:.068399pt;fill:url(#radialGradient50844)" d="m237.76 229.53c-1.09 0.39-1.78 1.73-1.48 2.62 0.32 0.97 0.75 1.39 2.13 1.75 0.09 0.44 0.21 0.78 0.48 1.18-1.6 0.15-3.19-0.84-3.72-2.47-0.55-1.66 0.26-3.47 2.27-4.12 2.08-0.67 3.79 0.38 4.31 1.89 0.51 1.47-0.07 3.76-1.64 4.32-0.27-0.31-0.45-0.64-0.52-1.02 0.64-0.25 1.4-2 1.02-3.04-0.38-1.05-1.64-1.53-2.85-1.11z"/>
            <path id="path-14" style="fill-rule:evenodd;stroke:#000000;stroke-width:.068399pt;fill:url(#radialGradient50845)" d="m235.54 226.82c-1.16 0.08-2.18 1.19-2.13 2.13 0.06 1.03 0.36 1.54 1.6 2.25-0.03 0.45 0 0.81 0.15 1.27-1.58-0.28-2.85-1.65-2.94-3.37-0.09-1.74 1.17-3.27 3.28-3.37 2.18-0.1 3.55 1.36 3.66 2.96 0.11 1.55-1.06 3.6-2.72 3.74-0.18-0.38-0.26-0.74-0.23-1.13 0.68-0.07 1.88-1.56 1.78-2.66-0.09-1.11-1.18-1.92-2.45-1.82z"/>
            <path id="path-15" style="fill-rule:evenodd;stroke:#000000;stroke-width:.25pt;fill:url(#radialGradient50846)" d="m294.41 262.73c-4.25 0.13-8.13 4.04-8.09 7.48 0.04 3.75 1.08 5.67 5.49 8.47-0.18 1.62-0.12 2.93 0.36 4.63-5.73-1.25-10.17-6.45-10.23-12.74-0.05-6.38 4.78-11.76 12.5-11.81 7.98-0.05 12.75 5.53 12.91 11.37 0.16 5.67-4.41 13-10.5 13.22-0.62-1.38-0.85-2.73-0.69-4.15 2.49-0.14 7.1-5.41 6.93-9.43-0.17-4.08-4.02-7.18-8.68-7.04z" transform="matrix(.27187 .030699 -.030699 .27187 161.53 143.51)"/>
          </g>
          <g id="g-11" transform="translate(-24.049 1.3996)">
            <path id="path-16" style="fill-rule:evenodd;stroke:#000000;stroke-width:.068399pt;fill:url(#radialGradient50844)" d="m237.76 229.53c-1.09 0.39-1.78 1.73-1.48 2.62 0.32 0.97 0.75 1.39 2.13 1.75 0.09 0.44 0.21 0.78 0.48 1.18-1.6 0.15-3.19-0.84-3.72-2.47-0.55-1.66 0.26-3.47 2.27-4.12 2.08-0.67 3.79 0.38 4.31 1.89 0.51 1.47-0.07 3.76-1.64 4.32-0.27-0.31-0.45-0.64-0.52-1.02 0.64-0.25 1.4-2 1.02-3.04-0.38-1.05-1.64-1.53-2.85-1.11z"/>
            <path id="path-17" style="fill-rule:evenodd;stroke:#000000;stroke-width:.068399pt;fill:url(#radialGradient50845)" d="m235.54 226.82c-1.16 0.08-2.18 1.19-2.13 2.13 0.06 1.03 0.36 1.54 1.6 2.25-0.03 0.45 0 0.81 0.15 1.27-1.58-0.28-2.85-1.65-2.94-3.37-0.09-1.74 1.17-3.27 3.28-3.37 2.18-0.1 3.55 1.36 3.66 2.96 0.11 1.55-1.06 3.6-2.72 3.74-0.18-0.38-0.26-0.74-0.23-1.13 0.68-0.07 1.88-1.56 1.78-2.66-0.09-1.11-1.18-1.92-2.45-1.82z"/>
            <path id="path-18" style="fill-rule:evenodd;stroke:#000000;stroke-width:.25pt;fill:url(#radialGradient50846)" d="m294.41 262.73c-4.25 0.13-8.13 4.04-8.09 7.48 0.04 3.75 1.08 5.67 5.49 8.47-0.18 1.62-0.12 2.93 0.36 4.63-5.73-1.25-10.17-6.45-10.23-12.74-0.05-6.38 4.78-11.76 12.5-11.81 7.98-0.05 12.75 5.53 12.91 11.37 0.16 5.67-4.41 13-10.5 13.22-0.62-1.38-0.85-2.73-0.69-4.15 2.49-0.14 7.1-5.41 6.93-9.43-0.17-4.08-4.02-7.18-8.68-7.04z" transform="matrix(.27187 .030699 -.030699 .27187 161.53 143.51)"/>
          </g>
        </g>
        <g id="g-12" transform="matrix(.69162 .016131 -.016131 .69162 10.079 42.059)">
          <g id="g-13" transform="matrix(.94606 -0.324 0.324 .94606 -84.548 98.129)">
            <g id="g-14" transform="matrix(.97975 -.20022 .20022 .97975 -16.038 67.479)">
              <path id="path-19" style="fill-rule:evenodd;stroke:#000000;stroke-width:.068399pt;fill:url(#radialGradient50844)" d="m237.76 229.53c-1.09 0.39-1.78 1.73-1.48 2.62 0.32 0.97 0.75 1.39 2.13 1.75 0.09 0.44 0.21 0.78 0.48 1.18-1.6 0.15-3.19-0.84-3.72-2.47-0.55-1.66 0.26-3.47 2.27-4.12 2.08-0.67 3.79 0.38 4.31 1.89 0.51 1.47-0.07 3.76-1.64 4.32-0.27-0.31-0.45-0.64-0.52-1.02 0.64-0.25 1.4-2 1.02-3.04-0.38-1.05-1.64-1.53-2.85-1.11z"/>
              <path id="path-20" style="fill-rule:evenodd;stroke:#000000;stroke-width:.068399pt;fill:url(#radialGradient50845)" d="m235.54 226.82c-1.16 0.08-2.18 1.19-2.13 2.13 0.06 1.03 0.36 1.54 1.6 2.25-0.03 0.45 0 0.81 0.15 1.27-1.58-0.28-2.85-1.65-2.94-3.37-0.09-1.74 1.17-3.27 3.28-3.37 2.18-0.1 3.55 1.36 3.66 2.96 0.11 1.55-1.06 3.6-2.72 3.74-0.18-0.38-0.26-0.74-0.23-1.13 0.68-0.07 1.88-1.56 1.78-2.66-0.09-1.11-1.18-1.92-2.45-1.82z"/>
              <path id="path-21" style="fill-rule:evenodd;stroke:#000000;stroke-width:.25pt;fill:url(#radialGradient50846)" d="m294.41 262.73c-4.25 0.13-8.13 4.04-8.09 7.48 0.04 3.75 1.08 5.67 5.49 8.47-0.18 1.62-0.12 2.93 0.36 4.63-5.73-1.25-10.17-6.45-10.23-12.74-0.05-6.38 4.78-11.76 12.5-11.81 7.98-0.05 12.75 5.53 12.91 11.37 0.16 5.67-4.41 13-10.5 13.22-0.62-1.38-0.85-2.73-0.69-4.15 2.49-0.14 7.1-5.41 6.93-9.43-0.17-4.08-4.02-7.18-8.68-7.04z" transform="matrix(.27187 .030699 -.030699 .27187 161.53 143.51)"/>
            </g>
            <g id="g-15" transform="translate(15.99 9.0895)">
              <path id="path-22" style="fill-rule:evenodd;stroke:#000000;stroke-width:.068399pt;fill:url(#radialGradient50844)" d="m237.76 229.53c-1.09 0.39-1.78 1.73-1.48 2.62 0.32 0.97 0.75 1.39 2.13 1.75 0.09 0.44 0.21 0.78 0.48 1.18-1.6 0.15-3.19-0.84-3.72-2.47-0.55-1.66 0.26-3.47 2.27-4.12 2.08-0.67 3.79 0.38 4.31 1.89 0.51 1.47-0.07 3.76-1.64 4.32-0.27-0.31-0.45-0.64-0.52-1.02 0.64-0.25 1.4-2 1.02-3.04-0.38-1.05-1.64-1.53-2.85-1.11z"/>
              <path id="path-23" style="fill-rule:evenodd;stroke:#000000;stroke-width:.068399pt;fill:url(#radialGradient50845)" d="m235.54 226.82c-1.16 0.08-2.18 1.19-2.13 2.13 0.06 1.03 0.36 1.54 1.6 2.25-0.03 0.45 0 0.81 0.15 1.27-1.58-0.28-2.85-1.65-2.94-3.37-0.09-1.74 1.17-3.27 3.28-3.37 2.18-0.1 3.55 1.36 3.66 2.96 0.11 1.55-1.06 3.6-2.72 3.74-0.18-0.38-0.26-0.74-0.23-1.13 0.68-0.07 1.88-1.56 1.78-2.66-0.09-1.11-1.18-1.92-2.45-1.82z"/>
              <path id="path-24" style="fill-rule:evenodd;stroke:#000000;stroke-width:.25pt;fill:url(#radialGradient50846)" d="m294.41 262.73c-4.25 0.13-8.13 4.04-8.09 7.48 0.04 3.75 1.08 5.67 5.49 8.47-0.18 1.62-0.12 2.93 0.36 4.63-5.73-1.25-10.17-6.45-10.23-12.74-0.05-6.38 4.78-11.76 12.5-11.81 7.98-0.05 12.75 5.53 12.91 11.37 0.16 5.67-4.41 13-10.5 13.22-0.62-1.38-0.85-2.73-0.69-4.15 2.49-0.14 7.1-5.41 6.93-9.43-0.17-4.08-4.02-7.18-8.68-7.04z" transform="matrix(.27187 .030699 -.030699 .27187 161.53 143.51)"/>
            </g>
          </g>
          <g id="g-16" transform="matrix(.97975 -.20022 .20022 .97975 -56.077 59.789)">
            <path id="path-25" style="fill-rule:evenodd;stroke:#000000;stroke-width:.068399pt;fill:url(#radialGradient50844)" d="m237.76 229.53c-1.09 0.39-1.78 1.73-1.48 2.62 0.32 0.97 0.75 1.39 2.13 1.75 0.09 0.44 0.21 0.78 0.48 1.18-1.6 0.15-3.19-0.84-3.72-2.47-0.55-1.66 0.26-3.47 2.27-4.12 2.08-0.67 3.79 0.38 4.31 1.89 0.51 1.47-0.07 3.76-1.64 4.32-0.27-0.31-0.45-0.64-0.52-1.02 0.64-0.25 1.4-2 1.02-3.04-0.38-1.05-1.64-1.53-2.85-1.11z"/>
            <path id="path-26" style="fill-rule:evenodd;stroke:#000000;stroke-width:.068399pt;fill:url(#radialGradient50845)" d="m235.54 226.82c-1.16 0.08-2.18 1.19-2.13 2.13 0.06 1.03 0.36 1.54 1.6 2.25-0.03 0.45 0 0.81 0.15 1.27-1.58-0.28-2.85-1.65-2.94-3.37-0.09-1.74 1.17-3.27 3.28-3.37 2.18-0.1 3.55 1.36 3.66 2.96 0.11 1.55-1.06 3.6-2.72 3.74-0.18-0.38-0.26-0.74-0.23-1.13 0.68-0.07 1.88-1.56 1.78-2.66-0.09-1.11-1.18-1.92-2.45-1.82z"/>
            <path id="path-27" style="fill-rule:evenodd;stroke:#000000;stroke-width:.25pt;fill:url(#radialGradient50846)" d="m294.41 262.73c-4.25 0.13-8.13 4.04-8.09 7.48 0.04 3.75 1.08 5.67 5.49 8.47-0.18 1.62-0.12 2.93 0.36 4.63-5.73-1.25-10.17-6.45-10.23-12.74-0.05-6.38 4.78-11.76 12.5-11.81 7.98-0.05 12.75 5.53 12.91 11.37 0.16 5.67-4.41 13-10.5 13.22-0.62-1.38-0.85-2.73-0.69-4.15 2.49-0.14 7.1-5.41 6.93-9.43-0.17-4.08-4.02-7.18-8.68-7.04z" transform="matrix(.27187 .030699 -.030699 .27187 161.53 143.51)"/>
          </g>
          <g id="g-17" transform="translate(-24.049 1.3996)">
            <path id="path-28" style="fill-rule:evenodd;stroke:#000000;stroke-width:.068399pt;fill:url(#radialGradient50844)" d="m237.76 229.53c-1.09 0.39-1.78 1.73-1.48 2.62 0.32 0.97 0.75 1.39 2.13 1.75 0.09 0.44 0.21 0.78 0.48 1.18-1.6 0.15-3.19-0.84-3.72-2.47-0.55-1.66 0.26-3.47 2.27-4.12 2.08-0.67 3.79 0.38 4.31 1.89 0.51 1.47-0.07 3.76-1.64 4.32-0.27-0.31-0.45-0.64-0.52-1.02 0.64-0.25 1.4-2 1.02-3.04-0.38-1.05-1.64-1.53-2.85-1.11z"/>
            <path id="path-29" style="fill-rule:evenodd;stroke:#000000;stroke-width:.068399pt;fill:url(#radialGradient50845)" d="M 237.707 226.705 C 236.547 226.785 235.527 227.895 235.577 228.835 C 235.637 229.865 235.937 230.375 237.177 231.085 C 237.147 231.535 238.321 232.382 238.471 232.842 C 236.891 232.562 234.477 230.705 234.387 228.985 C 234.297 227.245 235.557 225.715 237.667 225.615 C 239.847 225.515 241.217 226.975 241.327 228.575 C 241.437 230.125 240.907 232.428 239.247 232.568 C 239.067 232.188 238.347 231.575 238.377 231.185 C 239.057 231.115 240.257 229.625 240.157 228.525 C 240.067 227.415 238.977 226.605 237.707 226.705 Z" transform="matrix(1.030843, 0.152579, -0.939688, 0.830993, 207.835839, 2.407548)"/>
            <path id="path-30" style="fill-rule:evenodd;stroke:#000000;stroke-width:.25pt;fill:url(#radialGradient50846)" d="M 236.619 223.876 C 235.527 223.913 235.169 225.029 235.761 226.01 C 236.404 227.081 237.001 227.629 238.631 228.428 C 238.857 228.89 239.094 229.264 239.507 229.749 C 237.793 229.393 235.751 227.908 234.673 226.113 C 233.582 224.292 234.143 222.113 235.948 223.012 C 237.281 223.676 238.44 224.747 241.05 226.684 C 242.577 227.817 242.301 229.698 240.741 229.761 C 240.346 229.367 240.057 228.982 239.859 228.576 C 240.489 228.536 239.85 226.675 239.127 225.528 C 238.393 224.363 237.818 223.836 236.619 223.876 Z" transform="matrix(0.958584, 0.255433, -1.573135, 0.624013, 365.7818, 24.269617)"/>
          </g>
        </g>
      </g>
    </g>
    <g id="g-18" transform="matrix(0.861851, 0, 0, 0.739179, -17.422827, 186.701797)">
      <g id="g-19" transform="matrix(9.7374 0 0 9.7374 -1412.1 -1860.3)">
        <g id="g-20" transform="matrix(1, -0.181454, 0, 1, 0, 38.362846)">
          <g id="g-21" transform="matrix(-0.47647, -0.510043, 0.725761, -0.066891, 159.277374, 335.927185)">
            <path id="path-31" style="fill-rule: evenodd; stroke: rgb(0, 0, 0); stroke-width: 0.068399pt; fill: url(#gradient-1);" d="M 236.996 230.549 C 236.208 230.868 236.368 231.863 236.585 232.59 C 236.816 233.383 236.468 233.825 237.466 234.119 C 237.531 234.478 237.618 234.756 237.813 235.083 C 236.656 235.205 235.973 234.369 235.409 233.103 C 234.467 230.987 235.311 230.231 236.765 229.7 C 238.268 229.153 237.158 231.391 237.935 232.421 C 238.761 233.516 239.83 234.315 238.695 234.772 C 238.5 234.519 238.37 234.25 238.319 233.939 C 238.782 233.735 237.299 233.346 237.024 232.496 C 236.75 231.638 237.871 230.206 236.996 230.549 Z" transform="matrix(1, 0, 0, 1, -0.000018, 0.000009)"/>
            <path id="path-32" style="fill-rule: evenodd; stroke: rgb(0, 0, 0); stroke-width: 0.068399pt; fill: url(#gradient-2);" d="m235.54 226.82c-1.16 0.08-2.18 1.19-2.13 2.13 0.06 1.03 0.36 1.54 1.6 2.25-0.03 0.45 0 0.81 0.15 1.27-1.58-0.28-2.85-1.65-2.94-3.37-0.09-1.74 1.17-3.27 3.28-3.37 2.18-0.1 3.55 1.36 3.66 2.96 0.11 1.55-1.06 3.6-2.72 3.74-0.18-0.38-0.26-0.74-0.23-1.13 0.68-0.07 1.88-1.56 1.78-2.66-0.09-1.11-1.18-1.92-2.45-1.82z"/>
            <path id="path-33" style="fill-rule: evenodd; stroke: rgb(0, 0, 0); stroke-width: 0.25pt; fill: url(#gradient-3);" d="m294.41 262.73c-4.25 0.13-8.13 4.04-8.09 7.48 0.04 3.75 1.08 5.67 5.49 8.47-0.18 1.62-0.12 2.93 0.36 4.63-5.73-1.25-10.17-6.45-10.23-12.74-0.05-6.38 4.78-11.76 12.5-11.81 7.98-0.05 12.75 5.53 12.91 11.37 0.16 5.67-4.41 13-10.5 13.22-0.62-1.38-0.85-2.73-0.69-4.15 2.49-0.14 7.1-5.41 6.93-9.43-0.17-4.08-4.02-7.18-8.68-7.04z" transform="matrix(.27187 .030699 -.030699 .27187 161.53 143.51)"/>
            <path id="path-55" style="fill-rule: evenodd; stroke: rgb(0, 0, 0); stroke-width: 0.068399pt; fill: url(#gradient-4);" d="M 240.244 233.687 C 239.355 233.741 238.611 234.499 238.684 235.14 C 238.769 235.843 238.944 235.587 239.252 236.019 C 238.754 236.989 238.887 236.974 239.069 237.31 C 237.845 237.119 237.91 236.416 237.775 235.242 C 237.747 234.989 237.766 234.743 237.829 234.51 C 238.064 233.655 238.898 232.997 240.172 232.943 C 241.844 232.876 242.396 232.307 241.929 232.859 C 241.2 233.72 240.38 235.161 240.905 234.032 C 239.506 233.106 240.795 234.129 240.803 233.863 C 241.325 233.815 240.985 234.136 240.587 233.847 C 239.906 233.354 241.216 233.619 240.244 233.687 Z" transform="matrix(0.314807, -0.660475, 1.20923, 0.639545, -119.69135, 243.147142)"/>
          </g>
          <g id="g-22" transform="matrix(.075718 -.68765 .68765 .075718 33.628 349.92)">
            <path id="path-34" style="fill-rule: evenodd; stroke: rgb(0, 0, 0); stroke-width: 0.068399pt; fill: url(#gradient-1);" d="m237.76 229.53c-1.09 0.39-1.78 1.73-1.48 2.62 0.32 0.97 0.75 1.39 2.13 1.75 0.09 0.44 0.21 0.78 0.48 1.18-1.6 0.15-3.19-0.84-3.72-2.47-0.55-1.66 0.26-3.47 2.27-4.12 2.08-0.67 3.79 0.38 4.31 1.89 0.51 1.47-0.07 3.76-1.64 4.32-0.27-0.31-0.45-0.64-0.52-1.02 0.64-0.25 1.4-2 1.02-3.04-0.38-1.05-1.64-1.53-2.85-1.11z"/>
            <path id="path-35" style="fill-rule: evenodd; stroke: rgb(0, 0, 0); stroke-width: 0.068399pt; fill: url(#gradient-2);" d="m235.54 226.82c-1.16 0.08-2.18 1.19-2.13 2.13 0.06 1.03 0.36 1.54 1.6 2.25-0.03 0.45 0 0.81 0.15 1.27-1.58-0.28-2.85-1.65-2.94-3.37-0.09-1.74 1.17-3.27 3.28-3.37 2.18-0.1 3.55 1.36 3.66 2.96 0.11 1.55-1.06 3.6-2.72 3.74-0.18-0.38-0.26-0.74-0.23-1.13 0.68-0.07 1.88-1.56 1.78-2.66-0.09-1.11-1.18-1.92-2.45-1.82z"/>
            <path id="path-36" style="fill-rule: evenodd; stroke: rgb(0, 0, 0); stroke-width: 0.25pt; fill: url(#gradient-3);" d="m294.41 262.73c-4.25 0.13-8.13 4.04-8.09 7.48 0.04 3.75 1.08 5.67 5.49 8.47-0.18 1.62-0.12 2.93 0.36 4.63-5.73-1.25-10.17-6.45-10.23-12.74-0.05-6.38 4.78-11.76 12.5-11.81 7.98-0.05 12.75 5.53 12.91 11.37 0.16 5.67-4.41 13-10.5 13.22-0.62-1.38-0.85-2.73-0.69-4.15 2.49-0.14 7.1-5.41 6.93-9.43-0.17-4.08-4.02-7.18-8.68-7.04z" transform="matrix(.27187 .030699 -.030699 .27187 161.53 143.51)"/>
          </g>
        </g>
        <g id="g-23" transform="matrix(.50725 -.47042 .47042 .50725 -34.965 199.05)">
          <g id="g-24" transform="matrix(.94606 -0.324 0.324 .94606 -84.548 98.129)">
            <g id="g-25" transform="matrix(.97975 -.20022 .20022 .97975 -16.038 67.479)">
              <path id="path-37" style="fill-rule: evenodd; stroke: rgb(0, 0, 0); stroke-width: 0.068399pt; fill: url(#gradient-1);" d="m237.76 229.53c-1.09 0.39-1.78 1.73-1.48 2.62 0.32 0.97 0.75 1.39 2.13 1.75 0.09 0.44 0.21 0.78 0.48 1.18-1.6 0.15-3.19-0.84-3.72-2.47-0.55-1.66 0.26-3.47 2.27-4.12 2.08-0.67 3.79 0.38 4.31 1.89 0.51 1.47-0.07 3.76-1.64 4.32-0.27-0.31-0.45-0.64-0.52-1.02 0.64-0.25 1.4-2 1.02-3.04-0.38-1.05-1.64-1.53-2.85-1.11z"/>
              <path id="path-38" style="fill-rule: evenodd; stroke: rgb(0, 0, 0); stroke-width: 0.068399pt; fill: url(#gradient-2);" d="m235.54 226.82c-1.16 0.08-2.18 1.19-2.13 2.13 0.06 1.03 0.36 1.54 1.6 2.25-0.03 0.45 0 0.81 0.15 1.27-1.58-0.28-2.85-1.65-2.94-3.37-0.09-1.74 1.17-3.27 3.28-3.37 2.18-0.1 3.55 1.36 3.66 2.96 0.11 1.55-1.06 3.6-2.72 3.74-0.18-0.38-0.26-0.74-0.23-1.13 0.68-0.07 1.88-1.56 1.78-2.66-0.09-1.11-1.18-1.92-2.45-1.82z"/>
              <path id="path-39" style="fill-rule: evenodd; stroke: rgb(0, 0, 0); stroke-width: 0.25pt; fill: url(#gradient-3);" d="m294.41 262.73c-4.25 0.13-8.13 4.04-8.09 7.48 0.04 3.75 1.08 5.67 5.49 8.47-0.18 1.62-0.12 2.93 0.36 4.63-5.73-1.25-10.17-6.45-10.23-12.74-0.05-6.38 4.78-11.76 12.5-11.81 7.98-0.05 12.75 5.53 12.91 11.37 0.16 5.67-4.41 13-10.5 13.22-0.62-1.38-0.85-2.73-0.69-4.15 2.49-0.14 7.1-5.41 6.93-9.43-0.17-4.08-4.02-7.18-8.68-7.04z" transform="matrix(.27187 .030699 -.030699 .27187 161.53 143.51)"/>
            </g>
            <g id="g-26" transform="translate(15.99 9.0895)">
              <path id="path-40" style="fill-rule: evenodd; stroke: rgb(0, 0, 0); stroke-width: 0.068399pt; fill: url(#gradient-1);" d="m237.76 229.53c-1.09 0.39-1.78 1.73-1.48 2.62 0.32 0.97 0.75 1.39 2.13 1.75 0.09 0.44 0.21 0.78 0.48 1.18-1.6 0.15-3.19-0.84-3.72-2.47-0.55-1.66 0.26-3.47 2.27-4.12 2.08-0.67 3.79 0.38 4.31 1.89 0.51 1.47-0.07 3.76-1.64 4.32-0.27-0.31-0.45-0.64-0.52-1.02 0.64-0.25 1.4-2 1.02-3.04-0.38-1.05-1.64-1.53-2.85-1.11z"/>
              <path id="path-41" style="fill-rule: evenodd; stroke: rgb(0, 0, 0); stroke-width: 0.068399pt; fill: url(#gradient-2);" d="m235.54 226.82c-1.16 0.08-2.18 1.19-2.13 2.13 0.06 1.03 0.36 1.54 1.6 2.25-0.03 0.45 0 0.81 0.15 1.27-1.58-0.28-2.85-1.65-2.94-3.37-0.09-1.74 1.17-3.27 3.28-3.37 2.18-0.1 3.55 1.36 3.66 2.96 0.11 1.55-1.06 3.6-2.72 3.74-0.18-0.38-0.26-0.74-0.23-1.13 0.68-0.07 1.88-1.56 1.78-2.66-0.09-1.11-1.18-1.92-2.45-1.82z"/>
              <path id="path-42" style="fill-rule: evenodd; stroke: rgb(0, 0, 0); stroke-width: 0.25pt; fill: url(#gradient-3);" d="m294.41 262.73c-4.25 0.13-8.13 4.04-8.09 7.48 0.04 3.75 1.08 5.67 5.49 8.47-0.18 1.62-0.12 2.93 0.36 4.63-5.73-1.25-10.17-6.45-10.23-12.74-0.05-6.38 4.78-11.76 12.5-11.81 7.98-0.05 12.75 5.53 12.91 11.37 0.16 5.67-4.41 13-10.5 13.22-0.62-1.38-0.85-2.73-0.69-4.15 2.49-0.14 7.1-5.41 6.93-9.43-0.17-4.08-4.02-7.18-8.68-7.04z" transform="matrix(.27187 .030699 -.030699 .27187 161.53 143.51)"/>
            </g>
          </g>
          <g id="g-27" transform="matrix(.97975 -.20022 .20022 .97975 -56.077 59.789)">
            <path id="path-43" style="fill-rule: evenodd; stroke: rgb(0, 0, 0); stroke-width: 0.068399pt; fill: url(#gradient-1);" d="m237.76 229.53c-1.09 0.39-1.78 1.73-1.48 2.62 0.32 0.97 0.75 1.39 2.13 1.75 0.09 0.44 0.21 0.78 0.48 1.18-1.6 0.15-3.19-0.84-3.72-2.47-0.55-1.66 0.26-3.47 2.27-4.12 2.08-0.67 3.79 0.38 4.31 1.89 0.51 1.47-0.07 3.76-1.64 4.32-0.27-0.31-0.45-0.64-0.52-1.02 0.64-0.25 1.4-2 1.02-3.04-0.38-1.05-1.64-1.53-2.85-1.11z"/>
            <path id="path-44" style="fill-rule: evenodd; stroke: rgb(0, 0, 0); stroke-width: 0.068399pt; fill: url(#gradient-2);" d="m235.54 226.82c-1.16 0.08-2.18 1.19-2.13 2.13 0.06 1.03 0.36 1.54 1.6 2.25-0.03 0.45 0 0.81 0.15 1.27-1.58-0.28-2.85-1.65-2.94-3.37-0.09-1.74 1.17-3.27 3.28-3.37 2.18-0.1 3.55 1.36 3.66 2.96 0.11 1.55-1.06 3.6-2.72 3.74-0.18-0.38-0.26-0.74-0.23-1.13 0.68-0.07 1.88-1.56 1.78-2.66-0.09-1.11-1.18-1.92-2.45-1.82z"/>
            <path id="path-45" style="fill-rule: evenodd; stroke: rgb(0, 0, 0); stroke-width: 0.25pt; fill: url(#gradient-3);" d="m294.41 262.73c-4.25 0.13-8.13 4.04-8.09 7.48 0.04 3.75 1.08 5.67 5.49 8.47-0.18 1.62-0.12 2.93 0.36 4.63-5.73-1.25-10.17-6.45-10.23-12.74-0.05-6.38 4.78-11.76 12.5-11.81 7.98-0.05 12.75 5.53 12.91 11.37 0.16 5.67-4.41 13-10.5 13.22-0.62-1.38-0.85-2.73-0.69-4.15 2.49-0.14 7.1-5.41 6.93-9.43-0.17-4.08-4.02-7.18-8.68-7.04z" transform="matrix(.27187 .030699 -.030699 .27187 161.53 143.51)"/>
          </g>
          <g id="g-28" transform="translate(-24.049 1.3996)">
            <path id="path-46" style="fill-rule: evenodd; stroke: rgb(0, 0, 0); stroke-width: 0.068399pt; fill: url(#gradient-1);" d="m237.76 229.53c-1.09 0.39-1.78 1.73-1.48 2.62 0.32 0.97 0.75 1.39 2.13 1.75 0.09 0.44 0.21 0.78 0.48 1.18-1.6 0.15-3.19-0.84-3.72-2.47-0.55-1.66 0.26-3.47 2.27-4.12 2.08-0.67 3.79 0.38 4.31 1.89 0.51 1.47-0.07 3.76-1.64 4.32-0.27-0.31-0.45-0.64-0.52-1.02 0.64-0.25 1.4-2 1.02-3.04-0.38-1.05-1.64-1.53-2.85-1.11z"/>
            <path id="path-47" style="fill-rule: evenodd; stroke: rgb(0, 0, 0); stroke-width: 0.068399pt; fill: url(#gradient-2);" d="m235.54 226.82c-1.16 0.08-2.18 1.19-2.13 2.13 0.06 1.03 0.36 1.54 1.6 2.25-0.03 0.45 0 0.81 0.15 1.27-1.58-0.28-2.85-1.65-2.94-3.37-0.09-1.74 1.17-3.27 3.28-3.37 2.18-0.1 3.55 1.36 3.66 2.96 0.11 1.55-1.06 3.6-2.72 3.74-0.18-0.38-0.26-0.74-0.23-1.13 0.68-0.07 1.88-1.56 1.78-2.66-0.09-1.11-1.18-1.92-2.45-1.82z"/>
            <path id="path-48" style="fill-rule: evenodd; stroke: rgb(0, 0, 0); stroke-width: 0.25pt; fill: url(#gradient-3);" d="m294.41 262.73c-4.25 0.13-8.13 4.04-8.09 7.48 0.04 3.75 1.08 5.67 5.49 8.47-0.18 1.62-0.12 2.93 0.36 4.63-5.73-1.25-10.17-6.45-10.23-12.74-0.05-6.38 4.78-11.76 12.5-11.81 7.98-0.05 12.75 5.53 12.91 11.37 0.16 5.67-4.41 13-10.5 13.22-0.62-1.38-0.85-2.73-0.69-4.15 2.49-0.14 7.1-5.41 6.93-9.43-0.17-4.08-4.02-7.18-8.68-7.04z" transform="matrix(.27187 .030699 -.030699 .27187 161.53 143.51)"/>
          </g>
        </g>
        <g id="g-29" transform="matrix(.69162 .016131 -.016131 .69162 10.079 42.059)">
          <g id="g-30" transform="matrix(.94606 -0.324 0.324 .94606 -84.548 98.129)">
            <g id="g-31" transform="matrix(.97975 -.20022 .20022 .97975 -16.038 67.479)">
              <path id="path-49" style="fill-rule: evenodd; stroke: rgb(0, 0, 0); stroke-width: 0.068399pt; fill: url(#gradient-1);" d="m237.76 229.53c-1.09 0.39-1.78 1.73-1.48 2.62 0.32 0.97 0.75 1.39 2.13 1.75 0.09 0.44 0.21 0.78 0.48 1.18-1.6 0.15-3.19-0.84-3.72-2.47-0.55-1.66 0.26-3.47 2.27-4.12 2.08-0.67 3.79 0.38 4.31 1.89 0.51 1.47-0.07 3.76-1.64 4.32-0.27-0.31-0.45-0.64-0.52-1.02 0.64-0.25 1.4-2 1.02-3.04-0.38-1.05-1.64-1.53-2.85-1.11z"/>
              <path id="path-50" style="fill-rule: evenodd; stroke: rgb(0, 0, 0); stroke-width: 0.068399pt; fill: url(#gradient-2);" d="m235.54 226.82c-1.16 0.08-2.18 1.19-2.13 2.13 0.06 1.03 0.36 1.54 1.6 2.25-0.03 0.45 0 0.81 0.15 1.27-1.58-0.28-2.85-1.65-2.94-3.37-0.09-1.74 1.17-3.27 3.28-3.37 2.18-0.1 3.55 1.36 3.66 2.96 0.11 1.55-1.06 3.6-2.72 3.74-0.18-0.38-0.26-0.74-0.23-1.13 0.68-0.07 1.88-1.56 1.78-2.66-0.09-1.11-1.18-1.92-2.45-1.82z"/>
              <path id="path-51" style="fill-rule: evenodd; stroke: rgb(0, 0, 0); stroke-width: 0.25pt; fill: url(#gradient-3);" d="m294.41 262.73c-4.25 0.13-8.13 4.04-8.09 7.48 0.04 3.75 1.08 5.67 5.49 8.47-0.18 1.62-0.12 2.93 0.36 4.63-5.73-1.25-10.17-6.45-10.23-12.74-0.05-6.38 4.78-11.76 12.5-11.81 7.98-0.05 12.75 5.53 12.91 11.37 0.16 5.67-4.41 13-10.5 13.22-0.62-1.38-0.85-2.73-0.69-4.15 2.49-0.14 7.1-5.41 6.93-9.43-0.17-4.08-4.02-7.18-8.68-7.04z" transform="matrix(.27187 .030699 -.030699 .27187 161.53 143.51)"/>
            </g>
            <g id="g-32" transform="translate(15.99 9.0895)">
              <path id="path-52" style="fill-rule: evenodd; stroke: rgb(0, 0, 0); stroke-width: 0.068399pt; fill: url(#gradient-1);" d="m237.76 229.53c-1.09 0.39-1.78 1.73-1.48 2.62 0.32 0.97 0.75 1.39 2.13 1.75 0.09 0.44 0.21 0.78 0.48 1.18-1.6 0.15-3.19-0.84-3.72-2.47-0.55-1.66 0.26-3.47 2.27-4.12 2.08-0.67 3.79 0.38 4.31 1.89 0.51 1.47-0.07 3.76-1.64 4.32-0.27-0.31-0.45-0.64-0.52-1.02 0.64-0.25 1.4-2 1.02-3.04-0.38-1.05-1.64-1.53-2.85-1.11z"/>
              <path id="path-53" style="fill-rule: evenodd; stroke: rgb(0, 0, 0); stroke-width: 0.068399pt; fill: url(#gradient-2);" d="m235.54 226.82c-1.16 0.08-2.18 1.19-2.13 2.13 0.06 1.03 0.36 1.54 1.6 2.25-0.03 0.45 0 0.81 0.15 1.27-1.58-0.28-2.85-1.65-2.94-3.37-0.09-1.74 1.17-3.27 3.28-3.37 2.18-0.1 3.55 1.36 3.66 2.96 0.11 1.55-1.06 3.6-2.72 3.74-0.18-0.38-0.26-0.74-0.23-1.13 0.68-0.07 1.88-1.56 1.78-2.66-0.09-1.11-1.18-1.92-2.45-1.82z"/>
              <path id="path-54" style="fill-rule: evenodd; stroke: rgb(0, 0, 0); stroke-width: 0.25pt; fill: url(#gradient-3);" d="m294.41 262.73c-4.25 0.13-8.13 4.04-8.09 7.48 0.04 3.75 1.08 5.67 5.49 8.47-0.18 1.62-0.12 2.93 0.36 4.63-5.73-1.25-10.17-6.45-10.23-12.74-0.05-6.38 4.78-11.76 12.5-11.81 7.98-0.05 12.75 5.53 12.91 11.37 0.16 5.67-4.41 13-10.5 13.22-0.62-1.38-0.85-2.73-0.69-4.15 2.49-0.14 7.1-5.41 6.93-9.43-0.17-4.08-4.02-7.18-8.68-7.04z" transform="matrix(.27187 .030699 -.030699 .27187 161.53 143.51)"/>
            </g>
          </g>
        </g>
      </g>
    </g>
  </g>
</svg>