<?xml version="1.0" encoding="utf-8"?>
<svg class="glasses" width="86" height="380" viewBox="202.715 584.407 86.5933 380.048" preserveAspectRatio="xMidYMax" xmlns="http://www.w3.org/2000/svg">
  <defs id="svgEditorDefs">
    <path id="svgEditorClosePathDefs" class="skin" fill="black" style="stroke-width: 0px; stroke: none;"/>
    <filter id="filter4321" width="1.5346" y="-.16850" x="-.26728" height="1.337" color-interpolation-filters="sRGB">
      <feGaussianBlur id="feGaussianBlur4323" stdDeviation="39.149452"/>
    </filter>
    <radialGradient id="radialGradient4275" gradientUnits="userSpaceOnUse" cy="1159.5" cx="-1676.9" gradientTransform="matrix(-1.4855 -.60349 .48257 -1.1879 -4727.4 1510.7)" r="261.12">
      <stop id="stop4269" style="stop-color:#ff9900" offset="0"/>
      <stop id="stop4271" style="stop-color:#b50000" offset="1"/>
    </radialGradient>
    <filter id="filter3935" width="1.2062" y="-.14434" x="-.10310" height="1.2887" color-interpolation-filters="sRGB">
      <feGaussianBlur id="feGaussianBlur3937" stdDeviation="6.0754153"/>
    </filter>
    <filter id="filter3939" width="1.1678" y="-.12443" x="-.083921" height="1.2489" color-interpolation-filters="sRGB">
      <feGaussianBlur id="feGaussianBlur3941" stdDeviation="6.0754153"/>
    </filter>
    <filter id="filter3943" width="1.2123" y="-.11277" x="-.10614" height="1.2255" color-interpolation-filters="sRGB">
      <feGaussianBlur id="feGaussianBlur3945" stdDeviation="6.0754153"/>
    </filter>
    <filter id="filter3947" width="1.1899" y="-.10935" x="-.094963" height="1.2187" color-interpolation-filters="sRGB">
      <feGaussianBlur id="feGaussianBlur3949" stdDeviation="6.0754153"/>
    </filter>
    <filter id="filter3975" width="1.4012" y="-.097717" x="-.20058" height="1.1954" color-interpolation-filters="sRGB">
      <feGaussianBlur id="feGaussianBlur3977" stdDeviation="12.832155"/>
    </filter>
    <filter id="filter3971" width="1.3176" y="-.077359" x="-.15879" height="1.1547" color-interpolation-filters="sRGB">
      <feGaussianBlur id="feGaussianBlur3973" stdDeviation="10.158789"/>
    </filter>
    <filter id="filter3967" width="1.6352" y="-.15472" x="-.31758" height="1.3094" color-interpolation-filters="sRGB">
      <feGaussianBlur id="feGaussianBlur3969" stdDeviation="20.317578"/>
    </filter>
    <filter id="filter3963" width="1.7187" y="-.17508" x="-.35937" height="1.3502" color-interpolation-filters="sRGB">
      <feGaussianBlur id="feGaussianBlur3965" stdDeviation="22.990944"/>
    </filter>
  </defs>
  <rect id="svgEditorBackground" x="202.71499633789062" y="584.4310302734375" width="86.59329986572266" height="115.80899810791016" style="fill: none; stroke: none;"/>
  <rect id="rect-1" x="-403.988" y="499.579" width="1300" height="550" style="fill: none; stroke: none;"/>
  <rect id="rect-2" x="203.411" y="583.672" width="86.593" height="115.809" style="fill: none; stroke: none;"/>
  <rect id="rect-3" x="-403.292" y="498.82" width="1300" height="550" style="fill: none; stroke: none;"/>
  <g transform="matrix(3.669327, -1.870905, 1.870905, 3.669327, 428.184845, 804.817261)">
    <g id="g10" transform="matrix(1.25, 0, 0, -1.25, 0, 15.201)">
      <g id="g12" transform="matrix(0.714357, -0.067364, 0.040728, 0.431894, -35.071312, 34.594109)">
        <path id="path16" style="fill-rule:evenodd;fill:#7c6e3f" d="m2.84 3.282c0.187-0.133 0.465-0.27 0.84-0.402-0.055-0.133-0.078-0.465-0.078-1l-0.043-0.438c-0.332 0.148-0.653 0.309-0.957 0.481-0.137 0.347-0.122 0.691 0.039 1.039l0.199 0.32z"/>
        <path id="path20" style="fill-rule:evenodd;fill:#7c6e3f" d="m15.641 1.801 0.961 0.2v-0.442c-0.403-0.16-0.817-0.277-1.243-0.359-0.879-0.238-1.8-0.399-2.757-0.481l-0.043 0.762c1.253 0.055 2.281 0.16 3.082 0.32z"/>
        <path id="path22" style="fill-rule:evenodd;fill:#7c6e3f" d="m5.719 10.083c0.453 0.156 0.773 0.156 0.961 0l0.039-0.243c-1.438-0.375-2.586-0.917-3.438-1.64 0.078 0.187 0.117 0.293 0.117 0.32 0.082 0.106 0.215 0.227 0.403 0.36 0.238 0.16 0.398 0.281 0.48 0.359 0.371 0.402 0.852 0.684 1.438 0.844z"/>
        <path id="path24" style="fill-rule:evenodd;fill:#675c35" d="m3.281 8.2-0.601-0.559-0.399-0.601-0.082-0.2c0.055 0.801 0.281 1.399 0.68 1.801l0.922 0.918c0.16 0.137 0.586 0.387 1.277 0.762 0.641 0.32 1.016 0.492 1.121 0.519 0.293 0.055 0.641-0.066 1.039-0.359l0.043-0.48-0.562-0.161-0.039 0.243c-0.188 0.156-0.508 0.156-0.961 0-0.586-0.16-1.067-0.442-1.438-0.844-0.082-0.078-0.242-0.199-0.48-0.359-0.188-0.133-0.321-0.25-0.403-0.36 0-0.027-0.039-0.133-0.117-0.32z"/>
        <path id="path26" style="fill-rule:evenodd;fill:#675c35" d="m0.641 4.282c0 0.293 0.066 0.48 0.199 0.558l-0.039 0.122c0.48-0.668 1.16-1.227 2.039-1.68l-0.199-0.32c-0.161-0.348-0.172-0.696-0.039-1.039l-0.043 0.039c-0.825 0.48-1.465 1.027-1.918 1.64v0.039c-0.028 0.266-0.028 0.481 0 0.641z"/>
        <path id="path28" style="fill-rule:evenodd;fill:#675c35" d="m12.602 0.719c0.957 0.082 1.878 0.243 2.757 0.481 0.426 0.082 0.84 0.199 1.243 0.359l-0.043-0.117c-0.024-0.187-0.067-0.508-0.118-0.961l-0.16-0.039-2.64-0.402-1.039-0.039v0.718z"/>
        <path id="path30" style="fill-rule:evenodd;fill:#504729" d="m0.641 3.641v-0.039c-0.426 0.664-0.641 1.344-0.641 2.039l0.039 0.039 0.082 0.602c0.133-0.535 0.359-0.973 0.68-1.32l0.039-0.122c-0.133-0.078-0.199-0.265-0.199-0.558-0.028-0.16-0.028-0.375 0-0.641z"/>
        <path id="path32" style="fill-rule:evenodd;fill:#504729" d="m3.801 9.559-0.922-0.918c-0.399-0.402-0.625-1-0.68-1.801l-0.121-0.238c-0.211 0.637-0.144 1.278 0.203 1.918 0.399 0.774 1.211 1.469 2.438 2.082l1.121 0.438h0.039l1.562 0.48c-0.136-0.211-0.203-0.558-0.203-1.039-0.398 0.293-0.746 0.414-1.039 0.359-0.105-0.027-0.48-0.199-1.121-0.519-0.691-0.375-1.117-0.625-1.277-0.762z"/>
        <path id="path34" style="fill-rule:evenodd;fill:#7c6e3f" d="m3.602 1.88c0 0.535 0.023 0.867 0.078 1 0-0.024 0.039-0.04 0.121-0.04v-1.519l-0.242 0.121 0.043 0.438z"/>
        <path id="path36" style="fill-rule:evenodd;fill:#7c6e3f" d="m8.359 1.68v-1.48l-1.879 0.32-0.082 1.52c0.614-0.16 1.27-0.278 1.961-0.36z"/>
        <path id="path38" style="fill-rule:evenodd;fill:#7c6e3f" d="m10.16 0.04v1.48c1.117-0.051 1.918-0.066 2.399-0.039l0.043-1.48-2.442 0.039z"/>
        <path id="path40" style="fill-rule:evenodd;fill:#928149" d="m10.16 1.52v-1.48l-1.801 0.16v1.48c0.801-0.082 1.215-0.121 1.243-0.121l0.558-0.039z"/>
        <path id="path42" style="fill-rule:evenodd;fill:#928149" d="m5.16 2.36c-0.133-0.531-0.199-1.012-0.199-1.437l-1.16 0.398v1.519c0.371-0.187 0.824-0.347 1.359-0.48z"/>
        <path id="path44" style="fill-rule:evenodd;fill:#b49f5a" d="m6.398 2.04 0.082-1.52h-0.039l-1.441 0.403h-0.039c0 0.425 0.066 0.906 0.199 1.437l1.238-0.32z"/>
        <path id="path46" style="fill-rule:evenodd;fill:#bda75e" d="m2 5.239h-0.121l0.121 0.121v-0.121z"/>
        <path id="path48" style="fill-rule: evenodd; fill: rgb(214, 112, 29);" d="M 3.699 4.122 C 3.48 3.958 3.207 3.864 2.879 3.84 C 2.773 3.575 2.961 3.399 3.441 3.321 C 3.789 3.294 4.039 3.497 4.199 3.923 L 3.801 4.2 C 3.816 4.212 3.828 4.227 3.84 4.239 C 3.973 4.426 3.801 4.587 3.32 4.719 C 3.055 4.801 2.812 4.747 2.602 4.559 C 2.387 4.376 2.492 4.227 2.922 4.122 C 3.273 4.016 3.531 4.016 3.699 4.122 L 3.699 4.122 Z M 1.16 6.641 L 1 6.84 L 0.922 6.84 L 0.879 6.641 L 1.16 6.641 Z M 1.281 6.122 C 1.305 6.122 1.387 6.227 1.52 6.442 C 0.906 6.442 0.652 6.333 0.762 6.122 L 1.281 6.122 Z M 2 5.641 L 2 5.559 L 1.801 5.559 L 1.68 5.84 C 1.359 5.84 1.227 5.719 1.281 5.481 C 1.281 5.372 1.375 5.294 1.559 5.239 C 1.453 5.188 1.398 5.122 1.398 5.04 C 1.426 4.934 1.586 4.84 1.879 4.762 C 2.012 4.762 2.121 4.801 2.199 4.88 C 2.281 4.962 2.348 5.04 2.398 5.122 L 2 5.641 L 2 5.641 Z M 6.961 2.399 L 7 2.321 C 7.105 2.266 7.227 2.255 7.359 2.282 C 7.492 2.333 7.586 2.415 7.641 2.52 C 7.719 2.602 7.773 2.696 7.801 2.801 L 7.602 3.239 C 6.961 3.239 6.668 3.028 6.719 2.602 C 6.746 2.469 6.828 2.399 6.961 2.399 L 6.961 2.399 Z M 5.719 3.68 C 5.348 3.84 5.145 3.934 5.121 3.962 C 4.934 4.067 4.801 4.122 4.719 4.122 C 4.586 4.149 4.469 4.083 4.359 3.923 C 4.707 3.575 5.027 3.387 5.32 3.36 C 5.293 3.309 5.199 3.2 5.039 3.04 C 5.039 2.907 5.238 2.84 5.641 2.84 L 5.801 2.84 L 6.039 3.04 L 5.84 2.801 C 5.734 2.719 5.695 2.653 5.719 2.602 C 5.746 2.548 5.812 2.493 5.922 2.442 C 6.055 2.415 6.145 2.415 6.199 2.442 C 6.305 2.469 6.387 2.575 6.441 2.762 C 6.469 2.946 6.492 3.094 6.52 3.2 L 6.238 3.239 L 6.32 3.321 C 6.188 3.426 5.988 3.548 5.719 3.68 L 5.719 3.68 Z M 8.281 2.719 L 8 2.84 C 8.027 2.708 7.973 2.575 7.84 2.442 C 7.734 2.309 7.695 2.188 7.719 2.083 C 7.934 2.055 8.078 2.094 8.16 2.2 C 8.215 2.309 8.254 2.481 8.281 2.719 Z M 9.121 2.442 C 9.227 2.469 9.305 2.454 9.359 2.399 C 9.414 2.348 9.426 2.255 9.398 2.122 C 9.453 1.989 9.547 1.946 9.68 2.001 L 9.68 1.801 C 9.973 1.774 10.184 1.829 10.32 1.962 C 10.27 1.907 10.27 1.852 10.32 1.801 C 10.48 1.669 10.68 1.719 10.922 1.962 C 10.973 1.88 11.078 1.84 11.238 1.84 C 11.375 1.84 11.441 1.895 11.441 2.001 L 11.121 2.122 L 11.121 2.2 L 11.039 2.2 L 11.121 2.399 L 10.879 2.442 L 11.199 2.602 C 11.066 2.602 10.559 2.669 9.68 2.801 C 9.52 2.829 9.387 2.856 9.281 2.883 C 9.121 2.883 9.027 2.829 9 2.723 C 8.973 2.641 9.012 2.548 9.121 2.442 L 9.121 2.442 Z M 15.84 2.52 C 15.836 2.489 15.836 2.465 15.84 2.438 C 15.855 2.333 15.945 2.282 16.121 2.282 C 16.305 2.305 16.387 2.426 16.359 2.641 L 15.84 2.52 L 15.84 2.52 Z M 15.359 2.801 C 15.305 2.587 15.293 2.426 15.32 2.321 L 15.602 2.321 C 15.734 2.321 15.812 2.36 15.84 2.438 L 15.719 2.481 L 15.719 2.602 L 15.359 2.801 Z M 12.52 2.583 C 12.633 2.567 12.742 2.559 12.84 2.559 L 13.16 2.559 L 13.039 2.399 L 12.52 2.583 Z M 13.4 3.355 L 14.266 3.274 C 14.239 3.063 14.899 3.613 15.059 3.265 C 15.219 2.894 13.836 2.837 13.997 2.865 C 14.102 3.318 13.744 2.769 13.4 3.355 Z M 14.427 2.766 C 14.482 2.821 13.77 2.753 13.715 2.808 L 13.554 2.85 L 13.593 2.77 C 13.483 2.692 13.088 3.337 13.116 3.283 C 13.143 3.095 13.974 2.684 14.427 2.766 Z M 13.933 3.25 L 12.545 2.814 C 12.276 2.814 12.969 3.891 11.77 3.199 C 10.516 2.453 10.902 2.289 10.555 2.238 L 9.999 2.195 L 9.841 2.076 L 9.563 2.868 L 8.887 2.63 C 8.887 2.63 8.85 2.803 8.768 2.79 C 8.741 2.786 5.719 3.502 5.719 3.502 L 8.925 2.153 L 8.289 2.945 L 6.984 3.262 L 6.822 2.906 L 6.468 3.422 C 5.96 3.152 5.08 3.663 5.959 3.292 L 7.113 3.009 C 7.538 2.849 7.695 3.493 8.762 3.282 L 9.078 3.083 C 9.211 3.028 9.762 2.962 10.719 2.883 C 10.879 2.856 11.227 2.79 11.762 2.68 C 12.004 2.633 12.223 2.602 12.422 2.583 C 12.191 2.329 12.066 2.173 12.039 2.122 L 12.039 2.2 L 11.441 2.2 C 11.387 1.934 11.586 1.84 12.039 1.923 L 12.078 2.083 L 12.121 1.923 L 12.238 1.883 L 12.238 1.801 C 12.586 1.719 12.84 1.786 13 2.001 C 13.32 1.95 13.492 2.055 13.52 2.321 L 13.238 2.559 L 13.723 2.52 C 13.641 2.442 13.602 2.376 13.602 2.321 C 13.492 2.055 13.602 1.923 13.922 1.923 L 14.238 1.923 C 14.398 1.786 14.613 1.856 14.879 2.122 L 15.121 2.04 C 15.305 2.067 15.371 2.161 15.32 2.321 C 15.266 2.481 15.16 2.575 15 2.602 L 14.719 2.52 C 14.641 2.442 14.625 2.36 14.68 2.282 L 13.961 2.559 L 14.16 2.641 L 14.762 2.723 L 14.281 2.723 C 14.414 2.883 14.599 2.454 14.599 3.333 L 14.633 2.896 L 13.797 2.939 C 13.661 3.1 14.24 2.511 14.107 2.827 L 13.671 2.514 C 13.671 2.702 13.7 2.794 13.513 3.036 L 13.55 2.603 L 13.55 2.879 L 13.509 3.042 L 13.347 2.964 L 13.187 2.968 L 13.107 3.167 L 12.792 2.732 L 12.988 1.903 L 12.865 2.182 L 13.933 3.25 Z M 9.599 2.421 L 9.876 2.859 C 10.063 2.964 9.906 3.138 10.121 3.138 C 10.227 3.032 10.49 3.017 10.678 3.099 L 11.041 2.581 L 10.959 2.699 C 11.041 2.621 10.779 3.16 10.884 3.133 C 10.99 3.109 12.01 2.911 12.034 3.017 L 13.86 2.74 C 13.833 2.579 13.175 3.17 13.308 3.092 C 13.441 3.01 14.431 -1.855 13.551 3.211 L 13.394 2.778 L 14.394 2.924 C 14.394 2.792 15.039 3.039 15.148 2.719 C 15.281 2.398 14.781 2.08 14.594 3.185 C 15.785 3.421 14.945 4.321 15.641 3.282 L 15.922 3.239 L 16 3.04 L 16.398 2.641 C 16.48 2.536 16.547 2.321 16.602 2.001 L 15.641 1.801 C 14.84 1.641 13.812 1.536 12.559 1.481 C 12.078 1.454 11.277 1.469 10.16 1.52 L 9.602 1.559 C 9.574 1.559 9.16 1.602 8.359 1.68 C 7.668 1.762 7.012 1.88 6.398 2.04 L 5.16 2.36 C 4.625 2.493 4.172 2.653 3.801 2.84 C 3.719 2.84 3.68 2.856 3.68 2.883 C 3.305 3.016 3.027 3.149 2.84 3.282 C 1.961 3.735 1.281 4.294 0.801 4.962 C 0.613 5.165 0.461 5.395 0.34 5.661 C 0.359 5.626 0.379 5.594 0.398 5.559 C 0.238 6.602 0.359 7.399 0.762 7.962 C 1.32 8.813 1.879 9.465 2.441 9.923 C 3.078 10.454 3.906 10.868 4.922 11.161 C 5.613 11.376 6.359 11.559 7.16 11.719 L 7.441 11.52 L 7.32 11.481 C 6.387 11.266 5.559 10.989 4.84 10.641 L 4.719 10.602 C 3.492 9.989 2.68 9.294 2.281 8.52 C 1.934 7.88 1.867 7.239 2.078 6.602 C 2.238 6.149 2.52 5.719 2.922 5.321 L 3 5.34 L 3.078 5.122 L 6.998 2.719 C 7.881 2.902 7.082 1.942 7.457 2.211 C 7.8 2.477 10.06 2.627 10.192 3.134 L 9.599 2.421 Z"/>
        <path id="path54" style="fill-rule:evenodd;fill:#9e8c4f" d="m2.922 4.122c-0.43 0.105-0.535 0.254-0.32 0.437 0.21 0.188 0.453 0.242 0.718 0.16 0.481-0.132 0.653-0.293 0.52-0.48-0.16-0.211-0.465-0.25-0.918-0.117zm0.437 0.32c-0.347 0-0.507-0.066-0.48-0.203 0.027-0.133 0.148-0.172 0.359-0.117 0.137 0.027 0.254 0.066 0.364 0.117l-0.243 0.203z"/>
        <path id="path58" style="fill-rule:evenodd;fill:#9e8c4f" d="m7.602 3.239 0.199-0.438c-0.028-0.105-0.082-0.199-0.16-0.281l0.039 0.082-0.481 0.199c-0.105-0.027-0.187-0.082-0.238-0.16-0.055-0.082-0.055-0.16 0-0.242-0.133 0-0.215 0.07-0.242 0.203-0.051 0.426 0.242 0.637 0.883 0.637z"/>
        <path id="path60" style="fill-rule:evenodd;fill:#9e8c4f" d="m9.359 2.399c-0.054 0.055-0.132 0.07-0.238 0.043-0.109 0.106-0.148 0.199-0.121 0.281 0.027 0.106 0.121 0.16 0.281 0.16 0.106-0.027 0.239-0.054 0.399-0.082 0.882-0.132 1.386-0.199 1.519-0.199l-0.32-0.16h-0.039l-0.039-0.043-0.321-0.117-0.8 0.32c-0.028-0.109 0.015-0.242 0.121-0.402 0-0.106-0.039-0.172-0.121-0.199-0.133-0.051-0.227-0.012-0.282 0.121 0.028 0.133 0.016 0.226-0.039 0.277z"/>
        <path id="path62" style="fill-rule:evenodd;fill:#9e8c4f" d="m11.121 2.2v-0.078l-0.082 0.039v0.039h0.082z"/>
        <path id="path64" style="fill-rule:evenodd;fill:#9e8c4f" d="m12.441 2.602 0.598-0.203-0.039-0.277-0.039-0.039-0.441 0.117c-0.188 0.027-0.282-0.078-0.282-0.32l-0.117 0.043-0.043 0.16-0.039 0.039c0.027 0.051 0.16 0.211 0.402 0.48z"/>
        <path d="M 4.437 4.273 C 7.21 2.454 10.894 3.301 13.546 3.056 C 14.165 2.999 15.866 4.369 16.101 3.47 C 16.249 2.903 16.331 1.934 15.716 1.865 C 13.095 1.571 9.023 1.273 6.705 2.321 C 5.379 2.921 3.501 3.048 3.177 4.287" style="stroke-opacity: 0; stroke: rgb(255, 0, 0); fill: rgb(248, 117, 10);"/>
        <path id="path66" style="fill-rule:evenodd;fill:#9e8c4f" d="m13.602 2.321c0 0.051 0.039 0.117 0.117 0.199l0.242 0.039 0.719-0.277 0.039-0.082-0.399 0.039c-0.109 0-0.175-0.039-0.199-0.117-0.027-0.055-0.016-0.121 0.039-0.199h-0.238c-0.32 0-0.43 0.132-0.32 0.398z"/>
        <path id="path68" style="fill-rule:evenodd;fill:#9e8c4f" d="m15.602 2.321h-0.282c-0.027 0.105-0.015 0.266 0.039 0.48l0.36-0.199v-0.121l-0.199 0.039c-0.028-0.051 0-0.121 0.082-0.199z"/>
        <path id="path70" style="fill-rule:evenodd;fill:#9e8c4f" d="m1.641 5.239h-0.082c-0.184 0.055-0.278 0.137-0.278 0.242-0.054 0.238 0.078 0.359 0.399 0.359l0.121-0.281c-0.293 0-0.387-0.078-0.281-0.238l0.121-0.082z"/>
        <path id="path72" style="fill-rule:evenodd;fill:#615630" d="m1.801 5.559h0.199v-0.199l-0.121-0.121h-0.238l-0.121 0.082c-0.106 0.16-0.012 0.238 0.281 0.238z"/>
        <path id="path74" style="fill-rule:evenodd;fill:#615630" d="m3.602 4.239c-0.11-0.051-0.227-0.09-0.364-0.117-0.211-0.055-0.332-0.016-0.359 0.117-0.027 0.137 0.133 0.203 0.48 0.203l0.243-0.203z"/>
        <path id="path76" style="fill-rule:evenodd;fill:#615630" d="m5.922 3.04c0-0.133-0.067-0.2-0.203-0.2h-0.078l-0.082 0.04c-0.024 0.054-0.012 0.109 0.043 0.16 0.078 0.082 0.105 0.16 0.078 0.242l0.242-0.242z"/>
        <path id="path78" style="fill-rule:evenodd;fill:#615630" d="m7.199 2.801 0.481-0.199-0.039-0.082c-0.055-0.105-0.149-0.187-0.282-0.238-0.132-0.027-0.254-0.016-0.359 0.039l-0.039 0.078c-0.055 0.082-0.055 0.16 0 0.242 0.051 0.078 0.133 0.133 0.238 0.16z"/>
        <path id="path80" style="fill-rule:evenodd;fill:#615630" d="m10.52 2.239-0.082-0.078c-0.024-0.055-0.067-0.121-0.118-0.199-0.132-0.133-0.347-0.188-0.64-0.161v0.2c0.082 0.027 0.121 0.093 0.121 0.199-0.11 0.16-0.149 0.293-0.121 0.402l0.8-0.32 0.04-0.043z"/>
        <path id="path82" style="fill-rule:evenodd;fill:#615630" d="m11.121 2.122 0.32-0.121c0-0.106-0.066-0.161-0.203-0.161-0.16 0-0.265 0.043-0.316 0.122l0.117 0.199 0.082-0.039z"/>
        <path id="path84" style="fill-rule:evenodd;fill:#615630" d="m13 2.083v-0.082c-0.16-0.215-0.414-0.282-0.762-0.2v0.079c0 0.242 0.094 0.347 0.282 0.32l0.441-0.117h0.039z"/>
        <path id="path86" style="fill-rule:evenodd;fill:#615630" d="m14.32 2.239 0.399-0.039 0.16-0.078c-0.266-0.266-0.481-0.336-0.641-0.199h-0.078c-0.055 0.078-0.066 0.144-0.039 0.199 0.027 0.078 0.094 0.117 0.199 0.117z"/>
        <path id="path88" style="fill-rule:evenodd;fill:#615630" d="m15.602 2.321c-0.082 0.078-0.11 0.148-0.082 0.199l0.199-0.039 0.121-0.039c-0.028-0.082-0.106-0.121-0.238-0.121z"/>
        <path id="path90" style="fill-rule:evenodd;fill:#615630" d="m0.879 6.641 0.043 0.199h0.078l0.16-0.199h-0.281z"/>
        <path id="path92" style="fill-rule:evenodd;fill:#efd98c" d="m0.039 7.282 0.16 0.758 0.199 0.441c0.934 1.758 2.934 2.984 6 3.68 0.27-0.078 0.524-0.227 0.762-0.442-0.801-0.16-1.547-0.347-2.238-0.558-1.016-0.293-1.844-0.707-2.481-1.238-0.562-0.458-1.121-1.11-1.679-1.961-0.403-0.563-0.524-1.36-0.364-2.403-0.132 0.215-0.253 0.563-0.359 1.043v0.68z"/>
        <path id="path96" style="fill-rule:evenodd;fill:#efd98c" d="m1.281 6.122h-0.519c-0.11 0.211 0.144 0.32 0.758 0.32-0.133-0.215-0.215-0.32-0.239-0.32z"/>
        <path id="path98" style="fill-rule:evenodd;fill:#efd98c" d="m2 5.239v0.402l0.398-0.519c-0.05-0.082-0.117-0.16-0.199-0.242-0.078-0.079-0.187-0.118-0.32-0.118-0.293 0.078-0.453 0.172-0.481 0.278 0 0.082 0.055 0.148 0.161 0.199h0.441z"/>
        <path id="path100" style="fill-rule:evenodd;fill:#efd98c" d="m3.801 4.2 0.398-0.277c-0.16-0.43-0.414-0.629-0.758-0.602-0.48 0.078-0.668 0.254-0.562 0.519 0.375 0.028 0.68 0.149 0.922 0.36z"/>
        <path id="path102" style="fill-rule:evenodd;fill:#efd98c" d="m5.719 2.602c-0.024 0.051 0.015 0.117 0.121 0.199l0.199 0.239 0.039 0.199h0.16l0.282-0.039c-0.028-0.106-0.051-0.25-0.079-0.438-0.054-0.187-0.136-0.293-0.242-0.32-0.054-0.027-0.144-0.027-0.277 0-0.11 0.051-0.176 0.106-0.203 0.16z"/>
        <path id="path104" style="fill-rule:evenodd;fill:#efd98c" d="m8 2.84 0.281-0.117c-0.027-0.242-0.066-0.414-0.121-0.523-0.082-0.106-0.226-0.145-0.441-0.117-0.024 0.105 0.015 0.222 0.121 0.355 0.133 0.137 0.187 0.27 0.16 0.402z"/>
        <path id="path106" style="fill-rule:evenodd;fill:#efd98c" d="m10.879 2.442 0.242-0.043-0.082-0.199v-0.039l-0.117-0.199c-0.242-0.243-0.442-0.293-0.602-0.161-0.054 0.055-0.054 0.106 0 0.161 0.055 0.078 0.094 0.144 0.121 0.199l0.36 0.238 0.039 0.043h0.039z"/>
        <path id="path108" style="fill-rule:evenodd;fill:#efd98c" d="m12.039 2.2v-0.078l0.039-0.039-0.039-0.16c-0.453-0.083-0.652 0.011-0.598 0.277h0.598z"/>
        <path id="path110" style="fill-rule:evenodd;fill:#efd98c" d="m13 2.001v0.121l0.039 0.277 0.121 0.16h0.078l0.282-0.238c-0.028-0.266-0.2-0.375-0.52-0.32z"/>
        <path id="path112" style="fill-rule:evenodd;fill:#efd98c" d="m14.879 2.122-0.156 0.078-0.043 0.082c-0.051 0.078-0.039 0.156 0.043 0.238l0.277 0.082c0.16-0.027 0.266-0.121 0.32-0.281 0.055-0.16-0.015-0.254-0.199-0.281l-0.242 0.082z"/>
        <path id="path114" style="fill-rule:evenodd;fill:#efd98c" d="m16.359 2.641c0.028-0.215-0.054-0.332-0.238-0.359-0.215 0-0.309 0.078-0.281 0.238l0.519 0.121z"/>
        <path id="path118" style="fill-rule:evenodd;fill:#efd98c" d="m11.559 8.001c-0.024-0.106-0.094-0.145-0.2-0.121-0.105 0.027-0.199 0.082-0.281 0.16l0.481-0.039z"/>
        <path id="path124" style="fill-rule:evenodd;fill:#efd98c" d="M 13.756 2.999 C 14.104 2.413 15.17 2.843 15.065 2.39 C 14.904 2.362 14.269 2.301 14.109 2.672 C 13.949 3.02 14.002 2.589 14.029 2.8 L 13.756 2.999 Z"/>
      </g>
    </g>
  </g>
  <g transform="matrix(0.041058, 0, 0, 0.15553, 213.427292, 768.223694)">
    <title id="title5215">paper lanterns</title>
    <g id="layer1" transform="matrix(1, 0, 0, 1, 0, -652.359985)">
      <g id="g3979" transform="matrix(.25006 0 0 .23989 531.1 539.15)">
        <rect id="rect4277" style="filter: url(#filter4321); stroke: rgb(147, 97, 20); stroke-linecap: round; stroke-width: 3.6; fill: rgb(255, 255, 62);" transform="translate(0 702.36)" height="557.6" width="351.53" y="204.54" x="-1874.8"/>
        <g id="g4223" style="stroke:#484528;fill:url(#radialGradient4275)" transform="matrix(.94571 0 0 1.0846 -106.38 -130.64)">
          <g id="g4171" style="stroke:#484528;fill:url(#radialGradient4275)" transform="translate(-892.97 -20.203)">
            <path id="path4173" d="m-1058.6 927.1 40.406 44.447 424.26 8.0812 36.365-52.528c-139.91-27.702-299.29-53.433-501.04 0z" style="stroke: rgb(72, 69, 40); fill: rgb(242, 162, 23);"/>
            <path id="path4175" style="stroke: rgb(72, 69, 40); fill: rgb(242, 162, 23);" d="m-1062.7 983.67 40.406 44.447 424.26 8.0812 36.366-52.528c-140.5-26.511-318-16.025-501.04 0z"/>
            <path id="path4177" d="m-1058.6 1032.2 40.406 44.447 424.26 8.0812 36.366-52.528c-140.5-26.511-318-16.025-501.04 0z" style="stroke: rgb(72, 69, 40); fill: rgb(242, 162, 23);"/>
            <path id="path4179" style="stroke: rgb(72, 69, 40); fill: rgb(242, 162, 23);" d="m-1062.7 1080.6 40.406 44.447 424.26 8.0812 36.366-52.528c-140.5-26.511-318-16.026-501.04 0z"/>
            <path id="path4181" d="m-1054.6 1125.1 40.406 44.447 424.26 8.0812 36.366-52.528c-140.5-26.511-318-16.026-501.04 0z" style="stroke: rgb(72, 69, 40); fill: rgb(242, 162, 23);"/>
            <path id="path4183" style="stroke: rgb(72, 69, 40); fill: rgb(242, 162, 23);" d="m-1046.5 1185.7 40.406 44.447 424.26 8.0812 36.366-52.528c-140.5-26.511-318-16.026-501.04 0z"/>
            <path id="path4185" d="m-1054.6 1238.2 40.406 44.447 424.26 8.0812 36.366-52.528c-140.5-26.511-318-16.026-501.04 0z" style="stroke: rgb(72, 69, 40); fill: rgb(242, 162, 23);"/>
            <path id="path4187" style="stroke: rgb(72, 69, 40); fill: rgb(242, 162, 23);" d="m-1066.7 1290.8 40.406 44.447 424.26 8.0812 36.366-52.528c-140.5-26.511-318-16.026-501.04 0z"/>
            <path id="path4189" d="m-1046.5 1339.2 40.406 44.447 424.26 8.0812 36.365-52.528c-140.5-26.511-318-16.026-501.04 0z" style="stroke: rgb(72, 69, 40); fill: rgb(242, 162, 23);"/>
            <path id="path4191" style="stroke: rgb(72, 69, 40); fill: rgb(242, 162, 23);" d="m-1050.6 1387.7 40.406 44.447 424.26 8.0812 36.365-52.528c-140.5-26.511-318-16.026-501.04 0z"/>
            <path id="path4193" d="m-1054.6 1444.3 40.406 44.447 424.26 8.0812 36.365-52.528c-140.5-26.511-318-16.026-501.04 0z" style="stroke: rgb(72, 69, 40); fill: rgb(242, 162, 23);"/>
            <path id="path4195" style="stroke: rgb(72, 69, 40); fill: rgb(242, 162, 23);" d="m-1046.5 1488.7 40.406 44.447c166.4 60.98 287.18 15.51 424.26 8.0812l36.365-52.528c-140.5-26.511-318-16.026-501.04 0z"/>
          </g>
        </g>
        <g id="g4238" style="stroke:#830500;stroke-width:3.6">
          <path id="path4109" style="stroke: rgb(131, 5, 0); stroke-width: 3.6; fill: rgb(62, 133, 255);" d="m-1499.1 168.17 40.406 44.447 424.26 8.0812 36.365-52.528c-139.91-27.702-299.29-53.433-501.04 0z" transform="translate(0 702.36)"/>
          <path id="path4111" d="m-1503.1 927.1 40.406 44.447 424.26 8.0812 36.366-52.528c-140.5-26.511-318-16.025-501.04 0z" style="stroke: rgb(131, 5, 0); stroke-width: 3.6; fill: rgb(62, 133, 255);"/>
          <path id="path4113" style="stroke: rgb(131, 5, 0); stroke-width: 3.6; fill: rgb(62, 133, 255);" d="m-1499.1 975.59 40.406 44.447 424.26 8.0812 36.366-52.528c-140.5-26.511-318-16.025-501.04 0z"/>
          <path id="path4115" d="m-1503.1 1024.1 40.406 44.447 424.26 8.0812 36.366-52.528c-140.5-26.511-318-16.026-501.04 0z" style="stroke: rgb(131, 5, 0); stroke-width: 3.6; fill: rgb(62, 133, 255);"/>
          <path id="path4117" style="stroke: rgb(131, 5, 0); stroke-width: 3.6; fill: rgb(62, 133, 255);" d="m-1495 1068.5 40.406 44.447 424.26 8.0812 36.366-52.528c-140.5-26.511-318-16.026-501.04 0z"/>
          <path id="path4119" d="m-1486.9 1129.1 40.406 44.447 424.26 8.0812 36.366-52.528c-140.5-26.511-318-16.026-501.04 0z" style="stroke: rgb(131, 5, 0); stroke-width: 3.6; fill: rgb(62, 133, 255);"/>
          <path id="path4121" style="stroke: rgb(131, 5, 0); stroke-width: 3.6; fill: rgb(62, 133, 255);" d="m-1495 1181.7 40.406 44.447 424.26 8.0812 36.366-52.528c-140.5-26.511-318-16.026-501.04 0z"/>
          <path id="path4123" d="m-1507.1 1234.2 40.406 44.447 424.26 8.0812 36.366-52.528c-140.5-26.511-318-16.026-501.04 0z" style="stroke: rgb(131, 5, 0); stroke-width: 3.6; fill: rgb(62, 133, 255);"/>
          <path id="path4125" style="stroke: rgb(131, 5, 0); stroke-width: 3.6; fill: rgb(62, 133, 255);" d="m-1486.9 1282.7 40.406 44.447 424.26 8.0812 36.365-52.528c-140.5-26.511-318-16.026-501.04 0z"/>
          <path id="path4127" d="m-1491 1331.2 40.406 44.447 424.26 8.0812 36.365-52.528c-140.5-26.511-318-16.026-501.04 0z" style="stroke: rgb(131, 5, 0); stroke-width: 3.6; fill: rgb(62, 133, 255);"/>
          <path id="path4129" style="stroke: rgb(131, 5, 0); stroke-width: 3.6; fill: rgb(62, 133, 255);" d="m-1495 1387.7 40.406 44.447 424.26 8.0812 36.365-52.528c-140.5-26.511-318-16.026-501.04 0z"/>
          <path id="path4131" d="m-1486.9 1432.2 40.406 44.447c166.4 60.98 287.18 15.51 424.26 8.0812l36.365-52.528c-140.5-26.511-318-16.026-501.04 0z" style="stroke: rgb(131, 5, 0); stroke-width: 3.6; fill: rgb(62, 133, 255);"/>
        </g>
        <g id="g4252" style="stroke:#936114">
          <g id="g4157" style="stroke:#936114;fill:#ff9900">
            <path id="path4133" style="stroke: rgb(147, 97, 20); stroke-width: 1px; fill: rgb(255, 168, 16);" d="m-1058.6 927.1 40.406 44.447 424.26 8.0812 36.365-52.528c-139.91-27.702-299.29-53.433-501.04 0z"/>
            <path id="path4135" d="m-1062.7 983.67 40.406 44.447 424.26 8.0812 36.366-52.528c-140.5-26.511-318-16.025-501.04 0z" style="stroke: rgb(147, 97, 20); stroke-width: 1px; fill: rgb(255, 168, 16);"/>
            <path id="path4137" style="stroke: rgb(147, 97, 20); stroke-width: 1px; fill: rgb(255, 168, 16);" d="m-1058.6 1032.2 40.406 44.447 424.26 8.0812 36.366-52.528c-140.5-26.511-318-16.025-501.04 0z"/>
            <path id="path4139" d="m-1062.7 1080.6 40.406 44.447 424.26 8.0812 36.366-52.528c-140.5-26.511-318-16.026-501.04 0z" style="stroke: rgb(147, 97, 20); stroke-width: 1px; fill: rgb(255, 168, 16);"/>
            <path id="path4141" style="stroke: rgb(147, 97, 20); stroke-width: 1px; fill: rgb(255, 168, 16);" d="m-1054.6 1125.1 40.406 44.447 424.26 8.0812 36.366-52.528c-140.5-26.511-318-16.026-501.04 0z"/>
            <path id="path4143" d="m-1046.5 1185.7 40.406 44.447 424.26 8.0812 36.366-52.528c-140.5-26.511-318-16.026-501.04 0z" style="stroke: rgb(147, 97, 20); stroke-width: 1px; fill: rgb(255, 168, 16);"/>
            <path id="path4145" style="stroke: rgb(147, 97, 20); stroke-width: 1px; fill: rgb(255, 168, 16);" d="m-1054.6 1238.2 40.406 44.447 424.26 8.0812 36.366-52.528c-140.5-26.511-318-16.026-501.04 0z"/>
            <path id="path4147" d="m-1066.7 1290.8 40.406 44.447 424.26 8.0812 36.366-52.528c-140.5-26.511-318-16.026-501.04 0z" style="stroke: rgb(147, 97, 20); stroke-width: 1px; fill: rgb(255, 168, 16);"/>
            <path id="path4149" style="stroke: rgb(147, 97, 20); stroke-width: 1px; fill: rgb(255, 168, 16);" d="m-1046.5 1339.2 40.406 44.447 424.26 8.0812 36.365-52.528c-140.5-26.511-318-16.026-501.04 0z"/>
            <path id="path4151" d="m-1050.6 1387.7 40.406 44.447 424.26 8.0812 36.365-52.528c-140.5-26.511-318-16.026-501.04 0z" style="stroke: rgb(147, 97, 20); stroke-width: 1px; fill: rgb(255, 168, 16);"/>
            <path id="path4153" style="stroke: rgb(147, 97, 20); stroke-width: 1px; fill: rgb(255, 168, 16);" d="m-1054.6 1444.3 40.406 44.447 424.26 8.0812 36.365-52.528c-140.5-26.511-318-16.026-501.04 0z"/>
            <path id="path4155" d="m-1046.5 1488.7 40.406 44.447c166.4 60.98 287.18 15.51 424.26 8.0812l36.365-52.528c-140.5-26.511-318-16.026-501.04 0z" style="stroke: rgb(147, 97, 20); stroke-width: 1px; fill: rgb(255, 168, 16);"/>
          </g>
        </g>
        <g id="g4197" style="fill:#b50000" transform="translate(412.14 -92.934)">
          <path id="path4199" d="m-1058.6 927.1 40.406 44.447 424.26 8.0812 36.365-52.528c-139.91-27.702-299.29-53.433-501.04 0z" style="stroke: rgb(0, 0, 0); stroke-width: 1px; fill: rgb(62, 207, 255);"/>
          <path id="path4201" style="stroke: rgb(0, 0, 0); stroke-width: 1px; fill: rgb(62, 207, 255);" d="m-1062.7 983.67 40.406 44.447 424.26 8.0812 36.366-52.528c-140.5-26.511-318-16.025-501.04 0z"/>
          <path id="path4203" d="m-1058.6 1032.2 40.406 44.447 424.26 8.0812 36.366-52.528c-140.5-26.511-318-16.025-501.04 0z" style="stroke: rgb(0, 0, 0); stroke-width: 1px; fill: rgb(62, 207, 255);"/>
          <path id="path4205" style="stroke: rgb(0, 0, 0); stroke-width: 1px; fill: rgb(62, 207, 255);" d="m-1062.7 1080.6 40.406 44.447 424.26 8.0812 36.366-52.528c-140.5-26.511-318-16.026-501.04 0z"/>
          <path id="path4207" d="m-1054.6 1125.1 40.406 44.447 424.26 8.0812 36.366-52.528c-140.5-26.511-318-16.026-501.04 0z" style="stroke: rgb(0, 0, 0); stroke-width: 1px; fill: rgb(62, 207, 255);"/>
          <path id="path4209" style="stroke: rgb(0, 0, 0); stroke-width: 1px; fill: rgb(62, 207, 255);" d="m-1046.5 1185.7 40.406 44.447 424.26 8.0812 36.366-52.528c-140.5-26.511-318-16.026-501.04 0z"/>
          <path id="path4211" d="m-1054.6 1238.2 40.406 44.447 424.26 8.0812 36.366-52.528c-140.5-26.511-318-16.026-501.04 0z" style="stroke: rgb(0, 0, 0); stroke-width: 1px; fill: rgb(62, 207, 255);"/>
          <path id="path4213" style="stroke: rgb(0, 0, 0); stroke-width: 1px; fill: rgb(62, 207, 255);" d="m-1066.7 1290.8 40.406 44.447 424.26 8.0812 36.366-52.528c-140.5-26.511-318-16.026-501.04 0z"/>
          <path id="path4215" d="m-1046.5 1339.2 40.406 44.447 424.26 8.0812 36.365-52.528c-140.5-26.511-318-16.026-501.04 0z" style="stroke: rgb(0, 0, 0); stroke-width: 1px; fill: rgb(62, 207, 255);"/>
          <path id="path4217" style="stroke: rgb(0, 0, 0); stroke-width: 1px; fill: rgb(62, 207, 255);" d="m-1050.6 1387.7 40.406 44.447 424.26 8.0812 36.365-52.528c-140.5-26.511-318-16.026-501.04 0z"/>
          <path id="path4219" d="m-1054.6 1444.3 40.406 44.447 424.26 8.0812 36.365-52.528c-140.5-26.511-318-16.026-501.04 0z" style="stroke: rgb(0, 0, 0); stroke-width: 1px; fill: rgb(62, 207, 255);"/>
          <path id="path4221" style="stroke: rgb(0, 0, 0); stroke-width: 1px; fill: rgb(62, 207, 255);" d="m-1046.5 1488.7 40.406 44.447c166.4 60.98 287.18 15.51 424.26 8.0812l36.365-52.528c-140.5-26.511-318-16.026-501.04 0z"/>
        </g>
        <path id="path3073" style="stroke: rgb(180, 30, 30); stroke-width: 13.2; fill: rgb(255, 255, 62); fill-opacity: 0;" d="M -2072.8 656.38 L -1717.23 716.989 L -1256.6 716.989 L -816.17 757.395 L -391.91 684.664 L 40.41 523.044"/>
        <path id="path3843" d="m-1798.1 111.6 76.772-101.02 64.65 96.975" style="stroke: rgb(139, 8, 8); stroke-width: 4.2; fill: rgb(255, 255, 62);" transform="translate(0 702.36)"/>
        <path id="path3845" d="m-1349.6 131.81 80.812-113.14 92.934 117.18" style="stroke: rgb(139, 8, 8); stroke-width: 4.2; fill: rgb(255, 255, 62);" transform="translate(0 702.36)"/>
        <path id="path3847" d="m-909.14 192.42 76.77-129.3 60.61 129.3" style="stroke: rgb(139, 8, 8); stroke-width: 4.2; fill: rgb(255, 255, 62);" transform="translate(0 702.36)"/>
        <path id="path3849" d="m-468.71 95.442 68.69-113.14 84.853 133.34" style="stroke: rgb(139, 8, 8); stroke-width: 4.2; fill: rgb(255, 255, 62);" transform="translate(0 702.36)"/>
        <path id="path3851" d="m-1753.6 2111 24.244-355.57 8.0812 367.7" style="stroke: rgb(222, 46, 20); stroke-width: 10.2; fill: rgb(255, 255, 62);"/>
        <path id="path3853" style="stroke: rgb(222, 46, 20); stroke-width: 9.223; fill: rgb(255, 255, 62);" d="m-1726.5 2113.6-7.3635-358.36 34.011 346.37"/>
        <path id="path3855" style="stroke: rgb(222, 46, 20); stroke-width: 10.2; fill: rgb(255, 255, 62);" d="m-1737.5 2122.8 16.072-356.04 16.522 367.41"/>
        <path id="path3857" d="m-1710.4 2124.8-15.591-358.1 41.956 345.5" style="stroke: rgb(222, 46, 20); stroke-width: 9.223; fill: rgb(255, 255, 62);"/>
        <path id="path3859" style="stroke: rgb(222, 46, 20); stroke-linecap: round; stroke-width: 10.2; fill: rgb(255, 255, 62);" d="m-1478.9 1202.6c0 24.547-18.995 44.447-42.426 44.447-23.432 0-42.426-19.899-42.426-44.447 0-24.547 18.995-44.447 42.426-44.447 23.432 0 42.426 19.9 42.426 44.447z" transform="translate(-206.07 528.62)"/>
        <path id="path3869" d="m-1729.4 1682.7-8.0813-133.34h16.162z" style="stroke: rgb(195, 9, 9); stroke-width: 6; fill: rgb(255, 255, 62);"/>
        <path id="path3871" style="stroke: rgb(244, 127, 23); stroke-width: 10.2; fill: rgb(255, 255, 62);" d="m-1272.8 2066.6 24.244-355.57 8.0812 367.7"/>
        <path id="path3873" d="m-1245.7 2069.2-7.3635-358.36 34.011 346.37" style="stroke: rgb(244, 127, 23); stroke-width: 9.223; fill: rgb(255, 255, 62);"/>
        <path id="path3875" d="m-1256.7 2078.3 16.072-356.04 16.522 367.41" style="stroke: rgb(244, 127, 23); stroke-width: 10.2; fill: rgb(255, 255, 62);"/>
        <path id="path3877" style="stroke: rgb(244, 127, 23); stroke-width: 9.223; fill: rgb(255, 255, 62);" d="m-1229.5 2080.3-15.591-358.1 41.956 345.5"/>
        <path id="path3879" style="stroke: rgb(244, 127, 23); stroke-linecap: round; stroke-width: 10.2; fill: rgb(255, 255, 62);" d="m-1478.9 1202.6c0 24.547-18.995 44.447-42.426 44.447-23.432 0-42.426-19.899-42.426-44.447 0-24.547 18.995-44.447 42.426-44.447 23.432 0 42.426 19.9 42.426 44.447z" transform="translate(274.76 484.17)"/>
        <path id="path3881" style="stroke: rgb(244, 127, 23); stroke-width: 6; fill: rgb(255, 255, 62);" d="m-1248.5 1638.3-8.0813-133.34h16.162z"/>
        <path id="path3885" d="m-836.41 2098.9 24.244-355.57 8.0812 367.7" style="stroke: rgb(244, 194, 23); stroke-width: 10.2; fill: rgb(255, 255, 62);"/>
        <path id="path3887" style="stroke: rgb(244, 194, 23); stroke-width: 9.223; fill: rgb(255, 255, 62);" d="m-809.3 2101.5-7.3635-358.36 34.011 346.37"/>
        <path id="path3889" style="stroke: rgb(244, 194, 23); stroke-width: 10.2; fill: rgb(255, 255, 62);" d="m-820.31 2110.7 16.072-356.04 16.522 367.41"/>
        <path id="path3891" d="m-793.15 2112.6-15.591-358.1 41.956 345.5" style="stroke: rgb(244, 194, 23); stroke-width: 9.223; fill: rgb(255, 255, 62);"/>
        <path id="path3893" style="stroke: rgb(244, 194, 23); stroke-linecap: round; stroke-width: 10.2; fill: rgb(255, 255, 62);" d="m-1478.9 1202.6c0 24.547-18.995 44.447-42.426 44.447-23.432 0-42.426-19.899-42.426-44.447 0-24.547 18.995-44.447 42.426-44.447 23.432 0 42.426 19.9 42.426 44.447z" transform="translate(711.15 516.49)"/>
        <path id="path3895" d="m-812.16 1670.6-8.0813-133.34h16.162z" style="stroke: rgb(244, 194, 23); stroke-width: 6; fill: rgb(255, 255, 62);"/>
        <path id="path3907" style="stroke: rgb(244, 44, 23); stroke-width: 10.2; fill: rgb(255, 255, 62);" d="m-387.9 2018.1 24.244-355.57 8.0812 367.7"/>
        <path id="path3909" d="m-360.8 2020.7-7.3635-358.36 34.011 346.37" style="stroke: rgb(244, 44, 23); stroke-width: 9.223; fill: rgb(255, 255, 62);"/>
        <path id="path3911" d="m-371.8 2029.9 16.072-356.04 16.522 367.41" style="stroke: rgb(244, 44, 23); stroke-width: 10.2; fill: rgb(255, 255, 62);"/>
        <path id="path3913" style="stroke: rgb(244, 44, 23); stroke-width: 9.223; fill: rgb(255, 255, 62);" d="M -876.337 1935.309 L 315.166 1703.886 L -741.832 1927.165" transform="matrix(0.507931, -0.237039, 3.130314, 0.507931, -5833.978793, 828.857065)"/>
        <path id="path3915" style="stroke: rgb(244, 44, 23); stroke-linecap: round; stroke-width: 10.2; fill: rgb(255, 255, 62);" d="m-1478.9 1202.6c0 24.547-18.995 44.447-42.426 44.447-23.432 0-42.426-19.899-42.426-44.447 0-24.547 18.995-44.447 42.426-44.447 23.432 0 42.426 19.9 42.426 44.447z" transform="translate(1159.7 435.68)"/>
        <path id="path3917" style="stroke: rgb(244, 44, 23); stroke-width: 6; fill: rgb(255, 255, 62);" d="m-363.65 1589.8-8.0813-133.34h16.162z"/>
        <path id="path3927" style="filter: url(#filter3935); stroke: rgb(139, 82, 8); stroke-width: 7.7; fill: rgb(255, 255, 62);" d="m-1798.1 111.6 76.772-101.02 64.65 96.975" transform="translate(0 702.36)"/>
        <path id="path3929" style="filter: url(#filter3939); stroke: rgb(139, 82, 8); stroke-width: 7.7; fill: rgb(255, 255, 62);" d="m-1349.6 131.81 80.812-113.14 92.934 117.18" transform="translate(0 702.36)"/>
        <path id="path3931" style="filter: url(#filter3943); stroke: rgb(139, 82, 8); stroke-width: 7.7; fill: rgb(255, 255, 62);" d="m-909.14 192.42 76.77-129.3 60.61 129.3" transform="translate(0 702.36)"/>
        <path id="path3933" style="filter: url(#filter3947); stroke: rgb(139, 82, 8); stroke-width: 7.7; fill: rgb(255, 255, 62);" d="m-468.71 95.442 68.69-113.14 84.853 133.34" transform="translate(0 702.36)"/>
        <path id="path3951" style="opacity: 0.20976; filter: url(#filter3975); stroke-width: 0; fill: rgb(255, 255, 62);" d="m-1612.2 503.54c0 87.031-34.372 157.58-76.772 157.58s-76.772-70.553-76.772-157.58c0-87.031 34.372-157.58 76.772-157.58s76.772 70.553 76.772 157.58z" transform="matrix(1.5834 0 0 1.1023 945.03 608.43)"/>
        <path id="path3957" style="opacity: 0.20976; filter: url(#filter3971); stroke-width: 0; fill: rgb(255, 255, 62);" d="m-1612.2 503.54c0 87.031-34.372 157.58-76.772 157.58s-76.772-70.553-76.772-157.58c0-87.031 34.372-157.58 76.772-157.58s76.772 70.553 76.772 157.58z" transform="matrix(1.5834 0 0 1.1023 1425.9 648.84)"/>
        <path id="path3959" style="opacity: 0.20976; filter: url(#filter3967); stroke-width: 0; fill: rgb(255, 255, 62);" d="m-1612.2 503.54c0 87.031-34.372 157.58-76.772 157.58s-76.772-70.553-76.772-157.58c0-87.031 34.372-157.58 76.772-157.58s76.772 70.553 76.772 157.58z" transform="matrix(1.5834 0 0 1.1023 1846.1 584.19)"/>
        <path id="path3961" style="opacity: 0.20976; filter: url(#filter3963); stroke-width: 0; fill: rgb(255, 255, 62);" d="m-1612.2 503.54c0 87.031-34.372 157.58-76.772 157.58s-76.772-70.553-76.772-157.58c0-87.031 34.372-157.58 76.772-157.58s76.772 70.553 76.772 157.58z" transform="matrix(1.5834 0 0 1.1023 2254.2 592.27)"/>
      </g>
    </g>
  </g>
  <g transform="matrix(0.109233, 0, 0, 0.109233, 406.571045, 659.192993)">
    <path stroke="#F3EDE9" stroke-width="0.0938" d="M -1350.228 987.464 C -1350.849 989.347 -1351.525 991.379 -1353.33 992.461 C -1360.174 997.458 -1365.177 1004.368 -1371.052 1010.369 C -1373.88 1014.164 -1376.468 1018.145 -1379.588 1021.72 C -1382.003 1024.356 -1383.611 1027.589 -1385.918 1030.303 C -1387.717 1032.449 -1388.548 1035.199 -1390.216 1037.44 C -1392.188 1040.184 -1393.826 1043.136 -1395.284 1046.185 C -1400.993 1055.754 -1405.236 1066.089 -1409.839 1076.214 C -1411.184 1080.303 -1413.24 1084.098 -1414.675 1088.157 C -1417.556 1095.862 -1419.618 1103.865 -1420.837 1111.994 C -1420.921 1115.234 -1420.986 1118.498 -1420.496 1121.713 C -1420.114 1124.098 -1420.478 1126.525 -1420.12 1128.916 C -1419.534 1132.634 -1419.444 1136.423 -1418.512 1140.087 C -1417.687 1143.303 -1417.573 1146.674 -1416.378 1149.801 C -1415.559 1152.024 -1415.446 1154.415 -1414.794 1156.68 C -1412.816 1161.881 -1408.482 1165.652 -1405.972 1170.542 C -1404.866 1172.389 -1403.108 1173.734 -1401.973 1175.569 C -1400.538 1177.852 -1398.345 1179.46 -1396.498 1181.378 C -1394.704 1183.16 -1393.007 1185.042 -1391.136 1186.758 C -1388.9 1188.802 -1386.205 1190.231 -1383.736 1191.97 C -1380.951 1193.955 -1377.502 1194.678 -1374.669 1196.614 C -1370.67 1199.376 -1365.763 1200.063 -1361.333 1201.874 C -1353.838 1204.056 -1345.906 1203.614 -1338.189 1203.399 C -1330.79 1202.795 -1324.131 1199.221 -1317.526 1196.124 C -1314.071 1194.594 -1311.178 1192.132 -1308.022 1190.093 C -1298.811 1183.757 -1290.658 1175.933 -1283.731 1167.164 C -1281.376 1164.08 -1280.066 1160.249 -1277.12 1157.625 C -1274.161 1154.116 -1270.186 1151.241 -1268.74 1146.68 C -1268.961 1146.387 -1269.397 1145.802 -1269.612 1145.509 C -1272.266 1146.722 -1274.914 1147.983 -1277.329 1149.627 C -1284.896 1155.443 -1294.322 1157.828 -1303.216 1160.823 C -1306.528 1162.09 -1310.12 1161.618 -1313.575 1161.677 C -1323.479 1161.749 -1333.647 1161.02 -1342.852 1157.081 C -1347.299 1154.851 -1352.098 1153.07 -1355.786 1149.621 C -1358.01 1147.434 -1360.873 1145.963 -1362.738 1143.417 C -1366.91 1139.029 -1371.435 1134.786 -1374.28 1129.352 C -1376.043 1126.244 -1377.012 1122.789 -1378.153 1119.43 C -1379.654 1115.192 -1379.283 1110.596 -1380.329 1106.256 C -1381.094 1103.698 -1380.239 1101.056 -1380.58 1098.468 C -1380.819 1096.471 -1380.921 1094.457 -1380.64 1092.467 C -1380.15 1089.305 -1381.19 1086.095 -1380.353 1082.963 C -1378.895 1076.298 -1377.424 1069.604 -1375.326 1063.106 C -1373.449 1056.203 -1370.024 1049.855 -1366.791 1043.519 C -1365.087 1039.538 -1362.834 1035.838 -1360.969 1031.935 C -1358.183 1026.119 -1354.065 1021.05 -1351.459 1015.145 C -1350.544 1013.023 -1348.966 1011.331 -1347.388 1009.694 C -1345.254 1007.524 -1344.974 1004.296 -1343.139 1001.941 C -1341.064 999.239 -1339.439 996.227 -1337.335 993.543 C -1334.203 989.245 -1330.497 985.36 -1327.705 980.823 C -1328.793 980.943 -1329.905 980.973 -1330.921 981.379 C -1337.042 984.272 -1343.611 986.119 -1350.228 987.464 Z" style="fill: rgb(91, 13, 61);" transform="matrix(-0.536029, 0.844199, -0.844199, -0.536029, -1143.640518, 2812.952697)"/>
    <path stroke="#F3EDE9" stroke-width="0.0938" d="M -1235.48 1323.684 C -1236.454 1326.23 -1238.881 1327.97 -1239.425 1330.689 C -1239.891 1332.859 -1241.457 1334.509 -1242.336 1336.487 C -1242.933 1338.693 -1243.244 1340.994 -1244.26 1343.074 C -1245.037 1344.975 -1246.627 1346.505 -1246.998 1348.573 C -1247.422 1350.498 -1248.068 1352.369 -1248.564 1354.282 C -1249.502 1357.766 -1249.7 1361.389 -1250.004 1364.975 C -1250.237 1367.127 -1249.275 1369.123 -1248.707 1371.149 C -1247.835 1374.228 -1246.765 1377.348 -1244.81 1379.93 C -1243.555 1380.976 -1241.923 1382.518 -1240.142 1381.897 C -1238.104 1381.287 -1235.946 1380.665 -1234.362 1379.165 C -1232.025 1376.929 -1229.353 1374.993 -1227.488 1372.303 C -1224.9 1368.514 -1221.863 1364.993 -1219.951 1360.785 C -1216.974 1354.329 -1213.119 1348.155 -1211.565 1341.144 C -1213.866 1343.54 -1217.219 1344.999 -1220.56 1344.365 C -1224.189 1343.349 -1227.345 1340.606 -1228.767 1337.103 C -1229.514 1335.298 -1230.519 1333.433 -1230.118 1331.419 C -1229.52 1328.579 -1231.409 1326.057 -1231.373 1323.254 C -1231.624 1320.396 -1230.22 1317.748 -1230.226 1314.915 C -1233.149 1317.001 -1233.71 1320.767 -1235.48 1323.684 Z" transform="matrix(-0.53603, 0.844199, -0.844199, -0.53603, -752.165739, 3110.343755)" style="fill: rgb(91, 13, 61);"/>
    <path stroke="#F3EDE9" stroke-width="0.0938" d="M -1305.076 1146.879 C -1302.022 1150.555 -1298.148 1153.466 -1295.154 1157.201 C -1292.434 1160.866 -1288.698 1163.561 -1285.471 1166.741 C -1281.926 1170.184 -1277.288 1172.067 -1273.301 1174.894 C -1271.46 1176.215 -1269.129 1176.335 -1267.043 1177.07 C -1259.559 1180.184 -1251.478 1181.463 -1243.558 1182.981 C -1250.677 1178.188 -1257.658 1173.179 -1264.215 1167.65 C -1265.991 1165.827 -1267.503 1163.765 -1269.434 1162.103 C -1271.681 1160.142 -1274.072 1158.337 -1276.062 1156.108 C -1278.262 1153.914 -1279.84 1151.141 -1282.344 1149.27 C -1286.612 1146.072 -1289.153 1141.266 -1292.273 1137.082 C -1294.98 1134.392 -1295.769 1130.549 -1297.622 1127.333 C -1298.937 1125.014 -1300.223 1122.569 -1302.338 1120.884 C -1304.974 1118.708 -1307.168 1115.863 -1310.479 1114.673 C -1312.918 1113.562 -1316.762 1113.657 -1317.903 1116.532 C -1320.701 1122.743 -1318.417 1130.089 -1313.934 1134.882 C -1311.352 1139.144 -1308.071 1142.904 -1305.076 1146.879 Z" transform="matrix(-0.536029, 0.8442, -0.8442, -0.536029, -998.617396, 2845.834709)" style="fill: rgb(91, 13, 61);"/>
    <path stroke="#F3EDE9" stroke-width="0.0938" d="M -1318.135 1116.078 C -1317.429 1117.363 -1316.365 1118.409 -1315.432 1119.538 C -1314.721 1119.449 -1313.992 1119.377 -1313.263 1119.311 C -1310.078 1122.933 -1304.763 1122.276 -1300.985 1124.948 C -1298.475 1126.353 -1295.469 1126 -1292.708 1126.424 C -1284.89 1126.675 -1277.154 1128.062 -1269.318 1128.098 C -1272.193 1124.338 -1276.975 1123.005 -1280.537 1120.058 C -1284.25 1116.801 -1288.846 1114.864 -1292.886 1112.091 C -1295.576 1110.076 -1298.792 1108.971 -1301.637 1107.219 C -1306.927 1104.679 -1312.917 1106.974 -1317.542 1109.849 C -1318.291 1111.804 -1318.302 1114.009 -1318.135 1116.078 Z" transform="matrix(-0.536029, 0.8442, -0.8442, -0.536029, -1044.20348, 2808.114614)" style="fill: rgb(91, 13, 61);"/>
    <path stroke="#F3EDE9" stroke-width="0.0938" d="M -1428.776 1101.776 C -1430.229 1105.661 -1431.532 1109.66 -1431.807 1113.826 C -1432.363 1120.293 -1431.149 1126.814 -1429.045 1132.917 C -1426.146 1138.996 -1423.206 1145.398 -1417.94 1149.827 C -1415.746 1151.482 -1413.265 1152.732 -1411.012 1154.31 C -1408.633 1155.977 -1405.68 1156.282 -1402.937 1156.987 C -1399.105 1157.938 -1395.136 1158.972 -1391.162 1158.356 C -1387.491 1157.233 -1384.527 1154.662 -1381.227 1152.797 C -1378.233 1151.106 -1375.848 1148.554 -1372.847 1146.874 C -1369.56 1144.961 -1366.189 1143.192 -1363.003 1141.106 C -1355.059 1135.691 -1347.157 1130.018 -1340.731 1122.798 C -1336.667 1118.494 -1332.106 1114.639 -1328.538 1109.881 C -1327.013 1107.902 -1325.214 1106.043 -1324.413 1103.622 C -1329.064 1107.263 -1333.421 1111.459 -1338.86 1113.915 C -1341.73 1115.446 -1344.473 1117.191 -1347.432 1118.548 C -1350.528 1120.084 -1354.019 1120.478 -1357.223 1121.746 C -1361.831 1122.959 -1366.583 1123.861 -1371.365 1123.766 C -1375.884 1123.838 -1380.612 1124.011 -1384.802 1122.027 C -1390.313 1119.767 -1394.401 1114.639 -1395.812 1108.906 C -1396.075 1106.569 -1396.188 1104.214 -1396.463 1101.889 C -1396.852 1098.673 -1394.957 1095.691 -1392.626 1093.664 C -1390.558 1091.925 -1388.824 1089.701 -1386.272 1088.637 C -1383.529 1087.562 -1381.688 1085.045 -1378.92 1084.017 C -1373.839 1081.841 -1368.4 1080.712 -1363.164 1078.978 C -1359.392 1077.657 -1355.34 1077.777 -1351.49 1076.82 C -1349.1 1076.247 -1346.637 1076.145 -1344.21 1075.822 C -1341.478 1075.464 -1338.89 1074.418 -1336.141 1074.167 C -1329.673 1073.904 -1324.138 1070.15 -1318.586 1067.227 C -1314.724 1065.284 -1311.413 1062.493 -1307.809 1060.138 C -1305.794 1058.781 -1304.306 1056.82 -1302.561 1055.159 C -1300.038 1052.613 -1297.229 1050.329 -1295.083 1047.43 C -1298.538 1048.106 -1301.347 1050.395 -1304.73 1051.244 C -1307.294 1051.883 -1309.369 1053.784 -1312.034 1054.089 C -1317.456 1055.123 -1322.758 1056.677 -1328.155 1057.759 C -1334.915 1057.872 -1341.688 1059.265 -1348.436 1058.207 C -1351.221 1057.675 -1354.055 1058.285 -1356.834 1057.819 C -1362.13 1056.677 -1367.587 1057.753 -1372.913 1056.803 C -1380.57 1055.386 -1388.579 1055.996 -1395.872 1058.739 C -1397.886 1059.845 -1399.59 1061.441 -1401.58 1062.595 C -1403.074 1063.437 -1404.132 1064.806 -1405.148 1066.145 C -1406.84 1068.41 -1409.297 1069.959 -1410.94 1072.272 C -1413.236 1075.565 -1415.979 1078.56 -1417.88 1082.122 C -1419.996 1085.954 -1422.937 1089.295 -1424.67 1093.348 C -1425.877 1096.235 -1427.718 1098.817 -1428.776 1101.776 Z" transform="matrix(-0.53603, 0.844199, -0.844199, -0.53603, -1163.255248, 2845.295125)" style="fill: rgb(91, 13, 61);"/>
    <path stroke="#F3EDE9" stroke-width="0.0938" d="M -1351.978 1091.345 C -1355.272 1092.483 -1358.123 1095.276 -1361.24 1097.102 C -1365.595 1099.54 -1370.164 1101.237 -1374.835 1101.182 C -1380.408 1103.449 -1386.081 1105.039 -1391.846 1105.641 C -1397.743 1106.222 -1402.763 1111.731 -1408.636 1112.322 C -1410.621 1112.848 -1412.211 1115.061 -1414.209 1115.565 C -1416.53 1116.274 -1419.037 1116.725 -1420.721 1119.528 C -1423.902 1124.147 -1428.543 1126.241 -1431.014 1131.955 C -1432.067 1135.048 -1432.891 1138.777 -1432.411 1142.267 C -1430.176 1148.229 -1427.146 1154.168 -1422.648 1156.444 C -1418.27 1159.817 -1413.271 1158.743 -1408.536 1158.872 C -1403.823 1158.959 -1399.224 1157.079 -1394.697 1155.285 C -1390.651 1153.739 -1387.299 1149.774 -1383.395 1147.66 C -1377.657 1144.362 -1372.965 1138.326 -1368.123 1132.869 C -1358.632 1124.555 -1352.322 1110.656 -1345.073 1098.682 C -1341.369 1091.58 -1337.251 1084.944 -1333.969 1077.382 C -1340.66 1079.97 -1345.222 1089.003 -1351.978 1091.345 Z" transform="matrix(-0.53603, 0.844199, -0.844199, -0.53603, -1180.779693, 2885.272889)" style="fill: rgb(91, 13, 61);"/>
    <path stroke="#F3EDE9" stroke-width="0.0938" d="M -1277.527 1439.626 C -1277.987 1441.364 -1278.325 1443.447 -1278.809 1445.132 C -1282.616 1457.864 -1286.679 1469.797 -1290.169 1483.575 C -1291.396 1487.175 -1292.177 1492.184 -1293.503 1495.429 C -1294.232 1497.212 -1294.46 1500.377 -1295.111 1502.398 C -1295.613 1503.985 -1296.102 1505.661 -1296.421 1507.753 C -1297.124 1512.284 -1298.154 1516.096 -1298.879 1520.592 C -1299.504 1524.431 -1300.288 1527.95 -1300.832 1531.94 C -1301.684 1538.155 -1303.028 1543.493 -1303.695 1550.018 C -1304.087 1553.698 -1304.885 1556.898 -1304.981 1560.915 C -1305.115 1564.825 -1305.502 1568.548 -1305.91 1572.21 C -1306.545 1577.804 -1306.793 1583.771 -1307.288 1589.508 C -1308.156 1604.589 -1309.058 1619.83 -1308.909 1635.275 C -1308.898 1638.591 -1308.511 1641.72 -1308.428 1645.019 C -1308.216 1655.197 -1307.659 1665.269 -1306.921 1675.163 C -1306.351 1685.652 -1305.489 1696.176 -1303.818 1705.326 C -1303.141 1710.149 -1302.605 1715.212 -1301.797 1719.832 C -1300.691 1726.047 -1299.76 1732.599 -1298.863 1739.186 C -1297.182 1748.805 -1294.7 1756.368 -1292.332 1763.993 C -1290.522 1770.891 -1288.459 1776.946 -1286.287 1782.488 C -1285.018 1785.556 -1284.082 1789.953 -1282.72 1792.604 C -1281.41 1795.822 -1279.925 1798.003 -1278.49 1800.468 C -1277.415 1802.206 -1276.246 1803.208 -1275.211 1805.229 C -1273.906 1807.747 -1272.444 1809.051 -1271.001 1810.327 C -1268.564 1812.207 -1266.224 1815.328 -1263.769 1816.959 C -1262.158 1817.474 -1260.597 1819.078 -1258.981 1819.45 C -1256.139 1820.284 -1253.276 1821.623 -1250.429 1820.293 C -1248.395 1819.372 -1246.225 1819.734 -1244.36 1816.357 C -1242.82 1813.697 -1241.233 1811.365 -1239.646 1809.051 C -1237.716 1803.678 -1235.423 1800.07 -1233.454 1794.875 C -1232.249 1790.973 -1231.104 1786.823 -1229.783 1783.357 C -1228.275 1779.651 -1227.007 1774.978 -1225.558 1771.025 C -1223.723 1765.927 -1222.998 1758.062 -1221.994 1751.094 C -1221.479 1746.855 -1220.765 1742.963 -1220.125 1738.946 C -1219.074 1731.127 -1217.957 1723.396 -1216.726 1715.885 C -1215.63 1708.837 -1214.694 1701.531 -1213.617 1694.456 C -1212.846 1686.193 -1212.668 1677.477 -1212.448 1668.886 C -1212.181 1659.373 -1211.321 1650.187 -1211.12 1640.656 C -1210.96 1636.082 -1210.566 1631.64 -1210.505 1627.029 C -1210.09 1616.869 -1210.364 1606.593 -1210.312 1596.37 C -1210.267 1591.042 -1210.838 1585.926 -1210.819 1580.606 C -1210.809 1576.457 -1210.958 1572.228 -1211.509 1568.477 C -1211.713 1568.291 -1212.124 1567.901 -1212.328 1567.715 C -1213.384 1572.857 -1213.447 1579.25 -1214.054 1585.004 C -1214.475 1589.721 -1214.712 1594.632 -1215.275 1599.216 C -1216.171 1606.735 -1216.666 1614.75 -1217.704 1622.073 C -1218.828 1631.595 -1220.224 1640.772 -1221.022 1650.702 C -1222.164 1662.804 -1223.853 1674.224 -1225.833 1684.996 C -1227.035 1691.495 -1227.783 1699.208 -1229.553 1704.288 C -1230.116 1706.079 -1230.298 1708.739 -1230.761 1710.787 C -1232.053 1715.912 -1233.692 1719.849 -1235.031 1724.823 C -1236.161 1728.981 -1237.502 1732.368 -1238.801 1735.878 C -1239.68 1738.184 -1240.457 1741.013 -1241.468 1742.662 C -1242.935 1744.957 -1244.112 1748.929 -1245.649 1750.766 C -1249.119 1756.474 -1252.944 1758.673 -1256.691 1761.235 C -1259.188 1763.098 -1261.758 1762.495 -1264.292 1762.53 C -1265.683 1762.415 -1267.116 1762.752 -1268.436 1761.005 C -1269.743 1759.356 -1271.192 1759.152 -1272.413 1756.732 C -1273.326 1755.003 -1274.348 1754.018 -1275.229 1752.104 C -1277.274 1747.875 -1279.407 1744.053 -1281.227 1738.716 C -1282.506 1735.728 -1283.497 1731.579 -1284.801 1728.724 C -1285.575 1727.146 -1285.881 1724.113 -1286.446 1721.879 C -1288.208 1714.68 -1289.565 1706.505 -1291.22 1699.057 C -1292.175 1694.261 -1292.847 1688.808 -1293.069 1683.072 C -1294.965 1673.904 -1295.783 1662.857 -1296.303 1651.952 C -1296.627 1643.653 -1297.875 1635.762 -1297.498 1627.215 C -1297.163 1617.782 -1297.901 1608.357 -1297.48 1598.95 C -1297.477 1590.652 -1296.847 1582.566 -1296.005 1574.834 C -1295.255 1568.007 -1294.789 1560.711 -1293.628 1554.487 C -1292.368 1547.474 -1291.688 1539.033 -1289.798 1533.518 C -1289.087 1530.238 -1288.841 1525.973 -1287.981 1523.003 C -1287.016 1519.607 -1286.156 1515.901 -1285.452 1511.832 C -1285.162 1511.69 -1284.856 1511.752 -1284.576 1511.424 C -1283.999 1509.464 -1283.847 1506.61 -1283.559 1504.127 C -1283.308 1501.228 -1282.613 1499.224 -1282.09 1496.901 C -1280.597 1489.959 -1279.02 1483.15 -1277.167 1477.254 C -1276.236 1474.186 -1275.519 1470.445 -1274.541 1467.528 C -1273.595 1464.433 -1272.324 1462.731 -1271.466 1459.3 C -1268.993 1449.849 -1265.994 1442.277 -1263.029 1434.723 C -1261.167 1430.796 -1259.562 1425.706 -1257.763 1421.477 C -1256.079 1416.512 -1254.178 1412.505 -1252.489 1407.557 C -1251.025 1403.266 -1249.409 1399.658 -1247.877 1395.668 C -1246.515 1392.148 -1244.959 1389.63 -1243.539 1386.403 C -1241.528 1381.722 -1239.264 1378.547 -1237.18 1374.292 C -1234.461 1368.573 -1231.493 1364.442 -1228.581 1360.053 C -1226.431 1355.691 -1223.961 1353.643 -1221.819 1349.201 C -1220.117 1345.645 -1218.237 1343.234 -1216.506 1339.865 C -1215.452 1337.808 -1214.265 1336.815 -1213.178 1335.015 C -1211.823 1332.869 -1210.573 1329.926 -1209.125 1328.507 C -1207.305 1326.654 -1205.629 1323.516 -1203.814 1321.618 C -1201.378 1319.277 -1198.967 1316.671 -1196.522 1314.437 C -1192.203 1308.452 -1187.635 1305.047 -1183.211 1300.118 C -1182.008 1298.593 -1180.452 1299.79 -1179.537 1296.172 C -1180.549 1295.862 -1181.582 1295.88 -1182.555 1296.97 C -1184.469 1298.903 -1186.482 1298.433 -1188.445 1299.072 C -1191.337 1300.641 -1194.25 1298.566 -1197.152 1298.761 C -1198.499 1298.832 -1199.749 1300.738 -1201.051 1301.661 C -1202.988 1302.973 -1204.934 1304.32 -1206.824 1306.289 C -1208.079 1308.541 -1209.559 1308.319 -1210.835 1310.376 C -1212.636 1313.293 -1214.569 1315.155 -1216.381 1318.01 C -1218.219 1320.075 -1219.863 1323.657 -1221.686 1325.856 C -1225.616 1331.264 -1229.577 1336.442 -1233.36 1342.959 C -1236.297 1348.562 -1239.552 1352.091 -1242.355 1358.519 C -1244.018 1362.526 -1245.832 1365.727 -1247.579 1369.273 C -1249.26 1372.722 -1251.069 1375.533 -1252.607 1379.727 C -1253.19 1381.216 -1253.153 1383.947 -1253.308 1386.146 C -1254.696 1389.24 -1256.469 1389.604 -1257.745 1393.318 C -1259.724 1397.547 -1261.952 1400.429 -1263.787 1405.43 C -1265.144 1408.852 -1266.611 1411.786 -1267.869 1415.643 C -1269.079 1419.358 -1270.572 1421.779 -1271.793 1425.458 C -1273.09 1428.366 -1274.191 1432.072 -1275.355 1435.539 C -1275.969 1437.516 -1276.811 1438.216 -1277.527 1439.626 Z" style="fill: rgb(91, 13, 61);"/>
    <path stroke="#F3EDE9" stroke-width="0.0938" d="M -1314.005 1263.499 C -1313.393 1266.739 -1313.242 1270.879 -1312.614 1274.1 C -1311.942 1277.35 -1311.958 1281.799 -1311.336 1285.149 C -1310.985 1287.159 -1310.614 1289.139 -1310.311 1291.289 C -1309.014 1300.399 -1307.463 1308.929 -1305.829 1317.189 C -1304.956 1321.119 -1303.497 1321.929 -1302.244 1320.659 C -1301.12 1320.299 -1300.48 1316.159 -1300.116 1312.549 C -1300.108 1307.319 -1300.226 1301.989 -1300.561 1296.919 C -1301.264 1290.399 -1302.391 1284.719 -1303.416 1278.919 C -1304.054 1275.089 -1305.066 1272.589 -1305.863 1269.339 C -1306.752 1265.759 -1307.638 1262.159 -1308.64 1259.039 C -1309.717 1255.73 -1310.303 1250.759 -1311.32 1247.239 C -1312.567 1242.899 -1313.362 1237.1 -1314.57 1232.629 C -1315.801 1226.919 -1316.798 1220.359 -1317.368 1213.259 C -1317.532 1213.739 -1317.689 1214.269 -1317.841 1214.829 C -1317.953 1223.619 -1317.572 1232.509 -1316.67 1240.619 C -1315.676 1248.059 -1315.31 1256.659 -1314.005 1263.499 Z" style="fill: rgb(91, 13, 61);"/>
    <path stroke="#F3EDE9" stroke-width="0.0938" d="M -1318.78 1284.529 C -1318.78 1275.329 -1319.737 1266.689 -1319.886 1257.559 C -1320.28 1246.469 -1321.698 1236.389 -1322.302 1225.479 C -1322.628 1225.949 -1323.078 1225.919 -1323.248 1227.319 C -1323.415 1228.849 -1323.295 1230.559 -1323.266 1232.179 C -1322.984 1238.739 -1323.319 1245.379 -1323.238 1251.989 C -1323.078 1259.649 -1323.258 1267.369 -1323.481 1274.999 C -1324.273 1290.22 -1324.035 1306.669 -1322.129 1320.6 C -1321.677 1323.119 -1320.934 1325.499 -1320.084 1325.22 C -1319.185 1323.539 -1318.233 1320.799 -1318.105 1316.709 C -1317.906 1311.98 -1318.136 1307.209 -1318.074 1302.47 C -1317.922 1296.289 -1318.829 1290.689 -1318.78 1284.529 Z" style="fill: rgb(91, 13, 61);"/>
    <path stroke="#F3EDE9" stroke-width="0.0938" d="M -1272.219 1661.05 C -1271.806 1665.09 -1271.732 1669.51 -1271.313 1673.56 C -1270.652 1680.19 -1269.473 1685.76 -1268.484 1691.68 C -1266.953 1700.49 -1264.38 1705.19 -1262.435 1712.43 C -1260.917 1718.69 -1258.863 1722.33 -1257.056 1727.16 C -1254.873 1733.39 -1252.264 1736.9 -1249.691 1740 C -1245.837 1746.12 -1241.635 1747.95 -1237.5 1748.97 C -1235.225 1749.52 -1233.009 1747.2 -1230.746 1746.79 C -1228.583 1744.89 -1226.399 1743.32 -1224.237 1741.38 C -1220.895 1737.74 -1217.605 1733.46 -1214.277 1729.63 C -1212.687 1728.88 -1211.319 1725.561 -1209.855 1723.35 C -1207.599 1719.66 -1205.376 1715.61 -1203.313 1710.49 C -1201.954 1708.2 -1200.681 1705.33 -1199.442 1702.22 C -1197.732 1699.09 -1196.383 1693.89 -1194.77 1690.191 C -1192.743 1685.36 -1190.75 1680.28 -1188.933 1674.34 C -1187.817 1670.571 -1186.363 1668.36 -1185.43 1663.8 C -1184.203 1658.17 -1182.682 1653.64 -1181.213 1648.99 C -1180.211 1645.8 -1179.444 1641.68 -1178.42 1638.6 C -1176.972 1634.15 -1175.943 1628.12 -1174.573 1623.37 C -1174.11 1621.75 -1173.698 1619.92 -1173.355 1617.92 C -1172.234 1611.35 -1170.844 1605.54 -1169.63 1599.23 C -1168.813 1594.74 -1167.948 1590.39 -1167.041 1586.17 C -1163.97 1570.54 -1161.328 1553.74 -1158.857 1536.66 C -1158.363 1532.79 -1158.022 1528.64 -1157.423 1524.97 C -1156.603 1519.76 -1156.079 1513.99 -1155.465 1508.41 C -1154.624 1500.72 -1154.213 1492.47 -1153.332 1484.83 C -1152.624 1474.28 -1150.932 1464.92 -1150.521 1454.07 C -1151.87 1456.79 -1151.926 1463.41 -1152.697 1467.92 C -1153.975 1476.03 -1154.765 1485.06 -1156.048 1493.16 C -1157.654 1505.35 -1159.354 1517.42 -1161.418 1528.57 C -1162.102 1533.27 -1163.182 1536.91 -1163.812 1541.73 C -1164.489 1546.82 -1165.598 1550.75 -1166.427 1555.45 C -1167.624 1562.41 -1168.933 1569.11 -1170.402 1575.26 C -1172.22 1582.02 -1173.821 1589.59 -1175.771 1595.82 C -1177.05 1600.63 -1178.504 1604.64 -1179.91 1608.87 C -1182.185 1616.66 -1184.682 1623.42 -1187.079 1630.64 C -1187.932 1633.09 -1188.915 1634.78 -1189.765 1637.23 C -1191.506 1642.23 -1193.494 1645.7 -1195.396 1649.68 C -1198.02 1655.06 -1200.723 1660.02 -1203.578 1663.34 C -1205.214 1665.91 -1206.883 1668.19 -1208.558 1670.35 C -1211.187 1673.56 -1213.969 1674.43 -1216.56 1678.07 C -1217.81 1679.71 -1219.154 1678.46 -1220.427 1679.58 C -1222.323 1680.06 -1224.151 1682.6 -1226.062 1682.09 C -1227.979 1681.7 -1229.9 1683.39 -1231.803 1682.11 C -1233.352 1681.18 -1234.938 1680.9 -1236.427 1678.89 C -1237.488 1677.39 -1238.651 1678.33 -1239.715 1676.94 C -1241.01 1675.36 -1242.366 1674.58 -1243.621 1672.59 C -1244.625 1670.92 -1245.779 1670.22 -1246.571 1667.12 C -1248.281 1667.06 -1249.693 1663.05 -1251.15 1660.18 C -1252.719 1657.18 -1253.953 1652.33 -1255.318 1648.23 C -1256.313 1645.34 -1256.964 1641.2 -1257.836 1637.85 C -1258.99 1633.75 -1259.521 1627.88 -1260.094 1622.44 C -1260.801 1615.75 -1260.959 1608.51 -1261.14 1601.42 C -1261.237 1596.37 -1261.772 1591.51 -1261.626 1586.42 C -1261.452 1581.29 -1262.04 1576.43 -1262.026 1571.35 C -1262.036 1562.71 -1261.038 1554.67 -1260.896 1546.11 C -1262.66 1549.78 -1264.052 1555.46 -1265.74 1559.58 C -1267.633 1563.75 -1269.198 1569.81 -1270.531 1576.35 C -1271.581 1583.36 -1272.079 1591.34 -1272.713 1599 C -1273.594 1610.11 -1273.858 1621.88 -1273.444 1633.39 C -1273.087 1642.62 -1273.136 1652.26 -1272.219 1661.05 Z" style="fill: rgb(91, 13, 61);"/>
    <path stroke="#F3EDE9" stroke-width="0.0938" d="M -1192.987 1591.967 C -1191.625 1587.547 -1189.879 1585.667 -1188.27 1582.987 C -1185.556 1579.347 -1182.984 1574.327 -1180.256 1570.817 C -1178.672 1568.797 -1176.915 1568.397 -1175.511 1564.607 C -1176.803 1564.707 -1178.018 1566.637 -1179.307 1566.807 C -1180.382 1567.047 -1181.407 1568.347 -1182.445 1569.327 C -1184.783 1571.927 -1187.154 1573.907 -1189.51 1576.227 C -1190.835 1577.397 -1192.08 1579.687 -1193.432 1580.437 C -1196.292 1581.917 -1198.941 1586.597 -1201.543 1591.117 C -1204.27 1594.367 -1206.707 1600.327 -1208.919 1607.137 C -1209.86 1610.397 -1210.383 1614.947 -1211.036 1619.017 C -1211.669 1622.947 -1212.048 1627.567 -1211.886 1632.227 C -1211.847 1637.087 -1210.663 1640.378 -1209.546 1641.667 C -1206.869 1642.607 -1204.17 1641.217 -1201.543 1639.237 C -1199.55 1637.248 -1197.485 1636.177 -1195.584 1633.017 C -1194.086 1630.587 -1192.412 1629.907 -1191.005 1626.647 C -1189.743 1623.807 -1188.278 1622.707 -1186.994 1620.027 C -1185.19 1616.347 -1183.235 1613.897 -1181.464 1609.957 C -1178.907 1605.227 -1176.489 1599.477 -1173.963 1594.537 C -1172.888 1591.037 -1171.625 1588.737 -1170.357 1586.467 C -1168.326 1581.648 -1166.067 1578.307 -1164.155 1572.778 C -1165.722 1572.577 -1167.28 1571.827 -1168.843 1571.677 C -1170.825 1577.608 -1173.126 1581.617 -1175.231 1586.837 C -1176.863 1590.237 -1178.46 1593.857 -1180.066 1597.437 C -1182.699 1601.758 -1185.217 1607.317 -1188.02 1609.967 C -1189.865 1611.827 -1191.743 1614.367 -1193.678 1613.567 C -1194.595 1612.697 -1195.801 1611.337 -1196.049 1607.337 C -1195.785 1604.867 -1195.307 1602.817 -1195.079 1600.287 C -1194.778 1596.337 -1193.733 1594.517 -1192.987 1591.967 Z" style="fill: rgb(255, 142, 4);"/>
    <path stroke="#F3EDE9" stroke-width="0.0938" d="M -1229.758 1690.209 C -1231.374 1681.149 -1233.633 1674.049 -1236.114 1668.659 C -1237.892 1665.019 -1239.317 1659.409 -1241.056 1655.549 C -1243.2 1651.359 -1244.847 1644.299 -1246.983 1640.049 C -1247.927 1638.169 -1248.641 1635.089 -1249.47 1632.629 C -1250.291 1630.149 -1251.073 1627.459 -1251.752 1624.429 C -1252.477 1621.179 -1253.347 1618.339 -1253.876 1614.539 C -1254.54 1609.899 -1255.206 1605.189 -1256.161 1601.319 C -1257.319 1596.769 -1257.915 1590.729 -1258.799 1585.459 C -1260.674 1574.189 -1262.13 1561.979 -1263.302 1549.429 C -1263.994 1538.039 -1264.734 1526.349 -1264.389 1514.579 C -1264.245 1509.699 -1264.204 1504.799 -1264.204 1499.899 C -1264.431 1499.939 -1264.656 1500.009 -1264.878 1500.099 C -1265.161 1504.029 -1265.728 1507.579 -1265.95 1511.589 C -1266.243 1513.049 -1266.609 1514.389 -1266.761 1516.189 C -1267.38 1524.029 -1267.584 1532.219 -1267.997 1540.229 C -1267.556 1546.489 -1267.681 1552.959 -1267.582 1559.369 C -1266.633 1579.929 -1264.737 1600.329 -1261.27 1616.709 C -1260.692 1619.599 -1260.496 1623.499 -1259.732 1625.889 C -1258.736 1629.119 -1258.138 1633.699 -1257.178 1637.069 C -1256.048 1641.109 -1255.07 1645.719 -1253.962 1649.849 C -1252.508 1655.109 -1251.601 1662.069 -1250.218 1667.569 C -1248.73 1674.189 -1248.581 1683.239 -1248.534 1691.559 C -1248.581 1694.849 -1248.879 1697.999 -1249.033 1701.239 C -1249.167 1704.749 -1249.844 1707.399 -1250.215 1710.559 C -1250.516 1713.299 -1251.256 1714.819 -1251.575 1717.529 C -1252.077 1721.98 -1253.149 1724.829 -1253.925 1728.529 C -1254.725 1732.25 -1255.834 1734.639 -1256.906 1737.029 C -1258.859 1741.809 -1260.995 1745.539 -1263.21 1748.11 C -1265.472 1749.669 -1267.809 1750.82 -1270.097 1749.35 C -1271.752 1748.1 -1273.512 1746.95 -1274.861 1742.8 C -1275.946 1739.68 -1277.361 1738.74 -1278.372 1735.19 C -1280.626 1726.47 -1283.317 1719.09 -1284.927 1708.239 C -1286.258 1702.049 -1286.59 1693.989 -1287.121 1686.489 C -1287.699 1679.009 -1287.903 1671.22 -1288.193 1663.549 C -1288.115 1658.849 -1287.994 1654.179 -1287.976 1649.48 C -1287.095 1628.379 -1285.85 1607.399 -1283.819 1587.449 C -1283.408 1579.769 -1282.475 1572.749 -1281.923 1565.239 C -1281.209 1557.759 -1280.218 1550.689 -1279.186 1543.789 C -1278.391 1537.73 -1277.253 1532.159 -1276.874 1525.429 C -1278.074 1527.679 -1278.971 1531.529 -1279.957 1534.859 C -1281.063 1538.639 -1282.198 1542.279 -1283.327 1545.97 C -1285.317 1552.359 -1286.854 1560.47 -1288.729 1567.329 C -1289.963 1571.559 -1290.528 1577.689 -1291.532 1582.619 C -1292.513 1587.179 -1292.688 1593.269 -1293.464 1598.249 C -1294.244 1603.089 -1294.557 1608.689 -1295.07 1613.959 C -1295.614 1619.659 -1296.16 1625.369 -1296.639 1631.169 C -1297.355 1639.23 -1297.481 1647.949 -1298.503 1655.63 C -1298.984 1663.13 -1299.86 1670.21 -1300.111 1677.919 C -1300.283 1681.49 -1300.822 1684.73 -1300.84 1688.439 C -1300.906 1695.709 -1300.676 1703.1 -1300.012 1709.95 C -1299.23 1717.1 -1298.333 1724.08 -1297.3 1730.75 C -1295.831 1738.059 -1294.649 1746.279 -1292.853 1752.569 C -1291.55 1756.949 -1290.295 1761.699 -1288.737 1764.769 C -1286.868 1768.5 -1285.05 1773.009 -1282.94 1774.49 C -1280.506 1776.23 -1278.205 1779.75 -1275.855 1782.63 C -1274.652 1784.319 -1273.331 1783.929 -1272.121 1785.569 C -1271.002 1787.019 -1269.867 1788.309 -1268.698 1789.1 C -1267.179 1790.079 -1265.697 1792.25 -1264.136 1792.139 C -1262.454 1792.019 -1260.797 1793.38 -1259.113 1793.399 C -1257.596 1793.449 -1256.075 1795.509 -1254.563 1794.1 C -1251.185 1790.829 -1247.545 1791.24 -1244.4 1784.919 C -1242.489 1780.949 -1240.598 1776.839 -1238.737 1772.539 C -1237.403 1769.439 -1236.538 1764.279 -1235.319 1760.659 C -1234.564 1758.23 -1233.68 1756.25 -1233.092 1753.169 C -1232.697 1750.38 -1232.6 1747.139 -1232.224 1744.329 C -1231.688 1740.179 -1231.086 1736.149 -1230.38 1732.409 C -1229.938 1729.97 -1229.473 1727.319 -1229.457 1724.25 C -1229.392 1716.99 -1229.394 1709.73 -1229.444 1702.479 C -1229.486 1698.389 -1229.243 1693.979 -1229.758 1690.209 Z" style="fill: rgb(91, 13, 61);"/>
    <path stroke="#F3EDE9" stroke-width="0.0938" d="M -1325.321 1577.469 C -1322.979 1574.579 -1320.688 1571.039 -1318.508 1566.649 C -1317.041 1565.029 -1315.896 1561.059 -1314.541 1558.569 C -1313.516 1556.449 -1312.47 1554.469 -1311.459 1552.259 C -1311.108 1551.669 -1311.04 1550.159 -1310.894 1548.989 C -1313.216 1548.809 -1315.548 1550.349 -1317.723 1553.469 C -1319.465 1555.909 -1321.449 1556.009 -1323 1560.259 C -1324.341 1563.929 -1326.056 1566.569 -1326.76 1572.719 C -1327.079 1575.869 -1326.082 1578.919 -1325.321 1577.469 Z" style="fill: rgb(91, 13, 61);"/>
    <path stroke="#F3EDE9" stroke-width="0.0938" d="M -1268.424 1698.169 C -1270.965 1703.039 -1274.273 1699.529 -1275.967 1690.999 C -1276.396 1688.839 -1276.417 1686.049 -1276.67 1683.639 C -1277.094 1680.959 -1277.802 1678.839 -1277.918 1675.579 C -1278.278 1668.619 -1278.451 1661.549 -1278.71 1654.549 C -1279.047 1645.789 -1279.709 1637.23 -1279.902 1628.399 C -1279.779 1616.36 -1279.272 1604.429 -1278.65 1592.639 C -1278.365 1583.639 -1276.924 1574.72 -1277.857 1565.6 C -1279.478 1573.73 -1279.902 1584.009 -1280.796 1593.399 C -1281.191 1599.11 -1282.119 1604.08 -1282.36 1609.98 C -1283.518 1620.029 -1283.853 1631.019 -1284.454 1641.669 C -1285.092 1651.209 -1285.053 1661.409 -1284.326 1670.87 C -1283.916 1680.049 -1283.184 1689.029 -1282.088 1697.37 C -1281.521 1702.839 -1280.281 1706.58 -1279.494 1711.53 C -1277.876 1717.8 -1276.092 1723.75 -1273.956 1727.3 C -1272.565 1729.6 -1271.245 1733.24 -1269.666 1733.17 C -1266.756 1733.52 -1263.594 1734.39 -1260.993 1728.4 C -1259.667 1725.08 -1258.148 1722.96 -1256.935 1718.98 C -1254.77 1712.27 -1253.007 1702.82 -1252.728 1691.97 C -1252.72 1685.74 -1252.994 1679.159 -1254.059 1674.21 C -1255.86 1666.12 -1257.536 1657.56 -1259.607 1650.41 C -1261.471 1642.72 -1262.92 1633.76 -1264.596 1625.5 C -1265.877 1620.06 -1266.857 1613.68 -1267.65 1607.05 C -1268.243 1601.42 -1269.085 1596.18 -1269.464 1590.25 C -1270.332 1591.64 -1271.062 1594.65 -1271.049 1598.44 C -1271.284 1603.96 -1270.325 1608.589 -1269.854 1613.52 C -1268.939 1623.43 -1267.522 1632.5 -1266.185 1641.65 C -1265.221 1649.07 -1264.12 1656.47 -1263.905 1664.9 C -1263.435 1672.19 -1264.13 1679.41 -1264.747 1686.24 C -1265.365 1692.279 -1266.905 1695.929 -1268.424 1698.169 Z" style="fill: rgb(255, 140, 0);"/>
    <path stroke="#F3EDE9" stroke-width="0.0938" d="M -1220.936 1685.519 C -1217.804 1685.419 -1214.653 1684.519 -1211.607 1681.569 C -1212.425 1678.849 -1213.469 1681.639 -1214.402 1680.769 C -1215.764 1679.899 -1217.16 1680.259 -1218.507 1678.999 C -1219.932 1677.679 -1221.412 1677.499 -1222.816 1675.889 C -1223.122 1676.879 -1223.441 1677.859 -1223.697 1679.049 C -1223.872 1681.209 -1223.524 1683.429 -1223.104 1684.829 C -1222.395 1685.409 -1221.66 1685.369 -1220.936 1685.519 Z" style="fill: rgb(91, 13, 61);"/>
    <path stroke="#F3EDE9" stroke-width="0.0938" d="M -1231.128 1780.549 C -1232.059 1782.6 -1233.073 1783.949 -1234.07 1785.399 C -1235.4 1787.259 -1236.417 1791.22 -1237.673 1793.63 C -1238.376 1795.049 -1239.163 1795.799 -1239.837 1797.449 C -1240.183 1798.6 -1240.363 1800.279 -1240.601 1801.769 C -1239.44 1802.009 -1238.287 1801.319 -1237.152 1800.429 C -1235.147 1798.839 -1233.094 1797.99 -1231.136 1795.589 C -1229.648 1793.719 -1228.022 1793.669 -1226.612 1790.879 C -1225.114 1787.969 -1223.585 1785.299 -1222.144 1781.969 C -1218.706 1773.889 -1215.069 1767.129 -1211.633 1759.029 C -1209.716 1755.869 -1208.25 1750.079 -1206.576 1745.519 C -1205.617 1742.899 -1204.754 1739.849 -1203.833 1737.049 C -1203.046 1734.689 -1202.487 1731.419 -1201.692 1729.099 C -1200.764 1726.339 -1199.862 1723.459 -1198.918 1720.799 C -1197.611 1717.159 -1196.748 1711.789 -1195.514 1707.839 C -1193.286 1699.059 -1190.666 1691.889 -1188.451 1683.059 C -1189.672 1684.059 -1190.904 1685.569 -1191.73 1689.389 C -1193.479 1694.029 -1195.145 1699.109 -1196.957 1703.399 C -1198.29 1708.169 -1200.136 1710.239 -1201.342 1715.559 C -1202.309 1719.719 -1203.682 1721.889 -1204.824 1725.209 C -1205.75 1727.889 -1206.793 1729.879 -1207.889 1731.299 C -1208.958 1732.529 -1209.706 1735.839 -1210.59 1738.229 C -1211.398 1740.439 -1212.404 1741.089 -1213.265 1742.889 C -1213.939 1744.219 -1214.501 1746.199 -1215.103 1747.939 C -1215.884 1750.309 -1216.928 1750.669 -1217.757 1752.719 C -1219.069 1755.789 -1220.178 1760.369 -1221.723 1761.739 C -1222.866 1762.799 -1223.828 1765.439 -1224.761 1768.059 C -1225.705 1770.779 -1226.968 1771.139 -1227.878 1774.109 C -1228.84 1777.079 -1230.074 1778.169 -1231.128 1780.549 Z" style="fill: rgb(91, 13, 61);"/>
    <path stroke="#F3EDE9" stroke-width="0.0938" d="M -1225.653 1744.639 C -1224.134 1743.169 -1222.581 1741.72 -1221.226 1738.569 C -1219.223 1734.169 -1217.03 1730.949 -1215.231 1725.299 C -1213.811 1720.959 -1212.138 1718.029 -1210.765 1713.47 C -1209.852 1710.519 -1208.788 1708.379 -1207.81 1705.779 C -1206.142 1701.429 -1204.074 1698.889 -1202.809 1692.559 C -1204.066 1693.999 -1205.358 1694.919 -1206.628 1696.139 C -1207.515 1696.859 -1208.14 1699.989 -1209.071 1700.119 C -1210.768 1700.489 -1212.091 1705.369 -1213.782 1705.899 C -1215.155 1706.329 -1216.086 1710.6 -1217.302 1712.519 C -1218.557 1714.549 -1219.71 1717.35 -1220.97 1719.339 C -1222.416 1721.519 -1223.389 1726.789 -1223.917 1732.199 C -1224.366 1736.589 -1225.038 1740.569 -1225.653 1744.639 Z" style="fill: rgb(91, 13, 61);"/>
  </g>
</svg>