<svg class="bottomOverlay" width="86" height="380" viewBox="202.715 584.407 86.593 380.048" preserveAspectRatio="xMidYMax" xmlns="http://www.w3.org/2000/svg"><defs><radialGradient id="c" spreadMethod="reflect" gradientUnits="userSpaceOnUse" cy="273.66" cx="291.32" gradientTransform="matrix(.26528 0 .16695 .28217 115.012 148.87)" r="2.31"><stop offset="0" stop-color="#e0b524"/><stop offset="1" stop-color="#f3d727"/></radialGradient><radialGradient id="b" spreadMethod="reflect" gradientUnits="userSpaceOnUse" cy="273.66" cx="291.32" gradientTransform="matrix(.2765 -.01154 .01128 .27025 154.227 158.235)" r="2.31"><stop offset="0" stop-color="#e0b524"/><stop offset="1" stop-color="#f3d727"/></radialGradient><radialGradient id="a" spreadMethod="reflect" gradientUnits="userSpaceOnUse" cy="273.66" cx="291.32" gradientTransform="matrix(.2637 -.08397 .08208 .25773 139.2 185.48)" r="2.31"><stop offset="0" stop-color="#e0b524"/><stop offset="1" stop-color="#f3d727"/></radialGradient><radialGradient id="d" spreadMethod="reflect" gradientUnits="userSpaceOnUse" cy="273.66" cx="291.32" gradientTransform="matrix(.19065 -.0686 .05933 .21052 165.74 194.569)" r="2.31"><stop offset="0" stop-color="#e0b524"/><stop offset="1" stop-color="#f3d727"/></radialGradient><radialGradient id="e" spreadMethod="reflect" gradientUnits="userSpaceOnUse" cy="273.66" cx="291.32" gradientTransform="matrix(.2765 -.01154 .01128 .27025 152.06 158.35)" r="2.31"><stop offset="0" stop-color="#e0b524"/><stop offset="1" stop-color="#f3d727"/></radialGradient><radialGradient id="f" spreadMethod="reflect" gradientUnits="userSpaceOnUse" cy="273.66" cx="291.32" gradientTransform="scale(1.0115 .98863)" r="2.31"><stop offset="0" stop-color="#e0b524"/><stop offset="1" stop-color="#f3d727"/></radialGradient><radialGradient id="g" spreadMethod="reflect" gradientUnits="userSpaceOnUse" cy="273.66" cx="291.32" gradientTransform="matrix(.2121 -.00787 .01869 .18436 173.52 187.016)" r="2.31"><stop offset="0" stop-color="#e0b524"/><stop offset="1" stop-color="#f3d727"/></radialGradient></defs><path fill="none" d="M202.715 584.431h86.593V700.24h-86.593z"/><path fill="none" d="M-403.988 499.579h1300v550h-1300z"/><path d="M222.342 744.381c0 13.657 19.104 15.287 31.262 14.098 12.531-1.226 14.14-6.355 15.325 3.678.557 4.714-4.812 2.408-9.195 2.452-17.69.176-24.468 5.62-36.779-5.517-10.205-9.232-9.446 1.227-5.517-8.581" stroke="#000" fill="#87ac48"/><path d="M215.6 752.349c0 15.507 19.996 16.551 34.326 16.551 3.412 0 7.867.511 13.486 0 .952-.087 2.229-.754 3.6-1.384 2.691-1.238 3.296-1.72 4.982 1.997 2.11 4.652-17.235 2.884-19.616 3.678-19.624 6.541-37.391-.324-37.391-18.39" stroke="#000" fill="#87ac48"/><path d="M212.535 764.609c1.646 0 6.51 7.546 8.581 8.582 2.825 1.412 8.864 2.12 11.034 4.291.933.932 7.729 0 9.195 0 7.346 0 15.311-3.492 20.841-3.065 11.38.879 10.83-10.218 14.712 5.517 1.278 5.181-16.103 1.076-22.068 3.065-19.449 6.483-42.295 2.177-42.295-19.003" stroke="#000" fill="#87ac48"/><g fill-rule="evenodd" stroke="#000" fill="#e0b524"><path d="M237.76 229.53c-1.09.39-1.78 1.73-1.48 2.62.32.97.75 1.39 2.13 1.75.09.44.21.78.48 1.18-1.6.15-3.19-.84-3.72-2.47-.55-1.66.26-3.47 2.27-4.12 2.08-.67 3.79.38 4.31 1.89.51 1.47-.07 3.76-1.64 4.32-.27-.31-.45-.64-.52-1.02.64-.25 1.4-2 1.02-3.04-.38-1.05-1.64-1.53-2.85-1.11z" stroke-width=".091" transform="matrix(-.01184 -1.00247 .60833 -.22838 129.978 1047.498)"/><path d="M235.54 226.82c-1.16.08-2.18 1.19-2.13 2.13.06 1.03.36 1.54 1.6 2.25-.03.45 0 .81.15 1.27-1.58-.28-2.85-1.65-2.94-3.37-.09-1.74 1.17-3.27 3.28-3.37 2.18-.1 3.55 1.36 3.66 2.96.11 1.55-1.06 3.6-2.72 3.74-.18-.38-.26-.74-.23-1.13.68-.07 1.88-1.56 1.78-2.66-.09-1.11-1.18-1.92-2.45-1.82z" stroke-width=".091" transform="matrix(-.01184 -1.00247 .60833 -.22838 129.978 1047.498)"/><path d="M294.41 262.73c-4.25.13-8.13 4.04-8.09 7.48.04 3.75 1.08 5.67 5.49 8.47-.18 1.62-.12 2.93.36 4.63-5.73-1.25-10.17-6.45-10.23-12.74-.05-6.38 4.78-11.76 12.5-11.81 7.98-.05 12.75 5.53 12.91 11.37.16 5.67-4.41 13-10.5 13.22-.62-1.38-.85-2.73-.69-4.15 2.49-.14 7.1-5.41 6.93-9.43-.17-4.08-4.02-7.18-8.68-7.04z" transform="matrix(.01546 -.27955 .16575 -.03131 215.366 852.795)" stroke-width=".25pt"/><g><path d="M237.76 229.53c-1.09.39-1.78 1.73-1.48 2.62.32.97.75 1.39 2.13 1.75.09.44.21.78.48 1.18-1.6.15-3.19-.84-3.72-2.47-.55-1.66.26-3.47 2.27-4.12 2.08-.67 3.79.38 4.31 1.89.51 1.47-.07 3.76-1.64 4.32-.27-.31-.45-.64-.52-1.02.64-.25 1.4-2 1.02-3.04-.38-1.05-1.64-1.53-2.85-1.11z" stroke-width=".091" transform="matrix(.1102 -1.02789 .59838 -.02304 98.568 1015.915)"/><path d="M235.54 226.82c-1.16.08-2.18 1.19-2.13 2.13.06 1.03.36 1.54 1.6 2.25-.03.45 0 .81.15 1.27-1.58-.28-2.85-1.65-2.94-3.37-.09-1.74 1.17-3.27 3.28-3.37 2.18-.1 3.55 1.36 3.66 2.96.11 1.55-1.06 3.6-2.72 3.74-.18-.38-.26-.74-.23-1.13.68-.07 1.88-1.56 1.78-2.66-.09-1.11-1.18-1.92-2.45-1.82z" stroke-width=".091" transform="matrix(.1102 -1.02789 .59838 -.02304 98.568 1015.915)"/><path d="M294.41 262.73c-4.25.13-8.13 4.04-8.09 7.48.04 3.75 1.08 5.67 5.49 8.47-.18 1.62-.12 2.93.36 4.63-5.73-1.25-10.17-6.45-10.23-12.74-.05-6.38 4.78-11.76 12.5-11.81 7.98-.05 12.75 5.53 12.91 11.37.16 5.67-4.41 13-10.5 13.22-.62-1.38-.85-2.73-.69-4.15 2.49-.14 7.1-5.41 6.93-9.43-.17-4.08-4.02-7.18-8.68-7.04z" transform="matrix(.04833 -.28016 .1593 .02529 202.24 846.574)" stroke-width=".25pt"/></g><g><path d="M237.76 229.53c-1.09.39-1.78 1.73-1.48 2.62.32.97.75 1.39 2.13 1.75.09.44.21.78.48 1.18-1.6.15-3.19-.84-3.72-2.47-.55-1.66.26-3.47 2.27-4.12 2.08-.67 3.79.38 4.31 1.89.51 1.47-.07 3.76-1.64 4.32-.27-.31-.45-.64-.52-1.02.64-.25 1.4-2 1.02-3.04-.38-1.05-1.64-1.53-2.85-1.11z" stroke-width=".091" transform="matrix(.2166 -1.01511 .56858 .16322 74.61 978.293)"/><path d="M235.54 226.82c-1.16.08-2.18 1.19-2.13 2.13.06 1.03.36 1.54 1.6 2.25-.03.45 0 .81.15 1.27-1.58-.28-2.85-1.65-2.94-3.37-.09-1.74 1.17-3.27 3.28-3.37 2.18-.1 3.55 1.36 3.66 2.96.11 1.55-1.06 3.6-2.72 3.74-.18-.38-.26-.74-.23-1.13.68-.07 1.88-1.56 1.78-2.66-.09-1.11-1.18-1.92-2.45-1.82z" stroke-width=".091" transform="matrix(.2166 -1.01511 .56858 .16322 74.61 978.293)"/><path d="M294.41 262.73c-4.25.13-8.13 4.04-8.09 7.48.04 3.75 1.08 5.67 5.49 8.47-.18 1.62-.12 2.93.36 4.63-5.73-1.25-10.17-6.45-10.23-12.74-.05-6.38 4.78-11.76 12.5-11.81 7.98-.05 12.75 5.53 12.91 11.37.16 5.67-4.41 13-10.5 13.22-.62-1.38-.85-2.73-.69-4.15 2.49-.14 7.1-5.41 6.93-9.43-.17-4.08-4.02-7.18-8.68-7.04z" transform="matrix(.07634 -.27097 .14793 .07554 191.194 837.746)" stroke-width=".25pt"/><g><path d="M237.76 229.53c-1.09.39-1.78 1.73-1.48 2.62.32.97.75 1.39 2.13 1.75.09.44.21.78.48 1.18-1.6.15-3.19-.84-3.72-2.47-.55-1.66.26-3.47 2.27-4.12 2.08-.67 3.79.38 4.31 1.89.51 1.47-.07 3.76-1.64 4.32-.27-.31-.45-.64-.52-1.02.64-.25 1.4-2 1.02-3.04-.38-1.05-1.64-1.53-2.85-1.11z" stroke-width=".091" transform="matrix(.32605 -.96187 .5137 .36317 55.059 926.28)"/><path d="M235.54 226.82c-1.16.08-2.18 1.19-2.13 2.13.06 1.03.36 1.54 1.6 2.25-.03.45 0 .81.15 1.27-1.58-.28-2.85-1.65-2.94-3.37-.09-1.74 1.17-3.27 3.28-3.37 2.18-.1 3.55 1.36 3.66 2.96.11 1.55-1.06 3.6-2.72 3.74-.18-.38-.26-.74-.23-1.13.68-.07 1.88-1.56 1.78-2.66-.09-1.11-1.18-1.92-2.45-1.82z" stroke-width=".091" transform="matrix(.32605 -.96187 .5137 .36317 55.059 926.28)"/><path d="M294.41 262.73c-4.25.13-8.13 4.04-8.09 7.48.04 3.75 1.08 5.67 5.49 8.47-.18 1.62-.12 2.93.36 4.63-5.73-1.25-10.17-6.45-10.23-12.74-.05-6.38 4.78-11.76 12.5-11.81 7.98-.05 12.75 5.53 12.91 11.37.16 5.67-4.41 13-10.5 13.22-.62-1.38-.85-2.73-.69-4.15 2.49-.14 7.1-5.41 6.93-9.43-.17-4.08-4.02-7.18-8.68-7.04z" transform="matrix(.10441 -.25036 .12965 .12826 181.447 823.027)" stroke-width=".25pt"/></g><g><path d="M237.76 229.53c-1.09.39-1.78 1.73-1.48 2.62.32.97.75 1.39 2.13 1.75.09.44.21.78.48 1.18-1.6.15-3.19-.84-3.72-2.47-.55-1.66.26-3.47 2.27-4.12 2.08-.67 3.79.38 4.31 1.89.51 1.47-.07 3.76-1.64 4.32-.27-.31-.45-.64-.52-1.02.64-.25 1.4-2 1.02-3.04-.38-1.05-1.64-1.53-2.85-1.11z" stroke-width=".091" transform="matrix(.38913 -.90747 .46773 .48331 44.114 890.681)"/><path d="M235.54 226.82c-1.16.08-2.18 1.19-2.13 2.13.06 1.03.36 1.54 1.6 2.25-.03.45 0 .81.15 1.27-1.58-.28-2.85-1.65-2.94-3.37-.09-1.74 1.17-3.27 3.28-3.37 2.18-.1 3.55 1.36 3.66 2.96.11 1.55-1.06 3.6-2.72 3.74-.18-.38-.26-.74-.23-1.13.68-.07 1.88-1.56 1.78-2.66-.09-1.11-1.18-1.92-2.45-1.82z" stroke-width=".091" transform="matrix(.38913 -.90747 .46773 .48331 44.114 890.681)"/><path d="M294.41 262.73c-4.25.13-8.13 4.04-8.09 7.48.04 3.75 1.08 5.67 5.49 8.47-.18 1.62-.12 2.93.36 4.63-5.73-1.25-10.17-6.45-10.23-12.74-.05-6.38 4.78-11.76 12.5-11.81 7.98-.05 12.75 5.53 12.91 11.37.16 5.67-4.41 13-10.5 13.22-.62-1.38-.85-2.73-.69-4.15 2.49-.14 7.1-5.41 6.93-9.43-.17-4.08-4.02-7.18-8.68-7.04z" transform="matrix(.12015 -.23188 .11522 .15926 174.095 813.458)" stroke-width=".25pt"/></g><g><path d="M237.76 229.53c-1.09.39-1.78 1.73-1.48 2.62.32.97.75 1.39 2.13 1.75.09.44.21.78.48 1.18-1.6.15-3.19-.84-3.72-2.47-.55-1.66.26-3.47 2.27-4.12 2.08-.67 3.79.38 4.31 1.89.51 1.47-.07 3.76-1.64 4.32-.27-.31-.45-.64-.52-1.02.64-.25 1.4-2 1.02-3.04-.38-1.05-1.64-1.53-2.85-1.11z" stroke-width=".091" transform="matrix(.4749 -.79232 .38035 .65522 37.116 827.047)"/><path d="M235.54 226.82c-1.16.08-2.18 1.19-2.13 2.13.06 1.03.36 1.54 1.6 2.25-.03.45 0 .81.15 1.27-1.58-.28-2.85-1.65-2.94-3.37-.09-1.74 1.17-3.27 3.28-3.37 2.18-.1 3.55 1.36 3.66 2.96.11 1.55-1.06 3.6-2.72 3.74-.18-.38-.26-.74-.23-1.13.68-.07 1.88-1.56 1.78-2.66-.09-1.11-1.18-1.92-2.45-1.82z" stroke-width=".091" transform="matrix(.4749 -.79232 .38035 .65522 37.116 827.047)"/><path d="M294.41 262.73c-4.25.13-8.13 4.04-8.09 7.48.04 3.75 1.08 5.67 5.49 8.47-.18 1.62-.12 2.93.36 4.63-5.73-1.25-10.17-6.45-10.23-12.74-.05-6.38 4.78-11.76 12.5-11.81 7.98-.05 12.75 5.53 12.91 11.37.16 5.67-4.41 13-10.5 13.22-.62-1.38-.85-2.73-.69-4.15 2.49-.14 7.1-5.41 6.93-9.43-.17-4.08-4.02-7.18-8.68-7.04z" transform="matrix(.14079 -.1953 .08883 .20246 168.41 793.094)" stroke-width=".25pt"/></g></g><g><path d="M237.76 229.53c-1.09.39-1.78 1.73-1.48 2.62.32.97.75 1.39 2.13 1.75.09.44.21.78.48 1.18-1.6.15-3.19-.84-3.72-2.47-.55-1.66.26-3.47 2.27-4.12 2.08-.67 3.79.38 4.31 1.89.51 1.47-.07 3.76-1.64 4.32-.27-.31-.45-.64-.52-1.02.64-.25 1.4-2 1.02-3.04-.38-1.05-1.64-1.53-2.85-1.11z" stroke-width=".091" transform="matrix(.55158 -.61426 .25683 .82449 40.63 746.518)"/><path d="M235.54 226.82c-1.16.08-2.18 1.19-2.13 2.13.06 1.03.36 1.54 1.6 2.25-.03.45 0 .81.15 1.27-1.58-.28-2.85-1.65-2.94-3.37-.09-1.74 1.17-3.27 3.28-3.37 2.18-.1 3.55 1.36 3.66 2.96.11 1.55-1.06 3.6-2.72 3.74-.18-.38-.26-.74-.23-1.13.68-.07 1.88-1.56 1.78-2.66-.09-1.11-1.18-1.92-2.45-1.82z" stroke-width=".091" transform="matrix(.55158 -.61426 .25683 .82449 40.63 746.518)"/><path d="M294.41 262.73c-4.25.13-8.13 4.04-8.09 7.48.04 3.75 1.08 5.67 5.49 8.47-.18 1.62-.12 2.93.36 4.63-5.73-1.25-10.17-6.45-10.23-12.74-.05-6.38 4.78-11.76 12.5-11.81 7.98-.05 12.75 5.53 12.91 11.37.16 5.67-4.41 13-10.5 13.22-.62-1.38-.85-2.73-.69-4.15 2.49-.14 7.1-5.41 6.93-9.43-.17-4.08-4.02-7.18-8.68-7.04z" transform="matrix(.15784 -.14169 .05289 .24301 166.584 765.62)" stroke-width=".25pt"/><g><path d="M237.76 229.53c-1.09.39-1.78 1.73-1.48 2.62.32.97.75 1.39 2.13 1.75.09.44.21.78.48 1.18-1.6.15-3.19-.84-3.72-2.47-.55-1.66.26-3.47 2.27-4.12 2.08-.67 3.79.38 4.31 1.89.51 1.47-.07 3.76-1.64 4.32-.27-.31-.45-.64-.52-1.02.64-.25 1.4-2 1.02-3.04-.38-1.05-1.64-1.53-2.85-1.11z" stroke-width=".091" transform="matrix(.59183 -.43674 .14119 .93078 51.341 678.183)"/><path d="M235.54 226.82c-1.16.08-2.18 1.19-2.13 2.13.06 1.03.36 1.54 1.6 2.25-.03.45 0 .81.15 1.27-1.58-.28-2.85-1.65-2.94-3.37-.09-1.74 1.17-3.27 3.28-3.37 2.18-.1 3.55 1.36 3.66 2.96.11 1.55-1.06 3.6-2.72 3.74-.18-.38-.26-.74-.23-1.13.68-.07 1.88-1.56 1.78-2.66-.09-1.11-1.18-1.92-2.45-1.82z" stroke-width=".091" transform="matrix(.59183 -.43674 .14119 .93078 51.341 678.183)"/><path d="M294.41 262.73c-4.25.13-8.13 4.04-8.09 7.48.04 3.75 1.08 5.67 5.49 8.47-.18 1.62-.12 2.93.36 4.63-5.73-1.25-10.17-6.45-10.23-12.74-.05-6.38 4.78-11.76 12.5-11.81 7.98-.05 12.75 5.53 12.91 11.37.16 5.67-4.41 13-10.5 13.22-.62-1.38-.85-2.73-.69-4.15 2.49-.14 7.1-5.41 6.93-9.43-.17-4.08-4.02-7.18-8.68-7.04z" transform="matrix(.16524 -.09016 .02022 .26646 167.202 741.213)" stroke-width=".25pt"/></g><g><path d="M237.76 229.53c-1.09.39-1.78 1.73-1.48 2.62.32.97.75 1.39 2.13 1.75.09.44.21.78.48 1.18-1.6.15-3.19-.84-3.72-2.47-.55-1.66.26-3.47 2.27-4.12 2.08-.67 3.79.38 4.31 1.89.51 1.47-.07 3.76-1.64 4.32-.27-.31-.45-.64-.52-1.02.64-.25 1.4-2 1.02-3.04-.38-1.05-1.64-1.53-2.85-1.11z" stroke-width=".091" transform="matrix(.60504 -.31399 .06426 .97903 60.069 634.342)"/><path d="M235.54 226.82c-1.16.08-2.18 1.19-2.13 2.13.06 1.03.36 1.54 1.6 2.25-.03.45 0 .81.15 1.27-1.58-.28-2.85-1.65-2.94-3.37-.09-1.74 1.17-3.27 3.28-3.37 2.18-.1 3.55 1.36 3.66 2.96.11 1.55-1.06 3.6-2.72 3.74-.18-.38-.26-.74-.23-1.13.68-.07 1.88-1.56 1.78-2.66-.09-1.11-1.18-1.92-2.45-1.82z" stroke-width=".091" transform="matrix(.60504 -.31399 .06426 .97903 60.069 634.342)"/><path d="M294.41 262.73c-4.25.13-8.13 4.04-8.09 7.48.04 3.75 1.08 5.67 5.49 8.47-.18 1.62-.12 2.93.36 4.63-5.73-1.25-10.17-6.45-10.23-12.74-.05-6.38 4.78-11.76 12.5-11.81 7.98-.05 12.75 5.53 12.91 11.37.16 5.67-4.41 13-10.5 13.22-.62-1.38-.85-2.73-.69-4.15 2.49-.14 7.1-5.41 6.93-9.43-.17-4.08-4.02-7.18-8.68-7.04z" transform="matrix(.16646 -.0553 -.0011 .2758 167.022 724.124)" stroke-width=".25pt"/></g><g><path d="M237.76 229.53c-1.09.39-1.78 1.73-1.48 2.62.32.97.75 1.39 2.13 1.75.09.44.21.78.48 1.18-1.6.15-3.19-.84-3.72-2.47-.55-1.66.26-3.47 2.27-4.12 2.08-.67 3.79.38 4.31 1.89.51 1.47-.07 3.76-1.64 4.32-.27-.31-.45-.64-.52-1.02.64-.25 1.4-2 1.02-3.04-.38-1.05-1.64-1.53-2.85-1.11z" stroke-width=".091" transform="matrix(.60565 -.1116 -.05818 1.02207 82.864 571.09)"/><path d="M235.54 226.82c-1.16.08-2.18 1.19-2.13 2.13.06 1.03.36 1.54 1.6 2.25-.03.45 0 .81.15 1.27-1.58-.28-2.85-1.65-2.94-3.37-.09-1.74 1.17-3.27 3.28-3.37 2.18-.1 3.55 1.36 3.66 2.96.11 1.55-1.06 3.6-2.72 3.74-.18-.38-.26-.74-.23-1.13.68-.07 1.88-1.56 1.78-2.66-.09-1.11-1.18-1.92-2.45-1.82z" stroke-width=".091" transform="matrix(.60565 -.1116 -.05818 1.02207 82.864 571.09)"/><path d="M294.41 262.73c-4.25.13-8.13 4.04-8.09 7.48.04 3.75 1.08 5.67 5.49 8.47-.18 1.62-.12 2.93.36 4.63-5.73-1.25-10.17-6.45-10.23-12.74-.05-6.38 4.78-11.76 12.5-11.81 7.98-.05 12.75 5.53 12.91 11.37.16 5.67-4.41 13-10.5 13.22-.62-1.38-.85-2.73-.69-4.15 2.49-.14 7.1-5.41 6.93-9.43-.17-4.08-4.02-7.18-8.68-7.04z" transform="matrix(.16287 .00103 -.03441 .2813 172.345 699.739)" stroke-width=".25pt"/></g></g></g><g fill-rule="evenodd" stroke="#000"><path d="M237.76 229.53c-1.09.39-1.78 1.73-1.48 2.62.32.97.75 1.39 2.13 1.75.09.44.21.78.48 1.18-1.6.15-3.19-.84-3.72-2.47-.55-1.66.26-3.47 2.27-4.12 2.08-.67 3.79.38 4.31 1.89.51 1.47-.07 3.76-1.64 4.32-.27-.31-.45-.64-.52-1.02.64-.25 1.4-2 1.02-3.04-.38-1.05-1.64-1.53-2.85-1.11z" stroke-width=".091" fill="url(#a)" transform="matrix(-.43849 -.76686 .21844 -.33503 328.27 1046.99)"/><path d="M235.54 226.82c-1.16.08-2.18 1.19-2.13 2.13.06 1.03.36 1.54 1.6 2.25-.03.45 0 .81.15 1.27-1.58-.28-2.85-1.65-2.94-3.37-.09-1.74 1.17-3.27 3.28-3.37 2.18-.1 3.55 1.36 3.66 2.96.11 1.55-1.06 3.6-2.72 3.74-.18-.38-.26-.74-.23-1.13.68-.07 1.88-1.56 1.78-2.66-.09-1.11-1.18-1.92-2.45-1.82z" stroke-width=".091" fill="url(#b)" transform="matrix(-.43849 -.76686 .21844 -.33503 328.27 1046.99)"/><path d="M294.41 262.73c-4.25.13-8.13 4.04-8.09 7.48.04 3.75 1.08 5.67 5.49 8.47-.18 1.62-.12 2.93.36 4.63-5.73-1.25-10.17-6.45-10.23-12.74-.05-6.38 4.78-11.76 12.5-11.81 7.98-.05 12.75 5.53 12.91 11.37.16 5.67-4.41 13-10.5 13.22-.62-1.38-.85-2.73-.69-4.15 2.49-.14 7.1-5.41 6.93-9.43-.17-4.08-4.02-7.18-8.68-7.04z" transform="matrix(-.1125 -.21877 .07285 -.06754 288.79 875.04)" stroke-width=".25pt" fill="url(#c)"/><g><path d="M237.76 229.53c-1.09.39-1.78 1.73-1.48 2.62.32.97.75 1.39 2.13 1.75.09.44.21.78.48 1.18-1.6.15-3.19-.84-3.72-2.47-.55-1.66.26-3.47 2.27-4.12 2.08-.67 3.79.38 4.31 1.89.51 1.47-.07 3.76-1.64 4.32-.27-.31-.45-.64-.52-1.02.64-.25 1.4-2 1.02-3.04-.38-1.05-1.64-1.53-2.85-1.11z" stroke-width=".091" fill="url(#a)" transform="matrix(-.38587 -.8184 .3018 -.1747 298.286 1030.974)"/><path d="M235.54 226.82c-1.16.08-2.18 1.19-2.13 2.13.06 1.03.36 1.54 1.6 2.25-.03.45 0 .81.15 1.27-1.58-.28-2.85-1.65-2.94-3.37-.09-1.74 1.17-3.27 3.28-3.37 2.18-.1 3.55 1.36 3.66 2.96.11 1.55-1.06 3.6-2.72 3.74-.18-.38-.26-.74-.23-1.13.68-.07 1.88-1.56 1.78-2.66-.09-1.11-1.18-1.92-2.45-1.82z" stroke-width=".091" fill="url(#b)" transform="matrix(-.38587 -.8184 .3018 -.1747 298.286 1030.974)"/><path d="M294.41 262.73c-4.25.13-8.13 4.04-8.09 7.48.04 3.75 1.08 5.67 5.49 8.47-.18 1.62-.12 2.93.36 4.63-5.73-1.25-10.17-6.45-10.23-12.74-.05-6.38 4.78-11.76 12.5-11.81 7.98-.05 12.75 5.53 12.91 11.37.16 5.67-4.41 13-10.5 13.22-.62-1.38-.85-2.73-.69-4.15 2.49-.14 7.1-5.41 6.93-9.43-.17-4.08-4.02-7.18-8.68-7.04z" transform="matrix(-.09564 -.22786 .0939 -.02237 279.268 873.705)" stroke-width=".25pt" fill="url(#c)"/></g><g><path d="M237.76 229.53c-1.09.39-1.78 1.73-1.48 2.62.32.97.75 1.39 2.13 1.75.09.44.21.78.48 1.18-1.6.15-3.19-.84-3.72-2.47-.55-1.66.26-3.47 2.27-4.12 2.08-.67 3.79.38 4.31 1.89.51 1.47-.07 3.76-1.64 4.32-.27-.31-.45-.64-.52-1.02.64-.25 1.4-2 1.02-3.04-.38-1.05-1.64-1.53-2.85-1.11z" stroke-width=".091" fill="url(#a)" transform="matrix(-.32493 -.83651 .36661 -.02382 269.58 1008.363)"/><path d="M235.54 226.82c-1.16.08-2.18 1.19-2.13 2.13.06 1.03.36 1.54 1.6 2.25-.03.45 0 .81.15 1.27-1.58-.28-2.85-1.65-2.94-3.37-.09-1.74 1.17-3.27 3.28-3.37 2.18-.1 3.55 1.36 3.66 2.96.11 1.55-1.06 3.6-2.72 3.74-.18-.38-.26-.74-.23-1.13.68-.07 1.88-1.56 1.78-2.66-.09-1.11-1.18-1.92-2.45-1.82z" stroke-width=".091" fill="url(#b)" transform="matrix(-.32493 -.83651 .36661 -.02382 269.58 1008.363)"/><path d="M294.41 262.73c-4.25.13-8.13 4.04-8.09 7.48.04 3.75 1.08 5.67 5.49 8.47-.18 1.62-.12 2.93.36 4.63-5.73-1.25-10.17-6.45-10.23-12.74-.05-6.38 4.78-11.76 12.5-11.81 7.98-.05 12.75 5.53 12.91 11.37.16 5.67-4.41 13-10.5 13.22-.62-1.38-.85-2.73-.69-4.15 2.49-.14 7.1-5.41 6.93-9.43-.17-4.08-4.02-7.18-8.68-7.04z" transform="matrix(-.07708 -.22815 .10965 .0192 269.706 869.823)" stroke-width=".25pt" fill="url(#c)"/><g><path d="M237.76 229.53c-1.09.39-1.78 1.73-1.48 2.62.32.97.75 1.39 2.13 1.75.09.44.21.78.48 1.18-1.6.15-3.19-.84-3.72-2.47-.55-1.66.26-3.47 2.27-4.12 2.08-.67 3.79.38 4.31 1.89.51 1.47-.07 3.76-1.64 4.32-.27-.31-.45-.64-.52-1.02.64-.25 1.4-2 1.02-3.04-.38-1.05-1.64-1.53-2.85-1.11z" stroke-width=".091" fill="url(#a)" transform="matrix(-.24495 -.82434 .42425 .14415 236.963 973.544)"/><path d="M235.54 226.82c-1.16.08-2.18 1.19-2.13 2.13.06 1.03.36 1.54 1.6 2.25-.03.45 0 .81.15 1.27-1.58-.28-2.85-1.65-2.94-3.37-.09-1.74 1.17-3.27 3.28-3.37 2.18-.1 3.55 1.36 3.66 2.96.11 1.55-1.06 3.6-2.72 3.74-.18-.38-.26-.74-.23-1.13.68-.07 1.88-1.56 1.78-2.66-.09-1.11-1.18-1.92-2.45-1.82z" stroke-width=".091" fill="url(#b)" transform="matrix(-.24495 -.82434 .42425 .14415 236.963 973.544)"/><path d="M294.41 262.73c-4.25.13-8.13 4.04-8.09 7.48.04 3.75 1.08 5.67 5.49 8.47-.18 1.62-.12 2.93.36 4.63-5.73-1.25-10.17-6.45-10.23-12.74-.05-6.38 4.78-11.76 12.5-11.81 7.98-.05 12.75 5.53 12.91 11.37.16 5.67-4.41 13-10.5 13.22-.62-1.38-.85-2.73-.69-4.15 2.49-.14 7.1-5.41 6.93-9.43-.17-4.08-4.02-7.18-8.68-7.04z" transform="matrix(-.05357 -.21969 .12286 .0645 258.28 861.075)" stroke-width=".25pt" fill="url(#c)"/></g><g><path d="M237.76 229.53c-1.09.39-1.78 1.73-1.48 2.62.32.97.75 1.39 2.13 1.75.09.44.21.78.48 1.18-1.6.15-3.19-.84-3.72-2.47-.55-1.66.26-3.47 2.27-4.12 2.08-.67 3.79.38 4.31 1.89.51 1.47-.07 3.76-1.64 4.32-.27-.31-.45-.64-.52-1.02.64-.25 1.4-2 1.02-3.04-.38-1.05-1.64-1.53-2.85-1.11z" stroke-width=".091" fill="url(#a)" transform="matrix(-.18862 -.7991 .45211 .2485 215.909 949.073)"/><path d="M235.54 226.82c-1.16.08-2.18 1.19-2.13 2.13.06 1.03.36 1.54 1.6 2.25-.03.45 0 .81.15 1.27-1.58-.28-2.85-1.65-2.94-3.37-.09-1.74 1.17-3.27 3.28-3.37 2.18-.1 3.55 1.36 3.66 2.96.11 1.55-1.06 3.6-2.72 3.74-.18-.38-.26-.74-.23-1.13.68-.07 1.88-1.56 1.78-2.66-.09-1.11-1.18-1.92-2.45-1.82z" stroke-width=".091" fill="url(#b)" transform="matrix(-.18862 -.7991 .45211 .2485 215.909 949.073)"/><path d="M294.41 262.73c-4.25.13-8.13 4.04-8.09 7.48.04 3.75 1.08 5.67 5.49 8.47-.18 1.62-.12 2.93.36 4.63-5.73-1.25-10.17-6.45-10.23-12.74-.05-6.38 4.78-11.76 12.5-11.81 7.98-.05 12.75 5.53 12.91 11.37.16 5.67-4.41 13-10.5 13.22-.62-1.38-.85-2.73-.69-4.15 2.49-.14 7.1-5.41 6.93-9.43-.17-4.08-4.02-7.18-8.68-7.04z" transform="matrix(-.0374 -.20962 .1287 .09209 250.323 855.655)" stroke-width=".25pt" fill="url(#c)"/></g><g><path d="M237.76 229.53c-1.09.39-1.78 1.73-1.48 2.62.32.97.75 1.39 2.13 1.75.09.44.21.78.48 1.18-1.6.15-3.19-.84-3.72-2.47-.55-1.66.26-3.47 2.27-4.12 2.08-.67 3.79.38 4.31 1.89.51 1.47-.07 3.76-1.64 4.32-.27-.31-.45-.64-.52-1.02.64-.25 1.4-2 1.02-3.04-.38-1.05-1.64-1.53-2.85-1.11z" stroke-width=".091" fill="url(#a)" transform="matrix(-.09428 -.73317 .48072 .40346 184.82 902.033)"/><path d="M235.54 226.82c-1.16.08-2.18 1.19-2.13 2.13.06 1.03.36 1.54 1.6 2.25-.03.45 0 .81.15 1.27-1.58-.28-2.85-1.65-2.94-3.37-.09-1.74 1.17-3.27 3.28-3.37 2.18-.1 3.55 1.36 3.66 2.96.11 1.55-1.06 3.6-2.72 3.74-.18-.38-.26-.74-.23-1.13.68-.07 1.88-1.56 1.78-2.66-.09-1.11-1.18-1.92-2.45-1.82z" stroke-width=".091" fill="url(#b)" transform="matrix(-.09428 -.73317 .48072 .40346 184.82 902.033)"/><path d="M294.41 262.73c-4.25.13-8.13 4.04-8.09 7.48.04 3.75 1.08 5.67 5.49 8.47-.18 1.62-.12 2.93.36 4.63-5.73-1.25-10.17-6.45-10.23-12.74-.05-6.38 4.78-11.76 12.5-11.81 7.98-.05 12.75 5.53 12.91 11.37.16 5.67-4.41 13-10.5 13.22-.62-1.38-.85-2.73-.69-4.15 2.49-.14 7.1-5.41 6.93-9.43-.17-4.08-4.02-7.18-8.68-7.04z" transform="matrix(-.01087 -.18694 .13359 .1322 238.58 841.505)" stroke-width=".25pt" fill="url(#c)"/></g></g><g><path d="M237.76 229.53c-1.09.39-1.78 1.73-1.48 2.62.32.97.75 1.39 2.13 1.75.09.44.21.78.48 1.18-1.6.15-3.19-.84-3.72-2.47-.55-1.66.26-3.47 2.27-4.12 2.08-.67 3.79.38 4.31 1.89.51 1.47-.07 3.76-1.64 4.32-.27-.31-.45-.64-.52-1.02.64-.25 1.4-2 1.02-3.04-.38-1.05-1.64-1.53-2.85-1.11z" stroke-width=".091" fill="url(#a)" transform="matrix(.02246 -.61652 .48937 .56588 151.923 839.26)"/><path d="M235.54 226.82c-1.16.08-2.18 1.19-2.13 2.13.06 1.03.36 1.54 1.6 2.25-.03.45 0 .81.15 1.27-1.58-.28-2.85-1.65-2.94-3.37-.09-1.74 1.17-3.27 3.28-3.37 2.18-.1 3.55 1.36 3.66 2.96.11 1.55-1.06 3.6-2.72 3.74-.18-.38-.26-.74-.23-1.13.68-.07 1.88-1.56 1.78-2.66-.09-1.11-1.18-1.92-2.45-1.82z" stroke-width=".091" fill="url(#b)" transform="matrix(.02246 -.61652 .48937 .56588 151.923 839.26)"/><path d="M294.41 262.73c-4.25.13-8.13 4.04-8.09 7.48.04 3.75 1.08 5.67 5.49 8.47-.18 1.62-.12 2.93.36 4.63-5.73-1.25-10.17-6.45-10.23-12.74-.05-6.38 4.78-11.76 12.5-11.81 7.98-.05 12.75 5.53 12.91 11.37.16 5.67-4.41 13-10.5 13.22-.62-1.38-.85-2.73-.69-4.15 2.49-.14 7.1-5.41 6.93-9.43-.17-4.08-4.02-7.18-8.68-7.04z" transform="matrix(.02113 -.15024 .13235 .17277 225.78 820.882)" stroke-width=".25pt" fill="url(#c)"/><g><path d="M237.76 229.53c-1.09.39-1.78 1.73-1.48 2.62.32.97.75 1.39 2.13 1.75.09.44.21.78.48 1.18-1.6.15-3.19-.84-3.72-2.47-.55-1.66.26-3.47 2.27-4.12 2.08-.67 3.79.38 4.31 1.89.51 1.47-.07 3.76-1.64 4.32-.27-.31-.45-.64-.52-1.02.64-.25 1.4-2 1.02-3.04-.38-1.05-1.64-1.53-2.85-1.11z" stroke-width=".091" fill="url(#a)" transform="matrix(.11999 -.49074 .47496 .67786 128.033 783.962)"/><path d="M235.54 226.82c-1.16.08-2.18 1.19-2.13 2.13.06 1.03.36 1.54 1.6 2.25-.03.45 0 .81.15 1.27-1.58-.28-2.85-1.65-2.94-3.37-.09-1.74 1.17-3.27 3.28-3.37 2.18-.1 3.55 1.36 3.66 2.96.11 1.55-1.06 3.6-2.72 3.74-.18-.38-.26-.74-.23-1.13.68-.07 1.88-1.56 1.78-2.66-.09-1.11-1.18-1.92-2.45-1.82z" stroke-width=".091" fill="url(#b)" transform="matrix(.11999 -.49074 .47496 .67786 128.033 783.962)"/><path d="M294.41 262.73c-4.25.13-8.13 4.04-8.09 7.48.04 3.75 1.08 5.67 5.49 8.47-.18 1.62-.12 2.93.36 4.63-5.73-1.25-10.17-6.45-10.23-12.74-.05-6.38 4.78-11.76 12.5-11.81 7.98-.05 12.75 5.53 12.91 11.37.16 5.67-4.41 13-10.5 13.22-.62-1.38-.85-2.73-.69-4.15 2.49-.14 7.1-5.41 6.93-9.43-.17-4.08-4.02-7.18-8.68-7.04z" transform="matrix(.0472 -.1126 .12544 .19936 215.576 801.973)" stroke-width=".25pt" fill="url(#c)"/></g><g><path d="M237.76 229.53c-1.09.39-1.78 1.73-1.48 2.62.32.97.75 1.39 2.13 1.75.09.44.21.78.48 1.18-1.6.15-3.19-.84-3.72-2.47-.55-1.66.26-3.47 2.27-4.12 2.08-.67 3.79.38 4.31 1.89.51 1.47-.07 3.76-1.64 4.32-.27-.31-.45-.64-.52-1.02.64-.25 1.4-2 1.02-3.04-.38-1.05-1.64-1.53-2.85-1.11z" stroke-width=".091" fill="url(#a)" transform="matrix(.1798 -.39992 .45569 .7351 113.673 747.999)"/><path d="M235.54 226.82c-1.16.08-2.18 1.19-2.13 2.13.06 1.03.36 1.54 1.6 2.25-.03.45 0 .81.15 1.27-1.58-.28-2.85-1.65-2.94-3.37-.09-1.74 1.17-3.27 3.28-3.37 2.18-.1 3.55 1.36 3.66 2.96.11 1.55-1.06 3.6-2.72 3.74-.18-.38-.26-.74-.23-1.13.68-.07 1.88-1.56 1.78-2.66-.09-1.11-1.18-1.92-2.45-1.82z" stroke-width=".091" fill="url(#b)" transform="matrix(.1798 -.39992 .45569 .7351 113.673 747.999)"/><path d="M294.41 262.73c-4.25.13-8.13 4.04-8.09 7.48.04 3.75 1.08 5.67 5.49 8.47-.18 1.62-.12 2.93.36 4.63-5.73-1.25-10.17-6.45-10.23-12.74-.05-6.38 4.78-11.76 12.5-11.81 7.98-.05 12.75 5.53 12.91 11.37.16 5.67-4.41 13-10.5 13.22-.62-1.38-.85-2.73-.69-4.15 2.49-.14 7.1-5.41 6.93-9.43-.17-4.08-4.02-7.18-8.68-7.04z" transform="matrix(.06287 -.08616 .11837 .21213 208.113 788.895)" stroke-width=".25pt" fill="url(#c)"/></g><g><path d="M237.76 229.53c-1.09.39-1.78 1.73-1.48 2.62.32.97.75 1.39 2.13 1.75.09.44.21.78.48 1.18-1.6.15-3.19-.84-3.72-2.47-.55-1.66.26-3.47 2.27-4.12 2.08-.67 3.79.38 4.31 1.89.51 1.47-.07 3.76-1.64 4.32-.27-.31-.45-.64-.52-1.02.64-.25 1.4-2 1.02-3.04-.38-1.05-1.64-1.53-2.85-1.11z" stroke-width=".091" fill="url(#a)" transform="matrix(.2674 -.24464 .41046 .8003 98.271 693.435)"/><path d="M237.707 226.705c-1.16.08-2.18 1.19-2.13 2.13.06 1.03.36 1.54 1.6 2.25-.03.45 1.144 1.297 1.294 1.757-1.58-.28-3.994-2.137-4.084-3.857-.09-1.74 1.17-3.27 3.28-3.37 2.18-.1 3.55 1.36 3.66 2.96.11 1.55-.42 3.853-2.08 3.993-.18-.38-.9-.993-.87-1.383.68-.07 1.88-1.56 1.78-2.66-.09-1.11-1.18-1.92-2.45-1.82z" transform="matrix(.33828 -.13007 .08982 .89492 154.835 644.518)" stroke-width=".091" fill="url(#b)"/><path d="M236.619 223.876c-1.092.037-1.45 1.153-.858 2.134.643 1.071 1.24 1.619 2.87 2.418.226.462.463.836.876 1.321-1.714-.356-3.756-1.841-4.834-3.636-1.091-1.821-.53-4 1.275-3.101 1.333.664 2.492 1.735 5.102 3.672 1.527 1.133 1.251 3.014-.309 3.077-.395-.394-.684-.779-.882-1.185.63-.04-.009-1.901-.732-3.048-.734-1.165-1.309-1.692-2.508-1.652z" transform="matrix(.36117 -.03008 -.16452 .88424 206.043 623.374)" stroke-width=".25pt" fill="url(#c)"/></g></g></g><g fill-rule="evenodd" stroke="#000"><path d="M236.996 230.549c-.788.319-.628 1.314-.411 2.041.231.793-.117 1.235.881 1.529.065.359.152.637.347.964-1.157.122-1.84-.714-2.404-1.98-.942-2.116-.098-2.872 1.356-3.403 1.503-.547.393 1.691 1.17 2.721.826 1.095 1.895 1.894.76 2.351a1.824 1.824 0 0 1-.376-.833c.463-.204-1.02-.593-1.295-1.443-.274-.858.847-2.29-.028-1.947z" transform="matrix(-.42112 -.12201 .26587 -.53033 322.59 972.185)" stroke-width=".091" fill="url(#d)"/><path d="M235.54 226.82c-1.16.08-2.18 1.19-2.13 2.13.06 1.03.36 1.54 1.6 2.25-.03.45 0 .81.15 1.27-1.58-.28-2.85-1.65-2.94-3.37-.09-1.74 1.17-3.27 3.28-3.37 2.18-.1 3.55 1.36 3.66 2.96.11 1.55-1.06 3.6-2.72 3.74-.18-.38-.26-.74-.23-1.13.68-.07 1.88-1.56 1.78-2.66-.09-1.11-1.18-1.92-2.45-1.82z" stroke-width=".091" fill="url(#e)" transform="matrix(-.42112 -.12201 .26587 -.53033 322.59 972.185)"/><path d="M294.41 262.73c-4.25.13-8.13 4.04-8.09 7.48.04 3.75 1.08 5.67 5.49 8.47-.18 1.62-.12 2.93.36 4.63-5.73-1.25-10.17-6.45-10.23-12.74-.05-6.38 4.78-11.76 12.5-11.81 7.98-.05 12.75 5.53 12.91 11.37.16 5.67-4.41 13-10.5 13.22-.62-1.38-.85-2.73-.69-4.15 2.49-.14 7.1-5.41 6.93-9.43-.17-4.08-4.02-7.18-8.68-7.04z" transform="matrix(-.10633 -.04945 .08521 -.14044 292.72 876.368)" stroke-width=".25pt" fill="url(#f)"/><path d="M240.244 233.687c-.889.054-1.633.812-1.56 1.453.085.703.26.447.568.879-.498.97-.365.955-.183 1.291-1.224-.191-1.159-.894-1.294-2.068a1.964 1.964 0 0 1 .054-.732c.235-.855 1.069-1.513 2.343-1.567 1.672-.067 2.224-.636 1.757-.084-.729.861-1.549 2.302-1.024 1.173-1.399-.926-.11.097-.102-.169.522-.048.182.273-.216-.016-.681-.493.629-.228-.343-.16z" transform="matrix(-.30817 .31186 -.3392 -.48671 437.639 857.84)" stroke-width=".091" fill="url(#g)"/><g><path d="M237.76 229.53c-1.09.39-1.78 1.73-1.48 2.62.32.97.75 1.39 2.13 1.75.09.44.21.78.48 1.18-1.6.15-3.19-.84-3.72-2.47-.55-1.66.26-3.47 2.27-4.12 2.08-.67 3.79.38 4.31 1.89.51 1.47-.07 3.76-1.64 4.32-.27-.31-.45-.64-.52-1.02.64-.25 1.4-2 1.02-3.04-.38-1.05-1.64-1.53-2.85-1.11z" stroke-width=".091" fill="url(#d)" transform="matrix(-.27524 -.63306 .31382 -.38442 277.634 1066.047)"/><path d="M235.54 226.82c-1.16.08-2.18 1.19-2.13 2.13.06 1.03.36 1.54 1.6 2.25-.03.45 0 .81.15 1.27-1.58-.28-2.85-1.65-2.94-3.37-.09-1.74 1.17-3.27 3.28-3.37 2.18-.1 3.55 1.36 3.66 2.96.11 1.55-1.06 3.6-2.72 3.74-.18-.38-.26-.74-.23-1.13.68-.07 1.88-1.56 1.78-2.66-.09-1.11-1.18-1.92-2.45-1.82z" stroke-width=".091" fill="url(#e)" transform="matrix(-.27524 -.63306 .31382 -.38442 277.634 1066.047)"/><path d="M294.41 262.73c-4.25.13-8.13 4.04-8.09 7.48.04 3.75 1.08 5.67 5.49 8.47-.18 1.62-.12 2.93.36 4.63-5.73-1.25-10.17-6.45-10.23-12.74-.05-6.38 4.78-11.76 12.5-11.81 7.98-.05 12.75 5.53 12.91 11.37.16 5.67-4.41 13-10.5 13.22-.62-1.38-.85-2.73-.69-4.15 2.49-.14 7.1-5.41 6.93-9.43-.17-4.08-4.02-7.18-8.68-7.04z" transform="matrix(-.0652 -.18391 .09377 -.08508 278.211 908.62)" stroke-width=".25pt" fill="url(#f)"/></g></g><g fill-rule="evenodd" stroke="#000"><path d="M237.76 229.53c-1.09.39-1.78 1.73-1.48 2.62.32.97.75 1.39 2.13 1.75.09.44.21.78.48 1.18-1.6.15-3.19-.84-3.72-2.47-.55-1.66.26-3.47 2.27-4.12 2.08-.67 3.79.38 4.31 1.89.51 1.47-.07 3.76-1.64 4.32-.27-.31-.45-.64-.52-1.02.64-.25 1.4-2 1.02-3.04-.38-1.05-1.64-1.53-2.85-1.11z" stroke-width=".091" fill="url(#d)" transform="matrix(-.19789 -.66152 .41194 -.16155 235.79 1028.35)"/><path d="M235.54 226.82c-1.16.08-2.18 1.19-2.13 2.13.06 1.03.36 1.54 1.6 2.25-.03.45 0 .81.15 1.27-1.58-.28-2.85-1.65-2.94-3.37-.09-1.74 1.17-3.27 3.28-3.37 2.18-.1 3.55 1.36 3.66 2.96.11 1.55-1.06 3.6-2.72 3.74-.18-.38-.26-.74-.23-1.13.68-.07 1.88-1.56 1.78-2.66-.09-1.11-1.18-1.92-2.45-1.82z" stroke-width=".091" fill="url(#e)" transform="matrix(-.19789 -.66152 .41194 -.16155 235.79 1028.35)"/><path d="M294.41 262.73c-4.25.13-8.13 4.04-8.09 7.48.04 3.75 1.08 5.67 5.49 8.47-.18 1.62-.12 2.93.36 4.63-5.73-1.25-10.17-6.45-10.23-12.74-.05-6.38 4.78-11.76 12.5-11.81 7.98-.05 12.75 5.53 12.91 11.37.16 5.67-4.41 13-10.5 13.22-.62-1.38-.85-2.73-.69-4.15 2.49-.14 7.1-5.41 6.93-9.43-.17-4.08-4.02-7.18-8.68-7.04z" transform="matrix(-.04115 -.1848 .11807 -.02361 262.944 898.31)" stroke-width=".25pt" fill="url(#f)"/><g><path d="M237.76 229.53c-1.09.39-1.78 1.73-1.48 2.62.32.97.75 1.39 2.13 1.75.09.44.21.78.48 1.18-1.6.15-3.19-.84-3.72-2.47-.55-1.66.26-3.47 2.27-4.12 2.08-.67 3.79.38 4.31 1.89.51 1.47-.07 3.76-1.64 4.32-.27-.31-.45-.64-.52-1.02.64-.25 1.4-2 1.02-3.04-.38-1.05-1.64-1.53-2.85-1.11z" stroke-width=".091" fill="url(#d)" transform="matrix(-.1114 -.68047 .44322 -.02583 206.343 1008.063)"/><path d="M235.54 226.82c-1.16.08-2.18 1.19-2.13 2.13.06 1.03.36 1.54 1.6 2.25-.03.45 0 .81.15 1.27-1.58-.28-2.85-1.65-2.94-3.37-.09-1.74 1.17-3.27 3.28-3.37 2.18-.1 3.55 1.36 3.66 2.96.11 1.55-1.06 3.6-2.72 3.74-.18-.38-.26-.74-.23-1.13.68-.07 1.88-1.56 1.78-2.66-.09-1.11-1.18-1.92-2.45-1.82z" stroke-width=".091" fill="url(#e)" transform="matrix(-.1114 -.68047 .44322 -.02583 206.343 1008.063)"/><path d="M294.41 262.73c-4.25.13-8.13 4.04-8.09 7.48.04 3.75 1.08 5.67 5.49 8.47-.18 1.62-.12 2.93.36 4.63-5.73-1.25-10.17-6.45-10.23-12.74-.05-6.38 4.78-11.76 12.5-11.81 7.98-.05 12.75 5.53 12.91 11.37.16 5.67-4.41 13-10.5 13.22-.62-1.38-.85-2.73-.69-4.15 2.49-.14 7.1-5.41 6.93-9.43-.17-4.08-4.02-7.18-8.68-7.04z" transform="matrix(-.01668 -.1858 .12392 .01387 251.955 894.44)" stroke-width=".25pt" fill="url(#f)"/></g><g><path d="M237.76 229.53c-1.09.39-1.78 1.73-1.48 2.62.32.97.75 1.39 2.13 1.75.09.44.21.78.48 1.18-1.6.15-3.19-.84-3.72-2.47-.55-1.66.26-3.47 2.27-4.12 2.08-.67 3.79.38 4.31 1.89.51 1.47-.07 3.76-1.64 4.32-.27-.31-.45-.64-.52-1.02.64-.25 1.4-2 1.02-3.04-.38-1.05-1.64-1.53-2.85-1.11z" stroke-width=".091" fill="url(#d)" transform="matrix(-.05374 -.67818 .45383 .0615 187.724 993.096)"/><path d="M235.54 226.82c-1.16.08-2.18 1.19-2.13 2.13.06 1.03.36 1.54 1.6 2.25-.03.45 0 .81.15 1.27-1.58-.28-2.85-1.65-2.94-3.37-.09-1.74 1.17-3.27 3.28-3.37 2.18-.1 3.55 1.36 3.66 2.96.11 1.55-1.06 3.6-2.72 3.74-.18-.38-.26-.74-.23-1.13.68-.07 1.88-1.56 1.78-2.66-.09-1.11-1.18-1.92-2.45-1.82z" stroke-width=".091" fill="url(#e)" transform="matrix(-.05374 -.67818 .45383 .0615 187.724 993.096)"/><path d="M294.41 262.73c-4.25.13-8.13 4.04-8.09 7.48.04 3.75 1.08 5.67 5.49 8.47-.18 1.62-.12 2.93.36 4.63-5.73-1.25-10.17-6.45-10.23-12.74-.05-6.38 4.78-11.76 12.5-11.81 7.98-.05 12.75 5.53 12.91 11.37.16 5.67-4.41 13-10.5 13.22-.62-1.38-.85-2.73-.69-4.15 2.49-.14 7.1-5.41 6.93-9.43-.17-4.08-4.02-7.18-8.68-7.04z" transform="matrix(-.00068 -.18249 .12503 .03754 244.172 892.375)" stroke-width=".25pt" fill="url(#f)"/></g><g><path d="M237.76 229.53c-1.09.39-1.78 1.73-1.48 2.62.32.97.75 1.39 2.13 1.75.09.44.21.78.48 1.18-1.6.15-3.19-.84-3.72-2.47-.55-1.66.26-3.47 2.27-4.12 2.08-.67 3.79.38 4.31 1.89.51 1.47-.07 3.76-1.64 4.32-.27-.31-.45-.64-.52-1.02.64-.25 1.4-2 1.02-3.04-.38-1.05-1.64-1.53-2.85-1.11z" stroke-width=".091" fill="url(#d)" transform="matrix(.03821 -.65213 .4554 .19604 162.356 960.763)"/><path d="M235.54 226.82c-1.16.08-2.18 1.19-2.13 2.13.06 1.03.36 1.54 1.6 2.25-.03.45 0 .81.15 1.27-1.58-.28-2.85-1.65-2.94-3.37-.09-1.74 1.17-3.27 3.28-3.37 2.18-.1 3.55 1.36 3.66 2.96.11 1.55-1.06 3.6-2.72 3.74-.18-.38-.26-.74-.23-1.13.68-.07 1.88-1.56 1.78-2.66-.09-1.11-1.18-1.92-2.45-1.82z" stroke-width=".091" fill="url(#e)" transform="matrix(.03821 -.65213 .4554 .19604 162.356 960.763)"/><path d="M294.41 262.73c-4.25.13-8.13 4.04-8.09 7.48.04 3.75 1.08 5.67 5.49 8.47-.18 1.62-.12 2.93.36 4.63-5.73-1.25-10.17-6.45-10.23-12.74-.05-6.38 4.78-11.76 12.5-11.81 7.98-.05 12.75 5.53 12.91 11.37.16 5.67-4.41 13-10.5 13.22-.62-1.38-.85-2.73-.69-4.15 2.49-.14 7.1-5.41 6.93-9.43-.17-4.08-4.02-7.18-8.68-7.04z" transform="matrix(.02437 -.17128 .12264 .07332 233.884 883.557)" stroke-width=".25pt" fill="url(#f)"/></g></g><g fill-rule="evenodd" stroke="#000"><path d="M237.76 229.53c-1.09.39-1.78 1.73-1.48 2.62.32.97.75 1.39 2.13 1.75.09.44.21.78.48 1.18-1.6.15-3.19-.84-3.72-2.47-.55-1.66.26-3.47 2.27-4.12 2.08-.67 3.79.38 4.31 1.89.51 1.47-.07 3.76-1.64 4.32-.27-.31-.45-.64-.52-1.02.64-.25 1.4-2 1.02-3.04-.38-1.05-1.64-1.53-2.85-1.11z" stroke-width=".091" fill="url(#d)" transform="matrix(.14516 -.587 .43334 .34516 138.048 914.353)"/><path d="M235.54 226.82c-1.16.08-2.18 1.19-2.13 2.13.06 1.03.36 1.54 1.6 2.25-.03.45 0 .81.15 1.27-1.58-.28-2.85-1.65-2.94-3.37-.09-1.74 1.17-3.27 3.28-3.37 2.18-.1 3.55 1.36 3.66 2.96.11 1.55-1.06 3.6-2.72 3.74-.18-.38-.26-.74-.23-1.13.68-.07 1.88-1.56 1.78-2.66-.09-1.11-1.18-1.92-2.45-1.82z" stroke-width=".091" fill="url(#e)" transform="matrix(.14516 -.587 .43334 .34516 138.048 914.353)"/><path d="M294.41 262.73c-4.25.13-8.13 4.04-8.09 7.48.04 3.75 1.08 5.67 5.49 8.47-.18 1.62-.12 2.93.36 4.63-5.73-1.25-10.17-6.45-10.23-12.74-.05-6.38 4.78-11.76 12.5-11.81 7.98-.05 12.75 5.53 12.91 11.37.16 5.67-4.41 13-10.5 13.22-.62-1.38-.85-2.73-.69-4.15 2.49-.14 7.1-5.41 6.93-9.43-.17-4.08-4.02-7.18-8.68-7.04z" transform="matrix(.05277 -.149 .11336 .11186 223.685 869.067)" stroke-width=".25pt" fill="url(#f)"/><g><path d="M237.76 229.53c-1.09.39-1.78 1.73-1.48 2.62.32.97.75 1.39 2.13 1.75.09.44.21.78.48 1.18-1.6.15-3.19-.84-3.72-2.47-.55-1.66.26-3.47 2.27-4.12 2.08-.67 3.79.38 4.31 1.89.51 1.47-.07 3.76-1.64 4.32-.27-.31-.45-.64-.52-1.02.64-.25 1.4-2 1.02-3.04-.38-1.05-1.64-1.53-2.85-1.11z" stroke-width=".091" fill="url(#d)" transform="matrix(.22899 -.50602 .3955 .4557 122.289 871.538)"/><path d="M235.54 226.82c-1.16.08-2.18 1.19-2.13 2.13.06 1.03.36 1.54 1.6 2.25-.03.45 0 .81.15 1.27-1.58-.28-2.85-1.65-2.94-3.37-.09-1.74 1.17-3.27 3.28-3.37 2.18-.1 3.55 1.36 3.66 2.96.11 1.55-1.06 3.6-2.72 3.74-.18-.38-.26-.74-.23-1.13.68-.07 1.88-1.56 1.78-2.66-.09-1.11-1.18-1.92-2.45-1.82z" stroke-width=".091" fill="url(#e)" transform="matrix(.22899 -.50602 .3955 .4557 122.289 871.538)"/><path d="M294.41 262.73c-4.25.13-8.13 4.04-8.09 7.48.04 3.75 1.08 5.67 5.49 8.47-.18 1.62-.12 2.93.36 4.63-5.73-1.25-10.17-6.45-10.23-12.74-.05-6.38 4.78-11.76 12.5-11.81 7.98-.05 12.75 5.53 12.91 11.37.16 5.67-4.41 13-10.5 13.22-.62-1.38-.85-2.73-.69-4.15 2.49-.14 7.1-5.41 6.93-9.43-.17-4.08-4.02-7.18-8.68-7.04z" transform="matrix(.0744 -.12358 .1005 .13942 216.036 855.199)" stroke-width=".25pt" fill="url(#f)"/></g></g></svg>