<?xml version="1.0" encoding="utf-8"?>
<svg class="glasses" width="86" height="380" viewBox="202.715 584.407 86.5933 380.048" preserveAspectRatio="xMidYMax" xmlns="http://www.w3.org/2000/svg">
  <defs id="svgEditorDefs">
    <path id="svgEditorClosePathDefs" class="skin" fill="black" style="stroke-width: 0px; stroke: none;"/>
    <pattern id="pattern-0" x="0" y="0" width="20" height="20" patternUnits="userSpaceOnUse" viewBox="0 0 100 100">
      <g transform="matrix(1.266405, 0, 0, 0.821518, -54.195454, -16.246807)">
        <title id="title4526">Blue Polo Shirt Remix by Merlin2525.svg</title>
        <g id="layer6">
          <path id="path3300" d="m42.081 23.955s7.5566-1.7712 11.335-3.9765c3.1436-1.8349 10.336-3.5235 10.336-3.5235" stroke-opacity=".21918" stroke="#d40000" stroke-width="1px" fill="none"/>
          <path id="path3318" d="m123.48 23.868s-8.5137-1.4268-11.933-4.2461c-3.2498-2.6797-11.294-3.6669-11.294-3.6669" stroke-opacity=".21961" stroke="#d40000" stroke-width="1px" fill="none"/>
          <path id="path3320" d="m157.93 28.81c-1.5068 2.8206-3.892 7.6536-3.6133 11.389 0.39558 5.3017-1.0741 8.4646-4.3221 10.808-4.1436 2.9902-4.3721 5.2216-4.6346 7.2352" stroke-opacity=".21961" stroke="#d40000" stroke-width="1px" fill="none"/>
          <path id="path3302" d="m6.3697 28.834c0.63299 1.2466 0.82265 3.321 0.84895 4.7315 0.050021 2.6831 1.0382 5.5318 2.4604 7.6655 1.3374 2.0064 2.5462 4.1906 3.1103 6.5311 0.54053 2.2426 1.3264 3.964 3.2806 5.4958 2.0555 1.6112 2.1401 3.544 3.2683 5.2972" stroke-opacity=".21961" stroke="#d40000" stroke-width="1px" fill="none"/>
          <path id="path3304" d="m39.501 138.96c5.4126 1.9642 11.259 0.48347 16.238 2.0288 4.4542 1.3825 9.6245 2.1971 13.766 1.9541 3.5578-0.20873 7.159-0.11034 10.735-0.30484 5.4876-0.29851 10.988 0.74416 16.482-0.16025 4.0113-0.66032 8.1315-1.3368 12.266-1.2372 5.7041 0.13736 11.4-0.82594 16.764-2.2806" stroke-opacity=".21961" stroke="#f9a" stroke-width="1px" fill="none"/>
          <path id="path3316" d="m125.28 17.232c-2.061 11.043-5.9702 25.399 0.52265 37.072" stroke-opacity=".21961" stroke="#d40000" stroke-width="1px" fill="none"/>
          <path id="path3298" d="m40.12 16.994c2.061 11.043 5.9134 25.617-0.5795 37.291" stroke-opacity=".21961" stroke="#d40000" stroke-width="1px" fill="none"/>
          <path id="path3322" d="m70.501 11.455c7.4037-2.3148 14.936-1.9888 23 0" stroke-opacity=".21961" stroke="#e35c72" stroke-width="1px" fill="none"/>
          <path id="rect3324" d="m80.251 22.205h3.75v23.25h-3.75v-23.25z" stroke-opacity=".21961" stroke="#ffb899" stroke-linecap="round" fill="url(#linearGradient5883)"/>
          <path id="path4388" d="m123.2 24.375s-8.787-1.5138-12.206-4.3331c-3.2498-2.6797-11.294-3.6669-11.294-3.6669" stroke-opacity=".031373" filter="url(#filter4410)" stroke="#000" stroke-width="1px" fill="none"/>
          <path id="path4414" d="m41.971 24.615s7.8861-1.7712 11.664-3.9765c3.1436-1.8349 10.336-3.5235 10.336-3.5235" stroke-opacity=".031373" filter="url(#filter4424)" stroke="#000" stroke-width="1px" fill="none"/>
          <path id="path4428" d="m41.131 17.235c2.061 11.043 6.2429 24.826-0.25 36.5" stroke-opacity=".03653" filter="url(#filter4434)" stroke="#000" stroke-width="1px" fill="none"/>
          <path id="path4438" d="m39.285 139.61c5.4126 1.9642 11.259 0.48347 16.238 2.0288 4.4542 1.3825 9.6245 2.1971 13.766 1.9541 3.5578-0.20873 7.159-0.11034 10.735-0.30484 5.4876-0.29851 10.988 0.74416 16.482-0.16025 4.0113-0.66032 8.1315-1.3368 12.266-1.2372 5.7041 0.13736 11.4-0.82594 16.764-2.2806" stroke-opacity=".063927" filter="url(#filter4440)" stroke="#000" stroke-width="1px" fill="none"/>
          <path id="path4458" d="m6.8749 28.834c0.63299 1.2466 0.82265 3.321 0.84895 4.7315 0.050021 2.6831 1.0382 5.5318 2.4604 7.6655 1.3374 2.0064 2.5462 4.1906 3.1103 6.5311 0.54053 2.2426 1.3264 3.964 3.2806 5.4958 2.0555 1.6112 2.1401 3.544 3.2683 5.2972" stroke-opacity=".054795" filter="url(#filter4464)" stroke="#000" stroke-width="1px" fill="none"/>
          <path id="path4468" d="m158.41 29.455c-1.5068 2.8206-3.892 7.6536-3.6133 11.389 0.39558 5.3017-1.0741 8.4646-4.3221 10.808-4.1436 2.9902-4.3721 5.2216-4.6346 7.2352" stroke-opacity=".054795" filter="url(#filter4482)" stroke="#000" stroke-width="1px" fill="none"/>
          <path id="path4486" d="m80.823 22.396h3.75v23.25h-3.75v-23.25z" stroke-opacity=".050228" filter="url(#filter4508)" stroke="#000" stroke-linecap="round" fill="none"/>
          <path id="path4512" d="m126.02 17.48c-2.061 11.043-5.9702 25.399 0.52265 37.072" stroke-opacity=".041096" filter="url(#filter4522)" stroke="#000" stroke-width="1px" fill="none"/>
        </g>
        <g id="layer1" stroke-width="1px" fill="none">
          <path id="path3580" stroke="#d40000" stroke-opacity=".68037" d="m92.71 39.542 0.34683 5.244c3.5038-0.56501 6.4043-0.52085 10.248 0.74082 4.5018 1.4779 6.6278-0.1283 10.423-0.93662 1.8419-0.39228 5.0362-0.52231 6.9213 0.25213 0.14875-2.0642 0.88366-3.8984-0.44732-5.5692 0 0-2.5393-0.72412-5.8767 0.21457-5.6639 1.593-7.8271 1.8719-13.018 0.06057-2.5029-0.87334-4.7177-1.2015-8.5967-0.0063z"/>
          <path id="path3584" stroke="#000" stroke-opacity=".050228" d="m92.71 39.183 0.34683 5.244c3.5038-0.56501 6.4043-0.52085 10.248 0.74082 4.5018 1.4779 6.6278-0.1283 10.423-0.93662 1.8419-0.39228 5.0362-0.52231 6.9213 0.25213 0.14875-2.0642 0.88366-3.8984-0.44732-5.5692 0 0-2.5393-0.72412-5.8767 0.21457-5.6639 1.593-7.8271 1.8719-13.018 0.06057-2.5029-0.87334-4.7177-1.2015-8.5967-0.0063z"/>
          <path id="path3582" stroke="#d40000" stroke-opacity=".77626" d="m93.068 45.162c1.0056 4.3596 0.44507 8.7015 0.16775 13.11 1.8993 1.7511 3.1905 3.5782 3.9383 5.4733 2.2407-0.01339 5.2651 0.52852 8.1953-0.04031 1.8553-0.36016 4.7498-0.17461 6.0792 0.03471 4.2368 0.6671 6.3157-0.08279 6.3157-0.08279 0.96847-1.7685 2.3182-3.0604 3.861-4.1109 0 0-1.5479-9.5737-0.93581-14.512"/>
          <path id="path4370" filter="url(#filter4384)" stroke="#000" stroke-opacity=".059361" d="m93.068 45.641c1.0056 4.3596 0.44507 8.7015 0.16775 13.11 1.8993 1.7511 3.1905 3.5782 3.9383 5.4733 2.2407-0.01339 5.2651 0.52852 8.1953-0.04031 1.8553-0.36016 4.7498-0.17461 6.0792 0.03471 4.2368 0.6671 6.3157-0.08279 6.3157-0.08279 0.96847-1.7685 2.3182-3.0604 3.861-4.1109 0 0-1.5479-9.5737-0.93581-14.512"/>
        </g>
        <g id="layer7">
          <g id="g6220" transform="matrix(.13890 0 0 .13890 65.716 29.466)">
            <path id="path6606" d="m568.57 398.79c0 104.54-84.746 189.29-189.29 189.29s-189.29-84.746-189.29-189.29 84.746-189.29 189.29-189.29 189.29 84.746 189.29 189.29z" fill="url(#radialGradient6237)" transform="matrix(.047213 0 0 .047213 101.51 -40.276)"/>
            <path id="path7128" d="m568.57 398.79c0 104.54-84.746 189.29-189.29 189.29s-189.29-84.746-189.29-189.29 84.746-189.29 189.29-189.29 189.29 84.746 189.29 189.29z" fill="url(#radialGradient6239)" transform="matrix(-.043293 0 0 .043293 135.9 -38.646)"/>
            <path id="path7132" filter="url(#filter7160)" d="m568.57 398.79c0 104.54-84.746 189.29-189.29 189.29s-189.29-84.746-189.29-189.29 84.746-189.29 189.29-189.29 189.29 84.746 189.29 189.29z" fill="url(#radialGradient6241)" transform="matrix(.039136 0 0 .039136 105 -37.155)"/>
            <g id="g7185" transform="matrix(.047213 0 0 .047213 101.79 -40.276)">
              <path id="path7167" d="m344.46 348.79c0 9.7631-7.9146 17.678-17.678 17.678-9.7631 0-17.678-7.9146-17.678-17.678 0-9.7631 7.9146-17.678 17.678-17.678 9.7631 0 17.678 7.9146 17.678 17.678z" transform="translate(10.102 15.152)" fill-opacity=".94118"/>
              <path id="path7175" d="m344.46 348.79c0 9.7631-7.9146 17.678-17.678 17.678-9.7631 0-17.678-7.9146-17.678-17.678 0-9.7631 7.9146-17.678 17.678-17.678 9.7631 0 17.678 7.9146 17.678 17.678z" transform="matrix(.9 0 0 .9 42.78 50.284)"/>
            </g>
            <g id="g7191" transform="matrix(.047213 0 0 .047213 105.18 -40.276)">
              <path id="path7193" d="m344.46 348.79c0 9.7631-7.9146 17.678-17.678 17.678-9.7631 0-17.678-7.9146-17.678-17.678 0-9.7631 7.9146-17.678 17.678-17.678 9.7631 0 17.678 7.9146 17.678 17.678z" transform="translate(10.102 15.152)" fill-opacity=".94118"/>
              <path id="path7195" d="m344.46 348.79c0 9.7631-7.9146 17.678-17.678 17.678-9.7631 0-17.678-7.9146-17.678-17.678 0-9.7631 7.9146-17.678 17.678-17.678 9.7631 0 17.678 7.9146 17.678 17.678z" transform="matrix(.9 0 0 .9 42.78 50.284)"/>
            </g>
            <g id="g7199" transform="matrix(.047213 0 0 .047213 105.18 -36.604)">
              <path id="path7201" d="m344.46 348.79c0 9.7631-7.9146 17.678-17.678 17.678-9.7631 0-17.678-7.9146-17.678-17.678 0-9.7631 7.9146-17.678 17.678-17.678 9.7631 0 17.678 7.9146 17.678 17.678z" transform="translate(10.102 15.152)" fill-opacity=".94118"/>
              <path id="path7203" d="m344.46 348.79c0 9.7631-7.9146 17.678-17.678 17.678-9.7631 0-17.678-7.9146-17.678-17.678 0-9.7631 7.9146-17.678 17.678-17.678 9.7631 0 17.678 7.9146 17.678 17.678z" transform="matrix(.9 0 0 .9 42.78 50.284)"/>
            </g>
            <g id="g7207" transform="matrix(.047213 0 0 .047213 101.82 -36.604)">
              <path id="path7209" d="m344.46 348.79c0 9.7631-7.9146 17.678-17.678 17.678-9.7631 0-17.678-7.9146-17.678-17.678 0-9.7631 7.9146-17.678 17.678-17.678 9.7631 0 17.678 7.9146 17.678 17.678z" transform="translate(10.102 15.152)" fill-opacity=".94118"/>
              <path id="path7211" d="m344.46 348.79c0 9.7631-7.9146 17.678-17.678 17.678-9.7631 0-17.678-7.9146-17.678-17.678 0-9.7631 7.9146-17.678 17.678-17.678 9.7631 0 17.678 7.9146 17.678 17.678z" transform="matrix(.9 0 0 .9 42.78 50.284)"/>
            </g>
          </g>
          <g id="g6243" transform="matrix(.13890 0 0 .13890 65.641 35.474)">
            <path id="path6245" d="m568.57 398.79c0 104.54-84.746 189.29-189.29 189.29s-189.29-84.746-189.29-189.29 84.746-189.29 189.29-189.29 189.29 84.746 189.29 189.29z" fill="url(#radialGradient6237)" transform="matrix(.047213 0 0 .047213 101.51 -40.276)"/>
            <path id="path6247" d="m568.57 398.79c0 104.54-84.746 189.29-189.29 189.29s-189.29-84.746-189.29-189.29 84.746-189.29 189.29-189.29 189.29 84.746 189.29 189.29z" fill="url(#radialGradient6239)" transform="matrix(-.043293 0 0 .043293 135.9 -38.646)"/>
            <path id="path6249" filter="url(#filter7160)" d="m568.57 398.79c0 104.54-84.746 189.29-189.29 189.29s-189.29-84.746-189.29-189.29 84.746-189.29 189.29-189.29 189.29 84.746 189.29 189.29z" fill="url(#radialGradient6241)" transform="matrix(.039136 0 0 .039136 105 -37.155)"/>
            <g id="g6251" transform="matrix(.047213 0 0 .047213 101.79 -40.276)">
              <path id="path6253" d="m344.46 348.79c0 9.7631-7.9146 17.678-17.678 17.678-9.7631 0-17.678-7.9146-17.678-17.678 0-9.7631 7.9146-17.678 17.678-17.678 9.7631 0 17.678 7.9146 17.678 17.678z" transform="translate(10.102 15.152)" fill-opacity=".94118"/>
              <path id="path6255" d="m344.46 348.79c0 9.7631-7.9146 17.678-17.678 17.678-9.7631 0-17.678-7.9146-17.678-17.678 0-9.7631 7.9146-17.678 17.678-17.678 9.7631 0 17.678 7.9146 17.678 17.678z" transform="matrix(.9 0 0 .9 42.78 50.284)"/>
            </g>
            <g id="g6257" transform="matrix(.047213 0 0 .047213 105.18 -40.276)">
              <path id="path6259" d="m344.46 348.79c0 9.7631-7.9146 17.678-17.678 17.678-9.7631 0-17.678-7.9146-17.678-17.678 0-9.7631 7.9146-17.678 17.678-17.678 9.7631 0 17.678 7.9146 17.678 17.678z" transform="translate(10.102 15.152)" fill-opacity=".94118"/>
              <path id="path6261" d="m344.46 348.79c0 9.7631-7.9146 17.678-17.678 17.678-9.7631 0-17.678-7.9146-17.678-17.678 0-9.7631 7.9146-17.678 17.678-17.678 9.7631 0 17.678 7.9146 17.678 17.678z" transform="matrix(.9 0 0 .9 42.78 50.284)"/>
            </g>
            <g id="g6263" transform="matrix(.047213 0 0 .047213 105.18 -36.604)">
              <path id="path6265" d="m344.46 348.79c0 9.7631-7.9146 17.678-17.678 17.678-9.7631 0-17.678-7.9146-17.678-17.678 0-9.7631 7.9146-17.678 17.678-17.678 9.7631 0 17.678 7.9146 17.678 17.678z" transform="translate(10.102 15.152)" fill-opacity=".94118"/>
              <path id="path6267" d="m344.46 348.79c0 9.7631-7.9146 17.678-17.678 17.678-9.7631 0-17.678-7.9146-17.678-17.678 0-9.7631 7.9146-17.678 17.678-17.678 9.7631 0 17.678 7.9146 17.678 17.678z" transform="matrix(.9 0 0 .9 42.78 50.284)"/>
            </g>
            <g id="g6269" transform="matrix(.047213 0 0 .047213 101.82 -36.604)">
              <path id="path6271" d="m344.46 348.79c0 9.7631-7.9146 17.678-17.678 17.678-9.7631 0-17.678-7.9146-17.678-17.678 0-9.7631 7.9146-17.678 17.678-17.678 9.7631 0 17.678 7.9146 17.678 17.678z" transform="translate(10.102 15.152)" fill-opacity=".94118"/>
              <path id="path6273" d="m344.46 348.79c0 9.7631-7.9146 17.678-17.678 17.678-9.7631 0-17.678-7.9146-17.678-17.678 0-9.7631 7.9146-17.678 17.678-17.678 9.7631 0 17.678 7.9146 17.678 17.678z" transform="matrix(.9 0 0 .9 42.78 50.284)"/>
            </g>
          </g>
          <g id="g6281" transform="matrix(.13890 0 0 .13890 65.62 41.386)">
            <path id="path6283" d="m568.57 398.79c0 104.54-84.746 189.29-189.29 189.29s-189.29-84.746-189.29-189.29 84.746-189.29 189.29-189.29 189.29 84.746 189.29 189.29z" fill="url(#radialGradient6237)" transform="matrix(.047213 0 0 .047213 101.51 -40.276)"/>
            <path id="path6285" d="m568.57 398.79c0 104.54-84.746 189.29-189.29 189.29s-189.29-84.746-189.29-189.29 84.746-189.29 189.29-189.29 189.29 84.746 189.29 189.29z" fill="url(#radialGradient6239)" transform="matrix(-.043293 0 0 .043293 135.9 -38.646)"/>
            <path id="path6287" filter="url(#filter7160)" d="m568.57 398.79c0 104.54-84.746 189.29-189.29 189.29s-189.29-84.746-189.29-189.29 84.746-189.29 189.29-189.29 189.29 84.746 189.29 189.29z" fill="url(#radialGradient6241)" transform="matrix(.039136 0 0 .039136 105 -37.155)"/>
            <g id="g6289" transform="matrix(.047213 0 0 .047213 101.79 -40.276)">
              <path id="path6291" d="m344.46 348.79c0 9.7631-7.9146 17.678-17.678 17.678-9.7631 0-17.678-7.9146-17.678-17.678 0-9.7631 7.9146-17.678 17.678-17.678 9.7631 0 17.678 7.9146 17.678 17.678z" transform="translate(10.102 15.152)" fill-opacity=".94118"/>
              <path id="path6293" d="m344.46 348.79c0 9.7631-7.9146 17.678-17.678 17.678-9.7631 0-17.678-7.9146-17.678-17.678 0-9.7631 7.9146-17.678 17.678-17.678 9.7631 0 17.678 7.9146 17.678 17.678z" transform="matrix(.9 0 0 .9 42.78 50.284)"/>
            </g>
            <g id="g6295" transform="matrix(.047213 0 0 .047213 105.18 -40.276)">
              <path id="path6297" d="m344.46 348.79c0 9.7631-7.9146 17.678-17.678 17.678-9.7631 0-17.678-7.9146-17.678-17.678 0-9.7631 7.9146-17.678 17.678-17.678 9.7631 0 17.678 7.9146 17.678 17.678z" transform="translate(10.102 15.152)" fill-opacity=".94118"/>
              <path id="path6299" d="m344.46 348.79c0 9.7631-7.9146 17.678-17.678 17.678-9.7631 0-17.678-7.9146-17.678-17.678 0-9.7631 7.9146-17.678 17.678-17.678 9.7631 0 17.678 7.9146 17.678 17.678z" transform="matrix(.9 0 0 .9 42.78 50.284)"/>
            </g>
            <g id="g6301" transform="matrix(.047213 0 0 .047213 105.18 -36.604)">
              <path id="path6303" d="m344.46 348.79c0 9.7631-7.9146 17.678-17.678 17.678-9.7631 0-17.678-7.9146-17.678-17.678 0-9.7631 7.9146-17.678 17.678-17.678 9.7631 0 17.678 7.9146 17.678 17.678z" transform="translate(10.102 15.152)" fill-opacity=".94118"/>
              <path id="path6305" d="m344.46 348.79c0 9.7631-7.9146 17.678-17.678 17.678-9.7631 0-17.678-7.9146-17.678-17.678 0-9.7631 7.9146-17.678 17.678-17.678 9.7631 0 17.678 7.9146 17.678 17.678z" transform="matrix(.9 0 0 .9 42.78 50.284)"/>
            </g>
            <g id="g6307" transform="matrix(.047213 0 0 .047213 101.82 -36.604)">
              <path id="path6309" d="m344.46 348.79c0 9.7631-7.9146 17.678-17.678 17.678-9.7631 0-17.678-7.9146-17.678-17.678 0-9.7631 7.9146-17.678 17.678-17.678 9.7631 0 17.678 7.9146 17.678 17.678z" transform="translate(10.102 15.152)" fill-opacity=".94118"/>
              <path id="path6311" d="m344.46 348.79c0 9.7631-7.9146 17.678-17.678 17.678-9.7631 0-17.678-7.9146-17.678-17.678 0-9.7631 7.9146-17.678 17.678-17.678 9.7631 0 17.678 7.9146 17.678 17.678z" transform="matrix(.9 0 0 .9 42.78 50.284)"/>
            </g>
          </g>
        </g>
        <g id="layer2" transform="translate(2.1015 2.3053)">
          <path id="path21805" opacity=".64198" d="m89.954 55.265s3.5877 12.867 3.2368 19.421c-0.18397 3.4356-2.0401 8.3748-2.4546 11.79-0.91034 7.501 0.37381 20.809 0.37381 20.809s-3.75-13.652-3.2368-20.577c0.3045-4.108 1.6555-9.5381 2.1114-13.632 0.72754-6.5324-0.03065-17.811-0.03065-17.811z" transform="matrix(.98537 .17045 -.17045 .98537 -34.669 -46.712)" filter="url(#filter4619-4)" style="fill-opacity: 0.81;"/>
          <path id="path21890" opacity=".35391" filter="url(#filter22155-9)" d="m61.826 49.19c4.4072 11.45 9.7518 22.483 7.1001 33.329-3.078 12.59 0.29211 25.59 0.40428 38.379-2.464-12.443-8.4376-24.85-6.6932-37.545 1.3084-9.5218-1.9162-22.353-0.81117-34.164z" style="fill-opacity: 0.81;"/>
          <path id="path21896" opacity=".49794" d="m103.67 74.764c4.5819 11.904 7.7278 24.366 4.2284 32.262-5.0677 11.434 3.1675 27.083 3.2759 39.447-2.8042-14.161-18.533-30.125-12.346-43.41 3.5226-7.5636 3.9118-18.364 4.8412-28.298z" transform="matrix(.99361 .11286 -.11286 .99361 6.4156 -53.502)" filter="url(#filter22189-8)" style="fill-opacity: 0.81;"/>
          <path id="path21898" opacity=".41152" filter="url(#filter21900-3)" d="m38.06 71.32c3.2163 1.1168 12.099-46.339 11.673-46.694 1.6246 27.975 5.8486 61.988-12.924 70.875 0.47622-7.9106 3.3619-9.741 1.2507-24.181z" style="fill-opacity: 0.81;"/>
          <path id="path21904" opacity=".37037" d="m65.004 71.382c-1.154-4.3201-3.3525 13.989-9.5975 24.005 0 0 1.5591-22.101 3.6431-25.264 6.69-10.153 13.248-20.42 13.041-20.593 0.61 10.508-4.082 20.834-2.677 31.821 2.164 16.921-1.965 17.836-13.687 23.389 0.476-7.915 10.241 0.19 9.277-33.358z" transform="matrix(-1 0 0 1 177.96 -10.233)" filter="url(#filter4567-9)" style="fill-opacity: 0.81;"/>
          <path id="path21906" opacity=".42798" d="m39.398 76.595c7.6131-5.8262 14.551-12.816 18.344-25.223-0.21868 8.0673 2.097 17.517-3.7522 22.513z" transform="matrix(1.0874 0 0 1.0874 -21.189 -28.375)" filter="url(#filter4173-0)" fill="url(#linearGradient4505-2)" style="fill-opacity: 0.81;"/>
          <path id="path21956" opacity=".39918" d="m160.09 72.842 1.2507-12.09 8.9636 9.172-16.051-27.099c2.9359 15.179-0.9187 15.756 5.8367 30.018z" transform="matrix(.87735 -.47985 .47985 .87735 -32.094 67.722)" filter="url(#filter22006-9)" style="fill-opacity: 0.81;"/>
          <path id="path21962" opacity=".30453" d="m81.506 138.92c5.0029 6.4621 5.5863 13.12 11.048 8.7551 5.9636-4.7656 0.56866-18.339 0.83382-27.516 1.518 11.951 10.414 22.338 2.7539 31.565-6.6496 8.0093-10.598-5.0836-14.636-12.804z" transform="matrix(.55077 .44552 -.44552 .55077 120.89 -14.178)" filter="url(#filter22014-2)" style="fill-opacity: 0.81;"/>
          <path id="path21968" opacity=".37449" d="m87.174 141.15s-3.6427 5.4542-4.586 8.5466c-1.2225 4.0076-0.14459 8.4661-1.2507 12.507-1.1326 4.1379-5.4198 11.673-5.4198 11.673l12.09-1.4592c-0.10539-4.3343-1.6273-8.7097-1.5497-12.922 0.10876-5.9009 3.6277-11.891 0.71588-18.346z" transform="matrix(-1 0 0 1 125.77 -33.322)" filter="url(#filter4535-8)" style="fill-opacity: 0.81;"/>
          <path id="path21974" opacity=".37449" d="m69.395 92.17-0.975-17.363 14.548 16.17-19.319-37.267c-1.4166 12.484-1.0102 24.199 5.7452 38.46z" transform="matrix(.30443 .95254 -.95254 .30443 70.357 -59.506)" filter="url(#filter22228-0)" style="fill-opacity: 0.81;"/>
          <path id="path21988" opacity=".5014" d="m77.337 151.85s5.1665 10.049 10.654 9.6218c7.9567-0.61945 9.4354-21.73 8.337-29.635-0.79682-5.7344 10.462-18.662 10.462-18.662s-6.7298 17.297-5.9551 23.457c0.94151 7.4855-4.9079 31.365-12.45 31.166-6.099-0.17-11.048-15.95-11.048-15.95z" transform="matrix(-.94217 0 0 .84552 150.32 -15.416)" filter="url(#filter4527-0)" style="fill-opacity: 0.81;"/>
          <path id="path22018" opacity=".41152" d="m93.596 86.137s7.0244 27.949 7.8912 34.802c0.6527 5.1603 0.4231 13.707-0.7251 16.52-2.8181 6.9033-0.86646 26.7-0.86646 26.7s-4.2493-18.899-2.7883-29.068c0.56924-3.9621 2.3503-10.338 1.7449-14.741-0.9013-6.5552-5.2563-34.213-5.2563-34.213z" transform="matrix(-1.5411 .24238 .38502 .97018 182.11 -80.79)" filter="url(#filter4195-2)" style="fill-opacity: 0.81;"/>
          <path id="path22020" opacity=".56379" d="M 86.867 73.244 C 84.727 94.142 86.349 129.368 73.426 142.739 L 81.032 147.905 C 93.667 125.407 87.123 94.203 86.868 73.244 Z" filter="url(#filter22163-6)" transform="matrix(0.894463, -0.635562, 0.314581, 0.894463, -26.224929, 63.217985)" style="fill-opacity: 0.81;"/>
          <path id="path22034" opacity=".40741" filter="url(#filter4203-8)" d="m53.802 76.532c0.206-14.412 3.49-40.959 12.647-52.74l4.1691 2.9184c-7.6229 11.096-13.773 36.69-16.816 49.821z" style="fill-opacity: 0.81;"/>
          <path id="path4177" opacity=".27572" d="m39.398 76.595c7.6131-5.8262 14.551-12.816 18.344-25.223-0.21868 8.0673 2.097 17.517-3.7522 22.513z" transform="matrix(-1.0874 0 0 1.0874 183.63 -28.154)" filter="url(#filter4173-0)" fill="url(#linearGradient4505-2)" style="fill-opacity: 0.81;"/>
          <path id="path4539" opacity=".34568" d="m93.596 86.137s9.6257 28.884 10.492 35.737c0.6527 5.1603-0.32089 12.309-1.4691 15.122-2.8181 6.9033-2.7238 27.164-2.7238 27.164s-4.2493-18.899-2.7883-29.068c0.56924-3.9621 2.3503-10.338 1.7449-14.741-0.9013-6.5552-5.2563-34.213-5.2563-34.213z" transform="matrix(.96844 .12055 -.24195 .48251 21.603 -23.642)" filter="url(#filter4541-0)" style="fill-opacity: 0.81;"/>
          <path id="path4545" opacity=".28395" d="m93.596 86.137s7.0244 27.949 7.8912 34.802c0.6527 5.1603 0.4231 13.707-0.7251 16.52-2.8181 6.9033-0.86646 26.7-0.86646 26.7s-4.2493-18.899-2.7883-29.068c0.56924-3.9621 2.3503-10.338 1.7449-14.741-0.9013-6.5552-5.2563-34.213-5.2563-34.213z" transform="matrix(-1.1875 .16551 .29666 .66250 194.91 -55.854)" filter="url(#filter4195-2)" style="fill-opacity: 0.81;"/>
          <path id="path4547" opacity=".76132" d="m163.97 86.529c-0.90701-8.5338-3.5973-13.911-2.6221-25.776l12.14 16.929-17.536-32.197c-0.84628 15.278 1.2625 26.783 8.0179 41.044z" transform="matrix(.68835 .72538 -.72538 .68835 47.783 -42.04)" filter="url(#filter22006-9)" style="fill-opacity: 0.81;"/>
          <path id="path4549" opacity=".37449" filter="url(#filter4535-8)" d="m123.99 108.59s-3.6427 5.4542-4.586 8.5466c-1.2225 4.0076-0.14459 8.4661-1.2507 12.507-1.1326 4.1379-5.4198 11.673-5.4198 11.673l12.09-1.4592c-0.10539-4.3343-1.6273-8.7097-1.5497-12.922 0.10876-5.9009 3.6277-11.891 0.71588-18.346z" style="fill-opacity: 0.81;"/>
          <path id="path4571" opacity=".56379" d="m138.47 139.1c-7.8161 19.045-8.1825 35.176-25.862 47.361l8.1861 1.4588c19.75-20.503 12.473-29.719 17.676-48.819z" transform="matrix(-.97116 -.23844 -.23844 .97116 217.23 -11.435)" filter="url(#filter22163-6)" style="fill-opacity: 0.81;"/>
          <path id="path4573" opacity=".5014" d="m77.337 151.85s5.1665 10.049 10.654 9.6218c7.9567-0.61945 9.841-13.593 8.7426-21.498-0.79682-5.7344 2.755-11.882 2.755-11.882s0.97755 8.257 1.7522 14.416c0.94151 7.4855-5.3135 25.488-12.855 25.29-6.1-0.17-11.049-15.95-11.049-15.95z" transform="matrix(.94217 0 0 .84552 -12.835 -.51077)" filter="url(#filter4527-0)" style="fill-opacity: 0.81;"/>
          <path id="path4575" opacity=".42798" filter="url(#filter4603-4)" d="m13.657 53.677c14.931-6.709 25.735-15.481 24.21-30.418-2.444 11.077-11.873 20.99-24.21 30.418z" style="fill-opacity: 0.81;"/>
          <path id="path4593" opacity=".37449" d="m69.395 92.17-0.975-17.363 14.548 16.17-19.319-37.267c-1.4166 12.484-1.0102 24.199 5.7452 38.46z" transform="matrix(-.30443 .95254 .95254 .30443 91.712 -60.747)" filter="url(#filter22228-0)" style="fill-opacity: 0.81;"/>
        </g>
      </g>
    </pattern>
    <filter id="filter4619-4" width="1.6977" y="-.05975" x="-.34883" height="1.1195" color-interpolation-filters="sRGB">
      <feGaussianBlur id="feGaussianBlur4621-4" stdDeviation="1.2810301"/>
    </filter>
    <filter id="filter22155-9" height="1.157" width="2.3718" y="-.078509" x="-.68589" color-interpolation-filters="sRGB">
      <feGaussianBlur id="feGaussianBlur22157-6" stdDeviation="2.3457246"/>
    </filter>
    <filter id="filter22189-8" height="1.09" width="2.0018" y="-.045006" x="-.50088" color-interpolation-filters="sRGB">
      <feGaussianBlur id="feGaussianBlur22191-8" stdDeviation="1.3520084"/>
    </filter>
    <filter id="filter21900-3" height="1.1037" width="1.5587" y="-.051838" x="-.27935" color-interpolation-filters="sRGB">
      <feGaussianBlur id="feGaussianBlur21902-7" stdDeviation="1.5308489"/>
    </filter>
    <filter id="filter4567-9" width="1.522" y="-.079143" x="-.261" height="1.1583" color-interpolation-filters="sRGB">
      <feGaussianBlur id="feGaussianBlur4569-1" stdDeviation="1.8204586"/>
    </filter>
    <linearGradient id="linearGradient4505-2" y2="64.654" gradientUnits="userSpaceOnUse" y1="72.514" x2="47.431" x1="56.824">
      <stop id="stop22169-6" offset="0"/>
      <stop id="stop22171-1" stop-color="#b3b3b3" stop-opacity="0" offset="1"/>
    </linearGradient>
    <filter id="filter4173-0" color-interpolation-filters="sRGB">
      <feGaussianBlur id="feGaussianBlur4175-8" stdDeviation="0.62121813"/>
    </filter>
    <filter id="filter22006-9" height="1.1939" width="1.3625" y="-.09693" x="-.18127" color-interpolation-filters="sRGB">
      <feGaussianBlur id="feGaussianBlur22008-4" stdDeviation="1.2123305"/>
    </filter>
    <filter id="filter22014-2" height="1.2195" width="1.4337" y="-.10975" x="-.21687" color-interpolation-filters="sRGB">
      <feGaussianBlur id="feGaussianBlur22016-4" stdDeviation="1.6043371"/>
    </filter>
    <filter id="filter4535-8" width="1.5125" y="-.097152" x="-.25626" height="1.1943" color-interpolation-filters="sRGB">
      <feGaussianBlur id="feGaussianBlur4537-8" stdDeviation="1.3248077"/>
    </filter>
    <filter id="filter22228-0" height="1.3534" width="1.3102" y="-.17668" x="-.15509" color-interpolation-filters="sRGB">
      <feGaussianBlur id="feGaussianBlur22230-3" stdDeviation="1.7328573"/>
    </filter>
    <filter id="filter4527-0" width="1.2932" y="-.1269" x="-.14658" height="1.2538" color-interpolation-filters="sRGB">
      <feGaussianBlur id="feGaussianBlur4529-4" stdDeviation="1.8078158"/>
    </filter>
    <filter id="filter4195-2" height="1.0595" width="1.3378" y="-.02975" x="-.16888" color-interpolation-filters="sRGB">
      <feGaussianBlur id="feGaussianBlur4197-0" stdDeviation="0.94011737"/>
    </filter>
    <filter id="filter22163-6" height="1.114" width="1.2445" y="-.056985" x="-.12224" color-interpolation-filters="sRGB">
      <feGaussianBlur id="feGaussianBlur22165-4" stdDeviation="1.3165579"/>
    </filter>
    <filter id="filter4203-8" height="1.1243" width="1.445" y="-.062155" x="-.2225" color-interpolation-filters="sRGB">
      <feGaussianBlur id="feGaussianBlur4205-1" stdDeviation="1.0689097"/>
    </filter>
    <filter id="filter4541-0" width="1.4573" y="-.04207" x="-.22864" height="1.0841" color-interpolation-filters="sRGB">
      <feGaussianBlur id="feGaussianBlur4543-5" stdDeviation="1.323434"/>
    </filter>
    <filter id="filter4603-4" width="1.3278" y="-.13122" x="-.1639" height="1.2624" color-interpolation-filters="sRGB">
      <feGaussianBlur id="feGaussianBlur4605-4" stdDeviation="1.6631027"/>
    </filter>
    <linearGradient id="linearGradient5883" y2="60.899" gradientUnits="userSpaceOnUse" y1="125.41" gradientTransform="translate(-36.374 -31.781)" x2="118.19" x1="118.23">
      <stop id="stop4185-6-7" stop-opacity=".44615" offset="0"/>
      <stop id="stop4187-5-6" stop-opacity="0" offset="1"/>
    </linearGradient>
    <filter id="filter7160" color-interpolation-filters="sRGB">
      <feGaussianBlur id="feGaussianBlur7162" stdDeviation="10.840151"/>
    </filter>
    <radialGradient id="radialGradient6237" gradientUnits="userSpaceOnUse" cy="306.83" cx="298.86" gradientTransform="matrix(1.9901 .00021103 -.00018758 1.7691 -333.04 -271.62)" r="189.29">
      <stop id="stop6210" stop-color="#fff" offset="0"/>
      <stop id="stop6212" stop-color="#333" offset="1"/>
    </radialGradient>
    <radialGradient id="radialGradient6239" gradientUnits="userSpaceOnUse" cy="406.01" cx="310.42" gradientTransform="matrix(1.9901 .00021103 -.00018758 1.7691 -333.04 -271.62)" r="189.29">
      <stop id="stop6216" stop-color="#fff" offset="0"/>
      <stop id="stop6218" offset="1"/>
    </radialGradient>
    <radialGradient id="radialGradient6241" gradientUnits="userSpaceOnUse" cy="423.23" cx="294.5" gradientTransform="matrix(1.9901 .00021103 -.00018758 1.7691 -333.04 -271.62)" r="189.29">
      <stop id="stop6204" stop-color="#fff" offset="0"/>
      <stop id="stop6206" stop-color="#888" offset="1"/>
    </radialGradient>
    <filter id="filter4384" color-interpolation-filters="sRGB">
      <feGaussianBlur id="feGaussianBlur4386" stdDeviation="0.33681905"/>
    </filter>
    <filter id="filter4410" color-interpolation-filters="sRGB">
      <feGaussianBlur id="feGaussianBlur4412" stdDeviation="0.28694332"/>
    </filter>
    <filter id="filter4424" color-interpolation-filters="sRGB">
      <feGaussianBlur id="feGaussianBlur4426" stdDeviation="0.23886637"/>
    </filter>
    <filter id="filter4434" height="1.0266" width="1.2786" y="-.013306" x="-.1393" color-interpolation-filters="sRGB">
      <feGaussianBlur id="feGaussianBlur4436" stdDeviation="0.2023608"/>
    </filter>
    <filter id="filter4440" height="1.4358" width="1.0203" y="-.2179" x="-.01017" color-interpolation-filters="sRGB">
      <feGaussianBlur id="feGaussianBlur4442" stdDeviation="0.36548822"/>
    </filter>
    <filter id="filter4464" color-interpolation-filters="sRGB">
      <feGaussianBlur id="feGaussianBlur4466" stdDeviation="0.21604081"/>
    </filter>
    <filter id="filter4482" color-interpolation-filters="sRGB">
      <feGaussianBlur id="feGaussianBlur4484" stdDeviation="0.42512894"/>
    </filter>
    <filter id="filter4508" height="1.0451" width="1.2798" y="-.022568" x="-.13992" color-interpolation-filters="sRGB">
      <feGaussianBlur id="feGaussianBlur4510" stdDeviation="0.21862348"/>
    </filter>
    <filter id="filter4522" height="1.0213" width="1.2204" y="-.010656" x="-.1102" color-interpolation-filters="sRGB">
      <feGaussianBlur id="feGaussianBlur4524" stdDeviation="0.16460332"/>
    </filter>
    <filter id="filter-1" width="1.6977" y="-.05975" x="-.34883" height="1.1195" color-interpolation-filters="sRGB">
      <feGaussianBlur id="feGaussianBlur-1" stdDeviation="1.2810301"/>
    </filter>
    <filter id="filter-2" height="1.157" width="2.3718" y="-.078509" x="-.68589" color-interpolation-filters="sRGB">
      <feGaussianBlur id="feGaussianBlur-2" stdDeviation="2.3457246"/>
    </filter>
    <filter id="filter-3" height="1.09" width="2.0018" y="-.045006" x="-.50088" color-interpolation-filters="sRGB">
      <feGaussianBlur id="feGaussianBlur-3" stdDeviation="1.3520084"/>
    </filter>
    <filter id="filter-4" height="1.1037" width="1.5587" y="-.051838" x="-.27935" color-interpolation-filters="sRGB">
      <feGaussianBlur id="feGaussianBlur-4" stdDeviation="1.5308489"/>
    </filter>
    <filter id="filter-5" width="1.522" y="-.079143" x="-.261" height="1.1583" color-interpolation-filters="sRGB">
      <feGaussianBlur id="feGaussianBlur-5" stdDeviation="1.8204586"/>
    </filter>
    <filter id="filter-7" height="1.1939" width="1.3625" y="-.09693" x="-.18127" color-interpolation-filters="sRGB">
      <feGaussianBlur id="feGaussianBlur-7" stdDeviation="1.2123305"/>
    </filter>
    <filter id="filter-8" height="1.2195" width="1.4337" y="-.10975" x="-.21687" color-interpolation-filters="sRGB">
      <feGaussianBlur id="feGaussianBlur-8" stdDeviation="1.6043371"/>
    </filter>
    <filter id="filter-9" width="1.5125" y="-.097152" x="-.25626" height="1.1943" color-interpolation-filters="sRGB">
      <feGaussianBlur id="feGaussianBlur-9" stdDeviation="1.3248077"/>
    </filter>
    <filter id="filter-11" width="1.2932" y="-.1269" x="-.14658" height="1.2538" color-interpolation-filters="sRGB">
      <feGaussianBlur id="feGaussianBlur-11" stdDeviation="1.8078158"/>
    </filter>
    <filter id="filter-12" height="1.0595" width="1.3378" y="-.02975" x="-.16888" color-interpolation-filters="sRGB">
      <feGaussianBlur id="feGaussianBlur-12" stdDeviation="0.94011737"/>
    </filter>
    <filter id="filter-13" height="1.114" width="1.2445" y="-.056985" x="-.12224" color-interpolation-filters="sRGB">
      <feGaussianBlur id="feGaussianBlur-13" stdDeviation="1.3165579"/>
    </filter>
    <filter id="filter-14" height="1.1243" width="1.445" y="-.062155" x="-.2225" color-interpolation-filters="sRGB">
      <feGaussianBlur id="feGaussianBlur-14" stdDeviation="1.0689097"/>
    </filter>
    <filter id="filter-15" width="1.4573" y="-.04207" x="-.22864" height="1.0841" color-interpolation-filters="sRGB">
      <feGaussianBlur id="feGaussianBlur-15" stdDeviation="1.323434"/>
    </filter>
    <filter id="filter-17" color-interpolation-filters="sRGB">
      <feGaussianBlur id="feGaussianBlur-17" stdDeviation="10.840151"/>
    </filter>
    <radialGradient id="gradient-3" gradientUnits="userSpaceOnUse" cy="306.83" cx="298.86" gradientTransform="matrix(0.000207, 0, -0.000001, 0.000185, 106.494379, -42.295847)" r="189.29">
      <stop id="stop-5" stop-color="#fff" offset="0"/>
      <stop id="stop-6" stop-color="#333" offset="1"/>
    </radialGradient>
    <radialGradient id="gradient-4" gradientUnits="userSpaceOnUse" cy="406.01" cx="310.42" gradientTransform="matrix(0.000165, 0, -0.000001, -0.000144, 107.688192, -3.923067)" r="189.29">
      <stop id="stop-7" stop-color="#fff" offset="0"/>
      <stop id="stop-8" offset="1"/>
    </radialGradient>
    <radialGradient id="gradient-5" gradientUnits="userSpaceOnUse" cy="423.23" cx="294.5" gradientTransform="matrix(0.000119, 0, 0, 0.000106, 109.250319, -38.682064)" r="189.29">
      <stop id="stop-9" stop-color="#fff" offset="0"/>
      <stop id="stop-10" stop-color="#888" offset="1"/>
    </radialGradient>
    <filter id="filter-25" height="1.0451" width="1.2798" y="-.022568" x="-.13992" color-interpolation-filters="sRGB">
      <feGaussianBlur id="feGaussianBlur-25" stdDeviation="0.21862348"/>
    </filter>
  </defs>
  <rect id="svgEditorBackground" x="202.71499633789062" y="584.4310302734375" width="86.59329986572266" height="115.80899810791016" style="fill: none; stroke: none;"/>
  <rect id="rect-1" x="-403.988" y="499.579" width="1300" height="550" style="fill: none; stroke: none;"/>
  <path id="path-16" d="M 243.052 764.148 L 244.913 764.148 L 244.913 775.686 L 243.052 775.686 L 243.052 764.148 Z" stroke-opacity=".050228" filter="url(#filter-25)" stroke="#000" stroke-linecap="round" style="fill: rgb(135, 135, 135);" transform="matrix(0.971486, 0.237095, -0.237095, 0.971486, 189.500341, -35.893984)"/>
  <g transform="matrix(0.496266, 0, 0, 0.496266, 288.266113, 754.2099)">
    <title id="bx-title-1">Blue Polo Shirt Remix by Merlin2525.svg</title>
    <g id="g6369"/>
    <g id="layer8"/>
    <g transform="matrix(-2.683774, -0.443684, -0.292408, 1.768732, 141.539169, 10.109159)">
      <g id="g-3" transform="matrix(0.999066, -0.070093, 0.026356, 0.988756, -0.778354, 6.204681)">
        <g id="g-4" transform="matrix(.13890 0 0 .13890 65.716 29.466)">
          <path id="path-22" d="M 128.354 -21.448 C 128.354 -16.512 124.353 -12.511 119.417 -12.511 C 114.481 -12.511 110.48 -16.512 110.48 -21.448 C 110.48 -26.384 114.481 -30.385 119.417 -30.385 C 124.353 -30.385 128.354 -26.384 128.354 -21.448 L 128.354 -21.448 Z" fill="url(#gradient-3)" transform="matrix(1, -0.00001, 0.000004, 1, 0.000083, 0.001239)"/>
          <path id="path-23" d="M 127.675 -21.381 C 127.675 -25.907 124.006 -29.576 119.48 -29.576 C 114.954 -29.576 111.285 -25.907 111.285 -21.381 C 111.285 -16.855 114.954 -13.186 119.48 -13.186 C 124.006 -13.186 127.675 -16.855 127.675 -21.381 L 127.675 -21.381 Z" fill="url(#gradient-4)" transform="matrix(-1, -0.000004, 0.000002, -1, 238.960181, -42.76156)"/>
          <path id="path-24" filter="url(#filter-17)" d="M 127.252 -21.548 C 127.252 -17.457 123.935 -14.14 119.843 -14.14 C 115.752 -14.14 112.435 -17.457 112.435 -21.548 C 112.435 -25.64 115.752 -28.956 119.844 -28.956 C 123.935 -28.956 127.252 -25.639 127.252 -21.548 L 127.252 -21.548 Z" fill="url(#gradient-5)" transform="matrix(1, -0.000019, 0.000007, 1, 0.000153, 0.00228)"/>
          <g id="g-5" transform="matrix(.047213 0 0 .047213 101.79 -40.276)">
            <path id="path-25" d="M 354.562 363.942 C 354.562 373.705 346.647 381.62 336.884 381.62 C 327.121 381.62 319.206 373.705 319.206 363.942 C 319.206 354.179 327.121 346.264 336.884 346.264 C 346.647 346.264 354.562 354.179 354.562 363.942 Z" fill-opacity=".94118"/>
            <path id="path-26" d="M 352.794 364.195 C 352.794 372.982 345.671 380.105 336.884 380.105 C 328.097 380.105 320.974 372.982 320.974 364.195 C 320.974 355.408 328.097 348.285 336.884 348.285 C 345.671 348.285 352.794 355.408 352.794 364.195 Z"/>
          </g>
          <g id="g-6" transform="matrix(.047213 0 0 .047213 105.18 -40.276)">
            <path id="path-27" d="M 354.562 363.942 C 354.562 373.705 346.647 381.62 336.884 381.62 C 327.121 381.62 319.206 373.705 319.206 363.942 C 319.206 354.179 327.121 346.264 336.884 346.264 C 346.647 346.264 354.562 354.179 354.562 363.942 Z" fill-opacity=".94118"/>
            <path id="path-28" d="M 352.794 364.195 C 352.794 372.982 345.671 380.105 336.884 380.105 C 328.097 380.105 320.974 372.982 320.974 364.195 C 320.974 355.408 328.097 348.285 336.884 348.285 C 345.671 348.285 352.794 355.408 352.794 364.195 Z"/>
          </g>
          <g id="g-7" transform="matrix(.047213 0 0 .047213 105.18 -36.604)">
            <path id="path-29" d="M 354.562 363.942 C 354.562 373.705 346.647 381.62 336.884 381.62 C 327.121 381.62 319.206 373.705 319.206 363.942 C 319.206 354.179 327.121 346.264 336.884 346.264 C 346.647 346.264 354.562 354.179 354.562 363.942 Z" fill-opacity=".94118"/>
            <path id="path-30" d="M 352.794 364.195 C 352.794 372.982 345.671 380.105 336.884 380.105 C 328.097 380.105 320.974 372.982 320.974 364.195 C 320.974 355.409 328.097 348.285 336.884 348.285 C 345.67 348.285 352.794 355.408 352.794 364.195 Z"/>
          </g>
          <g id="g-8" transform="matrix(.047213 0 0 .047213 101.82 -36.604)">
            <path id="path-31" d="M 354.562 363.942 C 354.562 373.705 346.647 381.62 336.884 381.62 C 327.121 381.62 319.206 373.705 319.206 363.942 C 319.206 354.179 327.121 346.264 336.884 346.264 C 346.647 346.264 354.562 354.179 354.562 363.942 Z" fill-opacity=".94118" transform="matrix(1, 0.000013, -0.000005, 1, 0.001786, -0.004441)"/>
            <path id="path-32" d="M 352.794 364.197 C 352.794 372.983 345.67 380.106 336.884 380.105 C 328.097 380.105 320.974 372.98 320.974 364.193 C 320.974 355.407 328.097 348.284 336.884 348.285 C 345.671 348.285 352.794 355.41 352.794 364.197 Z"/>
          </g>
        </g>
        <g id="g-9" transform="matrix(.13890 0 0 .13890 65.641 35.474)">
          <path id="path-33" d="M 128.354 -21.448 C 128.354 -16.512 124.353 -12.511 119.417 -12.511 C 114.481 -12.511 110.48 -16.512 110.48 -21.448 C 110.48 -26.384 114.481 -30.385 119.417 -30.385 C 124.353 -30.385 128.354 -26.384 128.354 -21.448 L 128.354 -21.448 Z" fill="url(#gradient-3)" transform="matrix(1, 0.00002, -0.000007, 1, -0.000159, -0.002374)"/>
          <path id="path-34" d="M 127.675 -21.381 C 127.675 -25.907 124.006 -29.576 119.48 -29.576 C 114.954 -29.576 111.285 -25.907 111.285 -21.381 C 111.285 -16.855 114.954 -13.186 119.48 -13.186 C 124.006 -13.186 127.675 -16.855 127.675 -21.381 L 127.675 -21.381 Z" fill="url(#gradient-4)" transform="matrix(-1, -0.000002, 0.000001, -1, 238.959883, -42.761809)"/>
          <path id="path-35" filter="url(#filter-17)" d="M 127.252 -21.548 C 127.252 -17.457 123.935 -14.14 119.844 -14.14 C 115.752 -14.14 112.435 -17.456 112.435 -21.548 C 112.435 -25.639 115.752 -28.956 119.843 -28.956 C 123.935 -28.956 127.252 -25.64 127.252 -21.548 L 127.252 -21.548 Z" fill="url(#gradient-5)" transform="matrix(1, 0.00002, -0.000007, 1, -0.000159, -0.002383)"/>
          <g id="g-10" transform="matrix(.047213 0 0 .047213 101.79 -40.276)">
            <path id="path-36" d="M 354.562 363.942 C 354.562 373.705 346.647 381.62 336.884 381.62 C 327.121 381.62 319.206 373.705 319.206 363.942 C 319.206 354.179 327.121 346.264 336.884 346.264 C 346.647 346.264 354.562 354.179 354.562 363.942 Z" fill-opacity=".94118"/>
            <path id="path-37" d="M 352.794 364.197 C 352.794 372.982 345.67 380.106 336.884 380.105 C 328.097 380.105 320.974 372.981 320.974 364.194 C 320.974 355.408 328.097 348.284 336.884 348.285 C 345.671 348.285 352.794 355.409 352.794 364.197 Z"/>
          </g>
          <g id="g-11" transform="matrix(.047213 0 0 .047213 105.18 -40.276)">
            <path id="path-38" d="M 354.562 363.942 C 354.562 373.705 346.647 381.62 336.884 381.62 C 327.121 381.62 319.206 373.705 319.206 363.942 C 319.206 354.179 327.121 346.264 336.884 346.264 C 346.647 346.264 354.562 354.179 354.562 363.942 Z" fill-opacity=".94118"/>
            <path id="path-39" d="M 352.794 364.197 C 352.794 372.982 345.67 380.106 336.884 380.105 C 328.097 380.105 320.974 372.98 320.974 364.193 C 320.974 355.407 328.097 348.284 336.884 348.285 C 345.671 348.285 352.794 355.409 352.794 364.197 Z" transform="matrix(1, -0.000076, 0.000028, 1, -0.010293, 0.025586)"/>
          </g>
          <g id="g-12" transform="matrix(.047213 0 0 .047213 105.18 -36.604)">
            <path id="path-40" d="M 354.562 363.942 C 354.562 373.705 346.647 381.62 336.884 381.62 C 327.121 381.62 319.206 373.705 319.206 363.942 C 319.206 354.179 327.121 346.264 336.884 346.264 C 346.647 346.264 354.562 354.179 354.562 363.942 Z" fill-opacity=".94118"/>
            <path id="path-41" d="M 352.794 364.195 C 352.794 372.982 345.671 380.105 336.884 380.105 C 328.097 380.105 320.974 372.982 320.974 364.195 C 320.974 355.408 328.097 348.285 336.884 348.285 C 345.671 348.285 352.794 355.408 352.794 364.195 Z" transform="matrix(1, 0.000013, -0.000005, 1, 0.001787, -0.004442)"/>
          </g>
          <g id="g-13" transform="matrix(.047213 0 0 .047213 101.82 -36.604)">
            <path id="path-42" d="M 354.562 363.942 C 354.562 373.705 346.647 381.62 336.884 381.62 C 327.121 381.62 319.206 373.705 319.206 363.942 C 319.206 354.179 327.121 346.264 336.884 346.264 C 346.647 346.264 354.562 354.179 354.562 363.942 Z" fill-opacity=".94118"/>
            <path id="path-43" d="M 352.794 364.194 C 352.794 372.98 345.671 380.105 336.884 380.105 C 328.097 380.105 320.974 372.983 320.974 364.196 C 320.974 355.41 328.097 348.285 336.884 348.285 C 345.67 348.285 352.794 355.407 352.794 364.194 Z"/>
          </g>
        </g>
        <g id="g-14" transform="matrix(.13890 0 0 .13890 65.62 41.386)">
          <path id="path-44" d="M 128.354 -21.448 C 128.354 -16.512 124.353 -12.511 119.417 -12.511 C 114.481 -12.511 110.48 -16.512 110.48 -21.448 C 110.48 -26.384 114.481 -30.385 119.417 -30.385 C 124.353 -30.385 128.354 -26.384 128.354 -21.448 L 128.354 -21.448 Z" fill="url(#gradient-3)" transform="matrix(1, -0.000011, 0.000004, 1, 0.000088, 0.001313)"/>
          <path id="path-45" d="M 127.675 -21.381 C 127.675 -25.907 124.006 -29.576 119.48 -29.576 C 114.954 -29.576 111.285 -25.907 111.285 -21.381 C 111.285 -16.855 114.954 -13.186 119.48 -13.186 C 124.006 -13.186 127.675 -16.855 127.675 -21.381 L 127.675 -21.381 Z" fill="url(#gradient-4)" transform="matrix(-1, -0.000001, 0.000001, -1, 238.959994, -42.761694)"/>
          <path id="path-46" filter="url(#filter-17)" d="M 127.252 -21.548 C 127.252 -17.457 123.935 -14.14 119.843 -14.14 C 115.752 -14.14 112.435 -17.457 112.435 -21.548 C 112.435 -25.639 115.752 -28.956 119.844 -28.956 C 123.935 -28.956 127.252 -25.639 127.252 -21.548 L 127.252 -21.548 Z" fill="url(#gradient-5)" transform="matrix(1, -0.000003, 0.000001, 1, 0.000024, 0.000355)"/>
          <g id="g-15" transform="matrix(.047213 0 0 .047213 101.79 -40.276)">
            <path id="path-47" d="M 354.562 363.942 C 354.562 373.705 346.647 381.62 336.884 381.62 C 327.121 381.62 319.206 373.705 319.206 363.942 C 319.206 354.179 327.121 346.264 336.884 346.264 C 346.647 346.264 354.562 354.179 354.562 363.942 Z" fill-opacity=".94118"/>
            <path id="path-48" d="M 352.794 364.194 C 352.794 372.981 345.671 380.105 336.884 380.105 C 328.097 380.106 320.974 372.982 320.974 364.196 C 320.973 355.409 328.097 348.285 336.884 348.285 C 345.67 348.284 352.794 355.408 352.794 364.194 Z" transform="matrix(1, 0.000031, -0.000012, 1, 0.004253, -0.010572)"/>
          </g>
          <g id="g-16" transform="matrix(.047213 0 0 .047213 105.18 -40.276)">
            <path id="path-49" d="M 354.562 363.942 C 354.562 373.705 346.647 381.62 336.884 381.62 C 327.121 381.62 319.206 373.705 319.206 363.942 C 319.206 354.179 327.121 346.264 336.884 346.264 C 346.647 346.264 354.562 354.179 354.562 363.942 Z" fill-opacity=".94118"/>
            <path id="path-50" d="M 352.794 364.195 C 352.794 372.982 345.671 380.105 336.884 380.105 C 328.097 380.105 320.974 372.982 320.974 364.195 C 320.974 355.408 328.097 348.285 336.884 348.285 C 345.671 348.285 352.794 355.408 352.794 364.195 Z"/>
          </g>
          <g id="g-17" transform="matrix(.047213 0 0 .047213 105.18 -36.604)">
            <path id="path-51" d="M 354.562 363.942 C 354.562 373.705 346.647 381.62 336.884 381.62 C 327.121 381.62 319.206 373.705 319.206 363.942 C 319.206 354.179 327.121 346.264 336.884 346.264 C 346.647 346.264 354.562 354.179 354.562 363.942 Z" fill-opacity=".94118"/>
            <path id="path-52" d="M 352.794 364.196 C 352.794 372.982 345.67 380.106 336.884 380.105 C 328.097 380.105 320.974 372.98 320.974 364.194 C 320.974 355.408 328.097 348.284 336.884 348.285 C 345.671 348.285 352.794 355.409 352.794 364.196 Z" transform="matrix(1, -0.000063, 0.000023, 1, -0.008506, 0.021144)"/>
          </g>
          <g id="g-18" transform="matrix(.047213 0 0 .047213 101.82 -36.604)">
            <path id="path-53" d="M 354.562 363.942 C 354.562 373.705 346.647 381.62 336.884 381.62 C 327.121 381.62 319.206 373.705 319.206 363.942 C 319.206 354.179 327.121 346.264 336.884 346.264 C 346.647 346.264 354.562 354.179 354.562 363.942 Z" fill-opacity=".94118"/>
            <path id="path-54" d="M 352.794 364.195 C 352.794 372.982 345.671 380.105 336.884 380.105 C 328.097 380.105 320.974 372.982 320.974 364.195 C 320.974 355.408 328.097 348.285 336.884 348.285 C 345.671 348.285 352.794 355.408 352.794 364.195 Z"/>
          </g>
        </g>
      </g>
    </g>
    <g>
      <g id="g-19" transform="matrix(1.165321, 0, 0, 1.158733, -165.381332, 30.213228)">
        <path id="path-55" opacity=".64198" d="M 40.107 22.793 C 40.107 22.793 43.695 35.66 43.344 42.214 C 43.16 45.65 41.304 50.589 40.889 54.004 C 39.979 61.505 41.263 74.813 41.263 74.813 C 41.263 74.813 37.513 61.161 38.026 54.236 C 38.331 50.128 39.682 44.698 40.138 40.604 C 40.865 34.072 40.107 22.793 40.107 22.793 L 40.107 22.793 Z" filter="url(#filter-1)" style="fill-opacity: 0.77;" transform="matrix(0.985367, 0.170449, -0.170449, 0.985367, 8.913609, -6.218512)"/>
        <path id="path-56" opacity=".35391" filter="url(#filter-2)" d="M 61.826 49.19 C 66.233 60.64 71.578 71.673 68.926 82.519 C 65.848 95.109 69.218 108.109 69.33 120.898 C 66.866 108.455 60.893 96.048 62.637 83.353 C 63.946 73.831 60.721 61 61.826 49.189 L 61.826 49.19 Z" style="fill-opacity: 0.77;"/>
        <path id="path-57" opacity=".49794" d="M 96.935 32.325 C 101.517 44.229 104.663 56.691 101.163 64.587 C 96.096 76.021 104.331 91.67 104.439 104.034 C 101.635 89.873 85.906 73.909 92.093 60.624 C 95.616 53.06 96.005 42.26 96.934 32.326 L 96.935 32.325 Z" filter="url(#filter-3)" style="fill-opacity: 0.77;" transform="matrix(0.993611, 0.11286, -0.11286, 0.993611, 8.318, -10.574024)"/>
        <path id="path-58" opacity=".41152" filter="url(#filter-4)" d="M 38.06 71.32 C 41.276 72.437 50.159 24.981 49.733 24.626 C 51.358 52.601 55.582 86.614 36.809 95.501 C 37.285 87.59 40.171 85.76 38.06 71.32 L 38.06 71.32 Z" style="stroke-width: 16.1204; fill-opacity: 0.77;"/>
        <path id="path-59" opacity=".37037" d="M 115.411 72.655 C 114.257 76.975 112.059 58.666 105.814 48.65 C 105.814 48.65 107.373 70.751 109.457 73.914 C 116.147 84.067 122.705 94.334 122.498 94.507 C 123.108 83.999 118.416 73.673 119.821 62.686 C 121.985 45.765 117.856 44.85 106.134 39.297 C 106.61 47.212 116.375 39.107 115.411 72.655 L 115.411 72.655 Z" filter="url(#filter-5)" style="fill-opacity: 0.77;" transform="matrix(-1, 0, 0, -1, 228.367041, 133.803995)"/>
        <path id="path-62" opacity=".30453" d="M 103.263 102.864 C 106.807 107.442 107.22 112.158 111.089 109.066 C 115.314 105.69 111.493 96.075 111.68 89.574 C 112.756 98.04 119.058 105.398 113.631 111.935 C 108.92 117.608 106.124 108.334 103.263 102.864 L 103.263 102.864 Z" filter="url(#filter-8)" style="fill-opacity: 0.77;" transform="matrix(0.777481, 0.628907, -0.628907, 0.777481, 88.296538, -46.270187)"/>
        <path id="path-63" opacity=".37449" d="M 48.701 140.554 C 48.701 140.554 45.058 135.1 44.115 132.007 C 42.893 128 43.97 123.541 42.864 119.5 C 41.732 115.362 37.445 107.827 37.445 107.827 L 49.535 109.287 C 49.429 113.621 47.907 117.996 47.985 122.209 C 48.094 128.109 51.613 134.1 48.701 140.555 L 48.701 140.554 Z" filter="url(#filter-9)" style="fill-opacity: 0.77;" transform="matrix(-1, 0, 0, -1, 87.29694, 248.382004)"/>
        <path id="path-65" opacity=".5014" d="M 49.706 93.761 C 49.706 93.761 54.574 85.265 59.744 85.626 C 67.24 86.15 68.633 103.999 67.598 110.683 C 66.847 115.532 77.455 126.462 77.455 126.462 C 77.455 126.462 71.115 111.837 71.845 106.628 C 72.731 100.3 67.221 80.109 60.115 80.277 C 54.368 80.421 49.706 93.763 49.706 93.763 L 49.706 93.761 Z" filter="url(#filter-11)" style="fill-opacity: 0.77;" transform="matrix(-1, 0, 0, -1, 127.160995, 206.737942)"/>
        <path id="path-66" opacity=".41152" d="M 96.538 50.866 C 96.538 50.866 101.029 30.626 100.795 25.664 C 100.62 21.927 98.285 15.737 95.843 13.701 C 89.851 8.701 88.315 -5.635 88.315 -5.635 C 88.315 -5.635 86.058 8.051 90.69 15.415 C 92.496 18.284 96.748 22.902 96.822 26.09 C 96.933 30.837 96.538 50.866 96.538 50.866 L 96.538 50.866 Z" filter="url(#filter-12)" style="fill-opacity: 0.77;" transform="matrix(-0.987991, 0.155388, -0.153636, -0.987991, 190.911341, 30.308733)"/>
        <path id="path-67" opacity=".56379" d="M 58.081 -9.444 C 50.381 2.946 43.129 23.831 25.549 31.757 L 32.556 34.82 C 52.159 21.482 52.99 2.982 58.082 -9.444 L 58.081 -9.444 Z" filter="url(#filter-13)" style="fill-opacity: 0.77;" transform="matrix(0.066884, -1.003434, 0.99212, 0.066884, 26.430704, 53.798459)"/>
        <path id="path-68" opacity=".40741" filter="url(#filter-14)" d="M 53.802 76.532 C 54.008 62.12 57.292 35.573 66.449 23.792 L 70.618 26.71 C 62.995 37.806 56.845 63.4 53.802 76.531 L 53.802 76.532 Z" style="fill-opacity: 0.77;"/>
        <path id="path-70" opacity=".34568" d="M 88.967 28.826 C 88.967 28.826 93.148 43.52 92.756 47.006 C 92.462 49.631 90.221 53.267 88.593 54.698 C 84.597 58.21 81.031 68.517 81.031 68.517 C 81.031 68.517 80.296 58.903 83.557 53.73 C 84.828 51.714 87.716 48.471 87.921 46.231 C 88.224 42.896 88.966 28.827 88.966 28.827 L 88.967 28.826 Z" filter="url(#filter-15)" style="fill-opacity: 0.77;" transform="matrix(0.992341, 0.123525, -0.123525, 0.992341, 6.677455, -10.357989)"/>
        <path id="path-71" opacity=".28395" d="M 118.94 70.425 C 118.94 70.425 121.705 50.942 121.358 46.165 C 121.097 42.568 119.091 36.609 117.146 34.648 C 112.37 29.836 110.704 16.036 110.704 16.036 C 110.704 16.036 109.433 29.21 113.243 36.299 C 114.728 39.061 118.154 43.506 118.318 46.575 C 118.564 51.145 118.94 70.425 118.94 70.425 L 118.94 70.425 Z" filter="url(#filter-12)" style="fill-opacity: 0.77;" transform="matrix(-0.990426, 0.138042, -0.138042, -0.990426, 236.746177, 70.041927)"/>
        <path id="path-72" opacity=".76132" d="M 112.565 143.338 C 111.658 134.804 108.968 129.427 109.943 117.562 L 122.083 134.491 L 104.547 102.294 C 103.701 117.572 105.809 129.077 112.565 143.338 L 112.565 143.338 Z" filter="url(#filter-7)" style="fill-opacity: 0.77;" transform="matrix(0.68835, 0.725379, -0.725379, 0.68835, 124.375163, -43.856485)"/>
        <path id="path-73" opacity=".37449" filter="url(#filter-9)" d="M 123.99 108.59 C 123.99 108.59 120.347 114.044 119.404 117.137 C 118.182 121.144 119.259 125.603 118.153 129.644 C 117.021 133.782 112.734 141.317 112.734 141.317 L 124.824 139.857 C 124.718 135.523 123.196 131.148 123.274 126.935 C 123.383 121.034 126.902 115.044 123.99 108.589 L 123.99 108.59 Z" style="fill-opacity: 0.77;"/>
        <path id="path-74" opacity=".56379" d="M 69.255 141.836 C 61.439 122.791 61.073 106.66 43.393 94.475 L 51.579 93.016 C 71.329 113.519 64.052 122.735 69.255 141.835 L 69.255 141.836 Z" filter="url(#filter-13)" style="fill-opacity: 0.77;" transform="matrix(-0.971157, -0.238439, 0.238439, -0.971157, 83.024519, 244.894955)"/>
        <path id="path-75" opacity=".5014" d="M 53.091 119.972 C 53.091 119.972 57.959 128.469 63.128 128.108 C 70.625 127.584 72.4 116.615 71.366 109.931 C 70.615 105.082 73.962 99.885 73.962 99.885 C 73.962 99.885 74.882 106.866 75.612 112.074 C 76.499 118.402 70.606 133.624 63.501 133.457 C 57.753 133.313 53.091 119.971 53.091 119.971 L 53.091 119.972 Z" filter="url(#filter-11)" style="fill-opacity: 0.77;"/>
      </g>
    </g>
  </g>
</svg>