<svg class="bottomOverlay" width="86" height="380" viewBox="202.715 584.407 86.59 380.048" xmlns="http://www.w3.org/2000/svg" xmlns:xlink="http://www.w3.org/1999/xlink"><defs><pattern id="a" width="20" height="20" patternUnits="userSpaceOnUse" viewBox="0 0 100 100"><g transform="matrix(.05781 0 0 .05526 .16 -.267)"><path fill="red" d="M0 0h1350v150H0z"/><path fill="#FF9800" d="M0 150h1350v150H0z"/><path fill="#FF0" d="M0 300h1350v150H0z"/><path fill="#009800" d="M0 450h1350v150H0z"/><path fill="#00F" d="M0 600h1350v150H0z"/><path fill="#980098" d="M0 750h1350v150H0z"/><g><path d="M0 0h390v450H0z"/><path fill="#FFE936" d="M130 0h260v450H130z"/><path fill="#FF0F21" d="M260 0h130v450H260z"/></g></g></pattern><pattern id="b" patternTransform="translate(238.503 836.254)" xlink:href="#a"/></defs><path d="M223.018 756.348c-4.441 2.319-1.222 5.664-3.172 7.614-6.264 6.264-5.711 20.01-5.711 28.551 0 4.965-8.81 139.022-5.71 142.122 3.525 3.525 6.056-2.784 10.786-2.538 8.031.417 18.051-.349 20.937 2.538.592.591 26.33 5.236 34.897-1.268 1.062-.806 13.234-18.49 13.958-17.766.968.968-1.814-76.179 0-83.116.789-3.018-.634-6.099-.634-9.517 0-5.523-.366-12.421-3.173-15.227-6.578-6.579-4.422-24.091-10.786-30.455-1.742-1.742-1.903-10.15-1.903-10.15s-3.172-4.32-7.613-11.422" stroke="#000" fill="url(#b)"/></svg>