<svg class="bottomOverlay" width="86" height="380" viewBox="202.715 584.407 86.59 380.048" xmlns="http://www.w3.org/2000/svg" xmlns:xlink="http://www.w3.org/1999/xlink"><defs><pattern id="a" width="20" height="20" patternUnits="userSpaceOnUse" viewBox="0 0 100 100"><path d="M0 0h50v100H0z"/></pattern><pattern id="b" patternTransform="translate(239.436 801.196)" xlink:href="#a"/><pattern id="c" patternTransform="translate(239.943 855.494)" xlink:href="#a"/><pattern id="d" patternTransform="translate(204.253 890.073)" xlink:href="#a"/><pattern id="e" patternTransform="translate(246.133 905.609)" xlink:href="#a"/></defs><path d="M222.814 776.258c4.9 0 8.162 21.072 3.045 26.189-3.69 3.691-15.736-2.386-6.091 2.436 18.162 9.081 10.963-27.407 10.963-27.407s3.993 7.716 4.264 8.527c1.601 4.805 9.258 17.541 14.008 20.708 10.424 6.949 13.184-.717 21.926 3.654 11.097 5.548-5.518 27.442 10.963 10.963 3.222-3.222-3.461-13.011-4.264-14.617-2.711-5.424-27.839-11.317-21.317-24.362 1.943-3.886 10.963-2.437 10.963-2.437s-17.565-14.714-12.181-20.098c.44-.44-3.888 6.325-5.481 7.917-.191.192-4.518-2.868-4.872-3.045-2.1-1.05-7.163-.463-8.527-1.827-.873-.873-.609-4.889-.609-3.654 0 2.831 25.988 23.244 14.008 29.234-8.575 4.288-22.535-39.685-22.535-15.226 0 2.956-6.437-4.527-8.527-2.436-1.264 1.264.609 18.047.609 20.707 0 22.928 2.299 49.265 24.362 60.296 7.161 3.581 25.992 17.86 35.325 8.527 2.838-2.838-1.104-5.291-1.827-10.354-.105-.739.107-9.851-1.218-8.526-1.5 1.5-2.042 8.544-3.654 10.963-4.647 6.97-23.348-8.936-25.58-13.4-1.458-2.915 3.085-6.821 3.654-8.526 1.311-3.934 7.054-11.827 13.399-5.482.945.945 2.436 7.918 2.436 7.918s.279-6.421 0-6.7c-2.093-2.093-17.774-20.595-26.189-12.181-.76.76-5.973 10.472-6.09 10.354-2.143-2.143-5.622-7.028-3.655-10.963.686-1.372 6.011-7.388 4.873-8.527-1.927-1.927-6.091-1.486-6.091-5.481" stroke="#000" fill="url(#b)"/><path d="M226.468 842.645c0-2.594-3.323 5.373-3.654 6.699-1.422 5.687-3.046 8.782-3.046 15.227 0 13.183 12.115 18.813 18.881 25.58 7.655 7.655 15.226-10.963 15.226-10.963s-2.904 8.901-8.526 6.09c-4.119-2.059-19.234-14.872-12.181-21.926.935-.935 10.621-2.778 12.181-1.218.423.424 1.827 9.745 1.827 9.745s7.631-3.941 9.745-1.827c3.95 3.951 12.918 6.379 18.88 10.354 3.263 2.175.343 10.963 4.263 10.963.398 0-1.492-16.582-3.654-17.663-19.058-9.529-39.701-14.234-49.942-34.716" stroke="#000" fill="url(#c)"/><path d="M210.024 875.533c16.96 0 7.511 43.649 2.436 48.725-2.158 2.158-.609-6.084-.609-9.136 0-3.504-1.746-15.917.609-18.272.908-.908-2.371 1.218-3.655 1.218" stroke="#000" fill="url(#d)"/><path d="M245.958 924.867c4.641 0-7.906-2.424-7.918-2.437-4.937-4.937-7.031-14.894-1.218-20.707 5.394-5.394 25.363-5.286 32.28-1.827 3.233 1.616 8.526 10.314 8.526 6.699 0-3.243-21.901-.633-23.144.609-6.501 6.502 15.836 5.482 15.836 5.482s-11.645 4.336-12.181 4.872c-.178.178 3.081 7.936 4.263 8.527 6.327 3.163 11.185 4.041 16.444-1.218.254-.254 0-6.091 0-6.091s-3.115 12.252-3.654 12.79c-7.241 7.242-25.002-5.512-28.016-8.527" stroke="#000" fill="url(#e)"/></svg>