<svg class="bottomOverlay" width="86" height="380" viewBox="202.715 584.407 86.59 380.048" xmlns="http://www.w3.org/2000/svg" xmlns:xlink="http://www.w3.org/1999/xlink"><defs><pattern id="a" width="20" height="20" patternUnits="userSpaceOnUse" viewBox="0 0 100 100"><g><path d="M-295.78-2224.4c-64.85-51.8-177.76 27.8-151.84 122.6 23.57 86.2 102.66 122.8 166.11 177.9 52.45-82.4 154.07-130.5 166.59-231.4 13.59-109.5-112.81-149-180.86-69.1z" fill-rule="evenodd" fill="#fac" transform="matrix(.05234 0 0 .07114 74.643 201.817)"/><path d="M-470.74-2643.5c-94.65-63.3-200.03 11.6-174.11 106.4 23.58 86.2 124.93 138.9 188.37 194.1 52.46-82.4 147.76-104.3 178.74-201.1 31.81-99.4-124.96-179.3-193-99.4z" fill-rule="evenodd" fill="#60f" transform="matrix(.05234 0 0 .07114 74.643 201.817)"/><path d="M-927.14-2505.7c-111.26-122-202.26-1.8-132.66 92.1 55.1 74.3 100.38 104.9 144.35 154 43.66-67.8 105.07-104.8 136.43-189.5 38.29-103.5-73.22-168.6-148.12-56.6z" fill-rule="evenodd" fill="#ff2a7f" transform="matrix(.05234 0 0 .07114 74.643 201.817)"/><path d="M-397.27-1751.5c-123.93-165.7-228.96 54.1-174.69 107.9 81.25 80.5 122.95 53.4 185.78 125.7 43.72-70.6 111.66-55.8 168.85-146.8 41.75-66.5-46.79-251.2-179.94-86.8z" fill-rule="evenodd" fill="#fc0" transform="matrix(.05234 0 0 .07114 74.643 201.817)"/><path d="M-686.52-2200.9c94.64-63.3 177.76 27.8 151.84 122.6-23.58 86.2-102.67 122.7-166.11 177.9-52.46-82.4-154.07-130.5-166.59-231.4-13.6-109.5 112.81-149 180.86-69.1zM-897.7-1767.4c-85.34-207.3-268.7 135 10.89 229.5 261.79-76.2 173.95-427.6-10.89-229.5z" fill-rule="evenodd" fill="#ff2ad4" transform="matrix(.05234 0 0 .07114 74.643 201.817)"/><path d="M-1150-2098.2c-205.5-183.2-313 101.3 9.5 201.2 266.3-86.3 260.87-384.6-9.5-201.2z" fill-rule="evenodd" fill="#d40055" transform="matrix(.05234 0 0 .07114 74.643 201.817)"/><path d="M46.681-2379.9c27.679-265.5-204.5-142.3-186.91-22 17.54 119.9 115.88 138.5 187.49 200.8 59.21-93 204.29-147.9 188.04-261.2-16.3-113.6-241.15-124.2-188.62 82.4z" fill="red" transform="matrix(.05234 0 0 .07114 74.643 201.817)"/><path d="M85.85-1958.5c4.235-138.4 214.08-56.2 204.92 46.4-9.69 108.6-166.88 185.8-218.69 243.6-57.477-82.7-136.3-94.4-160.78-223.3-18.87-99.5 172.71-201.4 174.55-66.7z" fill-rule="evenodd" fill="#f06" transform="matrix(.05234 0 0 .07114 74.643 201.817)"/></g></pattern><pattern id="b" patternTransform="matrix(2.1572 0 0 1.66996 238.503 836.254)" xlink:href="#a"/></defs><path d="M223.018 756.348c-4.441 2.319-1.222 5.664-3.172 7.614-6.264 6.264-5.711 20.01-5.711 28.551 0 4.965-8.81 139.022-5.71 142.122 3.525 3.525 6.056-2.784 10.786-2.538 8.031.417 18.051-.349 20.937 2.538.592.591 26.33 5.236 34.897-1.268 1.062-.806 13.234-18.49 13.958-17.766.968.968-1.814-76.179 0-83.116.789-3.018-.634-6.099-.634-9.517 0-5.523-.366-12.421-3.173-15.227-6.578-6.579-4.422-24.091-10.786-30.455-1.742-1.742-1.903-10.15-1.903-10.15s-3.172-4.32-7.613-11.422" stroke="#000" fill="url(#b)"/></svg>