<?xml version="1.0" encoding="utf-8"?>
<svg id="woman" width="86" height="380" viewBox="202.71499633789062 584.406982421875 86.58999633789062 380.0480041503906" preserveAspectRatio="xMidYMid meet" xmlns="http://www.w3.org/2000/svg" xmlns:xlink="http://www.w3.org/1999/xlink">
  <defs id="svgEditorDefs">
    <path id="svgEditorClosePathDefs" class="lines" fill="black" style="stroke-width: 0px; stroke: none;"/>
    <pattern id="pattern-0" x="0" y="0" width="20" height="20" patternUnits="userSpaceOnUse" viewBox="0 0 100 100">
      <path d="M 50 11.859 C 50 13.461 48.3 14.938 47.436 16.186 C 44.776 20.028 42.366 23.835 39.103 27.244 C 19.158 48.074 50.411 14.633 31.891 34.615 C 30.992 35.585 30.07 36.534 29.167 37.5 C 24.802 42.166 25.084 41.439 20.673 36.538 C 19.359 35.078 17.594 33.708 16.026 32.532 C 13.911 30.946 10.628 30.5 8.814 28.686 C 8.436 28.308 9.691 29.3 10.096 29.647 C 10.844 30.288 11.568 30.958 12.34 31.571 C 15.65 34.199 15.518 33.621 18.429 36.699 C 22.046 40.522 24.894 45.153 26.923 50 C 28.415 53.565 29.316 58.171 33.814 58.814 C 40.9 59.826 47.817 56.853 54.487 54.968 C 57.522 54.11 60.872 53.885 63.622 52.404 C 66.277 50.974 68.752 49.293 70.994 47.276 C 71.737 46.607 72.392 45.877 73.077 45.192 C 73.532 44.737 74.894 43.393 74.359 43.75 C 67.506 48.318 60.415 55.674 55.929 62.5 C 55.302 63.455 53.283 65.856 53.686 67.468 C 53.811 67.967 55.404 72.626 54.968 72.917 C 50.856 75.658 40.256 73.718 36.058 73.718 C 34.849 73.718 31.931 74.059 30.609 73.397 C 29.391 72.788 32.41 71.229 33.654 70.673 C 39.481 68.069 46.009 67.101 52.244 66.026 C 65.307 63.773 82.251 61.339 92.147 51.442 C 92.589 51.001 91.658 49.281 91.506 49.038 C 89.445 45.739 87.588 42.767 86.538 38.942 C 83.009 26.085 80.916 17.11 70.192 8.173 C 67.679 6.079 62.64 0.421 59.455 -0.641 C 58.66 -0.906 58.495 1.119 58.173 1.603 C 56.591 3.976 53.686 5.521 53.686 8.654" style="stroke: rgb(0, 0, 0); fill: url(#gradient-1);"/>
    </pattern>
    <pattern id="pattern-0-0" patternTransform="matrix(1, 0, 0, 1, 238.502655, 836.253662)" xlink:href="#pattern-0"/>
    <linearGradient id="gradient-1" gradientUnits="userSpaceOnUse" x1="50.504" y1="-0.665" x2="50.504" y2="74.384">
      <stop offset="0" style="stop-color: rgb(35, 35, 244);"/>
      <stop offset="0.268" style="stop-color: rgb(244, 12, 12);"/>
      <stop offset="0.403" style="stop-color: rgb(86, 230, 38);"/>
      <stop offset="0.537" style="stop-color: rgb(255, 255, 0);"/>
      <stop offset="1" style="stop-color: rgba(165, 165, 165, 1)"/>
    </linearGradient>
  </defs>
  <path d="M 223.018 756.348 C 218.577 758.667 221.796 762.012 219.846 763.962 C 213.582 770.226 214.135 783.972 214.135 792.513 C 214.135 797.478 205.325 931.535 208.425 934.635 C 211.95 938.16 214.481 931.851 219.211 932.097 C 227.242 932.514 237.262 931.748 240.148 934.635 C 240.74 935.226 266.478 939.871 275.045 933.367 C 276.107 932.561 288.279 914.877 289.003 915.601 C 289.971 916.569 287.189 839.422 289.003 832.485 C 289.792 829.467 288.369 826.386 288.369 822.968 C 288.369 817.445 288.003 810.547 285.196 807.741 C 278.618 801.162 280.774 783.65 274.41 777.286 C 272.668 775.544 272.507 767.136 272.507 767.136 C 272.507 767.136 269.335 762.816 264.894 755.714" style="stroke: rgb(0, 0, 0); fill: url(#pattern-0-0);"/>
</svg>