<svg class="bottomOverlay" width="86" height="380" viewBox="202.715 584.407 86.59 380.048" xmlns="http://www.w3.org/2000/svg" xmlns:xlink="http://www.w3.org/1999/xlink"><defs><pattern id="b" width="20" height="20" patternUnits="userSpaceOnUse" viewBox="0 0 100 100"><path d="M50 11.859c0 1.602-1.7 3.079-2.564 4.327-2.66 3.842-5.07 7.649-8.333 11.058-19.945 20.83 11.308-12.611-7.212 7.371-.899.97-1.821 1.919-2.724 2.885-4.365 4.666-4.083 3.939-8.494-.962-1.314-1.46-3.079-2.83-4.647-4.006-2.115-1.586-5.398-2.032-7.212-3.846-.378-.378.877.614 1.282.961.748.641 1.472 1.311 2.244 1.924 3.31 2.628 3.178 2.05 6.089 5.128 3.617 3.823 6.465 8.454 8.494 13.301 1.492 3.565 2.393 8.171 6.891 8.814 7.086 1.012 14.003-1.961 20.673-3.846 3.035-.858 6.385-1.083 9.135-2.564 2.655-1.43 5.13-3.111 7.372-5.128.743-.669 1.398-1.399 2.083-2.084.455-.455 1.817-1.799 1.282-1.442-6.853 4.568-13.944 11.924-18.43 18.75-.627.955-2.646 3.356-2.243 4.968.125.499 1.718 5.158 1.282 5.449-4.112 2.741-14.712.801-18.91.801-1.209 0-4.127.341-5.449-.321-1.218-.609 1.801-2.168 3.045-2.724 5.827-2.604 12.355-3.572 18.59-4.647 13.063-2.253 30.007-4.687 39.903-14.584.442-.441-.489-2.161-.641-2.404-2.061-3.299-3.918-6.271-4.968-10.096-3.529-12.857-5.622-21.832-16.346-30.769C67.679 6.079 62.64.421 59.455-.641c-.795-.265-.96 1.76-1.282 2.244-1.582 2.373-4.487 3.918-4.487 7.051" stroke="#000" fill="url(#a)"/></pattern><pattern id="c" patternTransform="translate(238.503 836.254)" xlink:href="#b"/><linearGradient id="a" gradientUnits="userSpaceOnUse" x1="50.504" y1="-.665" x2="50.504" y2="74.384"><stop offset="0" stop-color="#2323f4"/><stop offset=".268" stop-color="#f40c0c"/><stop offset=".403" stop-color="#56e626"/><stop offset=".537" stop-color="#ff0"/><stop offset="1" stop-color="#a5a5a5"/></linearGradient></defs><path d="M223.018 756.348c-4.441 2.319-1.222 5.664-3.172 7.614-6.264 6.264-5.711 20.01-5.711 28.551 0 4.965-8.81 139.022-5.71 142.122 3.525 3.525 6.056-2.784 10.786-2.538 8.031.417 18.051-.349 20.937 2.538.592.591 26.33 5.236 34.897-1.268 1.062-.806 13.234-18.49 13.958-17.766.968.968-1.814-76.179 0-83.116.789-3.018-.634-6.099-.634-9.517 0-5.523-.366-12.421-3.173-15.227-6.578-6.579-4.422-24.091-10.786-30.455-1.742-1.742-1.903-10.15-1.903-10.15s-3.172-4.32-7.613-11.422" stroke="#000" fill="url(#c)"/></svg>