<?xml version="1.0" encoding="utf-8"?>
<svg width="86" height="380" viewBox="202.715 584.407 86.5933 380.048" preserveAspectRatio="xMidYMid meet" xmlns="http://www.w3.org/2000/svg" xmlns:xlink="http://www.w3.org/1999/xlink" xmlns:bx="https://boxy-svg.com">
  <defs id="svgEditorDefs">
    <path id="svgEditorClosePathDefs" fill="moccasin" style="stroke-width: 0px; stroke: none; fill-opacity: 1;" class="shirt"/>
    <pattern id="pattern-0" x="0" y="0" width="20" height="20" patternUnits="userSpaceOnUse" viewBox="0 0 100 100">
      <g transform="matrix(0.065451, 0, 0, 0.091719, -0.63983, -2.145864)">
        <g id="layer1" transform="translate(868.42 -177.86)">
          <g id="g3922" transform="translate(-40,460)">
            <path id="path3673-8-1" d="m717.1-274.1h-1539.3v1114h1539.3v-1114z" style="fill: url(#pattern-0-2); stroke-width: 152.701; stroke: rgb(85, 218, 152);"/>
            <path id="path3673-8" style="fill: url(#pattern-0-3); stroke-width: 152.701; stroke: rgb(85, 218, 152);" d="m716.9-273.91h-1538.9v1113.6h1538.9v-1113.6z"/>
            <path id="path3734" style="fill: url(#pattern-0-4); stroke-width: 152.701; stroke: rgb(85, 218, 152);" d="m-327.29 99.788 49.497-371.74 160.3-0.08-209.8 371.82z"/>
            <path id="path3736" style="fill: url(#pattern-0-5); stroke-width: 152.701; stroke: rgb(85, 218, 152);" d="m-324.26 96.758-36.365-369.25-128.29-0.46918 164.65 369.72z"/>
            <path id="path3738" style="fill: url(#pattern-0-6); stroke-width: 152.701; stroke: rgb(85, 218, 152);" d="m-328.3 99.788-305.07-374.77-190.45 3.3263 495.52 371.44z"/>
            <path id="path3740" style="fill: url(#pattern-0-7); stroke-width: 152.701; stroke: rgb(85, 218, 152);" d="m-328.3 100.8-493.96-171.73-2.0203 129.3 495.98 42.426z"/>
            <path id="path3742" style="fill: url(#pattern-0-8); stroke-width: 152.701; stroke: rgb(85, 218, 152);" d="m-327.29 99.788-492.95 59.599-3.0304 115.16 495.98-174.76z"/>
            <path id="path3744" style="fill: url(#pattern-0-9); stroke-width: 152.701; stroke: rgb(85, 218, 152);" d="m-328.3 98.778-497 282.84 7.0711 105.06 489.92-387.9z"/>
            <path id="path3746" style="fill: url(#pattern-0-10); stroke-width: 152.701; stroke: rgb(85, 218, 152);" d="m-327.29 97.768-494.97 590.94 1.6019 150.22 49.916-0.71429 443.46-740.44z"/>
            <path id="path3748" style="fill: url(#pattern-0-11); stroke-width: 152.701; stroke: rgb(85, 218, 152);" d="m-327.29 98.778-177.79 742.46 233.35-1.9401-55.558-740.52z"/>
            <path id="path3750" style="fill: url(#pattern-0-12); stroke-width: 152.701; stroke: rgb(85, 218, 152);" d="m-326.28 99.788 132.33 740.44 156.57 1.01-288.9-741.45z"/>
            <path id="path3752" style="fill: url(#pattern-0-13); stroke-width: 152.701; stroke: rgb(85, 218, 152);" d="m-327.29 95.748 484.55 742.84 186.19 1.64-670.74-744.48z"/>
            <path id="path3754" style="fill: url(#pattern-0-14); stroke-width: 152.701; stroke: rgb(85, 218, 152);" d="M -326.78 98.778 L 717.22 737.198 L 717.22 523.048 L -326.78 98.778 L -326.78 98.778 Z"/>
            <path id="path3756" style="fill: url(#pattern-0-15); stroke-width: 152.701; stroke: rgb(85, 218, 152);" d="m-327.79 99.283 1044.8 102.53 1.12-241.53-1045.9 139z"/>
            <path id="path3758" style="fill: url(#pattern-0-16); stroke-width: 152.701; stroke: rgb(85, 218, 152);" d="M -327.79 99.536 L 291.434 -121.39 L 717.31 -273.334 L 246.48 -279.024 L -327.79 99.536 Z"/>
            <path id="path3676" style="fill: url(#pattern-0-17); stroke-width: 146.63; stroke: rgb(85, 218, 152);" d="m85.714 306.65c0 52.073-44.132 94.286-98.571 94.286s-98.571-42.213-98.571-94.286 44.132-94.286 98.571-94.286 98.571 42.213 98.571 94.286z" transform="matrix(1.0145 0 0 1.0606 -313.96 -225.31)"/>
            <path id="path3673-8-7" style="fill: url(#pattern-0-18); stroke-width: 152.701; stroke: rgb(85, 218, 152);" d="m717.1-274.1h-1539.3v1114h1539.3v-1114z"/>
            <path transform="matrix(-0.653708, 0.756747, -0.957572, -0.421229, -312.659998, -101.077459)" d="M 149 194 m -842.748 0 a 842.748 933.298 0 1 0 1685.496 0 a 842.748 933.298 0 1 0 -1685.496 0 Z M 149 194 m -505.648 0 a 505.648 559.978 0 0 1 1011.296 0 a 505.648 559.978 0 0 1 -1011.296 0 Z" style="fill: url(#pattern-0-19); stroke-width: 154.678; stroke: rgb(85, 218, 152);" bx:shape="ring 149 194 505.648 559.978 842.748 933.298 1@ac3f944a"/>
            <path transform="matrix(-0.835285, 0.549816, -0.83611, -0.646836, -15.28734, 58.6239)" d="M 225 247 m -340.033 0 a 340.033 313.342 0 1 0 680.066 0 a 340.033 313.342 0 1 0 -680.066 0 Z M 225 247 m -204.021 0 a 204.021 188.006 0 0 1 408.042 0 a 204.021 188.006 0 0 1 -408.042 0 Z" style="fill: url(#pattern-0-20); stroke-width: 154.75; stroke: rgb(85, 218, 152);" bx:shape="ring 225 247 204.021 188.006 340.033 313.342 1@ed6269a0"/>
          </g>
        </g>
      </g>
      <path style="fill: rgb(216, 216, 216); stroke-width: 12; stroke: rgb(85, 218, 152);"/>
      <path style="fill: rgb(216, 216, 216); stroke-width: 12; stroke: rgb(85, 218, 152);" transform="matrix(0.780871, -0.624695, 0.624695, 0.780867, -520.309113, 234.467225)" d="M 609 213 m -1.026 0 a 1.026 1.026 0 1 0 2.052 0 a 1.026 1.026 0 1 0 -2.052 0 Z M 609 213 m -0.616 0 a 0.616 0.616 0 0 1 1.232 0 a 0.616 0.616 0 0 1 -1.232 0 Z" bx:shape="ring 609 213 0.616 0.616 1.026 1.026 1@73d69828"/>
    </pattern>
    <pattern id="pattern-0-0" patternTransform="matrix(0.802301, -0.416269, 0.484975, 0.934726, 233.839172, 696.900024)" xlink:href="#pattern-0"/>
    <pattern id="pattern-0-1" patternTransform="matrix(1, 0, 0, 1, -10, -10)" xlink:href="#pattern-0"/>
    <pattern id="pattern-0-2" patternTransform="matrix(1, 0, 0, 1, -62.550049, 272.899994)" xlink:href="#pattern-0"/>
    <pattern id="pattern-0-3" patternTransform="matrix(1, 0, 0, 1, -62.549988, 272.889954)" xlink:href="#pattern-0"/>
    <pattern id="pattern-0-4" patternTransform="matrix(1, 0, 0, 1, -232.393005, -96.121979)" xlink:href="#pattern-0"/>
    <pattern id="pattern-0-5" patternTransform="matrix(1, 0, 0, 1, -416.587494, -98.101181)" xlink:href="#pattern-0"/>
    <pattern id="pattern-0-6" patternTransform="matrix(1, 0, 0, 1, -586.059998, -97.597)" xlink:href="#pattern-0"/>
    <pattern id="pattern-0-7" patternTransform="matrix(1, 0, 0, 1, -586.290161, 4.935005)" xlink:href="#pattern-0"/>
    <pattern id="pattern-0-8" patternTransform="matrix(1, 0, 0, 1, -585.280212, 177.166992)" xlink:href="#pattern-0"/>
    <pattern id="pattern-0-9" patternTransform="matrix(1, 0, 0, 1, -586.799988, 282.727966)" xlink:href="#pattern-0"/>
    <pattern id="pattern-0-10" patternTransform="matrix(1, 0, 0, 1, -584.771057, 458.347992)" xlink:href="#pattern-0"/>
    <pattern id="pattern-0-11" patternTransform="matrix(1, 0, 0, 1, -398.405029, 460.007965)" xlink:href="#pattern-0"/>
    <pattern id="pattern-0-12" patternTransform="matrix(1, 0, 0, 1, -191.829987, 460.513)" xlink:href="#pattern-0"/>
    <pattern id="pattern-0-13" patternTransform="matrix(1, 0, 0, 1, -1.920013, 457.988037)" xlink:href="#pattern-0"/>
    <pattern id="pattern-0-14" patternTransform="matrix(1, 0, 0, 1, 185.220001, 407.987976)" xlink:href="#pattern-0"/>
    <pattern id="pattern-0-15" patternTransform="matrix(1, 0, 0, 1, 185.170013, 71.047989)" xlink:href="#pattern-0"/>
    <pattern id="pattern-0-16" patternTransform="matrix(1, 0, 0, 1, 184.759979, -99.743988)" xlink:href="#pattern-0"/>
    <pattern id="pattern-0-17" patternTransform="matrix(1, 0, 0, 1, -22.857002, 296.649994)" xlink:href="#pattern-0"/>
    <pattern id="pattern-0-18" patternTransform="matrix(1, 0, 0, 1, -62.550049, 272.899994)" xlink:href="#pattern-0"/>
    <pattern id="pattern-0-19" patternTransform="matrix(1, 0, 0, 1, 138.999939, 184)" xlink:href="#pattern-0"/>
    <pattern id="pattern-0-20" patternTransform="matrix(1, 0, 0, 1, 214.999954, 237.054138)" xlink:href="#pattern-0"/>
    <pattern id="pattern-1" viewBox="0 0 100 100" patternUnits="userSpaceOnUse" preserveAspectRatio="none" width="100" height="100"/>
  </defs>
  <rect id="svgEditorBackground" x="202.71499633789062" y="584.4310302734375" width="86.59329986572266" height="115.80899810791016" style="fill: none; stroke: none;" class="shirt"/>
  <polygon id="e3_polygon" style="stroke-width: 0px; stroke: none; fill: url(#pattern-0-0);" points="243.197 661.307 233.575 703.92 246.633 741.035 247.321 741.035 261.067 704.607 251.444 661.307" class="ties"/>
  <path style="fill: url(#pattern-0-1);"/>
</svg>