<?xml version="1.0" encoding="utf-8"?>
<svg width="86" height="380" viewBox="202.715 584.407 86.5933 380.048" preserveAspectRatio="xMidYMid meet" xmlns="http://www.w3.org/2000/svg" xmlns:xlink="http://www.w3.org/1999/xlink">
  <defs id="svgEditorDefs">
    <path id="svgEditorClosePathDefs" fill="moccasin" style="stroke-width: 0px; stroke: none; fill-opacity: 1;" class="shirt"/>
    <pattern id="pattern-0" x="0" y="0" width="20" height="20" patternUnits="userSpaceOnUse" viewBox="0 0 100 100">
      <path d="M 0 0 L 50 0 L 50 100 L 0 100 Z" style="fill: black;"/>
      <g transform="matrix(0.118427, 0, 0, 0.118427, 4.642083, 3.349987)">
        <g id="layer1" transform="translate(0 -332.36)">
          <path id="path2928" style="fill:#000000" d="m658.23 425.89c82.355 82.355 82.355 215.88 8e-13 298.23l-298.23 298.28-298.23-298.27c-82.355-82.355-82.355-215.88 1.2e-12 -298.23 82.355-82.355 215.88-82.355 298.23 0 82.355-82.355 215.88-82.355 298.23 0z"/>
          <path id="path2911" style="fill:#ffffff" d="m633.38 448.17c75.492 75.492 75.492 197.89 7e-13 273.38l-273.38 273.39-273.38-273.39c-75.492-75.492-75.492-197.89 1.09e-12 -273.38 75.492-75.492 197.89-75.492 273.38 0 75.492-75.492 197.89-75.492 273.38 0z"/>
          <path id="path2913" style="fill:#000000" d="m608.53 470.45c68.629 68.629 68.629 179.9 7e-13 248.53l-248.53 248.53-248.53-248.53c-68.629-68.629-68.629-179.9 9.9e-13 -248.53 68.629-68.629 179.9-68.629 248.53 0 68.629-68.629 179.9-68.629 248.53 0z"/>
          <path id="path2915" style="fill:#ffffff" d="m583.68 492.73c61.766 61.766 61.766 161.91 7e-13 223.68l-223.68 223.67-223.68-223.67c-61.766-61.766-61.766-161.91 9e-13 -223.68 61.766-61.766 161.91-61.766 223.68 0 61.766-61.766 161.91-61.766 223.68 0z"/>
          <path id="path2917" style="fill:#000000" d="m558.82 515.01c54.903 54.903 54.903 143.92 6e-13 198.82l-198.82 198.83-198.82-198.83c-54.903-54.903-54.903-143.92 8e-13 -198.82 54.903-54.903 143.92-54.903 198.82 0 54.903-54.903 143.92-54.903 198.82 0z"/>
          <path id="path2919" style="fill:#ffffff" d="m533.97 537.29c48.04 48.04 48.04 125.93 7e-13 173.97l-173.97 173.97-173.97-173.97c-48.04-48.04-48.04-125.93 7e-13 -173.97s125.93-48.04 173.97 0c48.04-48.04 125.93-48.04 173.97 0z"/>
          <path id="path2921" style="fill:#000000" d="m509.12 559.57c41.177 41.177 41.177 107.94 6e-13 149.12l-149.12 149.11-149.12-149.11c-41.177-41.177-41.177-107.94 6e-13 -149.12 41.177-41.177 107.94-41.177 149.12 0 41.177-41.177 107.94-41.177 149.12 0z"/>
          <path id="path2923" style="fill:#ffffff" d="m484.26 581.85c34.315 34.315 34.315 89.949 5e-13 124.26l-124.26 124.27-124.26-124.27c-34.315-34.315-34.315-89.949 5e-13 -124.26 34.315-34.315 89.949-34.315 124.26 0 34.315-34.315 89.949-34.315 124.26 0z"/>
          <path id="path2925" style="fill:#000000" d="m459.41 604.13c27.452 27.452 27.452 71.96 4e-13 99.411l-99.41 99.41-99.41-99.41c-27.452-27.452-27.452-71.96 4e-13 -99.411 27.452-27.452 71.96-27.452 99.411 0 27.452-27.452 71.96-27.452 99.411 0z"/>
          <path id="path2927" style="fill:#ffffff" d="m434.56 626.41c20.589 20.589 20.589 53.97 3e-13 74.558l-74.56 74.55-74.56-74.55c-20.589-20.589-20.589-53.97 3e-13 -74.558 20.589-20.589 53.97-20.589 74.558 0 20.589-20.589 53.97-20.589 74.558 0z"/>
          <path id="path2929" style="fill:#000000" d="m409.71 648.69c13.726 13.726 13.726 35.98 2e-13 49.706l-49.71 49.7-49.71-49.71c-13.726-13.726-13.726-35.98 2e-13 -49.706s35.98-13.726 49.706 0c13.726-13.726 35.98-13.726 49.706 0z"/>
          <path id="path2931" style="fill:#ffffff" d="m384.85 670.97c6.8629 6.8629 6.8629 17.99 0 24.853l-24.853 24.853-24.853-24.853c-6.8629-6.8629-6.8629-17.99 0-24.853 6.8629-6.8629 17.99-6.8629 24.853 0 6.8629-6.8629 17.99-6.8629 24.853 0z"/>
        </g>
      </g>
      <g transform="matrix(-0.039598, 0.11161, -0.11161, -0.039598, 115.246254, 8.96051)">
        <g id="g-1" transform="translate(0 -332.36)">
          <path id="path-1" style="fill:#000000" d="m658.23 425.89c82.355 82.355 82.355 215.88 8e-13 298.23l-298.23 298.28-298.23-298.27c-82.355-82.355-82.355-215.88 1.2e-12 -298.23 82.355-82.355 215.88-82.355 298.23 0 82.355-82.355 215.88-82.355 298.23 0z"/>
          <path id="path-2" style="fill:#ffffff" d="m633.38 448.17c75.492 75.492 75.492 197.89 7e-13 273.38l-273.38 273.39-273.38-273.39c-75.492-75.492-75.492-197.89 1.09e-12 -273.38 75.492-75.492 197.89-75.492 273.38 0 75.492-75.492 197.89-75.492 273.38 0z"/>
          <path id="path-3" style="fill:#000000" d="m608.53 470.45c68.629 68.629 68.629 179.9 7e-13 248.53l-248.53 248.53-248.53-248.53c-68.629-68.629-68.629-179.9 9.9e-13 -248.53 68.629-68.629 179.9-68.629 248.53 0 68.629-68.629 179.9-68.629 248.53 0z"/>
          <path id="path-4" style="fill:#ffffff" d="m583.68 492.73c61.766 61.766 61.766 161.91 7e-13 223.68l-223.68 223.67-223.68-223.67c-61.766-61.766-61.766-161.91 9e-13 -223.68 61.766-61.766 161.91-61.766 223.68 0 61.766-61.766 161.91-61.766 223.68 0z"/>
          <path id="path-5" style="fill:#000000" d="m558.82 515.01c54.903 54.903 54.903 143.92 6e-13 198.82l-198.82 198.83-198.82-198.83c-54.903-54.903-54.903-143.92 8e-13 -198.82 54.903-54.903 143.92-54.903 198.82 0 54.903-54.903 143.92-54.903 198.82 0z"/>
          <path id="path-6" style="fill:#ffffff" d="m533.97 537.29c48.04 48.04 48.04 125.93 7e-13 173.97l-173.97 173.97-173.97-173.97c-48.04-48.04-48.04-125.93 7e-13 -173.97s125.93-48.04 173.97 0c48.04-48.04 125.93-48.04 173.97 0z"/>
          <path id="path-7" style="fill:#000000" d="m509.12 559.57c41.177 41.177 41.177 107.94 6e-13 149.12l-149.12 149.11-149.12-149.11c-41.177-41.177-41.177-107.94 6e-13 -149.12 41.177-41.177 107.94-41.177 149.12 0 41.177-41.177 107.94-41.177 149.12 0z"/>
          <path id="path-8" style="fill:#ffffff" d="m484.26 581.85c34.315 34.315 34.315 89.949 5e-13 124.26l-124.26 124.27-124.26-124.27c-34.315-34.315-34.315-89.949 5e-13 -124.26 34.315-34.315 89.949-34.315 124.26 0 34.315-34.315 89.949-34.315 124.26 0z"/>
          <path id="path-9" style="fill:#000000" d="m459.41 604.13c27.452 27.452 27.452 71.96 4e-13 99.411l-99.41 99.41-99.41-99.41c-27.452-27.452-27.452-71.96 4e-13 -99.411 27.452-27.452 71.96-27.452 99.411 0 27.452-27.452 71.96-27.452 99.411 0z"/>
          <path id="path-10" style="fill:#ffffff" d="m434.56 626.41c20.589 20.589 20.589 53.97 3e-13 74.558l-74.56 74.55-74.56-74.55c-20.589-20.589-20.589-53.97 3e-13 -74.558 20.589-20.589 53.97-20.589 74.558 0 20.589-20.589 53.97-20.589 74.558 0z"/>
          <path id="path-11" style="fill:#000000" d="m409.71 648.69c13.726 13.726 13.726 35.98 2e-13 49.706l-49.71 49.7-49.71-49.71c-13.726-13.726-13.726-35.98 2e-13 -49.706s35.98-13.726 49.706 0c13.726-13.726 35.98-13.726 49.706 0z"/>
          <path id="path-12" style="fill:#ffffff" d="m384.85 670.97c6.8629 6.8629 6.8629 17.99 0 24.853l-24.853 24.853-24.853-24.853c-6.8629-6.8629-6.8629-17.99 0-24.853 6.8629-6.8629 17.99-6.8629 24.853 0 6.8629-6.8629 17.99-6.8629 24.853 0z"/>
        </g>
      </g>
    </pattern>
    <pattern id="pattern-0-0" patternTransform="matrix(1, 0, 0, 1, 237.320984, 690.561951)" xlink:href="#pattern-0"/>
  </defs>
  <rect id="svgEditorBackground" x="202.71499633789062" y="584.4310302734375" width="86.59329986572266" height="115.80899810791016" style="fill: none; stroke: none;" class="shirt"/>
  <polygon id="e3_polygon" style="stroke-width: 0px; stroke: none; fill: url(#pattern-0-0);" points="243.197 660.698 233.575 703.311 246.633 740.426 247.321 740.426 261.067 703.998 251.444 660.698" class="ties"/>
</svg>