<?xml version="1.0" encoding="utf-8"?>
<svg width="86" height="380" viewBox="202.715 584.407 86.5933 380.048" preserveAspectRatio="xMidYMid meet" xmlns="http://www.w3.org/2000/svg" xmlns:xlink="http://www.w3.org/1999/xlink">
  <defs id="svgEditorDefs">
    <path id="svgEditorClosePathDefs" fill="moccasin" style="stroke-width: 0px; stroke: none; fill-opacity: 1;" class="shirt"/>
    <pattern id="pattern-0" x="0" y="0" width="20" height="20" patternUnits="userSpaceOnUse" viewBox="0 0 100 100">
      <g transform="matrix(0.065451, 0, 0, 0.091719, -0.63983, -2.145864)">
        <g id="layer1" transform="translate(868.42 -177.86)">
          <g id="g3922" transform="translate(-40,460)">
            <path id="path3673-8-1" style="fill:#ffbe00" d="m717.1-274.1h-1539.3v1114h1539.3v-1114z"/>
            <path id="path3673-8" style="stroke:#ffffff;stroke-width:6.2481;fill:url(#radialGradient3941)" d="m716.9-273.91h-1538.9v1113.6h1538.9v-1113.6z"/>
            <path id="path3734" style="stroke:#ffffff;stroke-width:6.25;fill:#ffff93" d="m-327.29 99.788 49.497-371.74 160.3-0.08-209.8 371.82z"/>
            <path id="path3736" style="stroke:#ffffff;stroke-width:6.25;fill:#e8d630" d="m-324.26 96.758-36.365-369.25-128.29-0.46918 164.65 369.72z"/>
            <path id="path3738" style="stroke:#ffffff;stroke-width:6.25;fill:#ffca00" d="m-328.3 99.788-305.07-374.77-190.45 3.3263 495.52 371.44z"/>
            <path id="path3740" style="stroke:#ffffff;stroke-width:6.25;fill:#ffff93" d="m-328.3 100.8-493.96-171.73-2.0203 129.3 495.98 42.426z"/>
            <path id="path3742" style="stroke:#ffffff;stroke-width:6.25;fill:#ffdc00" d="m-327.29 99.788-492.95 59.599-3.0304 115.16 495.98-174.76z"/>
            <path id="path3744" style="stroke:#ffffff;stroke-width:6.25;fill:#e8d630" d="m-328.3 98.778-497 282.84 7.0711 105.06 489.92-387.9z"/>
            <path id="path3746" style="stroke:#ffffff;stroke-width:6.25;fill:#ffff00" d="m-327.29 97.768-494.97 590.94 1.6019 150.22 49.916-0.71429 443.46-740.44z"/>
            <path id="path3748" style="stroke:#ffffff;stroke-width:6.25;fill:#ffad00" d="m-327.29 98.778-177.79 742.46 233.35-1.9401-55.558-740.52z"/>
            <path id="path3750" style="stroke:#ffffff;stroke-width:6.25;fill:#ffff93" d="m-326.28 99.788 132.33 740.44 156.57 1.01-288.9-741.45z"/>
            <path id="path3752" style="stroke:#ffffff;stroke-width:6.25;fill:#ffd100" d="m-327.29 95.748 484.55 742.84 186.19 1.64-670.74-744.48z"/>
            <path id="path3754" style="stroke:#ffffff;stroke-width:6.25;fill:#e8d630" d="m-326.78 98.778 1044 638.42v-214.15l-1044-424.27z"/>
            <path id="path3756" style="stroke:#ffffff;stroke-width:6.25;fill:#ffad00" d="m-327.79 99.283 1044.8 102.53 1.12-241.53-1045.9 139z"/>
            <path id="path3758" style="stroke:#ffffff;stroke-width:6.25;fill:#ffff00" d="m-327.79 99.536 1045.1-372.87-470.83-5.69-574.27 378.56z"/>
            <path id="path3676" style="stroke:#ffffff;stroke-width:6.0253;fill:#ffff00" d="m85.714 306.65c0 52.073-44.132 94.286-98.571 94.286s-98.571-42.213-98.571-94.286 44.132-94.286 98.571-94.286 98.571 42.213 98.571 94.286z" transform="matrix(1.0145 0 0 1.0606 -313.96 -225.31)"/>
            <path id="path3673-8-7" style="stroke:#ffffff;stroke-width:10;fill:none" d="m717.1-274.1h-1539.3v1114h1539.3v-1114z"/>
          </g>
        </g>
      </g>
    </pattern>
    <pattern id="pattern-0-0" patternTransform="matrix(0.802301, -0.416269, 0.484975, 0.934726, 233.839172, 696.900024)" xlink:href="#pattern-0"/>
    <radialGradient id="radialGradient3941" gradientUnits="userSpaceOnUse" cy="27.304" cx="-311.13" gradientTransform="matrix(-.78156 1.0777 -1.3313 -.96531 -517.87 458.74)" r="779.63">
      <stop id="stop3762" style="stop-color:#ffff00" offset="0"/>
      <stop id="stop3764" style="stop-color:#ffff00;stop-opacity:0" offset="1"/>
    </radialGradient>
  </defs>
  <rect id="svgEditorBackground" x="202.71499633789062" y="584.4310302734375" width="86.59329986572266" height="115.80899810791016" style="fill: none; stroke: none;" class="shirt"/>
  <polygon id="e3_polygon" style="stroke-width: 0px; stroke: none; fill: url(#pattern-0-0);" points="243.197 661.307 233.575 703.92 246.633 741.035 247.321 741.035 261.067 704.607 251.444 661.307" class="ties"/>
</svg>