<?xml version="1.0" encoding="utf-8"?>
<svg class="shirt" width="86" height="380" viewBox="202.715 584.407 86.5933 380.048" preserveAspectRatio="xMidYMax" xmlns="http://www.w3.org/2000/svg">
  <defs id="svgEditorDefs">
    <path id="svgEditorClosePathDefs" fill="red" style="stroke-width: 0px; stroke: none;" class="clothes"/>
  </defs>
  <rect id="svgEditorBackground" x="202.71499633789062" y="584.4310302734375" width="86.59329986572266" height="115.80899810791016" style="fill: none; stroke: none;" class="clothes"/>
  <rect id="rect-1" x="-403.988" y="499.579" width="1300" height="550" style="fill: none; stroke: none;" class="clothes"/>
  <g transform="matrix(0.039157, 0, 0, 0.045017, 238.261917, 685.371704)">
    <g id="g5840" transform="matrix(1.3402 0 0 1.3402 -705.33 -42.384)">
      <path id="path2195" style="stroke-linejoin:round;stroke:#12892d;stroke-width:17.005;stroke-linecap:round;fill:#35e23e" d="m796.81 295.5c-0.87 0.09-1.79 0.4-2.75 0.94-6.26 3.51-1.11 104.87-27.09 196.44-8.98-24.81-42.99-57.7-89.78-83.91-63.25-35.43-125.81-45.24-139.66-21.91s26.23 71.01 89.47 106.44c53.3 29.86 106.01 41.44 129.59 30.41-6.78 17.66-14.85 34.54-24.9 49.53-65.84 98.16-173.26 73.18-176.16 78.68-30.6 58.02 126.48 40.92 192.31-57.24 15.72-23.44 28.29-53.69 37.94-85.91 0.24 0.41 0.36 0.89 0.63 1.28 15.19 22.48 75.42 6.56 134.43-35.53 59.02-42.09 94.56-94.49 79.36-116.97-15.18-22.48-75.4-6.56-134.42 35.53-29.57 21.09-53.26 44.76-67.62 65.97 17.14-84.22 15.73-165.5-1.35-163.75z"/>
      <path id="path1549" style="stroke-linejoin: round; stroke: rgb(245, 128, 6); stroke-width: 4.0248; fill: rgb(251, 5, 242);" d="m521.87 275.23c-43.016-29.588 2.1756-28.109-47.105-10.868-26.514 9.2766 3.6014 50.215 11.59 23.285 14.847-50.054 27.406-6.6172-4.2204-48.157-17.016-22.35-46.644 18.942-18.564 18.218 52.192-1.3472 14.762 24.02 44.496-18.895 15.998-23.09-32.429-38.508-23.062-12.026 17.409 49.221-18.282 21.462 31.721 36.479 26.903 8.0797 26.602-42.742 4.3102-25.65-41.432 31.768-26.061-10.755-24.892 41.441 0.62927 28.083 48.87 12.092 25.726-3.8269z" transform="matrix(4.225,0,0,4.225,-1287.4,-859.24)"/>
      <path id="path1551" style="stroke-linejoin:round;stroke:#f58006;stroke-width:4.0248;fill:#fadc06" d="m539.81 261.93c0 4.8697-3.9477 8.8174-8.8174 8.8174s-8.8174-3.9477-8.8174-8.8174 3.9477-8.8174 8.8174-8.8174 8.8174 3.9477 8.8174 8.8174z" transform="matrix(4.225,0,0,4.225,-1440.2,-885.76)"/>
    </g>
  </g>
</svg>