<svg class="shirtOverlay" width="86" height="380" viewBox="202.715 584.407 86.593 380.048" preserveAspectRatio="xMidYMax" xmlns="http://www.w3.org/2000/svg"><path class="clothes" fill="none" d="M202.715 584.431h86.593V700.24h-86.593z"/><path class="clothes" fill="none" d="M-403.988 499.579h1300v550h-1300z"/><path d="M369.49 695.16c-5.1-.41-14.91-1.81-18.19-2.59-3.99-.95-7.06-2.24-7.39-3.1-.24-.62 1.27-3.18 6.23-10.56 2.67-3.98 3.59-5.75 4.6-8.9 3.13-9.76 5.27-20.17 7.88-38.34 1.81-12.6 3.18-20.84 4.51-27.12.93-4.36 1.01-5.49.83-10.93-.13-3.94-.58-8.21-1.28-12.14-2.66-15.01-2.98-19.84-2.08-31.58.36-4.67.75-8.95.86-9.51.11-.55.65-4.47 1.2-8.7.54-4.23 1.12-8.4 1.27-9.27l.27-1.58-1.75.28c-.96.15-3.91.06-6.56-.22-3.86-.39-5.43-.39-7.92.03-7.03 1.17-16.69 4.11-33.27 10.15-12.59 4.59-23.89 8.31-30.36 10.01-7.52 1.97-13.83 2.21-24.11.92-8.22-1.03-12.12-.94-15.58.37-2.79 1.05-4.29 2.57-6.62 6.72-4.74 8.44-4.79 8.48-11.58 9.91-6.37 1.34-7.24 1.95-9.46 6.67-1.85 3.94-2.15 4.79-3.06 8.71-1.43 6.24-1.76 11.18-1.53 23.44.38 20.83 3.2 34.88 10.92 54.48 4.01 10.17 3.76 9.8 11.44 16.92 3.21 2.97 7.07 8.59 7.36 10.7.4 2.98-2.97 7.3-7.16 9.18-4.95 2.22-10 2.19-27.36-.15-4.91-.66-11.92-1.5-15.58-1.85-3.66-.36-7.26-.74-8.01-.85l-1.36-.2.24-2.1c.71-6.23 1.15-16.07.93-20.71-.3-6.48-1.3-11.36-4.11-20.04-3.18-9.85-4.51-14.64-5.48-19.84-.47-2.56-1.29-6.11-1.82-7.89-2.58-8.8-3.69-12.15-4.03-12.15-.64 0-3.74 6.25-5.73 11.54-2.84 7.55-4.79 12.53-5.71 14.57-6.97 15.53-11.02 27.73-11.67 35.22-.23 2.63-.12 3.51.79 6.4 1.43 4.53 1.39 5.82-.22 7.36-2.03 1.94-4.92 2.58-10.24 2.28-11.36-.66-15.68-1.03-19.24-1.65-4.85-.85-17.09-3.82-17.54-4.25-.35-.34 1.42-4.1 4.47-9.48 1.97-3.48 12.5-24.41 14.89-29.6 5.12-11.13 10.57-24.76 13.83-34.6 3.79-11.46 8.24-28.6 9.44-36.44.26-1.67.63-3.77.82-4.66.31-1.4 1.42-10.62 2.85-23.68.24-2.11.78-6.08 1.21-8.81 1.36-8.55.9-12.96-1.97-19.16-.69-1.47-1.45-3.93-1.69-5.46-.92-5.72-2.16-10.28-2.79-10.28-.14 0-.71-.73-1.26-1.62-.91-1.48-1.62-2.06-1.62-1.33 0 .15-.45 3.57-1 7.59-.96 6.97-2.42 19.33-4.26 36.04-1.27 11.49-3.6 30.48-4.02 32.78-.2 1.12-.58 3.49-.84 5.27-1.76 11.98-3.47 18.73-7.25 28.66-3.22 8.44-4.3 11.58-5.08 14.79l-.55 2.29-.03-4.66c-.07-11.97 1.74-23.53 5.76-36.86 3.9-12.92 5.91-26.91 7.74-54.01 1.23-18.27 1.71-28.67 2.24-48.17.56-20.51 1.46-28.14 5.1-42.9 1.97-7.98 2.81-10.85 5.33-18.22 12.71-37.09 33.8-61.71 62.43-72.86 13.43-5.23 27.35-7.42 44.33-6.97 13.82.37 22.3 1.57 43.51 6.17 15.19 3.3 19.94 3.71 35.21 3.07 28.32-1.2 47.51-5.33 64.51-13.87 7.87-3.96 9.75-4.67 17.06-6.4 8.45-2 21.64-3.18 27.72-2.48 8.39.97 28.19 8.4 37.22 13.97 2.9 1.79 6.46 3.17 9.33 3.64.78.13 5.69.51 10.9.85 10.79.71 12.43 1.02 19.95 3.79 15.21 5.6 22.73 10.41 32.92 21.1 6.64 6.98 14.96 18.61 21.16 29.63 2.61 4.63 8.57 16.22 8.57 16.66 0 .1.81 1.88 1.79 3.96 3.35 7.11 7.12 16.43 12.58 31.11 1.94 5.23 3.94 10.61 4.44 11.94.51 1.34 1.71 4.6 2.68 7.26 2.1 5.77 2.82 6.91 5.39 8.6 3.22 2.11 8.29 3.27 19.07 4.36 8.59.88 11.53 1.43 11.53 2.18 0 1.28-2.06 4.06-3.73 5.04-2.5 1.46-4.98 2.2-10.34 3.12-7.83 1.35-9.48 1.68-12.34 2.52-1.5.44-2.73.92-2.73 1.06 0 .15 1.26 6.73 2.8 14.64 3.86 19.78 6.11 32.5 9.56 54.03 4.85 30.33 8.17 68.93 9.31 108.28.26 8.95.91 14.69 1.99 17.77.34.97.62 1.8.62 1.85s-.77.1-1.72.12c-.94.02-3.78.77-6.3 1.68-4.37 1.57-6.51 1.95-7.93 1.41-.83-.32-.83-2.31.01-6.23 1.12-5.27.48-15.07-2.28-34.61-2.11-14.92-7.21-38.55-11.6-53.78-.78-2.7-1.56-5.46-1.74-6.13-1.13-4.16-9.56-35.35-10.77-39.87-9.36-34.76-16.54-52.82-26.49-66.58-5.21-7.22-8.68-9.43-19.42-12.35-5.37-1.46-8.13-2.53-16.19-6.27-8.89-4.14-12.76-5.55-15.87-5.78-2.7-.2-2.73-.19-3.18.97-.35.89-.31 2.24.19 5.82.78 5.59.83 8.92.14 9.83-.8 1.06-13.93 3.55-20.15 3.82-4.24.18-5.94.06-10.32-.74-7.19-1.31-19.45-1.41-22.76-.18-2.95 1.1-4.71 2.67-5.99 5.36-1.5 3.18-2.1 7.04-2.63 16.92-.63 11.79-.18 14.37 5.52 31.95 1.88 5.8 4.15 13.56 5.06 17.23 3.59 14.66 5.43 19.07 19.26 46.15 6.47 12.68 8.97 18.32 11.49 25.9 2.76 8.34 3.65 13.09 3.89 20.85.12 3.82.43 7.19.76 8.21.8 2.52 2.6 4.58 7.02 8.05 5.1 4.02 9.07 7.92 15.52 15.24l5.29 6-1.98 2.03c-2.6 2.68-7.94 7.12-10.48 8.72-8.1 5.11-14.91 6.23-28.86 4.74-3.27-.35-8.63-.76-11.9-.92-3.28-.16-6.05-.39-6.17-.51s-.4-3.23-.63-6.91c-.91-15.18-3.19-25.95-8.12-38.38-2.73-6.9-4.33-10.04-8.01-15.69-3.47-5.33-6.25-10.17-9.59-16.69-3.06-5.97-7.28-12.78-11.18-18.01-2.65-3.57-5.83-7.01-6.16-6.66-.09.1-1.35 3.37-2.81 7.26-2.6 6.97-3.69 10.16-9.63 28.34-2.47 7.56-3.72 10.62-7.37 18.01-6.55 13.24-8.35 18.4-7.58 21.78.36 1.59 2.1 4.43 3.24 5.27.68.5 8.53 10.09 10.05 12.27.8 1.14 3.32 7.64 3.32 8.54 0 .36-2.13.75-10.73 1.99-3.92.57-22.01 1.04-26.31.69z" stroke="#eeffb5" stroke-width="16.377" transform="matrix(.0618 0 0 .06032 226.11 668.78)"/></svg>