<svg class="shirtOverlay" width="86" height="380" viewBox="202.715 584.407 86.593 380.048" preserveAspectRatio="xMidYMax" xmlns="http://www.w3.org/2000/svg" xmlns:xlink="http://www.w3.org/1999/xlink"><defs><pattern id="m" patternTransform="matrix(32.43323 0 0 38.63321 130.785 -204.263)" xlink:href="#a"/><pattern id="a" width="20" height="20" patternUnits="userSpaceOnUse" viewBox="0 0 100 100"><path fill="#fff" d="M-8.469-1.629h109.772v104.723H-8.469z"/><g transform="matrix(.15546 0 0 .1989 .783 8.893)"><path d="M235.71 316.86c-7.243.212-17.56 3.002-42.031 9.438-29.822 7.842-65.422 20.844-57.094 20.844 1.111 0 10.682-2.753 21.25-6.094 21.065-6.66 54.388-15.437 64.406-17 3.067-.11 6.118 0 9.25.281 1.57.343 3.227.81 5.094 1.469 4.192 1.478 8.507 2.687 9.562 2.687 3.296 0 80.664 26.327 84.22 28.656 1.854 1.216 4.35 4.054 5.562 6.313s5.412 8.875 9.312 14.719c3.9 5.843 10.753 17.568 15.22 26.062 4.465 8.494 9.718 17.562 11.687 20.125 1.97 2.563 4.64 6.75 5.938 9.312s4.38 6.908 6.844 9.656c2.463 2.749 4.468 5.549 4.468 6.22 0 .67.372 2.164.813 3.312.062.16.128.774.156 1.094-.116.344-.247.71-.687 1.03l-.313-.093s-3.87-1.193-5.062 0c-1.024 1.024 0 4.344 0 4.344-.963 1.479-1.686 3.314-2.094 5.281 0 0-2.864.634-3.188 1.813-.517 1.885 2.907 5.093 2.907 5.093l.218-.125c.128.631.287 1.253.5 1.844.304.84 1.494 3.004 2.031 3.375.172.625.565 1.174 1.094 1.594-.285.105-.57.208-.843.25-1.37.211-5.288-.052-9.782-.688-6.276-.887-12.92-3.636-28.594-11.812-14.074-7.341-26.372-12.567-39.688-16.875-28.987-9.377-30.412-9.74-42.625-10.406-6.224-.34-14.597-1.562-18.625-2.718-4.027-1.157-18.712-3.879-32.625-6.063-17.679-2.775-26.126-3.675-36.156-3.594-1.433.012-2.909.045-4.437.094-29.545.945-58.851 4.677-95.531 12.125-18.405 3.737-20.587 4.381-19.625 5.938.832 1.346 5.881.68 26.594-3.563 28.72-5.884 70.15-9.451 83.219-7.156 7.543 1.324 12.615 2.069 51.25 7.344 20.624 2.815 40.457 7.495 69.906 16.53 4.76 1.461 11.972 3.667 16 4.907 4.027 1.24 15.686 6.6 25.938 11.906 10.252 5.305 22.602 10.932 27.438 12.5 7.12 2.308 11.587 4.468 12.78 6.094.075.213.326.44.345.625.02.197.065.529-.157.75-.046.046-.11.079-.156.125-.573.573-4.18 1.428-8 1.906-31.31 3.918-72.844 13.807-72.844 17.344 0 .336-.9.685-1.375.906-.475.22-.957.313-1.25.313-3.605 0-36.409 16.972-58.969 30.53-5.002 3.007-6.442 5.407-3.281 5.407.927 0 7.948-3.621 15.625-8.063 25.712-14.875 44.882-23.26 50.156-21.938 1.702.427 10.44-1.062 19.406-3.312 26.843-6.74 40.743-8.168 69.156-7.125 10.647.39 16.868.532 20.844.375.127-.006.253.008.375 0 .278-.013.463-.047.719-.063 3.381-.21 4.942-.695 6.312-1.594 5.43-3.557 7.172-.436 7.063-1.187.025.023.091.079.156.187.328 1.067.969 3.357.969 4.532 0 3.666.98 5.693 4.218 8.718.856.8 3.059 2.689 3.063 4.688-.032.002-.062-.001-.094 0 1.197 2.574 1.078 5.004 2 15.719 1.26 14.624 2.474 18.092 2.75 21.062.277 2.97-.86 4.123-.125 13.781 1.968 25.863 5.253 43.466 7.688 41.031 1.007-1.008.968-7.262-.157-21.531-.872-11.071-1.223-25.036-.78-31.031.095-1.298.149-2.811.187-4.406.341-.827.33-2.462.062-4.875-.04-4.581-.3-9.372-.687-12.938-.516-4.749-.92-9.95-.031-12.344.43.364.87.719 1.28 1.094 1.338.759 4.105 3.38 7.063 6.78 3.819 4.391 10.595 11.426 15.031 15.657 4.437 4.231 11.314 12.515 15.281 18.375 7.046 10.408 8.81 12.854 21.22 29.28 3.318 4.394 10.224 13.99 15.343 21.313 5.119 7.323 12.113 16.535 15.562 20.5 7.455 8.569 21.721 28.68 30.562 43.094 11.522 18.783 20.907 32.628 27.656 40.812 3.662 4.44 7.097 8.089 7.656 8.094 1.518.014-2.388-8.646-6.78-15.031-8.898-12.934-18.756-28.707-22.032-35.22-1.929-3.834-7.761-13.72-12.969-21.968-5.207-8.249-11.855-19.588-14.75-25.22-5.076-9.874-12.184-20.462-27.719-41.218-8.712-11.64-10.068-13.577-18.406-25.938-6.986-10.357-15.86-21.363-22.312-27.72-6.77-6.667-16.45-20.936-16.5-24.311-.003-.01.003-.023 0-.032-.226-.62-.375-1.237-.375-1.812 0-1.738 2.224-3.664 3.344-4.344.616-.03.772.044.844.031 8.003 12.451 19.729 20.924 44.156 25.781 41.48 8.249 55.13-19.985 54.688-45.844-.223-13.023-13.188-34.9-31.062-47.719-.991-2.303.27-5.176 1.531-6.437 1.097-1.097 6.957-3.845 13-6.125s12.306-4.824 13.906-5.625c3.694-1.849 21.153-.422 35.688 2.906 5.858 1.341 14.553 2.848 19.312 3.344 4.76.495 15.526 2.781 23.938 5.094l15.312 4.218 6.969 9.97c5.764 8.24 13.01 21.886 26.062 49.03 2.248 4.675 9.869 13.012 10.938 11.97.516-.505-2.372-8.033-6.406-16.72-4.035-8.687-8.953-19.653-10.938-24.375-7.619-18.12-15.312-31.33-23.031-39.594-4.798-5.136-11.585-7.118-39.594-11.5-12.41-1.941-26.894-4.689-32.188-6.125-5.61-1.522-11.843-2.314-18-2.375-.88-.009-1.75.01-2.625.031-8.998.212-17.64 1.96-23.781 5.094-2.204 1.124-4.636 2.069-6.125 2.438l-.5.406s-3.525.27-6.625 2.906c-1.833 1.558-4.183 2.987-6.313 4.156a99.39 99.39 0 0 1-2.625 1.625c-4.397 2.615-9.61 5.557-16.062 5.47h-.062c-7.464 0-15.375.491-22.781 1.968-2.977-2.508 8.195-15.635 12.25-18.47 2.386-1.668 9.4-4.3 15.562-5.812 5.346-1.312 8.167-1.945 9.968-2 1.802-.054 2.581.48 3.813 1.594 2.653 2.4 6.678 8.392 6.906 10.344.578-.051 1.128-1.357 4.813-1.812l.468-.563c-1.909-2.35-6.156-9.344-7.218-12.594-.414-1.265-.99-3.82-2.188-5.531-1.249-1.783-2.049-2.543-4.187-2.656a13.18 13.18 0 0 0-1.063 0c-1.16.034-2.64.181-4.625.406-9.88 1.118-24.144 5.093-28.438 7.906-1.84 1.206-9.977 12.063-18.094 24.125-2.58 3.833-8.079 11.608-10.438 15-2.532 2.24-4.643 4.877-6.219 7.969-.289-.125-.526-.217-.719-.312l-.062-.032c-.19-.09-.382-.191-.563-.25-3.804-1.938-8.659-3.263-13.78-3.843-1.999-3.62-.679-12.594 1.78-23.156.939-4.028 2.406-11.82 3.25-17.312.846-5.493 2.134-13.303 2.844-17.375 2.529-14.497 2.063-16.326-6.375-25.531-4.21-4.594-11.263-11.733-15.656-15.844-15.752-14.74-20.047-18.638-24.656-18.47-1.536.057-3.116.575-5.156 1.282-6.37 2.206-29.93 15.432-32.062 18-.953 1.149-2.207 2.87-3.312 3.969-1.085-1.13-2.285-2.135-3.406-3-1.69-.827-3.715-2.231-6.25-4.25-7.682-6.116-12.058-8-18.375-8-3.842 0-33.662-9.048-65.875-19.97-7.148-2.422-10.93-3.82-16.562-3.656zm146.47 24.125c.125-.011.228.004.344 0 1.217.573 2.94 1.624 5 3.063 1.72 1.856 6.221 5.884 11.53 10.219 6.774 5.529 14.81 12.973 17.845 16.53l5.5 6.47-1.188 11.811c-.658 6.5-1.846 13.954-2.625 16.562-3.996 13.383-5.483 21.808-5.812 32.688-.143 4.703-.32 10.084-1.531 12.406-5.18.491-12.5-4.87-12.5-6.28 0-.688-1.549-3.074-3.407-5.282s-8.373-13.943-14.5-26.094-13.482-25.21-16.344-29.031c-5.935-7.927-10.953-15.44-13.406-19.938-.564-.873-1.03-1.784-1.312-2.719-.024-.06-.042-.098-.063-.156-.014-.053-.046-.104-.062-.156-.044-.132-.097-.264-.125-.375-.063-.178-.144-.356-.219-.532 0-4.076 25.336-18.495 32.875-19.188zm-34.031 17.125c.21.273.386.554.531.875-.17-.291-.335-.591-.531-.875zm66.5 150.28c.09.164.191.362.313.594.029.148.087.332.093.437.004.012-.212-.53-.406-1.031z" transform="translate(-53.022 -314.93)"/><path d="M235.71 316.86c-7.243.212-17.56 3.002-42.031 9.438-29.822 7.842-65.422 20.844-57.094 20.844 1.111 0 10.682-2.753 21.25-6.094 21.065-6.66 54.388-15.437 64.406-17 3.067-.11 6.118 0 9.25.281 1.57.343 3.227.81 5.094 1.469 4.192 1.478 8.507 2.687 9.562 2.687 3.296 0 80.664 26.327 84.22 28.656 1.854 1.216 4.35 4.054 5.562 6.313s5.412 8.875 9.312 14.719c3.9 5.843 10.753 17.568 15.22 26.062 4.465 8.494 9.718 17.562 11.687 20.125 1.97 2.563 4.64 6.75 5.938 9.312s4.38 6.908 6.844 9.656c2.463 2.749 4.468 5.549 4.468 6.22 0 .67.372 2.164.813 3.312.062.16.128.774.156 1.094-.116.344-.247.71-.687 1.03l-.313-.093s-3.87-1.193-5.062 0c-1.024 1.024 0 4.344 0 4.344-.963 1.479-1.686 3.314-2.094 5.281 0 0-2.864.634-3.188 1.813-.517 1.885 2.907 5.093 2.907 5.093l.218-.125c.128.631.287 1.253.5 1.844.304.84 1.494 3.004 2.031 3.375.172.625.565 1.174 1.094 1.594-.285.105-.57.208-.843.25-1.37.211-5.288-.052-9.782-.688-6.276-.887-12.92-3.636-28.594-11.812-14.074-7.341-26.372-12.567-39.688-16.875-28.987-9.377-30.412-9.74-42.625-10.406-6.224-.34-14.597-1.562-18.625-2.718-4.027-1.157-18.712-3.879-32.625-6.063-17.679-2.775-26.126-3.675-36.156-3.594-1.433.012-2.909.045-4.437.094-29.545.945-58.851 4.677-95.531 12.125-18.405 3.737-20.587 4.381-19.625 5.938.832 1.346 5.881.68 26.594-3.563 28.72-5.884 70.15-9.451 83.219-7.156 7.543 1.324 12.615 2.069 51.25 7.344 20.624 2.815 40.457 7.495 69.906 16.53 4.76 1.461 11.972 3.667 16 4.907 4.027 1.24 15.686 6.6 25.938 11.906 10.252 5.305 22.602 10.932 27.438 12.5 7.12 2.308 11.587 4.468 12.78 6.094.075.213.326.44.345.625.02.197.065.529-.157.75-.046.046-.11.079-.156.125-.573.573-4.18 1.428-8 1.906-31.31 3.918-72.844 13.807-72.844 17.344 0 .336-.9.685-1.375.906-.475.22-.957.313-1.25.313-3.605 0-36.409 16.972-58.969 30.53-5.002 3.007-6.442 5.407-3.281 5.407.927 0 7.948-3.621 15.625-8.063 25.712-14.875 44.882-23.26 50.156-21.938 1.702.427 10.44-1.062 19.406-3.312 26.843-6.74 40.743-8.168 69.156-7.125 10.647.39 16.868.532 20.844.375.127-.006.253.008.375 0 .278-.013.463-.047.719-.063 3.381-.21 4.942-.695 6.312-1.594 5.43-3.557 7.172-.436 7.063-1.187.025.023.091.079.156.187.328 1.067.969 3.357.969 4.532 0 3.666.98 5.693 4.218 8.718.856.8 3.059 2.689 3.063 4.688-.032.002-.062-.001-.094 0 1.197 2.574 1.078 5.004 2 15.719 1.26 14.624 2.474 18.092 2.75 21.062.277 2.97-.86 4.123-.125 13.781 1.968 25.863 5.253 43.466 7.688 41.031 1.007-1.008.968-7.262-.157-21.531-.872-11.071-1.223-25.036-.78-31.031.095-1.298.149-2.811.187-4.406.341-.827.33-2.462.062-4.875-.04-4.581-.3-9.372-.687-12.938-.516-4.749-.92-9.95-.031-12.344.43.364.87.719 1.28 1.094 1.338.759 4.105 3.38 7.063 6.78 3.819 4.391 10.595 11.426 15.031 15.657 4.437 4.231 11.314 12.515 15.281 18.375 7.046 10.408 8.81 12.854 21.22 29.28 3.318 4.394 10.224 13.99 15.343 21.313 5.119 7.323 12.113 16.535 15.562 20.5 7.455 8.569 21.721 28.68 30.562 43.094 11.522 18.783 20.907 32.628 27.656 40.812 3.662 4.44 7.097 8.089 7.656 8.094 1.518.014-2.388-8.646-6.78-15.031-8.898-12.934-18.756-28.707-22.032-35.22-1.929-3.834-7.761-13.72-12.969-21.968-5.207-8.249-11.855-19.588-14.75-25.22-5.076-9.874-12.184-20.462-27.719-41.218-8.712-11.64-10.068-13.577-18.406-25.938-6.986-10.357-15.86-21.363-22.312-27.72-6.77-6.667-16.45-20.936-16.5-24.311-.003-.01.003-.023 0-.032-.226-.62-.375-1.237-.375-1.812 0-1.738 2.224-3.664 3.344-4.344.616-.03.772.044.844.031 8.003 12.451 19.729 20.924 44.156 25.781 41.48 8.249 55.13-19.985 54.688-45.844-.223-13.023-13.188-34.9-31.062-47.719-.991-2.303.27-5.176 1.531-6.437 1.097-1.097 6.957-3.845 13-6.125s12.306-4.824 13.906-5.625c3.694-1.849 21.153-.422 35.688 2.906 5.858 1.341 14.553 2.848 19.312 3.344 4.76.495 15.526 2.781 23.938 5.094l15.312 4.218 6.969 9.97c5.764 8.24 13.01 21.886 26.062 49.03 2.248 4.675 9.869 13.012 10.938 11.97.516-.505-2.372-8.033-6.406-16.72-4.035-8.687-8.953-19.653-10.938-24.375-7.619-18.12-15.312-31.33-23.031-39.594-4.798-5.136-11.585-7.118-39.594-11.5-12.41-1.941-26.894-4.689-32.188-6.125-5.61-1.522-11.843-2.314-18-2.375-.88-.009-1.75.01-2.625.031-8.998.212-17.64 1.96-23.781 5.094-2.204 1.124-4.636 2.069-6.125 2.438l-.5.406s-3.525.27-6.625 2.906c-1.833 1.558-4.183 2.987-6.313 4.156a99.39 99.39 0 0 1-2.625 1.625c-4.397 2.615-9.61 5.557-16.062 5.47h-.062c-7.464 0-15.375.491-22.781 1.968-2.977-2.508 8.195-15.635 12.25-18.47 2.386-1.668 9.4-4.3 15.562-5.812 5.346-1.312 8.167-1.945 9.968-2 1.802-.054 2.581.48 3.813 1.594 2.653 2.4 6.678 8.392 6.906 10.344.578-.051 1.128-1.357 4.813-1.812l.468-.563c-1.909-2.35-6.156-9.344-7.218-12.594-.414-1.265-.99-3.82-2.188-5.531-1.249-1.783-2.049-2.543-4.187-2.656a13.18 13.18 0 0 0-1.063 0c-1.16.034-2.64.181-4.625.406-9.88 1.118-24.144 5.093-28.438 7.906-1.84 1.206-9.977 12.063-18.094 24.125-2.58 3.833-8.079 11.608-10.438 15-2.532 2.24-4.643 4.877-6.219 7.969-.289-.125-.526-.217-.719-.312l-.062-.032c-.19-.09-.382-.191-.563-.25-3.804-1.938-8.659-3.263-13.78-3.843-1.999-3.62-.679-12.594 1.78-23.156.939-4.028 2.406-11.82 3.25-17.312.846-5.493 2.134-13.303 2.844-17.375 2.529-14.497 2.063-16.326-6.375-25.531-4.21-4.594-11.263-11.733-15.656-15.844-15.752-14.74-20.047-18.638-24.656-18.47-1.536.057-3.116.575-5.156 1.282-6.37 2.206-29.93 15.432-32.062 18-.953 1.149-2.207 2.87-3.312 3.969-1.085-1.13-2.285-2.135-3.406-3-1.69-.827-3.715-2.231-6.25-4.25-7.682-6.116-12.058-8-18.375-8-3.842 0-33.662-9.048-65.875-19.97-7.148-2.422-10.93-3.82-16.562-3.656zm146.47 24.125c.125-.011.228.004.344 0 1.217.573 2.94 1.624 5 3.063 1.72 1.856 6.221 5.884 11.53 10.219 6.774 5.529 14.81 12.973 17.845 16.53l5.5 6.47-1.188 11.811c-.658 6.5-1.846 13.954-2.625 16.562-3.996 13.383-5.483 21.808-5.812 32.688-.143 4.703-.32 10.084-1.531 12.406-5.18.491-12.5-4.87-12.5-6.28 0-.688-1.549-3.074-3.407-5.282s-8.373-13.943-14.5-26.094-13.482-25.21-16.344-29.031c-5.935-7.927-10.953-15.44-13.406-19.938-.564-.873-1.03-1.784-1.312-2.719-.024-.06-.042-.098-.063-.156-.014-.053-.046-.104-.062-.156-.044-.132-.097-.264-.125-.375-.063-.178-.144-.356-.219-.532 0-4.076 25.336-18.495 32.875-19.188zm-34.031 17.125c.21.273.386.554.531.875-.17-.291-.335-.591-.531-.875zm66.5 150.28c.09.164.191.362.313.594.029.148.087.332.093.437.004.012-.212-.53-.406-1.031z" fill-opacity=".745" fill="#f9f9f9" transform="translate(-53.022 -314.93)"/><path d="M235.71 316.86c-7.243.212-17.56 3.002-42.031 9.438-29.822 7.842-65.422 20.844-57.094 20.844 1.111 0 10.682-2.753 21.25-6.094 21.065-6.66 54.388-15.437 64.406-17 3.067-.11 6.118 0 9.25.281 1.57.343 3.227.81 5.094 1.469 4.192 1.478 8.507 2.687 9.562 2.687 3.296 0 80.664 26.327 84.22 28.656 1.854 1.216 4.35 4.054 5.562 6.313s5.412 8.875 9.312 14.719c3.9 5.843 10.753 17.568 15.22 26.062 4.465 8.494 9.718 17.562 11.687 20.125 1.97 2.563 4.64 6.75 5.938 9.312s4.38 6.908 6.844 9.656c2.463 2.749 4.468 5.549 4.468 6.22 0 .67.372 2.164.813 3.312.072.188.088.39.094.594.232-.51.48-.82 1.125-1.188 1.504-.58 2.65-.62 3.53-.563 0 0 4.065.345 4.907 3.657 2.072-1.816 4.77-3.876 7.625-5.031-3.567-1.106-8.75-4.336-8.75-5.875 0-.687-1.548-3.074-3.406-5.282s-8.374-13.943-14.5-26.094-13.482-25.209-16.344-29.03c-5.935-7.927-10.953-15.44-13.406-19.939-.564-.872-1.031-1.783-1.313-2.718-.023-.061-.041-.1-.062-.157-.015-.053-.047-.103-.063-.156-.044-.132-.097-.264-.125-.375-.063-.178-.143-.356-.218-.531 0-4.076 25.336-18.495 32.875-19.188.125-.012.228.004.343 0 1.218.573 2.94 1.624 5 3.062 1.72 1.857 6.222 5.885 11.531 10.22 6.774 5.528 14.81 12.972 17.844 16.53l5.5 6.47-1.187 11.811c-.659 6.499-1.846 13.954-2.625 16.562-3.996 13.383-5.483 21.808-5.813 32.688-.166 5.502-.343 8.53-.781 10.22.408-.008 5.119-.688 5.531-.688 4.184 0 4.862.34 7.688 1.53-.01-.017-.022-.044-.031-.062-1.389-2.594-.654-10.379 2.125-22.312.937-4.027 2.405-11.82 3.25-17.312.845-5.492 2.133-13.303 2.843-17.375 2.529-14.497 2.063-16.326-6.375-25.53-4.21-4.594-11.263-11.734-15.656-15.845-15.752-14.739-20.047-18.638-24.656-18.469-1.536.057-3.116.575-5.156 1.281-6.37 2.207-29.93 15.432-32.062 18-1.032 1.244-2.022 2.903-3.187 3.97.994.839 1.793 1.966 2.375 3.25-1.42-2.43-3.79-4.618-5.907-6.25-1.69-.828-3.714-2.232-6.25-4.25-7.681-6.117-12.058-8-18.375-8-3.841 0-33.662-9.049-65.875-19.97-7.147-2.423-10.929-3.82-16.562-3.656zm272.75 82.344c-1.16.035-2.64.182-4.625.406-9.88 1.118-24.144 5.094-28.438 7.906-1.84 1.206-9.977 12.063-18.094 24.125a911.593 911.593 0 0 1-7.344 10.75c4.89-3.806 11.436-6.43 18.781-7.25a.216.216 0 0 1-.062-.062c-.962-1.557 8.263-13.598 12.906-16.844 2.387-1.669 9.4-4.3 15.562-5.813 5.346-1.312 8.167-1.945 9.969-2 1.8-.054 2.58.48 3.812 1.594 2.653 2.4 6.678 8.392 6.906 10.344.578-.051 1.128-1.356 4.813-1.812l.468-.563c-1.909-2.35-6.156-9.344-7.218-12.594-.414-1.265-.99-3.82-2.188-5.531-1.249-1.783-2.049-2.543-4.187-2.656a13.18 13.18 0 0 0-1.063 0zm48.375 13.406c-.88-.009-1.75.01-2.625.031-8.998.212-17.64 1.96-23.781 5.094-2.203 1.124-4.636 2.068-6.125 2.438l-.5.406s-3.525.27-6.625 2.906c-1.833 1.558-4.183 2.987-6.312 4.156a99.39 99.39 0 0 1-2.625 1.625c-4.398 2.615-6.763 3.94-9.875 4.719 7.597 1.123 14.923 4.443 21.625 9.031-.14-1.565.479-3.104 1.875-4.5 1.096-1.097 6.957-3.844 13-6.125 6.042-2.28 12.306-4.824 13.906-5.625 3.693-1.848 21.153-.421 35.688 2.906 5.858 1.342 14.553 2.849 19.312 3.344 4.76.495 15.526 2.782 23.938 5.094l15.312 4.219 6.968 9.969c5.764 8.24 13.01 21.887 26.062 49.03 2.248 4.676 9.87 13.013 10.938 11.97.517-.505-2.371-8.032-6.406-16.72-4.034-8.686-8.952-19.652-10.938-24.374-7.619-18.121-15.312-31.33-23.03-39.594-4.798-5.136-11.586-7.119-39.595-11.5-12.409-1.942-26.894-4.69-32.188-6.125-5.61-1.522-11.843-2.315-18-2.375zm-380 13.594c-1.433.012-2.909.045-4.437.094-29.545.945-58.851 4.676-95.531 12.125-18.405 3.737-20.587 4.381-19.625 5.937.832 1.347 5.881.681 26.594-3.562 28.72-5.885 70.15-9.451 83.219-7.156 7.542 1.324 12.615 2.068 51.25 7.343 20.624 2.816 40.457 7.496 69.906 16.531 4.76 1.46 11.972 3.666 16 4.906 4.027 1.24 15.686 6.601 25.938 11.906 10.252 5.306 22.602 10.933 27.438 12.5 7.165 2.324 11.653 4.497 12.812 6.126 2.028-.944 5.69-.752 7.937-1.22 1.948-.404 5.246-.336 7.281-1.218l2.906-6.094c-.025-2.276.8-4.765-.156-6.781-.385-.814-2.068.507-3.437.719-1.37.211-5.288-.053-9.782-.688-6.276-.887-12.92-3.636-28.594-11.812-14.074-7.341-26.372-12.567-39.688-16.875-28.987-9.377-30.412-9.74-42.625-10.406-6.224-.34-14.597-1.562-18.625-2.719-4.027-1.156-18.712-3.878-32.625-6.062-17.679-2.775-26.126-3.675-36.156-3.594zm315.28 8.531c-30.756 0-68.988 8.573-49.125 58.281 2.937 7.35 5.789 13.856 9.406 19.531 0 0-1.414-1.249-2.187-1-.196.063-.413-.13-.594-.344s-.313-.468-.313-.468c-3.107-5.238-5.682-11.136-8.312-17.72-6.456-16.155-5.997-27.632-2.281-36.25 0 .006.009-.03.062-.124.081-.147.21-.38.375-.625.429-.563 1.188-1.032 1.188-1.032l.25-.343s-.32-.177-.656-.344c-.02-.01-.043-.02-.063-.031-.19-.091-.382-.192-.563-.25-5.302-2.701-12.648-4.27-19.906-4.188a49.639 49.639 0 0 0-2.406.031c-20.122.744-25.085 23.164-25.219 31.22-.067 4.047 1.22 19.245 21.22 21.593 15.43 1.812 28.962 11.234 37.187 10.188.114-.006 1.02.017 1.22 0a10.127 10.127 0 0 0 1.155-.125c8.004 12.451 19.73 20.924 44.156 25.781 41.48 8.249 55.13-19.985 54.688-45.844-.33-19.264-28.526-57.938-59.28-57.938zm-97.906 17.47c-.822.069-1.752-.091-3.125.718-.906.534-.471 1.382-1.406 2.062l-.313-.093s-3.869-1.193-5.062 0c-1.024 1.024 0 4.344 0 4.344-.962 1.478-1.686 3.314-2.094 5.28 0 0-2.864.634-3.188 1.813-.516 1.885 2.907 5.094 2.907 5.094l.218-.125c.128.631.287 1.253.5 1.844.334.921 1.757 3.445 2.188 3.437 0 0 .662-.678 1.531-.625.87.053 3.205 1.305 3.75.625 2.696-3.364 2.919-8.286 5.188-13.969 2.268-5.683 4.727-4.307 4-6.937-.953-3.442-5.094-3.469-5.094-3.469zm-3.906 31.187l-3.781 8.031c-2.036.883-5.365.814-7.313 1.22-2.63.546-7.191.16-8.812 1.78-.574.574-4.181 1.429-8 1.907-31.311 3.918-72.844 13.807-72.844 17.344 0 .335-.9.685-1.375.906-.476.22-.958.312-1.25.312-3.605 0-36.41 16.972-58.97 30.531-5.001 3.007-6.441 5.407-3.28 5.407.926 0 7.947-3.621 15.624-8.063 25.712-14.875 44.882-23.261 50.156-21.938 1.703.427 10.441-1.062 19.406-3.312 26.843-6.74 40.743-8.168 69.156-7.125 10.647.39 16.868.531 20.844.375.128-.006.254.008.375 0 .278-.013.464-.047.72-.063 3.38-.21 4.941-.696 6.312-1.594 5.43-3.558 7.171-.436 7.062-1.187-.08-.549-.115-1.477-.156-1.781.117-.402.365-1.336.687-1.813.255-.377-.864-.125-1.25-.125-11.869 0-21.674-9.04-23.312-20.812zm26.125 20.97c-.106.207-.202.414-.344.593-1.055 1.33-1.12 2.97-1.031 4.469.007.02.025.042.031.062.259.772.375 1.828.375 3.156 0 3.667.98 5.694 4.219 8.72.869.811 1.56 1.458 2.125 2.155a33.548 33.548 0 0 1 4.094 1.782c3.267 1.69 6.293 3.904 8.937 6.312 1.338.76 4.104 3.38 7.063 6.781 3.818 4.39 10.595 11.425 15.03 15.656 4.437 4.232 11.315 12.515 15.282 18.375 7.045 10.408 8.81 12.854 21.219 29.281 3.319 4.394 10.225 13.99 15.344 21.312 5.118 7.323 12.113 16.535 15.562 20.5 7.455 8.57 21.72 28.681 30.562 43.094 11.522 18.783 20.907 32.628 27.656 40.812 3.661 4.44 7.097 8.09 7.656 8.094 1.517.014-2.389-8.646-6.781-15.03-8.898-12.935-18.755-28.708-22.031-35.22-1.93-3.834-7.762-13.72-12.97-21.969-5.206-8.248-11.854-19.588-14.75-25.219-5.076-9.874-12.183-20.463-27.718-41.219-8.712-11.64-10.068-13.577-18.406-25.938-6.987-10.357-15.86-21.363-22.312-27.719-6.77-6.668-16.451-20.937-16.5-24.312-.003-.009.003-.022 0-.031-.226-.62-.375-1.237-.375-1.813 0-1.29.618-2.25 1.656-2.812-7.832.158-19.864-7.543-33.594-9.875zm6.219 21.687c1.197 2.574 1.077 5.005 2 15.72 1.259 14.623 2.473 18.091 2.75 21.061.276 2.97-.86 4.123-.125 13.781 1.967 25.863 5.253 43.466 7.687 41.031 1.008-1.008.969-7.262-.156-21.53-.873-11.072-1.224-25.037-.781-31.032.095-1.298.15-2.811.187-4.406.341-.827.33-2.462.063-4.875-.042-4.581-.3-9.371-.688-12.938-.54-4.973-.583-9.108-.375-11.031-1.572-1.733-4.057-3.305-5.125-3.906-1.901-1.07-3.162-1.962-5.437-1.875z" transform="translate(-53.022 -314.93)"/><path d="M393.77 455.7c-1.22 0-2.219 1-2.219 2.219 0 1.219 1 2.187 2.219 2.187 1.22 0 2.188-.968 2.188-2.187s-.969-2.219-2.188-2.219zm0 .594c.891 0 1.594.733 1.594 1.625s-.703 1.594-1.594 1.594c-.891 0-1.625-.703-1.625-1.594 0-.892.734-1.625 1.625-1.625zm-2.5 4.875c-1.22 0-2.219 1-2.219 2.219 0 1.219 1 2.187 2.219 2.187 1.22 0 2.188-.968 2.188-2.187s-.969-2.22-2.188-2.22zm0 .594c.891 0 1.594.733 1.594 1.625s-.703 1.593-1.594 1.593c-.891 0-1.625-.702-1.625-1.594 0-.891.734-1.625 1.625-1.625z" filter="url(#b)" fill="#999" transform="translate(-53.022 -314.93)"/><path d="M493.39 449.95c-6.618 0-12 5.004-12 11.156 0 6.153 5.382 11.125 12 11.125 1.818 0 3.519-.39 5.063-1.063.633 2.175 1.502 4.51 2.593 6.97 3.477 7.84 16.547 12.317 25.344 14.811.852 7.187 11.877 17.537 15.743 23.496 2.589 3.99 6.191-12.057 6.191-19.243 0-6.033-6.37-14.403-10.903-17.19-1.076-3.462-2.795-6.978-5.281-9.937-7.055-8.4-19.907-11.644-27.312-12.312-1.526-4.52-6.071-7.813-11.438-7.813z" filter="url(#c)" fill="#c6340b" transform="translate(-53.022 -314.93)"/><path d="M488.42 455.2c-.655.045-1.493.237-2.563.594-3.039 1.013-2.02 9.563 1.75 12 2.946 1.904 10.51 2.631 13.625 2.125-1.347 3.204.778 10.092 3.875 12.094 3.771 2.437 17.444 8.874 17.312 7.344-.37-4.325-13.355-5.297-17.312-10.656-2.185-2.96-2.438-7.755-2.468-9.47v-.03c-.002-.024.002-.04 0-.063-.004-.3-.032-.719-.032-.719-.045.018-.081.042-.125.063-1.162-2.97-7.864 1.165-11.562-3.844-2.333-3.16 2.088-9.755-2.5-9.438z" filter="url(#d)" fill="#e8810b" transform="translate(-53.022 -314.93)"/><path d="M435.38 443.87a2.733 2.733 0 1 1-5.465 0 2.733 2.733 0 0 1 5.465 0z" transform="translate(3.902 -298.402)" filter="url(#e)" fill="#e8de82"/><path d="M484.74 491.71c5.437 2.404 12.409 28.169 14.546 23.336 2.137-4.833-8.546-38.434-13.983-40.838-5.437-2.404-11.577-.435-13.714 4.398s7.715 10.7 13.152 13.104z" filter="url(#f)" fill="#ccc" transform="translate(-53.022 -314.93)"/><path d="M402.99 484.84c14.34 10.913 16.507.47 20.541 7.946 2.611 4.84 20.815 8.518 18.814 9.793-2.3 1.465-44.453-10.252-45.09-18.695-.252-3.335 2.211-6.055 4.94-6.055s-1.865 4.986.796 7.01z" filter="url(#g)" fill="#ccc" transform="translate(-53.022 -314.93)"/><path d="M410.5 471.63c0 1.348-3.739 4.154-6.334-.26-1.527-2.595-5.867-.054-5.867-1.401s3.687-1.87 6.698-1.87c3.01 0 5.503 2.183 5.503 3.531z" filter="url(#h)" fill="#fff" transform="translate(-53.022 -314.93)"/><path d="M238.77 321.52c-.18-.008-.334.01-.438.031-.106.023-.168.07-.187.125-.935 2.717 64.583 19.25 69.75 23.75 4.92 4.286 5.344-1.156 5.344-1.156s-13.817-4.585-20.47-6.531c-6.75-1.976-48.394-15.975-54-16.22zm82.594 23.844c-5.117.16-3.062 2.313-3.062 2.313s-.24 1.712 6.656 2.406c5.348.538 13.605 11.36 13.344 7.875-.215-2.865-11.016-12.496-15.812-12.594a22.52 22.52 0 0 0-1.125 0zm155.78 66.812c-2.57.276-6.85 6.159-9.656 9.281-4.362 4.854-3.188 7.063-3.188 7.063s3.783-4.044 8.813-8.813c3.9-3.698 7.84-5.203 5.031-7.281-.289-.214-.633-.29-1-.25zm76.625 4.531a5.893 5.893 0 0 0-1.813.375c-2.692 1.051-2.687 3.781-2.687 3.781s2.09.26 5.031-.625c2.28-.685 3.791-.899 3.094-2.28-.358-.711-1.619-1.196-3-1.25a6.857 6.857 0 0 0-.625 0zm-10.062 1.938c-3.579.185-9.93 3.38-14 4.969-7.38 2.88-7.313 5.906-7.313 5.906s6.285-2.326 14.344-4.75c6.25-1.88 11.35-1.368 9.438-5.156-.393-.78-1.276-1.031-2.469-.97zm-26.594 10.03c-.163 0-.328.014-.5.032a5.647 5.647 0 0 0-1.438.375c-2.692 1.051-.843 3.094-.843 3.094s.278.947 3.219.062c2.28-.686 2.697-.961 2-2.344-.377-.745-1.294-1.212-2.438-1.218zm-344.88.376c-1.36.04-3.025.306-4.375.5-3.672.525-2.281 1.312-2.281 1.312s1.16.683 5.094.438c3.05-.19 4.654.618 4.187-1.313-.192-.794-1.265-.977-2.625-.937zm13.438.593c-5.803.146-9.219 2.188-9.219 2.188s15.691.465 22.562 1.375c7.43.984 59.01 11.912 59.344 10.062.51-2.828-66.672-13.527-71.469-13.625-.408-.008-.832-.01-1.219 0zm205.81 13.562c-.994.142-1.438 1.344-1.438 1.344s-.71.712 1.438 2.906c1.666 1.702 2.1 1.947 3 .688.74-1.035.29-2.855-1.313-4.25-.681-.593-1.235-.752-1.687-.688zm-122.81 1.032c-6.524-.133-4.344 1.562-4.344 1.562s1.823 1.556 8.719 2.25c5.348.538 7.855 2.423 7.594-1.062-.215-2.865-7.172-2.653-11.97-2.75zm150.94 1.5c-.748-.031-1.438.218-1.438.218s-1.123.01-.968 2.282c.12 1.762.299 2.124 2.03 1.875 1.425-.205 2.427-1.407 2.126-2.97-.205-1.061-1.002-1.374-1.75-1.405zm-46.344 38.438c-3.278-.097-2.156 1.187-2.156 1.187s-1.028 1.775 2.437 2.281c2.687.393 2.212.94 2.688-1.562.276-1.45-.559-1.835-2.969-1.906zm11.977 10.51c-4.492-.132-2.969 1.563-2.969 1.563s1.251 1.556 6 2.25c3.683.538 5.43 2.423 5.25-1.062-.148-2.865-4.978-2.653-8.281-2.75zm-25.321 2.521a.63.63 0 0 0-.188.031c-.286.08-.5.344-.5.344s.95.89 1.063 5.688c.088 3.72-4.333 4.013-.844 4.03 2.012.011 2.303-3.79 1.844-7.062-.341-2.434-.917-3.014-1.375-3.03zm-18.438 5.906c-11.276.23-46.741 10.094-49.594 11.438-4.598 2.167-5.719 3.532-5.719 3.532s11.597-3.159 16.562-4.688c5.37-1.653 42.336-7.365 42.156-9.281-.069-.734-1.318-1.043-3.406-1zm84.188 23.656c-.014.025-.003.105.062.25 1.458 3.223 1.708 5.571.75 12.188-.179 1.239 4.12.487 3.438-.562-2.91-4.483-.622-5.4-1.906-8.531-.424-1.034-2.25-3.519-2.344-3.344zm4 16.312c-.385.035-.698.135-.656.344 1.503 7.458-2.454 9.119.843 11.562.457.339 1.223 5.007 1.407 4.469 1.164-3.404-.881-8.129-.125-15.906.034-.354-.827-.526-1.47-.469zm38.031 12.594c-.818 0-1.5.796-1.5 1.75s.682 1.72 1.5 1.72 1.469-.766 1.469-1.72-.651-1.75-1.469-1.75zm-34.312 7.532a.973.973 0 0 0-.406.093c-.696.353-2.148 2.363-4.063.438-.173-.174-.623-.361-.75-.313-.548.21-.515 1.937.531 2.125 1.905.342 2.867.295 4.407-.437 1.033-.492 1.07-1.945.28-1.906zm45 4.406c-1.406-.015-3.021 1.532-3.281 2.906-.509 2.688 6.984 7.425 12.594 14.656 10.066 12.975 35 45.469 35 45.469s-17.021-29.672-27.656-40.625c-6.376-6.566-12.211-20.814-16.062-22.281a1.755 1.755 0 0 0-.594-.125zm48.312 65.78c-.666.012-1.283.07-1.75.25-2.264.881-2.969 4.72-2.969 4.72s3.026-1.665 4.688-2c1.45-.294 4.437 0 4.437 0v-2.47s-2.409-.532-4.406-.5zm1.562 4.97c-.749 0-1.343.821-1.343 1.843s.594 1.844 1.343 1.844c.75 0 1.375-.822 1.375-1.844s-.625-1.843-1.375-1.843z" filter="url(#i)" fill="#fff" transform="translate(-53.022 -314.93)"/><path d="M374.58 484.48c-.804 0-1.469.633-1.469 1.438s.665 1.468 1.469 1.468 1.438-.664 1.438-1.469c0-.804-.634-1.437-1.438-1.437zm12.215 10.477c-.574 0-1.031.457-1.031 1.031 0 .575.457 1.063 1.031 1.063.574 0 1.062-.488 1.062-1.063s-.488-1.031-1.062-1.031zm4.625 2.384c-.977 0-1.782.95-1.782 2.156 0 1.206.805 2.187 1.782 2.187.976 0 1.78-.98 1.78-2.187s-.804-2.156-1.78-2.156zm10.192 6.264c-1.609 0-2.907.982-2.907 2.188s1.298 2.188 2.907 2.188 2.906-.982 2.906-2.188-1.298-2.188-2.906-2.188z" filter="url(#j)" fill="#f9f9f9" transform="translate(-53.022 -314.93)"/><path d="M394.24 456.7c-.524 0-.938.413-.938.938s.414.968.938.968.969-.444.969-.969-.445-.937-.969-.937zm-2.313 5.344c-.524 0-.937.413-.937.937s.413.969.938.969.937-.445.937-.969-.413-.937-.938-.937z" filter="url(#k)" fill="#f2f2f2" transform="translate(-53.022 -314.93)"/><path d="M381.3 464.05a.445.445 0 1 1-.89 0 .445.445 0 0 1 .89 0z" transform="translate(-41.762 -316.133)" fill="#fff"/><path d="M381.3 464.05a.445.445 0 1 1-.89 0 .445.445 0 0 1 .89 0z" transform="translate(-39.322 -321.477)" fill="#fff"/></g></pattern><filter id="b" color-interpolation-filters="sRGB"><feGaussianBlur stdDeviation=".21"/></filter><filter id="c" color-interpolation-filters="sRGB"><feGaussianBlur stdDeviation="1.364"/></filter><filter id="d" height="1.304" width="1.273" color-interpolation-filters="sRGB" y="-.152" x="-.137"><feGaussianBlur stdDeviation="2.182"/></filter><filter id="e" height="1.6" width="1.6" color-interpolation-filters="sRGB" y="-.3" x="-.3"><feGaussianBlur stdDeviation=".683"/></filter><filter id="f" height="1.5" width="1.751" color-interpolation-filters="sRGB" y="-.25" x="-.375"><feGaussianBlur stdDeviation="4.421"/></filter><filter id="g" height="1.481" width="1.288" color-interpolation-filters="sRGB" y="-.241" x="-.144"><feGaussianBlur stdDeviation="2.221"/></filter><filter id="h" height="1.947" width="1.439" color-interpolation-filters="sRGB" y="-.474" x="-.22"><feGaussianBlur stdDeviation="1.116"/></filter><filter id="i" color-interpolation-filters="sRGB"><feGaussianBlur stdDeviation="1.782"/></filter><filter id="j" color-interpolation-filters="sRGB"><feGaussianBlur stdDeviation=".686"/></filter><filter id="k" color-interpolation-filters="sRGB"><feGaussianBlur stdDeviation=".143"/></filter><pattern id="l" patternTransform="rotate(29.147 -1259.714 828.778)" xlink:href="#a"/></defs><path class="clothes" fill="none" d="M202.715 584.431h86.593V700.24h-86.593z"/><path class="clothes" fill="none" d="M-403.988 499.579h1300v550h-1300z"/><path class="clothes" fill="url(#l)" d="M239.073 683.29l12.372-10.31 19.244-6.873 5.498 8.248 5.499 11.684-6.873 34.365 2.749 35.053 7.56 8.248v-1.375l-15.808 4.124-7.56-35.053.687-13.059v.688l-4.811 14.433 2.749 6.186 14.434 28.179 7.56 13.059 7.561 6.873-83.852 10.31 10.997-15.809v-16.495l16.496-28.179 2.061-10.997-3.436-13.059-4.811-6.185 4.124 16.495.687 6.873-7.56 35.74-4.812-1.375-11.684 2.749h.688l9.622-19.244v-.687l.687-17.87-9.622-40.551 12.371 1.374z"/><path class="clothes" fill="none" d="M172.416 491.437h86.594v115.81h-86.594z"/><path class="clothes" fill="none" d="M-434.287 406.586h1300v550h-1300z"/><path d="M291.263 484.607C182.382-70.394-.862 53.511 149.347-191.315c43.893-71.559 269.488-169.822 324.419-114.891 14.344 14.344 32.594 143.519 27.045 108.16-18.351-116.814-12.842-27.747 20.273-60.841 42.01-42.009 287.378-130.457 337.962-40.547 191.257 339.964-165.115 265.46-27.045 540.697 11.218 22.377-135.184 514.053-135.184 425.827" stroke="#464646" fill="url(#m)" transform="matrix(.04992 0 0 .04992 220.95 702.409)"/><path d="M277.61 789.286c2.322 2.321 1.513 11.971.619 17.331-2.237 13.425.619 28.609.619 42.09" stroke="#000" fill="#d8d8d8" stroke-width=".6" stroke-opacity=".75"/><g><g clip-rule="evenodd" fill-rule="evenodd"><path d="M276.73 851.827c-.072-.505-.564-.667-.835-.977-.543-.62-1.115-1.528-.967-2.731.058-.466.324-1.135.586-1.543.256-.4.435-.51.813-.833.167-.144.311-.371.434-.444.317-.188.79-.231 1.093-.397.097-.087.032-.33.16-.386.25.117.156.167.384-.005a.78.78 0 0 1 .17.382c.955.263 1.896.932 2.436 1.78.399.626.805 1.822.419 2.793-.345.866-1.111 1.647-1.619 2.379.92-.712 1.632-2.095 2.822-2.722.145-.293.27-.604.54-.775.282-.809.33-1.845.849-2.424.045-.607.276-1.206.417-1.815.143-.62.22-1.27.417-1.816.082-.226.274-.482.376-.717.102-.237.076-.62.432-.61.156.403.053.88-.04 1.263-.112.463-.391.892-.532 1.378-.072.248-.084.514-.155.77-.064.226-.214.443-.267.661-.099.41-.007.887-.094 1.318-.06.304-.274.642-.427.992-.067.154-.141.323-.214.497-.133.321-.24.549-.261 1.045-.116.285-.446.36-.708.503-.075.071-.051.238-.05.384-.987 1.116-2.41 1.806-3.146 3.165.52.37.995-.211 1.422-.456.482-.277 1.033-.406 1.418-.73.72-.067 1.164-.792 1.687-1.282.488-.458 1.01-.794 1.413-1.17.687-.64 1.308-1.2 1.953-1.888.176-.188.416-.58.764-.394.046.412-.414.627-.648.886-.726.806-1.642 1.611-2.497 2.334-.042.158-.108.293-.16.441-.75.496-1.488 1.005-2.12 1.617-.178-.01-.232.1-.44.06-.177.097-.16.384-.323.497-.958.312-1.91.63-2.731 1.076.14.114.45.057.605.157.89.625 1.584 1.451 2.387 2.165-.01.177.1.231.06.438.105.097.21.194.333.27.55 1.243 1.409 2.342 1.91 3.653.365.952.862 1.821 1.298 2.837.125.293.379.679.232 1.04-.44.056-.553-.493-.668-.76a25.329 25.329 0 0 0-1.407-2.836c-.703-1.206-1.276-2.468-2.02-3.596-.034-.131-.082-.25-.06-.438-.152-.086-.256-.22-.442-.27a20.855 20.855 0 0 0-.947-1.085c-.297-.323-.615-.76-1.108-.864.29.536.675 1.152.956 1.853.137.345.23.722.397 1.093.146.324.393.668.451.982.048.259-.022.555.01.822.073.615.396 1.163.57 1.749.378 1.267.511 2.62.817 3.94.299 1.295.869 2.524.869 3.774-.54.108-.505-.377-.56-.87-.098-.888-.558-2.08-.805-3.008-.093-.351-.132-.723-.232-1.04-.08-.252-.298-.44-.393-.708-.304-.853-.295-1.97-.584-2.9-.05-.161-.174-.275-.225-.436-.118-.378-.12-.798-.233-1.15-.193-.597-.5-1.167-.68-1.747-.167-.535-.143-1.372-.788-1.581-.004.43.187 1.412-.032 1.92-.116.103-.401.042-.603.063-.05-.23.244-.124.327-.224l-.01-.877c-.113-.124-.18.255-.382.224.038-.205.12-.497-.117-.548-.264-.032-.278.411-.104.495-.23.177-.333-.249-.498-.323-.05.552.085.914.235 1.26-.92.09-.586-1.443-.518-2.024-.67.187-.511 1.177-.691 1.873-.104.4-.438 1.029-.587 1.434-.155.424-.146.918-.257 1.429-.166.767-.422 1.585-.575 2.42-.079.435-.137.876-.259 1.266-.125.398-.306.736-.37 1.101-.046.259-.009.512-.046.769-.13.885-.478 1.687-.629 2.476-.064.332.166.817-.484.829-.188-.404.004-.869.094-1.263.284-1.244.439-2.52.613-3.793.166-1.211.547-2.474.89-3.576.078-.25.247-.44.265-.771.009-.15-.083-.352-.06-.493.032-.203.215-.369.267-.552.104-.363.1-.775.206-1.155.277-.986.659-1.984 1.174-2.812-.824.552-1.41 1.335-2.062 2.055-.114.033-.155.138-.328.114.021.219-.094.305-.048.549-.706.774-1.11 1.844-1.502 2.925-.474.642-.911 1.37-1.29 2.156a27.92 27.92 0 0 0-.536 1.158c-.15.352-.188.924-.646 1.05-.302-.3-.02-.66.099-.934.135-.31.239-.644.372-.937.373-.817.903-1.41 1.014-2.48.31-.468.624-.948.915-1.493.385-.721.558-1.586 1.183-2.044-.042-.203.09-.236.05-.44.892-.81 1.61-1.789 2.715-2.391-.735-.488-1.746-.692-2.647-1.01-.105-.152-.248-.265-.28-.49-.212.013-.405.006-.55-.049-.595-.63-1.305-1.144-2.05-1.62.037-.169-.06-.2-.06-.33-.97-.986-2.18-1.727-2.999-2.87-.16-.091-.366-.291-.17-.437.325-.15.562.227.665.486 1.534 1.353 3.075 2.7 4.551 4.114.438.196.872.28 1.323.477.65.283 1.194 1.028 1.931.8-.817-1.236-2.103-1.993-3.165-2.979-.01-.155-.103-.227-.114-.383-.156-.21-.45-.28-.61-.486-.107-.775-.249-1.247-.572-1.913-.104-.215-.292-.376-.336-.545-.101-.387.007-.825-.07-1.206-.084-.418-.336-.832-.454-1.256-.049-.176-.011-.385-.061-.548-.089-.285-.236-.543-.34-.818-.11-.294-.159-.561-.23-.875-.047-.207-.313-.592-.01-.823.37.049.39.49.503.762.11.264.308.55.395.818.339 1.046.37 2.35.81 3.391.147.351.333.571.451 1.037.101.398.13.828.289 1.203.14.33.471.513.505.872 1.293.58 1.852 1.915 2.996 2.65z"/><path d="M278.389 848.24c.091-.45.685-.647.59-1.103-.385-.117-1.099-.061-1.592.019.034.607.652.597.672 1.089.021.491-.578.535-.59 1.16.411.035 1.356.18 1.59-.13.056-.41-.626-.542-.67-1.034z"/><path fill="#EE3224" d="M279.06 849.275c-.235.31-1.18.165-1.59.13.011-.625.61-.669.59-1.16-.021-.492-.64-.481-.673-1.089.493-.08 1.207-.136 1.592-.02.095.457-.499.655-.59 1.105.044.492.726.625.671 1.034z"/></g></g></svg>