<svg class="bottomOverlay" width="86" height="380" viewBox="202.715 584.407 86.593 380.048" preserveAspectRatio="xMidYMax" xmlns="http://www.w3.org/2000/svg"><path d="M232.043 751.824c-19.145 8.961-21.181 33.402-6.11 73.321 6.186 16.385 8.834 30.031 7.943 48.27-.082 1.678.326.66 4.889 1.833 0 0-3.57-38.435-16.498-76.988-11.686-34.85 10.883-45.084 9.776-46.436z" fill="#d8d8d8" stroke="#000"/><path d="M234.293 754.27c-19.984 7.38-13.603 32.181-1.636 73.18 4.912 16.83 4.65 26.975 4.125 46.91-.044 1.682.275 2.519 4.773 4.056 0 0-.513-38.589-10.433-78.053-8.967-35.674 4.176-44.656 3.17-46.093z" fill="#d8d8d8" stroke="#000"/></svg>