<?xml version="1.0" encoding="utf-8"?>
<svg class="glasses" width="86" height="380" viewBox="202.715 584.407 86.5933 380.048" preserveAspectRatio="xMidYMax" xmlns="http://www.w3.org/2000/svg">
  <defs id="svgEditorDefs">
    <path id="svgEditorClosePathDefs" class="clothes" fill="black" style="stroke-width: 0px; stroke: none;"/>
  </defs>
  <path style="fill: rgb(216, 216, 216); stroke: rgb(0, 0, 0);" d="M 232.043 751.824 C 212.898 760.785 210.862 785.226 225.933 825.145 C 232.119 841.53 234.767 855.176 233.876 873.415 C 233.794 875.093 234.202 874.075 238.765 875.248 C 238.765 875.248 235.195 836.813 222.267 798.26 C 210.581 763.41 233.15 753.176 232.043 751.824 Z"/>
  <path style="fill: rgb(216, 216, 216); stroke: rgb(0, 0, 0);" d="M 229.348 754.528 C 210.02 763.486 218.368 787.696 233.583 827.604 C 239.828 843.985 240.38 854.119 241.454 874.033 C 241.545 875.712 241.93 876.521 246.537 877.693 C 246.537 877.693 242.933 839.269 229.882 800.727 C 218.084 765.886 230.465 755.88 229.348 754.528 Z" transform="matrix(0.996783, 0.080145, -0.080145, 0.996783, 66.1542, -16.211843)"/>
</svg>