<?xml version="1.0" encoding="utf-8"?>
<svg class="glasses" width="86" height="380" viewBox="202.715 584.407 86.5933 380.048" preserveAspectRatio="xMidYMax" xmlns="http://www.w3.org/2000/svg">
  <defs id="svgEditorDefs">
    <path id="svgEditorClosePathDefs" class="clothes" fill="black" style="stroke-width: 0px; stroke: none;"/>
  </defs>
  <g>
    <path style="stroke: rgb(0, 0, 0); fill: rgb(156, 181, 92);" d="M 218.461 754.535 C 235.475 768.634 261.483 768.199 267.154 764.955 C 270.49 763.047 272.404 771.135 268.914 771.698 C 244.413 775.651 234.278 774.548 216.115 759.438" transform="matrix(0.999299, -0.03744, 0.03744, 0.999299, -28.436944, 9.650219)"/>
    <path style="stroke: rgb(0, 0, 0); fill: rgb(156, 181, 92);" d="M 215.119 763.952 C 234.613 778.051 265.639 778.229 272.138 774.985 C 275.959 773.077 276.314 783.004 274.767 782.954 C 246.431 782.038 233.855 785.191 213.044 770.081" transform="matrix(0.999299, -0.03744, 0.03744, 0.999299, -28.786778, 9.690179)"/>
    <path style="stroke: rgb(0, 0, 0); fill: rgb(156, 181, 92);" d="M 251.221 796.881 C 256.791 791.135 261.818 789.121 267.785 788.589 C 272.247 788.19 277.527 787.342 278.915 788.33 C 280.824 789.69 277.573 783.705 275.538 783.593 C 260.564 782.769 258.149 782.095 247.757 792.858" transform="matrix(-0.9947, -0.102824, 0.102824, -0.9947, 444.619901, 1602.979553)"/>
    <path style="stroke: rgb(0, 0, 0); fill: rgb(156, 181, 92);" d="M 213.991 781.18 C 230.678 789.998 241.347 790.914 244.866 788.603 C 246.935 787.243 247.825 795.269 245.625 795.154 C 229.198 794.292 224.136 790.793 212.868 785.546" transform="matrix(0.999299, -0.03744, 0.03744, 0.999299, -29.347819, 9.159543)"/>
    <path style="stroke: rgb(0, 0, 0); fill: rgb(156, 181, 92);" d="M 257.008 807.266 C 261.5 801.521 267.51 799.164 272.323 798.631 C 275.922 798.234 280.178 797.385 281.298 798.373 C 282.837 799.734 280.216 793.748 278.574 793.636 C 266.501 792.812 264.553 792.138 256.173 802.901" transform="matrix(-0.997772, 0.066723, -0.066723, -0.997772, 590.733207, 1580.758291)"/>
    <path style="stroke: rgb(0, 0, 0); fill: rgb(156, 181, 92);" d="M 215.132 791.495 C 232.463 802.247 239.586 803.977 247.764 801.772 C 250.324 801.082 251.403 811.126 249.118 810.986 C 232.057 809.935 227.508 804.442 215.804 798.045" transform="matrix(0.999299, -0.03744, 0.03744, 0.999299, -29.835287, 9.275947)"/>
    <path style="stroke: rgb(0, 0, 0); fill: rgb(156, 181, 92);" d="M 217.581 805.817 C 234.912 816.569 242.035 818.299 250.213 816.094 C 252.773 815.404 253.852 825.448 251.567 825.308 C 234.506 824.257 229.957 818.764 218.253 812.367" transform="matrix(0.999299, -0.03744, 0.03744, 0.999299, -30.369787, 9.377679)"/>
    <path style="stroke: rgb(0, 0, 0); fill: rgb(156, 181, 92);" d="M 262.244 818.065 C 266.306 812.318 271.741 809.961 276.093 809.43 C 279.347 809.031 283.197 808.182 284.208 809.172 C 285.6 810.531 283.23 804.547 281.745 804.435 C 270.828 803.609 269.067 802.935 261.489 813.698" transform="matrix(-0.997772, 0.066722, -0.066722, -0.997772, 599.625231, 1602.058434)"/>
    <path style="stroke: rgb(0, 0, 0); fill: rgb(156, 181, 92);" d="M 267.533 830.172 C 270.708 824.425 274.957 822.068 278.359 821.536 C 280.902 821.138 283.912 820.289 284.702 821.278 C 285.79 822.638 283.938 816.653 282.777 816.541 C 274.243 815.716 272.866 815.042 266.942 825.805" transform="matrix(-0.985291, -0.170886, 0.170886, -0.985291, 407.249956, 1681.352781)"/>
    <path style="stroke: rgb(0, 0, 0); fill: rgb(156, 181, 92);" d="M 220.605 821.074 C 237.032 831.826 243.783 833.556 251.534 831.351 C 253.96 830.661 254.983 840.705 252.817 840.565 C 236.647 839.514 232.335 834.021 221.242 827.624" transform="matrix(0.999299, -0.03744, 0.03744, 0.999299, -30.939532, 9.467166)"/>
    <path style="stroke: rgb(0, 0, 0); fill: rgb(156, 181, 92);" d="M 223.631 836.356 C 238.248 847.108 245.482 850.064 252.38 847.859 C 254.539 847.169 254.223 855.987 252.296 855.847 C 237.906 854.796 235.908 851.142 226.036 844.745" transform="matrix(0.999299, -0.03744, 0.03744, 0.999299, -31.510677, 9.532114)"/>
    <path style="stroke: rgb(0, 0, 0); fill: rgb(156, 181, 92);" d="M 265.008 846.111 C 268.07 840.364 272.167 838.006 275.447 837.474 C 277.9 837.076 280.004 839.295 280.714 838.265 C 282.218 836.082 280.974 829.854 279.854 829.742 C 271.624 828.917 269.446 829.292 263.734 840.056" transform="matrix(-0.932044, -0.362344, 0.362344, -0.932044, 223.052207, 1717.407626)"/>
    <path style="stroke: rgb(0, 0, 0); fill: rgb(156, 181, 92);" d="M 258.022 861.452 C 261.734 855.705 266.702 853.347 270.679 852.815 C 273.654 852.417 276.205 854.636 277.066 853.606 C 278.889 851.423 276.698 845.438 276.023 845.083 C 267.565 840.637 263.403 844.633 256.477 855.397" transform="matrix(-0.932044, -0.362344, 0.362344, -0.932044, 207.246468, 1743.614954)"/>
    <path style="stroke: rgb(0, 0, 0); fill: rgb(156, 181, 92);" d="M 253.629 874.409 C 257.56 868.47 262.822 866.033 267.034 865.484 C 270.183 865.072 274.018 866.281 274.93 865.217 C 276.861 862.961 274.131 857.61 271.97 857.745 C 261.381 858.411 259.328 857.029 251.993 868.152" transform="matrix(-0.932044, -0.362344, 0.362344, -0.932044, 195.836749, 1768.879569)"/>
    <path style="stroke: rgb(0, 0, 0); fill: rgb(156, 181, 92);" d="M 227.788 847.935 C 240.33 859.79 246.537 862.119 252.456 859.438 C 254.269 858.617 254.037 867.566 252.384 867.426 C 240.036 866.375 238.322 862.721 229.852 856.324" transform="matrix(0.999299, -0.03744, 0.03744, 0.999299, -31.942793, 9.615213)"/>
  </g>
</svg>