<svg class="bottomOverlay" width="86" height="380" viewBox="202.715 584.407 86.593 380.048" preserveAspectRatio="xMidYMax" xmlns="http://www.w3.org/2000/svg"><g stroke="#000" fill="#fff"><path d="M232.043 751.824c-19.145 8.961-21.181 33.402-6.11 73.321 6.186 16.385 8.834 30.031 7.943 48.27-.082 1.678.326.66 4.889 1.833 0 0-3.57-38.435-16.498-76.988-11.686-34.85 10.883-45.084 9.776-46.436z"/><path d="M234.293 754.27c-19.984 7.38-13.603 32.181-1.635 73.18 4.912 16.83 4.65 26.975 4.124 46.91-.043 1.682.275 2.519 4.774 4.056 0 0-.513-38.589-10.433-78.053-8.968-35.674 4.175-44.656 3.17-46.093z"/><path d="M236.321 757.934c-7.943 5.295-6.518 33.402 4.277 84.319 2.411 11.372 2.818 23.389 1.222 36.05-.171 1.355 3.344 4.431 3.666 1.833 5.276-42.609-16.798-74.253-8.554-113.037 3.875-18.229 1.317 1.22 4.277-7.332"/><path d="M240.598 758.545c-3.87 16.905-3.259 38.697 1.833 65.378 5.662 29.667 6.884 49.626 3.666 59.879-.728 2.319.494.078 3.666-6.721 2.485-5.326.041-32.007-7.332-80.043M246.097 793.983c5.906 25.255 8.146 48.881 6.721 70.877"/><path d="M243.653 760.378c.815 16.497 2.648 25.662 11.609 39.715 5.473 8.583 11.621 26.288 7.332 36.05-6.278 14.29-6.555 31.636-8.554 51.936-.087.887 5.259 8.772 4.888 1.222-3.173-64.527 28.193-50.27-14.053-117.925-3.076-4.926-3.687-7.166 3.055-11.609"/><path d="M251.596 888.69c-.611-8.351.407-17.923 3.055-28.718 1.435-5.851 1.554 2.171.357 17.296-.26 3.291-.583 6.918-.968 10.811"/><path d="M246.708 759.767c-1.833 4.481 2.444 15.071 12.831 31.772 7.899 12.701 12.633 26.346 5.499 44.604-6.496 16.625-3.034 41.269-4.888 56.213-.308 2.482-.919 1.667 3.055 1.222 0 0 5.092-30.958 11.609-76.987"/><path d="M250.985 760.989c20.978 34.624 29.328 57.435 25.051 68.433-3.759 9.665-7.221 31.865-10.387 65.378l14.664-71.488s-5.122-44.561-25.051-61.712"/><path d="M255.262 757.628c20.978 34.624 29.328 57.435 25.051 68.433-3.759 9.665-7.221 31.865-10.387 65.378l14.664-71.488s-5.122-44.561-25.051-61.712"/><path d="M226.855 748.158c4.014 14.257 16.82 18.33 38.418 12.22 1.653-.467 5.641 5.973 2.294 4.888-14.316-4.638-27.122 11.452-45.3-14.664"/><path d="M219.918 754.513c4.698 14.257 22.132 19.552 47.412 13.442 1.935-.467 6.603 5.973 2.685 4.888-16.756-4.638-31.745 11.452-53.022-14.664"/><path d="M215.572 762.457c5.171 14.256 27.782 18.94 55.611 12.83 2.13-.467 6.658 7.195 2.345 6.11-18.445-4.638-37.39 12.064-60.812-14.053"/><path d="M213.019 773.209c5.128 11.405 13.294 15.886 29.056 13.442 1.733-.269 4.891 6.727 2.848 6.11-9.118-2.754-12.781 2.738-33.043-12.831M244.875 787.262c16.905-4.684 24.644-4.684 29.328-1.222 1.321.976 4.783-.45 3.055 1.833 0 0-18.534-6.314-29.328 4.277M248.61 793.992c15.962-4.684 23.269-4.684 27.692-1.222 1.247.976 4.516-.45 2.884 1.833 0 0-17.5-6.314-27.691 4.277M254.04 803.148c6.11-5.091 15.071-6.517 26.884-4.277 1.812.343-2.747 3.333.611 5.499 6.973 4.497-11.357-14.037-25.051 3.056M213.713 787.262c13.548 8.758 24.805 12.628 33.774 11.609 1.718-.195 4.328 6.43.573 5.499-27.126-6.726-15.106-5.911-34.347-12.22M215.742 796.994c13.777 8.758 25.223 12.628 34.343 11.609 1.747-.195 4.401 6.43.583 5.499-27.583-6.726-15.361-5.911-34.926-12.22M217.642 809.83c13.901 6.587 25.51 8.7 33.605 6.335 1.551-.453 4.42 5.688.81 5.339-26.078-2.525-14.874-3.543-33.622-6.852M219.95 818.204c13.42 6.667 24.607 8.848 32.383 6.536 1.491-.443 4.291 5.71.814 5.339-25.116-2.684-14.338-3.631-32.403-7.052M223.005 827.368c13.054 6.728 23.308 9.574 30.843 7.301 1.444-.435 2.356 5.116-1.02 4.728-24.382-2.805-11.485-3.699-29.029-7.205M224.459 834.154c12.048 6.893 21.48 9.873 28.35 7.71 1.315-.414 2.228 5.136-.87 4.703-22.37-3.136-10.57-3.85-26.686-7.59M262.291 820.41c8.606 7.46 15.216 10.905 19.807 9.117.879-.342 1.181 5.208-.961 4.617-15.476-4.27-6.825-4.365-18.052-8.911M262.411 829.362c7.859 6.79 13.896 9.924 18.09 8.293.803-.313 1.024 4.132-.933 3.594-14.137-3.88-6.18-3.36-16.434-7.495M261.8 837.917c8.605 7.46 12.16 10.294 16.75 8.506.88-.342.57 4.598-1.572 4.007-15.475-4.27-6.213-3.754-17.44-8.3"/><path d="M263.205 819.532c-.15 3.169 6.009 2.558 20.263 2.558 2.156 0 4.147-2.696-.586-3.169-13.629-1.36-4.408.131-19.677.611zM260.15 813.536l23.829-1.833-1.222-3.666c-9.165-1.019-25.459 1.629-22.607 5.499zM259.65 844.43c9.096 7.497 12.855 10.343 17.755 8.491.939-.355.568 4.66-1.706 4.078-16.434-4.203-6.58-3.757-18.49-8.276M257.363 851.736c9.623 8.245 13.599 11.377 18.744 9.388.985-.381.63 5.091-1.77 4.44-17.323-4.697-6.95-4.145-19.515-9.157M253.055 859.979c11.044 7.058 15.62 9.725 21.824 7.671 1.188-.393.51 4.608-2.309 4.128-20.358-3.467-6.84-2.228-21.531-6.204M251.38 869.248c11.756 5.796 16.598 7.94 22.539 5.214 1.137-.522 1.014 4.523-1.84 4.358-20.616-1.197-6.434-2.07-21.474-4.4"/><path d="M251.177 875.415c12.559 5.872 15.902 8.65 22.312 5.757 1.227-.554 2.87 4.065-.193 3.926-22.127-1.005-6.886-2.071-23.011-4.314M249.793 882.438c13.729 5.544 17.345 8.246 24.53 5.135 1.375-.595 3.055 4.013-.332 3.964-24.466-.347-7.561-1.88-25.346-3.659M225.506 842.775c13.871 6.611 19.402 9.117 26.458 5.913 1.35-.612 3.181 4.552-.197 4.384-24.4-1.218-7.601-2.343-25.388-4.917M226.532 850.736c13.355 6.756 19.288 9.32 26.002 6.213 1.285-.595 1.904 4.567-1.33 4.358-23.364-1.508-6.719-2.42-23.772-5.199"/><path d="M228.916 856.435c10.634 8.741 15.4 12.194 21.363 10.182 1.141-.385 1.175 4.796-1.537 4.086-19.583-5.137-5.441-3.433-19.576-8.835M230.173 863.495c9.253 8.932 14.001 12.472 19.05 10.587.966-.361 1.1 4.806-1.23 4.043-16.816-5.519-4.713-2.923-16.886-8.596"/></g></svg>