<svg class="bottomOverlay" width="86" height="380" viewBox="202.715 584.407 86.593 380.048" preserveAspectRatio="xMidYMax" xmlns="http://www.w3.org/2000/svg"><g stroke="#000" fill="#5e2020"><path d="M218.12 755.477c17.53 13.452 43.504 12.044 49.05 8.59 3.262-2.032 5.477 5.979 2.01 6.672-24.335 4.868-34.504 4.145-53.22-10.274"/><path d="M214.784 765.053c20.008 13.359 51.019 12.375 57.392 8.89 3.747-2.05 4.473 7.857 2.925 7.865-28.35.146-40.8 3.767-62.161-10.553M276.669 784.49c-6.131 5.143-11.339 6.63-17.329 6.545-4.48-.062-9.819.239-11.098-.886-1.759-1.55.86 4.738 2.872 5.059 14.81 2.359 17.143 3.278 28.587-6.36M213.74 781.78c17.006 8.187 27.702 8.703 31.132 6.262 2.016-1.437 3.206 6.55 1.004 6.518-16.448-.246-21.638-3.553-33.094-8.375"/><path d="M280.435 792.44c-4.1 6.031-9.938 8.784-14.705 9.637-3.565.636-7.754 1.767-8.938.856-1.626-1.255 1.388 4.543 3.034 4.545 12.101.016 14.09.559 21.733-10.74M214.78 792.162c17.72 10.095 24.904 11.557 32.993 9.048 2.533-.786 3.987 9.21 1.698 9.156-17.088-.411-21.84-5.73-33.775-11.684M217.228 806.484c17.722 10.095 24.905 11.557 32.994 9.048 2.533-.786 3.987 9.21 1.698 9.156-17.088-.411-21.84-5.73-33.775-11.684M283.383 803.314c-3.67 6.005-8.936 8.72-13.242 9.54-3.22.615-7.005 1.719-8.08.798-1.48-1.263 1.284 4.55 2.773 4.562 10.948.096 12.75.651 19.593-10.594M285.517 817.674c-4.11 5.12-8.7 6.716-12.143 6.66-2.573-.043-5.684.279-6.293-.83-.84-1.527-.038 4.687 1.087 4.996 8.267 2.27 9.509 3.17 17.185-6.422M220.252 821.706c16.818 10.13 23.629 11.606 31.292 9.112 2.398-.78 3.797 9.218 1.627 9.16-16.198-.445-20.713-5.773-32.037-11.75M223.277 836.93c15.009 10.196 22.349 12.88 29.16 10.418 2.13-.77 2.145 8.053.214 7.985-14.419-.511-16.552-4.088-26.657-10.11M282.636 832.77c-4.936 4.248-9.609 4.961-12.859 4.268-2.43-.517-3.587-3.348-4.622-2.645-2.193 1.49-3.29 7.745-2.287 8.255 7.372 3.751 9.538 4.19 18.762-3.772M278.9 847.211c-5.542 4.011-11.026 4.41-14.926 3.464-2.917-.707-4.49-3.7-5.666-3.052-2.49 1.374-2.617 7.747-2.116 8.322 6.272 7.209 11.599 4.992 21.955-2.53M276.28 861.991c-5.816 4.111-11.603 4.476-15.728 3.461-3.084-.757-6.22-3.273-7.456-2.612-2.617 1.403-2.012 7.38.051 8.037 10.111 3.216 11.524 5.248 22.39-2.461"/><path d="M227.432 848.427C240.41 859.805 246.7 861.9 252.514 859c1.78-.889 1.884 8.063.227 7.985-12.379-.588-14.229-4.175-22.932-10.25"/></g></svg>