<?xml version="1.0" encoding="utf-8"?>
<svg class="shirt" width="86" height="380" viewBox="202.715 584.407 86.5933 380.048" preserveAspectRatio="xMidYMax" xmlns="http://www.w3.org/2000/svg" xmlns:xlink="http://www.w3.org/1999/xlink">
  <defs id="svgEditorDefs">
    <path id="svgEditorClosePathDefs" fill="red" style="stroke-width: 0px; stroke: none;"/>
    <pattern id="pattern-0" x="0" y="0" width="20" height="20" patternUnits="userSpaceOnUse" viewBox="0 0 100 100">
      <path d="M 0 0 L 50 0 L 50 100 L 0 100 Z" style="fill: black;"/>
    </pattern>
    <pattern id="pattern-0-0" patternTransform="matrix(1.033834, 0.11662, -0.149393, 0.950421, 186.119522, 247.889435)" xlink:href="#pattern-0"/>
  </defs>
  <g transform="matrix(0.281621, -0.09379, 0, 0.335958, 242.720749, 782.223389)">
    <g id="layer1" transform="translate(-172.39 -240.81)">
      <g id="g3019">
        <path id="path6074" d="M 217.273 624.231 C 240.909 703.792 161.19 416.722 177.021 388.707 C 192.852 360.692 211.796 375.272 211.796 375.272 C 211.796 375.272 198.019 321.718 223.498 307.921 C 248.977 294.124 253.923 309.865 253.923 309.865 C 253.923 309.865 259.568 252.015 265.838 242.28 C 272.108 232.545 232.204 104.212 232.204 104.212 C 232.204 104.212 240.383 36.013 266.306 38.048 C 292.229 40.083 286.568 -5.138 286.568 -5.138 C 286.568 -5.138 299.913 -7.135 307.577 -19.032 C 315.24 -30.929 305.681 -18.94 305.681 -18.94 C 305.681 -18.94 277.388 4.578 283.636 -7.748 C 289.884 -20.074 310.35 -26.922 310.35 -26.922 C 310.35 -26.922 308.776 -27.29 290.697 -47.212 C 272.618 -67.134 260.811 -79.443 260.811 -79.443 C 260.811 -79.443 296.041 -46.462 240.598 -100.903 C 200.721 -140.06 84.931 -117.231 86.822 -73.225 C 89.944 -0.581 211.153 59.984 100.907 147.385 C 54.641 184.064 97.335 325.643 97.335 325.643 C 97.335 325.643 185.334 516.725 217.273 624.231 Z" style="opacity: 0.80233; stroke: rgb(0, 0, 0); stroke-width: 1px; fill: url(#pattern-0-0);" transform="matrix(1, -0.000001, 0.000001, 1, -0.000037, 0.000223)"/>
      </g>
    </g>
  </g>
</svg>