<svg class="shirtOverlay" width="86" height="380" viewBox="202.715 584.407 86.593 380.048" preserveAspectRatio="xMidYMax" xmlns="http://www.w3.org/2000/svg" xmlns:xlink="http://www.w3.org/1999/xlink"><defs><pattern id="g" width="20" height="20" patternUnits="userSpaceOnUse" viewBox="0 0 100 100"><g stroke="#FFF" stroke-width="5" stroke-miterlimit="10" fill="#fff700"><path d="M437.1 239.5c-18.6-14-38.9-27.4-60.5-39.9-21.7-12.5-43.4-23.3-64.8-32.5-35.5-15.2-70-25.6-101.6-31.3-68.6-12.2-123.3-1.4-143.9 34.2 49-84.7 140.6-141.7 245.5-141.7 41.2 0 77.9 42 101.6 107.5 10.9 30.2 19.1 65.3 23.7 103.7z" transform="matrix(.01205 0 0 .03656 54.171 30.456)"/><path d="M515 311.8c-20.7 24.5-47 49.2-77.9 72.4 2.8-23.1 4.3-47.3 4.3-72.4s-1.5-49.3-4.3-72.4c-4.6-38.3-12.8-73.5-23.7-103.6C389.7 70.3 353 28.3 311.8 28.3c104.9 0 196.5 57 245.5 141.7 20.6 35.7 2.5 88.5-42.3 141.8z" transform="matrix(.01205 0 0 .03656 54.171 30.456)"/><path d="M595.3 311.8c0 51.6-13.8 100-37.9 141.8-20.6 35.7-75.3 46.4-143.9 34.2-31.6-5.6-66.1-16.1-101.6-31.3 21.4-9.1 43.1-20 64.8-32.5 21.7-12.5 41.9-25.9 60.5-39.9 30.9-23.2 57.2-47.8 77.9-72.4 44.8-53.3 62.9-106.1 42.3-141.7 24.1 41.8 37.9 90.2 37.9 141.8z" transform="matrix(.01205 0 0 .03656 54.171 30.456)"/><path d="M557.3 453.6c-49 84.7-140.6 141.7-245.5 141.7-41.2 0-77.9-42-101.6-107.5-10.9-30.2-19.1-65.3-23.7-103.6 18.6 14 38.9 27.4 60.5 39.9 21.7 12.5 43.4 23.4 64.8 32.5 35.5 15.2 70 25.7 101.6 31.3 68.6 12.1 123.3 1.3 143.9-34.3z" transform="matrix(.01205 0 0 .03656 54.171 30.456)"/><path d="M311.8 595.3c-734.123 0-1375.169-57-1718.086-141.7-144.165-35.7-17.496-88.4 296.029-141.7 144.865-24.5 328.92-49.2 545.168-72.4-19.595 23.1-30.093 47.3-30.093 72.4 0 25.1 10.498 49.3 30.093 72.4 32.193 38.3 89.579 73.5 165.86 103.6 166.56 65.4 422.698 107.4 711.029 107.4zM311.8 167.1c-21.4 9.1-43.1 20-64.8 32.5-21.7 12.5-41.9 25.9-60.5 39.9-30.9 23.2-57.2 47.8-77.9 72.4C63.8 365.2 45.7 418 66.3 453.6c-24.1-41.7-37.9-90.1-37.9-141.8s13.8-100 37.9-141.8c20.6-35.7 75.3-46.4 143.9-34.2 31.6 5.7 66.1 16.1 101.6 31.3z" transform="matrix(.01205 0 0 .03656 54.171 30.456)"/></g><g transform="matrix(.02908 0 0 .01885 22.309 40.194)"><linearGradient id="a" gradientUnits="userSpaceOnUse" x1="1174.401" y1="1199.535" x2="302.401" y2="1495.535" gradientTransform="matrix(1.55015 0 0 1 -626.81 0)"><stop offset="0" stop-color="#8fd9ff"/><stop offset="1" stop-color="#005a97"/></linearGradient><path fill="url(#a)" d="M1123.842 1185.563c19.686-133.313 16.369-258.618 12.753-320.423l-222.907 249.063.328.314c-.075.033-.414.18-.992.428l-.764.855h-1.228c-27.447 11.733-239.665 101.311-490.965 175.423-157.998 46.596-300.501 78.116-423.55 93.685-79.475 10.056-151.094 13.435-214.433 10.185 223.838 142.116 530.953 229.808 869.828 229.808 93.085 0 183.767-6.63 270.992-19.173 45.857-34.931 84.962-82.599 116.796-142.53 39.653-74.649 67.963-168.058 84.142-277.635z"/><linearGradient id="b" gradientUnits="userSpaceOnUse" x1="482.461" y1="445.867" x2="1354.44" y2="167.583" gradientTransform="matrix(1 0 0 2.60954 0 -1262.95)"><stop offset="0" stop-color="#fff33b"/><stop offset="1" stop-color="#e93e3a"/></linearGradient><path fill="url(#b)" d="M656.951 130.556h.793c17.706-30.619 154.607-264.377 316.72-457.775 101.925-121.594 193.853-203.848 273.232-244.476 51.27-26.242 97.471-35.057 138.331-26.578-144.398-370.857-342.517-599.695-561.125-599.695-60.05 0-118.548 17.302-174.817 50.033-29.582 91.154-54.809 215.548-75.345 371.94-25.58 194.798-43.843 438.556-54.28 724.5-12.699 347.887-10.559 674.875-8.227 836.158L656.03 134.722l-.212-.82.64-1.117.493-2.229z"/><linearGradient id="c" gradientUnits="userSpaceOnUse" x1="980.233" y1="339.829" x2="1672.272" y2="947.801" gradientTransform="matrix(1.25652 0 .3999 2.206 -337.753 -1116.826)"><stop offset="0" stop-color="#8cc63f"/><stop offset=".108" stop-color="#90c03d"/><stop offset=".256" stop-color="#9aae38"/><stop offset=".426" stop-color="#aa922e"/><stop offset=".612" stop-color="#c16a22"/><stop offset=".809" stop-color="#df3812"/><stop offset="1" stop-color="red"/></linearGradient><path fill="url(#c)" d="M1344.612-568.323c-91.234 33.468-192.002 101.609-299.503 202.531C914.321-243.008 805.106-100.707 752.482-28.081h361.368l.074-.751 1.002.751h1.241l.772 1.514c27.679 20.886 240.666 183.624 464.488 411.587 140.724 143.326 258.313 284.189 349.504 418.664 59.048 87.076 107.169 171.827 144.143 253.665-4.79-141.772-20.608-290.456-48.389-443.706-83.597-461.141-260.455-880.95-482.4-1195.338-59.766-17.862-126.57-13.444-199.673 13.372z" transform="matrix(.79585 .91679 -.3999 .79585 381.59 -1248.68)"/><linearGradient id="d" gradientUnits="userSpaceOnUse" x1="1322.243" y1="706.05" x2="1162.243" y2="1614.05"><stop offset="0" stop-color="#ff49c1"/><stop offset=".097" stop-color="#f947c2"/><stop offset=".221" stop-color="#e943c6"/><stop offset=".36" stop-color="#cf3bcd"/><stop offset=".51" stop-color="#aa31d6"/><stop offset=".67" stop-color="#7a23e1"/><stop offset=".835" stop-color="#4113ef"/><stop offset="1" stop-color="#00f"/></linearGradient><path fill="url(#d)" d="M1502.763 927.403c-51.857-59.477-123.621-121.998-213.298-185.825-109.103-77.654-218.69-138.454-273.381-167.336l143.796 249.063.378-.026c.004.059.022.321.05.768l.493.855-.396.686c1.309 21.2 10.435 184.55-6.439 362-10.609 111.567-29.276 206.94-55.482 283.468-16.969 49.555-37.205 91.34-60.524 125.147 261.823-72.163 469.852-274.058 550.594-532.208-15.453-43.106-44.133-88.813-85.79-136.592z"/><linearGradient id="e" gradientUnits="userSpaceOnUse" x1="649.136" y1="1300.132" x2="15.137" y2="654.132" gradientTransform="matrix(1 0 0 3.3391 0 -3208.35)"><stop offset="0" stop-color="#c3d7ff"/><stop offset="1" stop-color="#00cba5"/></linearGradient><path fill="url(#e)" d="M397.202 1335.137c77.437-50.657 167.464-153.799 267.578-306.559 121.802-185.851 229.25-401.24 281.608-511.172H658.795l-.167 1.136c-.052-.086-.289-.473-.69-1.136h-.987l-.396-2.292c-19.014-31.612-165.042-277.939-310.281-622.995-91.316-216.945-164.577-430.153-217.75-633.702-34.431-131.804-60.501-260.084-78.119-383.958-16.642 214.592-25.503 439.645-25.503 671.612 0 697.999 80.185 1333.438 211.462 1809.305 44.988 27.037 98.791 20.353 160.838-20.239z"/><linearGradient id="f" gradientUnits="userSpaceOnUse" x1="327.681" y1="961.955" x2="467.681" y2="33.955"><stop offset="0" stop-color="#ede928"/><stop offset="1" stop-color="#f37e31"/></linearGradient><path fill="url(#f)" d="M147.04 722.4c51.857 59.477 123.621 121.998 213.298 185.825 109.104 77.654 218.69 138.454 273.382 167.336L489.923 826.498l-.378.026a232.36 232.36 0 0 1-.05-.768l-.494-.854.397-.687c-1.309-21.2-10.435-184.549 6.439-362 10.609-111.567 29.276-206.94 55.482-283.468 16.969-49.555 37.205-91.34 60.524-125.147C350.02 125.764 141.99 327.658 61.249 585.808c15.454 43.107 44.133 88.813 85.791 136.592z"/></g><g stroke="#FFF" stroke-width="5" stroke-miterlimit="10" fill="#fff700"><path d="M437.1 239.5c-18.6-14-38.9-27.4-60.5-39.9-21.7-12.5-43.4-23.3-64.8-32.5-35.5-15.2-70-25.6-101.6-31.3-68.6-12.2-123.3-1.4-143.9 34.2 49-84.7 140.6-141.7 245.5-141.7 41.2 0 77.9 42 101.6 107.5 10.9 30.2 19.1 65.3 23.7 103.7z" transform="matrix(.00059 .00411 -.0362 .00517 57.984 41.07)"/><path d="M515 311.8c-20.7 24.5-47 49.2-77.9 72.4 2.8-23.1 4.3-47.3 4.3-72.4s-1.5-49.3-4.3-72.4c-4.6-38.3-12.8-73.5-23.7-103.6C389.7 70.3 353 28.3 311.8 28.3c104.9 0 196.5 57 245.5 141.7 20.6 35.7 2.5 88.5-42.3 141.8z" transform="matrix(.00059 .00411 -.0362 .00517 57.984 41.07)"/><path d="M595.3 311.8c0 51.6-13.8 100-37.9 141.8-20.6 35.7-75.3 46.4-143.9 34.2-31.6-5.6-66.1-16.1-101.6-31.3 21.4-9.1 43.1-20 64.8-32.5 21.7-12.5 41.9-25.9 60.5-39.9 30.9-23.2 57.2-47.8 77.9-72.4 44.8-53.3 62.9-106.1 42.3-141.7 24.1 41.8 37.9 90.2 37.9 141.8z" transform="matrix(.00059 .00411 -.0362 .00517 57.984 41.07)"/><path d="M557.3 453.6c-49 84.7-140.6 141.7-245.5 141.7-41.2 0-77.9-42-101.6-107.5-10.9-30.2-19.1-65.3-23.7-103.6 18.6 14 38.9 27.4 60.5 39.9 21.7 12.5 43.4 23.4 64.8 32.5 35.5 15.2 70 25.7 101.6 31.3 68.6 12.1 123.3 1.3 143.9-34.3z" transform="matrix(.00059 .00411 -.0362 .00517 57.984 41.07)"/><path d="M311.8 595.3c-734.123 0-1375.169-57-1718.086-141.7-144.165-35.7-17.496-88.4 296.029-141.7 144.865-24.5 328.92-49.2 545.168-72.4-19.595 23.1-30.093 47.3-30.093 72.4 0 25.1 10.498 49.3 30.093 72.4 32.193 38.3 89.579 73.5 165.86 103.6 166.56 65.4 422.698 107.4 711.029 107.4zM311.8 167.1c-21.4 9.1-43.1 20-64.8 32.5-21.7 12.5-41.9 25.9-60.5 39.9-30.9 23.2-57.2 47.8-77.9 72.4C63.8 365.2 45.7 418 66.3 453.6c-24.1-41.7-37.9-90.1-37.9-141.8s13.8-100 37.9-141.8c20.6-35.7 75.3-46.4 143.9-34.2 31.6 5.7 66.1 16.1 101.6 31.3z" transform="matrix(.00059 .00411 -.0362 .00517 57.984 41.07)"/></g><ellipse transform="rotate(149.534 52.242 43.819)" cx="52.28" cy="45.928" rx="9.637" ry="9.637" fill="#fff700"/></pattern><pattern id="h" patternTransform="matrix(1.0591 .26949 -.23896 .93913 240.735 752.683)" xlink:href="#g"/></defs><path transform="translate(.619)" fill="url(#h)" d="M212.268 651.674l62.545-8.936-16.495 15.809 22.681 21.306.687 6.186-6.873 34.365 2.749 35.053 7.56 8.248v-1.375l-15.808 4.124-7.56-35.053.687-13.059v.688l-4.811 14.433 2.749 6.186 14.434 28.179 8.248 8.248 4.811 11.684-39.177 99.66-30.241-83.165-1.375-38.489 16.496-28.179 2.061-10.997-3.436-13.059-4.811-6.185 4.124 16.495.687 6.873-7.56 35.74-4.812-1.375-11.684 2.749h.688l9.622-19.244v-.687l.687-17.87-9.622-40.551 15.808-26.118z"/></svg>