<?xml version="1.0" encoding="utf-8"?>
<svg class="shirt" width="86" height="380" viewBox="202.715 584.407 86.5933 380.048" preserveAspectRatio="xMidYMax" xmlns="http://www.w3.org/2000/svg" xmlns:xlink="http://www.w3.org/1999/xlink">
  <defs id="svgEditorDefs">
    <path id="svgEditorClosePathDefs" fill="red" style="stroke-width: 0px; stroke: none;"/>
    <pattern id="pattern-0" x="0" y="0" width="20" height="20" patternUnits="userSpaceOnUse" viewBox="0 0 100 100">
      <g transform="matrix(0.06839608412522535, 0, 0, 0.06839608412522535, 39.316978454589844, 5.224429636735184)">
        <g id="g2276">
          <g id="g2260" transform="matrix(1, 0, 0, 1.073539, -2.381225, -23.978611)">
            <g id="basket" transform="matrix(8.255547, 0, 0, 7.830522, -3594.63208, -1501.736206)">
              <path id="path2280" style="stroke: rgb(0, 0, 0); stroke-linecap: round; stroke-width: 14.152; fill: rgb(126, 83, 83);" d="M 436.25 213.1 C 552.113 212.504 157.928 188.281 561.62 213.6"/>
              <path id="path1405" style="stroke-linejoin: round; stroke: rgb(0, 0, 0); stroke-width: 9; fill: rgb(126, 83, 83);" d="m557.79 218.91l-15.11 153.31h-73.35l-28.32-153.63"/>
              <path id="path7527" style="stroke: rgb(0, 0, 0); stroke-width: 8; fill: rgb(126, 83, 83);" d="m445.07 242.53h111.22"/>
              <path id="path7529" style="stroke: rgb(0, 0, 0); stroke-width: 8; fill: rgb(126, 83, 83);" d="m552.3 269.96h-101.74"/>
              <path id="path7535" style="stroke: rgb(0, 0, 0); stroke-width: 8; fill: rgb(126, 83, 83);" d="m455.05 294.9h94.76"/>
              <path id="path7539" style="stroke: rgb(0, 0, 0); stroke-width: 8; fill: rgb(126, 83, 83);" d="m460.03 319.84c87.28 0 87.28 0.99 87.28 0.99"/>
              <path id="path7541" style="stroke: rgb(0, 0, 0); stroke-width: 8; fill: rgb(126, 83, 83);" d="m544.82 346.77h-80.3"/>
              <path id="path7543" style="stroke: rgb(0, 0, 0); stroke-width: 8; fill: rgb(126, 83, 83);" d="m468.51 213.6l19.45 157.11"/>
              <path id="path7545" style="stroke: rgb(0, 0, 0); stroke-width: 8; fill: rgb(126, 83, 83);" d="m504.92 370.21l-4.99-156.11"/>
              <path id="path7547" style="stroke: rgb(0, 0, 0); stroke-width: 8; fill: rgb(126, 83, 83);" d="m530.36 214.6l-5.99 157.11"/>
            </g>
            <g id="g-1" transform="matrix(8.255545616149902, 0, 0, 7.830522060394286, -3088.877728554546, -887.6368152978274)">
              <path id="path-1" style="stroke: rgb(0, 0, 0); stroke-linecap: round; stroke-width: 14.152; fill: rgb(126, 83, 83);" d="m436.25 213.1c125.37 0 125.37 0.5 125.37 0.5"/>
              <path id="path-2" style="stroke-linejoin: round; stroke: rgb(0, 0, 0); stroke-width: 9; fill: rgb(126, 83, 83);" d="m557.79 218.91l-15.11 153.31h-73.35l-28.32-153.63"/>
              <path id="path-3" style="stroke: rgb(0, 0, 0); stroke-width: 8; fill: rgb(126, 83, 83);" d="m445.07 242.53h111.22"/>
              <path id="path-4" style="stroke: rgb(0, 0, 0); stroke-width: 8; fill: rgb(126, 83, 83);" d="m552.3 269.96h-101.74"/>
              <path id="path-5" style="stroke: rgb(0, 0, 0); stroke-width: 8; fill: rgb(126, 83, 83);" d="m455.05 294.9h94.76"/>
              <path id="path-6" style="stroke: rgb(0, 0, 0); stroke-width: 8; fill: rgb(126, 83, 83);" d="m460.03 319.84c87.28 0 87.28 0.99 87.28 0.99"/>
              <path id="path-7" style="stroke: rgb(0, 0, 0); stroke-width: 8; fill: rgb(126, 83, 83);" d="m544.82 346.77h-80.3"/>
              <path id="path-8" style="stroke: rgb(0, 0, 0); stroke-width: 8; fill: rgb(126, 83, 83);" d="m468.51 213.6l19.45 157.11"/>
              <path id="path-9" style="stroke: rgb(0, 0, 0); stroke-width: 8; fill: rgb(126, 83, 83);" d="m504.92 370.21l-4.99-156.11"/>
              <path id="path-10" style="stroke: rgb(0, 0, 0); stroke-width: 8; fill: rgb(126, 83, 83);" d="m530.36 214.6l-5.99 157.11"/>
            </g>
            <g id="g-2" transform="matrix(5.082365, 6.060013, -6.624516, 4.820708, -676.585388, -3797.801514)">
              <path id="path-11" style="stroke: rgb(0, 0, 0); stroke-linecap: round; stroke-width: 14.152; fill: rgb(126, 83, 83);" d="M 436.25 213.1 C 561.62 213.1 561.62 213.6 561.62 213.6"/>
              <path id="path-12" style="stroke-linejoin: round; stroke: rgb(0, 0, 0); stroke-width: 9; fill: rgb(126, 83, 83);" d="M 557.79 218.91 L 580.553 325.071 L 469.33 372.22 L 441.01 218.59"/>
              <path id="path-13" style="stroke: rgb(0, 0, 0); stroke-width: 8; fill: rgb(126, 83, 83);" d="M 445.07 242.53 L 556.29 242.53"/>
              <path id="path-14" style="stroke: rgb(0, 0, 0); stroke-width: 8; fill: rgb(126, 83, 83);" d="M 552.3 269.96 L 450.56 269.96"/>
              <path id="path-15" style="stroke: rgb(0, 0, 0); stroke-width: 8; fill: rgb(126, 83, 83);" d="M 455.05 294.9 L 549.81 294.9"/>
              <path id="path-16" style="stroke: rgb(0, 0, 0); stroke-width: 8; fill: rgb(126, 83, 83);" d="M 460.03 319.84 C 547.31 319.84 547.31 320.83 547.31 320.83"/>
              <path id="path-17" style="stroke: rgb(0, 0, 0); stroke-width: 8; fill: rgb(126, 83, 83);" d="M 544.82 346.77 L 464.52 346.77"/>
              <path id="path-18" style="stroke: rgb(0, 0, 0); stroke-width: 8; fill: rgb(126, 83, 83);" d="M 468.51 213.6 L 487.96 370.71"/>
              <path id="path-19" style="stroke: rgb(0, 0, 0); stroke-width: 8; fill: rgb(126, 83, 83);" d="M 504.92 370.21 L 499.93 214.1"/>
              <path id="path-20" style="stroke: rgb(0, 0, 0); stroke-width: 8; fill: rgb(126, 83, 83);" d="M 530.36 214.6 L 524.37 371.71"/>
            </g>
          </g>
        </g>
      </g>
      <g transform="matrix(0.052611, 0, 0, 0.052596, 0.105881, -2.345091)">
        <g>
          <path d="M897.1879,9.8639c9.4959,7.898,17.3568,16.681,16.0887,32.0877c-2.3192-2.8366-3.7884-5.0172-5.628-6.8197&#10;&#9;&#9;c-9.9154-9.7152-20.6685-10.3135-35.2986-5.4194c-2.9399,0.9835-2.6241,3.6809-2.924,5.8048&#10;&#9;&#9;c-1.6083,11.3869,0.3691,22.2521,5.5071,32.4952c11.8016,23.5274,31.3912,38.5369,54.8656,48.7793&#10;&#9;&#9;c38.9593,16.9988,78.9595,16.9154,119.3108,5.701c30.2096-8.3959,57.3376-23.0882,82.6675-41.353&#10;&#9;&#9;c16.3588-11.796,33.0344-23.1118,51.4347-31.6016c6.6716-3.0783,13.5295-5.5917,20.755-7.0607&#10;&#9;&#9;c14.5696-2.962,27.392,0.2964,38.3545,10.5163c8.6084,8.0254,15.2966,17.5764,21.7328,27.3079&#10;&#9;&#9;c14.6116,22.0924,28.9321,44.3759,46.3076,64.4957c10.9237,12.6489,23.272,23.823,35.4255,35.2149&#10;&#9;&#9;c2.849,2.6706,5.7113,5.3793,8.2035,9.759c-5.8086-2.1394-10.1705-4.7888-14.5663-7.3396&#10;&#9;&#9;c-20.0929-11.6598-36.8348-27.3722-52.9751-43.8237c-14.9373-15.2253-30.0742-30.1772-47.3939-42.8413&#10;&#9;&#9;c-18.3828-13.4414-38.2509-16.0609-59.7472-10.2771c-21.0399,5.661-39.4987,16.6412-57.7164,28.0935&#10;&#9;&#9;c-17.8949,11.2493-35.2045,23.4564-54.7128,31.9883c-27.2664,11.9248-55.4992,19.3718-85.4147,16.2738&#10;&#9;&#9;c-46.7903-4.8456-87.1045-22.6265-115.946-61.535c-8.1653-11.0154-13.0043-23.5483-15.391-37.0317&#10;&#9;&#9;c-2.9315-16.5608,2.2021-30.4687,13.6572-42.465c3.6528-3.8254,8.2644-6.617,11.4036-10.9494&#10;&#9;&#9;C882.5212,9.8639,889.8546,9.8639,897.1879,9.8639z" style="fill: rgb(255, 226, 0);"/>
          <path d="M 433.183 1501.671 C 430.429 1503.645 427.591 1505.513 424.936 1507.612 C 414.61 1515.771 404.511 1524.23 394.003 1532.145 C 384.073 1539.623 373.409 1545.774 360.445 1546.224 C 359.947 1546.241 359.414 1546.473 358.959 1546.359 C 346.298 1543.163 335.17 1548.586 323.783 1552.572 C 322.868 1552.892 321.917 1553.111 320.868 1553.41 C 322.39 1547.433 323.28 1546.449 336.981 1535.543 C 331.172 1532.121 325.433 1529.005 319.105 1527.134 C 315.767 1526.147 312.933 1527.716 310.21 1529.443 C 304.207 1533.251 298.508 1537.581 291.727 1540.42 C 295.968 1526.744 314.597 1513.781 328.883 1514.921 C 331.351 1515.118 332.389 1514.445 334.037 1513.153 C 339.95 1508.52 346.141 1504.334 353.664 1502.581 C 356.132 1502.006 358.734 1501.461 361.703 1499.22 C 349.022 1498.445 337.454 1498.44 326.561 1503.301 C 322.689 1505.028 321.741 1504.088 321.383 1500.247 C 320.314 1488.757 320.91 1488.002 332.746 1486.588 C 343.319 1485.325 354.114 1486.782 364.551 1483.919 C 367.875 1483.007 371.293 1482.357 374.901 1480.144 C 365.416 1477.736 356.677 1479.764 347.969 1480.409 C 338.334 1481.122 328.736 1482.4 319.046 1481.873 C 316.896 1481.756 314.725 1481.493 312.63 1481.007 C 304.123 1479.037 301.138 1471.273 306.051 1464.115 C 307.249 1462.369 309.13 1462.076 310.932 1462.136 C 319.753 1462.427 328.566 1462.963 337.388 1463.205 C 342.356 1463.341 342.5 1468.255 345.407 1471.215 C 353.366 1450.008 370.332 1437.543 387.165 1425.026 C 395.306 1418.973 403.078 1412.343 412.237 1407.763 C 413.777 1406.993 414.269 1405.773 414.552 1404.212 C 415.424 1399.409 414.877 1394.577 414.898 1389.763 C 414.911 1386.658 412.229 1387.338 410.419 1387.198 C 395.969 1386.081 381.499 1385.202 367.067 1383.888 C 362.701 1383.491 357.773 1385.431 354.077 1380.381 C 352.903 1378.777 348.398 1379.71 345.444 1379.291 C 326.161 1376.553 308.048 1369.897 290.214 1362.447 C 272.966 1355.242 256.508 1346.524 240.936 1336.118 C 235.012 1332.159 231.534 1325.568 224.74 1322.485 C 211.535 1316.494 199.753 1308.176 188.945 1298.548 C 183.102 1293.344 177.57 1287.789 171.936 1282.353 C 168.167 1278.717 165.3 1274.14 159.549 1272.813 C 155.859 1271.961 155.155 1267.635 152.822 1265.109 C 146.402 1258.158 139.611 1251.529 134.454 1243.484 C 132.819 1240.933 131.111 1238.548 131.145 1235.331 C 131.172 1232.841 129.556 1231.008 128.258 1229.086 C 116.606 1211.844 104.445 1194.969 93.131 1177.468 C 86.46 1167.149 88.51 1157.405 88.918 1147.142 C 89.061 1143.556 92.278 1141.175 94.877 1138.802 C 102.599 1131.749 104.646 1121.19 100.131 1111.798 C 92.704 1096.349 84.918 1081.049 79.541 1064.716 C 76.778 1056.327 74.222 1047.836 75.956 1038.8 C 76.285 1037.088 75.093 1036.076 74.437 1034.759 C 68.971 1023.778 59.084 1014.845 56.116 1003.087 C 50.621 981.311 41.864 960.671 36.041 939.027 C 19.016 875.743 9.837 811.506 11.509 745.943 C 12.431 709.804 15.125 673.755 23.054 638.326 C 24.363 632.476 26.795 626.989 28.934 621.394 C 30.521 617.244 30.199 612.401 31.052 607.928 C 41.317 554.091 65.023 506.938 101.883 466.435 C 120.901 445.538 142.736 428.25 168.44 416.17 C 172.802 414.12 177.245 412.127 181.835 410.705 C 187.488 408.954 192.561 406.433 196.743 402.239 C 197.861 401.118 199.149 400.204 200.687 400.393 C 214.438 402.08 227.253 396.692 240.578 395.216 C 268.36 392.14 295.424 394.003 321.073 406.478 C 329.681 410.664 336.036 417.484 342.923 423.733 C 343.539 424.292 344.32 424.875 343.892 425.786 C 343.398 426.839 342.281 426.897 341.278 426.81 C 335.805 426.334 330.303 426.049 324.873 425.271 C 303.774 422.251 282.734 418.504 261.281 419.856 C 237.585 421.349 215.431 427.598 195.76 441.445 C 189.947 445.537 183.87 449.255 177.881 453.165 C 179.565 455.365 180.998 455.077 182.996 453.615 C 185.526 451.764 188.416 450.394 191.197 448.903 C 193.725 447.547 194.998 448.207 194.617 451.236 C 192.985 464.222 188.764 475.858 177.603 483.873 C 171.934 487.943 167.349 492.808 165.182 499.677 C 163.303 505.629 164.211 509.516 169.382 513.166 C 178.477 519.587 188.444 521.193 198.677 516.496 C 207.997 512.217 210.469 503.491 211.245 494.174 C 212.001 485.097 210.423 476.252 208.125 467.503 C 207.811 466.308 206.722 465.006 207.953 463.775 C 209.342 462.384 210.861 463.448 212.139 463.949 C 221.986 467.807 228.542 475.201 233.072 484.418 C 247.36 513.492 234.763 545.626 204.048 558.82 C 191.263 564.312 177.678 566.92 164.185 569.859 C 162.568 570.211 160.961 570.608 158.752 571.124 C 171.802 585.694 172.098 604.294 176.156 621.575 C 182.072 646.767 194.731 666.609 218.807 677.994 C 231.09 683.803 243.946 687.686 257.33 689.839 C 262.749 690.711 268.227 691.222 273.645 692.101 C 275.653 692.426 278.022 692.065 279.73 694.307 C 275.429 696.784 270.689 696.673 266.205 697.294 C 245.74 700.127 225.607 699.222 206.441 690.606 C 185.532 681.206 171.933 664.473 161.388 644.829 C 158.635 639.699 155.871 634.544 153.601 629.193 C 149.439 619.387 142.924 611.853 134.195 605.712 C 128.394 601.631 123.177 601.082 117.046 604.246 C 114.184 605.723 110.64 609.306 108.27 607.582 C 105.398 605.493 108.13 601.103 108.673 597.84 C 115.729 555.486 133.354 517.579 157.613 482.502 C 161.755 476.513 165.833 470.481 170.339 463.884 C 164.647 464.746 162.434 468.981 159.849 472.326 C 129.431 511.684 111.818 556.825 100.249 604.704 C 87.379 657.963 85.415 712.187 86.324 766.578 C 87.27 823.181 92.906 879.265 108.184 934.046 C 110.997 944.13 114.382 954.028 116.558 964.332 C 117.747 969.96 121.455 975.052 123.998 980.4 C 124.421 981.291 125.062 982.285 124.983 983.178 C 123.895 995.594 130.432 1005.942 134.187 1017.01 C 136.752 1024.572 139.96 1031.927 141.762 1039.73 C 142.439 1042.662 144.379 1044.71 145.892 1047.053 C 156.129 1062.916 164.072 1079.996 172.142 1096.981 C 186.293 1126.765 205.846 1152.764 227.344 1177.482 C 233.744 1184.84 240.799 1191.721 245.177 1200.663 C 245.584 1201.496 246.515 1202.208 247.368 1202.666 C 262.969 1211.039 275.444 1223.981 291.166 1232.254 C 309.527 1241.915 328.076 1250.799 348.983 1253.324 C 366.547 1255.444 383.882 1253.226 401.187 1250.444 C 410.87 1248.887 420.57 1247.436 430.26 1245.922 C 430.897 1245.823 431.599 1245.733 432.127 1245.406 C 443.772 1238.211 456.629 1233.366 468.496 1226.604 C 497.864 1209.869 515.243 1183.828 526.156 1152.669 C 535.613 1125.665 540.125 1097.545 545.199 1069.552 C 552.452 1029.537 560.66 989.836 577.032 952.251 C 595.044 910.901 618.474 873.265 650.761 841.495 C 689.647 803.232 735.6 778.387 790.253 773.361 C 851.061 767.768 904.629 784.924 950.019 827.579 C 992.934 867.907 1028.142 914.433 1063.302 961.166 C 1079.728 982.998 1096.315 1004.706 1114.806 1024.882 C 1144.022 1056.759 1179.443 1079.61 1218.736 1096.968 C 1234.429 1103.901 1250.336 1110.286 1266.492 1116.007 C 1273.555 1118.508 1281.215 1118.582 1288.643 1119.386 C 1315.935 1122.338 1343.153 1123.011 1370.022 1115.892 C 1417.606 1103.285 1455.048 1056.562 1455.041 1009.387 C 1455.038 987.653 1447.522 967.969 1437.196 949.22 C 1419.981 917.963 1395.772 892.61 1369.255 869.273 C 1335.417 839.492 1298.28 814.073 1261.494 788.192 C 1234.249 769.023 1206.793 750.109 1182.247 727.425 C 1171.08 717.106 1160.676 706.098 1153.032 692.788 C 1150.121 687.718 1148.989 681.616 1146.021 676.926 C 1141.837 670.314 1141.949 662.41 1137.1 655.962 C 1127.917 643.747 1124.279 628.929 1121.814 614.109 C 1111.823 554.035 1115.371 494.919 1136.235 437.399 C 1145.371 412.211 951.215 948.888 969.523 929.733 C 994.804 903.282 1023.958 881.779 1055.44 863.322 C 1058.022 861.808 1060.71 860.469 1063.373 859.096 C 1082.285 849.345 1101.75 848.357 1120.461 858.385 C 1142.982 870.454 1166.891 877.292 1191.861 881.267 C 1193.337 881.502 1194.793 881.887 1196.24 882.269 C 1212.038 886.438 1215.863 892.056 1213.958 908.257 C 1219.44 902.842 1222.318 891.198 1221.55 880.174 C 1221.168 874.68 1219.171 872.056 1213.472 871.129 C 1204.556 869.678 1195.588 868.892 1186.637 868.705 C 1163.593 868.222 1142.495 860.851 1122.053 851.191 C 1092.612 837.276 1065.662 819.709 1043.27 795.729 C 1039.17 791.337 1035.384 786.687 1032.15 781.617 C 1031.408 780.455 1029.597 779.218 1030.911 777.757 C 1032.171 776.358 1033.728 777.924 1034.998 778.443 C 1053.232 785.888 1070.355 795.527 1087.492 805.14 C 1106.825 815.984 1126.316 826.436 1148.137 831.654 C 1174.119 837.868 1199.98 836.459 1226.428 831.148 C 1222.639 825.742 1217.865 822.239 1212.865 819.037 C 1199.032 810.178 1183.405 806.052 1167.699 802.227 C 1145.243 796.758 1122.355 792.882 1100.927 783.689 C 1078.101 773.895 1056.712 761.916 1039.306 743.766 C 1034.55 738.806 1030.391 733.42 1027.329 727.244 C 1026.773 726.124 1025.469 724.852 1026.661 723.66 C 1027.884 722.435 1029.154 723.831 1030.246 724.381 C 1044.395 731.513 1057.721 740.079 1071.139 748.436 C 1096.592 764.287 1124.459 772.192 1154.016 775.242 C 1171.205 777.015 1188.416 778.683 1205.757 781.145 C 1195.695 773.891 1185.575 766.717 1175.584 759.366 C 1149.086 739.872 1334.27 161.67 1313.061 136.301 C 1301.015 121.891 1290.88 106.327 1284.824 88.374 C 1283.483 84.398 1283.481 84.399 1283.854 81.017 C 1286.634 82.157 1288.62 84.161 1290.453 86.247 C 1298.153 95.004 1305.669 103.923 1313.442 112.611 C 1343.216 145.889 1167.665 729.229 1209.644 745.213 C 1222.089 749.951 1234.498 754.785 1246.974 759.436 C 1249.937 760.54 1251.395 762.129 1251.929 765.429 C 1254.435 780.883 1257.607 796.178 1263.658 810.747 C 1268.742 822.99 1276.927 831.234 1290.508 833.429 C 1301.24 835.164 1310.508 839.667 1316.87 848.936 C 1317.573 849.961 1319.053 850.914 1318.295 852.367 C 1317.539 853.815 1315.906 853.203 1314.648 853.206 C 1304.823 853.235 1294.998 853.238 1285.173 853.178 C 1275.902 853.122 1267.195 850.335 1258.229 847.132 C 1261.316 851.312 1265.625 853.849 1272.455 855.298 C 1283.562 857.654 1294.949 857.695 1306.166 859.171 C 1312.764 860.04 1319.411 860.537 1325.892 862.191 C 1328.204 862.781 1330.657 863.429 1331.906 865.449 C 1337.174 873.966 1346.255 876.404 1354.6 879.971 C 1359.12 881.902 1363.828 883.394 1369.728 885.551 C 1363.139 888.441 1357.505 888.805 1352.007 889.665 C 1340.451 891.471 1329.382 890.389 1319.43 883.602 C 1306.572 874.833 1291.661 871.853 1276.921 868.348 C 1269.95 866.691 1263.099 864.63 1256.56 861.647 C 1250.397 858.836 1246.734 854.592 1247.427 847.248 C 1248.012 841.052 1246.012 835.448 1242.183 830.471 C 1236.987 836.328 1236.345 847.737 1240.555 855.733 C 1244.144 862.552 1250.05 866.833 1256.609 870.248 C 1261.022 872.547 1265.625 874.625 1270.355 876.143 C 1288.095 881.835 1305.878 887.402 1323.728 892.737 C 1340.175 897.652 1356.59 897.856 1372.603 890.858 C 1402.679 877.713 1407.721 841.987 1382.578 820.873 C 1374.439 814.039 1364.967 809.554 1355.486 805.05 C 1344.78 799.963 1334.292 794.535 1325.644 786.182 C 1323.506 784.116 1320.132 781.674 1321.349 779.062 C 1322.424 776.755 1326.228 778.862 1328.695 779.34 C 1357.908 784.999 1534.288 688.985 1409.79 812.445 C 1398.672 823.471 1431.493 834.468 1441.584 846.201 C 1445.493 850.747 1449.577 855.144 1453.417 859.746 C 1462.682 870.851 1474.792 874.902 1488.873 874.804 C 1507.459 874.674 1525.603 870.836 1543.949 868.706 C 1555.38 867.379 1566.794 866.489 1578.312 867.996 C 1597.989 870.571 1610.818 881.556 1617.548 899.838 C 1622.629 913.638 1623.411 928.129 1623.366 942.681 C 1623.355 946.37 1621.93 946.645 1619.195 944.573 C 1615.744 941.958 1612.002 939.711 1608.674 936.957 C 1597.395 927.62 1584.668 926.333 1570.996 929.763 C 1567.929 930.532 1564.797 931.097 1561.795 932.066 C 1549.044 936.178 1537.219 934.502 1526.092 926.989 C 1516.798 920.713 1506.556 917.806 1495.282 919.334 C 1481.148 921.249 1467.598 925.042 1454.954 931.817 C 1445.429 936.921 1436.12 942.492 1425.181 944.34 C 1409.251 947.032 1393.645 944.647 1378.07 941.667 C 1372.055 940.516 1366.104 939.027 1359.174 937.48 C 1366.739 949.453 1376.092 957.714 1389.242 961.24 C 1402.011 964.664 1414.716 962.575 1427.421 960.767 C 1441.1 958.82 1454.714 956.327 1468.596 956.143 C 1477.949 956.02 1486.31 958.712 1493.631 964.565 C 1494.151 964.981 1494.74 965.32 1495.22 965.776 C 1509.143 978.986 1525.447 982.253 1543.822 977.843 C 1549.794 976.41 1555.952 975.976 1562.182 976.817 C 1579.952 979.217 1591.198 995.933 1586.249 1013.331 C 1582.325 1027.13 1572.799 1035.922 1559.884 1041.491 C 1556.679 1042.873 1555.717 1041.547 1555.224 1038.699 C 1554.429 1034.109 1553.304 1029.57 1552.688 1024.959 C 1552.257 1021.73 1550.798 1020.87 1547.721 1021.227 C 1541.913 1021.901 1536.081 1022.694 1530.585 1024.553 C 1511.905 1030.873 1492.867 1031.926 1473.942 1027.108 C 1434.227 1016.998 1395.339 1021.396 1356.528 1031.833 C 1345.278 1034.858 1333.785 1036.82 1322.054 1037.232 C 1302.258 1037.926 1285.573 1031.095 1271.661 1017.143 C 1266.719 1012.187 1261.842 1007.157 1256.725 1002.386 C 1242.696 989.302 1226.019 982.947 1206.916 985.032 C 1180.542 987.91 1166.898 1007.418 1172.152 1033.477 C 1176.587 1055.47 1188.818 1073.191 1203.074 1089.745 C 1208.682 1096.256 1214.773 1102.35 1220.266 1109.204 C 1198.711 1105.172 1181.081 1094.232 1166.514 1078.14 C 1151.775 1061.858 1144.282 1042.513 1143.614 1019.73 C 1139.145 1023.561 1134.955 1026.292 1134.098 1031.998 C 1133.396 1036.675 1130.883 1040.722 1128.435 1044.697 C 1121.457 1056.032 1117.265 1068.09 1118.386 1081.636 C 1118.535 1083.429 1118.685 1085.572 1117.885 1087.032 C 1114.689 1092.863 1116.389 1098.613 1117.369 1104.515 C 1121.35 1128.487 1130.408 1150.187 1145.599 1169.273 C 1149.539 1174.222 1153.507 1179.225 1156.758 1184.627 C 1161.087 1191.822 1167.613 1195.725 1175.103 1198.35 C 1179.689 1199.957 1184.135 1201.812 1188.253 1204.316 C 1208.954 1216.907 1231.928 1223.864 1254.689 1231.384 C 1268.28 1235.875 1492.019 684.094 1505.538 688.618 C 1514.644 691.665 1524.683 694.354 1534.738 692.882 C 1545.476 691.31 1551.109 697.279 1555.285 705.748 C 1558.851 712.979 1563.434 718.877 1570.559 723.392 C 1602.175 743.425 1627.511 770.359 1651.414 798.74 C 1660.866 809.963 1669.699 821.668 1677.274 834.264 C 1679.853 838.552 1684.243 840.484 1688.294 842.538 C 1694.781 845.827 1698.634 850.173 1697.41 857.811 C 1696.473 863.657 1698.795 868.112 1702.345 872.748 C 1720.813 896.861 1732.386 924.489 1741.896 953.032 C 1753.725 988.537 1761.462 1024.962 1765.42 1062.183 C 1765.754 1065.32 1766.893 1068.224 1767.76 1071.223 C 1770.52 1080.774 1770.993 1090.77 1767.592 1100.127 C 1765.731 1105.25 1764.81 1110.27 1764.197 1115.524 C 1756.83 1178.697 1736.284 1236.66 1696.174 1286.812 C 1687.605 1297.525 1677.605 1306.807 1666.584 1315.023 C 1660.477 1319.575 1655.141 1325.276 1650.041 1330.702 C 1636.955 1344.624 1620.978 1353.909 1604.736 1363.101 C 1589.521 1371.712 1574.327 1380.359 1559.157 1389.048 C 1554.712 1391.594 1549.465 1406.876 1551.23 1411.675 C 1551.9 1413.497 1553.705 1413.792 1555.114 1414.525 C 1570.058 1422.295 1584.817 1430.316 1597.619 1441.489 C 1609.837 1452.153 1619.153 1465.05 1627.11 1479.034 C 1627.497 1479.714 1627.66 1480.52 1627.886 1481.15 C 1608.572 1485.975 1589.543 1486.871 1570.596 1479.905 C 1576.391 1489.01 1584.854 1492.996 1594.928 1493.789 C 1609.479 1494.935 1623.334 1491.034 1637.206 1487.46 C 1641.882 1486.255 1646.576 1485.071 1651.154 1483.554 C 1653.8 1482.676 1654.704 1483.398 1655.176 1485.977 C 1656.406 1492.689 1657.684 1499.4 1659.251 1506.038 C 1660.091 1509.596 1659.016 1510.402 1655.637 1509.905 C 1635.344 1506.922 1615.465 1510.885 1595.521 1513.66 C 1594.898 1513.746 1594.298 1513.99 1592.503 1514.49 C 1607.593 1515.992 1621.45 1517.443 1635.326 1518.689 C 1638.002 1518.929 1639.966 1519.715 1641.761 1521.778 C 1648.973 1530.069 1655.523 1538.949 1663.569 1546.504 C 1665.61 1548.42 1665.789 1550.064 1662.987 1551.433 C 1660.148 1552.819 1657.416 1554.446 1654.51 1555.665 C 1651.032 1557.125 1647.595 1556.903 1644.806 1554.05 C 1641.353 1550.518 1637.39 1550.546 1633.325 1552.431 C 1629.711 1554.107 1626.309 1556.237 1622.754 1558.047 C 1620.237 1559.329 1620.552 1560.616 1622.095 1562.607 C 1626.575 1568.388 1631.954 1573.459 1635.495 1579.99 C 1638.181 1584.944 1637.652 1586.013 1631.882 1586.898 C 1613.465 1589.722 1596.095 1585.89 1579.284 1578.665 C 1564.389 1572.264 1550.798 1563.472 1536.908 1555.231 C 1527.917 1549.897 1518.93 1544.541 1507.686 1540.157 C 1509.354 1542.672 1510.198 1544.103 1511.193 1545.421 C 1518.449 1555.03 1527.114 1563.349 1535.497 1571.929 C 1540.523 1577.073 1540.561 1576.269 1534.519 1579.347 C 1533.333 1579.951 1532.177 1580.616 1531 1581.238 C 1528.843 1582.378 1527.849 1583.677 1528.885 1586.427 C 1530.359 1590.338 1528.435 1593.883 1526.689 1597.343 C 1525.368 1599.96 1523.975 1598.253 1522.713 1597.442 C 1515.426 1592.758 1508.18 1588.009 1500.912 1583.294 C 1477.29 1567.969 1453.493 1552.871 1432.428 1534.011 C 1426.103 1528.347 1420.238 1522.173 1414.077 1516.322 C 1406.455 1509.083 1404.131 1499.707 1402.837 1489.77 C 1401.569 1480.033 1398.996 1470.359 1398.826 1460.626 C 1398.721 1454.548 1396.844 1450.132 1394.029 1445.192 C 1391.404 1440.585 1387.793 1440.537 1384.5 1442.286 C 1379.814 1444.775 1375.069 1445.24 1370.054 1445.272 C 1365.745 1445.3 1361.475 1445.071 1357.232 1446.603 C 1354.151 1447.714 1351.068 1445.486 1348.053 1445.283 C 1343.178 1444.956 1338.239 1444.156 1333.915 1442.614 C 1316.315 1436.339 1297.748 1435.787 1279.682 1432.376 C 1240.965 1425.066 1203.662 1412.74 1166.352 1400.439 C 1154.341 1396.479 1142.326 1392.532 1130.274 1388.7 C 1127.961 1387.965 1126.108 1386.69 1124.43 1385.103 C 1118.886 1379.861 1111.47 1377.903 1105.124 1374.015 C 1061.072 1347.027 1027.227 1310.287 1001.313 1265.99 C 996.332 1257.478 992.876 1248.083 987.9 1239.504 C 987.147 1238.206 986.279 1236.158 985.016 1236.326 C 981.924 1236.737 981.458 1234.308 980.372 1232.73 C 964.661 1209.918 951.577 1185.534 938.018 1161.442 C 931.402 1149.689 924.576 1138.031 917.556 1126.553 C 913.163 1119.37 905.67 1114.151 900.1 1107.599 C 893.584 1099.933 885.736 1093.135 882.512 1083.081 C 882.107 1081.818 881.263 1080.449 881.468 1079.278 C 882.578 1072.952 878.777 1068.953 874.982 1064.964 C 866.025 1055.547 857.187 1046.005 847.9 1036.923 C 844.907 1033.996 840.422 1032.661 837.034 1030.057 C 824.427 1020.366 809.755 1022.564 795.572 1022.915 C 783.673 1023.21 773.577 1028.973 764.195 1035.915 C 761.383 1037.995 758.632 1040.158 755.834 1042.259 C 753.954 1043.67 752.111 1046.239 749.916 1042.607 C 749.835 1042.473 749.675 1042.331 749.529 1042.301 C 747.376 1041.863 746.137 1043.917 745.872 1044.941 C 744.81 1049.04 736.626 1048.471 739.334 1054.311 C 741.114 1058.152 740.684 1060.908 738.79 1064.418 C 728.43 1083.613 717.043 1102.26 707.695 1121.993 C 704.219 1129.332 701.154 1136.868 697.992 1144.352 C 697.356 1145.858 696.685 1147.57 696.798 1149.131 C 697.28 1155.794 694.013 1160.67 689.487 1164.844 C 685.725 1168.313 683.231 1172.441 681.108 1177.048 C 669.74 1201.729 657.368 1225.878 642.06 1248.404 C 640.213 1251.121 639.921 1254.314 638.776 1257.241 C 634.691 1267.688 627.206 1275.444 618.923 1282.501 C 615.858 1285.113 612.918 1287.689 610.745 1291.103 C 609.945 1292.359 609.055 1293.686 607.89 1294.559 C 598.933 1301.272 592.35 1310.294 584.613 1318.19 C 581.938 1320.92 580.614 1323.423 580.784 1327.652 C 581.528 1346.169 574.869 1362.541 564.734 1377.673 C 556.121 1390.531 545.433 1401.457 533.204 1410.875 C 530.953 1412.609 529.473 1414.254 529.511 1417.366 C 529.563 1421.571 527.212 1424.998 523.419 1426.332 C 519.482 1427.717 517.688 1430.479 516.012 1433.781 C 514.584 1436.596 513.59 1440.084 511.314 1441.929 C 505.029 1447.024 503.106 1453.823 501.328 1461.211 C 498.87 1471.429 493.466 1480.195 485.826 1487.562 C 468.554 1504.216 451.335 1520.925 434.192 1537.711 C 432.196 1539.666 430.871 1540.224 429.338 1537.535 C 429.256 1537.392 429.144 1537.264 429.04 1537.134 C 418.401 1523.834 418.408 1523.839 428.547 1510.033 C 430.372 1507.548 432.114 1505.001 433.894 1502.482 C 433.656 1502.211 433.42 1501.941 433.183 1501.671 Z" style="fill: rgb(255, 226, 0);"/>
          <path d="M1101.7814,948.871c-2.359-3.7668-4.6003-7.2171-6.7095-10.7464c-2.6-4.3505-6.0027-7.9898-9.8367-11.2245&#10;&#9;&#9;c-3.0244-2.5518-6.501-4.2946-10.5731-3.2559c-8.5956,2.1924-15.6747-0.8734-22.278-5.9677&#10;&#9;&#9;c-10.3561-7.9893-19.1654-17.5528-27.4829-27.5396c-13.4267-16.1214-27.4234-31.698-41.5189-47.2386&#10;&#9;&#9;c-12.9796-14.3102-27.7028-26.3157-41.7158-39.2985c-8.825-8.1761-19.9493-11.5491-29.8749-17.3593&#10;&#9;&#9;c-7.1687-4.1966-15.5529-6.0975-20.9197-13.6293c-2.8842-4.0477-8.6906-5.0589-13.8724-5.1721&#10;&#9;&#9;c-1.2272-0.0268-2.2556-0.2053-3.2546-0.6644c-30.0752-13.8211-61.1732-14.1621-92.9041-7.3289&#10;&#9;&#9;c-24.8615,5.3538-48.2029,15.2323-72.0265,23.6921c-3.0902,1.0974-7.4368,4.0179-9.1717,2.2325&#10;&#9;&#9;c-2.2595-2.3253,0.8624-6.3846,1.9552-9.5618c6.2756-18.2447,17.6733-32.2595,34.8018-41.4362&#10;&#9;&#9;c2.3467-1.2573,4.6208-2.653,6.9032-4.0267c19.3179-11.6262,25.4902-26.1801,20.4403-48.1635&#10;&#9;&#9;c-5.131-22.3362-15.7876-30.4814-42.1365-32.3035c-5.5845-0.3862-11.1553-0.9712-16.7323-1.4647&#10;&#9;&#9;c-0.0414-0.4313-0.0828-0.8625-0.1242-1.2938c4.5259-0.9303,9.0331-1.9669,13.5811-2.7726&#10;&#9;&#9;c19.4412-3.4438,38.9304-5.4576,58.5817-1.6453c22.2917,4.3245,37.3636,17.1517,45.5497,38.3098&#10;&#9;&#9;c5.7454,14.8497,7.7157,30.6297,11.7139,45.9062c1.1351,4.337,2.7233,8.5551,4.091,12.8318&#10;&#9;&#9;c0.8677,2.7131,2.1833,3.5447,5.162,2.2883c9.7637-4.1186,15.0705-12.3112,14.1893-22.8859&#10;&#9;&#9;c-1.1833-14.1996-8.1144-25.9113-16.5229-36.849c-9.945-12.9366-22.7453-22.871-35.426-32.9016&#10;&#9;&#9;c-11.3767-8.9991-22.6827-18.0837-31.7932-29.5155c-14.8442-18.6265-22.207-39.9589-22.8798-63.6846&#10;&#9;&#9;c-0.2599-9.1656,1.5338-17.9763,5.6662-26.1003c4.5759-8.996,9.7255-17.7003,14.6212-26.5242&#10;&#9;&#9;c5.226,2.9648,6.345,5.9741,4.2114,11.7151c-5.3921,14.5085-7.5364,29.6814-4.9291,45.184&#10;&#9;&#9;c3.1671,18.8308,14.2702,32.6369,28.4759,44.4179c10.0155,8.306,20.9661,15.3421,31.3903,23.0923&#10;&#9;&#9;c4.8093,3.5756,9.5362,7.277,14.1311,11.1236c24.5916,20.5868,31.5617,46.7404,24.1323,77.3191&#10;&#9;&#9;c-1.4517,5.9748-3.2782,11.8585-5.0135,18.077c3.6326,0.5483,7.049-0.8361,10.5392-1.3155&#10;&#9;&#9;c9.9286-1.3636,19.2515-1.0386,26.6733,7.2381c2.76,3.078,15.219,1.8422,18.7899-1.5753c2.7684-2.6494,5.4672-5.6339,6.2747-9.4451&#10;&#9;&#9;c1.1799-5.5692,4.4362-9.9272,7.2364-14.6189c1.2747-2.1356,2.7028-3.5292,5.1439-2.8514&#10;&#9;&#9;c2.2831,0.6339,3.6479,2.4925,3.6315,4.8572c-0.0543,7.8191,0.6097,15.6527-0.3822,23.4568&#10;&#9;&#9;c-0.1885,1.4826-0.3447,2.9697-0.4968,4.4566c-0.9277,9.0709,0.3772,15.9999,10.0258,21.201&#10;&#9;&#9;c12.0883,6.5164,19.1183,18.7822,27.1568,29.7931c6.7886,9.2988,12.6736,19.1157,19.0945,28.6113&#10;&#9;&#9;c0.646,0.9553,1.4375,1.894,2.3607,2.5674c11.6935,8.5298,18.6612,9.7565,22.5162-5.868&#10;&#9;&#9;c1.5458-6.2654,1.6669-12.5756,0.3428-18.8231c-3.9635-18.7009-13.0923-34.3507-27.8132-46.7229&#10;&#9;&#9;c-9.2757-7.7957-18.8302-15.2098-28.5912-22.844c12.0918,2.4069,24.1835,4.8138,37.2797,7.4207&#10;&#9;&#9;c-2.5074-5.9582-4.6784-11.0737-6.8153-16.2034c-4.7657-11.4404-8.9481-23.0129-7.5905-35.7493&#10;&#9;&#9;c1.1804-11.0746,6.9284-19.3671,16.098-26.7733c-0.7493,5.4666-1.4399,9.8715-1.9429,14.2978&#10;&#9;&#9;c-1.3773,12.1201,2.0427,22.6376,10.3327,31.6932c12.0961,13.2131,22.5906,27.6473,30.4011,43.7817&#10;&#9;&#9;c18.5372,38.2933,22.0475,78.0596,10.8213,119.1337c-1.5776,5.7727-2.9014,11.6357-3.9553,17.5262&#10;&#9;&#9;c-1.8693,10.4472,1.7712,15.3619,12.3065,16.9654c5.5933,0.8514,11.304,1.1123,16.809,2.3301&#10;&#9;&#9;C1099.0692,911.2809,1110.7264,925.2725,1101.7814,948.871z" style="fill: rgb(255, 226, 0);"/>
          <path d="M1069.3594,553.5165c-7.4305-2.7391-11.7239-7.8765-15.7991-12.9837c-7.2617-9.1007-7.1029-9.245-12.4663,1.1589&#10;&#9;&#9;c-2.6713,5.1814-5.5516,10.2764-7.8768,15.6111c-12.8137,29.3992-61.2495,40.9728-87.9254,16.1819&#10;&#9;&#9;c-4.0095-3.7261-7.9162-7.5139-11.9803-12.7947c8.3578,1.3404,15.6132,2.6625,22.9152,3.6349&#10;&#9;&#9;c9.0943,1.2111,18.2122,1.9081,27.3968,0.5844c12.5928-1.8149,21.5657-8.2483,26.4961-20.0923&#10;&#9;&#9;c4.861-11.6777,6.3589-24.101,8.0336-36.4762c1.4961-11.0564,2.4247-22.2092,4.3922-33.178&#10;&#9;&#9;c4.4296-24.6942,17.7236-43.9106,37.9074-58.4374c10.4077-7.4907,21.222-14.416,31.6326-21.9031&#10;&#9;&#9;c6.7035-4.8211,6.6196-5.2112-0.0658-9.748c-5.9232-4.0194-12.1116-7.6463-18.1464-11.5034&#10;&#9;&#9;c-17.674-11.2963-23.8925-29.0968-17.0114-50.0019c1.7518,2.4568,3.3961,4.4844,4.7416,6.694&#10;&#9;&#9;c10.1506,16.6697,25.4249,24.3548,44.4614,25.4149c7.3204,0.4077,14.6238,0.561,21.9319-0.6504&#10;&#9;&#9;c13.8046-2.2883,24.9564-8.8631,33.5034-19.9218c4.6089-5.9634,8.1974-12.5372,11.6414-19.2048&#10;&#9;&#9;c2.7518-5.3279,5.5559-10.6287,8.3212-15.9498c9.1364-17.5809,23.9482-24.6196,43.2666-23.3648&#10;&#9;&#9;c12.7449,0.8279,24.4849,4.4533,34.9869,11.9343c3.4443,2.4535,3.1342,3.6236-0.5021,5.5545&#10;&#9;&#9;c-22.2554,11.818-43.5862,25.0869-63.4391,40.6874c-26.3848,20.7333-47.2056,45.8815-61.6791,76.2531&#10;&#9;&#9;c-4.3672,9.164-9.2937,18.0613-13.9631,27.0812c-4.2329,8.1767-10.5751,13.9804-19.158,17.4294&#10;&#9;&#9;c-4.6404,1.8647-9.0018,4.3226-13.1191,7.1961c-20.2581,14.1378-28.8186,33.3311-25.2705,57.8946&#10;&#9;&#9;C1064.1342,531.3387,1066.5404,541.8735,1069.3594,553.5165z" style="fill: rgb(255, 226, 0);"/>
          <path d="M303.3773,1121.8425c21.729-11.1675,43.8965-16.5299,67.6141-7.9249c0.1772-1.5579-0.9826-1.6353-1.6292-2.1201&#10;&#9;&#9;c-0.6632-0.4973-1.4114-0.8806-2.12-1.318c-13.798-8.5164-26.9405-17.8782-37.8699-29.9972&#10;&#9;&#9;c-13.7398-15.2352-21.955-32.4602-18.9206-54.1035c1.8264,2.5811,1.58,5.3435,2.3776,7.7725&#10;&#9;&#9;c8.3017,25.2831,25.5094,42.0353,49.8623,51.7792c10.0679,4.0283,20.8125,5.8726,31.2119,8.8435&#10;&#9;&#9;c5.6079,1.6019,11.1116,3.4434,16.4091,5.939c12.3935,5.8386,19.2153,16.0868,22.8202,28.7865&#10;&#9;&#9;c2.8904,10.1824-0.4607,19.0363-6.6006,27.0824c-3.7362,4.8961-7.7786,9.5654-11.3819,14.5543&#10;&#9;&#9;c-3.4009,4.7087-3.9151,9.7861-0.6977,14.9574c2.8355,4.5575,5.9371,5.5992,10.4243,2.6694&#10;&#9;&#9;c4.1689-2.722,8.0065-5.9625,11.9173-9.0663c11.052-8.771,23.2405-14.7754,37.4841-16.3394&#10;&#9;&#9;c4.2528-0.4669,5.3116,0.4716,3.3109,4.2775c-1.0033,1.9084-1.8274,4.0077-3.2138,5.6019&#10;&#9;&#9;c-6.3279,7.2764-9.4403,15.8223-11.2774,25.1761c-3.2534,16.5653-3.2628,17.0802-18.6864,23.0482&#10;&#9;&#9;c-55.1621,21.3452-109.4796,19.2135-162.4013-7.547c-14.3076-7.2349-26.13-17.7115-34.8991-31.4137&#10;&#9;&#9;c-2.2772-3.5582-1.8611-4.7939,2.3914-5.6168c17.3696-3.361,33.4046-1.3347,47.658,10.1278&#10;&#9;&#9;c9.2517,7.4402,19.993,9.9474,31.8551,9.0968c6.3184-0.453,10.8502-2.6393,14.6317-7.7665&#10;&#9;&#9;c8.0091-10.8591,12.2985-22.6263,11.6026-36.2938c-0.8506-16.7058-12.5099-25.1819-24.148-27.0724&#10;&#9;&#9;C321.933,1123.4861,312.6242,1122.855,303.3773,1121.8425z" style="fill: rgb(255, 226, 0);"/>
          <path d="M493.0212,1180.5007c1.2614-9.447,2.2474-18.5449,2.6688-27.6923c0.431-9.3561,0.0958-18.6388-2.293-27.7717&#10;&#9;&#9;c-2.4742-9.4594-7.971-16.3447-16.9449-20.3624c-3.3436-1.4969-6.6371-3.1287-10.0548-4.4335&#10;&#9;&#9;c-14.1083-5.3859-22.8363-15.6761-27.4181-29.7887c-1.6449-5.0665-3.0923-10.1986-4.799-15.2435&#10;&#9;&#9;c-6.2066-18.3472-23.3024-26.8629-41.7818-20.8695c-5.7546,1.8665-10.9304,4.8857-16.006,8.1028&#10;&#9;&#9;c-3.6346,2.3037-7.2896,4.5754-11.1528,6.9977c0.2285-13.559,16.8267-37.679,30.6967-44.6188&#10;&#9;&#9;c17.8339-8.9232,36.3408-5.7078,54.7512-2.3331c0.6021-1.8239-0.6684-2.6847-1.3624-3.689&#10;&#9;&#9;c-5.4112-7.8298-11.3396-15.2253-18.2414-21.8228c-16.6624-15.9279-36.7733-21.3589-59.272-19.6532&#10;&#9;&#9;c-12.3388,0.9354-24.3855,3.4443-36.3183,6.6098c-1.5628,0.4146-3.071,1.3914-4.9196,0.7453&#10;&#9;&#9;c-0.0443-2.2502,1.7241-3.475,2.9145-4.9113c24.5224-29.5863,69.5157-31.7752,96.8386-4.7463&#10;&#9;&#9;c9.1594,9.0608,16.7702,19.3998,24.4417,29.6879c6.1781,8.2854,12.3903,16.5453,19.8639,23.7454&#10;&#9;&#9;c7.5534,7.2771,16.1009,12.8394,26.3267,15.711c3.7937,1.0653,5.3846,1.1466,4.59-3.7996&#10;&#9;&#9;c-1.2881-8.0187-2.8729-16.1025-1.6503-24.3301c1.4366-9.6677,9.4135-16.7327,19.1733-17.2495&#10;&#9;&#9;c2.9602-0.1567,2.4182,1.3832,2.0242,3.0604c-1.6013,6.817-3.0994,13.6362-3.0241,20.7089&#10;&#9;&#9;c0.0436,4.1033,0.6971,8.1213,3.0853,11.4125c7.6218,10.5046,8.8428,22.0703,6.0516,34.3&#10;&#9;&#9;c-6.4924,28.4459-8.9366,57.5936-15.0047,86.1039c-3.4132,16.0364-10.418,30.5193-20.1292,43.6998&#10;&#9;&#9;C495.4286,1178.948,495.0538,1180.1938,493.0212,1180.5007z" style="fill: rgb(255, 226, 0);"/>
          <path d="M1144.9319,956.1732c8.0961-2.2131,16.1921-4.4263,25.4792-6.9651c-3.8438-2.1666-6.6783-3.7769-9.5247-5.3665&#10;&#9;&#9;c-6.9808-3.8983-13.913-7.8674-20.5278-12.382c-12.0625-8.2325-18.851-19.3935-19.7054-34.136&#10;&#9;&#9;c-0.7384-12.743,1.1976-25.1663,3.5842-38.9379c4.1208,8.0265,6.9175,15.178,8.6664,22.5319&#10;&#9;&#9;c3.1356,13.1848,10.8574,22.4329,22.0015,29.6242c10.2302,6.6015,20.4979,13.1264,31.4202,18.4796&#10;&#9;&#9;c26.7769,13.1236,37.2172,36.2892,39.8245,64.2449c1.4055,15.0708-1.8318,29.8784-3.3813,44.763&#10;&#9;&#9;c-1.7565,16.8708,4.3489,29.5364,19.0012,38.1598c7.8026,4.592,16.157,7.8187,24.6559,10.8014&#10;&#9;&#9;c2.7289,0.9579,3.8177,0.3551,4.4031-2.4187c1.2709-6.0228,2.9194-11.9677,4.1168-18.0033c0.4949-2.494,1.5394-3.7786,4.0315-4.241&#10;&#9;&#9;c3.1058-0.5763,6.1427-1.5139,9.2379-2.1583c10.3285-2.1498,18.2668,1.3417,24.0375,10.14&#10;&#9;&#9;c1.5132,2.3069,0.2137,2.7949-1.3616,3.6019c-4.8939,2.5067-9.7993,5.0156-14.0394,8.5773&#10;&#9;&#9;c-6.1421,5.1592-6.438,9.316-0.9365,15.1649c2.1602,2.2965,4.6323,4.3091,7.0367,6.3639c2.3646,2.0208,4.8235,3.9314,8.3828,6.8158&#10;&#9;&#9;c-12.222,0.1036-22.8434-1.2479-33.3368-3.4855c-47.1145-10.0466-88.1392-32.6063-125.7297-61.931&#10;&#9;&#9;c-22.5747-17.6105-42.9772-37.41-58.3793-61.8425c-1.7443-2.7669-5.4264-6.2542-4.0723-8.5518&#10;&#9;&#9;c1.6274-2.761,6.366-1.0655,9.7162-0.8696c14.3931,0.8419,27.6843,5.4578,40.3063,12.2237&#10;&#9;&#9;c4.8429,2.5959,9.6813,5.2026,14.5729,7.7045c3.564,1.8229,7.2332,3.5038,11.2791,3.8665&#10;&#9;&#9;c13.2919,1.1912,17.3329-3.8629,14.7609-17.3498c-0.9785-5.1309-4.5029-8.8144-8.5804-11.9138&#10;&#9;&#9;c-6.3428-4.8212-13.6543-7.5542-21.1776-9.8313c-1.8783-0.5685-3.7577-1.1335-5.6366-1.7001&#10;&#9;&#9;C1145.0153,956.8259,1144.9736,956.4996,1144.9319,956.1732z" style="fill: rgb(255, 226, 0);"/>
          <path d="M364.0645,419.7971c11.1432,1.8615,21.0893,5.404,30.5413,10.363c19.7766,10.3757,34.2481,26.1739,45.6976,45.0164&#10;&#9;&#9;c13.3339,21.9438,21.7005,46.0091,29.9323,70.1328c4.1923,12.2855,8.8008,24.4271,13.0984,36.6684&#10;&#9;&#9;c9.607,27.3642,28.7112,41.89,57.2063,46.0738c22.714,3.335,45.5797,5.8865,68.0492,10.818&#10;&#9;&#9;c12.0612,2.6472,23.8624,6.0831,35.0717,11.3718c27.0004,12.739,41.7764,34.1983,45.3921,63.6034&#10;&#9;&#9;c2.033,16.5333,0.5299,32.9216-2.2305,49.2436c-0.1351,0.7985-0.5019,1.5578-0.8037,2.4644&#10;&#9;&#9;c-1.9124-1.3986-2.0974-3.5057-2.813-5.2719c-11.9171-29.41-28.5837-55.2688-54.9756-73.9084&#10;&#9;&#9;c-19.759-13.9551-42.1846-21.8013-65.1281-28.4622c-20.9343-6.0775-41.9435-11.8061-62.3824-19.5862&#10;&#9;&#9;c-26.5797-10.1174-44.2719-28.7147-55.5444-54.2693c-9.7929-22.2003-15.3776-45.7167-21.9558-68.927&#10;&#9;&#9;c-2.9051-10.2504-6.0215-20.4266-9.7219-30.4266c-8.7605-23.6739-22.0399-43.9803-43.0589-58.6628&#10;&#9;&#9;C368.2076,424.4796,365.6505,423.0746,364.0645,419.7971z" style="fill: rgb(255, 226, 0);"/>
          <path d="M519.7144,839.4435c-1.7438-8.0855-3.7546-16.1241-5.1861-24.2645c-6.7531-38.4034-28.8973-64.8932-62.8906-82.6354&#10;&#9;&#9;c-21.8885-11.4243-44.7734-20.5928-67.2294-30.7339c-12.458-5.6259-24.5714-11.8736-36.2898-18.9548&#10;&#9;&#9;c-33.57-20.2856-45.4342-50.5425-41.503-88.431c2.3872-23.0079,9.2445-44.963,15.0207-67.1904&#10;&#9;&#9;c4.0019-15.3999,6.9028-30.9948,3.5007-46.9096c-4.0419-18.9081-15.6044-32.797-30.6858-44.0686&#10;&#9;&#9;c-5.2493-3.9232-10.8347-7.3967-15.8497-11.7203c27.5794,3.9001,53.2209,11.7255,70.4608,35.48&#10;&#9;&#9;c12.7621,17.5847,14.1117,37.6143,10.5827,58.3362c-3.0615,17.9771-9.4375,35.0105-14.9402,52.2937&#10;&#9;&#9;c-2.5275,7.9384-4.6726,15.9603-5.8402,24.2535c-2.278,16.1793,2.0693,30.3051,12.5113,42.7186&#10;&#9;&#9;c7.3686,8.7599,16.1898,15.8895,25.6856,22.095c22.7254,14.8514,45.7945,29.1796,68.4325,44.1609&#10;&#9;&#9;c18.1203,11.9915,34.7823,25.7961,48.8221,42.5581C517.1305,773.6691,526.6021,806.9112,519.7144,839.4435z" style="fill: rgb(255, 226, 0);"/>
          <path d="M183.6537,950.9016c24.3024,4.9416,39.9492,24.34,40.412,49.0174c0.2463,13.1324-2.4947,25.8153-6.0494,38.35&#10;&#9;&#9;c-0.6844,2.4133-1.3716,3.9344,2.442,3.714c29.6505-1.7134,54.3171-32.606,48.8074-61.3475&#10;&#9;&#9;c-1.4833-7.7378-5.4267-14.2622-10.2127-20.3372c-2.9753-3.7766-6.0643-7.4637-9.2788-11.4075&#10;&#9;&#9;c17.7261,2.155,37.1344,32.3789,38.3261,59.1218c1.7423,39.1012-21.3065,63.5938-71.4231,74.5573&#10;&#9;&#9;c16.5409,7.6173,21.2503,20.5479,19.7994,37.7936c-3.2108-3.5841-5.8332-6.2848-8.1973-9.1953&#10;&#9;&#9;c-5.7796-7.1154-13.3221-9.631-22.201-8.8104c-5.1409,0.4749-10.2853,0.9443-15.4056,1.594&#10;&#9;&#9;c-2.3139,0.2937-3.633-0.1667-4.5095-2.5897c-5.3487-14.7866-13.1532-28.394-20.7352-42.0801&#10;&#9;&#9;c-17.8538-32.2272-29.5176-66.9637-41.6423-101.5282c-0.9686-2.7615-0.0819-3.4565,2.4628-3.8767&#10;&#9;&#9;c16.9354-2.7972,31.3729,1.3696,42.5407,14.9362c3.8111,4.6296,7.5033,9.3665,11.4973,13.833&#10;&#9;&#9;c3.5657,3.9875,8.325,7.6843,13.4958,5.5293c4.3089-1.7958,3.831-7.6713,4.2933-12.0198&#10;&#9;&#9;c0.7525-7.0792-1.9971-13.0584-6.8476-18.091C189.0542,955.8091,186.6788,953.7482,183.6537,950.9016z" style="fill: rgb(255, 226, 0);"/>
          <path d="M136.8392,855.4528c-2.7487,10.5175-1.5594,20.4612-5.1454,29.8403c-2.0822-1.8293-2.4839-4.4022-3.1375-6.6415&#10;&#9;&#9;c-3.0393-10.413-9.9206-16.0289-20.5066-17.9182c-8.3254-1.4858-8.1781-1.7962-8.8236-10.3884&#10;&#9;&#9;c-1.7596-23.4209-3.5793-46.8375-5.4332-70.2511c-0.5457-6.8915,0.1076-13.6675,1.9039-20.2943&#10;&#9;&#9;c2.5738-9.4951,7.2703-11.8979,16.3529-8.3142c5.1046,2.0141,9.998,4.5572,15.039,6.7408&#10;&#9;&#9;c5.8641,2.5401,11.9093,4.1653,18.4269,3.6772c3.5707-0.2674,5.6188-1.6157,6.7258-5.2861&#10;&#9;&#9;c3.1515-10.4493,2.5296-20.7233-0.5129-31.0059c-1.7382-5.8746-3.5261-11.7345-5.3158-17.6812&#10;&#9;&#9;c1.9222-0.4696,2.6821,0.8535,3.6188,1.5905c8.1525,6.4147,15.625,13.5139,21.6471,22.0246&#10;&#9;&#9;c12.5433,17.7266,14.8496,36.6515,6.6323,56.8102c-6.4679,15.867-16.9489,28.9675-28.5731,41.2435&#10;&#9;&#9;c-2.9591,3.125-6.3836,5.8093-10.4821,9.4944c5.7934,2.027,10.383,2.3682,14.8444,2.6649&#10;&#9;&#9;c13.7276,0.9128,24.2184,7.0355,29.3843,19.7881c6.451,15.9254,18.49,21.836,34.6242,23.0985&#10;&#9;&#9;c18.1975,1.424,32.4762-4.1642,41.5815-20.5052c3.7249-6.6851,6.9911-13.6254,10.4757-20.4448&#10;&#9;&#9;c2.4052-4.707,4.683-9.4928,8.6568-14.5447c-0.2676,9.2989-2.1069,17.2234-5.093,24.8662&#10;&#9;&#9;c-9.0657,23.2033-25.9386,39.213-47.5704,50.5224c-12.9122,6.7507-26.5123,11.6574-41.2654,12.6279&#10;&#9;&#9;c-14.118,0.9286-24.004-5.1041-30.0035-17.8534c-4.0588-8.6251-6.3917-17.8583-9.7044-26.7435&#10;&#9;&#9;C143.1084,866.9984,141.1773,861.3472,136.8392,855.4528z" style="fill: rgb(255, 226, 0);"/>
          <path d="M1101.9152,599.4954c3.8324,6.1317,5.4614,12.4268,7.1295,18.6419c3.1479,11.73,6.1637,23.5012,8.9335,35.3257&#10;&#9;&#9;c4.7823,20.4163,13.7655,38.8271,25.9001,55.8123c5.9027,8.2623,12.0906,16.3356,16.826,25.381&#10;&#9;&#9;c1.7426,3.3286,2.0713,6.133-0.1486,9.7143c-4.525,7.3007-2.8623,15.5245-1.8431,23.3961&#10;&#9;&#9;c1.4485,11.188,7.0842,20.6782,13.179,29.901c6.3577,9.6208,12.14,19.504,14.7366,30.9359&#10;&#9;&#9;c2.9178,12.8467,2.6591,25.6857,0.4268,39.5917c-3.5823-7.2056-5.3311-13.9526-6.665-20.7539&#10;&#9;&#9;c-2.7717-14.1332-9.7748-25.6553-20.4297-35.1899c-8.5695-7.6684-17.2264-15.221-26.4359-22.1163&#10;&#9;&#9;c-1.9462-1.4571-3.9984-2.7721-6.8937-4.7672c1.1105,10.9535,1.7101,20.8253,0.6639,30.7834&#10;&#9;&#9;c-2.5466,24.2426-16.1573,40.8555-37.6832,45.3059c-1.2778,0.2642-2.559,0.6962-3.9791,0.1094&#10;&#9;&#9;c0.63-2.2559,2.5846-3.38,4.1162-4.8008c3.1736-2.9441,6.5835-5.6413,9.6674-8.6729&#10;&#9;&#9;c10.5326-10.3539,12.4182-20.7392,4.6707-33.2532c-12.833-20.7284-17.5354-43.2689-17.0948-67.2622&#10;&#9;&#9;c0.2736-14.9003,4.4462-28.8732,9.72-42.6208c3.8151-9.9451,7.5228-19.9238,10.515-30.1656c1.03-3.5255,0.2369-4.7225-3.411-4.9343&#10;&#9;&#9;c-7.3125-0.4246-14.6141-1.1105-21.903-1.8574c-10.672-1.0937-19.3445-10.1046-20.361-20.7542&#10;&#9;&#9;c-0.1836-1.923,0.8542-2.3435,2.1676-2.6664c3.2249-0.7929,6.4392-1.7576,9.7186-2.1727&#10;&#9;&#9;c6.7499-0.8543,11.2439-4.5441,14.3085-10.3845c2.7183-5.1801,4.8726-10.5742,6.5076-16.1874&#10;&#9;&#9;C1095.8873,610.2263,1097.9694,604.8197,1101.9152,599.4954z" style="fill: rgb(255, 226, 0);"/>
          <path d="M1286.4938,1010.2764c1.4268-4.6396,2.8698-9.032,4.1249-13.4775c2.3557-8.3441,0.8743-15.7218-5.3641-22.097&#10;&#9;&#9;c-7.6771-7.8456-13.5624-16.8171-16.449-27.5811c-3.1569-11.7722-1.2961-23.1079,2.6797-34.3015&#10;&#9;&#9;c0.5509-1.5508,1.0675-3.1141,1.5742-4.68c0.035-0.1083-0.1464-0.2865-0.3889-0.7239&#10;&#9;&#9;c-11.3405,15.6713-19.158,31.7814-10.7673,51.4743c3.3157,7.7818,6.1639,15.7627,9.6208,24.6737&#10;&#9;&#9;c-1.7758-1.1404-2.8176-1.7095-3.7491-2.4225c-22.8075-17.4546-29.6544-40.7475-25.1061-68.2978&#10;&#9;&#9;c1.9031-11.5273,6.0785-22.0867,12.4431-31.8508c4.9091-7.5313,9.8937-15.0252,13.3225-23.4106&#10;&#9;&#9;c2.709-6.6246,2.7397-6.5814-3.4243-10.5419c-8.111-5.2115-17.1185-8.0478-26.405-10.2531&#10;&#9;&#9;c-7.6083-1.8067-15.1267-3.999-22.7518-5.725c-3.8019-0.8607-3.8207-2.8179-2.6498-5.7536&#10;&#9;&#9;c0.7046-1.7665,1.6997-3.2242,3.2205-4.3386c8.798-6.4468,16.2223-14.3405,23.2638-22.5721&#10;&#9;&#9;c2.2876-2.6742,4.1249-2.9661,7.1982-1.4824c18.3475,8.8574,34.0426,21.4805,49.3934,34.5728&#10;&#9;&#9;c10.5193,8.9716,20.8269,18.1921,31.1952,27.3398c8.5051,7.5038,17.2271,14.7145,26.9843,20.5718&#10;&#9;&#9;c6.3615,3.8187,9.8081,9.7048,12.1147,16.5504c0.9017,2.6763-0.026,3.3962-2.3533,4.2001&#10;&#9;&#9;c-13.8799,4.794-27.5598,5.8676-41.252-0.853c-7.6964-3.7775-16.0431-5.4052-24.5693-6.2433&#10;&#9;&#9;c-3.2767-0.3221-5.053,0.5287-6.4689,3.7516c-6.3929,14.5532-7.2806,29.2882-2.0922,44.2984&#10;&#9;&#9;c2.8273,8.1793,6.2295,16.1651,8.9105,24.3887C1304.2977,982.5145,1299.4517,999.9816,1286.4938,1010.2764z" style="fill: rgb(255, 226, 0);"/>
          <path d="M1361.2821,1103.1842c2.7263-6.0272,6.4618-10.3145,9.8673-14.7998c3.7876-4.9885,6.5745-10.3579,7.7018-16.5825&#10;&#9;&#9;c1.4032-7.7479,0.2655-14.7797-4.5485-21.2782c-11.9309-16.1061-26.8771-26.7306-47.7283-26.6141&#10;&#9;&#9;c-13.412,0.0749-17.0574,3.9437-17.5432,17.4119c-0.1403,3.8905,1.1038,7.1366,3.3933,10.1732&#10;&#9;&#9;c1.4702,1.9502,3.5994,3.4386,4.421,5.9435c-12.7205,0.6753-24.2321-9.2847-25.782-22.1876&#10;&#9;&#9;c-2.4475-20.3759,12.8545-40.999,34.5453-46.3204c14.5603-3.572,28.4368-0.9467,41.761,5.3238&#10;&#9;&#9;c5.4205,2.5509,10.657,5.4901,16.0432,8.1176c3.4352,1.6758,6.9215,3.2941,10.5054,4.6099&#10;&#9;&#9;c15.2279,5.5911,21.782,0.5493,21.1351-15.5968c-0.53-13.2269-6.6134-21.8792-19.214-26.1304&#10;&#9;&#9;c-12.3518-4.1674-19.0947-12.8162-19.819-25.9545c-0.0352-0.6362,0.0773-1.2805,0.123-1.951&#10;&#9;&#9;c1.8419-0.1336,2.3031,1.392,2.9937,2.3468c5.6083,7.7541,13.2084,10.7538,22.6023,9.9776&#10;&#9;&#9;c5.474-0.4523,10.9749-0.5736,16.4624-0.8682c1.7743-0.0953,3.1759,0.1066,3.8938,2.168&#10;&#9;&#9;c5.5741,16.0026,12.6881,31.5287,14.395,48.6946c1.1263,11.3287-0.3363,22.3033-4.2537,32.9037&#10;&#9;&#9;c-12.1926,32.9943-34.0422,56.7396-67.1835,69.5271C1364.1533,1102.4458,1363.1936,1102.6396,1361.2821,1103.1842z" style="fill: rgb(255, 226, 0);"/>
          <path d="M359.5715,400.3904c15.9908-1.265,31.3976,1.9057,46.1907,7.8303c34.2912,13.7336,61.6012,36.5613,82.0806,66.9036&#10;&#9;&#9;c22.8589,33.8676,37.3732,71.2592,41.8539,112.1694c0.9824,8.9692,0.7638,17.9553-0.4309,26.924&#10;&#9;&#9;c-0.3672,2.7565-1.1165,3.3598-3.7953,2.1348c-14.8043-6.7698-24.9689-17.1456-28.4597-33.6694&#10;&#9;&#9;c-4.3342-20.5166-7.9906-41.1951-13.8186-61.3806c-2.4954-8.6429-5.3864-17.1436-8.5426-25.5675&#10;&#9;&#9;c-15.7267-41.9745-46.4902-68.4891-87.1473-84.7957C378.2674,407.2354,368.8857,403.8971,359.5715,400.3904z" style="fill: rgb(255, 226, 0);"/>
          <path d="M1440.0831,163.9987c17.9137-1.8626,37.0972,8.3137,44.4713,24.1621c3.7123,7.9786,6.384,16.4367,9.6616,24.6238&#10;&#9;&#9;c2.6268,6.5618,5.6832,12.9113,11.0925,18.1914c-0.3568-6.0683-0.7252-12.136-1.0669-18.2052&#10;&#9;&#9;c-0.3348-5.9423-0.6422-11.8862,0.1227-18.3228c1.6757,3.1006,3.6169,6.0888,4.9841,9.3199&#10;&#9;&#9;c9.2656,21.8972,25.9252,36.2605,46.8153,46.414c9.5804,4.6566,19.4329,8.7881,28.4438,14.5602&#10;&#9;&#9;c18.1162,11.6045,23.765,30.2761,15.1068,50.8007c-3.3259-3.7527-5.5596-8.0174-7.5197-12.3206&#10;&#9;&#9;c-5.5913-12.2758-15.0054-19.9318-27.4604-24.6448c-13.0834-4.9508-26.4109-8.0511-40.4479-7.8029&#10;&#9;&#9;c-3.665,0.0648-7.3356-0.0836-10.9978,0.0362c-12.2772,0.4019-21.0349-4.9526-26.6726-15.8149&#10;&#9;&#9;c-6.1877-11.9225-9.7618-24.7467-13.3148-37.5872c-1.687-6.0972-3.3435-12.2039-4.9229-18.3298&#10;&#9;&#9;c-3.6304-14.0815-11.1346-25.0971-24.5612-31.573C1442.3049,166.7765,1440.2107,166.3592,1440.0831,163.9987z" style="fill: rgb(255, 226, 0);"/>
        </g>
      </g>
      <g transform="matrix(0.060482, 0, 0, 0.111597, 9.64269, 10.51977)">
        <path id="path4136" d="m 448.86023,670.66909 c -29.70062,-7.88043 -33.90786,-45.56103 -36.55454,-71.7741 6.14002,-12.3288 11.37031,-27.10385 19.8452,-37.68637 25.35841,-12.1541 50.02213,-28.09186 70.66073,-46.47678 12.93347,-19.87295 7.21056,-44.49891 -14.20312,-55.15553 -13.2769,-8.94789 -31.28949,-5.5191 -46.5522,-9.2771 -34.28095,0.18539 -51.07103,22.55978 -35.96786,54.76473 1.78145,20.37784 13.84558,40.57061 2.45452,60.23971 -8.41558,24.82542 -36.36136,35.59563 -60.11892,27.45869 -24.5599,-7.69469 -46.18669,-36.73949 -40.13093,-62.3193 8.58131,-22.66575 41.19861,-20.38793 55.14183,-39.84899 32.65419,-27.63678 -12.02268,-58.89656 -34.20645,-25.23552 -20.35849,18.61581 -42.51205,-0.31694 -59.02596,-14.0981 -12.14339,-1.27486 -24.48597,28.43722 -26.19307,43.4918 2.51635,38.75579 9.89405,78.91977 -7.18402,115.78505 -17.85857,15.90709 -43.91913,18.03272 -67.03312,15.54245 -21.88442,-3.10027 -33.07687,-31.3349 -35.39158,-51.28709 -4.39812,-22.289 2.95265,-55.11252 30.43723,-56.48458 14.25344,-3.41039 28.81738,-6.29025 37.49397,-19.27768 11.03138,-8.6524 16.69821,-23.58693 17.75564,-36.86397 1.55621,-23.3715 -29.52976,-27.9622 -41.97995,-12.40469 C 145.46891,472.3735 109.05062,498.48939 66.910883,489.56351 22.378854,477.84763 1.8740093,415.71123 23.918669,376.97605 c 8.038161,-12.82902 13.031223,-31.38772 31.755792,-25.45382 15.806206,-3.05741 29.581999,6.35905 41.459689,15.25935 16.47059,21.09827 27.80561,45.39636 40.269,68.77334 18.63721,-7.10489 22.828,-36.14498 23.68302,-55.36218 C 157.06976,348.16069 137.529,330.88459 105.65642,325.23541 88.30075,319.19957 76.66603,306.2866 67.457724,290.8864 60.065655,267.40201 52.141593,243.7926 54.826789,218.86086 c 2.923693,-20.57062 14.351173,-39.79959 21.605621,-59.28749 20.1143,-26.5596 45.99678,-52.64268 80.22285,-57.93548 12.04342,-3.16508 26.52049,2.93822 37.05645,7.33456 8.44833,14.22921 21.60637,26.85807 19.18264,44.78163 9.3828,39.45987 -43.84421,47.26483 -68.40678,65.11467 -17.42238,13.26457 -46.26808,22.75196 -51.26287,45.79908 -3.68791,21.80101 22.3777,18.11901 36.42779,17.97706 28.5008,3.01586 54.18768,-16.75389 72.76932,-36.28536 24.89119,-30.88021 17.09454,-78.31481 39.98907,-108.41696 14.42943,-8.29475 29.04135,-15.90252 46.11337,-13.04552 20.13287,-3.16375 38.7275,20.63828 38.49618,37.69304 -9.50297,25.59569 -42.04979,20.7189 -61.4018,34.71958 -15.83052,8.48679 -5.0105,26.27757 -5.26632,40.15874 1.71086,18.19183 21.52207,34.1663 39.93874,31.38572 19.27676,3.54116 34.55393,-13.03049 51.91664,-19.11452 11.19383,-13.11719 22.93131,-27.08853 24.60341,-45.11033 4.81841,-20.95861 -6.69881,-41.06931 -25.10558,-51.58707 C 330.977,138.37792 320.81011,116.49035 332.42525,92.349407 332.24619,70.940633 360.25536,70.42841 375.4093,65.083632 c 17.07335,-1.944428 41.38664,-5.222791 52.69747,8.823538 25.69299,23.401254 -5.80286,48.45106 -21.67222,65.77297 -15.49312,19.19775 -13.22479,43.89935 6.19716,59.08801 7.48183,12.66191 25.36235,9.73672 37.74843,15.04741 21.85408,-11.92757 41.41152,-29.33801 46.48767,-54.79918 -3.00226,-17.01329 -23.91216,-30.75297 -30.9,-47.97146 -12.44125,-15.810803 -11.41997,-36.917695 -5.11023,-55.027297 7.45618,-29.648561 40.83595,-43.540242 68.52383,-40.641659 17.22526,5.015031 34.64419,9.672889 47.09733,23.488509 14.44778,7.844639 16.23821,25.30627 23.4875,38.620303 -4.95623,27.743254 -29.19017,44.716384 -56.18315,48.542394 -21.64372,8.81572 -29.53759,29.84916 -28.54133,51.45482 1.58487,36.92636 43.86089,62.75859 78.46777,64.20369 17.3929,5.54223 38.69763,-7.56113 37.05974,-27.13606 4.67137,-25.33289 -4.93609,-51.44137 -1.89288,-77.25669 -0.95029,-24.60391 2.16668,-50.562267 13.32524,-72.357885 12.45437,-13.368383 17.71325,-35.904309 37.96444,-39.415059 15.63575,-9.77649 33.80489,-5.367789 51.00866,-3.543975 16.69094,15.453628 40.89945,24.5066 48.73572,47.509328 16.96143,24.222758 34.14444,65.072181 -2.00707,79.051841 -19.38105,3.11998 -39.04245,8.29254 -57.56596,-0.8546 -11.78697,-3.13387 -24.9696,-11.75759 -32.33744,2.49137 -11.58809,17.95345 -15.40333,41.03941 -23.85808,60.80386 -2.87825,17.13096 -14.93115,40.40838 3.39628,52.92713 31.74935,-1.34742 57.68772,-22.89585 78.44692,-45.05312 20.76305,-13.56286 46.43869,-25.95551 70.92036,-15.13432 14.97784,9.97969 39.11472,14.57676 46.85965,32.17823 6.04896,14.45883 15.44611,28.48913 9.14765,44.52826 -1.68367,12.45115 -1.70495,25.74001 -13.71869,32.98574 -9.97515,9.7974 -26.26532,2.76947 -35.75738,-5.25822 -22.73658,-10.09483 -33.68433,-32.93862 -50.16137,-50.13129 -19.7497,-13.96968 -31.67678,17.07386 -23.51414,32.47264 3.71706,22.74826 5.33255,46.15038 18.05811,66.09587 8.02302,17.08842 14.30411,35.44546 30.75397,46.39656 17.55695,18.24305 41.41598,32.12839 48.08468,58.2128 9.50136,28.24558 17.93089,58.59977 9.48352,88.04838 -4.87739,18.17865 -16.77782,41.26057 -35.85976,45.52207 -14.3269,3.05689 -28.55554,12.15218 -43.04671,4.73821 -20.69563,-0.69055 -24.71585,-28.82693 -21.37006,-45.54994 3.84172,-27.94914 12.22677,-55.20547 25.9173,-79.92312 -2.57045,-12.28799 -4.12686,-25.32698 -18.32217,-29.00553 -17.51865,-8.15129 -36.44764,-25.39809 -56.64898,-19.25115 -23.05796,1.33585 -24.1336,30.82019 -30.87682,48.15429 -4.69302,31.74183 22.11374,44.81555 45.1524,60.62365 14.25759,20.46174 -10.24693,56.81005 -34.58185,60.62664 -24.99551,9.3501 -58.25826,1.34938 -71.51816,-23.31163 -8.05627,-23.79479 -8.07156,-54.23768 5.93671,-75.17658 20.48118,-5.65416 35.11947,-28.3202 23.03699,-47.89856 -6.86781,-20.19217 -26.80966,-32.57372 -47.55913,-31.64418 -21.72119,-1.30277 -39.04516,17.313 -56.31596,28.71343 0.62497,28.02992 -1.33585,56.66952 0.90906,84.31749 9.98334,23.52586 27.8298,44.69367 27.50601,71.31052 5.76263,18.20648 -12.43768,31.58165 -19.06171,46.98399 -25.80692,23.24709 -67.26049,32.84486 -100.57839,22.19302 z" style="fill:#00a1e7"/>
      </g>
      <g transform="matrix(0.177337, 0, 0, 0.04583, 3.383705, 10.179153)">
        <title id="title4139">Splat 5</title>
        <path id="path-21" d="m 232.64636,411.72827 c -3.10565,-1.79276 -6.8398,-4.17346 -8.29812,-5.29047 l -2.65149,-2.03093 3.54626,-9.85315 3.54627,-9.85314 -3.15855,-3.95303 -3.15856,-3.95304 -3.55314,5.10487 c -4.79534,6.88953 -13.16884,11.35613 -18.5091,9.87313 -3.01511,-0.83731 -3.76322,-1.6205 -4.62593,-4.84281 -0.91446,-3.41562 -0.58533,-5.04724 2.95361,-14.64184 l 3.98276,-10.79788 -3.1754,-3.97412 c -1.74648,-2.18576 -3.65118,-3.79909 -4.23268,-3.58519 -0.5815,0.21391 -4.21,1.41491 -8.06332,2.66892 -3.85333,1.25399 -7.50273,2.79246 -8.10979,3.41883 -0.60706,0.62637 -2.34993,5.66866 -3.87304,11.2051 -1.52312,5.53645 -3.59633,11.70779 -4.60712,13.71408 -1.98451,3.93897 -3.70132,4.85372 -18.9001,10.07038 l -8.46675,2.90603 -6.80324,-2.61463 c -8.43477,-3.24167 -13.24405,-8.52396 -14.30796,-15.7152 -0.61285,-4.14244 -0.32226,-5.38451 2.35515,-10.06627 1.67984,-2.93743 6.04144,-8.28516 9.69242,-11.88385 3.651,-3.59869 7.7638,-8.74948 9.13954,-11.44619 2.53533,-4.96968 2.53957,-5.18109 0.27827,-13.86299 l -0.95503,-3.66668 -9.08093,2.3239 c -4.99451,1.27814 -9.20249,2.47518 -9.35106,2.66007 -0.14857,0.18489 -3.0009,4.45211 -6.33851,9.48273 -3.33759,5.0306 -8.27731,11.00663 -10.97714,13.28008 l -4.90878,4.13353 -6.679856,-4.09196 c -5.85081,-3.58411 -6.81218,-4.60766 -7.74591,-8.24696 -0.586316,-2.28524 -1.262035,-4.84401 -1.501612,-5.68614 -0.293132,-1.03041 3.139002,-4.10501 10.494482,-9.40126 6.011546,-4.32855 12.098936,-9.56645 13.527516,-11.63977 l 2.59744,-3.76969 -1.54944,-7.4082 c -0.85219,-4.0745 -1.64988,-7.49128 -1.77265,-7.59284 -0.12276,-0.10155 -2.116,-1.14453 -4.42942,-2.31773 l -4.20619,-2.1331 -12.808476,3.06023 c -7.044646,1.68313 -17.836954,4.63889 -23.982896,6.56835 l -11.174441,3.50812 -10.551343,-2.65915 -10.551344,-2.65914 -1.571503,-4.7586 c -1.496048,-4.53012 -1.465995,-5.03589 0.625914,-10.53388 l 2.197417,-5.77527 12.804724,-6.45342 c 13.029047,-6.56646 23.798116,-12.97281 25.126006,-14.94706 0.404416,-0.60128 1.668821,-3.89148 2.809789,-7.31155 l 2.074486,-6.21833 -2.079484,-4.0996 -2.079484,-4.0996 -9.738072,-0.006 c -5.35594,-0.003 -13.430876,-0.29517 -17.944303,-0.64857 l -8.206232,-0.64253 -1.552181,-3.90163 c -0.8537,-2.14588 -1.552182,-4.07172 -1.552182,-4.27962 0,-0.2079 2.139344,-1.75346 4.754098,-3.43458 3.226007,-2.07411 9.241664,-4.19108 18.715513,-6.5862 18.259984,-4.61635 19.115733,-5.61356 15.192316,-17.7036 -0.761114,-2.34539 -1.945749,-3.70816 -3.631726,-4.17783 -1.376186,-0.38338 -11.640463,-0.74221 -22.809503,-0.79739 -17.926632,-0.0886 -20.748891,-0.3269 -24.073695,-2.03285 -7.182219,-3.6852 -7.661322,-10.62312 -1.378465,-19.96163 1.955555,-2.90663 3.606861,-5.28479 3.669568,-5.28479 0.0627,0 5.794781,-2.20772 12.737943,-4.90607 12.44237,-4.83549 12.837787,-4.91641 27.493571,-5.62634 14.555486,-0.70505 15.007088,-0.79593 21.37525,-4.30153 3.578079,-1.96969 6.657849,-3.70553 6.843919,-3.85744 0.18607,-0.15189 0.0185,-3.27982 -0.3724,-6.95093 l -0.71072,-6.67473 -10.136652,-5.10829 c -13.865535,-6.98746 -18.643993,-10.53952 -18.643993,-13.85898 0,-2.29121 1.087425,-3.16732 8.553865,-6.89162 l 8.553865,-4.26672 11.731945,2.01321 c 6.45258,1.10725 17.216796,3.62999 23.920476,5.60609 11.50679,3.39195 12.35553,3.50605 15.17449,2.03991 l 2.98598,-1.55299 -2.49935,-5.82589 c -1.62513,-3.78811 -3.66331,-6.62805 -5.82703,-8.11918 -2.73204,-1.88281 -3.61946,-3.4616 -4.95784,-8.820363 l -1.63015,-6.527075 2.72332,-3.591011 2.72331,-3.591011 6.05526,0.684144 c 4.50232,0.508689 8.36545,1.93813 15.06304,5.573633 4.95427,2.689224 12.78983,6.49265 17.41234,8.45205 8.10592,3.435976 8.50347,3.503826 11.18708,1.909444 2.31981,-1.378244 2.96691,-2.718204 3.89151,-8.058321 1.04167,-6.016147 0.91956,-6.999127 -2.01055,-16.183804 -3.1657,-9.923197 -4.03492,-17.900625 -2.66892,-24.494666 0.67875,-3.27652 1.31555,-3.859005 6.32773,-5.788105 4.18342,-1.61013 7.80099,-2.144951 14.50839,-2.144951 8.82564,0 9.06731,0.06704 19.67799,5.45471 9.08609,4.613603 11.97727,6.720514 18.7495,13.663512 11.03457,11.312806 15.00843,14.397322 17.51688,13.59658 3.23781,-1.033554 5.70774,-7.31703 6.92734,-17.623088 1.95564,-16.525795 1.64044,-15.748185 6.92626,-17.088388 4.62227,-1.171956 4.68392,-1.154118 7.49816,2.169089 8.28109,9.778808 9.85818,12.152324 12.96031,19.50529 3.0731,7.284154 3.81542,8.246178 8.24825,10.689623 l 4.87122,2.685097 5.05815,-2.554537 c 2.78199,-1.404989 5.15998,-2.640201 5.28444,-2.744911 0.12447,-0.104709 1.38034,-5.558825 2.79083,-12.120262 1.41051,-6.561425 3.33543,-13.260015 4.2776,-14.885747 0.94217,-1.625723 3.91292,-4.082778 6.60163,-5.460116 l 4.8886,-2.504245 7.27645,2.669151 7.27647,2.669162 2.0853,8.740894 c 1.33113,5.579623 2.47581,15.453707 3.16503,27.301736 1.15584,19.869433 0.85697,18.909923 7.03831,22.596617 2.54905,1.520312 2.75745,1.403662 13.37609,-7.487236 5.93269,-4.967373 11.17385,-9.272243 11.64702,-9.566359 0.47319,-0.294127 6.7855,-2.321835 14.02737,-4.506025 l 13.16703,-3.971244 7.83603,2.012237 c 4.30981,1.106737 10.50836,3.177871 13.77455,4.60254 l 5.93853,2.590303 0.70211,6.59392 0.7021,6.59393 -8.32858,8.420303 c -7.16525,7.24414 -9.31034,8.78626 -15.35725,11.04037 -3.86577,1.44106 -11.61332,5.38123 -17.21678,8.75598 -10.8435,6.53058 -10.71379,6.30282 -6.57979,11.55339 l 1.805,2.29254 25.99742,-2.07754 c 21.31057,-1.70298 27.61466,-1.88103 34.96815,-0.98759 4.93391,0.59946 9.07096,1.19072 9.19345,1.3139 0.12249,0.1232 1.61221,3.8393 3.3105,8.25803 l 3.08782,8.03404 -4.13429,9.23105 -4.13429,9.23107 -10.64912,4.62127 c -5.85702,2.5417 -16.72937,6.35946 -24.16077,8.48391 l -13.51165,3.86264 -0.83942,5.26429 c -0.46167,2.89537 -0.64715,5.45765 -0.41216,5.694 0.23498,0.23634 13.1436,1.34428 28.6858,2.46211 l 28.25856,2.0324 6.9336,3.51181 c 3.81347,1.93149 6.93421,3.61936 6.93496,3.75081 7.5e-4,0.13146 0.67571,4.08935 1.49992,8.79533 0.82421,4.70599 1.49918,8.66452 1.49993,8.79675 7.5e-4,0.13224 -3.60121,2.0622 -8.00435,4.2888 l -8.00572,4.04838 -13.26261,-2.01657 c -7.29445,-1.10912 -14.70463,-2.26277 -16.46708,-2.5637 -3.07181,-0.52447 -3.25036,-0.3685 -4.31325,3.76754 -0.60982,2.37306 -1.29886,4.99413 -1.53118,5.8246 -0.27204,0.97243 1.61966,2.83226 5.3141,5.22454 5.20752,3.37206 6.89017,3.86448 18.2473,5.33995 l 12.51078,1.62537 4.83418,4.72631 4.83418,4.72631 -0.65783,6.03363 c -0.36181,3.31852 -0.74065,6.11694 -0.84187,6.21873 -0.10121,0.10181 -4.37659,0.91671 -9.50083,1.8109 l -9.3168,1.6258 -14.82692,-4.10011 c -13.42179,-3.71154 -15.278,-3.99843 -19.58666,-3.02728 -2.61785,0.59005 -6.45061,2.29526 -8.51726,3.78935 l -3.75754,2.71653 3.01381,4.22081 c 3.48527,4.88112 21.84617,20.6961 29.55219,25.45448 l 5.25453,3.24463 0,7.32715 0,7.32715 -9.56629,3.63787 -9.5663,3.63786 -11.70204,-5.88784 c -10.62961,-5.34827 -12.49313,-5.95325 -20.33405,-6.6014 l -8.632,-0.71353 -0.70062,4.69891 c -0.61545,4.12776 -0.35867,5.20804 2.11264,8.88782 1.5473,2.30391 5.68263,6.99451 9.18966,10.42356 l 6.37639,6.23463 -0.70441,7.05459 -0.70441,7.0546 -4.82113,1.61054 -4.82113,1.61054 -11.34616,-5.72628 c -6.24039,-3.14944 -17.12999,-8.37226 -24.19912,-11.60625 -12.69846,-5.80929 -12.89095,-5.86055 -16.0138,-4.26398 -1.73847,0.88878 -3.29773,1.73377 -3.46502,1.87776 -1.02931,0.88588 5.44731,13.48621 10.18834,19.82152 l 5.6292,7.52212 -0.011,7.9634 c -0.0179,12.94958 -0.68636,15.31646 -4.9423,17.50019 -2.02074,1.03684 -6.4854,2.61786 -9.92145,3.51335 l -6.24736,1.62818 -5.89251,-3.60012 c -5.35426,-3.27128 -6.02854,-4.07959 -7.38173,-8.8491 -3.76783,-13.28026 -4.57266,-16.69969 -5.19314,-22.0638 -0.40435,-3.49559 -1.53403,-6.92773 -2.88762,-8.77297 l -2.22343,-3.03106 -3.60687,3.73984 c -3.45157,3.57882 -3.6561,4.19468 -4.75009,14.30307 -0.62877,5.80977 -0.87018,12.39449 -0.53646,14.63269 0.59785,4.00971 0.52379,4.13072 -5.04475,8.24213 l -5.65151,4.17267 -5.36161,-2.64472 -5.36161,-2.64471 -0.27585,-14.5554 -0.27584,-14.55538 -4.25682,-1.81698 -4.25683,-1.81697 -1.48033,3.56332 c -0.88659,2.13411 -1.87718,9.89024 -2.46975,19.33764 -0.54419,8.67587 -1.27615,16.77752 -1.62659,18.00366 -0.35044,1.22613 -2.76757,3.60429 -5.3714,5.28479 -4.1121,2.65393 -5.64342,3.05387 -11.65266,3.04345 -5.95811,-0.0104 -7.70219,-0.46445 -12.56503,-3.27153 z m 147.87103,-15.5212 c -2.51746,-7.57438 -4.44419,-13.90538 -4.28162,-14.0689 0.37465,-0.37679 9.46127,3.05741 16.84087,6.36484 5.37236,2.4078 5.68767,2.75299 6.30657,6.90385 0.52812,3.542 0.1648,5.33526 -1.91872,9.47057 -2.56145,5.08388 -2.58685,5.10124 -7.47004,5.10124 l -4.89986,0 -4.5772,-13.7716 z M 35.868459,362.44525 c -1.864446,-0.90438 -2.251942,-1.91089 -2.251942,-5.84937 0,-4.49478 0.289942,-5.00615 5.259316,-9.27607 2.892623,-2.48549 9.819263,-6.82052 15.392533,-9.63343 8.33851,-4.20855 10.422452,-4.90069 11.766279,-3.9079 1.459061,1.07793 1.138887,1.95726 -3.004938,8.25286 -6.133357,9.31825 -12.824927,16.22121 -18.620641,19.20891 -5.270571,2.71696 -5.38905,2.73368 -8.540607,1.205 z M 99.366954,70.013015 c -8.77122,-3.225223 -10.28426,-4.161699 -14.231019,-8.808037 -4.210562,-4.956893 -4.368947,-5.371643 -3.399678,-8.902256 0.938278,-3.41773 1.302277,-3.702596 4.722821,-3.696072 3.015686,0.006 5.104736,1.125681 11.212666,6.011043 6.004906,4.802949 8.041696,7.167525 10.182186,11.82079 2.91876,6.345222 3.21037,7.363174 2.07838,7.255112 -0.41286,-0.03936 -5.16727,-1.695674 -10.565356,-3.68058 z M 367.90472,51.13588 c 0,-0.331321 0.48709,-4.995809 1.08242,-10.36554 l 1.08243,-9.763143 5.49154,-6.750964 c 4.67604,-5.748434 6.24934,-6.974385 10.5945,-8.255459 4.54457,-1.33988 5.42474,-1.337132 8.04385,0.02506 2.87527,1.495425 2.9256,1.656928 2.2555,7.237044 -0.60095,5.004133 -1.26145,6.307897 -5.35984,10.579719 -5.34465,5.570814 -23.1904,18.878554 -23.1904,17.293287 z" style="fill:#21b04b"/>
      </g>
      <g transform="matrix(0.10628, -0.100426, 0, 0.057848, 26.881693, 32.418304)">
        <title id="bx-title-1">Splat 6</title>
        <path id="path-22" d="m 182.69251,247.06551 c -11.06934,-7.77662 9.51467,-25.55857 -2.16612,-34.02339 -20.63268,-13.07165 -8.32406,24.68018 -22.94135,25.83276 -22.29225,-1.91107 5.56217,-32.89415 -15.63553,-30.97253 -6.09142,9.50585 -11.17374,30.6977 -27.68359,21.15832 -12.2749,-8.87642 16.85262,-32.19065 -4.06996,-30.85638 -13.52264,3.81944 -22.993841,14.51819 -32.440649,24.22549 -6.338085,3.9894 -15.955597,11.97413 -23.382555,6.93021 -13.79458,-4.54113 -7.100579,-23.73434 3.300948,-28.25372 12.94313,-6.96966 27.459432,-13.21672 36.272209,-25.61013 0.0564,-13.79737 -21.845296,-1.02539 -26.275986,6.42574 -7.844724,9.55618 -23.647285,-7.71085 -7.868123,-11.01804 14.727831,-12.42246 -10.986549,-3.35654 -15.52939,2.18223 C 33.94802,182.13016 17.119402,176.05355 15,162.50525 c 2.734275,-15.77888 24.220677,-11.21338 35.757889,-15.40442 13.057267,0.40729 11.514548,-18.4687 -1.610683,-11.95121 -11.551433,1.26141 -28.797687,14.84318 -26.776544,-6.11168 2.827039,-13.3134 23.315202,-10.46608 33.803973,-15.89388 C 77.759943,108.01554 43.815162,102.29537 37.987971,97.329769 24.26813,84.866275 46.441798,66.18105 59.529648,74.333403 71.857476,77.60278 81.819992,85.695074 91.767144,93.314849 105.52364,86.55431 85.345355,76.608586 80.250146,71.115464 67.20919,58.395263 91.907286,36.430216 99.444614,54.82706 106.08307,63.222183 100.85248,89.323522 117.15961,81.898121 130.6251,72.303 112.57212,54.025418 108.34783,42.84438 107.43209,28.517286 127.68332,17.178617 137.4091,30.506456 c 10.50905,11.30291 -6.58876,28.362836 3.58369,40.666204 16.7491,3.200196 25.91601,-12.59629 22.00001,-27.609161 -4.55953,-15.179688 8.4575,-32.017765 24.33579,-27.946221 5.77819,2.677326 10.6941,12.612887 7.77281,18.919435 -2.59312,8.796593 -15.302,31.662553 1.4086,31.064038 15.73738,-2.311205 19.99052,-18.75875 28.97722,-29.239048 10.87437,-14.661535 28.81471,7.409792 15.5639,17.807369 -7.47576,10.102402 -26.43655,13.423503 -26.39388,27.796417 9.12666,7.954757 23.67349,-22.632479 23.64483,-1.640847 -10.04633,8.564809 -9.3655,12.815611 3.95327,10.997963 5.61215,0.878575 10.38344,-0.393488 13.75919,-5.234801 14.41556,-12.704504 27.70685,-31.041213 48.62327,-30.99404 8.02351,-0.09361 21.46231,6.765561 17.76374,15.539083 -5.81963,9.34528 -13.00348,17.04965 -24.65168,18.065616 -14.62306,3.824376 -28.52322,9.907283 -41.11135,18.367897 -3.44074,17.17219 22.21838,6.12573 28.81384,-0.55539 13.06208,-7.850397 28.36847,-10.265079 42.85599,-14.16604 4.87217,4.642013 8.84043,9.94247 2.10781,14.6782 -2.30032,6.00176 -8.39609,4.68895 -13.57932,5.1348 -5.02171,0.73051 -10.97429,-0.24186 -15.40854,1.5633 -11.76222,13.33078 15.4924,2.88588 22.78353,5.75926 12.76282,2.0259 33.15241,-1.76865 38.95688,12.90375 4.92701,6.24625 -0.88066,16.10771 -8.02443,16.81106 -6.57375,1.82328 -13.09509,4.7688 -19.92526,2.35363 -12.55699,-1.70618 -25.05689,-4.26601 -36.80231,-9.1743 -16.52907,7.28723 7.60633,11.05832 15.0694,15.01554 8.91017,-1.14368 14.01764,15.21111 6.31037,17.64878 -13.52795,4.71265 -27.30632,-1.47602 -40.42898,-4.8963 -7.78478,2.54021 -11.20229,6.03044 -1.02583,9.72475 11.20888,2.40582 20.63686,15.51942 4.82121,19.33286 -7.30501,4.372 -14.64913,-5.76626 -22.52131,-1.93697 8.19513,10.48117 28.52334,6.40827 37.30134,18.76201 0.72534,7.98624 -8.03336,17.72741 -16.12074,15.62524 -14.12576,-0.77622 -25.79919,-9.46222 -35.05236,-19.6762 -3.60059,-4.38816 -7.34525,-7.98065 -12.54534,-3.53494 -7.37216,4.58883 4.13118,18.64521 9.44071,22.77138 11.55779,14.25747 -13.48381,17.47891 -21.90244,12.49326 -3.02843,-7.84298 -5.39322,-16.01103 -9.37386,-23.42672 -16.01736,-10.86902 -16.74835,11.46774 -16.74319,22.11114 2.66813,11.11525 -6.02733,7.59881 -12.95317,4.67705 z" style="fill:#ec1b23"/>
      </g>
    </pattern>
    <pattern id="pattern-0-0" patternTransform="matrix(30.281264, 3.41585, 0.824101, -5.242741, 87.214722, 207.381058)" xlink:href="#pattern-0"/>
  </defs>
  <g transform="matrix(0.281621, -0.09379, 0, 0.335958, 242.720749, 782.223389)">
    <g id="layer1" transform="translate(-172.39 -240.81)">
      <g id="g3019">
        <path id="path6074" d="M 217.273 624.231 C 240.909 703.792 161.19 416.722 177.021 388.707 C 192.852 360.692 211.796 375.272 211.796 375.272 C 211.796 375.272 198.019 321.718 223.498 307.921 C 248.977 294.124 253.923 309.865 253.923 309.865 C 253.923 309.865 259.568 252.015 265.838 242.28 C 272.108 232.545 232.204 104.212 232.204 104.212 C 232.204 104.212 240.383 36.013 266.306 38.048 C 292.229 40.083 286.568 -5.138 286.568 -5.138 C 286.568 -5.138 299.913 -7.135 307.577 -19.032 C 315.24 -30.929 305.681 -18.94 305.681 -18.94 C 305.681 -18.94 277.388 4.578 283.636 -7.748 C 289.884 -20.074 310.35 -26.922 310.35 -26.922 C 310.35 -26.922 308.776 -27.29 290.697 -47.212 C 272.618 -67.134 260.811 -79.443 260.811 -79.443 C 260.811 -79.443 296.041 -46.462 240.598 -100.903 C 200.721 -140.06 84.931 -117.231 86.822 -73.225 C 89.944 -0.581 211.153 59.984 100.907 147.385 C 54.641 184.064 97.335 325.643 97.335 325.643 C 97.335 325.643 185.334 516.725 217.273 624.231 Z" style="opacity: 0.80233; stroke: rgb(0, 0, 0); stroke-width: 1px; fill: url(#pattern-0-0);" transform="matrix(1, -0.000001, 0.000001, 1, -0.000037, 0.000223)"/>
      </g>
    </g>
  </g>
</svg>