<?xml version="1.0" encoding="utf-8"?>
<svg class="shirt" width="86" height="380" viewBox="202.715 584.407 86.5933 380.048" preserveAspectRatio="xMidYMax" xmlns="http://www.w3.org/2000/svg" xmlns:xlink="http://www.w3.org/1999/xlink">
  <defs id="svgEditorDefs">
    <path id="svgEditorClosePathDefs" fill="red" style="stroke-width: 0px; stroke: none;"/>
    <pattern id="pattern-0" x="0" y="0" width="20" height="20" patternUnits="userSpaceOnUse" viewBox="0 0 100 100">
      <rect x="1.656" y="0.709" width="92.388" height="17.189" style="fill: rgb(0, 243, 255);" transform="matrix(0.983668, 0.179993, 0, 1.016603, 0, 67.818124)"/>
      <g transform="matrix(1, 0, 0, 0.72902, -203.388809, -535.340942)">
        <polygon style="stroke: rgb(0, 0, 0); fill: rgb(102, 106, 155);" points="217.57 786.191 249.138 870.371 286.276 782.478 281.943 774.431 247.9 843.137"/>
        <polygon style="stroke: rgb(0, 0, 0); fill: rgb(102, 106, 155);" points="218.189 775.669 226.855 791.762 246.043 821.473 275.754 768.241 266.469 750.291 242.948 798.571"/>
        <polygon style="stroke: rgb(0, 0, 0); fill: url(#gradient-3);" points="218.808 762.671 227.474 752.148 242.948 773.812 263.993 745.958 242.329 788.048"/>
      </g>
      <g transform="matrix(0.207456, 0.978246, -0.71316, 0.151239, 592.816895, -315.737122)">
        <polygon style="stroke: rgb(0, 0, 0); fill: url(#gradient-0);" points="217.57 786.191 249.138 870.371 286.276 782.478 281.943 774.431 248.152 843.668"/>
        <polygon style="stroke: rgb(0, 0, 0); fill: url(#gradient-1);" points="218.189 775.669 226.855 791.762 246.043 821.473 275.754 768.241 266.469 750.291 242.948 798.571"/>
        <polygon style="stroke: rgb(0, 0, 0); fill: url(#gradient-2);" points="218.808 762.671 227.474 752.148 242.948 773.812 263.993 745.958 242.329 788.048"/>
      </g>
      <rect x="0.451" y="0.709" width="25.166" height="17.189" style="fill: rgb(0, 243, 255);" transform="matrix(0.983668, 0.179993, 0, 1.016603, 6.071112, 11.462198)"/>
    </pattern>
    <pattern id="pattern-0-0" patternTransform="matrix(0.984213, -0.284311, 0.377823, 1.307941, 240.469086, 836.304993)" xlink:href="#pattern-0"/>
    <pattern id="pattern-2" x="0" y="0" width="20" height="20" patternUnits="userSpaceOnUse" viewBox="0 0 100 100">
      <path d="M 0 0 L 50 0 L 50 100 L 0 100 Z" style="fill: black;"/>
    </pattern>
    <linearGradient id="gradient-0" gradientUnits="userSpaceOnUse" x1="251.923" y1="774.431" x2="251.923" y2="870.371" gradientTransform="matrix(0.983989, -0.244476, 0.310236, 2.349464, -265.986783, -1112.945446)">
      <stop offset="0" style="stop-color: rgba(155, 102, 136, 1)"/>
      <stop offset="1" style="stop-color: rgb(255, 247, 0);"/>
    </linearGradient>
    <linearGradient id="gradient-1" gradientUnits="userSpaceOnUse" x1="246.971" y1="750.291" x2="246.971" y2="821.473">
      <stop offset="0" style="stop-color: rgba(155, 102, 136, 1)"/>
      <stop offset="1" style="stop-color: rgba(94, 61, 82, 1)"/>
    </linearGradient>
    <linearGradient id="gradient-2" gradientUnits="userSpaceOnUse" x1="241.401" y1="745.958" x2="241.401" y2="788.048">
      <stop offset="0" style="stop-color: rgba(155, 102, 136, 1)"/>
      <stop offset="1" style="stop-color: rgba(94, 61, 82, 1)"/>
    </linearGradient>
    <linearGradient id="gradient-3" gradientUnits="userSpaceOnUse" x1="241.401" y1="745.958" x2="241.401" y2="788.048">
      <stop offset="0" style="stop-color: rgba(102, 106, 155, 1)"/>
      <stop offset="0.716" style="stop-color: rgb(255, 243, 0);"/>
      <stop offset="1" style="stop-color: rgba(61, 64, 94, 1)"/>
    </linearGradient>
  </defs>
  <path d="M 241.71 870.821 C 244.837 870.821 244.449 889.755 244.186 891.198 C 241.55 905.663 248.961 927.587 251.614 942.142 C 252.045 944.506 253.651 955.486 255.328 956.406 C 256.223 956.897 261.153 950.832 264.612 948.935 C 272.124 944.813 276.423 932.523 280.705 923.123 C 282.099 920.063 288.133 914.13 288.133 910.896 C 288.133 885.974 249.757 876.4 249.757 851.802" style="stroke: rgb(0, 0, 0); fill: rgb(90, 250, 250);"/>
  <path d="M 261.517 938.745 C 261.517 930.755 256.565 917.017 256.565 909.538" style="stroke: rgb(0, 0, 0); fill: rgb(90, 250, 250);"/>
  <path d="M 272.659 924.482 C 272.659 918.413 265.564 887.802 261.517 887.802" style="stroke: rgb(0, 0, 0); fill: rgb(90, 250, 250);"/>
  <path d="M 281.943 911.576 C 282.132 911.576 275.688 884.406 268.945 884.406" style="stroke: rgb(0, 0, 0); fill: rgb(90, 250, 250);"/>
  <polygon style="stroke: rgb(0, 0, 0); fill: url(#pattern-0-0);" points="226.855 750.91 216.951 765.146 216.951 805.998 248.519 892.655 250.995 884.608 261.518 896.368 255.946 883.37 268.326 882.131 258.422 875.942 274.516 874.085 260.279 870.99 259.66 862.325 286.895 786.81 283.181 776.288 265.231 754.624"/>
  <g transform="matrix(0.144426, -0.001733, 0, 0.06893, 201.477066, 652.760864)">
    <path style="color:#000000;clip-rule:nonzero;display:inline;overflow:visible;visibility:visible;opacity:1;isolation:auto;mix-blend-mode:normal;color-interpolation:sRGB;color-interpolation-filters:linearRGB;solid-color:#000000;solid-opacity:1;fill:#9f00fd;fill-opacity:1;fill-rule:nonzero;stroke:none;stroke-width:1;stroke-linecap:butt;stroke-linejoin:miter;stroke-miterlimit:4;stroke-dasharray:none;stroke-dashoffset:0;stroke-opacity:1;marker:none;color-rendering:auto;image-rendering:auto;shape-rendering:auto;text-rendering:auto;enable-background:accumulate" d="m 251.6129032258064,362.8566825327409 -48.3870967741935,83.8089100436554 -9.6774193548387,20.9522275109137 9.6774193548387,20.9522275109139 96.7741935483871,0 9.6774193548387,-20.9522275109138 -9.6774193548387,-20.9522275109138 z" id="path-1"/>
    <path id="path-2" d="m 348.3870967741935,362.8566825327409 -48.3870967741935,83.8089100436554 -9.6774193548387,20.9522275109137 9.6774193548387,20.9522275109138 96.7741935483871,0 9.6774193548387,-20.9522275109138 -9.6774193548387,-20.9522275109138 z" style="color:#000000;clip-rule:nonzero;display:inline;overflow:visible;visibility:visible;opacity:1;isolation:auto;mix-blend-mode:normal;color-interpolation:sRGB;color-interpolation-filters:linearRGB;solid-color:#000000;solid-opacity:1;fill:#e90056;fill-opacity:1;fill-rule:nonzero;stroke:none;stroke-width:1;stroke-linecap:butt;stroke-linejoin:miter;stroke-miterlimit:4;stroke-dasharray:none;stroke-dashoffset:0;stroke-opacity:1;marker:none;color-rendering:auto;image-rendering:auto;shape-rendering:auto;text-rendering:auto;enable-background:accumulate"/>
    <path id="path-3" d="m 445.1612903225806,362.8566825327409 -48.3870967741935,83.8089100436554 -9.6774193548387,20.9522275109137 9.6774193548387,20.9522275109138 96.7741935483873,0 9.6774193548388,-20.9522275109138 -9.6774193548388,-20.9522275109138 z" style="color:#000000;clip-rule:nonzero;display:inline;overflow:visible;visibility:visible;opacity:1;isolation:auto;mix-blend-mode:normal;color-interpolation:sRGB;color-interpolation-filters:linearRGB;solid-color:#000000;solid-opacity:1;fill:#00e9cf;fill-opacity:1;fill-rule:nonzero;stroke:none;stroke-width:1;stroke-linecap:butt;stroke-linejoin:miter;stroke-miterlimit:4;stroke-dasharray:none;stroke-dashoffset:0;stroke-opacity:1;marker:none;color-rendering:auto;image-rendering:auto;shape-rendering:auto;text-rendering:auto;enable-background:accumulate"/>
    <path id="path-5" d="m 203.2258064516129,488.5700475982239 -48.3870967741936,-83.8089100436553 -9.6774193548387,-20.9522275109137 9.6774193548387,-20.9522275109127 96.7741935483871,0 9.6774193548387,20.9522275109127 -9.6774193548387,20.9522275109137 z" style="color:#000000;clip-rule:nonzero;display:inline;overflow:visible;visibility:visible;opacity:1;isolation:auto;mix-blend-mode:normal;color-interpolation:sRGB;color-interpolation-filters:linearRGB;solid-color:#000000;solid-opacity:1;fill:#28ff11;fill-opacity:1;fill-rule:nonzero;stroke:none;stroke-width:1;stroke-linecap:butt;stroke-linejoin:miter;stroke-miterlimit:4;stroke-dasharray:none;stroke-dashoffset:0;stroke-opacity:1;marker:none;color-rendering:auto;image-rendering:auto;shape-rendering:auto;text-rendering:auto;enable-background:accumulate"/>
    <path style="color:#000000;clip-rule:nonzero;display:inline;overflow:visible;visibility:visible;opacity:1;isolation:auto;mix-blend-mode:normal;color-interpolation:sRGB;color-interpolation-filters:linearRGB;solid-color:#000000;solid-opacity:1;fill:#ff2054;fill-opacity:1;fill-rule:nonzero;stroke:none;stroke-width:1;stroke-linecap:butt;stroke-linejoin:miter;stroke-miterlimit:4;stroke-dasharray:none;stroke-dashoffset:0;stroke-opacity:1;marker:none;color-rendering:auto;image-rendering:auto;shape-rendering:auto;text-rendering:auto;enable-background:accumulate" d="m 300,488.5700475982239 -48.3870967741936,-83.8089100436553 -9.6774193548387,-20.9522275109137 9.6774193548387,-20.9522275109128 96.7741935483871,0 9.6774193548388,20.9522275109128 -9.6774193548388,20.9522275109137 z" id="path-6"/>
    <path style="color:#000000;clip-rule:nonzero;display:inline;overflow:visible;visibility:visible;opacity:1;isolation:auto;mix-blend-mode:normal;color-interpolation:sRGB;color-interpolation-filters:linearRGB;solid-color:#000000;solid-opacity:1;fill:#ffda48;fill-opacity:1;fill-rule:nonzero;stroke:none;stroke-width:1;stroke-linecap:butt;stroke-linejoin:miter;stroke-miterlimit:4;stroke-dasharray:none;stroke-dashoffset:0;stroke-opacity:1;marker:none;color-rendering:auto;image-rendering:auto;shape-rendering:auto;text-rendering:auto;enable-background:accumulate" d="m 396.7741935483871,488.5700475982239 -48.3870967741936,-83.8089100436553 -9.6774193548387,-20.9522275109137 9.6774193548387,-20.9522275109127 96.7741935483871,0 9.6774193548387,20.9522275109127 -9.6774193548387,20.9522275109137 z" id="path-7"/>
    <path id="path-8" d="m 493.5483870967742,488.5700475982239 -48.3870967741936,-83.8089100436553 -9.6774193548387,-20.9522275109137 9.6774193548387,-20.9522275109127 96.7741935483872,0 9.6774193548385,20.9522275109127 -9.6774193548385,20.9522275109137 z" style="color:#000000;clip-rule:nonzero;display:inline;overflow:visible;visibility:visible;opacity:1;isolation:auto;mix-blend-mode:normal;color-interpolation:sRGB;color-interpolation-filters:linearRGB;solid-color:#000000;solid-opacity:1;fill:#46e300;fill-opacity:1;fill-rule:nonzero;stroke:none;stroke-width:1;stroke-linecap:butt;stroke-linejoin:miter;stroke-miterlimit:4;stroke-dasharray:none;stroke-dashoffset:0;stroke-opacity:1;marker:none;color-rendering:auto;image-rendering:auto;shape-rendering:auto;text-rendering:auto;enable-background:accumulate"/>
    <path id="path-9" d="m 203.2258064516129,279.0477724890858 -48.3870967741936,83.8089100436553 -9.6774193548387,20.9522275109137 9.6774193548387,20.9522275109139 96.7741935483871,0 9.6774193548387,-20.9522275109139 -9.6774193548387,-20.9522275109152 z" style="color:#000000;clip-rule:nonzero;display:inline;overflow:visible;visibility:visible;opacity:1;isolation:auto;mix-blend-mode:normal;color-interpolation:sRGB;color-interpolation-filters:linearRGB;solid-color:#000000;solid-opacity:1;fill:#e43a00;fill-opacity:1;fill-rule:nonzero;stroke:none;stroke-width:1;stroke-linecap:butt;stroke-linejoin:miter;stroke-miterlimit:4;stroke-dasharray:none;stroke-dashoffset:0;stroke-opacity:1;marker:none;color-rendering:auto;image-rendering:auto;shape-rendering:auto;text-rendering:auto;enable-background:accumulate"/>
    <path style="color:#000000;clip-rule:nonzero;display:inline;overflow:visible;visibility:visible;opacity:1;isolation:auto;mix-blend-mode:normal;color-interpolation:sRGB;color-interpolation-filters:linearRGB;solid-color:#000000;solid-opacity:1;fill:#ff3ad6;fill-opacity:1;fill-rule:nonzero;stroke:none;stroke-width:1;stroke-linecap:butt;stroke-linejoin:miter;stroke-miterlimit:4;stroke-dasharray:none;stroke-dashoffset:0;stroke-opacity:1;marker:none;color-rendering:auto;image-rendering:auto;shape-rendering:auto;text-rendering:auto;enable-background:accumulate" d="m 300,279.0477724890858 -48.3870967741936,83.8089100436553 -9.6774193548387,20.9522275109137 9.6774193548387,20.9522275109139 96.7741935483871,0 9.6774193548388,-20.9522275109139 -9.6774193548388,-20.9522275109137 z" id="path-10"/>
    <path style="color:#000000;clip-rule:nonzero;display:inline;overflow:visible;visibility:visible;opacity:1;isolation:auto;mix-blend-mode:normal;color-interpolation:sRGB;color-interpolation-filters:linearRGB;solid-color:#000000;solid-opacity:1;fill:#00fe81;fill-opacity:1;fill-rule:nonzero;stroke:none;stroke-width:1;stroke-linecap:butt;stroke-linejoin:miter;stroke-miterlimit:4;stroke-dasharray:none;stroke-dashoffset:0;stroke-opacity:1;marker:none;color-rendering:auto;image-rendering:auto;shape-rendering:auto;text-rendering:auto;enable-background:accumulate" d="m 396.7741935483871,279.0477724890858 -48.3870967741936,83.8089100436553 -9.6774193548387,20.9522275109137 9.6774193548387,20.9522275109139 96.7741935483871,0 9.6774193548387,-20.9522275109139 -9.6774193548387,-20.9522275109137 z" id="path-11"/>
    <path id="path-12" d="m 493.5483870967742,279.0477724890858 -48.3870967741936,83.8089100436553 -9.6774193548387,20.9522275109137 9.6774193548387,20.9522275109139 96.7741935483872,0 9.6774193548385,-20.9522275109139 -9.6774193548385,-20.9522275109137 z" style="color:#000000;clip-rule:nonzero;display:inline;overflow:visible;visibility:visible;opacity:1;isolation:auto;mix-blend-mode:normal;color-interpolation:sRGB;color-interpolation-filters:linearRGB;solid-color:#000000;solid-opacity:1;fill:#94d500;fill-opacity:1;fill-rule:nonzero;stroke:none;stroke-width:1;stroke-linecap:butt;stroke-linejoin:miter;stroke-miterlimit:4;stroke-dasharray:none;stroke-dashoffset:0;stroke-opacity:1;marker:none;color-rendering:auto;image-rendering:auto;shape-rendering:auto;text-rendering:auto;enable-background:accumulate"/>
    <path style="color:#000000;clip-rule:nonzero;display:inline;overflow:visible;visibility:visible;opacity:1;isolation:auto;mix-blend-mode:normal;color-interpolation:sRGB;color-interpolation-filters:linearRGB;solid-color:#000000;solid-opacity:1;fill:#ff4520;fill-opacity:1;fill-rule:nonzero;stroke:none;stroke-width:1;stroke-linecap:butt;stroke-linejoin:miter;stroke-miterlimit:4;stroke-dasharray:none;stroke-dashoffset:0;stroke-opacity:1;marker:none;color-rendering:auto;image-rendering:auto;shape-rendering:auto;text-rendering:auto;enable-background:accumulate" d="M 154.839 404.761 L 123.595 339.343 L 113.917 318.39 L 123.595 297.438 L 203.226 279.048 L 212.903 300 L 203.226 320.952 L 154.839 404.761 Z" id="path-13"/>
    <path id="path-14" d="m 251.6129032258064,404.7611375545687 -48.3870967741935,-83.8089100436553 -9.6774193548387,-20.9522275109137 9.6774193548387,-20.9522275109139 96.7741935483871,0 9.6774193548387,20.9522275109139 -9.6774193548387,20.9522275109137 z" style="color:#000000;clip-rule:nonzero;display:inline;overflow:visible;visibility:visible;opacity:1;isolation:auto;mix-blend-mode:normal;color-interpolation:sRGB;color-interpolation-filters:linearRGB;solid-color:#000000;solid-opacity:1;fill:#fdff0b;fill-opacity:1;fill-rule:nonzero;stroke:none;stroke-width:1;stroke-linecap:butt;stroke-linejoin:miter;stroke-miterlimit:4;stroke-dasharray:none;stroke-dashoffset:0;stroke-opacity:1;marker:none;color-rendering:auto;image-rendering:auto;shape-rendering:auto;text-rendering:auto;enable-background:accumulate"/>
    <path id="path-15" d="m 348.3870967741935,404.7611375545687 -48.3870967741935,-83.8089100436553 -9.6774193548387,-20.9522275109137 9.6774193548387,-20.9522275109139 96.7741935483871,0 9.6774193548387,20.9522275109139 -9.6774193548387,20.9522275109137 z" style="color:#000000;clip-rule:nonzero;display:inline;overflow:visible;visibility:visible;opacity:1;isolation:auto;mix-blend-mode:normal;color-interpolation:sRGB;color-interpolation-filters:linearRGB;solid-color:#000000;solid-opacity:1;fill:#e16c00;fill-opacity:1;fill-rule:nonzero;stroke:none;stroke-width:1;stroke-linecap:butt;stroke-linejoin:miter;stroke-miterlimit:4;stroke-dasharray:none;stroke-dashoffset:0;stroke-opacity:1;marker:none;color-rendering:auto;image-rendering:auto;shape-rendering:auto;text-rendering:auto;enable-background:accumulate"/>
    <path style="color:#000000;clip-rule:nonzero;display:inline;overflow:visible;visibility:visible;opacity:1;isolation:auto;mix-blend-mode:normal;color-interpolation:sRGB;color-interpolation-filters:linearRGB;solid-color:#000000;solid-opacity:1;fill:#8b3bff;fill-opacity:1;fill-rule:nonzero;stroke:none;stroke-width:1;stroke-linecap:butt;stroke-linejoin:miter;stroke-miterlimit:4;stroke-dasharray:none;stroke-dashoffset:0;stroke-opacity:1;marker:none;color-rendering:auto;image-rendering:auto;shape-rendering:auto;text-rendering:auto;enable-background:accumulate" d="m 445.1612903225806,404.7611375545687 -48.3870967741935,-83.8089100436553 -9.6774193548387,-20.9522275109137 9.6774193548387,-20.9522275109139 96.7741935483873,0 9.6774193548388,20.9522275109139 -9.6774193548388,20.9522275109137 z" id="path-16"/>
    <path id="path-17" d="M 154.839 195.239 L 106.452 314.967 L 96.774 335.919 L 106.452 356.871 L 203.226 320.952 L 212.903 300 L 203.226 279.048 L 154.839 195.239 Z" style="color:#000000;clip-rule:nonzero;display:inline;overflow:visible;visibility:visible;opacity:1;isolation:auto;mix-blend-mode:normal;color-interpolation:sRGB;color-interpolation-filters:linearRGB;solid-color:#000000;solid-opacity:1;fill:#db00ff;fill-opacity:1;fill-rule:nonzero;stroke:none;stroke-width:1;stroke-linecap:butt;stroke-linejoin:miter;stroke-miterlimit:4;stroke-dasharray:none;stroke-dashoffset:0;stroke-opacity:1;marker:none;color-rendering:auto;image-rendering:auto;shape-rendering:auto;text-rendering:auto;enable-background:accumulate"/>
    <path style="color:#000000;clip-rule:nonzero;display:inline;overflow:visible;visibility:visible;opacity:1;isolation:auto;mix-blend-mode:normal;color-interpolation:sRGB;color-interpolation-filters:linearRGB;solid-color:#000000;solid-opacity:1;fill:#ff7622;fill-opacity:1;fill-rule:nonzero;stroke:none;stroke-width:1;stroke-linecap:butt;stroke-linejoin:miter;stroke-miterlimit:4;stroke-dasharray:none;stroke-dashoffset:0;stroke-opacity:1;marker:none;color-rendering:auto;image-rendering:auto;shape-rendering:auto;text-rendering:auto;enable-background:accumulate" d="m 251.6129032258064,195.2388624454305 -48.3870967741935,83.8089100436554 -9.6774193548387,20.9522275109137 9.6774193548387,20.9522275109124 96.7741935483871,0 9.6774193548387,-20.9522275109124 -9.6774193548387,-20.9522275109138 z" id="path-18"/>
    <path style="color:#000000;clip-rule:nonzero;display:inline;overflow:visible;visibility:visible;opacity:1;isolation:auto;mix-blend-mode:normal;color-interpolation:sRGB;color-interpolation-filters:linearRGB;solid-color:#000000;solid-opacity:1;fill:#32ff46;fill-opacity:1;fill-rule:nonzero;stroke:none;stroke-width:1;stroke-linecap:butt;stroke-linejoin:miter;stroke-miterlimit:4;stroke-dasharray:none;stroke-dashoffset:0;stroke-opacity:1;marker:none;color-rendering:auto;image-rendering:auto;shape-rendering:auto;text-rendering:auto;enable-background:accumulate" d="m 348.3870967741935,195.2388624454305 -48.3870967741935,83.8089100436554 -9.6774193548387,20.9522275109137 9.6774193548387,20.9522275109124 96.7741935483871,0 9.6774193548387,-20.9522275109124 -9.6774193548387,-20.9522275109138 z" id="path-19"/>
    <path id="path-20" d="m 445.1612903225806,195.2388624454305 -48.3870967741935,83.8089100436554 -9.6774193548387,20.9522275109137 9.6774193548387,20.9522275109125 96.7741935483873,0 9.6774193548388,-20.9522275109125 -9.6774193548388,-20.9522275109138 z" style="color:#000000;clip-rule:nonzero;display:inline;overflow:visible;visibility:visible;opacity:1;isolation:auto;mix-blend-mode:normal;color-interpolation:sRGB;color-interpolation-filters:linearRGB;solid-color:#000000;solid-opacity:1;fill:#e93700;fill-opacity:1;fill-rule:nonzero;stroke:none;stroke-width:1;stroke-linecap:butt;stroke-linejoin:miter;stroke-miterlimit:4;stroke-dasharray:none;stroke-dashoffset:0;stroke-opacity:1;marker:none;color-rendering:auto;image-rendering:auto;shape-rendering:auto;text-rendering:auto;enable-background:accumulate"/>
    <path id="path-22" d="m 203.2258064516129,320.9522275109135 -48.3870967741936,-83.8089100436553 -9.6774193548387,-20.9522275109139 9.6774193548387,-20.9522275109138 96.7741935483871,0 9.6774193548387,20.9522275109138 -9.6774193548387,20.9522275109139 z" style="color:#000000;clip-rule:nonzero;display:inline;overflow:visible;visibility:visible;opacity:1;isolation:auto;mix-blend-mode:normal;color-interpolation:sRGB;color-interpolation-filters:linearRGB;solid-color:#000000;solid-opacity:1;fill:#6300d8;fill-opacity:1;fill-rule:nonzero;stroke:none;stroke-width:1;stroke-linecap:butt;stroke-linejoin:miter;stroke-miterlimit:4;stroke-dasharray:none;stroke-dashoffset:0;stroke-opacity:1;marker:none;color-rendering:auto;image-rendering:auto;shape-rendering:auto;text-rendering:auto;enable-background:accumulate"/>
    <path id="path-23" d="m 300,320.9522275109137 -48.3870967741936,-83.8089100436554 -9.6774193548387,-20.9522275109137 9.6774193548387,-20.9522275109138 96.7741935483871,0 9.6774193548388,20.9522275109138 -9.6774193548388,20.9522275109137 z" style="color:#000000;clip-rule:nonzero;display:inline;overflow:visible;visibility:visible;opacity:1;isolation:auto;mix-blend-mode:normal;color-interpolation:sRGB;color-interpolation-filters:linearRGB;solid-color:#000000;solid-opacity:1;fill:#ff0f0d;fill-opacity:1;fill-rule:nonzero;stroke:none;stroke-width:1;stroke-linecap:butt;stroke-linejoin:miter;stroke-miterlimit:4;stroke-dasharray:none;stroke-dashoffset:0;stroke-opacity:1;marker:none;color-rendering:auto;image-rendering:auto;shape-rendering:auto;text-rendering:auto;enable-background:accumulate"/>
    <path style="color:#000000;clip-rule:nonzero;display:inline;overflow:visible;visibility:visible;opacity:1;isolation:auto;mix-blend-mode:normal;color-interpolation:sRGB;color-interpolation-filters:linearRGB;solid-color:#000000;solid-opacity:1;fill:#001eed;fill-opacity:1;fill-rule:nonzero;stroke:none;stroke-width:1;stroke-linecap:butt;stroke-linejoin:miter;stroke-miterlimit:4;stroke-dasharray:none;stroke-dashoffset:0;stroke-opacity:1;marker:none;color-rendering:auto;image-rendering:auto;shape-rendering:auto;text-rendering:auto;enable-background:accumulate" d="m 396.7741935483871,320.9522275109137 -48.3870967741936,-83.8089100436554 -9.6774193548387,-20.9522275109137 9.6774193548387,-20.9522275109138 96.7741935483871,0 9.6774193548387,20.9522275109138 -9.6774193548387,20.9522275109137 z" id="path-24"/>
    <path id="path-26" d="m 203.2258064516129,111.4299524017754 -48.3870967741936,83.8089100436553 -9.6774193548387,20.9522275109138 9.6774193548387,20.9522275109138 96.7741935483871,0 9.6774193548387,-20.9522275109138 -9.6774193548387,-20.9522275109138 z" style="color:#000000;clip-rule:nonzero;display:inline;overflow:visible;visibility:visible;opacity:1;isolation:auto;mix-blend-mode:normal;color-interpolation:sRGB;color-interpolation-filters:linearRGB;solid-color:#000000;solid-opacity:1;fill:#ff20cf;fill-opacity:1;fill-rule:nonzero;stroke:none;stroke-width:1;stroke-linecap:butt;stroke-linejoin:miter;stroke-miterlimit:4;stroke-dasharray:none;stroke-dashoffset:0;stroke-opacity:1;marker:none;color-rendering:auto;image-rendering:auto;shape-rendering:auto;text-rendering:auto;enable-background:accumulate"/>
    <path id="path-27" d="m 300,111.4299524017754 -48.3870967741936,83.8089100436553 -9.6774193548387,20.9522275109138 9.6774193548387,20.9522275109138 96.7741935483871,0 9.6774193548388,-20.9522275109138 -9.6774193548388,-20.9522275109138 z" style="color:#000000;clip-rule:nonzero;display:inline;overflow:visible;visibility:visible;opacity:1;isolation:auto;mix-blend-mode:normal;color-interpolation:sRGB;color-interpolation-filters:linearRGB;solid-color:#000000;solid-opacity:1;fill:#0003f5;fill-opacity:1;fill-rule:nonzero;stroke:none;stroke-width:1;stroke-linecap:butt;stroke-linejoin:miter;stroke-miterlimit:4;stroke-dasharray:none;stroke-dashoffset:0;stroke-opacity:1;marker:none;color-rendering:auto;image-rendering:auto;shape-rendering:auto;text-rendering:auto;enable-background:accumulate"/>
    <path style="color:#000000;clip-rule:nonzero;display:inline;overflow:visible;visibility:visible;opacity:1;isolation:auto;mix-blend-mode:normal;color-interpolation:sRGB;color-interpolation-filters:linearRGB;solid-color:#000000;solid-opacity:1;fill:#ff18d9;fill-opacity:1;fill-rule:nonzero;stroke:none;stroke-width:1;stroke-linecap:butt;stroke-linejoin:miter;stroke-miterlimit:4;stroke-dasharray:none;stroke-dashoffset:0;stroke-opacity:1;marker:none;color-rendering:auto;image-rendering:auto;shape-rendering:auto;text-rendering:auto;enable-background:accumulate" d="m 396.7741935483871,111.4299524017754 -48.3870967741936,83.8089100436553 -9.6774193548387,20.9522275109138 9.6774193548387,20.9522275109138 96.7741935483871,0 9.6774193548387,-20.9522275109138 -9.6774193548387,-20.9522275109138 z" id="path-28"/>
    <path style="color:#000000;clip-rule:nonzero;display:inline;overflow:visible;visibility:visible;opacity:1;isolation:auto;mix-blend-mode:normal;color-interpolation:sRGB;color-interpolation-filters:linearRGB;solid-color:#000000;solid-opacity:1;fill:#ff425d;fill-opacity:1;fill-rule:nonzero;stroke:none;stroke-width:1;stroke-linecap:butt;stroke-linejoin:miter;stroke-miterlimit:4;stroke-dasharray:none;stroke-dashoffset:0;stroke-opacity:1;marker:none;color-rendering:auto;image-rendering:auto;shape-rendering:auto;text-rendering:auto;enable-background:accumulate" d="m 251.6129032258064,237.1433174672583 -48.3870967741935,-83.8089100436553 -9.6774193548387,-20.9522275109139 9.6774193548387,-20.9522275109138 96.7741935483871,0 9.6774193548387,20.9522275109139 -9.6774193548387,20.9522275109139 z" id="path-31"/>
    <path id="path-32" d="m 348.3870967741935,237.1433174672583 -48.3870967741935,-83.8089100436553 -9.6774193548387,-20.9522275109139 9.6774193548387,-20.9522275109138 96.7741935483871,0 9.6774193548387,20.9522275109139 -9.6774193548387,20.9522275109139 z" style="color:#000000;clip-rule:nonzero;display:inline;overflow:visible;visibility:visible;opacity:1;isolation:auto;mix-blend-mode:normal;color-interpolation:sRGB;color-interpolation-filters:linearRGB;solid-color:#000000;solid-opacity:1;fill:#14e900;fill-opacity:1;fill-rule:nonzero;stroke:none;stroke-width:1;stroke-linecap:butt;stroke-linejoin:miter;stroke-miterlimit:4;stroke-dasharray:none;stroke-dashoffset:0;stroke-opacity:1;marker:none;color-rendering:auto;image-rendering:auto;shape-rendering:auto;text-rendering:auto;enable-background:accumulate"/>
  </g>
  <g transform="matrix(0.071474, 0, 0, 0.071474, 223.233734, 687.845703)">
    <g id="layer1" transform="translate(-88.391 -228.6)">
      <path id="path1890" style="fill: rgb(0, 0, 0);" d="M 563.188 699.211 C 562.145 695.725 555.167 671.985 547.688 646.449 L 534.087 600.004 L 549.753 580.764 C 558.358 570.178 565.409 558.62 565.409 555.07 C 565.409 544.071 548.71 548.371 530.624 564.029 C 510.942 581.071 490.456 584.092 490.456 569.956 C 490.456 564.98 497.111 553.02 505.247 543.385 C 513.383 533.738 520.131 524.145 520.235 522.064 C 520.684 513.738 506.519 519 495.077 531.404 C 476.115 551.963 458.602 559.655 448.234 551.974 C 440.422 546.195 441.726 543.279 462.555 519.813 C 483.103 496.654 490.613 482.835 482.623 482.835 C 481.069 482.835 467.374 493.083 452.187 505.614 C 422.502 530.104 398.053 535.883 391.972 519.845 C 389.667 513.77 395.467 505.318 412.114 490.474 C 434.33 470.674 441.611 457.531 430.356 457.531 C 427.519 457.531 414.012 466.491 400.338 477.447 C 370.934 500.986 357.688 506.121 347.81 497.817 C 336.754 488.519 338.548 484.388 365.542 457.045 C 379.279 443.131 390.523 429.576 390.523 426.924 C 390.523 416.168 372.916 423.258 352.65 442.169 C 330.683 462.687 311.46 471.023 298.099 465.825 C 286.365 461.261 288.92 455.133 313.077 429.967 C 325.447 417.077 335.565 403.332 335.565 399.422 C 335.565 389.914 316.07 376.549 302.229 376.549 C 292.884 376.549 289.744 381.472 282.568 407.378 C 271.261 448.181 262.667 451.562 223.97 430.431 C 168.157 399.94 105.71 329.005 105.71 296.094 C 105.711 283.057 129.585 263.448 172.683 241.081 C 205.967 223.807 211.558 222.55 263.71 220.637 C 311.648 218.873 322.464 220.024 342.407 228.963 C 355.132 234.657 365.542 242.433 365.542 246.237 C 365.542 250.03 357.667 266.374 348.05 282.56 C 338.433 298.736 330.569 315.154 330.569 319.031 C 330.569 325.635 358.157 346.121 367.106 346.163 C 369.339 346.174 377.714 331.551 385.725 313.664 C 399.66 282.518 413.303 270.22 425.454 277.827 C 434.622 283.564 431.045 329.597 419.561 353.527 C 408.463 376.665 409.652 387.769 422.116 377.299 C 425.871 374.129 432.901 362.687 437.72 351.858 C 446.638 331.826 465.392 317.087 474.613 322.867 C 486.952 330.59 486.149 356.02 472.6 386.596 C 457.757 420.099 460.386 433.2 477.304 410.009 C 499.374 379.739 504.684 374.108 508.011 377.468 C 513.873 383.384 485.679 429.84 454.92 464.938 C 438.742 483.406 425.506 499.539 425.506 500.796 C 425.506 508.572 439.629 499.697 463.244 477.077 C 489.914 451.53 515.448 407.61 515.448 387.283 C 515.448 381.704 517.711 375.725 520.475 373.992 C 530.186 367.917 531.97 388.361 523.698 410.97 C 513.424 439.042 515.938 443.046 530.937 422.497 C 544.768 403.543 551.996 402.867 559.6 419.792 C 564.398 430.442 563.668 436.084 555.407 452.481 C 537.435 488.181 546.228 502.127 566.619 470.241 C 572.825 460.542 580.565 452.566 583.809 452.534 C 593.707 452.428 596.878 473.052 590.15 493.707 C 586.646 504.462 585.394 514.89 587.365 516.876 C 592.216 521.8 600.216 508.128 600.31 494.763 C 600.383 484.842 603.731 483.67 639.111 481.145 C 660.41 479.634 685.119 476.855 694.016 474.985 C 715.232 470.527 735.3 475.904 735.3 486.068 C 735.3 490.516 712.645 517.119 684.952 545.191 C 641.468 589.269 631.517 602.666 611.877 643.564 C 589.337 690.495 579.146 705.54 569.894 705.54 C 567.256 705.54 564.241 702.687 563.188 699.211 Z M 593.436 641.895 C 596.263 630.463 573.118 599.243 561.8 599.243 C 553.696 599.243 553.748 600.247 563.699 631.467 C 568.257 645.762 572.919 660.87 574.056 665.043 C 575.725 671.192 577.519 670.706 583.475 662.518 C 587.522 656.95 591.997 647.664 593.436 641.895 Z M 610.385 601.958 C 610.385 597.88 605.89 592.101 600.393 589.122 C 589.139 583.025 588.064 585.371 595.564 599.581 C 601.666 611.129 610.385 612.524 610.385 601.958 Z M 630.37 568.456 C 630.37 562.444 605.17 552.217 600.946 556.517 C 596.659 560.881 620.419 579.57 625.895 576.147 C 628.357 574.605 630.37 571.139 630.37 568.456 Z M 658.96 545.265 C 660.91 539.349 655.695 537.014 627.867 531.33 L 612.878 528.266 L 627.867 541.028 C 643.21 554.098 655.507 555.767 658.96 545.265 Z M 567.746 506.522 C 576.069 492.777 576.048 492.481 567.151 498.345 C 562.072 501.694 550.212 514.953 540.804 527.801 L 523.688 551.161 L 541.399 535.978 C 551.141 527.632 562.99 514.372 567.746 506.522 Z M 692.222 504.906 C 701.401 492.143 701.401 491.921 692.222 494.531 C 687.059 495.989 669.349 498.884 652.858 500.944 L 622.871 504.695 L 642.866 511.087 C 672.405 520.553 681.813 519.37 692.222 504.906 Z M 510.963 501.641 C 520.141 494.563 542.317 452.692 538.781 449.111 C 536.423 446.723 519.203 468.456 503.036 494.224 C 493.878 508.826 497.393 512.111 510.963 501.641 Z M 424.86 434.731 C 440.088 417.161 465.549 370.664 472.652 347.441 C 475.155 339.296 474.112 336.063 469.001 336.063 C 465.069 336.063 454.92 350.294 446.461 367.695 C 437.991 385.085 421.939 411.689 410.799 426.808 C 399.649 441.926 390.523 456.242 390.523 458.62 C 390.523 466.1 408.505 453.59 424.86 434.731 Z M 373.698 401.028 C 390.335 383.078 420.51 324.303 420.51 309.861 C 420.51 294.826 410.706 294.393 405.177 309.185 C 394.309 338.228 369.714 383.173 349.583 410.769 C 330.454 437.003 329.974 438.387 343.44 428.572 C 351.471 422.708 365.093 410.315 373.698 401.028 Z M 265.306 396.485 C 269.624 384.124 278.26 364.906 284.497 353.77 C 313.421 302.19 322.683 286.797 334.261 271.097 C 350.313 249.322 345.568 244.694 302.542 240.183 C 263.042 236.041 229.018 240.595 190.478 255.164 C 163.546 265.349 130.67 287.346 135.687 291.826 C 137.064 293.051 157.862 306.934 181.914 322.676 C 205.956 338.419 225.628 353.284 225.628 355.714 C 225.628 358.144 222.353 362.877 218.358 366.248 C 212.444 371.213 205.664 368.435 182.217 351.424 C 150.863 328.688 140.37 332.037 163.87 357.288 C 182.582 377.394 246.082 422.793 252.466 420.627 C 255.209 419.708 260.987 408.836 265.306 396.485 Z M 218.494 312.925 C 214.176 308.551 210.64 301.557 210.64 297.394 C 210.64 285.804 235.746 255.08 245.217 255.08 C 267.621 255.08 273.473 291.382 254.041 309.871 C 240.356 322.888 229.279 323.839 218.494 312.925 Z M 355.55 366.131 C 355.55 363.511 353.297 361.366 350.553 361.366 C 347.8 361.366 345.557 364.916 345.557 369.259 C 345.557 373.59 347.8 375.735 350.553 374.013 C 353.297 372.301 355.55 368.752 355.55 366.131 Z M 325.572 348.413 C 325.572 347.188 323.32 346.184 320.566 346.184 C 317.823 346.184 315.57 348.593 315.57 351.541 C 315.57 354.488 317.823 355.492 320.566 353.77 C 323.32 352.048 325.572 349.639 325.572 348.413 Z"/>
    </g>
  </g>
</svg>