<?xml version="1.0" encoding="utf-8"?>
<svg class="shirt" width="86" height="380" viewBox="202.715 584.407 86.5933 380.048" preserveAspectRatio="xMidYMax" xmlns="http://www.w3.org/2000/svg" xmlns:xlink="http://www.w3.org/1999/xlink">
  <defs id="svgEditorDefs">
    <path id="svgEditorClosePathDefs" fill="red" style="stroke-width: 0px; stroke: none;"/>
    <pattern id="pattern-0" x="0" y="0" width="20" height="20" patternUnits="userSpaceOnUse" viewBox="0 0 100 100">
      <g transform="matrix(0.012048, 0, 0, 0.036564, 54.171101, 30.456028)">
        <path stroke="#FFFFFF" stroke-width="5" stroke-miterlimit="10" d="M437.1,239.5c-18.6-14-38.9-27.4-60.5-39.9&#10;&#9;c-21.7-12.5-43.4-23.3-64.8-32.5c-35.5-15.2-70-25.6-101.6-31.3c-68.6-12.2-123.3-1.4-143.9,34.2l0,0&#10;&#9;c49-84.7,140.6-141.7,245.5-141.7c41.2,0,77.9,42,101.6,107.5C424.3,166,432.5,201.1,437.1,239.5z" style="fill: rgb(255, 247, 0);"/>
        <path stroke="#FFFFFF" stroke-width="5" stroke-miterlimit="10" d="M515,311.8c-20.7,24.5-47,49.2-77.9,72.4&#10;&#9;c2.8-23.1,4.3-47.3,4.3-72.4s-1.5-49.3-4.3-72.4c-4.6-38.3-12.8-73.5-23.7-103.6C389.7,70.3,353,28.3,311.8,28.3&#10;&#9;c104.9,0,196.5,57,245.5,141.7l0,0C577.9,205.7,559.8,258.5,515,311.8z" style="fill: rgb(255, 247, 0);"/>
        <path stroke="#FFFFFF" stroke-width="5" stroke-miterlimit="10" d="M595.3,311.8c0,51.6-13.8,100-37.9,141.8l0,0&#10;&#9;c-20.6,35.7-75.3,46.4-143.9,34.2c-31.6-5.6-66.1-16.1-101.6-31.3c21.4-9.1,43.1-20,64.8-32.5c21.7-12.5,41.9-25.9,60.5-39.9&#10;&#9;c30.9-23.2,57.2-47.8,77.9-72.4c44.8-53.3,62.9-106.1,42.3-141.7l0,0C581.5,211.8,595.3,260.2,595.3,311.8z" style="fill: rgb(255, 247, 0);"/>
        <path stroke="#FFFFFF" stroke-width="5" stroke-miterlimit="10" d="M557.3,453.6c-49,84.7-140.6,141.7-245.5,141.7&#10;&#9;c-41.2,0-77.9-42-101.6-107.5c-10.9-30.2-19.1-65.3-23.7-103.6c18.6,14,38.9,27.4,60.5,39.9c21.7,12.5,43.4,23.4,64.8,32.5&#10;&#9;c35.5,15.2,70,25.7,101.6,31.3C482,500,536.7,489.2,557.3,453.6L557.3,453.6z" style="fill: rgb(255, 247, 0);"/>
        <path stroke="#FFFFFF" stroke-width="5" stroke-miterlimit="10" d="M 311.8 595.3 C -422.323 595.3 -1063.369 538.3 -1406.286 453.6 L -1406.286 453.6 C -1550.451 417.9 -1423.782 365.2 -1110.257 311.9 C -965.392 287.4 -781.337 262.7 -565.089 239.5 C -584.684 262.6 -595.182 286.8 -595.182 311.9 C -595.182 337 -584.684 361.2 -565.089 384.3 C -532.896 422.6 -475.51 457.8 -399.229 487.9 C -232.669 553.3 23.469 595.3 311.8 595.3 Z" style="fill: rgb(255, 247, 0);"/>
        <path stroke="#FFFFFF" stroke-width="5" stroke-miterlimit="10" d="M311.8,167.1c-21.4,9.1-43.1,20-64.8,32.5&#10;&#9;c-21.7,12.5-41.9,25.9-60.5,39.9c-30.9,23.2-57.2,47.8-77.9,72.4c-44.8,53.3-62.9,106.1-42.3,141.7l0,0&#10;&#9;c-24.1-41.7-37.9-90.1-37.9-141.8s13.8-100,37.9-141.8l0,0c20.6-35.7,75.3-46.4,143.9-34.2C241.8,141.5,276.3,151.9,311.8,167.1z" style="fill: rgb(255, 247, 0);"/>
      </g>
      <g transform="matrix(0.044969, 0, 0, 0.0297, 10.78788, 43.741386)">
        <g transform="matrix(0.646653, 0, 0, 0.634791, 256.201019, -119.453751)">
          <linearGradient id="SVGID_1_" gradientUnits="userSpaceOnUse" x1="1174.4011" y1="1199.5353" x2="302.4011" y2="1495.5353" gradientTransform="matrix(1.55015, 0, 0, 1, -626.809255, 0.000221)">
            <stop offset="0" style="stop-color:#8FD9FF"/>
            <stop offset="1" style="stop-color:#005A97"/>
          </linearGradient>
          <path fill="url(#SVGID_1_)" d="M 1123.842 1185.563 C 1143.528 1052.25 1140.211 926.945 1136.595 865.14 L 913.688 1114.203 L 914.016 1114.517 C 913.941 1114.55 913.602 1114.697 913.024 1114.945 L 912.26 1115.8 L 911.032 1115.8 C 883.585 1127.533 671.367 1217.111 420.067 1291.223 C 262.069 1337.819 119.566 1369.339 -3.483 1384.908 C -82.958 1394.964 -154.577 1398.343 -217.916 1395.093 C 5.922 1537.209 313.037 1624.901 651.912 1624.901 C 744.997 1624.901 835.679 1618.271 922.904 1605.728 C 968.761 1570.797 1007.866 1523.129 1039.7 1463.198 C 1079.353 1388.549 1107.663 1295.14 1123.842 1185.563 Z"/>
          <linearGradient id="SVGID_2_" gradientUnits="userSpaceOnUse" x1="482.4607" y1="445.8673" x2="1354.4402" y2="167.5832" gradientTransform="matrix(1, 0, 0, 2.609544, 0, -1262.94955)">
            <stop offset="0" style="stop-color:#FFF33B"/>
            <stop offset="1" style="stop-color:#E93E3A"/>
          </linearGradient>
          <path fill="url(#SVGID_2_)" d="M 656.951 130.556 L 657.744 130.556 C 675.45 99.937 812.351 -133.821 974.464 -327.219 C 1076.389 -448.813 1168.317 -531.067 1247.696 -571.695 C 1298.966 -597.937 1345.167 -606.752 1386.027 -598.273 C 1241.629 -969.13 1043.51 -1197.968 824.902 -1197.968 C 764.852 -1197.968 706.354 -1180.666 650.085 -1147.935 C 620.503 -1056.781 595.276 -932.387 574.74 -775.995 C 549.16 -581.197 530.897 -337.439 520.46 -51.495 C 507.761 296.392 509.901 623.38 512.233 784.663 L 656.03 134.722 L 655.818 133.902 C 655.867 133.816 656.086 133.434 656.458 132.785 L 656.951 130.556 Z"/>
          <linearGradient id="SVGID_3_" gradientUnits="userSpaceOnUse" x1="980.2329" y1="339.8292" x2="1672.2721" y2="947.8005" gradientTransform="matrix(1.256523, 0, 0.399904, 2.206004, -337.752993, -1116.825881)">
            <stop offset="0" style="stop-color:#8CC63F"/>
            <stop offset="0.1085" style="stop-color:#90C03D"/>
            <stop offset="0.2559" style="stop-color:#9AAE38"/>
            <stop offset="0.4256" style="stop-color:#AA922E"/>
            <stop offset="0.612" style="stop-color:#C16A22"/>
            <stop offset="0.8095" style="stop-color:#DF3812"/>
            <stop offset="1" style="stop-color:#FF0000"/>
          </linearGradient>
          <path fill="url(#SVGID_3_)" d="M 1344.612 -568.323 C 1253.378 -534.855 1152.61 -466.714 1045.109 -365.792 C 914.321 -243.008 805.106 -100.707 752.482 -28.081 L 1113.85 -28.081 L 1113.924 -28.832 C 1114.001 -28.774 1114.343 -28.519 1114.926 -28.081 L 1116.167 -28.081 L 1116.939 -26.567 C 1144.618 -5.681 1357.605 157.057 1581.427 385.02 C 1722.151 528.346 1839.74 669.209 1930.931 803.684 C 1989.979 890.76 2038.1 975.511 2075.074 1057.349 C 2070.284 915.577 2054.466 766.893 2026.685 613.643 C 1943.088 152.502 1766.23 -267.307 1544.285 -581.695 C 1484.519 -599.557 1417.715 -595.139 1344.612 -568.323 Z" transform="matrix(0.795847, 0.916789, -0.399904, 0.795847, 381.5895, -1248.679131)"/>
          <linearGradient id="SVGID_4_" gradientUnits="userSpaceOnUse" x1="1322.2429" y1="706.0499" x2="1162.2429" y2="1614.0498">
            <stop offset="0" style="stop-color:#FF49C1"/>
            <stop offset="0.0965" style="stop-color:#F947C2"/>
            <stop offset="0.2206" style="stop-color:#E943C6"/>
            <stop offset="0.36" style="stop-color:#CF3BCD"/>
            <stop offset="0.5105" style="stop-color:#AA31D6"/>
            <stop offset="0.6699" style="stop-color:#7A23E1"/>
            <stop offset="0.835" style="stop-color:#4113EF"/>
            <stop offset="1" style="stop-color:#0000FF"/>
          </linearGradient>
          <path fill="url(#SVGID_4_)" d="M1502.7632,927.4033c-51.8573-59.4773-123.6213-121.998-213.2986-185.8253&#10;&#9;&#9;c-109.103-77.6543-218.6899-138.4536-273.3811-167.3357l143.7966,249.063l0.3779-0.0261c0.004,0.0587,0.0217,0.3212,0.0505,0.7682&#10;&#9;&#9;l0.493,0.8542l-0.3961,0.6861c1.3085,21.2008,10.4347,184.5495-6.4392,361.9997&#10;&#9;&#9;c-10.6091,111.5674-29.2759,206.9398-55.4819,283.4685c-16.969,49.5552-37.2048,91.3409-60.5239,125.1475&#10;&#9;&#9;c261.8225-72.1638,469.8518-274.058,550.5939-532.208C1573.1006,1020.8887,1544.4214,975.1819,1502.7632,927.4033z"/>
          <linearGradient id="SVGID_5_" gradientUnits="userSpaceOnUse" x1="649.1365" y1="1300.1323" x2="15.1366" y2="654.1323" gradientTransform="matrix(1, 0, 0, 3.339091, 0.000081, -3208.349745)">
            <stop offset="0" style="stop-color:#C3D7FF"/>
            <stop offset="1" style="stop-color:#00CBA5"/>
          </linearGradient>
          <path fill="url(#SVGID_5_)" d="M 397.202 1335.137 C 474.639 1284.48 564.666 1181.338 664.78 1028.578 C 786.582 842.727 894.03 627.338 946.388 517.406 L 658.795 517.406 L 658.628 518.542 C 658.576 518.456 658.339 518.069 657.938 517.406 L 656.951 517.406 L 656.555 515.114 C 637.541 483.502 491.513 237.175 346.274 -107.881 C 254.958 -324.826 181.697 -538.034 128.524 -741.583 C 94.093 -873.387 68.023 -1001.667 50.405 -1125.541 C 33.763 -910.949 24.902 -685.896 24.902 -453.929 C 24.902 244.07 105.087 879.509 236.364 1355.376 C 281.352 1382.413 335.155 1375.729 397.202 1335.137 Z"/>
          <linearGradient id="SVGID_6_" gradientUnits="userSpaceOnUse" x1="327.6806" y1="961.9545" x2="467.6806" y2="33.9545">
            <stop offset="0" style="stop-color:#EDE928"/>
            <stop offset="1" style="stop-color:#F37E31"/>
          </linearGradient>
          <path fill="url(#SVGID_6_)" d="M147.04,722.3998c51.8573,59.4772,123.6213,121.998,213.2984,185.8253&#10;&#9;&#9;c109.1033,77.6542,218.6902,138.4536,273.3813,167.3357L489.923,826.4979l-0.3779,0.026c-0.004-0.0586-0.0217-0.3212-0.0505-0.7681&#10;&#9;&#9;l-0.4931-0.8542l0.3961-0.6862c-1.3083-21.2006-10.4347-184.5494,6.4392-361.9998&#10;&#9;&#9;c10.6092-111.5673,29.2759-206.9397,55.482-283.4684c16.969-49.5551,37.2048-91.341,60.5239-125.1474&#10;&#9;&#9;C350.0202,125.7637,141.9909,327.6578,61.2489,585.8079C76.7026,628.9146,105.3818,674.6212,147.04,722.3998z"/>
        </g>
      </g>
      <g transform="matrix(0.000587, 0.004112, -0.036197, 0.005166, 57.983635, 41.069775)">
        <path stroke="#FFFFFF" stroke-width="5" stroke-miterlimit="10" d="M437.1,239.5c-18.6-14-38.9-27.4-60.5-39.9&#10;&#9;c-21.7-12.5-43.4-23.3-64.8-32.5c-35.5-15.2-70-25.6-101.6-31.3c-68.6-12.2-123.3-1.4-143.9,34.2l0,0&#10;&#9;c49-84.7,140.6-141.7,245.5-141.7c41.2,0,77.9,42,101.6,107.5C424.3,166,432.5,201.1,437.1,239.5z" style="fill: rgb(255, 247, 0);"/>
        <path stroke="#FFFFFF" stroke-width="5" stroke-miterlimit="10" d="M515,311.8c-20.7,24.5-47,49.2-77.9,72.4&#10;&#9;c2.8-23.1,4.3-47.3,4.3-72.4s-1.5-49.3-4.3-72.4c-4.6-38.3-12.8-73.5-23.7-103.6C389.7,70.3,353,28.3,311.8,28.3&#10;&#9;c104.9,0,196.5,57,245.5,141.7l0,0C577.9,205.7,559.8,258.5,515,311.8z" style="fill: rgb(255, 247, 0);"/>
        <path stroke="#FFFFFF" stroke-width="5" stroke-miterlimit="10" d="M595.3,311.8c0,51.6-13.8,100-37.9,141.8l0,0&#10;&#9;c-20.6,35.7-75.3,46.4-143.9,34.2c-31.6-5.6-66.1-16.1-101.6-31.3c21.4-9.1,43.1-20,64.8-32.5c21.7-12.5,41.9-25.9,60.5-39.9&#10;&#9;c30.9-23.2,57.2-47.8,77.9-72.4c44.8-53.3,62.9-106.1,42.3-141.7l0,0C581.5,211.8,595.3,260.2,595.3,311.8z" style="fill: rgb(255, 247, 0);"/>
        <path stroke="#FFFFFF" stroke-width="5" stroke-miterlimit="10" d="M557.3,453.6c-49,84.7-140.6,141.7-245.5,141.7&#10;&#9;c-41.2,0-77.9-42-101.6-107.5c-10.9-30.2-19.1-65.3-23.7-103.6c18.6,14,38.9,27.4,60.5,39.9c21.7,12.5,43.4,23.4,64.8,32.5&#10;&#9;c35.5,15.2,70,25.7,101.6,31.3C482,500,536.7,489.2,557.3,453.6L557.3,453.6z" style="fill: rgb(255, 247, 0);"/>
        <path stroke="#FFFFFF" stroke-width="5" stroke-miterlimit="10" d="M 311.8 595.3 C -422.323 595.3 -1063.369 538.3 -1406.286 453.6 L -1406.286 453.6 C -1550.451 417.9 -1423.782 365.2 -1110.257 311.9 C -965.392 287.4 -781.337 262.7 -565.089 239.5 C -584.684 262.6 -595.182 286.8 -595.182 311.9 C -595.182 337 -584.684 361.2 -565.089 384.3 C -532.896 422.6 -475.51 457.8 -399.229 487.9 C -232.669 553.3 23.469 595.3 311.8 595.3 Z" style="fill: rgb(255, 247, 0);"/>
        <path stroke="#FFFFFF" stroke-width="5" stroke-miterlimit="10" d="M311.8,167.1c-21.4,9.1-43.1,20-64.8,32.5&#10;&#9;c-21.7,12.5-41.9,25.9-60.5,39.9c-30.9,23.2-57.2,47.8-77.9,72.4c-44.8,53.3-62.9,106.1-42.3,141.7l0,0&#10;&#9;c-24.1-41.7-37.9-90.1-37.9-141.8s13.8-100,37.9-141.8l0,0c20.6-35.7,75.3-46.4,143.9-34.2C241.8,141.5,276.3,151.9,311.8,167.1z" style="fill: rgb(255, 247, 0);"/>
      </g>
      <ellipse transform="matrix(-0.861934, 0.50702, -0.50702, -0.861934, 119.488695, 55.099667)" cx="52.28" cy="45.928" rx="9.637" ry="9.637" style="fill: rgb(255, 247, 0);"/>
    </pattern>
    <pattern id="pattern-0-0" patternTransform="matrix(1.059096, 0.269489, -0.238962, 0.939127, 240.735103, 752.68335)" xlink:href="#pattern-0"/>
  </defs>
  <polygon id="e1_polygon" style="stroke-width: 0px; stroke: none; fill: url(#pattern-0-0);" points="212.268 651.674 274.813 642.738 258.318 658.547 280.999 679.853 281.686 686.039 274.813 720.404 277.562 755.457 285.122 763.705 285.122 762.33 269.314 766.454 261.754 731.401 262.441 718.342 262.441 719.03 257.63 733.463 260.379 739.649 274.813 767.828 283.061 776.076 287.872 787.76 248.695 887.42 218.454 804.255 217.079 765.766 233.575 737.587 235.636 726.59 232.2 713.531 227.389 707.346 231.513 723.841 232.2 730.714 224.64 766.454 219.828 765.079 208.144 767.828 208.832 767.828 218.454 748.584 218.454 747.897 219.141 730.027 209.519 689.476 225.327 663.358" transform="matrix(1, 0, 0, 1, 0.6189707118503236, 0)"/>
</svg>