<?xml version="1.0" encoding="utf-8"?>
<svg class="shirt" width="86" height="380" viewBox="202.715 584.407 86.5933 380.048" preserveAspectRatio="xMidYMax" xmlns="http://www.w3.org/2000/svg" xmlns:xlink="http://www.w3.org/1999/xlink">
  <defs id="svgEditorDefs">
    <path id="svgEditorClosePathDefs" fill="red" style="stroke-width: 0px; stroke: none;"/>
    <pattern id="pattern-0" x="0" y="0" width="20" height="20" patternUnits="userSpaceOnUse" viewBox="0 0 100 100">
      <g transform="matrix(1, 0, 0, 1, -413.585907, -661.155273)">
        <g transform="matrix(0.184199, 0, 0, 0.184199, 449.012146, 671.104065)">
          <path id="path3816" d="M 118.568 231.841 C 118.568 232.051 94.952 223.975 95.119 227.41 C 97.702 226.684 101.879 229.385 104.687 234.089 C 110.235 243.381 109.876 250.813 103.125 265.933 C 101.025 270.653 98.262 278.783 97.005 284.003 C 95.748 289.228 94.31 294.291 93.817 295.253 C 92.629 297.575 88.715 297.489 81.411 294.972 C 67.297 290.112 211.724 418.828 87.374 390.782 C 40.305 380.166 14.058 301.614 28.505 307.534 C 33.455 309.562 37.611 311.342 37.755 311.471 C 37.899 311.6 35.798 316.374 33.068 322.096 C 24.665 339.705 19.64 357.761 16.943 380.002 C 14.679 398.664 17.337 408.19 27.943 419.377 C 43.572 435.863 70.248 446.426 103.505 449.315 C 105.705 449.506 112.455 449.685 118.505 449.721 L 129.505 449.784 L 121.348 448.44 C 89.701 443.124 67.431 427.355 55.598 401.909 C 50.672 391.315 50.213 388.219 54.817 396.722 C 61.837 409.685 67.995 416.416 80.911 425.222 C 100.516 438.589 123.663 445.109 151.505 445.097 C 171.973 445.088 189.328 441.917 209.317 434.535 C 240.5 423.018 249.904 418.954 262.786 411.379 C 291.542 394.468 324.768 364.84 344.661 338.41 C 350.047 331.254 350.115 331.135 349.817 324.941 L 349.505 318.691 L 345.036 325.034 C 339.293 333.235 327.259 345.324 314.005 356.159 C 277.805 385.753 248.916 398.066 212.005 399.659 C 190.898 400.57 173.326 397.681 156.693 390.534 C 123.639 376.333 109.109 354.175 106.068 313.315 C 104.901 297.634 106.088 270.31 108.131 265.503 L 109.381 262.503 L 109.724 265.503 C 110.972 276.493 115.599 297.754 118.974 308.034 C 126.062 329.618 139.288 352.444 150.943 363.222 C 168.432 379.395 192.174 387.335 223.005 387.316 C 245.734 387.302 266.782 382.719 284.005 374.004 C 305.444 363.156 329.25 342.921 343.849 323.16 L 349.999 314.8 L 349.999 300.24 C 349.999 292.221 349.821 285.855 349.593 286.084 C 349.365 286.314 348.021 289.53 346.624 293.241 C 336.437 320.314 305.995 352.056 277.312 365.491 C 249.486 378.525 217.441 379.441 194 367.866 C 186.997 364.408 183.828 361.981 176 354.085 C 168.429 346.447 165.531 342.664 161.781 335.46 C 155.421 323.24 150.521 308.05 148.031 292.99 C 144.031 268.76 142.001 258.96 139.121 250.02 C 137.531 245.06 136.421 240.99 136.661 240.99 C 137.228 240.99 140.733 249.086 143.161 255.99 C 144.225 259.015 147.732 271.615 150.974 283.99 C 157.671 309.558 161.578 321.224 167.036 331.99 C 176.939 351.522 191.321 363.257 210.63 367.552 C 216.866 368.939 221.205 369.156 233.411 368.677 C 255.358 367.814 270.201 363.972 287.005 354.802 C 313.162 340.527 333.8 313.877 344.911 280.052 C 348.899 267.91 348.835 266.564 344.692 276.052 C 327.531 315.354 288.731 340.741 249.004 338.677 C 243.229 338.377 235.804 337.42 232.504 336.552 C 224.282 334.388 209.855 327.095 201.879 321.052 C 192.545 313.979 179.228 299.625 170.41 287.177 C 159.39 271.62 143.233 237.746 144.41 232.646 C 144.555 232.016 144.479 231.905 144.223 232.396 C 143.304 234.15 138.451 220.599 130.535 194.146 C 123.023 169.044 116.722 157.689 103.254 144.896 C 92.601 134.777 83.789 130.69 71.348 130.146 C 69.621 130.07 68.107 130.042 66.723 130.052 L 66.723 130.052 C 62.57 130.082 59.713 130.531 56.567 131.521 C 53.489 132.489 51.146 133.476 51.379 133.708 C 51.612 133.941 54.828 134.751 58.504 135.521 C 66.848 137.266 75.087 141.005 80.598 145.521 C 90.857 153.927 102.87 178.714 102.973 191.677 L 103.003 193.877 L 97.253 191.247 C 90.271 188.05 83.031 193.078 80.222 190.309 C 8.952 120.056 106.914 198.991 115.309 208.513 C 119.668 213.458 95.05 217.977 95.05 218.402 L 118.568 231.841 Z" style="fill: rgb(251, 140, 140);"/>
          <path id="path2849" d="m197.53 434.41c5.5142-0.80553 11.364-1.9021 13-2.4367 2.5193-0.82345 2.286-0.88151-1.5258-0.37963-35.867 4.7224-63.055-0.72007-89.24-17.864-29.245-19.148-46.061-42.129-55.202-75.441-2.9668-10.813-3.3479-6.5568-0.54724 6.1115 5.7292 25.915 22.882 54.596 41.425 69.268 24.759 19.589 54.352 26.255 92.09 20.742z" style="fill: rgb(251, 140, 140);"/>
          <path id="path2841" d="m227.5 311.58c-13.922-2.7273-30.25-9.8622-41.435-18.106-8.8156-6.4974-15.374-13.482-21.693-23.102-8.6657-13.193-12.687-23.726-17.897-46.873-0.86656-3.85-1.8495-8.125-2.1843-9.5-0.33479-1.375-0.50931-3.285-0.38783-4.2445 0.39632-3.1302-4.966-32.749-7.5323-41.605-5.6334-19.44-14.814-33.264-26.209-39.466-14.374-7.8234-38.297-7.4666-59.286 0.88409-7.604 3.05-9.691 3.45-17.744 3.45-5.281 0-9.126-0.41-9.126-0.98 0-1.99 13.595-12.1 21.415-15.92 24.456-11.94 53.001-11.67 78.585 0.75 9.9805 4.844 19.828 14.42 24.003 23.342 5.135 10.973 6.0383 17.52 6.9407 50.308 0.78664 28.582 0.95053 30.378 3.467 38 6.159 18.654 12.947 30.03 25.075 42.02 20.22 19.99 48.408 25.463 78.994 15.337 11.906-3.9419 18.399-7.7974 27.184-16.143 16.06-15.256 23.679-34.237 23.769-59.215 0.0385-10.717-0.34111-14.23-2.161-20-2.7817-8.8201-10.745-24.634-19.892-39.5-9.6172-15.631-10.891-19.275-10.832-31 0.0405-8.099 0.43803-10.348 2.6959-15.253 7.72-16.778 27.16-26.905 51.75-26.958 5.225-0.01137 10.625 0.45232 12 1.0304 2.4994 1.0508 2.4992 1.0511-0.59004 1.1145-5.6546 0.11599-18.423 3.9609-25.496 7.6779-8.0198 4.2143-14.979 11.317-16.689 17.034-5.1918 17.355 0.13814 34.184 20.935 66.098 16.478 25.287 21.751 38.851 22.583 58.096 0.65095 15.046-0.40174 20.55-6.2459 32.658-7.306 15.137-21.839 30.26-36.349 37.826-8.238 4.2956-22.876 9.0108-34.692 11.175-12.373 2.2661-34.11 2.8126-42.955 1.0798z" style="fill: rgb(251, 140, 140);"/>
          <path id="path3660" d="m348.09 42.531c-36.465 4.4144-73.606 22.804-91.62 56.091-6.8105 11.962-7.6489 26.878-4.0578 39.906 8.6189 22.017 31.387 33.467 42.835 53.409 8.0762 13.002 1.658 32.32-6.928 40.248-5.932 5.444-13.47 10.642-23.731 13.627-23.55 7.2-48.28-5.13-63.59-22.85-4.6072-5.5805-0.90429-1.1036-4.1655-5.1161-24.13-36.49-35.68-81.8-69.06-111.79-14.78-12.67-33.798-18.713-51.575-25.832-22.186-6.064-54.9-6.212-74.156 8.193-0.887 2.485-6.6301 34.919-1.8576 29.269 14.592-17.67 47.782-40.17 70.245-35.612 5.02 0.554 18.817 4.34 4.91 3.484-27.376-2.911-63.374 18.268-68.891 46.248 9.237 2.73 2.4594 4.35 12.055 1.47 14.403-17.31 33.045-33.302 56.558-34.897 34.429-4.2559 69.83 18.703 79.042 52.357 7.4368 27.12-4.2152 56.908 8.9632 82.979 1.5994 11.224 12.677 19.616 20.804 27.923 22.856 18.445 55.228 18.054 82.199 10.35 25.67-7.7245 44.032-33.747 41.899-60.62 1.3002-20.424-10.131-37.964-21.027-54.127-10.44-15.364-20.479-35.969-10.37-54.067 13.463-22.362 41.92-27.006 65.843-28.982 13.166 2.2812 7.0616-25.841 5.6822-31.663z" style="fill: rgb(251, 140, 140);"/>
          <path id="path2837" d="m274.28 184.75c4.0901 11.843 3.115 28.171-9.2442 34.646-6.9712 5.4237-14.041 11.678-23.378 12.002-9.9032 3.666-19.49-4.6554-28.439-2.4094 8.5096 11.375 24.207 13.668 37.496 13.432 9.6574 0.24938 18.614-3.4933 26.273-9.1644 9.2551-4.4542 9.9369-16.385 9.6768-25.425-0.71343-9.0161-6.5579-16.583-12.385-23.081z" style="fill: rgb(251, 140, 140);"/>
          <path id="path2825" d="m345.71 161.75c-22.97-36.01-27.29-57.68-13.55-68.031 3.72-2.796 11.58-5.719 15.39-5.719h2.4834l-0.0599 39.5c-0.0329 21.725-0.25238 39.5-0.48766 39.5s-1.935-2.3625-3.7771-5.25h0.00002z" style="fill: rgb(251, 140, 140);"/>
          <path id="path2820" d="m253.03 96.934c-0.09-7.685 4.28-23.489 9.25-33.434 10.3-20.629 29.96-39.168 54.57-51.453 8.85-4.4185 27.47-11.047 31.03-11.047 2.03 0 2.12 0.4562 2.12 10.871v10.871l-7.1471 0.70426c-36.435 3.5902-70.712 30.234-85.938 66.799-2.4685 5.9282-3.8647 8.3322-3.8844 6.6883z" style="fill: rgb(251, 140, 140);"/>
          <path id="path3669" d="m280.38 210c-3.8286 10.775-14.301 16.73-23.344 22.625-3.0102 1.5926-6.1571 2.9908-9.4062 3.9375 11.186-0.0886 23.985-3.5875 30.719-13.094 2.237-4.3968 2.8282-9.3671 2.3125-14.281l-0.28 0.81z" style="fill: rgb(251, 140, 140);"/>
          <path id="path3677" style="stroke: rgb(0, 0, 0); stroke-width: 1px; fill: rgb(251, 140, 140);" d="m169.28 301.72s8.9619 40.826 48.792 43.814c39.831 2.9873 41.822 5.9746 41.822 5.9746s-59.746 6.9703-71.695-5.9746c-11.95-12.95-19.92-39.83-18.92-43.81z"/>
          <path id="path3679" style="stroke: rgb(0, 0, 0); stroke-width: 1px; fill: rgb(251, 140, 140);" d="m169.28 183.22s16.928 64.725 41.822 68.708-6.9703 16.928-22.903 0c-15.93-16.93-19.92-67.71-18.92-68.71z"/>
          <path id="path3681" style="stroke: rgb(0, 0, 0); stroke-width: 1px; fill: rgb(251, 140, 140);" d="m325.61 188.2s24.894 30.869 9.9576 59.746-23.898 35.847-23.898 35.847 26.886-24.894 20.911-58.75c-5.9746-33.856-5.9746-33.856-6.9703-36.843z"/>
        </g>
      </g>
      <g transform="matrix(0.115574, 0, 0, 0.135403, 2.909423, 3.833723)">
        <g clip-path="url(#p.0)">
          <path fill-opacity="0.0" d="m0 0l561.54333 0l0 523.16534l-561.54333 0z" fill-rule="nonzero" style="fill: rgb(99, 228, 82);"/>
          <path d="m220.31432 155.788l0 0c-6.4012756 -74.658455 9.3780365 -136.979 35.244095 -139.19684l0 0c12.421326 -1.0650434 25.555054 12.155788 36.5119 36.754066c10.956848 24.59827 18.839294 58.559032 21.9133 94.411285l0 0c6.4012756 74.65846 -9.378052 136.97903 -35.24411 139.19687l0 0c-12.421295 1.065033 -25.555023 -12.155792 -36.51187 -36.754074c-10.956848 -24.598282 -18.83931 -58.559036 -21.913315 -94.4113z" fill-rule="nonzero" style="fill: rgb(99, 228, 82);"/>
          <path d="m314.52148 153.84923l0 0c41.46051 -62.41252 92.598755 -101.36022 114.22049 -86.99212l0 0c10.383118 6.899803 12.431732 25.423164 5.6951904 51.495148c-6.7365417 26.071983 -21.70642 57.556923 -41.616455 87.52848l0 0c-41.46051 62.412506 -92.598755 101.36023 -114.22046 86.99213l0 0c-10.383148 -6.899811 -12.431763 -25.423187 -5.695221 -51.495163c6.7365417 -26.071976 21.70642 -57.556915 41.616455 -87.52847z" fill-rule="nonzero" style="fill: rgb(99, 228, 82);"/>
          <path d="m231.55774 374.51312l0 0c0 -74.92807 21.046143 -135.6693 47.007874 -135.6693l0 0c12.467255 0 24.42389 14.293701 33.239594 39.736618c8.815674 25.442932 13.76828 59.95096 13.76828 95.93268l0 0c0 74.92807 -21.046143 135.66928 -47.007874 135.66928l0 0c-12.467255 0 -24.42389 -14.293671 -33.23958 -39.736603c-8.815689 -25.442932 -13.768295 -59.95096 -13.768295 -95.93268z" fill-rule="nonzero" style="fill: rgb(99, 228, 82);"/>
          <path d="m394.67844 321.6418l0 0c43.408722 61.07312 61.444214 122.773224 40.283447 137.811l0 0c-10.161743 7.2214355 -28.188202 2.4964294 -50.11371 -13.135559c-21.925507 -15.631958 -45.95407 -40.89041 -66.79965 -70.21875l0 0c-43.408722 -61.07312 -61.444244 -122.773224 -40.283478 -137.81104l0 0c10.161774 -7.221405 28.188202 -2.496399 50.11371 13.135574c21.925507 15.631973 45.95407 40.890427 66.79968 70.218765z" fill-rule="nonzero" style="fill: rgb(99, 228, 82);"/>
          <path d="m412.41864 211.05905l0 0c74.92807 0 135.66931 21.046143 135.66931 47.007874l0 0c0 12.467255 -14.293701 24.42389 -39.736633 33.239594c-25.442932 8.815674 -59.95096 13.76828 -95.93268 13.76828l0 0c-74.9281 0 -135.66931 -21.046143 -135.66931 -47.007874l0 0c0 -12.467255 14.293701 -24.42389 39.736633 -33.23958c25.442932 -8.815689 59.950928 -13.768295 95.93268 -13.768295z" fill-rule="nonzero" style="fill: rgb(99, 228, 82);"/>
          <path d="m146.51654 224.3821l0 0c-60.229477 -44.56546 -96.53319 -97.61443 -81.08661 -118.48819l0 0c7.4177017 -10.023933 26.021309 -11.135757 51.718224 -3.090889c25.696907 8.044868 56.38218 24.587433 85.3054 45.988533l0 0c60.22946 44.56546 96.5332 97.614426 81.08661 118.488174l0 0c-7.417694 10.023926 -26.021301 11.135773 -51.718216 3.0908813c-25.696915 -8.044861 -56.382187 -24.587418 -85.305405 -45.98851z" fill-rule="nonzero" style="fill: rgb(99, 228, 82);"/>
          <path d="m152.30193 318.31866l0 0c-74.545395 7.5754395 -137.10567 -7.2238464 -139.73228 -33.055115l0 0c-1.2613449 -12.404602 11.749658 -25.746307 36.17073 -37.090027c24.421078 -11.343735 58.25178 -19.760315 94.04974 -23.398163l0 0c74.545395 -7.575424 137.10567 7.2238464 139.73228 33.055115l0 0c1.2613525 12.404633 -11.749664 25.746307 -36.17073 37.090027c-24.421082 11.34375 -58.251785 19.760315 -94.04974 23.398163z" fill-rule="nonzero" style="fill: rgb(99, 228, 82);"/>
          <path d="m234.65633 381.72943l0 0c-42.4433 61.751526 -94.19495 99.88843 -115.590546 85.18112l0 0c-10.2745285 -7.0627136 -12.031525 -25.61618 -4.884468 -51.578888c7.1470566 -25.962708 22.612709 -57.207947 42.994698 -86.86206l0 0c42.4433 -61.751526 94.19496 -99.8884 115.59056 -85.18111l0 0c10.274536 7.0626984 12.031525 25.616165 4.8844604 51.578903c-7.147064 25.962708 -22.612717 57.207916 -42.994705 86.86203z" fill-rule="nonzero" style="fill: rgb(99, 228, 82);"/>
          <path d="m245.32385 208.29834l0 0c-3.623764 -37.530807 5.308899 -68.859344 19.95169 -69.97426l0 0c7.031708 -0.5354004 14.466705 6.110718 20.669373 18.476273c6.202667 12.365555 10.664917 29.437622 12.405121 47.460556l0 0c3.6237793 37.530807 -5.308899 68.85936 -19.95169 69.97426l0 0c-14.642761 1.1148987 -29.45073 -28.406021 -33.074493 -65.93683z" fill-rule="nonzero" style="fill: rgb(99, 228, 82);"/>
          <path d="m298.65454 207.32373l0 0c23.470764 -31.374786 52.420135 -50.953796 64.66019 -43.73094l0 0c5.877899 3.468521 7.037628 12.780212 3.22406 25.886612c-3.8135376 13.106384 -12.287994 28.933853 -23.559082 44.00055l0 0c-23.470764 31.374786 -52.420135 50.953796 -64.66019 43.730957l0 0c-12.240082 -7.2228394 -3.1357727 -38.512405 20.335022 -69.88718z" fill-rule="nonzero" style="fill: rgb(99, 228, 82);"/>
          <path d="m251.68875 318.25146l0 0c0 -37.66635 11.914215 -68.20096 26.611145 -68.20096l0 0c7.0577393 0 13.8263855 7.185425 18.816956 19.975586c4.9905396 12.790161 7.79422 30.13736 7.79422 48.225372l0 0c0 37.66635 -11.914215 68.20096 -26.611176 68.20096l0 0c-14.69693 0 -26.611145 -30.534607 -26.611145 -68.20096z" fill-rule="nonzero" style="fill: rgb(99, 228, 82);"/>
          <path d="m344.03137 291.67307l0 0c24.57367 30.701447 34.78357 61.71808 22.804474 69.27759l0 0c-5.7525635 3.630188 -15.957336 1.2549438 -28.369385 -6.603241c-12.412018 -7.858185 -26.014587 -20.555634 -37.815277 -35.29898l0 0c-24.57367 -30.701447 -34.7836 -61.71811 -22.804474 -69.2776l0 0c11.979095 -7.559494 41.610992 11.20076 66.18466 41.902237z" fill-rule="nonzero" style="fill: rgb(99, 228, 82);"/>
          <path d="m354.0741 236.0831l0 0c42.41678 0 76.8024 10.579895 76.8024 23.63086l0 0c0 6.2673035 -8.091675 12.277893 -22.494904 16.709534c-14.403229 4.4316406 -33.938232 6.9213257 -54.307495 6.9213257l0 0c-42.41678 0 -76.80237 -10.579895 -76.80237 -23.63086l0 0c0 -6.267288 8.091644 -12.277893 22.494873 -16.709534c14.403259 -4.431656 33.938232 -6.9213257 54.307495 -6.9213257z" fill-rule="nonzero" style="fill: rgb(99, 228, 82);"/>
          <path d="m203.54694 242.7806l0 0c-34.095917 -22.40306 -54.647446 -49.070786 -45.903137 -59.56401l0 0c4.1991577 -5.039032 14.730667 -5.597946 29.27768 -1.5537872c14.547028 4.0441437 31.917953 12.360092 48.291397 23.118423l0 0c34.0959 22.40306 54.647446 49.070786 45.903122 59.564026l0 0c-4.1991577 5.039032 -14.730652 5.597931 -29.27768 1.553772c-14.547028 -4.044159 -31.917953 -12.360092 -48.29138 -23.118423z" fill-rule="nonzero" style="fill: rgb(99, 228, 82);"/>
          <path d="m206.82204 290.0025l0 0c-42.20015 3.8081665 -77.615524 -3.6314087 -79.10245 -16.61679l0 0c-0.71404266 -6.2358093 6.6514893 -12.942688 20.476257 -18.645172c13.824768 -5.7024994 32.976334 -9.933502 53.241547 -11.762253l0 0c42.20015 -3.8081665 77.615524 3.631424 79.10246 16.616806l0 0c0.7140503 6.2358093 -6.6514893 12.942657 -20.476257 18.645172c-13.824783 5.702484 -32.976334 9.933502 -53.24156 11.762238z" fill-rule="nonzero" style="fill: rgb(99, 228, 82);"/>
          <path d="m253.44286 321.87912l0 0c-24.027145 31.04248 -53.32376 50.213898 -65.43581 42.820526l0 0c-5.8164062 -3.550415 -6.8110504 -12.877258 -2.765091 -25.92871c4.045944 -13.051453 12.801056 -28.758423 24.339294 -43.665558l0 0c24.02716 -31.04248 53.323776 -50.213898 65.43581 -42.82054l0 0c12.112061 7.3933563 2.452942 38.551773 -21.574203 69.594284z" fill-rule="nonzero" style="fill: rgb(99, 228, 82);"/>
          <path d="M 658.225 52.751 L 658.225 52.751 C 654.67 22.01 663.43 -3.651 677.793 -4.564 L 677.793 -4.564 C 684.688 -5.003 691.981 0.441 698.064 10.569 C 704.148 20.698 708.525 34.682 710.231 49.444 L 710.231 49.444 C 713.786 80.185 705.025 105.845 690.662 106.758 L 690.662 106.758 C 683.767 107.197 676.474 101.753 670.391 91.624 C 664.308 81.497 659.93 67.513 658.225 52.751 Z" fill-rule="nonzero" style="fill: rgb(99, 228, 82);"/>
          <path d="M 710.53 51.952 L 710.53 51.952 C 733.551 26.253 761.943 10.217 773.948 16.134 L 773.948 16.134 C 779.713 18.975 780.851 26.602 777.111 37.336 C 773.37 48.071 765.059 61.036 754.004 73.377 L 754.004 73.377 C 730.984 99.075 702.592 115.112 690.585 109.196 L 690.585 109.196 C 684.82 106.355 683.683 98.728 687.424 87.992 C 691.164 77.258 699.476 64.293 710.53 51.952 Z" fill-rule="nonzero" style="fill: rgb(99, 228, 82);"/>
          <path d="M 664.466 142.812 L 664.466 142.812 C 664.466 111.96 676.152 86.949 690.566 86.949 L 690.566 86.949 C 697.489 86.949 704.126 92.834 709.023 103.311 C 713.916 113.787 716.667 127.996 716.667 142.812 L 716.667 142.812 C 716.667 173.664 704.981 198.674 690.566 198.674 L 690.566 198.674 C 683.644 198.674 677.005 192.788 672.11 182.313 C 667.216 171.836 664.466 157.627 664.466 142.812 Z" fill-rule="nonzero" style="fill: rgb(99, 228, 82);"/>
          <path d="M 755.036 121.041 L 755.036 121.041 C 779.136 146.188 789.151 171.594 777.401 177.785 L 777.401 177.785 C 771.759 180.76 761.752 178.814 749.578 172.377 C 737.403 165.941 724.062 155.541 712.488 143.465 L 712.488 143.465 C 688.387 118.317 678.373 92.912 690.123 86.721 L 690.123 86.721 C 695.765 83.747 705.774 85.693 717.947 92.129 C 730.121 98.565 743.462 108.965 755.036 121.041 Z" fill-rule="nonzero" style="fill: rgb(99, 228, 82);"/>
          <path d="M 764.885 75.509 L 764.885 75.509 C 806.488 75.509 840.213 84.174 840.213 94.865 L 840.213 94.865 C 840.213 99.998 832.277 104.921 818.15 108.55 C 804.023 112.181 784.863 114.22 764.885 114.22 L 764.885 114.22 C 723.283 114.22 689.558 105.554 689.558 94.865 L 689.558 94.865 C 689.558 89.731 697.495 84.808 711.621 81.178 C 725.748 77.548 744.907 75.509 764.885 75.509 Z" fill-rule="nonzero" style="fill: rgb(99, 228, 82);"/>
          <path d="M 617.249 80.995 L 617.249 80.995 C 583.809 62.644 563.652 40.802 572.228 32.207 L 572.228 32.207 C 576.347 28.079 586.676 27.622 600.944 30.934 C 615.211 34.246 632.248 41.058 648.307 49.87 L 648.307 49.87 C 681.749 68.22 701.904 90.062 693.328 98.657 L 693.328 98.657 C 689.21 102.785 678.881 103.243 664.614 99.93 C 650.346 96.618 633.308 89.806 617.249 80.995 Z" fill-rule="nonzero" style="fill: rgb(99, 228, 82);"/>
          <path d="M 620.461 119.674 L 620.461 119.674 C 579.072 122.793 544.337 116.698 542.879 106.063 L 542.879 106.063 C 542.179 100.955 549.402 95.462 562.962 90.791 C 576.521 86.12 595.305 82.654 615.181 81.156 L 615.181 81.156 C 656.57 78.038 691.306 84.131 692.763 94.768 L 692.763 94.768 C 693.463 99.875 686.241 105.369 672.68 110.039 C 659.121 114.71 640.337 118.176 620.461 119.674 Z" fill-rule="nonzero" style="fill: rgb(99, 228, 82);"/>
          <path d="M 666.187 145.782 L 666.187 145.782 C 642.621 171.21 613.887 186.913 602.008 180.857 L 602.008 180.857 C 596.304 177.948 595.328 170.31 599.296 159.619 C 603.265 148.928 611.851 136.063 623.169 123.853 L 623.169 123.853 C 646.733 98.427 675.467 82.724 687.347 88.779 L 687.347 88.779 C 693.052 91.687 694.028 99.327 690.059 110.018 C 686.091 120.707 677.505 133.573 666.187 145.782 Z" fill-rule="nonzero" style="fill: rgb(99, 228, 82);"/>
          <path d="M 98.98 587.611 L 98.98 587.611 C 98.98 547.343 132.054 514.698 172.854 514.698 L 172.854 514.698 C 192.447 514.698 211.237 522.38 225.091 536.054 C 238.945 549.728 246.728 568.274 246.728 587.611 L 246.728 587.611 C 246.728 627.88 213.653 660.525 172.854 660.525 L 172.854 660.525 C 132.054 660.525 98.98 627.88 98.98 587.611 Z" fill-rule="nonzero" style="fill: rgb(99, 228, 82);"/>
        </g>
      </g>
    </pattern>
    <pattern id="pattern-0-0" patternTransform="matrix(1.272582, 0.251901, -0.207254, 1.04704, 240.140091, 753.327515)" xlink:href="#pattern-0"/>
  </defs>
  <polygon id="e1_polygon" style="stroke-width: 0px; stroke: none; fill: url(#pattern-0-0);" points="212.268 651.674 274.813 642.738 258.318 658.547 280.999 679.853 281.686 686.039 274.813 720.404 277.562 755.457 285.122 763.705 285.122 762.33 269.314 766.454 261.754 731.401 262.441 718.342 262.441 719.03 257.63 733.463 260.379 739.649 274.813 767.828 283.061 776.076 287.872 787.76 248.695 887.42 218.454 804.255 217.079 765.766 233.575 737.587 235.636 726.59 232.2 713.531 227.389 707.346 231.513 723.841 232.2 730.714 224.64 766.454 219.828 765.079 208.144 767.828 208.832 767.828 218.454 748.584 218.454 747.897 219.141 730.027 209.519 689.476 225.327 663.358"/>
</svg>