<svg class="shirtOverlay" width="86" height="380" viewBox="202.715 584.407 86.593 380.048" preserveAspectRatio="xMidYMax" xmlns="http://www.w3.org/2000/svg" xmlns:xlink="http://www.w3.org/1999/xlink"><defs><pattern id="e" width="20" height="20" patternUnits="userSpaceOnUse" viewBox="0 0 100 100"><path transform="matrix(.98367 .18 0 1.0166 0 67.818)" fill="#00f3ff" d="M1.656.709h92.388v17.189H1.656z"/><g stroke="#000"><path fill="#666a9b" d="M217.57 786.191l31.568 84.18 37.138-87.893-4.333-8.047-34.043 68.706z" transform="matrix(1 0 0 .72902 -203.389 -535.34)"/><path fill="#666a9b" d="M218.189 775.669l8.666 16.093 19.188 29.711 29.711-53.232-9.285-17.95-23.521 48.28z" transform="matrix(1 0 0 .72902 -203.389 -535.34)"/><path fill="url(#a)" d="M218.808 762.671l8.666-10.523 15.474 21.664 21.045-27.854-21.664 42.09z" transform="matrix(1 0 0 .72902 -203.389 -535.34)"/></g><g stroke="#000"><path fill="url(#b)" d="M217.57 786.191l31.568 84.18 37.138-87.893-4.333-8.047-33.791 69.237z" transform="matrix(.20746 .97825 -.71316 .15124 592.817 -315.737)"/><path fill="url(#c)" d="M218.189 775.669l8.666 16.093 19.188 29.711 29.711-53.232-9.285-17.95-23.521 48.28z" transform="matrix(.20746 .97825 -.71316 .15124 592.817 -315.737)"/><path fill="url(#d)" d="M218.808 762.671l8.666-10.523 15.474 21.664 21.045-27.854-21.664 42.09z" transform="matrix(.20746 .97825 -.71316 .15124 592.817 -315.737)"/></g><path transform="matrix(.98367 .18 0 1.0166 6.071 11.462)" fill="#00f3ff" d="M.451.709h25.166v17.189H.451z"/></pattern><pattern id="f" patternTransform="matrix(.98421 -.28431 .37782 1.30794 240.47 836.305)" xlink:href="#e"/><linearGradient id="b" gradientUnits="userSpaceOnUse" x1="251.923" y1="774.431" x2="251.923" y2="870.371" gradientTransform="matrix(.98399 -.24448 .31024 2.34946 -265.987 -1112.945)"><stop offset="0" stop-color="#9b6688"/><stop offset="1" stop-color="#fff700"/></linearGradient><linearGradient id="c" gradientUnits="userSpaceOnUse" x1="246.971" y1="750.291" x2="246.971" y2="821.473"><stop offset="0" stop-color="#9b6688"/><stop offset="1" stop-color="#5e3d52"/></linearGradient><linearGradient id="d" gradientUnits="userSpaceOnUse" x1="241.401" y1="745.958" x2="241.401" y2="788.048"><stop offset="0" stop-color="#9b6688"/><stop offset="1" stop-color="#5e3d52"/></linearGradient><linearGradient id="a" gradientUnits="userSpaceOnUse" x1="241.401" y1="745.958" x2="241.401" y2="788.048"><stop offset="0" stop-color="#666a9b"/><stop offset=".716" stop-color="#fff300"/><stop offset="1" stop-color="#3d405e"/></linearGradient></defs><path d="M241.71 870.821c3.127 0 2.739 18.934 2.476 20.377-2.636 14.465 4.775 36.389 7.428 50.944.431 2.364 2.037 13.344 3.714 14.264.895.491 5.825-5.574 9.284-7.471 7.512-4.122 11.811-16.412 16.093-25.812 1.394-3.06 7.428-8.993 7.428-12.227 0-24.922-38.376-34.496-38.376-59.094M261.517 938.745c0-7.99-4.952-21.728-4.952-29.207M272.659 924.482c0-6.069-7.095-36.68-11.142-36.68M281.943 911.576c.189 0-6.255-27.17-12.998-27.17" stroke="#000" fill="#5afafa"/><path stroke="#000" fill="url(#f)" d="M226.855 750.91l-9.904 14.236v40.852l31.568 86.657 2.476-8.047 10.523 11.76-5.572-12.998 12.38-1.239-9.904-6.189 16.094-1.857-14.237-3.095-.619-8.665 27.235-75.515-3.714-10.522-17.95-21.664z"/><g color="#000"><path style="isolation:auto;mix-blend-mode:normal;marker:none" d="M237.817 677.337l-6.989 5.86-1.398 1.461 1.398 1.428 13.977-.168 1.398-1.46-1.398-1.428z" overflow="visible" fill="#9f00fd"/><path d="M251.793 677.169l-6.988 5.86-1.398 1.462 1.398 1.427 13.977-.168 1.397-1.46-1.397-1.428z" style="isolation:auto;mix-blend-mode:normal;marker:none" overflow="visible" fill="#e90056"/><path d="M265.77 677.001l-6.988 5.86-1.398 1.462 1.398 1.427 13.976-.167 1.398-1.461-1.398-1.428z" style="isolation:auto;mix-blend-mode:normal;marker:none" overflow="visible" fill="#00e9cf"/><path d="M230.828 686.086l-6.988-5.693-1.398-1.428 1.398-1.46 13.977-.168 1.397 1.427-1.397 1.461z" style="isolation:auto;mix-blend-mode:normal;marker:none" overflow="visible" fill="#28ff11"/><path style="isolation:auto;mix-blend-mode:normal;marker:none" d="M244.805 685.918l-6.988-5.693-1.398-1.427 1.398-1.461 13.976-.168 1.398 1.427-1.398 1.461z" overflow="visible" fill="#ff2054"/><path style="isolation:auto;mix-blend-mode:normal;marker:none" d="M258.782 685.75l-6.989-5.693-1.397-1.427 1.397-1.461L265.77 677l1.398 1.428-1.398 1.46z" overflow="visible" fill="#ffda48"/><path d="M272.758 685.583l-6.988-5.693-1.398-1.428 1.398-1.46 13.977-.169 1.397 1.428-1.397 1.46z" style="isolation:auto;mix-blend-mode:normal;marker:none" overflow="visible" fill="#46e300"/><path d="M230.828 671.643l-6.988 5.861-1.398 1.461 1.398 1.428 13.977-.168 1.397-1.461-1.397-1.427z" style="isolation:auto;mix-blend-mode:normal;marker:none" overflow="visible" fill="#e43a00"/><path style="isolation:auto;mix-blend-mode:normal;marker:none" d="M244.805 671.476l-6.988 5.86-1.398 1.462 1.398 1.427 13.976-.168 1.398-1.46-1.398-1.428z" overflow="visible" fill="#ff3ad6"/><path style="isolation:auto;mix-blend-mode:normal;marker:none" d="M258.782 671.308l-6.989 5.86-1.397 1.462 1.397 1.427 13.977-.167 1.398-1.461L265.77 677z" overflow="visible" fill="#00fe81"/><path d="M272.758 671.14l-6.988 5.861-1.398 1.461 1.398 1.428 13.977-.168 1.397-1.461-1.397-1.428z" style="isolation:auto;mix-blend-mode:normal;marker:none" overflow="visible" fill="#94d500"/><path style="isolation:auto;mix-blend-mode:normal;marker:none" d="M223.84 680.393l-4.513-4.455-1.397-1.428 1.397-1.46 11.501-1.407 1.398 1.428-1.398 1.46-6.988 5.862z" overflow="visible" fill="#ff4520"/><path d="M237.817 680.225l-6.989-5.693-1.398-1.428 1.398-1.46 13.977-.168 1.398 1.427-1.398 1.461z" style="isolation:auto;mix-blend-mode:normal;marker:none" overflow="visible" fill="#fdff0b"/><path d="M251.793 680.057l-6.988-5.693-1.398-1.427 1.398-1.461 13.977-.168 1.397 1.427-1.397 1.461z" style="isolation:auto;mix-blend-mode:normal;marker:none" overflow="visible" fill="#e16c00"/><path style="isolation:auto;mix-blend-mode:normal;marker:none" d="M265.77 679.89l-6.988-5.694-1.398-1.427 1.398-1.461 13.976-.168 1.398 1.428-1.398 1.46z" overflow="visible" fill="#8b3bff"/><path d="M223.84 665.95l-6.988 8.337-1.398 1.461 1.398 1.428 13.976-2.644 1.398-1.461-1.398-1.428-6.988-5.693z" style="isolation:auto;mix-blend-mode:normal;marker:none" overflow="visible" fill="#db00ff"/><path style="isolation:auto;mix-blend-mode:normal;marker:none" d="M237.817 665.783l-6.989 5.86-1.398 1.461 1.398 1.428 13.977-.168 1.398-1.46-1.398-1.428z" overflow="visible" fill="#ff7622"/><path style="isolation:auto;mix-blend-mode:normal;marker:none" d="M251.793 665.615l-6.988 5.86-1.398 1.462 1.398 1.427 13.977-.168 1.397-1.46-1.397-1.428z" overflow="visible" fill="#32ff46"/><path d="M265.77 665.447l-6.988 5.861-1.398 1.461 1.398 1.427 13.976-.167 1.398-1.461-1.398-1.428z" style="isolation:auto;mix-blend-mode:normal;marker:none" overflow="visible" fill="#e93700"/><path d="M230.828 674.532l-6.988-5.693-1.398-1.428 1.398-1.46 13.977-.168 1.397 1.427-1.397 1.461z" style="isolation:auto;mix-blend-mode:normal;marker:none" overflow="visible" fill="#6300d8"/><path d="M244.805 674.364l-6.988-5.693-1.398-1.427 1.398-1.461 13.976-.168 1.398 1.427-1.398 1.461z" style="isolation:auto;mix-blend-mode:normal;marker:none" overflow="visible" fill="#ff0f0d"/><path style="isolation:auto;mix-blend-mode:normal;marker:none" d="M258.782 674.196l-6.989-5.693-1.397-1.427 1.397-1.461 13.977-.168 1.398 1.428-1.398 1.46z" overflow="visible" fill="#001eed"/><path d="M230.828 660.09l-6.988 5.86-1.398 1.461 1.398 1.428 13.977-.168 1.397-1.46-1.397-1.428z" style="isolation:auto;mix-blend-mode:normal;marker:none" overflow="visible" fill="#ff20cf"/><path d="M244.805 659.922l-6.988 5.86-1.398 1.462 1.398 1.427 13.976-.168 1.398-1.46-1.398-1.428z" style="isolation:auto;mix-blend-mode:normal;marker:none" overflow="visible" fill="#0003f5"/><path style="isolation:auto;mix-blend-mode:normal;marker:none" d="M258.782 659.754l-6.989 5.86-1.397 1.462 1.397 1.427 13.977-.167 1.398-1.461-1.398-1.428z" overflow="visible" fill="#ff18d9"/><path style="isolation:auto;mix-blend-mode:normal;marker:none" d="M237.817 668.671l-6.989-5.693-1.398-1.427 1.398-1.461 13.977-.168 1.398 1.427-1.398 1.461z" overflow="visible" fill="#ff425d"/><path d="M251.793 668.503l-6.988-5.693-1.398-1.427 1.398-1.461 13.977-.168 1.397 1.428-1.397 1.46z" style="isolation:auto;mix-blend-mode:normal;marker:none" overflow="visible" fill="#14e900"/></g><path d="M257.17 721.482c-.075-.249-.574-1.946-1.108-3.771l-.973-3.32 1.12-1.375c.615-.756 1.12-1.582 1.12-1.836 0-.786-1.194-.479-2.487.64-1.407 1.218-2.871 1.434-2.871.424 0-.356.476-1.21 1.057-1.9.582-.689 1.064-1.375 1.071-1.523.032-.595-.98-.22-1.798.667-1.355 1.47-2.607 2.02-3.348 1.47-.558-.413-.465-.62 1.024-2.298 1.468-1.655 2.005-2.643 1.434-2.643-.111 0-1.09.732-2.175 1.628-2.122 1.75-3.87 2.163-4.304 1.017-.165-.434.25-1.038 1.44-2.1 1.587-1.414 2.108-2.354 1.303-2.354-.202 0-1.168.64-2.145 1.424-2.102 1.682-3.049 2.05-3.755 1.456-.79-.665-.662-.96 1.268-2.914.982-.995 1.785-1.964 1.785-2.153 0-.77-1.258-.262-2.707 1.09-1.57 1.466-2.944 2.062-3.899 1.69-.838-.326-.656-.764 1.07-2.563.885-.921 1.608-1.904 1.608-2.183 0-.68-1.393-1.635-2.382-1.635-.668 0-.893.352-1.406 2.204-.808 2.916-1.422 3.158-4.188 1.647-3.99-2.179-8.452-7.249-8.452-9.601 0-.932 1.706-2.334 4.786-3.932 2.38-1.235 2.779-1.325 6.506-1.461 3.427-.127 4.2-.044 5.625.595.91.407 1.654.962 1.654 1.234 0 .271-.563 1.44-1.25 2.596-.688 1.157-1.25 2.33-1.25 2.607 0 .472 1.972 1.936 2.612 1.94.16 0 .758-1.045 1.33-2.323.996-2.227 1.971-3.106 2.84-2.562.655.41.4 3.7-.421 5.41-.793 1.655-.708 2.448.182 1.7.269-.227.771-1.045 1.116-1.819.637-1.431 1.978-2.485 2.637-2.072.881.552.824 2.37-.144 4.555-1.061 2.395-.873 3.331.336 1.674 1.577-2.164 1.957-2.566 2.195-2.326.419.423-1.597 3.743-3.795 6.252-1.156 1.32-2.102 2.473-2.102 2.563 0 .555 1.01-.079 2.697-1.696 1.906-1.826 3.731-4.965 3.731-6.418 0-.398.162-.826.36-.95.694-.434.821 1.027.23 2.643-.734 2.007-.555 2.293.517.824.989-1.354 1.505-1.403 2.049-.193.343.761.29 1.164-.3 2.336-1.284 2.552-.656 3.549.802 1.27.443-.693.996-1.264 1.228-1.266.708-.007.934 1.467.453 2.943-.25.769-.34 1.514-.199 1.656.347.352.919-.625.926-1.58.005-.71.244-.793 2.773-.974 1.522-.108 3.288-.307 3.924-.44 1.517-.319 2.95.066 2.95.792 0 .318-1.618 2.22-3.598 4.226-3.108 3.15-3.819 4.108-5.223 7.03-1.61 3.355-2.339 4.43-3 4.43-.189 0-.404-.203-.48-.452zm2.161-4.096c.202-.818-1.452-3.049-2.26-3.049-.58 0-.576.072.135 2.303.326 1.022.659 2.102.74 2.4.12.44.248.405.673-.18.29-.398.61-1.062.712-1.474zm1.212-2.855c0-.291-.322-.704-.714-.917-.805-.436-.882-.268-.346.747.437.826 1.06.925 1.06.17zm1.428-2.394c0-.43-1.801-1.161-2.103-.854-.306.312 1.392 1.648 1.783 1.403.176-.11.32-.358.32-.55zm2.044-1.658c.139-.423-.234-.59-2.223-.996l-1.071-.219 1.071.912c1.097.934 1.976 1.054 2.223.303zm-6.52-2.77c.595-.982.594-1.003-.042-.584-.363.24-1.211 1.187-1.883 2.106l-1.224 1.67 1.266-1.086c.696-.596 1.543-1.544 1.883-2.105zm8.897-.115c.656-.912.656-.928 0-.741-.37.104-1.635.311-2.814.458l-2.143.268 1.43.457c2.11.677 2.783.592 3.527-.442zm-12.955-.233c.656-.506 2.24-3.499 1.988-3.754-.169-.171-1.4 1.382-2.555 3.224-.654 1.044-.403 1.278.567.53zm-6.154-4.782c1.088-1.256 2.908-4.58 3.415-6.24.18-.581.105-.812-.26-.812-.282 0-1.007 1.017-1.612 2.26-.605 1.243-1.752 3.145-2.548 4.225-.797 1.081-1.45 2.104-1.45 2.274 0 .535 1.286-.36 2.455-1.707zm-3.657-2.41c1.189-1.282 3.346-5.483 3.346-6.515 0-1.075-.701-1.106-1.096-.049-.777 2.076-2.535 5.289-3.974 7.261-1.367 1.875-1.401 1.974-.439 1.273.574-.42 1.548-1.305 2.163-1.97zm-7.747-.324c.308-.883.925-2.257 1.371-3.053 2.068-3.687 2.73-4.787 3.557-5.909 1.147-1.556.808-1.887-2.267-2.21-2.823-.295-5.255.03-8.01 1.071-1.925.728-4.274 2.3-3.916 2.62.099.088 1.585 1.08 3.304 2.206 1.719 1.125 3.125 2.187 3.125 2.361 0 .174-.234.512-.52.753-.423.355-.907.156-2.583-1.06-2.241-1.625-2.991-1.385-1.311.42 1.337 1.437 5.876 4.681 6.332 4.527.196-.066.609-.843.918-1.726zm-3.346-5.972c-.309-.313-.562-.813-.562-1.11 0-.829 1.795-3.025 2.472-3.025 1.601 0 2.02 2.595.63 3.916-.978.93-1.77.999-2.54.219zm9.796 3.803a.35.35 0 0 0-.357-.341c-.197 0-.358.254-.358.564 0 .31.16.463.358.34.196-.122.357-.376.357-.563zm-2.143-1.267c0-.087-.161-.16-.358-.16-.196 0-.357.173-.357.384 0 .21.161.282.357.16.197-.124.358-.296.358-.384z"/></svg>