<svg class="shirtOverlay" width="86" height="380" viewBox="202.715 584.407 86.593 380.048" preserveAspectRatio="xMidYMax" xmlns="http://www.w3.org/2000/svg" xmlns:xlink="http://www.w3.org/1999/xlink"><defs><pattern id="a" width="20" height="20" patternUnits="userSpaceOnUse" viewBox="0 0 100 100"><path d="M118.568 231.841c0 .21-23.616-7.866-23.449-4.431 2.583-.726 6.76 1.975 9.568 6.679 5.548 9.292 5.189 16.724-1.562 31.844-2.1 4.72-4.863 12.85-6.12 18.07-1.257 5.225-2.695 10.288-3.188 11.25-1.188 2.322-5.102 2.236-12.406-.281-14.114-4.86 130.313 123.856 5.963 95.81-47.069-10.616-73.316-89.168-58.869-83.248 4.95 2.028 9.106 3.808 9.25 3.937.144.129-1.957 4.903-4.687 10.625-8.403 17.609-13.428 35.665-16.125 57.906-2.264 18.662.394 28.188 11 39.375 15.629 16.486 42.305 27.049 75.562 29.938 2.2.191 8.95.37 15 .406l11 .063-8.157-1.344c-31.647-5.316-53.917-21.085-65.75-46.531-4.926-10.594-5.385-13.69-.781-5.187 7.02 12.963 13.178 19.694 26.094 28.5 19.605 13.367 42.752 19.887 70.594 19.875 20.468-.009 37.823-3.18 57.812-10.562 31.183-11.517 40.587-15.581 53.469-23.156 28.756-16.911 61.982-46.539 81.875-72.969 5.386-7.156 5.454-7.275 5.156-13.469l-.312-6.25-4.469 6.343c-5.743 8.201-17.777 20.29-31.031 31.125-36.2 29.594-65.089 41.907-102 43.5-21.107.911-38.679-1.978-55.312-9.125-33.054-14.201-47.584-36.359-50.625-77.219-1.167-15.681.02-43.005 2.063-47.812l1.25-3 .343 3c1.248 10.99 5.875 32.251 9.25 42.531 7.088 21.584 20.314 44.41 31.969 55.188 17.489 16.173 41.231 24.113 72.062 24.094 22.729-.014 43.777-4.597 61-13.312 21.439-10.848 45.245-31.083 59.844-50.844l6.15-8.36v-14.56c0-8.019-.178-14.385-.406-14.156-.228.23-1.572 3.446-2.969 7.157-10.187 27.073-40.629 58.815-69.312 72.25-27.826 13.034-59.871 13.95-83.312 2.375-7.003-3.458-10.172-5.885-18-13.781-7.571-7.638-10.469-11.421-14.219-18.625-6.36-12.22-11.26-27.41-13.75-42.47-4-24.23-6.03-34.03-8.91-42.97-1.59-4.96-2.7-9.03-2.46-9.03.567 0 4.072 8.096 6.5 15 1.064 3.025 4.571 15.625 7.813 28 6.697 25.568 10.604 37.234 16.062 48 9.903 19.532 24.285 31.267 43.594 35.562 6.236 1.387 10.575 1.604 22.781 1.125 21.947-.863 36.79-4.705 53.594-13.875 26.157-14.275 46.795-40.925 57.906-74.75 3.988-12.142 3.924-13.488-.219-4-17.161 39.302-55.961 64.689-95.688 62.625-5.775-.3-13.2-1.257-16.5-2.125-8.222-2.164-22.649-9.457-30.625-15.5-9.334-7.073-22.651-21.427-31.469-33.875-11.02-15.557-27.177-49.431-26-54.531.145-.63.069-.741-.187-.25-.919 1.754-5.772-11.797-13.688-38.25-7.512-25.102-13.813-36.457-27.281-49.25-10.653-10.119-19.465-14.206-31.906-14.75a90.012 90.012 0 0 0-4.625-.094c-4.153.03-7.01.479-10.156 1.469-3.078.968-5.421 1.955-5.188 2.187.233.233 3.449 1.043 7.125 1.813 8.344 1.745 16.583 5.484 22.094 10 10.259 8.406 22.272 33.193 22.375 46.156l.03 2.2-5.75-2.63c-6.982-3.197-14.222 1.831-17.031-.938-71.27-70.253 26.692 8.682 35.087 18.204 4.359 4.945-20.259 9.464-20.259 9.889l23.518 13.439z" transform="matrix(.1842 0 0 .1842 35.426 9.949)"/><path d="M197.53 434.41c5.514-.806 11.364-1.902 13-2.437 2.52-.823 2.286-.881-1.526-.38-35.867 4.723-63.055-.72-89.24-17.863-29.245-19.148-46.06-42.13-55.202-75.441-2.967-10.813-3.348-6.557-.547 6.111 5.73 25.915 22.882 54.596 41.425 69.268 24.759 19.59 54.352 26.255 92.09 20.742z" fill="#520" transform="matrix(.1842 0 0 .1842 35.426 9.949)"/><path d="M227.5 311.58c-13.922-2.727-30.25-9.862-41.435-18.106-8.816-6.497-15.374-13.482-21.693-23.102-8.666-13.193-12.687-23.726-17.897-46.873-.867-3.85-1.85-8.125-2.184-9.5-.335-1.375-.51-3.285-.388-4.244.396-3.13-4.966-32.75-7.532-41.605-5.634-19.44-14.814-33.264-26.21-39.466-14.373-7.824-38.296-7.467-59.285.884-7.604 3.05-9.691 3.45-17.744 3.45-5.281 0-9.126-.41-9.126-.98 0-1.99 13.595-12.1 21.415-15.92 24.456-11.94 53-11.67 78.585.75 9.98 4.844 19.828 14.42 24.003 23.342 5.135 10.973 6.038 17.52 6.94 50.308.787 28.582.95 30.378 3.467 38 6.16 18.654 12.947 30.03 25.075 42.02 20.22 19.99 48.408 25.463 78.994 15.337 11.906-3.942 18.4-7.798 27.184-16.143 16.06-15.256 23.68-34.237 23.77-59.215.038-10.717-.342-14.23-2.162-20-2.781-8.82-10.745-24.634-19.892-39.5-9.617-15.631-10.89-19.275-10.832-31 .04-8.1.438-10.348 2.696-15.253 7.72-16.778 27.16-26.905 51.75-26.958 5.225-.012 10.625.452 12 1.03 2.5 1.05 2.5 1.051-.59 1.114-5.654.116-18.423 3.961-25.496 7.678-8.02 4.215-14.979 11.317-16.689 17.034-5.192 17.355.138 34.184 20.935 66.098 16.478 25.287 21.751 38.851 22.583 58.096.651 15.046-.402 20.55-6.246 32.658-7.306 15.137-21.839 30.26-36.349 37.826-8.238 4.296-22.876 9.011-34.692 11.175-12.373 2.266-34.11 2.813-42.955 1.08z" transform="matrix(.1842 0 0 .1842 35.426 9.949)"/><path d="M348.09 42.531c-36.465 4.414-73.606 22.804-91.62 56.091-6.81 11.962-7.649 26.878-4.058 39.906 8.62 22.017 31.387 33.467 42.835 53.409 8.076 13.002 1.658 32.32-6.928 40.248-5.932 5.444-13.47 10.642-23.73 13.627-23.55 7.2-48.28-5.13-63.59-22.85-4.608-5.58-.905-1.104-4.166-5.116-24.13-36.49-35.68-81.8-69.06-111.79-14.78-12.67-33.798-18.713-51.575-25.832-22.186-6.064-54.9-6.212-74.156 8.193-.887 2.485-6.63 34.919-1.858 29.269 14.592-17.67 47.782-40.17 70.245-35.612 5.02.554 18.817 4.34 4.91 3.484-27.376-2.911-63.374 18.268-68.89 46.248 9.236 2.73 2.458 4.35 12.054 1.47 14.403-17.31 33.045-33.302 56.558-34.897 34.43-4.256 69.83 18.703 79.042 52.357 7.437 27.12-4.215 56.908 8.963 82.979 1.6 11.224 12.677 19.616 20.804 27.923 22.856 18.445 55.228 18.054 82.2 10.35 25.67-7.725 44.031-33.747 41.898-60.62 1.3-20.424-10.13-37.964-21.027-54.127-10.44-15.364-20.479-35.97-10.37-54.067 13.463-22.362 41.92-27.006 65.843-28.982 13.166 2.281 7.062-25.841 5.682-31.663z" transform="matrix(.1842 0 0 .1842 35.426 9.949)"/><path d="M274.28 184.75c4.09 11.843 3.115 28.171-9.244 34.646-6.971 5.424-14.041 11.678-23.378 12.002-9.903 3.666-19.49-4.655-28.44-2.41 8.51 11.376 24.208 13.669 37.497 13.433 9.657.249 18.614-3.494 26.273-9.165 9.255-4.454 9.937-16.385 9.677-25.425-.714-9.016-6.558-16.583-12.385-23.08zM345.71 161.75c-22.97-36.01-27.29-57.68-13.55-68.031C335.88 90.923 343.74 88 347.55 88h2.483l-.06 39.5c-.032 21.725-.252 39.5-.487 39.5s-1.935-2.362-3.777-5.25zM253.03 96.934c-.09-7.685 4.28-23.489 9.25-33.434 10.3-20.629 29.96-39.168 54.57-51.453C325.7 7.628 344.32 1 347.88 1c2.03 0 2.12.456 2.12 10.871v10.871l-7.147.704c-36.435 3.59-70.712 30.234-85.938 66.8-2.469 5.927-3.865 8.331-3.885 6.688z" transform="matrix(.1842 0 0 .1842 35.426 9.949)"/><path d="M280.38 210c-3.829 10.775-14.301 16.73-23.344 22.625-3.01 1.593-6.157 2.99-9.406 3.938 11.186-.09 23.985-3.588 30.719-13.094 2.237-4.397 2.828-9.368 2.312-14.281l-.28.81z" fill="#520" transform="matrix(.1842 0 0 .1842 35.426 9.949)"/><path d="M169.28 301.72s8.962 40.826 48.792 43.814c39.831 2.987 41.822 5.975 41.822 5.975s-59.746 6.97-71.695-5.975c-11.95-12.95-19.92-39.83-18.92-43.81zM169.28 183.22s16.928 64.725 41.822 68.708-6.97 16.928-22.903 0c-15.93-16.93-19.92-67.71-18.92-68.71zM325.61 188.2s24.894 30.869 9.958 59.746-23.898 35.847-23.898 35.847 26.886-24.894 20.91-58.75c-5.974-33.856-5.974-33.856-6.97-36.843z" stroke="#000" fill="#520" transform="matrix(.1842 0 0 .1842 35.426 9.949)"/><g><g clip-path="url(#p.0)" transform="matrix(.11557 0 0 .1354 2.91 3.834)"><path fill-opacity="0" d="M0 0h561.543v523.165H0z"/><path fill="#ff551b" d="M220.314 155.788c-6.401-74.658 9.378-136.979 35.244-139.197 12.422-1.065 25.555 12.156 36.512 36.754s18.84 58.56 21.914 94.412c6.4 74.658-9.378 136.979-35.244 139.196-12.422 1.065-25.556-12.155-36.512-36.754-10.957-24.598-18.84-58.559-21.914-94.411z"/><path fill="#ff551b" d="M314.521 153.85c41.461-62.413 92.6-101.361 114.221-86.993 10.383 6.9 12.432 25.423 5.695 51.495-6.736 26.072-21.706 57.557-41.616 87.529-41.46 62.412-92.599 101.36-114.22 86.992-10.384-6.9-12.433-25.423-5.696-51.495s21.706-57.557 41.616-87.529z"/><path fill="#ff551b" d="M231.558 374.513c0-74.928 21.046-135.67 47.008-135.67 12.467 0 24.424 14.295 33.24 39.737 8.815 25.443 13.767 59.951 13.767 95.933 0 74.928-21.046 135.67-47.007 135.67-12.468 0-24.424-14.294-33.24-39.737-8.816-25.443-13.768-59.951-13.768-95.933z"/><path fill="#ff551b" d="M394.678 321.642c43.41 61.073 61.445 122.773 40.284 137.81-10.162 7.222-28.188 2.497-50.114-13.135-21.925-15.632-45.954-40.89-66.8-70.219-43.408-61.073-61.444-122.773-40.283-137.81 10.162-7.222 28.188-2.497 50.114 13.135 21.925 15.632 45.954 40.89 66.8 70.219z"/><path fill="#ff551b" d="M412.419 211.06c74.928 0 135.669 21.045 135.669 47.007 0 12.467-14.294 24.424-39.737 33.24-25.443 8.815-59.95 13.768-95.932 13.768-74.928 0-135.67-21.046-135.67-47.008 0-12.467 14.294-24.424 39.737-33.24 25.443-8.815 59.95-13.768 95.933-13.768z"/><path fill="#ff551b" d="M146.517 224.382c-60.23-44.565-96.534-97.614-81.087-118.488 7.418-10.024 26.021-11.136 51.718-3.091 25.697 8.045 56.382 24.587 85.306 45.989 60.229 44.565 96.533 97.614 81.086 118.488-7.418 10.024-26.021 11.136-51.718 3.09-25.697-8.044-56.382-24.587-85.305-45.988z"/><path fill="#ff551b" d="M152.302 318.319c-74.545 7.575-137.106-7.224-139.732-33.055-1.262-12.405 11.75-25.747 36.17-37.09 24.421-11.344 58.252-19.76 94.05-23.399C217.336 217.2 279.896 232 282.522 257.83c1.262 12.405-11.75 25.747-36.17 37.09-24.421 11.344-58.252 19.76-94.05 23.399z"/><path fill="#ff551b" d="M234.656 381.73c-42.443 61.751-94.195 99.888-115.59 85.18-10.275-7.062-12.032-25.616-4.885-51.578 7.147-25.963 22.613-57.208 42.995-86.862 42.443-61.752 94.195-99.889 115.59-85.182 10.275 7.063 12.032 25.617 4.885 51.58-7.147 25.962-22.613 57.207-42.995 86.861z"/><path fill="#fff" d="M245.324 208.298c-3.624-37.53 5.309-68.859 19.952-69.974 7.031-.535 14.466 6.11 20.669 18.476 6.203 12.366 10.665 29.438 12.405 47.46 3.624 37.532-5.309 68.86-19.952 69.975-14.642 1.115-29.45-28.406-33.074-65.937z"/><path fill="#fff" d="M298.655 207.324c23.47-31.375 52.42-50.954 64.66-43.731 5.878 3.468 7.037 12.78 3.224 25.886-3.814 13.107-12.288 28.934-23.56 44.001-23.47 31.375-52.42 50.954-64.66 43.73-12.24-7.222-3.135-38.511 20.336-69.886z"/><path fill="#fff" d="M251.689 318.251c0-37.666 11.914-68.2 26.61-68.2 7.059 0 13.827 7.185 18.818 19.975 4.99 12.79 7.794 30.137 7.794 48.225 0 37.667-11.914 68.201-26.611 68.201-14.697 0-26.611-30.534-26.611-68.2z"/><path fill="#fff" d="M344.031 291.673c24.574 30.702 34.784 61.718 22.805 69.278-5.753 3.63-15.957 1.255-28.37-6.604-12.412-7.858-26.014-20.555-37.815-35.299-24.573-30.701-34.783-61.718-22.804-69.277 11.979-7.56 41.61 11.2 66.184 41.902z"/><path fill="#fff" d="M354.074 236.083c42.417 0 76.802 10.58 76.802 23.631 0 6.267-8.091 12.278-22.494 16.71-14.404 4.431-33.939 6.92-54.308 6.92-42.417 0-76.802-10.58-76.802-23.63 0-6.267 8.091-12.278 22.495-16.71 14.403-4.431 33.938-6.92 54.307-6.92z"/><path fill="#fff" d="M203.547 242.78c-34.096-22.402-54.648-49.07-45.903-59.563 4.199-5.04 14.73-5.598 29.277-1.554 14.548 4.044 31.918 12.36 48.292 23.118 34.096 22.403 54.647 49.071 45.903 59.564-4.2 5.04-14.73 5.598-29.278 1.554-14.547-4.044-31.918-12.36-48.291-23.118z"/><path fill="#fff" d="M206.822 290.002c-42.2 3.809-77.615-3.63-79.102-16.616-.714-6.236 6.651-12.943 20.476-18.645 13.825-5.703 32.976-9.934 53.241-11.763 42.2-3.808 77.616 3.632 79.103 16.617.714 6.236-6.652 12.943-20.476 18.645-13.825 5.703-32.977 9.934-53.242 11.763z"/><path fill="#fff" d="M253.443 321.88c-24.027 31.042-53.324 50.213-65.436 42.82-5.816-3.55-6.811-12.878-2.765-25.93 4.046-13.05 12.801-28.757 24.34-43.665 24.026-31.042 53.323-50.214 65.435-42.82 12.112 7.393 2.453 38.552-21.574 69.594z"/><path fill="#f3c73a" d="M1187.644 144.842c-2.021-24.01 2.962-44.052 11.13-44.766 3.923-.342 8.07 3.91 11.53 11.82 3.461 7.911 5.95 18.833 6.921 30.363 2.022 24.01-2.961 44.053-11.13 44.766-3.923.342-8.07-3.91-11.53-11.82-3.46-7.911-5.95-18.833-6.92-30.363z"/><path fill="#f3c73a" d="M1217.395 144.219c13.093-20.072 29.243-32.598 36.07-27.977 3.28 2.219 3.927 8.176 1.8 16.56-2.128 8.385-6.855 18.511-13.143 28.15-13.093 20.072-29.243 32.597-36.07 27.977-3.28-2.22-3.927-8.177-1.8-16.561 2.128-8.385 6.855-18.51 13.143-28.15z"/><path fill="#f3c73a" d="M1191.195 215.184c0-24.097 6.646-43.631 14.845-43.631 3.937 0 7.713 4.597 10.497 12.78 2.784 8.182 4.348 19.28 4.348 30.851 0 24.097-6.646 43.631-14.845 43.631-3.937 0-7.713-4.597-10.497-12.779-2.784-8.182-4.348-19.28-4.348-30.852z"/><path fill="#f3c73a" d="M1242.709 198.18c13.708 19.642 19.404 39.485 12.721 44.32-3.209 2.323-8.902.804-15.826-4.224-6.924-5.027-14.512-13.15-21.095-22.582-13.709-19.641-19.404-39.484-12.722-44.32 3.21-2.322 8.902-.803 15.826 4.224 6.924 5.028 14.512 13.15 21.096 22.583z"/><path fill="#f3c73a" d="M1248.31 162.617c23.663 0 42.845 6.769 42.845 15.118 0 4.01-4.514 7.855-12.549 10.69-8.034 2.835-18.932 4.428-30.295 4.428-23.662 0-42.844-6.769-42.844-15.118 0-4.01 4.513-7.855 12.548-10.69 8.035-2.835 18.933-4.428 30.296-4.428z"/><path fill="#f3c73a" d="M1164.34 166.902c-19.021-14.332-30.486-31.393-25.608-38.106 2.342-3.224 8.217-3.581 16.333-.994 8.115 2.587 17.805 7.907 26.939 14.79 19.02 14.332 30.485 31.393 25.607 38.106-2.342 3.224-8.217 3.581-16.332.994-8.116-2.587-17.806-7.907-26.94-14.79z"/><path fill="#f3c73a" d="M1166.166 197.112c-23.541 2.436-43.298-2.323-44.127-10.63-.399-3.99 3.71-8.28 11.422-11.929 7.712-3.648 18.396-6.355 29.701-7.525 23.542-2.436 43.298 2.324 44.128 10.63.398 3.99-3.71 8.28-11.423 11.93-7.712 3.647-18.396 6.354-29.7 7.524z"/><path fill="#f3c73a" d="M1192.174 217.505c-13.404 19.86-29.747 32.124-36.504 27.394-3.245-2.271-3.8-8.238-1.542-16.588 2.257-8.35 7.14-18.398 13.577-27.935 13.404-19.859 29.747-32.124 36.504-27.394 3.245 2.272 3.8 8.238 1.542 16.588-2.257 8.35-7.14 18.398-13.577 27.935z"/><path fill="#ffc361" d="M1055.824 392.753c0-40.269 33.075-72.913 73.874-72.913 19.593 0 38.383 7.682 52.237 21.356 13.854 13.674 21.637 32.22 21.637 51.557 0 40.27-33.074 72.914-73.874 72.914s-73.874-32.645-73.874-72.914z"/></g></g></pattern><pattern id="b" patternTransform="matrix(1.27258 .2519 -.20725 1.04704 240.14 753.328)" xlink:href="#a"/></defs><path fill="url(#b)" d="M212.268 651.674l62.545-8.936-16.495 15.809 22.681 21.306.687 6.186-6.873 34.365 2.749 35.053 7.56 8.248v-1.375l-15.808 4.124-7.56-35.053.687-13.059v.688l-4.811 14.433 2.749 6.186 14.434 28.179 8.248 8.248 4.811 11.684-39.177 99.66-30.241-83.165-1.375-38.489 16.496-28.179 2.061-10.997-3.436-13.059-4.811-6.185 4.124 16.495.687 6.873-7.56 35.74-4.812-1.375-11.684 2.749h.688l9.622-19.244v-.687l.687-17.87-9.622-40.551 15.808-26.118z"/></svg>