<svg id="cape4" class="capes" width="86" height="380" viewBox="202.71499633789062 584.406982421875 198.848388671875 380.0480041503906" preserveAspectRatio="xMidYMid meet" xmlns="http://www.w3.org/2000/svg" xmlns:xlink="http://www.w3.org/1999/xlink"> <defs id="svgEditorDefs"> <path id="svgEditorClosePathDefs" class="lines" fill="black" style="stroke-width: 0px; stroke: none;"/> <pattern id="pattern-0" x="0" y="0" width="20" height="20" patternUnits="userSpaceOnUse" viewBox="0 0 100 100"> <g transform="matrix(0.252612, 0, 0, 0.338153, -0.688924, -1.136801)"> <g id="layer1" stroke-width="0" transform="translate(-194.84 -555.5)"> <path id="path5054" fill="#195e64" d="m198.12 555.5 51.88 51.88 51.88-51.88h-21.25l-30.63 30.62-30.62-30.62h-21.25z"/> <path id="path5052" fill="#37abc8" d="m228.12 555.5 21.88 21.88 21.88-21.88h-43.75z"/> <path id="path5050" fill="#442178" d="m311.53 555.5-61.53 61.5l-55.156-55.125v35.344l55.16 55.16 96.88-96.88h-35.344z"/> <path id="path5048" fill="#442178" d="m353.12 555.5 96.88 96.88 96.88-96.88h-35.35l-61.53 61.5-61.531-61.5h-35.344z"/> <path id="path5046" fill="#195e64" d="m398.12 555.5 51.88 51.88 51.88-51.88h-21.25l-30.63 30.62-30.62-30.62h-21.25z"/> <path id="path5044" fill="#37abc8" d="m428.12 555.5 21.88 21.88 21.88-21.88h-43.75z"/> <path id="path5042" fill="#442178" d="m553.12 555.5 41.719 41.719v-35.344l-6.375-6.375h-35.344z"/> <path id="path5040" fill="#a08" d="m350 561.12-100 100-55.156-55.156v21.25l55.16 55.17 100-100 100 100 100-100 44.844 44.844v-21.25l-44.84-44.85-100 100-100-100z"/> <path id="path5038" fill="#37abc8" d="m350 592.03-100 99.97l-55.156-55.125v35.344l55.16 55.16 100-100 100 100 100-100 44.844 44.844v-35.344l-44.84-44.85-100 99.97-100-99.97z"/> <path id="path5036" fill="#195e64" d="m350 636.12-100 100-55.156-55.156v21.25l55.16 55.17 100-100 100 100 100-100 44.844 44.844v-21.25l-44.84-44.85-100 100-100-100z"/> <path id="path5034" fill="#442178" d="m350 667.03-100 99.97l-55.156-55.125v35.344l55.16 55.16 100-100 100 100 100-100 44.844 44.844v-35.344l-44.84-44.85-100 99.97-100-99.97z"/> <path id="path5032" fill="#a08" d="m350 711.12-100 100-55.156-55.156v21.25l55.16 55.17 100-100 100 100 100-100 44.844 44.844v-21.25l-44.84-44.85-100 100-100-100z"/> <path id="path5030" fill="#37abc8" d="m350 742.03-100 99.97l-55.156-55.125v35.344l33.281 33.281h43.75l78.125-78.125 78.125 78.125h43.75l78.125-78.125 44.844 44.844v-35.344l-44.84-44.85-100 99.97-100-99.97z"/> <path id="path5028" fill="#195e64" d="m350 786.12-69.375 69.375h21.25l48.125-48.125 48.125 48.125h21.25l-69.37-69.38z"/> <path id="path5026" fill="#195e64" d="m550 786.12-69.375 69.375h21.25l48.125-48.125 44.844 44.844v-21.25l-44.84-44.85z"/> <path id="path5024" fill="#442178" d="m350 817.03-38.47 38.47h35.344l3.125-3.125 3.125 3.125h35.344l-38.47-38.47z"/> <path id="path5022" fill="#442178" d="m550 817.03-38.47 38.47h35.344l3.125-3.125 3.125 3.125h35.344l-38.47-38.47z"/> <path id="rect4565" fill="#195e64" d="m194.84 830.97v21.25l3.2812 3.2812h21.25l-24.531-24.531z"/> </g> </g> </pattern> <pattern id="pattern-0-0" patternTransform="matrix(3.453952, 0, 0, 2.573047, 272.694916, 789.502563)" xlink:href="#pattern-0"/> </defs> <path d="M 261.876 649.003 C 261.876 648.276 230.952 654.945 229.632 654.647 C 216.635 651.708 233.942 656.323 226.513 666.563 C 222.288 672.385 221.662 681.601 219.752 688.513 C 213.268 711.967 211.457 736.044 206.23 761.261 C 201.743 782.906 209.092 809.456 206.75 832.755 C 204.352 856.607 195.569 892.021 210.39 909.894 C 215.776 916.388 203.549 941.78 210.39 950.031 C 210.799 950.523 210.91 944.008 210.91 943.132 C 210.91 939.287 212.671 934.906 214.031 931.216 C 217.869 920.801 223.769 908.098 232.233 902.995 C 243.73 896.063 260.173 917.875 266.557 925.572 C 267.482 926.688 263.957 936.234 263.957 936.234 C 263.957 936.234 267.14 925.771 267.597 924.945 C 272.097 916.805 279.08 903.572 285.28 896.096 C 286.377 894.773 293.872 897.59 295.16 897.978 C 309.767 902.381 302.569 905.657 310.762 915.538 C 311.976 917.001 309.549 922.854 310.762 924.318 C 311.793 925.561 320.274 885.617 331.045 898.605 C 337.349 906.206 344.367 920.555 355.488 920.555 C 356.52 920.555 362.265 923.043 363.289 921.809 C 364.513 920.332 356.094 912.611 355.488 911.148 C 351.216 900.847 350.75 885.366 343.526 876.655 C 336.484 868.164 339.918 834.873 338.325 823.348 C 333.453 788.098 320.593 785.598 307.642 754.363 C 300.138 736.265 301.899 696.613 294.64 679.105 C 291.682 671.971 264.477 657.354 264.477 662.172" style="stroke: rgb(0, 0, 0); fill: url(#pattern-0-0);"/></svg>