<svg class="capes" width="86" height="380" viewBox="202.715 584.407 198.848 380.048" xmlns="http://www.w3.org/2000/svg"><path d="M261.876 649.003c0-.727-30.924 5.942-32.244 5.644-12.997-2.939 4.31 1.676-3.119 11.916-4.225 5.822-4.851 15.038-6.761 21.95-6.484 23.454-8.295 47.531-13.522 72.748-4.487 21.645 2.862 48.195.52 71.494-2.398 23.852-11.181 59.266 3.64 77.139 5.386 6.494-6.841 31.886 0 40.137.409.492.52-6.023.52-6.899 0-3.845 1.761-8.226 3.121-11.916 3.838-10.415 9.738-23.118 18.202-28.221 11.497-6.932 27.94 14.88 34.324 22.577.925 1.116-2.6 10.662-2.6 10.662s3.183-10.463 3.64-11.289c4.5-8.14 11.483-21.373 17.683-28.849 1.097-1.323 8.592 1.494 9.88 1.882 14.607 4.403 7.409 7.679 15.602 17.56 1.214 1.463-1.213 7.316 0 8.78 1.031 1.243 9.512-38.701 20.283-25.713 6.304 7.601 13.322 21.95 24.443 21.95 1.032 0 6.777 2.488 7.801 1.254 1.224-1.477-7.195-9.198-7.801-10.661-4.272-10.301-4.738-25.782-11.962-34.493-7.042-8.491-3.608-41.782-5.201-53.307-4.872-35.25-17.732-37.75-30.683-68.985-7.504-18.098-5.743-57.75-13.002-75.258-2.958-7.134-30.163-21.751-30.163-16.933" stroke="#000" fill="#e22424"/></svg>