<?xml version="1.0" encoding="utf-8"?>
<svg class="shirt" width="86" height="380" viewBox="202.715 584.407 86.5933 380.048" preserveAspectRatio="xMidYMax" xmlns="http://www.w3.org/2000/svg" xmlns:xlink="http://www.w3.org/1999/xlink">
  <defs id="svgEditorDefs">
    <path id="svgEditorClosePathDefs" fill="black" style="stroke-width: 0px; stroke: none;" class="clothes"/>
    <pattern id="pattern-0" x="0" y="0" width="20" height="20" patternUnits="userSpaceOnUse" viewBox="0 0 100 100">
      <path style="fill: rgb(192, 34, 14); stroke: none;" d="M 0.307 -0.055 C 3.956 2.089 5.173 2.056 9.635 1.57 C 6.335 0.304 3.971 0.086 0.307 -0.055 Z"/>
      <path style="fill: rgb(219, 141, 63); stroke: none;" d="M 9.635 -0.055 L 11.501 1.57 L 9.635 -0.055 Z"/>
      <path style="fill: rgb(243, 231, 231); stroke: none;" d="M 0.307 4.821 C 0.445 14.876 11.303 29.572 23.751 18.742 C 29.164 14.034 28.097 5.973 30.158 -0.055 C 25.177 0.813 25.6 -1.331 24.561 3.195 C 15.152 -0.676 9.572 1.955 0.307 4.821 Z"/>
      <path style="fill: rgb(219, 141, 63); stroke: none;" d="M 18.964 -0.055 L 20.83 1.57 L 18.964 -0.055 Z"/>
      <path style="fill: rgb(186, 112, 121); stroke: none;" d="M 20.83 -0.055 L 22.695 1.57 L 20.83 -0.055 Z"/>
      <path style="fill: rgb(151, 149, 170); stroke: none;" d="M 23.317 1.027 C 23.214 1.118 23.11 2.833 23.94 2.111 C 24.042 2.02 24.147 0.306 23.317 1.027 Z"/>
      <path style="fill: rgb(186, 112, 121); stroke: none;" d="M 26.427 -0.055 L 28.292 1.57 L 26.427 -0.055 Z"/>
      <path style="fill: rgb(192, 34, 14); stroke: none;" d="M 30.158 -0.055 C 32.694 13.181 47.364 1.112 30.158 -0.055 Z"/>
      <path style="fill: rgb(186, 112, 121); stroke: none;" d="M 39.487 -0.055 L 41.352 1.57 L 39.487 -0.055 Z"/>
      <path style="fill: rgb(243, 231, 231); stroke: none;" d="M 41.352 -0.055 C 39.399 5.703 37.031 7.488 30.158 8.071 C 37.662 12.727 46.852 7.271 41.352 -0.055 Z"/>
      <path style="fill: rgb(151, 149, 170); stroke: none;" d="M 43.218 -0.055 L 45.084 1.57 L 43.218 -0.055 Z"/>
      <path style="fill: rgb(31, 27, 50); stroke: none;" d="M 45.084 -0.055 L 45.084 6.446 C 46.783 4.208 47.703 2.48 48.815 -0.055 L 45.084 -0.055 Z"/>
      <path style="fill: rgb(186, 112, 121); stroke: none;" d="M 48.815 -0.055 L 50.681 1.57 L 48.815 -0.055 Z"/>
      <path style="fill: rgb(192, 34, 14); stroke: none;" d="M 50.681 -0.055 C 52.356 8.685 60.2 8.685 61.875 -0.055 L 50.681 -0.055 Z"/>
      <path style="fill: rgb(219, 141, 63); stroke: none;" d="M 61.875 -0.055 L 61.875 6.446 C 63.575 4.208 64.494 2.48 65.606 -0.055 L 61.875 -0.055 Z"/>
      <path style="fill: rgb(31, 27, 50); stroke: none;" d="M 65.606 -0.055 C 66.179 3.394 66.319 4.31 69.338 6.446 C 68.226 3.91 67.306 2.181 65.606 -0.055 Z"/>
      <path style="fill: rgb(192, 34, 14); stroke: none;" d="M 67.472 -0.055 L 67.472 4.821 C 69.366 2.968 69.914 2.201 71.204 -0.055 L 67.472 -0.055 Z"/>
      <path style="fill: rgb(243, 231, 231); stroke: none;" d="M 71.204 -0.055 C 69.166 4.993 68.105 7.809 73.069 11.321 C 72.754 6.969 73.286 4.065 74.935 -0.055 L 71.204 -0.055 Z"/>
      <path style="fill: rgb(192, 34, 14); stroke: none;" d="M 73.069 9.696 C 74.344 7.249 74.61 5.934 74.935 3.195 L 76.801 9.696 L 82.398 9.696 C 81.517 -0.162 72.629 -0.495 73.069 9.696 Z"/>
      <path style="fill: rgb(219, 141, 63); stroke: none;" d="M 80.532 -0.055 L 82.398 1.57 L 80.532 -0.055 Z"/>
      <path style="fill: rgb(151, 149, 170); stroke: none;" d="M 83.019 1.027 C 82.916 1.118 82.812 2.833 83.642 2.111 C 83.745 2.02 83.849 0.306 83.019 1.027 Z"/>
      <path style="fill: rgb(79, 62, 93); stroke: none;" d="M 84.885 1.027 C 84.782 1.118 84.678 2.833 85.508 2.111 C 85.61 2.02 85.715 0.306 84.885 1.027 Z"/>
      <path style="fill: rgb(31, 27, 50); stroke: none;" d="M 86.129 -0.055 C 86.941 18.173 68.192 9.145 54.412 11.321 C 59.119 12.93 62.543 12.324 67.472 11.321 C 64.575 16.062 62.42 17.283 56.278 17.822 C 57.562 25.11 56.623 29.007 48.815 32.449 C 56.815 42.26 49.795 48.399 37.621 50.326 C 43.487 54.864 46.102 57.986 45.084 64.953 L 43.218 58.452 C 40.117 61.689 41.765 64.223 40.005 68.203 C 37.246 74.444 19.501 94.77 33.89 97.457 C 32.983 89.727 33.237 85.344 41.352 81.205 C 41.311 69.759 53.849 63.594 46.949 51.951 C 56.368 47.162 55.136 40.544 58.756 32.449 C 61.599 26.094 66.728 20.943 69.338 14.572 C 75.567 16.493 79.558 17.419 86.129 16.197 L 86.129 34.074 C 88.816 28.495 87.995 22.21 87.995 16.197 C 90.943 17.307 91.31 17.504 93.592 19.447 C 95.316 16.767 96.295 14.287 97.323 11.321 C 93.417 12.303 90.178 12.984 86.129 12.947 C 89.56 8.181 89.666 4.689 86.129 -0.055 Z"/>
      <path style="fill: rgb(192, 34, 14); stroke: none;" d="M 87.995 -0.055 C 89.271 2.513 89.497 2.833 91.726 4.821 L 91.726 -0.055 L 87.995 -0.055 Z"/>
      <path style="fill: rgb(243, 231, 231); stroke: none;" d="M 91.726 -0.055 L 89.861 8.071 C 92.911 7.185 92.575 7.478 93.592 4.821 C 97.633 6.763 100.221 7.569 104.786 8.071 L 97.323 -0.055 L 91.726 -0.055 Z"/>
      <path style="fill: rgb(192, 34, 14); stroke: none;" d="M 97.323 -0.055 C 99.476 3.6 100.59 4.57 104.786 6.446 L 104.786 -0.055 L 97.323 -0.055 Z"/>
      <path style="fill: rgb(151, 149, 170); stroke: none;" d="M 0.928 2.653 C 0.826 2.744 0.721 4.458 1.551 3.737 C 1.654 3.646 1.759 1.931 0.928 2.653 Z"/>
      <path style="fill: rgb(186, 112, 121); stroke: none;" d="M 5.904 1.57 L 7.77 3.195 L 5.904 1.57 M 28.292 1.57 L 30.158 3.195 L 28.292 1.57 Z"/>
      <path style="fill: rgb(79, 62, 93); stroke: none;" d="M 47.571 2.653 C 47.468 2.744 47.364 4.458 48.194 3.737 C 48.296 3.646 48.401 1.931 47.571 2.653 Z"/>
      <path style="fill: rgb(243, 231, 231); stroke: none;" d="M 48.815 1.57 L 46.949 8.071 C 56.381 11.479 63.256 11.162 65.606 1.57 C 59.179 7.769 55.207 7.829 48.815 1.57 Z"/>
      <path style="fill: rgb(186, 112, 121); stroke: none;" d="M 3.417 3.737 C 2.587 4.458 4.557 4.369 4.66 4.278 C 5.49 3.556 3.52 3.646 3.417 3.737 M 11.772 4.936 C 2.531 9.21 9.367 21.706 18.688 17.681 C 28.347 13.511 21.572 0.403 11.772 4.936 Z"/>
      <path style="fill: rgb(219, 141, 63); stroke: none;" d="M 18.964 3.195 L 20.83 4.821 L 18.964 3.195 Z"/>
      <path style="fill: rgb(151, 149, 170); stroke: none;" d="M 27.048 4.278 C 26.945 4.369 26.841 6.083 27.671 5.362 C 27.774 5.271 27.878 3.556 27.048 4.278 Z"/>
      <path style="fill: rgb(79, 62, 93); stroke: none;" d="M 28.292 3.195 L 28.292 8.071 C 29.591 5.545 29.591 5.719 28.292 3.195 Z"/>
      <path style="fill: rgb(186, 112, 121); stroke: none;" d="M 71.204 3.195 L 73.069 4.821 L 71.204 3.195 M 74.935 3.195 L 74.935 9.696 C 76.26 6.836 76.26 6.054 74.935 3.195 M 82.398 3.195 L 82.398 8.071 C 83.696 5.545 83.696 5.719 82.398 3.195 Z"/>
      <path style="fill: rgb(71, 91, 186); stroke: none;" d="M 84.263 3.195 L 82.398 12.947 C 85.484 9.409 86.118 7.38 84.263 3.195 Z"/>
      <path style="fill: rgb(219, 141, 63); stroke: none;" d="M 7.77 4.821 L 9.635 6.446 L 7.77 4.821 Z"/>
      <path style="fill: rgb(151, 149, 170); stroke: none;" d="M 86.129 4.821 L 87.995 6.446 L 86.129 4.821 Z"/>
      <path style="fill: rgb(219, 141, 63); stroke: none;" d="M 89.861 4.821 L 91.726 6.446 L 89.861 4.821 Z"/>
      <path style="fill: rgb(31, 27, 50); stroke: none;" d="M 93.592 4.821 L 91.726 9.696 C 94.131 7.351 94.34 7.691 93.592 4.821 Z"/>
      <path style="fill: rgb(186, 112, 121); stroke: none;" d="M 30.158 6.446 L 32.024 8.071 L 30.158 6.446 Z"/>
      <path style="fill: rgb(79, 62, 93); stroke: none;" d="M 43.218 6.446 C 45.763 9.402 46.002 8.121 45.084 11.321 C 49.231 11.001 50.726 11.913 54.412 12.947 C 50.875 9.4 48.332 7.959 43.218 6.446 Z"/>
      <path style="fill: rgb(186, 112, 121); stroke: none;" d="M 60.009 6.446 L 61.875 8.071 L 60.009 6.446 Z"/>
      <path style="fill: rgb(151, 149, 170); stroke: none;" d="M 63.741 6.446 C 66.429 8.199 65.92 8.019 69.338 8.071 C 67.347 7.096 66.088 6.846 63.741 6.446 Z"/>
      <path style="fill: rgb(79, 62, 93); stroke: none;" d="M 65.606 6.446 L 67.472 8.071 L 65.606 6.446 Z"/>
      <path style="fill: rgb(186, 112, 121); stroke: none;" d="M 71.204 6.446 L 73.069 8.071 L 71.204 6.446 Z"/>
      <path style="fill: rgb(71, 91, 186); stroke: none;" d="M 87.995 6.446 C 89.271 9.014 89.497 9.334 91.726 11.321 C 90.45 8.754 90.224 8.432 87.995 6.446 Z"/>
      <path style="fill: rgb(151, 149, 170); stroke: none;" d="M 91.726 6.446 L 93.592 8.071 L 91.726 6.446 Z"/>
      <path style="fill: rgb(71, 91, 186); stroke: none;" d="M 95.458 6.446 L 97.323 8.071 L 95.458 6.446 Z"/>
      <path style="fill: rgb(31, 27, 50); stroke: none;" d="M 28.292 8.071 C 26.929 18.779 16.102 28.056 17.098 38.95 C 24.401 31.54 30.697 31.605 41.352 30.824 C 39.328 21.151 42.981 16.766 46.949 8.071 C 39.74 10.01 35.166 11.313 28.292 8.071 Z"/>
      <path style="fill: rgb(219, 141, 63); stroke: none;" d="M 35.134 8.612 C 34.304 9.334 36.274 9.244 36.377 9.153 C 37.207 8.432 35.237 8.521 35.134 8.612 Z"/>
      <path style="fill: rgb(151, 149, 170); stroke: none;" d="M 41.352 8.071 L 43.218 9.696 L 41.352 8.071 Z"/>
      <path style="fill: rgb(219, 141, 63); stroke: none;" d="M 55.657 8.612 C 54.826 9.334 56.797 9.244 56.899 9.153 C 57.729 8.432 55.759 8.521 55.657 8.612 Z"/>
      <path style="fill: rgb(151, 149, 170); stroke: none;" d="M 82.398 8.071 L 84.263 9.696 L 82.398 8.071 M 91.726 11.321 L 93.592 12.947 C 95.821 10.959 96.047 10.639 97.323 8.071 C 94.376 9.181 94.008 9.378 91.726 11.321 Z"/>
      <path style="fill: rgb(79, 62, 93); stroke: none;" d="M 97.945 9.153 C 97.842 9.244 97.738 10.959 98.568 10.237 C 98.67 10.146 98.775 8.432 97.945 9.153 Z"/>
      <path style="fill: rgb(31, 27, 50); stroke: none;" d="M 99.189 8.071 L 101.055 9.696 L 99.189 8.071 Z"/>
      <path style="fill: rgb(151, 149, 170); stroke: none;" d="M 99.189 9.696 C 100.305 11.638 100.058 11.284 102.92 12.947 L 99.189 14.572 C 101.314 16.221 102.197 16.698 104.786 17.822 L 104.786 8.071 C 101.433 8.071 101.948 8.094 99.189 9.696 M 30.158 9.696 L 32.024 11.321 L 30.158 9.696 M 39.487 9.696 L 41.352 11.321 L 39.487 9.696 Z"/>
      <path style="fill: rgb(31, 27, 50); stroke: none;" d="M 48.815 9.696 L 50.681 11.321 L 48.815 9.696 Z"/>
      <path style="fill: rgb(151, 149, 170); stroke: none;" d="M 60.009 9.696 L 61.875 11.321 L 60.009 9.696 Z"/>
      <path style="fill: rgb(79, 62, 93); stroke: none;" d="M 69.338 9.696 L 71.204 11.321 L 69.338 9.696 Z"/>
      <path style="fill: rgb(151, 149, 170); stroke: none;" d="M 73.069 9.696 L 71.204 12.947 L 74.935 12.947 C 74.935 9.933 75.495 10.751 73.069 9.696 Z"/>
      <path style="fill: rgb(71, 91, 186); stroke: none;" d="M 74.935 9.696 L 74.935 14.572 C 76.829 12.719 77.377 11.952 78.666 9.696 L 74.935 9.696 Z"/>
      <path style="fill: rgb(186, 112, 121); stroke: none;" d="M 78.666 9.696 L 80.532 11.321 L 78.666 9.696 Z"/>
      <path style="fill: rgb(243, 231, 231); stroke: none;" d="M 76.801 11.321 C 80.176 12.254 80.661 12.077 84.263 11.321 C 81.168 10.66 80.081 10.819 76.801 11.321 Z"/>
      <path style="fill: rgb(151, 149, 170); stroke: none;" d="M 45.084 11.321 L 46.949 12.947 L 45.084 11.321 Z"/>
      <path style="fill: rgb(243, 231, 231); stroke: none;" d="M 46.949 11.321 C 44.334 14.271 40.871 17.292 40.181 21.131 C 39.063 27.347 45.683 32.147 51.955 27.963 C 55.77 25.417 55.948 21.612 56.278 17.822 C 61.582 17.136 63.763 16.296 67.472 12.947 C 58.547 15.09 55.006 15.719 46.949 11.321 Z"/>
      <path style="fill: rgb(151, 149, 170); stroke: none;" d="M 48.815 11.321 L 50.681 12.947 L 48.815 11.321 M 64.985 11.863 C 64.155 12.584 66.125 12.495 66.228 12.404 C 67.058 11.682 65.088 11.772 64.985 11.863 Z"/>
      <path style="fill: rgb(79, 62, 93); stroke: none;" d="M 86.129 11.321 L 87.995 12.947 L 86.129 11.321 Z"/>
      <path style="fill: rgb(151, 149, 170); stroke: none;" d="M 88.616 12.404 C 88.513 12.495 88.409 14.209 89.239 13.488 C 89.342 13.397 89.446 11.682 88.616 12.404 Z"/>
      <path style="fill: rgb(243, 231, 231); stroke: none;" d="M 91.105 11.863 C 90.275 12.584 92.245 12.495 92.348 12.404 C 93.178 11.682 91.208 11.772 91.105 11.863 M 99.189 50.326 C 102.225 47.454 103.538 45.893 104.786 42.2 C 97.969 43.401 94.741 43.388 89.861 38.95 C 96.025 40.383 99.338 40.505 102.92 35.699 C 95.592 37.061 92.079 36.039 91.726 29.199 C 96.2 30.868 99.965 31.926 104.786 32.449 C 102.43 30.694 98.618 28.768 97.989 25.895 C 97.023 21.492 101.049 22.158 102.92 24.323 C 105.448 20.401 104.131 18.744 99.189 17.822 L 102.92 11.321 C 95.969 13.324 96.043 17.008 93.116 22.423 C 86.172 35.259 84.263 41.768 99.189 50.326 Z"/>
      <path style="fill: rgb(186, 112, 121); stroke: none;" d="M 45.084 12.947 L 46.949 14.572 L 45.084 12.947 Z"/>
      <path style="fill: rgb(71, 91, 186); stroke: none;" d="M 50.681 12.947 C 54.155 15.823 55.196 16.153 60.009 16.197 C 56.744 14.157 54.679 13.574 50.681 12.947 Z"/>
      <path style="fill: rgb(79, 62, 93); stroke: none;" d="M 56.278 12.947 C 58.606 14.058 59.166 14.162 61.875 14.572 C 59.547 13.459 58.987 13.355 56.278 12.947 Z"/>
      <path style="fill: rgb(151, 149, 170); stroke: none;" d="M 61.875 12.947 L 63.741 14.572 L 61.875 12.947 M 76.801 12.947 L 78.666 14.572 L 76.801 12.947 M 26.427 14.572 L 28.292 16.197 L 26.427 14.572 Z"/>
      <path style="fill: rgb(79, 62, 93); stroke: none;" d="M 65.606 14.572 L 67.472 16.197 L 65.606 14.572 M 69.338 14.572 C 65.968 20.097 61.409 24.939 58.756 30.83 C 54.91 39.366 55.474 45.584 46.949 51.951 C 48.649 55.957 50.158 59.135 48.196 63.35 C 46.153 67.745 38.636 73.726 41.653 78.874 C 45.142 84.827 55.948 81.665 61.802 82.655 C 66.94 83.524 70.823 86.74 74.935 89.331 C 76.993 86.963 77.814 86.248 80.532 84.455 C 79.008 79.583 76.017 75.798 73.069 71.454 L 67.472 73.079 C 65.851 69.094 62.541 64.434 63.101 60.084 C 64.377 50.196 78.86 47.77 87.995 47.076 C 87.096 43.234 86.808 42.983 82.398 42.2 L 85.163 29.199 L 82.398 17.822 L 69.338 14.572 Z"/>
      <path style="fill: rgb(186, 112, 121); stroke: none;" d="M 0.307 16.197 L 0.307 19.447 L 4.038 19.447 C 3.022 16.789 3.357 17.083 0.307 16.197 Z"/>
      <path style="fill: rgb(79, 62, 93); stroke: none;" d="M 2.173 16.197 L 4.038 17.822 L 2.173 16.197 M 39.487 16.197 L 41.352 17.822 L 39.487 16.197 Z"/>
      <path style="fill: rgb(219, 141, 63); stroke: none;" d="M 46.949 16.197 L 48.815 17.822 L 46.949 16.197 Z"/>
      <path style="fill: rgb(151, 149, 170); stroke: none;" d="M 63.741 16.197 L 65.606 17.822 L 63.741 16.197 Z"/>
      <path style="fill: rgb(71, 91, 186); stroke: none;" d="M 82.398 16.197 L 82.398 25.948 L 86.129 25.948 L 86.129 16.197 L 82.398 16.197 Z"/>
      <path style="fill: rgb(79, 62, 93); stroke: none;" d="M 87.995 16.197 L 87.995 27.573 C 93.075 24.386 93.392 21.56 93.592 16.197 L 87.995 16.197 Z"/>
      <path style="fill: rgb(71, 91, 186); stroke: none;" d="M 100.433 16.738 C 99.603 17.46 101.573 17.37 101.676 17.279 C 102.506 16.558 100.536 16.647 100.433 16.738 Z"/>
      <path style="fill: rgb(151, 149, 170); stroke: none;" d="M 4.66 18.905 C 4.557 18.996 4.453 20.71 5.283 19.989 C 5.385 19.898 5.49 18.183 4.66 18.905 M 24.561 17.822 L 26.427 19.447 L 24.561 17.822 Z"/>
      <path style="fill: rgb(192, 34, 14); stroke: none;" d="M 52.547 17.822 C 35.151 19.031 51.155 33.377 52.547 17.822 Z"/>
      <path style="fill: rgb(151, 149, 170); stroke: none;" d="M 59.388 18.363 C 58.558 19.085 60.528 18.996 60.631 18.905 C 61.461 18.183 59.491 18.272 59.388 18.363 Z"/>
      <path style="fill: rgb(243, 231, 231); stroke: none;" d="M 1.551 19.989 C 0.721 20.71 2.691 20.621 2.794 20.53 C 3.624 19.808 1.654 19.898 1.551 19.989 Z"/>
      <path style="fill: rgb(31, 27, 50); stroke: none;" d="M 2.173 21.073 C 4.982 22.183 6.492 22.415 9.635 22.698 C 6.419 20.982 6.051 21.014 2.173 21.073 Z"/>
      <path style="fill: rgb(186, 112, 121); stroke: none;" d="M 22.695 19.447 L 24.561 21.073 L 22.695 19.447 Z"/>
      <path style="fill: rgb(219, 141, 63); stroke: none;" d="M 41.352 19.447 L 43.218 21.073 L 41.352 19.447 M 52.547 19.447 L 52.547 24.323 C 53.845 21.797 53.845 21.971 52.547 19.447 Z"/>
      <path style="fill: rgb(71, 91, 186); stroke: none;" d="M 73.069 19.447 L 73.069 29.199 L 76.801 29.199 L 76.801 19.447 L 73.069 19.447 Z"/>
      <path style="fill: rgb(151, 149, 170); stroke: none;" d="M 93.592 19.447 L 95.458 21.073 L 93.592 19.447 Z"/>
      <path style="fill: rgb(186, 112, 121); stroke: none;" d="M 100.433 19.989 C 99.603 20.71 101.573 20.621 101.676 20.53 C 102.506 19.808 100.536 19.898 100.433 19.989 Z"/>
      <path style="fill: rgb(79, 62, 93); stroke: none;" d="M 0.307 21.073 L 2.173 22.698 L 0.307 21.073 Z"/>
      <path style="fill: rgb(151, 149, 170); stroke: none;" d="M 18.964 21.073 L 20.83 22.698 L 18.964 21.073 M 56.278 21.073 L 58.144 22.698 L 56.278 21.073 Z"/>
      <path style="fill: rgb(192, 34, 14); stroke: none;" d="M 97.323 21.073 L 97.323 29.199 L 104.786 29.199 L 102.92 21.073 L 97.323 21.073 Z"/>
      <path style="fill: rgb(243, 231, 231); stroke: none;" d="M 0.307 22.698 C 4.749 26.634 7.191 27.17 13.367 25.948 C 9.201 24.307 4.777 23.663 0.307 22.698 Z"/>
      <path style="fill: rgb(186, 112, 121); stroke: none;" d="M 2.173 22.698 L 4.038 24.323 L 2.173 22.698 Z"/>
      <path style="fill: rgb(192, 34, 14); stroke: none;" d="M 4.038 22.698 C 6.848 23.808 8.357 24.04 11.501 24.323 C 8.691 23.213 7.182 22.981 4.038 22.698 Z"/>
      <path style="fill: rgb(186, 112, 121); stroke: none;" d="M 11.501 22.698 C 12.518 25.355 12.182 25.062 15.233 25.948 L 15.233 22.698 L 11.501 22.698 Z"/>
      <path style="fill: rgb(31, 27, 50); stroke: none;" d="M 15.233 22.698 C 13.063 26.449 11.07 29.413 7.77 32.449 C 14.255 32.579 16.539 27.45 18.964 22.698 L 15.233 22.698 Z"/>
      <path style="fill: rgb(71, 91, 186); stroke: none;" d="M 18.964 22.698 L 20.83 24.323 L 18.964 22.698 M 56.278 22.698 C 54.496 25.569 53.356 26.935 50.681 29.199 C 56.134 29.914 57.974 27.039 56.278 22.698 Z"/>
      <path style="fill: rgb(186, 112, 121); stroke: none;" d="M 95.458 22.698 L 95.458 27.573 C 96.756 25.048 96.756 25.222 95.458 22.698 M 0.307 24.323 L 2.173 25.948 L 0.307 24.323 Z"/>
      <path style="fill: rgb(151, 149, 170); stroke: none;" d="M 17.098 24.323 L 18.964 25.948 L 17.098 24.323 Z"/>
      <path style="fill: rgb(243, 231, 231); stroke: none;" d="M 18.964 24.323 L 13.367 34.074 C 18.292 31.578 20.49 29.296 18.964 24.323 Z"/>
      <path style="fill: rgb(219, 141, 63); stroke: none;" d="M 41.352 24.323 L 43.218 25.948 L 41.352 24.323 M 102.92 24.323 L 104.786 25.948 L 102.92 24.323 Z"/>
      <path style="fill: rgb(192, 34, 14); stroke: none;" d="M 0.307 25.948 C 1.385 30.331 2.66 30.481 7.77 30.824 C 5.065 28.21 3.943 27.468 0.307 25.948 Z"/>
      <path style="fill: rgb(79, 62, 93); stroke: none;" d="M 11.501 25.948 L 13.367 27.573 L 11.501 25.948 Z"/>
      <path style="fill: rgb(219, 141, 63); stroke: none;" d="M 43.218 25.948 L 45.084 27.573 L 43.218 25.948 M 50.681 25.948 L 52.547 27.573 L 50.681 25.948 Z"/>
      <path style="fill: rgb(79, 62, 93); stroke: none;" d="M 7.149 28.115 C 6.318 28.836 8.288 28.747 8.391 28.656 C 9.221 27.934 7.251 28.024 7.149 28.115 Z"/>
      <path style="fill: rgb(151, 149, 170); stroke: none;" d="M 9.635 27.573 L 7.77 30.824 L 11.501 30.824 C 11.501 27.811 12.061 28.628 9.635 27.573 M 15.233 27.573 L 17.098 29.199 L 15.233 27.573 M 52.547 27.573 L 54.412 29.199 L 52.547 27.573 M 18.964 29.199 L 20.83 30.824 L 18.964 29.199 Z"/>
      <path style="fill: rgb(79, 62, 93); stroke: none;" d="M 41.352 29.199 C 42.369 31.856 42.033 31.563 45.084 32.449 C 44.067 29.79 44.403 30.084 41.352 29.199 Z"/>
      <path style="fill: rgb(151, 149, 170); stroke: none;" d="M 45.084 34.074 L 54.412 32.449 C 49.994 30.305 48.116 30.53 45.084 34.074 M 54.412 29.199 L 56.278 30.824 L 54.412 29.199 Z"/>
      <path style="fill: rgb(192, 34, 14); stroke: none;" d="M 91.726 29.199 C 90.566 35.803 93.984 37.102 101.055 35.699 L 101.055 32.449 L 91.726 29.199 Z"/>
      <path style="fill: rgb(186, 112, 121); stroke: none;" d="M 93.592 29.199 L 95.458 30.824 L 93.592 29.199 M 99.189 29.199 C 101.517 30.31 102.077 30.414 104.786 30.824 C 102.458 29.71 101.898 29.606 99.189 29.199 M 1.551 31.365 C 0.721 32.087 2.691 31.997 2.794 31.906 C 3.624 31.185 1.654 31.274 1.551 31.365 Z"/>
      <path style="fill: rgb(219, 141, 63); stroke: none;" d="M 4.038 30.824 L 5.904 32.449 L 4.038 30.824 Z"/>
      <path style="fill: rgb(243, 231, 231); stroke: none;" d="M 0.307 32.449 C 4.12 33.707 5.615 33.411 9.635 32.449 C 6.191 31.688 3.91 31.958 0.307 32.449 Z"/>
      <path style="fill: rgb(79, 62, 93); stroke: none;" d="M 9.635 30.824 L 11.501 32.449 L 9.635 30.824 Z"/>
      <path style="fill: rgb(151, 149, 170); stroke: none;" d="M 13.367 30.824 L 15.233 32.449 L 13.367 30.824 Z"/>
      <path style="fill: rgb(219, 141, 63); stroke: none;" d="M 22.695 30.824 L 24.561 32.449 L 22.695 30.824 Z"/>
      <path style="fill: rgb(243, 231, 231); stroke: none;" d="M 18.964 38.95 C 21.253 37.419 24.268 34.667 27.445 34.831 C 30.972 35.012 32.688 38.779 30.416 41.098 C 28.337 43.221 25.36 42.407 22.695 42.2 C 30.787 51.488 36.237 39.627 33.89 32.449 C 38.255 33.952 40.475 34.443 45.084 34.074 C 36.455 28.978 22.44 29.361 18.964 38.95 Z"/>
      <path style="fill: rgb(151, 149, 170); stroke: none;" d="M 41.352 30.824 L 43.218 32.449 L 41.352 30.824 M 2.173 34.074 C 6.339 35.714 10.762 36.358 15.233 37.325 C 15.233 34.404 15.206 34.851 13.367 32.449 L 2.173 34.074 Z"/>
      <path style="fill: rgb(79, 62, 93); stroke: none;" d="M 17.098 32.449 L 18.964 34.074 L 17.098 32.449 Z"/>
      <path style="fill: rgb(219, 141, 63); stroke: none;" d="M 26.427 32.449 L 28.292 34.074 L 26.427 32.449 Z"/>
      <path style="fill: rgb(151, 149, 170); stroke: none;" d="M 35.134 32.99 C 34.304 33.712 36.274 33.622 36.377 33.531 C 37.207 32.81 35.237 32.899 35.134 32.99 Z"/>
      <path style="fill: rgb(71, 91, 186); stroke: none;" d="M 82.398 32.449 L 82.398 42.2 L 86.129 42.2 L 86.129 32.449 L 82.398 32.449 Z"/>
      <path style="fill: rgb(186, 112, 121); stroke: none;" d="M 101.055 32.449 L 101.055 35.699 C 104.105 34.814 103.769 35.106 104.786 32.449 L 101.055 32.449 Z"/>
      <path style="fill: rgb(79, 62, 93); stroke: none;" d="M 0.307 34.074 L 2.173 35.699 L 0.307 34.074 Z"/>
      <path style="fill: rgb(192, 34, 14); stroke: none;" d="M 22.695 34.074 C 24.085 49.598 40.517 35.285 22.695 34.074 Z"/>
      <path style="fill: rgb(31, 27, 50); stroke: none;" d="M 35.755 34.074 L 37.621 35.699 L 35.755 34.074 Z"/>
      <path style="fill: rgb(186, 112, 121); stroke: none;" d="M 37.621 34.074 C 36.724 37.65 36.724 38.623 37.621 42.2 C 39.753 38.698 39.869 37.482 37.621 34.074 Z"/>
      <path style="fill: rgb(219, 141, 63); stroke: none;" d="M 43.218 34.074 C 45.787 35.555 47.77 36.354 50.681 37.325 C 48.229 34.695 47.179 34.571 43.218 34.074 Z"/>
      <path style="fill: rgb(151, 149, 170); stroke: none;" d="M 50.681 34.074 C 51.698 36.731 51.362 36.439 54.412 37.325 C 53.395 34.666 53.731 34.96 50.681 34.074 M 103.542 35.157 C 103.439 35.248 103.335 36.962 104.165 36.241 C 104.267 36.15 104.372 34.435 103.542 35.157 Z"/>
      <path style="fill: rgb(243, 231, 231); stroke: none;" d="M 0.307 40.575 C 18.184 36.445 18.863 55.285 0.307 51.951 C 5.555 62.252 22.673 53.822 20.208 43.825 C 18.279 36.005 2.561 31.41 0.307 40.575 Z"/>
      <path style="fill: rgb(186, 112, 121); stroke: none;" d="M 20.83 35.699 L 20.83 40.575 C 22.128 38.049 22.128 38.223 20.83 35.699 Z"/>
      <path style="fill: rgb(192, 34, 14); stroke: none;" d="M 42.477 37.456 C 38.554 39.938 41.824 45.667 46.431 43.546 C 51.804 41.072 47.356 34.373 42.477 37.456 Z"/>
      <path style="fill: rgb(243, 231, 231); stroke: none;" d="M 50.681 35.699 C 49.492 42.179 47.119 44.402 39.487 43.825 C 36.602 47.098 34.475 48.644 30.158 50.326 C 32.404 52.738 36.593 56.084 35.119 59.593 C 33.371 63.757 25.21 64.131 21.389 66.281 C 11.988 71.569 3.688 80.116 0.307 89.331 L 5.904 87.706 C 1.512 92.032 0.52 94.962 0.307 100.707 L 5.904 100.707 C 7.622 87.392 23.287 86.669 22.695 100.707 C 30.927 95.996 34.169 78.886 30.158 71.454 C 36.141 70.646 38.449 69.583 41.352 64.953 C 35.196 68.502 31.947 69.703 26.427 64.953 C 37.572 64.212 40.942 58.975 35.755 50.326 C 40.203 49.856 40.209 50.471 39.487 47.076 C 47.851 46.837 57.032 43.796 50.681 35.699 Z"/>
      <path style="fill: rgb(71, 91, 186); stroke: none;" d="M 73.069 35.699 L 73.069 45.451 L 76.801 45.451 L 76.801 35.699 L 73.069 35.699 Z"/>
      <path style="fill: rgb(186, 112, 121); stroke: none;" d="M 99.189 35.699 L 101.055 37.325 L 99.189 35.699 Z"/>
      <path style="fill: rgb(151, 149, 170); stroke: none;" d="M 5.283 37.866 C 4.453 38.587 6.423 38.498 6.525 38.407 C 7.356 37.685 5.385 37.775 5.283 37.866 Z"/>
      <path style="fill: rgb(219, 141, 63); stroke: none;" d="M 94.836 37.866 C 94.006 38.587 95.976 38.498 96.079 38.407 C 96.909 37.685 94.939 37.775 94.836 37.866 Z"/>
      <path style="fill: rgb(31, 27, 50); stroke: none;" d="M 102.92 37.325 C 98.879 39.267 96.292 40.073 91.726 40.575 C 96.209 43.143 101.926 42.46 102.92 37.325 Z"/>
      <path style="fill: rgb(79, 62, 93); stroke: none;" d="M 2.173 38.95 C 5.473 40.216 7.837 40.432 11.501 40.575 C 8.201 39.309 5.837 39.091 2.173 38.95 Z"/>
      <path style="fill: rgb(186, 112, 121); stroke: none;" d="M 11.501 38.95 L 13.367 40.575 L 11.501 38.95 Z"/>
      <path style="fill: rgb(151, 149, 170); stroke: none;" d="M 17.098 38.95 C 19.156 41.316 19.977 42.031 22.695 43.825 C 21.018 40.373 21.061 40.411 17.098 38.95 M 90.482 40.032 C 90.379 40.123 90.275 41.838 91.105 41.116 C 91.208 41.025 91.312 39.311 90.482 40.032 Z"/>
      <path style="fill: rgb(79, 62, 93); stroke: none;" d="M 102.92 38.95 L 104.786 40.575 L 102.92 38.95 Z"/>
      <path style="fill: rgb(192, 34, 14); stroke: none;" d="M 0.307 40.575 L 0.307 51.951 L 13.367 51.951 C 13.572 47.983 14.165 44.438 15.233 40.575 L 0.307 40.575 Z"/>
      <path style="fill: rgb(31, 27, 50); stroke: none;" d="M 35.755 40.575 C 32.919 43.751 29.964 46.112 26.427 48.701 L 33.89 50.326 C 34.738 46.725 36.85 44.144 35.755 40.575 Z"/>
      <path style="fill: rgb(151, 149, 170); stroke: none;" d="M 102.299 41.116 C 101.469 41.838 103.439 41.748 103.542 41.657 C 104.372 40.936 102.402 41.025 102.299 41.116 Z"/>
      <path style="fill: rgb(79, 62, 93); stroke: none;" d="M 13.367 42.2 L 13.367 50.326 C 14.915 47.025 14.915 45.499 13.367 42.2 Z"/>
      <path style="fill: rgb(219, 141, 63); stroke: none;" d="M 15.233 42.2 L 15.233 48.701 C 16.557 45.841 16.557 45.059 15.233 42.2 M 30.158 42.2 L 32.024 43.825 L 30.158 42.2 Z"/>
      <path style="fill: rgb(151, 149, 170); stroke: none;" d="M 38.242 43.283 C 38.14 43.374 38.035 45.088 38.865 44.367 C 38.968 44.276 39.072 42.561 38.242 43.283 Z"/>
      <path style="fill: rgb(186, 112, 121); stroke: none;" d="M 48.815 42.2 L 50.681 43.825 L 48.815 42.2 Z"/>
      <path style="fill: rgb(151, 149, 170); stroke: none;" d="M 52.547 42.2 L 54.412 43.825 L 52.547 42.2 M 91.726 42.2 L 93.592 43.825 L 91.726 42.2 M 95.458 45.451 C 98.405 44.339 98.773 44.142 101.055 42.2 C 97.152 42.858 97.286 42.551 95.458 45.451 Z"/>
      <path style="fill: rgb(79, 62, 93); stroke: none;" d="M 20.83 43.825 L 20.83 48.701 C 22.929 45.984 22.929 46.543 20.83 43.825 Z"/>
      <path style="fill: rgb(219, 141, 63); stroke: none;" d="M 46.949 43.825 L 48.815 45.451 L 46.949 43.825 Z"/>
      <path style="fill: rgb(151, 149, 170); stroke: none;" d="M 87.995 43.825 L 89.861 45.451 L 87.995 43.825 Z"/>
      <path style="fill: rgb(31, 27, 50); stroke: none;" d="M 20.83 45.451 L 22.695 47.076 L 20.83 45.451 Z"/>
      <path style="fill: rgb(151, 149, 170); stroke: none;" d="M 24.561 45.451 L 22.695 48.701 C 25.052 47.121 25.292 47.573 24.561 45.451 M 28.292 45.451 L 30.158 47.076 L 28.292 45.451 Z"/>
      <path style="fill: rgb(186, 112, 121); stroke: none;" d="M 30.158 45.451 L 32.024 47.076 L 30.158 45.451 Z"/>
      <path style="fill: rgb(71, 91, 186); stroke: none;" d="M 32.024 47.076 C 34.841 47.482 36.569 47.368 39.487 47.076 C 36.112 46.141 35.627 46.318 32.024 47.076 Z"/>
      <path style="fill: rgb(79, 62, 93); stroke: none;" d="M 50.681 45.451 L 52.547 47.076 L 50.681 45.451 Z"/>
      <path style="fill: rgb(31, 27, 50); stroke: none;" d="M 87.995 45.451 L 89.861 47.076 L 87.995 45.451 Z"/>
      <path style="fill: rgb(71, 91, 186); stroke: none;" d="M 90.482 46.533 C 90.379 46.624 90.275 48.338 91.105 47.617 C 91.208 47.526 91.312 45.811 90.482 46.533 Z"/>
      <path style="fill: rgb(186, 112, 121); stroke: none;" d="M 24.561 47.076 L 22.695 50.326 C 25.052 48.746 25.292 49.198 24.561 47.076 Z"/>
      <path style="fill: rgb(151, 149, 170); stroke: none;" d="M 34.511 48.158 C 34.408 48.249 34.304 49.964 35.134 49.242 C 35.237 49.151 35.341 47.437 34.511 48.158 Z"/>
      <path style="fill: rgb(71, 91, 186); stroke: none;" d="M 39.487 47.076 L 41.352 48.701 L 39.487 47.076 Z"/>
      <path style="fill: rgb(151, 149, 170); stroke: none;" d="M 41.352 50.326 L 46.949 48.701 C 43.632 47.147 43.179 47.454 41.352 50.326 Z"/>
      <path style="fill: rgb(71, 91, 186); stroke: none;" d="M 46.949 47.076 L 48.815 48.701 L 46.949 47.076 Z"/>
      <path style="fill: rgb(151, 149, 170); stroke: none;" d="M 78.666 47.076 L 80.532 48.701 L 78.666 47.076 Z"/>
      <path style="fill: rgb(243, 231, 231); stroke: none;" d="M 80.53 48.072 C 75.032 49.08 67.661 50.905 64.884 55.571 C 59.881 63.979 68.692 72.572 78.666 71.346 C 84.691 70.607 93.308 68.25 95.93 62.98 C 100.57 53.65 90.637 46.219 80.53 48.072 Z"/>
      <path style="fill: rgb(31, 27, 50); stroke: none;" d="M 91.726 47.076 L 93.592 48.701 L 91.726 47.076 Z"/>
      <path style="fill: rgb(71, 91, 186); stroke: none;" d="M 93.592 47.076 L 95.458 48.701 L 93.592 47.076 Z"/>
      <path style="fill: rgb(151, 149, 170); stroke: none;" d="M 95.458 47.076 L 97.323 48.701 L 95.458 47.076 Z"/>
      <path style="fill: rgb(219, 141, 63); stroke: none;" d="M 101.055 47.076 L 99.189 50.326 C 101.545 48.746 101.786 49.198 101.055 47.076 Z"/>
      <path style="fill: rgb(192, 34, 14); stroke: none;" d="M 102.92 47.076 C 100.708 49.003 100.07 49.648 99.189 51.951 C 103.389 51.181 105.006 50.552 102.92 47.076 Z"/>
      <path style="fill: rgb(219, 141, 63); stroke: none;" d="M 18.964 48.701 L 20.83 50.326 L 18.964 48.701 Z"/>
      <path style="fill: rgb(192, 34, 14); stroke: none;" d="M 20.83 48.701 L 15.233 56.827 C 23.154 57.838 26.649 54.152 20.83 48.701 Z"/>
      <path style="fill: rgb(243, 231, 231); stroke: none;" d="M 24.561 48.701 C 25.223 55.35 22.671 57.417 15.233 58.452 C 24.177 63.775 30.481 55.634 24.561 48.701 Z"/>
      <path style="fill: rgb(151, 149, 170); stroke: none;" d="M 26.427 48.701 L 28.292 50.326 L 26.427 48.701 Z"/>
      <path style="fill: rgb(79, 62, 93); stroke: none;" d="M 43.218 48.701 L 45.084 50.326 L 43.218 48.701 Z"/>
      <path style="fill: rgb(151, 149, 170); stroke: none;" d="M 74.314 49.242 C 73.483 49.964 75.454 49.874 75.556 49.783 C 76.386 49.062 74.416 49.151 74.314 49.242 Z"/>
      <path style="fill: rgb(79, 62, 93); stroke: none;" d="M 93.592 48.701 C 94.609 51.358 94.273 51.066 97.323 51.951 L 97.323 48.701 L 93.592 48.701 Z"/>
      <path style="fill: rgb(219, 141, 63); stroke: none;" d="M 13.367 50.326 L 15.233 51.951 L 13.367 50.326 M 24.561 50.326 L 26.427 51.951 L 24.561 50.326 Z"/>
      <path style="fill: rgb(151, 149, 170); stroke: none;" d="M 28.292 50.326 L 28.292 55.202 C 29.591 52.676 29.591 52.85 28.292 50.326 M 35.755 50.326 L 37.621 51.951 L 35.755 50.326 M 67.472 50.326 L 69.338 51.951 L 67.472 50.326 Z"/>
      <path style="fill: rgb(219, 141, 63); stroke: none;" d="M 80.808 52.028 C 70.722 56.853 79.914 69.409 89.051 64.59 C 97.836 59.957 90.351 47.461 80.808 52.028 Z"/>
      <path style="fill: rgb(151, 149, 170); stroke: none;" d="M 93.592 50.326 L 95.458 51.951 L 93.592 50.326 M 97.323 50.326 L 95.458 51.951 C 97.579 57.069 98.092 61.174 97.323 66.578 C 101.713 61.516 102.12 55.294 97.323 50.326 Z"/>
      <path style="fill: rgb(186, 112, 121); stroke: none;" d="M 2.173 51.951 L 4.038 53.577 L 2.173 51.951 Z"/>
      <path style="fill: rgb(79, 62, 93); stroke: none;" d="M 4.038 51.951 C 6.848 53.061 8.357 53.294 11.501 53.577 C 8.691 52.466 7.182 52.234 4.038 51.951 Z"/>
      <path style="fill: rgb(151, 149, 170); stroke: none;" d="M 11.501 51.951 L 13.367 53.577 L 11.501 51.951 Z"/>
      <path style="fill: rgb(186, 112, 121); stroke: none;" d="M 17.098 51.951 L 18.964 53.577 L 17.098 51.951 M 31.403 52.492 C 30.572 53.214 32.543 53.125 32.645 53.034 C 33.475 52.312 31.505 52.401 31.403 52.492 Z"/>
      <path style="fill: rgb(151, 149, 170); stroke: none;" d="M 38.865 52.492 C 38.035 53.214 40.005 53.125 40.108 53.034 C 40.938 52.312 38.968 52.401 38.865 52.492 Z"/>
      <path style="fill: rgb(243, 231, 231); stroke: none;" d="M 41.352 51.951 C 42.561 55.84 43.278 57.698 46.949 60.077 C 45.421 56.655 44.175 54.636 41.352 51.951 M 101.055 51.951 C 99.637 57.163 103.864 67.257 95.458 68.203 C 106.667 71.403 104.786 58.236 104.786 51.951 L 101.055 51.951 Z"/>
      <path style="fill: rgb(219, 141, 63); stroke: none;" d="M 15.233 53.577 L 17.098 55.202 L 15.233 53.577 Z"/>
      <path style="fill: rgb(192, 34, 14); stroke: none;" d="M 28.292 63.328 C 42.414 59.59 29.55 49.265 28.292 63.328 Z"/>
      <path style="fill: rgb(79, 62, 93); stroke: none;" d="M 40.108 54.659 C 40.005 54.75 39.901 56.464 40.731 55.743 C 40.834 55.652 40.938 53.937 40.108 54.659 Z"/>
      <path style="fill: rgb(151, 149, 170); stroke: none;" d="M 63.741 53.577 L 65.606 55.202 L 63.741 53.577 Z"/>
      <path style="fill: rgb(219, 141, 63); stroke: none;" d="M 74.935 68.203 C 73.407 63.014 72.218 58.919 73.069 53.577 C 63.711 58.073 65.386 65.145 74.935 68.203 Z"/>
      <path style="fill: rgb(151, 149, 170); stroke: none;" d="M 0.307 55.202 L 2.173 56.827 L 0.307 55.202 Z"/>
      <path style="fill: rgb(186, 112, 121); stroke: none;" d="M 13.367 55.202 L 13.367 58.452 L 17.098 58.452 C 16.081 55.793 16.417 56.087 13.367 55.202 Z"/>
      <path style="fill: rgb(219, 141, 63); stroke: none;" d="M 24.561 55.202 L 26.427 56.827 L 24.561 55.202 Z"/>
      <path style="fill: rgb(151, 149, 170); stroke: none;" d="M 41.352 55.202 C 39.513 57.604 39.487 57.157 39.487 60.077 C 41.892 57.732 42.101 58.072 41.352 55.202 Z"/>
      <path style="fill: rgb(79, 62, 93); stroke: none;" d="M 97.323 55.202 L 99.189 56.827 L 97.323 55.202 Z"/>
      <path style="fill: rgb(71, 91, 186); stroke: none;" d="M 1.551 57.368 C 0.721 58.09 2.691 58 2.794 57.909 C 3.624 57.188 1.654 57.277 1.551 57.368 Z"/>
      <path style="fill: rgb(151, 149, 170); stroke: none;" d="M 2.173 61.702 C 4.402 60.731 3.995 60.945 5.904 58.452 C 9.654 60.848 10.609 60.831 15.233 60.077 C 9.751 57.604 5.809 57.105 2.173 61.702 Z"/>
      <path style="fill: rgb(79, 62, 93); stroke: none;" d="M 7.77 56.827 L 9.635 58.452 L 7.77 56.827 Z"/>
      <path style="fill: rgb(31, 27, 50); stroke: none;" d="M 10.88 57.368 C 10.05 58.09 12.02 58 12.122 57.909 C 12.953 57.188 10.983 57.277 10.88 57.368 Z"/>
      <path style="fill: rgb(219, 141, 63); stroke: none;" d="M 22.695 56.827 L 24.561 58.452 L 22.695 56.827 Z"/>
      <path style="fill: rgb(151, 149, 170); stroke: none;" d="M 45.084 56.827 L 46.949 58.452 L 45.084 56.827 M 62.496 57.909 C 62.394 58 62.289 59.715 63.119 58.993 C 63.222 58.902 63.327 57.188 62.496 57.909 Z"/>
      <path style="fill: rgb(243, 231, 231); stroke: none;" d="M 0.307 58.452 C 1.824 66.739 10.932 71.603 17.098 63.328 C 8.85 65.853 6.027 63.692 0.307 58.452 Z"/>
      <path style="fill: rgb(186, 112, 121); stroke: none;" d="M 4.038 58.452 L 5.904 60.077 L 4.038 58.452 Z"/>
      <path style="fill: rgb(31, 27, 50); stroke: none;" d="M 26.427 58.452 L 24.561 61.702 L 28.292 61.702 C 28.292 58.689 28.852 59.507 26.427 58.452 Z"/>
      <path style="fill: rgb(192, 34, 14); stroke: none;" d="M 4.038 60.077 C 5.466 65.878 9.525 65.132 15.233 63.328 C 11.559 61.6 8.147 60.838 4.038 60.077 Z"/>
      <path style="fill: rgb(79, 62, 93); stroke: none;" d="M 13.367 60.077 L 15.233 61.702 L 13.367 60.077 Z"/>
      <path style="fill: rgb(186, 112, 121); stroke: none;" d="M 15.854 61.16 C 15.751 61.251 15.647 62.965 16.477 62.244 C 16.58 62.153 16.684 60.438 15.854 61.16 Z"/>
      <path style="fill: rgb(151, 149, 170); stroke: none;" d="M 22.695 60.077 L 24.561 61.702 L 22.695 60.077 Z"/>
      <path style="fill: rgb(219, 141, 63); stroke: none;" d="M 35.755 60.077 L 37.621 61.702 L 35.755 60.077 Z"/>
      <path style="fill: rgb(151, 149, 170); stroke: none;" d="M 43.218 60.077 L 43.218 64.953 C 45.448 62.965 45.673 62.645 46.949 60.077 L 43.218 60.077 Z"/>
      <path style="fill: rgb(79, 62, 93); stroke: none;" d="M 97.323 60.077 L 93.592 68.203 L 101.055 68.203 L 97.323 60.077 M 17.72 62.785 C 17.617 62.876 17.512 64.59 18.343 63.869 C 18.445 63.778 18.55 62.063 17.72 62.785 Z"/>
      <path style="fill: rgb(31, 27, 50); stroke: none;" d="M 18.964 61.702 C 15.55 65.517 12.69 67.581 7.77 69.828 C 15.298 72.884 19.373 67.202 22.695 61.702 L 18.964 61.702 Z"/>
      <path style="fill: rgb(79, 62, 93); stroke: none;" d="M 22.695 61.702 L 20.83 64.953 C 23.186 63.373 23.427 63.825 22.695 61.702 Z"/>
      <path style="fill: rgb(186, 112, 121); stroke: none;" d="M 25.806 62.244 C 24.975 62.965 26.945 62.876 27.048 62.785 C 27.878 62.063 25.908 62.153 25.806 62.244 Z"/>
      <path style="fill: rgb(219, 141, 63); stroke: none;" d="M 33.89 61.702 L 35.755 63.328 L 33.89 61.702 Z"/>
      <path style="fill: rgb(151, 149, 170); stroke: none;" d="M 35.755 63.328 C 37.746 64.301 39.005 64.551 41.352 64.953 C 38.664 63.198 39.173 63.378 35.755 63.328 Z"/>
      <path style="fill: rgb(79, 62, 93); stroke: none;" d="M 39.487 61.702 L 41.352 63.328 L 39.487 61.702 Z"/>
      <path style="fill: rgb(151, 149, 170); stroke: none;" d="M 62.496 62.785 C 62.394 62.876 62.289 64.59 63.119 63.869 C 63.222 63.778 63.327 62.063 62.496 62.785 Z"/>
      <path style="fill: rgb(186, 112, 121); stroke: none;" d="M 13.367 63.328 L 15.233 64.953 L 13.367 63.328 Z"/>
      <path style="fill: rgb(151, 149, 170); stroke: none;" d="M 23.94 63.869 C 23.11 64.59 25.08 64.501 25.182 64.41 C 26.013 63.688 24.042 63.778 23.94 63.869 Z"/>
      <path style="fill: rgb(79, 62, 93); stroke: none;" d="M 37.621 63.328 L 39.487 64.953 L 37.621 63.328 Z"/>
      <path style="fill: rgb(31, 27, 50); stroke: none;" d="M 0.307 64.953 L 0.307 84.455 C 6.954 78.275 7.329 70.943 0.307 64.953 Z"/>
      <path style="fill: rgb(186, 112, 121); stroke: none;" d="M 5.904 64.953 C 8.232 66.065 8.792 66.169 11.501 66.578 C 9.173 65.465 8.613 65.361 5.904 64.953 Z"/>
      <path style="fill: rgb(219, 141, 63); stroke: none;" d="M 11.501 64.953 L 13.367 66.578 L 11.501 64.953 Z"/>
      <path style="fill: rgb(31, 27, 50); stroke: none;" d="M 26.427 64.953 L 28.292 66.578 L 26.427 64.953 Z"/>
      <path style="fill: rgb(186, 112, 121); stroke: none;" d="M 28.292 64.953 C 30.621 66.065 31.181 66.169 33.89 66.578 C 31.561 65.465 31.001 65.361 28.292 64.953 Z"/>
      <path style="fill: rgb(31, 27, 50); stroke: none;" d="M 35.134 65.494 C 34.304 66.216 36.274 66.126 36.377 66.035 C 37.207 65.314 35.237 65.403 35.134 65.494 Z"/>
      <path style="fill: rgb(186, 112, 121); stroke: none;" d="M 37.621 64.953 L 39.487 66.578 L 37.621 64.953 M 22.695 66.578 L 24.561 68.203 L 22.695 66.578 Z"/>
      <path style="fill: rgb(192, 34, 14); stroke: none;" d="M 26.427 66.578 C 30.664 69.308 32.475 69.271 37.621 68.203 C 33.793 66.781 30.63 66.654 26.427 66.578 Z"/>
      <path style="fill: rgb(151, 149, 170); stroke: none;" d="M 63.741 66.578 L 65.606 68.203 L 63.741 66.578 Z"/>
      <path style="fill: rgb(186, 112, 121); stroke: none;" d="M 74.935 66.578 L 76.801 68.203 L 74.935 66.578 Z"/>
      <path style="fill: rgb(151, 149, 170); stroke: none;" d="M 87.995 68.203 L 89.861 73.079 C 92.976 70.363 91.161 68.892 95.458 69.828 C 92.241 68.112 91.874 68.145 87.995 68.203 Z"/>
      <path style="fill: rgb(79, 62, 93); stroke: none;" d="M 5.904 68.203 C 6.218 72.107 6.272 73.826 9.635 76.329 C 8.607 73.363 7.628 70.882 5.904 68.203 Z"/>
      <path style="fill: rgb(186, 112, 121); stroke: none;" d="M 9.014 68.744 C 8.184 69.466 10.154 69.377 10.257 69.286 C 11.087 68.564 9.117 68.653 9.014 68.744 Z"/>
      <path style="fill: rgb(151, 149, 170); stroke: none;" d="M 17.098 68.203 L 18.964 69.828 L 17.098 68.203 Z"/>
      <path style="fill: rgb(31, 27, 50); stroke: none;" d="M 22.695 68.203 L 24.561 69.828 L 22.695 68.203 Z"/>
      <path style="fill: rgb(219, 141, 63); stroke: none;" d="M 35.755 68.203 L 37.621 69.828 L 35.755 68.203 Z"/>
      <path style="fill: rgb(79, 62, 93); stroke: none;" d="M 39.487 68.203 L 41.352 69.828 L 39.487 68.203 Z"/>
      <path style="fill: rgb(151, 149, 170); stroke: none;" d="M 65.606 68.203 L 67.472 69.828 L 65.606 68.203 M 76.179 68.744 C 75.349 69.466 77.319 69.377 77.422 69.286 C 78.252 68.564 76.282 68.653 76.179 68.744 Z"/>
      <path style="fill: rgb(31, 27, 50); stroke: none;" d="M 91.726 68.203 L 89.861 74.704 C 93.161 73.334 94.876 72.2 97.323 69.828 L 91.726 68.203 M 102.92 68.203 L 99.189 69.828 C 101.954 71.114 104.406 71.241 102.92 68.203 Z"/>
      <path style="fill: rgb(151, 149, 170); stroke: none;" d="M 15.233 69.828 L 17.098 71.454 L 15.233 69.828 M 37.621 69.828 L 39.487 71.454 L 37.621 69.828 M 67.472 69.828 L 69.338 71.454 L 67.472 69.828 Z"/>
      <path style="fill: rgb(186, 112, 121); stroke: none;" d="M 80.532 69.828 L 82.398 71.454 L 80.532 69.828 Z"/>
      <path style="fill: rgb(31, 27, 50); stroke: none;" d="M 78.666 71.454 C 82.957 72.941 84.967 72.882 87.995 69.828 L 78.666 71.454 Z"/>
      <path style="fill: rgb(79, 62, 93); stroke: none;" d="M 87.995 69.828 L 89.861 71.454 L 87.995 69.828 M 93.592 74.704 C 96.502 73.734 98.486 72.934 101.055 71.454 C 96.695 71.507 96.081 71.611 93.592 74.704 Z"/>
      <path style="fill: rgb(192, 34, 14); stroke: none;" d="M 7.77 71.454 L 7.77 74.704 L 11.501 74.704 L 11.501 71.454 L 7.77 71.454 Z"/>
      <path style="fill: rgb(151, 149, 170); stroke: none;" d="M 30.158 71.454 C 32.487 72.565 33.046 72.669 35.755 73.079 C 33.427 71.966 32.867 71.862 30.158 71.454 Z"/>
      <path style="fill: rgb(79, 62, 93); stroke: none;" d="M 35.755 71.454 L 37.621 73.079 L 35.755 71.454 Z"/>
      <path style="fill: rgb(31, 27, 50); stroke: none;" d="M 68.717 71.995 C 67.886 72.716 69.857 72.627 69.959 72.536 C 70.789 71.814 68.819 71.904 68.717 71.995 Z"/>
      <path style="fill: rgb(151, 149, 170); stroke: none;" d="M 73.069 71.454 L 74.935 73.079 L 73.069 71.454 M 76.801 71.454 L 74.935 74.704 L 78.666 74.704 C 78.666 71.691 79.226 72.508 76.801 71.454 Z"/>
      <path style="fill: rgb(243, 231, 231); stroke: none;" d="M 87.995 71.454 C 83.954 73.396 81.366 74.202 76.801 74.704 C 80.101 75.97 82.465 76.186 86.129 76.329 C 82.681 80.513 73.847 87.278 74.107 92.581 C 74.39 98.417 82.415 103.306 84.263 95.832 C 99.187 97.484 101.95 83.454 104.786 73.079 C 101.46 74.672 101.812 74.553 101.055 77.954 L 87.995 71.454 Z"/>
      <path style="fill: rgb(151, 149, 170); stroke: none;" d="M 102.299 71.995 C 101.469 72.716 103.439 72.627 103.542 72.536 C 104.372 71.814 102.402 71.904 102.299 71.995 Z"/>
      <path style="fill: rgb(219, 141, 63); stroke: none;" d="M 11.501 73.079 L 13.367 74.704 L 11.501 73.079 Z"/>
      <path style="fill: rgb(186, 112, 121); stroke: none;" d="M 20.83 73.079 L 22.695 74.704 L 20.83 73.079 Z"/>
      <path style="fill: rgb(192, 34, 14); stroke: none;" d="M 22.695 73.079 C 24.753 75.445 25.574 76.16 28.292 77.954 L 30.158 76.329 C 27.279 74.27 26.337 73.908 22.695 73.079 Z"/>
      <path style="fill: rgb(31, 27, 50); stroke: none;" d="M 32.024 73.079 L 33.89 74.704 L 32.024 73.079 Z"/>
      <path style="fill: rgb(79, 62, 93); stroke: none;" d="M 34.511 74.161 C 34.408 74.252 34.304 75.967 35.134 75.245 C 35.237 75.154 35.341 73.44 34.511 74.161 M 78.666 73.079 C 80.995 74.191 81.554 74.295 84.263 74.704 C 81.935 73.591 81.375 73.487 78.666 73.079 Z"/>
      <path style="fill: rgb(186, 112, 121); stroke: none;" d="M 84.263 73.079 L 86.129 74.704 L 84.263 73.079 Z"/>
      <path style="fill: rgb(71, 91, 186); stroke: none;" d="M 95.458 73.079 C 97.739 75.021 98.107 75.218 101.055 76.329 C 99.226 73.43 99.361 73.737 95.458 73.079 Z"/>
      <path style="fill: rgb(31, 27, 50); stroke: none;" d="M 74.935 74.704 L 80.532 82.83 C 82.426 80.977 82.974 80.21 84.263 77.954 L 74.935 74.704 Z"/>
      <path style="fill: rgb(151, 149, 170); stroke: none;" d="M 5.904 76.329 L 7.77 77.954 L 5.904 76.329 M 13.367 76.329 C 16.177 77.439 17.686 77.672 20.83 77.954 C 18.02 76.844 16.511 76.612 13.367 76.329 Z"/>
      <path style="fill: rgb(31, 27, 50); stroke: none;" d="M 28.914 77.412 C 28.811 77.503 28.707 79.217 29.537 78.496 C 29.64 78.405 29.744 76.69 28.914 77.412 Z"/>
      <path style="fill: rgb(151, 149, 170); stroke: none;" d="M 80.532 76.329 C 82.86 77.441 83.42 77.545 86.129 77.954 C 83.801 76.841 83.241 76.737 80.532 76.329 Z"/>
      <path style="fill: rgb(219, 141, 63); stroke: none;" d="M 87.995 76.329 L 86.129 79.58 C 88.486 78 88.726 78.452 87.995 76.329 Z"/>
      <path style="fill: rgb(192, 34, 14); stroke: none;" d="M 86.129 81.205 L 97.323 81.205 C 93.504 76.687 90.502 77.543 86.129 81.205 Z"/>
      <path style="fill: rgb(219, 141, 63); stroke: none;" d="M 93.592 76.329 L 95.458 77.954 L 93.592 76.329 Z"/>
      <path style="fill: rgb(151, 149, 170); stroke: none;" d="M 99.189 76.329 L 101.055 77.954 L 99.189 76.329 Z"/>
      <path style="fill: rgb(71, 91, 186); stroke: none;" d="M 7.77 86.08 C 14.498 85.352 19.897 86.425 26.427 87.706 C 24.417 76.732 12.182 75.627 7.77 86.08 Z"/>
      <path style="fill: rgb(31, 27, 50); stroke: none;" d="M 101.055 77.954 C 100.497 84.059 99.083 89.906 97.323 95.832 L 104.786 92.581 C 102.068 87.307 103.083 83.433 104.786 77.954 L 101.055 77.954 Z"/>
      <path style="fill: rgb(151, 149, 170); stroke: none;" d="M 4.038 79.58 L 5.904 81.205 L 4.038 79.58 M 32.024 79.58 L 33.89 81.205 L 32.024 79.58 Z"/>
      <path style="fill: rgb(192, 34, 14); stroke: none;" d="M 102.92 79.58 L 101.055 87.706 C 104.56 85.066 104.629 83.318 102.92 79.58 Z"/>
      <path style="fill: rgb(151, 149, 170); stroke: none;" d="M 7.77 81.205 L 9.635 82.83 L 7.77 81.205 M 30.158 81.205 L 32.024 82.83 L 30.158 81.205 M 37.621 81.205 L 39.487 82.83 L 37.621 81.205 Z"/>
      <path style="fill: rgb(243, 231, 231); stroke: none;" d="M 30.158 100.707 C 36.377 99.43 47.532 97.202 49.28 90.885 C 51.231 83.823 40.395 80.051 35.3 85.185 C 31.595 88.92 31.932 96.043 30.158 100.707 Z"/>
      <path style="fill: rgb(151, 149, 170); stroke: none;" d="M 43.218 81.205 L 45.084 82.83 L 43.218 81.205 M 56.278 81.205 L 58.144 82.83 L 56.278 81.205 Z"/>
      <path style="fill: rgb(243, 231, 231); stroke: none;" d="M 52.547 87.706 C 65.314 83.732 65.272 94.946 52.547 92.581 C 54.547 96.15 56.487 98.172 60.009 100.707 C 66.146 97.611 68.567 98.037 74.935 100.707 C 72.834 96.498 68.616 86.984 64.717 84.086 C 59.457 80.176 54.117 83.046 52.547 87.706 Z"/>
      <path style="fill: rgb(151, 149, 170); stroke: none;" d="M 60.009 81.205 L 61.875 82.83 L 60.009 81.205 Z"/>
      <path style="fill: rgb(219, 141, 63); stroke: none;" d="M 86.129 81.205 L 87.995 82.83 L 86.129 81.205 Z"/>
      <path style="fill: rgb(31, 27, 50); stroke: none;" d="M 95.458 81.205 L 97.323 82.83 L 95.458 81.205 Z"/>
      <path style="fill: rgb(151, 149, 170); stroke: none;" d="M 97.945 82.287 C 97.842 82.378 97.738 84.093 98.568 83.371 C 98.67 83.28 98.775 81.566 97.945 82.287 Z"/>
      <path style="fill: rgb(79, 62, 93); stroke: none;" d="M 33.89 82.83 L 35.755 84.455 L 33.89 82.83 Z"/>
      <path style="fill: rgb(151, 149, 170); stroke: none;" d="M 46.949 82.83 L 48.815 84.455 L 46.949 82.83 Z"/>
      <path style="fill: rgb(31, 27, 50); stroke: none;" d="M 48.815 82.83 L 48.815 86.08 C 51.866 85.195 51.53 85.487 52.547 82.83 L 48.815 82.83 M 65.606 82.83 C 66.927 86.817 67.543 90.061 67.472 94.206 C 70.551 92.194 69.959 89.872 71.204 94.206 C 73.183 88.92 70.834 85.7 65.606 82.83 Z"/>
      <path style="fill: rgb(151, 149, 170); stroke: none;" d="M 80.532 82.83 L 82.398 84.455 L 80.532 82.83 Z"/>
      <path style="fill: rgb(219, 141, 63); stroke: none;" d="M 89.239 83.371 C 88.409 84.093 90.379 84.003 90.482 83.912 C 91.312 83.191 89.342 83.28 89.239 83.371 Z"/>
      <path style="fill: rgb(151, 149, 170); stroke: none;" d="M 0.307 84.455 L 2.173 86.08 L 0.307 84.455 M 11.501 84.455 C 14.311 85.565 15.82 85.798 18.964 86.08 C 16.154 84.97 14.645 84.738 11.501 84.455 Z"/>
      <path style="fill: rgb(192, 34, 14); stroke: none;" d="M 38.701 86.212 C 34.201 89.155 39.367 95.42 43.912 92.448 C 48.244 89.615 43.162 83.295 38.701 86.212 Z"/>
      <path style="fill: rgb(151, 149, 170); stroke: none;" d="M 51.302 85.538 C 51.2 85.629 51.095 87.343 51.925 86.622 C 52.028 86.531 52.132 84.816 51.302 85.538 Z"/>
      <path style="fill: rgb(186, 112, 121); stroke: none;" d="M 56.278 84.455 L 58.144 86.08 L 56.278 84.455 Z"/>
      <path style="fill: rgb(192, 34, 14); stroke: none;" d="M 58.312 86.176 C 52.306 87.09 53.642 94.156 59.685 93.449 C 65.705 92.744 64.192 85.282 58.312 86.176 Z"/>
      <path style="fill: rgb(219, 141, 63); stroke: none;" d="M 61.875 84.455 L 63.741 86.08 L 61.875 84.455 Z"/>
      <path style="fill: rgb(151, 149, 170); stroke: none;" d="M 76.801 84.455 L 78.666 86.08 L 76.801 84.455 Z"/>
      <path style="fill: rgb(192, 34, 14); stroke: none;" d="M 86.129 84.455 C 86.305 88.039 86.793 90.784 87.995 94.206 C 93.974 92.118 94.958 89.976 95.458 84.455 L 86.129 84.455 Z"/>
      <path style="fill: rgb(186, 112, 121); stroke: none;" d="M 99.189 84.455 L 101.055 86.08 L 99.189 84.455 Z"/>
      <path style="fill: rgb(79, 62, 93); stroke: none;" d="M 22.695 86.08 L 24.561 87.706 L 22.695 86.08 Z"/>
      <path style="fill: rgb(186, 112, 121); stroke: none;" d="M 32.024 86.08 L 33.89 87.706 L 32.024 86.08 M 45.084 86.08 L 46.949 87.706 L 45.084 86.08 Z"/>
      <path style="fill: rgb(151, 149, 170); stroke: none;" d="M 74.935 86.08 L 76.801 87.706 L 74.935 86.08 Z"/>
      <path style="fill: rgb(186, 112, 121); stroke: none;" d="M 84.263 86.08 L 84.263 90.956 C 85.562 88.43 85.562 88.604 84.263 86.08 Z"/>
      <path style="fill: rgb(219, 141, 63); stroke: none;" d="M 95.458 86.08 L 95.458 90.956 C 96.756 88.43 96.756 88.604 95.458 86.08 Z"/>
      <path style="fill: rgb(79, 62, 93); stroke: none;" d="M 2.173 87.706 L 0.307 90.956 C 2.663 89.376 2.904 89.828 2.173 87.706 Z"/>
      <path style="fill: rgb(151, 149, 170); stroke: none;" d="M 4.038 87.706 L 5.904 89.331 L 4.038 87.706 Z"/>
      <path style="fill: rgb(219, 141, 63); stroke: none;" d="M 11.501 87.706 C 13.83 88.817 14.389 88.921 17.098 89.331 C 14.77 88.218 14.21 88.114 11.501 87.706 Z"/>
      <path style="fill: rgb(151, 149, 170); stroke: none;" d="M 23.94 88.247 C 23.11 88.968 25.08 88.879 25.182 88.788 C 26.013 88.066 24.042 88.156 23.94 88.247 Z"/>
      <path style="fill: rgb(186, 112, 121); stroke: none;" d="M 50.681 87.706 L 50.681 94.206 C 52.006 91.346 52.006 90.564 50.681 87.706 Z"/>
      <path style="fill: rgb(151, 149, 170); stroke: none;" d="M 68.093 88.788 C 67.991 88.879 67.886 90.594 68.717 89.872 C 68.819 89.781 68.924 88.066 68.093 88.788 M 78.666 87.706 L 80.532 89.331 L 78.666 87.706 Z"/>
      <path style="fill: rgb(71, 91, 186); stroke: none;" d="M 80.532 87.706 C 79.331 91.128 78.842 93.873 78.666 97.457 C 81.101 93.912 81.905 91.66 80.532 87.706 Z"/>
      <path style="fill: rgb(151, 149, 170); stroke: none;" d="M 101.055 87.706 L 102.92 89.331 L 101.055 87.706 Z"/>
      <path style="fill: rgb(243, 231, 231); stroke: none;" d="M 103.542 88.788 C 103.439 88.879 103.335 90.594 104.165 89.872 C 104.267 89.781 104.372 88.066 103.542 88.788 Z"/>
      <path style="fill: rgb(31, 27, 50); stroke: none;" d="M 2.173 89.331 L 4.038 90.956 L 2.173 89.331 Z"/>
      <path style="fill: rgb(219, 141, 63); stroke: none;" d="M 7.77 89.331 L 9.635 90.956 L 7.77 89.331 Z"/>
      <path style="fill: rgb(186, 112, 121); stroke: none;" d="M 5.904 100.707 L 22.695 100.707 C 22.248 95.594 17.063 84.84 9.613 91.936 C 7.316 94.122 6.764 97.967 5.904 100.707 Z"/>
      <path style="fill: rgb(219, 141, 63); stroke: none;" d="M 18.964 89.331 L 20.83 90.956 L 18.964 89.331 Z"/>
      <path style="fill: rgb(151, 149, 170); stroke: none;" d="M 73.069 89.331 L 74.935 90.956 L 73.069 89.331 Z"/>
      <path style="fill: rgb(71, 91, 186); stroke: none;" d="M 101.055 89.331 L 102.92 90.956 L 101.055 89.331 Z"/>
      <path style="fill: rgb(219, 141, 63); stroke: none;" d="M 20.83 90.956 L 22.695 92.581 L 20.83 90.956 Z"/>
      <path style="fill: rgb(71, 91, 186); stroke: none;" d="M 27.048 92.038 C 26.945 92.129 26.841 93.844 27.671 93.122 C 27.774 93.031 27.878 91.317 27.048 92.038 Z"/>
      <path style="fill: rgb(186, 112, 121); stroke: none;" d="M 63.741 90.956 L 65.606 92.581 L 63.741 90.956 Z"/>
      <path style="fill: rgb(79, 62, 93); stroke: none;" d="M 69.959 92.038 C 69.857 92.129 69.752 93.844 70.582 93.122 C 70.685 93.031 70.789 91.317 69.959 92.038 Z"/>
      <path style="fill: rgb(151, 149, 170); stroke: none;" d="M 77.422 92.038 C 77.319 92.129 77.215 93.844 78.045 93.122 C 78.148 93.031 78.252 91.317 77.422 92.038 Z"/>
      <path style="fill: rgb(219, 141, 63); stroke: none;" d="M 84.263 90.956 L 86.129 92.581 L 84.263 90.956 Z"/>
      <path style="fill: rgb(79, 62, 93); stroke: none;" d="M 5.904 92.581 L 5.904 99.082 C 7.229 96.222 7.229 95.44 5.904 92.581 M 48.815 92.581 C 48.815 95.97 49.073 95.383 45.084 95.832 C 48.733 97.704 52.103 98.409 56.278 99.082 C 53.797 96.233 52.086 94.743 48.815 92.581 Z"/>
      <path style="fill: rgb(219, 141, 63); stroke: none;" d="M 86.129 92.581 L 87.995 94.206 L 86.129 92.581 Z"/>
      <path style="fill: rgb(186, 112, 121); stroke: none;" d="M 91.726 92.581 L 93.592 94.206 L 91.726 92.581 Z"/>
      <path style="fill: rgb(151, 149, 170); stroke: none;" d="M 97.323 92.581 L 99.189 94.206 L 97.323 92.581 M 101.055 92.581 L 101.055 95.832 C 104.105 94.946 103.769 95.238 104.786 92.581 L 101.055 92.581 M 22.695 94.206 L 22.695 99.082 C 23.994 96.556 23.994 96.73 22.695 94.206 M 46.949 94.206 L 48.815 95.832 L 46.949 94.206 Z"/>
      <path style="fill: rgb(31, 27, 50); stroke: none;" d="M 48.815 94.206 L 50.681 95.832 L 48.815 94.206 Z"/>
      <path style="fill: rgb(219, 141, 63); stroke: none;" d="M 59.388 94.748 C 58.558 95.469 60.528 95.38 60.631 95.289 C 61.461 94.567 59.491 94.657 59.388 94.748 Z"/>
      <path style="fill: rgb(151, 149, 170); stroke: none;" d="M 71.204 94.206 C 73.485 96.149 73.853 96.345 76.801 97.457 C 74.519 95.513 74.151 95.316 71.204 94.206 M 82.398 94.206 L 84.263 95.832 L 82.398 94.206 Z"/>
      <path style="fill: rgb(186, 112, 121); stroke: none;" d="M 96.079 95.289 C 95.976 95.38 95.872 97.094 96.702 96.373 C 96.805 96.282 96.909 94.567 96.079 95.289 Z"/>
      <path style="fill: rgb(79, 62, 93); stroke: none;" d="M 99.189 94.206 L 101.055 95.832 L 99.189 94.206 Z"/>
      <path style="fill: rgb(243, 231, 231); stroke: none;" d="M 102.92 94.206 L 91.726 99.082 C 95.956 100.197 100.351 100.26 104.786 100.707 C 104.461 97.967 104.195 96.654 102.92 94.206 Z"/>
      <path style="fill: rgb(186, 112, 121); stroke: none;" d="M 64.985 96.373 C 64.155 97.094 66.125 97.005 66.228 96.914 C 67.058 96.192 65.088 96.282 64.985 96.373 Z"/>
      <path style="fill: rgb(219, 141, 63); stroke: none;" d="M 67.472 95.832 L 69.338 97.457 L 67.472 95.832 Z"/>
      <path style="fill: rgb(31, 27, 50); stroke: none;" d="M 84.263 95.832 L 86.129 97.457 L 84.263 95.832 Z"/>
      <path style="fill: rgb(151, 149, 170); stroke: none;" d="M 86.129 95.832 L 87.995 97.457 L 86.129 95.832 M 91.726 95.832 L 93.592 97.457 L 91.726 95.832 Z"/>
      <path style="fill: rgb(79, 62, 93); stroke: none;" d="M 93.592 95.832 L 95.458 97.457 L 93.592 95.832 Z"/>
      <path style="fill: rgb(186, 112, 121); stroke: none;" d="M 28.292 97.457 L 26.427 100.707 C 28.783 99.128 29.024 99.579 28.292 97.457 Z"/>
      <path style="fill: rgb(192, 34, 14); stroke: none;" d="M 35.755 97.457 C 38.99 100.712 42.015 100.582 46.949 100.707 C 43.328 99.162 39.677 98.367 35.755 97.457 Z"/>
      <path style="fill: rgb(31, 27, 50); stroke: none;" d="M 37.621 97.457 C 40.921 98.723 43.285 98.939 46.949 99.082 C 43.649 97.816 41.285 97.598 37.621 97.457 Z"/>
      <path style="fill: rgb(186, 112, 121); stroke: none;" d="M 47.571 98.539 C 47.468 98.63 47.364 100.345 48.194 99.623 C 48.296 99.532 48.401 97.818 47.571 98.539 Z"/>
      <path style="fill: rgb(243, 231, 231); stroke: none;" d="M 49.436 98.539 C 49.334 98.63 49.229 100.345 50.06 99.623 C 50.162 99.532 50.267 97.818 49.436 98.539 Z"/>
      <path style="fill: rgb(151, 149, 170); stroke: none;" d="M 52.547 97.457 C 54.375 100.355 54.241 100.047 58.144 100.707 C 56.019 99.056 55.136 98.58 52.547 97.457 Z"/>
      <path style="fill: rgb(31, 27, 50); stroke: none;" d="M 56.278 97.457 L 58.144 99.082 L 56.278 97.457 Z"/>
      <path style="fill: rgb(192, 34, 14); stroke: none;" d="M 61.875 97.457 L 61.875 100.707 L 71.204 100.707 L 71.204 97.457 L 61.875 97.457 Z"/>
      <path style="fill: rgb(79, 62, 93); stroke: none;" d="M 74.935 97.457 L 76.801 99.082 L 74.935 97.457 M 85.508 97.998 C 84.678 98.72 86.648 98.63 86.75 98.539 C 87.581 97.818 85.61 97.907 85.508 97.998 Z"/>
      <path style="fill: rgb(31, 27, 50); stroke: none;" d="M 87.995 97.457 C 90.323 98.568 90.883 98.672 93.592 99.082 C 91.264 97.969 90.704 97.865 87.995 97.457 M 28.292 99.082 L 30.158 100.707 L 28.292 99.082 M 50.681 99.082 L 52.547 100.707 L 50.681 99.082 Z"/>
      <path style="fill: rgb(219, 141, 63); stroke: none;" d="M 60.009 99.082 L 61.875 100.707 L 60.009 99.082 M 71.204 99.082 L 73.069 100.707 L 71.204 99.082 Z"/>
      <path style="fill: rgb(31, 27, 50); stroke: none;" d="M 74.935 99.082 L 76.801 100.707 L 74.935 99.082 Z"/>
      <path style="fill: rgb(151, 149, 170); stroke: none;" d="M 76.801 99.082 L 78.666 100.707 L 76.801 99.082 M 84.263 99.082 C 87.073 100.192 88.583 100.424 91.726 100.707 C 88.916 99.597 87.407 99.365 84.263 99.082 Z"/>
      <path style="fill: rgb(192, 34, 14); stroke: none;" d="M 96.702 99.623 C 95.872 100.345 97.842 100.255 97.945 100.164 C 98.775 99.443 96.805 99.532 96.702 99.623 Z"/>
      <path style="fill: rgb(219, 141, 63); stroke: none;" d="M 99.189 99.082 L 101.055 100.707 L 99.189 99.082 Z"/>
    </pattern>
    <pattern id="pattern-0-0" patternTransform="matrix(1, 0, 0, 1, 239.039001, 793.568481)" xlink:href="#pattern-0"/>
  </defs>
  <rect id="svgEditorBackground" x="202.71499633789062" y="584.4310302734375" width="86.59329986572266" height="115.80899810791016" style="fill: none; stroke: none;" class="clothes"/>
  <rect id="rect-1" x="-403.988" y="499.579" width="1300" height="550" style="fill: none; stroke: none;" class="clothes"/>
  <polygon id="e1_polygon" style="stroke-width: 0px; stroke: none; fill: url(#pattern-0-0);" points="232.887 657.172 258.318 647.55 258.318 658.547 280.999 679.853 281.686 686.039 274.813 720.404 277.562 755.457 285.122 763.705 285.122 762.33 269.314 766.454 261.754 731.401 262.441 718.342 262.441 719.03 257.63 733.463 260.379 739.649 274.813 767.828 283.061 776.076 287.872 787.76 289.934 959.587 213.643 943.778 217.079 765.766 233.575 737.587 235.636 726.59 232.2 713.531 227.389 707.346 231.513 723.841 232.2 730.714 224.64 766.454 219.828 765.079 208.144 767.828 208.832 767.828 218.454 748.584 218.454 747.897 219.141 730.027 209.519 689.476 215.705 679.853" class="clothes"/>
</svg>