<?xml version="1.0" encoding="utf-8"?>
<svg class="shirt" width="86" height="380" viewBox="202.715 584.407 86.5933 380.048" preserveAspectRatio="xMidYMax" xmlns="http://www.w3.org/2000/svg">
  <defs id="svgEditorDefs">
    <path id="svgEditorClosePathDefs" fill="black" style="stroke-width: 0px; stroke: none;" class="clothes"/>
  </defs>
  <rect id="rect-1" x="-403.988" y="499.579" width="1300" height="550" style="fill: none; stroke: rgb(218, 85, 85);" class="clothes"/>
  <g transform="matrix(0.15289, 0.033258, 0, 0.262667, 216.250366, 684.585693)">
    <g id="g10" transform="matrix(1.25, 0, 0, -1.25, -9.565108, 987.63916)">
      <g id="g12">
        <g id="g14" clip-path="url(#clipPath16)">
          <g id="g20" transform="translate(3.6764,3.6764)">
            <path d="M 0 0 L 0 441.384 C 0 535.065 86.2 584.304 185.67 611.713 L 206.856 608.23 C 308.974 608.23 371.341 535.065 371.341 441.384 L 371.341 6.165 L 0 0 Z" style="fill: none; stroke-width: 7.353; stroke-linecap: butt; stroke-linejoin: miter; stroke-miterlimit: 10; stroke-dasharray: none; stroke-opacity: 1; stroke: rgb(218, 85, 85);" id="path22"/>
          </g>
          <g id="g24" transform="translate(64.0475,3.6764)">
            <path d="M 0 0 L 0 441.384 C 0 535.065 56.385 611.713 125.299 611.713 L 125.3 611.713 C 268.361 534.784 250.599 535.065 250.599 441.384 L 250.599 0 L 0 0 Z" style="fill: none; stroke-width: 6.975; stroke-linecap: butt; stroke-linejoin: miter; stroke-miterlimit: 10; stroke-dasharray: none; stroke-opacity: 1; stroke: rgb(218, 85, 85);" id="path26"/>
          </g>
          <g id="g28" transform="translate(126.4506,3.6764)">
            <path d="M 0 0 L 0 441.384 C 0 535.065 28.303 611.713 62.896 611.713 L 62.896 611.713 C 139.859 543.092 125.793 535.065 125.793 441.384 L 125.793 0 L 0 0 Z" style="fill: none; stroke-width: 6.506; stroke-linecap: butt; stroke-linejoin: miter; stroke-miterlimit: 10; stroke-dasharray: none; stroke-opacity: 1; stroke: rgb(218, 85, 85);" id="path30"/>
          </g>
          <g id="g32" transform="translate(188.847,615.1261)">
            <path d="M 0,0 0,-611" style="fill: none; stroke-width: 7; stroke-linecap: butt; stroke-linejoin: miter; stroke-miterlimit: 10; stroke-dasharray: none; stroke-opacity: 1; stroke: rgb(218, 85, 85);" id="path34"/>
          </g>
          <g id="g36" transform="translate(97.5452,375.7204)">
            <path d="m 0,0 c 2.451,-6.612 -4.156,-14.037 -11.699,-14.67 -7.543,-0.633 -14.714,4.083 -18.477,10.147 -4.367,7.036 -4.872,15.979 -1.401,23.428 3.471,7.449 10.813,13.247 19.304,15.341 8.546,2.107 18.149,0.406 25.09,-4.653 C 21.234,23.458 25.098,13.21 25.531,3.322 26.094,-9.531 21.399,-22.521 12.588,-32.491 5.237,-40.808 -4.621,-46.861 -13.251,-54.06 c -7.061,-5.889 -21.247,-18.019 -15.446,-27.788 2.121,-3.573 5.876,-6.042 9.625,-8.196 4.946,-2.843 11.17,-5.407 16.377,-2.993 3.957,1.835 5.979,6.145 6.062,10.231 0.11,5.452 -1.746,18.173 -10.667,16.209 -4.764,-1.048 -5.546,-6.054 -6.231,-9.805" style="fill: none; stroke-width: 4.618; stroke-linecap: butt; stroke-linejoin: miter; stroke-miterlimit: 10; stroke-dasharray: none; stroke-opacity: 1; stroke: rgb(218, 85, 85);" id="path38"/>
          </g>
          <g id="g40" transform="translate(30.1026,374.0839)">
            <path d="m 0,0 c -2.073,-6.721 4.945,-13.817 12.514,-14.086 7.569,-0.268 14.463,4.787 17.877,11.024 3.963,7.237 3.961,16.192 0.072,23.463 -3.888,7.272 -11.549,12.708 -20.147,14.39 -8.654,1.692 -18.147,-0.469 -24.792,-5.856 -8.058,-6.532 -11.336,-16.953 -11.208,-26.849 0.166,-12.862 5.59,-25.608 14.954,-35.139 7.812,-7.952 18,-13.521 27.026,-20.294 7.385,-5.541 22.239,-16.97 17,-27.006 -1.917,-3.67 -5.527,-6.316 -9.148,-8.648 -4.779,-3.078 -10.849,-5.939 -16.186,-3.779 -4.055,1.642 -6.319,5.848 -6.633,9.925 -0.419,5.439 0.714,18.232 9.734,16.701 4.817,-0.817 5.881,-5.778 6.778,-9.491" style="fill: none; stroke-width: 4.618; stroke-linecap: butt; stroke-linejoin: miter; stroke-miterlimit: 10; stroke-dasharray: none; stroke-opacity: 1; stroke: rgb(218, 85, 85);" id="path42"/>
          </g>
          <g id="g44" transform="translate(222.5452,374.0574)">
            <path d="m 0,0 c 2.451,-6.612 -4.156,-14.037 -11.699,-14.67 -7.543,-0.633 -14.714,4.083 -18.477,10.147 -4.367,7.036 -4.872,15.979 -1.401,23.428 3.471,7.449 10.813,13.247 19.304,15.341 8.546,2.107 18.149,0.406 25.09,-4.653 C 21.234,23.458 25.098,13.21 25.531,3.322 26.094,-9.531 21.399,-22.521 12.588,-32.491 5.237,-40.808 -4.621,-46.861 -13.251,-54.06 c -7.061,-5.889 -21.247,-18.019 -15.446,-27.788 2.121,-3.573 5.876,-6.042 9.625,-8.196 4.946,-2.843 11.17,-5.407 16.377,-2.993 3.957,1.835 5.979,6.145 6.062,10.231 0.11,5.452 -1.746,18.173 -10.667,16.209 -4.764,-1.048 -5.546,-6.054 -6.231,-9.805" style="fill: none; stroke-width: 4.618; stroke-linecap: butt; stroke-linejoin: miter; stroke-miterlimit: 10; stroke-dasharray: none; stroke-opacity: 1; stroke: rgb(218, 85, 85);" id="path46"/>
          </g>
          <g id="g48" transform="translate(155.1026,372.4209)">
            <path d="m 0,0 c -2.073,-6.721 4.945,-13.817 12.514,-14.086 7.569,-0.268 14.463,4.787 17.877,11.024 3.963,7.237 3.961,16.192 0.072,23.463 -3.888,7.272 -11.549,12.708 -20.147,14.39 -8.654,1.692 -18.147,-0.469 -24.792,-5.856 -8.058,-6.532 -11.336,-16.953 -11.208,-26.849 0.166,-12.862 5.59,-25.608 14.954,-35.139 7.812,-7.952 18,-13.521 27.026,-20.294 7.385,-5.541 22.239,-16.97 17,-27.006 -1.917,-3.67 -5.527,-6.316 -9.148,-8.648 -4.779,-3.078 -10.849,-5.938 -16.186,-3.779 -4.055,1.642 -6.319,5.848 -6.633,9.925 -0.419,5.439 0.714,18.232 9.734,16.701 4.817,-0.817 5.881,-5.778 6.778,-9.491" style="fill: none; stroke-width: 4.618; stroke-linecap: butt; stroke-linejoin: miter; stroke-miterlimit: 10; stroke-dasharray: none; stroke-opacity: 1; stroke: rgb(218, 85, 85);" id="path50"/>
          </g>
          <g id="g52" transform="translate(346.5451,375.7204)">
            <path d="m 0,0 c 2.451,-6.612 -4.156,-14.037 -11.699,-14.67 -7.543,-0.633 -14.714,4.083 -18.477,10.147 -4.367,7.036 -4.872,15.979 -1.401,23.428 3.471,7.449 10.813,13.247 19.304,15.341 8.546,2.107 18.149,0.406 25.09,-4.653 C 21.234,23.458 25.098,13.21 25.531,3.322 26.094,-9.531 21.399,-22.521 12.588,-32.491 5.237,-40.808 -4.621,-46.861 -13.251,-54.06 c -7.061,-5.889 -21.247,-18.019 -15.446,-27.788 2.121,-3.573 5.876,-6.042 9.625,-8.196 4.946,-2.843 11.17,-5.407 16.377,-2.993 3.957,1.835 5.979,6.145 6.062,10.231 0.11,5.452 -1.746,18.173 -10.667,16.209 -4.764,-1.048 -5.546,-6.054 -6.231,-9.805" style="fill: none; stroke-width: 4.618; stroke-linecap: butt; stroke-linejoin: miter; stroke-miterlimit: 10; stroke-dasharray: none; stroke-opacity: 1; stroke: rgb(218, 85, 85);" id="path54"/>
          </g>
          <g id="g56" transform="translate(279.1026,374.0839)">
            <path d="m 0,0 c -2.073,-6.721 4.945,-13.817 12.514,-14.086 7.569,-0.268 14.463,4.787 17.877,11.024 3.963,7.237 3.961,16.192 0.072,23.463 -3.888,7.272 -11.549,12.708 -20.147,14.39 -8.654,1.692 -18.147,-0.469 -24.792,-5.856 -8.058,-6.532 -11.336,-16.953 -11.208,-26.849 0.166,-12.862 5.59,-25.608 14.954,-35.139 7.812,-7.952 18,-13.521 27.026,-20.294 7.385,-5.541 22.239,-16.97 17,-27.006 -1.917,-3.67 -5.527,-6.316 -9.148,-8.648 -4.779,-3.078 -10.849,-5.939 -16.186,-3.779 -4.055,1.642 -6.319,5.848 -6.633,9.925 -0.419,5.439 0.714,18.232 9.734,16.701 4.817,-0.817 5.881,-5.778 6.778,-9.491" style="fill: none; stroke-width: 4.618; stroke-linecap: butt; stroke-linejoin: miter; stroke-miterlimit: 10; stroke-dasharray: none; stroke-opacity: 1; stroke: rgb(218, 85, 85);" id="path58"/>
          </g>
          <g id="g72" transform="translate(136.2888,746.9092)"/>
          <g id="g76" transform="translate(49.0057,39.5664)">
            <path d="m 0,0 c 9.942,2.674 15.833,12.901 13.159,22.843 -2.14,7.953 -10.321,12.666 -18.275,10.527 -6.362,-1.712 -10.133,-8.257 -8.421,-14.62 1.369,-5.09 6.605,-8.106 11.695,-6.737 4.072,1.095 6.485,5.284 5.39,9.357" style="fill: none; stroke-width: 5; stroke-linecap: butt; stroke-linejoin: miter; stroke-miterlimit: 10; stroke-dasharray: none; stroke-opacity: 1; stroke: rgb(218, 85, 85);" id="path78"/>
          </g>
          <g id="g80" transform="translate(49.0057,39.5664)">
            <path d="m 0,0 c -9.942,-2.674 -15.833,-12.901 -13.159,-22.843 2.14,-7.953 10.321,-12.666 18.275,-10.527 6.362,1.712 10.133,8.257 8.421,14.62 -1.369,5.09 -6.605,8.106 -11.695,6.737 -4.072,-1.095 -6.485,-5.284 -5.39,-9.357" style="fill: none; stroke-width: 5; stroke-linecap: butt; stroke-linejoin: miter; stroke-miterlimit: 10; stroke-dasharray: none; stroke-opacity: 1; stroke: rgb(218, 85, 85);" id="path82"/>
          </g>
          <g id="g84" transform="translate(20.1478,39.7585)">
            <path d="m 0,0 c -9.911,2.786 -15.687,13.078 -12.902,22.989 2.229,7.929 10.463,12.55 18.392,10.321 6.343,-1.783 10.039,-8.37 8.257,-14.713 -1.427,-5.074 -6.696,-8.032 -11.771,-6.605 -4.059,1.141 -6.425,5.356 -5.284,9.416" style="fill: none; stroke-width: 5; stroke-linecap: butt; stroke-linejoin: miter; stroke-miterlimit: 10; stroke-dasharray: none; stroke-opacity: 1; stroke: rgb(218, 85, 85);" id="path86"/>
          </g>
          <g id="g88" transform="translate(20.1478,39.7585)">
            <path d="M 0,0 C 9.911,-2.786 15.687,-13.078 12.902,-22.989 10.673,-30.918 2.439,-35.539 -5.49,-33.31 c -6.343,1.783 -10.039,8.37 -8.257,14.713 1.427,5.074 6.696,8.032 11.771,6.605 4.059,-1.141 6.425,-5.356 5.284,-9.416" style="fill: none; stroke-width: 5; stroke-linecap: butt; stroke-linejoin: miter; stroke-miterlimit: 10; stroke-dasharray: none; stroke-opacity: 1; stroke: rgb(218, 85, 85);" id="path90"/>
          </g>
          <g id="g92" transform="translate(110.0057,39.5664)">
            <path d="m 0,0 c 9.942,2.674 15.833,12.901 13.159,22.843 -2.14,7.953 -10.321,12.666 -18.275,10.527 -6.362,-1.712 -10.133,-8.257 -8.421,-14.62 1.369,-5.09 6.605,-8.106 11.695,-6.737 4.072,1.095 6.485,5.284 5.39,9.357" style="fill: none; stroke-width: 5; stroke-linecap: butt; stroke-linejoin: miter; stroke-miterlimit: 10; stroke-dasharray: none; stroke-opacity: 1; stroke: rgb(218, 85, 85);" id="path94"/>
          </g>
          <g id="g96" transform="translate(110.0057,39.5664)">
            <path d="m 0,0 c -9.942,-2.674 -15.833,-12.901 -13.159,-22.843 2.14,-7.953 10.321,-12.666 18.275,-10.527 6.362,1.712 10.133,8.257 8.421,14.62 -1.369,5.09 -6.605,8.106 -11.695,6.737 -4.072,-1.095 -6.485,-5.284 -5.39,-9.357" style="fill: none; stroke-width: 5; stroke-linecap: butt; stroke-linejoin: miter; stroke-miterlimit: 10; stroke-dasharray: none; stroke-opacity: 1; stroke: rgb(218, 85, 85);" id="path98"/>
          </g>
          <g id="g100" transform="translate(81.1478,39.7585)">
            <path d="m 0,0 c -9.911,2.786 -15.687,13.078 -12.902,22.989 2.229,7.929 10.463,12.55 18.392,10.321 6.343,-1.783 10.039,-8.37 8.257,-14.713 -1.427,-5.074 -6.696,-8.032 -11.771,-6.605 -4.059,1.141 -6.425,5.356 -5.284,9.416" style="fill: none; stroke-width: 5; stroke-linecap: butt; stroke-linejoin: miter; stroke-miterlimit: 10; stroke-dasharray: none; stroke-opacity: 1; stroke: rgb(218, 85, 85);" id="path102"/>
          </g>
          <g id="g104" transform="translate(81.1478,39.7585)">
            <path d="M 0,0 C 9.911,-2.786 15.687,-13.078 12.902,-22.989 10.673,-30.918 2.439,-35.539 -5.49,-33.31 c -6.343,1.783 -10.039,8.37 -8.257,14.713 1.427,5.074 6.696,8.032 11.771,6.605 4.059,-1.141 6.425,-5.356 5.284,-9.416" style="fill: none; stroke-width: 5; stroke-linecap: butt; stroke-linejoin: miter; stroke-miterlimit: 10; stroke-dasharray: none; stroke-opacity: 1; stroke: rgb(218, 85, 85);" id="path106"/>
          </g>
          <g id="g108" transform="translate(171.0057,39.5664)">
            <path d="m 0,0 c 9.942,2.674 15.833,12.901 13.159,22.843 -2.14,7.953 -10.321,12.666 -18.275,10.527 -6.362,-1.712 -10.133,-8.257 -8.421,-14.62 1.369,-5.09 6.605,-8.106 11.695,-6.737 4.072,1.095 6.485,5.284 5.39,9.357" style="fill: none; stroke-width: 5; stroke-linecap: butt; stroke-linejoin: miter; stroke-miterlimit: 10; stroke-dasharray: none; stroke-opacity: 1; stroke: rgb(218, 85, 85);" id="path110"/>
          </g>
          <g id="g112" transform="translate(171.0057,39.5664)">
            <path d="m 0,0 c -9.942,-2.674 -15.833,-12.901 -13.159,-22.843 2.14,-7.953 10.321,-12.666 18.275,-10.527 6.362,1.712 10.133,8.257 8.421,14.62 -1.369,5.09 -6.605,8.106 -11.695,6.737 -4.072,-1.095 -6.485,-5.284 -5.39,-9.357" style="fill: none; stroke-width: 5; stroke-linecap: butt; stroke-linejoin: miter; stroke-miterlimit: 10; stroke-dasharray: none; stroke-opacity: 1; stroke: rgb(218, 85, 85);" id="path114"/>
          </g>
          <g id="g116" transform="translate(142.1478,39.7585)">
            <path d="m 0,0 c -9.911,2.786 -15.687,13.078 -12.902,22.989 2.229,7.929 10.463,12.55 18.392,10.321 6.343,-1.783 10.039,-8.37 8.257,-14.713 -1.427,-5.074 -6.696,-8.032 -11.771,-6.605 -4.059,1.141 -6.425,5.356 -5.284,9.416" style="fill: none; stroke-width: 5; stroke-linecap: butt; stroke-linejoin: miter; stroke-miterlimit: 10; stroke-dasharray: none; stroke-opacity: 1; stroke: rgb(218, 85, 85);" id="path118"/>
          </g>
          <g id="g120" transform="translate(142.1478,39.7585)">
            <path d="M 0,0 C 9.911,-2.786 15.687,-13.078 12.902,-22.989 10.673,-30.918 2.439,-35.539 -5.49,-33.31 c -6.343,1.783 -10.039,8.37 -8.257,14.713 1.427,5.074 6.696,8.032 11.771,6.605 4.059,-1.141 6.425,-5.356 5.284,-9.416" style="fill: none; stroke-width: 5; stroke-linecap: butt; stroke-linejoin: miter; stroke-miterlimit: 10; stroke-dasharray: none; stroke-opacity: 1; stroke: rgb(218, 85, 85);" id="path122"/>
          </g>
          <g id="g124" transform="translate(234.0057,39.5664)">
            <path d="m 0,0 c 9.942,2.674 15.833,12.901 13.159,22.843 -2.14,7.953 -10.321,12.666 -18.275,10.527 -6.362,-1.712 -10.133,-8.257 -8.421,-14.62 1.369,-5.09 6.605,-8.106 11.695,-6.737 4.072,1.095 6.485,5.284 5.39,9.357" style="fill: none; stroke-width: 5; stroke-linecap: butt; stroke-linejoin: miter; stroke-miterlimit: 10; stroke-dasharray: none; stroke-opacity: 1; stroke: rgb(218, 85, 85);" id="path126"/>
          </g>
          <g id="g128" transform="translate(234.0057,39.5664)">
            <path d="m 0,0 c -9.942,-2.674 -15.833,-12.901 -13.159,-22.843 2.14,-7.953 10.321,-12.666 18.275,-10.527 6.362,1.712 10.133,8.257 8.421,14.62 -1.369,5.09 -6.605,8.106 -11.695,6.737 -4.072,-1.095 -6.485,-5.284 -5.39,-9.357" style="fill: none; stroke-width: 5; stroke-linecap: butt; stroke-linejoin: miter; stroke-miterlimit: 10; stroke-dasharray: none; stroke-opacity: 1; stroke: rgb(218, 85, 85);" id="path130"/>
          </g>
          <g id="g132" transform="translate(205.1478,39.7585)">
            <path d="m 0,0 c -9.911,2.786 -15.687,13.078 -12.902,22.989 2.229,7.929 10.463,12.55 18.392,10.321 6.343,-1.783 10.039,-8.37 8.257,-14.713 -1.427,-5.074 -6.696,-8.032 -11.771,-6.605 -4.059,1.141 -6.425,5.356 -5.284,9.416" style="fill: none; stroke-width: 5; stroke-linecap: butt; stroke-linejoin: miter; stroke-miterlimit: 10; stroke-dasharray: none; stroke-opacity: 1; stroke: rgb(218, 85, 85);" id="path134"/>
          </g>
          <g id="g136" transform="translate(205.1478,39.7585)">
            <path d="M 0,0 C 9.911,-2.786 15.687,-13.078 12.902,-22.989 10.673,-30.918 2.439,-35.539 -5.49,-33.31 c -6.343,1.783 -10.039,8.37 -8.257,14.713 1.427,5.074 6.696,8.032 11.771,6.605 4.059,-1.141 6.425,-5.356 5.284,-9.416" style="fill: none; stroke-width: 5; stroke-linecap: butt; stroke-linejoin: miter; stroke-miterlimit: 10; stroke-dasharray: none; stroke-opacity: 1; stroke: rgb(218, 85, 85);" id="path138"/>
          </g>
          <g id="g140" transform="translate(297.0056,39.5664)">
            <path d="m 0,0 c 9.942,2.674 15.833,12.901 13.159,22.843 -2.14,7.953 -10.321,12.666 -18.275,10.527 -6.362,-1.712 -10.133,-8.257 -8.421,-14.62 1.369,-5.09 6.605,-8.106 11.695,-6.737 4.072,1.095 6.485,5.284 5.39,9.357" style="fill: none; stroke-width: 5; stroke-linecap: butt; stroke-linejoin: miter; stroke-miterlimit: 10; stroke-dasharray: none; stroke-opacity: 1; stroke: rgb(218, 85, 85);" id="path142"/>
          </g>
          <g id="g144" transform="translate(297.0056,39.5664)">
            <path d="m 0,0 c -9.941,-2.674 -15.833,-12.901 -13.159,-22.843 2.14,-7.953 10.322,-12.666 18.275,-10.527 6.362,1.712 10.133,8.257 8.421,14.62 -1.369,5.09 -6.605,8.106 -11.695,6.737 -4.072,-1.095 -6.485,-5.284 -5.39,-9.357" style="fill: none; stroke-width: 5; stroke-linecap: butt; stroke-linejoin: miter; stroke-miterlimit: 10; stroke-dasharray: none; stroke-opacity: 1; stroke: rgb(218, 85, 85);" id="path146"/>
          </g>
          <g id="g148" transform="translate(268.1478,39.7585)">
            <path d="m 0,0 c -9.911,2.786 -15.687,13.078 -12.902,22.989 2.229,7.929 10.463,12.55 18.392,10.321 6.343,-1.783 10.039,-8.37 8.257,-14.713 -1.427,-5.074 -6.696,-8.032 -11.771,-6.605 -4.059,1.141 -6.425,5.356 -5.284,9.416" style="fill: none; stroke-width: 5; stroke-linecap: butt; stroke-linejoin: miter; stroke-miterlimit: 10; stroke-dasharray: none; stroke-opacity: 1; stroke: rgb(218, 85, 85);" id="path150"/>
          </g>
          <g id="g152" transform="translate(268.1478,39.7585)">
            <path d="M 0,0 C 9.911,-2.786 15.687,-13.078 12.902,-22.989 10.673,-30.918 2.439,-35.539 -5.49,-33.31 c -6.343,1.783 -10.039,8.37 -8.257,14.713 1.427,5.074 6.696,8.032 11.771,6.605 4.059,-1.141 6.425,-5.356 5.284,-9.416" style="fill: none; stroke-width: 5; stroke-linecap: butt; stroke-linejoin: miter; stroke-miterlimit: 10; stroke-dasharray: none; stroke-opacity: 1; stroke: rgb(218, 85, 85);" id="path154"/>
          </g>
          <g id="g156" transform="translate(359.0056,39.5664)">
            <path d="m 0,0 c 9.942,2.674 15.833,12.901 13.159,22.843 -2.14,7.953 -10.321,12.666 -18.275,10.527 -6.362,-1.712 -10.133,-8.257 -8.421,-14.62 1.369,-5.09 6.605,-8.106 11.695,-6.737 4.072,1.095 6.485,5.284 5.39,9.357" style="fill: none; stroke-width: 5; stroke-linecap: butt; stroke-linejoin: miter; stroke-miterlimit: 10; stroke-dasharray: none; stroke-opacity: 1; stroke: rgb(218, 85, 85);" id="path158"/>
          </g>
          <g id="g160" transform="translate(359.0056,39.5664)">
            <path d="m 0,0 c -9.941,-2.674 -15.833,-12.901 -13.159,-22.843 2.14,-7.953 10.322,-12.666 18.275,-10.527 6.362,1.712 10.133,8.257 8.421,14.62 -1.369,5.09 -6.605,8.106 -11.695,6.737 -4.072,-1.095 -6.485,-5.284 -5.39,-9.357" style="fill: none; stroke-width: 5; stroke-linecap: butt; stroke-linejoin: miter; stroke-miterlimit: 10; stroke-dasharray: none; stroke-opacity: 1; stroke: rgb(218, 85, 85);" id="path162"/>
          </g>
          <g id="g164" transform="translate(330.1478,39.7585)">
            <path d="m 0,0 c -9.911,2.786 -15.687,13.078 -12.902,22.989 2.229,7.929 10.463,12.55 18.392,10.321 6.343,-1.783 10.039,-8.37 8.257,-14.713 -1.427,-5.074 -6.696,-8.032 -11.771,-6.605 -4.059,1.141 -6.425,5.356 -5.284,9.416" style="fill: none; stroke-width: 5; stroke-linecap: butt; stroke-linejoin: miter; stroke-miterlimit: 10; stroke-dasharray: none; stroke-opacity: 1; stroke: rgb(218, 85, 85);" id="path166"/>
          </g>
          <g id="g168" transform="translate(330.1478,39.7585)">
            <path d="M 0,0 C 9.911,-2.786 15.687,-13.078 12.902,-22.989 10.673,-30.918 2.439,-35.539 -5.49,-33.31 c -6.343,1.783 -10.039,8.37 -8.257,14.713 1.427,5.074 6.696,8.032 11.771,6.605 4.059,-1.141 6.425,-5.356 5.284,-9.416" style="fill: none; stroke-width: 5; stroke-linecap: butt; stroke-linejoin: miter; stroke-miterlimit: 10; stroke-dasharray: none; stroke-opacity: 1; stroke: rgb(218, 85, 85);" id="path170"/>
          </g>
        </g>
      </g>
    </g>
  </g>
  <path d="M 271.621 763.049 C 275.669 772.605 279.249 769.573 283.261 778.738 C 287.492 788.404 287.816 787.484 287.816 793.92 C 287.816 802.346 287.31 818.341 287.31 818.212" style="fill: rgb(216, 216, 216); fill-opacity: 0; stroke: rgb(218, 85, 85);"/>
</svg>