<svg class="shirtOverlay" width="86" height="380" viewBox="202.715 584.407 86.593 380.048" preserveAspectRatio="xMidYMax" xmlns="http://www.w3.org/2000/svg" xmlns:xlink="http://www.w3.org/1999/xlink"><defs><pattern id="a" width="20" height="20" patternUnits="userSpaceOnUse" viewBox="0 0 100 100"><path d="M.307-.055C3.956 2.089 5.173 2.056 9.635 1.57 6.335.304 3.971.086.307-.055z" fill="#c0220e"/><path d="M9.635-.055l1.866 1.625L9.635-.055z" fill="#db8d3f"/><path d="M.307 4.821c.138 10.055 10.996 24.751 23.444 13.921 5.413-4.708 4.346-12.769 6.407-18.797-4.981.868-4.558-1.276-5.597 3.25C15.152-.676 9.572 1.955.307 4.821z" fill="#f3e7e7"/><path d="M18.964-.055L20.83 1.57 18.964-.055z" fill="#db8d3f"/><path d="M20.83-.055l1.865 1.625L20.83-.055z" fill="#ba7079"/><path d="M23.317 1.027c-.103.091-.207 1.806.623 1.084.102-.091.207-1.805-.623-1.084z" fill="#9795aa"/><path d="M26.427-.055l1.865 1.625-1.865-1.625z" fill="#ba7079"/><path d="M30.158-.055c2.536 13.236 17.206 1.167 0 0z" fill="#c0220e"/><path d="M39.487-.055l1.865 1.625-1.865-1.625z" fill="#ba7079"/><path d="M41.352-.055c-1.953 5.758-4.321 7.543-11.194 8.126 7.504 4.656 16.694-.8 11.194-8.126z" fill="#f3e7e7"/><path d="M43.218-.055l1.866 1.625-1.866-1.625z" fill="#9795aa"/><path d="M45.084-.055v6.501c1.699-2.238 2.619-3.966 3.731-6.501h-3.731z" fill="#1f1b32"/><path d="M48.815-.055l1.866 1.625-1.866-1.625z" fill="#ba7079"/><path d="M50.681-.055c1.675 8.74 9.519 8.74 11.194 0H50.681z" fill="#c0220e"/><path d="M61.875-.055v6.501c1.7-2.238 2.619-3.966 3.731-6.501h-3.731z" fill="#db8d3f"/><path d="M65.606-.055c.573 3.449.713 4.365 3.732 6.501-1.112-2.536-2.032-4.265-3.732-6.501z" fill="#1f1b32"/><path d="M67.472-.055v4.876c1.894-1.853 2.442-2.62 3.732-4.876h-3.732z" fill="#c0220e"/><path d="M71.204-.055c-2.038 5.048-3.099 7.864 1.865 11.376-.315-4.352.217-7.256 1.866-11.376h-3.731z" fill="#f3e7e7"/><path d="M73.069 9.696c1.275-2.447 1.541-3.762 1.866-6.501l1.866 6.501h5.597c-.881-9.858-9.769-10.191-9.329 0z" fill="#c0220e"/><path d="M80.532-.055l1.866 1.625-1.866-1.625z" fill="#db8d3f"/><path d="M83.019 1.027c-.103.091-.207 1.806.623 1.084.103-.091.207-1.805-.623-1.084z" fill="#9795aa"/><path d="M84.885 1.027c-.103.091-.207 1.806.623 1.084.102-.091.207-1.805-.623-1.084z" fill="#4f3e5d"/><path d="M86.129-.055c.812 18.228-17.937 9.2-31.717 11.376 4.707 1.609 8.131 1.003 13.06 0-2.897 4.741-5.052 5.962-11.194 6.501 1.284 7.288.345 11.185-7.463 14.627 8 9.811.98 15.95-11.194 17.877 5.866 4.538 8.481 7.66 7.463 14.627l-1.866-6.501c-3.101 3.237-1.453 5.771-3.213 9.751-2.759 6.241-20.504 26.567-6.115 29.254-.907-7.73-.653-12.113 7.462-16.252-.041-11.446 12.497-17.611 5.597-29.254 9.419-4.789 8.187-11.407 11.807-19.502 2.843-6.355 7.972-11.506 10.582-17.877 6.229 1.921 10.22 2.847 16.791 1.625v17.877c2.687-5.579 1.866-11.864 1.866-17.877 2.948 1.11 3.315 1.307 5.597 3.25 1.724-2.68 2.703-5.16 3.731-8.126-3.906.982-7.145 1.663-11.194 1.626 3.431-4.766 3.537-8.258 0-13.002z" fill="#1f1b32"/><path d="M87.995-.055c1.276 2.568 1.502 2.888 3.731 4.876V-.055h-3.731z" fill="#c0220e"/><path d="M91.726-.055l-1.865 8.126c3.05-.886 2.714-.593 3.731-3.25 4.041 1.942 6.629 2.748 11.194 3.25L97.323-.055h-5.597z" fill="#f3e7e7"/><path d="M97.323-.055c2.153 3.655 3.267 4.625 7.463 6.501V-.055h-7.463z" fill="#c0220e"/><path d="M.928 2.653c-.102.091-.207 1.805.623 1.084.103-.091.208-1.806-.623-1.084z" fill="#9795aa"/><path d="M5.904 1.57L7.77 3.195 5.904 1.57m22.388 0l1.866 1.625-1.866-1.625z" fill="#ba7079"/><path d="M47.571 2.653c-.103.091-.207 1.805.623 1.084.102-.091.207-1.806-.623-1.084z" fill="#4f3e5d"/><path d="M48.815 1.57l-1.866 6.501c9.432 3.408 16.307 3.091 18.657-6.501-6.427 6.199-10.399 6.259-16.791 0z" fill="#f3e7e7"/><path d="M3.417 3.737c-.83.721 1.14.632 1.243.541.83-.722-1.14-.632-1.243-.541m8.355 1.199c-9.241 4.274-2.405 16.77 6.916 12.745 9.659-4.17 2.884-17.278-6.916-12.745z" fill="#ba7079"/><path d="M18.964 3.195l1.866 1.626-1.866-1.626z" fill="#db8d3f"/><path d="M27.048 4.278c-.103.091-.207 1.805.623 1.084.103-.091.207-1.806-.623-1.084z" fill="#9795aa"/><path d="M28.292 3.195v4.876c1.299-2.526 1.299-2.352 0-4.876z" fill="#4f3e5d"/><path d="M71.204 3.195l1.865 1.626-1.865-1.626m3.731 0v6.501c1.325-2.86 1.325-3.642 0-6.501m7.463 0v4.876c1.298-2.526 1.298-2.352 0-4.876z" fill="#ba7079"/><path d="M84.263 3.195l-1.865 9.752c3.086-3.538 3.72-5.567 1.865-9.752z" fill="#475bba"/><path d="M7.77 4.821l1.865 1.625L7.77 4.821z" fill="#db8d3f"/><path d="M86.129 4.821l1.866 1.625-1.866-1.625z" fill="#9795aa"/><path d="M89.861 4.821l1.865 1.625-1.865-1.625z" fill="#db8d3f"/><path d="M93.592 4.821l-1.866 4.875c2.405-2.345 2.614-2.005 1.866-4.875z" fill="#1f1b32"/><path d="M30.158 6.446l1.866 1.625-1.866-1.625z" fill="#ba7079"/><path d="M43.218 6.446c2.545 2.956 2.784 1.675 1.866 4.875 4.147-.32 5.642.592 9.328 1.626-3.537-3.547-6.08-4.988-11.194-6.501z" fill="#4f3e5d"/><path d="M60.009 6.446l1.866 1.625-1.866-1.625z" fill="#ba7079"/><path d="M63.741 6.446c2.688 1.753 2.179 1.573 5.597 1.625-1.991-.975-3.25-1.225-5.597-1.625z" fill="#9795aa"/><path d="M65.606 6.446l1.866 1.625-1.866-1.625z" fill="#4f3e5d"/><path d="M71.204 6.446l1.865 1.625-1.865-1.625z" fill="#ba7079"/><path d="M87.995 6.446c1.276 2.568 1.502 2.888 3.731 4.875-1.276-2.567-1.502-2.889-3.731-4.875z" fill="#475bba"/><path d="M91.726 6.446l1.866 1.625-1.866-1.625z" fill="#9795aa"/><path d="M95.458 6.446l1.865 1.625-1.865-1.625z" fill="#475bba"/><path d="M28.292 8.071c-1.363 10.708-12.19 19.985-11.194 30.879 7.303-7.41 13.599-7.345 24.254-8.126-2.024-9.673 1.629-14.058 5.597-22.753-7.209 1.939-11.783 3.242-18.657 0z" fill="#1f1b32"/><path d="M35.134 8.612c-.83.722 1.14.632 1.243.541.83-.721-1.14-.632-1.243-.541z" fill="#db8d3f"/><path d="M41.352 8.071l1.866 1.625-1.866-1.625z" fill="#9795aa"/><path d="M55.657 8.612c-.831.722 1.14.632 1.242.541.83-.721-1.14-.632-1.242-.541z" fill="#db8d3f"/><path d="M82.398 8.071l1.865 1.625-1.865-1.625m9.328 3.25l1.866 1.626c2.229-1.988 2.455-2.308 3.731-4.876-2.947 1.11-3.315 1.307-5.597 3.25z" fill="#9795aa"/><path d="M97.945 9.153c-.103.091-.207 1.806.623 1.084.102-.091.207-1.805-.623-1.084z" fill="#4f3e5d"/><path d="M99.189 8.071l1.866 1.625-1.866-1.625z" fill="#1f1b32"/><path d="M99.189 9.696c1.116 1.942.869 1.588 3.731 3.251l-3.731 1.625c2.125 1.649 3.008 2.126 5.597 3.25V8.071c-3.353 0-2.838.023-5.597 1.625m-69.031 0l1.866 1.625-1.866-1.625m9.329 0l1.865 1.625-1.865-1.625z" fill="#9795aa"/><path d="M48.815 9.696l1.866 1.625-1.866-1.625z" fill="#1f1b32"/><path d="M60.009 9.696l1.866 1.625-1.866-1.625z" fill="#9795aa"/><path d="M69.338 9.696l1.866 1.625-1.866-1.625z" fill="#4f3e5d"/><path d="M73.069 9.696l-1.865 3.251h3.731c0-3.014.56-2.196-1.866-3.251z" fill="#9795aa"/><path d="M74.935 9.696v4.876c1.894-1.853 2.442-2.62 3.731-4.876h-3.731z" fill="#475bba"/><path d="M78.666 9.696l1.866 1.625-1.866-1.625z" fill="#ba7079"/><path d="M76.801 11.321c3.375.933 3.86.756 7.462 0-3.095-.661-4.182-.502-7.462 0z" fill="#f3e7e7"/><path d="M45.084 11.321l1.865 1.626-1.865-1.626z" fill="#9795aa"/><path d="M46.949 11.321c-2.615 2.95-6.078 5.971-6.768 9.81-1.118 6.216 5.502 11.016 11.774 6.832 3.815-2.546 3.993-6.351 4.323-10.141 5.304-.686 7.485-1.526 11.194-4.875-8.925 2.143-12.466 2.772-20.523-1.626z" fill="#f3e7e7"/><path d="M48.815 11.321l1.866 1.626-1.866-1.626m16.17.542c-.83.721 1.14.632 1.243.541.83-.722-1.14-.632-1.243-.541z" fill="#9795aa"/><path d="M86.129 11.321l1.866 1.626-1.866-1.626z" fill="#4f3e5d"/><path d="M88.616 12.404c-.103.091-.207 1.805.623 1.084.103-.091.207-1.806-.623-1.084z" fill="#9795aa"/><path d="M91.105 11.863c-.83.721 1.14.632 1.243.541.83-.722-1.14-.632-1.243-.541m8.084 38.463c3.036-2.872 4.349-4.433 5.597-8.126-6.817 1.201-10.045 1.188-14.925-3.25 6.164 1.433 9.477 1.555 13.059-3.251-7.328 1.362-10.841.34-11.194-6.5 4.474 1.669 8.239 2.727 13.06 3.25-2.356-1.755-6.168-3.681-6.797-6.554-.966-4.403 3.06-3.737 4.931-1.572 2.528-3.922 1.211-5.579-3.731-6.501l3.731-6.501c-6.951 2.003-6.877 5.687-9.804 11.102-6.944 12.836-8.853 19.345 6.073 27.903z" fill="#f3e7e7"/><path d="M45.084 12.947l1.865 1.625-1.865-1.625z" fill="#ba7079"/><path d="M50.681 12.947c3.474 2.876 4.515 3.206 9.328 3.25-3.265-2.04-5.33-2.623-9.328-3.25z" fill="#475bba"/><path d="M56.278 12.947c2.328 1.111 2.888 1.215 5.597 1.625-2.328-1.113-2.888-1.217-5.597-1.625z" fill="#4f3e5d"/><path d="M61.875 12.947l1.866 1.625-1.866-1.625m14.926 0l1.865 1.625-1.865-1.625m-50.374 1.625l1.865 1.625-1.865-1.625z" fill="#9795aa"/><path d="M65.606 14.572l1.866 1.625-1.866-1.625m3.732 0c-3.37 5.525-7.929 10.367-10.582 16.258-3.846 8.536-3.282 14.754-11.807 21.121 1.7 4.006 3.209 7.184 1.247 11.399-2.043 4.395-9.56 10.376-6.543 15.524 3.489 5.953 14.295 2.791 20.149 3.781 5.138.869 9.021 4.085 13.133 6.676 2.058-2.368 2.879-3.083 5.597-4.876-1.524-4.872-4.515-8.657-7.463-13.001l-5.597 1.625c-1.621-3.985-4.931-8.645-4.371-12.995 1.276-9.888 15.759-12.314 24.894-13.008-.899-3.842-1.187-4.093-5.597-4.876l2.765-13.001-2.765-11.377-13.06-3.25z" fill="#4f3e5d"/><path d="M.307 16.197v3.25h3.731c-1.016-2.658-.681-2.364-3.731-3.25z" fill="#ba7079"/><path d="M2.173 16.197l1.865 1.625-1.865-1.625m37.314 0l1.865 1.625-1.865-1.625z" fill="#4f3e5d"/><path d="M46.949 16.197l1.866 1.625-1.866-1.625z" fill="#db8d3f"/><path d="M63.741 16.197l1.865 1.625-1.865-1.625z" fill="#9795aa"/><path d="M82.398 16.197v9.751h3.731v-9.751h-3.731z" fill="#475bba"/><path d="M87.995 16.197v11.376c5.08-3.187 5.397-6.013 5.597-11.376h-5.597z" fill="#4f3e5d"/><path d="M100.433 16.738c-.83.722 1.14.632 1.243.541.83-.721-1.14-.632-1.243-.541z" fill="#475bba"/><path d="M4.66 18.905c-.103.091-.207 1.805.623 1.084.102-.091.207-1.806-.623-1.084m19.901-1.083l1.866 1.625-1.866-1.625z" fill="#9795aa"/><path d="M52.547 17.822c-17.396 1.209-1.392 15.555 0 0z" fill="#c0220e"/><path d="M59.388 18.363c-.83.722 1.14.633 1.243.542.83-.722-1.14-.633-1.243-.542z" fill="#9795aa"/><path d="M1.551 19.989c-.83.721 1.14.632 1.243.541.83-.722-1.14-.632-1.243-.541z" fill="#f3e7e7"/><path d="M2.173 21.073c2.809 1.11 4.319 1.342 7.462 1.625-3.216-1.716-3.584-1.684-7.462-1.625z" fill="#1f1b32"/><path d="M22.695 19.447l1.866 1.626-1.866-1.626z" fill="#ba7079"/><path d="M41.352 19.447l1.866 1.626-1.866-1.626m11.195 0v4.876c1.298-2.526 1.298-2.352 0-4.876z" fill="#db8d3f"/><path d="M73.069 19.447v9.752h3.732v-9.752h-3.732z" fill="#475bba"/><path d="M93.592 19.447l1.866 1.626-1.866-1.626z" fill="#9795aa"/><path d="M100.433 19.989c-.83.721 1.14.632 1.243.541.83-.722-1.14-.632-1.243-.541z" fill="#ba7079"/><path d="M.307 21.073l1.866 1.625-1.866-1.625z" fill="#4f3e5d"/><path d="M18.964 21.073l1.866 1.625-1.866-1.625m37.314 0l1.866 1.625-1.866-1.625z" fill="#9795aa"/><path d="M97.323 21.073v8.126h7.463l-1.866-8.126h-5.597z" fill="#c0220e"/><path d="M.307 22.698c4.442 3.936 6.884 4.472 13.06 3.25-4.166-1.641-8.59-2.285-13.06-3.25z" fill="#f3e7e7"/><path d="M2.173 22.698l1.865 1.625-1.865-1.625z" fill="#ba7079"/><path d="M4.038 22.698c2.81 1.11 4.319 1.342 7.463 1.625-2.81-1.11-4.319-1.342-7.463-1.625z" fill="#c0220e"/><path d="M11.501 22.698c1.017 2.657.681 2.364 3.732 3.25v-3.25h-3.732z" fill="#ba7079"/><path d="M15.233 22.698c-2.17 3.751-4.163 6.715-7.463 9.751 6.485.13 8.769-4.999 11.194-9.751h-3.731z" fill="#1f1b32"/><path d="M18.964 22.698l1.866 1.625-1.866-1.625m37.314 0c-1.782 2.871-2.922 4.237-5.597 6.501 5.453.715 7.293-2.16 5.597-6.501z" fill="#475bba"/><path d="M95.458 22.698v4.875c1.298-2.525 1.298-2.351 0-4.875M.307 24.323l1.866 1.625-1.866-1.625z" fill="#ba7079"/><path d="M17.098 24.323l1.866 1.625-1.866-1.625z" fill="#9795aa"/><path d="M18.964 24.323l-5.597 9.751c4.925-2.496 7.123-4.778 5.597-9.751z" fill="#f3e7e7"/><path d="M41.352 24.323l1.866 1.625-1.866-1.625m61.568 0l1.866 1.625-1.866-1.625z" fill="#db8d3f"/><path d="M.307 25.948c1.078 4.383 2.353 4.533 7.463 4.876-2.705-2.614-3.827-3.356-7.463-4.876z" fill="#c0220e"/><path d="M11.501 25.948l1.866 1.625-1.866-1.625z" fill="#4f3e5d"/><path d="M43.218 25.948l1.866 1.625-1.866-1.625m7.463 0l1.866 1.625-1.866-1.625z" fill="#db8d3f"/><path d="M7.149 28.115c-.831.721 1.139.632 1.242.541.83-.722-1.14-.632-1.242-.541z" fill="#4f3e5d"/><path d="M9.635 27.573L7.77 30.824h3.731c0-3.013.56-2.196-1.866-3.251m5.598 0l1.865 1.626-1.865-1.626m37.314 0l1.865 1.626-1.865-1.626m-33.583 1.626l1.866 1.625-1.866-1.625z" fill="#9795aa"/><path d="M41.352 29.199c1.017 2.657.681 2.364 3.732 3.25-1.017-2.659-.681-2.365-3.732-3.25z" fill="#4f3e5d"/><path d="M45.084 34.074l9.328-1.625c-4.418-2.144-6.296-1.919-9.328 1.625m9.328-4.875l1.866 1.625-1.866-1.625z" fill="#9795aa"/><path d="M91.726 29.199c-1.16 6.604 2.258 7.903 9.329 6.5v-3.25l-9.329-3.25z" fill="#c0220e"/><path d="M93.592 29.199l1.866 1.625-1.866-1.625m5.597 0c2.328 1.111 2.888 1.215 5.597 1.625-2.328-1.114-2.888-1.218-5.597-1.625M1.551 31.365c-.83.722 1.14.632 1.243.541.83-.721-1.14-.632-1.243-.541z" fill="#ba7079"/><path d="M4.038 30.824l1.866 1.625-1.866-1.625z" fill="#db8d3f"/><path d="M.307 32.449c3.813 1.258 5.308.962 9.328 0-3.444-.761-5.725-.491-9.328 0z" fill="#f3e7e7"/><path d="M9.635 30.824l1.866 1.625-1.866-1.625z" fill="#4f3e5d"/><path d="M13.367 30.824l1.866 1.625-1.866-1.625z" fill="#9795aa"/><path d="M22.695 30.824l1.866 1.625-1.866-1.625z" fill="#db8d3f"/><path d="M18.964 38.95c2.289-1.531 5.304-4.283 8.481-4.119 3.527.181 5.243 3.948 2.971 6.267-2.079 2.123-5.056 1.309-7.721 1.102 8.092 9.288 13.542-2.573 11.195-9.751 4.365 1.503 6.585 1.994 11.194 1.625-8.629-5.096-22.644-4.713-26.12 4.876z" fill="#f3e7e7"/><path d="M41.352 30.824l1.866 1.625-1.866-1.625m-39.179 3.25c4.166 1.64 8.589 2.284 13.06 3.251 0-2.921-.027-2.474-1.866-4.876L2.173 34.074z" fill="#9795aa"/><path d="M17.098 32.449l1.866 1.625-1.866-1.625z" fill="#4f3e5d"/><path d="M26.427 32.449l1.865 1.625-1.865-1.625z" fill="#db8d3f"/><path d="M35.134 32.99c-.83.722 1.14.632 1.243.541.83-.721-1.14-.632-1.243-.541z" fill="#9795aa"/><path d="M82.398 32.449V42.2h3.731v-9.751h-3.731z" fill="#475bba"/><path d="M101.055 32.449v3.25c3.05-.885 2.714-.593 3.731-3.25h-3.731z" fill="#ba7079"/><path d="M.307 34.074l1.866 1.625-1.866-1.625z" fill="#4f3e5d"/><path d="M22.695 34.074c1.39 15.524 17.822 1.211 0 0z" fill="#c0220e"/><path d="M35.755 34.074l1.866 1.625-1.866-1.625z" fill="#1f1b32"/><path d="M37.621 34.074c-.897 3.576-.897 4.549 0 8.126 2.132-3.502 2.248-4.718 0-8.126z" fill="#ba7079"/><path d="M43.218 34.074c2.569 1.481 4.552 2.28 7.463 3.251-2.452-2.63-3.502-2.754-7.463-3.251z" fill="#db8d3f"/><path d="M50.681 34.074c1.017 2.657.681 2.365 3.731 3.251-1.017-2.659-.681-2.365-3.731-3.251m52.861 1.083c-.103.091-.207 1.805.623 1.084.102-.091.207-1.806-.623-1.084z" fill="#9795aa"/><path d="M.307 40.575c17.877-4.13 18.556 14.71 0 11.376 5.248 10.301 22.366 1.871 19.901-8.126-1.929-7.82-17.647-12.415-19.901-3.25z" fill="#f3e7e7"/><path d="M20.83 35.699v4.876c1.298-2.526 1.298-2.352 0-4.876z" fill="#ba7079"/><path d="M42.477 37.456c-3.923 2.482-.653 8.211 3.954 6.09 5.373-2.474.925-9.173-3.954-6.09z" fill="#c0220e"/><path d="M50.681 35.699c-1.189 6.48-3.562 8.703-11.194 8.126-2.885 3.273-5.012 4.819-9.329 6.501 2.246 2.412 6.435 5.758 4.961 9.267-1.748 4.164-9.909 4.538-13.73 6.688C11.988 71.569 3.688 80.116.307 89.331l5.597-1.625C1.512 92.032.52 94.962.307 100.707h5.597c1.718-13.315 17.383-14.038 16.791 0 8.232-4.711 11.474-21.821 7.463-29.253 5.983-.808 8.291-1.871 11.194-6.501-6.156 3.549-9.405 4.75-14.925 0 11.145-.741 14.515-5.978 9.328-14.627 4.448-.47 4.454.145 3.732-3.25 8.364-.239 17.545-3.28 11.194-11.377z" fill="#f3e7e7"/><path d="M73.069 35.699v9.752h3.732v-9.752h-3.732z" fill="#475bba"/><path d="M99.189 35.699l1.866 1.626-1.866-1.626z" fill="#ba7079"/><path d="M5.283 37.866c-.83.721 1.14.632 1.242.541.831-.722-1.14-.632-1.242-.541z" fill="#9795aa"/><path d="M94.836 37.866c-.83.721 1.14.632 1.243.541.83-.722-1.14-.632-1.243-.541z" fill="#db8d3f"/><path d="M102.92 37.325c-4.041 1.942-6.628 2.748-11.194 3.25 4.483 2.568 10.2 1.885 11.194-3.25z" fill="#1f1b32"/><path d="M2.173 38.95c3.3 1.266 5.664 1.482 9.328 1.625-3.3-1.266-5.664-1.484-9.328-1.625z" fill="#4f3e5d"/><path d="M11.501 38.95l1.866 1.625-1.866-1.625z" fill="#ba7079"/><path d="M17.098 38.95c2.058 2.366 2.879 3.081 5.597 4.875-1.677-3.452-1.634-3.414-5.597-4.875m73.384 1.082c-.103.091-.207 1.806.623 1.084.103-.091.207-1.805-.623-1.084z" fill="#9795aa"/><path d="M102.92 38.95l1.866 1.625-1.866-1.625z" fill="#4f3e5d"/><path d="M.307 40.575v11.376h13.06c.205-3.968.798-7.513 1.866-11.376H.307z" fill="#c0220e"/><path d="M35.755 40.575c-2.836 3.176-5.791 5.537-9.328 8.126l7.463 1.625c.848-3.601 2.96-6.182 1.865-9.751z" fill="#1f1b32"/><path d="M102.299 41.116c-.83.722 1.14.632 1.243.541.83-.721-1.14-.632-1.243-.541z" fill="#9795aa"/><path d="M13.367 42.2v8.126c1.548-3.301 1.548-4.827 0-8.126z" fill="#4f3e5d"/><path d="M15.233 42.2v6.501c1.324-2.86 1.324-3.642 0-6.501m14.925 0l1.866 1.625-1.866-1.625z" fill="#db8d3f"/><path d="M38.242 43.283c-.102.091-.207 1.805.623 1.084.103-.091.207-1.806-.623-1.084z" fill="#9795aa"/><path d="M48.815 42.2l1.866 1.625-1.866-1.625z" fill="#ba7079"/><path d="M52.547 42.2l1.865 1.625-1.865-1.625m39.179 0l1.866 1.625-1.866-1.625m3.732 3.251c2.947-1.112 3.315-1.309 5.597-3.251-3.903.658-3.769.351-5.597 3.251z" fill="#9795aa"/><path d="M20.83 43.825v4.876c2.099-2.717 2.099-2.158 0-4.876z" fill="#4f3e5d"/><path d="M46.949 43.825l1.866 1.626-1.866-1.626z" fill="#db8d3f"/><path d="M87.995 43.825l1.866 1.626-1.866-1.626z" fill="#9795aa"/><path d="M20.83 45.451l1.865 1.625-1.865-1.625z" fill="#1f1b32"/><path d="M24.561 45.451l-1.866 3.25c2.357-1.58 2.597-1.128 1.866-3.25m3.731 0l1.866 1.625-1.866-1.625z" fill="#9795aa"/><path d="M30.158 45.451l1.866 1.625-1.866-1.625z" fill="#ba7079"/><path d="M32.024 47.076c2.817.406 4.545.292 7.463 0-3.375-.935-3.86-.758-7.463 0z" fill="#475bba"/><path d="M50.681 45.451l1.866 1.625-1.866-1.625z" fill="#4f3e5d"/><path d="M87.995 45.451l1.866 1.625-1.866-1.625z" fill="#1f1b32"/><path d="M90.482 46.533c-.103.091-.207 1.805.623 1.084.103-.091.207-1.806-.623-1.084z" fill="#475bba"/><path d="M24.561 47.076l-1.866 3.25c2.357-1.58 2.597-1.128 1.866-3.25z" fill="#ba7079"/><path d="M34.511 48.158c-.103.091-.207 1.806.623 1.084.103-.091.207-1.805-.623-1.084z" fill="#9795aa"/><path d="M39.487 47.076l1.865 1.625-1.865-1.625z" fill="#475bba"/><path d="M41.352 50.326l5.597-1.625c-3.317-1.554-3.77-1.247-5.597 1.625z" fill="#9795aa"/><path d="M46.949 47.076l1.866 1.625-1.866-1.625z" fill="#475bba"/><path d="M78.666 47.076l1.866 1.625-1.866-1.625z" fill="#9795aa"/><path d="M80.53 48.072c-5.498 1.008-12.869 2.833-15.646 7.499-5.003 8.408 3.808 17.001 13.782 15.775 6.025-.739 14.642-3.096 17.264-8.366 4.64-9.33-5.293-16.761-15.4-14.908z" fill="#f3e7e7"/><path d="M91.726 47.076l1.866 1.625-1.866-1.625z" fill="#1f1b32"/><path d="M93.592 47.076l1.866 1.625-1.866-1.625z" fill="#475bba"/><path d="M95.458 47.076l1.865 1.625-1.865-1.625z" fill="#9795aa"/><path d="M101.055 47.076l-1.866 3.25c2.356-1.58 2.597-1.128 1.866-3.25z" fill="#db8d3f"/><path d="M102.92 47.076c-2.212 1.927-2.85 2.572-3.731 4.875 4.2-.77 5.817-1.399 3.731-4.875z" fill="#c0220e"/><path d="M18.964 48.701l1.866 1.625-1.866-1.625z" fill="#db8d3f"/><path d="M20.83 48.701l-5.597 8.126c7.921 1.011 11.416-2.675 5.597-8.126z" fill="#c0220e"/><path d="M24.561 48.701c.662 6.649-1.89 8.716-9.328 9.751 8.944 5.323 15.248-2.818 9.328-9.751z" fill="#f3e7e7"/><path d="M26.427 48.701l1.865 1.625-1.865-1.625z" fill="#9795aa"/><path d="M43.218 48.701l1.866 1.625-1.866-1.625z" fill="#4f3e5d"/><path d="M74.314 49.242c-.831.722 1.14.632 1.242.541.83-.721-1.14-.632-1.242-.541z" fill="#9795aa"/><path d="M93.592 48.701c1.017 2.657.681 2.365 3.731 3.25v-3.25h-3.731z" fill="#4f3e5d"/><path d="M13.367 50.326l1.866 1.625-1.866-1.625m11.194 0l1.866 1.625-1.866-1.625z" fill="#db8d3f"/><path d="M28.292 50.326v4.876c1.299-2.526 1.299-2.352 0-4.876m7.463 0l1.866 1.625-1.866-1.625m31.717 0l1.866 1.625-1.866-1.625z" fill="#9795aa"/><path d="M80.808 52.028c-10.086 4.825-.894 17.381 8.243 12.562 8.785-4.633 1.3-17.129-8.243-12.562z" fill="#db8d3f"/><path d="M93.592 50.326l1.866 1.625-1.866-1.625m3.731 0l-1.865 1.625c2.121 5.118 2.634 9.223 1.865 14.627 4.39-5.062 4.797-11.284 0-16.252z" fill="#9795aa"/><path d="M2.173 51.951l1.865 1.626-1.865-1.626z" fill="#ba7079"/><path d="M4.038 51.951c2.81 1.11 4.319 1.343 7.463 1.626-2.81-1.111-4.319-1.343-7.463-1.626z" fill="#4f3e5d"/><path d="M11.501 51.951l1.866 1.626-1.866-1.626z" fill="#9795aa"/><path d="M17.098 51.951l1.866 1.626-1.866-1.626m14.305.541c-.831.722 1.14.633 1.242.542.83-.722-1.14-.633-1.242-.542z" fill="#ba7079"/><path d="M38.865 52.492c-.83.722 1.14.633 1.243.542.83-.722-1.14-.633-1.243-.542z" fill="#9795aa"/><path d="M41.352 51.951c1.209 3.889 1.926 5.747 5.597 8.126-1.528-3.422-2.774-5.441-5.597-8.126m59.703 0c-1.418 5.212 2.809 15.306-5.597 16.252 11.209 3.2 9.328-9.967 9.328-16.252h-3.731z" fill="#f3e7e7"/><path d="M15.233 53.577l1.865 1.625-1.865-1.625z" fill="#db8d3f"/><path d="M28.292 63.328c14.122-3.738 1.258-14.063 0 0z" fill="#c0220e"/><path d="M40.108 54.659c-.103.091-.207 1.805.623 1.084.103-.091.207-1.806-.623-1.084z" fill="#4f3e5d"/><path d="M63.741 53.577l1.865 1.625-1.865-1.625z" fill="#9795aa"/><path d="M74.935 68.203c-1.528-5.189-2.717-9.284-1.866-14.626-9.358 4.496-7.683 11.568 1.866 14.626z" fill="#db8d3f"/><path d="M.307 55.202l1.866 1.625-1.866-1.625z" fill="#9795aa"/><path d="M13.367 55.202v3.25h3.731c-1.017-2.659-.681-2.365-3.731-3.25z" fill="#ba7079"/><path d="M24.561 55.202l1.866 1.625-1.866-1.625z" fill="#db8d3f"/><path d="M41.352 55.202c-1.839 2.402-1.865 1.955-1.865 4.875 2.405-2.345 2.614-2.005 1.865-4.875z" fill="#9795aa"/><path d="M97.323 55.202l1.866 1.625-1.866-1.625z" fill="#4f3e5d"/><path d="M1.551 57.368c-.83.722 1.14.632 1.243.541.83-.721-1.14-.632-1.243-.541z" fill="#475bba"/><path d="M2.173 61.702c2.229-.971 1.822-.757 3.731-3.25 3.75 2.396 4.705 2.379 9.329 1.625-5.482-2.473-9.424-2.972-13.06 1.625z" fill="#9795aa"/><path d="M7.77 56.827l1.865 1.625-1.865-1.625z" fill="#4f3e5d"/><path d="M10.88 57.368c-.83.722 1.14.632 1.242.541.831-.721-1.139-.632-1.242-.541z" fill="#1f1b32"/><path d="M22.695 56.827l1.866 1.625-1.866-1.625z" fill="#db8d3f"/><path d="M45.084 56.827l1.865 1.625-1.865-1.625m17.412 1.082c-.102.091-.207 1.806.623 1.084.103-.091.208-1.805-.623-1.084z" fill="#9795aa"/><path d="M.307 58.452c1.517 8.287 10.625 13.151 16.791 4.876-8.248 2.525-11.071.364-16.791-4.876z" fill="#f3e7e7"/><path d="M4.038 58.452l1.866 1.625-1.866-1.625z" fill="#ba7079"/><path d="M26.427 58.452l-1.866 3.25h3.731c0-3.013.56-2.195-1.865-3.25z" fill="#1f1b32"/><path d="M4.038 60.077c1.428 5.801 5.487 5.055 11.195 3.251-3.674-1.728-7.086-2.49-11.195-3.251z" fill="#c0220e"/><path d="M13.367 60.077l1.866 1.625-1.866-1.625z" fill="#4f3e5d"/><path d="M15.854 61.16c-.103.091-.207 1.805.623 1.084.103-.091.207-1.806-.623-1.084z" fill="#ba7079"/><path d="M22.695 60.077l1.866 1.625-1.866-1.625z" fill="#9795aa"/><path d="M35.755 60.077l1.866 1.625-1.866-1.625z" fill="#db8d3f"/><path d="M43.218 60.077v4.876c2.23-1.988 2.455-2.308 3.731-4.876h-3.731z" fill="#9795aa"/><path d="M97.323 60.077l-3.731 8.126h7.463l-3.732-8.126M17.72 62.785c-.103.091-.208 1.805.623 1.084.102-.091.207-1.806-.623-1.084z" fill="#4f3e5d"/><path d="M18.964 61.702c-3.414 3.815-6.274 5.879-11.194 8.126 7.528 3.056 11.603-2.626 14.925-8.126h-3.731z" fill="#1f1b32"/><path d="M22.695 61.702l-1.865 3.251c2.356-1.58 2.597-1.128 1.865-3.251z" fill="#4f3e5d"/><path d="M25.806 62.244c-.831.721 1.139.632 1.242.541.83-.722-1.14-.632-1.242-.541z" fill="#ba7079"/><path d="M33.89 61.702l1.865 1.626-1.865-1.626z" fill="#db8d3f"/><path d="M35.755 63.328c1.991.973 3.25 1.223 5.597 1.625-2.688-1.755-2.179-1.575-5.597-1.625z" fill="#9795aa"/><path d="M39.487 61.702l1.865 1.626-1.865-1.626z" fill="#4f3e5d"/><path d="M62.496 62.785c-.102.091-.207 1.805.623 1.084.103-.091.208-1.806-.623-1.084z" fill="#9795aa"/><path d="M13.367 63.328l1.866 1.625-1.866-1.625z" fill="#ba7079"/><path d="M23.94 63.869c-.83.721 1.14.632 1.242.541.831-.722-1.14-.632-1.242-.541z" fill="#9795aa"/><path d="M37.621 63.328l1.866 1.625-1.866-1.625z" fill="#4f3e5d"/><path d="M.307 64.953v19.502c6.647-6.18 7.022-13.512 0-19.502z" fill="#1f1b32"/><path d="M5.904 64.953c2.328 1.112 2.888 1.216 5.597 1.625-2.328-1.113-2.888-1.217-5.597-1.625z" fill="#ba7079"/><path d="M11.501 64.953l1.866 1.625-1.866-1.625z" fill="#db8d3f"/><path d="M26.427 64.953l1.865 1.625-1.865-1.625z" fill="#1f1b32"/><path d="M28.292 64.953c2.329 1.112 2.889 1.216 5.598 1.625-2.329-1.113-2.889-1.217-5.598-1.625z" fill="#ba7079"/><path d="M35.134 65.494c-.83.722 1.14.632 1.243.541.83-.721-1.14-.632-1.243-.541z" fill="#1f1b32"/><path d="M37.621 64.953l1.866 1.625-1.866-1.625m-14.926 1.625l1.866 1.625-1.866-1.625z" fill="#ba7079"/><path d="M26.427 66.578c4.237 2.73 6.048 2.693 11.194 1.625-3.828-1.422-6.991-1.549-11.194-1.625z" fill="#c0220e"/><path d="M63.741 66.578l1.865 1.625-1.865-1.625z" fill="#9795aa"/><path d="M74.935 66.578l1.866 1.625-1.866-1.625z" fill="#ba7079"/><path d="M87.995 68.203l1.866 4.876c3.115-2.716 1.3-4.187 5.597-3.251-3.217-1.716-3.584-1.683-7.463-1.625z" fill="#9795aa"/><path d="M5.904 68.203c.314 3.904.368 5.623 3.731 8.126-1.028-2.966-2.007-5.447-3.731-8.126z" fill="#4f3e5d"/><path d="M9.014 68.744c-.83.722 1.14.633 1.243.542.83-.722-1.14-.633-1.243-.542z" fill="#ba7079"/><path d="M17.098 68.203l1.866 1.625-1.866-1.625z" fill="#9795aa"/><path d="M22.695 68.203l1.866 1.625-1.866-1.625z" fill="#1f1b32"/><path d="M35.755 68.203l1.866 1.625-1.866-1.625z" fill="#db8d3f"/><path d="M39.487 68.203l1.865 1.625-1.865-1.625z" fill="#4f3e5d"/><path d="M65.606 68.203l1.866 1.625-1.866-1.625m10.573.541c-.83.722 1.14.633 1.243.542.83-.722-1.14-.633-1.243-.542z" fill="#9795aa"/><path d="M91.726 68.203l-1.865 6.501c3.3-1.37 5.015-2.504 7.462-4.876l-5.597-1.625m11.194 0l-3.731 1.625c2.765 1.286 5.217 1.413 3.731-1.625z" fill="#1f1b32"/><path d="M15.233 69.828l1.865 1.626-1.865-1.626m22.388 0l1.866 1.626-1.866-1.626m29.851 0l1.866 1.626-1.866-1.626z" fill="#9795aa"/><path d="M80.532 69.828l1.866 1.626-1.866-1.626z" fill="#ba7079"/><path d="M78.666 71.454c4.291 1.487 6.301 1.428 9.329-1.626l-9.329 1.626z" fill="#1f1b32"/><path d="M87.995 69.828l1.866 1.626-1.866-1.626m5.597 4.876c2.91-.97 4.894-1.77 7.463-3.25-4.36.053-4.974.157-7.463 3.25z" fill="#4f3e5d"/><path d="M7.77 71.454v3.25h3.731v-3.25H7.77z" fill="#c0220e"/><path d="M30.158 71.454c2.329 1.111 2.888 1.215 5.597 1.625-2.328-1.113-2.888-1.217-5.597-1.625z" fill="#9795aa"/><path d="M35.755 71.454l1.866 1.625-1.866-1.625z" fill="#4f3e5d"/><path d="M68.717 71.995c-.831.721 1.14.632 1.242.541.83-.722-1.14-.632-1.242-.541z" fill="#1f1b32"/><path d="M73.069 71.454l1.866 1.625-1.866-1.625m3.732 0l-1.866 3.25h3.731c0-3.013.56-2.196-1.865-3.25z" fill="#9795aa"/><path d="M87.995 71.454c-4.041 1.942-6.629 2.748-11.194 3.25 3.3 1.266 5.664 1.482 9.328 1.625-3.448 4.184-12.282 10.949-12.022 16.252.283 5.836 8.308 10.725 10.156 3.251 14.924 1.652 17.687-12.378 20.523-22.753-3.326 1.593-2.974 1.474-3.731 4.875l-13.06-6.5z" fill="#f3e7e7"/><path d="M102.299 71.995c-.83.721 1.14.632 1.243.541.83-.722-1.14-.632-1.243-.541z" fill="#9795aa"/><path d="M11.501 73.079l1.866 1.625-1.866-1.625z" fill="#db8d3f"/><path d="M20.83 73.079l1.865 1.625-1.865-1.625z" fill="#ba7079"/><path d="M22.695 73.079c2.058 2.366 2.879 3.081 5.597 4.875l1.866-1.625c-2.879-2.059-3.821-2.421-7.463-3.25z" fill="#c0220e"/><path d="M32.024 73.079l1.866 1.625-1.866-1.625z" fill="#1f1b32"/><path d="M34.511 74.161c-.103.091-.207 1.806.623 1.084.103-.091.207-1.805-.623-1.084m44.155-1.082c2.329 1.112 2.888 1.216 5.597 1.625-2.328-1.113-2.888-1.217-5.597-1.625z" fill="#4f3e5d"/><path d="M84.263 73.079l1.866 1.625-1.866-1.625z" fill="#ba7079"/><path d="M95.458 73.079c2.281 1.942 2.649 2.139 5.597 3.25-1.829-2.899-1.694-2.592-5.597-3.25z" fill="#475bba"/><path d="M74.935 74.704l5.597 8.126c1.894-1.853 2.442-2.62 3.731-4.876l-9.328-3.25z" fill="#1f1b32"/><path d="M5.904 76.329l1.866 1.625-1.866-1.625m7.463 0c2.81 1.11 4.319 1.343 7.463 1.625-2.81-1.11-4.319-1.342-7.463-1.625z" fill="#9795aa"/><path d="M28.914 77.412c-.103.091-.207 1.805.623 1.084.103-.091.207-1.806-.623-1.084z" fill="#1f1b32"/><path d="M80.532 76.329c2.328 1.112 2.888 1.216 5.597 1.625-2.328-1.113-2.888-1.217-5.597-1.625z" fill="#9795aa"/><path d="M87.995 76.329l-1.866 3.251c2.357-1.58 2.597-1.128 1.866-3.251z" fill="#db8d3f"/><path d="M86.129 81.205h11.194c-3.819-4.518-6.821-3.662-11.194 0z" fill="#c0220e"/><path d="M93.592 76.329l1.866 1.625-1.866-1.625z" fill="#db8d3f"/><path d="M99.189 76.329l1.866 1.625-1.866-1.625z" fill="#9795aa"/><path d="M7.77 86.08c6.728-.728 12.127.345 18.657 1.626-2.01-10.974-14.245-12.079-18.657-1.626z" fill="#475bba"/><path d="M101.055 77.954c-.558 6.105-1.972 11.952-3.732 17.878l7.463-3.251c-2.718-5.274-1.703-9.148 0-14.627h-3.731z" fill="#1f1b32"/><path d="M4.038 79.58l1.866 1.625-1.866-1.625m27.986 0l1.866 1.625-1.866-1.625z" fill="#9795aa"/><path d="M102.92 79.58l-1.865 8.126c3.505-2.64 3.574-4.388 1.865-8.126z" fill="#c0220e"/><path d="M7.77 81.205l1.865 1.625-1.865-1.625m22.388 0l1.866 1.625-1.866-1.625m7.463 0l1.866 1.625-1.866-1.625z" fill="#9795aa"/><path d="M30.158 100.707c6.219-1.277 17.374-3.505 19.122-9.822 1.951-7.062-8.885-10.834-13.98-5.7-3.705 3.735-3.368 10.858-5.142 15.522z" fill="#f3e7e7"/><path d="M43.218 81.205l1.866 1.625-1.866-1.625m13.06 0l1.866 1.625-1.866-1.625z" fill="#9795aa"/><path d="M52.547 87.706c12.767-3.974 12.725 7.24 0 4.875 2 3.569 3.94 5.591 7.462 8.126 6.137-3.096 8.558-2.67 14.926 0-2.101-4.209-6.319-13.723-10.218-16.621-5.26-3.91-10.6-1.04-12.17 3.62z" fill="#f3e7e7"/><path d="M60.009 81.205l1.866 1.625-1.866-1.625z" fill="#9795aa"/><path d="M86.129 81.205l1.866 1.625-1.866-1.625z" fill="#db8d3f"/><path d="M95.458 81.205l1.865 1.625-1.865-1.625z" fill="#1f1b32"/><path d="M97.945 82.287c-.103.091-.207 1.806.623 1.084.102-.091.207-1.805-.623-1.084z" fill="#9795aa"/><path d="M33.89 82.83l1.865 1.625-1.865-1.625z" fill="#4f3e5d"/><path d="M46.949 82.83l1.866 1.625-1.866-1.625z" fill="#9795aa"/><path d="M48.815 82.83v3.25c3.051-.885 2.715-.593 3.732-3.25h-3.732m16.791 0c1.321 3.987 1.937 7.231 1.866 11.376 3.079-2.012 2.487-4.334 3.732 0 1.979-5.286-.37-8.506-5.598-11.376z" fill="#1f1b32"/><path d="M80.532 82.83l1.866 1.625-1.866-1.625z" fill="#9795aa"/><path d="M89.239 83.371c-.83.722 1.14.632 1.243.541.83-.721-1.14-.632-1.243-.541z" fill="#db8d3f"/><path d="M.307 84.455l1.866 1.625-1.866-1.625m11.194 0c2.81 1.11 4.319 1.343 7.463 1.625-2.81-1.11-4.319-1.342-7.463-1.625z" fill="#9795aa"/><path d="M38.701 86.212c-4.5 2.943.666 9.208 5.211 6.236 4.332-2.833-.75-9.153-5.211-6.236z" fill="#c0220e"/><path d="M51.302 85.538c-.102.091-.207 1.805.623 1.084.103-.091.207-1.806-.623-1.084z" fill="#9795aa"/><path d="M56.278 84.455l1.866 1.625-1.866-1.625z" fill="#ba7079"/><path d="M58.312 86.176c-6.006.914-4.67 7.98 1.373 7.273 6.02-.705 4.507-8.167-1.373-7.273z" fill="#c0220e"/><path d="M61.875 84.455l1.866 1.625-1.866-1.625z" fill="#db8d3f"/><path d="M76.801 84.455l1.865 1.625-1.865-1.625z" fill="#9795aa"/><path d="M86.129 84.455c.176 3.584.664 6.329 1.866 9.751 5.979-2.088 6.963-4.23 7.463-9.751h-9.329z" fill="#c0220e"/><path d="M99.189 84.455l1.866 1.625-1.866-1.625z" fill="#ba7079"/><path d="M22.695 86.08l1.866 1.626-1.866-1.626z" fill="#4f3e5d"/><path d="M32.024 86.08l1.866 1.626-1.866-1.626m13.06 0l1.865 1.626-1.865-1.626z" fill="#ba7079"/><path d="M74.935 86.08l1.866 1.626-1.866-1.626z" fill="#9795aa"/><path d="M84.263 86.08v4.876c1.299-2.526 1.299-2.352 0-4.876z" fill="#ba7079"/><path d="M95.458 86.08v4.876c1.298-2.526 1.298-2.352 0-4.876z" fill="#db8d3f"/><path d="M2.173 87.706l-1.866 3.25c2.356-1.58 2.597-1.128 1.866-3.25z" fill="#4f3e5d"/><path d="M4.038 87.706l1.866 1.625-1.866-1.625z" fill="#9795aa"/><path d="M11.501 87.706c2.329 1.111 2.888 1.215 5.597 1.625-2.328-1.113-2.888-1.217-5.597-1.625z" fill="#db8d3f"/><path d="M23.94 88.247c-.83.721 1.14.632 1.242.541.831-.722-1.14-.632-1.242-.541z" fill="#9795aa"/><path d="M50.681 87.706v6.5c1.325-2.86 1.325-3.642 0-6.5z" fill="#ba7079"/><path d="M68.093 88.788c-.102.091-.207 1.806.624 1.084.102-.091.207-1.806-.624-1.084m10.573-1.082l1.866 1.625-1.866-1.625z" fill="#9795aa"/><path d="M80.532 87.706c-1.201 3.422-1.69 6.167-1.866 9.751 2.435-3.545 3.239-5.797 1.866-9.751z" fill="#475bba"/><path d="M101.055 87.706l1.865 1.625-1.865-1.625z" fill="#9795aa"/><path d="M103.542 88.788c-.103.091-.207 1.806.623 1.084.102-.091.207-1.806-.623-1.084z" fill="#f3e7e7"/><path d="M2.173 89.331l1.865 1.625-1.865-1.625z" fill="#1f1b32"/><path d="M7.77 89.331l1.865 1.625-1.865-1.625z" fill="#db8d3f"/><path d="M5.904 100.707h16.791c-.447-5.113-5.632-15.867-13.082-8.771-2.297 2.186-2.849 6.031-3.709 8.771z" fill="#ba7079"/><path d="M18.964 89.331l1.866 1.625-1.866-1.625z" fill="#db8d3f"/><path d="M73.069 89.331l1.866 1.625-1.866-1.625z" fill="#9795aa"/><path d="M101.055 89.331l1.865 1.625-1.865-1.625z" fill="#475bba"/><path d="M20.83 90.956l1.865 1.625-1.865-1.625z" fill="#db8d3f"/><path d="M27.048 92.038c-.103.091-.207 1.806.623 1.084.103-.091.207-1.805-.623-1.084z" fill="#475bba"/><path d="M63.741 90.956l1.865 1.625-1.865-1.625z" fill="#ba7079"/><path d="M69.959 92.038c-.102.091-.207 1.806.623 1.084.103-.091.207-1.805-.623-1.084z" fill="#4f3e5d"/><path d="M77.422 92.038c-.103.091-.207 1.806.623 1.084.103-.091.207-1.805-.623-1.084z" fill="#9795aa"/><path d="M84.263 90.956l1.866 1.625-1.866-1.625z" fill="#db8d3f"/><path d="M5.904 92.581v6.501c1.325-2.86 1.325-3.642 0-6.501m42.911 0c0 3.389.258 2.802-3.731 3.251 3.649 1.872 7.019 2.577 11.194 3.25-2.481-2.849-4.192-4.339-7.463-6.501z" fill="#4f3e5d"/><path d="M86.129 92.581l1.866 1.625-1.866-1.625z" fill="#db8d3f"/><path d="M91.726 92.581l1.866 1.625-1.866-1.625z" fill="#ba7079"/><path d="M97.323 92.581l1.866 1.625-1.866-1.625m3.732 0v3.251c3.05-.886 2.714-.594 3.731-3.251h-3.731m-78.36 1.625v4.876c1.299-2.526 1.299-2.352 0-4.876m24.254 0l1.866 1.626-1.866-1.626z" fill="#9795aa"/><path d="M48.815 94.206l1.866 1.626-1.866-1.626z" fill="#1f1b32"/><path d="M59.388 94.748c-.83.721 1.14.632 1.243.541.83-.722-1.14-.632-1.243-.541z" fill="#db8d3f"/><path d="M71.204 94.206c2.281 1.943 2.649 2.139 5.597 3.251-2.282-1.944-2.65-2.141-5.597-3.251m11.194 0l1.865 1.626-1.865-1.626z" fill="#9795aa"/><path d="M96.079 95.289c-.103.091-.207 1.805.623 1.084.103-.091.207-1.806-.623-1.084z" fill="#ba7079"/><path d="M99.189 94.206l1.866 1.626-1.866-1.626z" fill="#4f3e5d"/><path d="M102.92 94.206l-11.194 4.876c4.23 1.115 8.625 1.178 13.06 1.625-.325-2.74-.591-4.053-1.866-6.501z" fill="#f3e7e7"/><path d="M64.985 96.373c-.83.721 1.14.632 1.243.541.83-.722-1.14-.632-1.243-.541z" fill="#ba7079"/><path d="M67.472 95.832l1.866 1.625-1.866-1.625z" fill="#db8d3f"/><path d="M84.263 95.832l1.866 1.625-1.866-1.625z" fill="#1f1b32"/><path d="M86.129 95.832l1.866 1.625-1.866-1.625m5.597 0l1.866 1.625-1.866-1.625z" fill="#9795aa"/><path d="M93.592 95.832l1.866 1.625-1.866-1.625z" fill="#4f3e5d"/><path d="M28.292 97.457l-1.865 3.25c2.356-1.579 2.597-1.128 1.865-3.25z" fill="#ba7079"/><path d="M35.755 97.457c3.235 3.255 6.26 3.125 11.194 3.25-3.621-1.545-7.272-2.34-11.194-3.25z" fill="#c0220e"/><path d="M37.621 97.457c3.3 1.266 5.664 1.482 9.328 1.625-3.3-1.266-5.664-1.484-9.328-1.625z" fill="#1f1b32"/><path d="M47.571 98.539c-.103.091-.207 1.806.623 1.084.102-.091.207-1.805-.623-1.084z" fill="#ba7079"/><path d="M49.436 98.539c-.102.091-.207 1.806.624 1.084.102-.091.207-1.805-.624-1.084z" fill="#f3e7e7"/><path d="M52.547 97.457c1.828 2.898 1.694 2.59 5.597 3.25-2.125-1.651-3.008-2.127-5.597-3.25z" fill="#9795aa"/><path d="M56.278 97.457l1.866 1.625-1.866-1.625z" fill="#1f1b32"/><path d="M61.875 97.457v3.25h9.329v-3.25h-9.329z" fill="#c0220e"/><path d="M74.935 97.457l1.866 1.625-1.866-1.625m10.573.541c-.83.722 1.14.632 1.242.541.831-.721-1.14-.632-1.242-.541z" fill="#4f3e5d"/><path d="M87.995 97.457c2.328 1.111 2.888 1.215 5.597 1.625-2.328-1.113-2.888-1.217-5.597-1.625m-59.703 1.625l1.866 1.625-1.866-1.625m22.389 0l1.866 1.625-1.866-1.625z" fill="#1f1b32"/><path d="M60.009 99.082l1.866 1.625-1.866-1.625m11.195 0l1.865 1.625-1.865-1.625z" fill="#db8d3f"/><path d="M74.935 99.082l1.866 1.625-1.866-1.625z" fill="#1f1b32"/><path d="M76.801 99.082l1.865 1.625-1.865-1.625m7.462 0c2.81 1.11 4.32 1.342 7.463 1.625-2.81-1.11-4.319-1.342-7.463-1.625z" fill="#9795aa"/><path d="M96.702 99.623c-.83.722 1.14.632 1.243.541.83-.721-1.14-.632-1.243-.541z" fill="#c0220e"/><path d="M99.189 99.082l1.866 1.625-1.866-1.625z" fill="#db8d3f"/></pattern><pattern id="b" patternTransform="translate(239.039 793.568)" xlink:href="#a"/></defs><path class="clothes" fill="none" d="M202.715 584.431h86.593V700.24h-86.593z"/><path class="clothes" fill="none" d="M-403.988 499.579h1300v550h-1300z"/><path class="clothes" fill="url(#b)" d="M232.887 657.172l25.431-9.622v10.997l22.681 21.306.687 6.186-6.873 34.365 2.749 35.053 7.56 8.248v-1.375l-15.808 4.124-7.56-35.053.687-13.059v.688l-4.811 14.433 2.749 6.186 14.434 28.179 8.248 8.248 4.811 11.684 2.062 171.827-76.291-15.809 3.436-178.012 16.496-28.179 2.061-10.997-3.436-13.059-4.811-6.185 4.124 16.495.687 6.873-7.56 35.74-4.812-1.375-11.684 2.749h.688l9.622-19.244v-.687l.687-17.87-9.622-40.551 6.186-9.623z"/></svg>