<?xml version="1.0" encoding="utf-8"?>
<svg class="shirt" width="86" height="380" viewBox="202.715 584.407 86.5933 380.048" preserveAspectRatio="xMidYMax" xmlns="http://www.w3.org/2000/svg" xmlns:xlink="http://www.w3.org/1999/xlink">
  <defs id="svgEditorDefs">
    <path id="svgEditorClosePathDefs" fill="black" style="stroke-width: 0px; stroke: none;" class="clothes"/>
    <pattern id="pattern-0" x="0" y="0" width="20" height="20" patternUnits="userSpaceOnUse" viewBox="0 0 100 100">
      <path d="M 64.342 89.811 C 63.047 89.556 62.786 89.403 62.578 88.776 C 62.442 88.361 62.425 88.092 62.502 87.506 C 62.595 86.8 62.586 86.739 62.285 86.212 C 62.111 85.91 61.924 85.636 61.869 85.604 C 61.813 85.573 61.71 85.682 61.639 85.848 C 61.533 86.096 61.46 86.144 61.229 86.12 C 60.819 86.077 60.71 85.635 60.758 84.215 C 60.78 83.553 60.741 82.641 60.671 82.189 C 60.6 81.737 60.474 80.698 60.389 79.88 C 60.233 78.36 59.934 77.356 59.303 76.228 C 59.169 75.989 58.843 75.036 58.576 74.109 C 58.309 73.183 58.009 72.155 57.912 71.822 C 57.744 71.256 57.458 70.729 56.141 68.557 C 55.581 67.629 55.36 67.506 55.203 68.035 C 55.161 68.173 55.06 68.38 54.978 68.492 C 54.896 68.605 54.58 69.233 54.278 69.887 C 53.975 70.543 53.326 71.752 52.835 72.577 L 51.942 74.073 L 51.534 75.799 C 51.308 76.75 51.021 77.852 50.895 78.25 C 50.693 78.884 50.655 79.309 50.583 81.646 L 50.501 84.317 L 51.155 84.915 C 52.161 85.837 53.138 86.863 53.133 86.994 C 53.13 87.059 52.984 87.156 52.809 87.21 C 52.576 87.282 52.467 87.39 52.406 87.614 C 52.251 88.178 52.082 88.256 51.032 88.256 C 49.985 88.256 48.148 87.971 47.637 87.729 C 47.201 87.524 47.114 87.255 47.156 86.254 C 47.182 85.63 47.249 85.31 47.42 84.998 C 47.682 84.516 47.712 84.228 47.564 83.556 C 47.491 83.222 47.415 83.091 47.313 83.126 C 47.232 83.154 47.163 83.233 47.162 83.305 C 47.159 83.375 47.1 83.555 47.03 83.703 C 46.909 83.964 46.899 83.967 46.758 83.787 C 46.663 83.664 46.623 83.352 46.642 82.889 C 46.663 82.31 46.733 82.055 47.016 81.522 C 47.364 80.862 47.896 78.943 48.148 77.431 C 48.219 77.007 48.397 76.065 48.544 75.34 C 48.69 74.614 48.862 73.401 48.928 72.645 C 48.991 71.889 49.123 70.968 49.22 70.597 C 49.316 70.228 49.462 69.578 49.543 69.154 C 49.814 67.737 50.572 64.456 51.01 62.804 C 51.482 61.018 51.479 60.985 50.822 61.071 C 50.614 61.098 49.549 61.184 48.454 61.262 C 47.359 61.341 46.052 61.448 45.548 61.5 C 43.769 61.686 41.368 61.764 38.027 61.749 C 35.119 61.734 34.463 61.702 33.316 61.526 C 32.581 61.413 31.478 61.247 30.862 61.161 C 30.245 61.074 29.48 60.921 29.161 60.821 C 28.843 60.72 28.525 60.638 28.453 60.638 C 28.382 60.638 27.978 61.206 27.559 61.9 C 27.059 62.723 26.594 63.35 26.218 63.704 C 25.903 64.004 25.316 64.588 24.917 65.001 C 24.462 65.471 23.735 66.055 22.979 66.558 C 22.311 67 21.246 67.715 20.609 68.148 C 19.972 68.581 18.924 69.254 18.281 69.645 C 16.995 70.425 16.919 70.521 16.766 71.546 C 16.661 72.246 16.82 72.808 17.363 73.667 C 18.022 74.706 22.904 80.661 23.518 81.172 C 23.637 81.272 23.759 81.51 23.785 81.702 C 23.923 82.657 24.501 83.176 26.346 84.011 C 27.636 84.595 28.327 85.028 28.523 85.378 C 28.607 85.528 28.571 85.608 28.337 85.797 C 28.093 85.993 28.065 86.061 28.16 86.23 C 28.303 86.486 28.24 86.564 27.677 86.854 C 27.115 87.14 26.899 87.166 25.877 87.062 C 23.729 86.846 22.835 86.303 22.533 85.033 C 22.417 84.544 22.052 83.876 21.949 83.964 C 21.918 83.991 21.856 84.155 21.81 84.33 C 21.71 84.704 21.381 84.799 21.12 84.529 C 20.962 84.366 20.656 83.383 20.668 83.077 C 20.682 82.717 19.741 81.11 18.39 79.181 C 17.008 77.211 15.233 75.051 12.524 72.045 C 11.616 71.036 11.527 70.868 11.617 70.311 C 11.635 70.206 11.802 69.952 11.989 69.75 C 12.395 69.308 13.582 67.148 13.442 67.101 C 13.389 67.081 12.231 67.557 10.867 68.156 C 9.504 68.756 8.319 69.255 8.235 69.267 C 8.15 69.278 7.887 69.454 7.651 69.658 L 7.223 70.03 L 7.042 71.517 C 6.799 73.513 6.763 74.464 6.813 77.526 C 6.836 78.955 6.84 80.94 6.823 81.936 C 6.794 83.636 6.806 83.779 7.045 84.287 C 7.457 85.157 7.942 85.631 8.793 85.994 C 9.262 86.193 9.786 86.527 10.192 86.882 C 10.971 87.567 11.02 87.824 10.44 88.21 C 10.21 88.362 10.044 88.563 10.018 88.716 C 9.965 89.036 9.721 89.099 8.529 89.112 C 7.227 89.126 5.32 88.652 5.334 88.318 C 5.337 88.243 5.25 87.992 5.143 87.761 C 5.036 87.53 4.954 87.154 4.961 86.925 C 4.978 86.4 4.694 85.272 4.545 85.277 C 4.483 85.278 4.331 85.42 4.205 85.59 C 3.91 85.986 3.721 85.98 3.463 85.561 C 3.196 85.127 3.244 84.188 3.665 81.67 C 4.02 79.543 4.059 79.046 4.011 77.238 C 3.991 76.496 3.986 75.696 4.002 75.457 C 4.016 75.219 3.999 74.603 3.96 74.089 C 3.922 73.575 3.876 71.579 3.857 69.653 L 3.821 66.155 L 4.239 65.6 C 4.565 65.167 4.767 65.003 5.163 64.853 C 8.042 63.76 9.411 62.976 9.898 62.132 C 10.035 61.898 10.238 61.605 10.352 61.481 C 10.658 61.147 11.266 59.439 11.363 58.647 C 11.439 58.01 11.402 57.803 10.883 56.002 C 10.574 54.926 10.201 53.397 10.054 52.603 C 9.904 51.808 9.723 50.946 9.647 50.685 C 9.571 50.424 9.522 49.86 9.538 49.434 C 9.581 48.253 9.383 48.129 8.852 49.007 C 8.522 49.553 7.802 50.438 7.688 50.438 C 7.646 50.438 7.561 50.39 7.497 50.332 C 7.382 50.225 7.246 50.394 6.549 51.496 C 6.328 51.845 6.114 52.009 5.455 52.338 C 5.003 52.563 4.424 52.902 4.166 53.089 L 3.696 53.43 L 3.73 52.579 C 3.749 52.111 3.814 51.683 3.877 51.629 C 3.94 51.574 4.054 51.059 4.134 50.483 C 4.213 49.907 4.373 48.936 4.489 48.325 C 4.93 46.004 4.864 46.171 5.761 45.161 C 6.21 44.656 7.294 43.604 8.168 42.823 C 9.734 41.427 9.774 41.399 10.704 41.071 C 12.917 40.289 13.504 40.038 14.636 39.381 C 15.312 38.991 16.438 38.456 17.225 38.155 C 18.825 37.541 18.514 37.57 23.047 37.624 C 24.468 37.64 26.305 37.608 27.129 37.551 C 32.879 37.156 37.519 37.038 42.371 37.164 C 44.315 37.215 46.317 37.298 46.816 37.347 C 49.709 37.637 50.597 37.592 53.473 37.013 C 55.456 36.613 56.739 36.575 58.584 36.86 C 59.475 36.997 60.221 37.037 61.69 37.024 C 63.566 37.008 63.651 36.998 64.675 36.691 C 65.254 36.518 65.847 36.293 65.995 36.192 C 66.4 35.913 66.666 35.361 67.351 33.371 C 67.694 32.375 68.183 31.129 68.438 30.604 C 68.931 29.582 68.986 29.318 68.804 28.818 C 68.657 28.416 68.113 28.244 66.785 28.179 C 65.513 28.118 65.037 27.892 64.2 26.958 C 62.727 25.314 62.553 24.813 62.185 21.168 C 62.161 20.922 62.179 20.565 62.226 20.374 C 62.302 20.07 62.35 20.029 62.63 20.029 C 62.824 20.029 63.018 20.108 63.126 20.234 C 63.484 20.643 64.549 21.179 65.689 21.525 C 66.969 21.911 67.451 22.196 68.456 23.159 C 68.798 23.487 69.267 23.842 69.498 23.947 C 69.969 24.162 70.784 24.305 70.87 24.187 C 70.975 24.042 70.502 22.868 70.13 22.351 C 69.73 21.794 67.361 19.669 65.849 18.509 C 65.333 18.114 64.283 17.377 63.516 16.873 C 62.749 16.37 61.684 15.585 61.148 15.13 C 60.612 14.675 59.541 13.766 58.766 13.112 C 57.407 11.962 56.216 10.736 55.832 10.092 C 55.584 9.676 54.992 7.837 54.823 6.96 C 54.683 6.236 54.691 5.251 54.838 4.824 C 54.933 4.552 55.4 4.442 55.574 4.651 C 55.68 4.78 55.91 5.714 56.065 6.653 C 56.115 6.944 56.402 7.668 56.706 8.26 C 57.141 9.107 57.365 9.42 57.75 9.716 C 58.839 10.555 59.444 10.806 59.46 10.423 C 59.463 10.326 59.359 9.931 59.227 9.544 C 58.888 8.55 58.631 6.93 58.666 6.027 C 58.707 5.044 59.05 3.163 59.284 2.647 C 59.384 2.429 59.565 2.171 59.687 2.076 C 59.884 1.921 59.924 1.918 60.064 2.049 C 60.194 2.17 60.212 2.599 60.162 4.544 C 60.101 6.907 60.174 7.615 60.476 7.615 C 60.567 7.615 60.628 7.499 60.639 7.302 C 60.648 7.13 60.712 6.839 60.781 6.654 C 60.851 6.468 60.913 6.161 60.921 5.97 C 60.938 5.553 61.788 3.898 62.369 3.153 C 62.592 2.865 63.15 2.322 63.605 1.947 C 64.405 1.288 64.451 1.264 64.968 1.264 L 65.506 1.264 L 65.492 1.595 C 65.473 2.072 65.346 2.292 64.596 3.147 C 63.243 4.686 62.505 6.065 62.31 7.423 C 62.03 9.355 62.188 9.477 64.419 9.048 C 65.732 8.795 66.993 8.239 67.802 7.56 C 68.296 7.144 68.497 7.044 69.025 6.944 C 70.154 6.731 70.338 7.023 69.682 7.978 C 69.037 8.914 66.627 10.133 64.478 10.607 C 63.347 10.859 63.083 10.981 62.631 11.472 C 62.328 11.799 62.263 11.949 62.254 12.328 C 62.247 12.581 62.328 12.977 62.435 13.209 C 62.713 13.814 64.161 15.049 65.448 15.776 C 66.768 16.524 68.675 17.771 69.466 18.402 C 69.79 18.662 70.106 18.875 70.168 18.875 C 70.321 18.875 71.098 17.969 71.449 17.382 C 72.228 16.076 72.458 15.41 72.603 14.031 C 72.753 12.603 72.84 12.411 73.244 12.608 C 73.687 12.824 73.721 13.003 73.677 14.845 L 73.637 16.614 L 73.138 17.527 C 72.865 18.03 72.525 18.614 72.382 18.826 C 72.067 19.292 71.879 20.312 72.051 20.621 C 72.256 20.99 73.502 22.435 73.623 22.446 C 73.688 22.453 73.8 22.451 73.873 22.443 C 73.944 22.435 74.193 22.516 74.424 22.624 C 74.747 22.774 75.052 22.82 75.735 22.82 C 76.224 22.82 76.779 22.86 76.965 22.908 C 77.203 22.97 77.487 22.954 77.909 22.857 C 78.24 22.779 78.552 22.739 78.602 22.766 C 78.832 22.897 79.285 21.881 79.316 21.168 C 79.333 20.78 78.265 18.499 77.794 17.917 C 77.53 17.591 77.527 17.562 77.588 16.002 C 77.641 14.688 77.692 14.309 77.897 13.758 C 78.367 12.488 79.31 11.994 79.636 12.843 C 79.787 13.232 79.751 13.555 79.459 14.513 C 79.089 15.724 79.141 16.343 79.717 17.613 C 80.246 18.783 80.45 19.114 80.861 19.48 L 81.164 19.749 L 81.442 19.432 C 81.594 19.257 81.919 18.856 82.163 18.541 C 82.579 18.001 82.907 17.675 85.123 15.585 C 85.895 14.86 86.025 14.688 86.135 14.25 C 86.291 13.628 86.356 12.11 86.247 11.658 C 86.202 11.472 86.09 10.563 85.999 9.637 C 85.907 8.71 85.777 7.671 85.708 7.326 C 85.64 6.982 85.562 6.549 85.534 6.365 C 85.508 6.178 85.306 5.574 85.086 5.02 C 84.863 4.458 84.671 3.771 84.652 3.467 C 84.623 2.978 84.643 2.908 84.854 2.809 C 85.216 2.639 85.586 3.061 86.114 4.248 C 87.039 6.322 87.328 7.38 87.735 10.186 C 88.177 13.227 88.19 13.292 88.367 13.292 C 88.729 13.292 90.532 11.811 90.905 11.204 C 91.165 10.779 91.184 9.839 90.957 8.539 C 90.793 7.598 90.786 7.253 90.903 5.642 C 91.03 3.885 91.203 3.015 91.546 2.384 C 91.715 2.077 91.875 2.063 92.136 2.332 C 92.315 2.516 92.33 2.762 92.305 5.002 C 92.276 7.475 92.353 8.266 92.704 9.089 C 92.788 9.283 92.902 9.444 92.956 9.444 C 93.012 9.444 93.236 9.272 93.454 9.064 C 93.992 8.55 94.683 6.832 94.792 5.739 C 94.834 5.316 94.934 4.574 95.014 4.094 C 95.094 3.611 95.147 3.179 95.132 3.131 C 95.116 3.083 95.217 2.883 95.355 2.684 C 95.675 2.224 96.152 2.178 96.43 2.579 C 96.668 2.922 96.699 5.61 96.473 6.268 C 96.391 6.506 96.112 7.39 95.851 8.231 C 95.444 9.54 95.301 9.864 94.854 10.479 C 94.034 11.604 91.996 13.642 91.265 14.07 C 90.918 14.273 90.099 14.842 89.445 15.337 C 88.791 15.832 87.859 16.489 87.375 16.797 C 86.249 17.514 84.494 19.002 84.189 19.5 C 84.061 19.712 83.775 20.096 83.556 20.352 C 83.076 20.917 81.473 23.321 81.539 23.382 C 81.563 23.404 81.757 23.309 81.969 23.167 C 82.517 22.803 83.663 22.367 84.393 22.247 C 84.811 22.179 85.309 21.986 85.899 21.67 C 87.566 20.772 88.473 20.508 88.763 20.836 C 88.945 21.043 88.755 21.757 88.401 22.195 C 87.996 22.694 87.595 23.374 87.201 24.23 C 86.806 25.088 86.361 25.667 85.454 26.5 C 84.905 27.001 84.676 27.15 84.444 27.15 C 83.947 27.15 83.795 27.24 83.857 27.496 C 83.899 27.674 83.834 27.785 83.568 27.989 C 83.16 28.301 83.113 28.626 83.404 29.146 C 83.713 29.7 83.623 30.091 83.258 29.784 C 82.987 29.558 82.779 29.678 82.685 30.112 C 82.64 30.321 82.439 30.782 82.242 31.135 C 81.931 31.689 81.874 31.895 81.834 32.616 C 81.789 33.408 81.806 33.481 82.116 33.943 C 82.428 34.406 82.444 34.479 82.408 35.338 C 82.388 35.837 82.338 36.344 82.296 36.468 C 82.177 36.823 80.464 37.748 79.791 37.821 C 79.268 37.878 79.251 37.89 79.208 38.216 C 79.183 38.402 79.079 38.894 78.978 39.309 C 78.875 39.726 78.773 40.533 78.751 41.103 C 78.698 42.446 78.102 44.373 77.336 45.675 C 76.417 47.238 75.367 48.743 74.761 49.369 C 74.434 49.706 74.013 50.163 73.826 50.382 C 73.642 50.602 73.132 51.148 72.694 51.597 C 71.952 52.357 69.616 55.149 69.612 55.283 C 69.607 55.392 68.63 56.642 68.444 56.777 C 68.343 56.848 68.257 56.965 68.256 57.033 C 68.245 57.305 67.619 57.772 65.802 58.862 C 64.097 59.885 63.797 60.03 62.802 60.307 C 61.198 60.754 61.224 60.73 61.126 61.839 C 60.996 63.321 61.367 69.719 61.684 71.471 C 61.847 72.371 61.935 73.231 61.917 73.732 C 61.873 74.899 61.979 75.58 62.612 78.228 C 63.018 79.92 63.339 80.98 63.749 81.971 C 64.063 82.73 64.45 83.905 64.606 84.578 C 64.975 86.147 65.074 86.34 65.731 86.741 C 66.397 87.146 67.987 88.52 67.981 88.684 C 67.978 88.749 67.875 88.883 67.753 88.978 C 67.63 89.075 67.493 89.32 67.45 89.522 L 67.369 89.892 L 66.659 89.893 C 66.268 89.893 65.779 89.912 65.571 89.936 C 65.364 89.959 64.81 89.903 64.342 89.811 Z" id="path-3" style="fill: rgb(255, 170, 0);" transform="matrix(0.999195, -0.040124, 0.040124, 0.999195, -1.789523, 2.041398)"/>
    </pattern>
    <pattern id="pattern-0-0" patternTransform="matrix(30.419553, -0.000003, 0, 33.032529, -135.423402, -423.713378)" xlink:href="#pattern-0"/>
    <pattern id="pattern-0-1" patternTransform="matrix(19.492288, 0, 0, 20.066245, 473.981506, -56.119507)" xlink:href="#pattern-0"/>
  </defs>
  <rect id="svgEditorBackground" x="202.71499633789062" y="584.4310302734375" width="86.59329986572266" height="115.80899810791016" style="fill: none; stroke: none;" class="clothes"/>
  <rect id="rect-1" x="-403.988" y="499.579" width="1300" height="550" style="fill: none; stroke: none;" class="clothes"/>
  <g transform="matrix(0.073638, -0.002957, 0, 0.06455, 214.736313, 741.356567)">
    <path d="M 551.527 1833.108 C 542.183 1830.588 533.166 1823.127 528.629 1814.161 C 525.575 1808.125 525.072 1799.135 527.522 1794.396 C 529.588 1790.401 535.149 1785.761 540.94 1783.199 L 545.857 1781.025 L 544.031 1774.661 C 538.621 1755.797 536.189 1730.739 538.393 1716.557 C 541.331 1697.646 548.165 1680.79 559.133 1665.4 C 566.63 1654.881 582.549 1639.504 593.582 1632.124 C 624.094 1611.715 649.314 1608.777 698.594 1619.892 C 710.421 1622.559 725.066 1622.795 729.468 1620.39 C 731.135 1619.479 733.122 1617.529 733.883 1616.057 C 735.227 1613.458 738.534 1594.456 737.775 1593.697 C 737.567 1593.489 731.134 1592.491 723.479 1591.48 C 675.881 1585.194 647.409 1574.99 636.87 1560.442 C 632.76 1554.768 633.092 1554.079 639.953 1554.066 C 649.669 1554.047 675.061 1551.516 687.531 1549.324 C 709.235 1545.51 716.004 1546.36 736.888 1555.529 C 755.453 1563.679 754.031 1563.48 759.576 1558.703 L 764.302 1554.633 L 761.047 1550.37 C 754.306 1541.544 741.899 1522.349 737.386 1513.765 C 731.752 1503.048 726.511 1489.187 725.068 1481.188 C 723.002 1469.739 724.233 1455.546 727.765 1450.081 C 728.889 1448.34 730.819 1449.814 750.026 1467.087 C 777.658 1491.938 780.22 1494.806 786.7 1508.14 C 793.205 1521.527 797.371 1532.973 799.07 1542.133 C 800.124 1547.811 800.504 1548.526 802.717 1549.005 C 815.932 1551.864 829.358 1558.318 837.113 1565.539 C 840.284 1568.492 845.957 1575.453 849.72 1581.008 C 853.483 1586.563 858.332 1593.218 860.496 1595.796 C 869.154 1606.113 870.75 1609.879 868 1613.511 C 867.26 1614.489 865.773 1617.94 864.694 1621.18 C 861.608 1630.453 858.637 1633.78 848.988 1638.763 C 844.351 1641.158 839.264 1644.59 837.684 1646.39 C 833.313 1651.368 833.132 1652.906 833.826 1679.234 C 834.155 1691.675 834.042 1692.689 831.667 1698.708 C 824.232 1717.548 805.55 1741.359 789.942 1751.89 L 785.079 1755.171 L 785.046 1763.609 C 785.016 1771.303 783.295 1789.1 781.404 1801.266 C 780.99 1803.931 781.001 1806.735 781.428 1807.499 C 781.855 1808.262 784.423 1809.384 787.133 1809.99 C 789.844 1810.597 793.218 1811.533 794.632 1812.071 C 798.282 1813.458 800.968 1818.272 800.968 1823.424 C 800.968 1833.451 798.13 1834.922 780.308 1834.129 C 764.167 1833.411 760.148 1831.497 754.29 1821.734 C 750.836 1815.976 745.559 1801.934 742.84 1791.265 C 741.723 1786.882 740.659 1783.145 740.474 1782.959 C 740.29 1782.774 738.857 1783.535 737.292 1784.65 C 731.332 1788.893 717.883 1793.896 694.093 1800.717 L 689.874 1801.926 L 694.093 1802.62 C 696.413 1803.001 702.109 1803.345 706.749 1803.384 C 718.852 1803.484 735.151 1807.31 740.081 1811.207 C 742.739 1813.309 747.339 1820.82 748.415 1824.817 C 749.438 1828.617 748.635 1832.452 746.795 1832.551 C 740.904 1832.865 663.573 1833.899 650.499 1833.838 C 630.909 1833.746 627.028 1833.082 606.437 1826.297 L 596.124 1822.899 L 587.091 1827.265 C 573.505 1833.831 561.515 1835.801 551.527 1833.108 Z" id="path4166" style="fill: rgb(255, 170, 0);"/>
    <path d="m 610.78125,1381.0805 c -11.3999,-2.4796 -13.73578,-3.9734 -15.76477,-10.082 -1.3402,-4.0348 -1.574,-6.6635 -1.09921,-12.3586 0.57454,-6.8918 0.46384,-7.4875 -2.34291,-12.6066 -1.62028,-2.955 -3.35138,-5.6234 -3.84692,-5.9296 -0.49552,-0.3062 -1.36129,0.7636 -1.92392,2.3776 -0.84307,2.4185 -1.45708,2.8843 -3.49137,2.6485 -3.59142,-0.4162 -4.69618,-4.7235 -4.76223,-18.5673 -0.0308,-6.4453 -0.68669,-15.3246 -1.45763,-19.7317 -0.77096,-4.4071 -2.23345,-14.5321 -3.25,-22.5 -1.8875,-14.7947 -4.84404,-24.5914 -10.7386,-35.5833 -1.24506,-2.3217 -4.43167,-11.603 -7.08134,-20.625 -2.64968,-9.0221 -5.61296,-19.0497 -6.58508,-22.2837 -1.65942,-5.5205 -4.33422,-10.6526 -16.58485,-31.8209 -5.22465,-9.0277 -7.19098,-10.2215 -8.3783,-5.0864 -0.3147,1.3611 -1.12869,3.3693 -1.80886,4.4625 -0.68018,1.0933 -3.21795,7.2105 -5.63951,13.5938 -2.42155,6.3833 -7.68338,18.1702 -11.69296,26.1932 l -7.29014,14.5871 -2.97699,16.8191 c -1.63734,9.2505 -3.76889,19.9925 -4.73677,23.8711 -1.5394,6.169 -1.73476,10.3117 -1.55996,33.0797 l 0.19982,26.0275 5.91185,5.8266 c 9.10295,8.9718 17.9944,18.9764 17.9944,20.2474 0,0.6301 -1.23914,1.5775 -2.75364,2.1055 -2.01089,0.701 -2.92411,1.7626 -3.3856,3.9355 -1.16539,5.4877 -2.61449,6.257 -11.78532,6.257 -9.1428,0 -25.2871,-2.7771 -29.84427,-5.1337 -3.87821,-2.0055 -4.73526,-4.6218 -4.71058,-14.3805 0.0154,-6.076 0.49115,-9.1791 1.875,-12.2288 2.13167,-4.6978 2.28606,-7.4939 0.77523,-14.0392 -0.75416,-3.2671 -1.46002,-4.5291 -2.34375,-4.1899 -0.69551,0.2669 -1.26457,1.0454 -1.26457,1.7301 0,0.6847 -0.45339,2.4326 -1.00753,3.8841 -0.97178,2.5455 -1.05497,2.5746 -2.34375,0.8194 -0.87196,-1.1876 -1.33622,-4.2274 -1.33622,-8.7492 0,-5.6441 0.51958,-8.1131 2.80132,-13.3118 2.82246,-6.4308 6.81051,-25.1304 8.50283,-39.8693 0.47363,-4.125 1.70333,-13.2896 2.73266,-20.3658 1.02933,-7.0763 2.12222,-18.8888 2.42865,-26.25 0.30643,-7.3613 1.14336,-16.3373 1.85983,-19.9467 0.71647,-3.6093 1.76402,-9.9375 2.3279,-14.0625 1.88656,-13.801 7.38677,-45.7727 10.64392,-61.8711 3.52068,-17.4009 3.4781,-17.7228 -2.23461,-16.888 -1.80469,0.2637 -11.08594,1.1054 -20.625,1.8705 -9.53906,0.7651 -20.92969,1.8097 -25.3125,2.3215 -15.47747,1.807 -36.42781,2.5788 -65.625,2.4173 -25.41966,-0.1406 -31.16284,-0.4431 -41.25,-2.1728 -6.44531,-1.1053 -16.14844,-2.7039 -21.5625,-3.5527 -5.41406,-0.8487 -12.14944,-2.3419 -14.96751,-3.3182 -2.81807,-0.9764 -5.63448,-1.7752 -6.2587,-1.7752 -0.62422,0 -3.94685,5.5299 -7.38362,12.2887 -4.07601,8.0159 -7.93026,14.1314 -11.08505,17.5886 -2.66,2.9149 -7.57856,8.5984 -10.93012,12.6296 -3.80819,4.5806 -9.96162,10.2677 -16.40625,15.163 -5.67188,4.3084 -14.74219,11.2805 -20.15625,15.4935 -5.41406,4.2131 -14.33642,10.776 -19.82745,14.5843 -10.97115,7.6091 -11.59442,8.526 -12.58748,18.5162 -0.67832,6.824 0.89638,12.3009 5.94107,20.6634 6.11319,10.1338 50.81197,68.1411 56.34663,73.1233 1.08106,0.9731 2.21666,3.2934 2.52356,5.1562 1.53286,9.304 6.74763,14.3699 23.16026,22.4995 11.48122,5.6869 17.6679,9.9137 19.48781,13.3142 0.78465,1.4661 0.50279,2.2432 -1.48002,4.0809 -2.06493,1.9136 -2.28476,2.5772 -1.40096,4.2286 1.3305,2.4861 0.82633,3.2489 -4.00875,6.0658 -4.8093,2.8018 -6.69005,3.0467 -15.65467,2.0387 -18.84143,-2.1188 -26.83312,-7.4029 -29.91253,-19.7783 -1.18347,-4.756 -4.59942,-11.2693 -5.45934,-10.4093 -0.25876,0.2588 -0.75361,1.8629 -1.09965,3.5649 -0.7411,3.6449 -3.57933,4.5672 -5.96009,1.9364 -1.43454,-1.5852 -4.44339,-11.1568 -4.44339,-14.1351 0,-3.5028 -8.76882,-19.1709 -21.24168,-37.9548 -12.74703,-19.1966 -28.99366,-40.238 -53.68767,-69.532 -8.28453,-9.8277 -9.11468,-11.4739 -8.51971,-16.8943 0.1124,-1.0241 1.48737,-3.4818 3.0555,-5.4617 3.40377,-4.2976 13.02233,-25.3491 11.79517,-25.8152 -0.47222,-0.1794 -10.4378,4.4509 -22.14572,10.2895 -11.70792,5.8386 -21.88707,10.7048 -22.62032,10.8137 -0.73326,0.109 -2.96394,1.8289 -4.95706,3.822 l -3.62388,3.6239 -1.06985,14.4822 c -1.43577,19.4357 -1.4276,28.7132 0.0516,58.5448 0.69029,13.9219 1.41125,33.2524 1.60215,42.9568 0.32586,16.5661 0.49419,17.9655 2.75476,22.9032 3.88415,8.4841 8.28936,13.109 15.84728,16.6379 4.16301,1.9437 8.86572,5.1911 12.52512,8.6491 7.05234,6.664 7.56381,9.1763 2.63376,12.9366 -1.95519,1.4913 -3.33985,3.4341 -3.51563,4.9326 -0.36458,3.1079 -2.46164,3.7359 -12.88636,3.8591 -11.36266,0.1343 -28.18493,-4.4851 -28.18493,-7.7396 0,-0.7354 -0.834487,-3.1761 -1.854411,-5.4239 -1.019926,-2.2477 -1.863676,-5.9159 -1.875,-8.1517 -0.02591,-5.1152 -2.901054,-16.1033 -4.201018,-16.0552 -0.536702,0.02 -1.828291,1.391 -2.870198,3.0469 -2.436525,3.8724 -4.097524,3.8032 -6.490575,-0.2705 -2.487129,-4.2338 -2.383807,-13.3871 0.427848,-37.903 2.378449,-20.7387 2.546948,-25.5666 1.507397,-43.1907 -0.425794,-7.2188 -0.734678,-15.0235 -0.686409,-17.3438 0.04827,-2.3203 -0.324468,-8.3202 -0.828306,-13.3332 -0.503836,-5.0129 -1.594055,-24.4549 -2.422708,-43.2043 l -1.50664,-34.09 3.455966,-5.4025 c 2.701636,-4.2233 4.408913,-5.8117 7.821885,-7.2772 24.787489,-10.6436 36.473269,-18.3017 40.444369,-26.505 1.10381,-2.2801 2.78416,-5.1338 3.73409,-6.3415 2.56163,-3.2565 7.29757,-19.8966 7.85921,-27.614 0.45207,-6.2115 0.0556,-8.2201 -5.088,-25.7812 -3.06804,-10.4747 -6.85758,-25.373 -8.4212,-33.1073 -1.56362,-7.7344 -3.45626,-16.143 -4.20587,-18.68583 -0.74961,-2.54278 -1.36939,-8.02716 -1.37728,-12.1875 -0.0219,-11.51016 -1.80663,-12.71484 -6.1471,-4.14938 -2.69215,5.31272 -8.67787,13.92891 -9.6765,13.92891 -0.36412,0 -1.12592,-0.46387 -1.69285,-1.03078 -1.040766,-1.04081 -2.181234,0.59625 -7.902575,11.34328 -1.807707,3.3956 -3.615546,4.9965 -9.265643,8.2047 -3.860853,2.1923 -8.812701,5.4828 -11.004107,7.3122 l -3.984375,3.3264 0,-8.2966 c 0,-4.5632 0.431667,-8.7283 0.959261,-9.2559 0.527594,-0.5277 1.362553,-5.5496 1.855466,-11.15986 0.492911,-5.61038 1.556441,-15.07163 2.363399,-21.02513 3.064574,-22.60959 2.534817,-20.98228 10.032774,-30.81834 3.751193,-4.92094 12.855722,-15.17017 20.23228,-22.77604 13.1954,-13.60559 13.54353,-13.88135 21.5625,-17.0801 19.06851,-7.60637 24.11113,-10.06286 33.77874,-16.45511 5.76181,-3.80973 15.41629,-9.00881 22.18982,-11.94954 13.76738,-5.97711 11.07179,-5.7016 50.69778,-5.18177 12.41805,0.1629 28.4493,-0.15402 35.625,-0.70428 50.11437,-3.84292 90.61894,-4.9886 133.04673,-3.76326 17.01562,0.49141 34.52344,1.29205 38.90625,1.77919 25.36707,2.81949 33.11398,2.38457 58.05441,-3.25923 17.18182,-3.88811 28.37603,-4.26259 44.60184,-1.4921 7.83891,1.33847 14.3602,1.7219 27.1875,1.59852 16.39143,-0.15765 17.13554,-0.25043 25.9668,-3.23782 5.00048,-1.69154 10.11758,-3.8824 11.37131,-4.86858 3.44089,-2.70661 5.57547,-8.0963 10.87859,-27.46792 2.65965,-9.71537 6.50441,-21.85276 8.54389,-26.97196 3.96589,-9.95455 4.34808,-12.52343 2.58758,-17.392 -1.41782,-3.92093 -6.22788,-5.59847 -17.85359,-6.22657 -11.13894,-0.6018 -15.38101,-2.79577 -23.01148,-11.9014 -13.42391,-16.01907 -15.11575,-20.89202 -19.58098,-56.3986 -0.30207,-2.40205 -0.26497,-5.88252 0.0824,-7.73438 0.55628,-2.96511 0.96342,-3.36702 3.41088,-3.36702 1.69802,0 3.41386,0.77566 4.41064,1.99387 3.26503,3.99035 12.74952,9.21334 22.83044,12.57245 11.32022,3.77206 15.63481,6.55141 24.73851,15.93593 3.09375,3.18918 7.3125,6.64184 9.375,7.67256 4.18857,2.09322 11.35794,3.47995 12.06624,2.33389 0.86957,-1.407 -3.66646,-12.85455 -7.08573,-17.88217 -3.69864,-5.4384 -25.10882,-26.13261 -38.73051,-37.43533 -4.64062,-3.8506 -14.0628,-11.0197 -20.93816,-15.93133 -6.87536,-4.91163 -16.45495,-12.55519 -21.28796,-16.98568 -4.833,-4.43049 -14.5086,-13.27875 -21.50131,-19.66279 -12.2761,-11.20752 -23.09372,-23.13992 -26.67841,-29.42763 -2.30299,-4.03956 -8.1107,-21.96069 -9.88761,-30.51069 -1.46389,-7.04384 -1.73708,-16.64717 -0.59165,-20.79808 0.73165,-2.65139 4.78437,-3.72559 6.36858,-1.68803 0.9732,1.2517 3.29888,10.35694 4.98086,19.50053 0.52168,2.83594 3.2905,9.88245 6.15293,15.65892 4.08581,8.24528 6.1505,11.29224 9.60607,14.17618 9.79889,8.1779 15.18291,10.62174 15.18291,6.8916 0,-0.94093 -1.0473,-4.78997 -2.32732,-8.55341 -3.29915,-9.69989 -6.10832,-25.47756 -6.10116,-34.26704 0.008,-9.58559 2.36756,-27.91744 4.23915,-32.93207 0.79431,-2.12825 2.28593,-4.6313 3.31471,-5.56233 1.67156,-1.51275 2.02166,-1.5416 3.29197,-0.27128 1.17609,1.17607 1.47031,5.37333 1.70432,24.31233 0.28449,23.0247 1.15983,29.9221 3.79739,29.9221 0.797,0 1.28486,-1.13243 1.31261,-3.04688 0.0243,-1.67578 0.48836,-4.52065 1.03125,-6.32193 0.54289,-1.80129 0.98708,-4.79886 0.98708,-6.66128 0,-4.05799 6.86318,-20.18659 11.67431,-27.43487 1.865,-2.80975 6.54158,-8.10145 10.39238,-11.75933 6.75987,-6.42123 7.16311,-6.65071 11.68613,-6.65071 l 4.68468,0 0,3.22022 c 0,4.65522 -1.03506,6.79909 -7.29833,15.11679 -11.29545,15.00049 -17.26809,28.43756 -18.51878,41.66299 -1.7795,18.8174 -0.34171,20.01543 18.99385,15.82655 11.38363,-2.46616 22.21666,-7.87082 29.05833,-14.49735 4.16756,-4.0365 5.88789,-5.02151 10.46755,-5.99338 9.78685,-2.07691 11.50618,0.76688 6.08968,10.07239 -5.31037,9.12316 -25.95161,20.98919 -44.5733,25.62387 -9.7878,2.43604 -12.05811,3.64175 -15.8338,8.40896 -2.5294,3.19362 -3.05686,4.65733 -3.00886,8.34962 0.032,2.46242 0.88211,6.32235 1.88912,8.57762 2.6351,5.90155 15.71299,17.92866 27.20471,25.01886 11.79746,7.27886 28.88451,19.41715 36.00268,25.57559 2.92414,2.52987 5.75813,4.59977 6.29776,4.59977 1.34415,0 7.81935,-8.81218 10.68322,-14.5389 6.36115,-12.72009 8.13793,-19.2122 8.9335,-32.6417 0.82458,-13.91923 1.51835,-15.79759 5.12236,-13.86879 3.93263,2.10469 4.29487,3.83917 4.55249,21.7981 l 0.24702,17.22004 -4.03744,8.90625 c -2.2206,4.89844 -4.99921,10.59375 -6.17469,12.65625 -2.59082,4.54583 -3.88123,14.47714 -2.27182,17.48437 1.92286,3.5929 13.29096,17.66728 14.36357,17.78296 0.56647,0.0611 1.54387,0.0457 2.17201,-0.0342 0.62815,-0.08 2.82618,0.71384 4.88453,1.76392 2.87462,1.46653 5.54603,1.90926 11.52035,1.90926 4.27786,0 9.12688,0.38688 10.77562,0.85972 2.09202,0.59999 4.57745,0.4472 8.22661,-0.50573 2.87591,-0.75101 5.58964,-1.14252 6.03051,-0.87005 2.05171,1.26803 5.66792,-8.62923 5.69042,-15.57417 0.0123,-3.77529 -10.09833,-25.9959 -14.41013,-31.67004 -2.41632,-3.1798 -2.45374,-3.4642 -2.45374,-18.64896 0,-12.81773 0.32407,-16.50808 1.92038,-21.86816 3.68508,-12.37385 11.7456,-17.19424 14.89597,-8.90817 1.43604,3.77709 1.24629,6.92674 -0.97909,16.25212 -2.81715,11.80513 -2.15694,17.83483 3.30728,30.20555 5.03426,11.39732 6.92587,14.62862 10.6482,18.18948 l 2.73659,2.61787 2.31522,-3.08662 c 1.27338,-1.69765 3.96894,-5.60219 5.99017,-8.67675 3.45316,-5.25278 6.2021,-8.436 24.85933,-28.7867 6.48727,-7.07612 7.57049,-8.75927 8.37825,-13.01859 1.14892,-6.05826 1.20166,-20.85141 0.09,-25.26084 -0.45496,-1.80469 -1.74076,-10.66406 -2.85733,-19.6875 -1.11658,-9.02344 -2.6151,-19.14844 -3.33005,-22.5 -0.71496,-3.35156 -1.54611,-7.57031 -1.84701,-9.375 -0.3009,-1.80469 -2.27299,-7.69729 -4.38243,-13.09468 -2.13946,-5.47423 -4.04876,-12.1671 -4.31801,-15.13645 -0.43119,-4.75526 -0.26702,-5.43845 1.53914,-6.40508 3.09857,-1.6583 6.4761,2.45655 11.50063,14.01121 8.78788,20.20909 11.67434,30.51986 16.19681,57.85686 4.90188,29.63049 5.04047,30.26814 6.57812,30.26814 3.1707,0 18.4076,-14.44862 21.45843,-20.34828 2.14083,-4.1399 1.98374,-13.30769 -0.445,-25.97158 -1.75703,-9.16146 -1.93161,-12.51852 -1.46707,-28.21139 0.50681,-17.12031 1.71098,-25.60122 4.50602,-31.73567 1.36552,-2.99698 2.76118,-3.1358 5.13822,-0.51107 1.62216,1.79119 1.84078,4.17687 2.38401,26.01563 0.59906,24.08329 1.54751,31.79831 4.89363,39.8067 0.79413,1.90061 1.83818,3.45566 2.32011,3.45566 0.48195,0 2.37946,-1.66386 4.21669,-3.69747 4.52573,-5.00943 9.97232,-21.73769 10.548,-32.39628 0.22279,-4.125 0.84492,-11.33977 1.38251,-16.03284 0.53758,-4.69306 0.85181,-8.91181 0.69827,-9.375 -0.15352,-0.46318 0.65515,-2.42419 1.79705,-4.35778 2.6453,-4.47932 6.793,-4.93223 9.35537,-1.02156 2.18961,3.34178 3.38664,29.53013 1.64291,35.94343 -0.63088,2.32031 -2.77674,10.92393 -4.76858,19.11914 -3.09919,12.75128 -4.24496,15.90989 -7.94382,21.89945 -6.76904,10.96106 -23.87541,30.83032 -30.1228,34.988 -2.96042,1.97019 -9.92135,7.52774 -15.46875,12.35012 -5.54739,4.82239 -13.46117,11.22178 -17.58617,14.22088 -9.60093,6.98039 -24.41781,21.47967 -26.9054,26.32866 -1.05808,2.0625 -3.41644,5.79904 -5.24078,8.30341 -4.00259,5.49457 -17.18406,28.92884 -16.6004,29.5125 0.22786,0.22787 1.89016,-0.71139 3.694,-2.08724 4.65747,-3.55242 14.52996,-7.79412 20.86747,-8.96568 3.62008,-0.66921 7.9064,-2.53138 12.95962,-5.63025 14.25456,-8.74157 22.07994,-11.3084 24.73228,-8.11251 1.66499,2.00618 0.2439,8.97017 -2.69969,13.22977 -3.36958,4.87603 -6.63403,11.497 -9.77933,19.83444 -3.15381,8.36007 -6.84912,13.99477 -14.5007,22.11109 -4.609,4.88894 -6.57174,6.33572 -8.5952,6.33572 -4.34378,0 -5.64005,0.87294 -5.012,3.37523 0.43488,1.73274 -0.0992,2.82312 -2.35043,4.79852 -3.46602,3.04138 -3.75671,6.19671 -1.03819,11.26889 2.89142,5.39476 2.24062,9.21477 -1.06087,6.22695 -2.43761,-2.20601 -4.214,-1.04802 -4.89147,3.18865 -0.32597,2.03852 -1.9114,6.52443 -3.52316,9.96869 -2.52375,5.39313 -2.94784,7.39554 -3.05561,14.42735 -0.11819,7.71159 0.0441,8.42961 2.92174,12.9281 2.88791,4.51452 3.04621,5.2234 3.03408,13.5872 -0.008,4.8533 -0.2764,9.80858 -0.59855,11.01175 -0.92447,3.45263 -15.57089,12.46301 -21.41991,13.1774 -4.5527,0.55606 -4.69548,0.66688 -4.96499,3.85377 -0.15262,1.80469 -0.8909,6.59738 -1.64062,10.65044 C 720.61341,893.141 720,900.99941 720,906.55109 c 0,13.0835 -4.55197,31.8716 -10.79172,44.54266 -7.49888,15.22791 -16.15632,29.89566 -21.24149,35.988 -2.74892,3.29344 -6.26367,7.74009 -7.81054,9.88153 -1.54688,2.14134 -5.81273,7.46242 -9.47967,11.82452 C 664.443,1016.2029 645,1043.3994 645,1044.7036 c 0,1.073 -8.10389,13.2405 -9.69187,14.5518 -0.85696,0.7077 -1.55813,1.8355 -1.55813,2.5062 0,2.6448 -5.30963,7.1905 -20.80264,17.8097 -14.54932,9.9724 -17.1238,11.3816 -25.7253,14.0819 -13.86344,4.3522 -13.64599,4.1224 -14.11543,14.9216 -0.62769,14.4397 4.79598,76.7683 8.16588,93.8421 1.73001,8.7651 2.79705,17.1352 2.80856,22.0312 0.0267,11.355 1.18256,17.9934 7.62491,43.7925 4.11472,16.4779 7.28825,26.8028 11.20669,36.4602 3.00654,7.4099 6.78162,18.8407 8.38908,25.4016 3.74607,15.2897 4.68865,17.1698 10.56368,21.0706 5.96477,3.9604 20.32207,17.3379 20.32207,18.9353 0,0.64 -0.85014,1.933 -1.88921,2.8733 -1.03907,0.9404 -2.14767,3.3261 -2.46357,5.3016 l -0.57436,3.5918 -6.20831,0.01 c -3.41456,0.01 -7.68486,0.194 -9.48955,0.4184 -1.80469,0.2245 -6.65625,-0.326 -10.78125,-1.2232 z" id="path4160" style="fill: rgb(255, 170, 0);"/>
    <polygon style="stroke: rgb(0, 0, 0); fill: url(#pattern-0-0); stroke-opacity: 0;" points="55.297 342.316 257.031 -12.826 257.03 -271.729 231.814 -445.486 46.891 -684.093 97.324 -1046.17 744.555 -1064.46 710.932 -759.154" transform=""/>
    <polygon style="stroke: rgb(0, 0, 0); fill: url(#pattern-0-1); stroke-opacity: 0;" points="652.093 -291.987 643.688 -292.372 593.254 -74.135 719.338 200.133 248.625 159.391" transform=""/>
  </g>
  <g transform="matrix(-0.074064, -0.016891, 0, 0.06455, 286.787292, 832.885437)">
    <path d="m 148.05877,1689.9681 c -9.34425,-2.5195 -18.36116,-9.9806 -22.89764,-18.9467 -3.05389,-6.036 -3.55766,-15.0266 -1.10745,-19.7647 2.06615,-3.9955 7.62702,-8.6358 13.41844,-11.197 l 4.91639,-2.1743 -1.82549,-6.3646 c -5.41063,-18.8641 -7.84222,-43.9216 -5.63843,-58.1034 2.93864,-18.9107 9.77256,-35.7668 20.74053,-51.1572 7.49631,-10.519 23.41533,-25.8963 34.44826,-33.2761 30.51219,-20.4093 55.73277,-23.347 105.01212,-12.2322 11.82744,2.6676 26.47193,2.9038 30.87425,0.4979 1.66706,-0.9111 3.65376,-2.8608 4.41491,-4.3327 1.3439,-2.5988 4.65164,-21.6008 3.89229,-22.3602 -0.20803,-0.2079 -6.6411,-1.2053 -14.29572,-2.2163 -47.59868,-6.2867 -76.07067,-16.4903 -86.60931,-31.0385 -4.11047,-5.6743 -3.77773,-6.3626 3.08245,-6.3761 9.71655,-0.019 35.10871,-2.5497 47.57813,-4.7413 21.70484,-3.8149 28.47303,-2.9641 49.35774,6.2046 18.56425,8.1501 17.1422,7.9511 22.6879,3.1742 l 4.72586,-4.0707 -3.25499,-4.2621 c -6.741,-8.8265 -19.14828,-28.0218 -23.66079,-36.6057 -5.63399,-10.7172 -10.87528,-24.5783 -12.31838,-32.577 -2.06556,-11.4488 -0.83519,-25.6415 2.69665,-31.1071 1.12481,-1.7407 3.05444,-0.2664 22.26121,17.0067 27.63214,24.8503 30.1945,27.7186 36.67396,41.0524 6.50539,13.3871 10.67089,24.8336 12.37065,33.9936 1.0535,5.6773 1.43325,6.393 3.64621,6.8717 13.21525,2.8592 26.64165,9.3133 34.39653,16.5344 3.17089,2.9527 8.84402,9.9136 12.60695,15.4688 3.76293,5.5552 8.61198,12.2096 10.77566,14.7877 8.6585,10.317 10.25392,14.0832 7.50462,17.7151 -0.74008,0.9778 -2.22788,4.429 -3.30623,7.6694 -3.08577,9.2728 -6.05718,12.5991 -15.7063,17.5828 -4.63713,2.3949 -9.72404,5.827 -11.30421,7.6267 -4.37086,4.9781 -4.55153,6.5165 -3.8572,32.8435 0.32814,12.4419 0.21574,13.4555 -2.15955,19.4744 -7.43522,18.8403 -26.11645,42.6513 -41.72456,53.1819 l -4.86338,3.2812 -0.0327,8.4375 c -0.0298,7.6943 -1.75113,25.492 -3.64209,37.6574 -0.41419,2.6647 -0.40349,5.4695 0.0238,6.233 0.42727,0.7635 2.99469,1.8848 5.70537,2.4916 2.71068,0.6069 6.08494,1.543 7.49835,2.0804 3.64981,1.3876 6.33641,6.2012 6.33641,11.3529 0,10.0276 -2.83798,11.4981 -20.65968,10.7056 -16.14183,-0.718 -20.16087,-2.6327 -26.01862,-12.3959 -3.45414,-5.757 -8.73116,-19.7997 -11.44967,-30.4687 -1.11675,-4.3828 -2.18147,-8.1203 -2.36602,-8.3054 -0.18455,-0.1852 -1.6167,0.5756 -3.18254,1.6906 -5.95927,4.2434 -19.40848,9.2455 -43.19847,16.0667 l -4.21875,1.2096 4.21875,0.6935 c 2.32031,0.3815 8.01563,0.7252 12.65625,0.7638 12.10267,0.1008 28.40179,3.9265 33.33136,7.8236 2.65809,2.1014 7.25788,9.6129 8.33414,13.6099 1.02328,3.8001 0.21975,7.6352 -1.62036,7.7335 -5.89064,0.3146 -83.22152,1.3483 -96.29514,1.2872 -19.59075,-0.092 -23.47148,-0.7557 -44.0625,-7.5407 l -10.3125,-3.3981 -9.03301,4.3656 c -13.58655,6.5663 -25.57671,8.5363 -35.56447,5.8433 z" id="path-1" style="fill: rgb(255, 170, 0);"/>
    <path d="m 610.78125,1381.0805 c -11.3999,-2.4796 -13.73578,-3.9734 -15.76477,-10.082 -1.3402,-4.0348 -1.574,-6.6635 -1.09921,-12.3586 0.57454,-6.8918 0.46384,-7.4875 -2.34291,-12.6066 -1.62028,-2.955 -3.35138,-5.6234 -3.84692,-5.9296 -0.49552,-0.3062 -1.36129,0.7636 -1.92392,2.3776 -0.84307,2.4185 -1.45708,2.8843 -3.49137,2.6485 -3.59142,-0.4162 -4.69618,-4.7235 -4.76223,-18.5673 -0.0308,-6.4453 -0.68669,-15.3246 -1.45763,-19.7317 -0.77096,-4.4071 -2.23345,-14.5321 -3.25,-22.5 -1.8875,-14.7947 -4.84404,-24.5914 -10.7386,-35.5833 -1.24506,-2.3217 -4.43167,-11.603 -7.08134,-20.625 -2.64968,-9.0221 -5.61296,-19.0497 -6.58508,-22.2837 -1.65942,-5.5205 -4.33422,-10.6526 -16.58485,-31.8209 -5.22465,-9.0277 -7.19098,-10.2215 -8.3783,-5.0864 -0.3147,1.3611 -1.12869,3.3693 -1.80886,4.4625 -0.68018,1.0933 -3.21795,7.2105 -5.63951,13.5938 -2.42155,6.3833 -7.68338,18.1702 -11.69296,26.1932 l -7.29014,14.5871 -2.97699,16.8191 c -1.63734,9.2505 -3.76889,19.9925 -4.73677,23.8711 -1.5394,6.169 -1.73476,10.3117 -1.55996,33.0797 l 0.19982,26.0275 5.91185,5.8266 c 9.10295,8.9718 17.9944,18.9764 17.9944,20.2474 0,0.6301 -1.23914,1.5775 -2.75364,2.1055 -2.01089,0.701 -2.92411,1.7626 -3.3856,3.9355 -1.16539,5.4877 -2.61449,6.257 -11.78532,6.257 -9.1428,0 -25.2871,-2.7771 -29.84427,-5.1337 -3.87821,-2.0055 -4.73526,-4.6218 -4.71058,-14.3805 0.0154,-6.076 0.49115,-9.1791 1.875,-12.2288 2.13167,-4.6978 2.28606,-7.4939 0.77523,-14.0392 -0.75416,-3.2671 -1.46002,-4.5291 -2.34375,-4.1899 -0.69551,0.2669 -1.26457,1.0454 -1.26457,1.7301 0,0.6847 -0.45339,2.4326 -1.00753,3.8841 -0.97178,2.5455 -1.05497,2.5746 -2.34375,0.8194 -0.87196,-1.1876 -1.33622,-4.2274 -1.33622,-8.7492 0,-5.6441 0.51958,-8.1131 2.80132,-13.3118 2.82246,-6.4308 6.81051,-25.1304 8.50283,-39.8693 0.47363,-4.125 1.70333,-13.2896 2.73266,-20.3658 1.02933,-7.0763 2.12222,-18.8888 2.42865,-26.25 0.30643,-7.3613 1.14336,-16.3373 1.85983,-19.9467 0.71647,-3.6093 1.76402,-9.9375 2.3279,-14.0625 1.88656,-13.801 7.38677,-45.7727 10.64392,-61.8711 3.52068,-17.4009 3.4781,-17.7228 -2.23461,-16.888 -1.80469,0.2637 -11.08594,1.1054 -20.625,1.8705 -9.53906,0.7651 -20.92969,1.8097 -25.3125,2.3215 -15.47747,1.807 -36.42781,2.5788 -65.625,2.4173 -25.41966,-0.1406 -31.16284,-0.4431 -41.25,-2.1728 -6.44531,-1.1053 -16.14844,-2.7039 -21.5625,-3.5527 -5.41406,-0.8487 -12.14944,-2.3419 -14.96751,-3.3182 -2.81807,-0.9764 -5.63448,-1.7752 -6.2587,-1.7752 -0.62422,0 -3.94685,5.5299 -7.38362,12.2887 -4.07601,8.0159 -7.93026,14.1314 -11.08505,17.5886 -2.66,2.9149 -7.57856,8.5984 -10.93012,12.6296 -3.80819,4.5806 -9.96162,10.2677 -16.40625,15.163 -5.67188,4.3084 -14.74219,11.2805 -20.15625,15.4935 -5.41406,4.2131 -14.33642,10.776 -19.82745,14.5843 -10.97115,7.6091 -11.59442,8.526 -12.58748,18.5162 -0.67832,6.824 0.89638,12.3009 5.94107,20.6634 6.11319,10.1338 50.81197,68.1411 56.34663,73.1233 1.08106,0.9731 2.21666,3.2934 2.52356,5.1562 1.53286,9.304 6.74763,14.3699 23.16026,22.4995 11.48122,5.6869 17.6679,9.9137 19.48781,13.3142 0.78465,1.4661 0.50279,2.2432 -1.48002,4.0809 -2.06493,1.9136 -2.28476,2.5772 -1.40096,4.2286 1.3305,2.4861 0.82633,3.2489 -4.00875,6.0658 -4.8093,2.8018 -6.69005,3.0467 -15.65467,2.0387 -18.84143,-2.1188 -26.83312,-7.4029 -29.91253,-19.7783 -1.18347,-4.756 -4.59942,-11.2693 -5.45934,-10.4093 -0.25876,0.2588 -0.75361,1.8629 -1.09965,3.5649 -0.7411,3.6449 -3.57933,4.5672 -5.96009,1.9364 -1.43454,-1.5852 -4.44339,-11.1568 -4.44339,-14.1351 0,-3.5028 -8.76882,-19.1709 -21.24168,-37.9548 -12.74703,-19.1966 -28.99366,-40.238 -53.68767,-69.532 -8.28453,-9.8277 -9.11468,-11.4739 -8.51971,-16.8943 0.1124,-1.0241 1.48737,-3.4818 3.0555,-5.4617 3.40377,-4.2976 13.02233,-25.3491 11.79517,-25.8152 -0.47222,-0.1794 -10.4378,4.4509 -22.14572,10.2895 -11.70792,5.8386 -21.88707,10.7048 -22.62032,10.8137 -0.73326,0.109 -2.96394,1.8289 -4.95706,3.822 l -3.62388,3.6239 -1.06985,14.4822 c -1.43577,19.4357 -1.4276,28.7132 0.0516,58.5448 0.69029,13.9219 1.41125,33.2524 1.60215,42.9568 0.32586,16.5661 0.49419,17.9655 2.75476,22.9032 3.88415,8.4841 8.28936,13.109 15.84728,16.6379 4.16301,1.9437 8.86572,5.1911 12.52512,8.6491 7.05234,6.664 7.56381,9.1763 2.63376,12.9366 -1.95519,1.4913 -3.33985,3.4341 -3.51563,4.9326 -0.36458,3.1079 -2.46164,3.7359 -12.88636,3.8591 -11.36266,0.1343 -28.18493,-4.4851 -28.18493,-7.7396 0,-0.7354 -0.834487,-3.1761 -1.854411,-5.4239 -1.019926,-2.2477 -1.863676,-5.9159 -1.875,-8.1517 -0.02591,-5.1152 -2.901054,-16.1033 -4.201018,-16.0552 -0.536702,0.02 -1.828291,1.391 -2.870198,3.0469 -2.436525,3.8724 -4.097524,3.8032 -6.490575,-0.2705 -2.487129,-4.2338 -2.383807,-13.3871 0.427848,-37.903 2.378449,-20.7387 2.546948,-25.5666 1.507397,-43.1907 -0.425794,-7.2188 -0.734678,-15.0235 -0.686409,-17.3438 0.04827,-2.3203 -0.324468,-8.3202 -0.828306,-13.3332 -0.503836,-5.0129 -1.594055,-24.4549 -2.422708,-43.2043 l -1.50664,-34.09 3.455966,-5.4025 c 2.701636,-4.2233 4.408913,-5.8117 7.821885,-7.2772 24.787489,-10.6436 36.473269,-18.3017 40.444369,-26.505 1.10381,-2.2801 2.78416,-5.1338 3.73409,-6.3415 2.56163,-3.2565 7.29757,-19.8966 7.85921,-27.614 0.45207,-6.2115 0.0556,-8.2201 -5.088,-25.7812 -3.06804,-10.4747 -6.85758,-25.373 -8.4212,-33.1073 -1.56362,-7.7344 -3.45626,-16.143 -4.20587,-18.68583 -0.74961,-2.54278 -1.36939,-8.02716 -1.37728,-12.1875 -0.0219,-11.51016 -1.80663,-12.71484 -6.1471,-4.14938 -2.69215,5.31272 -8.67787,13.92891 -9.6765,13.92891 -0.36412,0 -1.12592,-0.46387 -1.69285,-1.03078 -1.040766,-1.04081 -2.181234,0.59625 -7.902575,11.34328 -1.807707,3.3956 -3.615546,4.9965 -9.265643,8.2047 -3.860853,2.1923 -8.812701,5.4828 -11.004107,7.3122 l -3.984375,3.3264 0,-8.2966 c 0,-4.5632 0.431667,-8.7283 0.959261,-9.2559 0.527594,-0.5277 1.362553,-5.5496 1.855466,-11.15986 0.492911,-5.61038 1.556441,-15.07163 2.363399,-21.02513 3.064574,-22.60959 2.534817,-20.98228 10.032774,-30.81834 3.751193,-4.92094 12.855722,-15.17017 20.23228,-22.77604 13.1954,-13.60559 13.54353,-13.88135 21.5625,-17.0801 19.06851,-7.60637 24.11113,-10.06286 33.77874,-16.45511 5.76181,-3.80973 15.41629,-9.00881 22.18982,-11.94954 13.76738,-5.97711 11.07179,-5.7016 50.69778,-5.18177 12.41805,0.1629 28.4493,-0.15402 35.625,-0.70428 50.11437,-3.84292 90.61894,-4.9886 133.04673,-3.76326 17.01562,0.49141 34.52344,1.29205 38.90625,1.77919 25.36707,2.81949 33.11398,2.38457 58.05441,-3.25923 17.18182,-3.88811 28.37603,-4.26259 44.60184,-1.4921 7.83891,1.33847 14.3602,1.7219 27.1875,1.59852 16.39143,-0.15765 17.13554,-0.25043 25.9668,-3.23782 5.00048,-1.69154 10.11758,-3.8824 11.37131,-4.86858 3.44089,-2.70661 5.57547,-8.0963 10.87859,-27.46792 2.65965,-9.71537 6.50441,-21.85276 8.54389,-26.97196 3.96589,-9.95455 4.34808,-12.52343 2.58758,-17.392 -1.41782,-3.92093 -6.22788,-5.59847 -17.85359,-6.22657 -11.13894,-0.6018 -15.38101,-2.79577 -23.01148,-11.9014 -13.42391,-16.01907 -15.11575,-20.89202 -19.58098,-56.3986 -0.30207,-2.40205 -0.26497,-5.88252 0.0824,-7.73438 0.55628,-2.96511 0.96342,-3.36702 3.41088,-3.36702 1.69802,0 3.41386,0.77566 4.41064,1.99387 3.26503,3.99035 12.74952,9.21334 22.83044,12.57245 11.32022,3.77206 15.63481,6.55141 24.73851,15.93593 3.09375,3.18918 7.3125,6.64184 9.375,7.67256 4.18857,2.09322 11.35794,3.47995 12.06624,2.33389 0.86957,-1.407 -3.66646,-12.85455 -7.08573,-17.88217 -3.69864,-5.4384 -25.10882,-26.13261 -38.73051,-37.43533 -4.64062,-3.8506 -14.0628,-11.0197 -20.93816,-15.93133 -6.87536,-4.91163 -16.45495,-12.55519 -21.28796,-16.98568 -4.833,-4.43049 -14.5086,-13.27875 -21.50131,-19.66279 -12.2761,-11.20752 -23.09372,-23.13992 -26.67841,-29.42763 -2.30299,-4.03956 -8.1107,-21.96069 -9.88761,-30.51069 -1.46389,-7.04384 -1.73708,-16.64717 -0.59165,-20.79808 0.73165,-2.65139 4.78437,-3.72559 6.36858,-1.68803 0.9732,1.2517 3.29888,10.35694 4.98086,19.50053 0.52168,2.83594 3.2905,9.88245 6.15293,15.65892 4.08581,8.24528 6.1505,11.29224 9.60607,14.17618 9.79889,8.1779 15.18291,10.62174 15.18291,6.8916 0,-0.94093 -1.0473,-4.78997 -2.32732,-8.55341 -3.29915,-9.69989 -6.10832,-25.47756 -6.10116,-34.26704 0.008,-9.58559 2.36756,-27.91744 4.23915,-32.93207 0.79431,-2.12825 2.28593,-4.6313 3.31471,-5.56233 1.67156,-1.51275 2.02166,-1.5416 3.29197,-0.27128 1.17609,1.17607 1.47031,5.37333 1.70432,24.31233 0.28449,23.0247 1.15983,29.9221 3.79739,29.9221 0.797,0 1.28486,-1.13243 1.31261,-3.04688 0.0243,-1.67578 0.48836,-4.52065 1.03125,-6.32193 0.54289,-1.80129 0.98708,-4.79886 0.98708,-6.66128 0,-4.05799 6.86318,-20.18659 11.67431,-27.43487 1.865,-2.80975 6.54158,-8.10145 10.39238,-11.75933 6.75987,-6.42123 7.16311,-6.65071 11.68613,-6.65071 l 4.68468,0 0,3.22022 c 0,4.65522 -1.03506,6.79909 -7.29833,15.11679 -11.29545,15.00049 -17.26809,28.43756 -18.51878,41.66299 -1.7795,18.8174 -0.34171,20.01543 18.99385,15.82655 11.38363,-2.46616 22.21666,-7.87082 29.05833,-14.49735 4.16756,-4.0365 5.88789,-5.02151 10.46755,-5.99338 9.78685,-2.07691 11.50618,0.76688 6.08968,10.07239 -5.31037,9.12316 -25.95161,20.98919 -44.5733,25.62387 -9.7878,2.43604 -12.05811,3.64175 -15.8338,8.40896 -2.5294,3.19362 -3.05686,4.65733 -3.00886,8.34962 0.032,2.46242 0.88211,6.32235 1.88912,8.57762 2.6351,5.90155 15.71299,17.92866 27.20471,25.01886 11.79746,7.27886 28.88451,19.41715 36.00268,25.57559 2.92414,2.52987 5.75813,4.59977 6.29776,4.59977 1.34415,0 7.81935,-8.81218 10.68322,-14.5389 6.36115,-12.72009 8.13793,-19.2122 8.9335,-32.6417 0.82458,-13.91923 1.51835,-15.79759 5.12236,-13.86879 3.93263,2.10469 4.29487,3.83917 4.55249,21.7981 l 0.24702,17.22004 -4.03744,8.90625 c -2.2206,4.89844 -4.99921,10.59375 -6.17469,12.65625 -2.59082,4.54583 -3.88123,14.47714 -2.27182,17.48437 1.92286,3.5929 13.29096,17.66728 14.36357,17.78296 0.56647,0.0611 1.54387,0.0457 2.17201,-0.0342 0.62815,-0.08 2.82618,0.71384 4.88453,1.76392 2.87462,1.46653 5.54603,1.90926 11.52035,1.90926 4.27786,0 9.12688,0.38688 10.77562,0.85972 2.09202,0.59999 4.57745,0.4472 8.22661,-0.50573 2.87591,-0.75101 5.58964,-1.14252 6.03051,-0.87005 2.05171,1.26803 5.66792,-8.62923 5.69042,-15.57417 0.0123,-3.77529 -10.09833,-25.9959 -14.41013,-31.67004 -2.41632,-3.1798 -2.45374,-3.4642 -2.45374,-18.64896 0,-12.81773 0.32407,-16.50808 1.92038,-21.86816 3.68508,-12.37385 11.7456,-17.19424 14.89597,-8.90817 1.43604,3.77709 1.24629,6.92674 -0.97909,16.25212 -2.81715,11.80513 -2.15694,17.83483 3.30728,30.20555 5.03426,11.39732 6.92587,14.62862 10.6482,18.18948 l 2.73659,2.61787 2.31522,-3.08662 c 1.27338,-1.69765 3.96894,-5.60219 5.99017,-8.67675 3.45316,-5.25278 6.2021,-8.436 24.85933,-28.7867 6.48727,-7.07612 7.57049,-8.75927 8.37825,-13.01859 1.14892,-6.05826 1.20166,-20.85141 0.09,-25.26084 -0.45496,-1.80469 -1.74076,-10.66406 -2.85733,-19.6875 -1.11658,-9.02344 -2.6151,-19.14844 -3.33005,-22.5 -0.71496,-3.35156 -1.54611,-7.57031 -1.84701,-9.375 -0.3009,-1.80469 -2.27299,-7.69729 -4.38243,-13.09468 -2.13946,-5.47423 -4.04876,-12.1671 -4.31801,-15.13645 -0.43119,-4.75526 -0.26702,-5.43845 1.53914,-6.40508 3.09857,-1.6583 6.4761,2.45655 11.50063,14.01121 8.78788,20.20909 11.67434,30.51986 16.19681,57.85686 4.90188,29.63049 5.04047,30.26814 6.57812,30.26814 3.1707,0 18.4076,-14.44862 21.45843,-20.34828 2.14083,-4.1399 1.98374,-13.30769 -0.445,-25.97158 -1.75703,-9.16146 -1.93161,-12.51852 -1.46707,-28.21139 0.50681,-17.12031 1.71098,-25.60122 4.50602,-31.73567 1.36552,-2.99698 2.76118,-3.1358 5.13822,-0.51107 1.62216,1.79119 1.84078,4.17687 2.38401,26.01563 0.59906,24.08329 1.54751,31.79831 4.89363,39.8067 0.79413,1.90061 1.83818,3.45566 2.32011,3.45566 0.48195,0 2.37946,-1.66386 4.21669,-3.69747 4.52573,-5.00943 9.97232,-21.73769 10.548,-32.39628 0.22279,-4.125 0.84492,-11.33977 1.38251,-16.03284 0.53758,-4.69306 0.85181,-8.91181 0.69827,-9.375 -0.15352,-0.46318 0.65515,-2.42419 1.79705,-4.35778 2.6453,-4.47932 6.793,-4.93223 9.35537,-1.02156 2.18961,3.34178 3.38664,29.53013 1.64291,35.94343 -0.63088,2.32031 -2.77674,10.92393 -4.76858,19.11914 -3.09919,12.75128 -4.24496,15.90989 -7.94382,21.89945 -6.76904,10.96106 -23.87541,30.83032 -30.1228,34.988 -2.96042,1.97019 -9.92135,7.52774 -15.46875,12.35012 -5.54739,4.82239 -13.46117,11.22178 -17.58617,14.22088 -9.60093,6.98039 -24.41781,21.47967 -26.9054,26.32866 -1.05808,2.0625 -3.41644,5.79904 -5.24078,8.30341 -4.00259,5.49457 -17.18406,28.92884 -16.6004,29.5125 0.22786,0.22787 1.89016,-0.71139 3.694,-2.08724 4.65747,-3.55242 14.52996,-7.79412 20.86747,-8.96568 3.62008,-0.66921 7.9064,-2.53138 12.95962,-5.63025 14.25456,-8.74157 22.07994,-11.3084 24.73228,-8.11251 1.66499,2.00618 0.2439,8.97017 -2.69969,13.22977 -3.36958,4.87603 -6.63403,11.497 -9.77933,19.83444 -3.15381,8.36007 -6.84912,13.99477 -14.5007,22.11109 -4.609,4.88894 -6.57174,6.33572 -8.5952,6.33572 -4.34378,0 -5.64005,0.87294 -5.012,3.37523 0.43488,1.73274 -0.0992,2.82312 -2.35043,4.79852 -3.46602,3.04138 -3.75671,6.19671 -1.03819,11.26889 2.89142,5.39476 2.24062,9.21477 -1.06087,6.22695 -2.43761,-2.20601 -4.214,-1.04802 -4.89147,3.18865 -0.32597,2.03852 -1.9114,6.52443 -3.52316,9.96869 -2.52375,5.39313 -2.94784,7.39554 -3.05561,14.42735 -0.11819,7.71159 0.0441,8.42961 2.92174,12.9281 2.88791,4.51452 3.04621,5.2234 3.03408,13.5872 -0.008,4.8533 -0.2764,9.80858 -0.59855,11.01175 -0.92447,3.45263 -15.57089,12.46301 -21.41991,13.1774 -4.5527,0.55606 -4.69548,0.66688 -4.96499,3.85377 -0.15262,1.80469 -0.8909,6.59738 -1.64062,10.65044 C 720.61341,893.141 720,900.99941 720,906.55109 c 0,13.0835 -4.55197,31.8716 -10.79172,44.54266 -7.49888,15.22791 -16.15632,29.89566 -21.24149,35.988 -2.74892,3.29344 -6.26367,7.74009 -7.81054,9.88153 -1.54688,2.14134 -5.81273,7.46242 -9.47967,11.82452 C 664.443,1016.2029 645,1043.3994 645,1044.7036 c 0,1.073 -8.10389,13.2405 -9.69187,14.5518 -0.85696,0.7077 -1.55813,1.8355 -1.55813,2.5062 0,2.6448 -5.30963,7.1905 -20.80264,17.8097 -14.54932,9.9724 -17.1238,11.3816 -25.7253,14.0819 -13.86344,4.3522 -13.64599,4.1224 -14.11543,14.9216 -0.62769,14.4397 4.79598,76.7683 8.16588,93.8421 1.73001,8.7651 2.79705,17.1352 2.80856,22.0312 0.0267,11.355 1.18256,17.9934 7.62491,43.7925 4.11472,16.4779 7.28825,26.8028 11.20669,36.4602 3.00654,7.4099 6.78162,18.8407 8.38908,25.4016 3.74607,15.2897 4.68865,17.1698 10.56368,21.0706 5.96477,3.9604 20.32207,17.3379 20.32207,18.9353 0,0.64 -0.85014,1.933 -1.88921,2.8733 -1.03907,0.9404 -2.14767,3.3261 -2.46357,5.3016 l -0.57436,3.5918 -6.20831,0.01 c -3.41456,0.01 -7.68486,0.194 -9.48955,0.4184 -1.80469,0.2245 -6.65625,-0.326 -10.78125,-1.2232 z" id="path-2" style="fill: rgb(255, 170, 0);"/>
  </g>
</svg>