<svg class="shirtOverlay" width="86" height="380" viewBox="202.715 584.407 86.593 380.048" preserveAspectRatio="xMidYMax" xmlns="http://www.w3.org/2000/svg"><path class="clothes" fill="none" d="M202.715 584.431h86.593V700.24h-86.593z"/><path class="clothes" fill="none" d="M-403.988 499.579h1300v550h-1300z"/><g clip-path="url(#clipPath16)" transform="matrix(.19111 .04157 0 -.32833 214.788 943.688)"><path d="M3.676 3.676V445.06c0 93.681 86.2 142.92 185.67 170.33l21.186-3.484c102.118 0 164.485-73.165 164.485-166.846V9.841L3.677 3.676z" fill="none" stroke="#000" stroke-width="7.353" stroke-miterlimit="10"/><path d="M64.047 3.676V445.06c0 93.681 56.386 170.33 125.3 170.33 143.061-76.93 125.3-76.649 125.3-170.33V3.676h-250.6z" fill="none" stroke="#000" stroke-width="6.975" stroke-miterlimit="10"/><path d="M126.45 3.676V445.06c0 93.681 28.304 170.33 62.897 170.33 76.963-68.622 62.897-76.649 62.897-170.33V3.676H126.45z" fill="none" stroke="#000" stroke-width="6.506" stroke-miterlimit="10"/><path d="M188.847 615.126v-611" fill="none" stroke="#000" stroke-width="7" stroke-miterlimit="10"/><path d="M97.545 375.72c2.451-6.612-4.156-14.037-11.699-14.67-7.543-.633-14.714 4.083-18.477 10.147-4.367 7.036-4.872 15.98-1.4 23.428 3.47 7.45 10.812 13.247 19.303 15.341 8.546 2.107 18.15.406 25.09-4.653 8.417-6.135 12.281-16.383 12.714-26.27.563-12.854-4.132-25.844-12.943-35.814-7.35-8.317-17.209-14.37-25.839-21.569-7.06-5.889-21.247-18.019-15.446-27.788 2.121-3.573 5.876-6.042 9.625-8.196 4.946-2.843 11.17-5.407 16.377-2.993 3.957 1.835 5.98 6.145 6.062 10.231.11 5.452-1.746 18.173-10.667 16.21-4.764-1.049-5.546-6.055-6.23-9.806" fill="none" stroke="#000" stroke-width="4.618" stroke-miterlimit="10"/><path d="M30.103 374.084c-2.073-6.721 4.945-13.817 12.514-14.086 7.569-.268 14.463 4.787 17.877 11.024 3.963 7.237 3.96 16.192.072 23.463-3.888 7.272-11.55 12.708-20.147 14.39-8.654 1.692-18.147-.47-24.792-5.856-8.058-6.532-11.336-16.953-11.208-26.85.166-12.861 5.59-25.607 14.954-35.138 7.812-7.952 18-13.521 27.026-20.294 7.385-5.541 22.239-16.97 17-27.006-1.917-3.67-5.527-6.316-9.148-8.648-4.78-3.078-10.85-5.94-16.186-3.78-4.055 1.643-6.32 5.849-6.633 9.926-.42 5.439.714 18.232 9.734 16.7 4.817-.816 5.88-5.777 6.778-9.49M222.545 374.057c2.451-6.612-4.156-14.037-11.699-14.67-7.543-.633-14.714 4.083-18.477 10.147-4.367 7.036-4.872 15.98-1.4 23.428 3.47 7.45 10.812 13.247 19.303 15.341 8.546 2.107 18.15.406 25.09-4.653 8.417-6.135 12.281-16.383 12.714-26.27.563-12.854-4.132-25.844-12.943-35.814-7.35-8.317-17.209-14.37-25.839-21.569-7.06-5.889-21.247-18.019-15.446-27.788 2.121-3.573 5.876-6.042 9.625-8.196 4.946-2.843 11.17-5.407 16.377-2.993 3.957 1.835 5.98 6.145 6.062 10.231.11 5.452-1.746 18.173-10.667 16.21-4.764-1.049-5.546-6.055-6.23-9.806" fill="none" stroke="#000" stroke-width="4.618" stroke-miterlimit="10"/><path d="M155.103 372.42c-2.073-6.72 4.945-13.816 12.514-14.085 7.569-.268 14.463 4.787 17.877 11.024 3.963 7.237 3.96 16.192.072 23.463-3.888 7.272-11.55 12.708-20.147 14.39-8.654 1.692-18.147-.47-24.792-5.856-8.058-6.532-11.336-16.953-11.208-26.85.166-12.861 5.59-25.607 14.954-35.138 7.812-7.952 18-13.521 27.026-20.294 7.385-5.541 22.239-16.97 17-27.006-1.917-3.67-5.527-6.316-9.148-8.648-4.78-3.078-10.85-5.938-16.186-3.78-4.055 1.643-6.32 5.849-6.633 9.926-.42 5.439.714 18.232 9.734 16.7 4.817-.816 5.88-5.777 6.778-9.49M346.545 375.72c2.451-6.612-4.156-14.037-11.699-14.67-7.543-.633-14.714 4.083-18.477 10.147-4.367 7.036-4.872 15.98-1.4 23.428 3.47 7.45 10.812 13.247 19.303 15.341 8.546 2.107 18.15.406 25.09-4.653 8.417-6.135 12.281-16.383 12.714-26.27.563-12.854-4.132-25.844-12.943-35.814-7.35-8.317-17.209-14.37-25.839-21.569-7.06-5.889-21.247-18.019-15.446-27.788 2.121-3.573 5.876-6.042 9.625-8.196 4.946-2.843 11.17-5.407 16.377-2.993 3.957 1.835 5.98 6.145 6.062 10.231.11 5.452-1.746 18.173-10.667 16.21-4.764-1.049-5.546-6.055-6.23-9.806" fill="none" stroke="#000" stroke-width="4.618" stroke-miterlimit="10"/><path d="M279.103 374.084c-2.073-6.721 4.945-13.817 12.514-14.086 7.569-.268 14.463 4.787 17.877 11.024 3.963 7.237 3.96 16.192.072 23.463-3.888 7.272-11.55 12.708-20.147 14.39-8.654 1.692-18.147-.47-24.792-5.856-8.058-6.532-11.336-16.953-11.208-26.85.166-12.861 5.59-25.607 14.954-35.138 7.812-7.952 18-13.521 27.026-20.294 7.385-5.541 22.239-16.97 17-27.006-1.917-3.67-5.527-6.316-9.148-8.648-4.78-3.078-10.85-5.94-16.186-3.78-4.055 1.643-6.32 5.849-6.633 9.926-.42 5.439.714 18.232 9.734 16.7 4.817-.816 5.88-5.777 6.778-9.49" fill="none" stroke="#000" stroke-width="4.618" stroke-miterlimit="10"/><path d="M49.006 39.566c9.942 2.674 15.833 12.901 13.159 22.843-2.14 7.953-10.321 12.666-18.275 10.527-6.362-1.712-10.133-8.257-8.421-14.62 1.369-5.09 6.605-8.106 11.695-6.737a7.636 7.636 0 0 1 5.39 9.357M49.006 39.566c-9.942-2.674-15.833-12.9-13.16-22.843C37.987 8.77 46.169 4.057 54.123 6.196c6.362 1.712 10.133 8.257 8.42 14.62-1.368 5.09-6.604 8.106-11.694 6.737a7.636 7.636 0 0 1-5.39-9.357" fill="none" stroke="#000" stroke-width="5" stroke-miterlimit="10"/><path d="M20.148 39.758C10.237 42.544 4.46 52.837 7.246 62.748c2.229 7.929 10.463 12.55 18.392 10.32 6.343-1.782 10.039-8.37 8.257-14.712-1.427-5.075-6.696-8.033-11.771-6.606a7.635 7.635 0 0 0-5.284 9.417M20.148 39.758c9.91-2.786 15.687-13.078 12.902-22.989C30.82 8.841 22.587 4.22 14.658 6.45 8.315 8.23 4.618 14.818 6.4 21.16c1.427 5.074 6.696 8.032 11.77 6.605a7.635 7.635 0 0 0 5.285-9.416M110.006 39.566c9.942 2.674 15.833 12.901 13.159 22.843-2.14 7.953-10.321 12.666-18.275 10.527-6.362-1.712-10.133-8.257-8.421-14.62 1.369-5.09 6.605-8.106 11.695-6.737a7.636 7.636 0 0 1 5.39 9.357M110.006 39.566c-9.942-2.674-15.833-12.9-13.16-22.843 2.14-7.953 10.322-12.666 18.276-10.527 6.362 1.712 10.133 8.257 8.42 14.62-1.368 5.09-6.604 8.106-11.694 6.737a7.636 7.636 0 0 1-5.39-9.357" fill="none" stroke="#000" stroke-width="5" stroke-miterlimit="10"/><path d="M81.148 39.758c-9.911 2.786-15.687 13.078-12.902 22.99 2.229 7.929 10.463 12.55 18.392 10.32 6.343-1.782 10.039-8.37 8.257-14.712-1.427-5.075-6.696-8.033-11.771-6.606a7.635 7.635 0 0 0-5.284 9.417M81.148 39.758c9.91-2.786 15.687-13.078 12.902-22.989C91.82 8.841 83.587 4.22 75.658 6.45c-6.343 1.782-10.04 8.37-8.257 14.712 1.427 5.074 6.696 8.032 11.77 6.605a7.635 7.635 0 0 0 5.285-9.416M171.006 39.566c9.942 2.674 15.833 12.901 13.159 22.843-2.14 7.953-10.321 12.666-18.275 10.527-6.362-1.712-10.133-8.257-8.421-14.62 1.369-5.09 6.605-8.106 11.695-6.737a7.636 7.636 0 0 1 5.39 9.357M171.006 39.566c-9.942-2.674-15.833-12.9-13.16-22.843 2.14-7.953 10.322-12.666 18.276-10.527 6.362 1.712 10.133 8.257 8.42 14.62-1.368 5.09-6.604 8.106-11.694 6.737a7.636 7.636 0 0 1-5.39-9.357" fill="none" stroke="#000" stroke-width="5" stroke-miterlimit="10"/><path d="M142.148 39.758c-9.911 2.786-15.687 13.078-12.902 22.99 2.229 7.929 10.463 12.55 18.392 10.32 6.343-1.782 10.039-8.37 8.257-14.712-1.427-5.075-6.696-8.033-11.771-6.606a7.635 7.635 0 0 0-5.284 9.417M142.148 39.758c9.91-2.786 15.687-13.078 12.902-22.989-2.23-7.928-10.463-12.55-18.392-10.32-6.343 1.782-10.04 8.37-8.257 14.712 1.427 5.074 6.696 8.032 11.77 6.605a7.635 7.635 0 0 0 5.285-9.416M234.006 39.566c9.942 2.674 15.833 12.901 13.159 22.843-2.14 7.953-10.321 12.666-18.275 10.527-6.362-1.712-10.133-8.257-8.421-14.62 1.369-5.09 6.605-8.106 11.695-6.737a7.636 7.636 0 0 1 5.39 9.357M234.006 39.566c-9.942-2.674-15.833-12.9-13.16-22.843 2.14-7.953 10.322-12.666 18.276-10.527 6.362 1.712 10.133 8.257 8.42 14.62-1.368 5.09-6.604 8.106-11.694 6.737a7.636 7.636 0 0 1-5.39-9.357" fill="none" stroke="#000" stroke-width="5" stroke-miterlimit="10"/><path d="M205.148 39.758c-9.911 2.786-15.687 13.078-12.902 22.99 2.229 7.929 10.463 12.55 18.392 10.32 6.343-1.782 10.039-8.37 8.257-14.712-1.427-5.075-6.696-8.033-11.771-6.606a7.635 7.635 0 0 0-5.284 9.417M205.148 39.758c9.91-2.786 15.687-13.078 12.902-22.989-2.23-7.928-10.463-12.55-18.392-10.32-6.343 1.782-10.04 8.37-8.257 14.712 1.427 5.074 6.696 8.032 11.77 6.605a7.635 7.635 0 0 0 5.285-9.416M297.006 39.566c9.942 2.674 15.833 12.901 13.159 22.843-2.14 7.953-10.321 12.666-18.275 10.527-6.362-1.712-10.133-8.257-8.421-14.62 1.369-5.09 6.605-8.106 11.695-6.737a7.636 7.636 0 0 1 5.39 9.357M297.006 39.566c-9.941-2.674-15.833-12.9-13.16-22.843 2.14-7.953 10.323-12.666 18.276-10.527 6.362 1.712 10.133 8.257 8.42 14.62-1.368 5.09-6.604 8.106-11.694 6.737a7.636 7.636 0 0 1-5.39-9.357" fill="none" stroke="#000" stroke-width="5" stroke-miterlimit="10"/><path d="M268.148 39.758c-9.911 2.786-15.687 13.078-12.902 22.99 2.229 7.929 10.463 12.55 18.392 10.32 6.343-1.782 10.039-8.37 8.257-14.712-1.427-5.075-6.696-8.033-11.771-6.606a7.635 7.635 0 0 0-5.284 9.417M268.148 39.758c9.91-2.786 15.687-13.078 12.902-22.989-2.23-7.928-10.463-12.55-18.392-10.32-6.343 1.782-10.04 8.37-8.257 14.712 1.427 5.074 6.696 8.032 11.77 6.605a7.635 7.635 0 0 0 5.285-9.416M359.006 39.566c9.942 2.674 15.833 12.901 13.159 22.843-2.14 7.953-10.321 12.666-18.275 10.527-6.362-1.712-10.133-8.257-8.421-14.62 1.369-5.09 6.605-8.106 11.695-6.737a7.636 7.636 0 0 1 5.39 9.357M359.006 39.566c-9.941-2.674-15.833-12.9-13.16-22.843 2.14-7.953 10.323-12.666 18.276-10.527 6.362 1.712 10.133 8.257 8.42 14.62-1.368 5.09-6.604 8.106-11.694 6.737a7.636 7.636 0 0 1-5.39-9.357" fill="none" stroke="#000" stroke-width="5" stroke-miterlimit="10"/><path d="M330.148 39.758c-9.911 2.786-15.687 13.078-12.902 22.99 2.229 7.929 10.463 12.55 18.392 10.32 6.343-1.782 10.039-8.37 8.257-14.712-1.427-5.075-6.696-8.033-11.771-6.606a7.635 7.635 0 0 0-5.284 9.417M330.148 39.758c9.91-2.786 15.687-13.078 12.902-22.989-2.23-7.928-10.463-12.55-18.392-10.32-6.343 1.782-10.04 8.37-8.257 14.712 1.427 5.074 6.696 8.032 11.77 6.605a7.635 7.635 0 0 0 5.285-9.416" fill="none" stroke="#000" stroke-width="5" stroke-miterlimit="10"/></g><path d="M271.621 763.049c4.048 9.556 7.628 6.524 11.64 15.689 4.231 9.666 4.555 8.746 4.555 15.182 0 8.426-.506 24.421-.506 24.292" stroke="#000" fill="none"/></svg>