<?xml version="1.0" encoding="utf-8"?>
<svg class="shirt" width="86" height="380" viewBox="202.715 584.407 86.5933 380.048" preserveAspectRatio="xMidYMax" xmlns="http://www.w3.org/2000/svg" xmlns:xlink="http://www.w3.org/1999/xlink">
  <defs id="svgEditorDefs">
    <path id="svgEditorClosePathDefs" fill="black" style="stroke-width: 0px; stroke: none;" class="clothes"/>
    <pattern id="pattern-0" x="0" y="0" width="20" height="20" patternUnits="userSpaceOnUse" viewBox="0 0 104.45150756835938 194.96556854248047">
      <rect x="-1.125" y="-1.768" width="106.752" height="204.797" style="fill: url(#gradient-0);"/>
      <ellipse transform="matrix(0.8, -0.6, 0.6, 0.8, -106.730115, 10.54184)" cx="73.324" cy="122.985" rx="29.626" ry="28.769" style="fill: rgb(255, 157, 0);"/>
      <ellipse transform="matrix(0.8, -0.6, 0.6, 0.8, -50.722862, 7.557882)" cx="71.595" cy="122.442" rx="28.928" ry="28.642" style="fill: rgb(255, 157, 0);"/>
    </pattern>
    <pattern id="pattern-0-0" patternTransform="matrix(-4.972337, -0.128766, 0.106422, -4.109524, 297.201721, 736.551148)" xlink:href="#pattern-0"/>
    <linearGradient id="gradient-0" gradientUnits="userSpaceOnUse" x1="52.883" y1="-2.084" x2="52.883" y2="202.713">
      <stop offset="0" style="stop-color: rgba(13, 0, 255, 1)"/>
      <stop offset="0.05" style="stop-color: rgb(250, 0, 0);"/>
      <stop offset="0.112" style="stop-color: rgb(0, 235, 19);"/>
      <stop offset="0.154" style="stop-color: rgb(16, 23, 233);"/>
      <stop offset="0.195" style="stop-color: rgb(226, 0, 255);"/>
      <stop offset="0.263" style="stop-color: rgb(255, 0, 234);"/>
      <stop offset="0.274" style="stop-color: rgb(255, 157, 0);"/>
      <stop offset="0.702" style="stop-color: rgb(255, 162, 0);"/>
      <stop offset="0.972" style="stop-color: rgb(220, 80, 0);"/>
      <stop offset="1" style="stop-color: rgb(213, 0, 22);"/>
      <stop offset="1" style="stop-color: rgba(8, 0, 153, 1)"/>
    </linearGradient>
  </defs>
  <rect id="svgEditorBackground" x="202.71499633789062" y="584.4310302734375" width="86.59329986572266" height="115.80899810791016" style="fill: none; stroke: none;" class="clothes"/>
  <rect id="rect-1" x="-403.988" y="499.579" width="1300" height="550" style="fill: none; stroke: none;" class="clothes"/>
  <polygon style="stroke: rgb(0, 0, 0); fill: url(#pattern-0-0);" points="221.045 761.6 235.099 738.992 235.099 724.939 233.265 715.774 233.265 715.774 227.155 704.776 240.598 695.611 243.653 695.611 247.319 699.888 250.374 695.611 253.429 694.389 257.706 695 266.26 701.721 263.205 719.44 258.317 734.104 271.148 763.433 276.647 771.376 243.042 762.822 231.432 760.989"/>
</svg>