<svg class="shirtOverlay" width="86" height="380" viewBox="202.715 584.407 86.593 380.048" preserveAspectRatio="xMidYMax" xmlns="http://www.w3.org/2000/svg" xmlns:xlink="http://www.w3.org/1999/xlink"><defs><pattern id="a" width="20" height="20" patternUnits="userSpaceOnUse" viewBox="0 0 100 100"><path stroke-width="7" stroke="#888" fill="#b3b2d2" d="M1.716 1.978h95.428v95.719H1.716z"/><path d="M.078 217.514v919.561h524.34V217.514H.078zm60.618 66.587h413.11v466.04h-177.94v2.628c-.145 4.18 1.611 13.963 3.163 19.842 8.544 29.501-16.7 40.486-28.501 56.392-13.951 21.834 8.184 45.385 18.717 54.176 9.956 7.234 14.414 36.288 3.858 49.992-19.009 17.329-11.405 50.037 6.274 62.908 19.454 7.698 30.573 49.936 27.476 72.599-198.47-.878-44.171-2.729-267.48 1.807-14.483-.921-6.613-22.187-6.082-42.77 15.866-.35 39.286-15.042 54.014-22.722 14.046-10.742 29.562-17.299 42.352-31.66 20.309-17.495 6.607-51.702-4.606-69.284-13.598-17.753-10.508-51.408 6.934-61.856 16.728-12.812 40.539-12.912 50.59-39.797 5.018-19.434 17.113-33.125 32.464-43.934 5.165-2.164 4.935-3.126 5.214-5.167v-3.154H60.693v-466.04zm179.56 466.04h55.613V497.282h83.419v-73.148h-83.419V314.412h-55.613v109.722h-83.419v73.148h83.419v252.859z" fill="#24221c" transform="matrix(.14646 0 0 .10684 11.51 -22.503)"/></pattern><pattern id="b" patternTransform="translate(235.115 694.488)" xlink:href="#a"/></defs><path class="clothes" fill="none" d="M202.715 584.431h86.593V700.24h-86.593z"/><path class="clothes" fill="none" d="M-403.988 499.579h1300v550h-1300z"/><path stroke="#000" fill="url(#b)" d="M232.426 739.15l3.094-12.999-4.951-15.474-3.095-4.952-2.476-21.045 2.476-14.236 16.712 24.759 17.95-25.378 3.095 19.807-2.476 26.616z"/></svg>