<?xml version="1.0" encoding="utf-8"?>
<svg class="shirt" width="86" height="380" viewBox="202.715 584.407 86.5933 380.048" preserveAspectRatio="xMidYMax" xmlns="http://www.w3.org/2000/svg" xmlns:xlink="http://www.w3.org/1999/xlink">
  <defs id="svgEditorDefs">
    <path id="svgEditorClosePathDefs" fill="black" style="stroke-width: 0px; stroke: none;" class="clothes"/>
    <pattern id="pattern-0" x="0" y="0" width="20" height="20" patternUnits="userSpaceOnUse" viewBox="0 0 100 100">
      <rect x="-0.664" y="-1.212" width="102.124" height="101.273" style="fill: rgb(255, 206, 177);"/>
      <g transform="matrix(1.509721, 0, 0, 1.450232, -3.45347, -6.83138)">
        <g id="layer1" transform="translate(-337.38 -494.5)">
          <rect id="rect9425" style="opacity:.38683;fill:#ff7f2a" transform="matrix(.92501 -.37994 .37994 .92501 0 0)" height="54.483" width="52.636" y="607.24" x="116.28"/>
          <g id="g9637" transform="matrix(2.1949 0 0 2.1949 -3771.5 -832.81)">
            <g id="g9639" transform="translate(-21.861 6.246)">
              <path id="path9641" style="stroke:#000000;stroke-width:0.7;fill:none" d="m1894.6 607.57 3.6829 2.3108"/>
              <path id="path9643" style="stroke:#000000;stroke-width:0.7;fill:none" d="m1896.9 606.92-1.2276 3.4663"/>
            </g>
            <g id="g9645" transform="translate(-17.294 4.0186)">
              <path id="path9647" d="m1894.6 607.57 3.6829 2.3108" style="stroke:#000000;stroke-width:0.7;fill:none"/>
              <path id="path9649" d="m1896.9 606.92-1.2276 3.4663" style="stroke:#000000;stroke-width:0.7;fill:none"/>
            </g>
            <g id="g9651" transform="translate(-11.55 1.7678)">
              <path id="path9653" style="stroke:#000000;stroke-width:0.7;fill:none" d="m1894.6 607.57 3.6829 2.3108"/>
              <path id="path9655" style="stroke:#000000;stroke-width:0.7;fill:none" d="m1896.9 606.92-1.2276 3.4663"/>
            </g>
            <g id="g9657" transform="translate(-5.8775 -.44271)">
              <path id="path9659" d="m1894.6 607.57 3.6829 2.3108" style="stroke:#000000;stroke-width:0.7;fill:none"/>
              <path id="path9661" d="m1896.9 606.92-1.2276 3.4663" style="stroke:#000000;stroke-width:0.7;fill:none"/>
            </g>
            <g id="g9663" transform="translate(-21.679 11.364)">
              <path id="path9665" style="stroke:#000000;stroke-width:0.7;fill:none" d="m1894.6 607.57 3.6829 2.3108"/>
              <path id="path9667" style="stroke:#000000;stroke-width:0.7;fill:none" d="m1896.9 606.92-1.2276 3.4663"/>
            </g>
            <g id="g9669" transform="translate(-18.126 20.852)">
              <path id="path9671" d="m1894.6 607.57 3.6829 2.3108" style="stroke:#000000;stroke-width:0.7;fill:none"/>
              <path id="path9673" d="m1896.9 606.92-1.2276 3.4663" style="stroke:#000000;stroke-width:0.7;fill:none"/>
            </g>
            <g id="g9675" transform="translate(-19.898 16.435)">
              <path id="path9677" d="m1894.6 607.57 3.6829 2.3108" style="stroke:#000000;stroke-width:0.7;fill:none"/>
              <path id="path9679" d="m1896.9 606.92-1.2276 3.4663" style="stroke:#000000;stroke-width:0.7;fill:none"/>
            </g>
            <g id="g9681" transform="translate(-12.076 28.315)">
              <path id="path9683" d="m1894.6 607.57 3.6829 2.3108" style="stroke:#000000;stroke-width:0.7;fill:none"/>
              <path id="path9685" d="m1896.9 606.92-1.2276 3.4663" style="stroke:#000000;stroke-width:0.7;fill:none"/>
            </g>
            <g id="g9687" transform="translate(-7.5084 26.088)">
              <path id="path9689" style="stroke:#000000;stroke-width:0.7;fill:none" d="m1894.6 607.57 3.6829 2.3108"/>
              <path id="path9691" style="stroke:#000000;stroke-width:0.7;fill:none" d="m1896.9 606.92-1.2276 3.4663"/>
            </g>
            <g id="g9693" transform="translate(-2.0764 24.358)">
              <path id="path9695" d="m1894.6 607.57 3.6829 2.3108" style="stroke:#000000;stroke-width:0.7;fill:none"/>
              <path id="path9697" d="m1896.9 606.92-1.2276 3.4663" style="stroke:#000000;stroke-width:0.7;fill:none"/>
            </g>
            <g id="g9699" transform="translate(3.2834 21.835)">
              <path id="path9701" style="stroke:#000000;stroke-width:0.7;fill:none" d="m1894.6 607.57 3.6829 2.3108"/>
              <path id="path9703" style="stroke:#000000;stroke-width:0.7;fill:none" d="m1896.9 606.92-1.2276 3.4663"/>
            </g>
            <g id="g9705" transform="translate(.78496 2.9926)">
              <path id="path9707" d="m1894.6 607.57 3.6829 2.3108" style="stroke:#000000;stroke-width:0.7;fill:none"/>
              <path id="path9709" d="m1896.9 606.92-1.2276 3.4663" style="stroke:#000000;stroke-width:0.7;fill:none"/>
            </g>
            <g id="g9711" transform="translate(5.5736 14.444)">
              <path id="path9713" style="stroke:#000000;stroke-width:0.7;fill:none" d="m1894.6 607.57 3.6829 2.3108"/>
              <path id="path9715" style="stroke:#000000;stroke-width:0.7;fill:none" d="m1896.9 606.92-1.2276 3.4663"/>
            </g>
            <g id="g9717" transform="translate(3.0752 8.7181)">
              <path id="path9719" style="stroke:#000000;stroke-width:0.7;fill:none" d="m1894.6 607.57 3.6829 2.3108"/>
              <path id="path9721" style="stroke:#000000;stroke-width:0.7;fill:none" d="m1896.9 606.92-1.2276 3.4663"/>
            </g>
            <g id="g9723" transform="translate(7.2152 19.561)">
              <path id="path9725" style="stroke:#000000;stroke-width:0.7;fill:none" d="m1894.6 607.57 3.6829 2.3108"/>
              <path id="path9727" style="stroke:#000000;stroke-width:0.7;fill:none" d="m1896.9 606.92-1.2276 3.4663"/>
            </g>
            <g id="g9729" transform="translate(-1.3351 -1.6814)">
              <path id="path9731" style="stroke:#000000;stroke-width:0.7;fill:none" d="m1894.6 607.57 3.6829 2.3108"/>
              <path id="path9733" style="stroke:#000000;stroke-width:0.7;fill:none" d="m1896.9 606.92-1.2276 3.4663"/>
            </g>
            <g id="g9735" transform="translate(-16.454 25.286)">
              <path id="path9737" style="stroke:#000000;stroke-width:0.7;fill:none" d="m1894.6 607.57 3.6829 2.3108"/>
              <path id="path9739" style="stroke:#000000;stroke-width:0.7;fill:none" d="m1896.9 606.92-1.2276 3.4663"/>
            </g>
          </g>
          <rect id="rect10143" style="opacity:.38683;fill:#b35543" transform="matrix(.92501 -.37994 .37994 .92501 0 0)" height="18.793" width="18.156" y="612.96" x="144.75"/>
          <rect id="rect10147" style="opacity:.38683;fill:#a14936" transform="matrix(.92501 -.37994 .37994 .92501 0 0)" height="18.793" width="18.156" y="633.96" x="122.72"/>
          <rect id="rect3999" style="opacity:.38683;fill:#ff7f2a" transform="matrix(.92501 -.37994 .37994 .92501 0 0)" height="18.793" width="18.156" y="612.61" x="123.5"/>
          <rect id="rect4001" style="opacity:.38683;fill:#ff7f2a" transform="matrix(.92501 -.37994 .37994 .92501 0 0)" height="18.793" width="18.156" y="635.72" x="143.31"/>
        </g>
      </g>
    </pattern>
    <pattern id="pattern-0-0" patternTransform="matrix(1, 0, 0, 1, 235.556244, 769.631348)" xlink:href="#pattern-0"/>
  </defs>
  <rect id="svgEditorBackground" x="202.71499633789062" y="584.4310302734375" width="86.59329986572266" height="115.80899810791016" style="fill: none; stroke: none;" class="clothes"/>
  <rect id="rect-1" x="-403.988" y="499.579" width="1300" height="550" style="fill: none; stroke: none;" class="clothes"/>
  <path d="M 216.244 773.816 C 213.169 775.082 205.288 787.458 211.939 794.11 C 217.334 799.504 224.335 796.052 223.009 783.655 C 222.897 782.611 222.394 794.11 222.394 794.11 C 222.394 794.11 234.782 794.021 235.308 793.495 C 236.845 791.958 232.066 783.208 232.233 783.041 C 234.044 781.23 235.923 792.88 235.923 792.88 C 235.923 792.88 250.208 792.125 250.682 791.65 C 252.738 789.594 247.607 780.581 247.607 780.581 C 247.607 780.581 252.928 796.168 258.677 790.42 C 260.158 788.939 273.26 792.208 272.821 789.805 C 268.402 765.637 273.379 785.215 274.052 786.73 C 274.052 786.73 260.734 796.972 280.815 786.73 C 284.179 785.014 277.582 778.419 277.126 777.506 C 273.204 769.663 279.777 765.822 264.826 763.362" style="stroke: rgb(0, 0, 0); fill: url(#pattern-0-0);"/>
</svg>