<?xml version="1.0" encoding="utf-8"?>
<svg class="shirt" width="86" height="380" viewBox="202.715 584.407 86.5933 380.048" preserveAspectRatio="xMidYMax" xmlns="http://www.w3.org/2000/svg" xmlns:xlink="http://www.w3.org/1999/xlink">
  <defs id="svgEditorDefs">
    <path id="svgEditorClosePathDefs" fill="black" style="stroke-width: 0px; stroke: none;" class="clothes"/>
    <pattern id="pattern-0" x="0" y="0" width="20" height="20" patternUnits="userSpaceOnUse" viewBox="0 -75.05942690372467 410.6584777832031 175.05942690372467">
      <rect x="-1.294" y="-75.606" width="426.515" height="176.02" style="fill: rgb(0, 221, 255);"/>
      <g transform="matrix(2.094414, 0, 0, 2.399848, 16.981852, -311.525238)">
        <g id="layer1" transform="translate(-151.29 -271.77)"/>
      </g>
      <g id="g8305" transform="matrix(8.0944, 0, 0, 4.708068, -581.987793, -2023.801636)">
        <path id="path8186" style="fill:#d4aa00" d="m116.23 391.31c-5.15-0.07-10.11 3.25-12.06 8.02-2.04 4.68-0.99 10.49 2.58 14.14 3.44 3.69 9.1 5.04 13.84 3.32 4.91-1.67 8.55-6.49 8.74-11.69 0.33-5.1-2.67-10.2-7.27-12.42-1.8-0.9-3.81-1.37-5.83-1.37z"/>
        <path id="path5110" style="fill:#ffffff" d="m115.63 392.65c4.63-0.24 9.37 2.34 11.34 6.6 0.94 1.95 1.24 4.19 0.92 6.33-0.76-5.02-5.31-8.97-10.3-9.44-5.04-0.64-10.38 2.26-12.3 7.02-0.35 0.57-0.6 2.28-0.73 2.21-0.71-4.56 1.9-9.26 5.96-11.32 1.58-0.84 3.34-1.31 5.11-1.4z"/>
        <g id="g8192" transform="matrix(.52750 0 0 .52750 46.344 242.87)">
          <path id="path7088" style="fill-rule:evenodd;fill:#000080" d="m117.41 231.25c-2.17-0.03-4.12 0.24-5.38 0.75-3.88 1.58-9.92 3.95-6.69 16.84 2.61 10.43 13.85 26.61 18.22 32.66 2.8-1.01 5.83-1.56 8.97-1.56 3.15 0 6.17 0.55 8.97 1.56 4.37-6.05 15.61-22.23 18.22-32.66 3.23-12.89-2.83-15.26-6.72-16.84-4.03-1.64-14.96-0.92-18.19 5-0.79 1.46-1.57 4.65-2.28 8.62-0.71-3.97-1.48-7.16-2.28-8.62-2.22-4.07-8.09-5.67-12.84-5.75zm62.56 17c-2.88-0.18-6.54 1.13-11.31 5.75-7.72 7.47-16.14 25.28-19.19 32.09 2.27 1.92 4.27 4.28 5.84 7 1.58 2.73 2.61 5.61 3.13 8.53 7.42 0.77 27.07 2.42 37.4-0.53 12.78-3.65 11.8-10.06 11.22-14.21-0.18-1.35-0.92-3.18-2.03-5.04-2.44-4.08-6.77-8.36-11.41-8.25-1.65 0.04-4.76 0.95-8.56 2.32 3.09-2.61 5.42-4.84 6.28-6.25 3.51-5.76-1.32-15.59-4.75-18.25-1.65-1.29-3.74-2.98-6.62-3.16zm-94.876 0.03c-2.879 0.18-4.97 1.84-6.625 3.13-3.43 2.66-8.292 12.49-4.781 18.25 0.864 1.41 3.259 3.67 6.343 6.28-3.795-1.37-6.965-2.31-8.625-2.35-4.633-0.11-8.93 4.17-11.375 8.25-1.111 1.86-1.876 3.69-2.062 5.04-0.575 4.15-1.53 10.56 11.25 14.21 10.33 2.95 29.984 1.33 37.401 0.57 0.53-2.93 1.56-5.84 3.13-8.57 1.57-2.72 3.57-5.08 5.84-7-3.04-6.81-11.46-24.62-19.184-32.09-4.775-4.62-8.433-5.9-11.312-5.72zm-1.469 61.44c-5.357 0.1-10.532 0.58-14.406 1.69-12.78 3.65-11.794 10.09-11.219 14.25 0.596 4.3 6.667 13.41 13.406 13.25 1.66-0.04 4.828-0.98 8.625-2.35-3.083 2.61-5.479 4.87-6.343 6.28-2.414 3.96-0.876 9.85 1.437 14 1.051 1.89 2.272 3.45 3.344 4.28 3.31 2.58 8.387 6.62 17.937-2.62 7.724-7.47 16.104-25.31 19.154-32.12-2.27-1.92-4.24-4.25-5.81-6.97-1.57-2.73-2.64-5.64-3.16-8.57-4.64-0.47-14.037-1.3-22.965-1.12zm95.125 0c-8.07 0.01-16.14 0.69-20.31 1.12-0.52 2.93-1.55 5.84-3.13 8.57-1.57 2.72-3.57 5.08-5.84 7 3.05 6.81 11.47 24.62 19.19 32.09 9.55 9.24 14.62 5.2 17.93 2.62 1.08-0.83 2.26-2.39 3.32-4.28 2.31-4.15 3.88-10.04 1.47-14-0.87-1.41-3.23-3.67-6.32-6.28 3.8 1.37 6.94 2.31 8.6 2.35 6.74 0.16 12.81-8.95 13.4-13.25 0.58-4.16 1.56-10.6-11.22-14.25-4.52-1.29-10.81-1.7-17.09-1.69zm-55.19 21.28c-4.37 6.05-15.61 22.23-18.22 32.66-3.23 12.89 2.81 15.26 6.69 16.84 1.26 0.51 3.21 0.78 5.38 0.75 4.75-0.08 10.62-1.68 12.84-5.75 0.8-1.46 1.57-4.62 2.28-8.59 0.71 3.97 1.49 7.13 2.28 8.59 3.23 5.92 14.16 6.64 18.19 5 3.89-1.58 9.95-3.95 6.72-16.84-2.61-10.43-13.85-26.61-18.22-32.66-2.8 1.01-5.82 1.56-8.97 1.56-3.14 0-6.17-0.55-8.97-1.56z"/>
          <path id="path7072" style="fill-rule:evenodd;fill:#00ffff" d="m147.44 232.66c-4.03 0.07-9 1.51-10.88 5.12-0.57 1.1-1.13 3.33-1.65 6.13 0.29-1.14 0.6-2.08 0.9-2.66 2.74-5.26 12-5.89 15.41-4.44 3.02 1.29 7.6 3.18 6.22 12.35 0.07-0.28 0.15-0.57 0.22-0.85 2.73-11.45-2.4-13.56-5.69-14.97-1.07-0.45-2.7-0.72-4.53-0.68zm-29.78 0.06c-2.01-0.03-3.81 0.21-4.97 0.69-3.6 1.45-9.18 3.64-6.19 15.53 0.27 1.06 0.65 2.2 1.09 3.37-2.64-11.35 2.78-13.5 6.32-14.93 1.16-0.48 2.99-0.76 5-0.72 4.4 0.07 9.82 1.56 11.87 5.31 0.04 0.07 0.09 0.17 0.13 0.25-0.44-1.86-0.89-3.35-1.35-4.19-2.05-3.75-7.5-5.24-11.9-5.31zm-32.41 17.78c-2.577 0.21-4.441 1.72-5.938 2.91-2.653 2.09-6.237 8.9-5.374 14.21 0.619-4.46 3.288-9 5.374-10.65 3.041-2.4 7.696-6.22 16.469 2.41 6.319 6.2 13.079 20.01 16.469 27.46 0.37-0.36 0.77-0.72 1.16-1.06-2.8-6.35-10.54-23-17.629-29.97-3.838-3.77-6.9-5.13-9.375-5.31-0.398-0.03-0.788-0.03-1.156 0zm93.19 0c-2.48 0.18-5.54 1.54-9.38 5.31-7.09 6.97-14.82 23.62-17.62 29.97 0.39 0.34 0.78 0.7 1.15 1.06 3.4-7.45 10.16-21.26 16.47-27.46 8.78-8.63 13.43-4.81 16.47-2.41 2.09 1.65 4.76 6.19 5.38 10.65 0.86-5.31-2.73-12.12-5.38-14.21-1.71-1.36-3.91-3.14-7.09-2.91zm-106.97 25.06c-4.255-0.1-8.232 3.5-10.75 7.25 3.583-3.39 8.205-5.43 13.281-5.43 2.386 0 4.682 0.45 6.812 1.28-0.493-0.36-1.009-0.69-1.531-1-3.442-1.22-6.268-2.06-7.812-2.1zm121.91 0c-1.55 0.04-4.38 0.88-7.82 2.1-0.52 0.31-1.04 0.64-1.53 1 2.13-0.83 4.43-1.28 6.81-1.28 5.08 0 9.7 2.04 13.28 5.43-2.51-3.75-6.49-7.35-10.74-7.25zm-106.82 36.13c-5.877-0.01-11.77 0.4-16 1.62-11.96 3.47-11.038 9.59-10.5 13.53 0.069 0.51 0.222 1.07 0.438 1.69-0.55-3.95-0.945-9.68 11.094-13 9.238-2.55 25.955-1.51 34.406-0.75-0.18-0.67-0.32-1.32-0.44-2-3.91-0.41-11.44-1.08-18.998-1.09zm92.028 0.25c-7.55 0.01-15.09 0.68-19 1.09-0.11 0.68-0.26 1.33-0.43 2 8.45-0.76 25.16-1.8 34.4 0.75 12.04 3.32 11.65 9.05 11.1 13 0.21-0.62 0.37-1.18 0.43-1.69 0.54-3.94 1.46-10.06-10.5-13.53-4.23-1.22-10.12-1.63-16-1.62zm-71 47.78c-0.44 1.18-0.82 2.31-1.09 3.37-2.99 11.89 2.59 14.08 6.19 15.53 1.16 0.48 2.96 0.72 4.97 0.69 4.4-0.07 9.85-1.56 11.9-5.31 0.46-0.84 0.91-2.33 1.35-4.19-0.04 0.08-0.09 0.18-0.13 0.25-2.05 3.75-7.47 5.24-11.87 5.32-2.01 0.03-3.84-0.25-5-0.72-3.54-1.43-8.96-3.59-6.32-14.94zm49.85 3.16c1.38 9.16-3.2 11.05-6.22 12.34-3.41 1.45-12.67 0.82-15.41-4.44-0.3-0.58-0.61-1.52-0.9-2.66 0.52 2.8 1.08 5.03 1.65 6.13 1.88 3.62 6.85 5.06 10.88 5.13 1.83 0.03 3.46-0.24 4.53-0.69 3.29-1.41 8.42-3.52 5.69-14.97-0.07-0.27-0.15-0.56-0.22-0.84z"/>
        </g>
      </g>
    </pattern>
    <pattern id="pattern-0-41" patternTransform="matrix(1, 0, 0, 1, -10, -10)" xlink:href="#pattern-0"/>
    <radialGradient id="gradient-0" gradientUnits="userSpaceOnUse" cx="512.736" cy="671.83" r="96.614">
      <stop offset="0" style="stop-color: #bada55"/>
      <stop offset="1" style="stop-color: #758d29"/>
    </radialGradient>
    <radialGradient id="gradient-1" gradientUnits="userSpaceOnUse" cx="573.67" cy="589.648" r="64.84">
      <stop offset="0" style="stop-color: #bada55"/>
      <stop offset="1" style="stop-color: #758d29"/>
    </radialGradient>
    <radialGradient id="gradient-2" gradientUnits="userSpaceOnUse" cx="543.003" cy="754.23" r="137.481">
      <stop offset="0" style="stop-color: #bada55"/>
      <stop offset="1" style="stop-color: #758d29"/>
    </radialGradient>
    <radialGradient id="gradient-3" gradientUnits="userSpaceOnUse" cx="547.062" cy="1002.29" r="146.97">
      <stop offset="0" style="stop-color: #bada55"/>
      <stop offset="1" style="stop-color: #758d29"/>
    </radialGradient>
    <radialGradient id="gradient-4" gradientUnits="userSpaceOnUse" cx="560.694" cy="1031.835" r="146.474">
      <stop offset="0" style="stop-color: #bada55"/>
      <stop offset="1" style="stop-color: #758d29"/>
    </radialGradient>
    <radialGradient id="gradient-5" gradientUnits="userSpaceOnUse" cx="442.708" cy="700.378" r="24.951">
      <stop offset="0" style="stop-color: #bada55"/>
      <stop offset="1" style="stop-color: #758d29"/>
    </radialGradient>
    <radialGradient id="gradient-6" gradientUnits="userSpaceOnUse" cx="494.188" cy="942.373" r="91.272">
      <stop offset="0" style="stop-color: #bada55"/>
      <stop offset="1" style="stop-color: #758d29"/>
    </radialGradient>
    <radialGradient id="gradient-7" gradientUnits="userSpaceOnUse" cx="417.56" cy="788.991" r="0.422">
      <stop offset="0" style="stop-color: #bada55"/>
      <stop offset="1" style="stop-color: #758d29"/>
    </radialGradient>
    <radialGradient id="gradient-8" gradientUnits="userSpaceOnUse" cx="417.695" cy="867.189" r="0.345">
      <stop offset="0" style="stop-color: #bada55"/>
      <stop offset="1" style="stop-color: #758d29"/>
    </radialGradient>
    <radialGradient id="gradient-9" gradientUnits="userSpaceOnUse" cx="397.49" cy="1227.437" r="0.47">
      <stop offset="0" style="stop-color: #bada55"/>
      <stop offset="1" style="stop-color: #758d29"/>
    </radialGradient>
    <radialGradient id="gradient-10" gradientUnits="userSpaceOnUse" cx="512.736" cy="671.83" r="96.614">
      <stop offset="0" style="stop-color: #bada55"/>
      <stop offset="1" style="stop-color: #758d29"/>
    </radialGradient>
    <radialGradient id="gradient-11" gradientUnits="userSpaceOnUse" cx="573.67" cy="589.648" r="64.84">
      <stop offset="0" style="stop-color: #bada55"/>
      <stop offset="1" style="stop-color: #758d29"/>
    </radialGradient>
    <radialGradient id="gradient-12" gradientUnits="userSpaceOnUse" cx="548.761" cy="772.702" r="137.206">
      <stop offset="0" style="stop-color: #bada55"/>
      <stop offset="1" style="stop-color: #758d29"/>
    </radialGradient>
    <radialGradient id="gradient-13" gradientUnits="userSpaceOnUse" cx="547.062" cy="1002.29" r="146.97">
      <stop offset="0" style="stop-color: #bada55"/>
      <stop offset="1" style="stop-color: #758d29"/>
    </radialGradient>
    <radialGradient id="gradient-14" gradientUnits="userSpaceOnUse" cx="563.001" cy="1214.621" r="159.091">
      <stop offset="0" style="stop-color: #bada55"/>
      <stop offset="1" style="stop-color: #758d29"/>
    </radialGradient>
    <radialGradient id="gradient-15" gradientUnits="userSpaceOnUse" cx="442.708" cy="700.378" r="24.951">
      <stop offset="0" style="stop-color: #bada55"/>
      <stop offset="1" style="stop-color: #758d29"/>
    </radialGradient>
    <radialGradient id="gradient-16" gradientUnits="userSpaceOnUse" cx="494.188" cy="942.374" r="91.272">
      <stop offset="0" style="stop-color: #bada55"/>
      <stop offset="1" style="stop-color: #758d29"/>
    </radialGradient>
    <radialGradient id="gradient-17" gradientUnits="userSpaceOnUse" cx="417.56" cy="788.991" r="0.422">
      <stop offset="0" style="stop-color: #bada55"/>
      <stop offset="1" style="stop-color: #758d29"/>
    </radialGradient>
    <radialGradient id="gradient-18" gradientUnits="userSpaceOnUse" cx="417.695" cy="867.189" r="0.345">
      <stop offset="0" style="stop-color: #bada55"/>
      <stop offset="1" style="stop-color: #758d29"/>
    </radialGradient>
    <radialGradient id="gradient-19" gradientUnits="userSpaceOnUse" cx="397.49" cy="1227.437" r="0.47">
      <stop offset="0" style="stop-color: #bada55"/>
      <stop offset="1" style="stop-color: #758d29"/>
    </radialGradient>
    <radialGradient id="gradient-40" gradientUnits="userSpaceOnUse" cx="512.736" cy="671.83" r="96.614">
      <stop offset="0" style="stop-color: rgba(207, 85, 218, 1)"/>
      <stop offset="1" style="stop-color: rgba(154, 36, 165, 1)"/>
    </radialGradient>
    <radialGradient id="gradient-41" gradientUnits="userSpaceOnUse" cx="573.67" cy="586.57" r="64.84">
      <stop offset="0" style="stop-color: rgba(207, 85, 218, 1)"/>
      <stop offset="1" style="stop-color: rgba(154, 36, 165, 1)"/>
    </radialGradient>
    <radialGradient id="gradient-42" gradientUnits="userSpaceOnUse" cx="543.003" cy="754.23" r="137.481">
      <stop offset="0" style="stop-color: rgba(207, 85, 218, 1)"/>
      <stop offset="1" style="stop-color: rgba(154, 36, 165, 1)"/>
    </radialGradient>
    <radialGradient id="gradient-43" gradientUnits="userSpaceOnUse" cx="547.062" cy="1002.29" r="146.97">
      <stop offset="0" style="stop-color: rgba(207, 85, 218, 1)"/>
      <stop offset="1" style="stop-color: rgba(154, 36, 165, 1)"/>
    </radialGradient>
    <radialGradient id="gradient-44" gradientUnits="userSpaceOnUse" cx="574.04" cy="1029.895" r="159.82">
      <stop offset="0" style="stop-color: rgba(207, 85, 218, 1)"/>
      <stop offset="1" style="stop-color: rgba(154, 36, 165, 1)"/>
    </radialGradient>
    <radialGradient id="gradient-45" gradientUnits="userSpaceOnUse" cx="442.708" cy="697.585" r="24.951">
      <stop offset="0" style="stop-color: rgba(207, 85, 218, 1)"/>
      <stop offset="1" style="stop-color: rgba(154, 36, 165, 1)"/>
    </radialGradient>
    <radialGradient id="gradient-46" gradientUnits="userSpaceOnUse" cx="494.188" cy="940.203" r="91.272">
      <stop offset="0" style="stop-color: rgba(207, 85, 218, 1)"/>
      <stop offset="1" style="stop-color: rgba(154, 36, 165, 1)"/>
    </radialGradient>
    <radialGradient id="gradient-47" gradientUnits="userSpaceOnUse" cx="417.56" cy="786.425" r="0.422">
      <stop offset="0" style="stop-color: rgba(207, 85, 218, 1)"/>
      <stop offset="1" style="stop-color: rgba(154, 36, 165, 1)"/>
    </radialGradient>
    <radialGradient id="gradient-48" gradientUnits="userSpaceOnUse" cx="417.695" cy="864.825" r="0.345">
      <stop offset="0" style="stop-color: rgba(207, 85, 218, 1)"/>
      <stop offset="1" style="stop-color: rgba(154, 36, 165, 1)"/>
    </radialGradient>
    <radialGradient id="gradient-49" gradientUnits="userSpaceOnUse" cx="397.49" cy="1226" r="0.47">
      <stop offset="0" style="stop-color: rgba(207, 85, 218, 1)"/>
      <stop offset="1" style="stop-color: rgba(154, 36, 165, 1)"/>
    </radialGradient>
    <radialGradient id="gradient-50" gradientUnits="userSpaceOnUse" cx="512.736" cy="671.83" r="96.614">
      <stop offset="0" style="stop-color: rgba(207, 85, 218, 1)"/>
      <stop offset="1" style="stop-color: rgba(154, 36, 165, 1)"/>
    </radialGradient>
    <radialGradient id="gradient-51" gradientUnits="userSpaceOnUse" cx="573.67" cy="586.57" r="64.84">
      <stop offset="0" style="stop-color: rgba(207, 85, 218, 1)"/>
      <stop offset="1" style="stop-color: rgba(154, 36, 165, 1)"/>
    </radialGradient>
    <radialGradient id="gradient-52" gradientUnits="userSpaceOnUse" cx="548.761" cy="772.702" r="137.206">
      <stop offset="0" style="stop-color: rgba(207, 85, 218, 1)"/>
      <stop offset="1" style="stop-color: rgba(154, 36, 165, 1)"/>
    </radialGradient>
    <radialGradient id="gradient-53" gradientUnits="userSpaceOnUse" cx="547.062" cy="1002.29" r="146.97">
      <stop offset="0" style="stop-color: rgba(207, 85, 218, 1)"/>
      <stop offset="1" style="stop-color: rgba(154, 36, 165, 1)"/>
    </radialGradient>
    <radialGradient id="gradient-54" gradientUnits="userSpaceOnUse" cx="574.04" cy="1041.673" r="159.82">
      <stop offset="0" style="stop-color: rgba(207, 85, 218, 1)"/>
      <stop offset="1" style="stop-color: rgba(154, 36, 165, 1)"/>
    </radialGradient>
    <radialGradient id="gradient-55" gradientUnits="userSpaceOnUse" cx="442.708" cy="697.585" r="24.951">
      <stop offset="0" style="stop-color: rgba(207, 85, 218, 1)"/>
      <stop offset="1" style="stop-color: rgba(154, 36, 165, 1)"/>
    </radialGradient>
    <radialGradient id="gradient-56" gradientUnits="userSpaceOnUse" cx="494.188" cy="940.203" r="91.272">
      <stop offset="0" style="stop-color: rgba(207, 85, 218, 1)"/>
      <stop offset="1" style="stop-color: rgba(154, 36, 165, 1)"/>
    </radialGradient>
    <radialGradient id="gradient-57" gradientUnits="userSpaceOnUse" cx="417.56" cy="786.425" r="0.422">
      <stop offset="0" style="stop-color: rgba(207, 85, 218, 1)"/>
      <stop offset="1" style="stop-color: rgba(154, 36, 165, 1)"/>
    </radialGradient>
    <radialGradient id="gradient-58" gradientUnits="userSpaceOnUse" cx="417.695" cy="864.825" r="0.345">
      <stop offset="0" style="stop-color: rgba(207, 85, 218, 1)"/>
      <stop offset="1" style="stop-color: rgba(154, 36, 165, 1)"/>
    </radialGradient>
    <radialGradient id="gradient-59" gradientUnits="userSpaceOnUse" cx="397.49" cy="1226" r="0.47">
      <stop offset="0" style="stop-color: rgba(207, 85, 218, 1)"/>
      <stop offset="1" style="stop-color: rgba(154, 36, 165, 1)"/>
    </radialGradient>
  </defs>
  <g transform="matrix(0.011121, -0.238419, 0.055392, 0.027691, 191.692627, 878.25708)">
    <path d="m609.35 475.37c-17.33 39.62-44.58 80.73-62.53 122.44-6.19 13.03-8.38 27.87-17.64 39.38-27.27 45.63-35.96 98.97-53.44 148.54-12.93 30.02-22.79 65.69-53.32 82.56 3.25-23.65-16.83-49.47 1.57-70.37 19.44-65.1 26.57-134.38 55.61-196.33 15.55-16.07 23.02-37.59 32.51-57.37 12.53-9.39 26.97-17.27 34.89-31.48 12.61-1.66 24.75-5.76 35.94-11.76 10.05-6.93 12.91-23.25 26.41-25.61z" style="stroke: rgb(0, 0, 0); stroke-width: 2.7004; fill: url(#gradient-40);"/>
    <path d="m618.42 476.24c7.96 0.99 15.27 8.44 20.09 13.59-46.42 66.92-94.54 133.44-129.68 207.07 14.38-42.02 38.95-79.9 53.04-121.98 20.23-32.1 35.09-67.47 56.55-98.68z" style="stroke: rgb(0, 0, 0); stroke-width: 2.7004; fill: url(#gradient-41);"/>
    <path d="m643.41 493.36c14.74 11.3 29.43 28.2 36.44 46.68 2.39 4.31-2.65 7.99-4.08 11.71-21.3 31.73-50.89 57.83-67.01 93-29 41.17-48.79 89.7-70.31 135.7-11.07 25.59-24.18 50.49-31.45 77.55-11.47 39.58-18.42 81.91-42.85 116.15-10.82 14.63-22.38 29.05-36.31 40.95-4.71-22.07-2.39-45.79-12.24-66.73-4.12-18.63-8.73-37.38-9.7-56.51-3.25-13.36 15.35-12.79 21.8-20.13 42.23-31.65 48.11-87.87 69.35-132.7 5.37-20.79 15.93-39.94 26.57-58.42 30.25-68.15 75.74-127.7 119.79-187.25z" style="stroke: rgb(0, 0, 0); stroke-width: 2.7004; fill: url(#gradient-42);"/>
    <path d="m600.25 670.26c18.22-46.29 53.38-81.98 83.84-120.28 8.15 3.15 12.28 13.68 8.57 21.64-41.18 115.88-70.96 235.46-97.53 355.5-11.1 39.12-16.46 79.28-20.31 119.68-1.2 6-2.44 12-2.52 18.2-10.16 67.5-28.79 133.3-43.29 200-18.84 59.4-47.83 115.6-86.46 164.6-12.21 6.1-17.55 22.3-31.26 25-21.84-62.4-3.88-129.7-10.05-193.9-0.66-26.2 0.07-52.4-0.36-78.5 16.31 18.5 38.64 0.4 51.07-13.2 19.31-25.2 26.77-56.8 36.65-86.4 37.74-137.25 59.67-279.29 111.65-412.34z" style="stroke: rgb(0, 0, 0); stroke-width: 2.7004; fill: url(#gradient-43);"/>
    <path d="m687.23 602.24c3.8-8.18 3.24-19.3 10.79-25.35 13.22 11.09 24.53 25.76 35.84 37.99-33.21 57-55.27 119.38-76.38 181.6-18.86 56.31-30.03 114.94-33.84 174.2-12.74 137.82-12.24 277.12-36.08 413.82-4.07 11.9-4.9 29.6-19.51 33.6-50.13 20.3-111.68 22.6-149.96 64.8-3.11-7.3-2.07-15.7-3.87-23.4 34.65-18.9 51.46-56.1 73.01-87.3 52.38-81.6 58.42-180.7 82.94-272.2 0.68-11.7 4.03-23.3 2.13-35 0.08-6.2 1.32-12.2 2.52-18.2 15.35-93.29 38.44-185.25 60.87-277.1 12.81-57.12 32.65-112.21 51.54-167.46z" style="stroke: rgb(0, 0, 0); stroke-width: 2.7004; fill: url(#gradient-44);"/>
    <path d="m466.46 614.53c3.37-2.87-1.57 5.66-0.29 5.49-18.38 52.61-25.75 108.34-43.12 161.21-5.52-50.02-8.47-101.3 0.06-151.17 15.77 4.81 31.68-5.84 43.35-15.53z" style="stroke: rgb(0, 0, 0); stroke-width: 2.7004; fill: url(#gradient-45);"/>
    <path d="m585.46 694.43c-1.84 10.73-9.58 27.5-12.58 40.47-34.93 108.85-52.83 222.17-83.9 332.1-9.35 31.5-15.99 64.8-34.27 92.7-8.54 10.5-17.71 22.3-31.5 25.7-10.84 3.3-22.39-8.2-19.97-19 5.27-40.3 5.35-81 9.68-121.4 0.13-8.7 8.03-14 12.31-20.8 32-32.76 62.26-70.93 72.21-116.75 12.2-37.78 20.19-77.93 41.04-112 11.95-35.19 27.04-69.97 46.98-101.02z" style="stroke: rgb(0, 0, 0); stroke-width: 2.7004; fill: url(#gradient-46);"/>
    <path d="m417.31 775.79c1.02 7.04 0.81 14.21-0.16 21.27-0.05-7.09 0.07-14.2 0.16-21.27z" style="stroke: rgb(0, 0, 0); stroke-width: 2.7004; fill: url(#gradient-47);"/>
    <path d="m417.38 858.96c0.68 3.89 1.07 7.83-0.03 11.73 0.04-3.93 0.06-7.84 0.03-11.73z" style="stroke: rgb(0, 0, 0); stroke-width: 2.7004; fill: url(#gradient-48);"/>
    <path d="m397.32 1214.7c0.87 7.5 0.67 15 0.45 22.6-1.16-7.5-0.69-15.1-0.45-22.6z" style="stroke: rgb(0, 0, 0); stroke-width: 2.7004; fill: url(#gradient-49);"/>
    <path d="m609.35 475.37c-17.33 39.62-44.58 80.73-62.53 122.44-6.19 13.03-8.38 27.87-17.64 39.38-27.27 45.63-35.96 98.97-53.44 148.54-12.93 30.02-22.79 65.69-53.32 82.56 3.25-23.65-16.83-49.47 1.57-70.37 19.44-65.1 26.57-134.38 55.61-196.33 15.55-16.07 23.02-37.59 32.51-57.37 12.53-9.39 26.97-17.27 34.89-31.48 12.61-1.66 24.75-5.76 35.94-11.76 10.05-6.93 12.91-23.25 26.41-25.61z" style="stroke: rgb(0, 0, 0); stroke-width: 2.7004; fill: url(#gradient-50);"/>
    <path d="m618.42 476.24c7.96 0.99 15.27 8.44 20.09 13.59-46.42 66.92-94.54 133.44-129.68 207.07 14.38-42.02 38.95-79.9 53.04-121.98 20.23-32.1 35.09-67.47 56.55-98.68z" style="stroke: rgb(0, 0, 0); stroke-width: 2.7004; fill: url(#gradient-51);"/>
    <path d="M 649.443 511.832 C 664.183 523.132 678.873 540.032 685.883 558.512 C 688.273 562.822 638.682 556.12 637.252 559.84 C 652.616 589.607 630.913 628.052 614.793 663.222 C 585.793 704.392 566.003 752.922 544.483 798.922 C 533.413 824.512 520.303 849.412 513.033 876.472 C 501.563 916.052 494.613 958.382 470.183 992.622 C 459.363 1007.252 447.803 1021.672 433.873 1033.572 C 429.163 1011.502 431.483 987.782 421.633 966.842 C 417.513 948.212 412.903 929.462 411.933 910.332 C 408.683 896.972 427.283 897.542 433.733 890.202 C 475.963 858.552 481.843 802.332 503.083 757.502 C 508.453 736.712 519.013 717.562 529.653 699.082 C 559.903 630.932 605.393 571.382 649.443 511.832 Z" style="stroke: rgb(0, 0, 0); stroke-width: 2.7004; fill: url(#gradient-52);"/>
    <path d="m600.25 670.26c18.22-46.29 53.38-81.98 83.84-120.28 8.15 3.15 12.28 13.68 8.57 21.64-41.18 115.88-70.96 235.46-97.53 355.5-11.1 39.12-16.46 79.28-20.31 119.68-1.2 6-2.44 12-2.52 18.2-10.16 67.5-28.79 133.3-43.29 200-18.84 59.4-47.83 115.6-86.46 164.6-12.21 6.1-17.55 22.3-31.26 25-21.84-62.4-3.88-129.7-10.05-193.9-0.66-26.2 0.07-52.4-0.36-78.5 16.31 18.5 38.64 0.4 51.07-13.2 19.31-25.2 26.77-56.8 36.65-86.4 37.74-137.25 59.67-279.29 111.65-412.34z" style="stroke: rgb(0, 0, 0); stroke-width: 2.7004; fill: url(#gradient-53);"/>
    <path d="M 687.23 602.24 C 691.03 594.06 693.169 616.84 700.719 610.79 C 713.939 621.88 722.55 602.65 733.86 614.88 C 700.65 671.88 678.59 734.26 657.48 796.48 C 638.62 852.79 627.45 911.42 623.64 970.68 C 610.9 1108.5 611.4 1247.8 587.56 1384.5 C 583.49 1396.4 582.66 1414.1 568.05 1418.1 C 517.92 1438.4 456.37 1440.7 418.09 1482.9 C 414.98 1475.6 416.02 1467.2 414.22 1459.5 C 448.87 1440.6 465.68 1403.4 487.23 1372.2 C 539.61 1290.6 545.65 1191.5 570.17 1100 C 570.85 1088.3 574.2 1076.7 572.3 1065 C 572.38 1058.8 573.62 1052.8 574.82 1046.8 C 590.17 953.51 613.26 861.55 635.69 769.7 C 648.5 712.58 668.34 657.49 687.23 602.24 L 687.23 602.24 Z" style="stroke: rgb(0, 0, 0); stroke-width: 2.7004; fill: url(#gradient-54);"/>
    <path d="m466.46 614.53c3.37-2.87-1.57 5.66-0.29 5.49-18.38 52.61-25.75 108.34-43.12 161.21-5.52-50.02-8.47-101.3 0.06-151.17 15.77 4.81 31.68-5.84 43.35-15.53z" style="stroke: rgb(0, 0, 0); stroke-width: 2.7004; fill: url(#gradient-55);"/>
    <path d="m585.46 694.43c-1.84 10.73-9.58 27.5-12.58 40.47-34.93 108.85-52.83 222.17-83.9 332.1-9.35 31.5-15.99 64.8-34.27 92.7-8.54 10.5-17.71 22.3-31.5 25.7-10.84 3.3-22.39-8.2-19.97-19 5.27-40.3 5.35-81 9.68-121.4 0.13-8.7 8.03-14 12.31-20.8 32-32.76 62.26-70.93 72.21-116.75 12.2-37.78 20.19-77.93 41.04-112 11.95-35.19 27.04-69.97 46.98-101.02z" style="stroke: rgb(0, 0, 0); stroke-width: 2.7004; fill: url(#gradient-56);"/>
    <path d="m417.31 775.79c1.02 7.04 0.81 14.21-0.16 21.27-0.05-7.09 0.07-14.2 0.16-21.27z" style="stroke: rgb(0, 0, 0); stroke-width: 2.7004; fill: url(#gradient-57);"/>
    <path d="m417.38 858.96c0.68 3.89 1.07 7.83-0.03 11.73 0.04-3.93 0.06-7.84 0.03-11.73z" style="stroke: rgb(0, 0, 0); stroke-width: 2.7004; fill: url(#gradient-58);"/>
    <path d="m397.32 1214.7c0.87 7.5 0.67 15 0.45 22.6-1.16-7.5-0.69-15.1-0.45-22.6z" style="stroke: rgb(0, 0, 0); stroke-width: 2.7004; fill: url(#gradient-59);"/>
  </g>
  <g transform="matrix(-0.171641, -0.13504, 0.009355, -0.031651, 325.627777, 803.789246)">
    <path d="m609.35 475.37c-17.33 39.62-44.58 80.73-62.53 122.44-6.19 13.03-8.38 27.87-17.64 39.38-27.27 45.63-35.96 98.97-53.44 148.54-12.93 30.02-22.79 65.69-53.32 82.56 3.25-23.65-16.83-49.47 1.57-70.37 19.44-65.1 26.57-134.38 55.61-196.33 15.55-16.07 23.02-37.59 32.51-57.37 12.53-9.39 26.97-17.27 34.89-31.48 12.61-1.66 24.75-5.76 35.94-11.76 10.05-6.93 12.91-23.25 26.41-25.61z" style="stroke: rgb(0, 0, 0); stroke-width: 2.7004; fill: url(#gradient-0);"/>
    <path d="M 618.42 479.601 C 626.38 480.589 633.69 488.02 638.51 493.157 C 592.09 559.905 543.97 626.254 508.83 699.695 C 523.21 657.783 547.78 620 561.87 578.028 C 582.1 546.011 596.96 510.731 618.42 479.601 Z" style="stroke: rgb(0, 0, 0); stroke-width: 2.7004; fill: url(#gradient-1);" transform="matrix(1, 0.000001, 0, 1, 0.000043, -0.000574)"/>
    <path d="m643.41 493.36c14.74 11.3 29.43 28.2 36.44 46.68 2.39 4.31-2.65 7.99-4.08 11.71-21.3 31.73-50.89 57.83-67.01 93-29 41.17-48.79 89.7-70.31 135.7-11.07 25.59-24.18 50.49-31.45 77.55-11.47 39.58-18.42 81.91-42.85 116.15-10.82 14.63-22.38 29.05-36.31 40.95-4.71-22.07-2.39-45.79-12.24-66.73-4.12-18.63-8.73-37.38-9.7-56.51-3.25-13.36 15.35-12.79 21.8-20.13 42.23-31.65 48.11-87.87 69.35-132.7 5.37-20.79 15.93-39.94 26.57-58.42 30.25-68.15 75.74-127.7 119.79-187.25z" style="stroke: rgb(0, 0, 0); stroke-width: 2.7004; fill: url(#gradient-2);"/>
    <path d="m600.25 670.26c18.22-46.29 53.38-81.98 83.84-120.28 8.15 3.15 12.28 13.68 8.57 21.64-41.18 115.88-70.96 235.46-97.53 355.5-11.1 39.12-16.46 79.28-20.31 119.68-1.2 6-2.44 12-2.52 18.2-10.16 67.5-28.79 133.3-43.29 200-18.84 59.4-47.83 115.6-86.46 164.6-12.21 6.1-17.55 22.3-31.26 25-21.84-62.4-3.88-129.7-10.05-193.9-0.66-26.2 0.07-52.4-0.36-78.5 16.31 18.5 38.64 0.4 51.07-13.2 19.31-25.2 26.77-56.8 36.65-86.4 37.74-137.25 59.67-279.29 111.65-412.34z" style="stroke: rgb(0, 0, 0); stroke-width: 2.7004; fill: url(#gradient-3);"/>
    <path d="M 687.23 605.278 C 691.03 597.119 690.47 586.027 698.02 579.993 C 711.24 591.054 695.858 641.757 707.168 653.956 C 673.958 710.809 678.59 736.959 657.48 799.019 C 638.62 855.185 627.45 913.664 623.64 972.772 C 610.9 1110.239 647.471 1056.918 623.631 1193.267 C 619.561 1205.136 622.827 1166.604 580.007 1310.022 C 529.877 1330.27 456.37 1441.586 418.09 1483.678 C 414.98 1476.397 416.02 1468.018 414.22 1460.338 C 448.87 1441.486 465.68 1404.382 487.23 1373.262 C 539.61 1291.871 545.65 1193.026 570.17 1101.76 C 570.85 1090.091 574.2 1078.52 572.3 1066.85 C 572.38 1060.666 573.62 1054.682 574.82 1048.697 C 590.17 955.646 613.26 863.922 635.69 772.308 C 648.5 715.335 668.34 660.386 687.23 605.278 L 687.23 605.278 Z" style="stroke: rgb(0, 0, 0); stroke-width: 2.7004; fill: url(#gradient-4);"/>
    <path d="M 466.46 617.537 C 469.83 614.674 464.89 623.182 466.17 623.012 C 447.79 675.487 440.42 731.074 423.05 783.809 C 417.53 733.917 414.58 682.769 423.11 633.027 C 438.88 637.824 454.79 627.202 466.46 617.537 Z" style="stroke: rgb(0, 0, 0); stroke-width: 2.7004; fill: url(#gradient-5);" transform="matrix(1, -0.000005, 0, 1, -0.000196, 0.002318)"/>
    <path d="M 585.46 697.231 C 583.62 707.934 575.88 724.661 572.88 737.598 C 537.95 846.168 520.05 959.197 488.98 1068.845 C 479.63 1100.264 472.99 1133.479 454.71 1161.307 C 446.17 1171.78 437 1183.55 423.21 1186.941 C 412.37 1190.233 400.82 1178.762 403.24 1167.99 C 408.51 1127.794 408.59 1087.198 412.92 1046.902 C 413.05 1038.224 420.95 1032.938 425.23 1026.155 C 457.23 993.479 487.49 955.407 497.44 909.705 C 509.64 872.022 517.63 831.975 538.48 797.992 C 550.43 762.893 565.52 728.202 585.46 697.231 Z" style="stroke: rgb(0, 0, 0); stroke-width: 2.7004; fill: url(#gradient-6);" transform="matrix(1, -0.000005, 0, 1, -0.000237, 0.002631)"/>
    <path d="M 417.31 778.383 C 418.33 785.405 418.12 792.556 417.15 799.598 C 417.1 792.526 417.22 785.435 417.31 778.383 Z" style="stroke: rgb(0, 0, 0); stroke-width: 2.7004; fill: url(#gradient-7);"/>
    <path d="M 417.38 861.339 C 418.06 865.219 418.45 869.149 417.35 873.039 C 417.39 869.119 417.41 865.219 417.38 861.339 Z" style="stroke: rgb(0, 0, 0); stroke-width: 2.7004; fill: url(#gradient-8);" transform="matrix(1, -0.000005, 0, 1, -0.000208, 0.002243)"/>
    <path d="M 397.32 1216.166 C 398.19 1223.647 397.99 1231.128 397.77 1238.708 C 396.61 1231.227 397.08 1223.647 397.32 1216.166 Z" style="stroke: rgb(0, 0, 0); stroke-width: 2.7004; fill: url(#gradient-9);"/>
    <path d="m609.35 475.37c-17.33 39.62-44.58 80.73-62.53 122.44-6.19 13.03-8.38 27.87-17.64 39.38-27.27 45.63-35.96 98.97-53.44 148.54-12.93 30.02-22.79 65.69-53.32 82.56 3.25-23.65-16.83-49.47 1.57-70.37 19.44-65.1 26.57-134.38 55.61-196.33 15.55-16.07 23.02-37.59 32.51-57.37 12.53-9.39 26.97-17.27 34.89-31.48 12.61-1.66 24.75-5.76 35.94-11.76 10.05-6.93 12.91-23.25 26.41-25.61z" style="stroke: rgb(0, 0, 0); stroke-width: 2.7004; fill: url(#gradient-10);"/>
    <path d="M 618.42 479.601 C 626.38 480.589 633.69 488.02 638.51 493.157 C 592.09 559.905 543.97 626.254 508.83 699.695 C 523.21 657.783 547.78 620 561.87 578.028 C 582.1 546.011 596.96 510.731 618.42 479.601 Z" style="stroke: rgb(0, 0, 0); stroke-width: 2.7004; fill: url(#gradient-11);" transform="matrix(1, 0.000001, 0, 1, 0.000043, -0.000574)"/>
    <path d="M 649.443 511.832 C 664.183 523.132 678.873 540.032 685.883 558.512 C 688.273 562.822 638.682 556.12 637.252 559.84 C 652.616 589.607 630.913 628.052 614.793 663.222 C 585.793 704.392 566.003 752.922 544.483 798.922 C 533.413 824.512 520.303 849.412 513.033 876.472 C 501.563 916.052 494.613 958.382 470.183 992.622 C 459.363 1007.252 447.803 1021.672 433.873 1033.572 C 429.163 1011.502 431.483 987.782 421.633 966.842 C 417.513 948.212 412.903 929.462 411.933 910.332 C 408.683 896.972 427.283 897.542 433.733 890.202 C 475.963 858.552 481.843 802.332 503.083 757.502 C 508.453 736.712 519.013 717.562 529.653 699.082 C 559.903 630.932 605.393 571.382 649.443 511.832 Z" style="stroke: rgb(0, 0, 0); stroke-width: 2.7004; fill: url(#gradient-12);"/>
    <path d="m600.25 670.26c18.22-46.29 53.38-81.98 83.84-120.28 8.15 3.15 12.28 13.68 8.57 21.64-41.18 115.88-70.96 235.46-97.53 355.5-11.1 39.12-16.46 79.28-20.31 119.68-1.2 6-2.44 12-2.52 18.2-10.16 67.5-28.79 133.3-43.29 200-18.84 59.4-47.83 115.6-86.46 164.6-12.21 6.1-17.55 22.3-31.26 25-21.84-62.4-3.88-129.7-10.05-193.9-0.66-26.2 0.07-52.4-0.36-78.5 16.31 18.5 38.64 0.4 51.07-13.2 19.31-25.2 26.77-56.8 36.65-86.4 37.74-137.25 59.67-279.29 111.65-412.34z" style="stroke: rgb(0, 0, 0); stroke-width: 2.7004; fill: url(#gradient-13);"/>
    <path d="M 651.818 678.46 C 655.618 670.301 686.167 688.399 693.717 682.365 C 706.937 693.426 702.532 632.739 713.842 644.938 C 680.632 701.792 723.903 865.774 722.033 931.282 C 709.588 1367.121 651.034 755.16 647.224 814.268 C 634.484 951.735 725.627 782.455 692.279 1269.342 C 688.209 1281.212 655.862 1181.057 618.656 1164.929 C 583.519 869.438 456.37 1441.586 418.09 1483.678 C 414.98 1476.396 405.71 1279.338 403.91 1271.657 C 429.123 1932.493 363.802 1868.219 472.896 1569.92 C 580.722 1275.088 593.349 951.281 617.869 860.016 C 618.549 848.346 616.944 877.239 615.044 865.569 C 615.124 859.385 633.476 838.718 634.676 832.734 C 650.026 739.683 613.26 863.923 635.69 772.308 C 648.5 715.335 656.383 769.409 675.273 714.301 L 651.818 678.46 Z" style="stroke: rgb(0, 0, 0); stroke-width: 2.7004; fill: url(#gradient-14);"/>
    <path d="M 466.46 617.537 C 469.83 614.674 464.89 623.182 466.17 623.013 C 447.79 675.487 440.42 731.074 423.05 783.809 C 417.53 733.917 414.58 682.769 423.11 633.027 C 438.88 637.824 454.79 627.202 466.46 617.537 Z" style="stroke: rgb(0, 0, 0); stroke-width: 2.7004; fill: url(#gradient-15);" transform="matrix(1, -0.000005, 0, 1, -0.000196, 0.002318)"/>
    <path d="M 585.46 697.232 C 583.62 707.934 575.88 724.661 572.88 737.598 C 537.95 846.168 520.05 959.198 488.98 1068.845 C 479.63 1100.264 472.99 1133.479 454.71 1161.307 C 446.17 1171.78 437 1183.55 423.21 1186.941 C 412.37 1190.233 400.82 1178.762 403.24 1167.99 C 408.51 1127.793 408.59 1087.198 412.92 1046.901 C 413.05 1038.224 420.95 1032.937 425.23 1026.155 C 457.23 993.479 487.49 955.407 497.44 909.705 C 509.64 872.022 517.63 831.975 538.48 797.992 C 550.43 762.893 565.52 728.202 585.46 697.232 Z" style="stroke: rgb(0, 0, 0); stroke-width: 2.7004; fill: url(#gradient-16);"/>
    <path d="M 417.31 778.383 C 418.33 785.405 418.12 792.556 417.15 799.598 C 417.1 792.526 417.22 785.435 417.31 778.383 Z" style="stroke: rgb(0, 0, 0); stroke-width: 2.7004; fill: url(#gradient-17);"/>
    <path d="M 417.38 861.339 C 418.06 865.219 418.45 869.149 417.35 873.039 C 417.39 869.119 417.41 865.219 417.38 861.339 Z" style="stroke: rgb(0, 0, 0); stroke-width: 2.7004; fill: url(#gradient-18);" transform="matrix(1, -0.000005, 0, 1, -0.000208, 0.002243)"/>
    <path d="M 397.32 1216.166 C 398.19 1223.647 397.99 1231.128 397.77 1238.708 C 396.61 1231.228 397.08 1223.647 397.32 1216.166 Z" style="stroke: rgb(0, 0, 0); stroke-width: 2.7004; fill: url(#gradient-19);"/>
  </g>
  <rect transform="matrix(NaN, NaN, NaN, NaN, NaN, NaN)" style="fill: url(#pattern-0-41);"/>
</svg>