<svg class="shirtOverlay" width="86" height="380" viewBox="202.715 584.407 86.593 380.048" preserveAspectRatio="xMidYMax" xmlns="http://www.w3.org/2000/svg" xmlns:xlink="http://www.w3.org/1999/xlink"><defs><pattern id="b" patternTransform="translate(235.922 771.943)" xlink:href="#a"/><pattern id="a" width="20" height="20" patternUnits="userSpaceOnUse" viewBox="0 0 100 100"><path fill="#ffceb1" d="M-.664-1.212H101.46v101.273H-.664z"/><path transform="matrix(1.3965 -.551 .5736 1.34148 -512.803 -723.971)" opacity=".387" fill="#ff7f2a" d="M116.28 607.24h52.636v54.483H116.28z"/><g stroke="#000" stroke-width=".7" fill="none"><path d="M1894.6 607.57l3.683 2.31M1896.9 606.92l-1.228 3.466" transform="matrix(3.31369 0 0 3.18311 -6279.156 -1911.857)"/><path d="M1894.6 607.57l3.683 2.31M1896.9 606.92l-1.228 3.466" transform="matrix(3.31369 0 0 3.18311 -6264.023 -1918.947)"/><path d="M1894.6 607.57l3.683 2.31M1896.9 606.92l-1.228 3.466" transform="matrix(3.31369 0 0 3.18311 -6244.989 -1926.112)"/><path d="M1894.6 607.57l3.683 2.31M1896.9 606.92l-1.228 3.466" transform="matrix(3.31369 0 0 3.18311 -6226.192 -1933.148)"/><path d="M1894.6 607.57l3.683 2.31M1896.9 606.92l-1.228 3.466" transform="matrix(3.31369 0 0 3.18311 -6278.553 -1895.566)"/><path d="M1894.6 607.57l3.683 2.31M1896.9 606.92l-1.228 3.466" transform="matrix(3.31369 0 0 3.18311 -6266.78 -1865.365)"/><path d="M1894.6 607.57l3.683 2.31M1896.9 606.92l-1.228 3.466" transform="matrix(3.31369 0 0 3.18311 -6272.652 -1879.424)"/><path d="M1894.6 607.57l3.683 2.31M1896.9 606.92l-1.228 3.466" transform="matrix(3.31369 0 0 3.18311 -6246.732 -1841.609)"/><path d="M1894.6 607.57l3.683 2.31M1896.9 606.92l-1.228 3.466" transform="matrix(3.31369 0 0 3.18311 -6231.596 -1848.698)"/><g><path d="M1894.6 607.57l3.683 2.31M1896.9 606.92l-1.228 3.466" transform="matrix(3.31369 0 0 3.18311 -6213.596 -1854.205)"/></g><g><path d="M1894.6 607.57l3.683 2.31M1896.9 606.92l-1.228 3.466" transform="matrix(3.31369 0 0 3.18311 -6195.836 -1862.236)"/></g><g><path d="M1894.6 607.57l3.683 2.31M1896.9 606.92l-1.228 3.466" transform="matrix(3.31369 0 0 3.18311 -6204.115 -1922.213)"/></g><g><path d="M1894.6 607.57l3.683 2.31M1896.9 606.92l-1.228 3.466" transform="matrix(3.31369 0 0 3.18311 -6188.247 -1885.762)"/></g><g><path d="M1894.6 607.57l3.683 2.31M1896.9 606.92l-1.228 3.466" transform="matrix(3.31369 0 0 3.18311 -6196.526 -1903.988)"/></g><g><path d="M1894.6 607.57l3.683 2.31M1896.9 606.92l-1.228 3.466" transform="matrix(3.31369 0 0 3.18311 -6182.807 -1869.474)"/></g><g><path d="M1894.6 607.57l3.683 2.31M1896.9 606.92l-1.228 3.466" transform="matrix(3.31369 0 0 3.18311 -6211.14 -1937.09)"/></g><g><path d="M1894.6 607.57l3.683 2.31M1896.9 606.92l-1.228 3.466" transform="matrix(3.31369 0 0 3.18311 -6261.24 -1851.25)"/></g></g><path transform="matrix(1.3965 -.551 .5736 1.34148 -512.803 -723.971)" opacity=".387" fill="#b35543" d="M144.75 612.96h18.156v18.793H144.75z"/><path transform="matrix(1.3965 -.551 .5736 1.34148 -512.803 -723.971)" opacity=".387" fill="#a14936" d="M122.72 633.96h18.156v18.793H122.72z"/><path transform="matrix(1.3965 -.551 .5736 1.34148 -512.803 -723.971)" opacity=".387" fill="#ff7f2a" d="M123.5 612.61h18.156v18.793H123.5zM143.31 635.72h18.156v18.793H143.31z"/></pattern></defs><path class="clothes" fill="none" d="M202.715 584.431h86.593V700.24h-86.593z"/><path class="clothes" fill="none" d="M-403.988 499.579h1300v550h-1300z"/><path class="clothes" fill="none" d="M177.867 465.595h86.593v115.809h-86.593z"/><path class="clothes" fill="none" d="M-428.836 380.743h1300v550h-1300z"/><path d="M235.674 731.85c-26.275 48.057-24.276 55.625-23.369 64.572.769 7.59 12.396 1.942 11.07-10.455-.112-1.044-.615 10.455-.615 10.455s12.388-.089 12.914-.615c1.537-1.537-3.242-10.287-3.075-10.454 1.811-1.811 3.69 9.839 3.69 9.839s14.285-.755 14.759-1.23c2.056-2.056-3.075-11.069-3.075-11.069s5.321 15.587 11.07 9.839c1.48-1.481 14.583 1.788 14.144-.615-4.419-24.168.558-4.59 1.231-3.075 0 0-13.318 10.242 6.763 0 3.363-1.716-3.233-8.311-3.689-9.224-3.922-7.843-10.878-34.437-22.14-47.352" stroke="#000" fill="url(#b)"/></svg>