<?xml version="1.0" encoding="utf-8"?>
<svg class="shirt" width="86" height="380" viewBox="202.715 584.407 86.5933 380.048" preserveAspectRatio="xMidYMax" xmlns="http://www.w3.org/2000/svg" xmlns:xlink="http://www.w3.org/1999/xlink">
  <defs id="svgEditorDefs">
    <path id="svgEditorClosePathDefs" fill="black" style="stroke-width: 0px; stroke: none;" class="clothes"/>
    <pattern id="pattern-0" x="0" y="0" width="20" height="20" patternUnits="userSpaceOnUse" viewBox="0 0 100 100">
      <rect x="-0.664" y="-1.212" width="102.124" height="101.273" style="fill: rgb(220, 8, 248);"/>
      <g transform="matrix(1.509721, 0, 0, 1.450232, -3.45347, -6.83138)">
        <g id="layer1" transform="matrix(1, 0, 0, 1, -337.380005, -494.5)">
          <rect id="rect9425" style="opacity: 0.38683; fill: rgb(227, 255, 41);" transform="matrix(.92501 -.37994 .37994 .92501 0 0)" height="54.483" width="52.636" y="607.24" x="116.28"/>
          <g id="g9637" transform="matrix(2.1949 0 0 2.1949 -3771.5 -832.81)">
            <g id="g9639" transform="translate(-21.861 6.246)">
              <path id="path9641" style="stroke: rgb(0, 0, 0); stroke-width: 0.7; fill: rgb(227, 255, 41);" d="m1894.6 607.57 3.6829 2.3108"/>
              <path id="path9643" style="stroke: rgb(0, 0, 0); stroke-width: 0.7; fill: rgb(227, 255, 41);" d="m1896.9 606.92-1.2276 3.4663"/>
            </g>
            <g id="g9645" transform="translate(-17.294 4.0186)">
              <path id="path9647" d="m1894.6 607.57 3.6829 2.3108" style="stroke: rgb(0, 0, 0); stroke-width: 0.7; fill: rgb(227, 255, 41);"/>
              <path id="path9649" d="m1896.9 606.92-1.2276 3.4663" style="stroke: rgb(0, 0, 0); stroke-width: 0.7; fill: rgb(227, 255, 41);"/>
            </g>
            <g id="g9651" transform="translate(-11.55 1.7678)">
              <path id="path9653" style="stroke: rgb(0, 0, 0); stroke-width: 0.7; fill: rgb(227, 255, 41);" d="m1894.6 607.57 3.6829 2.3108"/>
              <path id="path9655" style="stroke: rgb(0, 0, 0); stroke-width: 0.7; fill: rgb(227, 255, 41);" d="m1896.9 606.92-1.2276 3.4663"/>
            </g>
            <g id="g9657" transform="translate(-5.8775 -.44271)">
              <path id="path9659" d="m1894.6 607.57 3.6829 2.3108" style="stroke: rgb(0, 0, 0); stroke-width: 0.7; fill: rgb(227, 255, 41);"/>
              <path id="path9661" d="m1896.9 606.92-1.2276 3.4663" style="stroke: rgb(0, 0, 0); stroke-width: 0.7; fill: rgb(227, 255, 41);"/>
            </g>
            <g id="g9663" transform="translate(-21.679 11.364)">
              <path id="path9665" style="stroke: rgb(0, 0, 0); stroke-width: 0.7; fill: rgb(227, 255, 41);" d="m1894.6 607.57 3.6829 2.3108"/>
              <path id="path9667" style="stroke: rgb(0, 0, 0); stroke-width: 0.7; fill: rgb(227, 255, 41);" d="m1896.9 606.92-1.2276 3.4663"/>
            </g>
            <g id="g9669" transform="translate(-18.126 20.852)">
              <path id="path9671" d="m1894.6 607.57 3.6829 2.3108" style="stroke: rgb(0, 0, 0); stroke-width: 0.7; fill: rgb(227, 255, 41);"/>
              <path id="path9673" d="m1896.9 606.92-1.2276 3.4663" style="stroke: rgb(0, 0, 0); stroke-width: 0.7; fill: rgb(227, 255, 41);"/>
            </g>
            <g id="g9675" transform="translate(-19.898 16.435)">
              <path id="path9677" d="m1894.6 607.57 3.6829 2.3108" style="stroke: rgb(0, 0, 0); stroke-width: 0.7; fill: rgb(227, 255, 41);"/>
              <path id="path9679" d="m1896.9 606.92-1.2276 3.4663" style="stroke: rgb(0, 0, 0); stroke-width: 0.7; fill: rgb(227, 255, 41);"/>
            </g>
            <g id="g9681" transform="translate(-12.076 28.315)">
              <path id="path9683" d="m1894.6 607.57 3.6829 2.3108" style="stroke: rgb(0, 0, 0); stroke-width: 0.7; fill: rgb(227, 255, 41);"/>
              <path id="path9685" d="m1896.9 606.92-1.2276 3.4663" style="stroke: rgb(0, 0, 0); stroke-width: 0.7; fill: rgb(227, 255, 41);"/>
            </g>
            <g id="g9687" transform="translate(-7.5084 26.088)">
              <path id="path9689" style="stroke: rgb(0, 0, 0); stroke-width: 0.7; fill: rgb(227, 255, 41);" d="m1894.6 607.57 3.6829 2.3108"/>
              <path id="path9691" style="stroke: rgb(0, 0, 0); stroke-width: 0.7; fill: rgb(227, 255, 41);" d="m1896.9 606.92-1.2276 3.4663"/>
            </g>
            <g id="g9693" transform="translate(-2.0764 24.358)">
              <path id="path9695" d="m1894.6 607.57 3.6829 2.3108" style="stroke: rgb(0, 0, 0); stroke-width: 0.7; fill: rgb(227, 255, 41);"/>
              <path id="path9697" d="m1896.9 606.92-1.2276 3.4663" style="stroke: rgb(0, 0, 0); stroke-width: 0.7; fill: rgb(227, 255, 41);"/>
            </g>
            <g id="g9699" transform="translate(3.2834 21.835)">
              <path id="path9701" style="stroke: rgb(0, 0, 0); stroke-width: 0.7; fill: rgb(227, 255, 41);" d="m1894.6 607.57 3.6829 2.3108"/>
              <path id="path9703" style="stroke: rgb(0, 0, 0); stroke-width: 0.7; fill: rgb(227, 255, 41);" d="m1896.9 606.92-1.2276 3.4663"/>
            </g>
            <g id="g9705" transform="translate(.78496 2.9926)">
              <path id="path9707" d="m1894.6 607.57 3.6829 2.3108" style="stroke: rgb(0, 0, 0); stroke-width: 0.7; fill: rgb(227, 255, 41);"/>
              <path id="path9709" d="m1896.9 606.92-1.2276 3.4663" style="stroke: rgb(0, 0, 0); stroke-width: 0.7; fill: rgb(227, 255, 41);"/>
            </g>
            <g id="g9711" transform="translate(5.5736 14.444)">
              <path id="path9713" style="stroke: rgb(0, 0, 0); stroke-width: 0.7; fill: rgb(227, 255, 41);" d="m1894.6 607.57 3.6829 2.3108"/>
              <path id="path9715" style="stroke: rgb(0, 0, 0); stroke-width: 0.7; fill: rgb(227, 255, 41);" d="m1896.9 606.92-1.2276 3.4663"/>
            </g>
            <g id="g9717" transform="translate(3.0752 8.7181)">
              <path id="path9719" style="stroke: rgb(0, 0, 0); stroke-width: 0.7; fill: rgb(227, 255, 41);" d="m1894.6 607.57 3.6829 2.3108"/>
              <path id="path9721" style="stroke: rgb(0, 0, 0); stroke-width: 0.7; fill: rgb(227, 255, 41);" d="m1896.9 606.92-1.2276 3.4663"/>
            </g>
            <g id="g9723" transform="translate(7.2152 19.561)">
              <path id="path9725" style="stroke: rgb(0, 0, 0); stroke-width: 0.7; fill: rgb(227, 255, 41);" d="m1894.6 607.57 3.6829 2.3108"/>
              <path id="path9727" style="stroke: rgb(0, 0, 0); stroke-width: 0.7; fill: rgb(227, 255, 41);" d="m1896.9 606.92-1.2276 3.4663"/>
            </g>
            <g id="g9729" transform="translate(-1.3351 -1.6814)">
              <path id="path9731" style="stroke: rgb(0, 0, 0); stroke-width: 0.7; fill: rgb(227, 255, 41);" d="m1894.6 607.57 3.6829 2.3108"/>
              <path id="path9733" style="stroke: rgb(0, 0, 0); stroke-width: 0.7; fill: rgb(227, 255, 41);" d="m1896.9 606.92-1.2276 3.4663"/>
            </g>
            <g id="g9735" transform="translate(-16.454 25.286)">
              <path id="path9737" style="stroke: rgb(0, 0, 0); stroke-width: 0.7; fill: rgb(227, 255, 41);" d="m1894.6 607.57 3.6829 2.3108"/>
              <path id="path9739" style="stroke: rgb(0, 0, 0); stroke-width: 0.7; fill: rgb(227, 255, 41);" d="m1896.9 606.92-1.2276 3.4663"/>
            </g>
          </g>
          <rect id="rect10143" style="opacity: 0.38683; fill: rgb(227, 255, 41);" transform="matrix(.92501 -.37994 .37994 .92501 0 0)" height="18.793" width="18.156" y="612.96" x="144.75"/>
          <rect id="rect10147" style="opacity: 0.38683; fill: rgb(227, 255, 41);" transform="matrix(.92501 -.37994 .37994 .92501 0 0)" height="18.793" width="18.156" y="633.96" x="122.72"/>
          <rect id="rect3999" style="opacity: 0.38683; fill: rgb(227, 255, 41);" transform="matrix(.92501 -.37994 .37994 .92501 0 0)" height="18.793" width="18.156" y="612.61" x="123.5"/>
          <rect id="rect4001" style="opacity: 0.38683; fill: rgb(227, 255, 41);" transform="matrix(.92501 -.37994 .37994 .92501 0 0)" height="18.793" width="18.156" y="635.72" x="143.31"/>
        </g>
      </g>
    </pattern>
    <pattern id="pattern-0-0" patternTransform="matrix(1, 0, 0, 1, 502.735596, 661.829956)" xlink:href="#pattern-0"/>
    <pattern id="pattern-0-1" patternTransform="matrix(1, 0, 0, 1, 563.669983, 579.64801)" xlink:href="#pattern-0"/>
    <pattern id="pattern-0-2" patternTransform="matrix(1, 0, 0, 1, 533.002747, 744.22998)" xlink:href="#pattern-0"/>
    <pattern id="pattern-0-3" patternTransform="matrix(1, 0, 0, 1, 537.062012, 992.289978)" xlink:href="#pattern-0"/>
    <pattern id="pattern-0-4" patternTransform="matrix(1, 0, 0, 1, 550.694031, 1021.835449)" xlink:href="#pattern-0"/>
    <pattern id="pattern-0-5" patternTransform="matrix(1, 0, 0, 1, 432.707764, 690.378357)" xlink:href="#pattern-0"/>
    <pattern id="pattern-0-6" patternTransform="matrix(1, 0, 0, 1, 484.187683, 932.373047)" xlink:href="#pattern-0"/>
    <pattern id="pattern-0-7" patternTransform="matrix(1, 0, 0, 1, 407.560425, 778.990479)" xlink:href="#pattern-0"/>
    <pattern id="pattern-0-8" patternTransform="matrix(1, 0, 0, 1, 407.69458, 857.188965)" xlink:href="#pattern-0"/>
    <pattern id="pattern-0-9" patternTransform="matrix(1, 0, 0, 1, 387.489655, 1217.437012)" xlink:href="#pattern-0"/>
    <pattern id="pattern-0-10" patternTransform="matrix(1, 0, 0, 1, 502.735596, 661.829956)" xlink:href="#pattern-0"/>
    <pattern id="pattern-0-11" patternTransform="matrix(1, 0, 0, 1, 563.669983, 579.64801)" xlink:href="#pattern-0"/>
    <pattern id="pattern-0-12" patternTransform="matrix(1, 0, 0, 1, 538.760864, 762.702026)" xlink:href="#pattern-0"/>
    <pattern id="pattern-0-13" patternTransform="matrix(1, 0, 0, 1, 537.062012, 992.289978)" xlink:href="#pattern-0"/>
    <pattern id="pattern-0-14" patternTransform="matrix(1, 0, 0, 1, 553.001099, 1204.62085)" xlink:href="#pattern-0"/>
    <pattern id="pattern-0-15" patternTransform="matrix(1, 0, 0, 1, 432.707764, 690.378357)" xlink:href="#pattern-0"/>
    <pattern id="pattern-0-16" patternTransform="matrix(1, 0, 0, 1, 484.187683, 932.373535)" xlink:href="#pattern-0"/>
    <pattern id="pattern-0-17" patternTransform="matrix(1, 0, 0, 1, 407.560425, 778.990479)" xlink:href="#pattern-0"/>
    <pattern id="pattern-0-18" patternTransform="matrix(1, 0, 0, 1, 407.69458, 857.188965)" xlink:href="#pattern-0"/>
    <pattern id="pattern-0-19" patternTransform="matrix(1, 0, 0, 1, 387.489655, 1217.437012)" xlink:href="#pattern-0"/>
    <pattern id="pattern-0-20" patternTransform="matrix(1, 0, 0, 1, 502.735596, 661.829956)" xlink:href="#pattern-0"/>
    <pattern id="pattern-0-21" patternTransform="matrix(1, 0, 0, 1, 563.670044, 576.570007)" xlink:href="#pattern-0"/>
    <pattern id="pattern-0-22" patternTransform="matrix(1, 0, 0, 1, 533.002747, 744.22998)" xlink:href="#pattern-0"/>
    <pattern id="pattern-0-23" patternTransform="matrix(1, 0, 0, 1, 537.062012, 992.289978)" xlink:href="#pattern-0"/>
    <pattern id="pattern-0-24" patternTransform="matrix(1, 0, 0, 1, 564.039917, 1019.89502)" xlink:href="#pattern-0"/>
    <pattern id="pattern-0-25" patternTransform="matrix(1, 0, 0, 1, 432.707764, 687.584717)" xlink:href="#pattern-0"/>
    <pattern id="pattern-0-26" patternTransform="matrix(1, 0, 0, 1, 484.187683, 930.202576)" xlink:href="#pattern-0"/>
    <pattern id="pattern-0-27" patternTransform="matrix(1, 0, 0, 1, 407.560425, 776.424988)" xlink:href="#pattern-0"/>
    <pattern id="pattern-0-28" patternTransform="matrix(1, 0, 0, 1, 407.69458, 854.825012)" xlink:href="#pattern-0"/>
    <pattern id="pattern-0-29" patternTransform="matrix(1, 0, 0, 1, 387.489685, 1216)" xlink:href="#pattern-0"/>
    <pattern id="pattern-0-30" patternTransform="matrix(1, 0, 0, 1, 502.735596, 661.829956)" xlink:href="#pattern-0"/>
    <pattern id="pattern-0-31" patternTransform="matrix(1, 0, 0, 1, 563.670044, 576.570007)" xlink:href="#pattern-0"/>
    <pattern id="pattern-0-32" patternTransform="matrix(1, 0, 0, 1, 538.760864, 762.702026)" xlink:href="#pattern-0"/>
    <pattern id="pattern-0-33" patternTransform="matrix(1, 0, 0, 1, 537.062012, 992.289978)" xlink:href="#pattern-0"/>
    <pattern id="pattern-0-34" patternTransform="matrix(1, 0, 0, 1, 564.039978, 1031.672607)" xlink:href="#pattern-0"/>
    <pattern id="pattern-0-35" patternTransform="matrix(1, 0, 0, 1, 432.707764, 687.584717)" xlink:href="#pattern-0"/>
    <pattern id="pattern-0-36" patternTransform="matrix(1, 0, 0, 1, 484.187683, 930.202576)" xlink:href="#pattern-0"/>
    <pattern id="pattern-0-37" patternTransform="matrix(1, 0, 0, 1, 407.560425, 776.424988)" xlink:href="#pattern-0"/>
    <pattern id="pattern-0-38" patternTransform="matrix(1, 0, 0, 1, 407.69458, 854.825012)" xlink:href="#pattern-0"/>
    <pattern id="pattern-0-39" patternTransform="matrix(1, 0, 0, 1, 387.489685, 1216)" xlink:href="#pattern-0"/>
  </defs>
  <g transform="matrix(0.011121, -0.238419, 0.055392, 0.027691, 191.692627, 878.25708)">
    <path d="m609.35 475.37c-17.33 39.62-44.58 80.73-62.53 122.44-6.19 13.03-8.38 27.87-17.64 39.38-27.27 45.63-35.96 98.97-53.44 148.54-12.93 30.02-22.79 65.69-53.32 82.56 3.25-23.65-16.83-49.47 1.57-70.37 19.44-65.1 26.57-134.38 55.61-196.33 15.55-16.07 23.02-37.59 32.51-57.37 12.53-9.39 26.97-17.27 34.89-31.48 12.61-1.66 24.75-5.76 35.94-11.76 10.05-6.93 12.91-23.25 26.41-25.61z" style="stroke: rgb(0, 0, 0); stroke-width: 2.7004; fill: url(#pattern-0-20);"/>
    <path d="m618.42 476.24c7.96 0.99 15.27 8.44 20.09 13.59-46.42 66.92-94.54 133.44-129.68 207.07 14.38-42.02 38.95-79.9 53.04-121.98 20.23-32.1 35.09-67.47 56.55-98.68z" style="stroke: rgb(0, 0, 0); stroke-width: 2.7004; fill: url(#pattern-0-21);"/>
    <path d="m643.41 493.36c14.74 11.3 29.43 28.2 36.44 46.68 2.39 4.31-2.65 7.99-4.08 11.71-21.3 31.73-50.89 57.83-67.01 93-29 41.17-48.79 89.7-70.31 135.7-11.07 25.59-24.18 50.49-31.45 77.55-11.47 39.58-18.42 81.91-42.85 116.15-10.82 14.63-22.38 29.05-36.31 40.95-4.71-22.07-2.39-45.79-12.24-66.73-4.12-18.63-8.73-37.38-9.7-56.51-3.25-13.36 15.35-12.79 21.8-20.13 42.23-31.65 48.11-87.87 69.35-132.7 5.37-20.79 15.93-39.94 26.57-58.42 30.25-68.15 75.74-127.7 119.79-187.25z" style="stroke: rgb(0, 0, 0); stroke-width: 2.7004; fill: url(#pattern-0-22);"/>
    <path d="m600.25 670.26c18.22-46.29 53.38-81.98 83.84-120.28 8.15 3.15 12.28 13.68 8.57 21.64-41.18 115.88-70.96 235.46-97.53 355.5-11.1 39.12-16.46 79.28-20.31 119.68-1.2 6-2.44 12-2.52 18.2-10.16 67.5-28.79 133.3-43.29 200-18.84 59.4-47.83 115.6-86.46 164.6-12.21 6.1-17.55 22.3-31.26 25-21.84-62.4-3.88-129.7-10.05-193.9-0.66-26.2 0.07-52.4-0.36-78.5 16.31 18.5 38.64 0.4 51.07-13.2 19.31-25.2 26.77-56.8 36.65-86.4 37.74-137.25 59.67-279.29 111.65-412.34z" style="stroke: rgb(0, 0, 0); stroke-width: 2.7004; fill: url(#pattern-0-23);"/>
    <path d="m687.23 602.24c3.8-8.18 3.24-19.3 10.79-25.35 13.22 11.09 24.53 25.76 35.84 37.99-33.21 57-55.27 119.38-76.38 181.6-18.86 56.31-30.03 114.94-33.84 174.2-12.74 137.82-12.24 277.12-36.08 413.82-4.07 11.9-4.9 29.6-19.51 33.6-50.13 20.3-111.68 22.6-149.96 64.8-3.11-7.3-2.07-15.7-3.87-23.4 34.65-18.9 51.46-56.1 73.01-87.3 52.38-81.6 58.42-180.7 82.94-272.2 0.68-11.7 4.03-23.3 2.13-35 0.08-6.2 1.32-12.2 2.52-18.2 15.35-93.29 38.44-185.25 60.87-277.1 12.81-57.12 32.65-112.21 51.54-167.46z" style="stroke: rgb(0, 0, 0); stroke-width: 2.7004; fill: url(#pattern-0-24);"/>
    <path d="m466.46 614.53c3.37-2.87-1.57 5.66-0.29 5.49-18.38 52.61-25.75 108.34-43.12 161.21-5.52-50.02-8.47-101.3 0.06-151.17 15.77 4.81 31.68-5.84 43.35-15.53z" style="stroke: rgb(0, 0, 0); stroke-width: 2.7004; fill: url(#pattern-0-25);"/>
    <path d="m585.46 694.43c-1.84 10.73-9.58 27.5-12.58 40.47-34.93 108.85-52.83 222.17-83.9 332.1-9.35 31.5-15.99 64.8-34.27 92.7-8.54 10.5-17.71 22.3-31.5 25.7-10.84 3.3-22.39-8.2-19.97-19 5.27-40.3 5.35-81 9.68-121.4 0.13-8.7 8.03-14 12.31-20.8 32-32.76 62.26-70.93 72.21-116.75 12.2-37.78 20.19-77.93 41.04-112 11.95-35.19 27.04-69.97 46.98-101.02z" style="stroke: rgb(0, 0, 0); stroke-width: 2.7004; fill: url(#pattern-0-26);"/>
    <path d="m417.31 775.79c1.02 7.04 0.81 14.21-0.16 21.27-0.05-7.09 0.07-14.2 0.16-21.27z" style="stroke: rgb(0, 0, 0); stroke-width: 2.7004; fill: url(#pattern-0-27);"/>
    <path d="m417.38 858.96c0.68 3.89 1.07 7.83-0.03 11.73 0.04-3.93 0.06-7.84 0.03-11.73z" style="stroke: rgb(0, 0, 0); stroke-width: 2.7004; fill: url(#pattern-0-28);"/>
    <path d="m397.32 1214.7c0.87 7.5 0.67 15 0.45 22.6-1.16-7.5-0.69-15.1-0.45-22.6z" style="stroke: rgb(0, 0, 0); stroke-width: 2.7004; fill: url(#pattern-0-29);"/>
    <path d="m609.35 475.37c-17.33 39.62-44.58 80.73-62.53 122.44-6.19 13.03-8.38 27.87-17.64 39.38-27.27 45.63-35.96 98.97-53.44 148.54-12.93 30.02-22.79 65.69-53.32 82.56 3.25-23.65-16.83-49.47 1.57-70.37 19.44-65.1 26.57-134.38 55.61-196.33 15.55-16.07 23.02-37.59 32.51-57.37 12.53-9.39 26.97-17.27 34.89-31.48 12.61-1.66 24.75-5.76 35.94-11.76 10.05-6.93 12.91-23.25 26.41-25.61z" style="stroke: rgb(0, 0, 0); stroke-width: 2.7004; fill: url(#pattern-0-30);"/>
    <path d="m618.42 476.24c7.96 0.99 15.27 8.44 20.09 13.59-46.42 66.92-94.54 133.44-129.68 207.07 14.38-42.02 38.95-79.9 53.04-121.98 20.23-32.1 35.09-67.47 56.55-98.68z" style="stroke: rgb(0, 0, 0); stroke-width: 2.7004; fill: url(#pattern-0-31);"/>
    <path d="M 649.443 511.832 C 664.183 523.132 678.873 540.032 685.883 558.512 C 688.273 562.822 638.682 556.12 637.252 559.84 C 652.616 589.607 630.913 628.052 614.793 663.222 C 585.793 704.392 566.003 752.922 544.483 798.922 C 533.413 824.512 520.303 849.412 513.033 876.472 C 501.563 916.052 494.613 958.382 470.183 992.622 C 459.363 1007.252 447.803 1021.672 433.873 1033.572 C 429.163 1011.502 431.483 987.782 421.633 966.842 C 417.513 948.212 412.903 929.462 411.933 910.332 C 408.683 896.972 427.283 897.542 433.733 890.202 C 475.963 858.552 481.843 802.332 503.083 757.502 C 508.453 736.712 519.013 717.562 529.653 699.082 C 559.903 630.932 605.393 571.382 649.443 511.832 Z" style="stroke: rgb(0, 0, 0); stroke-width: 2.7004; fill: url(#pattern-0-32);"/>
    <path d="m600.25 670.26c18.22-46.29 53.38-81.98 83.84-120.28 8.15 3.15 12.28 13.68 8.57 21.64-41.18 115.88-70.96 235.46-97.53 355.5-11.1 39.12-16.46 79.28-20.31 119.68-1.2 6-2.44 12-2.52 18.2-10.16 67.5-28.79 133.3-43.29 200-18.84 59.4-47.83 115.6-86.46 164.6-12.21 6.1-17.55 22.3-31.26 25-21.84-62.4-3.88-129.7-10.05-193.9-0.66-26.2 0.07-52.4-0.36-78.5 16.31 18.5 38.64 0.4 51.07-13.2 19.31-25.2 26.77-56.8 36.65-86.4 37.74-137.25 59.67-279.29 111.65-412.34z" style="stroke: rgb(0, 0, 0); stroke-width: 2.7004; fill: url(#pattern-0-33);"/>
    <path d="M 687.23 602.24 C 691.03 594.06 693.169 616.84 700.719 610.79 C 713.939 621.88 722.55 602.65 733.86 614.88 C 700.65 671.88 678.59 734.26 657.48 796.48 C 638.62 852.79 627.45 911.42 623.64 970.68 C 610.9 1108.5 611.4 1247.8 587.56 1384.5 C 583.49 1396.4 582.66 1414.1 568.05 1418.1 C 517.92 1438.4 456.37 1440.7 418.09 1482.9 C 414.98 1475.6 416.02 1467.2 414.22 1459.5 C 448.87 1440.6 465.68 1403.4 487.23 1372.2 C 539.61 1290.6 545.65 1191.5 570.17 1100 C 570.85 1088.3 574.2 1076.7 572.3 1065 C 572.38 1058.8 573.62 1052.8 574.82 1046.8 C 590.17 953.51 613.26 861.55 635.69 769.7 C 648.5 712.58 668.34 657.49 687.23 602.24 L 687.23 602.24 Z" style="stroke: rgb(0, 0, 0); stroke-width: 2.7004; fill: url(#pattern-0-34);"/>
    <path d="m466.46 614.53c3.37-2.87-1.57 5.66-0.29 5.49-18.38 52.61-25.75 108.34-43.12 161.21-5.52-50.02-8.47-101.3 0.06-151.17 15.77 4.81 31.68-5.84 43.35-15.53z" style="stroke: rgb(0, 0, 0); stroke-width: 2.7004; fill: url(#pattern-0-35);"/>
    <path d="m585.46 694.43c-1.84 10.73-9.58 27.5-12.58 40.47-34.93 108.85-52.83 222.17-83.9 332.1-9.35 31.5-15.99 64.8-34.27 92.7-8.54 10.5-17.71 22.3-31.5 25.7-10.84 3.3-22.39-8.2-19.97-19 5.27-40.3 5.35-81 9.68-121.4 0.13-8.7 8.03-14 12.31-20.8 32-32.76 62.26-70.93 72.21-116.75 12.2-37.78 20.19-77.93 41.04-112 11.95-35.19 27.04-69.97 46.98-101.02z" style="stroke: rgb(0, 0, 0); stroke-width: 2.7004; fill: url(#pattern-0-36);"/>
    <path d="m417.31 775.79c1.02 7.04 0.81 14.21-0.16 21.27-0.05-7.09 0.07-14.2 0.16-21.27z" style="stroke: rgb(0, 0, 0); stroke-width: 2.7004; fill: url(#pattern-0-37);"/>
    <path d="m417.38 858.96c0.68 3.89 1.07 7.83-0.03 11.73 0.04-3.93 0.06-7.84 0.03-11.73z" style="stroke: rgb(0, 0, 0); stroke-width: 2.7004; fill: url(#pattern-0-38);"/>
    <path d="m397.32 1214.7c0.87 7.5 0.67 15 0.45 22.6-1.16-7.5-0.69-15.1-0.45-22.6z" style="stroke: rgb(0, 0, 0); stroke-width: 2.7004; fill: url(#pattern-0-39);"/>
  </g>
  <g transform="matrix(-0.171641, -0.13504, 0.009355, -0.031651, 325.627777, 803.789246)">
    <path d="m609.35 475.37c-17.33 39.62-44.58 80.73-62.53 122.44-6.19 13.03-8.38 27.87-17.64 39.38-27.27 45.63-35.96 98.97-53.44 148.54-12.93 30.02-22.79 65.69-53.32 82.56 3.25-23.65-16.83-49.47 1.57-70.37 19.44-65.1 26.57-134.38 55.61-196.33 15.55-16.07 23.02-37.59 32.51-57.37 12.53-9.39 26.97-17.27 34.89-31.48 12.61-1.66 24.75-5.76 35.94-11.76 10.05-6.93 12.91-23.25 26.41-25.61z" style="stroke: rgb(0, 0, 0); stroke-width: 2.7004; fill: url(#pattern-0-0);"/>
    <path d="M 618.42 479.601 C 626.38 480.589 633.69 488.02 638.51 493.157 C 592.09 559.905 543.97 626.254 508.83 699.695 C 523.21 657.783 547.78 620 561.87 578.028 C 582.1 546.011 596.96 510.731 618.42 479.601 Z" style="stroke: rgb(0, 0, 0); stroke-width: 2.7004; fill: url(#pattern-0-1);" transform="matrix(1, 0.000001, 0, 1, 0.000043, -0.000574)"/>
    <path d="m643.41 493.36c14.74 11.3 29.43 28.2 36.44 46.68 2.39 4.31-2.65 7.99-4.08 11.71-21.3 31.73-50.89 57.83-67.01 93-29 41.17-48.79 89.7-70.31 135.7-11.07 25.59-24.18 50.49-31.45 77.55-11.47 39.58-18.42 81.91-42.85 116.15-10.82 14.63-22.38 29.05-36.31 40.95-4.71-22.07-2.39-45.79-12.24-66.73-4.12-18.63-8.73-37.38-9.7-56.51-3.25-13.36 15.35-12.79 21.8-20.13 42.23-31.65 48.11-87.87 69.35-132.7 5.37-20.79 15.93-39.94 26.57-58.42 30.25-68.15 75.74-127.7 119.79-187.25z" style="stroke: rgb(0, 0, 0); stroke-width: 2.7004; fill: url(#pattern-0-2);"/>
    <path d="m600.25 670.26c18.22-46.29 53.38-81.98 83.84-120.28 8.15 3.15 12.28 13.68 8.57 21.64-41.18 115.88-70.96 235.46-97.53 355.5-11.1 39.12-16.46 79.28-20.31 119.68-1.2 6-2.44 12-2.52 18.2-10.16 67.5-28.79 133.3-43.29 200-18.84 59.4-47.83 115.6-86.46 164.6-12.21 6.1-17.55 22.3-31.26 25-21.84-62.4-3.88-129.7-10.05-193.9-0.66-26.2 0.07-52.4-0.36-78.5 16.31 18.5 38.64 0.4 51.07-13.2 19.31-25.2 26.77-56.8 36.65-86.4 37.74-137.25 59.67-279.29 111.65-412.34z" style="stroke: rgb(0, 0, 0); stroke-width: 2.7004; fill: url(#pattern-0-3);"/>
    <path d="M 687.23 605.278 C 691.03 597.119 690.47 586.027 698.02 579.993 C 711.24 591.054 695.858 641.757 707.168 653.956 C 673.958 710.809 678.59 736.959 657.48 799.019 C 638.62 855.185 627.45 913.664 623.64 972.772 C 610.9 1110.239 647.471 1056.918 623.631 1193.267 C 619.561 1205.136 622.827 1166.604 580.007 1310.022 C 529.877 1330.27 456.37 1441.586 418.09 1483.678 C 414.98 1476.397 416.02 1468.018 414.22 1460.338 C 448.87 1441.486 465.68 1404.382 487.23 1373.262 C 539.61 1291.871 545.65 1193.026 570.17 1101.76 C 570.85 1090.091 574.2 1078.52 572.3 1066.85 C 572.38 1060.666 573.62 1054.682 574.82 1048.697 C 590.17 955.646 613.26 863.922 635.69 772.308 C 648.5 715.335 668.34 660.386 687.23 605.278 L 687.23 605.278 Z" style="stroke: rgb(0, 0, 0); stroke-width: 2.7004; fill: url(#pattern-0-4);"/>
    <path d="M 466.46 617.537 C 469.83 614.674 464.89 623.182 466.17 623.012 C 447.79 675.487 440.42 731.074 423.05 783.809 C 417.53 733.917 414.58 682.769 423.11 633.027 C 438.88 637.824 454.79 627.202 466.46 617.537 Z" style="stroke: rgb(0, 0, 0); stroke-width: 2.7004; fill: url(#pattern-0-5);" transform="matrix(1, -0.000005, 0, 1, -0.000196, 0.002318)"/>
    <path d="M 585.46 697.231 C 583.62 707.934 575.88 724.661 572.88 737.598 C 537.95 846.168 520.05 959.197 488.98 1068.845 C 479.63 1100.264 472.99 1133.479 454.71 1161.307 C 446.17 1171.78 437 1183.55 423.21 1186.941 C 412.37 1190.233 400.82 1178.762 403.24 1167.99 C 408.51 1127.794 408.59 1087.198 412.92 1046.902 C 413.05 1038.224 420.95 1032.938 425.23 1026.155 C 457.23 993.479 487.49 955.407 497.44 909.705 C 509.64 872.022 517.63 831.975 538.48 797.992 C 550.43 762.893 565.52 728.202 585.46 697.231 Z" style="stroke: rgb(0, 0, 0); stroke-width: 2.7004; fill: url(#pattern-0-6);" transform="matrix(1, -0.000005, 0, 1, -0.000237, 0.002631)"/>
    <path d="M 417.31 778.383 C 418.33 785.405 418.12 792.556 417.15 799.598 C 417.1 792.526 417.22 785.435 417.31 778.383 Z" style="stroke: rgb(0, 0, 0); stroke-width: 2.7004; fill: url(#pattern-0-7);"/>
    <path d="M 417.38 861.339 C 418.06 865.219 418.45 869.149 417.35 873.039 C 417.39 869.119 417.41 865.219 417.38 861.339 Z" style="stroke: rgb(0, 0, 0); stroke-width: 2.7004; fill: url(#pattern-0-8);" transform="matrix(1, -0.000005, 0, 1, -0.000208, 0.002243)"/>
    <path d="M 397.32 1216.166 C 398.19 1223.647 397.99 1231.128 397.77 1238.708 C 396.61 1231.227 397.08 1223.647 397.32 1216.166 Z" style="stroke: rgb(0, 0, 0); stroke-width: 2.7004; fill: url(#pattern-0-9);"/>
    <path d="m609.35 475.37c-17.33 39.62-44.58 80.73-62.53 122.44-6.19 13.03-8.38 27.87-17.64 39.38-27.27 45.63-35.96 98.97-53.44 148.54-12.93 30.02-22.79 65.69-53.32 82.56 3.25-23.65-16.83-49.47 1.57-70.37 19.44-65.1 26.57-134.38 55.61-196.33 15.55-16.07 23.02-37.59 32.51-57.37 12.53-9.39 26.97-17.27 34.89-31.48 12.61-1.66 24.75-5.76 35.94-11.76 10.05-6.93 12.91-23.25 26.41-25.61z" style="stroke: rgb(0, 0, 0); stroke-width: 2.7004; fill: url(#pattern-0-10);"/>
    <path d="M 618.42 479.601 C 626.38 480.589 633.69 488.02 638.51 493.157 C 592.09 559.905 543.97 626.254 508.83 699.695 C 523.21 657.783 547.78 620 561.87 578.028 C 582.1 546.011 596.96 510.731 618.42 479.601 Z" style="stroke: rgb(0, 0, 0); stroke-width: 2.7004; fill: url(#pattern-0-11);" transform="matrix(1, 0.000001, 0, 1, 0.000043, -0.000574)"/>
    <path d="M 649.443 511.832 C 664.183 523.132 678.873 540.032 685.883 558.512 C 688.273 562.822 638.682 556.12 637.252 559.84 C 652.616 589.607 630.913 628.052 614.793 663.222 C 585.793 704.392 566.003 752.922 544.483 798.922 C 533.413 824.512 520.303 849.412 513.033 876.472 C 501.563 916.052 494.613 958.382 470.183 992.622 C 459.363 1007.252 447.803 1021.672 433.873 1033.572 C 429.163 1011.502 431.483 987.782 421.633 966.842 C 417.513 948.212 412.903 929.462 411.933 910.332 C 408.683 896.972 427.283 897.542 433.733 890.202 C 475.963 858.552 481.843 802.332 503.083 757.502 C 508.453 736.712 519.013 717.562 529.653 699.082 C 559.903 630.932 605.393 571.382 649.443 511.832 Z" style="stroke: rgb(0, 0, 0); stroke-width: 2.7004; fill: url(#pattern-0-12);"/>
    <path d="m600.25 670.26c18.22-46.29 53.38-81.98 83.84-120.28 8.15 3.15 12.28 13.68 8.57 21.64-41.18 115.88-70.96 235.46-97.53 355.5-11.1 39.12-16.46 79.28-20.31 119.68-1.2 6-2.44 12-2.52 18.2-10.16 67.5-28.79 133.3-43.29 200-18.84 59.4-47.83 115.6-86.46 164.6-12.21 6.1-17.55 22.3-31.26 25-21.84-62.4-3.88-129.7-10.05-193.9-0.66-26.2 0.07-52.4-0.36-78.5 16.31 18.5 38.64 0.4 51.07-13.2 19.31-25.2 26.77-56.8 36.65-86.4 37.74-137.25 59.67-279.29 111.65-412.34z" style="stroke: rgb(0, 0, 0); stroke-width: 2.7004; fill: url(#pattern-0-13);"/>
    <path d="M 651.818 678.46 C 655.618 670.301 686.167 688.399 693.717 682.365 C 706.937 693.426 702.532 632.739 713.842 644.938 C 680.632 701.792 723.903 865.774 722.033 931.282 C 709.588 1367.121 651.034 755.16 647.224 814.268 C 634.484 951.735 725.627 782.455 692.279 1269.342 C 688.209 1281.212 655.862 1181.057 618.656 1164.929 C 583.519 869.438 456.37 1441.586 418.09 1483.678 C 414.98 1476.396 405.71 1279.338 403.91 1271.657 C 429.123 1932.493 363.802 1868.219 472.896 1569.92 C 580.722 1275.088 593.349 951.281 617.869 860.016 C 618.549 848.346 616.944 877.239 615.044 865.569 C 615.124 859.385 633.476 838.718 634.676 832.734 C 650.026 739.683 613.26 863.923 635.69 772.308 C 648.5 715.335 656.383 769.409 675.273 714.301 L 651.818 678.46 Z" style="stroke: rgb(0, 0, 0); stroke-width: 2.7004; fill: url(#pattern-0-14);"/>
    <path d="M 466.46 617.537 C 469.83 614.674 464.89 623.182 466.17 623.013 C 447.79 675.487 440.42 731.074 423.05 783.809 C 417.53 733.917 414.58 682.769 423.11 633.027 C 438.88 637.824 454.79 627.202 466.46 617.537 Z" style="stroke: rgb(0, 0, 0); stroke-width: 2.7004; fill: url(#pattern-0-15);" transform="matrix(1, -0.000005, 0, 1, -0.000196, 0.002318)"/>
    <path d="M 585.46 697.232 C 583.62 707.934 575.88 724.661 572.88 737.598 C 537.95 846.168 520.05 959.198 488.98 1068.845 C 479.63 1100.264 472.99 1133.479 454.71 1161.307 C 446.17 1171.78 437 1183.55 423.21 1186.941 C 412.37 1190.233 400.82 1178.762 403.24 1167.99 C 408.51 1127.793 408.59 1087.198 412.92 1046.901 C 413.05 1038.224 420.95 1032.937 425.23 1026.155 C 457.23 993.479 487.49 955.407 497.44 909.705 C 509.64 872.022 517.63 831.975 538.48 797.992 C 550.43 762.893 565.52 728.202 585.46 697.232 Z" style="stroke: rgb(0, 0, 0); stroke-width: 2.7004; fill: url(#pattern-0-16);"/>
    <path d="M 417.31 778.383 C 418.33 785.405 418.12 792.556 417.15 799.598 C 417.1 792.526 417.22 785.435 417.31 778.383 Z" style="stroke: rgb(0, 0, 0); stroke-width: 2.7004; fill: url(#pattern-0-17);"/>
    <path d="M 417.38 861.339 C 418.06 865.219 418.45 869.149 417.35 873.039 C 417.39 869.119 417.41 865.219 417.38 861.339 Z" style="stroke: rgb(0, 0, 0); stroke-width: 2.7004; fill: url(#pattern-0-18);" transform="matrix(1, -0.000005, 0, 1, -0.000208, 0.002243)"/>
    <path d="M 397.32 1216.166 C 398.19 1223.647 397.99 1231.128 397.77 1238.708 C 396.61 1231.228 397.08 1223.647 397.32 1216.166 Z" style="stroke: rgb(0, 0, 0); stroke-width: 2.7004; fill: url(#pattern-0-19);"/>
  </g>
</svg>