<?xml version="1.0" encoding="utf-8"?>
<svg class="shirt" width="86" height="380" viewBox="202.715 584.407 86.5933 380.048" preserveAspectRatio="xMidYMax" xmlns="http://www.w3.org/2000/svg" xmlns:xlink="http://www.w3.org/1999/xlink">
  <defs id="svgEditorDefs">
    <path id="svgEditorClosePathDefs" fill="black" style="stroke-width: 0px; stroke: none;" class="clothes"/>
    <pattern id="pattern-0" x="0" y="0" width="20" height="20" patternUnits="userSpaceOnUse" viewBox="0 0 100 100">
      <rect x="-1.294" y="-0.647" width="102.589" height="101.456" style="fill: rgb(0, 221, 255);"/>
      <rect x="-1.133" y="-1.456" width="102.589" height="102.589" style="fill: url(#pattern-0-40);"/>
      <g transform="matrix(0.108242, 0, 0, 0.159082, -4.417247, 4.557223)">
        <g>
          <g id="XMLID_1_">
            <g>
              <path d="M329.5415,301.24c0.38,0.23,0.6,0.73,1.21,1.52c-7.56-0.79-14.12-3.51-20.77-5.83c-21.73-7.59-42.91-16.29-62.15-29.27&#10;&#9;&#9;&#9;&#9;c-22.42-15.12-40.16-34.46-52.55-58.39c-15.73-30.4-23.02-62.64-18.8-97c0.15-1.16,0.27-2.31,0.36-3.47&#10;&#9;&#9;&#9;&#9;c0.43-5.77,2.32-7.41,8.01-6.47c9.21,1.52,18.29,3.52,27.04,6.94c18.85,7.38,36.73,16.55,52.48,29.4&#10;&#9;&#9;&#9;&#9;c5.18,4.24,10.01,9.03,15,15.53c-8.73-3.63-16.16-6.82-23.66-9.82c-15.52-6.21-31.65-10.15-48.12-12.87&#10;&#9;&#9;&#9;&#9;c-3.71-0.61-4.97,0.1-4.83,4.12c1.3,38.95,14.69,73.19,40.68,102.11c20.24,22.53,45.65,38.61,71.17,54.4&#10;&#9;&#9;&#9;&#9;C319.5715,295.21,324.5815,298.19,329.5415,301.24z" style="fill: rgb(12, 0, 255);"/>
              <path d="M247.2815,285.15c0.21,0.12,0.23,0.55,0.36,0.91c-1.36,1.3-3.13,0.88-4.68,0.9c-20.87,0.32-41.61-0.68-61.94-5.92&#10;&#9;&#9;&#9;&#9;c-27.02-6.95-48.38-31.11-46.48-62.21c0.73-11.96,1.22-23.91,3.28-35.74c0.28-1.59-0.16-3.59,1.93-4.17&#10;&#9;&#9;&#9;&#9;c2.25-0.63,3.18,1.23,4.27,2.7c16.92,22.92,34.76,45.08,53.56,66.49c13.19,15.02,28.75,26.67,46.65,35.35&#10;&#9;&#9;&#9;&#9;C245.2715,283.96,246.2915,284.54,247.2815,285.15z" style="fill: rgb(12, 0, 255);"/>
              <path d="M239.3115,468.6c1.12,0.04,2.23,0.32,4.08,0.6c-2.91,2.43-5.83,3.18-8.67,3.65c-37.13,6.26-74.16,8.54-110.72-3.46&#10;&#9;&#9;&#9;&#9;c-17.82-5.85-33.02-16.34-48.06-27.18c-10.95-7.88-19.91-17.58-27.78-28.44c-2.05-2.83-2.25-4.41,1.47-6.2&#10;&#9;&#9;&#9;&#9;c17.62-8.51,35.86-15.1,55.08-18.86c1.32-0.26,2.92-0.8,3.58,0.7c0.7,1.6-1.09,2.23-2.02,3c-7.48,6.11-15.02,12.15-22.54,18.21&#10;&#9;&#9;&#9;&#9;c-1.69,1.36-3.05,2.44-0.43,4.52c26.44,21.04,55.44,36.9,88.86,43.55C194.3615,463.11,216.5815,467.62,239.3115,468.6z" style="fill: rgb(12, 0, 255);"/>
              <path d="M458.3115,410.22c-3.14,0-4.84-1.47-6.48-2.66c-16.27-11.85-34.23-20.7-52.63-28.49c-18.02-7.62-37.13-11.68-56.54-14.1&#10;&#9;&#9;&#9;&#9;c-32.75-4.08-65.7-5.67-98.57-8.19c-18.94-1.45-36.7-7.6-54.22-14.74c-13.97-5.7-27-12.91-39.54-21.16&#10;&#9;&#9;&#9;&#9;c-1.37-0.9-3.01-3.1-4.65-1.79c-1.89,1.52-0.28,3.78,0.48,5.51c7.21,16.46,18.09,30.65,27.97,45.48&#10;&#9;&#9;&#9;&#9;c21.69,32.55,51.42,54.52,88.07,67.39c15.99,5.62,32.67,7.78,49.51,8.92c13.61,0.93,27.21,1.97,40.83,0.97&#10;&#9;&#9;&#9;&#9;c-34.47,9.47-68.88,12.16-104.25,4.61c-35.76-7.64-65.47-25.3-90.65-50.71c-32.98-33.28-49.45-74.02-50.83-120.86&#10;&#9;&#9;&#9;&#9;c-0.18-5.99-0.44-11.99,0.29-17.97c0.12-0.96,0.49-1.9,0.99-3.73c5.63,5.87,11.11,11.05,16.64,16.17&#10;&#9;&#9;&#9;&#9;c18.53,17.15,40.56,25.57,65.52,27.23c31.57,2.09,63.18,3.89,94.47,8.88c24.34,3.88,48.72,7.54,72.43,14.6&#10;&#9;&#9;&#9;&#9;c14.66,4.36,27.12,12.86,38.99,21.92c21,16.03,38.74,35.53,56.11,55.32C454.1915,405.02,455.9815,407.36,458.3115,410.22z" style="fill: rgb(12, 0, 255);"/>
              <path d="M473.6615,424.59c-3.08,4.04-6.38,5.79-9.29,7.96c-2.93,2.18-5.93,4.31-9.06,6.21c-20.79,12.6-41.69,25-63.4,36.02&#10;&#9;&#9;&#9;&#9;c-13,6.6-26.69,10.22-41.08,11.61c-2.49,0.24-4.98,0.47-7.46,0.79c-1.09,0.14-2.57-0.09-2.89,1.35c-0.26,1.13,0.94,1.66,1.7,2.25&#10;&#9;&#9;&#9;&#9;c10.57,8.34,22.24,14.38,35.18,18.4c28.92,8.96,52.69-1.67,74.43-19.23c15.13-12.23,26.89-27.67,38.02-43.54&#10;&#9;&#9;&#9;&#9;c0.65-0.92,1.36-1.8,2.7-3.56c2.85,16.82-0.73,31.24-9.46,44.32c-11.65,17.45-25.24,33.01-43.61,43.95&#10;&#9;&#9;&#9;&#9;c-13.02,7.75-27.38,11.17-41.94,13.88c-31.22,5.79-59.27-3.52-85.74-19.18c-9.49-5.61-16.99-13.46-22.35-23.1&#10;&#9;&#9;&#9;&#9;c-4.28-7.7-7.98-15.73-12.03-23.56c-1.81-3.5-0.82-4.85,3.03-4.85c9.49-0.01,18.99-0.02,28.49-0.27&#10;&#9;&#9;&#9;&#9;c27.41-0.72,53.7-7.22,79.64-15.55c27.64-8.87,54.5-19.66,80.78-31.94C470.3515,426.07,471.4015,425.61,473.6615,424.59z" style="fill: rgb(12, 0, 255);"/>
              <path d="M728.8215,472.99c1.8,2.47-1.02,5.39-2.5099,7.5c-13,18.35-25.66,37.26-45.04,49.59&#10;&#9;&#9;&#9;&#9;c-18.94,12.06-39.87,18.26-62.61,17.32c-9.49-0.39-19.02-0.17-28.39-1.89c-23.45-4.29-42-17.05-57.92-34.12&#10;&#9;&#9;&#9;&#9;c-10.16-10.89-17.42-23.52-21.2-38c-2.73-10.48-0.93-20.82,1.16-31.61c2.54,0.94,4.37,2.36,5.19,4.28&#10;&#9;&#9;&#9;&#9;c6.12,14.22,17.8199,23.86,27.9399,34.87c17.23,18.76,38.4,26.31,63.64,24.92c15.85-0.87,31.2-2.66,45.27-10.53&#10;&#9;&#9;&#9;&#9;c1.38-0.77,3.78-1.07,3.49-2.99c-0.27-1.8-2.59-1.83-4.18-2.12c-31.07-5.68-58.59-19.26-84.31-37.17&#10;&#9;&#9;&#9;&#9;c-11.52-8.02-22.53-16.57-32.75-26.16c-0.82-0.77-1.97-1.34-1.85-3.65c5.61,2.02,11.05,3.78,16.33,5.92&#10;&#9;&#9;&#9;&#9;c25.01,10.1,49.44,21.68,74.92,30.6c30.81,10.78,62.29,17.17,95.1899,12.6C723.7715,471.99,727.4215,471.08,728.8215,472.99z" style="fill: rgb(12, 0, 255);"/>
              <path d="M765.8915,470.94c-0.91-0.28-1.8-0.65-2.7-0.98c0.02-0.45,0.04-0.9,0.05-1.34c6.75-0.49,13.5-1.07,20.25-1.44&#10;&#9;&#9;&#9;&#9;c29.3-1.61,57.81-7.3,85.54-16.77c15-5.12,27.47-14.9,40.65-23.31c5.8-3.7,10.68-8.48,15.78-13.01c3.01-2.68,2.85-4.77-0.25-7.22&#10;&#9;&#9;&#9;&#9;c-7.69-6.11-15.27-12.37-22.88-18.57c-1.27-1.03-2.78-1.85-3.57-3.92c1.82-0.72,3.4-0.08,5.06,0.41&#10;&#9;&#9;&#9;&#9;c18.65,5.5,35.59,14.95,53.17,22.93c2.68,1.21,4.15,2.59,1.7,5.59c-10.65,13.03-21.2,26.07-34.23,36.95&#10;&#9;&#9;&#9;&#9;c-22.33,18.63-48.64,27.13-76.89,28.59C820.1315,480.27,792.5715,479.14,765.8915,470.94z" style="fill: rgb(12, 0, 255);"/>
              <path d="M911.3415,251.38c2.31,0.84,1.26,3.84,1.16,5.85c-1.84,38.58-11.09,74.9-32.11,107.84&#10;&#9;&#9;&#9;&#9;c-17.11,26.82-38.36,49.57-65.35,66.35c-25.28,15.73-52.84,24.65-83.01,25.8c-18.46,0.71-36.58-0.01-54.57-4.12&#10;&#9;&#9;&#9;&#9;c-0.81-0.18-1.63-0.37-2.41-0.64c-0.26-0.09-0.43-0.44-0.99-1.04c9.78-1.07,19.24-2.3,28.73-3.12&#10;&#9;&#9;&#9;&#9;c33.6-2.89,63.66-15.19,90.95-34.48c11.23-7.94,19.85-18.69,28.42-29.35c12.08-15.02,21.19-31.88,30.53-48.6&#10;&#9;&#9;&#9;&#9;c1.94-3.48,4.52-6.63,5.53-10.6c0.25-0.95,0.69-2.02-0.39-2.68c-0.91-0.57-1.48,0.4-2.12,0.84&#10;&#9;&#9;&#9;&#9;c-26.35,17.74-56.04,26.34-86.75,32.71c-30.32,6.29-60.98,8.24-91.78,9.44c-40.43,1.58-77.93,13.14-112.75,33.6&#10;&#9;&#9;&#9;&#9;c-4.1,2.41-8.26,4.72-12.38,7.08c-0.29-0.34-0.58-0.67-0.86-1c8.11-10.49,16.57-20.65,26.08-29.98&#10;&#9;&#9;&#9;&#9;c21.3-20.88,47.33-34.3,73.66-47.22c19.56-9.59,40.77-12.79,62.07-15.97c31.37-4.68,63.1-4.51,94.55-8.06&#10;&#9;&#9;&#9;&#9;c16.98-1.91,33.76-4.97,49.28-12.07c19.22-8.78,36.29-20.9,50.4-36.88C908.4715,253.68,909.3015,250.63,911.3415,251.38z" style="fill: rgb(12, 0, 255);"/>
              <path d="M881.6415,180.38c0.16,11.45,2.06,22.84-0.03,34.36c-1.45,7.99-0.48,16.25-1.56,24.38&#10;&#9;&#9;&#9;&#9;c-2.59,19.45-14.46,31.25-31.05,39.8c-17.88,9.22-36.98,9.9-56.4,9.42c-9.48-0.24-18.96-0.06-28.44-0.12&#10;&#9;&#9;&#9;&#9;c-1.57-0.01-3.27,0.6-4.96-0.67c4.44-5.73,11.41-7.16,17.22-10.28c19.89-10.67,38.77-22.54,54.43-39.15&#10;&#9;&#9;&#9;&#9;c17.17-18.22,32.12-38.13,46.23-58.73c0.79-1.14,1.08-3.3,2.94-2.84C881.6715,176.96,881.6215,178.98,881.6415,180.38z" style="fill: rgb(12, 0, 255);"/>
              <path d="M674.7515,304.57c9.84-6.31,20.78-10.09,30.43-16.31c21.37-13.77,43.46-26.65,61.97-44.33&#10;&#9;&#9;&#9;&#9;c18.27-17.45,31.36-38.49,38.32-62.8c3.65-12.76,5.56-26.03,5.5-39.47c-0.02-3.94-1.33-4.86-5.19-5.07&#10;&#9;&#9;&#9;&#9;c-20.45-1.12-39.54,4.27-58.32,11.44c-1.46,0.55-2.83,1.77-4.98,0.96c7.92-8.73,17.94-13.9,28.1-18.73&#10;&#9;&#9;&#9;&#9;c18.63-8.85,37.3-17.62,56.7-24.72c1.71-0.63,3.42-1.3,5.17-1.81c7.97-2.37,8.03-2.36,9.32,6.25&#10;&#9;&#9;&#9;&#9;c6.94,46.28-4.22,87.07-36.77,121.42c-19.96,21.07-43.75,36.64-69.58,49.54c-19.12,9.55-39.02,16.97-59.29,23.53&#10;&#9;&#9;&#9;&#9;C675.7115,304.61,675.2115,304.54,674.7515,304.57z" style="fill: rgb(12, 0, 255);"/>
              <path d="M616.9015,326.04c-0.42,0.26-0.86,0.53-1.33,0.67c-0.2599,0.07-0.6-0.12-1.77-0.4c6.91-9.09,13.54-17.94,20.31-26.69&#10;&#9;&#9;&#9;&#9;c14.59-18.88,28.46-38.25,37.86-60.33c7.34-17.25,11.97-35.41,13.64-54.02c1.59-17.72-2.6-34.77-10.06-50.87&#10;&#9;&#9;&#9;&#9;c-8.21-17.72-17.99-34.55-29.73-50.19c-1.89-2.52-4.09-4.81-6.21-7.15c-6.57-7.26-6.66-7.4-15.49-2.74&#10;&#9;&#9;&#9;&#9;c-11.77,6.2-23.33,12.79-35.35,20.74c3.21-10.29,8.87-17.77,14.24-25.31c9.83-13.82,19.89-27.46,32.04-39.43&#10;&#9;&#9;&#9;&#9;c2.42-2.38,4.56-2.66,6.88-0.8c12.18,9.77,25.81,18.14,34.07,31.93c12.71,21.17,23.8199,43.08,29.5099,67.41&#10;&#9;&#9;&#9;&#9;c3.51,14.99,5.88,30.1,6.2401,45.45c0.48,20.47-4.21,40.06-12.34,58.7C682.0115,272.9,653.7815,303.35,616.9015,326.04z" style="fill: rgb(12, 0, 255);"/>
              <path d="M633.7515,205.47c4.5699,27.76,0.25,54.9-12.66,80.11c-14.77,28.85-32.55,55.78-54.04,80.16&#10;&#9;&#9;&#9;&#9;c-6.38,7.25-13.71,13.47-21.18,19.62c2.78-5.01,6.89-8.99,10.25-13.52c9-12.15,14.77-26.01,21.7599-39.22&#10;&#9;&#9;&#9;&#9;c14.33-27.1,18.76-56.32,18.08-86.53c-0.32-14.12-3.91-27.6-9.68-40.5c-9.77-21.81-23.6-40.91-39.37-58.67&#10;&#9;&#9;&#9;&#9;c-10.95-12.33-22.56-24.04-34.59-35.32c-2.79-2.63-4.79-2.7-7.55-0.19c-18.31,16.7-37.76,32.28-54.17,50.89&#10;&#9;&#9;&#9;&#9;c-24.8,28.12-39.87,60.71-39.33,98.85c0.41,28.73,8.1,55.65,22.24,81c10.5,18.81,23.29,35.6,37.86,51.24&#10;&#9;&#9;&#9;&#9;c0.33,0.36,0.6,0.77,0.9,1.16c-19.47-13.31-35.19-30.28-48.33-49.69c-8.3-12.26-17.77-23.82-24.4-37.09&#10;&#9;&#9;&#9;&#9;c-7.04-14.09-16.24-27.39-18.78-43.34c-3.16-19.91-5.48-39.98-1.87-60.07c2.34-13.08,7.75-25.26,14.66-36.43&#10;&#9;&#9;&#9;&#9;c12.08-19.53,25.13-38.53,41.97-54.4c16.58-15.63,34.57-29.62,52.58-43.56c5.65-4.37,11.5-8.5,16.99-13.07&#10;&#9;&#9;&#9;&#9;c2.27-1.89,3.88-1.75,6.17-0.38c13.03,7.8,25.41,16.49,36.99,26.31c17.53,14.86,35.71,29.14,49.52,47.73&#10;&#9;&#9;&#9;&#9;C614.5715,153.15,629.1115,177.3,633.7515,205.47z" style="fill: rgb(12, 0, 255);"/>
              <path d="M425.2615,95.03c-10.95-4.1-20.48-10.54-30.5-16.06c-14.3-7.88-10.05-9.1-21.71,3.01&#10;&#9;&#9;&#9;&#9;c-20.46,21.26-35.23,46.16-43.98,74.07c-12.15,38.73-5.17,75.02,18.04,108.18c8.4,12,17.26,23.65,25.18,36&#10;&#9;&#9;&#9;&#9;c4.56,7.11,10.36,13.42,15.48,20.18c1.12,1.49,2.73,2.88,2.71,5.58c-7.02-3.13-12.43-8.07-18.02-12.54&#10;&#9;&#9;&#9;&#9;c-21.1-16.9-39.1-36.39-51.76-60.69c-7.65-14.67-14.97-29.16-17.97-45.7c-4.17-23.03-3.1-45.56,2.91-68.13&#10;&#9;&#9;&#9;&#9;c10.11-37.93,27.93-71.71,53.41-101.5c3.02-3.53,6.25-6.9,10.03-9.7c1.31-0.97,2.16-1.75,3.74-0.26&#10;&#9;&#9;&#9;&#9;C393.7815,47.24,411.6815,69.4,425.2615,95.03z" style="fill: rgb(12, 0, 255);"/>
            </g>
            <g/>
          </g>
        </g>
      </g>
    </pattern>
    <pattern id="pattern-0-0" patternTransform="matrix(1, 0, 0, 1, 502.735596, 661.829956)" xlink:href="#pattern-0"/>
    <pattern id="pattern-0-1" patternTransform="matrix(1, 0, 0, 1, 563.669983, 579.64801)" xlink:href="#pattern-0"/>
    <pattern id="pattern-0-2" patternTransform="matrix(1, 0, 0, 1, 533.002747, 744.22998)" xlink:href="#pattern-0"/>
    <pattern id="pattern-0-3" patternTransform="matrix(1, 0, 0, 1, 537.062012, 992.289978)" xlink:href="#pattern-0"/>
    <pattern id="pattern-0-4" patternTransform="matrix(1, 0, 0, 1, 550.694031, 1021.835449)" xlink:href="#pattern-0"/>
    <pattern id="pattern-0-5" patternTransform="matrix(1, 0, 0, 1, 432.707764, 690.378357)" xlink:href="#pattern-0"/>
    <pattern id="pattern-0-6" patternTransform="matrix(1, 0, 0, 1, 484.187683, 932.373047)" xlink:href="#pattern-0"/>
    <pattern id="pattern-0-7" patternTransform="matrix(1, 0, 0, 1, 407.560425, 778.990479)" xlink:href="#pattern-0"/>
    <pattern id="pattern-0-8" patternTransform="matrix(1, 0, 0, 1, 407.69458, 857.188965)" xlink:href="#pattern-0"/>
    <pattern id="pattern-0-9" patternTransform="matrix(1, 0, 0, 1, 387.489655, 1217.437012)" xlink:href="#pattern-0"/>
    <pattern id="pattern-0-10" patternTransform="matrix(1, 0, 0, 1, 502.735596, 661.829956)" xlink:href="#pattern-0"/>
    <pattern id="pattern-0-11" patternTransform="matrix(1, 0, 0, 1, 563.669983, 579.64801)" xlink:href="#pattern-0"/>
    <pattern id="pattern-0-12" patternTransform="matrix(1, 0, 0, 1, 538.760864, 762.702026)" xlink:href="#pattern-0"/>
    <pattern id="pattern-0-13" patternTransform="matrix(1, 0, 0, 1, 537.062012, 992.289978)" xlink:href="#pattern-0"/>
    <pattern id="pattern-0-14" patternTransform="matrix(1, 0, 0, 1, 553.001099, 1204.62085)" xlink:href="#pattern-0"/>
    <pattern id="pattern-0-15" patternTransform="matrix(1, 0, 0, 1, 432.707764, 690.378357)" xlink:href="#pattern-0"/>
    <pattern id="pattern-0-16" patternTransform="matrix(1, 0, 0, 1, 484.187683, 932.373535)" xlink:href="#pattern-0"/>
    <pattern id="pattern-0-17" patternTransform="matrix(1, 0, 0, 1, 407.560425, 778.990479)" xlink:href="#pattern-0"/>
    <pattern id="pattern-0-18" patternTransform="matrix(1, 0, 0, 1, 407.69458, 857.188965)" xlink:href="#pattern-0"/>
    <pattern id="pattern-0-19" patternTransform="matrix(1, 0, 0, 1, 387.489655, 1217.437012)" xlink:href="#pattern-0"/>
    <pattern id="pattern-0-20" patternTransform="matrix(1, 0, 0, 1, 502.735596, 661.829956)" xlink:href="#pattern-0"/>
    <pattern id="pattern-0-21" patternTransform="matrix(1, 0, 0, 1, 563.670044, 576.570007)" xlink:href="#pattern-0"/>
    <pattern id="pattern-0-22" patternTransform="matrix(1, 0, 0, 1, 533.002747, 744.22998)" xlink:href="#pattern-0"/>
    <pattern id="pattern-0-23" patternTransform="matrix(1, 0, 0, 1, 537.062012, 992.289978)" xlink:href="#pattern-0"/>
    <pattern id="pattern-0-24" patternTransform="matrix(1, 0, 0, 1, 564.039917, 1019.89502)" xlink:href="#pattern-0"/>
    <pattern id="pattern-0-25" patternTransform="matrix(1, 0, 0, 1, 432.707764, 687.584717)" xlink:href="#pattern-0"/>
    <pattern id="pattern-0-26" patternTransform="matrix(1, 0, 0, 1, 484.187683, 930.202576)" xlink:href="#pattern-0"/>
    <pattern id="pattern-0-27" patternTransform="matrix(1, 0, 0, 1, 407.560425, 776.424988)" xlink:href="#pattern-0"/>
    <pattern id="pattern-0-28" patternTransform="matrix(1, 0, 0, 1, 407.69458, 854.825012)" xlink:href="#pattern-0"/>
    <pattern id="pattern-0-29" patternTransform="matrix(1, 0, 0, 1, 387.489685, 1216)" xlink:href="#pattern-0"/>
    <pattern id="pattern-0-30" patternTransform="matrix(1, 0, 0, 1, 502.735596, 661.829956)" xlink:href="#pattern-0"/>
    <pattern id="pattern-0-31" patternTransform="matrix(1, 0, 0, 1, 563.670044, 576.570007)" xlink:href="#pattern-0"/>
    <pattern id="pattern-0-32" patternTransform="matrix(1, 0, 0, 1, 538.760864, 762.702026)" xlink:href="#pattern-0"/>
    <pattern id="pattern-0-33" patternTransform="matrix(1, 0, 0, 1, 537.062012, 992.289978)" xlink:href="#pattern-0"/>
    <pattern id="pattern-0-34" patternTransform="matrix(1, 0, 0, 1, 564.039978, 1031.672607)" xlink:href="#pattern-0"/>
    <pattern id="pattern-0-35" patternTransform="matrix(1, 0, 0, 1, 432.707764, 687.584717)" xlink:href="#pattern-0"/>
    <pattern id="pattern-0-36" patternTransform="matrix(1, 0, 0, 1, 484.187683, 930.202576)" xlink:href="#pattern-0"/>
    <pattern id="pattern-0-37" patternTransform="matrix(1, 0, 0, 1, 407.560425, 776.424988)" xlink:href="#pattern-0"/>
    <pattern id="pattern-0-38" patternTransform="matrix(1, 0, 0, 1, 407.69458, 854.825012)" xlink:href="#pattern-0"/>
    <pattern id="pattern-0-39" patternTransform="matrix(1, 0, 0, 1, 387.489685, 1216)" xlink:href="#pattern-0"/>
    <pattern id="pattern-0-40" patternTransform="matrix(1, 0, 0, 1, 40.161499, 39.838497)" xlink:href="#pattern-0"/>
    <pattern id="pattern-0-41" patternTransform="matrix(1, 0, 0, 1, -10, -10)" xlink:href="#pattern-0"/>
  </defs>
  <g transform="matrix(0.011121, -0.238419, 0.055392, 0.027691, 191.692627, 878.25708)">
    <path d="m609.35 475.37c-17.33 39.62-44.58 80.73-62.53 122.44-6.19 13.03-8.38 27.87-17.64 39.38-27.27 45.63-35.96 98.97-53.44 148.54-12.93 30.02-22.79 65.69-53.32 82.56 3.25-23.65-16.83-49.47 1.57-70.37 19.44-65.1 26.57-134.38 55.61-196.33 15.55-16.07 23.02-37.59 32.51-57.37 12.53-9.39 26.97-17.27 34.89-31.48 12.61-1.66 24.75-5.76 35.94-11.76 10.05-6.93 12.91-23.25 26.41-25.61z" style="stroke: rgb(0, 0, 0); stroke-width: 2.7004; fill: url(#pattern-0-20);"/>
    <path d="m618.42 476.24c7.96 0.99 15.27 8.44 20.09 13.59-46.42 66.92-94.54 133.44-129.68 207.07 14.38-42.02 38.95-79.9 53.04-121.98 20.23-32.1 35.09-67.47 56.55-98.68z" style="stroke: rgb(0, 0, 0); stroke-width: 2.7004; fill: url(#pattern-0-21);"/>
    <path d="m643.41 493.36c14.74 11.3 29.43 28.2 36.44 46.68 2.39 4.31-2.65 7.99-4.08 11.71-21.3 31.73-50.89 57.83-67.01 93-29 41.17-48.79 89.7-70.31 135.7-11.07 25.59-24.18 50.49-31.45 77.55-11.47 39.58-18.42 81.91-42.85 116.15-10.82 14.63-22.38 29.05-36.31 40.95-4.71-22.07-2.39-45.79-12.24-66.73-4.12-18.63-8.73-37.38-9.7-56.51-3.25-13.36 15.35-12.79 21.8-20.13 42.23-31.65 48.11-87.87 69.35-132.7 5.37-20.79 15.93-39.94 26.57-58.42 30.25-68.15 75.74-127.7 119.79-187.25z" style="stroke: rgb(0, 0, 0); stroke-width: 2.7004; fill: url(#pattern-0-22);"/>
    <path d="m600.25 670.26c18.22-46.29 53.38-81.98 83.84-120.28 8.15 3.15 12.28 13.68 8.57 21.64-41.18 115.88-70.96 235.46-97.53 355.5-11.1 39.12-16.46 79.28-20.31 119.68-1.2 6-2.44 12-2.52 18.2-10.16 67.5-28.79 133.3-43.29 200-18.84 59.4-47.83 115.6-86.46 164.6-12.21 6.1-17.55 22.3-31.26 25-21.84-62.4-3.88-129.7-10.05-193.9-0.66-26.2 0.07-52.4-0.36-78.5 16.31 18.5 38.64 0.4 51.07-13.2 19.31-25.2 26.77-56.8 36.65-86.4 37.74-137.25 59.67-279.29 111.65-412.34z" style="stroke: rgb(0, 0, 0); stroke-width: 2.7004; fill: url(#pattern-0-23);"/>
    <path d="m687.23 602.24c3.8-8.18 3.24-19.3 10.79-25.35 13.22 11.09 24.53 25.76 35.84 37.99-33.21 57-55.27 119.38-76.38 181.6-18.86 56.31-30.03 114.94-33.84 174.2-12.74 137.82-12.24 277.12-36.08 413.82-4.07 11.9-4.9 29.6-19.51 33.6-50.13 20.3-111.68 22.6-149.96 64.8-3.11-7.3-2.07-15.7-3.87-23.4 34.65-18.9 51.46-56.1 73.01-87.3 52.38-81.6 58.42-180.7 82.94-272.2 0.68-11.7 4.03-23.3 2.13-35 0.08-6.2 1.32-12.2 2.52-18.2 15.35-93.29 38.44-185.25 60.87-277.1 12.81-57.12 32.65-112.21 51.54-167.46z" style="stroke: rgb(0, 0, 0); stroke-width: 2.7004; fill: url(#pattern-0-24);"/>
    <path d="m466.46 614.53c3.37-2.87-1.57 5.66-0.29 5.49-18.38 52.61-25.75 108.34-43.12 161.21-5.52-50.02-8.47-101.3 0.06-151.17 15.77 4.81 31.68-5.84 43.35-15.53z" style="stroke: rgb(0, 0, 0); stroke-width: 2.7004; fill: url(#pattern-0-25);"/>
    <path d="m585.46 694.43c-1.84 10.73-9.58 27.5-12.58 40.47-34.93 108.85-52.83 222.17-83.9 332.1-9.35 31.5-15.99 64.8-34.27 92.7-8.54 10.5-17.71 22.3-31.5 25.7-10.84 3.3-22.39-8.2-19.97-19 5.27-40.3 5.35-81 9.68-121.4 0.13-8.7 8.03-14 12.31-20.8 32-32.76 62.26-70.93 72.21-116.75 12.2-37.78 20.19-77.93 41.04-112 11.95-35.19 27.04-69.97 46.98-101.02z" style="stroke: rgb(0, 0, 0); stroke-width: 2.7004; fill: url(#pattern-0-26);"/>
    <path d="m417.31 775.79c1.02 7.04 0.81 14.21-0.16 21.27-0.05-7.09 0.07-14.2 0.16-21.27z" style="stroke: rgb(0, 0, 0); stroke-width: 2.7004; fill: url(#pattern-0-27);"/>
    <path d="m417.38 858.96c0.68 3.89 1.07 7.83-0.03 11.73 0.04-3.93 0.06-7.84 0.03-11.73z" style="stroke: rgb(0, 0, 0); stroke-width: 2.7004; fill: url(#pattern-0-28);"/>
    <path d="m397.32 1214.7c0.87 7.5 0.67 15 0.45 22.6-1.16-7.5-0.69-15.1-0.45-22.6z" style="stroke: rgb(0, 0, 0); stroke-width: 2.7004; fill: url(#pattern-0-29);"/>
    <path d="m609.35 475.37c-17.33 39.62-44.58 80.73-62.53 122.44-6.19 13.03-8.38 27.87-17.64 39.38-27.27 45.63-35.96 98.97-53.44 148.54-12.93 30.02-22.79 65.69-53.32 82.56 3.25-23.65-16.83-49.47 1.57-70.37 19.44-65.1 26.57-134.38 55.61-196.33 15.55-16.07 23.02-37.59 32.51-57.37 12.53-9.39 26.97-17.27 34.89-31.48 12.61-1.66 24.75-5.76 35.94-11.76 10.05-6.93 12.91-23.25 26.41-25.61z" style="stroke: rgb(0, 0, 0); stroke-width: 2.7004; fill: url(#pattern-0-30);"/>
    <path d="m618.42 476.24c7.96 0.99 15.27 8.44 20.09 13.59-46.42 66.92-94.54 133.44-129.68 207.07 14.38-42.02 38.95-79.9 53.04-121.98 20.23-32.1 35.09-67.47 56.55-98.68z" style="stroke: rgb(0, 0, 0); stroke-width: 2.7004; fill: url(#pattern-0-31);"/>
    <path d="M 649.443 511.832 C 664.183 523.132 678.873 540.032 685.883 558.512 C 688.273 562.822 638.682 556.12 637.252 559.84 C 652.616 589.607 630.913 628.052 614.793 663.222 C 585.793 704.392 566.003 752.922 544.483 798.922 C 533.413 824.512 520.303 849.412 513.033 876.472 C 501.563 916.052 494.613 958.382 470.183 992.622 C 459.363 1007.252 447.803 1021.672 433.873 1033.572 C 429.163 1011.502 431.483 987.782 421.633 966.842 C 417.513 948.212 412.903 929.462 411.933 910.332 C 408.683 896.972 427.283 897.542 433.733 890.202 C 475.963 858.552 481.843 802.332 503.083 757.502 C 508.453 736.712 519.013 717.562 529.653 699.082 C 559.903 630.932 605.393 571.382 649.443 511.832 Z" style="stroke: rgb(0, 0, 0); stroke-width: 2.7004; fill: url(#pattern-0-32);"/>
    <path d="m600.25 670.26c18.22-46.29 53.38-81.98 83.84-120.28 8.15 3.15 12.28 13.68 8.57 21.64-41.18 115.88-70.96 235.46-97.53 355.5-11.1 39.12-16.46 79.28-20.31 119.68-1.2 6-2.44 12-2.52 18.2-10.16 67.5-28.79 133.3-43.29 200-18.84 59.4-47.83 115.6-86.46 164.6-12.21 6.1-17.55 22.3-31.26 25-21.84-62.4-3.88-129.7-10.05-193.9-0.66-26.2 0.07-52.4-0.36-78.5 16.31 18.5 38.64 0.4 51.07-13.2 19.31-25.2 26.77-56.8 36.65-86.4 37.74-137.25 59.67-279.29 111.65-412.34z" style="stroke: rgb(0, 0, 0); stroke-width: 2.7004; fill: url(#pattern-0-33);"/>
    <path d="M 687.23 602.24 C 691.03 594.06 693.169 616.84 700.719 610.79 C 713.939 621.88 722.55 602.65 733.86 614.88 C 700.65 671.88 678.59 734.26 657.48 796.48 C 638.62 852.79 627.45 911.42 623.64 970.68 C 610.9 1108.5 611.4 1247.8 587.56 1384.5 C 583.49 1396.4 582.66 1414.1 568.05 1418.1 C 517.92 1438.4 456.37 1440.7 418.09 1482.9 C 414.98 1475.6 416.02 1467.2 414.22 1459.5 C 448.87 1440.6 465.68 1403.4 487.23 1372.2 C 539.61 1290.6 545.65 1191.5 570.17 1100 C 570.85 1088.3 574.2 1076.7 572.3 1065 C 572.38 1058.8 573.62 1052.8 574.82 1046.8 C 590.17 953.51 613.26 861.55 635.69 769.7 C 648.5 712.58 668.34 657.49 687.23 602.24 L 687.23 602.24 Z" style="stroke: rgb(0, 0, 0); stroke-width: 2.7004; fill: url(#pattern-0-34);"/>
    <path d="m466.46 614.53c3.37-2.87-1.57 5.66-0.29 5.49-18.38 52.61-25.75 108.34-43.12 161.21-5.52-50.02-8.47-101.3 0.06-151.17 15.77 4.81 31.68-5.84 43.35-15.53z" style="stroke: rgb(0, 0, 0); stroke-width: 2.7004; fill: url(#pattern-0-35);"/>
    <path d="m585.46 694.43c-1.84 10.73-9.58 27.5-12.58 40.47-34.93 108.85-52.83 222.17-83.9 332.1-9.35 31.5-15.99 64.8-34.27 92.7-8.54 10.5-17.71 22.3-31.5 25.7-10.84 3.3-22.39-8.2-19.97-19 5.27-40.3 5.35-81 9.68-121.4 0.13-8.7 8.03-14 12.31-20.8 32-32.76 62.26-70.93 72.21-116.75 12.2-37.78 20.19-77.93 41.04-112 11.95-35.19 27.04-69.97 46.98-101.02z" style="stroke: rgb(0, 0, 0); stroke-width: 2.7004; fill: url(#pattern-0-36);"/>
    <path d="m417.31 775.79c1.02 7.04 0.81 14.21-0.16 21.27-0.05-7.09 0.07-14.2 0.16-21.27z" style="stroke: rgb(0, 0, 0); stroke-width: 2.7004; fill: url(#pattern-0-37);"/>
    <path d="m417.38 858.96c0.68 3.89 1.07 7.83-0.03 11.73 0.04-3.93 0.06-7.84 0.03-11.73z" style="stroke: rgb(0, 0, 0); stroke-width: 2.7004; fill: url(#pattern-0-38);"/>
    <path d="m397.32 1214.7c0.87 7.5 0.67 15 0.45 22.6-1.16-7.5-0.69-15.1-0.45-22.6z" style="stroke: rgb(0, 0, 0); stroke-width: 2.7004; fill: url(#pattern-0-39);"/>
  </g>
  <g transform="matrix(-0.171641, -0.13504, 0.009355, -0.031651, 325.627777, 803.789246)">
    <path d="m609.35 475.37c-17.33 39.62-44.58 80.73-62.53 122.44-6.19 13.03-8.38 27.87-17.64 39.38-27.27 45.63-35.96 98.97-53.44 148.54-12.93 30.02-22.79 65.69-53.32 82.56 3.25-23.65-16.83-49.47 1.57-70.37 19.44-65.1 26.57-134.38 55.61-196.33 15.55-16.07 23.02-37.59 32.51-57.37 12.53-9.39 26.97-17.27 34.89-31.48 12.61-1.66 24.75-5.76 35.94-11.76 10.05-6.93 12.91-23.25 26.41-25.61z" style="stroke: rgb(0, 0, 0); stroke-width: 2.7004; fill: url(#pattern-0-0);"/>
    <path d="M 618.42 479.601 C 626.38 480.589 633.69 488.02 638.51 493.157 C 592.09 559.905 543.97 626.254 508.83 699.695 C 523.21 657.783 547.78 620 561.87 578.028 C 582.1 546.011 596.96 510.731 618.42 479.601 Z" style="stroke: rgb(0, 0, 0); stroke-width: 2.7004; fill: url(#pattern-0-1);" transform="matrix(1, 0.000001, 0, 1, 0.000043, -0.000574)"/>
    <path d="m643.41 493.36c14.74 11.3 29.43 28.2 36.44 46.68 2.39 4.31-2.65 7.99-4.08 11.71-21.3 31.73-50.89 57.83-67.01 93-29 41.17-48.79 89.7-70.31 135.7-11.07 25.59-24.18 50.49-31.45 77.55-11.47 39.58-18.42 81.91-42.85 116.15-10.82 14.63-22.38 29.05-36.31 40.95-4.71-22.07-2.39-45.79-12.24-66.73-4.12-18.63-8.73-37.38-9.7-56.51-3.25-13.36 15.35-12.79 21.8-20.13 42.23-31.65 48.11-87.87 69.35-132.7 5.37-20.79 15.93-39.94 26.57-58.42 30.25-68.15 75.74-127.7 119.79-187.25z" style="stroke: rgb(0, 0, 0); stroke-width: 2.7004; fill: url(#pattern-0-2);"/>
    <path d="m600.25 670.26c18.22-46.29 53.38-81.98 83.84-120.28 8.15 3.15 12.28 13.68 8.57 21.64-41.18 115.88-70.96 235.46-97.53 355.5-11.1 39.12-16.46 79.28-20.31 119.68-1.2 6-2.44 12-2.52 18.2-10.16 67.5-28.79 133.3-43.29 200-18.84 59.4-47.83 115.6-86.46 164.6-12.21 6.1-17.55 22.3-31.26 25-21.84-62.4-3.88-129.7-10.05-193.9-0.66-26.2 0.07-52.4-0.36-78.5 16.31 18.5 38.64 0.4 51.07-13.2 19.31-25.2 26.77-56.8 36.65-86.4 37.74-137.25 59.67-279.29 111.65-412.34z" style="stroke: rgb(0, 0, 0); stroke-width: 2.7004; fill: url(#pattern-0-3);"/>
    <path d="M 687.23 605.278 C 691.03 597.119 690.47 586.027 698.02 579.993 C 711.24 591.054 695.858 641.757 707.168 653.956 C 673.958 710.809 678.59 736.959 657.48 799.019 C 638.62 855.185 627.45 913.664 623.64 972.772 C 610.9 1110.239 647.471 1056.918 623.631 1193.267 C 619.561 1205.136 622.827 1166.604 580.007 1310.022 C 529.877 1330.27 456.37 1441.586 418.09 1483.678 C 414.98 1476.397 416.02 1468.018 414.22 1460.338 C 448.87 1441.486 465.68 1404.382 487.23 1373.262 C 539.61 1291.871 545.65 1193.026 570.17 1101.76 C 570.85 1090.091 574.2 1078.52 572.3 1066.85 C 572.38 1060.666 573.62 1054.682 574.82 1048.697 C 590.17 955.646 613.26 863.922 635.69 772.308 C 648.5 715.335 668.34 660.386 687.23 605.278 L 687.23 605.278 Z" style="stroke: rgb(0, 0, 0); stroke-width: 2.7004; fill: url(#pattern-0-4);"/>
    <path d="M 466.46 617.537 C 469.83 614.674 464.89 623.182 466.17 623.012 C 447.79 675.487 440.42 731.074 423.05 783.809 C 417.53 733.917 414.58 682.769 423.11 633.027 C 438.88 637.824 454.79 627.202 466.46 617.537 Z" style="stroke: rgb(0, 0, 0); stroke-width: 2.7004; fill: url(#pattern-0-5);" transform="matrix(1, -0.000005, 0, 1, -0.000196, 0.002318)"/>
    <path d="M 585.46 697.231 C 583.62 707.934 575.88 724.661 572.88 737.598 C 537.95 846.168 520.05 959.197 488.98 1068.845 C 479.63 1100.264 472.99 1133.479 454.71 1161.307 C 446.17 1171.78 437 1183.55 423.21 1186.941 C 412.37 1190.233 400.82 1178.762 403.24 1167.99 C 408.51 1127.794 408.59 1087.198 412.92 1046.902 C 413.05 1038.224 420.95 1032.938 425.23 1026.155 C 457.23 993.479 487.49 955.407 497.44 909.705 C 509.64 872.022 517.63 831.975 538.48 797.992 C 550.43 762.893 565.52 728.202 585.46 697.231 Z" style="stroke: rgb(0, 0, 0); stroke-width: 2.7004; fill: url(#pattern-0-6);" transform="matrix(1, -0.000005, 0, 1, -0.000237, 0.002631)"/>
    <path d="M 417.31 778.383 C 418.33 785.405 418.12 792.556 417.15 799.598 C 417.1 792.526 417.22 785.435 417.31 778.383 Z" style="stroke: rgb(0, 0, 0); stroke-width: 2.7004; fill: url(#pattern-0-7);"/>
    <path d="M 417.38 861.339 C 418.06 865.219 418.45 869.149 417.35 873.039 C 417.39 869.119 417.41 865.219 417.38 861.339 Z" style="stroke: rgb(0, 0, 0); stroke-width: 2.7004; fill: url(#pattern-0-8);" transform="matrix(1, -0.000005, 0, 1, -0.000208, 0.002243)"/>
    <path d="M 397.32 1216.166 C 398.19 1223.647 397.99 1231.128 397.77 1238.708 C 396.61 1231.227 397.08 1223.647 397.32 1216.166 Z" style="stroke: rgb(0, 0, 0); stroke-width: 2.7004; fill: url(#pattern-0-9);"/>
    <path d="m609.35 475.37c-17.33 39.62-44.58 80.73-62.53 122.44-6.19 13.03-8.38 27.87-17.64 39.38-27.27 45.63-35.96 98.97-53.44 148.54-12.93 30.02-22.79 65.69-53.32 82.56 3.25-23.65-16.83-49.47 1.57-70.37 19.44-65.1 26.57-134.38 55.61-196.33 15.55-16.07 23.02-37.59 32.51-57.37 12.53-9.39 26.97-17.27 34.89-31.48 12.61-1.66 24.75-5.76 35.94-11.76 10.05-6.93 12.91-23.25 26.41-25.61z" style="stroke: rgb(0, 0, 0); stroke-width: 2.7004; fill: url(#pattern-0-10);"/>
    <path d="M 618.42 479.601 C 626.38 480.589 633.69 488.02 638.51 493.157 C 592.09 559.905 543.97 626.254 508.83 699.695 C 523.21 657.783 547.78 620 561.87 578.028 C 582.1 546.011 596.96 510.731 618.42 479.601 Z" style="stroke: rgb(0, 0, 0); stroke-width: 2.7004; fill: url(#pattern-0-11);" transform="matrix(1, 0.000001, 0, 1, 0.000043, -0.000574)"/>
    <path d="M 649.443 511.832 C 664.183 523.132 678.873 540.032 685.883 558.512 C 688.273 562.822 638.682 556.12 637.252 559.84 C 652.616 589.607 630.913 628.052 614.793 663.222 C 585.793 704.392 566.003 752.922 544.483 798.922 C 533.413 824.512 520.303 849.412 513.033 876.472 C 501.563 916.052 494.613 958.382 470.183 992.622 C 459.363 1007.252 447.803 1021.672 433.873 1033.572 C 429.163 1011.502 431.483 987.782 421.633 966.842 C 417.513 948.212 412.903 929.462 411.933 910.332 C 408.683 896.972 427.283 897.542 433.733 890.202 C 475.963 858.552 481.843 802.332 503.083 757.502 C 508.453 736.712 519.013 717.562 529.653 699.082 C 559.903 630.932 605.393 571.382 649.443 511.832 Z" style="stroke: rgb(0, 0, 0); stroke-width: 2.7004; fill: url(#pattern-0-12);"/>
    <path d="m600.25 670.26c18.22-46.29 53.38-81.98 83.84-120.28 8.15 3.15 12.28 13.68 8.57 21.64-41.18 115.88-70.96 235.46-97.53 355.5-11.1 39.12-16.46 79.28-20.31 119.68-1.2 6-2.44 12-2.52 18.2-10.16 67.5-28.79 133.3-43.29 200-18.84 59.4-47.83 115.6-86.46 164.6-12.21 6.1-17.55 22.3-31.26 25-21.84-62.4-3.88-129.7-10.05-193.9-0.66-26.2 0.07-52.4-0.36-78.5 16.31 18.5 38.64 0.4 51.07-13.2 19.31-25.2 26.77-56.8 36.65-86.4 37.74-137.25 59.67-279.29 111.65-412.34z" style="stroke: rgb(0, 0, 0); stroke-width: 2.7004; fill: url(#pattern-0-13);"/>
    <path d="M 651.818 678.46 C 655.618 670.301 686.167 688.399 693.717 682.365 C 706.937 693.426 702.532 632.739 713.842 644.938 C 680.632 701.792 723.903 865.774 722.033 931.282 C 709.588 1367.121 651.034 755.16 647.224 814.268 C 634.484 951.735 725.627 782.455 692.279 1269.342 C 688.209 1281.212 655.862 1181.057 618.656 1164.929 C 583.519 869.438 456.37 1441.586 418.09 1483.678 C 414.98 1476.396 405.71 1279.338 403.91 1271.657 C 429.123 1932.493 363.802 1868.219 472.896 1569.92 C 580.722 1275.088 593.349 951.281 617.869 860.016 C 618.549 848.346 616.944 877.239 615.044 865.569 C 615.124 859.385 633.476 838.718 634.676 832.734 C 650.026 739.683 613.26 863.923 635.69 772.308 C 648.5 715.335 656.383 769.409 675.273 714.301 L 651.818 678.46 Z" style="stroke: rgb(0, 0, 0); stroke-width: 2.7004; fill: url(#pattern-0-14);"/>
    <path d="M 466.46 617.537 C 469.83 614.674 464.89 623.182 466.17 623.013 C 447.79 675.487 440.42 731.074 423.05 783.809 C 417.53 733.917 414.58 682.769 423.11 633.027 C 438.88 637.824 454.79 627.202 466.46 617.537 Z" style="stroke: rgb(0, 0, 0); stroke-width: 2.7004; fill: url(#pattern-0-15);" transform="matrix(1, -0.000005, 0, 1, -0.000196, 0.002318)"/>
    <path d="M 585.46 697.232 C 583.62 707.934 575.88 724.661 572.88 737.598 C 537.95 846.168 520.05 959.198 488.98 1068.845 C 479.63 1100.264 472.99 1133.479 454.71 1161.307 C 446.17 1171.78 437 1183.55 423.21 1186.941 C 412.37 1190.233 400.82 1178.762 403.24 1167.99 C 408.51 1127.793 408.59 1087.198 412.92 1046.901 C 413.05 1038.224 420.95 1032.937 425.23 1026.155 C 457.23 993.479 487.49 955.407 497.44 909.705 C 509.64 872.022 517.63 831.975 538.48 797.992 C 550.43 762.893 565.52 728.202 585.46 697.232 Z" style="stroke: rgb(0, 0, 0); stroke-width: 2.7004; fill: url(#pattern-0-16);"/>
    <path d="M 417.31 778.383 C 418.33 785.405 418.12 792.556 417.15 799.598 C 417.1 792.526 417.22 785.435 417.31 778.383 Z" style="stroke: rgb(0, 0, 0); stroke-width: 2.7004; fill: url(#pattern-0-17);"/>
    <path d="M 417.38 861.339 C 418.06 865.219 418.45 869.149 417.35 873.039 C 417.39 869.119 417.41 865.219 417.38 861.339 Z" style="stroke: rgb(0, 0, 0); stroke-width: 2.7004; fill: url(#pattern-0-18);" transform="matrix(1, -0.000005, 0, 1, -0.000208, 0.002243)"/>
    <path d="M 397.32 1216.166 C 398.19 1223.647 397.99 1231.128 397.77 1238.708 C 396.61 1231.228 397.08 1223.647 397.32 1216.166 Z" style="stroke: rgb(0, 0, 0); stroke-width: 2.7004; fill: url(#pattern-0-19);"/>
  </g>
  <rect transform="matrix(NaN, NaN, NaN, NaN, NaN, NaN)" style="fill: url(#pattern-0-41);"/>
</svg>