<?xml version="1.0" encoding="utf-8"?>
<svg class="shirt" width="86" height="380" viewBox="202.715 584.407 86.5933 380.048" preserveAspectRatio="xMidYMax" xmlns="http://www.w3.org/2000/svg" xmlns:xlink="http://www.w3.org/1999/xlink">
  <defs id="svgEditorDefs">
    <path id="svgEditorClosePathDefs" fill="black" style="stroke-width: 0px; stroke: none;" class="clothes"/>
    <pattern id="pattern-0" x="0" y="0" width="20" height="20" patternUnits="userSpaceOnUse" viewBox="0 0 100 100">
      <g transform="matrix(1.172124, -2.004281, 0, -1.060937, -319.903198, 1249.762329)">
        <path id="rect1307" style="fill:#000000" d="m68.844 37.193h25v60h-25v-60z"/>
        <path id="rect2188" style="fill:#010001" d="m103.5 37.193h25v60h-25v-60z"/>
        <path id="rect2190" style="fill:#020002" d="m136.68 37.193h25v60h-25v-60z"/>
        <path id="rect2192" style="fill:#030003" d="m171.33 37.193h25v60h-25v-60z"/>
        <path id="rect2194" style="fill:#040004" d="m206.26 37.193h25v60h-25v-60z"/>
        <path id="rect2196" style="fill:#050005" d="m239.26 37.193h25v60h-25v-60z"/>
        <path id="rect2198" style="fill:#060006" d="m275.93 37.193h25v60h-25v-60z"/>
        <path id="rect2200" style="fill:#070007" d="m308.74 37.193h25v60h-25v-60z"/>
        <path id="rect2204" style="fill:#080008" d="m342.23 37.193h25v60h-25v-60z"/>
        <path id="rect2206" style="fill:#090009" d="m376.88 37.193h25v60h-25v-60z"/>
        <path id="rect2208" style="fill:#0a000a" d="m410.98 37.193h25v60h-25v-60z"/>
        <path id="rect2210" style="fill:#0b000b" d="m445.63 37.193h25v60h-25v-60z"/>
        <path id="rect2212" style="fill:#0c000c" d="m480.56 37.193h25v60h-25v-60z"/>
        <path id="rect2214" style="fill:#0d000d" d="m513.37 37.193h25v60h-25v-60z"/>
        <path id="rect2216" style="fill:#0e000e" d="m546.56 37.193h25v60h-25v-60z"/>
        <path id="rect2218" style="fill:#0f000f" d="m581.21 37.193h25v60h-25v-60z"/>
        <path id="rect3191" style="fill:#100010" d="m68.844 107.19h25v60h-25v-60z"/>
        <path id="rect3193" style="fill:#110011" d="m103.5 107.19h25v60h-25v-60z"/>
        <path id="rect3195" style="fill:#120012" d="m136.68 107.19h25v60h-25v-60z"/>
        <path id="rect3197" style="fill:#130013" d="m171.33 107.19h25v60h-25v-60z"/>
        <path id="rect3199" style="fill:#140014" d="m206.26 107.19h25v60h-25v-60z"/>
        <path id="rect3201" style="fill:#150015" d="m239.26 107.19h25v60h-25v-60z"/>
        <path id="rect3203" style="fill:#160016" d="m275.93 107.19h25v60h-25v-60z"/>
        <path id="rect3205" style="fill:#170017" d="m308.74 107.19h25v60h-25v-60z"/>
        <path id="rect3207" style="fill:#180018" d="m342.23 107.19h25v60h-25v-60z"/>
        <path id="rect3209" style="fill:#190019" d="m376.88 107.19h25v60h-25v-60z"/>
        <path id="rect3211" style="fill:#1a001a" d="m410.98 107.19h25v60h-25v-60z"/>
        <path id="rect3213" style="fill:#1b001b" d="m445.63 107.19h25v60h-25v-60z"/>
        <path id="rect3215" style="fill:#1c001c" d="m480.56 107.19h25v60h-25v-60z"/>
        <path id="rect3217" style="fill:#1d001d" d="m513.37 107.19h25v60h-25v-60z"/>
        <path id="rect3219" style="fill:#1e001e" d="m546.56 107.19h25v60h-25v-60z"/>
        <path id="rect3221" style="fill:#1f001f" d="m581.21 107.19h25v60h-25v-60z"/>
        <path id="rect4096" style="fill:#200020" d="m68.844 175.19h25v60h-25v-60z"/>
        <path id="rect4098" style="fill:#210021" d="m103.5 175.19h25v60h-25v-60z"/>
        <path id="rect4100" style="fill:#220022" d="m136.68 175.19h25v60h-25v-60z"/>
        <path id="rect4102" style="fill:#230023" d="m171.33 175.19h25v60h-25v-60z"/>
        <path id="rect4104" style="fill:#240024" d="m206.26 175.19h25v60h-25v-60z"/>
        <path id="rect4106" style="fill:#250025" d="m239.26 175.19h25v60h-25v-60z"/>
        <path id="rect4108" style="fill:#260026" d="m275.93 175.19h25v60h-25v-60z"/>
        <path id="rect4110" style="fill:#270027" d="m308.74 175.19h25v60h-25v-60z"/>
        <path id="rect4112" style="fill:#280028" d="m342.23 175.19h25v60h-25v-60z"/>
        <path id="rect4114" style="fill:#290029" d="m376.88 175.19h25v60h-25v-60z"/>
        <path id="rect4116" style="fill:#2a002a" d="m410.98 175.19h25v60h-25v-60z"/>
        <path id="rect4118" style="fill:#2b002b" d="m445.63 175.19h25v60h-25v-60z"/>
        <path id="rect4120" style="fill:#2c002c" d="m480.56 175.19h25v60h-25v-60z"/>
        <path id="rect4122" style="fill:#2d002d" d="m513.37 175.19h25v60h-25v-60z"/>
        <path id="rect4124" style="fill:#2e002e" d="m546.56 175.19h25v60h-25v-60z"/>
        <path id="rect4126" style="fill:#2f002f" d="m581.21 175.19h25v60h-25v-60z"/>
        <path id="rect4128" style="fill:#300030" d="m68.844 244.19h25v60h-25v-60z"/>
        <path id="rect4130" style="fill:#310031" d="m103.5 244.19h25v60h-25v-60z"/>
        <path id="rect4132" style="fill:#320032" d="m136.68 244.19h25v60h-25v-60z"/>
        <path id="rect4134" style="fill:#330033" d="m171.33 244.19h25v60h-25v-60z"/>
        <path id="rect4136" style="fill:#340034" d="m206.26 244.19h25v60h-25v-60z"/>
        <path id="rect4138" style="fill:#350035" d="m239.26 244.19h25v60h-25v-60z"/>
        <path id="rect4140" style="fill:#360036" d="m275.93 244.19h25v60h-25v-60z"/>
        <path id="rect4142" style="fill:#370037" d="m308.74 244.19h25v60h-25v-60z"/>
        <path id="rect4144" style="fill:#380038" d="m342.23 244.19h25v60h-25v-60z"/>
        <path id="rect4146" style="fill:#390039" d="m376.88 244.19h25v60h-25v-60z"/>
        <path id="rect4148" style="fill:#3a003a" d="m410.98 244.19h25v60h-25v-60z"/>
        <path id="rect4150" style="fill:#3b003b" d="m445.63 244.19h25v60h-25v-60z"/>
        <path id="rect4152" style="fill:#3c003c" d="m480.56 244.19h25v60h-25v-60z"/>
        <path id="rect4154" style="fill:#3d003d" d="m513.37 244.19h25v60h-25v-60z"/>
        <path id="rect4156" style="fill:#3e003e" d="m546.56 244.19h25v60h-25v-60z"/>
        <path id="rect4158" style="fill:#3f003f" d="m581.21 244.19h25v60h-25v-60z"/>
        <path id="rect4168" style="fill:#400040" d="m68.844 313.19h25v60h-25v-60z"/>
        <path id="rect4170" style="fill:#410041" d="m103.5 313.19h25v60h-25v-60z"/>
        <path id="rect4172" style="fill:#420042" d="m136.68 313.19h25v60h-25v-60z"/>
        <path id="rect4174" style="fill:#430043" d="m171.33 313.19h25v60h-25v-60z"/>
        <path id="rect4176" style="fill:#440044" d="m206.26 313.19h25v60h-25v-60z"/>
        <path id="rect4178" style="fill:#450045" d="m239.26 313.19h25v60h-25v-60z"/>
        <path id="rect4180" style="fill:#460046" d="m275.93 313.19h25v60h-25v-60z"/>
        <path id="rect4182" style="fill:#470047" d="m308.74 313.19h25v60h-25v-60z"/>
        <path id="rect4184" style="fill:#480048" d="m342.23 313.19h25v60h-25v-60z"/>
        <path id="rect4186" style="fill:#490049" d="m376.88 313.19h25v60h-25v-60z"/>
        <path id="rect4188" style="fill:#4a004a" d="m410.98 313.19h25v60h-25v-60z"/>
        <path id="rect4190" style="fill:#4b004b" d="m445.63 313.19h25v60h-25v-60z"/>
        <path id="rect4192" style="fill:#4c004c" d="m480.56 313.19h25v60h-25v-60z"/>
        <path id="rect4194" style="fill:#4d004d" d="m513.37 313.19h25v60h-25v-60z"/>
        <path id="rect4196" style="fill:#4e004e" d="m546.56 313.19h25v60h-25v-60z"/>
        <path id="rect4198" style="fill:#4f004f" d="m581.21 313.19h25v60h-25v-60z"/>
        <path id="rect4200" style="fill:#500050" d="m68.844 383.19h25v60h-25v-60z"/>
        <path id="rect4202" style="fill:#510051" d="m103.5 383.19h25v60h-25v-60z"/>
        <path id="rect4204" style="fill:#520052" d="m136.68 383.19h25v60h-25v-60z"/>
        <path id="rect4206" style="fill:#530053" d="m171.33 383.19h25v60h-25v-60z"/>
        <path id="rect4208" style="fill:#540054" d="m206.26 383.19h25v60h-25v-60z"/>
        <path id="rect4210" style="fill:#550055" d="m239.26 383.19h25v60h-25v-60z"/>
        <path id="rect4212" style="fill:#560056" d="m275.93 383.19h25v60h-25v-60z"/>
        <path id="rect4214" style="fill:#570057" d="m308.74 383.19h25v60h-25v-60z"/>
        <path id="rect4216" style="fill:#580058" d="m342.23 383.19h25v60h-25v-60z"/>
        <path id="rect4218" style="fill:#590059" d="m376.88 383.19h25v60h-25v-60z"/>
        <path id="rect4220" style="fill:#5a005a" d="m410.98 383.19h25v60h-25v-60z"/>
        <path id="rect4222" style="fill:#5b005b" d="m445.63 383.19h25v60h-25v-60z"/>
        <path id="rect4224" style="fill:#5c005c" d="m480.56 383.19h25v60h-25v-60z"/>
        <path id="rect4226" style="fill:#5d005d" d="m513.37 383.19h25v60h-25v-60z"/>
        <path id="rect4228" style="fill:#5e005e" d="m546.56 383.19h25v60h-25v-60z"/>
        <path id="rect4230" style="fill:#5f005f" d="m581.21 383.19h25v60h-25v-60z"/>
        <path id="rect4232" style="fill:#600060" d="m68.844 450.19h25v60h-25v-60z"/>
        <path id="rect4234" style="fill:#610061" d="m103.5 450.19h25v60h-25v-60z"/>
        <path id="rect4236" style="fill:#620062" d="m136.68 450.19h25v60h-25v-60z"/>
        <path id="rect4238" style="fill:#630063" d="m171.33 450.19h25v60h-25v-60z"/>
        <path id="rect4240" style="fill:#640064" d="m206.26 450.19h25v60h-25v-60z"/>
        <path id="rect4242" style="fill:#650065" d="m239.26 450.19h25v60h-25v-60z"/>
        <path id="rect4244" style="fill:#660066" d="m275.93 450.19h25v60h-25v-60z"/>
        <path id="rect4246" style="fill:#670067" d="M 302.927 437.624 L 327.927 437.624 L 327.927 497.624 L 302.927 497.624 L 302.927 437.624 Z"/>
        <path id="rect4248" style="fill:#680068" d="m342.23 450.19h25v60h-25v-60z"/>
        <path id="rect4250" style="fill:#690069" d="m376.88 450.19h25v60h-25v-60z"/>
        <path id="rect4252" style="fill:#6a006a" d="m410.98 450.19h25v60h-25v-60z"/>
        <path id="rect4254" style="fill:#6b006b" d="m445.63 450.19h25v60h-25v-60z"/>
        <path id="rect4256" style="fill:#6c006c" d="m480.56 450.19h25v60h-25v-60z"/>
        <path id="rect4258" style="fill:#6d006d" d="m513.37 450.19h25v60h-25v-60z"/>
        <path id="rect4260" style="fill:#6e006e" d="m546.56 450.19h25v60h-25v-60z"/>
        <path id="rect4262" style="fill:#6f006f" d="m581.21 450.19h25v60h-25v-60z"/>
        <path id="rect4264" style="fill:#700070" d="m68.844 519.19h25v60h-25v-60z"/>
        <path id="rect4266" style="fill:#710071" d="m103.5 519.19h25v60h-25v-60z"/>
        <path id="rect4268" style="fill:#720072" d="m136.68 519.19h25v60h-25v-60z"/>
        <path id="rect4270" style="fill:#730073" d="m171.33 519.19h25v60h-25v-60z"/>
        <path id="rect4272" style="fill:#740074" d="m206.26 519.19h25v60h-25v-60z"/>
        <path id="rect4274" style="fill:#750075" d="m239.26 519.19h25v60h-25v-60z"/>
        <path id="rect4276" style="fill:#760076" d="m275.93 519.19h25v60h-25v-60z"/>
        <path id="rect4278" style="fill:#770077" d="m308.74 519.19h25v60h-25v-60z"/>
        <path id="rect4280" style="fill:#780078" d="m342.23 519.19h25v60h-25v-60z"/>
        <path id="rect4282" style="fill:#790079" d="m376.88 519.19h25v60h-25v-60z"/>
        <path id="rect4284" style="fill:#7a007a" d="m410.98 519.19h25v60h-25v-60z"/>
        <path id="rect4286" style="fill:#7b007b" d="m445.63 519.19h25v60h-25v-60z"/>
        <path id="rect4288" style="fill:#7c007c" d="m480.56 519.19h25v60h-25v-60z"/>
        <path id="rect4290" style="fill:#7d007d" d="m513.37 519.19h25v60h-25v-60z"/>
        <path id="rect4292" style="fill:#7e007e" d="m546.56 519.19h25v60h-25v-60z"/>
        <path id="rect4294" style="fill:#7f007f" d="m581.21 519.19h25v60h-25v-60z"/>
        <path id="rect4314" style="fill:#800080" d="m68.844 587.19h25v60h-25v-60z"/>
        <path id="rect4316" style="fill:#810081" d="m103.5 587.19h25v60h-25v-60z"/>
        <path id="rect4318" style="fill:#820082" d="m136.68 587.19h25v60h-25v-60z"/>
        <path id="rect4320" style="fill:#830083" d="m171.33 587.19h25v60h-25v-60z"/>
        <path id="rect4322" style="fill:#840084" d="m206.26 587.19h25v60h-25v-60z"/>
        <path id="rect4324" style="fill:#850085" d="m239.26 587.19h25v60h-25v-60z"/>
        <path id="rect4326" style="fill:#860086" d="M 275.93 587.19 L 300.93 587.19 L 300.93 647.19 L 275.93 647.19 L 275.93 587.19 Z" transform="matrix(1.963207, -3.416994, 0.713432, -0.73237, -718.141074, 2054.76506)"/>
        <path id="rect4328" style="fill:#870087" d="m308.74 587.19h25v60h-25v-60z"/>
        <path id="rect4330" style="fill:#880088" d="m342.23 587.19h25v60h-25v-60z"/>
        <path id="rect4332" style="fill:#890089" d="m376.88 587.19h25v60h-25v-60z"/>
        <path id="rect4334" style="fill:#8a008a" d="m410.98 587.19h25v60h-25v-60z"/>
        <path id="rect4336" style="fill:#8b008b" d="m445.63 587.19h25v60h-25v-60z"/>
        <path id="rect4338" style="fill:#8c008c" d="m480.56 587.19h25v60h-25v-60z"/>
        <path id="rect4340" style="fill:#8d008d" d="m513.37 587.19h25v60h-25v-60z"/>
        <path id="rect4342" style="fill:#8e008e" d="m546.56 587.19h25v60h-25v-60z"/>
        <path id="rect4344" style="fill:#8f008f" d="m581.21 587.19h25v60h-25v-60z"/>
        <path id="rect4346" style="fill:#900090" d="m68.844 657.19h25v60h-25v-60z"/>
        <path id="rect4348" style="fill:#910091" d="m103.5 657.19h25v60h-25v-60z"/>
        <path id="rect4350" style="fill:#920092" d="m136.68 657.19h25v60h-25v-60z"/>
        <path id="rect4352" style="fill:#930093" d="m171.33 657.19h25v60h-25v-60z"/>
        <path id="rect4354" style="fill:#940094" d="m206.26 657.19h25v60h-25v-60z"/>
        <path id="rect4356" style="fill:#950095" d="m239.26 657.19h25v60h-25v-60z"/>
        <path id="rect4358" style="fill:#960096" d="M 275.93 657.19 C 281.823 651.297 300.93 657.19 300.93 657.19 L 300.93 717.19 L 275.93 717.19 C 275.93 717.19 261.788 671.332 275.93 657.19 Z"/>
        <path id="rect4360" style="fill:#970097" d="m308.74 657.19h25v60h-25v-60z"/>
        <path id="rect4362" style="fill:#980098" d="m342.23 657.19h25v60h-25v-60z"/>
        <path id="rect4364" style="fill:#990099" d="m376.88 657.19h25v60h-25v-60z"/>
        <path id="rect4366" style="fill:#9a009a" d="m410.98 657.19h25v60h-25v-60z"/>
        <path id="rect4368" style="fill:#9b009b" d="m445.63 657.19h25v60h-25v-60z"/>
        <path id="rect4370" style="fill:#9c009c" d="m480.56 657.19h25v60h-25v-60z"/>
        <path id="rect4372" style="fill:#9d009d" d="m513.37 657.19h25v60h-25v-60z"/>
        <path id="rect4374" style="fill:#9e009e" d="m546.56 657.19h25v60h-25v-60z"/>
        <path id="rect4376" style="fill:#9f009f" d="m581.21 657.19h25v60h-25v-60z"/>
        <path id="rect4378" style="fill:#a000a0" d="m68.844 724.19h25v60h-25v-60z"/>
        <path id="rect4380" style="fill:#a100a1" d="m103.5 724.19h25v60h-25v-60z"/>
        <path id="rect4382" style="fill:#a200a2" d="m136.68 724.19h25v60h-25v-60z"/>
        <path id="rect4384" style="fill:#a300a3" d="m171.33 724.19h25v60h-25v-60z"/>
        <path id="rect4386" style="fill:#a400a4" d="m206.26 724.19h25v60h-25v-60z"/>
        <path id="rect4388" style="fill:#a500a5" d="m239.26 724.19h25v60h-25v-60z"/>
        <path id="rect4390" style="fill:#a600a6" d="m275.93 724.19h25v60h-25v-60z"/>
        <path id="rect4392" style="fill:#a700a7" d="m308.74 724.19h25v60h-25v-60z"/>
        <path id="rect4394" style="fill:#a800a8" d="m342.23 724.19h25v60h-25v-60z"/>
        <path id="rect4396" style="fill:#a900a9" d="m376.88 724.19h25v60h-25v-60z"/>
        <path id="rect4398" style="fill:#aa00aa" d="m410.98 724.19h25v60h-25v-60z"/>
        <path id="rect4400" style="fill:#ab00ab" d="m445.63 724.19h25v60h-25v-60z"/>
        <path id="rect4402" style="fill:#ac00ac" d="m480.56 724.19h25v60h-25v-60z"/>
        <path id="rect4404" style="fill:#ad00ad" d="m513.37 724.19h25v60h-25v-60z"/>
        <path id="rect4406" style="fill:#ae00ae" d="m546.56 724.19h25v60h-25v-60z"/>
        <path id="rect4408" style="fill:#af00af" d="m581.21 724.19h25v60h-25v-60z"/>
        <path id="rect4410" style="fill:#b000b0" d="m68.844 794.19h25v60h-25v-60z"/>
        <path id="rect4412" style="fill:#b100b1" d="m103.5 794.19h25v60h-25v-60z"/>
        <path id="rect4414" style="fill:#b200b2" d="m136.68 794.19h25v60h-25v-60z"/>
        <path id="rect4416" style="fill:#b300b3" d="m171.33 794.19h25v60h-25v-60z"/>
        <path id="rect4418" style="fill:#b400b4" d="m206.26 794.19h25v60h-25v-60z"/>
        <path id="rect4420" style="fill:#b500b5" d="m239.26 794.19h25v60h-25v-60z"/>
        <path id="rect4422" style="fill:#b600b6" d="m275.93 794.19h25v60h-25v-60z"/>
        <path id="rect4424" style="fill:#b700b7" d="m308.74 794.19h25v60h-25v-60z"/>
        <path id="rect4426" style="fill:#b800b8" d="m342.23 794.19h25v60h-25v-60z"/>
        <path id="rect4428" style="fill:#b900b9" d="m376.88 794.19h25v60h-25v-60z"/>
        <path id="rect4430" style="fill:#ba00ba" d="m410.98 794.19h25v60h-25v-60z"/>
        <path id="rect4432" style="fill:#bb00bb" d="m445.63 794.19h25v60h-25v-60z"/>
        <path id="rect4434" style="fill:#bc00bc" d="m480.56 794.19h25v60h-25v-60z"/>
        <path id="rect4436" style="fill:#bd00bd" d="m513.37 794.19h25v60h-25v-60z"/>
        <path id="rect4438" style="fill:#be00be" d="m546.56 794.19h25v60h-25v-60z"/>
        <path id="rect4440" style="fill:#bf00bf" d="m581.21 794.19h25v60h-25v-60z"/>
        <path id="rect4442" style="fill:#c000c0" d="m68.844 862.19h25v60h-25v-60z"/>
        <path id="rect4444" style="fill:#c100c1" d="m103.5 862.19h25v60h-25v-60z"/>
        <path id="rect4446" style="fill:#c200c2" d="m136.68 862.19h25v60h-25v-60z"/>
        <path id="rect4448" style="fill:#c300c3" d="m171.33 862.19h25v60h-25v-60z"/>
        <path id="rect4450" style="fill:#c400c4" d="m206.26 862.19h25v60h-25v-60z"/>
        <path id="rect4452" style="fill:#c500c5" d="m239.26 862.19h25v60h-25v-60z"/>
        <path id="rect4454" style="fill:#c600c6" d="m275.93 862.19h25v60h-25v-60z"/>
        <path id="rect4456" style="fill:#c700c7" d="m308.74 862.19h25v60h-25v-60z"/>
        <path id="rect4458" style="fill:#c800c8" d="m342.23 862.19h25v60h-25v-60z"/>
        <path id="rect4460" style="fill:#c900c9" d="m376.88 862.19h25v60h-25v-60z"/>
        <path id="rect4462" style="fill:#ca00ca" d="m410.98 862.19h25v60h-25v-60z"/>
        <path id="rect4464" style="fill:#cb00cb" d="m445.63 862.19h25v60h-25v-60z"/>
        <path id="rect4466" style="fill:#cc00cc" d="m480.56 862.19h25v60h-25v-60z"/>
        <path id="rect4468" style="fill:#cd00cd" d="m513.37 862.19h25v60h-25v-60z"/>
        <path id="rect4470" style="fill:#ce00ce" d="m546.56 862.19h25v60h-25v-60z"/>
        <path id="rect4472" style="fill:#cf00cf" d="m581.21 862.19h25v60h-25v-60z"/>
        <path id="rect4474" style="fill:#d000d0" d="m68.844 931.19h25v60h-25v-60z"/>
        <path id="rect4476" style="fill:#d100d1" d="m103.5 931.19h25v60h-25v-60z"/>
        <path id="rect4478" style="fill:#d200d2" d="m136.68 931.19h25v60h-25v-60z"/>
        <path id="rect4480" style="fill:#d300d3" d="m171.33 931.19h25v60h-25v-60z"/>
        <path id="rect4482" style="fill:#d400d4" d="m206.26 931.19h25v60h-25v-60z"/>
        <path id="rect4484" style="fill:#d500d5" d="m239.26 931.19h25v60h-25v-60z"/>
        <path id="rect4486" style="fill:#d600d6" d="m275.93 931.19h25v60h-25v-60z"/>
        <path id="rect4488" style="fill:#d700d7" d="m308.74 931.19h25v60h-25v-60z"/>
        <path id="rect4490" style="fill:#d800d8" d="m342.23 931.19h25v60h-25v-60z"/>
        <path id="rect4492" style="fill:#d900d9" d="m376.88 931.19h25v60h-25v-60z"/>
        <path id="rect4494" style="fill:#da00da" d="m410.98 931.19h25v60h-25v-60z"/>
        <path id="rect4496" style="fill:#db00db" d="m445.63 931.19h25v60h-25v-60z"/>
        <path id="rect4498" style="fill:#dc00dc" d="m480.56 931.19h25v60h-25v-60z"/>
        <path id="rect4500" style="fill:#dd00dd" d="m513.37 931.19h25v60h-25v-60z"/>
        <path id="rect4502" style="fill:#de00de" d="m546.56 931.19h25v60h-25v-60z"/>
        <path id="rect4504" style="fill:#df00df" d="m581.21 931.19h25v60h-25v-60z"/>
        <path id="rect4506" style="fill:#e000e0" d="m68.844 999.19h25v60h-25v-60z"/>
        <path id="rect4508" style="fill:#e100e1" d="m103.5 999.19h25v60h-25v-60z"/>
        <path id="rect4510" style="fill:#e200e2" d="m136.68 999.19h25v60h-25v-60z"/>
        <path id="rect4512" style="fill:#e300e3" d="m171.33 999.19h25v60h-25v-60z"/>
        <path id="rect4514" style="fill:#e400e4" d="m206.26 999.19h25v60h-25v-60z"/>
        <path id="rect4516" style="fill:#e500e5" d="m239.26 999.19h25v60h-25v-60z"/>
        <path id="rect4518" style="fill:#e600e6" d="m275.93 999.19h25v60h-25v-60z"/>
        <path id="rect4520" style="fill:#e700e7" d="m308.74 999.19h25v60h-25v-60z"/>
        <path id="rect4522" style="fill:#e800e8" d="m342.23 999.19h25v60h-25v-60z"/>
        <path id="rect4524" style="fill:#e900e9" d="m376.88 999.19h25v60h-25v-60z"/>
        <path id="rect4526" style="fill:#ea00ea" d="m410.98 999.19h25v60h-25v-60z"/>
        <path id="rect4528" style="fill:#eb00eb" d="m445.63 999.19h25v60h-25v-60z"/>
        <path id="rect4530" style="fill:#ec00ec" d="m480.56 999.19h25v60h-25v-60z"/>
        <path id="rect4532" style="fill:#ed00ed" d="m513.37 999.19h25v60h-25v-60z"/>
        <path id="rect4534" style="fill:#ee00ee" d="m546.56 999.19h25v60h-25v-60z"/>
        <path id="rect4536" style="fill:#ef00ef" d="m581.21 999.19h25v60h-25v-60z"/>
        <path id="rect4538" style="fill:#f000f0" d="m68.844 1069.2h25v60h-25v-60z"/>
        <path id="rect4540" style="fill:#f100f1" d="m103.5 1069.2h25v60h-25v-60z"/>
        <path id="rect4542" style="fill:#f200f2" d="m136.68 1069.2h25v60h-25v-60z"/>
        <path id="rect4544" style="fill:#f300f3" d="m171.33 1069.2h25v60h-25v-60z"/>
        <path id="rect4546" style="fill:#f400f4" d="m206.26 1069.2h25v60h-25v-60z"/>
        <path id="rect4548" style="fill:#f500f5" d="m239.26 1069.2h25v60h-25v-60z"/>
        <path id="rect4550" style="fill:#f600f6" d="m275.93 1069.2h25v60h-25v-60z"/>
        <path id="rect4552" style="fill:#f700f7" d="m308.74 1069.2h25v60h-25v-60z"/>
        <path id="rect4554" style="fill:#f800f8" d="m342.23 1069.2h25v60h-25v-60z"/>
        <path id="rect4556" style="fill:#f900f9" d="m376.88 1069.2h25v60h-25v-60z"/>
        <path id="rect4558" style="fill:#fa00fa" d="m410.98 1069.2h25v60h-25v-60z"/>
        <path id="rect4560" style="fill:#fb00fb" d="m445.63 1069.2h25v60h-25v-60z"/>
        <path id="rect4562" style="fill:#fc00fc" d="m480.56 1069.2h25v60h-25v-60z"/>
        <path id="rect4564" style="fill:#fd00fd" d="m513.37 1069.2h25v60h-25v-60z"/>
        <path id="rect4566" style="fill:#fe00fe" d="m546.56 1069.2h25v60h-25v-60z"/>
        <path id="rect4568" style="fill:#ff00ff" d="m581.21 1069.2h25v60h-25v-60z"/>
        <path id="text1618" d="m81.44 14.891c0-1.354 0.138-2.443 0.414-3.266 0.281-0.828 0.695-1.466 1.242-1.914 0.552-0.448 1.245-0.672 2.078-0.672 0.615 0 1.154 0.125 1.618 0.375 0.463 0.245 0.846 0.602 1.148 1.07 0.302 0.464 0.539 1.032 0.711 1.704 0.172 0.666 0.258 1.567 0.258 2.703 0 1.343-0.138 2.429-0.414 3.258-0.276 0.822-0.69 1.46-1.242 1.914-0.547 0.448-1.24 0.671-2.079 0.671-1.104 0-1.971-0.395-2.601-1.187-0.755-0.953-1.133-2.505-1.133-4.656m1.445 0c0 1.88 0.219 3.133 0.657 3.758 0.442 0.619 0.987 0.929 1.632 0.929 0.646 0 1.188-0.312 1.625-0.937 0.443-0.625 0.665-1.875 0.665-3.75 0-1.886-0.222-3.138-0.665-3.758-0.437-0.62-0.984-0.93-1.64-0.93-0.646 0-1.162 0.274-1.547 0.821-0.484 0.697-0.727 1.987-0.727 3.867m34.95 5.648h-1.41v-8.961c-0.34 0.323-0.78 0.646-1.34 0.969-0.54 0.323-1.04 0.565-1.47 0.727v-1.36c0.78-0.37 1.47-0.818 2.06-1.344s1-1.036 1.25-1.531h0.91v11.5m37.62-1.351v1.351h-7.57c-0.01-0.338 0.04-0.664 0.16-0.976 0.2-0.516 0.5-1.024 0.93-1.524 0.42-0.5 1.04-1.078 1.84-1.734 1.24-1.021 2.09-1.828 2.52-2.422 0.44-0.599 0.66-1.164 0.66-1.695 0-0.558-0.2-1.026-0.6-1.407-0.4-0.385-0.92-0.578-1.56-0.578-0.67 0-1.22 0.203-1.62 0.61-0.41 0.406-0.61 0.968-0.62 1.687l-1.44-0.148c0.09-1.078 0.47-1.899 1.11-2.461 0.65-0.568 1.52-0.852 2.6-0.852 1.1 0 1.97 0.305 2.61 0.914 0.64 0.61 0.97 1.365 0.97 2.266 0 0.458-0.1 0.909-0.29 1.351-0.18 0.443-0.5 0.909-0.93 1.399-0.44 0.489-1.16 1.161-2.17 2.015-0.84 0.709-1.38 1.191-1.62 1.446-0.24 0.25-0.44 0.502-0.6 0.758h5.62m23.71-1.672 1.41-0.188c0.16 0.797 0.43 1.373 0.82 1.727 0.39 0.349 0.86 0.523 1.42 0.523 0.66 0 1.22-0.229 1.67-0.687 0.46-0.459 0.69-1.026 0.69-1.703 0-0.646-0.21-1.177-0.63-1.594-0.43-0.422-0.96-0.633-1.61-0.633-0.27 0-0.6 0.052-0.99 0.156l0.15-1.234c0.1 0.01 0.17 0.016 0.23 0.016 0.6 0 1.14-0.157 1.62-0.469 0.47-0.313 0.71-0.794 0.71-1.446 0-0.515-0.17-0.942-0.52-1.281-0.35-0.338-0.8-0.508-1.35-0.508s-1 0.172-1.37 0.516c-0.36 0.344-0.6 0.859-0.7 1.547l-1.41-0.25c0.17-0.943 0.56-1.672 1.17-2.188 0.61-0.52 1.37-0.781 2.28-0.781 0.62 0 1.2 0.136 1.72 0.406 0.53 0.266 0.93 0.631 1.21 1.094 0.28 0.464 0.42 0.956 0.42 1.477 0 0.495-0.13 0.945-0.4 1.351-0.26 0.407-0.66 0.729-1.18 0.969 0.68 0.156 1.2 0.482 1.58 0.977 0.37 0.489 0.56 1.104 0.56 1.843 0 1-0.36 1.849-1.09 2.547-0.73 0.693-1.65 1.039-2.77 1.039-1 0-1.84-0.299-2.51-0.898-0.66-0.599-1.03-1.375-1.13-2.328m40 3.023v-2.742h-4.97v-1.289l5.23-7.422h1.15v7.422h1.54v1.289h-1.54v2.742h-1.41m0-4.031v-5.164l-3.58 5.164h3.58m31.03 1.031 1.47-0.125c0.11 0.719 0.36 1.261 0.76 1.625 0.4 0.36 0.88 0.539 1.44 0.539 0.68 0 1.25-0.255 1.72-0.765 0.47-0.511 0.71-1.188 0.71-2.032 0-0.802-0.23-1.435-0.68-1.898-0.45-0.464-1.04-0.695-1.77-0.695-0.45 0-0.86 0.104-1.23 0.312-0.36 0.203-0.65 0.469-0.85 0.797l-1.32-0.172 1.1-5.883h5.7v1.344h-4.57l-0.62 3.078c0.69-0.479 1.41-0.719 2.17-0.719 1 0 1.84 0.347 2.53 1.039 0.69 0.693 1.03 1.584 1.03 2.672 0 1.037-0.3 1.933-0.91 2.688-0.73 0.927-1.73 1.39-3.01 1.39-1.04 0-1.89-0.291-2.55-0.875-0.66-0.583-1.03-1.356-1.12-2.32m42.82-5.648-1.4 0.109c-0.12-0.552-0.3-0.953-0.53-1.203-0.38-0.401-0.85-0.602-1.4-0.602-0.45 0-0.84 0.125-1.18 0.375-0.45 0.323-0.79 0.795-1.05 1.414-0.25 0.62-0.39 1.503-0.4 2.649 0.34-0.516 0.75-0.899 1.24-1.149s1.01-0.375 1.54-0.375c0.94 0 1.74 0.347 2.39 1.04 0.67 0.687 1 1.578 1 2.671 0 0.719-0.16 1.388-0.47 2.008-0.31 0.615-0.73 1.086-1.28 1.414-0.54 0.328-1.15 0.492-1.84 0.492-1.17 0-2.13-0.429-2.87-1.289-0.74-0.864-1.11-2.286-1.11-4.265 0-2.214 0.41-3.823 1.23-4.828 0.71-0.875 1.67-1.313 2.88-1.313 0.9 0 1.64 0.253 2.21 0.758 0.58 0.505 0.93 1.203 1.04 2.094m-5.74 4.937c0 0.485 0.1 0.948 0.31 1.391 0.2 0.443 0.49 0.781 0.86 1.015 0.37 0.23 0.76 0.344 1.17 0.344 0.59 0 1.1-0.239 1.53-0.719 0.43-0.479 0.64-1.13 0.64-1.953 0-0.791-0.21-1.414-0.63-1.867-0.43-0.458-0.96-0.687-1.6-0.687-0.63 0-1.17 0.229-1.61 0.687-0.45 0.453-0.67 1.05-0.67 1.789m29.63-6.242v-1.352h7.42v1.094c-0.73 0.776-1.46 1.808-2.17 3.094-0.72 1.286-1.27 2.609-1.66 3.969-0.28 0.958-0.46 2.008-0.54 3.148h-1.44c0.01-0.901 0.19-1.989 0.53-3.265s0.82-2.506 1.45-3.688c0.64-1.187 1.31-2.187 2.02-3h-5.61m33.14 3.742c-0.59-0.213-1.02-0.518-1.3-0.914s-0.42-0.87-0.42-1.422c0-0.833 0.3-1.534 0.9-2.101 0.6-0.568 1.39-0.852 2.39-0.852s1.8 0.292 2.41 0.875c0.61 0.578 0.92 1.284 0.92 2.117 0 0.532-0.15 0.995-0.43 1.391-0.27 0.391-0.69 0.693-1.26 0.906 0.7 0.229 1.23 0.599 1.6 1.11 0.37 0.51 0.55 1.119 0.55 1.828 0 0.979-0.34 1.802-1.04 2.468-0.69 0.667-1.6 1-2.73 1s-2.04-0.333-2.73-1c-0.7-0.671-1.04-1.507-1.04-2.507 0-0.745 0.18-1.368 0.56-1.868 0.38-0.505 0.92-0.848 1.62-1.031m-0.28-2.383c0 0.542 0.17 0.985 0.52 1.329 0.35 0.343 0.8 0.515 1.36 0.515 0.54 0 0.98-0.169 1.33-0.508 0.35-0.343 0.52-0.763 0.52-1.257 0-0.516-0.18-0.948-0.54-1.297-0.35-0.354-0.8-0.532-1.33-0.532s-0.98 0.172-1.33 0.516c-0.36 0.344-0.53 0.755-0.53 1.234m-0.46 5.289c0 0.402 0.1 0.79 0.28 1.165 0.2 0.375 0.48 0.666 0.86 0.875 0.37 0.203 0.77 0.304 1.21 0.304 0.67 0 1.22-0.216 1.66-0.648s0.66-0.982 0.66-1.649c0-0.677-0.23-1.237-0.68-1.679-0.45-0.443-1.01-0.664-1.69-0.664-0.66 0-1.21 0.218-1.65 0.656-0.43 0.437-0.65 0.984-0.65 1.64m34.35 0.657 1.35-0.125c0.11 0.635 0.33 1.096 0.65 1.383 0.33 0.286 0.74 0.429 1.25 0.429 0.43 0 0.81-0.099 1.13-0.297 0.33-0.198 0.6-0.461 0.8-0.789 0.21-0.333 0.39-0.781 0.53-1.343 0.14-0.563 0.21-1.136 0.21-1.719 0-0.063 0-0.156-0.01-0.281-0.28 0.447-0.67 0.812-1.16 1.093-0.48 0.276-1.01 0.414-1.57 0.414-0.95 0-1.75-0.343-2.41-1.031-0.66-0.687-0.98-1.594-0.98-2.719 0-1.161 0.34-2.096 1.02-2.804 0.69-0.709 1.55-1.063 2.58-1.063 0.74 0 1.42 0.201 2.04 0.602s1.08 0.974 1.4 1.718c0.32 0.74 0.49 1.813 0.49 3.219 0 1.464-0.16 2.63-0.48 3.5-0.32 0.865-0.79 1.524-1.42 1.977s-1.36 0.679-2.21 0.679c-0.89 0-1.62-0.247-2.19-0.742-0.57-0.5-0.91-1.2-1.02-2.101m5.75-5.055c0-0.807-0.21-1.448-0.64-1.922s-0.95-0.711-1.55-0.711c-0.63 0-1.17 0.255-1.63 0.766-0.47 0.51-0.7 1.172-0.7 1.984 0 0.729 0.22 1.323 0.66 1.781 0.44 0.454 0.98 0.68 1.63 0.68s1.18-0.226 1.6-0.68c0.42-0.458 0.63-1.091 0.63-1.898m23.57 7.703 4.39-11.453h1.64l4.69 11.453h-1.73l-1.34-3.469h-4.79l-1.25 3.469h-1.61m3.3-4.703h3.88l-1.19-3.172c-0.37-0.963-0.64-1.755-0.81-2.375-0.15 0.735-0.36 1.464-0.62 2.188l-1.26 3.359m34.33 4.703v-11.453h4.3c0.87 0 1.57 0.117 2.1 0.352 0.53 0.229 0.94 0.586 1.24 1.07 0.3 0.479 0.45 0.982 0.45 1.508 0 0.489-0.13 0.95-0.4 1.383-0.26 0.432-0.66 0.781-1.2 1.046 0.69 0.204 1.23 0.55 1.6 1.039 0.37 0.49 0.56 1.068 0.56 1.735 0 0.536-0.12 1.036-0.35 1.5-0.22 0.458-0.5 0.812-0.83 1.062-0.34 0.25-0.75 0.44-1.26 0.571-0.5 0.125-1.11 0.187-1.84 0.187h-4.37m1.51-6.64h2.48c0.67 0 1.15-0.045 1.45-0.133 0.38-0.115 0.67-0.305 0.86-0.571 0.2-0.265 0.3-0.599 0.3-1 0-0.38-0.09-0.713-0.27-1-0.19-0.291-0.45-0.489-0.78-0.593-0.34-0.11-0.92-0.164-1.75-0.164h-2.29v3.461m0 5.289h2.86c0.49 0 0.83-0.019 1.03-0.055 0.35-0.063 0.64-0.167 0.87-0.313 0.24-0.145 0.43-0.356 0.58-0.632 0.15-0.282 0.23-0.605 0.23-0.969 0-0.427-0.11-0.797-0.33-1.11-0.22-0.317-0.52-0.539-0.91-0.664-0.39-0.13-0.95-0.195-1.68-0.195h-2.65v3.938m39.57-2.664 1.51 0.382c-0.31 1.245-0.89 2.196-1.72 2.852-0.82 0.651-1.83 0.976-3.02 0.976-1.23 0-2.24-0.25-3.01-0.75-0.78-0.505-1.36-1.234-1.77-2.187-0.4-0.953-0.6-1.977-0.6-3.07 0-1.193 0.22-2.232 0.68-3.118 0.46-0.89 1.1-1.565 1.94-2.023 0.85-0.463 1.77-0.695 2.78-0.695 1.15 0 2.11 0.291 2.89 0.875 0.79 0.583 1.33 1.403 1.64 2.461l-1.49 0.351c-0.27-0.833-0.66-1.44-1.16-1.82-0.51-0.38-1.14-0.57-1.91-0.57-0.88 0-1.61 0.211-2.21 0.632-0.59 0.422-1 0.99-1.24 1.704-0.24 0.708-0.36 1.44-0.36 2.195 0 0.974 0.14 1.825 0.42 2.555 0.29 0.724 0.73 1.265 1.33 1.625 0.6 0.359 1.25 0.539 1.95 0.539 0.84 0 1.56-0.245 2.15-0.735 0.59-0.489 0.99-1.216 1.2-2.179m25.54 4.015v-11.453h3.95c0.89 0 1.57 0.055 2.04 0.164 0.65 0.151 1.21 0.425 1.68 0.82 0.6 0.511 1.05 1.165 1.35 1.961 0.3 0.792 0.45 1.698 0.45 2.719 0 0.87-0.1 1.641-0.3 2.313-0.2 0.671-0.47 1.229-0.78 1.671-0.32 0.438-0.67 0.784-1.05 1.04-0.37 0.25-0.83 0.44-1.37 0.57-0.53 0.13-1.14 0.195-1.83 0.195h-4.14m1.52-1.351h2.45c0.75 0 1.34-0.071 1.77-0.211 0.43-0.141 0.77-0.339 1.03-0.594 0.36-0.359 0.64-0.841 0.84-1.445 0.2-0.61 0.3-1.347 0.3-2.211 0-1.198-0.2-2.118-0.59-2.758-0.39-0.646-0.87-1.078-1.43-1.297-0.41-0.156-1.06-0.234-1.96-0.234h-2.41v8.75m32.23 1.351v-11.453h8.29v1.352h-6.77v3.507h6.34v1.344h-6.34v3.899h7.03v1.351h-8.55m32.89 0v-11.453h7.73v1.352h-6.21v3.546h5.38v1.352h-5.38v5.203h-1.52"/>
        <path id="text1624" d="m19.152 70.943c0-2.708 0.276-4.885 0.828-6.531 0.563-1.656 1.391-2.932 2.485-3.828 1.104-0.896 2.489-1.344 4.156-1.344 1.229 0 2.307 0.25 3.234 0.75 0.928 0.49 1.693 1.203 2.297 2.141 0.604 0.927 1.078 2.062 1.422 3.406 0.344 1.333 0.516 3.135 0.516 5.406 0 2.688-0.276 4.86-0.828 6.516-0.552 1.646-1.381 2.922-2.485 3.828-1.093 0.896-2.479 1.344-4.156 1.344-2.208 0-3.943-0.792-5.203-2.375-1.51-1.906-2.266-5.011-2.266-9.313m2.891 0c0 3.761 0.437 6.266 1.312 7.516 0.886 1.239 1.974 1.859 3.266 1.859s2.375-0.625 3.25-1.875c0.885-1.25 1.328-3.75 1.328-7.5 0-3.771-0.443-6.276-1.328-7.515-0.875-1.24-1.969-1.86-3.281-1.86-1.292 0-2.323 0.547-3.094 1.641-0.969 1.396-1.453 3.974-1.453 7.734m14.922 0c0-2.708 0.276-4.885 0.828-6.531 0.562-1.656 1.391-2.932 2.484-3.828 1.104-0.896 2.49-1.344 4.157-1.344 1.229 0 2.307 0.25 3.234 0.75 0.927 0.49 1.693 1.203 2.297 2.141 0.604 0.927 1.078 2.062 1.422 3.406 0.343 1.333 0.515 3.135 0.515 5.406 0 2.688-0.276 4.86-0.828 6.516-0.552 1.646-1.38 2.922-2.484 3.828-1.094 0.896-2.479 1.344-4.156 1.344-2.209 0-3.943-0.792-5.204-2.375-1.51-1.906-2.265-5.011-2.265-9.313m2.89 0c0 3.761 0.438 6.266 1.313 7.516 0.885 1.239 1.974 1.859 3.266 1.859 1.291 0 2.375-0.625 3.25-1.875 0.885-1.25 1.328-3.75 1.328-7.5 0-3.771-0.443-6.276-1.328-7.515-0.875-1.24-1.969-1.86-3.282-1.86-1.291 0-2.323 0.547-3.093 1.641-0.969 1.396-1.454 3.974-1.454 7.734m-10.109 75.3h-2.812v-17.92c-0.678 0.64-1.568 1.29-2.672 1.93-1.094 0.65-2.078 1.13-2.953 1.46v-2.72c1.572-0.74 2.947-1.64 4.125-2.69 1.177-1.05 2.01-2.07 2.5-3.06h1.812v23m7.219-11.3c0-2.71 0.276-4.89 0.828-6.53 0.562-1.66 1.391-2.93 2.484-3.83 1.104-0.89 2.49-1.34 4.157-1.34 1.229 0 2.307 0.25 3.234 0.75 0.927 0.49 1.693 1.2 2.297 2.14 0.604 0.92 1.078 2.06 1.422 3.4 0.343 1.34 0.515 3.14 0.515 5.41 0 2.69-0.276 4.86-0.828 6.52-0.552 1.64-1.38 2.92-2.484 3.82-1.094 0.9-2.479 1.35-4.156 1.35-2.209 0-3.943-0.79-5.204-2.38-1.51-1.9-2.265-5.01-2.265-9.31m2.89 0c0 3.76 0.438 6.27 1.313 7.52 0.885 1.24 1.974 1.86 3.266 1.86 1.291 0 2.375-0.63 3.25-1.88 0.885-1.25 1.328-3.75 1.328-7.5 0-3.77-0.443-6.28-1.328-7.52-0.875-1.23-1.969-1.85-3.282-1.85-1.291 0-2.323 0.54-3.093 1.64-0.969 1.39-1.454 3.97-1.454 7.73m-5.921 72.59v2.71h-15.141c-0.021-0.68 0.089-1.33 0.328-1.96 0.386-1.03 1-2.04 1.844-3.04 0.854-1 2.083-2.16 3.687-3.47 2.49-2.04 4.172-3.66 5.047-4.85s1.313-2.32 1.313-3.39c0-1.11-0.401-2.05-1.203-2.81-0.792-0.77-1.829-1.15-3.11-1.15-1.354 0-2.437 0.4-3.25 1.21-0.812 0.82-1.224 1.94-1.234 3.38l-2.891-0.3c0.198-2.15 0.943-3.79 2.235-4.92 1.291-1.14 3.026-1.7 5.203-1.7 2.198 0 3.937 0.61 5.218 1.83 1.282 1.21 1.922 2.72 1.922 4.53 0 0.91-0.187 1.81-0.562 2.7s-1 1.82-1.875 2.8c-0.865 0.98-2.307 2.32-4.328 4.03-1.688 1.41-2.771 2.38-3.25 2.89-0.479 0.5-0.875 1-1.188 1.51h11.235m3.031-8.59c0-2.71 0.276-4.89 0.828-6.53 0.562-1.66 1.391-2.93 2.484-3.83 1.104-0.89 2.49-1.34 4.157-1.34 1.229 0 2.307 0.25 3.234 0.75 0.927 0.49 1.693 1.2 2.297 2.14 0.604 0.92 1.078 2.06 1.422 3.4 0.343 1.34 0.515 3.14 0.515 5.41 0 2.69-0.276 4.86-0.828 6.52-0.552 1.64-1.38 2.92-2.484 3.82-1.094 0.9-2.479 1.35-4.156 1.35-2.209 0-3.943-0.79-5.204-2.38-1.51-1.9-2.265-5.01-2.265-9.31m2.89 0c0 3.76 0.438 6.27 1.313 7.52 0.885 1.24 1.974 1.86 3.266 1.86 1.291 0 2.375-0.63 3.25-1.88 0.885-1.25 1.328-3.75 1.328-7.5 0-3.77-0.443-6.28-1.328-7.52-0.875-1.23-1.969-1.85-3.282-1.85-1.291 0-2.323 0.54-3.093 1.64-0.969 1.39-1.454 3.97-1.454 7.73m-20.687 69.25 2.812-0.37c0.323 1.59 0.87 2.74 1.641 3.45 0.781 0.7 1.729 1.05 2.844 1.05 1.323 0 2.437-0.46 3.344-1.38 0.916-0.92 1.375-2.05 1.375-3.41 0-1.29-0.422-2.35-1.266-3.18-0.844-0.85-1.917-1.27-3.219-1.27-0.531 0-1.193 0.11-1.984 0.31l0.312-2.47c0.188 0.03 0.339 0.04 0.453 0.04 1.198 0 2.276-0.32 3.235-0.94 0.958-0.63 1.437-1.59 1.437-2.89 0-1.03-0.349-1.89-1.047-2.56-0.697-0.68-1.599-1.02-2.703-1.02-1.093 0-2.005 0.34-2.734 1.03s-1.198 1.72-1.406 3.09l-2.813-0.5c0.344-1.88 1.125-3.34 2.344-4.37 1.219-1.04 2.734-1.56 4.547-1.56 1.25 0 2.401 0.27 3.453 0.81 1.052 0.53 1.854 1.26 2.406 2.19 0.563 0.92 0.844 1.91 0.844 2.95 0 0.99-0.266 1.89-0.797 2.7-0.531 0.82-1.318 1.46-2.359 1.94 1.354 0.31 2.406 0.96 3.156 1.95 0.75 0.98 1.125 2.21 1.125 3.69 0 2-0.729 3.7-2.188 5.1-1.458 1.38-3.302 2.07-5.531 2.07-2.01 0-3.682-0.6-5.015-1.79-1.323-1.2-2.079-2.75-2.266-4.66m17.734-5.25c0-2.71 0.276-4.89 0.828-6.53 0.563-1.66 1.391-2.93 2.485-3.83 1.104-0.89 2.489-1.34 4.156-1.34 1.229 0 2.307 0.25 3.234 0.75 0.928 0.49 1.693 1.2 2.297 2.14 0.604 0.92 1.078 2.06 1.422 3.4s0.516 3.14 0.516 5.41c0 2.69-0.276 4.86-0.828 6.52-0.552 1.64-1.381 2.92-2.485 3.82-1.093 0.9-2.479 1.35-4.156 1.35-2.208 0-3.943-0.79-5.203-2.38-1.51-1.9-2.266-5.01-2.266-9.31m2.891 0c0 3.76 0.437 6.27 1.312 7.52 0.886 1.24 1.974 1.86 3.266 1.86s2.375-0.63 3.25-1.88c0.885-1.25 1.328-3.75 1.328-7.5 0-3.77-0.443-6.28-1.328-7.52-0.875-1.23-1.969-1.85-3.281-1.85-1.292 0-2.323 0.54-3.094 1.64-0.969 1.39-1.453 3.97-1.453 7.73m-11.625 107.3v-5.49h-9.938v-2.58l10.454-14.84h2.296v14.84h3.094v2.58h-3.094v5.49h-2.812m0-8.07v-10.32l-7.172 10.32h7.172m8.797-3.23c0-2.71 0.276-4.89 0.828-6.53 0.562-1.66 1.391-2.93 2.484-3.83 1.104-0.89 2.49-1.34 4.157-1.34 1.229 0 2.307 0.25 3.234 0.75 0.927 0.49 1.693 1.2 2.297 2.14 0.604 0.92 1.078 2.06 1.422 3.4 0.343 1.34 0.515 3.14 0.515 5.41 0 2.69-0.276 4.86-0.828 6.52-0.552 1.64-1.38 2.92-2.484 3.82-1.094 0.9-2.479 1.35-4.156 1.35-2.209 0-3.943-0.79-5.204-2.38-1.51-1.9-2.265-5.01-2.265-9.31m2.89 0c0 3.76 0.438 6.27 1.313 7.52 0.885 1.24 1.974 1.86 3.266 1.86 1.291 0 2.375-0.63 3.25-1.88 0.885-1.25 1.328-3.75 1.328-7.5 0-3.77-0.443-6.28-1.328-7.52-0.875-1.23-1.969-1.85-3.282-1.85-1.291 0-2.323 0.54-3.093 1.64-0.969 1.39-1.454 3.97-1.454 7.73m-20.703 69.3 2.953-0.25c0.219 1.43 0.724 2.52 1.516 3.25 0.802 0.72 1.766 1.08 2.891 1.08 1.354 0 2.5-0.52 3.437-1.54 0.938-1.02 1.406-2.37 1.406-4.06 0-1.6-0.453-2.87-1.359-3.8-0.896-0.92-2.073-1.39-3.531-1.39-0.906 0-1.724 0.21-2.453 0.63-0.729 0.41-1.302 0.94-1.719 1.59l-2.641-0.34 2.219-11.77h11.391v2.69h-9.141l-1.234 6.16c1.375-0.96 2.817-1.44 4.328-1.44 2 0 3.687 0.69 5.062 2.08 1.375 1.38 2.063 3.16 2.063 5.34 0 2.07-0.604 3.87-1.813 5.38-1.468 1.85-3.474 2.78-6.015 2.78-2.084 0-3.787-0.59-5.11-1.75-1.312-1.17-2.062-2.72-2.25-4.64m17.813-5.3c0-2.71 0.276-4.89 0.828-6.53 0.562-1.66 1.391-2.93 2.484-3.83 1.104-0.89 2.49-1.34 4.157-1.34 1.229 0 2.307 0.25 3.234 0.75 0.927 0.49 1.693 1.2 2.297 2.14 0.604 0.92 1.078 2.06 1.422 3.4 0.343 1.34 0.515 3.14 0.515 5.41 0 2.69-0.276 4.86-0.828 6.52-0.552 1.64-1.38 2.92-2.484 3.82-1.094 0.9-2.479 1.35-4.156 1.35-2.209 0-3.943-0.79-5.204-2.38-1.51-1.9-2.265-5.01-2.265-9.31m2.89 0c0 3.76 0.438 6.27 1.313 7.52 0.885 1.24 1.974 1.86 3.266 1.86 1.291 0 2.375-0.63 3.25-1.88 0.885-1.25 1.328-3.75 1.328-7.5 0-3.77-0.443-6.28-1.328-7.52-0.875-1.23-1.969-1.85-3.282-1.85-1.291 0-2.323 0.54-3.093 1.64-0.969 1.39-1.454 3.97-1.454 7.73m-6.109 58-2.797 0.22c-0.25-1.11-0.604-1.91-1.062-2.41-0.761-0.8-1.698-1.2-2.813-1.2-0.896 0-1.682 0.25-2.359 0.75-0.886 0.65-1.584 1.59-2.094 2.83s-0.776 3-0.797 5.29c0.677-1.03 1.505-1.79 2.485-2.29 0.979-0.5 2.005-0.75 3.078-0.75 1.875 0 3.468 0.69 4.781 2.08 1.323 1.37 1.984 3.15 1.984 5.34 0 1.44-0.312 2.78-0.937 4.02-0.615 1.22-1.464 2.17-2.547 2.82-1.083 0.66-2.313 0.99-3.688 0.99-2.343 0-4.255-0.86-5.734-2.58-1.479-1.73-2.219-4.57-2.219-8.53 0-4.43 0.818-7.65 2.453-9.66 1.428-1.75 3.349-2.62 5.766-2.62 1.802 0 3.276 0.5 4.422 1.51 1.156 1.01 1.849 2.41 2.078 4.19m-11.484 9.88c0 0.96 0.203 1.89 0.609 2.78 0.417 0.88 0.995 1.56 1.734 2.03 0.74 0.46 1.516 0.69 2.329 0.69 1.187 0 2.208-0.48 3.062-1.44s1.281-2.26 1.281-3.91c0-1.58-0.422-2.83-1.265-3.73-0.844-0.92-1.907-1.38-3.188-1.38-1.271 0-2.349 0.46-3.234 1.38-0.886 0.9-1.328 2.1-1.328 3.58m14.703-3.88c0-2.71 0.276-4.89 0.828-6.53 0.562-1.66 1.391-2.93 2.484-3.83 1.104-0.89 2.49-1.34 4.157-1.34 1.229 0 2.307 0.25 3.234 0.75 0.927 0.49 1.693 1.2 2.297 2.14 0.604 0.92 1.078 2.06 1.422 3.4 0.343 1.34 0.515 3.14 0.515 5.41 0 2.69-0.276 4.86-0.828 6.52-0.552 1.64-1.38 2.92-2.484 3.82-1.094 0.9-2.479 1.35-4.156 1.35-2.209 0-3.943-0.79-5.204-2.38-1.51-1.9-2.265-5.01-2.265-9.31m2.89 0c0 3.76 0.438 6.27 1.313 7.52 0.885 1.24 1.974 1.86 3.266 1.86 1.291 0 2.375-0.63 3.25-1.88 0.885-1.25 1.328-3.75 1.328-7.5 0-3.77-0.443-6.28-1.328-7.52-0.875-1.23-1.969-1.85-3.282-1.85-1.291 0-2.323 0.54-3.093 1.64-0.969 1.39-1.454 3.97-1.454 7.73m-20.515 55.39v-2.7h14.828v2.19c-1.458 1.55-2.906 3.61-4.344 6.18-1.427 2.58-2.531 5.22-3.312 7.94-0.563 1.92-0.922 4.02-1.078 6.3h-2.891c0.031-1.8 0.385-3.98 1.062-6.53 0.678-2.56 1.646-5.01 2.907-7.38 1.271-2.37 2.619-4.37 4.047-6h-11.219m17.562 8.61c0-2.71 0.276-4.89 0.828-6.53 0.563-1.66 1.391-2.93 2.485-3.83 1.104-0.89 2.489-1.34 4.156-1.34 1.229 0 2.307 0.25 3.234 0.75 0.928 0.49 1.693 1.2 2.297 2.14 0.604 0.92 1.078 2.06 1.422 3.4s0.516 3.14 0.516 5.41c0 2.69-0.276 4.86-0.828 6.52-0.552 1.64-1.381 2.92-2.485 3.82-1.093 0.9-2.479 1.35-4.156 1.35-2.208 0-3.943-0.79-5.203-2.38-1.51-1.9-2.266-5.01-2.266-9.31m2.891 0c0 3.76 0.437 6.27 1.312 7.52 0.886 1.24 1.974 1.86 3.266 1.86s2.375-0.63 3.25-1.88c0.885-1.25 1.328-3.75 1.328-7.5 0-3.77-0.443-6.28-1.328-7.52-0.875-1.23-1.969-1.85-3.281-1.85-1.292 0-2.323 0.54-3.094 1.64-0.969 1.39-1.453 3.97-1.453 7.73m-16.313 62.88c-1.166-0.43-2.031-1.04-2.593-1.83-0.563-0.79-0.844-1.74-0.844-2.85 0-1.66 0.599-3.06 1.797-4.2s2.791-1.7 4.781-1.7c2 0 3.609 0.58 4.828 1.75 1.219 1.15 1.828 2.56 1.828 4.23 0 1.06-0.281 1.99-0.843 2.78-0.553 0.78-1.396 1.39-2.532 1.82 1.407 0.45 2.474 1.19 3.203 2.21 0.74 1.02 1.11 2.24 1.11 3.66 0 1.96-0.693 3.6-2.078 4.94-1.386 1.33-3.209 2-5.469 2s-4.083-0.67-5.469-2c-1.385-1.35-2.078-3.02-2.078-5.02 0-1.49 0.375-2.73 1.125-3.73 0.76-1.01 1.839-1.7 3.234-2.06m-0.562-4.77c0 1.08 0.349 1.97 1.047 2.66 0.698 0.68 1.604 1.03 2.719 1.03 1.083 0 1.968-0.34 2.656-1.02 0.698-0.69 1.047-1.52 1.047-2.51 0-1.04-0.36-1.9-1.078-2.6-0.709-0.71-1.594-1.06-2.657-1.06-1.073 0-1.963 0.34-2.672 1.03-0.708 0.69-1.062 1.51-1.062 2.47m-0.906 10.58c0 0.8 0.187 1.58 0.562 2.33 0.386 0.75 0.953 1.33 1.703 1.75 0.75 0.4 1.558 0.61 2.422 0.61 1.344 0 2.453-0.44 3.328-1.3 0.875-0.87 1.313-1.97 1.313-3.3 0-1.35-0.453-2.47-1.36-3.36-0.895-0.88-2.02-1.33-3.375-1.33-1.322 0-2.421 0.44-3.296 1.32-0.865 0.87-1.297 1.97-1.297 3.28m15.015-4.69c0-2.71 0.276-4.89 0.828-6.53 0.563-1.66 1.391-2.93 2.485-3.83 1.104-0.89 2.489-1.34 4.156-1.34 1.229 0 2.307 0.25 3.234 0.75 0.928 0.49 1.693 1.2 2.297 2.14 0.604 0.92 1.078 2.06 1.422 3.4s0.516 3.14 0.516 5.41c0 2.69-0.276 4.86-0.828 6.52-0.552 1.64-1.381 2.92-2.485 3.82-1.093 0.9-2.479 1.35-4.156 1.35-2.208 0-3.943-0.79-5.203-2.38-1.51-1.9-2.266-5.01-2.266-9.31m2.891 0c0 3.76 0.437 6.27 1.312 7.52 0.886 1.24 1.974 1.86 3.266 1.86s2.375-0.63 3.25-1.88c0.885-1.25 1.328-3.75 1.328-7.5 0-3.77-0.443-6.28-1.328-7.52-0.875-1.23-1.969-1.85-3.281-1.85-1.292 0-2.323 0.54-3.094 1.64-0.969 1.39-1.453 3.97-1.453 7.73m-20.344 70 2.703-0.25c0.229 1.27 0.667 2.19 1.313 2.77 0.646 0.57 1.474 0.86 2.484 0.86 0.865 0 1.62-0.2 2.266-0.6 0.656-0.39 1.193-0.92 1.609-1.58 0.417-0.66 0.766-1.56 1.047-2.68 0.281-1.13 0.422-2.27 0.422-3.44 0-0.13-0.005-0.31-0.016-0.56-0.562 0.89-1.333 1.62-2.312 2.18-0.969 0.56-2.021 0.83-3.156 0.83-1.896 0-3.5-0.69-4.813-2.06-1.312-1.38-1.969-3.19-1.969-5.44 0-2.32 0.683-4.19 2.047-5.61 1.375-1.41 3.094-2.12 5.156-2.12 1.49 0 2.849 0.4 4.079 1.2 1.239 0.8 2.177 1.95 2.812 3.44 0.646 1.48 0.969 3.62 0.969 6.44 0 2.92-0.318 5.26-0.953 7-0.636 1.72-1.584 3.04-2.844 3.95-1.25 0.9-2.719 1.36-4.406 1.36-1.792 0-3.256-0.5-4.391-1.49-1.135-1-1.818-2.4-2.047-4.2m11.516-10.11c0-1.61-0.432-2.89-1.297-3.84-0.854-0.95-1.885-1.42-3.094-1.42-1.25 0-2.338 0.51-3.265 1.53-0.928 1.02-1.391 2.34-1.391 3.97 0 1.45 0.437 2.64 1.312 3.56 0.886 0.9 1.974 1.36 3.266 1.36 1.302 0 2.37-0.46 3.203-1.36 0.844-0.92 1.266-2.18 1.266-3.8m5.875 4.11c0-2.71 0.276-4.89 0.828-6.53 0.562-1.66 1.391-2.93 2.484-3.83 1.104-0.89 2.49-1.34 4.157-1.34 1.229 0 2.307 0.25 3.234 0.75 0.927 0.49 1.693 1.2 2.297 2.14 0.604 0.92 1.078 2.06 1.422 3.4 0.343 1.34 0.515 3.14 0.515 5.41 0 2.69-0.276 4.86-0.828 6.52-0.552 1.64-1.38 2.92-2.484 3.82-1.094 0.9-2.479 1.35-4.156 1.35-2.209 0-3.943-0.79-5.204-2.38-1.51-1.9-2.265-5.01-2.265-9.31m2.89 0c0 3.76 0.438 6.27 1.313 7.52 0.885 1.24 1.974 1.86 3.266 1.86 1.291 0 2.375-0.63 3.25-1.88 0.885-1.25 1.328-3.75 1.328-7.5 0-3.77-0.443-6.28-1.328-7.52-0.875-1.23-1.969-1.85-3.282-1.85-1.291 0-2.323 0.54-3.093 1.64-0.969 1.39-1.454 3.97-1.454 7.73m-22.078 75.3 8.797-22.91h3.266l9.375 22.91h-3.453l-2.672-6.94h-9.578l-2.516 6.94h-3.219m6.61-9.41h7.765l-2.39-6.34c-0.729-1.93-1.271-3.51-1.625-4.75-0.292 1.47-0.703 2.92-1.235 4.37l-2.515 6.72m16.14-1.89c0-2.71 0.276-4.89 0.828-6.53 0.563-1.66 1.391-2.93 2.485-3.83 1.104-0.89 2.489-1.34 4.156-1.34 1.229 0 2.307 0.25 3.234 0.75 0.928 0.49 1.693 1.2 2.297 2.14 0.604 0.92 1.078 2.06 1.422 3.4s0.516 3.14 0.516 5.41c0 2.69-0.276 4.86-0.828 6.52-0.552 1.64-1.381 2.92-2.485 3.82-1.093 0.9-2.479 1.35-4.156 1.35-2.208 0-3.943-0.79-5.203-2.38-1.51-1.9-2.266-5.01-2.266-9.31m2.891 0c0 3.76 0.437 6.27 1.312 7.52 0.886 1.24 1.974 1.86 3.266 1.86s2.375-0.63 3.25-1.88c0.885-1.25 1.328-3.75 1.328-7.5 0-3.77-0.443-6.28-1.328-7.52-0.875-1.23-1.969-1.85-3.281-1.85-1.292 0-2.323 0.54-3.094 1.64-0.969 1.39-1.453 3.97-1.453 7.73m-23.25 107.3v-22.91h8.594c1.75 0 3.151 0.24 4.203 0.7 1.062 0.46 1.89 1.18 2.484 2.14 0.604 0.96 0.906 1.97 0.906 3.02 0 0.98-0.265 1.9-0.796 2.77-0.532 0.86-1.334 1.56-2.407 2.09 1.386 0.41 2.448 1.1 3.188 2.08 0.75 0.98 1.125 2.13 1.125 3.47 0 1.07-0.229 2.07-0.688 3-0.448 0.91-1.005 1.62-1.672 2.12-0.666 0.5-1.505 0.88-2.515 1.14-1 0.25-2.229 0.38-3.688 0.38h-8.734m3.031-13.28h4.953c1.344 0 2.308-0.09 2.891-0.27 0.771-0.23 1.349-0.61 1.734-1.14 0.396-0.53 0.594-1.2 0.594-2 0-0.76-0.182-1.43-0.547-2-0.364-0.58-0.885-0.98-1.562-1.19-0.677-0.22-1.839-0.33-3.485-0.33h-4.578v6.93m0 10.57h5.703c0.979 0 1.667-0.03 2.063-0.11 0.698-0.12 1.281-0.33 1.75-0.62s0.854-0.71 1.156-1.27 0.453-1.2 0.453-1.93c0-0.86-0.219-1.6-0.656-2.22-0.438-0.64-1.047-1.08-1.828-1.33-0.771-0.26-1.886-0.39-3.344-0.39h-5.297v7.87m17.266-8.59c0-2.71 0.276-4.89 0.828-6.53 0.562-1.66 1.391-2.93 2.484-3.83 1.104-0.89 2.49-1.34 4.157-1.34 1.229 0 2.307 0.25 3.234 0.75 0.927 0.49 1.693 1.2 2.297 2.14 0.604 0.92 1.078 2.06 1.422 3.4 0.343 1.34 0.515 3.14 0.515 5.41 0 2.69-0.276 4.86-0.828 6.52-0.552 1.64-1.38 2.92-2.484 3.82-1.094 0.9-2.479 1.35-4.156 1.35-2.209 0-3.943-0.79-5.204-2.38-1.51-1.9-2.265-5.01-2.265-9.31m2.89 0c0 3.76 0.438 6.27 1.313 7.52 0.885 1.24 1.974 1.86 3.266 1.86 1.291 0 2.375-0.63 3.25-1.88 0.885-1.25 1.328-3.75 1.328-7.5 0-3.77-0.443-6.28-1.328-7.52-0.875-1.23-1.969-1.85-3.282-1.85-1.291 0-2.323 0.54-3.093 1.64-0.969 1.39-1.454 3.97-1.454 7.73m-6.718 67.27 3.031 0.76c-0.635 2.49-1.781 4.39-3.438 5.7-1.645 1.31-3.661 1.96-6.046 1.96-2.469 0-4.48-0.5-6.032-1.5-1.541-1.01-2.718-2.47-3.531-4.38-0.802-1.9-1.203-3.95-1.203-6.14 0-2.38 0.453-4.46 1.359-6.23 0.917-1.78 2.214-3.13 3.891-4.05 1.687-0.93 3.542-1.39 5.562-1.39 2.292 0 4.219 0.58 5.782 1.75 1.562 1.17 2.651 2.81 3.265 4.92l-2.984 0.71c-0.531-1.67-1.302-2.88-2.313-3.65-1.01-0.76-2.281-1.14-3.812-1.14-1.76 0-3.234 0.43-4.422 1.27-1.177 0.84-2.005 1.98-2.484 3.41-0.479 1.41-0.719 2.88-0.719 4.39 0 1.94 0.281 3.65 0.844 5.11 0.573 1.44 1.458 2.53 2.656 3.25 1.198 0.71 2.495 1.07 3.891 1.07 1.697 0 3.135-0.49 4.312-1.46 1.177-0.98 1.974-2.44 2.391-4.36m5.578-3.27c0-2.71 0.276-4.89 0.828-6.53 0.562-1.66 1.391-2.93 2.484-3.83 1.104-0.89 2.49-1.34 4.157-1.34 1.229 0 2.307 0.25 3.234 0.75 0.927 0.49 1.693 1.2 2.297 2.14 0.604 0.92 1.078 2.06 1.422 3.4 0.343 1.34 0.515 3.14 0.515 5.41 0 2.69-0.276 4.86-0.828 6.52-0.552 1.64-1.38 2.92-2.484 3.82-1.094 0.9-2.479 1.35-4.156 1.35-2.209 0-3.943-0.79-5.204-2.38-1.51-1.9-2.265-5.01-2.265-9.31m2.89 0c0 3.76 0.438 6.27 1.313 7.52 0.885 1.24 1.974 1.86 3.266 1.86 1.291 0 2.375-0.63 3.25-1.88 0.885-1.25 1.328-3.75 1.328-7.5 0-3.77-0.443-6.28-1.328-7.52-0.875-1.23-1.969-1.85-3.282-1.85-1.291 0-2.323 0.54-3.093 1.64-0.969 1.39-1.454 3.97-1.454 7.73m-24.812 75.3v-22.91h7.891c1.781 0 3.14 0.11 4.078 0.33 1.312 0.3 2.432 0.85 3.359 1.64 1.208 1.02 2.109 2.33 2.703 3.92 0.604 1.58 0.906 3.4 0.906 5.44 0 1.74-0.203 3.28-0.609 4.62-0.406 1.35-0.927 2.46-1.562 3.35-0.636 0.87-1.334 1.57-2.094 2.08-0.75 0.5-1.662 0.88-2.735 1.14-1.062 0.26-2.286 0.39-3.671 0.39h-8.266m3.031-2.71h4.891c1.51 0 2.693-0.14 3.547-0.42 0.864-0.28 1.552-0.67 2.062-1.19 0.719-0.71 1.276-1.68 1.672-2.89 0.406-1.21 0.609-2.69 0.609-4.42 0-2.39-0.395-4.23-1.187-5.51-0.781-1.3-1.734-2.16-2.859-2.6-0.813-0.31-2.12-0.47-3.922-0.47h-4.813v17.5m18.891-8.59c0-2.71 0.276-4.89 0.828-6.53 0.562-1.66 1.391-2.93 2.484-3.83 1.104-0.89 2.49-1.34 4.157-1.34 1.229 0 2.307 0.25 3.234 0.75 0.927 0.49 1.693 1.2 2.297 2.14 0.604 0.92 1.078 2.06 1.422 3.4 0.343 1.34 0.515 3.14 0.515 5.41 0 2.69-0.276 4.86-0.828 6.52-0.552 1.64-1.38 2.92-2.484 3.82-1.094 0.9-2.479 1.35-4.156 1.35-2.209 0-3.943-0.79-5.204-2.38-1.51-1.9-2.265-5.01-2.265-9.31m2.89 0c0 3.76 0.438 6.27 1.313 7.52 0.885 1.24 1.974 1.86 3.266 1.86 1.291 0 2.375-0.63 3.25-1.88 0.885-1.25 1.328-3.75 1.328-7.5 0-3.77-0.443-6.28-1.328-7.52-0.875-1.23-1.969-1.85-3.282-1.85-1.291 0-2.323 0.54-3.093 1.64-0.969 1.39-1.454 3.97-1.454 7.73m-24.75 75.25v-22.9h16.563v2.7h-13.531v7.1h12.672v2.6h-12.672v7.8h14.062v2.7h-17.094m20.11-11.2c0-2.8 0.276-4.9 0.828-6.6 0.562-1.6 1.391-2.9 2.484-3.8 1.104-0.9 2.49-1.4 4.157-1.4 1.229 0 2.307 0.3 3.234 0.8s1.693 1.2 2.297 2.1c0.604 1 1.078 2.1 1.422 3.4 0.343 1.4 0.515 3.2 0.515 5.5 0 2.6-0.276 4.8-0.828 6.5-0.552 1.6-1.38 2.9-2.484 3.8-1.094 0.9-2.479 1.3-4.156 1.3-2.209 0-3.943-0.8-5.204-2.3-1.51-1.9-2.265-5-2.265-9.3m2.89 0c0 3.7 0.438 6.2 1.313 7.5 0.885 1.2 1.974 1.8 3.266 1.8 1.291 0 2.375-0.6 3.25-1.8 0.885-1.3 1.328-3.8 1.328-7.5 0-3.8-0.443-6.3-1.328-7.6-0.875-1.2-1.969-1.8-3.282-1.8-1.291 0-2.323 0.5-3.093 1.6-0.969 1.4-1.454 4-1.454 7.8m-22.906 75.2v-22.9h15.453v2.7h-12.422v7.1h10.75v2.7h-10.75v10.4h-3.031m18.266-11.2c0-2.8 0.276-4.9 0.828-6.6 0.562-1.6 1.391-2.9 2.484-3.8 1.104-0.9 2.49-1.4 4.157-1.4 1.229 0 2.307 0.3 3.234 0.8s1.693 1.2 2.297 2.1c0.604 1 1.078 2.1 1.422 3.4 0.343 1.4 0.515 3.2 0.515 5.5 0 2.6-0.276 4.8-0.828 6.5-0.552 1.6-1.38 2.9-2.484 3.8-1.094 0.9-2.479 1.3-4.156 1.3-2.209 0-3.943-0.8-5.204-2.3-1.51-1.9-2.265-5-2.265-9.3m2.89 0c0 3.7 0.438 6.2 1.313 7.5 0.885 1.2 1.974 1.8 3.266 1.8 1.291 0 2.375-0.6 3.25-1.8 0.885-1.3 1.328-3.8 1.328-7.5 0-3.8-0.443-6.3-1.328-7.6-0.875-1.2-1.969-1.8-3.282-1.8-1.291 0-2.323 0.5-3.093 1.6-0.969 1.4-1.454 4-1.454 7.8"/>
        <path id="text1661" d="m0 7.9692 1.4297-0.125c0.0677 0.573 0.2239 1.044 0.4687 1.414 0.25 0.365 0.6354 0.662 1.1563 0.891 0.5208 0.224 1.1068 0.336 1.7578 0.336 0.5781 0 1.0885-0.086 1.5312-0.258s0.7704-0.406 0.9844-0.703c0.219-0.302 0.328-0.631 0.328-0.985 0-0.359-0.104-0.672-0.312-0.937-0.209-0.271-0.5524-0.498-1.0316-0.68-0.3073-0.12-0.987-0.305-2.0391-0.555-1.0521-0.255-1.789-0.494-2.2109-0.718-0.5469-0.287-0.9557-0.641-1.2266-1.063-0.2656-0.4269-0.3984-0.9035-0.3984-1.4295 0-0.5781 0.1641-1.1172 0.4922-1.6172 0.3281-0.5052 0.8073-0.888 1.4375-1.1484s1.3307-0.3906 2.1015-0.3907c0.849 0.0001 1.5964 0.1381 2.2422 0.4141 0.6512 0.2708 1.1512 0.6719 1.5002 1.2031 0.349 0.5313 0.536 1.1329 0.562 1.8047l-1.453 0.1094c-0.078-0.724-0.344-1.2708-0.7967-1.6406-0.4479-0.3698-1.112-0.5547-1.9922-0.5547-0.9166 0-1.5859 0.1693-2.0078 0.5078-0.4166 0.3333-0.625 0.737-0.625 1.2109 0 0.4115 0.1485 0.75 0.4453 1.0157 0.2917 0.2654 1.0521 0.5394 2.2813 0.8204 1.2344 0.276 2.0807 0.518 2.5391 0.726 0.667 0.308 1.159 0.698 1.477 1.172 0.317 0.469 0.476 1.011 0.476 1.625 0 0.61-0.174 1.185-0.523 1.727-0.349 0.536-0.852 0.956-1.508 1.258-0.6512 0.297-1.3856 0.445-2.2033 0.445-1.0365 0-1.9062-0.151-2.6094-0.453-0.6979-0.302-1.2474-0.755-1.6484-1.36-0.3958-0.6088-0.6042-1.2958-0.625-2.0618m10.992 3.68v-11.453l1.406-0.0004v4.1094c0.657-0.7605 1.485-1.1407 2.485-1.1407 0.614 0 1.148 0.1224 1.601 0.3672 0.453 0.2396 0.776 0.5729 0.969 0.9995 0.198 0.428 0.297 1.047 0.297 1.86v5.258h-1.406v-5.258c0-0.703-0.154-1.214-0.461-1.531-0.302-0.323-0.732-0.485-1.289-0.485-0.417 0-0.81 0.11-1.18 0.328-0.365 0.214-0.625 0.506-0.781 0.875-0.157 0.37-0.235 0.881-0.235 1.532v4.539h-1.406m14.32-1.024c-0.52 0.443-1.023 0.755-1.507 0.938-0.48 0.182-0.995 0.273-1.547 0.273-0.912 0-1.612-0.221-2.102-0.664-0.489-0.448-0.734-1.018-0.734-1.711 0-0.406 0.091-0.776 0.273-1.109 0.188-0.339 0.43-0.61 0.727-0.813 0.302-0.203 0.64-0.356 1.015-0.461 0.276-0.073 0.693-0.143 1.25-0.211 1.136-0.135 1.972-0.296 2.508-0.484 0.005-0.193 0.008-0.315 0.008-0.367 0-0.573-0.133-0.977-0.398-1.211-0.36-0.318-0.894-0.477-1.602-0.477-0.661 0-1.151 0.118-1.469 0.352-0.312 0.229-0.544 0.638-0.695 1.226l-1.375-0.187c0.125-0.589 0.331-1.063 0.617-1.422 0.287-0.3645 0.701-0.6431 1.242-0.8358 0.542-0.1979 1.17-0.2969 1.883-0.2969 0.708 0 1.284 0.0833 1.727 0.25 0.442 0.1667 0.768 0.3776 0.976 0.6328 0.209 0.2499 0.354 0.5679 0.438 0.9529 0.047 0.24 0.07 0.672 0.07 1.297v1.875c0 1.307 0.029 2.136 0.086 2.484 0.063 0.344 0.182 0.675 0.359 0.993h-1.468c-0.146-0.292-0.24-0.633-0.282-1.024m-0.117-3.14c-0.51 0.208-1.276 0.385-2.297 0.531-0.578 0.083-0.987 0.177-1.226 0.281-0.24 0.104-0.425 0.258-0.555 0.461-0.13 0.198-0.195 0.419-0.195 0.664 0 0.375 0.14 0.688 0.422 0.938 0.286 0.25 0.703 0.375 1.25 0.375 0.541 0 1.023-0.118 1.445-0.352 0.422-0.24 0.732-0.565 0.93-0.977 0.151-0.317 0.226-0.786 0.226-1.406v-0.515m8.961 4.164v-1.047c-0.526 0.823-1.299 1.234-2.32 1.234-0.662 0-1.271-0.182-1.828-0.547-0.552-0.364-0.982-0.872-1.289-1.523-0.302-0.656-0.453-1.409-0.453-2.258 0-0.828 0.138-1.578 0.414-2.25 0.276-0.677 0.69-1.1953 1.242-1.5546 0.552-0.3594 1.169-0.5391 1.851-0.5391 0.5 0 0.946 0.1068 1.336 0.3203 0.391 0.2084 0.709 0.4818 0.953 0.8204v-4.1092h1.399v11.453h-1.305m-4.445-4.141c0 1.063 0.224 1.857 0.672 2.383s0.976 0.789 1.586 0.789c0.614 0 1.135-0.25 1.562-0.75 0.432-0.505 0.649-1.274 0.649-2.305 0-1.135-0.219-1.969-0.657-2.5-0.437-0.531-0.976-0.797-1.617-0.797-0.625 0-1.148 0.256-1.57 0.766-0.417 0.51-0.625 1.315-0.625 2.414m13.617 1.469 1.453 0.179c-0.229 0.849-0.654 1.508-1.273 1.977-0.62 0.469-1.412 0.703-2.375 0.703-1.214 0-2.177-0.372-2.891-1.117-0.708-0.75-1.062-1.799-1.062-3.148 0-1.396 0.359-2.48 1.078-3.25 0.718-0.7713 1.651-1.1567 2.797-1.1567 1.109 0 2.015 0.3776 2.718 1.1327 0.703 0.755 1.055 1.818 1.055 3.188 0 0.083-0.003 0.208-0.008 0.375h-6.187c0.052 0.911 0.31 1.609 0.773 2.093 0.464 0.485 1.042 0.727 1.735 0.727 0.515 0 0.955-0.135 1.32-0.406 0.364-0.271 0.653-0.703 0.867-1.297m-4.617-2.274h4.633c-0.063-0.698-0.24-1.221-0.532-1.57-0.448-0.542-1.028-0.812-1.742-0.812-0.646 0-1.19 0.216-1.633 0.648-0.437 0.432-0.679 1.01-0.726 1.734m7.281 2.469 1.391-0.219c0.078 0.558 0.294 0.985 0.648 1.282 0.36 0.296 0.86 0.445 1.5 0.445 0.646 0 1.125-0.13 1.438-0.391 0.312-0.265 0.468-0.575 0.468-0.929 0-0.318-0.138-0.568-0.414-0.75-0.192-0.125-0.672-0.284-1.437-0.477-1.031-0.26-1.748-0.484-2.149-0.672-0.395-0.193-0.698-0.456-0.906-0.789-0.203-0.338-0.305-0.711-0.305-1.117 0-0.37 0.084-0.711 0.25-1.024 0.172-0.317 0.404-0.5802 0.696-0.7886 0.219-0.1614 0.515-0.2968 0.89-0.4062 0.381-0.1146 0.787-0.1719 1.219-0.1719 0.651 0 1.221 0.0938 1.711 0.2813 0.495 0.1875 0.859 0.4427 1.094 0.7654 0.234 0.318 0.396 0.745 0.484 1.281l-1.375 0.188c-0.062-0.427-0.245-0.76-0.547-1-0.297-0.24-0.718-0.359-1.265-0.359-0.646 0-1.107 0.106-1.383 0.32-0.276 0.213-0.414 0.463-0.414 0.75 0 0.182 0.057 0.346 0.172 0.492 0.114 0.151 0.294 0.276 0.539 0.375 0.14 0.052 0.554 0.172 1.242 0.359 0.995 0.266 1.687 0.485 2.078 0.657 0.396 0.166 0.706 0.411 0.93 0.734s0.336 0.724 0.336 1.203c0 0.469-0.138 0.912-0.414 1.328-0.271 0.412-0.664 0.732-1.18 0.961-0.516 0.224-1.099 0.336-1.75 0.336-1.078 0-1.901-0.224-2.469-0.672-0.562-0.448-0.922-1.112-1.078-1.992m12.477-1.672c0-1.536 0.427-2.674 1.281-3.4138 0.713-0.6146 1.583-0.9219 2.609-0.9219 1.141 0 2.073 0.375 2.797 1.1247 0.724 0.745 1.086 1.776 1.086 3.094 0 1.068-0.161 1.909-0.484 2.523-0.318 0.61-0.784 1.084-1.399 1.422-0.609 0.339-1.276 0.508-2 0.508-1.161 0-2.101-0.372-2.82-1.117-0.714-0.745-1.07-1.818-1.07-3.219m1.445 0c0 1.063 0.232 1.86 0.695 2.391 0.464 0.526 1.047 0.789 1.75 0.789 0.698 0 1.279-0.266 1.742-0.797 0.464-0.531 0.696-1.341 0.696-2.43 0-1.026-0.235-1.802-0.703-2.328-0.464-0.531-1.042-0.797-1.735-0.797-0.703 0-1.286 0.263-1.75 0.789-0.463 0.526-0.695 1.321-0.695 2.383m8.32 4.149v-7.2032h-1.242v-1.0942h1.242v-0.8828c0-0.5573 0.05-0.9714 0.149-1.2422 0.135-0.3646 0.372-0.6588 0.711-0.8828 0.343-0.2292 0.823-0.3437 1.437-0.3438 0.396 0.0001 0.833 0.0469 1.313 0.1407l-0.211 1.2265c-0.292-0.052-0.568-0.0781-0.828-0.0781-0.428 0-0.73 0.0912-0.907 0.2734-0.177 0.1823-0.265 0.5235-0.265 1.0235v0.7656h1.617v1.0942h-1.617v7.203h-1.399m-67.718 16v-11.453h4.3203c0.7604 0 1.3412 0.036 1.7422 0.109 0.563 0.094 1.034 0.273 1.414 0.539 0.38 0.26 0.685 0.628 0.914 1.102 0.235 0.474 0.352 0.994 0.352 1.562 0 0.974-0.31 1.8-0.93 2.477-0.62 0.671-1.7396 1.007-3.3594 1.007h-2.9375v4.657h-1.5156m1.5156-6.008h2.961c0.9791 0 1.6745-0.182 2.0859-0.547 0.411-0.365 0.617-0.878 0.617-1.539 0-0.479-0.122-0.888-0.367-1.227-0.24-0.343-0.5573-0.57-0.9531-0.679-0.2552-0.068-0.7266-0.102-1.4141-0.102h-2.9297v4.094m14.399 6.008v-1.219c-0.646 0.937-1.524 1.406-2.633 1.406-0.49 0-0.948-0.094-1.375-0.281-0.422-0.188-0.737-0.422-0.946-0.703-0.203-0.287-0.346-0.636-0.429-1.047-0.058-0.276-0.086-0.714-0.086-1.313v-5.14h1.406v4.601c0 0.735 0.029 1.23 0.086 1.485 0.089 0.37 0.276 0.661 0.563 0.875 0.286 0.208 0.64 0.312 1.062 0.312s0.818-0.107 1.188-0.32c0.369-0.219 0.63-0.513 0.781-0.883 0.156-0.375 0.234-0.917 0.234-1.625v-4.445h1.406v8.297h-1.257m3.453 0v-8.297h1.265v1.258c0.323-0.589 0.62-0.977 0.891-1.164 0.276-0.188 0.578-0.282 0.906-0.282 0.474 0 0.956 0.151 1.446 0.453l-0.485 1.305c-0.344-0.203-0.687-0.305-1.031-0.305-0.307 0-0.583 0.094-0.828 0.282-0.245 0.182-0.42 0.437-0.524 0.765-0.156 0.5-0.234 1.047-0.234 1.641v4.344h-1.406m5.328 3.179v-11.476h1.281v1.078c0.302-0.422 0.643-0.737 1.024-0.945 0.38-0.214 0.841-0.321 1.382-0.321 0.709 0 1.334 0.183 1.875 0.547 0.542 0.365 0.951 0.88 1.227 1.547 0.276 0.662 0.414 1.388 0.414 2.18 0 0.849-0.154 1.614-0.461 2.297-0.302 0.677-0.745 1.198-1.328 1.562-0.578 0.359-1.188 0.539-1.828 0.539-0.469 0-0.891-0.099-1.266-0.297-0.37-0.198-0.674-0.448-0.914-0.75v4.039h-1.406m1.273-7.281c0 1.068 0.216 1.857 0.649 2.367 0.432 0.511 0.955 0.766 1.57 0.766 0.625 0 1.159-0.263 1.602-0.789 0.447-0.531 0.671-1.352 0.671-2.461 0-1.057-0.218-1.849-0.656-2.375-0.432-0.526-0.95-0.789-1.554-0.789-0.599 0-1.131 0.281-1.594 0.844-0.459 0.557-0.688 1.369-0.688 2.437m7.633 4.102v-11.453h1.406v11.453h-1.406m9.274-2.672 1.453 0.179c-0.23 0.849-0.654 1.508-1.274 1.977s-1.411 0.703-2.375 0.703c-1.213 0-2.177-0.372-2.89-1.117-0.709-0.75-1.063-1.799-1.063-3.148 0-1.396 0.359-2.48 1.078-3.25 0.719-0.771 1.651-1.157 2.797-1.157 1.109 0 2.016 0.378 2.719 1.133s1.055 1.818 1.055 3.188c0 0.083-0.003 0.208-0.008 0.375h-6.188c0.052 0.911 0.31 1.609 0.774 2.093 0.463 0.485 1.041 0.727 1.734 0.727 0.516 0 0.956-0.135 1.32-0.406 0.365-0.271 0.654-0.703 0.868-1.297m-4.618-2.274h4.633c-0.062-0.698-0.239-1.221-0.531-1.57-0.448-0.542-1.029-0.812-1.742-0.812-0.646 0-1.19 0.216-1.633 0.648-0.438 0.432-0.68 1.01-0.727 1.734"/>
      </g>
    </pattern>
    <pattern id="pattern-0-0" patternTransform="matrix(1, 0, 0, 1, 236.632996, 715.215454)" xlink:href="#pattern-0"/>
    <pattern id="pattern-0-1" patternTransform="matrix(1, 0, 0, 1, 236.632996, 715.215454)" xlink:href="#pattern-0"/>
  </defs>
  <polygon id="e1_polygon" style="stroke-width: 0px; fill: url(#pattern-0-0); stroke: url(#pattern-0-1);" points="234.262 657.86 248.008 698.411 258.318 658.547 280.999 679.853 281.686 686.039 274.813 720.404 277.562 755.457 285.122 763.705 285.122 762.33 268.627 762.33 261.754 731.401 262.441 718.342 262.441 719.03 257.63 733.463 260.379 739.649 273.438 767.141 276.875 780.2 278.249 786.386 228.763 792.571 212.955 792.571 217.079 765.766 233.575 737.587 235.636 726.59 232.2 713.531 227.389 707.346 231.513 723.841 232.2 730.714 224.64 766.454 219.828 765.079 208.144 767.828 208.832 767.828 218.454 748.584 218.454 747.897 219.141 730.027 209.519 689.476 215.705 679.238" class="clothes"/>
</svg>