<?xml version="1.0" encoding="utf-8"?>
<svg class="shirt" width="86" height="380" viewBox="202.715 584.407 86.5933 380.048" preserveAspectRatio="xMidYMax" xmlns="http://www.w3.org/2000/svg" xmlns:xlink="http://www.w3.org/1999/xlink">
  <defs id="svgEditorDefs">
    <path id="svgEditorClosePathDefs" fill="black" style="stroke-width: 0px; stroke: none;" class="clothes"/>
    <pattern id="pattern-0" x="0" y="0" width="20" height="20" patternUnits="userSpaceOnUse" viewBox="0 0 100 100">
      <rect x="-0.324" y="-0.485" width="100.647" height="100.647" style="fill: rgb(129, 79, 79);"/>
      <path d="M 30.097 14.401 C 31.935 14.401 35.753 13.513 38.026 12.945 C 40.485 12.33 44.525 12.716 46.602 13.754 C 48.47 14.688 51.072 13.966 52.913 14.887 C 57.453 17.157 60.019 20.025 61.812 25.405 C 64.424 33.239 58.843 41.173 52.265 43.366 C 51.327 43.678 48.038 44.357 47.411 44.984 C 46.453 45.942 45.681 48.17 44.337 49.515 C 41.59 52.261 42.634 58.822 39.968 61.489 C 39.787 61.67 40.087 68.404 38.511 66.828 C 37.918 66.235 35.868 67.098 35.275 66.505 C 32.363 63.592 34.454 56.183 35.761 52.265 C 36.867 48.946 35.473 46.404 38.026 43.851 C 39.842 42.035 44.426 41.982 45.955 40.453 C 47.748 38.66 50.933 35.141 51.456 32.524 C 51.578 31.917 52.338 29.037 51.78 28.479 C 50.67 27.369 50.516 25.037 48.706 24.434 C 46.988 23.861 44.653 23.132 43.204 21.683 C 42.736 21.215 40.302 21.847 39.644 21.683 C 36.441 20.882 32.761 21.82 30.259 22.654 C 29.261 22.986 28.384 24.186 27.184 23.786 C 24.48 22.885 24.634 21.559 23.139 20.065 C 21.288 18.214 29.935 14.556 29.935 14.401" style="stroke: rgb(0, 0, 0); fill: rgb(216, 216, 216);"/>
      <path d="M 38.188 74.434 C 38.188 73.461 35.963 73.908 35.275 74.595 C 34.009 75.862 33.229 78.098 32.039 79.288 C 29.679 81.647 34.587 86.61 36.408 87.217 C 45.757 90.333 40.647 74.272 38.35 74.272" style="stroke: rgb(0, 0, 0); fill: rgb(216, 216, 216);"/>
    </pattern>
    <pattern id="pattern-0-0" patternTransform="matrix(1, 0, 0, 1, 236.632996, 715.215454)" xlink:href="#pattern-0"/>
  </defs>
  <polygon id="e1_polygon" style="stroke-width: 0px; stroke: none; fill: url(#pattern-0-0);" points="234.262 657.86 248.008 698.411 258.318 658.547 280.999 679.853 281.686 686.039 274.813 720.404 277.562 755.457 285.122 763.705 285.122 762.33 268.627 762.33 261.754 731.401 262.441 718.342 262.441 719.03 257.63 733.463 260.379 739.649 273.438 767.141 276.875 780.2 278.249 786.386 228.763 792.571 212.955 792.571 217.079 765.766 233.575 737.587 235.636 726.59 232.2 713.531 227.389 707.346 231.513 723.841 232.2 730.714 224.64 766.454 219.828 765.079 208.144 767.828 208.832 767.828 218.454 748.584 218.454 747.897 219.141 730.027 209.519 689.476 215.705 679.238" class="clothes"/>
</svg>