<?xml version="1.0" encoding="utf-8"?>
<svg class="shirt" width="86" height="380" viewBox="202.715 584.407 86.5933 380.048" preserveAspectRatio="xMidYMax" xmlns="http://www.w3.org/2000/svg">
  <defs id="svgEditorDefs">
    <path id="svgEditorClosePathDefs" fill="black" style="stroke-width: 0px; stroke: none;" class="clothes"/>
  </defs>
  <rect id="svgEditorBackground" x="202.71499633789062" y="584.4310302734375" width="86.59329986572266" height="115.80899810791016" style="fill: none; stroke: none;" class="clothes"/>
  <rect id="rect-1" x="-403.988" y="499.579" width="1300" height="550" style="fill: none; stroke: none;" class="clothes"/>
  <path d="M 284.351 761.559 C 284.351 762.128 286.998 762.56 285.852 763.705 C 284.927 764.63 281.915 763.78 282.849 762.847 C 283.088 762.607 282.405 765.62 281.133 764.348 C 280.868 764.084 280.408 761.907 281.133 762.632 C 282.022 763.521 278.294 764.184 278.558 763.919 C 278.706 763.771 278.132 762.201 277.7 762.632 C 277.239 763.093 278.167 764.097 278.129 764.134 C 275.704 766.559 275.126 762.632 275.126 762.632 C 275.126 762.632 273.818 765.186 272.552 763.919 C 272.024 763.391 271.161 761.774 271.908 761.774" style="stroke: rgb(0, 0, 0); fill: rgb(216, 216, 216);"/>
  <path d="M 220.253 765.516 C 220.099 766.039 222.606 766.437 221.159 767.491 C 219.99 768.341 217.233 767.56 218.414 766.702 C 218.716 766.48 217.22 769.252 216.304 768.082 C 216.112 767.839 216.247 765.837 216.769 766.503 C 217.41 767.321 213.532 767.931 213.867 767.687 C 214.053 767.551 213.91 766.106 213.365 766.503 C 212.782 766.927 213.43 767.85 213.382 767.885 C 210.318 770.116 210.812 766.503 210.812 766.503 C 210.812 766.503 208.82 768.852 207.909 767.687 C 207.529 767.202 207.112 765.714 207.853 765.714" style="stroke: rgb(0, 0, 0); fill: rgb(216, 216, 216);" transform="matrix(0.958291, -0.285793, 0.285793, 0.958291, -210.274011, 93.303497)"/>
</svg>