<?xml version="1.0" encoding="utf-8"?>
<svg class="shirt" width="86" height="380" viewBox="202.715 584.407 86.5933 380.048" preserveAspectRatio="xMidYMax" xmlns="http://www.w3.org/2000/svg" xmlns:xlink="http://www.w3.org/1999/xlink">
  <defs id="svgEditorDefs">
    <path id="svgEditorClosePathDefs" fill="black" style="stroke-width: 0px; stroke: none;" class="clothes"/>
    <pattern id="pattern-0-0" patternTransform="matrix(1, 0, 0, 1, 235.921753, 771.943237)" xlink:href="#pattern-0"/>
    <pattern id="pattern-0" x="0" y="0" width="20" height="20" patternUnits="userSpaceOnUse" viewBox="0 0 100 100">
      <rect x="-0.664" y="-1.212" width="102.124" height="101.273" style="fill: rgb(177, 255, 238);"/>
      <g transform="matrix(1.509721, 0, 0, 1.450232, -3.45347, -6.83138)">
        <g id="layer1" transform="matrix(1, 0, 0, 1, -337.380005, -494.5)">
          <rect id="rect9425" style="opacity: 0.38683; fill: rgb(227, 255, 41);" transform="matrix(.92501 -.37994 .37994 .92501 0 0)" height="54.483" width="52.636" y="607.24" x="116.28"/>
          <g id="g9637" transform="matrix(2.1949 0 0 2.1949 -3771.5 -832.81)">
            <g id="g9639" transform="translate(-21.861 6.246)">
              <path id="path9641" style="stroke: rgb(0, 0, 0); stroke-width: 0.7; fill: rgb(227, 255, 41);" d="m1894.6 607.57 3.6829 2.3108"/>
              <path id="path9643" style="stroke: rgb(0, 0, 0); stroke-width: 0.7; fill: rgb(227, 255, 41);" d="m1896.9 606.92-1.2276 3.4663"/>
            </g>
            <g id="g9645" transform="translate(-17.294 4.0186)">
              <path id="path9647" d="m1894.6 607.57 3.6829 2.3108" style="stroke: rgb(0, 0, 0); stroke-width: 0.7; fill: rgb(227, 255, 41);"/>
              <path id="path9649" d="m1896.9 606.92-1.2276 3.4663" style="stroke: rgb(0, 0, 0); stroke-width: 0.7; fill: rgb(227, 255, 41);"/>
            </g>
            <g id="g9651" transform="translate(-11.55 1.7678)">
              <path id="path9653" style="stroke: rgb(0, 0, 0); stroke-width: 0.7; fill: rgb(227, 255, 41);" d="m1894.6 607.57 3.6829 2.3108"/>
              <path id="path9655" style="stroke: rgb(0, 0, 0); stroke-width: 0.7; fill: rgb(227, 255, 41);" d="m1896.9 606.92-1.2276 3.4663"/>
            </g>
            <g id="g9657" transform="translate(-5.8775 -.44271)">
              <path id="path9659" d="m1894.6 607.57 3.6829 2.3108" style="stroke: rgb(0, 0, 0); stroke-width: 0.7; fill: rgb(227, 255, 41);"/>
              <path id="path9661" d="m1896.9 606.92-1.2276 3.4663" style="stroke: rgb(0, 0, 0); stroke-width: 0.7; fill: rgb(227, 255, 41);"/>
            </g>
            <g id="g9663" transform="translate(-21.679 11.364)">
              <path id="path9665" style="stroke: rgb(0, 0, 0); stroke-width: 0.7; fill: rgb(227, 255, 41);" d="m1894.6 607.57 3.6829 2.3108"/>
              <path id="path9667" style="stroke: rgb(0, 0, 0); stroke-width: 0.7; fill: rgb(227, 255, 41);" d="m1896.9 606.92-1.2276 3.4663"/>
            </g>
            <g id="g9669" transform="translate(-18.126 20.852)">
              <path id="path9671" d="m1894.6 607.57 3.6829 2.3108" style="stroke: rgb(0, 0, 0); stroke-width: 0.7; fill: rgb(227, 255, 41);"/>
              <path id="path9673" d="m1896.9 606.92-1.2276 3.4663" style="stroke: rgb(0, 0, 0); stroke-width: 0.7; fill: rgb(227, 255, 41);"/>
            </g>
            <g id="g9675" transform="translate(-19.898 16.435)">
              <path id="path9677" d="m1894.6 607.57 3.6829 2.3108" style="stroke: rgb(0, 0, 0); stroke-width: 0.7; fill: rgb(227, 255, 41);"/>
              <path id="path9679" d="m1896.9 606.92-1.2276 3.4663" style="stroke: rgb(0, 0, 0); stroke-width: 0.7; fill: rgb(227, 255, 41);"/>
            </g>
            <g id="g9681" transform="translate(-12.076 28.315)">
              <path id="path9683" d="m1894.6 607.57 3.6829 2.3108" style="stroke: rgb(0, 0, 0); stroke-width: 0.7; fill: rgb(227, 255, 41);"/>
              <path id="path9685" d="m1896.9 606.92-1.2276 3.4663" style="stroke: rgb(0, 0, 0); stroke-width: 0.7; fill: rgb(227, 255, 41);"/>
            </g>
            <g id="g9687" transform="translate(-7.5084 26.088)">
              <path id="path9689" style="stroke: rgb(0, 0, 0); stroke-width: 0.7; fill: rgb(227, 255, 41);" d="m1894.6 607.57 3.6829 2.3108"/>
              <path id="path9691" style="stroke: rgb(0, 0, 0); stroke-width: 0.7; fill: rgb(227, 255, 41);" d="m1896.9 606.92-1.2276 3.4663"/>
            </g>
            <g id="g9693" transform="translate(-2.0764 24.358)">
              <path id="path9695" d="m1894.6 607.57 3.6829 2.3108" style="stroke: rgb(0, 0, 0); stroke-width: 0.7; fill: rgb(227, 255, 41);"/>
              <path id="path9697" d="m1896.9 606.92-1.2276 3.4663" style="stroke: rgb(0, 0, 0); stroke-width: 0.7; fill: rgb(227, 255, 41);"/>
            </g>
            <g id="g9699" transform="translate(3.2834 21.835)">
              <path id="path9701" style="stroke: rgb(0, 0, 0); stroke-width: 0.7; fill: rgb(227, 255, 41);" d="m1894.6 607.57 3.6829 2.3108"/>
              <path id="path9703" style="stroke: rgb(0, 0, 0); stroke-width: 0.7; fill: rgb(227, 255, 41);" d="m1896.9 606.92-1.2276 3.4663"/>
            </g>
            <g id="g9705" transform="translate(.78496 2.9926)">
              <path id="path9707" d="m1894.6 607.57 3.6829 2.3108" style="stroke: rgb(0, 0, 0); stroke-width: 0.7; fill: rgb(227, 255, 41);"/>
              <path id="path9709" d="m1896.9 606.92-1.2276 3.4663" style="stroke: rgb(0, 0, 0); stroke-width: 0.7; fill: rgb(227, 255, 41);"/>
            </g>
            <g id="g9711" transform="translate(5.5736 14.444)">
              <path id="path9713" style="stroke: rgb(0, 0, 0); stroke-width: 0.7; fill: rgb(227, 255, 41);" d="m1894.6 607.57 3.6829 2.3108"/>
              <path id="path9715" style="stroke: rgb(0, 0, 0); stroke-width: 0.7; fill: rgb(227, 255, 41);" d="m1896.9 606.92-1.2276 3.4663"/>
            </g>
            <g id="g9717" transform="translate(3.0752 8.7181)">
              <path id="path9719" style="stroke: rgb(0, 0, 0); stroke-width: 0.7; fill: rgb(227, 255, 41);" d="m1894.6 607.57 3.6829 2.3108"/>
              <path id="path9721" style="stroke: rgb(0, 0, 0); stroke-width: 0.7; fill: rgb(227, 255, 41);" d="m1896.9 606.92-1.2276 3.4663"/>
            </g>
            <g id="g9723" transform="translate(7.2152 19.561)">
              <path id="path9725" style="stroke: rgb(0, 0, 0); stroke-width: 0.7; fill: rgb(227, 255, 41);" d="m1894.6 607.57 3.6829 2.3108"/>
              <path id="path9727" style="stroke: rgb(0, 0, 0); stroke-width: 0.7; fill: rgb(227, 255, 41);" d="m1896.9 606.92-1.2276 3.4663"/>
            </g>
            <g id="g9729" transform="translate(-1.3351 -1.6814)">
              <path id="path9731" style="stroke: rgb(0, 0, 0); stroke-width: 0.7; fill: rgb(227, 255, 41);" d="m1894.6 607.57 3.6829 2.3108"/>
              <path id="path9733" style="stroke: rgb(0, 0, 0); stroke-width: 0.7; fill: rgb(227, 255, 41);" d="m1896.9 606.92-1.2276 3.4663"/>
            </g>
            <g id="g9735" transform="translate(-16.454 25.286)">
              <path id="path9737" style="stroke: rgb(0, 0, 0); stroke-width: 0.7; fill: rgb(227, 255, 41);" d="m1894.6 607.57 3.6829 2.3108"/>
              <path id="path9739" style="stroke: rgb(0, 0, 0); stroke-width: 0.7; fill: rgb(227, 255, 41);" d="m1896.9 606.92-1.2276 3.4663"/>
            </g>
          </g>
          <rect id="rect10143" style="opacity: 0.38683; fill: rgb(227, 255, 41);" transform="matrix(.92501 -.37994 .37994 .92501 0 0)" height="18.793" width="18.156" y="612.96" x="144.75"/>
          <rect id="rect10147" style="opacity: 0.38683; fill: rgb(227, 255, 41);" transform="matrix(.92501 -.37994 .37994 .92501 0 0)" height="18.793" width="18.156" y="633.96" x="122.72"/>
          <rect id="rect3999" style="opacity: 0.38683; fill: rgb(227, 255, 41);" transform="matrix(.92501 -.37994 .37994 .92501 0 0)" height="18.793" width="18.156" y="612.61" x="123.5"/>
          <rect id="rect4001" style="opacity: 0.38683; fill: rgb(227, 255, 41);" transform="matrix(.92501 -.37994 .37994 .92501 0 0)" height="18.793" width="18.156" y="635.72" x="143.31"/>
        </g>
      </g>
    </pattern>
    <pattern id="pattern-0-1" patternTransform="matrix(1, 0, 0, 1, 206.024597, 681.902588)" xlink:href="#pattern-0"/>
    <pattern id="pattern-0-2" patternTransform="matrix(0.973865, -0.000003, 0, 1.000003, 266.755951, 674.136169)" xlink:href="#pattern-0"/>
  </defs>
  <rect id="svgEditorBackground" x="202.71499633789062" y="584.4310302734375" width="86.59329986572266" height="115.80899810791016" style="fill: none; stroke: none;" class="clothes"/>
  <rect id="rect-1" x="-403.988" y="499.579" width="1300" height="550" style="fill: none; stroke: none;" class="clothes"/>
  <rect id="rect-2" x="202.71499633789062" y="584.4310302734375" width="86.59329986572266" height="115.80899810791016" style="fill: none; stroke: none;" class="clothes" transform="matrix(1, 0, 0, 1, -24.848031076178643, -118.83611887336247)"/>
  <rect id="rect-3" x="-403.988" y="499.579" width="1300" height="550" style="fill: none; stroke: none;" class="clothes" transform="matrix(1, 0, 0, 1, -24.848031076178643, -118.83611887336247)"/>
  <path d="M 235.674 731.85 C 209.399 779.907 211.398 787.475 212.305 796.422 C 213.074 804.012 224.701 798.364 223.375 785.967 C 223.263 784.923 222.76 796.422 222.76 796.422 C 222.76 796.422 235.148 796.333 235.674 795.807 C 237.211 794.27 232.432 785.52 232.599 785.353 C 234.41 783.542 236.289 795.192 236.289 795.192 C 236.289 795.192 250.574 794.437 251.048 793.962 C 253.104 791.906 247.973 782.893 247.973 782.893 C 247.973 782.893 253.294 798.48 259.043 792.732 C 260.523 791.251 273.626 794.52 273.187 792.117 C 268.768 767.949 273.745 787.527 274.418 789.042 C 274.418 789.042 261.1 799.284 281.181 789.042 C 284.544 787.326 277.948 780.731 277.492 779.818 C 273.57 771.975 266.614 745.381 255.352 732.466" style="stroke: rgb(0, 0, 0); fill: url(#pattern-0-0);"/>
  <path d="M 221.779 682.186 C 219.923 682.186 224.936 688.253 223.624 689.566 C 223.297 689.893 218.208 674.926 218.089 674.806 C 217.431 674.148 211.226 674.29 208.25 677.267 C 201.793 683.723 204.698 709.105 213.169 700.635 C 216.134 697.671 208.068 706.604 210.709 708.63 C 214.32 711.4 222.762 704.94 227.314 704.94" style="stroke: rgb(0, 0, 0); fill: url(#pattern-0-1);"/>
  <path d="M 266.544 697.499 C 271.573 697.499 286.659 701.444 291.1 696.885 C 292.511 695.435 287.201 695.028 286.308 693.195 C 282.744 685.874 287.558 677.874 281.518 671.671 C 274.569 664.537 270.215 673.038 269.037 678.626 C 267.153 687.56 272.295 691.965 267.742 691.965" style="stroke: rgb(0, 0, 0); fill: url(#pattern-0-2);" transform="matrix(0.988128, 0.153632, -0.153632, 0.988128, 108.387674, -34.356488)"/>
</svg>