<svg class="hair" width="113.02085876464844" height="90.679931640625" viewBox="12.5469 2044.93 113.021 90.6799" xmlns="http://www.w3.org/2000/svg"><path class="hair" id="path2266" style="fill:#c4501f;fill-opacity:1;fill-rule:nonzero;stroke:none" d="m 940.41,3940.4 c 1.348,26.2 -25.39,44.6 -48.769,36.9 24.394,5.5 35.547,29 24.336,52.5 -10.059,23.7 -40,30.7 -61.426,19.8 l -0.078,0.1 c 21.484,11 27.226,36.4 12.402,57.2 -17.559,19 -47.305,21.6 -65.371,6.8 l -0.098,0.1 c 18.067,14.7 19.297,42.5 -3.144,57.6 -21.407,16.3 -50.625,13.3 -64.824,-5.9 h -0.059 c 14.199,18.2 6.289,43.3 -18.106,56 -25.175,10.8 -53.418,0.4 -61.777,-19.9 l -0.137,0.1 c 8.653,20.5 -4.785,45.4 -32.519,50 -27.305,6.4 -51.875,-9 -54.668,-31.6 h -0.059 c 3.164,21.9 -16.777,41.2 -44.843,42.9 -28.086,-1.7 -48.028,-21 -44.883,-42.9 h -0.059 c -2.773,22.6 -27.344,38 -54.648,31.6 -27.715,-4.6 -41.172,-29.5 -32.539,-50 l -0.118,-0.1 c -8.378,20.3 -36.64,30.7 -61.796,19.9 -24.375,-12.7 -32.305,-37.8 -18.106,-56 h -0.039 c -14.199,19.2 -43.437,22.2 -64.844,5.9 -22.441,-15.1 -21.211,-42.8 -3.125,-57.6 l -0.117,-0.1 c -18.066,14.8 -47.793,12.3 -65.371,-6.8 -14.824,-20.7 -9.062,-46.2 12.402,-57.2 l -0.058,-0.1 c -21.426,11 -51.367,3.9 -61.446,-19.8 -11.191,-23.5 -0.039,-47 24.336,-52.5 -23.359,7.8 -50.097,-10.7 -48.73,-36.9 0.254,-8.2 3.418,-15.5 8.32,-21.3 -8.554,-6.2 -14.6287,-15.8 -14.9802,-27.4 -1.3672,-26.2 25.3712,-44.7 48.7302,-36.9 -24.375,-5.5 -35.527,-29 -24.336,-52.5 10.078,-23.7 40.02,-30.7 61.446,-19.8 l 0.058,-0.1 c -21.465,-11 -27.207,-36.5 -12.383,-57.2 17.559,-19.1 47.305,-21.6 65.371,-6.8 l 0.098,-0.1 c -18.086,-14.8 -19.297,-42.5 3.145,-57.6 21.406,-16.3 50.625,-13.3 64.824,5.9 h 0.058 c -14.218,-18.2 -6.289,-43.3 18.086,-56 25.176,-10.8 53.438,-0.4 61.797,19.9 l 0.137,-0.1 c -7.148,-16.9 0.781,-36.8 19.336,-45.8 13.672,10 28.711,18 45.293,23.9 -1.738,4.6 -2.734,9.4 -2.734,14.5 l 0.019,6.9 c -11.055,5 -21.582,10.3 -32.148,14.8 -30.039,12.7 -76.231,8.1 -130.508,80.8 -18.555,24.9 -28.32,56.8 -33.164,87.9 -28.965,-9.1 -32.461,25.3 -37.168,46.6 l 2.285,1.9 c 5.859,5.5 15.098,15.5 13.887,24.2 3.379,-5.3 9.57,-8.2 16.797,-9.1 17.226,-2 40.527,7.4 46.972,24.1 12.285,25.1 -5.488,43.6 -29.14,50.1 24.296,-5.8 51.054,1.1 58.73,15.7 9.063,14.8 2.852,37.4 -17.754,50.9 l -0.332,0.1 0.039,0.1 0.293,-0.2 c 20.274,-12.1 46.856,-11 60.313,1.5 12.617,13.1 14.082,34.7 -1.328,53.2 l -0.293,0.4 h 0.039 l 0.254,-0.4 c 15.566,-16.6 40.976,-22.4 57.675,-14.4 16.328,8.4 25.078,29.2 17.168,50.9 l -0.097,0.3 h 0.019 l 0.078,-0.3 c 8.789,-20 30.918,-33.7 49.16,-30 18.516,2 34.317,20.7 35.079,43.2 0.742,-22.5 16.543,-41.2 35.058,-43.2 18.242,-3.7 40.371,10 49.16,30 l 0.059,0.3 h 0.039 l -0.098,-0.3 c -7.91,-21.7 0.84,-42.5 17.149,-50.9 16.718,-8 42.109,-2.2 57.695,14.4 l 0.254,0.4 h 0.039 l -0.293,-0.4 c -15.43,-18.5 -13.945,-40.1 -1.328,-53.2 13.437,-12.5 40.019,-13.6 60.293,-1.5 l 0.312,0.2 0.039,-0.1 -0.351,-0.1 c -20.586,-13.5 -26.797,-36.1 -17.734,-50.9 7.187,-13.8 31.269,-20.5 54.316,-16.5 l 0.156,-0.6 c -21.445,-7.4 -36.426,-25.2 -24.902,-48.7 4.805,-12.4 18.887,-20.8 32.89,-23.4 12.754,-2.5 25.43,-0.2 30.899,8.3 -0.781,-5.6 2.773,-11.7 6.973,-16.8 -1.719,-4.3 -3.399,-8.7 -4.649,-13.2 -5.625,-20.2 -6.973,-62.2 -38.965,-51.6 -5.273,-28.2 -14.863,-56.4 -31.621,-78.9 -54.277,-72.7 -100.469,-68.1 -130.488,-80.8 -10.606,-4.5 -21.152,-9.8 -32.227,-14.8 l -0.039,-6.9 c 0,-5.5 -1.093,-10.8 -3.144,-15.7 15.527,-6.1 29.726,-14.3 42.695,-24.4 21.309,8 30.859,29.4 23.262,47.5 l 0.117,0.1 c 8.359,-20.4 36.621,-30.7 61.797,-19.9 24.375,12.7 32.305,37.8 18.105,56 h 0.039 c 14.219,-19.2 43.418,-22.2 64.844,-5.9 22.422,15.1 21.211,42.8 3.145,57.6 l 0.078,0.1 c 18.086,-14.8 47.812,-12.3 65.39,6.8 14.825,20.7 9.063,46.2 -12.402,57.2 l 0.059,0.1 c 21.425,-10.9 51.367,-3.9 61.445,19.8 11.191,23.5 0.039,47 -24.336,52.5 23.359,-7.8 50.098,10.7 48.73,36.9 -0.253,8.2 -3.417,15.5 -8.32,21.3 8.555,6.2 14.629,15.8 15,27.4" transform="matrix(0.13333330353101047, 0, 0, -0.13333330353101047, 7.105427357601002e-15, 2613.333251953125)"/><path class="hairStreaks" d="M 45.534 2055.497 C 60.195 2056.401 18.116 2071.396 19.83 2085.772 C 20.383 2090.412 29.665 2086.556 37.68 2084.486 C 41.085 2083.607 42.751 2080.56 42.678 2075.347 C 42.621 2071.257 38.86 2073.161 31.111 2074.204 C 27.817 2074.647 20.149 2085.007 26.399 2085.343 C 30.064 2085.54 32.253 2083.017 37.252 2079.345 C 37.252 2079.345 33.634 2082.106 29.54 2081.345 C 26.902 2080.854 34.447 2076.318 35.252 2075.918 C 38.081 2074.512 40.051 2075.123 39.822 2081.202 C 39.643 2085.957 26.79 2097.381 17.259 2092.34 C 13.374 2090.285 22.846 2074.672 29.683 2068.635" style="stroke: black; stroke-width: 1px; stroke-opacity: 0; fill: rgb(196, 80, 31);"/><path class="hairStreaks" d="M 113.837 2053.583 C 128.498 2054.487 86.419 2069.482 88.133 2083.858 C 88.686 2088.499 97.968 2084.642 105.983 2082.573 C 109.388 2081.693 111.054 2078.647 110.981 2073.433 C 110.924 2069.344 107.163 2071.247 99.414 2072.291 C 96.12 2072.733 88.452 2083.094 94.702 2083.43 C 98.367 2083.627 100.556 2081.104 105.555 2077.431 C 105.555 2077.431 101.937 2080.192 97.843 2079.431 C 95.205 2078.94 99.81 2075.943 102.137 2075.573 C 104.315 2075.227 108.354 2073.21 108.125 2079.288 C 107.946 2084.044 95.093 2095.468 85.562 2090.427 C 81.677 2088.371 91.149 2072.759 97.986 2066.722" style="stroke: black; stroke-width: 1px; stroke-opacity: 0; fill: rgb(196, 80, 31);" transform="matrix(-0.088838, -0.996046, 0.996046, -0.088838, -1954.683087, 2357.164707)"/></svg>