<svg class="hair" width="97.31735229492188" height="76.3599853515625" viewBox="185.247 1570.21 97.3174 76.36" xmlns="http://www.w3.org/2000/svg"><path class="hair" id="path2242" style="fill:#3872c1;fill-opacity:1;fill-rule:nonzero;stroke:none" d="m 2010.01,7272 c -23.96,34.6 -14.64,74.6 -14.64,74.6 26.64,-32 123.86,-79.9 123.86,-79.9 -47.11,62.4 -60.31,167.2 -63.92,212.4 -5.18,-9.3 -13.34,-14.7 -27.35,-10.1 -5.27,-28.2 -14.84,-56.4 -31.6,-78.8 -54.29,-72.8 -100.49,-68.2 -130.51,-80.9 -10.58,-4.5 -21.15,-9.7 -32.22,-14.8 l -0.04,-6.9 c 0,-5.5 -1.09,-10.7 -3.15,-15.6 4.77,-1.9 9.4,-4.1 13.91,-6.3 41.74,-13.8 95.08,-15 95.08,-15 -11.99,17.3 -7.99,45.3 -7.99,45.3 34.63,-21.3 78.57,-24 78.57,-24" transform="matrix(0.13333330353101044, 0, 0, -0.13333330353101044, 0, 2613.333251953125)"/><path class="hair" id="path2244" style="fill:#3872c1;fill-opacity:1;fill-rule:nonzero;stroke:none" d="M 199.14 1600.294 C 199.28 1600.481 199.436 1600.641 199.588 1600.827 C 200.11 1601.427 200.676 1602.014 201.312 1602.587 L 201.377 1602.468 L 205.066 1596.174 L 208.681 1602.521 L 211.993 1608.334 L 212.952 1608.334 L 216.381 1602.468 L 220.072 1596.174 L 223.689 1602.521 L 227.001 1608.334 L 227.957 1608.334 L 231.386 1602.468 L 235.08 1596.174 L 238.694 1602.521 L 242.006 1608.334 L 242.962 1608.334 L 246.394 1602.468 L 250.085 1596.174 L 253.7 1602.521 L 257.012 1608.334 L 257.97 1608.334 L 261.4 1602.468 L 265.093 1596.174 L 268.708 1602.521 L 268.924 1602.894 C 269.538 1602.374 270.088 1601.827 270.605 1601.267 C 270.618 1601.361 270.632 1601.481 270.648 1601.601 C 271.668 1601.227 273.277 1600.841 274.673 1601.468 C 274.916 1596.601 274.905 1591.961 273.921 1590.041 L 273.809 1589.827 C 270.929 1579.974 255.02 1570.334 235.561 1570.334 C 215.353 1570.334 198.504 1580.734 196.514 1590.974 C 195.765 1593.534 195.145 1597.001 194.673 1600.627 C 196.108 1599.547 197.941 1599.881 199.14 1600.294"/><path class="hair" id="path2246" style="fill:#3872c1;fill-opacity:1;fill-rule:nonzero;stroke:none" d="m 1694.1,7287.6 v 7 c -11.06,5 -21.59,10.2 -32.15,14.7 -30.02,12.7 -76.23,8.1 -130.51,80.9 -18.55,24.8 -28.32,56.7 -33.16,87.9 -31.49,-9.9 -32.86,31.7 -38.44,51.8 -1.17,4.2 -2.76,8.4 -4.38,12.5 -1.4,-18.9 -2.16,-36.2 -2.16,-49.3 0,-2.4 0.13,-4.8 0.23,-7.2 -3.3,-43.6 -16.13,-151.5 -64.18,-215.2 0,0 97.23,47.9 123.87,79.9 0,0 9.33,-40 -14.63,-74.6 0,0 43.94,2.7 78.57,24 0,0 3.99,-28 -7.99,-45.3 0,0 49.32,1.1 90.22,13.4 5.51,-1.4 11.17,-2.6 16.84,-3.8 6.6,3.3 13.43,6.3 20.58,8.8 -1.74,4.6 -2.71,9.5 -2.71,14.5" transform="matrix(0.13333330353101044, 0, 0, -0.13333330353101044, 0, 2613.333251953125)"/><polygon class="hairStreaks" points="232.145 1572.976 218.677 1576.944 206.532 1585.602 212.183 1603.88 212.183 1603.88 218.677 1592.817 227.455 1605.083 226.854 1590.172 228.898 1580.672" style="stroke: none; stroke-width: 1px; fill: rgb(56, 114, 193);"/></svg>