<svg class="hair" width="104.2652587890625" height="96.1201171875" viewBox="733.828 1911.27 104.265 96.1201" xmlns="http://www.w3.org/2000/svg"><path class="hair" id="path2238" style="fill:#e943aa;fill-opacity:1;fill-rule:nonzero;stroke:none" d="m 6204.45,5032.4 c -63.92,157.2 -197.13,121.2 -197.13,121.2 10.67,21.3 43.97,38.7 43.97,38.7 -79.92,11.9 -111.9,-26.7 -111.9,-26.7 21.33,36 23.99,99.9 23.99,99.9 -47.95,-54.6 -125.2,-79.9 -125.2,-79.9 -334.04,-40.7 -334.47,-245.4 -324.39,-315.8 4.69,-0.9 8.85,-2.3 11.95,-3.6 2.01,11.5 17.89,91.6 85.24,157.9 3.79,3.7 7.71,7.1 11.77,10.4 45.1,-43.2 156.53,-126.7 332.64,-113.3 0,0 109.88,-35.9 95.9,-157.8 l 10,45.7 11.39,52.1 c 8.92,0.8 18.78,-1.2 26.03,-10.4 16.95,-21.6 1.54,-40.4 -4.22,-61.2 -5.62,-20.2 -6.97,-62.2 -38.96,-51.7 -5.28,-28.2 -14.87,-56.3 -31.62,-78.8 -54.28,-72.8 -100.47,-68.1 -130.51,-80.8 -10.59,-4.5 -21.13,-9.8 -32.21,-14.8 l -0.04,-7 c 0,-3.9 -0.58,-7.6 -1.64,-11.2 19.34,5 30.63,10.3 30.63,10.3 l 19.96,-9.3 c 45.29,20 69.28,41.3 69.28,41.3 l 18.63,-16 c 287.69,215.8 73.26,483.5 73.26,483.5 70.59,13.3 133.18,-22.7 133.18,-22.7" transform="matrix(0.13333330353101047, 0, 0, -0.13333330353101047, 7.105427357601002e-15, 2613.333251953125)"/><path class="hair" id="path2240" style="fill:#e943aa;fill-opacity:1;fill-rule:nonzero;stroke:none" d="m 5721.66,4563.5 c -11.05,5 -21.6,10.3 -32.15,14.8 -30.04,12.7 -76.23,8 -130.51,80.8 -18.55,24.9 -28.32,56.7 -33.18,87.9 -6.74,-2.1 -12.17,-2 -16.48,0 5.09,-130.5 87.77,-164.7 87.77,-164.7 l 14.65,11.9 c 21.31,-34.6 58.61,-42.6 58.61,-42.6 v 12 c 18.2,-8.6 36.04,-14.7 53.13,-19 -1.18,3.8 -1.86,7.8 -1.86,11.9 l 0.02,7" transform="matrix(0.13333330353101047, 0, 0, -0.13333330353101047, 7.105427357601002e-15, 2613.333251953125)"/><path class="hairStreaks" d="M 788.321 1918.99 C 786.908 1925.953 766.726 1925.75 758.955 1929.131 C 758.955 1929.131 767.936 1925.094 780.147 1920.957 C 783.096 1919.958 792.807 1913.912 780.45 1914.297 C 772.179 1914.555 790.927 1909.939 789.683 1916.263" style="stroke: black; stroke-width: 1px; stroke-opacity: 0; fill: rgb(233, 67, 170);"/><path class="hairStreaks" d="M 758.955 1929.586 C 762.286 1926.255 775.454 1924.641 799.825 1944.42 C 799.825 1944.42 779.844 1928.779 758.955 1929.586 Z" style="stroke: black; stroke-width: 1px; stroke-opacity: 0; fill: rgb(233, 67, 170);"/><path class="hairStreaks" d="M 763.042 1927.77 C 775.555 1924.389 813.466 1947.437 801.491 1940.938 C 790.464 1934.954 794.904 1925.014 763.799 1927.164" style="stroke: black; stroke-width: 0px; fill: rgb(233, 67, 170); stroke-opacity: 0;"/></svg>