<svg class="hair" width="86.8853759765625" height="84.13330078125" viewBox="594.702 1916.44 86.8854 84.1333" xmlns="http://www.w3.org/2000/svg"><path class="hair" id="path2200" style="fill-opacity: 1; fill-rule: nonzero; stroke: none; fill: rgb(14, 14, 111);" d="M 4789.28 5214.4 C 4789.28 5214.4 4460.27 5226.7 4486.27 4922 C 4486.27 4922 4503.24 4922 4504.22 4917 C 4505.16 4912.1 4524.222 4893.054 4525.082 4886.454 C 4528.362 4861.154 4534.635 5034.888 4540.105 5000.688 C 4543.665 4978.388 4572.624 4906.555 4579.024 4889.755 C 4579.024 4889.755 4541.674 5047.101 4565.469 5019.772 C 4659.509 4911.766 4557.471 5025.512 4618.283 5037.798 C 4618.283 5037.798 4755.419 4884.947 4788.979 4882.582 C 4788.979 4882.582 4709.966 4969.449 4714.763 5002.933 C 4714.763 5002.933 4809.642 4866.818 4822.632 4851.818 C 4822.632 4851.818 4750.98 5032.9 4763.95 5041.9 C 4763.95 5041.9 4886.435 4779.629 4894.425 4764.629 C 4894.425 4764.629 4859.832 4879.336 4836.88 5041.9 L 4900.329 4771.832 C 4900.329 4771.832 4899.8 5023.9 4913.79 5041.9 C 4913.79 5041.9 4914.072 5011.415 4927.152 4886.215 C 4929.382 4864.915 4933.973 4765.58 4877.594 4664.494 C 4877.594 4664.494 5010.57 4761.5 5019.34 4796.7 C 5028.5 4833.5 5038.61 4877.6 5041.82 4905 L 5042.07 4907.2 C 5042.32 4909.6 5047.52 4907.9 5047.64 4910 C 5047.64 4910 5056.64 4907.1 5071.62 4908 C 5086.6 4909.1 5111.91 5204.4 4789.28 5214.4" transform="matrix(0.13333330353101047, 0, 0, -0.13333330353101047, 7.105427357601002e-15, 2613.333251953125)"/><path class="hair" id="path2202" style="fill-opacity: 1; fill-rule: nonzero; stroke: none; fill: rgb(60, 21, 143);" d="M 4704.82 4613.6 C 4693.77 4618.6 4683.24 4623.9 4672.68 4628.4 C 4642.66 4641.1 4596.45 4636.4 4542.17 4709.2 C 4522.27 4735.9 4512.48 4770.6 4508.03 4803.9 L 4492.25 4804.2 C 4492.25 4804.2 4462.973 4648.257 4592.867 4611.044 L 4579.16 4644.3 C 4579.16 4644.3 4594.14 4620.4 4616.11 4605.4 C 4616.11 4605.4 4654.67 4599.4 4706.31 4595.8 C 4705.35 4599.3 4704.82 4602.9 4704.82 4606.7 L 4704.82 4613.6" transform="matrix(0.13333330353101047, 0, 0, -0.13333330353101047, 7.105427357601002e-15, 2613.333251953125)"/><path class="hair" id="path2204" style="fill-opacity: 1; fill-rule: nonzero; stroke: none; fill: rgb(27, 21, 143);" d="M 667.612 1985.44 C 660.372 1995.147 654.213 1994.52 650.21 1996.214 C 648.8 1996.813 647.39 1997.52 645.914 1998.187 L 645.912 1999.107 C 645.912 1999.614 645.838 2000.107 645.705 2000.573 C 647.56 2000.4 674.108 1999.34 675.792 1998.993 C 675.792 1998.993 668.214 1996.006 670.61 1991.752 L 680.86 1998.37 C 680.86 1998.37 673.552 1991.294 674.484 1973.84 L 672.018 1973.813 C 671.366 1977.933 670.065 1982.147 667.612 1985.44"/><path class="hairStreaks" d="M 646.243 1930.881 C 646.243 1930.881 650.816 1951.55 652.077 1961.223 C 653.339 1970.895 650.658 1937.771 654.285 1937.903 C 657.912 1938.036 660.277 1973.015 656.571 1984.276 C 652.866 1995.538 676.913 1936.048 659.015 1936.313 C 641.118 1936.578 650.422 1921.343 646.243 1930.881 Z" style="stroke: black; stroke-width: 1px; fill: rgb(14, 14, 111); stroke-opacity: 0;"/></svg>