<svg class="hair" width="132.26666259765625" height="90.1865234375" viewBox="167.773 1452.51 132.267 90.1865" xmlns="http://www.w3.org/2000/svg"><path class="hair" id="path2322" style="fill:#f58615;fill-opacity:1;fill-rule:nonzero;stroke:none" d="m 2222.23,8312.7 c 3.99,8.1 5.88,12.8 5.88,12.8 -1.74,4.5 -3.51,8.8 -5.28,13.2 18.15,7.4 27.47,28.4 18.81,46.3 -8.11,18.2 -30.23,24.8 -47.57,15.6 h -0.02 c 17.64,9.1 24.54,30.8 14.29,48.1 -10.21,17.4 -32.77,21.9 -49.03,10.8 16.59,10.8 20.95,33.2 8.76,49.5 -12.23,16.2 -35.24,17.9 -50.08,4.8 l -0.02,0.1 c 15.22,12.9 16.61,35.7 2.32,50.4 -14.58,14.4 -37.5,13.1 -50.44,-2 h -0.02 c 13.21,14.9 11.36,37.8 -5.1,50.3 -16.64,12.2 -39.28,7.4 -49.65,-9.5 h -0.01 c 10.81,16.7 5.46,39.2 -12.91,48.9 -18.32,9.7 -39.99,1.2 -47.55,-17.1 8.03,18.1 -0.84,39.6 -20.47,46.2 -19.64,6.6 -39.68,-5.1 -44.24,-24.5 h -0.01 c 5.08,19.2 -7.02,39 -27.41,42.5 -20.39,3.5 -38.35,-11.2 -39.91,-31 2.1,19.8 -12.9,37.4 -33.6,37.8 -20.73,0.3 -36.37,-17.1 -34.67,-36.9 1.68,19.8 -13.94,37.2 -34.68,36.9 -20.71,-0.4 -35.69,-18 -33.6,-37.8 h -0.01 c -1.55,19.8 -19.52,34.5 -39.9,31 -20.38,-3.5 -32.49,-23.3 -27.41,-42.5 -4.57,19.4 -24.61,31.1 -44.26,24.5 -19.61,-6.6 -28.49,-28.1 -20.47,-46.2 h -0.01 c -7.54,18.3 -29.22,26.8 -47.53,17.1 -18.36,-9.7 -23.72,-32.2 -12.9,-48.9 h -0.01 c -10.39,16.9 -33.03,21.7 -49.67,9.5 -16.45,-12.5 -18.29,-35.4 -5.09,-50.3 h -0.02 c -12.95,15.1 -35.85,16.4 -50.45,2 -14.26,-14.7 -12.9,-37.5 2.33,-50.4 l -0.02,-0.1 c -14.84,13.1 -37.85,11.4 -50.08,-4.8 -12.19,-16.3 -7.82,-38.7 8.76,-49.5 -16.27,11.1 -38.82,6.6 -49.04,-10.8 -10.24,-17.3 -3.35,-39 14.31,-48.1 h -0.01 c -17.37,9.2 -39.48,2.6 -47.59,-15.6 -8.65,-17.9 0.64,-38.9 18.82,-46.3 -1.79,-4.4 -3.56,-8.7 -5.3,-13.2 0,0 1.89,-4.7 5.9,-12.8 -17.99,-8.4 -24.57,-31.3 -13.44,-49.7 11.39,-17.9 34.32,-22.1 50.3,-10.1 h 0.03 c -15.89,-11.5 -19.31,-35.1 -5.2,-50.9 13.32,-16.3 37.33,-16.2 50.99,-2.4 l 0.04,-0.1 c -13.95,-13.8 -13.8,-37.5 2.57,-50.9 15.63,-14.2 39.13,-10.7 50.72,5.1 h 0.06 c -11.54,-15.5 -7.92,-39.2 10.13,-50 18.26,-10.8 40.42,-5 49.42,12.7 l 0.01,-0.1 c -9.54,-17.5 -1.62,-38.8 17.58,-47.7 18.77,-9.5 40.51,1.8 46.9,19.8 l 0.08,-0.1 c -6.37,-18.2 3.99,-39.3 24.01,-44.9 20.28,-4.8 39.77,7.1 43.74,26.3 h 0.07 c -3.59,-17.3 6.62,-35 23.71,-39.9 17.4,15.7 37.34,28 60.19,36.1 -1.73,4.5 -2.72,9.4 -2.72,14.4 v 7 c -11.05,5 -21.58,10.3 -32.14,14.7 -30.04,12.7 -76.23,8.1 -130.5,80.9 -18.56,24.8 -28.33,56.7 -33.18,87.9 -31.49,-9.9 -32.84,31.7 -38.43,51.8 -5.78,20.8 -21.18,39.7 -4.23,61.2 12.31,15.7 32.14,10.4 42.06,6.4 0.17,-1.1 0.29,-1.7 0.29,-1.7 9.64,-0.7 18.94,-0.8 28.07,-0.5 0.43,-20 18.34,-35.9 40.34,-31.7 22.17,2.3 33.83,24.9 27.97,42.9 h 0.02 c 5.69,-18.7 27.7,-29.5 47.48,-19.4 20.62,8.6 25.6,33.1 15.11,49 h 0.05 c 10.57,-16.7 34.13,-21 50.67,-6.9 17.07,13.5 16.77,37.7 2.78,51 h 0.02 c 1.53,-1.5 3.22,-2.8 4.94,-4 2.2,-7.3 6.78,-14.1 13.92,-18.8 17.12,-12 40.07,-5.9 49.54,11.2 h 0.03 c -10.23,-17.3 -3.39,-39.2 15.54,-48.5 19.45,-8.6 40.7,0.2 47.31,19.3 h 0.02 c -6.76,-18.2 3.51,-40 24.76,-44.8 21.03,-5.4 40.36,8.7 42.55,28.4 h 0.08 c -2.51,-18.9 12.66,-38.8 34.94,-37.5 22.22,-0.4 37.3,18.9 34.27,38.2 h 0.03 c 2.56,-18.8 22.94,-34.1 43.88,-26.4 2.47,0.6 4.7,1.6 6.82,2.6 0.53,-2.7 0.74,-4.1 0.74,-4.1 0,0 0.38,-2.5 0.92,-6.9 10.33,3.9 28.75,7.8 40.4,-7 16.95,-21.6 1.54,-40.4 -4.23,-61.2 -5.61,-20.2 -6.97,-62.2 -38.97,-51.7 -5.26,-28.2 -14.85,-56.4 -31.61,-78.8 -54.28,-72.8 -100.48,-68.2 -130.49,-80.9 -10.59,-4.4 -21.16,-9.7 -32.23,-14.7 l -0.04,-7 c 0,-5.5 -1.1,-10.7 -3.14,-15.6 18.1,-7.1 34.36,-17.2 49.01,-29.7 10.51,7.8 16.06,21.4 13.28,34.7 h 0.07 c 3.99,-19.2 23.46,-31.1 43.75,-26.3 20,5.6 30.38,26.7 24.01,44.9 l 0.05,0.1 c 6.41,-18 28.16,-29.3 46.92,-19.8 19.2,8.9 27.12,30.2 17.58,47.7 v 0.1 c 9.01,-17.7 31.17,-23.5 49.42,-12.7 18.06,10.8 21.67,34.5 10.15,50 h 0.06 c 11.58,-15.8 35.08,-19.3 50.72,-5.1 16.37,13.4 16.51,37.1 2.56,50.9 l 0.06,0.1 c 13.63,-13.8 37.65,-13.9 50.97,2.4 14.11,15.8 10.7,39.4 -5.19,50.9 h 0.02 c 15.99,-12 38.9,-7.8 50.29,10.1 11.15,18.4 4.55,41.3 -13.42,49.7" transform="matrix(0.1333333035310105, 0, 0, -0.1333333035310105, 4.547473508864641e-13, 2613.333251953125)"/><ellipse class="hairStreaks" transform="matrix(1, 0, 0, 1.000006, 159.535492, 1440.295573)" cx="98.14" cy="35.293" rx="7.385" ry="6.604" style="fill: rgb(245, 134, 21);"/><ellipse class="hairStreaks" transform="matrix(1.000002, 0, 0, 0.999993, 159.535308, 1440.296049)" cx="114.615" cy="42.324" rx="4.971" ry="4.545" style="fill: rgb(245, 134, 21);"/><ellipse class="hairStreaks" transform="matrix(0.999997, 0, 0, 1.000006, 159.535794, 1440.295498)" cx="102.898" cy="45.874" rx="5.326" ry="4.403" style="fill: rgb(245, 134, 21);"/><ellipse class="hairStreaks" transform="matrix(0.999998, 0, 0, 1.000006, 159.535705, 1440.295579)" cx="110.78" cy="45.732" rx="4.119" ry="4.119" style="fill: rgb(245, 134, 21);"/></svg>