<svg class="hair" width="96.69464111328125" height="72.813232421875" viewBox="339.643 1461.21 96.6946 72.8132" xmlns="http://www.w3.org/2000/svg"><path class="hair" id="path2460" style="fill:#211d1d;fill-opacity:1;fill-rule:nonzero;stroke:none" d="m 2673.29,8168.4 c -18.56,24.9 -28.32,56.7 -33.17,87.9 -31.49,-9.9 -32.85,31.7 -38.45,51.9 -5.77,20.7 -21.16,39.6 -4.22,61.2 12.52,15.9 32.88,10.1 42.59,6.1 1.02,5.9 5.65,29.5 18.79,60 39.44,-48.7 137.41,-83.2 252.09,-83.2 108.34,0 201.79,30.8 245.05,75.2 12.48,-31.2 15.72,-53.5 15.72,-53.5 0,0 0.39,-2.5 0.9,-6.9 10.37,3.9 28.77,7.8 40.41,-7 16.95,-21.5 1.54,-40.4 -4.24,-61.2 -5.61,-20.2 -6.95,-62.2 -38.95,-51.6 -5.27,-28.3 -14.86,-56.5 -31.6,-78.9 -6.66,-8.9 -13.2,-16.6 -19.59,-23.4 27.25,-13.2 53.26,-29 77.54,-47.2 47.81,57 76.37,128.7 76.37,206.5 0,185.9 -162.34,336.6 -362.6,336.6 -200.28,0 -362.61,-150.7 -362.61,-336.6 0,-79.2 29.57,-152 78.93,-209.5 21.28,15.8 46.53,31.7 71.65,45.2 -7.99,7.9 -16.2,17.1 -24.61,28.4" transform="matrix(0.1333333035310105, 0, 0, -0.1333333035310105, 4.547473508864641e-13, 2613.333251953125)"/><path class="hairStreaks" d="M 366.934 1470.154 C 365.412 1470.154 363.183 1472.921 362.118 1473.823 C 358.298 1477.056 354.822 1480.552 351.454 1484.258 C 350.344 1485.479 349.303 1486.954 348.587 1488.386 C 348.514 1488.531 341.019 1501.572 341.019 1501.572 C 341.019 1501.572 350.818 1487.269 351.11 1487.01 C 353.742 1484.67 356.641 1482.857 359.939 1481.62 C 360.312 1481.481 362.453 1480.695 362.92 1481.162 C 363.016 1481.257 362.186 1481.374 362.118 1481.391 C 361.866 1481.454 361.504 1481.807 361.315 1481.964 C 360.171 1482.917 360.368 1483.318 360.168 1484.716 C 360.145 1484.877 359.862 1485.901 360.054 1486.093 C 360.429 1486.469 361.349 1486.519 362.003 1487.01 C 363.05 1487.795 363.842 1488.848 364.755 1489.532 C 365.707 1490.246 380.218 1495.342 380.005 1494.349 C 378.96 1489.489 379.015 1484.966 383.446 1482.996 C 384.335 1482.601 385.361 1482.269 386.312 1482.079 C 386.367 1482.068 387.459 1481.964 387.459 1481.964 C 387.459 1481.964 387.001 1481.96 387 1481.964 C 386.901 1482.761 387 1483.57 387 1484.372 C 387 1487.238 387.339 1490.047 387.574 1492.858 C 387.6 1493.174 387.414 1495.221 387.688 1495.495 C 388.178 1495.984 389.061 1495.3 389.752 1495.266 C 392.359 1495.135 394.953 1495.342 397.55 1495.495 C 398.117 1495.529 398.7 1495.495 399.27 1495.495 C 399.309 1495.495 402.48 1494.233 402.48 1494.233 C 402.48 1494.233 401.24 1493.151 401.219 1493.087 C 401.043 1492.559 399.53 1490.986 399.384 1490.45 C 398.743 1488.1 398.075 1488.175 396.976 1485.978 C 396.212 1484.449 395.203 1482.69 394.224 1481.276 C 394.174 1481.205 393.095 1479.997 393.307 1479.786 C 393.509 1479.584 393.961 1480.436 393.995 1480.474 C 394.569 1481.12 395.245 1481.671 395.83 1482.308 C 396.306 1482.828 396.765 1483.364 397.206 1483.914 C 397.683 1484.511 398.109 1485.147 398.582 1485.749 C 398.95 1486.218 399.355 1486.658 399.728 1487.125 C 400.728 1488.374 401.716 1489.456 402.824 1490.564 C 402.971 1490.711 403.512 1491.596 403.512 1491.596 C 403.512 1491.596 405.812 1490.839 405.92 1490.794 C 408.81 1489.571 411.52 1487.82 414.406 1486.666 C 414.682 1486.555 416.465 1485.969 416.699 1486.437 C 416.721 1486.481 415.291 1485.121 414.979 1484.831 C 413.976 1483.9 412.979 1482.901 411.883 1482.079 C 410.706 1481.197 409.776 1480.001 408.558 1479.213 C 407.284 1478.388 405.948 1477.885 404.659 1477.149 C 404.12 1476.841 402.251 1476.133 402.251 1475.658 C 402.251 1475.505 402.561 1475.621 402.71 1475.658 C 402.961 1475.721 404.18 1476.167 404.315 1476.231 C 405.887 1476.98 407.351 1477.864 408.902 1478.639 C 412.589 1480.483 416.443 1482.097 420.024 1484.143 C 420.839 1484.609 421.614 1485.569 422.432 1485.978 C 422.994 1486.258 421.682 1485.665 422.661 1485.175 C 423.223 1484.895 433.752 1509.682 433.67 1509.14 C 429.763 1483.372 429.575 1487.9 429.542 1487.697 C 428.952 1484.073 425.905 1480.9 425.643 1481.162 C 425.48 1481.326 423.222 1481.229 422.891 1481.047 C 422.351 1480.75 421.821 1480.436 421.286 1480.13 C 415.335 1476.729 410.368 1472.272 404.659 1468.548 C 400.957 1466.134 397.256 1463.894 392.734 1463.733 C 392.523 1463.725 389.563 1463.463 389.179 1463.847 C 388.904 1464.123 389.616 1464.327 389.408 1464.535 C 389.186 1464.757 389.179 1464.306 389.179 1464.306 C 389.179 1464.306 388.882 1465.702 388.835 1465.797 C 388.622 1466.222 393.766 1469.122 393.766 1469.122 C 393.766 1469.122 386.404 1465.82 386.427 1465.797 C 386.921 1465.303 388.647 1465.187 387.344 1464.535 C 385.591 1463.658 377.319 1470.7 375.649 1471.072 C 374.661 1471.291 379.286 1466.218 378.286 1466.37 C 374.654 1466.92 377.793 1466.198 373.814 1467.058 C 372.472 1467.348 368.583 1467.816 367.622 1468.778 C 367.054 1469.345 366.651 1470.154 366.934 1470.154" style="stroke: black; fill: none; stroke-opacity: 0;"/></svg>