<svg class="hair" width="92.96524047851562" height="81.2398681640625" viewBox="466.229 1457 92.9652 81.2399" xmlns="http://www.w3.org/2000/svg"><path class="hair" id="path2232" style="fill:#5c2790;fill-opacity:1;fill-rule:nonzero;stroke:none" d="m 4193.96,8269 c 0,222.8 -156.09,403.5 -348.63,403.5 -192.52,0 -348.61,-180.7 -348.61,-403.5 0,-75.2 17.81,-145.6 48.73,-205.8 h 168.32 c 18.34,17.4 39.59,31 64.24,39.7 -1.74,4.6 -2.73,9.5 -2.73,14.5 l 0.01,7 c -11.05,5 -21.6,10.2 -32.15,14.7 -30.03,12.7 -76.23,8.1 -130.5,80.9 -18.56,24.8 -28.32,56.7 -33.17,87.9 -31.49,-9.9 -32.85,31.7 -38.43,51.8 -5.79,20.8 -21.18,39.7 -4.24,61.2 10.08,12.8 25.17,11.6 35.78,8.5 1.19,-41.8 3.05,-106.1 3.05,-106.1 l 1.42,4 44.12,126.5 h 444.34 l 45.53,-130.5 c 0,0 1.25,42.5 2.34,80.9 0.16,5.1 0.29,10.2 0.43,15.1 10.58,3.6 27.56,6.4 38.53,-7.6 16.96,-21.6 1.55,-40.4 -4.23,-61.2 -5.63,-20.3 -6.96,-62.2 -38.97,-51.7 -5.25,-28.2 -14.84,-56.4 -31.6,-78.8 -54.28,-72.8 -100.49,-68.2 -130.51,-80.9 -10.58,-4.5 -21.13,-9.8 -32.21,-14.8 l -0.03,-6.9 c 0,-5.5 -1.12,-10.7 -3.15,-15.7 22.23,-8.7 41.68,-21.9 58.79,-38.5 h 174.78 c 30.92,60.2 48.75,130.6 48.75,205.8" transform="matrix(0.1333333035310105, 0, 0, -0.1333333035310105, 4.547473508864641e-13, 2613.333251953125)"/><path class="hairStreaks" d="M 500.9 1466.339 C 499.602 1466.339 497.501 1468.928 496.678 1469.666 C 492.319 1473.574 487.596 1477.107 484.268 1481.948 C 483.007 1483.783 482.464 1485.629 481.709 1487.705 C 481.602 1488.002 477.978 1495.105 478.127 1494.486 C 479.911 1487.062 481.059 1486.267 481.326 1485.146 C 481.89 1482.775 484.22 1478.507 485.292 1476.318 C 487.666 1471.47 488.042 1469.666 492.456 1466.723 C 493.536 1466.003 495.443 1465.6 496.678 1465.188 C 497.949 1464.764 499.339 1466.084 500.26 1466.084" style="stroke: none;; fill: rgb(92, 39, 144);"/><path class="hairStreaks" d="M 500.9 1467.875 C 500.9 1467.294 500.133 1469.281 500.004 1469.538 C 499.942 1469.662 499.259 1469.809 499.109 1469.922 C 498.281 1470.542 497.39 1471.454 496.806 1472.225 C 496.192 1473.035 495.702 1473.934 495.143 1474.783 C 493.483 1477.303 491.826 1479.822 490.153 1482.332 C 489.26 1483.672 487.585 1483.876 486.699 1484.762 C 486.649 1484.812 483.62 1486.033 483.501 1485.914 C 483.421 1485.835 487.48 1485.616 487.594 1485.53 C 488.187 1485.086 488.895 1484.648 489.514 1484.251 C 491.504 1482.971 493.879 1482.546 495.655 1481.18 C 497.07 1480.091 499.04 1478.316 499.621 1476.574 C 500.078 1475.201 499.957 1473.423 501.028 1472.353 C 501.467 1471.914 500.646 1471.169 500.516 1470.561 C 500.305 1469.574 500.132 1468.594 500.132 1467.619" style="stroke: none;; fill: rgb(92, 39, 144);"/></svg>