<svg class="hair" width="94.69482421875" height="77.506591796875" viewBox="733.305 1692.27 94.6948 77.5066" xmlns="http://www.w3.org/2000/svg"><path class="hair" id="path2120" style="fill:#713922;fill-opacity:1;fill-rule:nonzero;stroke:none" d="m 6210,6662.3 c -69.92,21 -96.56,-3.6 -96.56,-3.6 3.45,42.2 20.11,38.4 27.69,38.6 -41.09,0.7 -75.97,-8 -75.97,-8 9,52.9 56.95,82.9 56.95,82.9 -65.94,6 -116.88,-38 -116.88,-38 38.97,44 2.99,88.9 2.99,88.9 6,-67.9 -30.95,-75.9 -30.95,-75.9 13.98,64 -17.99,117.9 -17.99,117.9 -15.98,-43 -46.96,-106.9 -46.96,-106.9 -53.92,37 -42.93,145.9 -42.93,145.9 -31.97,-26 -38.96,-128.9 -38.96,-128.9 -22.97,28 -67.93,132.8 -67.93,132.8 -13.98,-70.9 -51.95,-139.8 -51.95,-139.8 3,30 -32.95,56.9 -32.95,56.9 -2.01,-36.9 -17.99,-83.9 -17.99,-83.9 -23.97,36 1.99,110.9 1.99,110.9 -90.9,-48.9 -85.9,-183.8 -85.9,-183.8 -23.98,9 -60.93,63.9 -60.93,63.9 -14.98,-82.9 38.96,-202.7 38.96,-202.7 -11.99,23 -49.96,12 -49.96,12 48.98,-41.4 49.02,-135.9 62.95,-201.8 1.09,-5.3 2.24,-9.5 3.32,-13 0,0 38.63,239.4 47.95,246.1 9.31,6.6 186.46,-30 221.76,-28 39.96,0 197.11,33.9 201.77,28 4.67,-6 53.95,-227.8 53.95,-227.8 1.91,11.8 9.59,30.4 10.64,36.6 17.99,117.9 31.98,60 57.95,182.8 -20.97,-33.9 -28.96,-24.9 -28.96,-24.9 18.98,97.9 74.9,122.8 74.9,122.8" transform="matrix(0.13333330353101047, 0, 0, -0.13333330353101047, 0, 2613.333251953125)"/><path d="M 751.003 1734.136 C 751.003 1734.077 750.415 1733.497 750.271 1733.281 C 749.824 1732.61 749.571 1731.491 749.417 1730.718 C 748.995 1728.608 748.928 1726.139 748.928 1724.005 C 748.928 1721.313 749.05 1718.637 749.05 1715.949 C 749.05 1713.768 749.688 1711.935 750.637 1709.968 C 750.898 1709.427 751.175 1708.892 751.492 1708.382 C 752.638 1706.529 753.263 1705.878 751.858 1707.283 C 751.667 1707.474 751.901 1708.489 751.858 1708.748 C 751.639 1710.059 751.614 1711.437 751.614 1712.776 C 751.614 1713.589 751.566 1714.405 751.614 1715.217 C 751.68 1716.345 752.169 1717.205 752.346 1718.268 C 752.769 1720.804 752.882 1723.001 753.933 1725.103 C 754.078 1725.394 754.299 1727.789 754.299 1727.789 C 754.299 1727.789 754.225 1726.773 754.421 1726.324 C 756.348 1721.92 753.836 1728.322 755.886 1722.906 C 757.403 1718.896 758.832 1715.742 759.669 1711.555 C 759.691 1711.446 760.601 1708.215 760.28 1707.893 C 760.224 1707.837 760.28 1708.56 760.28 1708.87 C 760.28 1710.246 760.324 1708.561 760.036 1710.579 C 759.675 1713.1 759.497 1715.625 759.303 1718.146 C 759.293 1718.277 759.181 1720.953 759.181 1720.953 C 759.181 1720.953 761.099 1718.309 761.134 1718.268 C 763.362 1715.689 765.595 1713.112 767.847 1710.579 C 768.604 1709.727 769.481 1708.945 770.288 1708.137 C 770.336 1708.089 771.021 1707.527 771.021 1707.527 C 771.021 1707.527 769.798 1709.139 769.678 1709.358 C 768.82 1710.932 768.237 1712.814 767.603 1714.484 C 765.605 1719.752 761.082 1723.569 757.228 1727.422 C 756.766 1727.884 756.892 1728.95 756.618 1729.498 C 755.969 1730.796 754.8 1732.305 753.322 1732.305" style="stroke: black; fill: rgb(113, 57, 34); stroke-opacity: 0;"/></svg>