<svg class="hair" width="87.61203002929688" height="80.1334228515625" viewBox="331.905 1690.95 87.612 80.1334" xmlns="http://www.w3.org/2000/svg"><path class="hair" id="path2076" style="fill:#ec1d27;fill-opacity:1;fill-rule:nonzero;stroke:none" d="m 3024.7,6720.3 c 64.49,12.5 121.68,-21.3 121.68,-21.3 -58.4,147.6 -180.08,113.8 -180.08,113.8 9.73,20.1 40.16,36.3 40.16,36.3 -73.01,11.3 -102.21,-25 -102.21,-25 19.46,33.8 21.9,93.8 21.9,93.8 -43.81,-51.3 -114.36,-75 -114.36,-75 -196.61,-24.6 -266.64,-113.2 -289.18,-190.7 -17.47,-38.1 -33.32,-86 -28.16,-146.5 0,0 23.97,0 24.94,-5.1 0.95,-4.8 1.82,-10.8 2.67,-17.4 3.27,-25.3 6.32,-61.6 11.78,-95.8 3.57,-22.3 8.15,-43.7 14.54,-60.5 0,0 4.49,24.7 11.77,60.2 15.07,73.4 42.24,193.3 67.15,238.5 0,0 9.99,-38 20.99,-62 0,0 39.95,48 52.94,62 0,0 17.97,-47 30.96,-62 0,0 26.04,44.2 40.95,63 7.64,-2.4 33.61,-57.4 38.16,-66.3 h 0.1 c -0.7,1.3 -1.44,2.7 -2.3,4.3 0,0 34.96,53 44.96,61 8.2,-11.9 36.72,-56.1 40.95,-62 0,0 26.66,42.1 34.97,58 2.94,0.1 19.97,-32 28.08,-49.9 22.63,-46.6 51.48,-117.9 59.14,-191.1 2.2,-21.3 2.69,-42.7 0.66,-63.7 0,0 7.87,28.3 16.66,63.5 9.14,36.7 19.28,80.9 22.46,108.3 l 0.26,2.1 c 0.25,2.5 15.56,6.9 29.55,0.9 8.47,-3.6 22.26,112.1 -43.64,200.5 -10.5,17.9 -18.45,28.1 -18.45,28.1" transform="matrix(0.13333330353101047, 0, 0, -0.13333330353101047, 0, 2613.333251953125)"/><path class="hairStreaks" d="M 368.501 1713.16 C 369.466 1713.055 376.95 1701.792 377.83 1701.58 C 382.582 1700.435 386.077 1697.733 388.313 1693.474 C 388.313 1693.474 383.139 1708.575 368.501 1713.16 Z" style="stroke: black; stroke-width: 1px; fill: rgb(236, 29, 39); stroke-opacity: 0;"/><path class="hairStreaks" d="M 376.614 1702.019 C 377.459 1702.093 384.019 1710.072 384.789 1710.223 C 388.954 1711.033 392.017 1712.948 393.977 1715.965 C 393.977 1715.965 389.442 1705.266 376.614 1702.019 Z" style="stroke: black; stroke-width: 1px; fill: rgb(236, 29, 39); stroke-opacity: 0;" transform="matrix(0.493204, -0.869914, 0.869914, 0.493204, -1291.409342, 1201.284398)"/></svg>