<svg class="hair" width="141.9999542236328" height="73.8934326171875" viewBox="150.905 1690.61 142 73.8934" xmlns="http://www.w3.org/2000/svg"><path class="hair" id="path2280" style="fill:#593f32;fill-opacity:1;fill-rule:nonzero;stroke:none" d="m 1423.3,6774.2 c 6.2,13.3 16.48,22.6 27,26 -55.71,42.1 -201.5,120.2 -318.51,-99.6 0,0 53.95,38 95.9,33 0,0 -62.93,-30 -70.93,-95.9 0,0 39.95,42.9 72.92,43.9 0,0 -44.95,-40.9 -17.98,-98.9 0,0 47.22,132.7 214.11,146.1 -9.06,9.9 -10.57,28.2 -2.51,45.4" transform="matrix(0.13333330353101047, 0, 0, -0.13333330353101047, 0, 2613.333251953125)"/><path class="hair" id="path2284" style="fill:#593f32;fill-opacity:1;fill-rule:nonzero;stroke:none" d="m 2100.89,6733.6 c 41.96,5 95.9,-33 95.9,-33 -117.01,219.8 -262.8,141.7 -318.5,99.6 10.51,-3.4 20.8,-12.7 26.99,-26 9.81,-20.9 5.63,-43.6 -9.35,-50.7 -15,-7 -35.11,4.3 -44.92,25.3 -8.45,18.1 -6.48,37.3 3.76,46.9 -48.1,45.2 -112.83,72.9 -184.08,72.9 -75.02,0 -142.8,-30.7 -191.57,-80.3 5.21,-10.4 5.13,-25.2 -1.53,-39.5 -9.82,-21 -29.94,-32.3 -44.94,-25.3 l -0.5,0.4 c -14.32,-27.5 -24.1,-57.7 -28.21,-89.7 0,0 -24.28,-172.1 -3.3,-268 0,0 -4.32,187.6 26.7,268 h 486.19 c 30.22,-81.4 25.98,-266 25.98,-266 19.66,89.8 -0.4,246.6 -3.01,266 h 0.94 c -4.36,33.8 -15.01,65.7 -30.7,94.3 163.7,-15.2 210.14,-145.8 210.14,-145.8 26.96,58 -17.98,98.9 -17.98,98.9 32.97,-1 72.91,-43.9 72.91,-43.9 -7.99,65.9 -70.92,95.9 -70.92,95.9" transform="matrix(0.13333330353101047, 0, 0, -0.13333330353101047, 0, 2613.333251953125)"/><ellipse transform="matrix(0.914452, 0.404678, -0.404706, 0.914456, 150.673191, 1667.925893)" cx="56.818" cy="22.897" rx="4.192" ry="5.519" style="fill: rgb(101, 79, 210);"/><ellipse transform="matrix(0.904728, -0.425994, 0.425981, 0.904737, 188.714948, 1714.103126)" cx="56.818" cy="24.077" rx="4.192" ry="5.803" style="fill: rgb(101, 79, 210);"/><path class="hairStreaks" d="M 158.47 1713.651 C 158.47 1712.63 161.193 1710.311 162.193 1709.811 C 165.596 1708.109 168.898 1706.563 172.783 1706.319 C 174.712 1706.199 176.668 1706.436 178.601 1706.436 C 180.043 1706.436 181.481 1706.465 182.907 1706.669 C 183.297 1706.724 185.001 1707.716 185.001 1707.716 C 185.001 1707.716 183.041 1708.271 182.907 1708.298 C 180.331 1708.813 177.654 1708.653 175.11 1709.578 C 172.434 1710.552 170.235 1711.207 167.43 1711.207 C 165.363 1711.207 163.882 1712.094 161.844 1712.603 C 160.466 1712.948 157.213 1714.465 155.793 1714.465" style="stroke: black; fill: rgb(89, 63, 50); stroke-opacity: 0;"/><path class="hairStreaks" d="M 158.702 1720.749 C 158.702 1719.715 161.836 1718.519 162.426 1718.189 C 167.062 1715.598 171.941 1712.88 177.204 1711.905 C 178.822 1711.606 180.56 1711.45 182.208 1711.323 C 182.369 1711.311 184.885 1711.207 184.885 1711.207 C 184.663 1710.985 183.803 1711.573 183.605 1711.672 C 182.097 1712.426 180.507 1712.943 178.95 1713.651 C 174.102 1715.854 168.953 1717.37 164.055 1719.469 C 163.479 1719.716 162.874 1719.896 162.309 1720.167 C 161.902 1720.363 161.55 1720.663 161.146 1720.866 C 160.561 1721.158 156.375 1723.422 156.375 1723.193" style="stroke: black; fill: rgb(89, 63, 50); stroke-opacity: 0;"/><path class="hairStreaks" d="M 255.889 1705.604 C 255.889 1706.625 259.165 1708.943 260.368 1709.443 C 264.463 1711.146 268.435 1712.692 273.111 1712.936 C 275.432 1713.056 277.785 1712.818 280.111 1712.818 C 281.846 1712.818 283.576 1712.79 285.292 1712.586 C 285.761 1712.531 287.811 1711.539 287.811 1711.539 C 287.811 1711.539 285.453 1710.984 285.292 1710.957 C 282.192 1710.442 278.972 1710.602 275.91 1709.677 C 272.691 1708.703 270.044 1708.047 266.67 1708.047 C 264.182 1708.047 262.4 1707.161 259.948 1706.651 C 258.29 1706.307 254.377 1704.79 252.668 1704.79" style="stroke: black; fill: rgb(89, 63, 50); stroke-opacity: 0;" transform="matrix(-1, 0, 0, -1, 540.479001, 3417.759765)"/><path class="hairStreaks" d="M 257.183 1714.275 C 257.183 1715.309 260.598 1716.505 261.241 1716.835 C 266.294 1719.426 271.611 1722.144 277.346 1723.119 C 279.11 1723.418 281.004 1723.574 282.8 1723.701 C 282.975 1723.713 285.717 1723.817 285.717 1723.817 C 285.475 1724.039 284.538 1723.451 284.322 1723.352 C 282.679 1722.598 280.946 1722.081 279.249 1721.373 C 273.966 1719.17 268.354 1717.654 263.016 1715.555 C 262.389 1715.308 261.729 1715.128 261.114 1714.857 C 260.67 1714.661 260.287 1714.361 259.846 1714.158 C 259.209 1713.866 254.647 1711.602 254.647 1711.831" style="stroke: black; fill: rgb(89, 63, 50); stroke-opacity: 0;" transform="matrix(-1, 0, 0, -1, 540.364025, 3435.681644)"/></svg>