<svg class="hair" width="90.7197036743164" height="68.4666748046875" viewBox="23.9344 1925.09 90.7197 68.4667" xmlns="http://www.w3.org/2000/svg"><path class="hair" id="path2214" style="fill:#987a44;fill-opacity:1;fill-rule:nonzero;stroke:none" d="M 111.821 1955.813 L 96.678 1953.254 L 104.999 1931.453 L 87.982 1945.933 L 87.605 1929.56 L 74.54 1942.147 L 69.823 1925.094 L 61.67 1942.467 L 51.323 1929.573 L 49.419 1947.68 L 32.053 1942.227 L 39.157 1956.72 C 38.834 1956.96 38.519 1957.214 38.211 1957.48 L 27.451 1954.92 L 32.589 1963.614 C 23.934 1976.094 26.727 1991.6 26.727 1991.6 L 29.217 1986.134 L 30.572 1991.387 L 34.842 1985.653 L 38.843 1991.267 C 41.425 1973.36 54.21 1968.747 54.21 1968.747 L 62.672 1981.867 L 66.342 1971.027 L 74.008 1982.44 L 76.783 1969.04 L 90.375 1982.067 L 87.516 1970.08 C 92.821 1973.92 97.368 1980.693 98.007 1992.667 L 102.27 1987.24 L 106.266 1993.16 L 107.862 1987.987 L 110.094 1993.56 C 110.094 1993.56 114.654 1973.68 101.516 1960.187 L 111.821 1955.813"/><polygon points="48.194 1956.25 36.981 1945.037 50.459 1950.644 52.184 1935.01 61.672 1948.487 69.651 1932.853 71.592 1948.595 87.226 1931.775 84.207 1951.614 102.213 1938.029 84.099 1963.906 71.052 1959.269 58.114 1963.906 49.38 1959.377 48.949 1959.054" style="stroke: black; stroke-width: 1px; stroke-opacity: 0; fill: rgb(152, 122, 68);"/></svg>