<svg class="hair" width="102.8519287109375" height="90.666748046875" viewBox="449.287 1913.93 102.852 90.6667" xmlns="http://www.w3.org/2000/svg"><path class="hair" id="path2300" style="fill:#50abe4;fill-opacity:1;fill-rule:nonzero;stroke:none" d="M 551.882 1974.294 C 552.138 1971.467 549.664 1969.294 547.122 1969.414 L 547.122 1969.414 C 549.697 1969.294 551.882 1966.92 551.426 1964.107 C 551.122 1961.267 548.56 1959.467 545.95 1960.014 L 545.948 1960 C 548.494 1959.507 550.213 1956.827 549.412 1954.08 C 548.552 1951.347 545.857 1949.92 543.338 1950.894 L 543.336 1950.894 C 545.814 1950 546.966 1947.107 545.817 1944.467 C 544.486 1941.92 541.549 1940.96 539.284 1942.32 C 541.598 1941.027 542.202 1938 540.628 1935.573 C 539.456 1934.014 537.677 1933.347 536.033 1933.587 C 535.861 1933.187 535.601 1932.773 535.24 1932.333 C 535.633 1930.8 535.185 1929.053 533.898 1927.694 C 532.472 1926.374 530.609 1926.04 529.044 1926.56 C 528.792 1926.08 528.421 1925.627 527.976 1925.2 C 527.953 1923.72 527.172 1922.227 525.724 1921.2 C 524.002 1920.173 522.054 1920.254 520.625 1921.134 C 520.286 1920.52 519.817 1920 519.254 1919.573 C 518.82 1918.294 517.794 1917.16 516.3 1916.52 C 514.393 1915.92 512.53 1916.387 511.33 1917.534 C 510.869 1917.014 510.265 1916.6 509.565 1916.333 C 508.838 1915.2 507.59 1914.333 506.005 1914.067 C 503.989 1913.933 502.273 1914.84 501.377 1916.254 C 500.852 1915.947 500.268 1915.747 499.653 1915.72 C 498.693 1914.627 497.169 1913.96 495.417 1914.067 C 493.008 1914.48 491.361 1916.254 491.205 1918.294 C 491.016 1918.2 490.806 1918.134 490.585 1918.08 C 489.458 1916.547 487.314 1915.827 485.125 1916.52 C 482.705 1917.547 481.472 1919.867 482.076 1922.053 L 482.052 1922.333 C 480.737 1920.414 478.013 1919.814 475.7 1921.2 C 473.393 1922.827 472.768 1925.654 474.248 1927.734 L 474.104 1927.667 C 472.434 1925.92 469.544 1925.827 467.526 1927.694 C 465.956 1929.347 465.638 1931.587 466.573 1933.294 C 466.576 1933.52 466.59 1933.747 466.625 1933.947 C 464.708 1933.04 462.27 1933.614 460.794 1935.573 C 459.218 1938 459.822 1941.027 462.14 1942.32 C 459.872 1940.96 456.937 1941.92 455.604 1944.467 C 454.458 1947.107 455.609 1950 458.085 1950.894 L 458.085 1950.894 C 455.565 1949.92 452.872 1951.347 452.013 1954.08 C 451.211 1956.827 452.929 1959.507 455.473 1960 L 455.473 1960.014 C 452.864 1959.467 450.302 1961.267 449.994 1964.107 C 449.541 1966.92 451.724 1969.294 454.302 1969.414 L 454.302 1969.414 C 451.76 1969.294 449.286 1971.467 449.541 1974.294 C 449.705 1977.134 451.972 1979.187 454.588 1978.894 L 454.588 1978.894 C 451.893 1979.16 450.098 1981.64 450.636 1984.44 C 451.054 1987.267 453.718 1988.907 456.309 1988.214 L 456.312 1988.214 C 453.768 1988.88 452.372 1991.614 453.213 1994.347 C 454.158 1997.014 457.122 1998.187 459.466 1997.147 C 459.869 1998.04 460.284 1998.933 460.726 1999.8 L 463.656 1999.8 C 463.656 2002.44 465.732 2004.6 468.289 2004.6 C 470.846 2004.6 472.918 2002.44 472.918 1999.8 C 472.918 2002.44 474.994 2004.6 477.552 2004.6 C 478.194 2004.6 478.809 2004.453 479.366 2004.214 C 480.194 2003.04 481.088 2001.947 482.036 2000.947 C 482.125 2000.573 482.185 2000.187 482.185 1999.8 C 482.185 2000.107 482.218 2000.4 482.27 2000.693 C 484.914 1997.947 488.038 1995.8 491.734 1994.507 C 491.502 1993.894 491.369 1993.24 491.369 1992.573 L 491.369 1991.64 C 489.898 1990.974 488.494 1990.28 487.084 1989.68 C 483.081 1987.987 476.921 1988.6 469.685 1978.894 C 467.21 1975.587 465.909 1971.333 465.262 1967.173 C 461.065 1968.494 460.883 1962.947 460.138 1960.267 C 459.366 1957.494 457.312 1954.974 459.573 1952.107 C 460.917 1950.387 462.929 1950.56 464.344 1950.974 C 464.502 1956.547 464.75 1965.12 464.75 1965.12 L 464.94 1964.587 L 469.609 1951.2 C 470.44 1952.014 471.557 1952.52 472.792 1952.52 C 475.36 1952.52 477.445 1950.374 477.445 1947.72 C 477.445 1950.374 479.526 1952.52 482.096 1952.52 C 484.664 1952.52 486.748 1950.374 486.748 1947.72 C 486.748 1950.374 488.83 1952.52 491.401 1952.52 C 493.969 1952.52 496.052 1950.374 496.052 1947.72 C 496.052 1950.374 498.133 1952.52 500.702 1952.52 C 503.27 1952.52 505.354 1950.374 505.354 1947.72 C 505.354 1950.374 507.437 1952.52 510.008 1952.52 C 512.576 1952.52 514.658 1950.374 514.658 1947.72 C 514.658 1950.374 516.74 1952.52 519.309 1952.52 C 521.877 1952.52 523.961 1950.374 523.961 1947.72 C 523.961 1950.374 526.044 1952.52 528.612 1952.52 C 529.664 1952.52 530.622 1952.147 531.401 1951.534 L 536.14 1965.12 C 536.14 1965.12 536.305 1959.453 536.45 1954.333 C 536.472 1953.64 536.492 1952.974 536.51 1952.32 C 537.918 1951.84 540.182 1951.467 541.648 1953.333 C 543.906 1956.214 541.852 1958.72 541.084 1961.494 C 540.333 1964.2 540.156 1969.787 535.888 1968.387 C 535.185 1972.147 533.906 1975.907 531.672 1978.894 C 524.434 1988.6 518.276 1987.987 514.273 1989.68 C 512.861 1990.28 511.453 1990.974 509.973 1991.64 L 509.972 1992.573 C 509.972 1993.307 509.825 1994 509.552 1994.653 C 513.21 1996.094 516.314 1998.427 518.948 2001.427 C 519.125 2000.92 519.24 2000.373 519.24 1999.8 C 519.24 2002.44 521.314 2004.6 523.869 2004.6 C 526.429 2004.6 528.502 2002.44 528.502 1999.8 C 528.502 2002.44 530.578 2004.6 533.136 2004.6 C 535.693 2004.6 537.768 2002.44 537.768 1999.8 L 540.694 1999.8 C 541.14 1998.933 541.554 1998.04 541.958 1997.147 C 544.302 1998.187 547.265 1997.014 548.21 1994.347 C 549.052 1991.614 547.653 1988.88 545.112 1988.214 L 545.114 1988.214 C 547.705 1988.907 550.369 1987.267 550.789 1984.44 C 551.325 1981.64 549.533 1979.16 546.833 1978.894 L 546.836 1978.894 C 549.453 1979.187 551.721 1977.134 551.882 1974.294"/><polygon class="hairStreaks" points="471.99 1931.492 465.708 1941.773 464.851 1973.328" style="stroke: black; stroke-width: 1px; fill: rgb(80, 171, 228); stroke-opacity: 0;"/><polygon class="hairStreaks" points="525.961 1931.064 539.097 1977.325 535.242 1948.483" style="stroke: black; stroke-width: 1px; stroke-opacity: 0; fill: rgb(80, 171, 228);"/></svg>