<svg class="hair" width="147.90399169921875" height="52.7332763671875" viewBox="563.651 1815.53 147.904 52.7333" xmlns="http://www.w3.org/2000/svg" xmlns:bx="https://boxy-svg.com"><path class="hair" id="path-1" style="fill: rgb(79, 55, 36); fill-opacity: 1; fill-rule: nonzero; stroke: none;" d="M 607.034 1852.235 C 606.93 1851.809 606.715 1851.555 606.491 1851.182 L 606.218 1851.222 C 606 1851.755 606.132 1852.129 606.484 1852.555 C 606.704 1852.835 607.104 1852.542 607.034 1852.235"/><path class="hair" id="path-2" style="fill: rgb(79, 55, 36); fill-opacity: 1; fill-rule: nonzero; stroke: none;" d="M 610.205 1848.635 C 609.891 1848.02 609.245 1847.653 608.57 1847.115 L 607.749 1847.173 C 607.094 1847.942 607.491 1848.482 608.55 1849.097 C 609.212 1849.501 610.415 1849.078 610.205 1848.635"/><path class="hair" id="path-3" style="fill: rgb(79, 55, 36); fill-opacity: 1; fill-rule: nonzero; stroke: none;" d="M 615.927 1840.358 C 615.687 1839.713 615.193 1839.327 614.678 1838.761 L 614.05 1838.821 C 613.549 1839.631 613.852 1840.198 614.662 1840.845 C 615.168 1841.27 616.088 1840.825 615.927 1840.358"/><path class="hair" id="path-4" style="fill: rgb(79, 55, 36); fill-opacity: 1; fill-rule: nonzero; stroke: none;" d="M 611.749 1846.752 C 611.509 1846.232 611.015 1845.921 610.499 1845.466 L 609.872 1845.515 C 609.371 1846.166 609.675 1846.623 610.484 1847.143 C 610.99 1847.485 611.91 1847.127 611.749 1846.752"/><path class="hairStreaks" id="path-5" style="fill: rgb(79, 55, 36); fill-opacity: 1; fill-rule: nonzero; stroke: none;" d="M 611.862 1842.168 C 611.659 1841.679 611.242 1841.388 610.805 1840.96 L 610.274 1841.006 C 609.851 1841.617 610.108 1842.047 610.792 1842.536 C 611.22 1842.857 611.998 1842.52 611.862 1842.168"/><path class="hair" id="path-6" style="fill: rgb(79, 55, 36); fill-opacity: 1; fill-rule: nonzero; stroke: none;" d="M 615.371 1842.26 C 615.057 1841.645 614.411 1841.278 613.736 1840.74 L 612.915 1840.798 C 612.26 1841.567 612.657 1842.107 613.716 1842.722 C 614.378 1843.126 615.581 1842.703 615.371 1842.26"/><path class="hair" id="path-7" style="fill: rgb(79, 55, 36); fill-opacity: 1; fill-rule: nonzero; stroke: none;" d="M 618.778 1837.864 C 618.464 1837.249 617.818 1836.881 617.143 1836.344 L 616.322 1836.401 C 615.667 1837.171 616.064 1837.711 617.123 1838.326 C 617.785 1838.729 618.988 1838.307 618.778 1837.864" transform="matrix(0.81353, 0.581524, -0.581524, 0.81353, 1183.628067, -16.41049)"/><path class="hair" id="path-8" style="fill: rgb(79, 55, 36); fill-opacity: 1; fill-rule: nonzero; stroke: none;" d="M 621.643 1837.39 C 621.403 1836.745 620.909 1836.359 620.393 1835.793 L 619.766 1835.853 C 619.265 1836.663 619.568 1837.23 620.378 1837.877 C 620.884 1838.302 621.804 1837.857 621.643 1837.39"/><path class="hair" id="path-9" style="fill: rgb(79, 55, 36); fill-opacity: 1; fill-rule: nonzero; stroke: none;" d="M 617.578 1839.2 C 617.375 1838.711 616.958 1838.42 616.521 1837.992 L 615.99 1838.038 C 615.567 1838.649 615.823 1839.079 616.508 1839.568 C 616.935 1839.889 617.714 1839.552 617.578 1839.2"/><path class="hair" id="path-10" style="fill: rgb(79, 55, 36); fill-opacity: 1; fill-rule: nonzero; stroke: none;" d="M 621.086 1839.292 C 620.773 1838.677 620.127 1838.31 619.452 1837.772 L 618.63 1837.83 C 617.976 1838.599 618.372 1839.139 619.432 1839.754 C 620.094 1840.158 621.297 1839.735 621.086 1839.292"/><path class="hair" id="path-11" style="fill: rgb(79, 55, 36); fill-opacity: 1; fill-rule: nonzero; stroke: none;" d="M 624.493 1834.897 C 624.179 1834.282 623.533 1833.914 622.858 1833.377 L 622.037 1833.434 C 621.382 1834.204 621.779 1834.745 622.838 1835.359 C 623.5 1835.762 624.703 1835.34 624.493 1834.897" transform="matrix(0.81353, 0.581524, -0.581524, 0.81353, 1182.968474, -20.2871)"/><path class="hair" id="path-12" style="fill: rgb(79, 55, 36); fill-opacity: 1; fill-rule: nonzero; stroke: none;" d="M 627.46 1834.823 C 627.22 1834.178 626.726 1833.792 626.21 1833.226 L 625.583 1833.286 C 625.082 1834.096 625.385 1834.663 626.195 1835.31 C 626.701 1835.735 627.621 1835.29 627.46 1834.823" transform="matrix(0.849652, 0.527344, -0.527344, 0.849652, 1061.515729, -54.54108)"/><path class="hair" id="path-13" style="fill: rgb(79, 55, 36); fill-opacity: 1; fill-rule: nonzero; stroke: none;" d="M 622.967 1834.285 C 622.764 1833.796 622.347 1833.505 621.91 1833.077 L 621.379 1833.123 C 620.956 1833.734 621.212 1834.164 621.897 1834.653 C 622.324 1834.974 623.103 1834.637 622.967 1834.285" transform="matrix(0.849652, 0.527344, -0.527344, 0.849652, 1060.640949, -52.320944)"/><path class="hair" id="path-14" style="fill: rgb(79, 55, 36); fill-opacity: 1; fill-rule: nonzero; stroke: none;" d="M 626.021 1835.971 C 625.708 1835.356 625.062 1834.989 624.387 1834.451 L 623.565 1834.509 C 622.911 1835.278 623.307 1835.818 624.367 1836.433 C 625.029 1836.837 626.232 1836.414 626.021 1835.971" transform="matrix(0.849652, 0.527344, -0.527344, 0.849652, 1061.867643, -53.435645)"/><path class="hair" id="path-15" style="fill: rgb(79, 55, 36); fill-opacity: 1; fill-rule: nonzero; stroke: none;" d="M 631.232 1834.034 C 630.918 1833.419 630.272 1833.051 629.597 1832.514 L 628.776 1832.571 C 628.121 1833.341 628.518 1833.882 629.577 1834.496 C 630.239 1834.899 631.442 1834.477 631.232 1834.034" transform="matrix(0.384553, 0.923103, -0.923103, 0.384553, 2080.232374, 547.052716)"/><path class="hair" id="path-16" style="fill: rgb(79, 55, 36); fill-opacity: 1; fill-rule: nonzero; stroke: none;" d="M 627.461 1834.824 C 627.221 1834.179 626.727 1833.793 626.211 1833.227 L 625.584 1833.287 C 625.083 1834.097 625.386 1834.664 626.196 1835.311 C 626.702 1835.736 627.622 1835.291 627.461 1834.824" transform="matrix(0.849652, 0.527344, -0.527344, 0.849652, 1061.514891, -54.541795)"/><path class="hair" id="path-17" style="fill: rgb(79, 55, 36); fill-opacity: 1; fill-rule: nonzero; stroke: none;" d="M 622.967 1834.285 C 622.764 1833.796 622.347 1833.505 621.91 1833.077 L 621.379 1833.123 C 620.956 1833.734 621.212 1834.164 621.897 1834.653 C 622.324 1834.974 623.103 1834.637 622.967 1834.285" transform="matrix(0.849652111530304, 0.5273439288139343, -0.5273439288139343, 0.849652111530304, 1060.6409912109375, -52.320945739745866)"/><path class="hair" id="path-18" style="fill: rgb(79, 55, 36); fill-opacity: 1; fill-rule: nonzero; stroke: none;" d="M 626.021 1835.971 C 625.708 1835.356 625.062 1834.989 624.387 1834.451 L 623.565 1834.509 C 622.911 1835.278 623.307 1835.818 624.367 1836.433 C 625.029 1836.837 626.232 1836.414 626.021 1835.971" transform="matrix(0.849652111530304, 0.5273439288139343, -0.5273439288139343, 0.849652111530304, 1061.86767578125, -53.43564605712868)"/><path class="hairStreaks" id="path-19" style="fill: rgb(79, 55, 36); fill-opacity: 1; fill-rule: nonzero; stroke: none;" d="M 631.232 1834.035 C 630.918 1833.419 630.272 1833.052 629.597 1832.515 L 628.776 1832.572 C 628.121 1833.341 628.518 1833.882 629.577 1834.496 C 630.239 1834.9 631.442 1834.478 631.232 1834.035" transform="matrix(0.384553, 0.923103, -0.923103, 0.384553, 2080.232901, 547.052998)"/><path class="hair" id="path-20" style="fill: rgb(79, 55, 36); fill-opacity: 1; fill-rule: nonzero; stroke: none;" d="M 637.577 1833.257 C 637.264 1832.642 636.617 1832.274 635.942 1831.737 L 635.122 1831.794 C 634.466 1832.564 634.864 1833.105 635.923 1833.719 C 636.585 1834.122 637.788 1833.7 637.577 1833.257" transform="matrix(0.643748, 0.765237, -0.765237, 0.643748, 1629.181721, 166.095586)"/><path class="hair" id="path-21" style="fill: rgb(79, 55, 36); fill-opacity: 1; fill-rule: nonzero; stroke: none;" d="M 634.86 1832.245 C 634.62 1831.6 634.126 1831.214 633.61 1830.648 L 632.983 1830.708 C 632.482 1831.518 632.785 1832.084 633.595 1832.732 C 634.101 1833.157 635.021 1832.712 634.86 1832.245" transform="matrix(0.692187, 0.721718, -0.721718, 0.692187, 1517.119659, 106.412606)"/><path class="hair" id="path-22" style="fill: rgb(79, 55, 36); fill-opacity: 1; fill-rule: nonzero; stroke: none;" d="M 633.187 1832.918 C 632.874 1832.303 632.228 1831.936 631.553 1831.398 L 630.731 1831.456 C 630.077 1832.225 630.473 1832.765 631.533 1833.38 C 632.195 1833.784 633.398 1833.361 633.187 1832.918" transform="matrix(0.692187, 0.721718, -0.721718, 0.692187, 1517.006382, 108.067477)"/><path class="hair" id="path-23" style="fill: rgb(79, 55, 36); fill-opacity: 1; fill-rule: nonzero; stroke: none;" d="M 638.714 1832.334 C 638.4 1831.719 637.754 1831.351 637.079 1830.814 L 636.258 1830.871 C 635.603 1831.641 636 1832.182 637.059 1832.796 C 637.721 1833.199 638.924 1832.777 638.714 1832.334" transform="matrix(0.143418, 0.989662, -0.989662, 0.143418, 2358.88145, 938.410939)"/><path class="hair" id="path-24" style="fill: rgb(79, 55, 36); fill-opacity: 1; fill-rule: nonzero; stroke: none;" d="M 646.81 1832.598 C 646.497 1831.983 645.85 1831.615 645.175 1831.078 L 644.355 1831.135 C 643.699 1831.905 644.097 1832.446 645.156 1833.06 C 645.818 1833.463 647.021 1833.041 646.81 1832.598" transform="matrix(0.643748, 0.765237, -0.765237, 0.643748, 1631.966556, 158.795319)"/><path class="hair" id="path-25" style="fill: rgb(79, 55, 36); fill-opacity: 1; fill-rule: nonzero; stroke: none;" d="M 644.093 1832.904 C 643.853 1832.259 643.359 1831.873 642.843 1831.307 L 642.216 1831.367 C 641.715 1832.177 642.018 1832.743 642.828 1833.391 C 643.334 1833.816 644.254 1833.371 644.093 1832.904" transform="matrix(0.692187, 0.721718, -0.721718, 0.692187, 1520.43744, 99.951865)"/><path class="hair" id="path-26" style="fill: rgb(79, 55, 36); fill-opacity: 1; fill-rule: nonzero; stroke: none;" d="M 633.187 1832.917 C 632.874 1832.302 632.228 1831.936 631.553 1831.397 L 630.731 1831.456 C 630.077 1832.224 630.473 1832.765 631.533 1833.38 C 632.195 1833.784 633.398 1833.36 633.187 1832.917" transform="matrix(0.692187, 0.721718, -0.721718, 0.692187, 1517.006249, 108.067439)"/><path class="hair" id="path-27" style="fill: rgb(79, 55, 36); fill-opacity: 1; fill-rule: nonzero; stroke: none;" d="M 642.231 1831.345 C 641.917 1830.73 641.271 1830.362 640.596 1829.825 L 639.775 1829.882 C 639.12 1830.652 639.517 1831.193 640.576 1831.807 C 641.238 1832.21 642.441 1831.788 642.231 1831.345" transform="matrix(0.143418, 0.989662, -0.989662, 0.143418, 2360.915026, 934.082602)"/><path class="hair" id="path-28" style="fill: rgb(79, 55, 36); fill-opacity: 1; fill-rule: nonzero; stroke: none;" d="M 648.454 1832.787 C 648.141 1832.171 647.495 1831.804 646.819 1831.267 L 645.998 1831.324 C 645.344 1832.093 645.74 1832.634 646.799 1833.248 C 647.461 1833.652 648.664 1833.23 648.454 1832.787" transform="matrix(-0.416381, 0.90919, -0.90919, -0.416381, 2582.454878, 2006.972908)"/><path class="hair" id="path-29" style="fill: rgb(79, 55, 36); fill-opacity: 1; fill-rule: nonzero; stroke: none;" d="M 652.146 1834.479 C 651.906 1833.834 651.412 1833.448 650.896 1832.882 L 650.269 1832.942 C 649.768 1833.752 650.071 1834.318 650.881 1834.966 C 651.387 1835.391 652.307 1834.946 652.146 1834.479" transform="matrix(-0.059635, 0.99822, -0.99822, -0.059635, 2520.668161, 1293.44402)"/><path class="hair" id="path-30" style="fill: rgb(79, 55, 36); fill-opacity: 1; fill-rule: nonzero; stroke: none;" d="M 654.786 1837.125 C 654.472 1836.51 653.826 1836.142 653.151 1835.605 L 652.33 1835.662 C 651.675 1836.432 652.072 1836.973 653.131 1837.587 C 653.793 1837.99 654.996 1837.568 654.786 1837.125" transform="matrix(-0.629004, 0.777402, -0.777402, -0.629004, 2492.24557, 2483.990376)"/><path class="hairStreaks" id="path-31" style="fill: rgb(79, 55, 36); fill-opacity: 1; fill-rule: nonzero; stroke: none;" d="M 650.824 1833.462 C 650.511 1832.847 649.865 1832.481 649.19 1831.942 L 648.368 1832.001 C 647.714 1832.769 648.11 1833.31 649.17 1833.925 C 649.832 1834.329 651.035 1833.905 650.824 1833.462" transform="matrix(-0.059635, 0.99822, -0.99822, -0.059635, 2517.931349, 1294.033276)"/><path class="hair" id="path-32" style="fill: rgb(79, 55, 36); fill-opacity: 1; fill-rule: nonzero; stroke: none;" d="M 659.864 1842.434 C 659.551 1841.818 658.905 1841.451 658.229 1840.914 L 657.408 1840.971 C 656.754 1841.74 657.15 1842.281 658.209 1842.896 C 658.871 1843.299 660.074 1842.877 659.864 1842.434" transform="matrix(-0.416381, 0.90919, -0.90919, -0.416381, 2604.769386, 2004.022024)" bx:origin="0.748 -1.347"/><path class="hairStreaks" id="path-33" style="fill: rgb(79, 55, 36); fill-opacity: 1; fill-rule: nonzero; stroke: none;" d="M 653.209 1834.97 C 652.969 1834.325 652.475 1833.939 651.959 1833.373 L 651.332 1833.433 C 650.831 1834.243 651.134 1834.809 651.944 1835.457 C 652.45 1835.882 653.37 1835.437 653.209 1834.97" transform="matrix(-0.059635, 0.99822, -0.99822, -0.059635, 2523.640473, 1292.961932)" bx:origin="0.804 0.796"/><path class="hair" id="path-34" style="fill: rgb(79, 55, 36); fill-opacity: 1; fill-rule: nonzero; stroke: none;" d="M 654.786 1837.125 C 654.472 1836.51 653.826 1836.142 653.151 1835.605 L 652.33 1835.662 C 651.675 1836.432 652.072 1836.973 653.131 1837.587 C 653.793 1837.99 654.996 1837.568 654.786 1837.125" transform="matrix(-0.6290040016174316, 0.7774021029472351, -0.7774021029472351, -0.6290040016174316, 2492.24560546875, 2483.990478515625)" bx:origin="0.607 2.199"/><path class="hair" id="path-35" style="fill: rgb(79, 55, 36); fill-opacity: 1; fill-rule: nonzero; stroke: none;" d="M 654.082 1839.068 C 653.769 1838.453 653.123 1838.087 652.448 1837.548 L 651.626 1837.607 C 650.972 1838.375 651.368 1838.916 652.428 1839.531 C 653.09 1839.935 654.293 1839.511 654.082 1839.068" transform="matrix(-0.059635, 0.99822, -0.99822, -0.059635, 2527.349081, 1293.863285)" bx:origin="1.047 -0.085"/><path class="hair" id="path-36" style="fill: rgb(79, 55, 36); fill-opacity: 1; fill-rule: nonzero; stroke: none;" d="M 661.819 1839.204 C 661.579 1838.559 661.085 1838.173 660.569 1837.607 L 659.942 1837.667 C 659.441 1838.477 659.744 1839.043 660.554 1839.691 C 661.06 1840.116 661.98 1839.672 661.819 1839.204" transform="matrix(-0.059635, 0.99822, -0.99822, -0.059635, 2535.634853, 1288.795783)"/><path class="hair" id="path-37" style="fill: rgb(79, 55, 36); fill-opacity: 1; fill-rule: nonzero; stroke: none;" d="M 650.824 1833.462 C 650.511 1832.847 649.865 1832.481 649.19 1831.942 L 648.368 1832.001 C 647.714 1832.769 648.11 1833.31 649.17 1833.925 C 649.832 1834.329 651.035 1833.905 650.824 1833.462" transform="matrix(-0.05963500589132309, 0.9982200264930725, -0.9982200264930725, -0.05963500589132309, 2517.931396484375, 1294.0333251953127)"/><path class="hair" id="path-38" style="fill: rgb(79, 55, 36); fill-opacity: 1; fill-rule: nonzero; stroke: none;" d="M 661.732 1843.643 C 661.419 1843.027 660.773 1842.66 660.097 1842.123 L 659.276 1842.18 C 658.622 1842.949 659.018 1843.49 660.077 1844.105 C 660.739 1844.508 661.942 1844.086 661.732 1843.643" transform="matrix(-0.416381, 0.90919, -0.90919, -0.416381, 2608.514476, 2004.036089)" bx:origin="0.748 -1.347"/><path class="hair" id="path-39" style="fill: rgb(79, 55, 36); fill-opacity: 1; fill-rule: nonzero; stroke: none;" d="M 658.265 1839.256 C 658.025 1838.611 657.531 1838.225 657.015 1837.66 L 656.388 1837.719 C 655.887 1838.53 656.19 1839.095 657 1839.744 C 657.506 1840.168 658.426 1839.724 658.265 1839.256" transform="matrix(-0.059635, 0.99822, -0.99822, -0.059635, 2533.27689, 1292.45702)" bx:origin="0.804 0.796"/><path class="hair" id="path-40" style="fill: rgb(79, 55, 36); fill-opacity: 1; fill-rule: nonzero; stroke: none;" d="M 657.27 1840.936 C 656.957 1840.321 656.311 1839.955 655.636 1839.416 L 654.814 1839.475 C 654.16 1840.243 654.556 1840.784 655.616 1841.399 C 656.278 1841.803 657.481 1841.379 657.27 1840.936" transform="matrix(-0.059635, 0.99822, -0.99822, -0.059635, 2532.591908, 1292.660412)" bx:origin="1.047 -0.085"/><path class="hair" id="path-41" style="fill: rgb(79, 55, 36); fill-opacity: 1; fill-rule: nonzero; stroke: none;" d="M 663.086 1852.01 C 662.958 1851.364 662.692 1850.978 662.414 1850.411 L 662.077 1850.472 C 661.807 1851.281 661.971 1851.849 662.406 1852.496 C 662.678 1852.921 663.173 1852.476 663.086 1852.01"/><path class="hair" id="path-42" style="fill: rgb(79, 55, 36); fill-opacity: 1; fill-rule: nonzero; stroke: none;" d="M 665.047 1847.677 C 664.698 1847.094 663.975 1846.746 663.219 1846.234 L 662.303 1846.289 C 661.568 1847.019 662.014 1847.532 663.197 1848.116 C 663.937 1848.5 665.283 1848.098 665.047 1847.677"/><path class="hair" id="path-43" style="fill: rgb(79, 55, 36); fill-opacity: 1; fill-rule: nonzero; stroke: none;" d="M 664.388 1844.819 C 664.039 1844.236 663.315 1843.888 662.56 1843.376 L 661.643 1843.431 C 660.909 1844.161 661.354 1844.674 662.538 1845.258 C 663.278 1845.642 664.624 1845.24 664.388 1844.819"/><path class="hair" id="path-44" style="fill: rgb(79, 55, 36); fill-opacity: 1; fill-rule: nonzero; stroke: none;" d="M 663.399 1841.302 C 663.05 1840.719 662.326 1840.371 661.571 1839.859 L 660.654 1839.914 C 659.92 1840.644 660.365 1841.157 661.549 1841.741 C 662.289 1842.125 663.635 1841.723 663.399 1841.302"/></svg>