<svg class="hair" width="89.95333862304688" height="58.920166015625" viewBox="459.844 1700.73 89.9533 58.9202" xmlns="http://www.w3.org/2000/svg"><path class="hair" id="path2298" style="fill-opacity: 1; fill-rule: nonzero; stroke: none; fill: rgb(122, 26, 119);" d="M 3918.36 6815.5 C 3918.05 6815.3 3867.75 6844.5 3819.24 6826.1 C 3801.56 6821.9 3786.45 6813.9 3777.19 6801.1 C 3774.69 6798.2 3772.62 6795.2 3770.88 6792.1 C 3761.88 6802.7 3746.29 6810.4 3722.85 6813.8 C 3690.16 6818.6 3691.496 6821.018 3681.146 6797.718 C 3663.726 6813.318 3599.41 6798.6 3578.32 6785.5 C 3552.38 6769.4 3537.17 6730.9 3561.15 6713.8 C 3551.25 6712.2 3541.76 6706 3536.56 6696.8 C 3531.64 6688.1 3530.02 6677.3 3536.21 6668.6 C 3537.4 6666.9 3539.06 6665.2 3540.92 6663.7 C 3539.26 6662.7 3537.64 6661.6 3536.29 6660 C 3529.67 6652 3528.26 6642.1 3531.15 6632.7 C 3532.23 6629.1 3630.863 6680.778 3606.873 6614.178 C 3583.473 6550.178 3672.892 6610.144 3672.892 6610.144 C 3746.912 6686.044 3730.627 6584.134 3732.777 6585.334 C 3752.617 6583.634 3795.598 6663.448 3814.898 6665.048 C 3863.938 6669.348 3845.12 6551.8 3878.38 6586.1 C 3888.69 6596.8 3896.15 6609.2 3900.08 6622 C 3949.08 6597.9 4009.596 6820.003 4048.48 6523.5 C 4048.48 6523.5 4123.48 6696.9 3918.36 6815.5" transform="matrix(0.13333330353101047, 0, 0, -0.13333330353101047, 0, 2613.333251953125)"/><path class="hairStreaks" d="M 502.898 1710.658 C 502.898 1709.429 503.861 1708.86 504.568 1708.153 C 505.65 1707.07 506.351 1706.895 508 1706.483 C 509 1706.233 510.61 1706.239 511.712 1706.019 C 513.53 1705.656 515.19 1705.724 516.908 1706.297 C 518.534 1706.839 519.905 1708.246 521.455 1709.081 C 523.051 1709.94 524.724 1710.536 526.28 1711.493 C 528.148 1712.643 529.975 1713.982 531.476 1715.483 C 532.659 1716.667 533.212 1718.28 533.703 1719.751 C 533.821 1720.106 533.714 1721.061 533.981 1721.329 C 534.369 1721.716 534.992 1722.69 535.28 1723.556 C 535.411 1723.946 537.151 1725.055 537.415 1725.319 C 537.42 1725.325 538.435 1726.525 538.435 1726.525 C 538.435 1726.525 537.645 1724.913 537.6 1724.762 C 537.338 1723.888 535.466 1723.723 535.466 1722.813 C 535.466 1720.428 534.494 1717.901 533.425 1715.762 C 533.184 1715.28 532.899 1713.689 532.404 1713.442 C 532.111 1713.296 531.948 1712.472 531.476 1712.236 C 530.703 1711.849 529.178 1710.495 528.414 1709.73 C 527.621 1708.938 525.746 1707.851 524.703 1707.504 C 523.96 1707.256 522.878 1706.367 522.29 1705.926 C 521.904 1705.637 521.115 1705.586 520.806 1705.277 C 520.615 1705.086 519.945 1705.251 519.785 1705.091 C 519.165 1704.472 517.786 1704.703 516.723 1704.349 C 513.125 1703.15 509.232 1704.153 505.96 1705.462 C 505.059 1705.822 504.847 1706.575 504.104 1706.947 C 503.616 1707.191 503.074 1707.415 502.526 1707.689 C 501.895 1708.005 502.132 1708.884 501.877 1709.266 C 500.86 1710.791 499.762 1712.533 501.135 1713.906 C 501.294 1714.065 501.24 1714.66 501.413 1714.834 C 501.516 1714.937 501.506 1714.269 501.506 1714.184 C 501.506 1714.075 501.842 1713.662 501.97 1713.535 C 502.882 1712.622 503.814 1712.525 504.753 1711.586 C 505.219 1711.121 506.803 1711.029 507.537 1711.029 C 509.832 1711.029 513.221 1710.485 515.053 1711.401 C 517.84 1712.794 520.568 1713.593 523.125 1715.298 C 523.554 1715.583 529.62 1719.38 529.62 1719.38 C 529.62 1719.38 526.336 1715.633 526.187 1715.483 C 525.16 1714.456 522.888 1713.091 521.733 1712.514 C 521.004 1712.15 520.145 1711.389 519.507 1710.751 C 518.384 1709.628 516.781 1709.696 515.795 1708.71 C 515.432 1708.347 512.829 1708.061 512.269 1708.061 C 510.163 1708.061 509.581 1708.152 507.722 1708.617 C 506.634 1708.889 502.898 1709.868 502.898 1710.566" style="stroke: black; fill: rgb(122, 26, 119); stroke-opacity: 0;"/></svg>