<svg class="hair" width="71.12265014648438" height="32.7598876953125" viewBox="352.428 1590.6 71.1227 32.7599" xmlns="http://www.w3.org/2000/svg"><path class="hair" id="path2134" style="fill:#7a3e1a;fill-opacity:1;fill-rule:nonzero;stroke:none" d="m 2912.24,7647.2 -2.66,-128.5 c 0,0 165.82,29.3 267.05,-93.9 0,0 -35.29,245.1 -264.39,222.4" transform="matrix(0.13333330353101044, 0, 0, -0.13333330353101044, 0, 2613.333251953125)"/><path class="hair" id="path2136" style="fill:#7a3e1a;fill-opacity:1;fill-rule:nonzero;stroke:none" d="m 2907.59,7647.9 -2.66,-129.2 c 0,0 -160.51,30 -261.72,-93.2 0,0 35.3,245 264.38,222.4" transform="matrix(0.13333330353101044, 0, 0, -0.13333330353101044, 0, 2613.333251953125)"/><path class="hairStreaks" d="M 357.071 1614.383 C 357.525 1605.361 375.286 1597.301 378.816 1595.527 C 383.531 1593.157 380.927 1594.329 387.083 1594.507" style="stroke: black; stroke-width: 1px; stroke-opacity: 0; fill: rgb(122, 62, 26);"/><path class="hairStreaks" d="M 362.96 1612.061 C 380.005 1601.416 380.797 1604.096 384.252 1601.472 C 388.469 1598.269 382.089 1598.496 386.97 1596.489" style="stroke: black; stroke-width: 1px; stroke-opacity: 0; fill: rgb(122, 62, 26);"/></svg>