<svg class="hair" width="73.55734252929688" height="94.6534423828125" viewBox="463.883 1801.69 73.5573 94.6534" xmlns="http://www.w3.org/2000/svg"><path class="hair" id="path2252" style="fill:#c96340;fill-opacity:1;fill-rule:nonzero;stroke:none" d="m 3826.2,5402.6 c 0,-5.5 -1.1,-10.8 -3.15,-15.7 6.97,-2.7 13.66,-5.9 20.1,-9.5 4.64,14.2 8.94,29.4 12.82,45.8 -9.76,-4.3 -19.53,-9.1 -29.74,-13.7 l -0.03,-6.9" transform="matrix(0.13333330353101047, 0, 0, -0.13333330353101047, 0, 2613.333251953125)"/><path class="hair" id="path2254" style="fill:#c96340;fill-opacity:1;fill-rule:nonzero;stroke:none" d="m 3686.69,5402.6 v 6.9 c -9.21,4.2 -18.06,8.5 -26.86,12.4 3.51,-14.6 7.34,-28.5 11.47,-41.4 5.83,2.8 11.85,5.4 18.1,7.6 -1.72,4.6 -2.71,9.4 -2.71,14.5" transform="matrix(0.13333330353101047, 0, 0, -0.13333330353101047, 0, 2613.333251953125)"/><path class="hair" id="path2256" style="fill:#ad4d37;fill-opacity:1;fill-rule:nonzero;stroke:none" d="m 3767.06,5979.4 c 13.97,-0.5 26.96,-1.7 39.49,-3.3 0.16,1.5 0.47,3 0.47,4.6 0,26.5 -21.46,48 -47.95,48 -26.48,0 -47.95,-21.5 -47.95,-48 0,-1.7 0.34,-3.3 0.51,-5 32.62,4.6 55.43,3.7 55.43,3.7" transform="matrix(0.13333330353101047, 0, 0, -0.13333330353101047, 0, 2613.333251953125)"/><path class="hair" id="path2258" style="fill:#c96340;fill-opacity:1;fill-rule:nonzero;stroke:none" d="M 494.667 1815.907 C 494.667 1812.374 497.529 1809.507 501.06 1809.507 C 504.592 1809.507 507.453 1812.374 507.453 1815.907 C 507.453 1816.12 507.412 1816.32 507.391 1816.52 C 505.72 1816.307 503.988 1816.147 502.125 1816.08 C 502.125 1816.08 499.084 1815.96 494.735 1816.574 C 494.712 1816.347 494.667 1816.134 494.667 1815.907 Z M 464.987 1854.267 C 466.648 1852.88 471.645 1849.254 478.243 1849.334 C 478.547 1849.347 479.125 1838.68 479.44 1838.68 C 479.745 1838.68 479.789 1849.36 480.104 1849.36 C 485.097 1849.427 490.893 1849.454 496.885 1849.427 C 497.168 1849.414 497.997 1845.44 498.204 1843.92 C 498.26 1845.44 498.632 1849.414 498.885 1849.4 C 506.647 1849.347 514.623 1849.16 521.524 1848.747 C 521.927 1848.72 522.613 1844.867 522.737 1843.667 C 522.896 1844.84 523.849 1848.6 524.193 1848.574 C 528.869 1848.254 534.659 1851.96 536.549 1855.547 L 536.576 1855.587 C 536.576 1855.587 536.759 1854.467 536.865 1852.64 C 537.291 1845.267 536.421 1826.067 517.18 1818.854 C 517.195 1818.574 517.221 1818.307 517.221 1818.04 C 517.221 1809.014 509.907 1801.694 500.883 1801.694 C 491.86 1801.694 484.545 1809.014 484.545 1818.04 C 484.545 1818.414 484.576 1818.774 484.601 1819.147 C 474.441 1823.027 463.733 1831.734 464.204 1851.347 C 464.231 1852.454 464.287 1853.6 464.388 1854.8 C 464.388 1854.8 464.597 1854.587 464.987 1854.267"/><polygon class="hairStreaks" points="474.615 1829.27 469.696 1835.53 466.715 1841.34 465.374 1848.79 465.374 1852.67 470.293 1849.09 474.466 1847.75 477.448 1847.6 479.236 1830.61 481.174 1831.95 481.621 1848.2 496.378 1848.35 498.614 1832.4 499.658 1835.23 499.956 1836.87 500.552 1849.09 500.552 1849.09 520.377 1848.2 523.656 1830.16" style="stroke: black; stroke-width: 1px; stroke-opacity: 0; fill: rgb(201, 99, 64);" transform=""/><path class="hairStreaks" d="M 525.743 1829.564 C 525.177 1829.564 524.811 1833.033 524.7 1833.589 C 524.165 1836.262 524.658 1837.142 523.805 1839.7 C 523.662 1840.131 523.209 1840.744 523.209 1840.744 C 523.209 1840.744 523.174 1841.569 523.209 1841.638 C 523.789 1842.799 524.254 1844.129 524.551 1845.514 C 524.692 1846.175 524.818 1847.421 525.296 1847.899 C 525.461 1848.065 524.793 1847.805 524.849 1847.75 C 525.507 1847.091 529.216 1847.601 530.066 1847.601 C 531.322 1847.601 532.369 1848.38 533.196 1848.793 C 533.355 1848.872 535.087 1850.928 535.134 1850.88 C 535.413 1850.602 534.894 1848.403 534.836 1848.346 C 534.431 1847.941 534.824 1845.356 534.687 1844.918 C 534.123 1843.115 534.465 1840.389 534.091 1838.806 C 532.751 1833.142 529.768 1833.874 529.768 1831.055" style="stroke: black; fill: rgb(201, 99, 64); stroke-opacity: 0;"/></svg>