<svg class="hair" width="112.92259216308594" height="94.320068359375" viewBox="167.595 1801.87 112.923 94.3201" xmlns="http://www.w3.org/2000/svg"><path class="hair" id="path2338" style="fill:#67bc37;fill-opacity:1;fill-rule:nonzero;stroke:none" d="M 277.349 1859.107 C 277.175 1858.96 276.981 1858.854 276.789 1858.734 C 278.96 1858.28 280.517 1856.134 280.376 1853.52 C 280.137 1851.507 278.88 1849.987 277.296 1849.374 C 276.941 1849.094 276.547 1848.894 276.135 1848.72 C 278.028 1847.774 279.017 1845.507 278.384 1843.094 C 277.923 1841.48 276.781 1840.36 275.452 1839.84 C 274.889 1839.4 274.249 1839.107 273.58 1838.96 C 275.067 1837.614 275.532 1835.334 274.477 1833.214 C 273.892 1832.027 272.924 1831.227 271.851 1830.814 C 271.06 1830.2 270.125 1829.867 269.183 1829.827 C 270.215 1828.227 270.165 1826.027 268.788 1824.254 C 268.195 1823.453 267.421 1822.92 266.593 1822.614 C 265.529 1821.8 264.233 1821.494 263.017 1821.68 C 263.612 1819.974 263.143 1817.92 261.524 1816.52 C 261.024 1816.054 260.464 1815.734 259.885 1815.52 C 258.501 1814.494 256.808 1814.334 255.389 1814.88 C 255.559 1813.134 254.721 1811.307 252.928 1810.28 C 252.639 1810.094 252.344 1809.947 252.043 1809.84 L 251.728 1809.614 C 250.019 1808.52 248.011 1808.694 246.569 1809.64 C 246.352 1808.04 245.271 1806.56 243.511 1805.88 C 243.095 1805.573 242.635 1805.294 242.099 1805.12 C 240.143 1804.32 238.123 1804.96 236.899 1806.28 C 236.448 1805.04 235.464 1803.987 234.1 1803.48 C 233.456 1803 232.683 1802.654 231.783 1802.547 C 229.615 1802.147 227.684 1803.227 226.781 1804.88 C 226.248 1804 225.427 1803.294 224.42 1802.92 C 223.551 1802.254 222.429 1801.867 221.18 1801.974 C 218.856 1802.027 217.112 1803.56 216.636 1805.494 C 216.14 1804.934 215.507 1804.494 214.788 1804.227 C 213.689 1803.387 212.201 1803 210.652 1803.414 C 208.257 1803.974 206.801 1805.96 206.853 1808.054 C 206.477 1807.76 206.056 1807.52 205.599 1807.347 C 204.276 1806.334 202.369 1806.014 200.585 1806.84 C 198.229 1807.934 197.149 1810.347 197.819 1812.48 C 197.593 1812.347 197.364 1812.24 197.119 1812.147 C 195.579 1810.947 193.251 1810.787 191.365 1812.12 C 189.141 1813.76 188.608 1816.534 189.957 1818.534 L 189.689 1818.454 C 187.927 1817.04 185.16 1817.147 183.313 1819.054 C 181.301 1821.24 181.419 1824.36 183.556 1826.027 L 183.552 1826.027 C 181.532 1824.374 178.353 1824.894 176.707 1827.36 C 175.157 1829.907 175.835 1832.947 178.251 1834.16 L 178.249 1834.174 C 175.947 1832.92 172.951 1834.04 171.769 1836.774 C 170.797 1839.453 171.885 1842.16 174.273 1843.04 L 174.4 1843.134 C 171.935 1842.453 169.371 1844.107 168.68 1846.934 C 168.283 1849.494 169.588 1851.774 171.669 1852.48 L 171.936 1852.694 C 169.596 1852.787 167.728 1854.787 167.595 1857.494 C 167.605 1859.76 168.963 1861.56 170.748 1862.187 C 170.979 1862.374 171.221 1862.52 171.479 1862.64 C 169.399 1863.36 168.136 1865.627 168.615 1868.254 C 169.068 1870.094 170.297 1871.4 171.728 1871.934 C 172.213 1872.307 172.749 1872.573 173.309 1872.72 C 171.877 1874.08 171.461 1876.534 172.797 1878.734 C 173.467 1879.827 174.392 1880.547 175.381 1880.907 C 176.389 1881.667 177.568 1881.96 178.679 1881.827 C 178.097 1883.587 178.681 1885.76 180.571 1887.16 C 180.947 1887.427 181.336 1887.627 181.729 1887.787 L 181.771 1887.827 C 183.547 1889.08 185.584 1889.134 187.079 1888.294 C 187.247 1889.96 188.372 1891.587 190.252 1892.307 C 190.631 1892.587 191.04 1892.827 191.511 1893 C 193.509 1893.76 195.503 1893.227 196.736 1891.947 C 197.184 1893.227 198.191 1894.32 199.573 1894.84 C 200.172 1895.294 200.881 1895.627 201.692 1895.76 C 203.751 1896.187 205.631 1895.267 206.639 1893.747 C 206.932 1894.333 207.357 1894.84 207.868 1895.267 C 210.405 1892.747 213.375 1890.8 216.841 1889.587 C 216.609 1888.974 216.477 1888.32 216.477 1887.654 L 216.477 1886.72 C 215.005 1886.053 213.601 1885.347 212.193 1884.747 C 208.189 1883.053 202.029 1883.68 194.792 1873.974 C 192.319 1870.667 191.016 1866.414 190.371 1862.254 C 186.171 1863.573 185.992 1858.027 185.245 1855.347 C 184.476 1852.573 182.421 1850.054 184.681 1847.174 C 186.349 1845.054 189.064 1845.827 190.36 1846.374 C 190.501 1845.547 191.176 1842.107 193.149 1837.72 C 194.781 1837.787 196.207 1836.92 196.893 1835.6 C 195.537 1837.854 196.804 1841.027 199.712 1842.08 C 202.588 1843.12 205.415 1841.56 206.028 1839.014 C 205.336 1841.547 207.108 1844.267 209.983 1844.747 C 212.851 1845.24 215.387 1843.36 215.652 1840.72 C 215.336 1843.32 217.403 1845.774 220.269 1845.894 C 223.136 1846.054 225.437 1843.867 225.412 1841.254 C 225.388 1843.867 227.687 1846.054 230.553 1845.894 C 233.42 1845.774 235.488 1843.32 235.172 1840.72 L 235.173 1840.72 C 235.439 1843.36 237.972 1845.24 240.839 1844.747 C 243.717 1844.267 245.487 1841.547 244.793 1839.014 L 244.795 1839.014 C 245.407 1841.56 248.235 1843.12 251.112 1842.08 C 254.019 1841.027 255.285 1837.854 253.931 1835.6 C 254.713 1837.107 256.461 1838.027 258.384 1837.64 C 260.685 1842.72 261.245 1846.56 261.245 1846.56 C 261.245 1846.56 261.297 1846.894 261.365 1847.48 C 262.745 1846.96 265.201 1846.44 266.755 1848.414 C 269.015 1851.294 266.96 1853.8 266.191 1856.573 C 265.441 1859.28 265.263 1864.867 260.995 1863.467 C 260.292 1867.227 259.013 1870.987 256.781 1873.974 C 249.544 1883.68 243.384 1883.053 239.38 1884.747 C 237.968 1885.347 236.559 1886.053 235.083 1886.72 L 235.079 1887.654 C 235.079 1888.387 234.933 1889.08 234.661 1889.734 C 238.143 1891.107 241.119 1893.294 243.667 1896.08 C 244.98 1895.414 245.899 1894.2 246.167 1892.8 C 246.652 1893.32 247.251 1893.72 247.931 1893.987 C 249.047 1894.827 250.556 1895.2 252.131 1894.76 C 254.48 1894.214 255.908 1892.134 255.837 1890.053 C 256.192 1890.32 256.589 1890.547 257.02 1890.707 C 258.368 1891.76 260.34 1892.027 262.22 1891.08 C 264.699 1889.8 265.635 1887.107 264.66 1885.04 C 264.784 1885.094 264.912 1885.147 265.044 1885.2 C 266.695 1886.534 269.431 1886.507 271.351 1884.507 C 273.707 1882.2 273.193 1878.72 270.963 1877.374 C 270.667 1877.187 270.368 1877.04 270.063 1876.92 L 269.811 1876.734 L 269.816 1876.734 C 270.115 1876.947 270.433 1877.094 270.763 1877.2 L 270.963 1877.374 C 273.185 1878.934 276.403 1877.947 277.684 1874.947 C 278.777 1872.147 277.521 1869.387 275.253 1868.614 L 275.195 1868.573 C 277.612 1868.96 279.932 1867.08 280.361 1864.187 C 280.499 1861.787 279.215 1859.787 277.349 1859.107"/><path d="M 254.785 1817.169 C 254.785 1817.169 274.838 1822.665 258.647 1831.726 C 242.456 1840.787 286.87 1822.071 274.987 1841.083 C 263.104 1860.095 283.75 1861.432 273.65 1858.907 C 263.55 1856.381 270.381 1841.827 270.381 1841.827 C 270.381 1841.827 265.481 1845.837 263.549 1838.41 C 261.617 1830.983 249.29 1846.134 246.913 1839.004 C 244.536 1831.874 253.151 1827.864 253.151 1828.012 C 253.151 1828.16 262.509 1827.121 256.271 1824.745 C 250.033 1822.369 242.903 1825.636 241.417 1823.111 C 239.931 1820.586 254.934 1817.318 254.785 1817.169 Z" style="stroke: black; stroke-width: 1px; fill: rgb(103, 188, 55); stroke-opacity: 0;"/><path d="M 181.943 1855.615 C 181.943 1855.615 181.943 1855.913 181.734 1855.913 C 181.525 1855.913 175.169 1848.783 181.839 1846.258 C 188.508 1843.733 183.819 1833.781 183.819 1833.781 C 183.819 1833.781 182.985 1822.195 188.925 1825.76 C 194.864 1829.325 192.364 1821.007 192.469 1820.858 C 192.573 1820.708 198.825 1831.256 194.448 1831.553 C 190.072 1831.85 191.114 1838.682 191.114 1838.831 C 191.114 1838.98 202.994 1848.783 194.657 1848.337 C 186.32 1847.891 186.112 1848.04 186.112 1848.04 C 186.112 1848.04 178.399 1848.486 186.32 1854.873 C 194.24 1861.26 179.337 1860.517 179.129 1860.517 C 178.921 1860.517 171.312 1856.804 173.815 1857.992 C 176.316 1859.18 178.921 1860.517 181.214 1858.586" style="stroke: black; stroke-width: 1px; stroke-opacity: 0; fill: rgb(103, 188, 55);" transform="matrix(-1, 0, 0, -1, 370.934235, 3681.399901)"/></svg>