<svg class="hair" width="86.8853759765625" height="84.13330078125" viewBox="594.702 1916.44 86.8854 84.1333" xmlns="http://www.w3.org/2000/svg"><path class="hair" id="path2200" style="fill:#8f1547;fill-opacity:1;fill-rule:nonzero;stroke:none" d="m 4789.28,5214.4 c 0,0 -329.01,12.3 -303.01,-292.4 0,0 16.97,0 17.95,-5 0.94,-4.9 1.8,-10.8 2.66,-17.4 3.28,-25.3 6.32,-61.6 11.79,-95.8 3.56,-22.3 8.15,-43.8 14.55,-60.6 0,0 4.46,24.7 11.74,60.2 15.08,73.5 42.25,193.4 67.17,238.5 0,0 9.98,-38 20.98,-61.9 0,0 39.94,47.9 52.94,61.9 0,0 17.97,-46.9 30.96,-61.9 0,0 33.97,52.9 46.94,61.9 0,0 21.99,-45.9 29.98,-60.9 0,0 27.96,41.9 42.95,60.9 0,0 32.96,-47.9 42.94,-61.9 0,0 19.98,43.9 33.97,61.9 0,0 75.14,-119.7 88.22,-244.9 2.23,-21.3 2.72,-42.7 0.69,-63.8 0,0 7.87,28.3 16.64,63.5 9.16,36.8 19.27,80.9 22.48,108.3 l 0.25,2.2 c 0.25,2.4 5.45,0.7 5.57,2.8 0,0 9,-2.9 23.98,-2 14.98,1.1 40.29,296.4 -282.34,306.4" transform="matrix(0.13333330353101047, 0, 0, -0.13333330353101047, 7.105427357601002e-15, 2613.333251953125)"/><path class="hair" id="path2202" style="fill:#8f1547;fill-opacity:1;fill-rule:nonzero;stroke:none" d="m 4704.82,4613.6 c -11.05,5 -21.58,10.3 -32.14,14.8 -30.02,12.7 -76.23,8 -130.51,80.8 -19.9,26.7 -29.69,61.4 -34.14,94.7 l -15.78,0.3 c 0,0 20.97,-113.9 72.93,-178.8 l 13.98,18.9 c 0,0 14.98,-23.9 36.95,-38.9 0,0 38.56,-6 90.2,-9.6 -0.96,3.5 -1.49,7.1 -1.49,10.9 v 6.9" transform="matrix(0.13333330353101047, 0, 0, -0.13333330353101047, 7.105427357601002e-15, 2613.333251953125)"/><path class="hair" id="path2204" style="fill:#8f1547;fill-opacity:1;fill-rule:nonzero;stroke:none" d="m 5007.09,4709.2 c -54.3,-72.8 -100.49,-68.1 -130.51,-80.8 -10.58,-4.5 -21.15,-9.8 -32.22,-14.8 l -0.02,-6.9 c 0,-3.8 -0.55,-7.5 -1.55,-11 13.91,1.3 27.41,3.1 40.04,5.7 0,0 54.94,6 72.91,37.9 l 1,-19.9 c 0,0 94.9,45.9 101.89,176.8 l -18.49,0.2 c -4.89,-30.9 -14.65,-62.5 -33.05,-87.2" transform="matrix(0.13333330353101047, 0, 0, -0.13333330353101047, 7.105427357601002e-15, 2613.333251953125)"/><polygon class="hairStreaks" points="604.904 1935.387 601.592 1949.298 604.374 1973.677 612.986 1937.506 616.563 1932.604 618.021 1947.576 625.838 1927.437 626.633 1922.27 626.103 1937.771 625.705 1937.506 629.15 1947.443 637.232 1934.194 633.655 1919.222 633.655 1919.222 619.478 1923.462 619.081 1923.065" style="stroke: black; stroke-width: 1px; stroke-opacity: 0; fill: rgb(143, 21, 71);"/></svg>