<svg class="hair" width="73.36398315429688" height="58.4266357421875" viewBox="184.869 1919.03 73.364 58.4266" xmlns="http://www.w3.org/2000/svg"><path class="hair" id="path2250" style="fill:#211d1d;fill-opacity:1;fill-rule:nonzero;stroke:none" d="M 258.141 1972.334 C 258.141 1972.334 251.085 1919.027 195.859 1951.907 C 194.817 1952.32 193.429 1953.107 191.548 1954.587 C 184.777 1959.894 185.509 1977.454 185.509 1977.454 C 185.509 1977.454 192.352 1964.814 196.241 1957.547 C 204.7 1961.88 224.769 1969.707 258.141 1972.334"/><path class="hairStreaks" d="M 201.523 1951.05 C 201.523 1951.05 230.139 1963.196 250.84 1965.495 C 271.541 1967.794 217.533 1953.166 206.307 1951.326" style="stroke: black; stroke-width: 1px; stroke-opacity: 0; fill: rgb(33, 29, 29);"/><path class="hairStreaks" d="M 201.759 1952.63 C 201.759 1952.63 226.879 1967.812 247.58 1970.111 C 268.281 1972.41 226.326 1964.683 210.96 1956.402" style="stroke: black; stroke-width: 1px; stroke-opacity: 0; fill: rgb(33, 29, 29);"/></svg>