<svg class="hair" width="72.60406494140625" height="77.919921875" viewBox="612.906 1569.29 72.6041 77.9199" xmlns="http://www.w3.org/2000/svg"><path class="hair" id="path2170" style="fill:#7c91d2;fill-opacity:1;fill-rule:nonzero;stroke:none" d="m 4608.92,7601.4 c 17.83,44.4 72.79,91 72.79,91 67.92,-24 140.84,-85.9 140.84,-85.9 5,12 -19.97,53 -19.97,53 39.95,-17 68.91,-89 68.91,-89 22.98,69 69.93,84 69.93,84 -10.99,-9 -7.99,-44 -7.99,-44 38.96,53.9 150.84,72.9 150.84,72.9 42.95,-46.9 56.93,-114.9 56.93,-114.9 0.13,5.3 -0.04,10.4 -0.14,15.5 -4.69,243.1 -256.58,244.3 -256.58,244.3 -287.68,2 -280.68,-245.8 -280.68,-245.8 0.42,3.5 4.45,17.3 5.12,18.9" transform="matrix(0.13333330353101047, 0, 0, -0.13333330353101047, 0, 2613.333251953125)"/><path class="hair" id="path2172" style="fill:#7c91d2;fill-opacity:1;fill-rule:nonzero;stroke:none" d="m 5123.47,7245.9 h 14.74 l -2,226.8 c -5.17,-29.1 -12.81,-59.9 -30.04,-83 -54.28,-72.8 -100.48,-68.2 -130.5,-80.9 -11.11,-4.7 -20.22,-8.7 -31.91,-14 l -2,-7.7 c 0,-16.9 -10.59,-31.7 -26.93,-41.2 h 73.18 l 1.02,1.7 12.7,20.7 11.64,-21.3 0.57,-1.1 h 33.03 l 14.66,40.3 13.99,-40.3 h 31.15 l 8.84,14.4 7.86,-14.4" transform="matrix(0.13333330353101047, 0, 0, -0.13333330353101047, 0, 2613.333251953125)"/><path class="hair" id="path2174" style="fill:#7c91d2;fill-opacity:1;fill-rule:nonzero;stroke:none" d="m 4802.25,7287.1 v 7.7 c -10.44,4.8 -20.45,9.8 -30.48,14 -30.04,12.7 -76.22,8.1 -130.5,80.9 -23.48,31.4 -35.33,74.6 -38.48,112.9 v -256.7 h 13.2 l 8.82,14.4 7.86,-14.4 h 72.48 l 0.19,0.3 12.7,20.8 11.48,-21.1 h 99.45 c -16.25,9.5 -26.72,24.3 -26.72,41.2" transform="matrix(0.13333330353101047, 0, 0, -0.13333330353101047, 0, 2613.333251953125)"/><path class="hairStreaks" d="M 617.323 1590.15 C 618.337 1590.15 629.638 1584.935 630.208 1585.733 C 631.667 1587.776 633.464 1590.094 635.239 1591.868 C 636.182 1592.811 637.209 1593.716 638.184 1594.691 C 638.593 1595.099 639.094 1595.528 639.288 1595.918 C 639.329 1596 639.625 1596.04 639.534 1596.04 C 639.015 1596.04 638.184 1593.954 637.939 1593.464 C 636.678 1590.943 635.445 1588.497 634.38 1586.101 C 634.042 1585.342 633.758 1584.489 633.398 1583.77 C 633.336 1583.645 632.957 1583.352 633.03 1583.279 C 633.305 1583.004 633.766 1583.524 634.135 1583.647 C 634.848 1583.885 635.612 1583.955 636.343 1584.138 C 636.796 1584.251 637.242 1584.388 637.693 1584.506 C 640.662 1585.28 645.31 1586.563 647.264 1589.169 C 648.252 1590.486 648.763 1591.887 648.369 1593.464 C 648.335 1593.599 648.123 1595.427 648.123 1595.427 C 648.123 1595.427 649.942 1592.504 650.332 1592.114 C 651.207 1591.239 652.052 1589.719 652.664 1588.801 C 653.868 1586.994 656.975 1585.268 659.044 1584.751 C 659.341 1584.677 660.318 1584.582 660.517 1584.383 C 660.681 1584.219 665.704 1584.539 666.408 1584.506 C 666.855 1584.485 662.579 1585.984 662.48 1586.224 C 662.327 1586.596 660.517 1588.555 660.517 1588.555 C 659.862 1590.52 659.29 1591.336 659.29 1593.341 C 659.29 1593.531 659.413 1595.059 659.413 1595.059 C 659.413 1595.059 659.372 1594.118 659.413 1594.077 C 659.897 1593.592 660.591 1592.653 661.253 1591.991 C 663.721 1589.523 666.958 1587.207 669.72 1585.365 C 671.061 1584.471 672.082 1583.696 673.524 1582.542 C 673.648 1582.443 649.362 1582.555 649.228 1582.42 C 648.484 1581.677 672.216 1578.882 670.947 1578.248 C 668.328 1576.938 665.151 1577.266 662.235 1577.266 C 659.279 1577.266 656.27 1577.279 653.4 1577.757 C 651.727 1578.036 662.574 1573.641 661.376 1573.707 C 658.934 1573.841 643.698 1579.222 641.374 1579.72 C 639.565 1580.108 650.397 1573.385 648.615 1573.831 C 647.877 1574.015 634.605 1580.651 634.012 1580.947 C 632.612 1581.647 641.48 1573.099 640.025 1573.584 C 639.754 1573.675 628.911 1582.489 628.735 1582.665 C 628.306 1583.094 618.674 1589.905 618.059 1589.905" style="stroke: black; stroke-opacity: 0; fill: rgb(124, 145, 210);"/></svg>