<svg class="hair" width="110.92501831054688" height="78.5997314453125" viewBox="28.9696 1439.79 110.925 78.5997" xmlns="http://www.w3.org/2000/svg" xmlns:bx="https://boxy-svg.com"><path class="hair" id="path2090" style="fill:#a0d066;fill-opacity:1;fill-rule:nonzero;stroke:none" d="M 44.05 1510.294 L 44.969 1510.8 L 52.341 1503.054 L 53.831 1515.32 L 62.943 1503.8 L 74.076 1512.48 L 73.216 1501.08 L 84.732 1508.574 L 82.044 1495.16 L 99.649 1501.827 L 88.471 1486.694 L 108.645 1489.774 C 114.285 1497.8 115.408 1505.547 115.408 1505.547 C 115.408 1505.547 115.459 1505.88 115.529 1506.467 C 116.909 1505.947 119.364 1505.414 120.917 1507.4 C 123.176 1510.267 121.121 1512.787 120.352 1515.56 C 120.135 1516.334 119.966 1517.36 119.733 1518.387 L 132.68 1511.414 L 118.828 1503.96 L 139.895 1489.747 L 114.211 1490.467 L 129.557 1471.174 L 106.753 1480.867 L 108.034 1474.587 L 109.114 1469.28 L 110.659 1461.694 L 103.733 1466.387 L 94.177 1472.84 L 95.847 1450.654 L 95.931 1449.56 L 96.667 1439.787 L 83.312 1469.507 L 76.563 1454.587 L 69.46 1471.28 L 58.449 1457.427 L 57.74 1476.614 L 43.175 1468.8 L 48.504 1486.2 L 30.391 1487.974 L 43.532 1499.347 L 31.12 1501.467 L 28.97 1501.827 L 31.513 1503.254 L 36.815 1506.227 L 38.28 1507.054 L 40.082 1508.067 L 44.05 1510.294"/><polygon class="hairStreaks" points="55.58 1493.011 43.63 1505.824 58.414 1496.584 55.457 1508.78 69.255 1491.04 69.132 1502.867 72.581 1489.685 71.103 1480.692" style="stroke: none; stroke-width: 1px; fill: rgb(160, 208, 102);"/></svg>