<?xml version="1.0" encoding="utf-8"?>
<svg class="skirt" width="86" height="380" viewBox="202.715 584.407 86.5933 380.048" preserveAspectRatio="xMidYMid meet" xmlns="http://www.w3.org/2000/svg" xmlns:xlink="http://www.w3.org/1999/xlink">
  <rect id="svgEditorBackground" x="202.71499633789062" y="584.406982421875" width="86.59329986572266" height="380.0480041503906" style="fill: none; stroke: none;" class="clothes"/>
  <defs id="svgEditorDefs">
    <path id="svgEditorClosePathDefs" fill="moccasin" style="stroke-width: 0px; stroke: none; fill-opacity: 1;" class="clothes"/>
    <pattern id="pattern-0" x="0" y="0" width="20" height="20" patternUnits="userSpaceOnUse" viewBox="0 0 100 100">
      <g transform="matrix(0.075542, 0, 0, 0.075542, 45.663902, 23.878206)">
        <g id="g4748" transform="matrix(3.890857, 0, 0, 3.95594, 716.253601, -345.798309)">
          <path id="path4324" d="m-172.17 298.09c-6.29-5.01-21.79-17.24-34.44-27.17-38.2-29.98-54.01-43.82-68.79-60.21-25.1-27.82-32.01-41.98-32-65.5 0.01-25.06 8.95-45.619 28.29-65.043 9.1-9.136 11.77-11.182 20-15.293 21.92-10.951 43.64-9.574 63.72 4.039 3.18 2.158 6.34 4.255 7.01 4.661 0.78 0.466 3.17-1.344 6.5-4.924 25.16-27.032 59.89-35.605 89.275-22.029 30.265 13.983 49.763 44.888 49.9 79.089 0.05 12.54-1.596 20.08-6.773 31-5.318 11.23-14.335 22.07-38.482 46.29-23.36 23.43-35.17 37.13-45.43 52.71-7.06 10.72-17.15 30.6-21.71 42.75-1.8 4.82-3.81 8.75-4.46 8.75s-6.33-4.1-12.61-9.12z" style="fill: rgb(255, 31, 31);"/>
          <g id="g4708">
            <g id="g4584" transform="translate(53.677 -18.379)">
              <path id="path4586" style="opacity: 0.1; fill: rgb(255, 31, 31);" d="m-140.97 130.12c-2.51 2.23-1.23 7.4-2.37 10.66-3.06 20.47-10.74 39.84-18.78 58.88 12.29-10.51 27.43-20.84 31.09-37.6 2.19-10.2 2.36-23.54-7.19-30.12-0.85-0.52-1.65-1.84-2.75-1.82z"/>
              <path id="path4591" style="opacity: 0.1; fill: rgb(255, 31, 31);" d="m-140.56 129c-4.58 0.2-2.26 7.11-3.69 10.06-2.84 22.15-11.98 43.33-20.16 63.5 9.95-7.49 19.81-15.42 27.63-25.18 7.77-11.28 11.02-27.05 5.12-39.82-2.25-3.31-5.38-6.79-8.9-8.56z"/>
              <path id="path4596" style="opacity: 0.1; fill: rgb(255, 31, 31);" d="m-141.06 127.91c-5.27 0.27-2.78 7.71-4.28 11-2.81 22.68-12.52 43.69-20.5 64.81 4.49 0.12 7.77-5.43 11.46-7.6 11.09-9.15 22.78-19.48 25.72-34.31 2.11-10.85 1.93-24.4-8.03-31.53-1.23-0.81-2.67-2.66-4.37-2.37z"/>
              <path id="path4601" style="opacity: 0.1; fill: rgb(255, 31, 31);" d="m-141.25 126.81c-6.47 0.5-3.67 9.37-5.37 13.47-3.13 22.03-12.41 42.52-20.35 63.1-0.11 3.23 4.92 0.97 5.94-0.35 12.33-10.6 27.41-20.62 32.28-36.87 2.95-10.17 4.05-22.81-2.44-31.82-2.76-2.66-5.82-7.58-10.06-7.53z"/>
              <path id="path4606" style="opacity: 0.1; fill: rgb(255, 31, 31);" d="m-141.44 125.72c-2.86 0.06-5.07 2.17-5 5.06-1.91 19.07-7.63 37.52-14.83 55.24-1.98 6.04-5.72 11.6-6.82 17.89 0.28 3.32 5.16 2.39 6.84 0.59 8.98-7.02 17.86-14.43 25.49-22.91 8.43-10.63 12.1-24.72 9.62-38.25-0.99-7.51-6.73-13.78-13.11-17.46-0.7-0.22-1.46-0.3-2.19-0.16z"/>
              <path id="path4611" style="opacity: 0.1; fill: rgb(255, 31, 31);" d="m-141.59 124.59c-3.05 0.25-5.79 2.25-5.84 5.52-1.53 11.7-3.49 23.43-7.35 34.7-3.91 12.81-9.49 24.96-14.2 37.42-1.21 2.79 1.31 5.5 4.17 5.02 5.38-1.22 9.11-6.12 13.43-9.32 9.1-7.91 18.98-15.81 23.36-27.4 4.31-10.2 5.08-22.14 1.49-32.69-2.54-5.51-7.17-10.32-12.59-13.09-0.81-0.21-1.64-0.3-2.47-0.16z"/>
              <path id="path4616" style="opacity: 0.1; fill: rgb(255, 31, 31);" d="m-141.72 123.5c-5.68 0.02-7.35 5.8-7.46 10.46-2.28 23.94-12.32 46.09-20.94 68.29-1.87 5.51 5.87 7.97 9.37 4.59 10.4-8.19 21.37-16.48 29.16-27.25 8.36-12.57 11.38-29.73 5.21-44-3.34-5.05-7.78-10.89-14.03-12.15-0.43 0.01-0.88-0.03-1.31 0.06z"/>
              <path id="path4621" style="opacity: 0.1; fill: rgb(255, 31, 31);" d="m-141.28 122.34c-5.74-0.12-9.02 5.2-8.84 10.47-2.23 24.25-12.31 46.68-21.1 69.16-2.02 5.98 5.89 9.66 10.34 6.28 10.62-7.94 21.16-16.46 29.44-26.87 9.22-13.18 12.59-31.36 6.03-46.35-3.57-5.27-8.91-12.53-15.87-12.69z"/>
              <path id="path4626" style="opacity: 0.1; fill: rgb(255, 31, 31);" d="m-141.97 121.28c-5.98 0.21-9.36 5.84-9.25 11.38-2.23 24.26-12.36 46.67-21.09 69.09-2.12 6.37 5.8 11.09 11.09 7.91 10.57-6.92 19.86-15.79 28.63-24.88 11.01-13.72 15.36-33.78 8.18-50.25-3.72-5.69-8.91-12.25-16-13.31-0.52 0.01-1.04-0.04-1.56 0.06z"/>
              <path id="path4631" style="opacity: 0.1; fill: rgb(255, 31, 31);" d="m-141.53 120.12c-5.99 0.1-10.57 5.1-10.63 11-2.11 24.31-11.95 47.08-21 69.47-2.82 6.55 4.26 13.06 10.66 10.75 10.27-4.92 17.93-13.99 26.53-21.31 14.4-13.82 20.53-36.7 12.85-55.41-3.81-6.24-10.36-14.62-18.41-14.5z"/>
            </g>
            <path id="path4322" style="stroke-linejoin: round; stroke-opacity: 0.37705; fill-opacity: 0.93989; stroke: rgb(255, 255, 254); stroke-linecap: round; stroke-width: 5; fill: rgb(255, 31, 31);" d="m-89.636 162.04c5.557-5.65 6.914-7.33 8.555-10.6 2.64-5.26 3.642-9.97 3.385-15.89-0.235-5.39-1.177-7.99-4.047-11.16-2.479-2.73-3.356-3.15-5.108-2.42-1.594 0.65-1.639 0.8-2.362 7.45-0.976 8.98-4.019 20.08-9.588 34.97-1.153 3.09-0.792 4.35 1.246 4.36 1.055 0.01 2.618-1.32 7.919-6.71z"/>
          </g>
          <g id="g4542" transform="matrix(1.112 0 0 1.1574 151.63 -349.79)" clip-path="url(#clipPath4689)">
            <path id="path4479" style="opacity: 0.1; fill: rgb(255, 31, 31);" d="m-239.93 328.87c-23.14-0.34-44.14 13.74-59.06 30.56-5.44 4.61-13.36 2.74-17.79-2.23-15.43-11.48-36.86-14.72-54.3-5.92-15.48 7.24-27.2 20.64-35.94 35.04-13.16 23.36-14.48 54.62 2.12 76.64 32.45 44.33 79.14 74.51 121.15 108.86 3.69 4.69 3.9-4.02 5.84-6.41 13.07-30.68 33.33-57.47 57.05-80.84 16.62-17.47 36.28-33.36 46.62-55.7 13.66-36.13-6.83-80.68-42.41-95.28-7.29-3.03-15.29-4.84-23.28-4.72zm-8.12 10.56c34.09 0.34 63.79 29.11 68.31 62.38 3.15 18.29-2.61 37.51-15.27 51.02-21.39 24.82-48.83 44.41-65.98 72.92-7.06 10.78-12.32 22.69-17.28 34.43-4.95 5.48-11.06-0.93-15.1-4.07-36.67-28.55-77.22-53.9-105.62-91.3-17.6-22.39-15.19-55.64 0.82-78.13 11.93-16.88 29.77-31.18 51.02-32.78 14.69-1.26 29.36 4.56 40.82 13.03 4.84-3.19 8.48-8.65 13.6-11.82 12.75-9.78 28.52-15.88 44.68-15.68z"/>
            <path id="path4484" style="opacity: 0.1; fill: rgb(255, 31, 31);" d="m-239.96 327.75c-23.47-0.25-44.5 13.71-59.69 30.78-5.07 4.35-12.37 2.4-16.46-2.22-15.73-11.73-37.69-15.01-55.41-6.06-15.51 7.23-27.05 20.41-36 34.62-13.76 23.84-15.38 56.09 1.72 78.75 32.09 43.85 78.16 73.93 119.8 107.82 2.46 1.74 5.85 6.58 6.42 0.87 12.71-32.39 33.37-61.13 58.1-85.53 16.93-17.85 36.98-34.03 47.9-56.57 16.07-40.29-10.53-91.14-52.94-100.96-4.37-0.99-8.86-1.6-13.44-1.5zm-7.94 12.81c34.11 0.41 63.67 29.79 67.28 63.22 2.6 17.47-3.28 35.47-15.23 48.36-21.41 24.71-48.89 44.44-66.08 73.01-7 10.78-12.39 22.59-17.22 34.35-4.98 4.96-10.3-2.39-14.33-4.88-36.57-28.39-77.04-53.76-105.18-91.26-17.64-23.15-13.74-57.48 3.91-79.46 11.88-15.45 29.18-28.09 49.2-28.97 14.15-0.81 27.89 5.03 38.97 13.16 4.75-1.55 7.2-7.16 11.52-9.73 13.14-10.97 29.82-18.1 47.16-17.8z"/>
            <path id="path4489" style="opacity: 0.1; fill: rgb(255, 31, 31);" d="m-239.99 326.65c-23.73-0.31-45.22 13.94-60.31 30.97-4.76 4.14-11.4 2.02-15.13-2.21-16.05-11.93-38.31-15.27-56.53-6.2-15.66 7.27-27.44 20.69-36.53 35.1-13.95 24.27-15.59 56.88 1.78 79.94 32.84 44.92 80.56 75.64 123.15 110.57 2.19 2.29 3.91 3.23 4.45-0.75 12.46-32.11 32.53-60.71 56.81-84.86 17.54-18.64 38.35-35.13 49.68-58.46 14.2-35.21-3.99-79.13-37.28-96.42-9.24-4.9-19.62-7.83-30.09-7.68zm-8.06 15c34.39 0.38 63.85 30.53 66.56 64.22 2.04 16.98-4.28 33.98-15.84 46.31-21.73 24.67-49.18 44.65-66.16 73.38-6.69 10.49-11.92 21.81-16.53 33.25-4.62 4.09-9.03-3.18-12.77-5.07-36.76-28.61-77.86-54.17-105.74-92.13-17.17-23.65-12.04-58.23 6.7-79.52 12.45-15.51 31.36-27.4 51.9-26 11.93 0.71 23.27 5.92 32.69 13 5.17 0.2 7.3-6.37 11.44-8.65 13.1-11.43 30.1-19.05 47.75-18.79z"/>
            <path id="path4494" style="opacity: 0.1; fill: rgb(255, 31, 31);" d="m-240.02 325.53c-23.95-0.24-45.65 13.92-60.94 31.18-3.91 3.48-9.84 2.17-13-1.59-16.13-12.38-38.75-16.26-57.5-7.37-16.31 7.26-28.6 21.09-37.97 36-14.23 24.56-15.77 57.83 1.81 81.12 32.74 44.92 80.64 75.78 123.33 110.8 1.56 0.52 4.72 5.49 4.92 2.08 12.48-33.5 33.2-63.43 58.58-88.48 17.35-18.38 38.04-34.96 49.24-58.15 11.76-29.05 1.53-64.42-20.92-85.59-12.76-12.08-29.81-20.18-47.55-20zm-8.03 17.25c36.2 0.39 66.39 34.09 65.72 69.81 0.59 17.8-9.65 33.31-21.72 45.45-21.91 22.47-47.08 42.91-62.66 70.71-5.69 9.27-10.21 19.53-14.28 29.5-4.25 2.71-7.62-4-11.13-5.39-36.43-28.32-76.99-53.65-104.93-91.08-17.51-23.23-12.58-57.85 6.06-78.94 15.78-21.4 46.54-33.4 71.22-20.16 4.94 1.61 8.4 6.22 13.25 7.63 5.9-1.11 8.46-7.96 13.56-10.81 12.6-10.26 28.41-16.97 44.91-16.72z"/>
            <path id="path4499" style="opacity: 0.1; fill: rgb(255, 31, 31);" d="m-240.05 324.43c-23.85-0.11-45.57 13.3-60.85 30.82-3.11 3.2-8.74 3.25-11.53-0.4-14.82-11.42-35.37-16.82-53.44-10.32-14.78 4.33-26.41 14.93-36 26.5-17.18 20.32-24.38 49.58-16.52 75.27 6.74 19.75 22.12 34.67 36.02 49.78 31.38 30.93 67.74 56.19 101.82 83.95 2.08 1.74 2.07-1.71 2.61-2.92 11.59-30.08 29.34-57.72 51.97-80.74 18.13-19.97 40.18-37.25 53.57-60.87 11.07-21.61 7.94-48.51-3.17-69.55-12.25-23.42-37.31-41.75-64.48-41.52zm-8 19.44c28.57 0.41 54.2 22.16 61.82 49.31 5.43 17.49 3.25 37.98-8.67 52.33-13.56 17.82-31.5 31.68-46.58 48.1-17.07 17.89-30.7 39.04-39.54 62.04 0.01 2.5-2.93 2.86-4.31 1.06-30.53-24-63.65-45.5-91.31-73.06-12.75-13.39-27.13-27.72-29.55-46.92-3.13-21.72 5.67-44.08 21.45-59.02 13.39-14.84 35-23.48 54.73-17.68 7.86 2.06 15.12 6.09 21.46 10.97 5.18 1.98 8.24-3.72 11.58-6.52 13.16-12.42 30.57-20.86 48.92-20.61z"/>
            <path id="path4504" style="opacity: 0.1; fill: rgb(255, 31, 31);" d="m-240.08 323.31c-24.06-0.11-46.14 13.42-61.57 31.12-2.79 2.85-7.56 2.8-10.04-0.39-15.14-11.7-36.05-17.2-54.49-10.58-14.68 4.31-26.55 14.78-36.08 26.33-18.12 21.07-25.58 51.79-16.67 78.42 7.21 19.34 22.44 34.26 36.28 49.16 31.34 30.76 67.55 55.97 101.5 83.59 1.86 1.81 4.12-0.31 3.88-2.46 11.61-30.6 29.54-58.45 52.49-81.79 18.19-19.8 39.91-37.09 53.38-60.68 11.4-22.32 8-49.93-3.65-71.53-12.74-23.4-37.75-41.39-65.03-41.19zm-7.97 21.69c26.66 0.39 50.86 19.75 59.43 44.5 6.79 18.09 5.53 40.06-7.16 55.33-13.87 18.18-32.32 32.36-47.68 49.26-16.96 18.05-30.53 39.63-39.22 62.69-3.5-1.33-6.21-4.67-9.44-6.71-28.5-21.93-58.65-42.05-84.13-67.6-12.61-13.26-26.77-27.47-28.88-46.45-2.88-21.2 5.74-42.87 21.07-57.41 12.89-14.31 33.31-22.79 52.43-17.86 8.37 1.97 16.03 6.25 22.67 11.28 4.5 1.95 8.43-1.98 11.06-5.14 13.22-13.06 30.92-22.17 49.85-21.89z"/>
            <path id="path4509" style="opacity: 0.1; fill: rgb(255, 31, 31);" d="m-240.08 322.21c-24.69-0.19-47.04 13.93-62.91 31.88-5.12 4.24-9.08-2.62-13.25-4.56-16.84-11.11-39.28-13.41-57.56-4.35-16.55 7.6-29.01 21.76-38.53 36.94-14.56 25.13-16.32 59.14 1.03 83.34 33.29 46.41 82.33 77.76 125.97 113.66 2.1 2.38 7.47 5.99 8.87 1.03 11.52-32.96 31.97-62.3 56.48-86.94 18.13-19.27 39.91-36.62 51.52-60.81 12.77-31.56 0.82-70.25-24.63-91.91-12.96-11.19-29.68-18.49-46.99-18.28zm-7.97 23.88c37.18 0.45 67.32 37.97 61.78 74.34-2.91 20.79-20.07 35.09-33.99 49.04-22.63 20.85-44.19 43.97-57.2 72.27-2.28 4.18-4.14 9.94-6.09 13.54-38.07-30.26-81.21-56.1-110.75-95.38-17.53-23.24-11.2-58.04 8.5-77.84 13.33-16.28 36.34-26.35 56.87-19.41 7.44 1.88 13.79 6.69 20.22 10.63 7.86 2.09 11.64-7.15 17.21-10.67 12.19-10.13 27.49-16.74 43.45-16.52z"/>
            <path id="path4514" style="opacity: 0.1; fill: rgb(255, 31, 31);" d="m-240.08 321.09c-25.04-0.23-47.78 14.25-63.94 32.37-4.66 3.1-7.66-3.45-11.63-4.87-17.16-11.33-40.05-13.64-58.62-4.41-16.73 7.67-29.42 22.03-39.03 37.41-14.78 25.51-16.52 59.94 1.09 84.5 33.36 46.59 82.49 77.92 126.22 113.94 2.46 2.69 8.19 6.25 10.34 1.15 11.58-33.51 32.49-63.32 57.35-88.09 17.94-19.02 39.4-36.24 50.87-60.28 13.09-32.33 0.65-71.89-25.72-93.85-13.01-10.93-29.73-18.08-46.93-17.87zm-7.97 26.12c33.31 0.36 61.5 31.58 61.28 64.44 0.9 16.58-8.66 31.33-19.88 42.66-22.29 22.96-47.91 43.72-63.9 72.15-5.11 8.71-9.62 17.77-13.35 27.13-37.44-29.57-79.43-55.09-108.75-93.25-16.28-20.68-13.08-51.49 2.6-71.63 11.02-14.57 27.28-26.88 46.22-27.18 12.48-0.3 24.37 5.29 34.12 12.59 8.01 3.17 12.88-6.08 18.13-9.97 12.06-10.34 27.51-17.18 43.53-16.94z"/>
            <path id="path4519" style="opacity: 0.1; fill: rgb(255, 31, 31);" d="m-239.21 319.96c-25.6-0.5-48.95 14.05-65.56 32.66-4.2 2.24-6.58-3.95-10.31-5-17.18-11.26-39.93-13.77-58.66-4.94-17.44 7.74-30.7 22.51-40.53 38.38-14.97 25.86-16.71 60.76 1.15 85.65 31.05 43.54 76.19 73.79 117.38 106.9 5.61 3.34 9.73 9.89 16.22 11.35 6.22-0.2 5.38-8.11 8.06-11.96 12.47-31 32.59-58.16 56.28-81.53 17.49-18.25 37.8-35.06 48.78-58.26 13.75-34.1-0.26-75.87-29.18-97.59-12.46-9.56-27.86-15.57-43.63-15.66zm-8.87 28.35c33.5 0.48 61.29 32.18 60.21 65.09 0.36 17.86-11.57 32.28-23.53 44.31-22.71 22.12-47.24 43.73-62.37 72.13-4.04 6.95-7.48 14.91-10.75 21.87-37.24-29.43-78.9-54.6-107.8-92.84-17.52-23.05-10.64-57.68 9.61-76.78 17.08-21.92 51.32-25.89 72.06-7.16 7.03 3.46 12.99-3 17.25-7.72 12.37-11.39 28.28-19.09 45.32-18.9z"/>
            <path id="path4524" style="opacity: 0.1; fill: rgb(255, 31, 31);" d="m-240.08 318.87c-25.51-0.23-48.74 14.29-65.35 32.84-3.3 1.5-5.25-3.82-8.37-4.57-17.56-11.82-41.03-14.61-60.41-5.46-17.9 7.94-31.62 23.26-41.54 39.73-14.71 26.11-16.2 60.97 1.73 85.96 31.35 43.91 76.84 74.31 118.38 107.74 5.7 3.23 9.83 10.45 16.74 10.98 7.03-1.18 6.12-10.14 9.41-14.94 12.62-30.34 32.47-56.65 55.79-79.61 17.4-18.05 37.45-34.81 48.33-57.92 14.07-34.85-0.49-77.6-30.32-99.48-12.72-9.5-28.4-15.45-44.39-15.27zm-7.97 30.56c34.61 0.47 62.81 35 58.72 68.88-2.06 20.29-19 34.48-32.52 48.09-22.34 20.59-43.82 43.2-57.14 70.91-2.12 4.18-4.09 8.45-5.88 12.78-36.53-28.74-77.51-54-106-91.03-14.83-18.8-12.83-46.65 0.35-65.85 11.24-16.43 29.42-30.82 50.18-29.33 10.99 0.5 21.03 5.96 29.72 12.27 7.75 3.4 14.01-3.79 18.72-8.79 11.96-10.8 27.54-18.2 43.85-17.93z"/>
          </g>
          <g id="g4722" transform="matrix(.22099 -.57367 .46498 .21828 -256.38 8.5527)">
            <g id="g4724" transform="translate(53.677 -18.379)">
              <path id="path4726" style="opacity: 0.1; fill: rgb(255, 31, 31);" d="m-140.97 130.12c-2.51 2.23-1.23 7.4-2.37 10.66-3.06 20.47-10.74 39.84-18.78 58.88 12.29-10.51 27.43-20.84 31.09-37.6 2.19-10.2 2.36-23.54-7.19-30.12-0.85-0.52-1.65-1.84-2.75-1.82z"/>
              <path id="path4728" style="opacity: 0.1; fill: rgb(255, 31, 31);" d="m-140.56 129c-4.58 0.2-2.26 7.11-3.69 10.06-2.84 22.15-11.98 43.33-20.16 63.5 9.95-7.49 19.81-15.42 27.63-25.18 7.77-11.28 11.02-27.05 5.12-39.82-2.25-3.31-5.38-6.79-8.9-8.56z"/>
              <path id="path4730" style="opacity: 0.1; fill: rgb(255, 31, 31);" d="m-141.06 127.91c-5.27 0.27-2.78 7.71-4.28 11-2.81 22.68-12.52 43.69-20.5 64.81 4.49 0.12 7.77-5.43 11.46-7.6 11.09-9.15 22.78-19.48 25.72-34.31 2.11-10.85 1.93-24.4-8.03-31.53-1.23-0.81-2.67-2.66-4.37-2.37z"/>
              <path id="path4732" style="opacity: 0.1; fill: rgb(255, 31, 31);" d="m-141.25 126.81c-6.47 0.5-3.67 9.37-5.37 13.47-3.13 22.03-12.41 42.52-20.35 63.1-0.11 3.23 4.92 0.97 5.94-0.35 12.33-10.6 27.41-20.62 32.28-36.87 2.95-10.17 4.05-22.81-2.44-31.82-2.76-2.66-5.82-7.58-10.06-7.53z"/>
              <path id="path4734" style="opacity: 0.1; fill: rgb(255, 31, 31);" d="m-141.44 125.72c-2.86 0.06-5.07 2.17-5 5.06-1.91 19.07-7.63 37.52-14.83 55.24-1.98 6.04-5.72 11.6-6.82 17.89 0.28 3.32 5.16 2.39 6.84 0.59 8.98-7.02 17.86-14.43 25.49-22.91 8.43-10.63 12.1-24.72 9.62-38.25-0.99-7.51-6.73-13.78-13.11-17.46-0.7-0.22-1.46-0.3-2.19-0.16z"/>
              <path id="path4736" style="opacity: 0.1; fill: rgb(255, 31, 31);" d="m-141.59 124.59c-3.05 0.25-5.79 2.25-5.84 5.52-1.53 11.7-3.49 23.43-7.35 34.7-3.91 12.81-9.49 24.96-14.2 37.42-1.21 2.79 1.31 5.5 4.17 5.02 5.38-1.22 9.11-6.12 13.43-9.32 9.1-7.91 18.98-15.81 23.36-27.4 4.31-10.2 5.08-22.14 1.49-32.69-2.54-5.51-7.17-10.32-12.59-13.09-0.81-0.21-1.64-0.3-2.47-0.16z"/>
              <path id="path4738" style="opacity: 0.1; fill: rgb(255, 31, 31);" d="m-141.72 123.5c-5.68 0.02-7.35 5.8-7.46 10.46-2.28 23.94-12.32 46.09-20.94 68.29-1.87 5.51 5.87 7.97 9.37 4.59 10.4-8.19 21.37-16.48 29.16-27.25 8.36-12.57 11.38-29.73 5.21-44-3.34-5.05-7.78-10.89-14.03-12.15-0.43 0.01-0.88-0.03-1.31 0.06z"/>
              <path id="path4740" style="opacity: 0.1; fill: rgb(255, 31, 31);" d="m-141.28 122.34c-5.74-0.12-9.02 5.2-8.84 10.47-2.23 24.25-12.31 46.68-21.1 69.16-2.02 5.98 5.89 9.66 10.34 6.28 10.62-7.94 21.16-16.46 29.44-26.87 9.22-13.18 12.59-31.36 6.03-46.35-3.57-5.27-8.91-12.53-15.87-12.69z"/>
              <path id="path4742" style="opacity: 0.1; fill: rgb(255, 31, 31);" d="m-141.97 121.28c-5.98 0.21-9.36 5.84-9.25 11.38-2.23 24.26-12.36 46.67-21.09 69.09-2.12 6.37 5.8 11.09 11.09 7.91 10.57-6.92 19.86-15.79 28.63-24.88 11.01-13.72 15.36-33.78 8.18-50.25-3.72-5.69-8.91-12.25-16-13.31-0.52 0.01-1.04-0.04-1.56 0.06z"/>
              <path id="path4744" style="opacity: 0.1; fill: rgb(255, 31, 31);" d="m-141.53 120.12c-5.99 0.1-10.57 5.1-10.63 11-2.11 24.31-11.95 47.08-21 69.47-2.82 6.55 4.26 13.06 10.66 10.75 10.27-4.92 17.93-13.99 26.53-21.31 14.4-13.82 20.53-36.7 12.85-55.41-3.81-6.24-10.36-14.62-18.41-14.5z"/>
            </g>
            <path id="path4746" style="stroke-linejoin: round; stroke-opacity: 0.37705; fill-opacity: 0.93989; stroke: rgb(255, 255, 254); stroke-linecap: round; stroke-width: 5; fill: rgb(255, 31, 31);" d="m-89.636 162.04c5.557-5.65 6.914-7.33 8.555-10.6 2.64-5.26 3.642-9.97 3.385-15.89-0.235-5.39-1.177-7.99-4.047-11.16-2.479-2.73-3.356-3.15-5.108-2.42-1.594 0.65-1.639 0.8-2.362 7.45-0.976 8.98-4.019 20.08-9.588 34.97-1.153 3.09-0.792 4.35 1.246 4.36 1.055 0.01 2.618-1.32 7.919-6.71z"/>
          </g>
        </g>
      </g>
    </pattern>
    <pattern id="pattern-0-0" patternTransform="matrix(1, 0, 0, 1, 237.320496, 861.622498)" xlink:href="#pattern-0"/>
  </defs>
  <polygon id="e1_polygon" style="stroke-width: 0px; stroke: none; fill: url(#pattern-0-0);" points="212.268 789.833 204.708 818.7 209.519 957.536 230.138 960.285 253.506 958.911 268.627 958.224 289.933 955.474 287.872 862 287.184 817.326 284.435 800.143 280.999 793.957 276.187 792.583 278.249 782.96 241.822 784.335" class="clothes"/>
</svg>