<?xml version="1.0" encoding="utf-8"?>
<svg width="86" height="380" viewBox="202.715 584.407 86.5933 380.048" preserveAspectRatio="xMidYMid meet" xmlns="http://www.w3.org/2000/svg">
  <defs id="svgEditorDefs">
    <path id="svgEditorClosePathDefs" class="skin" fill="black" style="stroke-width: 0px; stroke: none;"/>
  </defs>
  <g transform="matrix(0.064261, 0, 0, 0.064261, 228.05304, 676.008362)">
    <g id="layer1" transform="translate(-164.33 -85.14)">
      <path id="path1427" style="fill:#000000" d="m460.75 593.17c-1.91-0.97-22.82-18.41-46.47-38.75-23.66-20.34-43.81-37.62-44.78-38.38-1.57-1.24-2.27-1.05-5.99 1.62-37.9 27.1-76.55 47.71-118.38 63.1-22.28 8.2-32.92 9.7-35.44 5-2.01-3.77 0.35-6.43 9.99-11.27 36.78-18.47 81.84-49.79 111.74-77.67l5.14-4.79-7.4-5.12c-4.08-2.82-13.76-8.91-21.53-13.53-13.83-8.25-14.16-8.38-16.38-6.68-1.24 0.95-8.27 6.92-15.61 13.27-24.62 21.27-35.17 29.12-67.87 50.48-12.61 8.23-16.81 10.48-19.54 10.48-2.72 0-3.73-0.53-4.59-2.42-0.61-1.34-0.84-3.48-0.52-4.76 0.32-1.29 7.47-8.71 15.88-16.5 44.81-41.48 76.95-78.61 89.02-102.82 6.92-13.88 7.52-17.56 5.18-31.65-0.49-2.92-0.18-4.08 1.56-5.82 1.82-1.82 2.87-2.07 6.35-1.52 5 0.78 15.84 5.62 20.39 9.09 4.41 3.36 13.89 15.22 15.77 19.71 2.08 4.99 1.92 6.82-1.02 11.15l-2.54 3.74 5.29-0.69c18.2-2.37 48.75-10.34 62-16.16 6.1-2.68 9.02-3.44 11.77-3.08 4.67 0.63 30.8 12.71 38.02 17.57 4.5 3.04 5.55 4.29 5.81 6.92 0.29 2.98-1.02 4.54-17.58 20.98-9.83 9.77-24.69 24.8-33.01 33.39l-15.13 15.63 12.2 6.53c39.22 20.96 95.62 42.65 167.12 64.26 15.35 4.64 28.73 9.18 29.75 10.1 1.01 0.91 1.84 2.71 1.84 3.98 0 5.01-2.17 5.36-68 11.02-33.83 2.91-63.32 5.3-65.54 5.32s-5.6-0.76-7.5-1.73zm-99.4-125.99c13.86-15.64 30.35-37.46 28.71-37.98-0.43-0.13-17.32 2.82-37.55 6.56l-36.78 6.81-4.97 4.89c-2.74 2.7-4.97 5.19-4.97 5.56 0 1.51 44.27 20.73 48.04 20.86 0.85 0.03 4.24-2.98 7.52-6.7zm-136.81-68.23c-6.57-5.16-11.21-31.56-7.39-42.02 0.7-1.92 4.17-7.77 7.71-12.98 3.53-5.22 10.25-17.15 14.93-26.5l8.5-17.02 3.77-0.31c3.53-0.29 3.88-0.06 5.39 3.5 1.37 3.25 1.51 6.54 0.96 22.15-1.48 41.85-8.28 65.16-21.21 72.76-4.97 2.92-9.3 3.07-12.66 0.42zm164.25-11.02c-59.17-5.36-97.92-26.21-116.39-62.61-4.1-8.08-4.49-11.51-1.61-14.39 3.86-3.86 7.41-2.38 13.25 5.5 5.32 7.18 14.56 16.1 20.7 19.97 15.36 9.7 40.06 15.29 77.88 17.65 20.95 1.3 31.62 0.86 33.89-1.41 1.45-1.46 1-2.87-5.23-16.4-5.39-11.71-6.84-15.85-6.91-19.81-0.08-4.95-0.05-5 3.24-5.32 3.02-0.28 4.27 0.6 13.5 9.55 23 22.3 31 28.44 48.29 37.1 4.46 2.23 9.35 5.53 10.85 7.32 2.36 2.8 2.68 3.9 2.24 7.78-1.28 11.36-14.25 14.82-58.2 15.52-14.3 0.23-30.28 0.03-35.5-0.45zm-215.71-29.25c-5.18-5.66-8.67-18.55-8.74-32.32-0.05-8.72 0.09-9.3 3.58-15 10.8-17.61 14.63-29.14 15.56-46.77 0.58-11.1 0.77-11.91 2.92-12.89 3.64-1.66 6.64 1.11 11.52 10.68l4.37 8.54h7c3.85 0 13.97-1.36 22.5-3.02 25.54-4.96 56.68-10.61 110.45-20.02 28.34-4.97 51.49-9.49 52.15-10.19 1.28-1.34 29.82-56.07 33.99-65.18 2.32-5.08 2.41-5.86 1.37-11.86-0.92-5.31-0.86-7.04 0.39-10.03 1.9-4.54 4.29-5.2 13.82-3.76 9.69 1.46 20.34 6.71 27.22 13.43 8.2 8 10.98 14.93 8.98 22.39-0.48 1.78-33.01 31.48-54.91 50.13-2.18 1.86-3.15 3.1-2.16 2.76s9.09-1.76 18-3.17c37.14-5.84 62.68-10.7 70.72-13.45 12.01-4.12 15.94-4.6 20.07-2.49 9.21 4.7 47.44 33.61 50.92 38.5 3.18 4.46 3.4 7.38 0.8 10.4-2.15 2.5-3.18 2.78-13.32 3.66-6.05 0.52-11.88 1.23-12.96 1.57s-14.13 6.97-29 14.73l-27.03 14.11 6.12 6.28c20.1 20.6 20.44 50.92 0.55 48.89-6.5-0.66-13.64-6.11-31.67-24.19-16.88-16.92-29.56-28.49-44.46-40.55-9.27-7.51-11.07-9.98-9.05-12.43 3.46-4.15 14.55-2.29 44.1 7.41 14.48 4.75 14.62 4.78 17.14 2.94 3.64-2.65 12.39-13.66 20.6-25.92 8.13-12.14 9.83-15.74 7.8-16.51-1.53-0.59-84.62 11.17-149.13 21.1-37.13 5.71-144.03 23.2-153.12 25.05l-3.11 0.63-0.69 9.12c-2.01 26.67-10.5 52.61-18.88 57.72-4.58 2.79-11.73 2.65-14.41-0.29zm181.21-20.87c-16.54-10.57-35-27.03-38.84-34.61-2.08-4.11-2.84-9.68-1.72-12.62 1.69-4.46 5.16-4.41 14.9 0.23 4.78 2.27 10.03 4.12 11.67 4.11s7.26-0.92 12.49-2.03c26.09-5.56 28.47-5.74 29.22-2.21 0.21 0.97-0.66 5.58-1.93 10.25-1.26 4.68-2.74 13.15-3.28 18.83-1.23 12.93-2.51 17.76-5.54 20.79-3.8 3.8-7.76 3.16-16.97-2.74zm-87-82.35c-5-2.03-7.76-4.25-16.5-13.29-16.56-17.12-30.29-37.72-30.43-45.65-0.06-3.54 0.23-4.13 2.25-4.42 1.28-0.18 9.38 2.48 18 5.91 24.97 9.93 31.21 13.06 35.55 17.9 10.4 11.56 14.7 34.49 7.57 40.27-3.03 2.45-9.28 2.18-16.44-0.72zm85.11-14.96c-6.19-2.27-13.88-8.09-22.32-16.9-13.07-13.64-26.69-36.27-26.11-43.38 0.3-3.58 0.52-3.8 4.04-4.1 4.27-0.35 21.97 5.64 36.28 12.29 10.47 4.86 15.15 9.41 19.72 19.19 5.06 10.82 5.02 27.09-0.08 31.7-2.6 2.35-7.1 2.82-11.53 1.2zm-124.36-56.6c-1.74-0.7-2.25-1.71-2.25-4.43 0-4.71 2.17-6.67 11.1-10.04 31.29-11.77 58.69-22.58 77.4-30.52 23.1-9.81 59.5-27.58 68-33.19l5-3.3 0.5-7.327c0.58-8.592 2.26-10.653 7.94-9.762 8.14 1.276 24.66 16.339 35.48 32.359 5.51 8.16 6.59 10.42 6.58 13.92-0.01 5.16-2.67 7.58-10.27 9.35-2.88 0.67-11.98 3.16-20.23 5.55-45.4 13.1-91.19 23.67-146.77 33.88-25.64 4.7-28.7 5.03-32.48 3.51z"/>
      <text id="text1429" y="714.79138" x="302.74832" style="font-size: 42.22px; font-family: &quot;Bitstream Vera Sans&quot;; fill: rgb(0, 0, 0); white-space: pre;">       <tspan id="tspan1431" x="302.74832" y="714.79138">LOVE</tspan>     </text>
    </g>
  </g>
</svg>