<?xml version="1.0" encoding="utf-8"?>
<svg width="86" height="380" viewBox="202.715 584.407 86.5933 380.048" preserveAspectRatio="xMidYMid meet" xmlns="http://www.w3.org/2000/svg">
  <defs id="svgEditorDefs">
    <path id="svgEditorClosePathDefs" class="skin" fill="black" style="stroke-width: 0px; stroke: none;"/>
  </defs>
  <g transform="matrix(0.088103, 0.047262, -0.066879, 0.124671, 221.817856, 660.517822)">
    <g id="layer1" transform="translate(-128.6875,-718.03125)">
      <path style="fill-opacity: 1; stroke: none; fill: rgb(255, 9, 214);" d="m 128.6875,803.0625 0,-85.03125 601.40625,0 0,85.03125 c -9.48684,0 -17.62648,-5.74516 -21.15625,-13.9375 -8.28945,3.29843 -18.1036,1.584 -24.8125,-5.125 -1.70379,-1.70377 -3.09787,-3.59607 -4.15625,-5.625 -1.05837,2.02893 -2.42121,3.92123 -4.125,5.625 -6.70901,6.709 -16.55434,8.42343 -24.84375,5.125 -3.52982,8.19234 -11.66942,13.9375 -21.15625,13.9375 -9.48684,0 -17.62648,-5.74516 -21.15625,-13.9375 -8.28945,3.29843 -18.1036,1.584 -24.8125,-5.125 -1.70379,-1.70377 -3.06662,-3.59607 -4.125,-5.625 -1.05838,2.02893 -2.45246,3.92123 -4.15625,5.625 -6.70902,6.709 -16.52305,8.42343 -24.8125,5.125 -3.52976,8.19234 -11.66942,13.9375 -21.15625,13.9375 -9.48682,0 -17.6265,-5.74516 -21.15625,-13.9375 -8.28942,3.29843 -18.10361,1.584 -24.8125,-5.125 -1.7038,-1.70377 -3.09787,-3.59607 -4.15625,-5.625 -1.05837,2.02893 -2.42121,3.92123 -4.125,5.625 -6.70906,6.709 -16.52303,8.42343 -24.8125,5.125 -3.52975,8.19234 -11.66937,13.9375 -21.15625,13.9375 -9.48682,0 -17.65774,-5.74516 -21.1875,-13.9375 -8.28947,3.29843 -18.10362,1.584 -24.8125,-5.125 -1.70379,-1.70377 -3.06663,-3.59607 -4.125,-5.625 -1.05837,2.02893 -2.45246,3.92123 -4.15625,5.625 -6.70901,6.709 -16.52308,8.42343 -24.8125,5.125 -3.52981,8.19234 -11.66943,13.9375 -21.15625,13.9375 -9.48682,0 -17.6265,-5.74516 -21.15625,-13.9375 -8.28941,3.29843 -18.10362,1.584 -24.8125,-5.125 -1.70379,-1.70377 -3.09788,-3.59607 -4.15625,-5.625 -1.05832,2.02865 -2.42142,3.92144 -4.125,5.625 -6.70907,6.709 -16.52302,8.42343 -24.8125,5.125 -3.52975,8.19234 -11.66943,13.9375 -21.15625,13.9375 -9.48689,0 -17.6265,-5.74516 -21.15625,-13.9375 -8.28947,3.29843 -18.13481,1.584 -24.84375,-5.125 -1.70379,-1.70377 -3.06663,-3.59607 -4.125,-5.625 -1.05837,2.02893 -2.42121,3.92123 -4.125,5.625 -6.70901,6.709 -16.55434,8.42343 -24.84375,5.125 -3.52981,8.19234 -11.66942,13.9375 -21.15625,13.9375 z m 0,-13.78125 c 5.11121,0 9.28125,-4.13867 9.28125,-9.25 0,-5.1113 -9.28125,-17.6875 -9.28125,-17.6875 z m 100.25,0 c 5.1112,0 9.25,-4.13867 9.25,-9.25 0,-5.1113 -9.25,-17.6875 -9.25,-17.6875 0,0 -9.25,12.5762 -9.25,17.6875 0,5.11133 4.13861,9.25 9.25,9.25 z m 100.21875,0 c 5.11127,0 9.25,-4.13867 9.25,-9.25 0,-5.1113 -9.25,-17.6875 -9.25,-17.6875 0,0 -9.25,12.5762 -9.25,17.6875 0,5.11133 4.13861,9.25 9.25,9.25 z m 100.25,0 c 5.11127,0 9.25,-4.13867 9.25,-9.25 0,-5.1113 -9.25,-17.6875 -9.25,-17.6875 0,0 -9.28125,12.5762 -9.28125,17.6875 0,5.11133 4.16992,9.25 9.28125,9.25 z m 100.21875,0 c 5.11124,0 9.25,-4.13867 9.25,-9.25 0,-5.1113 -9.25,-17.6875 -9.25,-17.6875 0,0 -9.25,12.5762 -9.25,17.6875 0,5.11133 4.13861,9.25 9.25,9.25 z m 100.21875,0 c 5.11124,0 9.28125,-4.13867 9.28125,-9.25 0,-5.1113 -9.28125,-17.6875 -9.28125,-17.6875 0,0 -9.25,12.5762 -9.25,17.6875 0,5.11133 4.13863,9.25 9.25,9.25 z m 100.25,0 0,-26.9375 c 0,0 -9.25,12.5762 -9.25,17.6875 0,5.11133 4.13863,9.25 9.25,9.25 z M 158.375,776.96875 c 2.36848,0 4.75526,-0.91162 6.5625,-2.71875 3.61425,-3.6142 3.61425,-9.44825 0,-13.0625 -3.6143,-3.61424 -19.0625,-5.96875 -19.0625,-5.96875 0,0 2.35444,15.41699 5.96875,19.03125 1.80718,1.80712 4.16271,2.71875 6.53125,2.71875 z m 40.875,0 c 2.36861,0 4.72407,-0.91163 6.53125,-2.71875 3.61418,-3.61426 5.96875,-19.03125 5.96875,-19.03125 0,0 -15.44826,2.35451 -19.0625,5.96875 -3.61431,3.61425 -3.61431,9.4483 0,13.0625 1.80706,1.80713 4.19408,2.71875 6.5625,2.71875 z m 59.375,0 c 2.36843,0 4.72406,-0.91162 6.53125,-2.71875 3.6143,-3.6142 3.6143,-9.44825 0,-13.0625 -3.61425,-3.61424 -19.03125,-5.96875 -19.03125,-5.96875 0,0 2.3232,15.41699 5.9375,19.03125 1.80719,1.80712 4.1939,2.71875 6.5625,2.71875 z m 40.84375,0 c 2.36861,0 4.72401,-0.91163 6.53125,-2.71875 3.61413,-3.61426 5.96875,-19.03125 5.96875,-19.03125 0,0 -15.41694,2.35451 -19.03125,5.96875 -3.61424,3.61425 -3.61424,9.4483 0,13.0625 1.80706,1.80713 4.16283,2.71875 6.53125,2.71875 z m 59.375,0 c 2.36848,0 4.75525,-0.91162 6.5625,-2.71875 3.61424,-3.6142 3.61424,-9.44825 0,-13.0625 -3.61431,-3.61424 -19.0625,-5.96875 -19.0625,-5.96875 0,0 2.35451,15.41699 5.96875,19.03125 1.80719,1.80712 4.1627,2.71875 6.53125,2.71875 z m 40.84375,0 c 2.36855,0 4.75532,-0.91163 6.5625,-2.71875 3.61419,-3.61426 5.96875,-19.03125 5.96875,-19.03125 0,0 -15.44825,2.35451 -19.0625,5.96875 -3.6143,3.61425 -3.6143,9.4483 0,13.0625 1.80707,1.80713 4.16277,2.71875 6.53125,2.71875 z m 59.40625,0 c 2.36842,0 4.72407,-0.91162 6.53125,-2.71875 3.61431,-3.6142 3.61431,-9.44825 0,-13.0625 -3.61424,-3.61424 -19.03125,-5.96875 -19.03125,-5.96875 0,0 2.32319,15.41699 5.9375,19.03125 1.80718,1.80712 4.19389,2.71875 6.5625,2.71875 z m 40.84375,0 c 2.36861,0 4.724,-0.91163 6.53125,-2.71875 3.61412,-3.61426 5.96875,-19.03125 5.96875,-19.03125 0,0 -15.4482,2.35451 -19.0625,5.96875 -3.61425,3.61425 -3.61425,9.4483 0,13.0625 1.80706,1.80713 4.19408,2.71875 6.5625,2.71875 z m 59.375,0 c 2.36845,0 4.72405,-0.91162 6.53125,-2.71875 3.61428,-3.6142 3.61428,-9.44825 0,-13.0625 -3.61427,-3.61424 -19.03125,-5.96875 -19.03125,-5.96875 0,0 2.35447,15.41699 5.96875,19.03125 1.8072,1.80712 4.16267,2.71875 6.53125,2.71875 z m 40.84375,0 c 2.36859,0 4.7553,-0.91163 6.5625,-2.71875 3.61414,-3.61426 5.9375,-19.03125 5.9375,-19.03125 0,0 -15.41697,2.35451 -19.03125,5.96875 -3.61427,3.61425 -3.61427,9.4483 0,13.0625 1.80707,1.80713 4.1628,2.71875 6.53125,2.71875 z m 59.375,0 c 2.36848,0 4.75525,-0.91162 6.5625,-2.71875 3.61424,-3.6142 3.61424,-9.44825 0,-13.0625 -3.61431,-3.61424 -19.0625,-5.96875 -19.0625,-5.96875 0,0 2.35445,15.41699 5.96875,19.03125 1.80719,1.80712 4.1627,2.71875 6.53125,2.71875 z m 40.875,0 c 2.36859,0 4.72405,-0.91163 6.53125,-2.71875 3.61414,-3.61426 5.96875,-19.03125 5.96875,-19.03125 0,0 -15.44822,2.35451 -19.0625,5.96875 -3.61427,3.61425 -3.61427,9.4483 0,13.0625 1.80707,1.80713 4.19405,2.71875 6.5625,2.71875 z" id="path4818"/>
    </g>
  </g>
  <g transform="matrix(0.117757, 0.049294, -0.05463, 0.130504, 211.842499, 779.157959)">
    <g id="g-1" transform="translate(-128.6875,-718.03125)">
      <path style="fill-opacity: 1; stroke: none; fill: rgb(255, 9, 214);" d="M 128.688 803.063 L 128.688 718.031 L 727.824 690.661 C 730.479 655.067 731.134 789.12 730.094 803.063 C 720.607 803.063 712.467 797.317 708.938 789.125 C 700.648 792.423 690.834 790.709 684.125 784 C 682.421 782.296 681.027 780.404 679.969 778.375 C 678.91 780.404 677.548 782.296 675.844 784 C 669.135 790.709 659.289 792.423 651 789.125 C 647.47 797.317 639.331 803.063 629.844 803.063 C 620.357 803.063 612.217 797.317 608.688 789.125 C 600.398 792.423 590.584 790.709 583.875 784 C 582.171 782.296 580.808 780.404 579.75 778.375 C 578.692 780.404 577.298 782.296 575.594 784 C 568.885 790.709 559.071 792.423 550.781 789.125 C 547.251 797.317 539.112 803.063 529.625 803.063 C 520.138 803.063 511.999 797.317 508.469 789.125 C 500.179 792.423 490.365 790.709 483.656 784 C 481.952 782.296 480.558 780.404 479.5 778.375 C 478.442 780.404 477.079 782.296 475.375 784 C 468.666 790.709 458.852 792.423 450.563 789.125 C 447.033 797.317 438.893 803.063 429.406 803.063 C 419.919 803.063 411.749 797.317 408.219 789.125 C 399.929 792.423 390.115 790.709 383.406 784 C 381.702 782.296 380.34 780.404 379.281 778.375 C 378.223 780.404 376.829 782.296 375.125 784 C 368.416 790.709 358.602 792.423 350.313 789.125 C 346.783 797.317 338.643 803.063 329.156 803.063 C 319.669 803.063 311.53 797.317 308 789.125 C 299.711 792.423 289.896 790.709 283.188 784 C 281.484 782.296 280.09 780.404 279.031 778.375 C 277.973 780.404 276.61 782.296 274.906 784 C 268.197 790.709 258.383 792.423 250.094 789.125 C 246.564 797.317 238.424 803.063 228.938 803.063 C 219.451 803.063 211.311 797.317 207.781 789.125 C 199.492 792.423 189.646 790.709 182.938 784 C 181.234 782.296 179.871 780.404 178.813 778.375 C 177.754 780.404 176.391 782.296 174.688 784 C 167.978 790.709 158.133 792.423 149.844 789.125 C 146.314 797.317 138.174 803.063 128.688 803.063 Z M 128.688 789.281 C 133.799 789.281 137.969 785.143 137.969 780.031 C 137.969 774.92 128.688 762.344 128.688 762.344 L 128.688 789.281 Z M 228.938 789.281 C 234.049 789.281 238.188 785.143 238.188 780.031 C 238.188 774.92 228.938 762.344 228.938 762.344 C 228.938 762.344 219.688 774.92 219.688 780.031 C 219.688 785.143 223.826 789.281 228.938 789.281 Z M 329.156 789.281 C 334.268 789.281 338.406 785.143 338.406 780.031 C 338.406 774.92 329.156 762.344 329.156 762.344 C 329.156 762.344 319.906 774.92 319.906 780.031 C 319.906 785.143 324.045 789.281 329.156 789.281 Z M 429.406 789.281 C 434.518 789.281 438.656 785.143 438.656 780.031 C 438.656 774.92 429.406 762.344 429.406 762.344 C 429.406 762.344 420.125 774.92 420.125 780.031 C 420.125 785.143 424.295 789.281 429.406 789.281 Z M 529.625 789.281 C 534.736 789.281 538.875 785.143 538.875 780.031 C 538.875 774.92 529.625 762.344 529.625 762.344 C 529.625 762.344 520.375 774.92 520.375 780.031 C 520.375 785.143 524.514 789.281 529.625 789.281 Z M 629.844 789.281 C 634.955 789.281 639.125 785.143 639.125 780.031 C 639.125 774.92 629.844 762.344 629.844 762.344 C 629.844 762.344 620.594 774.92 620.594 780.031 C 620.594 785.143 624.732 789.281 629.844 789.281 Z M 730.094 789.281 L 730.094 762.344 C 730.094 762.344 720.844 774.92 720.844 780.031 C 720.844 785.143 724.982 789.281 730.094 789.281 Z M 158.375 776.969 C 160.743 776.969 163.13 776.057 164.938 774.25 C 168.552 770.636 168.552 764.802 164.938 761.188 C 161.323 757.573 145.875 755.219 145.875 755.219 C 145.875 755.219 148.229 770.636 151.844 774.25 C 153.651 776.057 156.006 776.969 158.375 776.969 Z M 199.25 776.969 C 201.619 776.969 203.974 776.057 205.781 774.25 C 209.395 770.636 211.75 755.219 211.75 755.219 C 211.75 755.219 196.302 757.573 192.688 761.188 C 189.073 764.802 189.073 770.636 192.688 774.25 C 194.495 776.057 196.882 776.969 199.25 776.969 Z M 258.625 776.969 C 260.993 776.969 263.349 776.057 265.156 774.25 C 268.771 770.636 268.771 764.802 265.156 761.188 C 261.542 757.573 246.125 755.219 246.125 755.219 C 246.125 755.219 248.448 770.636 252.063 774.25 C 253.87 776.057 256.256 776.969 258.625 776.969 Z M 299.469 776.969 C 301.837 776.969 304.193 776.057 306 774.25 C 309.614 770.636 311.969 755.219 311.969 755.219 C 311.969 755.219 296.552 757.573 292.938 761.188 C 289.323 764.802 289.323 770.636 292.938 774.25 C 294.745 776.057 297.1 776.969 299.469 776.969 Z M 358.844 776.969 C 361.212 776.969 363.599 776.057 365.406 774.25 C 369.02 770.636 369.02 764.802 365.406 761.188 C 361.792 757.573 346.344 755.219 346.344 755.219 C 346.344 755.219 348.698 770.636 352.313 774.25 C 354.12 776.057 356.475 776.969 358.844 776.969 Z M 399.688 776.969 C 402.056 776.969 404.443 776.057 406.25 774.25 C 409.864 770.636 412.219 755.219 412.219 755.219 C 412.219 755.219 396.771 757.573 393.156 761.188 C 389.542 764.802 389.542 770.636 393.156 774.25 C 394.963 776.057 397.319 776.969 399.688 776.969 Z M 459.094 776.969 C 461.462 776.969 463.818 776.057 465.625 774.25 C 469.239 770.636 469.239 764.802 465.625 761.188 C 462.011 757.573 446.594 755.219 446.594 755.219 C 446.594 755.219 448.917 770.636 452.531 774.25 C 454.338 776.057 456.725 776.969 459.094 776.969 Z M 499.938 776.969 C 502.306 776.969 504.662 776.057 506.469 774.25 C 510.083 770.636 512.438 755.219 512.438 755.219 C 512.438 755.219 496.989 757.573 493.375 761.188 C 489.761 764.802 489.761 770.636 493.375 774.25 C 495.182 776.057 497.569 776.969 499.938 776.969 Z M 559.313 776.969 C 561.681 776.969 564.037 776.057 565.844 774.25 C 569.458 770.636 569.458 764.802 565.844 761.188 C 562.229 757.573 546.813 755.219 546.813 755.219 C 546.813 755.219 549.167 770.636 552.781 774.25 C 554.588 776.057 556.944 776.969 559.313 776.969 Z M 600.156 776.969 C 602.525 776.969 604.912 776.057 606.719 774.25 C 610.333 770.636 612.656 755.219 612.656 755.219 C 612.656 755.219 597.239 757.573 593.625 761.188 C 590.011 764.802 590.011 770.636 593.625 774.25 C 595.432 776.057 597.788 776.969 600.156 776.969 Z M 659.531 776.969 C 661.9 776.969 664.287 776.057 666.094 774.25 C 669.708 770.636 669.708 764.802 666.094 761.188 C 662.479 757.573 647.031 755.219 647.031 755.219 C 647.031 755.219 649.386 770.636 653 774.25 C 654.807 776.057 657.163 776.969 659.531 776.969 Z M 700.406 776.969 C 702.775 776.969 705.13 776.057 706.938 774.25 C 710.552 770.636 712.906 755.219 712.906 755.219 C 712.906 755.219 697.458 757.573 693.844 761.188 C 690.229 764.802 690.229 770.636 693.844 774.25 C 695.651 776.057 698.038 776.969 700.406 776.969 Z" id="path-2"/>
    </g>
  </g>
</svg>