<svg class="necklaces" width="86" height="380" viewBox="202.715 584.407 86.593 380.048" xmlns="http://www.w3.org/2000/svg" xmlns:bx="https://boxy-svg.com"><defs><radialGradient id="a" gradientUnits="userSpaceOnUse" cy="444.25" cx="163.5" gradientTransform="matrix(.28632 1.156 -1.486 .36805 774.6 91.108)" r="8.276"><stop offset="0" stop-color="#fff"/><stop offset=".5" stop-color="#ccc"/><stop offset="1" stop-color="#4d4d4d"/></radialGradient></defs><g transform="matrix(.1929 -.11676 .0997 .19613 164.363 608.257)" bx:origin="0.553 0.505" fill="url(#a)"><path d="M215.413 445.12a8.276 8.276 0 1 1-16.552 0 8.276 8.276 0 0 1 16.552 0zM228.984 433.487a8.276 8.276 0 1 1-16.552 0 8.276 8.276 0 0 1 16.552 0zM240.617 419.916a8.276 8.276 0 1 1-16.552 0 8.276 8.276 0 0 1 16.552 0zM252.25 406.344a8.276 8.276 0 1 1-16.552 0 8.276 8.276 0 0 1 16.552 0zM263.882 392.773a8.276 8.276 0 1 1-16.552 0 8.276 8.276 0 0 1 16.552 0zM199.903 452.875a8.276 8.276 0 1 1-16.552 0 8.276 8.276 0 0 1 16.552 0zM178.576 395.236a8.276 8.276 0 1 1-16.552 0 8.276 8.276 0 0 1 16.552 0zM184.393 377.263a8.276 8.276 0 1 1-16.552 0 8.276 8.276 0 0 1 16.552 0zM196.025 363.691a8.276 8.276 0 1 1-16.552 0 8.276 8.276 0 0 1 16.552 0zM182.454 448.998a8.276 8.276 0 1 1-16.552 0 8.276 8.276 0 0 1 16.552 0zM178.576 431.549a8.276 8.276 0 1 1-16.552 0 8.276 8.276 0 0 1 16.552 0zM176.638 414.1a8.276 8.276 0 1 1-16.552 0 8.276 8.276 0 0 1 16.552 0z"/></g></svg>