<svg id="necklace6" class="necklaces" width="86" height="380" viewBox="202.715 584.407 86.5933 380.048" preserveAspectRatio="xMidYMid meet" xmlns="http://www.w3.org/2000/svg" xmlns:bx="https://boxy-svg.com"> <defs id="svgEditorDefs"> <path id="svgEditorClosePathDefs" class="lines" fill="black" style="stroke-width: 0px; stroke: none;"/> <radialGradient id="radialGradient4188" gradientUnits="userSpaceOnUse" cy="444.25" cx="163.5" gradientTransform="matrix(.28632 1.156 -1.486 .36805 774.6 91.108)" r="8.2759"> <stop id="stop4158" style="stop-color:#ffffff" offset="0"/> <stop id="stop4164" style="stop-color:#cccccc" offset="0.5"/> <stop id="stop4160" style="stop-color:#4d4d4d" offset="1"/> </radialGradient> </defs> <g transform="matrix(0.231884, -0.00044, 0.051205, 0.20182, 508.448151, 535.154236)"> <g id="layer1" transform="matrix(1, 0, 0, 1, -70.120003, -52.068001)"> <g id="g4386" transform="translate(-489.06 19.64)"/> <g id="g5730" transform="matrix(0.959193, -0.576446, 0.215213, 0.972293, -1492.980835, 410.877686)" bx:origin="0.553 0.505"> <path id="path4154" style="fill:url(#radialGradient4188)" d="m172.76 445.12c0 4.5706-3.7052 8.2759-8.2759 8.2759-4.5706 0-8.2759-3.7052-8.2759-8.2759 0-4.5706 3.7052-8.2759 8.2759-8.2759 4.5706 0 8.2759 3.7052 8.2759 8.2759z" transform="translate(42.653 4.0816e-8)"/> <path id="path4166" style="fill:url(#radialGradient4188)" d="m172.76 445.12c0 4.5706-3.7052 8.2759-8.2759 8.2759-4.5706 0-8.2759-3.7052-8.2759-8.2759 0-4.5706 3.7052-8.2759 8.2759-8.2759 4.5706 0 8.2759 3.7052 8.2759 8.2759z" transform="translate(56.224 -11.633)"/> <path id="path4170" style="fill:url(#radialGradient4188)" d="m172.76 445.12c0 4.5706-3.7052 8.2759-8.2759 8.2759-4.5706 0-8.2759-3.7052-8.2759-8.2759 0-4.5706 3.7052-8.2759 8.2759-8.2759 4.5706 0 8.2759 3.7052 8.2759 8.2759z" transform="translate(67.857 -25.204)"/> <path id="path4174" style="fill:url(#radialGradient4188)" d="m172.76 445.12c0 4.5706-3.7052 8.2759-8.2759 8.2759-4.5706 0-8.2759-3.7052-8.2759-8.2759 0-4.5706 3.7052-8.2759 8.2759-8.2759 4.5706 0 8.2759 3.7052 8.2759 8.2759z" transform="translate(79.49 -38.776)"/> <path id="path4178" style="fill:url(#radialGradient4188)" d="m172.76 445.12c0 4.5706-3.7052 8.2759-8.2759 8.2759-4.5706 0-8.2759-3.7052-8.2759-8.2759 0-4.5706 3.7052-8.2759 8.2759-8.2759 4.5706 0 8.2759 3.7052 8.2759 8.2759z" transform="translate(91.122 -52.347)"/> <path id="path4190" style="fill:url(#radialGradient4188)" d="m172.76 445.12c0 4.5706-3.7052 8.2759-8.2759 8.2759-4.5706 0-8.2759-3.7052-8.2759-8.2759 0-4.5706 3.7052-8.2759 8.2759-8.2759 4.5706 0 8.2759 3.7052 8.2759 8.2759z" transform="translate(27.143 7.7551)"/> <path id="path4194" style="fill:url(#radialGradient4188)" d="m172.76 445.12c0 4.5706-3.7052 8.2759-8.2759 8.2759-4.5706 0-8.2759-3.7052-8.2759-8.2759 0-4.5706 3.7052-8.2759 8.2759-8.2759 4.5706 0 8.2759 3.7052 8.2759 8.2759z" transform="translate(5.8163 -49.884)"/> <path id="path4198" style="fill:url(#radialGradient4188)" d="m172.76 445.12c0 4.5706-3.7052 8.2759-8.2759 8.2759-4.5706 0-8.2759-3.7052-8.2759-8.2759 0-4.5706 3.7052-8.2759 8.2759-8.2759 4.5706 0 8.2759 3.7052 8.2759 8.2759z" transform="translate(11.633 -67.857)"/> <path id="path4202" style="fill:url(#radialGradient4188)" d="m172.76 445.12c0 4.5706-3.7052 8.2759-8.2759 8.2759-4.5706 0-8.2759-3.7052-8.2759-8.2759 0-4.5706 3.7052-8.2759 8.2759-8.2759 4.5706 0 8.2759 3.7052 8.2759 8.2759z" transform="translate(23.265 -81.429)"/> <path id="path4206" style="fill:url(#radialGradient4188)" d="m172.76 445.12c0 4.5706-3.7052 8.2759-8.2759 8.2759-4.5706 0-8.2759-3.7052-8.2759-8.2759 0-4.5706 3.7052-8.2759 8.2759-8.2759 4.5706 0 8.2759 3.7052 8.2759 8.2759z" transform="translate(9.6939 3.8776)"/> <path id="path4210" style="fill:url(#radialGradient4188)" d="m172.76 445.12c0 4.5706-3.7052 8.2759-8.2759 8.2759-4.5706 0-8.2759-3.7052-8.2759-8.2759 0-4.5706 3.7052-8.2759 8.2759-8.2759 4.5706 0 8.2759 3.7052 8.2759 8.2759z" transform="translate(5.8163 -13.571)"/> <path id="path4214" style="fill:url(#radialGradient4188)" d="m172.76 445.12c0 4.5706-3.7052 8.2759-8.2759 8.2759-4.5706 0-8.2759-3.7052-8.2759-8.2759 0-4.5706 3.7052-8.2759 8.2759-8.2759 4.5706 0 8.2759 3.7052 8.2759 8.2759z" transform="translate(3.8776 -31.02)"/> </g> </g> </g></svg>