<svg class="pets" width="86" height="380" viewBox="202.715 584.407 144 380.048" xmlns="http://www.w3.org/2000/svg"><defs><filter id="a" width="1.818" y="-.458" x="-.409" height="1.915" color-interpolation-filters="sRGB"><feGaussianBlur stdDeviation="3.851"/></filter></defs><g stroke="#000" stroke-width=".036" stroke-miterlimit="10" fill-rule="evenodd"><path d="M283.118 885.932c-.983-.398-1.691-.796-2.122-1.316-.398-.53-.696-1.05-.431-1.735.32-.741 1.172-1.857 2.09-2.41.95-.542 2.431-.719 3.415-.696 1.006.022 1.835.31 2.443.773.63.431 1.083 1.05 1.316 1.857a8.394 8.394 0 0 1 3.68-.31c1.25.189 2.93 1.128 3.638 1.327.718.122.585-.055.541-.353 0-.299-.177-.995-.652-1.36-.453-.398-1.194-.718-2.178-.962.774-.42 1.526-.497 2.255-.232.752.254 1.647 1.117 2.134 1.736.52.597.63 1.558.884 1.824.32.22.553-.033.74-.464.189-.476.377-1.482.31-2.211a5.72 5.72 0 0 0-.585-2.2c.784.707 1.249 1.492 1.392 2.354.155.84-.552 2.454-.464 2.753.144.254.53-.133 1.205-1.161-.398.896-.542 1.493-.431 1.747.155.22.773.154 1.127-.2.354-.386.851-1.27.895-1.89.067-.608-.154-1.205-.619-1.746.774.464 1.183.995 1.316 1.547.122.542-.332 1.294-.586 1.78-.232.464-.53.774-.851.973.586.298.984.685 1.238 1.117.276.42.365.928.31 1.48.43.189.74.366.972.576.233.187.376.409.432.619 1.36-.531 2.675-.84 3.946-.885 1.348-.055 2.61-.144 3.725.542 1.04.663 1.946 1.769 2.631 3.405.863.055 1.57.276 2.244.796.652.486 1.194 1.182 1.625 2.133.387.918.873 2.156.74 3.372-.165 1.193-.607 3.029-1.624 3.758-1.062.685-3.172.785-4.455.387-1.304-.431-2.465-1.758-3.14-2.83-.64-1.105-.84-2.62-.895-3.604-.077-.995.133-1.691.509-2.21-.509-.564-1.04-.951-1.636-1.117-.575-.188-1.194-.188-1.857 0 1.06.475 1.525 1.426 1.514 2.896 0 1.47-1.437 4.179-1.67 5.86-.21 1.624-.066 2.94.387 3.945a7.748 7.748 0 0 1 3.836 1.316c1.172.785 2.432 2.122 3.184 3.371.73 1.205 1.073 2.454 1.116 3.836l-.497-.475c.232.928.177 1.78-.122 2.598a5.7 5.7 0 0 1-1.78 2.288c-.917.685-2.1 1.293-3.636 1.824 2-.465 3.305-.476 3.869-.078.552.41-.697 1.747-.465 2.477.21.663 2.012.663 1.78 1.702-.254 1.028-1.337 2.553-3.294 4.532.597 1.525 1.371 2.93 2.366 4.333.973 1.393 1.979 2.753 3.526 3.958 1.548 1.138 3.902 2.078 5.616 2.985 1.669.862 3.172 1.348 4.344 2.354 1.105 1.006 1.846 2.62 2.399 3.648.553.984.785 1.758.818 2.321.917-.807 1.382-1.68 1.393-2.752-.012-1.072-.42-2.388-1.393-3.604-1.05-1.216-3.184-2.3-4.61-3.714-1.448-1.46-3.04-3.084-3.88-4.997-.862-1.945-1.193-4.09-1.116-6.555.166.697.276 1.16.42 1.559.1.354.232.575.31.619.298-1.647.751-3.14 1.36-4.522.618-1.426 1.536-2.807 2.287-3.758.73-.962 1.371-1.525 2.012-1.824-.685 1.835-.851 3.593-.541 5.317.298 1.713 1.47 3.792 2.365 4.997.851 1.193 1.78 1.9 2.786 2.166l-.276-.807c1.658.696 3.04 1.338 4.19 1.968a18.08 18.08 0 0 1 2.63 1.747c.73.552 1.338 1.094 1.824 1.624a4.899 4.899 0 0 0-.188-1.039c-.088-.254-.177-.464-.31-.541 1.029.873 1.813 1.956 2.4 3.371.585 1.393 1.06 3.095 1.083 4.93-.012 1.813-.299 3.991-1.206 5.804-1.005 1.747-2.53 3.947-4.487 4.765-1.957.773-4.278.762-7.097-.034a10.37 10.37 0 0 1-1.548 3.958c-.784 1.16-1.802 2.178-3.095 3.05.586.487.752.996.498 1.526-.266.509-.763 1.139-2.134 1.592-1.448.41-3.78 1.028-6.312 1.006-2.554-.044-5.428-.431-8.8-1.205-1.591.708-3.205 1.094-4.841 1.161-1.658.055-3.25-.243-4.952-.851-.055.265-.354.398-.896.276-.552-.122-1.669-.232-2.321-.929-.619-.762-1.017-1.857-1.316-3.449a3.59 3.59 0 0 1-.508-.121 17.08 17.08 0 0 0-.697-.266c-1.448-.176-2.465-.486-3.26-.972-.72-.52-1.073-1.238-1.272-1.902a2.912 2.912 0 0 1 .077-1.934c-.564.176-.807.022-.85-.509-.012-.574.331-1.846.729-2.664.43-.807.94-1.636 1.868-2.1 1.017-.498 2.72-.796 3.913-.73a5.707 5.707 0 0 1 3.173 1.083c.63-.154 1.171-.552 1.625-1.238.475-.707.818-2.144 1.16-2.907.387-.774.708-1.316 1.05-1.67a9.022 9.022 0 0 1-.353-1.326 10 10 0 0 1-.111-1.437l-.586.508c-.21-.674-.354-1.36-.342-2.011-.011-.653.132-1.316.342-1.946l-.541-.464a4.43 4.43 0 0 1 .508-1.935c.343-.64 1.172-1.16 1.47-1.901.332-.796.431-1.658.387-2.708-.94-.221-1.492-.597-1.78-1.084-.243-.553.476-1.227.188-1.934-.276-.708-1.747-1.658-1.857-2.211-.066-.575.896-.763 1.437-1.16.564-.432 1.183-.83 1.857-1.283-1.37-.608-2.686-1.061-3.946-1.315-1.25-.277-2.554-.255-3.57-.277-.996-.044-1.78-.044-2.4.044-.353.609-1.127 1.062-2.365 1.404-1.238.32-3.173.84-5.04.542-1.836-.376-4.334-1.205-5.882-2.487-1.514-1.327-2.664-3.482-3.106-5.107-.398-1.603-.177-3.073.663-4.455-.961-.928-1.348-2-1.16-3.26.232-1.294 1.403-3.284 2.32-4.3.952-1.051 2.322-1.504 3.174-1.825.85-.343 1.514-.365 1.945-.11l1.116-1.006c.597-1.426 1.04-3.018 1.283-4.82.265-1.813.342-3.758.232-5.925-.995.95-1.769 1.88-2.321 2.907-.498.995-.708 2.753-.929 3.096-.199.32-.398-.321-.43-1.16-.034-.896-.156-2.864.231-4.069.431-1.25 1.128-2.266 2.21-3.217l-1.126-.497c-.542.442-1.029 1.006-1.548 1.735-.509.719-.973 1.559-1.437 2.565.376-1.47.685-2.576.973-3.45.287-.872.53-1.425.73-1.701zm28.742 68.128c.386.354.895.763 1.569 1.183.663.398 1.481.852 2.454 1.316l.045.564c-.675-.498-1.493-.73-2.455-.785-.994-.033-2.034.11-3.316.52a19.42 19.42 0 0 0 1.227-1.747c.298-.487.442-.807.476-1.05z" stroke-width=".00862452"/><path d="M283.881 885.268c.553-.552 1.282-1.006 2.189-1.48.918-.476 2.012-.885 3.283-1.272-.542-.984-1.227-1.57-2.1-1.924-.83-.354-2.09-.298-3.018-.088-.907.188-1.979.696-2.532 1.227-.53.508-.796 1.304-.707 1.835.132.486.884.895 1.36 1.183.486.265.994.453 1.525.52zM284.975 886.451c.177-.365.542-.63 1.095-.917.586-.288 1.36-.52 2.321-.741-.652.121-1.15.31-1.536.52-.354.21-.586.441-.697.74.276-.2.597-.387.918-.475.32-.1.685-.188 1.05-.177-.697.409-1.205.73-1.57.961-.332.222-.508.354-.53.399-.343-.1-.697-.2-1.05-.31z" fill="#c87137" stroke-width=".00862452"/><path d="M282.964 887.545c.154-.85.696-1.57 1.58-2.277.93-.73 2.51-1.426 3.803-1.879 1.349-.464 2.72-.796 4.024-.784 1.293 0 2.73.475 3.67.828.94.31 1.68 1.217 2.012 1.095.376-.166.387-1.404.166-1.968-.21-.597-.63-1.061-1.349-1.481.807.332 1.404.707 1.79 1.172.388.475.377 1.017.609 1.536.298.476.663 1.095.962 1.26.287.122.564-.022.785-.475.088.442.176.664.31.785.132.066.264.033.441-.221-.01.364.089.586.299.663.22.055.541.011 1.006-.22.552.342.917.707 1.138 1.138.232.442.32.851.221 1.392.52.177.995.41 1.305.741.32.31.597.719.707 1.183 1.769-.95 3.283-1.404 4.587-1.481 1.316-.056 2.377.607 3.228 1.094.753.431 1.205.84 1.537 1.57.331.73.276 2.443.475 2.752.155.276.332-.089.531-1.094.884.088 1.614.453 2.233 1.094.608.63 1.172 1.647 1.393 2.708.188 1.017.243 2.554-.177 3.46-.442.885-1.47 1.625-2.399 1.88-.95.165-2.343-.011-3.239-.575-.95-.564-1.68-1.824-2.144-2.709-.442-.895-.53-1.57-.475-2.62.066-1.094.884-3.371.917-3.802.023-.42-.309-.066-.873 1.183-.42-.553-.83-.918-1.272-1.139-.409-.232-.73-.221-1.304-.177-.542.022-1.282.155-2.1.398.862.641 1.415 1.338 1.658 2.134.243.773.154 1.536-.133 2.542-.243.962-1.061 2.322-1.349 3.316-.265.951-.298 1.637-.265 2.488.077.829.265 1.647.608 2.498-.674.155-1.138.343-1.393.52-.276.187-.364.508-.088.574.354.011 1.393-.42 2.1-.398.763.011 1.504.133 2.267.486.785.343 1.492.697 2.277 1.482.752.774 1.79 2.178 2.266 2.973.475.752.597 1.217.486 1.482-.508-.387-.829-.475-.917-.31-.122.177.265.63.31 1.36.055.685.254 1.846-.177 2.708-.509.818-1.725 1.647-2.753 2.277-1.028.62-2.863.94-3.416 1.438-.52.475-.43.928.265 1.404.067.586.111 1.094.177 1.481.078.387.177.663.255.829-.089.232-.465.453-1.128.663-.663.21-1.58.398-2.797.609a6.011 6.011 0 0 1-.265-1.316c-.033-.442.011-.818.089-1.216.618-.088 1.083-.453 1.348-1.094.287-.652.376-2.665.31-2.797-.045-.11-.233 1.37-.608 1.968-.343.563-.84 1.171-1.493 1.348-.652.089-1.437-.354-2.266-.564-.763-.22-1.382-.552-2.454-.696a27.735 27.735 0 0 0-3.891-.31c-.01-.353.122-.585.442-.696.332-.122.642-.122 1.482 0 .884.089 2.819.674 3.67.696.873.034 1.315-.154 1.448-.563.155-.487-.033-1.515-.652-2.189-.62-.685-2.366-1.172-3.018-1.923-.608-.818-.84-1.736-.697-2.841.232-.166.564-.078 1.084.22.541.3 1.58 1.405 1.967 1.57.42.1.664-.331.31-.74-.387-.387-1.714-1.327-2.532-1.581-.773-.298-1.459-.254-2.1-.121-.608.099-1.105.43-1.536.873-.41.453-.73 1.05-.962 1.835.762.597 1.36 1.15 1.835 1.658.508.475 1.028 1.028.961 1.36-.077.298-.939.188-1.392.563-.42.376-.785.929-1.139 1.703a3.165 3.165 0 0 1-1.05.088 6.493 6.493 0 0 1-1.304-.265c-.376.752-1.106 1.293-2.19 1.67-1.072.375-2.586.718-4.244.563-1.614-.221-3.957-.774-5.417-1.747-1.459-1.039-2.553-2.951-3.194-4.2-.586-1.283-.343-2.3-.343-3.14.033-.807.177-1.393.475-1.713.619 1.315 1.58 2.321 2.885 3.062 1.36.73 3.45 1.481 4.941 1.36 1.504-.166 3.03-1.15 3.936-2.234.928-1.105 1.735-2.83 1.57-4.233-.133-1.47-1.216-2.985-2.4-4.29-1.171-1.337-2.73-2.431-4.675-3.493l.564-.398c1.315.133 2.399.454 3.371.918.94.42 1.68.873 2.355 1.835.74 1.006 1.536 3.272 1.967 3.98.443.597.774.398.608-.133-.154-.52-.618-1.525-1.48-2.974.364-.32.729-.376 1.138-.21.409.177 1.028.597 1.26 1.26.276.597.265 1.559.265 2.455.011.906-.276 2.509-.22 2.885.12.298.541-.465.707-.918.155-.464.199-.995.133-1.713.95-.398 1.868-1.183 2.796-2.31.995-1.172 2.112-2.842 2.753-4.544.63-1.758 1.094-4.267.917-5.693-.188-1.404-1.028-2.377-1.923-2.664-.873-.299-2.122.132-3.195.873-1.017.697-2.221 2.244-2.973 3.405-.741 1.16-1.15 2.31-1.438 3.404-.254 1.04-.298 1.957-.132 2.797l-.83-.254c-.176-.42-.397-.74-.707-1.006a2.124 2.124 0 0 0-1.039-.53c.542-1.272.973-2.554 1.172-3.803.21-1.305.354-2.841.177-3.759-.1-.906-.564-1.713-1.006-1.57-.431.144-1.282 1.327-1.702 2.355-.376.962-.608 2.587-.741 3.549-.11.973-.155 1.658-.044 2.177-.255-.044-.531-.099-.83-.121-.298-.033-.574-.033-.917-.044a21.733 21.733 0 0 0 1.437-4.555c.31-1.547.343-3.46.354-4.676.044-1.249 0-2.166-.133-2.796-.95.663-1.725 1.348-2.321 2.056-.597.707-1.017 1.437-1.26 2.188-.122-.961.021-1.923.475-2.929.497-1.04 1.326-2.244 2.233-3.062.906-.807 2.111-1.349 3.062-1.747.962-.42 1.79-.696 2.575-.785-1.536-.232-2.852-.232-4.068-.044-1.193.188-2.2.652-3.062 1.183a5.254 5.254 0 0 0-1.88 1.757z" fill="#c87137" stroke-width=".00862452"/><path d="M287.905 891.901c.133-1.67.454-2.542.918-2.664.498-.133 1.139.508 1.968 1.923-.608-.298-1.16-.331-1.658-.22-.465.11-.874.43-1.228.961z" stroke-width=".00862452"/><path d="M288.303 890.895c.077-.785.266-1.194.564-1.227.31-.055.719.265 1.271.962-.586-.144-.983-.155-1.315-.122-.321.055-.454.155-.52.387z" fill="#e9c6af" stroke-width=".00862452"/><path d="M298.396 890.94c.276-.974.73-1.703 1.36-2.19.652-.53 1.835-1.06 2.443-.784.63.276 1.094 1.393 1.227 2.498.144 1.072.01 2.366-.398 3.924-.586-1.514-1.216-2.575-2.012-3.139-.763-.586-1.636-.674-2.62-.31z" stroke-width=".00862452"/><path d="M299.136 890.331c.166-.542.487-.95.962-1.271.498-.354 1.481-.884 1.968-.652.508.243.873 1.326 1.006 2.144a6.033 6.033 0 0 1-.089 2.576c-.497-1.139-1.05-1.957-1.702-2.41a2.387 2.387 0 0 0-2.145-.387z" fill="#e9c6af" stroke-width=".00862452"/><path d="M79.359 168.92c0 5.537 5.029 10.013 11.258 10.013 6.184 0 11.213-4.476 11.213-10.013s-5.029-10.059-11.213-10.059c-6.229 0-11.258 4.522-11.258 10.059z" filter="url(#a)" fill="#fff" transform="matrix(.23957 0 0 .23957 263.82 869.716)"/><path d="M287.606 901.097a14.76 14.76 0 0 1 .034-2.796c.11-.995.287-1.913.619-2.753.386-.84 1.094-2.023 1.481-2.1.431-.067.663.73.785 1.625.121.873.01 2.023-.21 3.537-.41-.32-.774-.409-1.095-.31-.32.1-.64.42-.829.962-.166.531-.21 1.205-.177 2.145-.199-.1-.397-.2-.608-.31zM292.625 900.978c.1-.807.42-1.614.962-2.543.553-.928 1.57-2.189 2.321-2.93.807-.773 1.647-1.381 2.355-1.569.763-.177 1.448-.033 1.967.475.52.465 1.139 1.029 1.05 2.499-.055 1.48-.508 4.388-1.525 6.29-1.028 1.857-2.487 3.46-4.543 4.852a8.078 8.078 0 0 0-.266-1.614c-.121-.486-.254-.895-.442-1.226a7.126 7.126 0 0 0 1.316-2.278c.276-.796.464-1.78.22-2.31-.232-.53-1.028-.907-1.624-.83-.553.045-1.15.454-1.791 1.184z" fill="#fff" stroke-width=".00862452"/><path d="M293.72 901.452c0 .52.475.94 1.05.94s1.05-.42 1.05-.94c0-.509-.475-.928-1.05-.928s-1.05.42-1.05.928zM288.603 899.119c0 .31.287.564.64.564.343 0 .63-.255.63-.564s-.287-.564-.63-.564c-.353 0-.64.254-.64.564zM295.91 914.784a2.217 2.217 0 0 1 .74-1.437c.442-.365.984-.586 1.747-.663.055.63.1 1.171.133 1.625.066.42.11.751.176.994-.31.045-.541.177-.74.354-.177.177-.31.41-.398.697a13.028 13.028 0 0 0-.962-.962 6.788 6.788 0 0 0-.697-.608z" fill="#fff" stroke-width=".00862452"/><path d="M297.83 916.75a.806.806 0 0 1 .343-.607c.221-.177.498-.277.83-.177.364.1.972.53 1.183.873.232.343.232.851.088 1.183-.1.288-.674.52-.83.74-.12.244-.176.432-.044.653a4.84 4.84 0 0 0-1.183-.133c-.442-.022-.906.022-1.437.089.343-.244.62-.476.962-.697.343-.221 1.006-.354 1.006-.652.033-.332-.287-.74-.917-1.271z" fill="#ff5200" stroke-width=".00862452"/><path d="M301.015 917.017c.276.055 1.171.475 1.448.917.342.432.52 1.238.398 1.614-.11.31-.575.443-1.095.443-.508-.011-1.547-.188-1.879-.398-.265-.266-.11-.885.122-.962.298-.067 1.193.52 1.36.52.143-.089-.299-.51-.432-.785a3.19 3.19 0 0 1-.132-.83c.01-.243-.033-.586.21-.52z" fill="#ff5200" stroke-width=".00862452"/><path d="M303.945 922.788l.829.442c-1.095.553-1.703 1.061-1.913 1.481-.177.432 0 .94.785 1.05.84.044 2.72-.188 4.101-.652 1.426-.508 3.438-1.437 4.157-2.1.707-.685.353-1.481.088-1.79-.276-.31-1.813.088-1.79 0 .088-.134 1.47-.62 2.1-.741.619-.166 1.37-.41 1.57-.133.176.265-.664 1.26-.609 1.747.022.453.354.718.697 1.094.277.343 1.138.365 1.094 1.006-.077.597-.53 1.724-1.36 2.62-.884.851-2.111 2.078-3.581 2.575-1.415.476-3.56.41-4.853.354-1.271-.1-2.343-.376-2.752-.785-.354-.409.784-1.017.52-1.658-.255-.696-1.88-1.813-2.013-2.366-.044-.563 1.006-.585 1.493-.917a14.6 14.6 0 0 0 1.437-1.227z" fill="red" stroke-width=".00862452"/><path d="M304.95 924.015c-.696.221-1.116.453-1.26.696-.099.2.2.564.432.664.243.066.563.021.961-.177l-.132-1.183zM309.627 922.045c.454-.22.808-.32 1.183-.342.41-.056.874.055 1.006.21.122.154.033.475-.31.795-.342.277-.85.597-1.658.962-.144-.497-.287-.862-.31-1.138-.01-.266-.021-.443.09-.487z" fill="maroon" stroke-width=".00862452"/><path d="M304.254 930.303c.574.1 1.083.188 1.57.221.475.011.928.011 1.315-.044.807 1.47 1.315 3.073 1.57 4.986.287 1.879.243 4.233-.089 6.29-.343 2.022-1.039 3.99-2.045 5.903a13.245 13.245 0 0 1-1.757-2.62 11.997 11.997 0 0 1-.963-2.93l-.43.874c-.255-.73-.387-1.371-.487-1.968a5.936 5.936 0 0 1 0-1.658l-.873 1.006c-.034-.686-.034-1.327.088-1.924.1-.619.32-1.172.575-1.702l-.917-.354c.22-.553.497-1.105.828-1.702.399-.586.918-1.128 1.216-1.835.277-.752.41-1.57.399-2.543z" fill="#e9c6af" stroke-width=".00862452"/><path d="M314.258 945.935c.1.276.409.465.93.608.508.122 1.204.166 2.132.133a13.002 13.002 0 0 0-1.437 2.708c-.331.818-.508 1.293-.53 2.366-.023 1.072.066 2.454.354 4.145a24.235 24.235 0 0 1-1.968-1.083c-.575-.387-1.139-.752-1.57-1.138-.265-.465-.221-.918.088-1.316.321-.42 1.57-.73 1.835-1.183.188-.497-.343-1.094-.354-1.658.011-.574.343-1.127.442-1.702.09-.62.1-1.206.078-1.88z" fill="#fff" stroke-width=".00862452"/><path d="M300.186 952.27a6.027 6.027 0 0 1-.785-1.095c-.232-.453-.464-.906-.652-1.481-1.117-.597-2.211-.918-3.283-.962-1.062-.033-2.222.154-3.062.608-.819.409-1.415 1.25-1.836 1.88-.364.607-.552 1.348-.563 1.79-.022.398.11.619.398.664.144-.399.287-.675.52-.83.265-.199.84-.398.828-.133.011.288-.807 1.084-.917 1.791-.1.686-.41 1.526.22 2.222.664.664 1.902 1.25 3.715 1.758-.078-1.15.155-2.1.74-3.018.641-.94 2.001-1.813 2.797-2.365.796-.564 1.393-.796 1.88-.83z" fill="#e9c6af" stroke-width=".00862452"/><path d="M309.416 957.166c-.254-1.061-.94-1.935-2.189-2.62-1.216-.696-3.603-1.393-5.118-1.536-1.448-.177-2.686.044-3.714.574-1.028.542-1.901 1.813-2.443 2.576-.497.752-.663 1.348-.663 1.835.022.42.243.696.707.785.011-.188.11-.465.299-.741.243-.354.818-1.116.873-1.05.033.088-.542.94-.652 1.614-.066.652-.166 1.57.133 2.32.342.73 1.282 1.615 1.746 2.013.52.353.785.199 1.095.176.287-.022.52-.154.652-.353-.42-.531-.652-.94-.696-1.272.022-.376.199-.95.486-.696.265.276.398 1.747 1.083 2.277.74.487 2.233.674 3.24.741 1.05.022 1.967-.21 2.885-.398a20.91 20.91 0 0 0 2.708-.829c-.431-.232-.708-.464-.83-.74s-.021-.553.177-.874c-.541-.365-.862-.774-1.005-1.227-.089-.464.055-1.128.265-1.526.21-.452.53-.773.961-1.049z" fill="#e9c6af" stroke-width=".00862452"/><path d="M326.11 960.702c-1.194.332-2.388.376-3.626.177-1.271-.254-2.653-.906-3.803-1.481-1.172-.597-1.978-1.537-3.061-1.924-1.106-.386-2.411-.42-3.361-.397-.951.01-1.68.143-2.277.442-.586.276-1.05.751-1.183 1.26-.089.464.088 1.006.574 1.625.62-.52.995-.785 1.084-.752.11 0-.277.53-.432.873-.11.354-.497.719-.309 1.14.22.364.52.673 1.536 1.05 1.061.375 2.72.883 4.632 1.094 1.88.165 4.787.121 6.511-.089 1.691-.287 2.73-.795 3.538-1.227.74-.409 1.006-.884 1.05-1.172.022-.298-.254-.519-.873-.619zM343.807 941.47c-.066-.73-.255-1.548-.564-2.41-.31-.874-.763-1.836-1.316-2.841l-.298.961c-1.393-1.448-2.764-2.641-4.113-3.58-1.36-.952-2.686-1.637-4.023-2.102v.653c-.807.033-1.581-.299-2.443-1.083-.852-.807-2.023-2.289-2.62-3.55-.63-1.292-.995-2.829-1.139-4.012-.188-1.183-.144-2.189.089-3.018-.962 1.327-1.78 2.61-2.41 3.891-.686 1.25-1.238 2.587-1.482 3.715-.254 1.116-.254 2.122 0 3.017l-.873-.84c.188 1.26.652 2.499 1.481 3.759.818 1.238 2.056 2.465 3.372 3.68 1.26 1.206 3.283 2.643 4.234 3.582.906.907 1.116 1.15 1.403 1.835.288.653.387 1.36.343 2.123.144-.608.32-1.062.443-1.36.077-.343.121-.608.342-.497.221.1.641.475 1.139 1.127-.033-.542.055-.873.265-.995.2-.155.52-.099.962.166a6.506 6.506 0 0 0-.177-2.885 5.26 5.26 0 0 0-1.481-2.266c1.824 1.028 3.205 1.99 4.189 3.05.962 1.018 1.503 2.068 1.625 3.107.144-.962.188-1.88.088-2.753a8.892 8.892 0 0 0-.663-2.53c.486.375.852.74 1.139 1.094.254.342.431.663.486 1.005.011-.364.011-.685 0-.961a5.907 5.907 0 0 0-.133-.796c.564.652.984 1.15 1.26 1.58.277.42.365.697.355.874.165-.243.342-.486.52-.74z" fill="#e9c6af" stroke-width=".00862452"/><path d="M303.47 943.647a18.17 18.17 0 0 0-1.271 2.19c-.32.75-.442 1.58-.918 2.276-.508.664-1.15 1.216-2.056 1.703.088.375.21.74.486 1.138s.642.774 1.095 1.216a12.03 12.03 0 0 1 1.525.088c.542.034 1.094.122 1.658.222a14.436 14.436 0 0 0 1.449-2.1c.353-.664.63-1.26.74-1.836-.784-1.16-1.426-2.167-1.88-2.973-.452-.852-.728-1.437-.828-1.924z" fill="#c87137" stroke-width=".00862452"/><path d="M304.774 952.423c.928.386 1.658.752 2.32 1.138.675.354 1.14.62 1.57 1.095.454.464.774 1.017 1.05 1.702.532-.53.94-1.04 1.228-1.526.31-.519.453-.973.52-1.448-.398-.265-.498-.586-.21-.961.32-.42 1.547-.885 1.878-1.349.266-.454-.132-.962-.088-1.404.011-.475.155-.829.299-1.404.155-.597.43-1.238.53-2.222a33.979 33.979 0 0 0-.133-3.935c-.11-1.15-.298-1.956-.519-2.93-.266-1.06-.94-3.006-.873-3.106.077-.055.795 2.244 1.26 2.631.397.299 1.06-.62 1.271-.575.199.066.1.686-.044.962-.2.221-.774 0-.873.575-.078.586.265 1.901.386 2.918.066.973.166 1.98.177 2.974.42.298.918.53 1.493.574.563.034 1.204 0 1.923-.22.166-.575.541-1.028 1.172-1.404.596-.398 1.813-.73 2.498-.83.664-.132 1.824-.033 1.57.177-.277.2-2.233.365-3.183 1.05-.995.642-2.057 1.593-2.676 2.974-.663 1.37-1.04 3.714-1.127 5.24-.1 1.47-.11 2.598.608 3.68s2.21 2.212 3.67 2.787c1.448.541 3.448.685 4.853.387 1.348-.365 2.354-1.294 3.272-2.355.873-1.095 1.757-2.366 2.1-4.068.298-1.746.751-4.245-.089-6.213-.862-2-2.907-4.178-4.852-5.593-1.99-1.437-5.097-1.802-6.81-2.841-1.692-1.061-2.233-1.813-3.371-3.405-1.183-1.636-2.377-3.637-3.626-6.168-.432.332-.929.608-1.659.83-.696.187-1.514.375-2.498.441.884 1.736 1.426 3.615 1.625 5.726.221 2.123.044 4.61-.398 6.82-.453 2.2-1.481 4.567-2.233 6.158-.718 1.56-1.348 2.554-2.011 3.118zM331.878 949.174a15.69 15.69 0 0 0 1.449-1.835c.298-.508.442-.884.43-1.172.255-1.15.531-1.735.83-1.879.298-.133.574.243.918 1.127-.012-.795.12-1.26.397-1.437.266-.176.675-.033 1.227.432.277-1.106.376-2.024.254-2.797-.144-.785-.464-1.382-1.005-1.835 1.205.84 2.122 1.801 2.84 2.93.697 1.127 1.15 2.365 1.36 3.802.42-.862.652-1.735.741-2.664a8.693 8.693 0 0 0-.31-2.885c.277.398.498.707.664 1.05.166.298.21.575.254.829.166-.354.298-.674.354-1.006a2.53 2.53 0 0 0 0-.917c.354.375.586.74.74 1.094.122.332.167.652.09.962l.873-1.006c-.166 2.365-.442 4.146-.874 5.46-.453 1.283-.907 1.46-1.702 2.322-.84.851-2.001 2.112-3.062 2.709-1.061.53-2.122.607-3.228.652-1.128.044-2.266-.1-3.46-.387.133-.608.221-1.205.265-1.791.044-.597 0-1.183-.045-1.758z" fill="#c87137" stroke-width=".00862452"/></g></svg>