<svg id="pet16" class="pets" width="86" height="380" viewBox="202.71499633789062 584.406982421875 167 380.0480041503906" preserveAspectRatio="xMidYMid meet" xmlns="http://www.w3.org/2000/svg"> <defs id="svgEditorDefs"> <path id="svgEditorClosePathDefs" class="lines" fill="black" style="stroke-width: 0px; stroke: none;"/> <pattern id="pattern-0" x="0" y="0" width="20" height="20" patternUnits="userSpaceOnUse" viewBox="0 0 100 100"> <path d="M 0 0 L 50 0 L 50 100 L 0 100 Z" style="fill: black;"/> </pattern> </defs> <g transform="matrix(-0.520086, 0.175606, 0.17748, 0.525636, 369.021057, 806.679626)"> <title id="title3818">husky running in snow</title> <g id="layer2" transform="matrix(1, 0, 0, 1, -189.770004, -102.110001)"> <path id="path3687" style="fill:#000000" d="m261.97 102.12c-1.1982 0.10165-2.0093 1.0823-2.3125 1.75-0.30319 0.6677-0.40055 1.2395-0.46875 1.875-0.13639 1.2711-0.0892 2.7284 0 4.2188 0.0892 1.4903 0.23899 3.0095 0.34375 4.2812s0.13892 2.404 0.125 2.5625c-0.0299 0.34032-0.0908 0.68957-0.15625 1-0.12634 0.59892-0.31863 1.1058-0.5625 1.625-0.1477 0.31314-0.23933 0.50033-0.3125 0.625-0.14145 0.24294-0.37982 0.54848-0.6875 0.96875-0.20015 0.27129-0.27376 0.36317-0.1875 0.25a2.1431 2.1431 0 0 0 -0.0312 0.0625l-14.344-3.5625a2.1431 2.1431 0 0 0 -2.3125 3.25c0.46358 0.71273 0.82767 1.0861 1.2812 1.5625-2.9481 0.0632-4.7683-0.72252-6.375-1.2188a2.1431 2.1431 0 0 0 -2.2812 3.4062c1.1697 1.428 1.2971 1.8567 1.5625 2.3438l-1.875 0.78125c-0.69118-0.57858-1.3792-1.1455-2.125-1.75-0.86763-0.70631-1.7593-1.4538-2.6875-2.1875-2.1288-1.6846-4.3952-3.4175-6.5312-5.0938-0.67191-0.52726-1.6061-0.91446-2.5938-0.8125-0.98767 0.10196-1.7542 0.65187-2.25 1.2188-0.99152 1.1338-1.3753 2.4451-1.6875 3.875-0.62432 2.8598-0.70526 6.1495-0.0625 8.6562l3.4375 13.469c-1.2704 5.9108-1.8535 11.987-2.1875 18.094-0.0171 0.29673-0.0111 0.3485 0 0.15625-0.0994 1.8416-0.2136 3.6779-0.28125 5.5312a2.1431 2.1431 0 0 0 1.25 2.0312c-0.75622 5.1147-1.331 9.9932-1.25 14.156a2.1431 2.1431 0 0 0 3.8438 1.2812c0.0333-0.0433 0.0614-0.0528 0.0937-0.0937 0.32152 0.80048 0.65116 1.5817 0.9375 2.2812 0.22738 0.55044 0.47799 1.1658 0.6875 1.6562 0.0637 0.14941 0.15328 0.41729 0.3125 0.78125a2.1431 2.1431 0 0 0 0.1875 0.34375 2.1431 2.1431 0 0 0 0.0312 0.0312c1.5801 3.5736 2.9637 6.2419 4.5625 8.1875 1.6725 2.0353 3.7044 3.322 5.9688 3.8125a2.1431 2.1431 0 0 0 0.0312 0c0.31244 0.0676 0.57957 0.1173 0.84375 0.15625 0.2539 0.0361 0.57531 0.0663 0.9375 0.0937 2.6432 0.20073 5.3889 0.54735 8.3125 0.15625 0.006 0.22072 0.0227 0.44203 0.0312 0.65625 0.01 0.21812 0.052 0.43193 0.0625 0.625 0.67814 12.26 6.5677 24.91 8.5938 34.719a2.1431 2.1431 0 0 0 3.875 0.75c1.1985 3.6679 2.6268 6.9233 4.1562 9.8125a2.1431 2.1431 0 0 0 2.875 0.90625c0.46797 0.56452 1.1108 1.4184 1.9062 2.7812 1.9098 3.2722 3.9857 7.6995 7 10.188a2.1431 2.1431 0 0 0 3.4688 -2.1562c-0.43005-1.7835-0.35523-1.7711-0.40625-2.4062 17.165 23.896 22.405 53.067 24.938 71.75 0.0326 0.24013-0.24221 2.8298-0.8125 5.25s-1.3046 4.9841-1.7812 6.5c-0.45275 1.4398-0.38544 2.9807 0.15625 4.2812 0.54169 1.3006 1.4817 2.3685 2.5938 3.2188 2.224 1.7005 5.2089 2.7346 8.5625 3.4062 6.7072 1.3434 14.85 1.1008 20.75-1.375a2.1431 2.1431 0 0 0 0.0312 -0.0312c0.44223-0.18678 0.89561-0.37182 1.375-0.625a2.1431 2.1431 0 0 0 0.0312 -0.0312c0.89453-0.47577 1.7463-1.0314 2.5-1.6875a2.1431 2.1431 0 0 0 0 -0.0312c0.20279-0.17946 0.21403-0.19281 0.0312-0.0312 0.90128-0.79579 1.6911-1.7434 2.2188-2.8438 0.004-0.008-0.004-0.0237 0-0.0312 0.00087-0.002 0.0294-0.0262 0.0312-0.0312 0.001-0.004-0.002-0.0261 0-0.0312 0.13689-0.29577 0.0859-0.68215 0.1875-1 0.004 0.0951 0.0235 0.23777 0 0.40625 0.0202-0.159 0.0356-0.28299 0.0312-0.375-0.004-0.0875 0.006-0.0815 0-0.125 0.25081-0.81872 0.50033-1.6465 0.46875-2.5625h0.0625s0.33508-17.169-1.5-26.188c-0.63876-3.1393-1.811-6.93-2.9062-10.625 0.5407 0.25202 1.0867 0.55271 1.625 0.78125 0.0333 0.0142 0.0604 0.0484 0.0937 0.0625 0.804 0.53724 1.6219 1.0093 2.3438 1.4062 1.747 0.96075 3.5063 1.5592 5.25 1.8125 0.0608 0.009 0.14147 0.0173 0.25 0.0312a2.1431 2.1431 0 0 0 0.0312 0c-0.032-0.004 0.0485 0.01 0.25 0.0312 0.38497 0.0422 0.61335 0.0253 0.71875 0.0312 0.41934 0.0232 0.95609 0.0634 1.5625 0.0312 0.40656-0.0215 0.7647-0.0509 1.0938-0.0937 0.36052-0.0469 0.72889-0.11236 1.0938-0.1875 0.18511-0.0396 0.22564-0.0528 0.125-0.0312 0.63671-0.13773 1.3104-0.29904 1.9688-0.53125 0.35493-0.12518 0.68528-0.27282 1-0.40625 0.82496-0.34977 1.5883-0.75905 2.3125-1.1875 0.52385-0.30956 0.98123-0.64133 1.4062-0.9375-0.20691 0.14467-0.12454 0.12777 0.1875-0.0937 0.54669-0.38778 1.0543-0.79222 1.5312-1.1875 0.44205-0.36727 0.88968-0.75989 1.3438-1.1875 0.15969-0.15018 0.24981-0.24982 0.25-0.25 0.36168-0.34806 0.72109-0.69869 1.0938-1.0938 0.14796-0.15642 0.27292-0.29477 0.375-0.40625 0.31813-0.34818 0.571-0.6848 0.8125-0.96875 0.16268-0.19112 0.34254-0.39301 0.53125-0.625 0.15513-0.19074 0.36983-0.41896 0.625-0.75 0.15046-0.19508 0.24746-0.33012 0.28125-0.375 0.27863-0.37024 0.51551-0.72836 0.75-1.0625 0.24288-0.34581 0.46809-0.66602 0.6875-1 0.16852-0.25797 0.0615-0.10442 0.0312-0.0625 0.008-0.0117 0.0236-0.0195 0.0312-0.0312 0.31384-0.47994 0.63646-0.9903 0.9375-1.5-0.0718 0.12157 0.002 0.0197 0.125-0.1875 0.0149-0.025-0.0175-0.001 0-0.0312 0.26606-0.458 0.53039-0.8952 0.75-1.3125 0.19306-0.36685 0.13877-0.75067 0.25-1.125 1.1574 1.7924 2.4469 3.246 3.9062 4.25 2.7757 1.9096 5.9461 2.2978 8.8438 1.8438 5.7952-0.90811 10.861-4.8158 13.656-7.2188 2.5635-2.2038 2.83-5.5744 2.875-8.8438 0.0445-3.2382-0.21229-6.6803 0.15625-9.7188 3.578-10.995 6.509-21.35 10.938-32.812 0.36434-0.94308 0.47293-2.0432 0.125-3-0.34793-0.95683-1.031-1.5711-1.5938-1.9375-0.70699-0.46034-0.88408-0.47823-1.2188-0.625 0.77369-17.045-0.18675-27.155-1.9688-34.156-0.075-0.29709-0.13523-0.56794-0.21875-0.875-0.31275-1.1441-0.65192-2.1273-1-3.125 2.7544-2.2661 5.2324-5.1647 7.4688-8.7812a2.1431 2.1431 0 0 0 -1.2812 -3.1875l1.5625-7.3438a2.1431 2.1431 0 0 0 0 -0.8125 2.1431 2.1431 0 0 0 0 -0.0312c0.97204-1.0817 1.7081-2.1423 1.9375-3.1562 0.34128-1.5087 0.19582-2.41 0.34375-3a2.1431 2.1431 0 0 0 -2.19 -2.66c-0.0238-0.89401-0.0409-1.8004-0.21875-2.5938-0.50146-2.2369-1.3194-4.1396-1.6562-5.8125a2.1431 2.1431 0 0 0 -3.47 -1.22c-5.9678 4.9349-11.43 9.6114-19.812 11.75-0.24793-0.21938-0.49015-0.43683-0.75-0.65625-0.18442-0.15609-0.28338-0.25697-0.3125-0.28125-0.44819-0.37308-0.92159-0.74561-1.4062-1.125-0.0982-0.0769-0.18526-0.14449-0.28125-0.21875-0.50867-0.39325-1.0296-0.75174-1.5-1.0938-0.0257-0.0187-0.10196-0.11226-0.25-0.21875-0.49218-0.35407-1.0098-0.72025-1.5625-1.0938-0.0801-0.0541-0.13938-0.0927-0.1875-0.125-0.54787-0.3674-1.0839-0.72168-1.625-1.0625-0.12614-0.0795-0.20701-0.10595-0.1875-0.0937-0.11664-0.073-0.16543-0.0995-0.15625-0.0937-0.53435-0.33245-1.0611-0.66988-1.625-1-0.60375-0.35345-1.1772-0.67263-1.7188-0.96875 0.41932 0.26248 0.56843 0.53892 0.5625 0.53125-0.006-0.008-0.17566-0.28987-0.625-0.5625-0.0126-0.008-0.0181 0.008-0.0312 0-0.0246-0.0144-0.005-0.0167-0.0312-0.0312-0.60501-0.33163-1.2426-0.67501-1.875-1-21.457-11.026-38.024-9.8438-57.344-11.031-6.4756-9.2967-14.976-18.165-25.844-26.5-0.16997-0.37177-0.32338-0.74957-0.5-1.0938-0.0973-0.18931-0.20193-0.39267-0.3125-0.59375-0.17074-0.31152-0.3361-0.66-0.5625-1.0312a2.1431 2.1431 0 0 0 -0.0312 0c0.18219 0.29758 0.17494 0.27428-0.0312-0.0625-0.30906-0.50353-0.63544-0.99253-0.96875-1.4688-0.37383-0.53133-0.75573-1.0302-1.125-1.5-2.656-3.3796-5.9436-6.417-9.1562-9.375l-0.0625-0.0312-6.375-6.375v0.0312c-0.005-0.005-0.0261 0.005-0.0312 0-0.59731-0.59868-1.2552-1.3742-2.7188-1.25zm103.15 146.19c2.0102 0.84784 4.1977 1.804 5.4062 2.1875 0.84172 0.26708 1.5997 0.40595 2.3438 0.5-0.64405 4.3222-0.83362 8.123-3.5938 12.312-3.2437 4.9235-5.9698 9.1672-7.6562 13.25-0.5467 1.3235-0.77234 2.6485-1.0625 3.9688-0.0591-0.68881-0.0401-1.3546 0.0937-1.9688 0.002-0.01-0.002-0.0215 0-0.0312 1.5913-4.5814 2.3913-9.4957 2.9375-14.406h0.0312c0.0102-0.0582-0.01-0.0674 0-0.125 1.4137-8.0993 1.1024-10.272 1.25-13.656 0.0708-0.69617 0.16682-1.3522 0.25-2.0312zm-31.25 14.531c0.36317 0.091 0.75556 0.1828 1.2188 0.28125 0.30424 0.0652 0.41907 0.0716 0.375 0.0625 0.16888 0.035 0.33902 0.0624 0.5 0.0937 0.36338 0.0702 0.76822 0.17634 1.2188 0.25 0.47765 0.0789 0.89486 0.10774 1.3125 0.15625-0.56903 3.9537-0.93194 7.0467-1.3438 9.8125-0.99132-0.60698-2.0839-1.2917-2.9375-1.7812-0.93216-0.53455-1.398-0.73089-2.0312-1.0625 0.45515-2.9597 1.0513-5.4916 1.6875-7.8125z"/> <path id="path3643" style="fill:#e6e6e6" d="m262.16 104.25c-1.9299 0.16373-0.17462 10.469-0.375 12.75-0.30714 3.4966-2.1473 5.3357-3.2188 6.7812l-15.73-3.9c1.0349 1.5911 3.8578 3.4587 2.3438 4.625-5.0915 0.83431-9.0247 0.002-9.8438-1.0625 3.4672 4.2329 3.1843 5.3768 1.4375 5.3438l-3.75 1.625c-3.4015-2.921-8.0268-6.4806-12.312-9.8438-3.0438-2.3886-4.1951 6.9108-3.2188 10.719l3.5625 13.938c-1.7084 7.6845-2.2024 15.783-2.5 23.938l2.1562-3.9375c-1.3127 7.4645-2.2646 14.43-2.1562 20 2.9028-3.7672 2.935-1.1697 3.5938 0 5.0009 12.622 7.4517 16.028 12.844 16.438 3.5423 0.26901 6.8914 0.69248 10.344-0.375-0.67472 12.653 6.2475 26.86 8.5938 38.219 1.0714-3.2143 2.6562-3.0312 2.6562-3.0312 1.114 5.2635 3.1413 9.166 5.1875 13.031 2.2407-4.1768 6.6358 9.4101 11.25 13.219-1.539-6.3822-0.47655-5.5953 1.25-7.3125 19.404 24.945 24.848 56.31 27.5 75.875 0.311 2.2946-1.7006 9.5492-2.6875 12.688-3.4102 10.845 35.57 12.889 34.844-0.1875 0 0 0.27417-17.306-1.4375-25.719-4.3398-21.329-22.156-61.406-22.156-61.406l10-2.5c5.1803 4.3435 13.348 7.1328 20.562 7.6562-1.8089 10.504-0.32707 12.608-5.375 24.844-6.9536 16.855-3.0408 18.359 1.25 20.719 10.841 5.9616 20.527-5.1979 24.469-12.688 2.2113-4.202-4.0262-10.643-2.6875-16.625 6.0455-27.016 3.1086-21.891 4.6562-32.844 8.1812 3.4858 8.9648 3.869 12.125 3.75-1.0773 5.12-0.62485 9.9814-4.2812 15.531-6.469 9.819-10.662 16.682-8.375 23.562 6.0979 18.348 20.394 8.3277 25.719 3.75 3.437-2.9547 1.4675-10.586 2.3125-17.312 3.6037-11.05 6.553-21.546 11.062-33.219 0.96748-2.5043-1.7488-2.562-2.8438-3.5625 1.142-22.809-0.82209-33.052-3.5-40 2.9526-2.098 5.6489-5.277 8.125-9.2812l-2.0312-0.25 2.0312-9.5938-3.2812 1-9.8438 7.5312c-5.7044-10.676-14.705-17.843-24.375-22.812-21.378-10.986-37.56-9.5655-57.5-10.875-6.4771-9.5141-15.168-18.594-26.406-27.156-2.3063-5.6201-7.4055-10.309-12.5-15l-6.4375-6.4062c-0.44333-0.44334-0.7868-0.64839-1.0625-0.625z"/> <path id="path3705" style="opacity:.3;fill:#241f1c" d="m218.57 124.33c-0.10796 2.9912-0.95729 6.7857 0 6.7857 4.8287 0.43175 5.8531 5.4287 8.5714 8.3929l5-6.6072s-13.26-17.195-13.571-8.5714z"/> <path id="path3707" style="opacity:.3;fill:#241f1c" d="m262.32 106.65c-0.31861 8.8732 0 20.357 0 20.357l12.68 0.17c-1.579-3.1955-0.74268-6.6929-5.7143-9.4643-1.253-2.3146-3.5047-1.668-3.0357-7.8571 0 0-3.8466-5.4974-3.9286-3.2143z"/> <path id="path3641" style="fill:#4d4d4d" d="m258.56 123.78-15.72-3.9c1.0349 1.5911 3.8578 3.4587 2.3438 4.625-5.0915 0.83431-9.0247 0.002-9.8438-1.0625 3.4672 4.2329 3.1843 5.3768 1.4375 5.3438l-3.75 1.625c-1.9068-1.6374-4.1908-3.4895-6.5938-5.375l4.37 6.96c-1.6536 0.11803-4.023 0.0309-4.7812 4.2812h-2.2812c1.3051 2.4553 1.7136 4.6134 0 6.0625l-3.125 5.1875c-1.3303 6.9902-1.7944 14.281-2.0625 21.625l2.1562-3.9375c-1.3127 7.4645-2.2646 14.43-2.1562 20 2.9028-3.7672 2.935-1.1697 3.5938 0 0.76283 1.9253 1.4296 3.5756 2.0938 5.0938l3.0312-13c-2.7358-1.0101-3.0625 1.4051-4.5312-3.4062l-1.1562 0.25 4.5625-18.188c5.5507-8.9973 10.541 0.17367 14 3.8125 0.8262 0.86905 4.6754-0.53868 5.375-2.5625l1.5625-7.5625c2.7742-8.0255 11.992-4.5467 17.312-1.875 9.0923 4.9917 13.716 10.281 15.031 16.781 0.84097 4.1553-3.5349 5.8566-6.6875 7.5625l2.5312 1.2812 5.9062-0.625c-0.18115 1.9459-1.3341 3.5386-2.5 5.1562 2.4439-0.84044 4.9292-1.6605 6.0625-3.1562l-0.53125 6.0625c2.3251-0.5625 3.8602-2.5727 7.7188-0.375l0.75 1.9062 1.4062-2.5312c2.8031 2.9042 2.9729 5.8146 4.2812 8.7188l1.9062-6.0625 1 2.1562c3.1175-2.1131 5.3141-1.5254 7.8125-1.7812 5.0154 7.9851 0.71805 15.407 0.65625 23.094 2.452-1.1256 4.4228-2.687 5.5312-5.1562l-0.5 3.4062c3.0953-1.7289 6.3737-3.3585 7.8438-6.0625l-0.125 6.9375 2-2.0312c0.61796 2.0203 0.22008 4.0422-0.5 6.0625l4.9375-2.5-0.875 5.4062 2.25-1.875c5.8272 7.3698 7.2983 15.955 7.0938 25l2.625-5.0625c1.7678-3.8242 3.5447-9.4964 5.3125-11.219 0.90647-6.9869-0.33215-13.982-1.375-20.969 2.3067-0.1658 3.4944 0.96559 3.7812 3.1562l0.625-2.6562c2.084-1.3004 4.3929-0.75938 6.8125 0.625 0.46206 4.2686 0.92584 8.546 3.0312 11.5l4.6875-6.6875c2.792 3.5736 3.4302 7.7647 3.9062 12l2.7812-2.9062c1.0838 3.3777 3.5636 5.3499 6.3125 7.0625l-0.25-5.6875c0.80138 1.6673 1.6172 3.3058 3.4062 3.6562 0 0 9.3331 16.929 13.5 17.812 2.2213 0.47118 4.6152 0.64954 6.4062 0.71875 1.3887-30.245-2.8176-37.852-6.6875-45.656 2.7935-1.9794 6.7148-4.9796 8.5-7.4688 1.1025-1.5372 2.0312-5.3125 2.0312-5.3125 3.6676-2.7707 2.4935-4.4178 3.0312-6.5625l-3.0312 2.0312c2.2614-4.5602-0.23612-8.1761-1.0312-12.125-6.1772 5.1081-12.152 10.377-21.688 12.5-4.2571-3.901-9.0593-7.0388-14.031-9.5938-21.378-10.986-37.56-9.5655-57.5-10.875-6.4771-9.5141-15.168-18.594-26.406-27.156-0.84604-2.0617-2.0716-3.9866-3.5312-5.8438l-3.2188-0.8125c1.8911 1.9157 4.0975 2.7525 2.9062 5.0312-1.9543 0.63997-2.6203-0.33811-3.8125 0.5-1.4226-2.9986-4.0223-5.3063-4.9062-5.9375-0.88397-0.63122 1.4761 2.6005 0.75 3.5625-0.7624 1.0101-2.9092 1.1632-3.7812 0.25-9.1167-1.1612 0.58482-10.367-8 0.75z"/> <path id="path3700" style="fill:#1a1a1a" d="m260.89 160.84a4.7321 5.4464 0 1 1 -0.006 -0.27008" transform="matrix(.66516 -.13759 .20256 .97927 53.28 38.222)"/> <path id="path3702" style="fill:#1a1a1a" d="m260.89 160.84a4.7321 5.4464 0 1 1 -0.006 -0.27008" transform="matrix(.66516 -.13759 .20256 .97927 31.852 43.044)"/> <path id="path3704" style="fill:#ffffff" d="m260.89 160.84a4.7321 5.4464 0 1 1 -0.006 -0.27008" transform="matrix(.19392 .0033119 -.0048758 .28549 184.86 116.04)"/> <path id="path3706" style="fill:#ffffff" d="m260.89 160.84a4.7321 5.4464 0 1 1 -0.006 -0.27008" transform="matrix(.19392 .0033119 -.0048758 .28549 206.2 111.13)"/> <path id="path3710" style="fill:#000000" d="m267.32 190.4c-13.211-1.9016-28.036 3.7555-28.214 5.7143-0.0994 1.0926-0.3742 3.2238 9.1072-0.53571-0.26722 3.1543 0.0286 6.0719 2.6786 7.1429 3.941 1.5928 8.8916-0.79766 13.036-3.5714 4.1865-2.8022 2.5014-5.8676 3.3929-8.75z"/> <path id="path3740" style="stroke:#483e37;fill:#e6e6e6" d="m246.61 147.54c-1.098 1.7701 0.7059 8.6674 4.0179 4.9107s7.4857-1.6662 8.8393-0.53572c5.0385 4.2083 7.2888-1.424 6.7857-2.6786-1.5025-3.7466-4.8155-7.5785-11.25-7.6786-3.17-0.0493-6.3428 2.6772-8.3929 5.9821z"/> <path id="path3742" style="stroke-linejoin:round;stroke:#483e37;fill:#e6e6e6" d="m226.07 151.02c-1.8852 2.7047-3.1412 5.5986-2.0536 7.3214s4.0242 1.8677 4.4643 0.80357c1.3858-3.3511 4.6483-3.3725 5.9821-3.2143 1.8309 0.2171 4.3462-1.9342 2.5893-5.0893-1.7569-3.155-7.9926-4.1106-10.982 0.17858z"/> <path id="path3610" style="fill:#e6e6e6" d="m224.41 189.61c5.596-8.7026 8.4294-19.321 24.659-16.898 1.7826-3.6656 2.5-4.6959 5.2771-7.1316 0 0-4.486-0.69594-9.803 0.33547-6.7776 1.3147-13.053 6.2067-16.711 10.357-4.3156 4.8971-4.634 9.2832-3.423 13.338z"/> <path id="path3744" style="opacity:.3;fill:#241f1c" d="m265.24 168.76c7.5686 2.6658 9.9229 15.45 0.0285 18.744-6.8082 0.0655-9.0741 0.51513-16.171 2.3735-11.018 4.0625-15.442 6.4929-15.594 11.562 0.47626 0.10296 0.97289 0.17872 1.5 0.21875 3.5423 0.26901 6.8914 0.69248 10.344-0.375-0.0668 1.2528-0.0387 2.5336 0.0312 3.8125 2.0284 1.11 6.4276 2.9957 12.656 2.7188 9.4012-0.41808 13.844-13.031 13.844-13.031l-2.9375-0.8125c-1.0142 3.4381-1.4424 6.472-7.1875 9.5938-2.9692 1.6134-3.8364 2.6957-9.5625 1.375-3.2174-0.74208-1.817-7.0833-1.2812-10.625 4.7963-1.3404 7.3559-3.7866 14.719-3.8438-0.12885 0.34939-0.26082 0.70593-0.40625 1.0625l11.125-1.5625c7.4552-15.758-4.8811-20.631-8.1194-22.151-3.2384-1.5199-11.127-2.8061-18.755-1.6603 0.20735 1.435 10.7 0.81443 15.767 2.5994z"/> <path id="path3712" style="fill:#c83737" d="m258.04 190.04c4.1404 1.4094 7.1524 4.7108 11.352 5.8242 4.1324 1.0955 9.9901-0.18558 13.826 2.3901 3.1573 2.1198 11.136-2.3777 8.3928-5.1786-2.761-2.8186-4.9811-4.9588-14.643-5.5357l-8.0357 2.8572c-3.257-0.21009-6.0643-0.48781-10.893-0.35715z"/> <path id="path3708" style="fill:#000000" d="m231.07 177.54c3.6205-4.6847 10.465-4.183 13.036-2.4107 1.3044 0.89924 1.2707 7.304-2.1428 9.7321-1.5697 1.1165-3.2324 2.595-6.4286 1.7857-3.5192-1.3958-6.0166-7.0986-4.4643-9.1072z"/> <path id="path3612" style="opacity:.3;fill:#241f1c" d="m307.84 224.88c-1.2814 4.9185-3.353 8.7669-6.0625 11.781l-1.4375-2.5c-3.2691 4.5988-6.1126 9.6642-12.125 11.062l3.2188 3.5625c-4.2645-1.1989-8.681-1.4719-12.5-5.3438 0.6119 1.5476 1.7401 3.0774-0.375 4.625-5.9852-1.0714-8.6107-2.1161-10.344-3.1875-2.0657 0.86979-3.5221 1.8818 1.4375 4.625l13.188 9.6562c-2.2167-1.5476-2.07-3.1086-2.5-4.6562 0 0 8.2277 4.3036 9.6562 5.375 1.4286 1.0714-2.1562-5.375-2.1562-5.375s5.4087 3.1505 9.0312 5.5312c1.0066 6.288 3.0449 17.385 3.6562 23.094 0.88085 8.2258 15.192 15.667 24.031 27.594 3.5892 4.0154 4.9853 11.42 5.25 19.156-5.1786-0.17857-11.793-2.8354-18.906-7.1562-1.9911-1.2095-6.9688-0.53125-6.9688-0.53125-0.3624-1.6042-3.2255-4.2798-4.4688-5.8839v4.6339l-2.5 11.25 32.719 6.25c-0.26792 4.7058-0.8144 9.0953-1.4062 12.438 3.5117-1.4764 5.8383-3.8164 5.6562-7.0938 0 0 0.27417-17.306-1.4375-25.719-4.3398-21.329-22.156-61.406-22.156-61.406l3.5625-0.90625-5.3125-0.40625 1.4-12.97 2.1562-17.156c-1.4286 2.375-2.8839 0.35934-4.3125-0.34375z"/> <path id="path3627" style="opacity:.5;fill:#483e37" d="m358.56 238.89c-5.0048 9.339-18.298 14.012-27.742 14.708 1.5293 1.8214-2.0086 3.9842 0.27679 6.2143 3.228 1.0682 6.6094 1.7676 9.8125 2-0.004 0.0223 0.004 0.0403 0 0.0625 1.5729 0.16231 2.969 0.27239 3.6562 0.3125 1.578 13.485-2.559 31.35-3.9062 46.625 9.2238 1.8682 17.129-7.5415 20.594-14.125 2.2113-4.202-4.0262-10.643-2.6875-16.625 3.6409-10.276 3.2257-23.124 4.8112-33.098-1.6897-1.1254-2.9072-2.9711-4.815-6.0747z"/> <path id="path3622" style="opacity:.3;fill:#483e37" d="m336.16 210.22c-1.0603 16.828-3.8476 32.934-9.4375 47.875 4.4059 2.0674 9.4962 3.3784 14.188 3.7188-1.8089 10.504-0.32707 12.608-5.375 24.844-6.9536 16.855-3.0408 18.359 1.25 20.719 10.841 5.9616 20.527-5.1979 24.469-12.688 2.2113-4.202-4.0262-10.643-2.6875-16.625 6.0455-27.016 3.1086-21.891 4.6562-32.844 8.1812 3.4858 8.9648 3.869 12.125 3.75 3.4425-0.0866 7.5374 0.12276 14.562-3.3125-16.354 5.0601-26.765-12.485-30.75-26.531-1.2262-4.3228-3.707-10.713-4.875-7.125-0.86829 5.9477 0.38345 12.056 1.0625 16.625-4.0969 3.5385-8.5509 7.1852-13.625 9.0625-3.0868 1.1421-0.54199-7.5916-0.4375-16.25-3.09-1.1333-5.125-11.219-5.125-11.219z"/> <path id="path3698" style="fill:#e6e6e6" d="m311.69 228.84-6.5152 10.13 1.6071 0.35715-3.0357 6.25c0.8236-0.13727 0.66603 21.246 0.71429 35.179 0.0136 3.9304 6.7857 9.6428 6.7857 9.6428 5.4076 7.1268 30.788 22.189 35.179 16.607 4.8025-6.1054 6.797-15.583-0.89286-24.643-3.1265-3.6835-14.182-9.9613-15.714-10.536 1.5264-11.929 5.4315-16.551 5.1786-28.036l1.0714 1.0714-2.9692-11.645-21.408-4.3776z"/> <path id="path3691" style="opacity:.5;fill:#241f1c" d="m379.73 173.34c6.79 7.4065 12.346 17.177 15.625 24.643 2.9195-1.07 3.0022-2.1298 4.6428-3.8393-3.915 1.8525-12.275-14.07-18.393-21.607l-1.875 0.80358z"/> <path id="path3693" style="opacity:.5;block-progression:tb;text-indent:0;color:#000000;text-transform:none;fill:#000000" d="m312.66 156.82c-1.4134-1.3113-3.5592-2.9418-3.5592-2.9418 2.4503 3.3556 3.7479 8.8598 5.004 12.365-2.1906-0.59894-4.5818-0.59592-6.9318-0.71685 0.14717 1.3362 0.0825 2.2604-0.5625 3.4688l-3.7188 3.7188c1.0279 0.58687 2.1402 2.6188 2.4012 3.3265 0.26103 0.70764 1.174 6.0178 1.174 6.0178 1.7678-1.1364 1.359-1.6167 1.6562-4.7188l-1.9962-4.4029c1.0921-0.82829 2.6325-0.63739 2.9688-2.9688l1.7307-2.1799c2.7961-0.0429 5.4448 0.0125 7.7379 0.30489 0 0-3.1988-8.7622-5.9044-11.272z"/> <path id="path3699" style="opacity:.5;fill:#280b0b" d="m276.97 187.53-8.0312 2.875c-3.257-0.21009-6.0777-0.50566-10.906-0.375 4.1404 1.4094 7.1441 4.7304 11.344 5.8438 0.41707 0.11057 0.86413 0.18144 1.3125 0.25-0.86324-1.411 1.0699-2.7439 2.9375-3.6562 3.166-1.5385 6.0384 0.63668 8.5938 0.625-2.1841-1.3874-4.5888-2.839-5.8125-3.9062 3.5766-2.0085 16.937 3.2333 12.875 7.1875-1.7594 1.7129-2.7961 2.0721-3.4688 2.4062 3.5365-0.2858 7.9282-3.527 5.7812-5.7188-2.761-2.8186-4.9633-4.9543-14.625-5.5312z"/> <path id="path3711" style="stroke:#cccccc;fill:#ffffff" d="m288.57 314.51c2.4181-0.34544-4.2857-5-5.3571-5s-5.5067 3.4985-3.5714 3.9286c1.9352 0.43005 4.2555 1.739 6.4286 1.4286l2.5-0.35714z"/> <path id="path3713" style="stroke-linejoin:round;stroke:#cccccc;fill:#ffffff" d="m293.75 313.43c-0.53571-2.6786-1.6071-5.7143-1.6071-5.7143s-2.5 2.1428-2.5 3.0357c0 0.89286 0.35714 5.7143 1.25 5.1786 0.89285-0.53571 2.6786-2.5 2.8571-2.5z"/> <path id="path3715" style="stroke-linejoin:round;stroke:#cccccc;fill:#ffffff" d="m275.71 312.9c-1.7857-0.71429-6.25-1.6072-6.6072-0.35715-0.35714 1.25 1.7857 4.1072 3.2143 3.5714 1.4286-0.53571 3.75-3.2143 3.3929-3.2143z"/> <path id="path3717" style="stroke-linejoin:round;stroke:#cccccc;fill:#ffffff" d="m308.21 295.76c-2.5 0.71429-5.3572 2.6786-3.3929 3.3929 1.9643 0.71428 6.0714 1.6071 6.4286 0.89285 0.35714-0.71428-2.8571-4.4643-3.0357-4.2857z"/> <path id="path3719" style="stroke-linejoin:round;stroke:#cccccc;fill:#ffffff" d="m311.61 304.33c-1.6071-0.35714-1.25 3.0357 0 3.0357s3.5714-2.1428 2.1429-2.3214c-1.4286-0.17857-1.9643-0.71428-2.1429-0.71428z"/> <path id="path3721" style="stroke-linejoin:round;stroke:#cccccc;fill:#ffffff" d="m315.89 300.58c-0.17857 1.4286-1.7857 2.6786-0.17857 3.3929 1.6071 0.71428 3.0357 0.89285 3.3928 0 0.35715-0.89286-2.8571-3.0357-3.2143-3.3929z"/> <path id="path3723" style="stroke-linejoin:round;stroke:#cccccc;fill:#ffffff" d="m325.36 309.33c-1.7857-0.71429-1.9643-1.7857-2.8571 0-0.89286 1.7857-2.3214 1.9643 0.35714 2.8571 2.6786 0.89286 3.2143 1.7857 3.3929 0.35714 0.17857-1.4286-0.71429-3.2143-0.89286-3.2143z"/> <path id="path3743" style="stroke:#cccccc;fill:#ffffff" d="m368.04 291.65c-2.6786 1.0714-4.4643-0.17857-3.5714 2.8571 0.89285 3.0357 5 2.6786 5.5357 1.9643 0.53571-0.71429-2.1429-4.8214-1.9643-4.8214z"/> <path id="path3747" style="stroke-linejoin:round;stroke:#cccccc;fill:#ffffff" d="m362.32 288.26c-1.7857 0.17857-3.9286-0.17857-2.1429 1.4286 1.7857 1.6071 2.5 0.89286 3.2143 0.71429 0.71428-0.17857-0.71429-1.9643-1.0714-2.1429z"/> <path id="path3749" style="stroke-linejoin:round;stroke:#cccccc;fill:#ffffff" d="m359.82 294.86c-1.4286 0.71429-3.2143 1.7857-2.5 2.6786 0.71428 0.89286 3.5714 1.9643 3.75 1.25 0.17857-0.71428-0.89286-3.5714-1.25-3.9286z"/> <path id="path3761" style="fill:#b3b3b3" d="m289.16 324.55c-5.0508 6.3134 9.5964 6.3134 9.5964 6.3134s-13.385 1.2627-14.395 0c-1.0102-1.2627 5.0508-6.0609 4.7982-6.3134z"/> </g> </g></svg>