<svg id="pet14" class="pets" width="86" height="380" viewBox="202.71499633789062 584.406982421875 144 380.0480041503906" preserveAspectRatio="xMidYMid meet" xmlns="http://www.w3.org/2000/svg"> <defs id="svgEditorDefs"> <path id="svgEditorClosePathDefs" class="lines" fill="black" style="stroke-width: 0px; stroke: none;"/> <pattern id="pattern-0" x="0" y="0" width="20" height="20" patternUnits="userSpaceOnUse" viewBox="0 0 100 100"> <path d="M 0 0 L 50 0 L 50 100 L 0 100 Z" style="fill: black;"/> </pattern> </defs> <g transform="matrix(0.052138, 0, 0, 0.057087, 229.693237, 876.153381)" style=""> <g id="layer3" transform="translate(1804.6 614.29)"> <path id="path7318" style="fill:#aa831d" d="m-1582.2 325.35 117.68-217.06 248.44-57.533 31.382-104.61 57.533-65.379 52.304 57.533 44.457 62.764 71.262 38.11 203.33 181.56 26.152 141.22-2.6151 36.612-57.534 196.14-28.767 60.149 5.2303 20.921-20.921 15.691h-47.073-18.306l20.921-251.06-156.91-183.06-245.82 36.612-91.53 13.076h-15.691v-20.921l-122.91 18.306-41.842 7.8455z"/> <path id="path7322" style="fill:#b2ae9a" d="m-1508.9 573.79 52.304 2.6151 10.46 75.84 10.461 41.842 112.45 33.997-13.076 31.382-36.612 31.382-26.152 7.8455-41.842-31.382-49.688-109.84-23.537-49.688z"/> <path id="path7324" style="fill:#aa831d" d="m-1464.5 576.4 26.152 122.91 183.06 36.612 149.06-39.227 28.766-156.91-172.6 39.227-112.45-7.8455-18.306 67.994-20.921-65.379z"/> <path id="path7334" style="fill:#ffffff" d="m-1281.4 152.75 81.07 128.14-109.84-31.382z"/> <path id="path7336" style="fill:#ffffff" d="m-1503.7 212.9-54.918 91.53 54.918-7.8454z"/> <path id="path7338" style="fill:#ffffff" d="m-1558.6 283.51 28.766-57.534 33.997-15.691-7.845 75.84-54.918 15.691-7.846-20.921z"/> <path id="path7340" style="fill:#ffffff" d="m-1268.4 157.98 32.237-6.5828 213.37 113.22-275.63 21.328z"/> <path id="path7342" style="fill:#b61313" d="m-1006.8 11.53 135.99 115.07 115.07 86.3 26.152 162.14v36.612l-49.216 151.99-29.239 70.294 2.6152 36.612 39.227-52.303 31.382-36.612-15.691-15.691 15.691-23.536 10.461-18.306 18.306 13.076 15.691-133.37-20.921-5.2303-2.6151-26.152 5.2303-28.767 20.921 7.8455-5.2303-125.53-13.076-5.2303-18.306 2.6152-20.921-23.536-7.8455-33.997 18.306-2.6151-96.761-96.761-20.921 26.152-26.152-10.461-15.691-31.382-5.2304-18.306z"/> <path id="path7345" style="fill:#967726" d="m-1432 106.98-13.903-75.075-25.025-83.416 55.611 13.903 61.172 19.464 66.733 58.391 22.245 25.025-108.44 19.464z"/> <path id="path7347" style="fill:#aa831d" d="m-939.82 15.22 272.49-233.57 597.82-94.538 339.23 75.075-189.08-22.244 47.269-22.244 44.489-94.538-8.3417-66.733 36.147 25.025 50.05 55.611-52.83 114 83.416 25.025 108.44 308.64 8.3416 542.21 8.3416 50.05-63.952 97.319-2.7805-94.538-125.12-63.952 75.075-22.244-147.37-172.39-372.59-11.122 47.269 133.47-208.54 294.74-16.683-111.22-241.91 16.683 72.294-33.366 183.52-225.22-30.586-75.075h-111.22l-114 180.74-50.05-47.269-2.7805-25.025 8.3416-119.56 55.611-13.903-52.83-33.366-5.5611-136.25 33.366-36.147-72.294-13.903-86.197-91.758 19.464-58.391-72.294 27.805z"/> <path id="path7349" style="fill:#d3ceb8" d="m-650.65 590.79 33.366-72.294 77.855-111.22 116.78 5.5611 33.366 72.294-139.03 166.83z"/> <path id="path7351" style="fill:#d3ceb8" d="m-237.09 416.27 40.479 95.414 303.59-89.632-245.76-11.565z"/> <path id="path7353" style="fill:#d3ceb8" d="m193.72 618.66-11.565 89.632 161.92 66.501-2.8914-112.76z"/> <path id="path7355" style="fill:#d3ceb8" d="m-190.83 653.36 5.7827 57.827 127.22 14.457-8.674-46.261z"/> <path id="path7357" style="fill:#d3ceb8" d="m-665.01 742.99 2.8914 121.44 263.11-23.131-14.457-121.44z"/> <path id="path7359" style="fill:#835c31" d="m-160.49 521.82 29.645 82.802-12.267 15.334-43.956 31.69 39.868 12.267 78.713 13.289v48.046l43.956-59.29-7.1557-187.07z"/> <path id="path7361" style="fill:#a59f85" d="m-971.13 777.38 87.913-28.623v94.046l-220.8 14.311-2.044-32.712z"/> <path id="path7363" style="fill:#785f1f" d="m-885.26 744.67 4.089 82.802 40.89-61.335 26.578-65.424-31.69-9.2001 2.0445 24.534 3.0668 27.601-2.0445 16.356-17.378-10.222z"/> </g> <g id="layer4" transform="translate(1804.6 614.29)"> <path id="path7366" style="opacity:0.201;fill:#000000" d="m-692.22 300.94 118.41 173.06h173.06l-100.19 145.73-45.541 22.77-136.62-77.42-31.879-27.325 22.77-127.51 50.095-18.216-59.203-40.987z"/> <path id="path7368" style="opacity:0.201;fill:#000000" d="m-214.04 455.78 86.528-45.541 81.974 9.1082 109.3-100.19 132.07 9.1082 136.62 245.92-36.433 77.42 54.649 22.77-13.662 63.757l-154.85-63.77 13.67-59.2 77.42-27.33-145.74-177.61-173.05 72.87-154.84 36.43z"/> <path id="path7372" style="opacity:0.201;fill:#000000" d="m-159.39 524.09 77.42-36.433 31.879 122.96-18.216 63.757v22.77l-113.85-13.662v-45.541l45.541-31.879z"/> <path id="path7374" style="opacity:0.201;fill:#000000" d="m-446.3 332.81 113.85 132.07-195.83 259.58 4.5541 68.312h118.41l132.07-132.07-109.3 182.16-282.35 9.1082-4.5541-113.85 91.082-27.325 186.72-218.6z"/> <path id="path7376" style="opacity:0.201;fill:#000000" d="m-537.38 232.62 72.866-195.83 214.04 59.203-195.83-9.1082z"/> <path id="path7379" style="opacity:0.201;fill:#000000" d="m-746.87 223.52 81.974-40.987-36.433 40.987 13.662 109.3 4.5541 27.325 50.095 36.433-68.312 13.662-9.1082 132.07 40.987 50.095-72.866-9.1082-54.649 77.42-27.325 18.216-22.77 9.1082 9.1082 72.866-50.095-54.649 22.77-18.216h50.095l13.662-31.879 13.662-59.203 54.649-182.16-18.216-173.06z"/> <path id="path7381" style="opacity:0.201;fill:#000000" d="m-883.5 537.75 91.082-50.095v-40.987l-54.649-68.312 45.541-100.19 36.433 27.325-59.203-59.203 36.433-68.312 45.541 77.42 18.216 113.85-18.216 86.528-59.203 154.84-9.1082 72.866-45.541 9.1082-40.987 4.5541z"/> <path id="path7642" style="opacity:0.916;fill-rule:evenodd;color:#000000;enable-background:accumulate;fill:#890101" d="m-1332.5 753.37 66.204 14.949 53.39-14.949 68.339 12.814 29.898-6.407 4.272-61.933-177.26 42.712-40.576-2.135z"/> </g> <g id="layer2" transform="translate(1804.6 614.29)"> <path id="path7313" style="fill:#000000" d="m-869.76 846.64-239.51 16.531-13.094-60.398 21.176 16.639 6.158 25.867 26.494-0.6266 0.626-34.316 19.664-4.5379 3.912 36.455 67.334-9.0758-4.6899-48.556 22.689-12.101 6.9365 59.512 56.853-3.6519-0.2595-78.549 18.152-7.5631z"/> <path id="path7378" style="fill:#000000" d="m-1599.5 326.07 125.66-227.9 249.2-66.026 26.624-101.17 60.702-84.13 45.792 118.21 75.611 109.69-53.247 2.1299-53.247-87.325-14.909-87.325-43.663 70.286-18.104 95.845-270.5 61.767-100.1 187.43z"/> <path id="path7380" style="fill:#000000" d="m-1439.8 98.174-20.234-95.845-28.753-68.156 82 14.909 150.16 89.455-29.818 25.559-76.676-64.961-55.377-30.883 44.665 51.848 17.102 61.036-25.559 10.649-22.364-69.221-48.59-52.182 26.561 57.173 8.185 66.36z"/> <path id="path7382" style="fill:#000000" d="m-1138.7-148.35 120.99 148.78 66.821 30.245 201.17 178.25 29.818 193.82-76.676 236.42-2.1299-55.377l61.76-191.68-31.95-170.39-200.8-179.32-71.01-35.862-88.1-114.12z"/> <path id="path7384" style="fill:#000000" d="m-924.37 166.33 187.43 198.08-8.5195-59.637z"/> <path id="path7386" style="fill:#000000" d="m-1037.3 170.59 230.03 266.24-19.169 268.37 29.818-36.208 10.649-227.9z"/> <path id="path7390" style="fill:#000000" d="m-1637.9 328.2 611.28-80.936 159.74 185.3-23.429 328-219.38 76.676-29.818-51.117 66.026-317.35-174.65 51.117-217.25-29.818-36.208 4.2598-83.066 36.208z"/> <path id="path7392" style="fill:#d3ceb8" d="m-1605.9 355.89 34.078 144.83 72.416-36.208 44.728-4.2597 200.21 34.078 217.25-76.676-63.896 359.95 8.519 19.169 181.04-61.767 23.429-285.4-153.35-170.39-342.91 42.598z"/> <path id="path7388" style="fill:#000000" d="m-1552.7 302.64 183.17-23.429-95.844 223.64-40.468 2.1299z"/> <path id="path7401" style="fill:#000000" d="m-1574 517.76 72.417 153.35 6.389-172.52-17.039-10.65-19.169 4.2598 14.909 104.36-38.338-87.325z"/> <path id="path7403" style="fill:#000000" d="m-1422.8 487.94 36.208 185.3 57.507-172.52-27.688-10.65-25.559 108.62-14.909-108.62z"/> <path id="path7405" style="fill:#000000" d="m-1510.1 561.7 112.88-1.3452 6.39 25.559-112.88-1.3452z"/> <path id="path7407" style="fill:#000000" d="m-1484.5 492.2 19.169 63.896 8.519-68.156z"/> <path id="path7409" style="fill:#000000" d="m-1361 562.49h127.79l164-44.728-8.519 34.078-164 36.208-123.53-2.1299z"/> <path id="path7411" style="fill:#000000" d="m-1284.3 504.98 4.259 63.897 29.819 2.1299-17.921-62.411z"/> <path id="path7413" style="fill:#000000" d="m-1203.4 564.62 2.13-66.026 10.65-2.1299 23.428 59.637z"/> <path id="path7415" style="fill:#000000" d="m-1126.7 545.45 2.13-74.546h12.779l6.39 66.026z"/> <path id="path7436" style="fill:#000000" d="m-1356.7 298.38 74.546-153.35 149.09-12.779-134.18 34.078-19.169 125.66z"/> <path id="path7438" style="fill:#000000" d="m-1501.6 306.9 10.649-106.49-29.818 17.039v-14.909l-14.91 38.338 34.079-23.429-34.079 95.845z"/> <path id="path7440" style="fill:#000000" d="m-1506 243.09-70.097 65.945 2.129 25.559 31.949 2.1299 21.299-27.688z"/> <path id="path7442" style="fill:#000000" d="m-1292.8 232.36 95.845 40.468-110.75 25.559z"/> <path id="path7444" style="fill:#9f9156" d="m-1529.3 317.55 23.429 144.83-6.39-129.92 112.88-34.078z"/> <path id="path7446" style="fill:#000000" d="m-1480.3 579.53 34.079 127.79 166.13 42.598 172.52-36.208 14.909-48.987-174.65 55.377-164-31.948-17.039-108.62z"/> <path id="path7450" style="fill:#000000" d="m-1514.3 622.13 70.286 153.35 53.248 31.948 106.49-70.286-48.988-14.909-55.377 63.897-42.597-21.299-72.416-166.13z"/> <path id="path7452" style="fill:#000000" d="m-894.55 688.15 87.325-19.169-14.909 38.338-78.806-4.2597z"/> <path id="path7458" d="m-905.2 48.496 106.49-41.907-21.84 119.27-51.88-33.845z" style="fill:#000000"/> <path id="path7462" d="m-760.46 161.62 97.149 18.288-47.306 72.93-38.823-37.868z" style="fill:#000000"/> <path id="path7466" style="fill:#000000" d="m-713.99 336.4 82.684 52.185-84.755 34.786-8.911-33.614z"/> <path id="path7470" style="fill:#000000" d="m-723.76 515.09 63.35 70.991-110.83 10.616 15.191-40.113z"/> <path id="path7454" style="fill:#000000" d="m-847.92 677.4 21.693 93.631-81.56-25.405 14.259-42.066z"/> <path id="path7460" d="m-888.82 54.943 73.727-30.624-49.151 53.19z" style="fill:#ffffff"/> <path id="path7464" d="m-748.4 174.45 69.093 8.0912-45.872 24.944z" style="fill:#ffffff"/> <path id="path7468" style="fill:#ffffff" d="m-707.99 352.96 50.424 32.932-51.103 0.4248z"/> <path id="path7472" style="fill:#ffffff" d="m-725.14 532.1 38.531 47.116-53.035-18.452z"/> <path id="path7456" style="fill:#ffffff" d="m-853.51 705.41 11.199 49.155-37.614-40.904z"/> <path id="path7484" style="fill:#000000" d="m-1159 756.31-48.712 78.922-61.707-78.677 58.818-10.336z"/> <path id="path7486" style="fill:#ffffff" d="m-1177.5 766.69-30.371 56.83 0.355-56.543z"/> <path id="path7488" style="fill:#000000" d="m-1037.3-1.9305 176.78 38.338-25.559 14.909-146.96-40.468z"/> <path id="path7490" style="fill:#000000" d="m-817.88 61.966 97.975 110.75h-25.559l-78.806-93.715z"/> <path id="path7492" style="fill:#000000" d="m-687.95 217.45 6.3896 142.7-17.039-8.5195-2.1299-119.27z"/> <path id="path7494" style="fill:#000000" d="m-687.95 407.01-12.779 136.31-14.909-12.779 17.039-121.4z"/> <path id="path7496" style="fill:#000000" d="m-734.81 583.79-72.416 97.975 2.1299-25.559 59.637-74.546z"/> <path id="path7498" style="fill:#000000" d="m-1313.8 749.17 71.203 11.484 4.594 20.672-98.766-22.969z"/> <path id="path7500" style="fill:#000000" d="m-1173.7 762.95 39.047-13.781 18.375-4.5937 2.297 22.969v13.781l-66.61-6.8907z"/> <path id="path7601" style="opacity:0.916;fill-rule:evenodd;color:#000000;enable-background:accumulate;fill:#000000" d="m-968.39 16.143 287.71-247.94 594.13-91.225 369.58 77.19 109.94 325.13 24.342 581.92-72.933 129.85-181.09-74.527 30.859-106.27 67.834-25.73l-217.54-273.67 17.841-7.69 243.26 286.33-67.68 29.1 103.94 37.71 40.76-46.5-10.64-523.5-119.3-308.76-327.47-67.84-580.1 81.87-266.65 238.59z"/> <path id="path7603" style="opacity:0.916;fill-rule:evenodd;color:#000000;enable-background:accumulate;fill:#d3ceb8" d="m207.05 630.24-16.05 66.608 30.495 14.445 27.285-57.781z"/> <path id="path7605" style="opacity:0.916;fill-rule:evenodd;color:#000000;enable-background:accumulate;fill:#d3ceb8" d="m252.79 653.52-20.063 60.991 28.088 8.8275 35.31-56.978z"/> <path id="path7607" style="opacity:0.916;fill-rule:evenodd;color:#000000;enable-background:accumulate;fill:#d3ceb8" d="m303.35 671.97-28.088 55.373 52.163 24.075 12.84-62.596z"/> <path id="path7609" style="opacity:0.916;fill-rule:evenodd;color:#000000;enable-background:accumulate;fill:#ffffff" d="m345.08 688.83 50.558-57.781-0.8025 32.903-53.768 89.881z"/> <path id="path7611" style="opacity:0.916;fill-rule:evenodd;color:#000000;enable-background:accumulate;fill:#000000" d="m131.61 411.96-364.34-20.865 12.84 44.94 300.14-12.84-282.48 67.411 10.643 50.052 326.41-109.44 9.6301-3.2101z"/> <path id="path7613" style="opacity:0.916;fill-rule:evenodd;color:#000000;enable-background:accumulate;fill:#000000" d="m-25.68 479.37 8.7924 191.51-48.336 63.967-120.03-19.446-12.166-69.108 60.991-41.73-38.52-73.831 25.68-14.445 27.285 97.906-54.571 38.52 101.23 19.26 14.259-35.112-8.3381-49.118 15.779-5.439 7.0801 57.569-16.05 33.705-1.605 37.264 32.1-45.289-9.6301-181.37z"/> <path id="path7615" style="opacity:0.916;fill-rule:evenodd;color:#000000;enable-background:accumulate;fill:#ada890" d="m-175.75 661.54 4.0126 37.718 29.693 6.4201-4.0126-36.915z"/> <path id="path7617" style="opacity:0.916;fill-rule:evenodd;color:#000000;enable-background:accumulate;fill:#ada890" d="m-134.02 669.57 0.9304 33.868 27.157 3.047-4.8151-29.693z"/> <path id="path7619" style="opacity:0.916;fill-rule:evenodd;color:#000000;enable-background:accumulate;fill:#ada890" d="m-99.511 677.59 0.80251 28.89 23.401 6.5128-1.7329-31.391z"/> <path id="path7621" style="opacity:0.916;fill-rule:evenodd;color:#000000;enable-background:accumulate;fill:#000000" d="m-321 209.73 32.1-16.05 110.75 357.92-208.65 298.53-280.88 12.84-1.605-126.8 77.041-27.285 184.58-224.7-59.386-138.03 28.89-27.285 64.201 173.34-192.6 226.31-86.671 25.68v110.75l248.78-22.47 203.84-287.3z"/> <path id="path7623" style="opacity:0.916;fill-rule:evenodd;color:#000000;enable-background:accumulate;fill:#000000" d="m-659.66 734.57h8.0251l247.17-19.26 14.445 117.17-28.89 17.655-4.8151-115.56-242.36 14.445z"/> <path id="path7625" style="opacity:0.916;fill-rule:evenodd;color:#000000;enable-background:accumulate;fill:#000000" d="m-587.44 742.59 6.42 115.56 28.89-3.21-22.47-115.56z"/> <path id="path7627" style="opacity:0.916;fill-rule:evenodd;color:#000000;enable-background:accumulate;fill:#000000" d="m-516.82 739.38 32.1 104.33 19.26-3.2101-32.1-107.54z"/> <path id="path7629" style="opacity:0.916;fill-rule:evenodd;color:#000000;enable-background:accumulate;fill:#000000" d="m-417.3 721.73 41.73-44.94 70.621-64.201 11.235 14.445-81.856 83.461-28.89 27.285z"/> <path id="path7631" style="opacity:0.916;fill-rule:evenodd;color:#000000;enable-background:accumulate;fill:#000000" d="m-431.27 385.03-106.68 9.0794-113.49 172.51-52.206-36.317v13.619l36.317 43.127-37.257-2.8333 153.02 70.928 20.429 6.8095 15.889-34.048-120.3-52.206 104.41-145.27 122.57 4.5396z"/> <path id="path7633" style="opacity:0.916;fill-rule:evenodd;color:#000000;enable-background:accumulate;fill:#000000" d="m-544.76 239.76 31.778 15.889 74.905-158.89 211.09-2.2698-231.52-27.238z"/> <path id="path7635" style="opacity:0.916;fill-rule:evenodd;color:#000000;enable-background:accumulate;fill:#000000" d="m101.49-270.95 67.444-101.82-26.262-110.9 114.79 114.47-51.881 124.2-24-5.5157 54.476-113.49-70.365-70.365 20.429 68.095-61.286 102.14z"/> <path id="path7639" style="opacity:0.916;fill-rule:evenodd;color:#000000;enable-background:accumulate;fill:#000000" d="m-948.79 764.09 63.555-18.159"/> <path id="path7315" style="fill:#000000" d="m-870.65 844.86 49.845-71.804 22.888-105.75-25.67 19.253-8.8408 64.914-5.3953 8.6514-39.243 54.786z"/> <path id="path7383" style="opacity:0.201;fill:#000000" d="m-1097.5 633.38 141.18-132.07 68.312-13.662-4.5541 250.48 13.662 59.203-209.49 40.987-36.433-54.649z"/> <path id="path7387" style="opacity:0.201;fill:#000000" d="m-1443.6 410.23 191.27 59.203 223.15-50.095-232.26 86.528 209.49-54.649-4.554 45.541-223.15 54.649-72.866-13.662-27.324 104.74-13.663-72.866 27.325-77.42-50.095-9.1082 4.554 45.541-50.095-18.216-45.541 18.216-13.662 72.866-40.987-95.636h-22.771v-36.433l63.757-22.77 27.325 36.433 45.541-13.662z"/> <path id="path7389" style="opacity:0.201;fill:#000000" d="m-1466.4-45.176 54.649 36.433 72.866 45.541 27.324 45.541-86.528 9.1082-31.879 22.77-4.554-45.541-4.554-45.541z"/> <path id="path7391" style="opacity:0.201;fill:#000000" d="m-1516.5 214.41 40.987-91.082 100.19-31.879 68.311 168.5-54.649 54.649-36.433-13.662h-145.73l-4.554 40.987-50.095-4.5541 59.203-100.19z"/> <path id="path7393" style="opacity:0.201;fill:#000000" d="m-1616.7 341.92 31.879 173.06 72.866-36.433 132.07-182.16-141.18 4.5541-18.216 9.1082v27.325z"/> <path id="path7395" style="opacity:0.201;fill:#000000" d="m-1461.9 464.88v104.74l-45.541 4.5541h91.082l22.77 4.5541 13.663 81.974 22.77-86.528 63.758 9.1082 36.432 63.757-9.108 81.974-59.203-9.1082-40.987 68.312h-31.879l-36.433-27.325-72.865-127.51-72.866-127.51z"/> <path id="path7424" style="fill:#000000" d="m-1181.2 365.31-1.381 15.294 15.886-4.7058-2.763-13.529z"/> <path id="path7426" style="fill:#000000" d="m-1149.4 362.95-2.072 14.118h15.886l-0.691-14.118z"/> <path id="path7428" style="fill:#000000" d="m-1177 389.42 4.835 13.529 14.505-6.4705-8.979-10.588z"/> <path id="path7430" style="fill:#000000" d="m-1141.1 386.48-8.288 4.1177 6.907 9.4117 14.504-5.8823z"/> <path id="path7432" style="fill:#000000" d="m-1121.1 369.42-2.072 12.941h15.195l-2.763-14.118z"/> </g> </g></svg>