<svg class="pets" width="86" height="380" viewBox="202.715 584.407 167 380.048" xmlns="http://www.w3.org/2000/svg"><g transform="matrix(-.52009 .1756 .17748 .52564 369.021 806.68)"><path d="M72.2.01c-1.198.102-2.01 1.082-2.313 1.75-.303.668-.4 1.24-.468 1.875-.137 1.271-.09 2.728 0 4.219.089 1.49.239 3.01.343 4.281s.14 2.404.125 2.562c-.03.34-.09.69-.156 1a7.211 7.211 0 0 1-.562 1.625c-.148.314-.24.5-.313.625-.141.243-.38.549-.687.97-.2.27-.274.362-.188.25a2.143 2.143 0 0 0-.031.062l-14.344-3.563a2.143 2.143 0 0 0-2.312 3.25c.463.713.827 1.086 1.28 1.563-2.947.063-4.768-.723-6.374-1.22a2.143 2.143 0 0 0-2.281 3.407c1.17 1.428 1.297 1.857 1.562 2.344l-1.875.781c-.691-.578-1.38-1.145-2.125-1.75-.868-.706-1.76-1.454-2.687-2.187-2.13-1.685-4.396-3.418-6.532-5.094-.672-.527-1.606-.915-2.593-.813-.988.102-1.755.652-2.25 1.22-.992 1.133-1.376 2.444-1.688 3.874-.624 2.86-.705 6.15-.062 8.656l3.437 13.47c-1.27 5.91-1.853 11.986-2.187 18.093-.018.297-.012.349 0 .157-.1 1.841-.214 3.678-.282 5.53a2.143 2.143 0 0 0 1.25 2.032c-.756 5.115-1.33 9.993-1.25 14.156a2.143 2.143 0 0 0 3.844 1.281c.033-.043.061-.053.094-.093.321.8.651 1.581.937 2.28.228.551.478 1.167.688 1.657.063.15.153.417.312.781a2.143 2.143 0 0 0 .188.344 2.143 2.143 0 0 0 .031.031c1.58 3.574 2.964 6.242 4.562 8.188 1.673 2.035 3.705 3.322 5.97 3.812a2.143 2.143 0 0 0 .03 0c.313.068.58.117.844.156.254.036.576.067.938.094 2.643.2 5.389.547 8.312.156.006.221.023.442.031.657.01.218.052.432.063.625.678 12.26 6.568 24.91 8.594 34.719a2.143 2.143 0 0 0 3.875.75 62.225 62.225 0 0 0 4.156 9.812 2.143 2.143 0 0 0 2.875.906c.468.565 1.11 1.419 1.906 2.782 1.91 3.272 3.986 7.699 7 10.188a2.143 2.143 0 0 0 3.469-2.157c-.43-1.783-.355-1.77-.406-2.406 17.165 23.896 22.405 53.067 24.938 71.75.032.24-.243 2.83-.813 5.25s-1.304 4.984-1.781 6.5c-.453 1.44-.385 2.98.156 4.281.542 1.3 1.482 2.369 2.594 3.22 2.224 1.7 5.209 2.734 8.563 3.405 6.707 1.344 14.85 1.101 20.75-1.375a2.143 2.143 0 0 0 .03-.03c.443-.188.896-.373 1.376-.626a2.143 2.143 0 0 0 .03-.031c.895-.476 1.747-1.031 2.5-1.688a2.143 2.143 0 0 0 0-.03c.204-.18.215-.194.032-.032.901-.796 1.691-1.743 2.219-2.844.004-.008-.004-.023 0-.031 0-.002.03-.026.031-.031.001-.004-.002-.026 0-.031.137-.296.086-.683.188-1 .004.095.023.237 0 .406.02-.16.035-.283.03-.375-.003-.088.007-.082 0-.125.252-.819.501-1.647.47-2.563h.062s.335-17.169-1.5-26.188c-.639-3.139-1.81-6.93-2.906-10.625.54.252 1.087.553 1.625.782.033.014.06.048.094.062a31.85 31.85 0 0 0 2.343 1.406c1.747.961 3.507 1.56 5.25 1.813.061.009.142.017.25.031a2.143 2.143 0 0 0 .032 0c-.032-.004.048.01.25.031.385.042.613.026.718.031.42.024.956.064 1.563.032a14.4 14.4 0 0 0 1.094-.094c.36-.047.729-.112 1.093-.188.186-.04.226-.052.125-.03a16.21 16.21 0 0 0 1.97-.532c.354-.125.685-.273 1-.406.824-.35 1.588-.76 2.312-1.188.524-.31.981-.641 1.406-.937-.207.144-.125.128.187-.094a25.7 25.7 0 0 0 1.532-1.187c.442-.368.89-.76 1.343-1.188.16-.15.25-.25.25-.25.362-.348.722-.699 1.094-1.094.148-.156.273-.295.375-.406.318-.348.571-.685.813-.969.162-.19.342-.393.531-.625.155-.19.37-.419.625-.75.15-.195.247-.33.281-.375.279-.37.516-.728.75-1.062.243-.346.468-.666.688-1 .168-.258.061-.105.03-.063.009-.011.025-.02.032-.031.314-.48.637-.99.938-1.5-.072.122.002.02.125-.187.015-.025-.018-.001 0-.032.266-.458.53-.895.75-1.312.193-.367.138-.75.25-1.125 1.157 1.792 2.447 3.246 3.906 4.25 2.776 1.91 5.946 2.298 8.844 1.844 5.795-.908 10.86-4.816 13.656-7.22 2.563-2.203 2.83-5.574 2.875-8.843.044-3.238-.213-6.68.156-9.719 3.578-10.995 6.509-21.35 10.938-32.812.364-.943.473-2.043.125-3-.348-.957-1.031-1.57-1.594-1.937-.707-.46-.884-.478-1.219-.625.774-17.045-.186-27.155-1.969-34.156-.075-.297-.135-.568-.218-.875-.313-1.144-.652-2.128-1-3.125 2.754-2.266 5.232-5.165 7.469-8.781a2.143 2.143 0 0 0-1.282-3.188l1.563-7.344a2.143 2.143 0 0 0 0-.812 2.143 2.143 0 0 0 0-.031c.972-1.082 1.708-2.143 1.937-3.157.342-1.508.196-2.41.344-3a2.143 2.143 0 0 0-2.19-2.66c-.024-.894-.04-1.8-.219-2.593-.501-2.237-1.32-4.14-1.656-5.813a2.143 2.143 0 0 0-3.47-1.22c-5.968 4.935-11.43 9.611-19.812 11.75-.248-.22-.49-.437-.75-.656-.184-.156-.283-.257-.312-.281a60.639 60.639 0 0 0-1.688-1.344c-.508-.393-1.03-.752-1.5-1.094-.026-.019-.102-.112-.25-.219-.492-.354-1.01-.72-1.562-1.094l-.188-.125a67.766 67.766 0 0 0-1.625-1.062c-.126-.08-.207-.106-.187-.094a2.416 2.416 0 0 0-.157-.093c-.534-.333-1.06-.67-1.625-1a66.729 66.729 0 0 0-1.718-.97c.419.263.568.54.562.532-.006-.008-.176-.29-.625-.562-.012-.008-.018.008-.031 0-.025-.015-.005-.017-.031-.032a80.284 80.284 0 0 0-1.875-1c-21.457-11.026-38.024-9.843-57.344-11.03-6.476-9.297-14.976-18.166-25.844-26.5-.17-.372-.324-.75-.5-1.094-.098-.19-.202-.393-.313-.594-.17-.312-.336-.66-.562-1.031a2.143 2.143 0 0 0-.031 0c.182.297.174.274-.032-.063a29.28 29.28 0 0 0-.968-1.469 35.214 35.214 0 0 0-1.125-1.5c-2.656-3.38-5.944-6.417-9.157-9.375l-.062-.03-6.375-6.376v.031c-.005-.005-.026.005-.031 0-.598-.598-1.256-1.374-2.72-1.25zM175.35 146.2c2.01.848 4.198 1.804 5.406 2.187.842.268 1.6.406 2.344.5-.644 4.323-.834 8.123-3.594 12.312-3.244 4.924-5.97 9.168-7.656 13.25-.547 1.324-.772 2.649-1.063 3.97-.059-.69-.04-1.355.094-1.97.002-.01-.002-.021 0-.03 1.591-4.582 2.391-9.496 2.938-14.407h.03c.011-.058-.01-.067 0-.125 1.415-8.099 1.103-10.272 1.25-13.656.072-.696.168-1.352.25-2.03zm-31.25 14.531a34.1 34.1 0 0 0 1.219.281c.304.065.419.072.375.063.169.035.339.062.5.093.363.07.768.177 1.219.25.477.08.894.108 1.312.157-.569 3.953-.932 7.046-1.344 9.812-.991-.607-2.084-1.292-2.937-1.781-.932-.535-1.398-.73-2.031-1.063a68.138 68.138 0 0 1 1.687-7.812z"/><path d="M72.39 2.14c-1.93.164-.175 10.469-.375 12.75-.307 3.497-2.147 5.336-3.219 6.781l-15.73-3.9c1.035 1.591 3.858 3.459 2.344 4.625-5.092.835-9.025.002-9.844-1.062 3.467 4.233 3.184 5.376 1.438 5.343l-3.75 1.625c-3.402-2.92-8.027-6.48-12.312-9.843-3.044-2.389-4.195 6.91-3.22 10.719l3.563 13.938c-1.708 7.684-2.202 15.783-2.5 23.938l2.157-3.938c-1.313 7.465-2.265 14.43-2.157 20 2.903-3.767 2.935-1.17 3.594 0 5.001 12.622 7.452 16.028 12.844 16.438 3.542.27 6.892.693 10.344-.375-.675 12.653 6.248 26.86 8.594 38.22 1.071-3.215 2.656-3.032 2.656-3.032 1.114 5.263 3.141 9.166 5.188 13.031 2.24-4.177 6.635 9.41 11.25 13.219-1.54-6.382-.477-5.595 1.25-7.313 19.404 24.945 24.848 56.31 27.5 75.875.31 2.295-1.7 9.55-2.688 12.688-3.41 10.845 35.57 12.89 34.844-.187 0 0 .274-17.306-1.437-25.719-4.34-21.329-22.156-61.406-22.156-61.406l10-2.5c5.18 4.343 13.348 7.133 20.562 7.656-1.81 10.504-.327 12.608-5.375 24.844-6.954 16.855-3.041 18.36 1.25 20.72 10.84 5.96 20.527-5.199 24.469-12.689 2.211-4.202-4.027-10.643-2.688-16.625 6.046-27.016 3.109-21.89 4.656-32.844 8.182 3.486 8.965 3.87 12.125 3.75-1.077 5.12-.624 9.982-4.28 15.531-6.47 9.82-10.663 16.682-8.376 23.562 6.098 18.348 20.394 8.328 25.72 3.75 3.436-2.955 1.467-10.586 2.312-17.312 3.603-11.05 6.553-21.546 11.062-33.219.967-2.504-1.75-2.562-2.844-3.562 1.142-22.81-.822-33.052-3.5-40 2.952-2.098 5.649-5.277 8.125-9.282l-2.031-.25 2.03-9.593-3.28 1-9.844 7.53c-5.705-10.675-14.705-17.842-24.375-22.811-21.378-10.986-37.56-9.566-57.5-10.875-6.477-9.514-15.168-18.594-26.406-27.156-2.306-5.62-7.406-10.31-12.5-15l-6.438-6.406c-.443-.444-.786-.649-1.062-.625z" fill="#e6e6e6"/><path d="M28.8 22.22c-.108 2.991-.957 6.786 0 6.786 4.829.431 5.853 5.428 8.571 8.393l5-6.608s-13.26-17.195-13.57-8.571zM72.55 4.54c-.319 8.873 0 20.357 0 20.357l12.68.17c-1.579-3.196-.743-6.693-5.714-9.464-1.253-2.315-3.505-1.668-3.036-7.857 0 0-3.847-5.498-3.929-3.215z" opacity=".3" fill="#241f1c"/><path d="M68.79 21.67l-15.72-3.9c1.035 1.591 3.858 3.459 2.344 4.625-5.092.834-9.025.002-9.844-1.063 3.467 4.233 3.184 5.377 1.437 5.344l-3.75 1.625c-1.906-1.637-4.19-3.49-6.593-5.375l4.37 6.96c-1.654.118-4.023.031-4.782 4.281h-2.28c1.304 2.456 1.713 4.614 0 6.063l-3.126 5.187c-1.33 6.99-1.794 14.281-2.062 21.625l2.156-3.937c-1.313 7.464-2.265 14.43-2.156 20 2.903-3.767 2.935-1.17 3.594 0 .762 1.925 1.43 3.576 2.093 5.094l3.032-13c-2.736-1.01-3.063 1.405-4.532-3.406l-1.156.25 4.563-18.188c5.55-8.998 10.54.173 14 3.812.826.87 4.675-.539 5.375-2.562l1.562-7.563c2.774-8.025 11.992-4.547 17.312-1.875 9.092 4.992 13.716 10.281 15.031 16.781.841 4.155-3.535 5.857-6.687 7.563l2.53 1.28 5.907-.624c-.181 1.946-1.334 3.538-2.5 5.156 2.444-.84 4.93-1.66 6.063-3.156l-.532 6.062c2.325-.562 3.86-2.572 7.72-.375l.75 1.906 1.405-2.53c2.803 2.903 2.973 5.814 4.282 8.718l1.906-6.062 1 2.156c3.117-2.113 5.314-1.526 7.812-1.781 5.016 7.985.718 15.407.656 23.094 2.452-1.126 4.423-2.687 5.532-5.157l-.5 3.407c3.095-1.73 6.373-3.359 7.843-6.063l-.125 6.938 2-2.032c.618 2.02.22 4.043-.5 6.063l4.938-2.5-.875 5.406 2.25-1.875c5.827 7.37 7.298 15.955 7.094 25l2.625-5.062c1.768-3.825 3.544-9.497 5.312-11.22.907-6.986-.332-13.981-1.375-20.968 2.307-.166 3.495.965 3.781 3.156l.625-2.656c2.084-1.3 4.393-.76 6.813.625.462 4.268.926 8.546 3.031 11.5l4.688-6.688c2.792 3.574 3.43 7.765 3.906 12l2.781-2.906c1.084 3.378 3.564 5.35 6.313 7.062l-.25-5.687c.801 1.667 1.617 3.306 3.406 3.656 0 0 9.333 16.93 13.5 17.812 2.221.471 4.615.65 6.406.719 1.389-30.245-2.818-37.852-6.688-45.656 2.794-1.98 6.715-4.98 8.5-7.469 1.103-1.537 2.032-5.312 2.032-5.312 3.667-2.771 2.493-4.418 3.03-6.563l-3.03 2.031c2.261-4.56-.236-8.176-1.032-12.125-6.177 5.108-12.152 10.377-21.688 12.5-4.257-3.9-9.059-7.039-14.03-9.594-21.379-10.986-37.56-9.565-57.5-10.875-6.478-9.514-15.169-18.594-26.407-27.156-.846-2.061-2.071-3.986-3.53-5.843l-3.22-.813c1.892 1.916 4.098 2.753 2.907 5.031-1.955.64-2.62-.338-3.813.5-1.422-2.998-4.022-5.306-4.906-5.937-.884-.631 1.476 2.6.75 3.562-.762 1.01-2.91 1.164-3.781.25-9.117-1.16.585-10.367-8 .75z" fill="#4d4d4d"/><path d="M69.623 57.722a5.446 3.214 78.313 1 1-.058-.264M48.195 62.544a5.446 3.214 78.313 1 1-.058-.264" fill="#1a1a1a"/><path d="M44.898 60.712a.918 1.555.978 1 1 0-.077M66.238 55.802a.918 1.555.978 1 1 0-.077" fill="#fff"/><path d="M77.55 88.29c-13.211-1.902-28.036 3.755-28.214 5.714-.1 1.093-.374 3.224 9.107-.535-.267 3.154.029 6.071 2.679 7.142 3.94 1.593 8.891-.797 13.036-3.57 4.186-2.803 2.501-5.869 3.393-8.75z"/><path d="M56.84 45.43c-1.098 1.77.706 8.667 4.018 4.91s7.486-1.666 8.84-.535c5.038 4.208 7.288-1.424 6.785-2.679-1.503-3.746-4.816-7.578-11.25-7.678-3.17-.05-6.343 2.677-8.393 5.982z" stroke="#483e37" fill="#e6e6e6"/><path d="M36.3 48.91c-1.885 2.705-3.141 5.599-2.054 7.321s4.025 1.868 4.465.804c1.385-3.351 4.648-3.373 5.982-3.214 1.83.217 4.346-1.935 2.59-5.09-1.758-3.155-7.994-4.11-10.983.179z" stroke-linejoin="round" stroke="#483e37" fill="#e6e6e6"/><path d="M34.64 87.5c5.596-8.703 8.43-19.321 24.659-16.898 1.783-3.666 2.5-4.696 5.277-7.132 0 0-4.486-.696-9.803.336-6.778 1.315-13.053 6.207-16.71 10.357-4.317 4.897-4.635 9.283-3.424 13.338z" fill="#e6e6e6"/><path d="M75.47 66.65c7.569 2.666 9.923 15.45.028 18.744-6.808.065-9.074.515-16.17 2.373C48.308 91.83 43.884 94.26 43.732 99.33c.477.103.973.18 1.5.22 3.543.268 6.892.692 10.344-.376-.066 1.253-.038 2.534.032 3.813 2.028 1.11 6.427 2.995 12.656 2.719 9.4-.419 13.844-13.031 13.844-13.031l-2.938-.813c-1.014 3.438-1.442 6.472-7.187 9.594-2.97 1.613-3.837 2.696-9.563 1.375-3.217-.742-1.817-7.083-1.281-10.625 4.796-1.34 7.356-3.787 14.719-3.844-.129.35-.26.706-.406 1.063l11.125-1.563c7.455-15.758-4.881-20.631-8.12-22.151-3.238-1.52-11.127-2.806-18.755-1.66.208 1.435 10.7.814 15.767 2.6z" opacity=".3" fill="#241f1c"/><path d="M68.27 87.93c4.14 1.41 7.152 4.71 11.352 5.824 4.132 1.096 9.99-.185 13.826 2.39 3.157 2.12 11.136-2.377 8.393-5.178-2.761-2.819-4.981-4.96-14.643-5.536l-8.036 2.857c-3.257-.21-6.064-.488-10.893-.357z" fill="#c83737"/><path d="M41.3 75.43c3.62-4.685 10.465-4.183 13.036-2.41 1.304.899 1.27 7.303-2.143 9.731-1.57 1.117-3.232 2.595-6.428 1.786-3.52-1.396-6.017-7.099-4.465-9.107z"/><path d="M118.07 122.77c-1.281 4.918-3.353 8.767-6.063 11.781l-1.437-2.5c-3.27 4.599-6.113 9.664-12.125 11.062l3.219 3.562c-4.265-1.198-8.681-1.471-12.5-5.343.612 1.547 1.74 3.077-.375 4.625-5.985-1.072-8.61-2.116-10.344-3.188-2.066.87-3.522 1.882 1.437 4.625l13.188 9.656c-2.216-1.547-2.07-3.108-2.5-4.656 0 0 8.228 4.304 9.656 5.375 1.43 1.072-2.156-5.375-2.156-5.375s5.409 3.15 9.031 5.531c1.007 6.288 3.045 17.385 3.657 23.094.88 8.226 15.192 15.667 24.03 27.594 3.59 4.016 4.986 11.42 5.25 19.156-5.178-.178-11.792-2.835-18.905-7.156-1.991-1.21-6.97-.531-6.97-.531-.362-1.604-3.225-4.28-4.468-5.884v4.634l-2.5 11.25 32.72 6.25c-.269 4.706-.815 9.095-1.407 12.438 3.512-1.476 5.838-3.816 5.656-7.094 0 0 .274-17.306-1.437-25.719-4.34-21.329-22.156-61.406-22.156-61.406l3.562-.906-5.312-.406 1.4-12.97 2.156-17.156c-1.429 2.375-2.884.359-4.313-.344z" opacity=".3" fill="#241f1c"/><path d="M168.79 136.78c-5.005 9.339-18.298 14.012-27.742 14.708 1.53 1.821-2.009 3.984.277 6.214 3.228 1.068 6.61 1.768 9.812 2-.004.023.004.04 0 .063 1.573.162 2.97.272 3.656.312 1.578 13.485-2.559 31.35-3.906 46.625 9.224 1.868 17.13-7.541 20.594-14.125 2.212-4.202-4.026-10.643-2.687-16.625 3.64-10.276 3.225-23.124 4.811-33.098-1.69-1.125-2.907-2.97-4.815-6.074z" opacity=".5" fill="#483e37"/><path d="M146.39 108.11c-1.06 16.828-3.848 32.934-9.438 47.875 4.406 2.067 9.497 3.378 14.188 3.719-1.808 10.504-.327 12.608-5.375 24.844-6.953 16.855-3.04 18.359 1.25 20.719 10.841 5.961 20.527-5.198 24.47-12.688 2.21-4.202-4.027-10.643-2.688-16.625 6.045-27.016 3.109-21.891 4.656-32.844 8.181 3.486 8.965 3.869 12.125 3.75 3.443-.087 7.538.123 14.562-3.313-16.354 5.06-26.765-12.485-30.75-26.53-1.226-4.324-3.707-10.714-4.875-7.126-.868 5.948.384 12.056 1.063 16.625-4.097 3.539-8.551 7.185-13.625 9.063-3.087 1.142-.542-7.592-.438-16.25-3.09-1.134-5.125-11.22-5.125-11.22z" opacity=".3" fill="#483e37"/><path d="M121.92 126.73l-6.515 10.13 1.607.357-3.036 6.25c.824-.137.666 21.246.714 35.18.014 3.93 6.786 9.642 6.786 9.642 5.408 7.127 30.788 22.189 35.18 16.607 4.802-6.105 6.796-15.583-.894-24.643-3.126-3.684-14.182-9.961-15.714-10.536 1.527-11.93 5.432-16.551 5.179-28.036l1.071 1.071-2.969-11.645-21.408-4.377z" fill="#e6e6e6"/><path d="M189.96 71.23c6.79 7.406 12.346 17.177 15.625 24.643 2.92-1.07 3.002-2.13 4.643-3.84-3.915 1.853-12.275-14.07-18.393-21.606l-1.875.803z" opacity=".5" fill="#241f1c"/><path style="block-progression:tb;text-indent:0;text-transform:none" d="M122.89 54.71c-1.413-1.311-3.56-2.942-3.56-2.942 2.451 3.356 3.749 8.86 5.005 12.365-2.19-.599-4.582-.596-6.932-.717.147 1.337.082 2.26-.563 3.47l-3.718 3.718c1.028.587 2.14 2.619 2.4 3.326.262.708 1.175 6.018 1.175 6.018 1.768-1.136 1.359-1.616 1.656-4.719l-1.996-4.402c1.092-.829 2.632-.638 2.969-2.97l1.73-2.18c2.796-.042 5.445.013 7.738.306 0 0-3.199-8.762-5.904-11.272z" opacity=".5" color="#000"/><path d="M87.2 85.42l-8.031 2.875c-3.257-.21-6.078-.506-10.906-.375 4.14 1.41 7.144 4.73 11.344 5.844.417.11.864.181 1.312.25-.863-1.411 1.07-2.744 2.938-3.656 3.166-1.539 6.038.636 8.594.625-2.185-1.388-4.59-2.84-5.813-3.907 3.577-2.008 16.937 3.234 12.875 7.188-1.76 1.713-2.796 2.072-3.469 2.406 3.537-.286 7.928-3.527 5.781-5.719-2.76-2.818-4.963-4.954-14.625-5.53z" opacity=".5" fill="#280b0b"/><path d="M98.8 212.4c2.418-.345-4.286-5-5.357-5s-5.507 3.498-3.572 3.929c1.936.43 4.256 1.739 6.43 1.428l2.5-.357z" stroke="#ccc" fill="#fff"/><path d="M103.98 211.32c-.536-2.679-1.607-5.714-1.607-5.714s-2.5 2.142-2.5 3.035c0 .893.357 5.715 1.25 5.179.893-.536 2.678-2.5 2.857-2.5zM85.94 210.79c-1.786-.714-6.25-1.607-6.607-.357-.357 1.25 1.785 4.107 3.214 3.571 1.429-.535 3.75-3.214 3.393-3.214zM118.44 193.65c-2.5.714-5.357 2.679-3.393 3.393 1.964.714 6.071 1.607 6.429.893.357-.715-2.857-4.465-3.036-4.286zM121.84 202.22c-1.607-.357-1.25 3.036 0 3.036s3.571-2.143 2.143-2.322c-1.429-.178-1.964-.714-2.143-.714zM126.12 198.47c-.179 1.429-1.786 2.679-.179 3.393 1.608.714 3.036.893 3.393 0 .357-.893-2.857-3.036-3.214-3.393zM135.59 207.22c-1.786-.714-1.964-1.786-2.857 0-.893 1.786-2.322 1.964.357 2.857 2.679.893 3.214 1.786 3.393.357.179-1.428-.714-3.214-.893-3.214z" stroke-linejoin="round" stroke="#ccc" fill="#fff"/><path d="M178.27 189.54c-2.679 1.071-4.464-.179-3.571 2.857.892 3.036 5 2.679 5.535 1.964.536-.714-2.143-4.821-1.964-4.821z" stroke="#ccc" fill="#fff"/><path d="M172.55 186.15c-1.786.179-3.929-.179-2.143 1.429 1.786 1.607 2.5.892 3.214.714.715-.179-.714-1.964-1.071-2.143zM170.05 192.75c-1.429.714-3.214 1.786-2.5 2.679.714.892 3.571 1.964 3.75 1.25.179-.715-.893-3.572-1.25-3.929z" stroke-linejoin="round" stroke="#ccc" fill="#fff"/><path d="M99.39 222.44c-5.05 6.313 9.596 6.313 9.596 6.313s-13.385 1.263-14.395 0c-1.01-1.262 5.051-6.06 4.799-6.313z" fill="#b3b3b3"/></g></svg>