<svg id="pet18" class="pets" width="86" height="380" viewBox="202.71499633789062 584.406982421875 167 380.0480041503906" preserveAspectRatio="xMidYMid meet" xmlns="http://www.w3.org/2000/svg"> <defs id="svgEditorDefs"> <path id="svgEditorClosePathDefs" class="lines" fill="black" style="stroke-width: 0px; stroke: none;"/> <pattern id="pattern-0" x="0" y="0" width="20" height="20" patternUnits="userSpaceOnUse" viewBox="0 0 100 100"> <path d="M 0 0 L 50 0 L 50 100 L 0 100 Z" style="fill: black;"/> </pattern> </defs> <g transform="matrix(0.184666, 0, 0, 0.184666, 233.28009, 865.34021)"> <g id="Feet" stroke="#000" stroke-width="8" fill="#FB9797"> <path d="m662.78 487.92s-16.804-0.753-22.496 2.128c-5.189 0.262-16.402 11.925-18.865 15.214-5.018 6.706-4.877 14.834-0.726 17.444 4.152 2.611 11.209-0.966 15.761-7.99 0 0 0.637-1.473 1.505-3.694 0.067 1.778 0.186 3.238 0.319 4.109 1.223 8.028-0.027 8.203 12.098 11.786s7.403-8.891 5.612-16.779-1.196-2.806-2.95-6.295c2.064 0.955 3.831 1.66 4.847 1.971 7.642 2.35 15.252-0.771 16.603-5.714 1.35-4.94-3.89-10.4-11.71-12.18z"/> <path d="m397.92 492.76s-29.728 0.965-36.195 5.364c-6.467 4.4-4.408 4.969-4.571 8.772-0.816 18.979 22.812 8.247 32.021 0-5.326 3.989-29.556 17.01-8.334 21.623 21.222 4.612 19.317-17.88 19.317-17.88s-5.703 22.174 12.232 17.88c17.934-4.294 9.605-29.106 9.605-29.106l-24.08-6.64z"/> </g> <g id="Body"> <path stroke="#000" stroke-width="8" d="m660.4 287.08c0 115.39 107.6 231.25-149.58 231.99-227.98 0.659-131.09-116.6-131.09-231.99s20.27-206.46 131.09-208.93c105.08-2.345 149.58 93.54 149.58 208.93z" fill="#DC8B3C"/> </g> <g id="Tummy"> <path d="m614.28 384.02c0 60.058 38.001 109.58-93.24 108.74-131.24-0.833-93.24-48.688-93.24-108.74 0-60.059 59.498-108.01 93.24-108.75s93.24 48.69 93.24 108.75z" fill="#FDFDCB"/> </g> <g id="Eyes_1_"> <ellipse cy="152.89" cx="428.04" rx="48.32" ry="45.377" fill="#040203"/> <ellipse cy="141.07" cx="417.27" rx="19.619" ry="20.116" fill="#FDFDFD"/> <ellipse cy="166.92" cx="442.12" rx="6.538" ry="7.017" fill="#FDFDFD"/> <ellipse cy="141.2" cx="585.18" rx="48.319" ry="45.377" fill="#040203"/> <ellipse cy="133.56" cx="576.96" rx="19.619" ry="20.116" fill="#FDFDFD"/> <ellipse cy="159.91" cx="599.26" rx="6.538" ry="7.017" fill="#FDFDFD"/> </g> <g id="Cheeks" stroke="#000" stroke-width="8" fill="#DC8B3C"> <path d="m455.35 194.26c-12.749-14.018-31.643-22.958-52.792-23.07-38.617-0.205-70.078 29.059-70.27 65.363-0.192 36.302 30.956 65.899 69.573 66.104 20.926 0.111 39.748-8.432 52.633-22.058"/> <path d="m572.09 268.94c12.822 13.95 31.764 22.79 52.914 22.79 38.617 0 69.922-29.43 69.922-65.734 0-36.303-31.305-65.734-69.922-65.734-20.926 0-39.703 8.643-52.516 22.337"/> </g> <g id="Seed"> <path stroke="#000" stroke-width="3" d="m547.98 336.93c-8.859-74.916-31.136-67.023-31.136-67.023s-17.521-8.021-31.136 67.023c-13.615 75.044 31.136 67.023 31.136 67.023s39.99 7.9 31.14-67.02z" fill="#FDFDFD"/> <path d="m525.39 400.6c-19.174 0 6.883 2.358-19.174 0-15.599-16.248 0-111.54 0-111.54s10.188-37.925 19.174 0c-3.97-10.41 19.17 111.54 0 111.54z" fill="#030303"/> <path d="m205.09 400.06" fill="#FDFDFD"/> </g> <g id="Hands"> <path stroke="#000" stroke-width="5" d="m395.77 332.91c-1.272 4.16-1.978 8.602-2.02 13.216-0.001 0.146-0.015 0.29-0.015 0.438 0 23.835 17.784 43.156 39.722 43.156s88.188-36.642 39.723-43.156c-31.823-4.277-29.524-21.542-30.402-32.897" fill="#DC8B3C"/> <path stroke="#000" stroke-width="5" d="m640.97 328.63c3.539 5.565 5.551 11.958 5.551 18.758 0 21.539-20.195 39-45.109 39s-76.068-41.01-45.111-39c52.686-2.059 42.759-19.539 39.184-30.387" fill="#DC8B3C"/> <path stroke="#FC9A99" stroke-width="9" d="m156.98 317" fill="none"/> <path stroke="#FC9A99" stroke-width="9" d="m131.76 312" fill="none"/> <path stroke="#000" stroke-width="4" d="m469.36 344.53s7.68-16.816 22.68-13.408-3.773 18.408-3.773 18.408 23.007-3 23.391 11c0.383 14-23.391 0-23.391 0s24.773 21 9.773 28-28.68-19.068-28.68-19.068" fill="#FD9A95"/> <path stroke="#000" stroke-width="5" d="m573.99 343.12s-1.274-8.966-18.332-9.438c-17.058-0.471 6.278 19.567 6.278 19.567s-8.021-8.541-19.923 1.133c-11.902 9.673 15.692 15.319 15.692 15.319s-21.898 4.825-13.997 14.496c7.9 9.671 31.945-11.806 31.945-11.806" fill="#FF9899"/> </g> <g id="Ears_1_" stroke="#000" stroke-width="9" fill="#D17B7C"> <path d="m447.83 89.86c0.279-0.195 0.552-0.397 0.832-0.59-9.166-11.799-23.232-21.292-36.018-23.997-23.308-4.933-60.17 4.773-65.874 27.704-4.01 16.083 94.24-20.021 101.06-3.117z"/> <path d="m575.15 87.894c7.459-14.549 101.31 15.459 93.979-7.201-9.297-21.538-40.453-28.803-69.587-16.227-12.201 5.267-22.1 13.182-28.817 22.181 1.54 0.188 3.02 0.621 4.43 1.247z"/> </g> <g id="Mouth" fill="#DC8B3C"> <path stroke="#000" stroke-width="4" d="m540.38 207.58c-11.193 0-21.022 4.84-26.666 12.142-5.642-7.302-15.472-12.142-26.665-12.142-17.509 0-31.704 11.835-31.704 26.435 0 14.599 14.195 26.434 31.704 26.434 11.193 0 21.023-4.84 26.665-12.141 5.644 7.301 15.473 12.141 26.666 12.141 17.509 0 31.704-11.835 31.704-26.434 0.02-14.6-14.18-26.44-31.69-26.44z"/> <rect y="198.27" x="461.48" height="38.655" width="105.88"/> </g> </g></svg>