<svg id="pet13" class="pets" width="86" height="380" viewBox="202.71499633789062 584.406982421875 144 380.0480041503906" preserveAspectRatio="xMidYMid meet" xmlns="http://www.w3.org/2000/svg"> <defs id="svgEditorDefs"> <path id="svgEditorClosePathDefs" class="lines" fill="black" style="stroke-width: 0px; stroke: none;"/> <pattern id="pattern-0" x="0" y="0" width="20" height="20" patternUnits="userSpaceOnUse" viewBox="0 0 100 100"> <path d="M 0 0 L 50 0 L 50 100 L 0 100 Z" style="fill: black;"/> </pattern> </defs> <g transform="matrix(-0.499502, 0, 0, 0.517572, 112.391258, 712.863037)" style=""> <g transform="matrix(1, 0, 0, 1, 139.393097, 678.499512)"> <path d="M -511.46 -284.438 L -498.55 -280.25 L -482.152 -284.088 L -470.987 -290.717 C -470.987 -290.717 -473.081 -291.415 -472.034 -291.067 C -470.987 -290.717 -452.495 -301.882 -445.518 -299.44 L -429.468 -298.044 L -412.372 -302.232 L -397.02 -316.885 L -388.996 -330.492 L -388.996 -343.053 C -388.996 -343.053 -380.971 -343.749 -382.715 -337.47 C -384.46 -331.191 -384.111 -330.143 -384.111 -330.143 L -382.366 -330.841 C -382.366 -330.841 -377.831 -322.467 -388.298 -310.255 C -398.765 -298.044 -384.11 -316.885 -384.11 -316.885 C -384.11 -316.885 -380.273 -309.209 -388.298 -301.184 L -391.438 -292.113 L -399.811 -284.787 L -399.463 -282.693 L -409.581 -275.367 L -416.21 -272.924 L -416.559 -270.134 L -419.35 -267.691 C -419.35 -267.691 -420.746 -262.458 -418.303 -261.062 C -415.861 -259.666 -406.092 -258.968 -406.092 -258.968 L -397.021 -261.411 L -393.184 -262.807 L -387.253 -249.2 L -380.972 -239.082 L -374.692 -235.243 L -371.203 -226.172 L -375.738 -223.731 L -378.878 -221.987 L -384.461 -220.939 C -384.461 -220.939 -398.418 -227.22 -400.859 -233.849 L -414.117 -230.708 L -429.119 -231.406 L -445.168 -234.197 L -449.356 -241.176 L -456.682 -247.456 L -465.754 -245.362 L -474.128 -238.035 L -484.595 -233.499 L -487.735 -230.359 L -494.364 -227.568 L -499.249 -223.73 L -510.414 -222.334 L -520.183 -224.775 L -519.834 -221.287 L -526.115 -221.985 L -525.069 -217.449 L -530.651 -218.496 L -534.489 -215.356 L -544.607 -219.542 L -553.33 -223.73 L -557.168 -223.381 L -564.146 -223.73 L -574.613 -218.497 L -578.102 -218.847 L -579.847 -220.939 L -578.8 -224.081 L -581.941 -219.195 L -585.778 -221.637 L -586.476 -224.777 L -584.033 -230.36 L -580.893 -234.896 L -569.728 -236.989 L -560.307 -237.687 L -557.865 -239.083 L -557.865 -241.177 L -559.958 -246.41 L -559.261 -254.434 L -557.516 -259.319 L -545.654 -259.319 L -532.744 -268.39 L -526.115 -278.857 L -524.37 -282.695 L -520.183 -281.997 L -516.345 -282.347 L -512.856 -285.138 L -511.471 -284.458" fill="#FFFFFF"/> <path d="M -508.668 -283.038 C -509.606 -283.08 -510.543 -282.926 -511.46 -282.797 L -510.893 -283.038 C -511.46 -283.038 -512.005 -282.797 -512.397 -282.402 L -512.397 -282.316 C -514.925 -280.441 -516.17 -277.148 -515.384 -274.093 C -514.904 -272.307 -513.466 -271.042 -511.676 -270.322 C -513.138 -268.035 -512.767 -264.761 -510.652 -263.061 C -504.349 -258.002 -494.298 -255.342 -487.843 -261.317 C -487.625 -259.723 -485.508 -259.615 -484.332 -259.2 C -482.194 -258.461 -480.495 -260.312 -478.531 -260.944 C -477.725 -261.208 -476.853 -260.924 -476.003 -260.751 C -472.645 -260.118 -469.33 -258.722 -466.169 -260.619 C -462.068 -263.084 -459.234 -266.767 -457.207 -270.912 C -454.546 -272.523 -451.602 -273.746 -449.836 -276.536 C -448.331 -278.872 -448.746 -281.924 -450.096 -284.235 L -450.075 -284.3 C -450.204 -284.801 -450.533 -285.216 -450.968 -285.499 L -451.251 -285.674 C -452.297 -286.527 -453.584 -287.002 -454.872 -287.331 C -455.263 -289.204 -455.81 -290.994 -456.922 -292.631 C -458.514 -295.007 -461.327 -296.183 -464.051 -296.295 C -465.207 -296.316 -466.144 -295.377 -466.168 -294.222 C -466.168 -293.066 -465.252 -292.128 -464.096 -292.108 C -462.329 -292.062 -460.497 -291.17 -460.018 -289.534 C -459.08 -286.372 -457.336 -283.472 -454.131 -282.599 L -453.193 -281.967 L -454.108 -283.164 L -453.694 -282.339 C -453.259 -281.071 -452.561 -279.722 -453.738 -278.389 C -455.787 -276.035 -458.992 -275.447 -460.846 -272.743 C -463.246 -269.208 -465.492 -264.935 -469.657 -263.867 C -474.193 -264.413 -479.296 -266.638 -483.264 -263.149 C -485.554 -263.867 -487.581 -266.222 -490.133 -264.672 C -492.487 -263.256 -494.843 -261.512 -497.654 -262.23 C -501.428 -263.191 -506.639 -263.366 -508.341 -267.289 C -507.011 -270.279 -507.905 -274.073 -511.46 -274.837 C -511.373 -276.035 -511.46 -277.388 -510.564 -278.347 L -509.388 -279.482 L -510.893 -278.85 L -509.039 -278.85 L -508.668 -278.85 C -507.513 -278.85 -506.575 -279.786 -506.575 -280.944 C -506.585 -282.084 -507.52 -283.024 -508.675 -283.024" fill="#D7A972"/> <polyline points="-507.278 -281.998 -496.108 -280.948 -484.248 -283.738 -470.288 -292.118 -464.358 -294.558 -456.338 -286.878 -450.748 -279.898 -456.678 -273.618 -462.958 -266.298 -471.338 -261.408 -483.268 -263.158 -487.738 -262.808 -494.718 -260.018 -504.138 -261.758 -510.413 -265.598 -510.064 -269.438 -512.507 -272.918 -512.507 -278.508 -509.018 -281.298" fill="#D7A972"/> <path d="M -602.371 -277.498 C -600.495 -274.642 -597.726 -272.46 -594.259 -271.72 C -592.231 -271.283 -590.289 -271.304 -588.306 -271.654 C -583.465 -272.525 -578.646 -273.794 -574.786 -276.78 C -573.891 -277.543 -573.805 -278.852 -574.546 -279.745 C -575.309 -280.618 -576.64 -280.705 -577.512 -279.963 C -580.455 -277.565 -584.293 -276.977 -587.87 -275.888 C -589.527 -275.385 -591.359 -275.558 -593.145 -275.799 C -595.807 -276.17 -597.77 -278.067 -599.186 -280.202 C -599.929 -281.098 -601.259 -281.183 -602.131 -280.443 C -603.023 -279.723 -603.111 -278.393 -602.371 -277.513" fill="#E8E7DD"/> <polyline points="-414.468 -267.688 -407.488 -264.548 -400.158 -268.038 -391.438 -269.788 -386.208 -267.688 -382.718 -257.578 -379.228 -250.598 -372.948 -247.798 -370.158 -242.568 -373.998 -238.038 -378.878 -237.688 -385.858 -246.408 -388.998 -255.828 -391.088 -258.968 -395.978 -260.018 -402.598 -258.268 -410.628 -259.318 -416.908 -260.358 -420.748 -264.548 -416.208 -267.338" fill="#E8E7DD"/> <polyline points="-557.166 -260.708 -560.306 -249.898 -560.306 -247.458 -566.935 -246.058 -573.564 -247.458 -579.146 -249.198 -589.962 -246.408 -590.311 -240.828 -584.729 -235.938 -580.891 -234.898 -571.471 -237.338 -563.795 -237.338 -558.561 -236.638 -557.864 -241.178 -560.306 -247.458" fill="#E8E7DD"/> <polyline points="-556.817 -309.908 -553.676 -314.798 -546.001 -317.238 -539.721 -317.928 -534.138 -319.328 -528.207 -321.418 -524.718 -327.358 -522.276 -326.658 -522.276 -320.718 -520.182 -319.328 -519.485 -318.278 -524.369 -310.608 -529.952 -309.558 -540.07 -311.298 -548.443 -308.858 -552.63 -305.718 -559.259 -309.908" fill="#E8E7DD"/> <polyline points="-596.591 -294.208 -579.844 -300.838 -572.517 -307.118 -562.399 -309.208 -554.723 -307.118 -552.63 -306.068 -541.814 -311.298 -534.138 -309.908 -528.207 -308.858 -519.136 -310.958 -512.158 -316.888 -512.158 -310.958 -516.344 -305.718 -509.715 -309.208 -514.6 -300.838 -512.158 -299.438 -513.902 -296.298 -515.298 -294.208 -525.765 -288.628 -532.394 -283.388 -538.325 -272.918 -547.746 -268.038 -556.468 -266.298 -562.05 -266.648 -578.797 -266.298 -586.124 -261.058 -591.358 -263.158 -590.311 -267.338 -591.358 -270.478 -597.29 -273.968 -602.174 -278.158 -602.872 -282.348 -596.591 -294.208" fill="#FFFFFF"/> <path d="M -557.515 -265.478 L -544.49 -269.665 C -544.49 -269.665 -531.464 -278.963 -530.534 -284.551 C -529.603 -290.138 -530.999 -290.6 -530.999 -290.6 L -524.486 -289.67 L -524.3 -280.649 L -531.463 -269.198 L -539.929 -261.669 L -547.745 -258.034 L -556.676 -258.598 L -557.514 -264.181" fill="#ED1C24"/> <path d="M -417.058 -267.628 C -416.929 -268.151 -416.774 -268.675 -416.644 -269.198 L -416.579 -269.09 C -416.534 -269.44 -416.6 -269.788 -416.754 -270.114 L -416.972 -270.593 C -416.994 -270.636 -416.994 -270.66 -417.016 -270.701 L -417.256 -271.159 C -417.43 -271.509 -417.735 -271.813 -418.084 -272.009 L -419.371 -272.512 C -420.372 -272.555 -421.399 -272.664 -422.402 -272.405 L -423.209 -272.164 L -422.008 -272.208 L -422.88 -272.425 C -425.346 -274.998 -429.14 -275.217 -432.3 -273.405 C -433.566 -272.665 -435.245 -272.642 -436.641 -271.967 L -437.01 -271.815 C -437.404 -271.662 -437.753 -271.379 -437.971 -271.009 L -438.494 -270.157 C -439.452 -267.694 -440.566 -265.295 -442.659 -263.594 C -444.207 -262.329 -446.301 -262.025 -446.998 -259.624 C -447.477 -258.012 -447.127 -256.333 -445.777 -255.263 C -443.987 -253.847 -442.243 -252.693 -439.998 -252.146 C -439.431 -251.995 -439.017 -251.535 -438.908 -250.968 C -438.188 -247.196 -433.958 -245.691 -430.686 -246.17 C -428.768 -244.339 -425.759 -242.966 -423.337 -244.187 C -421.418 -245.168 -419.304 -245.277 -417.363 -246.17 C -416.753 -246.454 -416.164 -246.737 -415.575 -247.064 L -415.291 -247.172 C -414.943 -247.304 -414.659 -247.545 -414.44 -247.85 L -413.656 -248.983 C -413.089 -250.204 -413.351 -251.579 -412.959 -252.779 C -412.544 -254.021 -411.062 -254.437 -410.189 -255.395 C -409.317 -256.159 -409.23 -257.488 -409.97 -258.361 C -410.735 -259.233 -412.064 -259.322 -412.936 -258.578 C -415.313 -256.88 -417.888 -254.523 -417.232 -251.273 L -417.8 -250.335 L -416.928 -251.011 L -418.127 -250.446 C -418.103 -250.446 -418.083 -250.467 -418.062 -250.467 C -420.437 -249.399 -423.034 -248.984 -425.454 -248.003 C -427.809 -248.548 -429.489 -250.446 -432.258 -250.314 C -432.89 -250.294 -434.133 -250.467 -434.482 -251.297 C -435.18 -252.931 -435.943 -254.632 -437.533 -255.547 C -439.278 -256.573 -441.263 -256.857 -442.746 -258.252 C -442.811 -258.296 -442.637 -258.775 -442.441 -258.861 C -438.603 -260.605 -436.486 -264.381 -434.851 -267.998 L -434.459 -268.743 L -435.439 -267.932 L -434.566 -268.304 C -432.278 -268.958 -429.965 -269.635 -427.786 -270.614 C -426.456 -270.071 -425.43 -269.025 -424.145 -268.413 L -423.053 -268.152 C -422.662 -268.045 -422.248 -268.065 -421.855 -268.196 L -420.852 -268.393 L -420.894 -268.393 C -420.59 -268.371 -420.262 -268.371 -419.958 -268.347 L -420.154 -268.37 L -420.96 -269.218 L -420.743 -268.762 L -420.785 -268.869 L -420.568 -268.392 L -420.743 -269.415 L -418.998 -268.392 C -419.652 -268.653 -420.285 -268.892 -420.938 -269.153 C -421.375 -268.086 -420.851 -266.864 -419.761 -266.45 C -418.701 -266 -417.481 -266.52 -417.061 -267.62" fill="#D7A972"/> <path d="M -434.328 -270.228 C -434.328 -270.228 -414.93 -272.921 -418.652 -264.548 C -422.256 -256.438 -404.49 -262.713 -412.372 -253.847 C -419.815 -245.473 -429.119 -246.406 -429.119 -246.406 L -436.562 -249.197 L -442.727 -257.571 L -436.562 -267.802" fill="#D7A972"/> <path d="M -526.09 -252.098 C -525.961 -252.621 -525.807 -253.146 -525.677 -253.668 L -525.612 -253.561 C -525.567 -253.91 -525.632 -254.259 -525.786 -254.583 L -526.004 -255.063 C -526.025 -255.107 -526.025 -255.129 -526.047 -255.172 L -526.287 -255.63 C -526.461 -255.979 -526.766 -256.284 -527.116 -256.479 L -528.403 -256.982 C -529.404 -257.026 -530.43 -257.134 -531.433 -256.875 L -532.24 -256.634 L -531.039 -256.677 L -531.911 -256.896 C -534.376 -259.469 -538.171 -259.687 -541.332 -257.876 C -542.598 -257.135 -544.277 -257.111 -545.672 -256.438 L -546.041 -256.286 C -546.436 -256.132 -546.784 -255.85 -547.002 -255.48 L -547.525 -254.627 C -548.483 -252.165 -549.597 -249.765 -551.691 -248.065 C -553.239 -246.799 -555.333 -246.494 -556.03 -244.094 C -556.508 -242.482 -556.16 -240.802 -554.809 -239.733 C -553.019 -238.317 -551.275 -237.163 -549.031 -236.617 C -548.464 -236.466 -548.05 -236.004 -547.941 -235.439 C -547.221 -231.667 -542.991 -230.162 -539.72 -230.641 C -537.801 -228.81 -534.792 -227.435 -532.37 -228.657 C -530.451 -229.637 -528.338 -229.748 -526.397 -230.641 C -525.786 -230.924 -525.197 -231.208 -524.608 -231.534 L -524.325 -231.643 C -523.976 -231.775 -523.693 -232.015 -523.473 -232.321 L -522.689 -233.453 C -522.123 -234.675 -522.384 -236.05 -521.991 -237.249 C -521.576 -238.492 -520.094 -238.907 -519.221 -239.865 C -518.349 -240.629 -518.262 -241.959 -519.002 -242.831 C -519.766 -243.703 -521.095 -243.793 -521.967 -243.048 C -524.343 -241.35 -526.918 -238.994 -526.263 -235.744 L -526.831 -234.806 L -525.959 -235.481 L -527.158 -234.915 C -527.135 -234.915 -527.115 -234.937 -527.093 -234.937 C -529.469 -233.869 -532.065 -233.453 -534.486 -232.473 C -536.841 -233.018 -538.52 -234.914 -541.289 -234.783 C -541.921 -234.762 -543.165 -234.937 -543.513 -235.767 C -544.211 -237.399 -544.974 -239.102 -546.565 -240.016 C -548.309 -241.043 -550.295 -241.327 -551.777 -242.721 C -551.843 -242.765 -551.669 -243.245 -551.472 -243.33 C -547.634 -245.075 -545.518 -248.851 -543.882 -252.468 L -543.491 -253.211 L -544.47 -252.401 L -543.598 -252.774 C -541.309 -253.428 -538.997 -254.103 -536.818 -255.084 C -535.487 -254.541 -534.462 -253.493 -533.176 -252.883 L -532.085 -252.621 C -531.693 -252.514 -531.279 -252.533 -530.887 -252.665 L -529.884 -252.862 L -529.926 -252.862 C -529.622 -252.839 -529.294 -252.839 -528.99 -252.815 L -529.186 -252.838 L -529.991 -253.688 L -529.774 -253.231 L -529.816 -253.339 L -529.6 -252.861 L -529.774 -253.884 L -528.03 -252.861 C -528.684 -253.122 -529.317 -253.361 -529.971 -253.622 C -530.407 -252.555 -529.884 -251.334 -528.793 -250.92 C -527.726 -250.49 -526.505 -251.02 -526.09 -252.11" fill="#D7A972"/> <path d="M -543.36 -254.698 C -543.36 -254.698 -523.962 -257.393 -527.684 -249.02 C -531.287 -240.909 -513.522 -247.185 -521.404 -238.318 C -528.846 -229.944 -538.151 -230.877 -538.151 -230.877 L -545.593 -233.668 L -551.758 -242.042 L -545.593 -252.274" fill="#D7A972"/> <path d="M -548.332 -310.118 C -548.332 -310.118 -530.096 -313.275 -533.817 -304.902 C -537.54 -296.529 -518.931 -302.11 -526.375 -293.737 C -533.817 -285.364 -543.122 -286.293 -543.122 -286.293 L -550.565 -289.084 L -555.072 -295.947 L -550.565 -307.692" fill="#D7A972"/> <polyline points="-581.705 -273.388 -574.541 -278.978 -564.213 -269.208 -564.772 -264.178 -571.191 -262.788 -575.193 -262.218 -581.797 -269.208" fill="#FAC9C8"/> <path d="M -391.718 -322.518 C -394.787 -318.33 -397.578 -312.749 -402.324 -310.237 L -403.44 -311.075 C -395.345 -318.611 -390.879 -328.381 -388.647 -338.708 C -388.647 -340.382 -391.718 -343.174 -388.647 -344.29 C -384.167 -337.31 -389.477 -329.22 -391.707 -322.52"/> <path d="M -384.458 -323.078 C -386.412 -321.682 -387.25 -318.612 -390.041 -318.891 C -391.994 -320.844 -388.366 -321.123 -387.529 -322.798 C -384.459 -328.381 -383.901 -335.079 -382.783 -340.942 C -379.723 -335.362 -383.073 -328.662 -384.463 -323.082"/> <path d="M -519.833 -326.148 C -519.833 -323.914 -519.554 -321.123 -521.786 -320.286 C -524.02 -321.401 -522.066 -323.914 -522.345 -325.869 C -525.695 -328.1 -524.577 -322.798 -526.811 -321.401 C -527.368 -320.843 -528.207 -320.565 -529.043 -320.286 C -530.159 -322.798 -525.973 -324.752 -526.531 -327.821 C -524.578 -330.061 -521.229 -328.381 -519.833 -326.151"/> <path d="M -379.998 -328.098 C -380.278 -323.632 -381.673 -319.446 -383.906 -315.538 C -383.069 -315.817 -382.231 -315.538 -381.114 -314.7 C -380.835 -309.118 -384.185 -304.931 -387.256 -300.745 C -387.256 -294.324 -392.279 -288.184 -397.861 -284.556 C -397.582 -280.927 -402.048 -278.973 -404.282 -277.299 L -414.608 -272.274 C -415.446 -269.484 -413.772 -267.53 -410.981 -266.971 C -406.235 -265.296 -402.328 -268.367 -398.42 -269.484 C -397.861 -269.204 -397.304 -268.367 -397.861 -267.808 C -402.048 -265.016 -407.63 -262.785 -412.655 -265.296 C -414.608 -267.529 -416.283 -264.181 -417.958 -266.134 C -419.074 -263.901 -416.562 -262.784 -415.167 -261.668 C -410.421 -258.598 -404.282 -261.389 -399.256 -261.109 C -397.86 -263.342 -395.628 -263.9 -393.674 -264.459 C -390.603 -264.738 -389.208 -261.109 -387.533 -259.156 C -385.02 -256.365 -390.045 -252.457 -385.858 -250.503 C -384.742 -245.758 -382.229 -240.734 -377.484 -237.664 C -376.089 -239.617 -373.018 -239.06 -371.901 -241.57 C -370.506 -249.107 -380.276 -246.595 -381.949 -252.735 C -381.949 -254.968 -384.741 -256.642 -383.345 -258.597 C -380.553 -256.365 -380.275 -251.619 -376.088 -249.944 C -371.9 -250.223 -371.9 -245.477 -369.39 -243.525 C -368.551 -240.455 -371.063 -238.222 -373.297 -237.104 C -373.854 -237.383 -374.133 -236.827 -374.413 -236.546 C -374.693 -235.708 -373.576 -235.708 -373.854 -234.871 C -376.925 -233.196 -379.436 -236.546 -381.949 -238.499 C -385.298 -242.686 -388.369 -247.432 -387.81 -252.734 C -389.764 -255.526 -389.485 -259.712 -392.276 -262.224 C -395.346 -261.387 -398.418 -261.108 -400.65 -259.155 C -405.674 -256.922 -412.931 -257.479 -417.397 -260.551 C -418.792 -262.504 -421.304 -264.18 -420.747 -267.25 C -420.467 -267.807 -419.631 -268.087 -419.072 -267.528 L -418.513 -266.969 C -416.839 -268.365 -416.281 -271.157 -417.117 -272.831 C -416.839 -275.622 -414.605 -274.227 -412.93 -275.063 C -408.742 -277.854 -403.719 -279.25 -399.533 -283.436 C -400.928 -284.275 -402.603 -282.599 -402.603 -284.553 C -397.02 -286.507 -392.275 -292.369 -390.042 -297.672 C -392.274 -297.112 -395.345 -293.764 -397.857 -295.159 C -391.158 -299.347 -383.344 -306.045 -383.344 -314.697 L -383.902 -315.535 C -386.972 -312.744 -387.809 -308.277 -391.996 -306.882 L -392.555 -307.441 C -387.252 -313.86 -383.065 -320.838 -381.67 -328.934 C -380.82 -328.944 -380.27 -328.664 -379.99 -328.104"/> <path d="M -533.23 -319.728 C -533.51 -317.496 -536.022 -317.775 -537.697 -316.936 C -544.116 -316.099 -553.607 -318.053 -556.398 -309.679 C -555.281 -308.843 -553.328 -307.726 -551.652 -307.167 C -541.324 -318.331 -524.577 -302.7 -515.087 -315.82 C -514.251 -316.098 -514.251 -315.26 -513.413 -314.703 C -517.042 -309.4 -522.904 -308.006 -529.044 -307.725 C -536.581 -309.4 -546.629 -311.353 -551.932 -303.818 C -556.676 -311.632 -566.167 -305.77 -572.587 -305.214 C -573.983 -304.655 -575.378 -302.144 -577.053 -304.097 C -576.495 -307.726 -572.029 -306.61 -569.796 -308.563 C -565.33 -310.238 -556.676 -306.61 -556.119 -314.146 C -550.816 -321.124 -540.767 -316.936 -534.069 -320.566 L -533.23 -319.736"/> <path d="M -518.995 -318.888 C -518.438 -316.376 -520.113 -314.7 -521.786 -313.026 C -522.624 -313.026 -523.182 -313.306 -523.461 -313.863 C -522.066 -315.533 -521.508 -320.283 -518.995 -318.883"/> <path d="M -510.622 -315.538 C -509.226 -312.467 -511.46 -310.234 -512.856 -308.003 C -514.531 -307.443 -515.926 -304.094 -517.879 -305.768 C -515.087 -308.84 -511.18 -312.747 -512.856 -317.213 C -511.739 -317.793 -510.901 -316.113 -510.622 -315.553"/> <path d="M -516.318 -287.779 C -527.891 -277.452 -505.526 -296.276 -518.976 -290.134 C -517.725 -288.738 -516.787 -287.065 -517.099 -285.669 C -509.906 -288.461 -503.023 -293.484 -495.83 -297.672 C -495.204 -297.392 -501.993 -292.134 -501.993 -291.295 C -510.438 -284.876 -512.096 -285.111 -521.167 -280.924 C -523.044 -280.924 -524.919 -280.924 -525.859 -282.32 L -527.736 -280.646 C -528.674 -280.924 -528.987 -281.761 -529.3 -282.599 C -525.234 -282.879 -528.674 -286.227 -527.736 -287.623 C -532.74 -287.064 -537.432 -288.182 -539.934 -292.089 C -538.057 -293.485 -535.867 -290.414 -533.679 -290.134 C -521.479 -289.298 -522.747 -284.577 -512.424 -288.763 C -504.917 -292.393 -527.689 -285.547 -520.493 -289.454 C -519.866 -289.464 -527.811 -288.344 -528.741 -287.784" style="stroke-width: 0.638173; vector-effect: non-scaling-stroke;"/> <path d="M -403.718 -309.398 C -411.255 -300.746 -421.861 -295.443 -433.584 -296.28 C -433.862 -297.116 -436.096 -297.116 -434.7 -298.512 C -423.256 -297.395 -412.929 -302.978 -404.554 -310.514 L -403.714 -309.404"/> <path d="M -508.948 -307.728 C -508.669 -304.377 -511.46 -301.867 -513.972 -300.192 C -514.809 -299.912 -515.926 -300.192 -515.926 -301.03 C -512.856 -302.983 -511.18 -306.333 -509.506 -308.565 L -508.948 -307.735"/> <path d="M -577.053 -302.418 C -582.077 -295.997 -590.45 -295.997 -596.871 -292.37 C -594.917 -290.694 -596.312 -288.182 -596.871 -286.227 C -597.987 -283.157 -603.57 -282.879 -601.336 -278.692 C -599.383 -275.901 -597.149 -273.388 -593.8 -272.551 C -586.263 -271.714 -580.124 -274.783 -574.541 -278.97 C -574.261 -280.646 -575.377 -282.879 -573.423 -283.716 C -571.75 -281.203 -571.471 -277.573 -568.679 -275.621 C -567.841 -274.506 -565.887 -275.9 -565.887 -273.666 C -566.166 -273.109 -566.724 -272.83 -567.562 -272.83 C -568.398 -275.9 -571.749 -273.388 -572.865 -276.737 C -573.981 -276.737 -574.54 -275.062 -575.377 -275.062 C -575.098 -271.433 -569.515 -271.433 -570.074 -268.363 C -572.865 -267.526 -575.377 -270.318 -576.493 -272.551 C -576.772 -273.388 -577.051 -275.063 -578.167 -273.947 C -580.959 -273.667 -579.004 -271.715 -579.563 -270.039 C -577.888 -266.132 -574.54 -264.457 -571.189 -262.782 C -568.677 -262.782 -566.443 -262.782 -564.77 -264.178 C -563.932 -265.853 -563.374 -267.527 -564.211 -269.2 C -564.49 -269.76 -565.327 -270.038 -565.048 -270.875 C -564.211 -272.551 -563.095 -270.596 -561.979 -270.318 C -561.42 -268.085 -561.141 -265.852 -558.07 -266.688 C -557.512 -266.688 -556.954 -266.409 -556.396 -265.852 C -554.442 -267.804 -550.813 -267.526 -548.022 -268.643 C -545.231 -269.2 -543.276 -273.387 -540.206 -271.992 L -540.206 -270.875 C -544.952 -268.085 -550.534 -263.897 -556.117 -266.131 C -556.674 -265.572 -556.117 -264.178 -557.513 -264.178 C -556.954 -262.223 -556.117 -259.99 -553.605 -259.432 C -548.022 -257.478 -545.51 -262.782 -540.766 -262.782 L -539.928 -261.666 C -544.674 -258.316 -551.093 -255.525 -556.675 -258.596 C -559.746 -255.245 -558.909 -251.059 -558.071 -247.151 C -562.537 -244.92 -568.119 -243.803 -572.586 -246.873 L -572.586 -247.711 C -568.679 -247.99 -565.049 -246.036 -561.421 -248.269 C -562.258 -253.573 -558.91 -257.76 -558.63 -262.504 L -557.514 -263.9 C -562.817 -268.925 -562.817 -259.156 -567.841 -260.551 C -571.75 -259.992 -574.261 -262.504 -577.611 -263.62 C -582.077 -262.504 -587.659 -258.037 -591.846 -262.504 C -592.126 -265.295 -591.01 -268.087 -593.242 -270.32 C -598.545 -270.597 -602.174 -275.902 -603.849 -280.367 C -602.731 -283.996 -608.036 -284.276 -607.197 -287.903 C -608.313 -290.135 -606.081 -292.649 -604.406 -293.765 C -600.219 -295.997 -594.637 -294.602 -590.45 -297.393 C -586.543 -299.626 -581.797 -299.905 -578.169 -303.534 L -577.053 -302.394"/> <path d="M -511.18 -297.398 C -512.297 -296.841 -512.855 -295.446 -514.251 -296.002 L -515.087 -297.118 C -513.692 -297.958 -510.064 -302.418 -511.18 -297.398"/> <path d="M -436.378 -298.518 C -436.378 -297.681 -436.656 -297.122 -437.215 -296.844 C -454.521 -301.588 -468.197 -292.378 -481.316 -284.003 C -482.154 -284.84 -481.316 -285.678 -481.038 -286.235 C -468.198 -295.165 -453.398 -304.375 -436.378 -298.515"/> <path d="M -535.743 -293.768 C -537.698 -292.93 -539.93 -295.721 -542.721 -295.721 C -543.838 -295.444 -544.954 -294.884 -546.35 -295.163 C -546.35 -296.839 -544.396 -296.839 -543.279 -297.676 C -540.488 -296.846 -536.86 -297.126 -535.743 -293.776"/> <path d="M -560.027 -290.698 C -559.19 -288.743 -560.863 -287.069 -561.981 -285.953 C -564.213 -285.395 -566.168 -285.395 -568.121 -286.231 C -569.796 -287.627 -570.913 -289.582 -570.076 -291.256 C -567.841 -294.046 -561.422 -296.556 -560.027 -290.696"/> <path d="M -598.824 -289.028 C -600.22 -288.748 -601.336 -289.307 -601.894 -290.424 L -600.498 -290.424 L -600.498 -291.262 L -598.544 -290.703 L -598.824 -289.023" fill="#FFFFFF"/> <path d="M -562.538 -290.138 C -562.259 -288.186 -563.934 -288.465 -565.05 -287.906 L -564.492 -291.257 C -563.934 -290.697 -562.538 -291.257 -562.538 -290.137" fill="#FFFFFF"/> <path d="M -517.6 -287.348 C -517.6 -285.952 -517.6 -284.279 -518.996 -283.44 C -520.114 -282.883 -521.509 -283.72 -521.509 -285.116 C -521.786 -287.346 -519.554 -288.186 -517.6 -287.346" fill="#FFFFFF"/> <path d="M -529.044 -286.228 C -529.044 -280.925 -533.231 -276.18 -537.976 -273.948 L -538.534 -274.508 C -535.185 -278.414 -531.836 -282.042 -530.999 -287.067 C -530.16 -287.067 -529.323 -287.067 -529.044 -286.227"/> <path d="M -591.289 -282.888 C -591.567 -281.492 -592.962 -281.77 -593.801 -282.328 C -593.801 -282.607 -594.08 -282.888 -594.359 -282.888 C -593.521 -284.558 -592.125 -283.718 -591.289 -282.888"/> <path d="M -486.618 -283.998 C -485.78 -283.72 -485.78 -282.602 -486.338 -282.044 C -492.2 -279.532 -500.294 -279.253 -506.434 -280.928 C -507.552 -281.765 -508.947 -281.765 -509.784 -282.883 L -509.505 -283.998 C -502.804 -280.928 -493.594 -282.608 -486.614 -283.998"/> <path d="M -594.637 -278.698 C -594.358 -278.139 -594.917 -277.86 -595.196 -277.58 C -596.033 -277.58 -596.871 -277.86 -597.149 -278.698 C -597.987 -280.928 -594.637 -280.088 -594.637 -278.698"/> <path d="M -524.3 -278.698 C -527.091 -273.394 -530.719 -265.3 -537.418 -264.463 L -536.86 -265.579 C -532.394 -269.487 -528.486 -274.232 -526.253 -279.535 C -525.415 -279.815 -524.3 -279.535 -524.3 -278.695"/> <path d="M -588.497 -277.858 C -588.218 -277.3 -588.775 -277.021 -589.334 -276.742 C -590.171 -276.183 -590.729 -277.021 -591.288 -277.578 C -591.566 -279.258 -589.055 -279.538 -588.497 -277.858"/> <path d="M -385.298 -267.808 C -383.623 -265.576 -381.671 -262.226 -382.786 -259.994 C -386.137 -260.831 -385.018 -265.576 -387.532 -267.53 C -389.206 -269.484 -391.997 -269.204 -393.952 -268.926 C -394.232 -268.366 -395.068 -268.647 -395.627 -268.647 C -395.906 -268.926 -396.464 -269.204 -396.184 -270.042 C -393.104 -272.262 -387.794 -271.702 -385.284 -267.792"/> <path d="M -588.775 -269.488 L -590.45 -269.488 C -590.729 -270.603 -589.613 -270.046 -588.775 -270.326 L -588.775 -269.486" fill="#FFFFFF"/> <path d="M -579.844 -265.578 C -582.914 -264.183 -585.984 -262.508 -589.334 -263.346 C -590.45 -264.742 -588.497 -266.415 -587.659 -266.974 C -585.147 -266.695 -584.31 -270.044 -581.797 -269.206 L -579.844 -265.576" fill="#E8E7DD"/> <path d="M -548.024 -253.578 C -550.257 -251.903 -550.816 -249.949 -551.373 -247.717 C -550.815 -245.483 -550.536 -242.972 -551.932 -240.739 C -553.049 -240.179 -553.607 -237.947 -555.281 -238.784 C -556.956 -240.739 -553.049 -242.414 -553.049 -244.367 C -554.445 -248.274 -552.49 -252.182 -549.699 -254.415 C -548.862 -254.975 -548.582 -253.865 -548.024 -253.585"/> <path d="M -575.099 -248.268 C -579.845 -247.71 -586.543 -248.268 -588.497 -242.408 C -588.775 -239.895 -587.102 -237.941 -585.147 -236.826 C -584.03 -237.941 -584.867 -240.174 -582.914 -241.012 C -581.797 -241.291 -581.24 -240.734 -580.401 -240.174 C -582.076 -239.337 -582.076 -237.383 -581.797 -236.546 C -574.819 -238.499 -564.772 -239.896 -557.514 -238.499 C -560.305 -234.034 -565.05 -238.222 -569.236 -237.383 C -573.423 -235.43 -580.123 -237.104 -582.076 -231.521 C -582.914 -231.521 -583.751 -231.244 -584.31 -232.081 C -582.914 -233.757 -584.03 -235.152 -585.147 -236.547 C -585.426 -235.431 -586.822 -234.593 -587.659 -235.431 C -589.613 -237.384 -591.846 -239.897 -591.009 -242.687 C -589.613 -246.596 -585.706 -249.108 -582.076 -249.945 C -579.844 -249.665 -576.495 -250.785 -575.099 -248.265"/> <path d="M -455.918 -246.038 C -457.313 -244.922 -460.662 -246.038 -462.896 -245.201 C -467.641 -244.363 -470.432 -239.618 -474.619 -237.665 L -475.457 -238.501 C -470.711 -244.363 -464.013 -248.55 -456.476 -247.434 L -455.916 -246.044"/> <path d="M -444.748 -236.548 C -436.375 -232.918 -426.606 -230.407 -416.278 -232.082 C -414.603 -230.128 -412.928 -232.918 -410.975 -231.803 C -410.695 -234.873 -406.508 -232.362 -405.113 -234.036 C -402.601 -235.71 -399.53 -235.99 -397.576 -234.036 C -396.18 -229.849 -392.832 -224.825 -388.366 -223.43 C -385.295 -223.43 -381.946 -221.754 -378.876 -223.43 C -381.108 -224.545 -384.459 -224.826 -384.459 -228.175 C -381.947 -227.337 -378.598 -224.825 -375.248 -226.5 C -374.411 -226.5 -374.131 -227.896 -372.736 -227.337 C -372.736 -226.778 -371.899 -226.22 -372.179 -225.383 C -374.411 -224.268 -376.367 -222.871 -378.877 -223.15 C -378.318 -222.872 -376.923 -221.754 -377.761 -220.918 C -381.389 -219.522 -386.413 -220.639 -390.322 -221.755 C -394.509 -223.988 -398.416 -228.454 -399.532 -233.199 C -403.159 -233.759 -406.231 -229.012 -410.417 -231.803 C -410.417 -230.686 -411.533 -229.571 -412.65 -229.29 C -413.767 -229.012 -414.603 -231.522 -415.442 -229.85 C -429.676 -229.29 -446.145 -229.85 -454.519 -243.527 L -454.239 -244.364 C -451.449 -241.854 -448.099 -238.784 -444.749 -236.554"/> <path d="M -474.618 -236.828 C -477.129 -234.036 -481.317 -233.198 -484.666 -231.803 L -483.83 -230.128 C -486.341 -227.896 -489.97 -227.615 -493.319 -227.337 C -494.715 -223.987 -499.181 -223.149 -502.53 -221.754 C -506.437 -220.638 -511.741 -220.358 -515.09 -222.033 C -518.161 -219.521 -522.627 -219.521 -526.256 -220.637 C -527.651 -221.475 -529.326 -222.312 -529.885 -223.707 L -529.326 -224.824 C -526.256 -221.753 -521.232 -222.311 -517.325 -222.592 C -514.812 -225.94 -511.463 -222.312 -508.113 -223.149 C -503.647 -223.149 -499.739 -224.825 -496.112 -227.058 C -498.344 -227.336 -501.135 -227.615 -502.531 -229.289 C -499.739 -230.685 -496.39 -228.731 -493.32 -229.289 C -491.645 -229.849 -489.413 -229.849 -487.737 -230.685 C -488.295 -231.245 -489.412 -232.081 -488.295 -232.64 C -484.108 -234.314 -479.921 -235.99 -475.735 -237.664 L -474.615 -236.834"/> <path d="M -512.855 -233.478 C -514.808 -231.803 -517.599 -230.686 -520.112 -231.803 L -521.228 -232.641 C -518.994 -234.315 -516.482 -233.478 -513.971 -234.873 C -513.413 -234.323 -512.576 -234.323 -512.855 -233.483"/> <path d="M -372.458 -230.968 C -373.018 -230.409 -374.133 -229.572 -374.972 -230.409 C -375.25 -231.247 -376.368 -232.363 -375.53 -233.479 C -373.86 -234.039 -372.74 -232.089 -372.46 -230.969"/> <path d="M -584.589 -230.688 C -584.031 -227.618 -587.38 -222.036 -582.635 -220.64 C -580.681 -221.756 -582.076 -225.665 -578.728 -225.943 C -577.332 -224.547 -580.402 -222.595 -578.728 -220.64 C -574.819 -217.292 -571.75 -222.595 -567.841 -222.315 C -564.213 -225.666 -558.91 -224.547 -554.723 -223.432 C -555.839 -219.524 -559.747 -223.71 -562.818 -222.315 C -568.68 -221.2 -574.542 -214.501 -580.961 -218.964 C -581.798 -217.569 -583.193 -218.964 -584.589 -218.964 C -586.822 -221.199 -588.497 -223.989 -587.102 -227.061 C -586.543 -228.171 -586.264 -230.121 -584.589 -230.681"/> <path d="M -514.53 -228.738 L -513.413 -227.621 C -515.087 -224.831 -518.438 -224.551 -521.229 -225.389 C -522.625 -225.669 -523.461 -226.785 -524.578 -227.343 L -524.021 -228.739 C -521.229 -227.619 -517.042 -226.219 -514.53 -228.739"/> <path d="M -550.257 -223.428 C -544.116 -221.474 -538.813 -214.775 -531.835 -217.288 C -533.51 -218.403 -535.464 -220.078 -536.301 -222.031 C -533.789 -224.265 -533.51 -219.24 -530.998 -219.24 C -527.647 -218.123 -523.182 -219.24 -520.112 -218.403 C -520.39 -216.17 -522.904 -217.007 -524.299 -215.891 C -529.882 -219.519 -532.113 -211.982 -537.696 -214.774 C -542.999 -217.844 -549.14 -219.798 -554.164 -223.985 C -553.885 -227.345 -551.373 -223.995 -550.257 -223.435"/> <path d="M -550.072 -260.358 C -548.618 -260.358 -547.439 -261.387 -547.439 -262.66 C -547.439 -263.931 -548.618 -264.963 -550.072 -264.963 C -551.525 -264.963 -552.703 -263.932 -552.703 -262.66 C -552.703 -261.39 -551.525 -260.36 -550.072 -260.36" fill="#F7931D"/> <ellipse rx="2.633" cy="328.23" ry="2.302" stroke="#000000" cx="57.426" stroke-width="1.3956" fill="none" transform="matrix(0.999999, 0, 0, 1, -607.498311, -590.897949)"/> <path d="M -536.581 -268.738 C -535.128 -268.738 -533.949 -269.766 -533.949 -271.04 C -533.949 -272.311 -535.128 -273.342 -536.581 -273.342 C -538.034 -273.342 -539.212 -272.312 -539.212 -271.04 C -539.212 -269.77 -538.034 -268.74 -536.581 -268.74" fill="#F7931D"/> <ellipse rx="2.632" cy="319.86" ry="2.302" stroke="#000000" cx="70.917" stroke-width="1.3956" fill="none" transform="matrix(1.000006, 0, 0, 1, -607.498839, -590.897949)"/> <path d="M -527.742 -278.968 C -526.288 -278.968 -525.109 -279.999 -525.109 -281.272 C -525.109 -282.543 -526.288 -283.576 -527.742 -283.576 C -529.195 -283.576 -530.373 -282.544 -530.373 -281.272 C -530.373 -280.002 -529.195 -278.972 -527.742 -278.972" fill="#F7931D"/> <ellipse rx="2.633" cy="309.62" ry="2.304" stroke="#000000" cx="79.756" stroke-width="1.3956" fill="none" transform="matrix(1.00002, 0, 0, 1, -607.500054, -590.897949)"/> </g> </g></svg>