<svg class="pets" width="86" height="380" viewBox="202.715 584.407 144 380.048" xmlns="http://www.w3.org/2000/svg"><path d="M313.983 896.055c.324-6.596 8.434-16.22 9.84-16.328s-3.028 15.246-4.217 16.328-5.515.324-5.623 0z" stroke-linejoin="round" fill-rule="evenodd" stroke="#000" stroke-width=".86504" fill="#784421"/><path d="M323.823 879.725c-.112.008-.27.08-.458.202-.208 2.849-4.955 14.331-6.09 15.166-.64.47-2 .42-3.218.202-.033.256-.061.51-.074.757.108.325 4.433 1.082 5.623 0s5.623-16.436 4.217-16.327z" fill-rule="evenodd" fill-opacity=".314"/><path d="M341.396 920.338a26.684 26.684 0 1 1-53.365 0 26.684 26.684 0 1 1 53.365 0z" stroke-linejoin="round" stroke="#000" stroke-linecap="round" stroke-width=".8650038800000001" fill="#a05a2c"/><path d="M336.424 916.126a20.629 20.629 0 1 1-41.255 0 20.629 20.629 0 1 1 41.255 0z" fill-opacity=".314"/><path d="M338.194 907.662a26.689 26.689 0 0 1 1.062 7.48c0 14.73-11.953 26.683-26.683 26.683-10.125 0-18.945-5.654-23.465-13.971 3.25 11.073 13.489 19.167 25.608 19.167 14.73 0 26.68-11.952 26.68-26.682 0-4.587-1.16-8.906-3.202-12.677z" fill-opacity=".314"/><path d="M332.889 946.275c0 4.659-3.78 4.492-8.441 4.492-4.658 0-8.44.167-8.44-4.492 0-4.66 3.782-8.44 8.44-8.44 4.66 0 8.44 3.78 8.44 8.44zM313.42 946.275c0 4.659-3.78 4.492-8.44 4.492-2.59 0-4.91.052-6.458-.703-1.237-.603-1.983-1.721-1.983-3.789 0-4.66 3.783-8.44 8.441-8.44 4.66 0 8.44 3.78 8.44 8.44z" stroke-linejoin="round" stroke="#000" stroke-linecap="round" stroke-width=".86504" fill="#a05a2c"/><g stroke="#000" stroke-linecap="round" stroke-width="4" fill="none"><path d="M308.086 950.086c.756-2.45-.109-5.309-.109-5.309M304.186 950.631c-.927-3.947.134-7.078.134-7.078M300.24 950.222c-1.906-2.995-.273-5.445-.273-5.445" stroke-width=".86504"/></g><path d="M335.343 913.207a20.629 20.629 0 1 1-41.256 0 20.629 20.629 0 1 1 41.256 0z" stroke-linejoin="round" stroke="#000" stroke-linecap="round" stroke-width=".8650504200000001" fill="#a05a2c"/><path d="M333.542 904.757a20.73 20.73 0 0 1 .506 4.548c0 11.386-9.245 20.634-20.632 20.634-8.386 0-15.605-5.015-18.83-12.206 2.067 9.21 10.297 16.099 20.128 16.099 11.386 0 20.632-9.248 20.632-20.634 0-3.008-.645-5.863-1.804-8.44z" fill-opacity=".314"/><path d="M313.823 909.309a5.922 5.922 0 1 1-11.844 0 5.922 5.922 0 1 1 11.844 0zM327.573 909.309a5.922 5.922 0 1 1-11.844 0 5.922 5.922 0 1 1 11.844 0z" stroke-linejoin="round" stroke="#000" stroke-linecap="round" stroke-width=".86508941" fill="#fff"/><path d="M311.509 909.988a1.838 1.838 0 1 1-3.676 0 1.838 1.838 0 1 1 3.676 0zM321.583 909.988a1.838 1.838 0 1 1-3.676 0 1.838 1.838 0 1 1 3.676 0zM320.196 923.245c0 2.978-3.261 5.396-5.421 5.396-2.325 0-5.42-2.418-5.42-5.396 0-2.98 2.429-3.737 5.42-3.737 2.993 0 5.421.757 5.421 3.737z"/><path d="M328.881 939.093a8.475 8.475 0 0 1-1.596 11.646c3.264-.125 5.604-.8 5.604-4.462a8.438 8.438 0 0 0-4.008-7.184z" fill-opacity=".314"/><g stroke="#000" stroke-linecap="round" stroke-width="4" fill="none"><path d="M321.577 950.086c-.757-2.45.108-5.309.108-5.309M325.476 950.631c.928-3.947-.134-7.078-.134-7.078M329.423 950.222c1.905-2.995.272-5.445.272-5.445" stroke-width=".86504"/></g><path d="M309.31 939.093a8.475 8.475 0 0 1-1.596 11.646c3.263-.125 5.603-.8 5.603-4.462a8.438 8.438 0 0 0-4.007-7.184zM317.136 942.06a8.396 8.396 0 0 0-1.129 4.217c0 3.787 2.498 4.382 5.935 4.475-3.413-1.423-5.15-4.803-4.806-8.692z" fill-opacity=".314"/><path d="M300.188 898.325c-11.878-.839-18.065 13.474-16.443 17.69 1.32 3.429 8.605 6.887 8.311 3.742-.954-10.203 11.836-21.17 8.132-21.432zM329.364 898.325c11.877-.839 18.064 13.474 16.442 17.69-1.319 3.429-8.605 6.887-8.31 3.742.953-10.203-11.837-21.17-8.132-21.432z" stroke-linejoin="round" fill-rule="evenodd" stroke="#000" stroke-width=".86504" fill="#784421"/><path d="M330.46 898.29c11.008 2.226 13.984 16.74 11.624 20.444-.523.82-1.462 1.553-2.534 2.141 2.18-.504 5.421-2.684 6.258-4.86 1.57-4.084-4.189-17.644-15.348-17.725z" fill-rule="evenodd" fill-opacity=".314"/><path d="M307.216 959.811l15.738-3.408s2.686 4.314 5.8 1.855c3.112-2.458-1.242-4.9-1.242-4.9s4.371-2.385.074-4.529c-4.297-2.14-5.731 3.424-5.731 3.424l-15.25 2.692s-3.967-5.315-6.882-1.805c-2.913 3.51 1.085 5.709 1.085 5.709s-3.207 2.787.883 4.656c4.091 1.87 5.311-3.186 5.525-3.694z" stroke-linejoin="round" fill-rule="evenodd" stroke="#000" stroke-width=".86504" fill="#e3dbdb"/><path d="M304.312 952.761c.426.409.828.826 1.22 1.179.051-.009.101-.02.153-.028a9.427 9.427 0 0 0-1.373-1.15zm23.555-3.782c.074.1.139.205.2.313.434 1.302-1.385 2.368-2.058 3.093.245.478.842.793 1.324 1.207.413-.238 4.124-2.635.534-4.613zm-28.983 7.77c.196.482.5.893.808 1.215.411-.488-.34-.821-.808-1.215zm29.01-3.147c.094.11.176.236.241.368 1.304 1.667-.86 3.715-2.569 3.61-1.678-.037-2.344-1.657-3.4-2.678-5.246 1.135-10.869 2.344-16.115 3.48-.535.876-.723 2.017-1.436 2.824-1.071 1.696-3.448 1.52-4.88.361-.027-.015-.051-.036-.077-.054.145.677.703 1.384 2.035 1.994 4.092 1.87 5.31-3.188 5.523-3.696l16.116-3.48s2.312 4.389 5.424 1.93c2.53-1.999.125-3.984-.863-4.659z" fill-rule="evenodd" fill-opacity=".314"/></svg>