<svg class="pets" id="woman" width="86" height="380" viewBox="202.71499633789062 584.406982421875 144 380.0480041503906" preserveAspectRatio="xMidYMid meet" xmlns="http://www.w3.org/2000/svg"> <defs id="svgEditorDefs"> <path id="svgEditorClosePathDefs" class="lines" fill="black" style="stroke-width: 0px; stroke: none;"/> </defs> <g transform="matrix(1.3322992324829102, 0, 0, 1.3322992324829102, 267.27442932128906, 880.4058837890625)"> <g id="layer1"> <path id="path3158" style="stroke-linejoin:round;fill-rule:evenodd;stroke:black;fill:#ffc200" d="m47.016 39.703c3.173 0.364 8.886-0.365 9.792-5.287 0.93-5.048-2.154-8.203-2.154-8.203l3.052-2.041s1.636 7.056 1.732 8.968c0.065 1.296 0.821 5.713-5.366 8.531l-4.345 2.656-2.711-4.624z"/> <g id="g3150" transform="matrix(-.99742 0 0 1.0026 46.224 1.3745)"> <path id="path3152" style="stroke-linejoin:round;fill-rule:evenodd;stroke:black;fill:#ffc200" d="m17.273 5.4545s-8.0912-6.3636-10.182-6c-2.091 0.36368 2.3635 10.182 2.3635 10.182l7.8185-4.182z"/> <path id="path3154" style="fill-rule:evenodd;fill:white" d="m14.545 6l-5.6359-4.1818 1.8179 5.8182 3.818-1.6364z"/> </g> <g id="g3146" transform="matrix(.99742 0 0 1.0026 -1.0626 2.5745)"> <path id="path3142" style="stroke-linejoin:round;fill-rule:evenodd;stroke:black;fill:#ffc200" d="m17.273 5.4545s-8.0912-6.3636-10.182-6c-2.091 0.36368 2.3635 10.182 2.3635 10.182l7.8185-4.182z"/> <path id="path3144" style="fill-rule:evenodd;fill:white" d="m14.545 6l-5.6359-4.1818 1.8179 5.8182 3.818-1.6364z"/> </g> <g id="g3068" transform="matrix(.99742 0 0 1.0026 -2.2097 -4.7781)"> <path id="path3070" style="stroke-linejoin:round;color:black;stroke:black;stroke-width:1.2503;fill:#ffc200" d="m30.364 54.909a4 7.8182 0 1 1 -8 0 4 7.8182 0 1 1 8 0z" transform="translate(-1.4545 -3.0909)"/> <path id="path3072" style="stroke-linejoin:round;color:black;stroke:black;stroke-width:1.2503;fill:#ffc200" d="m30.364 59.818a4.9091 3.2727 0 1 1 -9.819 0 4.9091 3.2727 0 1 1 9.819 0z"/> </g> <g id="g3062" transform="matrix(.99742 0 0 1.0026 23.179 -4.4135)"> <path id="path3064" style="stroke-linejoin:round;color:black;stroke:black;stroke-width:1.2503;fill:#ffc200" d="m30.364 54.909a4 7.8182 0 1 1 -8 0 4 7.8182 0 1 1 8 0z" transform="translate(-1.4545 -3.0909)"/> <path id="path3066" style="stroke-linejoin:round;color:black;stroke:black;stroke-width:1.2503;fill:#ffc200" d="m30.364 59.818a4.9091 3.2727 0 1 1 -9.819 0 4.9091 3.2727 0 1 1 9.819 0z"/> </g> <path id="path3046" style="stroke-linejoin:round;color:black;stroke:black;stroke-width:1.2503;fill:#ffc200" d="m44.182 41.091a13.818 18.727 0 1 1 -27.637 0 13.818 18.727 0 1 1 27.637 0z" transform="matrix(1.0804 -.24074 .21403 .97056 -6.0077 6.6376)"/> <path id="path2142" style="stroke-linejoin:round;color:black;stroke:black;fill:#ffc200" d="m33.818 21a10.727 10.091 0 1 1 -21.454 0 10.727 10.091 0 1 1 21.454 0z" transform="matrix(1.4937 0 0 1.3433 -11.162 -9.5613)"/> <g id="g3036" transform="matrix(.69914 0 0 .58804 -11.7 4.5762)"> <path id="path3032" style="opacity:.86111;stroke-linejoin:round;color:black;stroke:black;stroke-width:1.2503;fill:white" d="m48.182 17.455a5.4545 2.1818 0 1 1 -10.909 0 5.4545 2.1818 0 1 1 10.909 0z"/> <path id="path3034" style="opacity:.86111;color:black;fill:black" d="m44.727 17.182a1.8182 0.81818 0 1 1 -3.636 0 1.8182 0.81818 0 1 1 3.636 0z" transform="matrix(1.5 0 0 3.1111 -21.636 -35.636)"/> </g> <g id="g3040" transform="matrix(.60985 0 0 .65154 1.7214 3.2832)"> <path id="path3042" style="opacity:.86111;stroke-linejoin:round;color:black;stroke:black;stroke-width:1.2503;fill:white" d="m48.182 17.455a5.4545 2.1818 0 1 1 -10.909 0 5.4545 2.1818 0 1 1 10.909 0z"/> <path id="path3044" style="opacity:.86111;color:black;fill:black" d="m44.727 17.182a1.8182 0.81818 0 1 1 -3.636 0 1.8182 0.81818 0 1 1 3.636 0z" transform="matrix(1.5 0 0 3.1111 -21.636 -35.636)"/> </g> <g id="g3052" transform="matrix(1.1791 0 0 1.1225 -9.4716 -9.6682)"> <path id="path3048" style="stroke-linejoin:round;color:black;stroke:black;stroke-width:1.2503;fill:#ffc200" d="m30.364 54.909a4 7.8182 0 1 1 -8 0 4 7.8182 0 1 1 8 0z" transform="matrix(.88850 .44825 -.46974 .88850 27.278 -8.7862)"/> <path id="path3050" style="stroke-linejoin:round;color:black;stroke:black;stroke-width:1.2503;fill:#ffc200" d="m30.364 59.818a4.9091 3.2727 0 1 1 -9.819 0 4.9091 3.2727 0 1 1 9.819 0z" transform="translate(-2.0414 -1.1965)"/> </g> <g id="g3056" transform="matrix(1.2596 0 0 1.0704 6.8724 -5.8126)"> <path id="path3058" style="stroke-linejoin:round;color:black;stroke:black;stroke-width:1.2503;fill:#ffc200" d="m30.364 54.909a4 7.8182 0 1 1 -8 0 4 7.8182 0 1 1 8 0z" transform="translate(-1.4545 -3.0909)"/> <path id="path3060" style="stroke-linejoin:round;color:black;stroke:black;stroke-width:1.2503;fill:#ffc200" d="m30.364 59.818a4.9091 3.2727 0 1 1 -9.819 0 4.9091 3.2727 0 1 1 9.819 0z"/> </g> <path id="path3118" style="stroke-linejoin:round;fill-rule:evenodd;stroke:black;stroke-width:.66627;fill:white" d="m23.555 17.842c2.43 1.745 2.854 3.798 0.71 3.798-2.145 0-3.565-0.074-3.201-1.141 0.073-0.213 0.372-0.436 0.519-0.784 0.421-0.998 1.864-1.85 1.972-1.873z"/> <path id="path3120" style="stroke-linejoin:round;stroke:black;fill:none" d="m17.917 23.571c4.854 0.738 4.897-1.441 4.897-1.441 1.215 0.136 0.291 2.531 3.39 2.33"/> <path id="path3122" style="stroke-linejoin:round;stroke:black;stroke-width:.57658;fill:none" d="m17.434 19.779l-6.376-2.666"/> <path id="path3130" style="stroke-linejoin:round;stroke:black;stroke-width:.61358;fill:none" d="m17.22 20.296l-8.617-0.43"/> <path id="path3134" style="stroke-linejoin:round;stroke:black;stroke-width:.89441;fill:none" d="m17.037 21.214l-6.63 1.907"/> <path id="path3136" style="stroke-linejoin:round;stroke:black;fill:none" d="m28.922 19.802l1.566-0.767c2.725-1.252 3.679-1.799 5.507-2.696"/> <path id="path3138" style="stroke-linejoin:round;stroke:black;fill:none" d="m29.994 21.063l7.072-2.552"/> <path id="path3140" style="stroke-linejoin:round;stroke:black;fill:none" d="m30.13 21.564l5.803 1.55"/> </g> </g></svg>