<svg class="pets" width="86" height="380" viewBox="202.715 584.407 144 380.048" xmlns="http://www.w3.org/2000/svg"><defs><linearGradient id="g" y2="537.41" gradientUnits="userSpaceOnUse" x2="359.47" gradientTransform="matrix(.64148 0 0 .77805 125.37 117.53)" y1="537.41" x1="346.24"><stop offset="0" stop-color="#ffb142"/><stop offset="1" stop-color="#c87600"/></linearGradient><linearGradient id="f" y2="362.28" gradientUnits="userSpaceOnUse" x2="186.21" y1="354.02" x1="186.21"><stop offset="0" stop-color="#ffb142"/><stop offset="1" stop-color="#c87600"/></linearGradient><linearGradient id="e" y2="362.28" gradientUnits="userSpaceOnUse" x2="195.75" y1="354.02" x1="195.75"><stop offset="0" stop-color="#ffb142"/><stop offset="1" stop-color="#c87600"/></linearGradient><linearGradient id="d" y2="362.28" gradientUnits="userSpaceOnUse" x2="176.39" y1="354.02" x1="176.39"><stop offset="0" stop-color="#ffb142"/><stop offset="1" stop-color="#c87600"/></linearGradient><linearGradient id="c" y2="362.28" gradientUnits="userSpaceOnUse" x2="229.44" y1="354.02" x1="229.44"><stop offset="0" stop-color="#ffb142"/><stop offset="1" stop-color="#c87600"/></linearGradient><linearGradient id="b" y2="362.28" gradientUnits="userSpaceOnUse" x2="238.98" y1="354.02" x1="238.98"><stop offset="0" stop-color="#ffb142"/><stop offset="1" stop-color="#c87600"/></linearGradient><linearGradient id="a" y2="362.28" gradientUnits="userSpaceOnUse" x2="219.61" y1="354.02" x1="219.61"><stop offset="0" stop-color="#ffb142"/><stop offset="1" stop-color="#c87600"/></linearGradient></defs><path d="M214 353.13a8 13.5 0 1 1-16 0 8 13.5 0 1 1 16 0z" transform="matrix(.36416 0 0 .34868 227.937 550.286)" stroke-linejoin="round" stroke="#000" stroke-linecap="round" stroke-width="2.869" fill="url(#a)"/><path d="M214 353.13a8 13.5 0 1 1-16 0 8 13.5 0 1 1 16 0z" transform="matrix(.36416 0 0 .34868 220.884 550.286)" stroke-linejoin="round" stroke="#000" stroke-linecap="round" stroke-width="2.869" fill="url(#b)"/><path d="M214 353.13a8 13.5 0 1 1-16 0 8 13.5 0 1 1 16 0z" transform="matrix(.36416 0 0 .34868 224.36 550.286)" stroke-linejoin="round" stroke="#000" stroke-linecap="round" stroke-width="2.869" fill="url(#c)"/><path d="M214 353.13a8 13.5 0 1 1-16 0 8 13.5 0 1 1 16 0z" transform="matrix(.36416 0 0 .34868 243.68 550.286)" stroke-linejoin="round" stroke="#000" stroke-linecap="round" stroke-width="2.869" fill="url(#d)"/><path d="M214 353.13a8 13.5 0 1 1-16 0 8 13.5 0 1 1 16 0z" transform="matrix(.36416 0 0 .34868 236.626 550.286)" stroke-linejoin="round" stroke="#000" stroke-linecap="round" stroke-width="2.869" fill="url(#e)"/><path d="M214 353.13a8 13.5 0 1 1-16 0 8 13.5 0 1 1 16 0z" transform="matrix(.36416 0 0 .34868 240.102 550.286)" stroke-linejoin="round" stroke="#000" stroke-linecap="round" stroke-width="2.869" fill="url(#f)"/><path d="M295.903 668.704c-1.188 0-2.204 1.153-2.658 2.799 3.879 1.038 8.14 1.644 12.619 1.725-.061-2.51-1.337-4.522-2.907-4.524-.675 0-1.295.374-1.79.998-.494-.624-1.113-.996-1.788-.998-.652 0-1.253.35-1.738.934-.485-.584-1.086-.932-1.738-.934zm15.743 0c-1.566 0-2.84 2.004-2.908 4.506 4.474-.145 8.714-.816 12.562-1.912-.48-1.535-1.464-2.592-2.6-2.594-.676 0-1.295.374-1.79.998-.495-.624-1.114-.996-1.789-.998-.652 0-1.253.35-1.738.934-.484-.584-1.085-.932-1.737-.934z" fill-opacity=".314"/><path d="M340.76 637.413a33.85 33.85 0 1 1-67.698 0 33.85 33.85 0 1 1 67.699 0z" stroke="#000" stroke-linecap="round" stroke-width="1.0222499999999999" fill="#784421"/><path d="M323.64 654.332c-5.418-1.005-.46 4.423-1.291 6.386-3.283-1.615-2.032 3.733-3.517 5.216-2.813-.151-3.253 2.687-5.216 3.52-2.373-1.317-4.122 1.29-6.386 1.29s-3.605-2.505-6.385-1.29c-1.963-.833-2.403-3.567-5.216-3.52-1.485-1.483-1.256-7.137-3.517-5.216-.832-1.963 3.003-7.801-1.29-6.386 0-2.263 4.548-6.466 1.29-6.383.83-1.965 4.995-3.425 3.517-5.218 2.97-2.97 7.072-4.808 11.601-4.808s8.631 1.838 11.602 4.808c-2.195 1.078 2.687 3.253 3.517 5.218-3.666-.185 1.29 4.12 1.29 6.383z" stroke-linejoin="round" stroke="#000" stroke-linecap="round" stroke-width="1.0222604" fill="#fff"/><path d="M336.82 621.554a33.962 33.962 0 0 1 .541 8.728c-.75-.039-1.55.004-2.402.127-7.199 1.533-4.124 10.564-5.999 20.011-6.203 7.019-15.274 11.443-25.372 11.443a33.679 33.679 0 0 1-17.032-4.6c-4.841-11.336 1.651-23.648-6.88-25.774-9.428-1.701-13.08 7.045-6.984 20.152 3.366 7.235 8.94 10.79 13.04 12.17a33.684 33.684 0 0 0 21.179 7.449c9.394 0 17.901-3.83 24.036-10.018 3.568-1.781 7.536-5.028 10.292-10.458 5.154-10.155 4.167-17.803-1.118-19.921a33.64 33.64 0 0 0-3.302-9.309z" fill-rule="evenodd" fill-opacity=".314"/><path d="M279.648 629.845c9.836 3.537-2.897 19.246 7.73 32.955 1.965 2.533-11.83.427-16.708-13.615-4.743-13.653-.23-21.986 8.978-19.34zM334.12 629.845c-9.835 3.537 2.895 19.246-7.732 32.955-1.964 2.533 11.832.427 16.708-13.615 4.743-13.653.23-21.986-8.975-19.34z" fill-rule="evenodd" stroke="#000" stroke-width="1.0222499999999999" fill="#784421"/><path d="M330.506 627.995c2.737-.943 5.565 1.55 6.107 2.899-2.762-.706-4.032-.906-4.748-.283.31.69 3.56 1.378 4.568 5.903-2.541-1.762-4.561-3.799-5.373-2.96.59 1.028 1.268 2.962.812 4.882-1.46-1.928-2.953-3.963-4.322-4.018" stroke-linejoin="round" fill-rule="evenodd" stroke="#000" stroke-linecap="round" stroke-width="1.0222499999999999" fill="#784421"/><path d="M297.516 611.285c-6.385 0-11.571 5.997-11.571 13.385s5.186 13.385 11.571 13.385c3.754 0 7.084-2.073 9.198-5.28 2.114 3.21 5.45 5.28 9.205 5.28 6.387 0 11.573-5.996 11.573-13.385s-5.186-13.385-11.573-13.385c-3.754 0-7.09 2.071-9.205 5.28-2.114-3.207-5.444-5.28-9.198-5.28z" stroke="#000" stroke-linecap="round" stroke-width="1.0222499999999999" fill="#fff"/><path d="M307.064 633.958c-1.9 0-3.962 2.112-3.88 3.445.083 1.335 3.385 6.89 4.127 6.89.745 0 3.633-5.444 3.552-7-.084-1.556-2.56-3.445-3.799-3.335z" fill-rule="evenodd" fill-opacity=".314"/><path d="M349.9 506.77c-9.29 0-19.38 9.3-18.98 15.18s16.56 30.37 20.19 30.37c3.64 0 17.77-24 17.37-30.86-.41-6.86-12.52-15.18-18.58-14.69z" fill-rule="evenodd" stroke="#000" stroke-width="5" fill="url(#g)" transform="matrix(.20445 0 0 .20445 235.095 528.184)"/><path d="M305.979 625.573a3.35 3.35 0 1 1-6.699 0 3.35 3.35 0 1 1 6.699 0z" stroke="#000" stroke-linecap="round" stroke-width="1.02212926"/><path d="M283.205 627.995c-2.738-.943-5.565 1.55-6.105 2.899 2.762-.706 4.032-.906 4.747-.283-.308.69-3.559 1.378-4.567 5.903 2.541-1.762 4.56-3.799 5.371-2.96-.589 1.028-1.268 2.962-.81 4.882 1.46-1.928 2.953-3.963 4.322-4.018" stroke-linejoin="round" fill-rule="evenodd" stroke="#000" stroke-linecap="round" stroke-width="1.0222499999999999" fill="#784421"/><path d="M309.544 613.536c2.715-6.575 7.29-7.464 7.29-7.464s-2.545 3.43-.239 2.476c3.572-1.479 14.925 3.152 14.925 3.152s-15.043-3.502-21.976 1.836zM303.32 612.923c-2.714-6.575-7.292-7.465-7.292-7.465s2.547 3.431.241 2.476c-3.572-1.478-14.924 3.153-14.924 3.153s15.04-3.502 21.976 1.836z" stroke-linejoin="round" fill-rule="evenodd" stroke="#000" stroke-width="1.0222499999999999" fill="#fff"/><path d="M314.464 625.573a3.35 3.35 0 1 1-6.7 0 3.35 3.35 0 1 1 6.7 0z" stroke="#000" stroke-linecap="round" stroke-width="1.02212926"/><path d="M302.291 624.402a.869.869 0 1 1-1.738 0 .869.869 0 1 1 1.738 0zM310.776 624.402a.869.869 0 1 1-1.738 0 .869.869 0 1 1 1.738 0z" fill="#fff"/><path d="M337.343 629.356c-.086 0-.17.004-.256.006 3.314 2.67 4.717 8.85 3.022 17.448-2.253 11.428-10.955 16.358-13.845 16.617.938 1.335 12.465-1.66 16.834-14.24 4.15-11.947 1.21-19.82-5.755-19.83zM269.082 635.935c-.705 3.376-.265 7.908 1.591 13.253 4.877 14.039 18.672 16.147 16.707 13.614a21.505 21.505 0 0 1-2.108-3.284c-3.875-.928-11.05-4.984-14.292-14.317-1.202-3.461-1.81-6.58-1.898-9.266zm14.574 1.298c-.18 1.744-.38 3.6-.467 5.545.203-2.001.425-3.872.467-5.545z" fill-rule="evenodd" fill-opacity=".314"/></svg>