<svg class="pets" width="86" height="380" viewBox="202.715 584.407 144 380.048" xmlns="http://www.w3.org/2000/svg"><path d="M345.43 923.56c.009 20.289-16.44 36.741-36.732 36.741-20.287 0-36.736-16.452-36.732-36.74-.004-20.292 16.445-36.744 36.732-36.744 20.292 0 36.74 16.452 36.732 36.744z" stroke-linejoin="round" stroke="#000" stroke-linecap="round" stroke-width="1.34122748" fill="#fff"/><path d="M338.817 903.473c-1.81 2.197-2.093 5.704-1.53 7.056.417 1 3.176 1.489 5.819 1.737a36.183 36.183 0 0 0-4.29-8.793zm-64.862 9.856c-.959 3.26-1.479 6.7-1.475 10.271 0 1.865.14 3.7.412 5.487 2.743 1.592 6.305 6.837 9.34 7.233 3.802.496 2.977-7.274.663-7.77-2.317-.496-3.306-4.135-3.474-8.102-.11-2.662-1.569-5.255-5.466-7.12zm70.938 9.299a7.069 7.069 0 0 0-2.646 2.12c-3.967 5.123-7.273 1.652-11.243 3.47-3.968 1.82-1.322 6.449.167 10.912 1.077 3.233-.875 9.665 1.476 11.656 7.525-6.64 12.27-16.36 12.266-27.186 0-.325-.003-.647-.01-.972-.003.003-.01 0-.01 0zm-49.268 3.112c1.653 5.124-1.985 3.306-2.646 6.777-.66 3.474 11.076 4.463 13.062 11.573 1.982 7.109 10.912 3.306 10.744-.66-.164-3.968-5.949-5.786-4.463-8.103 1.489-2.314 4.463-7.109 4.463-7.109l-21.16-2.478z" fill-rule="evenodd" fill="#4d4d4d"/><path d="M343.21 910.951c.023.567.04 1.14.04 1.71 0 20.275-16.452 36.73-36.73 36.73-15.848 0-29.372-10.06-34.52-24.134.892 19.487 16.995 35.033 36.7 35.033 20.278 0 36.73-16.455 36.73-36.73 0-4.426-.785-8.675-2.22-12.609z" fill-opacity=".314"/><path d="M311.44 960.635c0 3.049 4.92 3.146 10.979 3.146s10.975.231 10.975-3.146c0-5.942-4.916-10.764-10.975-10.764s-10.98 4.822-10.98 10.764z" stroke-linejoin="round" stroke="#000" stroke-linecap="round" stroke-width="1.34136" fill="#333"/><path d="M337.08 911.723c0 15.147-18.484 27.444-27.444 27.444-8.625 0-27.445-12.297-27.445-27.444s8.26-27.445 27.445-27.445c19.188 0 27.444 12.297 27.444 27.445z" fill-opacity=".314"/><path d="M326.64 963.58c0-5.49-3.165-8.867-3.165-8.867s1.264 4.645 1.053 8.867h2.113z" stroke-linejoin="round" fill-rule="evenodd" fill-opacity=".314" stroke="#000" stroke-width="1.34136"/><path d="M307.808 879.863c-10.105.205-17.081 3.908-21.338 9.641-8.07-.868-14.776 7.923-14.776 7.923s6.335 3.169 10.752.513c-.804 2.92-1.194 6.073-1.194 9.36 0 15.147 18.82 27.444 27.445 27.444 8.96 0 27.447-12.297 27.447-27.445 0-3.286-.392-6.438-1.197-9.359 4.417 2.656 10.741-.513 10.741-.513s-6.697-8.788-14.765-7.923c-4.38-5.9-11.64-9.64-22.226-9.64-.299 0-.597-.007-.889 0z" stroke-linejoin="round" stroke="#000" stroke-linecap="round" stroke-width="1.34136" fill="#fff"/><path d="M313.465 880.522c8.625 6.01-1.023 5.748-2.934 7.807-2.18 2.348-3.018 5.701-.503 7.88s15.426 5.87 17.27-.167c.949-3.112-.191-6.975-.788-10.385-3.36-2.636-7.68-4.44-13.045-5.135z" fill-rule="evenodd" fill="#4d4d4d"/><path d="M307.48 903.278a7.6 7.6 0 0 1-15.2 0 7.6 7.6 0 1 1 15.2 0zM325.163 903.278a7.6 7.6 0 0 1-15.2 0 7.6 7.6 0 1 1 15.2 0z" stroke-linejoin="round" stroke="#000" stroke-linecap="round" stroke-width="1.3413493799999998" fill="#fff"/><path d="M318.409 904.618a2.533 2.533 0 1 1-5.067.001 2.533 2.533 0 0 1 5.067-.001zM304.314 904.618a2.533 2.533 0 1 1-5.066.001 2.533 2.533 0 0 1 5.066-.001z"/><path d="M308.697 917.84c-6.66 0-12.062 4.432-12.062 9.892 0 1.012.19 1.995.535 2.914 4.262 2.595 8.515 4.098 11.527 4.098 3.085 0 7.297-1.452 11.495-3.984a8.227 8.227 0 0 0 .577-3.028c0-5.46-5.413-9.893-12.072-9.893z" stroke-linejoin="round" stroke="#000" stroke-linecap="round" stroke-width="1.34136" fill="#ffd5e5"/><path d="M335.041 898.306l-.627.892c.084 1.032.114 2.079.114 3.145 0 15.147-18.484 27.444-27.444 27.444-6.944 0-20.489-7.967-25.508-18.98 2.554 13.498 19.172 23.937 27.12 23.937 8.96 0 27.448-12.297 27.448-27.445 0-3.152-.362-6.173-1.103-8.993z" fill-opacity=".314"/><path d="M306.413 960.635c0 3.049-4.92 3.146-10.98 3.146s-10.975.231-10.975-3.146c0-5.942 4.916-10.764 10.976-10.764s10.979 4.822 10.979 10.764z" stroke-linejoin="round" stroke="#000" stroke-linecap="round" stroke-width="1.34136" fill="#333"/><path d="M291.212 963.58c0-5.49 3.166-8.867 3.166-8.867s-1.265 4.645-1.053 8.867h-2.113z" stroke-linejoin="round" fill-rule="evenodd" fill-opacity=".314" stroke="#000" stroke-width="1.34136"/><path d="M314.263 926.293c-.768 1.331-2.18 1.959-3.152 1.395-.97-.56-1.133-2.096-.365-3.427s2.18-1.958 3.152-1.395c.969.56 1.133 2.092.365 3.427zM303.284 926.293c.768 1.331 2.18 1.959 3.152 1.395.97-.56 1.134-2.096.366-3.427s-2.18-1.958-3.152-1.395c-.97.56-1.134 2.092-.366 3.427z"/><path d="M288.901 890.01c-2.461-.447-5.197-7.21-4.191-8.552s8.843 1.496 9.054 4.527c.184 2.673-1.808 4.578-4.863 4.024zM328.1 890.01c2.46-.447 5.197-7.21 4.191-8.552s-8.843 1.496-9.054 4.527c-.184 2.673 1.807 4.578 4.862 4.024z" fill-rule="evenodd" stroke="#000" stroke-width="1.34136" fill="#333"/></svg>