<svg class="pets" width="86" height="380" viewBox="202.715 584.407 144 380.048" xmlns="http://www.w3.org/2000/svg"><defs><filter id="a" color-interpolation-filters="sRGB"><feBlend in2="BackgroundImage" mode="darken"/></filter></defs><g transform="matrix(.34879 0 0 .34879 288.496 879.283)"><path d="M82.926 215.897c-4.968-6.154-16.39 1.44-23.02 5.755-6.539 4.255-18.764 12.005-14.386 18.463 5.79 8.542 21.826-2 29.733-8.632 4.436-3.722 11.31-11.08 7.673-15.586z" stroke="#a40" stroke-width="1.21" fill="#f95"/><path d="M32.732 96.937C-10.731 33.335 44.666.497 80.789.883c23.263.248 69.673 33.586 49.264 86.561 0 0 25.514-19.823 28.145-17.294 18.298 17.585-24.076 72.228-24.076 72.228-2.432 27.684 15.383 33.856 32.893 40.353-23.18 51.21-159.05 69.3-134.29-38.66-7.736-.42-41.55-46.88-29.161-56.63 3.215-2.53 29.163 9.495 29.163 9.495z" stroke="#214478" stroke-width="1.732" fill="#3771c8"/><path d="M60.627 111.357c-64.915-18.94-27.04-123.93 8.872-41.487 43.85-76.866 92.84 17.777 22.78 41.247-.858 52.299 39.859 58.427 33.81 84.163-10.187 43.339-119.38 28.931-83.145-64.029 3.056-7.84 7.97-13.52 17.685-19.894z" fill="#fff"/><g fill="#214478"><path d="M32.43 147.021c.445-1.251 1.03-2.433 1.337-3.672 6.484-26.091 10.69-25.891 17.654-31.294-11.4 2.027-17.414 18.643-19.467 31.91-.215 1.392.682 1.709.477 3.055z"/><path d="M33.7 96.831c2.367 3.733 9.376 11.356 17.703 15.239-5.758-.51-16.383-11.396-20.562-16.639-.424-.532 3.126 1.926 2.859 1.4zM131.94 84.941c-9.12 8.96-18.262 17.896-26.136 28.414a421.51 421.51 0 0 1 23.492-24.211l2.644-4.203zM134.94 142.671l-14.087 14.567 12.469-15.226 1.618.66z"/></g><path d="M65.183 168.897c-8.12 5.295 1.386 20.196 6.714 28.294 4.929 7.492 13.789 20.507 21.58 16.065 7.261-4.14 1.472-17.659-2.638-24.937-5.275-9.34-16.672-25.282-25.656-19.422z" stroke-linejoin="round" stroke="#a40" stroke-width="1.234" fill="#f95"/><path d="M69.259 78.987c-2.457-.278-15.028 7.408-14.866 10.071.214 3.537 12.19 12.9 15.825 12.708 3.184-.168 13.015-6.889 13.188-10.311.22-4.36-11.382-12.156-14.147-12.469z" stroke="#a40" stroke-width="1.115" fill="#f95"/><path d="M61.373 91.787s4.847 5.828 7.263 6.004c2.48.18 8.429-5.341 8.429-5.341-5.48.341-10.845.42-15.692-.663z" fill="#a02c2c"/><path d="M54.296 88.927c5.213 4.422 16.842 5.231 29.403 2.308-4.892-.088-17.208 3.642-29.403-2.308z" fill="#a40"/><path d="M71.216 111.917c-5.366 2.134-11.977 5.53-16.185 14.207 5.635-1.404 6.942-2.52 10.37-3.776-3.037 3.396-3.74 6.581-5.155 9.83 1.744-4.595 5.749-9.72 9.71-12.409-5.058 2.204-9.005 4.024-13.067 5.036 3.285-6.655 7.448-8.68 14.327-12.888z" fill="#acf"/><path d="M78.356 108.23c2.186-1.21-2.274 13.447-1.95 13.734 1.598 1.41 3.575 8.306 1.919 8.95-1.666.649-6.975-4.962-9.406-5.857-4.718-1.737-5.204-6.594-5.065-7.073.885-3.064 11.4-8.036 14.502-9.754z" fill="#d45500" transform="translate(-9.26 -29.403)" opacity=".45" filter="url(#a)"/><g opacity=".204" fill="#fff"><path d="M71.53 81.631c-1.565 1.383-2.42 2.162-1.932 7.633.133 1.48 9.683 2.955 11.03 1.199.845-1.1-7.689-10.077-9.098-8.832z"/><path d="M82.65 1.801c27.16 5.907 67.128 36.419 46.318 86.311l27.606-17.474c13.592 13.838-3.08 41.582-22.381 70.533-5.232 17.98 4.558 32.205 31.875 42.048-7.142 11.109-5.97 21.768-44.761 34.588-26.044-6.276-22.018-60.129-58.387-104.4C8.06 46.637 35.43 10.327 82.64 1.797z" opacity=".923" fill-opacity=".405"/></g><g><path d="M32.093 73.467c5.69-10.056 17.658-10.454 27.814-6.474-11.87-11.952-24.377-9.37-27.814 6.474zM81.488 69.151c8.858-6.627 18.397-5.441 28.534 2.638-7.676-15.02-18.574-15.094-28.534-2.638z"/></g></g></svg>