<svg class="pets" width="86" height="380" viewBox="202.715 584.407 144 380.048" xmlns="http://www.w3.org/2000/svg"><defs><linearGradient id="a" y2="989.96" gradientUnits="userSpaceOnUse" x2="-384.07" gradientTransform="translate(773.54 -519.98)" y1="989.96" x1="-495.24"><stop offset="0"/><stop offset=".5" stop-color="#29272a"/><stop offset="1" stop-color="#534f54"/></linearGradient><linearGradient id="c" y2="964.89" gradientUnits="userSpaceOnUse" x2="-257.55" gradientTransform="translate(773.54 -519.98)" y1="964.89" x1="-391.48"><stop offset="0"/><stop offset=".5" stop-color="#29272a"/><stop offset="1" stop-color="#534f54"/></linearGradient><filter id="d"><feGaussianBlur stdDeviation=".574"/></filter><filter id="e" height="1.422" width="1.391" y="-.211" x="-.195"><feGaussianBlur stdDeviation=".231"/></filter><filter id="f" height="4.048" width="2.599" y="-1.524" x="-.8"><feGaussianBlur stdDeviation="1.944"/></filter><filter id="b" height="1.508" width="1.994" y="-.254" x="-.497"><feGaussianBlur stdDeviation="12.741"/></filter></defs><path d="M362.94 390.3c-3.48.1-7.09.51-10.84 1.38-19.97 4.63-31.19 14.32-49.47 28.75-10.18 8.03-17.84 15.87-21.59 28.9-5.85 20.34.65 38.16 9.47 53.75 9.28 16.43 15.49 22.41 23.75 38.6.16.32.23.59.37.9.05.02.11.04.16.06l-.03-.06c.2-.14.41-.22.62-.28.51-.5 2.71.18 5.81 1.31 7.02 2.56 11.28 1.86 15.72 1.91 5.68.07 8.26 1.63 14.22.53 3.04-.56 3.67-.86 5.53-.41 1.86.46 1.91 2.22 1.91 2.22.76-.15 1.56-.27 3-.22 3.3.13 6.03.96 8.62 2.04l.82-.13-8.1-6.56s-2.77-2.22-6.69-5.44c-3.91-3.22-8.98-7.43-13.53-11.47-1.13-1.01-2.13-2.19-3.06-3.5-.93-1.3-1.76-2.74-2.5-4.28s-1.4-3.18-1.97-4.91c-.57-1.72-1.04-3.52-1.47-5.37-.85-3.69-1.44-7.59-1.84-11.44-.4-3.84-.62-7.65-.75-11.19a64.373 64.373 0 0 1 .56-11.15c.27-1.96.63-3.98 1.1-6.03.46-2.05 1.06-4.15 1.75-6.28.68-2.14 1.47-4.32 2.4-6.54.93-2.21 1.99-4.45 3.19-6.75 1.2-2.29 2.52-4.65 4-7.03 1.48-2.37 3.11-4.77 4.91-7.22 3.58-4.89 6.61-9.63 9.43-13.84 1.42-2.1 2.8-4.05 4.16-5.84s2.69-3.4 4.09-4.78c1.4-1.39 2.85-2.55 4.38-3.44s3.16-1.52 4.9-1.81c.88-.15 1.78-.21 2.72-.19.95.02 1.94.12 2.97.31 2.06.39 4.29 1.15 6.75 2.31 0 0 .28.05.44-.31s.2-1.13-.19-2.72c-.7-2.87-1.68-5.44-2.47-7.22s-1.39-2.76-1.31-2.37c-.03-.01-.03-.02-.06-.03-2.86-1.06-3.47-2.44-5.56-2.78-4.07-.68-8.36-1.26-12.88-1.38a65.75 65.75 0 0 0-3.44 0z" fill-rule="evenodd" stroke="#000" stroke-width=".292" fill="url(#a)" transform="matrix(.2778 0 0 .2778 202.03 808.246)"/><path d="M307.229 920.61a3.938 3.938 0 0 0-.756.052c-.486.08-.938.256-1.364.503s-.825.57-1.213.956c-.39.383-.762.83-1.14 1.327s-.76 1.04-1.152 1.623c-.786 1.17-1.628 2.486-2.623 3.847-.497.678-.95 1.345-1.364 2.003a30.461 30.461 0 0 0-1.11 1.953c-.331.639-.626 1.261-.884 1.878-.261.614-.478 1.22-.67 1.814a19.072 19.072 0 0 0-.792 3.42c-.071.544-.119 1.069-.146 1.588a18.451 18.451 0 0 0-.009 1.517c.036.972.097 2.028.209 3.111.11 1.056.275 2.14.513 3.167.117.5.248 1.028.406 1.5.161.472.344.917.547 1.361.206.417.44.834.695 1.195.258.361.536.694.853.972a136.302 136.302 0 0 0 3.758 3.167c1.086.917 1.858 1.528 1.858 1.528l2.248 1.805c.17.278 2.614 1.64 3.48 2.195.47.278.548.778.878 1.25l.017-.055c.706-.056 1.292-.084 1.806-.056s.955.083 1.38.139.83.111 1.275.167.925.083 1.495.083c1.133 0 1.9-.028 2.447-.083s.867-.112 1.128-.195c.314-.083.608-.222.947-.361a3.74 3.74 0 0 1 1.223-.195c.238 0 .402.056.608.084a1.96 1.96 0 0 0 .2-1c-.006-.111.064-.167.156-.195v-.027c-.123-.056-.187.333-.25.222a.87.87 0 0 1-.114-.39c-.009-.11.01-.277.06-.416s.137-.278.242-.389c.167-.166.334-.278.514-.36.178-.084.364-.112.556-.14.378-.055.775 0 1.18.084.403.055.812.194 1.214.277s.798.14 1.173.111c.48-.222.85-.388 1.147-.472.294-.083.522-.139.736-.139.428-.027.756-.416 1.45-.36.006 0 .045.027.053.027.128-1.056-.364-2.222.503-3.361a3.18 3.18 0 0 1 .51-.584c-.05 0-.294-.027-.788-.083a18.106 18.106 0 0 1-2.186-.472c-.442-.111-.92-.25-1.409-.417s-.989-.389-1.5-.611a13.117 13.117 0 0 1-3.022-1.861c-.628-.5-1.23-1.028-1.806-1.584a22.899 22.899 0 0 1-1.63-1.694 21.239 21.239 0 0 1-1.459-1.806 23.474 23.474 0 0 1-1.258-1.889 22.877 22.877 0 0 1-1.07-1.944c-.32-.667-.6-1.361-.85-2.028-.25-.695-.458-1.38-.633-2.08-.175-.698-.311-1.398-.408-2.11a15.46 15.46 0 0 1-.053-3.836c.064-.566.15-1.097.253-1.589s.214-.938.33-1.355c.23-.83.461-1.509.59-2.022.063-.259.105-.475.105-.65-.003-.178-.048-.317-.14-.409-.174-.175-.852-1.02-1.658-2.275a30.737 30.737 0 0 1-1.258-2.153 24.002 24.002 0 0 1-1.189-2.553l-.02-.086c-.044.1-.119.086-.119.086-.686-.322-1.305-.533-1.878-.641a5.108 5.108 0 0 0-.822-.087z" stroke="#000" stroke-width=".08111468" fill="#e6e6e6"/><path d="M314.821 931.354c-.492-.352-.239-.105-1.222 1.862-1.57 13.042 2.1 17.57 7.611 23.015 5.514 5.416 7.512 2.944 9.765.666-1.723-1.86-3.12-1.666-4.42-2.305-9.506-6.14-9.528-13.162-11.734-23.238z" fill-rule="evenodd" fill="#b3b3b3"/><path d="M309.351 963.37c.109-.25.456.139 4.114.028 4.228.527 7.881-.14 7.473-.723-.964-1.416 2.364-2.583 4.647-2 1.128.306 2.306-.278 2.6-.333.587-.389 1.756-.75 1.776.139 0 .25.172.472.172.694-1.5 1.917-4.864 1.167-6.981 1.167h-.667c-.291 0-.525.25-.63.472-.02.722-.286 1.167-.911 1.528-.292.222-.731.25-1.09.25-1.677 0-3.31.083-4.944.445-1.792.444-3.536-.695-5.284-.89-.25-.138-.433-.416-.275-.777z" fill-rule="evenodd" fill="#b3b3b3"/><path d="M-399.96 955.55c-22.56 36.7-22.79 61.55-2.1 91.65 8.89 8.8 16.83 17.2 29.69 18.7 1.65 0 13.33.1 14.39 1.3 10.02-1.9-16.6-23.5-21.14-35.4-25.67-67.03 10.16-84.95-6.93-85.01-6.9.2-11.77 5.29-13.91 8.76z" filter="url(#b)" fill-rule="evenodd" fill="#b3b3b3" transform="matrix(.2778 0 0 .2778 416.912 663.8)"/><path d="M474 358.8c-.94 1.38-3.78 5.73-6.18 9.84-12.13 20.84-17.87 41.13-21.44 42.16-7.83 2.27-10.53-6.27-15.72-16.62-10.23-20.42-24.28-30.2-34.28-32.88s-12.49 1.43-13.56 5c-.41 9.44-.88 21.81 3.37 30.56l1.78 5.22c.23.74.5 1.21.69 2 .39 1.58.35 2.32.19 2.69v.03l.06.31c1.26 3.22 2.76 6.33 4.28 9.19 1.53 2.86 3.08 5.49 4.53 7.75 2.91 4.52 5.34 7.56 5.97 8.19.34.33.5.83.5 1.47.01.63-.14 1.41-.37 2.34-.46 1.85-1.3 4.29-2.13 7.28-.41 1.5-.82 3.11-1.18 4.88-.37 1.77-.69 3.68-.91 5.72a55.473 55.473 0 0 0 .19 13.81c.34 2.56.84 5.08 1.47 7.59.62 2.52 1.38 5.01 2.28 7.47a78.49 78.49 0 0 0 3.06 7.31c1.15 2.4 2.44 4.72 3.84 7.03s2.9 4.6 4.53 6.82c1.64 2.21 3.4 4.36 5.25 6.47 1.86 2.1 3.81 4.14 5.88 6.12s4.23 3.88 6.5 5.72c1.72 1.4 3.52 2.65 5.34 3.75 1.83 1.1 3.7 2.06 5.53 2.91 1.84.84 3.65 1.57 5.41 2.18 1.76.62 3.47 1.11 5.06 1.53 3.18.85 5.92 1.37 7.88 1.66 1.78.26 2.65.3 2.84.31 1.61-1.47 3.19-1.94 4.97-2.25l-6.97-2.25s-.75-.41-1.75-1.15-2.25-1.82-3.22-3.13c-.48-.65-.87-1.36-1.15-2.12-.28-.77-.43-1.58-.38-2.44.06-.86.3-1.76.81-2.69.52-.93 1.31-1.89 2.41-2.87 4.42-3.92 10.05-8.58 14.72-13.19 2.34-2.3 4.44-4.58 6.03-6.75.8-1.09 1.46-2.14 1.97-3.16.51-1.01.87-1.99 1.03-2.9.32-1.83.56-4.21.72-6.94s.23-5.83.19-9.06c-.05-3.24-.23-6.63-.53-9.97-.31-3.34-.74-6.64-1.35-9.69-.19-.96-.55-2.06-1.06-3.28s-1.18-2.56-1.91-3.94c-1.45-2.75-3.21-5.7-4.9-8.47-1.69-2.76-3.3-5.33-4.38-7.28-.54-.97-.95-1.78-1.19-2.4-.23-.62-.27-1.06-.09-1.22.57-.24 1.3-.18 2.16.09.85.27 1.82.75 2.87 1.41 2.11 1.31 4.52 3.28 6.88 5.43 2.35 2.16 4.65 4.49 6.53 6.57 1.88 2.07 3.34 3.87 4.03 4.93 1.44 2.22 3.04 5.62 4.44 8.97 1.39 3.36 2.59 6.67 3.25 8.82 1.01 3.28 2.03 8.14 2.93 12.5.91 4.35 1.67 8.21 2.1 9.5.12.37.55.81 1.15 1.37.61.56 1.39 1.21 2.22 1.97.84.76 1.74 1.63 2.57 2.62.82 1 1.58 2.13 2.15 3.38s.93 2.52 1.13 3.75.23 2.39.22 3.41c-.04 2.02-.35 3.43-.35 3.43l-.5 6.13c.14-.32.26-.44.41-.78 3.75-8.75 2.86-11.44 1.44-22.16-1.43-10.71-5.37-13.22-7.16-20.72s-1.53-6.31-2.78-12.56c-4.31-21.93-12.07-18.33-21.5-31.72-4.21-17.84 6.14-46.62-2.32-66.79-1.91-4.53-5.78.74-6.5 1.79z" stroke="#000" stroke-width=".292" fill="url(#c)" transform="matrix(.2778 0 0 .2778 202.03 808.246)"/><g fill-rule="evenodd"><path d="M344.375 950.397l.14-1.695s.085-.388.094-.944a5.3 5.3 0 0 0-.062-.945 3.91 3.91 0 0 0-.31-1.055 4.737 4.737 0 0 0-.6-.945c-.231-.277-.481-.5-.712-.722-.233-.222-.45-.389-.617-.555-.169-.14-.286-.278-.322-.362-.12-.36-.33-1.444-.58-2.65-.253-1.21-.536-2.561-.817-3.472a30.324 30.324 0 0 0-.903-2.45c-.386-.93-.833-1.873-1.233-2.49-.192-.296-.598-.796-1.12-1.372a27.95 27.95 0 0 0-1.814-1.822c-.653-.6-1.325-1.147-1.91-1.511-.293-.183-.562-.317-.798-.392s-.442-.091-.6-.025c-.05.045-.036.167.028.34s.177.396.33.666c.3.542.745 1.256 1.214 2.022.47.77.958 1.59 1.364 2.353.2.383.386.756.528 1.095s.241.644.294.91c.17.848.292 1.765.375 2.693s.134 1.87.148 2.77c.013.896-.009 1.752-.053 2.53-.045.75-.111 1.417-.2 1.917-.042.25-.145.527-.286.805s-.325.584-.548.89c-.441.582-1.025 1.221-1.675 1.86-1.297 1.278-2.861 2.584-4.089 3.667-.305.278-.525.528-.666.806-.145.25-.212.5-.228.722-.014.25.027.472.105.694s.186.417.323.584c.266.36.616.667.894.861.275.222.483.333.483.333l1.937.611c.719-.11 1.572-.11 2.875-.583 2.528-.889 3.072-.444 5.355-1.778 2.192-1.305 2.695-1.222 3.656-3.361z" stroke="#000" stroke-width=".08111468" fill="#e6e6e6"/><path d="M337.092 952.23c.013-.527.83-.972 1.53-1.027.325-.028 1.234-.056 1.245.638.002.278-.4.584-.686.723-.275.139-.573.083-.848-.056-.136-.055-1.253.056-1.241-.278z" stroke="#483737" stroke-width=".07305877" fill="#e9afaf"/><path transform="matrix(.4186 .02684 -.02369 .3694 480.562 582.627)" d="M-298.61 955.51c8.82 9.96 11.97 16.75 13.92 22.45 2.5 7.29 3.59 19.43 3.59 19.43s-.41-9.48-1.1-17.1c-.45-5-16.14-25.21-16.41-24.78z" filter="url(#d)" fill="#fff"/></g><g fill-rule="evenodd"><path d="M319.368 927.015c-5.839-3.355-6.7-7.853-6.839-8.275-1.039-3.142-.739-6.5-.739-6.5 1.562.155 5.55 2.147 7.04 4.555s1.572 4.062 1.458 6.078c-.114 2.02-.47 4.084-.92 4.142z" stroke="#000" stroke-width=".08111468" fill="#666"/><path d="M317.271 915.434c.48 4.6.57 6.12.15 7.037-.5 1.094-1.183 1.894-1.183 1.894l1.094 1.14c.578.438 1.234.871 1.964 1.288.44-.058.778-2.047.89-3.995.11-1.944.03-3.536-1.423-5.858-.33-.528-.786-1.036-1.314-1.506h-.178z" fill="#4d4d4d"/></g><g fill-rule="evenodd"><path d="M330.447 941.813c-1.845-.325-3.075.39-4.85-1.35-.434-.428-1.259-3.717-.27-4.82 1.992-2.225 4.561-.538 5.178 1.159.653 1.786-.167 3.961-.058 5.011z" stroke="#000" stroke-width=".06472507" fill="#666"/><path d="M325.608 938.896c-.298-2.016.108-2.658.227-2.822.281-.386 1-.711 1.492-.667s2.086.314 2.473 1.631c.452 1.539.052 2.77.088 3.314.034.545.456 1.089.245 1.07-.211-.017-2.15-.231-2.35-.298-1.036-.347-2.142-1.041-2.175-2.228z" stroke="#000" stroke-width=".03250143"/><path d="M327.219 936.896c-.18.517.05.898.353 1.198.297.291 1.03.03 1.2.016.26-.02.75-.11.816-.391.09-.364-.13-.798-.308-.973-.175-.177-.497-.366-.8-.375-.367-.008-1.08.003-1.261.525z" fill="#ccc"/><path d="M-312.59 999.55c-.26-.16-2.01-.36-2.3-.55-.63-.43 1.08-1.97 1.32-2.05.65-.23.82.84 1.14 1.27.38.52.32 1.2-.16 1.33z" filter="url(#e)" fill="#c8ab37" transform="matrix(.2778 0 0 .2778 416.912 663.8)"/></g><path d="M-284.31 1036.2c.92-.3 6.41-1.9 5.2 1.1s-7.38-.2-5.2-1.1z" transform="matrix(.2653 0 0 .25122 413.326 691.34)" opacity=".894" filter="url(#f)" fill-rule="evenodd" fill="#c83737"/><g fill-rule="evenodd"><path d="M289.606 959.008c.203 1.223 1.886 1.5 2.503 1.584 1.528.222 4.061.417 6.642.361 2.28-.056 2.053-.333 2.886-.528 0 0-.014-.472-.53-.61-.517-.112-.692-.029-1.537.11-1.658.306-2.372-.11-3.947-.139-1.236-.027-2.42.195-4.37-.528-1.028-.36-1.7-.583-1.647-.25z" stroke="#000" stroke-width=".08111468" fill="#e9ddaf"/><path d="M290.112 959.675c-.562-.528-.328-.667-.328-.667s1.455 1.584 4.356 1.306c.66.195 3.855.417 4.797.333.944-.11 1.092-.194 1.7-.305s.745-.083.745-.083l.097.194s-.761.306-1.692.417-2.114 0-2.114 0h-1.897c-.317-.028-1.542-.223-2.973-.334-1.016-.083-2.1-.305-2.691-.86z" fill="#ffd5d5"/></g><g fill-rule="evenodd"><path d="M330.094 960.703c-.008 0-.047-.028-.053-.028-1.253-.25-1.944.611-3.078 1.111-.375.056-.77 0-1.172-.083-.792-.222-1.575-.417-2.397-.361-.423.028-.742.25-1.067.5-.314.361-.625.139-.472.556a.608.608 0 0 0 .278.25v.027c.802-.389 4.92.806 6.875-.389.772-.472 1.017-1 1.086-1.583z" stroke="#000" stroke-width=".08111468" fill="#fff6d5"/><path d="M321.966 962.12c2.803.055 2.6.166 3.161.222.614.111 2.517.167 2.914-.028s1.014-.639 1.086-.805c.075-.14.33-.723.703-.723s-.133.611-.133.611-.328.723-1.48 1.084c-1.154.389-.895.222-2.532.222-1.639.028-2.527-.361-3.42-.194-.471.083-.3-.39-.3-.39z" fill="#ffd5d5"/></g><g fill-rule="evenodd"><path d="M321.777 963.87c-.206-.028-.37-.084-.608-.084a3.74 3.74 0 0 0-1.223.195c-.339.139-.633.278-.947.361-.261.083-.58.139-1.128.195s-1.314.083-2.447.083c-.57 0-1.05-.028-1.495-.083s-.85-.112-1.275-.167-.866-.111-1.38-.14-1.1 0-1.806.057l-.017.055c.295.417.792.806 2.031.972 3.417.5 5.18.445 8.003-.055.6-.111 1.817-.445 2.292-1.39z" stroke="#000" stroke-width=".08111468" fill="#fff6d5"/><path d="M309.999 964.648c.07-.14.955.194 2.122.333s1.983.167 2.63.25c.32.056 2.54-.111 3.087-.083 1.32 0 2.308-.611 3.578-.973-.597.806-1.214.834-2.156 1.028-.125.028-1.983.39-3.964.334-1.983-.056-2.7-.14-3.753-.334s-1.544-.555-1.544-.555z" fill="#ffd5d5"/></g></svg>