<?xml version="1.0" encoding="utf-8"?>
<svg class="shirt" width="86" height="380" viewBox="202.715 584.407 86.5933 380.048" preserveAspectRatio="xMidYMax" xmlns="http://www.w3.org/2000/svg">
  <defs id="svgEditorDefs">
    <path id="svgEditorClosePathDefs" fill="black" style="stroke-width: 0px; stroke: none;" class="clothes"/>
    <radialGradient id="gradient-4" gradientUnits="userSpaceOnUse" cx="375.631" cy="782.985" r="19.057">
      <stop offset="0" style="stop-color: rgba(255, 64, 0, 1)"/>
      <stop offset="1" style="stop-color: rgba(153, 38, 0, 1)"/>
    </radialGradient>
    <linearGradient id="gradient-1" gradientUnits="userSpaceOnUse" x1="243.492" y1="706.021" x2="243.492" y2="767.529">
      <stop offset="0" style="stop-color: rgb(255, 191, 0);"/>
      <stop offset="1" style="stop-color: rgb(255, 0, 0);"/>
    </linearGradient>
  </defs>
  <g transform="matrix(2.390553, 0, 0, 0.979721, -652.408997, 27.52512)">
    <path id="path671" style="fill-rule: evenodd; stroke-width: 3.75; fill: url(#gradient-4);" d="M 356.574 780.117 C 356.574 780.117 358.915 787.06 361.572 792.901 C 364.226 798.741 368.912 801.581 369.537 801.581 C 370.161 801.581 370.787 798.268 370.631 796.373 C 370.474 794.48 366.101 790.692 373.598 796.689 C 381.095 802.687 386.406 805.213 385.936 803.16 C 386.717 798.11 377.971 787.535 383.595 789.428 C 389.217 791.323 398.744 795.742 392.809 788.797 C 386.874 781.852 380.782 778.694 385.936 778.853 C 391.092 779.011 396.089 781.379 393.59 776.801 C 391.092 772.224 379.069 765.106 373.915 762.107 C 369.853 764.158 361.883 769.542 356.574 780.117 Z" transform="matrix(0.740247, 0.672335, -0.672335, 0.740247, 623.999626, -49.16698)"/>
    <path id="path672" style="stroke-linejoin: round; fill-rule: evenodd; stroke-width: 12.5; fill-opacity: 0.6963; fill: rgb(255, 213, 0);" d="M 346.451 758.469 C 346.451 758.469 366.069 783.45 367.937 785.94 C 369.802 788.429 370.27 788.117 370.736 784.696 C 371.202 781.273 367.937 777.851 373.536 781.584 C 379.136 785.318 383.958 789.985 381.158 784.228 C 378.359 778.473 377.581 777.073 381.468 779.095 C 385.357 781.117 389.091 782.672 384.425 777.073 C 380.846 773.028 388.003 771.94 389.246 771.473 C 392.202 771.94 373.396 755.181 364.282 748.845 C 356.354 749.961 346.22 744.441 346.451 758.469 Z" transform="matrix(0.740247, 0.672335, -0.672335, 0.740247, 619.252679, -52.049862)"/>
  </g>
  <g transform="matrix(0.169725, 0, 0, 0.169725, 203.673218, 649.9375)">
    <g id="g237">
      <g id="g239">
        <path id="path3800_1_" style="stroke: rgb(1, 1, 1); stroke-width: 4; fill: rgb(255, 183, 0);" d="m458.98 152.17c-78.08-28.77-80.83 132.19-215.79 161.41-24.94 5.4 69.96 63.14 171.55 2.47 98.8-59 113.92-132.89 44.24-163.88z"/>
        <circle id="circle242" cy="202.42" cx="464.44" r="21.463" style="stroke: rgb(0, 0, 0); stroke-width: 4; fill: rgb(255, 0, 0);"/>
        <path id="path3200_2_" style="fill-opacity: 0.3137; fill: rgb(255, 0, 0);" d="m481.13 165.67c-0.52-0.43-1.06-0.84-1.59-1.27 6.54 33.25-16.53 78.13-70.86 121.88-72.22 58.15-150.5 43.7-169.47 30.49-1.1 12.94 84.52 53.66 175.54-0.7 86.45-51.62 108.81-114.68 66.38-150.4z"/>
      </g>
      <g id="g245">
        <path id="path3800_3_" style="stroke: rgb(1, 1, 1); stroke-width: 4; fill: rgb(255, 183, 0);" d="m398.74 106.69c-82.87-7.575-43.86 148.61-166.66 211.76-22.7 11.67 83.92 42.88 166.35-42.01 80.15-82.56 75.64-157.85 0.31-169.75z"/>
        <circle id="circle248" cy="154.91" cx="424.27" r="21.463" style="stroke: rgb(0, 0, 0); stroke-width: 4; fill: rgb(255, 0, 0);"/>
        <path id="path3200_3_" style="fill-opacity: 0.3137; fill: rgb(255, 0, 0);" d="m423.63 114c-0.61-0.28-1.25-0.54-1.87-0.81 14.93 30.42 4.26 79.74-36.9 136.06-54.71 74.86-134.06 81.16-155.8 73.31 2.29 12.79 95.53 29.96 169.38-46.1 70.14-72.24 75.42-138.94 25.19-162.46z"/>
      </g>
      <g id="g251">
        <path id="path3800_4_" style="stroke: rgb(1, 1, 1); stroke-width: 4; fill: rgb(255, 183, 0);" d="m355.4 75.532c-83.22-0.322-30.75 151.87-147.58 225.48-21.59 13.61 87.34 35.41 162.06-56.34 72.66-89.23 61.6-163.85-14.48-169.14z"/>
        <circle id="circle254" cy="114.28" cx="382.18" r="21.463" style="stroke: rgb(0, 0, 0); stroke-width: 4; fill: rgb(255, 0, 0);"/>
        <path id="path3200_4_" style="fill-opacity: 0.3137; fill: rgb(255, 0, 0);" d="m380.83 80.651c-0.63-0.229-1.29-0.431-1.93-0.648 17.52 29.007 11.19 79.067-24.9 138.76-47.98 79.35-126.48 92.54-148.82 86.62 3.39 12.53 97.77 21.51 164.71-60.7 63.58-78.08 63.03-144.98 10.94-164.03z"/>
      </g>
      <g id="g263">
        <g id="g265">
          <path id="path3169_1_" style="stroke: rgb(1, 1, 1); stroke-width: 4; fill: rgb(255, 183, 0);" d="m55.013 138.76c81.897-14.77 56.647 144.22 184.49 196.42 23.62 9.66-79.87 50.05-169.38-27.34-87.049-75.26-89.111-150.66-15.107-169.08z"/>
          <path id="path3205_2_" style="fill-opacity: 0.3137; fill: rgb(255, 183, 0);" d="m6.427 222.81c8.568 26.08 29.64 55.57 63.711 85.03 89.512 77.38 193 37.01 169.38 27.36-10.11-4.13-19.29-8.93-27.61-14.25-30.41 9.02-96.02 9.63-155.53-41.82-22.057-19.08-38.665-38.16-49.953-56.32zm105.63-49.06c5.7 12.75 11.72 26.33 18.86 40.09-6.57-14.61-12.48-28.4-18.86-40.09z"/>
        </g>
        <circle id="circle269" cy="202.42" cx="34.265" r="21.463" style="stroke: rgb(0, 0, 0); stroke-width: 4; fill: rgb(255, 0, 0);"/>
      </g>
      <g id="g271">
        <g id="g273">
          <path id="path3169_3_" style="stroke: rgb(1, 1, 1); stroke-width: 4; fill: rgb(255, 183, 0);" d="m97.979 106.69c82.871-7.571 43.861 148.61 166.66 211.76 22.7 11.67-83.92 42.89-166.35-42-80.156-82.56-75.639-157.86-0.311-169.76z"/>
          <path id="path3205_3_" style="fill-opacity: 0.3137; fill: rgb(255, 183, 0);" d="m42.252 186.19c6.263 26.73 24.684 57.94 56.058 90.25 82.43 84.9 189.05 53.7 166.35 42.03-9.71-4.99-18.44-10.58-26.26-16.6-31.08 6.33-96.5 1.22-151.29-55.22-20.314-20.93-35.195-41.38-44.858-60.46zm109.51-39.67c4.57 13.2 9.38 27.26 15.3 41.58-5.28-15.12-9.96-29.37-15.3-41.58z"/>
        </g>
        <circle id="circle277" cy="166.86" cx="70.369" r="21.463" style="stroke: rgb(0, 0, 0); stroke-width: 4; fill: rgb(255, 0, 0);"/>
      </g>
      <g id="g279">
        <g id="g281">
          <path id="path3169_4_" style="stroke: rgb(1, 1, 1); stroke-width: 4; fill: rgb(255, 183, 0);" d="m141.32 75.536c83.22-0.323 30.75 151.86 147.57 225.48 21.6 13.6-87.34 35.4-162.05-56.35-72.658-89.23-61.596-163.84 14.48-169.13z"/>
          <path id="path3205_4_" style="fill-opacity: 0.3137; fill: rgb(255, 183, 0);" d="m78.879 149.88c3.91 27.16 19.54 59.87 47.981 94.79 74.71 91.76 183.64 69.97 162.05 56.36-9.23-5.82-17.44-12.14-24.71-18.82-31.52 3.6-96.24-7.2-145.9-68.2-18.417-22.61-31.458-44.29-39.421-64.13zm112.55-29.98c3.4 13.55 6.96 27.97 11.61 42.76-3.93-15.53-7.36-30.13-11.61-42.76z"/>
        </g>
        <circle id="circle285" cy="126.23" cx="111.1" r="21.463" style="stroke: rgb(0, 0, 0); stroke-width: 4; fill: rgb(255, 0, 0);"/>
      </g>
    </g>
  </g>
  <path d="M 230.538 708.481 C 236.829 708.481 262.075 702.947 264.842 708.481 C 268.672 716.142 254.941 733.134 259.258 740.393 C 263.247 747.1 273.993 772.31 273.617 771.506 C 269.548 762.811 247.428 753.021 244.1 756.348 C 241.372 759.076 240.894 765.138 238.515 767.517 C 238.154 767.879 233.329 763.129 232.931 762.73 C 231.915 761.715 224.853 760.027 223.357 761.933 C 219.752 766.528 216.652 776.979 216.178 778.686 C 214.79 783.681 222.06 753.657 222.56 753.157 C 224.058 751.659 245.136 719.65 232.931 719.65" style="stroke: rgb(0, 0, 0); fill: url(#gradient-1);"/>
</svg>