<?xml version="1.0" encoding="utf-8"?>
<svg class="shirt" width="86" height="380" viewBox="202.715 584.407 86.5933 380.048" preserveAspectRatio="xMidYMax" xmlns="http://www.w3.org/2000/svg" xmlns:xlink="http://www.w3.org/1999/xlink">
  <defs id="svgEditorDefs">
    <path id="svgEditorClosePathDefs" fill="black" style="stroke-width: 0px; stroke: none;" class="clothes"/>
    <pattern id="pattern-0" x="0" y="0" width="20" height="20" patternUnits="userSpaceOnUse" viewBox="0 0 100 100">
      <path d="M 0 0 L 50 0 L 50 100 L 0 100 Z" style="fill: rgb(255, 133, 93);"/>
      <path d="M 49.92 0 L 99.92 0 L 99.92 100 L 49.92 100 Z" style="fill: rgb(250, 181, 102);"/>
    </pattern>
    <pattern id="pattern-0-0" patternTransform="matrix(1, 0, 0, 1, 224.792999, 763.514526)" xlink:href="#pattern-0"/>
    <pattern id="pattern-0-1" patternTransform="matrix(1, 0, 0, 1, 241.59549, 677.66748)" xlink:href="#pattern-0"/>
    <pattern id="pattern-0-2" patternTransform="matrix(1, 0, 0, 1, 225.098495, 665.44751)" xlink:href="#pattern-0"/>
  </defs>
  <rect id="svgEditorBackground" x="202.71499633789062" y="584.4310302734375" width="86.59329986572266" height="115.80899810791016" style="fill: none; stroke: none;" class="clothes"/>
  <rect id="rect-1" x="-403.988" y="499.579" width="1300" height="550" style="fill: none; stroke: none;" class="clothes"/>
  <polygon style="stroke: rgb(0, 0, 0); fill: url(#pattern-0-0);" points="235.099 741.436 219.212 763.433 206.381 825.145 222.267 782.985 216.157 819.646 233.876 768.932 222.267 820.257 241.209 780.541 241.209 754.268 258.317 732.882 263.205 721.884"/>
  <polygon style="stroke: rgb(0, 0, 0); fill: url(#pattern-0-1);" points="233.876 716.996 272.981 669.337 258.317 658.339 230.21 711.497"/>
  <polygon style="stroke: rgb(0, 0, 0); fill: url(#pattern-0-2);" points="222.267 668.726 242.431 685.835 247.93 676.058 227.155 665.06"/>
</svg>