<svg class="shirtOverlay" width="86" height="380" viewBox="202.715 584.407 86.593 380.048" preserveAspectRatio="xMidYMax" xmlns="http://www.w3.org/2000/svg"><path class="clothes" fill="none" d="M202.715 584.431h86.593V700.24h-86.593z"/><path class="clothes" fill="none" d="M-403.988 499.579h1300v550h-1300z"/><path d="M307.7 79.234c-98.525 13.611-122.51 78.652-127.62 95.779l1.366 19.127c-23.733 26.531-7.205 52.762-.892 70.279-5.993 7.178-8.38 11.651-12.57 37.157-33.252 26.04-61.095 34.052-73.614 33.051 0 1.803-5.108 1.202 0 5.408 6.01.3 12.376.019 18.028.902.759.118.475 1.911 1.202 2.103 3.079.81 8.642-1.154 10.216.901 2.031 2.653-.357 9.307.601 13.22.243.994 2.75.506 3.005 1.503 1.048 4.11 2.38 10.369.901 13.82-.924 2.157-5.97 4.11-8.112 3.005-4.068-2.1-7.011-8.413-10.516-12.619.901-2.303-7.211-5.508-1.803.3l5.108 9.916 1.502 6.01 2.404 2.103v5.408c16.077 17.003.4 15.023.6 22.535l5.71 21.333c1.192 15.1-15.39 52.807-41.465 16.826.71 5.77 1.936 35.356 56.487 14.723 7.612 10.216 22.835 21.845 22.835 30.647 0 6.22-15.224 9.615-22.835 14.422-3.442-2.561-28.974-1.326-22.234-33.051-24.84 42.338 10.2 33.94 11.418 49.877 1.003 1.975 4.595 8.61-6.31 5.408-2.303 2.003-3.053 2.453-5.357 4.456-3.405-3.705-10.262-11.035-11.769-9.564-.4.3-1.146.429 1.387 3.835 3.105 3.706 3.621 4.478 6.726 8.184 2.938.41-3.27 11.347 5.709 12.619 2.135 10.576 8.412 3.205 12.619 4.807 5.909 1.603 7.676 5.966 17.727 4.808-2.27 9.527-6.61 14.222-9.916 21.333-1.876 5.705 1.597 5.199 4.207 2.103 9.283-7.083 8.212-13.82 12.319-20.732 2.631 3.356 5.608 3.606 8.413 5.408-2.805.902-5.264 2.148-8.068 3.05.1 2.704-.145 5.063-.045 7.767-3.689 4.358-5.134 4.918-12.62 8.413-2.188 4.542 1.32 2.872 1.72 3.273 3.806-1.603 7.094-5.276 10.9-6.879l8.413.601c1.602-3.305 3.722-1.605 4.807-9.915 1.98 8.881 9.137 11.723 11.117 20.431 2.968 10.82-2.003 9.214-3.004 13.821 3.054 67.355 49.769 53.947 81.125 19.83 1.602 1.202-.247 4.13 4.807 3.606-.633 5.448-6.617 5.99-8.112 9.614-1.109 2.686-.861 6.817.3 9.315.842 1.809 4.468 4.35 5.709 3.605 1.764-1.058 2.638-5.946 3.305-9.013.334-1.54-.87-4.446-.3-4.808.532-.339 2.403 1.803 3.605 2.704 0 3.005-1.613 6.83 0 9.014 3.194 4.326 11.432 6.96 14.422 10.516.715.85-2.329 3.247-3.305 2.704-2.63-1.46-5.246-6.338-8.547-7.333-5.012-1.51-10.75-1.268-16.391-.178-3.173.613-6.982 1.764-9.014 3.906-1.674 1.764-2.367 5.332-2.103 7.812.237 2.227 1.921 4.668 3.605 6.31 2.222 2.164 6.533 2.483 8.113 5.107 4.028 6.69 5.809 15.223 8.713 22.835 7.976 2.042 10.773 4.084 12.018 8.714l6.31 5.408c-4.03 13.826.182 10.022 2.404 13.521 1.784 2.81 5.982 4.975 9.614 5.409 112.35 12.7 137.12 39.023 226.75 6.482 2.53-.9 5.726-4.428 4.808-6.61-5.582-13.206-12.112-21.01-15.529-45.542 1.803-.601 2.743 1.559 5.408-1.803 1.252 6.806 6.99 13.612 8.413 14.723 2.388 2.279-2.644-10.284-.6-12.32 8.024 1.927 10.871 1.265 16.825.602-26.728-32.783-18.08-38.817-20.13-70.91 8.073.261 23.74-.341 21.632-26.14 4.48 2.016 8.613-.8 12.92-1.201-7.243 21.672 3.288 5.205 5.709.3l5.709-.3c.491 16.508-6.61 11.618-9.916 17.427.012 2.003-1.704 4.006 2.104 6.01 8.323-.517 29.072-11.56 27.042-42.967 10.236-1.892 10.117-8.961 11.034-39.5 11.08-22.408 15.257-32.044 20.815-64.46l-.3-59.19c2.603.9 5.207 1.802 7.811 2.704-2.704-4.007-7.037-8.079-8.112-12.018-.428-1.569 2-5.11 3.606-4.507 5.575 2.028 7.611.8 11.418 1.201l-4.808-6.91 6.91-.3c.797-4.642.386-4.968-3.304-10.818-2.504-.4-4.982 3.304-15.624-6.61l-5.108-13.82c-1.036-3.625-3.606-.301-3.305.3.3.6.901 7.511.901 7.511-7.418-4.248-16.906-15.399-18.629-30.347 14.556 13.094 30.493 15.833 6.91-4.206.361-8.783 6.934-8.42 10.574-10.817-1.803-2.404-6.367-4.807-8.17-7.211 17.858-94.856-22.958-108.6-31.849-118.38 1.565-22.265-32.247-69.553-108.17-82.327-11.582-4.093-22.647-11.637-47.173-28.844-9.114-1.826-17.883-1.408-27.342-.3-2.297-3.601-7.01-3.406-10.516-5.108l-63.698-.3z" fill-rule="evenodd" stroke="#000" stroke-width="1.638" transform="matrix(.04968 0 0 .05244 230.485 668.735)"/><path d="M363.12 340.35c-1.905-13.42 3.268-15.436 9.416-22.495.175-4.534-1.36-8.086 2.616-14.648-.172-6.903.701-10.374-6.356-13.445-2.023-3.939 7.462-3.828 10.743-14.358 6.518-1.832 4.377-.555 12.354-4.631 15.615-.83 18.378 1.03 37.404-.785 9.417-1.134 22.218.104 31.701-3.228 4.185.234 13.114 8.72 21.397 13.167 5.819 2.76 5.77-2.42 10.724-.523 2.504 3.043-1.083 9.297 5.493 6.016l1.57-6.54c-.96-2.964-4.45-27.985-8.343-31.923 0 0-12.582-23.528-93.93-43.93-94.808-16.951-125.51-4.98-154.85 10.724-4.832 3.796-24.943 22.767-25.895 37.143 6.641 3.158 5.754 6.8 5.754 6.8-1.83 19.706-3.662 39.41-5.493 59.115-10.354 17.947-8.37 74.024 2.616 104.1 10.986 30.08 3.298 13.13 6.405 25.555 10.249.962 3.758 6.24-1.697 4.786v8.109c1.308 0 4.796 3.836 5.232 5.754v7.324c1.386 8.917 1.594 10.143 5.23 2.616l3.925 1.307 2.092 8.632c3.139.175 6.66-.656 10.891 2.983-.977 4.66-6.096 2.074-8.799 2.249 0 1.918-1.09 4.927 0 5.754 1.438 1.09 6.24-1.303 7.586 0 1.444 1.4-.31 6.323.784 8.109.562.917 3.812-.997 4.185 0 .935 2.491.555 7.257-.261 10.463-.405 1.59-3.1 2.781-3.4 3.923-.136.515 2.01.349 2.092 1.046.355 3.052-1.94 7.516-.785 10.201 2.479 4.845 8.393 4.432 12.817 3.662l3.4-5.492c.35-3.14.74-9.415 2.57-9.328 5.352-.07 4.319 3.137 4.493 4.62 6.946 3.123 4.534 6.974 4.708 9.939l5.493-.262s6.8 15.432 20.141 19.88c13.34 4.446 6.899 1.736 17.425 2.254 4.185 1.395 7.162 1.582 11.347 2.977l17.002 2.354s5.493.261 6.8-3.14c1.309-3.4 2.093-4.969 2.093-4.969 1.395 0 3.488-.697 4.186 0 .697.698-.93 3.779 0 4.185 1.86.815 6.583.594 8.37-.523 1.003-.627-1.159-4.231 0-4.708 3.288-1.354 10.132 2.46 13.167.596 1.934-1.188-.822-7.195 2.95-9.578 5.828-3.683 14.534-2.352 14.486-3.05-.475-6.887 2.84-16.99-2.198-20.947-7.143-5.613-10.62.283-15.85-2.332-5.232-2.616 2.354 0-6.016-3.662-8.37-3.662-9.155-3.924-9.155-3.924l-21.187-.261s-6.278-1.831-8.109-1.831c-1.83 0-12.294-.524-12.294-.524-7.765-7.248-6.488-.695-10.2-11.247.773-4.856 11.77-4.708 11.77-4.708l18.31.262 20.141-1.831c14.694-7.092 17.264-16.217 1.308-21.972-13.195.285-19.045-.449-26.157.523l-22.756.262-5.493 4.446-9.678 2.616c-6.603 2.583-19.963-2.481-4.25-9.495 14.185-3.807 17.486-5.657 32.5-12.216 11.534 3.018 11.334-.523 17.001-.784l19.356-1.57c3.226 0 21.655 2.941-1.308-8.108-1.046-.523-5.231-6.016-5.493-6.801-.779-10.966 4.589-8.89 3.824-19.356.349-4.795-.51-9.591-.162-14.386 1.817-8.03-9.678-2.877-9.94 0-6.473 3.74-13.544 2.974-16.74-5.754-.26-1.308-3.73-1.964-12.554 3.662l-8.894-2.878c-4.677-.53-8.128-5.803 0-13.863 4.622.262 8.898 1.041 13.518 1.303 5.64 4.503 5.586 3.484 9.5 4.19 3.226.349 10.991 3.931 24.85-6.016 16.27.694 17.295 2.29 23.54 6.278l1.308 7.585 1.047 5.755s3.4 2.092 3.4 1.57c1.208-3.975-1.09-8.625 4.447-8.371 5.88 6.489 2.819 12.819-4.709 13.078-.436 1.395-1.712 5.544-9.94 1.046l-6.015 2.354c-3.797 6.385 2.354 13.078 2.354 13.078l15.432 12.032c5.755 1.22 11.509 2.96 17.264 4.18 17.811 8.045 23.564 22.986 28.772 9.684 4.52-4.774 6.728-5.722 19.879-12.294 7.348-3.388 2.65-8.5-20.402-1.831-5.967-2.478-4.083-11.912-1.831-20.402 2.877-3.662 2.476-4.736 5.353-8.398 3.81-.79 10.897-4.169 14.706-4.959 0 0 11.101-1.982 6.343-3.964-4.757-1.983-4.974-12.288-1.005-11.425 5.192 1.825 2.19 12.172 7.745 3.495l4.361-10.11 4.163-10.704 9.912-7.136 2.379-.793-1.19-12.29-12.489-2.775-10.11-1.19h-14.669s-5.352 2.18-6.343 2.18c-.991 0-5.352-.197-5.352-.197l-1.388-7.731c-.418-5.355 12.848 4.178 7.056-4.45-2.844-4.183-.38-3.08-10.933-1.945-1.717-.132-4.119-1.402-5.837-1.535 0 0-4.955-2.18-4.955-1.784 0 .397-6.146-.396-6.146-.396l-.594-2.775 2.18-1.19 15.065.198c5.605-4.285-.168-9.099-7.929-2.973l-9.911.198s-6.939-10.903-11.101-10.903-12.258 4.658-18.086 5.635c-3.221-2.897-10.391-1.982-6.297 7.25 6.636 5.66 3.04 6.938 2.973 8.92 0 0-4.36 5.75-6.343 6.344-1.982.595 1.908 8.165-4.728 6.828-.727-2.114-1.626-12.662-3.796-1.476l-2.18 3.37h-4.758l-3.568-5.748c-2.956-.75-2.506-2.001-2.57-2.903z" fill-rule="evenodd" stroke="#000" stroke-width="1.638" fill="#fff" transform="matrix(.04968 0 0 .05244 230.485 668.735)"/><path d="M315.73 274.47c16.057 4.956 18.039 11.894 18.039 11.894l1.784 3.766-.198 15.065-2.775 1.388-2.776 3.568-2.775.991h-6.74l-.198 2.974c-11.242 1.984-14.249-1.352-17.84-7.335h-6.74l-.199 5.55c-3.304 3.503-7.599 15.926-25.374.992-3.172 1.982-4.757 1.982-5.749 5.748-.99 3.767-3.964 9.12-3.964 9.12h-14.273c-3.04 0-10.44-1.19-6.145-9.516 3.276-5.175 9.987-12.736 19.228-16.255 1.123-.793 8.92-2.643 11.696-2.775l2.577-2.775c0-1.388.793-4.56 1.189-4.758 0-.33-2.247-1.387-3.37-1.586l-4.361-.99c-2.852 1.38-7.492.28-11.101 1.585-1.312.685-3.66 1.456-5.749-.793-.462-.264-1.374-1.07-3.568 1.423 0 1.982.604 3.188 0 5.515-1.566 1.122-3.304 0-4.956 0l-.99 1.982c-1.332 2.051-2.163 2.16-3.767-1.982 0-2.18 1.68-5.79-.198-11.497-.397-.066-2.438-2.69-.992-5.749 6.747-.304 7.594-3.447 7.93-5.352.844-4.588 5.12-3.947 12.885-3.568h2.577c0-2.792 2.676-2.792 1.793-.086 2.18 0 2.808.604 4.989.604 2.35 2.533 3.337 1.417 3.724-.122 1.33 1.58 3.702 2.97 6.145.793.376 3.33 3.37 1.718 4.361 1.982 4.266 1.833 3.7-.132 5.55-.198 5.991 2.594 16.124.53 24.185.793l1.189.793 4.361.595.595-1.784z" stroke-linejoin="round" fill-rule="evenodd" stroke="#000" stroke-width="1.638" transform="matrix(.04968 0 0 .05244 230.485 668.735)"/><path d="M280.64 304.01c0 .793.396 5.154.396 5.154l3.37.198v-.991l.991-.793.397-3.37-5.154-.198z" fill-rule="evenodd" stroke="#000" stroke-width="1.638" fill="#fff" transform="matrix(.04968 0 0 .05244 230.485 668.735)"/><path d="M386.52 367.38c5.356 1.77 4.995 3.975 4.304 5.01-.69 1.036-7.248 1.036-7.938-1.035-.69-2.07.134-3.78 3.634-3.975zM316.98 402.78c-2.522.508-1.397 3.435-1.397 3.435s5.868 0 5.868-1.035-.475-1.304-4.47-2.4zM331.46 417.95c-2.1 4.442-3.033 9.575-.93 10.476l3.675-.585c-.915-3.297 1.475-5.843-2.745-9.89zM302.3 446.43c-3.975 2.956-.731 5.226-3.285 12.588.15 2.554 4.832 6.212 5.867-.69s1.17-11.195 1.17-11.195c-1.15-1.036-.799-2.071-3.752-.703z" stroke-linejoin="round" fill-rule="evenodd" stroke="#000" stroke-width="1.638" transform="matrix(.04968 0 0 .05244 230.485 668.735)"/><path d="M282.35 453.62c-17.537 16.92-11.162 38.201-10.261 40.605 1.653 1.803 5.234 3.269 8.974-4.142 1.035-9.664 2.07-22.089 2.07-22.089.902-3.756-1.62-2.724 1.726-8.283 8.454 4.507 7.133-4.372 7.939-6.558-2.531-.345-6.565-2.042-10.448.467z" stroke-linejoin="round" fill-rule="evenodd" stroke="#000" stroke-width="1.536" transform="matrix(.04968 0 0 .05244 230.485 668.735)"/><path d="M235.16 448.32c-6.213 11.735-1.052 20.424.6 21.025 2.083.307 2.512-5.245 2.79-7.492-.46-4.371-.319-9.795-1.38-11.613-.92-3.093-1.09-2.582-2.01-1.92z" stroke-linejoin="round" fill-rule="evenodd" stroke="#000" stroke-width="1.638" transform="matrix(.04968 0 0 .05244 230.485 668.735)"/><path d="M416.71 477.31c-8.283-4.487-10.354 1.035-10.354 1.035-.6 1.48 1.912 5.774 7.593 3.107 1.38-.23 8.126 2.044 2.761-4.142zM401.86 478c-4.142.69-5.515 2.06-4.142 3.106 5.158 2.292 6.68 1.829 4.963-.988-.23-.575 1.698-3.112-.821-2.118z" fill-rule="evenodd" stroke="#000" stroke-width="1.638" fill="#fff" transform="matrix(.04968 0 0 .05244 230.485 668.735)"/><path d="M235.06 679.25c-2.577.793 0 9.515 0 14.273-6.872-.396-18.304-4.956-15.859 7.136 4.163 9.78 10.308 9.648 15.462 31.718 5.286 6.014 12.555 5.881 15.859-.396 1.652-19.097.727-23.92-11.101-35.286-1.454-5.815-2.115-16.784-4.361-17.445z" stroke-linejoin="round" fill-rule="evenodd" stroke="#000" stroke-width="1.638" transform="matrix(.04968 0 0 .05244 230.485 668.735)"/><path d="M295.52 648.92c8.92 3.965 18.893-.634 26.762 11.894 10.645 5.67 15.28 12.242 30.132 20.616 3.016-9.48 1.526-11.899 1.388-24.383.702-.111 7.263 10.444 9.317 27.158 3.105 3.525 11.62 3.595 9.317 18.238 2.188 2.86 1.972 4.218-5.154 3.172-11.336-11.46-51.517-30.13-75.924-50.154-2.97-3.232-5.037-6.314 4.162-6.542z" stroke-linejoin="round" fill-rule="evenodd" stroke="#000" stroke-width="1.638" fill="#fff" transform="matrix(.04968 0 0 .05244 230.485 668.735)"/><path d="M151.01 680.83c-25.316-11.239-38.854-7.136-38.854-7.136 6.793 24.525 22.149 39.285 28.942 42.026 11.212.902 9.354-6.007 11.101-9.912 16.369 17.734 12.756-3.893 6.74-6.74 3.564-16.564-2.337-19.456-.125-32.114-3.653 3.724-6.105 8.5-7.804 13.876zM132.42 618.39c-11.16 4.97-28.016 9.94-33.481 14.91.174.523-1.032 1.391.523 1.57 8.349-.63 12.555-4.709 18.833-7.063l1.57 4.708c-2.093 1.395-5.911 1.928-6.278 4.185 1.778 1.454 9.941.146 15.17-3.923 2.093-2.441-.646-7.299 6.279-7.324-.872-2.354 1.535-6.089-2.616-7.063zM153.54 618.29c5.465-1.668-.978-5.58-3.797-3.97-.575 3.567-2.876 4.373-4.314 6.558 1.898 8.63 1.208 9.492-1.553 13.978-1.726 5.178 1.726 3.97 3.624 3.107 4.142-2.244 5.522-4.832 8.284-7.248 8.858-7.939 2.53-8.457-3.97-3.107-2.63 1.409-3.437-1.282-3.106-4.314 2.635-1.896 4.246-3.564 4.832-5.005zM100.56 561.52c-9.664 8.284-10.009 13.461-10.009 13.461s7.938-1.726 8.629-3.451c.69-1.726 4.626-1.072 6.903-5.854-1.841-3.434-3.682-3.909-5.523-4.156z" stroke-linejoin="round" fill-rule="evenodd" stroke="#000" stroke-width="1.638" transform="matrix(.04968 0 0 .05244 230.485 668.735)"/><path d="M569.62 716.49c28.647 12.08 21.744 20.019 21.744 20.019l-3.451 7.593s-7.594-2.07-11.39-11.735c-3.797-9.664-7.594-15.187-6.903-15.877z" stroke-linejoin="round" fill-rule="evenodd" stroke="#000" stroke-width="1.536" transform="matrix(.04968 0 0 .05244 230.485 668.735)"/><path d="M545.8 712.69c0-3.106-4.832-12.425-4.832-11.39-2.577 5.991-1.71 11.126 4.832 11.39z" fill-rule="evenodd" stroke="#000" stroke-width="1.638" transform="matrix(.04968 0 0 .05244 230.485 668.735)"/><path d="M559.97 731.58c5.65 3.27 12.092 8.326 9.317 8.722-2.775.397-7.136.595-7.136-.396-2.181-3.965-4.064-7.037-2.181-8.326z" stroke-linejoin="round" fill-rule="evenodd" stroke="#000" stroke-width="1.638" transform="matrix(.04968 0 0 .05244 230.485 668.735)"/><path d="M248.03 675.955c-.16-.045-.25-.109-.41-.153-.088.151-.248.321-.337.473-.01-.18.05-.34.04-.52l-.551-.152.462-.197c-.01-.18.068-.396.058-.575.105.138.122.314.227.453.154-.066.326-.114.48-.18-.09.152-.196.285-.285.436l.317.415z" fill="#fff"/><g stroke="#000"><path d="M390.37 33.397l-4.453 122.45-21.522-3.71-2.968-118-27.46.741L331 40.073l14.1 117.26-22.263 1.485-20.038-123.94-34.14.742 34.14 135.07-21.522 2.968-45.271-137.3H203.35l58.629 155.11-23.007 2.227-74.22-161.05-43.79 2.23 106.13 185.54-13.36 21.52-143.98-208.54-28.942 4.45-.742 35.623 164.75 201.12 9.648 26.717-12.616.742L40.8 137.287v59.372l170.69 148.43-5.937 16.327-164.76-113.55-.743 49.724 158.82 86.831-7.421 23.007-20.78-10.39-4.453-4.453-126.91-51.95 2.226 43.787 145.46 44.53-.742 19.295-144.72-25.233-1.484 39.334 152.88 12.616-4.453 21.522-149.17 5.195-2.226-469.04 353.26.742z" transform="matrix(.048 0 0 .05067 230.165 666.098)"/><path d="M360.68 33.397l4.453 122.45 21.522-3.71 2.969-118 27.458.741 2.97 5.195-14.102 117.26 22.264 1.485 20.038-123.94 34.14.742-34.14 135.07 21.522 2.969 45.271-137.3H547.7l-58.629 155.11 23.007 2.226 74.215-161.05 43.787 2.226-106.13 185.54 13.36 21.522 143.98-208.54 28.943 4.453.742 35.623-164.76 201.12-9.648 26.717 12.616.742 161.05-164.76v59.372l-170.69 148.43 5.938 16.327 164.76-113.55.742 49.724-158.82 86.831 7.421 23.007 20.78-10.39 4.453-4.453 126.91-51.95-2.226 43.787-145.46 44.53.742 19.295 144.72-25.233 1.484 39.334-152.88 12.616 4.453 21.522 149.17 5.195 2.226-469.04-353.26.743z" transform="matrix(.048 0 0 .05067 230.165 666.098)"/><path d="M390.37 33.397l-4.453 122.45-21.522-3.71-2.968-118-27.46.741L331 40.073l14.1 117.26-22.263 1.485-20.038-123.94-34.14.742 34.14 135.07-14.175 23.435-52.618-157.76H203.35l71.749 182.92-16.71 10.098-93.63-196.73-43.787 2.226 139.19 246.94-18.082.006L69.76 33.395l-28.942 4.45-.742 35.622 164.75 201.12 9.648 26.717-12.616.742-161.05-164.76v59.372l170.69 148.43-5.937 16.327-164.76-113.55-.743 49.724 158.82 86.831-7.421 23.007-20.78-10.39-4.453-4.452-126.91-51.95 2.226 43.787 138.64 47.677 6.08 16.147-144.72-25.233-1.484 39.334 152.88 12.616-4.453 21.522-149.17 5.195-2.226-469.04 353.26.742z" transform="matrix(.048 0 0 -.05067 230.225 715.18)"/><path d="M360.68 33.397l4.453 122.45 21.522-3.71 2.969-118 27.458.741 2.97 5.195-14.102 117.26 22.264 1.485 20.038-123.94 34.14.742-34.14 135.07 21.522 2.969 45.271-137.3H547.7l-58.629 155.11 23.007 2.226 74.215-161.05 43.787 2.226-106.13 185.54 13.36 21.522 143.98-208.54 28.943 4.453.742 35.623-164.76 201.12-9.648 26.717 12.616.742 161.05-164.76v59.372l-170.69 148.43 5.938 16.327 164.76-113.55.742 49.724-158.82 86.831 7.421 23.007 20.78-10.39 4.453-4.453 126.91-51.95-2.226 43.787-145.46 44.53.742 19.295 144.72-25.233 1.484 39.334-152.88 12.616 4.453 21.522 149.17 5.195 2.226-469.04-353.26.743z" transform="matrix(.048 0 0 -.05067 230.225 715.18)"/><path stroke-width="14.949" fill="none" d="M41.535 38.754h669.47v893.77H41.535z" transform="matrix(.048 0 0 .05067 230.165 666.076)"/></g></svg>