<?xml version="1.0" encoding="utf-8"?>
<svg class="shirt" width="86" height="380" viewBox="202.715 584.407 86.5933 380.048" preserveAspectRatio="xMidYMax" xmlns="http://www.w3.org/2000/svg">
  <defs id="svgEditorDefs">
    <path id="svgEditorClosePathDefs" fill="black" style="stroke-width: 0px; stroke: none;" class="clothes"/>
    <linearGradient x1="187.14" y1="1018.1" x2="530" gradientUnits="userSpaceOnUse" y2="916.65002" id="linearGradient5084">
      <stop offset="0" style="stop-color:#fff278" id="stop4969"/>
      <stop offset="1" style="stop-color:#fff489" id="stop4971"/>
    </linearGradient>
    <linearGradient x1="434.29001" y1="1043.8" x2="434.29001" gradientUnits="userSpaceOnUse" y2="876.65002" id="linearGradient5088">
      <stop offset="0" style="stop-color:#f2e251" id="stop4985"/>
      <stop offset="1" style="stop-color:#f3e460" id="stop4987"/>
    </linearGradient>
    <linearGradient x1="337.14001" y1="1039.5" x2="338.57001" gradientUnits="userSpaceOnUse" y2="870.92999" id="linearGradient5090">
      <stop offset="0" style="stop-color:#f2e251" id="stop4977"/>
      <stop offset="1" style="stop-color:#f4e76d" id="stop4979"/>
    </linearGradient>
    <linearGradient x1="250" y1="1043.8" x2="250" gradientUnits="userSpaceOnUse" y2="862.35999" id="linearGradient5092">
      <stop offset="0" style="stop-color:#f2e251" id="stop4999"/>
      <stop offset="1" style="stop-color:#f4e668" id="stop5001"/>
    </linearGradient>
  </defs>
  <rect id="svgEditorBackground" x="202.71499633789062" y="584.4310302734375" width="86.59329986572266" height="115.80899810791016" style="fill: none; stroke: none;" class="clothes"/>
  <rect id="rect-1" x="-403.988" y="499.579" width="1300" height="550" style="fill: none; stroke: none;" class="clothes"/>
  <g transform="matrix(0.134571, 0, 0, 0.141738, 204.30304, 732.255981)">
    <g transform="translate(96.809425,-74.558894)" id="layer1">
      <g transform="matrix(2.1551554,0,0,2.432926,-1852.0849,3436.9849)" id="g6495">
        <g transform="matrix(0.62949,0,0,0.62949,739.3,-1819.8)" id="g5067">
          <path d="M 366.41 837.71 C 303.841 838.238 265.462 838.781 214.114 840.366 C 198.455 841.721 209.083 834.648 193.482 836.367 C 192.058 840.131 185.051 847.037 185.098 851.147 C 156.422 901.381 143.779 952.046 149.093 1000.299 C 150.797 1016.383 151.727 1032.535 153.357 1048.625 C 156.257 1051.227 161.526 1049.005 165.321 1049.741 C 189.024 1049.628 212.749 1050.032 236.437 1049.295 C 239.565 1047.186 237.801 1042.238 238.459 1039.027 C 238.989 1003.512 238.154 968.002 237.03 932.507 C 237.189 918.598 236.12 904.512 238.134 890.716 C 239.206 885.549 242.73 877.889 249.205 879.516 C 256.123 882.202 259.932 889.943 258.937 897.171 C 257.956 931.344 259.343 965.517 260.231 999.671 C 260.638 1016.064 259.942 1032.632 260.666 1048.913 C 265.679 1050.431 271.84 1049.385 277.279 1049.942 C 294.079 1050.219 311.059 1050.893 327.754 1050.151 C 329.252 1045.193 328.519 1039.154 328.97 1033.756 C 329.794 983.064 328.611 932.366 327.888 881.676 C 330.034 877.018 334.592 871.662 340.254 873.797 C 346.972 875.49 348.965 883.767 348.83 889.867 C 350.66 942.273 350.062 994.727 350.745 1047.147 C 351.466 1052.341 358.098 1050.567 361.749 1050.972 C 380.942 1051.021 400.202 1051.984 419.361 1050.919 C 423.444 1050.025 421.369 1044.356 421.899 1041.432 C 420.855 1008.856 418.045 976.345 417.967 943.731 C 417.675 925.503 417.642 907.273 417.508 889.043 C 421.153 885.711 424.829 880.342 430.164 880.182 C 434.615 881.555 436.81 886.167 439.852 889.311 C 442.163 900.092 441.434 911.461 442.343 922.476 C 444.546 964.404 445.37 1006.393 447.533 1048.316 C 446.707 1053.771 453.576 1051.236 456.744 1052.001 C 482.738 1052.769 508.781 1053.635 534.762 1053.728 C 538.569 1052.687 536.278 1047.345 537.143 1044.578 C 538.524 994.501 528.323 958.37 520.32 908.915 C 516.336 884.299 488.136 849.459 486.787 832.756 C 474.256 834.982 481.793 832.856 460.912 838.048 C 408.958 838.291 424.664 836.895 372.684 837.675 C 370.593 837.67 368.502 837.687 366.412 837.697 L 366.41 837.71 Z" style="color:#000000;fill:url(#linearGradient5084)" id="path4945"/>
          <path d="M 428.76 882.48 C 419.845 884.16 419.306 894.235 420.078 901.542 C 419.415 948.347 423.208 995.035 424.758 1041.762 C 420.948 1053.77 432.798 1051.298 440.546 1051.226 C 449.557 1050.768 442.274 1036.189 444.183 1029.942 C 442.035 985.201 442.657 940.152 436.84 895.692 C 435.492 891.359 434.803 882.495 428.76 882.478 L 428.76 882.48 Z" style="color:#000000;fill:url(#linearGradient5088)" id="path4957"/>
          <path d="M 337.7 875.55 C 332.327 876.645 330.179 882.708 330.881 887.648 C 330.789 939.001 331.696 990.358 331.781 1041.708 C 332.272 1044.673 330.092 1050.887 334.977 1050.771 C 338.861 1050.628 342.999 1051.102 346.696 1050.056 C 348.607 1016.735 347.623 983.181 347.535 949.766 C 347.127 926.793 347.339 903.77 345.959 880.837 C 344.642 877.749 341.042 875.464 337.7 875.547 L 337.7 875.55 Z" style="color:#000000;fill:url(#linearGradient5090)" id="path4959"/>
          <path d="M 247.85 880.31 C 243.543 881.601 239.8 884.96 239.859 889.752 C 237.901 922.924 240.914 956.136 241.014 989.327 C 241.472 1008.879 241.373 1028.503 242.113 1048.011 C 245.669 1051.199 251.352 1049.397 255.729 1049.819 C 258.441 1047.637 256.831 1042.753 257.593 1039.463 C 259.085 993.518 255.155 947.622 255.886 901.673 C 255.368 896.857 256.929 891.382 255.094 886.969 C 252.636 885.041 250.964 880.808 247.85 880.312 L 247.85 880.31 Z" style="color:#000000;fill:url(#linearGradient5092)" id="path4961"/>
        </g>
      </g>
    </g>
  </g>
</svg>