<svg class="shirtOverlay" width="86" height="380" viewBox="202.715 584.407 86.593 380.048" preserveAspectRatio="xMidYMax" xmlns="http://www.w3.org/2000/svg" xmlns:xlink="http://www.w3.org/1999/xlink"><defs><pattern id="s" width="20" height="20" patternUnits="userSpaceOnUse" viewBox="0 0 100 100"><g transform="matrix(.207 0 0 .23004 21.307 24.596)"><linearGradient id="a" y2="293.36" gradientUnits="userSpaceOnUse" x2="271.69" y1="226.22" x1="213.28"><stop offset="0" stop-color="#fff"/><stop offset=".109" stop-color="#fcdbfb"/><stop offset=".265" stop-color="#f8aef6"/><stop offset=".385" stop-color="#f692f3"/><stop offset=".455" stop-color="#f587f2"/></linearGradient><path d="M220.39 222.21s67.057 4 64.028 70.5v8s-47.528 10.9-80.028-41.3l-8.861-20.7 24.861-16.5z" stroke="#d5d6d7" stroke-width=".197" fill="url(#a)"/><linearGradient id="b" y2="292.99" gradientUnits="userSpaceOnUse" x2="114.64" y1="250.69" x1="153.49"><stop offset="0" stop-color="#fff"/><stop offset=".109" stop-color="#fcdbfb"/><stop offset=".265" stop-color="#f8aef6"/><stop offset=".385" stop-color="#f692f3"/><stop offset=".455" stop-color="#f587f2"/></linearGradient><path d="M134.56 234.28s-22.427 12.719-24.495 66.719c0 0 41.155 14.756 57.432-39L134.56 234.28z" stroke="#d5d6d7" stroke-width=".197" fill="url(#b)"/><linearGradient id="c" y2="224.8" gradientUnits="userSpaceOnUse" x2="150.03" y1="224.8" x1="13.533"><stop offset=".127" stop-color="#fff"/><stop offset=".176" stop-color="#fde8fc"/><stop offset=".252" stop-color="#fbcaf9"/><stop offset=".337" stop-color="#f9b1f7"/><stop offset=".431" stop-color="#f79ef5"/><stop offset=".542" stop-color="#f691f3"/><stop offset=".683" stop-color="#f589f2"/><stop offset=".957" stop-color="#f587f2"/></linearGradient><path d="M150.03 227.25S129 256 88.5 245.5s-77.238-36.66-74.857-43.7" stroke="#d5d6d7" stroke-width=".197" fill="url(#c)"/><linearGradient id="d" y2="198.89" gradientUnits="userSpaceOnUse" x2="354.5" y1="198.89" x1="236.11"><stop offset=".127" stop-color="#fff"/><stop offset=".13" stop-color="#fffeff"/><stop offset=".243" stop-color="#fcdafb"/><stop offset=".362" stop-color="#f9bcf8"/><stop offset=".487" stop-color="#f7a5f5"/><stop offset=".62" stop-color="#f694f3"/><stop offset=".768" stop-color="#f58af2"/><stop offset=".957" stop-color="#f587f2"/></linearGradient><path d="M354.5 163.5s0 28.5-52.5 55.5-65.886 10-65.886 10" stroke="#d5d6d7" stroke-width=".197" fill="url(#d)"/><linearGradient id="e" y2="74.271" gradientUnits="userSpaceOnUse" x2="155.75" y1="151.24" x1="172.01"><stop offset=".127" stop-color="#fff"/><stop offset=".326" stop-color="#fcdbfb"/><stop offset=".61" stop-color="#f8aef6"/><stop offset=".83" stop-color="#f692f3"/><stop offset=".957" stop-color="#f587f2"/></linearGradient><path d="M140.5 156.5s-33.5-21-9-108c0 0 4.5-34.991 20-22.746 15.5 12.249 55.5 33.25 49 80.75l-6.5 47.5-53.5 2.5z" stroke="#d5d6d7" stroke-width=".197" fill="url(#e)"/><linearGradient id="f" y2="126.25" gradientUnits="userSpaceOnUse" x2="325.5" y1="126.25" x1="242.21"><stop offset=".127" stop-color="#fff"/><stop offset=".177" stop-color="#fde6fc"/><stop offset=".251" stop-color="#fac9f9"/><stop offset=".333" stop-color="#f8b1f7"/><stop offset=".425" stop-color="#f79ef4"/><stop offset=".534" stop-color="#f691f3"/><stop offset=".674" stop-color="#f589f2"/><stop offset=".957" stop-color="#f587f2"/></linearGradient><path d="M325.5 76.5S310 152 266 176c0 0-16.943-3.35-23.792-24.616" stroke="#d5d6d7" stroke-width=".197" fill="url(#f)"/><linearGradient id="g" y2="83.089" gradientUnits="userSpaceOnUse" x2="304.46" y1="144.09" x1="241.18"><stop offset=".127" stop-color="#fff"/><stop offset=".177" stop-color="#fde6fc"/><stop offset=".251" stop-color="#fac9f9"/><stop offset=".333" stop-color="#f8b1f7"/><stop offset=".425" stop-color="#f79ef4"/><stop offset=".534" stop-color="#f691f3"/><stop offset=".674" stop-color="#f589f2"/><stop offset=".957" stop-color="#f587f2"/></linearGradient><path d="M238.5 113.5s2.5-27.5 53-37c0 0 36.5-7.5 34 0s-24 63-59.5 80-27.5-43-27.5-43z" stroke="#d5d6d7" stroke-width=".197" fill="url(#g)"/><linearGradient id="h" y2="93.774" gradientUnits="userSpaceOnUse" x2="245.82" y1="93.774" x1="219"><stop offset=".127" stop-color="#fff"/><stop offset=".326" stop-color="#fcdbfb"/><stop offset=".61" stop-color="#f8aef6"/><stop offset=".83" stop-color="#f692f3"/><stop offset=".957" stop-color="#f587f2"/></linearGradient><path d="M221 25.754s9.887-19.531 23.763 98.215L245 126s8 19.011-26 37.005" stroke="#d5d6d7" stroke-width=".098" fill="url(#h)"/><linearGradient id="i" y2="35.271" gradientUnits="userSpaceOnUse" x2="223.27" y1="150.61" x1="202.08"><stop offset=".127" stop-color="#fff"/><stop offset=".326" stop-color="#fcdbfb"/><stop offset=".61" stop-color="#f8aef6"/><stop offset=".83" stop-color="#f692f3"/><stop offset=".957" stop-color="#f587f2"/></linearGradient><path d="M185.5 144.5S166 94 208.5 37c0 0 16.5-32.5 20 13s17.5 79-4.5 107.5l-5 5.505-33.5-18.505z" stroke="#d5d6d7" stroke-width=".197" fill="url(#i)"/><linearGradient id="j" y2="186.31" gradientUnits="userSpaceOnUse" x2="354.5" y1="186.31" x1="214"><stop offset=".127" stop-color="#fff"/><stop offset=".13" stop-color="#fffeff"/><stop offset=".243" stop-color="#fcdafb"/><stop offset=".362" stop-color="#f9bcf8"/><stop offset=".487" stop-color="#f7a5f5"/><stop offset=".62" stop-color="#f694f3"/><stop offset=".768" stop-color="#f58af2"/><stop offset=".957" stop-color="#f587f2"/></linearGradient><path d="M287.5 147s18.5-14.5 67 16.5c0 0-50.5 35.5-82.5 50S236.11 229 236.11 229L214 196.5l73.5-49.5z" stroke="#d5d6d7" stroke-width=".197" fill="url(#j)"/><linearGradient id="k" y2="136.39" gradientUnits="userSpaceOnUse" x2="110.07" y1="136.39" x1="28.488"><stop offset=".127" stop-color="#fff"/><stop offset=".176" stop-color="#fde8fc"/><stop offset=".252" stop-color="#fbcaf9"/><stop offset=".337" stop-color="#f9b1f7"/><stop offset=".431" stop-color="#f79ef5"/><stop offset=".542" stop-color="#f691f3"/><stop offset=".683" stop-color="#f589f2"/><stop offset=".957" stop-color="#f587f2"/></linearGradient><path d="M29.42 84.445S23.5 83.2 41.5 116.35s42.092 74.01 68.568 71.911" stroke="#d5d6d7" stroke-width=".197" fill="url(#k)"/><linearGradient id="l" y2="197.71" gradientUnits="userSpaceOnUse" x2="21.476" y1="202.21" x1="158.98"><stop offset=".127" stop-color="#fff"/><stop offset=".176" stop-color="#fde8fc"/><stop offset=".252" stop-color="#fbcaf9"/><stop offset=".337" stop-color="#f9b1f7"/><stop offset=".431" stop-color="#f79ef5"/><stop offset=".542" stop-color="#f691f3"/><stop offset=".683" stop-color="#f589f2"/><stop offset=".957" stop-color="#f587f2"/></linearGradient><path d="M150.03 227.25S27 222.48 17 207.74 17 197 37.5 181.5s55-5.156 63.5 8.672 49.03 37.081 49.03 37.081z" stroke="#d5d6d7" stroke-width=".197" fill="url(#l)"/><radialGradient id="m" gradientUnits="userSpaceOnUse" cy="266.2" cx="178.85" gradientTransform="matrix(1 0 0 2.5387 0 -409.6)" r="60.862"><stop offset="0" stop-color="#fff"/><stop offset=".109" stop-color="#fcdbfb"/><stop offset=".265" stop-color="#f8aef6"/><stop offset=".385" stop-color="#f692f3"/><stop offset=".455" stop-color="#f587f2"/></radialGradient><path d="M135.5 239.48s-9.5 42.519 32 74.019c0 0 11.5 10 21-4.5s50.473-47.521 27.986-74.719c-22.49-27.2-18.49-16.78-18.49-16.78l-47.97-1.96-14.53 23.941z" stroke="#d5d6d7" stroke-width=".197" fill="url(#m)"/><linearGradient id="n" y2="94.983" gradientUnits="userSpaceOnUse" x2="64.551" y1="181.34" x1="137.82"><stop offset=".127" stop-color="#fff"/><stop offset=".176" stop-color="#fde8fc"/><stop offset=".252" stop-color="#fbcaf9"/><stop offset=".337" stop-color="#f9b1f7"/><stop offset=".431" stop-color="#f79ef5"/><stop offset=".542" stop-color="#f691f3"/><stop offset=".683" stop-color="#f589f2"/><stop offset=".957" stop-color="#f587f2"/></linearGradient><path d="M136 126.6s-18.5-43.25-89.5-43.25c0 0-30-7-12 14.5s45 105.5 101.5 91l6-25.822-6-36.428z" stroke="#d5d6d7" stroke-width=".197" fill="url(#n)"/><path d="M148.04 165.7s16.49 48.135 18.552 53.172c2.062 5.039 37.457 2.879 37.457 2.879l17.343-56.051c-.001 0-33.522-38.777-73.352 0z" stroke="#f29d80" stroke-width=".098" fill="#f6ea60"/><ellipse rx="36.676" ry="20.4" cy="165.7" cx="184.71" stroke="#f29d80" stroke-width=".098" fill="#f6ea60"/><ellipse rx="28.353" ry="13.879" cy="165.7" cx="184.71" fill="#f6ae80"/><ellipse rx="6.418" ry="2.879" cy="162.82" cx="166.59" stroke="#f29d80" stroke-width=".098" fill="#f6ea60"/><ellipse rx="6.418" ry="2.879" cy="171.45" cx="174.1" stroke="#f29d80" stroke-width=".098" fill="#f6ea60"/><ellipse rx="6.418" ry="2.879" cy="172.89" cx="195.53" stroke="#f29d80" stroke-width=".098" fill="#f6ea60"/><ellipse rx="6.418" ry="2.879" cy="165.7" cx="185.84" stroke="#f29d80" stroke-width=".098" fill="#f6ea60"/><ellipse rx="6.418" ry="2.879" cy="165.7" cx="204.05" stroke="#f29d80" stroke-width=".098" fill="#f6ea60"/><ellipse rx="6.418" ry="2.878" cy="159.02" cx="194.44" stroke="#f29d80" stroke-width=".098" fill="#f6ea60"/><ellipse rx="6.418" ry="2.878" cy="157.58" cx="179.43" stroke="#f29d80" stroke-width=".098" fill="#f6ea60"/><linearGradient id="o" y2="152.67" gradientUnits="userSpaceOnUse" x2="165.81" y1="215.8" x1="177.83"><stop offset=".127" stop-color="#fff"/><stop offset=".326" stop-color="#fcdbfb"/><stop offset=".61" stop-color="#f8aef6"/><stop offset=".83" stop-color="#f692f3"/><stop offset=".957" stop-color="#f587f2"/></linearGradient><path d="M151 207.74s-25-37.241-6-79.241 50.916 32 56.208 47.5-13.708 41.5-13.708 41.5-16.5 11.982-36.5-9.759z" stroke="#d5d6d7" stroke-width=".197" fill="url(#o)"/><linearGradient id="p" y2="142.62" gradientUnits="userSpaceOnUse" x2="270.13" y1="202.6" x1="209.86"><stop offset=".127" stop-color="#fff"/><stop offset=".13" stop-color="#fffeff"/><stop offset=".243" stop-color="#fcdafb"/><stop offset=".362" stop-color="#f9bcf8"/><stop offset=".487" stop-color="#f7a5f5"/><stop offset=".62" stop-color="#f694f3"/><stop offset=".768" stop-color="#f58af2"/><stop offset=".957" stop-color="#f587f2"/></linearGradient><path d="M206 206s19.42-67.344 60.5-79.75c0 0 25.5-10.25 24.5-5.75s-16.045 64-53.272 75.5l-31.73 10z" stroke="#d5d6d7" stroke-width=".197" fill="url(#p)"/><linearGradient id="q" y2="203.92" gradientUnits="userSpaceOnUse" x2="142.05" y1="219.56" x1="186.83"><stop offset=".127" stop-color="#fff"/><stop offset=".131" stop-color="#fffcff"/><stop offset=".181" stop-color="#fcddfb"/><stop offset=".237" stop-color="#fac2f8"/><stop offset=".301" stop-color="#f8acf6"/><stop offset=".375" stop-color="#f79bf4"/><stop offset=".468" stop-color="#f690f3"/><stop offset=".597" stop-color="#f589f2"/><stop offset=".957" stop-color="#f587f2"/></linearGradient><path d="M182.5 213.5S193 192 155 184s-67.5 2.307-67.5 2.307l-5.5-10.31s-10 13.982 18 31.741 43 31.259 82.5 5.759z" stroke="#d5d6d7" stroke-width=".197" fill="url(#q)"/><linearGradient id="r" y2="208.74" gradientUnits="userSpaceOnUse" x2="268.47" y1="208.74" x1="164.5"><stop offset=".127" stop-color="#fff"/><stop offset=".13" stop-color="#fffeff"/><stop offset=".243" stop-color="#fcdafb"/><stop offset=".362" stop-color="#f9bcf8"/><stop offset=".487" stop-color="#f7a5f5"/><stop offset=".62" stop-color="#f694f3"/><stop offset=".768" stop-color="#f58af2"/><stop offset=".957" stop-color="#f587f2"/></linearGradient><path d="M164.5 218s18.5-20 87.5-14.5c0 0 8 4 12-10s-2.5-16.5-2.5-16.5 15 3 1 33-70.5 46.5-98 8z" stroke="#d5d6d7" stroke-width=".197" fill="url(#r)"/></g><path d="M339.357 796.619a17.986 24.98 0 0 0-11.397 19.834l16.264 22.387v-8.874h2.998v8.878l16.276-22.403a17.986 24.98 0 0 0-11.422-19.806l-6.351 6.35-6.368-6.366zm-21.11 20.849a24.98 17.986 18 0 0-15.089 5.478l4.077 8.002-8.02 4.088a24.98 17.986 18 0 0 15.339 16.972l26.317-8.552-8.44-2.744.927-2.852 8.442 2.744-16.276-22.402a24.98 17.986 18 0 0-7.278-.734zm54.121.004a17.986 24.98 72 0 0-6.456.745l-16.264 22.387 8.442-2.744.925 2.852-8.44 2.744 26.333 8.556a17.986 24.98 72 0 0 6.448-3.775 17.986 24.98 72 0 0 8.858-13.208l-8.003-4.077 4.088-8.025a17.986 24.98 72 0 0-15.93-5.455zm-22.724 28.83l5.22 7.185-2.423 1.762-5.22-7.182v27.69a24.98 17.986 54 0 0 20.883 9.309l1.405-8.87 8.894 1.407a24.98 17.986 54 0 0-2.438-22.746l-26.321-8.556zm-7.846.005l-26.337 8.558a17.986 24.98 36 0 0-2.396 22.732l8.87-1.403 1.41 8.894a17.986 24.98 36 0 0 16.094-4.928 17.986 24.98 36 0 0 4.785-4.42l.002-27.675-5.218 7.184-2.426-1.762 5.216-7.18z" fill="#ff8080" transform="matrix(.47886 0 0 .48484 -139.262 -384.095)"/><path d="M46.639 30.352a2.998 2.998 0 0 0-2.98 2.068 2.998 2.998 0 0 0 1.923 3.777 2.998 2.998 0 0 0 3.777-1.924 2.998 2.998 0 0 0-1.923-3.777 2.998 2.998 0 0 0-.797-.144zm12.658 9.318a2.998 2.998 0 0 0-.885.146 2.998 2.998 0 0 0-1.924 3.778 2.998 2.998 0 0 0 3.778 1.924 2.998 2.998 0 0 0 1.923-3.778 2.998 2.998 0 0 0-2.892-2.07zm-25.744.002a2.998 2.998 0 0 0-2.3 1.234 2.998 2.998 0 0 0 .665 4.186 2.998 2.998 0 0 0 4.187-.662 2.998 2.998 0 0 0-.664-4.188 2.998 2.998 0 0 0-1.888-.57zm4.943 15.08a2.998 2.998 0 0 0-1.678.572 2.998 2.998 0 0 0-.664 4.188 2.998 2.998 0 0 0 4.188.662 2.998 2.998 0 0 0 .664-4.188 2.998 2.998 0 0 0-2.51-1.234zm15.9 0a2.998 2.998 0 0 0-.884.146 2.998 2.998 0 0 0-1.924 3.778 2.998 2.998 0 0 0 3.777 1.924 2.998 2.998 0 0 0 1.924-3.778 2.998 2.998 0 0 0-2.893-2.07z" transform="matrix(.47886 0 0 .48484 4.02 2.137)" fill="#fc0"/><path fill="rgba(255,0,0,.46)" d="M-3.537-1.286h106.431v103.055H-3.537z"/></pattern><pattern id="t" patternTransform="matrix(1.23751 .24212 -.23934 1.22325 237.948 673.93)" xlink:href="#s"/></defs><path class="clothes" fill="none" d="M202.715 584.431h86.593V700.24h-86.593z"/><path class="clothes" fill="none" d="M-403.988 499.579h1300v550h-1300z"/><path stroke="#000" fill="url(#t)" d="M229.599 663.838l-20.774 25.663 5.499 14.664 12.831 3.666 3.667-10.387 6.721-6.11 10.387 1.222 1.833.611 6.11-2.444 5.499-.611 3.666 3.666 1.222 3.666-1.222 4.277 15.275-4.277 2.444-12.22-3.055-7.944-16.497-14.053z"/></svg>