<svg class="shirtOverlay" width="86" height="380" viewBox="202.715 584.407 86.593 380.048" preserveAspectRatio="xMidYMax" xmlns="http://www.w3.org/2000/svg"><path class="clothes" fill="none" d="M202.715 584.431h86.593V700.24h-86.593z"/><path class="clothes" fill="none" d="M-403.988 499.579h1300v550h-1300z"/><path stroke="#000" fill="#d2894d" d="M210.658 690.723l13.442 2.444 7.332 33.605.611 9.165-6.721 16.498-9.165 1.222 4.277-23.83-8.554-28.717zM266.871 691.945l-3.666 26.273-2.444 13.442 5.499 19.553 10.387 1.222-.611-21.997-1.833-9.776 8.554-30.55z"/><path d="M226.544 669.337c-6.338 0-11.849-7.703-18.941-.611-7.382 7.382-.675 12.767 3.055 16.498 1.686 1.686-3.666 6.721-3.666 6.721L228.377 695s-4.957-3.805-5.499-4.888c-1.517-3.035 2.663-4.103 3.666-6.11 2.566-5.132-2.444-11.78-2.444-14.665M279.091 668.726c-8.601 0-22.974 16.741-13.442 26.274 1.202 1.202 21.996-2.444 21.996-2.444l-4.888-5.499s6.709-6.746 4.277-11.61c-1.228-2.457-4.168-3.556-6.11-5.499" stroke="#000" fill="#d8d8d8"/></svg>