<svg class="shirtOverlay" width="86" height="380" viewBox="202.715 584.407 86.593 380.048" preserveAspectRatio="xMidYMax" xmlns="http://www.w3.org/2000/svg" xmlns:bx="https://boxy-svg.com"><path class="clothes" fill="none" d="M202.715 584.431h86.593V700.24h-86.593z"/><path class="clothes" fill="none" d="M-403.988 499.579h1300v550h-1300z"/><g bx:origin="0.521 0.458"><path fill="#B5121B" clip-rule="evenodd" d="M260.61 695.09s.933-9.11-3.42-11.262-9.4-2.122-9.4-2.122-2.419-.562-3.075-.53-4.872.187-7.913 2.995-3.455 4.586-3.317 6.895 1.486 7.425 1.486 7.425 1.9 3.775 2.246 4.025 2.453 2.37 3.905 2.652 4.56.187 5.286.093 4.873.125 6.358-.125 5.84-4.118 6.635-5.554 1.21-4.492 1.21-4.492z" fill-rule="evenodd"/><path fill="#4F6E18" clip-rule="evenodd" d="M256.464 683.203l.069-.436 1.347-.375.07-.624s1.727-1.248 1.796-1.81.45-1.684.45-1.684l-1.417-.218s-2.937-.156-3.076-.156-1.382.093-1.382.093l-3.144.687-2.488 2.121-.276.28-.691 2.278-1.003.843-.138-1.03s-.449-1.341-.69-1.341-.312-.156-.312-.156h-.173l-.69.405-.795.593.345.562s.795.53.968.842.587 1.123.414 1.435-.622 1.06-.622 1.06l1.002.406s.346.344 1.037-.187-.173-1.03-.173-1.03-.31-.467.207-.748 2.316-.78 2.868-.749 1.935.187 2.488.25 4.01-1.312 4.01-1.312z" fill-rule="evenodd"/><path clip-rule="evenodd" d="M240.016 681.956c1.036-.375 2.441-.73 2.441-.73.997-.214 1.992-.316 3.009-.16.668.104 1.617.43 2.276.373.345-.355.268-.855.547-1.235.332-.454.626-.025.578.316.215-.612 2.354-2.924 3.055-2.335.241.203 3.727-.78 4.282-.905.012.149-.006.294-.053.436.941.159 1.951-.02 2.906.085.404.044.968.355 1.325.06.097.614.004.644-.078 1.218-.108.749-.64 1.54-1.232 2.058-.18.167-.385.3-.618.399.166.342.32.265-.01.63-.383.424-.936.6-1.49.772-.056.406 1.152 1.056 1.392 1.392.176.245 1.474 2.023 1.286 1.993.656.868.639 1.912.975 2.84.494 1.368.304 3.084.22 4.5-.071 1.228-.025 2.486-.395 3.603-.135.408-.824 3.215-1.443 3.178-.93 2.38-3.659 4.868-6.53 5.062-1.719.116-3.425-.253-5.146-.033-1.951.31-3.722.575-5.663.077-2.677-.688-4.973-2.725-5.94-5.07-.627-1.52-1.443-2.845-1.793-4.455-.263-1.207-.35-2.273-.605-3.502-.429-2.068-.19-4.547 1.156-6.19.57-.695.85-1.735 1.757-2.178.498-.243.979-.742 1.469-1.027 0 0 1.286-.797 2.322-1.172zm15.278-1.58c.667-.85-.417-1.529-.214-2.37-.656-.025-1.8.18-2.144.726-.235.374-.224.821-.33 1.229-.133.517-.518.952-.633 1.478 1.097-.36 2.307-.52 3.32-1.064m.537-.967c.133-.42.369-.8.535-1.209-.43-.012-.71.133-1.071-.145-.163.462.314.981.536 1.354m3.32-1.209c-.715.009-2.216-.253-2.626.278-.337.438-.76 1.357-.802 1.898.015-.143 1.899-.798 2.146-.931a7.543 7.543 0 0 0 1.496-1.051c.006 0-.204-.212-.214-.194m-2.464 2.031c.653.086 1.456.233 2.093.003.81-.293.584-1.276.96-1.84a10.22 10.22 0 0 1-3.053 1.837m-5.034 1.16c.754-.795.147-1.797-.322-2.562-.72.358-1.56.997-1.614 1.777-.03.43.019.863-.025 1.292-.024.23-.38.681-.289.896.472-.724 1.626-.836 2.25-1.402m.215-1.983c.217.225.202.571.374.822.118-.47.24-.937.375-1.402-.325.103-.6.295-.75.58m5.356 1.064c.295.875 1.1.572 1.5 0-.358-.262-1.054.212-1.5 0m.215 1.016c.08-.09.168-.17.267-.242-.702-.636-.86-.92-1.909-.714-.938.184-1.788.595-2.697.859 1.12.011 3.864 1.944 4.714.435a.966.966 0 0 1-.375-.338m-8.356-.145a.525.525 0 0 1 .268.483c.371-.184.13-.89.054-1.16-.17.2-.277.426-.322.677m-2.41 4.013c.138-.497 1.325-1.257 1.739-1.625.196-.178.396-.353.6-.524.481-.397.025-.252.206-.702.228-.567-.153-1.096-.67-1.453a10.399 10.399 0 0 0-.572 2.075c-.092.56-.305.635-.59 1.107-.017.03-.606.538-.606.542-.68-.525-.12-1.614-.75-2.225-.082.53-.31.957-.964 1.016.382.472.879 1.294.759 1.889-.062.305-.23.583-.325.88-.162.502.646.553 1.066.664.238-.566-.045-1.093.108-1.644m.642-2.37c.218-.666.816-1.155-.288-1.326-.785-.122-1.82-.093-2.556-.324-.457-.143-1.658.223-2.136.345-1.091.277-2.1.75-3.107 1.209-2.94 1.34-5.275 4.023-5.475 7.21-.055.876 1.361 8.598 1.871 8.967-.014.004 1.516 2.659 1.727 2.95 1.022 1.411 2.457 2.429 4.06 2.984 1.645.57 3.622-.048 5.324-.052 1.77-.003 3.703.36 5.46.028 2.853-.539 5.512-3.522 6.843-5.735.86-1.43 1.109-3.138 1.215-4.778.127-1.962.222-4.22-.39-6.102-.411-1.263-.803-2.674-1.834-3.658-.386-.368-1.025-.77-1.552-.922-.725-.208-1.367.462-2.116.463-.204 0-.753.427-1.2.465-.683.057-1.368-.052-2.028-.202-1.259-.286-2.76.21-3.818.847.003.164-.254 1.012.215.87.43-.129.905-.032 1.339-.144.618-.161 1.517-.675 1.928-.242-.958.226-1.984.325-2.851.785-1.023.544-1.298.752-2.344.244-.448-.218-.917-.349-1.459-.457-.632-.125-2.324-.075-2.773-.475.69-.006 1.924.14 2.41.241 1.887.39 2.29-1.582.911-2.466-.374-.24-.582-.287-.827-.7-.452-.758.464-.709.934-1.065 1.472-1.119 1.793.607 2.143 1.62.526-.034.28-.292.374-.58m7.445.628c.732-.18.232-.332-.118-.666-.555-.53-.543-1.183-1.501-1.326-.653-.098-1.345.051-1.946.277-.271.103-1.564.695-1.47 1.038.561-.148 1.493.24 2.003.449.8.327 2.029.473 3.031.228m-9.265-1.934c-.315.224-2.22.993-1.167 1.27.97.253 1.92-.689 1.167-1.27m10.337 1.45a1.663 1.663 0 0 1-.536-.387c.286-.11.746.03.91-.29-.673-.095-1.265-.405-1.928-.532.196.511.753 1.623 1.554 1.21m-11.14.144c.273.021.918.22.856-.29-.118.167-.883.043-.857.29zm3.91.774c1.092-.094 2.13.107 3.213.048-.526-1.106-2.792-1.377-3.214-.048m4.017.097c.125.229.488-.08.59-.145-.52-.042-.973-.33-1.5-.339.09.306.537.831.91.484" fill-rule="evenodd"/></g></svg>