<svg class="shirtOverlay" width="86" height="380" viewBox="202.715 584.407 86.593 380.048" preserveAspectRatio="xMidYMax" xmlns="http://www.w3.org/2000/svg" xmlns:xlink="http://www.w3.org/1999/xlink"><defs><pattern id="a" width="20" height="20" patternUnits="userSpaceOnUse" viewBox="0 0 100 100"><path fill="#502d16" d="M106.3 260.43h531.5v531.5H106.3z" transform="matrix(.5032 0 0 .4746 -159.534 -185.609)"/><g transform="matrix(.5032 0 0 .4746 -103.32 -103.048)" clip-path="url(#clipPath4211)"><path d="M428.41 186.41c-9.61 0-17.34 7.73-17.34 17.34v40.84c0 9.6 7.73 17.35 17.34 17.35h84.68c9.61 0 17.35-7.75 17.35-17.35v-40.84c0-9.61-7.74-17.34-17.35-17.34h-84.68zm20.78 16.08h59.98c9.61 0 17.34 7.73 17.34 17.34v21c0 9.61-7.73 17.35-17.34 17.35h-59.98c-9.61 0-17.35-7.74-17.35-17.35v-21c0-9.61 7.74-17.34 17.35-17.34zM109.33 302.65a8.6 8.6 0 0 0 8.61-8.62v-20.3a8.6 8.6 0 0 0-8.61-8.62H67.236a8.607 8.607 0 0 0-8.623 8.62v20.3c0 4.77 3.848 8.62 8.623 8.62h42.094zm-10.332-8H69.183a8.595 8.595 0 0 1-8.617-8.61V275.6c0-4.78 3.843-8.63 8.617-8.63h29.815a8.61 8.61 0 0 1 8.622 8.63v10.44a8.6 8.6 0 0 1-8.622 8.61zM207.01 588.71c-21.62 0-39.02-17.4-39.02-39.02v-91.93c0-21.62 17.4-39.04 39.02-39.04h190.6c21.62 0 39.05 17.42 39.05 39.04v91.93c0 21.62-17.43 39.02-39.05 39.02h-190.6zm46.77-36.2h135.01c21.62 0 39.03-17.4 39.03-39.02v-47.28c0-21.62-17.41-39.04-39.03-39.04H253.78c-21.62 0-39.05 17.42-39.05 39.04v47.28c0 21.62 17.43 39.02 39.05 39.02zM186.78 215.19c-19.54 0-35.27 15.73-35.27 35.27v83.08c0 19.54 15.73 35.29 35.27 35.29h172.26c19.54 0 35.29-15.75 35.29-35.29v-83.08c0-19.54-15.75-35.27-35.29-35.27H186.78zm42.27 32.71h122.02c19.54 0 35.27 15.73 35.27 35.27v42.73c0 19.54-15.73 35.29-35.27 35.29H229.05c-19.54 0-35.29-15.75-35.29-35.29v-42.73c0-19.54 15.75-35.27 35.29-35.27zM739.47 436.1c20.67 0 37.32-16.64 37.32-37.32v-87.92c0-20.68-16.65-37.34-37.32-37.34h-182.3c-20.67 0-37.34 16.66-37.34 37.34v87.92c0 20.68 16.67 37.32 37.34 37.32h182.3zm-44.73-34.62H565.61c-20.68 0-37.32-16.64-37.32-37.32v-45.22c0-20.67 16.64-37.34 37.32-37.34h129.13c20.68 0 37.34 16.67 37.34 37.34v45.22c0 20.68-16.66 37.32-37.34 37.32zM34.978 314.23a19.545 19.545 0 0 1 19.596 19.59v46.17c0 10.85-8.739 19.61-19.596 19.61h-95.719c-10.857 0-19.608-8.76-19.608-19.61v-46.17c0-10.86 8.751-19.59 19.608-19.59h95.719zM11.491 332.4h-67.804A19.554 19.554 0 0 0-75.909 352v23.74c0 10.86 8.739 19.61 19.596 19.61h67.804A19.573 19.573 0 0 0 31.1 375.74V352c0-10.86-8.751-19.6-19.609-19.6zM469.89 522.37c-7.8 0-14.07-6.28-14.07-14.07v-33.14c0-7.79 6.27-14.08 14.07-14.08h68.71c7.8 0 14.08 6.29 14.08 14.08v33.14c0 7.79-6.28 14.07-14.08 14.07h-68.71zm16.86-13.05h48.67c7.8 0 14.07-6.27 14.07-14.07v-17.04c0-7.8-6.27-14.08-14.07-14.08h-48.67c-7.8 0-14.08 6.28-14.08 14.08v17.04c0 7.8 6.28 14.07 14.08 14.07zM464.66 397.97c5.53 0 9.98-4.45 9.98-9.98v-23.51c0-5.53-4.45-9.99-9.98-9.99H415.9c-5.53 0-9.99 4.46-9.99 9.99v23.51c0 5.53 4.46 9.98 9.99 9.98h48.76zm-11.96-9.26h-34.54c-5.53 0-9.99-4.45-9.99-9.98v-12.09c0-5.53 4.46-9.99 9.99-9.99h34.54c5.53 0 9.98 4.46 9.98 9.99v12.09c0 5.53-4.45 9.98-9.98 9.98zM4.778 427.55c9.314 0 16.81 7.49 16.81 16.81v39.6c0 9.31-7.496 16.82-16.81 16.82h-82.11a16.792 16.792 0 0 1-16.821-16.82v-39.6c0-9.32 7.507-16.81 16.821-16.81h82.11zm-20.147 15.59h-58.165c-9.313 0-16.81 7.5-16.81 16.81v20.37c0 9.31 7.497 16.82 16.81 16.82h58.165c9.314 0 16.821-7.51 16.821-16.82v-20.37c0-9.31-7.507-16.81-16.821-16.81zM-22.657 646.6c-16.858 0-30.427-13.57-30.427-30.43v-71.68c0-16.85 13.569-30.44 30.427-30.44h148.62c16.86 0 30.45 13.59 30.45 30.44v71.68c0 16.86-13.59 30.43-30.45 30.43h-148.62zm36.467-28.22h105.28c16.86 0 30.42-13.57 30.42-30.43v-36.87c0-16.85-13.56-30.44-30.42-30.44H13.81c-16.858 0-30.446 13.59-30.446 30.44v36.87c0 16.86 13.588 30.43 30.446 30.43zM119.97 125.77c-9.26 0-16.71 7.45-16.71 16.7v39.35c0 9.26 7.45 16.72 16.71 16.72h81.59c9.25 0 16.71-7.46 16.71-16.72v-39.35c0-9.25-7.46-16.7-16.71-16.7h-81.59zm20.02 15.49h57.79c9.26 0 16.71 7.45 16.71 16.71v20.24c0 9.25-7.45 16.71-16.71 16.71h-57.79c-9.26 0-16.72-7.46-16.72-16.71v-20.24c0-9.26 7.46-16.71 16.72-16.71zM110.68 107.15c13.7 0 24.73-11.028 24.73-24.731V24.157c0-13.703-11.03-24.747-24.73-24.747h-120.8c-13.702 0-24.746 11.044-24.746 24.747v58.262c0 13.703 11.044 24.73 24.747 24.73h120.8zM81.041 84.21H-4.531a24.676 24.676 0 0 1-24.731-24.731V29.514c0-13.703 11.029-24.747 24.731-24.747h85.572c13.703 0 24.749 11.044 24.749 24.747v29.965c0 13.702-11.046 24.73-24.749 24.73zM557.13 174.83c-13.67 0-24.67-11-24.67-24.67V92.057c0-13.666 11-24.681 24.67-24.681h120.48c13.66 0 24.68 11.015 24.68 24.681v58.103c0 13.67-11.02 24.67-24.68 24.67H557.13zm29.56-22.88h85.34c13.67 0 24.67-11 24.67-24.67V97.4c0-13.666-11-24.682-24.67-24.682h-85.34c-13.67 0-24.68 11.016-24.68 24.682v29.88c0 13.67 11.01 24.67 24.68 24.67zM586.08 668.07a24.533 24.533 0 0 0-24.59 24.59v57.92c0 13.63 10.97 24.61 24.59 24.61h120.11c13.62 0 24.6-10.98 24.6-24.61v-57.92c0-13.63-10.98-24.59-24.6-24.59H586.08zm29.47 22.81h85.08c13.62 0 24.59 10.96 24.59 24.59v29.79c0 13.62-10.97 24.6-24.59 24.6h-85.08c-13.62 0-24.6-10.98-24.6-24.6v-29.79c0-13.63 10.98-24.59 24.6-24.59zM6.902 293.56c22.236 0 40.131-17.89 40.131-40.13v-94.54c0-22.24-17.897-40.16-40.132-40.16h-196.03c-22.23 0-40.15 17.92-40.15 40.16v94.54c0 22.24 17.92 40.13 40.15 40.13H6.901zm-48.099-37.22h-138.86c-22.23 0-40.13-17.9-40.13-40.13v-48.63c0-22.23 17.9-40.16 40.13-40.16h138.86c22.238 0 40.16 17.93 40.16 40.16v48.63c0 22.23-17.921 40.13-40.156 40.13zM439.82-9.902c19.12 0 34.51 15.39 34.51 34.51v81.302c0 19.12-15.39 34.53-34.51 34.53H271.26c-19.12 0-34.54-15.41-34.54-34.53V24.608c0-19.12 15.42-34.51 34.54-34.51h168.56zm-41.36 32.01H279.05c-19.12 0-34.51 15.392-34.51 34.512v41.813c0 19.117 15.39 34.537 34.51 34.537h119.41c19.12 0 34.53-15.42 34.53-34.537V56.62c0-19.12-15.41-34.511-34.53-34.511zM-194.3 560.37c-6.45 0-11.63-5.19-11.63-11.63v-27.4c0-6.45 5.18-11.64 11.63-11.64h56.81c6.44 0 11.64 5.19 11.64 11.64v27.4c0 6.44-5.2 11.63-11.64 11.63h-56.81zm13.94-10.79h40.24c6.45 0 11.63-5.19 11.63-11.63v-14.09c0-6.45-5.18-11.64-11.63-11.64h-40.24c-6.45 0-11.64 5.19-11.64 11.64v14.09c0 6.44 5.19 11.63 11.64 11.63zM-79.44 75.107a19.82 19.82 0 0 0 19.864-19.863V8.449c0-11.005-8.859-19.876-19.864-19.876h-97.02a19.84 19.84 0 0 0-19.88 19.876v46.795c0 11.005 8.87 19.863 19.88 19.863h97.02zm-23.81-18.425h-68.72a19.821 19.821 0 0 1-19.87-19.864V12.752a19.832 19.832 0 0 1 19.87-19.876h68.72c11.009 0 19.88 8.87 19.88 19.876v24.066c0 11.006-8.871 19.864-19.88 19.864zM729.05 488.82c15.52 0 28 12.48 28 28v65.97c0 15.51-12.48 28.01-28 28.01H592.28c-15.52 0-28.02-12.5-28.02-28.01v-65.97c0-15.52 12.5-28 28.02-28h136.77zm-33.56 25.97h-96.88c-15.52 0-28.01 12.49-28.01 28v33.93c0 15.51 12.49 28.02 28.01 28.02h96.88c15.52 0 28.02-12.51 28.02-28.02v-33.93c0-15.51-12.5-28-28.02-28zM197.63 682.38c-3.89 0-7.03-3.14-7.03-7.04v-16.57a7.02 7.02 0 0 1 7.03-7.03h34.36c3.9 0 7.04 3.14 7.04 7.03v16.57c0 3.9-3.14 7.04-7.04 7.04h-34.36zm8.43-6.53h24.34c3.9 0 7.04-3.13 7.04-7.03v-8.52c0-3.9-3.14-7.04-7.04-7.04h-24.34c-3.89 0-7.03 3.14-7.03 7.04v8.52c0 3.9 3.14 7.03 7.03 7.03zM79.262 382.1a13.082 13.082 0 0 0-13.109 13.11v30.88c0 7.27 5.846 13.12 13.109 13.12h64.028c7.26 0 13.12-5.85 13.12-13.12v-30.88c0-7.26-5.86-13.11-13.12-13.11H79.262zm15.711 12.16h45.357c7.26 0 13.11 5.85 13.11 13.11v15.88c0 7.27-5.85 13.12-13.11 13.12H94.973a13.091 13.091 0 0 1-13.117-13.12v-15.88a13.09 13.09 0 0 1 13.117-13.11zM509.43 742.06c18.03 0 32.54-14.51 32.54-32.54v-76.67c0-18.03-14.51-32.56-32.54-32.56H350.47c-18.03 0-32.56 14.53-32.56 32.56v76.67c0 18.03 14.53 32.54 32.56 32.54h158.96zm-39-30.19h-112.6c-18.03 0-32.55-14.51-32.55-32.54V639.9c0-18.03 14.52-32.56 32.55-32.56h112.6c18.03 0 32.56 14.53 32.56 32.56v39.43c0 18.03-14.53 32.54-32.56 32.54z" fill="#b154d5"/><path d="M194.58 452.15c6.45 0 11.63-5.18 11.63-11.63v-27.39c0-6.44-5.18-11.64-11.63-11.64h-56.79c-6.45 0-11.64 5.2-11.64 11.64v27.39c0 6.45 5.19 11.63 11.64 11.63h56.79zm-13.93-10.78h-40.24c-6.44 0-11.63-5.19-11.63-11.63v-14.09c0-6.44 5.19-11.64 11.63-11.64h40.24c6.44 0 11.63 5.2 11.63 11.64v14.09c0 6.44-5.19 11.63-11.63 11.63zM408.6 374.19a5.77 5.77 0 0 0-5.78 5.78v13.61c0 3.21 2.58 5.79 5.78 5.79h28.23c3.2 0 5.78-2.58 5.78-5.79v-13.61c0-3.2-2.58-5.78-5.78-5.78H408.6zm6.93 5.36h19.99c3.21 0 5.78 2.58 5.78 5.78v7c0 3.2-2.57 5.79-5.78 5.79h-19.99a5.78 5.78 0 0 1-5.79-5.79v-7c0-3.2 2.58-5.78 5.79-5.78zM343.08 182.32a26.11 26.11 0 0 1 26.17 26.17v61.66c0 14.5-11.67 26.19-26.17 26.19H215.24c-14.5 0-26.19-11.69-26.19-26.19v-61.66c0-14.5 11.69-26.17 26.19-26.17h127.84zm-31.37 24.28h-90.56a26.11 26.11 0 0 0-26.17 26.17v31.71c0 14.5 11.67 26.19 26.17 26.19h90.56c14.5 0 26.19-11.69 26.19-26.19v-31.71c0-14.5-11.69-26.17-26.19-26.17zM356.65 432.85c13.1 0 23.65-10.55 23.65-23.66v-55.72c0-13.11-10.55-23.67-23.65-23.67H241.11a23.622 23.622 0 0 0-23.67 23.67v55.72c0 13.11 10.56 23.66 23.67 23.66h115.54zm-28.35-21.94h-81.85c-13.1 0-23.65-10.55-23.65-23.66v-28.66c0-13.1 10.55-23.67 23.65-23.67h81.85c13.1 0 23.67 10.57 23.67 23.67v28.66c0 13.11-10.57 23.66-23.67 23.66zM-14.05 284.68a24.973 24.973 0 0 0-25.031 25.03v58.97c0 13.87 11.163 25.05 25.031 25.05h122.27c13.87 0 25.04-11.18 25.04-25.05v-58.97c0-13.87-11.17-25.03-25.04-25.03H-14.05zm30.001 23.22h86.609a24.97 24.97 0 0 1 25.03 25.03v30.33c0 13.87-11.16 25.05-25.03 25.05H15.951c-13.869 0-25.047-11.18-25.047-25.05v-30.33c0-13.87 11.179-25.03 25.047-25.03zM458.47 366.42c-7.29 0-13.15-5.86-13.15-13.14v-30.96c0-7.29 5.86-13.16 13.15-13.16h64.2c7.28 0 13.15 5.87 13.15 13.16v30.96c0 7.28-5.87 13.14-13.15 13.14h-64.2zm15.75-12.19h45.48c7.28 0 13.14-5.86 13.14-13.14v-15.93c0-7.28-5.86-13.15-13.14-13.15h-45.48c-7.28 0-13.15 5.87-13.15 13.15v15.93c0 7.28 5.87 13.14 13.15 13.14zM166.76 226.82c5.23 0 9.44 4.21 9.44 9.43v22.23c0 5.23-4.21 9.44-9.44 9.44h-46.09c-5.22 0-9.44-4.21-9.44-9.44v-22.23c0-5.22 4.22-9.43 9.44-9.43h46.09zm-11.31 8.75h-32.64c-5.23 0-9.44 4.21-9.44 9.44v11.43c0 5.23 4.21 9.44 9.44 9.44h32.64c5.23 0 9.45-4.21 9.45-9.44v-11.43c0-5.23-4.22-9.44-9.45-9.44zM170.27 310.25c-3.71 0-6.7 2.99-6.7 6.7v15.77c0 3.71 2.99 6.7 6.7 6.7h32.7c3.71 0 6.7-2.99 6.7-6.7v-15.77c0-3.71-2.99-6.7-6.7-6.7h-32.7zm8.02 6.21h23.17a6.68 6.68 0 0 1 6.69 6.7v8.11c0 3.71-2.98 6.7-6.69 6.7h-23.17c-3.71 0-6.7-2.99-6.7-6.7v-8.11c0-3.71 2.99-6.7 6.7-6.7zM478.72 290.42c-6.25 0-11.27-5.03-11.27-11.28v-26.56c0-6.25 5.02-11.28 11.27-11.28h55.07c6.25 0 11.29 5.03 11.29 11.28v26.56c0 6.25-5.04 11.28-11.29 11.28h-55.07zm13.51-10.46h39.02c6.24 0 11.27-5.03 11.27-11.28v-13.66c0-6.25-5.03-11.28-11.27-11.28h-39.02a11.26 11.26 0 0 0-11.28 11.28v13.66c0 6.25 5.04 11.28 11.28 11.28zM497.12 143.49c11.31 0 20.41 9.1 20.41 20.41v48.08c0 11.3-9.1 20.42-20.41 20.42h-99.68c-11.31 0-20.42-9.12-20.42-20.42V163.9c0-11.31 9.11-20.41 20.42-20.41h99.68zm-24.46 18.93h-70.61c-11.31 0-20.41 9.1-20.41 20.41v24.73c0 11.3 9.1 20.42 20.41 20.42h70.61c11.31 0 20.42-9.12 20.42-20.42v-24.73c0-11.31-9.11-20.41-20.42-20.41zM401.46 492.82c6.21 0 11.21-4.99 11.21-11.2v-26.39c0-6.21-5-11.21-11.21-11.21h-54.72c-6.21 0-11.21 5-11.21 11.21v26.39c0 6.21 5 11.2 11.21 11.2h54.72zm-13.43-10.39h-38.76c-6.21 0-11.21-4.99-11.21-11.2v-13.58c0-6.2 5-11.21 11.21-11.21h38.76c6.21 0 11.21 5.01 11.21 11.21v13.58c0 6.21-5 11.2-11.21 11.2zM407.69 505.31c-9.19 0-16.59 7.4-16.59 16.59v39.08c0 9.19 7.4 16.6 16.59 16.6h81.02c9.19 0 16.6-7.41 16.6-16.6V521.9c0-9.19-7.41-16.59-16.6-16.59h-81.02zm19.88 15.39h57.39c9.19 0 16.59 7.4 16.59 16.59v20.09c0 9.2-7.4 16.6-16.59 16.6h-57.39c-9.19 0-16.6-7.4-16.6-16.6v-20.09c0-9.19 7.41-16.59 16.6-16.59zM108.25 459.92c9.17 0 16.54 7.38 16.54 16.54v38.98c0 9.16-7.37 16.55-16.54 16.55H27.442a16.524 16.524 0 0 1-16.554-16.55v-38.98c0-9.16 7.388-16.54 16.554-16.54h80.808zm-19.827 15.34H31.18a16.51 16.51 0 0 0-16.544 16.55v20.04c0 9.17 7.378 16.56 16.544 16.56h57.243a16.53 16.53 0 0 0 16.557-16.56v-20.04a16.52 16.52 0 0 0-16.557-16.55zM88.829 129.09a16.45 16.45 0 0 0 16.491-16.49V73.749c0-9.137-7.354-16.502-16.491-16.502H8.272A16.472 16.472 0 0 0-8.23 73.749V112.6c0 9.14 7.365 16.49 16.502 16.49h80.557zM69.063 113.8H11.999A16.46 16.46 0 0 1-4.493 97.304V77.321a16.464 16.464 0 0 1 16.492-16.502h57.064a16.473 16.473 0 0 1 16.503 16.502v19.983A16.468 16.468 0 0 1 69.063 113.8zM477.3 380.28c-14.92 0-26.92 12-26.92 26.92v63.41c0 14.91 12 26.94 26.92 26.94h131.48c14.91 0 26.93-12.03 26.93-26.94V407.2c0-14.92-12.02-26.92-26.93-26.92H477.3zm32.26 24.97h93.13c14.92 0 26.92 12 26.92 26.92v32.61c0 14.91-12 26.93-26.92 26.93h-93.13c-14.92 0-26.94-12.02-26.94-26.93v-32.61c0-14.92 12.02-26.92 26.94-26.92zM186.93 583.82a23.093 23.093 0 0 1-23.15-23.15v-54.52c0-12.83 10.32-23.17 23.15-23.17h113.06c12.82 0 23.16 10.34 23.16 23.17v54.52c0 12.83-10.34 23.15-23.16 23.15H186.93zm27.74-21.47h80.09a23.1 23.1 0 0 0 23.15-23.15v-28.04c0-12.83-10.33-23.16-23.15-23.16h-80.09a23.11 23.11 0 0 0-23.16 23.16v28.04c0 12.83 10.33 23.15 23.16 23.15zM612.25 201.33c4.32 0 7.8 3.48 7.8 7.8v18.38c0 4.32-3.48 7.81-7.8 7.81h-38.11c-4.32 0-7.8-3.49-7.8-7.81v-18.38c0-4.32 3.48-7.8 7.8-7.8h38.11zm-9.35 7.24h-26.99c-4.33 0-7.81 3.48-7.81 7.8v9.45c0 4.32 3.48 7.81 7.81 7.81h26.99c4.32 0 7.8-3.49 7.8-7.81v-9.45c0-4.32-3.48-7.8-7.8-7.8zM535.21 526.8c-7.38 0-13.33 5.95-13.33 13.33v31.38c0 7.38 5.95 13.33 13.33 13.33h65.07c7.38 0 13.33-5.95 13.33-13.33v-31.38c0-7.38-5.95-13.33-13.33-13.33h-65.07zm15.96 12.36h46.1a13.3 13.3 0 0 1 13.33 13.33v16.14c0 7.38-5.95 13.33-13.33 13.33h-46.1c-7.38 0-13.33-5.95-13.33-13.33v-16.14a13.3 13.3 0 0 1 13.33-13.33zM-7.064 249.32a18.736 18.736 0 0 1-18.782-18.78v-44.25c0-10.4 8.376-18.79 18.782-18.79h91.737c10.406 0 18.797 8.39 18.797 18.79v44.25c0 10.41-8.391 18.78-18.797 18.78H-7.064zm22.509-17.42h64.984a18.741 18.741 0 0 0 18.78-18.78v-22.76c0-10.4-8.374-18.79-18.78-18.79H15.445a18.76 18.76 0 0 0-18.793 18.79v22.76c0 10.4 8.387 18.78 18.793 18.78zM349.37 119.5c2.61 0 4.72 2.1 4.72 4.71v11.12c0 2.61-2.11 4.72-4.72 4.72h-23.05c-2.61 0-4.72-2.11-4.72-4.72v-11.12c0-2.61 2.11-4.71 4.72-4.71h23.05zm-5.66 4.37h-16.32c-2.61 0-4.72 2.11-4.72 4.72v5.72c0 2.61 2.11 4.72 4.72 4.72h16.32c2.62 0 4.73-2.11 4.73-4.72v-5.72c0-2.61-2.11-4.72-4.73-4.72zM428.76 320.9c4.87 0 8.8-3.92 8.8-8.8v-20.71c0-4.87-3.93-8.8-8.8-8.8h-42.94c-4.87 0-8.8 3.93-8.8 8.8v20.71c0 4.88 3.93 8.8 8.8 8.8h42.94zm-10.53-8.16H387.8a8.77 8.77 0 0 1-8.79-8.79V293.3c0-4.88 3.92-8.8 8.79-8.8h30.43c4.87 0 8.79 3.92 8.79 8.8v10.65a8.77 8.77 0 0 1-8.79 8.79zM140.24 79.465a21.782 21.782 0 0 0-21.83 21.825v51.42c0 12.1 9.74 21.84 21.83 21.84h106.62c12.09 0 21.84-9.74 21.84-21.84v-51.42c0-12.091-9.75-21.825-21.84-21.825H140.24zm26.16 20.247h75.52c12.1 0 21.83 9.738 21.83 21.828v26.45c0 12.09-9.73 21.84-21.83 21.84H166.4c-12.09 0-21.84-9.75-21.84-21.84v-26.45c0-12.09 9.75-21.828 21.84-21.828z" fill="#6eb6ce"/><path d="M149.81 225.22c7.69 0 13.89 6.2 13.89 13.9v32.73c0 7.7-6.2 13.9-13.89 13.9H81.938c-7.698 0-13.902-6.2-13.902-13.9v-32.73c0-7.7 6.204-13.9 13.902-13.9h67.872zm-16.66 12.89H85.078c-7.698 0-13.894 6.2-13.894 13.9v16.83c0 7.7 6.196 13.9 13.894 13.9h48.072c7.7 0 13.91-6.2 13.91-13.9v-16.83c0-7.7-6.21-13.9-13.91-13.9zM405.53 318.38c-3.83 0-6.91-3.08-6.91-6.91V295.2c0-3.82 3.08-6.91 6.91-6.91h33.73c3.83 0 6.91 3.09 6.91 6.91v16.27c0 3.83-3.08 6.91-6.91 6.91h-33.73zm8.27-6.41h23.9a6.89 6.89 0 0 0 6.91-6.9v-8.37c0-3.83-3.08-6.91-6.91-6.91h-23.9c-3.82 0-6.91 3.08-6.91 6.91v8.37c0 3.82 3.09 6.9 6.91 6.9zM327.24 547.64c17.33 0 31.27-13.95 31.27-31.27v-73.68c0-17.32-13.94-31.29-31.27-31.29H174.49c-17.33 0-31.3 13.97-31.3 31.29v73.68c0 17.32 13.97 31.27 31.3 31.27h152.75zm-37.48-29.01H181.55c-17.32 0-31.27-13.95-31.27-31.27v-37.89c0-17.33 13.95-31.3 31.27-31.3h108.21c17.33 0 31.29 13.97 31.29 31.3v37.89c0 17.32-13.96 31.27-31.29 31.27zM343.45 248.29c15.66 0 28.27 12.6 28.27 28.26v66.59c0 15.66-12.61 28.28-28.27 28.28H205.4c-15.66 0-28.29-12.62-28.29-28.28v-66.59c0-15.66 12.63-28.26 28.29-28.26h138.05zm-33.87 26.22h-97.8c-15.66 0-28.26 12.6-28.26 28.26v34.25c0 15.66 12.6 28.28 28.26 28.28h97.8c15.66 0 28.28-12.62 28.28-28.28v-34.25c0-15.66-12.62-28.26-28.28-28.26zM-99.486 425.33a29.84 29.84 0 0 1-29.914-29.91v-70.46c0-16.57 13.34-29.93 29.914-29.93h146.1c16.566 0 29.923 13.36 29.923 29.93v70.46c0 16.58-13.357 29.91-29.928 29.91h-146.1zm35.847-27.74h103.49a29.843 29.843 0 0 0 29.909-29.91v-36.24c0-16.57-13.338-29.93-29.91-29.93H-63.64c-16.57 0-29.927 13.36-29.927 29.93v36.24c0 16.57 13.357 29.91 29.928 29.91zM465.11 327.66c-8.7 0-15.7 7-15.7 15.71v36.99c0 8.7 7 15.72 15.7 15.72h76.71c8.71 0 15.72-7.02 15.72-15.72v-36.99c0-8.71-7.01-15.71-15.72-15.71h-76.71zm18.83 14.57h54.34c8.7 0 15.7 7 15.7 15.7v19.03c0 8.7-7 15.72-15.7 15.72h-54.34a15.69 15.69 0 0 1-15.72-15.72v-19.03c0-8.7 7.01-15.7 15.72-15.7zM116.56 494.47c6.25 0 11.28-5.03 11.28-11.27v-26.56c0-6.25-5.03-11.28-11.28-11.28H61.493a11.258 11.258 0 0 0-11.282 11.28v26.56c0 6.24 5.035 11.27 11.282 11.27h55.067zm-13.51-10.46H64.04a11.243 11.243 0 0 1-11.274-11.27v-13.66c0-6.25 5.028-11.28 11.274-11.28h39.01c6.25 0 11.28 5.03 11.28 11.28v13.66c0 6.25-5.03 11.27-11.28 11.27zM120.75 394.78c-4.43 0-8-3.57-8-8v-18.85c0-4.43 3.57-8 8-8h39.08c4.43 0 8 3.57 8 8v18.85c0 4.43-3.57 8-8 8h-39.08zm9.59-7.42h27.68c4.43 0 8-3.57 8-8v-9.7c0-4.43-3.57-8-8-8h-27.68c-4.43 0-8 3.57-8 8v9.7c0 4.43 3.57 8 8 8zM489.32 418.48c-7.47 0-13.48 6.01-13.48 13.47v31.74c0 7.46 6.01 13.48 13.48 13.48h65.8c7.47 0 13.48-6.02 13.48-13.48v-31.74c0-7.46-6.01-13.47-13.48-13.47h-65.8zm16.14 12.5h46.62c7.46 0 13.47 6 13.47 13.47v16.32c0 7.47-6.01 13.48-13.47 13.48h-46.62c-7.46 0-13.48-6.01-13.48-13.48v-16.32c0-7.47 6.02-13.47 13.48-13.47zM511.3 594.04a24.34 24.34 0 0 0 24.39-24.39V512.2c0-13.51-10.88-24.4-24.39-24.4H392.19c-13.51 0-24.4 10.89-24.4 24.4v57.45c0 13.51 10.89 24.39 24.4 24.39H511.3zm-29.22-22.62H397.7c-13.51 0-24.38-10.88-24.38-24.39v-29.54c0-13.51 10.87-24.4 24.38-24.4h84.38c13.51 0 24.4 10.89 24.4 24.4v29.54c0 13.51-10.89 24.39-24.4 24.39zM397 176.62c7.42 0 13.39 5.98 13.39 13.39v31.54c0 7.42-5.97 13.4-13.39 13.4h-65.39c-7.42 0-13.4-5.98-13.4-13.4v-31.54c0-7.41 5.98-13.39 13.4-13.39H397zm-16.04 12.42h-46.32c-7.42 0-13.39 5.97-13.39 13.39v16.22c0 7.42 5.97 13.4 13.39 13.4h46.32c7.41 0 13.39-5.98 13.39-13.4v-16.22c0-7.42-5.98-13.39-13.39-13.39zM404.44 161.7c-10.98 0-19.82-8.84-19.82-19.82V95.19c0-10.982 8.84-19.833 19.82-19.833h96.82c10.98 0 19.83 8.851 19.83 19.833v46.69c0 10.98-8.85 19.82-19.83 19.82h-96.82zm23.76-18.38h68.58c10.98 0 19.82-8.84 19.82-19.82V99.483c0-10.981-8.84-19.833-19.82-19.833H428.2a19.798 19.798 0 0 0-19.84 19.833V123.5c0 10.98 8.85 19.82 19.84 19.82zM46.648 215.94a19.719 19.719 0 0 0 19.768-19.76v-46.57a19.73 19.73 0 0 0-19.768-19.78h-96.557a19.74 19.74 0 0 0-19.78 19.78v46.57c0 10.95 8.828 19.76 19.78 19.76h96.557zm-23.692-18.33h-68.398a19.727 19.727 0 0 1-19.768-19.77v-23.95c0-10.95 8.816-19.78 19.768-19.78h68.398c10.952 0 19.78 8.83 19.78 19.78v23.95c0 10.95-8.828 19.77-19.78 19.77zM23.442 611.24a19.664 19.664 0 0 1 19.706 19.71v46.42c0 10.92-8.788 19.72-19.706 19.72h-96.256a19.683 19.683 0 0 1-19.718-19.72v-46.42c0-10.92 8.8-19.71 19.718-19.71h96.256zM-.176 629.52h-68.185a19.664 19.664 0 0 0-19.706 19.71v23.87c0 10.92 8.788 19.72 19.706 19.72H-.176c10.918 0 19.718-8.8 19.718-19.72v-23.87c0-10.92-8.8-19.71-19.718-19.71zM487.61 311.1a32.085 32.085 0 0 1-32.16-32.16v-75.77c0-17.82 14.34-32.19 32.16-32.19h157.11c17.82 0 32.18 14.37 32.18 32.19v75.77c0 17.82-14.36 32.16-32.18 32.16H487.61zm38.55-29.83h111.29c17.82 0 32.16-14.35 32.16-32.17v-38.97c0-17.82-14.34-32.18-32.16-32.18H526.16c-17.82 0-32.18 14.36-32.18 32.18v38.97c0 17.82 14.36 32.17 32.18 32.17zM140.66 67.894A27.594 27.594 0 0 0 113 95.552v65.158c0 15.32 12.33 27.67 27.66 27.67h135.09c15.33 0 27.68-12.35 27.68-27.67V95.552c0-15.324-12.35-27.658-27.68-27.658H140.66zm33.15 25.655h95.69a27.592 27.592 0 0 1 27.66 27.661v33.51c0 15.32-12.33 27.67-27.66 27.67h-95.69c-15.33 0-27.68-12.35-27.68-27.67v-33.51c0-15.33 12.35-27.661 27.68-27.661zM648.86 524.93c5.17 0 9.33-4.16 9.33-9.33v-21.96c0-5.16-4.16-9.32-9.33-9.32h-45.53c-5.16 0-9.32 4.16-9.32 9.32v21.96c0 5.17 4.16 9.33 9.32 9.33h45.53zm-11.17-8.65h-32.25c-5.16 0-9.32-4.16-9.32-9.32v-11.3c0-5.16 4.16-9.32 9.32-9.32h32.25c5.17 0 9.33 4.16 9.33 9.32v11.3c0 5.16-4.16 9.32-9.33 9.32zM556.81 136.02c-8.82 0-15.92-7.1-15.92-15.92V82.601c0-8.82 7.1-15.929 15.92-15.929h77.76a15.9 15.9 0 0 1 15.93 15.929V120.1c0 8.82-7.11 15.92-15.93 15.92h-77.76zm19.08-14.76h55.08c8.82 0 15.92-7.1 15.92-15.92V86.05c0-8.82-7.1-15.93-15.92-15.93h-55.08c-8.82 0-15.93 7.11-15.93 15.93v19.29c0 8.82 7.11 15.92 15.93 15.92zM-91.139 467.58a22.393 22.393 0 0 0-22.441 22.44v52.87c0 12.44 10.01 22.46 22.441 22.46h109.62c12.428 0 22.45-10.02 22.45-22.46v-52.87c0-12.43-10.022-22.44-22.455-22.44h-109.62zm26.896 20.82h77.648a22.392 22.392 0 0 1 22.441 22.44v27.19c0 12.43-10.008 22.46-22.441 22.46h-77.648c-12.434 0-22.456-10.03-22.456-22.46v-27.19c0-12.43 10.022-22.44 22.456-22.44zM334.76 622.71c3.12 0 5.63-2.52 5.63-5.64v-13.28c0-3.12-2.51-5.64-5.63-5.64h-27.54c-3.12 0-5.64 2.52-5.64 5.64v13.28c0 3.12 2.52 5.64 5.64 5.64h27.54zm-6.76-5.23h-19.51c-3.12 0-5.63-2.51-5.63-5.64v-6.83c0-3.12 2.51-5.64 5.63-5.64H328c3.12 0 5.64 2.52 5.64 5.64v6.83c0 3.13-2.52 5.64-5.64 5.64zM429.62 382.06c5.82 0 10.51 4.68 10.51 10.5v24.75c0 5.82-4.69 10.52-10.51 10.52h-51.31c-5.82 0-10.52-4.7-10.52-10.52v-24.75c0-5.82 4.7-10.5 10.52-10.5h51.31zm-12.59 9.74h-36.35a10.49 10.49 0 0 0-10.51 10.51v12.73c0 5.82 4.69 10.51 10.51 10.51h36.35c5.82 0 10.51-4.69 10.51-10.51v-12.73c0-5.82-4.69-10.51-10.51-10.51zM84.872 670.54a26.022 26.022 0 0 1-26.081-26.08v-61.44c0-14.45 11.631-26.1 26.081-26.1h127.4c14.45 0 26.09 11.65 26.09 26.1v61.44c0 14.45-11.64 26.08-26.09 26.08h-127.4zm31.258-24.19h90.24a26.02 26.02 0 0 0 26.08-26.08v-31.6c0-14.45-11.63-26.1-26.08-26.1h-90.24c-14.45 0-26.097 11.65-26.097 26.1v31.6c0 14.45 11.647 26.08 26.097 26.08z" fill="#f9f9f9"/></g><g transform="matrix(.5032 .65123 0 .4746 -103.32 -281.326)" clip-path="url(#clipPath4211)"><path d="M428.41 186.41c-9.61 0-17.34 7.73-17.34 17.34v40.84c0 9.6 7.73 17.35 17.34 17.35h84.68c9.61 0 17.35-7.75 17.35-17.35v-40.84c0-9.61-7.74-17.34-17.35-17.34h-84.68zm20.78 16.08h59.98c9.61 0 17.34 7.73 17.34 17.34v21c0 9.61-7.73 17.35-17.34 17.35h-59.98c-9.61 0-17.35-7.74-17.35-17.35v-21c0-9.61 7.74-17.34 17.35-17.34zM109.33 302.65a8.6 8.6 0 0 0 8.61-8.62v-20.3a8.6 8.6 0 0 0-8.61-8.62H67.236a8.607 8.607 0 0 0-8.623 8.62v20.3c0 4.77 3.848 8.62 8.623 8.62h42.094zm-10.332-8H69.183a8.595 8.595 0 0 1-8.617-8.61V275.6c0-4.78 3.843-8.63 8.617-8.63h29.815a8.61 8.61 0 0 1 8.622 8.63v10.44a8.6 8.6 0 0 1-8.622 8.61zM207.01 588.71c-21.62 0-39.02-17.4-39.02-39.02v-91.93c0-21.62 17.4-39.04 39.02-39.04h190.6c21.62 0 39.05 17.42 39.05 39.04v91.93c0 21.62-17.43 39.02-39.05 39.02h-190.6zm46.77-36.2h135.01c21.62 0 39.03-17.4 39.03-39.02v-47.28c0-21.62-17.41-39.04-39.03-39.04H253.78c-21.62 0-39.05 17.42-39.05 39.04v47.28c0 21.62 17.43 39.02 39.05 39.02zM186.78 215.19c-19.54 0-35.27 15.73-35.27 35.27v83.08c0 19.54 15.73 35.29 35.27 35.29h172.26c19.54 0 35.29-15.75 35.29-35.29v-83.08c0-19.54-15.75-35.27-35.29-35.27H186.78zm42.27 32.71h122.02c19.54 0 35.27 15.73 35.27 35.27v42.73c0 19.54-15.73 35.29-35.27 35.29H229.05c-19.54 0-35.29-15.75-35.29-35.29v-42.73c0-19.54 15.75-35.27 35.29-35.27zM739.47 436.1c20.67 0 37.32-16.64 37.32-37.32v-87.92c0-20.68-16.65-37.34-37.32-37.34h-182.3c-20.67 0-37.34 16.66-37.34 37.34v87.92c0 20.68 16.67 37.32 37.34 37.32h182.3zm-44.73-34.62H565.61c-20.68 0-37.32-16.64-37.32-37.32v-45.22c0-20.67 16.64-37.34 37.32-37.34h129.13c20.68 0 37.34 16.67 37.34 37.34v45.22c0 20.68-16.66 37.32-37.34 37.32zM34.978 314.23a19.545 19.545 0 0 1 19.596 19.59v46.17c0 10.85-8.739 19.61-19.596 19.61h-95.719c-10.857 0-19.608-8.76-19.608-19.61v-46.17c0-10.86 8.751-19.59 19.608-19.59h95.719zM11.491 332.4h-67.804A19.554 19.554 0 0 0-75.909 352v23.74c0 10.86 8.739 19.61 19.596 19.61h67.804A19.573 19.573 0 0 0 31.1 375.74V352c0-10.86-8.751-19.6-19.609-19.6zM469.89 522.37c-7.8 0-14.07-6.28-14.07-14.07v-33.14c0-7.79 6.27-14.08 14.07-14.08h68.71c7.8 0 14.08 6.29 14.08 14.08v33.14c0 7.79-6.28 14.07-14.08 14.07h-68.71zm16.86-13.05h48.67c7.8 0 14.07-6.27 14.07-14.07v-17.04c0-7.8-6.27-14.08-14.07-14.08h-48.67c-7.8 0-14.08 6.28-14.08 14.08v17.04c0 7.8 6.28 14.07 14.08 14.07zM464.66 397.97c5.53 0 9.98-4.45 9.98-9.98v-23.51c0-5.53-4.45-9.99-9.98-9.99H415.9c-5.53 0-9.99 4.46-9.99 9.99v23.51c0 5.53 4.46 9.98 9.99 9.98h48.76zm-11.96-9.26h-34.54c-5.53 0-9.99-4.45-9.99-9.98v-12.09c0-5.53 4.46-9.99 9.99-9.99h34.54c5.53 0 9.98 4.46 9.98 9.99v12.09c0 5.53-4.45 9.98-9.98 9.98zM4.778 427.55c9.314 0 16.81 7.49 16.81 16.81v39.6c0 9.31-7.496 16.82-16.81 16.82h-82.11a16.792 16.792 0 0 1-16.821-16.82v-39.6c0-9.32 7.507-16.81 16.821-16.81h82.11zm-20.147 15.59h-58.165c-9.313 0-16.81 7.5-16.81 16.81v20.37c0 9.31 7.497 16.82 16.81 16.82h58.165c9.314 0 16.821-7.51 16.821-16.82v-20.37c0-9.31-7.507-16.81-16.821-16.81zM-22.657 646.6c-16.858 0-30.427-13.57-30.427-30.43v-71.68c0-16.85 13.569-30.44 30.427-30.44h148.62c16.86 0 30.45 13.59 30.45 30.44v71.68c0 16.86-13.59 30.43-30.45 30.43h-148.62zm36.467-28.22h105.28c16.86 0 30.42-13.57 30.42-30.43v-36.87c0-16.85-13.56-30.44-30.42-30.44H13.81c-16.858 0-30.446 13.59-30.446 30.44v36.87c0 16.86 13.588 30.43 30.446 30.43zM119.97 125.77c-9.26 0-16.71 7.45-16.71 16.7v39.35c0 9.26 7.45 16.72 16.71 16.72h81.59c9.25 0 16.71-7.46 16.71-16.72v-39.35c0-9.25-7.46-16.7-16.71-16.7h-81.59zm20.02 15.49h57.79c9.26 0 16.71 7.45 16.71 16.71v20.24c0 9.25-7.45 16.71-16.71 16.71h-57.79c-9.26 0-16.72-7.46-16.72-16.71v-20.24c0-9.26 7.46-16.71 16.72-16.71zM110.68 107.15c13.7 0 24.73-11.028 24.73-24.731V24.157c0-13.703-11.03-24.747-24.73-24.747h-120.8c-13.702 0-24.746 11.044-24.746 24.747v58.262c0 13.703 11.044 24.73 24.747 24.73h120.8zM81.041 84.21H-4.531a24.676 24.676 0 0 1-24.731-24.731V29.514c0-13.703 11.029-24.747 24.731-24.747h85.572c13.703 0 24.749 11.044 24.749 24.747v29.965c0 13.702-11.046 24.73-24.749 24.73zM557.13 174.83c-13.67 0-24.67-11-24.67-24.67V92.057c0-13.666 11-24.681 24.67-24.681h120.48c13.66 0 24.68 11.015 24.68 24.681v58.103c0 13.67-11.02 24.67-24.68 24.67H557.13zm29.56-22.88h85.34c13.67 0 24.67-11 24.67-24.67V97.4c0-13.666-11-24.682-24.67-24.682h-85.34c-13.67 0-24.68 11.016-24.68 24.682v29.88c0 13.67 11.01 24.67 24.68 24.67zM586.08 668.07a24.533 24.533 0 0 0-24.59 24.59v57.92c0 13.63 10.97 24.61 24.59 24.61h120.11c13.62 0 24.6-10.98 24.6-24.61v-57.92c0-13.63-10.98-24.59-24.6-24.59H586.08zm29.47 22.81h85.08c13.62 0 24.59 10.96 24.59 24.59v29.79c0 13.62-10.97 24.6-24.59 24.6h-85.08c-13.62 0-24.6-10.98-24.6-24.6v-29.79c0-13.63 10.98-24.59 24.6-24.59zM6.902 293.56c22.236 0 40.131-17.89 40.131-40.13v-94.54c0-22.24-17.897-40.16-40.132-40.16h-196.03c-22.23 0-40.15 17.92-40.15 40.16v94.54c0 22.24 17.92 40.13 40.15 40.13H6.901zm-48.099-37.22h-138.86c-22.23 0-40.13-17.9-40.13-40.13v-48.63c0-22.23 17.9-40.16 40.13-40.16h138.86c22.238 0 40.16 17.93 40.16 40.16v48.63c0 22.23-17.921 40.13-40.156 40.13zM439.82-9.902c19.12 0 34.51 15.39 34.51 34.51v81.302c0 19.12-15.39 34.53-34.51 34.53H271.26c-19.12 0-34.54-15.41-34.54-34.53V24.608c0-19.12 15.42-34.51 34.54-34.51h168.56zm-41.36 32.01H279.05c-19.12 0-34.51 15.392-34.51 34.512v41.813c0 19.117 15.39 34.537 34.51 34.537h119.41c19.12 0 34.53-15.42 34.53-34.537V56.62c0-19.12-15.41-34.511-34.53-34.511zM-194.3 560.37c-6.45 0-11.63-5.19-11.63-11.63v-27.4c0-6.45 5.18-11.64 11.63-11.64h56.81c6.44 0 11.64 5.19 11.64 11.64v27.4c0 6.44-5.2 11.63-11.64 11.63h-56.81zm13.94-10.79h40.24c6.45 0 11.63-5.19 11.63-11.63v-14.09c0-6.45-5.18-11.64-11.63-11.64h-40.24c-6.45 0-11.64 5.19-11.64 11.64v14.09c0 6.44 5.19 11.63 11.64 11.63zM-79.44 75.107a19.82 19.82 0 0 0 19.864-19.863V8.449c0-11.005-8.859-19.876-19.864-19.876h-97.02a19.84 19.84 0 0 0-19.88 19.876v46.795c0 11.005 8.87 19.863 19.88 19.863h97.02zm-23.81-18.425h-68.72a19.821 19.821 0 0 1-19.87-19.864V12.752a19.832 19.832 0 0 1 19.87-19.876h68.72c11.009 0 19.88 8.87 19.88 19.876v24.066c0 11.006-8.871 19.864-19.88 19.864zM729.05 488.82c15.52 0 28 12.48 28 28v65.97c0 15.51-12.48 28.01-28 28.01H592.28c-15.52 0-28.02-12.5-28.02-28.01v-65.97c0-15.52 12.5-28 28.02-28h136.77zm-33.56 25.97h-96.88c-15.52 0-28.01 12.49-28.01 28v33.93c0 15.51 12.49 28.02 28.01 28.02h96.88c15.52 0 28.02-12.51 28.02-28.02v-33.93c0-15.51-12.5-28-28.02-28zM197.63 682.38c-3.89 0-7.03-3.14-7.03-7.04v-16.57a7.02 7.02 0 0 1 7.03-7.03h34.36c3.9 0 7.04 3.14 7.04 7.03v16.57c0 3.9-3.14 7.04-7.04 7.04h-34.36zm8.43-6.53h24.34c3.9 0 7.04-3.13 7.04-7.03v-8.52c0-3.9-3.14-7.04-7.04-7.04h-24.34c-3.89 0-7.03 3.14-7.03 7.04v8.52c0 3.9 3.14 7.03 7.03 7.03zM79.262 382.1a13.082 13.082 0 0 0-13.109 13.11v30.88c0 7.27 5.846 13.12 13.109 13.12h64.028c7.26 0 13.12-5.85 13.12-13.12v-30.88c0-7.26-5.86-13.11-13.12-13.11H79.262zm15.711 12.16h45.357c7.26 0 13.11 5.85 13.11 13.11v15.88c0 7.27-5.85 13.12-13.11 13.12H94.973a13.091 13.091 0 0 1-13.117-13.12v-15.88a13.09 13.09 0 0 1 13.117-13.11zM509.43 742.06c18.03 0 32.54-14.51 32.54-32.54v-76.67c0-18.03-14.51-32.56-32.54-32.56H350.47c-18.03 0-32.56 14.53-32.56 32.56v76.67c0 18.03 14.53 32.54 32.56 32.54h158.96zm-39-30.19h-112.6c-18.03 0-32.55-14.51-32.55-32.54V639.9c0-18.03 14.52-32.56 32.55-32.56h112.6c18.03 0 32.56 14.53 32.56 32.56v39.43c0 18.03-14.53 32.54-32.56 32.54z" fill="#b154d5"/><path d="M194.58 452.15c6.45 0 11.63-5.18 11.63-11.63v-27.39c0-6.44-5.18-11.64-11.63-11.64h-56.79c-6.45 0-11.64 5.2-11.64 11.64v27.39c0 6.45 5.19 11.63 11.64 11.63h56.79zm-13.93-10.78h-40.24c-6.44 0-11.63-5.19-11.63-11.63v-14.09c0-6.44 5.19-11.64 11.63-11.64h40.24c6.44 0 11.63 5.2 11.63 11.64v14.09c0 6.44-5.19 11.63-11.63 11.63zM408.6 374.19a5.77 5.77 0 0 0-5.78 5.78v13.61c0 3.21 2.58 5.79 5.78 5.79h28.23c3.2 0 5.78-2.58 5.78-5.79v-13.61c0-3.2-2.58-5.78-5.78-5.78H408.6zm6.93 5.36h19.99c3.21 0 5.78 2.58 5.78 5.78v7c0 3.2-2.57 5.79-5.78 5.79h-19.99a5.78 5.78 0 0 1-5.79-5.79v-7c0-3.2 2.58-5.78 5.79-5.78zM343.08 182.32a26.11 26.11 0 0 1 26.17 26.17v61.66c0 14.5-11.67 26.19-26.17 26.19H215.24c-14.5 0-26.19-11.69-26.19-26.19v-61.66c0-14.5 11.69-26.17 26.19-26.17h127.84zm-31.37 24.28h-90.56a26.11 26.11 0 0 0-26.17 26.17v31.71c0 14.5 11.67 26.19 26.17 26.19h90.56c14.5 0 26.19-11.69 26.19-26.19v-31.71c0-14.5-11.69-26.17-26.19-26.17zM356.65 432.85c13.1 0 23.65-10.55 23.65-23.66v-55.72c0-13.11-10.55-23.67-23.65-23.67H241.11a23.622 23.622 0 0 0-23.67 23.67v55.72c0 13.11 10.56 23.66 23.67 23.66h115.54zm-28.35-21.94h-81.85c-13.1 0-23.65-10.55-23.65-23.66v-28.66c0-13.1 10.55-23.67 23.65-23.67h81.85c13.1 0 23.67 10.57 23.67 23.67v28.66c0 13.11-10.57 23.66-23.67 23.66zM-14.05 284.68a24.973 24.973 0 0 0-25.031 25.03v58.97c0 13.87 11.163 25.05 25.031 25.05h122.27c13.87 0 25.04-11.18 25.04-25.05v-58.97c0-13.87-11.17-25.03-25.04-25.03H-14.05zm30.001 23.22h86.609a24.97 24.97 0 0 1 25.03 25.03v30.33c0 13.87-11.16 25.05-25.03 25.05H15.951c-13.869 0-25.047-11.18-25.047-25.05v-30.33c0-13.87 11.179-25.03 25.047-25.03zM458.47 366.42c-7.29 0-13.15-5.86-13.15-13.14v-30.96c0-7.29 5.86-13.16 13.15-13.16h64.2c7.28 0 13.15 5.87 13.15 13.16v30.96c0 7.28-5.87 13.14-13.15 13.14h-64.2zm15.75-12.19h45.48c7.28 0 13.14-5.86 13.14-13.14v-15.93c0-7.28-5.86-13.15-13.14-13.15h-45.48c-7.28 0-13.15 5.87-13.15 13.15v15.93c0 7.28 5.87 13.14 13.15 13.14zM166.76 226.82c5.23 0 9.44 4.21 9.44 9.43v22.23c0 5.23-4.21 9.44-9.44 9.44h-46.09c-5.22 0-9.44-4.21-9.44-9.44v-22.23c0-5.22 4.22-9.43 9.44-9.43h46.09zm-11.31 8.75h-32.64c-5.23 0-9.44 4.21-9.44 9.44v11.43c0 5.23 4.21 9.44 9.44 9.44h32.64c5.23 0 9.45-4.21 9.45-9.44v-11.43c0-5.23-4.22-9.44-9.45-9.44zM170.27 310.25c-3.71 0-6.7 2.99-6.7 6.7v15.77c0 3.71 2.99 6.7 6.7 6.7h32.7c3.71 0 6.7-2.99 6.7-6.7v-15.77c0-3.71-2.99-6.7-6.7-6.7h-32.7zm8.02 6.21h23.17a6.68 6.68 0 0 1 6.69 6.7v8.11c0 3.71-2.98 6.7-6.69 6.7h-23.17c-3.71 0-6.7-2.99-6.7-6.7v-8.11c0-3.71 2.99-6.7 6.7-6.7zM478.72 290.42c-6.25 0-11.27-5.03-11.27-11.28v-26.56c0-6.25 5.02-11.28 11.27-11.28h55.07c6.25 0 11.29 5.03 11.29 11.28v26.56c0 6.25-5.04 11.28-11.29 11.28h-55.07zm13.51-10.46h39.02c6.24 0 11.27-5.03 11.27-11.28v-13.66c0-6.25-5.03-11.28-11.27-11.28h-39.02a11.26 11.26 0 0 0-11.28 11.28v13.66c0 6.25 5.04 11.28 11.28 11.28zM497.12 143.49c11.31 0 20.41 9.1 20.41 20.41v48.08c0 11.3-9.1 20.42-20.41 20.42h-99.68c-11.31 0-20.42-9.12-20.42-20.42V163.9c0-11.31 9.11-20.41 20.42-20.41h99.68zm-24.46 18.93h-70.61c-11.31 0-20.41 9.1-20.41 20.41v24.73c0 11.3 9.1 20.42 20.41 20.42h70.61c11.31 0 20.42-9.12 20.42-20.42v-24.73c0-11.31-9.11-20.41-20.42-20.41zM401.46 492.82c6.21 0 11.21-4.99 11.21-11.2v-26.39c0-6.21-5-11.21-11.21-11.21h-54.72c-6.21 0-11.21 5-11.21 11.21v26.39c0 6.21 5 11.2 11.21 11.2h54.72zm-13.43-10.39h-38.76c-6.21 0-11.21-4.99-11.21-11.2v-13.58c0-6.2 5-11.21 11.21-11.21h38.76c6.21 0 11.21 5.01 11.21 11.21v13.58c0 6.21-5 11.2-11.21 11.2zM407.69 505.31c-9.19 0-16.59 7.4-16.59 16.59v39.08c0 9.19 7.4 16.6 16.59 16.6h81.02c9.19 0 16.6-7.41 16.6-16.6V521.9c0-9.19-7.41-16.59-16.6-16.59h-81.02zm19.88 15.39h57.39c9.19 0 16.59 7.4 16.59 16.59v20.09c0 9.2-7.4 16.6-16.59 16.6h-57.39c-9.19 0-16.6-7.4-16.6-16.6v-20.09c0-9.19 7.41-16.59 16.6-16.59zM108.25 459.92c9.17 0 16.54 7.38 16.54 16.54v38.98c0 9.16-7.37 16.55-16.54 16.55H27.442a16.524 16.524 0 0 1-16.554-16.55v-38.98c0-9.16 7.388-16.54 16.554-16.54h80.808zm-19.827 15.34H31.18a16.51 16.51 0 0 0-16.544 16.55v20.04c0 9.17 7.378 16.56 16.544 16.56h57.243a16.53 16.53 0 0 0 16.557-16.56v-20.04a16.52 16.52 0 0 0-16.557-16.55zM88.829 129.09a16.45 16.45 0 0 0 16.491-16.49V73.749c0-9.137-7.354-16.502-16.491-16.502H8.272A16.472 16.472 0 0 0-8.23 73.749V112.6c0 9.14 7.365 16.49 16.502 16.49h80.557zM69.063 113.8H11.999A16.46 16.46 0 0 1-4.493 97.304V77.321a16.464 16.464 0 0 1 16.492-16.502h57.064a16.473 16.473 0 0 1 16.503 16.502v19.983A16.468 16.468 0 0 1 69.063 113.8zM477.3 380.28c-14.92 0-26.92 12-26.92 26.92v63.41c0 14.91 12 26.94 26.92 26.94h131.48c14.91 0 26.93-12.03 26.93-26.94V407.2c0-14.92-12.02-26.92-26.93-26.92H477.3zm32.26 24.97h93.13c14.92 0 26.92 12 26.92 26.92v32.61c0 14.91-12 26.93-26.92 26.93h-93.13c-14.92 0-26.94-12.02-26.94-26.93v-32.61c0-14.92 12.02-26.92 26.94-26.92zM186.93 583.82a23.093 23.093 0 0 1-23.15-23.15v-54.52c0-12.83 10.32-23.17 23.15-23.17h113.06c12.82 0 23.16 10.34 23.16 23.17v54.52c0 12.83-10.34 23.15-23.16 23.15H186.93zm27.74-21.47h80.09a23.1 23.1 0 0 0 23.15-23.15v-28.04c0-12.83-10.33-23.16-23.15-23.16h-80.09a23.11 23.11 0 0 0-23.16 23.16v28.04c0 12.83 10.33 23.15 23.16 23.15zM612.25 201.33c4.32 0 7.8 3.48 7.8 7.8v18.38c0 4.32-3.48 7.81-7.8 7.81h-38.11c-4.32 0-7.8-3.49-7.8-7.81v-18.38c0-4.32 3.48-7.8 7.8-7.8h38.11zm-9.35 7.24h-26.99c-4.33 0-7.81 3.48-7.81 7.8v9.45c0 4.32 3.48 7.81 7.81 7.81h26.99c4.32 0 7.8-3.49 7.8-7.81v-9.45c0-4.32-3.48-7.8-7.8-7.8zM535.21 526.8c-7.38 0-13.33 5.95-13.33 13.33v31.38c0 7.38 5.95 13.33 13.33 13.33h65.07c7.38 0 13.33-5.95 13.33-13.33v-31.38c0-7.38-5.95-13.33-13.33-13.33h-65.07zm15.96 12.36h46.1a13.3 13.3 0 0 1 13.33 13.33v16.14c0 7.38-5.95 13.33-13.33 13.33h-46.1c-7.38 0-13.33-5.95-13.33-13.33v-16.14a13.3 13.3 0 0 1 13.33-13.33zM-7.064 249.32a18.736 18.736 0 0 1-18.782-18.78v-44.25c0-10.4 8.376-18.79 18.782-18.79h91.737c10.406 0 18.797 8.39 18.797 18.79v44.25c0 10.41-8.391 18.78-18.797 18.78H-7.064zm22.509-17.42h64.984a18.741 18.741 0 0 0 18.78-18.78v-22.76c0-10.4-8.374-18.79-18.78-18.79H15.445a18.76 18.76 0 0 0-18.793 18.79v22.76c0 10.4 8.387 18.78 18.793 18.78zM349.37 119.5c2.61 0 4.72 2.1 4.72 4.71v11.12c0 2.61-2.11 4.72-4.72 4.72h-23.05c-2.61 0-4.72-2.11-4.72-4.72v-11.12c0-2.61 2.11-4.71 4.72-4.71h23.05zm-5.66 4.37h-16.32c-2.61 0-4.72 2.11-4.72 4.72v5.72c0 2.61 2.11 4.72 4.72 4.72h16.32c2.62 0 4.73-2.11 4.73-4.72v-5.72c0-2.61-2.11-4.72-4.73-4.72zM428.76 320.9c4.87 0 8.8-3.92 8.8-8.8v-20.71c0-4.87-3.93-8.8-8.8-8.8h-42.94c-4.87 0-8.8 3.93-8.8 8.8v20.71c0 4.88 3.93 8.8 8.8 8.8h42.94zm-10.53-8.16H387.8a8.77 8.77 0 0 1-8.79-8.79V293.3c0-4.88 3.92-8.8 8.79-8.8h30.43c4.87 0 8.79 3.92 8.79 8.8v10.65a8.77 8.77 0 0 1-8.79 8.79zM140.24 79.465a21.782 21.782 0 0 0-21.83 21.825v51.42c0 12.1 9.74 21.84 21.83 21.84h106.62c12.09 0 21.84-9.74 21.84-21.84v-51.42c0-12.091-9.75-21.825-21.84-21.825H140.24zm26.16 20.247h75.52c12.1 0 21.83 9.738 21.83 21.828v26.45c0 12.09-9.73 21.84-21.83 21.84H166.4c-12.09 0-21.84-9.75-21.84-21.84v-26.45c0-12.09 9.75-21.828 21.84-21.828z" fill="#6eb6ce"/><path d="M149.81 225.22c7.69 0 13.89 6.2 13.89 13.9v32.73c0 7.7-6.2 13.9-13.89 13.9H81.938c-7.698 0-13.902-6.2-13.902-13.9v-32.73c0-7.7 6.204-13.9 13.902-13.9h67.872zm-16.66 12.89H85.078c-7.698 0-13.894 6.2-13.894 13.9v16.83c0 7.7 6.196 13.9 13.894 13.9h48.072c7.7 0 13.91-6.2 13.91-13.9v-16.83c0-7.7-6.21-13.9-13.91-13.9zM405.53 318.38c-3.83 0-6.91-3.08-6.91-6.91V295.2c0-3.82 3.08-6.91 6.91-6.91h33.73c3.83 0 6.91 3.09 6.91 6.91v16.27c0 3.83-3.08 6.91-6.91 6.91h-33.73zm8.27-6.41h23.9a6.89 6.89 0 0 0 6.91-6.9v-8.37c0-3.83-3.08-6.91-6.91-6.91h-23.9c-3.82 0-6.91 3.08-6.91 6.91v8.37c0 3.82 3.09 6.9 6.91 6.9zM327.24 547.64c17.33 0 31.27-13.95 31.27-31.27v-73.68c0-17.32-13.94-31.29-31.27-31.29H174.49c-17.33 0-31.3 13.97-31.3 31.29v73.68c0 17.32 13.97 31.27 31.3 31.27h152.75zM189.782 698.725L181.55 518.63c-17.32 0-31.27-13.95-31.27-31.27v-37.89c0-17.33 13.95-31.3 31.27-31.3h108.21c17.33 0 31.29 13.97 31.29 31.3v37.89c0 17.32-113.938 211.365-131.268 211.365zM343.45 248.29c15.66 0 28.27 12.6 28.27 28.26v66.59c0 15.66-12.61 28.28-28.27 28.28H205.4c-15.66 0-28.29-12.62-28.29-28.28v-66.59c0-15.66 12.63-28.26 28.29-28.26h138.05zm-33.87 26.22h-97.8c-15.66 0-28.26 12.6-28.26 28.26v34.25c0 15.66 12.6 28.28 28.26 28.28h97.8c15.66 0 28.28-12.62 28.28-28.28v-34.25c0-15.66-12.62-28.26-28.28-28.26zM-99.486 425.33a29.84 29.84 0 0 1-29.914-29.91v-70.46c0-16.57 13.34-29.93 29.914-29.93h146.1c16.566 0 29.923 13.36 29.923 29.93v70.46c0 16.58-13.357 29.91-29.928 29.91h-146.1zm35.847-27.74h103.49a29.843 29.843 0 0 0 29.909-29.91v-36.24c0-16.57-13.338-29.93-29.91-29.93H-63.64c-16.57 0-29.927 13.36-29.927 29.93v36.24c0 16.57 13.357 29.91 29.928 29.91zM465.11 327.66c-8.7 0-15.7 7-15.7 15.71v36.99c0 8.7 7 15.72 15.7 15.72h76.71c8.71 0 15.72-7.02 15.72-15.72v-36.99c0-8.71-7.01-15.71-15.72-15.71h-76.71zm18.83 14.57h54.34c8.7 0 15.7 7 15.7 15.7v19.03c0 8.7-7 15.72-15.7 15.72h-54.34a15.69 15.69 0 0 1-15.72-15.72v-19.03c0-8.7 7.01-15.7 15.72-15.7zM116.56 494.47c6.25 0 11.28-5.03 11.28-11.27v-26.56c0-6.25-5.03-11.28-11.28-11.28H61.493a11.258 11.258 0 0 0-11.282 11.28v26.56c0 6.24 5.035 11.27 11.282 11.27h55.067zm-13.51-10.46H64.04a11.243 11.243 0 0 1-11.274-11.27v-13.66c0-6.25 5.028-11.28 11.274-11.28h39.01c6.25 0 11.28 5.03 11.28 11.28v13.66c0 6.25-5.03 11.27-11.28 11.27zM120.75 394.78c-4.43 0-8-3.57-8-8v-18.85c0-4.43 3.57-8 8-8h39.08c4.43 0 8 3.57 8 8v18.85c0 4.43-3.57 8-8 8h-39.08zm9.59-7.42h27.68c4.43 0 8-3.57 8-8v-9.7c0-4.43-3.57-8-8-8h-27.68c-4.43 0-8 3.57-8 8v9.7c0 4.43 3.57 8 8 8zM489.32 418.48c-7.47 0-13.48 6.01-13.48 13.47v31.74c0 7.46 6.01 13.48 13.48 13.48h65.8c7.47 0 13.48-6.02 13.48-13.48v-31.74c0-7.46-6.01-13.47-13.48-13.47h-65.8zm16.14 12.5h46.62c7.46 0 13.47 6 13.47 13.47v16.32c0 7.47-6.01 13.48-13.47 13.48h-46.62c-7.46 0-13.48-6.01-13.48-13.48v-16.32c0-7.47 6.02-13.47 13.48-13.47zM511.3 594.04a24.34 24.34 0 0 0 24.39-24.39V512.2c0-13.51-10.88-24.4-24.39-24.4H392.19c-13.51 0-24.4 10.89-24.4 24.4v57.45c0 13.51 10.89 24.39 24.4 24.39H511.3zm-29.22-22.62H397.7c-13.51 0-24.38-10.88-24.38-24.39v-29.54c0-13.51 10.87-24.4 24.38-24.4h84.38c13.51 0 24.4 10.89 24.4 24.4v29.54c0 13.51-10.89 24.39-24.4 24.39zM397 176.62c7.42 0 13.39 5.98 13.39 13.39v31.54c0 7.42-5.97 13.4-13.39 13.4h-65.39c-7.42 0-13.4-5.98-13.4-13.4v-31.54c0-7.41 5.98-13.39 13.4-13.39H397zm-16.04 12.42h-46.32c-7.42 0-13.39 5.97-13.39 13.39v16.22c0 7.42 5.97 13.4 13.39 13.4h46.32c7.41 0 13.39-5.98 13.39-13.4v-16.22c0-7.42-5.98-13.39-13.39-13.39zM404.44 161.7c-10.98 0-19.82-8.84-19.82-19.82V95.19c0-10.982 8.84-19.833 19.82-19.833h96.82c10.98 0 19.83 8.851 19.83 19.833v46.69c0 10.98-8.85 19.82-19.83 19.82h-96.82zm23.76-18.38h68.58c10.98 0 19.82-8.84 19.82-19.82V99.483c0-10.981-8.84-19.833-19.82-19.833H428.2a19.798 19.798 0 0 0-19.84 19.833V123.5c0 10.98 8.85 19.82 19.84 19.82zM46.648 215.94a19.719 19.719 0 0 0 19.768-19.76v-46.57a19.73 19.73 0 0 0-19.768-19.78h-96.557a19.74 19.74 0 0 0-19.78 19.78v46.57c0 10.95 8.828 19.76 19.78 19.76h96.557zm-23.692-18.33h-68.398a19.727 19.727 0 0 1-19.768-19.77v-23.95c0-10.95 8.816-19.78 19.768-19.78h68.398c10.952 0 19.78 8.83 19.78 19.78v23.95c0 10.95-8.828 19.77-19.78 19.77zM23.442 611.24a19.664 19.664 0 0 1 19.706 19.71v46.42c0 10.92-8.788 19.72-19.706 19.72h-96.256a19.683 19.683 0 0 1-19.718-19.72v-46.42c0-10.92 8.8-19.71 19.718-19.71h96.256zM-.176 629.52h-68.185a19.664 19.664 0 0 0-19.706 19.71v23.87c0 10.92 8.788 19.72 19.706 19.72H-.176c10.918 0 19.718-8.8 19.718-19.72v-23.87c0-10.92-8.8-19.71-19.718-19.71zM487.61 311.1a32.085 32.085 0 0 1-32.16-32.16v-75.77c0-17.82 14.34-32.19 32.16-32.19h157.11c17.82 0 32.18 14.37 32.18 32.19v75.77c0 17.82-14.36 32.16-32.18 32.16H487.61zm38.55-29.83h111.29c17.82 0 32.16-14.35 32.16-32.17v-38.97c0-17.82-14.34-32.18-32.16-32.18H526.16c-17.82 0-32.18 14.36-32.18 32.18v38.97c0 17.82 14.36 32.17 32.18 32.17zM140.66 67.894A27.594 27.594 0 0 0 113 95.552v65.158c0 15.32 12.33 27.67 27.66 27.67h135.09c15.33 0 27.68-12.35 27.68-27.67V95.552c0-15.324-12.35-27.658-27.68-27.658H140.66zm33.15 25.655h95.69a27.592 27.592 0 0 1 27.66 27.661v33.51c0 15.32-12.33 27.67-27.66 27.67h-95.69c-15.33 0-27.68-12.35-27.68-27.67v-33.51c0-15.33 12.35-27.661 27.68-27.661zM648.86 524.93c5.17 0 9.33-4.16 9.33-9.33v-21.96c0-5.16-4.16-9.32-9.33-9.32h-45.53c-5.16 0-9.32 4.16-9.32 9.32v21.96c0 5.17 4.16 9.33 9.32 9.33h45.53zm-11.17-8.65h-32.25c-5.16 0-9.32-4.16-9.32-9.32v-11.3c0-5.16 4.16-9.32 9.32-9.32h32.25c5.17 0 9.33 4.16 9.33 9.32v11.3c0 5.16-4.16 9.32-9.33 9.32zM556.81 136.02c-8.82 0-15.92-7.1-15.92-15.92V82.601c0-8.82 7.1-15.929 15.92-15.929h77.76a15.9 15.9 0 0 1 15.93 15.929V120.1c0 8.82-7.11 15.92-15.93 15.92h-77.76zm19.08-14.76h55.08c8.82 0 15.92-7.1 15.92-15.92V86.05c0-8.82-7.1-15.93-15.92-15.93h-55.08c-8.82 0-15.93 7.11-15.93 15.93v19.29c0 8.82 7.11 15.92 15.93 15.92zM-91.139 467.58a22.393 22.393 0 0 0-22.441 22.44v52.87c0 12.44 10.01 22.46 22.441 22.46h109.62c12.428 0 22.45-10.02 22.45-22.46v-52.87c0-12.43-10.022-22.44-22.455-22.44h-109.62zm26.896 20.82h77.648a22.392 22.392 0 0 1 22.441 22.44v27.19c0 12.43-10.008 22.46-22.441 22.46h-77.648c-12.434 0-22.456-10.03-22.456-22.46v-27.19c0-12.43 10.022-22.44 22.456-22.44zM334.76 622.71c3.12 0 5.63-2.52 5.63-5.64v-13.28c0-3.12-2.51-5.64-5.63-5.64h-27.54c-3.12 0-5.64 2.52-5.64 5.64v13.28c0 3.12 2.52 5.64 5.64 5.64h27.54zm-6.76-5.23h-19.51c-3.12 0-5.63-2.51-5.63-5.64v-6.83c0-3.12 2.51-5.64 5.63-5.64H328c3.12 0 5.64 2.52 5.64 5.64v6.83c0 3.13-2.52 5.64-5.64 5.64zM429.62 382.06c5.82 0 10.51 4.68 10.51 10.5v24.75c0 5.82-4.69 10.52-10.51 10.52h-51.31c-5.82 0-10.52-4.7-10.52-10.52v-24.75c0-5.82 4.7-10.5 10.52-10.5h51.31zm-12.59 9.74h-36.35a10.49 10.49 0 0 0-10.51 10.51v12.73c0 5.82 4.69 10.51 10.51 10.51h36.35c5.82 0 10.51-4.69 10.51-10.51v-12.73c0-5.82-4.69-10.51-10.51-10.51z" fill="#f9f9f9"/><path d="M84.872 670.54a26.022 26.022 0 0 1-26.081-26.08v-61.44c0-14.45 11.631-26.1 26.081-26.1h127.4c14.45 0 26.09 11.65 26.09 26.1v61.44c0 14.45-11.64 26.08-26.09 26.08h-127.4zm31.258-24.19h90.24a26.02 26.02 0 0 0 26.08-26.08v-31.6c0-14.45-11.63-26.1-26.08-26.1h-90.24c-14.45 0-26.097 11.65-26.097 26.1v31.6c0 14.45 11.647 26.08 26.097 26.08z" fill="#f9f9f9"/></g></pattern><pattern id="b" patternTransform="translate(224.793 763.515)" xlink:href="#a"/><pattern id="c" patternTransform="translate(241.595 677.667)" xlink:href="#a"/><pattern id="d" patternTransform="translate(225.098 665.448)" xlink:href="#a"/></defs><path class="clothes" fill="none" d="M202.715 584.431h86.593V700.24h-86.593z"/><path class="clothes" fill="none" d="M-403.988 499.579h1300v550h-1300z"/><path stroke="#000" fill="url(#b)" d="M235.099 741.436l-15.887 21.997-12.831 61.712 15.886-42.16-6.11 36.661 17.719-50.714-11.609 51.325 18.942-39.716v-26.273l17.108-21.386 4.888-10.998z"/><path stroke="#000" fill="url(#c)" d="M233.876 716.996l39.105-47.659-14.664-10.998-28.107 53.158z"/><path stroke="#000" fill="url(#d)" d="M222.267 668.726l20.164 17.109 5.499-9.777-20.775-10.998z"/></svg>