<svg class="shirtOverlay" width="86" height="380" viewBox="202.715 584.407 86.593 380.048" preserveAspectRatio="xMidYMax" xmlns="http://www.w3.org/2000/svg"><defs><linearGradient id="a" gradientUnits="userSpaceOnUse" x1="342.588" y1="832.756" x2="342.588" y2="1053.728"><stop offset="0" stop-color="#373737"/><stop offset="1" stop-color="#040404"/></linearGradient></defs><path class="clothes" fill="none" d="M202.715 584.431h86.593V700.24h-86.593z"/><g color="#000"><path d="M366.41 837.71c-62.569.528-100.948 1.071-152.296 2.656-15.659 1.355-5.031-5.718-20.632-3.999-1.424 3.764-8.431 10.67-8.384 14.78-28.676 50.234-41.319 100.899-36.005 149.152 1.704 16.084 2.634 32.236 4.264 48.326 2.9 2.602 8.169.38 11.964 1.116 23.703-.113 47.428.291 71.116-.446 3.128-2.109 1.364-7.057 2.022-10.268.53-35.515-.305-71.025-1.429-106.52.159-13.909-.91-27.995 1.104-41.791 1.072-5.167 4.596-12.827 11.071-11.2 6.918 2.686 10.727 10.427 9.732 17.655-.981 34.173.406 68.346 1.294 102.5.407 16.393-.289 32.961.435 49.242 5.013 1.518 11.174.472 16.613 1.029 16.8.277 33.78.951 50.475.209 1.498-4.958.765-10.997 1.216-16.395.824-50.692-.359-101.39-1.082-152.08 2.146-4.658 6.704-10.014 12.366-7.879 6.718 1.693 8.711 9.97 8.576 16.07 1.83 52.406 1.232 104.86 1.915 157.28.721 5.194 7.353 3.42 11.004 3.825 19.193.049 38.453 1.012 57.612-.053 4.083-.894 2.008-6.563 2.538-9.487-.86-26.829-2.917-53.613-3.66-80.448a684.126 684.126 0 0 1-.272-17.253c-.292-18.228-.325-36.458-.459-54.688 3.645-3.332 7.321-8.701 12.656-8.861 4.451 1.373 6.646 5.985 9.688 9.129 2.311 10.781 1.582 22.15 2.491 33.165 2.203 41.928 3.027 83.917 5.19 125.84-.826 5.455 6.043 2.92 9.211 3.685 25.994.768 52.037 1.634 78.018 1.727 3.807-1.041 1.516-6.383 2.381-9.15 1.381-50.077-8.82-86.208-16.823-135.663-3.984-24.616-32.184-59.456-33.533-76.159-12.531 2.226-4.994.1-25.875 5.292-51.954.243-36.248-1.153-88.228-.373-2.091-.005-4.182.012-6.272.022l-.002.013z" fill="#a6b3af" stroke="url(#a)" transform="matrix(.18257 0 0 .21707 182.507 581.303)"/><path d="M260.784 772.865c-1.628.365-1.726 2.552-1.586 4.138-.12 10.16.572 20.295.855 30.438-.696 2.606 1.468 2.07 2.882 2.054 1.645-.1.316-3.264.664-4.62-.392-9.712-.278-19.491-1.34-29.142-.246-.94-.372-2.865-1.475-2.868zM244.16 771.36c-.982.238-1.374 1.554-1.246 2.627-.017 11.147.149 22.295.164 33.442.09.644-.308 1.992.584 1.967.71-.03 1.465.072 2.14-.155.348-7.233.169-14.517.153-21.77-.075-4.987-.036-9.985-.288-14.963-.24-.67-.898-1.166-1.508-1.148zM227.756 772.394c-.787.28-1.47 1.01-1.46 2.05-.357 7.2.193 14.41.212 21.615.083 4.244.065 8.504.2 12.738.65.692 1.687.301 2.486.393.495-.474.201-1.534.34-2.248.273-9.974-.445-19.936-.311-29.91-.095-1.046.19-2.235-.145-3.193-.449-.418-.754-1.337-1.322-1.445z" fill="#77766e"/></g><path class="clothes" fill="none" d="M-403.988 499.579h1300v550h-1300z"/></svg>