<?xml version="1.0" encoding="utf-8"?>
<svg width="86" height="380" viewBox="202.715 584.407 86.5933 380.048" preserveAspectRatio="xMidYMid meet" xmlns="http://www.w3.org/2000/svg" xmlns:xlink="http://www.w3.org/1999/xlink" xmlns:bx="https://boxy-svg.com">
  <defs id="svgEditorDefs">
    <path id="svgEditorClosePathDefs" fill="moccasin" style="stroke-width: 0px; stroke: none; fill-opacity: 1;" class="shirt"/>
    <pattern id="pattern-0" x="0" y="0" width="20" height="20" patternUnits="userSpaceOnUse" viewBox="0 0 100 100">
      <g transform="matrix(0.065451, 0.009674, 0, 0.091719, -1.921862, -2.472852)">
        <g id="layer1" transform="translate(868.42 -177.86)">
          <g id="g3922" transform="matrix(1, 0, 0, 1, -40, 460)">
            <path id="path3673-8-1" d="m717.1-274.1h-1539.3v1114h1539.3v-1114z" style="stroke-width: 38.1752; fill: url(#pattern-0-1); stroke: rgb(166, 119, 119);"/>
            <path id="path3673-8" style="stroke-width: 38.1752; fill: url(#pattern-0-21); stroke: rgb(166, 119, 119);" d="m716.9-273.91h-1538.9v1113.6h1538.9v-1113.6z"/>
            <path id="path3734" style="stroke-width: 38.1752; fill: url(#pattern-0-22); stroke: rgb(166, 119, 119);" d="m-327.29 99.788 49.497-371.74 160.3-0.08-209.8 371.82z"/>
            <path id="path3736" style="stroke-width: 38.1752; fill: url(#pattern-0-23); stroke: rgb(166, 119, 119);" d="m-324.26 96.758-36.365-369.25-128.29-0.46918 164.65 369.72z"/>
            <path id="path3738" style="stroke-width: 38.1752; fill: url(#pattern-0-24); stroke: rgb(166, 119, 119);" d="m-328.3 99.788-305.07-374.77-190.45 3.3263 495.52 371.44z"/>
            <path id="path3740" style="stroke-width: 38.1752; fill: url(#pattern-0-25); stroke: rgb(166, 119, 119);" d="m-328.3 100.8-493.96-171.73-2.0203 129.3 495.98 42.426z"/>
            <path id="path3742" style="stroke-width: 38.1752; fill: url(#pattern-0-26); stroke: rgb(166, 119, 119);" d="m-327.29 99.788-492.95 59.599-3.0304 115.16 495.98-174.76z"/>
            <path id="path3744" style="stroke-width: 38.1752; fill: url(#pattern-0-27); stroke: rgb(166, 119, 119);" d="m-328.3 98.778-497 282.84 7.0711 105.06 489.92-387.9z"/>
            <path id="path3746" style="stroke-width: 38.1752; fill: url(#pattern-0-28); stroke: rgb(166, 119, 119);" d="m-327.29 97.768-494.97 590.94 1.6019 150.22 49.916-0.71429 443.46-740.44z"/>
            <path id="path3748" style="stroke-width: 38.1752; fill: url(#pattern-0-29); stroke: rgb(166, 119, 119);" d="m-327.29 98.778-177.79 742.46 233.35-1.9401-55.558-740.52z"/>
            <path id="path3750" style="stroke-width: 38.1752; fill: url(#pattern-0-30); stroke: rgb(166, 119, 119);" d="m-326.28 99.788 132.33 740.44 156.57 1.01-288.9-741.45z"/>
            <path id="path3752" style="stroke-width: 38.1752; fill: url(#pattern-0-31); stroke: rgb(166, 119, 119);" d="m-327.29 95.748 484.55 742.84 186.19 1.64-670.74-744.48z"/>
            <path id="path3754" style="stroke-width: 38.1752; fill: url(#pattern-0-32); stroke: rgb(166, 119, 119);" d="M -326.78 98.778 L 717.22 737.198 L 717.22 523.048 L -326.78 98.778 L -326.78 98.778 Z"/>
            <path id="path3756" style="stroke-width: 38.1752; fill: url(#pattern-0-33); stroke: rgb(166, 119, 119);" d="m-327.79 99.283 1044.8 102.53 1.12-241.53-1045.9 139z"/>
            <path id="path3758" style="stroke-width: 38.1752; fill: url(#pattern-0-34); stroke: rgb(166, 119, 119);" d="M -327.79 99.536 L 291.434 -121.39 L 717.31 -273.334 L 246.48 -279.024 L -327.79 99.536 Z"/>
            <path id="path3676" style="stroke-width: 36.6575; fill: url(#pattern-0-35); stroke: rgb(166, 119, 119);" d="m85.714 306.65c0 52.073-44.132 94.286-98.571 94.286s-98.571-42.213-98.571-94.286 44.132-94.286 98.571-94.286 98.571 42.213 98.571 94.286z" transform="matrix(1.0145 0 0 1.0606 -313.96 -225.31)"/>
            <path id="path3673-8-7" style="stroke-width: 38.1752; fill: url(#pattern-0-36); stroke: rgb(166, 119, 119);" d="M 717.1 -274.1 C 546.056 134.249 318.121 278.91 90.177 287.532 C -373.364 305.067 -836.944 -239.977 -822.2 -274.1 L -822.2 839.9 L 717.1 839.9 L 717.1 -274.1 Z"/>
            <path transform="matrix(-0.653708, 0.756747, -0.957572, -0.421229, -312.659998, -101.077459)" d="M 149 194 m -842.748 0 a 842.748 933.298 0 1 0 1685.496 0 a 842.748 933.298 0 1 0 -1685.496 0 Z M 149 194 m -505.648 0 a 505.648 559.978 0 0 1 1011.296 0 a 505.648 559.978 0 0 1 -1011.296 0 Z" style="stroke-width: 38.6695; fill: url(#pattern-0-37); stroke: rgb(166, 119, 119);" bx:shape="ring 149 194 505.648 559.978 842.748 933.298 1@ac3f944a"/>
            <path transform="matrix(-0.835285, 0.549816, -0.83611, -0.646836, -15.28734, 58.6239)" d="M 225 247 m -340.033 0 a 340.033 313.342 0 1 0 680.066 0 a 340.033 313.342 0 1 0 -680.066 0 Z M 225 247 m -204.021 0 a 204.021 188.006 0 0 1 408.042 0 a 204.021 188.006 0 0 1 -408.042 0 Z" style="stroke-width: 38.6875; fill: url(#pattern-0-38); stroke: rgb(166, 119, 119);" bx:shape="ring 225 247 204.021 188.006 340.033 313.342 1@ed6269a0"/>
          </g>
        </g>
      </g>
      <path style="stroke-width: 12; stroke: rgb(85, 218, 152); fill: url(#pattern-0-87);" transform="matrix(0.989252, 0.146218, -0.146218, 0.989252, 0, 0)"/>
      <path style="stroke-width: 12; stroke: rgb(85, 218, 152); fill: url(#pattern-0-88);" transform="matrix(0.837622, -0.546292, 0.582385, 0.814059, -547.140617, 192.468911)" d="M 609 213 m -0.957 0 a 0.957 1.101 0 1 0 1.914 0 a 0.957 1.101 0 1 0 -1.914 0 Z M 609 213 m -0.574 0 a 0.574 0.661 0 0 1 1.148 0 a 0.574 0.661 0 0 1 -1.148 0 Z" bx:shape="ring 609 213 0.574 0.661 0.957 1.101 1@016132ca"/>
      <g transform="matrix(0.951617, 0.140655, 0, 1.236254, 32.998745, 10.385602)">
        <title id="title4498">Halloween Spider Web Icon</title>
        <g id="g-1">
          <g id="g3934" style="opacity:.37561;filter:url(#filter4490);stroke:#000000;stroke-width:40.779" transform="matrix(.015787 0 0 .016449 58.709 -76.133)">
            <path id="path3936" style="stroke: rgb(0, 0, 0); stroke-width: 40.779; fill: url(#pattern-0-41);" d="m-1296 5044.4c171.78 252.13 483.03 360.1 712 448 171.05 273.53 226.4 478.15 440 624-101.79 251.42 32.673 535.27 144 808-382.71 120.8-384.03 398.7-416 664-270.74 99.53-518.18 239.85-704 488-299.92-89.718-576.36 7.9448-856 80-235.19-229.35-519.52-335.87-840-352-60.85-315.15-189.84-562.16-400-728 126.08-276.87 77.046-536.24-8-792 224.46-195.4 335.39-428.65 368-688 254.4-118.4 504.46-246.92 696-512 290.67 72.296 573.33 37.007 864-40z"/>
            <path id="path3938" d="m-1343 5275.8c146.24 214.64 411.17 306.53 606.08 381.36 145.6 232.82 192.72 407 374.54 531.17-86.647 214.02 27.812 455.63 122.58 687.79-325.77 102.87-326.9 339.42-354.11 565.21-230.47 84.732-441.09 204.16-599.26 415.41-255.32-76.389-490.61 6.7616-728.66 68.095-200.2-195.23-442.23-285.91-715.04-299.63-51.788-268.28-161.6-478.53-340.48-619.69 107.31-235.69 65.578-456.47-6.8154-674.18 191.06-166.34 285.5-364.88 313.24-585.65 216.56-100.78 429.41-210.2 592.47-435.84 247.42 61.547 488.04 31.512 735.45-34.047z" style="stroke: rgb(0, 0, 0); stroke-width: 40.779; fill: url(#pattern-0-42);"/>
            <path id="path3940" style="stroke: rgb(0, 0, 0); stroke-width: 40.779; fill: url(#pattern-0-43);" d="m-1393 5521.7c119.1 174.8 334.85 249.62 493.57 310.58 118.57 189.59 156.94 331.43 305.01 432.56-70.561 174.29 22.648 371.04 99.821 560.1-265.29 83.77-266.21 276.4-288.37 460.28-187.68 69.012-359.2 166.26-488.01 338.29-207.93-62.211-399.52 5.5025-593.39 55.457-163.03-158.99-360.13-232.85-582.31-244-42.163-218.48-131.59-389.7-277.26-504.65 87.377-191.93 53.404-371.73-5.5501-549.01 155.58-135.46 232.5-297.14 255.08-476.92 176.37-82.076 349.69-171.18 482.49-354.95 201.49 50.129 397.44 25.676 598.9-27.724z"/>
            <path id="path3942" d="m-1435.1 5729.2c96.197 141.19 270.45 201.61 398.63 250.86 95.766 153.1 126.75 267.67 246.34 349.35-56.988 140.76 18.292 299.66 80.621 452.36-214.26 67.657-215.01 223.23-232.9 371.74-151.59 55.738-290.1 134.28-394.14 273.22-167.94-50.245-322.67 4.4441-479.25 44.798-131.67-128.42-290.86-188.07-470.3-197.07-34.054-176.46-106.29-314.74-223.93-407.58 70.56-155.01 43.131-300.22-4.4826-443.41 125.65-109.41 187.78-239.98 206.01-385.18 142.46-66.296 282.43-138.26 389.7-286.68 162.73 40.488 320.99 20.743 483.7-22.396z" style="stroke: rgb(0, 0, 0); stroke-width: 40.779; fill: url(#pattern-0-44);"/>
            <path id="path3944" style="stroke: rgb(0, 0, 0); stroke-width: 40.779; fill: url(#pattern-0-45);" d="m-1482.3 5961.7c70.536 103.52 198.3 147.82 292.27 183.92 70.213 112.25 92.946 196.24 180.61 256.15-41.783 103.2 13.411 219.7 59.11 331.65-157.09 49.603-157.63 163.67-170.76 272.55-111.14 40.871-212.68 98.455-288.96 200.32-123.13-36.829-236.58 3.2669-351.38 32.848-96.529-94.156-213.25-137.89-344.8-144.49-24.974-129.38-77.932-230.75-164.18-298.82 51.733-113.65 31.626-220.11-3.2828-325.09 92.128-80.215 137.67-175.95 151.04-282.41 104.45-48.599 207.06-101.37 285.71-210.18 119.31 29.678 235.33 15.208 354.62-16.424z"/>
            <path id="path3946" d="m-1515.8 6126.9c52.291 76.752 147 109.58 216.66 136.35 52.05 83.209 68.904 145.47 133.9 189.88-30.981 76.505 9.9363 162.87 43.82 245.87-116.45 36.772-116.85 121.33-126.59 202.04-82.392 30.297-157.66 72.986-214.21 148.51-91.286-27.309-175.38 2.4154-260.49 24.352-71.554-69.801-158.09-102.23-255.61-107.12-18.511-95.917-57.773-171.06-121.71-221.53 38.351-84.244 23.442-163.17-2.4364-241 68.294-59.459 102.06-130.43 111.97-209.35 77.438-36.034 153.5-75.152 211.82-155.82 88.436 22.002 174.46 11.282 262.89-12.176z" style="stroke: rgb(0, 0, 0); stroke-width: 40.779; fill: url(#pattern-0-46);"/>
            <path id="path3948" style="stroke: rgb(0, 0, 0); stroke-width: 40.779; fill: url(#pattern-0-47);" d="m-1548 6285.4c34.793 51.061 97.793 72.902 144.13 90.71 34.629 55.357 45.845 96.776 89.085 126.32-20.612 50.897 6.6072 108.35 29.151 163.57-77.475 24.463-77.737 80.713-84.217 134.41-54.813 20.157-104.89 48.557-142.51 98.798-60.735-18.168-116.68 1.6069-173.31 16.2-47.598-46.437-105.17-68.016-170.05-71.262-12.316-63.816-38.435-113.8-80.97-147.38 25.514-56.046 15.595-108.55-1.6209-160.33 45.434-39.552 67.899-86.774 74.49-139.28 51.52-23.973 102.12-49.999 140.92-103.66 58.833 14.633 116.06 7.5099 174.89-8.1003z"/>
            <path id="path3950" d="m-1572.6 6406.4c21.426 31.443 60.22 44.892 88.754 55.858 21.325 34.088 28.232 59.594 54.86 77.789-12.694 31.342 4.0675 66.722 17.95 100.73-47.708 15.065-47.869 49.698-51.86 82.763-33.752 12.413-64.589 29.902-87.752 60.84-37.4-11.188-71.852 0.9895-106.72 9.9761-29.309-28.595-64.765-41.883-104.71-43.882-7.5856-39.298-23.668-70.075-49.86-90.754 15.711-34.512 9.6032-66.844-0.9981-98.73 27.978-24.354 41.811-53.434 45.87-85.766 31.725-14.762 62.885-30.79 86.775-63.834 36.229 9.0067 71.468 4.6245 107.7-4.9881z" style="stroke: rgb(0, 0, 0); stroke-width: 40.779; fill: url(#pattern-0-48);"/>
            <path id="path3952" style="stroke: rgb(0, 0, 0); stroke-width: 40.779; fill: url(#pattern-0-49);" d="m-1587.8 6481.3c13.15 19.298 36.96 27.553 54.473 34.283 13.088 20.922 17.327 36.576 33.672 47.743-7.7921 19.236 2.4952 40.951 11.015 61.823-29.281 9.2462-29.38 30.502-31.83 50.795-20.715 7.6199-39.641 18.353-53.858 37.342-22.954-6.8665-44.099 0.6073-65.502 6.1228-17.987-17.55-39.75-25.706-64.267-26.933-4.6571-24.12-14.526-43.008-30.602-55.7 9.6428-21.182 5.8937-41.025-0.6126-60.596 17.171-14.948 25.662-32.796 28.153-52.639 19.472-9.0603 38.596-18.9 53.259-39.179 22.236 5.5279 43.864 2.8383 66.099-3.0614z"/>
            <path id="path3954" d="m-1598 6531.3c7.6332 11.202 21.454 15.993 31.619 19.9 7.5972 12.144 10.058 21.23 19.546 27.712-4.5242 11.166 1.4471 23.77 6.3926 35.885-16.996 5.367-17.054 17.705-18.476 29.483-12.024 4.4242-23.009 10.654-31.261 21.676-13.324-3.9856-25.597 0.3525-38.022 3.554-10.439-10.187-23.072-14.921-37.303-15.633-2.7048-14-8.4317-24.964-17.763-32.331 5.5971-12.295 3.4207-23.813-0.3556-35.173 9.9672-8.6764 14.895-19.036 16.341-30.554 11.302-5.259 22.403-10.971 30.914-22.741 12.907 3.2086 25.461 1.6475 38.367-1.777z" style="stroke: rgb(0, 0, 0); stroke-width: 40.779; fill: url(#pattern-0-50);"/>
            <path id="path3956" style="stroke: rgb(0, 0, 0); stroke-width: 40.779; fill: url(#pattern-0-51);" d="m-1560 6556.4 1272-1336"/>
            <path id="path3958" d="m-1560 6556.4 1272-1336" style="stroke: rgb(0, 0, 0); stroke-width: 40.779; fill: url(#pattern-0-52);"/>
            <path id="path3960" style="stroke: rgb(0, 0, 0); stroke-width: 40.779; fill: url(#pattern-0-53);" d="m-1616 6532.4 368-1728"/>
            <path id="path3962" style="stroke: rgb(0, 0, 0); stroke-width: 40.779; fill: url(#pattern-0-54);" d="m-1664 6540.4-584-1776"/>
            <path id="path3964" style="stroke: rgb(0, 0, 0); stroke-width: 40.779; fill: url(#pattern-0-55);" d="m-1719.8 6572.6-1456.4-1272.5"/>
            <path id="path3966" style="stroke: rgb(0, 0, 0); stroke-width: 40.779; fill: url(#pattern-0-56);" d="m-1711.8 6628.6-1888.4-416.5"/>
            <path id="path3968" style="stroke: rgb(0, 0, 0); stroke-width: 40.779; fill: url(#pattern-0-57);" d="m-1720 6684.4-1896 504"/>
            <path id="path3970" style="stroke: rgb(0, 0, 0); stroke-width: 40.779; fill: url(#pattern-0-58);" d="m-1680.2 6700.5-1367.7 1327.7"/>
            <path id="path3972" style="stroke: rgb(0, 0, 0); stroke-width: 40.779; fill: url(#pattern-0-59);" d="m-1640 6668.4-360 1704"/>
            <path id="path3974" style="stroke: rgb(0, 0, 0); stroke-width: 40.779; fill: url(#pattern-0-60);" d="m-1592 6644.4 576 1728"/>
            <path id="path3976" style="stroke: rgb(0, 0, 0); stroke-width: 40.779; fill: url(#pattern-0-61);" d="m-1536 6628.4 1448 1264"/>
            <path id="path3978" style="stroke: rgb(0, 0, 0); stroke-width: 40.779; fill: url(#pattern-0-62);" d="m336 7012.4-1832-424 1744-608"/>
            <path id="path3980" style="fill-opacity: 0.91124; stroke: rgb(0, 0, 0); stroke-width: 40.779; fill: url(#pattern-0-63);" d="m-3632 5080.4c0 24.3-19.7 44-44 44s-44-19.7-44-44 19.7-44 44-44 44 19.7 44 44z" transform="translate(2064,1520)"/>
          </g>
          <g id="g4954" style="stroke:#372a2a;stroke-width:24.822" transform="matrix(.015284 0 0 .015925 56.975 -71.783)">
            <path id="path4906" d="m-1296 5044.4c171.78 252.13 483.03 360.1 712 448 171.05 273.53 226.4 478.15 440 624-6.6623 269.68 88.926 546.07 144 808-382.71 120.8-384.03 398.7-416 664-217.04 158.44-367.15 405.51-704 488-299.92-89.718-576.36 7.9448-856 80-235.19-229.35-519.52-335.87-840-352-60.85-315.15-189.84-562.16-400-728 126.08-276.87 77.046-536.24-8-792 224.46-195.4 335.39-428.65 368-688 137.16-193.42 440.94-287.57 696-512 290.67 72.296 573.33 37.007 864-40z" style="stroke: rgb(55, 42, 42); stroke-width: 24.822; fill: url(#pattern-0-64);"/>
            <path id="path4908" style="stroke: rgb(55, 42, 42); stroke-width: 24.822; fill: url(#pattern-0-65);" d="m-1343 5275.8c146.24 214.64 411.17 306.53 606.08 381.36 145.6 232.82 192.72 407 374.54 531.17-86.647 214.02 27.812 455.63 122.58 687.79-325.77 102.87-326.9 339.42-354.11 565.21-230.47 84.732-441.09 204.16-599.26 415.41-240.26-18.583-474.96 66.851-728.66 68.095-200.2-195.23-442.23-285.91-715.04-299.63-51.788-268.28-161.6-478.53-340.48-619.69 107.31-235.69 65.578-456.47-6.8154-674.18 191.06-166.34 285.5-364.88 313.24-585.65 216.56-100.78 429.41-210.2 592.47-435.84 247.42 61.547 488.04 31.512 735.45-34.047z"/>
            <path id="path4910" d="m-1393 5521.7c119.1 174.8 334.85 249.62 493.57 310.58 118.57 189.59 156.94 331.43 305.01 432.56-70.561 174.29 22.648 371.04 99.821 560.1-265.29 83.77-266.21 276.4-288.37 460.28-187.68 69.012-359.2 166.26-488.01 338.29-207.93-62.211-399.52 5.5025-593.39 55.457-163.03-158.99-360.13-232.85-582.31-244-42.163-218.48-131.59-389.7-277.26-504.65 87.377-191.93 53.404-371.73-5.5501-549.01 155.58-135.46 232.5-297.14 255.08-476.92 176.37-82.076 349.69-171.18 482.49-354.95 201.49 50.129 397.44 25.676 598.9-27.724z" style="stroke-width: 24.822; fill: url(#pattern-0-66); stroke: url(#gradient-0);"/>
            <path id="path4912" style="stroke: rgb(55, 42, 42); stroke-width: 24.822; fill: url(#pattern-0-67);" d="m-1435.1 5729.2c96.197 141.19 270.45 201.61 398.63 250.86 95.766 153.1 126.75 267.67 246.34 349.35-56.988 140.76 18.292 299.66 80.621 452.36-214.26 67.657-215.01 223.23-232.9 371.74-151.59 55.738-290.1 134.28-394.14 273.22-167.94-50.245-322.67 4.4441-479.25 44.798-131.67-128.42-290.86-188.07-470.3-197.07-142.21-176.46-144.21-314.74-223.93-407.58 70.56-155.01 43.131-300.22-4.4826-443.41 125.65-109.41 187.78-239.98 206.01-385.18 142.46-66.296 282.43-138.26 389.7-286.68 162.73 40.488 320.99 20.743 483.7-22.396z"/>
            <path id="path4914" d="m-1482.3 5961.7c70.536 103.52 198.3 147.82 292.27 183.92 70.213 112.25 92.946 196.24 180.61 256.15-41.783 103.2 13.411 219.7 59.11 331.65-157.09 49.603-157.63 163.67-170.76 272.55-111.14 40.871-212.68 98.455-288.96 200.32-123.13-36.829-236.58 3.2669-351.38 32.848-96.529-94.156-213.25-137.89-344.8-144.49-24.974-129.38-77.932-230.75-164.18-298.82 51.733-113.65 31.626-220.11-3.2828-325.09 92.128-80.215 137.67-175.95 151.04-282.41 104.45-48.599 207.06-101.37 285.71-210.18 119.31 29.678 235.33 15.208 354.62-16.424z" style="stroke: rgb(55, 42, 42); stroke-width: 24.822; fill: url(#pattern-0-68);"/>
            <path id="path4916" style="stroke: rgb(55, 42, 42); stroke-width: 24.822; fill: url(#pattern-0-69);" d="m-1515.8 6126.9c52.291 76.752 147 109.58 216.66 136.35 52.05 83.209 68.904 145.47 133.9 189.88-30.981 76.505 9.9363 162.87 43.82 245.87-116.45 36.772-116.85 121.33-126.59 202.04-82.392 30.297-157.66 72.986-214.21 148.51-91.286-27.309-175.38 2.4154-260.49 24.352-71.554-69.801-158.09-102.23-255.61-107.12-18.511-95.917-57.773-171.06-121.71-221.53 38.351-84.244 23.442-163.17-2.4364-241 68.294-59.459 102.06-130.43 111.97-209.35 77.438-36.034 153.5-75.152 211.82-155.82 88.436 22.002 174.46 11.282 262.89-12.176z"/>
            <path id="path4918" d="m-1548 6285.4c34.793 51.061 97.793 72.902 144.13 90.71 34.629 55.357 45.845 96.776 89.085 126.32-20.612 50.897 6.6072 108.35 29.151 163.57-77.475 24.463-77.737 80.713-84.217 134.41-54.813 20.157-104.89 48.557-142.51 98.798-60.735-18.168-116.68 1.6069-173.31 16.2-47.598-46.437-105.17-68.016-170.05-71.262-12.316-63.816-38.435-113.8-80.97-147.38 25.514-56.046 15.595-108.55-1.6209-160.33 45.434-39.552 67.899-86.774 74.49-139.28 51.52-23.973 102.12-49.999 140.92-103.66 58.833 14.633 116.06 7.5099 174.89-8.1003z" style="stroke: rgb(55, 42, 42); stroke-width: 24.822; fill: url(#pattern-0-70);"/>
            <path id="path4920" style="stroke: rgb(55, 42, 42); stroke-width: 24.822; fill: url(#pattern-0-71);" d="m-1572.6 6406.4c21.426 31.443 60.22 44.892 88.754 55.858 21.325 34.088 28.232 59.594 54.86 77.789-12.694 31.342 4.0675 66.722 17.95 100.73-47.708 15.065-47.869 49.698-51.86 82.763-33.752 12.413-64.589 29.902-87.752 60.84-37.4-11.188-71.852 0.9895-106.72 9.9761-29.309-28.595-64.765-41.883-104.71-43.882-7.5856-39.298-23.668-70.075-49.86-90.754 15.711-34.512 9.6032-66.844-0.9981-98.73 27.978-24.354 41.811-53.434 45.87-85.766 31.725-14.762 62.885-30.79 86.775-63.834 36.229 9.0067 71.468 4.6245 107.7-4.9881z"/>
            <path id="path4922" d="m-1587.8 6481.3c13.15 19.298 36.96 27.553 54.473 34.283 13.088 20.922 17.327 36.576 33.672 47.743-7.7921 19.236 2.4952 40.951 11.015 61.823-29.281 9.2462-29.38 30.502-31.83 50.795-20.715 7.6199-39.641 18.353-53.858 37.342-22.954-6.8665-44.099 0.6073-65.502 6.1228-17.987-17.55-39.75-25.706-64.267-26.933-4.6571-24.12-14.526-43.008-30.602-55.7 9.6428-21.182 5.8937-41.025-0.6126-60.596 17.171-14.948 25.662-32.796 28.153-52.639 19.472-9.0603 38.596-18.9 53.259-39.179 22.236 5.5279 43.864 2.8383 66.099-3.0614z" style="stroke: rgb(55, 42, 42); stroke-width: 24.822; fill: url(#pattern-0-72);"/>
            <path id="path4924" style="stroke: rgb(55, 42, 42); stroke-width: 24.822; fill: url(#pattern-0-73);" d="m-1598 6531.3c7.6332 11.202 21.454 15.993 31.619 19.9 7.5972 12.144 10.058 21.23 19.546 27.712-4.5242 11.166 1.4471 23.77 6.3926 35.885-16.996 5.367-17.054 17.705-18.476 29.483-12.024 4.4242-23.009 10.654-31.261 21.676-13.324-3.9856-25.597 0.3525-38.022 3.554-10.439-10.187-23.072-14.921-37.303-15.633-2.7048-14-8.4317-24.964-17.763-32.331 5.5971-12.295 3.4207-23.813-0.3556-35.173 9.9672-8.6764 14.895-19.036 16.341-30.554 11.302-5.259 22.403-10.971 30.914-22.741 12.907 3.2086 25.461 1.6475 38.367-1.777z"/>
            <path id="path4926" d="m-1560 6556.4 1272-1336" style="stroke: rgb(55, 42, 42); stroke-width: 24.822; fill: url(#pattern-0-74);"/>
            <path id="path4928" style="stroke: rgb(55, 42, 42); stroke-width: 24.822; fill: url(#pattern-0-75);" d="m-1560 6556.4 1272-1336"/>
            <path id="path4930" d="m-1616 6532.4 368-1728" style="stroke: rgb(55, 42, 42); stroke-width: 24.822; fill: url(#pattern-0-76);"/>
            <path id="path4932" d="m-1664 6540.4-584-1776" style="stroke: rgb(55, 42, 42); stroke-width: 24.822; fill: url(#pattern-0-77);"/>
            <path id="path4934" d="m-1719.8 6572.6-1456.4-1272.5" style="stroke: rgb(55, 42, 42); stroke-width: 24.822; fill: url(#pattern-0-78);"/>
            <path id="path4936" d="m-1711.8 6628.6-1888.4-416.5" style="stroke: rgb(55, 42, 42); stroke-width: 24.822; fill: url(#pattern-0-79);"/>
            <path id="path4938" d="m-1720 6684.4-1896 504" style="stroke: rgb(55, 42, 42); stroke-width: 24.822; fill: url(#pattern-0-80);"/>
            <path id="path4940" d="m-1680.2 6700.5-1367.7 1327.7" style="stroke: rgb(55, 42, 42); stroke-width: 24.822; fill: url(#pattern-0-81);"/>
            <path id="path4942" d="m-1640 6668.4-360 1704" style="stroke: rgb(55, 42, 42); stroke-width: 24.822; fill: url(#pattern-0-82);"/>
            <path id="path4944" d="m-1592 6644.4 576 1728" style="stroke: rgb(55, 42, 42); stroke-width: 24.822; fill: url(#pattern-0-83);"/>
            <path id="path4946" d="m-1536 6628.4 1448 1264" style="stroke: rgb(55, 42, 42); stroke-width: 24.822; fill: url(#pattern-0-84);"/>
            <path id="path4948" d="m336 7012.4-1832-424 1744-608" style="stroke: rgb(55, 42, 42); stroke-width: 24.822; fill: url(#pattern-0-85);"/>
            <path id="path4950" style="fill-opacity: 0.91124; stroke: rgb(55, 42, 42); stroke-width: 24.822; fill: url(#pattern-0-86);" d="m-3632 5080.4c0 24.3-19.7 44-44 44s-44-19.7-44-44 19.7-44 44-44 44 19.7 44 44z" transform="translate(2064,1520)"/>
          </g>
        </g>
      </g>
    </pattern>
    <pattern id="pattern-0-0" patternTransform="matrix(1, 0, 0, 1, 235.602005, 713.508484)" xlink:href="#pattern-0"/>
    <pattern id="pattern-0-2" patternTransform="matrix(1, 0, 0, 1, -62.550049, 272.899994)" xlink:href="#pattern-1"/>
    <pattern id="pattern-1" x="0" y="0" width="20" height="20" patternUnits="userSpaceOnUse" viewBox="0 0 100 100">
      <g transform="matrix(0.065451, 0, 0, 0.091719, -0.63983, -2.145864)">
        <g id="layer1" transform="translate(868.42 -177.86)">
          <g id="g3922" transform="translate(-40,460)">
            <path id="path3673-8-1" d="m717.1-274.1h-1539.3v1114h1539.3v-1114z" style="fill: url(#pattern-0-2); stroke: rgb(85, 218, 152); stroke-width: 38.1752;"/>
            <path id="path3673-8" style="fill: url(#pattern-0-3); stroke: rgb(85, 218, 152); stroke-width: 38.1752;" d="m716.9-273.91h-1538.9v1113.6h1538.9v-1113.6z"/>
            <path id="path3734" style="fill: url(#pattern-0-4); stroke: rgb(85, 218, 152); stroke-width: 38.1752;" d="m-327.29 99.788 49.497-371.74 160.3-0.08-209.8 371.82z"/>
            <path id="path3736" style="fill: url(#pattern-0-5); stroke: rgb(85, 218, 152); stroke-width: 38.1752;" d="m-324.26 96.758-36.365-369.25-128.29-0.46918 164.65 369.72z"/>
            <path id="path3738" style="fill: url(#pattern-0-6); stroke: rgb(85, 218, 152); stroke-width: 38.1752;" d="m-328.3 99.788-305.07-374.77-190.45 3.3263 495.52 371.44z"/>
            <path id="path3740" style="fill: url(#pattern-0-7); stroke: rgb(85, 218, 152); stroke-width: 38.1752;" d="m-328.3 100.8-493.96-171.73-2.0203 129.3 495.98 42.426z"/>
            <path id="path3742" style="fill: url(#pattern-0-8); stroke: rgb(85, 218, 152); stroke-width: 38.1752;" d="m-327.29 99.788-492.95 59.599-3.0304 115.16 495.98-174.76z"/>
            <path id="path3744" style="fill: url(#pattern-0-9); stroke: rgb(85, 218, 152); stroke-width: 38.1752;" d="m-328.3 98.778-497 282.84 7.0711 105.06 489.92-387.9z"/>
            <path id="path3746" style="fill: url(#pattern-0-10); stroke: rgb(85, 218, 152); stroke-width: 38.1752;" d="m-327.29 97.768-494.97 590.94 1.6019 150.22 49.916-0.71429 443.46-740.44z"/>
            <path id="path3748" style="fill: url(#pattern-0-11); stroke: rgb(85, 218, 152); stroke-width: 38.1752;" d="m-327.29 98.778-177.79 742.46 233.35-1.9401-55.558-740.52z"/>
            <path id="path3750" style="fill: url(#pattern-0-12); stroke: rgb(85, 218, 152); stroke-width: 38.1752;" d="m-326.28 99.788 132.33 740.44 156.57 1.01-288.9-741.45z"/>
            <path id="path3752" style="fill: url(#pattern-0-13); stroke: rgb(85, 218, 152); stroke-width: 38.1752;" d="m-327.29 95.748 484.55 742.84 186.19 1.64-670.74-744.48z"/>
            <path id="path3754" style="fill: url(#pattern-0-14); stroke: rgb(85, 218, 152); stroke-width: 38.1752;" d="M -326.78 98.778 L 717.22 737.198 L 717.22 523.048 L -326.78 98.778 L -326.78 98.778 Z"/>
            <path id="path3756" style="fill: url(#pattern-0-15); stroke: rgb(85, 218, 152); stroke-width: 38.1752;" d="m-327.79 99.283 1044.8 102.53 1.12-241.53-1045.9 139z"/>
            <path id="path3758" style="fill: url(#pattern-0-16); stroke: rgb(85, 218, 152); stroke-width: 38.1752;" d="M -327.79 99.536 L 291.434 -121.39 L 717.31 -273.334 L 246.48 -279.024 L -327.79 99.536 Z"/>
            <path id="path3676" style="fill: url(#pattern-0-17); stroke: rgb(85, 218, 152); stroke-width: 36.6575;" d="m85.714 306.65c0 52.073-44.132 94.286-98.571 94.286s-98.571-42.213-98.571-94.286 44.132-94.286 98.571-94.286 98.571 42.213 98.571 94.286z" transform="matrix(1.0145 0 0 1.0606 -313.96 -225.31)"/>
            <path id="path3673-8-7" style="fill: url(#pattern-0-18); stroke: rgb(85, 218, 152); stroke-width: 38.1752;" d="m717.1-274.1h-1539.3v1114h1539.3v-1114z"/>
            <path transform="matrix(-0.653708, 0.756747, -0.957572, -0.421229, -312.659998, -101.077459)" d="M 149 194 m -842.748 0 a 842.748 933.298 0 1 0 1685.496 0 a 842.748 933.298 0 1 0 -1685.496 0 Z M 149 194 m -505.648 0 a 505.648 559.978 0 0 1 1011.296 0 a 505.648 559.978 0 0 1 -1011.296 0 Z" style="fill: url(#pattern-0-19); stroke: rgb(85, 218, 152); stroke-width: 38.6695;" bx:shape="ring 149 194 505.648 559.978 842.748 933.298 1@ac3f944a"/>
            <path transform="matrix(-0.835285, 0.549816, -0.83611, -0.646836, -15.28734, 58.6239)" d="M 225 247 m -340.033 0 a 340.033 313.342 0 1 0 680.066 0 a 340.033 313.342 0 1 0 -680.066 0 Z M 225 247 m -204.021 0 a 204.021 188.006 0 0 1 408.042 0 a 204.021 188.006 0 0 1 -408.042 0 Z" style="fill: url(#pattern-0-20); stroke: rgb(85, 218, 152); stroke-width: 38.6875;" bx:shape="ring 225 247 204.021 188.006 340.033 313.342 1@ed6269a0"/>
          </g>
        </g>
      </g>
      <path style="fill: rgb(216, 216, 216); stroke-width: 12; stroke: rgb(85, 218, 152);"/>
      <path style="fill: rgb(216, 216, 216); stroke-width: 12; stroke: rgb(85, 218, 152);" transform="matrix(0.780871, -0.624695, 0.624695, 0.780867, -520.309113, 234.467225)" d="M 609 213 m -1.026 0 a 1.026 1.026 0 1 0 2.052 0 a 1.026 1.026 0 1 0 -2.052 0 Z M 609 213 m -0.616 0 a 0.616 0.616 0 0 1 1.232 0 a 0.616 0.616 0 0 1 -1.232 0 Z" bx:shape="ring 609 213 0.616 0.616 1.026 1.026 1@73d69828"/>
      <g transform="matrix(0.951617, 0, 0, 1.236254, 34.280777, 5.551098)">
        <title id="title4498">Halloween Spider Web Icon</title>
        <g id="g-1">
          <g id="g3934" style="opacity:.37561;filter:url(#filter4490);stroke:#000000;stroke-width:40.779" transform="matrix(.015787 0 0 .016449 58.709 -76.133)">
            <path id="path3936" style="stroke: rgb(0, 0, 0); stroke-width: 40.779; fill: rgb(85, 218, 136);" d="m-1296 5044.4c171.78 252.13 483.03 360.1 712 448 171.05 273.53 226.4 478.15 440 624-101.79 251.42 32.673 535.27 144 808-382.71 120.8-384.03 398.7-416 664-270.74 99.53-518.18 239.85-704 488-299.92-89.718-576.36 7.9448-856 80-235.19-229.35-519.52-335.87-840-352-60.85-315.15-189.84-562.16-400-728 126.08-276.87 77.046-536.24-8-792 224.46-195.4 335.39-428.65 368-688 254.4-118.4 504.46-246.92 696-512 290.67 72.296 573.33 37.007 864-40z"/>
            <path id="path3938" d="m-1343 5275.8c146.24 214.64 411.17 306.53 606.08 381.36 145.6 232.82 192.72 407 374.54 531.17-86.647 214.02 27.812 455.63 122.58 687.79-325.77 102.87-326.9 339.42-354.11 565.21-230.47 84.732-441.09 204.16-599.26 415.41-255.32-76.389-490.61 6.7616-728.66 68.095-200.2-195.23-442.23-285.91-715.04-299.63-51.788-268.28-161.6-478.53-340.48-619.69 107.31-235.69 65.578-456.47-6.8154-674.18 191.06-166.34 285.5-364.88 313.24-585.65 216.56-100.78 429.41-210.2 592.47-435.84 247.42 61.547 488.04 31.512 735.45-34.047z" style="stroke: rgb(0, 0, 0); stroke-width: 40.779; fill: rgb(85, 218, 136);"/>
            <path id="path3940" style="stroke: rgb(0, 0, 0); stroke-width: 40.779; fill: rgb(85, 218, 136);" d="m-1393 5521.7c119.1 174.8 334.85 249.62 493.57 310.58 118.57 189.59 156.94 331.43 305.01 432.56-70.561 174.29 22.648 371.04 99.821 560.1-265.29 83.77-266.21 276.4-288.37 460.28-187.68 69.012-359.2 166.26-488.01 338.29-207.93-62.211-399.52 5.5025-593.39 55.457-163.03-158.99-360.13-232.85-582.31-244-42.163-218.48-131.59-389.7-277.26-504.65 87.377-191.93 53.404-371.73-5.5501-549.01 155.58-135.46 232.5-297.14 255.08-476.92 176.37-82.076 349.69-171.18 482.49-354.95 201.49 50.129 397.44 25.676 598.9-27.724z"/>
            <path id="path3942" d="m-1435.1 5729.2c96.197 141.19 270.45 201.61 398.63 250.86 95.766 153.1 126.75 267.67 246.34 349.35-56.988 140.76 18.292 299.66 80.621 452.36-214.26 67.657-215.01 223.23-232.9 371.74-151.59 55.738-290.1 134.28-394.14 273.22-167.94-50.245-322.67 4.4441-479.25 44.798-131.67-128.42-290.86-188.07-470.3-197.07-34.054-176.46-106.29-314.74-223.93-407.58 70.56-155.01 43.131-300.22-4.4826-443.41 125.65-109.41 187.78-239.98 206.01-385.18 142.46-66.296 282.43-138.26 389.7-286.68 162.73 40.488 320.99 20.743 483.7-22.396z" style="stroke: rgb(0, 0, 0); stroke-width: 40.779; fill: rgb(85, 218, 136);"/>
            <path id="path3944" style="stroke: rgb(0, 0, 0); stroke-width: 40.779; fill: rgb(85, 218, 136);" d="m-1482.3 5961.7c70.536 103.52 198.3 147.82 292.27 183.92 70.213 112.25 92.946 196.24 180.61 256.15-41.783 103.2 13.411 219.7 59.11 331.65-157.09 49.603-157.63 163.67-170.76 272.55-111.14 40.871-212.68 98.455-288.96 200.32-123.13-36.829-236.58 3.2669-351.38 32.848-96.529-94.156-213.25-137.89-344.8-144.49-24.974-129.38-77.932-230.75-164.18-298.82 51.733-113.65 31.626-220.11-3.2828-325.09 92.128-80.215 137.67-175.95 151.04-282.41 104.45-48.599 207.06-101.37 285.71-210.18 119.31 29.678 235.33 15.208 354.62-16.424z"/>
            <path id="path3946" d="m-1515.8 6126.9c52.291 76.752 147 109.58 216.66 136.35 52.05 83.209 68.904 145.47 133.9 189.88-30.981 76.505 9.9363 162.87 43.82 245.87-116.45 36.772-116.85 121.33-126.59 202.04-82.392 30.297-157.66 72.986-214.21 148.51-91.286-27.309-175.38 2.4154-260.49 24.352-71.554-69.801-158.09-102.23-255.61-107.12-18.511-95.917-57.773-171.06-121.71-221.53 38.351-84.244 23.442-163.17-2.4364-241 68.294-59.459 102.06-130.43 111.97-209.35 77.438-36.034 153.5-75.152 211.82-155.82 88.436 22.002 174.46 11.282 262.89-12.176z" style="stroke: rgb(0, 0, 0); stroke-width: 40.779; fill: rgb(85, 218, 136);"/>
            <path id="path3948" style="stroke: rgb(0, 0, 0); stroke-width: 40.779; fill: rgb(85, 218, 136);" d="m-1548 6285.4c34.793 51.061 97.793 72.902 144.13 90.71 34.629 55.357 45.845 96.776 89.085 126.32-20.612 50.897 6.6072 108.35 29.151 163.57-77.475 24.463-77.737 80.713-84.217 134.41-54.813 20.157-104.89 48.557-142.51 98.798-60.735-18.168-116.68 1.6069-173.31 16.2-47.598-46.437-105.17-68.016-170.05-71.262-12.316-63.816-38.435-113.8-80.97-147.38 25.514-56.046 15.595-108.55-1.6209-160.33 45.434-39.552 67.899-86.774 74.49-139.28 51.52-23.973 102.12-49.999 140.92-103.66 58.833 14.633 116.06 7.5099 174.89-8.1003z"/>
            <path id="path3950" d="m-1572.6 6406.4c21.426 31.443 60.22 44.892 88.754 55.858 21.325 34.088 28.232 59.594 54.86 77.789-12.694 31.342 4.0675 66.722 17.95 100.73-47.708 15.065-47.869 49.698-51.86 82.763-33.752 12.413-64.589 29.902-87.752 60.84-37.4-11.188-71.852 0.9895-106.72 9.9761-29.309-28.595-64.765-41.883-104.71-43.882-7.5856-39.298-23.668-70.075-49.86-90.754 15.711-34.512 9.6032-66.844-0.9981-98.73 27.978-24.354 41.811-53.434 45.87-85.766 31.725-14.762 62.885-30.79 86.775-63.834 36.229 9.0067 71.468 4.6245 107.7-4.9881z" style="stroke: rgb(0, 0, 0); stroke-width: 40.779; fill: rgb(85, 218, 136);"/>
            <path id="path3952" style="stroke: rgb(0, 0, 0); stroke-width: 40.779; fill: rgb(85, 218, 136);" d="m-1587.8 6481.3c13.15 19.298 36.96 27.553 54.473 34.283 13.088 20.922 17.327 36.576 33.672 47.743-7.7921 19.236 2.4952 40.951 11.015 61.823-29.281 9.2462-29.38 30.502-31.83 50.795-20.715 7.6199-39.641 18.353-53.858 37.342-22.954-6.8665-44.099 0.6073-65.502 6.1228-17.987-17.55-39.75-25.706-64.267-26.933-4.6571-24.12-14.526-43.008-30.602-55.7 9.6428-21.182 5.8937-41.025-0.6126-60.596 17.171-14.948 25.662-32.796 28.153-52.639 19.472-9.0603 38.596-18.9 53.259-39.179 22.236 5.5279 43.864 2.8383 66.099-3.0614z"/>
            <path id="path3954" d="m-1598 6531.3c7.6332 11.202 21.454 15.993 31.619 19.9 7.5972 12.144 10.058 21.23 19.546 27.712-4.5242 11.166 1.4471 23.77 6.3926 35.885-16.996 5.367-17.054 17.705-18.476 29.483-12.024 4.4242-23.009 10.654-31.261 21.676-13.324-3.9856-25.597 0.3525-38.022 3.554-10.439-10.187-23.072-14.921-37.303-15.633-2.7048-14-8.4317-24.964-17.763-32.331 5.5971-12.295 3.4207-23.813-0.3556-35.173 9.9672-8.6764 14.895-19.036 16.341-30.554 11.302-5.259 22.403-10.971 30.914-22.741 12.907 3.2086 25.461 1.6475 38.367-1.777z" style="stroke: rgb(0, 0, 0); stroke-width: 40.779; fill: rgb(85, 218, 136);"/>
            <path id="path3956" style="stroke: rgb(0, 0, 0); stroke-width: 40.779; fill: rgb(85, 218, 136);" d="m-1560 6556.4 1272-1336"/>
            <path id="path3958" d="m-1560 6556.4 1272-1336" style="stroke: rgb(0, 0, 0); stroke-width: 40.779; fill: rgb(85, 218, 136);"/>
            <path id="path3960" style="stroke: rgb(0, 0, 0); stroke-width: 40.779; fill: rgb(85, 218, 136);" d="m-1616 6532.4 368-1728"/>
            <path id="path3962" style="stroke: rgb(0, 0, 0); stroke-width: 40.779; fill: rgb(85, 218, 136);" d="m-1664 6540.4-584-1776"/>
            <path id="path3964" style="stroke: rgb(0, 0, 0); stroke-width: 40.779; fill: rgb(85, 218, 136);" d="m-1719.8 6572.6-1456.4-1272.5"/>
            <path id="path3966" style="stroke: rgb(0, 0, 0); stroke-width: 40.779; fill: rgb(85, 218, 136);" d="m-1711.8 6628.6-1888.4-416.5"/>
            <path id="path3968" style="stroke: rgb(0, 0, 0); stroke-width: 40.779; fill: rgb(85, 218, 136);" d="m-1720 6684.4-1896 504"/>
            <path id="path3970" style="stroke: rgb(0, 0, 0); stroke-width: 40.779; fill: rgb(85, 218, 136);" d="m-1680.2 6700.5-1367.7 1327.7"/>
            <path id="path3972" style="stroke: rgb(0, 0, 0); stroke-width: 40.779; fill: rgb(85, 218, 136);" d="m-1640 6668.4-360 1704"/>
            <path id="path3974" style="stroke: rgb(0, 0, 0); stroke-width: 40.779; fill: rgb(85, 218, 136);" d="m-1592 6644.4 576 1728"/>
            <path id="path3976" style="stroke: rgb(0, 0, 0); stroke-width: 40.779; fill: rgb(85, 218, 136);" d="m-1536 6628.4 1448 1264"/>
            <path id="path3978" style="stroke: rgb(0, 0, 0); stroke-width: 40.779; fill: rgb(85, 218, 136);" d="m336 7012.4-1832-424 1744-608"/>
            <path id="path3980" style="fill-opacity: 0.91124; stroke: rgb(0, 0, 0); stroke-width: 40.779; fill: rgb(85, 218, 136);" d="m-3632 5080.4c0 24.3-19.7 44-44 44s-44-19.7-44-44 19.7-44 44-44 44 19.7 44 44z" transform="translate(2064,1520)"/>
          </g>
          <g id="g4954" style="stroke:#372a2a;stroke-width:24.822" transform="matrix(.015284 0 0 .015925 56.975 -71.783)">
            <path id="path4906" d="m-1296 5044.4c171.78 252.13 483.03 360.1 712 448 171.05 273.53 226.4 478.15 440 624-6.6623 269.68 88.926 546.07 144 808-382.71 120.8-384.03 398.7-416 664-217.04 158.44-367.15 405.51-704 488-299.92-89.718-576.36 7.9448-856 80-235.19-229.35-519.52-335.87-840-352-60.85-315.15-189.84-562.16-400-728 126.08-276.87 77.046-536.24-8-792 224.46-195.4 335.39-428.65 368-688 137.16-193.42 440.94-287.57 696-512 290.67 72.296 573.33 37.007 864-40z" style="stroke: rgb(55, 42, 42); stroke-width: 24.822; fill: rgb(85, 218, 136);"/>
            <path id="path4908" style="stroke: rgb(55, 42, 42); stroke-width: 24.822; fill: rgb(85, 218, 136);" d="m-1343 5275.8c146.24 214.64 411.17 306.53 606.08 381.36 145.6 232.82 192.72 407 374.54 531.17-86.647 214.02 27.812 455.63 122.58 687.79-325.77 102.87-326.9 339.42-354.11 565.21-230.47 84.732-441.09 204.16-599.26 415.41-240.26-18.583-474.96 66.851-728.66 68.095-200.2-195.23-442.23-285.91-715.04-299.63-51.788-268.28-161.6-478.53-340.48-619.69 107.31-235.69 65.578-456.47-6.8154-674.18 191.06-166.34 285.5-364.88 313.24-585.65 216.56-100.78 429.41-210.2 592.47-435.84 247.42 61.547 488.04 31.512 735.45-34.047z"/>
            <path id="path4910" d="m-1393 5521.7c119.1 174.8 334.85 249.62 493.57 310.58 118.57 189.59 156.94 331.43 305.01 432.56-70.561 174.29 22.648 371.04 99.821 560.1-265.29 83.77-266.21 276.4-288.37 460.28-187.68 69.012-359.2 166.26-488.01 338.29-207.93-62.211-399.52 5.5025-593.39 55.457-163.03-158.99-360.13-232.85-582.31-244-42.163-218.48-131.59-389.7-277.26-504.65 87.377-191.93 53.404-371.73-5.5501-549.01 155.58-135.46 232.5-297.14 255.08-476.92 176.37-82.076 349.69-171.18 482.49-354.95 201.49 50.129 397.44 25.676 598.9-27.724z" style="stroke: rgb(55, 42, 42); stroke-width: 24.822; fill: rgb(85, 218, 136);"/>
            <path id="path4912" style="stroke: rgb(55, 42, 42); stroke-width: 24.822; fill: rgb(85, 218, 136);" d="m-1435.1 5729.2c96.197 141.19 270.45 201.61 398.63 250.86 95.766 153.1 126.75 267.67 246.34 349.35-56.988 140.76 18.292 299.66 80.621 452.36-214.26 67.657-215.01 223.23-232.9 371.74-151.59 55.738-290.1 134.28-394.14 273.22-167.94-50.245-322.67 4.4441-479.25 44.798-131.67-128.42-290.86-188.07-470.3-197.07-142.21-176.46-144.21-314.74-223.93-407.58 70.56-155.01 43.131-300.22-4.4826-443.41 125.65-109.41 187.78-239.98 206.01-385.18 142.46-66.296 282.43-138.26 389.7-286.68 162.73 40.488 320.99 20.743 483.7-22.396z"/>
            <path id="path4914" d="m-1482.3 5961.7c70.536 103.52 198.3 147.82 292.27 183.92 70.213 112.25 92.946 196.24 180.61 256.15-41.783 103.2 13.411 219.7 59.11 331.65-157.09 49.603-157.63 163.67-170.76 272.55-111.14 40.871-212.68 98.455-288.96 200.32-123.13-36.829-236.58 3.2669-351.38 32.848-96.529-94.156-213.25-137.89-344.8-144.49-24.974-129.38-77.932-230.75-164.18-298.82 51.733-113.65 31.626-220.11-3.2828-325.09 92.128-80.215 137.67-175.95 151.04-282.41 104.45-48.599 207.06-101.37 285.71-210.18 119.31 29.678 235.33 15.208 354.62-16.424z" style="stroke: rgb(55, 42, 42); stroke-width: 24.822; fill: rgb(85, 218, 136);"/>
            <path id="path4916" style="stroke: rgb(55, 42, 42); stroke-width: 24.822; fill: rgb(85, 218, 136);" d="m-1515.8 6126.9c52.291 76.752 147 109.58 216.66 136.35 52.05 83.209 68.904 145.47 133.9 189.88-30.981 76.505 9.9363 162.87 43.82 245.87-116.45 36.772-116.85 121.33-126.59 202.04-82.392 30.297-157.66 72.986-214.21 148.51-91.286-27.309-175.38 2.4154-260.49 24.352-71.554-69.801-158.09-102.23-255.61-107.12-18.511-95.917-57.773-171.06-121.71-221.53 38.351-84.244 23.442-163.17-2.4364-241 68.294-59.459 102.06-130.43 111.97-209.35 77.438-36.034 153.5-75.152 211.82-155.82 88.436 22.002 174.46 11.282 262.89-12.176z"/>
            <path id="path4918" d="m-1548 6285.4c34.793 51.061 97.793 72.902 144.13 90.71 34.629 55.357 45.845 96.776 89.085 126.32-20.612 50.897 6.6072 108.35 29.151 163.57-77.475 24.463-77.737 80.713-84.217 134.41-54.813 20.157-104.89 48.557-142.51 98.798-60.735-18.168-116.68 1.6069-173.31 16.2-47.598-46.437-105.17-68.016-170.05-71.262-12.316-63.816-38.435-113.8-80.97-147.38 25.514-56.046 15.595-108.55-1.6209-160.33 45.434-39.552 67.899-86.774 74.49-139.28 51.52-23.973 102.12-49.999 140.92-103.66 58.833 14.633 116.06 7.5099 174.89-8.1003z" style="stroke: rgb(55, 42, 42); stroke-width: 24.822; fill: rgb(85, 218, 136);"/>
            <path id="path4920" style="stroke: rgb(55, 42, 42); stroke-width: 24.822; fill: rgb(85, 218, 136);" d="m-1572.6 6406.4c21.426 31.443 60.22 44.892 88.754 55.858 21.325 34.088 28.232 59.594 54.86 77.789-12.694 31.342 4.0675 66.722 17.95 100.73-47.708 15.065-47.869 49.698-51.86 82.763-33.752 12.413-64.589 29.902-87.752 60.84-37.4-11.188-71.852 0.9895-106.72 9.9761-29.309-28.595-64.765-41.883-104.71-43.882-7.5856-39.298-23.668-70.075-49.86-90.754 15.711-34.512 9.6032-66.844-0.9981-98.73 27.978-24.354 41.811-53.434 45.87-85.766 31.725-14.762 62.885-30.79 86.775-63.834 36.229 9.0067 71.468 4.6245 107.7-4.9881z"/>
            <path id="path4922" d="m-1587.8 6481.3c13.15 19.298 36.96 27.553 54.473 34.283 13.088 20.922 17.327 36.576 33.672 47.743-7.7921 19.236 2.4952 40.951 11.015 61.823-29.281 9.2462-29.38 30.502-31.83 50.795-20.715 7.6199-39.641 18.353-53.858 37.342-22.954-6.8665-44.099 0.6073-65.502 6.1228-17.987-17.55-39.75-25.706-64.267-26.933-4.6571-24.12-14.526-43.008-30.602-55.7 9.6428-21.182 5.8937-41.025-0.6126-60.596 17.171-14.948 25.662-32.796 28.153-52.639 19.472-9.0603 38.596-18.9 53.259-39.179 22.236 5.5279 43.864 2.8383 66.099-3.0614z" style="stroke: rgb(55, 42, 42); stroke-width: 24.822; fill: rgb(85, 218, 136);"/>
            <path id="path4924" style="stroke: rgb(55, 42, 42); stroke-width: 24.822; fill: rgb(85, 218, 136);" d="m-1598 6531.3c7.6332 11.202 21.454 15.993 31.619 19.9 7.5972 12.144 10.058 21.23 19.546 27.712-4.5242 11.166 1.4471 23.77 6.3926 35.885-16.996 5.367-17.054 17.705-18.476 29.483-12.024 4.4242-23.009 10.654-31.261 21.676-13.324-3.9856-25.597 0.3525-38.022 3.554-10.439-10.187-23.072-14.921-37.303-15.633-2.7048-14-8.4317-24.964-17.763-32.331 5.5971-12.295 3.4207-23.813-0.3556-35.173 9.9672-8.6764 14.895-19.036 16.341-30.554 11.302-5.259 22.403-10.971 30.914-22.741 12.907 3.2086 25.461 1.6475 38.367-1.777z"/>
            <path id="path4926" d="m-1560 6556.4 1272-1336" style="stroke: rgb(55, 42, 42); stroke-width: 24.822; fill: rgb(85, 218, 136);"/>
            <path id="path4928" style="stroke: rgb(55, 42, 42); stroke-width: 24.822; fill: rgb(85, 218, 136);" d="m-1560 6556.4 1272-1336"/>
            <path id="path4930" d="m-1616 6532.4 368-1728" style="stroke: rgb(55, 42, 42); stroke-width: 24.822; fill: rgb(85, 218, 136);"/>
            <path id="path4932" d="m-1664 6540.4-584-1776" style="stroke: rgb(55, 42, 42); stroke-width: 24.822; fill: rgb(85, 218, 136);"/>
            <path id="path4934" d="m-1719.8 6572.6-1456.4-1272.5" style="stroke: rgb(55, 42, 42); stroke-width: 24.822; fill: rgb(85, 218, 136);"/>
            <path id="path4936" d="m-1711.8 6628.6-1888.4-416.5" style="stroke: rgb(55, 42, 42); stroke-width: 24.822; fill: rgb(85, 218, 136);"/>
            <path id="path4938" d="m-1720 6684.4-1896 504" style="stroke: rgb(55, 42, 42); stroke-width: 24.822; fill: rgb(85, 218, 136);"/>
            <path id="path4940" d="m-1680.2 6700.5-1367.7 1327.7" style="stroke: rgb(55, 42, 42); stroke-width: 24.822; fill: rgb(85, 218, 136);"/>
            <path id="path4942" d="m-1640 6668.4-360 1704" style="stroke: rgb(55, 42, 42); stroke-width: 24.822; fill: rgb(85, 218, 136);"/>
            <path id="path4944" d="m-1592 6644.4 576 1728" style="stroke: rgb(55, 42, 42); stroke-width: 24.822; fill: rgb(85, 218, 136);"/>
            <path id="path4946" d="m-1536 6628.4 1448 1264" style="stroke: rgb(55, 42, 42); stroke-width: 24.822; fill: rgb(85, 218, 136);"/>
            <path id="path4948" d="m336 7012.4-1832-424 1744-608" style="stroke: rgb(55, 42, 42); stroke-width: 24.822; fill: rgb(85, 218, 136);"/>
            <path id="path4950" style="fill-opacity: 0.91124; stroke: rgb(55, 42, 42); stroke-width: 24.822; fill: rgb(85, 218, 136);" d="m-3632 5080.4c0 24.3-19.7 44-44 44s-44-19.7-44-44 19.7-44 44-44 44 19.7 44 44z" transform="translate(2064,1520)"/>
          </g>
        </g>
      </g>
    </pattern>
    <pattern id="pattern-0-3" patternTransform="matrix(1, 0, 0, 1, -62.549988, 272.889954)" xlink:href="#pattern-1"/>
    <pattern id="pattern-0-4" patternTransform="matrix(1, 0, 0, 1, -232.393005, -96.121979)" xlink:href="#pattern-1"/>
    <pattern id="pattern-0-5" patternTransform="matrix(1, 0, 0, 1, -416.587494, -98.101181)" xlink:href="#pattern-1"/>
    <pattern id="pattern-0-6" patternTransform="matrix(1, 0, 0, 1, -586.059998, -97.597)" xlink:href="#pattern-1"/>
    <pattern id="pattern-0-7" patternTransform="matrix(1, 0, 0, 1, -586.290161, 4.935005)" xlink:href="#pattern-1"/>
    <pattern id="pattern-0-8" patternTransform="matrix(1, 0, 0, 1, -585.280212, 177.166992)" xlink:href="#pattern-1"/>
    <pattern id="pattern-0-9" patternTransform="matrix(1, 0, 0, 1, -586.799988, 282.727966)" xlink:href="#pattern-1"/>
    <pattern id="pattern-0-10" patternTransform="matrix(1, 0, 0, 1, -584.771057, 458.347992)" xlink:href="#pattern-1"/>
    <pattern id="pattern-0-11" patternTransform="matrix(1, 0, 0, 1, -398.405029, 460.007965)" xlink:href="#pattern-1"/>
    <pattern id="pattern-0-12" patternTransform="matrix(1, 0, 0, 1, -191.829987, 460.513)" xlink:href="#pattern-1"/>
    <pattern id="pattern-0-13" patternTransform="matrix(1, 0, 0, 1, -1.920013, 457.988037)" xlink:href="#pattern-1"/>
    <pattern id="pattern-0-14" patternTransform="matrix(1, 0, 0, 1, 185.220001, 407.987976)" xlink:href="#pattern-1"/>
    <pattern id="pattern-0-15" patternTransform="matrix(1, 0, 0, 1, 185.170013, 71.047989)" xlink:href="#pattern-1"/>
    <pattern id="pattern-0-16" patternTransform="matrix(1, 0, 0, 1, 184.759979, -99.743988)" xlink:href="#pattern-1"/>
    <pattern id="pattern-0-17" patternTransform="matrix(1, 0, 0, 1, -22.857002, 296.649994)" xlink:href="#pattern-1"/>
    <pattern id="pattern-0-18" patternTransform="matrix(1, 0, 0, 1, -62.550049, 272.899994)" xlink:href="#pattern-1"/>
    <pattern id="pattern-0-19" patternTransform="matrix(1, 0, 0, 1, 138.999939, 184)" xlink:href="#pattern-1"/>
    <pattern id="pattern-0-20" patternTransform="matrix(1, 0, 0, 1, 214.999954, 237.054138)" xlink:href="#pattern-1"/>
    <filter id="filter4490">
      <feGaussianBlur id="feGaussianBlur4492" stdDeviation="99.401688"/>
    </filter>
    <pattern id="pattern-0-1" patternTransform="matrix(1, 0, 0, 1, -62.550049, 272.899994)" xlink:href="#pattern-0"/>
    <pattern id="pattern-0-21" patternTransform="matrix(1, 0, 0, 1, -62.549988, 272.889954)" xlink:href="#pattern-0"/>
    <pattern id="pattern-0-22" patternTransform="matrix(1, 0, 0, 1, -232.393005, -96.121979)" xlink:href="#pattern-0"/>
    <pattern id="pattern-0-23" patternTransform="matrix(1, 0, 0, 1, -416.587494, -98.101181)" xlink:href="#pattern-0"/>
    <pattern id="pattern-0-24" patternTransform="matrix(1, 0, 0, 1, -586.059998, -97.597)" xlink:href="#pattern-0"/>
    <pattern id="pattern-0-25" patternTransform="matrix(1, 0, 0, 1, -586.290161, 4.935005)" xlink:href="#pattern-0"/>
    <pattern id="pattern-0-26" patternTransform="matrix(1, 0, 0, 1, -585.280212, 177.166992)" xlink:href="#pattern-0"/>
    <pattern id="pattern-0-27" patternTransform="matrix(1, 0, 0, 1, -586.799988, 282.727966)" xlink:href="#pattern-0"/>
    <pattern id="pattern-0-28" patternTransform="matrix(1, 0, 0, 1, -584.771057, 458.347992)" xlink:href="#pattern-0"/>
    <pattern id="pattern-0-29" patternTransform="matrix(1, 0, 0, 1, -398.405029, 460.007965)" xlink:href="#pattern-0"/>
    <pattern id="pattern-0-30" patternTransform="matrix(1, 0, 0, 1, -191.829987, 460.513)" xlink:href="#pattern-0"/>
    <pattern id="pattern-0-31" patternTransform="matrix(1, 0, 0, 1, -1.920013, 457.988037)" xlink:href="#pattern-0"/>
    <pattern id="pattern-0-32" patternTransform="matrix(1, 0, 0, 1, 185.220001, 407.987976)" xlink:href="#pattern-0"/>
    <pattern id="pattern-0-33" patternTransform="matrix(1, 0, 0, 1, 185.170013, 71.047989)" xlink:href="#pattern-0"/>
    <pattern id="pattern-0-34" patternTransform="matrix(1, 0, 0, 1, 184.759979, -99.743988)" xlink:href="#pattern-0"/>
    <pattern id="pattern-0-35" patternTransform="matrix(1, 0, 0, 1, -22.857002, 296.649994)" xlink:href="#pattern-0"/>
    <pattern id="pattern-0-36" patternTransform="matrix(1, 0, 0, 1, -62.550049, 272.899994)" xlink:href="#pattern-0"/>
    <pattern id="pattern-0-37" patternTransform="matrix(1, 0, 0, 1, 138.999939, 184)" xlink:href="#pattern-0"/>
    <pattern id="pattern-0-38" patternTransform="matrix(1, 0, 0, 1, 214.999954, 237.054138)" xlink:href="#pattern-0"/>
    <pattern id="pattern-0-87" patternTransform="matrix(1.010865, 0, 0.146218, 0.989253, -11.858295, -11.837414)" xlink:href="#pattern-0"/>
    <pattern id="pattern-0-88" patternTransform="matrix(0.932242, -0.000001, 0, 1.07265, 599.677429, 202.27359)" xlink:href="#pattern-0"/>
    <pattern id="pattern-0-41" patternTransform="matrix(1, 0, 0, 1, -1622, 6590.399902)" xlink:href="#pattern-0"/>
    <pattern id="pattern-0-42" patternTransform="matrix(1, 0, 0, 1, -1621.982666, 6590.316406)" xlink:href="#pattern-0"/>
    <pattern id="pattern-0-43" patternTransform="matrix(1, 0, 0, 1, -1622.043945, 6590.333984)" xlink:href="#pattern-0"/>
    <pattern id="pattern-0-44" patternTransform="matrix(1, 0, 0, 1, -1622.010376, 6590.364258)" xlink:href="#pattern-0"/>
    <pattern id="pattern-0-45" patternTransform="matrix(1, 0, 0, 1, -1621.991333, 6590.418945)" xlink:href="#pattern-0"/>
    <pattern id="pattern-0-46" patternTransform="matrix(1, 0, 0, 1, -1621.943115, 6590.400879)" xlink:href="#pattern-0"/>
    <pattern id="pattern-0-47" patternTransform="matrix(1, 0, 0, 1, -1621.973022, 6590.401367)" xlink:href="#pattern-0"/>
    <pattern id="pattern-0-48" patternTransform="matrix(1, 0, 0, 1, -1621.985962, 6590.37793)" xlink:href="#pattern-0"/>
    <pattern id="pattern-0-49" patternTransform="matrix(1, 0, 0, 1, -1621.97583, 6590.354004)" xlink:href="#pattern-0"/>
    <pattern id="pattern-0-50" patternTransform="matrix(1, 0, 0, 1, -1622.032715, 6590.404297)" xlink:href="#pattern-0"/>
    <pattern id="pattern-0-51" patternTransform="matrix(1, 0, 0, 1, -934, 5878.399902)" xlink:href="#pattern-0"/>
    <pattern id="pattern-0-52" patternTransform="matrix(1, 0, 0, 1, -934, 5878.399902)" xlink:href="#pattern-0"/>
    <pattern id="pattern-0-53" patternTransform="matrix(1, 0, 0, 1, -1442, 5658.399902)" xlink:href="#pattern-0"/>
    <pattern id="pattern-0-54" patternTransform="matrix(1, 0, 0, 1, -1966, 5642.399902)" xlink:href="#pattern-0"/>
    <pattern id="pattern-0-55" patternTransform="matrix(1, 0, 0, 1, -2458, 5926.350098)" xlink:href="#pattern-0"/>
    <pattern id="pattern-0-56" patternTransform="matrix(1, 0, 0, 1, -2666, 6410.350098)" xlink:href="#pattern-0"/>
    <pattern id="pattern-0-57" patternTransform="matrix(1, 0, 0, 1, -2678, 6926.399902)" xlink:href="#pattern-0"/>
    <pattern id="pattern-0-58" patternTransform="matrix(1, 0, 0, 1, -2374.049805, 7354.350098)" xlink:href="#pattern-0"/>
    <pattern id="pattern-0-59" patternTransform="matrix(1, 0, 0, 1, -1830, 7510.400391)" xlink:href="#pattern-0"/>
    <pattern id="pattern-0-60" patternTransform="matrix(1, 0, 0, 1, -1314, 7498.400391)" xlink:href="#pattern-0"/>
    <pattern id="pattern-0-61" patternTransform="matrix(1, 0, 0, 1, -822, 7250.399902)" xlink:href="#pattern-0"/>
    <pattern id="pattern-0-62" patternTransform="matrix(1, 0, 0, 1, -590, 6486.399902)" xlink:href="#pattern-0"/>
    <pattern id="pattern-0-63" patternTransform="matrix(1, 0, 0, 1, -3686, 5070.399902)" xlink:href="#pattern-0"/>
    <pattern id="pattern-0-64" patternTransform="matrix(1, 0, 0, 1, -1622, 6590.399902)" xlink:href="#pattern-0"/>
    <pattern id="pattern-0-65" patternTransform="matrix(1, 0, 0, 1, -1621.982666, 6590.316406)" xlink:href="#pattern-0"/>
    <pattern id="pattern-0-66" patternTransform="matrix(1, 0, 0, 1, -1622.043945, 6590.333984)" xlink:href="#pattern-0"/>
    <pattern id="pattern-0-67" patternTransform="matrix(1, 0, 0, 1, -1622.010376, 6590.364258)" xlink:href="#pattern-0"/>
    <pattern id="pattern-0-68" patternTransform="matrix(1, 0, 0, 1, -1621.991333, 6590.418945)" xlink:href="#pattern-0"/>
    <pattern id="pattern-0-69" patternTransform="matrix(1, 0, 0, 1, -1621.943115, 6590.400879)" xlink:href="#pattern-0"/>
    <pattern id="pattern-0-70" patternTransform="matrix(1, 0, 0, 1, -1621.973022, 6590.401367)" xlink:href="#pattern-0"/>
    <pattern id="pattern-0-71" patternTransform="matrix(1, 0, 0, 1, -1621.985962, 6590.37793)" xlink:href="#pattern-0"/>
    <pattern id="pattern-0-72" patternTransform="matrix(1, 0, 0, 1, -1621.97583, 6590.354004)" xlink:href="#pattern-0"/>
    <pattern id="pattern-0-73" patternTransform="matrix(1, 0, 0, 1, -1622.032715, 6590.404297)" xlink:href="#pattern-0"/>
    <pattern id="pattern-0-74" patternTransform="matrix(1, 0, 0, 1, -934, 5878.399902)" xlink:href="#pattern-0"/>
    <pattern id="pattern-0-75" patternTransform="matrix(1, 0, 0, 1, -934, 5878.399902)" xlink:href="#pattern-0"/>
    <pattern id="pattern-0-76" patternTransform="matrix(1, 0, 0, 1, -1442, 5658.399902)" xlink:href="#pattern-0"/>
    <pattern id="pattern-0-77" patternTransform="matrix(1, 0, 0, 1, -1966, 5642.399902)" xlink:href="#pattern-0"/>
    <pattern id="pattern-0-78" patternTransform="matrix(1, 0, 0, 1, -2458, 5926.350098)" xlink:href="#pattern-0"/>
    <pattern id="pattern-0-79" patternTransform="matrix(1, 0, 0, 1, -2666, 6410.350098)" xlink:href="#pattern-0"/>
    <pattern id="pattern-0-80" patternTransform="matrix(1, 0, 0, 1, -2678, 6926.399902)" xlink:href="#pattern-0"/>
    <pattern id="pattern-0-81" patternTransform="matrix(1, 0, 0, 1, -2374.049805, 7354.350098)" xlink:href="#pattern-0"/>
    <pattern id="pattern-0-82" patternTransform="matrix(1, 0, 0, 1, -1830, 7510.400391)" xlink:href="#pattern-0"/>
    <pattern id="pattern-0-83" patternTransform="matrix(1, 0, 0, 1, -1314, 7498.400391)" xlink:href="#pattern-0"/>
    <pattern id="pattern-0-84" patternTransform="matrix(1, 0, 0, 1, -822, 7250.399902)" xlink:href="#pattern-0"/>
    <pattern id="pattern-0-85" patternTransform="matrix(1, 0, 0, 1, -590, 6486.399902)" xlink:href="#pattern-0"/>
    <pattern id="pattern-0-86" patternTransform="matrix(1, 0, 0, 1, -3686, 5070.399902)" xlink:href="#pattern-0"/>
    <linearGradient id="gradient-0" gradientUnits="userSpaceOnUse" x1="-1612.044" y1="5521.7" x2="-1612.044" y2="7678.967">
      <stop offset="0" style="stop-color: rgba(195, 46, 46, 1)"/>
      <stop offset="1" style="stop-color: rgba(113, 27, 27, 1)"/>
    </linearGradient>
  </defs>
  <polygon id="e2_polygon" style="stroke-width: 0px; stroke: none; fill: url(#pattern-0-0);" points="238.386 653.06 204.02 670.242 199.896 735.536 212.955 734.849 215.017 686.737 208.832 792.583 278.937 793.957 274.126 684.676 272.751 734.161 281.686 736.223 291.308 736.224 288.473 671.617 259.005 654.434" class="shirt" transform=""/>
  <rect id="svgEditorBackground" x="202.71499633789062" y="584.4310302734375" width="86.59329986572266" height="115.80899810791016" style="fill: none; stroke: none;" class="shirt"/>
</svg>