<svg class="shirtOverlay" width="86" height="380" viewBox="202.715 584.407 86.593 380.048" xmlns="http://www.w3.org/2000/svg"><defs id="svgEditorDefs"><style id="style2989"></style><filter id="filter4334" height="1.626" width="1.081" color-interpolation-filters="sRGB" y="-.313" x="-.041"><feGaussianBlur id="feGaussianBlur4336" stdDeviation="9.97"/></filter><linearGradient id="linearGradient4450" y2="888.02" gradientUnits="userSpaceOnUse" x2="670.03" gradientTransform="translate(0 73.469)" y1="314.6" x1="756.42"><stop id="stop4538" offset="0" stop-color="#ffe627"/><stop id="stop4542" offset=".45" stop-color="#ffc200"/><stop id="stop4578" offset=".725" stop-color="#f4ac00"/><stop id="stop4540" offset="1" stop-color="#d78b00"/></linearGradient><linearGradient id="linearGradient4463" y2="839.03" gradientUnits="userSpaceOnUse" x2="288.56" gradientTransform="translate(0 73.469)" y1="267.55" x1="301.8"><stop id="stop4568" offset="0" stop-color="#ffdc10"/><stop id="stop4570" offset=".395" stop-color="#f4b908"/><stop id="stop4572" offset=".75" stop-color="#eea704"/><stop id="stop4574" offset="1" stop-color="#c68000"/></linearGradient><linearGradient id="linearGradient4473" y2="781.62" gradientUnits="userSpaceOnUse" x2="148.84" gradientTransform="translate(0 73.469)" y1="231.55" x1="181.75"><stop id="stop4558" offset="0" stop-color="#ffdc10"/><stop id="stop4560" offset=".362" stop-color="#f4b908"/><stop id="stop4562" offset=".75" stop-color="#eea704"/><stop id="stop4576" offset="1" stop-color="#da9302"/></linearGradient><linearGradient id="linearGradient4475" y2="839.46" gradientUnits="userSpaceOnUse" x2="825.91" gradientTransform="translate(0 21.107)" y1="400.43" x1="891.92"><stop id="stop4582" offset="0" stop-color="#ffe627"/><stop id="stop4584" offset=".481" stop-color="#ffc200"/><stop id="stop4586" offset=".725" stop-color="#f4ac00"/><stop id="stop4588" offset="1" stop-color="#d78b00"/></linearGradient><filter id="filter4510" color-interpolation-filters="sRGB"><feGaussianBlur id="feGaussianBlur4512" stdDeviation="5.034"/></filter><filter id="filter4518" color-interpolation-filters="sRGB"><feGaussianBlur id="feGaussianBlur4520" stdDeviation="1.188"/></filter><filter id="filter4530" color-interpolation-filters="sRGB"><feGaussianBlur id="feGaussianBlur4532" stdDeviation="2.437"/></filter><linearGradient id="linearGradient4534" y2="864.08" gradientUnits="userSpaceOnUse" x2="463.35" gradientTransform="translate(0 73.469)" y1="337.86" x1="595.12"><stop id="stop4538" offset="0" stop-color="#ffe627"/><stop id="stop4542" offset=".45" stop-color="#ffc200"/><stop id="stop4578" offset=".725" stop-color="#f4ac00"/><stop id="stop4540" offset="1" stop-color="#d78b00"/></linearGradient><linearGradient id="linearGradient4603" y2="87.518" gradientUnits="userSpaceOnUse" x2="479.89" y1="250.69" x1="438.74"><stop id="stop4312" offset="0" stop-color="#398c24"/><stop id="stop4314" offset="1" stop-color="#63c44b"/></linearGradient><linearGradient id="linearGradient4605" y2="135.3" gradientUnits="userSpaceOnUse" x2="519.98" gradientTransform="translate(0 21.107)" y1="150.79" x1="450.79"><stop id="stop4312" offset="0" stop-color="#398c24"/><stop id="stop4314" offset="1" stop-color="#63c44b"/></linearGradient><linearGradient id="linearGradient4618" y2="39.797" gradientUnits="userSpaceOnUse" x2="540.25" y1="39.797" x1="490.22"><stop id="stop4622" offset="0" stop-color="#cfe96d"/><stop id="stop4624" offset="1" stop-color="#dfff57"/></linearGradient><linearGradient id="linearGradient4634" y2="286.09" gradientUnits="userSpaceOnUse" x2="704.56" y1="824.17" x1="622.63"><stop id="stop4630" offset="0" stop-color="#b58b00"/><stop id="stop4632" offset="1" stop-color="#e4af00"/></linearGradient><radialGradient id="radialGradient3899" gradientUnits="userSpaceOnUse" cy="464.81" cx="508.06" gradientTransform="matrix(-.00038 1.3165 -.83628 -.00024 896.96 -184)" r="257.64"><stop id="stop4715" offset="0" stop-color="#f7ff70"/><stop id="stop4717" offset="1" stop-color="#ffe900"/></radialGradient></defs><path id="svgEditorBackground" class="shirtOverlay" fill="none" d="M202.715 584.431h86.593V700.24h-86.593z"/><g transform="matrix(.0588 0 0 .06032 213.586 667.046)"><g id="layer1" transform="translate(0 -52.362)"><path id="path4626" d="M344.85 266.94s-33.447-13.359-74.226-2.669c-87.59 22.961-173.42 103.34-208.48 197.45-65.615 176.15 2.265 374.97 109.92 427.32 37.263 13.033 61.809-5.012 61.809-5.012s11.052 15.278 30.069 30.07c29.845 23.737 79.709 29.82 110.25 21.716 29.065 25.723 70.446 33.6 120.28 35.081 45.521 1.565 84.692-9.233 105.24-30.069 0 0 30.032 12.776 51.786 11.694 54.68-2.72 95.191-30.313 111.78-58.94 0 0 27.689 12.59 62.033-4.957 118.56-60.56 206.89-260.93 102.24-478.76-43.08-89.69-137.46-136.73-201.01-148.65-46.692-8.758-90.643-18.958-173.18 2.169-71.812-11.732-129.22-13.161-208.5 3.565z" fill-opacity=".503" stroke="url(#linearGradient4634)" stroke-width="9.2" fill="#ffac00"/><path id="path4320" d="M800.89 853.53a293.66 38.241 0 1 1-587.32 0 293.66 38.241 0 1 1 587.32 0z" transform="matrix(1.1212 0 0 2.8819 -61.482 -1601.1)" opacity=".619" filter="url(#filter4334)" fill-opacity=".581"/><path id="path3528" d="M344.85 266.94s-33.447-13.359-74.226-2.669c-87.59 22.961-173.42 103.34-208.48 197.45-65.615 176.15 2.265 374.97 109.92 427.32 37.263 13.033 61.809-5.012 61.809-5.012s11.052 15.278 30.069 30.07c29.845 23.737 79.709 29.82 110.25 21.716 29.065 25.723 70.446 33.6 120.28 35.081 45.521 1.565 84.692-9.233 105.24-30.069 0 0 30.032 12.776 51.786 11.694 54.68-2.72 95.191-30.313 111.78-58.94 0 0 27.689 12.59 62.033-4.957 118.56-60.56 206.89-260.93 102.24-478.76-43.08-89.69-137.46-136.73-201.01-148.65-46.692-8.758-90.643-18.958-173.18 2.169-71.812-11.732-129.22-13.161-208.5 3.565z" fill="url(#linearGradient4475)"/><path id="path4467" d="M458.12 254.47c-35.212-.185-71.164 3.583-113.28 12.469 0 0-33.44-13.346-74.219-2.656-87.59 22.96-173.41 103.32-208.47 197.44-65.615 176.15 2.251 374.97 109.91 427.31 37.263 13.033 61.812-5 61.812-5s11.045 15.27 30.062 30.062c29.845 23.738 79.705 29.823 110.25 21.719 26.319 23.292 62.762 31.94 106.41 34.469v-715.16a484.908 484.908 0 0 0-22.469-.656z" fill="url(#linearGradient4473)"/><path id="path4439" d="M555.62 270.41c-10.253-.046-20.635.463-31.156 1.469l-15.812 15.78s78.948 129.8 101.75 282.41c17.314 115.87-12.858 301.25-28.406 383.91 6.848-3.793 12.82-8.158 17.719-13.124 0 0 30.027 12.77 51.781 11.688 54.68-2.721 95.188-30.311 111.78-58.938 0 0 .216.079.25.094 37.091-99.483 81.063-231.78 74.344-321.81-24.9-229.17-161.24-300.94-282.24-301.48z" filter="url(#filter4518)" fill="url(#linearGradient4450)"/><path id="path4452" d="M455.25 263.72c-13.088.193-43.062 15.156-43.062 15.156s-264.86-17.526-259.59 278.91c2.857 160.92 43.981 264.96 80.969 326.47l.313-.219s11.045 15.271 30.062 30.062c29.845 23.738 79.705 29.823 110.25 21.72 11.643 10.303 25.279 17.75 40.625 23.061-12.585-30.248-28.41-86.012-39.438-187.09-21.048-192.94 26.3-431.51 71.906-482.38 17.814-19.87 16.358-25.81 7.968-25.688z" filter="url(#filter4530)" fill="url(#linearGradient4463)"/><path id="path4426" d="M481.06 256.59c-13.188.168-28.688 6.888-48.156 23.188-62.051 51.95-115.55 114.85-114 340.56 1.215 177.34 37.185 274.91 62.312 321.16 28.548 21.217 67.302 28.04 113.25 29.406 45.521 1.565 84.699-9.227 105.25-30.062l.375.156c17.908-53.7 49.733-178.33 39.188-363.94-11.7-206.16-98.12-277.07-119.77-300.16-11.5-12.27-23.49-20.51-38.44-20.32z" filter="url(#filter4510)" fill="url(#linearGradient4534)"/><path id="path3532" d="M406.94 306.95s33.327-10.524 57.883-12.278c24.557-1.754 54.375 7.016 66.653 8.77s19.294 5.262 19.294 5.262-3.508-17.54 3.508-24.557c7.016-7.016 12.278-14.032 12.278-14.032s-80.686-17.54-63.145-92.964c8.75-37.625 36.835-73.67 36.835-73.67s-.984-15.596-10.524-17.54c-8.764-1.786-26.31-5.262-26.31-5.262l-12.279 7.016s-43.322 63.742-54.375 124.54c-7.016 38.59-24.557 54.375-24.557 54.375l-47.359 14.032s28.065 3.508 35.081 10.524c7.016 7.017 7.016 15.786 7.016 15.786z" fill="url(#linearGradient4605)"/><path id="path4590" d="M503.03 37.344s-13.242 10.972-19.312 24.125c-9.643 20.892-31.317 53.832-34.531 100.44-3.058 44.346-27.651 76.851-42.25 92.469.002.076 0 .219 0 .219s33.318-10.527 57.875-12.281 54.378 7.027 66.656 8.78c9.932 1.42 16.195 3.884 18.312 4.813a1180.464 1180.464 0 0 1-29.094-28.125c-21.696-21.696-26.647-58.11-27.312-82.75-.804-29.73 30.531-78.737 36.156-85.969 5.625-7.231 4.031-17.688 4.031-17.688l-30.53-4.03z" transform="translate(0 52.362)" fill="url(#linearGradient4603)"/><path id="path4607" d="M503.41 28.312l-12.29 7.032s-.607.924-.906 1.375c.218.499.509.872.906 1.031 2.855 1.142 2.413 5.268 5.125 7.438 2.855 2.284 10.289-1.163 16 3.406 5.71 4.568 21.125 1.156 21.125 1.156l6.75 1.531.125-.156s-.991-15.587-10.531-17.531c-8.764-1.786-26.312-5.281-26.312-5.281z" transform="translate(0 52.362)" fill="url(#linearGradient4618)"/></g><g id="layer2"><path id="path4721" d="M503.41 28.312l-12.29 7.032s-43.322 63.737-54.375 124.53c-3.777 20.771-10.595 34.879-16.094 43.531-23.662 1.769-48.427 5.41-75.812 11.188 0 0-33.44-13.377-74.219-2.688-87.59 22.961-173.41 103.35-208.47 197.47-65.615 176.15 2.251 374.97 109.91 427.31 37.263 13.034 61.812-5.03 61.812-5.03s11.045 15.301 30.062 30.093c29.845 23.738 79.705 29.823 110.25 21.72 29.065 25.722 70.45 33.58 120.28 35.061 45.521 1.565 84.699-9.227 105.25-30.062 0 0 30.027 12.77 51.781 11.688 54.68-2.72 95.188-30.31 111.78-58.938 0 0 27.687 12.577 62.031-4.968 118.56-60.56 206.9-260.91 102.26-478.74-43.08-89.69-137.48-136.74-201.03-148.66-46.69-8.75-90.64-18.97-173.19 2.16-2.905-.475-5.734-.904-8.594-1.344-22.485-11.151-52.776-35.718-41.344-84.875 8.76-37.623 36.85-73.655 36.85-73.655s-.991-15.587-10.53-17.531c-8.764-1.787-26.313-5.281-26.313-5.281z" opacity=".412" fill="#581100"/></g><g id="layer3"><path id="path3135" d="M501.63 465.38l-54.973 70.091 118.19-4.123zm75.982-36.502c-1.398-21.916-2.398-57.682 43.164-88.331 45.563-30.649 105.83-8.411 129.44 23.169s36.338 77.752 13.738 108.06c-22.6 30.306-60.934 41.893-60.934 41.893s43.565-44.366 11.812-83.765-64.652-16.362-77.011.211c-12.556 16.837-12.297 47.958-2.338 66.376-36.633-19.82-56.533-46.595-57.874-67.61zm-324.7 45.762c-12.662-14.897-32.411-39.89-16.205-86.013 16.205-46.123 71.054-62.328 104.71-52.356 33.657 9.972 67.314 36.15 67.314 69.807s-21.192 62.328-21.192 62.328 7.48-54.849-36.15-66.068c-43.63-11.219-54.849 22.731-54.849 41.137 0 18.698 16.748 40.771 33.657 48.616-36.693 5.351-65.145-3.166-77.287-17.452zm608.47 46.67s-174.51 61.087-357.75 58.594c-183.24-2.493-311.66-27.438-311.66-27.438s-3.727 92.266 38.656 143.38c36.309 43.784 105.53 99.454 161.47 120l-11.41-60.47 68.719 2.75 14.531 66.562c66.87-2.22 163.31-19.79 216.68-36.6 67.32-21.19 147.1-109.7 157.07-137.12 9.97-27.43 23.69-129.66 23.69-129.66z" fill="#ffd100"/><path id="path3119" d="M503.62 496.38l-30.969 38.188 70.156-2.438-39.188-35.75zm167.5-134.22c-23.992.219-51.218 8.067-65.281 29.531-23.685 36.15 12.438 82.25 12.438 82.25s-2.48-21.18 5-41.125 41.125-24.938 52.344-24.938c1.297 0 2.524.14 3.656.375 11.224.703 23.475 6.658 35.562 21.656 23.052 28.603 6.415 59.819-4.437 74.781 5.875-2.942 11.8-6.227 16.344-9.531 13.712-9.973 24.94-34.92 26.188-62.344 1.246-27.424-22.461-49.847-42.406-62.312-8.103-5.064-22.991-8.494-39.406-8.344zm-343.75 8.25c-1.076.006-2.171.055-3.281.094-71.054 2.493-67.3 59.816-62.312 72.28 4.986 12.467 22.434 27.418 32.406 31.157 4.892 1.834 11.288 2.486 16.53 2.656-8.306-9.786-14.187-22.048-14.187-33.125 0-11.655 4.526-29.545 18.906-38.25l-.063-1.063s18.701-11.236 46.125-6.25c27.424 4.987 29.906 51.125 29.906 51.125l5-14.969s-1.218-64.034-69.03-63.656zm446.91 197.84s-69.716 22.554-86.125 26.656c-16.409 4.102-137.42 9.244-168.19 8.219-30.76-1.02-100.5-10.27-141.52-14.37s-103.6-12.31-103.6-12.31l.406 17.875s3.17 46.138 28.625 89.094c23.795 40.154 60.083 73.344 80.312 90.5l-3.5-18.531.938.031-1.25-1.125 45.125-26.375s34.713-6.245 45.125-3.469 12.5 17.342 12.5 20.812c0 3.47 4.156 36.094 4.156 36.094s104.46-9.008 147.53-16.188c43.073-7.179 84.11-45.145 98.469-54.375s32.81-47.174 37.938-72.812c5.128-25.639 3.062-69.719 3.062-69.719z" fill="url(#radialGradient3899)"/></g></g></svg>