<?xml version="1.0" encoding="utf-8"?>
<svg width="86" height="380" viewBox="202.715 584.407 86.5933 380.048" preserveAspectRatio="xMidYMid meet" xmlns="http://www.w3.org/2000/svg" xmlns:bx="https://boxy-svg.com">
  <defs id="svgEditorDefs">
    <path id="svgEditorClosePathDefs" fill="moccasin" style="stroke-width: 0px; stroke: none; fill-opacity: 1;" class="shirt"/>
    <style id="style2989" type="text/css">
    .str0 {stroke:black;stroke-width:0.0762001}
    .fil0 {fill:black}
  </style>
  </defs>
  <rect id="svgEditorBackground" x="202.71499633789062" y="584.4310302734375" width="86.59329986572266" height="115.80899810791016" style="fill: none; stroke: none;" class="shirt"/>
  <g transform="matrix(0.456607, 0, 0, 0.456607, 218.058228, 673.997498)" style="stroke-width: 1.20833; vector-effect: non-scaling-stroke;">
    <g id="Capa_x0020_2" transform="matrix(.97564 0 0 .97564 1.1289 1.1289)">
      <path id="path2993" style="stroke-width: 0.0762; stroke: rgb(39, 39, 39); fill: rgb(255, 255, 255);" class="fil0 str0" d="m57.931 0.0381c31.886 0 57.893 26.007 57.893 57.893s-26.007 57.893-57.893 57.893-57.893-26.007-57.893-57.893 26.007-57.893 57.893-57.893zm0 7.7191c27.635 0 50.174 22.539 50.174 50.174s-22.539 50.174-50.174 50.174-50.174-22.539-50.174-50.174 22.539-50.174 50.174-50.174z"/>
      <path id="path2995" style="stroke:#000000;stroke-width:0.0762;fill:#000000" class="fil0 str0" d="m48.227 24.311c2.1676 0 3.9409 1.7734 3.9409 3.941v29.758c0 0.5744 0.4087 1.0738 0.9896 1.0738 0.5801 0 0.9889-0.5009 0.9889-1.0756v-35.426c0-2.1676 1.7734-3.941 3.9411-3.941 2.1676 0 3.941 1.7734 3.941 3.941v35.41c0 0.5855 0.3574 1.092 0.9929 1.092 0.5949 0 0.9856-0.521 0.9856-1.1088v-32.884c0-2.1677 1.7733-3.9411 3.941-3.9411 2.1676 0 3.941 1.7734 3.941 3.9411v32.93c0 0.5702 0.4152 1.0632 0.9903 1.0632 0.5838 0 0.9883-0.5058 0.9883-1.0835v-23.927c0-1.9094 1.4512-3.4718 3.2253-3.4718 1.774 0 3.2252 1.5624 3.2252 3.4718v24.027 13.667 8.6771c0 5.9603-4.8669 10.837-10.815 10.837h-25.29c-4.2299 0-8.3981-2.0151-10.763-7.4124l-12.968-29.596s0.2582-0.168 1.2694-0.6972c3.5534-1.8594 7.5207-1.3901 9.386 2.1416l7.7019 14.583c1.9861 3.7912 5.4303 3.1105 5.4303-1.6887v-10.512h0.0165v-29.848c0-2.1676 1.7734-3.941 3.9411-3.941z"/>
      <path transform="matrix(-0.408366, 0.912818, -0.912818, -0.408366, 683.00368, -274.438694)" d="M 560 433 m -70.624 0 a 70.624 70.624 0 1 0 141.248 0 a 70.624 70.624 0 1 0 -141.248 0 Z M 560 433 m -58.39 0 a 58.39 58.39 0 0 1 116.78 0 a 58.39 58.39 0 0 1 -116.78 0 Z" bx:shape="ring 560 433 58.39 58.39 70.624 70.624 1@df50cca2"/>
    </g>
  </g>
</svg>