<?xml version="1.0" encoding="utf-8"?>
<svg width="86" height="380" viewBox="202.715 584.407 86.5933 380.048" preserveAspectRatio="xMidYMid meet" xmlns="http://www.w3.org/2000/svg">
  <defs id="svgEditorDefs">
    <path id="svgEditorClosePathDefs" fill="moccasin" style="stroke-width: 0px; stroke: none; fill-opacity: 1;" class="shirt"/>
    <style id="style2989" type="text/css">
    .str0 {stroke:black;stroke-width:0.0762001}
    .fil0 {fill:black}
  </style>
  </defs>
  <rect id="svgEditorBackground" x="202.71499633789062" y="584.4310302734375" width="86.59329986572266" height="115.80899810791016" style="fill: none; stroke: none;" class="shirt"/>
  <g transform="matrix(0.18585586547851562, 0, 0, 0.18585586547851562, 225.54013061523438, 675.8037779878359)">
    <g id="layer1" transform="translate(-211.03 -209.33)">
      <path id="path50123" d="m331.27 286.76c-0.0833 2.7154 0.67205 2.9208 2.1019 2.6494 1.3108-0.24852 3.0621-1.6012 2.4293-5.6782-0.34804-2.2367-0.91273-6.2529-1.8264-6.6577-1.275-0.29705-1.8357 5.0826-2.7048 9.6865zm3.8856-11.516c0.89655 2.8404 1.7083 4.3663 1.8602 9.0692 0.17157 5.3432-1.125 5.8908-3.7969 6.1983-2.5735 0.29607-2.8137-0.22597-2.6465 4.3006 0.29901 8.0367 0.56665 8.0743 14.538 0.87145 19.42-10.012 39.158-21.472 41.769-24.251 2.3332-2.4833 2.3376-2.5393 0.40195-4.6833-2.2318-2.4716-31.487-24.558-34.935-26.375-1.2465-0.65689-5.8934-1.8276-10.327-2.6014-4.4332-0.7739-9.5364-2.1708-11.342-3.1041-4.4248-2.2882-7.2767-7.2446-7.2816-12.654-0.003-4.0915 0.25979-4.5118 3.694-5.9477 2.0338-0.84978 5.8341-1.7788 8.4448-2.0645 4.6763-0.51165 4.8694-0.41175 12.936 6.6823 9.0668 7.974 20.202 15.375 42.48 28.235 14.786 8.5355 18.679 11.868 19.98 17.104 1.2911 5.1983-9.733 14.803-35.415 30.854-13.611 8.5069-19.604 13.762-22.488 19.719-3.1626 6.5337-2.3783 13.832 2.5744 23.955 3.2278 6.5968 3.6876 8.4064 3.268 12.859-0.70488 7.4782-4.9018 16.616-13.821 30.086-8.7487 13.215-12.38 22.254-12.419 30.916 0 5.3136 0.55636 6.8057 7.0443 18.1 9.9183 17.266 15.738 26.123 22.843 34.766 3.3798 4.1116 5.9778 7.6419 5.7733 7.8443-0.20588 0.20098-2.0529 1.7028-4.1072 3.3342l-3.7347 2.9651 7.1291 17.34c13.14 31.957 15.993 40.282 16.724 48.81 0.10785 1.2475-0.25489 2.1215-0.10293 3.2097 0.10293 0.76077 0.90144 1.7896 0.81811 2.419-0.47548 3.5854-1.4989 7.1014-2.4357 10.646-7.3297 27.743-21.034 55.343-11.566 85.631 4.2283 13.492-11.81 10.991-14.868 3.1587-2.0235-5.5792-3.8087-8.6074-4.6415-13.7-0.36763-2.2524-1.3549-5.264-2.1985-6.6929-1.4342-2.4284-1.3337-2.9293 1.5421-7.6772 5.6586-9.3423 10.795-41.91 9.6889-61.437-0.53773-9.5031-0.40195-10.9 1.1911-12.063 1.699-1.2421 1.7054-1.6818 0.11764-7.884-2.1421-8.3615-5.5875-14.299-19.518-33.635l-11.259-15.63-7.6772 0.52499c-4.2229 0.28921-14.251 0.049-22.286-0.57204-8.035-0.60342-14.795-0.91175-15.021-0.68479-0.22548 0.22548-0.90973 14.457-1.518 31.624-0.34313 9.6363-1.6088 22.562-2.049 31.816 2.2406 1.6952 1.4686 3.855 1.3627 5.8447-0.18627 3.5347-1.324 6.9688-1.4892 9.418-1.2554 18.631-4.843 48.336-5.9312 49.108-0.41666 0.29411-1.3401 4.6837-2.0524 9.7506-6.9395 13.267 12.026 39.942-10.987 36.662-4.4631-0.63606-4.8346-6.5557-5.6066-10.225-1.1951-11.218 1.9612-32.224 1.7881-46.751-0.32842-25.985-0.90243-48.512-1.2769-50.061-0.61905-2.5563-0.42155-2.8146 2.149-2.8146h2.8308l-0.60728-11.516c-0.33333-6.3336-1.175-21.727-1.8701-34.208l-1.2632-22.692-3.9116-1.5367-3.9121-1.5367v-12.188c0-6.7032 0.69606-17.146 1.547-23.207 4.6792-21.037 20.294-41.803 31.893-53.485 5.7223-7.7399 8.3164-20.559 5.9179-22.708-3.1567-2.8277-46.393-17.96-60.599-21.209-6.8968-1.5773-12.519-3.1276-12.495-3.4452 0.049-0.31764 3.9327-2.8385 8.6855-5.602 4.7522-2.7635 12.112-8.2228 16.354-12.132 7.4002-6.8187 16.953-18.104 16.822-19.872-0.049-0.46518-5.814-4.5305-12.844-9.0344-7.0296-4.504-16.56-11.298-21.178-15.097-3.8317-3.2963-8.2943-6.4694-10.368-10.203-2.0696-2.626-5.0224-6.9899-4.3479-11.622 1.1446-7.8605 11.215-16.44 12.175-17.168 1.8465-1.4015 13.722-8.1417 26.389-14.978 19.152-10.336 23.904-13.36 28.211-17.951 7.1939-7.6684 8.9041-8.15 17.982-5.0624 4.0665 1.3832 8.4649 2.5149 9.7737 2.5149 3.0719 0 3.2004 3.5915 0.32843 9.2192-2.6137 5.1231-3.868 5.725-13.815 6.6284-4.5042 0.40882-10.467 1.6067-13.25 2.6615-12.732 4.8245-30.657 18.659-42.806 33.038l-4.2013 4.9723 2.4906 1.9568c5.2229 4.1032 31.622 22.438 33.154 23.026 2.6009 0.99797 7.514-11.41 10.965-27.694 1.6789-7.9196 4.1371-16.803 5.4635-19.741 3.3788-7.4863 10.983-15.353 16.198-16.757 5.4719-1.4735 14.183-0.36323 20.885 2.6612 6.3546 2.8685 10.855 9.0831 12.501 17.265 0.92105 4.5762 1.7783 13.144 0.95684 20.968-0.049 0.39754 0.0637 1.0112 0.17646 1.4495z" style="fill: rgb(0, 0, 0); stroke: rgb(186, 218, 85); stroke-width: 10.761;"/>
    </g>
  </g>
</svg>