<?xml version="1.0" encoding="utf-8"?>
<svg class="glasses" width="86" height="380" viewBox="202.715 584.407 86.5933 380.048" preserveAspectRatio="xMidYMax" xmlns="http://www.w3.org/2000/svg">
  <defs id="svgEditorDefs">
    <path id="svgEditorClosePathDefs" class="clothes" fill="black" style="stroke-width: 0px; stroke: none;"/>
    <filter id="filter-3">
      <feColorMatrix id="feColorMatrix-2" result="result0" type="luminanceToAlpha" in="SourceGraphic"/>
      <feSpecularLighting id="feSpecularLighting-2" lighting-color="rgb(255,223,143)" specularConstant="1.2" surfaceScale="6" result="result1" specularExponent="3.2000000000000002">
        <feDistantLight id="feDistantLight-2" azimuth="220"/>
      </feSpecularLighting>
      <feFlood id="feFlood-3" in="SourceGraphic" flood-color="rgb(196,124,17)"/>
      <feBlend id="feBlend-2" result="result3" in="result1" blend="normal" mode="normal"/>
      <feComposite id="feComposite-4" operator="in" result="result2" in2="SourceGraphic" in="result3"/>
      <feFlood id="feFlood-4" in="SourceGraphic"/>
      <feComposite id="feComposite-5" operator="in" in2="SourceGraphic"/>
      <feGaussianBlur id="feGaussianBlur-3" stdDeviation="1.2"/>
      <feOffset id="feOffset-2" result="result4" dx="1.1000000000000001" dy="1.1000000000000001"/>
      <feComposite id="feComposite-6" in2="result4" in="result2"/>
    </filter>
    <filter id="filter-4" height="1.2162" width="1.2158" y="-.10810" x="-.10790">
      <feGaussianBlur id="feGaussianBlur-4" stdDeviation="5"/>
    </filter>
    <linearGradient id="linearGradient2827" y2="80.057" gradientUnits="userSpaceOnUse" y1="116" gradientTransform="scale(1.1179 .89451)" x2="6.1457" x1="43.924">
      <stop id="stop2823" style="stop-color:#d3b900" offset="0"/>
      <stop id="stop2825" style="stop-color:#fdffb8" offset="1"/>
    </linearGradient>
    <linearGradient id="linearGradient3593" y2="46.701" gradientUnits="userSpaceOnUse" y1="81.669" gradientTransform="scale(1.0149 .98529)" x2="64.276" x1="73.541">
      <stop id="stop2823" style="stop-color:#d3b900" offset="0"/>
      <stop id="stop2825" style="stop-color:#fdffb8" offset="1"/>
    </linearGradient>
    <linearGradient id="linearGradient3601" y2="14.364" gradientUnits="userSpaceOnUse" y1="58.78" gradientTransform="scale(.88284 1.1327)" x2="98.988" x1="112.68">
      <stop id="stop2823" style="stop-color:#d3b900" offset="0"/>
      <stop id="stop2825" style="stop-color:#fdffb8" offset="1"/>
    </linearGradient>
    <linearGradient id="gradient-1" y2="80.057" gradientUnits="userSpaceOnUse" y1="116" gradientTransform="scale(1.1179 .89451)" x2="6.1457" x1="43.924">
      <stop id="stop-1" style="stop-color:#d3b900" offset="0"/>
      <stop id="stop-2" style="stop-color:#fdffb8" offset="1"/>
    </linearGradient>
    <linearGradient id="gradient-2" y2="46.701" gradientUnits="userSpaceOnUse" y1="81.669" gradientTransform="scale(1.0149 .98529)" x2="64.276" x1="73.541">
      <stop id="stop-1" style="stop-color:#d3b900" offset="0"/>
      <stop id="stop-2" style="stop-color:#fdffb8" offset="1"/>
    </linearGradient>
    <linearGradient id="gradient-3" y2="14.364" gradientUnits="userSpaceOnUse" y1="58.78" gradientTransform="scale(.88284 1.1327)" x2="98.988" x1="112.68">
      <stop id="stop-1" style="stop-color:#d3b900" offset="0"/>
      <stop id="stop-2" style="stop-color:#fdffb8" offset="1"/>
    </linearGradient>
    <filter id="filter9179" width="1.0422" y="-.12254" x="-.021099" height="1.2451" color-interpolation-filters="sRGB">
      <feGaussianBlur id="feGaussianBlur9181" stdDeviation="0.28764894"/>
    </filter>
    <linearGradient id="linearGradient8948" y2="46.093" gradientUnits="userSpaceOnUse" x2="79.135" y1="43.499" x1="79.135">
      <stop id="stop8944" style="stop-color:#464646" offset="0"/>
      <stop id="stop8946" style="stop-color:#262626" offset="1"/>
    </linearGradient>
    <filter id="filter8754" color-interpolation-filters="sRGB">
      <feGaussianBlur id="feGaussianBlur8756" stdDeviation="0.028724089"/>
    </filter>
    <linearGradient id="linearGradient8954" y2="18.973" gradientUnits="userSpaceOnUse" x2="62.701" y1="18.22" x1="63.369">
      <stop id="stop8734" style="stop-color:#e5e5e5" offset="0"/>
      <stop id="stop8736" style="stop-color:#000000" offset="1"/>
    </linearGradient>
    <linearGradient id="linearGradient8956" y2="18.612" gradientUnits="userSpaceOnUse" x2="63.212" y1="17.869" x1="63.769">
      <stop id="stop8742" style="stop-color:#ffffff" offset="0"/>
      <stop id="stop8744" style="stop-color:#ffffff;stop-opacity:0" offset="1"/>
    </linearGradient>
    <linearGradient id="linearGradient8940" y2="19.626" gradientUnits="userSpaceOnUse" x2="72.802" gradientTransform="matrix(.91314 0 0 .89753 23.87 26.968)" y1="19.69" x1="65.654">
      <stop id="stop8651" style="stop-color:#ffffff" offset="0"/>
      <stop id="stop8653" style="stop-color:#b2b2b2" offset="1"/>
    </linearGradient>
    <linearGradient id="linearGradient8936" y2="19.335" gradientUnits="userSpaceOnUse" x2="66.622" gradientTransform="translate(17.89 24.958)" y1="19.335" x1="71.902">
      <stop id="stop8665" style="stop-color:#ffffff" offset="0"/>
      <stop id="stop8667" style="stop-color:#ffffff;stop-opacity:0" offset="1"/>
    </linearGradient>
    <filter id="filter8675" color-interpolation-filters="sRGB">
      <feGaussianBlur id="feGaussianBlur8677" stdDeviation="0.030138339"/>
    </filter>
    <linearGradient id="linearGradient8933" y2="-19.811" gradientUnits="userSpaceOnUse" x2="-71.442" gradientTransform="matrix(.91314 0 0 .89753 -23.87 -26.968)" y1="-19.811" x1="-65.768">
      <stop id="stop8718" style="stop-color:#cccccc" offset="0"/>
      <stop id="stop8720" style="stop-color:#f2f2f2" offset="1"/>
    </linearGradient>
    <filter id="filter8712" color-interpolation-filters="sRGB">
      <feGaussianBlur id="feGaussianBlur8714" stdDeviation="0.01612942"/>
    </filter>
    <filter id="filter9320" width="1.2931" y="-.037721" x="-.14657" height="1.0754" color-interpolation-filters="sRGB">
      <feGaussianBlur id="feGaussianBlur9322" stdDeviation="0.066796875"/>
    </filter>
    <linearGradient id="linearGradient9265" y2="14.788" gradientUnits="userSpaceOnUse" x2="59.367" y1="15.789" x1="59.367">
      <stop id="stop9221" style="stop-color:#000000" offset="0"/>
      <stop id="stop9223" style="stop-color:#000000;stop-opacity:0" offset="1"/>
    </linearGradient>
    <linearGradient id="linearGradient9267" y2="15.466" gradientUnits="userSpaceOnUse" x2="59.437" gradientTransform="translate(0 .034908)" y1="17.025" x1="59.437">
      <stop id="stop8742" style="stop-color:#ffffff" offset="0"/>
      <stop id="stop8744" style="stop-color:#ffffff;stop-opacity:0" offset="1"/>
    </linearGradient>
    <filter id="filter-5" width="1.0422" y="-.12254" x="-.021099" height="1.2451" color-interpolation-filters="sRGB">
      <feGaussianBlur id="feGaussianBlur-5" stdDeviation="0.28764894"/>
    </filter>
    <linearGradient id="gradient-4" y2="46.093" gradientUnits="userSpaceOnUse" x2="79.135" y1="43.499" x1="79.135">
      <stop id="stop-3" style="stop-color:#464646" offset="0"/>
      <stop id="stop-4" style="stop-color:#262626" offset="1"/>
    </linearGradient>
    <filter id="filter-6" color-interpolation-filters="sRGB">
      <feGaussianBlur id="feGaussianBlur-6" stdDeviation="0.028724089"/>
    </filter>
    <linearGradient id="gradient-5" y2="18.973" gradientUnits="userSpaceOnUse" x2="62.701" y1="18.22" x1="63.369">
      <stop id="stop-5" style="stop-color:#e5e5e5" offset="0"/>
      <stop id="stop-6" style="stop-color:#000000" offset="1"/>
    </linearGradient>
    <linearGradient id="gradient-6" y2="18.612" gradientUnits="userSpaceOnUse" x2="63.212" y1="17.869" x1="63.769">
      <stop id="stop-7" style="stop-color:#ffffff" offset="0"/>
      <stop id="stop-8" style="stop-color:#ffffff;stop-opacity:0" offset="1"/>
    </linearGradient>
    <linearGradient id="gradient-7" y2="19.626" gradientUnits="userSpaceOnUse" x2="72.802" gradientTransform="matrix(.91314 0 0 .89753 23.87 26.968)" y1="19.69" x1="65.654">
      <stop id="stop-9" style="stop-color:#ffffff" offset="0"/>
      <stop id="stop-10" style="stop-color:#b2b2b2" offset="1"/>
    </linearGradient>
    <linearGradient id="gradient-8" y2="19.335" gradientUnits="userSpaceOnUse" x2="66.622" gradientTransform="translate(17.89 24.958)" y1="19.335" x1="71.902">
      <stop id="stop-11" style="stop-color:#ffffff" offset="0"/>
      <stop id="stop-12" style="stop-color:#ffffff;stop-opacity:0" offset="1"/>
    </linearGradient>
    <filter id="filter-7" color-interpolation-filters="sRGB">
      <feGaussianBlur id="feGaussianBlur-7" stdDeviation="0.030138339"/>
    </filter>
    <linearGradient id="gradient-9" y2="-19.811" gradientUnits="userSpaceOnUse" x2="-71.442" gradientTransform="matrix(.91314 0 0 .89753 -23.87 -26.968)" y1="-19.811" x1="-65.768">
      <stop id="stop-13" style="stop-color:#cccccc" offset="0"/>
      <stop id="stop-14" style="stop-color:#f2f2f2" offset="1"/>
    </linearGradient>
    <filter id="filter-8" color-interpolation-filters="sRGB">
      <feGaussianBlur id="feGaussianBlur-8" stdDeviation="0.01612942"/>
    </filter>
    <filter id="filter-9" width="1.2931" y="-.037721" x="-.14657" height="1.0754" color-interpolation-filters="sRGB">
      <feGaussianBlur id="feGaussianBlur-9" stdDeviation="0.066796875"/>
    </filter>
    <linearGradient id="gradient-10" y2="14.788" gradientUnits="userSpaceOnUse" x2="59.367" y1="15.789" x1="59.367">
      <stop id="stop-15" style="stop-color:#000000" offset="0"/>
      <stop id="stop-16" style="stop-color:#000000;stop-opacity:0" offset="1"/>
    </linearGradient>
    <linearGradient id="gradient-11" y2="15.466" gradientUnits="userSpaceOnUse" x2="59.437" gradientTransform="translate(0 .034908)" y1="17.025" x1="59.437">
      <stop id="stop-7" style="stop-color:#ffffff" offset="0"/>
      <stop id="stop-8" style="stop-color:#ffffff;stop-opacity:0" offset="1"/>
    </linearGradient>
  </defs>
  <g transform="matrix(0.132095, 0, 0, 0.132095, 207.225189, 772.801025)">
    <g id="g-3" transform="translate(-695.44 -335.73)">
      <g id="g-4" style="filter: url(#filter-3);" transform="translate(216.27 10.672)">
        <path id="path-4" style="fill:#000000" d="m523.78 325.12c-24.23 0.67-45.18 22.7-44.59 46.94-0.59 24.24 20.36 46.28 44.59 46.94 24.22 1.84 47.26-18.02 49.19-42.19 3.06-24.42-16.18-48.75-40.65-51.32-2.82-0.44-5.69-0.52-8.54-0.37zm1.81 21.94c15.94-0.93 29.39 15.88 24.82 31.28-3.33 14.69-21.53 23.35-34.97 16.28-14.42-6.25-18.92-26.75-8.53-38.46 4.57-5.57 11.5-8.97 18.68-9.1z"/>
        <path id="path-5" style="fill:#515151" d="m526.19 327.06c-24.84 0-45 20.16-45 45s20.16 45 45 45 45-20.16 45-45-20.16-45-45-45zm0 18c14.9 0 27 12.1 27 27 0 14.91-12.1 27-27 27-14.91 0-27-12.09-27-27 0-14.9 12.09-27 27-27z"/>
        <path id="path-6" style="fill: rgb(255, 255, 255); filter: url(#filter-4);" d="m525.19 331.06c-27.01-0.61-48.29 31-37.41 55.82 8.42 22.54 38.68 34.04 59.25 20.62 20.21-11.62 27.2-41.75 11.94-60.06-7.91-10.24-20.67-17.02-33.78-16.38zm0.87 9.94c22.65-1.26 39.53 27.48 27.22 46.5-10 18.08-38.8 21.32-51.25 4.22-11.54-14.18-7.92-38.61 9.25-46.84 4.52-2.46 9.63-3.78 14.78-3.88z"/>
      </g>
    </g>
  </g>
  <g transform="matrix(0.46638, 0, 0, 0.46638, 16.417768, 403.38324)">
    <g transform="matrix(0.318514, -0.077321, 0.077321, 0.318514, 443.405457, 755.164734)">
      <g id="g-5">
        <path id="path1088" style="stroke:#000000;stroke-width:1pt;fill:url(#linearGradient2827)" d="m41.8 62.186c-8.373 0.034-16.416 3.172-23.685 7.103-6.477 3.64-12.657 9.063-14.652 16.484-1.7049 6.554 0.8346 13.781 5.6085 18.417 5.0115 4.69 12.396 5.61 18.942 4.62 7.618-1.21 14.891-4.26 21.4-8.35 5.847-3.786 11.13-9.365 12.328-16.461 0.922-6.036-1.172-11.646-5.507-15.891-2.214 2.965-4.124 5.548-5.494 9.002-0.195 1.699 0.699 3.281 0.091 5.165-0.863 4.423-4.703 7.396-8.312 9.658-5.406 3.097-11.319 5.677-17.58 6.274-3.574 0.328-7.847-0.48-9.788-3.842-1.811-2.777-1.436-6.529 0.561-9.104 3.669-4.931 9.46-7.621 15.025-9.837 3.388-1.268 6.439-2.148 10.081-2.18 0.853-3.785 2.705-7.453 4.854-10.665-1.404-0.241-2.448-0.384-3.873-0.393z"/>
        <path id="path1089" style="stroke:#000000;stroke-width:1pt;fill:url(#linearGradient3593)" d="m77.31 42.112c-5.778 0.2-11.416 2.173-16.153 5.47-6.067 4.208-11.366 9.576-15.428 15.746-0.828 1.599-2.162 3.577-2.909 5.468-1.697 4.049-2.433 8.528-2.144 12.907 0.282 3.409 1.363 6.402 4.452 8.023 2.605-2.124 5.414-4.791 5.169-8.342-1.375-1.727-0.437-4.007 0.57-5.773 3.697-7.366 9.335-13.571 15.638-18.802 2.161-1.719 4.59-3.381 7.226-4.42 1.735-0.649 3.957-0.554 5.189 1.001 1.934 1.511 0.571 3.765 1.02 5.377 1.861 2.771 5.387 3.094 8.582 1.796 1.215-3.772 1.817-6.381 0.864-10.29-1.383-4.561-5.831-8.145-10.661-8.161-0.471-0.02-0.943-0.017-1.415 0zm-5.324 26.176c-3.378 3.806-5.859 6.665-9.983 9.652 1.032 4.074 0.11 8.227-1.845 11.925 8.528-2.799 14.959-8.586 20.77-15.233 1.138-1.054 1.629-1.882-0.216-1.972-3.09-0.916-6.506-2.008-8.726-4.372z"/>
        <path id="path1100" style="stroke:#000000;stroke-width:1pt;fill:url(#linearGradient3601)" d="m93.183 13.422c-6.957-0.147-13.088 4.332-17.093 9.7-4.48 6.053-8.136 14.07-9.852 21.369 2.782-1.865 9.888-3.141 12.844-2.765 1.99-5.423 4.454-11.84 9.143-15.47 2.768-2.288 7.002-2.39 9.821-0.15 3.414 2.657 3.604 7.501 3.064 11.439-0.94 5.851-3.086 11.503-6.066 16.614-2.167 3.49-5.284 7.231-9.673 7.592-3.654 0.256-7.186-2.382-7.984-5.958-0.77-1.042-0.03-3.306-1.072-3.353-1.521-0.448-5.573 1.508-9.118 4.35 0.531 5.957 2.814 10.352 8.132 13.262 5.298 3.055 12.135 3.772 17.667 0.871 6.523-3.234 10.894-9.53 13.924-15.949 3.55-7.859 6.3-16.605 4.94-25.31-0.8-5.528-3.97-10.806-8.97-13.487-2.96-1.646-6.306-2.699-9.707-2.755z"/>
      </g>
    </g>
    <g transform="matrix(0.326125, 0.032744, -0.032744, 0.326125, 423.204895, 772.708069)">
      <g id="g-6">
        <path id="path-7" style="stroke: rgb(0, 0, 0); stroke-width: 1pt; fill: url(#gradient-1);" d="m41.8 62.186c-8.373 0.034-16.416 3.172-23.685 7.103-6.477 3.64-12.657 9.063-14.652 16.484-1.7049 6.554 0.8346 13.781 5.6085 18.417 5.0115 4.69 12.396 5.61 18.942 4.62 7.618-1.21 14.891-4.26 21.4-8.35 5.847-3.786 11.13-9.365 12.328-16.461 0.922-6.036-1.172-11.646-5.507-15.891-2.214 2.965-4.124 5.548-5.494 9.002-0.195 1.699 0.699 3.281 0.091 5.165-0.863 4.423-4.703 7.396-8.312 9.658-5.406 3.097-11.319 5.677-17.58 6.274-3.574 0.328-7.847-0.48-9.788-3.842-1.811-2.777-1.436-6.529 0.561-9.104 3.669-4.931 9.46-7.621 15.025-9.837 3.388-1.268 6.439-2.148 10.081-2.18 0.853-3.785 2.705-7.453 4.854-10.665-1.404-0.241-2.448-0.384-3.873-0.393z"/>
        <path id="path-8" style="stroke: rgb(0, 0, 0); stroke-width: 1pt; fill: url(#gradient-2);" d="m77.31 42.112c-5.778 0.2-11.416 2.173-16.153 5.47-6.067 4.208-11.366 9.576-15.428 15.746-0.828 1.599-2.162 3.577-2.909 5.468-1.697 4.049-2.433 8.528-2.144 12.907 0.282 3.409 1.363 6.402 4.452 8.023 2.605-2.124 5.414-4.791 5.169-8.342-1.375-1.727-0.437-4.007 0.57-5.773 3.697-7.366 9.335-13.571 15.638-18.802 2.161-1.719 4.59-3.381 7.226-4.42 1.735-0.649 3.957-0.554 5.189 1.001 1.934 1.511 0.571 3.765 1.02 5.377 1.861 2.771 5.387 3.094 8.582 1.796 1.215-3.772 1.817-6.381 0.864-10.29-1.383-4.561-5.831-8.145-10.661-8.161-0.471-0.02-0.943-0.017-1.415 0zm-5.324 26.176c-3.378 3.806-5.859 6.665-9.983 9.652 1.032 4.074 0.11 8.227-1.845 11.925 8.528-2.799 14.959-8.586 20.77-15.233 1.138-1.054 1.629-1.882-0.216-1.972-3.09-0.916-6.506-2.008-8.726-4.372z"/>
        <path id="path-9" style="stroke: rgb(0, 0, 0); stroke-width: 1pt; fill: url(#gradient-3);" d="m93.183 13.422c-6.957-0.147-13.088 4.332-17.093 9.7-4.48 6.053-8.136 14.07-9.852 21.369 2.782-1.865 9.888-3.141 12.844-2.765 1.99-5.423 4.454-11.84 9.143-15.47 2.768-2.288 7.002-2.39 9.821-0.15 3.414 2.657 3.604 7.501 3.064 11.439-0.94 5.851-3.086 11.503-6.066 16.614-2.167 3.49-5.284 7.231-9.673 7.592-3.654 0.256-7.186-2.382-7.984-5.958-0.77-1.042-0.03-3.306-1.072-3.353-1.521-0.448-5.573 1.508-9.118 4.35 0.531 5.957 2.814 10.352 8.132 13.262 5.298 3.055 12.135 3.772 17.667 0.871 6.523-3.234 10.894-9.53 13.924-15.949 3.55-7.859 6.3-16.605 4.94-25.31-0.8-5.528-3.97-10.806-8.97-13.487-2.96-1.646-6.306-2.699-9.707-2.755z"/>
      </g>
    </g>
  </g>
  <g transform="matrix(0.024909, 0.009982, -0.023034, 0.057478, 207.781708, 746.470398)">
    <g id="g-7" transform="translate(-66.937 -313.31)">
      <g id="g9324" transform="matrix(25.936 0 0 25.936 -1544.3 -1452.4)">
        <path id="path8995" d="m91.656 68.906c-0.63495 0.02177-1.203 0.10486-1.4688 0.25-0.53159 0.29028-0.34375 0.5-0.34375 0.5l-25.281-0.062c-0.37797 0.29459-1.75 2-1.75 2l1.9062 2 24.938 0.0625h0.625v-1.5625h4.125c-0.17727 1.5508-0.75687 1.6909-1.4375 1.7188-0.70878 0.02903-3.3125-0.15625-3.3125-0.15625s0.0103 0.2343 0.1875 0.4375 2.1992 0.46653 2.9375 0.4375c0.73832-0.02902 2.7205-0.27597 2.75-2.6562 0.02953-2.3803-0.84651-2.6115-1.9688-2.8438-0.56112-0.11611-1.2713-0.14677-1.9062-0.125zm0.094 0.719c0.64276 0.0067 1.2546 0.05155 1.6875 0.1875 0.69842 0.21934 0.95339 0.76594 1 1.5h-4.1562v-1.6562c0.489-0.012 0.973-0.036 1.468-0.031z" style="opacity:.5;filter:url(#filter9179);fill:#000000"/>
        <g id="g8958" transform="translate(5.1216 26.117)">
          <path id="path8724" style="fill:url(#linearGradient8948)" d="m58.828 42.694c-0.37797 0.29459-1.7585 2.0138-1.7585 2.0138l1.9182 1.9787 25.552 0.07985v-3.9926z"/>
          <g id="g8758" transform="matrix(.84449 0 0 .84449 27.826 27.979)">
            <path id="path8748" style="opacity:.5;color:#000000;filter:url(#filter8754);fill:#000000" d="m64.019 18.357c0 0.31728-0.2572 0.57448-0.57448 0.57448s-0.57448-0.2572-0.57448-0.57448 0.2572-0.57448 0.57448-0.57448 0.57448 0.2572 0.57448 0.57448z" transform="matrix(1.1177 0 0 1.1177 -6.9424 -1.6412)"/>
            <path id="path8726" style="color:#000000;fill:url(#linearGradient8954)" d="m64.019 18.357c0 0.31728-0.2572 0.57448-0.57448 0.57448s-0.57448-0.2572-0.57448-0.57448 0.2572-0.57448 0.57448-0.57448 0.57448 0.2572 0.57448 0.57448z" transform="matrix(1.0588 0 0 1.0588 -3.2435 -.59494)"/>
            <path id="path8730" style="color:#000000;fill:url(#linearGradient8956)" d="m64.019 18.357c0 0.31728-0.2572 0.57448-0.57448 0.57448s-0.57448-0.2572-0.57448-0.57448 0.2572-0.57448 0.57448-0.57448 0.57448 0.2572 0.57448 0.57448z" transform="matrix(.87252 0 0 .87252 8.6051 2.7407)"/>
          </g>
          <g id="g8767" transform="matrix(.84449 0 0 .84449 27.826 29.772)">
            <path id="path8769" style="opacity:.5;color:#000000;filter:url(#filter8754);fill:#000000" d="m64.019 18.357c0 0.31728-0.2572 0.57448-0.57448 0.57448s-0.57448-0.2572-0.57448-0.57448 0.2572-0.57448 0.57448-0.57448 0.57448 0.2572 0.57448 0.57448z" transform="matrix(1.1177 0 0 1.1177 -6.9424 -1.6412)"/>
            <path id="path8771" style="color:#000000;fill:url(#linearGradient8954)" d="m64.019 18.357c0 0.31728-0.2572 0.57448-0.57448 0.57448s-0.57448-0.2572-0.57448-0.57448 0.2572-0.57448 0.57448-0.57448 0.57448 0.2572 0.57448 0.57448z" transform="matrix(1.0588 0 0 1.0588 -3.2435 -.59494)"/>
            <path id="path8773" style="color:#000000;fill:url(#linearGradient8956)" d="m64.019 18.357c0 0.31728-0.2572 0.57448-0.57448 0.57448s-0.57448-0.2572-0.57448-0.57448 0.2572-0.57448 0.57448-0.57448 0.57448 0.2572 0.57448 0.57448z" transform="matrix(.87252 0 0 .87252 8.6051 2.7407)"/>
          </g>
          <g id="g8800" transform="translate(9.5603 18.907)">
            <path id="path8781" style="opacity:.5;color:#000000;filter:url(#filter8754);fill:#000000" d="m64.019 18.357c0 0.31728-0.2572 0.57448-0.57448 0.57448s-0.57448-0.2572-0.57448-0.57448 0.2572-0.57448 0.57448-0.57448 0.57448 0.2572 0.57448 0.57448z" transform="matrix(.79959 0 0 .79214 15.23 11.281)"/>
            <g id="g8796">
              <path id="path8783" style="color:#000000;fill:url(#linearGradient8954)" d="m64.019 18.357c0 0.31728-0.2572 0.57448-0.57448 0.57448s-0.57448-0.2572-0.57448-0.57448 0.2572-0.57448 0.57448-0.57448 0.57448 0.2572 0.57448 0.57448z" transform="matrix(.74338 0 0 .74338 18.744 12.196)"/>
              <path id="path8785" style="color:#000000;fill:#000000" d="m64.019 18.357c0 0.31728-0.2572 0.57448-0.57448 0.57448s-0.57448-0.2572-0.57448-0.57448 0.2572-0.57448 0.57448-0.57448 0.57448 0.2572 0.57448 0.57448z" transform="matrix(.65432 0 0 .72111 24.446 12.605)"/>
            </g>
          </g>
          <g id="g8808" transform="translate(6.5124 18.907)">
            <path id="path8810" style="opacity:.5;color:#000000;filter:url(#filter8754);fill:#000000" d="m64.019 18.357c0 0.31728-0.2572 0.57448-0.57448 0.57448s-0.57448-0.2572-0.57448-0.57448 0.2572-0.57448 0.57448-0.57448 0.57448 0.2572 0.57448 0.57448z" transform="matrix(.79959 0 0 .79214 15.23 11.281)"/>
            <g id="g8812">
              <path id="path8814" style="color:#000000;fill:url(#linearGradient8954)" d="m64.019 18.357c0 0.31728-0.2572 0.57448-0.57448 0.57448s-0.57448-0.2572-0.57448-0.57448 0.2572-0.57448 0.57448-0.57448 0.57448 0.2572 0.57448 0.57448z" transform="matrix(.74338 0 0 .74338 18.744 12.196)"/>
              <path id="path8816" style="color:#000000;fill:#000000" d="m64.019 18.357c0 0.31728-0.2572 0.57448-0.57448 0.57448s-0.57448-0.2572-0.57448-0.57448 0.2572-0.57448 0.57448-0.57448 0.57448 0.2572 0.57448 0.57448z" transform="matrix(.65432 0 0 .72111 24.446 12.605)"/>
            </g>
          </g>
          <g id="g8820" transform="translate(3.4645 18.907)">
            <path id="path8822" style="opacity:.5;color:#000000;filter:url(#filter8754);fill:#000000" d="m64.019 18.357c0 0.31728-0.2572 0.57448-0.57448 0.57448s-0.57448-0.2572-0.57448-0.57448 0.2572-0.57448 0.57448-0.57448 0.57448 0.2572 0.57448 0.57448z" transform="matrix(.79959 0 0 .79214 15.23 11.281)"/>
            <g id="g8824">
              <path id="path8826" style="color:#000000;fill:url(#linearGradient8954)" d="m64.019 18.357c0 0.31728-0.2572 0.57448-0.57448 0.57448s-0.57448-0.2572-0.57448-0.57448 0.2572-0.57448 0.57448-0.57448 0.57448 0.2572 0.57448 0.57448z" transform="matrix(.74338 0 0 .74338 18.744 12.196)"/>
              <path id="path8828" style="color:#000000;fill:#000000" d="m64.019 18.357c0 0.31728-0.2572 0.57448-0.57448 0.57448s-0.57448-0.2572-0.57448-0.57448 0.2572-0.57448 0.57448-0.57448 0.57448 0.2572 0.57448 0.57448z" transform="matrix(.65432 0 0 .72111 24.446 12.605)"/>
            </g>
          </g>
          <g id="g8832" transform="translate(.41651 18.907)">
            <path id="path8834" style="opacity:.5;color:#000000;filter:url(#filter8754);fill:#000000" d="m64.019 18.357c0 0.31728-0.2572 0.57448-0.57448 0.57448s-0.57448-0.2572-0.57448-0.57448 0.2572-0.57448 0.57448-0.57448 0.57448 0.2572 0.57448 0.57448z" transform="matrix(.79959 0 0 .79214 15.23 11.281)"/>
            <g id="g8836">
              <path id="path8838" style="color:#000000;fill:url(#linearGradient8954)" d="m64.019 18.357c0 0.31728-0.2572 0.57448-0.57448 0.57448s-0.57448-0.2572-0.57448-0.57448 0.2572-0.57448 0.57448-0.57448 0.57448 0.2572 0.57448 0.57448z" transform="matrix(.74338 0 0 .74338 18.744 12.196)"/>
              <path id="path8840" style="color:#000000;fill:#000000" d="m64.019 18.357c0 0.31728-0.2572 0.57448-0.57448 0.57448s-0.57448-0.2572-0.57448-0.57448 0.2572-0.57448 0.57448-0.57448 0.57448 0.2572 0.57448 0.57448z" transform="matrix(.65432 0 0 .72111 24.446 12.605)"/>
            </g>
          </g>
          <path id="path8628" style="stroke:#999999;stroke-width:.045265;fill:url(#linearGradient8940)" d="m84.087 42.754c1.2118-0.01966 2.7441-0.11899 3.6099 0.15292 0.8802 0.27642 1.054 1.0778 0.9972 2.1113-0.14766 1.7417-0.76785 1.8578-1.4766 1.8868-0.70878 0.02903-3.3077-0.14514-3.3077-0.14514s0 0.23222 0.1772 0.43542 2.2149 0.46445 2.9533 0.43542c0.73832-0.02902 2.717-0.26125 2.7465-2.6415 0.02953-2.3803-0.85645-2.6125-1.9787-2.8447-1.1222-0.23222-2.8351-0.17417-3.3667 0.11611-0.53159 0.29028-0.35439 0.49347-0.35439 0.49347z"/>
          <path id="path8630" style="filter:url(#filter8675);fill:url(#linearGradient8936)" d="m85.814 41.846c-0.65824 0.02258-1.2246 0.12036-1.5142 0.26817 0.8054-0.10889 1.9613-0.10385 2.8165 0.05959 1.191 0.22763 2.1513 0.43789 2.1199 2.7711-0.03134 2.3332-2.154 2.5638-2.9376 2.5923-0.53407 0.01939-1.6693-0.10151-2.4228-0.23837 0.01233 0.01684 0.01582 0.04299 0.03028 0.05959 0.18806 0.21586 2.3357 0.47779 3.1193 0.44695 0.78357-0.03084 2.9063-0.27218 2.9376-2.8009 0.03134-2.5287-0.9289-2.7628-2.1199-3.0095-0.59552-0.12335-1.3552-0.17211-2.0291-0.14898z" transform="matrix(.91314 0 0 .89753 7.5335 4.5674)"/>
          <rect id="rect8679" style="color:#000000;stroke:#999999;stroke-width:.045265;fill:url(#linearGradient8933)" transform="scale(-1)" rx=".42757" ry=".34833" height=".78375" width="5.5521" y="-45.19" x="-89.219"/>
          <path id="rect8697" style="color:#000000;filter:url(#filter8712);fill:#ffffff" d="m83.901 44.5c-0.20476 0-0.38688 0.14176-0.38688 0.30114v0.06949c0 0.051 0.02985 0.07437 0.05952 0.11582-0.0159-0.02934-0.02976-0.08188-0.02976-0.11582v-0.04633c0-0.13577 0.15294-0.25481 0.32736-0.25481h4.7913c0.17442 0 0.2976 0.11904 0.2976 0.25481v0.04633c0 0.13577-0.12318 0.25481-0.2976 0.25481h-4.7913c-0.08721 0-0.18117-0.0252-0.23808-0.06949 0.06681 0.052 0.16546 0.09266 0.26784 0.09266h5.0294c0.20476 0 0.38688-0.1186 0.38688-0.27797v-0.06949c0-0.15938-0.18212-0.30114-0.38688-0.30114h-5.0294z" transform="matrix(.91314 0 0 .89753 7.5335 4.5674)"/>
        </g>
        <path id="rect9275" d="m84.89 68.774c-0.06872 0-0.0864 0.0433-0.125 0.09375-0.02725 0.03561-0.0625 0.07649-0.0625 0.125v1.7812 2.0312c0 0.06872 0.0189 0.11561 0.0625 0.15625 0.03825 0.03825 0.06639 0.0625 0.125 0.0625h0.6875c0.11722 0 0.21875-0.10153 0.21875-0.21875v-1.7812-0.25-1.7812c0-0.05861-0.03028-0.08496-0.0625-0.125-0.02498-0.03265-0.05403-0.04885-0.09375-0.0625-0.01264-0.0043-0.01764-0.02935-0.03125-0.03125h-0.03125-0.6875z" style="opacity:.5;color:#000000;filter:url(#filter9320);fill:#000000" transform="matrix(1 0 0 .97107 0 2.0508)"/>
        <g id="g9257" transform="translate(25.615 57.154)">
          <rect id="rect9185" style="color:#000000;stroke:#1a1a1a;stroke-width:.036824;fill:#545456" ry=".21159" height="4.2319" width="1.1018" y="11.607" x="58.929"/>
          <path id="rect9206" style="color:#000000;fill:url(#linearGradient9265)" d="m58.938 13.844v1.7812c0 0.11722 0.07028 0.21875 0.1875 0.21875h0.6875c0.11722 0 0.21875-0.10153 0.21875-0.21875v-1.7812h-1.0938z"/>
          <path id="path9204" d="m59.001 15.531v0.10292c0 0.07721 0.06156 0.14408 0.16423 0.14408h0.60217c0.10267 0 0.1916-0.06688 0.1916-0.14408v-0.10292c0 0.07104-0.06976 0.1235-0.16423 0.1235h-0.62954c-0.09446 0-0.16423-0.05246-0.16423-0.1235z" style="opacity:.43269;color:#000000;fill:url(#linearGradient9267)"/>
          <g id="g9249" transform="matrix(-1 0 0 -1 118.97 27.458)">
            <path id="path9241" style="color:#000000;fill:url(#linearGradient9265)" d="m58.938 13.844v1.7812c0 0.11722 0.07028 0.21875 0.1875 0.21875h0.6875c0.11722 0 0.21875-0.10153 0.21875-0.21875v-1.7812h-1.0938z"/>
            <path id="path9243" d="m59.001 15.531v0.10292c0 0.07721 0.06156 0.14408 0.16423 0.14408h0.60217c0.10267 0 0.1916-0.06688 0.1916-0.14408v-0.10292c0 0.07104-0.06976 0.1235-0.16423 0.1235h-0.62954c-0.09446 0-0.16423-0.05246-0.16423-0.1235z" style="opacity:.87019;color:#000000;fill:url(#linearGradient9267)"/>
          </g>
        </g>
      </g>
    </g>
  </g>
  <g transform="matrix(0.021744, 0.015725, -0.036287, 0.050175, 215.908798, 736.442871)">
    <g id="g-8" transform="translate(-66.937 -313.31)">
      <g id="g-9" transform="matrix(25.936 0 0 25.936 -1544.3 -1452.4)">
        <path id="path-10" d="m91.656 68.906c-0.63495 0.02177-1.203 0.10486-1.4688 0.25-0.53159 0.29028-0.34375 0.5-0.34375 0.5l-25.281-0.062c-0.37797 0.29459-1.75 2-1.75 2l1.9062 2 24.938 0.0625h0.625v-1.5625h4.125c-0.17727 1.5508-0.75687 1.6909-1.4375 1.7188-0.70878 0.02903-3.3125-0.15625-3.3125-0.15625s0.0103 0.2343 0.1875 0.4375 2.1992 0.46653 2.9375 0.4375c0.73832-0.02902 2.7205-0.27597 2.75-2.6562 0.02953-2.3803-0.84651-2.6115-1.9688-2.8438-0.56112-0.11611-1.2713-0.14677-1.9062-0.125zm0.094 0.719c0.64276 0.0067 1.2546 0.05155 1.6875 0.1875 0.69842 0.21934 0.95339 0.76594 1 1.5h-4.1562v-1.6562c0.489-0.012 0.973-0.036 1.468-0.031z" style="opacity: 0.5; fill: rgb(0, 0, 0); filter: url(#filter-5);"/>
        <g id="g-10" transform="translate(5.1216 26.117)">
          <path id="path-11" style="fill: url(#gradient-4);" d="m58.828 42.694c-0.37797 0.29459-1.7585 2.0138-1.7585 2.0138l1.9182 1.9787 25.552 0.07985v-3.9926z"/>
          <g id="g-11" transform="matrix(.84449 0 0 .84449 27.826 27.979)">
            <path id="path-12" style="opacity: 0.5; color: rgb(0, 0, 0); fill: rgb(0, 0, 0); filter: url(#filter-6);" d="m64.019 18.357c0 0.31728-0.2572 0.57448-0.57448 0.57448s-0.57448-0.2572-0.57448-0.57448 0.2572-0.57448 0.57448-0.57448 0.57448 0.2572 0.57448 0.57448z" transform="matrix(1.1177 0 0 1.1177 -6.9424 -1.6412)"/>
            <path id="path-13" style="color: rgb(0, 0, 0); fill: url(#gradient-5);" d="m64.019 18.357c0 0.31728-0.2572 0.57448-0.57448 0.57448s-0.57448-0.2572-0.57448-0.57448 0.2572-0.57448 0.57448-0.57448 0.57448 0.2572 0.57448 0.57448z" transform="matrix(1.0588 0 0 1.0588 -3.2435 -.59494)"/>
            <path id="path-14" style="color: rgb(0, 0, 0); fill: url(#gradient-6);" d="m64.019 18.357c0 0.31728-0.2572 0.57448-0.57448 0.57448s-0.57448-0.2572-0.57448-0.57448 0.2572-0.57448 0.57448-0.57448 0.57448 0.2572 0.57448 0.57448z" transform="matrix(.87252 0 0 .87252 8.6051 2.7407)"/>
          </g>
          <g id="g-12" transform="matrix(.84449 0 0 .84449 27.826 29.772)">
            <path id="path-15" style="opacity: 0.5; color: rgb(0, 0, 0); fill: rgb(0, 0, 0); filter: url(#filter-6);" d="m64.019 18.357c0 0.31728-0.2572 0.57448-0.57448 0.57448s-0.57448-0.2572-0.57448-0.57448 0.2572-0.57448 0.57448-0.57448 0.57448 0.2572 0.57448 0.57448z" transform="matrix(1.1177 0 0 1.1177 -6.9424 -1.6412)"/>
            <path id="path-16" style="color: rgb(0, 0, 0); fill: url(#gradient-5);" d="m64.019 18.357c0 0.31728-0.2572 0.57448-0.57448 0.57448s-0.57448-0.2572-0.57448-0.57448 0.2572-0.57448 0.57448-0.57448 0.57448 0.2572 0.57448 0.57448z" transform="matrix(1.0588 0 0 1.0588 -3.2435 -.59494)"/>
            <path id="path-17" style="color: rgb(0, 0, 0); fill: url(#gradient-6);" d="m64.019 18.357c0 0.31728-0.2572 0.57448-0.57448 0.57448s-0.57448-0.2572-0.57448-0.57448 0.2572-0.57448 0.57448-0.57448 0.57448 0.2572 0.57448 0.57448z" transform="matrix(.87252 0 0 .87252 8.6051 2.7407)"/>
          </g>
          <g id="g-13" transform="translate(9.5603 18.907)">
            <path id="path-18" style="opacity: 0.5; color: rgb(0, 0, 0); fill: rgb(0, 0, 0); filter: url(#filter-6);" d="m64.019 18.357c0 0.31728-0.2572 0.57448-0.57448 0.57448s-0.57448-0.2572-0.57448-0.57448 0.2572-0.57448 0.57448-0.57448 0.57448 0.2572 0.57448 0.57448z" transform="matrix(.79959 0 0 .79214 15.23 11.281)"/>
            <g id="g-14">
              <path id="path-19" style="color: rgb(0, 0, 0); fill: url(#gradient-5);" d="m64.019 18.357c0 0.31728-0.2572 0.57448-0.57448 0.57448s-0.57448-0.2572-0.57448-0.57448 0.2572-0.57448 0.57448-0.57448 0.57448 0.2572 0.57448 0.57448z" transform="matrix(.74338 0 0 .74338 18.744 12.196)"/>
              <path id="path-20" style="color:#000000;fill:#000000" d="m64.019 18.357c0 0.31728-0.2572 0.57448-0.57448 0.57448s-0.57448-0.2572-0.57448-0.57448 0.2572-0.57448 0.57448-0.57448 0.57448 0.2572 0.57448 0.57448z" transform="matrix(.65432 0 0 .72111 24.446 12.605)"/>
            </g>
          </g>
          <g id="g-15" transform="translate(6.5124 18.907)">
            <path id="path-21" style="opacity: 0.5; color: rgb(0, 0, 0); fill: rgb(0, 0, 0); filter: url(#filter-6);" d="m64.019 18.357c0 0.31728-0.2572 0.57448-0.57448 0.57448s-0.57448-0.2572-0.57448-0.57448 0.2572-0.57448 0.57448-0.57448 0.57448 0.2572 0.57448 0.57448z" transform="matrix(.79959 0 0 .79214 15.23 11.281)"/>
            <g id="g-16">
              <path id="path-22" style="color: rgb(0, 0, 0); fill: url(#gradient-5);" d="m64.019 18.357c0 0.31728-0.2572 0.57448-0.57448 0.57448s-0.57448-0.2572-0.57448-0.57448 0.2572-0.57448 0.57448-0.57448 0.57448 0.2572 0.57448 0.57448z" transform="matrix(.74338 0 0 .74338 18.744 12.196)"/>
              <path id="path-23" style="color:#000000;fill:#000000" d="m64.019 18.357c0 0.31728-0.2572 0.57448-0.57448 0.57448s-0.57448-0.2572-0.57448-0.57448 0.2572-0.57448 0.57448-0.57448 0.57448 0.2572 0.57448 0.57448z" transform="matrix(.65432 0 0 .72111 24.446 12.605)"/>
            </g>
          </g>
          <g id="g-17" transform="translate(3.4645 18.907)">
            <path id="path-24" style="opacity: 0.5; color: rgb(0, 0, 0); fill: rgb(0, 0, 0); filter: url(#filter-6);" d="m64.019 18.357c0 0.31728-0.2572 0.57448-0.57448 0.57448s-0.57448-0.2572-0.57448-0.57448 0.2572-0.57448 0.57448-0.57448 0.57448 0.2572 0.57448 0.57448z" transform="matrix(.79959 0 0 .79214 15.23 11.281)"/>
            <g id="g-18">
              <path id="path-25" style="color: rgb(0, 0, 0); fill: url(#gradient-5);" d="m64.019 18.357c0 0.31728-0.2572 0.57448-0.57448 0.57448s-0.57448-0.2572-0.57448-0.57448 0.2572-0.57448 0.57448-0.57448 0.57448 0.2572 0.57448 0.57448z" transform="matrix(.74338 0 0 .74338 18.744 12.196)"/>
              <path id="path-26" style="color:#000000;fill:#000000" d="m64.019 18.357c0 0.31728-0.2572 0.57448-0.57448 0.57448s-0.57448-0.2572-0.57448-0.57448 0.2572-0.57448 0.57448-0.57448 0.57448 0.2572 0.57448 0.57448z" transform="matrix(.65432 0 0 .72111 24.446 12.605)"/>
            </g>
          </g>
          <g id="g-19" transform="translate(.41651 18.907)">
            <path id="path-27" style="opacity: 0.5; color: rgb(0, 0, 0); fill: rgb(0, 0, 0); filter: url(#filter-6);" d="m64.019 18.357c0 0.31728-0.2572 0.57448-0.57448 0.57448s-0.57448-0.2572-0.57448-0.57448 0.2572-0.57448 0.57448-0.57448 0.57448 0.2572 0.57448 0.57448z" transform="matrix(.79959 0 0 .79214 15.23 11.281)"/>
            <g id="g-20">
              <path id="path-28" style="color: rgb(0, 0, 0); fill: url(#gradient-5);" d="m64.019 18.357c0 0.31728-0.2572 0.57448-0.57448 0.57448s-0.57448-0.2572-0.57448-0.57448 0.2572-0.57448 0.57448-0.57448 0.57448 0.2572 0.57448 0.57448z" transform="matrix(.74338 0 0 .74338 18.744 12.196)"/>
              <path id="path-29" style="color:#000000;fill:#000000" d="m64.019 18.357c0 0.31728-0.2572 0.57448-0.57448 0.57448s-0.57448-0.2572-0.57448-0.57448 0.2572-0.57448 0.57448-0.57448 0.57448 0.2572 0.57448 0.57448z" transform="matrix(.65432 0 0 .72111 24.446 12.605)"/>
            </g>
          </g>
          <path id="path-30" style="stroke: rgb(153, 153, 153); stroke-width: 0.045265; fill: url(#gradient-7);" d="m84.087 42.754c1.2118-0.01966 2.7441-0.11899 3.6099 0.15292 0.8802 0.27642 1.054 1.0778 0.9972 2.1113-0.14766 1.7417-0.76785 1.8578-1.4766 1.8868-0.70878 0.02903-3.3077-0.14514-3.3077-0.14514s0 0.23222 0.1772 0.43542 2.2149 0.46445 2.9533 0.43542c0.73832-0.02902 2.717-0.26125 2.7465-2.6415 0.02953-2.3803-0.85645-2.6125-1.9787-2.8447-1.1222-0.23222-2.8351-0.17417-3.3667 0.11611-0.53159 0.29028-0.35439 0.49347-0.35439 0.49347z"/>
          <path id="path-31" style="fill: url(#gradient-8); filter: url(#filter-7);" d="m85.814 41.846c-0.65824 0.02258-1.2246 0.12036-1.5142 0.26817 0.8054-0.10889 1.9613-0.10385 2.8165 0.05959 1.191 0.22763 2.1513 0.43789 2.1199 2.7711-0.03134 2.3332-2.154 2.5638-2.9376 2.5923-0.53407 0.01939-1.6693-0.10151-2.4228-0.23837 0.01233 0.01684 0.01582 0.04299 0.03028 0.05959 0.18806 0.21586 2.3357 0.47779 3.1193 0.44695 0.78357-0.03084 2.9063-0.27218 2.9376-2.8009 0.03134-2.5287-0.9289-2.7628-2.1199-3.0095-0.59552-0.12335-1.3552-0.17211-2.0291-0.14898z" transform="matrix(.91314 0 0 .89753 7.5335 4.5674)"/>
          <rect id="rect-1" style="color: rgb(0, 0, 0); stroke: rgb(153, 153, 153); stroke-width: 0.045265; fill: url(#gradient-9);" transform="scale(-1)" rx=".42757" ry=".34833" height=".78375" width="5.5521" y="-45.19" x="-89.219"/>
          <path id="path-32" style="color: rgb(0, 0, 0); fill: rgb(255, 255, 255); filter: url(#filter-8);" d="m83.901 44.5c-0.20476 0-0.38688 0.14176-0.38688 0.30114v0.06949c0 0.051 0.02985 0.07437 0.05952 0.11582-0.0159-0.02934-0.02976-0.08188-0.02976-0.11582v-0.04633c0-0.13577 0.15294-0.25481 0.32736-0.25481h4.7913c0.17442 0 0.2976 0.11904 0.2976 0.25481v0.04633c0 0.13577-0.12318 0.25481-0.2976 0.25481h-4.7913c-0.08721 0-0.18117-0.0252-0.23808-0.06949 0.06681 0.052 0.16546 0.09266 0.26784 0.09266h5.0294c0.20476 0 0.38688-0.1186 0.38688-0.27797v-0.06949c0-0.15938-0.18212-0.30114-0.38688-0.30114h-5.0294z" transform="matrix(.91314 0 0 .89753 7.5335 4.5674)"/>
        </g>
        <path id="path-33" d="m84.89 68.774c-0.06872 0-0.0864 0.0433-0.125 0.09375-0.02725 0.03561-0.0625 0.07649-0.0625 0.125v1.7812 2.0312c0 0.06872 0.0189 0.11561 0.0625 0.15625 0.03825 0.03825 0.06639 0.0625 0.125 0.0625h0.6875c0.11722 0 0.21875-0.10153 0.21875-0.21875v-1.7812-0.25-1.7812c0-0.05861-0.03028-0.08496-0.0625-0.125-0.02498-0.03265-0.05403-0.04885-0.09375-0.0625-0.01264-0.0043-0.01764-0.02935-0.03125-0.03125h-0.03125-0.6875z" style="opacity: 0.5; color: rgb(0, 0, 0); fill: rgb(0, 0, 0); filter: url(#filter-9);" transform="matrix(1 0 0 .97107 0 2.0508)"/>
        <g id="g-21" transform="translate(25.615 57.154)">
          <rect id="rect-2" style="color:#000000;stroke:#1a1a1a;stroke-width:.036824;fill:#545456" ry=".21159" height="4.2319" width="1.1018" y="11.607" x="58.929"/>
          <path id="path-34" style="color: rgb(0, 0, 0); fill: url(#gradient-10);" d="m58.938 13.844v1.7812c0 0.11722 0.07028 0.21875 0.1875 0.21875h0.6875c0.11722 0 0.21875-0.10153 0.21875-0.21875v-1.7812h-1.0938z"/>
          <path id="path-35" d="m59.001 15.531v0.10292c0 0.07721 0.06156 0.14408 0.16423 0.14408h0.60217c0.10267 0 0.1916-0.06688 0.1916-0.14408v-0.10292c0 0.07104-0.06976 0.1235-0.16423 0.1235h-0.62954c-0.09446 0-0.16423-0.05246-0.16423-0.1235z" style="opacity: 0.43269; color: rgb(0, 0, 0); fill: url(#gradient-11);"/>
          <g id="g-22" transform="matrix(-1 0 0 -1 118.97 27.458)">
            <path id="path-36" style="color: rgb(0, 0, 0); fill: url(#gradient-10);" d="m58.938 13.844v1.7812c0 0.11722 0.07028 0.21875 0.1875 0.21875h0.6875c0.11722 0 0.21875-0.10153 0.21875-0.21875v-1.7812h-1.0938z"/>
            <path id="path-37" d="m59.001 15.531v0.10292c0 0.07721 0.06156 0.14408 0.16423 0.14408h0.60217c0.10267 0 0.1916-0.06688 0.1916-0.14408v-0.10292c0 0.07104-0.06976 0.1235-0.16423 0.1235h-0.62954c-0.09446 0-0.16423-0.05246-0.16423-0.1235z" style="opacity: 0.87019; color: rgb(0, 0, 0); fill: url(#gradient-11);"/>
          </g>
        </g>
      </g>
    </g>
  </g>
  <g transform="matrix(0.6043471215476452, 0, 0, 0.6043471215476452, 319.18133544921875, 758.6057295463454)">
    <g id="g-23" transform="matrix(1, 0, 0, 0.188572, -181.757156, 70.171432)"/>
  </g>
</svg>