<svg class="bottomOverlay" width="86" height="380" viewBox="202.715 584.407 86.593 380.048" xmlns="http://www.w3.org/2000/svg" xmlns:xlink="http://www.w3.org/1999/xlink"><defs><pattern id="a" width="20" height="20" patternUnits="userSpaceOnUse" viewBox="0 0 100 100"><path d="M-.322-.322h100.804v100H-.322z"/><path d="M24 60v-4h8v-8h8v-8h8v-8h8v-8h8v8h-8v8h-8v8h-8v8h-8v8h-8v-4zM0 20v-4h8V8h8V0h8v8h-8v8H8v8H0v-4z" fill="#fee300" transform="matrix(3.19918 0 0 3.0982 -104.105 -.16)"/><path d="M40 60v-4h8v-8h8v-8h8v8h-8v8h-8v8h-8v-4zM0 36v-4h8v-8h8v-8h8V8h8V0h8v8h-8v8h-8v8h-8v8H8v8H0v-4z" fill="#1ac9ee" transform="matrix(3.19918 0 0 3.0982 -104.105 -.16)"/><path d="M16 60v-4h8v-8h8v-8h8v-8h8v-8h8v-8h8v8h-8v8h-8v8h-8v8h-8v8h-8v8h-8v-4zM0 12V8h8V0h8v8H8v8H0v-4z" fill="#fea100" transform="matrix(3.19918 0 0 3.0982 -104.105 -.16)"/><path d="M48 60v-4h8v-8h8v8h-8v8h-8v-4zM0 44v-4h8v-8h8v-8h8v-8h8V8h8V0h8v8h-8v8h-8v8h-8v8h-8v8H8v8H0v-4z" fill="#6747f0" transform="matrix(3.19918 0 0 3.0982 -104.105 -.16)"/><path d="M56 60v-4h8v8h-8v-4zM0 52v-4h8v-8h8v-8h8v-8h8v-8h8V8h8V0h8v8h-8v8h-8v8h-8v8h-8v8h-8v8H8v8H0v-4z" fill="#8100d4" transform="matrix(3.19918 0 0 3.0982 -104.105 -.16)"/><path d="M0 60v-4h8v-8h8v-8h8v-8h8v-8h8v-8h8V8h8V0h8v8h-8v8h-8v8h-8v8h-8v8h-8v8h-8v8H8v8H0v-4z" fill="#c3007c" transform="matrix(3.19918 0 0 3.0982 -104.105 -.16)"/><path d="M32 60v-4h8v-8h8v-8h8v-8h8v8h-8v8h-8v8h-8v8h-8v-4zM0 28v-4h8v-8h8V8h8V0h8v8h-8v8h-8v8H8v8H0v-4z" fill="#09c264" transform="matrix(3.19918 0 0 3.0982 -104.105 -.16)"/><path d="M8 60v-4h8v-8h8v-8h8v-8h8v-8h8v-8h8V8h8v8h-8v8h-8v8h-8v8h-8v8h-8v8h-8v8H8v-4zM0 4V0h8v8H0V4z" fill="#fe0000" transform="matrix(3.19918 0 0 3.0982 -104.105 -.16)"/></pattern><pattern id="b" patternTransform="translate(123.282 270.624)" xlink:href="#a"/><pattern id="c" patternTransform="translate(165.311 269.779)" xlink:href="#a"/></defs><path class="clothes" fill="none" d="M202.715 584.431h86.593V700.24h-86.593z"/><path d="M174.999 783.441l.561-.561z" class="clothes" stroke="#000" fill="none"/><path d="M7.217 357.89l.104-2.1-.695.56c-.382.31-.871.57-1.086.57h-.39l-.182-1.06-.183-1.06-.329.12c-.18.07-.797.94-1.369 1.93l-1.041 1.81-.235-.44-.235-.43-.005.52-.004.51-.411-.51-.41-.52-.339-1.64-.34-1.64 3.431-76.636-10.292-56.529 152.084-20.102 124.637 12.064 3.431 35.602-3.431 47.656-.45-.44-.45-.43-.4.38-.39.38-.49-.68c-.47-.63-1.16-2.29-2-4.77l-.37-1.1-.6-.18-.6-.18-.54.63-.54.62-.54-1.26c-.29-.7-.51-1.47-.47-1.71l.07-.43h-.58l-.19 1.02-.2 1.02-.43.19-.43.19-.04-.6c-.01-.33-.01-.8.02-1.04l.05-.43h-.7l.13.98.12.99-.36.4-.37.39-.17-.53-.17-.53-.26.19-.26.18-.36-.93-.37-.92-.83 1.14-.84 1.14-.72-1.69-.72-1.69-.6-.01-.6-.02-.59.45c-.32.25-.83.46-1.12.46h-.53v1.39l-.23-.08c-.3-.12-1.43 1.22-1.89 2.23l-.37.79.34.13.35.14v1.26l-.52.23-.52.23.36.26.36.26-.18 1.27-.17 1.26-1.28-.12-1.29-.12-.17 1.02-.18 1.03h-1.21l-.04.44c-.02.24-.02.53-.01.66.02.12-.42.58-.96 1.01l-.99.8-.7 1.18-.7 1.18-.39-.18-.4-.17-.28.6-.27.6.15.96.16.95h-.21c-.12 0-.47-.35-.78-.78l-.56-.79-.01.72-.01.72-.36.41c-.2.23-.5.42-.67.42h-.32l-.73-2.71-.72-2.7-.77-.79c-.89-.9-1.23-.98-1.23-.31v.47l-.59.62-.59.62-.87-.42-.88-.42-.62.45-.62.46-.2 1.05c-.11.59-.47 1.73-.8 2.55l-.59 1.5-.64-.8-.64-.8-1.05.06-1.05.05-.81-1.1-.81-1.1-.21 1.17-.2 1.17-.41.18-.41.18v1.89l-.41.66-.42.66-.86.02-.86.01-.03.53c-.01.29-.05.74-.07 1l-.05.47-.43-.19-.42-.19-.35.48-.34.48-.5-.22c-.5-.21-1.44-1.31-2.61-3.01l-.6-.89-.36-.01-.36-.02-.3-.65-.3-.65-.69.14-.68.15-.51-1.44-.51-1.43.18-.59.19-.59-.6.61-.6.61H208.227l-.37-1.05-.37-1.05h-.6l.18.53.17.54-.59-.37-.59-.37v.77l-.68-.26c-.37-.14-.87-.25-1.12-.24-.52 0-2.14-1.22-2.49-1.89l-.24-.46H199.497l-.09.79-.1.79h-1.17l-.21 1.17c-.11.64-.34 1.33-.51 1.53l-.32.36-.65-1.63-.66-1.62-.75-.69-.75-.69-.49-1.1c-.26-.61-.61-1.13-.76-1.14-.15-.02-.65-.47-1.1-1l-.83-.96h-.79l-1.12-1.2-1.12-1.2-.19.35-.18.35-.54-.56-.53-.57-.79.23-.78.23v-.95l-.7 1.01-.69 1.01-.8-.61-.81-.61v-.97h-.63l-.31-1.05-.32-1.05-.27.2-.27.19v-1.45l-.75-.4-.75-.4v-1.5l-1.22.07-1.22.08-.13-.42-.14-.42-.74.02-.74.01-.79 1.37-.8 1.37-.37-.6-.37-.59-.19.8c-.1.44-.29 1.01-.44 1.26l-.26.47-.79-.86-.79-.85v-1.44l-.39-.47c-.22-.25-.7-1.44-1.09-2.65-.38-1.2-.81-2.27-.94-2.37l-.25-.17-.36.79c-.51 1.15-.53 1.16-1.04.42l-.46-.67.18 1.22.17 1.23-.65-1.66-.65-1.66h-.39c-.21 0-.59.23-.84.52-.24.29-.58.53-.73.53h-.29l-.2.9c-.11.5-.48 1.35-.82 1.9l-.62.98-.62.19-.63.19-.38-.37-.38-.37-.51.6-.52.6-.22-.69-.22-.69-.57-.18-.58-.18-.39.73-.39.73-.26-.82-.27-.83-.54.58-.54.57h-1.6v1.75h-.9l-.01.43c-.01.24-.42.98-.9 1.65l-.89 1.21v-1.53l-.42.19-.43.19-.17.81-.18.82-1.19-.36-1.2-.35-.53.27c-.29.15-.65.24-.79.2-.42-.11-1.72 1.42-2.19 2.58-.24.58-.61 1.41-.82 1.85l-.39.8-.06 2.43-.05 2.42-.57 1.49-.56 1.49-.02-.61-.03-.61h-.56l-.19.7-.19.7h-1.6l-.53 1.08-.52 1.07-.02.76-.02.76-.5-.86c-.28-.48-.75-1.1-1.04-1.39-.29-.29-.52-.67-.52-.84 0-.17-.31-.72-.68-1.23l-.67-.93-.65.34-.65.33-.17.98-.17.98H130.237l-.35-2.01c-.52-2.96-2.4-6.54-4.24-8.06l-.55-.46v.74l-.95-.13-.95-.12-.25-.78c-.14-.43-.52-1.23-.85-1.77l-.6-.97v-1.33l-.36-.42c-.19-.23-.45-.42-.56-.42h-.19l-.18 1.5c-.1.83-.36 1.91-.58 2.42l-.41.91-.37-1.47-.38-1.47-.86-.95-.86-.95-.48-2.53c-.4-2.12-.86-3.71-1.28-4.42-.17-.29-.96 1.21-1 1.9l-.03.69-.42-1.1c-.23-.61-.57-1.23-.76-1.36l-.35-.26-.55.84c-.29.46-.65.85-.78.86-.13.01-.68.33-1.21.7l-.98.67v.53l-.01.52-.25-.46-.26-.47-1.42.1-1.43.1-.56-.81-.57-.81v-1.53l-.42-.68-.43-.68-.18.22c-.1.11-.21.7-.25 1.3l-.07 1.1h-.75l-.03.79-.04.78-.13-.61-.14-.61h-1.07l.11.96.12.96-.3-.78c-.16-.44-.38-.79-.47-.79h-.18l.09.79.09.78-.595.02c-.33.02-.768-.12-.975-.3l-.374-.33v1.21l-.45-.2-.45-.2v.36c0 .2-.203.6-.45.89l-.451.53-.133-.47c-.073-.25-.396-1.49-.718-2.74l-.586-2.28-.705-1.29-.705-1.29-.519-.21-.519-.2-.515-1.7-.516-1.69-.949.09-.949.09-.803-1.78c-.766-1.7-1.21-2.61-1.789-3.66l-.262-.47-.258.47-.258.48-.004-.44-.005-.44-.368.09c-.202.05-.606.43-.899.84l-.532.76v.86c0 .47-.202 1.43-.45 2.12l-.45 1.25v1.81l-.299-.21-.3-.22v1.36l-.673.2-.673.21-.656-.89-.657-.89-.458 1.03-.457 1.03.187.22.188.22h-.699v1.26l-.375.47-.375.47.35-.23.349-.23-.349 1.14c-.339 1.1-.72 1.64-1.165 1.65l-.215.01.189-.61.189-.61-.798.98c-.439.53-.799 1.15-.799 1.37 0 .21-.209.66-.465.99l-.466.6-.048.73-.048.74h-.472v1.33l-.482.21-.482.22.127 1.27.127 1.26-.544.17-.545.17v1.58l-.45.43-.449.44v-.3c0-.16-.202.04-.448.45l-.448.75-.041 2.1-.04 2.11-1.611 2.03c-.885 1.12-1.61 2.17-1.61 2.35 0 .18-.471 1.48-1.047 2.89l-1.047 2.57-.193 1.41-.194 1.41-.409-.18-.408-.19v1.08l-.443.52-.443.51-.587-.37c-.773-.48-.926-.46-.926.13v.48l-.478.22-.477.21-.157-.7-.158-.7h-.529v-1.36l-.75-.95-.749-.94v-.58c0-.32-.191-.88-.423-1.25l-.422-.68-1.376 1.16-1.376 1.15-.301-.22c-.165-.12-.31-.48-.321-.81l-.021-.59-.233.7-.232.69-.2-1.25c-.11-.68-.379-1.52-.597-1.87l-.396-.63-.799 1-.799 1.01-.184 1.13c-.203 1.27-.226 1.29-1.001.8l-.546-.34-.185-.86-.185-.86-.899-.74-.898-.75v-.96l-.75-.94-.75-.95v-.48c0-.27-.219-.88-.487-1.35l-.488-.87-.412.4-.412.39v2.06l-.262-.19-.262-.19v.88c0 .49-.096.99-.212 1.13l-.212.25-.416-.67-.416-.66-.459.44-.459.45v.96h-.619l-.241-.76-.241-.76-.217.41-.217.41h-1.069l-.4-1.48-.401-1.49-.122.63-.122.63-.349-.13c-.193-.07-.488-.45-.656-.84l-.306-.71-.744.55c-.408.31-.844.72-.968.91l-.225.36.162 2.21.162 2.21-.372 1.19-.372 1.2h-.479v1.1l-.525-.19-.525-.19-.306.25c-.416.35-2.842 4.76-2.842 5.18 0 .18-.337.62-.75.98l-.749.66v.77l-.975-.04-.974-.04-.489.29-.489.3-.454 1.32-.455 1.33-.821.95-.822.96-.484.05c-.266.02-.802.08-1.191.12l-.708.09-.27.48c-.148.27-.354.88-.459 1.36-.104.48-.41 1.12-.68 1.42l-.492.56h-.984l-.374-.82c-.508-1.1-.74-1.03-1.616.5-.413.72-1.016 1.7-1.341 2.18l-.591.87-.161 4.55c-.089 2.49-.202 5.09-.251 5.76l-.09 1.22-.405.86-.404.86-.071 1.76c-.039.97-.171 2.71-.293 3.86l-.223 2.1-.562.62-.562.63v1.93l-.352.41-.353.41-.397-.38-.397-.39-.004.31-.005.3-.262-.48-.261-.48-.334.24-.333.24v.66c0 .36-.101.73-.225.82l-.225.16.104-2.11.002-.005z" fill="url(#b)" transform="matrix(.10612 0 0 .15905 216.37 775.595)"/><path d="M13.716 357.045l.108-2.1-.72.56c-.395.31-.901.57-1.124.57h-.404l-.188-1.06-.19-1.06-.34.12c-.187.07-.825.94-1.418 1.93l-1.077 1.81-.244-.44-.243-.43-.005.52-.004.51-.426-.51-.424-.52-.351-1.64-.352-1.64 3.552-76.636L-.79 220.5l157.452-20.102 129.036 8.223 65.714 81.447-65.714 5.652-.465-.44-.466-.43-.414.38-.404.38-.507-.68c-.487-.63-1.201-2.29-2.071-4.77l-.383-1.1-.621-.18-.622-.18-.559.63-.559.62-.559-1.26c-.3-.7-.528-1.47-.486-1.71l.072-.43h-.6l-.197 1.02-.207 1.02-.445.19-.445.19-.042-.6c-.01-.33-.01-.8.021-1.04l.052-.43h-.725l.135.98.124.99-.373.4-.383.39-.176-.53-.176-.53-.269.19-.269.18-.373-.93-.383-.92-.859 1.14-.87 1.14-.745-1.69-.746-1.69-.621-.01-.621-.02-.611.45c-.331.25-.859.46-1.16.46h-.548v1.39l-.238-.08c-.311-.12-1.481 1.22-1.957 2.23l-.383.79.352.13.362.14v1.26l-.538.23-.539.23.373.26.373.26-.187 1.27-.175 1.26-1.326-.12-1.335-.12-.176 1.02-.187 1.03h-1.252l-.042.44c-.02.24-.02.53-.01.66.021.12-.435.58-.994 1.01l-1.025.8-.725 1.18-.724 1.18-.404-.18-.414-.17-.29.6-.28.6.156.96.166.95h-.218c-.124 0-.487-.35-.808-.78l-.579-.79-.01.72-.011.72-.373.41c-.207.23-.517.42-.693.42h-.332l-.756-2.71-.745-2.7-.797-.79c-.922-.9-1.274-.98-1.274-.31v.47l-.61.62-.611.62-.901-.42-.911-.42-.642.45-.642.46-.207 1.05c-.114.59-.486 1.73-.828 2.55l-.611 1.5-.662-.8-.663-.8-1.087.06-1.086.05-.84-1.1-.838-1.1-.217 1.17-.208 1.17-.423.18-.425.18v1.89l-.425.66-.434.66-.89.02-.891.01-.031.53c-.01.29-.052.74-.072 1l-.052.47-.445-.19-.435-.19-.362.48-.352.48-.518-.22c-.518-.21-1.491-1.31-2.702-3.01l-.621-.89-.373-.01-.373-.02-.31-.65-.311-.65-.714.14-.704.15-.528-1.44-.529-1.43.187-.59.196-.59-.62.61-.623.61h-.961l-.385-1.05-.383-1.05h-.62l.186.53.176.54-.61-.37-.611-.37v.77l-.705-.26c-.382-.14-.9-.25-1.159-.24-.539 0-2.215-1.22-2.578-1.89l-.248-.46h-2.102l-.094.79-.102.79h-1.212l-.217 1.17c-.114.64-.352 1.33-.528 1.53l-.331.36-.673-1.63-.684-1.62-.776-.69-.776-.69-.509-1.1c-.269-.61-.631-1.13-.787-1.14-.154-.02-.672-.47-1.138-1l-.86-.96H203.278l-1.158-1.2-1.161-1.2-.195.35-.188.35-.558-.56-.549-.57-.818.23-.808.23v-.95l-.724 1.01-.715 1.01-.828-.61-.839-.61v-.97h-.652l-.321-1.05-.33-1.05-.281.2-.279.19v-1.45l-.777-.4-.776-.4v-1.5l-1.263.07-1.263.08-.134-.42-.145-.42-.767.02-.766.01-.818 1.37-.828 1.37-.382-.6-.383-.59-.197.8c-.105.44-.301 1.01-.456 1.26l-.27.47-.818-.86-.817-.85v-1.44l-.403-.47c-.228-.25-.726-1.44-1.13-2.65-.392-1.2-.839-2.27-.973-2.37l-.259-.17-.372.79c-.529 1.15-.549 1.16-1.077.42l-.476-.67.186 1.22.176 1.23-.672-1.66-.674-1.66h-.404c-.216 0-.611.23-.87.52-.248.29-.6.53-.754.53h-.302l-.207.9c-.114.5-.496 1.35-.848 1.9l-.642.98-.642.19-.652.19-.393-.37-.393-.37-.528.6-.539.6-.227-.69-.229-.69-.59-.18-.6-.18-.404.73-.403.73-.27-.82-.279-.83-.559.58-.559.57h-1.657v1.75h-.931l-.011.43c-.01.24-.435.98-.932 1.65l-.921 1.21v-1.53l-.435.19-.445.19-.176.81-.186.82-1.232-.36-1.243-.35-.548.27c-.301.15-.673.24-.818.2-.435-.11-1.781 1.42-2.268 2.58-.248.58-.631 1.41-.849 1.85l-.403.8-.062 2.43-.052 2.42-.59 1.49-.58 1.49-.021-.61-.031-.61h-.58l-.196.7-.197.7h-1.657l-.548 1.08-.539 1.07-.02.76-.021.76-.518-.86c-.29-.48-.776-1.1-1.076-1.39-.301-.29-.539-.67-.539-.84 0-.17-.321-.72-.704-1.23l-.693-.93-.673.34-.673.33-.176.98-.176.98h-.59l-.363-2.01c-.538-2.96-2.484-6.54-4.389-8.06l-.57-.46v.74l-.983-.13-.984-.12-.259-.78c-.145-.43-.538-1.23-.88-1.77l-.621-.97v-1.33l-.373-.42c-.196-.23-.465-.42-.579-.42h-.197l-.186 1.5c-.104.83-.373 1.91-.601 2.42l-.424.91-.383-1.47-.394-1.47-.89-.95-.891-.95-.497-2.53c-.414-2.12-.89-3.71-1.325-4.42-.176-.29-.994 1.21-1.035 1.9l-.031.69-.435-1.1c-.238-.61-.59-1.23-.787-1.36l-.362-.26-.569.84c-.301.46-.673.85-.808.86-.135.01-.704.33-1.253.7l-1.014.67v.53l-.011.52-.258-.46-.27-.47-1.47.1-1.48.1-.58-.81-.59-.81v-1.53l-.435-.68-.445-.68-.187.22c-.103.11-.217.7-.258 1.3l-.073 1.1h-.776l-.031.79-.042.78-.134-.61-.145-.61h-1.108l.114.96.124.96-.311-.78c-.165-.44-.393-.79-.486-.79h-.186l.093.79.093.78-.616.02c-.342.02-.795-.12-1.01-.3l-.387-.33v1.21l-.466-.2-.465-.2v.36c0 .2-.211.6-.466.89l-.467.53-.138-.47c-.076-.25-.41-1.49-.743-2.74l-.607-2.28-.73-1.29-.73-1.29-.537-.21-.537-.2-.534-1.7-.534-1.69-.982.09-.983.09-.831-1.78c-.793-1.7-1.253-2.61-1.852-3.66l-.272-.47-.267.47-.267.48-.004-.44-.005-.44-.381.09c-.209.05-.627.43-.931.84l-.551.76v.86c0 .47-.209 1.43-.465 2.12l-.466 1.25v1.81l-.31-.21-.311-.22v1.36l-.696.2-.697.21-.679-.89-.68-.89-.475 1.03-.473 1.03.194.22.195.22h-.724v1.26l-.388.47-.389.47.363-.23.361-.23-.361 1.14c-.351 1.1-.746 1.64-1.206 1.65l-.223.01.196-.61.195-.61-.826.98c-.454.53-.827 1.15-.827 1.37 0 .21-.216.66-.481.99l-.483.6-.05.73-.049.74h-.489v1.33l-.499.21-.499.22.132 1.27.131 1.26-.563.17-.564.17v1.58l-.466.43-.465.44v-.3c0-.16-.209.04-.464.45l-.464.75-.042 2.1-.042 2.11-1.667 2.03c-.917 1.12-1.667 2.17-1.667 2.35 0 .18-.488 1.48-1.084 2.89l-1.084 2.57-.2 1.41-.201 1.41-.423-.18-.423-.19v1.08l-.458.52-.459.51-.608-.37c-.8-.48-.958-.46-.958.13v.48l-.495.22-.494.21-.163-.7-.163-.7h-.548v-1.36l-.776-.95-.776-.94v-.58c0-.32-.198-.88-.438-1.25l-.437-.68-1.424 1.16-1.425 1.15-.311-.22c-.171-.12-.321-.48-.333-.81l-.021-.59-.242.7-.24.69-.207-1.25c-.114-.68-.392-1.52-.618-1.87l-.41-.63-.827 1-.827 1.01-.191 1.13c-.21 1.27-.234 1.29-1.036.8l-.565-.34-.192-.86-.192-.86-.93-.74-.93-.75v-.96l-.776-.94-.777-.95v-.48c0-.27-.227-.88-.504-1.35l-.505-.87-.427.4-.426.39v2.06l-.272-.19-.271-.19v.88c0 .49-.099.99-.219 1.13l-.22.25-.431-.67-.43-.66-.475.44-.476.45v.96h-.641l-.249-.76-.25-.76-.224.41-.225.41H46.454l-.414-1.48-.415-1.49-.126.63-.126.63-.362-.13c-.2-.07-.505-.45-.679-.84l-.317-.71-.77.55c-.422.31-.874.72-1.002.91l-.233.36.168 2.21.167 2.21-.385 1.19-.385 1.2h-.496v1.1l-.543-.19-.544-.19-.317.25c-.43.35-2.942 4.76-2.942 5.18 0 .18-.349.62-.777.98l-.775.66v.77l-1.009-.04-1.009-.04-.506.29-.506.3-.47 1.32-.471 1.33-.85.95-.851.96-.501.05c-.276.02-.831.08-1.233.12l-.733.09-.28.48c-.153.27-.366.88-.475 1.36-.108.48-.425 1.12-.704 1.42l-.51.56h-1.018l-.388-.82c-.525-1.1-.766-1.03-1.673.5a41.81 41.81 0 0 1-1.388 2.18l-.612.87-.166 4.55c-.093 2.49-.21 5.09-.26 5.76l-.093 1.22-.42.86-.418.86-.074 1.76c-.04.97-.177 2.71-.303 3.86l-.231 2.1-.582.62-.581.63v1.93l-.365.41-.365.41-.411-.38-.411-.39-.004.31-.006.3-.271-.48-.27-.48-.346.24-.345.24v.66c0 .36-.104.73-.233.82l-.233.16.108-2.11.002-.005z" transform="matrix(.10176 -.06039 0 .15905 249.03 777.313)" fill="url(#c)"/></svg>