<?xml version="1.0" encoding="utf-8"?>
<svg class="glasses" width="86" height="380" viewBox="202.715 584.407 86.5933 380.048" preserveAspectRatio="xMidYMid meet" xmlns="http://www.w3.org/2000/svg" xmlns:xlink="http://www.w3.org/1999/xlink">
  <defs id="svgEditorDefs">
    <path id="svgEditorClosePathDefs" class="skin" fill="black" style="stroke-width: 0px; stroke: none;"/>
    <pattern id="pattern-0" x="0" y="0" width="20" height="20" patternUnits="userSpaceOnUse" viewBox="0 0 100 100">
      <path d="M 41.522 -4.565 L 108.044 -4.565 L 108.044 103.696 L 41.522 103.696 Z" style="fill: black;"/>
      <path d="M 0 0 L 50 0 L 50 100 L 0 100 Z" style="fill: black;"/>
      <g transform="matrix(0.002388, 0, 0, 0.002388, 19.09339, 42.642262)">
        <g id="Layer_x0020_1" transform="matrix(3.039569, -2.019313, 1.230138, 1.851664, -3253.057617, 4267.99707)">
          <g>
            <g>
              <path class="fil0" d="m500 1271h8500v84h-8500v-84z"/>
            </g>
            <g>
              <path class="fil0" d="m500 1744h8500v83h-8500v-83z"/>
            </g>
            <g>
              <path class="fil0" d="m500 2217h8500v83h-8500v-83z"/>
            </g>
            <g>
              <path class="fil0" d="m500 2690h8500v83h-8500v-83z"/>
            </g>
            <g>
              <path class="fil0" d="m500 3162h8500v84h-8500v-84z"/>
            </g>
            <g>
              <path class="fil0" d="m500 3635h8500v83h-8500v-83z"/>
            </g>
            <g>
              <path class="fil0" d="m500 4108h8500v83h-8500v-83z"/>
            </g>
            <g>
              <path class="fil0" d="m500 4580h8500v84h-8500v-84z"/>
            </g>
            <g>
              <path class="fil0" d="m500 5053h8500v84h-8500v-84z"/>
            </g>
            <g>
              <path class="fil0" d="m500 5526h8500v83h-8500v-83z"/>
            </g>
            <g>
              <path class="fil0" d="m500 5999h8500v83h-8500v-83z"/>
            </g>
            <g>
              <path class="fil0" d="m500 6471h8500v84h-8500v-84z"/>
            </g>
            <g>
              <path class="fil0" d="m500 6944h8500v83h-8500v-83z"/>
            </g>
            <g>
              <path class="fil0" d="m500 7417h8500v83h-8500v-83z"/>
            </g>
            <g>
              <path class="fil0" d="m500 7890h8500v83h-8500v-83z"/>
            </g>
            <g>
              <path class="fil0" d="m500 8362h8500v84h-8500v-84z"/>
            </g>
            <g>
              <path class="fil0" d="m500 8835h8500v83h-8500v-83z"/>
            </g>
            <g>
              <path class="fil0" d="m500 9308h8500v83h-8500v-83z"/>
            </g>
            <g>
              <path class="fil0" d="m500 9781h8500v83h-8500v-83z"/>
            </g>
            <g>
              <path class="fil0" d="m500 10253h8500v84h-8500v-84z"/>
            </g>
            <g>
              <path class="fil0" d="m500 10726h8500v83h-8500v-83z"/>
            </g>
            <g>
              <path class="fil1" d="m1542 313v11000h-84v-11000h84z"/>
            </g>
            <g>
              <path class="fil2" d="m608 271h8284v84h-8284v-84zm8284 0v84-84zc42 0 80 19 107 49l-62 56c-11-13-28-21-45-21v-84zm107 49c26 29 43 68 43 112h-84c0-22-8-42-21-56l62-56zm43 112h-84 84zv10762h-84v-10762h84zm0 10762h-84 84zc0 44-17 83-43 112l-62-56c13-14 21-34 21-56h84zm-43 112c-27 30-65 49-107 49v-84c17 0 33-8 45-21l62 56zm-107 49v-84 84zh-8284v-84h8284v84zm-8284 0v-84 84zc-42 0-80-19-107-49l62-56c11 13 28 21 45 21v84zm-107-49c-26-29-43-68-43-112h84c0 22 8 42 21 56l-62 56zm-43-112h84-84zv-10762h84v10762h-84zm0-10762h84-84zc0-44 17-83 43-112l62 56c-13 14-21 34-21 56h-84zm43-112c27-30 65-49 107-49v84c-17 0-33 8-45 21l-62-56zm107-49v84-84z"/>
            </g>
            <circle cy="5813" cx="1e3" r="125" class="fil3"/>
            <circle cy="1086" cx="1e3" r="125" class="fil3"/>
            <circle cy="10540" cx="1e3" r="125" class="fil3"/>
          </g>
        </g>
      </g>
      <g transform="matrix(0.001678, 0.001699, -0.001699, 0.001678, 29.352579, -5.500059)">
        <g id="g-4" transform="matrix(3.039569, -2.019313, 1.230138, 1.851664, -3253.057617, 4267.99707)">
          <g>
            <g>
              <path class="fil0" d="m500 1271h8500v84h-8500v-84z"/>
            </g>
            <g>
              <path class="fil0" d="m500 1744h8500v83h-8500v-83z"/>
            </g>
            <g>
              <path class="fil0" d="m500 2217h8500v83h-8500v-83z"/>
            </g>
            <g>
              <path class="fil0" d="m500 2690h8500v83h-8500v-83z"/>
            </g>
            <g>
              <path class="fil0" d="m500 3162h8500v84h-8500v-84z"/>
            </g>
            <g>
              <path class="fil0" d="m500 3635h8500v83h-8500v-83z"/>
            </g>
            <g>
              <path class="fil0" d="m500 4108h8500v83h-8500v-83z"/>
            </g>
            <g>
              <path class="fil0" d="m500 4580h8500v84h-8500v-84z"/>
            </g>
            <g>
              <path class="fil0" d="m500 5053h8500v84h-8500v-84z"/>
            </g>
            <g>
              <path class="fil0" d="m500 5526h8500v83h-8500v-83z"/>
            </g>
            <g>
              <path class="fil0" d="m500 5999h8500v83h-8500v-83z"/>
            </g>
            <g>
              <path class="fil0" d="m500 6471h8500v84h-8500v-84z"/>
            </g>
            <g>
              <path class="fil0" d="m500 6944h8500v83h-8500v-83z"/>
            </g>
            <g>
              <path class="fil0" d="m500 7417h8500v83h-8500v-83z"/>
            </g>
            <g>
              <path class="fil0" d="m500 7890h8500v83h-8500v-83z"/>
            </g>
            <g>
              <path class="fil0" d="m500 8362h8500v84h-8500v-84z"/>
            </g>
            <g>
              <path class="fil0" d="m500 8835h8500v83h-8500v-83z"/>
            </g>
            <g>
              <path class="fil0" d="m500 9308h8500v83h-8500v-83z"/>
            </g>
            <g>
              <path class="fil0" d="m500 9781h8500v83h-8500v-83z"/>
            </g>
            <g>
              <path class="fil0" d="m500 10253h8500v84h-8500v-84z"/>
            </g>
            <g>
              <path class="fil0" d="m500 10726h8500v83h-8500v-83z"/>
            </g>
            <g>
              <path class="fil1" d="m1542 313v11000h-84v-11000h84z"/>
            </g>
            <g>
              <path class="fil2" d="m608 271h8284v84h-8284v-84zm8284 0v84-84zc42 0 80 19 107 49l-62 56c-11-13-28-21-45-21v-84zm107 49c26 29 43 68 43 112h-84c0-22-8-42-21-56l62-56zm43 112h-84 84zv10762h-84v-10762h84zm0 10762h-84 84zc0 44-17 83-43 112l-62-56c13-14 21-34 21-56h84zm-43 112c-27 30-65 49-107 49v-84c17 0 33-8 45-21l62 56zm-107 49v-84 84zh-8284v-84h8284v84zm-8284 0v-84 84zc-42 0-80-19-107-49l62-56c11 13 28 21 45 21v84zm-107-49c-26-29-43-68-43-112h84c0 22 8 42 21 56l-62 56zm-43-112h84-84zv-10762h84v10762h-84zm0-10762h84-84zc0-44 17-83 43-112l62 56c-13 14-21 34-21 56h-84zm43-112c27-30 65-49 107-49v84c-17 0-33 8-45 21l-62-56zm107-49v84-84z"/>
            </g>
            <circle cy="5813" cx="1e3" r="125" class="fil3"/>
            <circle cy="1086" cx="1e3" r="125" class="fil3"/>
            <circle cy="10540" cx="1e3" r="125" class="fil3"/>
          </g>
        </g>
      </g>
      <g transform="matrix(0.001704, 0, 0, 0.001745, 10.386879, 50.725399)">
        <g id="g-5" transform="matrix(3.039569, -2.019313, 1.230138, 1.851664, -3253.057617, 4267.99707)">
          <g>
            <g>
              <path class="fil0" d="m500 1271h8500v84h-8500v-84z" style="fill: rgb(156, 200, 222);"/>
            </g>
            <g>
              <path class="fil0" d="m500 1744h8500v83h-8500v-83z" style="fill: rgb(156, 200, 222);"/>
            </g>
            <g>
              <path class="fil0" d="m500 2217h8500v83h-8500v-83z" style="fill: rgb(156, 200, 222);"/>
            </g>
            <g>
              <path class="fil0" d="m500 2690h8500v83h-8500v-83z" style="fill: rgb(156, 200, 222);"/>
            </g>
            <g>
              <path class="fil0" d="m500 3162h8500v84h-8500v-84z" style="fill: rgb(156, 200, 222);"/>
            </g>
            <g>
              <path class="fil0" d="m500 3635h8500v83h-8500v-83z" style="fill: rgb(156, 200, 222);"/>
            </g>
            <g>
              <path class="fil0" d="m500 4108h8500v83h-8500v-83z" style="fill: rgb(156, 200, 222);"/>
            </g>
            <g>
              <path class="fil0" d="m500 4580h8500v84h-8500v-84z" style="fill: rgb(156, 200, 222);"/>
            </g>
            <g>
              <path class="fil0" d="m500 5053h8500v84h-8500v-84z" style="fill: rgb(156, 200, 222);"/>
            </g>
            <g>
              <path class="fil0" d="m500 5526h8500v83h-8500v-83z" style="fill: rgb(156, 200, 222);"/>
            </g>
            <g>
              <path class="fil0" d="m500 5999h8500v83h-8500v-83z" style="fill: rgb(156, 200, 222);"/>
            </g>
            <g>
              <path class="fil0" d="m500 6471h8500v84h-8500v-84z" style="fill: rgb(156, 200, 222);"/>
            </g>
            <g>
              <path class="fil0" d="m500 6944h8500v83h-8500v-83z" style="fill: rgb(156, 200, 222);"/>
            </g>
            <g>
              <path class="fil0" d="m500 7417h8500v83h-8500v-83z" style="fill: rgb(156, 200, 222);"/>
            </g>
            <g>
              <path class="fil0" d="m500 7890h8500v83h-8500v-83z" style="fill: rgb(156, 200, 222);"/>
            </g>
            <g>
              <path class="fil0" d="m500 8362h8500v84h-8500v-84z" style="fill: rgb(156, 200, 222);"/>
            </g>
            <g>
              <path class="fil0" d="m500 8835h8500v83h-8500v-83z" style="fill: rgb(156, 200, 222);"/>
            </g>
            <g>
              <path class="fil0" d="m500 9308h8500v83h-8500v-83z" style="fill: rgb(156, 200, 222);"/>
            </g>
            <g>
              <path class="fil0" d="m500 9781h8500v83h-8500v-83z" style="fill: rgb(156, 200, 222);"/>
            </g>
            <g>
              <path class="fil0" d="m500 10253h8500v84h-8500v-84z" style="fill: rgb(156, 200, 222);"/>
            </g>
            <g>
              <path class="fil0" d="m500 10726h8500v83h-8500v-83z" style="fill: rgb(156, 200, 222);"/>
            </g>
            <g>
              <path class="fil1" d="m1542 313v11000h-84v-11000h84z" style="fill: rgb(156, 200, 222);"/>
            </g>
            <g>
              <path class="fil2" d="m608 271h8284v84h-8284v-84zm8284 0v84-84zc42 0 80 19 107 49l-62 56c-11-13-28-21-45-21v-84zm107 49c26 29 43 68 43 112h-84c0-22-8-42-21-56l62-56zm43 112h-84 84zv10762h-84v-10762h84zm0 10762h-84 84zc0 44-17 83-43 112l-62-56c13-14 21-34 21-56h84zm-43 112c-27 30-65 49-107 49v-84c17 0 33-8 45-21l62 56zm-107 49v-84 84zh-8284v-84h8284v84zm-8284 0v-84 84zc-42 0-80-19-107-49l62-56c11 13 28 21 45 21v84zm-107-49c-26-29-43-68-43-112h84c0 22 8 42 21 56l-62 56zm-43-112h84-84zv-10762h84v10762h-84zm0-10762h84-84zc0-44 17-83 43-112l62 56c-13 14-21 34-21 56h-84zm43-112c27-30 65-49 107-49v84c-17 0-33 8-45 21l-62-56zm107-49v84-84z" style="fill: rgb(156, 200, 222);"/>
            </g>
            <circle cy="5813" cx="1e3" r="125" class="fil3" style="fill: rgb(156, 200, 222);"/>
            <circle cy="1086" cx="1e3" r="125" class="fil3" style="fill: rgb(156, 200, 222);"/>
            <circle cy="10540" cx="1e3" r="125" class="fil3" style="fill: rgb(156, 200, 222);"/>
          </g>
        </g>
      </g>
    </pattern>
    <pattern id="pattern-0-0" patternTransform="matrix(0.999997, 0, 0, 1.407587, 488.056, 518.551453)" xlink:href="#pattern-0"/>
    <pattern id="pattern-0-1" patternTransform="matrix(0.961949, 0, 0, 0.726376, 470.679565, 256.072601)" xlink:href="#pattern-0"/>
    <pattern id="pattern-0-2" patternTransform="matrix(1, 0, 0, 0.651428, 488.153717, 261.140625)" xlink:href="#pattern-0"/>
    <style type="text/css">
    .fil0 {fill:#0093DD}
    .fil3 {fill:#0A0B0C}
    .fil2 {fill:#1F1A17}
    .fil1 {fill:#DA251D}
  </style>
    <pattern id="pattern-1" patternTransform="matrix(0.999997, 0, 0, 1.407587, 488.056, 518.551453)" xlink:href="#pattern-2"/>
    <pattern id="pattern-2" x="0" y="0" width="20" height="20" patternUnits="userSpaceOnUse" viewBox="0 0 100 100">
      <path d="M 0 0 L 50 0 L 50 100 L 0 100 Z" style="fill: black;"/>
      <g transform="matrix(0.002388, 0, 0, 0.002388, 19.09339, 42.642262)">
        <g id="g-1" transform="matrix(3.039569, -2.019313, 1.230138, 1.851664, -3617.197266, 3994.892578)">
          <g>
            <g>
              <path class="fil0" d="m500 1271h8500v84h-8500v-84z"/>
            </g>
            <g>
              <path class="fil0" d="m500 1744h8500v83h-8500v-83z"/>
            </g>
            <g>
              <path class="fil0" d="m500 2217h8500v83h-8500v-83z"/>
            </g>
            <g>
              <path class="fil0" d="m500 2690h8500v83h-8500v-83z"/>
            </g>
            <g>
              <path class="fil0" d="m500 3162h8500v84h-8500v-84z"/>
            </g>
            <g>
              <path class="fil0" d="m500 3635h8500v83h-8500v-83z"/>
            </g>
            <g>
              <path class="fil0" d="m500 4108h8500v83h-8500v-83z"/>
            </g>
            <g>
              <path class="fil0" d="m500 4580h8500v84h-8500v-84z"/>
            </g>
            <g>
              <path class="fil0" d="m500 5053h8500v84h-8500v-84z"/>
            </g>
            <g>
              <path class="fil0" d="m500 5526h8500v83h-8500v-83z"/>
            </g>
            <g>
              <path class="fil0" d="m500 5999h8500v83h-8500v-83z"/>
            </g>
            <g>
              <path class="fil0" d="m500 6471h8500v84h-8500v-84z"/>
            </g>
            <g>
              <path class="fil0" d="m500 6944h8500v83h-8500v-83z"/>
            </g>
            <g>
              <path class="fil0" d="m500 7417h8500v83h-8500v-83z"/>
            </g>
            <g>
              <path class="fil0" d="m500 7890h8500v83h-8500v-83z"/>
            </g>
            <g>
              <path class="fil0" d="m500 8362h8500v84h-8500v-84z"/>
            </g>
            <g>
              <path class="fil0" d="m500 8835h8500v83h-8500v-83z"/>
            </g>
            <g>
              <path class="fil0" d="m500 9308h8500v83h-8500v-83z"/>
            </g>
            <g>
              <path class="fil0" d="m500 9781h8500v83h-8500v-83z"/>
            </g>
            <g>
              <path class="fil0" d="m500 10253h8500v84h-8500v-84z"/>
            </g>
            <g>
              <path class="fil0" d="m500 10726h8500v83h-8500v-83z"/>
            </g>
            <g>
              <path class="fil1" d="m1542 313v11000h-84v-11000h84z"/>
            </g>
            <g>
              <path class="fil2" d="m608 271h8284v84h-8284v-84zm8284 0v84-84zc42 0 80 19 107 49l-62 56c-11-13-28-21-45-21v-84zm107 49c26 29 43 68 43 112h-84c0-22-8-42-21-56l62-56zm43 112h-84 84zv10762h-84v-10762h84zm0 10762h-84 84zc0 44-17 83-43 112l-62-56c13-14 21-34 21-56h84zm-43 112c-27 30-65 49-107 49v-84c17 0 33-8 45-21l62 56zm-107 49v-84 84zh-8284v-84h8284v84zm-8284 0v-84 84zc-42 0-80-19-107-49l62-56c11 13 28 21 45 21v84zm-107-49c-26-29-43-68-43-112h84c0 22 8 42 21 56l-62 56zm-43-112h84-84zv-10762h84v10762h-84zm0-10762h84-84zc0-44 17-83 43-112l62 56c-13 14-21 34-21 56h-84zm43-112c27-30 65-49 107-49v84c-17 0-33 8-45 21l-62-56zm107-49v84-84z"/>
            </g>
            <circle cy="5813" cx="1e3" r="125" class="fil3"/>
            <circle cy="1086" cx="1e3" r="125" class="fil3"/>
            <circle cy="10540" cx="1e3" r="125" class="fil3"/>
          </g>
        </g>
      </g>
      <path d="M 38.913 -1.522 L 69.565 -1.522 L 69.565 59.782 L 38.913 59.782 Z" style="fill: black;"/>
    </pattern>
    <pattern id="pattern-3" patternTransform="matrix(0.961949, 0, 0, 0.726376, 470.679565, 256.072601)" xlink:href="#pattern-2"/>
    <pattern id="pattern-4" patternTransform="matrix(1, 0, 0, 0.651428, 488.153717, 261.140625)" xlink:href="#pattern-2"/>
    <radialGradient id="gradient-0" gradientUnits="userSpaceOnUse" cx="245.964" cy="781.753" r="33.379">
      <stop offset="0" style="stop-color: rgba(113, 109, 178, 1)"/>
      <stop offset="1" style="stop-color: rgba(67, 64, 121, 1)"/>
    </radialGradient>
    <pattern id="pattern-0-3" patternTransform="matrix(1, 0, 0, 1, 233.465286, 757.040527)" xlink:href="#pattern-0"/>
  </defs>
  <rect id="svgEditorBackground" x="202.71499633789062" y="584.4310302734375" width="86.59329986572266" height="115.80899810791016" style="fill: none; stroke: none;" class="clothes"/>
  <path d="M214.66531372070312,768.85302734375c1.2782465385533328,11.91083753217606,22.03371125380957,25.990569084709023,31.604202270507812,24.65130615234375c9.570491016698298,-1.3392629323652727,24.359016657508334,-16.826113539882726,24.019180297851562,-28.44378662109375c17.990595669908146,6.712758948353894,-48.0524550236745,-11.910860241956584,-55.623382568359375,3.79248046875Z" id="e37_area3" class="clothes" fill="silver" style="stroke: none; stroke-width: 0px;"/>
  <path d="M 222.683 762.123 C 218.756 762.123 216.668 770.538 212.585 775.587 C 212.585 790.408 213.707 796.142 215.951 810.368 C 226.045 810.368 238.441 810.929 246.244 810.929 C 244.787 808.911 246.805 800.819 246.805 797.465 C 246.805 795.721 249.049 807.579 249.049 810.929 C 249.049 814.697 253.461 810.929 256.342 810.929 C 261.952 810.929 261.952 805.88 267.001 805.88 C 268.123 803.066 272.236 801.767 273.733 800.27 C 275.086 798.356 279.343 796.099 279.343 794.66 C 274.85 794.099 270.805 775.308 274.855 773.904 C 275.628 773.636 268.707 763.245 267.001 763.245 C 251.267 761.845 242.107 750.903 226.61 750.903 C 226.61 751.464 221.561 759.318 221.561 759.318 L 222.683 762.123 Z" style="stroke: black; stroke-width: 0; fill: url(#gradient-0);" class="clothes"/>
  <path d="M 174.999 783.441 L 175.56 782.88 Z" style="stroke: black; fill: none;" class="clothes"/>
  <g transform="matrix(0.932317, 0, 0, 0.89076, 13.982654, 21.899561)">
    <g transform="matrix(0.041173, 0, 0, 0.113226, 214.231018, 846.898376)">
      <g id="layer1" transform="translate(-26.384 -60.263)">
        <g id="g2873">
          <path id="path2865" d="M 827.268 505.077 C 820.468 503.67 798.788 497.153 779.098 490.579 C 746.138 479.6 741.678 478.77 723.138 480.205 C 709.808 481.247 702.218 480.684 700.718 478.587 C 699.468 476.827 698.358 468.142 698.248 459.288 C 698.128 450.435 697.318 439.92 696.438 435.937 C 695.568 431.939 695.318 440.455 695.888 454.841 C 697.218 487.891 695.758 490.495 679.558 484.146 C 673.508 481.782 663.888 479.009 658.178 478.009 C 644.578 475.602 605.908 481.542 590.238 488.44 C 573.858 495.647 565.608 495.309 552.788 486.919 C 540.838 479.079 536.818 471.295 538.658 459.514 C 539.338 455.136 539.078 448.408 538.078 444.593 C 536.358 438.062 536.068 438.428 533.238 450.561 C 528.608 470.437 522.138 473.857 490.278 473.294 C 472.058 472.97 459.238 474.406 446.518 478.178 L 428.518 483.513 L 421.888 476.616 C 416.708 471.239 411.358 469.226 397.628 467.537 C 358.438 462.695 309.268 466.059 283.578 475.349 C 277.018 477.728 270.838 478.952 269.838 478.08 C 268.838 477.221 265.548 467.382 262.518 456.22 C 259.488 445.058 256.708 435.937 256.338 435.937 C 255.968 435.937 254.008 445.818 251.978 457.895 C 249.408 473.266 247.088 480.782 244.238 482.922 C 238.328 487.384 196.168 483.217 173.968 475.982 C 147.138 467.255 141.868 467.607 131.278 478.91 C 115.878 495.337 107.443 499.63 90.418 499.672 C 78.428 499.7 72.647 498.166 64.654 492.859 C 45.243 479.98 39.501 462.667 41.722 423.733 C 42.478 410.487 -0.923 365.393 0.121 333.483 C 1.166 301.573 -19.244 280.891 -17.81 260.946 C -13.964 207.443 37.98 479.366 33.777 393.433 C 29.255 300.954 27.436 202.705 29.91 184.533 C 31.519 172.737 33.631 167.811 41.256 158.07 C 53.773 142.08 79.031 125.124 117.21 107.079 C 147.24 92.89 150.09 92.097 178.59 89.97 C 195.02 88.744 214.36 86.8 221.55 85.651 C 231.52 84.059 235.04 84.486 236.34 87.444 C 237.69 90.527 238.67 90.595 241.09 87.774 C 243.44 85.026 250.82 84.898 273.71 87.207 C 289.97 88.849 310.7 90.219 319.77 90.253 C 342.17 90.334 352.06 92.909 353.18 98.95 C 353.81 102.289 355.61 103.46 358.8 102.6 C 361.39 101.905 372.68 103.965 383.89 107.179 C 395.11 110.394 411.45 113.925 420.21 115.028 C 435.88 116.998 436.18 116.909 438.11 109.784 C 439.18 105.798 442.74 99.851 446.02 96.57 C 451.66 90.917 454.89 90.593 507.48 90.409 C 538.01 90.302 570.41 89.122 579.48 87.789 C 608.08 83.582 621.15 94.353 609.18 112.281 C 604.19 119.753 605.13 125.407 610.35 119.315 C 612.46 116.843 619.73 115.805 632.55 116.14 C 644.79 116.459 660.23 114.38 675.68 110.335 C 694.57 105.386 702.32 104.576 711.73 106.569 C 722.68 108.886 724.03 109.993 727.25 119.262 C 729.19 124.847 730.82 127.333 730.87 124.788 C 730.92 122.243 732.79 117.843 735.01 115.009 C 738.42 110.675 741.19 110.18 752.51 111.887 L 765.97 113.916 L 764.9 105.708 C 763.06 91.528 766.16 88.758 783.43 89.156 C 798.77 89.509 799.23 89.75 831.41 114.225 C 875.32 147.612 919.08 184.294 927.67 194.921 C 939.65 209.715 938.89 226.915 925.37 247.283 L 920.31 254.898 L 927.15 256.714 C 936.56 259.205 958.02 273.929 961.97 280.601 C 968.59 291.805 970.66 308.893 969.36 341.69 C 967.44 390.055 965.26 403.441 954.97 430.171 C 944.37 457.689 933.36 500.382 924.64 547.747 C 915.05 599.884 928.348 168.804 931.188 292.954 C 932.538 351.65 934.448 413.373 935.448 430.123 C 938.388 479.713 935.488 499.391 924.418 505.021 C 916.538 509.033 846.688 509.075 827.268 505.077 L 827.268 505.077 Z M 450.66 127.962 C 450.66 126.367 449.73 125.061 448.59 125.061 C 447.46 125.061 446.53 126.367 446.53 127.962 C 446.53 129.558 447.46 130.863 448.59 130.863 C 449.73 130.863 450.66 129.558 450.66 127.962 Z" style="fill: url(#pattern-0-0);"/>
          <path id="path2863" d="M 784.468 492.713 C 779.014 491.936 757.851 488.253 737.439 484.52 C 703.78 478.367 698.518 477.785 680.934 478.28 L 661.541 478.818 L 660.117 468.081 C 659.338 462.176 657.337 455.101 655.673 452.363 C 652.749 447.561 652.691 447.816 654.009 459.357 C 655.76 474.75 655.596 479.406 653.239 481.193 C 652.008 482.115 646.775 481.752 638.589 480.161 C 620.966 476.747 576.313 477.982 556.458 482.441 C 540.268 486.081 530.081 486.372 521.193 483.474 C 508.765 479.406 506.975 477.517 505.898 467.341 C 504.772 456.626 502.387 455.973 497.904 465.139 C 493.306 474.546 488.669 475.614 451.375 475.847 C 432.126 475.963 417.447 476.739 414.061 477.808 C 405.759 480.43 398.025 479.951 392.138 476.457 C 380.624 469.614 294.924 469.31 260.361 475.977 C 253.425 477.321 247.105 477.829 246.268 477.117 C 245.422 476.406 242.209 470.493 239.112 463.971 C 236.024 457.455 233.032 453.075 232.474 454.244 C 231.916 455.406 229.636 461.755 227.405 468.336 L 223.365 480.313 L 197.421 480.06 C 179.057 479.871 166.408 478.89 154.133 476.689 C 127.891 471.982 121.61 472.389 109.528 479.609 C 96.243 487.534 91.722 488.681 73.533 488.71 C 56.756 488.74 48.453 486.764 38.4 480.364 C 28.14 473.835 25.516 467.501 26.895 452.617 C 27.543 445.622 28.932 429.453 29.981 416.691 C 31.031 403.921 33.412 380.684 35.272 365.038 C 40.288 322.865 39.838 243.719 34.25 185.253 C 31.882 160.484 29.746 127.478 29.5 111.897 C 29 80.045 29.645 78.069 43.389 69.389 C 61.716 57.807 127.179 38.922 157.899 36.348 C 199.552 32.861 227.198 31.643 227.919 33.267 C 228.843 35.377 234.259 35.428 234.259 33.326 C 234.259 32.276 238.799 32.038 247.639 32.625 C 255.008 33.114 275.747 34.14 293.745 34.906 C 311.734 35.672 329.434 36.757 333.079 37.319 C 339.274 38.271 339.621 38.643 338.418 42.989 C 337.716 45.546 336.773 50.334 336.34 53.628 L 335.542 59.617 L 337.504 53.473 C 338.582 50.094 341.439 45.952 343.863 44.269 L 348.269 41.21 L 370.076 44.756 C 382.783 46.822 398.713 48.32 408.246 48.346 C 423.262 48.384 424.599 48.144 424.599 45.415 C 424.599 43.604 427.706 40.89 432.535 38.477 C 440.452 34.518 440.529 34.512 467.204 35.58 C 482.883 36.207 511.116 35.905 535.492 34.85 C 558.339 33.859 579.299 33.477 582.051 34 C 584.811 34.521 588.063 36.357 589.284 38.078 C 591.151 40.709 590.65 41.875 586.177 45.406 C 582.156 48.568 581.194 50.439 582.272 52.988 L 583.695 56.372 L 587.303 52.756 C 590.718 49.34 591.891 49.164 608.379 49.596 C 620.153 49.904 632.63 49.051 646.664 46.979 C 668.366 43.775 679.457 43.235 690.202 44.858 C 696.262 45.772 697.773 47.181 701.101 55.02 C 702.159 57.514 702.794 57.206 705.718 52.775 L 709.114 47.639 L 724.332 47.907 L 739.55 48.174 L 738.502 43.301 C 736.828 35.473 741.849 32.835 756.278 33.973 C 766.417 34.774 773.651 37.279 810.907 52.89 C 864.055 75.163 892.009 88.347 897.069 93.541 C 902.869 99.49 900.32 106.754 889.441 115.332 C 884.592 119.161 880.62 122.487 880.62 122.727 C 880.62 122.974 883.217 122.778 886.401 122.299 C 899.772 120.279 925.783 130.935 931.151 140.639 C 934.998 147.605 935.008 166.44 931.17 182.849 C 928.996 192.089 925.725 198.923 918.424 209.427 C 907.852 224.645 890.874 261.748 885.593 281.192 C 883.804 287.78 881.61 301.596 880.716 311.889 C 878.869 333.063 881.37 418.826 884.737 450.125 C 887.815 478.658 885.487 489.001 875.175 492.669 C 868.893 494.899 800.066 494.935 784.463 492.713 Z M 802.043 481.439 C 800.311 477.132 799.696 472.047 800.465 468.539 C 801.668 463.098 816.424 430.063 827.842 407.247 C 840.3 382.362 843.185 342.186 838.943 252.748 C 837.5 222.284 836.25 187.585 836.163 175.643 C 836.019 154.971 836.279 153.518 841.464 145.151 C 844.465 140.312 846.918 136.136 846.918 135.86 C 846.918 135.591 842.579 135.751 837.279 136.223 C 831.738 136.724 824.495 136.303 820.253 135.249 C 812.23 133.245 799.33 125.502 799.33 122.676 C 799.33 121.71 796.242 116.044 792.462 110.088 C 783.756 96.374 754.244 72.549 741.286 68.793 C 736.159 67.304 731.648 64.668 729.637 61.994 C 727.829 59.595 724.625 56.929 722.5 56.073 C 718.969 54.646 718.373 55.374 715.372 64.769 C 713.573 70.406 712.091 76.333 712.091 77.938 C 712.091 82.086 706.31 85.471 698.22 86.059 L 691.275 86.567 L 691.948 79.885 C 692.631 73.181 690.399 65.467 685.032 56.033 L 682.146 50.952 L 665.812 51.901 C 656.827 52.422 645.169 53.956 639.916 55.308 C 632.74 57.155 625.997 57.579 612.847 57.013 C 594.07 56.205 593.137 56.545 593.137 64.13 C 593.137 66.07 592.252 69.411 591.165 71.553 C 589.462 74.946 588.664 75.237 585.057 73.776 C 578.044 70.944 574.716 62.481 575.764 50.136 C 576.515 41.26 576.12 38.978 573.706 38.277 C 572.061 37.8 557.093 38.617 540.461 40.094 C 511.246 42.686 479.387 42.65 454.809 40 C 448.556 39.323 444.987 39.765 441.072 41.704 L 435.782 44.32 L 444.343 46.729 C 453.76 49.381 463.332 57.28 454.578 55.182 C 450.73 54.259 448.46 55.402 440.12 62.467 C 434.685 67.072 428.942 70.842 427.374 70.842 C 424.181 70.842 420.641 65.002 420.641 59.755 C 420.641 56.469 419.688 56.28 394.37 54.544 C 379.921 53.554 365.059 52.346 361.346 51.859 L 354.593 50.975 L 355.892 58.135 C 356.729 62.721 356.373 66.041 354.92 67.37 C 353.199 68.932 353.218 70.914 355.026 75.454 C 357.335 81.287 357.133 81.81 348.062 93.418 C 342.915 99.991 337.74 105.149 336.547 104.879 C 331.93 103.841 324.811 89.778 323.215 78.541 C 319.155 49.901 318.261 45.341 316.452 43.973 C 314.345 42.382 268.528 37.944 253.993 37.922 L 244.97 37.908 L 242.488 46.985 C 239.593 57.576 236.139 58.313 228.963 49.875 C 219.978 39.309 219.103 38.709 213.216 39.072 C 175.633 41.388 130.941 47.858 120.571 52.481 C 119.657 52.891 124.12 54.815 130.489 56.756 C 136.857 58.697 144.187 62.118 146.774 64.362 C 150.911 67.951 151.353 69.52 150.497 77.503 C 149.266 88.958 138.386 113.596 124.505 136.332 C 113.529 154.332 99.841 184.171 94.292 202.228 C 86.202 228.545 83.216 250.99 82.15 293.497 C 80.733 350.01 83.739 367.951 101.419 408.453 C 112.067 432.859 115.242 443.915 115.271 456.786 C 115.299 467.108 115.511 467.609 119.138 466.149 C 125.015 463.774 133.384 464.268 153.441 468.176 C 172.805 471.946 205.944 474.495 209.743 472.505 C 212.485 471.081 221.2 450.576 224.086 438.808 C 225.24 434.095 227.549 428.233 229.232 425.784 C 230.906 423.33 232.311 419.443 232.349 417.134 L 232.407 412.942 L 237.072 416.945 C 241.401 420.656 246.163 434.472 246.163 443.327 C 246.163 445.077 248.164 447.917 250.607 449.638 C 253.983 452.014 255.051 454.454 255.061 459.8 C 255.08 466.419 255.378 466.818 260.044 466.425 C 262.766 466.2 292.904 465.379 327.014 464.61 C 389.55 463.193 391.34 463.287 402.796 468.467 C 408.28 470.951 420.063 470.457 429.702 467.341 C 433.059 466.251 444.141 465.438 455.954 465.401 L 476.395 465.343 L 484.697 458.537 C 489.266 454.796 494.037 450.416 495.297 448.811 C 497.452 446.043 497.904 446.015 503.387 448.288 C 509.121 450.663 509.236 450.634 511.304 446.486 C 514.883 439.331 520.741 439.564 546.838 447.903 C 569.059 455.007 590.79 460.353 614.588 464.573 C 620.389 465.597 626.844 467.827 628.921 469.519 C 632.606 472.498 632.836 472.513 636.723 469.861 C 641.504 466.592 641.744 462.678 637.694 454.005 C 635.405 449.115 635.164 446.435 636.694 443.109 C 637.819 440.682 638.733 437.007 638.733 434.938 C 638.733 430.484 647.285 418.899 651.469 417.685 C 654.519 416.807 655.327 418.064 657.578 427.165 C 658.28 430.048 661.454 437.211 664.61 443.072 C 667.774 448.942 670.939 457.432 671.641 461.951 L 672.921 470.159 L 694.988 471.031 C 711.716 471.691 723.279 473.217 742.825 477.342 C 784.661 486.175 796.117 488.383 800.629 488.47 C 804.804 488.55 804.833 488.391 802.043 481.439 Z M 465.987 63.73 C 463.524 61.363 463.592 61.305 466.737 63.171 C 470.037 65.125 471.085 66.353 469.459 66.353 C 469.046 66.353 467.487 65.176 465.987 63.73 Z M 860.423 482.652 C 860.924 481.534 860.173 480.975 858.692 481.345 C 857.259 481.709 855.7 482.885 855.219 483.968 C 854.729 485.086 855.469 485.653 856.96 485.275 C 858.384 484.919 859.952 483.735 860.423 482.652 Z M 582.228 471.554 C 600.477 469.962 602.901 469.469 597.1 468.517 C 585.336 466.592 553.149 458.355 539.912 453.874 C 532.996 451.534 527.003 449.625 526.599 449.625 C 526.195 449.625 524.906 450.975 523.742 452.617 C 522.213 454.767 522.251 456.503 523.848 458.762 C 525.733 461.421 525.233 462.568 520.635 466.193 L 515.19 470.486 L 519.962 471.815 C 522.588 472.549 526.07 473.572 527.705 474.096 C 531.159 475.193 551.244 474.255 582.228 471.554 Z M 58.362 460.114 C 63.576 460.106 70.937 461.08 74.72 462.278 C 82.329 464.675 82.238 464.783 79.676 456.365 C 78.673 453.067 75.393 436.899 72.386 420.432 C 67.359 392.895 66.953 387.119 67.341 348.564 C 67.856 297.29 70.787 250.271 74.715 230.296 C 80.322 201.764 90.512 175.774 113.46 131.48 C 124.099 110.938 125.994 105.817 126.754 95.502 C 127.485 85.624 127.072 83.111 124.398 81.44 C 119.857 78.592 118.934 79.973 121.685 85.479 C 123.666 89.445 123.426 91.289 120.126 97.296 C 115.163 106.355 103.543 113.183 86.259 117.213 C 69.774 121.063 56.859 121.093 47.034 117.308 L 39.391 114.366 L 40.764 136.397 C 41.519 148.513 43.403 170.392 44.949 185.014 C 52.1 252.632 50.48 327.877 39.927 418.157 C 37.764 436.673 35.993 455.021 35.993 458.937 L 35.993 466.048 L 42.437 463.084 C 46.482 461.217 52.411 460.114 58.362 460.114 Z M 848.784 461.602 C 853.68 461.602 861.53 462.706 866.224 464.064 C 870.918 465.416 875.045 466.259 875.391 465.938 C 875.747 465.612 875.247 458.944 874.295 451.121 C 873.342 443.297 872.371 405.235 872.13 366.534 L 871.698 296.164 L 877.104 277.299 C 884.068 252.995 891.581 236.92 908.521 210.08 C 920.795 190.621 927.741 174.721 924.855 172.651 C 924.278 172.244 922.344 173.573 920.555 175.614 C 913.571 183.568 905.096 189.706 897.497 192.314 C 888.782 195.306 868.831 196.055 862.809 193.621 C 855.008 190.469 851.939 173.762 857.634 165.437 C 863.81 156.431 876.95 153.227 878.296 160.404 C 879.104 164.653 883.366 163.898 884.251 159.351 C 885.607 152.341 874.949 148.818 860.972 151.658 C 844.725 154.963 843.628 161.799 848.005 232.54 C 850.506 272.919 851.025 298.321 850.006 329.853 C 849.246 353.321 848.803 373.87 849.024 375.513 C 849.236 377.161 849.409 384.911 849.39 392.735 C 849.361 404.582 847.822 411.591 840.203 434.704 C 835.172 449.965 831.055 463.309 831.055 464.355 C 831.055 465.772 832.19 465.662 835.461 463.933 C 837.885 462.648 843.878 461.602 848.784 461.602 Z M 888.272 190.497 C 892.081 187.817 892.62 186.096 892.12 178.266 C 891.793 173.246 890.571 168.91 889.397 168.612 C 888.224 168.321 884.876 169.753 881.961 171.793 C 877.623 174.829 876.661 176.82 876.661 182.762 C 876.661 189.204 879.085 193.614 882.625 193.614 C 883.299 193.614 885.838 192.211 888.272 190.497 Z M 839.405 113.887 C 838.597 102.875 843.58 97.267 858.798 92.081 C 865.281 89.873 870.611 87.563 870.649 86.96 C 870.736 85.515 861.905 81.36 823.889 64.944 C 776.676 44.564 757.091 37.375 752.051 38.583 C 743.672 40.592 747.395 45.33 773.079 65.351 C 801.119 87.208 816.039 100.267 823.061 109.13 C 828.91 116.487 835.067 121.746 837.847 121.753 C 839.174 121.753 839.761 118.775 839.405 113.887 Z M 867.734 112.768 C 868.437 111.903 867.022 111.431 864.387 111.642 C 860.472 111.962 859.808 111.338 859.808 107.342 C 859.818 104.211 858.99 102.904 857.336 103.384 C 853.882 104.386 854.229 109.086 857.961 111.911 C 861.51 114.584 865.926 114.976 867.734 112.768 Z M 91.761 105.86 C 97.334 102.054 96.361 99.955 86.755 95.059 C 75.992 89.576 73.67 90.81 73.67 102.032 L 73.67 110.161 L 80.855 109.282 C 84.808 108.795 89.715 107.255 91.761 105.86 Z M 92.583 90.215 C 93.3 89.336 92.478 87.447 90.758 86.016 C 87.906 83.634 87.921 83.183 90.941 80.903 C 95.621 77.371 92.321 75.73 85.949 78.418 C 78.976 81.367 78.059 86.321 83.912 89.416 C 89.221 92.227 90.818 92.372 92.583 90.215 Z M 435.633 53.023 C 434.007 51.036 428.572 50.832 428.572 52.758 C 428.572 53.513 429.139 55.249 429.832 56.616 C 430.948 58.81 431.438 58.841 434.036 56.882 C 435.652 55.663 436.373 53.925 435.633 53.023 Z" style="fill: url(#pattern-0-1);"/>
          <path id="path2861" d="M 778.38 466.865 C 733.07 459.4 728.61 458.905 709.33 459.23 L 688.73 459.582 L 687.25 450.853 C 685.69 441.635 680.62 431.349 676.89 429.851 C 674.73 428.978 675.85 445.414 678.58 454.527 C 679.22 456.638 678.5 459.289 676.93 460.67 C 674.65 462.676 673.18 462.852 668.51 461.699 C 648.59 456.761 605.08 457.419 577.42 463.067 C 556.62 467.308 539.49 465.888 530.28 459.152 C 527.56 457.159 526.83 455.296 527.8 452.788 C 528.55 450.84 528.1 447.153 526.81 444.606 C 523.54 438.15 518.48 439.173 515.1 446.964 C 511.27 455.797 507.62 456.566 468.18 456.885 C 448.91 457.042 432.78 457.797 429.39 458.703 C 420.79 461.009 412.71 460.592 406.76 457.543 C 395.28 451.661 318.93 450.918 277.56 456.286 C 266.81 457.687 257.35 458.39 256.53 457.862 C 253.51 455.895 244.54 438.574 244.54 434.711 C 244.54 426.698 240.65 431.03 236.38 443.805 C 233.97 451.009 231.23 457.804 230.28 458.911 C 227.6 462.058 180.73 461.25 157.98 457.66 C 131.48 453.491 125.32 453.843 112.81 460.292 C 98.987 467.406 93.954 468.52 75.53 468.552 C 58.55 468.572 51.26 467.197 40.77 461.986 C 30.023 456.644 25.251 448.26 26.852 437.518 C 45.687 311.213 143.381 211.199 128.282 81.526 C 126.47 65.969 125.482 50.407 126.086 46.954 C 128.984 30.356 145.619 21.314 195.652 9.146 C 230.036 0.784 249.676 -2.296 282.486 -4.474 C 299.786 -5.622 220.64 61.071 225.44 60.634 C 233.45 59.904 234.33 60.125 236.21 63.344 C 238.75 67.698 242.48 67.918 242.48 63.715 C 242.48 60.64 242.8 60.591 259.49 61.131 C 281.01 61.828 284.63 62.579 267.11 62.716 C 251.89 62.835 248.66 64.162 248.66 70.311 C 248.66 75.945 244.26 78.436 239.95 75.237 C 238.22 73.947 235.21 70.854 233.27 68.363 C 229.84 63.956 229.48 63.856 220.14 64.696 C 214.86 65.171 298.946 -1.815 288.176 -1.062 C 262.616 0.724 205.686 10.02 208.616 11.93 C 209.196 12.304 214.066 13.146 219.446 13.801 C 240.386 16.35 251.076 22.024 251.076 30.59 C 251.076 39.815 238.626 63.618 220.236 89.551 C 210.406 103.414 99.257 198.757 94.004 214.548 C 79.183 259.079 76.447 328.326 88.045 365.399 C 90.349 372.766 96.764 387.932 102.3 399.11 C 114.09 422.913 117.71 434.997 116.11 445.127 C 114.99 452.195 115.12 452.436 119.46 451.609 C 131.67 449.283 137.56 449.466 155.96 452.716 C 177.46 456.514 220.28 458.989 222.58 456.566 C 223.3 455.81 226.74 447.759 230.23 438.678 C 233.72 429.597 237.96 420.431 239.65 418.301 C 245.38 411.083 249.97 415.995 250.48 429.91 C 250.62 433.525 252.74 440.072 255.19 444.463 L 259.66 452.436 L 268.07 451.55 C 272.7 451.068 305.65 450.365 341.29 449.987 C 405.23 449.316 406.21 449.348 414.18 452.267 C 423.5 455.68 436.44 455.354 449.22 451.381 C 455.72 449.361 458.21 449.257 467.26 450.619 C 480.2 452.566 499.05 452.671 504.34 450.82 C 506.62 450.026 509.66 446.358 511.55 442.124 C 513.35 438.092 515.76 434.418 516.9 433.955 C 518.04 433.499 521.28 434.528 524.09 436.248 C 528.4 438.886 529.49 439.069 531.12 437.395 C 532.17 436.307 533.05 434.378 533.07 433.115 C 533.09 431.844 535 430.151 537.32 429.343 C 540.79 428.131 545.76 429.082 565.66 434.776 C 578.93 438.567 598.13 443.199 608.33 445.055 C 630.39 449.075 637.1 451.218 623.79 450 C 613.86 449.094 576.05 441.069 558.51 436.15 C 543.55 431.955 540.32 432.665 540.3 440.144 C 540.29 444.938 539.61 446.085 536.94 445.798 C 532.93 445.368 530.45 450.319 533.09 453.524 C 535.4 456.338 548.36 458.918 560.13 458.898 C 565.1 458.892 579.08 458.038 591.19 456.996 C 606 455.719 622.44 455.354 641.42 455.869 L 669.63 456.644 L 668.29 440.658 C 667.32 429.082 667.72 422.822 669.72 417.962 C 673.01 409.995 677.77 409.018 679.54 415.943 C 680.2 418.529 683.31 424.802 686.45 429.884 C 689.59 434.965 692.6 441.31 693.15 443.98 C 695.5 455.55 694.4 454.885 711.25 454.885 C 730.2 454.885 750.05 457.322 787.42 464.233 C 817.49 469.797 836.11 472.487 838.33 471.595 C 839.04 471.308 837.96 467.894 835.94 463.999 C 833.85 459.973 832.76 455.192 833.41 452.886 C 834.82 447.909 854.43 410.341 862.65 396.863 C 865.96 391.43 870.25 380.356 872.19 372.258 C 876.09 355.927 877.74 352.852 877.19 362.943 C 877 366.617 877.81 372.304 879 375.581 C 881.65 382.87 879.21 397.964 873.24 411.246 C 870.91 416.419 866.66 427.434 863.79 435.733 C 858.1 452.162 858.48 458.735 865.4 463.237 C 869.8 466.103 869.04 467.764 863.91 466.481 C 862.11 466.031 859.2 463.426 857.45 460.696 C 853.55 454.612 854.69 447.172 862.88 425.2 C 868.4 410.406 872.79 393.019 870.65 394.465 C 870.1 394.83 863.28 406.315 855.49 419.975 C 843.36 441.251 841.33 446.078 841.29 453.635 C 841.25 461.048 842.15 463.347 846.94 468.07 L 852.63 473.679 L 871.18 473.679 C 894.15 473.679 906.63 470.539 910.22 463.843 C 912.23 460.116 911.98 459.296 908.22 457.309 C 905.87 456.058 898.76 453.771 892.43 452.228 C 881.85 449.654 880.52 449.596 876.02 451.511 C 873.33 452.664 871.13 454.833 871.13 456.338 C 871.13 457.843 870.2 458.696 869.07 458.24 C 867.93 457.784 867 455.654 867 453.511 C 867 446.365 879.41 444.866 899.02 449.641 C 905.37 451.192 910.99 452.188 911.5 451.856 C 912.01 451.524 911.42 442.547 910.17 431.916 C 908.93 421.285 907.75 387.515 907.56 356.872 C 907.21 303.774 907.42 300.386 911.93 285.032 C 918.34 263.235 928.1 244.839 946.8 219.323 C 962.4 198.027 962.49 197.858 963.45 184.882 C 964.67 168.244 963.16 163.274 955.03 157.242 C 938.05 144.636 915.74 144.402 890.39 156.564 C 882.63 160.284 881.5 161.593 878.42 170.413 C 874.24 182.387 874.21 195.194 878.2 262.499 C 879.91 291.481 880.62 320.984 879.81 330.3 L 878.39 346.8 L 877.02 335.387 C 876.27 329.108 875.55 312.49 875.41 298.465 C 875.27 284.433 874.27 260.512 873.17 245.315 C 872.08 230.117 870.98 207.154 870.72 194.295 L 870.25 170.908 L 876.74 161.873 C 884.32 151.327 883.67 150.63 866.75 151.248 C 858.23 151.555 853 150.949 847.03 148.968 C 836.86 145.581 835.41 144.428 829.92 135.321 C 827.47 131.263 822.72 124.918 819.37 121.231 L 813.28 114.514 L 821.29 120.169 C 825.78 123.341 831.26 129.347 833.78 133.849 C 839.07 143.288 846.84 148.115 858.89 149.437 C 869.98 150.662 873.9 148.415 865.57 145.607 C 862.25 144.493 855.98 140.057 851.63 135.757 C 847.28 131.458 839.93 124.918 835.31 121.231 C 823.85 112.085 775.95 79.782 772.49 78.868 C 770.9 78.446 769.41 75.567 769.02 72.164 C 768.19 64.925 772.14 61.477 781.27 61.484 L 787.65 61.489 L 780.95 64.15 C 769.03 68.883 771.06 71.707 800.58 91.493 C 831.11 111.961 842.11 120.319 853.6 131.758 C 861.6 139.725 873.44 145.698 881.74 145.959 C 884.71 146.056 896.3 141.679 912 134.539 C 917.81 131.894 924.7 124.82 924.71 121.485 C 924.71 120.149 919.98 115.791 914.18 111.798 L 903.65 104.541 L 915.2 108.619 C 927.37 112.912 932.96 116.807 932.96 120.99 C 932.96 126.116 925.83 133.015 915.07 138.311 C 908.98 141.308 904.34 143.985 904.77 144.265 C 905.2 144.545 910.17 144.076 915.83 143.223 C 928.2 141.366 941.73 143.744 955.07 150.141 C 968.2 156.427 970.84 161.476 969.41 177.533 C 967.98 193.741 962.61 205.89 950.4 220.586 C 941.08 231.804 925.82 260.558 918.53 280.655 C 911.7 299.455 910.12 323.115 912.38 372.31 C 913.5 396.68 915.39 424.47 916.59 434.072 C 919.45 456.963 917.84 466.279 910.2 471.262 L 904.42 475.021 L 865.62 474.936 L 826.81 474.852 L 778.38 466.865 Z M 96.14 461.595 C 102.851 459.256 106.861 451.511 108.011 438.691 C 109.021 427.389 108.821 426.783 96.352 402.706 C 89.375 389.241 82.283 373.568 80.592 367.881 C 75.545 350.911 -39.308 338.526 -37.859 309.479 C -34.986 251.86 181.445 141.164 218.877 78.555 C 246.777 31.88 247.747 26.91 229.967 21.653 C 212.777 16.57 170.023 19.861 151.928 27.659 C 143.167 31.437 135.657 40.564 135.657 47.436 C 135.657 51.43 137.35 53.234 146.159 58.602 L 156.661 64.999 L 169.387 64.334 C 183.552 63.592 201.077 58.563 209.077 52.941 C 216.387 47.801 215.797 41.163 207.797 38.466 C 200.027 35.854 200.007 35.111 207.717 35.111 C 214.537 35.111 222.227 39.548 222.227 43.476 C 222.227 47.443 214.707 55.957 207.917 59.677 C 199.597 64.243 180.623 68.784 166.192 69.663 C 156.086 70.282 153.197 69.891 145.194 66.836 C 140.09 64.888 135.5 63.748 134.993 64.308 C 134.007 65.396 -48.721 190.096 -45.316 216.661 C -38.792 267.564 48.675 326.899 37.637 409.605 C 31.925 452.397 32.527 457.237 42.56 449.179 C 45.763 446.606 48.252 446.169 59.379 446.221 C 67.605 446.267 74.919 447.146 79.138 448.606 C 87.269 451.42 87.242 451.524 82.807 434.743 C 76.379 410.419 69.009 358.878 72.264 361.008 C 72.734 361.314 74.182 367.913 75.482 375.665 C 78.001 390.694 90.998 443.342 93.92 450.351 C 96.893 457.491 94.138 458.071 79.112 453.491 C 63.212 448.645 51.968 448.475 47.37 453.016 C 44.867 455.485 44.967 456.208 48.166 458.748 C 54.579 463.836 84.597 465.621 96.14 461.595 Z M 345.91 116.149 C 340.6 111.98 339.26 106.814 341.45 98.945 C 343.29 92.327 343.1 90.412 340.22 86.783 C 337.8 83.731 337.14 80.631 337.97 76.104 L 339.13 69.726 L 329.45 68.389 C 324.13 67.653 313.03 66.624 304.78 66.103 C 290.25 65.183 281.68 62.762 293.37 62.88 C 304.31 62.991 347.74 66.497 349.1 67.378 C 349.84 67.863 349.35 70.252 347.99 72.686 C 344.84 78.36 344.85 84.664 348.01 86.724 C 352.01 89.324 353.01 88.62 352.14 83.811 C 351.39 79.625 355.62 71.958 359.54 70.378 C 360.46 70.009 369.51 70.931 379.65 72.426 C 389.8 73.921 407.83 75.864 419.72 76.745 C 438.58 78.141 441.44 78.685 442.08 80.99 C 443.31 85.424 446.12 86.308 450.61 83.662 C 456.62 80.118 456.07 76.249 449.56 76.249 C 441.75 76.249 440.63 72.41 447.33 68.653 C 453.96 64.938 458.98 64.423 454.07 67.963 C 448.91 71.675 449.72 74.906 455.81 74.906 C 463.08 74.906 462.5 78.751 454.16 85.879 C 445.55 93.232 442 93.291 439.82 86.126 C 437.83 79.579 435.7 78.979 414.34 78.952 C 406.27 78.942 391.6 78.017 381.74 76.897 C 371.88 75.777 362.94 75.209 361.89 75.634 C 360.83 76.059 359.97 80.148 359.98 84.72 C 359.99 89.291 358.91 97.864 357.58 103.772 C 354.61 117.022 351.38 120.442 345.91 116.149 Z M 794.75 103.583 C 787.44 98.717 777.57 93.584 772.81 92.17 C 768.05 90.763 762.18 87.806 759.77 85.594 C 754.95 81.185 744.37 77.018 741.21 78.287 C 740.11 78.73 739.12 81.625 739.02 84.72 C 738.91 87.812 737.75 93.669 736.44 97.734 C 734.49 103.798 733.23 105.192 729.42 105.544 C 724.29 106.02 724.03 105.499 724.73 95.903 C 725.19 89.539 720.22 79.445 715.57 77.276 C 710.9 75.102 677.45 76.21 665.55 78.934 C 653.21 81.758 633.67 82.467 625.3 80.395 C 618.33 78.668 615.4 80.358 612.51 87.78 C 609.58 95.291 606.13 96.743 603.19 91.714 C 600.42 86.965 600.58 84.305 603.62 84.305 C 604.99 84.305 608.01 82.768 610.32 80.89 C 614.34 77.616 615.59 77.453 640.28 76.973 C 654.45 76.698 671.61 75.537 678.41 74.394 C 691.57 72.183 705.73 71.686 716.31 73.063 C 721.14 73.693 723.06 74.797 723.9 77.427 C 726.07 84.194 733.03 88.731 733.03 83.373 C 733.03 78.672 738.97 74.906 746.38 74.906 C 755.56 74.906 759.83 76.082 759.83 78.615 C 759.83 81.85 769.91 89.675 774.08 89.675 C 776.14 89.675 780.16 90.874 783.02 92.34 C 789.81 95.818 810.09 111.088 808.93 111.843 C 808.44 112.163 802.05 108.45 794.75 103.583 Z M 878.91 96.072 C 869.02 92.268 861.26 88.939 861.67 88.679 C 862.54 88.105 897.92 101.584 897.92 102.482 C 897.92 103.401 898.26 103.518 878.91 96.072 Z M 603.16 70.224 C 608.24 66.234 604.09 64.165 591 64.165 C 584.23 64.165 578.12 63.56 577.42 62.822 C 576.62 61.98 581.07 61.479 589.34 61.479 C 599.51 61.479 603.32 62.043 605.95 63.935 C 610.26 67.036 610.33 70.35 606.1 71.405 C 601.07 72.664 600.39 72.394 603.16 70.224 Z M 510.43 67.035 C 512.13 66.339 525.11 65.433 539.28 65.024 C 555.77 64.547 562.08 64.693 556.8 65.426 C 543.87 67.225 506.83 68.511 510.43 67.035 Z" style="fill: url(#pattern-0-2);"/>
        </g>
      </g>
    </g>
    <g transform="matrix(0.857676, -0.514192, 0.514192, 0.857676, -385.270966, 241.535599)">
      <g transform="matrix(0.041173, 0, 0, 0.113226, 216.833542, 839.528015)">
        <g id="g-2" transform="translate(-26.384 -60.263)">
          <g id="g-3">
            <path id="path-1" d="M 827.268 505.077 C 820.468 503.67 798.788 497.153 779.098 490.579 C 746.138 479.6 741.678 478.77 723.138 480.205 C 709.808 481.247 702.218 480.684 700.718 478.587 C 699.468 476.827 698.358 468.142 698.248 459.288 C 698.128 450.435 697.318 439.92 696.438 435.937 C 695.568 431.939 695.318 440.455 695.888 454.841 C 697.218 487.891 695.758 490.495 679.558 484.146 C 673.508 481.782 663.888 479.009 658.178 478.009 C 644.578 475.602 605.908 481.542 590.238 488.44 C 573.858 495.647 565.608 495.309 552.788 486.919 C 540.838 479.079 536.818 471.295 538.658 459.514 C 539.338 455.136 539.078 448.408 538.078 444.593 C 536.358 438.062 536.068 438.428 533.238 450.561 C 528.608 470.437 522.138 473.857 490.278 473.294 C 472.058 472.97 459.238 474.406 446.518 478.178 L 428.518 483.513 L 421.888 476.616 C 416.708 471.239 411.358 469.226 397.628 467.537 C 358.438 462.695 309.268 466.059 283.578 475.349 C 277.018 477.728 270.838 478.952 269.838 478.08 C 268.838 477.221 265.548 467.382 262.518 456.22 C 259.488 445.058 256.708 435.937 256.338 435.937 C 255.968 435.937 254.008 445.818 251.978 457.895 C 249.408 473.266 247.088 480.782 244.238 482.922 C 238.328 487.384 196.168 483.217 173.968 475.982 C 147.138 467.255 141.868 467.607 131.278 478.91 C 115.878 495.337 107.443 499.63 90.418 499.672 C 78.428 499.7 72.647 498.166 64.654 492.859 C 45.243 479.98 39.501 462.667 41.722 423.733 C 42.478 410.487 -0.923 365.393 0.121 333.483 C 1.166 301.573 -19.244 280.891 -17.81 260.946 C -13.964 207.443 37.98 479.366 33.777 393.433 C 29.255 300.954 27.436 202.705 29.91 184.533 C 31.519 172.737 33.631 167.811 41.256 158.07 C 53.773 142.08 79.031 125.124 117.21 107.079 C 147.24 92.89 150.09 92.097 178.59 89.97 C 195.02 88.744 214.36 86.8 221.55 85.651 C 231.52 84.059 235.04 84.486 236.34 87.444 C 237.69 90.527 238.67 90.595 241.09 87.774 C 243.44 85.026 250.82 84.898 273.71 87.207 C 289.97 88.849 310.7 90.219 319.77 90.253 C 342.17 90.334 352.06 92.909 353.18 98.95 C 353.81 102.289 355.61 103.46 358.8 102.6 C 361.39 101.905 372.68 103.965 383.89 107.179 C 395.11 110.394 411.45 113.925 420.21 115.028 C 435.88 116.998 436.18 116.909 438.11 109.784 C 439.18 105.798 442.74 99.851 446.02 96.57 C 451.66 90.917 454.89 90.593 507.48 90.409 C 538.01 90.302 570.41 89.122 579.48 87.789 C 608.08 83.582 621.15 94.353 609.18 112.281 C 604.19 119.753 605.13 125.407 610.35 119.315 C 612.46 116.843 619.73 115.805 632.55 116.14 C 644.79 116.459 767.968 112.5 783.418 108.455 C 802.308 103.506 810.058 102.696 819.468 104.689 C 830.418 107.006 831.768 108.113 834.988 117.382 C 836.928 122.967 838.558 125.453 838.608 122.908 C 838.658 120.363 840.528 115.963 842.748 113.129 C 846.158 108.795 848.928 108.3 860.248 110.007 L 873.708 112.036 L 872.638 103.828 C 870.798 89.648 873.898 86.878 891.168 87.276 C 906.508 87.629 906.968 87.87 939.148 112.345 C 983.058 145.732 928.017 141.849 936.607 152.476 C 948.587 167.27 840.089 186.35 826.569 206.718 L 821.509 214.333 L 828.349 216.149 C 837.759 218.64 859.219 233.364 863.169 240.036 C 869.789 251.24 783.395 306.119 782.095 338.916 C 780.175 387.281 905.007 434.698 894.717 461.428 C 884.117 488.946 933.36 500.382 924.64 547.747 C 915.05 599.884 840.094 263.582 840.094 263.582 C 840.094 263.582 792.068 404.53 793.068 421.28 C 796.008 470.87 935.488 499.391 924.418 505.021 C 916.538 509.033 846.688 509.075 827.268 505.077 L 827.268 505.077 Z M 450.66 127.962 C 450.66 126.367 449.73 125.061 448.59 125.061 C 447.46 125.061 446.53 126.367 446.53 127.962 C 446.53 129.558 447.46 130.863 448.59 130.863 C 449.73 130.863 450.66 129.558 450.66 127.962 Z" style="fill: url(#pattern-1);"/>
            <path id="path-2" d="M 784.468 492.713 C 779.014 491.936 757.851 488.253 737.439 484.52 C 703.78 478.367 698.518 477.785 680.934 478.28 L 661.541 478.818 L 660.117 468.081 C 659.338 462.176 657.337 455.101 655.673 452.363 C 652.749 447.561 652.691 447.816 654.009 459.357 C 655.76 474.75 655.596 479.406 653.239 481.193 C 652.008 482.115 646.775 481.752 638.589 480.161 C 620.966 476.747 576.313 477.982 556.458 482.441 C 540.268 486.081 530.081 486.372 521.193 483.474 C 508.765 479.406 506.975 477.517 505.898 467.341 C 504.772 456.626 502.387 455.973 497.904 465.139 C 493.306 474.546 488.669 475.614 451.375 475.847 C 432.126 475.963 417.447 476.739 414.061 477.808 C 405.759 480.43 398.025 479.951 392.138 476.457 C 380.624 469.614 294.924 469.31 260.361 475.977 C 253.425 477.321 247.105 477.829 246.268 477.117 C 245.422 476.406 242.209 470.493 239.112 463.971 C 236.024 457.455 233.032 453.075 232.474 454.244 C 231.916 455.406 229.636 461.755 227.405 468.336 L 223.365 480.313 L 197.421 480.06 C 179.057 479.871 166.408 478.89 154.133 476.689 C 127.891 471.982 121.61 472.389 109.528 479.609 C 96.243 487.534 91.722 488.681 73.533 488.71 C 56.756 488.74 48.453 486.764 38.4 480.364 C 28.14 473.835 25.516 467.501 26.895 452.617 C 27.543 445.622 28.932 429.453 29.981 416.691 C 31.031 403.921 33.412 380.684 35.272 365.038 C 40.288 322.865 39.838 243.719 34.25 185.253 C 31.882 160.484 29.746 127.478 29.5 111.897 C 29 80.045 29.645 78.069 43.389 69.389 C 61.716 57.807 127.179 38.922 157.899 36.348 C 199.552 32.861 227.198 31.643 227.919 33.267 C 228.843 35.377 234.259 35.428 234.259 33.326 C 234.259 32.276 238.799 32.038 247.639 32.625 C 255.008 33.114 275.747 34.14 293.745 34.906 C 311.734 35.672 329.434 36.757 333.079 37.319 C 339.274 38.271 339.621 38.643 338.418 42.989 C 337.716 45.546 336.773 50.334 336.34 53.628 L 335.542 59.617 L 337.504 53.473 C 338.582 50.094 341.439 45.952 343.863 44.269 L 348.269 41.21 L 370.076 44.756 C 382.783 46.822 398.713 48.32 408.246 48.346 C 423.262 48.384 424.599 48.144 424.599 45.415 C 424.599 43.604 427.706 40.89 432.535 38.477 C 440.452 34.518 440.529 34.512 467.204 35.58 C 482.883 36.207 511.116 35.905 535.492 34.85 C 558.339 33.859 579.299 33.477 582.051 34 C 584.811 34.521 588.063 36.357 589.284 38.078 C 591.151 40.709 590.65 41.875 586.177 45.406 C 582.156 48.568 581.194 50.439 582.272 52.988 L 583.695 56.372 L 587.303 52.756 C 590.718 49.34 591.891 49.164 608.379 49.596 C 620.153 49.904 632.63 49.051 646.664 46.979 C 668.366 43.775 679.457 43.235 690.202 44.858 C 696.262 45.772 697.773 47.181 701.101 55.02 C 702.159 57.514 702.794 57.206 705.718 52.775 L 709.114 47.639 L 724.332 47.907 L 739.55 48.174 L 738.502 43.301 C 736.828 35.473 741.849 32.835 756.278 33.973 C 766.417 34.774 773.651 37.279 810.907 52.89 C 864.055 75.163 892.009 88.347 897.069 93.541 C 902.869 99.49 900.32 106.754 889.441 115.332 C 884.592 119.161 880.62 122.487 880.62 122.727 C 880.62 122.974 883.217 122.778 886.401 122.299 C 899.772 120.279 925.783 130.935 931.151 140.639 C 934.998 147.605 935.008 166.44 931.17 182.849 C 928.996 192.089 925.725 198.923 918.424 209.427 C 907.852 224.645 890.874 261.748 885.593 281.192 C 883.804 287.78 881.61 301.596 880.716 311.889 C 878.869 333.063 881.37 418.826 884.737 450.125 C 887.815 478.658 885.487 489.001 875.175 492.669 C 868.893 494.899 800.066 494.935 784.463 492.713 Z M 802.043 481.439 C 800.311 477.132 799.696 472.047 800.465 468.539 C 801.668 463.098 816.424 430.063 827.842 407.247 C 840.3 382.362 843.185 342.186 838.943 252.748 C 837.5 222.284 836.25 187.585 836.163 175.643 C 836.019 154.971 836.279 153.518 841.464 145.151 C 844.465 140.312 846.918 136.136 846.918 135.86 C 846.918 135.591 842.579 135.751 837.279 136.223 C 831.738 136.724 824.495 136.303 820.253 135.249 C 812.23 133.245 799.33 125.502 799.33 122.676 C 799.33 121.71 796.242 116.044 792.462 110.088 C 783.756 96.374 754.244 72.549 741.286 68.793 C 736.159 67.304 731.648 64.668 729.637 61.994 C 727.829 59.595 724.625 56.929 722.5 56.073 C 718.969 54.646 718.373 55.374 715.372 64.769 C 713.573 70.406 712.091 76.333 712.091 77.938 C 712.091 82.086 706.31 85.471 698.22 86.059 L 691.275 86.567 L 691.948 79.885 C 692.631 73.181 690.399 65.467 685.032 56.033 L 682.146 50.952 L 665.812 51.901 C 656.827 52.422 645.169 53.956 639.916 55.308 C 632.74 57.155 625.997 57.579 612.847 57.013 C 594.07 56.205 593.137 56.545 593.137 64.13 C 593.137 66.07 592.252 69.411 591.165 71.553 C 589.462 74.946 588.664 75.237 585.057 73.776 C 578.044 70.944 574.716 62.481 575.764 50.136 C 576.515 41.26 576.12 38.978 573.706 38.277 C 572.061 37.8 557.093 38.617 540.461 40.094 C 511.246 42.686 479.387 42.65 454.809 40 C 448.556 39.323 444.987 39.765 441.072 41.704 L 435.782 44.32 L 444.343 46.729 C 453.76 49.381 463.332 57.28 454.578 55.182 C 450.73 54.259 448.46 55.402 440.12 62.467 C 434.685 67.072 428.942 70.842 427.374 70.842 C 424.181 70.842 420.641 65.002 420.641 59.755 C 420.641 56.469 419.688 56.28 394.37 54.544 C 379.921 53.554 365.059 52.346 361.346 51.859 L 354.593 50.975 L 355.892 58.135 C 356.729 62.721 356.373 66.041 354.92 67.37 C 353.199 68.932 353.218 70.914 355.026 75.454 C 357.335 81.287 357.133 81.81 348.062 93.418 C 342.915 99.991 337.74 105.149 336.547 104.879 C 331.93 103.841 324.811 89.778 323.215 78.541 C 319.155 49.901 318.261 45.341 316.452 43.973 C 314.345 42.382 268.528 37.944 253.993 37.922 L 244.97 37.908 L 242.488 46.985 C 239.593 57.576 236.139 58.313 228.963 49.875 C 219.978 39.309 219.103 38.709 213.216 39.072 C 175.633 41.388 130.941 47.858 120.571 52.481 C 119.657 52.891 124.12 54.815 130.489 56.756 C 136.857 58.697 144.187 62.118 146.774 64.362 C 150.911 67.951 151.353 69.52 150.497 77.503 C 149.266 88.958 138.386 113.596 124.505 136.332 C 113.529 154.332 99.841 184.171 94.292 202.228 C 86.202 228.545 83.216 250.99 82.15 293.497 C 80.733 350.01 83.739 367.951 101.419 408.453 C 112.067 432.859 115.242 443.915 115.271 456.786 C 115.299 467.108 115.511 467.609 119.138 466.149 C 125.015 463.774 133.384 464.268 153.441 468.176 C 172.805 471.946 205.944 474.495 209.743 472.505 C 212.485 471.081 221.2 450.576 224.086 438.808 C 225.24 434.095 227.549 428.233 229.232 425.784 C 230.906 423.33 232.311 419.443 232.349 417.134 L 232.407 412.942 L 237.072 416.945 C 241.401 420.656 246.163 434.472 246.163 443.327 C 246.163 445.077 248.164 447.917 250.607 449.638 C 253.983 452.014 255.051 454.454 255.061 459.8 C 255.08 466.419 255.378 466.818 260.044 466.425 C 262.766 466.2 292.904 465.379 327.014 464.61 C 389.55 463.193 391.34 463.287 402.796 468.467 C 408.28 470.951 420.063 470.457 429.702 467.341 C 433.059 466.251 444.141 465.438 455.954 465.401 L 476.395 465.343 L 484.697 458.537 C 489.266 454.796 494.037 450.416 495.297 448.811 C 497.452 446.043 497.904 446.015 503.387 448.288 C 509.121 450.663 509.236 450.634 511.304 446.486 C 514.883 439.331 520.741 439.564 546.838 447.903 C 569.059 455.007 590.79 460.353 614.588 464.573 C 620.389 465.597 626.844 467.827 628.921 469.519 C 632.606 472.498 632.836 472.513 636.723 469.861 C 641.504 466.592 641.744 462.678 637.694 454.005 C 635.405 449.115 635.164 446.435 636.694 443.109 C 637.819 440.682 638.733 437.007 638.733 434.938 C 638.733 430.484 647.285 418.899 651.469 417.685 C 654.519 416.807 655.327 418.064 657.578 427.165 C 658.28 430.048 661.454 437.211 664.61 443.072 C 667.774 448.942 670.939 457.432 671.641 461.951 L 672.921 470.159 L 694.988 471.031 C 711.716 471.691 723.279 473.217 742.825 477.342 C 784.661 486.175 796.117 488.383 800.629 488.47 C 804.804 488.55 804.833 488.391 802.043 481.439 Z M 465.987 63.73 C 463.524 61.363 463.592 61.305 466.737 63.171 C 470.037 65.125 471.085 66.353 469.459 66.353 C 469.046 66.353 467.487 65.176 465.987 63.73 Z M 860.423 482.652 C 860.924 481.534 860.173 480.975 858.692 481.345 C 857.259 481.709 855.7 482.885 855.219 483.968 C 854.729 485.086 855.469 485.653 856.96 485.275 C 858.384 484.919 859.952 483.735 860.423 482.652 Z M 582.228 471.554 C 600.477 469.962 602.901 469.469 597.1 468.517 C 585.336 466.592 553.149 458.355 539.912 453.874 C 532.996 451.534 527.003 449.625 526.599 449.625 C 526.195 449.625 524.906 450.975 523.742 452.617 C 522.213 454.767 522.251 456.503 523.848 458.762 C 525.733 461.421 525.233 462.568 520.635 466.193 L 515.19 470.486 L 519.962 471.815 C 522.588 472.549 526.07 473.572 527.705 474.096 C 531.159 475.193 551.244 474.255 582.228 471.554 Z M 58.362 460.114 C 63.576 460.106 70.937 461.08 74.72 462.278 C 82.329 464.675 82.238 464.783 79.676 456.365 C 78.673 453.067 75.393 436.899 72.386 420.432 C 67.359 392.895 66.953 387.119 67.341 348.564 C 67.856 297.29 70.787 250.271 74.715 230.296 C 80.322 201.764 90.512 175.774 113.46 131.48 C 124.099 110.938 125.994 105.817 126.754 95.502 C 127.485 85.624 127.072 83.111 124.398 81.44 C 119.857 78.592 118.934 79.973 121.685 85.479 C 123.666 89.445 123.426 91.289 120.126 97.296 C 115.163 106.355 103.543 113.183 86.259 117.213 C 69.774 121.063 56.859 121.093 47.034 117.308 L 39.391 114.366 L 40.764 136.397 C 41.519 148.513 43.403 170.392 44.949 185.014 C 52.1 252.632 50.48 327.877 39.927 418.157 C 37.764 436.673 35.993 455.021 35.993 458.937 L 35.993 466.048 L 42.437 463.084 C 46.482 461.217 52.411 460.114 58.362 460.114 Z M 848.784 461.602 C 853.68 461.602 861.53 462.706 866.224 464.064 C 870.918 465.416 875.045 466.259 875.391 465.938 C 875.747 465.612 875.247 458.944 874.295 451.121 C 873.342 443.297 872.371 405.235 872.13 366.534 L 871.698 296.164 L 877.104 277.299 C 884.068 252.995 891.581 236.92 908.521 210.08 C 920.795 190.621 927.741 174.721 924.855 172.651 C 924.278 172.244 922.344 173.573 920.555 175.614 C 913.571 183.568 905.096 189.706 897.497 192.314 C 888.782 195.306 868.831 196.055 862.809 193.621 C 855.008 190.469 851.939 173.762 857.634 165.437 C 863.81 156.431 876.95 153.227 878.296 160.404 C 879.104 164.653 883.366 163.898 884.251 159.351 C 885.607 152.341 874.949 148.818 860.972 151.658 C 844.725 154.963 843.628 161.799 848.005 232.54 C 850.506 272.919 851.025 298.321 850.006 329.853 C 849.246 353.321 848.803 373.87 849.024 375.513 C 849.236 377.161 849.409 384.911 849.39 392.735 C 849.361 404.582 847.822 411.591 840.203 434.704 C 835.172 449.965 831.055 463.309 831.055 464.355 C 831.055 465.772 832.19 465.662 835.461 463.933 C 837.885 462.648 843.878 461.602 848.784 461.602 Z M 888.272 190.497 C 892.081 187.817 892.62 186.096 892.12 178.266 C 891.793 173.246 890.571 168.91 889.397 168.612 C 888.224 168.321 884.876 169.753 881.961 171.793 C 877.623 174.829 876.661 176.82 876.661 182.762 C 876.661 189.204 879.085 193.614 882.625 193.614 C 883.299 193.614 885.838 192.211 888.272 190.497 Z M 839.405 113.887 C 838.597 102.875 843.58 97.267 858.798 92.081 C 865.281 89.873 870.611 87.563 870.649 86.96 C 870.736 85.515 861.905 81.36 823.889 64.944 C 776.676 44.564 757.091 37.375 752.051 38.583 C 743.672 40.592 747.395 45.33 773.079 65.351 C 801.119 87.208 816.039 100.267 823.061 109.13 C 828.91 116.487 835.067 121.746 837.847 121.753 C 839.174 121.753 839.761 118.775 839.405 113.887 Z M 867.734 112.768 C 868.437 111.903 867.022 111.431 864.387 111.642 C 860.472 111.962 859.808 111.338 859.808 107.342 C 859.818 104.211 858.99 102.904 857.336 103.384 C 853.882 104.386 854.229 109.086 857.961 111.911 C 861.51 114.584 865.926 114.976 867.734 112.768 Z M 91.761 105.86 C 97.334 102.054 96.361 99.955 86.755 95.059 C 75.992 89.576 73.67 90.81 73.67 102.032 L 73.67 110.161 L 80.855 109.282 C 84.808 108.795 89.715 107.255 91.761 105.86 Z M 92.583 90.215 C 93.3 89.336 92.478 87.447 90.758 86.016 C 87.906 83.634 87.921 83.183 90.941 80.903 C 95.621 77.371 92.321 75.73 85.949 78.418 C 78.976 81.367 78.059 86.321 83.912 89.416 C 89.221 92.227 90.818 92.372 92.583 90.215 Z M 435.633 53.023 C 434.007 51.036 428.572 50.832 428.572 52.758 C 428.572 53.513 429.139 55.249 429.832 56.616 C 430.948 58.81 431.438 58.841 434.036 56.882 C 435.652 55.663 436.373 53.925 435.633 53.023 Z" style="fill: url(#pattern-3);"/>
            <path id="path-3" d="M 778.38 466.865 C 733.07 459.4 728.61 458.905 709.33 459.23 L 688.73 459.582 L 687.25 450.853 C 685.69 441.635 680.62 431.349 676.89 429.851 C 674.73 428.978 675.85 445.414 678.58 454.527 C 679.22 456.638 678.5 459.289 676.93 460.67 C 674.65 462.676 673.18 462.852 668.51 461.699 C 648.59 456.761 605.08 457.419 577.42 463.067 C 556.62 467.308 539.49 465.888 530.28 459.152 C 527.56 457.159 526.83 455.296 527.8 452.788 C 528.55 450.84 528.1 447.153 526.81 444.606 C 523.54 438.15 518.48 439.173 515.1 446.964 C 511.27 455.797 507.62 456.566 468.18 456.885 C 448.91 457.042 432.78 457.797 429.39 458.703 C 420.79 461.009 412.71 460.592 406.76 457.543 C 395.28 451.661 318.93 450.918 277.56 456.286 C 266.81 457.687 257.35 458.39 256.53 457.862 C 253.51 455.895 244.54 438.574 244.54 434.711 C 244.54 426.698 240.65 431.03 236.38 443.805 C 233.97 451.009 231.23 457.804 230.28 458.911 C 227.6 462.058 180.73 461.25 157.98 457.66 C 131.48 453.491 125.32 453.843 112.81 460.292 C 98.987 467.406 93.954 468.52 75.53 468.552 C 58.55 468.572 51.26 467.197 40.77 461.986 C 30.023 456.644 25.251 448.26 26.852 437.518 C 45.687 311.213 143.381 211.199 128.282 81.526 C 126.47 65.969 125.482 50.407 126.086 46.954 C 128.984 30.356 145.619 21.314 195.652 9.146 C 230.036 0.784 249.676 -2.296 282.486 -4.474 C 299.786 -5.622 220.64 61.071 225.44 60.634 C 233.45 59.904 234.33 60.125 236.21 63.344 C 238.75 67.698 242.48 67.918 242.48 63.715 C 242.48 60.64 242.8 60.591 259.49 61.131 C 281.01 61.828 284.63 62.579 267.11 62.716 C 251.89 62.835 248.66 64.162 248.66 70.311 C 248.66 75.945 244.26 78.436 239.95 75.237 C 238.22 73.947 235.21 70.854 233.27 68.363 C 229.84 63.956 229.48 63.856 220.14 64.696 C 214.86 65.171 298.946 -1.815 288.176 -1.062 C 262.616 0.724 205.686 10.02 208.616 11.93 C 209.196 12.304 214.066 13.146 219.446 13.801 C 240.386 16.35 251.076 22.024 251.076 30.59 C 251.076 39.815 238.626 63.618 220.236 89.551 C 210.406 103.414 99.257 198.757 94.004 214.548 C 79.183 259.079 76.447 328.326 88.045 365.399 C 90.349 372.766 96.764 387.932 102.3 399.11 C 114.09 422.913 117.71 434.997 116.11 445.127 C 114.99 452.195 115.12 452.436 119.46 451.609 C 131.67 449.283 137.56 449.466 155.96 452.716 C 177.46 456.514 220.28 458.989 222.58 456.566 C 223.3 455.81 226.74 447.759 230.23 438.678 C 233.72 429.597 237.96 420.431 239.65 418.301 C 245.38 411.083 249.97 415.995 250.48 429.91 C 250.62 433.525 252.74 440.072 255.19 444.463 L 259.66 452.436 L 268.07 451.55 C 272.7 451.068 305.65 450.365 341.29 449.987 C 405.23 449.316 406.21 449.348 414.18 452.267 C 423.5 455.68 436.44 455.354 449.22 451.381 C 455.72 449.361 458.21 449.257 467.26 450.619 C 480.2 452.566 499.05 452.671 504.34 450.82 C 506.62 450.026 509.66 446.358 511.55 442.124 C 513.35 438.092 515.76 434.418 516.9 433.955 C 518.04 433.499 521.28 434.528 524.09 436.248 C 528.4 438.886 529.49 439.069 531.12 437.395 C 532.17 436.307 533.05 434.378 533.07 433.115 C 533.09 431.844 535 430.151 537.32 429.343 C 540.79 428.131 545.76 429.082 565.66 434.776 C 578.93 438.567 598.13 443.199 608.33 445.055 C 630.39 449.075 637.1 451.218 623.79 450 C 613.86 449.094 576.05 441.069 558.51 436.15 C 543.55 431.955 540.32 432.665 540.3 440.144 C 540.29 444.938 539.61 446.085 536.94 445.798 C 532.93 445.368 530.45 450.319 533.09 453.524 C 535.4 456.338 548.36 458.918 560.13 458.898 C 565.1 458.892 579.08 458.038 591.19 456.996 C 606 455.719 622.44 455.354 641.42 455.869 L 669.63 456.644 L 668.29 440.658 C 667.32 429.082 667.72 422.822 669.72 417.962 C 673.01 409.995 677.77 409.018 679.54 415.943 C 680.2 418.529 683.31 424.802 686.45 429.884 C 689.59 434.965 692.6 441.31 693.15 443.98 C 695.5 455.55 694.4 454.885 711.25 454.885 C 730.2 454.885 750.05 457.322 787.42 464.233 C 817.49 469.797 836.11 472.487 838.33 471.595 C 839.04 471.308 837.96 467.894 835.94 463.999 C 833.85 459.973 832.76 455.192 833.41 452.886 C 834.82 447.909 854.43 410.341 862.65 396.863 C 865.96 391.43 870.25 380.356 872.19 372.258 C 876.09 355.927 877.74 352.852 877.19 362.943 C 877 366.617 877.81 372.304 879 375.581 C 881.65 382.87 879.21 397.964 873.24 411.246 C 870.91 416.419 866.66 427.434 863.79 435.733 C 858.1 452.162 858.48 458.735 865.4 463.237 C 869.8 466.103 869.04 467.764 863.91 466.481 C 862.11 466.031 859.2 463.426 857.45 460.696 C 853.55 454.612 854.69 447.172 862.88 425.2 C 868.4 410.406 872.79 393.019 870.65 394.465 C 870.1 394.83 863.28 406.315 855.49 419.975 C 843.36 441.251 841.33 446.078 841.29 453.635 C 841.25 461.048 842.15 463.347 846.94 468.07 L 852.63 473.679 L 871.18 473.679 C 894.15 473.679 906.63 470.539 910.22 463.843 C 912.23 460.116 911.98 459.296 908.22 457.309 C 905.87 456.058 898.76 453.771 892.43 452.228 C 881.85 449.654 880.52 449.596 876.02 451.511 C 873.33 452.664 871.13 454.833 871.13 456.338 C 871.13 457.843 870.2 458.696 869.07 458.24 C 867.93 457.784 867 455.654 867 453.511 C 867 446.365 879.41 444.866 899.02 449.641 C 905.37 451.192 910.99 452.188 911.5 451.856 C 912.01 451.524 911.42 442.547 910.17 431.916 C 908.93 421.285 907.75 387.515 907.56 356.872 C 907.21 303.774 849.69 287.8 854.2 272.446 C 860.61 250.649 928.1 244.839 946.8 219.323 C 962.4 198.027 962.49 197.858 963.45 184.882 C 964.67 168.244 963.16 163.274 955.03 157.242 C 938.05 144.636 915.74 144.402 890.39 156.564 C 882.63 160.284 881.5 161.593 878.42 170.413 C 874.24 182.387 816.48 182.608 820.47 249.913 C 822.18 278.895 822.89 308.398 822.08 317.714 L 820.66 334.214 L 819.29 322.801 C 818.54 316.522 817.82 299.904 817.68 285.879 C 817.54 271.847 816.54 247.926 815.44 232.729 C 814.35 217.531 870.98 207.154 870.72 194.295 L 870.25 170.908 L 876.74 161.873 C 884.32 151.327 883.67 150.63 866.75 151.248 C 858.23 151.555 853 150.949 847.03 148.968 C 836.86 145.581 835.41 144.428 829.92 135.321 C 827.47 131.263 822.72 124.918 819.37 121.231 L 813.28 114.514 L 821.29 120.169 C 825.78 123.341 831.26 129.347 833.78 133.849 C 839.07 143.288 846.84 148.115 858.89 149.437 C 869.98 150.662 873.9 148.415 865.57 145.607 C 862.25 144.493 855.98 140.057 851.63 135.757 C 847.28 131.458 839.93 124.918 835.31 121.231 C 823.85 112.085 775.95 79.782 772.49 78.868 C 770.9 78.446 769.41 75.567 769.02 72.164 C 768.19 64.925 772.14 61.477 781.27 61.484 L 787.65 61.489 L 780.95 64.15 C 769.03 68.883 771.06 71.707 800.58 91.493 C 831.11 111.961 842.11 120.319 853.6 131.758 C 861.6 139.725 873.44 145.698 881.74 145.959 C 884.71 146.056 896.3 141.679 912 134.539 C 917.81 131.894 924.7 124.82 924.71 121.485 C 924.71 120.149 919.98 115.791 914.18 111.798 L 903.65 104.541 L 915.2 108.619 C 927.37 112.912 932.96 116.807 932.96 120.99 C 932.96 126.116 925.83 133.015 915.07 138.311 C 908.98 141.308 904.34 143.985 904.77 144.265 C 905.2 144.545 910.17 144.076 915.83 143.223 C 928.2 141.366 941.73 143.744 955.07 150.141 C 968.2 156.427 970.84 161.476 969.41 177.533 C 967.98 193.741 962.61 205.89 950.4 220.586 C 941.08 231.804 868.09 247.972 860.8 268.069 C 853.97 286.869 910.12 323.115 912.38 372.31 C 913.5 396.68 915.39 424.47 916.59 434.072 C 919.45 456.963 917.84 466.279 910.2 471.262 L 904.42 475.021 L 865.62 474.936 L 826.81 474.852 L 778.38 466.865 Z M 96.14 461.595 C 102.851 459.256 106.861 451.511 108.011 438.691 C 109.021 427.389 108.821 426.783 96.352 402.706 C 89.375 389.241 82.283 373.568 80.592 367.881 C 75.545 350.911 -39.308 338.526 -37.859 309.479 C -34.986 251.86 181.445 141.164 218.877 78.555 C 246.777 31.88 247.747 26.91 229.967 21.653 C 212.777 16.57 170.023 19.861 151.928 27.659 C 143.167 31.437 135.657 40.564 135.657 47.436 C 135.657 51.43 137.35 53.234 146.159 58.602 L 156.661 64.999 L 169.387 64.334 C 183.552 63.592 201.077 58.563 209.077 52.941 C 216.387 47.801 215.797 41.163 207.797 38.466 C 200.027 35.854 200.007 35.111 207.717 35.111 C 214.537 35.111 222.227 39.548 222.227 43.476 C 222.227 47.443 214.707 55.957 207.917 59.677 C 199.597 64.243 180.623 68.784 166.192 69.663 C 156.086 70.282 153.197 69.891 145.194 66.836 C 140.09 64.888 135.5 63.748 134.993 64.308 C 134.007 65.396 -48.721 190.096 -45.316 216.661 C -38.792 267.564 48.675 326.899 37.637 409.605 C 31.925 452.397 32.527 457.237 42.56 449.179 C 45.763 446.606 48.252 446.169 59.379 446.221 C 67.605 446.267 74.919 447.146 79.138 448.606 C 87.269 451.42 87.242 451.524 82.807 434.743 C 76.379 410.419 69.009 358.878 72.264 361.008 C 72.734 361.314 74.182 367.913 75.482 375.665 C 78.001 390.694 90.998 443.342 93.92 450.351 C 96.893 457.491 94.138 458.071 79.112 453.491 C 63.212 448.645 51.968 448.475 47.37 453.016 C 44.867 455.485 44.967 456.208 48.166 458.748 C 54.579 463.836 84.597 465.621 96.14 461.595 Z M 345.91 116.149 C 340.6 111.98 339.26 106.814 341.45 98.945 C 343.29 92.327 343.1 90.412 340.22 86.783 C 337.8 83.731 337.14 80.631 337.97 76.104 L 339.13 69.726 L 329.45 68.389 C 324.13 67.653 313.03 66.624 304.78 66.103 C 290.25 65.183 281.68 62.762 293.37 62.88 C 304.31 62.991 347.74 66.497 349.1 67.378 C 349.84 67.863 349.35 70.252 347.99 72.686 C 344.84 78.36 344.85 84.664 348.01 86.724 C 352.01 89.324 353.01 88.62 352.14 83.811 C 351.39 79.625 355.62 71.958 359.54 70.378 C 360.46 70.009 369.51 70.931 379.65 72.426 C 389.8 73.921 407.83 75.864 419.72 76.745 C 438.58 78.141 441.44 78.685 442.08 80.99 C 443.31 85.424 446.12 86.308 450.61 83.662 C 456.62 80.118 456.07 76.249 449.56 76.249 C 441.75 76.249 440.63 72.41 447.33 68.653 C 453.96 64.938 458.98 64.423 454.07 67.963 C 448.91 71.675 449.72 74.906 455.81 74.906 C 463.08 74.906 462.5 78.751 454.16 85.879 C 445.55 93.232 442 93.291 439.82 86.126 C 437.83 79.579 435.7 78.979 414.34 78.952 C 406.27 78.942 391.6 78.017 381.74 76.897 C 371.88 75.777 362.94 75.209 361.89 75.634 C 360.83 76.059 359.97 80.148 359.98 84.72 C 359.99 89.291 358.91 97.864 357.58 103.772 C 354.61 117.022 351.38 120.442 345.91 116.149 Z M 794.75 103.583 C 787.44 98.717 777.57 93.584 772.81 92.17 C 768.05 90.763 762.18 87.806 759.77 85.594 C 754.95 81.185 744.37 77.018 741.21 78.287 C 740.11 78.73 739.12 81.625 739.02 84.72 C 738.91 87.812 737.75 93.669 736.44 97.734 C 734.49 103.798 733.23 105.192 729.42 105.544 C 724.29 106.02 724.03 105.499 724.73 95.903 C 725.19 89.539 720.22 79.445 715.57 77.276 C 710.9 75.102 677.45 76.21 665.55 78.934 C 653.21 81.758 633.67 82.467 625.3 80.395 C 618.33 78.668 615.4 80.358 612.51 87.78 C 609.58 95.291 606.13 96.743 603.19 91.714 C 600.42 86.965 600.58 84.305 603.62 84.305 C 604.99 84.305 608.01 82.768 610.32 80.89 C 614.34 77.616 615.59 77.453 640.28 76.973 C 654.45 76.698 671.61 75.537 678.41 74.394 C 691.57 72.183 705.73 71.686 716.31 73.063 C 721.14 73.693 723.06 74.797 723.9 77.427 C 726.07 84.194 733.03 88.731 733.03 83.373 C 733.03 78.672 738.97 74.906 746.38 74.906 C 755.56 74.906 759.83 76.082 759.83 78.615 C 759.83 81.85 769.91 89.675 774.08 89.675 C 776.14 89.675 780.16 90.874 783.02 92.34 C 789.81 95.818 810.09 111.088 808.93 111.843 C 808.44 112.163 802.05 108.45 794.75 103.583 Z M 878.91 96.072 C 869.02 92.268 861.26 88.939 861.67 88.679 C 862.54 88.105 897.92 101.584 897.92 102.482 C 897.92 103.401 898.26 103.518 878.91 96.072 Z M 603.16 70.224 C 608.24 66.234 604.09 64.165 591 64.165 C 584.23 64.165 578.12 63.56 577.42 62.822 C 576.62 61.98 581.07 61.479 589.34 61.479 C 599.51 61.479 603.32 62.043 605.95 63.935 C 610.26 67.036 610.33 70.35 606.1 71.405 C 601.07 72.664 600.39 72.394 603.16 70.224 Z M 510.43 67.035 C 512.13 66.339 525.11 65.433 539.28 65.024 C 555.77 64.547 562.08 64.693 556.8 65.426 C 543.87 67.225 506.83 68.511 510.43 67.035 Z" style="fill: url(#pattern-4);"/>
          </g>
        </g>
      </g>
    </g>
  </g>
  <path d="M 226.724 750.258 C 225.316 751.667 219.186 759.657 220.258 760.728 C 220.783 761.253 221.222 758.921 221.797 759.496 C 222.038 759.737 224.839 762.614 224.261 763.191 C 223.437 764.015 221.827 763.023 220.874 763.499 C 216.381 765.746 209.575 778.635 215.639 781.667 C 215.865 781.78 221.073 781.051 222.413 781.051 C 224.943 781.051 231.089 782.301 233.807 783.207 C 235.405 783.74 243.117 776.015 244.276 774.277 C 244.758 773.555 248.042 770.652 249.203 771.813 C 249.452 772.063 250.205 780.049 250.127 780.128 C 249.044 781.21 242.737 783.823 242.737 783.823 C 242.737 783.823 246.631 781.232 247.356 781.051 C 249.215 780.587 258.03 772.634 259.673 774.277 C 262.497 777.101 267.743 786.529 272.298 781.975 C 275.499 778.774 272.361 769.169 271.066 766.579 C 269.746 763.938 266.79 764.902 263.984 763.499 C 257.203 760.109 251.129 759.227 244.276 755.801 C 242.305 754.816 233.923 752.414 232.267 752.414 C 230.085 752.414 226.294 750.566 226.416 750.566" style="stroke: rgb(0, 0, 0); stroke-opacity: 0; fill: url(#pattern-0-3);"/>
</svg>