<svg class="bottomOverlay" width="86" height="380" viewBox="202.715 584.407 86.593 380.048" xmlns="http://www.w3.org/2000/svg" xmlns:xlink="http://www.w3.org/1999/xlink"><defs id="svgEditorDefs"><pattern id="pattern-0" width="20" height="20" patternUnits="userSpaceOnUse" viewBox="0 0 100 100"><path d="M41.522-4.565h66.522v108.261H41.522z"/><path d="M0 0h50v100H0z"/><g transform="matrix(.00239 0 0 .00239 19.093 42.642)"><g transform="matrix(3.03957 -2.01931 1.23014 1.85166 -3253.058 4267.997)" id="Layer_x0020_1"><path class="fil0" d="M500 1271h8500v84H500v-84zM500 1744h8500v83H500v-83zM500 2217h8500v83H500v-83zM500 2690h8500v83H500v-83zM500 3162h8500v84H500v-84zM500 3635h8500v83H500v-83zM500 4108h8500v83H500v-83zM500 4580h8500v84H500v-84zM500 5053h8500v84H500v-84zM500 5526h8500v83H500v-83zM500 5999h8500v83H500v-83zM500 6471h8500v84H500v-84zM500 6944h8500v83H500v-83zM500 7417h8500v83H500v-83zM500 7890h8500v83H500v-83zM500 8362h8500v84H500v-84zM500 8835h8500v83H500v-83zM500 9308h8500v83H500v-83zM500 9781h8500v83H500v-83zM500 10253h8500v84H500v-84zM500 10726h8500v83H500v-83z"/><path class="fil1" d="M1542 313v11000h-84V313h84z"/><path class="fil2" d="M608 271h8284v84H608v-84zm8284 0v84-84zc42 0 80 19 107 49l-62 56c-11-13-28-21-45-21v-84zm107 49c26 29 43 68 43 112h-84c0-22-8-42-21-56l62-56zm43 112h-84 84zv10762h-84V432h84zm0 10762h-84 84zc0 44-17 83-43 112l-62-56c13-14 21-34 21-56h84zm-43 112c-27 30-65 49-107 49v-84c17 0 33-8 45-21l62 56zm-107 49v-84 84zH608v-84h8284v84zm-8284 0v-84 84zc-42 0-80-19-107-49l62-56c11 13 28 21 45 21v84zm-107-49c-26-29-43-68-43-112h84c0 22 8 42 21 56l-62 56zm-43-112h84-84zV432h84v10762h-84zm0-10762h84-84zc0-44 17-83 43-112l62 56c-13 14-21 34-21 56h-84zm43-112c27-30 65-49 107-49v84c-17 0-33 8-45 21l-62-56zm107-49v84-84z"/><circle cy="5813" cx="1000" r="125" class="fil3"/><circle cy="1086" cx="1000" r="125" class="fil3"/><circle cy="10540" cx="1000" r="125" class="fil3"/></g></g><g transform="rotate(45.405 21.3 32.364) scale(.00239)"><g transform="matrix(3.03957 -2.01931 1.23014 1.85166 -3253.058 4267.997)" id="g-4"><path class="fil0" d="M500 1271h8500v84H500v-84zM500 1744h8500v83H500v-83zM500 2217h8500v83H500v-83zM500 2690h8500v83H500v-83zM500 3162h8500v84H500v-84zM500 3635h8500v83H500v-83zM500 4108h8500v83H500v-83zM500 4580h8500v84H500v-84zM500 5053h8500v84H500v-84zM500 5526h8500v83H500v-83zM500 5999h8500v83H500v-83zM500 6471h8500v84H500v-84zM500 6944h8500v83H500v-83zM500 7417h8500v83H500v-83zM500 7890h8500v83H500v-83zM500 8362h8500v84H500v-84zM500 8835h8500v83H500v-83zM500 9308h8500v83H500v-83zM500 9781h8500v83H500v-83zM500 10253h8500v84H500v-84zM500 10726h8500v83H500v-83z"/><path class="fil1" d="M1542 313v11000h-84V313h84z"/><path class="fil2" d="M608 271h8284v84H608v-84zm8284 0v84-84zc42 0 80 19 107 49l-62 56c-11-13-28-21-45-21v-84zm107 49c26 29 43 68 43 112h-84c0-22-8-42-21-56l62-56zm43 112h-84 84zv10762h-84V432h84zm0 10762h-84 84zc0 44-17 83-43 112l-62-56c13-14 21-34 21-56h84zm-43 112c-27 30-65 49-107 49v-84c17 0 33-8 45-21l62 56zm-107 49v-84 84zH608v-84h8284v84zm-8284 0v-84 84zc-42 0-80-19-107-49l62-56c11 13 28 21 45 21v84zm-107-49c-26-29-43-68-43-112h84c0 22 8 42 21 56l-62 56zm-43-112h84-84zV432h84v10762h-84zm0-10762h84-84zc0-44 17-83 43-112l62 56c-13 14-21 34-21 56h-84zm43-112c27-30 65-49 107-49v84c-17 0-33 8-45 21l-62-56zm107-49v84-84z"/><circle cy="5813" cx="1000" r="125" class="fil3"/><circle cy="1086" cx="1000" r="125" class="fil3"/><circle cy="10540" cx="1000" r="125" class="fil3"/></g></g><g transform="matrix(.0017 0 0 .00175 10.387 50.725)"><g transform="matrix(3.03957 -2.01931 1.23014 1.85166 -3253.058 4267.997)" id="g-5"><path class="fil0" d="M500 1271h8500v84H500v-84zM500 1744h8500v83H500v-83zM500 2217h8500v83H500v-83zM500 2690h8500v83H500v-83zM500 3162h8500v84H500v-84zM500 3635h8500v83H500v-83zM500 4108h8500v83H500v-83zM500 4580h8500v84H500v-84zM500 5053h8500v84H500v-84zM500 5526h8500v83H500v-83zM500 5999h8500v83H500v-83zM500 6471h8500v84H500v-84zM500 6944h8500v83H500v-83zM500 7417h8500v83H500v-83zM500 7890h8500v83H500v-83zM500 8362h8500v84H500v-84zM500 8835h8500v83H500v-83zM500 9308h8500v83H500v-83zM500 9781h8500v83H500v-83zM500 10253h8500v84H500v-84zM500 10726h8500v83H500v-83z" fill="#9cc8de"/><path class="fil1" d="M1542 313v11000h-84V313h84z" fill="#9cc8de"/><path class="fil2" d="M608 271h8284v84H608v-84zm8284 0v84-84zc42 0 80 19 107 49l-62 56c-11-13-28-21-45-21v-84zm107 49c26 29 43 68 43 112h-84c0-22-8-42-21-56l62-56zm43 112h-84 84zv10762h-84V432h84zm0 10762h-84 84zc0 44-17 83-43 112l-62-56c13-14 21-34 21-56h84zm-43 112c-27 30-65 49-107 49v-84c17 0 33-8 45-21l62 56zm-107 49v-84 84zH608v-84h8284v84zm-8284 0v-84 84zc-42 0-80-19-107-49l62-56c11 13 28 21 45 21v84zm-107-49c-26-29-43-68-43-112h84c0 22 8 42 21 56l-62 56zm-43-112h84-84zV432h84v10762h-84zm0-10762h84-84zc0-44 17-83 43-112l62 56c-13 14-21 34-21 56h-84zm43-112c27-30 65-49 107-49v84c-17 0-33 8-45 21l-62-56zm107-49v84-84z" fill="#9cc8de"/><circle cy="5813" cx="1000" r="125" class="fil3" fill="#9cc8de"/><circle cy="1086" cx="1000" r="125" class="fil3" fill="#9cc8de"/><circle cy="10540" cx="1000" r="125" class="fil3" fill="#9cc8de"/></g></g></pattern><pattern id="pattern-0-0" patternTransform="matrix(1 0 0 1.40759 488.056 518.551)" xlink:href="#pattern-0"/><pattern id="pattern-0-1" patternTransform="matrix(.96195 0 0 .72638 470.68 256.073)" xlink:href="#pattern-0"/><pattern id="pattern-0-2" patternTransform="matrix(1 0 0 .65143 488.154 261.14)" xlink:href="#pattern-0"/><style>.fil0{fill:#0093dd}.fil3{fill:#0a0b0c}.fil2{fill:#1f1a17}.fil1{fill:#da251d}</style><pattern id="pattern-1" patternTransform="matrix(1 0 0 1.40759 488.056 518.551)" xlink:href="#pattern-2"/><pattern id="pattern-2" width="20" height="20" patternUnits="userSpaceOnUse" viewBox="0 0 100 100"><path d="M0 0h50v100H0z"/><g transform="matrix(.00239 0 0 .00239 19.093 42.642)"><g transform="matrix(3.03957 -2.01931 1.23014 1.85166 -3617.197 3994.893)" id="g-1"><path class="fil0" d="M500 1271h8500v84H500v-84zM500 1744h8500v83H500v-83zM500 2217h8500v83H500v-83zM500 2690h8500v83H500v-83zM500 3162h8500v84H500v-84zM500 3635h8500v83H500v-83zM500 4108h8500v83H500v-83zM500 4580h8500v84H500v-84zM500 5053h8500v84H500v-84zM500 5526h8500v83H500v-83zM500 5999h8500v83H500v-83zM500 6471h8500v84H500v-84zM500 6944h8500v83H500v-83zM500 7417h8500v83H500v-83zM500 7890h8500v83H500v-83zM500 8362h8500v84H500v-84zM500 8835h8500v83H500v-83zM500 9308h8500v83H500v-83zM500 9781h8500v83H500v-83zM500 10253h8500v84H500v-84zM500 10726h8500v83H500v-83z"/><path class="fil1" d="M1542 313v11000h-84V313h84z"/><path class="fil2" d="M608 271h8284v84H608v-84zm8284 0v84-84zc42 0 80 19 107 49l-62 56c-11-13-28-21-45-21v-84zm107 49c26 29 43 68 43 112h-84c0-22-8-42-21-56l62-56zm43 112h-84 84zv10762h-84V432h84zm0 10762h-84 84zc0 44-17 83-43 112l-62-56c13-14 21-34 21-56h84zm-43 112c-27 30-65 49-107 49v-84c17 0 33-8 45-21l62 56zm-107 49v-84 84zH608v-84h8284v84zm-8284 0v-84 84zc-42 0-80-19-107-49l62-56c11 13 28 21 45 21v84zm-107-49c-26-29-43-68-43-112h84c0 22 8 42 21 56l-62 56zm-43-112h84-84zV432h84v10762h-84zm0-10762h84-84zc0-44 17-83 43-112l62 56c-13 14-21 34-21 56h-84zm43-112c27-30 65-49 107-49v84c-17 0-33 8-45 21l-62-56zm107-49v84-84z"/><circle cy="5813" cx="1000" r="125" class="fil3"/><circle cy="1086" cx="1000" r="125" class="fil3"/><circle cy="10540" cx="1000" r="125" class="fil3"/></g></g><path d="M38.913-1.522h30.652v61.304H38.913z"/></pattern><pattern id="pattern-3" patternTransform="matrix(.96195 0 0 .72638 470.68 256.073)" xlink:href="#pattern-2"/><pattern id="pattern-4" patternTransform="matrix(1 0 0 .65143 488.154 261.14)" xlink:href="#pattern-2"/><radialGradient id="gradient-0" gradientUnits="userSpaceOnUse" cx="245.964" cy="781.753" r="33.379"><stop offset="0" stop-color="#716db2"/><stop offset="1" stop-color="#434079"/></radialGradient><pattern id="pattern-0-3" patternTransform="translate(233.465 757.04)" xlink:href="#pattern-0"/></defs><path id="svgEditorBackground" class="clothes" fill="none" d="M202.715 584.431h86.593V700.24h-86.593z"/><path d="M214.665 768.853c1.279 11.91 22.034 25.99 31.605 24.651 9.57-1.339 24.359-16.826 24.019-28.443 17.99 6.712-48.053-11.911-55.624 3.792z" id="e37_area3" class="clothes" fill="silver" stroke-width="0"/><path d="M222.683 762.123c-3.927 0-6.015 8.415-10.098 13.464 0 14.821 1.122 20.555 3.366 34.781 10.094 0 22.49.561 30.293.561-1.457-2.018.561-10.11.561-13.464 0-1.744 2.244 10.114 2.244 13.464 0 3.768 4.412 0 7.293 0 5.61 0 5.61-5.049 10.659-5.049 1.122-2.814 5.235-4.113 6.732-5.61 1.353-1.914 5.61-4.171 5.61-5.61-4.493-.561-8.538-19.352-4.488-20.756.773-.268-6.148-10.659-7.854-10.659-15.734-1.4-24.894-12.342-40.391-12.342 0 .561-5.049 8.415-5.049 8.415l1.122 2.805z" class="clothes" stroke="#000" stroke-width="0" fill="url(#gradient-0)"/><path d="M174.999 783.441l.561-.561z" class="clothes" stroke="#000" fill="none"/><g transform="matrix(.03839 0 0 .10086 213.714 776.283)"><g id="layer1" transform="translate(-26.384 -60.263)"><g id="g2873"><path id="path2865" d="M827.268 505.077c-6.8-1.407-28.48-7.924-48.17-14.498-32.96-10.979-37.42-11.809-55.96-10.374-13.33 1.042-20.92.479-22.42-1.618-1.25-1.76-2.36-10.445-2.47-19.299-.12-8.853-.93-19.368-1.81-23.351-.87-3.998-1.12 4.518-.55 18.904 1.33 33.05-.13 35.654-16.33 29.305-6.05-2.364-15.67-5.137-21.38-6.137-13.6-2.407-52.27 3.533-67.94 10.431-16.38 7.207-24.63 6.869-37.45-1.521-11.95-7.84-15.97-15.624-14.13-27.405.68-4.378.42-11.106-.58-14.921-1.72-6.531-2.01-6.165-4.84 5.968-4.63 19.876-11.1 23.296-42.96 22.733-18.22-.324-31.04 1.112-43.76 4.884l-18 5.335-6.63-6.897c-5.18-5.377-10.53-7.39-24.26-9.079-39.19-4.842-88.36-1.478-114.05 7.812-6.56 2.379-12.74 3.603-13.74 2.731-1-.859-4.29-10.698-7.32-21.86-3.03-11.162-5.81-20.283-6.18-20.283-.37 0-2.33 9.881-4.36 21.958-2.57 15.371-4.89 22.887-7.74 25.027-5.91 4.462-48.07.295-70.27-6.94-26.83-8.727-32.1-8.375-42.69 2.928-15.4 16.427-23.835 20.72-40.86 20.762-11.99.028-17.771-1.506-25.764-6.813-19.411-12.879-25.153-30.192-22.932-69.126.756-13.246-42.645-58.34-41.601-90.25 1.045-31.91-19.365-52.592-17.931-72.537 3.846-53.503 55.79 218.42 51.587 132.487-4.522-92.479-6.341-190.728-3.867-208.9 1.609-11.796 3.721-16.722 11.346-26.463 12.517-15.99 37.775-32.946 75.954-50.991 30.03-14.189 32.88-14.982 61.38-17.109 16.43-1.226 35.77-3.17 42.96-4.319 9.97-1.592 13.49-1.165 14.79 1.793 1.35 3.083 2.33 3.151 4.75.33 2.35-2.748 9.73-2.876 32.62-.567 16.26 1.642 36.99 3.012 46.06 3.046 22.4.081 32.29 2.656 33.41 8.697.63 3.339 2.43 4.51 5.62 3.65 2.59-.695 13.88 1.365 25.09 4.579 11.22 3.215 27.56 6.746 36.32 7.849 15.67 1.97 15.97 1.881 17.9-5.244 1.07-3.986 4.63-9.933 7.91-13.214 5.64-5.653 8.87-5.977 61.46-6.161 30.53-.107 62.93-1.287 72-2.62 28.6-4.207 41.67 6.564 29.7 24.492-4.99 7.472-4.05 13.126 1.17 7.034 2.11-2.472 9.38-3.51 22.2-3.175 12.24.319 27.68-1.76 43.13-5.805 18.89-4.949 26.64-5.759 36.05-3.766 10.95 2.317 12.3 3.424 15.52 12.693 1.94 5.585 3.57 8.071 3.62 5.526.05-2.545 1.92-6.945 4.14-9.779 3.41-4.334 6.18-4.829 17.5-3.122l13.46 2.029-1.07-8.208c-1.84-14.18 1.26-16.95 18.53-16.552 15.34.353 15.8.594 47.98 25.069 43.91 33.387 87.67 70.069 96.26 80.696 11.98 14.794 11.22 31.994-2.3 52.362l-5.06 7.615 6.84 1.816c9.41 2.491 30.87 17.215 34.82 23.887 6.62 11.204 8.69 28.292 7.39 61.089-1.92 48.365-4.1 61.751-14.39 88.481-10.6 27.518-21.61 70.211-30.33 117.576-9.59 52.137 3.708-378.943 6.548-254.793 1.35 58.696 3.26 120.419 4.26 137.169 2.94 49.59.04 69.268-11.03 74.898-7.88 4.012-77.73 4.054-97.15.056zM450.66 127.962c0-1.595-.93-2.901-2.07-2.901-1.13 0-2.06 1.306-2.06 2.901 0 1.596.93 2.901 2.06 2.901 1.14 0 2.07-1.305 2.07-2.901z" fill="url(#pattern-0-0)"/><path id="path2863" d="M784.468 492.713c-5.454-.777-26.617-4.46-47.029-8.193-33.659-6.153-38.921-6.735-56.505-6.24l-19.393.538-1.424-10.737c-.779-5.905-2.78-12.98-4.444-15.718-2.924-4.802-2.982-4.547-1.664 6.994 1.751 15.393 1.587 20.049-.77 21.836-1.231.922-6.464.559-14.65-1.032-17.623-3.414-62.276-2.179-82.131 2.28-16.19 3.64-26.377 3.931-35.265 1.033-12.428-4.068-14.218-5.957-15.295-16.133-1.126-10.715-3.511-11.368-7.994-2.202-4.598 9.407-9.235 10.475-46.529 10.708-19.249.116-33.928.892-37.314 1.961-8.302 2.622-16.036 2.143-21.923-1.351-11.514-6.843-97.214-7.147-131.777-.48-6.936 1.344-13.256 1.852-14.093 1.14-.846-.711-4.059-6.624-7.156-13.146-3.088-6.516-6.08-10.896-6.638-9.727-.558 1.162-2.838 7.511-5.069 14.092l-4.04 11.977-25.944-.253c-18.364-.189-31.013-1.17-43.288-3.371-26.242-4.707-32.523-4.3-44.605 2.92-13.285 7.925-17.806 9.072-35.995 9.101-16.777.03-25.08-1.946-35.133-8.346-10.26-6.529-12.884-12.863-11.505-27.747.648-6.995 2.037-23.164 3.086-35.926 1.05-12.77 3.431-36.007 5.291-51.653 5.016-42.173 4.566-121.319-1.022-179.785-2.368-24.769-4.504-57.775-4.75-73.356-.5-31.852.145-33.828 13.889-42.508 18.327-11.582 83.79-30.467 114.51-33.041 41.653-3.487 69.299-4.705 70.02-3.081.924 2.11 6.34 2.161 6.34.059 0-1.05 4.54-1.288 13.38-.701 7.369.489 28.108 1.515 46.106 2.281 17.989.766 35.689 1.851 39.334 2.413 6.195.952 6.542 1.324 5.339 5.67-.702 2.557-1.645 7.345-2.078 10.639l-.798 5.989 1.962-6.144c1.078-3.379 3.935-7.521 6.359-9.204l4.406-3.059 21.807 3.546c12.707 2.066 28.637 3.564 38.17 3.59 15.016.038 16.353-.202 16.353-2.931 0-1.811 3.107-4.525 7.936-6.938 7.917-3.959 7.994-3.965 34.669-2.897 15.679.627 43.912.325 68.288-.73 22.847-.991 43.807-1.373 46.559-.85 2.76.521 6.012 2.357 7.233 4.078 1.867 2.631 1.366 3.797-3.107 7.328-4.021 3.162-4.983 5.033-3.905 7.582l1.423 3.384 3.608-3.616c3.415-3.416 4.588-3.592 21.076-3.16 11.774.308 24.251-.545 38.285-2.617 21.702-3.204 32.793-3.744 43.538-2.121 6.06.914 7.571 2.323 10.899 10.162 1.058 2.494 1.693 2.186 4.617-2.245l3.396-5.136 15.218.268 15.218.267-1.048-4.873c-1.674-7.828 3.347-10.466 17.776-9.328 10.139.801 17.373 3.306 54.629 18.917 53.148 22.273 81.102 35.457 86.162 40.651 5.8 5.949 3.251 13.213-7.628 21.791-4.849 3.829-8.821 7.155-8.821 7.395 0 .247 2.597.051 5.781-.428 13.371-2.02 39.382 8.636 44.75 18.34 3.847 6.966 3.857 25.801.019 42.21-2.174 9.24-5.445 16.074-12.746 26.578-10.572 15.218-27.55 52.321-32.831 71.765-1.789 6.588-3.983 20.404-4.877 30.697-1.847 21.174.654 106.937 4.021 138.236 3.078 28.533.75 38.876-9.562 42.544-6.282 2.23-75.109 2.266-90.712.044zm17.575-11.274c-1.732-4.307-2.347-9.392-1.578-12.9 1.203-5.441 15.959-38.476 27.377-61.292 12.458-24.885 15.343-65.061 11.101-154.499-1.443-30.464-2.693-65.163-2.78-77.105-.144-20.672.116-22.125 5.301-30.492 3.001-4.839 5.454-9.015 5.454-9.291 0-.269-4.339-.109-9.639.363-5.541.501-12.784.08-17.026-.974-8.023-2.004-20.923-9.747-20.923-12.573 0-.966-3.088-6.632-6.868-12.588-8.706-13.714-38.218-37.539-51.176-41.295-5.127-1.489-9.638-4.125-11.649-6.799-1.808-2.399-5.012-5.065-7.137-5.921-3.531-1.427-4.127-.699-7.128 8.696-1.799 5.637-3.281 11.564-3.281 13.169 0 4.148-5.781 7.533-13.871 8.121l-6.945.508.673-6.682c.683-6.704-1.549-14.418-6.916-23.852l-2.886-5.081-16.334.949c-8.985.521-20.643 2.055-25.896 3.407-7.176 1.847-13.919 2.271-27.069 1.705-18.777-.808-19.71-.468-19.71 7.117 0 1.94-.885 5.281-1.972 7.423-1.703 3.393-2.501 3.684-6.108 2.223-7.013-2.832-10.341-11.295-9.293-23.64.751-8.876.356-11.158-2.058-11.859-1.645-.477-16.613.34-33.245 1.817-29.215 2.592-61.074 2.556-85.652-.094-6.253-.677-9.822-.235-13.737 1.704l-5.29 2.616 8.561 2.409c9.417 2.652 18.989 10.551 10.235 8.453-3.848-.923-6.118.22-14.458 7.285-5.435 4.605-11.178 8.375-12.746 8.375-3.193 0-6.733-5.84-6.733-11.087 0-3.286-.953-3.475-26.271-5.211-14.449-.99-29.311-2.198-33.024-2.685l-6.753-.884 1.299 7.16c.837 4.586.481 7.906-.972 9.235-1.721 1.562-1.702 3.544.106 8.084 2.309 5.833 2.107 6.356-6.964 17.964-5.147 6.573-10.322 11.731-11.515 11.461-4.617-1.038-11.736-15.101-13.332-26.338-4.06-28.64-4.954-33.2-6.763-34.568-2.107-1.591-47.924-6.029-62.459-6.051l-9.023-.014-2.482 9.077c-2.895 10.591-6.349 11.328-13.525 2.89-8.985-10.566-9.86-11.166-15.747-10.803-37.583 2.316-82.275 8.786-92.645 13.409-.914.41 3.549 2.334 9.918 4.275 6.368 1.941 13.698 5.362 16.285 7.606 4.137 3.589 4.579 5.158 3.723 13.141-1.231 11.455-12.111 36.093-25.992 58.829-10.976 18-24.664 47.839-30.213 65.896-8.09 26.317-11.076 48.762-12.142 91.269-1.417 56.513 1.589 74.454 19.269 114.956 10.648 24.406 13.823 35.462 13.852 48.333.028 10.322.24 10.823 3.867 9.363 5.877-2.375 14.246-1.881 34.303 2.027 19.364 3.77 52.503 6.319 56.302 4.329 2.742-1.424 11.457-21.929 14.343-33.697 1.154-4.713 3.463-10.575 5.146-13.024 1.674-2.454 3.079-6.341 3.117-8.65l.058-4.192 4.665 4.003c4.329 3.711 9.091 17.527 9.091 26.382 0 1.75 2.001 4.59 4.444 6.311 3.376 2.376 4.444 4.816 4.454 10.162.019 6.619.317 7.018 4.983 6.625 2.722-.225 32.86-1.046 66.97-1.815 62.536-1.417 64.326-1.323 75.782 3.857 5.484 2.484 17.267 1.99 26.906-1.126 3.357-1.09 14.439-1.903 26.252-1.94l20.441-.058 8.302-6.806c4.569-3.741 9.34-8.121 10.6-9.726 2.155-2.768 2.607-2.796 8.09-.523 5.734 2.375 5.849 2.346 7.917-1.802 3.579-7.155 9.437-6.922 35.534 1.417 22.221 7.104 43.952 12.45 67.75 16.67 5.801 1.024 12.256 3.254 14.333 4.946 3.685 2.979 3.915 2.994 7.802.342 4.781-3.269 5.021-7.183.971-15.856-2.289-4.89-2.53-7.57-1-10.896 1.125-2.427 2.039-6.102 2.039-8.171 0-4.454 8.552-16.039 12.736-17.253 3.05-.878 3.858.379 6.109 9.48.702 2.883 3.876 10.046 7.032 15.907 3.164 5.87 6.329 14.36 7.031 18.879l1.28 8.208 22.067.872c16.728.66 28.291 2.186 47.837 6.311 41.836 8.833 53.292 11.041 57.804 11.128 4.175.08 4.204-.079 1.414-7.031zM465.987 63.73c-2.463-2.367-2.395-2.425.75-.559 3.3 1.954 4.348 3.182 2.722 3.182-.413 0-1.972-1.177-3.472-2.623zm394.436 418.922c.501-1.118-.25-1.677-1.731-1.307-1.433.364-2.992 1.54-3.473 2.623-.49 1.118.25 1.685 1.741 1.307 1.424-.356 2.992-1.54 3.463-2.623zm-278.195-11.098c18.249-1.592 20.673-2.085 14.872-3.037-11.764-1.925-43.951-10.162-57.188-14.643-6.916-2.34-12.909-4.249-13.313-4.249-.404 0-1.693 1.35-2.857 2.992-1.529 2.15-1.491 3.886.106 6.145 1.885 2.659 1.385 3.806-3.213 7.431l-5.445 4.293 4.772 1.329c2.626.734 6.108 1.757 7.743 2.281 3.454 1.097 23.539.159 54.523-2.542zm-523.866-11.44c5.214-.008 12.575.966 16.358 2.164 7.609 2.397 7.518 2.505 4.956-5.913-1.003-3.298-4.283-19.466-7.29-35.933-5.027-27.537-5.433-33.313-5.045-71.868.515-51.274 3.446-98.293 7.374-118.268 5.607-28.532 15.797-54.522 38.745-98.816 10.639-20.542 12.534-25.663 13.294-35.978.731-9.878.318-12.391-2.356-14.062-4.541-2.848-5.464-1.467-2.713 4.039 1.981 3.966 1.741 5.81-1.559 11.817-4.963 9.059-16.583 15.887-33.867 19.917-16.485 3.85-29.4 3.88-39.225.095l-7.643-2.942 1.373 22.031c.755 12.116 2.639 33.995 4.185 48.617 7.151 67.618 5.531 142.863-5.022 233.143-2.163 18.516-3.934 36.864-3.934 40.78v7.111l6.444-2.964c4.045-1.867 9.974-2.97 15.925-2.97zm790.422 1.488c4.896 0 12.746 1.104 17.44 2.462 4.694 1.352 8.821 2.195 9.167 1.874.356-.326-.144-6.994-1.096-14.817-.953-7.824-1.924-45.886-2.165-84.587l-.432-70.37 5.406-18.865c6.964-24.304 14.477-40.379 31.417-67.219 12.274-19.459 19.22-35.359 16.334-37.429-.577-.407-2.511.922-4.3 2.963-6.984 7.954-15.459 14.092-23.058 16.7-8.715 2.992-28.666 3.741-34.688 1.307-7.801-3.152-10.87-19.859-5.175-28.184 6.176-9.006 19.316-12.21 20.662-5.033.808 4.249 5.07 3.494 5.955-1.053 1.356-7.01-9.302-10.533-23.279-7.693-16.247 3.305-17.344 10.141-12.967 80.882 2.501 40.379 3.02 65.781 2.001 97.313-.76 23.468-1.203 44.017-.982 45.66.212 1.648.385 9.398.366 17.222-.029 11.847-1.568 18.856-9.187 41.969-5.031 15.261-9.148 28.605-9.148 29.651 0 1.417 1.135 1.307 4.406-.422 2.424-1.285 8.417-2.331 13.323-2.331zm39.488-271.105c3.809-2.68 4.348-4.401 3.848-12.231-.327-5.02-1.549-9.356-2.723-9.654-1.173-.291-4.521 1.141-7.436 3.181-4.338 3.036-5.3 5.027-5.3 10.969 0 6.442 2.424 10.852 5.964 10.852.674 0 3.213-1.403 5.647-3.117zm-48.867-76.61c-.808-11.012 4.175-16.62 19.393-21.806 6.483-2.208 11.813-4.518 11.851-5.121.087-1.445-8.744-5.6-46.76-22.016-47.213-20.38-66.798-27.569-71.838-26.361-8.379 2.009-4.656 6.747 21.028 26.768 28.04 21.857 42.96 34.916 49.982 43.779 5.849 7.357 12.006 12.616 14.786 12.623 1.327 0 1.914-2.978 1.558-7.866zm28.329-1.119c.703-.865-.712-1.337-3.347-1.126-3.915.32-4.579-.304-4.579-4.3.01-3.131-.818-4.438-2.472-3.958-3.454 1.002-3.107 5.702.625 8.527 3.549 2.673 7.965 3.065 9.773.857zM91.761 105.86c5.573-3.806 4.6-5.905-5.006-10.801-10.763-5.483-13.085-4.249-13.085 6.973v8.129l7.185-.879c3.953-.487 8.86-2.027 10.906-3.422zm.822-15.645c.717-.879-.105-2.768-1.825-4.199-2.852-2.382-2.837-2.833.183-5.113 4.68-3.532 1.38-5.173-4.992-2.485-6.973 2.949-7.89 7.903-2.037 10.998 5.309 2.811 6.906 2.956 8.671.799zm343.05-37.192c-1.626-1.987-7.061-2.191-7.061-.265 0 .755.567 2.491 1.26 3.858 1.116 2.194 1.606 2.225 4.204.266 1.616-1.219 2.337-2.957 1.597-3.859z" fill="url(#pattern-0-1)"/><path id="path2861" d="M778.38 466.865c-45.31-7.465-49.77-7.96-69.05-7.635l-20.6.352-1.48-8.729c-1.56-9.218-6.63-19.504-10.36-21.002-2.16-.873-1.04 15.563 1.69 24.676.64 2.111-.08 4.762-1.65 6.143-2.28 2.006-3.75 2.182-8.42 1.029-19.92-4.938-63.43-4.28-91.09 1.368-20.8 4.241-37.93 2.821-47.14-3.915-2.72-1.993-3.45-3.856-2.48-6.364.75-1.948.3-5.635-.99-8.182-3.27-6.456-8.33-5.433-11.71 2.358-3.83 8.833-7.48 9.602-46.92 9.921-19.27.157-35.4.912-38.79 1.818-8.6 2.306-16.68 1.889-22.63-1.16-11.48-5.882-87.83-6.625-129.2-1.257-10.75 1.401-20.21 2.104-21.03 1.576-3.02-1.967-11.99-19.288-11.99-23.151 0-8.013-3.89-3.681-8.16 9.094-2.41 7.204-5.15 13.999-6.1 15.106-2.68 3.147-49.55 2.339-72.3-1.251-26.5-4.169-32.66-3.817-45.17 2.632-13.823 7.114-18.856 8.228-37.28 8.26-16.98.02-24.27-1.355-34.76-6.566-10.747-5.342-15.519-13.726-13.918-24.468 18.835-126.305 116.529-226.319 101.43-355.992-1.812-15.557-2.8-31.119-2.196-34.572 2.898-16.598 19.533-25.64 69.566-37.808 34.384-8.362 54.024-11.442 86.834-13.62 17.3-1.148-61.846 65.545-57.046 65.108 8.01-.73 8.89-.509 10.77 2.71 2.54 4.354 6.27 4.574 6.27.371 0-3.075.32-3.124 17.01-2.584 21.52.697 25.14 1.448 7.62 1.585-15.22.119-18.45 1.446-18.45 7.595 0 5.634-4.4 8.125-8.71 4.926-1.73-1.29-4.74-4.383-6.68-6.874-3.43-4.407-3.79-4.507-13.13-3.667-5.28.475 78.806-66.511 68.036-65.758-25.56 1.786-82.49 11.082-79.56 12.992.58.374 5.45 1.216 10.83 1.871 20.94 2.549 31.63 8.223 31.63 16.789 0 9.225-12.45 33.028-30.84 58.961-9.83 13.863-120.979 109.206-126.232 124.997-14.821 44.531-17.557 113.778-5.959 150.851 2.304 7.367 8.719 22.533 14.255 33.711 11.79 23.803 15.41 35.887 13.81 46.017-1.12 7.068-.99 7.309 3.35 6.482 12.21-2.326 18.1-2.143 36.5 1.107 21.5 3.798 64.32 6.273 66.62 3.85.72-.756 4.16-8.807 7.65-17.888 3.49-9.081 7.73-18.247 9.42-20.377 5.73-7.218 10.32-2.306 10.83 11.609.14 3.615 2.26 10.162 4.71 14.553l4.47 7.973 8.41-.886c4.63-.482 37.58-1.185 73.22-1.563 63.94-.671 64.92-.639 72.89 2.28 9.32 3.413 22.26 3.087 35.04-.886 6.5-2.02 8.99-2.124 18.04-.762 12.94 1.947 31.79 2.052 37.08.201 2.28-.794 5.32-4.462 7.21-8.696 1.8-4.032 4.21-7.706 5.35-8.169 1.14-.456 4.38.573 7.19 2.293 4.31 2.638 5.4 2.821 7.03 1.147 1.05-1.088 1.93-3.017 1.95-4.28.02-1.271 1.93-2.964 4.25-3.772 3.47-1.212 8.44-.261 28.34 5.433 13.27 3.791 32.47 8.423 42.67 10.279 22.06 4.02 28.77 6.163 15.46 4.945-9.93-.906-47.74-8.931-65.28-13.85-14.96-4.195-18.19-3.485-18.21 3.994-.01 4.794-.69 5.941-3.36 5.654-4.01-.43-6.49 4.521-3.85 7.726 2.31 2.814 15.27 5.394 27.04 5.374 4.97-.006 18.95-.86 31.06-1.902 14.81-1.277 31.25-1.642 50.23-1.127l28.21.775-1.34-15.986c-.97-11.576-.57-17.836 1.43-22.696 3.29-7.967 8.05-8.944 9.82-2.019.66 2.586 3.77 8.859 6.91 13.941 3.14 5.081 6.15 11.426 6.7 14.096 2.35 11.57 1.25 10.905 18.1 10.905 18.95 0 38.8 2.437 76.17 9.348 30.07 5.564 48.69 8.254 50.91 7.362.71-.287-.37-3.701-2.39-7.596-2.09-4.026-3.18-8.807-2.53-11.113 1.41-4.977 21.02-42.545 29.24-56.023 3.31-5.433 7.6-16.507 9.54-24.605 3.9-16.331 5.55-19.406 5-9.315-.19 3.674.62 9.361 1.81 12.638 2.65 7.289.21 22.383-5.76 35.665-2.33 5.173-6.58 16.188-9.45 24.487-5.69 16.429-5.31 23.002 1.61 27.504 4.4 2.866 3.64 4.527-1.49 3.244-1.8-.45-4.71-3.055-6.46-5.785-3.9-6.084-2.76-13.524 5.43-35.496 5.52-14.794 9.91-32.181 7.77-30.735-.55.365-7.37 11.85-15.16 25.51-12.13 21.276-14.16 26.103-14.2 33.66-.04 7.413.86 9.712 5.65 14.435l5.69 5.609h18.55c22.97 0 35.45-3.14 39.04-9.836 2.01-3.727 1.76-4.547-2-6.534-2.35-1.251-9.46-3.538-15.79-5.081-10.58-2.574-11.91-2.632-16.41-.717-2.69 1.153-4.89 3.322-4.89 4.827s-.93 2.358-2.06 1.902c-1.14-.456-2.07-2.586-2.07-4.729 0-7.146 12.41-8.645 32.02-3.87 6.35 1.551 11.97 2.547 12.48 2.215.51-.332-.08-9.309-1.33-19.94-1.24-10.631-2.42-44.401-2.61-75.044-.35-53.098-.14-56.486 4.37-71.84 6.41-21.797 16.17-40.193 34.87-65.709 15.6-21.296 15.69-21.465 16.65-34.441 1.22-16.638-.29-21.608-8.42-27.64-16.98-12.606-39.29-12.84-64.64-.678-7.76 3.72-8.89 5.029-11.97 13.849-4.18 11.974-4.21 24.781-.22 92.086 1.71 28.982 2.42 58.485 1.61 67.801l-1.42 16.5-1.37-11.413c-.75-6.279-1.47-22.897-1.61-36.922-.14-14.032-1.14-37.953-2.24-53.15-1.09-15.198-2.19-38.161-2.45-51.02l-.47-23.387 6.49-9.035c7.58-10.546 6.93-11.243-9.99-10.625-8.52.307-13.75-.299-19.72-2.28-10.17-3.387-11.62-4.54-17.11-13.647-2.45-4.058-7.2-10.403-10.55-14.09l-6.09-6.717 8.01 5.655c4.49 3.172 9.97 9.178 12.49 13.68 5.29 9.439 13.06 14.266 25.11 15.588 11.09 1.225 15.01-1.022 6.68-3.83-3.32-1.114-9.59-5.55-13.94-9.85-4.35-4.299-11.7-10.839-16.32-14.526-11.46-9.146-59.36-41.449-62.82-42.363-1.59-.422-3.08-3.301-3.47-6.704-.83-7.239 3.12-10.687 12.25-10.68l6.38.005-6.7 2.661c-11.92 4.733-9.89 7.557 19.63 27.343 30.53 20.468 41.53 28.826 53.02 40.265 8 7.967 19.84 13.94 28.14 14.201 2.97.097 14.56-4.28 30.26-11.42 5.81-2.645 12.7-9.719 12.71-13.054 0-1.336-4.73-5.694-10.53-9.687l-10.53-7.257 11.55 4.078c12.17 4.293 17.76 8.188 17.76 12.371 0 5.126-7.13 12.025-17.89 17.321-6.09 2.997-10.73 5.674-10.3 5.954.43.28 5.4-.189 11.06-1.042 12.37-1.857 25.9.521 39.24 6.918 13.13 6.286 15.77 11.335 14.34 27.392-1.43 16.208-6.8 28.357-19.01 43.053-9.32 11.218-24.58 39.972-31.87 60.069-6.83 18.8-8.41 42.46-6.15 91.655 1.12 24.37 3.01 52.16 4.21 61.762 2.86 22.891 1.25 32.207-6.39 37.19l-5.78 3.759-38.8-.085-38.81-.084-48.43-7.987zm-682.24-5.27c6.711-2.339 10.721-10.084 11.871-22.904 1.01-11.302.81-11.908-11.659-35.985-6.977-13.465-14.069-29.138-15.76-34.825-5.047-16.97-119.9-29.355-118.451-58.402 2.873-57.619 219.304-168.315 256.736-230.924 27.9-46.675 28.87-51.645 11.09-56.902-17.19-5.083-59.944-1.792-78.039 6.006-8.761 3.778-16.271 12.905-16.271 19.777 0 3.994 1.693 5.798 10.502 11.166l10.502 6.397 12.726-.665c14.165-.742 31.69-5.771 39.69-11.393 7.31-5.14 6.72-11.778-1.28-14.475-7.77-2.612-7.79-3.355-.08-3.355 6.82 0 14.51 4.437 14.51 8.365 0 3.967-7.52 12.481-14.31 16.201-8.32 4.566-27.294 9.107-41.725 9.986-10.106.619-12.995.228-20.998-2.827-5.104-1.948-9.694-3.088-10.201-2.528-.986 1.088-183.714 125.788-180.309 152.353 6.524 50.903 93.991 110.238 82.953 192.944-5.712 42.792-5.11 47.632 4.923 39.574 3.203-2.573 5.692-3.01 16.819-2.958 8.226.046 15.54.925 19.759 2.385 8.131 2.814 8.104 2.918 3.669-13.863-6.428-24.324-13.798-75.865-10.543-73.735.47.306 1.918 6.905 3.218 14.657 2.519 15.029 15.516 67.677 18.438 74.686 2.973 7.14.218 7.72-14.808 3.14-15.9-4.846-27.144-5.016-31.742-.475-2.503 2.469-2.403 3.192.796 5.732 6.413 5.088 36.431 6.873 47.974 2.847zm249.77-345.446c-5.31-4.169-6.65-9.335-4.46-17.204 1.84-6.618 1.65-8.533-1.23-12.162-2.42-3.052-3.08-6.152-2.25-10.679l1.16-6.378-9.68-1.337c-5.32-.736-16.42-1.765-24.67-2.286-14.53-.92-23.1-3.341-11.41-3.223 10.94.111 54.37 3.617 55.73 4.498.74.485.25 2.874-1.11 5.308-3.15 5.674-3.14 11.978.02 14.038 4 2.6 5 1.896 4.13-2.913-.75-4.186 3.48-11.853 7.4-13.433.92-.369 9.97.553 20.11 2.048 10.15 1.495 28.18 3.438 40.07 4.319 18.86 1.396 21.72 1.94 22.36 4.245 1.23 4.434 4.04 5.318 8.53 2.672 6.01-3.544 5.46-7.413-1.05-7.413-7.81 0-8.93-3.839-2.23-7.596 6.63-3.715 11.65-4.23 6.74-.69-5.16 3.712-4.35 6.943 1.74 6.943 7.27 0 6.69 3.845-1.65 10.973-8.61 7.353-12.16 7.412-14.34.247-1.99-6.547-4.12-7.147-25.48-7.174-8.07-.01-22.74-.935-32.6-2.055-9.86-1.12-18.8-1.688-19.85-1.263-1.06.425-1.92 4.514-1.91 9.086.01 4.571-1.07 13.144-2.4 19.052-2.97 13.25-6.2 16.67-11.67 12.377zm448.84-12.566c-7.31-4.866-17.18-9.999-21.94-11.413-4.76-1.407-10.63-4.364-13.04-6.576-4.82-4.409-15.4-8.576-18.56-7.307-1.1.443-2.09 3.338-2.19 6.433-.11 3.092-1.27 8.949-2.58 13.014-1.95 6.064-3.21 7.458-7.02 7.81-5.13.476-5.39-.045-4.69-9.641.46-6.364-4.51-16.458-9.16-18.627-4.67-2.174-38.12-1.066-50.02 1.658-12.34 2.824-31.88 3.533-40.25 1.461-6.97-1.727-9.9-.037-12.79 7.385-2.93 7.511-6.38 8.963-9.32 3.934-2.77-4.749-2.61-7.409.43-7.409 1.37 0 4.39-1.537 6.7-3.415 4.02-3.274 5.27-3.437 29.96-3.917 14.17-.275 31.33-1.436 38.13-2.579 13.16-2.211 27.32-2.708 37.9-1.331 4.83.63 6.75 1.734 7.59 4.364 2.17 6.767 9.13 11.304 9.13 5.946 0-4.701 5.94-8.467 13.35-8.467 9.18 0 13.45 1.176 13.45 3.709 0 3.235 10.08 11.06 14.25 11.06 2.06 0 6.08 1.199 8.94 2.665 6.79 3.478 27.07 18.748 25.91 19.503-.49.32-6.88-3.393-14.18-8.26zm84.16-7.511c-9.89-3.804-17.65-7.133-17.24-7.393.87-.574 36.25 12.905 36.25 13.803 0 .919.34 1.036-19.01-6.41zM603.16 70.224c5.08-3.99.93-6.059-12.16-6.059-6.77 0-12.88-.605-13.58-1.343-.8-.842 3.65-1.343 11.92-1.343 10.17 0 13.98.564 16.61 2.456 4.31 3.101 4.38 6.415.15 7.47-5.03 1.259-5.71.989-2.94-1.181zm-92.73-3.189c1.7-.696 14.68-1.602 28.85-2.011 16.49-.477 22.8-.331 17.52.402-12.93 1.799-49.97 3.085-46.37 1.609z" fill="url(#pattern-0-2)"/></g></g></g><g transform="matrix(.03292 -.01886 .05428 .0865 230.635 779.12)"><g id="g-2" transform="translate(-26.384 -60.263)"><g id="g-3"><path id="path-1" d="M827.268 505.077c-6.8-1.407-28.48-7.924-48.17-14.498-32.96-10.979-37.42-11.809-55.96-10.374-13.33 1.042-20.92.479-22.42-1.618-1.25-1.76-2.36-10.445-2.47-19.299-.12-8.853-.93-19.368-1.81-23.351-.87-3.998-1.12 4.518-.55 18.904 1.33 33.05-.13 35.654-16.33 29.305-6.05-2.364-15.67-5.137-21.38-6.137-13.6-2.407-52.27 3.533-67.94 10.431-16.38 7.207-24.63 6.869-37.45-1.521-11.95-7.84-15.97-15.624-14.13-27.405.68-4.378.42-11.106-.58-14.921-1.72-6.531-2.01-6.165-4.84 5.968-4.63 19.876-11.1 23.296-42.96 22.733-18.22-.324-31.04 1.112-43.76 4.884l-18 5.335-6.63-6.897c-5.18-5.377-10.53-7.39-24.26-9.079-39.19-4.842-88.36-1.478-114.05 7.812-6.56 2.379-12.74 3.603-13.74 2.731-1-.859-4.29-10.698-7.32-21.86-3.03-11.162-5.81-20.283-6.18-20.283-.37 0-2.33 9.881-4.36 21.958-2.57 15.371-4.89 22.887-7.74 25.027-5.91 4.462-48.07.295-70.27-6.94-26.83-8.727-32.1-8.375-42.69 2.928-15.4 16.427-23.835 20.72-40.86 20.762-11.99.028-17.771-1.506-25.764-6.813-19.411-12.879-25.153-30.192-22.932-69.126.756-13.246-42.645-58.34-41.601-90.25 1.045-31.91-19.365-52.592-17.931-72.537 3.846-53.503 55.79 218.42 51.587 132.487-4.522-92.479-6.341-190.728-3.867-208.9 1.609-11.796 3.721-16.722 11.346-26.463 12.517-15.99 37.775-32.946 75.954-50.991 30.03-14.189 32.88-14.982 61.38-17.109 16.43-1.226 35.77-3.17 42.96-4.319 9.97-1.592 13.49-1.165 14.79 1.793 1.35 3.083 2.33 3.151 4.75.33 2.35-2.748 9.73-2.876 32.62-.567 16.26 1.642 36.99 3.012 46.06 3.046 22.4.081 32.29 2.656 33.41 8.697.63 3.339 2.43 4.51 5.62 3.65 2.59-.695 13.88 1.365 25.09 4.579 11.22 3.215 27.56 6.746 36.32 7.849 15.67 1.97 15.97 1.881 17.9-5.244 1.07-3.986 4.63-9.933 7.91-13.214 5.64-5.653 8.87-5.977 61.46-6.161 30.53-.107 62.93-1.287 72-2.62 28.6-4.207 41.67 6.564 29.7 24.492-4.99 7.472-4.05 13.126 1.17 7.034 2.11-2.472 9.38-3.51 22.2-3.175 12.24.319 135.418-3.64 150.868-7.685 18.89-4.949 26.64-5.759 36.05-3.766 10.95 2.317 12.3 3.424 15.52 12.693 1.94 5.585 3.57 8.071 3.62 5.526.05-2.545 1.92-6.945 4.14-9.779 3.41-4.334 6.18-4.829 17.5-3.122l13.46 2.029-1.07-8.208c-1.84-14.18 1.26-16.95 18.53-16.552 15.34.353 15.8.594 47.98 25.069 43.91 33.387-11.131 29.504-2.541 40.131 11.98 14.794-96.518 33.874-110.038 54.242l-5.06 7.615 6.84 1.816c9.41 2.491 30.87 17.215 34.82 23.887 6.62 11.204-79.774 66.083-81.074 98.88-1.92 48.365 122.912 95.782 112.622 122.512-10.6 27.518 38.643 38.954 29.923 86.319-9.59 52.137-84.546-284.165-84.546-284.165S792.068 404.53 793.068 421.28c2.94 49.59 142.42 78.111 131.35 83.741-7.88 4.012-77.73 4.054-97.15.056zM450.66 127.962c0-1.595-.93-2.901-2.07-2.901-1.13 0-2.06 1.306-2.06 2.901 0 1.596.93 2.901 2.06 2.901 1.14 0 2.07-1.305 2.07-2.901z" fill="url(#pattern-1)"/><path id="path-2" d="M784.468 492.713c-5.454-.777-26.617-4.46-47.029-8.193-33.659-6.153-38.921-6.735-56.505-6.24l-19.393.538-1.424-10.737c-.779-5.905-2.78-12.98-4.444-15.718-2.924-4.802-2.982-4.547-1.664 6.994 1.751 15.393 1.587 20.049-.77 21.836-1.231.922-6.464.559-14.65-1.032-17.623-3.414-62.276-2.179-82.131 2.28-16.19 3.64-26.377 3.931-35.265 1.033-12.428-4.068-14.218-5.957-15.295-16.133-1.126-10.715-3.511-11.368-7.994-2.202-4.598 9.407-9.235 10.475-46.529 10.708-19.249.116-33.928.892-37.314 1.961-8.302 2.622-16.036 2.143-21.923-1.351-11.514-6.843-97.214-7.147-131.777-.48-6.936 1.344-13.256 1.852-14.093 1.14-.846-.711-4.059-6.624-7.156-13.146-3.088-6.516-6.08-10.896-6.638-9.727-.558 1.162-2.838 7.511-5.069 14.092l-4.04 11.977-25.944-.253c-18.364-.189-31.013-1.17-43.288-3.371-26.242-4.707-32.523-4.3-44.605 2.92-13.285 7.925-17.806 9.072-35.995 9.101-16.777.03-25.08-1.946-35.133-8.346-10.26-6.529-12.884-12.863-11.505-27.747.648-6.995 2.037-23.164 3.086-35.926 1.05-12.77 3.431-36.007 5.291-51.653 5.016-42.173 4.566-121.319-1.022-179.785-2.368-24.769-4.504-57.775-4.75-73.356-.5-31.852.145-33.828 13.889-42.508 18.327-11.582 83.79-30.467 114.51-33.041 41.653-3.487 69.299-4.705 70.02-3.081.924 2.11 6.34 2.161 6.34.059 0-1.05 4.54-1.288 13.38-.701 7.369.489 28.108 1.515 46.106 2.281 17.989.766 35.689 1.851 39.334 2.413 6.195.952 6.542 1.324 5.339 5.67-.702 2.557-1.645 7.345-2.078 10.639l-.798 5.989 1.962-6.144c1.078-3.379 3.935-7.521 6.359-9.204l4.406-3.059 21.807 3.546c12.707 2.066 28.637 3.564 38.17 3.59 15.016.038 16.353-.202 16.353-2.931 0-1.811 3.107-4.525 7.936-6.938 7.917-3.959 7.994-3.965 34.669-2.897 15.679.627 43.912.325 68.288-.73 22.847-.991 43.807-1.373 46.559-.85 2.76.521 6.012 2.357 7.233 4.078 1.867 2.631 1.366 3.797-3.107 7.328-4.021 3.162-4.983 5.033-3.905 7.582l1.423 3.384 3.608-3.616c3.415-3.416 4.588-3.592 21.076-3.16 11.774.308 24.251-.545 38.285-2.617 21.702-3.204 32.793-3.744 43.538-2.121 6.06.914 7.571 2.323 10.899 10.162 1.058 2.494 1.693 2.186 4.617-2.245l3.396-5.136 15.218.268 15.218.267-1.048-4.873c-1.674-7.828 3.347-10.466 17.776-9.328 10.139.801 17.373 3.306 54.629 18.917 53.148 22.273 81.102 35.457 86.162 40.651 5.8 5.949 3.251 13.213-7.628 21.791-4.849 3.829-8.821 7.155-8.821 7.395 0 .247 2.597.051 5.781-.428 13.371-2.02 39.382 8.636 44.75 18.34 3.847 6.966 3.857 25.801.019 42.21-2.174 9.24-5.445 16.074-12.746 26.578-10.572 15.218-27.55 52.321-32.831 71.765-1.789 6.588-3.983 20.404-4.877 30.697-1.847 21.174.654 106.937 4.021 138.236 3.078 28.533.75 38.876-9.562 42.544-6.282 2.23-75.109 2.266-90.712.044zm17.575-11.274c-1.732-4.307-2.347-9.392-1.578-12.9 1.203-5.441 15.959-38.476 27.377-61.292 12.458-24.885 15.343-65.061 11.101-154.499-1.443-30.464-2.693-65.163-2.78-77.105-.144-20.672.116-22.125 5.301-30.492 3.001-4.839 5.454-9.015 5.454-9.291 0-.269-4.339-.109-9.639.363-5.541.501-12.784.08-17.026-.974-8.023-2.004-20.923-9.747-20.923-12.573 0-.966-3.088-6.632-6.868-12.588-8.706-13.714-38.218-37.539-51.176-41.295-5.127-1.489-9.638-4.125-11.649-6.799-1.808-2.399-5.012-5.065-7.137-5.921-3.531-1.427-4.127-.699-7.128 8.696-1.799 5.637-3.281 11.564-3.281 13.169 0 4.148-5.781 7.533-13.871 8.121l-6.945.508.673-6.682c.683-6.704-1.549-14.418-6.916-23.852l-2.886-5.081-16.334.949c-8.985.521-20.643 2.055-25.896 3.407-7.176 1.847-13.919 2.271-27.069 1.705-18.777-.808-19.71-.468-19.71 7.117 0 1.94-.885 5.281-1.972 7.423-1.703 3.393-2.501 3.684-6.108 2.223-7.013-2.832-10.341-11.295-9.293-23.64.751-8.876.356-11.158-2.058-11.859-1.645-.477-16.613.34-33.245 1.817-29.215 2.592-61.074 2.556-85.652-.094-6.253-.677-9.822-.235-13.737 1.704l-5.29 2.616 8.561 2.409c9.417 2.652 18.989 10.551 10.235 8.453-3.848-.923-6.118.22-14.458 7.285-5.435 4.605-11.178 8.375-12.746 8.375-3.193 0-6.733-5.84-6.733-11.087 0-3.286-.953-3.475-26.271-5.211-14.449-.99-29.311-2.198-33.024-2.685l-6.753-.884 1.299 7.16c.837 4.586.481 7.906-.972 9.235-1.721 1.562-1.702 3.544.106 8.084 2.309 5.833 2.107 6.356-6.964 17.964-5.147 6.573-10.322 11.731-11.515 11.461-4.617-1.038-11.736-15.101-13.332-26.338-4.06-28.64-4.954-33.2-6.763-34.568-2.107-1.591-47.924-6.029-62.459-6.051l-9.023-.014-2.482 9.077c-2.895 10.591-6.349 11.328-13.525 2.89-8.985-10.566-9.86-11.166-15.747-10.803-37.583 2.316-82.275 8.786-92.645 13.409-.914.41 3.549 2.334 9.918 4.275 6.368 1.941 13.698 5.362 16.285 7.606 4.137 3.589 4.579 5.158 3.723 13.141-1.231 11.455-12.111 36.093-25.992 58.829-10.976 18-24.664 47.839-30.213 65.896-8.09 26.317-11.076 48.762-12.142 91.269-1.417 56.513 1.589 74.454 19.269 114.956 10.648 24.406 13.823 35.462 13.852 48.333.028 10.322.24 10.823 3.867 9.363 5.877-2.375 14.246-1.881 34.303 2.027 19.364 3.77 52.503 6.319 56.302 4.329 2.742-1.424 11.457-21.929 14.343-33.697 1.154-4.713 3.463-10.575 5.146-13.024 1.674-2.454 3.079-6.341 3.117-8.65l.058-4.192 4.665 4.003c4.329 3.711 9.091 17.527 9.091 26.382 0 1.75 2.001 4.59 4.444 6.311 3.376 2.376 4.444 4.816 4.454 10.162.019 6.619.317 7.018 4.983 6.625 2.722-.225 32.86-1.046 66.97-1.815 62.536-1.417 64.326-1.323 75.782 3.857 5.484 2.484 17.267 1.99 26.906-1.126 3.357-1.09 14.439-1.903 26.252-1.94l20.441-.058 8.302-6.806c4.569-3.741 9.34-8.121 10.6-9.726 2.155-2.768 2.607-2.796 8.09-.523 5.734 2.375 5.849 2.346 7.917-1.802 3.579-7.155 9.437-6.922 35.534 1.417 22.221 7.104 43.952 12.45 67.75 16.67 5.801 1.024 12.256 3.254 14.333 4.946 3.685 2.979 3.915 2.994 7.802.342 4.781-3.269 5.021-7.183.971-15.856-2.289-4.89-2.53-7.57-1-10.896 1.125-2.427 2.039-6.102 2.039-8.171 0-4.454 8.552-16.039 12.736-17.253 3.05-.878 3.858.379 6.109 9.48.702 2.883 3.876 10.046 7.032 15.907 3.164 5.87 6.329 14.36 7.031 18.879l1.28 8.208 22.067.872c16.728.66 28.291 2.186 47.837 6.311 41.836 8.833 53.292 11.041 57.804 11.128 4.175.08 4.204-.079 1.414-7.031zM465.987 63.73c-2.463-2.367-2.395-2.425.75-.559 3.3 1.954 4.348 3.182 2.722 3.182-.413 0-1.972-1.177-3.472-2.623zm394.436 418.922c.501-1.118-.25-1.677-1.731-1.307-1.433.364-2.992 1.54-3.473 2.623-.49 1.118.25 1.685 1.741 1.307 1.424-.356 2.992-1.54 3.463-2.623zm-278.195-11.098c18.249-1.592 20.673-2.085 14.872-3.037-11.764-1.925-43.951-10.162-57.188-14.643-6.916-2.34-12.909-4.249-13.313-4.249-.404 0-1.693 1.35-2.857 2.992-1.529 2.15-1.491 3.886.106 6.145 1.885 2.659 1.385 3.806-3.213 7.431l-5.445 4.293 4.772 1.329c2.626.734 6.108 1.757 7.743 2.281 3.454 1.097 23.539.159 54.523-2.542zm-523.866-11.44c5.214-.008 12.575.966 16.358 2.164 7.609 2.397 7.518 2.505 4.956-5.913-1.003-3.298-4.283-19.466-7.29-35.933-5.027-27.537-5.433-33.313-5.045-71.868.515-51.274 3.446-98.293 7.374-118.268 5.607-28.532 15.797-54.522 38.745-98.816 10.639-20.542 12.534-25.663 13.294-35.978.731-9.878.318-12.391-2.356-14.062-4.541-2.848-5.464-1.467-2.713 4.039 1.981 3.966 1.741 5.81-1.559 11.817-4.963 9.059-16.583 15.887-33.867 19.917-16.485 3.85-29.4 3.88-39.225.095l-7.643-2.942 1.373 22.031c.755 12.116 2.639 33.995 4.185 48.617 7.151 67.618 5.531 142.863-5.022 233.143-2.163 18.516-3.934 36.864-3.934 40.78v7.111l6.444-2.964c4.045-1.867 9.974-2.97 15.925-2.97zm790.422 1.488c4.896 0 12.746 1.104 17.44 2.462 4.694 1.352 8.821 2.195 9.167 1.874.356-.326-.144-6.994-1.096-14.817-.953-7.824-1.924-45.886-2.165-84.587l-.432-70.37 5.406-18.865c6.964-24.304 14.477-40.379 31.417-67.219 12.274-19.459 19.22-35.359 16.334-37.429-.577-.407-2.511.922-4.3 2.963-6.984 7.954-15.459 14.092-23.058 16.7-8.715 2.992-28.666 3.741-34.688 1.307-7.801-3.152-10.87-19.859-5.175-28.184 6.176-9.006 19.316-12.21 20.662-5.033.808 4.249 5.07 3.494 5.955-1.053 1.356-7.01-9.302-10.533-23.279-7.693-16.247 3.305-17.344 10.141-12.967 80.882 2.501 40.379 3.02 65.781 2.001 97.313-.76 23.468-1.203 44.017-.982 45.66.212 1.648.385 9.398.366 17.222-.029 11.847-1.568 18.856-9.187 41.969-5.031 15.261-9.148 28.605-9.148 29.651 0 1.417 1.135 1.307 4.406-.422 2.424-1.285 8.417-2.331 13.323-2.331zm39.488-271.105c3.809-2.68 4.348-4.401 3.848-12.231-.327-5.02-1.549-9.356-2.723-9.654-1.173-.291-4.521 1.141-7.436 3.181-4.338 3.036-5.3 5.027-5.3 10.969 0 6.442 2.424 10.852 5.964 10.852.674 0 3.213-1.403 5.647-3.117zm-48.867-76.61c-.808-11.012 4.175-16.62 19.393-21.806 6.483-2.208 11.813-4.518 11.851-5.121.087-1.445-8.744-5.6-46.76-22.016-47.213-20.38-66.798-27.569-71.838-26.361-8.379 2.009-4.656 6.747 21.028 26.768 28.04 21.857 42.96 34.916 49.982 43.779 5.849 7.357 12.006 12.616 14.786 12.623 1.327 0 1.914-2.978 1.558-7.866zm28.329-1.119c.703-.865-.712-1.337-3.347-1.126-3.915.32-4.579-.304-4.579-4.3.01-3.131-.818-4.438-2.472-3.958-3.454 1.002-3.107 5.702.625 8.527 3.549 2.673 7.965 3.065 9.773.857zM91.761 105.86c5.573-3.806 4.6-5.905-5.006-10.801-10.763-5.483-13.085-4.249-13.085 6.973v8.129l7.185-.879c3.953-.487 8.86-2.027 10.906-3.422zm.822-15.645c.717-.879-.105-2.768-1.825-4.199-2.852-2.382-2.837-2.833.183-5.113 4.68-3.532 1.38-5.173-4.992-2.485-6.973 2.949-7.89 7.903-2.037 10.998 5.309 2.811 6.906 2.956 8.671.799zm343.05-37.192c-1.626-1.987-7.061-2.191-7.061-.265 0 .755.567 2.491 1.26 3.858 1.116 2.194 1.606 2.225 4.204.266 1.616-1.219 2.337-2.957 1.597-3.859z" fill="url(#pattern-3)"/><path id="path-3" d="M778.38 466.865c-45.31-7.465-49.77-7.96-69.05-7.635l-20.6.352-1.48-8.729c-1.56-9.218-6.63-19.504-10.36-21.002-2.16-.873-1.04 15.563 1.69 24.676.64 2.111-.08 4.762-1.65 6.143-2.28 2.006-3.75 2.182-8.42 1.029-19.92-4.938-63.43-4.28-91.09 1.368-20.8 4.241-37.93 2.821-47.14-3.915-2.72-1.993-3.45-3.856-2.48-6.364.75-1.948.3-5.635-.99-8.182-3.27-6.456-8.33-5.433-11.71 2.358-3.83 8.833-7.48 9.602-46.92 9.921-19.27.157-35.4.912-38.79 1.818-8.6 2.306-16.68 1.889-22.63-1.16-11.48-5.882-87.83-6.625-129.2-1.257-10.75 1.401-20.21 2.104-21.03 1.576-3.02-1.967-11.99-19.288-11.99-23.151 0-8.013-3.89-3.681-8.16 9.094-2.41 7.204-5.15 13.999-6.1 15.106-2.68 3.147-49.55 2.339-72.3-1.251-26.5-4.169-32.66-3.817-45.17 2.632-13.823 7.114-18.856 8.228-37.28 8.26-16.98.02-24.27-1.355-34.76-6.566-10.747-5.342-15.519-13.726-13.918-24.468 18.835-126.305 116.529-226.319 101.43-355.992-1.812-15.557-2.8-31.119-2.196-34.572 2.898-16.598 19.533-25.64 69.566-37.808 34.384-8.362 54.024-11.442 86.834-13.62 17.3-1.148-61.846 65.545-57.046 65.108 8.01-.73 8.89-.509 10.77 2.71 2.54 4.354 6.27 4.574 6.27.371 0-3.075.32-3.124 17.01-2.584 21.52.697 25.14 1.448 7.62 1.585-15.22.119-18.45 1.446-18.45 7.595 0 5.634-4.4 8.125-8.71 4.926-1.73-1.29-4.74-4.383-6.68-6.874-3.43-4.407-3.79-4.507-13.13-3.667-5.28.475 78.806-66.511 68.036-65.758-25.56 1.786-82.49 11.082-79.56 12.992.58.374 5.45 1.216 10.83 1.871 20.94 2.549 31.63 8.223 31.63 16.789 0 9.225-12.45 33.028-30.84 58.961-9.83 13.863-120.979 109.206-126.232 124.997-14.821 44.531-17.557 113.778-5.959 150.851 2.304 7.367 8.719 22.533 14.255 33.711 11.79 23.803 15.41 35.887 13.81 46.017-1.12 7.068-.99 7.309 3.35 6.482 12.21-2.326 18.1-2.143 36.5 1.107 21.5 3.798 64.32 6.273 66.62 3.85.72-.756 4.16-8.807 7.65-17.888 3.49-9.081 7.73-18.247 9.42-20.377 5.73-7.218 10.32-2.306 10.83 11.609.14 3.615 2.26 10.162 4.71 14.553l4.47 7.973 8.41-.886c4.63-.482 37.58-1.185 73.22-1.563 63.94-.671 64.92-.639 72.89 2.28 9.32 3.413 22.26 3.087 35.04-.886 6.5-2.02 8.99-2.124 18.04-.762 12.94 1.947 31.79 2.052 37.08.201 2.28-.794 5.32-4.462 7.21-8.696 1.8-4.032 4.21-7.706 5.35-8.169 1.14-.456 4.38.573 7.19 2.293 4.31 2.638 5.4 2.821 7.03 1.147 1.05-1.088 1.93-3.017 1.95-4.28.02-1.271 1.93-2.964 4.25-3.772 3.47-1.212 8.44-.261 28.34 5.433 13.27 3.791 32.47 8.423 42.67 10.279 22.06 4.02 28.77 6.163 15.46 4.945-9.93-.906-47.74-8.931-65.28-13.85-14.96-4.195-18.19-3.485-18.21 3.994-.01 4.794-.69 5.941-3.36 5.654-4.01-.43-6.49 4.521-3.85 7.726 2.31 2.814 15.27 5.394 27.04 5.374 4.97-.006 18.95-.86 31.06-1.902 14.81-1.277 31.25-1.642 50.23-1.127l28.21.775-1.34-15.986c-.97-11.576-.57-17.836 1.43-22.696 3.29-7.967 8.05-8.944 9.82-2.019.66 2.586 3.77 8.859 6.91 13.941 3.14 5.081 6.15 11.426 6.7 14.096 2.35 11.57 1.25 10.905 18.1 10.905 18.95 0 38.8 2.437 76.17 9.348 30.07 5.564 48.69 8.254 50.91 7.362.71-.287-.37-3.701-2.39-7.596-2.09-4.026-3.18-8.807-2.53-11.113 1.41-4.977 21.02-42.545 29.24-56.023 3.31-5.433 7.6-16.507 9.54-24.605 3.9-16.331 5.55-19.406 5-9.315-.19 3.674.62 9.361 1.81 12.638 2.65 7.289.21 22.383-5.76 35.665-2.33 5.173-6.58 16.188-9.45 24.487-5.69 16.429-5.31 23.002 1.61 27.504 4.4 2.866 3.64 4.527-1.49 3.244-1.8-.45-4.71-3.055-6.46-5.785-3.9-6.084-2.76-13.524 5.43-35.496 5.52-14.794 9.91-32.181 7.77-30.735-.55.365-7.37 11.85-15.16 25.51-12.13 21.276-14.16 26.103-14.2 33.66-.04 7.413.86 9.712 5.65 14.435l5.69 5.609h18.55c22.97 0 35.45-3.14 39.04-9.836 2.01-3.727 1.76-4.547-2-6.534-2.35-1.251-9.46-3.538-15.79-5.081-10.58-2.574-11.91-2.632-16.41-.717-2.69 1.153-4.89 3.322-4.89 4.827s-.93 2.358-2.06 1.902c-1.14-.456-2.07-2.586-2.07-4.729 0-7.146 12.41-8.645 32.02-3.87 6.35 1.551 11.97 2.547 12.48 2.215.51-.332-.08-9.309-1.33-19.94-1.24-10.631-2.42-44.401-2.61-75.044-.35-53.098-57.87-69.072-53.36-84.426 6.41-21.797 73.9-27.607 92.6-53.123 15.6-21.296 15.69-21.465 16.65-34.441 1.22-16.638-.29-21.608-8.42-27.64-16.98-12.606-39.29-12.84-64.64-.678-7.76 3.72-8.89 5.029-11.97 13.849-4.18 11.974-61.94 12.195-57.95 79.5 1.71 28.982 2.42 58.485 1.61 67.801l-1.42 16.5-1.37-11.413c-.75-6.279-1.47-22.897-1.61-36.922-.14-14.032-1.14-37.953-2.24-53.15-1.09-15.198 55.54-25.575 55.28-38.434l-.47-23.387 6.49-9.035c7.58-10.546 6.93-11.243-9.99-10.625-8.52.307-13.75-.299-19.72-2.28-10.17-3.387-11.62-4.54-17.11-13.647-2.45-4.058-7.2-10.403-10.55-14.09l-6.09-6.717 8.01 5.655c4.49 3.172 9.97 9.178 12.49 13.68 5.29 9.439 13.06 14.266 25.11 15.588 11.09 1.225 15.01-1.022 6.68-3.83-3.32-1.114-9.59-5.55-13.94-9.85-4.35-4.299-11.7-10.839-16.32-14.526-11.46-9.146-59.36-41.449-62.82-42.363-1.59-.422-3.08-3.301-3.47-6.704-.83-7.239 3.12-10.687 12.25-10.68l6.38.005-6.7 2.661c-11.92 4.733-9.89 7.557 19.63 27.343 30.53 20.468 41.53 28.826 53.02 40.265 8 7.967 19.84 13.94 28.14 14.201 2.97.097 14.56-4.28 30.26-11.42 5.81-2.645 12.7-9.719 12.71-13.054 0-1.336-4.73-5.694-10.53-9.687l-10.53-7.257 11.55 4.078c12.17 4.293 17.76 8.188 17.76 12.371 0 5.126-7.13 12.025-17.89 17.321-6.09 2.997-10.73 5.674-10.3 5.954.43.28 5.4-.189 11.06-1.042 12.37-1.857 25.9.521 39.24 6.918 13.13 6.286 15.77 11.335 14.34 27.392-1.43 16.208-6.8 28.357-19.01 43.053-9.32 11.218-82.31 27.386-89.6 47.483-6.83 18.8 49.32 55.046 51.58 104.241 1.12 24.37 3.01 52.16 4.21 61.762 2.86 22.891 1.25 32.207-6.39 37.19l-5.78 3.759-38.8-.085-38.81-.084-48.43-7.987zm-682.24-5.27c6.711-2.339 10.721-10.084 11.871-22.904 1.01-11.302.81-11.908-11.659-35.985-6.977-13.465-14.069-29.138-15.76-34.825-5.047-16.97-119.9-29.355-118.451-58.402 2.873-57.619 219.304-168.315 256.736-230.924 27.9-46.675 28.87-51.645 11.09-56.902-17.19-5.083-59.944-1.792-78.039 6.006-8.761 3.778-16.271 12.905-16.271 19.777 0 3.994 1.693 5.798 10.502 11.166l10.502 6.397 12.726-.665c14.165-.742 31.69-5.771 39.69-11.393 7.31-5.14 6.72-11.778-1.28-14.475-7.77-2.612-7.79-3.355-.08-3.355 6.82 0 14.51 4.437 14.51 8.365 0 3.967-7.52 12.481-14.31 16.201-8.32 4.566-27.294 9.107-41.725 9.986-10.106.619-12.995.228-20.998-2.827-5.104-1.948-9.694-3.088-10.201-2.528-.986 1.088-183.714 125.788-180.309 152.353 6.524 50.903 93.991 110.238 82.953 192.944-5.712 42.792-5.11 47.632 4.923 39.574 3.203-2.573 5.692-3.01 16.819-2.958 8.226.046 15.54.925 19.759 2.385 8.131 2.814 8.104 2.918 3.669-13.863-6.428-24.324-13.798-75.865-10.543-73.735.47.306 1.918 6.905 3.218 14.657 2.519 15.029 15.516 67.677 18.438 74.686 2.973 7.14.218 7.72-14.808 3.14-15.9-4.846-27.144-5.016-31.742-.475-2.503 2.469-2.403 3.192.796 5.732 6.413 5.088 36.431 6.873 47.974 2.847zm249.77-345.446c-5.31-4.169-6.65-9.335-4.46-17.204 1.84-6.618 1.65-8.533-1.23-12.162-2.42-3.052-3.08-6.152-2.25-10.679l1.16-6.378-9.68-1.337c-5.32-.736-16.42-1.765-24.67-2.286-14.53-.92-23.1-3.341-11.41-3.223 10.94.111 54.37 3.617 55.73 4.498.74.485.25 2.874-1.11 5.308-3.15 5.674-3.14 11.978.02 14.038 4 2.6 5 1.896 4.13-2.913-.75-4.186 3.48-11.853 7.4-13.433.92-.369 9.97.553 20.11 2.048 10.15 1.495 28.18 3.438 40.07 4.319 18.86 1.396 21.72 1.94 22.36 4.245 1.23 4.434 4.04 5.318 8.53 2.672 6.01-3.544 5.46-7.413-1.05-7.413-7.81 0-8.93-3.839-2.23-7.596 6.63-3.715 11.65-4.23 6.74-.69-5.16 3.712-4.35 6.943 1.74 6.943 7.27 0 6.69 3.845-1.65 10.973-8.61 7.353-12.16 7.412-14.34.247-1.99-6.547-4.12-7.147-25.48-7.174-8.07-.01-22.74-.935-32.6-2.055-9.86-1.12-18.8-1.688-19.85-1.263-1.06.425-1.92 4.514-1.91 9.086.01 4.571-1.07 13.144-2.4 19.052-2.97 13.25-6.2 16.67-11.67 12.377zm448.84-12.566c-7.31-4.866-17.18-9.999-21.94-11.413-4.76-1.407-10.63-4.364-13.04-6.576-4.82-4.409-15.4-8.576-18.56-7.307-1.1.443-2.09 3.338-2.19 6.433-.11 3.092-1.27 8.949-2.58 13.014-1.95 6.064-3.21 7.458-7.02 7.81-5.13.476-5.39-.045-4.69-9.641.46-6.364-4.51-16.458-9.16-18.627-4.67-2.174-38.12-1.066-50.02 1.658-12.34 2.824-31.88 3.533-40.25 1.461-6.97-1.727-9.9-.037-12.79 7.385-2.93 7.511-6.38 8.963-9.32 3.934-2.77-4.749-2.61-7.409.43-7.409 1.37 0 4.39-1.537 6.7-3.415 4.02-3.274 5.27-3.437 29.96-3.917 14.17-.275 31.33-1.436 38.13-2.579 13.16-2.211 27.32-2.708 37.9-1.331 4.83.63 6.75 1.734 7.59 4.364 2.17 6.767 9.13 11.304 9.13 5.946 0-4.701 5.94-8.467 13.35-8.467 9.18 0 13.45 1.176 13.45 3.709 0 3.235 10.08 11.06 14.25 11.06 2.06 0 6.08 1.199 8.94 2.665 6.79 3.478 27.07 18.748 25.91 19.503-.49.32-6.88-3.393-14.18-8.26zm84.16-7.511c-9.89-3.804-17.65-7.133-17.24-7.393.87-.574 36.25 12.905 36.25 13.803 0 .919.34 1.036-19.01-6.41zM603.16 70.224c5.08-3.99.93-6.059-12.16-6.059-6.77 0-12.88-.605-13.58-1.343-.8-.842 3.65-1.343 11.92-1.343 10.17 0 13.98.564 16.61 2.456 4.31 3.101 4.38 6.415.15 7.47-5.03 1.259-5.71.989-2.94-1.181zm-92.73-3.189c1.7-.696 14.68-1.602 28.85-2.011 16.49-.477 22.8-.331 17.52.402-12.93 1.799-49.97 3.085-46.37 1.609z" fill="url(#pattern-4)"/></g></g></g><path d="M226.724 750.258c-1.408 1.409-7.538 9.399-6.466 10.47.525.525.964-1.807 1.539-1.232.241.241 3.042 3.118 2.464 3.695-.824.824-2.434-.168-3.387.308-4.493 2.247-11.299 15.136-5.235 18.168.226.113 5.434-.616 6.774-.616 2.53 0 8.676 1.25 11.394 2.156 1.598.533 9.31-7.192 10.469-8.93.482-.722 3.766-3.625 4.927-2.464.249.25 1.002 8.236.924 8.315-1.083 1.082-7.39 3.695-7.39 3.695s3.894-2.591 4.619-2.772c1.859-.464 10.674-8.417 12.317-6.774 2.824 2.824 8.07 12.252 12.625 7.698 3.201-3.201.063-12.806-1.232-15.396-1.32-2.641-4.276-1.677-7.082-3.08-6.781-3.39-12.855-4.272-19.708-7.698-1.971-.985-10.353-3.387-12.009-3.387-2.182 0-5.973-1.848-5.851-1.848" stroke="#000" stroke-opacity="0" fill="url(#pattern-0-3)"/></svg>