<svg class="bottomOverlay" width="86" height="380" viewBox="202.715 584.407 86.593 380.048" xmlns="http://www.w3.org/2000/svg"><defs><radialGradient id="i" gradientUnits="userSpaceOnUse" cy="485.57" cx="259.85" gradientTransform="matrix(-.27937 .65487 -.65888 -.08774 657.02 359.29)" r="13.5"><stop offset="0" stop-color="#fff"/><stop offset="1" stop-color="#fff" stop-opacity="0"/></radialGradient><linearGradient id="h" y2="444.97" gradientUnits="userSpaceOnUse" x2="360.28" y1="80.283" x1="361.19"><stop offset="0" stop-color="#fff"/><stop offset="1" stop-color="#fff" stop-opacity="0"/></linearGradient><linearGradient id="g" y2="444.97" gradientUnits="userSpaceOnUse" x2="360.28" y1="110.54" x1="361.19"><stop offset="0" stop-color="#fff"/><stop offset="1" stop-color="#fff" stop-opacity="0"/></linearGradient><linearGradient id="f" y2="440.06" gradientUnits="userSpaceOnUse" x2="357" y1="152.26" x1="357.92"><stop offset="0" stop-color="#fff"/><stop offset="1" stop-color="#fff" stop-opacity="0"/></linearGradient><linearGradient id="e" y2="180.48" gradientUnits="userSpaceOnUse" x2="359.01" y1="493.62" x1="353.59"><stop offset="0" stop-color="#fff"/><stop offset="1" stop-color="#fff" stop-opacity="0"/></linearGradient><linearGradient id="c" y2="25.861" gradientUnits="userSpaceOnUse" x2="756.38" y1="25.861" x1="705.64"><stop offset="0" stop-color="#fff" stop-opacity="0"/><stop offset=".5"/><stop offset="1" stop-color="#fff" stop-opacity="0"/></linearGradient><linearGradient id="b" y2="794.38" gradientUnits="userSpaceOnUse" x2="618.77" y1="794.38" x1="61.586"><stop offset="0" stop-color="#fff" stop-opacity="0"/><stop offset=".5"/><stop offset="1" stop-color="#fff" stop-opacity="0"/></linearGradient><linearGradient id="d" y2="381.28" gradientUnits="userSpaceOnUse" x2="577.03" gradientTransform="translate(-40.34 -43.91) scale(.36706)" y1="381.28" x1="171.84"><stop offset="0" stop-color="#bfb800"/><stop offset=".5" stop-color="#f8fe05"/><stop offset="1" stop-color="#bfb800"/></linearGradient><radialGradient id="a" gradientUnits="userSpaceOnUse" cx="349.7" cy="716.402" r="53.501" gradientTransform="matrix(1 0 0 .78192 3.666 189.228)"><stop offset="0"/><stop offset="1"/></radialGradient></defs><path class="clothes" fill="none" d="M202.715 584.431h86.593V700.24h-86.593z"/><path d="M174.999 783.441l.561-.561z" class="clothes" stroke="#000" fill="none"/><path d="M215.546 759.176c16.461 4.127 31.189 13.615 48.34 14.956 2.984.234 9.634.961 11.656-.625.619-.485-5.853-7.877-7.885-10.49-.652-.837-.634 1.753-1.372 2.14-.36.189-2.056.775-2.056.903" fill="#e4c919"/><path d="M244.071 773.168c-2.644 17.133 1.521.56-1.136 17.782.996.374-.345-.217 1.666.604 2.634-17.072-1.498-.719 1.131-17.763-1.838-.73.582.267-1.661-.623z" fill="gold"/><path d="M245.723 773.824c-2.643 17.133 1.521.56-1.136 17.782.996.374-.345-.217 1.666.604 2.635-17.072-1.498-.719 1.131-17.763-1.838-.73.582.267-1.661-.623z" fill="#fff"/><path d="M247.375 774.48c-2.643 17.133 1.521.56-1.136 17.782.996.374-.345-.217 1.666.604 2.635-17.073-1.498-.719 1.131-17.764-1.838-.73.582.268-1.66-.622z" fill="#ffff20"/><g transform="matrix(-.00478 .03118 .01215 .00482 237.963 768.588)" opacity=".399" fill="url(#b)"><path d="M65.077 528.48c549.77-1.39-1.319 124.71 551.3 123.32-.65 81.71-2.41-29.38-1.74 136.47-547.82 1.39-3.74-124.85-550.67-123.46-.002-151.33 1.107 48.32 1.107-136.33z"/><path d="M65.077 664.48c549.77-1.39-1.319 124.71 551.3 123.32-.65 81.71-2.41-29.38-1.74 136.47-547.82 1.39-3.74-124.85-550.67-123.46-.002-151.33 1.107 48.32 1.107-136.33z"/><path d="M65.077 800.48c549.77-1.39-1.319 124.71 551.3 123.32-.65 81.7-2.41-29.38-1.74 136.5-547.82 1.4-3.74-124.88-550.67-123.49-.002-151.33 1.107 48.32 1.107-136.33z"/></g><path d="M238.91 806.905c2.61-17.149 1.51.643 4.133-16.595.99.415-.368-.067 1.65.713a143.802 143.802 0 0 1-.818 4.917c-.225 1.19-.407 1.97-.56 2.482-.153.511-.277.75-.387.854-.111.107-.207.077-.302.042-.096-.03-.192-.061-.302.042s-.234.343-.387.851c-.153.512-.334 1.29-.559 2.475-.004.02-2.476 4.288-2.467 4.22z" fill="gold"/><path d="M241.382 802.63c.225-1.189.406-1.966.56-2.475.151-.505.275-.74.384-.837.109-.097.203-.06.298-.022s.19.075.299-.025c.11-.101.234-.34.387-.851s.336-1.3.561-2.496.496-2.802.824-4.958c.99.415-.368-.067 1.65.713-.325 2.135-.593 3.728-.818 4.917s-.407 1.97-.56 2.482c-.153.511-.277.75-.387.854-.11.107-.207.076-.302.042-.096-.03-.192-.062-.302.042-.11.104-.234.343-.387.851-.153.512-.334 1.29-.559 2.475-.213-3.008-.2-3.003-1.648-.712z" fill="#fff"/><path d="M243.034 803.286c.225-1.189.406-1.967.56-2.475.151-.505.275-.74.384-.837s.203-.06.298-.022.19.075.299-.026c.11-.1.234-.339.387-.85s.336-1.3.561-2.496c.226-1.195.496-2.802.824-4.958.99.414-.368-.067 1.65.713-2.601 17.087-1.535-.487-4.131 16.574-.019-.055-.848-5.662-.832-5.623z" fill="#ffff20"/><g transform="matrix(-.052 .33938 .13223 .0525 278.054 550.159)" opacity=".399" fill="url(#c)"><path d="M756.28 1.435c-50.5-.128.12 11.456-50.64 11.329.06 7.506.22-2.7.16 12.536 6.29.016 11.01-.151 14.56-.455 3.55-.305 5.92-.747 7.51-1.281 1.58-.533 2.39-1.16 2.8-1.83s.43-1.388.45-2.104c.02-.717.04-1.434.45-2.105s1.21-1.296 2.79-1.83 3.95-.976 7.49-1.28c.06-.012 14.64-12.968 14.43-12.98z" opacity=".399"/><path d="M741.69 14.384c-3.55.304-5.91.745-7.49 1.279-1.57.533-2.36 1.157-2.75 1.827-.39.671-.39 1.387-.39 2.103s-.01 1.432-.41 2.102-1.19 1.295-2.78 1.828c-1.6.533-3.98.974-7.55 1.279-3.58.304-8.34.471-14.68.455.06 7.506.22-2.699.16 12.537 6.29.016 11.01-.151 14.56-.456s5.92-.747 7.51-1.28c1.58-.534 2.39-1.159 2.8-1.83s.43-1.388.45-2.105.04-1.434.45-2.105 1.21-1.296 2.79-1.83c1.58-.533 3.95-.975 7.49-1.28-8.12-4.805-8.12-4.71-.16-12.524z" opacity=".399"/><path d="M741.69 26.877c-3.55.304-5.91.746-7.49 1.279-1.57.533-2.36 1.157-2.75 1.828-.39.67-.39 1.386-.39 2.102s-.01 1.432-.41 2.102c-.4.671-1.19 1.295-2.78 1.828-1.6.533-3.98.975-7.55 1.279-3.58.304-8.34.472-14.68.456.06 7.506.22-2.7.16 12.536 50.32.128.34-11.469 50.58-11.341-.13-.192-14.78-12.228-14.69-12.069z" opacity=".399"/></g><path d="M245.512 774.509c2.352 17.696 1.516-.307 3.88 17.481.994-.194-.37-.015 1.657-.346-2.343-17.633-1.54.145-3.878-17.46-1.846.32.594-.067-1.659.325z" fill="gold"/><path d="M247.171 774.22c2.352 17.697 1.516-.307 3.88 17.481.994-.194-.37-.015 1.657-.345-2.343-17.634-1.54.144-3.878-17.46-1.846.32.594-.068-1.659.324z" fill="#fff"/><path d="M248.83 773.931c2.352 17.697 1.516-.307 3.88 17.482.994-.195-.37-.015 1.657-.346-2.343-17.634-1.539.145-3.878-17.46-1.846.32.594-.067-1.659.325z" fill="#ffff20"/><g transform="matrix(.0043 .03218 .0122 -.00212 238.785 773.534)" opacity=".399" fill="url(#b)"><path d="M65.077 528.48c549.77-1.39-1.319 124.71 551.3 123.32-.65 81.71-2.41-29.38-1.74 136.47-547.82 1.39-3.74-124.85-550.67-123.46-.002-151.33 1.107 48.32 1.107-136.33z"/><path d="M65.077 664.48c549.77-1.39-1.319 124.71 551.3 123.32-.65 81.71-2.41-29.38-1.74 136.47-547.82 1.39-3.74-124.85-550.67-123.46-.002-151.33 1.107 48.32 1.107-136.33z"/><path d="M65.077 800.48c549.77-1.39-1.319 124.71 551.3 123.32-.65 81.7-2.41-29.38-1.74 136.5-547.82 1.4-3.74-124.88-550.67-123.49-.002-151.33 1.107 48.32 1.107-136.33z"/></g><g><path d="M250.183 809.33c-2.386-17.692 1.527-.222-.87-18.006.999-.152-.349.14 1.672-.234.297 2.204.496 3.861.622 5.112.126 1.25.178 2.091.182 2.66.004.57-.042.865-.112 1.024-.07.163-.163.186-.258.206-.094.024-.189.047-.259.206s-.115.454-.112 1.02c.004.57.056 1.407.182 2.654 0 .021-1.036 5.428-1.047 5.359z" fill="gold"/><path d="M251.218 803.916c-.126-1.25-.178-2.087-.182-2.653-.002-.563.043-.854.114-1.006.071-.152.166-.168.261-.185s.19-.033.26-.189c.07-.155.116-.45.112-1.02s-.057-1.416-.184-2.674-.328-2.93-.628-5.154c1-.152-.348.14 1.672-.233.298 2.203.497 3.86.623 5.111s.178 2.092.182 2.661c.004.57-.042.864-.112 1.023-.07.163-.163.186-.258.207-.094.023-.189.047-.258.206-.07.159-.116.454-.113 1.02.004.569.056 1.406.182 2.653-1.02-2.734-1.007-2.736-1.671.233z" fill="#fff"/><path d="M252.877 803.628c-.126-1.25-.178-2.088-.182-2.654-.002-.562.044-.853.114-1.005s.166-.17.261-.186.19-.033.26-.188c.07-.156.116-.45.113-1.02s-.058-1.417-.185-2.675c-.127-1.257-.328-2.929-.628-5.153 1-.153-.348.14 1.673-.234 2.377 17.63-1.508.384.866 17.986a436.16 436.16 0 0 1-2.292-4.871z" fill="#ffff20"/></g><g transform="matrix(.0469 .35035 .1328 -.0231 214.526 544.401)" opacity=".399" fill="url(#c)"><path d="M756.28 1.435c-50.5-.128.12 11.456-50.64 11.329.06 7.506.22-2.7.16 12.536 6.29.016 11.01-.151 14.56-.455 3.55-.305 5.92-.747 7.51-1.281 1.58-.533 2.39-1.16 2.8-1.83s.43-1.388.45-2.104c.02-.717.04-1.434.45-2.105s1.21-1.296 2.79-1.83 3.95-.976 7.49-1.28c.06-.012 14.64-12.968 14.43-12.98z" opacity=".399"/><path d="M741.69 14.384c-3.55.304-5.91.745-7.49 1.279-1.57.533-2.36 1.157-2.75 1.827-.39.671-.39 1.387-.39 2.103s-.01 1.432-.41 2.102-1.19 1.295-2.78 1.828c-1.6.533-3.98.974-7.55 1.279-3.58.304-8.34.471-14.68.455.06 7.506.22-2.699.16 12.537 6.29.016 11.01-.151 14.56-.456s5.92-.747 7.51-1.28c1.58-.534 2.39-1.159 2.8-1.83s.43-1.388.45-2.105.04-1.434.45-2.105 1.21-1.296 2.79-1.83c1.58-.533 3.95-.975 7.49-1.28-8.12-4.805-8.12-4.71-.16-12.524z" opacity=".399"/><path d="M741.69 26.877c-3.55.304-5.91.746-7.49 1.279-1.57.533-2.36 1.157-2.75 1.828-.39.67-.39 1.386-.39 2.102s-.01 1.432-.41 2.102c-.4.671-1.19 1.295-2.78 1.828-1.6.533-3.98.975-7.55 1.279-3.58.304-8.34.472-14.68.456.06 7.506.22-2.7.16 12.536 50.32.128.34-11.469 50.58-11.341-.13-.192-14.78-12.228-14.69-12.069z" opacity=".399"/></g><path d="M97.099 45.098c-28.481 0-53.227 11.392-65.673 28.079h-8.691l.278 27.693c-.95 21.71 35.352 46.12 74.815 46.12 39.462 0 73.952-20.76 73.372-46.12l.26-27.693h-8.69c-12.44-16.686-37.19-28.079-65.671-28.079z" fill="url(#d)" transform="matrix(.09128 .0662 -.0407 .12493 241.73 751.821)"/><path d="M572 322.1a199.92 141.61 0 1 1-399.85 0 199.92 141.61 0 1 1 399.85 0z" transform="matrix(.02463 .01787 -.00837 .0257 239.506 757.903)" opacity=".187" fill="url(#e)"/><path d="M254.474 772.092a8.947 6.161 56.793 1 1-13.564-9.838 8.947 6.161 56.793 1 1 13.564 9.838z" fill="#c0b900"/><path d="M254.256 772.22a8.772 6.04 56.793 1 1-13.3-9.645 8.772 6.04 56.793 1 1 13.3 9.645z" fill="#c2bc00"/><path d="M572 322.1a199.92 141.61 0 1 1-399.85 0 199.92 141.61 0 1 1 399.85 0z" transform="matrix(.02463 .01787 -.00837 .0257 240.288 755.33)" opacity=".187" fill="url(#e)"/><path d="M572 322.1a199.92 141.61 0 1 1-399.85 0 199.92 141.61 0 1 1 399.85 0z" transform="matrix(.03013 .02186 .01195 -.03669 232.741 770.654)" opacity=".34" fill="url(#f)"/><path transform="matrix(.02596 .01883 -.0103 .0316 241.724 748.801)" d="M572 322.1c0 78.16-89.57 141.61-199.92 141.61-110.36 0-199.93-63.45-199.93-141.61 0-78.17 89.57-141.62 199.93-141.62C482.43 180.48 572 243.93 572 322.1z" opacity=".631" fill="url(#g)"/><path d="M252.892 770.447a6.639 4.572 56.793 1 1-10.066-7.3 6.639 4.572 56.793 1 1 10.066 7.3z" fill="#c0b900"/><path d="M252.422 769.56l-3.238-1.147.089 3.577-1.664-3.666-2.768.834 1.574-2.52-2.85-2.765 3.238 1.146-.09-3.577 1.664 3.667 2.768-.835-1.574 2.521 2.851 2.765m-1.572-5.063l-2.773 2.048 1.355.122 1.418-2.17m1.132 4.785l-3.739-2.562.957 1.473 2.782 1.089m-2.818 2.273l-1.08-4.69-.333 1.452 1.413 3.238m-3.993-2.595l2.848-2.238-1.426.14-1.422 2.098m-1.227-4.839l.022.016c.143.104.712.47 1.706 1.1.483.315 1.21.769 2.178 1.362l-1.042-1.425c-1.894-.691-2.85-1.042-2.864-1.053m2.857-2.178l1.183 4.63.27-1.471-1.453-3.159" fill="#d8d81b"/><g opacity=".793"><path d="M572 322.1a199.92 141.61 0 1 1-399.85 0 199.92 141.61 0 1 1 399.85 0z" transform="matrix(.02042 .0148 -.0081 .02486 243.264 752.064)" fill="url(#h)"/><path d="M278 486.86a13.5 13.5 0 1 1-27 0 13.5 13.5 0 1 1 27 0z" transform="matrix(.04037 -.13804 .1765 .11486 150.381 749.861)" opacity=".5" fill="url(#i)"/></g></svg>