<svg class="bottomOverlay" width="86" height="380" viewBox="202.715 584.407 86.593 380.048" xmlns="http://www.w3.org/2000/svg"><defs><linearGradient id="b" y2="515.88" gradientUnits="userSpaceOnUse" x2="311.82" y1="414.34" x1="238.13"><stop offset="0" stop-color="#fff"/><stop offset="1" stop-color="#7d7d7d" stop-opacity=".988"/></linearGradient><linearGradient id="a" y2="265.17" gradientUnits="userSpaceOnUse" x2="97.051" y1="417.04" x1="204.89"><stop offset="0"/><stop offset="1" stop-color="#fff" stop-opacity="0"/></linearGradient></defs><path class="clothes" fill="none" d="M202.715 584.431h86.593V700.24h-86.593z"/><path d="M174.999 783.441l.561-.561z" class="clothes" stroke="#000" fill="none"/><path fill="#d8d8d8" d="M223.934 749.62l52.607 18.475-2.785 7.929-52.606-18.474z"/><g color="#000"><path d="M237.03 535.89c-34.69-.38-62.85-28.54-62.85-63.24s28.16-62.86 62.85-63c34.7-.14 62.86-28.3 62.86-63s-28.16-62.86-62.86-63.56c-66.99-.71-121.36 56.08-121.36 126.05s54.37 126.75 121.36 126.75z" stroke="#000" stroke-width="4" fill="url(#a)" transform="matrix(.06958 0 0 .06722 218.858 730.25)"/><path d="M238.52 283.08c34.7.39 62.86 28.55 62.86 63.25 0 34.69-28.16 62.85-62.86 63-34.69.14-62.85 28.3-62.85 63 0 34.69 28.16 62.85 62.85 63.56 67 .7 121.37-56.08 121.37-126.05s-54.37-126.76-121.37-126.76z" stroke="#000" stroke-width="4" fill="url(#b)" transform="matrix(.06958 0 0 .06722 218.858 730.25)"/><path d="M236.396 761.817a.97.936 0 1 1-1.938 0 .97.936 0 1 1 1.938 0z"/><path d="M236.396 753.239a.97.936 0 1 1-1.938 0 .97.936 0 1 1 1.938 0z" fill="#fff"/></g></svg>