<svg class="bottomOverlay" width="86" height="380" viewBox="202.715 584.407 86.593 380.048" xmlns="http://www.w3.org/2000/svg"><defs><linearGradient id="a" gradientUnits="userSpaceOnUse" x1="133.282" y1="201.243" x2="133.282" y2="360.005"><stop offset="0" stop-color="#1c1f7d"/><stop offset="1" stop-color="#090a2a"/></linearGradient><linearGradient id="b" gradientUnits="userSpaceOnUse" x1="175.311" y1="200.398" x2="175.311" y2="359.16"><stop offset="0" stop-color="#1c1f7d"/><stop offset="1" stop-color="#090a2a"/></linearGradient><linearGradient id="c" gradientUnits="userSpaceOnUse" x1="133.282" y1="201.243" x2="133.282" y2="360.005" gradientTransform="matrix(1.03539 0 .15961 .96582 -49.383 9.221)"><stop offset="0" stop-color="#1c1f7d"/><stop offset="1" stop-color="#090a2a"/></linearGradient><linearGradient id="d" gradientUnits="userSpaceOnUse" x1="175.311" y1="200.398" x2="175.311" y2="359.16"><stop offset="0" stop-color="#1c1f7d"/><stop offset="1" stop-color="#090a2a"/></linearGradient></defs><path class="clothes" fill="none" d="M202.715 584.431h86.593V700.24h-86.593z"/><path d="M174.999 783.441l.561-.561z" class="clothes" stroke="#000" fill="none"/><path d="M7.217 357.89l.104-2.1-.695.56c-.382.31-.871.57-1.086.57h-.39l-.182-1.06-.183-1.06-.329.12c-.18.07-.797.94-1.369 1.93l-1.041 1.81-.235-.44-.235-.43-.005.52-.004.51-.411-.51-.41-.52-.339-1.64-.34-1.64 3.431-76.636-10.292-56.529 152.084-20.102 124.637 12.064 3.431 35.602-3.431 47.656-.45-.44-.45-.43-.4.38-.39.38-.49-.68c-.47-.63-1.16-2.29-2-4.77l-.37-1.1-.6-.18-.6-.18-.54.63-.54.62-.54-1.26c-.29-.7-.51-1.47-.47-1.71l.07-.43h-.58l-.19 1.02-.2 1.02-.43.19-.43.19-.04-.6c-.01-.33-.01-.8.02-1.04l.05-.43h-.7l.13.98.12.99-.36.4-.37.39-.17-.53-.17-.53-.26.19-.26.18-.36-.93-.37-.92-.83 1.14-.84 1.14-.72-1.69-.72-1.69-.6-.01-.6-.02-.59.45c-.32.25-.83.46-1.12.46h-.53v1.39l-.23-.08c-.3-.12-1.43 1.22-1.89 2.23l-.37.79.34.13.35.14v1.26l-.52.23-.52.23.36.26.36.26-.18 1.27-.17 1.26-1.28-.12-1.29-.12-.17 1.02-.18 1.03h-1.21l-.04.44c-.02.24-.02.53-.01.66.02.12-.42.58-.96 1.01l-.99.8-.7 1.18-.7 1.18-.39-.18-.4-.17-.28.6-.27.6.15.96.16.95h-.21c-.12 0-.47-.35-.78-.78l-.56-.79-.01.72-.01.72-.36.41c-.2.23-.5.42-.67.42h-.32l-.73-2.71-.72-2.7-.77-.79c-.89-.9-1.23-.98-1.23-.31v.47l-.59.62-.59.62-.87-.42-.88-.42-.62.45-.62.46-.2 1.05c-.11.59-.47 1.73-.8 2.55l-.59 1.5-.64-.8-.64-.8-1.05.06-1.05.05-.81-1.1-.81-1.1-.21 1.17-.2 1.17-.41.18-.41.18v1.89l-.41.66-.42.66-.86.02-.86.01-.03.53c-.01.29-.05.74-.07 1l-.05.47-.43-.19-.42-.19-.35.48-.34.48-.5-.22c-.5-.21-1.44-1.31-2.61-3.01l-.6-.89-.36-.01-.36-.02-.3-.65-.3-.65-.69.14-.68.15-.51-1.44-.51-1.43.18-.59.19-.59-.6.61-.6.61H208.227l-.37-1.05-.37-1.05h-.6l.18.53.17.54-.59-.37-.59-.37v.77l-.68-.26c-.37-.14-.87-.25-1.12-.24-.52 0-2.14-1.22-2.49-1.89l-.24-.46H199.497l-.09.79-.1.79h-1.17l-.21 1.17c-.11.64-.34 1.33-.51 1.53l-.32.36-.65-1.63-.66-1.62-.75-.69-.75-.69-.49-1.1c-.26-.61-.61-1.13-.76-1.14-.15-.02-.65-.47-1.1-1l-.83-.96h-.79l-1.12-1.2-1.12-1.2-.19.35-.18.35-.54-.56-.53-.57-.79.23-.78.23v-.95l-.7 1.01-.69 1.01-.8-.61-.81-.61v-.97h-.63l-.31-1.05-.32-1.05-.27.2-.27.19v-1.45l-.75-.4-.75-.4v-1.5l-1.22.07-1.22.08-.13-.42-.14-.42-.74.02-.74.01-.79 1.37-.8 1.37-.37-.6-.37-.59-.19.8c-.1.44-.29 1.01-.44 1.26l-.26.47-.79-.86-.79-.85v-1.44l-.39-.47c-.22-.25-.7-1.44-1.09-2.65-.38-1.2-.81-2.27-.94-2.37l-.25-.17-.36.79c-.51 1.15-.53 1.16-1.04.42l-.46-.67.18 1.22.17 1.23-.65-1.66-.65-1.66h-.39c-.21 0-.59.23-.84.52-.24.29-.58.53-.73.53h-.29l-.2.9c-.11.5-.48 1.35-.82 1.9l-.62.98-.62.19-.63.19-.38-.37-.38-.37-.51.6-.52.6-.22-.69-.22-.69-.57-.18-.58-.18-.39.73-.39.73-.26-.82-.27-.83-.54.58-.54.57h-1.6v1.75h-.9l-.01.43c-.01.24-.42.98-.9 1.65l-.89 1.21v-1.53l-.42.19-.43.19-.17.81-.18.82-1.19-.36-1.2-.35-.53.27c-.29.15-.65.24-.79.2-.42-.11-1.72 1.42-2.19 2.58-.24.58-.61 1.41-.82 1.85l-.39.8-.06 2.43-.05 2.42-.57 1.49-.56 1.49-.02-.61-.03-.61h-.56l-.19.7-.19.7h-1.6l-.53 1.08-.52 1.07-.02.76-.02.76-.5-.86c-.28-.48-.75-1.1-1.04-1.39-.29-.29-.52-.67-.52-.84 0-.17-.31-.72-.68-1.23l-.67-.93-.65.34-.65.33-.17.98-.17.98H130.237l-.35-2.01c-.52-2.96-2.4-6.54-4.24-8.06l-.55-.46v.74l-.95-.13-.95-.12-.25-.78c-.14-.43-.52-1.23-.85-1.77l-.6-.97v-1.33l-.36-.42c-.19-.23-.45-.42-.56-.42h-.19l-.18 1.5c-.1.83-.36 1.91-.58 2.42l-.41.91-.37-1.47-.38-1.47-.86-.95-.86-.95-.48-2.53c-.4-2.12-.86-3.71-1.28-4.42-.17-.29-.96 1.21-1 1.9l-.03.69-.42-1.1c-.23-.61-.57-1.23-.76-1.36l-.35-.26-.55.84c-.29.46-.65.85-.78.86-.13.01-.68.33-1.21.7l-.98.67v.53l-.01.52-.25-.46-.26-.47-1.42.1-1.43.1-.56-.81-.57-.81v-1.53l-.42-.68-.43-.68-.18.22c-.1.11-.21.7-.25 1.3l-.07 1.1h-.75l-.03.79-.04.78-.13-.61-.14-.61h-1.07l.11.96.12.96-.3-.78c-.16-.44-.38-.79-.47-.79h-.18l.09.79.09.78-.595.02c-.33.02-.768-.12-.975-.3l-.374-.33v1.21l-.45-.2-.45-.2v.36c0 .2-.203.6-.45.89l-.451.53-.133-.47c-.073-.25-.396-1.49-.718-2.74l-.586-2.28-.705-1.29-.705-1.29-.519-.21-.519-.2-.515-1.7-.516-1.69-.949.09-.949.09-.803-1.78c-.766-1.7-1.21-2.61-1.789-3.66l-.262-.47-.258.47-.258.48-.004-.44-.005-.44-.368.09c-.202.05-.606.43-.899.84l-.532.76v.86c0 .47-.202 1.43-.45 2.12l-.45 1.25v1.81l-.299-.21-.3-.22v1.36l-.673.2-.673.21-.656-.89-.657-.89-.458 1.03-.457 1.03.187.22.188.22h-.699v1.26l-.375.47-.375.47.35-.23.349-.23-.349 1.14c-.339 1.1-.72 1.64-1.165 1.65l-.215.01.189-.61.189-.61-.798.98c-.439.53-.799 1.15-.799 1.37 0 .21-.209.66-.465.99l-.466.6-.048.73-.048.74h-.472v1.33l-.482.21-.482.22.127 1.27.127 1.26-.544.17-.545.17v1.58l-.45.43-.449.44v-.3c0-.16-.202.04-.448.45l-.448.75-.041 2.1-.04 2.11-1.611 2.03c-.885 1.12-1.61 2.17-1.61 2.35 0 .18-.471 1.48-1.047 2.89l-1.047 2.57-.193 1.41-.194 1.41-.409-.18-.408-.19v1.08l-.443.52-.443.51-.587-.37c-.773-.48-.926-.46-.926.13v.48l-.478.22-.477.21-.157-.7-.158-.7h-.529v-1.36l-.75-.95-.749-.94v-.58c0-.32-.191-.88-.423-1.25l-.422-.68-1.376 1.16-1.376 1.15-.301-.22c-.165-.12-.31-.48-.321-.81l-.021-.59-.233.7-.232.69-.2-1.25c-.11-.68-.379-1.52-.597-1.87l-.396-.63-.799 1-.799 1.01-.184 1.13c-.203 1.27-.226 1.29-1.001.8l-.546-.34-.185-.86-.185-.86-.899-.74-.898-.75v-.96l-.75-.94-.75-.95v-.48c0-.27-.219-.88-.487-1.35l-.488-.87-.412.4-.412.39v2.06l-.262-.19-.262-.19v.88c0 .49-.096.99-.212 1.13l-.212.25-.416-.67-.416-.66-.459.44-.459.45v.96h-.619l-.241-.76-.241-.76-.217.41-.217.41h-1.069l-.4-1.48-.401-1.49-.122.63-.122.63-.349-.13c-.193-.07-.488-.45-.656-.84l-.306-.71-.744.55c-.408.31-.844.72-.968.91l-.225.36.162 2.21.162 2.21-.372 1.19-.372 1.2h-.479v1.1l-.525-.19-.525-.19-.306.25c-.416.35-2.842 4.76-2.842 5.18 0 .18-.337.62-.75.98l-.749.66v.77l-.975-.04-.974-.04-.489.29-.489.3-.454 1.32-.455 1.33-.821.95-.822.96-.484.05c-.266.02-.802.08-1.191.12l-.708.09-.27.48c-.148.27-.354.88-.459 1.36-.104.48-.41 1.12-.68 1.42l-.492.56h-.984l-.374-.82c-.508-1.1-.74-1.03-1.616.5-.413.72-1.016 1.7-1.341 2.18l-.591.87-.161 4.55c-.089 2.49-.202 5.09-.251 5.76l-.09 1.22-.405.86-.404.86-.071 1.76c-.039.97-.171 2.71-.293 3.86l-.223 2.1-.562.62-.562.63v1.93l-.352.41-.353.41-.397-.38-.397-.39-.004.31-.005.3-.262-.48-.261-.48-.334.24-.333.24v.66c0 .36-.101.73-.225.82l-.225.16.104-2.11.002-.005z" fill="url(#a)" transform="matrix(.10612 0 0 .15905 216.37 775.595)"/><path d="M13.716 357.045l.108-2.1-.72.56c-.395.31-.901.57-1.124.57h-.404l-.188-1.06-.19-1.06-.34.12c-.187.07-.825.94-1.418 1.93l-1.077 1.81-.244-.44-.243-.43-.005.52-.004.51-.426-.51-.424-.52-.351-1.64-.352-1.64 3.552-76.636L-.79 220.5l157.452-20.102 129.036 8.223 65.714 81.447-65.714 5.652-.465-.44-.466-.43-.414.38-.404.38-.507-.68c-.487-.63-1.201-2.29-2.071-4.77l-.383-1.1-.621-.18-.622-.18-.559.63-.559.62-.559-1.26c-.3-.7-.528-1.47-.486-1.71l.072-.43h-.6l-.197 1.02-.207 1.02-.445.19-.445.19-.042-.6c-.01-.33-.01-.8.021-1.04l.052-.43h-.725l.135.98.124.99-.373.4-.383.39-.176-.53-.176-.53-.269.19-.269.18-.373-.93-.383-.92-.859 1.14-.87 1.14-.745-1.69-.746-1.69-.621-.01-.621-.02-.611.45c-.331.25-.859.46-1.16.46h-.548v1.39l-.238-.08c-.311-.12-1.481 1.22-1.957 2.23l-.383.79.352.13.362.14v1.26l-.538.23-.539.23.373.26.373.26-.187 1.27-.175 1.26-1.326-.12-1.335-.12-.176 1.02-.187 1.03h-1.252l-.042.44c-.02.24-.02.53-.01.66.021.12-.435.58-.994 1.01l-1.025.8-.725 1.18-.724 1.18-.404-.18-.414-.17-.29.6-.28.6.156.96.166.95h-.218c-.124 0-.487-.35-.808-.78l-.579-.79-.01.72-.011.72-.373.41c-.207.23-.517.42-.693.42h-.332l-.756-2.71-.745-2.7-.797-.79c-.922-.9-1.274-.98-1.274-.31v.47l-.61.62-.611.62-.901-.42-.911-.42-.642.45-.642.46-.207 1.05c-.114.59-.486 1.73-.828 2.55l-.611 1.5-.662-.8-.663-.8-1.087.06-1.086.05-.84-1.1-.838-1.1-.217 1.17-.208 1.17-.423.18-.425.18v1.89l-.425.66-.434.66-.89.02-.891.01-.031.53c-.01.29-.052.74-.072 1l-.052.47-.445-.19-.435-.19-.362.48-.352.48-.518-.22c-.518-.21-1.491-1.31-2.702-3.01l-.621-.89-.373-.01-.373-.02-.31-.65-.311-.65-.714.14-.704.15-.528-1.44-.529-1.43.187-.59.196-.59-.62.61-.623.61h-.961l-.385-1.05-.383-1.05h-.62l.186.53.176.54-.61-.37-.611-.37v.77l-.705-.26c-.382-.14-.9-.25-1.159-.24-.539 0-2.215-1.22-2.578-1.89l-.248-.46h-2.102l-.094.79-.102.79h-1.212l-.217 1.17c-.114.64-.352 1.33-.528 1.53l-.331.36-.673-1.63-.684-1.62-.776-.69-.776-.69-.509-1.1c-.269-.61-.631-1.13-.787-1.14-.154-.02-.672-.47-1.138-1l-.86-.96H203.278l-1.158-1.2-1.161-1.2-.195.35-.188.35-.558-.56-.549-.57-.818.23-.808.23v-.95l-.724 1.01-.715 1.01-.828-.61-.839-.61v-.97h-.652l-.321-1.05-.33-1.05-.281.2-.279.19v-1.45l-.777-.4-.776-.4v-1.5l-1.263.07-1.263.08-.134-.42-.145-.42-.767.02-.766.01-.818 1.37-.828 1.37-.382-.6-.383-.59-.197.8c-.105.44-.301 1.01-.456 1.26l-.27.47-.818-.86-.817-.85v-1.44l-.403-.47c-.228-.25-.726-1.44-1.13-2.65-.392-1.2-.839-2.27-.973-2.37l-.259-.17-.372.79c-.529 1.15-.549 1.16-1.077.42l-.476-.67.186 1.22.176 1.23-.672-1.66-.674-1.66h-.404c-.216 0-.611.23-.87.52-.248.29-.6.53-.754.53h-.302l-.207.9c-.114.5-.496 1.35-.848 1.9l-.642.98-.642.19-.652.19-.393-.37-.393-.37-.528.6-.539.6-.227-.69-.229-.69-.59-.18-.6-.18-.404.73-.403.73-.27-.82-.279-.83-.559.58-.559.57h-1.657v1.75h-.931l-.011.43c-.01.24-.435.98-.932 1.65l-.921 1.21v-1.53l-.435.19-.445.19-.176.81-.186.82-1.232-.36-1.243-.35-.548.27c-.301.15-.673.24-.818.2-.435-.11-1.781 1.42-2.268 2.58-.248.58-.631 1.41-.849 1.85l-.403.8-.062 2.43-.052 2.42-.59 1.49-.58 1.49-.021-.61-.031-.61h-.58l-.196.7-.197.7h-1.657l-.548 1.08-.539 1.07-.02.76-.021.76-.518-.86c-.29-.48-.776-1.1-1.076-1.39-.301-.29-.539-.67-.539-.84 0-.17-.321-.72-.704-1.23l-.693-.93-.673.34-.673.33-.176.98-.176.98h-.59l-.363-2.01c-.538-2.96-2.484-6.54-4.389-8.06l-.57-.46v.74l-.983-.13-.984-.12-.259-.78c-.145-.43-.538-1.23-.88-1.77l-.621-.97v-1.33l-.373-.42c-.196-.23-.465-.42-.579-.42h-.197l-.186 1.5c-.104.83-.373 1.91-.601 2.42l-.424.91-.383-1.47-.394-1.47-.89-.95-.891-.95-.497-2.53c-.414-2.12-.89-3.71-1.325-4.42-.176-.29-.994 1.21-1.035 1.9l-.031.69-.435-1.1c-.238-.61-.59-1.23-.787-1.36l-.362-.26-.569.84c-.301.46-.673.85-.808.86-.135.01-.704.33-1.253.7l-1.014.67v.53l-.011.52-.258-.46-.27-.47-1.47.1-1.48.1-.58-.81-.59-.81v-1.53l-.435-.68-.445-.68-.187.22c-.103.11-.217.7-.258 1.3l-.073 1.1h-.776l-.031.79-.042.78-.134-.61-.145-.61h-1.108l.114.96.124.96-.311-.78c-.165-.44-.393-.79-.486-.79h-.186l.093.79.093.78-.616.02c-.342.02-.795-.12-1.01-.3l-.387-.33v1.21l-.466-.2-.465-.2v.36c0 .2-.211.6-.466.89l-.467.53-.138-.47c-.076-.25-.41-1.49-.743-2.74l-.607-2.28-.73-1.29-.73-1.29-.537-.21-.537-.2-.534-1.7-.534-1.69-.982.09-.983.09-.831-1.78c-.793-1.7-1.253-2.61-1.852-3.66l-.272-.47-.267.47-.267.48-.004-.44-.005-.44-.381.09c-.209.05-.627.43-.931.84l-.551.76v.86c0 .47-.209 1.43-.465 2.12l-.466 1.25v1.81l-.31-.21-.311-.22v1.36l-.696.2-.697.21-.679-.89-.68-.89-.475 1.03-.473 1.03.194.22.195.22h-.724v1.26l-.388.47-.389.47.363-.23.361-.23-.361 1.14c-.351 1.1-.746 1.64-1.206 1.65l-.223.01.196-.61.195-.61-.826.98c-.454.53-.827 1.15-.827 1.37 0 .21-.216.66-.481.99l-.483.6-.05.73-.049.74h-.489v1.33l-.499.21-.499.22.132 1.27.131 1.26-.563.17-.564.17v1.58l-.466.43-.465.44v-.3c0-.16-.209.04-.464.45l-.464.75-.042 2.1-.042 2.11-1.667 2.03c-.917 1.12-1.667 2.17-1.667 2.35 0 .18-.488 1.48-1.084 2.89l-1.084 2.57-.2 1.41-.201 1.41-.423-.18-.423-.19v1.08l-.458.52-.459.51-.608-.37c-.8-.48-.958-.46-.958.13v.48l-.495.22-.494.21-.163-.7-.163-.7h-.548v-1.36l-.776-.95-.776-.94v-.58c0-.32-.198-.88-.438-1.25l-.437-.68-1.424 1.16-1.425 1.15-.311-.22c-.171-.12-.321-.48-.333-.81l-.021-.59-.242.7-.24.69-.207-1.25c-.114-.68-.392-1.52-.618-1.87l-.41-.63-.827 1-.827 1.01-.191 1.13c-.21 1.27-.234 1.29-1.036.8l-.565-.34-.192-.86-.192-.86-.93-.74-.93-.75v-.96l-.776-.94-.777-.95v-.48c0-.27-.227-.88-.504-1.35l-.505-.87-.427.4-.426.39v2.06l-.272-.19-.271-.19v.88c0 .49-.099.99-.219 1.13l-.22.25-.431-.67-.43-.66-.475.44-.476.45v.96h-.641l-.249-.76-.25-.76-.224.41-.225.41H46.454l-.414-1.48-.415-1.49-.126.63-.126.63-.362-.13c-.2-.07-.505-.45-.679-.84l-.317-.71-.77.55c-.422.31-.874.72-1.002.91l-.233.36.168 2.21.167 2.21-.385 1.19-.385 1.2h-.496v1.1l-.543-.19-.544-.19-.317.25c-.43.35-2.942 4.76-2.942 5.18 0 .18-.349.62-.777.98l-.775.66v.77l-1.009-.04-1.009-.04-.506.29-.506.3-.47 1.32-.471 1.33-.85.95-.851.96-.501.05c-.276.02-.831.08-1.233.12l-.733.09-.28.48c-.153.27-.366.88-.475 1.36-.108.48-.425 1.12-.704 1.42l-.51.56h-1.018l-.388-.82c-.525-1.1-.766-1.03-1.673.5a41.81 41.81 0 0 1-1.388 2.18l-.612.87-.166 4.55c-.093 2.49-.21 5.09-.26 5.76l-.093 1.22-.42.86-.418.86-.074 1.76c-.04.97-.177 2.71-.303 3.86l-.231 2.1-.582.62-.581.63v1.93l-.365.41-.365.41-.411-.38-.411-.39-.004.31-.006.3-.271-.48-.27-.48-.346.24-.345.24v.66c0 .36-.104.73-.233.82l-.233.16.108-2.11.002-.005z" transform="matrix(.10176 -.06039 0 .15905 249.03 777.313)" fill="url(#b)"/><g><path d="M15.088 355.249l-.227-2.028-.63.541c-.346.299-.811.55-1.034.55h-.404l-.357-1.023-.359-1.024-.321.116c-.176.067-.676.908-1.11 1.864l-.789 1.748-.313-.425-.312-.415.078.502.077.492-.507-.492-.508-.502-.612-1.584-.614-1.584-8.679-74.017L31.93 206.38l101.115-2.424 130.973 11.652 9.235 34.385 4.054 46.027-.537-.425-.534-.415-.354.367-.343.367-.616-.657c-.587-.608-1.566-2.211-2.832-4.607l-.558-1.062-.65-.174-.65-.174-.459.609-.46.599-.76-1.217c-.412-.676-.763-1.42-.76-1.652l.004-.415h-.6l-.034.985-.045.985-.415.184-.414.183-.138-.579c-.063-.319-.138-.773-.145-1.005l-.017-.415h-.725l.291.946.283.957-.309.386-.321.377-.261-.512-.26-.512-.239.183-.241.174-.521-.898-.53-.889-.677 1.101-.688 1.101-1.015-1.632-1.015-1.632-.623-.01-.625-.019-.539.435c-.291.241-.786.444-1.086.444h-.549l.112.676.11.666-.251-.077c-.329-.116-1.285 1.178-1.601 2.154l-.257.763.373.125.385.136.1.608.101.609-.502.222-.501.222.414.251.414.251.016 1.227.026 1.217-1.345-.116-1.355-.116-.013.985-.022.995H251.291l.029.425c.018.232.064.512.095.637.04.116-.342.56-.833.976l-.897.772-.536 1.14-.537 1.14-.432-.174-.442-.164-.194.579-.184.58.309.927.317.917h-.217c-.124 0-.543-.338-.932-.753l-.706-.763.104.695.105.696-.307.396c-.171.222-.451.405-.627.405h-.331l-1.189-2.617-1.176-2.608-.924-.763c-1.065-.869-1.429-.946-1.323-.299l.075.454-.511.599-.512.598-.968-.405-.978-.406-.57.435-.569.444-.039 1.014c-.02.57-.211 1.671-.422 2.463l-.371 1.449-.791-.773-.79-.773-1.077.058-1.08.049-1.014-1.063-1.014-1.062-.031 1.13-.02 1.13-.396.174-.396.174.15.907.152.918-.319.637-.33.638-.887.019-.889.01.054.512c.036.28.066.714.087.966l.023.453-.475-.183-.466-.184-.285.464-.276.464-.553-.213c-.551-.203-1.7-1.265-3.182-2.907l-.764-.86-.374-.009-.376-.02-.414-.627-.415-.628-.692.135-.68.145-.758-1.391-.756-1.381.092-.57.103-.57-.524.59-.524.589h-.963l-.551-1.014-.55-1.015h-.622l.271.512.263.522-.67-.357-.67-.358.06.367.063.377-.746-.251c-.405-.135-.941-.242-1.198-.232-.538 0-2.41-1.178-2.88-1.825l-.322-.445h-2.101l.033.763.022.763H203.939l-.031 1.13c-.012.618-.14 1.285-.284 1.478l-.274.348-.933-1.575-.942-1.564-.886-.667-.887-.666-.683-1.063c-.367-.589-.812-1.091-.969-1.101-.158-.019-.748-.453-1.298-.965l-1.013-.928H194.921l-1.351-1.159-1.351-1.159-.141.338-.131.339-.648-.541-.64-.551-.781.222-.771.222-.075-.454-.077-.463-.563.975-.553.976-.926-.589-.936-.589-.078-.474-.077-.463h-.652l-.489-1.014-.499-1.015-.247.194-.25.183-.114-.695-.117-.705-.84-.387-.841-.386-.119-.724-.12-.725-1.252.068-1.251.077-.201-.405-.212-.406-.763.019-.765.01-.599 1.323-.61 1.323-.479-.579-.477-.57-.069.773c-.033.424-.139.975-.254 1.216l-.194.454-.956-.83-.953-.821-.115-.696-.115-.695-.479-.454c-.268-.241-.955-1.391-1.552-2.559-.584-1.159-1.2-2.193-1.351-2.289l-.286-.165-.247.763c-.344 1.111-.363 1.121-1.009.406l-.584-.647.381 1.178.373 1.188-.938-1.603-.938-1.603h-.404c-.217 0-.574.222-.787.502-.202.28-.516.512-.671.512h-.3l-.064.869c-.034.483-.281 1.304-.545 1.835l-.486.947-.611.183-.622.184-.453-.358-.452-.357-.433.579-.442.58-.338-.666-.338-.667-.619-.174-.629-.174-.288.705-.287.706-.4-.792-.412-.802-.467.56-.468.551h-1.656l.139.84.14.85h-.932l.058.415c.028.232-.278.947-.668 1.594l-.728 1.168-.122-.734-.123-.743-.404.183-.415.184-.047.782-.055.792-1.29-.348-1.298-.338-.506.261c-.276.145-.635.232-.786.193-.452-.106-1.554 1.372-1.856 2.492-.156.56-.406 1.362-.553 1.787l-.276.772.325 2.347.335 2.338-.353 1.439-.342 1.439-.118-.589-.128-.589h-.58l-.085.676-.085.676h-1.657l-.376 1.043-.368 1.033.101.734.101.734-.655-.83c-.367-.464-.952-1.063-1.299-1.343-.346-.28-.645-.647-.672-.811-.028-.164-.436-.696-.901-1.188l-.842-.898-.619.328-.62.319-.02.946-.019.947h-.59l-.684-1.942c-1.01-2.858-3.528-6.316-5.676-7.784l-.643-.444.059.357.059.357-1.004-.125-1.003-.116-.383-.753c-.214-.416-.735-1.188-1.163-1.71l-.776-.937-.107-.647-.105-.637-.44-.406c-.233-.222-.533-.406-.647-.406h-.197l.053 1.449c.029.802-.067 1.845-.214 2.337l-.279.879-.618-1.42-.628-1.419-1.042-.918-1.042-.917-.901-2.444c-.752-2.047-1.482-3.583-2.031-4.269-.222-.28-.8 1.169-.732 1.835l.079.667-.61-1.063c-.336-.589-.786-1.188-1.004-1.313l-.404-.251-.435.811c-.227.444-.538.821-.671.831-.133.009-.651.318-1.141.676l-.907.647.084.512.073.502-.332-.444-.345-.454-1.454.096-1.465.097-.709-.783-.719-.782-.121-.734-.123-.744-.544-.656-.553-.657-.152.212c-.086.107-.105.676-.051 1.256l.103 1.062h-.777l.095.763.084.754-.232-.589-.243-.59h-1.108l.268.928.277.927-.435-.754c-.236-.425-.52-.763-.613-.763h-.186l.219.763.218.754-.613.019c-.339.019-.814-.116-1.057-.29l-.44-.318.097.589.096.579-.498-.193-.498-.193.058.348c.031.193-.115.579-.324.859l-.383.512-.212-.454c-.116-.241-.648-1.439-1.181-2.646l-.971-2.202-.936-1.246-.936-1.246-.57-.203-.57-.193-.804-1.642-.804-1.632-.968.087-.969.087-1.115-1.72c-1.065-1.641-1.67-2.52-2.437-3.534l-.346-.454-.192.454-.191.463-.074-.425-.075-.425-.367.087c-.201.048-.559.415-.797.811l-.429.734.137.831c.075.454.019 1.381-.128 2.048l-.266 1.207.145.879.144.869-.343-.203-.346-.212.109.656.108.657-.665.193-.663.203-.821-.859-.823-.86-.309.995-.309.995.229.212.229.213h-.723l.1.608.101.609-.314.453-.313.454.326-.222.324-.222-.179 1.101c-.175 1.063-.484 1.584-.943 1.594l-.221.009.099-.589.098-.589-.67.947c-.37.512-.644 1.11-.609 1.323.034.203-.111.637-.323.956l-.387.579.067.706.068.714h-.488l.105.638.107.647-.465.203-.464.212.334 1.227.332 1.217-.536.164-.537.164.126.763.126.763-.397.415-.395.425-.048-.289c-.025-.155-.202.038-.392.434l-.344.725.293 2.028.295 2.038-1.344 1.96c-.737 1.082-1.32 2.096-1.292 2.27.029.174-.251 1.429-.622 2.791l-.674 2.482.025 1.362.024 1.362-.452-.174-.453-.183.086.521.087.522-.376.502-.377.492-.667-.357c-.877-.464-1.032-.444-.938.126l.076.463-.459.213-.461.203-.274-.677-.275-.676h-.548l-.109-.656-.108-.657-.928-.918-.926-.908-.092-.56c-.051-.309-.339-.85-.638-1.207l-.545-.657-1.24 1.121-1.241 1.11-.347-.212c-.19-.116-.397-.464-.461-.783l-.116-.569-.13.676-.13.666-.406-1.207c-.223-.657-.635-1.468-.917-1.806l-.511-.609-.667.966-.666.976-.011 1.091c-.007 1.227-.028 1.246-.908.773l-.62-.329-.329-.83-.328-.831-1.049-.715-1.05-.724-.076-.464-.077-.463-.927-.908-.928-.918-.076-.463c-.044-.261-.368-.85-.72-1.304l-.644-.84-.363.386-.364.377.164.994.164.995-.301-.183-.302-.184.141.85c.078.473.058.956-.039 1.092l-.18.241-.538-.647-.536-.638-.405.425-.403.435.076.464.077.463h-.641l-.371-.734-.371-.734-.159.396-.159.396H39.923l-.65-1.429-.653-1.439-.026.608-.026.609-.382-.126c-.211-.068-.577-.435-.813-.811l-.43-.686-.683.531c-.373.3-.759.696-.857.879l-.175.348.52 2.134.521 2.135-.196 1.149-.193 1.159h-.496l.088.531.087.531-.574-.183-.573-.184-.277.242c-.375.338-2.183 4.597-2.116 5.003.029.174-.25.599-.62.946l-.67.638.062.376.06.368-1.015-.039-1.015-.039-.46.28-.459.29-.259 1.275-.259 1.284-.698.918-.698.927-.493.048c-.273.02-.818.078-1.214.116l-.719.087-.203.464c-.11.261-.226.85-.258 1.313-.031.464-.246 1.082-.478 1.372l-.42.541h-1.018l-.519-.792c-.701-1.063-.93-.995-1.593.483a33.634 33.634 0 0 1-1.04 2.105l-.473.84.559 4.395c.305 2.405.603 4.916.66 5.563l.101 1.178-.282.831-.281.831.207 1.699c.115.937.256 2.618.313 3.729l.104 2.028-.483.599-.481.608.153.927.155.937-.299.396-.3.396-.472-.367-.473-.377.045.3.043.29-.348-.464-.347-.464-.307.232-.307.232.106.637c.057.348.012.705-.102.792l-.208.155-.229-2.038.001-.005z" transform="matrix(.09829 .03909 -.01624 .15822 224.552 751.597)" fill="url(#c)"/><path d="M13.716 357.045l.108-2.1-.72.56c-.395.31-.901.57-1.124.57h-.404l-.188-1.06-.19-1.06-.34.12c-.187.07-.825.94-1.418 1.93l-1.077 1.81-.244-.44-.243-.43-.005.52-.004.51-.426-.51-.424-.52-.351-1.64-.352-1.64 3.552-76.636L-.79 220.5l157.452-20.102 75.039-3.892 119.711 93.562-65.714 5.652-.465-.44-.466-.43-.414.38-.404.38-.507-.68c-.487-.63-1.201-2.29-2.071-4.77l-.383-1.1-.621-.18-.622-.18-.559.63-.559.62-.559-1.26c-.3-.7-.528-1.47-.486-1.71l.072-.43h-.6l-.197 1.02-.207 1.02-.445.19-.445.19-.042-.6c-.01-.33-.01-.8.021-1.04l.052-.43h-.725l.135.98.124.99-.373.4-.383.39-.176-.53-.176-.53-.269.19-.269.18-.373-.93-.383-.92-.859 1.14-.87 1.14-.745-1.69-.746-1.69-.621-.01-.621-.02-.611.45c-.331.25-.859.46-1.16.46h-.548v1.39l-.238-.08c-.311-.12-1.481 1.22-1.957 2.23l-.383.79.352.13.362.14v1.26l-.538.23-.539.23.373.26.373.26-.187 1.27-.175 1.26-1.326-.12-1.335-.12-.176 1.02-.187 1.03h-1.252l-.042.44c-.02.24-.02.53-.01.66.021.12-.435.58-.994 1.01l-1.025.8-.725 1.18-.724 1.18-.404-.18-.414-.17-.29.6-.28.6.156.96.166.95h-.218c-.124 0-.487-.35-.808-.78l-.579-.79-.01.72-.011.72-.373.41c-.207.23-.517.42-.693.42h-.332l-.756-2.71-.745-2.7-.797-.79c-.922-.9-1.274-.98-1.274-.31v.47l-.61.62-.611.62-.901-.42-.911-.42-.642.45-.642.46-.207 1.05c-.114.59-.486 1.73-.828 2.55l-.611 1.5-.662-.8-.663-.8-1.087.06-1.086.05-.84-1.1-.838-1.1-.217 1.17-.208 1.17-.423.18-.425.18v1.89l-.425.66-.434.66-.89.02-.891.01-.031.53c-.01.29-.052.74-.072 1l-.052.47-.445-.19-.435-.19-.362.48-.352.48-.518-.22c-.518-.21-1.491-1.31-2.702-3.01l-.621-.89-.373-.01-.373-.02-.31-.65-.311-.65-.714.14-.704.15-.528-1.44-.529-1.43.187-.59.196-.59-.62.61-.623.61h-.961l-.385-1.05-.383-1.05h-.62l.186.53.176.54-.61-.37-.611-.37v.77l-.705-.26c-.382-.14-.9-.25-1.159-.24-.539 0-2.215-1.22-2.578-1.89l-.248-.46h-2.102l-.094.79-.102.79h-1.212l-.217 1.17c-.114.64-.352 1.33-.528 1.53l-.331.36-.673-1.63-.684-1.62-.776-.69-.776-.69-.509-1.1c-.269-.61-.631-1.13-.787-1.14-.154-.02-.672-.47-1.138-1l-.86-.96H203.278l-1.158-1.2-1.161-1.2-.195.35-.188.35-.558-.56-.549-.57-.818.23-.808.23v-.95l-.724 1.01-.715 1.01-.828-.61-.839-.61v-.97h-.652l-.321-1.05-.33-1.05-.281.2-.279.19v-1.45l-.777-.4-.776-.4v-1.5l-1.263.07-1.263.08-.134-.42-.145-.42-.767.02-.766.01-.818 1.37-.828 1.37-.382-.6-.383-.59-.197.8c-.105.44-.301 1.01-.456 1.26l-.27.47-.818-.86-.817-.85v-1.44l-.403-.47c-.228-.25-.726-1.44-1.13-2.65-.392-1.2-.839-2.27-.973-2.37l-.259-.17-.372.79c-.529 1.15-.549 1.16-1.077.42l-.476-.67.186 1.22.176 1.23-.672-1.66-.674-1.66h-.404c-.216 0-.611.23-.87.52-.248.29-.6.53-.754.53h-.302l-.207.9c-.114.5-.496 1.35-.848 1.9l-.642.98-.642.19-.652.19-.393-.37-.393-.37-.528.6-.539.6-.227-.69-.229-.69-.59-.18-.6-.18-.404.73-.403.73-.27-.82-.279-.83-.559.58-.559.57h-1.657v1.75h-.931l-.011.43c-.01.24-.435.98-.932 1.65l-.921 1.21v-1.53l-.435.19-.445.19-.176.81-.186.82-1.232-.36-1.243-.35-.548.27c-.301.15-.673.24-.818.2-.435-.11-1.781 1.42-2.268 2.58-.248.58-.631 1.41-.849 1.85l-.403.8-.062 2.43-.052 2.42-.59 1.49-.58 1.49-.021-.61-.031-.61h-.58l-.196.7-.197.7h-1.657l-.548 1.08-.539 1.07-.02.76-.021.76-.518-.86c-.29-.48-.776-1.1-1.076-1.39-.301-.29-.539-.67-.539-.84 0-.17-.321-.72-.704-1.23l-.693-.93-.673.34-.673.33-.176.98-.176.98h-.59l-.363-2.01c-.538-2.96-2.484-6.54-4.389-8.06l-.57-.46v.74l-.983-.13-.984-.12-.259-.78c-.145-.43-.538-1.23-.88-1.77l-.621-.97v-1.33l-.373-.42c-.196-.23-.465-.42-.579-.42h-.197l-.186 1.5c-.104.83-.373 1.91-.601 2.42l-.424.91-.383-1.47-.394-1.47-.89-.95-.891-.95-.497-2.53c-.414-2.12-.89-3.71-1.325-4.42-.176-.29-.994 1.21-1.035 1.9l-.031.69-.435-1.1c-.238-.61-.59-1.23-.787-1.36l-.362-.26-.569.84c-.301.46-.673.85-.808.86-.135.01-.704.33-1.253.7l-1.014.67v.53l-.011.52-.258-.46-.27-.47-1.47.1-1.48.1-.58-.81-.59-.81v-1.53l-.435-.68-.445-.68-.187.22c-.103.11-.217.7-.258 1.3l-.073 1.1h-.776l-.031.79-.042.78-.134-.61-.145-.61h-1.108l.114.96.124.96-.311-.78c-.165-.44-.393-.79-.486-.79h-.186l.093.79.093.78-.616.02c-.342.02-.795-.12-1.01-.3l-.387-.33v1.21l-.466-.2-.465-.2v.36c0 .2-.211.6-.466.89l-.467.53-.138-.47c-.076-.25-.41-1.49-.743-2.74l-.607-2.28-.73-1.29-.73-1.29-.537-.21-.537-.2-.534-1.7-.534-1.69-.982.09-.983.09-.831-1.78c-.793-1.7-1.253-2.61-1.852-3.66l-.272-.47-.267.47-.267.48-.004-.44-.005-.44-.381.09c-.209.05-.627.43-.931.84l-.551.76v.86c0 .47-.209 1.43-.465 2.12l-.466 1.25v1.81l-.31-.21-.311-.22v1.36l-.696.2-.697.21-.679-.89-.68-.89-.475 1.03-.473 1.03.194.22.195.22h-.724v1.26l-.388.47-.389.47.363-.23.361-.23-.361 1.14c-.351 1.1-.746 1.64-1.206 1.65l-.223.01.196-.61.195-.61-.826.98c-.454.53-.827 1.15-.827 1.37 0 .21-.216.66-.481.99l-.483.6-.05.73-.049.74h-.489v1.33l-.499.21-.499.22.132 1.27.131 1.26-.563.17-.564.17v1.58l-.466.43-.465.44v-.3c0-.16-.209.04-.464.45l-.464.75-.042 2.1-.042 2.11-1.667 2.03c-.917 1.12-1.667 2.17-1.667 2.35 0 .18-.488 1.48-1.084 2.89l-1.084 2.57-.2 1.41-.201 1.41-.423-.18-.423-.19v1.08l-.458.52-.459.51-.608-.37c-.8-.48-.958-.46-.958.13v.48l-.495.22-.494.21-.163-.7-.163-.7h-.548v-1.36l-.776-.95-.776-.94v-.58c0-.32-.198-.88-.438-1.25l-.437-.68-1.424 1.16-1.425 1.15-.311-.22c-.171-.12-.321-.48-.333-.81l-.021-.59-.242.7-.24.69-.207-1.25c-.114-.68-.392-1.52-.618-1.87l-.41-.63-.827 1-.827 1.01-.191 1.13c-.21 1.27-.234 1.29-1.036.8l-.565-.34-.192-.86-.192-.86-.93-.74-.93-.75v-.96l-.776-.94-.777-.95v-.48c0-.27-.227-.88-.504-1.35l-.505-.87-.427.4-.426.39v2.06l-.272-.19-.271-.19v.88c0 .49-.099.99-.219 1.13l-.22.25-.431-.67-.43-.66-.475.44-.476.45v.96h-.641l-.249-.76-.25-.76-.224.41-.225.41H46.454l-.414-1.48-.415-1.49-.126.63-.126.63-.362-.13c-.2-.07-.505-.45-.679-.84l-.317-.71-.77.55c-.422.31-.874.72-1.002.91l-.233.36.168 2.21.167 2.21-.385 1.19-.385 1.2h-.496v1.1l-.543-.19-.544-.19-.317.25c-.43.35-2.942 4.76-2.942 5.18 0 .18-.349.62-.777.98l-.775.66v.77l-1.009-.04-1.009-.04-.506.29-.506.3-.47 1.32-.471 1.33-.85.95-.851.96-.501.05c-.276.02-.831.08-1.233.12l-.733.09-.28.48c-.153.27-.366.88-.475 1.36-.108.48-.425 1.12-.704 1.42l-.51.56h-1.018l-.388-.82c-.525-1.1-.766-1.03-1.673.5a41.81 41.81 0 0 1-1.388 2.18l-.612.87-.166 4.55c-.093 2.49-.21 5.09-.26 5.76l-.093 1.22-.42.86-.418.86-.074 1.76c-.04.97-.177 2.71-.303 3.86l-.231 2.1-.582.62-.581.63v1.93l-.365.41-.365.41-.411-.38-.411-.39-.004.31-.006.3-.271-.48-.27-.48-.346.24-.345.24v.66c0 .36-.104.73-.233.82l-.233.16.108-2.11.002-.005z" transform="matrix(.07921 -.047 0 .15905 248.556 758.86)" fill="url(#d)"/></g></svg>