<?xml version="1.0" encoding="utf-8"?>
<svg class="pants" width="86" height="380" viewBox="202.715 584.407 86.5933 380.048" preserveAspectRatio="xMidYMid meet" xmlns="http://www.w3.org/2000/svg" xmlns:xlink="http://www.w3.org/1999/xlink">
  <defs id="svgEditorDefs">
    <path id="svgEditorClosePathDefs" fill="moccasin" style="stroke-width: 0px; stroke: none; fill-opacity: 1;" class="clothes"/>
    <pattern id="pattern-0" x="0" y="0" width="20" height="20" patternUnits="userSpaceOnUse" viewBox="0 0 100 100">
      <g>
        <g transform="matrix(4.270411, 0, 0, 4.523058, -0.64342, -4.349339)">
          <g id="g-1" transform="translate(0 -1028.4)">
            <path id="path2987" style="stroke: url(#linearGradient3764-552); stroke-width: 1.201; fill: rgb(186, 218, 85);" d="m18.143 1049.2-5.9291-3.003-5.8351 3.1817 1.0239-6.5669-4.8291-4.5664 6.5619-1.0554 2.8506-6.0039 3.0315 5.9145 6.5909 0.8558-4.6883 4.7109z"/>
          </g>
        </g>
        <path d="M 55.172 50.246 C 55.172 53.378 49.609 57.452 47.619 59.442 C 44.102 62.959 45.675 61.445 42.2 64.696 C 40.506 66.281 40.066 66.851 38.424 67.98 C 37.575 68.564 36.564 69.32 35.632 69.787 C 31.72 71.742 31.808 64.674 32.348 63.054 C 32.682 62.051 33.171 61.104 33.498 60.099 C 33.945 58.72 34.624 53.71 36.125 52.709 C 37.775 51.609 42.342 54 43.35 55.008 C 43.534 55.193 43.842 57.307 43.842 57.307 C 43.842 57.307 43.819 56.193 43.842 56.158 C 44.073 55.812 45.054 55.28 45.484 55.172 C 46.871 54.826 49.07 55.241 50.246 55.829" style="stroke: rgb(0, 0, 0); fill: rgb(218, 178, 85);"/>
        <path d="M 69.951 44.828 C 69.633 46.416 68.854 47.445 69.13 49.097 C 69.175 49.37 69.951 51.232 69.951 51.232 C 69.951 51.232 68.068 50.399 67.159 49.918 C 64.466 48.492 62.505 46.031 59.77 44.663 C 59.389 44.473 58.128 43.186 58.128 43.186 C 58.128 43.186 58.645 45.46 58.456 45.649 C 57.356 46.749 56.329 47.769 55.501 49.425 C 55.463 49.5 54.288 51.497 54.187 51.396 C 53.769 50.978 54.315 48.513 54.351 48.112 C 54.68 44.5 53.117 42.666 56.979 41.379 C 58.906 40.737 59.442 42.857 60.427 43.842 C 60.832 44.247 62.632 44.108 63.218 44.499 C 63.81 44.894 65.681 44.64 65.681 44.007" style="stroke: rgb(0, 0, 0); fill: rgb(92, 107, 45);"/>
        <path d="M 63.054 59.278 C 63.054 65.179 53.549 69.148 58.785 74.384 C 59.257 74.857 61.594 74.186 61.741 73.892 C 63.232 70.909 61.908 67.648 64.368 65.189 C 64.989 64.567 65.827 66.411 66.01 66.502 C 67.142 67.068 68.92 66.562 70.115 67.159 C 70.849 67.526 70.858 64.947 70.608 64.696 C 70.163 64.252 69.404 63.438 68.637 63.054 C 66.692 62.081 64.421 64.421 63.383 63.383 C 63.333 63.333 63.321 62.131 63.383 62.069 C 63.78 61.671 65.165 62.093 65.517 61.741 C 66.264 60.994 67.266 60.813 67.98 60.099 C 69.055 59.023 67.497 55.492 66.995 55.993 C 66.731 56.258 67.424 56.386 67.159 56.65 C 66.524 57.285 65.55 55.736 65.025 55.008 C 64.368 54.099 62.476 49.386 60.427 50.411 C 59.644 50.802 59.731 52.092 59.278 52.545 C 57.508 54.315 57.848 56.37 59.606 58.128 C 61.07 59.592 60.816 60.92 62.89 60.92" style="stroke: rgb(0, 0, 0); fill: rgb(203, 134, 38);"/>
        <path d="M 26.601 44.171 C 28.351 44.171 28.045 45.763 29.557 46.141 C 32.617 46.906 35.704 47.09 38.916 47.291 C 39.422 47.322 41.45 47.845 42.036 47.455 C 43.428 46.527 44.886 45.582 46.305 44.663 C 47.402 43.954 51.645 41.593 50.903 39.737 C 50.246 38.094 49.088 36.505 47.455 35.961 C 47.136 35.854 45.907 35.209 45.484 35.632 C 44.942 36.175 44.333 36.948 43.842 37.438 C 42.941 38.34 41.531 38.487 41.215 40.066 C 41.028 41.003 40.542 42.643 40.887 43.678 C 40.926 43.797 41.424 46.097 41.379 46.141 C 40.764 46.757 37.814 45.852 36.946 46.141 C 36.785 46.195 35.99 46.499 35.796 46.305 C 35.25 45.759 35.219 44.579 34.811 44.171 C 33.854 43.213 31.583 43.405 30.706 42.529 C 30.41 42.233 29.8 40.23 29.557 40.23 C 29.276 40.23 29.259 40.789 29.064 40.887 C 27.827 41.505 27.13 40.357 26.273 41.215 C 25.944 41.544 24.631 40.887 24.302 41.215 C 24.08 41.438 24.466 42.107 24.466 42.365 C 24.466 44.207 24.852 44.499 26.765 44.499" style="stroke: rgb(0, 0, 0); fill: rgb(136, 90, 44);"/>
        <path d="M 50.082 18.227 C 50.082 21.233 49.021 26.032 51.067 28.079 C 52.718 29.73 55.249 30.553 56.65 27.75 C 57.004 27.042 55.008 23.885 55.008 22.989" style="stroke: rgb(0, 0, 0); fill: rgb(176, 130, 128);"/>
      </g>
    </pattern>
    <pattern id="pattern-0-0" patternTransform="matrix(1.967281, 0, 0, 1.873673, 202.347961, 831.931458)" xlink:href="#pattern-0"/>
    <linearGradient id="linearGradient3764-552" x1="5" spreadMethod="reflect" gradientUnits="userSpaceOnUse" y1="102.36" gradientTransform="matrix(.20017 0 0 .20017 1.1287 1027.8)" x2="55" y2="72.362">
      <stop id="stop3003" style="stop-color:#555555" offset="0"/>
      <stop id="stop3005" style="stop-color:#555555" offset="0.4587"/>
      <stop id="stop3007" style="stop-color:#bfbfbf" offset="1"/>
    </linearGradient>
  </defs>
  <path d="M 210.836 792.118 C 210.836 808.017 201.322 832.875 201.322 849.921 C 201.322 859.339 202.787 867.793 202.787 876.666 C 202.787 893.079 204.981 909.588 204.981 925.842 C 204.981 931.835 202.787 937.124 202.787 941.371 C 202.787 947.224 203.518 952.183 203.518 956.038 C 204.492 956.901 208.641 960.953 208.641 961.214 C 210.875 962.077 210.105 960.472 210.105 956.038 C 213.483 955.175 218.454 950.861 224.74 950.861 C 227.147 948.887 231.879 949.999 234.254 949.999 C 234.254 930.51 240.109 909.496 240.109 888.744 C 240.109 879.717 242.304 873 242.304 866.313 C 242.304 859.699 242.304 853.947 242.304 848.196 C 242.304 843.882 242.304 840.431 242.304 836.98 C 242.304 841.019 243.036 844.156 243.036 847.333 C 243.036 852.797 243.036 857.398 243.036 861.999 C 243.036 866.401 241.572 871.383 241.572 873.215 C 241.572 878.104 241.572 882.13 241.572 886.156 C 241.572 892.195 241.572 897.372 241.572 902.548 C 241.572 908.953 244.499 913.009 244.499 918.077 C 244.499 921.873 245.231 925.215 245.231 928.43 C 245.231 934.533 245.963 938.818 245.963 943.959 C 245.963 947.659 253.137 947.41 255.475 947.41 C 257.541 947.41 261.68 947.823 262.793 949.136 C 266.208 949.136 268.892 949.136 271.575 949.136 C 272.306 944.325 278.892 935.017 278.892 929.293 C 283.127 918.447 278.161 907.207 278.161 898.234 C 278.161 887.592 280.356 880.102 280.356 870.627 C 280.356 867.015 282.575 845.607 283.283 845.607 C 283.283 839.464 283.283 836.139 283.283 830.941 C 283.283 825.291 281.82 819.843 281.82 813.686 C 281.82 810.049 280.356 809.447 280.356 805.921 C 279.624 804.269 278.161 800.536 278.161 797.294 C 277.428 793.464 275.965 793.904 275.965 791.255 C 271.649 791.255 268.655 787.804 268.648 787.804 C 264.989 787.804 262.062 787.804 259.134 787.804 C 254.446 787.804 251.55 786.941 248.157 786.941 C 245.809 788.848 240.942 787.804 238.645 787.804 C 236.205 787.804 234.497 787.804 232.79 787.804 C 227.84 792.777 225.81 788.667 223.277 788.667 C 219.909 787.804 219.199 786.078 215.959 786.078 C 213.251 786.078 211.569 789.04 211.569 791.255 Z" style="stroke: black; fill: url(#pattern-0-0);" class="clothes"/>
  <g transform="matrix(0.136585, 0, 0, 0.136585, 353.337769, 791.945129)">
    <g id="layer1" transform="matrix(1, 0, 0, 1, 0, -3.452308)">
      <g id="g4615"/>
    </g>
  </g>
</svg>