<svg class="bottomOverlay" width="86" height="380" viewBox="202.715 584.407 86.593 380.048" xmlns="http://www.w3.org/2000/svg" xmlns:xlink="http://www.w3.org/1999/xlink"><defs><pattern id="a" width="20" height="20" patternUnits="userSpaceOnUse" viewBox="0 0 100 100"><g fill="#739071"><path d="M-43.429 908.4c-.565-1.24-1.455-2.25-1.976-2.25-.528 0-1.18-6.31-1.472-14.25-.288-7.84-.811-16.56-1.162-19.38-.751-6.04.852-9.93 5.568-13.53 1.692-1.29 4.919-3.92 7.171-5.84 3.928-3.36 4.482-3.52 13.697-4l9.603-.5.17-7.5c.35-15.45 2.373-43.61 3.334-46.4.548-1.6.998-10.82 1-20.5.002-9.68.299-23.38.66-30.45.57-11.18.956-13.29 2.995-16.29l2.341-3.45v-58.92c0-50.01.225-59.42 1.487-62.21 1.029-2.27 1.773-9.45 2.413-23.28.51-11 1.454-22.7 2.099-26 .692-3.54 1.273-18.1 1.419-35.5.135-16.24.738-31.97 1.341-35 .642-3.23 1.125-18.46 1.168-36.82.04-17.22.461-32.07.936-33 .475-.92 1.13-6.27 1.455-11.87l.59-10.18-17.204-.57c-9.462-.31-33.629-.91-53.704-1.32-25.523-.52-37.135-1.11-38.613-1.95-1.162-.67-3.527-2.82-5.247-4.79l-3.14-3.57v-17c0-20.29.92-23.85 6.2-24.06 1.815-.08 5.325-.23 7.8-.34s10.379-1.19 17.565-2.4c11.448-1.94 15.779-2.16 35-1.8 26.384.48 46.943 2.19 50.589 4.2 1.46.81 4.042 1.47 5.738 1.47h3.083l-.113-29.52c-.062-16.24-.394-29.69-.737-29.89-.344-.21-6.25-.7-13.125-1.09-6.875-.4-16.775-1.16-22-1.71-5.225-.54-19.4-1.12-31.5-1.29-12.1-.18-23.264-.7-24.81-1.18-3.508-1.08-7.607-9.98-8.61-18.69-.775-6.72-2.867-9.06-7.262-8.09-2.061.45-3.156.06-4.519-1.62-1.671-2.06-3.404-3.82-7.379-7.47-.88-.8-3.15-1.45-5.06-1.45-1.96 0-6.59-1.54-10.58-3.5-3.91-1.93-7.81-3.5-8.66-3.5s-3.13-1.58-5.05-3.5c-1.93-1.93-4.33-3.5-5.34-3.5-1.21 0-2.49-1.47-3.71-4.25-1.03-2.34-3.93-6.15-6.44-8.47-4.17-3.84-4.58-4.64-4.58-8.83 0-3.89.48-5.05 3.08-7.37l3.08-2.75 21.42.34c11.78.19 25.695.79 30.92 1.33 5.225.55 14.225 1.43 20 1.95s11.625 1.22 13 1.55 7.225 1.01 13 1.51 12.75 1.35 15.5 1.89 8.233 1.01 12.185 1.04 8.287.48 9.634.99c1.347.51 10.714 1.21 20.815 1.55s22.174 1.33 26.83 2.19c6.104 1.13 11.04 1.38 17.708.89 6.625-.48 9.895-.32 11.537.57 5.255 2.86 18.968 4.03 57.791 4.94 26.11.62 40.35 1.32 42 2.1 4.21 1.96 19.59 2.83 67 3.77 60.39 1.2 185.47 1.13 195-.12 4.12-.54 31.35-1.33 60.5-1.77s54.12-1.12 55.5-1.52 7.53-1.09 13.67-1.52c6.15-.43 13.35-1.27 16-1.86 9.55-2.12 21.21-3.24 43.33-4.15 12.38-.5 25.2-1.37 28.5-1.93 3.3-.55 8.02-1.27 10.5-1.59 5.14-.67 9.08-1.48 24.45-5.02 11.28-2.6 25.52-5.13 36.05-6.4 3.3-.4 7.35-1.31 9-2.02 2.16-.92 10.37-1.32 29.25-1.41l26.25-.13v17.3l-6.05 5.24c-3.33 2.89-6.93 6.95-7.99 9.03s-2.79 4.06-3.85 4.39c-1.06.34-3.88 2.17-6.27 4.07l-4.34 3.45-12 .03c-9.77.03-12.81.4-16.36 2.01-2.4 1.09-5.54 1.98-6.99 1.98s-4.5.77-6.79 1.72c-4.57 1.89-4.79 2.47-6.24 16.28-.68 6.53-2.37 11-4.14 11-.53 0-3.44 2.25-6.48 5s-6.21 5-7.05 5c-1.97 0-9.37 3.71-11.95 5.99-1.74 1.55-4.93 1.84-25 2.34-12.65.32-24.8 1.03-27 1.6-2.2.56-14.58 1.03-27.5 1.04l-23.5.03.29 18.54c.18 11.47-.15 20.72-.88 24.25-.64 3.14-1.37 7.28-1.62 9.21l-.45 3.5 64.33.36c59.21.33 64.66.5 68.49 2.15 5.19 2.24 6.33 4.32 8.22 14.99 2.3 12.98 2.08 21.71-.66 26.14-3.09 5.01-8.69 9.04-14.15 10.2-2.51.53-21.22 1.14-41.57 1.35-30.44.32-37.71.13-41-1.06-2.2-.79-7.6-1.7-12-2.01s-10.81-.86-14.25-1.23l-6.25-.68v26.2c0 20.24.31 26.8 1.37 28.89 1.09 2.14 1.49 12.96 1.89 52.2.38 37.37.82 50.23 1.8 52.5.91 2.1 1.41 10.48 1.67 28 .28 18.67.74 25.95 1.82 28.77 1.24 3.21 1.45 21.63 1.45 125.37v121.6l13.4-.72c12.26-.66 13.56-.56 15.26 1.13 1.03 1.02 2.98 2.75 4.35 3.85s3.73 3.66 5.24 5.68c2.7 3.62 2.75 3.95 2.75 17.94 0 12.51-.26 14.79-2.14 18.66-3.44 7.12-6.47 8.39-18.36 7.71-5.5-.31-29.58-.89-53.5-1.28-38.86-.64-43.85-.9-46.73-2.48-5.9-3.22-6.27-5.06-6.27-31.18v-23.55h7.55c6.71 0 7.82-.28 10.04-2.5 1.38-1.38 3.44-2.5 4.58-2.5 2.06 0 2.08-.27 1.64-19.25-.32-13.72-.85-19.97-1.82-21.75-.76-1.38-1.74-7-2.19-12.5-3.2-39.65-4-54.35-4.75-87.5-.46-20.63-1.33-39.53-1.92-42-1.68-7.01-1.45-37.31.32-41.53.8-1.91 1.43-6.49 1.4-10.22-.67-113.54-1.06-134.64-2.53-136.89-1.08-1.65-1.36-3.71-.95-7.09.32-2.63.54-5.22.49-5.77-.04-.55-.28-15.52-.52-33.26l-.44-32.25-2.4.6c-1.32.33-3.88.11-5.7-.49-9.21-3.02-69.79-4.06-169.8-2.91-14.58.17-30.55-.01-35.5-.41-4.95-.39-16.6-.98-25.88-1.32-9.29-.34-17.89-.99-19.12-1.46s-42.69-.96-92.12-1.09L77 388.83l-.597 64.43c-.38 41.13-.983 65.69-1.665 67.91-.62 2.02-1.342 19.34-1.72 41.34-.36 20.83-1.074 38.97-1.586 40.32-.513 1.35-.932 6.61-.932 11.69 0 6.58-.423 9.81-1.468 11.19-1.229 1.62-1.489 8.46-1.595 41.94-.07 22-.529 45.62-1.02 52.5a3220.22 3220.22 0 0 0-1.807 27.5c-.502 8.25-1.392 17.25-1.978 20-.612 2.87-1.185 21.05-1.348 42.75L61 848.15h2.5c4.19.01 10.375 2.07 12.725 4.24 4.515 4.17 5.46 9.09 4.964 25.84-.662 22.39-1.926 27-8.52 31.11-3.289 2.05-4.058 2.07-59.2 1.69l-55.869-.38-1.029-2.25zm316.7-563.75c.97-3.45 1.57-13.37 1.94-31.91l.54-26.91-65.37.64c-43.4.42-69.42.28-77.38-.43-6.6-.59-21.53-1.28-33.179-1.55l-21.179-.48-.462 27.82c-.255 15.3-.771 29.17-1.148 30.82l-.686 3 24.324.04c13.38.02 29.05.57 34.83 1.22 5.99.67 26.62 1.21 48 1.26 20.62.05 39.3.47 41.5.93s13.65.77 25.44.69l21.43-.14 1.4-5zm199.53 1.43c2.64-.51 14.2-.93 25.69-.93 15.12 0 21.1-.33 21.63-1.2.41-.65.94-7.09 1.18-14.31.36-10.64.15-13.69-1.13-16.17-1.75-3.37-2.69-21.26-1.31-24.89l.78-2.08-70.32.38c-38.68.21-72.48.8-75.12 1.32s-15.78.95-29.2.95h-24.4l1.93 4.25c1.73 3.81 1.93 6.7 1.95 27.86l.02 23.61 11.25.7c6.19.38 14.63 1.04 18.75 1.46 10.19 1.03 112.3.21 118.3-.95z" transform="matrix(.02434 0 0 .02434 28.386 10.077)"/><path d="M-48.75 902.26c-.566-1.24-1.455-2.25-1.976-2.25-.528 0-1.18-6.31-1.472-14.25-.289-7.84-.811-16.56-1.162-19.38-.751-6.04.851-9.93 5.568-13.53 1.692-1.29 4.919-3.92 7.17-5.84 3.929-3.36 4.483-3.52 13.698-4l9.603-.5.17-7.5c.35-15.45 2.373-43.61 3.333-46.4.548-1.6.998-10.82 1.001-20.5.002-9.68.298-23.38.659-30.45.57-11.19.957-13.29 2.996-16.29l2.34-3.45V659c0-50.01.226-59.42 1.488-62.21 1.028-2.27 1.772-9.45 2.413-23.28.51-11 1.454-22.7 2.099-26 .691-3.54 1.273-18.1 1.418-35.5.136-16.24.739-31.98 1.342-35 .641-3.23 1.125-18.46 1.168-36.82.04-17.22.461-32.07.936-33 .475-.93 1.13-6.27 1.454-11.87l.591-10.18-17.204-.57c-9.463-.32-33.629-.91-53.704-1.32-25.523-.52-37.139-1.11-38.609-1.96-1.17-.66-3.53-2.82-5.25-4.78l-3.14-3.57v-17c0-20.29.92-23.86 6.2-24.07 1.81-.07 5.32-.22 7.799-.33 2.475-.11 10.379-1.19 17.564-2.4 11.449-1.94 15.78-2.16 35-1.81 26.385.49 46.944 2.2 50.59 4.21 1.46.81 4.041 1.47 5.737 1.47h3.083l-.112-29.52c-.062-16.24-.394-29.69-.738-29.89-.343-.21-6.25-.7-13.124-1.09-6.875-.4-16.775-1.17-22-1.71s-19.4-1.12-31.5-1.3c-12.1-.17-23.265-.7-24.81-1.17-3.508-1.08-7.608-9.98-8.611-18.69-.774-6.73-2.867-9.06-7.261-8.09-2.061.45-3.156.06-4.519-1.63-1.668-2.06-3.408-3.81-7.388-7.46-.87-.8-3.14-1.45-5.06-1.45-1.95 0-6.58-1.54-10.58-3.5-3.9-1.93-7.8-3.5-8.65-3.5-.86 0-3.13-1.58-5.05-3.5-1.93-1.93-4.33-3.5-5.35-3.5-1.2 0-2.48-1.47-3.7-4.25-1.03-2.34-3.93-6.15-6.44-8.47-4.17-3.84-4.58-4.64-4.58-8.84 0-3.89.48-5.04 3.08-7.36l3.08-2.76 21.42.35c11.78.18 25.69.79 30.919 1.33 5.225.55 14.225 1.42 20 1.95 5.775.52 11.625 1.22 13 1.55s7.225 1.01 13 1.51 12.75 1.35 15.5 1.89 8.233 1 12.184 1.04c3.952.03 8.288.47 9.635.99 1.347.51 10.714 1.21 20.815 1.55s22.174 1.32 26.829 2.19c6.104 1.13 11.039 1.38 17.708.89 6.626-.49 9.895-.33 11.537.57 5.256 2.86 18.969 4.03 57.793 4.94 26.11.61 40.35 1.32 42 2.09 4.21 1.97 19.58 2.83 67 3.78 60.39 1.2 185.47 1.13 195-.12 4.12-.54 31.35-1.34 60.5-1.77 29.15-.44 54.12-1.13 55.5-1.53 1.37-.4 7.53-1.08 13.67-1.51 6.15-.44 13.35-1.27 16-1.86 9.55-2.13 21.21-3.24 43.33-4.15 12.37-.51 25.2-1.38 28.5-1.93 3.3-.56 8.02-1.27 10.5-1.59 5.14-.67 9.08-1.48 24.45-5.02 11.28-2.6 25.52-5.13 36.05-6.41 3.3-.4 7.35-1.3 9-2.01 2.16-.92 10.37-1.32 29.25-1.41l26.25-.13v17.3l-6.06 5.24c-3.33 2.89-6.92 6.95-7.98 9.03s-2.79 4.06-3.85 4.39c-1.06.34-3.88 2.17-6.27 4.06l-4.34 3.46-12 .03c-9.77.02-12.81.4-16.36 2.01-2.4 1.09-5.54 1.98-6.99 1.98s-4.5.77-6.79 1.72c-4.57 1.89-4.79 2.47-6.24 16.28-.69 6.53-2.37 11-4.15 11-.52 0-3.43 2.25-6.47 5s-6.21 5-7.05 5c-1.97 0-9.37 3.71-11.95 5.99-1.75 1.54-4.93 1.84-25 2.34-12.65.31-24.8 1.03-27 1.59-2.2.57-14.58 1.04-27.5 1.05l-23.5.02.29 18.55c.18 11.47-.15 20.72-.88 24.25-.65 3.14-1.38 7.28-1.62 9.21l-.45 3.5 64.33.36c59.21.33 64.66.5 68.49 2.15 5.19 2.24 6.33 4.32 8.22 14.99 2.3 12.98 2.08 21.71-.66 26.14-3.1 5.01-8.69 9.04-14.15 10.2-2.51.53-21.22 1.14-41.57 1.35-30.44.31-37.71.13-41-1.06-2.2-.79-7.6-1.7-12-2.01s-10.81-.87-14.25-1.24l-6.25-.67v26.19c0 20.25.31 26.81 1.37 28.9 1.09 2.14 1.48 12.96 1.89 52.2.38 37.36.82 50.23 1.8 52.5.91 2.1 1.41 10.48 1.67 28 .28 18.67.74 25.95 1.82 28.77 1.24 3.21 1.45 21.63 1.45 125.37v121.6l13.4-.72c12.26-.66 13.56-.56 15.26 1.13 1.02 1.01 2.98 2.75 4.35 3.85s3.73 3.65 5.24 5.68c2.7 3.61 2.75 3.95 2.75 17.93 0 12.51-.26 14.79-2.14 18.67-3.44 7.12-6.47 8.39-18.36 7.71-5.5-.31-29.58-.89-53.5-1.28-38.86-.64-43.85-.9-46.73-2.48-5.9-3.22-6.27-5.06-6.27-31.18v-23.55h7.54c6.72 0 7.82-.28 10.05-2.5 1.37-1.38 3.44-2.5 4.58-2.5 2.06 0 2.08-.27 1.64-19.25-.32-13.72-.85-19.97-1.83-21.75-.75-1.38-1.73-7-2.18-12.5-3.2-39.65-4-54.36-4.75-87.5-.47-20.63-1.33-39.53-1.92-42-1.68-7.01-1.45-37.31.32-41.53.79-1.91 1.42-6.49 1.4-10.22-.67-113.54-1.06-134.64-2.53-136.89-1.08-1.65-1.36-3.71-.95-7.09.31-2.63.54-5.22.49-5.77s-.28-15.52-.52-33.26l-.45-32.26-2.39.6c-1.32.34-3.88.12-5.7-.48-9.21-3.03-69.79-4.06-169.8-2.91-14.58.17-30.55-.02-35.5-.41s-16.6-.99-25.88-1.32c-9.29-.34-17.89-1-19.12-1.46-1.24-.47-42.69-.96-92.12-1.09l-89.881-.24-.597 64.44c-.382 41.13-.984 65.69-1.666 67.91-.62 2.02-1.341 19.33-1.721 41.34-.359 20.83-1.072 38.97-1.585 40.32-.512 1.34-.931 6.61-.931 11.69 0 6.58-.424 9.8-1.469 11.18-1.229 1.63-1.488 8.46-1.594 41.95-.07 22-.529 45.62-1.02 52.5-.492 6.87-1.305 19.25-1.807 27.5-.503 8.25-1.393 17.25-1.978 20-.612 2.87-1.185 21.04-1.348 42.75l-.284 37.75h2.5c4.189.01 10.374 2.07 12.724 4.24 4.516 4.17 5.461 9.09 4.965 25.84-.663 22.38-1.926 27-8.521 31.1-3.289 2.05-4.058 2.08-59.2 1.7l-55.868-.38-1.029-2.25zm316.7-563.75c.97-3.45 1.57-13.38 1.94-31.91l.54-26.91-65.37.64c-43.4.42-69.42.28-77.38-.43-6.6-.59-21.53-1.29-33.18-1.55l-21.179-.48-.463 27.82c-.254 15.3-.771 29.17-1.148 30.82l-.685 3 24.327.04c13.378.02 29.048.57 34.828 1.22 5.99.66 26.62 1.21 48 1.26 20.62.05 39.3.47 41.5.93s13.64.77 25.43.69l21.44-.14 1.4-5zm199.53 1.43c2.64-.52 14.2-.93 25.69-.93 15.12 0 21.09-.33 21.63-1.2.4-.66.94-7.1 1.18-14.31.36-10.64.15-13.69-1.14-16.17-1.74-3.37-2.68-21.26-1.3-24.9l.78-2.07-70.32.38c-38.68.21-72.48.8-75.12 1.32s-15.78.95-29.2.95h-24.4l1.93 4.25c1.72 3.8 1.93 6.7 1.95 27.86l.02 23.61 11.25.7c6.19.38 14.62 1.04 18.75 1.45 10.19 1.04 112.29.22 118.3-.94z" transform="matrix(.02434 0 0 .02434 28.386 10.077)"/><path d="M-54.464 896.54c-.566-1.24-1.455-2.25-1.976-2.25-.529 0-1.18-6.31-1.472-14.25-.289-7.84-.812-16.56-1.163-19.38-.75-6.03.852-9.93 5.568-13.52 1.692-1.29 4.919-3.92 7.171-5.85 3.929-3.36 4.483-3.52 13.697-4l9.603-.5.17-7.5c.351-15.45 2.374-43.6 3.334-46.4.548-1.59.998-10.82 1-20.5.003-9.68.299-23.38.659-30.44.571-11.19.958-13.29 2.996-16.3l2.341-3.45v-58.92c0-50.01.225-59.42 1.487-62.2 1.029-2.28 1.773-9.45 2.414-23.29.51-11 1.454-22.7 2.098-26 .692-3.54 1.274-18.1 1.419-35.5.136-16.24.738-31.97 1.341-35 .642-3.22 1.126-18.46 1.168-36.81.04-17.23.462-32.08.937-33 .475-.93 1.129-6.27 1.454-11.87l.59-10.19-17.204-.57c-9.462-.31-33.63-.9-53.704-1.31-25.522-.52-37.134-1.11-38.614-1.96-1.16-.67-3.52-2.82-5.25-4.79l-3.14-3.57v-17c0-20.28.92-23.85 6.2-24.06 1.82-.07 5.33-.22 7.8-.33 2.48-.11 10.383-1.19 17.569-2.41 11.448-1.93 15.779-2.15 35-1.8 26.385.48 46.944 2.19 50.59 4.21 1.46.8 4.04 1.46 5.737 1.46h3.083l-.113-29.52c-.062-16.23-.394-29.68-.737-29.89-.344-.2-6.25-.69-13.125-1.09-6.875-.39-16.775-1.16-22-1.7s-19.4-1.13-31.5-1.3-23.264-.7-24.81-1.18c-3.507-1.08-7.607-9.97-8.61-18.68-.775-6.73-2.867-9.06-7.261-8.1-2.063.45-3.153.06-4.523-1.62-1.67-2.06-3.4-3.81-7.38-7.46-.87-.8-3.15-1.46-5.06-1.46-1.95 0-6.59-1.53-10.58-3.5-3.91-1.92-7.8-3.5-8.66-3.5-.85 0-3.12-1.57-5.05-3.5-1.92-1.92-4.33-3.5-5.34-3.5-1.21 0-2.48-1.46-3.71-4.25-1.02-2.34-3.92-6.15-6.44-8.47-4.16-3.84-4.58-4.63-4.58-8.83 0-3.89.49-5.04 3.09-7.37l3.08-2.75 21.42.34c11.78.19 25.69.79 30.91 1.34 5.229.54 14.229 1.42 20.004 1.94 5.775.53 11.625 1.22 13 1.56 1.375.33 7.225 1 13 1.5s12.75 1.35 15.5 1.89 8.234 1.01 12.185 1.04c3.952.03 8.287.48 9.634.99s10.714 1.21 20.815 1.55c10.102.34 22.175 1.33 26.829 2.19 6.105 1.14 11.04 1.39 17.709.9 6.625-.49 9.895-.33 11.537.56 5.256 2.86 18.969 4.04 57.787 4.95 26.12.61 40.35 1.32 42 2.09 4.22 1.96 19.59 2.83 67 3.77 60.4 1.21 185.47 1.13 195-.11 4.13-.54 31.35-1.34 60.5-1.78s54.13-1.12 55.5-1.52c1.38-.4 7.53-1.08 13.68-1.52 6.14-.43 13.34-1.27 16-1.86 9.55-2.12 21.2-3.24 43.32-4.14 12.38-.51 25.2-1.38 28.5-1.93 3.3-.56 8.03-1.28 10.5-1.6 5.14-.67 9.08-1.47 24.45-5.01 11.28-2.6 25.53-5.13 36.05-6.41 3.3-.4 7.35-1.31 9-2.01 2.16-.92 10.38-1.32 29.25-1.42l26.25-.13v17.3l-6.05 5.25c-3.33 2.88-6.92 6.94-7.98 9.02s-2.8 4.06-3.86 4.4c-1.05.33-3.87 2.16-6.26 4.06l-4.35 3.45-12 .03c-9.77.03-12.8.4-16.35 2.01-2.4 1.09-5.55 1.98-6.99 1.98-1.45 0-4.51.78-6.79 1.72-4.58 1.89-4.8 2.47-6.25 16.28-.68 6.53-2.36 11-4.14 11-.53 0-3.44 2.25-6.48 5-3.03 2.75-6.21 5-7.05 5-1.97 0-9.36 3.71-11.95 6-1.74 1.54-4.93 1.84-25 2.34-12.65.31-24.8 1.03-27 1.59s-14.57 1.03-27.5 1.05l-23.5.02.3 18.54c.18 11.48-.16 20.72-.88 24.25-.65 3.14-1.38 7.29-1.63 9.21l-.45 3.5 64.33.36c59.21.33 64.67.5 68.5 2.16 5.18 2.23 6.32 4.31 8.21 14.98 2.31 12.98 2.09 21.71-.65 26.14-3.1 5.01-8.69 9.04-14.15 10.2-2.52.54-21.23 1.15-41.58 1.36-30.43.31-37.71.12-41-1.07-2.2-.79-7.6-1.69-12-2s-10.81-.87-14.25-1.24l-6.25-.67v26.19c0 20.25.32 26.8 1.38 28.89 1.09 2.14 1.48 12.96 1.88 52.2.39 37.37.83 50.24 1.81 52.5.9 2.1 1.4 10.49 1.66 28 .28 18.68.74 25.96 1.83 28.77 1.23 3.22 1.44 21.63 1.44 125.37v121.6l13.41-.72c12.25-.65 13.56-.56 15.26 1.13 1.02 1.02 2.98 2.75 4.34 3.85 1.37 1.1 3.73 3.66 5.24 5.68 2.7 3.62 2.75 3.95 2.75 17.94 0 12.51-.26 14.79-2.13 18.66-3.45 7.12-6.47 8.39-18.37 7.72-5.5-.32-29.57-.89-53.5-1.29-38.85-.63-43.84-.9-46.73-2.48-5.9-3.22-6.27-5.05-6.27-31.18v-23.55h7.55c6.71 0 7.82-.27 10.05-2.5 1.37-1.37 3.43-2.5 4.58-2.5 2.05 0 2.08-.26 1.63-19.25-.32-13.72-.84-19.97-1.82-21.75-.76-1.37-1.74-7-2.18-12.5-3.21-39.64-4-54.35-4.75-87.5-.47-20.62-1.34-39.52-1.93-42-1.68-7-1.44-37.3.32-41.53.8-1.91 1.43-6.49 1.41-10.21-.67-113.55-1.06-134.64-2.54-136.89-1.08-1.66-1.35-3.71-.95-7.1.32-2.62.54-5.22.5-5.77-.05-.55-.29-15.51-.53-33.25l-.44-32.26-2.39.6c-1.32.33-3.89.11-5.7-.48-9.22-3.03-69.79-4.07-169.81-2.91-14.57.16-30.55-.02-35.5-.41s-16.59-.99-25.88-1.33c-9.28-.33-17.89-.99-19.12-1.46s-42.68-.96-92.12-1.09l-89.876-.23-.597 64.43c-.381 41.13-.983 65.69-1.665 67.91-.621 2.02-1.342 19.34-1.721 41.35-.36 20.82-1.073 38.96-1.585 40.31s-.932 6.61-.932 11.7c0 6.58-.423 9.8-1.468 11.18-1.23 1.63-1.49 8.46-1.595 41.94-.07 22-.528 45.63-1.02 52.5a3208.31 3208.31 0 0 0-1.806 27.5c-.503 8.25-1.393 17.25-1.978 20-.612 2.88-1.186 21.05-1.35 42.75l-.283 37.75 2.5.01c4.189.01 10.375 2.07 12.725 4.24 4.516 4.17 5.46 9.09 4.965 25.84-.663 22.38-1.927 26.99-8.522 31.1-3.288 2.05-4.057 2.07-59.2 1.69l-55.868-.38-1.028-2.25zm316.7-563.75c.96-3.44 1.57-13.37 1.94-31.91l.54-26.91-65.38.64c-43.39.43-69.41.28-77.38-.43-6.6-.58-21.53-1.28-33.175-1.55l-21.178-.48-.463 27.82c-.254 15.3-.771 29.17-1.148 30.82l-.686 3 24.327.04c13.383.03 29.053.58 34.823 1.22 5.99.67 26.62 1.21 48 1.27 20.63.05 39.3.46 41.5.92s13.65.78 25.44.7l21.43-.15 1.41-5zm199.52 1.43c2.64-.51 14.2-.93 25.69-.93 15.12 0 21.1-.33 21.63-1.19.41-.66.94-7.1 1.19-14.31.36-10.64.14-13.7-1.14-16.18-1.74-3.36-2.68-21.26-1.31-24.89l.78-2.07-70.32.37c-38.67.21-72.48.81-75.11 1.33-2.64.52-15.79.94-29.21.94h-24.4l1.93 4.25c1.73 3.81 1.93 6.7 1.95 27.86l.02 23.61 11.25.7c6.19.39 14.63 1.04 18.75 1.46 10.19 1.03 112.3.21 118.3-.95z" transform="matrix(.02434 0 0 .02434 28.386 10.077)"/></g><g fill="#739071"><path d="M-43.429 908.4c-.565-1.24-1.455-2.25-1.976-2.25-.528 0-1.18-6.31-1.472-14.25-.288-7.84-.811-16.56-1.162-19.38-.751-6.04.852-9.93 5.568-13.53 1.692-1.29 4.919-3.92 7.171-5.84 3.928-3.36 4.482-3.52 13.697-4l9.603-.5.17-7.5c.35-15.45 2.373-43.61 3.334-46.4.548-1.6.998-10.82 1-20.5.002-9.68.299-23.38.66-30.45.57-11.18.956-13.29 2.995-16.29l2.341-3.45v-58.92c0-50.01.225-59.42 1.487-62.21 1.029-2.27 1.773-9.45 2.413-23.28.51-11 1.454-22.7 2.099-26 .692-3.54 1.273-18.1 1.419-35.5.135-16.24.738-31.97 1.341-35 .642-3.23 1.125-18.46 1.168-36.82.04-17.22.461-32.07.936-33 .475-.92 1.13-6.27 1.455-11.87l.59-10.18-17.204-.57c-9.462-.31-33.629-.91-53.704-1.32-25.523-.52-37.135-1.11-38.613-1.95-1.162-.67-3.527-2.82-5.247-4.79l-3.14-3.57v-17c0-20.29.92-23.85 6.2-24.06 1.815-.08 5.325-.23 7.8-.34s10.379-1.19 17.565-2.4c11.448-1.94 15.779-2.16 35-1.8 26.384.48 46.943 2.19 50.589 4.2 1.46.81 4.042 1.47 5.738 1.47h3.083l-.113-29.52c-.062-16.24-.394-29.69-.737-29.89-.344-.21-6.25-.7-13.125-1.09-6.875-.4-16.775-1.16-22-1.71-5.225-.54-19.4-1.12-31.5-1.29-12.1-.18-23.264-.7-24.81-1.18-3.508-1.08-7.607-9.98-8.61-18.69-.775-6.72-2.867-9.06-7.262-8.09-2.061.45-3.156.06-4.519-1.62-1.671-2.06-3.404-3.82-7.379-7.47-.88-.8-3.15-1.45-5.06-1.45-1.96 0-6.59-1.54-10.58-3.5-3.91-1.93-7.81-3.5-8.66-3.5s-3.13-1.58-5.05-3.5c-1.93-1.93-4.33-3.5-5.34-3.5-1.21 0-2.49-1.47-3.71-4.25-1.03-2.34-3.93-6.15-6.44-8.47-4.17-3.84-4.58-4.64-4.58-8.83 0-3.89.48-5.05 3.08-7.37l3.08-2.75 21.42.34c11.78.19 25.695.79 30.92 1.33 5.225.55 14.225 1.43 20 1.95s11.625 1.22 13 1.55 7.225 1.01 13 1.51 12.75 1.35 15.5 1.89 8.233 1.01 12.185 1.04 8.287.48 9.634.99c1.347.51 10.714 1.21 20.815 1.55s22.174 1.33 26.83 2.19c6.104 1.13 11.04 1.38 17.708.89 6.625-.48 9.895-.32 11.537.57 5.255 2.86 18.968 4.03 57.791 4.94 26.11.62 40.35 1.32 42 2.1 4.21 1.96 19.59 2.83 67 3.77 60.39 1.2 185.47 1.13 195-.12 4.12-.54 31.35-1.33 60.5-1.77s54.12-1.12 55.5-1.52 7.53-1.09 13.67-1.52c6.15-.43 13.35-1.27 16-1.86 9.55-2.12 21.21-3.24 43.33-4.15 12.38-.5 25.2-1.37 28.5-1.93 3.3-.55 8.02-1.27 10.5-1.59 5.14-.67 9.08-1.48 24.45-5.02 11.28-2.6 25.52-5.13 36.05-6.4 3.3-.4 7.35-1.31 9-2.02 2.16-.92 10.37-1.32 29.25-1.41l26.25-.13v17.3l-6.05 5.24c-3.33 2.89-6.93 6.95-7.99 9.03s-2.79 4.06-3.85 4.39c-1.06.34-3.88 2.17-6.27 4.07l-4.34 3.45-12 .03c-9.77.03-12.81.4-16.36 2.01-2.4 1.09-5.54 1.98-6.99 1.98s-4.5.77-6.79 1.72c-4.57 1.89-4.79 2.47-6.24 16.28-.68 6.53-2.37 11-4.14 11-.53 0-3.44 2.25-6.48 5s-6.21 5-7.05 5c-1.97 0-9.37 3.71-11.95 5.99-1.74 1.55-4.93 1.84-25 2.34-12.65.32-24.8 1.03-27 1.6-2.2.56-14.58 1.03-27.5 1.04l-23.5.03.29 18.54c.18 11.47-.15 20.72-.88 24.25-.64 3.14-1.37 7.28-1.62 9.21l-.45 3.5 64.33.36c59.21.33 64.66.5 68.49 2.15 5.19 2.24 6.33 4.32 8.22 14.99 2.3 12.98 2.08 21.71-.66 26.14-3.09 5.01-8.69 9.04-14.15 10.2-2.51.53-21.22 1.14-41.57 1.35-30.44.32-37.71.13-41-1.06-2.2-.79-7.6-1.7-12-2.01s-10.81-.86-14.25-1.23l-6.25-.68v26.2c0 20.24.31 26.8 1.37 28.89 1.09 2.14 1.49 12.96 1.89 52.2.38 37.37.82 50.23 1.8 52.5.91 2.1 1.41 10.48 1.67 28 .28 18.67.74 25.95 1.82 28.77 1.24 3.21 1.45 21.63 1.45 125.37v121.6l13.4-.72c12.26-.66 13.56-.56 15.26 1.13 1.03 1.02 2.98 2.75 4.35 3.85s3.73 3.66 5.24 5.68c2.7 3.62 2.75 3.95 2.75 17.94 0 12.51-.26 14.79-2.14 18.66-3.44 7.12-6.47 8.39-18.36 7.71-5.5-.31-29.58-.89-53.5-1.28-38.86-.64-43.85-.9-46.73-2.48-5.9-3.22-6.27-5.06-6.27-31.18v-23.55h7.55c6.71 0 7.82-.28 10.04-2.5 1.38-1.38 3.44-2.5 4.58-2.5 2.06 0 2.08-.27 1.64-19.25-.32-13.72-.85-19.97-1.82-21.75-.76-1.38-1.74-7-2.19-12.5-3.2-39.65-4-54.35-4.75-87.5-.46-20.63-1.33-39.53-1.92-42-1.68-7.01-1.45-37.31.32-41.53.8-1.91 1.43-6.49 1.4-10.22-.67-113.54-1.06-134.64-2.53-136.89-1.08-1.65-1.36-3.71-.95-7.09.32-2.63.54-5.22.49-5.77-.04-.55-.28-15.52-.52-33.26l-.44-32.25-2.4.6c-1.32.33-3.88.11-5.7-.49-9.21-3.02-69.79-4.06-169.8-2.91-14.58.17-30.55-.01-35.5-.41-4.95-.39-16.6-.98-25.88-1.32-9.29-.34-17.89-.99-19.12-1.46s-42.69-.96-92.12-1.09L77 388.83l-.597 64.43c-.38 41.13-.983 65.69-1.665 67.91-.62 2.02-1.342 19.34-1.72 41.34-.36 20.83-1.074 38.97-1.586 40.32-.513 1.35-.932 6.61-.932 11.69 0 6.58-.423 9.81-1.468 11.19-1.229 1.62-1.489 8.46-1.595 41.94-.07 22-.529 45.62-1.02 52.5a3220.22 3220.22 0 0 0-1.807 27.5c-.502 8.25-1.392 17.25-1.978 20-.612 2.87-1.185 21.05-1.348 42.75L61 848.15h2.5c4.19.01 10.375 2.07 12.725 4.24 4.515 4.17 5.46 9.09 4.964 25.84-.662 22.39-1.926 27-8.52 31.11-3.289 2.05-4.058 2.07-59.2 1.69l-55.869-.38-1.029-2.25zm316.7-563.75c.97-3.45 1.57-13.37 1.94-31.91l.54-26.91-65.37.64c-43.4.42-69.42.28-77.38-.43-6.6-.59-21.53-1.28-33.179-1.55l-21.179-.48-.462 27.82c-.255 15.3-.771 29.17-1.148 30.82l-.686 3 24.324.04c13.38.02 29.05.57 34.83 1.22 5.99.67 26.62 1.21 48 1.26 20.62.05 39.3.47 41.5.93s13.65.77 25.44.69l21.43-.14 1.4-5zm199.53 1.43c2.64-.51 14.2-.93 25.69-.93 15.12 0 21.1-.33 21.63-1.2.41-.65.94-7.09 1.18-14.31.36-10.64.15-13.69-1.13-16.17-1.75-3.37-2.69-21.26-1.31-24.89l.78-2.08-70.32.38c-38.68.21-72.48.8-75.12 1.32s-15.78.95-29.2.95h-24.4l1.93 4.25c1.73 3.81 1.93 6.7 1.95 27.86l.02 23.61 11.25.7c6.19.38 14.63 1.04 18.75 1.46 10.19 1.03 112.3.21 118.3-.95z" transform="matrix(.0897 0 0 .07642 14.282 13.018)"/><path d="M-48.75 902.26c-.566-1.24-1.455-2.25-1.976-2.25-.528 0-1.18-6.31-1.472-14.25-.289-7.84-.811-16.56-1.162-19.38-.751-6.04.851-9.93 5.568-13.53 1.692-1.29 4.919-3.92 7.17-5.84 3.929-3.36 4.483-3.52 13.698-4l9.603-.5.17-7.5c.35-15.45 2.373-43.61 3.333-46.4.548-1.6.998-10.82 1.001-20.5.002-9.68.298-23.38.659-30.45.57-11.19.957-13.29 2.996-16.29l2.34-3.45V659c0-50.01.226-59.42 1.488-62.21 1.028-2.27 1.772-9.45 2.413-23.28.51-11 1.454-22.7 2.099-26 .691-3.54 1.273-18.1 1.418-35.5.136-16.24.739-31.98 1.342-35 .641-3.23 1.125-18.46 1.168-36.82.04-17.22.461-32.07.936-33 .475-.93 1.13-6.27 1.454-11.87l.591-10.18-17.204-.57c-9.463-.32-33.629-.91-53.704-1.32-25.523-.52-37.139-1.11-38.609-1.96-1.17-.66-3.53-2.82-5.25-4.78l-3.14-3.57v-17c0-20.29.92-23.86 6.2-24.07 1.81-.07 5.32-.22 7.799-.33 2.475-.11 10.379-1.19 17.564-2.4 11.449-1.94 15.78-2.16 35-1.81 26.385.49 46.944 2.2 50.59 4.21 1.46.81 4.041 1.47 5.737 1.47h3.083l-.112-29.52c-.062-16.24-.394-29.69-.738-29.89-.343-.21-6.25-.7-13.124-1.09-6.875-.4-16.775-1.17-22-1.71s-19.4-1.12-31.5-1.3c-12.1-.17-23.265-.7-24.81-1.17-3.508-1.08-7.608-9.98-8.611-18.69-.774-6.73-2.867-9.06-7.261-8.09-2.061.45-3.156.06-4.519-1.63-1.668-2.06-3.408-3.81-7.388-7.46-.87-.8-3.14-1.45-5.06-1.45-1.95 0-6.58-1.54-10.58-3.5-3.9-1.93-7.8-3.5-8.65-3.5-.86 0-3.13-1.58-5.05-3.5-1.93-1.93-4.33-3.5-5.35-3.5-1.2 0-2.48-1.47-3.7-4.25-1.03-2.34-3.93-6.15-6.44-8.47-4.17-3.84-4.58-4.64-4.58-8.84 0-3.89.48-5.04 3.08-7.36l3.08-2.76 21.42.35c11.78.18 25.69.79 30.919 1.33 5.225.55 14.225 1.42 20 1.95 5.775.52 11.625 1.22 13 1.55s7.225 1.01 13 1.51 12.75 1.35 15.5 1.89 8.233 1 12.184 1.04c3.952.03 8.288.47 9.635.99 1.347.51 10.714 1.21 20.815 1.55s22.174 1.32 26.829 2.19c6.104 1.13 11.039 1.38 17.708.89 6.626-.49 9.895-.33 11.537.57 5.256 2.86 18.969 4.03 57.793 4.94 26.11.61 40.35 1.32 42 2.09 4.21 1.97 19.58 2.83 67 3.78 60.39 1.2 185.47 1.13 195-.12 4.12-.54 31.35-1.34 60.5-1.77 29.15-.44 54.12-1.13 55.5-1.53 1.37-.4 7.53-1.08 13.67-1.51 6.15-.44 13.35-1.27 16-1.86 9.55-2.13 21.21-3.24 43.33-4.15 12.37-.51 25.2-1.38 28.5-1.93 3.3-.56 8.02-1.27 10.5-1.59 5.14-.67 9.08-1.48 24.45-5.02 11.28-2.6 25.52-5.13 36.05-6.41 3.3-.4 7.35-1.3 9-2.01 2.16-.92 10.37-1.32 29.25-1.41l26.25-.13v17.3l-6.06 5.24c-3.33 2.89-6.92 6.95-7.98 9.03s-2.79 4.06-3.85 4.39c-1.06.34-3.88 2.17-6.27 4.06l-4.34 3.46-12 .03c-9.77.02-12.81.4-16.36 2.01-2.4 1.09-5.54 1.98-6.99 1.98s-4.5.77-6.79 1.72c-4.57 1.89-4.79 2.47-6.24 16.28-.69 6.53-2.37 11-4.15 11-.52 0-3.43 2.25-6.47 5s-6.21 5-7.05 5c-1.97 0-9.37 3.71-11.95 5.99-1.75 1.54-4.93 1.84-25 2.34-12.65.31-24.8 1.03-27 1.59-2.2.57-14.58 1.04-27.5 1.05l-23.5.02.29 18.55c.18 11.47-.15 20.72-.88 24.25-.65 3.14-1.38 7.28-1.62 9.21l-.45 3.5 64.33.36c59.21.33 64.66.5 68.49 2.15 5.19 2.24 6.33 4.32 8.22 14.99 2.3 12.98 2.08 21.71-.66 26.14-3.1 5.01-8.69 9.04-14.15 10.2-2.51.53-21.22 1.14-41.57 1.35-30.44.31-37.71.13-41-1.06-2.2-.79-7.6-1.7-12-2.01s-10.81-.87-14.25-1.24l-6.25-.67v26.19c0 20.25.31 26.81 1.37 28.9 1.09 2.14 1.48 12.96 1.89 52.2.38 37.36.82 50.23 1.8 52.5.91 2.1 1.41 10.48 1.67 28 .28 18.67.74 25.95 1.82 28.77 1.24 3.21 1.45 21.63 1.45 125.37v121.6l13.4-.72c12.26-.66 13.56-.56 15.26 1.13 1.02 1.01 2.98 2.75 4.35 3.85s3.73 3.65 5.24 5.68c2.7 3.61 2.75 3.95 2.75 17.93 0 12.51-.26 14.79-2.14 18.67-3.44 7.12-6.47 8.39-18.36 7.71-5.5-.31-29.58-.89-53.5-1.28-38.86-.64-43.85-.9-46.73-2.48-5.9-3.22-6.27-5.06-6.27-31.18v-23.55h7.54c6.72 0 7.82-.28 10.05-2.5 1.37-1.38 3.44-2.5 4.58-2.5 2.06 0 2.08-.27 1.64-19.25-.32-13.72-.85-19.97-1.83-21.75-.75-1.38-1.73-7-2.18-12.5-3.2-39.65-4-54.36-4.75-87.5-.47-20.63-1.33-39.53-1.92-42-1.68-7.01-1.45-37.31.32-41.53.79-1.91 1.42-6.49 1.4-10.22-.67-113.54-1.06-134.64-2.53-136.89-1.08-1.65-1.36-3.71-.95-7.09.31-2.63.54-5.22.49-5.77s-.28-15.52-.52-33.26l-.45-32.26-2.39.6c-1.32.34-3.88.12-5.7-.48-9.21-3.03-69.79-4.06-169.8-2.91-14.58.17-30.55-.02-35.5-.41s-16.6-.99-25.88-1.32c-9.29-.34-17.89-1-19.12-1.46-1.24-.47-42.69-.96-92.12-1.09l-89.881-.24-.597 64.44c-.382 41.13-.984 65.69-1.666 67.91-.62 2.02-1.341 19.33-1.721 41.34-.359 20.83-1.072 38.97-1.585 40.32-.512 1.34-.931 6.61-.931 11.69 0 6.58-.424 9.8-1.469 11.18-1.229 1.63-1.488 8.46-1.594 41.95-.07 22-.529 45.62-1.02 52.5-.492 6.87-1.305 19.25-1.807 27.5-.503 8.25-1.393 17.25-1.978 20-.612 2.87-1.185 21.04-1.348 42.75l-.284 37.75h2.5c4.189.01 10.374 2.07 12.724 4.24 4.516 4.17 5.461 9.09 4.965 25.84-.663 22.38-1.926 27-8.521 31.1-3.289 2.05-4.058 2.08-59.2 1.7l-55.868-.38-1.029-2.25zm316.7-563.75c.97-3.45 1.57-13.38 1.94-31.91l.54-26.91-65.37.64c-43.4.42-69.42.28-77.38-.43-6.6-.59-21.53-1.29-33.18-1.55l-21.179-.48-.463 27.82c-.254 15.3-.771 29.17-1.148 30.82l-.685 3 24.327.04c13.378.02 29.048.57 34.828 1.22 5.99.66 26.62 1.21 48 1.26 20.62.05 39.3.47 41.5.93s13.64.77 25.43.69l21.44-.14 1.4-5zm199.53 1.43c2.64-.52 14.2-.93 25.69-.93 15.12 0 21.09-.33 21.63-1.2.4-.66.94-7.1 1.18-14.31.36-10.64.15-13.69-1.14-16.17-1.74-3.37-2.68-21.26-1.3-24.9l.78-2.07-70.32.38c-38.68.21-72.48.8-75.12 1.32s-15.78.95-29.2.95h-24.4l1.93 4.25c1.72 3.8 1.93 6.7 1.95 27.86l.02 23.61 11.25.7c6.19.38 14.62 1.04 18.75 1.45 10.19 1.04 112.29.22 118.3-.94z" transform="matrix(.0897 0 0 .07642 14.282 13.018)"/><path d="M-54.464 896.54c-.566-1.24-1.455-2.25-1.976-2.25-.529 0-1.18-6.31-1.472-14.25-.289-7.84-.812-16.56-1.163-19.38-.75-6.03.852-9.93 5.568-13.52 1.692-1.29 4.919-3.92 7.171-5.85 3.929-3.36 4.483-3.52 13.697-4l9.603-.5.17-7.5c.351-15.45 2.374-43.6 3.334-46.4.548-1.59.998-10.82 1-20.5.003-9.68.299-23.38.659-30.44.571-11.19.958-13.29 2.996-16.3l2.341-3.45v-58.92c0-50.01.225-59.42 1.487-62.2 1.029-2.28 1.773-9.45 2.414-23.29.51-11 1.454-22.7 2.098-26 .692-3.54 1.274-18.1 1.419-35.5.136-16.24.738-31.97 1.341-35 .642-3.22 1.126-18.46 1.168-36.81.04-17.23.462-32.08.937-33 .475-.93 1.129-6.27 1.454-11.87l.59-10.19-17.204-.57c-9.462-.31-33.63-.9-53.704-1.31-25.522-.52-37.134-1.11-38.614-1.96-1.16-.67-3.52-2.82-5.25-4.79l-3.14-3.57v-17c0-20.28.92-23.85 6.2-24.06 1.82-.07 5.33-.22 7.8-.33 2.48-.11 10.383-1.19 17.569-2.41 11.448-1.93 15.779-2.15 35-1.8 26.385.48 46.944 2.19 50.59 4.21 1.46.8 4.04 1.46 5.737 1.46h3.083l-.113-29.52c-.062-16.23-.394-29.68-.737-29.89-.344-.2-6.25-.69-13.125-1.09-6.875-.39-16.775-1.16-22-1.7s-19.4-1.13-31.5-1.3-23.264-.7-24.81-1.18c-3.507-1.08-7.607-9.97-8.61-18.68-.775-6.73-2.867-9.06-7.261-8.1-2.063.45-3.153.06-4.523-1.62-1.67-2.06-3.4-3.81-7.38-7.46-.87-.8-3.15-1.46-5.06-1.46-1.95 0-6.59-1.53-10.58-3.5-3.91-1.92-7.8-3.5-8.66-3.5-.85 0-3.12-1.57-5.05-3.5-1.92-1.92-4.33-3.5-5.34-3.5-1.21 0-2.48-1.46-3.71-4.25-1.02-2.34-3.92-6.15-6.44-8.47-4.16-3.84-4.58-4.63-4.58-8.83 0-3.89.49-5.04 3.09-7.37l3.08-2.75 21.42.34c11.78.19 25.69.79 30.91 1.34 5.229.54 14.229 1.42 20.004 1.94 5.775.53 11.625 1.22 13 1.56 1.375.33 7.225 1 13 1.5s12.75 1.35 15.5 1.89 8.234 1.01 12.185 1.04c3.952.03 8.287.48 9.634.99s10.714 1.21 20.815 1.55c10.102.34 22.175 1.33 26.829 2.19 6.105 1.14 11.04 1.39 17.709.9 6.625-.49 9.895-.33 11.537.56 5.256 2.86 18.969 4.04 57.787 4.95 26.12.61 40.35 1.32 42 2.09 4.22 1.96 19.59 2.83 67 3.77 60.4 1.21 185.47 1.13 195-.11 4.13-.54 31.35-1.34 60.5-1.78s54.13-1.12 55.5-1.52c1.38-.4 7.53-1.08 13.68-1.52 6.14-.43 13.34-1.27 16-1.86 9.55-2.12 21.2-3.24 43.32-4.14 12.38-.51 25.2-1.38 28.5-1.93 3.3-.56 8.03-1.28 10.5-1.6 5.14-.67 9.08-1.47 24.45-5.01 11.28-2.6 25.53-5.13 36.05-6.41 3.3-.4 7.35-1.31 9-2.01 2.16-.92 10.38-1.32 29.25-1.42l26.25-.13v17.3l-6.05 5.25c-3.33 2.88-6.92 6.94-7.98 9.02s-2.8 4.06-3.86 4.4c-1.05.33-3.87 2.16-6.26 4.06l-4.35 3.45-12 .03c-9.77.03-12.8.4-16.35 2.01-2.4 1.09-5.55 1.98-6.99 1.98-1.45 0-4.51.78-6.79 1.72-4.58 1.89-4.8 2.47-6.25 16.28-.68 6.53-2.36 11-4.14 11-.53 0-3.44 2.25-6.48 5-3.03 2.75-6.21 5-7.05 5-1.97 0-9.36 3.71-11.95 6-1.74 1.54-4.93 1.84-25 2.34-12.65.31-24.8 1.03-27 1.59s-14.57 1.03-27.5 1.05l-23.5.02.3 18.54c.18 11.48-.16 20.72-.88 24.25-.65 3.14-1.38 7.29-1.63 9.21l-.45 3.5 64.33.36c59.21.33 64.67.5 68.5 2.16 5.18 2.23 6.32 4.31 8.21 14.98 2.31 12.98 2.09 21.71-.65 26.14-3.1 5.01-8.69 9.04-14.15 10.2-2.52.54-21.23 1.15-41.58 1.36-30.43.31-37.71.12-41-1.07-2.2-.79-7.6-1.69-12-2s-10.81-.87-14.25-1.24l-6.25-.67v26.19c0 20.25.32 26.8 1.38 28.89 1.09 2.14 1.48 12.96 1.88 52.2.39 37.37.83 50.24 1.81 52.5.9 2.1 1.4 10.49 1.66 28 .28 18.68.74 25.96 1.83 28.77 1.23 3.22 1.44 21.63 1.44 125.37v121.6l13.41-.72c12.25-.65 13.56-.56 15.26 1.13 1.02 1.02 2.98 2.75 4.34 3.85 1.37 1.1 3.73 3.66 5.24 5.68 2.7 3.62 2.75 3.95 2.75 17.94 0 12.51-.26 14.79-2.13 18.66-3.45 7.12-6.47 8.39-18.37 7.72-5.5-.32-29.57-.89-53.5-1.29-38.85-.63-43.84-.9-46.73-2.48-5.9-3.22-6.27-5.05-6.27-31.18v-23.55h7.55c6.71 0 7.82-.27 10.05-2.5 1.37-1.37 3.43-2.5 4.58-2.5 2.05 0 2.08-.26 1.63-19.25-.32-13.72-.84-19.97-1.82-21.75-.76-1.37-1.74-7-2.18-12.5-3.21-39.64-4-54.35-4.75-87.5-.47-20.62-1.34-39.52-1.93-42-1.68-7-1.44-37.3.32-41.53.8-1.91 1.43-6.49 1.41-10.21-.67-113.55-1.06-134.64-2.54-136.89-1.08-1.66-1.35-3.71-.95-7.1.32-2.62.54-5.22.5-5.77-.05-.55-.29-15.51-.53-33.25l-.44-32.26-2.39.6c-1.32.33-3.89.11-5.7-.48-9.22-3.03-69.79-4.07-169.81-2.91-14.57.16-30.55-.02-35.5-.41s-16.59-.99-25.88-1.33c-9.28-.33-17.89-.99-19.12-1.46s-42.68-.96-92.12-1.09l-89.876-.23-.597 64.43c-.381 41.13-.983 65.69-1.665 67.91-.621 2.02-1.342 19.34-1.721 41.35-.36 20.82-1.073 38.96-1.585 40.31s-.932 6.61-.932 11.7c0 6.58-.423 9.8-1.468 11.18-1.23 1.63-1.49 8.46-1.595 41.94-.07 22-.528 45.63-1.02 52.5a3208.31 3208.31 0 0 0-1.806 27.5c-.503 8.25-1.393 17.25-1.978 20-.612 2.88-1.186 21.05-1.35 42.75l-.283 37.75 2.5.01c4.189.01 10.375 2.07 12.725 4.24 4.516 4.17 5.46 9.09 4.965 25.84-.663 22.38-1.927 26.99-8.522 31.1-3.288 2.05-4.057 2.07-59.2 1.69l-55.868-.38-1.028-2.25zm316.7-563.75c.96-3.44 1.57-13.37 1.94-31.91l.54-26.91-65.38.64c-43.39.43-69.41.28-77.38-.43-6.6-.58-21.53-1.28-33.175-1.55l-21.178-.48-.463 27.82c-.254 15.3-.771 29.17-1.148 30.82l-.686 3 24.327.04c13.383.03 29.053.58 34.823 1.22 5.99.67 26.62 1.21 48 1.27 20.63.05 39.3.46 41.5.92s13.65.78 25.44.7l21.43-.15 1.41-5zm199.52 1.43c2.64-.51 14.2-.93 25.69-.93 15.12 0 21.1-.33 21.63-1.19.41-.66.94-7.1 1.19-14.31.36-10.64.14-13.7-1.14-16.18-1.74-3.36-2.68-21.26-1.31-24.89l.78-2.07-70.32.37c-38.67.21-72.48.81-75.11 1.33-2.64.52-15.79.94-29.21.94h-24.4l1.93 4.25c1.73 3.81 1.93 6.7 1.95 27.86l.02 23.61 11.25.7c6.19.39 14.63 1.04 18.75 1.46 10.19 1.03 112.3.21 118.3-.95z" transform="matrix(.0897 0 0 .07642 14.282 13.018)"/></g><g fill="#739071"><path d="M-43.429 908.4c-.565-1.24-1.455-2.25-1.976-2.25-.528 0-1.18-6.31-1.472-14.25-.288-7.84-.811-16.56-1.162-19.38-.751-6.04.852-9.93 5.568-13.53 1.692-1.29 4.919-3.92 7.171-5.84 3.928-3.36 4.482-3.52 13.697-4l9.603-.5.17-7.5c.35-15.45 2.373-43.61 3.334-46.4.548-1.6.998-10.82 1-20.5.002-9.68.299-23.38.66-30.45.57-11.18.956-13.29 2.995-16.29l2.341-3.45v-58.92c0-50.01.225-59.42 1.487-62.21 1.029-2.27 1.773-9.45 2.413-23.28.51-11 1.454-22.7 2.099-26 .692-3.54 1.273-18.1 1.419-35.5.135-16.24.738-31.97 1.341-35 .642-3.23 1.125-18.46 1.168-36.82.04-17.22.461-32.07.936-33 .475-.92 1.13-6.27 1.455-11.87l.59-10.18-17.204-.57c-9.462-.31-33.629-.91-53.704-1.32-25.523-.52-37.135-1.11-38.613-1.95-1.162-.67-3.527-2.82-5.247-4.79l-3.14-3.57v-17c0-20.29.92-23.85 6.2-24.06 1.815-.08 5.325-.23 7.8-.34s10.379-1.19 17.565-2.4c11.448-1.94 15.779-2.16 35-1.8 26.384.48 46.943 2.19 50.589 4.2 1.46.81 4.042 1.47 5.738 1.47h3.083l-.113-29.52c-.062-16.24-.394-29.69-.737-29.89-.344-.21-6.25-.7-13.125-1.09-6.875-.4-16.775-1.16-22-1.71-5.225-.54-19.4-1.12-31.5-1.29-12.1-.18-23.264-.7-24.81-1.18-3.508-1.08-7.607-9.98-8.61-18.69-.775-6.72-2.867-9.06-7.262-8.09-2.061.45-3.156.06-4.519-1.62-1.671-2.06-3.404-3.82-7.379-7.47-.88-.8-3.15-1.45-5.06-1.45-1.96 0-6.59-1.54-10.58-3.5-3.91-1.93-7.81-3.5-8.66-3.5s-3.13-1.58-5.05-3.5c-1.93-1.93-4.33-3.5-5.34-3.5-1.21 0-2.49-1.47-3.71-4.25-1.03-2.34-3.93-6.15-6.44-8.47-4.17-3.84-4.58-4.64-4.58-8.83 0-3.89.48-5.05 3.08-7.37l3.08-2.75 21.42.34c11.78.19 25.695.79 30.92 1.33 5.225.55 14.225 1.43 20 1.95s11.625 1.22 13 1.55 7.225 1.01 13 1.51 12.75 1.35 15.5 1.89 8.233 1.01 12.185 1.04 8.287.48 9.634.99c1.347.51 10.714 1.21 20.815 1.55s22.174 1.33 26.83 2.19c6.104 1.13 11.04 1.38 17.708.89 6.625-.48 9.895-.32 11.537.57 5.255 2.86 18.968 4.03 57.791 4.94 26.11.62 40.35 1.32 42 2.1 4.21 1.96 19.59 2.83 67 3.77 60.39 1.2 185.47 1.13 195-.12 4.12-.54 31.35-1.33 60.5-1.77s54.12-1.12 55.5-1.52 7.53-1.09 13.67-1.52c6.15-.43 13.35-1.27 16-1.86 9.55-2.12 21.21-3.24 43.33-4.15 12.38-.5 25.2-1.37 28.5-1.93 3.3-.55 8.02-1.27 10.5-1.59 5.14-.67 9.08-1.48 24.45-5.02 11.28-2.6 25.52-5.13 36.05-6.4 3.3-.4 7.35-1.31 9-2.02 2.16-.92 10.37-1.32 29.25-1.41l26.25-.13v17.3l-6.05 5.24c-3.33 2.89-6.93 6.95-7.99 9.03s-2.79 4.06-3.85 4.39c-1.06.34-3.88 2.17-6.27 4.07l-4.34 3.45-12 .03c-9.77.03-12.81.4-16.36 2.01-2.4 1.09-5.54 1.98-6.99 1.98s-4.5.77-6.79 1.72c-4.57 1.89-4.79 2.47-6.24 16.28-.68 6.53-2.37 11-4.14 11-.53 0-3.44 2.25-6.48 5s-6.21 5-7.05 5c-1.97 0-9.37 3.71-11.95 5.99-1.74 1.55-4.93 1.84-25 2.34-12.65.32-24.8 1.03-27 1.6-2.2.56-14.58 1.03-27.5 1.04l-23.5.03.29 18.54c.18 11.47-.15 20.72-.88 24.25-.64 3.14-1.37 7.28-1.62 9.21l-.45 3.5 64.33.36c59.21.33 64.66.5 68.49 2.15 5.19 2.24 6.33 4.32 8.22 14.99 2.3 12.98 2.08 21.71-.66 26.14-3.09 5.01-8.69 9.04-14.15 10.2-2.51.53-21.22 1.14-41.57 1.35-30.44.32-37.71.13-41-1.06-2.2-.79-7.6-1.7-12-2.01s-10.81-.86-14.25-1.23l-6.25-.68v26.2c0 20.24.31 26.8 1.37 28.89 1.09 2.14 1.49 12.96 1.89 52.2.38 37.37.82 50.23 1.8 52.5.91 2.1 1.41 10.48 1.67 28 .28 18.67.74 25.95 1.82 28.77 1.24 3.21 1.45 21.63 1.45 125.37v121.6l13.4-.72c12.26-.66 13.56-.56 15.26 1.13 1.03 1.02 2.98 2.75 4.35 3.85s3.73 3.66 5.24 5.68c2.7 3.62 2.75 3.95 2.75 17.94 0 12.51-.26 14.79-2.14 18.66-3.44 7.12-6.47 8.39-18.36 7.71-5.5-.31-29.58-.89-53.5-1.28-38.86-.64-43.85-.9-46.73-2.48-5.9-3.22-6.27-5.06-6.27-31.18v-23.55h7.55c6.71 0 7.82-.28 10.04-2.5 1.38-1.38 3.44-2.5 4.58-2.5 2.06 0 2.08-.27 1.64-19.25-.32-13.72-.85-19.97-1.82-21.75-.76-1.38-1.74-7-2.19-12.5-3.2-39.65-4-54.35-4.75-87.5-.46-20.63-1.33-39.53-1.92-42-1.68-7.01-1.45-37.31.32-41.53.8-1.91 1.43-6.49 1.4-10.22-.67-113.54-1.06-134.64-2.53-136.89-1.08-1.65-1.36-3.71-.95-7.09.32-2.63.54-5.22.49-5.77-.04-.55-.28-15.52-.52-33.26l-.44-32.25-2.4.6c-1.32.33-3.88.11-5.7-.49-9.21-3.02-69.79-4.06-169.8-2.91-14.58.17-30.55-.01-35.5-.41-4.95-.39-16.6-.98-25.88-1.32-9.29-.34-17.89-.99-19.12-1.46s-42.69-.96-92.12-1.09L77 388.83l-.597 64.43c-.38 41.13-.983 65.69-1.665 67.91-.62 2.02-1.342 19.34-1.72 41.34-.36 20.83-1.074 38.97-1.586 40.32-.513 1.35-.932 6.61-.932 11.69 0 6.58-.423 9.81-1.468 11.19-1.229 1.62-1.489 8.46-1.595 41.94-.07 22-.529 45.62-1.02 52.5a3220.22 3220.22 0 0 0-1.807 27.5c-.502 8.25-1.392 17.25-1.978 20-.612 2.87-1.185 21.05-1.348 42.75L61 848.15h2.5c4.19.01 10.375 2.07 12.725 4.24 4.515 4.17 5.46 9.09 4.964 25.84-.662 22.39-1.926 27-8.52 31.11-3.289 2.05-4.058 2.07-59.2 1.69l-55.869-.38-1.029-2.25zm316.7-563.75c.97-3.45 1.57-13.37 1.94-31.91l.54-26.91-65.37.64c-43.4.42-69.42.28-77.38-.43-6.6-.59-21.53-1.28-33.179-1.55l-21.179-.48-.462 27.82c-.255 15.3-.771 29.17-1.148 30.82l-.686 3 24.324.04c13.38.02 29.05.57 34.83 1.22 5.99.67 26.62 1.21 48 1.26 20.62.05 39.3.47 41.5.93s13.65.77 25.44.69l21.43-.14 1.4-5zm199.53 1.43c2.64-.51 14.2-.93 25.69-.93 15.12 0 21.1-.33 21.63-1.2.41-.65.94-7.09 1.18-14.31.36-10.64.15-13.69-1.13-16.17-1.75-3.37-2.69-21.26-1.31-24.89l.78-2.08-70.32.38c-38.68.21-72.48.8-75.12 1.32s-15.78.95-29.2.95h-24.4l1.93 4.25c1.73 3.81 1.93 6.7 1.95 27.86l.02 23.61 11.25.7c6.19.38 14.63 1.04 18.75 1.46 10.19 1.03 112.3.21 118.3-.95z" transform="matrix(.0897 0 0 .07642 -27.59 -15.635)"/><path d="M-48.75 902.26c-.566-1.24-1.455-2.25-1.976-2.25-.528 0-1.18-6.31-1.472-14.25-.289-7.84-.811-16.56-1.162-19.38-.751-6.04.851-9.93 5.568-13.53 1.692-1.29 4.919-3.92 7.17-5.84 3.929-3.36 4.483-3.52 13.698-4l9.603-.5.17-7.5c.35-15.45 2.373-43.61 3.333-46.4.548-1.6.998-10.82 1.001-20.5.002-9.68.298-23.38.659-30.45.57-11.19.957-13.29 2.996-16.29l2.34-3.45V659c0-50.01.226-59.42 1.488-62.21 1.028-2.27 1.772-9.45 2.413-23.28.51-11 1.454-22.7 2.099-26 .691-3.54 1.273-18.1 1.418-35.5.136-16.24.739-31.98 1.342-35 .641-3.23 1.125-18.46 1.168-36.82.04-17.22.461-32.07.936-33 .475-.93 1.13-6.27 1.454-11.87l.591-10.18-17.204-.57c-9.463-.32-33.629-.91-53.704-1.32-25.523-.52-37.139-1.11-38.609-1.96-1.17-.66-3.53-2.82-5.25-4.78l-3.14-3.57v-17c0-20.29.92-23.86 6.2-24.07 1.81-.07 5.32-.22 7.799-.33 2.475-.11 10.379-1.19 17.564-2.4 11.449-1.94 15.78-2.16 35-1.81 26.385.49 46.944 2.2 50.59 4.21 1.46.81 4.041 1.47 5.737 1.47h3.083l-.112-29.52c-.062-16.24-.394-29.69-.738-29.89-.343-.21-6.25-.7-13.124-1.09-6.875-.4-16.775-1.17-22-1.71s-19.4-1.12-31.5-1.3c-12.1-.17-23.265-.7-24.81-1.17-3.508-1.08-7.608-9.98-8.611-18.69-.774-6.73-2.867-9.06-7.261-8.09-2.061.45-3.156.06-4.519-1.63-1.668-2.06-3.408-3.81-7.388-7.46-.87-.8-3.14-1.45-5.06-1.45-1.95 0-6.58-1.54-10.58-3.5-3.9-1.93-7.8-3.5-8.65-3.5-.86 0-3.13-1.58-5.05-3.5-1.93-1.93-4.33-3.5-5.35-3.5-1.2 0-2.48-1.47-3.7-4.25-1.03-2.34-3.93-6.15-6.44-8.47-4.17-3.84-4.58-4.64-4.58-8.84 0-3.89.48-5.04 3.08-7.36l3.08-2.76 21.42.35c11.78.18 25.69.79 30.919 1.33 5.225.55 14.225 1.42 20 1.95 5.775.52 11.625 1.22 13 1.55s7.225 1.01 13 1.51 12.75 1.35 15.5 1.89 8.233 1 12.184 1.04c3.952.03 8.288.47 9.635.99 1.347.51 10.714 1.21 20.815 1.55s22.174 1.32 26.829 2.19c6.104 1.13 11.039 1.38 17.708.89 6.626-.49 9.895-.33 11.537.57 5.256 2.86 18.969 4.03 57.793 4.94 26.11.61 40.35 1.32 42 2.09 4.21 1.97 19.58 2.83 67 3.78 60.39 1.2 185.47 1.13 195-.12 4.12-.54 31.35-1.34 60.5-1.77 29.15-.44 54.12-1.13 55.5-1.53 1.37-.4 7.53-1.08 13.67-1.51 6.15-.44 13.35-1.27 16-1.86 9.55-2.13 21.21-3.24 43.33-4.15 12.37-.51 25.2-1.38 28.5-1.93 3.3-.56 8.02-1.27 10.5-1.59 5.14-.67 9.08-1.48 24.45-5.02 11.28-2.6 25.52-5.13 36.05-6.41 3.3-.4 7.35-1.3 9-2.01 2.16-.92 10.37-1.32 29.25-1.41l26.25-.13v17.3l-6.06 5.24c-3.33 2.89-6.92 6.95-7.98 9.03s-2.79 4.06-3.85 4.39c-1.06.34-3.88 2.17-6.27 4.06l-4.34 3.46-12 .03c-9.77.02-12.81.4-16.36 2.01-2.4 1.09-5.54 1.98-6.99 1.98s-4.5.77-6.79 1.72c-4.57 1.89-4.79 2.47-6.24 16.28-.69 6.53-2.37 11-4.15 11-.52 0-3.43 2.25-6.47 5s-6.21 5-7.05 5c-1.97 0-9.37 3.71-11.95 5.99-1.75 1.54-4.93 1.84-25 2.34-12.65.31-24.8 1.03-27 1.59-2.2.57-14.58 1.04-27.5 1.05l-23.5.02.29 18.55c.18 11.47-.15 20.72-.88 24.25-.65 3.14-1.38 7.28-1.62 9.21l-.45 3.5 64.33.36c59.21.33 64.66.5 68.49 2.15 5.19 2.24 6.33 4.32 8.22 14.99 2.3 12.98 2.08 21.71-.66 26.14-3.1 5.01-8.69 9.04-14.15 10.2-2.51.53-21.22 1.14-41.57 1.35-30.44.31-37.71.13-41-1.06-2.2-.79-7.6-1.7-12-2.01s-10.81-.87-14.25-1.24l-6.25-.67v26.19c0 20.25.31 26.81 1.37 28.9 1.09 2.14 1.48 12.96 1.89 52.2.38 37.36.82 50.23 1.8 52.5.91 2.1 1.41 10.48 1.67 28 .28 18.67.74 25.95 1.82 28.77 1.24 3.21 1.45 21.63 1.45 125.37v121.6l13.4-.72c12.26-.66 13.56-.56 15.26 1.13 1.02 1.01 2.98 2.75 4.35 3.85s3.73 3.65 5.24 5.68c2.7 3.61 2.75 3.95 2.75 17.93 0 12.51-.26 14.79-2.14 18.67-3.44 7.12-6.47 8.39-18.36 7.71-5.5-.31-29.58-.89-53.5-1.28-38.86-.64-43.85-.9-46.73-2.48-5.9-3.22-6.27-5.06-6.27-31.18v-23.55h7.54c6.72 0 7.82-.28 10.05-2.5 1.37-1.38 3.44-2.5 4.58-2.5 2.06 0 2.08-.27 1.64-19.25-.32-13.72-.85-19.97-1.83-21.75-.75-1.38-1.73-7-2.18-12.5-3.2-39.65-4-54.36-4.75-87.5-.47-20.63-1.33-39.53-1.92-42-1.68-7.01-1.45-37.31.32-41.53.79-1.91 1.42-6.49 1.4-10.22-.67-113.54-1.06-134.64-2.53-136.89-1.08-1.65-1.36-3.71-.95-7.09.31-2.63.54-5.22.49-5.77s-.28-15.52-.52-33.26l-.45-32.26-2.39.6c-1.32.34-3.88.12-5.7-.48-9.21-3.03-69.79-4.06-169.8-2.91-14.58.17-30.55-.02-35.5-.41s-16.6-.99-25.88-1.32c-9.29-.34-17.89-1-19.12-1.46-1.24-.47-42.69-.96-92.12-1.09l-89.881-.24-.597 64.44c-.382 41.13-.984 65.69-1.666 67.91-.62 2.02-1.341 19.33-1.721 41.34-.359 20.83-1.072 38.97-1.585 40.32-.512 1.34-.931 6.61-.931 11.69 0 6.58-.424 9.8-1.469 11.18-1.229 1.63-1.488 8.46-1.594 41.95-.07 22-.529 45.62-1.02 52.5-.492 6.87-1.305 19.25-1.807 27.5-.503 8.25-1.393 17.25-1.978 20-.612 2.87-1.185 21.04-1.348 42.75l-.284 37.75h2.5c4.189.01 10.374 2.07 12.724 4.24 4.516 4.17 5.461 9.09 4.965 25.84-.663 22.38-1.926 27-8.521 31.1-3.289 2.05-4.058 2.08-59.2 1.7l-55.868-.38-1.029-2.25zm316.7-563.75c.97-3.45 1.57-13.38 1.94-31.91l.54-26.91-65.37.64c-43.4.42-69.42.28-77.38-.43-6.6-.59-21.53-1.29-33.18-1.55l-21.179-.48-.463 27.82c-.254 15.3-.771 29.17-1.148 30.82l-.685 3 24.327.04c13.378.02 29.048.57 34.828 1.22 5.99.66 26.62 1.21 48 1.26 20.62.05 39.3.47 41.5.93s13.64.77 25.43.69l21.44-.14 1.4-5zm199.53 1.43c2.64-.52 14.2-.93 25.69-.93 15.12 0 21.09-.33 21.63-1.2.4-.66.94-7.1 1.18-14.31.36-10.64.15-13.69-1.14-16.17-1.74-3.37-2.68-21.26-1.3-24.9l.78-2.07-70.32.38c-38.68.21-72.48.8-75.12 1.32s-15.78.95-29.2.95h-24.4l1.93 4.25c1.72 3.8 1.93 6.7 1.95 27.86l.02 23.61 11.25.7c6.19.38 14.62 1.04 18.75 1.45 10.19 1.04 112.29.22 118.3-.94z" transform="matrix(.0897 0 0 .07642 -27.59 -15.635)"/><path d="M-54.464 896.54c-.566-1.24-1.455-2.25-1.976-2.25-.529 0-1.18-6.31-1.472-14.25-.289-7.84-.812-16.56-1.163-19.38-.75-6.03.852-9.93 5.568-13.52 1.692-1.29 4.919-3.92 7.171-5.85 3.929-3.36 4.483-3.52 13.697-4l9.603-.5.17-7.5c.351-15.45 2.374-43.6 3.334-46.4.548-1.59.998-10.82 1-20.5.003-9.68.299-23.38.659-30.44.571-11.19.958-13.29 2.996-16.3l2.341-3.45v-58.92c0-50.01.225-59.42 1.487-62.2 1.029-2.28 1.773-9.45 2.414-23.29.51-11 1.454-22.7 2.098-26 .692-3.54 1.274-18.1 1.419-35.5.136-16.24.738-31.97 1.341-35 .642-3.22 1.126-18.46 1.168-36.81.04-17.23.462-32.08.937-33 .475-.93 1.129-6.27 1.454-11.87l.59-10.19-17.204-.57c-9.462-.31-33.63-.9-53.704-1.31-25.522-.52-37.134-1.11-38.614-1.96-1.16-.67-3.52-2.82-5.25-4.79l-3.14-3.57v-17c0-20.28.92-23.85 6.2-24.06 1.82-.07 5.33-.22 7.8-.33 2.48-.11 10.383-1.19 17.569-2.41 11.448-1.93 15.779-2.15 35-1.8 26.385.48 46.944 2.19 50.59 4.21 1.46.8 4.04 1.46 5.737 1.46h3.083l-.113-29.52c-.062-16.23-.394-29.68-.737-29.89-.344-.2-6.25-.69-13.125-1.09-6.875-.39-16.775-1.16-22-1.7s-19.4-1.13-31.5-1.3-23.264-.7-24.81-1.18c-3.507-1.08-7.607-9.97-8.61-18.68-.775-6.73-2.867-9.06-7.261-8.1-2.063.45-3.153.06-4.523-1.62-1.67-2.06-3.4-3.81-7.38-7.46-.87-.8-3.15-1.46-5.06-1.46-1.95 0-6.59-1.53-10.58-3.5-3.91-1.92-7.8-3.5-8.66-3.5-.85 0-3.12-1.57-5.05-3.5-1.92-1.92-4.33-3.5-5.34-3.5-1.21 0-2.48-1.46-3.71-4.25-1.02-2.34-3.92-6.15-6.44-8.47-4.16-3.84-4.58-4.63-4.58-8.83 0-3.89.49-5.04 3.09-7.37l3.08-2.75 21.42.34c11.78.19 25.69.79 30.91 1.34 5.229.54 14.229 1.42 20.004 1.94 5.775.53 11.625 1.22 13 1.56 1.375.33 7.225 1 13 1.5s12.75 1.35 15.5 1.89 8.234 1.01 12.185 1.04c3.952.03 8.287.48 9.634.99s10.714 1.21 20.815 1.55c10.102.34 22.175 1.33 26.829 2.19 6.105 1.14 11.04 1.39 17.709.9 6.625-.49 9.895-.33 11.537.56 5.256 2.86 18.969 4.04 57.787 4.95 26.12.61 40.35 1.32 42 2.09 4.22 1.96 19.59 2.83 67 3.77 60.4 1.21 185.47 1.13 195-.11 4.13-.54 31.35-1.34 60.5-1.78s54.13-1.12 55.5-1.52c1.38-.4 7.53-1.08 13.68-1.52 6.14-.43 13.34-1.27 16-1.86 9.55-2.12 21.2-3.24 43.32-4.14 12.38-.51 25.2-1.38 28.5-1.93 3.3-.56 8.03-1.28 10.5-1.6 5.14-.67 9.08-1.47 24.45-5.01 11.28-2.6 25.53-5.13 36.05-6.41 3.3-.4 7.35-1.31 9-2.01 2.16-.92 10.38-1.32 29.25-1.42l26.25-.13v17.3l-6.05 5.25c-3.33 2.88-6.92 6.94-7.98 9.02s-2.8 4.06-3.86 4.4c-1.05.33-3.87 2.16-6.26 4.06l-4.35 3.45-12 .03c-9.77.03-12.8.4-16.35 2.01-2.4 1.09-5.55 1.98-6.99 1.98-1.45 0-4.51.78-6.79 1.72-4.58 1.89-4.8 2.47-6.25 16.28-.68 6.53-2.36 11-4.14 11-.53 0-3.44 2.25-6.48 5-3.03 2.75-6.21 5-7.05 5-1.97 0-9.36 3.71-11.95 6-1.74 1.54-4.93 1.84-25 2.34-12.65.31-24.8 1.03-27 1.59s-14.57 1.03-27.5 1.05l-23.5.02.3 18.54c.18 11.48-.16 20.72-.88 24.25-.65 3.14-1.38 7.29-1.63 9.21l-.45 3.5 64.33.36c59.21.33 64.67.5 68.5 2.16 5.18 2.23 6.32 4.31 8.21 14.98 2.31 12.98 2.09 21.71-.65 26.14-3.1 5.01-8.69 9.04-14.15 10.2-2.52.54-21.23 1.15-41.58 1.36-30.43.31-37.71.12-41-1.07-2.2-.79-7.6-1.69-12-2s-10.81-.87-14.25-1.24l-6.25-.67v26.19c0 20.25.32 26.8 1.38 28.89 1.09 2.14 1.48 12.96 1.88 52.2.39 37.37.83 50.24 1.81 52.5.9 2.1 1.4 10.49 1.66 28 .28 18.68.74 25.96 1.83 28.77 1.23 3.22 1.44 21.63 1.44 125.37v121.6l13.41-.72c12.25-.65 13.56-.56 15.26 1.13 1.02 1.02 2.98 2.75 4.34 3.85 1.37 1.1 3.73 3.66 5.24 5.68 2.7 3.62 2.75 3.95 2.75 17.94 0 12.51-.26 14.79-2.13 18.66-3.45 7.12-6.47 8.39-18.37 7.72-5.5-.32-29.57-.89-53.5-1.29-38.85-.63-43.84-.9-46.73-2.48-5.9-3.22-6.27-5.05-6.27-31.18v-23.55h7.55c6.71 0 7.82-.27 10.05-2.5 1.37-1.37 3.43-2.5 4.58-2.5 2.05 0 2.08-.26 1.63-19.25-.32-13.72-.84-19.97-1.82-21.75-.76-1.37-1.74-7-2.18-12.5-3.21-39.64-4-54.35-4.75-87.5-.47-20.62-1.34-39.52-1.93-42-1.68-7-1.44-37.3.32-41.53.8-1.91 1.43-6.49 1.41-10.21-.67-113.55-1.06-134.64-2.54-136.89-1.08-1.66-1.35-3.71-.95-7.1.32-2.62.54-5.22.5-5.77-.05-.55-.29-15.51-.53-33.25l-.44-32.26-2.39.6c-1.32.33-3.89.11-5.7-.48-9.22-3.03-69.79-4.07-169.81-2.91-14.57.16-30.55-.02-35.5-.41s-16.59-.99-25.88-1.33c-9.28-.33-17.89-.99-19.12-1.46s-42.68-.96-92.12-1.09l-89.876-.23-.597 64.43c-.381 41.13-.983 65.69-1.665 67.91-.621 2.02-1.342 19.34-1.721 41.35-.36 20.82-1.073 38.96-1.585 40.31s-.932 6.61-.932 11.7c0 6.58-.423 9.8-1.468 11.18-1.23 1.63-1.49 8.46-1.595 41.94-.07 22-.528 45.63-1.02 52.5a3208.31 3208.31 0 0 0-1.806 27.5c-.503 8.25-1.393 17.25-1.978 20-.612 2.88-1.186 21.05-1.35 42.75l-.283 37.75 2.5.01c4.189.01 10.375 2.07 12.725 4.24 4.516 4.17 5.46 9.09 4.965 25.84-.663 22.38-1.927 26.99-8.522 31.1-3.288 2.05-4.057 2.07-59.2 1.69l-55.868-.38-1.028-2.25zm316.7-563.75c.96-3.44 1.57-13.37 1.94-31.91l.54-26.91-65.38.64c-43.39.43-69.41.28-77.38-.43-6.6-.58-21.53-1.28-33.175-1.55l-21.178-.48-.463 27.82c-.254 15.3-.771 29.17-1.148 30.82l-.686 3 24.327.04c13.383.03 29.053.58 34.823 1.22 5.99.67 26.62 1.21 48 1.27 20.63.05 39.3.46 41.5.92s13.65.78 25.44.7l21.43-.15 1.41-5zm199.52 1.43c2.64-.51 14.2-.93 25.69-.93 15.12 0 21.1-.33 21.63-1.19.41-.66.94-7.1 1.19-14.31.36-10.64.14-13.7-1.14-16.18-1.74-3.36-2.68-21.26-1.31-24.89l.78-2.07-70.32.37c-38.67.21-72.48.81-75.11 1.33-2.64.52-15.79.94-29.21.94h-24.4l1.93 4.25c1.73 3.81 1.93 6.7 1.95 27.86l.02 23.61 11.25.7c6.19.39 14.63 1.04 18.75 1.46 10.19 1.03 112.3.21 118.3-.95z" transform="matrix(.0897 0 0 .07642 -27.59 -15.635)"/></g><g fill="#739071"><path d="M-43.429 908.4c-.565-1.24-1.455-2.25-1.976-2.25-.528 0-1.18-6.31-1.472-14.25-.288-7.84-.811-16.56-1.162-19.38-.751-6.04.852-9.93 5.568-13.53 1.692-1.29 4.919-3.92 7.171-5.84 3.928-3.36 4.482-3.52 13.697-4l9.603-.5.17-7.5c.35-15.45 2.373-43.61 3.334-46.4.548-1.6.998-10.82 1-20.5.002-9.68.299-23.38.66-30.45.57-11.18.956-13.29 2.995-16.29l2.341-3.45v-58.92c0-50.01.225-59.42 1.487-62.21 1.029-2.27 1.773-9.45 2.413-23.28.51-11 1.454-22.7 2.099-26 .692-3.54 1.273-18.1 1.419-35.5.135-16.24.738-31.97 1.341-35 .642-3.23 1.125-18.46 1.168-36.82.04-17.22.461-32.07.936-33 .475-.92 1.13-6.27 1.455-11.87l.59-10.18-17.204-.57c-9.462-.31-33.629-.91-53.704-1.32-25.523-.52-37.135-1.11-38.613-1.95-1.162-.67-3.527-2.82-5.247-4.79l-3.14-3.57v-17c0-20.29.92-23.85 6.2-24.06 1.815-.08 5.325-.23 7.8-.34s10.379-1.19 17.565-2.4c11.448-1.94 15.779-2.16 35-1.8 26.384.48 46.943 2.19 50.589 4.2 1.46.81 4.042 1.47 5.738 1.47h3.083l-.113-29.52c-.062-16.24-.394-29.69-.737-29.89-.344-.21-6.25-.7-13.125-1.09-6.875-.4-16.775-1.16-22-1.71-5.225-.54-19.4-1.12-31.5-1.29-12.1-.18-23.264-.7-24.81-1.18-3.508-1.08-7.607-9.98-8.61-18.69-.775-6.72-2.867-9.06-7.262-8.09-2.061.45-3.156.06-4.519-1.62-1.671-2.06-3.404-3.82-7.379-7.47-.88-.8-3.15-1.45-5.06-1.45-1.96 0-6.59-1.54-10.58-3.5-3.91-1.93-7.81-3.5-8.66-3.5s-3.13-1.58-5.05-3.5c-1.93-1.93-4.33-3.5-5.34-3.5-1.21 0-2.49-1.47-3.71-4.25-1.03-2.34-3.93-6.15-6.44-8.47-4.17-3.84-4.58-4.64-4.58-8.83 0-3.89.48-5.05 3.08-7.37l3.08-2.75 21.42.34c11.78.19 25.695.79 30.92 1.33 5.225.55 14.225 1.43 20 1.95s11.625 1.22 13 1.55 7.225 1.01 13 1.51 12.75 1.35 15.5 1.89 8.233 1.01 12.185 1.04 8.287.48 9.634.99c1.347.51 10.714 1.21 20.815 1.55s22.174 1.33 26.83 2.19c6.104 1.13 11.04 1.38 17.708.89 6.625-.48 9.895-.32 11.537.57 5.255 2.86 18.968 4.03 57.791 4.94 26.11.62 40.35 1.32 42 2.1 4.21 1.96 19.59 2.83 67 3.77 60.39 1.2 185.47 1.13 195-.12 4.12-.54 31.35-1.33 60.5-1.77s54.12-1.12 55.5-1.52 7.53-1.09 13.67-1.52c6.15-.43 13.35-1.27 16-1.86 9.55-2.12 21.21-3.24 43.33-4.15 12.38-.5 25.2-1.37 28.5-1.93 3.3-.55 8.02-1.27 10.5-1.59 5.14-.67 9.08-1.48 24.45-5.02 11.28-2.6 25.52-5.13 36.05-6.4 3.3-.4 7.35-1.31 9-2.02 2.16-.92 10.37-1.32 29.25-1.41l26.25-.13v17.3l-6.05 5.24c-3.33 2.89-6.93 6.95-7.99 9.03s-2.79 4.06-3.85 4.39c-1.06.34-3.88 2.17-6.27 4.07l-4.34 3.45-12 .03c-9.77.03-12.81.4-16.36 2.01-2.4 1.09-5.54 1.98-6.99 1.98s-4.5.77-6.79 1.72c-4.57 1.89-4.79 2.47-6.24 16.28-.68 6.53-2.37 11-4.14 11-.53 0-3.44 2.25-6.48 5s-6.21 5-7.05 5c-1.97 0-9.37 3.71-11.95 5.99-1.74 1.55-4.93 1.84-25 2.34-12.65.32-24.8 1.03-27 1.6-2.2.56-14.58 1.03-27.5 1.04l-23.5.03.29 18.54c.18 11.47-.15 20.72-.88 24.25-.64 3.14-1.37 7.28-1.62 9.21l-.45 3.5 64.33.36c59.21.33 64.66.5 68.49 2.15 5.19 2.24 6.33 4.32 8.22 14.99 2.3 12.98 2.08 21.71-.66 26.14-3.09 5.01-8.69 9.04-14.15 10.2-2.51.53-21.22 1.14-41.57 1.35-30.44.32-37.71.13-41-1.06-2.2-.79-7.6-1.7-12-2.01s-10.81-.86-14.25-1.23l-6.25-.68v26.2c0 20.24.31 26.8 1.37 28.89 1.09 2.14 1.49 12.96 1.89 52.2.38 37.37.82 50.23 1.8 52.5.91 2.1 1.41 10.48 1.67 28 .28 18.67.74 25.95 1.82 28.77 1.24 3.21 1.45 21.63 1.45 125.37v121.6l13.4-.72c12.26-.66 13.56-.56 15.26 1.13 1.03 1.02 2.98 2.75 4.35 3.85s3.73 3.66 5.24 5.68c2.7 3.62 2.75 3.95 2.75 17.94 0 12.51-.26 14.79-2.14 18.66-3.44 7.12-6.47 8.39-18.36 7.71-5.5-.31-29.58-.89-53.5-1.28-38.86-.64-43.85-.9-46.73-2.48-5.9-3.22-6.27-5.06-6.27-31.18v-23.55h7.55c6.71 0 7.82-.28 10.04-2.5 1.38-1.38 3.44-2.5 4.58-2.5 2.06 0 2.08-.27 1.64-19.25-.32-13.72-.85-19.97-1.82-21.75-.76-1.38-1.74-7-2.19-12.5-3.2-39.65-4-54.35-4.75-87.5-.46-20.63-1.33-39.53-1.92-42-1.68-7.01-1.45-37.31.32-41.53.8-1.91 1.43-6.49 1.4-10.22-.67-113.54-1.06-134.64-2.53-136.89-1.08-1.65-1.36-3.71-.95-7.09.32-2.63.54-5.22.49-5.77-.04-.55-.28-15.52-.52-33.26l-.44-32.25-2.4.6c-1.32.33-3.88.11-5.7-.49-9.21-3.02-69.79-4.06-169.8-2.91-14.58.17-30.55-.01-35.5-.41-4.95-.39-16.6-.98-25.88-1.32-9.29-.34-17.89-.99-19.12-1.46s-42.69-.96-92.12-1.09L77 388.83l-.597 64.43c-.38 41.13-.983 65.69-1.665 67.91-.62 2.02-1.342 19.34-1.72 41.34-.36 20.83-1.074 38.97-1.586 40.32-.513 1.35-.932 6.61-.932 11.69 0 6.58-.423 9.81-1.468 11.19-1.229 1.62-1.489 8.46-1.595 41.94-.07 22-.529 45.62-1.02 52.5a3220.22 3220.22 0 0 0-1.807 27.5c-.502 8.25-1.392 17.25-1.978 20-.612 2.87-1.185 21.05-1.348 42.75L61 848.15h2.5c4.19.01 10.375 2.07 12.725 4.24 4.515 4.17 5.46 9.09 4.964 25.84-.662 22.39-1.926 27-8.52 31.11-3.289 2.05-4.058 2.07-59.2 1.69l-55.869-.38-1.029-2.25zm316.7-563.75c.97-3.45 1.57-13.37 1.94-31.91l.54-26.91-65.37.64c-43.4.42-69.42.28-77.38-.43-6.6-.59-21.53-1.28-33.179-1.55l-21.179-.48-.462 27.82c-.255 15.3-.771 29.17-1.148 30.82l-.686 3 24.324.04c13.38.02 29.05.57 34.83 1.22 5.99.67 26.62 1.21 48 1.26 20.62.05 39.3.47 41.5.93s13.65.77 25.44.69l21.43-.14 1.4-5zm199.53 1.43c2.64-.51 14.2-.93 25.69-.93 15.12 0 21.1-.33 21.63-1.2.41-.65.94-7.09 1.18-14.31.36-10.64.15-13.69-1.13-16.17-1.75-3.37-2.69-21.26-1.31-24.89l.78-2.08-70.32.38c-38.68.21-72.48.8-75.12 1.32s-15.78.95-29.2.95h-24.4l1.93 4.25c1.73 3.81 1.93 6.7 1.95 27.86l.02 23.61 11.25.7c6.19.38 14.63 1.04 18.75 1.46 10.19 1.03 112.3.21 118.3-.95z" transform="matrix(.06902 0 0 .06748 42.149 32.415)"/><path d="M-48.75 902.26c-.566-1.24-1.455-2.25-1.976-2.25-.528 0-1.18-6.31-1.472-14.25-.289-7.84-.811-16.56-1.162-19.38-.751-6.04.851-9.93 5.568-13.53 1.692-1.29 4.919-3.92 7.17-5.84 3.929-3.36 4.483-3.52 13.698-4l9.603-.5.17-7.5c.35-15.45 2.373-43.61 3.333-46.4.548-1.6.998-10.82 1.001-20.5.002-9.68.298-23.38.659-30.45.57-11.19.957-13.29 2.996-16.29l2.34-3.45V659c0-50.01.226-59.42 1.488-62.21 1.028-2.27 1.772-9.45 2.413-23.28.51-11 1.454-22.7 2.099-26 .691-3.54 1.273-18.1 1.418-35.5.136-16.24.739-31.98 1.342-35 .641-3.23 1.125-18.46 1.168-36.82.04-17.22.461-32.07.936-33 .475-.93 1.13-6.27 1.454-11.87l.591-10.18-17.204-.57c-9.463-.32-33.629-.91-53.704-1.32-25.523-.52-37.139-1.11-38.609-1.96-1.17-.66-3.53-2.82-5.25-4.78l-3.14-3.57v-17c0-20.29.92-23.86 6.2-24.07 1.81-.07 5.32-.22 7.799-.33 2.475-.11 10.379-1.19 17.564-2.4 11.449-1.94 15.78-2.16 35-1.81 26.385.49 46.944 2.2 50.59 4.21 1.46.81 4.041 1.47 5.737 1.47h3.083l-.112-29.52c-.062-16.24-.394-29.69-.738-29.89-.343-.21-6.25-.7-13.124-1.09-6.875-.4-16.775-1.17-22-1.71s-19.4-1.12-31.5-1.3c-12.1-.17-23.265-.7-24.81-1.17-3.508-1.08-7.608-9.98-8.611-18.69-.774-6.73-2.867-9.06-7.261-8.09-2.061.45-3.156.06-4.519-1.63-1.668-2.06-3.408-3.81-7.388-7.46-.87-.8-3.14-1.45-5.06-1.45-1.95 0-6.58-1.54-10.58-3.5-3.9-1.93-7.8-3.5-8.65-3.5-.86 0-3.13-1.58-5.05-3.5-1.93-1.93-4.33-3.5-5.35-3.5-1.2 0-2.48-1.47-3.7-4.25-1.03-2.34-3.93-6.15-6.44-8.47-4.17-3.84-4.58-4.64-4.58-8.84 0-3.89.48-5.04 3.08-7.36l3.08-2.76 21.42.35c11.78.18 25.69.79 30.919 1.33 5.225.55 14.225 1.42 20 1.95 5.775.52 11.625 1.22 13 1.55s7.225 1.01 13 1.51 12.75 1.35 15.5 1.89 8.233 1 12.184 1.04c3.952.03 8.288.47 9.635.99 1.347.51 10.714 1.21 20.815 1.55s22.174 1.32 26.829 2.19c6.104 1.13 11.039 1.38 17.708.89 6.626-.49 9.895-.33 11.537.57 5.256 2.86 18.969 4.03 57.793 4.94 26.11.61 40.35 1.32 42 2.09 4.21 1.97 19.58 2.83 67 3.78 60.39 1.2 185.47 1.13 195-.12 4.12-.54 31.35-1.34 60.5-1.77 29.15-.44 54.12-1.13 55.5-1.53 1.37-.4 7.53-1.08 13.67-1.51 6.15-.44 13.35-1.27 16-1.86 9.55-2.13 21.21-3.24 43.33-4.15 12.37-.51 25.2-1.38 28.5-1.93 3.3-.56 8.02-1.27 10.5-1.59 5.14-.67 9.08-1.48 24.45-5.02 11.28-2.6 25.52-5.13 36.05-6.41 3.3-.4 7.35-1.3 9-2.01 2.16-.92 10.37-1.32 29.25-1.41l26.25-.13v17.3l-6.06 5.24c-3.33 2.89-6.92 6.95-7.98 9.03s-2.79 4.06-3.85 4.39c-1.06.34-3.88 2.17-6.27 4.06l-4.34 3.46-12 .03c-9.77.02-12.81.4-16.36 2.01-2.4 1.09-5.54 1.98-6.99 1.98s-4.5.77-6.79 1.72c-4.57 1.89-4.79 2.47-6.24 16.28-.69 6.53-2.37 11-4.15 11-.52 0-3.43 2.25-6.47 5s-6.21 5-7.05 5c-1.97 0-9.37 3.71-11.95 5.99-1.75 1.54-4.93 1.84-25 2.34-12.65.31-24.8 1.03-27 1.59-2.2.57-14.58 1.04-27.5 1.05l-23.5.02.29 18.55c.18 11.47-.15 20.72-.88 24.25-.65 3.14-1.38 7.28-1.62 9.21l-.45 3.5 64.33.36c59.21.33 64.66.5 68.49 2.15 5.19 2.24 6.33 4.32 8.22 14.99 2.3 12.98 2.08 21.71-.66 26.14-3.1 5.01-8.69 9.04-14.15 10.2-2.51.53-21.22 1.14-41.57 1.35-30.44.31-37.71.13-41-1.06-2.2-.79-7.6-1.7-12-2.01s-10.81-.87-14.25-1.24l-6.25-.67v26.19c0 20.25.31 26.81 1.37 28.9 1.09 2.14 1.48 12.96 1.89 52.2.38 37.36.82 50.23 1.8 52.5.91 2.1 1.41 10.48 1.67 28 .28 18.67.74 25.95 1.82 28.77 1.24 3.21 1.45 21.63 1.45 125.37v121.6l13.4-.72c12.26-.66 13.56-.56 15.26 1.13 1.02 1.01 2.98 2.75 4.35 3.85s3.73 3.65 5.24 5.68c2.7 3.61 2.75 3.95 2.75 17.93 0 12.51-.26 14.79-2.14 18.67-3.44 7.12-6.47 8.39-18.36 7.71-5.5-.31-29.58-.89-53.5-1.28-38.86-.64-43.85-.9-46.73-2.48-5.9-3.22-6.27-5.06-6.27-31.18v-23.55h7.54c6.72 0 7.82-.28 10.05-2.5 1.37-1.38 3.44-2.5 4.58-2.5 2.06 0 2.08-.27 1.64-19.25-.32-13.72-.85-19.97-1.83-21.75-.75-1.38-1.73-7-2.18-12.5-3.2-39.65-4-54.36-4.75-87.5-.47-20.63-1.33-39.53-1.92-42-1.68-7.01-1.45-37.31.32-41.53.79-1.91 1.42-6.49 1.4-10.22-.67-113.54-1.06-134.64-2.53-136.89-1.08-1.65-1.36-3.71-.95-7.09.31-2.63.54-5.22.49-5.77s-.28-15.52-.52-33.26l-.45-32.26-2.39.6c-1.32.34-3.88.12-5.7-.48-9.21-3.03-69.79-4.06-169.8-2.91-14.58.17-30.55-.02-35.5-.41s-16.6-.99-25.88-1.32c-9.29-.34-17.89-1-19.12-1.46-1.24-.47-42.69-.96-92.12-1.09l-89.881-.24-.597 64.44c-.382 41.13-.984 65.69-1.666 67.91-.62 2.02-1.341 19.33-1.721 41.34-.359 20.83-1.072 38.97-1.585 40.32-.512 1.34-.931 6.61-.931 11.69 0 6.58-.424 9.8-1.469 11.18-1.229 1.63-1.488 8.46-1.594 41.95-.07 22-.529 45.62-1.02 52.5-.492 6.87-1.305 19.25-1.807 27.5-.503 8.25-1.393 17.25-1.978 20-.612 2.87-1.185 21.04-1.348 42.75l-.284 37.75h2.5c4.189.01 10.374 2.07 12.724 4.24 4.516 4.17 5.461 9.09 4.965 25.84-.663 22.38-1.926 27-8.521 31.1-3.289 2.05-4.058 2.08-59.2 1.7l-55.868-.38-1.029-2.25zm316.7-563.75c.97-3.45 1.57-13.38 1.94-31.91l.54-26.91-65.37.64c-43.4.42-69.42.28-77.38-.43-6.6-.59-21.53-1.29-33.18-1.55l-21.179-.48-.463 27.82c-.254 15.3-.771 29.17-1.148 30.82l-.685 3 24.327.04c13.378.02 29.048.57 34.828 1.22 5.99.66 26.62 1.21 48 1.26 20.62.05 39.3.47 41.5.93s13.64.77 25.43.69l21.44-.14 1.4-5zm199.53 1.43c2.64-.52 14.2-.93 25.69-.93 15.12 0 21.09-.33 21.63-1.2.4-.66.94-7.1 1.18-14.31.36-10.64.15-13.69-1.14-16.17-1.74-3.37-2.68-21.26-1.3-24.9l.78-2.07-70.32.38c-38.68.21-72.48.8-75.12 1.32s-15.78.95-29.2.95h-24.4l1.93 4.25c1.72 3.8 1.93 6.7 1.95 27.86l.02 23.61 11.25.7c6.19.38 14.62 1.04 18.75 1.45 10.19 1.04 112.29.22 118.3-.94z" transform="matrix(.06902 0 0 .06748 42.149 32.415)"/><path d="M-54.464 896.54c-.566-1.24-1.455-2.25-1.976-2.25-.529 0-1.18-6.31-1.472-14.25-.289-7.84-.812-16.56-1.163-19.38-.75-6.03.852-9.93 5.568-13.52 1.692-1.29 4.919-3.92 7.171-5.85 3.929-3.36 4.483-3.52 13.697-4l9.603-.5.17-7.5c.351-15.45 2.374-43.6 3.334-46.4.548-1.59.998-10.82 1-20.5.003-9.68.299-23.38.659-30.44.571-11.19.958-13.29 2.996-16.3l2.341-3.45v-58.92c0-50.01.225-59.42 1.487-62.2 1.029-2.28 1.773-9.45 2.414-23.29.51-11 1.454-22.7 2.098-26 .692-3.54 1.274-18.1 1.419-35.5.136-16.24.738-31.97 1.341-35 .642-3.22 1.126-18.46 1.168-36.81.04-17.23.462-32.08.937-33 .475-.93 1.129-6.27 1.454-11.87l.59-10.19-17.204-.57c-9.462-.31-33.63-.9-53.704-1.31-25.522-.52-37.134-1.11-38.614-1.96-1.16-.67-3.52-2.82-5.25-4.79l-3.14-3.57v-17c0-20.28.92-23.85 6.2-24.06 1.82-.07 5.33-.22 7.8-.33 2.48-.11 10.383-1.19 17.569-2.41 11.448-1.93 15.779-2.15 35-1.8 26.385.48 46.944 2.19 50.59 4.21 1.46.8 4.04 1.46 5.737 1.46h3.083l-.113-29.52c-.062-16.23-.394-29.68-.737-29.89-.344-.2-6.25-.69-13.125-1.09-6.875-.39-16.775-1.16-22-1.7s-19.4-1.13-31.5-1.3-23.264-.7-24.81-1.18c-3.507-1.08-7.607-9.97-8.61-18.68-.775-6.73-2.867-9.06-7.261-8.1-2.063.45-3.153.06-4.523-1.62-1.67-2.06-3.4-3.81-7.38-7.46-.87-.8-3.15-1.46-5.06-1.46-1.95 0-6.59-1.53-10.58-3.5-3.91-1.92-7.8-3.5-8.66-3.5-.85 0-3.12-1.57-5.05-3.5-1.92-1.92-4.33-3.5-5.34-3.5-1.21 0-2.48-1.46-3.71-4.25-1.02-2.34-3.92-6.15-6.44-8.47-4.16-3.84-4.58-4.63-4.58-8.83 0-3.89.49-5.04 3.09-7.37l3.08-2.75 21.42.34c11.78.19 25.69.79 30.91 1.34 5.229.54 14.229 1.42 20.004 1.94 5.775.53 11.625 1.22 13 1.56 1.375.33 7.225 1 13 1.5s12.75 1.35 15.5 1.89 8.234 1.01 12.185 1.04c3.952.03 8.287.48 9.634.99s10.714 1.21 20.815 1.55c10.102.34 22.175 1.33 26.829 2.19 6.105 1.14 11.04 1.39 17.709.9 6.625-.49 9.895-.33 11.537.56 5.256 2.86 18.969 4.04 57.787 4.95 26.12.61 40.35 1.32 42 2.09 4.22 1.96 19.59 2.83 67 3.77 60.4 1.21 185.47 1.13 195-.11 4.13-.54 31.35-1.34 60.5-1.78s54.13-1.12 55.5-1.52c1.38-.4 7.53-1.08 13.68-1.52 6.14-.43 13.34-1.27 16-1.86 9.55-2.12 21.2-3.24 43.32-4.14 12.38-.51 25.2-1.38 28.5-1.93 3.3-.56 8.03-1.28 10.5-1.6 5.14-.67 9.08-1.47 24.45-5.01 11.28-2.6 25.53-5.13 36.05-6.41 3.3-.4 7.35-1.31 9-2.01 2.16-.92 10.38-1.32 29.25-1.42l26.25-.13v17.3l-6.05 5.25c-3.33 2.88-6.92 6.94-7.98 9.02s-2.8 4.06-3.86 4.4c-1.05.33-3.87 2.16-6.26 4.06l-4.35 3.45-12 .03c-9.77.03-12.8.4-16.35 2.01-2.4 1.09-5.55 1.98-6.99 1.98-1.45 0-4.51.78-6.79 1.72-4.58 1.89-4.8 2.47-6.25 16.28-.68 6.53-2.36 11-4.14 11-.53 0-3.44 2.25-6.48 5-3.03 2.75-6.21 5-7.05 5-1.97 0-9.36 3.71-11.95 6-1.74 1.54-4.93 1.84-25 2.34-12.65.31-24.8 1.03-27 1.59s-14.57 1.03-27.5 1.05l-23.5.02.3 18.54c.18 11.48-.16 20.72-.88 24.25-.65 3.14-1.38 7.29-1.63 9.21l-.45 3.5 64.33.36c59.21.33 64.67.5 68.5 2.16 5.18 2.23 6.32 4.31 8.21 14.98 2.31 12.98 2.09 21.71-.65 26.14-3.1 5.01-8.69 9.04-14.15 10.2-2.52.54-21.23 1.15-41.58 1.36-30.43.31-37.71.12-41-1.07-2.2-.79-7.6-1.69-12-2s-10.81-.87-14.25-1.24l-6.25-.67v26.19c0 20.25.32 26.8 1.38 28.89 1.09 2.14 1.48 12.96 1.88 52.2.39 37.37.83 50.24 1.81 52.5.9 2.1 1.4 10.49 1.66 28 .28 18.68.74 25.96 1.83 28.77 1.23 3.22 1.44 21.63 1.44 125.37v121.6l13.41-.72c12.25-.65 13.56-.56 15.26 1.13 1.02 1.02 2.98 2.75 4.34 3.85 1.37 1.1 3.73 3.66 5.24 5.68 2.7 3.62 2.75 3.95 2.75 17.94 0 12.51-.26 14.79-2.13 18.66-3.45 7.12-6.47 8.39-18.37 7.72-5.5-.32-29.57-.89-53.5-1.29-38.85-.63-43.84-.9-46.73-2.48-5.9-3.22-6.27-5.05-6.27-31.18v-23.55h7.55c6.71 0 7.82-.27 10.05-2.5 1.37-1.37 3.43-2.5 4.58-2.5 2.05 0 2.08-.26 1.63-19.25-.32-13.72-.84-19.97-1.82-21.75-.76-1.37-1.74-7-2.18-12.5-3.21-39.64-4-54.35-4.75-87.5-.47-20.62-1.34-39.52-1.93-42-1.68-7-1.44-37.3.32-41.53.8-1.91 1.43-6.49 1.41-10.21-.67-113.55-1.06-134.64-2.54-136.89-1.08-1.66-1.35-3.71-.95-7.1.32-2.62.54-5.22.5-5.77-.05-.55-.29-15.51-.53-33.25l-.44-32.26-2.39.6c-1.32.33-3.89.11-5.7-.48-9.22-3.03-69.79-4.07-169.81-2.91-14.57.16-30.55-.02-35.5-.41s-16.59-.99-25.88-1.33c-9.28-.33-17.89-.99-19.12-1.46s-42.68-.96-92.12-1.09l-89.876-.23-.597 64.43c-.381 41.13-.983 65.69-1.665 67.91-.621 2.02-1.342 19.34-1.721 41.35-.36 20.82-1.073 38.96-1.585 40.31s-.932 6.61-.932 11.7c0 6.58-.423 9.8-1.468 11.18-1.23 1.63-1.49 8.46-1.595 41.94-.07 22-.528 45.63-1.02 52.5a3208.31 3208.31 0 0 0-1.806 27.5c-.503 8.25-1.393 17.25-1.978 20-.612 2.88-1.186 21.05-1.35 42.75l-.283 37.75 2.5.01c4.189.01 10.375 2.07 12.725 4.24 4.516 4.17 5.46 9.09 4.965 25.84-.663 22.38-1.927 26.99-8.522 31.1-3.288 2.05-4.057 2.07-59.2 1.69l-55.868-.38-1.028-2.25zm316.7-563.75c.96-3.44 1.57-13.37 1.94-31.91l.54-26.91-65.38.64c-43.39.43-69.41.28-77.38-.43-6.6-.58-21.53-1.28-33.175-1.55l-21.178-.48-.463 27.82c-.254 15.3-.771 29.17-1.148 30.82l-.686 3 24.327.04c13.383.03 29.053.58 34.823 1.22 5.99.67 26.62 1.21 48 1.27 20.63.05 39.3.46 41.5.92s13.65.78 25.44.7l21.43-.15 1.41-5zm199.52 1.43c2.64-.51 14.2-.93 25.69-.93 15.12 0 21.1-.33 21.63-1.19.41-.66.94-7.1 1.19-14.31.36-10.64.14-13.7-1.14-16.18-1.74-3.36-2.68-21.26-1.31-24.89l.78-2.07-70.32.37c-38.67.21-72.48.81-75.11 1.33-2.64.52-15.79.94-29.21.94h-24.4l1.93 4.25c1.73 3.81 1.93 6.7 1.95 27.86l.02 23.61 11.25.7c6.19.39 14.63 1.04 18.75 1.46 10.19 1.03 112.3.21 118.3-.95z" transform="matrix(.06902 0 0 .06748 42.149 32.415)"/></g><g fill="#739071"><path d="M-43.429 908.4c-.565-1.24-1.455-2.25-1.976-2.25-.528 0-1.18-6.31-1.472-14.25-.288-7.84-.811-16.56-1.162-19.38-.751-6.04.852-9.93 5.568-13.53 1.692-1.29 4.919-3.92 7.171-5.84 3.928-3.36 4.482-3.52 13.697-4l9.603-.5.17-7.5c.35-15.45 2.373-43.61 3.334-46.4.548-1.6.998-10.82 1-20.5.002-9.68.299-23.38.66-30.45.57-11.18.956-13.29 2.995-16.29l2.341-3.45v-58.92c0-50.01.225-59.42 1.487-62.21 1.029-2.27 1.773-9.45 2.413-23.28.51-11 1.454-22.7 2.099-26 .692-3.54 1.273-18.1 1.419-35.5.135-16.24.738-31.97 1.341-35 .642-3.23 1.125-18.46 1.168-36.82.04-17.22.461-32.07.936-33 .475-.92 1.13-6.27 1.455-11.87l.59-10.18-17.204-.57c-9.462-.31-33.629-.91-53.704-1.32-25.523-.52-37.135-1.11-38.613-1.95-1.162-.67-3.527-2.82-5.247-4.79l-3.14-3.57v-17c0-20.29.92-23.85 6.2-24.06 1.815-.08 5.325-.23 7.8-.34s10.379-1.19 17.565-2.4c11.448-1.94 15.779-2.16 35-1.8 26.384.48 46.943 2.19 50.589 4.2 1.46.81 4.042 1.47 5.738 1.47h3.083l-.113-29.52c-.062-16.24-.394-29.69-.737-29.89-.344-.21-6.25-.7-13.125-1.09-6.875-.4-16.775-1.16-22-1.71-5.225-.54-19.4-1.12-31.5-1.29-12.1-.18-23.264-.7-24.81-1.18-3.508-1.08-7.607-9.98-8.61-18.69-.775-6.72-2.867-9.06-7.262-8.09-2.061.45-3.156.06-4.519-1.62-1.671-2.06-3.404-3.82-7.379-7.47-.88-.8-3.15-1.45-5.06-1.45-1.96 0-6.59-1.54-10.58-3.5-3.91-1.93-7.81-3.5-8.66-3.5s-3.13-1.58-5.05-3.5c-1.93-1.93-4.33-3.5-5.34-3.5-1.21 0-2.49-1.47-3.71-4.25-1.03-2.34-3.93-6.15-6.44-8.47-4.17-3.84-4.58-4.64-4.58-8.83 0-3.89.48-5.05 3.08-7.37l3.08-2.75 21.42.34c11.78.19 25.695.79 30.92 1.33 5.225.55 14.225 1.43 20 1.95s11.625 1.22 13 1.55 7.225 1.01 13 1.51 12.75 1.35 15.5 1.89 8.233 1.01 12.185 1.04 8.287.48 9.634.99c1.347.51 10.714 1.21 20.815 1.55s22.174 1.33 26.83 2.19c6.104 1.13 11.04 1.38 17.708.89 6.625-.48 9.895-.32 11.537.57 5.255 2.86 18.968 4.03 57.791 4.94 26.11.62 40.35 1.32 42 2.1 4.21 1.96 19.59 2.83 67 3.77 60.39 1.2 185.47 1.13 195-.12 4.12-.54 31.35-1.33 60.5-1.77s54.12-1.12 55.5-1.52 7.53-1.09 13.67-1.52c6.15-.43 13.35-1.27 16-1.86 9.55-2.12 21.21-3.24 43.33-4.15 12.38-.5 25.2-1.37 28.5-1.93 3.3-.55 8.02-1.27 10.5-1.59 5.14-.67 9.08-1.48 24.45-5.02 11.28-2.6 25.52-5.13 36.05-6.4 3.3-.4 7.35-1.31 9-2.02 2.16-.92 10.37-1.32 29.25-1.41l26.25-.13v17.3l-6.05 5.24c-3.33 2.89-6.93 6.95-7.99 9.03s-2.79 4.06-3.85 4.39c-1.06.34-3.88 2.17-6.27 4.07l-4.34 3.45-12 .03c-9.77.03-12.81.4-16.36 2.01-2.4 1.09-5.54 1.98-6.99 1.98s-4.5.77-6.79 1.72c-4.57 1.89-4.79 2.47-6.24 16.28-.68 6.53-2.37 11-4.14 11-.53 0-3.44 2.25-6.48 5s-6.21 5-7.05 5c-1.97 0-9.37 3.71-11.95 5.99-1.74 1.55-4.93 1.84-25 2.34-12.65.32-24.8 1.03-27 1.6-2.2.56-14.58 1.03-27.5 1.04l-23.5.03.29 18.54c.18 11.47-.15 20.72-.88 24.25-.64 3.14-1.37 7.28-1.62 9.21l-.45 3.5 64.33.36c59.21.33 64.66.5 68.49 2.15 5.19 2.24 6.33 4.32 8.22 14.99 2.3 12.98 2.08 21.71-.66 26.14-3.09 5.01-8.69 9.04-14.15 10.2-2.51.53-21.22 1.14-41.57 1.35-30.44.32-37.71.13-41-1.06-2.2-.79-7.6-1.7-12-2.01s-10.81-.86-14.25-1.23l-6.25-.68v26.2c0 20.24.31 26.8 1.37 28.89 1.09 2.14 1.49 12.96 1.89 52.2.38 37.37.82 50.23 1.8 52.5.91 2.1 1.41 10.48 1.67 28 .28 18.67.74 25.95 1.82 28.77 1.24 3.21 1.45 21.63 1.45 125.37v121.6l13.4-.72c12.26-.66 13.56-.56 15.26 1.13 1.03 1.02 2.98 2.75 4.35 3.85s3.73 3.66 5.24 5.68c2.7 3.62 2.75 3.95 2.75 17.94 0 12.51-.26 14.79-2.14 18.66-3.44 7.12-6.47 8.39-18.36 7.71-5.5-.31-29.58-.89-53.5-1.28-38.86-.64-43.85-.9-46.73-2.48-5.9-3.22-6.27-5.06-6.27-31.18v-23.55h7.55c6.71 0 7.82-.28 10.04-2.5 1.38-1.38 3.44-2.5 4.58-2.5 2.06 0 2.08-.27 1.64-19.25-.32-13.72-.85-19.97-1.82-21.75-.76-1.38-1.74-7-2.19-12.5-3.2-39.65-4-54.35-4.75-87.5-.46-20.63-1.33-39.53-1.92-42-1.68-7.01-1.45-37.31.32-41.53.8-1.91 1.43-6.49 1.4-10.22-.67-113.54-1.06-134.64-2.53-136.89-1.08-1.65-1.36-3.71-.95-7.09.32-2.63.54-5.22.49-5.77-.04-.55-.28-15.52-.52-33.26l-.44-32.25-2.4.6c-1.32.33-3.88.11-5.7-.49-9.21-3.02-69.79-4.06-169.8-2.91-14.58.17-30.55-.01-35.5-.41-4.95-.39-16.6-.98-25.88-1.32-9.29-.34-17.89-.99-19.12-1.46s-42.69-.96-92.12-1.09L77 388.83l-.597 64.43c-.38 41.13-.983 65.69-1.665 67.91-.62 2.02-1.342 19.34-1.72 41.34-.36 20.83-1.074 38.97-1.586 40.32-.513 1.35-.932 6.61-.932 11.69 0 6.58-.423 9.81-1.468 11.19-1.229 1.62-1.489 8.46-1.595 41.94-.07 22-.529 45.62-1.02 52.5a3220.22 3220.22 0 0 0-1.807 27.5c-.502 8.25-1.392 17.25-1.978 20-.612 2.87-1.185 21.05-1.348 42.75L61 848.15h2.5c4.19.01 10.375 2.07 12.725 4.24 4.515 4.17 5.46 9.09 4.964 25.84-.662 22.39-1.926 27-8.52 31.11-3.289 2.05-4.058 2.07-59.2 1.69l-55.869-.38-1.029-2.25zm316.7-563.75c.97-3.45 1.57-13.37 1.94-31.91l.54-26.91-65.37.64c-43.4.42-69.42.28-77.38-.43-6.6-.59-21.53-1.28-33.179-1.55l-21.179-.48-.462 27.82c-.255 15.3-.771 29.17-1.148 30.82l-.686 3 24.324.04c13.38.02 29.05.57 34.83 1.22 5.99.67 26.62 1.21 48 1.26 20.62.05 39.3.47 41.5.93s13.65.77 25.44.69l21.43-.14 1.4-5zm199.53 1.43c2.64-.51 14.2-.93 25.69-.93 15.12 0 21.1-.33 21.63-1.2.41-.65.94-7.09 1.18-14.31.36-10.64.15-13.69-1.13-16.17-1.75-3.37-2.69-21.26-1.31-24.89l.78-2.08-70.32.38c-38.68.21-72.48.8-75.12 1.32s-15.78.95-29.2.95h-24.4l1.93 4.25c1.73 3.81 1.93 6.7 1.95 27.86l.02 23.61 11.25.7c6.19.38 14.63 1.04 18.75 1.46 10.19 1.03 112.3.21 118.3-.95z" transform="matrix(.06902 0 0 .04043 44.858 -4.183)"/><path d="M-48.75 902.26c-.566-1.24-1.455-2.25-1.976-2.25-.528 0-1.18-6.31-1.472-14.25-.289-7.84-.811-16.56-1.162-19.38-.751-6.04.851-9.93 5.568-13.53 1.692-1.29 4.919-3.92 7.17-5.84 3.929-3.36 4.483-3.52 13.698-4l9.603-.5.17-7.5c.35-15.45 2.373-43.61 3.333-46.4.548-1.6.998-10.82 1.001-20.5.002-9.68.298-23.38.659-30.45.57-11.19.957-13.29 2.996-16.29l2.34-3.45V659c0-50.01.226-59.42 1.488-62.21 1.028-2.27 1.772-9.45 2.413-23.28.51-11 1.454-22.7 2.099-26 .691-3.54 1.273-18.1 1.418-35.5.136-16.24.739-31.98 1.342-35 .641-3.23 1.125-18.46 1.168-36.82.04-17.22.461-32.07.936-33 .475-.93 1.13-6.27 1.454-11.87l.591-10.18-17.204-.57c-9.463-.32-33.629-.91-53.704-1.32-25.523-.52-37.139-1.11-38.609-1.96-1.17-.66-3.53-2.82-5.25-4.78l-3.14-3.57v-17c0-20.29.92-23.86 6.2-24.07 1.81-.07 5.32-.22 7.799-.33 2.475-.11 10.379-1.19 17.564-2.4 11.449-1.94 15.78-2.16 35-1.81 26.385.49 46.944 2.2 50.59 4.21 1.46.81 4.041 1.47 5.737 1.47h3.083l-.112-29.52c-.062-16.24-.394-29.69-.738-29.89-.343-.21-6.25-.7-13.124-1.09-6.875-.4-16.775-1.17-22-1.71s-19.4-1.12-31.5-1.3c-12.1-.17-23.265-.7-24.81-1.17-3.508-1.08-7.608-9.98-8.611-18.69-.774-6.73-2.867-9.06-7.261-8.09-2.061.45-3.156.06-4.519-1.63-1.668-2.06-3.408-3.81-7.388-7.46-.87-.8-3.14-1.45-5.06-1.45-1.95 0-6.58-1.54-10.58-3.5-3.9-1.93-7.8-3.5-8.65-3.5-.86 0-3.13-1.58-5.05-3.5-1.93-1.93-4.33-3.5-5.35-3.5-1.2 0-2.48-1.47-3.7-4.25-1.03-2.34-3.93-6.15-6.44-8.47-4.17-3.84-4.58-4.64-4.58-8.84 0-3.89.48-5.04 3.08-7.36l3.08-2.76 21.42.35c11.78.18 25.69.79 30.919 1.33 5.225.55 14.225 1.42 20 1.95 5.775.52 11.625 1.22 13 1.55s7.225 1.01 13 1.51 12.75 1.35 15.5 1.89 8.233 1 12.184 1.04c3.952.03 8.288.47 9.635.99 1.347.51 10.714 1.21 20.815 1.55s22.174 1.32 26.829 2.19c6.104 1.13 11.039 1.38 17.708.89 6.626-.49 9.895-.33 11.537.57 5.256 2.86 18.969 4.03 57.793 4.94 26.11.61 40.35 1.32 42 2.09 4.21 1.97 19.58 2.83 67 3.78 60.39 1.2 185.47 1.13 195-.12 4.12-.54 31.35-1.34 60.5-1.77 29.15-.44 54.12-1.13 55.5-1.53 1.37-.4 7.53-1.08 13.67-1.51 6.15-.44 13.35-1.27 16-1.86 9.55-2.13 21.21-3.24 43.33-4.15 12.37-.51 25.2-1.38 28.5-1.93 3.3-.56 8.02-1.27 10.5-1.59 5.14-.67 9.08-1.48 24.45-5.02 11.28-2.6 25.52-5.13 36.05-6.41 3.3-.4 7.35-1.3 9-2.01 2.16-.92 10.37-1.32 29.25-1.41l26.25-.13v17.3l-6.06 5.24c-3.33 2.89-6.92 6.95-7.98 9.03s-2.79 4.06-3.85 4.39c-1.06.34-3.88 2.17-6.27 4.06l-4.34 3.46-12 .03c-9.77.02-12.81.4-16.36 2.01-2.4 1.09-5.54 1.98-6.99 1.98s-4.5.77-6.79 1.72c-4.57 1.89-4.79 2.47-6.24 16.28-.69 6.53-2.37 11-4.15 11-.52 0-3.43 2.25-6.47 5s-6.21 5-7.05 5c-1.97 0-9.37 3.71-11.95 5.99-1.75 1.54-4.93 1.84-25 2.34-12.65.31-24.8 1.03-27 1.59-2.2.57-14.58 1.04-27.5 1.05l-23.5.02.29 18.55c.18 11.47-.15 20.72-.88 24.25-.65 3.14-1.38 7.28-1.62 9.21l-.45 3.5 64.33.36c59.21.33 64.66.5 68.49 2.15 5.19 2.24 6.33 4.32 8.22 14.99 2.3 12.98 2.08 21.71-.66 26.14-3.1 5.01-8.69 9.04-14.15 10.2-2.51.53-21.22 1.14-41.57 1.35-30.44.31-37.71.13-41-1.06-2.2-.79-7.6-1.7-12-2.01s-10.81-.87-14.25-1.24l-6.25-.67v26.19c0 20.25.31 26.81 1.37 28.9 1.09 2.14 1.48 12.96 1.89 52.2.38 37.36.82 50.23 1.8 52.5.91 2.1 1.41 10.48 1.67 28 .28 18.67.74 25.95 1.82 28.77 1.24 3.21 1.45 21.63 1.45 125.37v121.6l13.4-.72c12.26-.66 13.56-.56 15.26 1.13 1.02 1.01 2.98 2.75 4.35 3.85s3.73 3.65 5.24 5.68c2.7 3.61 2.75 3.95 2.75 17.93 0 12.51-.26 14.79-2.14 18.67-3.44 7.12-6.47 8.39-18.36 7.71-5.5-.31-29.58-.89-53.5-1.28-38.86-.64-43.85-.9-46.73-2.48-5.9-3.22-6.27-5.06-6.27-31.18v-23.55h7.54c6.72 0 7.82-.28 10.05-2.5 1.37-1.38 3.44-2.5 4.58-2.5 2.06 0 2.08-.27 1.64-19.25-.32-13.72-.85-19.97-1.83-21.75-.75-1.38-1.73-7-2.18-12.5-3.2-39.65-4-54.36-4.75-87.5-.47-20.63-1.33-39.53-1.92-42-1.68-7.01-1.45-37.31.32-41.53.79-1.91 1.42-6.49 1.4-10.22-.67-113.54-1.06-134.64-2.53-136.89-1.08-1.65-1.36-3.71-.95-7.09.31-2.63.54-5.22.49-5.77s-.28-15.52-.52-33.26l-.45-32.26-2.39.6c-1.32.34-3.88.12-5.7-.48-9.21-3.03-69.79-4.06-169.8-2.91-14.58.17-30.55-.02-35.5-.41s-16.6-.99-25.88-1.32c-9.29-.34-17.89-1-19.12-1.46-1.24-.47-42.69-.96-92.12-1.09l-89.881-.24-.597 64.44c-.382 41.13-.984 65.69-1.666 67.91-.62 2.02-1.341 19.33-1.721 41.34-.359 20.83-1.072 38.97-1.585 40.32-.512 1.34-.931 6.61-.931 11.69 0 6.58-.424 9.8-1.469 11.18-1.229 1.63-1.488 8.46-1.594 41.95-.07 22-.529 45.62-1.02 52.5-.492 6.87-1.305 19.25-1.807 27.5-.503 8.25-1.393 17.25-1.978 20-.612 2.87-1.185 21.04-1.348 42.75l-.284 37.75h2.5c4.189.01 10.374 2.07 12.724 4.24 4.516 4.17 5.461 9.09 4.965 25.84-.663 22.38-1.926 27-8.521 31.1-3.289 2.05-4.058 2.08-59.2 1.7l-55.868-.38-1.029-2.25zm316.7-563.75c.97-3.45 1.57-13.38 1.94-31.91l.54-26.91-65.37.64c-43.4.42-69.42.28-77.38-.43-6.6-.59-21.53-1.29-33.18-1.55l-21.179-.48-.463 27.82c-.254 15.3-.771 29.17-1.148 30.82l-.685 3 24.327.04c13.378.02 29.048.57 34.828 1.22 5.99.66 26.62 1.21 48 1.26 20.62.05 39.3.47 41.5.93s13.64.77 25.43.69l21.44-.14 1.4-5zm199.53 1.43c2.64-.52 14.2-.93 25.69-.93 15.12 0 21.09-.33 21.63-1.2.4-.66.94-7.1 1.18-14.31.36-10.64.15-13.69-1.14-16.17-1.74-3.37-2.68-21.26-1.3-24.9l.78-2.07-70.32.38c-38.68.21-72.48.8-75.12 1.32s-15.78.95-29.2.95h-24.4l1.93 4.25c1.72 3.8 1.93 6.7 1.95 27.86l.02 23.61 11.25.7c6.19.38 14.62 1.04 18.75 1.45 10.19 1.04 112.29.22 118.3-.94z" transform="matrix(.06902 0 0 .04043 44.858 -4.183)"/><path d="M-54.464 896.54c-.566-1.24-1.455-2.25-1.976-2.25-.529 0-1.18-6.31-1.472-14.25-.289-7.84-.812-16.56-1.163-19.38-.75-6.03.852-9.93 5.568-13.52 1.692-1.29 4.919-3.92 7.171-5.85 3.929-3.36 4.483-3.52 13.697-4l9.603-.5.17-7.5c.351-15.45 2.374-43.6 3.334-46.4.548-1.59.998-10.82 1-20.5.003-9.68.299-23.38.659-30.44.571-11.19.958-13.29 2.996-16.3l2.341-3.45v-58.92c0-50.01.225-59.42 1.487-62.2 1.029-2.28 1.773-9.45 2.414-23.29.51-11 1.454-22.7 2.098-26 .692-3.54 1.274-18.1 1.419-35.5.136-16.24.738-31.97 1.341-35 .642-3.22 1.126-18.46 1.168-36.81.04-17.23.462-32.08.937-33 .475-.93 1.129-6.27 1.454-11.87l.59-10.19-17.204-.57c-9.462-.31-33.63-.9-53.704-1.31-25.522-.52-37.134-1.11-38.614-1.96-1.16-.67-3.52-2.82-5.25-4.79l-3.14-3.57v-17c0-20.28.92-23.85 6.2-24.06 1.82-.07 5.33-.22 7.8-.33 2.48-.11 10.383-1.19 17.569-2.41 11.448-1.93 15.779-2.15 35-1.8 26.385.48 46.944 2.19 50.59 4.21 1.46.8 4.04 1.46 5.737 1.46h3.083l-.113-29.52c-.062-16.23-.394-29.68-.737-29.89-.344-.2-6.25-.69-13.125-1.09-6.875-.39-16.775-1.16-22-1.7s-19.4-1.13-31.5-1.3-23.264-.7-24.81-1.18c-3.507-1.08-7.607-9.97-8.61-18.68-.775-6.73-2.867-9.06-7.261-8.1-2.063.45-3.153.06-4.523-1.62-1.67-2.06-3.4-3.81-7.38-7.46-.87-.8-3.15-1.46-5.06-1.46-1.95 0-6.59-1.53-10.58-3.5-3.91-1.92-7.8-3.5-8.66-3.5-.85 0-3.12-1.57-5.05-3.5-1.92-1.92-4.33-3.5-5.34-3.5-1.21 0-2.48-1.46-3.71-4.25-1.02-2.34-3.92-6.15-6.44-8.47-4.16-3.84-4.58-4.63-4.58-8.83 0-3.89.49-5.04 3.09-7.37l3.08-2.75 21.42.34c11.78.19 25.69.79 30.91 1.34 5.229.54 14.229 1.42 20.004 1.94 5.775.53 11.625 1.22 13 1.56 1.375.33 7.225 1 13 1.5s12.75 1.35 15.5 1.89 8.234 1.01 12.185 1.04c3.952.03 8.287.48 9.634.99s10.714 1.21 20.815 1.55c10.102.34 22.175 1.33 26.829 2.19 6.105 1.14 11.04 1.39 17.709.9 6.625-.49 9.895-.33 11.537.56 5.256 2.86 18.969 4.04 57.787 4.95 26.12.61 40.35 1.32 42 2.09 4.22 1.96 19.59 2.83 67 3.77 60.4 1.21 185.47 1.13 195-.11 4.13-.54 31.35-1.34 60.5-1.78s54.13-1.12 55.5-1.52c1.38-.4 7.53-1.08 13.68-1.52 6.14-.43 13.34-1.27 16-1.86 9.55-2.12 21.2-3.24 43.32-4.14 12.38-.51 25.2-1.38 28.5-1.93 3.3-.56 8.03-1.28 10.5-1.6 5.14-.67 9.08-1.47 24.45-5.01 11.28-2.6 25.53-5.13 36.05-6.41 3.3-.4 7.35-1.31 9-2.01 2.16-.92 10.38-1.32 29.25-1.42l26.25-.13v17.3l-6.05 5.25c-3.33 2.88-6.92 6.94-7.98 9.02s-2.8 4.06-3.86 4.4c-1.05.33-3.87 2.16-6.26 4.06l-4.35 3.45-12 .03c-9.77.03-12.8.4-16.35 2.01-2.4 1.09-5.55 1.98-6.99 1.98-1.45 0-4.51.78-6.79 1.72-4.58 1.89-4.8 2.47-6.25 16.28-.68 6.53-2.36 11-4.14 11-.53 0-3.44 2.25-6.48 5-3.03 2.75-6.21 5-7.05 5-1.97 0-9.36 3.71-11.95 6-1.74 1.54-4.93 1.84-25 2.34-12.65.31-24.8 1.03-27 1.59s-14.57 1.03-27.5 1.05l-23.5.02.3 18.54c.18 11.48-.16 20.72-.88 24.25-.65 3.14-1.38 7.29-1.63 9.21l-.45 3.5 64.33.36c59.21.33 64.67.5 68.5 2.16 5.18 2.23 6.32 4.31 8.21 14.98 2.31 12.98 2.09 21.71-.65 26.14-3.1 5.01-8.69 9.04-14.15 10.2-2.52.54-21.23 1.15-41.58 1.36-30.43.31-37.71.12-41-1.07-2.2-.79-7.6-1.69-12-2s-10.81-.87-14.25-1.24l-6.25-.67v26.19c0 20.25.32 26.8 1.38 28.89 1.09 2.14 1.48 12.96 1.88 52.2.39 37.37.83 50.24 1.81 52.5.9 2.1 1.4 10.49 1.66 28 .28 18.68.74 25.96 1.83 28.77 1.23 3.22 1.44 21.63 1.44 125.37v121.6l13.41-.72c12.25-.65 13.56-.56 15.26 1.13 1.02 1.02 2.98 2.75 4.34 3.85 1.37 1.1 3.73 3.66 5.24 5.68 2.7 3.62 2.75 3.95 2.75 17.94 0 12.51-.26 14.79-2.13 18.66-3.45 7.12-6.47 8.39-18.37 7.72-5.5-.32-29.57-.89-53.5-1.29-38.85-.63-43.84-.9-46.73-2.48-5.9-3.22-6.27-5.05-6.27-31.18v-23.55h7.55c6.71 0 7.82-.27 10.05-2.5 1.37-1.37 3.43-2.5 4.58-2.5 2.05 0 2.08-.26 1.63-19.25-.32-13.72-.84-19.97-1.82-21.75-.76-1.37-1.74-7-2.18-12.5-3.21-39.64-4-54.35-4.75-87.5-.47-20.62-1.34-39.52-1.93-42-1.68-7-1.44-37.3.32-41.53.8-1.91 1.43-6.49 1.41-10.21-.67-113.55-1.06-134.64-2.54-136.89-1.08-1.66-1.35-3.71-.95-7.1.32-2.62.54-5.22.5-5.77-.05-.55-.29-15.51-.53-33.25l-.44-32.26-2.39.6c-1.32.33-3.89.11-5.7-.48-9.22-3.03-69.79-4.07-169.81-2.91-14.57.16-30.55-.02-35.5-.41s-16.59-.99-25.88-1.33c-9.28-.33-17.89-.99-19.12-1.46s-42.68-.96-92.12-1.09l-89.876-.23-.597 64.43c-.381 41.13-.983 65.69-1.665 67.91-.621 2.02-1.342 19.34-1.721 41.35-.36 20.82-1.073 38.96-1.585 40.31s-.932 6.61-.932 11.7c0 6.58-.423 9.8-1.468 11.18-1.23 1.63-1.49 8.46-1.595 41.94-.07 22-.528 45.63-1.02 52.5a3208.31 3208.31 0 0 0-1.806 27.5c-.503 8.25-1.393 17.25-1.978 20-.612 2.88-1.186 21.05-1.35 42.75l-.283 37.75 2.5.01c4.189.01 10.375 2.07 12.725 4.24 4.516 4.17 5.46 9.09 4.965 25.84-.663 22.38-1.927 26.99-8.522 31.1-3.288 2.05-4.057 2.07-59.2 1.69l-55.868-.38-1.028-2.25zm316.7-563.75c.96-3.44 1.57-13.37 1.94-31.91l.54-26.91-65.38.64c-43.39.43-69.41.28-77.38-.43-6.6-.58-21.53-1.28-33.175-1.55l-21.178-.48-.463 27.82c-.254 15.3-.771 29.17-1.148 30.82l-.686 3 24.327.04c13.383.03 29.053.58 34.823 1.22 5.99.67 26.62 1.21 48 1.27 20.63.05 39.3.46 41.5.92s13.65.78 25.44.7l21.43-.15 1.41-5zm199.52 1.43c2.64-.51 14.2-.93 25.69-.93 15.12 0 21.1-.33 21.63-1.19.41-.66.94-7.1 1.19-14.31.36-10.64.14-13.7-1.14-16.18-1.74-3.36-2.68-21.26-1.31-24.89l.78-2.07-70.32.37c-38.67.21-72.48.81-75.11 1.33-2.64.52-15.79.94-29.21.94h-24.4l1.93 4.25c1.73 3.81 1.93 6.7 1.95 27.86l.02 23.61 11.25.7c6.19.39 14.63 1.04 18.75 1.46 10.19 1.03 112.3.21 118.3-.95z" transform="matrix(.06902 0 0 .04043 44.858 -4.183)"/></g></pattern><pattern id="b" patternTransform="matrix(2.59133 0 0 -.06089 210.46 831.931)" xlink:href="#a"/></defs><path d="M210.836 792.118c0 15.899-9.514 40.757-9.514 57.803 0 9.418 1.465 17.872 1.465 26.745 0 16.413 2.194 32.922 2.194 49.176 0 5.993-2.194 11.282-2.194 15.529 0 5.853.731 10.812.731 14.667.974.863 5.123 4.915 5.123 5.176 2.234.863 1.464-.742 1.464-5.176 3.378-.863 8.349-5.177 14.635-5.177 2.407-1.974 7.139-.862 9.514-.862 0-19.489 5.855-40.503 5.855-61.255 0-9.027 2.195-15.744 2.195-22.431v-18.117-11.216c0 4.039.732 7.176.732 10.353v14.666c0 4.402-1.464 9.384-1.464 11.216v29.333c0 6.405 2.927 10.461 2.927 15.529 0 3.796.732 7.138.732 10.353 0 6.103.732 10.388.732 15.529 0 3.7 7.174 3.451 9.512 3.451 2.066 0 6.205.413 7.318 1.726h8.782c.731-4.811 7.317-14.119 7.317-19.843 4.235-10.846-.731-22.086-.731-31.059 0-10.642 2.195-18.132 2.195-27.607 0-3.612 2.219-25.02 2.927-25.02v-14.666c0-5.65-1.463-11.098-1.463-17.255 0-3.637-1.464-4.239-1.464-7.765-.732-1.652-2.195-5.385-2.195-8.627-.733-3.83-2.196-3.39-2.196-6.039-4.316 0-7.31-3.451-7.317-3.451h-9.514c-4.688 0-7.584-.863-10.977-.863-2.348 1.907-7.215.863-9.512.863h-5.855c-4.95 4.973-6.98.863-9.513.863-3.368-.863-4.078-2.589-7.318-2.589-2.708 0-4.39 2.962-4.39 5.177z" class="clothes" stroke="#000" fill="url(#b)"/></svg>