<svg class="bottomOverlay" width="86" height="380" viewBox="202.715 584.407 86.593 380.048" xmlns="http://www.w3.org/2000/svg" xmlns:xlink="http://www.w3.org/1999/xlink"><defs><pattern id="c" width="20" height="20" patternUnits="userSpaceOnUse" viewBox="0 0 100 100"><path d="M3.6 60.775C-7.078 16.921 19.285 19.174 33.953 6.035 18 49.768 39.16 11.639 56.717 13.001c-6.821 2.586-17.835 23.682-3.589 16.383 9.446-5.517 15.477-20.358 29.297-9.991-6.931-1.527-24.085 36.182-5.798 33.598 7.421-1.293 14.111-.628 23.567 15.482-6.468-2.878-35.242-2.22-7.361 24.218-12.747-6.837-10.845 16.813-27.26-15.062-12.455-31.218-30.533-44.71-50.189-35.481C7.408 44.622 4.22 52.694 3.6 60.775z" fill-rule="evenodd" stroke="#000" stroke-width="1.795" fill="url(#a)"/><path d="M1.054 72.13C-9.624 50.75 16.739 51.849 31.407 45.443c-15.953 21.321 5.207 2.732 22.764 3.396-6.821 1.261-17.835 11.546-3.589 7.987 9.446-2.689 15.477-9.924 29.297-4.87-6.931-.745-24.085 17.639-5.798 16.379 7.421-.63 14.111-.306 23.567 7.547-6.468-1.403-35.242-1.082-7.361 11.807-12.747-3.333-10.845 8.196-27.26-7.343C50.572 65.127 32.494 58.55 12.838 63.049 4.862 64.255 1.674 68.19 1.054 72.13z" transform="rotate(-33.929 48.11 67.077)" fill-rule="evenodd" stroke="#000" stroke-width="1.795" fill="url(#b)"/></pattern><pattern id="d" patternTransform="matrix(2.2793 0 0 1.49924 232.302 863.758)" xlink:href="#c"/><radialGradient id="a" gradientUnits="userSpaceOnUse" cy="184.955" cx="266.406" gradientTransform="matrix(.8831 -.00276 .00251 .8024 -178.95 -97.427)" r="59.4"><stop offset="0" stop-color="#67ff62"/><stop offset=".433" stop-color="#4a9ca9"/><stop offset="1" stop-color="#ffb829"/></radialGradient><radialGradient id="b" gradientUnits="userSpaceOnUse" cy="185.333" cx="267.201" gradientTransform="matrix(.8831 0 0 .39118 -181.03 -5.354)" r="59.4"><stop offset="0" stop-color="#6fff62"/><stop offset="1" stop-color="#ff2a2a"/></radialGradient></defs><path d="M210.836 792.118c0 15.899-9.514 40.757-9.514 57.803 0 9.418 1.465 17.872 1.465 26.745 0 16.413 2.194 32.922 2.194 49.176 0 5.993-2.194 11.282-2.194 15.529 0 5.853.731 10.812.731 14.667.974.863 5.123 4.915 5.123 5.176 2.234.863 1.464-.742 1.464-5.176 3.378-.863 8.349-5.177 14.635-5.177 2.407-1.974 7.139-.862 9.514-.862 0-19.489 5.855-40.503 5.855-61.255 0-9.027 2.195-15.744 2.195-22.431v-18.117-11.216c0 4.039.732 7.176.732 10.353v14.666c0 4.402-1.464 9.384-1.464 11.216v29.333c0 6.405 2.927 10.461 2.927 15.529 0 3.796.732 7.138.732 10.353 0 6.103.732 10.388.732 15.529 0 3.7 7.174 3.451 9.512 3.451 2.066 0 6.205.413 7.318 1.726h8.782c.731-4.811 7.317-14.119 7.317-19.843 4.235-10.846-.731-22.086-.731-31.059 0-10.642 2.195-18.132 2.195-27.607 0-3.612 2.219-25.02 2.927-25.02v-14.666c0-5.65-1.463-11.098-1.463-17.255 0-3.637-1.464-4.239-1.464-7.765-.732-1.652-2.195-5.385-2.195-8.627-.733-3.83-2.196-3.39-2.196-6.039-4.316 0-7.31-3.451-7.317-3.451h-9.514c-4.688 0-7.584-.863-10.977-.863-2.348 1.907-7.215.863-9.512.863h-5.855c-4.95 4.973-6.98.863-9.513.863-3.368-.863-4.078-2.589-7.318-2.589-2.708 0-4.39 2.962-4.39 5.177z" class="clothes" stroke="#000" fill="url(#d)"/></svg>