<?xml version="1.0" encoding="utf-8"?>
<svg class="pants" width="86" height="380" viewBox="202.715 584.407 86.5933 380.048" preserveAspectRatio="xMidYMid meet" xmlns="http://www.w3.org/2000/svg">
  <defs id="svgEditorDefs">
    <path id="svgEditorClosePathDefs" fill="moccasin" style="stroke-width: 0px; stroke: none; fill-opacity: 1;" class="clothes"/>
  </defs>
  <g transform="matrix(0.30158, -0.009191, 0, 0.230892, 203.774307, 753.9599)">
    <g id="layer1" transform="matrix(1, 0, 0, 1, -26.099001, -55.866001)">
      <g id="g6770" transform="matrix(1, 0, 0, 1, -248.115189, -1235.125854)">
        <path id="path6661" style="stroke-linejoin: round; stroke: rgb(0, 0, 0); stroke-width: 2; fill: rgb(255, 0, 0);" d="M 462.756 1418.813 L 449.404 1417.575 L 423.945 1416.567 C 405.377 1414.137 402.07 1416.897 386.367 1415.245 L 359.496 1414.861 L 340.987 1415.38 C 326.96 1417.241 339.14 1413.033 315.69 1419.658 L 269.22 1419.714 L 306.84 1434.59 C 306.72 1434.921 299.467 1425.097 299.367 1425.482 C 296.987 1433.361 297.617 1454.659 300.727 1461.988 L 271.468 1478.997 L 319.4 1474.758 C 326.09 1481.148 334.9 1486.824 345.42 1491.452 L 309.164 1530.208 L 374.14 1500.433 C 380.63 1501.756 387.44 1502.803 394.55 1503.464 C 400.43 1504.015 406.31 1504.235 412.09 1504.291 L 437.699 1537.114 L 444.57 1501.481 C 457.61 1499.166 469.65 1495.53 480.11 1490.736 L 531.836 1505.887 L 500.222 1478.147 C 524.652 1484.686 515.568 1461.125 518.208 1452.695 L 557.468 1450.432 L 518.66 1439.99 C 517.15 1430.734 513.74 1430.168 505.15 1422.509 L 505.719 1421.9 L 495.448 1421.378 C 471.956 1419.718 500.981 1422.754 483.801 1419.945 L 462.756 1418.813 Z"/>
        <path id="path6673" d="M 507.661 1437.317 C 479.481 1468.017 409.331 1478.439 346.871 1466.108 C 339.381 1464.611 332.351 1462.806 325.761 1460.742 C 336.431 1470.648 353.651 1478.749 375.761 1483.135 C 425.751 1493.041 481.881 1480.142 501.051 1454.344 C 506.281 1447.275 508.611 1444.386 507.661 1437.317 Z" style="fill: rgb(236, 83, 83);"/>
        <g id="g3490" transform="matrix(1.7683 -1.5909 1.5908 1.7683 -2577.4 -478.98)">
          <path id="path6737" d="M 379.63 1423.1 C 379.97 1423.7 380.16 1424.4 380.16 1425.2 C 380.16 1427.5 378.22 1429.5 375.83 1429.5 C 374.83 1429.5 373.91 1429.1 373.18 1428.6 C 373.92 1429.9 375.35 1430.8 376.99 1430.8 C 379.38 1430.8 381.32 1428.9 381.32 1426.5 C 381.32 1425.1 380.65 1423.9 379.63 1423.1 L 379.63 1423.1 Z" style="fill:#000000"/>
          <path id="path3472" d="M 374.24 1428.8 C 373.96 1428.3 373.8 1427.7 373.8 1427.1 C 373.8 1425.1 375.42 1423.4 377.42 1423.4 C 378.26 1423.4 379.03 1423.7 379.64 1424.2 C 379.02 1423.1 377.83 1422.3 376.46 1422.3 C 374.45 1422.3 372.83 1423.9 372.83 1425.9 C 372.83 1427.1 373.39 1428.1 374.24 1428.8 L 374.24 1428.8 Z" style="fill:#e4eaed"/>
        </g>
        <g id="g3494" transform="matrix(1.7683 -1.5909 1.5908 1.7683 -2533.4 -478.98)">
          <path id="path3496" d="M 379.63 1423.1 C 379.97 1423.7 380.16 1424.4 380.16 1425.2 C 380.16 1427.5 378.22 1429.5 375.83 1429.5 C 374.83 1429.5 373.91 1429.1 373.18 1428.6 C 373.92 1429.9 375.35 1430.8 376.99 1430.8 C 379.38 1430.8 381.32 1428.9 381.32 1426.5 C 381.32 1425.1 380.65 1423.9 379.63 1423.1 L 379.63 1423.1 Z" style="fill:#000000"/>
          <path id="path3498" d="M 374.24 1428.8 C 373.96 1428.3 373.8 1427.7 373.8 1427.1 C 373.8 1425.1 375.42 1423.4 377.42 1423.4 C 378.26 1423.4 379.03 1423.7 379.64 1424.2 C 379.02 1423.1 377.83 1422.3 376.46 1422.3 C 374.45 1422.3 372.83 1423.9 372.83 1425.9 C 372.83 1427.1 373.39 1428.1 374.24 1428.8 L 374.24 1428.8 Z" style="fill:#e4eaed"/>
        </g>
        <g id="g3500" transform="matrix(1.7911 -.95198 1.1163 2.1004 -1944.1 -1193.8)">
          <path id="path3502" d="M 379.63 1423.1 C 379.97 1423.7 380.16 1424.4 380.16 1425.2 C 380.16 1427.5 378.22 1429.5 375.83 1429.5 C 374.83 1429.5 373.91 1429.1 373.18 1428.6 C 373.92 1429.9 375.35 1430.8 376.99 1430.8 C 379.38 1430.8 381.32 1428.9 381.32 1426.5 C 381.32 1425.1 380.65 1423.9 379.63 1423.1 L 379.63 1423.1 Z" style="fill:#000000"/>
          <path id="path3504" d="M 374.24 1428.8 C 373.96 1428.3 373.8 1427.7 373.8 1427.1 C 373.8 1425.1 375.42 1423.4 377.42 1423.4 C 378.26 1423.4 379.03 1423.7 379.64 1424.2 C 379.02 1423.1 377.83 1422.3 376.46 1422.3 C 374.45 1422.3 372.83 1423.9 372.83 1425.9 C 372.83 1427.1 373.39 1428.1 374.24 1428.8 L 374.24 1428.8 Z" style="fill:#e4eaed"/>
        </g>
        <g id="g3518" transform="matrix(1.6778 -.87254 1.1431 2.0785 -1817.7 -1190.2)">
          <path id="path3520" d="M 379.63 1423.1 C 379.97 1423.7 380.16 1424.4 380.16 1425.2 C 380.16 1427.5 378.22 1429.5 375.83 1429.5 C 374.83 1429.5 373.91 1429.1 373.18 1428.6 C 373.92 1429.9 375.35 1430.8 376.99 1430.8 C 379.38 1430.8 381.32 1428.9 381.32 1426.5 C 381.32 1425.1 380.65 1423.9 379.63 1423.1 L 379.63 1423.1 Z" style="fill:#000000"/>
          <path id="path3522" d="M 374.24 1428.8 C 373.96 1428.3 373.8 1427.7 373.8 1427.1 C 373.8 1425.1 375.42 1423.4 377.42 1423.4 C 378.26 1423.4 379.03 1423.7 379.64 1424.2 C 379.02 1423.1 377.83 1422.3 376.46 1422.3 C 374.45 1422.3 372.83 1423.9 372.83 1425.9 C 372.83 1427.1 373.39 1428.1 374.24 1428.8 L 374.24 1428.8 Z" style="fill:#e4eaed"/>
        </g>
        <g id="g3524" transform="matrix(1.6778 -.87254 1.1431 2.0785 -1817.7 -1190.2)">
          <path id="path3526" d="M 379.63 1423.1 C 379.97 1423.7 380.16 1424.4 380.16 1425.2 C 380.16 1427.5 378.22 1429.5 375.83 1429.5 C 374.83 1429.5 373.91 1429.1 373.18 1428.6 C 373.92 1429.9 375.35 1430.8 376.99 1430.8 C 379.38 1430.8 381.32 1428.9 381.32 1426.5 C 381.32 1425.1 380.65 1423.9 379.63 1423.1 L 379.63 1423.1 Z" style="fill:#000000"/>
          <path id="path3528" d="M 374.24 1428.8 C 373.96 1428.3 373.8 1427.7 373.8 1427.1 C 373.8 1425.1 375.42 1423.4 377.42 1423.4 C 378.26 1423.4 379.03 1423.7 379.64 1424.2 C 379.02 1423.1 377.83 1422.3 376.46 1422.3 C 374.45 1422.3 372.83 1423.9 372.83 1425.9 C 372.83 1427.1 373.39 1428.1 374.24 1428.8 L 374.24 1428.8 Z" style="fill:#e4eaed"/>
        </g>
        <g id="g3542" transform="matrix(1.523 -.13857 .51676 2.2918 -826.01 -1770.3)">
          <path id="path3544" d="M 379.63 1423.1 C 379.97 1423.7 380.16 1424.4 380.16 1425.2 C 380.16 1427.5 378.22 1429.5 375.83 1429.5 C 374.83 1429.5 373.91 1429.1 373.18 1428.6 C 373.92 1429.9 375.35 1430.8 376.99 1430.8 C 379.38 1430.8 381.32 1428.9 381.32 1426.5 C 381.32 1425.1 380.65 1423.9 379.63 1423.1 L 379.63 1423.1 Z" style="fill:#000000"/>
          <path id="path3546" d="M 374.24 1428.8 C 373.96 1428.3 373.8 1427.7 373.8 1427.1 C 373.8 1425.1 375.42 1423.4 377.42 1423.4 C 378.26 1423.4 379.03 1423.7 379.64 1424.2 C 379.02 1423.1 377.83 1422.3 376.46 1422.3 C 374.45 1422.3 372.83 1423.9 372.83 1425.9 C 372.83 1427.1 373.39 1428.1 374.24 1428.8 L 374.24 1428.8 Z" style="fill:#e4eaed"/>
        </g>
        <path id="path5580" d="M 363.588 1483.469 C 357.588 1489.075 321.593 1521.604 323.593 1519.626 C 325.593 1517.647 381.39 1488.97 378.39 1487.651 C 375.39 1486.332 365.088 1483.799 363.588 1483.469 Z" style="fill: rgb(225, 225, 225);"/>
        <path id="path5582" d="M 415.39 1490.289 C 423.39 1504.8 433.39 1514.034 433.39 1514.034 L 443.39 1488.97 L 417.89 1490.289" style="fill: rgb(255, 87, 87);"/>
        <path id="path5584" d="M 476.39 1478.088 C 476.39 1478.088 528.47 1504.752 527.47 1503.433 C 526.47 1502.113 496.39 1464.896 496.39 1464.896 L 476.39 1478.088 Z" style="fill: rgb(151, 0, 0);"/>
        <path id="path-1" d="M 311.823 1452.164 C 306.873 1457.77 277.118 1490.298 278.763 1488.32 C 280.407 1486.341 327.606 1457.665 324.927 1456.346 C 322.248 1455.027 313.147 1452.494 311.823 1452.164 Z" transform="matrix(0.935062, 0.474383, -0.311013, 0.911662, 476.879714, -13.318788)" style="fill: rgb(255, 202, 202);"/>
      </g>
    </g>
  </g>
</svg>