<svg class="bottomOverlay" width="86" height="380" viewBox="202.715 584.407 86.593 380.048" xmlns="http://www.w3.org/2000/svg" xmlns:xlink="http://www.w3.org/1999/xlink"><defs><pattern id="b" width="20" height="20" patternUnits="userSpaceOnUse" viewBox="0 0 100 100"><path d="M18.143 1049.2l-5.93-3.003-5.834 3.182 1.024-6.567-4.83-4.567 6.563-1.055 2.85-6.004 3.032 5.915 6.59.855-4.688 4.711z" stroke="url(#a)" stroke-width="1.201" fill="#bada55" transform="matrix(4.27041 0 0 4.52306 -.643 -4655.862)"/><path d="M55.172 50.246c0 3.132-5.563 7.206-7.553 9.196-3.517 3.517-1.944 2.003-5.419 5.254-1.694 1.585-2.134 2.155-3.776 3.284-.849.584-1.86 1.34-2.792 1.807-3.912 1.955-3.824-5.113-3.284-6.733.334-1.003.823-1.95 1.15-2.955.447-1.379 1.126-6.389 2.627-7.39 1.65-1.1 6.217 1.291 7.225 2.299.184.185.492 2.299.492 2.299s-.023-1.114 0-1.149c.231-.346 1.212-.878 1.642-.986 1.387-.346 3.586.069 4.762.657" stroke="#000" fill="#dab255"/><path d="M69.951 44.828c-.318 1.588-1.097 2.617-.821 4.269.045.273.821 2.135.821 2.135s-1.883-.833-2.792-1.314c-2.693-1.426-4.654-3.887-7.389-5.255-.381-.19-1.642-1.477-1.642-1.477s.517 2.274.328 2.463c-1.1 1.1-2.127 2.12-2.955 3.776-.038.075-1.213 2.072-1.314 1.971-.418-.418.128-2.883.164-3.284.329-3.612-1.234-5.446 2.628-6.733 1.927-.642 2.463 1.478 3.448 2.463.405.405 2.205.266 2.791.657.592.395 2.463.141 2.463-.492" stroke="#000" fill="#5c6b2d"/><path d="M63.054 59.278c0 5.901-9.505 9.87-4.269 15.106.472.473 2.809-.198 2.956-.492 1.491-2.983.167-6.244 2.627-8.703.621-.622 1.459 1.222 1.642 1.313 1.132.566 2.91.06 4.105.657.734.367.743-2.212.493-2.463-.445-.444-1.204-1.258-1.971-1.642-1.945-.973-4.216 1.367-5.254.329-.05-.05-.062-1.252 0-1.314.397-.398 1.782.024 2.134-.328.747-.747 1.749-.928 2.463-1.642 1.075-1.076-.483-4.607-.985-4.106-.264.265.429.393.164.657-.635.635-1.609-.914-2.134-1.642-.657-.909-2.549-5.622-4.598-4.597-.783.391-.696 1.681-1.149 2.134-1.77 1.77-1.43 3.825.328 5.583 1.464 1.464 1.21 2.792 3.284 2.792" stroke="#000" fill="#cb8626"/><path d="M26.601 44.171c1.75 0 1.444 1.592 2.956 1.97 3.06.765 6.147.949 9.359 1.15.506.031 2.534.554 3.12.164a388.75 388.75 0 0 1 4.269-2.792c1.097-.709 5.34-3.07 4.598-4.926-.657-1.643-1.815-3.232-3.448-3.776-.319-.107-1.548-.752-1.971-.329-.542.543-1.151 1.316-1.642 1.806-.901.902-2.311 1.049-2.627 2.628-.187.937-.673 2.577-.328 3.612.039.119.537 2.419.492 2.463-.615.616-3.565-.289-4.433 0-.161.054-.956.358-1.15.164-.546-.546-.577-1.726-.985-2.134-.957-.958-3.228-.766-4.105-1.642-.296-.296-.906-2.299-1.149-2.299-.281 0-.298.559-.493.657-1.237.618-1.934-.53-2.791.328-.329.329-1.642-.328-1.971 0-.222.223.164.892.164 1.15 0 1.842.386 2.134 2.299 2.134" stroke="#000" fill="#885a2c"/><path d="M50.082 18.227c0 3.006-1.061 7.805.985 9.852 1.651 1.651 4.182 2.474 5.583-.329.354-.708-1.642-3.865-1.642-4.761" stroke="#000" fill="#b08280"/></pattern><pattern id="c" patternTransform="matrix(1.96728 0 0 1.87367 202.348 831.931)" xlink:href="#b"/><linearGradient id="a" x1="5" spreadMethod="reflect" gradientUnits="userSpaceOnUse" y1="102.36" gradientTransform="translate(1.129 1027.8) scale(.20017)" x2="55" y2="72.362"><stop offset="0" stop-color="#555"/><stop offset=".459" stop-color="#555"/><stop offset="1" stop-color="#bfbfbf"/></linearGradient></defs><path d="M210.836 792.118c0 15.899-9.514 40.757-9.514 57.803 0 9.418 1.465 17.872 1.465 26.745 0 16.413 2.194 32.922 2.194 49.176 0 5.993-2.194 11.282-2.194 15.529 0 5.853.731 10.812.731 14.667.974.863 5.123 4.915 5.123 5.176 2.234.863 1.464-.742 1.464-5.176 3.378-.863 8.349-5.177 14.635-5.177 2.407-1.974 7.139-.862 9.514-.862 0-19.489 5.855-40.503 5.855-61.255 0-9.027 2.195-15.744 2.195-22.431v-18.117-11.216c0 4.039.732 7.176.732 10.353v14.666c0 4.402-1.464 9.384-1.464 11.216v29.333c0 6.405 2.927 10.461 2.927 15.529 0 3.796.732 7.138.732 10.353 0 6.103.732 10.388.732 15.529 0 3.7 7.174 3.451 9.512 3.451 2.066 0 6.205.413 7.318 1.726h8.782c.731-4.811 7.317-14.119 7.317-19.843 4.235-10.846-.731-22.086-.731-31.059 0-10.642 2.195-18.132 2.195-27.607 0-3.612 2.219-25.02 2.927-25.02v-14.666c0-5.65-1.463-11.098-1.463-17.255 0-3.637-1.464-4.239-1.464-7.765-.732-1.652-2.195-5.385-2.195-8.627-.733-3.83-2.196-3.39-2.196-6.039-4.316 0-7.31-3.451-7.317-3.451h-9.514c-4.688 0-7.584-.863-10.977-.863-2.348 1.907-7.215.863-9.512.863h-5.855c-4.95 4.973-6.98.863-9.513.863-3.368-.863-4.078-2.589-7.318-2.589-2.708 0-4.39 2.962-4.39 5.177z" class="clothes" stroke="#000" fill="url(#c)"/></svg>