<?xml version="1.0" encoding="utf-8"?>
<svg class="pants" width="86" height="380" viewBox="202.715 584.407 86.5933 380.048" preserveAspectRatio="xMidYMid meet" xmlns="http://www.w3.org/2000/svg">
  <defs id="svgEditorDefs">
    <path id="svgEditorClosePathDefs" fill="moccasin" style="stroke-width: 0px; stroke: none; fill-opacity: 1;" class="clothes"/>
  </defs>
  <g transform="matrix(1, 0, 0, 1, -3.744315, -0.624053)">
    <path d="M 258.256 801.577 C 258.256 812.201 261.104 818.427 273.233 818.427 C 274.66 818.427 280.078 820.318 281.346 819.051 C 282.97 817.426 280.722 814.484 280.722 812.186 C 280.722 809.741 281.43 804.158 280.098 802.825 C 279.917 802.645 275.91 802.645 275.729 802.825 C 272.534 806.02 262.679 801.577 259.504 801.577" style="stroke: rgb(0, 0, 0); fill: rgb(150, 215, 255);"/>
    <path d="M 218.316 803.449 C 218.316 802.245 239.257 800.052 240.782 801.577 C 241.53 802.325 235.982 815.114 235.166 815.93 C 233.931 817.166 229.376 816.555 227.053 816.555 C 225.7 816.555 219.131 817.993 218.94 817.803 C 217.629 816.491 217.068 801.11 217.068 799.705" style="stroke: rgb(0, 0, 0); fill: rgb(150, 215, 255);"/>
  </g>
</svg>