<svg class="accessories" id="accessory2" width="86" height="380" viewBox="202.715 584.407 86.5933 380.048" preserveAspectRatio="xMidYMax" xmlns="http://www.w3.org/2000/svg"> <defs id="svgEditorDefs"> <path id="svgEditorClosePathDefs" fill="black" style="stroke-width: 0px; stroke: none;" class="clothes"/> <style id="style3891" type="text/css">.str0 {stroke:black;stroke-width:0.238063} .fil0 {fill:black} .fil2 {fill:#050707} .fil3 {fill:#881846} .fil5 {fill:#F6BCD6} .fil1 {fill:#F9DD56} .fil4 {fill:#FDFCFD}</style> </defs> <rect id="svgEditorBackground" x="202.71499633789062" y="584.4310302734375" width="86.59329986572266" height="115.80899810791016" style="fill: none; stroke: none;" class="clothes"/> <rect id="rect-1" x="-403.988" y="499.579" width="1300" height="550" style="fill: none; stroke: none;" class="clothes"/> <g transform="matrix(0.247755, 0, 0, 0.244432, 224.25766, 664.985291)"/> <path d="M 214.266 726.963 C 214.266 710.123 224.902 655.758 229.408 665.802 C 231.713 670.934 218.051 704.648 218.051 716.421" style="stroke: rgb(0, 0, 0); fill: rgb(183, 116, 22);" transform="matrix(0.947429, -0.319966, 0.319966, 0.947429, -210.953187, 107.599451)"/> <g transform="matrix(0.097807, 0, 0, 0.173137, 556.570496, 747.031738)"> <g id="layer1" transform="matrix(1, 0, 0, 1, -27.709, -32.914001)"/> </g> <path d="M 247.785 695.012 C 254.276 695.012 258.557 668.088 261.184 659.079 C 261.335 658.562 260.575 653.23 260.575 653.23 C 260.575 653.23 267.018 661.103 266.056 662.423 C 261.977 668.019 253.32 701.697 249.003 701.697" style="stroke: rgb(0, 0, 0); fill: rgb(183, 116, 22);"/> <path d="M 305.645 810.365 L 305.645 810.365" style="stroke: rgb(0, 0, 0); fill: rgb(183, 116, 22);"/> <g transform="matrix(0.07184, -0.023714, 0.027233, 0.082499, 192.57782, 698.777771)"> <g id="g-1" transform="translate(229.06 -205.99)"> <path id="path3231" style="fill-rule:evenodd;stroke:#000000;stroke-width:7.092px;fill:#000000" d="m110.13 429.96l137.65-98.8c72.14-45.97 123.34-20.32 127.27-7.41-108.92 39.89-129.28 97.19-88.31 117.33l592.16-196.37c7.95 21.94 16.06 40.56 20.78 54.03l-601.25 210.26c-71.66 23-67.68 108.56 14.28 96.34 35.27-10.12 83.37-4.07 38.96 39.52-29.89 26.25-65.88 26.41-102.59 23.46-44.91-1.86-87.06-5.41-135.05 49.41-53.429 82.83-198.01 158.39-281.8 76.57-93.64-130.76-84.21-331.48 109.08-370.51l168.82 6.17z"/> <path id="path3233" style="fill-rule:evenodd;stroke:#000000;stroke-width:7.092px;fill:#ffffff" d="m-26.223 633.74c-16.55 90.8-56.434 130.5-103.89 149.44l-1.3 16.06c54.541 5.23 109.08 5.86 163.62-40.76 63.233-55.69 92.05-130.48 272.71-121.03 22.8-2.43 40.7-7.95 42.85-23.47-71.83 16.64-126.5-5.35-112.97-82.74l-246.09 86.45-14.933 16.05z"/> <path id="path3235" style="fill-rule:evenodd;stroke:#000000;stroke-width:7.092px;fill:#808080" d="m-34.015 536.79l23.375 80.9-18.18 18.52-18.181 8.65-14.284 8.64-42.855-4.94-20.78-66.69 24.68-18.52 14.281-22.23 24.674-6.18 27.27 1.85z"/> <path id="path3239" style="fill-rule:evenodd;stroke:#000000;stroke-width:7.092px;fill:#ffffff" d="m-36.612 530c-0.239-24.29 11.201-44.25 72.722-45.7 106.99 1.14 143.37-27.93 183.1-55.57 22.71-5.95 29.07 11.05 31.17 24.7l-283.1 90.16-3.892-13.59z"/> <path id="path3237" style="fill-rule:evenodd;stroke:#000000;stroke-width:7.092px;fill:#ffffff" d="m-30.119 542.97l20.778 77.19 905.12-319.88-18.18-55.57-907.72 297.64 0.001 0.62z"/> <path id="path3241" style="fill:#ff0000" d="m365 796.65a1.6071 1.4286 0 1 1 -3.21 0 1.6071 1.4286 0 1 1 3.21 0z" transform="matrix(7.2722 0 0 6.9162 -2642.9 -4864.9)"/> <path id="path4215" style="fill:#000000" d="m365 796.65a1.6071 1.4286 0 1 1 -3.21 0 1.6071 1.4286 0 1 1 3.21 0z" transform="matrix(7.2722 0 0 6.9162 -2667.3 -4795)"/> <path id="path4217" style="fill:#000000" d="m365 796.65a1.6071 1.4286 0 1 1 -3.21 0 1.6071 1.4286 0 1 1 3.21 0z" transform="matrix(7.2722 0 0 6.9162 -2654.4 -4829)"/> <path id="path4219" style="stroke:#000000;stroke-width:7.092px;fill:none" d="m27.669 686.85l-4.545 19.14 6.493-1.85 4.545-14.82-6.493-2.47z"/> <path id="path5190" style="fill-rule:evenodd;stroke:#000000;stroke-width:7.092px;fill:#000000" d="m5.5927 517.65l27.27 102.51 22.077-7.41-29.868-102.51-19.479 7.41z"/> <path id="path5192" style="fill-rule:evenodd;stroke:#000000;stroke-width:7.092px;fill:#000000" d="m67.926 499.74l30.517 100.04 20.127-6.18-33.113-100.03-17.531 6.17z"/> <path id="path5194" style="fill-rule:evenodd;stroke:#000000;stroke-width:7.092px;fill:#000000" d="m128.31 482.45l32.47 99.42 18.83-6.17-36.37-98.19-14.93 4.94z"/> <path id="path5196" style="stroke:#000000;stroke-width:7.092px;fill:none" d="m-24.924 554.7l911.61-301.35-911.61 301.35z"/> <path id="path5198" style="stroke:#000000;stroke-width:7.3634px;fill:none" d="m-11.799 602.74l923.03-320.85-923.03 320.85z"/> <path id="path5200" style="stroke:#000000;stroke-width:7.2031px;fill:none" d="m-24.775 570.96l921.7-307.93-921.7 307.93z"/> <path id="path5202" style="stroke:#000000;stroke-width:7.2691px;fill:none" d="m-17.042 586.73l920.53-313.53-920.53 313.53z"/> <path id="path5216" style="stroke:#000000;stroke-width:7.092px;fill:none" d="m251.03 445.92l23.37 71.83-23.37-71.83z"/> <path id="path5220" style="stroke:#000000;stroke-width:6.3237px;fill:none" d="m558.41 347.98l19.56 68.21-19.56-68.21z"/> <path id="path5222" style="stroke:#000000;stroke-width:6.1009px;fill:none" d="m610.24 331.81l18.87 65.81-18.87-65.81z"/> <path id="path5224" style="stroke:#000000;stroke-width:6.1009px;fill:none" d="m660.88 314.52l18.88 65.81-18.88-65.81z"/> <path id="path5226" style="stroke:#000000;stroke-width:5.9649px;fill:none" d="m712.76 299.64l19.01 62.44-19.01-62.44z"/> <path id="path5228" style="stroke:#000000;stroke-width:5.8953px;fill:none" d="m756.87 284.78l19.09 60.77-19.09-60.77z"/> <path id="path5230" style="stroke:#000000;stroke-width:5.4323px;fill:none" d="m800.79 270.97l16.8 58.6-16.8-58.6z"/> <path id="path5232" style="stroke:#000000;stroke-width:5.5877px;fill:none" d="m841.12 254.99l17.57 59.32-17.57-59.32z"/> <path id="path5234" style="stroke:#000000;stroke-width:7.092px;fill:none" d="m296.48 434.81l23.37 71.82-23.37-71.82z"/> <path id="path5236" style="stroke:#000000;stroke-width:6.2893px;fill:none" d="m358.82 414.92l21.36 65.96-21.36-65.96z"/> <path id="path5238" style="stroke:#000000;stroke-width:6.6455px;fill:none" d="m419.62 396.3l21.99 67.02-21.99-67.02z"/> <path id="path5240" style="stroke:#000000;stroke-width:6.3413px;fill:none" d="m458.42 382.57l20.47 65.57-20.47-65.57z"/> <path id="path5242" style="stroke:#000000;stroke-width:6.4792px;fill:none" d="m505.24 365.35l20.33 68.92-20.33-68.92z"/> <path id="path5244" style="stroke:#000000;stroke-width:7.092px;fill:none" d="m251.03 445.92l23.37 71.83-23.37-71.83z"/> <path id="path5246" style="stroke:#000000;stroke-width:7.092px;fill:none" d="m251.03 445.92l23.37 71.83-23.37-71.83z"/> <path id="path5248" style="stroke:#000000;stroke-width:7.092px;fill:none" d="m251.03 445.92l23.37 71.83-23.37-71.83z"/> <path id="path5250" style="stroke:#000000;stroke-width:7.092px;fill:none" d="m389.98 402.7l23.37 71.82-23.37-71.82z"/> <path id="path5252" style="stroke:#000000;stroke-width:7.092px;fill:none" d="m325.05 423.69l23.37 71.83-23.37-71.83z"/> <path id="path5254" style="stroke:#000000;stroke-width:7.092px;fill:none" d="m271.81 440.98l23.37 71.83-23.37-71.83z"/> <path id="path5256" style="fill-rule:evenodd;stroke:#000000;stroke-width:7.092px;fill:#000000" d="m878.25 243.47l5.85-8.03 155.8-15.43 32.5 5.55 11.7 11.12 7.1 17.91-2.6 16.67-7.1 9.26-10.4-3.7-5.2-12.97-12.3-3.09-8.5-0.62-86.33 48.79-20.13 1.85h-18.83l-12.34-8.64-7.14-4.33-22.08-54.34z"/> <path id="path5258" style="fill-rule:evenodd;stroke:#000000;stroke-width:5.0284px;fill:#000000" d="m897.97 222.12l1.43 11.86 12.38-0.42-1.43-12.71-12.38 1.27z"/> <path id="path5260" style="fill-rule:evenodd;stroke:#000000;stroke-width:5.0284px;fill:#000000" d="m1030.4 209.77l1.5 11.86 12.3-0.42-1.4-12.71-12.4 1.27z"/> <path id="path5262" style="fill-rule:evenodd;stroke:#000000;stroke-width:5.0284px;fill:#000000" d="m1004.5 212.24l1.4 11.86 12.4-0.42-1.5-12.71-12.3 1.27z"/> <path id="path5264" style="fill-rule:evenodd;stroke:#000000;stroke-width:5.0284px;fill:#000000" d="m979.14 214.71l1.42 11.86 12.38-0.42-1.43-12.71-12.37 1.27z"/> <path id="path5266" style="fill-rule:evenodd;stroke:#000000;stroke-width:5.0284px;fill:#000000" d="m952.51 217.18l1.43 11.86 12.38-0.42-1.43-12.71-12.38 1.27z"/> <path id="path5268" style="fill-rule:evenodd;stroke:#000000;stroke-width:5.0284px;fill:#000000" d="m923.94 219.65l1.43 11.86 12.38-0.42-1.43-12.71-12.38 1.27z"/> </g> </g></svg>