<svg class="accessories" width="86" height="380" viewBox="202.715 584.407 132.25 380.048" xmlns="http://www.w3.org/2000/svg"><defs><linearGradient id="a" y2="470.22" gradientUnits="userSpaceOnUse" x2="223.04" gradientTransform="translate(-402.68 -867.32) scale(2.6321)" y1="436.68" x1="205.64"><stop offset="0" stop-color="#e9b96e"/><stop offset="1" stop-color="#8f5902"/></linearGradient><linearGradient id="b" y2="467.81" gradientUnits="userSpaceOnUse" x2="193.13" gradientTransform="translate(-395.39 -847.9) scale(2.6321)" y1="455.39" x1="193.13"><stop offset="0" stop-color="#e9b96e"/><stop offset="1" stop-color="#e9b96e" stop-opacity="0"/></linearGradient><linearGradient id="d" y2="434.88" gradientUnits="userSpaceOnUse" x2="221.7" gradientTransform="translate(-402.68 -867.32) scale(2.6321)" y1="467.41" x1="233.85"><stop offset="0" stop-color="#8f5902"/><stop offset="1" stop-color="#8f5902" stop-opacity=".02"/></linearGradient><linearGradient id="i" y2="316.78" gradientUnits="userSpaceOnUse" x2="247.69" y1="313.45" x1="248.91"><stop offset="0" stop-color="#babdb6"/><stop offset="1" stop-color="#888a85"/></linearGradient><linearGradient id="j" y2="324.2" gradientUnits="userSpaceOnUse" x2="251.88" y1="320.23" x1="253.09"><stop offset="0" stop-color="#babdb6"/><stop offset="1" stop-color="#888a85"/></linearGradient><linearGradient id="k" y2="295.01" gradientUnits="userSpaceOnUse" x2="199.34" y1="288.65" x1="205.9"><stop offset="0" stop-color="#babdb6"/><stop offset="1" stop-color="#888a85"/></linearGradient><linearGradient id="l" y2="283.46" gradientUnits="userSpaceOnUse" x2="241.67" y1="276.77" x1="241.32"><stop offset="0" stop-color="#babdb6"/><stop offset="1" stop-color="#888a85"/></linearGradient><linearGradient id="m" y2="317.61" gradientUnits="userSpaceOnUse" x2="230.88" y1="313.15" x1="231.92"><stop offset="0" stop-color="#babdb6"/><stop offset="1" stop-color="#888a85"/></linearGradient><linearGradient id="n" y2="308.57" gradientUnits="userSpaceOnUse" x2="243.16" gradientTransform="translate(-50.921 -2.86)" y1="302.01" x1="246.06"><stop offset="0" stop-color="#babdb6"/><stop offset="1" stop-color="#888a85"/></linearGradient><linearGradient id="e" y2="258.15" gradientUnits="userSpaceOnUse" x2="132.94" gradientTransform="translate(0 .75)" y1="257.22" x1="120.56"><stop offset="0" stop-color="#9f6a15"/><stop offset="1" stop-color="#9f6a15" stop-opacity="0"/></linearGradient><linearGradient id="f" y2="165.97" gradientUnits="userSpaceOnUse" x2="96.969" gradientTransform="translate(55.154 96.167)" y1="157.36" x1="132.01"><stop offset="0" stop-color="#9f6a15"/><stop offset="1" stop-color="#9f6a15" stop-opacity="0"/></linearGradient><linearGradient id="g" y2="241.11" gradientUnits="userSpaceOnUse" x2="139.75" y1="246.11" x1="161.25"><stop offset="0" stop-color="#945f08"/><stop offset="1" stop-color="#e0b064"/></linearGradient><radialGradient id="h" gradientUnits="userSpaceOnUse" cy="304.79" cx="164.42" gradientTransform="matrix(1 0 0 1.2424 0 -73.889)" r="16.5"><stop offset="0" stop-color="#ffffc0"/><stop offset="1" stop-color="#ffffc0" stop-opacity="0"/></radialGradient><linearGradient id="o" y2="316.78" gradientUnits="userSpaceOnUse" x2="247.69" gradientTransform="translate(.159 3.118)" y1="313.45" x1="248.91"><stop offset="0" stop-color="#babdb6"/><stop offset="1" stop-color="#888a85"/></linearGradient><linearGradient id="p" y2="324.2" gradientUnits="userSpaceOnUse" x2="251.88" gradientTransform="translate(.924 4.877)" y1="320.23" x1="253.09"><stop offset="0" stop-color="#babdb6"/><stop offset="1" stop-color="#888a85"/></linearGradient><linearGradient id="q" y2="283.46" gradientUnits="userSpaceOnUse" x2="241.67" gradientTransform="translate(.038 1.683)" y1="276.77" x1="241.32"><stop offset="0" stop-color="#babdb6"/><stop offset="1" stop-color="#888a85"/></linearGradient><linearGradient id="r" y2="317.61" gradientUnits="userSpaceOnUse" x2="230.88" gradientTransform="translate(.025 4.053)" y1="313.15" x1="231.92"><stop offset="0" stop-color="#babdb6"/><stop offset="1" stop-color="#888a85"/></linearGradient><linearGradient id="c" y2="888.67" gradientUnits="userSpaceOnUse" x2="-570.22" gradientTransform="translate(2.293)" y1="875.75" x1="-574.24"><stop offset="0" stop-color="#f4f2f3"/><stop offset="1" stop-color="#888a85"/></linearGradient></defs><path d="M161.54 234.62s-58.423 3.676-45.593 21.903c10.059 14.289 26.039 20.493 15.699 28.014 0 0-100.21 102 10.247 117.88 86.727 16.504 99.713-80.168 22.655-118.63.94-15.605 29.894-50.575-3.008-49.165z" stroke="#c17d11" stroke-width="2.632" fill="url(#a)" transform="matrix(.48327 0 0 .48327 218.045 651.735)"/><path d="M127.49 304.17c-15.171.315-53.047 66.517-11.685 85.788-13.631-27.262 3.91-74.047 11.685-85.788z" fill="url(#b)" transform="matrix(.48327 0 0 .48327 218.045 651.735)"/><path d="M-573.4 889.82v-3.461c-2.479-.035-5.043-.652-6.539-1.508l1.025-2.297c1.539.822 3.761 1.475 6.155 1.475 3.033 0 5.084-1.406 5.084-3.359 0-1.885-1.667-3.051-4.829-4.08-4.358-1.369-7.052-2.945-7.052-5.928 0-2.844 2.522-5.003 6.454-5.518v-3.461h2.649v3.324c2.565.068 4.316.617 5.557 1.199l-1.068 2.262c-.898-.41-2.65-1.166-5.387-1.166-3.29 0-4.528 1.58-4.528 2.949 0 1.781 1.58 2.672 5.299 3.906 4.401 1.439 6.625 3.221 6.625 6.273 0 2.705-2.351 5.242-6.753 5.824v3.564h-2.692z" fill="url(#c)" transform="matrix(1.26477 0 0 1.26477 1015.204 -286.733)"/><path d="M170 287.64a18.724 18.724 0 0 0-.658 1.727c34.702 30.636 42.357 70.802 30.763 98.541 23.558-24.934 14.963-73.198-30.105-100.27z" fill="url(#d)" transform="matrix(.48327 0 0 .48327 218.045 651.735)"/><path d="M125.5 242.51c-1.511.272-6.129 2.94-7.367 3.791-1.786 1.435-3.927 3.352-3.572 5.893.483 2.772 2.54 4.891 4.262 6.99 3.816 4.26 7.8 8.377 11.98 12.28 1.114 1.012 2.298 2.102 3.861 2.215.958 1.295 2.708.919 4.13.885 1.147-.218 3.175.405 3.68.353-7.628-10.443-25.066-24.088-16.974-32.407z" fill="url(#e)" transform="matrix(.48327 0 0 .48327 218.045 651.735)"/><path d="M170.4 236.26l-18.281 39c1.688.232 3.054-1.206 4.915-.802 1.601-.092 3.343.182 4.818-.573 1.099-1.396 3.155-.472 4.371-1.667 2.095-2.037 3.015-4.924 4.208-7.52 2.25-5.561 4.745-11.089 5.997-16.982.543-2.929.524-6.277-1.28-8.79-1.17-1.435-2.982-2.249-4.748-2.666z" fill="url(#f)" transform="matrix(.48327 0 0 .48327 218.045 651.735)"/><path d="M166.88 234.95c-3.78-.058-7.611-.678-11.348.186-12.521 1.331-22.823 2.02-32.096 10.991-1.578 10.35 19.408 7.678 25.065 5.97 5.328-2.344 16.258-5.112 14.985-12.874-6.431-4.482-20.41 1.233-27.216 3.024" stroke="#c17d11" stroke-width="2.62" fill="url(#g)" transform="matrix(.48327 0 0 .48327 218.045 651.735)"/><path d="M176.04 316.4c-.46.46-9.904-7.905-10.519-7.69-.615.215-2.782 12.644-3.43 12.57-.647-.072.007-12.671-.545-13.018-.552-.347-11.62 5.708-11.966 5.156-.347-.551 9.91-7.896 9.838-8.544-.073-.647-11.708-5.525-11.493-6.14.215-.615 12.353 2.825 12.814 2.365.46-.461-2.98-12.6-2.365-12.814.615-.216 5.493 11.42 6.14 11.492.648.073 7.993-10.185 8.545-9.838.551.347-5.504 11.415-5.157 11.966.347.552 12.946-.101 13.02.546.072.648-12.357 2.815-12.572 3.43-.215.615 8.151 10.058 7.69 10.519z" transform="matrix(.34415 0 0 .34415 230.651 725.912)" fill="url(#h)"/><path d="M298.442 784.925a.569.569 0 0 0-.272.317l-.12.392-1.209-.166c-.243-.031-.522.129-.634.348l-2.084 4.062c-.112.219-.002.422.241.453l1.435.196a.692.692 0 0 0 .65-.347l.543-1.057-.136.423c-.07.231.076.423.318.423h1.102a.622.622 0 0 0 .559-.423l.15-.483a57.67 57.67 0 0 0-1.343-.695c.06-1.001.364-2.175.8-3.443zm-15.253.453c.447 1.15.127 2.217-1.435 3.352 0 0-.67.689-1.661 1.782h1.374a.71.71 0 0 0 .59-.362l-.303.589c-.118.231-.003.423.257.423h2.416c.26 0 .562-.192.68-.423l2.205-4.304c.118-.232.003-.423-.257-.423h-2.416c-.26 0-.561.191-.68.423l-1.842 3.61 1.706-4.26c.094-.23-.037-.407-.287-.407h-.347zm9.605.77c-.26 0-.576.176-.695.408l-2.205 4.304c-.118.231-.003.423.257.423h2.417c.26 0 .56-.192.68-.423l2.204-4.304c.119-.232.003-.408-.257-.408h-2.401zm-4.44.272c-.265 0-.58.191-.71.423l-2.401 4.304c-.13.231-.023.407.242.407h2.703c.265 0 .58-.176.71-.407l2.401-4.304c.13-.232.023-.423-.242-.423h-2.703z" opacity=".301" stroke-linejoin="round" stroke="#2e3436" stroke-width=".7432692599999999" fill="#2e3436"/><g transform="matrix(.48327 0 0 .48327 241.121 652.701)" stroke-linejoin="round" stroke="#888a85"><rect ry=".971" transform="skewX(-27.117) scale(1 .89008)" height="11.953" width="6.924" y="307.47" x="245.45" stroke-width="1.63" fill="url(#i)"/><rect transform="skewX(-29.187) scale(1 .87303)" ry=".99" height="12.187" width="7.553" y="314.14" x="249.31" stroke-width="1.646" fill="url(#j)"/><rect ry=".903" transform="skewX(-16.838) scale(1 .95713)" height="11.116" width="4.092" y="283.09" x="199.66" stroke-width="1.572" fill="url(#k)"/><rect transform="matrix(.99174 .12828 -.45433 .89083 0 0)" ry=".918" height="11.297" width="4.828" y="271.12" x="238.91" stroke-width="1.585" fill="url(#l)"/><rect ry=".971" transform="skewX(-27.117) scale(1 .89008)" height="11.953" width="6.924" y="307.18" x="228.46" stroke-width="1.63" fill="url(#m)"/><rect transform="skewX(-21.979) scale(1 .92732)" ry=".932" height="11.473" width="5.457" y="293.41" x="192.41" stroke-width="1.597" fill="url(#n)"/></g><path d="M299.278 791.338a.49.49 0 0 0 .254.47l3.068 1.512c.165.081.312.004.333-.178l.127-1.077a.516.516 0 0 0-.257-.486l-1.29-.622.262.068c.173.05.308-.053.305-.234l-2.802.547zm1.06 1.211c-.057.035-.083.105-.081.202l.026 1.8a.624.624 0 0 0 .322.504l3.241 1.598c.174.086.318.005.315-.19l-.026-1.8a.625.625 0 0 0-.323-.503l-3.244-1.614a.24.24 0 0 0-.23.003zm.79 3.152c-.056.034-.082.103-.08.202l.025 2.017a.688.688 0 0 0 .329.532l3.242 1.753c.175.094.318.008.315-.19l-.026-2.017a.688.688 0 0 0-.329-.533l-3.242-1.752c-.087-.047-.178-.046-.234-.012zm-.392 3.108c-.112-.002-.186.079-.184.224l.03 1.816a.625.625 0 0 0 .322.503l3.24 1.598c.175.086.315-.01.312-.205l-.026-1.8a.625.625 0 0 0-.322-.503l-3.24-1.599a.332.332 0 0 0-.132-.034z" opacity=".365" stroke-linejoin="round" stroke="#2e3436" stroke-width=".7432692599999999" fill="#2e3436"/><g transform="rotate(-78.927 588.03 287.175) scale(.3615)" stroke-linejoin="round" stroke="#888a85"><rect transform="skewX(-27.117) scale(1 .89008)" ry=".971" height="11.953" width="6.924" y="310.59" x="245.61" stroke-width="2.179" fill="url(#o)"/><rect ry=".99" transform="skewX(-29.187) scale(1 .87303)" height="12.187" width="7.553" y="319.01" x="250.24" stroke-width="2.2" fill="url(#p)"/><rect transform="skewX(-16.838) scale(1 .95713)" ry=".903" height="11.116" width="4.092" y="283.09" x="199.66" stroke-width="2.101" fill="url(#k)"/><rect ry=".918" transform="matrix(.99174 .12828 -.45433 .89083 0 0)" height="11.297" width="4.828" y="272.81" x="238.95" stroke-width="2.119" fill="url(#q)"/><rect transform="skewX(-27.117) scale(1 .89008)" ry=".971" height="11.953" width="6.924" y="311.23" x="228.49" stroke-width="2.179" fill="url(#r)"/></g><path transform="matrix(.48327 0 0 .48327 222.792 659.587)" d="M176.04 316.4c-.46.46-9.904-7.905-10.519-7.69-.615.215-2.782 12.644-3.43 12.57-.647-.072.007-12.671-.545-13.018-.552-.347-11.62 5.708-11.966 5.156-.347-.551 9.91-7.896 9.838-8.544-.073-.647-11.708-5.525-11.493-6.14.215-.615 12.353 2.825 12.814 2.365.46-.461-2.98-12.6-2.365-12.814.615-.216 5.493 11.42 6.14 11.492.648.073 7.993-10.185 8.545-9.838.551.347-5.504 11.415-5.157 11.966.347.552 12.946-.101 13.02.546.072.648-12.357 2.815-12.572 3.43-.215.615 8.151 10.058 7.69 10.519z" fill="url(#h)"/></svg>