<svg class="glasses" width="86" height="380" viewBox="202.715 584.407 86.593 380.048" xmlns="http://www.w3.org/2000/svg"><path d="M1387.215 146.706c.484-.408 5.026 5.553 5.511 5.145 3.387 2.631 4.924 3.085 7.133 6.61 8.235 13.595 7.437 9.959 18.45 21.386 5.583 5.186 10.907 10.682 16.919 15.396 18.749 15.551 40.515 27.028 63.088 35.908-2.595-.556-5.499-1.492-7.913.112 3.045 1.358 6.271 2.611 8.579 5.137-12.724-5.334-25.343-10.998-37.486-17.577-11.096-6.354-21.575-13.771-31.354-22.018-4.91-3.947-9.196-8.591-13.854-12.827-8.515-8.662.153 2.303-8.99-7.647-5.897-6.418-7.929-7.169-18.51-21.911l-1.573-7.714z" fill="#090201" stroke="#090201" stroke-width=".094" transform="matrix(.09977 0 0 .11064 72.23 586.508)"/><path d="M1490.86 237.99c3.44-2.28 7.58-.95 11.28-.16 3.04 1.01 6.1 1.95 9.17 2.91 46.48 15.61 95.77 21.84 144.69 21.11 12.84-.41 25.76.04 38.53-1.67 3.11-.5 6.26-.17 9.37.34.3.67.89 2 1.19 2.67-.79.62-1.56 1.22-2.34 1.8-5.68 1.21-11.53 1.01-17.29 1.45-5.829 28.925-8.926 45.713-18.62 69.63-10.789 36.495-76.788 44.885-98.86 41.97-18.89-5.77-34.57-19.64-44.53-36.47-10.46-16.91-15.19-36.63-17.64-56.16-1.12-8.33-1.13-16.79-3.12-24.98 1.18-4.95 1.09-10.13.4-15.14-3.29-3.59-7.89-5.37-12.23-7.3" stroke="#000" stroke-width=".094" transform="matrix(.11163 0 0 .11064 50.61 583.692)"/></svg>