<svg id="glasses2" class="glasses" width="86" height="380" viewBox="202.715 584.407 86.5933 380.048" preserveAspectRatio="xMidYMid meet" xmlns="http://www.w3.org/2000/svg"> <defs id="svgEditorDefs"> <path class="lines" id="svgEditorClosePathDefs" fill="black" style="stroke-width: 0px; stroke: none;"/> </defs> <path id="path2486" style="fill: rgb(89, 63, 50); fill-opacity: 1; fill-rule: nonzero; stroke: none; stroke-width: 0;" d="M 257.444 623.334 C 253.317 623.321 249.976 621.027 249.969 618.187 C 249.976 615.334 253.317 613.041 257.444 613.027 C 261.572 613.041 264.909 615.334 264.916 618.187 C 264.909 621.027 261.572 623.321 257.444 623.334 Z M 234.382 623.334 C 230.254 623.321 226.917 621.027 226.91 618.187 C 226.917 615.334 230.254 613.041 234.382 613.027 C 238.512 613.041 241.848 615.334 241.855 618.187 C 241.848 621.027 238.512 623.321 234.382 623.334 Z M 281.63 607.649 C 273.244 607.703 271.583 614.881 266.46 618.174 C 266.447 614.747 262.415 611.961 257.444 611.961 C 252.946 611.961 249.227 614.241 248.546 617.214 C 247.627 616.934 246.68 616.774 245.729 616.774 C 244.896 616.774 244.066 616.894 243.258 617.121 C 242.525 614.201 238.834 611.974 234.382 611.974 C 229.705 611.974 225.861 614.427 225.408 617.561 C 220.445 614.321 219.71 608.121 211.152 608.067 C 207.352 608.027 204.057 609.467 202.856 612.814 L 204.352 613.081 C 205.534 610.107 207.875 609.174 211.152 609.134 C 219.395 609.067 221.787 616.361 225.472 619.094 C 226.112 622.094 229.853 624.401 234.382 624.401 C 239.333 624.401 243.346 621.654 243.394 618.241 C 244.173 617.974 244.947 617.841 245.729 617.841 C 246.614 617.841 247.519 618.014 248.438 618.347 C 248.559 621.694 252.538 624.401 257.444 624.401 C 261.566 624.401 265.032 622.494 266.109 619.881 C 269.806 617.147 273.395 608.649 281.63 608.716 C 284.908 608.756 287.246 609.689 288.432 612.663 L 289.93 612.396 C 288.726 609.049 285.43 607.609 281.63 607.649"/> <ellipse transform="matrix(1.000002, 0, 0, 1.000002, 91.072953, 606.39988)" style="fill-opacity: 0.7; fill: rgb(34, 255, 0); stroke-width: 0;" cx="143.125" cy="11.894" rx="8.447" ry="5.573"/> <ellipse transform="matrix(1, 0, 0, 1.000002, 90.589661, 606.233705)" style="fill: rgb(72, 255, 0); fill-opacity: 0.7; stroke-width: 0;" cx="166.778" cy="12.06" rx="8.447" ry="5.573"/></svg>