<svg id="glasses6" class="glasses" width="86" height="380" viewBox="202.715 584.407 86.5933 380.048" preserveAspectRatio="xMidYMid meet" xmlns="http://www.w3.org/2000/svg"> <defs id="svgEditorDefs"> <path id="svgEditorClosePathDefs" class="lines" fill="black" style="stroke-width: 0px; stroke: none;"/> </defs> <g transform="matrix(0.079813, 0, 0, 0.088515, 205.267303, 595.037354)"> <g id="layer1" transform="matrix(1, 0, 0, 1, 64.167046, 124.412872)"> <g transform="matrix(1.25, 0, 0, 1.25, -1731.023682, -220.76973)" id="g5129"> <path d="M 1387.215 146.706 C 1387.699 146.298 1392.241 152.259 1392.726 151.851 C 1396.113 154.482 1397.65 154.936 1399.859 158.461 C 1408.094 172.056 1407.296 168.42 1418.309 179.847 C 1423.892 185.033 1429.216 190.529 1435.228 195.243 C 1453.977 210.794 1475.743 222.271 1498.316 231.151 C 1495.721 230.595 1492.817 229.659 1490.403 231.263 C 1493.448 232.621 1496.674 233.874 1498.982 236.4 C 1486.258 231.066 1473.639 225.402 1461.496 218.823 C 1450.4 212.469 1439.921 205.052 1430.142 196.805 C 1425.232 192.858 1420.946 188.214 1416.288 183.978 C 1407.773 175.316 1416.441 186.281 1407.298 176.331 C 1401.401 169.913 1399.369 169.162 1388.788 154.42 L 1387.215 146.706 Z" id="path51" style="opacity: 1; fill: rgb(9, 2, 1); stroke: rgb(9, 2, 1); stroke-width: 0.09375;"/> <g id="g5106" transform="matrix(1.11888, 0, 0, 1, -216.711472, -25.457205)"> <path style="opacity:1;fill:#000000;stroke:#000000;stroke-width:0.09375" id="path24" d="M 1490.86 237.99 C 1494.3 235.71 1498.44 237.04 1502.14 237.83 C 1505.18 238.84 1508.24 239.78 1511.31 240.74 C 1557.79 256.35 1607.08 262.58 1656 261.85 C 1668.84 261.44 1681.76 261.89 1694.53 260.18 C 1697.64 259.68 1700.79 260.01 1703.9 260.52 C 1704.2 261.19 1704.79 262.52 1705.09 263.19 C 1704.3 263.81 1703.53 264.41 1702.75 264.99 C 1697.07 266.2 1691.22 266 1685.46 266.44 C 1679.631 295.365 1676.534 312.153 1666.84 336.07 C 1656.051 372.565 1590.052 380.955 1567.98 378.04 C 1549.09 372.27 1533.41 358.4 1523.45 341.57 C 1512.99 324.66 1508.26 304.94 1505.81 285.41 C 1504.69 277.08 1504.68 268.62 1502.69 260.43 C 1503.87 255.48 1503.78 250.3 1503.09 245.29 C 1499.8 241.7 1495.2 239.92 1490.86 237.99"/> </g> </g> </g> </g></svg>