<svg id="glasses5" class="glasses" width="86" height="380" viewBox="202.715 584.407 86.5933 380.048" preserveAspectRatio="xMidYMid meet" xmlns="http://www.w3.org/2000/svg"> <defs id="svgEditorDefs"> <path id="svgEditorClosePathDefs" class="lines" fill="black" style="stroke-width: 0px; stroke: none;"/> </defs> <path class="lines" id="path2114" style="fill:#392e26;fill-opacity:1;fill-rule:nonzero;stroke:none" d="M 262.596 617.695 C 260.083 617.695 258.047 616.348 258.047 614.708 C 258.047 613.055 260.083 611.721 262.596 611.721 C 265.107 611.721 267.146 613.055 267.146 614.708 C 267.146 616.348 265.107 617.695 262.596 617.695 Z M 229.618 617.695 C 227.104 617.695 225.066 616.348 225.066 614.708 C 225.066 613.055 227.104 611.721 229.618 611.721 C 232.127 611.721 234.164 613.055 234.164 614.708 C 234.164 616.348 232.127 617.695 229.618 617.695 Z M 281.184 606.055 L 272.511 608.801 C 270.039 606.521 266.203 605.041 261.886 605.041 C 257.792 605.041 254.13 606.361 251.656 608.455 C 249.784 609.175 247.659 609.588 245.396 609.588 C 243.664 609.588 242.014 609.348 240.495 608.908 C 238.028 606.561 234.143 605.041 229.758 605.041 C 225.68 605.041 222.034 606.361 219.558 608.428 L 210.792 605.255 L 210.408 606.681 C 210.408 606.681 214.214 617.415 218.867 620.628 C 221.323 623.068 225.279 624.655 229.758 624.655 C 233.542 624.655 236.959 623.521 239.408 621.708 C 241.214 621.055 243.242 620.668 245.396 620.668 C 248.336 620.668 251.047 621.361 253.263 622.521 L 253.372 622.455 C 255.698 623.828 258.659 624.655 261.886 624.655 C 266.678 624.655 270.875 622.841 273.271 620.108 C 277.68 616.455 281.615 607.948 281.615 607.948 L 281.184 606.055"/></svg>