<?xml version="1.0" encoding="utf-8"?>
<svg id="woman" width="86" height="380" viewBox="202.715 584.407 86.5933 380.048" preserveAspectRatio="xMidYMid meet" xmlns="http://www.w3.org/2000/svg">
  <defs id="svgEditorDefs">
    <path id="svgEditorClosePathDefs" class="lines" fill="black" style="stroke-width: 0px; stroke: none;"/>
    <linearGradient id="linearGradient3767" y2="230.39" gradientUnits="userSpaceOnUse" x2="51.091" gradientTransform="translate(.78161 2.4007e-7)" y1="82.903" x1="241">
      <stop id="stop3763" style="stop-color:#f21121" offset="0"/>
      <stop id="stop3765" style="stop-color:#b10a16" offset="1"/>
    </linearGradient>
    <radialGradient id="radialGradient3775" gradientUnits="userSpaceOnUse" cy="400.68" cx="63.977" gradientTransform="matrix(1 0 0 .92958 .78161 28.216)" r="53.567">
      <stop id="stop3771" style="stop-color:#c5c5c5" offset="0"/>
      <stop id="stop3773" style="stop-color:#ffffff" offset="1"/>
    </radialGradient>
    <linearGradient id="linearGradient3783" y2="196.65" gradientUnits="userSpaceOnUse" x2="289.19" gradientTransform="translate(.78161 2.4007e-7)" y1="108.93" x1="256.42">
      <stop id="stop3779" style="stop-color:#e0e0e0" offset="0"/>
      <stop id="stop3781" style="stop-color:#ffffff" offset="1"/>
    </linearGradient>
    <radialGradient id="radialGradient3787" gradientUnits="userSpaceOnUse" cy="400.68" cx="63.977" gradientTransform="matrix(1.0859 0 0 1.0047 -5.2248 -2.1472)" r="53.567">
      <stop id="stop3771" style="stop-color:#c5c5c5" offset="0"/>
      <stop id="stop3773" style="stop-color:#ffffff" offset="1"/>
    </radialGradient>
    <filter id="filter3797" color-interpolation-filters="sRGB">
      <feGaussianBlur id="feGaussianBlur3799" stdDeviation="2.5329319"/>
    </filter>
    <linearGradient id="linearGradient3803" y2="196.65" gradientUnits="userSpaceOnUse" x2="289.19" gradientTransform="matrix(1.0249 0 0 1.0249 -3.4714 -1.9165)" y1="108.93" x1="256.42">
      <stop id="stop3779" style="stop-color:#e0e0e0" offset="0"/>
      <stop id="stop3781" style="stop-color:#ffffff" offset="1"/>
    </linearGradient>
    <filter id="filter3805" color-interpolation-filters="sRGB">
      <feGaussianBlur id="feGaussianBlur3807" stdDeviation="3.3724002"/>
    </filter>
  </defs>
  <g transform="matrix(0.16618374748750045, 0, 0, 0.16618374748750045, 203.32797241210938, 589.680599184641)">
    <path id="path2987" style="fill:url(#linearGradient3767)" d="m47.053 95.434c5.534-8.087 185.33-77.716 192.8-66.515l98.33-28.919c24.062 8.5458 45.505 7.9229 74.227 32.775l15.424 16.388-249.67 142.67-80.975 42.415-8.6758 36.631-1.928 31.811-6.0028 39.966 0.15536 14.981 6.8114 41.451-42.415-2.892-5.7839-38.559-5.7839-27.956v-40.487-53.019l3.8559-49.163 0.96398-38.559-1.928-37.595z"/>
    <path id="path3785" d="m81.283 349.36 33.873 14.949c11.358 26.797 7.2448 31.187 2.0936 59.386-49.033 42.94-86.07 38.432-105.73 0-11.041-40.578-6.5409-44.339 25.123-67.721 22.463 9.2318 25.52 5.7944 44.636-6.6141z" style="filter:url(#filter3797);fill:url(#radialGradient3787)"/>
    <path id="path3801" d="m87.423 208.52c100.53-100.1 215.13-154.48 337.89-164.99l33.591 4.9399 4.9399 23.712c14.82 6.5449 29.64 44.965 44.459 98.798l-10.868 29.64c-30.794-1.0083-40.532-0.92304-59.279-10.868-47.35-8.141-107.46 10.822-175.86 47.423-31.309 33.72-76.623 103.16-97.81 90.895-30.549-21.714-46.948-45.69-69.159-75.087z" style="filter:url(#filter3805);fill:url(#linearGradient3803)"/>
    <path id="path2989" style="fill:url(#linearGradient3783)" d="m89.468 205.33c98.082-97.68 209.9-150.74 329.68-160.99l32.775 4.8199 4.8199 23.136c14.46 6.3859 28.919 43.873 43.379 96.398l-10.604 28.92c-30.046-0.98378-39.547-0.90062-57.839-10.604-46.2-7.9433-104.85 10.559-171.59 46.271-30.548 32.901-74.762 100.65-95.434 88.686-29.807-21.186-45.808-44.58-67.479-73.263z"/>
    <path id="path2991" style="fill:url(#radialGradient3775)" d="m80.446 353.45 31.193 13.832c10.459 24.794 6.6718 28.856 1.928 54.947-45.154 39.73-79.262 35.56-97.362 0-10.168-37.545-6.0235-41.025 23.136-62.659 20.686 8.5417 23.501 5.3613 41.105-6.1197z"/>
  </g>
</svg>