<?xml version="1.0" encoding="utf-8"?>
<svg id="woman" width="86" height="380" viewBox="198.42413330078125 583.7940063476562 98 380.0480041503906" preserveAspectRatio="xMidYMid meet" xmlns="http://www.w3.org/2000/svg">
  <defs id="svgEditorDefs">
    <path id="svgEditorClosePathDefs" class="lines" fill="black" style="stroke-width: 0px; stroke: none;"/>
    <filter id="filter6073" color-interpolation-filters="sRGB">
      <feGaussianBlur id="feGaussianBlur6075" stdDeviation="12.932087"/>
    </filter>
    <filter id="filter6017" color-interpolation-filters="sRGB">
      <feGaussianBlur id="feGaussianBlur6019" stdDeviation="8.5549637"/>
    </filter>
    <filter id="filter6041" color-interpolation-filters="sRGB">
      <feGaussianBlur id="feGaussianBlur6043" stdDeviation="10.57028"/>
    </filter>
  </defs>
  <g transform="matrix(0.040072, 0, 0, 0.037107, 183.707626, 599.922241)">
    <g id="g6103" transform="matrix(1.060049, 0, 0, 1.105819, -725.118652, -569.488037)" style="">
      <path id="path-2" d="M 2210.652 2698.212 C 2178.051 2702.851 2118.885 2608.404 2087.52 2577.732 C 2022.843 2491.356 1971.703 2389.412 1937.751 2275.792 C 1904.241 2163.672 1887.464 2040.192 1890.922 1909.072 C 1892.903 1833.965 1867.119 1694.252 1880.749 1632.442 C 1891.385 1585.956 1714.873 854.003 1703.9 644.112 C 1643.003 -520.682 2226.819 -944.486 2111.21 -593.759 C 1899.358 48.943 2246.116 177.217 2275.948 212.964 C 2323.949 270.486 2255.237 143.765 2605.45 85.695 C 2734.02 64.376 2967.129 138.605 3059.928 255.435 C 3151.156 370.295 3104.851 527.875 3103.157 534.125 C 3101.815 539.072 3147.792 661.895 3142.22 778.985 C 3139.968 826.29 3253.655 854.161 3228.057 891.451 C 3215.917 909.132 3193.887 852.374 3091.839 813.376 C 3055.819 799.611 2997.298 789.341 2957.227 766.179 C 2864.488 712.574 2718.936 738.469 2674.774 749.999 C 2507.94 793.549 1976.2 1306.041 2171.182 1865.531 C 2192.404 1926.43 2261.284 1906.495 2335.386 2077.18 C 2686.652 2886.278 3182.223 2351.957 3298.378 2203.153 C 3393.925 2080.749 3423.207 2010.37 3458.899 1934.382 C 3676.739 1470.598 3462.57 1803.528 3534.464 1668.289 C 3554.548 1630.509 3496.085 1608.927 3488.547 1587.096 C 3485.816 1579.184 3535.101 1752.221 3547.834 1817.029 C 3567.351 1916.38 3459.834 2024.206 3433.837 2136.726 C 3425.098 2174.547 3337.332 2116.172 3319.136 2155.74 C 3304.317 2187.964 3268.112 2219.212 3256.41 2246.949 C 3231.648 2305.647 3224.307 2362.279 3202.218 2406.579 C 3159.874 2491.759 3109.674 2542.349 3104.809 2551.379 C 3080.137 2596.919 2942.943 2756.419 2758.796 2779.749 C 2515.827 2810.514 2214.379 2697.669 2210.793 2698.169 L 2210.652 2698.212 Z" style="fill: rgb(233, 175, 175);" transform="matrix(-1, 0, 0, -1, 5062.047336, 2867.114841)"/>
      <path id="path4951-43-9" d="m2895.4 1182.2c17.458 24.121 35.041 60.107 37.864 49.098 5.0436-21.691 7.102-33.901 8.7064-47.002 1.9096-15.594 3.176-32.45 8.0673-68.057 4.9175-35.798 17.593-121.85 0.6823-207.78-13.806-70.154-40.637-151.55-50.738-135.22-3.2953 5.3293-3.8489 38.325-2.1157 74.568 2.5271 52.847 13.856 126.72 14.065 192.08 0.1382 43.025-10.688 89.5-14.429 118.88-1.3322 10.463-4.4302 17.871-2.1022 23.422z" style="fill:#4d4d4d"/>
      <path id="path4951-8" d="M 1680 183.62 C 1641.813 178.981 1572.51 273.428 1535.77 304.1 C 1460.012 390.476 1400.11 492.42 1360.34 606.04 C 1321.089 718.16 1301.437 841.64 1305.487 972.76 C 1307.807 1047.867 1277.606 1187.58 1293.57 1249.39 C 1306.029 1295.876 1151.598 1974.965 1086.42 2237.72 C 885.686 3046.948 1667.765 3780.241 1520.766 3542.588 C 1412.821 3368.073 1329.979 2828.879 1504.471 2793.132 C 1583.271 2776.989 1732.225 2738.067 2142.445 2796.137 C 2293.045 2817.456 2566.095 2743.227 2674.795 2626.397 C 2781.655 2511.537 2727.415 2353.957 2725.431 2347.707 C 2723.861 2342.76 2777.715 2219.937 2771.187 2102.847 C 2768.55 2055.542 2747.922 1988.837 2717.937 1951.547 C 2703.717 1933.866 2688.898 2000.332 2657.247 2039.33 C 2631.522 2071.026 2601.433 2092.491 2554.497 2115.653 C 2445.867 2169.258 2275.377 2143.363 2223.647 2131.833 C 2164.169 2118.578 2152.036 2186.778 1980.755 2069.869 C 1616.643 1821.341 1397.133 998.515 1610.728 832.595 C 2303.139 294.732 1510.635 481.666 2193.843 347.691 C 2670.968 254.128 2795.609 604.516 2903.167 768.223 C 2947.377 835.513 3338.472 1081.252 2957.186 1001.133 C 2880.911 985.105 2957.717 1156.623 2934.828 1222.283 C 2920.534 1263.293 2971.482 1286.821 2962.653 1308.652 C 2959.453 1316.564 2986.582 1268.77 3001.495 1203.962 C 3024.357 1104.611 3036.357 957.042 3005.905 844.522 C 2995.669 806.701 2999.73 765.66 2978.416 726.092 C 2961.058 693.868 2918.65 662.62 2904.944 634.883 C 2875.939 576.185 2867.339 519.553 2841.466 475.253 C 2791.866 390.073 2733.066 339.483 2727.366 330.453 C 2698.466 284.913 2537.766 125.413 2322.066 102.083 C 2037.466 71.318 1684.366 184.163 1680.166 183.663 L 1680 183.62 Z" style="fill:#e9afaf"/>
      <path id="path4951" d="M 1320.2 1255.8 C 1252.804 1255.8 1156.71 1867.89 1156.71 1910.58 C 1156.71 1953.264 1228.603 1766.38 1296 1766.38 C 1363.396 1766.38 1478.43 1858.346 1478.43 1815.662 C 1478.43 1807.521 1475.126 1782.121 1469.31 1746.34 C 1444.634 1594.516 1374.74 1255.802 1320.2 1255.802 L 1320.2 1255.8 Z" style="filter: url(#filter6073); fill: rgb(170, 98, 138);"/>
      <path id="path4951-4" d="M 1481.58 812.595 C 1460.681 814.069 1527.564 692.375 1634.6 588.895 C 1714.073 512.066 2125.23 331.065 2323.67 275.935 C 2351.517 268.199 2409.668 326.572 2412.482 370.216 C 2413.552 386.818 2345.111 391.448 2354.179 403.934 C 2370.542 426.464 2476.588 417.625 2477.959 416.857 C 2480.035 415.691 2568.83 434.085 2640.289 469.438 C 2712.994 505.408 2762.879 590.038 2750.159 574.268 C 2728.071 546.893 2733.413 457.208 2640.709 399.838 C 2619.408 386.658 2484.159 380.276 2466.629 366.599 C 2305.759 241.059 2195.439 103.099 2176.609 109.599 C 2174.845 110.208 2024.709 82.496 1890.959 129.975 C 1696.279 199.083 1494.499 353.485 1488.329 372.065 C 1477.559 404.437 1729.649 293.751 1914.699 259.025 C 2024.679 238.386 2109.119 289.226 2105.729 290.471 C 1970.029 340.38 1713.669 446.551 1607.349 522.181 C 1463.109 624.781 1333.989 743.671 1342.299 763.321 C 1358.909 802.64 1477.469 1433.131 1544.869 1433.131 C 1564.144 1433.131 1562.575 1351.05 1575.959 1256.961 C 1587.81 1173.656 1485.057 1148.901 1477.181 1095.401 C 1472.07 1060.695 1441.178 1078.916 1442.347 1040.351 C 1443.436 1004.413 1434.22 922.284 1609.6 739.494 C 1773.88 568.264 1732.979 455.925 1732.979 449.805 C 1732.979 421.348 1900.19 508.666 1686.76 648.656 C 1580.06 718.645 1503.99 811.006 1481.58 812.586 L 1481.58 812.595 Z" style="filter: url(#filter6017); fill: rgb(170, 98, 138);"/>
      <path id="path4951-44" d="M 3092.765 1840.841 C 3061.746 1835.466 2631.907 2104.76 2538.76 2117.74 C 2437.88 2131.789 2302.74 2119.656 2302.74 2140.707 C 2302.74 2144.301 2357.559 2194.421 2303.361 2203.09 C 2250.289 2211.579 2088.071 2178.311 2097.891 2210.301 C 2103.273 2227.83 2401.121 2319.562 2396.441 2334.461 C 2389.139 2357.727 2220.811 2322.297 2222.131 2347.869 C 2223.605 2376.456 2407.221 2437.613 2388.881 2459.259 C 2372.573 2478.5 2053.281 2363.693 2042.151 2385.048 C 2034.914 2398.938 2324.861 2538.388 2313.361 2549.918 C 2289.707 2573.66 1941.121 2423.028 1925.511 2448.588 C 1908.371 2476.654 2092.121 2594.658 2074.461 2616.988 C 2047.9 2650.563 1855.011 2561.497 1852.321 2589.134 C 1849.352 2619.656 2134.221 2807.644 2145.761 2807.644 C 2170.052 2807.644 2419.581 2793.296 2548.011 2738.53 C 2640.336 2699.161 2830.977 2721.146 2911.657 2693.85 C 3047.055 2648.041 3164.298 2437.119 3164.298 2419.529 C 3164.298 2404.226 3200.604 2245.405 3189.18 2187.058 C 3182.215 2151.487 3153.568 1953.095 3144.854 1911.764 C 3132.344 1852.432 3105.635 1870.903 3092.765 1868.673 L 3092.765 1840.841 Z" style="filter:url(#filter6041);fill:#aa628a"/>
      <path id="path3116" style="color:#000000;fill:#000000" d="m2633.9 602.21c0.042-0.33321 2.8082-0.33688 8.0465 0.0726s12.951 1.2329 22.837 2.7581c9.8855 1.5252 21.948 3.7515 35.781 7.171 13.833 3.4194 29.44 8.032 46.251 14.54 13.53 5.239 27.82 11.744 42.367 19.872 14.546 8.1282 29.348 17.881 43.744 29.605 11.267 9.1825 22.238 19.559 32.625 31.095s20.19 24.233 29.109 37.979c8.211 12.66 15.68 26.169 22.34 40.37 6.6605 14.2 12.513 29.092 17.531 44.469 1.6399 5.0248 3.1938 10.101 4.6631 15.223 7.8859 27.493 12.97 55.026 16.202 81.745 4.4962 37.146 5.4829 72.771 4.7797 105.72-0.7195 33.674-3.158 64.585-6.1845 91.97-3.0265 27.386-6.6379 51.248-9.9983 70.878-3.3605 19.63-6.4725 35.029-8.7982 45.505-2.3256 10.476-3.8668 16.03-4.3442 15.94-0.4774-0.089 0.1404-5.8165 1.5882-16.433 1.4478-10.617 3.7275-26.126 6.319-45.804 2.5916-19.679 5.4974-43.529 7.9037-70.813s4.3099-58.002 4.604-91.377c0.2887-32.65-0.9825-67.832-5.5958-104.39-3.3202-26.291-8.3694-53.3-16.084-80.191-1.4373-5.01-2.955-9.9719-4.5545-14.882-4.8933-15.018-10.562-29.545-16.988-43.387-6.4257-13.842-13.609-26.998-21.497-39.321-8.5563-13.374-17.954-25.757-27.912-37.04s-20.476-21.465-31.283-30.512c-13.803-11.563-28.053-21.279-42.098-29.471-14.045-8.191-27.885-14.858-41.018-20.332-16.326-6.8065-31.55-11.812-45.076-15.689-13.526-3.8768-25.358-6.6247-35.063-8.7117-9.7048-2.087-17.287-3.5125-22.419-4.5486-5.132-1.036-7.8171-1.6837-7.7755-2.017z"/>
      <path id="path3120" style="color:#000000;fill:#000000" d="m2904.5 632.72c-0.1908 0.0753-2.0391-4.1085-5.5488-12.265-3.5097-8.1568-8.68-20.289-15.719-36.015-7.0389-15.726-15.943-35.05-27.157-57.436s-24.734-47.84-41.296-75.593c-12.969-21.73-27.822-44.874-45.046-68.789-17.225-23.915-36.821-48.606-59.411-73.167-16.747-18.21-35.161-36.327-55.393-53.844-20.232-17.518-42.283-34.437-66.277-50.138-20.675-13.533-42.788-26.141-66.24-37.542-23.451-11.401-48.241-21.595-74.2-30.29-24.927-8.3511-50.916-15.333-77.789-20.911-26.874-5.5783-54.633-9.753-83.047-12.539-29.265-2.8694-59.224-4.2856-89.741-4.355-30.518-0.06947-61.594 1.2078-93.07 3.6613-33.563 2.6173-67.586 6.5687-101.99 11.708-34.401 5.1388-69.18 11.465-104.25 18.776-37.755 7.829-75.849 16.81-114.23 26.8-38.384 9.9896-77.058 20.987-115.98 32.807-31.521 25.679-62.768 52.409-92.795 81.011-27.517 26.103-54.019 53.777-78.486 83.526-23.251 28.269-44.641 58.442-63.514 90.401-0.2468 0.41791-0.4931 0.83605-0.7389 1.2544-20.02 34.064-36.892 69.638-50.957 105.94-16.075 41.492-28.541 83.92-38.526 126.43-12.007 51.122-20.463 102.36-26.883 153.05-7.9668 62.913-12.788 124.99-16.02 185.73-4.1039 77.132-5.609 152.11-5.972 224.42-0.024 3.508-0.3535 6.8819-0.7312 10.121-0.5458 4.751-1.2493 9.4361-2.0022 14.066-2.1688 13.345-4.7716 26.475-7.4363 39.448-3.6665 17.856-7.5308 35.467-11.431 52.86-4.8624 21.685-9.7988 43.042-14.72 64.078-12.396 52.992-24.684 103.97-36.46 152.83-14.518 60.233-28.298 117.24-41.065 170.7-14.747 61.749-28.153 118.76-39.954 170.5-6.5598 28.762-12.641 55.888-18.172 81.292-5.5319 25.404-10.516 49.084-14.948 70.94-4.7295 23.324-8.8117 44.568-12.208 63.615-3.5432 19.87-6.3386 37.339-8.3551 52.269-1.0472 7.7539-1.8843 14.819-2.5117 21.174-0.6525 6.6128-1.0772 12.452-1.2871 17.492-0.2273 5.4778-0.1977 9.9994 0.011 13.536 0.094 1.5662 0.2077 2.9396 0.345 4.112 0.1373 1.1723 0.2954 2.1445 0.4407 2.9214 0.2905 1.5537 0.5028 2.3349 0.4213 2.363-0.082 0.028-0.4572-0.701-0.9199-2.2417-0.2314-0.7703-0.4775-1.7451-0.7025-2.9256-0.2251-1.1806-0.4263-2.568-0.6022-4.1416-0.4013-3.5637-0.623-8.1431-0.5795-13.662 0.04-5.0832 0.2961-10.975 0.7836-17.633 0.4685-6.4005 1.1491-13.515 2.0417-21.314 1.7186-15.016 4.2241-32.584 7.4835-52.536 3.1246-19.129 6.9418-40.459 11.412-63.861 4.1889-21.928 8.9365-45.683 14.238-71.158 5.3016-25.476 11.158-52.673 17.5-81.497 11.409-51.858 24.446-108.99 38.846-170.83 12.467-53.546 25.965-110.63 40.218-170.92 11.562-48.911 23.646-99.925 35.848-152.92 4.8437-21.039 9.7029-42.387 14.488-64.051 3.8386-17.38 7.6381-34.953 11.236-52.743 2.6167-12.942 5.1603-25.961 7.2578-39.109 0.7274-4.5624 1.3993-9.1122 1.9073-13.658 0.3469-3.1515 0.6486-6.2024 0.6482-9.147 0.1677-72.404 1.5069-147.53 5.4779-224.88 3.1262-60.905 7.8716-123.22 15.798-186.45 6.3851-50.949 14.85-102.53 26.915-154.09 10.033-42.88 22.61-85.755 38.865-127.77 14.227-36.772 31.327-72.834 51.642-107.41 0.2496-0.42459 0.4996-0.84894 0.7501-1.273 19.156-32.433 40.847-63.026 64.416-91.658 24.798-30.123 51.594-58.083 79.366-84.387 30.87-29.12 62.885-56.286 95.102-82.318 39.333-11.969 78.434-23.106 117.25-33.225 38.818-10.118 77.354-19.217 115.55-27.152 35.241-7.282 70.211-13.569 104.82-18.659 34.608-5.0902 68.855-8.9835 102.66-11.534 31.698-2.3926 63.018-3.5906 93.792-3.426 30.775 0.16465 61.004 1.692 90.548 4.6859 28.69 2.9071 56.728 7.2297 83.881 12.977 27.152 5.7476 53.419 12.92 78.618 21.478 26.246 8.9157 51.294 19.351 74.976 31.007s45.998 24.532 66.848 38.34c24.193 16.024 46.387 33.257 66.715 51.077 20.329 17.82 38.793 36.228 55.552 54.715 22.601 24.932 42.145 49.951 59.271 74.16s31.834 47.613 44.627 69.576c16.338 28.049 29.591 53.754 40.511 76.363s19.502 42.127 26.203 58.031c6.7002 15.904 11.515 28.198 14.658 36.51 3.1437 8.3119 4.6157 12.644 4.4249 12.719z"/>
      <path id="path3892" style="color: rgb(0, 0, 0); fill: rgb(0, 0, 0);" d="M 1707.13 2172.682 C 1707.681 2172.613 1712.061 2182.693 1719.697 2201.178 C 1723.515 2210.42 1728.15 2221.762 1733.598 2234.979 C 1739.047 2248.192 1745.307 2263.281 1752.469 2279.997 L 1752.469 2279.997 C 1759.564 2296.558 1767.537 2314.723 1776.549 2334.237 C 1785.562 2353.752 1795.611 2374.617 1806.953 2396.559 C 1816.442 2414.918 1826.83 2434.035 1838.334 2453.719 C 1849.838 2473.403 1862.462 2493.653 1876.465 2514.261 C 1899.481 2548.132 1926.184 2583.001 1958.323 2617.495 C 1960.719 2620.066 1963.136 2622.624 1965.573 2625.168 C 1982.448 2642.792 2000.301 2659.769 2019.165 2675.872 C 2038.029 2691.975 2057.905 2707.203 2078.738 2721.388 C 2100.145 2735.964 2122.554 2749.418 2145.728 2761.546 C 2169.961 2774.232 2195.028 2785.466 2220.411 2795.13 C 2250.181 2806.466 2280.442 2815.591 2309.96 2822.758 C 2339.475 2829.927 2368.248 2835.139 2395.335 2838.803 C 2414.254 2841.363 2432.339 2843.192 2449.343 2844.5 C 2466.349 2845.807 2482.274 2846.594 2496.935 2847.046 C 2514.716 2847.592 2530.643 2847.651 2544.504 2847.506 C 2558.362 2847.36 2570.157 2847.012 2579.717 2846.665 C 2589.278 2846.32 2596.609 2845.979 2601.557 2845.772 C 2606.506 2845.565 2609.074 2845.495 2609.099 2845.616 C 2609.127 2845.734 2606.61 2846.042 2601.701 2846.48 C 2596.789 2846.918 2589.484 2847.49 2579.922 2848.058 C 2570.359 2848.627 2558.538 2849.194 2544.616 2849.551 C 2530.692 2849.906 2514.663 2850.051 2496.73 2849.695 C 2481.941 2849.401 2465.858 2848.764 2448.655 2847.592 C 2431.454 2846.42 2413.134 2844.713 2393.94 2842.258 C 2366.449 2838.739 2337.211 2833.637 2307.186 2826.528 C 2277.162 2819.419 2246.351 2810.303 2216.019 2798.915 C 2190.17 2789.211 2164.65 2777.907 2140.005 2765.128 C 2116.438 2752.904 2093.666 2739.341 2071.951 2724.644 C 2050.823 2710.344 2030.684 2694.993 2011.601 2678.764 C 1992.52 2662.536 1974.494 2645.432 1957.5 2627.687 C 1955.046 2625.124 1952.614 2622.548 1950.202 2619.96 C 1917.848 2585.235 1891.079 2550.149 1868.136 2516.097 C 1854.175 2495.377 1841.635 2475.023 1830.251 2455.243 C 1818.867 2435.465 1808.638 2416.262 1799.341 2397.823 C 1788.228 2375.782 1778.449 2354.83 1769.747 2335.237 C 1761.046 2315.643 1753.42 2297.406 1746.704 2280.777 L 1746.704 2280.777 C 1739.925 2263.99 1734.078 2248.836 1729.071 2235.558 C 1724.063 2222.28 1719.894 2210.875 1716.563 2201.57 C 1709.902 2182.96 1706.579 2172.749 1707.13 2172.681 Z" transform="matrix(0.925192, -0.404304, 0.356218, 0.925192, -733.124485, 1060.387838)"/>
      <path id="path4152" style="color: rgb(0, 0, 0); fill: rgb(0, 0, 0);" d="M 1456.3 1310.001 C 1456.92 1309.698 1461.313 1317.318 1469.045 1331.158 C 1476.777 1344.998 1487.886 1365.044 1502.238 1389.431 C 1516.59 1413.818 1534.211 1442.535 1554.805 1473.753 C 1575.399 1504.971 1598.977 1538.682 1624.824 1573.224 C 1625.846 1574.589 1626.869 1575.953 1627.89 1577.312 C 1653.465 1611.322 1678.804 1642.927 1702.42 1671.178 C 1726.036 1699.429 1747.919 1724.332 1766.505 1745.052 C 1785.091 1765.772 1800.37 1782.319 1810.838 1793.846 C 1821.306 1805.372 1826.953 1811.891 1826.47 1812.374 C 1825.987 1812.857 1819.418 1807.258 1808.085 1796.545 C 1796.752 1785.832 1780.665 1769.991 1761.359 1749.822 C 1742.053 1729.653 1719.537 1705.146 1695.428 1677.107 C 1671.318 1649.069 1645.625 1617.491 1619.901 1583.324 C 1618.874 1581.959 1617.846 1580.59 1616.818 1579.216 C 1590.836 1544.5 1567.356 1510.436 1547.079 1478.776 C 1526.802 1447.115 1509.718 1417.864 1496.09 1392.92 C 1482.462 1367.976 1472.266 1347.349 1465.58 1332.928 C 1458.894 1318.507 1455.681 1310.306 1456.3 1310.003 Z" transform="matrix(0.979922, 0.212412, -0.187149, 0.979922, 325.131428, -317.29949)"/>
      <path id="path4156" style="color: rgb(0, 0, 0); fill: rgb(0, 0, 0);" d="M 1273.3 1039.5 C 1273.484 1039.449 1274.308 1041.719 1275.764 1046.178 C 1277.22 1050.636 1279.31 1057.284 1282.079 1065.97 C 1287.616 1083.343 1295.837 1108.896 1307.587 1141.219 C 1319.337 1173.543 1334.633 1212.647 1354.755 1256.729 C 1374.878 1300.809 1399.842 1349.87 1431.152 1401.599 C 1446.317 1426.659 1461.695 1453.081 1477.337 1480.692 C 1492.979 1508.302 1508.885 1537.102 1525.209 1566.855 C 1539.514 1592.928 1554.146 1619.737 1569.296 1647.078 C 1584.446 1674.42 1600.113 1702.294 1616.554 1730.462 C 1646.789 1782.258 1679.641 1835.092 1716.964 1886.832 C 1746.782 1928.17 1779.515 1968.792 1815.702 2007.322 C 1823.102 2015.201 1830.598 2022.941 1838.188 2030.533 C 1867.375 2059.742 1899.838 2084.845 1933.089 2107.517 C 1973.059 2134.759 2014.365 2158.267 2055.799 2178.779 C 2102.119 2201.708 2148.632 2220.827 2194.499 2236.179 C 2218.836 2244.323 2242.993 2251.419 2266.851 2257.363 C 2290.709 2263.306 2314.269 2268.096 2337.419 2271.687 C 2361.12 2275.36 2384.406 2277.798 2407.04 2278.79 C 2429.674 2279.781 2451.656 2279.326 2472.807 2277.356 C 2494.233 2275.363 2514.762 2271.786 2534.027 2266.56 C 2553.857 2261.18 2572.343 2254.054 2589.04 2245.397 C 2607.036 2236.067 2622.945 2224.963 2636.505 2212.877 C 2636.505 2212.877 2636.505 2212.877 2636.505 2212.877 C 2644.464 2205.786 2651.622 2198.357 2658.037 2190.801 C 2664.452 2183.245 2670.126 2175.561 2675.131 2167.921 C 2681.914 2157.568 2687.482 2147.305 2692.138 2137.456 C 2696.794 2127.606 2700.537 2118.168 2703.62 2109.361 C 2707.633 2097.894 2710.54 2087.494 2712.782 2078.414 C 2715.024 2069.334 2716.599 2061.572 2717.789 2055.286 C 2718.979 2049 2719.784 2044.189 2720.358 2040.96 C 2720.932 2037.731 2721.276 2036.083 2721.435 2036.102 C 2721.594 2036.121 2721.563 2037.806 2721.298 2041.081 C 2721.032 2044.357 2720.531 2049.226 2719.635 2055.59 C 2718.738 2061.955 2717.448 2069.818 2715.474 2079.034 C 2713.5 2088.251 2710.844 2098.823 2707.054 2110.518 C 2704.142 2119.502 2700.548 2129.146 2696.007 2139.24 C 2691.467 2149.334 2685.98 2159.879 2679.229 2170.558 C 2674.244 2178.441 2668.564 2186.382 2662.108 2194.208 C 2655.652 2202.035 2648.419 2209.747 2640.344 2217.131 L 2640.344 2217.131 C 2626.582 2229.71 2610.391 2241.304 2592.021 2251.075 C 2574.982 2260.136 2556.117 2267.632 2535.89 2273.311 C 2516.243 2278.829 2495.328 2282.662 2473.532 2284.855 C 2452.026 2287.018 2429.689 2287.645 2406.716 2286.798 C 2383.743 2285.951 2360.135 2283.63 2336.145 2280.04 C 2312.709 2276.537 2288.866 2271.82 2264.736 2265.934 C 2240.606 2260.048 2216.187 2252.99 2191.607 2244.869 C 2145.278 2229.564 2098.298 2210.431 2051.527 2187.423 C 2009.698 2166.847 1967.955 2143.189 1927.517 2115.704 C 1893.885 2092.856 1860.925 2067.384 1831.12 2037.601 C 1823.453 2029.935 1815.884 2022.121 1808.414 2014.167 C 1771.884 1975.27 1738.903 1934.293 1708.928 1892.617 C 1671.413 1840.459 1638.502 1787.297 1608.328 1735.237 C 1591.917 1706.931 1576.309 1678.944 1561.244 1651.509 C 1546.179 1624.074 1531.658 1597.191 1517.484 1571.058 C 1501.31 1541.237 1485.58 1512.386 1470.136 1484.731 C 1454.692 1457.076 1439.532 1430.617 1424.602 1405.518 L 1424.602 1405.518 C 1393.51 1353.248 1368.884 1303.708 1349.19 1259.218 C 1329.496 1214.722 1314.72 1175.262 1303.55 1142.628 C 1292.38 1109.998 1284.802 1084.19 1279.944 1066.589 C 1277.515 1057.788 1275.775 1051.034 1274.676 1046.471 C 1273.577 1041.908 1273.117 1039.536 1273.302 1039.485 Z"/>
      <path id="path4160" style="color: rgb(0, 0, 0); fill: rgb(0, 0, 0);" d="M 3021.753 971.478 C 3021.601 972.445 3023.408 974.86 3026.959 978.657 C 3030.51 982.454 3035.805 987.635 3042.593 994.323 C 3049.38 1001.011 3057.661 1009.205 3067.119 1019.241 C 3076.576 1029.279 3087.213 1041.157 3098.63 1055.464 C 3107.475 1066.548 3116.79 1079.105 3126.272 1093.497 C 3135.754 1107.892 3145.405 1124.122 3154.844 1142.646 C 3168.819 1170.054 3182.323 1202.637 3193.957 1240.415 C 3204.252 1273.808 3213.082 1311.361 3220.337 1351.607 C 3221.121 1355.954 3221.89 1360.329 3222.64 1364.734 C 3230.195 1409.037 3235.654 1453.776 3240.079 1497.417 C 3244.502 1541.055 3247.899 1583.588 3251.028 1623.701 C 3254.997 1674.856 3258.484 1722.208 3261.75 1764.347 C 3265.014 1806.485 3268.052 1843.405 3270.807 1873.823 C 3273.561 1904.241 3276.02 1928.161 3277.949 1944.401 C 3279.878 1960.64 3281.263 1969.204 3281.907 1968.939 C 3282.548 1968.674 3282.405 1959.602 3281.653 1942.939 C 3280.899 1926.275 3279.553 1902.017 3277.817 1871.328 C 3276.082 1840.638 3273.969 1803.511 3271.503 1761.144 C 3269.037 1718.773 3266.222 1671.157 3262.761 1619.59 C 3260.062 1579.152 3256.954 1536.025 3252.641 1491.397 C 3248.328 1446.769 3242.801 1400.643 3234.979 1354.569 C 3234.201 1349.991 3233.405 1345.436 3232.59 1340.908 C 3225.007 1298.877 3215.592 1259.507 3204.539 1224.434 C 3192.022 1184.772 3177.537 1151 3162.589 1123.045 C 3152.5 1104.199 3142.256 1087.941 3132.235 1073.771 C 3122.214 1059.6 3112.414 1047.516 3103.129 1037.089 C 3091.156 1023.634 3080.037 1012.86 3070.15 1004.111 C 3060.263 995.362 3051.607 988.641 3044.471 983.552 C 3037.336 978.464 3031.722 975.01 3027.865 973.02 C 3024.006 971.03 3021.902 970.504 3021.751 971.471 Z" transform="matrix(-0.99958, 0.030885, -0.027211, -0.99958, 6342.731809, 2841.978701)"/>
      <path id="path4168" style="color:#000000;fill:#000000" d="M 2964.049 1276.003 C 2963.603 1275.893 2898.126 1156.926 2898.723 1152.407 C 2899.319 1147.889 2900.33 1141.313 2901.421 1132.943 C 2902.513 1124.574 2903.677 1114.408 2904.582 1102.726 C 2905.487 1091.044 2906.127 1077.844 2906.283 1063.465 C 2906.435 1049.384 2906.13 1034.168 2905.394 1018.098 C 2904.658 1002.028 2903.495 985.105 2902.13 967.621 C 2902.062 966.746 2901.992 965.869 2901.923 964.991 C 2900.561 947.745 2899.122 931.001 2897.884 915.023 C 2896.646 899.045 2895.61 883.833 2894.918 869.672 C 2894.183 854.657 2893.841 840.82 2893.849 828.535 C 2893.859 816.25 2894.211 805.516 2894.743 796.68 C 2895.274 787.843 2895.974 780.904 2896.641 776.184 C 2897.308 771.464 2897.932 768.963 2898.4 768.992 C 2898.868 769.021 2899.15 771.577 2899.343 776.319 C 2899.537 781.06 2899.651 787.987 2899.872 796.77 C 2900.092 805.553 2900.426 816.193 2901.022 828.362 C 2901.618 840.531 2902.482 854.23 2903.634 869.121 C 2904.722 883.167 2906.068 898.28 2907.519 914.21 C 2908.97 930.14 2910.524 946.887 2911.892 964.203 C 2911.962 965.085 2912.031 965.965 2912.099 966.845 C 2913.463 984.407 2914.504 1001.478 2915.01 1017.729 C 2915.517 1033.979 2915.486 1049.409 2914.908 1063.687 C 2914.318 1078.276 2913.135 1091.656 2911.609 1103.454 C 2910.084 1115.252 2908.223 1125.469 2906.384 1133.814 C 2904.545 1142.159 2902.737 1148.635 2901.31 1152.997 C 2899.883 1157.359 2898.846 1159.61 2898.4 1159.5 L 2964.049 1276.003 Z"/>
      <path id="path4180" style="color: rgb(0, 0, 0); fill: rgb(0, 0, 0);" d="M 1769.5 1993.4 C 1769.076 1993.944 1762.226 1989.348 1749.973 1980.933 C 1737.72 1972.518 1720.037 1960.31 1697.697 1946.026 C 1675.357 1931.742 1648.343 1915.402 1617.534 1898.785 C 1586.725 1882.168 1552.115 1865.292 1514.884 1849.7 C 1514.615 1849.587 1514.345 1849.474 1514.076 1849.362 C 1476.924 1833.832 1440.738 1821.024 1407.426 1810.565 C 1374.116 1800.107 1343.689 1791.98 1318.005 1785.639 C 1292.321 1779.298 1271.381 1774.723 1256.919 1771.475 C 1242.457 1768.227 1234.47 1766.283 1234.583 1765.603 C 1234.696 1764.924 1242.901 1765.573 1257.617 1767.652 C 1272.332 1769.732 1293.561 1773.264 1319.58 1778.755 C 1345.599 1784.245 1376.409 1791.714 1410.119 1801.766 C 1443.829 1811.818 1480.431 1824.473 1517.929 1840.135 C 1518.201 1840.249 1518.473 1840.363 1518.745 1840.477 C 1556.325 1856.217 1591.141 1873.507 1621.965 1890.709 C 1652.788 1907.911 1679.627 1925.005 1701.606 1940.136 C 1723.585 1955.267 1740.725 1968.414 1752.302 1977.818 C 1758.09 1982.519 1762.49 1986.289 1765.394 1988.942 C 1768.298 1991.594 1769.71 1993.129 1769.498 1993.401 Z"/>
      <path id="path4184" style="color: rgb(0, 0, 0); fill: rgb(0, 0, 0);" d="M 1704.5 2011.7 C 1704.427 2012.168 1701.247 2012.099 1695.379 2011.791 C 1689.51 2011.483 1680.948 2010.958 1670.085 2010.769 C 1659.221 2010.579 1646.051 2010.745 1631.021 2011.766 C 1615.991 2012.788 1599.097 2014.677 1580.905 2017.656 C 1564.248 2020.389 1546.493 2024.029 1527.982 2028.587 C 1509.471 2033.146 1490.204 2038.62 1470.505 2044.812 C 1466.19 2046.169 1461.91 2047.541 1457.669 2048.924 C 1436.204 2055.927 1415.706 2063.247 1396.456 2070.35 C 1377.207 2077.454 1359.205 2084.336 1342.783 2090.592 C 1323.17 2098.064 1305.781 2104.623 1291.264 2109.794 C 1276.969 2114.886 1265.45 2118.642 1257.458 2120.932 C 1249.465 2123.222 1245.017 2124.1 1244.839 2123.564 C 1244.66 2123.028 1248.759 2121.121 1256.381 2117.887 C 1264.003 2114.653 1275.13 2110.039 1289.088 2104.18 C 1303.259 2098.231 1320.334 2090.995 1339.744 2082.949 C 1355.996 2076.212 1373.89 2068.927 1393.121 2061.511 C 1412.353 2054.096 1432.924 2046.554 1454.56 2039.436 C 1458.833 2038.03 1463.149 2036.639 1467.504 2035.269 C 1487.386 2029.016 1506.913 2023.587 1525.718 2019.175 C 1544.524 2014.763 1562.607 2011.369 1579.58 2008.975 C 1598.12 2006.356 1615.362 2004.966 1630.675 2004.544 C 1645.988 2004.122 1659.373 2004.656 1670.353 2005.608 C 1681.333 2006.56 1689.913 2007.911 1695.721 2009.084 C 1701.529 2010.257 1704.571 2011.232 1704.499 2011.699 Z"/>
      <path id="path4188" style="color: rgb(0, 0, 0); fill: rgb(0, 0, 0);" d="M 1619 1979.2 C 1618.936 1979.658 1616.353 1979.737 1611.579 1979.542 C 1606.806 1979.347 1599.841 1978.882 1591 1978.331 C 1582.159 1977.78 1571.441 1977.146 1559.162 1976.621 C 1546.883 1976.095 1533.042 1975.68 1517.969 1975.518 C 1503.147 1975.359 1487.136 1975.447 1470.257 1975.908 C 1453.377 1976.37 1435.63 1977.205 1417.341 1978.49 C 1415.806 1978.598 1414.275 1978.709 1412.748 1978.822 C 1393.902 1980.217 1375.73 1981.997 1358.587 1984.066 C 1341.444 1986.135 1325.331 1988.493 1310.579 1990.954 C 1296.658 1993.277 1283.95 1995.684 1272.729 1998.003 C 1261.509 2000.323 1251.775 2002.552 1243.767 2004.443 C 1235.76 2006.334 1229.476 2007.882 1225.152 2008.832 C 1220.828 2009.783 1218.462 2010.13 1218.321 2009.708 C 1218.181 2009.287 1220.276 2008.12 1224.369 2006.381 C 1228.463 2004.643 1234.558 2002.338 1242.433 1999.731 C 1250.308 1997.125 1259.965 1994.224 1271.158 1991.296 C 1282.352 1988.367 1295.083 1985.416 1309.056 1982.635 C 1323.868 1979.687 1340.088 1976.933 1357.368 1974.581 C 1374.648 1972.229 1392.987 1970.28 1412.004 1968.852 C 1413.545 1968.736 1415.09 1968.624 1416.639 1968.515 C 1435.097 1967.218 1453.019 1966.496 1470.057 1966.26 C 1487.095 1966.023 1503.25 1966.271 1518.185 1966.858 C 1533.371 1967.454 1547.304 1968.401 1559.639 1969.536 C 1571.973 1970.672 1582.709 1971.992 1591.527 1973.289 C 1600.345 1974.585 1607.245 1975.853 1611.925 1976.893 C 1616.605 1977.934 1619.064 1978.742 1619 1979.2 Z"/>
      <path id="path4192" style="color: rgb(0, 0, 0); fill: rgb(0, 0, 0);" d="M 2984.243 1971 C 2985.039 1970.817 2988.768 1971.928 2994.956 1974.29 C 3001.144 1976.652 3009.788 1980.269 3019.976 1985.17 C 3030.168 1990.07 3041.899 1996.257 3053.897 2003.764 C 3065.898 2011.27 3078.156 2020.101 3089.081 2030.23 C 3098.844 2039.291 3107.515 2049.371 3114.173 2060.348 C 3120.831 2071.325 3125.468 2083.201 3127.349 2095.758 C 3128.935 2106.355 3128.62 2117.427 3126.24 2128.851 C 3123.861 2140.275 3119.418 2152.051 3112.943 2164.032 C 3100.841 2186.436 3081.656 2209.587 3056.505 2232.827 C 3055.049 2234.171 3053.576 2235.517 3052.083 2236.862 C 3024.944 2261.315 2993.335 2284.309 2960.167 2305.597 C 2926.998 2326.885 2892.298 2346.469 2858.652 2364.155 C 2825.692 2381.486 2793.644 2397.014 2764.23 2410.557 C 2734.813 2424.1 2708.033 2435.659 2685.409 2445.041 C 2662.788 2454.423 2644.33 2461.631 2631.316 2466.437 C 2618.3 2471.244 2610.73 2473.651 2609.601 2473.373 C 2608.47 2473.094 2613.847 2470.147 2624.746 2464.843 C 2635.643 2459.539 2652.055 2451.875 2672.725 2442.1 C 2693.389 2432.325 2718.308 2420.437 2745.98 2406.647 C 2773.652 2392.857 2804.073 2377.163 2835.574 2359.762 C 2867.724 2341.997 2901.098 2322.452 2933.181 2301.338 C 2965.264 2280.224 2996.027 2257.54 3022.665 2233.515 C 3024.13 2232.193 3025.58 2230.872 3027.007 2229.551 C 3051.715 2206.739 3070.871 2184.149 3083.344 2162.344 C 3090.007 2150.685 3094.797 2139.251 3097.662 2128.168 C 3100.525 2117.085 3101.466 2106.354 3100.612 2096.079 C 3099.605 2083.911 3096.062 2072.384 3090.637 2061.695 C 3085.21 2051.006 3077.907 2041.153 3069.577 2032.245 C 3060.274 2022.29 3049.695 2013.518 3039.373 2005.974 C 3029.054 1998.43 3018.986 1992.109 3010.433 1987.006 C 3001.877 1981.902 2994.832 1978.01 2990.22 1975.332 C 2985.612 1972.654 2983.441 1971.186 2984.238 1971.002 Z"/>
      <path id="path4196" style="color: rgb(0, 0, 0); fill: rgb(0, 0, 0);" d="M 2589.2 2491.7 C 2589.267 2491.912 2587.616 2492.671 2584.33 2493.893 C 2581.044 2495.115 2576.122 2496.799 2569.624 2498.761 C 2563.125 2500.723 2555.05 2502.964 2545.452 2505.212 C 2535.854 2507.46 2524.734 2509.714 2512.163 2511.62 C 2501.564 2513.227 2489.937 2514.58 2477.361 2515.454 C 2464.785 2516.327 2451.26 2516.72 2436.903 2516.396 C 2414.328 2515.885 2389.701 2513.586 2363.65 2508.886 C 2340.771 2504.758 2316.81 2498.788 2292.197 2490.9 C 2269.87 2483.743 2247.025 2475.039 2223.853 2464.907 C 2200.681 2454.775 2177.182 2443.214 2153.512 2430.523 C 2131.286 2418.609 2108.885 2405.704 2086.326 2392.039 C 2063.767 2378.375 2041.049 2363.952 2018.146 2349.081 C 2014.199 2346.519 2010.247 2343.943 2006.289 2341.355 C 1963.709 2313.515 1922.771 2285.862 1883.159 2260.112 C 1859.203 2244.54 1835.738 2229.64 1812.789 2215.703 C 1789.841 2201.766 1767.41 2188.794 1745.581 2176.959 C 1719.558 2162.852 1694.383 2150.366 1670.394 2139.659 C 1646.405 2128.952 1623.604 2120.022 1602.375 2112.735 C 1579.43 2104.859 1558.324 2098.922 1539.667 2094.45 C 1521.01 2089.978 1504.799 2086.959 1491.521 2084.82 C 1478.243 2082.681 1467.895 2081.41 1460.883 2080.526 C 1453.871 2079.643 1450.194 2079.136 1450.214 2078.819 C 1450.234 2078.501 1453.95 2078.388 1461.037 2078.673 C 1468.123 2078.958 1478.58 2079.654 1492.02 2081.25 C 1505.46 2082.847 1521.887 2085.358 1540.814 2089.371 C 1559.74 2093.384 1581.169 2098.911 1604.471 2106.446 C 1626.025 2113.415 1649.175 2122.074 1673.51 2132.553 C 1697.845 2143.032 1723.362 2155.336 1749.687 2169.303 C 1771.77 2181.018 1794.437 2193.892 1817.586 2207.747 C 1840.735 2221.602 1864.366 2236.437 1888.439 2251.955 C 1928.249 2277.614 1969.263 2305.199 2011.759 2332.986 C 2015.709 2335.569 2019.653 2338.14 2023.589 2340.698 C 2046.436 2355.542 2069.046 2369.942 2091.455 2383.592 C 2113.864 2397.242 2136.071 2410.14 2158.071 2422.061 C 2181.501 2434.754 2204.706 2446.34 2227.552 2456.526 C 2250.398 2466.712 2272.884 2475.496 2294.845 2482.765 C 2319.05 2490.779 2342.589 2496.934 2365.069 2501.295 C 2390.663 2506.26 2414.876 2508.905 2437.109 2509.814 C 2465.387 2510.971 2490.448 2509.359 2511.496 2506.781 C 2523.978 2505.253 2535.062 2503.387 2544.662 2501.534 C 2554.263 2499.682 2562.382 2497.842 2568.952 2496.285 C 2575.521 2494.727 2580.544 2493.452 2583.945 2492.643 C 2587.346 2491.833 2589.129 2491.49 2589.195 2491.702 Z"/>
      <path id="path4204" style="color: rgb(0, 0, 0); fill: rgb(0, 0, 0);" d="M 1233.949 2113.589 C 1233.983 2113.347 1237.555 2113.572 1244.409 2114.417 C 1251.264 2115.262 1261.404 2116.733 1274.494 2119.292 C 1287.584 2121.85 1303.628 2125.501 1322.147 2130.923 C 1340.666 2136.344 1361.665 2143.541 1384.439 2153.32 C 1404.464 2161.921 1425.823 2172.504 1448.041 2185.35 C 1470.26 2198.196 1493.338 2213.31 1516.779 2230.72 C 1537.018 2245.751 1557.54 2262.43 1578.684 2280.061 C 1602.787 2300.158 1627.698 2321.59 1653.505 2343.99 C 1679.84 2366.848 1707.116 2390.726 1735.35 2415.344 C 1763.584 2439.962 1792.777 2465.319 1823.009 2491.061 C 1850.504 2514.472 1878.843 2538.214 1908.208 2561.841 C 1933.722 2582.368 1959.972 2602.834 1987.353 2622.497 C 2009.233 2638.203 2031.719 2653.5 2055.573 2666.762 C 2059.542 2668.967 2063.54 2671.111 2067.579 2673.162 C 2072.979 2675.904 2078.433 2678.466 2083.958 2680.773 C 2091.727 2684.006 2099.546 2686.78 2107.469 2688.351 C 2145.693 2696.009 2184.112 2699.782 2221.908 2701.091 C 2264.804 2702.573 2306.913 2700.785 2347.658 2696.423 C 2391.761 2691.7 2434.26 2683.933 2474.479 2673.367 C 2516.564 2662.305 2556.145 2648.174 2592.178 2630.989 C 2610.755 2622.126 2628.409 2612.46 2644.888 2602.014 C 2661.367 2591.568 2676.673 2580.341 2690.649 2568.412 C 2705.151 2556.038 2718.19 2542.92 2729.567 2529.276 C 2741.582 2514.867 2751.74 2499.873 2759.991 2484.734 C 2769.125 2467.976 2775.927 2451.045 2780.738 2434.599 C 2786.478 2414.985 2789.413 2396.075 2790.601 2378.632 C 2791.405 2366.839 2791.413 2355.705 2790.946 2345.333 C 2790.479 2334.962 2789.537 2325.35 2788.371 2316.559 C 2786.884 2305.336 2785.039 2295.444 2783.223 2286.92 C 2781.406 2278.394 2779.616 2271.235 2778.112 2265.465 C 2776.606 2259.697 2775.384 2255.318 2774.596 2252.363 C 2773.811 2249.409 2773.46 2247.878 2773.614 2247.827 C 2773.768 2247.776 2774.421 2249.205 2775.51 2252.069 C 2776.598 2254.933 2778.123 2259.232 2779.929 2264.942 C 2781.737 2270.651 2783.828 2277.772 2785.946 2286.291 C 2788.063 2294.811 2790.209 2304.731 2791.998 2316.033 C 2793.397 2324.886 2794.57 2334.589 2795.258 2345.096 C 2795.946 2355.601 2796.149 2366.909 2795.541 2378.926 C 2794.637 2396.704 2791.939 2416.044 2786.343 2436.199 L 2786.343 2436.199 C 2781.649 2453.096 2774.903 2470.53 2765.73 2487.82 C 2757.446 2503.439 2747.199 2518.917 2735.038 2533.793 C 2723.521 2547.876 2710.311 2561.418 2695.606 2574.174 C 2681.437 2586.464 2665.922 2598.036 2649.225 2608.797 C 2632.527 2619.558 2614.646 2629.51 2595.843 2638.613 C 2559.375 2656.275 2519.339 2670.818 2476.822 2682.187 C 2436.19 2693.053 2393.251 2701.066 2348.703 2705.964 C 2307.551 2710.492 2264.985 2712.393 2221.582 2710.963 C 2183.35 2709.706 2144.388 2705.911 2105.511 2698.149 C 2096.666 2696.366 2088.213 2693.402 2080.104 2690 C 2074.315 2687.578 2068.64 2684.913 2063.056 2682.081 C 2058.881 2679.964 2054.77 2677.759 2050.714 2675.501 C 2026.346 2661.934 2003.546 2646.421 1981.542 2630.582 C 1953.968 2610.74 1927.603 2590.127 1902.049 2569.483 C 1872.628 2545.718 1844.28 2521.847 1816.816 2498.314 C 1786.614 2472.436 1757.49 2446.944 1729.355 2422.189 C 1701.221 2397.434 1674.076 2373.417 1647.895 2350.415 C 1622.237 2327.872 1597.516 2306.306 1573.63 2286.075 C 1552.662 2268.316 1532.402 2251.555 1512.473 2236.46 C 1489.404 2218.988 1466.708 2203.769 1444.858 2190.778 C 1423.009 2177.787 1402.004 2167.017 1382.301 2158.192 C 1359.9 2148.154 1339.212 2140.638 1320.947 2134.858 C 1302.683 2129.078 1286.839 2125.027 1273.906 2122.046 C 1260.973 2119.064 1250.947 2117.146 1244.183 2115.839 C 1237.419 2114.533 1233.914 2113.832 1233.947 2113.59 Z"/>
      <path id="path4236" style="color:#000000;fill:#000000" d="M 2601.4 514.76 C 2601.4 514.418 2604.98 514.107 2611.802 513.998 C 2618.624 513.889 2628.699 513.984 2641.657 514.77 C 2654.615 515.556 2670.465 517.033 2688.693 519.992 C 2706.922 522.952 2727.536 527.396 2749.782 534.422 L 2749.782 534.422 C 2767.812 540.119 2786.877 547.567 2806.281 557.275 C 2825.685 566.984 2845.427 578.954 2864.587 593.634 C 2879.768 605.273 2894.531 618.581 2908.489 633.489 C 2922.447 648.397 2935.6 664.903 2947.555 682.817 C 2958.475 699.183 2968.413 716.679 2977.265 735.097 C 2986.117 753.515 2993.884 772.853 3000.51 792.839 C 3000.631 793.204 3000.751 793.568 3000.871 793.932 C 3014.717 836.003 3022.846 878.438 3027.1 919.202 C 3031.97 965.844 3031.812 1010.357 3028.854 1051.072 C 3027.04 1076.042 3024.17 1099.61 3020.66 1121.514 C 3017.15 1143.418 3013.002 1163.66 3008.628 1182.036 C 3003.981 1201.564 2999.078 1218.993 2994.36 1234.12 C 2989.643 1249.247 2985.117 1262.075 2981.195 1272.446 C 2977.274 1282.817 2973.962 1290.733 2971.59 1296.036 C 2969.219 1301.34 2928.606 1777.174 2928.314 1777.057 C 2928.022 1776.94 3085.622 1899.261 3087.431 1893.754 C 3089.241 1888.248 2974.441 1281.773 2977.822 1271.266 C 2981.203 1260.759 2985.201 1247.836 2989.408 1232.661 C 2993.615 1217.487 2998.027 1200.06 3002.212 1180.583 C 3006.15 1162.255 3009.888 1142.11 3013.022 1120.352 C 3016.157 1098.594 3018.686 1075.221 3020.206 1050.492 C 3022.683 1010.17 3022.493 966.202 3017.461 920.232 C 3013.061 880.061 3004.97 838.342 2991.372 797.062 C 2991.254 796.704 2991.136 796.347 2991.017 795.99 C 2984.511 776.387 2976.926 757.433 2968.309 739.391 C 2959.692 721.349 2950.043 704.22 2939.452 688.202 C 2927.867 670.677 2915.137 654.502 2901.633 639.864 C 2888.129 625.227 2873.852 612.128 2859.166 600.636 C 2840.641 586.131 2821.497 574.204 2802.638 564.432 C 2783.779 554.659 2765.204 547.04 2747.602 541.094 C 2725.874 533.751 2705.655 528.892 2687.726 525.451 C 2669.797 522.01 2654.152 519.988 2641.334 518.618 C 2628.516 517.248 2618.517 516.531 2611.738 515.995 C 2604.959 515.46 2601.394 515.103 2601.399 514.762 L 2601.4 514.76 Z"/>
      <path id="path-1" style="color: rgb(0, 0, 0); fill: rgb(0, 0, 0);" d="M 3091.401 2018.656 C 3091.45 2018.444 3090.224 2017.685 3087.781 2016.464 C 3085.339 2015.241 3081.681 2013.557 3076.853 2011.595 C 3072.023 2009.633 3066.021 2007.392 3058.889 2005.144 C 3051.756 2002.896 3043.492 2000.642 3034.149 1998.736 C 3026.273 1997.13 3017.632 1995.776 3008.285 1994.902 C 2998.94 1994.029 2988.888 1993.635 2978.218 1993.96 C 2961.441 1994.47 2943.14 1996.769 2923.779 2001.47 C 2906.776 2005.599 2888.969 2011.568 2870.678 2019.456 C 2854.085 2026.613 2837.107 2035.318 2819.887 2045.449 C 2802.666 2055.582 2785.202 2067.143 2767.612 2079.833 C 2751.094 2091.748 2734.446 2104.652 2717.681 2118.317 C 2700.916 2131.981 2684.033 2146.404 2667.012 2161.275 C 2664.079 2163.837 2661.142 2166.414 2658.2 2169.001 C 2626.556 2196.841 2596.132 2224.495 2566.694 2250.245 C 2548.891 2265.816 2531.452 2280.716 2514.397 2294.653 C 2497.343 2308.59 2480.673 2321.563 2464.451 2333.397 C 2445.111 2347.504 2426.402 2359.99 2408.574 2370.697 C 2390.746 2381.404 2373.801 2390.334 2358.024 2397.622 C 2340.972 2405.498 2325.287 2411.435 2311.422 2415.906 C 2297.557 2420.378 2285.509 2423.397 2275.641 2425.537 C 2265.774 2427.675 2258.083 2428.946 2252.872 2429.831 C 2247.661 2430.713 2244.929 2431.22 2244.943 2431.538 C 2244.958 2431.854 2247.72 2431.968 2252.987 2431.684 C 2258.252 2431.398 2266.024 2430.703 2276.012 2429.105 C 2286 2427.509 2298.208 2424.999 2312.274 2420.985 C 2326.34 2416.973 2342.265 2411.445 2359.582 2403.911 C 2375.6 2396.941 2392.805 2388.282 2410.89 2377.803 C 2428.975 2367.324 2447.938 2355.021 2467.502 2341.053 C 2483.913 2329.338 2500.759 2316.464 2517.962 2302.609 C 2535.166 2288.754 2552.728 2273.919 2570.618 2258.401 C 2600.203 2232.743 2630.684 2205.157 2662.265 2177.371 C 2665.201 2174.788 2668.132 2172.216 2671.057 2169.658 C 2688.036 2154.814 2704.839 2140.415 2721.493 2126.765 C 2738.147 2113.114 2754.65 2100.216 2771 2088.295 C 2788.412 2075.603 2805.657 2064.017 2822.636 2053.831 C 2839.614 2043.644 2856.325 2034.86 2872.646 2027.591 C 2890.634 2019.578 2908.127 2013.422 2924.834 2009.061 C 2943.854 2004.095 2961.849 2001.452 2978.372 2000.542 C 2999.387 1999.385 3018.011 2000.997 3033.654 2003.575 C 3042.93 2005.103 3051.167 2006.969 3058.301 2008.822 C 3065.437 2010.674 3071.47 2012.515 3076.353 2014.071 C 3081.236 2015.63 3084.968 2016.904 3087.495 2017.714 C 3090.024 2018.524 3091.348 2018.865 3091.397 2018.654 Z" transform="matrix(-1, 0, 0, -1, 5336.346327, 4425.693509)"/>
    </g>
  </g>
</svg>