<svg class="hairPieces" width="86" height="380" viewBox="198.424 583.794 98 380.048" xmlns="http://www.w3.org/2000/svg"><defs><filter id="a" color-interpolation-filters="sRGB"><feGaussianBlur stdDeviation="12.932"/></filter><filter id="b" color-interpolation-filters="sRGB"><feGaussianBlur stdDeviation="8.555"/></filter><filter id="c" color-interpolation-filters="sRGB"><feGaussianBlur stdDeviation="10.57"/></filter></defs><g><path d="M275.773 585.72c1.385-.19 3.898 3.686 5.23 4.945 2.748 3.544 4.92 7.727 6.362 12.39 1.424 4.6 2.137 9.667 1.99 15.047-.085 3.082 1.01 8.815.432 11.351-.452 1.908 7.046 31.943 7.512 40.555 2.587 47.796-22.213 65.186-17.302 50.794 9-26.372-5.73-31.635-6.998-33.102-2.039-2.36.88 2.84-13.996 5.222-5.462.875-15.364-2.171-19.306-6.965-3.875-4.713-1.908-11.18-1.836-11.436.057-.203-1.896-5.243-1.66-10.047.096-1.941-4.733-3.085-3.646-4.615.516-.726 1.452 1.603 5.787 3.204 1.53.564 4.016.986 5.718 1.936 3.94 2.2 10.122 1.137 11.998.664 7.087-1.787 29.674-22.816 21.392-45.774-.902-2.499-3.828-1.681-6.975-8.685-14.922-33.2-35.973-11.275-40.907-5.169-4.058 5.023-5.302 7.91-6.818 11.029-9.254 19.03-.156 5.37-3.21 10.918-.853 1.55 1.63 2.436 1.95 3.332.116.325-1.977-6.776-2.518-9.435-.83-4.077 3.738-8.501 4.842-13.118.371-1.552 4.1.843 4.873-.78.629-1.323 2.167-2.605 2.664-3.743 1.052-2.409 1.364-4.733 2.302-6.55 1.799-3.496 3.931-5.571 4.138-5.942 1.048-1.869 6.876-8.413 14.698-9.37 10.32-1.263 23.126 3.367 23.278 3.347l.006-.002z" fill="#e9afaf"/><path d="M277.642 627.3c.742.99 1.489 2.467 1.609 2.015.214-.89.301-1.391.37-1.929.08-.64.134-1.331.342-2.792.21-1.47.748-5 .03-8.526-.587-2.88-1.727-6.219-2.156-5.549-.14.219-.164 1.573-.09 3.06.107 2.168.589 5.2.598 7.882.005 1.765-.454 3.672-.613 4.878-.057.429-.189.733-.09.96z" fill="#4d4d4d"/><path d="M226.014 586.325c-1.622-.19-4.566 3.685-6.126 4.944a37.292 37.292 0 0 0-7.452 12.39c-1.668 4.6-2.503 9.667-2.33 15.047.098 3.082-1.185 8.815-.507 11.351.53 1.908-6.03 29.773-8.8 40.555-8.526 33.206 24.695 63.295 18.451 53.543-4.585-7.16-8.104-29.286-.692-30.752 3.347-.663 9.675-2.26 27.1.123 6.397.875 17.996-2.171 22.613-6.965 4.54-4.713 2.236-11.18 2.151-11.436-.066-.203 2.221-5.243 1.944-10.047-.112-1.941-.988-4.679-2.262-6.209-.604-.725-1.234 2.002-2.578 3.602-1.093 1.301-2.37 2.182-4.365 3.132-4.614 2.2-11.856 1.137-14.054.664-2.526-.544-3.042 2.255-10.317-2.543-15.467-10.198-24.792-43.961-15.718-50.77 29.412-22.07-4.252-14.4 24.77-19.897 20.267-3.839 25.561 10.539 30.13 17.256 1.878 2.761 18.491 12.845 2.295 9.557-3.24-.657.022 6.38-.95 9.075-.607 1.683 1.557 2.648 1.182 3.544-.136.325 1.017-1.637 1.65-4.296.971-4.077 1.48-10.132.187-14.749-.434-1.552-.262-3.236-1.167-4.86-.738-1.322-2.54-2.604-3.121-3.742-1.232-2.409-1.598-4.733-2.697-6.55-2.107-3.496-4.604-5.572-4.847-5.942-1.227-1.869-8.053-8.414-17.216-9.37-12.09-1.263-27.088 3.367-27.267 3.347l-.007-.002z" fill="#e9afaf"/><path d="M1320.2 1255.8c-67.396 0-163.49 612.09-163.49 654.78 0 42.684 71.893-144.2 139.29-144.2 67.396 0 182.43 91.966 182.43 49.282 0-8.141-3.304-33.541-9.12-69.322-24.676-151.824-94.57-490.538-149.11-490.538v-.002z" filter="url(#a)" fill="#aa628a" transform="matrix(.04248 0 0 .04103 154.65 578.79)"/><path d="M1481.58 812.595c-20.899 1.474 45.984-120.22 153.02-223.7 79.473-76.829 490.63-257.83 689.07-312.96 27.847-7.736 85.998 50.637 88.812 94.281 1.07 16.602-67.371 21.232-58.303 33.718 16.363 22.53 122.409 13.691 123.78 12.923 2.076-1.166 90.871 17.228 162.33 52.581 72.705 35.97 122.59 120.6 109.87 104.83-22.088-27.375-16.746-117.06-109.45-174.43-21.301-13.18-156.55-19.562-174.08-33.239-160.87-125.54-271.19-263.5-290.02-257-1.764.609-151.9-27.103-285.65 20.376-194.68 69.108-396.46 223.51-402.63 242.09-10.77 32.372 241.32-78.314 426.37-113.04 109.98-20.639 194.42 30.201 191.03 31.446-135.7 49.909-392.06 156.08-498.38 231.71-144.24 102.6-273.36 221.49-265.05 241.14 16.61 39.319 135.17 669.81 202.57 669.81 19.275 0 17.706-82.081 31.09-176.17 11.851-83.305-90.902-108.06-98.778-161.56-5.111-34.706-36.003-16.485-34.834-55.05 1.089-35.938-8.127-118.067 167.253-300.857 164.28-171.23 123.379-283.569 123.379-289.689 0-28.457 167.211 58.861-46.219 198.851-106.7 69.989-182.77 162.35-205.18 163.93v.009z" filter="url(#b)" fill="#aa628a" transform="matrix(.04248 0 0 .04103 154.65 578.79)"/><path d="M3092.765 1840.841c-31.019-5.375-460.858 263.919-554.005 276.899-100.88 14.049-236.02 1.916-236.02 22.967 0 3.594 54.819 53.714.621 62.383-53.072 8.489-215.29-24.779-205.47 7.211 5.382 17.529 303.23 109.261 298.55 124.16-7.302 23.266-175.63-12.164-174.31 13.408 1.474 28.587 185.09 89.744 166.75 111.39-16.308 19.241-335.6-95.566-346.73-74.211-7.237 13.89 282.71 153.34 271.21 164.87-23.654 23.742-372.24-126.89-387.85-101.33-17.14 28.066 166.61 146.07 148.95 168.4-26.561 33.575-219.45-55.491-222.14-27.854-2.969 30.522 281.9 218.51 293.44 218.51 24.291 0 273.82-14.348 402.25-69.114 92.325-39.369 282.966-17.384 363.646-44.68 135.398-45.809 252.641-256.731 252.641-274.321 0-15.303 36.306-174.124 24.882-232.471-6.965-35.571-35.612-233.963-44.326-275.294-12.51-59.332-39.219-40.861-52.089-43.091v-27.832z" filter="url(#c)" fill="#aa628a" transform="matrix(.04248 0 0 .04103 154.65 578.79)"/><path d="M266.534 603.501c.002-.014.12-.014.342.003s.55.05.97.113c.42.063.932.154 1.52.295.588.14 1.25.33 1.965.596.574.215 1.181.482 1.8.816.617.333 1.246.733 1.858 1.214a12.55 12.55 0 0 1 2.622 2.834c.349.52.666 1.075.949 1.657a15.643 15.643 0 0 1 .943 2.45 20.9 20.9 0 0 1 .688 3.354c.19 1.524.233 2.986.203 4.338a41.157 41.157 0 0 1-.263 3.774 47.683 47.683 0 0 1-.425 2.908 38.614 38.614 0 0 1-.373 1.867c-.1.43-.165.658-.185.655-.02-.004.006-.24.068-.675.061-.435.158-1.072.268-1.88.11-.807.234-1.785.336-2.905s.183-2.38.195-3.75a30.835 30.835 0 0 0-.237-4.283 21.208 21.208 0 0 0-.684-3.29 15.69 15.69 0 0 0-.915-2.391 13.532 13.532 0 0 0-.913-1.614c-.363-.549-.762-1.057-1.185-1.52s-.87-.88-1.33-1.252a12.924 12.924 0 0 0-1.788-1.21 14.84 14.84 0 0 0-1.742-.834c-.693-.279-1.34-.484-1.915-.643a23.156 23.156 0 0 0-1.49-.358c-.411-.085-.733-.144-.951-.186-.218-.043-.332-.07-.33-.083z" color="#000"/><path d="M278.029 604.753c-.008.003-.087-.169-.236-.503-.149-.335-.369-.833-.668-1.478-.299-.645-.677-1.438-1.153-2.357s-1.05-1.963-1.754-3.102a38.996 38.996 0 0 0-1.914-2.822 32.574 32.574 0 0 0-2.523-3.003 28.46 28.46 0 0 0-2.353-2.21 25.736 25.736 0 0 0-5.63-3.598 26.897 26.897 0 0 0-3.151-1.242 29.697 29.697 0 0 0-3.305-.858c-1.141-.229-2.32-.4-3.528-.514a41.419 41.419 0 0 0-3.812-.18 51.214 51.214 0 0 0-3.953.151 64.04 64.04 0 0 0-4.332.48c-1.462.211-2.939.471-4.429.771-1.604.321-3.222.69-4.852 1.1-1.63.41-3.273.86-4.927 1.346a66.86 66.86 0 0 0-3.941 3.324 38.684 38.684 0 0 0-3.334 3.427 29.332 29.332 0 0 0-2.73 3.761 29.45 29.45 0 0 0-2.164 4.347 38.092 38.092 0 0 0-1.637 5.188c-.51 2.098-.87 4.2-1.142 6.28-.338 2.582-.543 5.13-.68 7.622a184.392 184.392 0 0 0-.254 9.209 3.66 3.66 0 0 1-.031.415c-.023.195-.053.387-.085.577a38.423 38.423 0 0 1-.316 1.619c-.156.732-.32 1.455-.486 2.169-.206.89-.416 1.766-.625 2.63-.526 2.174-1.048 4.265-1.549 6.27-.616 2.472-1.202 4.811-1.744 7.005a695.47 695.47 0 0 0-1.697 6.996c-.279 1.18-.537 2.293-.772 3.336a202.08 202.08 0 0 0-.635 2.91c-.2.958-.374 1.83-.519 2.61-.15.816-.269 1.533-.354 2.146-.045.318-.08.608-.107.869a12.42 12.42 0 0 0-.055.717c-.01.225-.008.41 0 .556a2.946 2.946 0 0 0 .034.288c.012.064.021.096.018.097-.004.001-.02-.028-.04-.092a1.169 1.169 0 0 1-.029-.12 2.195 2.195 0 0 1-.026-.17 4.638 4.638 0 0 1-.024-.56c.002-.209.012-.45.033-.724.02-.262.049-.554.087-.874.073-.617.18-1.337.318-2.156.132-.785.295-1.66.484-2.62.178-.9.38-1.875.605-2.92.225-1.046.474-2.162.744-3.345a578.6 578.6 0 0 1 1.65-7.01c.53-2.197 1.103-4.539 1.708-7.013.491-2.007 1.005-4.1 1.523-6.275.206-.863.412-1.739.615-2.628.163-.713.325-1.434.478-2.164.11-.531.219-1.065.308-1.605.03-.187.06-.374.08-.56.016-.13.028-.255.028-.376.008-2.97.064-6.053.233-9.227.133-2.5.335-5.057.671-7.651.271-2.09.631-4.207 1.144-6.323.426-1.76.96-3.519 1.65-5.243a29.79 29.79 0 0 1 2.226-4.46 29.678 29.678 0 0 1 2.736-3.76 38.996 38.996 0 0 1 3.372-3.463 69.047 69.047 0 0 1 4.04-3.378c1.67-.491 3.331-.948 4.98-1.363 1.649-.416 3.286-.789 4.908-1.115a80.919 80.919 0 0 1 4.453-.765 64.2 64.2 0 0 1 4.36-.473 51.21 51.21 0 0 1 3.985-.141c1.307.007 2.591.07 3.846.192 1.219.12 2.41.297 3.563.533 1.154.236 2.27.53 3.34.881 1.115.366 2.179.794 3.185 1.272a25.886 25.886 0 0 1 5.673 3.67 28.448 28.448 0 0 1 2.36 2.245c.96 1.023 1.79 2.05 2.518 3.043s1.352 1.953 1.895 2.855c.694 1.15 1.257 2.205 1.721 3.133a49.796 49.796 0 0 1 1.736 3.88c.133.34.196.518.188.521zM223.476 676.464c.02-.012.345.298.925.873l1.058 1.053c.414.411.888.88 1.423 1.396.53.511 1.117 1.068 1.767 1.66.65.591 1.36 1.216 2.138 1.861.65.54 1.348 1.093 2.098 1.65.75.556 1.552 1.115 2.415 1.666a34.23 34.23 0 0 0 5.18 2.732c.93.389 1.888.737 2.873 1.035a28.48 28.48 0 0 0 9.714 1.19 32.479 32.479 0 0 0 3.937-.437 36.84 36.84 0 0 0 3.598-.808c.783-.216 1.52-.447 2.209-.68a46.07 46.07 0 0 0 1.909-.692 51.223 51.223 0 0 0 1.876-.772c.543-.235 1.001-.444 1.372-.616.37-.172.653-.306.844-.396.192-.09.292-.136.294-.131.003.004-.091.057-.277.155a46.526 46.526 0 0 1-5.998 2.581c-.694.241-1.44.48-2.231.706-1.134.322-2.36.613-3.648.842a32.768 32.768 0 0 1-4 .464 29.87 29.87 0 0 1-3.5-.022 28.592 28.592 0 0 1-9.251-2.19c-.136-.056-.27-.114-.404-.172A33.528 33.528 0 0 1 235 686.83a40.026 40.026 0 0 1-2.41-1.681 46.301 46.301 0 0 1-2.083-1.667 55.16 55.16 0 0 1-2.11-1.886 67.572 67.572 0 0 1-1.73-1.685 81.17 81.17 0 0 1-2.383-2.507c-.544-.596-.829-.928-.808-.94z" color="#000"/><path d="M218.667 631.138c.028-.007.15.338.362.962.212.624.515 1.527.918 2.633a80.595 80.595 0 0 0 1.518 3.848 86.203 86.203 0 0 0 2.219 4.801 98.047 98.047 0 0 0 2.356 4.424 117.852 117.852 0 0 0 2.08 3.53c.61.994 1.114 1.793 1.458 2.348.344.554.527.866.503.881-.024.015-.253-.267-.64-.797-.386-.53-.93-1.306-1.573-2.286a78.196 78.196 0 0 1-4.66-8.12 70.455 70.455 0 0 1-2.104-4.646 59.763 59.763 0 0 1-1.44-3.897 42.832 42.832 0 0 1-.793-2.678c-.164-.638-.233-.996-.204-1.003z" color="#000"/><path d="M208.738 621.445c.008-.002.043.09.105.274.062.183.15.455.268.812.235.713.585 1.761 1.084 3.088.499 1.326 1.149 2.93 2.003 4.74a57.2 57.2 0 0 0 3.246 5.944 130.188 130.188 0 0 1 1.961 3.245c.665 1.133 1.34 2.315 2.034 3.536.608 1.07 1.23 2.17 1.873 3.292a173.98 173.98 0 0 0 2.007 3.421c1.284 2.126 2.68 4.294 4.265 6.417a49.94 49.94 0 0 0 4.195 4.944c.314.323.632.64.955.952 1.24 1.199 2.619 2.229 4.031 3.16a43.94 43.94 0 0 0 5.212 2.923 47.705 47.705 0 0 0 5.892 2.356c1.034.334 2.06.625 3.074.869a34.99 34.99 0 0 0 2.997.588c1.007.15 1.996.25 2.958.291.961.04 1.895.022 2.793-.059.91-.081 1.782-.228 2.6-.443.843-.22 1.628-.513 2.338-.868a9.855 9.855 0 0 0 2.016-1.334 9.259 9.259 0 0 0 1.64-1.845c.289-.425.525-.846.723-1.25.198-.404.357-.792.488-1.153.17-.47.294-.897.389-1.27.095-.372.162-.691.213-.949.05-.258.084-.455.109-.588.024-.132.039-.2.046-.2.006.002.005.07-.006.205-.012.135-.033.334-.07.596a13.253 13.253 0 0 1-.535 2.253c-.124.37-.277.765-.47 1.179-.192.414-.426.847-.712 1.285a9.542 9.542 0 0 1-1.652 1.911c-.585.516-1.272.992-2.053 1.393-.724.372-1.525.68-2.384.912-.835.227-1.723.384-2.649.474a21.48 21.48 0 0 1-2.838.08 27.963 27.963 0 0 1-2.998-.277 35.127 35.127 0 0 1-3.033-.58 41.65 41.65 0 0 1-3.107-.864 47.627 47.627 0 0 1-5.95-2.357 43.97 43.97 0 0 1-5.268-2.943c-1.428-.937-2.828-1.982-4.094-3.205a43.31 43.31 0 0 1-.965-.961 49.829 49.829 0 0 1-4.226-4.988c-1.594-2.14-2.992-4.321-4.273-6.458-.697-1.161-1.36-2.31-2-3.435-.64-1.126-1.257-2.23-1.86-3.302a326.842 326.842 0 0 0-2.01-3.542c-.657-1.135-1.3-2.22-1.935-3.25a55.62 55.62 0 0 1-3.203-6.003 57.746 57.746 0 0 1-1.939-4.785 52.527 52.527 0 0 1-1.003-3.12 26.313 26.313 0 0 1-.223-.825c-.047-.187-.067-.285-.059-.287zM294.651 659.39c.005-.04-.074-.137-.23-.288-.154-.151-.385-.357-.681-.623a37.828 37.828 0 0 1-1.07-.99c-.413-.4-.879-.874-1.38-1.446a20.694 20.694 0 0 1-2.488-3.505 24.588 24.588 0 0 1-1.774-3.96c-.475-1.357-.894-2.886-1.248-4.528a54.06 54.06 0 0 1-.113-.535 78.536 78.536 0 0 1-.894-5.42 215.568 215.568 0 0 1-.61-5.166c-.229-2.093-.431-4.031-.619-5.756a345.196 345.196 0 0 0-.51-4.478 107.201 107.201 0 0 0-.386-2.886c-.1-.664-.169-1.013-.196-1.002-.027.012-.01.384.04 1.067.052.682.137 1.675.246 2.932.11 1.256.242 2.777.396 4.511.154 1.735.328 3.684.535 5.795.161 1.655.343 3.42.578 5.245.234 1.825.522 3.71.908 5.59.038.187.077.373.117.557.37 1.715.816 3.318 1.326 4.742.577 1.611 1.231 2.978 1.898 4.106.45.76.904 1.414 1.346 1.982.442.569.872 1.052 1.278 1.468.524.537 1.009.964 1.438 1.31.43.347.806.612 1.115.812.308.2.55.334.717.41.166.077.256.096.261.056zM280.558 631.15c-.019-.005-2.8-4.887-2.775-5.072.026-.186.069-.456.115-.799a22.863 22.863 0 0 0 .207-2.85 32.02 32.02 0 0 0-.038-1.862c-.031-.66-.08-1.354-.139-2.072l-.009-.108c-.057-.707-.119-1.394-.171-2.05a63.998 63.998 0 0 1-.126-1.861 33.228 33.228 0 0 1-.046-1.688c0-.504.016-.945.038-1.307.023-.363.053-.647.081-.841.028-.194.055-.296.075-.295.02.001.032.106.04.3.008.195.013.48.022.84a51.949 51.949 0 0 0 .16 2.968c.046.577.103 1.197.165 1.85.062.654.128 1.341.186 2.052a50.528 50.528 0 0 1 .132 2.196c.022.667.02 1.3-.004 1.886a18.058 18.058 0 0 1-.14 1.632c-.065.484-.144.903-.222 1.246a8.264 8.264 0 0 1-.216.787c-.06.179-.104.271-.123.267l2.788 4.78zM229.816 660.587c-.018.022-.309-.167-.83-.512-.52-.345-1.271-.846-2.22-1.432a53.756 53.756 0 0 0-3.405-1.939 50.364 50.364 0 0 0-4.395-2.028 53.999 53.999 0 0 0-4.53-1.592 65.09 65.09 0 0 0-3.799-1.023c-1.09-.26-1.98-.447-2.595-.58-.614-.134-.953-.214-.948-.242.004-.028.353 0 .978.084.625.086 1.527.23 2.632.456 1.105.225 2.414.532 3.846.944a47.24 47.24 0 0 1 4.58 1.575l.034.014a44.335 44.335 0 0 1 4.385 2.06 42.93 42.93 0 0 1 3.383 2.03c.934.62 1.662 1.16 2.153 1.545.246.193.433.348.557.457.123.109.183.172.174.183zM227.055 661.338c-.003.019-.138.016-.388.003-.249-.012-.613-.034-1.074-.042a20.144 20.144 0 0 0-1.66.041c-.638.042-1.355.12-2.128.242a30.17 30.17 0 0 0-2.248.449 41.55 41.55 0 0 0-2.987.834c-.912.287-1.783.588-2.6.88-.818.29-1.583.573-2.28.83-.833.306-1.572.576-2.189.788a26.14 26.14 0 0 1-1.436.457c-.34.094-.528.13-.536.108-.007-.022.167-.1.49-.233.324-.133.797-.322 1.39-.563.602-.244 1.327-.54 2.152-.87.69-.277 1.45-.576 2.267-.88a56.508 56.508 0 0 1 3.16-1.077c.844-.257 1.674-.48 2.473-.66.798-.182 1.567-.321 2.288-.42.787-.107 1.52-.164 2.17-.181a15.41 15.41 0 0 1 1.685.044c.467.039.831.094 1.078.142.247.048.376.088.373.108zM223.423 660.004c-.003.019-.112.022-.315.014-.203-.008-.499-.027-.874-.05a56.596 56.596 0 0 0-5.129-.1 54.581 54.581 0 0 0-4.744.336 47.236 47.236 0 0 0-3.647.572c-.477.095-.89.186-1.23.264-.34.077-.607.14-.791.18-.184.039-.284.053-.29.036-.006-.017.083-.065.257-.137.174-.071.433-.166.767-.273.335-.106.745-.226 1.22-.346.476-.12 1.017-.24 1.61-.355.63-.121 1.318-.234 2.052-.33a40.156 40.156 0 0 1 2.518-.25 41.876 41.876 0 0 1 2.27-.092c.723-.01 1.41 0 2.044.025a34.95 34.95 0 0 1 1.76.11c.524.046.98.1 1.355.153.375.054.668.106.866.148.2.043.304.076.301.095zM281.416 659.668c.034-.008.192.038.455.135.263.096.63.245 1.063.446.433.201.931.455 1.441.763s1.03.67 1.495 1.086c.414.372.783.785 1.065 1.236.283.45.48.938.56 1.453.067.435.054.889-.047 1.358-.101.468-.29.952-.565 1.443-.514.92-1.329 1.87-2.397 2.823l-.188.166c-1.153 1.003-2.496 1.947-3.905 2.82a58.47 58.47 0 0 1-4.312 2.403 86.577 86.577 0 0 1-4.01 1.904 97.542 97.542 0 0 1-3.349 1.415c-.96.385-1.745.68-2.298.878-.552.197-.874.296-.922.285-.048-.012.18-.133.643-.35.463-.218 1.16-.532 2.038-.934a168.81 168.81 0 0 0 3.112-1.454c1.176-.566 2.468-1.21 3.806-1.924a63.526 63.526 0 0 0 4.146-2.398c1.363-.866 2.67-1.797 3.801-2.783l.185-.162c1.05-.936 1.863-1.863 2.393-2.758.283-.478.486-.948.608-1.402.122-.455.162-.895.125-1.317a3.705 3.705 0 0 0-.423-1.41 5.311 5.311 0 0 0-.895-1.21 9.054 9.054 0 0 0-1.283-1.077 15.81 15.81 0 0 0-1.23-.779c-.363-.21-.662-.369-.858-.479-.196-.11-.288-.17-.254-.177zM264.635 681.034c.003.008-.067.04-.206.09-.14.05-.35.119-.625.2a18.627 18.627 0 0 1-3.92.685c-.533.035-1.108.051-1.718.038a20.822 20.822 0 0 1-3.112-.308c-.971-.17-1.99-.414-3.035-.738a31.206 31.206 0 0 1-2.903-1.067 42.367 42.367 0 0 1-2.988-1.41 63.307 63.307 0 0 1-2.854-1.58 110.389 110.389 0 0 1-3.4-2.08c-1.808-1.142-3.547-2.277-5.23-3.333a116.639 116.639 0 0 0-2.99-1.822 68.13 68.13 0 0 0-2.854-1.59 47.233 47.233 0 0 0-3.194-1.53 35.718 35.718 0 0 0-2.89-1.106 29.927 29.927 0 0 0-2.663-.75 28.348 28.348 0 0 0-2.045-.395c-.564-.088-1.004-.14-1.302-.176-.297-.036-.454-.057-.453-.07.001-.013.159-.018.46-.006.301.011.745.04 1.316.105.571.066 1.269.169 2.073.334.804.164 1.714.391 2.704.7a34.26 34.26 0 0 1 2.933 1.072c1.033.43 2.117.934 3.235 1.508.938.48 1.901 1.009 2.885 1.577a107.79 107.79 0 0 1 3.01 1.814c1.69 1.053 3.433 2.185 5.238 3.325l.502.317c.97.609 1.931 1.2 2.883 1.76s1.895 1.089 2.83 1.578c.995.521 1.98.996 2.951 1.414.97.418 1.926.779 2.859 1.077a24.85 24.85 0 0 0 2.983.76c1.087.204 2.115.313 3.06.35a20.103 20.103 0 0 0 3.16-.124c.53-.063 1-.14 1.409-.216a25.4 25.4 0 0 0 1.031-.215c.28-.064.493-.116.637-.15.145-.033.22-.047.223-.038z" color="#000"/><path d="M207.067 665.518c.001-.01.153 0 .444.034.291.035.722.095 1.278.2a23.789 23.789 0 0 1 4.67 1.396c.85.354 1.758.788 2.702 1.315a30.741 30.741 0 0 1 2.92 1.862 60.09 60.09 0 0 1 2.63 2.024c1.023.825 2.081 1.705 3.178 2.624 1.118.938 2.277 1.917 3.476 2.928 1.2 1.01 2.44 2.05 3.724 3.107 1.168.96 2.372 1.934 3.62 2.904a77.075 77.075 0 0 0 3.361 2.489c.93.644 1.885 1.272 2.898 1.816.168.09.338.179.51.263.23.112.46.217.696.312.33.133.662.247.998.311a31.04 31.04 0 0 0 4.862.523c1.822.06 3.61-.013 5.341-.192a37.715 37.715 0 0 0 5.387-.946c1.788-.454 3.47-1.034 5-1.739.79-.363 1.539-.76 2.239-1.189.7-.428 1.35-.889 1.944-1.378a13.653 13.653 0 0 0 1.653-1.606 11.32 11.32 0 0 0 1.292-1.828 10.218 10.218 0 0 0 1.3-4.354c.035-.484.035-.94.015-1.366-.02-.426-.06-.82-.11-1.18-.062-.461-.14-.867-.218-1.217-.077-.35-.153-.644-.217-.88-.064-.237-.116-.417-.15-.538-.033-.121-.048-.184-.041-.186.007-.002.034.056.08.174.047.117.112.294.188.528a14.003 14.003 0 0 1 .513 2.096c.06.364.11.762.138 1.193.03.431.038.895.012 1.388-.038.73-.153 1.523-.39 2.35-.2.694-.486 1.41-.876 2.119-.352.64-.787 1.276-1.304 1.886-.489.578-1.05 1.134-1.675 1.657-.601.504-1.26.98-1.97 1.42-.71.442-1.469.85-2.267 1.224-1.55.725-3.25 1.322-5.056 1.788-1.726.446-3.55.775-5.442.976a39.3 39.3 0 0 1-5.4.205 31.266 31.266 0 0 1-4.93-.526 5.866 5.866 0 0 1-1.08-.334c-.246-.1-.487-.209-.724-.325a15.544 15.544 0 0 1-.525-.27c-1.035-.557-2.003-1.194-2.938-1.843a76.014 76.014 0 0 1-3.377-2.508 161.043 161.043 0 0 1-3.62-2.92 369.763 369.763 0 0 1-3.715-3.124c-1.195-1.015-2.348-2-3.46-2.945-1.09-.925-2.14-1.81-3.155-2.64a61.716 61.716 0 0 0-2.598-2.036 31.191 31.191 0 0 0-2.872-1.874 26.38 26.38 0 0 0-2.658-1.337c-.951-.412-1.83-.72-2.606-.958a26.416 26.416 0 0 0-1.998-.526c-.55-.122-.975-.2-1.263-.254-.287-.054-.436-.083-.434-.092zM265.154 599.913c0-.014.152-.027.442-.032.29-.004.717 0 1.268.032.55.032 1.223.093 1.998.214.774.122 1.65.304 2.595.593.766.233 1.575.539 2.4.937a15.5 15.5 0 0 1 2.476 1.492 15.201 15.201 0 0 1 1.865 1.636 15.883 15.883 0 0 1 1.66 2.024c.464.671.886 1.39 1.262 2.145a19.624 19.624 0 0 1 1.003 2.414 23.9 23.9 0 0 1 1.114 5.14c.207 1.914.2 3.74.074 5.412a32.625 32.625 0 0 1-1.465 7.51c-.2.621-.393 1.148-.56 1.573-.166.426-.307.75-.407.968-.101.218-1.826 19.743-1.839 19.738-.012-.004 6.683 5.015 6.76 4.789.076-.226-4.8-25.112-4.657-25.543a36.343 36.343 0 0 0 1.495-6.193c.134-.892.241-1.852.306-2.866a30.383 30.383 0 0 0-.117-5.345 24.057 24.057 0 0 0-1.123-5.098 19.65 19.65 0 0 0-.965-2.323 17.271 17.271 0 0 0-1.225-2.1 15.771 15.771 0 0 0-1.607-1.984 15.041 15.041 0 0 0-4.205-3.095 17.015 17.015 0 0 0-2.338-.958c-.923-.301-1.782-.5-2.543-.642a24.492 24.492 0 0 0-1.971-.28c-.544-.056-.97-.086-1.257-.108-.288-.022-.44-.036-.44-.05z" color="#000"/><path d="M250.012 677.56c-.002.008.05.04.154.09.104.05.259.119.464.2a10.714 10.714 0 0 0 4.19.724 11.64 11.64 0 0 0 2.312-.31c.723-.168 1.48-.413 2.256-.737.705-.294 1.426-.651 2.158-1.067.731-.415 1.473-.89 2.22-1.41a45.405 45.405 0 0 0 2.121-1.58 82.088 82.088 0 0 0 2.527-2.08c1.344-1.142 2.636-2.277 3.887-3.333a86.818 86.818 0 0 1 2.221-1.822 48.934 48.934 0 0 1 2.122-1.59 32.227 32.227 0 0 1 2.373-1.53 22.87 22.87 0 0 1 2.148-1.106c.724-.323 1.39-.566 1.98-.75.588-.183 1.1-.307 1.52-.395.418-.088.745-.14.966-.176.222-.036.338-.057.337-.07 0-.013-.118-.018-.342-.006-.223.011-.553.04-.978.106-.424.065-.942.168-1.54.333-.597.164-1.274.391-2.01.7-.68.286-1.41.642-2.179 1.072a30.53 30.53 0 0 0-2.405 1.508 46.479 46.479 0 0 0-2.143 1.577 79.78 79.78 0 0 0-2.237 1.814c-1.257 1.053-2.551 2.185-3.893 3.325l-.373.317c-.722.609-1.435 1.2-2.143 1.76-.707.56-1.408 1.089-2.103 1.578-.74.521-1.472.996-2.193 1.414a20.08 20.08 0 0 1-2.125 1.077c-.764.329-1.507.581-2.216.76a11.9 11.9 0 0 1-2.275.35 11.14 11.14 0 0 1-2.348-.124c-.394-.063-.744-.14-1.047-.216-.303-.076-.56-.151-.767-.215-.207-.064-.366-.116-.473-.15-.107-.033-.164-.047-.166-.038z" color="#000"/></g></svg>