<?xml version="1.0" encoding="utf-8"?>
<svg class="pants" width="86" height="380" viewBox="202.715 584.407 86.5933 380.048" preserveAspectRatio="xMidYMid meet" xmlns="http://www.w3.org/2000/svg" xmlns:xlink="http://www.w3.org/1999/xlink">
  <defs id="svgEditorDefs">
    <path id="svgEditorClosePathDefs" fill="moccasin" style="stroke-width: 0px; stroke: none; fill-opacity: 1;" class="clothes"/>
    <pattern id="pattern-0" x="0" y="0" width="20" height="20" patternUnits="userSpaceOnUse" viewBox="0 0 100 100">
      <path d="M 38.829 26.699 L 76.309 26.699 L 76.308 143.612 L 38.828 143.612 Z" style="fill: url(#pattern-1-1);" transform="matrix(0.006736, -0.999977, 0.999977, 0.006736, -27.972858, 142.149088)"/>
      <path d="M 20.274 -6.281 L 57.754 -6.281 L 57.753 63.072 L 20.273 63.072 Z" style="fill: url(#pattern-3-0);" transform="matrix(0.006736, -0.999977, 0.999977, 0.006736, 10.355853, 67.216842)"/>
      <rect x="29.079" y="0.621" width="12.247" height="88.631" style="fill: rgb(251, 239, 1);" transform="matrix(0.899091, 0.437762, 0, 1.112234, 0.000004, -23.015944)"/>
      <rect x="57.922" y="10.386" width="37.138" height="67.098" style="fill: rgb(251, 239, 1);" transform="matrix(0.899091, 0.437762, 0, 1.112234, 0.000007, -23.015943)"/>
      <rect transform="matrix(0.899093, 0.437765, 0, 1.112235, -79.877854, -104.536482)" x="172.116" y="53.807" width="3.899" height="41.649" style="fill: rgb(136, 228, 122);"/>
      <rect x="10.094" y="44.474" width="49.779" height="12.268" style="fill: rgb(251, 239, 1);" transform="matrix(0.899091, 0.437762, 0, 1.112234, 0, -23.015949)"/>
      <rect x="83.494" y="6.09" width="12.66" height="29.006" style="fill: rgb(255, 247, 0);"/>
    </pattern>
    <pattern id="pattern-1" viewBox="0 0 100 100" patternUnits="userSpaceOnUse" preserveAspectRatio="none" width="100" height="100">
      <g transform="matrix(0.265825, 0, 0, 0.300234, 8.471728, -2.346995)">
        <g id="layer1" transform="translate(-292.36 -232.41)">
          <path id="path8658" d="m292.86 407.36c15.15-86.55-5.79-123.5 22.14-151.43 6.4345-6.4345 38.928 18.571 50.714 18.571 26.029 0 79.422-8.299 87.143 7.1429 3.7825 7.5649-3.5714 55.16-3.5714 69.286 0 30.775-0.41407 46.207-7.5 77.857-7.6313 3.4234-13.375 5.4307-24.875 6.2927-32.231-8.9761-119.29-20.314-124.05-27.721z" stroke="#000" stroke-width="1px" style="fill: url(#gradient-33);"/>
          <path id="path8662" d="m363.64 274.33c-0.005-2.9652 0.49013-3.0739 1.0046-5.9592 1.125-5.0523 3.302-9.8428 6.4562-13.951 1.6974-2.382 3.6466-4.5645 5.9106-6.4175 4.2952-4.3326 8.1437-9.2832 13.529-12.351 4.4311-2.6246 10.081-4.3851 15.086-2.3678 5.3419 2.1337 7.6631 8.2244 7.736 13.604 0.0463 6.8968-3.2457 18.676-4.7912 25.297-3.7071 1.0743-5.9937-0.78718-9.6693 0.8869 1.4024-5.8832 2.8053-8.8844 3.5364-14.916 0.49785-4.5102-0.27809-9.7193-3.7926-12.906-3.621-3.0755-8.8273-2.1824-12.839-0.4377-4.3741 2.0161-8.2797 5.0956-11.344 8.789 4.111-3.7322 7.8228-7.9025 11.687-11.893-4.8318 4.9404-8.9172 10.892-10.463 17.722-0.57333 2.7945-2.924 11.668-3.6092 14.419-3.6126 1.128-4.6364 0.0471-8.4385 0.48011z" style="fill: url(#gradient-34);"/>
          <path id="path8664" d="m330.76 263.94c-4.324 3.4445 2.0719-2.5363-3.3971 3.5894-14.145 20.585-14.329 46.486-15.552 70.472 1.6342 39.792 35.83 45.664 60.511 48.424 9.2635 0.17929 19.817-0.28853 26.517-7.6508-6.4321 7.4881 6.9854-9.757 5.5156-15.235 3.1535-15.863 2.7473-32.492 9.3389-47.573 6.1295-14.522 11.088-30.505 22.527-41.828 4.205-2.9014-8.023 10.412-8.577 14.565-8.707 18.28-16.972 37.435-17.829 57.973-1.4772 13.465-3.6107 28.762-15.475 37.321-10.434 8.0547-24.415 4.9891-36.63 5.793-30.859 0.23667-45.295-30.038-48.243-66.052 1.17-19.935 4.1639-41.212 17.283-57.116 2.2548-2.513 9.5895-9.1184 4.0112-2.6829z" stroke="#0cf" style="fill: url(#gradient-35);"/>
          <path id="path8666" d="m450.71 278.7c-19.713-11.898-38.817 104.12-33.929 156.16" stroke="#000" stroke-width="1px" style="fill: url(#gradient-36);"/>
          <path id="path8668" d="m296.79 383.08c27.751 13.501 77.375 21.505 118.57 23.929" stroke="#000" stroke-width="1px" style="fill: url(#gradient-37);"/>
          <path id="path8670" d="m447.5 397.72c-11.06 3.437-19.592 10.07-32.143 9.2857" stroke="#000" stroke-width="1px" style="fill: url(#gradient-38);"/>
          <path id="path8674" d="M 416.87 428.39 C 416.688 424.998 416.538 418.99 416.538 415.038 L 416.538 407.853 L 419.869 407.496 C 424.646 406.984 429.434 405.548 437.499 402.206 C 441.388 400.595 445.049 399.129 445.635 398.949 L 446.7 398.621 L 445.767 404.819 C 444.895 410.617 244.197 308.649 441.48 427.567 C 555.633 496.376 429.254 433.222 420.026 434.244 L 417.201 434.556 L 416.869 428.39 L 416.87 428.39 Z" style="fill: url(#gradient-39);"/>
          <path id="path8676" d="m411.23 433.2c-7.0246-1.8753-19.336-4.3548-48.74-9.8165-33.291-6.1837-37.577-7.0174-47.77-9.2916-11.73-2.6172-20.238-5.3163-21.05-6.6775-0.14297-0.23982 0.17961-3.1634 0.71683-6.497 0.53722-3.3335 1.2877-8.4095 1.6678-11.28 0.38007-2.8705 0.80305-5.331 0.93994-5.4679 0.1369-0.13689 1.8187 0.4401 3.7374 1.2822 9.2313 4.0516 27.549 9.5082 42.565 12.679 18.696 3.9483 47.004 7.803 65.231 8.8825 3.2366 0.19168 6.1005 0.48946 6.3643 0.66174 0.38226 0.24962 1.3633 26.956 0.9839 26.784-0.0555-0.0252-2.1465-0.59183-4.6466-1.2592z" style="fill: url(#gradient-40);"/>
          <path id="path8678" d="m416.76 404.9c0.1272-0.80314 0.36295-4.7559 0.52389-8.7839 1.1251-28.16 7.7292-69.073 14.838-91.924 6.354-20.425 13.444-29.633 18.739-24.338 3.2023 3.2023 3.2469 11.398 0.22792 41.894-1.4786 14.936-1.8665 21.409-2.2469 37.498-0.42576 18.006-1.1361 32.095-1.8335 36.365-0.28387 1.7384-0.39896 1.8125-6.9224 4.4584-11.492 4.6612-14.894 5.7166-19.389 6.0145l-4.1685 0.27628 0.23127-1.4603z" style="fill: url(#gradient-41);"/>
          <path id="path8684" d="m367.14 385.48c-5.674-0.84148-16.083-2.9664-19.776-4.0369-5.3139-1.5406-12.591-4.8766-16.642-7.6287-9.3957-6.3841-13.096-12.249-16.974-26.904-1.5254-5.7643-1.5346-5.8774-1.2046-14.9 0.98021-26.8 4.0083-43.056 10.415-55.911 2.9482-5.9157 4.127-7.6907 7.8698-11.85l2.8787-3.1989 9.6456 4.9902c5.3051 2.7446 11.805 5.8617 14.444 6.9268l4.7982 1.9365 7.5761-0.10812c4.1669-0.0595 11.213-0.33826 15.657-0.61955 17.606-1.1142 30.987-1.447 40.093-0.99725 5.106 0.2522 9.4096 0.58454 9.5636 0.73852 0.15398 0.15399-0.52554 1.1281-1.51 2.1647-6.2298 6.5595-10.083 13.768-18.653 34.899-5.7005 14.055-6.4966 17.304-9.0506 36.939-0.84913 6.5281-1.6456 12.21-1.7699 12.627-0.12432 0.41689-0.33768 1.9308-0.47415 3.3643-0.30272 3.1799-1.6701 6.7484-4.4018 11.487-2.6476 4.5932-3.6486 5.6751-6.6759 7.2158-4.7847 2.4352-6.6634 2.7871-15.708 2.9421-4.7225 0.081-9.2682 0.0461-10.102-0.0775z" style="fill: url(#gradient-42);"/>
          <path id="path8686" d="m407.55 405.96c-30.566-2.5071-58.144-6.8701-79.802-12.626-9.6919-2.5755-21.11-6.3823-26.41-8.8047-4.7097-2.1528-4.3949-1.3491-3.6547-9.3314 1.2447-13.423 1.6248-23.073 2.0388-51.77 0.25546-17.706 0.69221-32.636 1.0269-35.103 1.7183-12.665 6.1279-22.802 13.238-30.431 1.948-2.0901 2.4964-2.3991 4.2576-2.3991 2.2575 0 5.7831 1.1141 10.928 3.4532l3.4445 1.5662-3.3354 3.1201c-8.7155 8.1529-15.405 23.057-18.145 40.424-2.3168 14.687-2.2762 21.555 0.21431 36.289 1.8963 11.219 3.102 14.924 7.5903 23.326 6.6388 12.428 12.336 18.409 21.833 22.919 6.4358 3.0563 9.4003 3.4514 25.107 3.3461 14.103-0.0946 17.331-0.40919 22.129-2.1566 6.7429-2.4558 12.539-8.0114 16.028-15.362 3.4275-7.2216 5.0014-14.149 6.3111-27.779 1.5546-16.179 5.558-29.582 14.827-49.641 1.8337-3.9681 3.334-7.409 3.334-7.6464 0-0.32389 7.8792-11.938 8.9013-13.121 0.20964-0.2426 6.5255 1.4106 8.145 2.132 1.309 0.58308 1.506 1.3542 0.34586 1.3542-0.4348 0-2.0057 1.2152-3.4909 2.7003-5.2445 5.2445-10.065 17.116-14.902 36.696-5.7312 23.201-10.437 56.571-11.445 81.154l-0.33792 8.2447-1.5632-0.0694c-0.85975-0.0382-3.836-0.25585-6.6139-0.4837z" style="fill: url(#gradient-43);"/>
        </g>
      </g>
      <g transform="matrix(0.2658250033855438, 0, 0, 0.30023401975631714, 50.09508808906358, 37.94976511234235)">
        <g id="g-1" transform="translate(-292.36 -232.41)">
          <path id="path-1" d="m292.86 407.36c15.15-86.55-5.79-123.5 22.14-151.43 6.4345-6.4345 38.928 18.571 50.714 18.571 26.029 0 79.422-8.299 87.143 7.1429 3.7825 7.5649-3.5714 55.16-3.5714 69.286 0 30.775-0.41407 46.207-7.5 77.857-7.6313 3.4234-13.375 5.4307-24.875 6.2927-32.231-8.9761-119.29-20.314-124.05-27.721z" stroke="#000" stroke-width="1px" style="fill: url(#gradient-44);"/>
          <path id="path-2" d="m363.64 274.33c-0.005-2.9652 0.49013-3.0739 1.0046-5.9592 1.125-5.0523 3.302-9.8428 6.4562-13.951 1.6974-2.382 3.6466-4.5645 5.9106-6.4175 4.2952-4.3326 8.1437-9.2832 13.529-12.351 4.4311-2.6246 10.081-4.3851 15.086-2.3678 5.3419 2.1337 7.6631 8.2244 7.736 13.604 0.0463 6.8968-3.2457 18.676-4.7912 25.297-3.7071 1.0743-5.9937-0.78718-9.6693 0.8869 1.4024-5.8832 2.8053-8.8844 3.5364-14.916 0.49785-4.5102-0.27809-9.7193-3.7926-12.906-3.621-3.0755-8.8273-2.1824-12.839-0.4377-4.3741 2.0161-8.2797 5.0956-11.344 8.789 4.111-3.7322 7.8228-7.9025 11.687-11.893-4.8318 4.9404-8.9172 10.892-10.463 17.722-0.57333 2.7945-2.924 11.668-3.6092 14.419-3.6126 1.128-4.6364 0.0471-8.4385 0.48011z" style="fill: url(#gradient-45);"/>
          <path id="path-3" d="m330.76 263.94c-4.324 3.4445 2.0719-2.5363-3.3971 3.5894-14.145 20.585-14.329 46.486-15.552 70.472 1.6342 39.792 35.83 45.664 60.511 48.424 9.2635 0.17929 19.817-0.28853 26.517-7.6508-6.4321 7.4881 6.9854-9.757 5.5156-15.235 3.1535-15.863 2.7473-32.492 9.3389-47.573 6.1295-14.522 11.088-30.505 22.527-41.828 4.205-2.9014-8.023 10.412-8.577 14.565-8.707 18.28-16.972 37.435-17.829 57.973-1.4772 13.465-3.6107 28.762-15.475 37.321-10.434 8.0547-24.415 4.9891-36.63 5.793-30.859 0.23667-45.295-30.038-48.243-66.052 1.17-19.935 4.1639-41.212 17.283-57.116 2.2548-2.513 9.5895-9.1184 4.0112-2.6829z" stroke="#0cf" style="fill: url(#gradient-46);"/>
          <path id="path-4" d="m450.71 278.7c-19.713-11.898-38.817 104.12-33.929 156.16" stroke="#000" stroke-width="1px" style="fill: url(#gradient-47);"/>
          <path id="path-5" d="m296.79 383.08c27.751 13.501 77.375 21.505 118.57 23.929" stroke="#000" stroke-width="1px" style="fill: url(#gradient-48);"/>
          <path id="path-6" d="m447.5 397.72c-11.06 3.437-19.592 10.07-32.143 9.2857" stroke="#000" stroke-width="1px" style="fill: url(#gradient-49);"/>
          <path id="path-7" d="M 416.87 428.39 C 416.688 424.998 416.538 418.99 416.538 415.038 L 416.538 407.853 L 419.869 407.496 C 424.646 406.984 429.434 405.548 437.499 402.206 C 441.388 400.595 445.049 399.129 445.635 398.949 L 446.7 398.621 L 445.767 404.819 C 444.895 410.617 244.197 308.649 441.48 427.567 C 555.633 496.376 429.254 433.222 420.026 434.244 L 417.201 434.556 L 416.869 428.39 L 416.87 428.39 Z" style="fill: url(#gradient-50);"/>
          <path id="path-8" d="m411.23 433.2c-7.0246-1.8753-19.336-4.3548-48.74-9.8165-33.291-6.1837-37.577-7.0174-47.77-9.2916-11.73-2.6172-20.238-5.3163-21.05-6.6775-0.14297-0.23982 0.17961-3.1634 0.71683-6.497 0.53722-3.3335 1.2877-8.4095 1.6678-11.28 0.38007-2.8705 0.80305-5.331 0.93994-5.4679 0.1369-0.13689 1.8187 0.4401 3.7374 1.2822 9.2313 4.0516 27.549 9.5082 42.565 12.679 18.696 3.9483 47.004 7.803 65.231 8.8825 3.2366 0.19168 6.1005 0.48946 6.3643 0.66174 0.38226 0.24962 1.3633 26.956 0.9839 26.784-0.0555-0.0252-2.1465-0.59183-4.6466-1.2592z" style="fill: url(#gradient-51);"/>
          <path id="path-9" d="m416.76 404.9c0.1272-0.80314 0.36295-4.7559 0.52389-8.7839 1.1251-28.16 7.7292-69.073 14.838-91.924 6.354-20.425 13.444-29.633 18.739-24.338 3.2023 3.2023 3.2469 11.398 0.22792 41.894-1.4786 14.936-1.8665 21.409-2.2469 37.498-0.42576 18.006-1.1361 32.095-1.8335 36.365-0.28387 1.7384-0.39896 1.8125-6.9224 4.4584-11.492 4.6612-14.894 5.7166-19.389 6.0145l-4.1685 0.27628 0.23127-1.4603z" style="fill: url(#gradient-52);"/>
          <path id="path-10" d="m367.14 385.48c-5.674-0.84148-16.083-2.9664-19.776-4.0369-5.3139-1.5406-12.591-4.8766-16.642-7.6287-9.3957-6.3841-13.096-12.249-16.974-26.904-1.5254-5.7643-1.5346-5.8774-1.2046-14.9 0.98021-26.8 4.0083-43.056 10.415-55.911 2.9482-5.9157 4.127-7.6907 7.8698-11.85l2.8787-3.1989 9.6456 4.9902c5.3051 2.7446 11.805 5.8617 14.444 6.9268l4.7982 1.9365 7.5761-0.10812c4.1669-0.0595 11.213-0.33826 15.657-0.61955 17.606-1.1142 30.987-1.447 40.093-0.99725 5.106 0.2522 9.4096 0.58454 9.5636 0.73852 0.15398 0.15399-0.52554 1.1281-1.51 2.1647-6.2298 6.5595-10.083 13.768-18.653 34.899-5.7005 14.055-6.4966 17.304-9.0506 36.939-0.84913 6.5281-1.6456 12.21-1.7699 12.627-0.12432 0.41689-0.33768 1.9308-0.47415 3.3643-0.30272 3.1799-1.6701 6.7484-4.4018 11.487-2.6476 4.5932-3.6486 5.6751-6.6759 7.2158-4.7847 2.4352-6.6634 2.7871-15.708 2.9421-4.7225 0.081-9.2682 0.0461-10.102-0.0775z" style="fill: url(#gradient-53);"/>
          <path id="path-11" d="m407.55 405.96c-30.566-2.5071-58.144-6.8701-79.802-12.626-9.6919-2.5755-21.11-6.3823-26.41-8.8047-4.7097-2.1528-4.3949-1.3491-3.6547-9.3314 1.2447-13.423 1.6248-23.073 2.0388-51.77 0.25546-17.706 0.69221-32.636 1.0269-35.103 1.7183-12.665 6.1279-22.802 13.238-30.431 1.948-2.0901 2.4964-2.3991 4.2576-2.3991 2.2575 0 5.7831 1.1141 10.928 3.4532l3.4445 1.5662-3.3354 3.1201c-8.7155 8.1529-15.405 23.057-18.145 40.424-2.3168 14.687-2.2762 21.555 0.21431 36.289 1.8963 11.219 3.102 14.924 7.5903 23.326 6.6388 12.428 12.336 18.409 21.833 22.919 6.4358 3.0563 9.4003 3.4514 25.107 3.3461 14.103-0.0946 17.331-0.40919 22.129-2.1566 6.7429-2.4558 12.539-8.0114 16.028-15.362 3.4275-7.2216 5.0014-14.149 6.3111-27.779 1.5546-16.179 5.558-29.582 14.827-49.641 1.8337-3.9681 3.334-7.409 3.334-7.6464 0-0.32389 7.8792-11.938 8.9013-13.121 0.20964-0.2426 6.5255 1.4106 8.145 2.132 1.309 0.58308 1.506 1.3542 0.34586 1.3542-0.4348 0-2.0057 1.2152-3.4909 2.7003-5.2445 5.2445-10.065 17.116-14.902 36.696-5.7312 23.201-10.437 56.571-11.445 81.154l-0.33792 8.2447-1.5632-0.0694c-0.85975-0.0382-3.836-0.25585-6.6139-0.4837z" style="fill: url(#gradient-54);"/>
        </g>
      </g>
      <g transform="matrix(0.265825, 0, 0, 0.300234, 3.620728, 26.892073)">
        <g id="g-2" transform="translate(-292.36 -232.41)">
          <path id="path-12" d="m292.86 407.36c15.15-86.55-5.79-123.5 22.14-151.43 6.4345-6.4345 38.928 18.571 50.714 18.571 26.029 0 79.422-8.299 87.143 7.1429 3.7825 7.5649-3.5714 55.16-3.5714 69.286 0 30.775-0.41407 46.207-7.5 77.857-7.6313 3.4234-13.375 5.4307-24.875 6.2927-32.231-8.9761-119.29-20.314-124.05-27.721z" stroke="#000" stroke-width="1px" style="fill: url(#gradient-55);"/>
          <path id="path-13" d="m363.64 274.33c-0.005-2.9652 0.49013-3.0739 1.0046-5.9592 1.125-5.0523 3.302-9.8428 6.4562-13.951 1.6974-2.382 3.6466-4.5645 5.9106-6.4175 4.2952-4.3326 8.1437-9.2832 13.529-12.351 4.4311-2.6246 10.081-4.3851 15.086-2.3678 5.3419 2.1337 7.6631 8.2244 7.736 13.604 0.0463 6.8968-3.2457 18.676-4.7912 25.297-3.7071 1.0743-5.9937-0.78718-9.6693 0.8869 1.4024-5.8832 2.8053-8.8844 3.5364-14.916 0.49785-4.5102-0.27809-9.7193-3.7926-12.906-3.621-3.0755-8.8273-2.1824-12.839-0.4377-4.3741 2.0161-8.2797 5.0956-11.344 8.789 4.111-3.7322 7.8228-7.9025 11.687-11.893-4.8318 4.9404-8.9172 10.892-10.463 17.722-0.57333 2.7945-2.924 11.668-3.6092 14.419-3.6126 1.128-4.6364 0.0471-8.4385 0.48011z" style="fill: url(#gradient-56);"/>
          <path id="path-14" d="m330.76 263.94c-4.324 3.4445 2.0719-2.5363-3.3971 3.5894-14.145 20.585-14.329 46.486-15.552 70.472 1.6342 39.792 35.83 45.664 60.511 48.424 9.2635 0.17929 19.817-0.28853 26.517-7.6508-6.4321 7.4881 6.9854-9.757 5.5156-15.235 3.1535-15.863 2.7473-32.492 9.3389-47.573 6.1295-14.522 11.088-30.505 22.527-41.828 4.205-2.9014-8.023 10.412-8.577 14.565-8.707 18.28-16.972 37.435-17.829 57.973-1.4772 13.465-3.6107 28.762-15.475 37.321-10.434 8.0547-24.415 4.9891-36.63 5.793-30.859 0.23667-45.295-30.038-48.243-66.052 1.17-19.935 4.1639-41.212 17.283-57.116 2.2548-2.513 9.5895-9.1184 4.0112-2.6829z" stroke="#0cf" style="fill: url(#gradient-57);"/>
          <path id="path-15" d="m450.71 278.7c-19.713-11.898-38.817 104.12-33.929 156.16" stroke="#000" stroke-width="1px" style="fill: url(#gradient-58);"/>
          <path id="path-16" d="m296.79 383.08c27.751 13.501 77.375 21.505 118.57 23.929" stroke="#000" stroke-width="1px" style="fill: url(#gradient-59);"/>
          <path id="path-17" d="m447.5 397.72c-11.06 3.437-19.592 10.07-32.143 9.2857" stroke="#000" stroke-width="1px" style="fill: url(#gradient-60);"/>
          <path id="path-18" d="M 416.87 428.39 C 416.688 424.998 416.538 418.99 416.538 415.038 L 416.538 407.853 L 419.869 407.496 C 424.646 406.984 429.434 405.548 437.499 402.206 C 441.388 400.595 445.049 399.129 445.635 398.949 L 446.7 398.621 L 445.767 404.819 C 444.895 410.617 244.197 308.649 441.48 427.567 C 555.633 496.376 429.254 433.222 420.026 434.244 L 417.201 434.556 L 416.869 428.39 L 416.87 428.39 Z" style="fill: url(#gradient-61);"/>
          <path id="path-19" d="m411.23 433.2c-7.0246-1.8753-19.336-4.3548-48.74-9.8165-33.291-6.1837-37.577-7.0174-47.77-9.2916-11.73-2.6172-20.238-5.3163-21.05-6.6775-0.14297-0.23982 0.17961-3.1634 0.71683-6.497 0.53722-3.3335 1.2877-8.4095 1.6678-11.28 0.38007-2.8705 0.80305-5.331 0.93994-5.4679 0.1369-0.13689 1.8187 0.4401 3.7374 1.2822 9.2313 4.0516 27.549 9.5082 42.565 12.679 18.696 3.9483 47.004 7.803 65.231 8.8825 3.2366 0.19168 6.1005 0.48946 6.3643 0.66174 0.38226 0.24962 1.3633 26.956 0.9839 26.784-0.0555-0.0252-2.1465-0.59183-4.6466-1.2592z" style="fill: url(#gradient-62);"/>
          <path id="path-20" d="m416.76 404.9c0.1272-0.80314 0.36295-4.7559 0.52389-8.7839 1.1251-28.16 7.7292-69.073 14.838-91.924 6.354-20.425 13.444-29.633 18.739-24.338 3.2023 3.2023 3.2469 11.398 0.22792 41.894-1.4786 14.936-1.8665 21.409-2.2469 37.498-0.42576 18.006-1.1361 32.095-1.8335 36.365-0.28387 1.7384-0.39896 1.8125-6.9224 4.4584-11.492 4.6612-14.894 5.7166-19.389 6.0145l-4.1685 0.27628 0.23127-1.4603z" style="fill: url(#gradient-63);"/>
          <path id="path-21" d="m367.14 385.48c-5.674-0.84148-16.083-2.9664-19.776-4.0369-5.3139-1.5406-12.591-4.8766-16.642-7.6287-9.3957-6.3841-13.096-12.249-16.974-26.904-1.5254-5.7643-1.5346-5.8774-1.2046-14.9 0.98021-26.8 4.0083-43.056 10.415-55.911 2.9482-5.9157 4.127-7.6907 7.8698-11.85l2.8787-3.1989 9.6456 4.9902c5.3051 2.7446 11.805 5.8617 14.444 6.9268l4.7982 1.9365 7.5761-0.10812c4.1669-0.0595 11.213-0.33826 15.657-0.61955 17.606-1.1142 30.987-1.447 40.093-0.99725 5.106 0.2522 9.4096 0.58454 9.5636 0.73852 0.15398 0.15399-0.52554 1.1281-1.51 2.1647-6.2298 6.5595-10.083 13.768-18.653 34.899-5.7005 14.055-6.4966 17.304-9.0506 36.939-0.84913 6.5281-1.6456 12.21-1.7699 12.627-0.12432 0.41689-0.33768 1.9308-0.47415 3.3643-0.30272 3.1799-1.6701 6.7484-4.4018 11.487-2.6476 4.5932-3.6486 5.6751-6.6759 7.2158-4.7847 2.4352-6.6634 2.7871-15.708 2.9421-4.7225 0.081-9.2682 0.0461-10.102-0.0775z" style="fill: url(#gradient-64);"/>
          <path id="path-22" d="m407.55 405.96c-30.566-2.5071-58.144-6.8701-79.802-12.626-9.6919-2.5755-21.11-6.3823-26.41-8.8047-4.7097-2.1528-4.3949-1.3491-3.6547-9.3314 1.2447-13.423 1.6248-23.073 2.0388-51.77 0.25546-17.706 0.69221-32.636 1.0269-35.103 1.7183-12.665 6.1279-22.802 13.238-30.431 1.948-2.0901 2.4964-2.3991 4.2576-2.3991 2.2575 0 5.7831 1.1141 10.928 3.4532l3.4445 1.5662-3.3354 3.1201c-8.7155 8.1529-15.405 23.057-18.145 40.424-2.3168 14.687-2.2762 21.555 0.21431 36.289 1.8963 11.219 3.102 14.924 7.5903 23.326 6.6388 12.428 12.336 18.409 21.833 22.919 6.4358 3.0563 9.4003 3.4514 25.107 3.3461 14.103-0.0946 17.331-0.40919 22.129-2.1566 6.7429-2.4558 12.539-8.0114 16.028-15.362 3.4275-7.2216 5.0014-14.149 6.3111-27.779 1.5546-16.179 5.558-29.582 14.827-49.641 1.8337-3.9681 3.334-7.409 3.334-7.6464 0-0.32389 7.8792-11.938 8.9013-13.121 0.20964-0.2426 6.5255 1.4106 8.145 2.132 1.309 0.58308 1.506 1.3542 0.34586 1.3542-0.4348 0-2.0057 1.2152-3.4909 2.7003-5.2445 5.2445-10.065 17.116-14.902 36.696-5.7312 23.201-10.437 56.571-11.445 81.154l-0.33792 8.2447-1.5632-0.0694c-0.85975-0.0382-3.836-0.25585-6.6139-0.4837z" style="fill: url(#gradient-65);"/>
        </g>
      </g>
    </pattern>
    <pattern id="pattern-1-1" patternTransform="matrix(0.341926, 0, 0, 1.156127, 40.472267, 27.349201)" xlink:href="#pattern-1"/>
    <pattern id="pattern-0-0" patternTransform="matrix(2.753811, 1.284311, -1.254495, 2.690155, 246.770493, 818.269836)" xlink:href="#pattern-0"/>
    <pattern id="pattern-3-0" patternTransform="matrix(0.341926, 0, 0, 0.685818, 22.16783, -5.896672)" xlink:href="#pattern-3"/>
    <pattern id="pattern-3" viewBox="0 0 100 100" patternUnits="userSpaceOnUse" preserveAspectRatio="none" width="100" height="100">
      <g transform="matrix(0.265825, 0, 0, 0.300234, 8.471728, -2.346995)">
        <g id="g-3" transform="translate(-292.36 -232.41)">
          <path id="path-23" d="m292.86 407.36c15.15-86.55-5.79-123.5 22.14-151.43 6.4345-6.4345 38.928 18.571 50.714 18.571 26.029 0 79.422-8.299 87.143 7.1429 3.7825 7.5649-3.5714 55.16-3.5714 69.286 0 30.775-0.41407 46.207-7.5 77.857-7.6313 3.4234-13.375 5.4307-24.875 6.2927-32.231-8.9761-119.29-20.314-124.05-27.721z" stroke="#000" stroke-width="1px" fill="none"/>
          <path id="path-24" d="m363.64 274.33c-0.005-2.9652 0.49013-3.0739 1.0046-5.9592 1.125-5.0523 3.302-9.8428 6.4562-13.951 1.6974-2.382 3.6466-4.5645 5.9106-6.4175 4.2952-4.3326 8.1437-9.2832 13.529-12.351 4.4311-2.6246 10.081-4.3851 15.086-2.3678 5.3419 2.1337 7.6631 8.2244 7.736 13.604 0.0463 6.8968-3.2457 18.676-4.7912 25.297-3.7071 1.0743-5.9937-0.78718-9.6693 0.8869 1.4024-5.8832 2.8053-8.8844 3.5364-14.916 0.49785-4.5102-0.27809-9.7193-3.7926-12.906-3.621-3.0755-8.8273-2.1824-12.839-0.4377-4.3741 2.0161-8.2797 5.0956-11.344 8.789 4.111-3.7322 7.8228-7.9025 11.687-11.893-4.8318 4.9404-8.9172 10.892-10.463 17.722-0.57333 2.7945-2.924 11.668-3.6092 14.419-3.6126 1.128-4.6364 0.0471-8.4385 0.48011z"/>
          <path id="path-25" d="m330.76 263.94c-4.324 3.4445 2.0719-2.5363-3.3971 3.5894-14.145 20.585-14.329 46.486-15.552 70.472 1.6342 39.792 35.83 45.664 60.511 48.424 9.2635 0.17929 19.817-0.28853 26.517-7.6508-6.4321 7.4881 6.9854-9.757 5.5156-15.235 3.1535-15.863 2.7473-32.492 9.3389-47.573 6.1295-14.522 11.088-30.505 22.527-41.828 4.205-2.9014-8.023 10.412-8.577 14.565-8.707 18.28-16.972 37.435-17.829 57.973-1.4772 13.465-3.6107 28.762-15.475 37.321-10.434 8.0547-24.415 4.9891-36.63 5.793-30.859 0.23667-45.295-30.038-48.243-66.052 1.17-19.935 4.1639-41.212 17.283-57.116 2.2548-2.513 9.5895-9.1184 4.0112-2.6829z" stroke="#0cf" fill="#0cf"/>
          <path id="path-26" d="m450.71 278.7c-19.713-11.898-38.817 104.12-33.929 156.16" stroke="#000" stroke-width="1px" fill="none"/>
          <path id="path-27" d="m296.79 383.08c27.751 13.501 77.375 21.505 118.57 23.929" stroke="#000" stroke-width="1px" fill="none"/>
          <path id="path-28" d="m447.5 397.72c-11.06 3.437-19.592 10.07-32.143 9.2857" stroke="#000" stroke-width="1px" fill="none"/>
          <path id="path-29" fill="#006680" d="M 416.87 428.39 C 416.688 424.998 416.538 418.99 416.538 415.038 L 416.538 407.853 L 419.869 407.496 C 424.646 406.984 429.434 405.548 437.499 402.206 C 441.388 400.595 445.049 399.129 445.635 398.949 L 446.7 398.621 L 445.767 404.819 C 444.895 410.617 244.197 308.649 441.48 427.567 C 555.633 496.376 429.254 433.222 420.026 434.244 L 417.201 434.556 L 416.869 428.39 L 416.87 428.39 Z"/>
          <path id="path-30" fill="#006680" d="m411.23 433.2c-7.0246-1.8753-19.336-4.3548-48.74-9.8165-33.291-6.1837-37.577-7.0174-47.77-9.2916-11.73-2.6172-20.238-5.3163-21.05-6.6775-0.14297-0.23982 0.17961-3.1634 0.71683-6.497 0.53722-3.3335 1.2877-8.4095 1.6678-11.28 0.38007-2.8705 0.80305-5.331 0.93994-5.4679 0.1369-0.13689 1.8187 0.4401 3.7374 1.2822 9.2313 4.0516 27.549 9.5082 42.565 12.679 18.696 3.9483 47.004 7.803 65.231 8.8825 3.2366 0.19168 6.1005 0.48946 6.3643 0.66174 0.38226 0.24962 1.3633 26.956 0.9839 26.784-0.0555-0.0252-2.1465-0.59183-4.6466-1.2592z"/>
          <path id="path-31" fill="#08a" d="m416.76 404.9c0.1272-0.80314 0.36295-4.7559 0.52389-8.7839 1.1251-28.16 7.7292-69.073 14.838-91.924 6.354-20.425 13.444-29.633 18.739-24.338 3.2023 3.2023 3.2469 11.398 0.22792 41.894-1.4786 14.936-1.8665 21.409-2.2469 37.498-0.42576 18.006-1.1361 32.095-1.8335 36.365-0.28387 1.7384-0.39896 1.8125-6.9224 4.4584-11.492 4.6612-14.894 5.7166-19.389 6.0145l-4.1685 0.27628 0.23127-1.4603z"/>
          <path id="path-32" d="m367.14 385.48c-5.674-0.84148-16.083-2.9664-19.776-4.0369-5.3139-1.5406-12.591-4.8766-16.642-7.6287-9.3957-6.3841-13.096-12.249-16.974-26.904-1.5254-5.7643-1.5346-5.8774-1.2046-14.9 0.98021-26.8 4.0083-43.056 10.415-55.911 2.9482-5.9157 4.127-7.6907 7.8698-11.85l2.8787-3.1989 9.6456 4.9902c5.3051 2.7446 11.805 5.8617 14.444 6.9268l4.7982 1.9365 7.5761-0.10812c4.1669-0.0595 11.213-0.33826 15.657-0.61955 17.606-1.1142 30.987-1.447 40.093-0.99725 5.106 0.2522 9.4096 0.58454 9.5636 0.73852 0.15398 0.15399-0.52554 1.1281-1.51 2.1647-6.2298 6.5595-10.083 13.768-18.653 34.899-5.7005 14.055-6.4966 17.304-9.0506 36.939-0.84913 6.5281-1.6456 12.21-1.7699 12.627-0.12432 0.41689-0.33768 1.9308-0.47415 3.3643-0.30272 3.1799-1.6701 6.7484-4.4018 11.487-2.6476 4.5932-3.6486 5.6751-6.6759 7.2158-4.7847 2.4352-6.6634 2.7871-15.708 2.9421-4.7225 0.081-9.2682 0.0461-10.102-0.0775z" style="fill: rgb(138, 160, 93);"/>
          <path id="path-33" fill="#08a" d="m407.55 405.96c-30.566-2.5071-58.144-6.8701-79.802-12.626-9.6919-2.5755-21.11-6.3823-26.41-8.8047-4.7097-2.1528-4.3949-1.3491-3.6547-9.3314 1.2447-13.423 1.6248-23.073 2.0388-51.77 0.25546-17.706 0.69221-32.636 1.0269-35.103 1.7183-12.665 6.1279-22.802 13.238-30.431 1.948-2.0901 2.4964-2.3991 4.2576-2.3991 2.2575 0 5.7831 1.1141 10.928 3.4532l3.4445 1.5662-3.3354 3.1201c-8.7155 8.1529-15.405 23.057-18.145 40.424-2.3168 14.687-2.2762 21.555 0.21431 36.289 1.8963 11.219 3.102 14.924 7.5903 23.326 6.6388 12.428 12.336 18.409 21.833 22.919 6.4358 3.0563 9.4003 3.4514 25.107 3.3461 14.103-0.0946 17.331-0.40919 22.129-2.1566 6.7429-2.4558 12.539-8.0114 16.028-15.362 3.4275-7.2216 5.0014-14.149 6.3111-27.779 1.5546-16.179 5.558-29.582 14.827-49.641 1.8337-3.9681 3.334-7.409 3.334-7.6464 0-0.32389 7.8792-11.938 8.9013-13.121 0.20964-0.2426 6.5255 1.4106 8.145 2.132 1.309 0.58308 1.506 1.3542 0.34586 1.3542-0.4348 0-2.0057 1.2152-3.4909 2.7003-5.2445 5.2445-10.065 17.116-14.902 36.696-5.7312 23.201-10.437 56.571-11.445 81.154l-0.33792 8.2447-1.5632-0.0694c-0.85975-0.0382-3.836-0.25585-6.6139-0.4837z"/>
        </g>
      </g>
      <g transform="matrix(0.2658250033855438, 0, 0, 0.30023401975631714, 50.09508808906358, 37.94976511234235)">
        <g id="g-4" transform="translate(-292.36 -232.41)">
          <path id="path-34" d="m292.86 407.36c15.15-86.55-5.79-123.5 22.14-151.43 6.4345-6.4345 38.928 18.571 50.714 18.571 26.029 0 79.422-8.299 87.143 7.1429 3.7825 7.5649-3.5714 55.16-3.5714 69.286 0 30.775-0.41407 46.207-7.5 77.857-7.6313 3.4234-13.375 5.4307-24.875 6.2927-32.231-8.9761-119.29-20.314-124.05-27.721z" stroke="#000" stroke-width="1px" fill="none"/>
          <path id="path-35" d="m363.64 274.33c-0.005-2.9652 0.49013-3.0739 1.0046-5.9592 1.125-5.0523 3.302-9.8428 6.4562-13.951 1.6974-2.382 3.6466-4.5645 5.9106-6.4175 4.2952-4.3326 8.1437-9.2832 13.529-12.351 4.4311-2.6246 10.081-4.3851 15.086-2.3678 5.3419 2.1337 7.6631 8.2244 7.736 13.604 0.0463 6.8968-3.2457 18.676-4.7912 25.297-3.7071 1.0743-5.9937-0.78718-9.6693 0.8869 1.4024-5.8832 2.8053-8.8844 3.5364-14.916 0.49785-4.5102-0.27809-9.7193-3.7926-12.906-3.621-3.0755-8.8273-2.1824-12.839-0.4377-4.3741 2.0161-8.2797 5.0956-11.344 8.789 4.111-3.7322 7.8228-7.9025 11.687-11.893-4.8318 4.9404-8.9172 10.892-10.463 17.722-0.57333 2.7945-2.924 11.668-3.6092 14.419-3.6126 1.128-4.6364 0.0471-8.4385 0.48011z"/>
          <path id="path-36" d="m330.76 263.94c-4.324 3.4445 2.0719-2.5363-3.3971 3.5894-14.145 20.585-14.329 46.486-15.552 70.472 1.6342 39.792 35.83 45.664 60.511 48.424 9.2635 0.17929 19.817-0.28853 26.517-7.6508-6.4321 7.4881 6.9854-9.757 5.5156-15.235 3.1535-15.863 2.7473-32.492 9.3389-47.573 6.1295-14.522 11.088-30.505 22.527-41.828 4.205-2.9014-8.023 10.412-8.577 14.565-8.707 18.28-16.972 37.435-17.829 57.973-1.4772 13.465-3.6107 28.762-15.475 37.321-10.434 8.0547-24.415 4.9891-36.63 5.793-30.859 0.23667-45.295-30.038-48.243-66.052 1.17-19.935 4.1639-41.212 17.283-57.116 2.2548-2.513 9.5895-9.1184 4.0112-2.6829z" stroke="#0cf" fill="#0cf"/>
          <path id="path-37" d="m450.71 278.7c-19.713-11.898-38.817 104.12-33.929 156.16" stroke="#000" stroke-width="1px" fill="none"/>
          <path id="path-38" d="m296.79 383.08c27.751 13.501 77.375 21.505 118.57 23.929" stroke="#000" stroke-width="1px" fill="none"/>
          <path id="path-39" d="m447.5 397.72c-11.06 3.437-19.592 10.07-32.143 9.2857" stroke="#000" stroke-width="1px" fill="none"/>
          <path id="path-40" fill="#006680" d="M 416.87 428.39 C 416.688 424.998 416.538 418.99 416.538 415.038 L 416.538 407.853 L 419.869 407.496 C 424.646 406.984 429.434 405.548 437.499 402.206 C 441.388 400.595 445.049 399.129 445.635 398.949 L 446.7 398.621 L 445.767 404.819 C 444.895 410.617 244.197 308.649 441.48 427.567 C 555.633 496.376 429.254 433.222 420.026 434.244 L 417.201 434.556 L 416.869 428.39 L 416.87 428.39 Z"/>
          <path id="path-41" fill="#006680" d="m411.23 433.2c-7.0246-1.8753-19.336-4.3548-48.74-9.8165-33.291-6.1837-37.577-7.0174-47.77-9.2916-11.73-2.6172-20.238-5.3163-21.05-6.6775-0.14297-0.23982 0.17961-3.1634 0.71683-6.497 0.53722-3.3335 1.2877-8.4095 1.6678-11.28 0.38007-2.8705 0.80305-5.331 0.93994-5.4679 0.1369-0.13689 1.8187 0.4401 3.7374 1.2822 9.2313 4.0516 27.549 9.5082 42.565 12.679 18.696 3.9483 47.004 7.803 65.231 8.8825 3.2366 0.19168 6.1005 0.48946 6.3643 0.66174 0.38226 0.24962 1.3633 26.956 0.9839 26.784-0.0555-0.0252-2.1465-0.59183-4.6466-1.2592z"/>
          <path id="path-42" fill="#08a" d="m416.76 404.9c0.1272-0.80314 0.36295-4.7559 0.52389-8.7839 1.1251-28.16 7.7292-69.073 14.838-91.924 6.354-20.425 13.444-29.633 18.739-24.338 3.2023 3.2023 3.2469 11.398 0.22792 41.894-1.4786 14.936-1.8665 21.409-2.2469 37.498-0.42576 18.006-1.1361 32.095-1.8335 36.365-0.28387 1.7384-0.39896 1.8125-6.9224 4.4584-11.492 4.6612-14.894 5.7166-19.389 6.0145l-4.1685 0.27628 0.23127-1.4603z"/>
          <path id="path-43" d="m367.14 385.48c-5.674-0.84148-16.083-2.9664-19.776-4.0369-5.3139-1.5406-12.591-4.8766-16.642-7.6287-9.3957-6.3841-13.096-12.249-16.974-26.904-1.5254-5.7643-1.5346-5.8774-1.2046-14.9 0.98021-26.8 4.0083-43.056 10.415-55.911 2.9482-5.9157 4.127-7.6907 7.8698-11.85l2.8787-3.1989 9.6456 4.9902c5.3051 2.7446 11.805 5.8617 14.444 6.9268l4.7982 1.9365 7.5761-0.10812c4.1669-0.0595 11.213-0.33826 15.657-0.61955 17.606-1.1142 30.987-1.447 40.093-0.99725 5.106 0.2522 9.4096 0.58454 9.5636 0.73852 0.15398 0.15399-0.52554 1.1281-1.51 2.1647-6.2298 6.5595-10.083 13.768-18.653 34.899-5.7005 14.055-6.4966 17.304-9.0506 36.939-0.84913 6.5281-1.6456 12.21-1.7699 12.627-0.12432 0.41689-0.33768 1.9308-0.47415 3.3643-0.30272 3.1799-1.6701 6.7484-4.4018 11.487-2.6476 4.5932-3.6486 5.6751-6.6759 7.2158-4.7847 2.4352-6.6634 2.7871-15.708 2.9421-4.7225 0.081-9.2682 0.0461-10.102-0.0775z" style="fill: rgb(255, 0, 221);"/>
          <path id="path-44" fill="#08a" d="m407.55 405.96c-30.566-2.5071-58.144-6.8701-79.802-12.626-9.6919-2.5755-21.11-6.3823-26.41-8.8047-4.7097-2.1528-4.3949-1.3491-3.6547-9.3314 1.2447-13.423 1.6248-23.073 2.0388-51.77 0.25546-17.706 0.69221-32.636 1.0269-35.103 1.7183-12.665 6.1279-22.802 13.238-30.431 1.948-2.0901 2.4964-2.3991 4.2576-2.3991 2.2575 0 5.7831 1.1141 10.928 3.4532l3.4445 1.5662-3.3354 3.1201c-8.7155 8.1529-15.405 23.057-18.145 40.424-2.3168 14.687-2.2762 21.555 0.21431 36.289 1.8963 11.219 3.102 14.924 7.5903 23.326 6.6388 12.428 12.336 18.409 21.833 22.919 6.4358 3.0563 9.4003 3.4514 25.107 3.3461 14.103-0.0946 17.331-0.40919 22.129-2.1566 6.7429-2.4558 12.539-8.0114 16.028-15.362 3.4275-7.2216 5.0014-14.149 6.3111-27.779 1.5546-16.179 5.558-29.582 14.827-49.641 1.8337-3.9681 3.334-7.409 3.334-7.6464 0-0.32389 7.8792-11.938 8.9013-13.121 0.20964-0.2426 6.5255 1.4106 8.145 2.132 1.309 0.58308 1.506 1.3542 0.34586 1.3542-0.4348 0-2.0057 1.2152-3.4909 2.7003-5.2445 5.2445-10.065 17.116-14.902 36.696-5.7312 23.201-10.437 56.571-11.445 81.154l-0.33792 8.2447-1.5632-0.0694c-0.85975-0.0382-3.836-0.25585-6.6139-0.4837z"/>
        </g>
      </g>
      <g transform="matrix(0.265825, 0, 0, 0.300234, 3.620728, 26.892073)">
        <g id="g-5" transform="translate(-292.36 -232.41)">
          <path id="path-45" d="m292.86 407.36c15.15-86.55-5.79-123.5 22.14-151.43 6.4345-6.4345 38.928 18.571 50.714 18.571 26.029 0 79.422-8.299 87.143 7.1429 3.7825 7.5649-3.5714 55.16-3.5714 69.286 0 30.775-0.41407 46.207-7.5 77.857-7.6313 3.4234-13.375 5.4307-24.875 6.2927-32.231-8.9761-119.29-20.314-124.05-27.721z" stroke="#000" stroke-width="1px" fill="none"/>
          <path id="path-46" d="m363.64 274.33c-0.005-2.9652 0.49013-3.0739 1.0046-5.9592 1.125-5.0523 3.302-9.8428 6.4562-13.951 1.6974-2.382 3.6466-4.5645 5.9106-6.4175 4.2952-4.3326 8.1437-9.2832 13.529-12.351 4.4311-2.6246 10.081-4.3851 15.086-2.3678 5.3419 2.1337 7.6631 8.2244 7.736 13.604 0.0463 6.8968-3.2457 18.676-4.7912 25.297-3.7071 1.0743-5.9937-0.78718-9.6693 0.8869 1.4024-5.8832 2.8053-8.8844 3.5364-14.916 0.49785-4.5102-0.27809-9.7193-3.7926-12.906-3.621-3.0755-8.8273-2.1824-12.839-0.4377-4.3741 2.0161-8.2797 5.0956-11.344 8.789 4.111-3.7322 7.8228-7.9025 11.687-11.893-4.8318 4.9404-8.9172 10.892-10.463 17.722-0.57333 2.7945-2.924 11.668-3.6092 14.419-3.6126 1.128-4.6364 0.0471-8.4385 0.48011z"/>
          <path id="path-47" d="m330.76 263.94c-4.324 3.4445 2.0719-2.5363-3.3971 3.5894-14.145 20.585-14.329 46.486-15.552 70.472 1.6342 39.792 35.83 45.664 60.511 48.424 9.2635 0.17929 19.817-0.28853 26.517-7.6508-6.4321 7.4881 6.9854-9.757 5.5156-15.235 3.1535-15.863 2.7473-32.492 9.3389-47.573 6.1295-14.522 11.088-30.505 22.527-41.828 4.205-2.9014-8.023 10.412-8.577 14.565-8.707 18.28-16.972 37.435-17.829 57.973-1.4772 13.465-3.6107 28.762-15.475 37.321-10.434 8.0547-24.415 4.9891-36.63 5.793-30.859 0.23667-45.295-30.038-48.243-66.052 1.17-19.935 4.1639-41.212 17.283-57.116 2.2548-2.513 9.5895-9.1184 4.0112-2.6829z" stroke="#0cf" fill="#0cf"/>
          <path id="path-48" d="m450.71 278.7c-19.713-11.898-38.817 104.12-33.929 156.16" stroke="#000" stroke-width="1px" fill="none"/>
          <path id="path-49" d="m296.79 383.08c27.751 13.501 77.375 21.505 118.57 23.929" stroke="#000" stroke-width="1px" fill="none"/>
          <path id="path-50" d="m447.5 397.72c-11.06 3.437-19.592 10.07-32.143 9.2857" stroke="#000" stroke-width="1px" fill="none"/>
          <path id="path-51" fill="#006680" d="M 416.87 428.39 C 416.688 424.998 416.538 418.99 416.538 415.038 L 416.538 407.853 L 419.869 407.496 C 424.646 406.984 429.434 405.548 437.499 402.206 C 441.388 400.595 445.049 399.129 445.635 398.949 L 446.7 398.621 L 445.767 404.819 C 444.895 410.617 244.197 308.649 441.48 427.567 C 555.633 496.376 429.254 433.222 420.026 434.244 L 417.201 434.556 L 416.869 428.39 L 416.87 428.39 Z"/>
          <path id="path-52" fill="#006680" d="m411.23 433.2c-7.0246-1.8753-19.336-4.3548-48.74-9.8165-33.291-6.1837-37.577-7.0174-47.77-9.2916-11.73-2.6172-20.238-5.3163-21.05-6.6775-0.14297-0.23982 0.17961-3.1634 0.71683-6.497 0.53722-3.3335 1.2877-8.4095 1.6678-11.28 0.38007-2.8705 0.80305-5.331 0.93994-5.4679 0.1369-0.13689 1.8187 0.4401 3.7374 1.2822 9.2313 4.0516 27.549 9.5082 42.565 12.679 18.696 3.9483 47.004 7.803 65.231 8.8825 3.2366 0.19168 6.1005 0.48946 6.3643 0.66174 0.38226 0.24962 1.3633 26.956 0.9839 26.784-0.0555-0.0252-2.1465-0.59183-4.6466-1.2592z"/>
          <path id="path-53" d="m416.76 404.9c0.1272-0.80314 0.36295-4.7559 0.52389-8.7839 1.1251-28.16 7.7292-69.073 14.838-91.924 6.354-20.425 13.444-29.633 18.739-24.338 3.2023 3.2023 3.2469 11.398 0.22792 41.894-1.4786 14.936-1.8665 21.409-2.2469 37.498-0.42576 18.006-1.1361 32.095-1.8335 36.365-0.28387 1.7384-0.39896 1.8125-6.9224 4.4584-11.492 4.6612-14.894 5.7166-19.389 6.0145l-4.1685 0.27628 0.23127-1.4603z" style="fill: rgb(170, 147, 0);"/>
          <path id="path-54" d="m367.14 385.48c-5.674-0.84148-16.083-2.9664-19.776-4.0369-5.3139-1.5406-12.591-4.8766-16.642-7.6287-9.3957-6.3841-13.096-12.249-16.974-26.904-1.5254-5.7643-1.5346-5.8774-1.2046-14.9 0.98021-26.8 4.0083-43.056 10.415-55.911 2.9482-5.9157 4.127-7.6907 7.8698-11.85l2.8787-3.1989 9.6456 4.9902c5.3051 2.7446 11.805 5.8617 14.444 6.9268l4.7982 1.9365 7.5761-0.10812c4.1669-0.0595 11.213-0.33826 15.657-0.61955 17.606-1.1142 30.987-1.447 40.093-0.99725 5.106 0.2522 9.4096 0.58454 9.5636 0.73852 0.15398 0.15399-0.52554 1.1281-1.51 2.1647-6.2298 6.5595-10.083 13.768-18.653 34.899-5.7005 14.055-6.4966 17.304-9.0506 36.939-0.84913 6.5281-1.6456 12.21-1.7699 12.627-0.12432 0.41689-0.33768 1.9308-0.47415 3.3643-0.30272 3.1799-1.6701 6.7484-4.4018 11.487-2.6476 4.5932-3.6486 5.6751-6.6759 7.2158-4.7847 2.4352-6.6634 2.7871-15.708 2.9421-4.7225 0.081-9.2682 0.0461-10.102-0.0775z" style="fill: rgb(72, 255, 0);"/>
          <path id="path-55" fill="#08a" d="m407.55 405.96c-30.566-2.5071-58.144-6.8701-79.802-12.626-9.6919-2.5755-21.11-6.3823-26.41-8.8047-4.7097-2.1528-4.3949-1.3491-3.6547-9.3314 1.2447-13.423 1.6248-23.073 2.0388-51.77 0.25546-17.706 0.69221-32.636 1.0269-35.103 1.7183-12.665 6.1279-22.802 13.238-30.431 1.948-2.0901 2.4964-2.3991 4.2576-2.3991 2.2575 0 5.7831 1.1141 10.928 3.4532l3.4445 1.5662-3.3354 3.1201c-8.7155 8.1529-15.405 23.057-18.145 40.424-2.3168 14.687-2.2762 21.555 0.21431 36.289 1.8963 11.219 3.102 14.924 7.5903 23.326 6.6388 12.428 12.336 18.409 21.833 22.919 6.4358 3.0563 9.4003 3.4514 25.107 3.3461 14.103-0.0946 17.331-0.40919 22.129-2.1566 6.7429-2.4558 12.539-8.0114 16.028-15.362 3.4275-7.2216 5.0014-14.149 6.3111-27.779 1.5546-16.179 5.558-29.582 14.827-49.641 1.8337-3.9681 3.334-7.409 3.334-7.6464 0-0.32389 7.8792-11.938 8.9013-13.121 0.20964-0.2426 6.5255 1.4106 8.145 2.132 1.309 0.58308 1.506 1.3542 0.34586 1.3542-0.4348 0-2.0057 1.2152-3.4909 2.7003-5.2445 5.2445-10.065 17.116-14.902 36.696-5.7312 23.201-10.437 56.571-11.445 81.154l-0.33792 8.2447-1.5632-0.0694c-0.85975-0.0382-3.836-0.25585-6.6139-0.4837z"/>
        </g>
      </g>
    </pattern>
    <linearGradient id="gradient-33" gradientUnits="userSpaceOnUse" x1="373.399" y1="254.872" x2="373.399" y2="435.08">
      <stop offset="0" style="stop-color: rgba(85, 89, 218, 1)"/>
      <stop offset="1" style="stop-color: rgba(36, 40, 165, 1)"/>
    </linearGradient>
    <linearGradient id="gradient-34" gradientUnits="userSpaceOnUse" x1="388.501" y1="232.409" x2="388.501" y2="274.382">
      <stop offset="0" style="stop-color: rgba(85, 89, 218, 1)"/>
      <stop offset="1" style="stop-color: rgba(36, 40, 165, 1)"/>
    </linearGradient>
    <linearGradient id="gradient-35" gradientUnits="userSpaceOnUse" x1="373.283" y1="261.204" x2="373.283" y2="389.792">
      <stop offset="0" style="stop-color: rgba(85, 89, 218, 1)"/>
      <stop offset="1" style="stop-color: rgba(36, 40, 165, 1)"/>
    </linearGradient>
    <linearGradient id="gradient-36" gradientUnits="userSpaceOnUse" x1="433.359" y1="277.85" x2="433.359" y2="434.86">
      <stop offset="0" style="stop-color: rgba(85, 89, 218, 1)"/>
      <stop offset="1" style="stop-color: rgba(36, 40, 165, 1)"/>
    </linearGradient>
    <linearGradient id="gradient-37" gradientUnits="userSpaceOnUse" x1="356.075" y1="383.08" x2="356.075" y2="407.009">
      <stop offset="0" style="stop-color: rgba(85, 89, 218, 1)"/>
      <stop offset="1" style="stop-color: rgba(36, 40, 165, 1)"/>
    </linearGradient>
    <linearGradient id="gradient-38" gradientUnits="userSpaceOnUse" x1="431.428" y1="397.72" x2="431.428" y2="407.07">
      <stop offset="0" style="stop-color: rgba(85, 89, 218, 1)"/>
      <stop offset="1" style="stop-color: rgba(36, 40, 165, 1)"/>
    </linearGradient>
    <linearGradient id="gradient-39" gradientUnits="userSpaceOnUse" x1="421.831" y1="369.637" x2="421.831" y2="459.732">
      <stop offset="0" style="stop-color: rgba(85, 89, 218, 1)"/>
      <stop offset="1" style="stop-color: rgba(36, 40, 165, 1)"/>
    </linearGradient>
    <linearGradient id="gradient-40" gradientUnits="userSpaceOnUse" x1="354.799" y1="384.149" x2="354.799" y2="434.46">
      <stop offset="0" style="stop-color: rgba(85, 89, 218, 1)"/>
      <stop offset="1" style="stop-color: rgba(36, 40, 165, 1)"/>
    </linearGradient>
    <linearGradient id="gradient-41" gradientUnits="userSpaceOnUse" x1="434.919" y1="278.384" x2="434.919" y2="406.36">
      <stop offset="0" style="stop-color: rgba(85, 89, 218, 1)"/>
      <stop offset="1" style="stop-color: rgba(36, 40, 165, 1)"/>
    </linearGradient>
    <linearGradient id="gradient-42" gradientUnits="userSpaceOnUse" x1="373.938" y1="261.051" x2="373.938" y2="385.6">
      <stop offset="0" style="stop-color: rgba(85, 89, 218, 1)"/>
      <stop offset="1" style="stop-color: rgba(36, 40, 165, 1)"/>
    </linearGradient>
    <linearGradient id="gradient-43" gradientUnits="userSpaceOnUse" x1="371.96" y1="255.495" x2="371.96" y2="406.514" gradientTransform="matrix(0.999994, -0.003129, 0.003992, 1, -1.620567, 1.164003)">
      <stop offset="0" style="stop-color: rgb(218, 85, 85);"/>
      <stop offset="1" style="stop-color: rgba(36, 40, 165, 1)"/>
    </linearGradient>
    <linearGradient id="gradient-44" gradientUnits="userSpaceOnUse" x1="373.399" y1="254.872" x2="373.399" y2="435.08">
      <stop offset="0" style="stop-color: rgb(243, 255, 0);"/>
      <stop offset="1" style="stop-color: rgba(36, 40, 165, 1)"/>
    </linearGradient>
    <linearGradient id="gradient-45" gradientUnits="userSpaceOnUse" x1="388.501" y1="232.409" x2="388.501" y2="274.382">
      <stop offset="0" style="stop-color: rgba(85, 89, 218, 1)"/>
      <stop offset="1" style="stop-color: rgba(36, 40, 165, 1)"/>
    </linearGradient>
    <linearGradient id="gradient-46" gradientUnits="userSpaceOnUse" x1="373.283" y1="261.204" x2="373.283" y2="389.792">
      <stop offset="0" style="stop-color: rgba(85, 89, 218, 1)"/>
      <stop offset="1" style="stop-color: rgba(36, 40, 165, 1)"/>
    </linearGradient>
    <linearGradient id="gradient-47" gradientUnits="userSpaceOnUse" x1="433.359" y1="277.85" x2="433.359" y2="434.86">
      <stop offset="0" style="stop-color: rgba(85, 89, 218, 1)"/>
      <stop offset="1" style="stop-color: rgba(36, 40, 165, 1)"/>
    </linearGradient>
    <linearGradient id="gradient-48" gradientUnits="userSpaceOnUse" x1="356.075" y1="383.08" x2="356.075" y2="407.009">
      <stop offset="0" style="stop-color: rgba(85, 89, 218, 1)"/>
      <stop offset="1" style="stop-color: rgba(36, 40, 165, 1)"/>
    </linearGradient>
    <linearGradient id="gradient-49" gradientUnits="userSpaceOnUse" x1="431.428" y1="397.72" x2="431.428" y2="407.07">
      <stop offset="0" style="stop-color: rgba(85, 89, 218, 1)"/>
      <stop offset="1" style="stop-color: rgba(36, 40, 165, 1)"/>
    </linearGradient>
    <linearGradient id="gradient-50" gradientUnits="userSpaceOnUse" x1="421.831" y1="369.637" x2="421.831" y2="459.732">
      <stop offset="0" style="stop-color: rgba(85, 89, 218, 1)"/>
      <stop offset="1" style="stop-color: rgba(36, 40, 165, 1)"/>
    </linearGradient>
    <linearGradient id="gradient-51" gradientUnits="userSpaceOnUse" x1="354.799" y1="384.149" x2="354.799" y2="434.46">
      <stop offset="0" style="stop-color: rgba(85, 89, 218, 1)"/>
      <stop offset="1" style="stop-color: rgba(36, 40, 165, 1)"/>
    </linearGradient>
    <linearGradient id="gradient-52" gradientUnits="userSpaceOnUse" x1="434.919" y1="278.384" x2="434.919" y2="406.36">
      <stop offset="0" style="stop-color: rgba(85, 89, 218, 1)"/>
      <stop offset="1" style="stop-color: rgba(36, 40, 165, 1)"/>
    </linearGradient>
    <linearGradient id="gradient-53" gradientUnits="userSpaceOnUse" x1="373.938" y1="261.051" x2="373.938" y2="385.6">
      <stop offset="0" style="stop-color: rgba(85, 89, 218, 1)"/>
      <stop offset="1" style="stop-color: rgba(36, 40, 165, 1)"/>
    </linearGradient>
    <linearGradient id="gradient-54" gradientUnits="userSpaceOnUse" x1="371.96" y1="255.495" x2="371.96" y2="406.514">
      <stop offset="0" style="stop-color: rgba(85, 89, 218, 1)"/>
      <stop offset="1" style="stop-color: rgb(255, 234, 0);"/>
    </linearGradient>
    <linearGradient id="gradient-55" gradientUnits="userSpaceOnUse" x1="373.399" y1="254.872" x2="373.399" y2="435.08">
      <stop offset="0" style="stop-color: rgba(85, 89, 218, 1)"/>
      <stop offset="1" style="stop-color: rgba(36, 40, 165, 1)"/>
    </linearGradient>
    <linearGradient id="gradient-56" gradientUnits="userSpaceOnUse" x1="388.501" y1="232.409" x2="388.501" y2="274.382">
      <stop offset="0" style="stop-color: rgba(85, 89, 218, 1)"/>
      <stop offset="1" style="stop-color: rgba(36, 40, 165, 1)"/>
    </linearGradient>
    <linearGradient id="gradient-57" gradientUnits="userSpaceOnUse" x1="373.283" y1="261.204" x2="373.283" y2="389.792">
      <stop offset="0" style="stop-color: rgba(85, 89, 218, 1)"/>
      <stop offset="1" style="stop-color: rgba(36, 40, 165, 1)"/>
    </linearGradient>
    <linearGradient id="gradient-58" gradientUnits="userSpaceOnUse" x1="433.359" y1="277.85" x2="433.359" y2="434.86">
      <stop offset="0" style="stop-color: rgba(85, 89, 218, 1)"/>
      <stop offset="1" style="stop-color: rgba(36, 40, 165, 1)"/>
    </linearGradient>
    <linearGradient id="gradient-59" gradientUnits="userSpaceOnUse" x1="356.075" y1="383.08" x2="356.075" y2="407.009">
      <stop offset="0" style="stop-color: rgba(85, 89, 218, 1)"/>
      <stop offset="1" style="stop-color: rgba(36, 40, 165, 1)"/>
    </linearGradient>
    <linearGradient id="gradient-60" gradientUnits="userSpaceOnUse" x1="431.428" y1="397.72" x2="431.428" y2="407.07">
      <stop offset="0" style="stop-color: rgba(85, 89, 218, 1)"/>
      <stop offset="1" style="stop-color: rgba(36, 40, 165, 1)"/>
    </linearGradient>
    <linearGradient id="gradient-61" gradientUnits="userSpaceOnUse" x1="421.831" y1="369.637" x2="421.831" y2="459.732">
      <stop offset="0" style="stop-color: rgba(85, 89, 218, 1)"/>
      <stop offset="1" style="stop-color: rgba(36, 40, 165, 1)"/>
    </linearGradient>
    <linearGradient id="gradient-62" gradientUnits="userSpaceOnUse" x1="354.799" y1="384.149" x2="354.799" y2="434.46">
      <stop offset="0" style="stop-color: rgba(85, 89, 218, 1)"/>
      <stop offset="1" style="stop-color: rgba(36, 40, 165, 1)"/>
    </linearGradient>
    <linearGradient id="gradient-63" gradientUnits="userSpaceOnUse" x1="434.919" y1="278.384" x2="434.919" y2="406.36">
      <stop offset="0" style="stop-color: rgba(85, 89, 218, 1)"/>
      <stop offset="1" style="stop-color: rgba(36, 40, 165, 1)"/>
    </linearGradient>
    <linearGradient id="gradient-64" gradientUnits="userSpaceOnUse" x1="373.938" y1="261.051" x2="373.938" y2="385.6">
      <stop offset="0" style="stop-color: rgba(85, 89, 218, 1)"/>
      <stop offset="1" style="stop-color: rgba(36, 40, 165, 1)"/>
    </linearGradient>
    <linearGradient id="gradient-65" gradientUnits="userSpaceOnUse" x1="371.96" y1="255.495" x2="371.96" y2="406.514">
      <stop offset="0" style="stop-color: rgb(192, 85, 218);"/>
      <stop offset="1" style="stop-color: rgba(36, 40, 165, 1)"/>
    </linearGradient>
  </defs>
  <path d="M 210.401 790.335 C 210.705 791.026 210.327 797.952 209.183 797.952 C 206.948 800.491 208.022 798.08 206.745 801.911 C 206.293 803.267 204.332 822.324 201.87 822.324 C 201.87 831.989 203.221 844.862 201.87 854.312 C 201.434 857.369 202.938 861.014 201.566 863.758 C 195.964 863.148 207.877 863.77 213.447 864.367 C 221.522 865.232 227.798 864.671 235.687 864.671 C 239.648 863.096 240.257 862.263 240.257 861.015 C 238.57 857.336 240.257 849.131 240.257 845.173 C 240.257 843.345 240.257 841.822 240.257 840.299 C 240.257 839.122 240.462 836.033 241.171 836.033 C 241.83 836.338 242.21 836.947 243.304 836.947 C 245.438 835.118 245.132 841.473 245.132 842.127 C 245.132 845.627 246.657 856.139 244.522 858.273 C 244.522 859.656 244.218 860.571 244.218 861.929 C 244.218 863.623 251.991 864.062 253.662 864.062 C 264.092 864.062 274.366 861.625 284.432 861.625 C 285.481 861.625 288.219 862.234 286.87 862.234 C 286.565 860.439 287.34 850.133 288.088 846.392 C 288.139 846.138 287.995 839.676 287.784 838.776 C 285.915 830.794 286.565 827.586 286.565 820.801 C 286.565 818.843 286.87 817.043 286.87 815.621 C 286.87 812.325 284.737 808.162 284.737 806.482 C 284.737 804.123 282.3 802.585 282.3 800.389 C 281.995 798.57 281.386 797.208 281.386 795.819 C 279.989 794.117 279.837 794.296 278.035 794.296 C 277.326 793.991 277.425 791.443 277.425 790.944 C 276.778 789.992 277.121 786.358 277.121 785.156 C 277.121 782.566 262.24 783.937 259.146 783.937 C 250.882 783.937 238.736 783.196 230.813 785.46 C 224.401 787.292 217.089 790.03 210.705 790.03 C 210.401 789.505 209.303 789.726 210.401 789.726 L 210.401 790.335 Z" style="stroke: black; stroke-width: 0; fill: url(#pattern-0-0);" class="clothes"/>
</svg>