<svg class="bottomOverlay" width="86" height="380" viewBox="202.715 584.407 86.593 380.048" xmlns="http://www.w3.org/2000/svg" xmlns:xlink="http://www.w3.org/1999/xlink"><defs><pattern id="K" width="20" height="20" patternUnits="userSpaceOnUse" viewBox="0 0 100 100"><path d="M38.829 26.699h37.48l-.001 116.913h-37.48z" transform="rotate(-89.614 57.568 85.156)" fill="url(#a)"/><path d="M20.274-6.281h37.48l-.001 69.353h-37.48z" transform="rotate(-89.614 39.014 28.396)" fill="url(#b)"/><path transform="matrix(.8991 .43776 0 1.11223 0 -23.016)" fill="#fbef01" d="M29.079.621h12.247v88.631H29.079zM57.922 10.386H95.06v67.098H57.922z"/><path transform="matrix(.8991 .43777 0 1.11224 -79.878 -104.536)" fill="#88e47a" d="M172.116 53.807h3.899v41.649h-3.899z"/><path transform="matrix(.8991 .43776 0 1.11223 0 -23.016)" fill="#fbef01" d="M10.094 44.474h49.779v12.268H10.094z"/><path fill="#fff700" d="M83.494 6.09h12.66v29.006h-12.66z"/></pattern><pattern id="J" patternUnits="userSpaceOnUse" preserveAspectRatio="none" width="100" height="100"><path d="M292.86 407.36c15.15-86.55-5.79-123.5 22.14-151.43 6.434-6.434 38.928 18.571 50.714 18.571 26.029 0 79.422-8.299 87.143 7.143 3.782 7.565-3.571 55.16-3.571 69.286 0 30.775-.414 46.207-7.5 77.857-7.632 3.423-13.375 5.43-24.875 6.293-32.231-8.976-119.29-20.314-124.05-27.721z" stroke="#000" fill="url(#c)" transform="matrix(.26582 0 0 .30023 -69.245 -72.124)"/><path d="M363.64 274.33c-.005-2.965.49-3.074 1.005-5.96 1.125-5.052 3.302-9.842 6.456-13.95 1.697-2.382 3.646-4.565 5.91-6.418 4.296-4.332 8.144-9.283 13.53-12.35 4.43-2.625 10.08-4.386 15.085-2.368 5.342 2.133 7.664 8.224 7.736 13.604.047 6.896-3.245 18.675-4.79 25.296-3.708 1.075-5.995-.787-9.67.887 1.402-5.883 2.805-8.884 3.536-14.916.498-4.51-.278-9.719-3.792-12.906-3.621-3.075-8.828-2.182-12.84-.437-4.373 2.016-8.279 5.095-11.343 8.789 4.11-3.732 7.822-7.903 11.687-11.893-4.832 4.94-8.917 10.892-10.463 17.722-.574 2.794-2.924 11.668-3.61 14.419-3.612 1.128-4.636.047-8.438.48z" fill="url(#d)" transform="matrix(.26582 0 0 .30023 -69.245 -72.124)"/><path d="M330.76 263.94c-4.324 3.445 2.072-2.536-3.397 3.59-14.145 20.584-14.33 46.485-15.552 70.471 1.634 39.792 35.83 45.664 60.51 48.424 9.264.18 19.818-.288 26.518-7.65-6.432 7.488 6.985-9.757 5.515-15.235 3.154-15.863 2.748-32.492 9.34-47.573 6.129-14.522 11.087-30.505 22.526-41.828 4.205-2.902-8.023 10.412-8.577 14.565-8.707 18.28-16.972 37.435-17.829 57.973-1.477 13.465-3.61 28.762-15.475 37.32-10.434 8.055-24.415 4.99-36.63 5.794-30.859.236-45.295-30.038-48.243-66.052 1.17-19.935 4.164-41.212 17.283-57.116 2.255-2.513 9.59-9.119 4.012-2.683z" stroke="#0cf" fill="url(#e)" transform="matrix(.26582 0 0 .30023 -69.245 -72.124)"/><path d="M450.71 278.7c-19.713-11.898-38.817 104.12-33.929 156.16" stroke="#000" fill="url(#f)" transform="matrix(.26582 0 0 .30023 -69.245 -72.124)"/><path d="M296.79 383.08c27.751 13.501 77.375 21.505 118.57 23.929" stroke="#000" fill="url(#g)" transform="matrix(.26582 0 0 .30023 -69.245 -72.124)"/><path d="M447.5 397.72c-11.06 3.437-19.592 10.07-32.143 9.286" stroke="#000" fill="url(#h)" transform="matrix(.26582 0 0 .30023 -69.245 -72.124)"/><path d="M416.87 428.39c-.182-3.392-.332-9.4-.332-13.352v-7.185l3.331-.357c4.777-.512 9.565-1.948 17.63-5.29 3.889-1.611 7.55-3.077 8.136-3.257l1.065-.328-.933 6.198c-.872 5.798-201.57-96.17-4.287 22.748 114.153 68.809-12.226 5.655-21.454 6.677l-2.825.312-.332-6.166h.001z" fill="url(#i)" transform="matrix(.26582 0 0 .30023 -69.245 -72.124)"/><path d="M411.23 433.2c-7.025-1.875-19.336-4.355-48.74-9.816-33.291-6.184-37.577-7.018-47.77-9.292-11.73-2.617-20.238-5.316-21.05-6.678-.143-.24.18-3.163.717-6.497.537-3.333 1.288-8.41 1.668-11.28.38-2.87.803-5.33.94-5.468.136-.136 1.818.44 3.737 1.283 9.231 4.051 27.549 9.508 42.565 12.679 18.696 3.948 47.004 7.803 65.231 8.882 3.237.192 6.1.49 6.364.662.383.25 1.364 26.956.984 26.784-.055-.025-2.146-.592-4.646-1.26z" fill="url(#j)" transform="matrix(.26582 0 0 .30023 -69.245 -72.124)"/><path d="M416.76 404.9c.127-.803.363-4.756.524-8.784 1.125-28.16 7.73-69.073 14.838-91.924 6.354-20.425 13.444-29.633 18.739-24.338 3.202 3.202 3.247 11.398.228 41.894-1.479 14.936-1.867 21.41-2.247 37.498-.426 18.006-1.136 32.095-1.834 36.365-.283 1.738-.399 1.813-6.922 4.458-11.492 4.662-14.894 5.717-19.389 6.015l-4.168.276.23-1.46z" fill="url(#k)" transform="matrix(.26582 0 0 .30023 -69.245 -72.124)"/><path d="M367.14 385.48c-5.674-.841-16.083-2.966-19.776-4.037-5.314-1.54-12.591-4.876-16.642-7.629-9.396-6.384-13.096-12.249-16.974-26.904-1.525-5.764-1.535-5.877-1.205-14.9.98-26.8 4.009-43.056 10.415-55.91 2.949-5.916 4.127-7.691 7.87-11.85l2.879-3.2 9.645 4.99c5.306 2.745 11.805 5.862 14.444 6.928l4.799 1.936 7.576-.108c4.167-.06 11.213-.338 15.657-.62 17.606-1.114 30.987-1.447 40.093-.997 5.106.252 9.41.585 9.563.739.154.154-.525 1.128-1.51 2.164-6.23 6.56-10.083 13.768-18.653 34.9-5.7 14.054-6.496 17.303-9.05 36.938-.85 6.528-1.646 12.21-1.77 12.627-.124.417-.338 1.931-.474 3.365-.303 3.18-1.67 6.748-4.402 11.487-2.648 4.593-3.649 5.675-6.676 7.215-4.785 2.436-6.663 2.788-15.708 2.943-4.722.08-9.268.046-10.102-.078z" fill="url(#l)" transform="matrix(.26582 0 0 .30023 -69.245 -72.124)"/><path d="M407.55 405.96c-30.566-2.507-58.144-6.87-79.802-12.626-9.692-2.575-21.11-6.382-26.41-8.805-4.71-2.153-4.395-1.349-3.655-9.331 1.245-13.423 1.625-23.073 2.04-51.77.255-17.706.691-32.636 1.026-35.103 1.718-12.665 6.128-22.802 13.238-30.431 1.948-2.09 2.496-2.4 4.258-2.4 2.257 0 5.783 1.115 10.928 3.454l3.444 1.566-3.335 3.12c-8.716 8.153-15.405 23.057-18.145 40.424-2.317 14.687-2.276 21.555.214 36.29 1.896 11.218 3.102 14.923 7.59 23.325 6.64 12.428 12.336 18.41 21.833 22.92 6.436 3.056 9.4 3.45 25.107 3.345 14.103-.094 17.331-.409 22.13-2.156 6.742-2.456 12.538-8.012 16.027-15.362 3.428-7.222 5.002-14.15 6.311-27.78 1.555-16.178 5.558-29.581 14.827-49.64 1.834-3.968 3.334-7.41 3.334-7.647 0-.323 7.88-11.938 8.902-13.12.21-.243 6.525 1.41 8.145 2.131 1.309.583 1.506 1.355.346 1.355-.435 0-2.006 1.215-3.491 2.7-5.245 5.244-10.065 17.116-14.902 36.696-5.732 23.2-10.437 56.57-11.445 81.154l-.338 8.245-1.563-.07c-.86-.038-3.836-.256-6.614-.484z" fill="url(#m)" transform="matrix(.26582 0 0 .30023 -69.245 -72.124)"/><g><path d="M292.86 407.36c15.15-86.55-5.79-123.5 22.14-151.43 6.434-6.434 38.928 18.571 50.714 18.571 26.029 0 79.422-8.299 87.143 7.143 3.782 7.565-3.571 55.16-3.571 69.286 0 30.775-.414 46.207-7.5 77.857-7.632 3.423-13.375 5.43-24.875 6.293-32.231-8.976-119.29-20.314-124.05-27.721z" stroke="#000" fill="url(#n)" transform="matrix(.26583 0 0 .30023 -27.622 -31.828)"/><path d="M363.64 274.33c-.005-2.965.49-3.074 1.005-5.96 1.125-5.052 3.302-9.842 6.456-13.95 1.697-2.382 3.646-4.565 5.91-6.418 4.296-4.332 8.144-9.283 13.53-12.35 4.43-2.625 10.08-4.386 15.085-2.368 5.342 2.133 7.664 8.224 7.736 13.604.047 6.896-3.245 18.675-4.79 25.296-3.708 1.075-5.995-.787-9.67.887 1.402-5.883 2.805-8.884 3.536-14.916.498-4.51-.278-9.719-3.792-12.906-3.621-3.075-8.828-2.182-12.84-.437-4.373 2.016-8.279 5.095-11.343 8.789 4.11-3.732 7.822-7.903 11.687-11.893-4.832 4.94-8.917 10.892-10.463 17.722-.574 2.794-2.924 11.668-3.61 14.419-3.612 1.128-4.636.047-8.438.48z" fill="url(#o)" transform="matrix(.26583 0 0 .30023 -27.622 -31.828)"/><path d="M330.76 263.94c-4.324 3.445 2.072-2.536-3.397 3.59-14.145 20.584-14.33 46.485-15.552 70.471 1.634 39.792 35.83 45.664 60.51 48.424 9.264.18 19.818-.288 26.518-7.65-6.432 7.488 6.985-9.757 5.515-15.235 3.154-15.863 2.748-32.492 9.34-47.573 6.129-14.522 11.087-30.505 22.526-41.828 4.205-2.902-8.023 10.412-8.577 14.565-8.707 18.28-16.972 37.435-17.829 57.973-1.477 13.465-3.61 28.762-15.475 37.32-10.434 8.055-24.415 4.99-36.63 5.794-30.859.236-45.295-30.038-48.243-66.052 1.17-19.935 4.164-41.212 17.283-57.116 2.255-2.513 9.59-9.119 4.012-2.683z" stroke="#0cf" fill="url(#p)" transform="matrix(.26583 0 0 .30023 -27.622 -31.828)"/><path d="M450.71 278.7c-19.713-11.898-38.817 104.12-33.929 156.16" stroke="#000" fill="url(#q)" transform="matrix(.26583 0 0 .30023 -27.622 -31.828)"/><path d="M296.79 383.08c27.751 13.501 77.375 21.505 118.57 23.929" stroke="#000" fill="url(#r)" transform="matrix(.26583 0 0 .30023 -27.622 -31.828)"/><path d="M447.5 397.72c-11.06 3.437-19.592 10.07-32.143 9.286" stroke="#000" fill="url(#s)" transform="matrix(.26583 0 0 .30023 -27.622 -31.828)"/><path d="M416.87 428.39c-.182-3.392-.332-9.4-.332-13.352v-7.185l3.331-.357c4.777-.512 9.565-1.948 17.63-5.29 3.889-1.611 7.55-3.077 8.136-3.257l1.065-.328-.933 6.198c-.872 5.798-201.57-96.17-4.287 22.748 114.153 68.809-12.226 5.655-21.454 6.677l-2.825.312-.332-6.166h.001z" fill="url(#t)" transform="matrix(.26583 0 0 .30023 -27.622 -31.828)"/><path d="M411.23 433.2c-7.025-1.875-19.336-4.355-48.74-9.816-33.291-6.184-37.577-7.018-47.77-9.292-11.73-2.617-20.238-5.316-21.05-6.678-.143-.24.18-3.163.717-6.497.537-3.333 1.288-8.41 1.668-11.28.38-2.87.803-5.33.94-5.468.136-.136 1.818.44 3.737 1.283 9.231 4.051 27.549 9.508 42.565 12.679 18.696 3.948 47.004 7.803 65.231 8.882 3.237.192 6.1.49 6.364.662.383.25 1.364 26.956.984 26.784-.055-.025-2.146-.592-4.646-1.26z" fill="url(#u)" transform="matrix(.26583 0 0 .30023 -27.622 -31.828)"/><path d="M416.76 404.9c.127-.803.363-4.756.524-8.784 1.125-28.16 7.73-69.073 14.838-91.924 6.354-20.425 13.444-29.633 18.739-24.338 3.202 3.202 3.247 11.398.228 41.894-1.479 14.936-1.867 21.41-2.247 37.498-.426 18.006-1.136 32.095-1.834 36.365-.283 1.738-.399 1.813-6.922 4.458-11.492 4.662-14.894 5.717-19.389 6.015l-4.168.276.23-1.46z" fill="url(#v)" transform="matrix(.26583 0 0 .30023 -27.622 -31.828)"/><path d="M367.14 385.48c-5.674-.841-16.083-2.966-19.776-4.037-5.314-1.54-12.591-4.876-16.642-7.629-9.396-6.384-13.096-12.249-16.974-26.904-1.525-5.764-1.535-5.877-1.205-14.9.98-26.8 4.009-43.056 10.415-55.91 2.949-5.916 4.127-7.691 7.87-11.85l2.879-3.2 9.645 4.99c5.306 2.745 11.805 5.862 14.444 6.928l4.799 1.936 7.576-.108c4.167-.06 11.213-.338 15.657-.62 17.606-1.114 30.987-1.447 40.093-.997 5.106.252 9.41.585 9.563.739.154.154-.525 1.128-1.51 2.164-6.23 6.56-10.083 13.768-18.653 34.9-5.7 14.054-6.496 17.303-9.05 36.938-.85 6.528-1.646 12.21-1.77 12.627-.124.417-.338 1.931-.474 3.365-.303 3.18-1.67 6.748-4.402 11.487-2.648 4.593-3.649 5.675-6.676 7.215-4.785 2.436-6.663 2.788-15.708 2.943-4.722.08-9.268.046-10.102-.078z" fill="url(#w)" transform="matrix(.26583 0 0 .30023 -27.622 -31.828)"/><path d="M407.55 405.96c-30.566-2.507-58.144-6.87-79.802-12.626-9.692-2.575-21.11-6.382-26.41-8.805-4.71-2.153-4.395-1.349-3.655-9.331 1.245-13.423 1.625-23.073 2.04-51.77.255-17.706.691-32.636 1.026-35.103 1.718-12.665 6.128-22.802 13.238-30.431 1.948-2.09 2.496-2.4 4.258-2.4 2.257 0 5.783 1.115 10.928 3.454l3.444 1.566-3.335 3.12c-8.716 8.153-15.405 23.057-18.145 40.424-2.317 14.687-2.276 21.555.214 36.29 1.896 11.218 3.102 14.923 7.59 23.325 6.64 12.428 12.336 18.41 21.833 22.92 6.436 3.056 9.4 3.45 25.107 3.345 14.103-.094 17.331-.409 22.13-2.156 6.742-2.456 12.538-8.012 16.027-15.362 3.428-7.222 5.002-14.15 6.311-27.78 1.555-16.178 5.558-29.581 14.827-49.64 1.834-3.968 3.334-7.41 3.334-7.647 0-.323 7.88-11.938 8.902-13.12.21-.243 6.525 1.41 8.145 2.131 1.309.583 1.506 1.355.346 1.355-.435 0-2.006 1.215-3.491 2.7-5.245 5.244-10.065 17.116-14.902 36.696-5.732 23.2-10.437 56.57-11.445 81.154l-.338 8.245-1.563-.07c-.86-.038-3.836-.256-6.614-.484z" fill="url(#x)" transform="matrix(.26583 0 0 .30023 -27.622 -31.828)"/></g><g><path d="M292.86 407.36c15.15-86.55-5.79-123.5 22.14-151.43 6.434-6.434 38.928 18.571 50.714 18.571 26.029 0 79.422-8.299 87.143 7.143 3.782 7.565-3.571 55.16-3.571 69.286 0 30.775-.414 46.207-7.5 77.857-7.632 3.423-13.375 5.43-24.875 6.293-32.231-8.976-119.29-20.314-124.05-27.721z" stroke="#000" fill="url(#y)" transform="matrix(.26582 0 0 .30023 -74.096 -42.885)"/><path d="M363.64 274.33c-.005-2.965.49-3.074 1.005-5.96 1.125-5.052 3.302-9.842 6.456-13.95 1.697-2.382 3.646-4.565 5.91-6.418 4.296-4.332 8.144-9.283 13.53-12.35 4.43-2.625 10.08-4.386 15.085-2.368 5.342 2.133 7.664 8.224 7.736 13.604.047 6.896-3.245 18.675-4.79 25.296-3.708 1.075-5.995-.787-9.67.887 1.402-5.883 2.805-8.884 3.536-14.916.498-4.51-.278-9.719-3.792-12.906-3.621-3.075-8.828-2.182-12.84-.437-4.373 2.016-8.279 5.095-11.343 8.789 4.11-3.732 7.822-7.903 11.687-11.893-4.832 4.94-8.917 10.892-10.463 17.722-.574 2.794-2.924 11.668-3.61 14.419-3.612 1.128-4.636.047-8.438.48z" fill="url(#z)" transform="matrix(.26582 0 0 .30023 -74.096 -42.885)"/><path d="M330.76 263.94c-4.324 3.445 2.072-2.536-3.397 3.59-14.145 20.584-14.33 46.485-15.552 70.471 1.634 39.792 35.83 45.664 60.51 48.424 9.264.18 19.818-.288 26.518-7.65-6.432 7.488 6.985-9.757 5.515-15.235 3.154-15.863 2.748-32.492 9.34-47.573 6.129-14.522 11.087-30.505 22.526-41.828 4.205-2.902-8.023 10.412-8.577 14.565-8.707 18.28-16.972 37.435-17.829 57.973-1.477 13.465-3.61 28.762-15.475 37.32-10.434 8.055-24.415 4.99-36.63 5.794-30.859.236-45.295-30.038-48.243-66.052 1.17-19.935 4.164-41.212 17.283-57.116 2.255-2.513 9.59-9.119 4.012-2.683z" stroke="#0cf" fill="url(#A)" transform="matrix(.26582 0 0 .30023 -74.096 -42.885)"/><path d="M450.71 278.7c-19.713-11.898-38.817 104.12-33.929 156.16" stroke="#000" fill="url(#B)" transform="matrix(.26582 0 0 .30023 -74.096 -42.885)"/><path d="M296.79 383.08c27.751 13.501 77.375 21.505 118.57 23.929" stroke="#000" fill="url(#C)" transform="matrix(.26582 0 0 .30023 -74.096 -42.885)"/><path d="M447.5 397.72c-11.06 3.437-19.592 10.07-32.143 9.286" stroke="#000" fill="url(#D)" transform="matrix(.26582 0 0 .30023 -74.096 -42.885)"/><path d="M416.87 428.39c-.182-3.392-.332-9.4-.332-13.352v-7.185l3.331-.357c4.777-.512 9.565-1.948 17.63-5.29 3.889-1.611 7.55-3.077 8.136-3.257l1.065-.328-.933 6.198c-.872 5.798-201.57-96.17-4.287 22.748 114.153 68.809-12.226 5.655-21.454 6.677l-2.825.312-.332-6.166h.001z" fill="url(#E)" transform="matrix(.26582 0 0 .30023 -74.096 -42.885)"/><path d="M411.23 433.2c-7.025-1.875-19.336-4.355-48.74-9.816-33.291-6.184-37.577-7.018-47.77-9.292-11.73-2.617-20.238-5.316-21.05-6.678-.143-.24.18-3.163.717-6.497.537-3.333 1.288-8.41 1.668-11.28.38-2.87.803-5.33.94-5.468.136-.136 1.818.44 3.737 1.283 9.231 4.051 27.549 9.508 42.565 12.679 18.696 3.948 47.004 7.803 65.231 8.882 3.237.192 6.1.49 6.364.662.383.25 1.364 26.956.984 26.784-.055-.025-2.146-.592-4.646-1.26z" fill="url(#F)" transform="matrix(.26582 0 0 .30023 -74.096 -42.885)"/><path d="M416.76 404.9c.127-.803.363-4.756.524-8.784 1.125-28.16 7.73-69.073 14.838-91.924 6.354-20.425 13.444-29.633 18.739-24.338 3.202 3.202 3.247 11.398.228 41.894-1.479 14.936-1.867 21.41-2.247 37.498-.426 18.006-1.136 32.095-1.834 36.365-.283 1.738-.399 1.813-6.922 4.458-11.492 4.662-14.894 5.717-19.389 6.015l-4.168.276.23-1.46z" fill="url(#G)" transform="matrix(.26582 0 0 .30023 -74.096 -42.885)"/><path d="M367.14 385.48c-5.674-.841-16.083-2.966-19.776-4.037-5.314-1.54-12.591-4.876-16.642-7.629-9.396-6.384-13.096-12.249-16.974-26.904-1.525-5.764-1.535-5.877-1.205-14.9.98-26.8 4.009-43.056 10.415-55.91 2.949-5.916 4.127-7.691 7.87-11.85l2.879-3.2 9.645 4.99c5.306 2.745 11.805 5.862 14.444 6.928l4.799 1.936 7.576-.108c4.167-.06 11.213-.338 15.657-.62 17.606-1.114 30.987-1.447 40.093-.997 5.106.252 9.41.585 9.563.739.154.154-.525 1.128-1.51 2.164-6.23 6.56-10.083 13.768-18.653 34.9-5.7 14.054-6.496 17.303-9.05 36.938-.85 6.528-1.646 12.21-1.77 12.627-.124.417-.338 1.931-.474 3.365-.303 3.18-1.67 6.748-4.402 11.487-2.648 4.593-3.649 5.675-6.676 7.215-4.785 2.436-6.663 2.788-15.708 2.943-4.722.08-9.268.046-10.102-.078z" fill="url(#H)" transform="matrix(.26582 0 0 .30023 -74.096 -42.885)"/><path d="M407.55 405.96c-30.566-2.507-58.144-6.87-79.802-12.626-9.692-2.575-21.11-6.382-26.41-8.805-4.71-2.153-4.395-1.349-3.655-9.331 1.245-13.423 1.625-23.073 2.04-51.77.255-17.706.691-32.636 1.026-35.103 1.718-12.665 6.128-22.802 13.238-30.431 1.948-2.09 2.496-2.4 4.258-2.4 2.257 0 5.783 1.115 10.928 3.454l3.444 1.566-3.335 3.12c-8.716 8.153-15.405 23.057-18.145 40.424-2.317 14.687-2.276 21.555.214 36.29 1.896 11.218 3.102 14.923 7.59 23.325 6.64 12.428 12.336 18.41 21.833 22.92 6.436 3.056 9.4 3.45 25.107 3.345 14.103-.094 17.331-.409 22.13-2.156 6.742-2.456 12.538-8.012 16.027-15.362 3.428-7.222 5.002-14.15 6.311-27.78 1.555-16.178 5.558-29.581 14.827-49.64 1.834-3.968 3.334-7.41 3.334-7.647 0-.323 7.88-11.938 8.902-13.12.21-.243 6.525 1.41 8.145 2.131 1.309.583 1.506 1.355.346 1.355-.435 0-2.006 1.215-3.491 2.7-5.245 5.244-10.065 17.116-14.902 36.696-5.732 23.2-10.437 56.57-11.445 81.154l-.338 8.245-1.563-.07c-.86-.038-3.836-.256-6.614-.484z" fill="url(#I)" transform="matrix(.26582 0 0 .30023 -74.096 -42.885)"/></g></pattern><pattern id="a" patternTransform="matrix(.34193 0 0 1.15613 40.472 27.35)" xlink:href="#J"/><pattern id="M" patternTransform="matrix(2.75381 1.28431 -1.2545 2.69015 246.77 818.27)" xlink:href="#K"/><pattern id="b" patternTransform="matrix(.34193 0 0 .68582 22.168 -5.897)" xlink:href="#L"/><pattern id="L" patternUnits="userSpaceOnUse" preserveAspectRatio="none" width="100" height="100"><path d="M292.86 407.36c15.15-86.55-5.79-123.5 22.14-151.43 6.434-6.434 38.928 18.571 50.714 18.571 26.029 0 79.422-8.299 87.143 7.143 3.782 7.565-3.571 55.16-3.571 69.286 0 30.775-.414 46.207-7.5 77.857-7.632 3.423-13.375 5.43-24.875 6.293-32.231-8.976-119.29-20.314-124.05-27.721z" stroke="#000" fill="none" transform="matrix(.26582 0 0 .30023 -69.245 -72.124)"/><path d="M363.64 274.33c-.005-2.965.49-3.074 1.005-5.96 1.125-5.052 3.302-9.842 6.456-13.95 1.697-2.382 3.646-4.565 5.91-6.418 4.296-4.332 8.144-9.283 13.53-12.35 4.43-2.625 10.08-4.386 15.085-2.368 5.342 2.133 7.664 8.224 7.736 13.604.047 6.896-3.245 18.675-4.79 25.296-3.708 1.075-5.995-.787-9.67.887 1.402-5.883 2.805-8.884 3.536-14.916.498-4.51-.278-9.719-3.792-12.906-3.621-3.075-8.828-2.182-12.84-.437-4.373 2.016-8.279 5.095-11.343 8.789 4.11-3.732 7.822-7.903 11.687-11.893-4.832 4.94-8.917 10.892-10.463 17.722-.574 2.794-2.924 11.668-3.61 14.419-3.612 1.128-4.636.047-8.438.48z" transform="matrix(.26582 0 0 .30023 -69.245 -72.124)"/><path d="M330.76 263.94c-4.324 3.445 2.072-2.536-3.397 3.59-14.145 20.584-14.33 46.485-15.552 70.471 1.634 39.792 35.83 45.664 60.51 48.424 9.264.18 19.818-.288 26.518-7.65-6.432 7.488 6.985-9.757 5.515-15.235 3.154-15.863 2.748-32.492 9.34-47.573 6.129-14.522 11.087-30.505 22.526-41.828 4.205-2.902-8.023 10.412-8.577 14.565-8.707 18.28-16.972 37.435-17.829 57.973-1.477 13.465-3.61 28.762-15.475 37.32-10.434 8.055-24.415 4.99-36.63 5.794-30.859.236-45.295-30.038-48.243-66.052 1.17-19.935 4.164-41.212 17.283-57.116 2.255-2.513 9.59-9.119 4.012-2.683z" stroke="#0cf" fill="#0cf" transform="matrix(.26582 0 0 .30023 -69.245 -72.124)"/><path d="M450.71 278.7c-19.713-11.898-38.817 104.12-33.929 156.16M296.79 383.08c27.751 13.501 77.375 21.505 118.57 23.929M447.5 397.72c-11.06 3.437-19.592 10.07-32.143 9.286" stroke="#000" fill="none" transform="matrix(.26582 0 0 .30023 -69.245 -72.124)"/><path fill="#006680" d="M416.87 428.39c-.182-3.392-.332-9.4-.332-13.352v-7.185l3.331-.357c4.777-.512 9.565-1.948 17.63-5.29 3.889-1.611 7.55-3.077 8.136-3.257l1.065-.328-.933 6.198c-.872 5.798-201.57-96.17-4.287 22.748 114.153 68.809-12.226 5.655-21.454 6.677l-2.825.312-.332-6.166h.001z" transform="matrix(.26582 0 0 .30023 -69.245 -72.124)"/><path fill="#006680" d="M411.23 433.2c-7.025-1.875-19.336-4.355-48.74-9.816-33.291-6.184-37.577-7.018-47.77-9.292-11.73-2.617-20.238-5.316-21.05-6.678-.143-.24.18-3.163.717-6.497.537-3.333 1.288-8.41 1.668-11.28.38-2.87.803-5.33.94-5.468.136-.136 1.818.44 3.737 1.283 9.231 4.051 27.549 9.508 42.565 12.679 18.696 3.948 47.004 7.803 65.231 8.882 3.237.192 6.1.49 6.364.662.383.25 1.364 26.956.984 26.784-.055-.025-2.146-.592-4.646-1.26z" transform="matrix(.26582 0 0 .30023 -69.245 -72.124)"/><path fill="#08a" d="M416.76 404.9c.127-.803.363-4.756.524-8.784 1.125-28.16 7.73-69.073 14.838-91.924 6.354-20.425 13.444-29.633 18.739-24.338 3.202 3.202 3.247 11.398.228 41.894-1.479 14.936-1.867 21.41-2.247 37.498-.426 18.006-1.136 32.095-1.834 36.365-.283 1.738-.399 1.813-6.922 4.458-11.492 4.662-14.894 5.717-19.389 6.015l-4.168.276.23-1.46z" transform="matrix(.26582 0 0 .30023 -69.245 -72.124)"/><path d="M367.14 385.48c-5.674-.841-16.083-2.966-19.776-4.037-5.314-1.54-12.591-4.876-16.642-7.629-9.396-6.384-13.096-12.249-16.974-26.904-1.525-5.764-1.535-5.877-1.205-14.9.98-26.8 4.009-43.056 10.415-55.91 2.949-5.916 4.127-7.691 7.87-11.85l2.879-3.2 9.645 4.99c5.306 2.745 11.805 5.862 14.444 6.928l4.799 1.936 7.576-.108c4.167-.06 11.213-.338 15.657-.62 17.606-1.114 30.987-1.447 40.093-.997 5.106.252 9.41.585 9.563.739.154.154-.525 1.128-1.51 2.164-6.23 6.56-10.083 13.768-18.653 34.9-5.7 14.054-6.496 17.303-9.05 36.938-.85 6.528-1.646 12.21-1.77 12.627-.124.417-.338 1.931-.474 3.365-.303 3.18-1.67 6.748-4.402 11.487-2.648 4.593-3.649 5.675-6.676 7.215-4.785 2.436-6.663 2.788-15.708 2.943-4.722.08-9.268.046-10.102-.078z" fill="#8aa05d" transform="matrix(.26582 0 0 .30023 -69.245 -72.124)"/><path fill="#08a" d="M407.55 405.96c-30.566-2.507-58.144-6.87-79.802-12.626-9.692-2.575-21.11-6.382-26.41-8.805-4.71-2.153-4.395-1.349-3.655-9.331 1.245-13.423 1.625-23.073 2.04-51.77.255-17.706.691-32.636 1.026-35.103 1.718-12.665 6.128-22.802 13.238-30.431 1.948-2.09 2.496-2.4 4.258-2.4 2.257 0 5.783 1.115 10.928 3.454l3.444 1.566-3.335 3.12c-8.716 8.153-15.405 23.057-18.145 40.424-2.317 14.687-2.276 21.555.214 36.29 1.896 11.218 3.102 14.923 7.59 23.325 6.64 12.428 12.336 18.41 21.833 22.92 6.436 3.056 9.4 3.45 25.107 3.345 14.103-.094 17.331-.409 22.13-2.156 6.742-2.456 12.538-8.012 16.027-15.362 3.428-7.222 5.002-14.15 6.311-27.78 1.555-16.178 5.558-29.581 14.827-49.64 1.834-3.968 3.334-7.41 3.334-7.647 0-.323 7.88-11.938 8.902-13.12.21-.243 6.525 1.41 8.145 2.131 1.309.583 1.506 1.355.346 1.355-.435 0-2.006 1.215-3.491 2.7-5.245 5.244-10.065 17.116-14.902 36.696-5.732 23.2-10.437 56.57-11.445 81.154l-.338 8.245-1.563-.07c-.86-.038-3.836-.256-6.614-.484z" transform="matrix(.26582 0 0 .30023 -69.245 -72.124)"/><g><path d="M292.86 407.36c15.15-86.55-5.79-123.5 22.14-151.43 6.434-6.434 38.928 18.571 50.714 18.571 26.029 0 79.422-8.299 87.143 7.143 3.782 7.565-3.571 55.16-3.571 69.286 0 30.775-.414 46.207-7.5 77.857-7.632 3.423-13.375 5.43-24.875 6.293-32.231-8.976-119.29-20.314-124.05-27.721z" stroke="#000" fill="none" transform="matrix(.26583 0 0 .30023 -27.622 -31.828)"/><path d="M363.64 274.33c-.005-2.965.49-3.074 1.005-5.96 1.125-5.052 3.302-9.842 6.456-13.95 1.697-2.382 3.646-4.565 5.91-6.418 4.296-4.332 8.144-9.283 13.53-12.35 4.43-2.625 10.08-4.386 15.085-2.368 5.342 2.133 7.664 8.224 7.736 13.604.047 6.896-3.245 18.675-4.79 25.296-3.708 1.075-5.995-.787-9.67.887 1.402-5.883 2.805-8.884 3.536-14.916.498-4.51-.278-9.719-3.792-12.906-3.621-3.075-8.828-2.182-12.84-.437-4.373 2.016-8.279 5.095-11.343 8.789 4.11-3.732 7.822-7.903 11.687-11.893-4.832 4.94-8.917 10.892-10.463 17.722-.574 2.794-2.924 11.668-3.61 14.419-3.612 1.128-4.636.047-8.438.48z" transform="matrix(.26583 0 0 .30023 -27.622 -31.828)"/><path d="M330.76 263.94c-4.324 3.445 2.072-2.536-3.397 3.59-14.145 20.584-14.33 46.485-15.552 70.471 1.634 39.792 35.83 45.664 60.51 48.424 9.264.18 19.818-.288 26.518-7.65-6.432 7.488 6.985-9.757 5.515-15.235 3.154-15.863 2.748-32.492 9.34-47.573 6.129-14.522 11.087-30.505 22.526-41.828 4.205-2.902-8.023 10.412-8.577 14.565-8.707 18.28-16.972 37.435-17.829 57.973-1.477 13.465-3.61 28.762-15.475 37.32-10.434 8.055-24.415 4.99-36.63 5.794-30.859.236-45.295-30.038-48.243-66.052 1.17-19.935 4.164-41.212 17.283-57.116 2.255-2.513 9.59-9.119 4.012-2.683z" stroke="#0cf" fill="#0cf" transform="matrix(.26583 0 0 .30023 -27.622 -31.828)"/><path d="M450.71 278.7c-19.713-11.898-38.817 104.12-33.929 156.16M296.79 383.08c27.751 13.501 77.375 21.505 118.57 23.929M447.5 397.72c-11.06 3.437-19.592 10.07-32.143 9.286" stroke="#000" fill="none" transform="matrix(.26583 0 0 .30023 -27.622 -31.828)"/><path fill="#006680" d="M416.87 428.39c-.182-3.392-.332-9.4-.332-13.352v-7.185l3.331-.357c4.777-.512 9.565-1.948 17.63-5.29 3.889-1.611 7.55-3.077 8.136-3.257l1.065-.328-.933 6.198c-.872 5.798-201.57-96.17-4.287 22.748 114.153 68.809-12.226 5.655-21.454 6.677l-2.825.312-.332-6.166h.001z" transform="matrix(.26583 0 0 .30023 -27.622 -31.828)"/><path fill="#006680" d="M411.23 433.2c-7.025-1.875-19.336-4.355-48.74-9.816-33.291-6.184-37.577-7.018-47.77-9.292-11.73-2.617-20.238-5.316-21.05-6.678-.143-.24.18-3.163.717-6.497.537-3.333 1.288-8.41 1.668-11.28.38-2.87.803-5.33.94-5.468.136-.136 1.818.44 3.737 1.283 9.231 4.051 27.549 9.508 42.565 12.679 18.696 3.948 47.004 7.803 65.231 8.882 3.237.192 6.1.49 6.364.662.383.25 1.364 26.956.984 26.784-.055-.025-2.146-.592-4.646-1.26z" transform="matrix(.26583 0 0 .30023 -27.622 -31.828)"/><path fill="#08a" d="M416.76 404.9c.127-.803.363-4.756.524-8.784 1.125-28.16 7.73-69.073 14.838-91.924 6.354-20.425 13.444-29.633 18.739-24.338 3.202 3.202 3.247 11.398.228 41.894-1.479 14.936-1.867 21.41-2.247 37.498-.426 18.006-1.136 32.095-1.834 36.365-.283 1.738-.399 1.813-6.922 4.458-11.492 4.662-14.894 5.717-19.389 6.015l-4.168.276.23-1.46z" transform="matrix(.26583 0 0 .30023 -27.622 -31.828)"/><path d="M367.14 385.48c-5.674-.841-16.083-2.966-19.776-4.037-5.314-1.54-12.591-4.876-16.642-7.629-9.396-6.384-13.096-12.249-16.974-26.904-1.525-5.764-1.535-5.877-1.205-14.9.98-26.8 4.009-43.056 10.415-55.91 2.949-5.916 4.127-7.691 7.87-11.85l2.879-3.2 9.645 4.99c5.306 2.745 11.805 5.862 14.444 6.928l4.799 1.936 7.576-.108c4.167-.06 11.213-.338 15.657-.62 17.606-1.114 30.987-1.447 40.093-.997 5.106.252 9.41.585 9.563.739.154.154-.525 1.128-1.51 2.164-6.23 6.56-10.083 13.768-18.653 34.9-5.7 14.054-6.496 17.303-9.05 36.938-.85 6.528-1.646 12.21-1.77 12.627-.124.417-.338 1.931-.474 3.365-.303 3.18-1.67 6.748-4.402 11.487-2.648 4.593-3.649 5.675-6.676 7.215-4.785 2.436-6.663 2.788-15.708 2.943-4.722.08-9.268.046-10.102-.078z" fill="#f0d" transform="matrix(.26583 0 0 .30023 -27.622 -31.828)"/><path fill="#08a" d="M407.55 405.96c-30.566-2.507-58.144-6.87-79.802-12.626-9.692-2.575-21.11-6.382-26.41-8.805-4.71-2.153-4.395-1.349-3.655-9.331 1.245-13.423 1.625-23.073 2.04-51.77.255-17.706.691-32.636 1.026-35.103 1.718-12.665 6.128-22.802 13.238-30.431 1.948-2.09 2.496-2.4 4.258-2.4 2.257 0 5.783 1.115 10.928 3.454l3.444 1.566-3.335 3.12c-8.716 8.153-15.405 23.057-18.145 40.424-2.317 14.687-2.276 21.555.214 36.29 1.896 11.218 3.102 14.923 7.59 23.325 6.64 12.428 12.336 18.41 21.833 22.92 6.436 3.056 9.4 3.45 25.107 3.345 14.103-.094 17.331-.409 22.13-2.156 6.742-2.456 12.538-8.012 16.027-15.362 3.428-7.222 5.002-14.15 6.311-27.78 1.555-16.178 5.558-29.581 14.827-49.64 1.834-3.968 3.334-7.41 3.334-7.647 0-.323 7.88-11.938 8.902-13.12.21-.243 6.525 1.41 8.145 2.131 1.309.583 1.506 1.355.346 1.355-.435 0-2.006 1.215-3.491 2.7-5.245 5.244-10.065 17.116-14.902 36.696-5.732 23.2-10.437 56.57-11.445 81.154l-.338 8.245-1.563-.07c-.86-.038-3.836-.256-6.614-.484z" transform="matrix(.26583 0 0 .30023 -27.622 -31.828)"/></g><g><path d="M292.86 407.36c15.15-86.55-5.79-123.5 22.14-151.43 6.434-6.434 38.928 18.571 50.714 18.571 26.029 0 79.422-8.299 87.143 7.143 3.782 7.565-3.571 55.16-3.571 69.286 0 30.775-.414 46.207-7.5 77.857-7.632 3.423-13.375 5.43-24.875 6.293-32.231-8.976-119.29-20.314-124.05-27.721z" stroke="#000" fill="none" transform="matrix(.26582 0 0 .30023 -74.096 -42.885)"/><path d="M363.64 274.33c-.005-2.965.49-3.074 1.005-5.96 1.125-5.052 3.302-9.842 6.456-13.95 1.697-2.382 3.646-4.565 5.91-6.418 4.296-4.332 8.144-9.283 13.53-12.35 4.43-2.625 10.08-4.386 15.085-2.368 5.342 2.133 7.664 8.224 7.736 13.604.047 6.896-3.245 18.675-4.79 25.296-3.708 1.075-5.995-.787-9.67.887 1.402-5.883 2.805-8.884 3.536-14.916.498-4.51-.278-9.719-3.792-12.906-3.621-3.075-8.828-2.182-12.84-.437-4.373 2.016-8.279 5.095-11.343 8.789 4.11-3.732 7.822-7.903 11.687-11.893-4.832 4.94-8.917 10.892-10.463 17.722-.574 2.794-2.924 11.668-3.61 14.419-3.612 1.128-4.636.047-8.438.48z" transform="matrix(.26582 0 0 .30023 -74.096 -42.885)"/><path d="M330.76 263.94c-4.324 3.445 2.072-2.536-3.397 3.59-14.145 20.584-14.33 46.485-15.552 70.471 1.634 39.792 35.83 45.664 60.51 48.424 9.264.18 19.818-.288 26.518-7.65-6.432 7.488 6.985-9.757 5.515-15.235 3.154-15.863 2.748-32.492 9.34-47.573 6.129-14.522 11.087-30.505 22.526-41.828 4.205-2.902-8.023 10.412-8.577 14.565-8.707 18.28-16.972 37.435-17.829 57.973-1.477 13.465-3.61 28.762-15.475 37.32-10.434 8.055-24.415 4.99-36.63 5.794-30.859.236-45.295-30.038-48.243-66.052 1.17-19.935 4.164-41.212 17.283-57.116 2.255-2.513 9.59-9.119 4.012-2.683z" stroke="#0cf" fill="#0cf" transform="matrix(.26582 0 0 .30023 -74.096 -42.885)"/><path d="M450.71 278.7c-19.713-11.898-38.817 104.12-33.929 156.16M296.79 383.08c27.751 13.501 77.375 21.505 118.57 23.929M447.5 397.72c-11.06 3.437-19.592 10.07-32.143 9.286" stroke="#000" fill="none" transform="matrix(.26582 0 0 .30023 -74.096 -42.885)"/><path fill="#006680" d="M416.87 428.39c-.182-3.392-.332-9.4-.332-13.352v-7.185l3.331-.357c4.777-.512 9.565-1.948 17.63-5.29 3.889-1.611 7.55-3.077 8.136-3.257l1.065-.328-.933 6.198c-.872 5.798-201.57-96.17-4.287 22.748 114.153 68.809-12.226 5.655-21.454 6.677l-2.825.312-.332-6.166h.001z" transform="matrix(.26582 0 0 .30023 -74.096 -42.885)"/><path fill="#006680" d="M411.23 433.2c-7.025-1.875-19.336-4.355-48.74-9.816-33.291-6.184-37.577-7.018-47.77-9.292-11.73-2.617-20.238-5.316-21.05-6.678-.143-.24.18-3.163.717-6.497.537-3.333 1.288-8.41 1.668-11.28.38-2.87.803-5.33.94-5.468.136-.136 1.818.44 3.737 1.283 9.231 4.051 27.549 9.508 42.565 12.679 18.696 3.948 47.004 7.803 65.231 8.882 3.237.192 6.1.49 6.364.662.383.25 1.364 26.956.984 26.784-.055-.025-2.146-.592-4.646-1.26z" transform="matrix(.26582 0 0 .30023 -74.096 -42.885)"/><path d="M416.76 404.9c.127-.803.363-4.756.524-8.784 1.125-28.16 7.73-69.073 14.838-91.924 6.354-20.425 13.444-29.633 18.739-24.338 3.202 3.202 3.247 11.398.228 41.894-1.479 14.936-1.867 21.41-2.247 37.498-.426 18.006-1.136 32.095-1.834 36.365-.283 1.738-.399 1.813-6.922 4.458-11.492 4.662-14.894 5.717-19.389 6.015l-4.168.276.23-1.46z" fill="#aa9300" transform="matrix(.26582 0 0 .30023 -74.096 -42.885)"/><path d="M367.14 385.48c-5.674-.841-16.083-2.966-19.776-4.037-5.314-1.54-12.591-4.876-16.642-7.629-9.396-6.384-13.096-12.249-16.974-26.904-1.525-5.764-1.535-5.877-1.205-14.9.98-26.8 4.009-43.056 10.415-55.91 2.949-5.916 4.127-7.691 7.87-11.85l2.879-3.2 9.645 4.99c5.306 2.745 11.805 5.862 14.444 6.928l4.799 1.936 7.576-.108c4.167-.06 11.213-.338 15.657-.62 17.606-1.114 30.987-1.447 40.093-.997 5.106.252 9.41.585 9.563.739.154.154-.525 1.128-1.51 2.164-6.23 6.56-10.083 13.768-18.653 34.9-5.7 14.054-6.496 17.303-9.05 36.938-.85 6.528-1.646 12.21-1.77 12.627-.124.417-.338 1.931-.474 3.365-.303 3.18-1.67 6.748-4.402 11.487-2.648 4.593-3.649 5.675-6.676 7.215-4.785 2.436-6.663 2.788-15.708 2.943-4.722.08-9.268.046-10.102-.078z" fill="#48ff00" transform="matrix(.26582 0 0 .30023 -74.096 -42.885)"/><path fill="#08a" d="M407.55 405.96c-30.566-2.507-58.144-6.87-79.802-12.626-9.692-2.575-21.11-6.382-26.41-8.805-4.71-2.153-4.395-1.349-3.655-9.331 1.245-13.423 1.625-23.073 2.04-51.77.255-17.706.691-32.636 1.026-35.103 1.718-12.665 6.128-22.802 13.238-30.431 1.948-2.09 2.496-2.4 4.258-2.4 2.257 0 5.783 1.115 10.928 3.454l3.444 1.566-3.335 3.12c-8.716 8.153-15.405 23.057-18.145 40.424-2.317 14.687-2.276 21.555.214 36.29 1.896 11.218 3.102 14.923 7.59 23.325 6.64 12.428 12.336 18.41 21.833 22.92 6.436 3.056 9.4 3.45 25.107 3.345 14.103-.094 17.331-.409 22.13-2.156 6.742-2.456 12.538-8.012 16.027-15.362 3.428-7.222 5.002-14.15 6.311-27.78 1.555-16.178 5.558-29.581 14.827-49.64 1.834-3.968 3.334-7.41 3.334-7.647 0-.323 7.88-11.938 8.902-13.12.21-.243 6.525 1.41 8.145 2.131 1.309.583 1.506 1.355.346 1.355-.435 0-2.006 1.215-3.491 2.7-5.245 5.244-10.065 17.116-14.902 36.696-5.732 23.2-10.437 56.57-11.445 81.154l-.338 8.245-1.563-.07c-.86-.038-3.836-.256-6.614-.484z" transform="matrix(.26582 0 0 .30023 -74.096 -42.885)"/></g></pattern><linearGradient id="c" gradientUnits="userSpaceOnUse" x1="373.399" y1="254.872" x2="373.399" y2="435.08"><stop offset="0" stop-color="#5559da"/><stop offset="1" stop-color="#2428a5"/></linearGradient><linearGradient id="d" gradientUnits="userSpaceOnUse" x1="388.501" y1="232.409" x2="388.501" y2="274.382"><stop offset="0" stop-color="#5559da"/><stop offset="1" stop-color="#2428a5"/></linearGradient><linearGradient id="e" gradientUnits="userSpaceOnUse" x1="373.283" y1="261.204" x2="373.283" y2="389.792"><stop offset="0" stop-color="#5559da"/><stop offset="1" stop-color="#2428a5"/></linearGradient><linearGradient id="f" gradientUnits="userSpaceOnUse" x1="433.359" y1="277.85" x2="433.359" y2="434.86"><stop offset="0" stop-color="#5559da"/><stop offset="1" stop-color="#2428a5"/></linearGradient><linearGradient id="g" gradientUnits="userSpaceOnUse" x1="356.075" y1="383.08" x2="356.075" y2="407.009"><stop offset="0" stop-color="#5559da"/><stop offset="1" stop-color="#2428a5"/></linearGradient><linearGradient id="h" gradientUnits="userSpaceOnUse" x1="431.428" y1="397.72" x2="431.428" y2="407.07"><stop offset="0" stop-color="#5559da"/><stop offset="1" stop-color="#2428a5"/></linearGradient><linearGradient id="i" gradientUnits="userSpaceOnUse" x1="421.831" y1="369.637" x2="421.831" y2="459.732"><stop offset="0" stop-color="#5559da"/><stop offset="1" stop-color="#2428a5"/></linearGradient><linearGradient id="j" gradientUnits="userSpaceOnUse" x1="354.799" y1="384.149" x2="354.799" y2="434.46"><stop offset="0" stop-color="#5559da"/><stop offset="1" stop-color="#2428a5"/></linearGradient><linearGradient id="k" gradientUnits="userSpaceOnUse" x1="434.919" y1="278.384" x2="434.919" y2="406.36"><stop offset="0" stop-color="#5559da"/><stop offset="1" stop-color="#2428a5"/></linearGradient><linearGradient id="l" gradientUnits="userSpaceOnUse" x1="373.938" y1="261.051" x2="373.938" y2="385.6"><stop offset="0" stop-color="#5559da"/><stop offset="1" stop-color="#2428a5"/></linearGradient><linearGradient id="m" gradientUnits="userSpaceOnUse" x1="371.96" y1="255.495" x2="371.96" y2="406.514" gradientTransform="matrix(1 -.00313 .004 1 -1.62 1.164)"><stop offset="0" stop-color="#da5555"/><stop offset="1" stop-color="#2428a5"/></linearGradient><linearGradient id="n" gradientUnits="userSpaceOnUse" x1="373.399" y1="254.872" x2="373.399" y2="435.08"><stop offset="0" stop-color="#f3ff00"/><stop offset="1" stop-color="#2428a5"/></linearGradient><linearGradient id="o" gradientUnits="userSpaceOnUse" x1="388.501" y1="232.409" x2="388.501" y2="274.382"><stop offset="0" stop-color="#5559da"/><stop offset="1" stop-color="#2428a5"/></linearGradient><linearGradient id="p" gradientUnits="userSpaceOnUse" x1="373.283" y1="261.204" x2="373.283" y2="389.792"><stop offset="0" stop-color="#5559da"/><stop offset="1" stop-color="#2428a5"/></linearGradient><linearGradient id="q" gradientUnits="userSpaceOnUse" x1="433.359" y1="277.85" x2="433.359" y2="434.86"><stop offset="0" stop-color="#5559da"/><stop offset="1" stop-color="#2428a5"/></linearGradient><linearGradient id="r" gradientUnits="userSpaceOnUse" x1="356.075" y1="383.08" x2="356.075" y2="407.009"><stop offset="0" stop-color="#5559da"/><stop offset="1" stop-color="#2428a5"/></linearGradient><linearGradient id="s" gradientUnits="userSpaceOnUse" x1="431.428" y1="397.72" x2="431.428" y2="407.07"><stop offset="0" stop-color="#5559da"/><stop offset="1" stop-color="#2428a5"/></linearGradient><linearGradient id="t" gradientUnits="userSpaceOnUse" x1="421.831" y1="369.637" x2="421.831" y2="459.732"><stop offset="0" stop-color="#5559da"/><stop offset="1" stop-color="#2428a5"/></linearGradient><linearGradient id="u" gradientUnits="userSpaceOnUse" x1="354.799" y1="384.149" x2="354.799" y2="434.46"><stop offset="0" stop-color="#5559da"/><stop offset="1" stop-color="#2428a5"/></linearGradient><linearGradient id="v" gradientUnits="userSpaceOnUse" x1="434.919" y1="278.384" x2="434.919" y2="406.36"><stop offset="0" stop-color="#5559da"/><stop offset="1" stop-color="#2428a5"/></linearGradient><linearGradient id="w" gradientUnits="userSpaceOnUse" x1="373.938" y1="261.051" x2="373.938" y2="385.6"><stop offset="0" stop-color="#5559da"/><stop offset="1" stop-color="#2428a5"/></linearGradient><linearGradient id="x" gradientUnits="userSpaceOnUse" x1="371.96" y1="255.495" x2="371.96" y2="406.514"><stop offset="0" stop-color="#5559da"/><stop offset="1" stop-color="#ffea00"/></linearGradient><linearGradient id="y" gradientUnits="userSpaceOnUse" x1="373.399" y1="254.872" x2="373.399" y2="435.08"><stop offset="0" stop-color="#5559da"/><stop offset="1" stop-color="#2428a5"/></linearGradient><linearGradient id="z" gradientUnits="userSpaceOnUse" x1="388.501" y1="232.409" x2="388.501" y2="274.382"><stop offset="0" stop-color="#5559da"/><stop offset="1" stop-color="#2428a5"/></linearGradient><linearGradient id="A" gradientUnits="userSpaceOnUse" x1="373.283" y1="261.204" x2="373.283" y2="389.792"><stop offset="0" stop-color="#5559da"/><stop offset="1" stop-color="#2428a5"/></linearGradient><linearGradient id="B" gradientUnits="userSpaceOnUse" x1="433.359" y1="277.85" x2="433.359" y2="434.86"><stop offset="0" stop-color="#5559da"/><stop offset="1" stop-color="#2428a5"/></linearGradient><linearGradient id="C" gradientUnits="userSpaceOnUse" x1="356.075" y1="383.08" x2="356.075" y2="407.009"><stop offset="0" stop-color="#5559da"/><stop offset="1" stop-color="#2428a5"/></linearGradient><linearGradient id="D" gradientUnits="userSpaceOnUse" x1="431.428" y1="397.72" x2="431.428" y2="407.07"><stop offset="0" stop-color="#5559da"/><stop offset="1" stop-color="#2428a5"/></linearGradient><linearGradient id="E" gradientUnits="userSpaceOnUse" x1="421.831" y1="369.637" x2="421.831" y2="459.732"><stop offset="0" stop-color="#5559da"/><stop offset="1" stop-color="#2428a5"/></linearGradient><linearGradient id="F" gradientUnits="userSpaceOnUse" x1="354.799" y1="384.149" x2="354.799" y2="434.46"><stop offset="0" stop-color="#5559da"/><stop offset="1" stop-color="#2428a5"/></linearGradient><linearGradient id="G" gradientUnits="userSpaceOnUse" x1="434.919" y1="278.384" x2="434.919" y2="406.36"><stop offset="0" stop-color="#5559da"/><stop offset="1" stop-color="#2428a5"/></linearGradient><linearGradient id="H" gradientUnits="userSpaceOnUse" x1="373.938" y1="261.051" x2="373.938" y2="385.6"><stop offset="0" stop-color="#5559da"/><stop offset="1" stop-color="#2428a5"/></linearGradient><linearGradient id="I" gradientUnits="userSpaceOnUse" x1="371.96" y1="255.495" x2="371.96" y2="406.514"><stop offset="0" stop-color="#c055da"/><stop offset="1" stop-color="#2428a5"/></linearGradient></defs><path d="M210.401 790.335c.304.691-.074 7.617-1.218 7.617-2.235 2.539-1.161.128-2.438 3.959-.452 1.356-2.413 20.413-4.875 20.413 0 9.665 1.351 22.538 0 31.988-.436 3.057 1.068 6.702-.304 9.446-5.602-.61 6.311.012 11.881.609 8.075.865 14.351.304 22.24.304 3.961-1.575 4.57-2.408 4.57-3.656-1.687-3.679 0-11.884 0-15.842v-4.874c0-1.177.205-4.266.914-4.266.659.305 1.039.914 2.133.914 2.134-1.829 1.828 4.526 1.828 5.18 0 3.5 1.525 14.012-.61 16.146 0 1.383-.304 2.298-.304 3.656 0 1.694 7.773 2.133 9.444 2.133 10.43 0 20.704-2.437 30.77-2.437 1.049 0 3.787.609 2.438.609-.305-1.795.47-12.101 1.218-15.842.051-.254-.093-6.716-.304-7.616-1.869-7.982-1.219-11.19-1.219-17.975 0-1.958.305-3.758.305-5.18 0-3.296-2.133-7.459-2.133-9.139 0-2.359-2.437-3.897-2.437-6.093-.305-1.819-.914-3.181-.914-4.57-1.397-1.702-1.549-1.523-3.351-1.523-.709-.305-.61-2.853-.61-3.352-.647-.952-.304-4.586-.304-5.788 0-2.59-14.881-1.219-17.975-1.219-8.264 0-20.41-.741-28.333 1.523-6.412 1.832-13.724 4.57-20.108 4.57-.304-.525-1.402-.304-.304-.304v.609z" class="clothes" fill="url(#M)"/></svg>