<svg class="bottomOverlay" width="86" height="380" viewBox="202.715 584.407 86.593 380.048" xmlns="http://www.w3.org/2000/svg"><path d="M210.071 796.673c9.36 0 21.727-.795 31.07-2.663 3.523-.705 7.162.887 10.209.887 8.888 0 18.481-.222 26.632-.222M210.958 793.344c8.034 0 16.881-.745 23.969-3.107 3.368-1.123 10.704.191 13.982.443 9.663.744 18.754 1.11 27.963 1.11M210.958 791.124c0-.417.598.319 1.554 0 1.683-.561 4.258-.665 5.992-.665 3.048 0 5.708-1.089 8.433-1.998 3.638-1.212 8.558.181 12.429-1.109 7.799-2.6 17.763-.163 25.966-2.442 3.904-1.084 9.111-3.096 11.762-.444M208.517 801.777c0 .509 6.518-.116 7.102-.222 5.654-1.028 11.076-2.441 16.867-2.441.522 0 4.381-.501 4.882 0 1.512 1.511 9.72 1.186 11.763 1.332 8.899.635 16.109.665 24.412.665.122 0 7.324.635 7.324-.443" stroke="#000" fill="#d8d8d8"/></svg>