<svg class="shirtOverlay" width="86" height="380" viewBox="202.715 584.407 86.593 380.048" xmlns="http://www.w3.org/2000/svg"><g fill="#0be100"><path d="M240.904 688.053zm.29.676c-.34-1.101-1.34-1.908-2.465-2.118-2.491-.534-5.244 1.308-5.545 3.87-.078.56.106 2.073-.804 1.292-1.507-1.415-3.885-1.819-5.737-.85-1.58.73-2.57 2.587-2.09 4.292.386 1.73 2.08 2.634 3.484 3.458 3.438 1.896 7.139 3.368 10.258 5.793.635.14.038-1.11.283-1.51.451-3.863 2.217-7.419 2.87-11.238.141-.995.156-2.051-.253-2.99z"/><path d="M238.242 705.077c-.395-.919-3.032-2.658-6.976-4.601-4.864-2.397-5.568-2.874-6.401-4.343-2.216-3.91 3.484-7.907 7.239-5.077.61.46.61.46.698-.375.46-4.35 6.767-5.957 8.42-2.145.753 1.734.617 3.258-.64 7.178-1.447 4.516-1.834 6.285-1.835 8.399 0 .823-.311 1.417-.505.966zm.138-1.726c.047-1.603.41-3.185 1.596-6.947 1.165-3.694 1.435-5.093 1.261-6.53-.601-4.987-8.053-3.7-8.077 1.394-.005.978-.154 1.025-1.017.32-3.158-2.582-8.038-.312-7.306 3.399.335 1.7 1.477 2.616 6.125 4.915 3.709 1.834 5.322 2.787 6.491 3.834.923.827.89.84.927-.385z"/></g></svg>