<?xml version="1.0" encoding="utf-8"?>
<svg width="86" height="380" viewBox="202.715 584.407 86.5933 380.048" preserveAspectRatio="xMidYMid meet" xmlns="http://www.w3.org/2000/svg">
  <defs id="svgEditorDefs">
    <path id="svgEditorClosePathDefs" class="skin" fill="black" style="stroke-width: 0px; stroke: none;"/>
  </defs>
  <g transform="matrix(0.13118, 0, 0, 0.216305, 502.368225, 667.920166)">
    <path id="path5840" d="M -1943.506 629.148 L -1836.564 763.974 L -1869.005 677.231 C -1870.434 673.386 -1862.436 663.182 -1857.903 672.398 C -1850.021 688.467 -1814.215 721.818 -1792.257 733.55 C -1782.181 738.935 -1773.388 742.792 -1772.711 742.108 C -1770.096 739.473 -1780.593 706.648 -1790.208 687.375 C -1795.794 676.212 -1806.217 659.805 -1813.393 650.927 C -1829.475 631.026 -1825.693 626.355 -1808.614 645.031 C -1786.583 669.137 -1747.793 693.505 -1721.025 700.07 C -1711.049 702.515 -1711.555 700.026 -1725.877 676.052 C -1738.985 654.1 -1755.921 634.099 -1773.649 619.601 C -1794.971 602.148 -1787.003 599.571 -1764.596 616.661 C -1743.837 632.498 -1724.504 641.436 -1693.871 649.326 C -1670.438 655.367 -1661.141 656.371 -1661.258 652.819 C -1661.401 648.336 -1680.443 625.875 -1692.788 615.627 C -1699.804 609.804 -1714.341 599.76 -1725.112 593.312 C -1748.211 579.468 -1762.43 570.691 -1756.439 560.21 C -1696.007 454.383 -1743.166 276.415 -1726.58 232.032 C -1710.943 190.182 -1668.11 207.825 -1658.97 58.91 C -1656.501 18.399 -1680.149 -12.89 -1710.785 -46.609 C -1726.737 -64.15 -1775.014 -104.608 -1775.014 -100.423 C -1764.606 -85.375 -1754.818 -69.991 -1746.414 -53.596 C -1714.913 10.568 -1709.672 72.346 -1730.433 135.116 C -1744.669 178.189 -1765.803 209.369 -1815.105 260.041 C -1865.245 311.571 -1876.327 460.556 -1849.982 486.12 C -1820.09 515.126 -1811.988 491.043 -1797.996 545.452 C -1779.781 616.285 -1915.52 601.235 -1925.84 577.927 L -1949.656 508.164 L -1977.48 554.963 C -2101.856 668.336 -2186.009 520.062 -2080.151 498.502 C -2046.529 454.686 -2058.498 454.415 -2039.129 397.235 C -2021.096 343.997 -2039.514 310.929 -2091.17 256.749 C -2144.196 201.143 -2164.126 160.452 -2175.474 109.227 C -2182.663 76.766 -2184.548 21.865 -2174.052 -11.172 C -2165.087 -39.395 -2149.538 -70.964 -2135.345 -89.73 C -2123.97 -104.757 -2125.775 -103.902 -2157.291 -79.299 C -2199.418 -46.411 -2229.981 -3.29 -2240.808 38.56 C -2247.19 63.19 -2245.298 111.562 -2237.026 135.129 C -2225.794 167.183 -2214.374 188.857 -2186.323 223.517 C -2171.973 240.242 -2168.942 269.991 -2178.556 298.265 C -2201.352 365.311 -2207.351 593.62 -2168.976 557.022 C -2162.969 551.293 -2175.674 579.075 -2199.004 592.948 C -2224.875 608.32 -2254.023 633.852 -2260.809 647.069 L -2265.255 655.745 L -2251.208 653.765 C -2216.964 648.918 -2178.23 632.353 -2155.448 612.818 C -2135.309 595.524 -2135.872 604.957 -2156.112 623.648 C -2166.709 633.444 -2180.207 648.132 -2186.112 656.284 C -2200.174 675.717 -2213.398 698.964 -2211.492 700.871 C -2209.067 703.331 -2189.418 696.081 -2167.517 684.654 C -2155.318 678.293 -2138.413 665.6 -2125.174 652.863 C -2113.047 641.218 -2102.349 632.469 -2101.396 633.43 C -2100.443 634.39 -2106.045 643.561 -2113.826 653.809 C -2130.27 675.426 -2143.451 702.035 -2149.601 725.952 C -2154.596 745.443 -2153.456 746.127 -2134.414 734.991 C -2104.067 717.232 -2064.51 678.861 -2064.51 667.172 C -2064.51 665.309 -2057.667 662.354 -2058.158 663.78 L -2099.761 764.401 L -1989.928 628.324 L -1943.506 629.148 Z" transform="matrix(-0.999842, 0.017756, -0.017756, -0.999842, -3898.524182, 689.260169)" style="fill: rgb(15, 3, 255);"/>
  </g>
</svg>