<?xml version="1.0" encoding="utf-8"?>
<svg width="86" height="380" viewBox="202.715 584.407 86.5933 380.048" preserveAspectRatio="xMidYMid meet" xmlns="http://www.w3.org/2000/svg" xmlns:xlink="http://www.w3.org/1999/xlink">
  <defs id="svgEditorDefs">
    <path id="svgEditorClosePathDefs" class="skin" fill="black" style="stroke-width: 0px; stroke: none;"/>
    <pattern id="pattern-0" x="0" y="0" width="20" height="20" patternUnits="userSpaceOnUse" viewBox="0 0 100 100">
      <g transform="matrix(0.125367, 0, 0, 0.100016, -0.188651, -0.710686)">
        <g id="layer1" transform="translate(0 -52.344)">
          <path id="rect3971-2-3" style="stroke-width:0;fill:#617077" d="m556.91 52.344c-1.1739 27.381-28.547 56.75-61.75 56.75h-39.281c0 19.02-0.39948 33.393 0 53.344-21.144 6.7495-40.052 20.716-55.875 36.188v0.0313c-15.823-15.472-34.731-29.438-55.875-36.188 0.39948-19.951 0-34.324 0-53.344h-39.281c-33.203 0-60.576-29.369-61.75-56.75h-43.094-43.094c-1.1739 27.381-28.547 56.75-61.75 56.75h-39.281c0 19.02-0.39948 33.393 0 53.344-21.138 6.76-40.046 20.72-55.869 36.2v103.72 103.71c15.823 15.472 34.731 29.438 55.875 36.188-0.39948 19.951 0 34.293 0 53.312h39.281c33.203 0 60.576 29.4 61.75 56.781-1.1739 27.381-28.547 56.75-61.75 56.75h-39.281c0 19.02-0.39948 33.393 0 53.344-21.144 6.76-40.052 20.72-55.875 36.2v103.72 103.71c15.823 15.472 34.731 29.438 55.875 36.188-0.39948 19.951 0 34.293 0 53.312h39.281c33.203 0 60.576 29.4 61.75 56.781h43.094 43.094c1.1739-27.381 28.547-56.781 61.75-56.781h39.281c0-19.02 0.39948-33.362 0-53.312 21.144-6.7495 40.052-20.716 55.875-36.188 15.823 15.472 34.731 29.438 55.875 36.188-0.39948 19.951 0 34.293 0 53.312h39.281c33.203 0 60.576 29.4 61.75 56.781h43.094 43.094c1.1739-27.381 28.547-56.781 61.75-56.781h39.281c0-19.02 0.39948-33.362 0-53.312 21.144-6.7495 40.052-20.716 55.875-36.188v-103.72-103.72c-15.823-15.472-34.731-29.438-55.875-36.188 0.39948-19.951 0-34.324 0-53.344h-39.281c-33.203 0-60.576-29.369-61.75-56.75h-43.094-43.094c-1.1739 27.381-28.547 56.75-61.75 56.75h-39.281c0 19.02-0.39948 33.393 0 53.344-21.144 6.7495-40.052 20.716-55.875 36.188-15.823-15.472-34.731-29.438-55.875-36.188 0.39948-19.951 0-34.324 0-53.344h-39.281c-33.203 0-60.576-29.369-61.75-56.75 1.1739-27.381 28.547-56.781 61.75-56.781h39.281c0-19.02 0.39948-33.362 0-53.312 21.144-6.7495 40.052-20.716 55.875-36.188v-0.0313c15.823 15.472 34.731 29.438 55.875 36.188-0.39948 19.951 0 34.293 0 53.312h39.281c33.203 0 60.576 29.4 61.75 56.781h43.094 43.094c1.1739-27.381 28.547-56.781 61.75-56.781h39.281c0-19.02 0.39948-33.362 0-53.312 21.144-6.7495 40.052-20.716 55.875-36.188v-103.72-103.72c-15.823-15.472-34.731-29.438-55.875-36.188 0.39948-19.951 0-34.324 0-53.344h-39.281c-33.203 0-60.576-29.369-61.75-56.75h-43.094-43.094zm43.09 104.1c16.629 13.089 37.992 26.772 59.125 32.906-0.12112 20.274 0 32.234 0 52.188 20.335 0 42.357-1.8365 61.969 6.6875 20.962 8.2392 35.568 31.509 35.469 54.125 0.0996 22.616-14.506 45.886-35.469 54.125-19.612 8.524-41.634 6.6875-61.969 6.6875 0 19.954-0.12112 31.913 0 52.188-21.132 6.1346-42.496 19.817-59.125 32.906-16.629-13.089-37.992-26.772-59.125-32.906 0.12112-20.274 0-32.234 0-52.188-20.335 0-42.357 1.8365-61.969-6.6875-20.962-8.2392-35.568-31.509-35.469-54.125-0.0996-22.616 14.506-45.886 35.469-54.125 19.612-8.524 41.634-6.6875 61.969-6.6875 0-19.954 0.12112-31.913 0-52.188 21.132-6.1346 42.496-19.817 59.125-32.906zm-400 0.0313c16.629 13.089 37.992 26.772 59.125 32.906-0.12112 20.274 0 32.234 0 52.188 20.335 0 42.357-1.8365 61.969 6.6875 20.962 8.2392 35.568 31.509 35.469 54.125 0.0996 22.616-14.506 45.886-35.469 54.125-19.612 8.524-41.634 6.6875-61.969 6.6875 0 19.954-0.12112 31.913 0 52.188-21.132 6.1346-42.496 19.817-59.125 32.906-16.629-13.089-37.992-26.772-59.125-32.906 0.12112-20.274 0-32.234 0-52.188-20.335 0-42.357 1.8365-61.969-6.6875-20.962-8.2392-35.568-31.509-35.469-54.125-0.09961-22.616 14.506-45.886 35.469-54.125 19.612-8.524 41.634-6.6875 61.969-6.6875 0-19.954 0.12112-31.913 0-52.188 21.132-6.1346 42.496-19.817 59.125-32.906zm0 500c16.629 13.089 37.992 26.772 59.125 32.906-0.12112 20.274 0 32.234 0 52.188 20.335 0 42.357-1.8365 61.969 6.6875 20.962 8.2392 35.568 31.509 35.469 54.125 0.0996 22.616-14.506 45.886-35.469 54.125-19.612 8.524-41.634 6.6875-61.969 6.6875 0 19.954-0.12112 31.913 0 52.188-21.132 6.1346-42.496 19.817-59.125 32.906-16.629-13.089-37.992-26.772-59.125-32.906 0.12112-20.274 0-32.234 0-52.188-20.335 0-42.357 1.8365-61.969-6.6875-20.962-8.2392-35.568-31.509-35.469-54.125-0.09961-22.616 14.506-45.886 35.469-54.125 19.612-8.524 41.634-6.6875 61.969-6.6875 0-19.954 0.12112-31.913 0-52.188 21.132-6.1346 42.496-19.817 59.125-32.906zm400 0c16.629 13.089 37.992 26.772 59.125 32.906-0.12112 20.274 0 32.234 0 52.188 20.335 0 42.357-1.8365 61.969 6.6875 20.962 8.2392 35.568 31.509 35.469 54.125 0.0996 22.616-14.506 45.886-35.469 54.125-19.612 8.524-41.634 6.6875-61.969 6.6875 0 19.954-0.12112 31.913 0 52.188-21.132 6.1346-42.496 19.817-59.125 32.906-16.629-13.089-37.992-26.772-59.125-32.906 0.12112-20.274 0-32.234 0-52.188-20.335 0-42.357 1.8365-61.969-6.6875-20.962-8.2392-35.568-31.509-35.469-54.125-0.0996-22.616 14.506-45.886 35.469-54.125 19.612-8.524 41.634-6.6875 61.969-6.6875 0-19.954 0.12112-31.913 0-52.188 21.132-6.1346 42.496-19.817 59.125-32.906z"/>
          <path id="rect4298-7-9-3" style="stroke-width:0;fill:#000000" d="m579.91 52.344c-0.0434 0.39553-0.0738 0.79291-0.0937 1.1875 1.4906 46.374-54.679 86.268-99.938 77.719v52.531c-32.893 4.6202-61.642 24.882-79.875 52.25-18.234-27.357-46.991-47.6-79.875-52.219v-52.531c-45.259 8.5488-101.43-31.345-99.938-77.719-0.02-0.39459-0.0505-0.79197-0.0937-1.1875h-20.094-20.094c-0.0434 0.39553-0.0737 0.79291-0.0937 1.1875 1.4906 46.374-54.679 86.268-99.938 77.719v52.531c-32.898 4.62-61.647 24.88-79.88 52.25v66.312 66.312c18.233 27.368 46.982 47.63 79.875 52.25v52.531c45.259-8.5488 101.43 31.345 99.938 77.719 0.02 0.3946 0.0505 0.792 0.0937 1.1875-0.0434 0.39553-0.0737 0.79291-0.0937 1.1875 1.4906 46.374-54.679 86.268-99.938 77.719v52.531c-32.891 4.63-61.64 24.89-79.873 52.26v66.312 66.312c18.233 27.368 46.982 47.63 79.875 52.25v52.531c45.259-8.5488 101.43 31.345 99.938 77.719 0.02 0.3946 0.0504 0.792 0.0937 1.1875h20.094 20.094c0.0434-0.3955 0.0737-0.7929 0.0937-1.1875-1.4906-46.374 54.679-86.268 99.938-77.719v-52.531c32.893-4.6202 61.642-24.882 79.875-52.25 18.233 27.368 46.982 47.63 79.875 52.25v52.531c45.259-8.5488 101.43 31.345 99.938 77.719 0.02 0.3946 0.0504 0.792 0.0937 1.1875h20.094 20.094c0.0434-0.3955 0.0738-0.7929 0.0937-1.1875-1.4906-46.374 54.679-86.268 99.938-77.719v-52.531c32.893-4.6202 61.642-24.882 79.875-52.25v-66.312-66.312c-18.233-27.368-46.982-47.63-79.875-52.25v-52.531c-45.259 8.5488-101.43-31.345-99.938-77.719-0.02-0.39459-0.0504-0.79197-0.0937-1.1875h-20.094-20.094c-0.0434 0.39553-0.0738 0.79291-0.0937 1.1875 1.4906 46.374-54.679 86.268-99.938 77.719v52.531c-32.893 4.6202-61.642 24.882-79.875 52.25-18.233-27.368-46.982-47.63-79.875-52.25v-52.531c-45.259 8.5488-101.43-31.345-99.938-77.719-0.02-0.39459-0.0504-0.79197-0.0937-1.1875 0.0434-0.3955 0.0737-0.7929 0.0937-1.1875-1.4906-46.374 54.679-86.268 99.938-77.719v-52.531c32.893-4.6202 61.642-24.882 79.875-52.25 18.234 27.357 46.991 47.6 79.875 52.219v52.531c45.259-8.5488 101.43 31.345 99.938 77.719 0.02 0.3946 0.0504 0.792 0.0937 1.1875h20.094 20.094c0.0434-0.3955 0.0738-0.7929 0.0937-1.1875-1.4906-46.374 54.679-86.268 99.938-77.719v-52.531c32.893-4.6202 61.642-24.882 79.875-52.25v-66.312-66.312c-18.233-27.368-46.982-47.63-79.875-52.25v-52.531c-45.259 8.5488-101.43-31.345-99.938-77.719-0.02-0.39459-0.0504-0.79197-0.0937-1.1875h-20.094-20.094zm20.09 66.966c18.275 26.257 47.89 46.363 80.125 51.5v50.625c10.555 0 21.866 0.33351 32.531 1.9062 38.136 4.82 67.269 41.349 67.688 79-0.41855 37.651-29.552 74.18-67.688 79-10.66 1.57-21.97 1.9-32.53 1.9v50.625c-32.235 5.1366-61.85 25.243-80.125 51.5-18.275-26.257-47.89-46.363-80.125-51.5v-50.625c-10.555 0-21.866-0.33351-32.531-1.9062-38.136-4.82-67.269-41.349-67.688-79 0.41855-37.651 29.552-74.18 67.688-79 10.665-1.5727 21.976-1.9062 32.531-1.9062v-50.625c32.235-5.1366 61.85-25.243 80.125-51.5zm-400 0.0313c18.275 26.257 47.89 46.363 80.125 51.5v50.625c10.555 0 21.866 0.33351 32.531 1.9062 38.136 4.82 67.269 41.349 67.688 79-0.41855 37.651-29.552 74.18-67.688 79-10.665 1.5727-21.976 1.9062-32.531 1.9062v50.625c-32.235 5.1366-61.85 25.243-80.125 51.5-18.275-26.257-47.89-46.363-80.125-51.5v-50.625c-10.555 0-21.866-0.33351-32.531-1.9062-38.136-4.82-67.269-41.349-67.688-79 0.41855-37.651 29.552-74.18 67.688-79 10.665-1.5727 21.976-1.9062 32.531-1.9062v-50.625c32.235-5.1366 61.85-25.243 80.125-51.5zm0 500c18.275 26.257 47.89 46.363 80.125 51.5v50.625c10.555 0 21.866 0.33351 32.531 1.9062 38.136 4.82 67.269 41.349 67.688 79-0.41855 37.651-29.552 74.18-67.688 79-10.665 1.5727-21.976 1.9062-32.531 1.9062v50.625c-32.235 5.1366-61.85 25.243-80.125 51.5-18.275-26.257-47.89-46.363-80.125-51.5v-50.625c-10.555 0-21.866-0.33351-32.531-1.9062-38.136-4.82-67.269-41.349-67.688-79 0.41855-37.651 29.552-74.18 67.688-79 10.665-1.5727 21.976-1.9062 32.531-1.9062v-50.625c32.235-5.1366 61.85-25.243 80.125-51.5zm400 0c18.275 26.257 47.89 46.363 80.125 51.5v50.625c10.555 0 21.866 0.33351 32.531 1.9062 38.136 4.82 67.269 41.349 67.688 79-0.41855 37.651-29.552 74.18-67.688 79-10.665 1.5727-21.976 1.9062-32.531 1.9062v50.625c-32.235 5.1366-61.85 25.243-80.125 51.5-18.275-26.257-47.89-46.363-80.125-51.5v-50.625c-10.555 0-21.866-0.33351-32.531-1.9062-38.136-4.82-67.269-41.349-67.688-79 0.41855-37.651 29.552-74.18 67.688-79 10.665-1.5727 21.976-1.9062 32.531-1.9062v-50.625c32.235-5.1366 61.85-25.243 80.125-51.5z"/>
        </g>
      </g>
    </pattern>
    <pattern id="pattern-0-0" patternTransform="matrix(1, 0, 0, 1, 233.902222, 718.646851)" xlink:href="#pattern-0"/>
    <radialGradient id="radialGradient13053" gradientUnits="userSpaceOnUse" cy="814.71" cx="534.81" gradientTransform="matrix(1 0 0 1.0405 0 -33.029)" r="8.5997">
      <stop id="stop5588-1" style="stop-color:#252525" offset="0"/>
      <stop id="stop6687" style="stop-color:#754110" offset="0.2085"/>
      <stop id="stop6683" style="stop-color:#563e20" offset="0.5304"/>
      <stop id="stop6685" style="stop-color:#322f2d" offset="0.6862"/>
      <stop id="stop5590-1" style="stop-color:#2b2a2a" offset="1"/>
    </radialGradient>
    <linearGradient id="linearGradient13055" y2="279.8" gradientUnits="userSpaceOnUse" x2="296" gradientTransform="translate(-11 -7)" y1="257.8" x1="296">
      <stop id="stop6124-1" style="stop-color:#e4e4cd" offset="0"/>
      <stop id="stop6126-6" style="stop-color:#858585" offset="1"/>
    </linearGradient>
  </defs>
  <path d="M 219.708 687.434 C 222.637 693.526 237.647 725.607 232.687 733.129 C 227.728 740.651 210.468 761.085 215.629 772.578 C 220.791 784.072 269.579 773.053 272.796 773.049 C 276.015 773.044 254.719 735.004 256.731 732.065 C 258.743 729.124 258.018 733.192 260.034 719.071 C 262.05 704.95 261.705 707.727 261.732 704.952 C 261.759 702.177 264.51 701.716 268.182 695.995 C 276.335 685.238 254.397 667.684 247.277 690.986 C 240.157 714.288 254.383 660.656 219.708 687.434 Z" id="path-1" class="skin" style="stroke: none; stroke-width: 0px; fill: url(#pattern-0-0);"/>
  <g transform="matrix(0.595953, 0, 0, 0.595953, 202.10202, 654.286804)">
    <g id="g-1" transform="translate(-303 -460.36)">
      <g id="g12970" transform="matrix(0.8, 0, 0, 0.85714, 1341.800049, 310.440002)">
        <g id="g13015" transform="translate(-1502.5 -2.8877)">
          <path id="path12787" style="fill:url(#radialGradient13053)" d="m543.41 814.71c0 4.942-3.8502 8.9484-8.5997 8.9484s-8.5997-4.0063-8.5997-8.9484 3.8502-8.9484 8.5997-8.9484 8.5997 4.0063 8.5997 8.9484z" transform="matrix(1.8249 0 0 1.6891 -682 -1114.3)"/>
          <path id="path12974" d="m285 250.8c-1.662 0-3 1.338-3 3v3c0 1.662 1.338 3 3 3h4c0.0768 0 0.1434-0.0256 0.21875-0.0312-0.12174 0.327-0.21875 0.66071-0.21875 1.0312v3h-4c-1.662 0-3 1.338-3 3v3c0 1.662 1.338 3 3 3h4c1.662 0 3-1.338 3-3v-3h4v3c0 1.662 1.338 3 3 3h4c1.662 0 3-1.338 3-3v-3c0-1.662-1.338-3-3-3h-4v-3c0-0.37049-0.097-0.7042-0.21875-1.0312 0.0754 0.006 0.14191 0.0312 0.21875 0.0312h4c1.662 0 3-1.338 3-3v-3c0-1.662-1.338-3-3-3h-4c-1.662 0-3 1.338-3 3v3c0 0.37049 0.097 0.7042 0.21875 1.0312-0.0754-0.006-0.14191-0.0312-0.21875-0.0312h-4c-0.0768 0-0.1434 0.0256-0.21875 0.0312 0.12174-0.327 0.21875-0.66071 0.21875-1.0312v-3c0-1.662-1.338-3-3-3h-4z" style="fill:url(#linearGradient13055)"/>
          <path id="path12976" d="m305.78 226.91-16.78 9.68v1.41h-2.4375l-4.5312 2.625c-0.01 0.13-0.03 0.25-0.03 0.38v3c0 0.39126 0.0837 0.75163 0.21875 1.0938l16.78-9.68v-0.41c0-0.37049-0.097-0.7042-0.21875-1.0312 0.0754 0.006 0.14191 0.0312 0.21875 0.0312h2.4375l4.5312-2.625c0.01-0.13 0.03-0.25 0.03-0.38v-3c0-0.39126-0.0837-0.75163-0.21875-1.0938z" style="opacity:.2;fill:#ffffff" transform="translate(0 25.797)"/>
          <path id="path12978" d="m304.41 225.38-8.41 4.84v0.78c0 0.37049 0.097 0.7042 0.21875 1.0312-0.08 0-0.14-0.03-0.22-0.03h-3.0938l-3.75 2.1875c-0.09 0.26-0.16 0.52-0.16 0.81v1.5938l16.781-9.6875c-0.26112-0.66137-0.7541-1.1985-1.375-1.5312zm-19.41 12.62c-1.5311 0-2.7804 1.1467-2.9688 2.625l4.53-2.62h-1.56z" style="opacity:.1;fill:#1e1e1e" transform="translate(0 25.797)"/>
          <path id="path12980" d="m305.97 231.38-4.53 2.62h1.56c1.5311 0 2.7804-1.1467 2.9688-2.625zm-6.97 4.03l-16.781 9.6875c0.26112 0.66137 0.7541 1.1985 1.375 1.5312l8.4-4.85v-0.78h1.3438l5.6562-3.25v-2.3438z" style="opacity:.3;fill:#000000" transform="translate(0 25.797)"/>
          <path id="path12982" d="m299 237.75-5.6562 3.25h2.6562v0.75l6.5312-3.75h-3.5312v-0.25zm-7 4.0312-8.4062 4.8438c0.43 0.23 0.9 0.38 1.41 0.38h1.9375l5.0625-2.9062c0.001-0.0322 0-0.0613 0-0.0937v-2.2188z" style="opacity:.3;fill:#ffffff" transform="translate(0 25.797)"/>
        </g>
      </g>
    </g>
  </g>
</svg>