<svg class="shirtOverlay" width="86" height="380" viewBox="202.715 584.407 86.593 380.048" xmlns="http://www.w3.org/2000/svg"><defs id="svgEditorDefs"><style></style></defs><g id="g7862-2-2-8" transform="matrix(.13372 .2707 -.2939 .3695 -218.293 410.1)" fill="#dcf575"><path id="path7842-0-7-4" d="M1960.388-639.364l-17.922 8.575-12.166.343-27.863-7.203 3.139-1.143 26.163 6.402 1.047-1.6-21.976-6.174 3.662-1.144 21.977 6.632 2.092-1.372-18.837-6.632 3.925-1.143 19.36 6.631 3.924-.914-18.052-6.86 2.616-1.601 18.315 7.318 3.139-1.373-17.005-7.317 4.971-.915 14.913 7.204 2.354-.801-14.977-7.775 2.419-.8 14.848 7.832 3.008-.915-14.259-7.774 2.42-.858 14.128 7.832 3.14-.686-13.146-8.118 3.074-1.029 12.427 7.775 3.01-1.201-13.213-7.889 3.27-1.143 13.473 8.232 2.747-1.143-13.605-7.661 3.01-1.486 13.735 8.232 3.662-1.143-15.697-7.775 3.271-.915 15.305 7.318 3.793-1.029-16.221-6.632 3.009-.8 16.352 6.288 2.878-1.372-16.352-5.716 3.009-1.487 16.613 6.403 2.355-1.143-14.913-5.488 3.009-1.258 14.52 6.06 2.616-.686-14.783-5.831 2.617-1.144 14.52 5.946 2.485-1.029-14.258-5.488 2.879-1.144 14.39 5.717 3.139-1.143-14.65-5.26 2.092-.8 14.913 5.374 2.485-1.144-14.258-5.03 2.747-.915 13.997 4.916 3.336-.914-14.715-4.802 2.289-1.144 14.847 5.088 2.813-.857-14.716-4.974 2.354-.972 14.586 4.802 2.936-1.192-15.355-4.608 2.868-1.132 15.54 4.689 2.59-1.051-14.985-4.365 2.405-1.051 15.263 4.527 2.312-1.051-14.892-4.366 2.405-1.051 15.17 4.447 2.312-.809-15.076-4.608 2.22-1.132 15.077 4.528 2.682-.809-15.17-4.608 1.943-.889 15.17 4.446 1.48-.889-14.615-4.204 2.96-1.375 17.02 5.66z"/><path id="path7842-7-5-2-6" d="M2125.517-651.319l15.75-8.416 10.636-.235 8.66-1.589 21.283 7.475-1.997 1.191-15.354-5.186-2.858.634 14.544 4.923-2.755 1.116-22.801-6.634-.93 1.593 19.145 6.367-3.214 1.111-19.139-6.826-1.843 1.354 16.396 6.797-3.443 1.109-16.854-6.803-3.439.88 15.708 7.02-2.302 1.577-15.931-7.479-2.758 1.344 14.788 7.468-4.354.87-12.96-7.334-2.067.779 13.012 7.907-2.122.779-12.898-7.963-2.639.888 12.384 7.901-2.123.836-12.269-7.957-2.751.659 11.408 8.233-2.697 1.002-10.782-7.884-2.641 1.173 11.467 8.007-2.871 1.113-11.691-8.35-2.413 1.118 11.813 7.781-2.645 1.459-11.92-8.353-3.213 1.111 13.642 7.913-2.868.886-13.302-7.452-3.327.995 14.111 6.774-2.637.774-14.227-6.432-2.53 1.346 14.234 5.861-2.645 1.46-14.455-6.55-2.07 1.123 12.978 5.619-2.642 1.231-12.63-6.187-2.292.662 12.86 5.962-2.298 1.12-12.631-6.073-2.182 1.007 12.406 5.613-2.528 1.118-12.517-5.843-2.756 1.116 12.751 5.388-1.836.782-12.979-5.506-2.185 1.122 12.412 5.156-2.411.89-12.182-5.04-2.925.886 12.813 4.932-2.012 1.123-12.925-5.219-2.468.832 12.812 5.104-2.067.951-12.7-4.931-2.577 1.166 13.373 4.744-2.519 1.107-13.533-4.827-2.274 1.028 13.051 4.498-2.112 1.03-13.293-4.662-2.031 1.03 12.971 4.498-2.113 1.03-13.213-4.581-2.03.788 13.13 4.741-1.95 1.112-13.131-4.659-2.353.784 13.212 4.742-1.707.872-13.213-4.581-1.302.876 12.73 4.333-2.601 1.349-14.818-5.81z" transform="matrix(.9568 .05951 -.14553 1.0361 -1.172 -102.416)"/></g><path id="path4113" d="M237.37 734.852l3.105-11.079 3.018 8.72 2.588-11.22 3.487 6.354 1.682-10.869 3.194 5.019 1.268-9.154 1.703 1.719-.045-2.44-2.077-2.04-1.271 8.052-3.326-5.226-1.79 10.045-2.843-7.01-2.635 11.03-3.12-8.08-2.942 11.595-2.532-9.251-.34 3.592 2.876 10.243z" transform="rotate(21.063 245.954 722.357)" fill="#dcf575"/></svg>