<svg class="shirtOverlay" width="86" height="380" viewBox="202.715 584.407 86.593 380.048" preserveAspectRatio="xMidYMax" xmlns="http://www.w3.org/2000/svg"><path class="clothes" fill="none" d="M202.715 584.431h86.593V700.24h-86.593z"/><path class="clothes" fill="none" d="M-403.988 499.579h1300v550h-1300z"/><g fill="#00ff8c"><path d="M263.179 710.136l-14.868-7.715-14.871 7.71 2.843-16.335-12.028-11.572 16.625-2.38 7.438-14.86 7.432 14.864 16.624 2.386-12.032 11.566z"/><path d="M255.8 679.753l-7.61 10.222 24.134-7.797z"/><path d="M248.313 689.757v12.697l-15.021 7.606zM248.313 689.757l14.77 19.916-2.772-16.129z"/><path d="M224.353 682.195l23.962 7.563-7.404-9.983z"/><path d="M248.313 689.757v-24.74l7.391 14.752zM233.446 709.855l2.79-16.265 12.08-3.833z"/></g></svg>