<svg class="shirtOverlay" width="86" height="380" viewBox="202.715 584.407 86.593 380.048" preserveAspectRatio="xMidYMax" xmlns="http://www.w3.org/2000/svg"><defs id="svgEditorDefs"><style id="style3891"></style></defs><path id="svgEditorBackground" class="clothes" fill="none" d="M202.715 584.431h86.593V700.24h-86.593z"/><path id="rect-1" class="clothes" fill="none" d="M-403.988 499.579h1300v550h-1300z"/><g fill="#231F20" stroke="#fff" stroke-width="8.444"><path d="M77.89.735c3.92-.91 8.669-1.054 12.53.011 1.526.405 3.467 1.059 3.023 2.075-2.607 9.396-7.693 18.551-11.575 27.821-4.41 10.81-8.26 21.677-12.465 32.507-5.152 13.552-10.527 27.084-16.973 40.494-.587 1.2-1.094 2.444-2.396 3.512-.513.41-1.3.809-2.327.803-1.794.036-3.631.104-5.4-.078-2.146-.487-3.668-1.438-5.1-2.347-1.01-.672-2.15-1.413-2.018-2.309.384-10.789 1.363-21.587.537-32.383-.064-1.725-.238-3.471-.603-5.167-1.011 1.019-1.603 2.117-2.332 3.19-2.946 4.859-5.147 9.823-7.146 14.799-2.188 5.338-4.199 10.692-6.394 16.031-.772 1.72-1.594 3.483-3.454 4.998-1.083.902-2.931 1.645-5.091 1.662-2.558.117-5.017-.337-7.294-.874-1.162-.281-2.368-.552-3.291-1.017-.209-.837-.094-1.685-.089-2.526.112-2.681.004-5.366.378-8.046.092-6.072.201-12.14.213-18.21.008-.85.186-1.694.189-2.541 0-7.343-.004-14.681.004-22.021.013-.991-.202-1.976-.198-2.965 0-7.342.01-14.681-.004-22.022.378-5.645.146-11.299.345-16.946.256-1.672 2.005-3.169 3.481-4.653C6.461 2.743 9.143.844 13.302.297c2.69-.326 6.376.14 7.147 1.66 2.628 4.264 1.79 8.787 1.79 13.185-.411 2.532-.294 5.073-.448 7.612-.411 2.323-.261 4.658-.402 6.988-.42 2.754-.242 5.521-.416 8.279-.143.928.398 1.864 1.652 2.558.848-.233 1.02-.76 1.305-1.179 4.946-9.524 8.729-19.187 13.123-28.774 1.262-2.378 1.645-5.074 5.09-6.969 1.184-.755 3.403-.987 5.086-.559 2.539 1.071 3.133 2.84 3.472 4.413.192 1.577.134 3.16.267 4.739.42 3.286.258 6.582.545 9.87.332 7.343.239 14.687.248 22.03.004 1.095-.134 2.204.352 3.281.533.123 1.1.212 1.678.269.615-.853.885-1.756 1.316-2.636 5.864-12.46 10.43-25.057 15.423-37.61.729-1.544 1.063-3.149 2.279-4.623.892-1.071 3.124-1.606 5.081-2.079zM149.5.085c4.447-.292 9.167.146 12.896 1.488 5.762 2.037 9.777 5.125 12.896 8.313 6.778 7.19 9.982 15.166 11.086 23.118 1.074 7.099.621 14.225-.133 21.326-.291 2.773-.854 5.553-1.955 8.274-3.779 9.231-7.418 18.625-15.518 27.146-3.476 4.102-7.911 8.02-13.74 11.337-4.381 2.501-9.605 4.635-15.534 6.045-2.204.476-4.526.977-6.967.848-2.088-.112-4.221-.191-6.196-.585-3.411-.684-6.521-1.713-9.439-2.845-2.977-1.226-5.146-2.863-7.523-4.383-4.412-2.915-7.471-6.323-9.629-9.847-5.492-9.24-7.037-19.037-5.869-28.667.154-2.414.952-4.804 1.064-7.217 1.7-10.562 5.788-21.073 13.272-30.948 1.995-2.639 4.215-5.232 6.792-7.731 2.655-2.655 5.758-5.21 9.656-7.421 4.952-2.818 10.601-5.401 17.273-7.049 2.4-.579 4.92-1.058 7.56-1.215m-6.83 25.488c-4.008.399-7.021 1.991-9.64 3.51-5.472 3.064-8.475 7.049-10.742 11.001-2.38 4.143-3.762 8.421-4.869 12.702a26.003 26.003 0 0 0-.321 10.505c.774 4.433 2.572 8.918 6.689 12.856 2.449 2.274 6.086 4.64 11.348 5.039 3.418.096 7.273.137 10.119-1.018 4.454-1.755 7.34-4.33 9.729-6.909 7.462-8.13 11-17.193 10.563-26.192.015-4.025-1.424-8.013-3.591-11.865-1.651-2.787-4.158-5.509-8.107-7.612-2.9-1.479-7.08-2.524-11.18-2.017zM281.86 1.208c3.339-.961 7.353-1.496 11.172-1.046 2.013.243 3.989.703 5.487 1.435.922.435.706 1.116.596 1.684-1.201 4.041-2.86 8.041-4.551 12.035-2.438 5.527-5.265 11.006-7.444 16.56-7.024 17.551-13.076 35.195-20.461 52.708-2.437 6.033-5.214 12.031-7.966 18.03-.901 1.636-1.275 3.436-3.347 4.829-.743.561-2.159.548-3.343.554-1.849-.016-3.971.134-5.456-.555-2.195-.956-4.294-2.073-5.418-3.44-.438-1.518-.092-3.07-.006-4.598.411-9.24.978-18.488.44-27.734-.281-1.989-.141-3.993-.65-5.976-1.396 1.42-2.288 2.941-3.171 4.455-5.078 8.99-8.081 18.228-11.877 27.363-.939 2.329-1.667 4.745-3.954 6.856-1.039.979-2.813 1.905-5.139 1.977-2.719.175-5.346-.306-7.755-.886-1.148-.271-2.314-.55-3.241-.995-.122-1.756-.067-3.516.104-5.271 1.214-28.791.181-57.592.72-86.388.163-1.925-.482-3.963 1.188-5.77 2.055-2.424 4.584-5.018 9.302-6.372 2.873-.804 7.658-.633 8.953 1.119 1.928 2.786 1.9 5.778 2.092 8.694-.293 2.75-.232 5.505-.393 8.257-.369 2.396-.288 4.798-.44 7.196-.326 1.76-.215 3.53-.309 5.295.028 2.476-.57 4.942-.323 7.417.03.776.956 1.43 1.857 2.024 1.486-1.226 1.791-2.698 2.537-4.063 4.262-8.531 7.65-17.161 11.622-25.726 1.085-2.181 1.557-4.522 4-6.458a6.768 6.768 0 0 1 4.854-1.521c1.687-.007 2.654.802 3.346 1.465 1.742 1.761 1.486 3.78 1.721 5.688.719 10.865 1.1 21.736.931 32.608.04 1.579-.127 3.166.225 4.74a7.633 7.633 0 0 0 1.851.263c6.576-13.566 11.459-27.315 16.995-40.994.584-1.323.886-2.698 2.022-3.94.63-.702 1.94-1.16 3.24-1.515zM331.31 0c1.531.193 2.76 1.076 4.07 1.712 2.506 1.345 5.399 1.967 8.065 3.031 1.948.653 3.672 1.7 5.609 2.372.996.388 1.861.973 2.843 1.384 1.553.638 2.882 1.654 4.563 2.051 1.109.257 2.262.644 2.961 1.473.736.842.76 2.045.107 2.929-.813 1.156-1.464 2.385-2.322 3.514-.663.907-1.168 1.909-2.018 2.709-1.591 1.539-2.586 3.428-3.801 5.18-.88 1.67-2.138 3.159-3.121 4.783-.751 1.119-1.178 2.367-1.896 3.498-.763 1.274-1.832 2.391-2.602 3.663-.698 1.087-1.122 2.281-1.722 3.406-1.402 2.679-3.223 5.176-4.77 7.789-2.191 4.028-5.449 7.586-7.247 11.776-1.381 3.107-3.563 5.877-5.317 8.828-1.844 3.31-3.559 6.74-6.348 9.565-.359.33-.791.739-1.381.6-1.317-.239-2.645-.766-3.52-1.674-1.021-1.086-.711-2.593-.595-3.876 1.063-5.681 2.463-11.312 3.599-16.981.93-4.851 1.877-9.705 3.213-14.486.542-2.063.934-4.159 1.683-6.176 1.327-3.14 2.455-6.367 2.955-9.69.406-2.643 1.456-5.169 2.034-7.781.496-2.328 1.036-4.648 1.497-6.982.563-3.26 1.43-6.476 2.378-9.667.34-.995.64-1.999 1.1-2.95zM304.9 80.89c2.021-.333 4.189-.472 6.141.221 2.963 1.07 5.274 3.071 7.429 5.061 2.313 2.116 3.45 5.03 3.535 7.897.085 2.492-.484 5.102-2.206 7.163-1.626 1.853-3.893 3.162-5.849 4.734-.731.595-1.555 1.121-2.481 1.469-1.687.669-3.623.636-5.425.447-3.951-1.025-7.753-3.074-9.83-6.21-1.51-2.367-1.693-5.151-1.667-7.793-.026-3.538 1.375-7.079 3.995-9.818 1.55-1.708 3.88-2.855 6.36-3.169z" transform="matrix(.1388 0 0 .2537 225.241 676.983)"/></g></svg>