<svg class="shirtOverlay" width="86" height="380" viewBox="202.715 584.407 86.593 380.048" preserveAspectRatio="xMidYMax" xmlns="http://www.w3.org/2000/svg"><path class="clothes" fill="none" d="M202.715 584.431h86.593V700.24h-86.593z"/><path class="clothes" fill="none" d="M-403.988 499.579h1300v550h-1300z"/><g transform="matrix(.13286 0 0 .14372 225.459 668.18)"><g transform="translate(-142.45 -129.39)"><path fill="#f59" d="M241.38 265.89c-22.464-55.883-57.197-39.15-76.075-31.166-8.079 3.417-7.853 10.274-2.945 19.387-7.784.46-37.568 47.546 2.7 39.755 1.997 31.014 20.173 35.709 29.203 12.516 29.029 10.846-2.434-62.155 36.319-36.319z" color="#000"/><g fill="#800066" color="#000"><path d="M173.65 247.48c-15.35 10.069-8.856 31.828-13.742 33.129-10.492 2.794-6.228-23.114 13.742-33.129zM212.92 236c-16.395-8.26-31.992 8.244-35.562 4.663-7.665-7.69 16.903-16.95 35.562-4.663zM175.64 277.24c-8.26 16.395 8.244 31.992 4.663 35.562-7.689 7.666-16.95-16.903-4.663-35.562zM202.87 252.31c-17.433 5.753-13.377 18.34-18.413 17.891-5.704-.508-3.469-13.386 18.413-17.891zM229.92 257.62c-13.699-12.221-22.571-2.414-24.701-7-2.412-5.195 9.858-9.698 24.701 7zM187.64 290.43c4.072 3.66 8.709 6.548 17.178 3.926-7.329 6.348-13.776 6.69-17.178-3.926z"/></g><path d="M222.03 388.02c4.849-23.434 14.792-35.066 28.632-50.496-15.147-9.171-26.293-28.505-27.202-46.316-.755-14.778 3.476-34.752 33.796-36.109 22.576-1.01 40.507 6.532 55.679-8.125 18.696-18.062 27.517-53.278 80.192-69.614 18.654-5.786 62.827 3.498 65.701 32.668.866 8.792-16.531.314-16.681 4.224-.342 8.926 8.154 16.32 8.244 28.354.203 27.29-13.945 45.169-39.217 43.38-21.408-1.514-13.745-39.267-23.252-44.421-6.29-.49-11.33 13.11-15.882 27.636-1.936 6.179-2.112 9.518-.76 15.05 4.288 17.556-4.921 29.286-16.155 40.607 13.67 19.759 38.822 24.325 59.346 31.408l-28.805 31.408c-21.478-13.247-36.41-30.72-44.943-52.752-22.763 12.677-48.565 16.418-73.054 10.585-11.02 11.31-8.698 33.399-6.767 62.816z" stroke="#340040" stroke-width=".5" fill="#f1e9ff" color="#000"/><path d="M393.99 349.7l-20.219 29.707c3.708 2.924 7.689 5.647 11.898 8.243l28.774-31.418c-6.533-2.255-13.501-4.216-20.453-6.532zm-170.31 31.807c-.588 2.083-1.153 4.213-1.633 6.532l38.883 20.297c-.447-6.813-.926-13.224-1.244-19.208l-36.006-7.62z" fill="#170b28"/><path fill="#de87cd" d="M315.44 244.4a59.498 59.498 0 0 1-2.489 2.566c-15.172 14.658-33.105 7.078-55.68 8.088-1.127.05-2.133.21-3.189.311-1.812 27.925-.512 58.588 37.872 65.557l5.755 26.985c.886 3.698 16.532 1.665 15.398-2.333l-8.166-27.996c18.94-8.168 31.938-37.327 10.498-73.178z" color="#000"/><path fill="#501644" d="M310.62 248.99c-13.001 10.498-28.031 6.476-46.193 6.066.138 19.88 5.6 51.267 29.396 49.07 24.147-2.227 23.864-34.671 16.798-55.135z" color="#000"/><g fill="#405" color="#000"><path d="M259.05 258.14c1.438 0 2.596 1.158 2.596 2.596s-1.158 2.596-2.596 2.596c-1.438 0-2.596-1.158-2.596-2.596s1.158-2.596 2.596-2.596zM259.79 268.83c1.438 0 2.596 1.158 2.596 2.596s-1.158 2.596-2.596 2.596-2.596-1.158-2.596-2.596 1.158-2.596 2.596-2.596zM260.84 278.12c1.438 0 2.596 1.158 2.596 2.596s-1.158 2.596-2.596 2.596c-1.438 0-2.596-1.158-2.596-2.596s1.158-2.596 2.596-2.596zM263.11 288.07c1.438 0 2.596 1.158 2.596 2.596s-1.158 2.596-2.596 2.596-2.596-1.158-2.596-2.596 1.158-2.596 2.596-2.596zM297.22 308.54a2.59 2.59 0 0 1 2.596 2.596c0 1.438-1.158 2.596-2.596 2.596s-2.596-1.158-2.596-2.596 1.158-2.596 2.596-2.596zM286.53 308.05c1.438 0 2.596 1.158 2.596 2.596s-1.158 2.596-2.596 2.596-2.596-1.158-2.596-2.596 1.158-2.596 2.596-2.596zM275.84 302.89c1.438 0 2.596 1.158 2.596 2.596s-1.158 2.596-2.596 2.596-2.596-1.158-2.596-2.596 1.158-2.596 2.596-2.596zM267.85 296.38c1.438 0 2.596 1.158 2.596 2.596s-1.158 2.596-2.596 2.596-2.596-1.158-2.596-2.596 1.158-2.596 2.596-2.596zM307.42 303.63c1.438 0 2.596 1.158 2.596 2.596s-1.158 2.596-2.596 2.596-2.596-1.158-2.596-2.596 1.158-2.596 2.596-2.596zM314.36 295.64c1.438 0 2.596 1.158 2.596 2.596s-1.158 2.596-2.596 2.596-2.596-1.158-2.596-2.596 1.158-2.596 2.596-2.596zM318.6 286.42c1.438 0 2.596 1.158 2.596 2.596s-1.158 2.596-2.596 2.596-2.596-1.158-2.596-2.596a2.59 2.59 0 0 1 2.596-2.596zM320.07 276.47c1.438 0 2.596 1.158 2.596 2.596s-1.158 2.596-2.596 2.596-2.596-1.158-2.596-2.596a2.59 2.59 0 0 1 2.596-2.596zM319.58 266.51c1.438 0 2.596 1.158 2.596 2.596s-1.158 2.596-2.596 2.596-2.596-1.158-2.596-2.596 1.158-2.596 2.596-2.596zM318.35 257.79c1.438 0 2.596 1.158 2.596 2.596s-1.158 2.596-2.596 2.596-2.596-1.158-2.596-2.596 1.158-2.596 2.596-2.596zM314.92 248.57c1.438 0 2.596 1.158 2.596 2.596s-1.158 2.596-2.596 2.596-2.596-1.158-2.596-2.596 1.158-2.596 2.596-2.596z"/></g><path fill="#800066" d="M413.6 179.93s14.579-20.201 22.767-16.017c3.313 1.693-6.843 21.152-6.843 21.152z" color="#000"/><path fill="#c83771" d="M392.82 211.04l-5.6 5.444 12.91 27.296-8.088 4.666c.514 1.685.786 3.411 1.089 5.132 13.949-8.833 40.168-13.109 57.158-12.443-.539-5.824-1.32-7.744-3.5-12.365-11.812 1.664-27.11 3.11-39.816 10.887L392.82 211.04z" color="#000"/><rect transform="rotate(-22.993)" rx="3.888" ry="4.822" height="9.643" width="7.777" y="359.98" x="290.85" fill="#000200 icc-color(Fogra27L-CMYK-Coated-Press, 1, 1, 1, 1)" color="#000"/><path stroke-width="0" fill="#892ca0" d="M416.67 190.09l14.221 13.378s41.042-68.341 38.395-71.925c-2.646-3.584-52.616 58.547-52.616 58.547z"/><g color="#000"><path fill="#f59" d="M405.88 175.74c-4.851-.007-9.256.548-12.754 1.633-36.055 11.182-51.498 31.132-63.691 48.45-25.38 31.251 13.974 47.747 16.098 17.73 14.194 11.891 23.708 10.262 23.019-20.84 7.556 7.603 14.4 10.046 18.664-6.222l12.945 27.298-8.107 4.675c.515 1.685.806 3.404 1.11 5.125 13.948-8.833 40.13-13.113 57.12-12.446-.539-5.824-1.303-7.743-3.483-12.363-11.812 1.664-27.127 3.108-39.833 10.886l-14.154-28.618c3.362-9.06 10.897-15.383 14.252-10.658 4.272 6.017 9.563 7.45 14.75 7.062 9.767-.73 15.247 12.253 18.435 11.373l2.255-.623c-.184-1.17-.298-2.858-.389-3.966.15-3.909 17.586 4.594 16.72-4.199-2.334-23.7-31.936-34.267-52.959-34.295z"/><g fill="#800066"><path d="M328.89 232.48c.73 6.034 1.621 15.407 10.469 16.059-15.75 8.376-13.198-7.987-10.469-16.059zM369.64 197.33c.73 6.034 1.621 15.407 10.469 16.059-15.75 8.376-13.198-7.987-10.469-16.059zM345.84 223c.73 6.034 1.032 13.887 7.98 16.059-12.016.755-10.708-7.987-7.98-16.059zM359.88 226.22c-.364 3.66.607 10.07-4.7 11.949 10.072.595 7.71-6.592 4.7-11.949zM412.55 182.34c2.728 5.432 6.737 13.951 15.284 11.572-11.988 13.21-15.121-3.052-15.284-11.572z"/><path d="M427.83 193.91c5.674 2.18 12.754 5.59 17.927.467-4.835 10.698-12.551 5.94-18.319-.042-.148-.153.392-.425.392-.425zM409.55 190.59c1.088 2.166 2.687 5.564 6.096 4.615-4.782 5.269-6.031-1.217-6.096-4.615z"/></g></g><g color="#000"><path fill="#800066" d="M405.88 208.09c0-.166.869-7.202 1.522-16.178 4.766-15.383 2.169-38.634-4.944-38.57-8.113.073-9.523 23.24-5.733 39.037.735 8.637 1.687 15.372 1.69 15.711z"/><path fill="#c83771" d="M407.36 192.84l-10.576.467c.226 2.582.472 4.443.7 6.532l9.254-.078c.211-2.197.416-4.189.622-6.92z"/></g><g color="#000"><path fill="#000200 icc-color(Fogra27L-CMYK-Coated-Press, 1, 1, 1, 1)" d="M404.98 237.36a6.957 6.957 0 0 1 6.972 6.972 6.957 6.957 0 0 1-6.972 6.972c-3.862 0-6.972-3.11-6.972-6.972s3.11-6.972 6.972-6.972z"/><path fill="#501644" d="M404.98 237.95a6.365 6.365 0 0 1 6.379 6.379 6.365 6.365 0 0 1-6.379 6.379 6.365 6.365 0 0 1-6.379-6.38 6.365 6.365 0 0 1 6.379-6.378z"/></g></g></g></svg>