<?xml version="1.0" encoding="utf-8"?>
<svg class="shirt" width="86" height="380" viewBox="202.715 584.407 86.5933 380.048" preserveAspectRatio="xMidYMax" xmlns="http://www.w3.org/2000/svg">
  <defs id="svgEditorDefs">
    <path id="svgEditorClosePathDefs" fill="black" style="stroke-width: 0px; stroke: none;" class="clothes"/>
    <style id="style3891" type="text/css">.str0 {stroke:black;stroke-width:0.238063}
    .fil0 {fill:black}
    .fil2 {fill:#050707}
    .fil3 {fill:#881846}
    .fil5 {fill:#F6BCD6}
    .fil1 {fill:#F9DD56}
    .fil4 {fill:#FDFCFD}</style>
  </defs>
  <rect id="svgEditorBackground" x="202.71499633789062" y="584.4310302734375" width="86.59329986572266" height="115.80899810791016" style="fill: none; stroke: none;" class="clothes"/>
  <rect id="rect-1" x="-403.988" y="499.579" width="1300" height="550" style="fill: none; stroke: none;" class="clothes"/>
  <g transform="matrix(0.247755, 0, 0, 0.244432, 224.25766, 664.985291)"/>
  <g transform="matrix(0.918562, 0, 0, 0.918562, 250.129761, 691.485657)">
    <title>Thumbs up smiley</title>
    <circle r="19" stroke="black" cy="0" cx="0" stroke-width="2" fill="#efff00"/>
    <circle cy="-5" cx="6" r="2" fill="black"/>
    <circle cy="-5" cx="-6" r="2" fill="black"/>
    <path stroke="black" stroke-width="3" d="m11.31 0a11.31 11.31 0 0 1 -22.62 0" fill="none"/>
    <g stroke-linejoin="round" stroke="black" stroke-width="2" transform="translate(-14 5) rotate(-3)">
      <path d="m4.4-12a3 3 0 0 1 0 6h0.6a2.9 2.9 0 0 1 0 5.8l-0.9 0.2a2.7 2.7 0 0 1 0 5.4l-1.7 0.1a2.3 2.3 0 0 1 0 4.6l-8.4 0.9a3.4 3.4 0 0 1 -2.5 -5 4 4 0 0 1 -0.5 -6 4 4 0 0 1 0.4 -6 4 4 0 0 1 2 -6zm-9.4 0l3-4 0.5-3a3.5 7 0 1 1 5.5 1l0.5 6z" fill="#efff00"/>
      <path stroke-linecap="round" d="m4.4-6h-7m6.7 6h-6.3m4.6 5.5l-4.7 0.2" fill="none"/>
    </g>
  </g>
</svg>