<?xml version="1.0" encoding="utf-8"?>
<svg class="shirt" width="86" height="380" viewBox="202.715 584.407 86.5933 380.048" preserveAspectRatio="xMidYMax" xmlns="http://www.w3.org/2000/svg">
  <defs id="svgEditorDefs">
    <path id="svgEditorClosePathDefs" fill="black" style="stroke-width: 0px; stroke: none;" class="clothes"/>
    <linearGradient id="linearGradient6340" y2="48.755" gradientUnits="userSpaceOnUse" y1="53.414" gradientTransform="translate(-36.374 -31.781)" x2="105.94" x1="97.443">
      <stop id="stop21769-9-7-9" stop-color="#808080" offset="0"/>
      <stop id="stop21771-8-0-1" stop-color="#fff" offset="1"/>
    </linearGradient>
    <linearGradient id="linearGradient5686-0-4" y2="49.164" gradientUnits="userSpaceOnUse" x2="130.06" gradientTransform="translate(-36.374 -31.781)" y1="53.251" x1="135.62">
      <stop id="stop21779-7-6-3" stop-color="#ccc" offset="0"/>
      <stop id="stop21781-6-4-1" stop-color="#fff" offset="1"/>
    </linearGradient>
    <linearGradient id="linearGradient6446" y2="25.727" gradientUnits="userSpaceOnUse" y1="34.474" gradientTransform="translate(-14.402 -20.909)" x2="95.801" x1="95.964">
      <stop id="stop21789-4-6-7" stop-color="#666" offset="0"/>
      <stop id="stop21791-7-9-0" stop-color="#fff" offset="1"/>
    </linearGradient>
  </defs>
  <rect id="svgEditorBackground" x="202.71499633789062" y="584.4310302734375" width="86.59329986572266" height="115.80899810791016" style="fill: none; stroke: none;" class="clothes"/>
  <rect id="rect-1" x="-403.988" y="499.579" width="1300" height="550" style="fill: none; stroke: none;" class="clothes"/>
  <g transform="matrix(0.494675136591705, 0, 0, 0.494675136591705, 543.78369140625, 683.2527081386638)">
    <title id="title4526">Blue Polo Shirt Remix by Merlin2525.svg</title>
    <g id="layer8" transform="matrix(1, 0, 0, 1, -680.650757, -61.52264)">
      <path id="path3296" d="m67.538 3.7625c2.7397 8.0624 6.1678 14.452 12.235 18.521l-6.7711 7.9217c-7.7328-5.9371-8.057-12.685-10.136-19.25" fill="url(#linearGradient6340)"/>
      <path id="path3314" d="m97.08 3.6059c-2.7397 8.0624-6.5112 14.28-12.578 18.349l7 7.75c7.7328-5.9371 8.1143-13.028 10.193-19.593" fill="url(#linearGradient5686-0-4)"/>
      <path id="path21785" d="m92.24 10.381c-5.6602-1.3221-11.716-1.613-16.716-0.80303-0.99102 0.16051-3.15 0.63446-3.8915 0.85428-0.29707 0.08806-0.56352 0.16012-0.59212 0.16012-0.2082 0-2.8404-6.2445-2.8296-6.7128 0.001-0.06195 0.0544-0.18103 0.11772-0.26462 0.11193-0.14776 0.16701-0.14606 1.9796 0.06105 4.7732 0.54538 8.9392 0.74965 13.799 0.67658 4.298-0.06463 7.4488-0.2667 11.186-0.71737 0.75732-0.09133 1.3902-0.15277 1.4065-0.13654 0.0497 0.04968-0.74887 2.1526-1.359 3.5788-0.7843 1.8333-1.6489 3.5517-1.795 3.5675-0.066 0.0071-0.65326-0.11168-1.3052-0.26394z" fill="url(#linearGradient6446)"/>
    </g>
  </g>
</svg>