<?xml version="1.0" encoding="utf-8"?>
<svg width="86" height="380" viewBox="202.715 584.407 86.5933 380.048" preserveAspectRatio="xMidYMid meet" xmlns="http://www.w3.org/2000/svg">
  <defs id="svgEditorDefs">
    <path id="svgEditorClosePathDefs" fill="moccasin" style="stroke-width: 0px; stroke: none; fill-opacity: 1;" class="shirt"/>
    <radialGradient id="gradient-0" gradientUnits="userSpaceOnUse" cx="60.905" cy="224.131" r="3.445">
      <stop offset="0" style="stop-color: rgba(74, 81, 205, 1)"/>
      <stop offset="1" style="stop-color: rgba(38, 43, 139, 1)"/>
    </radialGradient>
    <radialGradient id="gradient-1" gradientUnits="userSpaceOnUse" cx="60.296" cy="206.468" r="2.724">
      <stop offset="0" style="stop-color: rgba(74, 81, 205, 1)"/>
      <stop offset="1" style="stop-color: rgba(38, 43, 139, 1)"/>
    </radialGradient>
    <radialGradient id="gradient-2" gradientUnits="userSpaceOnUse" cx="60.296" cy="185.152" r="2.584">
      <stop offset="0" style="stop-color: rgba(74, 81, 205, 1)"/>
      <stop offset="1" style="stop-color: rgba(38, 43, 139, 1)"/>
    </radialGradient>
    <radialGradient id="gradient-3" gradientUnits="userSpaceOnUse" cx="60.296" cy="164.444" r="3.106">
      <stop offset="0" style="stop-color: rgba(74, 81, 205, 1)"/>
      <stop offset="1" style="stop-color: rgba(38, 43, 139, 1)"/>
    </radialGradient>
    <radialGradient id="gradient-4" gradientUnits="userSpaceOnUse" cx="59.687" cy="144.954" r="7.103">
      <stop offset="0" style="stop-color: rgba(74, 81, 205, 1)"/>
      <stop offset="1" style="stop-color: rgba(38, 43, 139, 1)"/>
    </radialGradient>
    <radialGradient id="gradient-5" gradientUnits="userSpaceOnUse" cx="60.905" cy="224.131" r="3.445" gradientTransform="matrix(1, -0.000004, -0.000008, 1.000004, 0.001562, -0.00115)">
      <stop offset="0" style="stop-color: rgba(74, 81, 205, 1)"/>
      <stop offset="1" style="stop-color: rgba(38, 43, 139, 1)"/>
    </radialGradient>
    <radialGradient id="gradient-6" gradientUnits="userSpaceOnUse" cx="60.296" cy="206.468" r="2.724" gradientTransform="matrix(1.000007, -0.000006, -0.00001, 1.000017, 0.001201, -0.004673)">
      <stop offset="0" style="stop-color: rgba(74, 81, 205, 1)"/>
      <stop offset="1" style="stop-color: rgba(38, 43, 139, 1)"/>
    </radialGradient>
    <radialGradient id="gradient-7" gradientUnits="userSpaceOnUse" cx="60.296" cy="185.152" r="2.584" gradientTransform="matrix(1, 0, -0.000004, 1, 0.000179, 0.000412)">
      <stop offset="0" style="stop-color: rgba(74, 81, 205, 1)"/>
      <stop offset="1" style="stop-color: rgba(38, 43, 139, 1)"/>
    </radialGradient>
    <radialGradient id="gradient-8" gradientUnits="userSpaceOnUse" cx="60.296" cy="164.444" r="3.106" gradientTransform="matrix(1.000021, -0.000005, 0.000014, 1.000005, -0.002721, 0.001945)">
      <stop offset="0" style="stop-color: rgba(74, 81, 205, 1)"/>
      <stop offset="1" style="stop-color: rgba(38, 43, 139, 1)"/>
    </radialGradient>
    <radialGradient id="gradient-9" gradientUnits="userSpaceOnUse" cx="59.687" cy="144.954" r="7.103" gradientTransform="matrix(0.999994, 0, -0.000004, 0.999996, 0.000573, -0.000155)">
      <stop offset="0" style="stop-color: rgba(74, 81, 205, 1)"/>
      <stop offset="1" style="stop-color: rgba(38, 43, 139, 1)"/>
    </radialGradient>
    <pattern id="pattern-0" x="0" y="0" width="20" height="20" patternUnits="userSpaceOnUse" viewBox="0 0 100 100">
      <path d="M 0 0 L 50 0 L 50 100 L 0 100 Z" style="fill: black;"/>
    </pattern>
  </defs>
  <rect id="svgEditorBackground" x="202.71499633789062" y="584.4310302734375" width="86.59329986572266" height="115.80899810791016" style="fill: none; stroke: none;" class="shirt"/>
  <ellipse transform="matrix(-0.707106, 0.70711, -0.707107, -0.707111, 429.845896, 871.578179)" cx="60.905" cy="224.131" rx="3.445" ry="3.445" style="fill: url(#gradient-0); stroke: rgb(186, 218, 85);"/>
  <ellipse transform="matrix(-0.894426, 0.447227, -0.447209, -0.894429, 373.950915, 896.202131)" cx="60.296" cy="206.468" rx="2.724" ry="2.724" style="fill: url(#gradient-1); stroke: rgb(186, 218, 85);"/>
  <ellipse transform="matrix(-0.707105, 0.707105, -0.707111, -0.707105, 401.244469, 805.466076)" cx="60.296" cy="185.152" rx="2.584" ry="2.584" style="fill: url(#gradient-2); stroke: rgb(186, 218, 85);"/>
  <ellipse transform="matrix(-0.196117, 0.980591, -0.980587, -0.196122, 400.762704, 669.597679)" cx="60.296" cy="164.444" rx="3.106" ry="3.106" style="fill: url(#gradient-3); stroke: rgb(186, 218, 85);"/>
  <ellipse transform="matrix(-0.514497, 0.857485, -0.85749, -0.514494, 382.082588, 700.38004)" cx="59.687" cy="144.954" rx="7.103" ry="7.103" style="fill: url(#gradient-4); stroke: rgb(186, 218, 85);"/>
  <ellipse transform="matrix(-0.742304, 0.670062, -0.670071, -0.742295, 462.346423, 881.728106)" cx="60.905" cy="224.131" rx="3.445" ry="3.445" style="fill: url(#gradient-5); stroke: rgb(186, 218, 85);"/>
  <ellipse transform="matrix(-0.916098, 0.400946, -0.400943, -0.916093, 405.265423, 903.464195)" cx="60.295" cy="206.467" rx="2.724" ry="2.724" style="fill: url(#gradient-6); stroke: rgb(186, 218, 85);"/>
  <ellipse transform="matrix(-0.7423, 0.670068, -0.670076, -0.742295, 437.159147, 814.24305)" cx="60.296" cy="185.152" rx="2.584" ry="2.584" style="fill: url(#gradient-7); stroke: rgb(186, 218, 85);"/>
  <ellipse transform="matrix(-0.245939, 0.969274, -0.969286, -0.245967, 443.618559, 678.531383)" cx="60.297" cy="164.446" rx="3.106" ry="3.106" style="fill: url(#gradient-8); stroke: rgb(186, 218, 85);"/>
  <ellipse transform="matrix(-0.557627, 0.830091, -0.830099, -0.557619, 423.389384, 708.315212)" cx="59.687" cy="144.954" rx="7.103" ry="7.103" style="fill: url(#gradient-9); stroke: rgb(186, 218, 85);"/>
</svg>