<?xml version="1.0" encoding="utf-8"?>
<svg width="86" height="380" viewBox="202.715 584.407 86.5933 380.048" preserveAspectRatio="xMidYMid meet" xmlns="http://www.w3.org/2000/svg" xmlns:xlink="http://www.w3.org/1999/xlink">
  <defs id="svgEditorDefs">
    <path id="svgEditorClosePathDefs" fill="moccasin" style="stroke-width: 0px; stroke: none; fill-opacity: 1;" class="shirt"/>
    <pattern id="pattern-0" x="0" y="0" width="20" height="20" patternUnits="userSpaceOnUse" viewBox="0 0 100 100">
      <g transform="matrix(0.32228, 0, 0, 0.308887, 4.328392, 4.332485)">
        <g id="layer1" transform="translate(38.342 -689.51)">
          <path id="path3794-1" style="color:#000000;fill:#808080" d="m484.49 498.52c0 76.076-76.558 137.75-171 137.75-94.439 0-171-61.672-171-137.75 0-76.076 76.558-137.75 171-137.75 94.439 0 171 61.672 171 137.75z" transform="matrix(.83895 0 0 1.0414 -157.89 313.78)"/>
          <g id="g4663" style="stroke-width:11.722" transform="matrix(.85307 0 0 .85307 -874.66 -71.543)">
            <path id="path3986-6" style="stroke:#ffffff;stroke-linecap:round;stroke-width:11.722;fill:none" d="m1136.2 1139.8 22.938-7.6584"/>
            <path id="path3986-6-5" style="stroke:#ffffff;stroke-linecap:round;stroke-width:11.722;fill:none" d="m1136 1157.6 34.18-12.869"/>
            <path id="path3986-6-6" style="stroke:#ffffff;stroke-linecap:round;stroke-width:11.722;fill:none" d="m1146.9 1170.1 22.938-7.6584"/>
            <path id="path4420" style="stroke:#ffffff;stroke-width:11.722;fill:none" d="m1176.7 1133.1s0-4.6511 2.4762-22.102c2.4404-17.136 27.148-57.757 28.168-59.187 8.6124-10.518 13.743-23.397 13.743-37.361 0-35.331-32.5-63.977-72.584-63.977-40.088 0-72.586 28.646-72.586 63.977 0 13.964 5.1301 26.844 13.74 37.361 1.0187 1.4315 25.732 42.052 28.17 59.187 2.4788 17.451 2.4788 22.102 2.4788 22.102"/>
          </g>
        </g>
      </g>
    </pattern>
    <pattern id="pattern-0-0" patternTransform="matrix(0.817284, 0, 0, 0.025516, 205.040787, 669.734741)" xlink:href="#pattern-0"/>
  </defs>
  <polygon id="e2_polygon" style="stroke-width: 0px; stroke: none; fill: url(#pattern-0-0);" points="236.324 654.435 204.02 670.242 206.082 779.524 210.206 778.149 215.017 686.737 208.832 792.583 278.937 793.957 274.126 684.676 276.532 778.665 277.562 778.149 290.621 778.837 289.075 671.617 259.005 654.434 259.349 792.927 246.633 791.897 239.417 792.927" class="shirt"/>
  <rect id="svgEditorBackground" x="202.71499633789062" y="584.4310302734375" width="86.59329986572266" height="115.80899810791016" style="fill: none; stroke: none;" class="shirt"/>
</svg>