<svg class="shirtOverlay" width="86" height="380" viewBox="202.715 584.407 86.593 380.048" xmlns="http://www.w3.org/2000/svg"><defs><radialGradient id="a" gradientUnits="userSpaceOnUse" cx="60.905" cy="224.131" r="3.445"><stop offset="0" stop-color="#cd4a6b"/><stop offset="1" stop-color="#8b263f"/></radialGradient><radialGradient id="b" gradientUnits="userSpaceOnUse" cx="60.296" cy="206.468" r="2.724"><stop offset="0" stop-color="#cd4a6b"/><stop offset="1" stop-color="#8b263f"/></radialGradient><radialGradient id="c" gradientUnits="userSpaceOnUse" cx="60.296" cy="185.152" r="2.584"><stop offset="0" stop-color="#cd4a6b"/><stop offset="1" stop-color="#8b263f"/></radialGradient><radialGradient id="d" gradientUnits="userSpaceOnUse" cx="60.296" cy="164.444" r="3.106"><stop offset="0" stop-color="#cd4a6b"/><stop offset="1" stop-color="#8b263f"/></radialGradient><radialGradient id="e" gradientUnits="userSpaceOnUse" cx="59.687" cy="144.954" r="7.103"><stop offset="0" stop-color="#cd4a6b"/><stop offset="1" stop-color="#8b263f"/></radialGradient><radialGradient id="f" gradientUnits="userSpaceOnUse" cx="60.905" cy="224.131" r="3.445"><stop offset="0" stop-color="#cd4a6b"/><stop offset="1" stop-color="#8b263f"/></radialGradient><radialGradient id="g" gradientUnits="userSpaceOnUse" cx="60.295" cy="206.467" r="2.724"><stop offset="0" stop-color="#cd4a6b"/><stop offset="1" stop-color="#8b263f"/></radialGradient><radialGradient id="h" gradientUnits="userSpaceOnUse" cx="60.296" cy="185.152" r="2.584"><stop offset="0" stop-color="#cd4a6b"/><stop offset="1" stop-color="#8b263f"/></radialGradient><radialGradient id="i" gradientUnits="userSpaceOnUse" cx="60.297" cy="164.446" r="3.106"><stop offset="0" stop-color="#cd4a6b"/><stop offset="1" stop-color="#8b263f"/></radialGradient><radialGradient id="j" gradientUnits="userSpaceOnUse" cx="59.687" cy="144.954" r="7.103"><stop offset="0" stop-color="#cd4a6b"/><stop offset="1" stop-color="#8b263f"/></radialGradient></defs><path class="shirtOverlay" fill="none" d="M202.715 584.431h86.593V700.24h-86.593z"/><ellipse transform="rotate(135 34.412 524.813)" cx="60.905" cy="224.131" rx="3.445" ry="3.445" stroke="#da5955" fill="url(#a)"/><ellipse transform="rotate(153.435 81.19 492.24) skewX(-.001)" cx="60.296" cy="206.468" rx="2.724" ry="2.724" stroke="#da5955" fill="url(#b)"/><ellipse transform="rotate(135 33.805 485.834)" cx="60.296" cy="185.152" rx="2.584" ry="2.584" stroke="#da5955" fill="url(#c)"/><ellipse transform="matrix(-.19612 .9806 -.98059 -.19612 400.763 669.598)" cx="60.296" cy="164.444" rx="3.106" ry="3.106" stroke="#da5955" fill="url(#d)"/><ellipse transform="matrix(-.5145 .85749 -.85749 -.5145 382.083 700.38)" cx="59.687" cy="144.954" rx="7.103" ry="7.103" stroke="#da5955" fill="url(#e)"/><ellipse transform="rotate(137.928 61.624 529.77) skewX(.001)" cx="60.905" cy="224.131" rx="3.445" ry="3.445" stroke="#da5955" fill="url(#f)"/><ellipse transform="matrix(-.9161 .40095 -.40094 -.9161 405.265 903.464)" cx="60.295" cy="206.467" rx="2.724" ry="2.724" stroke="#da5955" fill="url(#g)"/><ellipse transform="rotate(137.928 62.005 491.185) skewX(.001)" cx="60.296" cy="185.152" rx="2.584" ry="2.584" stroke="#da5955" fill="url(#h)"/><ellipse transform="matrix(-.24594 .96927 -.96929 -.24597 443.619 678.531)" cx="60.297" cy="164.446" rx="3.106" ry="3.106" stroke="#da5955" fill="url(#i)"/><ellipse transform="rotate(123.892 22.957 466.974) skewX(.001)" cx="59.687" cy="144.954" rx="7.103" ry="7.103" stroke="#da5955" fill="url(#j)"/></svg>