<svg class="shirtOverlay" width="86" height="380" viewBox="202.715 584.407 86.593 380.048" xmlns="http://www.w3.org/2000/svg" xmlns:xlink="http://www.w3.org/1999/xlink"><defs><pattern id="a" width="20" height="20" patternUnits="userSpaceOnUse" viewBox="0 0 100 100"><path d="M242.07 995.51c7.26-1.124 11.218-2.256 16.154-4.622 9.152-4.386 16.009-13.25 16.53-21.367.215-3.348.044-4.259-1.836-9.783-2.03-5.963-5.834-14.708-10.029-23.052-1.157-2.3-2.004-4.282-1.883-4.403.352-.352 3.97 3.965 7.425 8.857 4.64 6.572 8.008 13.174 10.47 20.526l2.17 6.481 3.749 1.56c7.377 3.072 12.47 4.078 21.85 4.317 7.913.201 8.865.126 13.516-1.072 8.947-2.306 15.674-6.197 21.818-12.622 4.366-4.567 6.246-7.418 8.858-13.436 2.92-6.73 4.298-8.989 7.601-12.468 3.608-3.8 7.19-6.318 15.81-11.11 14.923-8.296 19.841-12.727 23.792-21.442 2.756-6.078 3.229-8.782 3.209-18.343-.021-9.833-.762-14.292-3.977-23.943-2.815-8.45-8.017-18.384-11.652-22.252-1.468-1.562-3.743-1.83-5.44-.641-1.646 1.153-3.915 5.03-6.604 11.288-5.793 13.48-17.312 38.263-16.872 36.299.124-.55 1.575-6.86 3.226-14.021 3.676-15.95 4.262-20.194 3.908-28.293-.565-12.925-4.051-23.177-12.96-38.113-6.026-10.103-10.859-15.088-17.694-18.25-5.73-2.649-10.77-3.827-16.721-3.908l-5.254-.07-.653 2.229c-.36 1.226-1.019 4.72-1.465 7.762-1.165 7.93-.77 13.799 1.538 22.808 2.288 8.937 2.698 13.305 1.603 17.075-.74 2.547-3.883 7.054-4.5 6.456-.146-.14.09-2.169.525-4.507 1.118-6.021.938-8.086-1.611-18.523-1.245-5.095-2.398-11.067-2.563-13.27-.488-6.52.825-15.603 4.38-30.29 1.708-7.06 1.648-9.06-.4-13.4-2.319-4.91-9.014-10.81-16.585-14.611-9.685-4.864-23.716-7.242-31.486-5.338-10.783 2.642-17.715 9.775-30.09 30.96-10.427 17.85-16.658 41.059-16.034 59.72.235 7.002.204 7.359-.457 5.258-2.954-9.395-3.43-16.965-1.713-27.262 2.354-14.122 5.54-23.769 12.168-36.836 6.067-11.961 7.082-15.035 6.828-20.664-.447-9.873-5.975-15.19-20.655-19.868-22.343-7.119-48.801-1.067-55.544 12.704-2.497 5.1-2.845 7.823-3.363 26.325-.753 26.914-1.165 32.551-2.742 37.557-2.092 6.64-4.527 10.901-7.198 12.595-1.237.785-2.767 1.427-3.4 1.427-1.118 0-1.103-.063.549-2.227 4.148-5.434 6.289-17.53 7.07-39.946l.309-8.872-2.25-2.405c-7.682-8.212-25.081-12.729-37.148-9.642-7.072 1.809-13.246 6.922-17.012 14.089-5.38 10.24-6.308 20.086-4.024 42.743 1.073 10.645 1.128 12.147.48 13.145-.867 1.334-.955 1.34-5.467.384-1.928-.408-5.238-.746-7.356-.75-2.119-.006-3.973-.206-4.122-.446-.148-.24.684-.784 1.849-1.208 1.845-.67 3.346-1.04 8.755-2.15 1.097-.225 1.12-.358.827-4.604-.26-3.76-.47-4.525-1.505-5.475-2.41-2.21-9.202-2.906-12.644-1.295-2.928 1.37-7.233 6.019-8.997 9.716-2.549 5.34-3.254 8.907-2.96 14.96.308 6.35 1.489 10.023 7.001 21.79 10.24 21.856 12.117 32.685 7.328 42.268-.821 1.644-2.267 3.668-3.212 4.498-1.613 1.417-4.933 2.537-5.585 1.885-.162-.161.41-1.096 1.272-2.077 7.413-8.443 6.128-20.985-4.417-43.09l-3.355-7.034-3.966-.61c-8.811-1.357-16.546-5.215-21.5-10.724-2.767-3.078-4.136-5.586-5.269-9.653l-.837-3.005-3.305 5.108c-6.342 9.804-10.309 17.785-12.144 24.437-.456 1.653-.943 5.484-1.082 8.513-.231 5.015-.135 5.862 1.073 9.456 2.167 6.445 6.655 12.553 12.859 17.5 1.268 1.011 2.507 1.828 2.754 1.815.247-.013 1.125-.883 1.952-1.935.826-1.051 2.863-2.982 4.526-4.29 3.021-2.374 8.744-5.969 8.744-5.492 0 .14-1.208 1.676-2.684 3.416-6.57 7.745-8.794 12.263-9.21 18.705-.819 12.733 8.388 26.064 20.556 29.76 2.864.869 4.348 1.007 8.784.815 9.188-.396 14.138-3.048 24.478-13.116 3.933-3.829 7.15-6.823 7.15-6.653 0 .17-.482 1.599-1.073 3.176-1.409 3.766-3.755 7.688-6.977 11.662l-2.616 3.226 1.57 4.787c3.736 11.39 10.04 17.926 20.698 21.453 6.697 2.216 12.118 2.812 21.95 2.414 10.573-.427 16.843-1.304 16.599-2.321-1.074-4.466-.236-17.693 1.507-23.77l.574-2.003.39 1.502c.213.826.742 5.678 1.174 10.782.432 5.104 1.132 10.606 1.554 12.228 1.968 7.555 7.748 14.404 15.549 18.423 6.891 3.55 12.978 5.02 21.075 5.085 3.626.029 6.716-.07 6.868-.222.152-.15-.293-1.683-.989-3.404-2.169-5.37-2.728-9.505-2.958-21.86-.243-13.048-.435-13.22 3.042 2.754 2.249 10.331 4.27 16.522 6.498 19.898 4.174 6.329 14.043 11.621 25.984 13.936 4.32.838 18.827.568 25.57-.476zm-80.555-43.766c-4.545-7.2-6.88-20.739-5.363-31.109.334-2.283.503-4.254.376-4.381-.659-.66-8.833-2.27-14.059-2.772-12.975-1.244-20.683.988-31.438 9.103l-1.65 1.245 1.227-1.746c.675-.96 2.887-3.62 4.915-5.91 5.689-6.428 7.294-10.816 6.127-16.75-.762-3.875-2.485-7.313-4.85-9.678-2.157-2.157-7.612-4.849-12.19-6.015-4.162-1.06-11.409-.692-15.953.81-1.75.58-3.276.96-3.39.848-.305-.307 3.612-2.931 6.508-4.36 1.915-.946 2.64-1.621 2.952-2.755.618-2.236.065-5.991-1.334-9.046-1.21-2.644-5.876-7.859-9.064-10.132l-1.502-1.072 1.548-.016c2.116-.021 6.926 2.481 10.064 5.237 3.503 3.078 5.246 6.702 5.557 11.562l.239 3.717h1.845c9.399 0 19.014 5.937 23.1 14.261 1.602 3.266 1.712 3.808 1.674 8.263-.027 3.171-.321 5.506-.881 6.974-.463 1.214-.774 2.275-.69 2.358.083.084 1.494-.226 3.135-.688 4.748-1.338 19.58-1.174 25.432.282 2.432.605 4.511 1.1 4.622 1.1.11 0 .683-.958 1.273-2.128 3.264-6.476 8.925-12.173 15.557-15.658l3.467-1.822-3.526-2.476c-8.572-6.02-15.298-18.065-17.866-31.998-.651-3.535-.877-7.395-.878-15.023 0-12.58 1.076-21.354 4.962-40.403 4.257-20.867 5.822-25.752 9.275-28.953 1.614-1.497 1.619-1.498 1.276-.25-1.228 4.466-6.493 27.61-7.746 34.052-2.921 15.013-3.303 18.78-3.298 32.55 0 14.336.582 18.377 3.995 27.932 2.611 7.31 8.423 15.217 13.641 18.56 2.947 1.888 9.95 4.251 15.893 5.364 4.894.916 15.868.782 19.284-.236 1.083-.322 3.006-1.794 5.008-3.833 5.46-5.56 9.342-7.774 20.276-11.563 1.928-.668 6.096-1.661 9.264-2.207 9.655-1.663 14.178-4.424 17.226-10.519 3.996-7.988 4.17-14.576.824-31.309-1.106-5.534-2.216-12.422-2.467-15.306-.497-5.733.01-12.89 1.098-15.55.64-1.563.692-1.357 1.024 4.07.662 10.813 2.78 23 5.838 33.594 3.544 12.278 1.973 23.282-4.483 31.39l-2 2.512 4.94.599c12.949 1.569 20.74 5.132 25.769 11.783l1.448 1.915 3.81-.338c8.615-.766 14.052-3.15 19.373-8.495 6.238-6.266 9.46-13.25 11.92-25.845.726-3.718 1.616-9.69 1.976-13.27l.657-6.51.69 2.254c.457 1.489.674 4.547.64 9.014-.167 21.29-8.432 38.493-21.449 44.638-2.822 1.331-8.461 2.937-12.929 3.68-1.662.276-1.896.473-1.684 1.415l1.093 4.85c.64 2.84.955 7.913 1.289 20.782.433 16.68.968 21.955 2.523 24.861.299.558.448 1.11.332 1.225-.396.396-1.789-1.548-3.8-5.304-2.479-4.627-2.875-7.25-3.58-23.706-.692-16.134-1.928-21.8-5.99-27.474-3.69-5.153-9.366-7.963-19.506-9.66-7.185-1.2-21.917-.843-27.923.679-10.251 2.598-15.93 5.41-21.381 10.588-7.616 7.234-11.033 16.929-9.14 25.933 1.368 6.51 7.974 17.993 16.05 27.896 5.085 6.237 5.299 6.565 3.726 5.725-.653-.348-4.576-4.033-8.718-8.187-6.021-6.04-8.147-8.557-10.606-12.561-3.256-5.302-5.35-10.726-5.902-15.281-.41-3.376.394-9.512 1.749-13.367a415.999 415.999 0 0 0 1.007-2.882c0-.01-3.437-.04-7.637-.066-5.135-.032-8.837-.32-11.3-.876-5.335-1.207-7.89-1.067-12.082.662-10.36 4.272-15.39 9.644-18.517 19.778-.656 2.128-1.19 5.55-1.366 8.763-.336 6.136.547 20.345 1.556 25.047.384 1.788.618 3.33.52 3.428-.097.097-.742-.718-1.433-1.813zm178.38-37.889c-1.83-.382-4.9-1.355-6.821-2.163-3.332-1.4-12.136-6-12.136-6.34 0-.09 2.603.588 5.784 1.505 10.684 3.079 18.708 3.443 26.68 1.213 9.66-2.703 16.372-7.88 27.266-21.032 3.308-3.994 6.23-7.486 6.493-7.762 1.001-1.046-6.346 13.174-8.45 16.356-5.649 8.54-13.593 14.726-22.317 17.378-4.457 1.355-12.165 1.75-16.5.845zm-215.02-42.825c-11.123-8.328-18.59-16.76-22.801-25.746-2.914-6.219-3.63-9.9-3.324-17.086.3-7.065 1.294-10.757 5.538-20.587 2.422-5.61 3.407-8.792 5.174-16.72.266-1.193.322-1.158 1.204.751 1.657 3.59 1.3 8.525-1.107 15.273-5.435 15.247-6.484 22.21-4.525 30.046 2.69 10.76 10.445 21.34 24.006 32.753 2.26 1.902 4.11 3.716 4.11 4.031 0 .723-1.032 1.775-1.74 1.775-.296 0-3.237-2.02-6.535-4.49zm278.7-25.622c3.332-11.757.755-22.232-7.078-28.777l-2.056-1.718-1.917 1.732c-3.083 2.785-6.94 2.987-13.995.734l-3.756-1.199 6.488-.14c7.594-.166 7.95-.35 8.825-4.548.718-3.448.266-11.88-.837-15.592-.878-2.957-3.916-6.588-6.692-7.997-2.839-1.442-9.92-3.521-11.992-3.521-1.739 0-2.034.213-3.445 2.481-1.874 3.015-4.804 4.935-10.467 6.858-2.29.777-4.165 1.574-4.165 1.77s1.315 2.452 2.922 5.014 3.786 6.236 4.843 8.164a306.604 306.604 0 0 0 2.01 3.639c.05.073 1.407-.659 3.016-1.628 1.608-.968 3.201-1.76 3.54-1.76.337 0 1.005-.151 1.484-.335.493-.19-.246 1.121-1.71 3.03-1.417 1.851-2.716 3.915-2.884 4.586-.447 1.78-.034 4.408 1.486 9.475.741 2.47 1.588 6.638 1.882 9.264.872 7.785.732 7.563 2.696 4.303 3.702-6.15 6.276-8.462 10.095-9.073 5.465-.874 11.492 5.516 16.949 17.97l1.936 4.418.888-1.73c.488-.953 1.358-3.392 1.933-5.42zm-353.28 1.694c-1.975-5.116-2.467-14.887-1.053-20.907 2.038-8.677 7.806-16.697 14.145-19.667 2.563-1.2 3.515-1.365 7.921-1.365 2.754 0 5.684.175 6.51.389l1.502.388-.16-8.65c-.304-16.469 2.15-26.468 8.502-34.643l2.352-3.026-2.28-.866c-2.743-1.041-5.972-3.207-6.385-4.283-.165-.43-.238-.828-.162-.886.075-.057 3.207.349 6.96.903l6.825 1.007 3.364-1.85c1.851-1.016 4.752-2.176 6.447-2.575 3.925-.926 15.492-.945 19.745-.032 3.017.647 3.172.632 3.88-.38 2.072-2.957-.369-6.088-5.8-7.444l-7.483-1.868c-2.34-.584-6.901-2.319-10.134-3.854-4.759-2.26-6.903-2.97-11.267-3.726-12.704-2.2-20.12-.686-26.524 5.417-3.944 3.758-6.602 8.397-9.667 16.867-5.143 14.214-7.169 16.587-19.232 22.527-8.684 4.276-11.747 6.744-14.09 11.357-2.004 3.946-2.715 7.14-2.72 12.224-.01 3.766 1.181 13.124 1.732 13.674.089.088.76-1.15 1.493-2.75.732-1.602 2.953-5.694 4.934-9.094 2.629-4.512 3.646-5.889 3.766-5.1.214 1.409-1.668 7.567-3.29 10.768-1.925 3.798-3.611 9.104-4.18 13.154-1.26 8.986 2.83 16.87 11.101 21.393 3.143 1.718 9.466 3.708 11.906 3.747 1.401.023 1.625-.119 1.343-.85zm-4.629-61.916c9.814-3.286 10.777-4.281 11.363-11.734.354-4.497.598-5.41 2.23-8.328 1.008-1.802 1.878-3.276 1.933-3.275.055 0 .1 4.265.1 9.477 0 8.837-.07 9.571-1.049 10.89-2.705 3.644-7.566 5.184-16.227 5.14l-4.757-.024 6.407-2.146zm310.08 7.172c6.473-3.772 8.075-6.371 7.644-12.401-.446-6.235-4.38-11.775-10.278-14.475-2.823-1.293-11.762-3.09-15.504-3.119-2.03-.015-2.118.05-2.448 1.81-.188 1.003-.215 3.961-.059 6.574l.283 4.75-1.638-2.444c-3.396-5.063-4.739-11.439-3.082-14.642.735-1.422 6.164-5.376 6.677-4.863.158.158.045 1.076-.25 2.04-.297.963-.503 1.753-.46 1.754.043 0 2.888.552 6.323 1.225 3.434.672 6.327 1.14 6.428 1.039.38-.38-1.06-6.098-2.004-7.957-2.07-4.074-7.096-7.69-15.297-11.002-3.959-1.598-13.667-4.088-28.662-7.352-6.466-1.407-11.856-2.657-11.976-2.778-.12-.12 4.55-.22 10.38-.22 8.625 0 10.6-.127 10.6-.683 0-.376-.795-2.273-1.767-4.216-3.139-6.274-8.706-10.869-15.793-13.035-3.99-1.22-11.23-1.846-15.744-1.363-2.842.305-3.273.477-2.965 1.189.199.458.467 2.243.597 3.967.218 2.903.333 3.156 1.554 3.412 1.576.331 13.808 5.074 15.59 6.045l1.252.682-1.252-.258c-6.174-1.27-18.542-2.75-22.963-2.747-12.182.007-24.428 3.304-30.356 8.173l-1.49 1.224-2.037-3.574a402.41 402.41 0 0 1-4.183-7.58l-2.146-4.005 4.317 4.427c2.443 2.505 4.58 4.3 4.922 4.134.332-.16 1.67-1.063 2.973-2.004 4.561-3.294 14.374-5.757 23.06-5.788 5.47-.02 5.73-.188 5.137-3.344-1.028-5.479-14.978-13.712-27.061-15.973-6.884-1.288-17.593-.829-23.286.998-4.37 1.403-9.877 4.159-10.99 5.5-.345.415-.661 1.494-.703 2.397-.073 1.596-.01 1.652 2.429 2.045 5.447.879 7.762 1.441 7.762 1.885 0 .275-5.741.465-14.051.465-10.193 0-13.956-.153-13.706-.557.716-1.159 4.674-2.42 8.63-2.75 3.873-.323 4.104-.408 4.104-1.515 0-1.44-2.496-3.197-6.76-4.76-4.061-1.487-13.43-1.596-18.278-.212-4.605 1.315-8.419 3.177-9.317 4.547-.831 1.268-.56 2.19 1.38 4.689 1.223 1.577 1.17 2.736-.2 4.261-.927 1.032-2.271 1.486-7.563 2.556-3.54.716-6.692 1.217-7.005 1.112-.313-.104 1.472-1.244 3.968-2.532 6.665-3.443 6.6-3.382 5.402-5.144-.542-.796-1.251-2.067-1.576-2.824-.568-1.324-.734-1.378-4.268-1.378-6.047 0-11.414 2.444-15.75 7.172-2.25 2.455-2.557 3.366-1.441 4.292.377.313 1.32 1.974 2.093 3.692 1.975 4.378 2.264 9.94.772 14.85-.592 1.95-1.159 3.545-1.259 3.545-.1 0-.209-1.876-.24-4.17-.109-7.662-2.365-13.33-6.197-15.565-1.163-.679-4.03-1.73-6.372-2.334-7.785-2.012-18.333-.448-22.18 3.288-2.976 2.89-3.118 7.295-.337 10.462 1.521 1.732 1.86 1.859 10.248 3.84 5.91 1.397 11.138 3.91 13.448 6.467 1.593 1.762 1.826 2.344 1.826 4.548 0 1.39-.355 3.213-.788 4.051-.434.838-.715 1.566-.626 1.618.089.051 1.61.763 3.378 1.58 1.769.819 4.427 2.333 5.906 3.366 1.48 1.033 2.76 1.878 2.845 1.878.085 0 .308-2.189.496-4.864.803-11.427 3.488-18.359 9.197-23.744 5.468-5.159 13.082-8.457 23.57-10.21 6.272-1.05 19.474-.817 26.347.464 10.19 1.9 19.274 6.11 24.72 11.46 3.085 3.032 5.938 8.332 6.414 11.915.179 1.353.365 2.46.413 2.46.048 0 2.343-2.198 5.1-4.883 8.482-8.262 13.879-10.692 24.48-11.023 5.278-.165 7.367-.01 11.043.82 21.426 4.833 36.728 17.103 37.59 30.143.192 2.9-.016 4.726-.947 8.283l-1.195 4.562 4.807.315c12.84.842 25.413 6.933 32.015 15.51 1.204 1.563 2.335 2.843 2.512 2.843.178 0 1.897-.917 3.82-2.038z" fill="#eb9c77" transform="matrix(.25004 0 0 .29688 -1.912 -204.421)"/></pattern><pattern id="b" patternTransform="matrix(4.19752 0 0 3.52756 205.04 669.735)" xlink:href="#a"/></defs><path class="shirtOverlay" fill="none" d="M202.715 584.431h86.593V700.24h-86.593z"/><path class="shirtOverlay" d="M271.101 687.404l3.96 1.405 1.402 63.243h-.715l-1.073-54.547z"/><path class="shirtOverlay" fill="url(#b)" d="M236.324 654.435l-32.304 15.807 2.062 109.282 4.124-1.375 4.811-91.412-6.185 105.846 70.105 1.374-4.811-109.281 2.406 93.989 1.03-.516 13.059.688-1.546-107.22-30.07-17.183.344 138.493-12.716-1.03-7.216 1.03z"/></svg>