<svg width="86" height="380" viewBox="202.715 584.407 86.5933 380.048" preserveAspectRatio="xMidYMid meet" xmlns="http://www.w3.org/2000/svg">
  <defs>
    <path class="skin" fill="moccasin" style="stroke-width: 0px; stroke: none; fill-opacity: 1;"/>
  </defs>
  <path style="fill:#d4ad8e;fill-opacity:1;fill-rule:nonzero;stroke:none" d="M 245.608 650.106 C 238.411 650.106 232.472 644.705 231.793 637.546 L 231.72 636.772 L 232.435 636.466 C 232.664 636.372 238.151 634.052 245.675 634.052 C 253.204 634.052 258.568 636.372 258.792 636.479 L 259.497 636.786 L 259.425 637.546 C 258.743 644.705 252.803 650.106 245.608 650.106"/>
  <path style="fill:#fbf0f2;fill-opacity:1;fill-rule:nonzero;stroke:none" d="M 245.675 635.119 C 238.283 635.119 232.852 637.452 232.852 637.452 C 233.471 643.945 238.944 649.039 245.608 649.039 C 252.272 649.039 257.745 643.945 258.363 637.452 C 258.363 637.452 253.065 635.119 245.675 635.119"/>
</svg>