<svg width="86" height="380" viewBox="202.715 584.407 86.5933 380.048" preserveAspectRatio="xMidYMid meet" xmlns="http://www.w3.org/2000/svg">
  <defs>
    <path class="skin" fill="moccasin" style="stroke-width: 0px; stroke: none; fill-opacity: 1;"/>
  </defs>
  <path class="beard" id="path2518" style="fill:#aec9c2;fill-opacity:1;fill-rule:nonzero;stroke:none" d="M 237.16 637.385 L 237.121 637.371 Z M 261.892 635.864 C 261.539 635.104 260.829 634.344 259.949 633.678 C 256.961 630.704 250.065 629.425 247.431 629.291 C 245.503 629.198 243.392 629.291 241.331 629.638 C 239.424 629.851 237.595 630.344 236.032 631.158 L 235.837 631.238 C 234.465 631.878 232.156 633.131 231.197 634.771 L 231.033 634.971 L 231.028 634.985 L 231.019 634.985 L 230.949 635.104 C 230.869 635.238 230.795 635.358 230.731 635.491 L 230.704 635.571 C 230.632 635.731 230.579 635.891 230.544 636.051 L 230.527 636.198 L 230.501 636.518 L 230.505 636.758 C 230.505 636.985 230.536 637.225 230.639 637.464 C 231.397 639.185 233.773 638.211 235.452 637.011 C 235.531 637.544 235.829 638.038 236.329 638.385 C 237.671 639.331 239.273 638.731 240.275 637.585 C 240.616 638.398 241.376 638.838 242.247 638.944 C 243.257 639.064 244.205 638.678 244.775 637.998 C 245.221 638.638 245.924 639.078 246.704 639.198 C 247.637 639.344 248.54 638.838 248.997 638.091 C 249.525 638.638 250.191 638.985 250.981 639.131 C 252.162 639.358 253.307 638.891 253.887 638.064 L 254.04 638.025 C 254.476 638.664 255.225 639.051 255.968 639.131 C 256.881 639.225 257.673 638.944 258.198 638.451 L 258.223 638.464 L 258.478 638.518 C 258.701 638.918 258.98 639.265 259.501 639.304 C 260.096 639.438 260.807 639.251 261.308 638.864 C 262.32 638.078 262.405 636.971 261.892 635.864"/>
</svg>