<svg class="mouth" style="z-index:3;" width="86" height="380" viewBox="202.715 584.407 86.5933 380.048" preserveAspectRatio="xMidYMid meet" xmlns="http://www.w3.org/2000/svg">
  <defs>
    <path class="skin" fill="moccasin" style="stroke-width: 0px; stroke: none; fill-opacity: 1;"/>
  </defs>
  <path class="beard" id="path2060" style="fill:#7a3e1a;fill-opacity:1;fill-rule:nonzero;stroke:none" d="M 259.824 632.605 C 259.121 631.605 257.508 631.459 256.41 631.645 C 254.754 631.938 252.656 632.845 249.741 632.552 C 247.166 632.285 246.412 630.552 245.336 631.085 L 245.15 631.192 C 245.01 631.245 244.896 631.325 244.793 631.419 C 244.69 631.325 244.576 631.245 244.434 631.192 L 244.249 631.085 C 243.173 630.552 242.418 632.285 239.844 632.552 C 236.928 632.845 234.83 631.938 233.173 631.645 C 232.078 631.459 230.462 631.605 229.76 632.605 C 229.392 633.125 229.22 634.019 229.233 634.552 C 229.188 637.392 232.277 638.672 234.824 638.725 C 235.905 638.738 237.325 638.538 238.733 638.005 C 242.15 636.898 244.05 635.165 244.793 633.712 C 245.536 635.165 247.434 636.898 250.852 638.005 C 252.26 638.538 253.678 638.738 254.76 638.725 C 257.308 638.672 260.396 637.392 260.352 634.552 C 260.364 634.019 260.193 633.125 259.824 632.605"/>
  <path class="beard" id="path2062" style="fill:#7a3e1a;fill-opacity:1;fill-rule:nonzero;stroke:none" d="M 258.214 641.765 L 258.173 641.712 L 258.306 641.725 Z M 258.149 661.552 L 258.068 661.605 Z M 211.093 637.032 L 211.092 637.019 L 211.093 637.019 Z M 274.601 638.898 C 274.797 638.765 275.016 638.685 275.251 638.619 C 275.031 638.712 274.817 638.805 274.601 638.898 Z M 282.51 631.019 C 282.43 631.338 282.357 631.645 282.285 631.965 C 281.912 632.738 281.706 633.605 281.589 634.512 C 281.446 634.898 281.278 635.272 281.07 635.632 C 279.798 637.885 277.996 637.259 275.96 637.112 C 273.997 636.952 272.941 639.765 271.198 638.459 C 269.969 637.525 268.853 637.805 267.834 638.819 C 266.732 639.912 266.196 639.765 264.664 639.459 C 264.168 639.352 263.578 639.205 263.11 639.538 C 262.549 639.938 262.16 640.445 261.709 640.752 C 261.3 640.845 260.898 640.925 260.497 641.032 C 260.21 640.978 259.89 640.885 259.496 640.672 C 258.662 640.219 257.952 640.045 257.014 640.152 C 255.834 640.285 255.149 641.912 253.752 640.952 C 253.016 640.459 252.309 640.005 251.39 640.005 C 250.79 640.005 249.981 640.459 249.558 640.859 C 247.909 642.405 246.122 643.005 243.865 642.938 C 242.121 642.872 240.75 641.738 239.293 641.125 C 237.834 639.338 236.136 641.925 234.156 640.898 C 233.28 640.459 232.51 639.072 231.362 639.112 C 230.674 639.125 230.666 639.138 229.99 639.338 C 226.376 640.485 227.48 639.552 225.305 638.525 C 224.465 638.138 223.993 638.058 223.094 638.378 C 221.814 638.832 221.901 640.285 219.741 638.485 C 219.23 638.058 219.061 637.925 218.5 637.592 C 217.752 637.152 216.898 637.312 216.12 637.512 C 212.706 638.405 211.457 636.085 210.988 633.338 L 210.94 633.338 C 210.922 633.472 210.908 633.605 210.892 633.738 L 210.726 633.792 C 210.025 638.525 210.844 643.712 211.978 648.325 C 212.58 650.778 214.586 654.205 217.029 652.699 C 217.249 654.938 218.12 656.725 220.236 658.058 C 221.506 658.845 222.35 658.498 222.962 657.752 C 223.2 659.192 223.948 660.419 225.658 660.952 C 227.674 661.592 228.982 660.965 229.832 659.565 C 230.42 661.138 231.598 662.338 233.39 662.859 C 235.125 663.352 236.318 662.978 236.892 661.792 C 237.661 662.832 238.709 663.498 240.184 663.472 C 241.238 663.459 242.048 663.032 242.546 662.338 C 243.238 663.152 244.321 663.672 245.354 664.032 C 246.842 664.552 247.861 663.672 248.432 662.512 C 249.224 663.578 250.53 664.178 251.976 663.845 C 253.15 663.578 253.498 662.592 253.57 661.552 L 253.582 661.538 C 254.517 662.498 256.101 663.085 257.369 663.058 C 259.18 663.032 259.996 661.632 260.334 660.072 C 260.894 660.898 262.245 661.365 263.29 661.272 C 264.862 661.152 265.776 659.672 266.292 658.178 C 266.765 658.832 267.461 659.259 268.428 659.005 C 269.969 658.632 270.601 657.538 270.845 656.219 C 271.464 656.619 272.293 656.578 273.278 656.165 C 275.21 655.338 275.732 653.645 275.916 651.845 C 276.474 652.512 277.269 652.712 278.506 652.005 C 280.195 651.045 280.215 648.019 280.188 646.005 C 280.356 646.045 280.554 645.978 280.679 645.859 C 281.409 645.778 282.143 645.298 282.43 644.352 C 282.923 642.712 282.93 641.005 282.861 639.298 C 282.782 637.298 283.058 635.165 282.857 633.165 C 282.914 632.512 282.945 631.819 283.004 631.085 C 283.024 630.792 282.581 630.752 282.51 631.019"/>
</svg>