<svg class="mouth" style="z-index:3;" width="86" height="380" viewBox="202.715 584.407 86.5933 380.048" preserveAspectRatio="xMidYMid meet" xmlns="http://www.w3.org/2000/svg">
  <defs>
    <path class="skin" fill="moccasin" style="stroke-width: 0px; stroke: none; fill-opacity: 1;"/>
  </defs>
  <path class="beard" id="path2138" style="fill:#7a3e1a;fill-opacity:1;fill-rule:nonzero;stroke:none" d="M 268.78 633.402 L 268.717 633.296 C 268.402 632.896 267.978 632.549 267.553 632.376 L 267.501 632.336 L 267.462 632.349 C 266.874 632.136 266.317 632.296 266.069 633.122 C 265.713 633.562 265.856 634.202 265.921 634.896 L 265.97 634.896 C 265.937 634.536 266.32 633.083 267.02 633.629 C 267.282 633.829 267.449 634.083 267.582 634.376 C 267.746 634.736 267.864 635.083 267.877 635.43 C 267.822 635.683 267.765 635.936 267.702 636.149 C 267.624 636.283 267.525 636.416 267.382 636.536 C 267.222 636.683 267.058 636.802 266.889 636.909 C 266.692 637.002 266.476 637.083 266.217 637.136 C 264.301 637.483 262.648 637.083 261.08 635.936 C 259.473 634.749 257.489 633.336 255.454 632.602 L 255.249 632.536 C 255.111 632.496 254.973 632.443 254.835 632.402 C 254.59 632.229 254.322 632.083 253.999 631.99 C 253.876 631.962 253.762 631.949 253.645 631.923 C 252.502 631.469 251.189 631.362 249.825 631.523 C 248.92 631.629 247.463 631.896 246.546 632.549 C 246.356 632.643 246.181 632.749 246.023 632.869 C 245.861 632.736 245.679 632.629 245.475 632.523 C 244.562 631.883 243.101 631.616 242.199 631.509 C 240.835 631.336 239.523 631.443 238.379 631.896 C 238.262 631.923 238.15 631.936 238.028 631.962 C 237.702 632.056 237.434 632.202 237.186 632.376 C 237.048 632.416 236.913 632.469 236.775 632.509 L 236.569 632.589 C 234.536 633.309 232.548 634.736 230.944 635.909 C 229.376 637.069 227.725 637.469 225.808 637.109 C 225.548 637.069 225.332 636.99 225.135 636.883 C 224.965 636.776 224.801 636.656 224.642 636.523 C 224.499 636.402 224.4 636.269 224.322 636.136 C 224.259 635.909 224.202 635.669 224.147 635.402 C 224.16 635.069 224.28 634.709 224.439 634.362 C 224.575 634.069 224.743 633.802 225.004 633.602 C 225.704 633.069 226.087 634.509 226.051 634.883 L 226.101 634.883 C 226.165 634.19 226.308 633.549 225.954 633.109 C 225.708 632.283 225.15 632.109 224.562 632.323 L 224.525 632.323 L 224.468 632.349 C 224.043 632.523 223.619 632.869 223.306 633.283 L 223.243 633.389 C 222.598 634.216 222.278 635.309 222.596 636.349 C 223.293 638.656 225.098 639.736 227.351 640.243 C 229.853 640.802 232.33 639.776 234.454 638.562 C 238.165 636.443 240.803 633.509 245.436 634.802 L 245.483 634.802 C 245.608 634.962 245.769 635.016 245.936 635.002 C 246.147 635.069 246.374 635.029 246.541 634.829 L 246.587 634.829 C 251.22 633.536 253.858 636.469 257.569 638.589 C 259.694 639.802 262.17 640.829 264.673 640.269 C 266.924 639.763 268.73 638.683 269.429 636.376 C 269.746 635.323 269.426 634.229 268.78 633.402"/>
</svg>