<svg width="86" height="380" viewBox="202.715 584.407 86.5933 380.048" preserveAspectRatio="xMidYMid meet" xmlns="http://www.w3.org/2000/svg">
  <defs>
    <path class="skin" fill="moccasin" style="stroke-width: 0px; stroke: none; fill-opacity: 1;"/>
  </defs>
  <path class="beard" id="path2074" style="fill:#7a3e1a;fill-opacity:1;fill-rule:nonzero;stroke:none" d="M 240.919 639.218 C 243.502 639.005 246.005 639.285 248.599 639.112 C 250.455 639.005 252.278 638.845 253.625 640.152 C 255.567 642.632 255.635 646.098 256.567 649.072 C 256.815 649.872 257.343 650.992 258.045 651.711 C 256.547 652.152 255.049 652.565 253.419 652.752 C 248.258 653.339 243.45 653.085 238.338 652.352 C 236.826 652.019 235.327 651.645 233.857 651.298 L 233.827 651.285 C 234.179 651.058 234.494 650.725 234.75 650.258 C 235.466 648.965 235.927 647.458 236.037 645.992 L 236.062 645.779 C 236.111 645.592 236.177 645.418 236.221 645.218 C 236.487 644.072 236.674 642.939 236.997 641.965 L 237.018 641.898 C 237.57 640.245 238.515 639.418 240.919 639.218 Z M 282.739 626.965 L 282.567 626.939 C 281.439 634.992 276.922 642.365 270.226 646.965 C 269.269 647.618 268.234 648.218 267.157 648.779 C 265.445 649.565 263.619 650.192 261.802 650.658 C 261.674 650.592 261.551 650.498 261.427 650.365 C 260.378 649.272 259.422 648.205 258.542 646.965 C 257.083 644.898 256.562 642.352 255.373 640.152 C 254.755 639.005 253.547 637.858 252.198 637.725 C 249.497 637.458 246.882 637.512 244.146 637.485 C 239.854 637.445 236.659 638.152 235.677 641.418 C 234.935 643.898 234.906 646.312 233.218 648.445 C 232.161 649.779 230.471 649.965 228.794 649.779 C 226.933 649.085 225.135 648.218 223.393 647.112 C 216.531 642.739 212.209 635.272 211.297 627.232 C 211.278 627.085 211.049 627.072 211.054 627.232 C 211.125 629.098 210.99 630.685 211.367 632.552 C 211.775 634.565 212.51 636.498 213.359 638.352 C 215.051 642.045 218.103 645.085 221.305 647.498 C 223.567 649.205 225.049 650.032 228.778 651.765 C 231.565 653.058 234.221 654.019 236.835 654.952 C 239.433 655.885 242.963 657.285 246.893 657.285 C 249.354 657.285 254.917 655.298 254.95 655.285 C 261.007 653.218 264.411 651.912 268.734 649.898 C 270.109 649.258 271.557 648.405 272.663 647.432 C 279.723 641.632 282.63 634.939 282.739 626.965"/>
</svg>