<svg class="mouth" style="z-index:3;" width="86" height="380" viewBox="202.715 584.407 86.5933 380.048" preserveAspectRatio="xMidYMid meet" xmlns="http://www.w3.org/2000/svg"> <defs> <path class="skin" fill="moccasin" style="stroke-width: 0px; stroke: none; fill-opacity: 1;"/> </defs> <path class="lips" d="M 236.844 637.436 C 236.902 637.651 241.392 635.541 243.416 635.513 C 243.416 636.2 244.674 636.32 245.872 637.817 C 246.715 635.334 248.658 635.18 249.219 635.18 C 249.723 635.798 254.852 637.305 254.852 637.651 C 262.991 637.651 253.312 640.591 250.447 644.16 C 246.615 644.16 244.72 644.112 241.561 644.112 C 239.941 644.112 237.444 641.864 237.444 641.522 C 236.819 640.237 234.195 640.527 234.195 638.268 C 233.898 637.651 233.527 637.865 233.23 637.865 L 236.844 637.436 Z" style="stroke-opacity: 0; stroke-width: 0; stroke: rgb(255, 132, 0); fill: rgb(165, 165, 165);"/> <path class="lips" d="M 237.304 637.796 C 237.358 637.991 241.535 636.076 243.417 636.051 C 243.417 636.674 244.59 636.783 245.702 638.141 C 246.489 635.888 248.294 635.749 248.818 635.749 C 249.286 636.309 254.058 637.677 254.058 637.991 C 261.629 637.991 252.624 640.659 249.959 643.897 C 246.395 643.897 244.632 643.853 241.693 643.853 C 240.184 643.853 237.863 641.814 237.863 641.503 C 237.282 640.337 234.839 640.6 234.839 638.551 C 234.563 637.991 234.217 638.185 233.941 638.185 L 237.304 637.796 Z" style="stroke-opacity: 0; stroke-width: 0; stroke: rgb(255, 132, 0); fill: rgb(241, 14, 135);"/></svg>