<svg class="shirtOverlay" width="86" height="380" viewBox="202.715 584.407 86.593 380.048" xmlns="http://www.w3.org/2000/svg" xmlns:xlink="http://www.w3.org/1999/xlink"><defs><pattern id="d" width="20" height="20" patternUnits="userSpaceOnUse" viewBox="0 0 100 100"><g transform="matrix(.18702 0 0 .23672 -20.448 -74.198)"><rect transform="scale(1 -1)" rx="68" ry="68" height="254.57" width="600" y="-742.36" x="74.14" fill="#c48a20"/><rect rx="68" ry="68" height="254.57" width="598.32" y="292.36" x="74.98" fill="#abb400"/><path d="M141.89 741.84c-24.74 0-46.26-13.54-57.84-33.76L494.51 514.8 178.37 741.84h-36.48zM494.51 514.8L308.7 741.84h-81.65L494.51 514.8zL391.45 741.84h-54.12L494.51 514.8zl-38.57 227.04h-43.39l81.96-227.04zl20.23 227.04h-40.47l20.24-227.04zl81.95 227.04h-43.39L494.51 514.8zl149.21 215.51c-10.66 7.29-23.48 11.53-37.34 11.53h-8.82L494.51 514.8zL673.3 666.58v7.11c0 15.94-5.33 30.57-14.27 42.15L494.51 514.8zl178.79 84.19v44.22L494.51 514.8zl178.18 31.38c.4 3.03.61 6.11.61 9.24v26.34L494.51 514.8zL75.04 553.61l419.47-38.81zL74.98 671.9v-83.21l419.53-73.89z" fill="url(#a)"/><path d="M141.89 292.38c-24.74 0-46.26 13.53-57.84 33.76l410.46 193.27-316.14-227.03h-36.48zm352.62 227.03L308.7 292.38h-81.65l267.46 227.03zL391.45 292.38h-54.12l157.18 227.03zl-38.57-227.03h-43.39l81.96 227.03zl20.23-227.03h-40.47l20.24 227.03zl81.95-227.03h-43.39l-38.56 227.03zL643.72 303.9c-10.66-7.29-23.48-11.52-37.34-11.52h-8.82L494.51 519.41zL673.3 367.64v-7.11c0-15.94-5.33-30.58-14.27-42.16L494.51 519.41zl178.79-84.19V391L494.51 519.41zl178.18-31.38c.4-3.03.61-6.1.61-9.24v-26.34l-178.79 66.96zl-419.47-38.8c.94 36.9 30.38 66.33 66.85 66.33h54.93l297.69-27.53zL74.98 362.31v83.22l419.53 73.88z" fill="#e3e936"/><path d="M558 230c0 85.05-68.95 154-154 154s-154-68.95-154-154S318.95 76 404 76s154 68.95 154 154z" transform="translate(-148.14 150.93) scale(1.5714)" fill="url(#b)"/><path d="M176.03 453.31c.03 1.18-.43 1.75-1.28 2.32-.15 1.72-1.35-1.18-2.37.15-1.73 1.58.3 4.56-1.57 5.85.12 1.17.13 1.35-.81.37-1.84-.88-1.38 1.93-.78 2.66-.68.65-.94.97-1.69.06-2.36-.21-.36 3.49-.84 4.72-.98-.52-3.81-.77-2.63 1.06.39 1.2 1.22 4.47-.68 2.72-1.21-.98-4.85.69-3 1.87 1.92.2 2.45 3.8.34 3.94-.45.91-.12 2.26-1.47 2.63-1.32.21-3.12.64-2.37 2.47-.18.96 1.58 1.99 1.12 2.5-2.76.39-5.53-1.15-8.37-1-2.48-.03-4.56-.82-6.66-1.63-1.6.2-1.07-1.38.25-1.19 1.62-1.08-.55-2.66-1.84-2.12-1.19.21-3.21-.82-1.91-2.06.64-1.12-.96-3.21.97-3 1.75-.26 1.17-2.73-.63-2-1.4.3-1.91-.59-2.12-1.66-.57-.74-1.97.28-1.19-1.28.53-1.19-.18-2.36-.94-2.75-.08-1.88-.55-4.56-2.5-4.94-1.3-1.21.66-2.35-.25-3.72-.74-1.58-1.53-4.57-3.62-4.5-.89 1.02-1.06 1.25-1.75 0-1.1-1.29-2.24.59-1.63 1.53-1.33-.11-3.09-.3-4.15.13-.52-1.34-1.94-1.45-2.69-.41-2.35-.11-.58 3.7-2 4.75-.55 1.31-.55 2.94-.31 4.25-1.54-1.83-2.53 1.33-2.35 2.59.45 2.3-2.2 3.18-2.22 5.13.1.63-1.27 1.3-.53 2.31.1 1.32-.1 3.78-2.03 2.66-1.45-.93-4.74.72-4.69-1.78-.86-1.53-1.78-3.94-3.62-4.31-.82.84.1 2.5-1.56 2.37-1.56.61-2.37 2.31-3.1 3.41-1.31.14-.4 1.92-2.09 1.97-1.31.93-3.39.95-3.44-1.04-.03-1.26-1.76-1.43-2.06-1.9.78-.72 1.78-2.56-.13-2.28-.78.08-3.35.62-1.43-.03 1.11-.86-1.74-.84-.53-1.94 1.25-1.59-1.02-2.03-1.6-2.75.82-1.05-.08-2.27-1.06-1.85-.32-1.61-2.59.58-3.19-1.18-.93-.78-.96-4.25-2.62-2.6-.94 1.05-1.04 3.58-2.35 3.82-1.86-1.64-2.69 1.37-2.28 2.84-.16 1.99 1.11 3.41.28 5.25-.81 23.92-.27 47.88-.43 71.81h601v-65.5c-1.1.16.52-1.67-.07-2.59-.51-2.52 1.08-6.31-2.19-7.22-3.86-2.32-7.62-4.93-11.53-7.09-14.25 1.07-28.58 1.31-42.78 2.87-4.82 1.15-9.22 4.57-14.46 3.33-3.51.03-7.79-2.08-10.91.01-.8.88.24 1.99-1.16 2.25-1.77 1.63-2.95 4.23-5.34 1.49-3.18-1.45-5.95-4.77-9.74-3.56-11.03.64-22.1 1.94-33.14 1.26-5.97-.45-12.18-2.05-17.93-2.34-1.22 1.4-2.82 3.26-3.13 4.84-4.36 4.06-8.57 9.17-11.75 14.22-2.14-.6-3.47 3.8-.62 3.38 1.64.36.52 3.14.56 4.37-.21 3.01-2.83 5.56-2.78 8.47 1.03.36 2.33.64 2.53 2.06.69 1.77.93 4.25 0 5.88-1.38-1.29-3.32 1-1.81 2.03-1.05.87-.48-1.96-1.32-2.47-.64-1.46-1.8-.56-2.37.31-.96.49.76-1.67-1.5-1.13-1.37-.18-3.68-.1-4.53-.87.97-.38 2.76 1.04 2.81-.75 1.42-1.29-.84-3.64-1.53-1.65.28 1.19-2.23.43-1.41-.82.16-3.1-.04-7.21.35-9.75 1.19.75 4.95.07 3.34-1.78-1.11-.65-2.7.08-3.47.97-1.01-3.58 1.6-2.54 3.97-2.59 1.85.12 1.21-2.13-.34-1.85-1.35-.44-4.22.74-3.6-1.65-.85-2.84 3.9.24 3.53-2.38-2.76-2.18-6.93-1.02-10.15-.69 1.38.98 5.51 1.19 4.81 3.63-.74.82-3.73.28-2.63 1.84 2.6.18 2.09 3.12 2.13 5-.7 2.37 1.64 6.9-1.63 7.44-1.12-.05-2.9 3.01-2.5.63-.01-1.66 1.57-2.75.85-4.66-1.62-1.92-.17-5.14-1.6-7.28-1.9.37-.83 3.54-1.3 5-.25 3.51.26 7.44-1.41 10.56.64.74-.85 2.78-1.19.94-1.31-8.76.24-18-1.19-26.78-1.42-1.13-1.41 1.32-2.06 1.75-1.33.08-.91 1.08-.06 1.53.78 7.3.54 14.75.21 22.09-.04 1.27-2.33.39-2.21 2-.53 1.15.57 3.21-1.1 3.25-1.07.53-1 2.55-2.29.88-1.15-.74-2.75-1.6-2.4-3.07-1.28-.04-.71-1.29-.93-2.5 0-1.97-1.5-7.18-1.68-2.65-.3 1.5.4 4.12-.45 5.19-1.49-.73-3.41.13-4.37.62-.3-1.26-1.46-.69-1.97 0-2.13.86-3.64-1.93-2.25-3.31 1.43.34 2.72-1.18.87-1.53-1.55-1.8-.48-5.06-.84-7.32-.12-8.53.89-17.18.03-25.65-.57-1.52-2.32-.37-1.97 1-.57 9.04.01 18.32-1.5 27.22-1.26.02-1.1 1.66-2.44 1.53-.87.53-.55 2.36-1.4.81-1.5-1.16-2.85 1.59-3.1 2.81.91 2.23 4.57.24 5.94 1.47.63 3.36-2.07 2.5-4.37 2.15-2.02.18-4.2-.83-3.85-3.12-.5-5.71.61-11.8-.81-17.31-1.74-.67-1.22 2.77-1.45 3.87-.38 5.27.34 10.73-.64 15.88-5.36.06-10.9-.02-16.16-.94-.78-.61-.72-3.41-1.94-1.97-.03.97.11 3.02-1.4 1.94-1.28-.73-3.29-1.81-4.13.06-1.64 1.68-1.52-1.4-1.37-2 1.32 1.71 3.78-2.08 1.22-1.87-.9.03-1.62 2.08-1.35.09.36-5.31-.71-10.94.78-16.06.56-1.11 4.09-4 1.47-3.41-1.05.85-2.15 2.4-3.44 1.32-1.7 1.32-.59 4.65-.96 6.68-.3 3.66.61 7.92-1.13 11.22-1.13.39-3.12 1.64-2.46-.53.47-1.07-.47-3.95-1.48-2-.04.95-1.44 2.79-1.34.81-.22-1.53 2.57-2.28 1.03-3.75-.85-.86-2.22-1.64-.84-2.65.8-1.74-1.02-3.11-2.38-3.22.05-1.01.29-4.32-1.5-3.22-.87 1.44-2.96-1.42-3.31.59.23.99.88 2.97-.91 1.97-2.21-.32 1.01-1.27.44-2.62.34-1.21-1.08-1.28-1.34-1.72-.15-1.95-.44-5.18-2.47-5.84-.71.55-.14 3.09-.85 1.09.12-1.94-1.97-4.26-3.78-2.66-.63.85.55 2.16-.62 2.63-.97 2.71 1.96 4.42 2 6.87-1.26.95-5.47 1.1-4.35 3.5.47.81 1.42 2.96.69 3.32-2.62-.89-1.45 3.54.47 3.4 1 1.61-1.53 1.95-1.53 3.6-.88-1.51-1.71.02-1.66 1.18-.57-.87-1.71-.7-.5-1.43.52-2.07-2.57-1.25-3.53-1.57-.44-1.26-2.55-.45-1.75-2.4-.12-3.2 1.44-6.65.53-9.69-1.63-1.13-1.55 2.26-1.78 3.28-.65 2.88.2 6.86-2.15 8.97-1.23.55-3.28.4-2.54-1.44.3-1.08 2.06-1.54.91-2.87-1.67-2.86-.46-6.57-1.56-9.63-1.25 3.11-.81 6.88-2.56 9.72-.15 1.12 2.05 3.24-.38 3.09-2.53.62-5.65-.99-4.81-3.96-.16-1.74 1.53-2.7 3.06-2.66.48-2.04-3.06-.25-2.47-2.41-.6-2.04 3.55-.43 2.22-2.25-.98-.7-3.26-1.77-3.78-.15-.71-.64-2.02-1.05-2.81-.28-.31-1.32.82-4.26-.94-4.57-1.76 2.49.08 6.26-1.59 8.69-1.09-.37-2.45-.06-2.6 1.22-.71-4.15-1.31-.43-2.78 1.19-1.21 1.25-1.44.04-.91-1.16.47-1.72-1.93-1.94-1.96-.28.3 1.63-.72 1.14-1.75 1.25-1.18.07-.97 2.65-1.82 1-1.13-.44-.74 1.16-1.87.97-1.56.52-2.18 3.72-3.66 1.25-1.55-2.54-2.73-1.68-4 .34-1.11 1.05-3.82 1.54-3.47-.78-.21-1.8-.42-4.75-2.47-5.19-.47.94-.62 1.31-1.37.03-.7-1.18-1.45-4.39-3.34-2.9-.68.47-1.54 2.99-1.79.94.38-1.34-.86-3.76-2.25-2.29-.47 1.5-2.08.72-1.68-.68.04-1.65-1.88-2.04-1.75-3.75-.05-1.69-1.9-1.22-2.22 0 .08-1.92-.32-5.84-3.16-4.6-1.5.33-2.3 2.15-2.81 3.03-1.07-.64-1.45 1.36-2.25-.28-1.9-1.63-2.66 1.88-3.03 3.16-.1 1.06.35 1.51-.97 1.53-.21-.2-.32-1.45-.91-1.53 1.06-.93.6-3.42-.93-2.31-.56.91-2.63 2.11-2.66.25.08-1.05-1.17-1.45-1.84-.94.74-.73 1.64-2.12-.1-2.22-2.51.45.15-2.44.06-3.62.34-1.77 1.72-7.14-.6-3.4-.23.44-2.57 2.89-1.3 1.33 1.32-1.08.07-4.05-1.41-2.37-.59.85-1.06 3.61-1.53 1.22.63-1.04-.13-1.74-.94-1.72-.82-1.8-.57-5.99-1.67-6.13-.76 1.77-.87 4.57-.67 6.07-.43-.77-1.39-1.6-1.94-.22-.5.77-1.02 1.02-.97-.03-.4-1.4-2.66-1.92-2.31.06.01 2.1-2.1.48-2.84-.19-2-.03-.53 3.81-.91 3.84-1.13-1.42-2.59.07-1.66 1.41.72 1.68 1.91 3.31 1.91 5.03 1.15.6-.32 2.47 1.28 2.1 1.12-.71 1.28 3.34-.31 1.87-.52-.93-2.34-2.57-3.22-1.06-.54 1.28 2.85 2.9.13 2.62-4.72.19-9.93-1.69-14.38.07-1.03.71-1 2.18-.72 3.31-1.18-.56-1.43.36-1.56-1.31-.87-2-1.58.53-2.28 1.18-1.09.49-.38 1.56.53 1.57.86 1.55-.97 1.84-.53 3.56.18 1.35.11 2.98-1.63 2.72-.83-.03-1.21 2.08-1.75.68-.31-5.58.9-11.21.88-16.75-1.57-1.78-1.73 2.11-1.81 3.13-.69 5.07-.67 10.4-1.16 15.37-1.05.98-3.14 1.3-3.5 2.63-1.11-.71-1.43-4.37-3.06-3.13-.78.44-2.61-1.5-2.91.41-.89.54-.84-1.5-1.66-1.62 1.06-.59.62-2.14 1.88-2.6.29-2.02-1.42-4.12 0-6.03-.14-1.43-1.62-2.38-1.44-4.09.35-1.79-.74-2.93-2.28-2.41-1.38-1.47 2.77-2.45.84-3.91-1.59.16-4.36.65-5.15-1.25.58-.86 1.74-1.99.5-2.9-.53-1.77-.26-3.94-.91-5.53 1.1-.66 2.44-3.35.13-3-2.12.14-3.11-1.77-3.63-3.44-.31-.81-2.86-1.89-.84-1.78 1.17 1.48 4.84.39 3.62-1.56-3.42-1.92-6.69 1.27-8.84 3.62-.11-4.51 1.26-9.37.12-13.72-2.05-1.22-2.32 2.43-2.57 3.75-.41 3.73-1.28 7.4-2.55 10.78.84.7 1.47 2.9.34 3.57-.91-.18-3.66.1-2.12 1.34 2.05.36 2.16 2.07 1.53 3.83-1.26 3.19-1.17 6.63-1.57 10.03.09 2.03-2.83 3.96-.99 5.8-2.57.28-5.46.53-4.35-2.91-.4-1.93 1.82-3.14.72-5-.67-1.22.75-4.54-1.22-4.25-.53.33-1.72 2.48-1.18.66.57-1.85-1.19-3.03-.66-4.97.33-1.28-.21-3.12-.84-3.63.77-.96-.18-1.7.56-2.75.08-1.83-2.36-1.52-3.06-2.97-.99-.75-1.51.45-2.41-.15-1.74.68-1.38 3.19-1.56 4.22-1.05-.65-2.84-.03-2.03 1.4-1.7.42-.36 2.52-.13 3.56-.97-1.54-2.91-1.2-4.28-1.56-.53-1.18-2 .81-1.5-.9.6-1.32-1.04-1.46-1.34-1.54-.42-2.04-3.41.68-4.19-1.09-2.44-.42-3.69 3.51-6.19 3.13-.72-1.11-2.29-1.16-3.25-1.97-1.68.23-2.61 2.26-4.28 2.03-.61.98-.98 3.22-2.25 1.72-.91-.2 1.26-1.59.5-2.69-.5-1.8-3.14-2.62-2.25-4.72-.74-1.33-3.86.77-2.38-1 .65-1.33.91-3.73-.71-4.37 1.95-2.33-.37-4.84-1.88-6.54.15-1.45-1.32-1.66-2.12-2.28-.2-.49-.8-2.84-1.35-1.25zm61.28 17.6c1.21.73-1.02 1.79-.25.56.09.11.08-.79.25-.56zm289.41 2.31c.42.02.41-1.09 0 0zm.34.25c.24.32.66-1.26 0 0zm-.4-.06v-.03.03zm1.72 1.31c1.34 1.41.82 1.16.81.16-.16.77-.86-.56-.81-.16zm-1.1.94c.39.45.68-.58 0 0zm2.16.37c.23.31.91-.93 0 0zm-2.16-.09c1.32.39-.15-.51 0 0zm-.06.12c1.1.69.13-.45 0 0zm-.06.16c1.13.89-.02-.36 0 0zm2.15.12c.04-.35-1.26-.06 0 0zm.38.1c-.04.39 1.15-.92 0 0zm-2.69.03c.98.96.13-.39 0 0zm2.84.31c.23.3 1.01-.77 0 0zm-3-.12c.26 1.48.74-.62 0 0zm.1.59c-.09-.52-.81-.49 0 0zm-2.66-.34l.03-.03-.03.03zm5.66.09c.51 1.85.81-2.02 0 0zm-3.63.13c.58 1.24.24-.33 0 0zm4.66.21c-1.05.06 2.14 1.1.47 1.13-2.05.14.03.61 1.25.53-.22-.82-.27-.72-.88-1.25-.1.04-.47-.66-.84-.41zm-7.41.04l.03-.04-.03.04zm-.34.09l.28-.09-.28.09zm-.19.06l.13-.03-.13.03zm-.25.03c.1.06.48-.13 0 0zm-330.25.28c.07.65-.18 0 0 0zm332.78.82c.54 1.08 3.18-.44.75.06-1.45.52.46-.81-.75-.06zm2.88.5c.66-.67-.71-.67 0 0zm-6.78.25l.34-.32-.34.32zm-1.03.28c.54.85 1.37-1 0 0zm-370.25 7.94c2.37-.02-1.55.46-.32.03l.28-.03h.04zm299.43 2.56c-1.52 1.63 2.34 3.06 1.69.78-.22-.56-1.23-1.61-1.69-.78zm-140.72.06c.54.26-.52.55 0 0zm-38.15.44c-1.36-.2-1.67 1.52-.13 1.34 1.08.4 3.85-.31 2.03-1.25-.61-.15-1.27-.16-1.9-.09zm19.69.06c.05-.04.03.1 0 0zm-138.29 2.47c-.04.03-.11-.11 0 0zm-.06.16v.03-.03zm218.88.43c.98 1.13 3.46-.83 2.72 1.38.48 2.03-1.88.55-2.82.75.04-.67.03-1.59.1-2.13zm-98.07.82c1.48 1.95 1.36 5.04.38 7.18-2.16.55.68 2.18 1.84 1.88 2.05-.07 3.7 2.25 6 1.47 2.4-.11-1.66.26-2.47 0-1.52-.05-2.95-.61-3.9-1.38-.86.18-.34 1.75-1.69 1.28-1.99 1.12-.46-1.74-1-2.97.07-1.49-.44-3.6-.5-4.71 1.15-.04 1.04-3.06 1.34-2.75zm97.97 2.31c2.51.63 3 4.89 1.13 6-.54-1.11 2.01-3.56-.31-3.72-1.46.99-.71-1.76-.82-2.28zm124.38 2.5c-1.35.24-2.93 2.92-.69 2.34 1.22-.03 2.76-2.5.69-2.34zm-.88 4.56c-1.23 1.03.44 3.74 1.1 1.59.26-.7-.18-2.26-1.1-1.59zm-226.22.72c1.54.04 1.35.4.07.41-.53.74-.83.17-1.44-.16.44-.18.9-.23 1.37-.25zm4 1.34c1.77 1.4 4.83.29 6.66 1.32.17 1.36.73 4-1.62 3.3-1.83-.3-3.82.88-5.32.7-.08-1.48-1.43-4.41.28-5.32zm-3.78.41c.82 1 .53 1.36 0 0zm112.82.81c1.42.09 6.7.11 2.68.19-.89.04-6.09-.4-2.68-.19zm8.56.1c1.42-.7-1.54 2.48-.81.96-.02-.59.15-1 .81-.96zm8.19.87c.01 1.23-.68 2.87-.29.69-.03.05.24-1.25.29-.69zm98.28-.09c.46.85-.48 1.81-1.16 1.12.28-.45.73-.85 1.16-1.12zm-61.25.43c-1.84.44-.95 2.87.65 1.85.9-.57.51-2.17-.65-1.85zm-19.44.1c2.09.4-.6 1.63-.34.06l.25-.06h.09zm3.78.37c1.64-.45 3.11 1.11 1.88 2.47-2.8 1.59-3.51-2.74-1.88-2.47zm-42.72.25c2.59.29 5.86-.13 8.03 1.28.15 1.11-2.2-.65-3.09-.34-1.58-.41-4.1-.17-5.03.41-.07-1.32-3.47-.11-1.97-1.25.68-.1 1.38-.04 2.06-.1zm127.25.13c-1.51-.05-1.67 1.79-.12 1.9.89.75 3.43.86 2.4-.78-.47-.77-1.36-1.32-2.28-1.12zm-117.37.75c-.06 1.67-.24.18 0 0zm-.22 2.65v-.03.03zc-.79.31-.13 2.32-.28 2.29-.32.79.08.47-.28 1.28.7.77.59-.84.43-.88-.16-.64.89-2.05.13-2.69zm0 .04c.1-.04-.05-.06 0 0zm-.03.09c-.14.07-.02-.1 0 0zm.06-.03c-.05.12-.05-.12 0 0zm117.09.87c-.53.22-1.82 1.5-1.06.38.05-.24 1.83-.64 1.06-.38zm-55.18 1.03c1.03.25 2.65 2.6.65 2.44-4.41-.42-9.32.16-13.37-1.78-.01-1.22 4.86-.28 6.68-.53 2.03-.22 3.8.55 5.63.94.9-.03.09-1.33.41-1.07zm6.21.44c-1.34 1.72 2.21 1.04 2.41 1.56-1.14.37-3.63 1.35-4.5.22-.44-1.21 1.33-.3 1.34-1.59.21-.13.48-.12.75-.19zm47.04.69c-.48 1.37.12-1.1 0 0zm-81.79 3.25c3.74-.06-.74.44-.5.03.17 0 .34-.03.5-.03zm4.29 0c1.32.35-.29.56 0 0zm11.15.06c4.12.12 9.34.42 12.72.69-4.93.03-10 .4-14.84-.5.67-.23 1.42-.11 2.12-.19zm66.19.5c.33 1.13 2.2.12 2.25.41-.83.02-4.04.93-2.25-.41zm-48.75.28c1.3-.16 1.66.66.28.75-.75.17-1.47-.72-.28-.75zm47.19 9.38c.42.93-1.75.59-.25.06.09.01.15-.09.25-.06z"/><path d="M176.03 453.31c.03 1.18-.43 1.75-1.28 2.32-.15 1.72-1.35-1.18-2.37.15-1.73 1.58.3 4.56-1.57 5.85.12 1.17.13 1.35-.81.37-1.84-.88-1.38 1.93-.78 2.66-.68.65-.94.97-1.69.06-2.36-.21-.36 3.49-.84 4.72-.98-.52-3.81-.77-2.63 1.06.39 1.2 1.22 4.47-.68 2.72-1.21-.98-4.85.69-3 1.87 1.92.2 2.45 3.8.34 3.94-.45.91-.12 2.26-1.47 2.63-1.32.21-3.12.64-2.37 2.47-.18.96 1.58 1.99 1.12 2.5-2.76.39-5.53-1.15-8.37-1-2.48-.03-4.56-.82-6.66-1.63-1.6.2-1.07-1.38.25-1.19 1.62-1.08-.55-2.66-1.84-2.12-1.19.21-3.21-.82-1.91-2.06.64-1.12-.96-3.21.97-3 1.75-.26 1.17-2.73-.63-2-1.4.3-1.91-.59-2.12-1.66-.57-.74-1.97.28-1.19-1.28.53-1.19-.18-2.36-.94-2.75-.08-1.88-.55-4.56-2.5-4.94-1.3-1.21.66-2.35-.25-3.72-.74-1.58-1.53-4.57-3.62-4.5-.89 1.02-1.06 1.25-1.75 0-1.1-1.29-2.24.59-1.63 1.53-1.33-.11-3.09-.3-4.15.13-.52-1.34-1.94-1.45-2.69-.41-2.35-.11-.58 3.7-2 4.75-.55 1.31-.55 2.94-.31 4.25-1.54-1.83-2.53 1.33-2.35 2.59.45 2.3-2.2 3.18-2.22 5.13.1.63-1.27 1.3-.53 2.31.1 1.32-.1 3.78-2.03 2.66-1.45-.93-4.74.72-4.69-1.78-.86-1.53-1.78-3.94-3.62-4.31-.82.84.1 2.5-1.56 2.37-1.56.61-2.37 2.31-3.1 3.41-1.31.14-.4 1.92-2.09 1.97-1.31.93-3.39.95-3.44-1.04-.03-1.26-1.76-1.43-2.06-1.9.78-.72 1.78-2.56-.13-2.28-.78.08-3.35.62-1.43-.03 1.11-.86-1.74-.84-.53-1.94 1.25-1.59-1.02-2.03-1.6-2.75.82-1.05-.08-2.27-1.06-1.85-.32-1.61-2.59.58-3.19-1.18-.93-.78-.96-4.25-2.62-2.6-.94 1.05-1.04 3.58-2.35 3.82-1.86-1.64-2.69 1.37-2.28 2.84-.16 1.99 1.11 3.41.28 5.25-.81 23.92-.27 47.88-.43 71.81h601v-65.5c-1.1.16.52-1.67-.07-2.59-.51-2.52 1.08-6.31-2.19-7.22-3.86-2.32-7.62-4.93-11.53-7.09-14.25 1.07-28.58 1.31-42.78 2.87-4.82 1.15-9.22 4.57-14.46 3.33-3.51.03-7.79-2.08-10.91.01-.8.88.24 1.99-1.16 2.25-1.77 1.63-2.95 4.23-5.34 1.49-3.18-1.45-5.95-4.77-9.74-3.56-11.03.64-22.1 1.94-33.14 1.26-5.97-.45-12.18-2.05-17.93-2.34-1.22 1.4-2.82 3.26-3.13 4.84-4.36 4.06-8.57 9.17-11.75 14.22-2.14-.6-3.47 3.8-.62 3.38 1.64.36.52 3.14.56 4.37-.21 3.01-2.83 5.56-2.78 8.47 1.03.36 2.33.64 2.53 2.06.69 1.77.93 4.25 0 5.88-1.38-1.29-3.32 1-1.81 2.03-1.05.87-.48-1.96-1.32-2.47-.64-1.46-1.8-.56-2.37.31-.96.49.76-1.67-1.5-1.13-1.37-.18-3.68-.1-4.53-.87.97-.38 2.76 1.04 2.81-.75 1.42-1.29-.84-3.64-1.53-1.65.28 1.19-2.23.43-1.41-.82.16-3.1-.04-7.21.35-9.75 1.19.75 4.95.07 3.34-1.78-1.11-.65-2.7.08-3.47.97-1.01-3.58 1.6-2.54 3.97-2.59 1.85.12 1.21-2.13-.34-1.85-1.35-.44-4.22.74-3.6-1.65-.85-2.84 3.9.24 3.53-2.38-2.76-2.18-6.93-1.02-10.15-.69 1.38.98 5.51 1.19 4.81 3.63-.74.82-3.73.28-2.63 1.84 2.6.18 2.09 3.12 2.13 5-.7 2.37 1.64 6.9-1.63 7.44-1.12-.05-2.9 3.01-2.5.63-.01-1.66 1.57-2.75.85-4.66-1.62-1.92-.17-5.14-1.6-7.28-1.9.37-.83 3.54-1.3 5-.25 3.51.26 7.44-1.41 10.56.64.74-.85 2.78-1.19.94-1.31-8.76.24-18-1.19-26.78-1.42-1.13-1.41 1.32-2.06 1.75-1.33.08-.91 1.08-.06 1.53.78 7.3.54 14.75.21 22.09-.04 1.27-2.33.39-2.21 2-.53 1.15.57 3.21-1.1 3.25-1.07.53-1 2.55-2.29.88-1.15-.74-2.75-1.6-2.4-3.07-1.28-.04-.71-1.29-.93-2.5 0-1.97-1.5-7.18-1.68-2.65-.3 1.5.4 4.12-.45 5.19-1.49-.73-3.41.13-4.37.62-.3-1.26-1.46-.69-1.97 0-2.13.86-3.64-1.93-2.25-3.31 1.43.34 2.72-1.18.87-1.53-1.55-1.8-.48-5.06-.84-7.32-.12-8.53.89-17.18.03-25.65-.57-1.52-2.32-.37-1.97 1-.57 9.04.01 18.32-1.5 27.22-1.26.02-1.1 1.66-2.44 1.53-.87.53-.55 2.36-1.4.81-1.5-1.16-2.85 1.59-3.1 2.81.91 2.23 4.57.24 5.94 1.47.63 3.36-2.07 2.5-4.37 2.15-2.02.18-4.2-.83-3.85-3.12-.5-5.71.61-11.8-.81-17.31-1.74-.67-1.22 2.77-1.45 3.87-.38 5.27.34 10.73-.64 15.88-5.36.06-10.9-.02-16.16-.94-.78-.61-.72-3.41-1.94-1.97-.03.97.11 3.02-1.4 1.94-1.28-.73-3.29-1.81-4.13.06-1.64 1.68-1.52-1.4-1.37-2 1.32 1.71 3.78-2.08 1.22-1.87-.9.03-1.62 2.08-1.35.09.36-5.31-.71-10.94.78-16.06.56-1.11 4.09-4 1.47-3.41-1.05.85-2.15 2.4-3.44 1.32-1.7 1.32-.59 4.65-.96 6.68-.3 3.66.61 7.92-1.13 11.22-1.13.39-3.12 1.64-2.46-.53.47-1.07-.47-3.95-1.48-2-.04.95-1.44 2.79-1.34.81-.22-1.53 2.57-2.28 1.03-3.75-.85-.86-2.22-1.64-.84-2.65.8-1.74-1.02-3.11-2.38-3.22.05-1.01.29-4.32-1.5-3.22-.87 1.44-2.96-1.42-3.31.59.23.99.88 2.97-.91 1.97-2.21-.32 1.01-1.27.44-2.62.34-1.21-1.08-1.28-1.34-1.72-.15-1.95-.44-5.18-2.47-5.84-.71.55-.14 3.09-.85 1.09.12-1.94-1.97-4.26-3.78-2.66-.63.85.55 2.16-.62 2.63-.97 2.71 1.96 4.42 2 6.87-1.26.95-5.47 1.1-4.35 3.5.47.81 1.42 2.96.69 3.32-2.62-.89-1.45 3.54.47 3.4 1 1.61-1.53 1.95-1.53 3.6-.88-1.51-1.71.02-1.66 1.18-.57-.87-1.71-.7-.5-1.43.52-2.07-2.57-1.25-3.53-1.57-.44-1.26-2.55-.45-1.75-2.4-.12-3.2 1.44-6.65.53-9.69-1.63-1.13-1.55 2.26-1.78 3.28-.65 2.88.2 6.86-2.15 8.97-1.23.55-3.28.4-2.54-1.44.3-1.08 2.06-1.54.91-2.87-1.67-2.86-.46-6.57-1.56-9.63-1.25 3.11-.81 6.88-2.56 9.72-.15 1.12 2.05 3.24-.38 3.09-2.53.62-5.65-.99-4.81-3.96-.16-1.74 1.53-2.7 3.06-2.66.48-2.04-3.06-.25-2.47-2.41-.6-2.04 3.55-.43 2.22-2.25-.98-.7-3.26-1.77-3.78-.15-.71-.64-2.02-1.05-2.81-.28-.31-1.32.82-4.26-.94-4.57-1.76 2.49.08 6.26-1.59 8.69-1.09-.37-2.45-.06-2.6 1.22-.71-4.15-1.31-.43-2.78 1.19-1.21 1.25-1.44.04-.91-1.16.47-1.72-1.93-1.94-1.96-.28.3 1.63-.72 1.14-1.75 1.25-1.18.07-.97 2.65-1.82 1-1.13-.44-.74 1.16-1.87.97-1.56.52-2.18 3.72-3.66 1.25-1.55-2.54-2.73-1.68-4 .34-1.11 1.05-3.82 1.54-3.47-.78-.21-1.8-.42-4.75-2.47-5.19-.47.94-.62 1.31-1.37.03-.7-1.18-1.45-4.39-3.34-2.9-.68.47-1.54 2.99-1.79.94.38-1.34-.86-3.76-2.25-2.29-.47 1.5-2.08.72-1.68-.68.04-1.65-1.88-2.04-1.75-3.75-.05-1.69-1.9-1.22-2.22 0 .08-1.92-.32-5.84-3.16-4.6-1.5.33-2.3 2.15-2.81 3.03-1.07-.64-1.45 1.36-2.25-.28-1.9-1.63-2.66 1.88-3.03 3.16-.1 1.06.35 1.51-.97 1.53-.21-.2-.32-1.45-.91-1.53 1.06-.93.6-3.42-.93-2.31-.56.91-2.63 2.11-2.66.25.08-1.05-1.17-1.45-1.84-.94.74-.73 1.64-2.12-.1-2.22-2.51.45.15-2.44.06-3.62.34-1.77 1.72-7.14-.6-3.4-.23.44-2.57 2.89-1.3 1.33 1.32-1.08.07-4.05-1.41-2.37-.59.85-1.06 3.61-1.53 1.22.63-1.04-.13-1.74-.94-1.72-.82-1.8-.57-5.99-1.67-6.13-.76 1.77-.87 4.57-.67 6.07-.43-.77-1.39-1.6-1.94-.22-.5.77-1.02 1.02-.97-.03-.4-1.4-2.66-1.92-2.31.06.01 2.1-2.1.48-2.84-.19-2-.03-.53 3.81-.91 3.84-1.13-1.42-2.59.07-1.66 1.41.72 1.68 1.91 3.31 1.91 5.03 1.15.6-.32 2.47 1.28 2.1 1.12-.71 1.28 3.34-.31 1.87-.52-.93-2.34-2.57-3.22-1.06-.54 1.28 2.85 2.9.13 2.62-4.72.19-9.93-1.69-14.38.07-1.03.71-1 2.18-.72 3.31-1.18-.56-1.43.36-1.56-1.31-.87-2-1.58.53-2.28 1.18-1.09.49-.38 1.56.53 1.57.86 1.55-.97 1.84-.53 3.56.18 1.35.11 2.98-1.63 2.72-.83-.03-1.21 2.08-1.75.68-.31-5.58.9-11.21.88-16.75-1.57-1.78-1.73 2.11-1.81 3.13-.69 5.07-.67 10.4-1.16 15.37-1.05.98-3.14 1.3-3.5 2.63-1.11-.71-1.43-4.37-3.06-3.13-.78.44-2.61-1.5-2.91.41-.89.54-.84-1.5-1.66-1.62 1.06-.59.62-2.14 1.88-2.6.29-2.02-1.42-4.12 0-6.03-.14-1.43-1.62-2.38-1.44-4.09.35-1.79-.74-2.93-2.28-2.41-1.38-1.47 2.77-2.45.84-3.91-1.59.16-4.36.65-5.15-1.25.58-.86 1.74-1.99.5-2.9-.53-1.77-.26-3.94-.91-5.53 1.1-.66 2.44-3.35.13-3-2.12.14-3.11-1.77-3.63-3.44-.31-.81-2.86-1.89-.84-1.78 1.17 1.48 4.84.39 3.62-1.56-3.42-1.92-6.69 1.27-8.84 3.62-.11-4.51 1.26-9.37.12-13.72-2.05-1.22-2.32 2.43-2.57 3.75-.41 3.73-1.28 7.4-2.55 10.78.84.7 1.47 2.9.34 3.57-.91-.18-3.66.1-2.12 1.34 2.05.36 2.16 2.07 1.53 3.83-1.26 3.19-1.17 6.63-1.57 10.03.09 2.03-2.83 3.96-.99 5.8-2.57.28-5.46.53-4.35-2.91-.4-1.93 1.82-3.14.72-5-.67-1.22.75-4.54-1.22-4.25-.53.33-1.72 2.48-1.18.66.57-1.85-1.19-3.03-.66-4.97.33-1.28-.21-3.12-.84-3.63.77-.96-.18-1.7.56-2.75.08-1.83-2.36-1.52-3.06-2.97-.99-.75-1.51.45-2.41-.15-1.74.68-1.38 3.19-1.56 4.22-1.05-.65-2.84-.03-2.03 1.4-1.7.42-.36 2.52-.13 3.56-.97-1.54-2.91-1.2-4.28-1.56-.53-1.18-2 .81-1.5-.9.6-1.32-1.04-1.46-1.34-1.54-.42-2.04-3.41.68-4.19-1.09-2.44-.42-3.69 3.51-6.19 3.13-.72-1.11-2.29-1.16-3.25-1.97-1.68.23-2.61 2.26-4.28 2.03-.61.98-.98 3.22-2.25 1.72-.91-.2 1.26-1.59.5-2.69-.5-1.8-3.14-2.62-2.25-4.72-.74-1.33-3.86.77-2.38-1 .65-1.33.91-3.73-.71-4.37 1.95-2.33-.37-4.84-1.88-6.54.15-1.45-1.32-1.66-2.12-2.28-.2-.49-.8-2.84-1.35-1.25zm61.28 17.6c1.21.73-1.02 1.79-.25.56.09.11.08-.79.25-.56zm289.41 2.31c.42.02.41-1.09 0 0zm.34.25c.24.32.66-1.26 0 0zm-.4-.06v-.03.03zm1.72 1.31c1.34 1.41.82 1.16.81.16-.16.77-.86-.56-.81-.16zm-1.1.94c.39.45.68-.58 0 0zm2.16.37c.23.31.91-.93 0 0zm-2.16-.09c1.32.39-.15-.51 0 0zm-.06.12c1.1.69.13-.45 0 0zm-.06.16c1.13.89-.02-.36 0 0zm2.15.12c.04-.35-1.26-.06 0 0zm.38.1c-.04.39 1.15-.92 0 0zm-2.69.03c.98.96.13-.39 0 0zm2.84.31c.23.3 1.01-.77 0 0zm-3-.12c.26 1.48.74-.62 0 0zm.1.59c-.09-.52-.81-.49 0 0zm-2.66-.34l.03-.03-.03.03zm5.66.09c.51 1.85.81-2.02 0 0zm-3.63.13c.58 1.24.24-.33 0 0zm4.66.21c-1.05.06 2.14 1.1.47 1.13-2.05.14.03.61 1.25.53-.22-.82-.27-.72-.88-1.25-.1.04-.47-.66-.84-.41zm-7.41.04l.03-.04-.03.04zm-.34.09l.28-.09-.28.09zm-.19.06l.13-.03-.13.03zm-.25.03c.1.06.48-.13 0 0zm-330.25.28c.07.65-.18 0 0 0zm332.78.82c.54 1.08 3.18-.44.75.06-1.45.52.46-.81-.75-.06zm2.88.5c.66-.67-.71-.67 0 0zm-6.78.25l.34-.32-.34.32zm-1.03.28c.54.85 1.37-1 0 0zm-370.25 7.94c2.37-.02-1.55.46-.32.03l.28-.03h.04zm299.43 2.56c-1.52 1.63 2.34 3.06 1.69.78-.22-.56-1.23-1.61-1.69-.78zm-140.72.06c.54.26-.52.55 0 0zm-38.15.44c-1.36-.2-1.67 1.52-.13 1.34 1.08.4 3.85-.31 2.03-1.25-.61-.15-1.27-.16-1.9-.09zm19.69.06c.05-.04.03.1 0 0zm-138.29 2.47c-.04.03-.11-.11 0 0zm-.06.16v.03-.03zm218.88.43c.98 1.13 3.46-.83 2.72 1.38.48 2.03-1.88.55-2.82.75.04-.67.03-1.59.1-2.13zm-98.07.82c1.48 1.95 1.36 5.04.38 7.18-2.16.55.68 2.18 1.84 1.88 2.05-.07 3.7 2.25 6 1.47 2.4-.11-1.66.26-2.47 0-1.52-.05-2.95-.61-3.9-1.38-.86.18-.34 1.75-1.69 1.28-1.99 1.12-.46-1.74-1-2.97.07-1.49-.44-3.6-.5-4.71 1.15-.04 1.04-3.06 1.34-2.75zm97.97 2.31c2.51.63 3 4.89 1.13 6-.54-1.11 2.01-3.56-.31-3.72-1.46.99-.71-1.76-.82-2.28zm124.38 2.5c-1.35.24-2.93 2.92-.69 2.34 1.22-.03 2.76-2.5.69-2.34zm-.88 4.56c-1.23 1.03.44 3.74 1.1 1.59.26-.7-.18-2.26-1.1-1.59zm-226.22.72c1.54.04 1.35.4.07.41-.53.74-.83.17-1.44-.16.44-.18.9-.23 1.37-.25zm4 1.34c1.77 1.4 4.83.29 6.66 1.32.17 1.36.73 4-1.62 3.3-1.83-.3-3.82.88-5.32.7-.08-1.48-1.43-4.41.28-5.32zm-3.78.41c.82 1 .53 1.36 0 0zm112.82.81c1.42.09 6.7.11 2.68.19-.89.04-6.09-.4-2.68-.19zm8.56.1c1.42-.7-1.54 2.48-.81.96-.02-.59.15-1 .81-.96zm8.19.87c.01 1.23-.68 2.87-.29.69-.03.05.24-1.25.29-.69zm98.28-.09c.46.85-.48 1.81-1.16 1.12.28-.45.73-.85 1.16-1.12zm-61.25.43c-1.84.44-.95 2.87.65 1.85.9-.57.51-2.17-.65-1.85zm-19.44.1c2.09.4-.6 1.63-.34.06l.25-.06h.09zm3.78.37c1.64-.45 3.11 1.11 1.88 2.47-2.8 1.59-3.51-2.74-1.88-2.47zm-42.72.25c2.59.29 5.86-.13 8.03 1.28.15 1.11-2.2-.65-3.09-.34-1.58-.41-4.1-.17-5.03.41-.07-1.32-3.47-.11-1.97-1.25.68-.1 1.38-.04 2.06-.1zm127.25.13c-1.51-.05-1.67 1.79-.12 1.9.89.75 3.43.86 2.4-.78-.47-.77-1.36-1.32-2.28-1.12zm-117.37.75c-.06 1.67-.24.18 0 0zm-.22 2.65v-.03.03zc-.79.31-.13 2.32-.28 2.29-.32.79.08.47-.28 1.28.7.77.59-.84.43-.88-.16-.64.89-2.05.13-2.69zm0 .04c.1-.04-.05-.06 0 0zm-.03.09c-.14.07-.02-.1 0 0zm.06-.03c-.05.12-.05-.12 0 0zm117.09.87c-.53.22-1.82 1.5-1.06.38.05-.24 1.83-.64 1.06-.38zm-55.18 1.03c1.03.25 2.65 2.6.65 2.44-4.41-.42-9.32.16-13.37-1.78-.01-1.22 4.86-.28 6.68-.53 2.03-.22 3.8.55 5.63.94.9-.03.09-1.33.41-1.07zm6.21.44c-1.34 1.72 2.21 1.04 2.41 1.56-1.14.37-3.63 1.35-4.5.22-.44-1.21 1.33-.3 1.34-1.59.21-.13.48-.12.75-.19zm47.04.69c-.48 1.37.12-1.1 0 0zm-81.79 3.25c3.74-.06-.74.44-.5.03.17 0 .34-.03.5-.03zm4.29 0c1.32.35-.29.56 0 0zm11.15.06c4.12.12 9.34.42 12.72.69-4.93.03-10 .4-14.84-.5.67-.23 1.42-.11 2.12-.19zm66.19.5c.33 1.13 2.2.12 2.25.41-.83.02-4.04.93-2.25-.41zm-48.75.28c1.3-.16 1.66.66.28.75-.75.17-1.47-.72-.28-.75zm47.19 9.38c.42.93-1.75.59-.25.06.09.01.15-.09.25-.06z" transform="matrix(1 0 0 -1 0 1093.1)" opacity=".678" fill="url(#c)"/></g></pattern><pattern id="e" patternTransform="translate(216.468 701.395)" xlink:href="#d"/><pattern id="f" patternTransform="matrix(1 0 0 1 252.402 699.871)" xlink:href="#d"/><linearGradient id="c" y2="430.89" gradientUnits="userSpaceOnUse" x2="322" y1="547.47" x1="322"><stop offset="0"/><stop offset="1" stop-color="#ff8d00" stop-opacity="0"/></linearGradient><linearGradient id="a" y2="604.27" gradientUnits="userSpaceOnUse" x2="257.72" gradientTransform="matrix(.98409 0 0 1.0022 2.154 -1.653)" y1="749.53" x1="257.72"><stop offset="0" stop-color="#ffc378"/><stop offset="1" stop-color="#ffc378" stop-opacity="0"/></linearGradient><radialGradient id="b" gradientUnits="userSpaceOnUse" cy="230" cx="404" r="154"><stop offset="0" stop-color="#fff"/><stop offset="1" stop-color="#e3e936" stop-opacity="0"/></radialGradient></defs><path stroke="#000" fill="url(#e)" d="M245.958 792.703l-38.98-162.617 20.708 33.498-1.218-1.218z"/><path stroke="#000" fill="url(#f)" d="M263.011 662.366l14.617-32.889-17.662 94.403-12.79 66.386z"/><path d="M224.641 666.02c14.846 0 27.156 1.218 42.024 1.218M228.904 677.592c11.837 0 22.782 1.218 34.716 1.218M232.559 698.909c-.609 0 24.971-7.703 24.971-14.009M228.904 684.291c9.232 0 25.609 12.819 30.453 17.663M234.386 727.534c3.386 0 23.753-10.519 23.753-10.963M232.559 709.872c8.996 0 18.086 24.362 23.752 24.362" stroke="#000" fill="#d8d8d8"/></svg>