<svg id="shoes12" class="shoes" width="86" height="380" viewBox="202.715 584.407 86.5933 380.048" preserveAspectRatio="xMidYMid meet" xmlns="http://www.w3.org/2000/svg">  <defs id="svgEditorDefs">    <path id="svgEditorClosePathDefs" class="skin" fill="moccasin" style="stroke-width: 0px; stroke: none; fill-opacity: 1;"/>    <pattern id="pattern-0" x="0" y="0" width="20" height="20" patternUnits="userSpaceOnUse" viewBox="0 0 100 100">      <path d="M 0 0 L 50 0 L 50 100 L 0 100 Z" style="fill: black;"/>      <rect x="49.199" y="-0.321" width="62.981" height="100.481" style="fill: rgb(173, 151, 115);"/>    </pattern>    <pattern id="pattern-2" x="0" y="0" width="20" height="20" patternUnits="userSpaceOnUse" viewBox="0 0 100 100">      <path d="M 0 0 L 50 0 L 50 100 L 0 100 Z" style="fill: black;"/>      <rect x="49.199" y="-0.321" width="62.981" height="100.481" style="fill: rgb(173, 151, 115);"/>    </pattern>  </defs>  <g>    <rect x="251.439" y="957.755" width="35.934" height="6.091" style="stroke: rgb(0, 0, 0); fill: rgb(67, 67, 67);"/>    <path d="M 208.806 891.95 C 208.806 895.13 226.534 901.301 228.904 905.295 C 230.444 907.89 222.977 906.185 222.205 906.835 C 221.64 907.311 201.089 916.244 202.715 917.614 C 206.958 921.19 232.425 926.742 237.431 930.961 C 238.364 931.747 220.196 930.087 219.16 930.961 C 208.3 940.113 199.566 932.926 208.197 940.2 C 208.251 940.246 215.556 936.051 216.114 935.58 C 216.97 934.859 244.739 930.447 244.739 930.447 C 244.739 930.447 212.46 916.075 212.46 916.075 C 212.46 916.075 243.701 899.591 244.74 902.216 C 246.067 905.572 233.199 900.702 231.95 899.65 C 227.888 896.226 210.633 898.585 210.633 892.977" style="stroke: rgb(0, 0, 0); fill: rgb(67, 67, 67);"/>    <path d="M 230.731 940.714 C 229.134 939.367 206.978 928.395 206.978 928.395 C 206.978 928.395 236.822 916.075 236.822 916.075 C 236.822 916.075 222.82 909.148 220.987 908.376 C 214.471 905.63 209.605 905.97 205.151 902.216 C 202.32 899.83 212.674 899.469 215.505 897.083 C 218.053 894.936 224.865 894.841 227.686 892.463 C 227.869 892.309 231.185 887.199 233.168 888.87 C 236.906 892.021 222.505 897.47 219.769 898.623 C 218.006 899.366 213.068 902.217 213.069 902.216 C 216.513 899.313 240.849 913.823 242.912 915.561 C 244.256 916.694 216.537 925.471 214.287 927.368 C 213.227 928.261 229.601 935.654 230.122 936.093 C 233.338 938.804 233.168 946.456 233.168 943.28" style="stroke: rgb(0, 0, 0); fill: rgb(67, 67, 67);"/>    <path d="M 249.705 941.219 C 249.705 937.829 268.044 931.252 270.494 926.995 C 272.088 924.229 264.364 926.046 263.565 925.354 C 262.981 924.846 241.723 915.325 243.406 913.865 C 247.794 910.053 274.137 904.136 279.316 899.639 C 280.28 898.801 261.487 900.571 260.416 899.639 C 249.183 889.885 240.149 897.545 249.076 889.792 C 249.131 889.743 256.688 894.214 257.265 894.716 C 258.151 895.484 286.874 900.187 286.874 900.187 C 286.874 900.187 253.486 915.505 253.486 915.505 C 253.486 915.505 285.801 933.075 286.875 930.277 C 288.248 926.7 274.937 931.89 273.645 933.012 C 269.444 936.661 251.596 934.147 251.596 940.124" style="stroke: rgb(0, 0, 0); fill: rgb(67, 67, 67);" transform="matrix(-1, 0, 0, -1, 530.285404, 1831.010469)"/>    <path d="M 275.733 889.695 C 273.972 891.13 249.547 902.825 249.547 902.825 C 249.547 902.825 282.448 915.956 282.448 915.956 C 282.448 915.956 267.011 923.339 264.991 924.162 C 257.808 927.089 252.443 926.726 247.533 930.727 C 244.412 933.271 255.827 933.655 258.948 936.198 C 261.756 938.487 269.266 938.588 272.376 941.123 C 272.577 941.287 276.233 946.733 278.419 944.952 C 282.54 941.594 266.664 935.786 263.648 934.557 C 261.704 933.765 256.26 930.726 256.261 930.727 C 260.059 933.822 286.887 918.356 289.162 916.504 C 290.644 915.296 260.085 905.941 257.604 903.919 C 256.436 902.968 274.487 895.088 275.061 894.62 C 278.607 891.731 278.419 883.575 278.419 886.96" style="stroke: rgb(0, 0, 0); fill: rgb(67, 67, 67);" transform="matrix(-1, 0, 0, -1, 536.212037, 1831.46079)"/>    <rect x="204.847" y="958.364" width="35.934" height="6.091" style="stroke: rgb(0, 0, 0); fill: rgb(67, 67, 67);"/>  </g></svg>