<svg class="shoes" width="86" height="380" viewBox="202.715 584.407 86.593 380.048" xmlns="http://www.w3.org/2000/svg" xmlns:xlink="http://www.w3.org/1999/xlink" xmlns:bx="https://boxy-svg.com"><defs><pattern id="a" width="20" height="20" patternUnits="userSpaceOnUse" viewBox="0 0 100 100"><path d="M0 0h50v100H0z"/><path fill="#ad9773" d="M49.199-.321h62.981V100.16H49.199z"/></pattern><pattern id="c" patternTransform="translate(277.96 507)" xlink:href="#a"/><pattern id="d" patternTransform="translate(277.96 507)" xlink:href="#b"/><pattern id="b" width="20" height="20" patternUnits="userSpaceOnUse" viewBox="0 0 100 100"><path d="M0 0h50v100H0z"/><path fill="#ad9773" d="M49.199-.321h62.981V100.16H49.199z"/></pattern></defs><path d="M236.324 947.226c-.143 2.944-1.933 9.507-.688 10.31 1.246.803-.113-3.514 1.375.687s-35.52 10.131-34.365 3.437c1.154-6.695 9.608-11.804 13.059-15.121 3.45-3.317 20.762-2.257 20.619.687zM253.127 945.852c.132 2.943 1.778 9.506.632 10.31-1.145.802.105-3.514-1.264.687-1.37 4.2 32.673 10.131 31.61 3.436-1.062-6.694-8.838-11.804-12.012-15.12-3.173-3.318-19.098-2.257-18.966.687z" class="skin" fill="#ffe4b5"/><path fill="#00f7ff" d="M202.715 958.364h37.152v6.091h-37.152zM249.612 958.364h35.934v6.091h-35.934z"/><path transform="matrix(-.00397 .14856 -.16426 -.00439 353.62 910.572)" d="M345 627a110.073 110.073 0 1 1-4-220.073V517z" bx:shape="pie 341 517 0 110.073 177.917 360 1@ef247f81" fill="url(#c)"/><path transform="matrix(-.00397 .14856 -.16426 -.00439 307.663 909.938)" d="M345 627a110.073 110.073 0 1 1-4-220.073V517z" bx:shape="pie 341 517 0 110.073 177.917 360 1@ef247f81" fill="url(#d)"/></svg>