<svg id="shoes9" class="shoes" width="86" height="380" viewBox="202.715 584.407 86.5933 380.048" preserveAspectRatio="xMidYMid meet" xmlns="http://www.w3.org/2000/svg" xmlns:xlink="http://www.w3.org/1999/xlink" xmlns:bx="https://boxy-svg.com">  <defs id="svgEditorDefs">    <path id="svgEditorClosePathDefs" class="skin" fill="moccasin" style="stroke-width: 0px; stroke: none; fill-opacity: 1;"/>    <pattern id="pattern-0" x="0" y="0" width="20" height="20" patternUnits="userSpaceOnUse" viewBox="0 0 100 100">      <path d="M 0 0 L 50 0 L 50 100 L 0 100 Z" style="fill: black;"/>      <rect x="49.199" y="-0.321" width="62.981" height="100.481" style="fill: rgb(173, 151, 115);"/>    </pattern>    <pattern id="pattern-0-0" patternTransform="matrix(1, 0, 0, 1, 277.959412, 507)" xlink:href="#pattern-0"/>    <pattern id="pattern-1" patternTransform="matrix(1, 0, 0, 1, 277.959412, 507)" xlink:href="#pattern-2"/>    <pattern id="pattern-2" x="0" y="0" width="20" height="20" patternUnits="userSpaceOnUse" viewBox="0 0 100 100">      <path d="M 0 0 L 50 0 L 50 100 L 0 100 Z" style="fill: black;"/>      <rect x="49.199" y="-0.321" width="62.981" height="100.481" style="fill: rgb(173, 151, 115);"/>    </pattern>  </defs>  <g>    <path d="M 236.324 947.226 C 236.181 950.17 234.391 956.733 235.636 957.536 C 236.882 958.339 235.523 954.022 237.011 958.223 C 238.499 962.424 201.491 968.354 202.646 961.66 C 203.8 954.965 212.254 949.856 215.705 946.539 C 219.155 943.222 236.467 944.282 236.324 947.226 Z" id="e4_area3" class="skin" fill="moccasin" style="stroke: none; stroke-width: 0px; fill-opacity: 1;"/>    <path d="M 283.457 960.568 C 283.325 957.625 281.679 951.062 282.825 950.259 C 283.97 949.456 282.72 953.772 284.089 949.571 C 285.458 945.371 251.416 939.44 252.479 946.135 C 253.541 952.829 261.317 957.939 264.491 961.256 C 267.664 964.573 283.589 963.512 283.457 960.568 Z" id="e15_area3" class="skin" fill="moccasin" style="stroke: none; stroke-width: 0px; fill-opacity: 1;" transform="matrix(-1, 0, 0, -1, 536.583865, 1906.42019)"/>    <rect x="202.715" y="958.364" width="37.152" height="6.091" style="fill: rgb(255, 0, 0);"/>    <rect x="249.612" y="958.364" width="35.934" height="6.091" style="fill: rgb(255, 0, 0);"/>    <path style="fill: url(#pattern-0-0);" transform="matrix(-0.00397, 0.148557, -0.164263, -0.00439, 353.620087, 910.57196)" d="M 345 627 A 110.073 110.073 0 1 1 341 406.927 L 341 517 Z" bx:shape="pie 341 517 0 110.073 177.917 360 1@ef247f81"/>    <path style="fill: url(#pattern-1);" transform="matrix(-0.00397, 0.148557, -0.164263, -0.00439, 307.66272, 909.938049)" d="M 345 627 A 110.073 110.073 0 1 1 341 406.927 L 341 517 Z" bx:shape="pie 341 517 0 110.073 177.917 360 1@ef247f81"/>  </g></svg>