<svg class="wings" width="86" height="380" viewBox="202.715 584.407 201.704 380.048" xmlns="http://www.w3.org/2000/svg"><defs><linearGradient id="a" y2="149.16" gradientUnits="userSpaceOnUse" x2="72.172" y1="156.55" x1="86.423"><stop offset="0" stop-color="#f57900"/><stop offset="1" stop-color="#f57900" stop-opacity="0"/></linearGradient><linearGradient id="b" y2="132.25" gradientUnits="userSpaceOnUse" x2="247.96" gradientTransform="translate(35.29 153.36) scale(.64729)" y1="138.01" x1="249.28"><stop offset="0" stop-color="#ad7fa8"/><stop offset="1" stop-color="#ad7fa8" stop-opacity="0"/></linearGradient><linearGradient id="c" y2="147.48" gradientUnits="userSpaceOnUse" x2="210.52" gradientTransform="translate(35.29 153.36) scale(.64729)" y1="158.29" x1="217.73"><stop offset="0" stop-color="#ef2929"/><stop offset="1" stop-color="#ef2929" stop-opacity="0"/></linearGradient><linearGradient id="d" y2="189.48" gradientUnits="userSpaceOnUse" x2="187.22" gradientTransform="translate(35.29 153.36) scale(.64729)" y1="195.7" x1="196.1"><stop offset="0" stop-color="#fcaf3e"/><stop offset="1" stop-color="#fcaf3e" stop-opacity="0"/></linearGradient><linearGradient id="e" y2="234.03" gradientUnits="userSpaceOnUse" x2="187.08" gradientTransform="translate(20.617 190.601) scale(.64729)" y1="238.06" x1="205.11"><stop offset="0" stop-color="#729fcf"/><stop offset="1" stop-color="#729fcf" stop-opacity="0"/></linearGradient><linearGradient id="f" y2="255.19" gradientUnits="userSpaceOnUse" x2="219.97" gradientTransform="matrix(.64729 0 0 .64729 20.616 190.601)" y1="258.65" x1="245.59"><stop offset="0" stop-color="#fce94f"/><stop offset="1" stop-color="#fce94f" stop-opacity="0"/></linearGradient><linearGradient id="g" y2="225.45" gradientUnits="userSpaceOnUse" x2="261.44" gradientTransform="translate(20.617 190.6) scale(.64729)" y1="244.83" x1="274.06"><stop offset="0" stop-color="#8ae234"/><stop offset="1" stop-color="#8ae234" stop-opacity="0"/></linearGradient><linearGradient id="h" y2="193.9" gradientUnits="userSpaceOnUse" x2="308.02" gradientTransform="translate(35.29 153.36) scale(.64729)" y1="212.38" x1="314.62"><stop offset="0" stop-color="#555753"/><stop offset="1" stop-color="#555753" stop-opacity="0"/></linearGradient><linearGradient id="i" y2="234.03" gradientUnits="userSpaceOnUse" x2="187.08" gradientTransform="matrix(.64729 0 0 .64729 19.026 58.682)" y1="238.06" x1="205.11"><stop offset="0" stop-color="#729fcf"/><stop offset="1" stop-color="#729fcf" stop-opacity="0"/></linearGradient><linearGradient id="j" y2="255.19" gradientUnits="userSpaceOnUse" x2="219.97" gradientTransform="matrix(.64729 0 0 .6473 19.026 58.682)" y1="258.65" x1="245.59"><stop offset="0" stop-color="#fce94f"/><stop offset="1" stop-color="#fce94f" stop-opacity="0"/></linearGradient><linearGradient id="k" y2="225.45" gradientUnits="userSpaceOnUse" x2="261.44" gradientTransform="translate(19.027 58.68) scale(.64729)" y1="244.83" x1="274.06"><stop offset="0" stop-color="#8ae234"/><stop offset="1" stop-color="#8ae234" stop-opacity="0"/></linearGradient><radialGradient id="l" gradientUnits="userSpaceOnUse" cx="1.041" cy="111.641" r="138.302"><stop offset="0" stop-color="#b1f1a0"/><stop offset="1" stop-color="#69e447"/></radialGradient></defs><path d="M111.614 263.53c-11.726-12.56-19.21-26.94-22.3-42.844-1.201-6.18-1.602-11.962-1.432-20.664l.045-2.35 1.318-.947c2.162-1.554 6.141-5.64 8.308-8.53 3.125-4.167 6.08-9.347 8.607-15.085.555-1.26 1.089-2.21 1.187-2.112.098.098-.18 1.895-.618 3.995-1.11 5.324-1.932 10.582-2.733 17.458-.9 7.744-.972 22.882-.145 31.004 1.297 12.75 3.958 25.022 8.094 37.336.77 2.29 1.352 4.21 1.295 4.267-.057.057-.789-.63-1.626-1.528zm-228.44-1.63c6.348-17.58 9.2-29.576 10.726-45.111.524-5.34.525-24.776.003-29.918-.5-4.913-2.146-16.2-2.726-18.704-.56-2.416-.405-2.76.343-.758 2.389 6.383 5.292 12.258 8.439 17.077 1.77 2.71 3.332 4.589 6.188 7.443l3.821 3.82-.003 4.086c-.015 19.902-6.417 38.343-18.545 53.423-2.874 3.573-8.571 9.544-8.245 8.641zm196.15-1.917c-1.786-2.258-4.99-8.839-6.407-13.158-3.888-11.853-4.936-26.274-2.804-38.571.766-4.416 1.739-8.207 2.108-8.213 1.125-.02 6.633-5.564 11.294-11.369.522-.65 1.012-1.112 1.09-1.026.078.085-.555 1.69-1.405 3.565-1.694 3.734-3.026 7.536-3.019 8.613.01 1.37.35 1.525 2.661 1.21 1.177-.161 2.18-.258 2.229-.215.049.043-.188 1.345-.526 2.895-2.256 10.339-3.11 20.469-3.625 42.993-.112 4.945-.291 10.242-.397 11.771l-.192 2.78-1.008-1.275zm-163.53-4.905c-.062-2.387-.146-8.94-.187-14.562-.135-18.569-1.094-31.525-3.04-41.059l-.216-1.055 1.211.202c.666.11 1.754.293 2.419.405l1.207.204-.155-2.165c-.122-1.71-.558-3.165-2.071-6.913-1.054-2.611-1.877-4.867-1.828-5.013.049-.146 1.414 1.44 3.034 3.526 3.113 4.007 7.929 9.047 8.956 9.373.456.144.732.723 1.084 2.273 3.69 16.248 2.2 34.268-4.044 48.854-1.218 2.847-3.99 7.625-5.328 9.186l-.93 1.085-.113-4.34zm210.268-29.665c-3.783-1.43-8.223-5.216-10.961-9.348-2.719-4.102-5.213-10.809-6.61-17.772-.444-2.21-.55-4.306-.547-10.802.004-7.625.05-8.274.857-12.003.47-2.168 1.047-4.47 1.284-5.116.426-1.16.432-1.14.473 1.617.106 7.124.66 11.578 1.808 14.54.456 1.176 1.055 2.28 1.33 2.453.751.47 2.17-.682 3.657-2.97a168.03 168.03 0 0 1 2.115-3.172l.858-1.24.2 10.696c.163 8.732.318 11.38.84 14.417 1.287 7.485 3.382 13.03 6.996 18.524.544.826.543.853-.017.837-.318-.01-1.346-.306-2.283-.66zm-256.169-4.826c5.668-8.38 8.12-19.59 8.136-37.204.003-2.771.114-5.038.249-5.038.134 0 1.054 1.327 2.044 2.95 1.88 3.08 3.43 4.9 4.027 4.725.577-.17 2.392-4.24 2.863-6.42.241-1.117.572-4.595.735-7.73.164-3.134.35-5.751.413-5.815.158-.158 1.357 4.846 1.755 7.33.178 1.107.41 4.107.517 6.665.719 17.33-5.425 33.626-15.074 39.978-1.962 1.292-5.29 2.652-6.489 2.652-.5 0-.373-.322.824-2.093zm179.775-5.671c.187-.249 1.814-2.348 3.616-4.664 10.565-13.581 20.448-29.14 27.276-42.94 5.055-10.218 8.942-20.577 11.275-30.047.565-2.294 1.113-3.766 1.674-4.495 3.546-4.619 6.79-11.688 9.033-19.688l.87-3.1-.179 10.851c-.115 7.002-.057 11.988.163 14.054.322 3.018.296 3.384-.446 6.356-1.133 4.535-4.105 13.216-6.493 18.965-8.766 21.1-22.988 39.15-39.998 50.76-3.819 2.607-7.308 4.635-6.791 3.948zm-104.348-2.198c-8.86-5.498-18.417-14.347-25.905-23.987-8.53-10.983-15.759-25.48-20.436-40.984-1.773-5.88-3.357-12.452-3.138-13.023.425-1.108.796-7.814.845-15.286.03-4.519.143-9.123.25-10.231.195-2.005.197-2.009.445-.775 1.606 7.997 4.744 16.08 8.243 21.232 1.104 1.627 1.398 2.442 2.159 5.982 1.735 8.08 5.22 18.704 8.904 27.152 6.124 14.04 17.47 32.9 29.543 49.108.857 1.151 1.455 2.085 1.327 2.075-.127-.01-1.133-.579-2.237-1.263zm137.337-14.954c0-.075.536-1.3 1.192-2.724l2.048-4.449c.47-1.023 1.376-2.976 2.013-4.34.636-1.365 1.41-3.039 1.718-3.72.309-.683 1.532-3.334 2.719-5.892 4.057-8.745 9.08-21.316 11.272-28.213 1.131-3.558 1.292-3.852 3.674-6.733l2.492-3.012.214 1.152c.118.634.222 2.757.23 4.718.072 16.586-6.999 33.827-18.858 45.986-3.606 3.698-8.714 7.934-8.714 7.227zm-169.448-3.202c-2.62-2.03-7.123-6.641-9.331-9.552-8.29-10.93-12.835-21.974-14.402-35.001-.413-3.437-.225-13.389.262-13.876.194-.194 1.122.781 2.617 2.752 1.981 2.61 2.414 3.41 2.986 5.522.936 3.451 3.396 10.913 5.414 16.42 2.21 6.031 2.367 6.422 6.95 17.204l5.718 13.457c1.007 2.368 1.786 4.351 1.73 4.406-.054.055-.93-.545-1.944-1.332zm139.717-8.544c9.49-13.336 17.01-27.828 21.677-41.775 3.235-9.667 4.855-16.578 5.994-25.58l.706-5.58.174 5.47c.095 3.01.283 5.649.417 5.865.177.287.444.149.984-.51l.74-.905-.165 1.086c-.091.596-.319 1.922-.505 2.945-.748 4.098-.742 16.587.007 16.587.71 0 3.463-2.307 4.94-4.14.92-1.14 1.712-2.035 1.76-1.987.16.16-1.34 5.602-2.66 9.662-2.374 7.297-6.176 14.954-10.329 20.803-2.581 3.635-9.538 10.743-12.921 13.203-3.704 2.692-11.21 7.104-12.087 7.104-.182 0 .389-1.012 1.268-2.248zm-108.865.037c-7.848-4.235-15.705-10.987-20.937-17.994-2.693-3.605-6.024-9.304-7.581-12.969-2.28-5.365-5.011-14.398-5.718-18.912l-.218-1.395.841 1.24c1.995 2.942 5.41 5.869 5.907 5.064.677-1.096.417-14.988-.365-19.507l-.184-1.059.689 1.027c.388.579.806.91.957.759.148-.148.421-2.912.608-6.143.32-5.536.588-7.74.588-4.827 0 .718.216 3.287.48 5.71 1.554 14.297 4.644 25.803 10.934 40.72 2.712 6.434 8.66 17.309 13.606 24.876 1.602 2.45 2.866 4.502 2.81 4.558-.056.056-1.144-.46-2.417-1.148zm170.405-4.532c-.115-1.493-.548-6.131-.963-10.31-1.35-13.611-1.508-16.442-1.528-27.307l-.02-10.721 1.052-1.2c2.04-2.323 4.064-7.976 4.064-11.345 0-1.714.35-.745.932 2.575 1.2 6.852 2.41 10.356 4.576 13.24l.788 1.049-.377 8.251c-.414 9.074-.415 9.09-1.286 15.562-.638 4.752-1.44 8.81-2.509 12.687-1.145 4.159-3.703 10.231-4.31 10.231-.115 0-.304-1.22-.419-2.712zm-231.565-1.544c-3.748-7.225-5.725-18.98-6.018-35.778l-.171-9.806 1-1.452c2.05-2.982 3.356-6.67 4.67-13.19.359-1.787.694-3.29.743-3.339.049-.05.167.943.262 2.205.189 2.494 1.212 6.534 2.093 8.26.304.597 1.003 1.643 1.554 2.325l1.001 1.24-.2 8.061c-.245 9.886-1.53 23.67-3.847 41.235l-.246 1.86-.84-1.621zm224.585-9.695c-.009-.256.118-.675.284-.93.366-.567.366-.078 0 .775-.176.409-.273.461-.284.155zm21.234-12.93c-1.268-12.911-4.83-30.811-8.59-43.162l-1.267-4.16.491-2.195c1.245-5.563 1.862-10.024 2.816-20.333.434-4.689.874-9.153.978-9.92l.189-1.396.595 1.86c4.713 14.741 6.813 33.059 6.362 55.497-.175 8.718-.997 25.545-1.26 25.809-.059.058-.2-.841-.314-2zm-258.409-2.107c.019-.682-.07-6.89-.196-13.796-.442-24.102 1.076-41.005 5.166-57.512 1.45-5.856 3.34-11.594 3.37-10.231.098 4.606 1.586 24.613 1.983 26.663.066.341.368 2.04.67 3.777l.55 3.158-1.43 4.438c-2.545 7.894-4.365 14.764-6.257 23.614-1.315 6.15-3.262 17.524-3.269 19.098-.003.606-.143 1.31-.313 1.566-.228.345-.3.145-.274-.775zm194.48-13.021c.084-.341.73-3.62 1.435-7.286.704-3.666 1.837-9.387 2.516-12.712 3.12-15.257 3.98-22.226 4.208-34.097.17-8.748.228-9.512.792-10.275.336-.454 1.006-1.921 1.49-3.261l.88-2.437.023 3.875c.025 4.277.526 6.917 1.341 7.074.55.106 2.83-3.125 3.734-5.291.267-.64.57-1.163.676-1.163.105 0 .11 1.221.013 2.713a1406.83 1406.83 0 0 0-.501 8.293c-1.162 20.107-4.276 34.153-9.925 44.755-1.582 2.97-4.909 8.172-6.176 9.657-.57.668-.64.69-.507.155zm-131.945-2.868c-5.877-7.917-10.336-19.963-12.31-33.251-.798-5.366-1.907-22.956-1.877-29.764l.009-2.015 1.52 2.918c.837 1.606 1.858 3.256 2.27 3.667l.748.748.553-1.165c.414-.873.601-2.3.746-5.682l.194-4.516.853 2.49c.47 1.37 1.177 2.974 1.572 3.565.714 1.066.717 1.117.412 6.036-.623 10.038.535 22.635 3.805 41.39 2.014 11.553 2.988 17.361 2.91 17.361-.045 0-.677-.802-1.405-1.782zm173.802-24.26c.15-23.23.169-23.836.938-29.454 2.353-17.186 3.5-32.34 3.715-49.047.167-13.019-.405-23.966-1.803-34.507-.226-1.705-.373-3.144-.326-3.198.3-.346 4.126 10.632 6.14 17.615 6.074 21.065 8.058 49.846 4.99 72.391-1.652 12.144-5.402 28.045-8.81 37.36-.531 1.45-1.386 3.804-1.9 5.23a78.925 78.925 0 0 1-2.016 4.96l-1.08 2.367.152-23.717zm-21.36 20.307c.11-1.535.455-5.65.77-9.146.564-6.287.59-6.41 2.303-11.316 4.588-13.14 7.521-31.426 8.583-53.51.398-8.283.213-29.282-.318-36.082-.303-3.879-.281-4.18.597-8.402 1.879-9.036 2.79-16.835 2.793-23.905.005-11.97-2.198-20.686-7.325-28.973-1.526-2.468-1.695-2.899-1.397-3.555.415-.91 1.112-.943 2.47-.115 2.215 1.35 2.735 2.342 5.852 11.15 5.179 14.639 7.943 28.697 9.265 47.126.508 7.086.697 26.615.311 32.151l-.663 9.548c-1.417 20.429-5.383 38.624-12.13 55.652-2.374 5.993-7.371 16.148-9.687 19.687l-1.623 2.48.199-2.79zM-87.616 133.3c-7.468-13.565-13.458-31.444-16.64-49.671-4.477-25.638-4.038-61.335 1.071-87.12 1.053-5.312 2.991-13.084 4.37-17.517 1.355-4.36 4.655-13.38 5.902-16.128 1.295-2.854 3.691-4.751 5.07-4.013.902.482.73 1.597-.53 3.446-.622.912-2.006 3.472-3.075 5.69-6.071 12.589-6.927 26.62-2.961 48.56.472 2.611.54 3.802.333 5.735-.145 1.342-.41 5.161-.59 8.486-.18 3.325-.404 7.366-.5 8.979-.295 5.039-.189 25.943.163 31.79.996 16.577 3.827 33.48 7.322 43.716.78 2.284.888 3.215 1.366 11.78.286 5.116.502 9.331.48 9.367-.021.036-.823-1.36-1.781-3.1zm-20.546-.135c-4.963-12.905-8.688-28.561-10.531-44.265-1.278-10.881-1.743-23.575-1.134-30.89 1.943-23.31 5.823-41.379 12.177-56.695 1.884-4.543 2.37-5.506 1.999-3.955-.406 1.693-1.734 11.663-2.199 16.511-1.612 16.822-1.437 39.758.467 60.835.35 3.885.77 7.9.934 8.923.574 3.609.677 10.045.339 21.392-.188 6.31-.432 15.866-.543 21.238-.112 5.371-.234 9.804-.273 9.851-.039.047-.595-1.278-1.236-2.945zm164.783-6.533c-.004-.391.48-3.682 1.075-7.312 1.588-9.682 2.07-14.258 2.157-20.5l.078-5.58 2.02-5.27c1.82-4.754 2.289-6.125 3.334-9.767l.31-1.085-.14 1.085c-.079.597-.237 3.332-.352 6.077-.169 4.006-.128 5.042.205 5.248.61.377 2.714-2.158 4.6-5.541l1.583-2.838-.004 2.015c-.014 8-3.386 20.752-8.24 31.158-3.16 6.776-6.616 13.198-6.626 12.31zM-60.2 120.446c-7.013-14.368-10.186-25.31-10.766-37.127-.223-4.544-.268-4.534 1.895-.398 1.506 2.878 3.608 5.529 4.044 5.098.145-.144.244-3.053.221-6.464l-.041-6.203 1.026 3.983c.564 2.191 1.742 6.007 2.618 8.48l1.593 4.495-.204 4.806c-.224 5.247.163 10.388 1.528 20.307 1.063 7.726 1.195 8.836 1.05 8.836-.07 0-1.403-2.616-2.964-5.813zm143.485-4.889c.004-1.19.209-5.792.456-10.226.54-9.66.596-20.573.135-25.887l-.336-3.876 2.062-6.356c3.404-10.487 4.232-15.325 3.562-20.802-.36-2.938-.354-2.996.45-4.582.995-1.964 2.554-7.326 3.924-13.497.832-3.748 1.07-4.457 1.26-3.747.465 1.735.96 19.278.758 26.817-.862 32.193-4.648 52.91-11.556 63.241l-.722 1.08.007-2.165zM-84.82 113.78c-2.847-4.94-5.32-13.35-6.905-23.485-1.958-12.51-2.753-35.252-1.843-52.706.214-4.1 1.017-13.708 1.157-13.848.058-.058.568 2.232 1.133 5.089 1.352 6.838 2.319 10.59 3.374 13.102l.864 2.058-.425 2.767c-.431 2.813-.362 5.607.25 10.054.36 2.615.891 4.69 3.114 12.184l1.545 5.207-.561 3.939c-.495 3.472-.552 5.927-.488 20.757.04 9.25.035 16.82-.013 16.82-.047 0-.588-.872-1.202-1.938zm217.738-5.89c-.195-.725-1.322-6.132-2.505-12.015-2.767-13.756-3.971-19.054-5.927-26.075l-1.589-5.703.042-7.286c.075-13.11-1.561-26.972-4.666-39.53-.338-1.364-.68-2.759-.762-3.1-.252-1.058 2.063 3.552 3.504 6.976 4.93 11.719 7.695 21.93 9.82 36.274.417 2.814.844 6.023.949 7.13.105 1.11.32 3.202.477 4.651.701 6.456 1.213 16.997 1.413 29.094.176 10.724.034 12.525-.756 9.583zm-265.302-7.52c.948-36.86 5.924-63.688 15.523-83.681 2.502-5.213 3.17-6.117 2.31-3.128-1.3 4.516-3.126 12.85-4 18.26-1.4 8.655-1.893 13.935-2.075 22.2l-.167 7.596-1.489 4.96c-.819 2.728-1.923 6.774-2.454 8.991a342.358 342.358 0 0 1-1.429 5.772c-.254.958-.724 2.912-1.044 4.34-3.424 15.296-5.08 22.468-5.217 22.597-.09.085-.071-3.473.042-7.906zm176.59 2.249c.47-1.578 1.366-4.257 1.99-5.955 1.318-3.583 2.219-7.001 2.53-9.596.173-1.447.469-2.16 1.404-3.397 1-1.32 2.897-4.876 4.241-7.948.86-1.964.164 7.046-.891 11.54-.866 3.689-2.412 7.494-4.379 10.783-1.67 2.792-5.115 7.44-5.514 7.44-.13 0 .148-1.29.618-2.867zm-89.328.655c-4.023-4.922-7.293-11.949-8.49-18.25-.494-2.594-1.024-11.471-.685-11.471.095 0 .55 1.011 1.012 2.248 1.04 2.782 3.055 6.64 4.01 7.673.583.632.719 1.134.733 2.714.018 1.97 1.117 6.357 2.837 11.327 1.074 3.104 1.936 6.368 1.793 6.795-.057.174-.602-.293-1.21-1.036zm99.392-6.468c.356-1.673 2.018-15.276 2.367-19.378.4-4.7.217-11.379-.446-16.204-.217-1.58-.327-2.94-.245-3.023.083-.082.62-.15 1.193-.15 2.11 0 4.534-1.544 5.6-3.565.27-.512.728-1.69 1.018-2.62l.527-1.689.51 1.754c.88 3.025 1.208 6.657 1.03 11.384-.278 7.398-1.942 14.087-5.623 22.61-2.218 5.135-6.302 12.628-5.93 10.88zm-23.067-.226c-.007-.209.496-1.738 1.117-3.397 1.5-4.005 1.962-5.82 1.967-7.733.003-1.487.058-1.6.863-1.76 1.094-.22 2.987-1.716 4.52-3.574.656-.796 1.304-1.489 1.439-1.54.246-.092-.337 3.3-.87 5.056-.155.513-.667 1.699-1.138 2.635-1.485 2.955-7.864 11.284-7.898 10.313zm-85.974-1.1c-.715-1.092-2.99-5.69-4.176-8.44-2.8-6.498-4.94-13.963-5.674-19.802-.694-5.51-.155-12.833 1.258-17.117l.393-1.19.428 1.672c.945 3.691 2.83 5.705 5.88 6.285l1.836.349-.373 2.19c-1.469 8.608-1.286 18.512.622 33.736.208 1.662.354 3.022.324 3.022-.03 0-.263-.317-.518-.705zm21.78-1.072c-5.35-6.832-7.362-10.661-7.907-15.042-.154-1.237-.116-1.783.124-1.783.19 0 .346.135.346.3 0 .613 3.737 4.264 4.903 4.79l1.213.547.165 2.375c.098 1.399.506 3.33.993 4.7 1.346 3.78 1.976 5.89 1.758 5.89-.112 0-.83-.8-1.595-1.777zm74.578-2.414c-.457-4.263.688-15.349 1.695-16.426 1.727-1.846 3.394-7.257 3.404-11.048.005-1.796.095-2.116.713-2.52 1.193-.782 2.36-2.782 2.9-4.973.468-1.895.547-2.023.865-1.384.192.386.856 1.032 1.475 1.434 1.005.653 1.167.948 1.508 2.757.502 2.66.2 8.49-.599 11.571-.73 2.817-2.668 7.557-4.414 10.795-1.192 2.21-6.592 11.044-7.096 11.606-.126.14-.33-.675-.451-1.812zm-86.046-2.852c-6.557-11.064-8.872-16.971-9.21-23.499-.105-2.05-.023-4.491.207-6.11.366-2.576.43-2.724 1.435-3.317.579-.342 1.312-1.049 1.63-1.572l.58-.952.187 1.584c.268 2.262 1.499 4.768 2.742 5.583l1.034.678v3.14c0 4.087.94 7.284 2.968 10.1.39.541.668 1.772.881 3.891.494 4.912.563 14.427.104 14.407-.128-.005-1.279-1.775-2.558-3.933zm111.426-7.838c.088-2.302.316-6.845.505-10.096.405-6.923.048-14.272-.897-18.523l-.608-2.73.671-.264c1.031-.405 3.178-2.771 4.18-4.607.751-1.376.93-1.544 1.07-1.008.23.88 1.56.856 2.154-.039.445-.67.463-.657.974.698 1.91 5.062 2.29 15.807.774 21.842-1.498 5.963-2.364 8.493-4.024 11.76-1.367 2.691-2.49 4.401-3.985 6.067l-.974 1.085.16-4.185zm-36.015 1.645c.676-2.003 1.258-5.091 1.945-10.326.258-1.961.641-4.258.853-5.105.337-1.347.513-1.576 1.405-1.831 1.13-.323 2.212-1.568 3.781-4.347l1.031-1.827.544 1.052c.727 1.404 2.126 2.68 3.08 2.808.716.096.783.247.878 1.964.278 5.056-2.285 10.69-6.705 14.743-1.958 1.795-5.31 4-6.76 4.446l-.652.2.6-1.777zM-67.44 82.9c-3.267-3.828-6.332-11.266-7.428-18.028-1.255-7.74-.705-16.674 1.312-21.322.631-1.454.64-1.46 1.11-.768.591.873 1.463.895 2.055.05.434-.62.487-.57 1.297 1.236.769 1.712 3.078 4.364 4.105 4.713.276.093.254.547-.087 1.83-1.43 5.37-1.892 13.455-1.418 24.766.196 4.67.298 8.548.227 8.618-.07.07-.598-.422-1.173-1.095zm35.156.287c-5.031-2.773-8.848-6.98-10.611-11.69-.723-1.933-1.368-6.673-1.102-8.098.16-.857.32-1.007 1.073-1.007.923 0 2.507-1.481 3.192-2.984.184-.405.418-.733.518-.728.1.004.578.893 1.062 1.976 1.118 2.504 2.444 4.113 3.598 4.367 1.117.245 1.24.741 2.36 9.473.438 3.409 1.06 6.963 1.38 7.898.322.935.489 1.698.37 1.694-.119-.003-.947-.408-1.84-.9zm171.123-.798a97.678 97.678 0 0 1-1.174-2.984c-.427-1.13-1.236-2.818-1.799-3.753-.986-1.638-1.03-1.852-1.23-6.007-.386-7.976-1.597-15.762-3.729-23.97-.402-1.548-.696-2.816-.654-2.816.195 0 2.681 4.096 3.67 6.046 3.833 7.556 5.591 16.826 5.408 28.523-.08 5.134-.143 5.771-.492 4.96zM24.122 76.886c.118-3.61.24-4.368 1.007-6.25 1.16-2.844 1.666-4.837 1.91-7.51l.2-2.211 1.297 1.59c1.161 1.425 1.967 2.103 3.75 3.157.521.308.524.444.046 2.561-.965 4.27-4.051 9.725-6.682 11.81-.668.528-1.315.96-1.438.96s-.163-1.848-.09-4.107zm-161.324 1.782c-.407-11.146 1.307-21.895 4.722-29.608 1.309-2.956 3.252-6.255 4.54-7.706l1.002-1.13-.477 1.395c-.813 2.38-2.55 9.292-3.234 12.867-.732 3.831-1.797 12.342-1.914 15.296-.046 1.172-.243 2.083-.496 2.292-.552.459-1.143 1.61-2.747 5.354l-1.328 3.1-.068-1.86zm111.733.904c-2.325-1.832-5.088-6.695-6.062-10.67-.788-3.212-.873-4.03-.417-4.03.697 0 3.267-2.011 4.313-3.376l1.004-1.309.2 2.73c.196 2.682.663 4.802 1.654 7.504.275.75.604 2.284.73 3.41.254 2.262.12 6.545-.206 6.54-.114-.003-.661-.362-1.216-.799zm103.3-4.469c.576-17.314.585-21.169.054-24.28-.285-1.673-.868-3.97-1.296-5.106l-.777-2.065.842-1.559c.464-.857 1.074-1.977 1.358-2.489 1.021-1.845 1.619-4.247 1.598-6.429-.018-1.891.033-2.097.397-1.6.69.943 1.88.01 3.585-2.81 2.546-4.21 2.285-4.324 2.908 1.258 1.685 15.078.51 29.468-3.237 39.654-.972 2.64-4.176 9.156-4.955 10.077l-.656.775.18-5.426zm-155.545 3.012c-2.153-3.285-5.022-10.672-6.162-15.864-2.143-9.762-2.351-22.352-.565-34.086.335-2.199.609-4.056.609-4.126 0-.52.8.623 1.86 2.662.692 1.33 1.683 2.824 2.203 3.32l.946.902.568-.697c.313-.384.616-.698.673-.698.058 0 .106 1.43.106 3.178v3.178l1.626 3.255 1.627 3.255-.796 1.96c-1.93 4.758-2.37 9.687-2.103 23.54.115 6.012.134 10.93.041 10.93s-.378-.32-.633-.709zm95.263-1.398c0-1.159.296-3.496.657-5.193.477-2.241.611-3.697.49-5.314l-.166-2.226 1.687-.531c2.097-.66 4.25-2.506 5.061-4.339.334-.755.706-1.373.827-1.373.354 0-.137 5.913-.698 8.405-.597 2.654-1.765 5.396-3.356 7.883-1.185 1.853-3.783 4.795-4.234 4.795-.147 0-.268-.949-.268-2.107zm-37.343-.269c-3.689-4.471-5.4-9.117-5.666-15.374-.092-2.174-.086-3.953.014-3.953.1 0 .475.663.833 1.473s1.027 1.87 1.487 2.354c.897.946 3.074 2.152 4.507 2.497.682.165.83.333.652.742-.43.998-.515 4.33-.152 5.996.545 2.496.81 8.33.378 8.33-.193 0-1.116-.929-2.053-2.065zm50.968-13.07c-2.492-1.582-3.892-4.464-4.298-8.849-.271-2.93-.243-3.566.318-7.097.286-1.795.423-2.092.969-2.092.35 0 1.767-.478 3.15-1.061 3.285-1.387 4.997-1.673 5.39-.9.158.311.319 2.139.357 4.06.07 3.584.321 5.047 1.005 5.87.256.31.393 1.593.4 3.768.011 3.098-.041 3.38-.856 4.634-.599.922-1.302 1.522-2.273 1.938-1.878.805-2.532.763-4.162-.272zm-66.156-.606c-3.38-1.867-3.89-5.597-1.598-11.697.259-.687.472-2.291.48-3.6.007-1.297.104-3.022.215-3.833l.203-1.474 1.384.19c.762.104 2.45.667 3.75 1.25 1.302.584 2.715 1.107 3.14 1.164.691.092.815.329 1.183 2.273.256 1.348.358 3.403.268 5.426-.23 5.2-1.877 8.73-4.901 10.5-1.474.864-2.27.825-4.124-.199zm52.852-2.125c-1.725-1.45-2.31-3.007-2.323-6.183-.011-2.501.073-2.939.762-3.951.427-.626.948-1.14 1.159-1.14.21-.002.749-.556 1.196-1.232 1.227-1.854 2.948-2.569 5.545-2.303l2.073.213-.172.962c-.094.53-.393 2.477-.664 4.328-.27 1.852-.771 4.084-1.114 4.96-.864 2.212-3.832 5.16-5.193 5.16-.166 0-.737-.366-1.27-.814zm25.02-.193c-2.782-2.654-3.908-6.425-4.166-13.952-.173-5.044-.076-5.672.75-4.846.215.215 1.171.3 2.52.223 1.862-.105 2.38-.27 3.61-1.154.79-.567 1.48-.982 1.535-.921.054.06.244 1.944.423 4.186.238 2.98.499 4.435.968 5.407 1.172 2.425.724 6.983-.91 9.28-.676.947-2.94 2.785-3.432 2.785-.133 0-.717-.454-1.298-1.008zm-63.244-.216c-2.998-1.901-3.926-4.405-4.749-12.806l-.205-2.092 2.284.001c2.682.002 3.836.553 5.074 2.423.44.664 1.126 1.357 1.525 1.539.866.394 1.73 2.674 1.73 4.562 0 2.672-1.52 5.956-3.185 6.882-.922.512-.837.53-2.474-.509zm-24.636-.61c-2.39-1.73-3.237-3.658-3.252-7.4-.007-1.81.155-2.752.664-3.87.464-1.019.776-2.608 1.003-5.116.18-2 .38-3.816.441-4.033.076-.266.69-.011 1.875.775 1.554 1.033 1.984 1.17 3.65 1.17 1.038 0 2.166-.07 2.507-.155.597-.149.617-.023.525 3.41-.218 8.096-2.06 13.86-4.984 15.586-1.137.672-.96.699-2.43-.366zm99.355-3.682c-2.118-1.53-3.947-4.224-4.546-6.697-.202-.835-.56-3.485-.794-5.891-.384-3.937-.378-4.405.06-4.684.268-.17 1.06-.764 1.76-1.318 1.923-1.524 3.985-2.867 4.4-2.867.212 0 .524.886.736 2.092 1.348 7.668 1.94 9.478 3.542 10.826.904.761.966.946.966 2.888 0 1.78-.126 2.256-.893 3.362-.764 1.103-3.335 3.18-3.888 3.141-.099-.007-.703-.39-1.343-.852zm-110.449-.955c-2.12-1.317-3.255-3.372-3.255-5.892 0-1.309.164-1.726 1.132-2.877 1.629-1.939 2.164-3.355 3.098-8.201.456-2.37.873-4.361.925-4.427.251-.314 2.125.808 3.863 2.313 1.06.919 2.2 1.757 2.533 1.862.497.158.568.367.396 1.169-.115.537-.33 2.232-.476 3.766-.518 5.406-1.254 7.69-3.25 10.074-1.23 1.468-2.954 2.794-3.632 2.792-.222 0-.822-.261-1.334-.58zm69.873-6.153c-2.402-2.525-5.989-8.759-7.72-13.42-1.127-3.03-1.867-5.358-1.743-5.482.048-.047 2.03.205 4.407.56 3.567.531 5.241.615 9.592.481 11.934-.367 20.172-3.82 28.234-11.83C51.741 13.998 56.463 6.93 61.267-2.87 65.183-10.858 72.5-27.983 73.17-30.725c.284-1.167 1.004-3.09 1.6-4.271 2.107-4.185 4.66-6.082 7.757-5.762 5.096.526 10.09 6.126 12.495 14.015 1.75 5.736 2.994 15.954 2.643 21.702-.589 9.632-1.902 17.661-4.489 27.438-1.206 4.561-4.38 14.736-4.693 15.05-.094.094-.19-2.8-.21-6.432-.066-10.881-.668-17.127-3.772-39.156-1.69-11.99-1.447-10.872-2.207-10.184-1.013.916-1.66 2.484-2.707 6.572-.54 2.106-1.323 4.502-1.74 5.325-.73 1.44-.74 1.542-.264 2.68.72 1.725.38 3.77-1.233 7.398-1.29 2.9-1.373 3.245-1.224 5.115.233 2.939-.292 4.51-2.09 6.251-.98.95-1.886 1.527-2.606 1.662-1.025.193-1.105.289-1.108 1.336-.009 3.304-3.81 7.228-8.29 8.558-.384.114-.698.413-.698.664 0 .753-1.124 2.702-2.064 3.578-.485.451-2.346 1.55-4.136 2.44-1.79.89-3.884 2.201-4.651 2.914-.767.712-2.023 1.598-2.79 1.968-1.63.786-5.004 1.332-6.772 1.094-1.132-.151-1.275-.087-1.718.768-.61 1.182-1.799 1.623-5.196 1.93-2.077.188-2.9.407-3.668.974-.887.656-1.424.75-5.226.919-2.331.103-4.517.298-4.858.434-1.851.736-3.558 2.808-4.16 5.048-.184.688-.22.675-1.306-.465zm-28.323-.583c-.706-1.849-2.159-3.487-3.723-4.197-.935-.425-2.018-.567-4.374-.572-3.226-.007-4.67-.319-6.015-1.298-.504-.368-1.697-.658-3.414-.831-2.967-.299-4.536-.955-4.962-2.078-.273-.718-.425-.76-2.729-.76-3.06 0-5.453-.784-7.711-2.526-.916-.707-1.766-1.459-1.889-1.671-.122-.212-1.548-1.094-3.167-1.958-3.977-2.123-5.13-3.275-6.004-6.005-.094-.293-1.118-.962-2.277-1.487-3.558-1.612-5.902-4.376-6.206-7.32-.153-1.486-.265-1.698-.982-1.874-3.247-.795-5.381-4.426-4.784-8.138.283-1.756.243-1.951-1.069-5.156-1.492-3.647-1.764-5.833-.93-7.503.387-.777.395-1.042.05-1.663-.653-1.18-1.31-3.314-1.963-6.382-.836-3.921-2.321-7.194-2.971-6.544-.298.298-4.216 25.037-5.098 32.184-.941 7.638-1.552 15.473-1.556 19.971-.003 2.203-.07 3.94-.15 3.86-.08-.081-.982-3.04-2.003-6.574-2.862-9.91-4.485-17.791-5.627-27.333-.487-4.062-.485-14.408.003-18.137.786-6.011 2.616-12.959 4.288-16.277 2.08-4.129 5.332-7.685 8.24-9.011 5.499-2.507 10.104 1.328 12.125 10.096.255 1.109 1.041 3.48 1.746 5.27l3.3 8.372c6.014 15.25 10.198 23.675 15.124 30.457 2.662 3.667 8.149 9.054 11.479 11.273 4.868 3.243 10.643 5.268 17.203 6.03 3.688.43 11.312.25 14.952-.35 1.32-.217 2.474-.32 2.566-.228.212.212-1.331 4.408-2.66 7.229-1.593 3.38-3.839 7.147-5.75 9.643-2.442 3.187-2.417 3.175-3.062 1.488zm77.502.017c-.705-.238-1.734-.972-2.389-1.701-1.834-2.046-2.638-4.748-3.196-10.742l-.207-2.225.943-.487c1.13-.585 2.394-2.17 2.697-3.385.182-.731.35-.856.985-.734.54.103 1.066-.117 1.786-.75 1.09-.957 1.398-.785 1.398.781 0 2.474 2.606 9.616 4.028 11.038.536.536.654.925.524 1.726-.27 1.671-1.18 3.293-2.705 4.824-1.985 1.993-2.374 2.16-3.864 1.655zm-127.49-1.962c-1.722-1.361-3.498-4.407-3.498-5.999 0-.53.375-1.368.915-2.043 1.368-1.711 2.456-4.337 3.333-8.05.432-1.829.839-3.51.904-3.737.076-.268.398-.079.92.542.542.644 1.084.955 1.664.955.737 0 .939.205 1.406 1.428.385 1.008.942 1.709 1.89 2.376 1.504 1.06 1.456.663.714 5.962-.792 5.657-2.737 8.836-5.88 9.61-.632.155-1.127-.063-2.368-1.044zm198.224-4.92c-2.371-3.434-3.046-4.235-4.605-5.465-.976-.77-1.485-1.408-1.485-1.86 0-1.82-2.538-9.021-5.243-14.877-.698-1.509-1.268-2.807-1.268-2.886 0-.459.866.612 2.838 3.509 2.217 3.257 4.883 6.307 5.513 6.307.43 0 .427-2.895-.004-4.447-.965-3.477 1.324.871 2.792 5.303 1.526 4.604 3.624 15.798 3.066 16.356-.087.086-.808-.786-1.604-1.94zm-61.63.307c-2.436-2.934-4.315-7.427-5.513-13.18l-.565-2.714 1.181-.664c1.605-.902 3.035-2.988 3.47-5.061.246-1.175.509-1.713.837-1.718.263-.004.827-.28 1.254-.613 1.063-.832 1.239-.778 1.245.387.01 1.657.847 5.893 1.522 7.696.347.928 1.052 2.148 1.567 2.711.878.961.936 1.18.936 3.496 0 4.058-1.766 8.087-4.206 9.595-1.194.738-1.17.737-1.729.065zm-204.58-.855c0-2.483 1.77-11.014 3.123-15.052 1.083-3.233 3.307-8.228 3.553-7.982.087.087-.051 1.051-.308 2.142-.57 2.42-.61 3.997-.1 3.997.627 0 3.433-3.184 5.506-6.25 1.076-1.593 2.123-3.035 2.327-3.206.203-.17.544-.636.756-1.034.212-.398.447-.663.522-.588.075.075-.564 1.552-1.42 3.282-2.88 5.827-4.888 11.012-5.937 15.335-.27 1.116-.615 1.664-1.364 2.173-1.11.755-2.3 2.11-4.76 5.429-.905 1.222-1.703 2.221-1.772 2.221-.069 0-.125-.21-.125-.467zm59.682-1.117c-1.694-1.56-2.82-3.81-3.242-6.477-.547-3.457-.436-4.747.483-5.604 1.61-1.501 2.85-4.762 3.56-9.359l.37-2.406 1.022.779c.562.428 1.22.779 1.464.779.301 0 .503.508.632 1.598.227 1.916 1.376 3.719 3.19 5.002l1.278.904-.595 2.37c-1.075 4.293-2.434 8.005-3.721 10.166-1.33 2.231-2.354 3.522-2.797 3.522-.144 0-.884-.573-1.644-1.274zM14.715 29.64c-.663-.118-.996-.543-1.758-2.246-2.691-6.02-3.384-10.951-2.194-15.608l.296-1.156.93.828c1.208 1.077 2.648 3.266 4.658 7.083 2.02 3.835 3.795 6.61 5.643 8.818.844 1.009 1.313 1.82 1.148 1.984-.297.3-7.356.54-8.723.297zm-35.842-.473c-1.496-.334-1.593-.539-.652-1.373 1.235-1.095 3.861-4.902 6.8-9.856 2.683-4.524 4.8-7.321 5.541-7.321.497 0 .792 2.164.74 5.425-.058 3.528-.968 7.136-2.743 10.878-.982 2.068-1.127 2.225-2.23 2.407-1.68.278-5.906.188-7.456-.16zm99.759-2.04c-2.172-3.303-2.959-5.923-2.924-9.742.027-2.974.038-3.015 1.395-5.27 1.308-2.173 1.369-2.383 1.383-4.754.01-1.623.183-2.801.501-3.41C79.85 2.3 80.27-.2 80.074-2.524c-.17-2.04-.09-2.46 1.089-5.7.7-1.923 1.312-3.458 1.359-3.411.047.047.38 2.736.74 5.975.855 7.7 2.11 16.806 2.693 19.531.69 3.23.085 6.722-1.823 10.525-1.042 2.075-3.208 5.132-3.637 5.132-.156 0-.994-1.081-1.863-2.403zm-54.503-.31c-1.451-1.677-3.53-4.761-7.51-11.141-.938-1.504-2.18-3.262-2.76-3.908l-1.053-1.174.199-3.49c.11-1.92.411-4.203.67-5.073.481-1.623 2.206-4.467 2.825-4.661.209-.065.43.544.558 1.531.495 3.824 2.804 9.586 5.529 13.798 2.189 3.384 6.77 8.509 9.662 10.808l2.644 2.102-.998.612c-1.61.986-5.722 2.378-7.023 2.378-1.076 0-1.36-.185-2.743-1.783zm-103.214.77c-2.827-3.144-4.801-8.258-4.785-12.398.004-.895.282-2.952.618-4.572.806-3.883 1.987-11.278 2.86-17.905.387-2.941.788-5.348.891-5.348.103 0 .662 1.43 1.241 3.178.953 2.874 1.056 3.534 1.077 6.898.02 3.099.134 3.96.68 5.147.534 1.16.628 1.825.505 3.565-.144 2.04-.091 2.255 1.137 4.62 1.55 2.981 1.764 4.264 1.278 7.65-.399 2.78-1.143 4.69-2.882 7.4-1.551 2.416-1.852 2.619-2.62 1.765zm50.904-.056c-1.193-.409-2.857-1.128-3.696-1.599l-1.526-.856 1.05-.796c8.75-6.635 15.487-16.493 17.34-25.375.399-1.907.42-1.935 1.016-1.395.842.76 2.014 3.155 2.41 4.924.182.81.33 3.007.328 4.88-.003 3.324-.025 3.43-.897 4.362-.492.526-1.59 2.002-2.442 3.281l-3.978 5.977c-1.336 2.008-3.184 4.484-4.105 5.503-1.944 2.147-2.245 2.207-5.5 1.094zm60.2-6.108c-1.905-1.936-4.3-4.7-5.324-6.143l-1.86-2.623.013-3.888c.01-3.334.107-4.087.683-5.283C26.307 1.87 27.067.933 28.006.43c.954-.51 1.015-.469 1.015.69 0 3.69 2.018 10.597 4.406 15.076.864 1.62 1.972 3.709 2.463 4.641.491.932 1.03 1.832 1.197 2 .523.522.34.956-.65 1.541l-.956.564-3.463-3.52zm-67.145 2.093l-.698-.743 1.746-2.9c3.907-6.488 5.968-11.582 6.913-17.085.285-1.662.616-3.022.735-3.022.562 0 2.146 1.709 2.761 2.979.84 1.733 1.162 6.023.638 8.468-.378 1.764-2.559 4.85-5.967 8.443-1.916 2.02-4.825 4.602-5.185 4.602-.135 0-.56-.334-.943-.742zm161.744-3.829c-.26-.3-1.77-2.497-3.356-4.885-3.442-5.183-5.925-8.253-7.992-9.88-1.5-1.181-1.594-1.363-5.736-11.007-2.81-6.544-4.843-11.817-6.112-15.852a1354.967 1354.967 0 0 0-2.65-8.348c-.41-1.266-.693-2.357-.627-2.423.122-.122 3.731 4.139 6.448 7.61 3.757 4.801 9.444 13.823 12.272 19.467 3.194 6.373 6.974 17.299 8.12 23.47.428 2.301.353 2.677-.367 1.848zm-250.754-.769c0-.593 1.065-5.737 1.591-7.681 3.164-11.699 9.387-24.014 17.625-34.879 4.022-5.303 8.572-10.605 8.857-10.319.077.077-.845 2.988-2.048 6.47-1.204 3.48-2.475 7.236-2.825 8.345-.35 1.108-2.593 6.268-4.986 11.467l-4.349 9.452-2.943 2.786c-2.182 2.065-3.642 3.829-5.647 6.824-3.397 5.075-5.275 7.757-5.275 7.535z" fill="url(#l)" transform="matrix(.68622 0 0 .77076 300.703 635.205)"/></svg>