<svg class="wings" id="wings8" width="86" height="380" viewBox="202.71499633789062 584.406982421875 201.70398712158203 380.0480041503906" preserveAspectRatio="xMidYMid meet" xmlns="http://www.w3.org/2000/svg"> <defs id="svgEditorDefs"> <path id="svgEditorClosePathDefs" fill="moccasin" style="stroke-width: 0px; stroke: none; fill-opacity: 1;" class="clothes"/> <pattern id="pattern-0" x="0" y="0" width="20" height="20" patternUnits="userSpaceOnUse" viewBox="0 0 100 100"> <g transform="matrix(0.939248, 0, 0, 0.486264, 5.949465, 19.038727)"> <g id="layer1" transform="translate(-133.52 -221.55)"> <g id="g6323"> <path id="path2775" style="fill-rule:evenodd;stroke:#2e3436;stroke-width:.51163px;fill:#2e3436" d="m211.17 229.98c-2.8-0.02-6.46 0.23-11.15 0.8-60.07 7.39-53.67 70.42-53.67 70.42 11.32 104.88 171.83-42.35 88.13-36.94-77.17 5 9.71-33.95-23.31-34.28zm-14.86 33.02c0.64-0.03 1.25 0.06 1.81 0.29 3.01 1.19 3.53 5.69 1.18 10.04s-6.7 6.9-9.7 5.71c-3.01-1.2-3.54-5.7-1.19-10.04 1.91-3.54 5.15-5.88 7.9-6z"/> <path id="path2176" style="fill-rule: evenodd; stroke: rgb(46, 52, 54); stroke-width: 0.51163px; fill: rgb(67, 60, 49);" d="M 159.126 229.49 C 158.46 229.46 157.589 229.71 156.473 230.29 C 142.176 237.68 143.7 300.7 143.7 300.7 C 146.394 405.58 184.594 258.35 164.674 263.77 C 146.308 268.76 166.982 229.82 159.126 229.49 Z M 155.59 262.51 C 155.742 262.48 155.887 262.57 156.02 262.8 C 156.737 263.99 156.861 268.49 156.301 272.84 C 155.742 277.18 154.707 279.74 153.993 278.54 C 153.276 277.35 153.15 272.85 153.71 268.5 C 154.164 264.97 154.935 262.62 155.59 262.51 Z"/> <path id="path2178" style="color:#000000;fill-rule:evenodd;fill:#5c3566" d="m192.29 234.1c-0.96 0.13-0.42 0.98-0.04 1.77-1.15 0.39-2.19 0.88-3.07 1.42-2.32-0.16-5.11-0.47-5.57 0.08-0.41 0.49 1.83 0.92 3.74 1.38-0.7 0.75-1.12 1.52-1.12 2.27 0 0.09 0.01 0.18 0.02 0.27-1.56 0.43-2.98 0.84-2.77 1.28 0.23 0.45 1.84 0.28 3.58 0.06 0.97 0.78 2.7 1.18 4.8 1.08-0.14 1-0.77 2.23 0.34 2.43 1.02 0.18 1.34-1.39 1.82-2.69 0.1-0.02 0.19-0.04 0.29-0.06 1.01-0.21 1.98-0.51 2.88-0.87 2.06 1.31 4.8 3.93 5.94 3.49 1.28-0.5-2.43-3.39-3.31-4.86 0.49-0.33 0.92-0.66 1.28-1.01 2-0.03 5.31 0.53 5.28-0.19-0.03-0.77-3.2-0.03-4.97-0.13 0.63-0.71 0.99-1.46 0.99-2.16 0-0.22-0.05-0.41-0.11-0.61 0.98-0.83 1.81-1.6 1.05-1.85-0.55-0.18-1.41 0.06-2.37 0.46-1.45-0.75-3.9-0.92-6.66-0.35-0.18 0.04-0.34 0.09-0.51 0.13-0.37-0.78-0.76-1.45-1.51-1.34z"/> <path id="path2760" style="color:#000000;fill-rule:evenodd;fill:#cc0000" d="m172.34 241.56c-0.92 0.11 0.86 2.69 0.1 3.49-0.95 1-5.53 0.37-6.16 1.5-0.33 0.61 0.79 1.5 1.61 2.37-2.88 2.91-4.4 6.17-3.56 8.18 0.8 1.92 3.55 2.16 6.84 0.9 0.31 0.87 0.66 1.64 1.11 1.92 0.63 0.38 1.3-2.13 2.01-3.46v-0.01c0.29-0.18 0.59-0.36 0.88-0.56 0.06-0.04 0.12-0.09 0.18-0.13 1.3 0.58 3.53 4.57 4.55 3.97 0.89-0.53-2.96-4.28-2.56-5.38 0.06-0.15 0.17-0.3 0.31-0.44 0.01-0.02 0.03-0.02 0.05-0.04l0.16-0.16c0.03-0.03 0.07-0.06 0.11-0.09 1.3-1.05 4.08-2 4.2-3.14 0.06-0.51-0.55-0.51-1.26-0.48 1.14-1.89 1.59-3.69 1.05-4.98-0.31-0.75-0.93-1.24-1.75-1.49-0.04-0.11-0.09-0.21-0.16-0.29-0.23-0.22-0.59-0.13-1.01 0.1-1.17-0.05-2.59 0.22-4.13 0.83-0.86-1.09-1.77-2.7-2.57-2.61z"/> <path id="path2762" style="color:#000000;fill-rule:evenodd;fill:#ce5c00" d="m277.17 114.02a13.474 6.7368 0 1 1 -26.94 0 13.474 6.7368 0 1 1 26.94 0z" transform="matrix(.34782 -.73025 .84170 .52002 -28.226 407.97)"/> <path id="path2764" style="color:#000000;fill-rule:evenodd;fill:#3465a4" d="M 150.327 327.521 C 149.877 327.601 149.247 328.271 148.557 329.131 C 146.497 328.271 144.217 328.611 142.177 329.891 C 141.867 328.831 141.507 328.021 140.797 328.221 C 140.017 328.451 140.307 329.681 140.687 331.001 C 139.707 331.901 138.817 333.041 138.067 334.361 C 135.527 333.751 132.287 332.611 131.827 333.771 C 131.207 335.351 135.957 337.261 136.337 338.871 C 136.277 339.121 136.227 339.361 136.177 339.611 C 135.267 341.271 130.737 343.291 131.497 344.821 C 131.897 345.641 133.987 345.351 136.097 345.011 C 136.567 347.901 137.867 350.371 139.867 351.731 C 139.797 352.441 139.907 352.941 140.367 353.021 C 140.707 353.081 140.987 352.841 141.227 352.431 C 144.047 353.491 147.207 352.351 149.657 349.681 C 150.267 350.031 150.797 350.191 151.177 349.971 C 151.777 349.621 151.677 348.521 151.417 347.251 C 151.857 346.491 152.267 345.671 152.597 344.791 C 153.137 343.331 153.467 341.851 153.607 340.391 C 155.647 339.561 157.937 338.761 157.877 337.701 C 157.817 336.681 155.537 337.161 153.587 337.371 C 153.347 334.861 152.507 332.611 151.127 331.021 C 151.227 329.511 151.207 328.171 150.707 327.651 C 150.607 327.531 150.477 327.491 150.327 327.521 Z"/> <path id="path2766" style="color:#000000;fill-rule:evenodd;fill:#edd400" d="M 172.387 340.631 C 171.487 340.711 171.137 342.161 170.957 343.991 C 167.967 344.181 164.967 345.831 162.717 348.541 C 161.267 347.671 160.057 347.131 159.567 347.791 C 159.137 348.381 160.057 349.291 161.437 350.321 C 161.057 350.941 160.717 351.611 160.417 352.301 C 159.307 354.851 158.927 357.491 159.187 359.911 C 157.967 360.351 157.137 360.841 157.207 361.451 C 157.277 362.121 158.227 362.131 159.557 361.881 C 160.337 364.771 162.117 367.131 164.717 368.291 C 165.847 368.791 167.047 369.021 168.247 369.011 C 168.267 369.971 168.477 370.701 169.097 370.931 C 170.077 371.291 170.857 369.951 171.627 368.351 C 173.457 367.661 175.197 366.451 176.657 364.801 C 178.427 366.511 180.037 369.821 181.747 369.091 C 183.307 368.421 179.277 366.021 177.347 363.991 C 178.017 363.121 178.597 362.141 179.087 361.081 C 182.407 360.861 187.627 361.641 187.967 359.961 C 188.367 357.961 182.247 358.681 180.287 357.431 C 180.457 356.601 180.537 355.781 180.567 354.971 C 182.517 352.761 187.097 349.891 186.107 348.481 C 185.317 347.341 182.607 349.451 180.127 351.041 C 179.337 348.181 177.557 345.861 174.987 344.711 C 174.707 344.591 174.427 344.481 174.147 344.391 C 173.817 342.251 173.367 340.541 172.387 340.631 Z"/> <path id="path2768" style="color:#000000;fill-rule:evenodd;fill:#73d216" d="m213.38 290.1c-0.98 0.03-0.91 1.57-0.78 3.22-2.05 0.18-4.09 1.13-5.82 2.68-1.95-0.69-3.78-1.27-4.27-0.57-0.52 0.72 0.7 2.01 1.97 3.31-0.39 0.6-0.74 1.26-1.04 1.95-0.52 1.18-0.84 2.39-1.01 3.58-0.88 0.36-1.52 0.78-1.46 1.37 0.05 0.46 0.57 0.7 1.32 0.85 0.1 3.76 1.89 7.07 4.98 8.44 3.48 1.55 7.61 0.24 10.52-2.95 1.21 1.18 2.34 2.12 3.11 1.74 1.09-0.55-0.07-3.13-0.77-5.28 0.04-0.09 0.09-0.18 0.13-0.27 0.39-0.9 0.67-1.82 0.86-2.73 2.08 0.37 5.75 2.73 5.98 1.39 0.26-1.53-4.62-2.63-5.69-4.14 0-0.44-0.02-0.86-0.07-1.28 0.7-1.79 3.8-4.18 2.58-5.34-0.73-0.69-2.3 0.26-3.87 1.21-0.85-1.48-2.07-2.66-3.63-3.36-0.49-0.21-0.98-0.37-1.49-0.47-0.26-1.8-0.61-3.37-1.55-3.35z"/> <path id="path2770" style="color:#000000;fill-rule:evenodd;fill:#2e3436" d="m236.88 267.24c-0.7-0.04-1.18 1.69-1.74 3.25-1.34 0.22-2.66 0.74-3.9 1.51-2.25-1.2-5.2-3.09-6.35-2.31-1.45 0.98 3.96 3.15 3.55 4.65-0.15 0.16-0.28 0.34-0.43 0.51-1.94 1.32-9.84 1.73-9.96 3.53-0.11 1.69 5.34 2.48 6.6 3.91-0.09 0.58-0.14 1.16-0.16 1.74-1.08 1.52-3.73 3.18-2.71 4.23 0.46 0.49 1.67 0.06 3.08-0.63 0.73 2.93 2.49 5.35 5.1 6.52 5.1 2.27 11.47-1.07 14.25-7.44 1.58-3.62 1.65-7.45 0.48-10.5 0.15-0.23 0.23-0.45 0.2-0.69-0.03-0.38-0.33-0.52-0.76-0.54-0.94-1.73-2.32-3.11-4.11-3.9-0.75-0.33-1.53-0.56-2.32-0.66 0.1-1.41 0.09-2.66-0.54-3.08-0.1-0.07-0.19-0.1-0.28-0.1z"/> <path id="path2789" style="color:#000000;fill-rule:evenodd;fill:url(#linearGradient2845)" d="m101.78 164.73c-1.802 3.44-9.88-8.06-13.005-5.98-2.971 1.99-0.425 16.45-3.987 16.28-3.746-0.17-7.656-13.89-11.006-15.52-3.185-1.55-8.76 10.53-10.88 7.56-2.23-3.12 6.078-10.66 4.691-13.99-1.318-3.17-11.172 0.31-11.15-3.21 0.023-3.7 10.4-3.02 12.571-6.1 2.065-2.92-7.877-15.82-4.776-17.32 3.26-1.57 13.56 10.35 17.053 9.56 3.322-0.75 1.803-13.34 5.259-12.71 3.635 0.66-4.148 13.01-1.143 15.16 2.857 2.06 15.663-0.37 16.653 3.12 1.04 3.67-7.063 4.94-7.766 8.56-0.668 3.44 9.196 11.32 7.486 14.59z" transform="matrix(.44918 0 0 .45729 125.7 206.46)"/> <path id="path4968" style="fill-rule:evenodd;color:#000000;fill:url(#linearGradient5040)" d="m198.33 238.98c-2.59 0.35-6.59 0.86-7.7 3.24 3.6 1.12 7.85-0.63 10.33-2.94-0.79-0.34-1.74-0.35-2.63-0.3z"/> <path id="path4970" style="fill-rule:evenodd;color:#000000;fill:url(#linearGradient5032)" d="m179.62 247.31c-2.27 0.51-4.11 1-6.11 2.07-2.4-0.48-1.24 1.95-2.67 3.07-1.15 1.32-3.41 3.34-2.57 5.18 1.52-0.49 3.41-0.45 4.84-0.63 1.07-2.04 3.57-2.15 4.69-4.12 1.81-0.89 2.3-3.21 3.14-4.98 0.19-0.77-0.86-0.63-1.32-0.59z"/> <path id="path4972" style="fill-rule:evenodd;color:#000000;fill:url(#linearGradient5024)" d="m163.06 268.8c-4.42 1.76-6.41 7.36-6.58 11.77-0.1 1.76 1.23 3.58 3 2.16 4.63-2.5 6.37-8.97 4.91-13.61-0.34-0.3-0.88-0.38-1.33-0.32z"/> <path id="path4974" style="fill-rule:evenodd;color:#000000;fill:url(#linearGradient5048)" d="M 146.727 332.621 C 143.867 333.381 142.047 336.031 140.757 338.541 C 138.457 337.971 141.137 340.871 139.867 342.081 C 139.597 343.321 137.497 343.841 139.237 344.691 C 140.707 347.091 140.637 351.181 144.217 351.511 C 146.597 351.891 148.807 350.131 150.307 348.571 C 151.407 345.881 152.347 342.741 152.667 340.041 C 152.117 337.621 151.557 334.801 149.817 333.061 C 148.767 333.091 147.787 332.551 146.727 332.621 Z"/> <path id="path4976" style="fill-rule:evenodd;color:#000000;fill:url(#linearGradient5064)" d="M 172.977 347.811 C 165.057 348.381 160.087 359.111 164.887 365.531 C 166.207 367.771 168.997 367.661 171.137 368.241 C 173.677 366.201 176.967 364.851 178.037 361.441 C 179.317 360.451 179.267 359.831 178.927 358.411 C 178.897 357.161 179.797 355.561 179.537 354.641 C 178.317 352.431 178.097 349.401 175.187 348.411 C 174.507 348.121 173.587 347.771 172.977 347.811 Z"/> <path id="path4978" style="fill-rule:evenodd;color:#000000;fill:url(#linearGradient5072)" d="M 199.867 334.481 C 197.577 334.431 195.427 336.431 193.697 337.291 C 193.007 340.311 190.697 343.071 191.587 346.431 C 191.907 351.091 198.167 353.431 201.417 349.891 C 204.617 347.591 205.977 343.421 205.307 339.611 C 206.577 337.981 203.947 337.571 203.487 335.971 C 202.707 334.881 201.107 334.461 199.867 334.481 Z"/> <path id="path4980" style="fill-rule:evenodd;color:#000000;fill:url(#linearGradient5080)" d="m238.36 274.34c-2.18-0.27-4.18 1.29-5.96 1.74-0.66 3.11-4.7 3.49-7.29 4.08 2.5 0.73 4.32 3.47 3.16 5.95-0.53 5.28 5.82 9.86 10.32 6.39 5.63-3.34 8.11-12.85 2.36-17.31-0.79-0.27-1.85-0.98-2.59-0.85z"/> <path id="path-1" style="color:#000000;fill-rule:evenodd;fill:#3465a4" d="M 148.737 195.601 C 148.287 195.681 147.657 196.351 146.967 197.211 C 144.907 196.351 142.627 196.691 140.587 197.971 C 140.277 196.911 139.917 196.101 139.207 196.301 C 138.427 196.531 138.717 197.761 139.097 199.081 C 138.117 199.981 137.227 201.121 136.477 202.441 C 133.937 201.831 130.697 200.691 130.237 201.851 C 129.617 203.431 134.367 205.341 134.747 206.951 C 134.687 207.201 134.637 207.441 134.587 207.691 C 133.677 209.351 129.147 211.371 129.907 212.901 C 130.307 213.721 132.397 213.431 134.507 213.091 C 134.977 215.981 136.277 218.451 138.277 219.811 C 138.207 220.521 138.317 221.021 138.777 221.101 C 139.117 221.161 139.397 220.921 139.637 220.511 C 142.457 221.571 145.617 220.431 148.067 217.761 C 148.677 218.111 149.207 218.271 149.587 218.051 C 150.187 217.701 150.087 216.601 149.827 215.331 C 150.267 214.571 150.677 213.751 151.007 212.871 C 151.547 211.411 151.877 209.931 152.017 208.471 C 154.057 207.641 156.347 206.841 156.287 205.781 C 156.227 204.761 153.947 205.241 151.997 205.451 C 151.757 202.941 150.917 200.691 149.537 199.101 C 149.637 197.591 149.617 196.251 149.117 195.731 C 149.017 195.611 148.887 195.571 148.737 195.601 Z"/> <path id="path-2" style="color:#000000;fill-rule:evenodd;fill:#edd400" d="M 170.797 208.711 C 169.897 208.791 169.547 210.241 169.367 212.071 C 166.377 212.261 163.377 213.911 161.127 216.621 C 159.677 215.751 158.467 215.211 157.977 215.871 C 157.547 216.461 158.467 217.371 159.847 218.401 C 159.467 219.021 159.127 219.691 158.827 220.381 C 157.717 222.931 157.337 225.571 157.597 227.991 C 156.377 228.431 155.547 228.921 155.617 229.531 C 155.687 230.201 156.637 230.211 157.967 229.961 C 158.747 232.851 160.527 235.211 163.127 236.371 C 164.257 236.871 165.457 237.101 166.657 237.091 C 166.677 238.051 166.887 238.781 167.507 239.011 C 168.487 239.371 169.267 238.031 170.037 236.431 C 171.867 235.741 173.607 234.531 175.067 232.881 C 176.837 234.591 178.447 237.901 180.157 237.171 C 181.717 236.501 177.687 234.101 175.757 232.071 C 176.427 231.201 177.007 230.221 177.497 229.161 C 180.817 228.941 186.037 229.721 186.377 228.041 C 186.777 226.041 180.657 226.761 178.697 225.511 C 178.867 224.681 178.947 223.861 178.977 223.051 C 180.927 220.841 185.507 217.971 184.517 216.561 C 183.727 215.421 181.017 217.531 178.537 219.121 C 177.747 216.261 175.967 213.941 173.397 212.791 C 173.117 212.671 172.837 212.561 172.557 212.471 C 172.227 210.331 171.777 208.621 170.797 208.711 Z"/> <path id="path-3" style="fill-rule: evenodd; color: rgb(0, 0, 0); fill: url(#gradient-1);" d="M 145.137 200.701 C 142.277 201.461 140.457 204.111 139.167 206.621 C 136.867 206.051 139.547 208.951 138.277 210.161 C 138.007 211.401 135.907 211.921 137.647 212.771 C 139.117 215.171 139.047 219.261 142.627 219.591 C 145.007 219.971 147.217 218.211 148.717 216.651 C 149.817 213.961 150.757 210.821 151.077 208.121 C 150.527 205.701 149.967 202.881 148.227 201.141 C 147.177 201.171 146.197 200.631 145.137 200.701 Z"/> <path id="path-4" style="fill-rule: evenodd; color: rgb(0, 0, 0); fill: url(#gradient-2);" d="M 171.387 215.891 C 163.467 216.461 158.497 227.191 163.297 233.611 C 164.617 235.851 167.407 235.741 169.547 236.321 C 172.087 234.281 175.377 232.931 176.447 229.521 C 177.727 228.531 177.677 227.911 177.337 226.491 C 177.307 225.241 178.207 223.641 177.947 222.721 C 176.727 220.511 176.507 217.481 173.597 216.491 C 172.917 216.201 171.997 215.851 171.387 215.891 Z"/> <path id="path-5" style="fill-rule: evenodd; color: rgb(0, 0, 0); fill: url(#gradient-3);" d="M 198.277 202.561 C 195.987 202.511 193.837 204.511 192.107 205.371 C 191.417 208.391 189.107 211.151 189.997 214.511 C 190.317 219.171 196.577 221.511 199.827 217.971 C 203.027 215.671 204.387 211.501 203.717 207.691 C 204.987 206.061 202.357 205.651 201.897 204.051 C 201.117 202.961 199.517 202.541 198.277 202.561 Z"/> <ellipse transform="matrix(-0.049838, 0.998756, -0.992027, -0.184688, 217.550777, 264.22609)" cx="46.641" cy="74.301" rx="27.388" ry="14.275" style="fill: rgb(49, 49, 49);"/> </g> </g> </g> </pattern> <linearGradient id="linearGradient2845" y2="149.16" gradientUnits="userSpaceOnUse" x2="72.172" y1="156.55" x1="86.423"> <stop id="stop2841" style="stop-color:#f57900" offset="0"/> <stop id="stop2843" style="stop-color:#f57900;stop-opacity:0" offset="1"/> </linearGradient> <linearGradient id="linearGradient5040" y2="132.25" gradientUnits="userSpaceOnUse" x2="247.96" gradientTransform="matrix(.64729 0 0 .64729 35.29 153.36)" y1="138.01" x1="249.28"> <stop id="stop5036" style="stop-color:#ad7fa8" offset="0"/> <stop id="stop5038" style="stop-color:#ad7fa8;stop-opacity:0" offset="1"/> </linearGradient> <linearGradient id="linearGradient5032" y2="147.48" gradientUnits="userSpaceOnUse" x2="210.52" gradientTransform="matrix(.64729 0 0 .64729 35.29 153.36)" y1="158.29" x1="217.73"> <stop id="stop5028" style="stop-color:#ef2929" offset="0"/> <stop id="stop5030" style="stop-color:#ef2929;stop-opacity:0" offset="1"/> </linearGradient> <linearGradient id="linearGradient5024" y2="189.48" gradientUnits="userSpaceOnUse" x2="187.22" gradientTransform="matrix(.64729 0 0 .64729 35.29 153.36)" y1="195.7" x1="196.1"> <stop id="stop5020" style="stop-color:#fcaf3e" offset="0"/> <stop id="stop5022" style="stop-color:#fcaf3e;stop-opacity:0" offset="1"/> </linearGradient> <linearGradient id="linearGradient5048" y2="234.03" gradientUnits="userSpaceOnUse" x2="187.08" gradientTransform="matrix(0.64729, 0, 0, 0.647289, 20.616541, 190.601123)" y1="238.06" x1="205.11"> <stop id="stop5044" style="stop-color:#729fcf" offset="0"/> <stop id="stop5046" style="stop-color:#729fcf;stop-opacity:0" offset="1"/> </linearGradient> <linearGradient id="linearGradient5064" y2="255.19" gradientUnits="userSpaceOnUse" x2="219.97" gradientTransform="matrix(0.64729, -0.000001, 0, 0.64729, 20.616383, 190.601373)" y1="258.65" x1="245.59"> <stop id="stop5060" style="stop-color:#fce94f" offset="0"/> <stop id="stop5062" style="stop-color:#fce94f;stop-opacity:0" offset="1"/> </linearGradient> <linearGradient id="linearGradient5072" y2="225.45" gradientUnits="userSpaceOnUse" x2="261.44" gradientTransform="matrix(0.64729, 0, 0, 0.647292, 20.616598, 190.600545)" y1="244.83" x1="274.06"> <stop id="stop5068" style="stop-color:#8ae234" offset="0"/> <stop id="stop5070" style="stop-color:#8ae234;stop-opacity:0" offset="1"/> </linearGradient> <linearGradient id="linearGradient5080" y2="193.9" gradientUnits="userSpaceOnUse" x2="308.02" gradientTransform="matrix(.64729 0 0 .64729 35.29 153.36)" y1="212.38" x1="314.62"> <stop id="stop5076" style="stop-color:#555753" offset="0"/> <stop id="stop5078" style="stop-color:#555753;stop-opacity:0" offset="1"/> </linearGradient> <linearGradient id="gradient-1" y2="234.03" gradientUnits="userSpaceOnUse" x2="187.08" gradientTransform="matrix(0.64729, -0.000001, 0, 0.647288, 19.026407, 58.681819)" y1="238.06" x1="205.11"> <stop id="stop-1" style="stop-color:#729fcf" offset="0"/> <stop id="stop-2" style="stop-color:#729fcf;stop-opacity:0" offset="1"/> </linearGradient> <linearGradient id="gradient-2" y2="255.19" gradientUnits="userSpaceOnUse" x2="219.97" gradientTransform="matrix(0.64729, -0.000001, 0, 0.647291, 19.026097, 58.681507)" y1="258.65" x1="245.59"> <stop id="stop-3" style="stop-color:#fce94f" offset="0"/> <stop id="stop-4" style="stop-color:#fce94f;stop-opacity:0" offset="1"/> </linearGradient> <linearGradient id="gradient-3" y2="225.45" gradientUnits="userSpaceOnUse" x2="261.44" gradientTransform="matrix(0.64729, 0, 0, 0.647292, 19.026526, 58.680791)" y1="244.83" x1="274.06"> <stop id="stop-5" style="stop-color:#8ae234" offset="0"/> <stop id="stop-6" style="stop-color:#8ae234;stop-opacity:0" offset="1"/> </linearGradient> </defs> <polygon style="stroke: rgb(0, 0, 0); fill: rgb(86, 142, 98);" points="237.548 597.806 228.768 644.086 212.46 691.6 229.395 666.918 241.313 682.344 253.858 665.066 270.792 682.961 259.502 637.298 296.509 649.022"/> <polygon style="stroke: rgb(0, 0, 0); fill: rgb(86, 142, 98);" points="323.407 691.6 313.353 645.921 294.682 599.024 314.072 623.386 327.717 608.16 342.08 625.213 361.469 607.551 348.542 652.621 390.911 641.049" transform="matrix(-1, 0, 0, -1, 685.59303, 1290.62403)"/> <path style="stroke: rgb(0, 0, 0); fill: rgb(86, 142, 98);" d="M 233.777 668.456 C 234.749 668.456 237.12 656.313 237.431 654.448 C 238.434 648.428 244.13 641.828 244.13 636.176"/> <path style="stroke: rgb(0, 0, 0); fill: rgb(86, 142, 98);" d="M 252.048 666.629 C 252.048 670.289 251.439 659.326 251.439 655.666 C 251.439 648.241 253.875 642.091 253.875 634.958"/> <path style="stroke: rgb(0, 0, 0); fill: rgb(86, 142, 98);" d="M 342.797 664.193 C 342.797 654.583 345.233 644.052 345.233 636.176"/> <path style="stroke: rgb(0, 0, 0); fill: rgb(86, 142, 98);" d="M 356.1958923339844 754.332275390625"/> <path style="stroke: rgb(0, 0, 0); fill: rgb(86, 142, 98);" d="M 556.5737915039062 753.1141357421875"/> <path d="M 360.459 680.637 C 361.151 680.637 360.953 669.938 360.459 668.456 C 357.63 659.968 359.241 644.839 359.241 634.958" style="stroke: rgb(0, 0, 0); fill: rgb(86, 142, 98);"/> <path d="M 384.212 678.201 C 382.821 678.201 381.225 670.341 379.949 669.065 C 371.277 660.393 374.777 640.749 365.941 631.913" style="stroke: rgb(0, 0, 0); fill: rgb(86, 142, 98);"/></svg>