<svg class="wings" id="wings2" width="86" height="380" viewBox="202.71499633789062 584.406982421875 201.70398712158203 380.0480041503906" preserveAspectRatio="xMidYMid meet" xmlns="http://www.w3.org/2000/svg"> <defs id="svgEditorDefs"> <path id="svgEditorClosePathDefs" fill="moccasin" style="stroke-width: 0px; stroke: none; fill-opacity: 1;" class="clothes"/> <pattern id="pattern-0" x="0" y="0" width="20" height="20" patternUnits="userSpaceOnUse" viewBox="0 0 100 100"> <g transform="matrix(0.939248, 0, 0, 0.486264, 5.949465, 19.038727)"> <g id="layer1" transform="translate(-133.52 -221.55)"> <g id="g6323"> <path id="path2775" style="fill-rule:evenodd;stroke:#2e3436;stroke-width:.51163px;fill:#2e3436" d="m211.17 229.98c-2.8-0.02-6.46 0.23-11.15 0.8-60.07 7.39-53.67 70.42-53.67 70.42 11.32 104.88 171.83-42.35 88.13-36.94-77.17 5 9.71-33.95-23.31-34.28zm-14.86 33.02c0.64-0.03 1.25 0.06 1.81 0.29 3.01 1.19 3.53 5.69 1.18 10.04s-6.7 6.9-9.7 5.71c-3.01-1.2-3.54-5.7-1.19-10.04 1.91-3.54 5.15-5.88 7.9-6z"/> <path id="path2176" style="fill-rule: evenodd; stroke: rgb(46, 52, 54); stroke-width: 0.51163px; fill: rgb(67, 60, 49);" d="M 159.126 229.49 C 158.46 229.46 157.589 229.71 156.473 230.29 C 142.176 237.68 143.7 300.7 143.7 300.7 C 146.394 405.58 184.594 258.35 164.674 263.77 C 146.308 268.76 166.982 229.82 159.126 229.49 Z M 155.59 262.51 C 155.742 262.48 155.887 262.57 156.02 262.8 C 156.737 263.99 156.861 268.49 156.301 272.84 C 155.742 277.18 154.707 279.74 153.993 278.54 C 153.276 277.35 153.15 272.85 153.71 268.5 C 154.164 264.97 154.935 262.62 155.59 262.51 Z"/> <path id="path2178" style="color:#000000;fill-rule:evenodd;fill:#5c3566" d="m192.29 234.1c-0.96 0.13-0.42 0.98-0.04 1.77-1.15 0.39-2.19 0.88-3.07 1.42-2.32-0.16-5.11-0.47-5.57 0.08-0.41 0.49 1.83 0.92 3.74 1.38-0.7 0.75-1.12 1.52-1.12 2.27 0 0.09 0.01 0.18 0.02 0.27-1.56 0.43-2.98 0.84-2.77 1.28 0.23 0.45 1.84 0.28 3.58 0.06 0.97 0.78 2.7 1.18 4.8 1.08-0.14 1-0.77 2.23 0.34 2.43 1.02 0.18 1.34-1.39 1.82-2.69 0.1-0.02 0.19-0.04 0.29-0.06 1.01-0.21 1.98-0.51 2.88-0.87 2.06 1.31 4.8 3.93 5.94 3.49 1.28-0.5-2.43-3.39-3.31-4.86 0.49-0.33 0.92-0.66 1.28-1.01 2-0.03 5.31 0.53 5.28-0.19-0.03-0.77-3.2-0.03-4.97-0.13 0.63-0.71 0.99-1.46 0.99-2.16 0-0.22-0.05-0.41-0.11-0.61 0.98-0.83 1.81-1.6 1.05-1.85-0.55-0.18-1.41 0.06-2.37 0.46-1.45-0.75-3.9-0.92-6.66-0.35-0.18 0.04-0.34 0.09-0.51 0.13-0.37-0.78-0.76-1.45-1.51-1.34z"/> <path id="path2760" style="color:#000000;fill-rule:evenodd;fill:#cc0000" d="m172.34 241.56c-0.92 0.11 0.86 2.69 0.1 3.49-0.95 1-5.53 0.37-6.16 1.5-0.33 0.61 0.79 1.5 1.61 2.37-2.88 2.91-4.4 6.17-3.56 8.18 0.8 1.92 3.55 2.16 6.84 0.9 0.31 0.87 0.66 1.64 1.11 1.92 0.63 0.38 1.3-2.13 2.01-3.46v-0.01c0.29-0.18 0.59-0.36 0.88-0.56 0.06-0.04 0.12-0.09 0.18-0.13 1.3 0.58 3.53 4.57 4.55 3.97 0.89-0.53-2.96-4.28-2.56-5.38 0.06-0.15 0.17-0.3 0.31-0.44 0.01-0.02 0.03-0.02 0.05-0.04l0.16-0.16c0.03-0.03 0.07-0.06 0.11-0.09 1.3-1.05 4.08-2 4.2-3.14 0.06-0.51-0.55-0.51-1.26-0.48 1.14-1.89 1.59-3.69 1.05-4.98-0.31-0.75-0.93-1.24-1.75-1.49-0.04-0.11-0.09-0.21-0.16-0.29-0.23-0.22-0.59-0.13-1.01 0.1-1.17-0.05-2.59 0.22-4.13 0.83-0.86-1.09-1.77-2.7-2.57-2.61z"/> <path id="path2762" style="color:#000000;fill-rule:evenodd;fill:#ce5c00" d="m277.17 114.02a13.474 6.7368 0 1 1 -26.94 0 13.474 6.7368 0 1 1 26.94 0z" transform="matrix(.34782 -.73025 .84170 .52002 -28.226 407.97)"/> <path id="path2764" style="color:#000000;fill-rule:evenodd;fill:#3465a4" d="M 150.327 327.521 C 149.877 327.601 149.247 328.271 148.557 329.131 C 146.497 328.271 144.217 328.611 142.177 329.891 C 141.867 328.831 141.507 328.021 140.797 328.221 C 140.017 328.451 140.307 329.681 140.687 331.001 C 139.707 331.901 138.817 333.041 138.067 334.361 C 135.527 333.751 132.287 332.611 131.827 333.771 C 131.207 335.351 135.957 337.261 136.337 338.871 C 136.277 339.121 136.227 339.361 136.177 339.611 C 135.267 341.271 130.737 343.291 131.497 344.821 C 131.897 345.641 133.987 345.351 136.097 345.011 C 136.567 347.901 137.867 350.371 139.867 351.731 C 139.797 352.441 139.907 352.941 140.367 353.021 C 140.707 353.081 140.987 352.841 141.227 352.431 C 144.047 353.491 147.207 352.351 149.657 349.681 C 150.267 350.031 150.797 350.191 151.177 349.971 C 151.777 349.621 151.677 348.521 151.417 347.251 C 151.857 346.491 152.267 345.671 152.597 344.791 C 153.137 343.331 153.467 341.851 153.607 340.391 C 155.647 339.561 157.937 338.761 157.877 337.701 C 157.817 336.681 155.537 337.161 153.587 337.371 C 153.347 334.861 152.507 332.611 151.127 331.021 C 151.227 329.511 151.207 328.171 150.707 327.651 C 150.607 327.531 150.477 327.491 150.327 327.521 Z"/> <path id="path2766" style="color:#000000;fill-rule:evenodd;fill:#edd400" d="M 172.387 340.631 C 171.487 340.711 171.137 342.161 170.957 343.991 C 167.967 344.181 164.967 345.831 162.717 348.541 C 161.267 347.671 160.057 347.131 159.567 347.791 C 159.137 348.381 160.057 349.291 161.437 350.321 C 161.057 350.941 160.717 351.611 160.417 352.301 C 159.307 354.851 158.927 357.491 159.187 359.911 C 157.967 360.351 157.137 360.841 157.207 361.451 C 157.277 362.121 158.227 362.131 159.557 361.881 C 160.337 364.771 162.117 367.131 164.717 368.291 C 165.847 368.791 167.047 369.021 168.247 369.011 C 168.267 369.971 168.477 370.701 169.097 370.931 C 170.077 371.291 170.857 369.951 171.627 368.351 C 173.457 367.661 175.197 366.451 176.657 364.801 C 178.427 366.511 180.037 369.821 181.747 369.091 C 183.307 368.421 179.277 366.021 177.347 363.991 C 178.017 363.121 178.597 362.141 179.087 361.081 C 182.407 360.861 187.627 361.641 187.967 359.961 C 188.367 357.961 182.247 358.681 180.287 357.431 C 180.457 356.601 180.537 355.781 180.567 354.971 C 182.517 352.761 187.097 349.891 186.107 348.481 C 185.317 347.341 182.607 349.451 180.127 351.041 C 179.337 348.181 177.557 345.861 174.987 344.711 C 174.707 344.591 174.427 344.481 174.147 344.391 C 173.817 342.251 173.367 340.541 172.387 340.631 Z"/> <path id="path2768" style="color:#000000;fill-rule:evenodd;fill:#73d216" d="m213.38 290.1c-0.98 0.03-0.91 1.57-0.78 3.22-2.05 0.18-4.09 1.13-5.82 2.68-1.95-0.69-3.78-1.27-4.27-0.57-0.52 0.72 0.7 2.01 1.97 3.31-0.39 0.6-0.74 1.26-1.04 1.95-0.52 1.18-0.84 2.39-1.01 3.58-0.88 0.36-1.52 0.78-1.46 1.37 0.05 0.46 0.57 0.7 1.32 0.85 0.1 3.76 1.89 7.07 4.98 8.44 3.48 1.55 7.61 0.24 10.52-2.95 1.21 1.18 2.34 2.12 3.11 1.74 1.09-0.55-0.07-3.13-0.77-5.28 0.04-0.09 0.09-0.18 0.13-0.27 0.39-0.9 0.67-1.82 0.86-2.73 2.08 0.37 5.75 2.73 5.98 1.39 0.26-1.53-4.62-2.63-5.69-4.14 0-0.44-0.02-0.86-0.07-1.28 0.7-1.79 3.8-4.18 2.58-5.34-0.73-0.69-2.3 0.26-3.87 1.21-0.85-1.48-2.07-2.66-3.63-3.36-0.49-0.21-0.98-0.37-1.49-0.47-0.26-1.8-0.61-3.37-1.55-3.35z"/> <path id="path2770" style="color:#000000;fill-rule:evenodd;fill:#2e3436" d="m236.88 267.24c-0.7-0.04-1.18 1.69-1.74 3.25-1.34 0.22-2.66 0.74-3.9 1.51-2.25-1.2-5.2-3.09-6.35-2.31-1.45 0.98 3.96 3.15 3.55 4.65-0.15 0.16-0.28 0.34-0.43 0.51-1.94 1.32-9.84 1.73-9.96 3.53-0.11 1.69 5.34 2.48 6.6 3.91-0.09 0.58-0.14 1.16-0.16 1.74-1.08 1.52-3.73 3.18-2.71 4.23 0.46 0.49 1.67 0.06 3.08-0.63 0.73 2.93 2.49 5.35 5.1 6.52 5.1 2.27 11.47-1.07 14.25-7.44 1.58-3.62 1.65-7.45 0.48-10.5 0.15-0.23 0.23-0.45 0.2-0.69-0.03-0.38-0.33-0.52-0.76-0.54-0.94-1.73-2.32-3.11-4.11-3.9-0.75-0.33-1.53-0.56-2.32-0.66 0.1-1.41 0.09-2.66-0.54-3.08-0.1-0.07-0.19-0.1-0.28-0.1z"/> <path id="path2789" style="color:#000000;fill-rule:evenodd;fill:url(#linearGradient2845)" d="m101.78 164.73c-1.802 3.44-9.88-8.06-13.005-5.98-2.971 1.99-0.425 16.45-3.987 16.28-3.746-0.17-7.656-13.89-11.006-15.52-3.185-1.55-8.76 10.53-10.88 7.56-2.23-3.12 6.078-10.66 4.691-13.99-1.318-3.17-11.172 0.31-11.15-3.21 0.023-3.7 10.4-3.02 12.571-6.1 2.065-2.92-7.877-15.82-4.776-17.32 3.26-1.57 13.56 10.35 17.053 9.56 3.322-0.75 1.803-13.34 5.259-12.71 3.635 0.66-4.148 13.01-1.143 15.16 2.857 2.06 15.663-0.37 16.653 3.12 1.04 3.67-7.063 4.94-7.766 8.56-0.668 3.44 9.196 11.32 7.486 14.59z" transform="matrix(.44918 0 0 .45729 125.7 206.46)"/> <path id="path4968" style="fill-rule:evenodd;color:#000000;fill:url(#linearGradient5040)" d="m198.33 238.98c-2.59 0.35-6.59 0.86-7.7 3.24 3.6 1.12 7.85-0.63 10.33-2.94-0.79-0.34-1.74-0.35-2.63-0.3z"/> <path id="path4970" style="fill-rule:evenodd;color:#000000;fill:url(#linearGradient5032)" d="m179.62 247.31c-2.27 0.51-4.11 1-6.11 2.07-2.4-0.48-1.24 1.95-2.67 3.07-1.15 1.32-3.41 3.34-2.57 5.18 1.52-0.49 3.41-0.45 4.84-0.63 1.07-2.04 3.57-2.15 4.69-4.12 1.81-0.89 2.3-3.21 3.14-4.98 0.19-0.77-0.86-0.63-1.32-0.59z"/> <path id="path4972" style="fill-rule:evenodd;color:#000000;fill:url(#linearGradient5024)" d="m163.06 268.8c-4.42 1.76-6.41 7.36-6.58 11.77-0.1 1.76 1.23 3.58 3 2.16 4.63-2.5 6.37-8.97 4.91-13.61-0.34-0.3-0.88-0.38-1.33-0.32z"/> <path id="path4974" style="fill-rule:evenodd;color:#000000;fill:url(#linearGradient5048)" d="M 146.727 332.621 C 143.867 333.381 142.047 336.031 140.757 338.541 C 138.457 337.971 141.137 340.871 139.867 342.081 C 139.597 343.321 137.497 343.841 139.237 344.691 C 140.707 347.091 140.637 351.181 144.217 351.511 C 146.597 351.891 148.807 350.131 150.307 348.571 C 151.407 345.881 152.347 342.741 152.667 340.041 C 152.117 337.621 151.557 334.801 149.817 333.061 C 148.767 333.091 147.787 332.551 146.727 332.621 Z"/> <path id="path4976" style="fill-rule:evenodd;color:#000000;fill:url(#linearGradient5064)" d="M 172.977 347.811 C 165.057 348.381 160.087 359.111 164.887 365.531 C 166.207 367.771 168.997 367.661 171.137 368.241 C 173.677 366.201 176.967 364.851 178.037 361.441 C 179.317 360.451 179.267 359.831 178.927 358.411 C 178.897 357.161 179.797 355.561 179.537 354.641 C 178.317 352.431 178.097 349.401 175.187 348.411 C 174.507 348.121 173.587 347.771 172.977 347.811 Z"/> <path id="path4978" style="fill-rule:evenodd;color:#000000;fill:url(#linearGradient5072)" d="M 199.867 334.481 C 197.577 334.431 195.427 336.431 193.697 337.291 C 193.007 340.311 190.697 343.071 191.587 346.431 C 191.907 351.091 198.167 353.431 201.417 349.891 C 204.617 347.591 205.977 343.421 205.307 339.611 C 206.577 337.981 203.947 337.571 203.487 335.971 C 202.707 334.881 201.107 334.461 199.867 334.481 Z"/> <path id="path4980" style="fill-rule:evenodd;color:#000000;fill:url(#linearGradient5080)" d="m238.36 274.34c-2.18-0.27-4.18 1.29-5.96 1.74-0.66 3.11-4.7 3.49-7.29 4.08 2.5 0.73 4.32 3.47 3.16 5.95-0.53 5.28 5.82 9.86 10.32 6.39 5.63-3.34 8.11-12.85 2.36-17.31-0.79-0.27-1.85-0.98-2.59-0.85z"/> <path id="path-1" style="color:#000000;fill-rule:evenodd;fill:#3465a4" d="M 148.737 195.601 C 148.287 195.681 147.657 196.351 146.967 197.211 C 144.907 196.351 142.627 196.691 140.587 197.971 C 140.277 196.911 139.917 196.101 139.207 196.301 C 138.427 196.531 138.717 197.761 139.097 199.081 C 138.117 199.981 137.227 201.121 136.477 202.441 C 133.937 201.831 130.697 200.691 130.237 201.851 C 129.617 203.431 134.367 205.341 134.747 206.951 C 134.687 207.201 134.637 207.441 134.587 207.691 C 133.677 209.351 129.147 211.371 129.907 212.901 C 130.307 213.721 132.397 213.431 134.507 213.091 C 134.977 215.981 136.277 218.451 138.277 219.811 C 138.207 220.521 138.317 221.021 138.777 221.101 C 139.117 221.161 139.397 220.921 139.637 220.511 C 142.457 221.571 145.617 220.431 148.067 217.761 C 148.677 218.111 149.207 218.271 149.587 218.051 C 150.187 217.701 150.087 216.601 149.827 215.331 C 150.267 214.571 150.677 213.751 151.007 212.871 C 151.547 211.411 151.877 209.931 152.017 208.471 C 154.057 207.641 156.347 206.841 156.287 205.781 C 156.227 204.761 153.947 205.241 151.997 205.451 C 151.757 202.941 150.917 200.691 149.537 199.101 C 149.637 197.591 149.617 196.251 149.117 195.731 C 149.017 195.611 148.887 195.571 148.737 195.601 Z"/> <path id="path-2" style="color:#000000;fill-rule:evenodd;fill:#edd400" d="M 170.797 208.711 C 169.897 208.791 169.547 210.241 169.367 212.071 C 166.377 212.261 163.377 213.911 161.127 216.621 C 159.677 215.751 158.467 215.211 157.977 215.871 C 157.547 216.461 158.467 217.371 159.847 218.401 C 159.467 219.021 159.127 219.691 158.827 220.381 C 157.717 222.931 157.337 225.571 157.597 227.991 C 156.377 228.431 155.547 228.921 155.617 229.531 C 155.687 230.201 156.637 230.211 157.967 229.961 C 158.747 232.851 160.527 235.211 163.127 236.371 C 164.257 236.871 165.457 237.101 166.657 237.091 C 166.677 238.051 166.887 238.781 167.507 239.011 C 168.487 239.371 169.267 238.031 170.037 236.431 C 171.867 235.741 173.607 234.531 175.067 232.881 C 176.837 234.591 178.447 237.901 180.157 237.171 C 181.717 236.501 177.687 234.101 175.757 232.071 C 176.427 231.201 177.007 230.221 177.497 229.161 C 180.817 228.941 186.037 229.721 186.377 228.041 C 186.777 226.041 180.657 226.761 178.697 225.511 C 178.867 224.681 178.947 223.861 178.977 223.051 C 180.927 220.841 185.507 217.971 184.517 216.561 C 183.727 215.421 181.017 217.531 178.537 219.121 C 177.747 216.261 175.967 213.941 173.397 212.791 C 173.117 212.671 172.837 212.561 172.557 212.471 C 172.227 210.331 171.777 208.621 170.797 208.711 Z"/> <path id="path-3" style="fill-rule: evenodd; color: rgb(0, 0, 0); fill: url(#gradient-1);" d="M 145.137 200.701 C 142.277 201.461 140.457 204.111 139.167 206.621 C 136.867 206.051 139.547 208.951 138.277 210.161 C 138.007 211.401 135.907 211.921 137.647 212.771 C 139.117 215.171 139.047 219.261 142.627 219.591 C 145.007 219.971 147.217 218.211 148.717 216.651 C 149.817 213.961 150.757 210.821 151.077 208.121 C 150.527 205.701 149.967 202.881 148.227 201.141 C 147.177 201.171 146.197 200.631 145.137 200.701 Z"/> <path id="path-4" style="fill-rule: evenodd; color: rgb(0, 0, 0); fill: url(#gradient-2);" d="M 171.387 215.891 C 163.467 216.461 158.497 227.191 163.297 233.611 C 164.617 235.851 167.407 235.741 169.547 236.321 C 172.087 234.281 175.377 232.931 176.447 229.521 C 177.727 228.531 177.677 227.911 177.337 226.491 C 177.307 225.241 178.207 223.641 177.947 222.721 C 176.727 220.511 176.507 217.481 173.597 216.491 C 172.917 216.201 171.997 215.851 171.387 215.891 Z"/> <path id="path-5" style="fill-rule: evenodd; color: rgb(0, 0, 0); fill: url(#gradient-3);" d="M 198.277 202.561 C 195.987 202.511 193.837 204.511 192.107 205.371 C 191.417 208.391 189.107 211.151 189.997 214.511 C 190.317 219.171 196.577 221.511 199.827 217.971 C 203.027 215.671 204.387 211.501 203.717 207.691 C 204.987 206.061 202.357 205.651 201.897 204.051 C 201.117 202.961 199.517 202.541 198.277 202.561 Z"/> <ellipse transform="matrix(-0.049838, 0.998756, -0.992027, -0.184688, 217.550777, 264.22609)" cx="46.641" cy="74.301" rx="27.388" ry="14.275" style="fill: rgb(49, 49, 49);"/> </g> </g> </g> </pattern> <linearGradient id="linearGradient2845" y2="149.16" gradientUnits="userSpaceOnUse" x2="72.172" y1="156.55" x1="86.423"> <stop id="stop2841" style="stop-color:#f57900" offset="0"/> <stop id="stop2843" style="stop-color:#f57900;stop-opacity:0" offset="1"/> </linearGradient> <linearGradient id="linearGradient5040" y2="132.25" gradientUnits="userSpaceOnUse" x2="247.96" gradientTransform="matrix(.64729 0 0 .64729 35.29 153.36)" y1="138.01" x1="249.28"> <stop id="stop5036" style="stop-color:#ad7fa8" offset="0"/> <stop id="stop5038" style="stop-color:#ad7fa8;stop-opacity:0" offset="1"/> </linearGradient> <linearGradient id="linearGradient5032" y2="147.48" gradientUnits="userSpaceOnUse" x2="210.52" gradientTransform="matrix(.64729 0 0 .64729 35.29 153.36)" y1="158.29" x1="217.73"> <stop id="stop5028" style="stop-color:#ef2929" offset="0"/> <stop id="stop5030" style="stop-color:#ef2929;stop-opacity:0" offset="1"/> </linearGradient> <linearGradient id="linearGradient5024" y2="189.48" gradientUnits="userSpaceOnUse" x2="187.22" gradientTransform="matrix(.64729 0 0 .64729 35.29 153.36)" y1="195.7" x1="196.1"> <stop id="stop5020" style="stop-color:#fcaf3e" offset="0"/> <stop id="stop5022" style="stop-color:#fcaf3e;stop-opacity:0" offset="1"/> </linearGradient> <linearGradient id="linearGradient5048" y2="234.03" gradientUnits="userSpaceOnUse" x2="187.08" gradientTransform="matrix(0.64729, 0, 0, 0.647289, 20.616541, 190.601123)" y1="238.06" x1="205.11"> <stop id="stop5044" style="stop-color:#729fcf" offset="0"/> <stop id="stop5046" style="stop-color:#729fcf;stop-opacity:0" offset="1"/> </linearGradient> <linearGradient id="linearGradient5064" y2="255.19" gradientUnits="userSpaceOnUse" x2="219.97" gradientTransform="matrix(0.64729, -0.000001, 0, 0.64729, 20.616383, 190.601373)" y1="258.65" x1="245.59"> <stop id="stop5060" style="stop-color:#fce94f" offset="0"/> <stop id="stop5062" style="stop-color:#fce94f;stop-opacity:0" offset="1"/> </linearGradient> <linearGradient id="linearGradient5072" y2="225.45" gradientUnits="userSpaceOnUse" x2="261.44" gradientTransform="matrix(0.64729, 0, 0, 0.647292, 20.616598, 190.600545)" y1="244.83" x1="274.06"> <stop id="stop5068" style="stop-color:#8ae234" offset="0"/> <stop id="stop5070" style="stop-color:#8ae234;stop-opacity:0" offset="1"/> </linearGradient> <linearGradient id="linearGradient5080" y2="193.9" gradientUnits="userSpaceOnUse" x2="308.02" gradientTransform="matrix(.64729 0 0 .64729 35.29 153.36)" y1="212.38" x1="314.62"> <stop id="stop5076" style="stop-color:#555753" offset="0"/> <stop id="stop5078" style="stop-color:#555753;stop-opacity:0" offset="1"/> </linearGradient> <linearGradient id="gradient-1" y2="234.03" gradientUnits="userSpaceOnUse" x2="187.08" gradientTransform="matrix(0.64729, -0.000001, 0, 0.647288, 19.026407, 58.681819)" y1="238.06" x1="205.11"> <stop id="stop-1" style="stop-color:#729fcf" offset="0"/> <stop id="stop-2" style="stop-color:#729fcf;stop-opacity:0" offset="1"/> </linearGradient> <linearGradient id="gradient-2" y2="255.19" gradientUnits="userSpaceOnUse" x2="219.97" gradientTransform="matrix(0.64729, -0.000001, 0, 0.647291, 19.026097, 58.681507)" y1="258.65" x1="245.59"> <stop id="stop-3" style="stop-color:#fce94f" offset="0"/> <stop id="stop-4" style="stop-color:#fce94f;stop-opacity:0" offset="1"/> </linearGradient> <linearGradient id="gradient-3" y2="225.45" gradientUnits="userSpaceOnUse" x2="261.44" gradientTransform="matrix(0.64729, 0, 0, 0.647292, 19.026526, 58.680791)" y1="244.83" x1="274.06"> <stop id="stop-5" style="stop-color:#8ae234" offset="0"/> <stop id="stop-6" style="stop-color:#8ae234;stop-opacity:0" offset="1"/> </linearGradient> <radialGradient id="gradient-5" gradientUnits="userSpaceOnUse" cx="1.041" cy="111.641" r="138.302"> <stop offset="0" style="stop-color: rgba(241, 160, 160, 1)"/> <stop offset="1" style="stop-color: rgba(228, 71, 71, 1)"/> </radialGradient> </defs> <g transform="matrix(0.686224, 0, 0, 0.770761, 206.511459, 603.002991)"> <g id="g-1" transform="translate(137.26099,41.779745)"> <path d="M 111.61385,263.53018 C 99.888175,250.96992 92.403481,236.59017 89.313512,220.6863 88.11267,214.50567 87.712031,208.72424 87.881539,200.02216 l 0.04579,-2.35021 1.317644,-0.94717 c 2.161533,-1.55376 6.14145,-5.63974 8.308446,-8.52986 3.124301,-4.16685 6.079931,-9.34719 8.606951,-15.08536 0.55462,-1.25939 1.08852,-2.20967 1.18644,-2.11174 0.0979,0.0979 -0.17992,1.89566 -0.61743,3.99497 -1.10958,5.32412 -1.93265,10.58217 -2.73289,17.45847 -0.90112,7.74326 -0.97229,22.8819 -0.14575,31.00347 1.29765,12.75071 3.95822,25.02267 8.0946,37.3366 0.76909,2.2896 1.35176,4.2095 1.29481,4.26641 -0.0569,0.057 -0.78878,-0.63045 -1.62629,-1.52756 z m -228.43996,-1.63113 c 6.34778,-17.57816 9.20038,-29.57552 10.72572,-45.11006 0.52433,-5.3399 0.52554,-24.77574 0.003,-29.91836 -0.5003,-4.91311 -2.14528,-16.19964 -2.72598,-18.70362 -0.56039,-2.4163 -0.40491,-2.75911 0.3438,-0.75797 2.38813,6.3831 5.29139,12.25838 8.43856,17.07703 1.769798,2.70971 3.33194,4.58864 6.188445,7.44334 l 3.821055,3.81865 -0.0031,4.08724 c -0.0155,19.90162 -6.417472,38.34314 -18.54535,53.42249 -2.87412,3.57355 -8.57104,9.54433 -8.24491,8.64126 z m 196.14937,-1.91611 c -1.785663,-2.25814 -4.989485,-8.83869 -6.406248,-13.15822 -3.88772,-11.85312 -4.935983,-26.27344 -2.803874,-38.57109 0.765553,-4.41557 1.73842,-8.20636 2.10769,-8.21263 1.125284,-0.0191 6.633293,-5.56357 11.29411,-11.36887 0.521686,-0.64978 1.012146,-1.11167 1.089918,-1.02641 0.07777,0.0853 -0.554573,1.68969 -1.405203,3.5654 -1.693332,3.73393 -3.025886,7.53633 -3.018461,8.61305 0.0095,1.37059 0.349341,1.52505 2.660765,1.20927 1.177016,-0.16081 2.180063,-0.25735 2.228989,-0.21452 0.04891,0.0428 -0.187723,1.34556 -0.525885,2.89498 -2.25652,10.339 -3.110544,20.46889 -3.624652,42.99344 -0.112871,4.94506 -0.291558,10.24191 -0.397078,11.77082 l -0.191868,2.77977 -1.008203,-1.27499 z m -163.529912,-4.90465 c -0.06172,-2.38727 -0.145589,-8.94051 -0.186374,-14.56271 -0.13471,-18.56849 -1.09411,-31.52435 -3.040427,-41.05837 l -0.215363,-1.05494 1.21085,0.20144 c 0.665971,0.11079 1.754326,0.29315 2.418569,0.40525 l 1.207716,0.20381 -0.154903,-2.16496 c -0.122278,-1.70899 -0.558549,-3.16487 -2.071466,-6.91269 -1.054109,-2.61126 -1.876665,-4.86717 -1.827901,-5.01315 0.04876,-0.14597 1.414063,1.4407 3.033995,3.52594 3.11273,4.00683 7.928504,9.04675 8.956018,9.37287 0.45594,0.14471 0.731992,0.72355 1.083931,2.27287 3.690934,16.24833 2.199415,34.26833 -4.04369,48.85441 -1.218477,2.8468 -3.990173,7.625 -5.328305,9.18559 l -0.930432,1.08512 -0.112218,-4.34048 z M 126.06159,225.41332 c -3.78302,-1.42963 -8.22252,-5.21606 -10.9608,-9.3484 -2.71844,-4.1024 -5.21295,-10.80858 -6.61069,-17.77204 -0.44341,-2.20906 -0.54944,-4.30629 -0.54611,-10.80218 0.004,-7.62512 0.0502,-8.274 0.85732,-12.00273 0.46926,-2.168 1.04707,-4.47001 1.28403,-5.11557 0.42573,-1.15988 0.43131,-1.14076 0.47239,1.61656 0.10613,7.12439 0.66003,11.5779 1.80836,14.53974 0.45599,1.17609 1.05485,2.27992 1.33081,2.45295 0.75011,0.47033 2.16834,-0.68131 3.65634,-2.96904 0.69124,-1.06276 1.64289,-2.49036 2.11476,-3.17243 l 0.85795,-1.24014 0.20005,10.6962 c 0.16331,8.73189 0.31756,11.37944 0.8399,14.41662 1.28729,7.48506 3.38188,13.03101 6.99636,18.52458 0.54341,0.82593 0.54287,0.8521 -0.0173,0.83644 -0.31802,-0.009 -1.34555,-0.30613 -2.28341,-0.66056 z m -256.16835,-4.8264 c 5.66756,-8.37915 8.11895,-19.5893 8.13572,-37.20418 0.003,-2.77094 0.11453,-5.03806 0.24862,-5.03806 0.13412,0 1.05411,1.32782 2.04449,2.95072 1.87931,3.07965 3.43053,4.89932 4.02717,4.72411 0.57629,-0.16923 2.39179,-4.24018 2.86264,-6.41904 0.24139,-1.11699 0.57236,-4.59559 0.7355,-7.73022 0.16314,-3.13464 0.34882,-5.75156 0.41262,-5.81537 0.15818,-0.15818 1.35677,4.84605 1.75548,7.32924 0.17796,1.10837 0.41036,4.10796 0.51649,6.66574 0.719,17.33075 -5.42521,33.62638 -15.07365,39.97821 -1.96227,1.29181 -5.29006,2.65158 -6.48928,2.65158 -0.5003,0 -0.37349,-0.32203 0.8242,-2.09273 z m 179.774439,-5.67129 c 0.186828,-0.24855 1.814166,-2.34729 3.616308,-4.66386 10.565247,-13.5812 20.448191,-29.13992 27.275915,-42.94046 5.05497,-10.21737 8.942177,-20.57582 11.275426,-30.04624 0.56512,-2.29376 1.113023,-3.76568 1.673395,-4.49551 3.545966,-4.61826 6.789347,-11.68715 9.032957,-19.68721 l 0.8695,-3.10035 -0.17792,10.85122 c -0.1148,7.00153 -0.0569,11.98737 0.16311,14.05372 0.32143,3.0184 0.29576,3.38377 -0.4465,6.35571 -1.13279,4.53559 -4.104564,13.21588 -6.492825,18.96499 -8.76558,21.10083 -22.987827,39.1499 -39.998258,50.76069 -3.818822,2.60661 -7.307667,4.63449 -6.791108,3.9473 z m -104.34725,-2.19791 c -8.861147,-5.49768 -18.417834,-14.34654 -25.905611,-23.98688 -8.53017,-10.98239 -15.758507,-25.47913 -20.435478,-40.98422 -1.77343,-5.87922 -3.3573,-12.45151 -3.13829,-13.02225 0.42518,-1.10804 0.79607,-7.81411 0.84537,-15.2863 0.0298,-4.51876 0.14218,-9.12278 0.2497,-10.23115 0.19439,-2.00448 0.19678,-2.00862 0.44453,-0.77509 1.60626,7.99734 4.744368,16.0807 8.242863,21.23245 1.104716,1.62676 1.398815,2.44154 2.159361,5.98216 1.735451,8.07899 5.219786,18.70371 8.904364,27.15182 6.123481,14.0401 17.468944,32.89946 29.542325,49.10768 0.857373,1.15101 1.454937,2.08457 1.327919,2.07458 -0.127018,-0.01 -1.133692,-0.57824 -2.237053,-1.2628 z M 82.656724,197.76363 c 0,-0.0743 0.536556,-1.29996 1.19234,-2.72371 0.65578,-1.42377 1.57735,-3.42576 2.047916,-4.44887 0.470571,-1.02311 1.376264,-2.97633 2.012648,-4.34049 0.636385,-1.36415 1.409699,-3.03834 1.718473,-3.72042 0.308779,-0.68207 1.532251,-3.33287 2.718836,-5.89066 4.057254,-8.74578 9.079553,-21.31609 11.272173,-28.21316 1.13115,-3.5581 1.29146,-3.85185 3.6742,-6.73291 l 2.49146,-3.01248 0.21466,1.15228 c 0.11806,0.63375 0.22155,2.7567 0.22998,4.71767 0.0713,16.58618 -6.99897,33.82722 -18.858142,45.98618 -3.606749,3.69793 -8.714544,7.93358 -8.714544,7.22657 z m -169.448201,-3.20147 c -2.619028,-2.03051 -7.122996,-6.64124 -9.330568,-9.55174 -8.290795,-10.93072 -12.835065,-21.97492 -14.401895,-35.00176 -0.4134,-3.43711 -0.22536,-13.38835 0.2622,-13.87591 0.19399,-0.19397 1.12171,0.78165 2.617,2.75209 1.98079,2.61016 2.41353,3.41048 2.98595,5.52195 0.93559,3.45117 3.39578,10.91365 5.413516,16.42092 2.209556,6.03076 2.367333,6.42134 6.949957,17.2037 2.138713,5.03209 4.71207,11.08739 5.718595,13.45622 1.006525,2.36882 1.78532,4.35168 1.730655,4.40635 -0.05466,0.0547 -0.930099,-0.54466 -1.94541,-1.33182 z M 52.9264,186.01804 c 9.488934,-13.33602 17.008653,-27.82802 21.676317,-41.77461 3.235355,-9.66698 4.854789,-16.57825 5.993959,-25.58045 l 0.706193,-5.58063 0.173866,5.47122 c 0.09563,3.00918 0.283288,5.64827 0.41702,5.86466 0.177295,0.28686 0.443841,0.14854 0.984052,-0.51067 l 0.740892,-0.90409 -0.165902,1.08512 c -0.09124,0.59681 -0.318575,1.92221 -0.505177,2.94533 -0.747407,4.09792 -0.741687,16.58686 0.0076,16.58686 0.709656,0 3.462603,-2.30711 4.939343,-4.13942 0.919841,-1.14131 1.712045,-2.03551 1.760453,-1.9871 0.159243,0.15924 -1.33909,5.60138 -2.660153,9.66201 -2.374039,7.29721 -6.175497,14.95338 -10.328751,20.80224 -2.581438,3.63533 -9.538058,10.74374 -12.921507,13.20346 -3.703496,2.69238 -11.209516,7.10382 -12.087079,7.10382 -0.181756,0 0.389242,-1.01149 1.268876,-2.24775 z m -108.865487,0.0372 c -7.84828,-4.23525 -15.705135,-10.98768 -20.936975,-17.99386 -2.692661,-3.60586 -6.02379,-9.30457 -7.581079,-12.9693 -2.27994,-5.36533 -5.010907,-14.39856 -5.717569,-18.91212 l -0.21845,-1.39516 0.841124,1.24014 c 1.995186,2.94173 5.409558,5.86883 5.906978,5.06399 0.677253,-1.09582 0.417136,-14.98761 -0.365261,-19.50712 l -0.183265,-1.05861 0.688547,1.02693 c 0.388027,0.57873 0.805737,0.90976 0.95705,0.75844 0.147676,-0.14768 0.42116,-2.9118 0.607745,-6.14251 0.319721,-5.53595 0.588564,-7.7409 0.588564,-4.82717 0,0.71786 0.21558,3.28727 0.479069,5.7098 1.555094,14.29774 4.644554,25.80304 10.934549,40.72081 2.712547,6.43326 8.660713,17.30807 13.606178,24.87566 1.601431,2.45052 2.865815,4.50137 2.809742,4.55744 -0.05607,0.0561 -1.1437,-0.46023 -2.416947,-1.14733 z m 170.405257,-4.53272 c -0.11519,-1.49205 -0.54848,-6.13094 -0.96288,-10.30866 -1.35021,-13.61195 -1.50866,-16.44252 -1.5286,-27.30805 l -0.0197,-10.72118 1.05206,-1.19905 c 2.03915,-2.32407 4.06352,-7.97644 4.06352,-11.346 0,-1.71331 0.35053,-0.74455 0.93195,2.57561 1.1999,6.85202 2.4111,10.35622 4.57598,13.23903 l 0.78804,1.04938 -0.37661,8.25167 c -0.41414,9.0738 -0.41539,9.08902 -1.28554,15.56169 -0.63883,4.75199 -1.44131,8.80956 -2.50923,12.68721 -1.14529,4.1586 -3.703,10.23115 -4.30929,10.23115 -0.11567,0 -0.30454,-1.22076 -0.41972,-2.7128 z m -231.5648,-1.5436 c -3.74794,-7.2251 -5.7251,-18.97902 -6.01827,-35.77792 l -0.17111,-9.80592 0.99915,-1.45223 c 2.05132,-2.98147 3.35718,-6.66968 4.66996,-13.18953 0.35992,-1.78757 0.69454,-3.29026 0.74359,-3.33931 0.049,-0.0491 0.16727,0.94316 0.26269,2.20491 0.18866,2.49444 1.21181,6.53395 2.09215,8.25997 0.30442,0.59681 1.00392,1.64318 1.55448,2.32526 l 1.00104,1.24013 -0.19981,8.06091 c -0.24502,9.88566 -1.53117,23.66934 -3.84763,41.23463 l -0.2453,1.8602 -0.84094,-1.6211 z m 224.58468,-9.69514 c -0.009,-0.25578 0.1182,-0.67433 0.28349,-0.9301 0.36625,-0.56674 0.36625,-0.0772 0,0.77508 -0.17569,0.40886 -0.27226,0.46166 -0.28349,0.15502 z m 21.23419,-12.9299 c -1.26803,-12.91097 -4.83079,-30.81108 -8.59068,-43.16148 l -1.26661,-4.16056 0.49107,-2.19515 c 1.24452,-5.56318 1.8623,-10.023949 2.81585,-20.332199 0.43377,-4.689277 0.87376,-9.153775 0.97775,-9.921111 l 0.18907,-1.39516 0.59487,1.860213 c 4.71384,14.740825 6.81393,33.058197 6.36266,55.496227 -0.17534,8.71786 -0.99684,25.54577 -1.25993,25.80886 -0.0589,0.0589 -0.20025,-0.84091 -0.31405,-1.99964 z m -258.40916,-2.10679 c 0.0186,-0.68207 -0.0697,-6.89052 -0.19626,-13.79654 -0.44179,-24.10163 1.07651,-41.00433 5.16602,-57.51146 1.45072,-5.855721 3.34103,-11.594382 3.37011,-10.231145 0.0983,4.605942 1.58648,24.613193 1.9832,26.662995 0.066,0.34103 0.36767,2.04088 0.67039,3.77743 l 0.5504,3.15738 -1.43081,4.43847 c -2.54467,7.89357 -4.36522,14.76372 -6.25755,23.6136 -1.31489,6.14943 -3.26157,17.52462 -3.26836,19.09823 -0.003,0.60559 -0.14342,1.31035 -0.31291,1.56613 -0.22847,0.34478 -0.29938,0.14432 -0.27423,-0.77509 z M 64.790376,142.22562 c 0.085,-0.34104 0.730884,-3.61966 1.435298,-7.28581 0.704409,-3.66617 1.8369,-9.38631 2.516639,-12.71143 3.118992,-15.25737 3.979107,-22.22675 4.208109,-34.09776 0.168753,-8.747647 0.227614,-9.511288 0.791962,-10.274608 0.335317,-0.453538 1.005492,-1.921183 1.489288,-3.261434 l 0.879629,-2.436817 0.02332,3.875435 c 0.02574,4.277201 0.526443,6.917213 1.341668,7.074213 0.549781,0.105876 2.829716,-3.125443 3.733556,-5.291515 0.266823,-0.639448 0.571092,-1.162631 0.676148,-1.162631 0.10506,0 0.110746,1.220761 0.01265,2.712805 -0.09811,1.492044 -0.323441,5.224088 -0.50073,8.293432 -1.16142,20.107 -4.276129,34.15248 -9.924772,44.75478 -1.582324,2.96998 -4.90908,8.17145 -6.175981,9.65632 -0.570123,0.66822 -0.64,0.68959 -0.506772,0.15502 z m -131.94407,-2.86782 c -5.877078,-7.91729 -10.336727,-19.96269 -12.310821,-33.25123 -0.797099,-5.36563 -1.90605,-22.956009 -1.876374,-29.76334 l 0.0088,-2.015228 1.520497,2.918396 c 0.836272,1.605117 1.857251,3.25515 2.268841,3.666736 l 0.748344,0.748347 0.553142,-1.165664 c 0.414132,-0.872717 0.601749,-2.30064 0.746561,-5.681964 l 0.193421,-4.5163 0.853172,2.490121 c 0.469244,1.36957 1.176864,2.974001 1.572487,3.565401 0.713245,1.0662 0.71672,1.117142 0.411572,6.035831 -0.622724,10.037726 0.535396,22.634594 3.805236,41.389644 2.014303,11.55356 2.987737,17.36195 2.909714,17.36195 -0.0447,0 -0.676753,-0.80222 -1.404575,-1.7827 z M 106.64814,115.09758 c 0.14929,-23.229847 0.16858,-23.835633 0.93765,-29.453307 2.35282,-17.186219 3.5007,-32.339837 3.71525,-49.046928 0.16719,-13.01894 -0.40473,-23.966808 -1.80268,-34.5074469 -0.22615,-1.70519137 -0.373,-3.1443387 -0.32634,-3.198102 0.29975,-0.3453632 4.12558,10.6318143 6.1392,17.6147189 6.07449,21.065417 8.05895,49.846753 4.99137,72.391619 -1.6524,12.144116 -5.40255,28.045096 -8.8113,37.360696 -0.53037,1.44941 -1.38519,3.8027 -1.8996,5.22954 -0.51441,1.42683 -1.42145,3.65908 -2.01564,4.96055 l -1.08035,2.36632 0.15244,-23.71766 z m -21.360266,20.30728 c 0.109191,-1.53468 0.45546,-5.65039 0.76948,-9.14603 0.564734,-6.28652 0.58981,-6.40972 2.303278,-11.31627 4.588312,-13.1387 7.521596,-31.425574 8.583103,-53.509314 0.39814,-8.282974 0.213234,-29.282517 -0.31772,-36.082657 -0.302821,-3.878405 -0.281466,-4.179108 0.596632,-8.401568 1.879064,-9.0357185 2.790443,-16.83466795 2.793553,-23.9052062 0.005,-11.9690238 -2.198448,-20.6857968 -7.324748,-28.9730678 -1.526323,-2.467486 -1.695787,-2.898642 -1.397022,-3.554359 0.414788,-0.910365 1.111886,-0.943002 2.469003,-0.115603 2.215492,1.350735 2.735938,2.342356 5.852327,11.150686 5.17901,14.638215 7.94306,28.69688538 9.26521,47.125287 0.50842,7.086388 0.6974,26.61498 0.31114,32.151459 -0.10466,1.500101 -0.40316,5.796801 -0.66334,9.54822 -1.4168,20.42812 -5.38246,38.623091 -12.129386,55.651243 -2.37475,5.99348 -7.371482,16.14843 -9.68708,19.68721 l -1.622961,2.48028 0.198531,-2.79031 z M -87.6163,133.29952 c -7.467811,-13.5642 -13.45759,-31.44379 -16.63991,-49.670474 -4.47641,-25.638381 -4.03737,-61.335422 1.07154,-87.1197741 1.05257,-5.3121858 2.99081,-13.0837879 4.368764,-17.5169659 1.355441,-4.360785 4.656381,-13.379843 5.902876,-16.128301 1.29455,-2.85445 3.69146,-4.751357 5.07092,-4.013096 0.90097,0.482185 0.729084,1.597355 -0.531127,3.445872 -0.622007,0.912361 -2.005569,3.472541 -3.074631,5.68929 -6.071628,12.589887 -6.927293,26.6209764 -2.961452,48.560761 0.472059,2.611441 0.541228,3.802263 0.333194,5.735643 -0.144383,1.34198 -0.40971,5.160517 -0.589624,8.485643 -0.179882,3.325121 -0.404595,7.365638 -0.499342,8.978926 -0.295928,5.038772 -0.189586,25.943084 0.161714,31.790644 0.995894,16.576635 3.827101,33.478422 7.322687,43.714912 0.780073,2.28436 0.887962,3.21493 1.365936,11.78132 0.28543,5.11557 0.501444,9.33025 0.48003,9.36595 -0.02142,0.0357 -0.823124,-1.35945 -1.781575,-3.10035 z m -20.54592,-0.13467 c -4.963,-12.90508 -8.68763,-28.56091 -10.53107,-44.26521 -1.27725,-10.88108 -1.74295,-23.574588 -1.13336,-30.890242 1.9423,-23.309005 5.82295,-41.377914 12.17624,-56.6945869 1.88433,-4.5427849 2.3713,-5.5060786 1.99917,-3.9547823 -0.40615,1.69314354 -1.73369,11.6632198 -2.19849,16.5111902 -1.61277,16.821478 -1.43698,39.757597 0.46629,60.834674 0.35077,3.884618 0.77112,7.90004 0.9341,8.923153 0.57481,3.608508 0.67684,10.044835 0.33915,21.392404 -0.18775,6.30921 -0.43225,15.86603 -0.5433,21.23738 -0.11106,5.37135 -0.23371,9.80446 -0.27259,9.85135 -0.0388,0.0469 -0.59511,-1.27851 -1.23614,-2.94533 z m 164.783565,-6.53257 c -0.004,-0.39141 0.479646,-3.68205 1.075097,-7.31252 1.58802,-9.68219 2.069405,-14.25807 2.156503,-20.499008 l 0.07788,-5.580628 2.019451,-5.27059 c 1.821295,-4.753418 2.289307,-6.124248 3.334231,-9.766097 l 0.311348,-1.085121 -0.141696,1.085121 c -0.07794,0.59682 -0.236091,3.331247 -0.351471,6.076513 -0.168373,4.006183 -0.127933,5.041972 0.204889,5.247667 0.609935,0.376962 2.71437,-2.157452 4.600672,-5.540678 l 1.582402,-2.838168 -0.0035,2.015222 c -0.01443,8.000229 -3.386605,20.752317 -8.239511,31.158497 -3.159767,6.77555 -6.616739,13.19777 -6.626155,12.30979 z m -116.821854,-6.1866 c -7.0137,-14.36784 -10.18664,-25.309232 -10.766507,-37.126668 -0.222965,-4.54388 -0.26774,-4.534469 1.895398,-0.398318 1.505436,2.878554 3.607887,5.529326 4.043365,5.097875 0.144891,-0.143553 0.24463,-3.052261 0.221644,-6.463794 l -0.04179,-6.202785 1.026088,3.983509 c 0.564348,2.19093 1.742727,6.006491 2.618625,8.479016 l 1.59254,4.495507 -0.204291,4.805536 c -0.223067,5.247222 0.163885,10.388882 1.528283,20.307282 1.062892,7.7266 1.194768,8.83599 1.050367,8.83599 -0.06931,0 -1.402979,-2.61592 -2.963719,-5.81315 z m 143.484158,-4.88859 c 0.004,-1.19059 0.209291,-5.79211 0.456714,-10.22561 0.539149,-9.660857 0.595926,-20.57303 0.134691,-25.887903 l -0.336315,-3.875434 2.062563,-6.355716 c 3.403233,-10.486941 4.231599,-15.325043 3.561785,-20.80271 -0.359281,-2.938146 -0.3536,-2.995984 0.449971,-4.581756 0.995251,-1.964038 2.554134,-7.325801 3.924119,-13.49698 0.83212,-3.74832 1.070499,-4.457004 1.26037,-3.747033 0.463981,1.734878 0.959678,19.278259 0.757723,26.816706 C 94.692813,85.59381 90.907001,106.3111 83.998699,116.64221 l -0.721902,1.07959 0.0069,-2.16471 z m -168.10305,-1.77716 c -2.846235,-4.94069 -5.318694,-13.34994 -6.904987,-23.485135 -1.958086,-12.510404 -2.752923,-35.252274 -1.842134,-52.705914 0.213956,-4.100277 1.016419,-13.707696 1.156616,-13.847909 0.05792,-0.0579 0.567581,2.231977 1.132588,5.088618 1.35262,6.838508 2.31903,10.591296 3.374214,13.102723 l 0.864343,2.057203 -0.424772,2.767852 c -0.431705,2.813008 -0.36217,5.606494 0.250257,10.053668 0.360152,2.615268 0.890482,4.69063 3.113323,12.183495 l 1.544925,5.207707 -0.560956,3.938317 c -0.494601,3.472474 -0.552295,5.927802 -0.487737,20.757706 0.04027,9.250659 0.03438,16.819389 -0.01308,16.819389 -0.04747,0 -0.588635,-0.87198 -1.202591,-1.93772 z m 217.738431,-5.89066 c -0.19467,-0.72471 -1.32201,-6.13094 -2.5052,-12.013847 -2.76679,-13.756709 -3.97101,-19.054568 -5.92697,-26.075325 l -1.58891,-5.703241 0.0418,-7.285821 c 0.0751,-13.110509 -1.56121,-26.972289 -4.6662,-39.529434 -0.33732,-1.364153 -0.67987,-2.75931 -0.76124,-3.100348 -0.25249,-1.058239 2.06312,3.552193 3.50362,6.975783 4.93069,11.718642 7.69491,21.929316 9.8201,36.274071 0.41683,2.813562 0.84376,6.022424 0.94873,7.130798 0.10497,1.108373 0.3197,3.20111 0.47719,4.650521 0.70138,6.455357 1.21322,16.996501 1.41265,29.09312 0.1768,10.724533 0.0348,12.525803 -0.7555,9.583723 z m -265.30157,-7.51834 c 0.94722,-36.860844 5.92365,-63.689278 15.52227,-83.68231 2.50275,-5.212931 3.17038,-6.116856 2.30994,-3.127436 -1.29976,4.515812 -3.12558,12.850397 -4.00007,18.259756 -1.39918,8.654937 -1.89251,13.934656 -2.07435,22.199787 l -0.16707,7.59585 -1.48895,4.960556 c -0.81892,2.728306 -1.92354,6.774262 -2.4547,8.99101 -0.53118,2.216747 -1.17382,4.814285 -1.42811,5.772302 -0.25429,0.958018 -0.72412,2.911237 -1.0441,4.340488 -3.42418,15.295327 -5.08002,22.466637 -5.2173,22.595877 -0.0906,0.0853 -0.0715,-3.47239 0.0424,-7.90588 z m 176.589002,2.24775 c 0.470912,-1.5773 1.366813,-4.256732 1.990897,-5.954293 1.317344,-3.583299 2.218373,-7.001526 2.529587,-9.596445 0.17353,-1.446917 0.468576,-2.160549 1.404516,-3.397142 0.999253,-1.320239 2.896664,-4.876027 4.240951,-7.947638 0.859522,-1.963954 0.163269,7.046277 -0.891742,11.540046 -0.865999,3.688651 -2.411327,7.494194 -4.378487,10.782457 -1.670223,2.791905 -5.115669,7.440835 -5.514604,7.440835 -0.130527,0 0.14797,-1.29052 0.618882,-2.86782 z m -89.327781,0.65491 c -4.023074,-4.921414 -7.292204,-11.948356 -8.490129,-18.249384 -0.49325,-2.594465 -1.02319,-11.471291 -0.684827,-11.471291 0.0954,0 0.551106,1.011489 1.012685,2.247752 1.03875,2.782128 3.054333,6.639803 4.009221,7.673365 0.583631,0.631716 0.719352,1.133805 0.733735,2.7144 0.01792,1.970243 1.116358,6.356219 2.836676,11.326689 1.074183,3.103599 1.935801,6.368279 1.793442,6.795359 -0.05786,0.17358 -0.60272,-0.29302 -1.210803,-1.03689 z m 99.392801,-6.468065 c 0.35572,-1.673004 2.01703,-15.275223 2.366644,-19.377175 0.400566,-4.699774 0.21677,-11.379335 -0.445886,-16.204632 -0.217012,-1.580224 -0.3272,-2.940502 -0.244864,-3.022838 0.08234,-0.08234 0.619238,-0.149704 1.193111,-0.149704 2.10894,0 4.533709,-1.543856 5.599805,-3.565401 0.269782,-0.511554 0.727677,-1.690245 1.017556,-2.619314 l 0.527051,-1.689212 0.509825,1.75374 c 0.87952,3.025426 1.208276,6.657054 1.030538,11.383663 -0.278205,7.398148 -1.941897,14.087605 -5.623301,22.610405 -2.217903,5.134673 -6.301942,12.627528 -5.930479,10.880468 z M 31.20417,96.580277 c -0.0073,-0.209148 0.495331,-1.737822 1.116895,-3.397053 1.500309,-4.005018 1.962127,-5.820923 1.966553,-7.732725 0.0035,-1.487534 0.05857,-1.599906 0.863781,-1.760947 1.093514,-0.218702 2.986682,-1.715923 4.518943,-3.573824 0.656471,-0.795983 1.304228,-1.488764 1.439467,-1.539513 0.246149,-0.09238 -0.336977,3.30003 -0.869042,5.055686 -0.155504,0.51313 -0.667843,1.699014 -1.138523,2.635295 -1.485326,2.954611 -7.864318,11.284121 -7.898074,10.313081 z m -85.973769,-1.100321 c -0.715619,-1.092175 -2.99041,-5.690051 -4.175933,-8.440528 -2.800615,-6.497569 -4.940051,-13.962523 -5.674966,-19.801166 -0.693564,-5.510133 -0.154962,-12.833351 1.258942,-17.117522 l 0.392752,-1.190058 0.427892,1.671981 c 0.944672,3.691299 2.829315,5.705716 5.880669,6.285601 l 1.835294,0.348784 -0.373496,2.189764 c -1.4683,8.608506 -1.285587,18.511768 0.62242,33.735807 0.208368,1.66256 0.354062,3.022838 0.323769,3.022838 -0.03029,0 -0.263099,-0.317479 -0.517343,-0.705501 z m 21.779265,-1.071481 c -5.348832,-6.832699 -7.361525,-10.661929 -7.906489,-15.042407 -0.153907,-1.237142 -0.115968,-1.782698 0.12398,-1.782698 0.190166,0 0.345757,0.134409 0.345757,0.298691 0,0.613902 3.736698,4.264999 4.90347,4.791141 l 1.212456,0.546737 0.165379,2.3748 c 0.09742,1.398973 0.50549,3.330264 0.993085,4.700056 1.345542,3.779993 1.975278,5.890662 1.757535,5.890662 -0.112255,0 -0.830085,-0.799644 -1.595173,-1.776982 z m 74.578243,-2.414533 c -0.456477,-4.262529 0.687786,-15.348667 1.695407,-16.425799 1.726915,-1.846065 3.39407,-7.257021 3.403994,-11.04809 0.0049,-1.796006 0.0951,-2.115861 0.712304,-2.52027 1.192908,-0.781627 2.359683,-2.782123 2.900245,-4.972654 0.467677,-1.895139 0.547553,-2.023042 0.864695,-1.384583 0.192184,0.386892 0.856089,1.032332 1.475352,1.43431 1.005472,0.652672 1.166854,0.947703 1.508351,2.757586 0.501718,2.659022 0.199856,8.488644 -0.599156,11.570818 -0.730123,2.816437 -2.668339,7.556473 -4.4141,10.79495 -1.191604,2.210493 -6.592498,11.0435 -7.09634,11.605863 -0.126106,0.140747 -0.328945,-0.67471 -0.450752,-1.812131 z m -86.045447,-2.851873 c -6.557425,-11.063843 -8.872656,-16.971301 -9.20967,-23.499069 -0.10588,-2.050795 -0.02344,-4.491101 0.206412,-6.110386 0.365642,-2.575851 0.429571,-2.723633 1.4348,-3.316728 0.578659,-0.341418 1.31248,-1.048905 1.630709,-1.572197 l 0.578605,-0.951432 0.187519,1.583316 c 0.267926,2.262206 1.498795,4.768106 2.742484,5.583365 l 1.033984,0.677798 0,3.140263 c 0,4.087305 0.939217,7.283722 2.967989,10.100905 0.389022,0.540202 0.667762,1.771193 0.88096,3.890586 0.494038,4.91115 0.562722,14.426252 0.103995,14.406719 -0.127889,-0.0054 -1.278894,-1.775357 -2.557787,-3.93314 z M 66.968063,81.303785 c 0.08821,-2.302008 0.315626,-6.845024 0.505379,-10.095584 0.404132,-6.92285 0.04797,-14.271959 -0.897621,-18.522978 L 65.9684,49.954566 66.639202,49.690919 c 1.031126,-0.405268 3.177596,-2.771161 4.18006,-4.60737 0.751058,-1.375716 0.929641,-1.543905 1.069885,-1.007611 0.230039,0.879658 1.560272,0.8556 2.154241,-0.03898 0.444784,-0.669874 0.463092,-0.656763 0.973875,0.697577 1.909115,5.06198 2.289633,15.807747 0.773467,21.842585 -1.498091,5.962876 -2.363645,8.492764 -4.023405,11.759731 -1.367382,2.691483 -2.490531,4.401167 -3.985781,6.067269 l -0.973851,1.085121 0.16037,-4.185469 z m -36.014962,1.64492 c 0.676127,-2.002754 1.25784,-5.090944 1.945068,-10.325891 0.257427,-1.96097 0.641315,-4.258251 0.853081,-5.105063 0.336755,-1.346603 0.512913,-1.576203 1.404896,-1.831066 1.129844,-0.322823 2.212351,-1.56738 3.780917,-4.346885 l 1.031007,-1.826956 0.544159,1.051869 c 0.726363,1.404061 2.126265,2.680383 3.080113,2.808207 0.715396,0.09587 0.782957,0.247122 0.877312,1.964073 0.277864,5.056338 -2.284481,10.690759 -6.704662,14.743093 -1.957656,1.794737 -5.310747,3.999919 -6.760574,4.446131 l -0.651585,0.200542 0.600268,-1.778054 z m -98.393874,-0.04872 c -3.267302,-3.828188 -6.33207,-11.266184 -7.428322,-18.028042 -1.254882,-7.740317 -0.705032,-16.673761 1.312343,-21.321763 0.631125,-1.454104 0.639971,-1.460235 1.108976,-0.768215 0.591989,0.873478 1.463882,0.894943 2.055289,0.05059 0.434684,-0.620601 0.487616,-0.570222 1.297873,1.235274 0.768499,1.71244 3.077933,4.364235 4.104349,4.712791 0.275857,0.09368 0.254282,0.54698 -0.08709,1.829718 -1.429174,5.370295 -1.892074,13.456136 -1.417842,24.766577 0.195781,4.669364 0.29812,8.547595 0.227423,8.618292 -0.0707,0.0707 -0.598547,-0.422154 -1.173001,-1.095223 z m 35.155747,0.287477 c -5.031103,-2.773883 -8.848409,-6.97969 -10.611183,-11.691123 -0.722824,-1.931928 -1.367576,-6.671969 -1.101377,-8.097065 0.160115,-0.857171 0.320189,-1.007611 1.072153,-1.007611 0.923166,0 2.50753,-1.480771 3.192217,-2.983495 0.18467,-0.405308 0.418008,-0.733171 0.518527,-0.728592 0.100517,0.0044 0.578119,0.893837 1.061336,1.976107 1.118324,2.504744 2.443961,4.11365 3.59828,4.367179 1.116925,0.245319 1.240604,0.741604 2.360781,9.473112 0.437335,3.408919 1.05836,6.963057 1.380055,7.898078 0.321696,0.935027 0.487781,1.697517 0.369075,1.694429 -0.118706,-0.003 -0.946645,-0.408548 -1.839864,-0.901019 z M 138.83837,82.388906 c -0.21984,-0.511554 -0.74851,-1.854275 -1.17483,-2.983822 -0.42631,-1.129542 -1.23548,-2.818215 -1.79813,-3.7526 -0.98648,-1.638211 -1.03045,-1.852763 -1.23113,-6.007188 -0.38531,-7.976507 -1.59629,-15.762768 -3.72801,-23.970164 -0.40223,-1.548613 -0.6966,-2.815662 -0.65417,-2.815662 0.19463,0 2.68114,4.095599 3.67044,6.045682 3.83295,7.555391 5.59057,16.826167 5.40766,28.523198 -0.0803,5.133745 -0.14348,5.771147 -0.49183,4.960556 z M 24.12228,76.885792 c 0.117712,-3.610108 0.239781,-4.367623 1.007211,-6.250491 1.158876,-2.843267 1.665465,-4.836348 1.908684,-7.509301 l 0.201189,-2.210992 1.296769,1.59092 c 1.160941,1.424291 1.966582,2.102291 3.750307,3.156121 0.52103,0.307826 0.523425,0.443564 0.0452,2.561174 -0.96443,4.27064 -4.050733,9.725277 -6.6817,11.809043 -0.66769,0.528814 -1.314691,0.961485 -1.437798,0.961485 -0.123101,0 -0.163546,-1.848583 -0.08987,-4.107959 z m -161.32443,1.782698 c -0.40661,-11.146925 1.30763,-21.895162 4.7222,-29.608324 1.30853,-2.955856 3.25202,-6.254967 4.53994,-7.706607 l 1.00199,-1.129383 -0.47674,1.395159 c -0.8134,2.380481 -2.55053,9.292053 -3.23378,12.86644 -0.73237,3.831226 -1.79734,12.342175 -1.914,15.296183 -0.0462,1.171918 -0.24344,2.08261 -0.49634,2.292484 -0.55254,0.458576 -1.14319,1.609652 -2.74722,5.353908 l -1.32818,3.100348 -0.0679,-1.860208 z m 111.733406,0.903539 c -2.324898,-1.832286 -5.087894,-6.694831 -6.062706,-10.669635 -0.787817,-3.212345 -0.87236,-4.03045 -0.416501,-4.03045 0.696937,0 3.266546,-2.011038 4.313118,-3.375549 l 1.004295,-1.30939 0.199539,2.730011 c 0.196057,2.682388 0.663366,4.802236 1.654181,7.503836 0.275023,0.749893 0.603564,2.284565 0.730089,3.410382 0.254129,2.261272 0.118882,6.544411 -0.20648,6.539011 -0.113898,-0.002 -0.660889,-0.361089 -1.215535,-0.798216 z m 103.300547,-4.46894 c 0.575261,-17.314018 0.583714,-21.16907 0.05322,-24.279654 -0.285363,-1.673251 -0.868514,-3.971253 -1.295884,-5.106673 l -0.777043,-2.064406 0.842252,-1.559071 c 0.463235,-0.857492 1.074,-1.977623 1.357264,-2.489177 1.021656,-1.845086 1.618974,-4.247412 1.598448,-6.428764 -0.01778,-1.891799 0.0331,-2.097015 0.396836,-1.599589 0.689332,0.942718 1.88066,0.0087 3.585196,-2.810766 2.545662,-4.210796 2.284678,-4.323661 2.908308,1.257712 1.684766,15.078444 0.50977,29.468762 -3.23789,39.65478 -0.97103,2.639232 -4.175129,9.155064 -4.95484,10.07613 l -0.656135,0.775087 0.180268,-5.425609 z m -155.545638,3.01238 c -2.153049,-3.285966 -5.02186,-10.672337 -6.161762,-15.86477 -2.143059,-9.761992 -2.35179,-22.35157 -0.565131,-34.085586 0.334825,-2.198987 0.608772,-4.055804 0.608772,-4.126259 0,-0.520664 0.799192,0.62316 1.859821,2.661825 0.691877,1.329873 1.683508,2.823964 2.203628,3.320204 l 0.945671,0.902249 0.567975,-0.697577 c 0.312388,-0.383671 0.615369,-0.697578 0.673296,-0.697578 0.05793,0 0.105322,1.430037 0.105322,3.177858 l 0,3.177853 1.626461,3.255367 1.626458,3.255367 -0.79519,1.960007 c -1.93009,4.757326 -2.370656,9.686893 -2.103852,23.540353 0.115761,6.0108 0.134422,10.928728 0.04146,10.928728 -0.09295,0 -0.377774,-0.31862 -0.632933,-0.708041 z m 95.263254,-1.398726 c 0,-1.158723 0.295515,-3.495608 0.656703,-5.193084 0.476786,-2.240762 0.611175,-3.696427 0.490534,-5.313228 l -0.166164,-2.226914 1.686811,-0.530568 c 2.096274,-0.659356 4.250055,-2.505875 5.060879,-4.338888 0.334022,-0.755109 0.705886,-1.372919 0.826365,-1.372919 0.354133,0 -0.136598,5.913288 -0.697479,8.404579 -0.597566,2.654255 -1.764627,5.39584 -3.355794,7.883229 -1.185271,1.852882 -3.783174,4.79456 -4.234247,4.79456 -0.147184,0 -0.267608,-0.948044 -0.267608,-2.106767 z m -37.343801,-0.268428 c -3.688326,-4.471529 -5.400307,-9.117135 -5.665684,-15.374301 -0.09221,-2.174119 -0.08591,-3.952939 0.01402,-3.952939 0.09991,0 0.4747,0.662695 0.832859,1.472664 0.358158,0.809964 1.027386,1.869342 1.487172,2.35417 0.896868,0.945717 3.073585,2.151899 4.50707,2.497506 0.681601,0.164327 0.829072,0.332111 0.652109,0.74193 -0.430893,0.997889 -0.515284,4.329802 -0.151843,5.995208 0.544716,2.496064 0.809045,8.330918 0.377411,8.330918 -0.192317,0 -1.116214,-0.929321 -2.053103,-2.065156 z m 50.968521,-13.0709 c -2.492176,-1.581094 -3.892473,-4.463663 -4.298408,-8.848459 -0.2712,-2.929407 -0.242642,-3.565678 0.318516,-7.096469 0.285353,-1.795468 0.422944,-2.092736 0.968629,-2.092736 0.349816,0 1.767176,-0.477443 3.149699,-1.060979 3.2852,-1.386633 4.997058,-1.67247 5.390253,-0.900041 0.158423,0.311224 0.319163,2.138773 0.357196,4.061216 0.07089,3.583067 0.321312,5.046132 1.004657,5.869509 0.256479,0.30904 0.392978,1.592994 0.400571,3.767884 0.01082,3.097666 -0.04145,3.380608 -0.855946,4.634136 -0.599083,0.921995 -1.302464,1.521502 -2.273455,1.937717 -1.878056,0.805029 -2.531691,0.762342 -4.161712,-0.271778 z m -66.155715,-0.60545 c -3.380141,-1.867262 -3.889684,-5.596564 -1.598117,-11.696572 0.258271,-0.687504 0.471941,-2.291584 0.479487,-3.599636 0.0075,-1.297721 0.104531,-3.022853 0.215657,-3.833622 l 0.202053,-1.474121 1.384525,0.189768 c 0.761489,0.104373 2.44939,0.667136 3.750891,1.250573 1.301504,0.583442 2.713862,1.107045 3.138575,1.163574 0.691846,0.09207 0.815057,0.328619 1.183955,2.273015 0.255779,1.34816 0.357272,3.403362 0.267935,5.425609 -0.229742,5.200361 -1.877602,8.730752 -4.901603,10.501228 -1.473552,0.862724 -2.269781,0.824137 -4.123358,-0.199816 z m 52.851225,-2.124491 c -1.724282,-1.450889 -2.308914,-3.007178 -2.322994,-6.183771 -0.01112,-2.501054 0.07334,-2.938408 0.762624,-3.950826 0.426298,-0.626143 0.947505,-1.139392 1.158233,-1.140558 0.210729,-0.0015 0.749073,-0.555071 1.196317,-1.230907 1.227034,-1.854171 2.948327,-2.569118 5.544882,-2.30309 l 2.073629,0.212448 -0.172137,0.962138 c -0.09468,0.52918 -0.393348,2.476945 -0.663718,4.32838 -0.27037,1.851434 -0.771955,4.083688 -1.114628,4.960555 -0.864161,2.211313 -3.831631,5.159715 -5.19308,5.159715 -0.165902,0 -0.737014,-0.366341 -1.269128,-0.814084 z M 42.8902,60.453947 c -2.782222,-2.653919 -3.908291,-6.424827 -4.166212,-13.951566 -0.172863,-5.044596 -0.07564,-5.672578 0.750322,-4.846618 0.214997,0.215002 1.171157,0.299867 2.51989,0.223657 1.861784,-0.105199 2.379384,-0.270721 3.609837,-1.154361 0.790026,-0.567357 1.480578,-0.981913 1.534558,-0.921239 0.05398,0.06068 0.244618,1.944639 0.423641,4.186585 0.237859,2.978822 0.498502,4.43436 0.968115,5.406338 1.171641,2.425021 0.724071,6.983099 -0.911201,9.279618 -0.674744,0.9476 -2.93855,2.785197 -3.431184,2.785197 -0.132789,0 -0.716784,-0.453425 -1.297766,-1.007611 z m -63.243975,-0.215951 c -2.997909,-1.90122 -3.926426,-4.40497 -4.748939,-12.805509 l -0.204902,-2.092736 2.283868,0.0015 c 2.681454,0.0015 3.836165,0.552734 5.073612,2.422644 0.439632,0.664326 1.126059,1.356736 1.5254,1.538688 0.86591,0.394534 1.730536,2.674055 1.730536,4.562421 0,2.672493 -1.52002,5.956054 -3.185619,6.881576 -0.922291,0.512492 -0.836689,0.530079 -2.473956,-0.508245 z M -44.990348,59.62892 c -2.390195,-1.731449 -3.237021,-3.658896 -3.251568,-7.400851 -0.007,-1.810382 0.154609,-2.752478 0.664089,-3.87041 0.464178,-1.018534 0.775639,-2.607878 1.002488,-5.115575 0.181004,-2.000886 0.379715,-3.815823 0.441576,-4.033196 0.07558,-0.265554 0.690507,-0.01126 1.87439,0.775087 1.554703,1.032677 1.983919,1.170307 3.649695,1.170307 1.038279,0 2.166815,-0.06976 2.507853,-0.155019 0.597118,-0.149279 0.616526,-0.02302 0.524349,3.410381 -0.21734,8.095672 -2.060026,13.859028 -4.983139,15.585755 -1.136935,0.671603 -0.959827,0.698314 -2.429733,-0.366479 z m 99.355845,-3.683172 c -2.118514,-1.529712 -3.947506,-4.223962 -4.546356,-6.697133 -0.201994,-0.83421 -0.559394,-3.485006 -0.79422,-5.890662 -0.384337,-3.937299 -0.37831,-4.404862 0.06036,-4.683951 0.268023,-0.170517 1.060099,-0.76376 1.760166,-1.318312 1.922922,-1.523226 3.984779,-2.867157 4.398796,-2.867157 0.212848,0 0.525026,0.886406 0.737029,2.092737 1.347606,7.668104 1.939753,9.478189 3.541609,10.826063 0.904453,0.761042 0.966357,0.946003 0.966357,2.887179 0,1.780455 -0.126421,2.256465 -0.89311,3.362794 -0.764347,1.102959 -3.335555,3.180144 -3.888072,3.141034 -0.09865,-0.007 -0.702804,-0.390651 -1.342557,-0.852592 z m -110.44934,-0.954831 c -2.119677,-1.316484 -3.255365,-3.37181 -3.255365,-5.891458 0,-1.308975 0.164052,-1.725986 1.132101,-2.877783 1.629001,-1.938191 2.164074,-3.354608 3.097924,-8.200653 0.456545,-2.369168 0.872971,-4.361236 0.925386,-4.426815 0.250973,-0.314026 2.124932,0.808047 3.86236,2.312658 1.060992,0.918819 2.201223,1.756956 2.533843,1.862525 0.496428,0.157559 0.567259,0.366864 0.3954,1.168346 -0.115153,0.537025 -0.32948,2.232047 -0.476284,3.766719 -0.517049,5.405152 -1.253828,7.688753 -3.25003,10.073226 -1.229508,1.468653 -2.953202,2.794004 -3.631239,2.792058 -0.222196,-4.94e-4 -0.822538,-0.261108 -1.334096,-0.578823 z M 13.789305,48.8381 C 11.386786,46.312845 7.8000638,40.079125 6.0680904,35.418639 4.9415125,32.387176 4.2022905,30.060334 4.3263751,29.936249 c 0.047128,-0.04713 2.0301264,0.204376 4.4066307,0.55893 3.5665622,0.532104 5.2410532,0.616293 9.5915002,0.482239 11.934575,-0.367743 20.172945,-3.819568 28.23453,-11.830089 5.181812,-5.14899 9.90393,-12.217944 14.708197,-22.0179876 3.915676,-7.9874514 11.232981,-25.1120834 11.902271,-27.8547904 0.284785,-1.167045 1.004751,-3.088864 1.599916,-4.270708 2.10732,-4.18458 4.661172,-6.08149 7.757405,-5.761928 5.09622,0.525974 10.089444,6.126238 12.495624,14.014748 1.749777,5.736542 2.994003,15.954523 2.64266,21.7024349 -0.588772,9.6321508 -1.902327,17.6612241 -4.488863,27.4380781 -1.206642,4.560987 -4.379776,14.735929 -4.693283,15.049441 -0.09423,0.09423 -0.189121,-2.799923 -0.210867,-6.431447 -0.06516,-10.881617 -0.666677,-17.127662 -3.770863,-39.15642 -1.689672,-11.990695 -1.44706,-10.87133 -2.207248,-10.183849 -1.013342,0.916422 -1.659068,2.484061 -2.70699,6.57178 -0.539841,2.1058207 -1.322797,4.5022255 -1.739902,5.3253399 -0.729308,1.4392155 -0.739425,1.541921 -0.264027,2.6797173 0.720835,1.7251917 0.379852,3.77020295 -1.233545,7.39813 -1.289842,2.900363 -1.372386,3.24541 -1.223804,5.115574 0.233453,2.9384388 -0.291528,4.5088418 -2.089585,6.2507228 -0.979951,0.949336 -1.885757,1.526993 -2.606405,1.662187 -1.024867,0.192268 -1.104713,0.288537 -1.107529,1.335332 -0.0088,3.304354 -3.80988,7.228356 -8.290399,8.558649 -0.383666,0.113914 -0.697577,0.412545 -0.697577,0.663627 0,0.753515 -1.124108,2.70186 -2.064342,3.578001 -0.484546,0.451513 -2.345905,1.549433 -4.136354,2.439826 -1.790454,0.890398 -3.883186,2.201621 -4.650522,2.913846 -0.767336,0.712215 -2.023171,1.598048 -2.790749,1.968514 -1.628726,0.786083 -5.002887,1.331373 -6.770952,1.094225 -1.13223,-0.151863 -1.275378,-0.08787 -1.717964,0.767998 -0.611161,1.181852 -1.798946,1.623114 -5.19591,1.930278 -2.077186,0.187826 -2.901199,0.406503 -3.668012,0.973435 -0.887488,0.656145 -1.42392,0.750407 -5.226859,0.918448 -2.330834,0.103001 -4.516908,0.298316 -4.857946,0.43404 -1.850752,0.736554 -3.557482,2.808296 -4.159094,5.048582 -0.184822,0.688231 -0.221364,0.675224 -1.306213,-0.465053 z M -14.53428,48.254767 c -0.70604,-1.848742 -2.158727,-3.486538 -3.722659,-4.197019 -0.935061,-0.424786 -2.018236,-0.566275 -4.374392,-0.571398 -3.225617,-0.007 -4.670268,-0.31895 -6.014433,-1.298675 -0.504231,-0.367521 -1.697381,-0.657805 -3.414357,-0.830687 -2.967213,-0.298771 -4.535524,-0.955449 -4.962228,-2.077769 -0.273004,-0.718049 -0.424394,-0.760232 -2.728458,-0.760232 -3.059532,0 -5.453673,-0.784241 -7.711222,-2.525921 -0.916339,-0.706954 -1.7662,-1.45901 -1.888577,-1.671241 -0.122377,-0.212235 -1.547905,-1.093336 -3.167837,-1.958006 -3.976986,-2.122792 -5.129249,-3.275285 -6.003401,-6.004622 -0.09398,-0.293414 -1.118544,-0.962677 -2.276815,-1.487246 -3.558567,-1.611635 -5.902455,-4.376302 -6.206323,-7.320483 -0.153272,-1.485057 -0.264711,-1.697737 -0.981592,-1.873345 -3.24772,-0.795558 -5.381872,-4.426075 -4.784026,-8.1383569 0.282733,-1.7556186 0.242239,-1.9508783 -1.069124,-5.155435 -1.492681,-3.6476329 -1.763959,-5.8337222 -0.931097,-7.5032379 0.387522,-0.7768046 0.395763,-1.0421634 0.05165,-1.6632684 -0.653658,-1.1798283 -1.31039,-3.3138098 -1.964064,-6.3820288 -0.835364,-3.921054 -2.321165,-7.193768 -2.970948,-6.543985 -0.298068,0.298067 -4.216312,25.037407 -5.097376,32.184252 -0.941643,7.638252 -1.552322,15.472608 -1.556743,19.971406 -0.0022,2.20254 -0.06965,3.93891 -0.149955,3.858599 -0.08031,-0.08031 -0.981374,-3.038162 -2.002362,-6.572999 -2.862341,-9.909926 -4.485063,-17.791435 -5.627634,-27.3331371 -0.486444,-4.0623661 -0.485049,-14.4079269 0.0031,-18.1370339 0.785845,-6.011333 2.616135,-12.958909 4.287967,-16.276827 2.080612,-4.129099 5.332626,-7.685055 8.241047,-9.011263 5.498172,-2.507106 10.103411,1.328043 12.123718,10.096385 0.255379,1.108374 1.04146,3.48014 1.746842,5.270591 0.705385,1.790451 2.190315,5.557374 3.299846,8.37094 6.013974,15.2503322 10.197304,23.6753376 15.123301,30.457537 2.662895,3.666317 8.148955,9.053646 11.479203,11.272608 4.868023,3.243596 10.6432,5.268103 17.203632,6.030796 3.687717,0.428719 11.3115828,0.250224 14.9511738,-0.350049 1.3196605,-0.217644 2.4743671,-0.320744 2.5660103,-0.2291 0.2128083,0.212808 -1.3308744,4.408409 -2.6598666,7.229312 -1.5928315,3.380934 -3.8385029,7.146729 -5.7503195,9.642773 -2.441279,3.187298 -2.416697,3.175348 -3.061035,1.488166 z m 77.501805,0.01734 c -0.704503,-0.238403 -1.733761,-0.971633 -2.388059,-1.701222 -1.834608,-2.045732 -2.638663,-4.74751 -3.196763,-10.741696 l -0.207137,-2.224716 0.943232,-0.487763 c 1.130668,-0.584691 2.393884,-2.169925 2.697066,-3.384594 0.18256,-0.731417 0.34985,-0.856104 0.985593,-0.734579 0.540488,0.103322 1.065657,-0.11698 1.785454,-0.748966 1.090056,-0.957083 1.397832,-0.7852 1.397832,0.780657 0,2.474239 2.606075,9.615524 4.027851,11.037305 0.536225,0.53622 0.654599,0.925873 0.524621,1.726851 -0.271151,1.670889 -1.180692,3.292422 -2.705582,4.823523 -1.984648,1.99272 -2.373921,2.159467 -3.864108,1.6552 z M -64.522354,46.309758 c -1.721521,-1.360782 -3.497828,-4.406888 -3.497828,-5.998262 0,-0.530188 0.375291,-1.368098 0.915133,-2.043217 1.36849,-1.711413 2.455683,-4.337193 3.332886,-8.049571 0.432251,-1.829318 0.838976,-3.511348 0.903829,-3.73785 0.07675,-0.26805 0.398274,-0.07863 0.920977,0.542561 0.541597,0.643651 1.083203,0.954383 1.663485,0.954383 0.737121,0 0.938609,0.204725 1.406021,1.42863 0.384644,1.007181 0.942047,1.708073 1.889463,2.375872 1.504218,1.060272 1.45655,0.662606 0.714621,5.961596 -0.792027,5.656794 -2.737278,8.836011 -5.879859,9.609739 -0.63208,0.155622 -1.12738,-0.06265 -2.368728,-1.043881 z M 133.70156,41.390521 c -2.37066,-3.434766 -3.04536,-4.23565 -4.60436,-5.465475 -0.97598,-0.7699 -1.48543,-1.407851 -1.48543,-1.860109 0,-1.820875 -2.53759,-9.020948 -5.24305,-14.876488 -0.69723,-1.50902 -1.26768,-2.807774 -1.26768,-2.886117 0,-0.459236 0.86615,0.611506 2.83802,3.508369 2.21718,3.25726 4.88284,6.306892 5.51279,6.306892 0.42974,0 0.42701,-2.894153 -0.004,-4.447067 -0.96524,-3.476166 1.32436,0.871697 2.79261,5.303061 1.52557,4.604341 3.62362,15.798029 3.06563,16.356015 -0.0866,0.08655 -0.8085,-0.786034 -1.60433,-1.939081 z M 72.071352,41.69684 C 69.636317,38.763096 67.757031,34.269757 66.559435,28.517931 l -0.565347,-2.715234 1.181141,-0.663837 c 1.604357,-0.901699 3.034448,-2.988004 3.469317,-5.06125 0.246302,-1.174244 0.50897,-1.713047 0.837421,-1.717782 0.263207,-0.0038 0.827348,-0.279719 1.253646,-0.613174 1.063523,-0.831901 1.239251,-0.777238 1.245851,0.387543 0.0094,1.656969 0.846832,5.892633 1.52162,7.696161 0.346941,0.927277 1.052072,2.14719 1.566956,2.710925 0.877479,0.960715 0.936163,1.179846 0.936163,3.495884 0,4.058153 -1.766199,8.086972 -4.2064,9.595101 -1.193308,0.737503 -1.170619,0.736658 -1.728451,0.06457 z M -132.50742,40.842208 c 0,-2.482879 1.7699,-11.014112 3.1227,-15.051919 1.0832,-3.233207 3.3064,-8.228623 3.55254,-7.982478 0.0876,0.08759 -0.0511,1.051384 -0.30808,2.14178 -0.57047,2.420041 -0.61009,3.997759 -0.10046,3.997759 0.62816,0 3.43349,-3.184544 5.50626,-6.250568 1.07662,-1.592503 2.12395,-3.034974 2.32742,-3.205493 0.20348,-0.170519 0.54359,-0.635894 0.75578,-1.034168 0.21218,-0.398271 0.44707,-0.662848 0.52197,-0.587944 0.0749,0.0749 -0.56364,1.551669 -1.41897,3.281703 -2.88087,5.827005 -4.88844,11.011713 -5.93775,15.334822 -0.27091,1.116036 -0.61502,1.664374 -1.36372,2.173141 -1.11086,0.754833 -2.29981,2.11103 -4.75937,5.428805 -0.90584,1.221907 -1.70352,2.221648 -1.77266,2.221648 -0.0691,0 -0.12566,-0.21019 -0.12566,-0.467088 z m 59.681116,-1.116718 c -1.69332,-1.560854 -2.819264,-3.810892 -3.241209,-6.477097 -0.547215,-3.457757 -0.436256,-4.747392 0.482169,-5.604092 1.609856,-1.501663 2.850203,-4.762789 3.559609,-9.358962 l 0.371459,-2.406648 1.021273,0.778966 c 0.561702,0.428428 1.220424,0.778962 1.463829,0.778962 0.301664,0 0.502808,0.50877 0.631829,1.598137 0.226964,1.916374 1.376697,3.719069 3.19019,5.001986 l 1.277873,0.904003 -0.594268,2.371124 c -1.075641,4.291807 -2.434926,8.004412 -3.721599,10.164774 -1.329171,2.23172 -2.35392,3.52262 -2.796352,3.52262 -0.144604,0 -0.884765,-0.573197 -1.644803,-1.273773 z M 14.715355,29.638679 C 14.051519,29.520824 13.718706,29.095637 12.95718,27.392518 10.266018,21.373847 9.5727533,16.441665 10.763424,11.785144 l 0.295579,-1.155974 0.929419,0.828115 c 1.208465,1.076751 2.64846,3.266111 4.658668,7.08303 2.019461,3.834492 3.795228,6.609359 5.642676,8.817417 0.844179,1.008954 1.313115,1.819323 1.148497,1.984721 -0.297659,0.299072 -7.356647,0.538794 -8.722908,0.296226 z M -21.12742,29.166493 c -1.495291,-0.334858 -1.592202,-0.539046 -0.651734,-1.373165 1.234996,-1.095343 3.861494,-4.902543 6.799344,-9.855879 2.683663,-4.524771 4.800616,-7.321595 5.5418137,-7.321595 0.4972031,0 0.7920857,2.164353 0.7392072,5.425609 -0.057196,3.527817 -0.9667172,7.13523 -2.7423909,10.877105 -0.981591,2.068506 -1.127081,2.22566 -2.229087,2.407766 -1.681629,0.277883 -5.90694,0.187317 -7.457153,-0.159841 z m 99.759124,-2.041287 c -2.172114,-3.3025 -2.958232,-5.921819 -2.923503,-9.740986 0.02702,-2.974325 0.03794,-3.015473 1.395155,-5.270591 1.307285,-2.1721475 1.368572,-2.3827694 1.383021,-4.7531405 0.0099,-1.623364 0.18298,-2.8016199 0.500958,-3.4103827 0.862492,-1.6511954 1.282037,-4.14976825 1.087146,-6.4744028 -0.171065,-2.0405034 -0.09115,-2.4589105 1.088465,-5.6992639 0.700201,-1.9234001 1.311559,-3.4586211 1.358579,-3.4116011 0.04703,0.04701 0.37993,2.7358461 0.739805,5.97517 0.855526,7.7008737 2.111365,16.806027 2.693864,19.531211 0.690221,3.229186 0.08502,6.722267 -1.823449,10.524556 -1.041836,2.075676 -3.208031,5.132202 -3.637244,5.132202 -0.155356,0 -0.993611,-1.081247 -1.862797,-2.402771 z M 24.128731,26.815171 C 22.677907,25.138903 20.598963,22.054748 16.619317,15.674787 15.68146,14.171267 14.439734,12.412698 13.859923,11.766852 l -1.054196,-1.174263 0.199312,-3.4897953 c 0.109625,-1.9193883 0.410925,-4.2023414 0.669553,-5.0732282 0.481755,-1.62226981 2.206076,-4.4663521 2.825685,-4.6606727 0.208243,-0.065312 0.430492,0.5443284 0.558198,1.5311567 0.494832,3.8236609 2.803622,9.586098 5.528426,13.7982185 2.189078,3.383961 6.77036,8.508287 9.662099,10.807388 l 2.644478,2.102513 -0.99867,0.611358 c -1.61066,0.986 -5.721864,2.378344 -7.022594,2.378344 -1.075938,0 -1.360668,-0.18501 -2.743483,-1.7827 z m -103.213249,0.771215 c -2.827861,-3.143942 -4.801728,-8.258111 -4.785256,-12.398313 0.0036,-0.894788 0.281614,-2.952288 0.617893,-4.572219 0.805979,-3.8825409 1.987249,-11.27809761 2.859835,-17.9045083 0.387342,-2.9414547 0.788518,-5.3480997 0.891505,-5.3480997 0.102987,0 0.661255,1.430035 1.240592,3.1778562 0.952638,2.8740285 1.055625,3.5335593 1.077203,6.898274 0.01987,3.09851565 0.133489,3.9587941 0.679715,5.1464524 0.533569,1.1601377 0.627702,1.8249456 0.504842,3.5654001 -0.143974,2.0395268 -0.09088,2.2551124 1.137647,4.6196423 1.549127,2.981571 1.763342,4.26438 1.277561,7.650505 -0.398736,2.779372 -1.14277,4.689534 -2.882251,7.399622 -1.550912,2.416297 -1.851555,2.618929 -2.619286,1.765388 z m 50.903806,-0.05681 c -1.193633,-0.408325 -2.856976,-1.127696 -3.696318,-1.598604 l -1.526078,-0.856195 1.050147,-0.796238 c 8.750434,-6.634722 15.487225,-16.4925702 17.340857,-25.3746412 0.397908,-1.9066582 0.418375,-1.9347692 1.01558,-1.3951565 0.841358,0.7602208 2.013705,3.15553387 2.410072,4.9242165 0.181735,0.810936 0.329033,3.0070616 0.327329,4.8802731 -0.003,3.3238361 -0.0246,3.4288641 -0.896875,4.3618481 -0.491576,0.525804 -1.590643,2.002372 -2.442375,3.281266 -0.851732,1.278893 -2.641736,3.968256 -3.977788,5.976364 -1.336056,2.008108 -3.18338,4.48451 -4.105166,5.503117 -1.943304,2.147421 -2.24427,2.207275 -5.499385,1.09375 z m 60.198951,-6.107533 c -1.904421,-1.936202 -4.299678,-4.700571 -5.322791,-6.143042 l -1.860213,-2.622677 0.0123,-3.8880536 c 0.01052,-3.3338348 0.107921,-4.0869281 0.683197,-5.2832128 0.776455,-1.6146201 1.536297,-2.55254309 2.474826,-3.05482759 0.954041,-0.51058678 1.01516,-0.46911045 1.01516,0.68895639 0,3.691233 2.018581,10.5976016 4.406774,15.0772976 0.863608,1.619932 1.971804,3.708171 2.462654,4.640532 0.490855,0.932362 1.0295,1.832238 1.196988,1.999725 0.522447,0.522449 0.339166,0.956454 -0.650888,1.541294 l -0.95541,0.564376 -3.462583,-3.520368 z m -67.144424,2.092521 -0.697848,-0.742825 1.746423,-2.900084 c 3.906673,-6.48737 5.967773,-11.5812503 6.912637,-17.0841756 0.285465,-1.6625606 0.616427,-3.02283825 0.735471,-3.02283825 0.561945,0 2.145946,1.70930545 2.760569,2.97894665 0.839019,1.7331783 1.162221,6.0235449 0.63793,8.4682252 -0.378323,1.764058 -2.558968,4.84971 -5.967016,8.443432 -1.915916,2.020291 -4.824572,4.602143 -5.184678,4.602143 -0.135101,0 -0.559671,-0.33427 -0.943488,-0.742824 z M 126.61815,19.686272 c -0.26021,-0.299453 -1.77027,-2.49768 -3.35569,-4.884949 -3.44265,-5.1837999 -5.92545,-8.2532062 -7.9927,-9.8811309 -1.49886,-1.1803238 -1.59364,-1.3622122 -5.73539,-11.006234 -2.81059,-6.5444381 -4.84371,-11.8169571 -6.11254,-15.8517561 -1.04566,-3.325123 -2.23782,-7.081743 -2.64924,-8.348043 -0.41142,-1.2663 -0.69362,-2.356776 -0.62713,-2.423275 0.12156,-0.121553 3.73092,4.138889 6.44728,7.610287 3.75689,4.80114 9.44455,13.823003 12.27241,19.4667093 3.19349,6.37340062 6.97369,17.2990187 8.12055,23.4702187 0.42761,2.300966 0.35279,2.677181 -0.36755,1.848173 z m -250.75463,-0.768849 c 0,-0.593527 1.06587,-5.737581 1.59163,-7.6815 3.16415,-11.69873651 9.38714,-24.013464 17.62532,-34.878912 4.02103,-5.303412 8.571036,-10.604644 8.856702,-10.318981 0.0767,0.07671 -0.845155,2.987916 -2.048555,6.469363 -1.203431,3.481442 -2.474447,7.236748 -2.824507,8.345122 -0.35006,1.108374 -2.5936,6.268779 -4.98564,11.4675639 l -4.34917,9.4523372 -2.94288,2.7851191 c -2.18203,2.0650892 -3.64201,3.8294043 -5.64719,6.8244888 -3.39745,5.074641 -5.27571,7.757368 -5.27571,7.535399 z" id="path7782" style="fill: url(#gradient-5);"/> </g> </g></svg>