<?xml version="1.0" encoding="utf-8"?>
<svg class="shirt" width="86" height="380" viewBox="202.715 584.407 86.5933 380.048" preserveAspectRatio="xMidYMid meet" xmlns="http://www.w3.org/2000/svg">
  <defs id="svgEditorDefs">
    <path id="svgEditorClosePathDefs" fill="moccasin" style="stroke-width: 0px; stroke: none; fill-opacity: 1;" class="shirt"/>
    <linearGradient id="linearGradient3655" y2="466.21" gradientUnits="userSpaceOnUse" x2="139.4" gradientTransform="matrix(1.2932 0 0 1.2925 68.767 -154.54)" y1="392.88" x1="129.3">
      <stop id="stop3651" style="stop-color:#808000" offset="0"/>
      <stop id="stop3653" style="stop-color:#606000" offset="1"/>
    </linearGradient>
    <linearGradient id="linearGradient3657" y2="490.91" gradientUnits="userSpaceOnUse" x2="58.883" gradientTransform="matrix(1.2932 0 0 1.2925 68.767 -154.54)" y1="455.55" x1="36.681">
      <stop id="stop3651" style="stop-color:#808000" offset="0"/>
      <stop id="stop3653" style="stop-color:#606000" offset="1"/>
    </linearGradient>
  </defs>
  <g transform="matrix(0.154025, 0, 0, 0.147584, 212.294067, 674.644287)">
    <g id="layer1" transform="translate(-110.38 -132.92)">
      <path id="path3627" style="fill:#000000" d="m353.41 171.59c-41.57 1-82.83 20.25-112.78 55.87-30.63 35.42-47.55 87.51-43.13 139.01 4.14 56.66 33.54 107.13 73.5 135.08 56.8 40.86 133.15 36.34 185.98-12.01 36-32 59.66-84.2 59.25-139.09 0.01-20.17-3.04-40.28-8.95-59.12-18.22-58.74-62.8-101.27-112.61-114.57-13.52-3.79-27.41-5.5-41.26-5.17zm0.37 14.02c12.48-0.29 24.98 1.23 37.12 4.63l0.04 0.04h0.04c44.49 11.89 85.92 50.75 102.79 105.15v0.04c5.48 17.45 8.34 36.24 8.33 55.02v0.04c0.38 50.79-22.09 99.7-54.65 128.64l-0.04 0.04-0.04 0.04c-48.19 44.11-116.57 47.99-168.12 10.9l-0.05-0.04h-0.04c-36.02-25.19-63.74-72.29-67.57-124.74v-0.04-0.04c-4.09-47.65 12.09-96.66 39.9-128.81l0.04-0.04v-0.04c27.46-32.67 64.8-49.93 102.25-50.79z"/>
      <path id="path3143" style="fill:url(#linearGradient3655)" d="m505.42 353.3c0.38 52.06-22.14 101.92-55.58 131.94-49.28 45.55-119.91 49.66-172.75 11.26-37.06-26.18-64.93-74.29-68.82-128.03-4.15-48.85 12.03-98.7 40.54-131.99 37.33-44.86 93.08-61.86 143.14-47.7 45.99 12.41 87.93 52.52 105.05 108.26 5.55 17.89 8.43 37.06 8.42 56.26z"/>
      <path id="path5083" style="stroke:#000000;stroke-width:4.7972;fill:#ffffff" d="m344.98 307.06c0.57 22.41-20.73 41.59-42.87 39.81-22.17-0.44-41.38-21.68-38.46-43.88 1.84-23.11 26.4-40.19 48.77-34.98 18.27 3.36 32.87 20.33 32.56 39.05z"/>
      <path id="path5085" style="stroke:#000000;stroke-width:4.7972;fill:#ffffff" d="m490.33 261.89c0.48 27.71-21.91 52.56-48.83 57.27-28.16 6.09-59.69-9.86-69.76-37.18-9.59-23.69-0.12-52.63 20.85-66.94 24.67-18.24 62.52-14.54 82.82 8.59 9.46 10.35 14.99 24.21 14.92 38.26z"/>
      <path id="path5087" style="fill-rule:evenodd;stroke:#000000;stroke-width:10.097;fill:#ff0000" d="m277.36 408.54c23.91 55.05 66.98 80.62 125.56 75.68 67.68-14.54 88.56-89.06 67.87-143.69-65.33 0.69-151.59 11.95-193.43 68.01z"/>
      <path id="path2802" style="fill-rule:evenodd;stroke:#000000;stroke-width:4.7972;fill:#606000" d="m431.74 499.51c4.24 7.01 8.94 13.78 16.55 16.81s13.96 10.39 20.14 3.44c8.77-9.86 24.25-12.05 36.94-6.78 7.33 3.05 9.58 7.12 6.53 14.57-4.48 10.95-14.91 18.38-26.67 18.46-3.84 0.02-13.32-3.3-6.16 2.49 9.44 7.65 17.27 19.88 14.28 32.91-2 8.72-13.4 5.07-19.87 4.47-15.8-1.45-29.44-11.26-41.34-21.33-3.93 11.27-13.99 20.94-26.64 20.85-9.13-0.07-22.17 1.8-26.77-4.44-7.38-9.99 0.08-30.62 12.36-39.9 5.23-3.96 18.68-5.02 17.99-8.55-1.4-7.13-10.75-20.16-14.94-27.31"/>
      <path id="path5089" style="fill:#000000" d="m297.31 303.08c-4.31 31.02-27.39 10.65-14.6-12.47 6.89-14.73 17.75-3.38 14.6 12.47z"/>
      <path id="path5091" style="fill:#000000" d="m460.24 254.46c17.79 55.09-47.04 40.07-42.49-9.99 1.99-28.52 32.95-21.25 42.49 9.99z"/>
      <path id="path5133" style="fill-rule:evenodd;stroke:#000000;stroke-width:4.7972;fill:#606000" d="m279.86 498.22c-5.01 12.45-16.59 38.79-33.87 32.96-12.42-7.79-29.6-5.31-41.47 4.27-6.85 5.54-7.98 10.59-2.41 17.59 8.2 10.3 21.63 14.99 34.19 11.4 4.1-1.17 13.78-7.23 7.34 0.74-7.04 11.55-12.18 26.61-4.93 39.59 4.86 8.69 15.86 1.24 22.57-1.41 16.38-6.48 27.85-21.2 37.37-35.66 7.71 10.81 21.44 18 34.89 13.96 9.71-2.91 24.19-4.98 27.15-13.07 4.73-12.97-9.66-32.67-25.65-38.75-6.81-2.6-21.46 0.45-21.83-3.53-0.74-8.05 7.09-22.44 9.32-31.38"/>
      <path id="path2808" style="fill:#000000" d="m396.68 186.18c-17.52 11.44-30.23 30.63-35.81 51.22 9.44-15.19 22.67-29.19 38.54-39.56 17.29-11.29 34.82-16.4 49.94-15.73-14.85-8.66-34.3-7.93-52.67 4.07z"/>
      <path id="path2813" style="fill:#000000" d="m301.19 236.71c19.99 5.17 35.79 21.16 44.18 41.84-11.85-12.93-27.58-22.85-45.69-27.53-19.72-5.09-38.97-3.14-54.96 4.25 14.75-16.26 35.51-23.97 56.47-18.56z"/>
      <path id="path2815" style="fill-rule:evenodd;stroke:#000000;stroke-width:4.797;fill:#ffff00" d="m250.58 574.35c-5.97 3.87-9.11 21.36-4.98 24.21 4.37 3.02 18.9-6.19 29.18-14.15 4.65-3.6-14.43-16.39-24.2-10.06z"/>
      <path id="path3198" style="fill-rule:evenodd;stroke:#000000;stroke-width:4.797;fill:#ffff00" d="m234 536.52c-5.07-2.4-24.15 2.08-26.52 5.81-2.5 3.93 9.62 9.86 19.74 13.52 4.57 1.65 15.08-15.39 6.78-19.33z"/>
      <path id="path3200" style="fill-rule:evenodd;stroke:#000000;stroke-width:4.797;fill:#ffff00" d="m354.32 561.87c-0.46-6.5-12.15-22.9-15.94-23.04-4.01-0.15-3.06 15.5-1.31 27.79 0.79 5.55 17.99 5.9 17.25-4.75z"/>
      <path id="path3202" style="fill-rule:evenodd;stroke:#000000;stroke-width:4.797;fill:#ffff00" d="m477.5 558.58c5.87 2.43 11.33 17.01 8.11 20.09-3.39 3.25-17.64-2.49-27.95-7.79-4.65-2.39 10.23-16.27 19.84-12.3z"/>
      <path id="path3204" style="fill-rule:evenodd;stroke:#000000;stroke-width:4.797;fill:#ffff00" d="m480.28 523.91c3.69-3.36 21.21-4.72 24.23-2.25 3.19 2.6-5.6 10.78-13.27 16.52-3.47 2.6-17.01-8.78-10.96-14.27z"/>
      <path id="path3206" style="fill-rule:evenodd;stroke:#000000;stroke-width:4.797;fill:#ffff00" d="m384.1 572.36c-0.7-5.65 6.83-21.66 10.14-22.42 3.5-0.8 5.31 12.79 5.85 23.62 0.25 4.89-14.84 8.05-15.99-1.2z"/>
      <path id="path5131" style="fill-rule:evenodd;stroke:#000000;stroke-width:4.7972;fill:#ffff00" d="m383.01 479.81c4.47-23.24 11.22-33.63 15.56-61.3 30.26 25.32 34 27.8 50.84 34.89-18.98 16.74-40.94 27.55-66.4 26.41z"/>
      <path id="path5093" style="fill-rule:evenodd;stroke:#000000;stroke-width:4.797;fill:#ffff00" d="m300.43 391.29c22.92 14.09 30.37 35.01 46.64 48.6-2.32-1.45 0.84-67.84 14.55-79.27-27.46 5.96-41.92 15.61-61.19 30.67z"/>
      <path id="path3633" style="fill-rule:evenodd;stroke:#000000;stroke-width:4.7972;fill:#808000" d="m383.17 184.42c-3.19-13.15-12.16-35.26-28.44-49.1 7.71 44.73-15.15 70.27-12.24 86.19"/>
      <path id="path3635" style="fill-rule:evenodd;stroke:#000000;stroke-width:4.7972;fill:#808000" d="m270.91 213.48c-2.86-13.22-4.41-37.03 4.21-56.58 12.55 43.63 44.26 56.68 48.57 72.27"/>
      <path id="path3637" style="fill-rule:evenodd;stroke:#000000;stroke-width:4.797;fill:#ffff00" d="m455.23 347.67c-11.35 24.39-6.03 45.94-12.11 66.25 1.14-2.48-38.11-56.14-55.86-58.12 26.2-10.16 43.59-10.08 67.97-8.13z"/>
      <path id="path3639" style="fill-rule:evenodd;stroke:#000000;stroke-miterlimit:8.3;stroke-width:4.7972;fill:url(#linearGradient3657)" d="m112.78 439.04c11.24-7.63 24.01-19.44 23.14-51.5 7.35 27.4 23.62 44.67 33.98 55.17-17.95-4.51-19.54 3.24-23.31 9.36-20.21 34.28 40.65 28.65 100.92 23.31l24.94 23.55c-111.17 3.04-152.84-14.14-137.17-48.01-1.9-14.22-13.83-10.07-22.5-11.88z"/>
    </g>
  </g>
</svg>