<?xml version="1.0" encoding="utf-8"?>
<svg class="shirt" width="86" height="380" viewBox="202.715 584.407 86.5933 380.048" preserveAspectRatio="xMidYMid meet" xmlns="http://www.w3.org/2000/svg" xmlns:xlink="http://www.w3.org/1999/xlink">
  <defs id="svgEditorDefs">
    <path id="svgEditorClosePathDefs" fill="moccasin" style="stroke-width: 0px; stroke: none; fill-opacity: 1;" class="shirt"/>
    <pattern id="pattern-0" x="0" y="0" width="20" height="20" patternUnits="userSpaceOnUse" viewBox="0 0 100 100">
      <g transform="matrix(0.112105, 0, 0, 0.095004, 2.146617, 3.610723)">
        <g id="g4038" transform="matrix(8.0807 0 0 8.0807 -217.34 -125.64)">
          <path id="path826" d="m130.96 72.296c0 25.883-21.682 46.89-48.397 46.89s-48.397-21.007-48.397-46.89 21.682-46.89 48.397-46.89 48.397 21.007 48.397 46.89z" style="stroke-linejoin:round;fill-rule:evenodd;stroke:#000000;stroke-width:2.4133;fill:url(#radialGradient4056)" transform="matrix(1.0199 0 0 1.0522 -6.6976 -9.9339)"/>
          <path id="path832" style="stroke-linejoin:round;fill-rule:evenodd;stroke:#000000;stroke-width:2.0614;fill:#ffffff" d="m68.44 55.481c0 4.4101-5.3569 7.9894-11.957 7.9894-6.6005 0-11.957-3.5792-11.957-7.9894 0-4.4101 5.3569-7.9894 11.957-7.9894 6.6005 0 11.957 3.5793 11.957 7.9894z"/>
          <path id="path834" style="fill-rule:evenodd;stroke-width:1pt;fill:#0000ff" d="m62.9 55.397c0 3.45-2.8 6.25-6.25 6.25s-6.25-2.8-6.25-6.25 2.8-6.25 6.25-6.25 6.25 2.8 6.25 6.25z"/>
          <path id="path835" style="fill-rule:evenodd;stroke-width:1pt;fill:#000000" d="m60.398 55.454c0 2.07-1.68 3.75-3.75 3.75s-3.75-1.68-3.75-3.75 1.68-3.75 3.75-3.75 3.75 1.68 3.75 3.75z"/>
          <path id="path836" style="fill-rule:evenodd;stroke-width:1pt;fill:url(#linearGradient4058)" d="m60.888 54.204c0 2.76-2.24 5-5 5s-5-2.24-5-5 2.24-5 5-5 5 2.24 5 5z"/>
          <path id="path847" style="stroke-linejoin:round;fill-rule:evenodd;stroke:#000000;stroke-width:2.0614;fill:#ffffff" d="m108.75 55.481c0 4.4101-5.3569 7.9894-11.957 7.9894-6.6005 0-11.957-3.5792-11.957-7.9894 0-4.4101 5.3569-7.9894 11.957-7.9894 6.6005 0 11.957 3.5793 11.957 7.9894z"/>
          <path id="path848" style="fill-rule:evenodd;stroke-width:1pt;fill:#0000ff" d="m102.94 55.397c0 3.45-2.8 6.25-6.25 6.25s-6.25-2.8-6.25-6.25 2.8-6.25 6.25-6.25 6.25 2.8 6.25 6.25z"/>
          <path id="path849" style="fill-rule:evenodd;stroke-width:1pt;fill:#000000" d="m100.44 55.454c0 2.07-1.68 3.75-3.75 3.75s-3.75-1.68-3.75-3.75 1.68-3.75 3.75-3.75 3.75 1.68 3.75 3.75z"/>
          <path id="path850" style="fill-rule:evenodd;stroke-width:1pt;fill:url(#linearGradient4060)" d="m100.93 54.204c0 2.76-2.24 5-5 5s-5-2.24-5-5 2.24-5 5-5 5 2.24 5 5z"/>
          <path id="path851" style="stroke-linejoin:round;stroke:#000000;stroke-width:2.5;fill:none" d="m67.888 89.757c9.1148 3.0412 12.524 1.1634 19.402-1.7407"/>
          <g id="g876" transform="translate(23.333 15.077)">
            <path id="path870" style="stroke-linejoin:round;fill-rule:evenodd;stroke:#000000;stroke-width:2.5;fill:#ffffff" d="m59.12 94.602c0.19468-4.8438-0.85078-9.0883-0.53091-15.588 0.77701-3.4826-1.3131-11.712-7.9708-7.4115-1.9944 4.071 0.22138 10.045-0.40426 14.468 0.0032 2.3208 0.32008 5.3483 0.46279 6.1248 0.4874-5.4541-26.218 6.3973-25.153 8.9597 0.2624 4.1835 5.8876 16.676 9.2502 18.513 3.1386 2.2836 20.51 2.4799 24.553-1.049 3.1731-2.9943 1.6284-11.325 3.7777-14.539 1.7647-3.3429-1.2059-13.268-3.9851-9.4776z"/>
            <path id="path871" style="stroke-linejoin:round;fill-rule:evenodd;stroke:#000000;stroke-width:2.5;fill:#ffffff" d="m59.589 91.129c-0.40495 0.20247-3.5897 5.6975-3.5897 8.9742 0 3.5844 2.806 3.5897 4.6666 3.5897 1.5045-1.5045 6.4614-4.4587 6.4614-7.1794 0-2.8281-2.8206-5.3845-7.5383-5.3845z"/>
            <path id="path872" style="stroke-linejoin:round;fill-rule:evenodd;stroke:#000000;stroke-width:2.5;fill:#ffffff" d="m47.025 84.309c-1.8833 0-6.5879 1.3094-6.8204 3.9487 1.4359 3.4335 2.5856 7.3249 3.9486 10.051 2.2764 1.1382 6.8204 1.4643 6.8204-2.8717 0-2.3351-0.955-11.128-3.9487-11.128z"/>
            <path id="path873" style="stroke-linejoin:round;fill-rule:evenodd;stroke:#000000;stroke-width:2.5;fill:#ffffff" d="m43.794 98.309c0-0.74284-3.4981-5.9193-4.6666-8.2563-3.2307-1.2789-6.654 1.2433-7.1794 4.6666 0 4.3319 2.9981 7.9748 7.5383 7.8973 1.8973-0.94864 3.891-1.4285 4.3076-4.3076z"/>
            <path id="path874" style="stroke-linejoin:round;fill-rule:evenodd;stroke:#000000;stroke-width:2.5;fill:#ffffff" d="m34.461 102.26c0-0.73408-2.3201-5.1919-3.5897-6.4614-3.8949-1.3821-7.5383 1.7931-6.8204 5.3845 2.2981 2.2981 3.2236 5.7435 7.1794 5.7435 2.8416 0 2.7404-2.2149 3.2307-4.6666z"/>
          </g>
        </g>
      </g>
    </pattern>
    <pattern id="pattern-0-0" patternTransform="matrix(2.186699, -0.101474, 0.11164, 2.405871, 177.53299, 647.534241)" xlink:href="#pattern-0"/>
    <radialGradient id="radialGradient4056" gradientUnits="userSpaceOnUse" cy="48.245" cx="75.282" gradientTransform="scale(1.0155 .98469)" r="38.949">
      <stop id="stop828" style="stop-color:#ffffff" offset="0"/>
      <stop id="stop829" style="stop-color:#ffc613" offset="1"/>
    </radialGradient>
    <linearGradient id="linearGradient4058" y2="23.741" gradientUnits="userSpaceOnUse" x2="134.75" gradientTransform="translate(-74.489 34.916)" y1="15.46" x1="126.71">
      <stop id="stop839" style="stop-color:#ffffff;stop-opacity:.5" offset="0"/>
      <stop id="stop840" style="stop-color:#ffffff;stop-opacity:0" offset="1"/>
    </linearGradient>
    <linearGradient id="linearGradient4060" y2="23.741" gradientUnits="userSpaceOnUse" x2="134.75" gradientTransform="translate(-34.45 34.916)" y1="15.46" x1="126.71">
      <stop id="stop839" style="stop-color:#ffffff;stop-opacity:.5" offset="0"/>
      <stop id="stop840" style="stop-color:#ffffff;stop-opacity:0" offset="1"/>
    </linearGradient>
  </defs>
  <polygon id="e2_polygon" style="stroke-width: 0px; stroke: none; fill: url(#pattern-0-0);" points="235.95 651.842 201.584 669.024 199.522 700.64 209.145 700.64 209.832 686.894 206.396 791.365 276.501 792.739 277.876 764.56 277.876 696.516 286.81 697.891 288.872 675.21 286.123 674.523 256.569 653.216" class="shirt"/>
  <rect id="svgEditorBackground" x="202.71499633789062" y="584.4310302734375" width="86.59329986572266" height="115.80899810791016" style="fill: none; stroke: none;" class="shirt"/>
</svg>