<?xml version="1.0" encoding="utf-8"?>
<svg id="woman" width="86" height="380" viewBox="202.71499633789062 584.406982421875 86.58999633789062 380.0480041503906" preserveAspectRatio="xMidYMid meet" xmlns="http://www.w3.org/2000/svg">
  <defs id="svgEditorDefs">
    <path id="svgEditorClosePathDefs" class="lines" fill="black" style="stroke-width: 0px; stroke: none;"/>
  </defs>
  <rect id="svgEditorBackground" x="202.71499633789062" y="584.4310302734375" width="86.59329986572266" height="115.80899810791016" style="fill: none; stroke: none;"/>
  <path id="path1106" style="fill-opacity: 1; fill-rule: nonzero; stroke: none;" d="M1585.43,14995.4c0,0,-31.210000000000036,18,-48.13000000000011,-3.5c-16.940000000000055,-21.5,-1.5299999999999727,-40.399999999999636,4.240000000000009,-61.20000000000073c5.779999999999973,-20.799999999999272,6.930000000000064,-64.70000000000073,41.57999999999993,-50.79999999999927l2.3099999999999454,115.5" transform="matrix(0.13333330353101047, 0, 0, -0.13333330353101047, 0, 2613.333251953125)" class="skin" fill="moccasin"/>
  <path id="path1108" style="fill-opacity: 1; fill-rule: nonzero; stroke-width: 0px; stroke: none;" d="M2104.75,14986.2c0,0,31.210000000000036,18,48.11000000000013,-3.5c16.949999999999818,-21.600000000000364,1.5399999999999636,-40.399999999999636,-4.230000000000018,-61.20000000000073c-5.769999999999982,-20.799999999999272,-6.929999999999836,-64.70000000000073,-41.570000000000164,-50.79999999999927l-2.3099999999999454,115.5" transform="matrix(0.13333330353101047, 0, 0, -0.13333330353101047, 0, 2613.333251953125)" class="skin" fill="moccasin"/>
  <path id="path1110" style="fill-opacity: 1; fill-rule: nonzero; stroke-width: 0px; stroke: none;" d="M2111.550000000001,14996.583479999332C2111.550000000001,14996.583479999332,2098.850000000001,15084.28347999933,2026.0799999999995,15155.884479999331C1970.2099999999994,15210.884479999331,1883.0599999999993,15213.384479999331,1845.6099999999992,15211.68347999933C1808.1399999999994,15213.384479999331,1720.9999999999993,15210.884479999331,1665.1199999999992,15155.884479999331C1592.3599999999992,15084.28347999933,1579.6599999999994,14996.583479999332,1579.6599999999994,14996.583479999332C1579.6599999999994,14996.583479999332,1558.8699999999992,14863.68347999933,1613.1399999999994,14790.983479999331C1667.4199999999994,14718.18347999933,1713.6199999999992,14722.78347999933,1743.6499999999994,14710.083479999332C1771.0599999999993,14698.483479999331,1798.1499999999994,14681.384479999331,1835.1099999999992,14678.18347999933L1836.6699999999994,14677.78347999933C1839.7199999999993,14677.583479999332,1842.6899999999994,14677.583479999332,1845.6099999999992,14677.583479999332C1848.5099999999993,14677.583479999332,1851.4799999999993,14677.583479999332,1854.5199999999993,14677.78347999933L1856.0899999999992,14678.18347999933C1893.0599999999993,14681.384479999331,1920.1399999999994,14698.483479999331,1947.5499999999993,14710.083479999332C1977.5799999999992,14722.78347999933,2023.7799999999993,14718.18347999933,2078.060000000001,14790.983479999331C2132.340000000001,14863.68347999933,2111.550000000001,14996.583479999332,2111.550000000001,14996.583479999332" transform="matrix(0.13333330353101047, 0, 0, -0.13333330353101047, 0, 2613.333251953125)" class="skin" fill="moccasin"/>
  <path id="path1112" style="fill-opacity: 1; fill-rule: nonzero; stroke: none;" d="M2079.9100000000017,14344.815479999317c-21.36999999999989,167.29999999999927,-79.24000000000001,336.7000000000007,-234.48000000000002,336.7000000000007c-164.55999999999995,0,-219.31999999999994,-169.39999999999964,-237.58999999999992,-336.7000000000007h472.06999999999994" transform="matrix(0.13333330353101047, 0, 0, -0.13333330353101047, 0, 2613.333251953125)" class="skin" fill="moccasin"/>
  <path d="M210.31825121914548,686.6418337624407c9.194929623787175,28.76220364390406,9.57947037835828,50.43767223079885,1.3538411068427934,56.59208925181133c-3.261640703097868,3.2701517123041413,-10.188785305579188,12.076551812437174,-8.122848510742188,11.73297119140625c2.065936794837029,-0.3435806210309238,3.314761381874149,-1.048073562933041,4.5126953125,-0.90252685546875c1.1979339306258225,0.1455467074642911,-3.571600276383748,5.786737309318028,-3.6101531982421875,4.9639892578125c-0.03855292185841108,-0.8227480515056413,-0.8520875333658466,-0.2616126221143986,0,-0.4512939453125c0.8520875333658466,-0.18968132319810138,6.436736030889932,-1.0201127154200549,6.3177642822265625,-2.70758056640625c-0.11897174866342652,-1.6874678509861951,5.012098712919169,-11.190391270289865,5.41522216796875,-9.927978515625c0.4031234550495526,1.2624127546648651,-1.4004052235764846,10.737493320822523,-0.90252685546875,12.63555908203125c0.49787836810773456,1.898065761208727,3.06337520852216,4.50260288370896,3.6101531982421875,3.61016845703125c0.5467779897200273,-0.8924344266777098,-2.2420140276160794,1.5340497870022318,0,-4.5126953125c2.2420140276160794,-6.046745099502232,6.174384577393909,-24.56670405521072,11.281783940645596,-43.53761370297218c-5.271871803039289,-18.49363047539339,-2.8771503267729486,-53.80449822229616,-19.855931443972764,-27.4950883418079Z" id="e12_area3" style="stroke-width: 1px; stroke: none;" class="skin" fill="moccasin" transform="matrix(1 0 0 1.40814 0 -277.343)"/>
  <path d="M223.40496883414204,706.2298519723753c10.177440154832171,2.2659944971890127,15.233907703932232,25.26351865929462,10.379241370936086,32.491522539343464c-4.854666332996146,7.2280038800488455,-21.749736657538563,26.86277174657721,-16.697052001953125,37.9068603515625c5.052684655585438,11.04408860498529,52.80818551404849,0.4556258264196913,55.95770263671875,0.45123291015625c3.149517122670261,-0.004392916263441295,-22.461235273171894,-49.94680389551672,-18.050872802734375,-45.57843017578125c4.410362470437576,4.368373719735473,-1.1980496621030738,2.547447623864059,0.451263427734375,0.4512939453125c1.6493130898374486,-2.096153678551559,6.752729433154458,-17.575193151492158,6.769073486328125,-20.3072509765625c0.016344053173668275,-2.732057825070342,-5.5888931025112925,-3.434926764258762,0,-0.4512939453125c-2.9852689702100292,-1.5290840614335366,11.579080652967036,-2.88426723978273,9.927978515625,-10.83050537109375c-1.6511021373420363,-7.94623813131102,-69.29402361236032,-19.865551552787906,-48.737334632654836,5.866570722375286Z" id="e24_area3" class="skin" fill="moccasin" style="stroke: none; stroke-width: 0px;"/>
  <path d="M200.7741964888989,683.5905113711252c9.194929623787175,28.76220364390406,9.57947037835828,50.43767223079885,1.3538411068427934,56.59208925181133c-3.261640703097868,3.2701517123041413,-10.188785305579188,12.076551812437174,-8.122848510742188,11.73297119140625c2.065936794837029,-0.3435806210309238,3.314761381874149,-1.048073562933041,4.5126953125,-0.90252685546875c1.1979339306258225,0.1455467074642911,-3.571600276383748,5.786737309318028,-3.6101531982421875,4.9639892578125c-0.03855292185841108,-0.8227480515056413,-0.8520875333658466,-0.2616126221143986,0,-0.4512939453125c0.8520875333658466,-0.18968132319810138,6.436736030889932,-1.0201127154200549,6.3177642822265625,-2.70758056640625c-0.11897174866342652,-1.6874678509861951,5.012098712919169,-11.190391270289865,5.41522216796875,-9.927978515625c0.4031234550495526,1.2624127546648651,-1.4004052235764846,10.737493320822523,-0.90252685546875,12.63555908203125c0.49787836810773456,1.898065761208727,3.06337520852216,4.50260288370896,3.6101531982421875,3.61016845703125c0.5467779897200273,-0.8924344266777098,-2.2420140276160794,1.5340497870022318,0,-4.5126953125c2.2420140276160794,-6.046745099502232,6.174384577393909,-24.56670405521072,11.281783940645596,-43.53761370297218c-5.271871803039289,-18.49363047539339,-2.8771503267729486,-53.80449822229616,-19.855931443972764,-27.4950883418079Z" id="e36_area3" style="stroke-width: 1px; stroke: none;" class="skin" fill="moccasin" transform="matrix(-1.10438 0 0 1.40814 503.366 -277.343)"/>
  <path d="M219.0899010001928,771.3813519169545c-15.942724452142954,4.7867192991168395,-6.973186208840218,5.225779607377831,-5.688747316804438,24.65129053674889c21.5111225108661,51.02970408379349,22.479439676532763,108.99404788343725,24.65126416094003,121.36010363691162c9.756830841468599,16.790642795093618,13.299047797414545,0.877726012891344,13.273769051590051,-70.16132015770779c-3.185698061266635,-24.264840302054154,-5.337655035268455,-78.11662160988067,-15.802093267988766,-70.16129653837595c-19.945696179047076,1.634486440620094,-13.765229300451267,0.26992889581015334,-16.434192627736877,-5.688777477576764Z" id="e26_area3" class="skin" fill="moccasin" style="stroke: none; stroke-width: 0px;" transform="matrix(1 0 0 1.17402 0 -133.036)"/>
  <path d="M272.81703043312814,768.853027819491c-18.646168883346434,-14.585781472077997,-34.790152488805575,4.4270436072815755,-27.811678502065888,8.849174083238381c-15.144461221356039,10.742969106841201,27.851976206117968,44.357962801292274,22.122913449797124,56.88758081211438c-5.729062756320843,12.529618010822105,-18.882878656774693,51.590878016308466,-15.802078247070312,63.2083740234375c3.080800409704352,11.617496007129034,20.216793446918018,30.067019622023167,22.755020141601562,24.6512451171875c2.5382266946835443,-5.415774504835781,-13.373751652174292,-34.643666694694616,-6.320831298828125,-45.510009765625c7.052920353346167,-10.866343070930384,18.784358045570684,-65.43598642157758,17.066253662109375,-67.00091552734375c-1.7181043834613092,-1.5649291057661685,-19.278868708823495,-47.99051861593796,-12.009599205543736,-41.08544874300901Z" id="e28_area3" class="skin" fill="moccasin" style="stroke: none; stroke-width: 0px;" transform="matrix(1 0 0 1.17012 0 -128.703)"/>
  <path d="M224.22486387143704,686.9779694481701c5.52614660171588,-3.4156014198443927,10.277879963056591,-7.168815625511911,12.009597778320312,-5.056640625c6.285405673812164,1.542964018193402,10.041529401803956,18.275647776487062,12.00958251953125,10.11334228515625c1.9680531177273224,-1.9009846858266428,2.322775030437498,-9.137235991066404,9.481277465820312,-9.48126220703125c3.1740255591528808,0.22518476635377738,10.201439295552177,3.412914696032999,9.481231689453125,7.5849609375c-6.412317429284656,11.00257802928968,-15.437660346326453,13.339438999928461,-21.42796037196706,4.672769880352803c-4.851878061003362,7.271238385343736,-14.931027685847198,6.742480444094895,-17.066268920898324,0.7645354747027113c-2.135241235051211,-4.270312022436656,-2.0446530095156277,-8.597370219747518,-4.487460160259616,-8.597705745680514Z" id="e3_area3" class="clothes" fill="silver" style="stroke: none; stroke-width: 0px;" transform="matrix(1.20747 0 0 1.20747 -51.6855 -141.522)"/>
  <path d="M214.66531372070312,768.85302734375c1.2782465385533328,11.91083753217606,22.03371125380957,25.990569084709023,31.604202270507812,24.65130615234375c9.570491016698298,-1.3392629323652727,24.359016657508334,-16.826113539882726,24.019180297851562,-28.44378662109375c17.990595669908146,6.712758948353894,-48.0524550236745,-11.910860241956584,-55.623382568359375,3.79248046875Z" id="e37_area3" class="clothes" fill="silver" style="stroke: none; stroke-width: 0px;"/>
  <path d="M228.76336669921875,672.991455078125c4.324533905631284,-1.4112558776510014,11.51096896064226,0.22129187068173906,13.058807373046875,3.4365234375c2.31151087718564,2.5279263481900216,4.032802321963857,9.591366653129171,2.061920166015625,13.74615478515625c0.7783387185652941,-11.65323189642561,-6.386462290754537,-17.833338000890194,-15.1207275390625,-17.18267822265625Z" id="e39_area3" class="lines" fill="black" style="stroke: none; stroke-width: 0px;" transform="matrix(0.846 0 0 0.874739 39.2094 87.7496)"/>
  <path d="M235.63641888550254,679.8645072644088c4.324533905631284,-1.4112558776510014,10.747296495861264,0.9085970893099784,13.058807373046875,3.4365234375c2.3115108771856403,2.5279263481900216,4.032802321963857,9.591366653129171,2.061920166015625,13.74615478515625c0.7783387185652941,-11.653231896425611,-6.386462290754537,-17.833338000890194,-15.1207275390625,-17.18267822265625Z" id="e9_area3" class="lines" fill="black" style="stroke: none; stroke-width: 0px;" transform="matrix(-0.806664 0 0 0.847088 450.119 101.46)"/>
</svg>