<?xml version="1.0" encoding="utf-8"?>
<svg width="86" height="380" viewBox="202.715 584.407 86.5933 380.048" preserveAspectRatio="xMidYMid meet" xmlns="http://www.w3.org/2000/svg" xmlns:xlink="http://www.w3.org/1999/xlink">
  <defs id="svgEditorDefs">
    <path id="svgEditorClosePathDefs" fill="moccasin" style="stroke-width: 0px; stroke: none; fill-opacity: 1;" class="shirt"/>
    <pattern id="pattern-0" x="0" y="0" width="20" height="20" patternUnits="userSpaceOnUse" viewBox="0 0 100 100">
      <g transform="matrix(0.254874, 0, 0, 0.311248, 5.602299, 9.037349)">
        <g id="layer1" transform="translate(-278 -354.36)">
          <path id="path3168" style="fill-rule:evenodd;fill:url(#linearGradient3305)" d="m378 453.77s-13.75 8.52-12.33 23.79c1.42 15.25 26.72 39.51 35.33 50.73 5.08 6.62 7.41 13.49 8.51 18.06 12.92-4.43 24.6-11.54 34.42-20.62-4.16-3.98-11.17-10.44-16.67-14.06-8.18-5.39-33.61-11.74-47.78-25.13-13.78-13.02-1.48-32.77-1.48-32.77z"/>
          <path id="path3223" style="stroke-linejoin:round;stroke:#ff0000;stroke-width:4;fill:#ffffff" d="m420 482.36a70 70 0 1 1 -140 0 70 70 0 1 1 140 0z" transform="matrix(1.3889 0 0 1.3889 -108.11 -215.59)"/>
          <path id="use3230" style="fill-rule:evenodd;fill:#ff0000" d="m378 453.46s-13.75 8.83-12.33 24.1c1.42 15.25 26.72 39.51 35.33 50.73 5.08 6.62 7.41 13.49 8.51 18.06 12.92-4.43 24.6-11.54 34.42-20.62-4.16-3.98-11.17-10.44-16.67-14.06-8.18-5.39-33.61-11.74-47.78-25.13-13.78-13.02-1.48-33.08-1.48-33.08z"/>
          <path id="path3291" style="opacity:0;stroke-width:4" transform="translate(278 354.36)" d="m93.178 199.59c-1.111-0.11-4.52-0.56-7.576-0.99-39.596-5.64-72.571-35.43-82.276-74.35-4.0224-16.12-3.8672-34.85 0.4165-50.241 4.7836-17.188 13.568-32.263 25.888-44.426 6.008-5.93 9.008-8.397 15.42-12.677 26.251-17.523 59.78-21.405 89.54-10.367 23.87 8.851 43.44 26.544 54.93 49.658 11.78 23.69 13.35 52.673 4.21 77.653-5.15 14.06-12.74 25.97-23.29 36.52-15.08 15.08-33.67 24.6-54.79 28.06-5.62 0.92-18.348 1.58-22.472 1.16zm20.692-6.07c4.73-0.69 11.02-2.09 14.83-3.3 2.06-0.66 1.99-1.17-1.13-7.75-2.57-5.43-4.84-8.5-15.09-20.33-9.65-11.14-13.822-16.34-17.533-21.85-6.003-8.92-7.809-13.91-7.485-20.69 0.275-5.75 2.422-10.47 6.968-15.33 1.736-1.86 3.012-3.37 2.835-3.37-1.034 0-7.474 3.36-9.806 5.13-3.841 2.9-5.401 4.72-7.29 8.5-1.565 3.14-1.638 3.55-1.628 9.09 0.017 9.16 2.405 17.81 9.991 36.17 5.884 14.25 6.508 16.71 7.219 28.48 0.197 3.26 0.596 5.99 0.909 6.21 0.738 0.53 10.88-0.03 17.21-0.96zm-54.161-13.01c2.969-7.02 3.307-9.2 5.199-33.65 1.222-15.78 2.313-22.89 4.616-30.05 1.861-5.8 2.946-7.68 6.425-11.14 4.668-4.64 10.067-6.755 17.461-6.836l3.809-0.042-2.627-1.243c-6.412-3.033-15.238-3.469-20.595-1.016-5.703 2.61-12.182 10.537-17.818 21.787-1.391 2.78-4.578 9.94-7.083 15.92-2.504 5.98-5.073 11.77-5.709 12.88-1.56 2.71-6.967 9.67-10.377 13.36l-2.779 3 1.072 1.45c1.339 1.81 7.283 7.18 11.617 10.49 4.387 3.35 13.659 8.88 14.58 8.7 0.406-0.07 1.4-1.7 2.209-3.61zm109.08-15.6c2.16-2.29 5.44-6.24 7.29-8.77 3.77-5.16 8.87-13.78 8.61-14.57-0.26-0.77-7.8-3.68-11.76-4.54-1.92-0.42-10.76-1.33-19.65-2.03-19.82-1.56-26.79-2.49-34.6-4.65-12.36-3.41-19.093-11.95-19.231-24.38l-0.042-3.81-1.242 2.62c-3.037 6.42-3.49 15.2-1.057 20.51 3.712 8.11 15.982 16.2 38.472 25.36 12.42 5.05 16.94 7.84 25.28 15.57 1.66 1.55 3.25 2.83 3.52 2.84s2.26-1.85 4.41-4.15zm-152.35-37.73c5.873-2.72 8.004-4.29 21.029-15.47 17.167-14.747 24.567-20.096 32.298-23.352 2.824-1.189 3.878-1.352 8.766-1.352 5.341 0 5.703 0.071 9.378 1.826 2.443 1.167 5.041 2.965 7.198 4.983 1.856 1.736 3.374 3.002 3.374 2.813s-0.763-1.977-1.696-3.973c-3.17-6.78-7.614-11.448-12.951-13.603-2.317-0.936-3.7-1.115-8.334-1.08-9.035 0.068-16.363 2.083-35.102 9.657-6.529 2.638-12.893 5.094-14.143 5.457-3.258 0.948-8.49 1.666-15.026 2.062l-5.6818 0.344v6.308c0 8.1 1.6093 18.39 4.1094 26.26 0.6204 1.96 0.6824 1.95 6.7814-0.88zm119.42-7.77c6.68-1.61 13.27-3.91 24.63-8.6 13.92-5.75 16.43-6.37 28.78-7.18l5.18-0.34-0.01-5.868c-0.02-7.727-2.24-21.047-4.53-27.067l-0.49-1.274-2.54 1c-7.5 2.959-10.66 5.159-24.12 16.815-11.14 9.647-16.35 13.824-21.86 17.534-8.91 6-13.9 7.81-20.68 7.48-5.78-0.27-10.47-2.41-15.41-7.03-3.8-3.55-3.94-3.26-1.15 2.33 3.47 6.93 8.97 11.87 14.89 13.37 3.12 0.79 11.5 0.23 17.31-1.17zm-9.96-17.13c8.05-3.707 15.33-14.551 24.43-36.392 6.26-15.032 7.56-17.237 15.54-26.307l3.51-3.989-4.02-3.867c-6.88-6.625-21.24-16.497-23.39-16.073-0.92 0.183-3.38 6.421-4.35 11.025-0.42 2.008-1 6.403-1.28 9.767s-0.95 11.457-1.49 17.985c-1.84 22.463-4.4 32.049-10.15 38.137-4.61 4.869-8.86 6.7-16.87 7.257l-5.06 0.347 2.02 0.91c7.05 3.17 15.76 3.66 21.11 1.2zm-18.07-6.566c5.82-2.912 9.87-6.851 12.31-11.991 1.19-2.501 1.32-3.355 1.31-8.586-0.01-9.158-2.4-17.805-9.99-36.168-5.83-14.107-6.46-16.585-7.22-28.355l-0.33-5.1773h-5.224c-6.618 0-15.005 1.1448-22.376 3.0544-3.166 0.8202-5.837 1.4912-5.935 1.4912-1.03 0 2.546 8.1867 5.477 12.539 0.973 1.444 6.292 7.893 11.82 14.331 14.738 17.167 20.088 24.566 23.348 32.298 1.19 2.823 1.35 3.878 1.35 8.765 0 5.341-0.07 5.704-1.82 9.379-1.18 2.468-2.97 5.044-5.06 7.271-3.55 3.799-3.26 3.943 2.34 1.149zm-5-4.162c1.18-3.415 1.4-4.901 1.43-9.596 0.03-5.022-0.1-5.837-1.34-8.476-3.812-8.139-15.541-15.915-37.521-24.878-13.412-5.469-15.445-6.66-23.946-14.03l-5.257-4.558-4.102 4.253c-2.256 2.339-5.564 6.178-7.352 8.532-3.552 4.677-9.093 13.5-9.093 14.478 0 0.724 6.725 3.406 11.235 4.482 1.738 0.414 10.433 1.321 19.322 2.015 17.822 1.392 25.111 2.27 31.567 3.804 9.351 2.222 14.232 4.987 18.304 10.367 2.671 3.529 3.963 7.598 4.293 13.513 0.15 2.726 0.45 4.771 0.67 4.546 0.22-0.226 1.03-2.23 1.79-4.452z"/>
          <path id="path3293" style="opacity:0;stroke-width:4" transform="translate(278 354.36)" d="m93.178 199.59c-1.111-0.11-4.52-0.56-7.576-0.99-39.596-5.64-72.571-35.43-82.276-74.35-4.0224-16.12-3.8672-34.85 0.4165-50.241 4.7836-17.188 13.568-32.263 25.888-44.426 6.008-5.93 9.008-8.397 15.42-12.677 26.251-17.523 59.78-21.405 89.54-10.367 23.87 8.851 43.44 26.544 54.93 49.658 11.78 23.69 13.35 52.673 4.21 77.653-5.15 14.06-12.74 25.97-23.29 36.52-15.08 15.08-33.67 24.6-54.79 28.06-5.62 0.92-18.348 1.58-22.472 1.16zm20.692-6.07c4.73-0.69 11.02-2.09 14.83-3.3 2.06-0.66 1.99-1.17-1.13-7.75-2.57-5.43-4.84-8.5-15.09-20.33-9.65-11.14-13.822-16.34-17.533-21.85-6.003-8.92-7.809-13.91-7.485-20.69 0.275-5.75 2.422-10.47 6.968-15.33 1.736-1.86 3.012-3.37 2.835-3.37-1.034 0-7.474 3.36-9.806 5.13-3.841 2.9-5.401 4.72-7.29 8.5-1.565 3.14-1.638 3.55-1.628 9.09 0.017 9.16 2.405 17.81 9.991 36.17 5.884 14.25 6.508 16.71 7.219 28.48 0.197 3.26 0.596 5.99 0.909 6.21 0.738 0.53 10.88-0.03 17.21-0.96zm-54.161-13.01c2.969-7.02 3.307-9.2 5.199-33.65 1.222-15.78 2.313-22.89 4.616-30.05 1.861-5.8 2.946-7.68 6.425-11.14 4.668-4.64 10.067-6.755 17.461-6.836l3.809-0.042-2.627-1.243c-6.412-3.033-15.238-3.469-20.595-1.016-5.703 2.61-12.182 10.537-17.818 21.787-1.391 2.78-4.578 9.94-7.083 15.92-2.504 5.98-5.073 11.77-5.709 12.88-1.56 2.71-6.967 9.67-10.377 13.36l-2.779 3 1.072 1.45c1.339 1.81 7.283 7.18 11.617 10.49 4.387 3.35 13.659 8.88 14.58 8.7 0.406-0.07 1.4-1.7 2.209-3.61zm109.08-15.6c2.16-2.29 5.44-6.24 7.29-8.77 3.77-5.16 8.87-13.78 8.61-14.57-0.26-0.77-7.8-3.68-11.76-4.54-1.92-0.42-10.76-1.33-19.65-2.03-19.82-1.56-26.79-2.49-34.6-4.65-12.36-3.41-19.093-11.95-19.231-24.38l-0.042-3.81-1.242 2.62c-3.037 6.42-3.49 15.2-1.057 20.51 3.712 8.11 15.982 16.2 38.472 25.36 12.42 5.05 16.94 7.84 25.28 15.57 1.66 1.55 3.25 2.83 3.52 2.84s2.26-1.85 4.41-4.15zm-152.35-37.73c5.873-2.72 8.004-4.29 21.029-15.47 17.167-14.747 24.567-20.096 32.298-23.352 2.824-1.189 3.878-1.352 8.766-1.352 5.341 0 5.703 0.071 9.378 1.826 2.443 1.167 5.041 2.965 7.198 4.983 1.856 1.736 3.374 3.002 3.374 2.813s-0.763-1.977-1.696-3.973c-3.17-6.78-7.614-11.448-12.951-13.603-2.317-0.936-3.7-1.115-8.334-1.08-9.035 0.068-16.363 2.083-35.102 9.657-6.529 2.638-12.893 5.094-14.143 5.457-3.258 0.948-8.49 1.666-15.026 2.062l-5.6818 0.344v6.308c0 8.1 1.6093 18.39 4.1094 26.26 0.6204 1.96 0.6824 1.95 6.7814-0.88zm119.42-7.77c6.68-1.61 13.27-3.91 24.63-8.6 13.92-5.75 16.43-6.37 28.78-7.18l5.18-0.34-0.01-5.868c-0.02-7.727-2.24-21.047-4.53-27.067l-0.49-1.274-2.54 1c-7.5 2.959-10.66 5.159-24.12 16.815-11.14 9.647-16.35 13.824-21.86 17.534-8.91 6-13.9 7.81-20.68 7.48-5.78-0.27-10.47-2.41-15.41-7.03-3.8-3.55-3.94-3.26-1.15 2.33 3.47 6.93 8.97 11.87 14.89 13.37 3.12 0.79 11.5 0.23 17.31-1.17zm-9.96-17.13c8.05-3.707 15.33-14.551 24.43-36.392 6.26-15.032 7.56-17.237 15.54-26.307l3.51-3.989-4.02-3.867c-6.88-6.625-21.24-16.497-23.39-16.073-0.92 0.183-3.38 6.421-4.35 11.025-0.42 2.008-1 6.403-1.28 9.767s-0.95 11.457-1.49 17.985c-1.84 22.463-4.4 32.049-10.15 38.137-4.61 4.869-8.86 6.7-16.87 7.257l-5.06 0.347 2.02 0.91c7.05 3.17 15.76 3.66 21.11 1.2zm-18.07-6.566c5.82-2.912 9.87-6.851 12.31-11.991 1.19-2.501 1.32-3.355 1.31-8.586-0.01-9.158-2.4-17.805-9.99-36.168-5.83-14.107-6.46-16.585-7.22-28.355l-0.33-5.1773h-5.224c-6.618 0-15.005 1.1448-22.376 3.0544-3.166 0.8202-5.837 1.4912-5.935 1.4912-1.03 0 2.546 8.1867 5.477 12.539 0.973 1.444 6.292 7.893 11.82 14.331 14.738 17.167 20.088 24.566 23.348 32.298 1.19 2.823 1.35 3.878 1.35 8.765 0 5.341-0.07 5.704-1.82 9.379-1.18 2.468-2.97 5.044-5.06 7.271-3.55 3.799-3.26 3.943 2.34 1.149zm-5-4.162c1.18-3.415 1.4-4.901 1.43-9.596 0.03-5.022-0.1-5.837-1.34-8.476-3.812-8.139-15.541-15.915-37.521-24.878-13.412-5.469-15.445-6.66-23.946-14.03l-5.257-4.558-4.102 4.253c-2.256 2.339-5.564 6.178-7.352 8.532-3.552 4.677-9.093 13.5-9.093 14.478 0 0.724 6.725 3.406 11.235 4.482 1.738 0.414 10.433 1.321 19.322 2.015 17.822 1.392 25.111 2.27 31.567 3.804 9.351 2.222 14.232 4.987 18.304 10.367 2.671 3.529 3.963 7.598 4.293 13.513 0.15 2.726 0.45 4.771 0.67 4.546 0.22-0.226 1.03-2.23 1.79-4.452z"/>
          <path id="path3295" style="opacity:0;stroke-width:4" transform="translate(278 354.36)" d="m93.178 199.59c-1.111-0.11-4.52-0.56-7.576-0.99-39.596-5.64-72.571-35.43-82.276-74.35-4.0224-16.12-3.8672-34.85 0.4165-50.241 4.7836-17.188 13.568-32.263 25.888-44.426 6.008-5.93 9.008-8.397 15.42-12.677 26.251-17.523 59.78-21.405 89.54-10.367 23.87 8.851 43.44 26.544 54.93 49.658 11.78 23.69 13.35 52.673 4.21 77.653-5.15 14.06-12.74 25.97-23.29 36.52-15.08 15.08-33.67 24.6-54.79 28.06-5.62 0.92-18.348 1.58-22.472 1.16zm20.692-6.07c4.73-0.69 11.02-2.09 14.83-3.3 2.06-0.66 1.99-1.17-1.13-7.75-2.57-5.43-4.84-8.5-15.09-20.33-9.65-11.14-13.822-16.34-17.533-21.85-6.003-8.92-7.809-13.91-7.485-20.69 0.275-5.75 2.422-10.47 6.968-15.33 1.736-1.86 3.012-3.37 2.835-3.37-1.034 0-7.474 3.36-9.806 5.13-3.841 2.9-5.401 4.72-7.29 8.5-1.565 3.14-1.638 3.55-1.628 9.09 0.017 9.16 2.405 17.81 9.991 36.17 5.884 14.25 6.508 16.71 7.219 28.48 0.197 3.26 0.596 5.99 0.909 6.21 0.738 0.53 10.88-0.03 17.21-0.96zm-54.161-13.01c2.969-7.02 3.307-9.2 5.199-33.65 1.222-15.78 2.313-22.89 4.616-30.05 1.861-5.8 2.946-7.68 6.425-11.14 4.668-4.64 10.067-6.755 17.461-6.836l3.809-0.042-2.627-1.243c-6.412-3.033-15.238-3.469-20.595-1.016-5.703 2.61-12.182 10.537-17.818 21.787-1.391 2.78-4.578 9.94-7.083 15.92-2.504 5.98-5.073 11.77-5.709 12.88-1.56 2.71-6.967 9.67-10.377 13.36l-2.779 3 1.072 1.45c1.339 1.81 7.283 7.18 11.617 10.49 4.387 3.35 13.659 8.88 14.58 8.7 0.406-0.07 1.4-1.7 2.209-3.61zm109.08-15.6c2.16-2.29 5.44-6.24 7.29-8.77 3.77-5.16 8.87-13.78 8.61-14.57-0.26-0.77-7.8-3.68-11.76-4.54-1.92-0.42-10.76-1.33-19.65-2.03-19.82-1.56-26.79-2.49-34.6-4.65-12.36-3.41-19.093-11.95-19.231-24.38l-0.042-3.81-1.242 2.62c-3.037 6.42-3.49 15.2-1.057 20.51 3.712 8.11 15.982 16.2 38.472 25.36 12.42 5.05 16.94 7.84 25.28 15.57 1.66 1.55 3.25 2.83 3.52 2.84s2.26-1.85 4.41-4.15zm-152.35-37.73c5.873-2.72 8.004-4.29 21.029-15.47 17.167-14.747 24.567-20.096 32.298-23.352 2.824-1.189 3.878-1.352 8.766-1.352 5.341 0 5.703 0.071 9.378 1.826 2.443 1.167 5.041 2.965 7.198 4.983 1.856 1.736 3.374 3.002 3.374 2.813s-0.763-1.977-1.696-3.973c-3.17-6.78-7.614-11.448-12.951-13.603-2.317-0.936-3.7-1.115-8.334-1.08-9.035 0.068-16.363 2.083-35.102 9.657-6.529 2.638-12.893 5.094-14.143 5.457-3.258 0.948-8.49 1.666-15.026 2.062l-5.6818 0.344v6.308c0 8.1 1.6093 18.39 4.1094 26.26 0.6204 1.96 0.6824 1.95 6.7814-0.88zm119.42-7.77c6.68-1.61 13.27-3.91 24.63-8.6 13.92-5.75 16.43-6.37 28.78-7.18l5.18-0.34-0.01-5.868c-0.02-7.727-2.24-21.047-4.53-27.067l-0.49-1.274-2.54 1c-7.5 2.959-10.66 5.159-24.12 16.815-11.14 9.647-16.35 13.824-21.86 17.534-8.91 6-13.9 7.81-20.68 7.48-5.78-0.27-10.47-2.41-15.41-7.03-3.8-3.55-3.94-3.26-1.15 2.33 3.47 6.93 8.97 11.87 14.89 13.37 3.12 0.79 11.5 0.23 17.31-1.17zm-9.96-17.13c8.05-3.707 15.33-14.551 24.43-36.392 6.26-15.032 7.56-17.237 15.54-26.307l3.51-3.989-4.02-3.867c-6.88-6.625-21.24-16.497-23.39-16.073-0.92 0.183-3.38 6.421-4.35 11.025-0.42 2.008-1 6.403-1.28 9.767s-0.95 11.457-1.49 17.985c-1.84 22.463-4.4 32.049-10.15 38.137-4.61 4.869-8.86 6.7-16.87 7.257l-5.06 0.347 2.02 0.91c7.05 3.17 15.76 3.66 21.11 1.2zm-18.07-6.566c5.82-2.912 9.87-6.851 12.31-11.991 1.19-2.501 1.32-3.355 1.31-8.586-0.01-9.158-2.4-17.805-9.99-36.168-5.83-14.107-6.46-16.585-7.22-28.355l-0.33-5.1773h-5.224c-6.618 0-15.005 1.1448-22.376 3.0544-3.166 0.8202-5.837 1.4912-5.935 1.4912-1.03 0 2.546 8.1867 5.477 12.539 0.973 1.444 6.292 7.893 11.82 14.331 14.738 17.167 20.088 24.566 23.348 32.298 1.19 2.823 1.35 3.878 1.35 8.765 0 5.341-0.07 5.704-1.82 9.379-1.18 2.468-2.97 5.044-5.06 7.271-3.55 3.799-3.26 3.943 2.34 1.149zm-5-4.162c1.18-3.415 1.4-4.901 1.43-9.596 0.03-5.022-0.1-5.837-1.34-8.476-3.812-8.139-15.541-15.915-37.521-24.878-13.412-5.469-15.445-6.66-23.946-14.03l-5.257-4.558-4.102 4.253c-2.256 2.339-5.564 6.178-7.352 8.532-3.552 4.677-9.093 13.5-9.093 14.478 0 0.724 6.725 3.406 11.235 4.482 1.738 0.414 10.433 1.321 19.322 2.015 17.822 1.392 25.111 2.27 31.567 3.804 9.351 2.222 14.232 4.987 18.304 10.367 2.671 3.529 3.963 7.598 4.293 13.513 0.15 2.726 0.45 4.771 0.67 4.546 0.22-0.226 1.03-2.23 1.79-4.452z"/>
          <path id="path3297" style="opacity:0;stroke-width:4" transform="translate(278 354.36)" d="m93.178 199.59c-1.111-0.11-4.52-0.56-7.576-0.99-39.596-5.64-72.571-35.43-82.276-74.35-4.0224-16.12-3.8672-34.85 0.4165-50.241 4.7836-17.188 13.568-32.263 25.888-44.426 6.008-5.93 9.008-8.397 15.42-12.677 26.251-17.523 59.78-21.405 89.54-10.367 23.87 8.851 43.44 26.544 54.93 49.658 11.78 23.69 13.35 52.673 4.21 77.653-5.15 14.06-12.74 25.97-23.29 36.52-15.08 15.08-33.67 24.6-54.79 28.06-5.62 0.92-18.348 1.58-22.472 1.16zm20.692-6.07c4.73-0.69 11.02-2.09 14.83-3.3 2.06-0.66 1.99-1.17-1.13-7.75-2.57-5.43-4.84-8.5-15.09-20.33-9.65-11.14-13.822-16.34-17.533-21.85-6.003-8.92-7.809-13.91-7.485-20.69 0.275-5.75 2.422-10.47 6.968-15.33 1.736-1.86 3.012-3.37 2.835-3.37-1.034 0-7.474 3.36-9.806 5.13-3.841 2.9-5.401 4.72-7.29 8.5-1.565 3.14-1.638 3.55-1.628 9.09 0.017 9.16 2.405 17.81 9.991 36.17 5.884 14.25 6.508 16.71 7.219 28.48 0.197 3.26 0.596 5.99 0.909 6.21 0.738 0.53 10.88-0.03 17.21-0.96zm-54.161-13.01c2.969-7.02 3.307-9.2 5.199-33.65 1.222-15.78 2.313-22.89 4.616-30.05 1.861-5.8 2.946-7.68 6.425-11.14 4.668-4.64 10.067-6.755 17.461-6.836l3.809-0.042-2.627-1.243c-6.412-3.033-15.238-3.469-20.595-1.016-5.703 2.61-12.182 10.537-17.818 21.787-1.391 2.78-4.578 9.94-7.083 15.92-2.504 5.98-5.073 11.77-5.709 12.88-1.56 2.71-6.967 9.67-10.377 13.36l-2.779 3 1.072 1.45c1.339 1.81 7.283 7.18 11.617 10.49 4.387 3.35 13.659 8.88 14.58 8.7 0.406-0.07 1.4-1.7 2.209-3.61zm109.08-15.6c2.16-2.29 5.44-6.24 7.29-8.77 3.77-5.16 8.87-13.78 8.61-14.57-0.26-0.77-7.8-3.68-11.76-4.54-1.92-0.42-10.76-1.33-19.65-2.03-19.82-1.56-26.79-2.49-34.6-4.65-12.36-3.41-19.093-11.95-19.231-24.38l-0.042-3.81-1.242 2.62c-3.037 6.42-3.49 15.2-1.057 20.51 3.712 8.11 15.982 16.2 38.472 25.36 12.42 5.05 16.94 7.84 25.28 15.57 1.66 1.55 3.25 2.83 3.52 2.84s2.26-1.85 4.41-4.15zm-152.35-37.73c5.873-2.72 8.004-4.29 21.029-15.47 17.167-14.747 24.567-20.096 32.298-23.352 2.824-1.189 3.878-1.352 8.766-1.352 5.341 0 5.703 0.071 9.378 1.826 2.443 1.167 5.041 2.965 7.198 4.983 1.856 1.736 3.374 3.002 3.374 2.813s-0.763-1.977-1.696-3.973c-3.17-6.78-7.614-11.448-12.951-13.603-2.317-0.936-3.7-1.115-8.334-1.08-9.035 0.068-16.363 2.083-35.102 9.657-6.529 2.638-12.893 5.094-14.143 5.457-3.258 0.948-8.49 1.666-15.026 2.062l-5.6818 0.344v6.308c0 8.1 1.6093 18.39 4.1094 26.26 0.6204 1.96 0.6824 1.95 6.7814-0.88zm119.42-7.77c6.68-1.61 13.27-3.91 24.63-8.6 13.92-5.75 16.43-6.37 28.78-7.18l5.18-0.34-0.01-5.868c-0.02-7.727-2.24-21.047-4.53-27.067l-0.49-1.274-2.54 1c-7.5 2.959-10.66 5.159-24.12 16.815-11.14 9.647-16.35 13.824-21.86 17.534-8.91 6-13.9 7.81-20.68 7.48-5.78-0.27-10.47-2.41-15.41-7.03-3.8-3.55-3.94-3.26-1.15 2.33 3.47 6.93 8.97 11.87 14.89 13.37 3.12 0.79 11.5 0.23 17.31-1.17zm-9.96-17.13c8.05-3.707 15.33-14.551 24.43-36.392 6.26-15.032 7.56-17.237 15.54-26.307l3.51-3.989-4.02-3.867c-6.88-6.625-21.24-16.497-23.39-16.073-0.92 0.183-3.38 6.421-4.35 11.025-0.42 2.008-1 6.403-1.28 9.767s-0.95 11.457-1.49 17.985c-1.84 22.463-4.4 32.049-10.15 38.137-4.61 4.869-8.86 6.7-16.87 7.257l-5.06 0.347 2.02 0.91c7.05 3.17 15.76 3.66 21.11 1.2zm-18.07-6.566c5.82-2.912 9.87-6.851 12.31-11.991 1.19-2.501 1.32-3.355 1.31-8.586-0.01-9.158-2.4-17.805-9.99-36.168-5.83-14.107-6.46-16.585-7.22-28.355l-0.33-5.1773h-5.224c-6.618 0-15.005 1.1448-22.376 3.0544-3.166 0.8202-5.837 1.4912-5.935 1.4912-1.03 0 2.546 8.1867 5.477 12.539 0.973 1.444 6.292 7.893 11.82 14.331 14.738 17.167 20.088 24.566 23.348 32.298 1.19 2.823 1.35 3.878 1.35 8.765 0 5.341-0.07 5.704-1.82 9.379-1.18 2.468-2.97 5.044-5.06 7.271-3.55 3.799-3.26 3.943 2.34 1.149zm-5-4.162c1.18-3.415 1.4-4.901 1.43-9.596 0.03-5.022-0.1-5.837-1.34-8.476-3.812-8.139-15.541-15.915-37.521-24.878-13.412-5.469-15.445-6.66-23.946-14.03l-5.257-4.558-4.102 4.253c-2.256 2.339-5.564 6.178-7.352 8.532-3.552 4.677-9.093 13.5-9.093 14.478 0 0.724 6.725 3.406 11.235 4.482 1.738 0.414 10.433 1.321 19.322 2.015 17.822 1.392 25.111 2.27 31.567 3.804 9.351 2.222 14.232 4.987 18.304 10.367 2.671 3.529 3.963 7.598 4.293 13.513 0.15 2.726 0.45 4.771 0.67 4.546 0.22-0.226 1.03-2.23 1.79-4.452z"/>
          <path id="use3341" style="fill-rule:evenodd;fill:#ff0000" d="m378 453.46s-13.75 8.83-12.33 24.1c1.42 15.25 26.72 39.51 35.33 50.73 5.08 6.62 7.41 13.49 8.51 18.06 12.92-4.43 24.6-11.54 34.42-20.62-4.16-3.98-11.17-10.44-16.67-14.06-8.18-5.39-33.61-11.74-47.78-25.13-13.78-13.02-1.48-33.08-1.48-33.08z" transform="matrix(0.7071100473403931, 0.7071100473403931, -0.7071100473403931, 0.7071100473403931, 431.3599853515625, -134.47000122070312)"/>
          <path id="use3343" style="fill-rule:evenodd;fill:#ff0000" d="m378 453.46s-13.75 8.83-12.33 24.1c1.42 15.25 26.72 39.51 35.33 50.73 5.08 6.62 7.41 13.49 8.51 18.06 12.92-4.43 24.6-11.54 34.42-20.62-4.16-3.98-11.17-10.44-16.67-14.06-8.18-5.39-33.61-11.74-47.78-25.13-13.78-13.02-1.48-33.08-1.48-33.08z" transform="matrix(0, 1, -1, 0, 831.4600219726562, 75.45899963378906)"/>
          <path id="use3345" style="fill-rule:evenodd;fill:#ff0000" d="m378 453.46s-13.75 8.83-12.33 24.1c1.42 15.25 26.72 39.51 35.33 50.73 5.08 6.62 7.41 13.49 8.51 18.06 12.92-4.43 24.6-11.54 34.42-20.62-4.16-3.98-11.17-10.44-16.67-14.06-8.18-5.39-33.61-11.74-47.78-25.13-13.78-13.02-1.48-33.08-1.48-33.08z" transform="matrix(-0.7071100473403931, 0.7071100473403931, -0.7071100473403931, -0.7071100473403931, 965.9299926757812, 506.82000732421875)"/>
          <path id="use3347" style="fill-rule:evenodd;fill:#ff0000" d="m378 453.46s-13.75 8.83-12.33 24.1c1.42 15.25 26.72 39.51 35.33 50.73 5.08 6.62 7.41 13.49 8.51 18.06 12.92-4.43 24.6-11.54 34.42-20.62-4.16-3.98-11.17-10.44-16.67-14.06-8.18-5.39-33.61-11.74-47.78-25.13-13.78-13.02-1.48-33.08-1.48-33.08z" transform="matrix(-1, 0, 0, -1, 756, 906.9199829101562)"/>
          <path id="use3349" style="fill-rule:evenodd;fill:#ff0000" d="m378 453.46s-13.75 8.83-12.33 24.1c1.42 15.25 26.72 39.51 35.33 50.73 5.08 6.62 7.41 13.49 8.51 18.06 12.92-4.43 24.6-11.54 34.42-20.62-4.16-3.98-11.17-10.44-16.67-14.06-8.18-5.39-33.61-11.74-47.78-25.13-13.78-13.02-1.48-33.08-1.48-33.08z" transform="matrix(-0.7071100473403931, -0.7071100473403931, 0.7071100473403931, -0.7071100473403931, 324.6400146484375, 1041.4000244140625)"/>
          <path id="use3351" style="fill-rule:evenodd;fill:#ff0000" d="m378 453.46s-13.75 8.83-12.33 24.1c1.42 15.25 26.72 39.51 35.33 50.73 5.08 6.62 7.41 13.49 8.51 18.06 12.92-4.43 24.6-11.54 34.42-20.62-4.16-3.98-11.17-10.44-16.67-14.06-8.18-5.39-33.61-11.74-47.78-25.13-13.78-13.02-1.48-33.08-1.48-33.08z" transform="matrix(0, -1, 1, 0, -75.45899963378906, 831.4600219726562)"/>
          <path id="use3353" style="fill-rule:evenodd;fill:#ff0000" d="m378 453.46s-13.75 8.83-12.33 24.1c1.42 15.25 26.72 39.51 35.33 50.73 5.08 6.62 7.41 13.49 8.51 18.06 12.92-4.43 24.6-11.54 34.42-20.62-4.16-3.98-11.17-10.44-16.67-14.06-8.18-5.39-33.61-11.74-47.78-25.13-13.78-13.02-1.48-33.08-1.48-33.08z" transform="matrix(0.7071100473403931, -0.7071100473403931, 0.7071100473403931, 0.7071100473403931, -209.92999267578125, 400.1000061035156)"/>
          <path id="path3355" style="fill:url(#radialGradient3363)" d="m200 100a100 100 0 1 1 -200 0 100 100 0 1 1 200 0z" transform="translate(278 354.36)"/>
        </g>
      </g>
      <g transform="matrix(0.254874, 0, 0, 0.311248, 34.769005, 35.660183)">
        <g id="g-1" transform="translate(-278 -354.36)">
          <path id="path-1" style="fill-rule: evenodd; fill: url(#gradient-1);" d="m378 453.77s-13.75 8.52-12.33 23.79c1.42 15.25 26.72 39.51 35.33 50.73 5.08 6.62 7.41 13.49 8.51 18.06 12.92-4.43 24.6-11.54 34.42-20.62-4.16-3.98-11.17-10.44-16.67-14.06-8.18-5.39-33.61-11.74-47.78-25.13-13.78-13.02-1.48-32.77-1.48-32.77z"/>
          <path id="path-2" style="stroke-linejoin:round;stroke:#ff0000;stroke-width:4;fill:#ffffff" d="m420 482.36a70 70 0 1 1 -140 0 70 70 0 1 1 140 0z" transform="matrix(1.3889 0 0 1.3889 -108.11 -215.59)"/>
          <path id="path-3" style="fill-rule:evenodd;fill:#ff0000" d="m378 453.46s-13.75 8.83-12.33 24.1c1.42 15.25 26.72 39.51 35.33 50.73 5.08 6.62 7.41 13.49 8.51 18.06 12.92-4.43 24.6-11.54 34.42-20.62-4.16-3.98-11.17-10.44-16.67-14.06-8.18-5.39-33.61-11.74-47.78-25.13-13.78-13.02-1.48-33.08-1.48-33.08z"/>
          <path id="path-4" style="opacity:0;stroke-width:4" transform="translate(278 354.36)" d="m93.178 199.59c-1.111-0.11-4.52-0.56-7.576-0.99-39.596-5.64-72.571-35.43-82.276-74.35-4.0224-16.12-3.8672-34.85 0.4165-50.241 4.7836-17.188 13.568-32.263 25.888-44.426 6.008-5.93 9.008-8.397 15.42-12.677 26.251-17.523 59.78-21.405 89.54-10.367 23.87 8.851 43.44 26.544 54.93 49.658 11.78 23.69 13.35 52.673 4.21 77.653-5.15 14.06-12.74 25.97-23.29 36.52-15.08 15.08-33.67 24.6-54.79 28.06-5.62 0.92-18.348 1.58-22.472 1.16zm20.692-6.07c4.73-0.69 11.02-2.09 14.83-3.3 2.06-0.66 1.99-1.17-1.13-7.75-2.57-5.43-4.84-8.5-15.09-20.33-9.65-11.14-13.822-16.34-17.533-21.85-6.003-8.92-7.809-13.91-7.485-20.69 0.275-5.75 2.422-10.47 6.968-15.33 1.736-1.86 3.012-3.37 2.835-3.37-1.034 0-7.474 3.36-9.806 5.13-3.841 2.9-5.401 4.72-7.29 8.5-1.565 3.14-1.638 3.55-1.628 9.09 0.017 9.16 2.405 17.81 9.991 36.17 5.884 14.25 6.508 16.71 7.219 28.48 0.197 3.26 0.596 5.99 0.909 6.21 0.738 0.53 10.88-0.03 17.21-0.96zm-54.161-13.01c2.969-7.02 3.307-9.2 5.199-33.65 1.222-15.78 2.313-22.89 4.616-30.05 1.861-5.8 2.946-7.68 6.425-11.14 4.668-4.64 10.067-6.755 17.461-6.836l3.809-0.042-2.627-1.243c-6.412-3.033-15.238-3.469-20.595-1.016-5.703 2.61-12.182 10.537-17.818 21.787-1.391 2.78-4.578 9.94-7.083 15.92-2.504 5.98-5.073 11.77-5.709 12.88-1.56 2.71-6.967 9.67-10.377 13.36l-2.779 3 1.072 1.45c1.339 1.81 7.283 7.18 11.617 10.49 4.387 3.35 13.659 8.88 14.58 8.7 0.406-0.07 1.4-1.7 2.209-3.61zm109.08-15.6c2.16-2.29 5.44-6.24 7.29-8.77 3.77-5.16 8.87-13.78 8.61-14.57-0.26-0.77-7.8-3.68-11.76-4.54-1.92-0.42-10.76-1.33-19.65-2.03-19.82-1.56-26.79-2.49-34.6-4.65-12.36-3.41-19.093-11.95-19.231-24.38l-0.042-3.81-1.242 2.62c-3.037 6.42-3.49 15.2-1.057 20.51 3.712 8.11 15.982 16.2 38.472 25.36 12.42 5.05 16.94 7.84 25.28 15.57 1.66 1.55 3.25 2.83 3.52 2.84s2.26-1.85 4.41-4.15zm-152.35-37.73c5.873-2.72 8.004-4.29 21.029-15.47 17.167-14.747 24.567-20.096 32.298-23.352 2.824-1.189 3.878-1.352 8.766-1.352 5.341 0 5.703 0.071 9.378 1.826 2.443 1.167 5.041 2.965 7.198 4.983 1.856 1.736 3.374 3.002 3.374 2.813s-0.763-1.977-1.696-3.973c-3.17-6.78-7.614-11.448-12.951-13.603-2.317-0.936-3.7-1.115-8.334-1.08-9.035 0.068-16.363 2.083-35.102 9.657-6.529 2.638-12.893 5.094-14.143 5.457-3.258 0.948-8.49 1.666-15.026 2.062l-5.6818 0.344v6.308c0 8.1 1.6093 18.39 4.1094 26.26 0.6204 1.96 0.6824 1.95 6.7814-0.88zm119.42-7.77c6.68-1.61 13.27-3.91 24.63-8.6 13.92-5.75 16.43-6.37 28.78-7.18l5.18-0.34-0.01-5.868c-0.02-7.727-2.24-21.047-4.53-27.067l-0.49-1.274-2.54 1c-7.5 2.959-10.66 5.159-24.12 16.815-11.14 9.647-16.35 13.824-21.86 17.534-8.91 6-13.9 7.81-20.68 7.48-5.78-0.27-10.47-2.41-15.41-7.03-3.8-3.55-3.94-3.26-1.15 2.33 3.47 6.93 8.97 11.87 14.89 13.37 3.12 0.79 11.5 0.23 17.31-1.17zm-9.96-17.13c8.05-3.707 15.33-14.551 24.43-36.392 6.26-15.032 7.56-17.237 15.54-26.307l3.51-3.989-4.02-3.867c-6.88-6.625-21.24-16.497-23.39-16.073-0.92 0.183-3.38 6.421-4.35 11.025-0.42 2.008-1 6.403-1.28 9.767s-0.95 11.457-1.49 17.985c-1.84 22.463-4.4 32.049-10.15 38.137-4.61 4.869-8.86 6.7-16.87 7.257l-5.06 0.347 2.02 0.91c7.05 3.17 15.76 3.66 21.11 1.2zm-18.07-6.566c5.82-2.912 9.87-6.851 12.31-11.991 1.19-2.501 1.32-3.355 1.31-8.586-0.01-9.158-2.4-17.805-9.99-36.168-5.83-14.107-6.46-16.585-7.22-28.355l-0.33-5.1773h-5.224c-6.618 0-15.005 1.1448-22.376 3.0544-3.166 0.8202-5.837 1.4912-5.935 1.4912-1.03 0 2.546 8.1867 5.477 12.539 0.973 1.444 6.292 7.893 11.82 14.331 14.738 17.167 20.088 24.566 23.348 32.298 1.19 2.823 1.35 3.878 1.35 8.765 0 5.341-0.07 5.704-1.82 9.379-1.18 2.468-2.97 5.044-5.06 7.271-3.55 3.799-3.26 3.943 2.34 1.149zm-5-4.162c1.18-3.415 1.4-4.901 1.43-9.596 0.03-5.022-0.1-5.837-1.34-8.476-3.812-8.139-15.541-15.915-37.521-24.878-13.412-5.469-15.445-6.66-23.946-14.03l-5.257-4.558-4.102 4.253c-2.256 2.339-5.564 6.178-7.352 8.532-3.552 4.677-9.093 13.5-9.093 14.478 0 0.724 6.725 3.406 11.235 4.482 1.738 0.414 10.433 1.321 19.322 2.015 17.822 1.392 25.111 2.27 31.567 3.804 9.351 2.222 14.232 4.987 18.304 10.367 2.671 3.529 3.963 7.598 4.293 13.513 0.15 2.726 0.45 4.771 0.67 4.546 0.22-0.226 1.03-2.23 1.79-4.452z"/>
          <path id="path-5" style="opacity:0;stroke-width:4" transform="translate(278 354.36)" d="m93.178 199.59c-1.111-0.11-4.52-0.56-7.576-0.99-39.596-5.64-72.571-35.43-82.276-74.35-4.0224-16.12-3.8672-34.85 0.4165-50.241 4.7836-17.188 13.568-32.263 25.888-44.426 6.008-5.93 9.008-8.397 15.42-12.677 26.251-17.523 59.78-21.405 89.54-10.367 23.87 8.851 43.44 26.544 54.93 49.658 11.78 23.69 13.35 52.673 4.21 77.653-5.15 14.06-12.74 25.97-23.29 36.52-15.08 15.08-33.67 24.6-54.79 28.06-5.62 0.92-18.348 1.58-22.472 1.16zm20.692-6.07c4.73-0.69 11.02-2.09 14.83-3.3 2.06-0.66 1.99-1.17-1.13-7.75-2.57-5.43-4.84-8.5-15.09-20.33-9.65-11.14-13.822-16.34-17.533-21.85-6.003-8.92-7.809-13.91-7.485-20.69 0.275-5.75 2.422-10.47 6.968-15.33 1.736-1.86 3.012-3.37 2.835-3.37-1.034 0-7.474 3.36-9.806 5.13-3.841 2.9-5.401 4.72-7.29 8.5-1.565 3.14-1.638 3.55-1.628 9.09 0.017 9.16 2.405 17.81 9.991 36.17 5.884 14.25 6.508 16.71 7.219 28.48 0.197 3.26 0.596 5.99 0.909 6.21 0.738 0.53 10.88-0.03 17.21-0.96zm-54.161-13.01c2.969-7.02 3.307-9.2 5.199-33.65 1.222-15.78 2.313-22.89 4.616-30.05 1.861-5.8 2.946-7.68 6.425-11.14 4.668-4.64 10.067-6.755 17.461-6.836l3.809-0.042-2.627-1.243c-6.412-3.033-15.238-3.469-20.595-1.016-5.703 2.61-12.182 10.537-17.818 21.787-1.391 2.78-4.578 9.94-7.083 15.92-2.504 5.98-5.073 11.77-5.709 12.88-1.56 2.71-6.967 9.67-10.377 13.36l-2.779 3 1.072 1.45c1.339 1.81 7.283 7.18 11.617 10.49 4.387 3.35 13.659 8.88 14.58 8.7 0.406-0.07 1.4-1.7 2.209-3.61zm109.08-15.6c2.16-2.29 5.44-6.24 7.29-8.77 3.77-5.16 8.87-13.78 8.61-14.57-0.26-0.77-7.8-3.68-11.76-4.54-1.92-0.42-10.76-1.33-19.65-2.03-19.82-1.56-26.79-2.49-34.6-4.65-12.36-3.41-19.093-11.95-19.231-24.38l-0.042-3.81-1.242 2.62c-3.037 6.42-3.49 15.2-1.057 20.51 3.712 8.11 15.982 16.2 38.472 25.36 12.42 5.05 16.94 7.84 25.28 15.57 1.66 1.55 3.25 2.83 3.52 2.84s2.26-1.85 4.41-4.15zm-152.35-37.73c5.873-2.72 8.004-4.29 21.029-15.47 17.167-14.747 24.567-20.096 32.298-23.352 2.824-1.189 3.878-1.352 8.766-1.352 5.341 0 5.703 0.071 9.378 1.826 2.443 1.167 5.041 2.965 7.198 4.983 1.856 1.736 3.374 3.002 3.374 2.813s-0.763-1.977-1.696-3.973c-3.17-6.78-7.614-11.448-12.951-13.603-2.317-0.936-3.7-1.115-8.334-1.08-9.035 0.068-16.363 2.083-35.102 9.657-6.529 2.638-12.893 5.094-14.143 5.457-3.258 0.948-8.49 1.666-15.026 2.062l-5.6818 0.344v6.308c0 8.1 1.6093 18.39 4.1094 26.26 0.6204 1.96 0.6824 1.95 6.7814-0.88zm119.42-7.77c6.68-1.61 13.27-3.91 24.63-8.6 13.92-5.75 16.43-6.37 28.78-7.18l5.18-0.34-0.01-5.868c-0.02-7.727-2.24-21.047-4.53-27.067l-0.49-1.274-2.54 1c-7.5 2.959-10.66 5.159-24.12 16.815-11.14 9.647-16.35 13.824-21.86 17.534-8.91 6-13.9 7.81-20.68 7.48-5.78-0.27-10.47-2.41-15.41-7.03-3.8-3.55-3.94-3.26-1.15 2.33 3.47 6.93 8.97 11.87 14.89 13.37 3.12 0.79 11.5 0.23 17.31-1.17zm-9.96-17.13c8.05-3.707 15.33-14.551 24.43-36.392 6.26-15.032 7.56-17.237 15.54-26.307l3.51-3.989-4.02-3.867c-6.88-6.625-21.24-16.497-23.39-16.073-0.92 0.183-3.38 6.421-4.35 11.025-0.42 2.008-1 6.403-1.28 9.767s-0.95 11.457-1.49 17.985c-1.84 22.463-4.4 32.049-10.15 38.137-4.61 4.869-8.86 6.7-16.87 7.257l-5.06 0.347 2.02 0.91c7.05 3.17 15.76 3.66 21.11 1.2zm-18.07-6.566c5.82-2.912 9.87-6.851 12.31-11.991 1.19-2.501 1.32-3.355 1.31-8.586-0.01-9.158-2.4-17.805-9.99-36.168-5.83-14.107-6.46-16.585-7.22-28.355l-0.33-5.1773h-5.224c-6.618 0-15.005 1.1448-22.376 3.0544-3.166 0.8202-5.837 1.4912-5.935 1.4912-1.03 0 2.546 8.1867 5.477 12.539 0.973 1.444 6.292 7.893 11.82 14.331 14.738 17.167 20.088 24.566 23.348 32.298 1.19 2.823 1.35 3.878 1.35 8.765 0 5.341-0.07 5.704-1.82 9.379-1.18 2.468-2.97 5.044-5.06 7.271-3.55 3.799-3.26 3.943 2.34 1.149zm-5-4.162c1.18-3.415 1.4-4.901 1.43-9.596 0.03-5.022-0.1-5.837-1.34-8.476-3.812-8.139-15.541-15.915-37.521-24.878-13.412-5.469-15.445-6.66-23.946-14.03l-5.257-4.558-4.102 4.253c-2.256 2.339-5.564 6.178-7.352 8.532-3.552 4.677-9.093 13.5-9.093 14.478 0 0.724 6.725 3.406 11.235 4.482 1.738 0.414 10.433 1.321 19.322 2.015 17.822 1.392 25.111 2.27 31.567 3.804 9.351 2.222 14.232 4.987 18.304 10.367 2.671 3.529 3.963 7.598 4.293 13.513 0.15 2.726 0.45 4.771 0.67 4.546 0.22-0.226 1.03-2.23 1.79-4.452z"/>
          <path id="path-6" style="opacity:0;stroke-width:4" transform="translate(278 354.36)" d="m93.178 199.59c-1.111-0.11-4.52-0.56-7.576-0.99-39.596-5.64-72.571-35.43-82.276-74.35-4.0224-16.12-3.8672-34.85 0.4165-50.241 4.7836-17.188 13.568-32.263 25.888-44.426 6.008-5.93 9.008-8.397 15.42-12.677 26.251-17.523 59.78-21.405 89.54-10.367 23.87 8.851 43.44 26.544 54.93 49.658 11.78 23.69 13.35 52.673 4.21 77.653-5.15 14.06-12.74 25.97-23.29 36.52-15.08 15.08-33.67 24.6-54.79 28.06-5.62 0.92-18.348 1.58-22.472 1.16zm20.692-6.07c4.73-0.69 11.02-2.09 14.83-3.3 2.06-0.66 1.99-1.17-1.13-7.75-2.57-5.43-4.84-8.5-15.09-20.33-9.65-11.14-13.822-16.34-17.533-21.85-6.003-8.92-7.809-13.91-7.485-20.69 0.275-5.75 2.422-10.47 6.968-15.33 1.736-1.86 3.012-3.37 2.835-3.37-1.034 0-7.474 3.36-9.806 5.13-3.841 2.9-5.401 4.72-7.29 8.5-1.565 3.14-1.638 3.55-1.628 9.09 0.017 9.16 2.405 17.81 9.991 36.17 5.884 14.25 6.508 16.71 7.219 28.48 0.197 3.26 0.596 5.99 0.909 6.21 0.738 0.53 10.88-0.03 17.21-0.96zm-54.161-13.01c2.969-7.02 3.307-9.2 5.199-33.65 1.222-15.78 2.313-22.89 4.616-30.05 1.861-5.8 2.946-7.68 6.425-11.14 4.668-4.64 10.067-6.755 17.461-6.836l3.809-0.042-2.627-1.243c-6.412-3.033-15.238-3.469-20.595-1.016-5.703 2.61-12.182 10.537-17.818 21.787-1.391 2.78-4.578 9.94-7.083 15.92-2.504 5.98-5.073 11.77-5.709 12.88-1.56 2.71-6.967 9.67-10.377 13.36l-2.779 3 1.072 1.45c1.339 1.81 7.283 7.18 11.617 10.49 4.387 3.35 13.659 8.88 14.58 8.7 0.406-0.07 1.4-1.7 2.209-3.61zm109.08-15.6c2.16-2.29 5.44-6.24 7.29-8.77 3.77-5.16 8.87-13.78 8.61-14.57-0.26-0.77-7.8-3.68-11.76-4.54-1.92-0.42-10.76-1.33-19.65-2.03-19.82-1.56-26.79-2.49-34.6-4.65-12.36-3.41-19.093-11.95-19.231-24.38l-0.042-3.81-1.242 2.62c-3.037 6.42-3.49 15.2-1.057 20.51 3.712 8.11 15.982 16.2 38.472 25.36 12.42 5.05 16.94 7.84 25.28 15.57 1.66 1.55 3.25 2.83 3.52 2.84s2.26-1.85 4.41-4.15zm-152.35-37.73c5.873-2.72 8.004-4.29 21.029-15.47 17.167-14.747 24.567-20.096 32.298-23.352 2.824-1.189 3.878-1.352 8.766-1.352 5.341 0 5.703 0.071 9.378 1.826 2.443 1.167 5.041 2.965 7.198 4.983 1.856 1.736 3.374 3.002 3.374 2.813s-0.763-1.977-1.696-3.973c-3.17-6.78-7.614-11.448-12.951-13.603-2.317-0.936-3.7-1.115-8.334-1.08-9.035 0.068-16.363 2.083-35.102 9.657-6.529 2.638-12.893 5.094-14.143 5.457-3.258 0.948-8.49 1.666-15.026 2.062l-5.6818 0.344v6.308c0 8.1 1.6093 18.39 4.1094 26.26 0.6204 1.96 0.6824 1.95 6.7814-0.88zm119.42-7.77c6.68-1.61 13.27-3.91 24.63-8.6 13.92-5.75 16.43-6.37 28.78-7.18l5.18-0.34-0.01-5.868c-0.02-7.727-2.24-21.047-4.53-27.067l-0.49-1.274-2.54 1c-7.5 2.959-10.66 5.159-24.12 16.815-11.14 9.647-16.35 13.824-21.86 17.534-8.91 6-13.9 7.81-20.68 7.48-5.78-0.27-10.47-2.41-15.41-7.03-3.8-3.55-3.94-3.26-1.15 2.33 3.47 6.93 8.97 11.87 14.89 13.37 3.12 0.79 11.5 0.23 17.31-1.17zm-9.96-17.13c8.05-3.707 15.33-14.551 24.43-36.392 6.26-15.032 7.56-17.237 15.54-26.307l3.51-3.989-4.02-3.867c-6.88-6.625-21.24-16.497-23.39-16.073-0.92 0.183-3.38 6.421-4.35 11.025-0.42 2.008-1 6.403-1.28 9.767s-0.95 11.457-1.49 17.985c-1.84 22.463-4.4 32.049-10.15 38.137-4.61 4.869-8.86 6.7-16.87 7.257l-5.06 0.347 2.02 0.91c7.05 3.17 15.76 3.66 21.11 1.2zm-18.07-6.566c5.82-2.912 9.87-6.851 12.31-11.991 1.19-2.501 1.32-3.355 1.31-8.586-0.01-9.158-2.4-17.805-9.99-36.168-5.83-14.107-6.46-16.585-7.22-28.355l-0.33-5.1773h-5.224c-6.618 0-15.005 1.1448-22.376 3.0544-3.166 0.8202-5.837 1.4912-5.935 1.4912-1.03 0 2.546 8.1867 5.477 12.539 0.973 1.444 6.292 7.893 11.82 14.331 14.738 17.167 20.088 24.566 23.348 32.298 1.19 2.823 1.35 3.878 1.35 8.765 0 5.341-0.07 5.704-1.82 9.379-1.18 2.468-2.97 5.044-5.06 7.271-3.55 3.799-3.26 3.943 2.34 1.149zm-5-4.162c1.18-3.415 1.4-4.901 1.43-9.596 0.03-5.022-0.1-5.837-1.34-8.476-3.812-8.139-15.541-15.915-37.521-24.878-13.412-5.469-15.445-6.66-23.946-14.03l-5.257-4.558-4.102 4.253c-2.256 2.339-5.564 6.178-7.352 8.532-3.552 4.677-9.093 13.5-9.093 14.478 0 0.724 6.725 3.406 11.235 4.482 1.738 0.414 10.433 1.321 19.322 2.015 17.822 1.392 25.111 2.27 31.567 3.804 9.351 2.222 14.232 4.987 18.304 10.367 2.671 3.529 3.963 7.598 4.293 13.513 0.15 2.726 0.45 4.771 0.67 4.546 0.22-0.226 1.03-2.23 1.79-4.452z"/>
          <path id="path-7" style="opacity:0;stroke-width:4" transform="translate(278 354.36)" d="m93.178 199.59c-1.111-0.11-4.52-0.56-7.576-0.99-39.596-5.64-72.571-35.43-82.276-74.35-4.0224-16.12-3.8672-34.85 0.4165-50.241 4.7836-17.188 13.568-32.263 25.888-44.426 6.008-5.93 9.008-8.397 15.42-12.677 26.251-17.523 59.78-21.405 89.54-10.367 23.87 8.851 43.44 26.544 54.93 49.658 11.78 23.69 13.35 52.673 4.21 77.653-5.15 14.06-12.74 25.97-23.29 36.52-15.08 15.08-33.67 24.6-54.79 28.06-5.62 0.92-18.348 1.58-22.472 1.16zm20.692-6.07c4.73-0.69 11.02-2.09 14.83-3.3 2.06-0.66 1.99-1.17-1.13-7.75-2.57-5.43-4.84-8.5-15.09-20.33-9.65-11.14-13.822-16.34-17.533-21.85-6.003-8.92-7.809-13.91-7.485-20.69 0.275-5.75 2.422-10.47 6.968-15.33 1.736-1.86 3.012-3.37 2.835-3.37-1.034 0-7.474 3.36-9.806 5.13-3.841 2.9-5.401 4.72-7.29 8.5-1.565 3.14-1.638 3.55-1.628 9.09 0.017 9.16 2.405 17.81 9.991 36.17 5.884 14.25 6.508 16.71 7.219 28.48 0.197 3.26 0.596 5.99 0.909 6.21 0.738 0.53 10.88-0.03 17.21-0.96zm-54.161-13.01c2.969-7.02 3.307-9.2 5.199-33.65 1.222-15.78 2.313-22.89 4.616-30.05 1.861-5.8 2.946-7.68 6.425-11.14 4.668-4.64 10.067-6.755 17.461-6.836l3.809-0.042-2.627-1.243c-6.412-3.033-15.238-3.469-20.595-1.016-5.703 2.61-12.182 10.537-17.818 21.787-1.391 2.78-4.578 9.94-7.083 15.92-2.504 5.98-5.073 11.77-5.709 12.88-1.56 2.71-6.967 9.67-10.377 13.36l-2.779 3 1.072 1.45c1.339 1.81 7.283 7.18 11.617 10.49 4.387 3.35 13.659 8.88 14.58 8.7 0.406-0.07 1.4-1.7 2.209-3.61zm109.08-15.6c2.16-2.29 5.44-6.24 7.29-8.77 3.77-5.16 8.87-13.78 8.61-14.57-0.26-0.77-7.8-3.68-11.76-4.54-1.92-0.42-10.76-1.33-19.65-2.03-19.82-1.56-26.79-2.49-34.6-4.65-12.36-3.41-19.093-11.95-19.231-24.38l-0.042-3.81-1.242 2.62c-3.037 6.42-3.49 15.2-1.057 20.51 3.712 8.11 15.982 16.2 38.472 25.36 12.42 5.05 16.94 7.84 25.28 15.57 1.66 1.55 3.25 2.83 3.52 2.84s2.26-1.85 4.41-4.15zm-152.35-37.73c5.873-2.72 8.004-4.29 21.029-15.47 17.167-14.747 24.567-20.096 32.298-23.352 2.824-1.189 3.878-1.352 8.766-1.352 5.341 0 5.703 0.071 9.378 1.826 2.443 1.167 5.041 2.965 7.198 4.983 1.856 1.736 3.374 3.002 3.374 2.813s-0.763-1.977-1.696-3.973c-3.17-6.78-7.614-11.448-12.951-13.603-2.317-0.936-3.7-1.115-8.334-1.08-9.035 0.068-16.363 2.083-35.102 9.657-6.529 2.638-12.893 5.094-14.143 5.457-3.258 0.948-8.49 1.666-15.026 2.062l-5.6818 0.344v6.308c0 8.1 1.6093 18.39 4.1094 26.26 0.6204 1.96 0.6824 1.95 6.7814-0.88zm119.42-7.77c6.68-1.61 13.27-3.91 24.63-8.6 13.92-5.75 16.43-6.37 28.78-7.18l5.18-0.34-0.01-5.868c-0.02-7.727-2.24-21.047-4.53-27.067l-0.49-1.274-2.54 1c-7.5 2.959-10.66 5.159-24.12 16.815-11.14 9.647-16.35 13.824-21.86 17.534-8.91 6-13.9 7.81-20.68 7.48-5.78-0.27-10.47-2.41-15.41-7.03-3.8-3.55-3.94-3.26-1.15 2.33 3.47 6.93 8.97 11.87 14.89 13.37 3.12 0.79 11.5 0.23 17.31-1.17zm-9.96-17.13c8.05-3.707 15.33-14.551 24.43-36.392 6.26-15.032 7.56-17.237 15.54-26.307l3.51-3.989-4.02-3.867c-6.88-6.625-21.24-16.497-23.39-16.073-0.92 0.183-3.38 6.421-4.35 11.025-0.42 2.008-1 6.403-1.28 9.767s-0.95 11.457-1.49 17.985c-1.84 22.463-4.4 32.049-10.15 38.137-4.61 4.869-8.86 6.7-16.87 7.257l-5.06 0.347 2.02 0.91c7.05 3.17 15.76 3.66 21.11 1.2zm-18.07-6.566c5.82-2.912 9.87-6.851 12.31-11.991 1.19-2.501 1.32-3.355 1.31-8.586-0.01-9.158-2.4-17.805-9.99-36.168-5.83-14.107-6.46-16.585-7.22-28.355l-0.33-5.1773h-5.224c-6.618 0-15.005 1.1448-22.376 3.0544-3.166 0.8202-5.837 1.4912-5.935 1.4912-1.03 0 2.546 8.1867 5.477 12.539 0.973 1.444 6.292 7.893 11.82 14.331 14.738 17.167 20.088 24.566 23.348 32.298 1.19 2.823 1.35 3.878 1.35 8.765 0 5.341-0.07 5.704-1.82 9.379-1.18 2.468-2.97 5.044-5.06 7.271-3.55 3.799-3.26 3.943 2.34 1.149zm-5-4.162c1.18-3.415 1.4-4.901 1.43-9.596 0.03-5.022-0.1-5.837-1.34-8.476-3.812-8.139-15.541-15.915-37.521-24.878-13.412-5.469-15.445-6.66-23.946-14.03l-5.257-4.558-4.102 4.253c-2.256 2.339-5.564 6.178-7.352 8.532-3.552 4.677-9.093 13.5-9.093 14.478 0 0.724 6.725 3.406 11.235 4.482 1.738 0.414 10.433 1.321 19.322 2.015 17.822 1.392 25.111 2.27 31.567 3.804 9.351 2.222 14.232 4.987 18.304 10.367 2.671 3.529 3.963 7.598 4.293 13.513 0.15 2.726 0.45 4.771 0.67 4.546 0.22-0.226 1.03-2.23 1.79-4.452z"/>
          <path id="path-8" style="fill-rule:evenodd;fill:#ff0000" d="m378 453.46s-13.75 8.83-12.33 24.1c1.42 15.25 26.72 39.51 35.33 50.73 5.08 6.62 7.41 13.49 8.51 18.06 12.92-4.43 24.6-11.54 34.42-20.62-4.16-3.98-11.17-10.44-16.67-14.06-8.18-5.39-33.61-11.74-47.78-25.13-13.78-13.02-1.48-33.08-1.48-33.08z" transform="matrix(0.7071100473403931, 0.7071100473403931, -0.7071100473403931, 0.7071100473403931, 431.3599853515625, -134.47000122070312)"/>
          <path id="path-9" style="fill-rule:evenodd;fill:#ff0000" d="m378 453.46s-13.75 8.83-12.33 24.1c1.42 15.25 26.72 39.51 35.33 50.73 5.08 6.62 7.41 13.49 8.51 18.06 12.92-4.43 24.6-11.54 34.42-20.62-4.16-3.98-11.17-10.44-16.67-14.06-8.18-5.39-33.61-11.74-47.78-25.13-13.78-13.02-1.48-33.08-1.48-33.08z" transform="matrix(0, 1, -1, 0, 831.4600219726562, 75.45899963378906)"/>
          <path id="path-10" style="fill-rule:evenodd;fill:#ff0000" d="m378 453.46s-13.75 8.83-12.33 24.1c1.42 15.25 26.72 39.51 35.33 50.73 5.08 6.62 7.41 13.49 8.51 18.06 12.92-4.43 24.6-11.54 34.42-20.62-4.16-3.98-11.17-10.44-16.67-14.06-8.18-5.39-33.61-11.74-47.78-25.13-13.78-13.02-1.48-33.08-1.48-33.08z" transform="matrix(-0.7071100473403931, 0.7071100473403931, -0.7071100473403931, -0.7071100473403931, 965.9299926757812, 506.82000732421875)"/>
          <path id="path-11" style="fill-rule:evenodd;fill:#ff0000" d="m378 453.46s-13.75 8.83-12.33 24.1c1.42 15.25 26.72 39.51 35.33 50.73 5.08 6.62 7.41 13.49 8.51 18.06 12.92-4.43 24.6-11.54 34.42-20.62-4.16-3.98-11.17-10.44-16.67-14.06-8.18-5.39-33.61-11.74-47.78-25.13-13.78-13.02-1.48-33.08-1.48-33.08z" transform="matrix(-1, 0, 0, -1, 756, 906.9199829101562)"/>
          <path id="path-12" style="fill-rule:evenodd;fill:#ff0000" d="m378 453.46s-13.75 8.83-12.33 24.1c1.42 15.25 26.72 39.51 35.33 50.73 5.08 6.62 7.41 13.49 8.51 18.06 12.92-4.43 24.6-11.54 34.42-20.62-4.16-3.98-11.17-10.44-16.67-14.06-8.18-5.39-33.61-11.74-47.78-25.13-13.78-13.02-1.48-33.08-1.48-33.08z" transform="matrix(-0.7071100473403931, -0.7071100473403931, 0.7071100473403931, -0.7071100473403931, 324.6400146484375, 1041.4000244140625)"/>
          <path id="path-13" style="fill-rule:evenodd;fill:#ff0000" d="m378 453.46s-13.75 8.83-12.33 24.1c1.42 15.25 26.72 39.51 35.33 50.73 5.08 6.62 7.41 13.49 8.51 18.06 12.92-4.43 24.6-11.54 34.42-20.62-4.16-3.98-11.17-10.44-16.67-14.06-8.18-5.39-33.61-11.74-47.78-25.13-13.78-13.02-1.48-33.08-1.48-33.08z" transform="matrix(0, -1, 1, 0, -75.45899963378906, 831.4600219726562)"/>
          <path id="path-14" style="fill-rule:evenodd;fill:#ff0000" d="m378 453.46s-13.75 8.83-12.33 24.1c1.42 15.25 26.72 39.51 35.33 50.73 5.08 6.62 7.41 13.49 8.51 18.06 12.92-4.43 24.6-11.54 34.42-20.62-4.16-3.98-11.17-10.44-16.67-14.06-8.18-5.39-33.61-11.74-47.78-25.13-13.78-13.02-1.48-33.08-1.48-33.08z" transform="matrix(0.7071100473403931, -0.7071100473403931, 0.7071100473403931, 0.7071100473403931, -209.92999267578125, 400.1000061035156)"/>
          <path id="path-15" style="fill: url(#gradient-2);" d="m200 100a100 100 0 1 1 -200 0 100 100 0 1 1 200 0z" transform="translate(278 354.36)"/>
        </g>
      </g>
      <g transform="matrix(0.254874, 0, 0, 0.311248, 32.204903, 9.057616)">
        <g id="g-2" transform="translate(-278 -354.36)">
          <path id="path-16" style="fill-rule: evenodd; fill: url(#gradient-3);" d="m378 453.77s-13.75 8.52-12.33 23.79c1.42 15.25 26.72 39.51 35.33 50.73 5.08 6.62 7.41 13.49 8.51 18.06 12.92-4.43 24.6-11.54 34.42-20.62-4.16-3.98-11.17-10.44-16.67-14.06-8.18-5.39-33.61-11.74-47.78-25.13-13.78-13.02-1.48-32.77-1.48-32.77z"/>
          <path id="path-17" style="stroke-linejoin:round;stroke:#ff0000;stroke-width:4;fill:#ffffff" d="m420 482.36a70 70 0 1 1 -140 0 70 70 0 1 1 140 0z" transform="matrix(1.3889 0 0 1.3889 -108.11 -215.59)"/>
          <path id="path-18" style="fill-rule:evenodd;fill:#ff0000" d="m378 453.46s-13.75 8.83-12.33 24.1c1.42 15.25 26.72 39.51 35.33 50.73 5.08 6.62 7.41 13.49 8.51 18.06 12.92-4.43 24.6-11.54 34.42-20.62-4.16-3.98-11.17-10.44-16.67-14.06-8.18-5.39-33.61-11.74-47.78-25.13-13.78-13.02-1.48-33.08-1.48-33.08z"/>
          <path id="path-19" style="opacity:0;stroke-width:4" transform="translate(278 354.36)" d="m93.178 199.59c-1.111-0.11-4.52-0.56-7.576-0.99-39.596-5.64-72.571-35.43-82.276-74.35-4.0224-16.12-3.8672-34.85 0.4165-50.241 4.7836-17.188 13.568-32.263 25.888-44.426 6.008-5.93 9.008-8.397 15.42-12.677 26.251-17.523 59.78-21.405 89.54-10.367 23.87 8.851 43.44 26.544 54.93 49.658 11.78 23.69 13.35 52.673 4.21 77.653-5.15 14.06-12.74 25.97-23.29 36.52-15.08 15.08-33.67 24.6-54.79 28.06-5.62 0.92-18.348 1.58-22.472 1.16zm20.692-6.07c4.73-0.69 11.02-2.09 14.83-3.3 2.06-0.66 1.99-1.17-1.13-7.75-2.57-5.43-4.84-8.5-15.09-20.33-9.65-11.14-13.822-16.34-17.533-21.85-6.003-8.92-7.809-13.91-7.485-20.69 0.275-5.75 2.422-10.47 6.968-15.33 1.736-1.86 3.012-3.37 2.835-3.37-1.034 0-7.474 3.36-9.806 5.13-3.841 2.9-5.401 4.72-7.29 8.5-1.565 3.14-1.638 3.55-1.628 9.09 0.017 9.16 2.405 17.81 9.991 36.17 5.884 14.25 6.508 16.71 7.219 28.48 0.197 3.26 0.596 5.99 0.909 6.21 0.738 0.53 10.88-0.03 17.21-0.96zm-54.161-13.01c2.969-7.02 3.307-9.2 5.199-33.65 1.222-15.78 2.313-22.89 4.616-30.05 1.861-5.8 2.946-7.68 6.425-11.14 4.668-4.64 10.067-6.755 17.461-6.836l3.809-0.042-2.627-1.243c-6.412-3.033-15.238-3.469-20.595-1.016-5.703 2.61-12.182 10.537-17.818 21.787-1.391 2.78-4.578 9.94-7.083 15.92-2.504 5.98-5.073 11.77-5.709 12.88-1.56 2.71-6.967 9.67-10.377 13.36l-2.779 3 1.072 1.45c1.339 1.81 7.283 7.18 11.617 10.49 4.387 3.35 13.659 8.88 14.58 8.7 0.406-0.07 1.4-1.7 2.209-3.61zm109.08-15.6c2.16-2.29 5.44-6.24 7.29-8.77 3.77-5.16 8.87-13.78 8.61-14.57-0.26-0.77-7.8-3.68-11.76-4.54-1.92-0.42-10.76-1.33-19.65-2.03-19.82-1.56-26.79-2.49-34.6-4.65-12.36-3.41-19.093-11.95-19.231-24.38l-0.042-3.81-1.242 2.62c-3.037 6.42-3.49 15.2-1.057 20.51 3.712 8.11 15.982 16.2 38.472 25.36 12.42 5.05 16.94 7.84 25.28 15.57 1.66 1.55 3.25 2.83 3.52 2.84s2.26-1.85 4.41-4.15zm-152.35-37.73c5.873-2.72 8.004-4.29 21.029-15.47 17.167-14.747 24.567-20.096 32.298-23.352 2.824-1.189 3.878-1.352 8.766-1.352 5.341 0 5.703 0.071 9.378 1.826 2.443 1.167 5.041 2.965 7.198 4.983 1.856 1.736 3.374 3.002 3.374 2.813s-0.763-1.977-1.696-3.973c-3.17-6.78-7.614-11.448-12.951-13.603-2.317-0.936-3.7-1.115-8.334-1.08-9.035 0.068-16.363 2.083-35.102 9.657-6.529 2.638-12.893 5.094-14.143 5.457-3.258 0.948-8.49 1.666-15.026 2.062l-5.6818 0.344v6.308c0 8.1 1.6093 18.39 4.1094 26.26 0.6204 1.96 0.6824 1.95 6.7814-0.88zm119.42-7.77c6.68-1.61 13.27-3.91 24.63-8.6 13.92-5.75 16.43-6.37 28.78-7.18l5.18-0.34-0.01-5.868c-0.02-7.727-2.24-21.047-4.53-27.067l-0.49-1.274-2.54 1c-7.5 2.959-10.66 5.159-24.12 16.815-11.14 9.647-16.35 13.824-21.86 17.534-8.91 6-13.9 7.81-20.68 7.48-5.78-0.27-10.47-2.41-15.41-7.03-3.8-3.55-3.94-3.26-1.15 2.33 3.47 6.93 8.97 11.87 14.89 13.37 3.12 0.79 11.5 0.23 17.31-1.17zm-9.96-17.13c8.05-3.707 15.33-14.551 24.43-36.392 6.26-15.032 7.56-17.237 15.54-26.307l3.51-3.989-4.02-3.867c-6.88-6.625-21.24-16.497-23.39-16.073-0.92 0.183-3.38 6.421-4.35 11.025-0.42 2.008-1 6.403-1.28 9.767s-0.95 11.457-1.49 17.985c-1.84 22.463-4.4 32.049-10.15 38.137-4.61 4.869-8.86 6.7-16.87 7.257l-5.06 0.347 2.02 0.91c7.05 3.17 15.76 3.66 21.11 1.2zm-18.07-6.566c5.82-2.912 9.87-6.851 12.31-11.991 1.19-2.501 1.32-3.355 1.31-8.586-0.01-9.158-2.4-17.805-9.99-36.168-5.83-14.107-6.46-16.585-7.22-28.355l-0.33-5.1773h-5.224c-6.618 0-15.005 1.1448-22.376 3.0544-3.166 0.8202-5.837 1.4912-5.935 1.4912-1.03 0 2.546 8.1867 5.477 12.539 0.973 1.444 6.292 7.893 11.82 14.331 14.738 17.167 20.088 24.566 23.348 32.298 1.19 2.823 1.35 3.878 1.35 8.765 0 5.341-0.07 5.704-1.82 9.379-1.18 2.468-2.97 5.044-5.06 7.271-3.55 3.799-3.26 3.943 2.34 1.149zm-5-4.162c1.18-3.415 1.4-4.901 1.43-9.596 0.03-5.022-0.1-5.837-1.34-8.476-3.812-8.139-15.541-15.915-37.521-24.878-13.412-5.469-15.445-6.66-23.946-14.03l-5.257-4.558-4.102 4.253c-2.256 2.339-5.564 6.178-7.352 8.532-3.552 4.677-9.093 13.5-9.093 14.478 0 0.724 6.725 3.406 11.235 4.482 1.738 0.414 10.433 1.321 19.322 2.015 17.822 1.392 25.111 2.27 31.567 3.804 9.351 2.222 14.232 4.987 18.304 10.367 2.671 3.529 3.963 7.598 4.293 13.513 0.15 2.726 0.45 4.771 0.67 4.546 0.22-0.226 1.03-2.23 1.79-4.452z"/>
          <path id="path-20" style="opacity:0;stroke-width:4" transform="translate(278 354.36)" d="m93.178 199.59c-1.111-0.11-4.52-0.56-7.576-0.99-39.596-5.64-72.571-35.43-82.276-74.35-4.0224-16.12-3.8672-34.85 0.4165-50.241 4.7836-17.188 13.568-32.263 25.888-44.426 6.008-5.93 9.008-8.397 15.42-12.677 26.251-17.523 59.78-21.405 89.54-10.367 23.87 8.851 43.44 26.544 54.93 49.658 11.78 23.69 13.35 52.673 4.21 77.653-5.15 14.06-12.74 25.97-23.29 36.52-15.08 15.08-33.67 24.6-54.79 28.06-5.62 0.92-18.348 1.58-22.472 1.16zm20.692-6.07c4.73-0.69 11.02-2.09 14.83-3.3 2.06-0.66 1.99-1.17-1.13-7.75-2.57-5.43-4.84-8.5-15.09-20.33-9.65-11.14-13.822-16.34-17.533-21.85-6.003-8.92-7.809-13.91-7.485-20.69 0.275-5.75 2.422-10.47 6.968-15.33 1.736-1.86 3.012-3.37 2.835-3.37-1.034 0-7.474 3.36-9.806 5.13-3.841 2.9-5.401 4.72-7.29 8.5-1.565 3.14-1.638 3.55-1.628 9.09 0.017 9.16 2.405 17.81 9.991 36.17 5.884 14.25 6.508 16.71 7.219 28.48 0.197 3.26 0.596 5.99 0.909 6.21 0.738 0.53 10.88-0.03 17.21-0.96zm-54.161-13.01c2.969-7.02 3.307-9.2 5.199-33.65 1.222-15.78 2.313-22.89 4.616-30.05 1.861-5.8 2.946-7.68 6.425-11.14 4.668-4.64 10.067-6.755 17.461-6.836l3.809-0.042-2.627-1.243c-6.412-3.033-15.238-3.469-20.595-1.016-5.703 2.61-12.182 10.537-17.818 21.787-1.391 2.78-4.578 9.94-7.083 15.92-2.504 5.98-5.073 11.77-5.709 12.88-1.56 2.71-6.967 9.67-10.377 13.36l-2.779 3 1.072 1.45c1.339 1.81 7.283 7.18 11.617 10.49 4.387 3.35 13.659 8.88 14.58 8.7 0.406-0.07 1.4-1.7 2.209-3.61zm109.08-15.6c2.16-2.29 5.44-6.24 7.29-8.77 3.77-5.16 8.87-13.78 8.61-14.57-0.26-0.77-7.8-3.68-11.76-4.54-1.92-0.42-10.76-1.33-19.65-2.03-19.82-1.56-26.79-2.49-34.6-4.65-12.36-3.41-19.093-11.95-19.231-24.38l-0.042-3.81-1.242 2.62c-3.037 6.42-3.49 15.2-1.057 20.51 3.712 8.11 15.982 16.2 38.472 25.36 12.42 5.05 16.94 7.84 25.28 15.57 1.66 1.55 3.25 2.83 3.52 2.84s2.26-1.85 4.41-4.15zm-152.35-37.73c5.873-2.72 8.004-4.29 21.029-15.47 17.167-14.747 24.567-20.096 32.298-23.352 2.824-1.189 3.878-1.352 8.766-1.352 5.341 0 5.703 0.071 9.378 1.826 2.443 1.167 5.041 2.965 7.198 4.983 1.856 1.736 3.374 3.002 3.374 2.813s-0.763-1.977-1.696-3.973c-3.17-6.78-7.614-11.448-12.951-13.603-2.317-0.936-3.7-1.115-8.334-1.08-9.035 0.068-16.363 2.083-35.102 9.657-6.529 2.638-12.893 5.094-14.143 5.457-3.258 0.948-8.49 1.666-15.026 2.062l-5.6818 0.344v6.308c0 8.1 1.6093 18.39 4.1094 26.26 0.6204 1.96 0.6824 1.95 6.7814-0.88zm119.42-7.77c6.68-1.61 13.27-3.91 24.63-8.6 13.92-5.75 16.43-6.37 28.78-7.18l5.18-0.34-0.01-5.868c-0.02-7.727-2.24-21.047-4.53-27.067l-0.49-1.274-2.54 1c-7.5 2.959-10.66 5.159-24.12 16.815-11.14 9.647-16.35 13.824-21.86 17.534-8.91 6-13.9 7.81-20.68 7.48-5.78-0.27-10.47-2.41-15.41-7.03-3.8-3.55-3.94-3.26-1.15 2.33 3.47 6.93 8.97 11.87 14.89 13.37 3.12 0.79 11.5 0.23 17.31-1.17zm-9.96-17.13c8.05-3.707 15.33-14.551 24.43-36.392 6.26-15.032 7.56-17.237 15.54-26.307l3.51-3.989-4.02-3.867c-6.88-6.625-21.24-16.497-23.39-16.073-0.92 0.183-3.38 6.421-4.35 11.025-0.42 2.008-1 6.403-1.28 9.767s-0.95 11.457-1.49 17.985c-1.84 22.463-4.4 32.049-10.15 38.137-4.61 4.869-8.86 6.7-16.87 7.257l-5.06 0.347 2.02 0.91c7.05 3.17 15.76 3.66 21.11 1.2zm-18.07-6.566c5.82-2.912 9.87-6.851 12.31-11.991 1.19-2.501 1.32-3.355 1.31-8.586-0.01-9.158-2.4-17.805-9.99-36.168-5.83-14.107-6.46-16.585-7.22-28.355l-0.33-5.1773h-5.224c-6.618 0-15.005 1.1448-22.376 3.0544-3.166 0.8202-5.837 1.4912-5.935 1.4912-1.03 0 2.546 8.1867 5.477 12.539 0.973 1.444 6.292 7.893 11.82 14.331 14.738 17.167 20.088 24.566 23.348 32.298 1.19 2.823 1.35 3.878 1.35 8.765 0 5.341-0.07 5.704-1.82 9.379-1.18 2.468-2.97 5.044-5.06 7.271-3.55 3.799-3.26 3.943 2.34 1.149zm-5-4.162c1.18-3.415 1.4-4.901 1.43-9.596 0.03-5.022-0.1-5.837-1.34-8.476-3.812-8.139-15.541-15.915-37.521-24.878-13.412-5.469-15.445-6.66-23.946-14.03l-5.257-4.558-4.102 4.253c-2.256 2.339-5.564 6.178-7.352 8.532-3.552 4.677-9.093 13.5-9.093 14.478 0 0.724 6.725 3.406 11.235 4.482 1.738 0.414 10.433 1.321 19.322 2.015 17.822 1.392 25.111 2.27 31.567 3.804 9.351 2.222 14.232 4.987 18.304 10.367 2.671 3.529 3.963 7.598 4.293 13.513 0.15 2.726 0.45 4.771 0.67 4.546 0.22-0.226 1.03-2.23 1.79-4.452z"/>
          <path id="path-21" style="opacity:0;stroke-width:4" transform="translate(278 354.36)" d="m93.178 199.59c-1.111-0.11-4.52-0.56-7.576-0.99-39.596-5.64-72.571-35.43-82.276-74.35-4.0224-16.12-3.8672-34.85 0.4165-50.241 4.7836-17.188 13.568-32.263 25.888-44.426 6.008-5.93 9.008-8.397 15.42-12.677 26.251-17.523 59.78-21.405 89.54-10.367 23.87 8.851 43.44 26.544 54.93 49.658 11.78 23.69 13.35 52.673 4.21 77.653-5.15 14.06-12.74 25.97-23.29 36.52-15.08 15.08-33.67 24.6-54.79 28.06-5.62 0.92-18.348 1.58-22.472 1.16zm20.692-6.07c4.73-0.69 11.02-2.09 14.83-3.3 2.06-0.66 1.99-1.17-1.13-7.75-2.57-5.43-4.84-8.5-15.09-20.33-9.65-11.14-13.822-16.34-17.533-21.85-6.003-8.92-7.809-13.91-7.485-20.69 0.275-5.75 2.422-10.47 6.968-15.33 1.736-1.86 3.012-3.37 2.835-3.37-1.034 0-7.474 3.36-9.806 5.13-3.841 2.9-5.401 4.72-7.29 8.5-1.565 3.14-1.638 3.55-1.628 9.09 0.017 9.16 2.405 17.81 9.991 36.17 5.884 14.25 6.508 16.71 7.219 28.48 0.197 3.26 0.596 5.99 0.909 6.21 0.738 0.53 10.88-0.03 17.21-0.96zm-54.161-13.01c2.969-7.02 3.307-9.2 5.199-33.65 1.222-15.78 2.313-22.89 4.616-30.05 1.861-5.8 2.946-7.68 6.425-11.14 4.668-4.64 10.067-6.755 17.461-6.836l3.809-0.042-2.627-1.243c-6.412-3.033-15.238-3.469-20.595-1.016-5.703 2.61-12.182 10.537-17.818 21.787-1.391 2.78-4.578 9.94-7.083 15.92-2.504 5.98-5.073 11.77-5.709 12.88-1.56 2.71-6.967 9.67-10.377 13.36l-2.779 3 1.072 1.45c1.339 1.81 7.283 7.18 11.617 10.49 4.387 3.35 13.659 8.88 14.58 8.7 0.406-0.07 1.4-1.7 2.209-3.61zm109.08-15.6c2.16-2.29 5.44-6.24 7.29-8.77 3.77-5.16 8.87-13.78 8.61-14.57-0.26-0.77-7.8-3.68-11.76-4.54-1.92-0.42-10.76-1.33-19.65-2.03-19.82-1.56-26.79-2.49-34.6-4.65-12.36-3.41-19.093-11.95-19.231-24.38l-0.042-3.81-1.242 2.62c-3.037 6.42-3.49 15.2-1.057 20.51 3.712 8.11 15.982 16.2 38.472 25.36 12.42 5.05 16.94 7.84 25.28 15.57 1.66 1.55 3.25 2.83 3.52 2.84s2.26-1.85 4.41-4.15zm-152.35-37.73c5.873-2.72 8.004-4.29 21.029-15.47 17.167-14.747 24.567-20.096 32.298-23.352 2.824-1.189 3.878-1.352 8.766-1.352 5.341 0 5.703 0.071 9.378 1.826 2.443 1.167 5.041 2.965 7.198 4.983 1.856 1.736 3.374 3.002 3.374 2.813s-0.763-1.977-1.696-3.973c-3.17-6.78-7.614-11.448-12.951-13.603-2.317-0.936-3.7-1.115-8.334-1.08-9.035 0.068-16.363 2.083-35.102 9.657-6.529 2.638-12.893 5.094-14.143 5.457-3.258 0.948-8.49 1.666-15.026 2.062l-5.6818 0.344v6.308c0 8.1 1.6093 18.39 4.1094 26.26 0.6204 1.96 0.6824 1.95 6.7814-0.88zm119.42-7.77c6.68-1.61 13.27-3.91 24.63-8.6 13.92-5.75 16.43-6.37 28.78-7.18l5.18-0.34-0.01-5.868c-0.02-7.727-2.24-21.047-4.53-27.067l-0.49-1.274-2.54 1c-7.5 2.959-10.66 5.159-24.12 16.815-11.14 9.647-16.35 13.824-21.86 17.534-8.91 6-13.9 7.81-20.68 7.48-5.78-0.27-10.47-2.41-15.41-7.03-3.8-3.55-3.94-3.26-1.15 2.33 3.47 6.93 8.97 11.87 14.89 13.37 3.12 0.79 11.5 0.23 17.31-1.17zm-9.96-17.13c8.05-3.707 15.33-14.551 24.43-36.392 6.26-15.032 7.56-17.237 15.54-26.307l3.51-3.989-4.02-3.867c-6.88-6.625-21.24-16.497-23.39-16.073-0.92 0.183-3.38 6.421-4.35 11.025-0.42 2.008-1 6.403-1.28 9.767s-0.95 11.457-1.49 17.985c-1.84 22.463-4.4 32.049-10.15 38.137-4.61 4.869-8.86 6.7-16.87 7.257l-5.06 0.347 2.02 0.91c7.05 3.17 15.76 3.66 21.11 1.2zm-18.07-6.566c5.82-2.912 9.87-6.851 12.31-11.991 1.19-2.501 1.32-3.355 1.31-8.586-0.01-9.158-2.4-17.805-9.99-36.168-5.83-14.107-6.46-16.585-7.22-28.355l-0.33-5.1773h-5.224c-6.618 0-15.005 1.1448-22.376 3.0544-3.166 0.8202-5.837 1.4912-5.935 1.4912-1.03 0 2.546 8.1867 5.477 12.539 0.973 1.444 6.292 7.893 11.82 14.331 14.738 17.167 20.088 24.566 23.348 32.298 1.19 2.823 1.35 3.878 1.35 8.765 0 5.341-0.07 5.704-1.82 9.379-1.18 2.468-2.97 5.044-5.06 7.271-3.55 3.799-3.26 3.943 2.34 1.149zm-5-4.162c1.18-3.415 1.4-4.901 1.43-9.596 0.03-5.022-0.1-5.837-1.34-8.476-3.812-8.139-15.541-15.915-37.521-24.878-13.412-5.469-15.445-6.66-23.946-14.03l-5.257-4.558-4.102 4.253c-2.256 2.339-5.564 6.178-7.352 8.532-3.552 4.677-9.093 13.5-9.093 14.478 0 0.724 6.725 3.406 11.235 4.482 1.738 0.414 10.433 1.321 19.322 2.015 17.822 1.392 25.111 2.27 31.567 3.804 9.351 2.222 14.232 4.987 18.304 10.367 2.671 3.529 3.963 7.598 4.293 13.513 0.15 2.726 0.45 4.771 0.67 4.546 0.22-0.226 1.03-2.23 1.79-4.452z"/>
          <path id="path-22" style="opacity:0;stroke-width:4" transform="translate(278 354.36)" d="m93.178 199.59c-1.111-0.11-4.52-0.56-7.576-0.99-39.596-5.64-72.571-35.43-82.276-74.35-4.0224-16.12-3.8672-34.85 0.4165-50.241 4.7836-17.188 13.568-32.263 25.888-44.426 6.008-5.93 9.008-8.397 15.42-12.677 26.251-17.523 59.78-21.405 89.54-10.367 23.87 8.851 43.44 26.544 54.93 49.658 11.78 23.69 13.35 52.673 4.21 77.653-5.15 14.06-12.74 25.97-23.29 36.52-15.08 15.08-33.67 24.6-54.79 28.06-5.62 0.92-18.348 1.58-22.472 1.16zm20.692-6.07c4.73-0.69 11.02-2.09 14.83-3.3 2.06-0.66 1.99-1.17-1.13-7.75-2.57-5.43-4.84-8.5-15.09-20.33-9.65-11.14-13.822-16.34-17.533-21.85-6.003-8.92-7.809-13.91-7.485-20.69 0.275-5.75 2.422-10.47 6.968-15.33 1.736-1.86 3.012-3.37 2.835-3.37-1.034 0-7.474 3.36-9.806 5.13-3.841 2.9-5.401 4.72-7.29 8.5-1.565 3.14-1.638 3.55-1.628 9.09 0.017 9.16 2.405 17.81 9.991 36.17 5.884 14.25 6.508 16.71 7.219 28.48 0.197 3.26 0.596 5.99 0.909 6.21 0.738 0.53 10.88-0.03 17.21-0.96zm-54.161-13.01c2.969-7.02 3.307-9.2 5.199-33.65 1.222-15.78 2.313-22.89 4.616-30.05 1.861-5.8 2.946-7.68 6.425-11.14 4.668-4.64 10.067-6.755 17.461-6.836l3.809-0.042-2.627-1.243c-6.412-3.033-15.238-3.469-20.595-1.016-5.703 2.61-12.182 10.537-17.818 21.787-1.391 2.78-4.578 9.94-7.083 15.92-2.504 5.98-5.073 11.77-5.709 12.88-1.56 2.71-6.967 9.67-10.377 13.36l-2.779 3 1.072 1.45c1.339 1.81 7.283 7.18 11.617 10.49 4.387 3.35 13.659 8.88 14.58 8.7 0.406-0.07 1.4-1.7 2.209-3.61zm109.08-15.6c2.16-2.29 5.44-6.24 7.29-8.77 3.77-5.16 8.87-13.78 8.61-14.57-0.26-0.77-7.8-3.68-11.76-4.54-1.92-0.42-10.76-1.33-19.65-2.03-19.82-1.56-26.79-2.49-34.6-4.65-12.36-3.41-19.093-11.95-19.231-24.38l-0.042-3.81-1.242 2.62c-3.037 6.42-3.49 15.2-1.057 20.51 3.712 8.11 15.982 16.2 38.472 25.36 12.42 5.05 16.94 7.84 25.28 15.57 1.66 1.55 3.25 2.83 3.52 2.84s2.26-1.85 4.41-4.15zm-152.35-37.73c5.873-2.72 8.004-4.29 21.029-15.47 17.167-14.747 24.567-20.096 32.298-23.352 2.824-1.189 3.878-1.352 8.766-1.352 5.341 0 5.703 0.071 9.378 1.826 2.443 1.167 5.041 2.965 7.198 4.983 1.856 1.736 3.374 3.002 3.374 2.813s-0.763-1.977-1.696-3.973c-3.17-6.78-7.614-11.448-12.951-13.603-2.317-0.936-3.7-1.115-8.334-1.08-9.035 0.068-16.363 2.083-35.102 9.657-6.529 2.638-12.893 5.094-14.143 5.457-3.258 0.948-8.49 1.666-15.026 2.062l-5.6818 0.344v6.308c0 8.1 1.6093 18.39 4.1094 26.26 0.6204 1.96 0.6824 1.95 6.7814-0.88zm119.42-7.77c6.68-1.61 13.27-3.91 24.63-8.6 13.92-5.75 16.43-6.37 28.78-7.18l5.18-0.34-0.01-5.868c-0.02-7.727-2.24-21.047-4.53-27.067l-0.49-1.274-2.54 1c-7.5 2.959-10.66 5.159-24.12 16.815-11.14 9.647-16.35 13.824-21.86 17.534-8.91 6-13.9 7.81-20.68 7.48-5.78-0.27-10.47-2.41-15.41-7.03-3.8-3.55-3.94-3.26-1.15 2.33 3.47 6.93 8.97 11.87 14.89 13.37 3.12 0.79 11.5 0.23 17.31-1.17zm-9.96-17.13c8.05-3.707 15.33-14.551 24.43-36.392 6.26-15.032 7.56-17.237 15.54-26.307l3.51-3.989-4.02-3.867c-6.88-6.625-21.24-16.497-23.39-16.073-0.92 0.183-3.38 6.421-4.35 11.025-0.42 2.008-1 6.403-1.28 9.767s-0.95 11.457-1.49 17.985c-1.84 22.463-4.4 32.049-10.15 38.137-4.61 4.869-8.86 6.7-16.87 7.257l-5.06 0.347 2.02 0.91c7.05 3.17 15.76 3.66 21.11 1.2zm-18.07-6.566c5.82-2.912 9.87-6.851 12.31-11.991 1.19-2.501 1.32-3.355 1.31-8.586-0.01-9.158-2.4-17.805-9.99-36.168-5.83-14.107-6.46-16.585-7.22-28.355l-0.33-5.1773h-5.224c-6.618 0-15.005 1.1448-22.376 3.0544-3.166 0.8202-5.837 1.4912-5.935 1.4912-1.03 0 2.546 8.1867 5.477 12.539 0.973 1.444 6.292 7.893 11.82 14.331 14.738 17.167 20.088 24.566 23.348 32.298 1.19 2.823 1.35 3.878 1.35 8.765 0 5.341-0.07 5.704-1.82 9.379-1.18 2.468-2.97 5.044-5.06 7.271-3.55 3.799-3.26 3.943 2.34 1.149zm-5-4.162c1.18-3.415 1.4-4.901 1.43-9.596 0.03-5.022-0.1-5.837-1.34-8.476-3.812-8.139-15.541-15.915-37.521-24.878-13.412-5.469-15.445-6.66-23.946-14.03l-5.257-4.558-4.102 4.253c-2.256 2.339-5.564 6.178-7.352 8.532-3.552 4.677-9.093 13.5-9.093 14.478 0 0.724 6.725 3.406 11.235 4.482 1.738 0.414 10.433 1.321 19.322 2.015 17.822 1.392 25.111 2.27 31.567 3.804 9.351 2.222 14.232 4.987 18.304 10.367 2.671 3.529 3.963 7.598 4.293 13.513 0.15 2.726 0.45 4.771 0.67 4.546 0.22-0.226 1.03-2.23 1.79-4.452z"/>
          <path id="path-23" style="fill-rule:evenodd;fill:#ff0000" d="m378 453.46s-13.75 8.83-12.33 24.1c1.42 15.25 26.72 39.51 35.33 50.73 5.08 6.62 7.41 13.49 8.51 18.06 12.92-4.43 24.6-11.54 34.42-20.62-4.16-3.98-11.17-10.44-16.67-14.06-8.18-5.39-33.61-11.74-47.78-25.13-13.78-13.02-1.48-33.08-1.48-33.08z" transform="matrix(0.7071100473403931, 0.7071100473403931, -0.7071100473403931, 0.7071100473403931, 431.3599853515625, -134.47000122070312)"/>
          <path id="path-24" style="fill-rule:evenodd;fill:#ff0000" d="m378 453.46s-13.75 8.83-12.33 24.1c1.42 15.25 26.72 39.51 35.33 50.73 5.08 6.62 7.41 13.49 8.51 18.06 12.92-4.43 24.6-11.54 34.42-20.62-4.16-3.98-11.17-10.44-16.67-14.06-8.18-5.39-33.61-11.74-47.78-25.13-13.78-13.02-1.48-33.08-1.48-33.08z" transform="matrix(0, 1, -1, 0, 831.4600219726562, 75.45899963378906)"/>
          <path id="path-25" style="fill-rule:evenodd;fill:#ff0000" d="m378 453.46s-13.75 8.83-12.33 24.1c1.42 15.25 26.72 39.51 35.33 50.73 5.08 6.62 7.41 13.49 8.51 18.06 12.92-4.43 24.6-11.54 34.42-20.62-4.16-3.98-11.17-10.44-16.67-14.06-8.18-5.39-33.61-11.74-47.78-25.13-13.78-13.02-1.48-33.08-1.48-33.08z" transform="matrix(-0.7071100473403931, 0.7071100473403931, -0.7071100473403931, -0.7071100473403931, 965.9299926757812, 506.82000732421875)"/>
          <path id="path-26" style="fill-rule:evenodd;fill:#ff0000" d="m378 453.46s-13.75 8.83-12.33 24.1c1.42 15.25 26.72 39.51 35.33 50.73 5.08 6.62 7.41 13.49 8.51 18.06 12.92-4.43 24.6-11.54 34.42-20.62-4.16-3.98-11.17-10.44-16.67-14.06-8.18-5.39-33.61-11.74-47.78-25.13-13.78-13.02-1.48-33.08-1.48-33.08z" transform="matrix(-1, 0, 0, -1, 756, 906.9199829101562)"/>
          <path id="path-27" style="fill-rule:evenodd;fill:#ff0000" d="m378 453.46s-13.75 8.83-12.33 24.1c1.42 15.25 26.72 39.51 35.33 50.73 5.08 6.62 7.41 13.49 8.51 18.06 12.92-4.43 24.6-11.54 34.42-20.62-4.16-3.98-11.17-10.44-16.67-14.06-8.18-5.39-33.61-11.74-47.78-25.13-13.78-13.02-1.48-33.08-1.48-33.08z" transform="matrix(-0.7071100473403931, -0.7071100473403931, 0.7071100473403931, -0.7071100473403931, 324.6400146484375, 1041.4000244140625)"/>
          <path id="path-28" style="fill-rule:evenodd;fill:#ff0000" d="m378 453.46s-13.75 8.83-12.33 24.1c1.42 15.25 26.72 39.51 35.33 50.73 5.08 6.62 7.41 13.49 8.51 18.06 12.92-4.43 24.6-11.54 34.42-20.62-4.16-3.98-11.17-10.44-16.67-14.06-8.18-5.39-33.61-11.74-47.78-25.13-13.78-13.02-1.48-33.08-1.48-33.08z" transform="matrix(0, -1, 1, 0, -75.45899963378906, 831.4600219726562)"/>
          <path id="path-29" style="fill-rule:evenodd;fill:#ff0000" d="m378 453.46s-13.75 8.83-12.33 24.1c1.42 15.25 26.72 39.51 35.33 50.73 5.08 6.62 7.41 13.49 8.51 18.06 12.92-4.43 24.6-11.54 34.42-20.62-4.16-3.98-11.17-10.44-16.67-14.06-8.18-5.39-33.61-11.74-47.78-25.13-13.78-13.02-1.48-33.08-1.48-33.08z" transform="matrix(0.7071100473403931, -0.7071100473403931, 0.7071100473403931, 0.7071100473403931, -209.92999267578125, 400.1000061035156)"/>
          <path id="path-30" style="fill: url(#gradient-4);" d="m200 100a100 100 0 1 1 -200 0 100 100 0 1 1 200 0z" transform="translate(278 354.36)"/>
        </g>
      </g>
    </pattern>
    <pattern id="pattern-0-1" patternTransform="matrix(1, 0, 0, 1, 237.175995, 743.418945)" xlink:href="#pattern-0"/>
    <pattern id="pattern-0-2" patternTransform="matrix(1, 0, 0, 1, 76.789497, 179.110504)" xlink:href="#pattern-0"/>
    <pattern id="pattern-1" patternTransform="matrix(1.016971, 0.000001, -0.000003, 0.812276, 60.750443, 122.976738)" xlink:href="#pattern-2"/>
    <pattern id="pattern-2" x="0" y="0" width="20" height="20" patternUnits="userSpaceOnUse" viewBox="0 0 100 100">
      <path d="M 0 0 L 50 0 L 50 100 L 0 100 Z" style="fill: black;"/>
    </pattern>
    <pattern id="pattern-3" patternTransform="matrix(1.016974, -0.000006, 0.000002, 0.812274, 402.244476, 622.659668)" xlink:href="#pattern-2"/>
    <pattern id="pattern-4" patternTransform="matrix(1.016972, -0.000001, 0, 0.812275, 78.092819, 145.487732)" xlink:href="#pattern-2"/>
    <pattern id="pattern-6" patternTransform="matrix(1.002048, 0, 0.205215, 0.692374, 206.829254, 717.353027)" xlink:href="#pattern-2"/>
    <pattern id="pattern-0-5" patternTransform="matrix(1, 0, 0, 1, 59.736504, 151.398499)" xlink:href="#pattern-0"/>
    <pattern id="pattern-0-6" patternTransform="matrix(1, 0, 0, 1, 69.786003, 124.295502)" xlink:href="#pattern-0"/>
    <pattern id="pattern-0-7" patternTransform="matrix(1, 0, 0, 1, 267.018982, 664.242004)" xlink:href="#pattern-0"/>
    <pattern id="pattern-0-8" patternTransform="matrix(1, 0, 0, 1, 402.413513, 550.033997)" xlink:href="#pattern-0"/>
    <pattern id="pattern-0-0" patternTransform="matrix(1, 0, 0, 1, 341.117523, 254.936981)" xlink:href="#pattern-0"/>
    <pattern id="pattern-0-3" patternTransform="matrix(1, 0, 0, 1, -10, -10)" xlink:href="#pattern-0"/>
    <pattern id="pattern-0-4" patternTransform="matrix(1, 0, 0, 1, -10, -10)" xlink:href="#pattern-0"/>
    <pattern id="pattern-0-9" patternTransform="matrix(1, 0, 0, 1, -10, -10)" xlink:href="#pattern-0"/>
    <pattern id="pattern-0-10" patternTransform="matrix(1, 0, 0, 1, 59.736504, 151.398499)" xlink:href="#pattern-0"/>
    <pattern id="pattern-0-11" patternTransform="matrix(1, 0, 0, 1, 237.175995, 743.418945)" xlink:href="#pattern-0"/>
    <pattern id="pattern-0-12" patternTransform="matrix(1, 0, 0, 1, 76.789497, 179.110504)" xlink:href="#pattern-0"/>
    <pattern id="pattern-0-13" patternTransform="matrix(1, 0, 0, 1, 69.786003, 124.295502)" xlink:href="#pattern-0"/>
    <pattern id="pattern-0-14" patternTransform="matrix(1, 0, 0, 1, 267.018982, 664.242004)" xlink:href="#pattern-0"/>
    <pattern id="pattern-0-15" patternTransform="matrix(1, 0, 0, 1, 60.919502, 121.100006)" xlink:href="#pattern-0"/>
    <pattern id="pattern-0-16" patternTransform="matrix(1, 0, 0, 1, 402.411987, 620.783508)" xlink:href="#pattern-0"/>
    <pattern id="pattern-0-17" patternTransform="matrix(1, 0, 0, 1, 78.261993, 143.610001)" xlink:href="#pattern-0"/>
    <pattern id="pattern-0-18" patternTransform="matrix(1, 0, 0, 1, 402.413513, 550.033997)" xlink:href="#pattern-0"/>
    <pattern id="pattern-0-19" patternTransform="matrix(1, 0, 0, 1, 210.298004, 713.093994)" xlink:href="#pattern-0"/>
    <linearGradient id="linearGradient3305" y2="500.37" gradientUnits="userSpaceOnUse" x2="444.54" y1="500.37" x1="364.96">
      <stop id="stop3301" style="stop-color:#ff0000" offset="0"/>
      <stop id="stop3339" style="stop-color:#f30000" offset="0.8889"/>
      <stop id="stop3303" style="stop-color:#e70000" offset="1"/>
    </linearGradient>
    <radialGradient id="radialGradient3363" gradientUnits="userSpaceOnUse" cy="100" cx="100" r="100">
      <stop id="stop3359" style="stop-color:#ffffff;stop-opacity:0" offset="0"/>
      <stop id="stop3365" style="stop-color:#ffffff;stop-opacity:0" offset="0.8056"/>
      <stop id="stop3361" style="stop-color:#b00000;stop-opacity:.73451" offset="1"/>
    </radialGradient>
    <linearGradient id="gradient-1" y2="500.37" gradientUnits="userSpaceOnUse" x2="444.54" y1="500.37" x1="364.96">
      <stop id="stop-1" style="stop-color:#ff0000" offset="0"/>
      <stop id="stop-2" style="stop-color:#f30000" offset="0.8889"/>
      <stop id="stop-3" style="stop-color:#e70000" offset="1"/>
    </linearGradient>
    <radialGradient id="gradient-2" gradientUnits="userSpaceOnUse" cy="100" cx="100" r="100">
      <stop id="stop-4" style="stop-color:#ffffff;stop-opacity:0" offset="0"/>
      <stop id="stop-5" style="stop-color:#ffffff;stop-opacity:0" offset="0.8056"/>
      <stop id="stop-6" style="stop-color:#b00000;stop-opacity:.73451" offset="1"/>
    </radialGradient>
    <linearGradient id="gradient-3" y2="500.37" gradientUnits="userSpaceOnUse" x2="444.54" y1="500.37" x1="364.96">
      <stop id="stop-7" style="stop-color:#ff0000" offset="0"/>
      <stop id="stop-8" style="stop-color:#f30000" offset="0.8889"/>
      <stop id="stop-9" style="stop-color:#e70000" offset="1"/>
    </linearGradient>
    <radialGradient id="gradient-4" gradientUnits="userSpaceOnUse" cy="100" cx="100" r="100">
      <stop id="stop-10" style="stop-color:#ffffff;stop-opacity:0" offset="0"/>
      <stop id="stop-11" style="stop-color:#ffffff;stop-opacity:0" offset="0.8056"/>
      <stop id="stop-12" style="stop-color:#b00000;stop-opacity:.73451" offset="1"/>
    </radialGradient>
  </defs>
  <rect transform="matrix(1.000011, 0, 0, 1, 167.386105, 532.028564)" x="348.377" y="263.11" width="5.481" height="3.654" style="fill: url(#pattern-0-0);"/>
  <rect transform="matrix(NaN, NaN, NaN, NaN, NaN, NaN)" style="fill: url(#pattern-0-3);"/>
  <rect transform="matrix(NaN, NaN, NaN, NaN, NaN, NaN)" style="fill: url(#pattern-0-4);"/>
  <rect transform="matrix(NaN, NaN, NaN, NaN, NaN, NaN)" style="fill: url(#pattern-0-9);"/>
  <rect style="stroke: url(#pattern-0-5); fill: url(#pattern-0-10);" transform="matrix(1, 0, 0, 0.999998, 167.390031, 532.028853)" x="60.296" y="152.872" width="18.881" height="17.053"/>
  <rect style="stroke: url(#pattern-0-1); fill: url(#pattern-0-11);" x="224.032" y="736.061" width="46.288" height="34.716"/>
  <rect style="stroke: url(#pattern-0-2); fill: url(#pattern-0-12);" transform="matrix(1, 0, 0, 1.000002, 167.389994, 532.028244)" x="73.086" y="179.67" width="27.407" height="18.881"/>
  <rect style="stroke-opacity: 0; stroke: url(#pattern-0-6); fill: url(#pattern-0-13);" transform="matrix(0.999999, 0, 0, 1, 167.39005, 532.028564)" x="65.778" y="124.246" width="28.016" height="20.099"/>
  <polygon style="stroke-opacity: 0; stroke: url(#pattern-0-7); fill: url(#pattern-0-14);" points="273.974 661.756 287.373 669.674 285.546 686.728 266.665 682.464"/>
  <rect style="stroke: url(#pattern-1); fill: url(#pattern-0-15);" transform="matrix(0.908734, 0.417376, 0.220662, 1.201778, 138.058651, 518.384652)" x="61.319" y="124.174" width="19.201" height="13.852"/>
  <rect style="stroke: url(#pattern-3); fill: url(#pattern-0-16);" x="388.875" y="616.684" width="47.074" height="28.199" transform="matrix(0.908732, 0.417379, 0.22066, 1.201782, -262.487429, -161.829953)"/>
  <rect style="stroke: url(#pattern-4); fill: url(#pattern-0-17);" transform="matrix(0.908733, 0.417376, 0.220661, 1.201781, 138.058602, 518.38301)" x="74.326" y="145.942" width="27.872" height="15.336"/>
  <rect style="stroke-opacity: 0; stroke: url(#pattern-0-8); fill: url(#pattern-0-18);" x="398.168" y="551.871" width="28.491" height="16.326" transform="matrix(0.908732, 0.417381, 0.220659, 1.201779, -262.485897, -161.824931)"/>
  <polygon style="stroke-opacity: 0; stroke: url(#pattern-6); fill: url(#pattern-0-19);" points="213.475 714.449 228.527 719.93 230.195 731.739 210.401 728.786" transform="matrix(0.992845, -0.11941, 0.11941, 0.992845, -84.768409, 31.479493)"/>
  <g transform="matrix(0.453835, 0, 0, 0.479498, 238.555954, 677.867859)">
    <path id="path864" style="stroke-linejoin: round; fill-rule: evenodd; fill: rgb(255, 255, 255); stroke: rgb(0, 0, 0); stroke-width: 2.14286;" d="m24.469 0.67304c-4.153 0.2642-7.983 1.6259-11.187 3.8126-6.409 4.3732-10.488 11.426-12.657 18.906 1.275 4.197 5.627 5.894 9.594 2.781 1.68-5.793 4.905-10.856 8.688-13.437 3.743-2.555 7.895-3.347 14.218-0.407 1.114 0.632 1.716 1.426 2.188 3.407 0.484 2.03 0.5 5.141-0.094 8.875-1.188 7.468-4.682 17.25-8.906 26.781-8.447 19.062-20.04 37.92-20.25 38.25-0.265 4.677 4.471 7.238 8.438 5.375 1.136-1.786 12.154-19.673 20.968-39.562 4.407-9.945 8.183-20.187 9.625-29.25 0.721-4.532 0.886-8.801-0.062-12.782-0.949-3.9804-3.344-7.8342-7.188-9.9376l-0.125-0.0626-0.125-0.0624c-4.495-2.1314-8.971-2.9517-13.125-2.6876z"/>
    <path id="path866" style="fill: none; stroke: rgb(0, 0, 0); stroke-width: 2.14286;" d="m0.996 23.446c2.501-3.655 8.849-1.539 9.426 2.309"/>
    <path id="path867" style="fill-rule: evenodd; fill: rgb(255, 0, 102); stroke: rgb(0, 0, 0); stroke-width: 2.14286;" d="m5.805 89.456c6.156-2.5 9.426 2.116 8.849 4.809 0.385 2.501 8.849-15.004 8.849-15.004-3.078-0.385-9.234-0.577-12.889 2.501-2.308 2.5-4.809 7.694-4.809 7.694z"/>
    <path id="path868" style="fill-rule: evenodd; fill: rgb(255, 0, 102); stroke: rgb(0, 0, 0); stroke-width: 2.14286;" d="m16.77 69.835c4.617-2.501 10.965-2.886 13.273-2.501 0.192 0.577 5.771-12.311 5.771-12.311-3.911-0.193-7.823-0.77-11.734 1.731l-7.31 13.081z"/>
    <path id="path870" style="fill-rule: evenodd; fill: rgb(255, 0, 102); stroke: rgb(0, 0, 0); stroke-width: 2.14286;" d="m29.081 44.827c3.783-2.116 7.951-1.731 11.927-2.308l3.27-11.734c-3.526-0.385-7.438 0-11.157 2.308l-4.04 11.734z"/>
    <path id="path871" style="fill-rule: evenodd; fill: rgb(255, 0, 102); stroke: rgb(0, 0, 0); stroke-width: 2.14286;" d="m35.622 21.743c3.013-4.552 6.027-7.951 9.041-8.464-1.218-4.2318-3.976-8.6562-9.426-10.965-2.95 2.437-4.553 5.8355-4.232 9.042 4.232 2.308 5.194 6.348 4.617 10.387z"/>
    <path id="path873" style="fill-rule: evenodd; fill: rgb(255, 0, 102); stroke: rgb(0, 0, 0); stroke-width: 2.14286;" d="m23.695 10.394c-3.591-1.7317-7.759-4.0401-9.234-6.9256-4.745 3.2061-6.796 6.2194-10.195 10.195 2.886 2.565 7.118 2.629 10.003 3.655 2.95-4.04 3.976-5.002 9.426-6.925z"/>
    <path id="path875" style="fill-rule: evenodd; fill: rgb(255, 255, 255); fill-opacity: 0.5; stroke: rgb(0, 0, 0); stroke-width: 2.14286;" d="m7.344 86.763c10.388-12.504 31.548-61.557 28.278-69.059 0-2.116 0.384-2.116 2.116-1.924 3.847 12.504-25.2 70.406-26.739 71.176-1.539 0.769-3.655-0.193-3.655-0.193z"/>
    <path id="path876" style="fill-rule: evenodd; fill: rgb(255, 255, 255); fill-opacity: 0.5; stroke: rgb(0, 0, 0); stroke-width: 2.14286;" d="m2.727 20.012c0.192-7.887 12.696-18.275 20.199-18.275 2.5 0.0003 0.577 0.5774 0.577 0.5774-11.542 2.8855-18.083 12.889-18.66 17.313 0.193 0.77-2.116 0.385-2.116 0.385z"/>
  </g>
</svg>