<svg class="shirtOverlay" width="86" height="380" viewBox="202.715 584.407 86.593 380.048" xmlns="http://www.w3.org/2000/svg" xmlns:xlink="http://www.w3.org/1999/xlink"><defs><pattern id="a" width="20" height="20" patternUnits="userSpaceOnUse" viewBox="0 0 100 100"><path d="M0 0h50v100H0z" fill="#783434"/></pattern><pattern id="i" patternTransform="translate(237.176 743.419)" xlink:href="#a"/><pattern id="k" patternTransform="translate(76.79 179.11)" xlink:href="#a"/><pattern id="q" patternTransform="matrix(1.01697 0 0 .81228 60.75 122.977)" xlink:href="#b"/><pattern id="b" width="20" height="20" patternUnits="userSpaceOnUse" viewBox="0 0 100 100"><path d="M0 0h50v100H0z"/></pattern><pattern id="s" patternTransform="matrix(1.01697 0 0 .81227 402.244 622.66)" xlink:href="#b"/><pattern id="u" patternTransform="matrix(1.01697 0 0 .81227 78.093 145.488)" xlink:href="#b"/><pattern id="y" patternTransform="matrix(1.00205 0 .20522 .69237 206.83 717.353)" xlink:href="#b"/><pattern id="g" patternTransform="translate(59.737 151.398)" xlink:href="#a"/><pattern id="m" patternTransform="translate(69.786 124.296)" xlink:href="#a"/><pattern id="o" patternTransform="translate(267.019 664.242)" xlink:href="#a"/><pattern id="w" patternTransform="translate(402.414 550.034)" xlink:href="#a"/><linearGradient id="c" gradientUnits="userSpaceOnUse" x1="351.118" y1="263.11" x2="351.118" y2="266.764"><stop offset="0" stop-color="#fff"/><stop offset="1" stop-color="#ccc"/></linearGradient><linearGradient id="d" gradientUnits="userSpaceOnUse" x2="0"><stop offset="0" stop-color="#fff"/><stop offset="1" stop-color="#ccc"/></linearGradient><linearGradient id="e" gradientUnits="userSpaceOnUse" x2="0"><stop offset="0" stop-color="#fff"/><stop offset="1" stop-color="#ccc"/></linearGradient><linearGradient id="f" gradientUnits="userSpaceOnUse" x2="0"><stop offset="0" stop-color="#fff"/><stop offset="1" stop-color="#ccc"/></linearGradient><linearGradient id="h" gradientUnits="userSpaceOnUse" x1="69.737" y1="152.872" x2="69.737" y2="169.925"><stop offset="0" stop-color="#fff"/><stop offset="1" stop-color="#ccc"/></linearGradient><linearGradient id="j" gradientUnits="userSpaceOnUse" x1="247.176" y1="736.061" x2="247.176" y2="770.777"><stop offset="0" stop-color="#fff"/><stop offset="1" stop-color="#ccc"/></linearGradient><linearGradient id="l" gradientUnits="userSpaceOnUse" x1="86.789" y1="179.67" x2="86.789" y2="198.551"><stop offset="0" stop-color="#fff"/><stop offset="1" stop-color="#ccc"/></linearGradient><linearGradient id="n" gradientUnits="userSpaceOnUse" x1="79.786" y1="124.246" x2="79.786" y2="144.345"><stop offset="0" stop-color="#fff"/><stop offset="1" stop-color="#ccc"/></linearGradient><linearGradient id="p" gradientUnits="userSpaceOnUse" x1="277.019" y1="661.756" x2="277.019" y2="686.728"><stop offset="0" stop-color="#fff"/><stop offset="1" stop-color="#ccc"/></linearGradient><linearGradient id="r" gradientUnits="userSpaceOnUse" x1="70.92" y1="124.174" x2="70.92" y2="138.026"><stop offset="0" stop-color="#fff"/><stop offset="1" stop-color="#ccc"/></linearGradient><linearGradient id="t" gradientUnits="userSpaceOnUse" x1="412.412" y1="616.684" x2="412.412" y2="644.883"><stop offset="0" stop-color="#fff"/><stop offset="1" stop-color="#ccc"/></linearGradient><linearGradient id="v" gradientUnits="userSpaceOnUse" x1="88.262" y1="145.942" x2="88.262" y2="161.278"><stop offset="0" stop-color="#fff"/><stop offset="1" stop-color="#ccc"/></linearGradient><linearGradient id="x" gradientUnits="userSpaceOnUse" x1="412.413" y1="551.871" x2="412.413" y2="568.197"><stop offset="0" stop-color="#fff"/><stop offset="1" stop-color="#ccc"/></linearGradient><linearGradient id="z" gradientUnits="userSpaceOnUse" x1="220.298" y1="714.449" x2="220.298" y2="731.739"><stop offset="0" stop-color="#fff"/><stop offset="1" stop-color="#ccc"/></linearGradient></defs><path transform="matrix(1.00001 0 0 1 167.386 532.029)" fill="url(#c)" d="M348.377 263.11h5.481v3.654h-5.481z"/><rect fill="url(#d)"/><rect fill="url(#e)"/><rect fill="url(#f)"/><path transform="translate(167.39 532.029)" stroke="url(#g)" fill="url(#h)" d="M60.296 152.872h18.881v17.053H60.296z"/><path stroke="url(#i)" fill="url(#j)" d="M224.032 736.061h46.288v34.716h-46.288z"/><path transform="translate(167.39 532.028)" stroke="url(#k)" fill="url(#l)" d="M73.086 179.67h27.407v18.881H73.086z"/><path transform="matrix(1 0 0 1 167.39 532.029)" fill="url(#n)" d="M65.778 124.246h28.016v20.099H65.778z"/><path fill="url(#p)" d="M273.974 661.756l13.399 7.918-1.827 17.054-18.881-4.264z"/><path transform="rotate(24.669 -1116.303 574.875) skewX(35.073)" stroke="url(#q)" fill="url(#r)" d="M61.319 124.174H80.52v13.852H61.319z"/><path transform="rotate(24.669 238.79 -681.11) skewX(35.073)" stroke="url(#s)" fill="url(#t)" d="M388.875 616.684h47.074v28.199h-47.074z"/><path transform="rotate(24.669 -1116.297 574.877) skewX(35.073)" stroke="url(#u)" fill="url(#v)" d="M74.326 145.942h27.872v15.336H74.326z"/><path transform="rotate(24.669 238.78 -681.102) skewX(35.073)" fill="url(#x)" d="M398.168 551.871h28.491v16.326h-28.491z"/><path transform="rotate(-6.858 220.298 723.094)" fill="url(#z)" d="M213.475 714.449l15.052 5.481 1.668 11.809-19.794-2.953z"/></svg>