<?xml version="1.0" encoding="utf-8"?>
<svg width="86" height="380" viewBox="202.715 584.407 86.5933 380.048" preserveAspectRatio="xMidYMid meet" xmlns="http://www.w3.org/2000/svg" xmlns:xlink="http://www.w3.org/1999/xlink">
  <defs id="svgEditorDefs">
    <path id="svgEditorClosePathDefs" fill="moccasin" style="stroke-width: 0px; stroke: none; fill-opacity: 1;" class="shirt"/>
    <pattern id="pattern-0" x="0" y="0" width="20" height="20" patternUnits="userSpaceOnUse" viewBox="0 0 100 100">
      <path d="M 0 0 L 50 0 L 50 100 L 0 100 Z" style="fill: black;"/>
    </pattern>
    <pattern id="pattern-0-0" patternTransform="matrix(1, 0, 0, 1, 331.182617, 484.627686)" xlink:href="#pattern-0"/>
    <pattern id="pattern-0-1" patternTransform="matrix(1, 0, 0, 1, 388.015503, 462.28949)" xlink:href="#pattern-0"/>
    <pattern id="pattern-0-2" patternTransform="matrix(1, 0, 0, 1, 309.494995, 523.839478)" xlink:href="#pattern-0"/>
    <pattern id="pattern-0-3" patternTransform="matrix(1, 0, 0, 1, 369.616516, 523.047974)" xlink:href="#pattern-0"/>
    <pattern id="pattern-0-4" patternTransform="matrix(1, 0, 0, 1, 291.45752, 461.890991)" xlink:href="#pattern-0"/>
    <pattern id="pattern-0-5" patternTransform="matrix(1, 0, 0, 1, 354.724976, 431.700012)" xlink:href="#pattern-0"/>
    <pattern id="pattern-0-6" patternTransform="matrix(1, 0, 0, 1, 309.80896, 523.420044)" xlink:href="#pattern-0"/>
  </defs>
  <rect id="svgEditorBackground" x="202.71499633789062" y="584.4310302734375" width="86.59329986572266" height="115.80899810791016" style="fill: none; stroke: none;" class="shirt"/>
  <g transform="matrix(0.290944, 0, 0, 0.294098, 215.208405, 678.820679)">
    <g id="layer1" transform="translate(-262.89 -462.86)">
      <g id="g3867" transform="translate(10.175 71.896)">
        <path id="path2985" d="m369.21 535.67-27.378-13.792-26.883 14.735 4.6566-30.3-22.321-21.014 30.256-4.9346 13.088-27.722 14.043 27.251 30.409 3.8806-21.577 21.776z" transform="matrix(2.2115 .038861 -.038861 2.2115 -385.88 -623.3)" style="fill: rgb(255, 179, 0); stroke: url(#pattern-0-0);"/>
        <path id="path3836" d="m380.03 451.38c-30.39 41.369-30.72 41.819-30.72 41.819l97.411-31.899z" style="fill: rgb(255, 179, 0); stroke: url(#pattern-0-1);"/>
        <path id="path3838" d="m349.81 492.31v51.942l-60.63 31.117z" style="fill: rgb(255, 179, 0); stroke: url(#pattern-0-2);"/>
        <path id="path3840" d="m349.81 492.31 59.613 81.476-11.189-65.984z" style="fill: rgb(255, 179, 0); stroke: url(#pattern-0-3);"/>
        <path id="path3842" d="m253.1 461.37 96.715 30.942-29.882-40.842z" style="fill: rgb(255, 179, 0); stroke: url(#pattern-0-4);"/>
        <path id="path3844" d="m349.81 492.31v-101.22l29.83 60.357z" style="fill: rgb(255, 179, 0); stroke: url(#pattern-0-5);"/>
        <path id="path3846" d="m289.8 574.53 11.261-66.541 48.757-15.679z" style="fill: rgb(255, 179, 0); stroke: url(#pattern-0-6);"/>
      </g>
    </g>
  </g>
</svg>