<svg class="shirtOverlay" width="86" height="380" viewBox="202.715 584.407 86.593 380.048" xmlns="http://www.w3.org/2000/svg" xmlns:xlink="http://www.w3.org/1999/xlink"><defs><pattern id="a" width="20" height="20" patternUnits="userSpaceOnUse" viewBox="0 0 100 100"><path d="M0 0h50v100H0z"/></pattern><pattern id="d" patternTransform="translate(237.176 743.419)" xlink:href="#a"/><pattern id="e" patternTransform="translate(76.79 179.11)" xlink:href="#a"/><pattern id="h" patternTransform="matrix(1.01697 0 0 .81228 60.75 122.977)" xlink:href="#b"/><pattern id="b" width="20" height="20" patternUnits="userSpaceOnUse" viewBox="0 0 100 100"><path d="M0 0h50v100H0z"/></pattern><pattern id="i" patternTransform="matrix(1.01697 0 0 .81227 402.244 622.66)" xlink:href="#b"/><pattern id="j" patternTransform="matrix(1.01697 0 0 .81227 78.093 145.488)" xlink:href="#b"/><pattern id="l" patternTransform="matrix(1.00205 0 .20522 .69237 206.83 717.353)" xlink:href="#b"/><pattern id="c" patternTransform="translate(59.737 151.398)" xlink:href="#a"/><pattern id="f" patternTransform="translate(69.786 124.296)" xlink:href="#a"/><pattern id="g" patternTransform="translate(267.019 664.242)" xlink:href="#a"/><pattern id="k" patternTransform="translate(402.414 550.034)" xlink:href="#a"/></defs><path class="shirtOverlay" fill="none" d="M202.715 584.431h86.593V700.24h-86.593z"/><path fill="#d8d8d8" d="M515.767 795.139h5.481v3.654h-5.481z"/><rect fill="#d8d8d8"/><rect fill="#d8d8d8"/><rect fill="#d8d8d8"/><path transform="translate(167.39 532.029)" fill="#bbcb87" stroke="url(#c)" d="M60.296 152.872h18.881v17.053H60.296z"/><path stroke="url(#d)" fill="#bbcb87" d="M224.032 736.061h46.288v34.716h-46.288z"/><path transform="translate(167.39 532.028)" stroke="url(#e)" fill="#bbcb87" d="M73.086 179.67h27.407v18.881H73.086z"/><path fill="#bbcb87" d="M233.168 656.275h28.016v20.099h-28.016zM273.974 661.756l13.399 7.918-1.827 17.054-18.881-4.264z"/><path transform="rotate(24.669 -1116.303 574.875) skewX(35.073)" fill="#bbcb87" stroke="url(#h)" d="M61.319 124.174H80.52v13.852H61.319z"/><path transform="rotate(24.669 238.79 -681.11) skewX(35.073)" fill="#bbcb87" stroke="url(#i)" d="M388.875 616.684h47.074v28.199h-47.074z"/><path transform="rotate(24.669 -1116.297 574.877) skewX(35.073)" fill="#bbcb87" stroke="url(#j)" d="M74.326 145.942h27.872v15.336H74.326z"/><path fill="#bbcb87" d="M221.117 667.59l25.891 11.891 3.603 19.62-25.891-11.891zM212.492 715.326l15.598 3.644 3.066 11.525-20.004-.568z"/></svg>