<?xml version="1.0" encoding="utf-8"?>
<svg width="86" height="380" viewBox="202.715 584.407 86.5933 380.048" preserveAspectRatio="xMidYMid meet" xmlns="http://www.w3.org/2000/svg" xmlns:xlink="http://www.w3.org/1999/xlink">
  <defs id="svgEditorDefs">
    <path id="svgEditorClosePathDefs" fill="moccasin" style="stroke-width: 0px; stroke: none; fill-opacity: 1;" class="shirt"/>
    <pattern id="pattern-0" x="0" y="0" width="20" height="20" patternUnits="userSpaceOnUse" viewBox="0 0 100 100">
      <g transform="matrix(0.121231, 0, 0, 0.197433, 7.692309, 16.678885)">
        <g id="layer1" transform="translate(-71.61 -82.378)">
          <path id="path1874" style="fill-rule:evenodd;fill:#f43622" d="m524.02 96.154c-13.44-4.271-29.82-7.692-49.4-10.168-358.13-45.275-393.79 349.93-402.94 379.43 0.006 0.04 0.52-0.19 1.287-0.54 12.418-32.77 95.783-432.12 463.22-350.49 11.91 2.65 22.6 5.52 32.18 8.62-8.22-7.77-27.53-21.51-44.35-26.856z"/>
          <path id="path2762" style="fill-rule: evenodd; fill: url(#pattern-5-0);" d="m521.66 122.17c-7.05-2.15-14.67-4.2-22.91-6.13-351.47-82.292-414.9 321-427.07 349.38 0.005 0.03 0.345-0.07 0.83-0.22 16.908-36.7 129.22-431.69 493.62-308.2 7.73 2.62 14.88 5.27 21.57 7.96-10.54-12.91-35.25-33.41-66.04-42.79z"/>
          <path id="path2764" style="fill-rule:evenodd;fill:#fdf724" d="m503.61 151.35c-318.51-100.76-416.5 288.16-431.95 314.06 0 0.05 0.686-0.08 1.807-0.31 23.614-41.81 192.05-407.3 508.74-261.94 7.74 3.55 14.77 7.29 21.32 10.9-11.38-16.72-35.77-39.1-76.57-54.57-7.91-3.01-15.71-5.72-23.35-8.14z"/>
          <path id="path2766" style="fill-rule: evenodd; fill: rgb(14, 14, 14);" d="m489.09 181.12c-273.62-88.106-395.59 246.65-417.48 284.41 31.03-41.33 251.21-400.5 537.22-206.99 4.17 2.82 8.1 5.56 11.89 8.28-7.75-19.34-30.71-39.87-73.39-61.49-20.12-10.2-39.55-18.19-58.24-24.21z"/>
          <path id="path2768" style="fill-rule:evenodd;fill:#24fdcf" d="m487.82 215.81c-248.38-81.43-397.06 229.48-416.16 249.6 195.62-186.57 293.87-298.22 560.6-155.82-10.47-15.2-28.77-31.84-56.41-50.12-30.59-20.22-59.95-34.46-88.03-43.66z"/>
          <path id="path2770" style="fill-rule: evenodd;" d="m483.28 253.53c-222.33-72.68-391.25 194.88-411.62 211.89-0.003 0.01 0.177 0.02 0.249 0.04 31.921-20.61 295.4-309.17 571.27-95.87-9.22-14.89-24.52-31.63-46.89-50.46-38.82-32.71-76.63-53.71-113.01-65.6z"/>
          <path id="path2772" style="fill-rule:evenodd;fill:#6724fd" d="m471.01 292.94c-196.67-59.58-375.51 155.23-399.35 172.48 45.6-24.88 348.59-258.18 581.59-16.17-6.25-17.64-20.24-38.79-43.62-64.01-46.02-49.64-92.8-78.41-138.62-92.3z"/>
        </g>
      </g>
      <rect x="2.885" y="52.725" width="90.865" height="21.154" style="fill: url(#pattern-0-20);"/>
      <rect x="53.045" y="35.096" width="15.865" height="45.513" style="fill: url(#pattern-5-1);"/>
      <ellipse transform="matrix(-0.573462, 0.819232, -0.819232, -0.573462, 35.513913, 12.567496)" cx="15.545" cy="24.84" rx="37.167" ry="37.167" style="fill: url(#pattern-2-0);"/>
      <ellipse transform="matrix(0.266972, 0.963704, -0.963704, 0.266972, 92.667236, -61.292105)" cx="82.212" cy="43.269" rx="24.611" ry="24.611" style="fill: url(#pattern-2-1);"/>
      <ellipse transform="matrix(0.275317, 0.961353, -0.961353, 0.275317, 113.281334, 23.289665)" cx="36.699" cy="99.84" rx="35.507" ry="35.507" style="fill: url(#pattern-5-2);"/>
    </pattern>
    <pattern id="pattern-0-1" patternTransform="matrix(1, 0, 0, 1, 237.175995, 743.418945)" xlink:href="#pattern-0"/>
    <pattern id="pattern-0-2" patternTransform="matrix(1, 0, 0, 1, 76.789497, 179.110504)" xlink:href="#pattern-0"/>
    <pattern id="pattern-1" patternTransform="matrix(1.016971, 0.000001, -0.000003, 0.812276, 60.750443, 122.976738)" xlink:href="#pattern-2"/>
    <pattern id="pattern-2" x="0" y="0" width="20" height="20" patternUnits="userSpaceOnUse" viewBox="0 0 100 100">
      <path d="M 0 0 L 50 0 L 50 100 L 0 100 Z" style="fill: black;"/>
    </pattern>
    <pattern id="pattern-3" patternTransform="matrix(1.016974, -0.000006, 0.000002, 0.812274, 402.244476, 622.659668)" xlink:href="#pattern-2"/>
    <pattern id="pattern-4" patternTransform="matrix(1.016972, -0.000001, 0, 0.812275, 78.092819, 145.487732)" xlink:href="#pattern-2"/>
    <pattern id="pattern-6" patternTransform="matrix(1.002048, 0, 0.205215, 0.692374, 206.829254, 717.353027)" xlink:href="#pattern-2"/>
    <pattern id="pattern-0-5" patternTransform="matrix(1, 0, 0, 1, 59.736504, 151.398499)" xlink:href="#pattern-0"/>
    <pattern id="pattern-0-6" patternTransform="matrix(1, 0, 0, 1, 69.786003, 124.295502)" xlink:href="#pattern-0"/>
    <pattern id="pattern-0-7" patternTransform="matrix(1, 0, 0, 1, 267.018982, 664.242004)" xlink:href="#pattern-0"/>
    <pattern id="pattern-0-8" patternTransform="matrix(1, 0, 0, 1, 402.413513, 550.033997)" xlink:href="#pattern-0"/>
    <pattern id="pattern-0-0" patternTransform="matrix(1, 0, 0, 1, 341.117523, 254.936981)" xlink:href="#pattern-0"/>
    <pattern id="pattern-0-3" patternTransform="matrix(1, 0, 0, 1, -10, -10)" xlink:href="#pattern-0"/>
    <pattern id="pattern-0-4" patternTransform="matrix(1, 0, 0, 1, -10, -10)" xlink:href="#pattern-0"/>
    <pattern id="pattern-0-9" patternTransform="matrix(1, 0, 0, 1, -10, -10)" xlink:href="#pattern-0"/>
    <pattern id="pattern-0-10" patternTransform="matrix(1, 0, 0, 1, 59.736504, 151.398499)" xlink:href="#pattern-0"/>
    <pattern id="pattern-0-11" patternTransform="matrix(1, 0, 0, 1, 237.175995, 743.418945)" xlink:href="#pattern-0"/>
    <pattern id="pattern-0-12" patternTransform="matrix(1, 0, 0, 1, 76.789497, 179.110504)" xlink:href="#pattern-0"/>
    <pattern id="pattern-0-13" patternTransform="matrix(1, 0, 0, 1, 69.786003, 124.295502)" xlink:href="#pattern-0"/>
    <pattern id="pattern-0-14" patternTransform="matrix(1, 0, 0, 1, 267.018982, 664.242004)" xlink:href="#pattern-0"/>
    <pattern id="pattern-0-15" patternTransform="matrix(1, 0, 0, 1, 60.919502, 121.100006)" xlink:href="#pattern-0"/>
    <pattern id="pattern-0-16" patternTransform="matrix(1, 0, 0, 1, 402.411987, 620.783508)" xlink:href="#pattern-0"/>
    <pattern id="pattern-0-17" patternTransform="matrix(1, 0, 0, 1, 78.261993, 143.610001)" xlink:href="#pattern-0"/>
    <pattern id="pattern-0-18" patternTransform="matrix(1, 0, 0, 1, 402.413513, 550.033997)" xlink:href="#pattern-0"/>
    <pattern id="pattern-0-19" patternTransform="matrix(1, 0, 0, 1, 210.298004, 713.093994)" xlink:href="#pattern-0"/>
    <pattern id="pattern-5" viewBox="0 0 100 100" patternUnits="userSpaceOnUse" preserveAspectRatio="none" width="100" height="100">
      <g transform="matrix(2.39516, 0, 0, 2.585456, 4.440674, 6.267636)">
        <g id="g10" transform="matrix(1.25 0 0 -1.25 0 35.878)">
          <g id="g12">
            <g id="g14">
              <g id="g16">
                <g id="g22">
                  <path id="path30" style="fill-rule:evenodd;fill:url(#linearGradient24)" d="m24.922 28.522c1.519-0.109 2.695-0.789 3.519-2.043 0.774-1.199 1.082-2.597 0.922-4.199-0.133-1.226-0.414-2.215-0.84-2.961-0.535-0.851-0.812-1.343-0.839-1.476-0.293-1.203-1-2.242-2.122-3.121-0.48-0.375-0.757-0.641-0.839-0.801-0.133-0.348-0.36-0.801-0.68-1.359-0.613-1.067-1.801-2.293-3.563-3.68-0.21-0.188-0.691-0.653-1.437-1.403-0.746-0.746-1.281-1.238-1.602-1.48-0.371-0.293-0.839-0.598-1.398-0.918-0.32-0.187-0.785-0.453-1.402-0.801-0.106-0.082-0.465-0.398-1.079-0.961-0.453-0.425-0.96-0.718-1.519-0.879-0.426-0.132-1.105-0.48-2.039-1.039-0.934-0.558-1.707-0.922-2.32-1.082-0.801-0.215-1.668-0.32-2.602-0.32-0.824 0-1.492 0.082-2 0.242-0.824 0.321-1.574 0.934-2.238 1.84-0.989 1.305-1.11 2.652-0.364 4.039 0.75 1.387 1.922 2.574 3.524 3.563 1.121 0.718 2.238 1.222 3.359 1.519 0.985 0.266 2.266 1.184 3.84 2.758 1.52 1.336 2.547 2.281 3.078 2.84 0.828 0.883 1.469 1.773 1.922 2.679 0.375 0.856 0.602 1.403 0.68 1.641 0.375 0.961 0.933 2.016 1.679 3.16 0.719 1.067 1.321 1.801 1.801 2.199 0.586 0.508 1.282 0.95 2.078 1.321 0.989 0.508 1.817 0.746 2.481 0.722z"/>
                </g>
              </g>
            </g>
            <g id="g32">
              <g id="g34">
                <g id="g40">
                  <path id="path48" style="fill-rule:evenodd;fill:url(#linearGradient42)" d="m23.562 24.319c-0.187 0.16-0.464 0.082-0.839-0.238-0.028 0-0.36-0.32-1-0.961-0.399-0.371-0.934-1.398-1.598-3.078-0.187-0.402-0.523-1.043-1-1.922-0.508-0.851-0.895-1.465-1.16-1.84-1.176-1.547-1.977-2.519-2.403-2.918-1.039-1.043-2.464-2.187-4.281-3.441-1.117-0.774-2.332-1.559-3.636-2.359l1.398 1c0.746 0.507 1.707 1.253 2.879 2.238 0.64 0.508 1.828 1.562 3.562 3.16 0.399 0.32 0.68 0.586 0.84 0.801 0.16 0.238 0.344 0.668 0.559 1.281 0.187 0.531 0.492 1.078 0.922 1.641 0.238 0.316 0.613 0.812 1.117 1.476 0.32 0.481 0.535 0.817 0.64 1 0 0.055 0.149 0.469 0.442 1.242 0.348 0.879 1.066 2.051 2.16 3.52 0.16 0.266 0.227 0.586 0.199 0.961-0.054 0.344-0.16 0.597-0.32 0.758-0.16 0.16-0.492 0.093-1-0.2s-1.012-0.746-1.52-1.359c-1.015-1.254-1.894-2.535-2.64-3.84l0.441 0.879c0.719 1.52 1.453 2.762 2.199 3.719 0.426 0.508 0.801 0.883 1.122 1.121 0.371 0.266 1.05 0.641 2.039 1.121 2.293 1.145 4.226 0.707 5.8-1.32 0.719-0.934 1.078-2.039 1.078-3.321 0-0.64-0.078-1.187-0.238-1.64-0.215 0.265-0.48 0.336-0.801 0.199-0.214-0.078-0.347-0.371-0.398-0.879-0.055-0.293-0.109-0.758-0.16-1.398-0.027-0.293-0.188-0.696-0.481-1.2-0.293-0.507-0.453-0.906-0.48-1.203-0.027-0.343-0.203-0.703-0.52-1.078-0.453-0.402-0.816-0.719-1.082-0.961-0.265-0.238-0.652-0.785-1.16-1.64-0.586-0.957-1.051-1.641-1.398-2.039-0.828-0.934-2.043-2.028-3.641-3.282l-3.359-2.597c-0.723-0.618-1.828-1.188-3.321-1.723 1.2 0.535 2.172 1.121 2.918 1.762l3.243 2.519c1.492 1.172 2.613 2.227 3.359 3.16 0.293 0.348 0.879 1.145 1.758 2.399 0.722 1.043 1.215 1.68 1.48 1.922 0.293 0.293 0.59 0.691 0.883 1.199 0.184 0.293 0.465 0.801 0.84 1.519 0.293 0.559 0.48 1.293 0.558 2.2 0.079 0.906 0.016 1.48-0.199 1.722-0.16 0.215-0.332 0.266-0.519 0.161-0.242-0.215-0.453-0.387-0.641-0.52-0.238-0.188-0.508-0.547-0.801-1.082-0.316-0.504-0.519-0.918-0.597-1.238-0.082-0.266-0.469-0.934-1.16-2-0.668-0.989-1.149-1.657-1.442-2l-4.32-5.2c-0.321-0.347-0.961-0.91-1.918-1.683-1.227-0.957-2.188-1.719-2.883-2.277-1.387-1.122-3.227-2-5.52-2.641 1.973 0.801 3.321 1.465 4.04 2 2.96 2.183 4.656 3.547 5.082 4.078 0.535 0.695 0.933 1.215 1.199 1.563 0.48 0.636 0.906 1.117 1.281 1.437 1.359 1.254 2.211 2.188 2.559 2.801 0.375 0.64 0.879 1.441 1.519 2.398 0.426 0.641 0.785 1.309 1.082 2 0.371 0.906 0.504 1.602 0.399 2.082-0.133 0.719-0.52 1.403-1.161 2.039z"/>
                </g>
              </g>
            </g>
            <g id="g50">
              <g id="g52">
                <g id="g58">
                  <path id="path66" style="fill-rule:evenodd;fill:url(#radialGradient60)" d="m28.484 23.601c-0.773-0.747-1.761-0.641-2.961 0.32-1.121 0.879-1.668 1.68-1.64 2.398 0 0.723 0.293 1.27 0.879 1.641 0.695 0.453 1.547 0.281 2.562-0.52 0.985-0.8 1.52-1.601 1.598-2.398 0.082-0.613-0.067-1.094-0.438-1.441z"/>
                </g>
              </g>
            </g>
            <g id="g68">
              <g id="g70">
                <g id="g76">
                  <path id="path84" style="fill-rule:evenodd;fill:url(#radialGradient78)" d="m28.363 24.319c-0.347-0.453-0.894-0.547-1.64-0.277-0.774 0.293-1.309 0.84-1.598 1.641-0.297 0.746-0.16 1.265 0.398 1.558 0.481 0.266 0.934 0.281 1.36 0.039 0.691-0.375 1.187-0.894 1.48-1.558 0.266-0.614 0.266-1.082 0-1.403z"/>
                </g>
              </g>
            </g>
            <g id="g86">
              <g id="g102" mask="url(#mask94)">
                <g id="g148">
                  <g id="g150" clip-path="url(#clipPath106)">
                    <g id="g152" transform="translate(0 -.29787)">
                      <g id="g156">
                        <g id="g158" clip-path="url(#clipPath110)">
                          <g id="g160">
                            <g id="g162">
                              <g id="g166" mask="url(#mask122)">
                                <g id="g170">
                                  <g id="g172" clip-path="url(#clipPath140)">
                                    <g id="g174">
                                      <g id="g178">
                                        <g id="g180" clip-path="url(#clipPath144)">
                                          <g id="g182">
                                            <path id="path184" style="fill-rule:evenodd;fill:#000000" d="m16.203 19.777c0.375 0.856 0.602 1.403 0.68 1.641 0.375 0.961 0.933 2.016 1.679 3.16 0.719 1.067 1.321 1.801 1.801 2.199 0.586 0.508 1.282 0.95 2.078 1.321 0.989 0.507 1.817 0.746 2.481 0.722l0.723-0.121c-1.707-0.054-2.922-0.761-3.641-2.121-0.348-0.664-0.949-1.453-1.801-2.359-0.801-0.774-1.414-1.719-1.84-2.84-0.558-1.492-1.629-3.133-3.199-4.922-1.574-1.84-3.176-3.227-4.801-4.16-1.066-0.637-2.668-1.504-4.801-2.598-1.757-0.988-3.054-1.933-3.878-2.84-0.774-0.828-1.122-1.722-1.039-2.679 0.078-0.856 0.464-1.602 1.16-2.242l1.597-1.481-0.32 0.082c-0.824 0.32-1.574 0.934-2.238 1.84-0.989 1.305-1.106 2.652-0.36 4.039s1.918 2.574 3.52 3.562c1.117 0.719 2.238 1.223 3.359 1.52 0.985 0.266 2.266 1.184 3.84 2.758 1.52 1.336 2.547 2.281 3.078 2.84 0.828 0.882 1.469 1.773 1.922 2.679z"/>
                                          </g>
                                        </g>
                                      </g>
                                    </g>
                                  </g>
                                </g>
                              </g>
                            </g>
                          </g>
                        </g>
                      </g>
                    </g>
                  </g>
                </g>
              </g>
            </g>
            <g id="g186">
              <g id="g202" mask="url(#mask194)">
                <g id="g224">
                  <g id="g226" clip-path="url(#clipPath206)">
                    <g id="g228" transform="translate(0 -.29787)">
                      <g id="g232">
                        <g id="g234" clip-path="url(#clipPath210)">
                          <g id="g236">
                            <g id="g238">
                              <g id="g240">
                                <g id="g242">
                                  <path id="path244" style="fill-rule:evenodd;fill:url(#linearGradient218)" d="m25.883 23.137c0.48 0.215 0.574-0.973 0.281-3.559-0.105-1.066-1.215-2.894-3.32-5.48-0.403-0.504-1.067-1.239-2-2.2-1.067-1.066-1.735-1.746-2-2.039-0.696-0.773-2.375-2.226-5.039-4.359-0.641-0.508-1.789-1.109-3.442-1.801-1.492-0.586-2.547-0.933-3.16-1.039-1.332-0.43-2.305-0.613-2.922-0.562-0.957 0.105-1.316 0.961-1.078 2.562 0.238 1.625 0.762 2.492 1.559 2.598 0.668 0.082 2.226 1.027 4.679 2.84 2.27 1.679 3.774 2.922 4.524 3.722 0.426 0.45 1.476 1.438 3.16 2.957 1.68 1.547 2.68 2.496 3 2.84 0.504 0.563 1.543 1.281 3.117 2.16 0.828 0.426 1.707 0.883 2.641 1.36z"/>
                                </g>
                              </g>
                            </g>
                          </g>
                        </g>
                      </g>
                    </g>
                  </g>
                </g>
              </g>
            </g>
            <path id="path246" style="fill-rule:evenodd;fill:#cddb32" d="m21.082 8.96c-0.559-0.641-0.957-0.773-1.199-0.398-0.266 0.398-0.121 0.773 0.441 1.117 0.481 0.293 0.813 0.347 1 0.16 0.184-0.184 0.106-0.477-0.242-0.879z"/>
            <path id="path248" style="fill-rule:evenodd;fill:#e5e835" d="m23.281 13.202c-0.851 0.32-0.89 0.774-0.117 1.36 0.824 0.613 1.32 0.718 1.481 0.32 0.132-0.375 0.039-0.774-0.282-1.203-0.32-0.477-0.679-0.637-1.082-0.477z"/>
            <path id="path250" style="fill-rule:evenodd;fill:#e5e835" d="m25.484 18.64c-0.562 0.535-0.468 0.972 0.278 1.32 0.773 0.348 1.203 0.348 1.281 0 0.109-0.32-0.039-0.707-0.441-1.16-0.399-0.453-0.774-0.504-1.118-0.16z"/>
            <path id="path252" style="fill-rule:evenodd;fill:#e5e835" d="m22.324 17.999c-0.933-0.504-1.535-0.051-1.801 1.363-0.027 0.184 0.133 0.227 0.481 0.117 0.215-0.05 0.613-0.183 1.199-0.398 0.828-0.293 0.867-0.652 0.121-1.082z"/>
            <path id="path254" style="fill-rule:evenodd;fill:#b1d12f" d="m13.441 5.722c0.028 0.32 0.254 0.371 0.684 0.16 0.426-0.242 0.57-0.469 0.437-0.684-0.16-0.265-0.398-0.371-0.718-0.316-0.321 0.078-0.453 0.359-0.403 0.84z"/>
            <path id="path256" style="fill-rule:evenodd;fill:#b1d12f" d="m5.602 5.64h0.839c0.27-0.028 0.414-0.145 0.442-0.36 0.055-0.32-0.028-0.574-0.238-0.758-0.215-0.214-0.469-0.187-0.762 0.079-0.321 0.293-0.492 0.546-0.52 0.761-0.027 0.184 0.055 0.278 0.239 0.278z"/>
            <path id="path258" style="fill-rule:evenodd;fill:#cddb32" d="m18.004 12.159c-0.508-0.371-0.852-0.305-1.039 0.203-0.188 0.532-0.149 0.867 0.117 1 0.215 0.106 0.469-0.043 0.762-0.441 0.293-0.375 0.347-0.625 0.16-0.762z"/>
            <path id="path260" style="fill-rule:evenodd;fill:#b1d12f" d="m11.723 2.64c-0.321 0-0.481 0.148-0.481 0.441 0.028 0.293 0.149 0.426 0.36 0.398 0.214-0.023 0.363-0.171 0.441-0.437 0.055-0.27-0.055-0.402-0.32-0.402z"/>
            <path id="path262" style="fill-rule:evenodd;fill:#b1d12f" d="m8.242 1.159c-0.48-0.238-0.84-0.172-1.078 0.203-0.187 0.239-0.293 0.586-0.32 1.039-0.028 0.266 0.039 0.344 0.199 0.239 0.105-0.051 0.387-0.211 0.84-0.481 0.535-0.238 0.828-0.387 0.879-0.437 0.109-0.133-0.067-0.321-0.52-0.563z"/>
            <path id="path264" style="fill-rule:evenodd;fill:#b1d12f" d="m3.844 0.64c-0.348 0.027-0.535 0.265-0.563 0.718-0.023 0.43 0.137 0.668 0.481 0.723 0.32 0.023 0.48-0.215 0.48-0.723 0-0.531-0.133-0.769-0.398-0.718z"/>
            <path id="path266" style="fill-rule:evenodd;fill:#b1d12f" d="m10.922 6.882c-0.692-0.32-1.027-0.16-1 0.48 0 0.664 0.16 0.985 0.48 0.957 0.243-0.023 0.43-0.25 0.563-0.679 0.133-0.453 0.117-0.707-0.043-0.758z"/>
            <path id="path268" style="fill-rule:evenodd;fill:#b1d12f" d="m7.121 9.319c-0.078 0.321-0.105 0.575-0.078 0.762 0.055 0.238 0.187 0.348 0.398 0.32 0.243-0.027 0.282-0.308 0.121-0.839-0.16-0.563-0.304-0.641-0.441-0.243z"/>
            <path id="path270" style="fill-rule:evenodd;fill:#cddb32" d="m13.203 11.401c-0.265-0.535-0.48-0.535-0.641 0-0.16 0.559-0.054 0.918 0.321 1.078 0.347 0.161 0.535 0.083 0.558-0.238 0-0.269-0.078-0.547-0.238-0.84z"/>
            <path id="path272" style="fill-rule:evenodd;fill:#e5e835" d="m19.203 22.999c-0.398-0.504-0.586-0.398-0.558 0.32 0 0.723 0.21 1.137 0.636 1.243 0.43 0.105 0.602-0.028 0.524-0.403-0.055-0.344-0.254-0.73-0.602-1.16z"/>
            <path id="path274" style="fill-rule:evenodd;fill:#b1d12f" d="m2.082 4.921c-0.371-0.348-0.559-0.215-0.559 0.398 0 0.614 0.161 1.043 0.481 1.282 0.348 0.242 0.574 0.132 0.68-0.321 0.078-0.48-0.122-0.933-0.602-1.359z"/>
            <path id="path276" style="fill-rule:evenodd;fill:#b0a009" d="m25.203 19.522c0.055 0.051 0.121-0.093 0.199-0.441 0.082-0.402 0.188-0.613 0.321-0.641l0.32-0.078c-0.481-0.215-0.852-0.215-1.121 0-0.184 0.16-0.238 0.344-0.16 0.559 0.082 0.211 0.226 0.414 0.441 0.601z"/>
            <path id="path278" style="fill-rule:evenodd;fill:#b0a009" d="m22.562 13.921 0.04-0.359c0.054-0.215 0.175-0.321 0.363-0.321 0.476-0.027 0.84-0.027 1.078 0l-0.359-0.359c-0.293-0.16-0.629-0.215-1-0.16-0.243 0.023-0.36 0.211-0.36 0.558 0.024 0.348 0.106 0.559 0.238 0.641z"/>
            <path id="path280" style="fill-rule:evenodd;fill:#a19208" d="m20.082 9.44c-0.078-0.054-0.144-0.121-0.199-0.199-0.133-0.187-0.145-0.359-0.039-0.519l0.238-0.36c-0.453-0.215-0.719-0.175-0.801 0.117-0.078 0.188-0.011 0.387 0.203 0.602 0.184 0.188 0.387 0.305 0.598 0.359z"/>
            <path id="path282" style="fill-rule:evenodd;fill:#a19c08" d="m13.484 5.96-0.082-0.32c-0.027-0.239 0.016-0.411 0.121-0.52l0.282-0.238c-0.27-0.133-0.469-0.121-0.602 0.039s-0.187 0.387-0.16 0.68c0.027 0.32 0.176 0.441 0.441 0.359z"/>
            <path id="path284" style="fill-rule:evenodd;fill:#b0a009" d="m20.523 19.362 0.079-0.441c0.082-0.293 0.175-0.508 0.281-0.641 0.16-0.187 0.398-0.32 0.719-0.398-0.399-0.242-0.786-0.281-1.161-0.121-0.238 0.078-0.316 0.359-0.238 0.84 0.055 0.453 0.16 0.707 0.32 0.761z"/>
            <path id="path286" style="fill-rule:evenodd;fill:#b0a009" d="m18.922 24.28-0.117-0.238c-0.055-0.188-0.094-0.387-0.121-0.602 0-0.347 0.039-0.574 0.121-0.679-0.403 0.105-0.614 0.32-0.641 0.64 0 0.371 0.254 0.664 0.758 0.879z"/>
            <path id="path288" style="fill-rule:evenodd;fill:#94a108" d="m12.883 10.999c-0.641 0.32-0.852 0.668-0.641 1.043l0.481 0.68 0.039-0.082c-0.024-0.078-0.106-0.211-0.239-0.399-0.214-0.32-0.093-0.734 0.36-1.242z"/>
            <path id="path290" style="fill-rule:evenodd;fill:#a19c08" d="m6.484 4.319c-0.136-0.05-0.414 0.028-0.839 0.243-0.457 0.21-0.696 0.414-0.723 0.597-0.027 0.16 0.082 0.281 0.32 0.363 0.106 0.051 0.227 0.09 0.36 0.118l-0.079-0.239c-0.027-0.187 0.012-0.359 0.122-0.519 0.21-0.27 0.492-0.453 0.839-0.563z"/>
            <path id="path292" style="fill-rule:evenodd;fill:#a19c08" d="m11.602 3.479-0.239-0.16c-0.133-0.16-0.16-0.293-0.082-0.398l0.16-0.281c-0.453 0.054-0.613 0.187-0.476 0.402 0.078 0.105 0.211 0.211 0.398 0.316l0.239 0.121z"/>
            <path id="path294" style="fill-rule:evenodd;fill:#94a108" d="m17.125 11.96c-0.48 0.48-0.629 0.852-0.441 1.121 0.105 0.188 0.199 0.293 0.281 0.32 0.051 0 0.094-0.015 0.117-0.043l-0.16-0.558c-0.051-0.238 0.016-0.52 0.203-0.84z"/>
            <path id="path296" style="fill-rule:evenodd;fill:#a19c08" d="m7.121 9.319c-0.398 0.375-0.547 0.653-0.437 0.84 0.054 0.11 0.132 0.176 0.238 0.203 0.055 0.024 0.109 0.039 0.16 0.039l-0.078-0.121c-0.055-0.105-0.016-0.426 0.117-0.961z"/>
            <path id="path298" style="fill-rule:evenodd;fill:#a19c08" d="m1.645 4.722c-0.614 0.613-0.707 1.132-0.282 1.558 0.239 0.266 0.492 0.414 0.758 0.442 0.109 0 0.203-0.016 0.281-0.043l-0.238-0.157c-0.16-0.16-0.32-0.347-0.48-0.562-0.266-0.348-0.282-0.758-0.039-1.238z"/>
            <path id="path300" style="fill-rule:evenodd;fill:#a19c08" d="m10.402 8.319-0.32-0.359c-0.184-0.293-0.25-0.547-0.199-0.758l0.16-0.562c-0.398 0.507-0.602 0.882-0.602 1.121 0 0.215 0.094 0.386 0.282 0.519 0.187 0.133 0.414 0.149 0.679 0.039z"/>
            <path id="path302" style="fill-rule:evenodd;fill:#a19c08" d="m6.723 2.722v-0.243c0.054-0.183 0.132-0.386 0.242-0.597l0.519-0.84c-0.269-0.082-0.519 0.027-0.761 0.32-0.188 0.266-0.293 0.571-0.321 0.918-0.027 0.348 0.082 0.492 0.321 0.442z"/>
            <path id="path304" style="fill-rule:evenodd;fill:#a19c08" d="m3.762 2.081-0.36-0.199c-0.187-0.16-0.226-0.348-0.121-0.563 0.16-0.347 0.348-0.574 0.563-0.679-0.535 0.054-0.867 0.281-1 0.679-0.082 0.27 0.051 0.469 0.398 0.602 0.16 0.078 0.336 0.133 0.52 0.16z"/>
          </g>
        </g>
      </g>
      <g transform="matrix(2.395159959793091, 0, 0, 2.585455894470215, -22.541272688472446, -13.484735296409728)">
        <g id="g-11" transform="matrix(1.25 0 0 -1.25 0 35.878)">
          <g id="g-12">
            <g id="g-13">
              <g id="g-14">
                <g id="g-15">
                  <path id="path-4" style="fill-rule: evenodd; fill: url(#gradient-1);" d="m24.922 28.522c1.519-0.109 2.695-0.789 3.519-2.043 0.774-1.199 1.082-2.597 0.922-4.199-0.133-1.226-0.414-2.215-0.84-2.961-0.535-0.851-0.812-1.343-0.839-1.476-0.293-1.203-1-2.242-2.122-3.121-0.48-0.375-0.757-0.641-0.839-0.801-0.133-0.348-0.36-0.801-0.68-1.359-0.613-1.067-1.801-2.293-3.563-3.68-0.21-0.188-0.691-0.653-1.437-1.403-0.746-0.746-1.281-1.238-1.602-1.48-0.371-0.293-0.839-0.598-1.398-0.918-0.32-0.187-0.785-0.453-1.402-0.801-0.106-0.082-0.465-0.398-1.079-0.961-0.453-0.425-0.96-0.718-1.519-0.879-0.426-0.132-1.105-0.48-2.039-1.039-0.934-0.558-1.707-0.922-2.32-1.082-0.801-0.215-1.668-0.32-2.602-0.32-0.824 0-1.492 0.082-2 0.242-0.824 0.321-1.574 0.934-2.238 1.84-0.989 1.305-1.11 2.652-0.364 4.039 0.75 1.387 1.922 2.574 3.524 3.563 1.121 0.718 2.238 1.222 3.359 1.519 0.985 0.266 2.266 1.184 3.84 2.758 1.52 1.336 2.547 2.281 3.078 2.84 0.828 0.883 1.469 1.773 1.922 2.679 0.375 0.856 0.602 1.403 0.68 1.641 0.375 0.961 0.933 2.016 1.679 3.16 0.719 1.067 1.321 1.801 1.801 2.199 0.586 0.508 1.282 0.95 2.078 1.321 0.989 0.508 1.817 0.746 2.481 0.722z"/>
                </g>
              </g>
            </g>
            <g id="g-16">
              <g id="g-17">
                <g id="g-18">
                  <path id="path-5" style="fill-rule: evenodd; fill: url(#gradient-2);" d="m23.562 24.319c-0.187 0.16-0.464 0.082-0.839-0.238-0.028 0-0.36-0.32-1-0.961-0.399-0.371-0.934-1.398-1.598-3.078-0.187-0.402-0.523-1.043-1-1.922-0.508-0.851-0.895-1.465-1.16-1.84-1.176-1.547-1.977-2.519-2.403-2.918-1.039-1.043-2.464-2.187-4.281-3.441-1.117-0.774-2.332-1.559-3.636-2.359l1.398 1c0.746 0.507 1.707 1.253 2.879 2.238 0.64 0.508 1.828 1.562 3.562 3.16 0.399 0.32 0.68 0.586 0.84 0.801 0.16 0.238 0.344 0.668 0.559 1.281 0.187 0.531 0.492 1.078 0.922 1.641 0.238 0.316 0.613 0.812 1.117 1.476 0.32 0.481 0.535 0.817 0.64 1 0 0.055 0.149 0.469 0.442 1.242 0.348 0.879 1.066 2.051 2.16 3.52 0.16 0.266 0.227 0.586 0.199 0.961-0.054 0.344-0.16 0.597-0.32 0.758-0.16 0.16-0.492 0.093-1-0.2s-1.012-0.746-1.52-1.359c-1.015-1.254-1.894-2.535-2.64-3.84l0.441 0.879c0.719 1.52 1.453 2.762 2.199 3.719 0.426 0.508 0.801 0.883 1.122 1.121 0.371 0.266 1.05 0.641 2.039 1.121 2.293 1.145 4.226 0.707 5.8-1.32 0.719-0.934 1.078-2.039 1.078-3.321 0-0.64-0.078-1.187-0.238-1.64-0.215 0.265-0.48 0.336-0.801 0.199-0.214-0.078-0.347-0.371-0.398-0.879-0.055-0.293-0.109-0.758-0.16-1.398-0.027-0.293-0.188-0.696-0.481-1.2-0.293-0.507-0.453-0.906-0.48-1.203-0.027-0.343-0.203-0.703-0.52-1.078-0.453-0.402-0.816-0.719-1.082-0.961-0.265-0.238-0.652-0.785-1.16-1.64-0.586-0.957-1.051-1.641-1.398-2.039-0.828-0.934-2.043-2.028-3.641-3.282l-3.359-2.597c-0.723-0.618-1.828-1.188-3.321-1.723 1.2 0.535 2.172 1.121 2.918 1.762l3.243 2.519c1.492 1.172 2.613 2.227 3.359 3.16 0.293 0.348 0.879 1.145 1.758 2.399 0.722 1.043 1.215 1.68 1.48 1.922 0.293 0.293 0.59 0.691 0.883 1.199 0.184 0.293 0.465 0.801 0.84 1.519 0.293 0.559 0.48 1.293 0.558 2.2 0.079 0.906 0.016 1.48-0.199 1.722-0.16 0.215-0.332 0.266-0.519 0.161-0.242-0.215-0.453-0.387-0.641-0.52-0.238-0.188-0.508-0.547-0.801-1.082-0.316-0.504-0.519-0.918-0.597-1.238-0.082-0.266-0.469-0.934-1.16-2-0.668-0.989-1.149-1.657-1.442-2l-4.32-5.2c-0.321-0.347-0.961-0.91-1.918-1.683-1.227-0.957-2.188-1.719-2.883-2.277-1.387-1.122-3.227-2-5.52-2.641 1.973 0.801 3.321 1.465 4.04 2 2.96 2.183 4.656 3.547 5.082 4.078 0.535 0.695 0.933 1.215 1.199 1.563 0.48 0.636 0.906 1.117 1.281 1.437 1.359 1.254 2.211 2.188 2.559 2.801 0.375 0.64 0.879 1.441 1.519 2.398 0.426 0.641 0.785 1.309 1.082 2 0.371 0.906 0.504 1.602 0.399 2.082-0.133 0.719-0.52 1.403-1.161 2.039z"/>
                </g>
              </g>
            </g>
            <g id="g-19">
              <g id="g-20">
                <g id="g-21">
                  <path id="path-6" style="fill-rule: evenodd; fill: url(#gradient-3);" d="m28.484 23.601c-0.773-0.747-1.761-0.641-2.961 0.32-1.121 0.879-1.668 1.68-1.64 2.398 0 0.723 0.293 1.27 0.879 1.641 0.695 0.453 1.547 0.281 2.562-0.52 0.985-0.8 1.52-1.601 1.598-2.398 0.082-0.613-0.067-1.094-0.438-1.441z"/>
                </g>
              </g>
            </g>
            <g id="g-22">
              <g id="g-23">
                <g id="g-24">
                  <path id="path-7" style="fill-rule: evenodd; fill: url(#gradient-4);" d="m28.363 24.319c-0.347-0.453-0.894-0.547-1.64-0.277-0.774 0.293-1.309 0.84-1.598 1.641-0.297 0.746-0.16 1.265 0.398 1.558 0.481 0.266 0.934 0.281 1.36 0.039 0.691-0.375 1.187-0.894 1.48-1.558 0.266-0.614 0.266-1.082 0-1.403z"/>
                </g>
              </g>
            </g>
            <g id="g-25">
              <g id="g-26" mask="url(#mask-1)">
                <g id="g-27">
                  <g id="g-28" clip-path="url(#clipPath106)">
                    <g id="g-29" transform="translate(0 -.29787)">
                      <g id="g-30">
                        <g id="g-31" clip-path="url(#clipPath110)">
                          <g id="g-32">
                            <g id="g-33">
                              <g id="g-34" mask="url(#mask-2)">
                                <g id="g-35">
                                  <g id="g-36" clip-path="url(#clipPath140)">
                                    <g id="g-37">
                                      <g id="g-38">
                                        <g id="g-39" clip-path="url(#clipPath144)">
                                          <g id="g-40">
                                            <path id="path-8" style="fill-rule:evenodd;fill:#000000" d="m16.203 19.777c0.375 0.856 0.602 1.403 0.68 1.641 0.375 0.961 0.933 2.016 1.679 3.16 0.719 1.067 1.321 1.801 1.801 2.199 0.586 0.508 1.282 0.95 2.078 1.321 0.989 0.507 1.817 0.746 2.481 0.722l0.723-0.121c-1.707-0.054-2.922-0.761-3.641-2.121-0.348-0.664-0.949-1.453-1.801-2.359-0.801-0.774-1.414-1.719-1.84-2.84-0.558-1.492-1.629-3.133-3.199-4.922-1.574-1.84-3.176-3.227-4.801-4.16-1.066-0.637-2.668-1.504-4.801-2.598-1.757-0.988-3.054-1.933-3.878-2.84-0.774-0.828-1.122-1.722-1.039-2.679 0.078-0.856 0.464-1.602 1.16-2.242l1.597-1.481-0.32 0.082c-0.824 0.32-1.574 0.934-2.238 1.84-0.989 1.305-1.106 2.652-0.36 4.039s1.918 2.574 3.52 3.562c1.117 0.719 2.238 1.223 3.359 1.52 0.985 0.266 2.266 1.184 3.84 2.758 1.52 1.336 2.547 2.281 3.078 2.84 0.828 0.882 1.469 1.773 1.922 2.679z"/>
                                          </g>
                                        </g>
                                      </g>
                                    </g>
                                  </g>
                                </g>
                              </g>
                            </g>
                          </g>
                        </g>
                      </g>
                    </g>
                  </g>
                </g>
              </g>
            </g>
            <g id="g-41">
              <g id="g-42" mask="url(#mask-3)">
                <g id="g-43">
                  <g id="g-44" clip-path="url(#clipPath206)">
                    <g id="g-45" transform="translate(0 -.29787)">
                      <g id="g-46">
                        <g id="g-47" clip-path="url(#clipPath210)">
                          <g id="g-48">
                            <g id="g-49">
                              <g id="g-50">
                                <g id="g-51">
                                  <path id="path-9" style="fill-rule: evenodd; fill: url(#gradient-5);" d="m25.883 23.137c0.48 0.215 0.574-0.973 0.281-3.559-0.105-1.066-1.215-2.894-3.32-5.48-0.403-0.504-1.067-1.239-2-2.2-1.067-1.066-1.735-1.746-2-2.039-0.696-0.773-2.375-2.226-5.039-4.359-0.641-0.508-1.789-1.109-3.442-1.801-1.492-0.586-2.547-0.933-3.16-1.039-1.332-0.43-2.305-0.613-2.922-0.562-0.957 0.105-1.316 0.961-1.078 2.562 0.238 1.625 0.762 2.492 1.559 2.598 0.668 0.082 2.226 1.027 4.679 2.84 2.27 1.679 3.774 2.922 4.524 3.722 0.426 0.45 1.476 1.438 3.16 2.957 1.68 1.547 2.68 2.496 3 2.84 0.504 0.563 1.543 1.281 3.117 2.16 0.828 0.426 1.707 0.883 2.641 1.36z"/>
                                </g>
                              </g>
                            </g>
                          </g>
                        </g>
                      </g>
                    </g>
                  </g>
                </g>
              </g>
            </g>
            <path id="path-10" style="fill-rule:evenodd;fill:#cddb32" d="m21.082 8.96c-0.559-0.641-0.957-0.773-1.199-0.398-0.266 0.398-0.121 0.773 0.441 1.117 0.481 0.293 0.813 0.347 1 0.16 0.184-0.184 0.106-0.477-0.242-0.879z"/>
            <path id="path-11" style="fill-rule:evenodd;fill:#e5e835" d="m23.281 13.202c-0.851 0.32-0.89 0.774-0.117 1.36 0.824 0.613 1.32 0.718 1.481 0.32 0.132-0.375 0.039-0.774-0.282-1.203-0.32-0.477-0.679-0.637-1.082-0.477z"/>
            <path id="path-12" style="fill-rule:evenodd;fill:#e5e835" d="m25.484 18.64c-0.562 0.535-0.468 0.972 0.278 1.32 0.773 0.348 1.203 0.348 1.281 0 0.109-0.32-0.039-0.707-0.441-1.16-0.399-0.453-0.774-0.504-1.118-0.16z"/>
            <path id="path-13" style="fill-rule:evenodd;fill:#e5e835" d="m22.324 17.999c-0.933-0.504-1.535-0.051-1.801 1.363-0.027 0.184 0.133 0.227 0.481 0.117 0.215-0.05 0.613-0.183 1.199-0.398 0.828-0.293 0.867-0.652 0.121-1.082z"/>
            <path id="path-14" style="fill-rule:evenodd;fill:#b1d12f" d="m13.441 5.722c0.028 0.32 0.254 0.371 0.684 0.16 0.426-0.242 0.57-0.469 0.437-0.684-0.16-0.265-0.398-0.371-0.718-0.316-0.321 0.078-0.453 0.359-0.403 0.84z"/>
            <path id="path-15" style="fill-rule:evenodd;fill:#b1d12f" d="m5.602 5.64h0.839c0.27-0.028 0.414-0.145 0.442-0.36 0.055-0.32-0.028-0.574-0.238-0.758-0.215-0.214-0.469-0.187-0.762 0.079-0.321 0.293-0.492 0.546-0.52 0.761-0.027 0.184 0.055 0.278 0.239 0.278z"/>
            <path id="path-16" style="fill-rule:evenodd;fill:#cddb32" d="m18.004 12.159c-0.508-0.371-0.852-0.305-1.039 0.203-0.188 0.532-0.149 0.867 0.117 1 0.215 0.106 0.469-0.043 0.762-0.441 0.293-0.375 0.347-0.625 0.16-0.762z"/>
            <path id="path-17" style="fill-rule:evenodd;fill:#b1d12f" d="m11.723 2.64c-0.321 0-0.481 0.148-0.481 0.441 0.028 0.293 0.149 0.426 0.36 0.398 0.214-0.023 0.363-0.171 0.441-0.437 0.055-0.27-0.055-0.402-0.32-0.402z"/>
            <path id="path-18" style="fill-rule:evenodd;fill:#b1d12f" d="m8.242 1.159c-0.48-0.238-0.84-0.172-1.078 0.203-0.187 0.239-0.293 0.586-0.32 1.039-0.028 0.266 0.039 0.344 0.199 0.239 0.105-0.051 0.387-0.211 0.84-0.481 0.535-0.238 0.828-0.387 0.879-0.437 0.109-0.133-0.067-0.321-0.52-0.563z"/>
            <path id="path-19" style="fill-rule:evenodd;fill:#b1d12f" d="m3.844 0.64c-0.348 0.027-0.535 0.265-0.563 0.718-0.023 0.43 0.137 0.668 0.481 0.723 0.32 0.023 0.48-0.215 0.48-0.723 0-0.531-0.133-0.769-0.398-0.718z"/>
            <path id="path-20" style="fill-rule:evenodd;fill:#b1d12f" d="m10.922 6.882c-0.692-0.32-1.027-0.16-1 0.48 0 0.664 0.16 0.985 0.48 0.957 0.243-0.023 0.43-0.25 0.563-0.679 0.133-0.453 0.117-0.707-0.043-0.758z"/>
            <path id="path-21" style="fill-rule:evenodd;fill:#b1d12f" d="m7.121 9.319c-0.078 0.321-0.105 0.575-0.078 0.762 0.055 0.238 0.187 0.348 0.398 0.32 0.243-0.027 0.282-0.308 0.121-0.839-0.16-0.563-0.304-0.641-0.441-0.243z"/>
            <path id="path-22" style="fill-rule:evenodd;fill:#cddb32" d="m13.203 11.401c-0.265-0.535-0.48-0.535-0.641 0-0.16 0.559-0.054 0.918 0.321 1.078 0.347 0.161 0.535 0.083 0.558-0.238 0-0.269-0.078-0.547-0.238-0.84z"/>
            <path id="path-23" style="fill-rule:evenodd;fill:#e5e835" d="m19.203 22.999c-0.398-0.504-0.586-0.398-0.558 0.32 0 0.723 0.21 1.137 0.636 1.243 0.43 0.105 0.602-0.028 0.524-0.403-0.055-0.344-0.254-0.73-0.602-1.16z"/>
            <path id="path-24" style="fill-rule:evenodd;fill:#b1d12f" d="m2.082 4.921c-0.371-0.348-0.559-0.215-0.559 0.398 0 0.614 0.161 1.043 0.481 1.282 0.348 0.242 0.574 0.132 0.68-0.321 0.078-0.48-0.122-0.933-0.602-1.359z"/>
            <path id="path-25" style="fill-rule:evenodd;fill:#b0a009" d="m25.203 19.522c0.055 0.051 0.121-0.093 0.199-0.441 0.082-0.402 0.188-0.613 0.321-0.641l0.32-0.078c-0.481-0.215-0.852-0.215-1.121 0-0.184 0.16-0.238 0.344-0.16 0.559 0.082 0.211 0.226 0.414 0.441 0.601z"/>
            <path id="path-26" style="fill-rule:evenodd;fill:#b0a009" d="m22.562 13.921 0.04-0.359c0.054-0.215 0.175-0.321 0.363-0.321 0.476-0.027 0.84-0.027 1.078 0l-0.359-0.359c-0.293-0.16-0.629-0.215-1-0.16-0.243 0.023-0.36 0.211-0.36 0.558 0.024 0.348 0.106 0.559 0.238 0.641z"/>
            <path id="path-27" style="fill-rule:evenodd;fill:#a19208" d="m20.082 9.44c-0.078-0.054-0.144-0.121-0.199-0.199-0.133-0.187-0.145-0.359-0.039-0.519l0.238-0.36c-0.453-0.215-0.719-0.175-0.801 0.117-0.078 0.188-0.011 0.387 0.203 0.602 0.184 0.188 0.387 0.305 0.598 0.359z"/>
            <path id="path-28" style="fill-rule:evenodd;fill:#a19c08" d="m13.484 5.96-0.082-0.32c-0.027-0.239 0.016-0.411 0.121-0.52l0.282-0.238c-0.27-0.133-0.469-0.121-0.602 0.039s-0.187 0.387-0.16 0.68c0.027 0.32 0.176 0.441 0.441 0.359z"/>
            <path id="path-29" style="fill-rule:evenodd;fill:#b0a009" d="m20.523 19.362 0.079-0.441c0.082-0.293 0.175-0.508 0.281-0.641 0.16-0.187 0.398-0.32 0.719-0.398-0.399-0.242-0.786-0.281-1.161-0.121-0.238 0.078-0.316 0.359-0.238 0.84 0.055 0.453 0.16 0.707 0.32 0.761z"/>
            <path id="path-30" style="fill-rule:evenodd;fill:#b0a009" d="m18.922 24.28-0.117-0.238c-0.055-0.188-0.094-0.387-0.121-0.602 0-0.347 0.039-0.574 0.121-0.679-0.403 0.105-0.614 0.32-0.641 0.64 0 0.371 0.254 0.664 0.758 0.879z"/>
            <path id="path-31" style="fill-rule:evenodd;fill:#94a108" d="m12.883 10.999c-0.641 0.32-0.852 0.668-0.641 1.043l0.481 0.68 0.039-0.082c-0.024-0.078-0.106-0.211-0.239-0.399-0.214-0.32-0.093-0.734 0.36-1.242z"/>
            <path id="path-32" style="fill-rule:evenodd;fill:#a19c08" d="m6.484 4.319c-0.136-0.05-0.414 0.028-0.839 0.243-0.457 0.21-0.696 0.414-0.723 0.597-0.027 0.16 0.082 0.281 0.32 0.363 0.106 0.051 0.227 0.09 0.36 0.118l-0.079-0.239c-0.027-0.187 0.012-0.359 0.122-0.519 0.21-0.27 0.492-0.453 0.839-0.563z"/>
            <path id="path-33" style="fill-rule:evenodd;fill:#a19c08" d="m11.602 3.479-0.239-0.16c-0.133-0.16-0.16-0.293-0.082-0.398l0.16-0.281c-0.453 0.054-0.613 0.187-0.476 0.402 0.078 0.105 0.211 0.211 0.398 0.316l0.239 0.121z"/>
            <path id="path-34" style="fill-rule:evenodd;fill:#94a108" d="m17.125 11.96c-0.48 0.48-0.629 0.852-0.441 1.121 0.105 0.188 0.199 0.293 0.281 0.32 0.051 0 0.094-0.015 0.117-0.043l-0.16-0.558c-0.051-0.238 0.016-0.52 0.203-0.84z"/>
            <path id="path-35" style="fill-rule:evenodd;fill:#a19c08" d="m7.121 9.319c-0.398 0.375-0.547 0.653-0.437 0.84 0.054 0.11 0.132 0.176 0.238 0.203 0.055 0.024 0.109 0.039 0.16 0.039l-0.078-0.121c-0.055-0.105-0.016-0.426 0.117-0.961z"/>
            <path id="path-36" style="fill-rule:evenodd;fill:#a19c08" d="m1.645 4.722c-0.614 0.613-0.707 1.132-0.282 1.558 0.239 0.266 0.492 0.414 0.758 0.442 0.109 0 0.203-0.016 0.281-0.043l-0.238-0.157c-0.16-0.16-0.32-0.347-0.48-0.562-0.266-0.348-0.282-0.758-0.039-1.238z"/>
            <path id="path-37" style="fill-rule:evenodd;fill:#a19c08" d="m10.402 8.319-0.32-0.359c-0.184-0.293-0.25-0.547-0.199-0.758l0.16-0.562c-0.398 0.507-0.602 0.882-0.602 1.121 0 0.215 0.094 0.386 0.282 0.519 0.187 0.133 0.414 0.149 0.679 0.039z"/>
            <path id="path-38" style="fill-rule:evenodd;fill:#a19c08" d="m6.723 2.722v-0.243c0.054-0.183 0.132-0.386 0.242-0.597l0.519-0.84c-0.269-0.082-0.519 0.027-0.761 0.32-0.188 0.266-0.293 0.571-0.321 0.918-0.027 0.348 0.082 0.492 0.321 0.442z"/>
            <path id="path-39" style="fill-rule:evenodd;fill:#a19c08" d="m3.762 2.081-0.36-0.199c-0.187-0.16-0.226-0.348-0.121-0.563 0.16-0.347 0.348-0.574 0.563-0.679-0.535 0.054-0.867 0.281-1 0.679-0.082 0.27 0.051 0.469 0.398 0.602 0.16 0.078 0.336 0.133 0.52 0.16z"/>
          </g>
        </g>
      </g>
      <g transform="matrix(2.395159959793091, 0, 0, 2.585455894470215, 38.83693469107191, 4.143470478394141)">
        <g id="g-62" transform="matrix(1.25 0 0 -1.25 0 35.878)">
          <g id="g-63">
            <g id="g-64">
              <g id="g-65">
                <g id="g-66">
                  <path id="path-43" style="fill-rule: evenodd; fill: url(#gradient-6);" d="m24.922 28.522c1.519-0.109 2.695-0.789 3.519-2.043 0.774-1.199 1.082-2.597 0.922-4.199-0.133-1.226-0.414-2.215-0.84-2.961-0.535-0.851-0.812-1.343-0.839-1.476-0.293-1.203-1-2.242-2.122-3.121-0.48-0.375-0.757-0.641-0.839-0.801-0.133-0.348-0.36-0.801-0.68-1.359-0.613-1.067-1.801-2.293-3.563-3.68-0.21-0.188-0.691-0.653-1.437-1.403-0.746-0.746-1.281-1.238-1.602-1.48-0.371-0.293-0.839-0.598-1.398-0.918-0.32-0.187-0.785-0.453-1.402-0.801-0.106-0.082-0.465-0.398-1.079-0.961-0.453-0.425-0.96-0.718-1.519-0.879-0.426-0.132-1.105-0.48-2.039-1.039-0.934-0.558-1.707-0.922-2.32-1.082-0.801-0.215-1.668-0.32-2.602-0.32-0.824 0-1.492 0.082-2 0.242-0.824 0.321-1.574 0.934-2.238 1.84-0.989 1.305-1.11 2.652-0.364 4.039 0.75 1.387 1.922 2.574 3.524 3.563 1.121 0.718 2.238 1.222 3.359 1.519 0.985 0.266 2.266 1.184 3.84 2.758 1.52 1.336 2.547 2.281 3.078 2.84 0.828 0.883 1.469 1.773 1.922 2.679 0.375 0.856 0.602 1.403 0.68 1.641 0.375 0.961 0.933 2.016 1.679 3.16 0.719 1.067 1.321 1.801 1.801 2.199 0.586 0.508 1.282 0.95 2.078 1.321 0.989 0.508 1.817 0.746 2.481 0.722z"/>
                </g>
              </g>
            </g>
            <g id="g-67">
              <g id="g-68">
                <g id="g-69">
                  <path id="path-44" style="fill-rule: evenodd; fill: url(#gradient-7);" d="m23.562 24.319c-0.187 0.16-0.464 0.082-0.839-0.238-0.028 0-0.36-0.32-1-0.961-0.399-0.371-0.934-1.398-1.598-3.078-0.187-0.402-0.523-1.043-1-1.922-0.508-0.851-0.895-1.465-1.16-1.84-1.176-1.547-1.977-2.519-2.403-2.918-1.039-1.043-2.464-2.187-4.281-3.441-1.117-0.774-2.332-1.559-3.636-2.359l1.398 1c0.746 0.507 1.707 1.253 2.879 2.238 0.64 0.508 1.828 1.562 3.562 3.16 0.399 0.32 0.68 0.586 0.84 0.801 0.16 0.238 0.344 0.668 0.559 1.281 0.187 0.531 0.492 1.078 0.922 1.641 0.238 0.316 0.613 0.812 1.117 1.476 0.32 0.481 0.535 0.817 0.64 1 0 0.055 0.149 0.469 0.442 1.242 0.348 0.879 1.066 2.051 2.16 3.52 0.16 0.266 0.227 0.586 0.199 0.961-0.054 0.344-0.16 0.597-0.32 0.758-0.16 0.16-0.492 0.093-1-0.2s-1.012-0.746-1.52-1.359c-1.015-1.254-1.894-2.535-2.64-3.84l0.441 0.879c0.719 1.52 1.453 2.762 2.199 3.719 0.426 0.508 0.801 0.883 1.122 1.121 0.371 0.266 1.05 0.641 2.039 1.121 2.293 1.145 4.226 0.707 5.8-1.32 0.719-0.934 1.078-2.039 1.078-3.321 0-0.64-0.078-1.187-0.238-1.64-0.215 0.265-0.48 0.336-0.801 0.199-0.214-0.078-0.347-0.371-0.398-0.879-0.055-0.293-0.109-0.758-0.16-1.398-0.027-0.293-0.188-0.696-0.481-1.2-0.293-0.507-0.453-0.906-0.48-1.203-0.027-0.343-0.203-0.703-0.52-1.078-0.453-0.402-0.816-0.719-1.082-0.961-0.265-0.238-0.652-0.785-1.16-1.64-0.586-0.957-1.051-1.641-1.398-2.039-0.828-0.934-2.043-2.028-3.641-3.282l-3.359-2.597c-0.723-0.618-1.828-1.188-3.321-1.723 1.2 0.535 2.172 1.121 2.918 1.762l3.243 2.519c1.492 1.172 2.613 2.227 3.359 3.16 0.293 0.348 0.879 1.145 1.758 2.399 0.722 1.043 1.215 1.68 1.48 1.922 0.293 0.293 0.59 0.691 0.883 1.199 0.184 0.293 0.465 0.801 0.84 1.519 0.293 0.559 0.48 1.293 0.558 2.2 0.079 0.906 0.016 1.48-0.199 1.722-0.16 0.215-0.332 0.266-0.519 0.161-0.242-0.215-0.453-0.387-0.641-0.52-0.238-0.188-0.508-0.547-0.801-1.082-0.316-0.504-0.519-0.918-0.597-1.238-0.082-0.266-0.469-0.934-1.16-2-0.668-0.989-1.149-1.657-1.442-2l-4.32-5.2c-0.321-0.347-0.961-0.91-1.918-1.683-1.227-0.957-2.188-1.719-2.883-2.277-1.387-1.122-3.227-2-5.52-2.641 1.973 0.801 3.321 1.465 4.04 2 2.96 2.183 4.656 3.547 5.082 4.078 0.535 0.695 0.933 1.215 1.199 1.563 0.48 0.636 0.906 1.117 1.281 1.437 1.359 1.254 2.211 2.188 2.559 2.801 0.375 0.64 0.879 1.441 1.519 2.398 0.426 0.641 0.785 1.309 1.082 2 0.371 0.906 0.504 1.602 0.399 2.082-0.133 0.719-0.52 1.403-1.161 2.039z"/>
                </g>
              </g>
            </g>
            <g id="g-70">
              <g id="g-71">
                <g id="g-72">
                  <path id="path-45" style="fill-rule: evenodd; fill: url(#gradient-8);" d="m28.484 23.601c-0.773-0.747-1.761-0.641-2.961 0.32-1.121 0.879-1.668 1.68-1.64 2.398 0 0.723 0.293 1.27 0.879 1.641 0.695 0.453 1.547 0.281 2.562-0.52 0.985-0.8 1.52-1.601 1.598-2.398 0.082-0.613-0.067-1.094-0.438-1.441z"/>
                </g>
              </g>
            </g>
            <g id="g-73">
              <g id="g-74">
                <g id="g-75">
                  <path id="path-46" style="fill-rule: evenodd; fill: url(#gradient-9);" d="m28.363 24.319c-0.347-0.453-0.894-0.547-1.64-0.277-0.774 0.293-1.309 0.84-1.598 1.641-0.297 0.746-0.16 1.265 0.398 1.558 0.481 0.266 0.934 0.281 1.36 0.039 0.691-0.375 1.187-0.894 1.48-1.558 0.266-0.614 0.266-1.082 0-1.403z"/>
                </g>
              </g>
            </g>
            <g id="g-76">
              <g id="g-77" mask="url(#mask-4)">
                <g id="g-78">
                  <g id="g-79" clip-path="url(#clipPath106)">
                    <g id="g-80" transform="translate(0 -.29787)">
                      <g id="g-81">
                        <g id="g-82" clip-path="url(#clipPath110)">
                          <g id="g-83">
                            <g id="g-84">
                              <g id="g-85" mask="url(#mask-5)">
                                <g id="g-86">
                                  <g id="g-87" clip-path="url(#clipPath140)">
                                    <g id="g-88">
                                      <g id="g-89">
                                        <g id="g-90" clip-path="url(#clipPath144)">
                                          <g id="g-91">
                                            <path id="path-47" style="fill-rule:evenodd;fill:#000000" d="m16.203 19.777c0.375 0.856 0.602 1.403 0.68 1.641 0.375 0.961 0.933 2.016 1.679 3.16 0.719 1.067 1.321 1.801 1.801 2.199 0.586 0.508 1.282 0.95 2.078 1.321 0.989 0.507 1.817 0.746 2.481 0.722l0.723-0.121c-1.707-0.054-2.922-0.761-3.641-2.121-0.348-0.664-0.949-1.453-1.801-2.359-0.801-0.774-1.414-1.719-1.84-2.84-0.558-1.492-1.629-3.133-3.199-4.922-1.574-1.84-3.176-3.227-4.801-4.16-1.066-0.637-2.668-1.504-4.801-2.598-1.757-0.988-3.054-1.933-3.878-2.84-0.774-0.828-1.122-1.722-1.039-2.679 0.078-0.856 0.464-1.602 1.16-2.242l1.597-1.481-0.32 0.082c-0.824 0.32-1.574 0.934-2.238 1.84-0.989 1.305-1.106 2.652-0.36 4.039s1.918 2.574 3.52 3.562c1.117 0.719 2.238 1.223 3.359 1.52 0.985 0.266 2.266 1.184 3.84 2.758 1.52 1.336 2.547 2.281 3.078 2.84 0.828 0.882 1.469 1.773 1.922 2.679z"/>
                                          </g>
                                        </g>
                                      </g>
                                    </g>
                                  </g>
                                </g>
                              </g>
                            </g>
                          </g>
                        </g>
                      </g>
                    </g>
                  </g>
                </g>
              </g>
            </g>
            <g id="g-92">
              <g id="g-93" mask="url(#mask-6)">
                <g id="g-94">
                  <g id="g-95" clip-path="url(#clipPath206)">
                    <g id="g-96" transform="translate(0 -.29787)">
                      <g id="g-97">
                        <g id="g-98" clip-path="url(#clipPath210)">
                          <g id="g-99">
                            <g id="g-100">
                              <g id="g-101">
                                <g id="g-102">
                                  <path id="path-48" style="fill-rule: evenodd; fill: url(#gradient-10);" d="m25.883 23.137c0.48 0.215 0.574-0.973 0.281-3.559-0.105-1.066-1.215-2.894-3.32-5.48-0.403-0.504-1.067-1.239-2-2.2-1.067-1.066-1.735-1.746-2-2.039-0.696-0.773-2.375-2.226-5.039-4.359-0.641-0.508-1.789-1.109-3.442-1.801-1.492-0.586-2.547-0.933-3.16-1.039-1.332-0.43-2.305-0.613-2.922-0.562-0.957 0.105-1.316 0.961-1.078 2.562 0.238 1.625 0.762 2.492 1.559 2.598 0.668 0.082 2.226 1.027 4.679 2.84 2.27 1.679 3.774 2.922 4.524 3.722 0.426 0.45 1.476 1.438 3.16 2.957 1.68 1.547 2.68 2.496 3 2.84 0.504 0.563 1.543 1.281 3.117 2.16 0.828 0.426 1.707 0.883 2.641 1.36z"/>
                                </g>
                              </g>
                            </g>
                          </g>
                        </g>
                      </g>
                    </g>
                  </g>
                </g>
              </g>
            </g>
            <path id="path-49" style="fill-rule:evenodd;fill:#cddb32" d="m21.082 8.96c-0.559-0.641-0.957-0.773-1.199-0.398-0.266 0.398-0.121 0.773 0.441 1.117 0.481 0.293 0.813 0.347 1 0.16 0.184-0.184 0.106-0.477-0.242-0.879z"/>
            <path id="path-50" style="fill-rule:evenodd;fill:#e5e835" d="m23.281 13.202c-0.851 0.32-0.89 0.774-0.117 1.36 0.824 0.613 1.32 0.718 1.481 0.32 0.132-0.375 0.039-0.774-0.282-1.203-0.32-0.477-0.679-0.637-1.082-0.477z"/>
            <path id="path-51" style="fill-rule:evenodd;fill:#e5e835" d="m25.484 18.64c-0.562 0.535-0.468 0.972 0.278 1.32 0.773 0.348 1.203 0.348 1.281 0 0.109-0.32-0.039-0.707-0.441-1.16-0.399-0.453-0.774-0.504-1.118-0.16z"/>
            <path id="path-52" style="fill-rule:evenodd;fill:#e5e835" d="m22.324 17.999c-0.933-0.504-1.535-0.051-1.801 1.363-0.027 0.184 0.133 0.227 0.481 0.117 0.215-0.05 0.613-0.183 1.199-0.398 0.828-0.293 0.867-0.652 0.121-1.082z"/>
            <path id="path-53" style="fill-rule:evenodd;fill:#b1d12f" d="m13.441 5.722c0.028 0.32 0.254 0.371 0.684 0.16 0.426-0.242 0.57-0.469 0.437-0.684-0.16-0.265-0.398-0.371-0.718-0.316-0.321 0.078-0.453 0.359-0.403 0.84z"/>
            <path id="path-54" style="fill-rule:evenodd;fill:#b1d12f" d="m5.602 5.64h0.839c0.27-0.028 0.414-0.145 0.442-0.36 0.055-0.32-0.028-0.574-0.238-0.758-0.215-0.214-0.469-0.187-0.762 0.079-0.321 0.293-0.492 0.546-0.52 0.761-0.027 0.184 0.055 0.278 0.239 0.278z"/>
            <path id="path-55" style="fill-rule:evenodd;fill:#cddb32" d="m18.004 12.159c-0.508-0.371-0.852-0.305-1.039 0.203-0.188 0.532-0.149 0.867 0.117 1 0.215 0.106 0.469-0.043 0.762-0.441 0.293-0.375 0.347-0.625 0.16-0.762z"/>
            <path id="path-56" style="fill-rule:evenodd;fill:#b1d12f" d="m11.723 2.64c-0.321 0-0.481 0.148-0.481 0.441 0.028 0.293 0.149 0.426 0.36 0.398 0.214-0.023 0.363-0.171 0.441-0.437 0.055-0.27-0.055-0.402-0.32-0.402z"/>
            <path id="path-57" style="fill-rule:evenodd;fill:#b1d12f" d="m8.242 1.159c-0.48-0.238-0.84-0.172-1.078 0.203-0.187 0.239-0.293 0.586-0.32 1.039-0.028 0.266 0.039 0.344 0.199 0.239 0.105-0.051 0.387-0.211 0.84-0.481 0.535-0.238 0.828-0.387 0.879-0.437 0.109-0.133-0.067-0.321-0.52-0.563z"/>
            <path id="path-58" style="fill-rule:evenodd;fill:#b1d12f" d="m3.844 0.64c-0.348 0.027-0.535 0.265-0.563 0.718-0.023 0.43 0.137 0.668 0.481 0.723 0.32 0.023 0.48-0.215 0.48-0.723 0-0.531-0.133-0.769-0.398-0.718z"/>
            <path id="path-59" style="fill-rule:evenodd;fill:#b1d12f" d="m10.922 6.882c-0.692-0.32-1.027-0.16-1 0.48 0 0.664 0.16 0.985 0.48 0.957 0.243-0.023 0.43-0.25 0.563-0.679 0.133-0.453 0.117-0.707-0.043-0.758z"/>
            <path id="path-60" style="fill-rule:evenodd;fill:#b1d12f" d="m7.121 9.319c-0.078 0.321-0.105 0.575-0.078 0.762 0.055 0.238 0.187 0.348 0.398 0.32 0.243-0.027 0.282-0.308 0.121-0.839-0.16-0.563-0.304-0.641-0.441-0.243z"/>
            <path id="path-61" style="fill-rule:evenodd;fill:#cddb32" d="m13.203 11.401c-0.265-0.535-0.48-0.535-0.641 0-0.16 0.559-0.054 0.918 0.321 1.078 0.347 0.161 0.535 0.083 0.558-0.238 0-0.269-0.078-0.547-0.238-0.84z"/>
            <path id="path-62" style="fill-rule:evenodd;fill:#e5e835" d="m19.203 22.999c-0.398-0.504-0.586-0.398-0.558 0.32 0 0.723 0.21 1.137 0.636 1.243 0.43 0.105 0.602-0.028 0.524-0.403-0.055-0.344-0.254-0.73-0.602-1.16z"/>
            <path id="path-63" style="fill-rule:evenodd;fill:#b1d12f" d="m2.082 4.921c-0.371-0.348-0.559-0.215-0.559 0.398 0 0.614 0.161 1.043 0.481 1.282 0.348 0.242 0.574 0.132 0.68-0.321 0.078-0.48-0.122-0.933-0.602-1.359z"/>
            <path id="path-64" style="fill-rule:evenodd;fill:#b0a009" d="m25.203 19.522c0.055 0.051 0.121-0.093 0.199-0.441 0.082-0.402 0.188-0.613 0.321-0.641l0.32-0.078c-0.481-0.215-0.852-0.215-1.121 0-0.184 0.16-0.238 0.344-0.16 0.559 0.082 0.211 0.226 0.414 0.441 0.601z"/>
            <path id="path-65" style="fill-rule:evenodd;fill:#b0a009" d="m22.562 13.921 0.04-0.359c0.054-0.215 0.175-0.321 0.363-0.321 0.476-0.027 0.84-0.027 1.078 0l-0.359-0.359c-0.293-0.16-0.629-0.215-1-0.16-0.243 0.023-0.36 0.211-0.36 0.558 0.024 0.348 0.106 0.559 0.238 0.641z"/>
            <path id="path-66" style="fill-rule:evenodd;fill:#a19208" d="m20.082 9.44c-0.078-0.054-0.144-0.121-0.199-0.199-0.133-0.187-0.145-0.359-0.039-0.519l0.238-0.36c-0.453-0.215-0.719-0.175-0.801 0.117-0.078 0.188-0.011 0.387 0.203 0.602 0.184 0.188 0.387 0.305 0.598 0.359z"/>
            <path id="path-67" style="fill-rule:evenodd;fill:#a19c08" d="m13.484 5.96-0.082-0.32c-0.027-0.239 0.016-0.411 0.121-0.52l0.282-0.238c-0.27-0.133-0.469-0.121-0.602 0.039s-0.187 0.387-0.16 0.68c0.027 0.32 0.176 0.441 0.441 0.359z"/>
            <path id="path-68" style="fill-rule:evenodd;fill:#b0a009" d="m20.523 19.362 0.079-0.441c0.082-0.293 0.175-0.508 0.281-0.641 0.16-0.187 0.398-0.32 0.719-0.398-0.399-0.242-0.786-0.281-1.161-0.121-0.238 0.078-0.316 0.359-0.238 0.84 0.055 0.453 0.16 0.707 0.32 0.761z"/>
            <path id="path-69" style="fill-rule:evenodd;fill:#b0a009" d="m18.922 24.28-0.117-0.238c-0.055-0.188-0.094-0.387-0.121-0.602 0-0.347 0.039-0.574 0.121-0.679-0.403 0.105-0.614 0.32-0.641 0.64 0 0.371 0.254 0.664 0.758 0.879z"/>
            <path id="path-70" style="fill-rule:evenodd;fill:#94a108" d="m12.883 10.999c-0.641 0.32-0.852 0.668-0.641 1.043l0.481 0.68 0.039-0.082c-0.024-0.078-0.106-0.211-0.239-0.399-0.214-0.32-0.093-0.734 0.36-1.242z"/>
            <path id="path-71" style="fill-rule:evenodd;fill:#a19c08" d="m6.484 4.319c-0.136-0.05-0.414 0.028-0.839 0.243-0.457 0.21-0.696 0.414-0.723 0.597-0.027 0.16 0.082 0.281 0.32 0.363 0.106 0.051 0.227 0.09 0.36 0.118l-0.079-0.239c-0.027-0.187 0.012-0.359 0.122-0.519 0.21-0.27 0.492-0.453 0.839-0.563z"/>
            <path id="path-72" style="fill-rule:evenodd;fill:#a19c08" d="m11.602 3.479-0.239-0.16c-0.133-0.16-0.16-0.293-0.082-0.398l0.16-0.281c-0.453 0.054-0.613 0.187-0.476 0.402 0.078 0.105 0.211 0.211 0.398 0.316l0.239 0.121z"/>
            <path id="path-73" style="fill-rule:evenodd;fill:#94a108" d="m17.125 11.96c-0.48 0.48-0.629 0.852-0.441 1.121 0.105 0.188 0.199 0.293 0.281 0.32 0.051 0 0.094-0.015 0.117-0.043l-0.16-0.558c-0.051-0.238 0.016-0.52 0.203-0.84z"/>
            <path id="path-74" style="fill-rule:evenodd;fill:#a19c08" d="m7.121 9.319c-0.398 0.375-0.547 0.653-0.437 0.84 0.054 0.11 0.132 0.176 0.238 0.203 0.055 0.024 0.109 0.039 0.16 0.039l-0.078-0.121c-0.055-0.105-0.016-0.426 0.117-0.961z"/>
            <path id="path-75" style="fill-rule:evenodd;fill:#a19c08" d="m1.645 4.722c-0.614 0.613-0.707 1.132-0.282 1.558 0.239 0.266 0.492 0.414 0.758 0.442 0.109 0 0.203-0.016 0.281-0.043l-0.238-0.157c-0.16-0.16-0.32-0.347-0.48-0.562-0.266-0.348-0.282-0.758-0.039-1.238z"/>
            <path id="path-76" style="fill-rule:evenodd;fill:#a19c08" d="m10.402 8.319-0.32-0.359c-0.184-0.293-0.25-0.547-0.199-0.758l0.16-0.562c-0.398 0.507-0.602 0.882-0.602 1.121 0 0.215 0.094 0.386 0.282 0.519 0.187 0.133 0.414 0.149 0.679 0.039z"/>
            <path id="path-77" style="fill-rule:evenodd;fill:#a19c08" d="m6.723 2.722v-0.243c0.054-0.183 0.132-0.386 0.242-0.597l0.519-0.84c-0.269-0.082-0.519 0.027-0.761 0.32-0.188 0.266-0.293 0.571-0.321 0.918-0.027 0.348 0.082 0.492 0.321 0.442z"/>
            <path id="path-78" style="fill-rule:evenodd;fill:#a19c08" d="m3.762 2.081-0.36-0.199c-0.187-0.16-0.226-0.348-0.121-0.563 0.16-0.347 0.348-0.574 0.563-0.679-0.535 0.054-0.867 0.281-1 0.679-0.082 0.27 0.051 0.469 0.398 0.602 0.16 0.078 0.336 0.133 0.52 0.16z"/>
          </g>
        </g>
      </g>
    </pattern>
    <pattern id="pattern-5-0" patternTransform="matrix(2.388005, 0, 0, 1.511371, 279.689972, 235.206268)" xlink:href="#pattern-5"/>
    <linearGradient id="linearGradient24" y2="-23.064" gradientUnits="userSpaceOnUse" x2="-.4445" gradientTransform="matrix(-.76448 -.23568 -.23568 .76448 -.23666 28.721)" y1="-23.064" x1="-24.8">
      <stop id="stop26" style="stop-color:#b8b306" offset="0"/>
      <stop id="stop28" style="stop-color:#8ca104" offset="1"/>
    </linearGradient>
    <linearGradient id="linearGradient42" y2="-26.589" gradientUnits="userSpaceOnUse" x2="11.835" gradientTransform="matrix(-.62328 -.50144 -.50144 .62328 -.23658 28.721)" y1="-26.589" x1="-26.437">
      <stop id="stop44" style="stop-color:#dbd50f" offset="0"/>
      <stop id="stop46" style="stop-color:#b7d106" offset="1"/>
    </linearGradient>
    <radialGradient id="radialGradient60" gradientUnits="userSpaceOnUse" cy="-25.419" cx="-24.208" gradientTransform="matrix(-.62288 -.502 .502 -.62288 25.285 -2.9459)" r="5.3783">
      <stop id="stop62" style="stop-color:#ede824" offset="0"/>
      <stop id="stop64" style="stop-color:#e3e10f" offset="1"/>
    </radialGradient>
    <radialGradient id="radialGradient78" gradientUnits="userSpaceOnUse" cy="-25.287" cx="-24.31" gradientTransform="matrix(-.6224 -.50264 .50264 -.6224 25.182 -2.7563)" r="3.84">
      <stop id="stop80" style="stop-color:#fffb42" offset="0"/>
      <stop id="stop82" style="stop-color:#f2f010" offset="1"/>
    </radialGradient>
    <mask id="mask94">
      <g id="g96">
        <g id="g98" clip-path="url(#clipPath90)">
          <path id="path100" style="fill:#000000;fill-opacity:.17970" d="m0-0.29787h30v29h-30v-29z"/>
        </g>
      </g>
    </mask>
    <mask id="mask122">
      <g id="g124">
        <g id="g126" clip-path="url(#clipPath114)">
          <g id="g128">
            <g id="g132">
              <g id="g134" clip-path="url(#clipPath118)">
                <g id="g136">
                  <path id="path138" style="fill-rule:evenodd;fill:#000000" d="m16.203 19.777c0.375 0.856 0.602 1.403 0.68 1.641 0.375 0.961 0.933 2.016 1.679 3.16 0.719 1.067 1.321 1.801 1.801 2.199 0.586 0.508 1.282 0.95 2.078 1.321 0.989 0.507 1.817 0.746 2.481 0.722l0.723-0.121c-1.707-0.054-2.922-0.761-3.641-2.121-0.348-0.664-0.949-1.453-1.801-2.359-0.801-0.774-1.414-1.719-1.84-2.84-0.558-1.492-1.629-3.133-3.199-4.922-1.574-1.84-3.176-3.227-4.801-4.16-1.066-0.637-2.668-1.504-4.801-2.598-1.757-0.988-3.054-1.933-3.878-2.84-0.774-0.828-1.122-1.722-1.039-2.679 0.078-0.856 0.464-1.602 1.16-2.242l1.597-1.481-0.32 0.082c-0.824 0.32-1.574 0.934-2.238 1.84-0.989 1.305-1.106 2.652-0.36 4.039s1.918 2.574 3.52 3.562c1.117 0.719 2.238 1.223 3.359 1.52 0.985 0.266 2.266 1.184 3.84 2.758 1.52 1.336 2.547 2.281 3.078 2.84 0.828 0.882 1.469 1.773 1.922 2.679z"/>
                </g>
              </g>
            </g>
          </g>
        </g>
      </g>
    </mask>
    <mask id="mask194">
      <g id="g196">
        <g id="g198" clip-path="url(#clipPath190)">
          <path id="path200" style="fill:#000000;fill-opacity:.48050" d="m3 1.7021h24v22h-24v-22z"/>
        </g>
      </g>
    </mask>
    <linearGradient id="linearGradient218" y2="-18.268" gradientUnits="userSpaceOnUse" x2="18.503" gradientTransform="matrix(.8 0 0 .8 3.1631 23.139)" y1="-11.068" x1="13.178">
      <stop id="stop220" style="stop-color:#f4ff7d" offset="0"/>
      <stop id="stop222" style="stop-color:#000000" offset="1"/>
    </linearGradient>
    <linearGradient id="gradient-1" y2="-23.064" gradientUnits="userSpaceOnUse" x2="-.4445" gradientTransform="matrix(-.76448 -.23568 -.23568 .76448 -.23666 28.721)" y1="-23.064" x1="-24.8">
      <stop id="stop-1" style="stop-color:#b8b306" offset="0"/>
      <stop id="stop-2" style="stop-color:#8ca104" offset="1"/>
    </linearGradient>
    <linearGradient id="gradient-2" y2="-26.589" gradientUnits="userSpaceOnUse" x2="11.835" gradientTransform="matrix(-.62328 -.50144 -.50144 .62328 -.23658 28.721)" y1="-26.589" x1="-26.437">
      <stop id="stop-3" style="stop-color:#dbd50f" offset="0"/>
      <stop id="stop-4" style="stop-color:#b7d106" offset="1"/>
    </linearGradient>
    <radialGradient id="gradient-3" gradientUnits="userSpaceOnUse" cy="-25.419" cx="-24.208" gradientTransform="matrix(-.62288 -.502 .502 -.62288 25.285 -2.9459)" r="5.3783">
      <stop id="stop-5" style="stop-color:#ede824" offset="0"/>
      <stop id="stop-6" style="stop-color:#e3e10f" offset="1"/>
    </radialGradient>
    <radialGradient id="gradient-4" gradientUnits="userSpaceOnUse" cy="-25.287" cx="-24.31" gradientTransform="matrix(-.6224 -.50264 .50264 -.6224 25.182 -2.7563)" r="3.84">
      <stop id="stop-7" style="stop-color:#fffb42" offset="0"/>
      <stop id="stop-8" style="stop-color:#f2f010" offset="1"/>
    </radialGradient>
    <mask id="mask-1">
      <g id="g-1">
        <g id="g-2" clip-path="url(#clipPath90)">
          <path id="path-1" style="fill:#000000;fill-opacity:.17970" d="m0-0.29787h30v29h-30v-29z"/>
        </g>
      </g>
    </mask>
    <mask id="mask-2">
      <g id="g-3">
        <g id="g-4" clip-path="url(#clipPath114)">
          <g id="g-5">
            <g id="g-6">
              <g id="g-7" clip-path="url(#clipPath118)">
                <g id="g-8">
                  <path id="path-2" style="fill-rule:evenodd;fill:#000000" d="m16.203 19.777c0.375 0.856 0.602 1.403 0.68 1.641 0.375 0.961 0.933 2.016 1.679 3.16 0.719 1.067 1.321 1.801 1.801 2.199 0.586 0.508 1.282 0.95 2.078 1.321 0.989 0.507 1.817 0.746 2.481 0.722l0.723-0.121c-1.707-0.054-2.922-0.761-3.641-2.121-0.348-0.664-0.949-1.453-1.801-2.359-0.801-0.774-1.414-1.719-1.84-2.84-0.558-1.492-1.629-3.133-3.199-4.922-1.574-1.84-3.176-3.227-4.801-4.16-1.066-0.637-2.668-1.504-4.801-2.598-1.757-0.988-3.054-1.933-3.878-2.84-0.774-0.828-1.122-1.722-1.039-2.679 0.078-0.856 0.464-1.602 1.16-2.242l1.597-1.481-0.32 0.082c-0.824 0.32-1.574 0.934-2.238 1.84-0.989 1.305-1.106 2.652-0.36 4.039s1.918 2.574 3.52 3.562c1.117 0.719 2.238 1.223 3.359 1.52 0.985 0.266 2.266 1.184 3.84 2.758 1.52 1.336 2.547 2.281 3.078 2.84 0.828 0.882 1.469 1.773 1.922 2.679z"/>
                </g>
              </g>
            </g>
          </g>
        </g>
      </g>
    </mask>
    <mask id="mask-3">
      <g id="g-9">
        <g id="g-10" clip-path="url(#clipPath190)">
          <path id="path-3" style="fill:#000000;fill-opacity:.48050" d="m3 1.7021h24v22h-24v-22z"/>
        </g>
      </g>
    </mask>
    <linearGradient id="gradient-5" y2="-18.268" gradientUnits="userSpaceOnUse" x2="18.503" gradientTransform="matrix(.8 0 0 .8 3.1631 23.139)" y1="-11.068" x1="13.178">
      <stop id="stop-9" style="stop-color:#f4ff7d" offset="0"/>
      <stop id="stop-10" style="stop-color:#000000" offset="1"/>
    </linearGradient>
    <linearGradient id="gradient-6" y2="-23.064" gradientUnits="userSpaceOnUse" x2="-.4445" gradientTransform="matrix(-.76448 -.23568 -.23568 .76448 -.23666 28.721)" y1="-23.064" x1="-24.8">
      <stop id="stop-11" style="stop-color:#b8b306" offset="0"/>
      <stop id="stop-12" style="stop-color:#8ca104" offset="1"/>
    </linearGradient>
    <linearGradient id="gradient-7" y2="-26.589" gradientUnits="userSpaceOnUse" x2="11.835" gradientTransform="matrix(-.62328 -.50144 -.50144 .62328 -.23658 28.721)" y1="-26.589" x1="-26.437">
      <stop id="stop-13" style="stop-color:#dbd50f" offset="0"/>
      <stop id="stop-14" style="stop-color:#b7d106" offset="1"/>
    </linearGradient>
    <radialGradient id="gradient-8" gradientUnits="userSpaceOnUse" cy="-25.419" cx="-24.208" gradientTransform="matrix(-.62288 -.502 .502 -.62288 25.285 -2.9459)" r="5.3783">
      <stop id="stop-15" style="stop-color:#ede824" offset="0"/>
      <stop id="stop-16" style="stop-color:#e3e10f" offset="1"/>
    </radialGradient>
    <radialGradient id="gradient-9" gradientUnits="userSpaceOnUse" cy="-25.287" cx="-24.31" gradientTransform="matrix(-.6224 -.50264 .50264 -.6224 25.182 -2.7563)" r="3.84">
      <stop id="stop-17" style="stop-color:#fffb42" offset="0"/>
      <stop id="stop-18" style="stop-color:#f2f010" offset="1"/>
    </radialGradient>
    <mask id="mask-4">
      <g id="g-52">
        <g id="g-53" clip-path="url(#clipPath90)">
          <path id="path-40" style="fill:#000000;fill-opacity:.17970" d="m0-0.29787h30v29h-30v-29z"/>
        </g>
      </g>
    </mask>
    <mask id="mask-5">
      <g id="g-54">
        <g id="g-55" clip-path="url(#clipPath114)">
          <g id="g-56">
            <g id="g-57">
              <g id="g-58" clip-path="url(#clipPath118)">
                <g id="g-59">
                  <path id="path-41" style="fill-rule:evenodd;fill:#000000" d="m16.203 19.777c0.375 0.856 0.602 1.403 0.68 1.641 0.375 0.961 0.933 2.016 1.679 3.16 0.719 1.067 1.321 1.801 1.801 2.199 0.586 0.508 1.282 0.95 2.078 1.321 0.989 0.507 1.817 0.746 2.481 0.722l0.723-0.121c-1.707-0.054-2.922-0.761-3.641-2.121-0.348-0.664-0.949-1.453-1.801-2.359-0.801-0.774-1.414-1.719-1.84-2.84-0.558-1.492-1.629-3.133-3.199-4.922-1.574-1.84-3.176-3.227-4.801-4.16-1.066-0.637-2.668-1.504-4.801-2.598-1.757-0.988-3.054-1.933-3.878-2.84-0.774-0.828-1.122-1.722-1.039-2.679 0.078-0.856 0.464-1.602 1.16-2.242l1.597-1.481-0.32 0.082c-0.824 0.32-1.574 0.934-2.238 1.84-0.989 1.305-1.106 2.652-0.36 4.039s1.918 2.574 3.52 3.562c1.117 0.719 2.238 1.223 3.359 1.52 0.985 0.266 2.266 1.184 3.84 2.758 1.52 1.336 2.547 2.281 3.078 2.84 0.828 0.882 1.469 1.773 1.922 2.679z"/>
                </g>
              </g>
            </g>
          </g>
        </g>
      </g>
    </mask>
    <mask id="mask-6">
      <g id="g-60">
        <g id="g-61" clip-path="url(#clipPath190)">
          <path id="path-42" style="fill:#000000;fill-opacity:.48050" d="m3 1.7021h24v22h-24v-22z"/>
        </g>
      </g>
    </mask>
    <linearGradient id="gradient-10" y2="-18.268" gradientUnits="userSpaceOnUse" x2="18.503" gradientTransform="matrix(.8 0 0 .8 3.1631 23.139)" y1="-11.068" x1="13.178">
      <stop id="stop-19" style="stop-color:#f4ff7d" offset="0"/>
      <stop id="stop-20" style="stop-color:#000000" offset="1"/>
    </linearGradient>
    <pattern id="pattern-5-1" patternTransform="matrix(1, 0, 0, 1, 10.977498, 7.852501)" xlink:href="#pattern-5"/>
    <pattern id="pattern-0-20" patternTransform="matrix(1, 0, 0, 1, 38.317497, 53.301998)" xlink:href="#pattern-0"/>
    <pattern id="pattern-2-0" patternTransform="matrix(1, 0, 0, 1, 5.545, 14.84)" xlink:href="#pattern-2"/>
    <pattern id="pattern-2-1" patternTransform="matrix(1, 0, 0, 1, 72.211998, 33.269001)" xlink:href="#pattern-2"/>
    <pattern id="pattern-5-2" patternTransform="matrix(1, 0, 0, 1, -13.300999, 49.839993)" xlink:href="#pattern-5"/>
  </defs>
  <rect transform="matrix(1.000011, 0, 0, 1, 167.386105, 532.028564)" x="348.377" y="263.11" width="5.481" height="3.654" style="fill: url(#pattern-0-0);"/>
  <rect transform="matrix(NaN, NaN, NaN, NaN, NaN, NaN)" style="fill: url(#pattern-0-3);"/>
  <rect transform="matrix(NaN, NaN, NaN, NaN, NaN, NaN)" style="fill: url(#pattern-0-4);"/>
  <rect transform="matrix(NaN, NaN, NaN, NaN, NaN, NaN)" style="fill: url(#pattern-0-9);"/>
  <rect style="stroke: url(#pattern-0-5); fill: url(#pattern-0-10);" transform="matrix(1, 0, 0, 0.999998, 167.390031, 532.028853)" x="60.296" y="152.872" width="18.881" height="17.053"/>
  <rect style="stroke: url(#pattern-0-1); fill: url(#pattern-0-11);" x="224.032" y="736.061" width="46.288" height="34.716"/>
  <rect style="stroke: url(#pattern-0-2); fill: url(#pattern-0-12);" transform="matrix(1, 0, 0, 1.000002, 167.389994, 532.028244)" x="73.086" y="179.67" width="27.407" height="18.881"/>
  <rect style="stroke-opacity: 0; stroke: url(#pattern-0-6); fill: url(#pattern-0-13);" transform="matrix(0.999999, 0, 0, 1, 167.39005, 532.028564)" x="65.778" y="124.246" width="28.016" height="20.099"/>
  <polygon style="stroke-opacity: 0; stroke: url(#pattern-0-7); fill: url(#pattern-0-14);" points="273.974 661.756 287.373 669.674 285.546 686.728 266.665 682.464"/>
  <rect style="stroke: url(#pattern-1); fill: url(#pattern-0-15);" transform="matrix(0.908734, 0.417376, 0.220662, 1.201778, 138.058651, 518.384652)" x="61.319" y="124.174" width="19.201" height="13.852"/>
  <rect style="stroke: url(#pattern-3); fill: url(#pattern-0-16);" x="388.875" y="616.684" width="47.074" height="28.199" transform="matrix(0.908732, 0.417379, 0.22066, 1.201782, -262.487429, -161.829953)"/>
  <rect style="stroke: url(#pattern-4); fill: url(#pattern-0-17);" transform="matrix(0.908733, 0.417376, 0.220661, 1.201781, 138.058602, 518.38301)" x="74.326" y="145.942" width="27.872" height="15.336"/>
  <rect style="stroke-opacity: 0; stroke: url(#pattern-0-8); fill: url(#pattern-0-18);" x="398.168" y="551.871" width="28.491" height="16.326" transform="matrix(0.908732, 0.417381, 0.220659, 1.201779, -262.485897, -161.824931)"/>
  <polygon style="stroke-opacity: 0; stroke: url(#pattern-6); fill: url(#pattern-0-19);" points="213.475 714.449 228.527 719.93 230.195 731.739 210.401 728.786" transform="matrix(0.992845, -0.11941, 0.11941, 0.992845, -84.768409, 31.479493)"/>
</svg>