<?xml version="1.0" encoding="utf-8"?>

<!DOCTYPE svg PUBLIC "-//W3C//DTD SVG 1.1//EN" "http://www.w3.org/Graphics/SVG/1.1/DTD/svg11.dtd">
<svg version="1.1" id="Layer_1" xmlns="http://www.w3.org/2000/svg" xmlns:xlink="http://www.w3.org/1999/xlink" x="0px" y="0px"
	 viewBox="0 0 2680.191 1145.098" enable-background="new 0 0 2680.191 1145.098" xml:space="preserve">
<g>
	<path d="M683.478,403.893c82.541-2.283,165.103-17.103,238.174-50.93c17.71-8.198,35.503-16.207,52.714-25.427
		c6.768-3.626,13.206-7.783,19.187-12.629c2.172-1.76,2.578-3.189-0.362-4.519c-2.539-1.148-5.029-2.405-7.531-3.632
		c-15.049-7.379-25.404-26.265-22.382-42.86c1.209-6.641,0.844-6.671-6.01-7.621c-6.7-0.929-13.105-3.054-19.573-4.927
		c-3.002-0.869-4.56-2.698-5.165-5.825c-4.874-25.203-13.76-49.158-22.838-73.055c-0.761-2.002-2.885-4.318-0.758-6.338
		c1.619-1.537,3.983-0.311,5.995,0.123c10.72,2.313,20.908,6.221,30.955,10.499c2.806,1.195,4.671,1.116,6.253-1.871
		c8.985-16.965,23.989-27.434,40.089-36.607c13.901-7.921,28.811-12.813,44.801-14.318c5.358-0.504,5.411-0.627,5.967-6.419
		c0.869-9.062,2.64-17.915,5.863-26.445c0.737-1.952,1.493-3.931,2.541-5.722c1.232-2.107,1.624-5.576,4.646-5.484
		c2.702,0.083,2.738,3.388,3.635,5.392c2.9,6.482,7.479,11.742,12.107,16.946c6.339,7.129,13.283,13.664,20.519,19.872
		c6.586,5.651,12.097,12.158,16.695,19.515c5.025,8.04,10.957,15.473,13.754,24.855c1.685,5.655,6.002,9.965,10.825,13.346
		c10.745,7.531,16.491,17.958,18.677,30.67c0.707,4.115,1.687,8.191,2.71,12.242c2.034,8.055,6.94,13.638,14.93,16.079
		c39.921,12.199,81.867,17.326,123.55,16.783c39.752-0.517,81.448-4.441,118.16-19.572
		c94.111-38.788,176.544-99.081,269.881-140.016c37.384-16.396,76.006-27.568,115.968-36.299
		c18.778-4.101,37.753-4.656,56.843-3.339c3.477,0.24,6.984,0.311,10.417,0.846c2.403,0.375,5.838,0.391,6.189,3.421
		c0.356,3.069-2.897,3.961-5.272,4.613c-5.815,1.595-11.697,2.966-17.594,4.231c-3.398,0.729-6.87,1.134-10.323,1.575
		c-2.351,0.3-3.757-0.407-2.552-3.104c1.497-3.351-0.335-4.215-3.172-4.172c-11.682,0.174-23.157,1.603-34.137,5.868
		c-2.649,1.029-4.892,2.719-6.804,4.759c-2.276,2.428-1.953,3.994,1.22,5.065c3.065,1.035,6.251,1.907,9.452,2.319
		c19.81,2.546,39.463,6.178,59.367,8.102c29.595,2.86,59.169,6.041,88.595,10.308c34.007,4.93,67.925,10.396,101.522,17.8
		c30.622,6.749,61.23,13.564,90.972,23.538c30.581,10.255,61.299,20.13,91.165,32.485c15.218,6.296,30.831,11.69,46.017,18.113
		c18.181,7.69,36.146,15.824,53.647,25.02c85.431,44.89,165.219,96.065,234.279,164.233c13.763,13.585,24.738,27.325,34.833,43.834
		c5.955,9.738,10.878,20.001,14.949,30.63c2.585,6.749,3.924,13.849,2.365,21.145c-0.302,1.417,0.32,3.745-2.084,3.683
		c-1.542-0.039-1.886-1.869-2.266-3.17c-2.243-7.684-6.193-14.473-10.699-21.013c-10.912-15.836-26.261-26.063-43.222-34.196
		c-18.636-8.937-38.629-13.314-58.884-16.227c-38.315-5.509-76.84-5.936-115.432-3.562c-18.087,1.113-36.155,2.413-54.189,4.211
		c-14.573,1.452-28.987,3.936-43.42,6.301c-31.281,5.124-61.418,14.634-91.168,25.138c-23.23,8.202-45.203,19.427-66.27,32.335
		c-11.707,7.173-23.135,14.679-33.762,23.407c-10.945,8.989-19.874,19.475-25.67,32.512c-1.805,4.06-2.166,4.129-6.998,2.082
		c-21.49-9.103-43.973-10.741-66.958-9.355c-31.231,1.884-60.773,10.418-89.461,22.314c-25.739,10.674-51.672,20.905-76.593,33.478
		c-19.361,9.768-37.419,21.621-55.041,34.122c-21.652,15.36-42.483,32.053-62.381,49.621c-11.021,9.73-25.626,22.369-29.88,36.88
		c-4.843,16.524,4.157,35.827,13.055,49.269c12.533,18.934,26.233,38.274,41.276,55.791c7.84,9.13,16.119,17.887,24.91,26.107
		c10.528,9.844,15.985,12.599,30.728,10.186c3.304-0.541,4.819-2.793,4.765-5.903c-0.049-2.766-0.601-5.525-0.945-8.285
		c-2.057-16.501-22.973-40.815-41.855-41.785c-0.464-0.024-0.945-0.001-1.386-0.119c-0.85-0.227-1.906-0.261-1.969-1.513
		c-0.058-1.162,0.875-1.644,1.681-1.916c5.033-1.699,10.159-0.995,15.104,0.14c12.212,2.803,22.202,9.471,29.952,19.168
		c5.52,6.906,9.964,14.57,12.678,23.102c0.351,1.103,0.749,2.194,1.193,3.262c0.397,0.954,1.182,1.453,2.193,1.158
		c0.963-0.281,1.433-1.141,1.686-2.062c0.476-1.73-0.469-3.165-1.077-4.649c-5.077-12.407-12.279-23.435-21.668-33.001
		c-8.809-8.974-18.21-17.258-28.672-24.298c-1.396-0.939-4.12-1.702-2.839-3.963c1.009-1.782,3.395-0.837,5.168-0.356
		c5.452,1.48,10.319,4.215,14.939,7.358c17.008,11.57,32.666,24.604,44.599,41.621c0.666,0.95,1.341,1.896,2.069,2.799
		c0.454,0.563,1.251,0.963,1.773,0.497c0.385-0.343,0.534-1.311,0.357-1.861c-0.64-1.984-1.263-4.017-2.247-5.841
		c-10.877-20.166-25.253-37.228-44.572-49.854c-1.36-0.889-2.794-1.664-4.184-2.509c-1.581-0.961-3.878-2.043-2.781-4.089
		c0.948-1.769,3.368-0.916,5.099-0.385c10.335,3.169,19.718,8.18,28.166,14.911c13.587,10.825,24.748,23.81,34.003,38.466
		c1.984,3.142,3.689,6.471,5.801,9.522c10.498,15.166,13.088,32.156,10.839,49.93c-2.944,23.276-23.932,31.467-45.042,29.212
		c-24.499-2.617-47.986-17.788-67.316-32.022c-18.864-13.891-35.575-30.724-49.219-49.772
		c-14.162-19.77-27.325-36.999-47.314-51.677c-22.622-16.611-47.076-28.79-74.985-33.502c-14.914-2.518-29.907-4.141-45.01-4.566
		c-22.999-0.647-46.02-1.113-68.974,0.853c-26.403,2.262-52.527,6.36-78.254,12.878c-38.32,9.709-76.007,21.374-112.39,36.909
		c-31.26,13.347-58.901,32.579-84.981,54.089c-8.808,7.265-13.984,17.268-17.563,28.007c-7.648,22.944-10.187,47.082-13.089,70.969
		c-3.621,29.803-10.558,59.032-13.385,88.915c-0.653,6.844,2.225,12.28,7.863,16.037c3.963,2.641,6.47,1.783,7.971-2.783
		c2.488-7.565,3.682-15.339,2.509-23.346c-1.219-8.329-3.504-16.325-7.038-23.979c-0.703-1.522-2.431-3.587-0.247-4.846
		c1.948-1.122,3.411,0.926,4.507,2.36c2.689,3.518,4.837,7.372,6.591,11.446c3.499,8.13,6.349,16.46,8.039,25.17
		c0.183,0.944-0.283,2.729,1.33,2.539c1.347-0.159,1.113-1.812,1.159-2.924c0.434-10.481-0.655-20.885-1.829-31.265
		c-1.174-10.383-2.459-20.768-5.775-30.761c-0.217-0.655-0.384-1.366-0.371-2.047c0.013-0.667,0.077-1.666,0.488-1.92
		c0.824-0.509,1.763-0.092,2.45,0.628c2.624,2.752,4.085,6.169,5.479,9.622c3.231,8.005,4.823,16.475,7.04,24.769
		c3.248,12.154,4.749,24.61,6.549,37.018c0.128,0.882,0.526,1.725,0.799,2.587c1.376-0.514,0.95-1.799,1.106-2.77
		c2.019-12.53,1.163-24.995-0.793-37.455c-1.981-12.626-3.772-25.282-8.684-37.223c-0.342-0.832-0.513-1.798-0.501-2.699
		c0.023-1.636,1.074-1.864,2.344-1.29c2.958,1.337,4.345,4.103,5.825,6.718c5.774,10.197,9.513,21.129,11.918,32.582
		c4.144,19.737,5.455,39.6,2.26,59.556c-2.549,15.921-4.405,35.684-17.101,47.231c-15.802,14.372-37.967,9.959-52.283-4.281
		c-10.813-10.756-17.346-25.45-20.131-40.302c-3.776-20.136-1.414-40.869,1.304-61.175c4.57-34.145,6.391-69.107,5.71-103.541
		c-0.406-20.518-7.438-37.026-24.779-48.715c-4.428-2.985-8.79-6.06-13.31-8.915c-19.777-12.491-41.258-21.301-63.211-28.972
		c-24.698-8.63-50.307-14.435-76.176-18.211c-26.795-3.911-53.808-6.177-80.843-7.581c-26.142-1.358-53.596-3.909-79.666-1.936
		c-7.812,0.591-15.611,0.984-23.396,1.942c-31.23,3.846-61.833,11.878-90.461,24.931c-21.156,9.646-41.593,20.81-59.739,35.563
		c-13.269,10.787-24.369,23.549-32.64,38.646c-5.029,9.18-5.773,18.683-1.429,28.133c10.101,21.975,21.578,42.977,36.771,62.173
		c23.303,29.442,52.525,53.85,84.745,72.996c16.142,9.592,33.044,17.888,50.438,24.952c8.689,3.528,17.503,6.748,26.415,9.666
		c5.696,1.865,19.103,7.496,4.959,7.205c-18.165-0.374-36.103-3.023-54.023-5.66c-25.729-3.786-51.418-7.846-77.113-11.862
		c-24.202-3.783-48.041-11.294-71.838-17.336c-25.446-6.461-50.734-13.542-75.836-21.235
		c-50.202-15.385-99.655-33.215-148.123-53.411c-26.72-11.134-52.619-23.626-78.825-35.938
		c-33.491-15.708-65.528-34.052-94.832-56.885c-18.146-14.139-36.298-28.257-53.645-43.384
		c-11.067-9.652-20.51-20.873-30.702-31.369c-5.179-5.334-10.218-10.808-15.49-16.049c-5.441-5.409-11.133-10.513-17.961-14.243
		c-3.662-2.001-3.952-3.08-1.286-5.764c8.903-8.962,13.871-20.197,19.009-31.414c11.89-25.96,23.369-52.103,35.978-77.741
		c23.068-46.903,52.518-89.256,89.478-126.2c14.12-14.113,29.503-26.952,43.989-40.709c26.811-25.461,55.14-49.163,83.488-72.852
		c4.635-3.873,9.412-7.576,14.064-11.428c5.429-4.496,5.42-4.634-0.619-7.677c-6.459-3.253-12.608-6.988-18.1-11.702
		c-4.267-3.663-7.899-7.922-10.027-13.19c-1.858-4.6-1.163-6.337,3.263-8.289c10.145-4.476,20.45-2.869,30.73-0.48
		c0.911,0.212,1.777,0.969,1.753,1.901c-0.035,1.348-1.17,1.887-2.394,2.064c-2.069,0.299-4.175,0.413-6.207,0.865
		c-2.331,0.518-2.842,2.367-1.035,4.003c1.354,1.227,3.018,2.158,4.645,3.031c8.067,4.333,16.807,6.928,25.714,8.458
		c25.394,4.361,50.503,10.165,75.849,14.708c22.382,4.012,44.871,7.441,67.369,10.817
		C571.722,401.238,627.595,405.439,683.478,403.893z M995.837,284.821c-0.839,3.477,0.788,5.25,3.715,6.583
		c8.696,3.959,16.926,8.786,24.156,15.039c3.643,3.151,7.172,3.608,11.504,2.101c25.6-8.906,49.862-20.21,70.443-38.357
		c7.748-6.832,14.447-14.392,18.865-23.84c1.422-3.041,2.086-5.905,1.242-9.354c-1.945-7.949-2.646-16.039-0.708-24.13
		c0.807-3.368-0.566-5.057-3.621-6.371c-14.447-6.216-25.936-16.045-34.715-29.069c-2.997-4.447-3.067-4.451-6.907-0.288
		c-0.472,0.512-0.914,1.052-1.396,1.553c-17.805,18.492-36.995,35.158-60.408,46.373c-6.974,3.34-14.53,4.757-21.767,7.215
		c-6.691,2.272-6.689,2.198-4.001,8.447c2.758,6.413,4.903,12.908,5.386,20.033C998.183,268.972,996.833,276.925,995.837,284.821z
		 M993.69,225.7c3.581,0.201,7.121-0.186,10.021-2.308c4.679-3.425,9.125-7.169,13.648-10.805c1.302-1.047,2.562-2.257,1.467-4.098
		c-0.906-1.523-2.468-2.269-4.175-1.915c-2.98,0.619-5.653,2.059-8.238,3.645c-2.794,1.714-5.641,3.148-9.098,3.007
		c-19.188-0.78-37.15-5.211-52.828-16.996c-4.653-3.497-9.082-7.22-13.407-11.092c-0.473-0.423-1.13-0.858-1.707-0.26
		c-0.254,0.263-0.294,0.891-0.198,1.299c0.211,0.898,0.532,1.776,0.872,2.636c5.203,13.166,10.437,26.319,15.616,39.495
		c2.051,5.217,6.103,8.163,11.223,9.585c8.059,2.237,16.192,4.114,23.072,9.331c1.967,1.492,3.307,0.435,3.496-2.13
		c0.248-3.371-1.983-5.04-4.384-6.524c-5.577-3.446-11.796-5.392-17.938-7.525c-7.515-2.609-12.812-10.126-12.886-18.006
		c-0.021-2.295,1.194-2.887,3.096-2.33c1.547,0.453,3.023,1.176,4.496,1.853c5.694,2.613,11.334,5.351,17.072,7.863
		C979.535,223.324,986.454,225.195,993.69,225.7z M1062.408,148.572c0.003,6.908-0.021,12.692-0.328,18.494
		c-0.292,5.52-2.4,9.177-7.54,11.289c-3.652,1.501-6.957,3.705-10.107,6.096c-2.065,1.567-3.805,3.408-4.477,6.026
		c-0.679,2.648,0.725,6.231,2.976,7.133c2.77,1.109,3.654-1.271,4.736-2.93c3.551-5.442,8.514-9.345,14.341-11.749
		c5.975-2.465,7.835-6.796,7.597-12.62c-0.313-7.642-0.06-15.302-1.03-22.929c-0.495-3.896-0.572-7.871-0.503-11.805
		c0.042-2.375,2.498-3.511,3.74-1.745c5.313,7.558,15.565,10.564,18.511,20.278c0.375,1.238,1.455,2.429,2.507,3.268
		c4.97,3.965,8.1,8.757,8.183,15.379c0.031,2.428,1.294,4.737,4.279,4.387c2.99-0.35,3.282-2.931,3.309-5.31
		c0.068-6.008-1.769-11.472-5.421-16.193c-3.27-4.227-6.386-8.517-8.986-13.202c-1.802-3.246-4.104-6.17-6.738-8.826
		c-8.813-8.888-18.112-17.353-24.717-28.183c-0.458-0.752-1.033-1.804-1.994-1.604c-1.562,0.325-1.065,1.809-1.072,2.863
		c-0.011,1.62,0.14,3.243,0.249,4.863C1060.776,124.26,1063.275,136.863,1062.408,148.572z M1009.487,195.158
		c0.075-3.64-2.858-6.242-6.999-5.83c-6.25,0.621-11.484,3.494-15.865,7.923c-1.98,2.001-2.738,4.313-1.074,6.91
		c1.713,2.674,3.918,4.954,7.351,4.121c5.732-1.39,10.9-3.984,14.705-8.72C1008.629,198.288,1009.434,196.871,1009.487,195.158z
		 M1056.064,163.22c0.135-2.998-2.075-4.93-5.283-4.486c-6.136,0.849-11.52,3.421-15.459,8.368
		c-1.452,1.823-2.547,3.976-0.931,6.358c1.551,2.287,3.816,2.43,6.182,1.811c5.784-1.515,10.55-4.627,14.122-9.451
		C1055.361,164.919,1055.756,163.816,1056.064,163.22z M1036.89,203.048c-1.321-2.723-1.697-5.954-2.554-9.053
		c-0.43-1.555-1.818-2.637-3.77-2.299c-3.045,0.527-10.87,7.626-10.931,9.948c-0.065,2.439,4.609,6.023,9.413,7.187
		c0.667,0.162,1.371,0.296,2.049,0.264C1034.107,208.957,1037.034,206.001,1036.89,203.048z"/>
	<path fill="#FFFFFF" d="M995.837,284.821c0.996-7.896,2.345-15.849,1.788-24.065c-0.483-7.126-2.628-13.621-5.386-20.033
		c-2.688-6.249-2.69-6.175,4.001-8.447c7.237-2.458,14.793-3.874,21.767-7.215c23.413-11.215,42.603-27.881,60.408-46.373
		c0.483-0.501,0.924-1.041,1.396-1.553c3.84-4.163,3.91-4.159,6.907,0.288c8.779,13.024,20.268,22.853,34.715,29.069
		c3.055,1.314,4.427,3.003,3.621,6.371c-1.938,8.091-1.237,16.181,0.708,24.13c0.844,3.448,0.18,6.313-1.242,9.354
		c-4.418,9.448-11.117,17.008-18.865,23.84c-20.581,18.147-44.843,29.451-70.443,38.357c-4.331,1.507-7.86,1.05-11.504-2.101
		c-7.23-6.253-15.46-11.08-24.156-15.039C996.626,290.072,994.998,288.299,995.837,284.821z M1082.741,201.803
		c-4.887,0.427-9.57,1.568-13.858,4.125c-2.653,1.582-4.071,3.768-3.638,6.905c0.476,3.446,1.191,6.864,1.537,10.321
		c0.327,3.261,3.608,7.553,0.492,9.409c-2.138,1.273-4.755-3.514-7.045-5.685c-10.451-9.905-8.685-10.53-21.524-0.947
		c-3.284,2.451-4.229,5.298-2.682,9.082c1.669,4.083,3.25,8.202,4.852,12.312c1.012,2.596,2.044,5.186,2.945,7.82
		c0.19,0.555-0.153,1.293-0.25,1.946c-0.624-0.224-1.379-0.298-1.846-0.703c-1.048-0.908-1.939-1.995-2.919-2.983
		c-4.088-4.123-8.169-8.254-12.288-12.346c-1.71-1.699-3.442-2.932-6.134-1.539c-7.005,3.625-10.921,12.551-8.319,20.028
		c3.455,9.929,8.4,19.132,14.467,27.697c3.515,4.961,6.174,5.457,11.933,2.816c4.575-2.098,5.495-4.216,4.21-10.314
		c-0.669-3.176-1.619-6.293-2.332-9.461c-0.125-0.557,0.299-1.237,0.47-1.86c0.624,0.23,1.417,0.291,1.846,0.718
		c3.138,3.12,6.457,6.01,10.075,8.564c3.74,2.64,7.657,3.327,11.748,0.976c4.829-2.776,9.611-5.638,14.363-8.545
		c3.05-1.866,4.47-4.452,3.749-8.219c-1.002-5.239-1.713-10.534-2.49-15.814c-0.152-1.031-0.851-2.422,0.733-2.919
		c1.045-0.328,1.566,0.749,2.089,1.455c2.488,3.36,4.863,6.806,7.423,10.109c3.332,4.298,5.843,4.487,9.704,0.654
		c2.807-2.786,5.197-5.932,7.074-9.452c4.288-8.041,5.705-16.124,0.79-24.485c-3.329-5.663-7.428-10.7-12.352-14.99
		C1091.975,203.347,1087.689,201.578,1082.741,201.803z"/>
	<path fill="#FFFFFF" d="M993.69,225.7c-7.237-0.505-14.155-2.376-20.781-5.276c-5.738-2.512-11.378-5.249-17.072-7.863
		c-1.474-0.676-2.949-1.4-4.496-1.853c-1.903-0.557-3.118,0.035-3.096,2.33c0.074,7.88,5.37,15.397,12.886,18.006
		c6.142,2.132,12.361,4.078,17.938,7.525c2.401,1.484,4.631,3.153,4.384,6.524c-0.188,2.565-1.529,3.622-3.496,2.13
		c-6.879-5.217-15.012-7.094-23.072-9.331c-5.12-1.421-9.172-4.368-11.223-9.585c-5.179-13.175-10.413-26.329-15.616-39.495
		c-0.34-0.861-0.662-1.738-0.872-2.636c-0.096-0.408-0.055-1.036,0.198-1.299c0.577-0.598,1.234-0.163,1.707,0.26
		c4.326,3.871,8.754,7.594,13.407,11.092c15.678,11.785,33.64,16.216,52.828,16.996c3.458,0.141,6.304-1.293,9.098-3.007
		c2.585-1.586,5.258-3.026,8.238-3.645c1.707-0.355,3.269,0.392,4.175,1.915c1.095,1.841-0.165,3.051-1.467,4.098
		c-4.523,3.636-8.969,7.38-13.648,10.805C1000.812,225.514,997.272,225.901,993.69,225.7z"/>
	<path fill="#FFFFFF" d="M1062.408,148.572c0.866-11.709-1.633-24.311-2.485-37.021c-0.109-1.62-0.26-3.243-0.249-4.863
		c0.007-1.054-0.49-2.537,1.072-2.863c0.961-0.2,1.536,0.853,1.994,1.604c6.604,10.83,15.904,19.294,24.717,28.183
		c2.634,2.657,4.936,5.58,6.738,8.826c2.601,4.685,5.716,8.975,8.986,13.202c3.652,4.721,5.489,10.185,5.421,16.193
		c-0.027,2.379-0.319,4.96-3.309,5.31c-2.985,0.35-4.248-1.959-4.279-4.387c-0.083-6.622-3.213-11.414-8.183-15.379
		c-1.052-0.839-2.131-2.029-2.507-3.268c-2.947-9.714-13.199-12.719-18.511-20.278c-1.241-1.766-3.698-0.63-3.74,1.745
		c-0.069,3.934,0.007,7.909,0.503,11.805c0.97,7.627,0.717,15.286,1.03,22.929c0.238,5.824-1.622,10.155-7.597,12.62
		c-5.827,2.404-10.79,6.306-14.341,11.749c-1.082,1.659-1.966,4.039-4.736,2.93c-2.251-0.902-3.655-4.485-2.976-7.133
		c0.671-2.618,2.412-4.459,4.477-6.026c3.15-2.39,6.455-4.594,10.107-6.096c5.14-2.113,7.248-5.769,7.54-11.289
		C1062.387,161.264,1062.411,155.48,1062.408,148.572z"/>
	<path fill="#FFFFFF" d="M1009.486,195.158c-0.053,1.713-0.857,3.13-1.881,4.405c-3.805,4.736-8.973,7.33-14.705,8.72
		c-3.433,0.833-5.638-1.447-7.351-4.121c-1.664-2.597-0.906-4.909,1.074-6.91c4.381-4.429,9.615-7.302,15.865-7.923
		C1006.629,188.917,1009.562,191.519,1009.486,195.158z"/>
	<path fill="#FFFFFF" d="M1056.064,163.22c-0.308,0.596-0.703,1.699-1.37,2.6c-3.572,4.823-8.338,7.935-14.122,9.451
		c-2.366,0.62-4.631,0.476-6.182-1.811c-1.615-2.382-0.52-4.534,0.931-6.358c3.939-4.947,9.323-7.519,15.459-8.368
		C1053.989,158.29,1056.2,160.222,1056.064,163.22z"/>
	<path fill="#FFFFFF" d="M1036.89,203.048c0.143,2.952-2.783,5.908-5.793,6.048c-0.678,0.031-1.382-0.102-2.049-0.264
		c-4.804-1.164-9.477-4.748-9.413-7.187c0.061-2.322,7.887-9.421,10.931-9.948c1.952-0.338,3.34,0.744,3.77,2.299
		C1035.193,197.094,1035.569,200.325,1036.89,203.048z"/>
	<path d="M1082.741,201.803c4.947-0.225,9.234,1.544,12.825,4.673c4.923,4.29,9.022,9.327,12.352,14.99
		c4.916,8.361,3.498,16.444-0.79,24.485c-1.877,3.52-4.268,6.666-7.074,9.452c-3.861,3.833-6.372,3.644-9.704-0.654
		c-2.561-3.303-4.935-6.749-7.423-10.109c-0.523-0.706-1.044-1.783-2.089-1.455c-1.584,0.497-0.885,1.888-0.733,2.919
		c0.777,5.28,1.488,10.575,2.49,15.814c0.721,3.768-0.699,6.354-3.749,8.219c-4.752,2.907-9.534,5.769-14.363,8.545
		c-4.091,2.352-8.008,1.664-11.748-0.976c-3.618-2.554-6.938-5.444-10.075-8.564c-0.429-0.427-1.222-0.488-1.846-0.718
		c-0.171,0.623-0.595,1.303-0.47,1.86c0.712,3.168,1.662,6.285,2.332,9.461c1.285,6.098,0.365,8.216-4.21,10.314
		c-5.759,2.641-8.418,2.145-11.933-2.816c-6.068-8.566-11.013-17.769-14.467-27.697c-2.602-7.478,1.314-16.403,8.319-20.028
		c2.692-1.393,4.424-0.16,6.134,1.539c4.12,4.092,8.2,8.223,12.288,12.346c0.98,0.989,1.871,2.075,2.919,2.983
		c0.468,0.405,1.222,0.479,1.846,0.703c0.097-0.653,0.44-1.391,0.25-1.946c-0.901-2.634-1.933-5.224-2.945-7.82
		c-1.602-4.11-3.183-8.229-4.852-12.312c-1.547-3.784-0.602-6.63,2.682-9.082c12.839-9.583,11.073-8.958,21.524,0.947
		c2.29,2.171,4.908,6.957,7.045,5.685c3.116-1.855-0.165-6.148-0.492-9.409c-0.346-3.457-1.061-6.875-1.537-10.321
		c-0.433-3.136,0.984-5.322,3.638-6.905C1073.172,203.371,1077.854,202.23,1082.741,201.803z"/>
</g>
</svg>
