<?xml version="1.0" encoding="UTF-8" standalone="no"?>
<!-- Created with Inkscape (http://www.inkscape.org/) -->

<svg
   xmlns:dc="http://purl.org/dc/elements/1.1/"
   xmlns:cc="http://creativecommons.org/ns#"
   xmlns:rdf="http://www.w3.org/1999/02/22-rdf-syntax-ns#"
   xmlns:svg="http://www.w3.org/2000/svg"
   xmlns="http://www.w3.org/2000/svg"
   xmlns:sodipodi="http://sodipodi.sourceforge.net/DTD/sodipodi-0.dtd"
   xmlns:inkscape="http://www.inkscape.org/namespaces/inkscape"
   width="281.34821"
   height="300"
   viewBox="0 0 281.34821 300"
   id="svg2"
   version="1.1"
   inkscape:version="0.91 r13725"
   sodipodi:docname="roll-female-bee.svg">
  <defs
     id="defs4">
    <clipPath
       clipPathUnits="userSpaceOnUse"
       id="clipPath4553">
      <path
         inkscape:connector-curvature="0"
         id="path4555"
         d="M 318.55026,422.25322 A 150.91572,150 7.635842 0 0 152.47952,533.72756 L 444.3565,532.73474 A 150.91572,150 7.635842 0 0 318.55026,422.25322 Z M 445.65083,604.68339 151.9035,605.68163 A 150.91572,150 7.635842 0 0 278.68733,719.593 150.91572,150 7.635842 0 0 445.65083,604.68339 Z"
         style="opacity:1;fill:#333333;fill-opacity:1;stroke:none;stroke-opacity:0.18617021" />
    </clipPath>
    <clipPath
       clipPathUnits="userSpaceOnUse"
       id="clipPath4963">
      <rect
         style="opacity:0.4;fill:#aa0000;fill-opacity:1;stroke:none;stroke-opacity:0.18617021"
         id="rect4965"
         width="393.15137"
         height="275.77164"
         x="174.00266"
         y="269.54236" />
    </clipPath>
  </defs>
  <sodipodi:namedview
     id="base"
     pagecolor="#ffffff"
     bordercolor="#666666"
     borderopacity="1.0"
     inkscape:pageopacity="0.0"
     inkscape:pageshadow="2"
     inkscape:zoom="1.1129703"
     inkscape:cx="70.40043"
     inkscape:cy="108.53806"
     inkscape:document-units="px"
     inkscape:current-layer="layer1"
     showgrid="false"
     units="px"
     fit-margin-top="0"
     fit-margin-left="0"
     fit-margin-right="0"
     fit-margin-bottom="0"
     inkscape:window-width="1024"
     inkscape:window-height="719"
     inkscape:window-x="0"
     inkscape:window-y="25"
     inkscape:window-maximized="1"
     inkscape:showpageshadow="false" />
  <metadata
     id="metadata7">
    <rdf:RDF>
      <cc:Work
         rdf:about="">
        <dc:format>image/svg+xml</dc:format>
        <dc:type
           rdf:resource="http://purl.org/dc/dcmitype/StillImage" />
        <dc:title></dc:title>
        <cc:license
           rdf:resource="http://creativecommons.org/publicdomain/zero/1.0/" />
      </cc:Work>
      <cc:License
         rdf:about="http://creativecommons.org/publicdomain/zero/1.0/">
        <cc:permits
           rdf:resource="http://creativecommons.org/ns#Reproduction" />
        <cc:permits
           rdf:resource="http://creativecommons.org/ns#Distribution" />
        <cc:permits
           rdf:resource="http://creativecommons.org/ns#DerivativeWorks" />
      </cc:License>
    </rdf:RDF>
  </metadata>
  <g
     inkscape:label="Camada 1"
     inkscape:groupmode="layer"
     id="layer1"
     transform="translate(-153.94405,-453.05151)">
    <g
       id="g5346"
       transform="matrix(0.60703662,0,0,0.60703662,65.183503,290.92167)">
      <path
         id="circle5152"
         d="m 382.56233,299.31072 a 205.15433,205.15433 0 0 0 -205.15625,205.1543 205.15433,205.15433 0 0 0 3.33985,36.44922 150,150 0 0 1 136.35937,-87.86328 150,150 0 0 1 150,150 150,150 0 0 1 -39.65429,101.33593 205.15433,205.15433 0 0 0 160.26562,-199.92187 205.15433,205.15433 0 0 0 -205.1543,-205.1543 z"
         style="opacity:1;fill:#333333;fill-opacity:1;stroke:none;stroke-opacity:0.18617021"
         inkscape:connector-curvature="0" />
      <circle
         style="opacity:1;fill:#ffcc00;fill-opacity:1;stroke:none;stroke-opacity:0.18617021"
         id="circle4333"
         cx="317.10556"
         cy="603.05151"
         r="150" />
      <path
         inkscape:connector-curvature="0"
         style="opacity:1;fill:#333333;fill-opacity:1;stroke:none;stroke-opacity:0.18617021"
         d="m 311.85137,467.93387 a 143.22161,143.22161 0 0 0 -143.22296,143.22159 143.22161,143.22161 0 0 0 2.33161,25.44579 104.71747,104.71747 0 0 1 95.19471,-61.33879 A 104.71747,104.71747 0 0 1 370.8722,679.97993 104.71747,104.71747 0 0 1 343.18889,750.7242 143.22161,143.22161 0 0 0 455.07296,611.15546 143.22161,143.22161 0 0 0 311.85137,467.93387 Z"
         id="path5164" />
      <circle
         transform="matrix(0.96783308,0.25159319,-0.25159319,0.96783308,0,0)"
         r="56.549072"
         cy="542.87506"
         cx="358.61224"
         id="path4338"
         style="opacity:1;fill:#f9f9f9;fill-opacity:1;stroke:none;stroke-opacity:0.18617021" />
      <circle
         transform="matrix(0.96783308,0.25159319,-0.25159319,0.96783308,0,0)"
         style="opacity:1;fill:#f9f9f9;fill-opacity:1;stroke:none;stroke-opacity:0.18617021"
         id="circle4355"
         cx="488.5675"
         cy="542.87506"
         r="56.549072" />
      <circle
         transform="matrix(0.96783308,0.25159319,-0.25159319,0.96783308,0,0)"
         r="14.137268"
         cy="529.91595"
         cx="340.94067"
         id="path4361"
         style="opacity:1;fill:#000000;fill-opacity:1;stroke:none;stroke-opacity:0.18617021" />
      <circle
         transform="matrix(0.96783308,0.25159319,-0.25159319,0.96783308,0,0)"
         style="opacity:1;fill:#000000;fill-opacity:1;stroke:none;stroke-opacity:0.18617021"
         id="circle4363"
         cx="470.89594"
         cy="529.91595"
         r="14.137268" />
      <path
         inkscape:connector-curvature="0"
         id="path5166"
         d="m 283.63451,691.97634 a 40,24 29.604702 0 1 -1.26395,12.93085 40,24 29.604702 0 1 -46.6345,1.10637 40,24 29.604702 0 1 -15.59011,-12.4613 40,24 29.604702 0 0 24.18581,27.69659 40,24 29.604702 0 0 46.63449,-1.10638 40,24 29.604702 0 0 -7.33174,-28.16613 z"
         style="opacity:1;fill:#d40000;fill-opacity:1;stroke:none;stroke-opacity:0.18617021" />
      <path
         inkscape:connector-curvature="0"
         id="path5184"
         d="M 601.97295,275.32086 492.68456,334.7025 a 205.15433,205.15433 0 0 1 50.56153,47.72329 l 58.72686,-107.10493 z"
         style="fill:#333333;fill-rule:evenodd;stroke:none;stroke-width:1px;stroke-linecap:butt;stroke-linejoin:miter;stroke-opacity:1" />
      <path
         id="path5222"
         d="m 601.97232,275.3214 -7.56478,4.1099 3.5079,3.28676 4.05688,-7.39666 z m -15.46713,8.4037 -14.67359,7.97196 13.98017,13.09688 7.8673,-14.34883 -7.17388,-6.72001 z m -22.57399,12.26573 -14.98596,8.14186 24.59668,23.04 8.03347,-14.6517 -17.64419,-16.53016 z m -22.88636,12.43564 -16.41394,8.91746 35.87333,33.60582 8.80132,-16.05002 -28.26071,-26.47326 z m -24.31433,13.21124 -14.49704,7.876 46.55862,42.79606 7.47577,-13.63297 -39.53735,-37.03909 z"
         style="fill:#ffcc00;fill-rule:evenodd;stroke:none;stroke-width:1px;stroke-linecap:butt;stroke-linejoin:miter;stroke-opacity:1"
         inkscape:connector-curvature="0" />
    </g>
  </g>
</svg>
