<?xml version="1.0" encoding="utf-8"?>
<!DOCTYPE svg PUBLIC "-//W3C//DTD SVG 1.1//EN" "http://www.w3.org/Graphics/SVG/1.1/DTD/svg11.dtd">
<svg version="1.1" id="Layer_1" xmlns="http://www.w3.org/2000/svg" xmlns:xlink="http://www.w3.org/1999/xlink" x="0px" y="0px"
	 viewBox="-396.4351 -625.5411 1109.9979 1715.502" enable-background="new -396.4351 -625.5411 1109.9979 1715.502"
	 xml:space="preserve">
<g id="_x23_ffffffff">
</g>
<g id="_x23_281e1dff">
	<path fill="#281E1D" stroke="#281E1D" stroke-width="1.2636" d="M62.8391-542.3852c12.152-7.93,21.6606-19.8617,35.6116-24.9281
		c-24.2306,49.8929-66.9644,87.8541-91.0481,137.8572c-10.4265,22.6152-20.3023,45.5241-28.8197,68.9469
		c5.9108-6.9755,12.8128-13.1065,18.5033-20.3023c16.5208-20.082,21.9911-47.1027,40.5311-65.7529
		c18.1362-18.3198,36.7497-38.7689,62.8158-45.2304c-4.0751,12.9964-13.9509,23.3862-16.3373,36.9699
		c31.0959-14.9422,56.6481-41.7793,91.5621-48.6447c-7.2325,12.2254-14.1345,25.0382-14.9422,39.5766
		c5.6538-0.4406,11.1974-1.7622,15.2359-6.0576c24.9281-22.1746,54.6656-37.7042,84.1828-52.7932
		c22.1747-12.0052,45.4507-22.5785,70.0483-28.3792c-11.8582,16.5208-31.1693,25.1851-44.6429,40.1273
		c-17.7323,17.7324-34.3266,39.8703-33.4088,66.3036c23.8267-8.2604,48.1674-23.3127,74.1969-14.0243
		c-5.0663,13.6939-17.5488,23.2026-21.5505,37.4105c-3.1206,8.6642-3.5978,17.9159-4.479,27.0207
		c18.0995-2.8636,36.2724-8.3705,54.4086-2.1293c-10.4999,16.0803-21.2935,32.8948-22.8722,52.6097
		c19.6414-4.222,40.5311-7.7465,59.8055,0.1101c-9.729,14.5751-24.5977,26.3599-27.0575,44.8633
		c17.3653,1.7622,34.2165,6.4982,49.5992,14.832c-11.3076,4.0751-20.0085,12.2254-23.1292,24.047
		c-22.4683-0.6608-46.1115-5.6171-67.662,3.194c-14.5016,5.3601-28.1956,16.7778-32.0871,32.234
		c17.916-8.3705,35.5014-18.8338,55.8037-19.9718c14.9789-0.8811,31.0959-0.0367,43.9087,8.6643
		c19.054,11.6747,39.2462,24.6711,48.718,45.8178c25.4421,0.1835,52.3159-2.6066,75.9591,8.9947
		c23.3127,13.1432,39.7234,35.3913,52.9401,58.1166c7.0856,8.187,18.6133,14.6852,29.7741,12.3722
		c8.8111-3.3776,15.7131-10.0593,23.0191-15.7866c0.9912,8.958,1.9091,17.9159,3.3776,26.8005
		c23.8267-16.7778,33.4456-45.7811,45.3405-71.0763c1.3216-0.6608,3.9283-1.9458,5.2131-2.6066
		c2.6068,28.8931-3.0471,58.19-14.7953,84.5867c-7.8565,14.1712-19.8616,25.4788-28.0119,39.4297
		c5.4335,0.8077,10.9037,1.5786,16.374,2.3496c-10.5,19.8984-32.8948,28.0854-51.545,38.2916
		c-11.8583,6.8286-29.921,4.5524-36.309,18.8338c-10.2797,18.9439-26.3232,34.4368-45.671,43.9454
		c-14.2813,3.3041-29.1133,0.3671-43.3947-1.2482c-12.2254,4.9195-22.2848,16.3372-36.4927,15.089
		c-32.6378-0.2203-58.0799-23.79-84.3297-40.0538c-13.9142-8.2972-26.0295-23.9736-44.0189-20.6694
		c-23.7165,1.9825-47.066-3.708-70.7091-4.0017c-10.7202,0.2937-19.3844-7.2325-28.9665-10.8303
		c-1.9458,13.6572-2.0559,31.0224-15.5296,38.9157c-6.5349,4.5157-14.1712-0.4405-20.9998-1.4685
		c2.8269,12.2989,7.6363,23.9369,13.3635,35.1343c-11.6013-3.1573-24.1204-5.3234-34.1797-12.2988
		c-8.701-8.5541-16.9614-18.6502-19.7149-30.8022c-9.5821,7.673-21.1833,10.4632-33.2619,7.673
		c-10.1694,14.2446-11.0139,31.9403-9.0313,48.7548c-2.6066-0.8077-5.1765-1.6154-7.7832-2.4231
		c-12.4824-26.3966-20.6694-58.8141-5.9108-86.0919c-6.0576-0.1468-12.0785-0.2203-18.0995-0.2937
		c-3.7814,14.6852-7.7831,29.2602-11.4912,43.9454C27.558,16.6063,29.9076-10.3778,37.654-31.3408
		c7.3793-21.8809,24.3407-38.2182,38.4752-55.7303c12.923,2.4598,26.8372,5.0297,39.5031,0.0734
		c9.8758-3.3041,17.6222-11.0873,27.9753-13.1432c3.4143,7.1958,6.7919,14.3915,10.4265,21.4771
		c13.6205-0.9178,24.3407-10.9037,37.4472-12.8863c8.7744,9.729,16.6677,20.853,28.7462,26.7638
		c14.0611,8.701,31.1326,5.1765,46.7356,7.0856c12.152,0,24.047,3.8916,36.199,2.7535c11.4911-3.708,21.9911-9.8758,32.9682-14.7953
		c13.18,16.5208,29.8844,30.4351,48.8282,39.7601c19.7516,4.1486,39.7234-1.2482,58.704-6.5716
		c-19.7148-0.2203-39.8703-1.5787-57.9698-10.0961c-19.7515-6.9021-29.2969-27.2411-44.7164-39.8336
		c-12.2989-10.6835-28.9298,4.6258-41.8895-4.4423c-14.3181-10.4265-24.8914-25.2585-39.5398-35.3913
		c0.7343,24.0103,21.8442,38.1081,38.0713,52.3527c-5.8373,4.1485-12.8128,5.4702-19.7516,3.7447
		c-20.2656-5.0297-40.6412-11.4544-57.8963-23.533c-8.7744-5.7272-17.2551-12.2989-27.241-15.7499
		c-8.7376,0.771-16.7778,4.8828-25.3319,6.645c-9.6188-1.6888-16.0803-10.8303-25.5889-13.0698
		c-7.0856-0.1468-12.8129,4.6259-18.8338,7.5996c-10.867,6.8286-24.3407,2.937-36.2724,2.4231
		c-12.5191-2.0192-25.075-0.1102-37.6308,0.3671c12.6292-19.0173,36.4192-24.7078,57.0519-30.5819
		c21.8809-2.4964,44.0922,0.4039,66.0466-2.0559c-18.2463-11.1607-42.7339-15.089-53.6744-35.3913
		c23.7166-5.9475,49.4157-3.4143,71.4801-15.4561c21.2201-8.5541,36.5294-27.6081,42.4035-49.4523
		c-26.1396,9.6922-56.1708,28.4525-83.9625,14.4282c18.9806-11.7849,40.5311-22.5417,49.2321-44.7164
		c-6.2045,0.9178-12.3356,2.1293-18.4667,3.3409c6.9021-15.7866,5.1398-33.2253,1.4319-49.5258
		c-17.402,16.6677-33.8127,40.0171-60.8701,38.6954c8.8845-12.1152,14.6484-26.1396,16.3005-41.1185
		c-8.2237,6.5349-16.117,13.5471-25.6256,18.2096c2.8636-10.2796,5.7272-20.5959,7.6363-31.0959
		c-12.8495,5.8006-25.2218,13.2534-39.5031,14.832c6.4615-13.2534,18.0628-23.533,22.248-38.0346
		c6.0576-18.6869,13.8775-39.9804,5.5804-59.1446c-20.9264,23.6064-52.6831,30.1046-80.3647,42.33
		c-13.2167,6.902-26.2498,16.8513-31.4263,31.3528c19.8617-8.2604,42.0363-9.3985,61.0169-19.9718
		c14.2813-7.1957,22.6519-22.9089,38.3283-27.7917c-2.3129,19.568-18.3932,32.6378-29.9211,47.1762
		c-11.7481,13.6572-29.9945,18.8337-42.1832,31.5731c22.3949,0.4406,44.8632-1.3951,67.2214,0.5507
		c4.5524-0.1836,7.1223,3.6713,9.839,6.6451c-25.9193-1.4318-50.4803,7.3426-73.9766,17.1082
		c-1.4685,1.4685-4.3321,4.4789-5.8007,5.9842c35.3546-0.1101,68.6532,16.0436,104.1546,12.8495
		c13.9876-0.6608,28.0487-1.6888,42.0363-0.6976c-27.4613,18.3932-60.6865,25.8827-93.2509,28.0487
		c-20.0453,0.8077-40.2741,0.7343-59.989,4.736c-10.4265,3.451-20.1921,8.5541-30.3983,12.5925
		c-0.0367,2.5332-0.1469,7.5629-0.1835,10.0961c29.2969,1.1381,61.8613,7.3793,80.2178,32.6745
		c-36.1622-10.9038-77.1339-13.1799-111.3871,5.0297c8.9947,6.3513,19.2009,11.0873,27.0575,18.9439
		c-25.7358,0.0734-53.3806,0.4406-75.8123,14.7953c-25.8092,19.2743-47.58,45.5608-56.1341,77.0972
		c-7.0122-1.7622-14.0244-3.5979-21.11-5.0664c1.7622,16.4474,22.3215,11.5279,29.6274,23.4963
		c9.2884,9.5086-4.3688,19.311-10.7936,25.7358c-14.7953,14.5016-35.2444,0.771-50.7006-5.4335
		c-12.9964-7.5629-28.6728-2.6433-42.1098-8.6643c-7.8566-3.3409-14.3915-9.1415-20.5225-14.9789
		c4.6625-1.6888,9.3618-3.4143,14.0243-5.1031c-6.2779-8.7744-11.3076-18.5767-11.8583-29.5906
		c13.3268,10.6835,27.4613,23.9001,45.7076,23.4596c7.2325-7.8933-5.8374-8.8478-10.7936-10.8671
		c-0.771-2.2762-1.5787-4.5524-2.3496-6.8286c8.0768-0.0734,16.9247,1.4318,24.1938-2.937
		c17.5855-10.2796,30.0679-26.7638,43.9087-41.2287c11.895-13.1065,19.9351-30.0679,18.4666-48.1307
		c-11.5279,5.1398-20.6327,15.7866-33.8126,17.0348c-25.9561,5.1398-56.6848,2.9738-75.592-17.7691
		c25.6256,2.2028,57.6393,4.7727,75.3717-17.9159c9.5454-13.6572,20.1554-26.8005,32.8948-37.6675
		c8.5174-4.1486,18.2463-4.6993,27.1676-7.7464c7.0122-4.5524,7.1957-14.0244,10.5733-20.9631
		c-15.4195,1.6521-30.8022-2.423-46.1482-0.4405c-12.5558,2.3863-23.4229,9.9125-31.9036,19.2376
		c-5.1765-0.0367-10.3163,0-15.4929,0.0367c-10.2429-9.8391-18.3932-25.0749-34.5102-25.2952
		c-10.61-1.6154-13.6939,11.7114-20.596,17.3652c-4.0384-6.645-8.0768-13.6572-15.0156-17.7324
		c-1.4685,6.5716-2.7535,13.2167-4.1118,19.825c-5.5804-5.4702-10.3531-12.152-17.6956-15.4561
		c0.0367,13.5838,4.2954,26.6903,5.1398,40.2374c-12.7761-7.2325-23.9735-17.8058-27.6081-32.4542
		c0.0734,9.1415-0.1101,18.3197-0.7343,27.4613c-11.4177-12.3356-23.9369-26.213-21.4037-44.4227
		c-1.5786-0.0734-4.736-0.2203-6.3146-0.2937c-1.7989,4.9562-3.5979,9.9492-5.4702,14.9055
		c-5.8007-13.2534-5.8374-27.9386-2.3129-41.7794c0-11.3076,10.4632-17.6589,15.2726-26.8739
		c0.6241-5.2867,1.028-10.61,1.1748-15.9701c16.4474-0.6608,19.6781,17.3652,30.3616,25.8092
		c9.8758,2.6066,20.082,3.9283,30.3249,3.6346c-9.1782-13.8408-18.5768-28.012-31.8301-38.3283
		c12.5191-8.1136,28.6728-2.3864,38.4017,7.4894c9.2516,10.7936,24.8914,7.0856,37.1902,5.1031
		c4.5891-5.7639,3.7447-13.5471,5.1765-20.3757c2.2762-1.028,6.7919-3.1573,9.0681-4.1853
		c4.9563,8.9212,10.9405,17.6222,21.8075,19.568c1.4685-2.7168,4.4423-8.1503,5.9108-10.867
		c-9.2517-6.6818-14.8687-16.7411-10.0593-28.0487c13.8408-2.3129,27.9018-0.6975,41.5224,2.3129
		c20.1187,3.708,38.9524-5.6905,58.19-9.6188c13.6939-3.6346,28.8931,5.1765,41.4856-3.3776
		c20.2288-11.381,30.949-33.1885,45.4139-50.4436C11.4777-469.767,26.2363-515.1074,62.8391-542.3852 M-145.617-317.9222
		c16.117,2.8636,30.4718-5.9108,41.8895-16.3006C-118.0823-331.1021-135.8881-330.2945-145.617-317.9222z"/>
	<path fill="#281E1D" stroke="#281E1D" stroke-width="0.3442" d="M-42.1232,35.697C-25.0517,18.9926-2.2529,11.65,20.3622,6.0329
		c7.673,16.8512,8.4073,36.1623,17.5855,52.316c4.1853,6.1678,11.381-1.0647,16.4841-2.0926
		c10.61,20.7061,21.2568,45.3038,45.0101,53.5275c0.6241-17.1083,4.0017-35.942,16.0802-48.865
		c8.4807-7.8198,18.0628,3.7447,26.1764,6.8286c23.7165,8.5174,48.8649,17.7324,74.3804,11.638
		c-2.0192-10.0226-8.6643-17.7691-14.0977-25.9927c3.965-8.0035,14.2446-11.0873,18.3198-19.2743
		c4.5524-8.1503,10.4265-17.2918,20.4491-18.8705c16.7778-0.7343,32.8214,5.6171,49.4157,7.159
		c12.8862,1.7255,26.984-1.3584,38.5486,6.0944c14.6117,9.4352,27.3511,21.6239,39.0258,34.4367
		c9.215,9.729,12.0419,23.3127,16.374,35.5749c-15.1992-2.3863-27.2777-13.2901-42.587-15.1257
		c0.1469,25.1116,4.5524,52.6831-11.4911,74.3804c-12.3723-20.0452-32.0137-34.2532-54.1884-41.559
		c-2.0192,16.7778-6.4248,33.3721-15.0523,48.0205c-11.381-16.0802-26.9473-32.0871-48.0573-32.6378
		c0.6608,14.3915,2.0926,28.8564,0.514,43.2112c-4.0751,4.5524-11.0873,1.3584-16.374,2.2028
		c-18.3198-1.285-36.5294,5.9108-51.1044,16.6677c8.0034,6.2779,18.283,8.8111,26.5802,14.7219
		c-2.7535,12.7393-13.694,20.4491-22.2481,29.2235c8.8111,8.2237,18.9806,14.8688,27.4246,23.4596
		c0.6976,7.8933-3.7814,14.7953-6.2779,21.9911c15.8967,7.159,31.6465,14.7585,46.8824,23.276
		c-0.7709,6.2045-1.5419,12.409-2.2395,18.6501c13.6205,5.6171,27.6082,10.5734,42.5503,9.9859
		c6.7919,6.8654-6.3881,10.8671-9.5087,16.2639c22.0278,8.6642,45.1203,14.5383,68.7634,16.5942
		c41.8895,7.93,85.4677,2.0927,126.6964,14.061c53.6743,8.187,100.4467,38.5486,142.2994,71.4801
		c28.4893,25.2953,51.6552,57.0887,64.0274,93.3243c7.3058,29.9211,1.9458,65.0186-21.1099,87.0098
		c-28.4893,25.7357-64.0274,42.7706-100.8505,52.8666c-37.0066,10.8303-73.9766,28.8197-96.1145,61.6777
		c-8.5541,11.7848-8.444,26.8372-9.7289,40.7147c-18.3932-3.2308-26.8372-21.8076-33.8127-37.0067
		c-4.7727,9.3618-4.9563,20.7428,2.7168,28.7096c20.7795,25.4788,56.6481,27.8284,83.5587,44.1289
		c22.3582,10.2062,43.5048,26.4333,53.6009,49.4156c8.1503,27.5715,8.4073,59.2914-6.388,84.8069
		c-20.4124,35.428-55.3632,63.5134-96.0778,71.0764c-46.6254,6.645-97.2526,1.2849-137.0494-25.699
		c-14.0978-8.6644-28.7096-17.549-38.8056-31.0225c-5.5069-8.4073-8.2604-18.173-11.4911-27.5715
		c12.0785,6.4615,20.4491,17.5121,30.4718,26.5068c37.4839,25.3687,88.5883,19.0173,125.4482-4.1852
		c18.7236-10.8671,30.5451-36.1623,54.9225-34.6938c16.4841,1.0647,23.3495,17.0349,29.4071,29.9211
		c16.4841-10.8303,17.145-32.6746,17.7691-50.3702c0.257-11.3443-1.285-27.0942-14.9422-29.4805
		c-2.5699,10.0594-4.1853,20.7062-9.6188,29.7375c-4.0385,2.056-8.6276,2.6434-12.9597,3.7814
		c2.0926-16.3739-6.0209-32.2339-19.5313-41.3754c-31.1693-23.3127-76.9871-16.5944-104.1913-46.552
		c-12.1888-10.9772-14.575-28.269-12.4825-43.7252c5.4702-28.6362,22.0645-53.6009,41.5591-74.7109
		c13.18-19.4212,35.1343-29.4071,54.8859-40.678c20.5225-9.2149,41.3021-17.8425,61.7512-27.2042
		c28.6728-10.1328,55.2162-26.0662,78.5289-45.5242c11.4912-8.8111,15.0156-23.6797,17.4754-37.1902
		c-10.0593,4.1119-14.4282,14.5751-21.1099,22.3583c-16.5208,20.5959-42.4769,33.886-69.1672,32.2706
		c10.2429-9.582,23.6432-21.4404,18.7236-37.1902c-0.1101-9.5086-8.4072-14.3914-15.4194-18.9438
		c5.4335-6.7919,11.4178-13.2167,15.8233-20.7795c-12.7394-1.2116-25.3319-5.8741-38.2182-4.4423
		c-11.8215,3.6713-23.4229,9.1782-36.1989,7.8566c3.5244-10.9772,8.9947-21.2201,13.7674-31.6833
		c-22.6519,8.6276-37.6675,30.7655-62.1183,35.3178c-9.5453,4.1118-19.4211,0.4039-29.0032-1.3951
		c5.8007-10.9404,10.5734-22.4316,13.2534-34.5836c-26.6903,16.9981-51.9856,39.0992-84.4031,43.7252
		c-14.7586,4.8828-29.1133-2.313-42.7706-7.1224c23.8267-10.0593,47.9838-23.4962,59.4016-47.9838
		c-14.7219-0.1469-29.9945,1.3217-43.9087-4.6625c-16.888-6.8653-35.8686-7.0857-51.9121-16.2639
		c12.8128-11.638,27.9018-22.6151,31.6832-40.6779c-21.1467,2.5332-42.1832,9.0314-63.5868,4.5891
		c2.3129-6.0944,4.6992-12.152,6.7552-18.3197c-15.4194,5.6171-30.3249,13.2167-46.809,15.1991
		c4.6992-11.7848,10.8303-23.0557,13.6205-35.5014c-19.4579,12.9963-38.8056,27.0574-61.2005,34.5469
		c3.708-9.729,9.0681-18.6502,14.9055-27.2043c-16.888,12.776-33.7025,26.8372-54.1883,33.4087
		c-12.2988,4.112-25.3687,2.6801-38.0346,1.9825c-23.9736-0.4038-48.6814-0.8077-71.5903,7.5262
		c23.019,1.1747,46.3685-6.6084,68.9836,0c6.2779,1.3584,12.5558,3.4143,19.0907,2.7535
		c18.5768-1.3217,38.5119,1.909,55.4733-7.7832c14.7219-5.8006,26.6903-17.2918,42.0363-21.5137
		c-0.257,8.8478-2.5332,17.4019-4.8461,25.9193c13.5838-4.2954,26.9106-9.7289,41.0084-12.152
		c-1.1381,6.2412-2.7902,12.3723-4.6258,18.5034c17.7323-2.4598,38.4384-6.4983,52.0222,8.4439
		c-10.8671,7.3793-29.4071,7.1591-31.3161,23.0925c21.0732,0.2202,43.0643,0.1835,62.5589,9.4719
		c9.1048,4.6626,20.339,8.2971,24.047,18.9071c-28.8564-9.4719-67.2949-12.1886-89.1758,12.8863
		c10.243,8.4807,18.3198,18.9807,25.1851,30.2514c-13.1065-1.8356-26.47-8.9946-39.7234-5.3233
		c-30.8389,14.7219-54.8859,43.2846-63.6603,76.3997c-3.8916,15.6764-10.1695,30.692-19.7149,43.7618
		c-6.1311,0.2938-12.2988,0.4773-18.3932,0.7343c-2.0559,15.1625,10.3898,26.3599,12.0785,40.8615
		c1.6888,10.0961,1.9825,23.4229-8.4072,29.04c-8.6643,1.5419-17.402-0.4406-26.0662-0.8444
		c-5.1398,12.2988-4.8828,29.297-18.2097,36.2357c-13.1799,6.3514-22.7253-8.2237-34.2532-11.8216
		c-7.8199,13.9142-4.8828,30.2882-8.8846,45.3038c-20.7428-14.2079-23.5697-40.3107-25.9928-63.1829
		c0.6608-6.4614,2.3863-12.7394,3.6713-19.0541c-2.8269,0.4773-8.4807,1.5052-11.3076,1.9825
		c-6.645,17.4019-2.7535,37.227-11.6013,53.8946c-5.9475,3.4143-12.5191,5.5437-18.9072,8.0034
		c-6.0576-3.3776-12.0786-7.2691-19.2009-7.7097c-0.5874,9.7289-0.7342,19.4211-1.2482,29.1868
		c-12.3723-9.3986-21.4037-23.3862-25.4421-38.2182c0.2203-13.6939,0-27.4246-4.5524-40.4944
		c-12.409,3.0472-21.4403,18.2097-35.428,13.2167c-6.9755-6.8286-12.4824-15.8967-23.1659-16.888
		c-3.0839,12.5927-5.8741,25.332-6.902,38.3284c-12.3723-15.5663-27.755-36.0521-18.4299-56.6848
		c5.25-12.0051,4.3321-28.6729,18.1362-34.6937c14.6118-7.7097,27.5347-18.4299,42.5503-25.2952
		c7.8566,3.1573,11.381,12.3356,17.7691,17.6956c4.4423,1.5787,9.2516,1.3584,13.9142,2.0192
		c7.159-10.0961,9.9859-22.1379,14.3915-33.4822c8.0769-7.1957,19.8617-2.3495,29.5906-4.9195
		c18.5401-4.5157,36.2724-13.1066,51.3614-24.7813c21.7341-21.0366,46.0013-39.65,64.9085-63.5134
		c5.4335-7.5996,15.1624-9.1782,23.7166-10.9772c0-1.4685,0.0367-4.4423,0.0367-5.9108
		c-19.1641-2.6433-38.4752-6.2779-57.8596-3.451c-25.9193,4.4422-52.2058,7.1591-77.6846,13.9142
		c-11.7481,2.937-23.8267,4.5524-35.8685,5.7639c-15.4561-1.7621-28.5627-11.3075-43.7251-14.1711
		c-12.0418-3.2675-24.7445-0.4405-36.7497-3.708c-16.0069-6.4248-27.755-20.1921-36.0154-34.8773
		c1.7989-10.9771,7.8933-20.9631,8.0401-32.234c0.6241-7.4527-1.2115-16.6676,5.9108-21.6239
		c15.86-12.0418,32.0137-24.5242,42.9909-41.4857c21.8442-32.3074,47.837-64.2843,84.3664-80.4014
		c45.5975-16.3739,92.1862-30.3983,136.976-48.9016c-29.7008,2.0559-58.447,10.61-86.8996,18.8337
		c-14.9789,4.2954-29.6274,11.0873-45.4139,11.5279c-11.638-1.1749-23.0557-5.1032-33.2986-10.6468
		c-10.9772-9.0681-20.0453-20.339-31.8301-28.4893c17.6589-9.2517,36.8598-18.7603,57.4558-15.7131
		c19.1641,2.9003,38.6954,4.1853,58.0432,2.423c7.673-0.6608,14.4282-4.7726,20.2288-9.5821
		c-17.7691-7.5629-36.199-14.4649-51.3247-26.8372c-10.3898-9.7656-17.9894-22.0278-24.4875-34.5836
		c-2.5332-6.0576-9.0314-8.5541-13.9876-12.152c16.7411-9.3985,36.8965-6.1678,54.5188-1.2115
		c17.1817,5.25,35.4647,4.6992,53.1603,2.9737c-9.8391-7.3426-22.3582-9.9125-32.1605-17.2551
		c-20.4124-18.6502-38.2182-40.2007-60.0257-57.2722c10.4265-5.3234,20.9264-11.3076,32.6011-13.2901
		c18.3565-0.8811,36.2724,4.8461,52.7932,12.409c7.3793,3.5612,15.7131,4.6258,23.5697,1.799
		c-7.416-8.9947-14.061-18.5768-19.825-28.6729C-15.3962,53.0255-28.6496,43.5536-42.1232,35.697z"/>
</g>
</svg>
