<?xml version="1.0" encoding="utf-8"?>

<!DOCTYPE svg PUBLIC "-//W3C//DTD SVG 1.1//EN" "http://www.w3.org/Graphics/SVG/1.1/DTD/svg11.dtd">
<svg version="1.1" id="Layer_1" xmlns="http://www.w3.org/2000/svg" xmlns:xlink="http://www.w3.org/1999/xlink" x="0px" y="0px"
	 viewBox="0 0 2639.459 1603.41" enable-background="new 0 0 2639.459 1603.41" xml:space="preserve">
<g>
	<g>
		<g>
			<path d="M1341.307,419.039c14.918-8.367,25.066-24.794,25.066-43.699c0-27.384-21.283-49.587-47.533-49.587
				c-26.25,0-47.53,22.203-47.53,49.587c0,19.766,11.115,36.796,27.158,44.757c-24.047,25.05-41.661,89.668-42.487,165.671
				c-1.074,98.067,26.207,177.904,60.923,178.318c34.724,0.411,63.726-78.754,64.796-176.821
				C1382.542,509.631,1365.618,443.465,1341.307,419.039z M1351.818,471.018c0,0-29.437,75.461-65.969,5.315
				C1285.849,476.333,1324.739,492.273,1351.818,471.018z M1273.96,662.173c0,0,52.91,15.941,89.759-5.311
				C1363.719,656.862,1323.657,732.319,1273.96,662.173z M1273.96,599.059c0,0,52.891,15.941,89.759-5.318
				C1363.719,593.74,1323.657,669.201,1273.96,599.059z M1273.96,535.94c0,0,52.891,15.945,89.759-5.315
				C1363.719,530.626,1323.657,606.087,1273.96,535.94z"/>
		</g>
	</g>
	<g>
		<path d="M1067.804,342.547c-58.924-23.739-132.34-45.764-214.771-55.738c-81.483-13.73-175.274-15.984-267.887,8.012
			c-92.919,23.194-183.215,65.894-266.762,120.377c-83.205,58.151-154.884,121.399-209.445,208.015
			C56.311,706.448,28.32,800.772,44.13,892.08c21.448,91.757,110.481,143.057,176.601,125.332
			c31.581-6.788,63.702-24.797,81.767-55.655c17.8-29.109,23.62-60.828,24.864-91.541c1.386-32.465-8.268-64.2-26.148-90.051
			c-18.7-26.634-48.868-43.248-79.295-44.066c-31.984-1.836-61.634,17.954-76.622,42.084
			c-15.873,24.197-21.864,52.331-19.775,79.035c1.919,26.376,14.164,54.388,37.547,68.895c22.981,12.481,48.797,16.224,71.908,1.378
			c37.76-28.643,45.819-83.478,14.977-112.768c-13.922-10.992-32.125-18.527-49.787-10.049c-16.22,9.066-21.16,24.896-22.128,37.479
			c-1.623,12.774,6.101,27.712,16.442,31.068c10.4,4.19,19.758,0.024,24.13-4.888c9.374-10.839,5.441-18.806,4.86-18.432
			c-1.899-0.635-2.661,6.765-10.187,11.293c-7.704,5.576-21.942-0.181-18.606-17.078c3.116-19.084,20.651-29.571,39.419-10.515
			c15.317,12.987,7.834,52.852-15.182,66.933c-8.485,6.341-27.028,3.439-38.298-3.827c-11.506-7.846-18.736-23.833-19.51-42.206
			c-2.831-36.268,23.549-80.717,59.276-77.077c38.716,0.723,66.933,44.568,64.855,91.323c-1.789,50.949-23.77,96.503-73.049,104.669
			c-43.817,12.777-110.513-22.412-128.238-92.247c-13.626-68.958,8.241-161.844,55.162-236.907
			c50.708-72.737,119.318-148,195.582-203.533c78.726-54.428,166.82-99.287,255.69-124.14
			c89.274-25.887,179.432-26.708,261.013-15.676c82.264,7.361,154.386,26.48,214.222,48.268
			c119.772,42.273,195.763,67.56,195.845,67.166C1261.308,416.713,1186.372,388.832,1067.804,342.547z"/>
		<path d="M279.833,576.642c-32.982-14.909-68.556,14.63-67.608,45.607c-0.422,13.07,2.437,28.958,14.298,38.857
			c10.835,9.355,26.475,10.014,36.271,3.913c8.711-4.904,17.568-14.452,16.517-25.974c-0.849-10.641-7.936-17.369-14.057-18.76
			c-12.805-2.416-16.382,5.335-15.565,5.971c0.782,2.365,6.697,0.841,11.139,4.715c4.016,4.549,4.884,10.993-6.464,14.795
			c-9.082,2.574-18.037-4.19-15.767-21.729c1.022-13.244,16.248-27.139,30.818-19.518c15.498,3.546,32.639,36.248,15.15,68.374
			c-12.94,32.84-65.835,35.497-85.293,0.623c-20.556-32.691-16.545-75.56-6.31-100.594c10.665-25.923,24.367-38.183,23.514-38.76
			c0.853,0.663-14.005,11.163-27.589,36.805c-12.663,24.959-22.598,68.84-1.781,110.477c10.037,20.932,32.564,36.493,56.824,37.953
			c24.553,2.35,49.587-12.762,61.519-33.736C332.621,645.273,313.534,586.633,279.833,576.642z"/>
		<path d="M383.653,471.784c-30.559-13.812-63.525,13.56-62.648,42.266c-0.387,12.11,2.267,26.827,13.248,35.999
			c10.045,8.675,24.54,9.288,33.618,3.633c8.063-4.545,16.28-13.398,15.301-24.075c-0.786-9.851-7.348-16.086-13.023-17.382
			c-11.862-2.231-15.182,4.947-14.424,5.536c0.723,2.187,6.207,0.782,10.322,4.375c3.72,4.209,4.521,10.18-5.99,13.705
			c-8.414,2.385-16.714-3.889-14.61-20.138c0.948-12.268,15.057-25.145,28.557-18.084c14.361,3.289,30.242,33.582,14.037,63.358
			c-11.988,30.424-61.001,32.888-79.035,0.577c-19.044-30.294-15.328-70.016-5.852-93.211c9.887-24.027,22.585-35.383,21.796-35.92
			c0.785,0.62-12.979,10.345-25.567,34.108c-11.735,23.131-20.936,63.789-1.65,102.363c9.302,19.403,30.175,33.824,52.654,35.17
			c22.755,2.184,45.953-11.818,57.001-31.261C432.572,535.384,414.878,481.043,383.653,471.784z"/>
		<path d="M474.794,401.321c-23.368-10.558-48.568,10.37-47.901,32.312c-0.288,9.259,1.734,20.513,10.132,27.529
			c7.677,6.63,18.76,7.092,25.702,2.772c6.164-3.471,12.449-10.239,11.696-18.4c-0.601-7.542-5.619-12.304-9.959-13.299
			c-9.07-1.701-11.608,3.791-11.025,4.237c0.553,1.675,4.746,0.597,7.885,3.345c2.851,3.219,3.464,7.783-4.572,10.479
			c-6.432,1.824-12.782-2.969-11.17-15.391c0.722-9.382,11.51-19.226,21.832-13.828c10.977,2.512,23.122,25.674,10.732,48.43
			c-9.169,23.269-46.637,25.152-60.425,0.45c-14.558-23.159-11.715-53.532-4.47-71.264c7.562-18.369,17.263-27.052,16.655-27.459
			c0.604,0.474-9.919,7.91-19.537,26.073c-8.975,17.682-16.012,48.768-1.264,78.265c7.107,14.827,23.068,25.848,40.256,26.886
			c17.398,1.666,35.127-9.035,43.577-23.897C512.187,449.944,498.659,408.397,474.794,401.321z"/>
		<path d="M1068.475,362.558c35.423-4.28,57.665,5.911,57.645,4.671c-0.11,1.284-21.176-10.823-58.099-9.33
			c-36.367-1.575-90.091,33.381-98.008,94.782c-3.597,28.387,0.245,63.477,24.201,86.881c22.159,22.558,58.324,31.265,87.003,16.99
			c29.918-13.823,43.481-48.058,41.626-74.62c-0.036-26.803-12.316-51.809-29.563-64.03c-15.743-12.746-41.224-17.002-59.272-4.616
			c-16.549,10.089-28.335,30.262-27.794,49.354c0.122,16.722,4.209,35.588,18.665,47.304c13.393,12.509,36.007,9.445,45.211-1.283
			c23.735-21.405,7.384-59.359-14.389-52.591c-14.634,9.157-11.806,18.286-11.317,18.59c1.623,1.915,6.879-6.279,14.097-7.313
			c4.564-2.215,11.388,18.321-1.027,24.761c-11.49,9.496-26.653-3.565-24.824-28.647c0.675-6.215,0.971-9.512,4.123-13.378
			c3.435-4.829,7.175-8.853,11.391-11.462c8.063-5.307,18.811-3.594,28.379,3.565c18.985,9.077,33.473,70.253-5.776,91.599
			c-18.484,10.78-45.053,6.874-63.406-9.417c-18.622-15.388-24.723-44.292-23.072-70.083
			C987.549,400.528,1033.073,363.956,1068.475,362.558z"/>
		<path d="M408.6,809.787c4.865,4.415,6.452,9.587,8.821,9.157c1.308-0.032,4.466-5.512,0.336-15.826
			c-2.918-8.892-23.193-25.133-42.305-6.046c-14.306,17.816-12.442,48.667,13.019,65.535c29.223,16.565,62.237-12.564,65.755-40.109
			c3.21-13.501,4.79-32.252-5.141-51.655c-9.465-18.436-30.195-33.508-54.218-31.897c-49.263,5.094-72.78,63.632-59.995,103.793
			c14.235,42.005,48.757,61.124,71.493,71.596c24.016,10.361,40.726,8.747,40.517,9.118c0.193-0.332-16.505-0.767-38.621-13.358
			c-21.002-11.933-51.723-36.019-59.465-70.924c-7.822-35.107,18.14-75.746,46.901-74.988c29.263,1.951,37.208,33.76,30.728,50.969
			c-3.857,19.387-17.054,26.163-26.124,22.803c-9.279-3.049-13.437-21.997-9.168-27.45
			C392.999,804.041,404.525,805.313,408.6,809.787z"/>
		<g>
			<path d="M550.263,888.095c-7.407-26.875-47.936-50.483-84.192-30.688c-32.777,17.587-50.415,62.842-39.995,97.577
				c7.712,35.032,31.7,60.449,53.085,67.525c20.529,6.428,33.472-0.501,34.925-0.573c-1.508-0.067-15.281,4.671-33.258-3.759
				c-18.788-8.987-37.39-35.032-40.635-65.822c-5.177-31.269,12.497-61.717,36.722-72.378c22.396-8.991,44.465,6.535,46.451,18.515
				c4.71,12.103-0.118,27.127-8.169,34.337c-8.233,7.787-14.531,6.27-19.277-0.344c-9.026-14.353,10.274-20.895,9.962-23.679
				c0.182-1.567-3.704-5.264-12.889-3.423c-8.805,0.896-22.732,16.659-15.632,35.64c3.092,19.652,36.608,31.024,53.934,13.666
				C549.347,941.374,559.401,913.666,550.263,888.095z"/>
			<path d="M514.106,1021.936c0.086-0.004,0.134,0.032,0.122,0.087C514.245,1021.972,514.201,1021.941,514.106,1021.936z"/>
			<path d="M514.086,1021.936c0.008,0,0.016,0,0.016,0C514.098,1021.936,514.094,1021.936,514.086,1021.936z"/>
		</g>
		<path d="M580.099,1112.805c-20.899-5.303-51.679-20.624-61.842-51.087c-11.222-30.424,3.692-67.568,30.384-73.878
			c27.454-11.96,40.828,12.303,43.984,26.104c2.792,14.009-5.062,23.933-17.678,30.424c-11.47,4.62-16.173,2.507-18.147-6.965
			c-1.067-10.393,2.365-16.794,4.734-16.9c4.553-0.146,9.2,3.064,10.582,1.386c0.983-0.975,1.675-6.629-7.565-12.596
			c-13.887-6.254-28.039,11.676-28.031,28.323c-1.023,8.43,2.44,22.053,13.2,29.488c10.586,7.581,24.296,7.032,34.779,2.978
			c19.687-5.228,43.304-32.403,36.287-61.839c-2.559-13.583-10.227-28.69-24.702-39.976c-14.44-13.152-39.983-12.244-55.801-4.126
			c-39.932,14.267-53.155,69.945-35.277,103.303c17.113,36.118,52.576,46.964,74.225,49.942c22.926,3.19,37.117-0.64,37.078-0.214
			C616.382,1116.769,601.76,1118.633,580.099,1112.805z"/>
		<path d="M725.707,1164.958c-16.722,12.462-47.15,15.265-72.946,0.6c-26.321-12.979-44.615-45.231-31.652-66.652
			c12.395-26.89,33.148-24.248,45.492-19.36c11.325,4.526,12.825,16.098,9.343,26.127c-4.213,9.433-12.063,11.803-16.308,8
			c-12.371-7.601,10.037-16.391,8.406-19.466c-0.122-1.816-4.039-3.921-12.43-3.057c-8.434-2.863-25.729,19.838-11.107,36.62
			c11.411,18.755,45.053,13.279,54.728-9.066c12.722-19.103,5.504-56.204-20.671-66.356c-11.518-5.394-26.744-7.755-42.992-2.314
			c-8.007,2.792-16.454,7.593-23.048,15.699c-4.304,6.357-10.61,13.682-13.575,23.04c-16.817,40.884,17.753,80.808,48.003,90.462
			c31.6,13.323,65.373,5.137,81.416-10.519c16.813-14.945,19.869-29.705,20.513-29.101
			C748.375,1138.949,743.136,1153.199,725.707,1164.958z"/>
		<path d="M908.736,915.202c-3.727-24.73-8.273-39.635-8.067-39.687c-0.209,0,2.594,15.494,3.605,40.11
			c1.264,23.948-1.464,60.772-29.405,80.61c-12.58,10.168-29.63,14.176-42.06,7.807c-12.252-5.757-21.832-21.638-24.741-35.312
			c-6.926-28.88,15.391-51.798,27.375-50.929c11.155-1.552,27.708,11.557,26.819,20.936c0.912,12.035-6.598,21.622-13.63,19.814
			c-19.155-2.145-4.387-25.488-8.134-26.531c-1.236-1.156-6.132-0.011-11.921,7.755c-7.83,5.852-6.31,33.133,14.594,39.162
			c20.928,9.393,47.707-14.894,45.499-41.228c-1.287-28.872-25.886-51.43-56.239-49.669c-31.206,1.587-61.421,44.825-47.656,87.525
			c6.503,20.07,19.277,38.838,40.923,47.537c9.567,3.515,19.258,3.633,28.28,1.533c0.233,6.049,0.268,19.056-3.806,36.133
			c-5.516,22.724-19.542,57.835-49.342,70.767c-31.106,15.246-62.813-13.204-64.267-42.68c-0.968-14.105,4.497-29.232,10.791-38.645
			c6.673-10.164,12.805-11.614,21.196-12.822c15.435-1.571,23.518,8.047,24.706,21.666c0.62,5.84-1.433,11.052-5.015,16.482
			c-3.123,4.102-3.447,4.537-8.446,4.26c-7.499,0.245-6.803-8.931-6.405-12.659c-1.43-4.087,8.351-0.17,7.818-3.4
			c-0.845,0.652,1.634-10.199-14.334-6.057c-6.862,5.95-7.802,9.192-9.362,18.594c-0.687,9.307,6.227,20.003,16.193,23.707
			c8.016,4.766,25.342,1.761,32.386-8.043c7.103-7.313,13.401-19.415,13.587-32.951c4-25.642-24.608-57.018-53.499-51.418
			c-12.639-0.086-33.097,9.951-41.706,26.819c-9.203,16.185-14.7,35.379-11.972,57.164c3.664,22.471,15.806,40.785,34.432,53.076
			c18.945,11.759,42.795,10.168,59.908,0.498c35.438-21.015,44.121-59.715,47.726-83.485c2.279-18.057,0.742-31.127-0.177-37.108
			c11.553-2.776,21.978-9.173,29.575-16.718C914.872,979.958,912.53,938.179,908.736,915.202z"/>
		<g>
			<path d="M955.752,696.707c-0.04-0.099-0.067-0.142-0.083-0.119C955.676,696.577,955.7,696.617,955.752,696.707z"/>
			<path d="M955.752,696.707c1.114,3.041,10.503,62.305-5.572,126.516c-4.335,15.945-10.961,32.592-21.188,42.392
				c-9.575,10.23-23.672,8.659-33.445,2.29c-22.333-16.055-21.334-44.125-13.464-56.389c7.348-14.006,17.982-15.632,25.516-9.963
				c7.364,4.608,6.598,19.952,2.282,24.292c-9.899,12.893-16.616-13.954-19.648-11.948c-1.714,0.012-4.087,4.229-3.7,13.489
				c-3.297,8.639,17.295,30.036,35.723,15.226c15.916-12.083,22.471-40.362,3.202-61.389c-9.449-9.026-23.826-14.519-38.013-10.515
				c-13.958,3.929-24.272,14.626-30.448,26.313c-14.432,21.729-11.182,71.758,26.266,92.645
				c17.816,10.843,45.843,8.561,59.604-9.591c13.726-16.576,18.156-35.916,21.318-53.63
				C973.99,756.635,957.113,699.677,955.752,696.707z"/>
		</g>
		<path d="M1195.359,545.713c-40.239,47.391-114.327,104.03-202.523,121.818c-89.365,16.367-191.704-46.045-206.637-135.942
			c-19.751-89.166,36.82-166.117,81.905-180.198c22.621-7.794,47.881-4.525,62.782,9.579c14.99,14.63,21.086,38.408,11.507,54.432
			c-19.719,42.289-70.644,20.414-69.104-11.064c-0.841-12.596,13.172-20.359,23.644-18.866c9.888,1.548,19.289,12.027,16.794,16.723
			c-6.495,15.593-20.229,0.095-20.501,3.194c-0.73,0.651,0.577,3.388,4.573,8.205c3.759,4.928,19.415,7.369,26.186-6.803
			c6.362-16.572-6.661-32.204-23.908-37.733c-16.58-5.027-44.663,5.438-47.027,33.966c-1.955,24.619,14.278,50.289,40.192,58.731
			c26.511,10.203,58.941-6.598,72.294-33.034c16.232-28.216,7.866-67.267-15.691-89.396c-24.639-23.462-60.769-26.641-90.612-16.394
			c-31.376,10.563-60.113,38.799-80.607,76.081c-21.756,38.515-26.194,89.25-16.008,138.256
			c11.258,49.499,44.797,94.801,88.903,120.262c43.963,25.911,96.361,33.602,143.515,24.793
			c94.023-23.328,163.775-83.28,203.774-133.628c38.293-52.674,49.792-93.167,50.873-92.452
			C1248.673,455.457,1235.244,495.523,1195.359,545.713z"/>
		<g>
			<path d="M740.885,815.697c-0.043,0.182-0.051,0.273-0.011,0.245C740.842,815.974,740.846,815.887,740.885,815.697z"/>
			<path d="M759.87,582.028c-9.63-63.161-38.968-133.012-91.655-171.818c-25.527-20.742-59.825-30.306-89.724-20.351
				c-30.159,10.558-46.486,36.938-52.125,58.743c-5.429,22.373-2.069,45.338,5.725,63.825c8.675,21.693,27.135,35.383,46.005,40.319
				c18.768,5.525,42.898-1.433,53.254-18.886c9.556-16.331,12.233-32.777,6.736-49.653c-6.405-16.403-21.811-24.363-34.644-22.653
				c-14.705,1.781-21.169,13.883-22.101,22.7c0.47,21.863,17.09,19.052,15.234,18.164c1.841-2.014-8.138-6.993-4.292-15.834
				c2.057-11.285,21.807-12,26.727,4.805c1.994,6.697-1.022,20.095-6.894,27.869c-5.71,7.684-15.672,10.18-27.324,6.807
				c-11.439-3.605-22.515-12.793-26.712-24.777c-5.733-14.484-7.455-30.345-3.965-45.121c3.669-14.267,14.563-32.106,33.216-39.194
				c18.408-7.131,45.148-2.464,66.865,13.808c47.671,31.474,78.845,93.752,91.611,154.188
				c26.069,119.568-3.79,225.033-4.924,230.727C742.251,810.075,779.569,707.455,759.87,582.028z"/>
		</g>
		<path d="M735.325,690.208c-2.112-32.13-16.426-78.371-54.601-110.833c-18.128-15.747-49.172-25.717-74.36-11.163
			c-25.998,12.809-38.175,40.734-43.202,65.716c-11.001,53.677,33.634,106.288,74.253,95.639
			c38.187-6.803,54.755-52.623,43.332-80.887c-4.323-14.487-15.75-29.361-32.027-32.414c-15.601-2.681-28.462,3.787-36.853,14.393
			c-15.163,20.584-4.268,50.85,15.447,47.742c13.267-5.627,13.015-13.764,12.154-14.361c-1.378-1.804-7.032,3.112-13.5,2.796
			c-3.672,0.798-7.159-14.448,1.382-22.51c8.395-7.566,24.525-6.666,28.157,12.544c5.611,17.939-5.015,39.699-23.577,43.324
			c-15.98,7.432-50.104-21.875-44.848-62.466c2.732-19.364,11.06-41.866,28.465-51.442c16.802-11.585,39.257-7.107,56.816,5.24
			c35.805,25.555,54.155,68.523,58.506,99.2c4.774,31.637-3.258,51.549-2.614,51.447
			C727.559,742.218,737.458,723.273,735.325,690.208z"/>
		<path d="M873.411,709.836c-5.331-17.291-25.8-32.943-44.517-30.262c-18.629,0.707-34.711,10.907-46.321,23.412
			c-21.46,27.782-24.982,58.723-31.308,79.437c-4.671,21.456-11.147,33.531-11.229,33.519c0.036,0.115,7.798-11.494,14.44-32.465
			c7.799-19.763,15.459-50.98,35.742-72.599c20.766-21.188,60.409-22.751,66.325,5.947c8.865,25.95-5.852,50.66-18.01,55.142
			c-11.34,5.619-23.707-2.282-26.19-13.741c-3.246-9.307,6.811-20.892,13.5-20.517c14.29,2.175,4.387,26.945,8.462,25.978
			c1.323,0.474,4.201-2.322,7.644-9.216c4.079-5.615,5.639-26.63-15.206-32.608c-17.323-2.017-37.433,15.187-33.867,40.257
			c1.785,22.854,30.416,42.653,54.578,30.269C870.205,782.561,888.139,744.766,873.411,709.836z"/>
		<path d="M583.028,730.29c-5.911-20.252-23.115-40.268-45.721-46.297c-22.582-6.756-47.686,2.902-62.901,18.859
			c-16.49,13.484-24,43.055-17.954,61.732c4.79,19.87,16.742,35.091,30.562,42.862c30.799,15.732,64.101-4.3,71.279-32.698
			c6.152-28.687-12.264-55.766-36.781-54.866c-23.502-0.012-32.023,28.912-22.056,37.326c7.087,8.644,13.003,8.138,13.682,7.033
			c2.167-1.785-14.109-24.023,8.351-23.198c6.503-0.592,15.754,15.186,11.372,26.211c-3.171,10.796-21.638,21.181-32.449,13.734
			c-12.47-5.469-31.087-37.95-8.62-60.576c18.969-27.083,65.088-20.742,77.922,15.424c15.49,33.515,3.806,72.852-16.707,87.746
			c-19.842,16.201-37.839,16.011-37.251,16.967c-0.458-1.109,17.133,1.516,39.873-13.176
			C579.06,814.008,597.583,771.596,583.028,730.29z"/>
		<path d="M517.064,516.493c-15.443-13.642-43.134-17.867-60.52-3.798c-8.628,5.789-14.736,14.776-18.957,20.947
			c-6.503,9.955-8.059,20.351-8.012,29.532c0.426,18.388,6.104,35.067,19.016,47.474c13.327,14.424,37.5,9.224,45.441,0.695
			c26.467-20.809,12.303-55.513-6.046-57.388c-21.018,6.12-12.17,19.584-12.805,18.214c1.363,2.105,6.891-9.469,11.119-6.697
			c4.829,1.733,10.634,22.614-3.037,27.936c-8.509,4.801-13.378,4.549-18.57-1.027c-5.401-5.78-9.303-17.753-8.698-28.714
			c0.13-5.468,1.71-10.629,3.849-13.366c4.632-6.215,7.522-10.049,12.048-13.05c8.102-6.041,18.084-4.383,27.853,3.088
			c9.781,7.072,18.894,22.988,19.158,41.18c0.087,18.076-12.848,37.175-32.923,51.513c-18.484,14.262-47.36,17.496-74.428,31.529
			c-26.909,13.63-49.219,34.325-67.682,55.793c-39.106,45.085-45.322,102.348-47.335,139.669c-1.686,38.467,0.26,62.553-0.17,62.561
			c0.426,0.044,0.289-24.233,4.635-62.139c4.494-37.045,14.965-91.469,53.227-129.734c18.996-19.392,41.006-37.034,65.377-47.498
			c23.648-11.088,53.041-11.933,79.39-28.891c24.411-15.119,46.001-41.199,47.336-71.742
			C546.967,553.227,533.687,529.185,517.064,516.493z"/>
		<path d="M1186.325,607.678c-37.816,33.311-108.405,46.692-162.547,105.392c-24.387,29.377-46.538,66.119-49.902,109.348
			c-3.668,42.285,17.484,90.099,58.786,105.293c41.191,13.579,82.786-5.911,103.066-37.741
			c20.141-32.722,15.119-70.344,3.167-93.799c-11.866-23.21-34.178-43.94-62.917-44.145c-28.13,1.884-49.716,19.881-58.115,44.576
			c-6.847,23.312-4.474,46.668,7.443,65.862c12.537,21.204,39.936,23.546,55.138,15.736c18.44-7.669,26.025-28.841,22.258-43.597
			c-3.704-13.832-11.893-25.982-25.776-26.08c-14.081,3.775-13.235,14.705-14.159,18.428c-0.237,4.814,0.386,7.27,1.318,7.436
			c1.824,2.471,5.28-13.86,13.177-14.219c8.663,0.56,17.465,32.777-4.118,38.289c-10.772,3.072-22.424,1.426-28.003-9.693
			c-6.136-10.74-7.522-28.604-2.365-42.948c3.932-12.837,20.272-24.521,33.366-24.47c13.717-0.016,29.057,12.146,37.452,28.912
			c8.15,16.106,11.952,42.179-1.105,64.473c-11.577,21.266-44.327,37.645-72.117,29.045c-28.532-8.612-48.674-44.595-46.917-80.255
			c1.03-36.43,19.419-71.911,41.274-100.784c45.906-56.085,117.683-75.848,154.334-111.354
			c39.739-33.196,47.735-67.821,48.591-66.656C1236.863,543.597,1226.849,577.535,1186.325,607.678z"/>
		<path d="M1252.037,988.069c-12.252-58.586-37.934-118.821-54.644-175.957c-17.457-56.943-19.829-114.178-5.729-152.443
			c12.616-38.431,29.417-58.506,28.557-58.897c0.852,0.462-16.951,19.372-31.723,57.729c-16.331,38.045-16.758,97.703-1.481,156.585
			c14.563,59.292,37.397,119.669,47.3,177.09c5.303,28.209,9.03,55.936,5.007,77.945c-2.654,21.654-18.255,33.511-31.806,36.477
			c-31.637,9.947-48.169-20.856-39.253-46.088c6.862-26.764,39.458-18.424,41.816-0.853c3.151,17.204-17.959,28.083-22.345,16.754
			c-5.492-8.691-0.841-17.299-2.863-17.639c0.095-0.766-9.627,5.074-4.454,21.896c4.359,21.373,49.377,11.289,44.714-23.324
			c-1.402-16.162-15.475-29.626-31.759-32.564c-18.645-4.339-37.196,10.475-43.529,28.102c-6.713,17.674-6.29,39.269,5.788,57.365
			c13.141,19.498,37.868,23.044,56.883,18.179c19.897-3.522,44.449-24.931,47.095-54.652
			C1263.753,1045.908,1258.398,1017.254,1252.037,988.069z"/>
		<path d="M1255.338,1118.653c-1.69-30.167-3.988-48.927-3.838-48.958c-0.15-0.015,0.367,19.009-0.64,48.963
			c-1.477,29.472-5.319,71.908-29.516,106.967c-20.632,34.285-68.997,62.071-95.374,40.046
			c-26.069-21.918-16.675-64.042-5.276-78.573c10.263-15.032,30.385-11.044,38.85,0.549c7.673,11.968,2.417,32.733-4.979,34.673
			c-8.718,3.688-15.652-5.974-14.29-11.045c1.548-5.409,8.908-6.756,8.114-9.402c0.371-0.28-6.282-7.15-17.46,3.032
			c-10.697,11.186,0.391,42.314,28.212,38.033c26.756-7.744,36.595-41.279,23.001-69.586c-14.551-28.679-62.162-36.516-84.184-4.494
			c-9.785,13.927-16.047,32.391-16.284,54.04c-0.667,21.935,9.165,47.979,30.65,63.624c22.242,15.036,52.484,12.193,72.768-1.678
			c20.264-12.268,38.155-30.586,48.441-51.347C1256.728,1192.673,1256.436,1148.172,1255.338,1118.653z"/>
		<g>
			<path d="M1232.168,1213.912c0.027-0.067,0.059-0.126,0.122-0.079C1232.227,1213.751,1232.184,1213.786,1232.168,1213.912z"/>
			<path d="M1232.168,1213.912c-0.059,0.126-0.055,0.474,0.004,1.027C1232.144,1214.449,1232.136,1214.07,1232.168,1213.912z"/>
			<path d="M1232.172,1214.939c0.552,11.04,13.066,103.899-37.665,188.177c-26.313,44.658-83.09,65.763-126.69,54.269
				c-43.612-13.16-48.346-66.553-34.728-85.522c10.819-21.642,38.621-22.013,52.299-7.261c12.111,13.903,5.07,36.122-8.62,42.392
				c-11.431,6.531-22.847-7.711-20.844-14.716c1.022-7.767,9.536-10.16,8.45-12.454c0.648-0.624-9.232-6.436-18.866,8.26
				c-9.102,13.836,6.705,47.411,37.882,38.917c25.188-6.199,47.305-48.674,21.595-80.898
				c-21.591-29.279-77.136-28.995-96.713,10.767c-22.333,32.15-9.544,109.656,53.503,124.969
				c56.161,11.862,118.951-19.794,144.818-70.663C1254.481,1316.366,1233.301,1225.774,1232.172,1214.939z"/>
		</g>
		<path d="M1122.267,1471.431c4.426,1.276-46.479,70.112-134.777,86.68c-40.71,11.004-94.735-4.154-99.023-43.419
			c-7.17-41.017,23.609-65.835,42.716-61.357c18.353,1.868,31.841,20.189,28.612,38.713c-1.224,19.423-15.357,25.839-25.501,23.02
			c-7.546-2.152-5.488-17.745,0.589-19.123c6.377-2.772,12.885-0.75,13.579-2.993c0.623-1.05-2.492-8.04-15.909-8.403
			c-13.587-1.133-33.46,27.924-8.367,48.864c22.164,15.92,60.015-5.433,61.752-37.354c7.684-29.16-15.676-70.455-52.473-72.551
			c-17.18-1.883-39.406,5.445-54.522,24.504c-14.882,19.021-20.083,46.313-14.16,71.857c4.944,27.754,29.433,48.824,53.658,55.217
			c24.982,7.64,50.119,3.613,72.283-2.397C1082.679,1546.904,1126.653,1471.996,1122.267,1471.431z"/>
		<path d="M831.994,1522.842c-46.447-24.119-96.917-87.907-106.375-167.27c-4.919-39.454-3.265-81.972,16.936-115.721
			c18.617-34.404,54.652-55.016,87.251-45.7c34.59,7.281,52.521,36.903,53.168,66.885c1.212,29.859-10.562,55.398-25.67,65.902
			c-32.714,26.819-71.311-5.236-60.512-42.775c4.032-40.216,43.995-41.717,47.632-14.376c6.025,24.797-24.6,40.813-24.016,23.233
			c-5.307-12.86,14.736-6.566,12.15-11.786c-1.122-0.584-1.576-0.987-6.464-2.855c-3.799-4.169-19.562,2.815-16.718,16.41
			c0.114,5.319,1.769,12.612,8.963,17.82c7.47,4.292,16.654,3.534,23.336-0.328c14.072-6.176,25.982-25.405,22.803-45.653
			c0.119-19.778-21.713-44-46.604-39.928c-26.799,1.733-42.582,29.512-46.976,51.943c-2.113,12.138-3.38,24.852-0.099,38.605
			c2.764,14.737,12.343,27.586,22.554,35.937c23.226,19.565,58.846,16.082,80.911-2.113c24.067-17.555,38.767-53.772,36.105-91.796
			c0.281-38.349-31.608-83.923-75.52-89.822c-44.331-10.978-90.624,20.165-109.309,60.24c-21.662,40.023-21.07,87.82-14.089,128.226
			c14.073,84.394,69.728,146.571,118.465,169.071c48.646,23.403,82.534,26.794,82.178,27.809
			C912.565,1553.854,878.631,1548.381,831.994,1522.842z"/>
		<path d="M984.221,1095.317c-22.12-25.37-55.971-28.999-78.81-6.385c-19.151,21.974-13.13,56.504,6.705,67.071
			c17.828,12.821,41.373-0.995,40.741-14.282c0.849-11.435-3.786-15.546-5.019-15.273c-3.004-0.34-4.853,27.609-24.489,11.933
			c-7.798-5.484-7.435-21.338,1.165-30.396c5.623-8.553,29.721-4.817,37.211,5.899c9.181,9.638,13.564,50.186-12.663,63.446
			c-27.577,16.134-69.159-6.325-75.232-44.003c-7.34-36.702,6.243-73.969,20.769-94.924c14.835-22.005,31.317-28.387,30.839-28.813
			c0.518,0.49-16.639,4.802-34.348,25.907c-17.066,20.371-35.771,56.769-31.376,100.468c1.955,44.867,54.917,85.704,99.314,64.381
			C1005.744,1176.736,1002.802,1119.415,984.221,1095.317z"/>
		<path d="M1070.608,991.899c-3.657-25.026-18.633-43.715-34.463-52.78c-32.004-20.095-75.509-0.277-84.145,33.239
			c-9.548,32.56,12.122,65.258,39.174,65.788c12.478,0.399,25.595-8.592,27.96-19.013c3.238-9.959,0.628-19.289-3.293-24.683
			c-8.675-10.708-16.39-9.172-16.6-7.999c-1.118,2.089,4.639,5.678,7.151,13.425c2.941,7.779-2.575,20.438-13.876,17.872
			c-11.439-1.745-22.648-19.392-16.224-37.192c6.046-16.825,27.549-27.281,46.712-15.98c18.684,7.66,36.303,51.063,3.281,78.388
			c-30.044,30.183-85.55,4.363-96.977-41.496c-14.089-44.043,4.119-90.561,20.869-116.479
			c17.773-27.399,38.278-34.767,37.682-35.138c0.644,0.426-20.552,5.792-41.136,32.418c-19.08,25.535-42.74,70.849-30.693,123.318
			c5.903,25.177,21.978,50.218,46.491,63.446c24.027,14.412,57.211,10.104,78.091-6.791
			C1062.295,1046.007,1074.485,1017.352,1070.608,991.899z"/>
		<g>
			<path d="M1159.711,106.749c-55.565-47.241-133.371-80.674-206.953-82.612c-38.546-0.17-73.333,8.857-103.63,26.542
				c-30.732,18.42-50.412,50.332-53.685,79.848c-4.292,29.91,8.675,60.046,26.156,78.048c18.176,21.958,49.349,28.856,71.833,23.979
				c23.312-4.43,45.741-18.961,55.592-41.566c9.741-22.503,7.838-43.975-2.041-63.122c-25.694-38.041-73.215-23.123-75.718,5.236
				c1.812,24.741,15.313,25.993,16.067,25.053c3.372-1.39-2.504-12.935,1.414-21.211c1.169-6.595,25.378-7.471,29.911,7.427
				c5.611,16.968-4.403,42.681-31.549,44.56c-13.358,0.948-24.742-1.856-32.821-12.556c-10.16-11.807-15.182-25.224-13.33-39.695
				c1.611-14.405,11.186-33.634,31.213-46.989c20.328-13.405,50.424-23.518,80.741-25.156
				c65.218-2.049,135.823,20.659,193.836,61.969c112.006,74.186,147.471,198.566,152.431,209.239
				C1294.966,325.019,1272.909,197.29,1159.711,106.749z"/>
			<path d="M1299.535,336.415c-0.095-0.119-0.218-0.371-0.36-0.671C1299.317,336.095,1299.436,336.32,1299.535,336.415z"/>
			<path d="M1299.768,336.426c-0.063,0.111-0.15,0.071-0.233-0.011C1299.649,336.553,1299.716,336.56,1299.768,336.426z"/>
		</g>
		<path d="M955.87,519.723c-8.699,13.121-46.842,19.913-46.842,19.913s-7.407-39.628,1.283-52.758
			c8.699-13.125,25.938-16.414,38.523-7.344C961.406,488.605,964.56,506.599,955.87,519.723z"/>
		<path d="M888.349,488.624c10.195,11.89,7.593,52.169,7.593,52.169s-38.665-1.753-48.856-13.642
			c-10.2-11.893-9.224-30.159,2.163-40.793C860.646,475.717,878.146,476.731,888.349,488.624z"/>
		<path d="M841.326,544.394c14.222-5.864,49.542,10.634,49.542,10.634s-14.972,37.242-29.188,43.099
			c-14.226,5.867-30.309-1.41-35.932-16.249C820.133,567.039,827.11,550.258,841.326,544.394z"/>
		<path d="M875.2,605.767c0.695-15.94,29.583-42.807,29.583-42.807s26.428,29.492,25.734,45.437
			c-0.7,15.932-13.643,28.268-28.92,27.545C886.323,635.212,874.509,621.704,875.2,605.767z"/>
		<path d="M944.636,593.444c-14.377-5.422-30.4-42.171-30.4-42.171s34.834-17.595,49.215-12.174
			c14.385,5.429,21.832,21.99,16.635,36.991C974.886,591.09,959.021,598.861,944.636,593.444z"/>
		<path d="M847.868,445.984c0,10.428-8.106,18.898-18.112,18.898c-9.998,0-18.109-8.47-18.109-18.898
			c0-10.44,8.111-18.902,18.109-18.902C839.762,427.082,847.868,435.544,847.868,445.984z"/>
		<path d="M1010.723,356.028c0,10.424-8.11,18.89-18.112,18.89c-10.002,0-18.113-8.466-18.113-18.89
			c0-10.44,8.11-18.906,18.113-18.906C1002.613,337.122,1010.723,345.588,1010.723,356.028z"/>
		<path d="M980.114,629.455c0,9.062-7.037,16.398-15.72,16.398c-8.675,0-15.716-7.336-15.716-16.398
			c0-9.054,7.041-16.395,15.716-16.395C973.077,613.06,980.114,620.401,980.114,629.455z"/>
		<path d="M808.007,654.655c0,9.054-7.036,16.402-15.715,16.402c-8.687,0-15.72-7.348-15.72-16.402
			c0-9.058,7.033-16.402,15.72-16.402C800.971,638.253,808.007,645.597,808.007,654.655z"/>
		<path d="M633.266,763.268c0,9.059-7.032,16.403-15.715,16.403c-8.675,0-15.716-7.344-15.716-16.403
			c0-9.054,7.04-16.398,15.716-16.398C626.234,746.87,633.266,754.214,633.266,763.268z"/>
		<path d="M641.942,963.043c0,7.27-5.646,13.173-12.616,13.173c-6.969,0-12.619-5.903-12.619-13.173
			c0-7.265,5.65-13.16,12.619-13.16C636.295,949.882,641.942,955.778,641.942,963.043z"/>
		<path d="M659.292,1009.597c0,7.273-5.646,13.164-12.619,13.164c-6.966,0-12.616-5.891-12.616-13.164s5.65-13.164,12.616-13.164
			C653.645,996.433,659.292,1002.324,659.292,1009.597z"/>
		<path d="M722.394,696.81c0,7.269-5.646,13.168-12.619,13.168c-6.969,0-12.616-5.899-12.616-13.168
			c0-7.269,5.647-13.164,12.616-13.164C716.748,683.646,722.394,689.541,722.394,696.81z"/>
		<path d="M1131.139,568.667c0,9.054-7.036,16.394-15.715,16.394c-8.683,0-15.716-7.34-15.716-16.394
			c0-9.058,7.032-16.402,15.716-16.402C1124.103,552.264,1131.139,559.609,1131.139,568.667z"/>
		<path d="M1154.136,411.888c0,9.054-7.036,16.394-15.716,16.394c-8.675,0-15.715-7.34-15.715-16.394
			c0-9.062,7.04-16.402,15.715-16.402C1147.1,395.486,1154.136,402.826,1154.136,411.888z"/>
		<ellipse cx="1092.424" cy="388.69" rx="12.651" ry="13.201"/>
		<path d="M826.313,516.632c0,7.281-5.666,13.197-12.651,13.197c-6.985,0-12.652-5.915-12.652-13.197
			c0-7.297,5.666-13.204,12.652-13.204C820.646,503.428,826.313,509.335,826.313,516.632z"/>
		<path d="M272.899,544.272c0,7.289-5.666,13.2-12.652,13.2s-12.652-5.911-12.652-13.2c0-7.293,5.666-13.2,12.652-13.2
			S272.899,536.979,272.899,544.272z"/>
		<path d="M1097.79,715.447c0,7.289-5.662,13.192-12.651,13.192c-6.981,0-12.648-5.903-12.648-13.192
			c0-7.293,5.666-13.201,12.648-13.201C1092.127,702.247,1097.79,708.154,1097.79,715.447z"/>
		<ellipse cx="1152.608" cy="760.24" rx="12.651" ry="13.201"/>
		<path d="M978.199,1396.964c0,7.289-5.666,13.193-12.651,13.193s-12.648-5.903-12.648-13.193c0-7.293,5.662-13.208,12.648-13.208
			S978.199,1389.672,978.199,1396.964z"/>
		<path d="M1079.393,1278.578c0,7.289-5.666,13.192-12.651,13.192c-6.985,0-12.652-5.902-12.652-13.192
			c0-7.289,5.666-13.2,12.652-13.2C1073.727,1265.378,1079.393,1271.289,1079.393,1278.578z"/>
		<ellipse cx="1137.276" cy="1124.994" rx="12.651" ry="13.2"/>
		<ellipse cx="772.355" cy="1409.766" rx="12.651" ry="13.197"/>
		<path d="M766.606,1348.974c0,7.285-5.662,13.2-12.651,13.2c-6.985,0-12.648-5.915-12.648-13.2c0-7.289,5.662-13.201,12.648-13.201
			C760.944,1335.773,766.606,1341.685,766.606,1348.974z"/>
		<path d="M387.898,443.48c0,7.289-5.666,13.193-12.652,13.193c-6.985,0-12.652-5.903-12.652-13.193c0-7.297,5.666-13.2,12.652-13.2
			C382.232,430.28,387.898,436.184,387.898,443.48z"/>
		<path d="M429.291,617.854c0,7.293-5.662,13.2-12.651,13.2c-6.981,0-12.652-5.906-12.652-13.2c0-7.289,5.67-13.196,12.652-13.196
			C423.628,604.658,429.291,610.565,429.291,617.854z"/>
		<path d="M372.566,657.849c0,7.289-5.662,13.208-12.652,13.208c-6.985,0-12.651-5.919-12.651-13.208
			c0-7.281,5.666-13.196,12.651-13.196C366.903,644.653,372.566,650.568,372.566,657.849z"/>
		<path d="M328.1,712.249c0,7.284-5.666,13.2-12.651,13.2c-6.985,0-12.652-5.915-12.652-13.2c0-7.289,5.666-13.201,12.652-13.201
			C322.434,699.048,328.1,704.96,328.1,712.249z"/>
		<path d="M521.289,377.891c0,7.285-5.666,13.196-12.656,13.196c-6.984,0-12.647-5.911-12.647-13.196
			c0-7.293,5.662-13.204,12.647-13.204C515.622,364.687,521.289,370.597,521.289,377.891z"/>
		<path d="M579.554,353.891c0,7.289-5.666,13.196-12.651,13.196s-12.652-5.907-12.652-13.196c0-7.293,5.666-13.2,12.652-13.2
			S579.554,346.598,579.554,353.891z"/>
		<path d="M660.816,346.693c0,12.145-9.441,22.001-21.085,22.001c-11.645,0-21.078-9.856-21.078-22.001
			c0-12.154,9.433-22.001,21.078-22.001C651.375,324.692,660.816,334.539,660.816,346.693z"/>
		<path d="M936.798,733.848c0,12.146-9.437,21.998-21.081,21.998c-11.645,0-21.082-9.852-21.082-21.998
			c0-12.15,9.437-22.001,21.082-22.001C927.361,711.846,936.798,721.698,936.798,733.848z"/>
		<path d="M1157.587,698.654c0,12.146-9.437,21.993-21.085,21.993c-11.64,0-21.077-9.847-21.077-21.993
			c0-12.154,9.437-22.002,21.077-22.002C1148.15,676.652,1157.587,686.5,1157.587,698.654z"/>
		<path d="M838.672,1453.761c0,12.145-9.437,21.997-21.085,21.997c-11.64,0-21.077-9.852-21.077-21.997
			c0-12.146,9.437-22.001,21.077-22.001C829.234,1431.76,838.672,1441.615,838.672,1453.761z"/>
		<path d="M797.275,332.296c0,12.146-9.441,21.997-21.089,21.997c-11.641,0-21.078-9.851-21.078-21.997
			c0-12.146,9.437-22.001,21.078-22.001C787.834,310.295,797.275,320.15,797.275,332.296z"/>
		<path d="M1054.478,606.663c0,15.024-11.672,27.194-26.065,27.194s-26.068-12.17-26.068-27.194
			c0-15.02,11.676-27.198,26.068-27.198S1054.478,591.643,1054.478,606.663z"/>
		<path d="M172.861,710.65c0,15.02-11.672,27.194-26.072,27.194c-14.396,0-26.064-12.174-26.064-27.194
			c0-15.02,11.668-27.198,26.064-27.198C161.19,683.451,172.861,695.629,172.861,710.65z"/>
		<path d="M1222.368,471.476c0,20.323-15.787,36.797-35.265,36.797c-19.474,0-35.265-16.473-35.265-36.797
			c0-20.319,15.79-36.793,35.265-36.793C1206.581,434.683,1222.368,451.156,1222.368,471.476z"/>
		<g>
			<g>
				<path d="M1089.925,957.057c39.469,132.373-67.663,151.5-67.663,151.5c9.863,138.252-93.041,123.551-93.041,123.551
					c19.735,82.364-23.368,129.02-23.368,129.02c-60.611,55.896-123.239,9.236-123.239,9.236
					c88.815,120.609,194.535-27.94,194.535-27.94c184.667-238.285,198.764-483.915,198.764-483.915
					C1158.997,946.759,1089.925,957.057,1089.925,957.057z M973.622,1302.708c-12.063,0-21.847-10.203-21.847-22.796
					c0-12.592,9.784-22.799,21.847-22.799c12.067,0,21.852,10.207,21.852,22.799
					C995.474,1292.505,985.689,1302.708,973.622,1302.708z M1060.322,1154.889c-9.733,0-17.619-8.233-17.619-18.385
					c0-10.155,7.885-18.385,17.619-18.385s17.622,8.229,17.622,18.385C1077.944,1146.656,1070.055,1154.889,1060.322,1154.889z
					 M1126.575,996.033c-8.952,0-16.213-7.569-16.213-16.912c0-9.342,7.261-16.916,16.213-16.916
					c8.955,0,16.213,7.574,16.213,16.916C1142.788,988.464,1135.53,996.033,1126.575,996.033z"/>
			</g>
		</g>
		<path d="M1006.139,1475.778c0,0,8.825,28.343-14.945,55.988c0,0,32.603,4.249,67.24-31.889
			C1058.434,1499.877,1027.189,1504.828,1006.139,1475.778z"/>
		<path d="M1125.675,1329.796c0,0,23.766,53.148-2.717,99.918c0,0,67.916-25.511,87.611-131.807
			C1210.569,1297.906,1187.478,1328.374,1125.675,1329.796z"/>
		<path d="M1192.086,1154.593c0,0,16.098,33.595,5.749,65.992c0,0,28.75-23.996,36.797-79.189
			C1234.632,1141.396,1223.129,1164.192,1192.086,1154.593z"/>
		<path d="M1171.387,1010.612c0,0,29.895-15.597,49.444,3.597c0,0-6.898-79.193-25.298-113.988
			C1195.533,900.221,1184.038,989.013,1171.387,1010.612z"/>
		<g id="XMLID_1_">
			<g>
				<path d="M731.42,824.148c2.204-50.001-34.791-46.859-40.086-46.1c-5.208,0.154-42.4,3.423-33.84,52.587
					c0,0-39.063-35.446,4.901-75.528c0,0,20.023-21.165,24.73-42.526c7.443,20.303,29.922,37.737,29.922,37.737
					C765.564,782.293,731.42,824.148,731.42,824.148z"/>
			</g>
		</g>
		<g id="XMLID_5_">
			<g>
				<path d="M735.906,910.744c42.614,2.582,39.932-40.821,39.284-47.039c-0.13-6.109-2.914-49.753-44.813-39.711
					c0,0,30.203-45.839,64.362,5.754c0,0,18.033,23.494,36.237,29.018c-17.295,8.734-32.154,35.115-32.154,35.115
					C771.574,950.811,735.906,910.744,735.906,910.744z"/>
			</g>
		</g>
		<g id="XMLID_6_">
			<g>
				<path d="M662.111,916.007c-2.199,50.005,34.791,46.862,40.087,46.104c5.208-0.158,42.395-3.419,33.839-52.587
					c0,0,39.064,35.438-4.896,75.524c0,0-20.032,21.165-24.738,42.526c-7.435-20.295-29.922-37.737-29.922-37.737
					C627.968,957.866,662.111,916.007,662.111,916.007z"/>
			</g>
		</g>
		<g id="XMLID_7_">
			<g>
				<path d="M657.625,829.415c-42.613-2.586-39.935,40.817-39.284,47.044c0.134,6.105,2.914,49.749,44.809,39.703
					c0,0-30.199,45.843-64.355-5.753c0,0-18.033-23.494-36.244-29.01c17.295-8.747,32.158-35.119,32.158-35.119
					C621.95,789.345,657.625,829.415,657.625,829.415z"/>
			</g>
		</g>
		<path d="M737.272,872.79c0,22.918-17.805,41.496-39.774,41.496c-21.966,0-39.77-18.578-39.77-41.496
			c0-22.929,17.805-41.499,39.77-41.499C719.468,831.291,737.272,849.861,737.272,872.79z"/>
		<g>
			<path d="M744.861,328.569c-9.389-18.318-43.565-22.432-57.981-1.852c-15.056,17.543-13.879,41.523-8.075,56.511
				c5.623,15.842,15.32,26.105,20.797,34.164c12.852,16.43,18.933,28.749,19.517,28.477c-0.608,0.297,0.083-14.089-7.336-35.332
				c-7.775-20.77-18.646-48.568-4.119-64.733c10.776-16.047,31.608,5.425,25.56,21.326c-0.036,3.601-9.599,2.338-10.041-3.127
				c-0.798-4.809,2.949-7.625,2.574-7.597c0.498,0.431-4.284-0.205-6.898,7.384c-2.977,6.259,7.846,24.79,25.062,12.501
				C753.161,364.094,756.139,346.156,744.861,328.569z"/>
			<path d="M681.672,555.281c0.13,0.04,0.225,0.075,0.268,0.103C681.996,555.209,681.917,555.182,681.672,555.281z"/>
			<path d="M681.941,555.383c-0.004,0.02,0.011,0.02-0.004,0.056C682,555.431,681.996,555.411,681.941,555.383z"/>
			<path d="M696.993,499.634c-13.824-10.737-40.066-1.919-44.208,13.393c-6.112,13.508-3.798,27.214,2.594,35.763
				c13.895,14.349,24.406,7.257,26.294,6.491c-1.986-0.659-12.762-3.546-14.148-13.417c-1.339-11.617,9.18-25.037,16.327-16.805
				c25.18,17.824,36.694,65.7,37.073,63.185c-0.205,0.012,3.83-9.52,4.363-26.298C725.107,546.282,724.542,518.654,696.993,499.634z
				"/>
		</g>
	</g>
	<g>
		<path d="M1571.651,342.547c58.929-23.739,132.34-45.764,214.771-55.738c81.482-13.73,175.285-15.984,267.895,8.012
			c92.91,23.194,183.214,65.894,266.759,120.377c83.197,58.151,154.879,121.399,209.432,208.015
			c52.643,83.236,80.63,177.56,64.821,268.867c-21.457,91.757-110.489,143.057-176.596,125.332
			c-31.581-6.788-63.707-24.797-81.768-55.655c-17.808-29.109-23.628-60.828-24.868-91.541c-1.382-32.465,8.269-64.2,26.147-90.051
			c18.7-26.634,48.876-43.248,79.288-44.066c31.992-1.836,61.638,17.954,76.635,42.084c15.873,24.197,21.867,52.331,19.766,79.035
			c-1.911,26.376-14.159,54.388-37.543,68.895c-22.988,12.481-48.796,16.224-71.911,1.378
			c-37.757-28.643-45.812-83.478-14.973-112.768c13.931-10.992,32.126-18.527,49.784-10.049
			c16.228,9.066,21.164,24.896,22.136,37.479c1.619,12.774-6.105,27.712-16.458,31.068c-10.385,4.19-19.751,0.024-24.11-4.888
			c-9.382-10.839-5.457-18.806-4.865-18.432c1.896-0.635,2.661,6.765,10.18,11.293c7.716,5.576,21.938-0.181,18.606-17.078
			c-3.104-19.084-20.644-29.571-39.416-10.515c-15.32,12.987-7.825,52.852,15.187,66.933c8.481,6.341,27.016,3.439,38.286-3.827
			c11.514-7.846,18.74-23.833,19.521-42.206c2.835-36.268-23.549-80.717-59.284-77.077c-38.713,0.723-66.937,44.568-64.844,91.323
			c1.769,50.949,23.763,96.503,73.041,104.669c43.822,12.777,110.506-22.412,128.235-92.247
			c13.63-68.958-8.229-161.844-55.154-236.907c-50.708-72.737-119.326-148-195.589-203.533
			c-78.726-54.428-166.812-99.287-255.686-124.14c-89.27-25.887-179.432-26.708-261.009-15.676
			c-82.272,7.361-154.382,26.48-214.226,48.268c-119.769,42.273-195.756,67.56-195.842,67.166
			C1378.151,416.713,1453.083,388.832,1571.651,342.547z"/>
		<path d="M2359.631,576.642c32.97-14.909,68.547,14.63,67.599,45.607c0.427,13.07-2.432,28.958-14.293,38.857
			c-10.835,9.355-26.479,10.014-36.272,3.913c-8.71-4.904-17.571-14.452-16.513-25.974c0.845-10.641,7.929-17.369,14.049-18.76
			c12.801-2.416,16.387,5.335,15.565,5.971c-0.781,2.365-6.697,0.841-11.135,4.715c-4.012,4.549-4.888,10.993,6.468,14.795
			c9.074,2.574,18.037-4.19,15.763-21.729c-1.026-13.244-16.253-27.139-30.814-19.518c-15.502,3.546-32.639,36.248-15.155,68.374
			c12.944,32.84,65.832,35.497,85.298,0.623c20.548-32.691,16.545-75.56,6.317-100.594c-10.669-25.923-24.378-38.183-23.533-38.76
			c-0.837,0.663,14.009,11.163,27.593,36.805c12.667,24.959,22.602,68.84,1.777,110.477c-10.029,20.932-32.56,36.493-56.82,37.953
			c-24.552,2.35-49.586-12.762-61.511-33.736C2306.838,645.273,2325.933,586.633,2359.631,576.642z"/>
		<path d="M2255.806,471.784c30.554-13.812,63.525,13.56,62.648,42.266c0.379,12.11-2.259,26.827-13.252,35.999
			c-10.037,8.675-24.537,9.288-33.603,3.633c-8.079-4.545-16.292-13.398-15.304-24.075c0.781-9.851,7.344-16.086,13.014-17.382
			c11.862-2.231,15.187,4.947,14.413,5.536c-0.719,2.187-6.192,0.782-10.307,4.375c-3.719,4.209-4.532,10.18,5.979,13.705
			c8.418,2.385,16.727-3.889,14.617-20.138c-0.948-12.268-15.06-25.145-28.556-18.084c-14.357,3.289-30.247,33.582-14.042,63.358
			c11.996,30.424,60.998,32.888,79.043,0.577c19.039-30.294,15.32-70.016,5.835-93.211c-9.879-24.027-22.578-35.383-21.788-35.92
			c-0.774,0.62,12.99,10.345,25.571,34.108c11.727,23.131,20.943,63.789,1.65,102.363c-9.303,19.403-30.175,33.824-52.666,35.17
			c-22.736,2.184-45.93-11.818-56.993-31.261C2206.892,535.384,2224.573,481.043,2255.806,471.784z"/>
		<path d="M2164.665,401.321c23.367-10.558,48.56,10.37,47.896,32.312c0.301,9.259-1.729,20.513-10.124,27.529
			c-7.684,6.63-18.756,7.092-25.697,2.772c-6.176-3.471-12.454-10.239-11.712-18.4c0.608-7.542,5.631-12.304,9.966-13.299
			c9.066-1.701,11.609,3.791,11.025,4.237c-0.561,1.675-4.746,0.597-7.889,3.345c-2.843,3.219-3.451,7.783,4.573,10.479
			c6.436,1.824,12.793-2.969,11.174-15.391c-0.719-9.382-11.514-19.226-21.836-13.828c-10.977,2.512-23.115,25.674-10.724,48.43
			c9.161,23.269,46.641,25.152,60.413,0.45c14.563-23.159,11.728-53.532,4.47-71.264c-7.55-18.369-17.255-27.052-16.647-27.459
			c-0.608,0.474,9.918,7.91,19.545,26.073c8.963,17.682,16.008,48.768,1.263,78.265c-7.123,14.827-23.075,25.848-40.268,26.886
			c-17.389,1.666-35.118-9.035-43.576-23.897C2127.272,449.944,2140.792,408.397,2164.665,401.321z"/>
		<path d="M1570.988,362.558c-35.426-4.28-57.681,5.911-57.649,4.671c0.111,1.284,21.173-10.823,58.092-9.33
			c36.382-1.575,90.099,33.381,98.012,94.782c3.602,28.387-0.244,63.477-24.204,86.881c-22.16,22.558-58.313,31.265-86.995,16.99
			c-29.915-13.823-43.482-48.058-41.634-74.62c0.031-26.803,12.32-51.809,29.567-64.03c15.731-12.746,41.223-17.002,59.284-4.616
			c16.545,10.089,28.335,30.262,27.791,49.354c-0.119,16.722-4.21,35.588-18.677,47.304c-13.386,12.509-35.996,9.445-45.204-1.283
			c-23.739-21.405-7.383-59.359,14.397-52.591c14.626,9.157,11.79,18.286,11.309,18.59c-1.627,1.915-6.887-6.279-14.105-7.313
			c-4.564-2.215-11.388,18.321,1.042,24.761c11.482,9.496,26.638-3.565,24.813-28.647c-0.664-6.215-0.964-9.512-4.123-13.378
			c-3.443-4.829-7.178-8.853-11.388-11.462c-8.07-5.307-18.811-3.594-28.383,3.565c-18.976,9.077-33.476,70.253,5.781,91.599
			c18.495,10.78,45.053,6.874,63.406-9.417c18.621-15.388,24.718-44.292,23.075-70.083
			C1651.902,400.528,1606.398,363.956,1570.988,362.558z"/>
		<path d="M2230.859,809.787c-4.872,4.415-6.451,9.587-8.829,9.157c-1.311-0.032-4.454-5.512-0.323-15.826
			c2.922-8.892,23.186-25.133,42.289-6.046c14.318,17.816,12.453,48.667-13.007,65.535c-29.219,16.565-62.238-12.564-65.767-40.109
			c-3.198-13.501-4.778-32.252,5.157-51.655c9.469-18.436,30.183-33.508,54.214-31.897c49.263,5.094,72.78,63.632,60.003,103.793
			c-14.239,42.005-48.765,61.124-71.509,71.596c-24.007,10.361-40.717,8.747-40.505,9.118c-0.197-0.332,16.506-0.767,38.617-13.358
			c20.999-11.933,51.719-36.019,59.458-70.924c7.834-35.107-18.132-75.746-46.894-74.988c-29.259,1.951-37.203,33.76-30.728,50.969
			c3.854,19.387,17.05,26.163,26.124,22.803c9.279-3.049,13.433-21.997,9.169-27.45
			C2246.464,804.041,2234.935,805.313,2230.859,809.787z"/>
		<g>
			<path d="M2089.2,888.095c7.399-26.875,47.927-50.483,84.191-30.688c32.766,17.587,50.4,62.842,39.983,97.577
				c-7.699,35.032-31.691,60.449-53.076,67.525c-20.525,6.428-33.476-0.501-34.93-0.573c1.508-0.067,15.289,4.671,33.255-3.759
				c18.788-8.987,37.394-35.032,40.631-65.822c5.188-31.269-12.485-61.717-36.705-72.378c-22.397-8.991-44.469,6.535-46.467,18.515
				c-4.699,12.103,0.134,27.127,8.181,34.337c8.229,7.787,14.523,6.27,19.285-0.344c9.01-14.353-10.291-20.895-9.974-23.679
				c-0.182-1.567,3.712-5.264,12.888-3.423c8.805,0.896,22.729,16.659,15.628,35.64c-3.079,19.652-36.603,31.024-53.929,13.666
				C2090.108,941.374,2080.055,913.666,2089.2,888.095z"/>
			<path d="M2125.354,1021.936c-0.095-0.004-0.134,0.032-0.134,0.087C2125.211,1021.972,2125.259,1021.941,2125.354,1021.936z"/>
			<path d="M2125.369,1021.936c-0.008,0-0.015,0-0.015,0C2125.361,1021.936,2125.361,1021.936,2125.369,1021.936z"/>
		</g>
		<path d="M2059.356,1112.805c20.904-5.303,51.687-20.624,61.843-51.087c11.23-30.424-3.688-67.568-30.38-73.878
			c-27.458-11.96-40.836,12.303-43.987,26.104c-2.788,14.009,5.062,23.933,17.69,30.424c11.467,4.62,16.165,2.507,18.14-6.965
			c1.066-10.393-2.361-16.794-4.731-16.9c-4.557-0.146-9.208,3.064-10.59,1.386c-0.979-0.975-1.666-6.629,7.566-12.596
			c13.883-6.254,28.043,11.676,28.035,28.323c1.019,8.43-2.441,22.053-13.204,29.488c-10.582,7.581-24.3,7.032-34.787,2.978
			c-19.68-5.228-43.3-32.403-36.271-61.839c2.559-13.583,10.226-28.69,24.71-39.976c14.428-13.152,39.96-12.244,55.786-4.126
			c39.928,14.267,53.156,69.945,35.277,103.303c-17.113,36.118-52.563,46.964-74.218,49.942c-22.933,3.19-37.125-0.64-37.085-0.214
			C2023.077,1116.769,2037.694,1118.633,2059.356,1112.805z"/>
		<path d="M1913.757,1164.958c16.726,12.462,47.153,15.265,72.946,0.6c26.305-12.979,44.611-45.231,31.643-66.652
			c-12.391-26.89-33.136-24.248-45.488-19.36c-11.332,4.526-12.833,16.098-9.342,26.127c4.209,9.433,12.067,11.803,16.3,8
			c12.375-7.601-10.037-16.391-8.403-19.466c0.127-1.816,4.036-3.921,12.438-3.057c8.426-2.863,25.729,19.838,11.096,36.62
			c-11.396,18.755-45.053,13.279-54.728-9.066c-12.715-19.103-5.504-56.204,20.675-66.356c11.514-5.394,26.755-7.755,42.992-2.314
			c8.016,2.792,16.457,7.593,23.051,15.699c4.296,6.357,10.614,13.682,13.576,23.04c16.813,40.884-17.761,80.808-48.007,90.462
			c-31.596,13.323-65.372,5.137-81.411-10.519c-16.813-14.945-19.87-29.705-20.509-29.101
			C1891.076,1138.949,1896.328,1153.199,1913.757,1164.958z"/>
		<path d="M1730.724,915.202c3.735-24.73,8.276-39.635,8.071-39.687c0.205,0-2.598,15.494-3.609,40.11
			c-1.256,23.948,1.469,60.772,29.402,80.61c12.58,10.168,29.638,14.176,42.06,7.807c12.257-5.757,21.828-21.638,24.742-35.312
			c6.926-28.88-15.383-51.798-27.379-50.929c-11.151-1.552-27.711,11.557-26.811,20.936c-0.908,12.035,6.595,21.622,13.639,19.814
			c19.15-2.145,4.375-25.488,8.118-26.531c1.24-1.156,6.143-0.011,11.933,7.755c7.817,5.852,6.309,33.133-14.602,39.162
			c-20.912,9.393-47.699-14.894-45.504-41.228c1.296-28.872,25.895-51.43,56.244-49.669c31.21,1.587,61.424,44.825,47.652,87.525
			c-6.499,20.07-19.269,38.838-40.907,47.537c-9.58,3.515-19.269,3.633-28.288,1.533c-0.236,6.049-0.276,19.056,3.807,36.133
			c5.512,22.724,19.545,57.835,49.333,70.767c31.107,15.246,62.814-13.204,64.276-42.68c0.963-14.105-4.502-29.232-10.788-38.645
			c-6.681-10.164-12.801-11.614-21.204-12.822c-15.439-1.571-23.518,8.047-24.703,21.666c-0.623,5.84,1.438,11.052,5.007,16.482
			c3.127,4.102,3.459,4.537,8.466,4.26c7.486,0.245,6.791-8.931,6.389-12.659c1.43-4.087-8.355-0.17-7.81-3.4
			c0.837,0.652-1.643-10.199,14.326-6.057c6.854,5.95,7.802,9.192,9.358,18.594c0.695,9.307-6.223,20.003-16.19,23.707
			c-8.016,4.766-25.342,1.761-32.378-8.043c-7.099-7.313-13.409-19.415-13.599-32.951c-3.996-25.642,24.615-57.018,53.495-51.418
			c12.659-0.086,33.105,9.951,41.713,26.819c9.2,16.185,14.705,35.379,11.98,57.164c-3.665,22.471-15.81,40.785-34.44,53.076
			c-18.946,11.759-42.795,10.168-59.9,0.498c-35.45-21.015-44.122-59.715-47.731-83.485c-2.282-18.057-0.734-31.127,0.182-37.108
			c-11.562-2.776-21.986-9.173-29.575-16.718C1724.596,979.958,1726.925,938.179,1730.724,915.202z"/>
		<g>
			<path d="M1683.712,696.707c0.04-0.099,0.063-0.142,0.079-0.119C1683.783,696.577,1683.759,696.617,1683.712,696.707z"/>
			<path d="M1683.712,696.707c-1.114,3.041-10.511,62.305,5.575,126.516c4.328,15.945,10.946,32.592,21.173,42.392
				c9.588,10.23,23.675,8.659,33.46,2.29c22.325-16.055,21.322-44.125,13.449-56.389c-7.336-14.006-17.974-15.632-25.508-9.963
				c-7.368,4.608-6.602,19.952-2.282,24.292c9.887,12.893,16.623-13.954,19.648-11.948c1.705,0.012,4.082,4.229,3.696,13.489
				c3.301,8.639-17.287,30.036-35.727,15.226c-15.913-12.083-22.467-40.362-3.198-61.389c9.453-9.026,23.841-14.519,38.017-10.515
				c13.954,3.929,24.275,14.626,30.451,26.313c14.428,21.729,11.167,71.758-26.274,92.645c-17.816,10.843-45.844,8.561-59.593-9.591
				c-13.741-16.576-18.171-35.916-21.322-53.63C1665.469,756.635,1682.345,699.677,1683.712,696.707z"/>
		</g>
		<path d="M1444.112,545.713c40.228,47.391,114.319,104.03,202.515,121.818c89.364,16.367,191.703-46.045,206.621-135.942
			c19.759-89.166-36.816-166.117-81.885-180.198c-22.626-7.794-47.905-4.525-62.799,9.579
			c-14.981,14.63-21.077,38.408-11.498,54.432c19.719,42.289,70.632,20.414,69.1-11.064c0.845-12.596-13.165-20.359-23.645-18.866
			c-9.887,1.548-19.292,12.027-16.789,16.723c6.499,15.593,20.232,0.095,20.501,3.194c0.727,0.651-0.577,3.388-4.572,8.205
			c-3.767,4.928-19.419,7.369-26.195-6.803c-6.357-16.572,6.673-32.204,23.921-37.733c16.583-5.027,44.658,5.438,47.019,33.966
			c1.959,24.619-14.27,50.289-40.197,58.731c-26.503,10.203-58.937-6.598-72.29-33.034c-16.229-28.216-7.866-67.267,15.699-89.396
			c24.639-23.462,60.76-26.641,90.611-16.394c31.376,10.563,60.113,38.799,80.615,76.081c21.741,38.515,26.187,89.25,15.991,138.256
			c-11.245,49.499-44.792,94.801-88.898,120.262c-43.971,25.911-96.369,33.602-143.515,24.793
			c-94.031-23.328-163.779-83.28-203.778-133.628c-38.294-52.674-49.796-93.167-50.866-92.452
			C1390.783,455.457,1404.216,495.523,1444.112,545.713z"/>
		<g>
			<path d="M1898.57,815.697c0.048,0.182,0.056,0.273,0.016,0.245C1898.626,815.974,1898.602,815.887,1898.57,815.697z"/>
			<path d="M1879.586,582.028c9.626-63.161,38.98-133.012,91.662-171.818c25.524-20.742,59.813-30.306,89.728-20.351
				c30.144,10.558,46.475,36.938,52.106,58.743c5.433,22.373,2.077,45.338-5.717,63.825c-8.679,21.693-27.127,35.383-46.009,40.319
				c-18.764,5.525-42.881-1.433-53.243-18.886c-9.563-16.331-12.233-32.777-6.736-49.653c6.405-16.403,21.804-24.363,34.637-22.653
				c14.713,1.781,21.173,13.883,22.104,22.7c-0.474,21.863-17.09,19.052-15.234,18.164c-1.84-2.014,8.135-6.993,4.297-15.834
				c-2.069-11.285-21.812-12-26.732,4.805c-1.998,6.697,1.027,20.095,6.895,27.869c5.701,7.684,15.675,10.18,27.324,6.807
				c11.443-3.605,22.514-12.793,26.708-24.777c5.742-14.484,7.455-30.345,3.972-45.121c-3.672-14.267-14.563-32.106-33.223-39.194
				c-18.408-7.131-45.148-2.464-66.865,13.808c-47.668,31.474-78.853,93.752-91.608,154.188
				c-26.076,119.568,3.791,225.033,4.92,230.727C1897.212,810.075,1859.898,707.455,1879.586,582.028z"/>
		</g>
		<path d="M1904.138,690.208c2.101-32.13,16.427-78.371,54.593-110.833c18.132-15.747,49.175-25.717,74.368-11.163
			c25.989,12.809,38.167,40.734,43.197,65.716c10.992,53.677-33.642,106.288-74.25,95.639
			c-38.198-6.803-54.766-52.623-43.332-80.887c4.32-14.487,15.755-29.361,32.023-32.414c15.605-2.681,28.461,3.787,36.848,14.393
			c15.162,20.584,4.265,50.85-15.446,47.742c-13.26-5.627-13.015-13.764-12.154-14.361c1.382-1.804,7.029,3.112,13.497,2.796
			c3.672,0.798,7.162-14.448-1.382-22.51c-8.387-7.566-24.521-6.666-28.154,12.544c-5.598,17.939,5.015,39.699,23.582,43.324
			c15.975,7.432,50.1-21.875,44.855-62.466c-2.732-19.364-11.072-41.866-28.469-51.442c-16.813-11.585-39.257-7.107-56.82,5.24
			c-35.814,25.555-54.151,68.523-58.51,99.2c-4.778,31.637,3.253,51.549,2.622,51.447
			C1911.901,742.218,1902.005,723.273,1904.138,690.208z"/>
		<path d="M1766.032,709.836c5.338-17.291,25.8-32.943,44.54-30.262c18.629,0.707,34.7,10.907,46.301,23.412
			c21.464,27.782,24.994,58.723,31.32,79.437c4.675,21.456,11.144,33.531,11.23,33.519c-0.04,0.115-7.795-11.494-14.436-32.465
			c-7.802-19.763-15.463-50.98-35.75-72.599c-20.761-21.188-60.405-22.751-66.328,5.947c-8.853,25.95,5.868,50.66,18.021,55.142
			c11.34,5.619,23.7-2.282,26.187-13.741c3.246-9.307-6.815-20.892-13.497-20.517c-14.293,2.175-4.39,26.945-8.465,25.978
			c-1.319,0.474-4.202-2.322-7.652-9.216c-4.068-5.615-5.631-26.63,15.217-32.608c17.318-2.017,37.424,15.187,33.863,40.257
			c-1.785,22.854-30.42,42.653-54.577,30.269C1769.254,782.561,1751.319,744.766,1766.032,709.836z"/>
		<path d="M2056.427,730.29c5.915-20.252,23.115-40.268,45.725-46.297c22.578-6.756,47.691,2.902,62.909,18.859
			c16.481,13.484,23.992,43.055,17.951,61.732c-4.802,19.87-16.75,35.091-30.562,42.862c-30.807,15.732-64.102-4.3-71.28-32.698
			c-6.152-28.687,12.264-55.766,36.778-54.866c23.51-0.012,32.022,28.912,22.048,37.326c-7.076,8.644-12.99,8.138-13.678,7.033
			c-2.164-1.785,14.112-24.023-8.355-23.198c-6.499-0.592-15.739,15.186-11.364,26.211c3.167,10.796,21.638,21.181,32.458,13.734
			c12.462-5.469,31.067-37.95,8.615-60.576c-18.976-27.083-65.088-20.742-77.921,15.424c-15.502,33.515-3.806,72.852,16.702,87.746
			c19.83,16.201,37.844,16.011,37.251,16.967c0.45-1.109-17.137,1.516-39.881-13.176
			C2060.399,814.008,2041.88,771.596,2056.427,730.29z"/>
		<path d="M2122.399,516.493c15.439-13.642,43.119-17.867,60.516-3.798c8.624,5.789,14.744,14.776,18.954,20.947
			c6.507,9.955,8.063,20.351,8.016,29.532c-0.426,18.388-6.097,35.067-19.024,47.474c-13.323,14.424-37.497,9.224-45.425,0.695
			c-26.479-20.809-12.312-55.513,6.034-57.388c21.022,6.12,12.177,19.584,12.816,18.214c-1.374,2.105-6.902-9.469-11.127-6.697
			c-4.833,1.733-10.637,22.614,3.032,27.936c8.514,4.801,13.378,4.549,18.574-1.027c5.402-5.78,9.303-17.753,8.695-28.714
			c-0.134-5.468-1.706-10.629-3.846-13.366c-4.635-6.215-7.525-10.049-12.059-13.05c-8.095-6.041-18.069-4.383-27.845,3.088
			c-9.777,7.072-18.89,22.988-19.159,41.18c-0.086,18.076,12.857,37.175,32.931,51.513c18.472,14.262,47.352,17.496,74.423,31.529
			c26.913,13.63,49.215,34.325,67.686,55.793c39.099,45.085,45.322,102.348,47.336,139.669c1.69,38.467-0.26,62.553,0.167,62.561
			c-0.427,0.044-0.285-24.233-4.628-62.139c-4.502-37.045-14.973-91.469-53.235-129.734c-18.993-19.392-41.002-37.034-65.381-47.498
			c-23.636-11.088-53.038-11.933-79.39-28.891c-24.41-15.119-46-41.199-47.335-71.742
			C2092.485,553.227,2105.776,529.185,2122.399,516.493z"/>
		<path d="M1453.139,607.678c37.812,33.311,108.388,46.692,162.539,105.392c24.394,29.377,46.546,66.119,49.902,109.348
			c3.672,42.285-17.476,90.099-58.786,105.293c-41.192,13.579-82.779-5.911-103.074-37.741
			c-20.13-32.722-15.108-70.344-3.159-93.799c11.869-23.21,34.178-43.94,62.924-44.145c28.121,1.884,49.713,19.881,58.107,44.576
			c6.847,23.312,4.47,46.668-7.447,65.862c-12.533,21.204-39.935,23.546-55.13,15.736c-18.44-7.669-26.029-28.841-22.255-43.597
			c3.696-13.832,11.893-25.982,25.761-26.08c14.096,3.775,13.251,14.705,14.175,18.428c0.237,4.814-0.387,7.27-1.319,7.436
			c-1.833,2.471-5.291-13.86-13.181-14.219c-8.663,0.56-17.476,32.777,4.115,38.289c10.78,3.072,22.412,1.426,28.004-9.693
			c6.144-10.74,7.526-28.604,2.369-42.948c-3.933-12.837-20.28-24.521-33.374-24.47c-13.709-0.016-29.046,12.146-37.448,28.912
			c-8.151,16.106-11.949,42.179,1.105,64.473c11.577,21.266,44.343,37.645,72.125,29.045c28.532-8.612,48.662-44.595,46.909-80.255
			c-1.027-36.43-19.419-71.911-41.262-100.784c-45.915-56.085-117.684-75.848-154.343-111.354
			c-39.738-33.196-47.738-67.821-48.583-66.656C1402.597,543.597,1412.602,577.535,1453.139,607.678z"/>
		<path d="M1387.418,988.069c12.257-58.586,37.931-118.821,54.641-175.957c17.453-56.943,19.838-114.178,5.733-152.443
			c-12.612-38.431-29.41-58.506-28.557-58.897c-0.845,0.462,16.947,19.372,31.723,57.729c16.339,38.045,16.765,97.703,1.485,156.585
			c-14.563,59.292-37.394,119.669-47.297,177.09c-5.307,28.209-9.039,55.936-5.015,77.945c2.653,21.654,18.258,33.511,31.802,36.477
			c31.636,9.947,48.173-20.856,39.257-46.088c-6.854-26.764-39.446-18.424-41.816-0.853c-3.151,17.204,17.958,28.083,22.349,16.754
			c5.496-8.691,0.837-17.299,2.859-17.639c-0.095-0.766,9.626,5.074,4.462,21.896c-4.368,21.373-49.381,11.289-44.714-23.324
			c1.406-16.162,15.471-29.626,31.754-32.564c18.637-4.339,37.196,10.475,43.529,28.102c6.698,17.674,6.287,39.269-5.797,57.365
			c-13.133,19.498-37.859,23.044-56.875,18.179c-19.892-3.522-44.441-24.931-47.099-54.652
			C1375.707,1045.908,1381.057,1017.254,1387.418,988.069z"/>
		<path d="M1384.11,1118.653c1.701-30.167,4-48.927,3.849-48.958c0.151-0.015-0.367,19.009,0.64,48.963
			c1.477,29.472,5.323,71.908,29.516,106.967c20.627,34.285,68.998,62.071,95.366,40.046c26.084-21.918,16.679-64.042,5.291-78.573
			c-10.266-15.032-30.396-11.044-38.862,0.549c-7.668,11.968-2.416,32.733,4.976,34.673c8.726,3.688,15.652-5.974,14.294-11.045
			c-1.541-5.409-8.9-6.756-8.111-9.402c-0.371-0.28,6.287-7.15,17.453,3.032c10.701,11.186-0.379,42.314-28.209,38.033
			c-26.755-7.744-36.595-41.279-22.996-69.586c14.546-28.679,62.167-36.516,84.184-4.494c9.792,13.927,16.046,32.391,16.283,54.04
			c0.664,21.935-9.161,47.979-30.657,63.624c-22.238,15.036-52.484,12.193-72.764-1.678c-20.264-12.268-38.151-30.586-48.442-51.347
			C1382.739,1192.673,1383.024,1148.172,1384.11,1118.653z"/>
		<g>
			<path d="M1407.295,1213.912c-0.032-0.067-0.063-0.126-0.126-0.079C1407.232,1213.751,1407.28,1213.786,1407.295,1213.912z"/>
			<path d="M1407.295,1213.912c0.056,0.126,0.048,0.474-0.007,1.027C1407.311,1214.449,1407.327,1214.07,1407.295,1213.912z"/>
			<path d="M1407.288,1214.939c-0.561,11.04-13.067,103.899,37.669,188.177c26.305,44.658,83.086,65.763,126.686,54.269
				c43.616-13.16,48.346-66.553,34.716-85.522c-10.804-21.642-38.61-22.013-52.288-7.261c-12.114,13.903-5.069,36.122,8.624,42.392
				c11.435,6.531,22.839-7.711,20.841-14.716c-1.027-7.767-9.532-10.16-8.458-12.454c-0.631-0.624,9.24-6.436,18.882,8.26
				c9.089,13.836-6.713,47.411-37.899,38.917c-25.184-6.199-47.304-48.674-21.591-80.898c21.591-29.279,77.132-28.995,96.724,10.767
				c22.326,32.15,9.533,109.656-53.51,124.969c-56.165,11.862-118.955-19.794-144.818-70.663
				C1384.978,1316.366,1406.158,1225.774,1407.288,1214.939z"/>
		</g>
		<path d="M1517.192,1471.431c-4.422,1.276,46.475,70.112,134.773,86.68c40.71,11.004,94.742-4.154,99.022-43.419
			c7.17-41.017-23.604-65.835-42.708-61.357c-18.354,1.868-31.849,20.189-28.612,38.713c1.216,19.423,15.36,25.839,25.492,23.02
			c7.55-2.152,5.496-17.745-0.584-19.123c-6.381-2.772-12.888-0.75-13.575-2.993c-0.632-1.05,2.479-8.04,15.897-8.403
			c13.599-1.133,33.468,27.924,8.363,48.864c-22.16,15.92-60.011-5.433-61.74-37.354c-7.684-29.16,15.676-70.455,52.476-72.551
			c17.177-1.883,39.407,5.445,54.515,24.504c14.886,19.021,20.09,46.313,14.159,71.857c-4.935,27.754-29.44,48.824-53.661,55.217
			c-24.979,7.64-50.108,3.613-72.283-2.397C1556.773,1546.904,1512.801,1471.996,1517.192,1471.431z"/>
		<path d="M1807.469,1522.842c46.443-24.119,96.914-87.907,106.375-167.27c4.912-39.454,3.261-81.972-16.939-115.721
			c-18.622-34.404-54.656-55.016-87.256-45.7c-34.581,7.281-52.516,36.903-53.164,66.885c-1.216,29.859,10.567,55.398,25.674,65.902
			c32.718,26.819,71.304-5.236,60.508-42.775c-4.027-40.216-43.995-41.717-47.627-14.376c-6.042,24.797,24.592,40.813,24,23.233
			c5.315-12.86-14.72-6.566-12.13-11.786c1.121-0.584,1.555-0.987,6.452-2.855c3.815-4.169,19.562,2.815,16.719,16.41
			c-0.111,5.319-1.769,12.612-8.963,17.82c-7.471,4.292-16.639,3.534-23.336-0.328c-14.073-6.176-25.982-25.405-22.8-45.653
			c-0.118-19.778,21.718-44,46.609-39.928c26.802,1.733,42.589,29.512,46.98,51.943c2.1,12.138,3.372,24.852,0.095,38.605
			c-2.764,14.737-12.344,27.586-22.555,35.937c-23.233,19.565-58.849,16.082-80.907-2.113
			c-24.078-17.555-38.775-53.772-36.105-91.796c-0.292-38.349,31.604-83.923,75.505-89.822
			c44.343-10.978,90.628,20.165,109.313,60.24c21.662,40.023,21.077,87.82,14.089,128.226
			c-14.065,84.394-69.724,146.571-118.465,169.071c-48.639,23.403-82.534,26.794-82.179,27.809
			C1726.893,1553.854,1760.828,1548.381,1807.469,1522.842z"/>
		<path d="M1655.235,1095.317c22.128-25.37,55.975-28.999,78.822-6.385c19.15,21.974,13.117,56.504-6.721,67.071
			c-17.824,12.821-41.373-0.995-40.734-14.282c-0.845-11.435,3.783-15.546,5.023-15.273c3.009-0.34,4.841,27.609,24.481,11.933
			c7.803-5.484,7.432-21.338-1.16-30.396c-5.623-8.553-29.717-4.817-37.219,5.899c-9.169,9.638-13.568,50.186,12.667,63.446
			c27.585,16.134,69.163-6.325,75.244-44.003c7.329-36.702-6.254-73.969-20.777-94.924c-14.831-22.005-31.313-28.387-30.839-28.813
			c-0.521,0.49,16.64,4.802,34.345,25.907c17.073,20.371,35.774,56.769,31.384,100.468c-1.959,44.867-54.918,85.704-99.315,64.381
			C1633.715,1176.736,1636.653,1119.415,1655.235,1095.317z"/>
		<path d="M1568.84,991.899c3.664-25.026,18.646-43.715,34.479-52.78c32.007-20.095,75.505-0.277,84.145,33.239
			c9.539,32.56-12.13,65.258-39.178,65.788c-12.477,0.399-25.594-8.592-27.964-19.013c-3.23-9.959-0.632-19.289,3.301-24.683
			c8.671-10.708,16.387-9.172,16.6-7.999c1.114,2.089-4.644,5.678-7.155,13.425c-2.938,7.779,2.575,20.438,13.875,17.872
			c11.443-1.745,22.649-19.392,16.221-37.192c-6.042-16.825-27.554-27.281-46.704-15.98c-18.685,7.66-36.312,51.063-3.277,78.388
			c30.049,30.183,85.542,4.363,96.977-41.496c14.081-44.043-4.13-90.561-20.873-116.479c-17.768-27.399-38.285-34.767-37.685-35.138
			c-0.64,0.426,20.556,5.792,41.144,32.418c19.08,25.535,42.732,70.849,30.688,123.318c-5.907,25.177-21.978,50.218-46.507,63.446
			c-24.015,14.412-57.199,10.104-78.08-6.791C1577.163,1046.007,1564.97,1017.352,1568.84,991.899z"/>
		<g>
			<path d="M1479.744,106.749c55.564-47.241,133.375-80.674,206.953-82.612c38.546-0.17,73.333,8.857,103.635,26.542
				c30.728,18.42,50.408,50.332,53.677,79.848c4.304,29.91-8.672,60.046-26.14,78.048c-18.179,21.958-49.357,28.856-71.833,23.979
				c-23.32-4.43-45.748-18.961-55.596-41.566c-9.745-22.503-7.842-43.975,2.022-63.122c25.705-38.041,73.231-23.123,75.742,5.236
				c-1.816,24.741-15.328,25.993-16.071,25.053c-3.379-1.39,2.504-12.935-1.422-21.211c-1.168-6.595-25.381-7.471-29.898,7.427
				c-5.623,16.968,4.383,42.681,31.541,44.56c13.346,0.948,24.749-1.856,32.821-12.556c10.163-11.807,15.178-25.224,13.33-39.695
				c-1.611-14.405-11.182-33.634-31.218-46.989c-20.327-13.405-50.415-23.518-80.74-25.156
				c-65.223-2.049-135.815,20.659-193.836,61.969c-112.005,74.186-147.472,198.566-152.423,209.239
				C1344.486,325.019,1366.55,197.29,1479.744,106.749z"/>
			<path d="M1339.929,336.415c0.083-0.119,0.209-0.371,0.359-0.671C1340.141,336.095,1340.023,336.32,1339.929,336.415z"/>
			<path d="M1339.692,336.426c0.059,0.111,0.138,0.071,0.237-0.011C1339.818,336.553,1339.735,336.56,1339.692,336.426z"/>
		</g>
		<path d="M1683.601,519.723c8.687,13.121,46.83,19.913,46.83,19.913s7.407-39.628-1.287-52.758
			c-8.695-13.125-25.943-16.414-38.515-7.344C1678.05,488.605,1674.891,506.599,1683.601,519.723z"/>
		<path d="M1751.107,488.624c-10.188,11.89-7.589,52.169-7.589,52.169s38.664-1.753,48.852-13.642
			c10.203-11.893,9.232-30.159-2.164-40.793C1778.802,475.717,1761.302,476.731,1751.107,488.624z"/>
		<path d="M1798.134,544.394c-14.231-5.864-49.547,10.634-49.547,10.634s14.981,37.242,29.188,43.099
			c14.231,5.867,30.302-1.41,35.932-16.249C1819.322,567.039,1812.357,550.258,1798.134,544.394z"/>
		<path d="M1764.263,605.767c-0.695-15.94-29.583-42.807-29.583-42.807s-26.431,29.492-25.737,45.437
			c0.695,15.932,13.646,28.268,28.92,27.545C1753.136,635.212,1764.958,621.704,1764.263,605.767z"/>
		<path d="M1694.831,593.444c14.365-5.422,30.404-42.171,30.404-42.171s-34.85-17.595-49.224-12.174
			c-14.389,5.429-21.836,21.99-16.639,36.991C1664.561,591.09,1680.443,598.861,1694.831,593.444z"/>
		<path d="M1791.587,445.984c0,10.428,8.118,18.898,18.117,18.898c9.998,0,18.108-8.47,18.108-18.898
			c0-10.44-8.11-18.902-18.108-18.902C1799.705,427.082,1791.587,435.544,1791.587,445.984z"/>
		<path d="M1628.732,356.028c0,10.424,8.11,18.89,18.124,18.89c9.998,0,18.1-8.466,18.1-18.89c0-10.44-8.103-18.906-18.1-18.906
			C1636.842,337.122,1628.732,345.588,1628.732,356.028z"/>
		<path d="M1659.341,629.455c0,9.062,7.036,16.398,15.716,16.398c8.687,0,15.723-7.336,15.723-16.398
			c0-9.054-7.036-16.395-15.723-16.395C1666.377,613.06,1659.341,620.401,1659.341,629.455z"/>
		<path d="M1831.452,654.655c0,9.054,7.029,16.402,15.716,16.402c8.679,0,15.715-7.348,15.715-16.402
			c0-9.058-7.036-16.402-15.715-16.402C1838.481,638.253,1831.452,645.597,1831.452,654.655z"/>
		<path d="M2006.185,763.268c0,9.059,7.037,16.403,15.724,16.403c8.67,0,15.708-7.344,15.708-16.403
			c0-9.054-7.037-16.398-15.708-16.398C2013.222,746.87,2006.185,754.214,2006.185,763.268z"/>
		<path d="M1997.514,963.043c0,7.27,5.646,13.173,12.619,13.173s12.612-5.903,12.612-13.173c0-7.265-5.639-13.16-12.612-13.16
			S1997.514,955.778,1997.514,963.043z"/>
		<path d="M1980.164,1009.597c0,7.273,5.646,13.164,12.619,13.164c6.965,0,12.62-5.891,12.62-13.164s-5.655-13.164-12.62-13.164
			C1985.81,996.433,1980.164,1002.324,1980.164,1009.597z"/>
		<path d="M1917.065,696.81c0,7.269,5.647,13.168,12.62,13.168c6.965,0,12.619-5.899,12.619-13.168
			c0-7.269-5.654-13.164-12.619-13.164C1922.712,683.646,1917.065,689.541,1917.065,696.81z"/>
		<path d="M1508.324,568.667c0,9.054,7.036,16.394,15.723,16.394c8.671,0,15.716-7.34,15.716-16.394
			c0-9.058-7.044-16.402-15.716-16.402C1515.36,552.264,1508.324,559.609,1508.324,568.667z"/>
		<path d="M1485.319,411.888c0,9.054,7.036,16.394,15.715,16.394c8.671,0,15.716-7.34,15.716-16.394
			c0-9.062-7.044-16.402-15.716-16.402C1492.356,395.486,1485.319,402.826,1485.319,411.888z"/>
		<path d="M1534.377,388.69c0,7.289,5.67,13.201,12.659,13.201c6.989,0,12.644-5.911,12.644-13.201c0-7.289-5.654-13.2-12.644-13.2
			C1540.047,375.49,1534.377,381.401,1534.377,388.69z"/>
		<path d="M1813.146,516.632c0,7.281,5.655,13.197,12.652,13.197c6.989,0,12.659-5.915,12.659-13.197
			c0-7.297-5.67-13.204-12.659-13.204C1818.801,503.428,1813.146,509.335,1813.146,516.632z"/>
		<path d="M2366.564,544.272c0,7.289,5.662,13.2,12.644,13.2c6.989,0,12.651-5.911,12.651-13.2c0-7.293-5.662-13.2-12.651-13.2
			C2372.227,531.072,2366.564,536.979,2366.564,544.272z"/>
		<path d="M1541.666,715.447c0,7.289,5.662,13.192,12.643,13.192c6.998,0,12.652-5.903,12.652-13.192
			c0-7.293-5.654-13.201-12.652-13.201C1547.328,702.247,1541.666,708.154,1541.666,715.447z"/>
		<path d="M1474.2,760.24c0,7.289,5.67,13.201,12.667,13.201c6.965,0,12.635-5.911,12.635-13.201c0-7.293-5.67-13.2-12.635-13.2
			C1479.871,747.04,1474.2,752.947,1474.2,760.24z"/>
		<path d="M1661.268,1396.964c0,7.289,5.654,13.193,12.644,13.193c6.989,0,12.651-5.903,12.651-13.193
			c0-7.293-5.662-13.208-12.651-13.208C1666.922,1383.756,1661.268,1389.672,1661.268,1396.964z"/>
		<path d="M1560.066,1278.578c0,7.289,5.655,13.192,12.644,13.192c6.989,0,12.66-5.902,12.66-13.192c0-7.289-5.67-13.2-12.66-13.2
			C1565.721,1265.378,1560.066,1271.289,1560.066,1278.578z"/>
		<path d="M1489.537,1124.994c0,7.289,5.654,13.2,12.643,13.2c6.997,0,12.66-5.911,12.66-13.2c0-7.289-5.662-13.196-12.66-13.196
			C1495.191,1111.798,1489.537,1117.705,1489.537,1124.994z"/>
		<path d="M1854.441,1409.766c0,7.289,5.67,13.197,12.667,13.197c6.989,0,12.635-5.907,12.635-13.197
			c0-7.289-5.646-13.2-12.635-13.2C1860.111,1396.566,1854.441,1402.477,1854.441,1409.766z"/>
		<path d="M1872.849,1348.974c0,7.285,5.662,13.2,12.651,13.2c6.989,0,12.652-5.915,12.652-13.2c0-7.289-5.662-13.201-12.652-13.201
			C1878.512,1335.773,1872.849,1341.685,1872.849,1348.974z"/>
		<path d="M2251.566,443.48c0,7.289,5.654,13.193,12.651,13.193c6.981,0,12.644-5.903,12.644-13.193c0-7.297-5.662-13.2-12.644-13.2
			C2257.22,430.28,2251.566,436.184,2251.566,443.48z"/>
		<path d="M2210.169,617.854c0,7.293,5.654,13.2,12.651,13.2c6.981,0,12.652-5.906,12.652-13.2c0-7.289-5.67-13.196-12.652-13.196
			C2215.823,604.658,2210.169,610.565,2210.169,617.854z"/>
		<path d="M2266.894,657.849c0,7.289,5.67,13.208,12.644,13.208c6.989,0,12.659-5.919,12.659-13.208
			c0-7.281-5.67-13.196-12.659-13.196C2272.564,644.653,2266.894,650.568,2266.894,657.849z"/>
		<path d="M2311.363,712.249c0,7.284,5.662,13.2,12.644,13.2c6.989,0,12.659-5.915,12.659-13.2c0-7.289-5.67-13.201-12.659-13.201
			C2317.025,699.048,2311.363,704.96,2311.363,712.249z"/>
		<path d="M2118.175,377.891c0,7.285,5.662,13.196,12.644,13.196c6.989,0,12.659-5.911,12.659-13.196
			c0-7.293-5.67-13.204-12.659-13.204C2123.837,364.687,2118.175,370.597,2118.175,377.891z"/>
		<path d="M2059.901,353.891c0,7.289,5.67,13.196,12.644,13.196c6.997,0,12.659-5.907,12.659-13.196c0-7.293-5.662-13.2-12.659-13.2
			C2065.572,340.691,2059.901,346.598,2059.901,353.891z"/>
		<path d="M1978.64,346.693c0,12.145,9.445,22.001,21.093,22.001s21.077-9.856,21.077-22.001c0-12.154-9.429-22.001-21.077-22.001
			S1978.64,334.539,1978.64,346.693z"/>
		<path d="M1702.665,733.848c0,12.146,9.43,21.998,21.078,21.998s21.077-9.852,21.077-21.998c0-12.15-9.429-22.001-21.077-22.001
			S1702.665,721.698,1702.665,733.848z"/>
		<path d="M1481.876,698.654c0,12.146,9.429,21.993,21.077,21.993c11.649,0,21.093-9.847,21.093-21.993
			c0-12.154-9.444-22.002-21.093-22.002C1491.305,676.652,1481.876,686.5,1481.876,698.654z"/>
		<path d="M1800.787,1453.761c0,12.145,9.437,21.997,21.078,21.997c11.64,0,21.093-9.852,21.093-21.997
			c0-12.146-9.453-22.001-21.093-22.001C1810.224,1431.76,1800.787,1441.615,1800.787,1453.761z"/>
		<ellipse cx="1863.27" cy="332.296" rx="21.078" ry="21.997"/>
		<path d="M1584.982,606.663c0,15.024,11.672,27.194,26.068,27.194c14.389,0,26.061-12.17,26.061-27.194
			c0-15.02-11.672-27.198-26.061-27.198C1596.654,579.465,1584.982,591.643,1584.982,606.663z"/>
		<path d="M2466.605,710.65c0,15.02,11.672,27.194,26.06,27.194c14.397,0,26.069-12.174,26.069-27.194
			c0-15.02-11.672-27.198-26.069-27.198C2478.277,683.451,2466.605,695.629,2466.605,710.65z"/>
		<path d="M1417.088,471.476c0,20.323,15.794,36.797,35.269,36.797c19.474,0,35.268-16.473,35.268-36.797
			c0-20.319-15.794-36.793-35.268-36.793C1432.882,434.683,1417.088,451.156,1417.088,471.476z"/>
		<g>
			<g>
				<path d="M1733.606,1361.128c0,0-43.103-46.656-23.367-129.02c0,0-102.908,14.701-93.037-123.551
					c0,0-107.141-19.127-67.663-151.5c0,0-69.085-10.297-86-98.548c0,0,14.097,245.629,198.764,483.915
					c0,0,105.735,148.549,194.539,27.94C1856.842,1370.363,1794.217,1417.024,1733.606,1361.128z M1512.889,996.033
					c-8.963,0-16.221-7.569-16.221-16.912c0-9.342,7.258-16.916,16.221-16.916c8.939,0,16.212,7.574,16.212,16.916
					C1529.101,988.464,1521.828,996.033,1512.889,996.033z M1579.137,1154.889c-9.729,0-17.626-8.233-17.626-18.385
					c0-10.155,7.897-18.385,17.626-18.385c9.73,0,17.626,8.229,17.626,18.385
					C1596.764,1146.656,1588.867,1154.889,1579.137,1154.889z M1665.825,1302.708c-12.059,0-21.836-10.203-21.836-22.796
					c0-12.592,9.777-22.799,21.836-22.799c12.067,0,21.867,10.207,21.867,22.799
					C1687.692,1292.505,1677.892,1302.708,1665.825,1302.708z"/>
			</g>
		</g>
		<path d="M1633.32,1475.778c0,0-8.829,28.343,14.95,55.988c0,0-32.615,4.249-67.245-31.889
			C1581.025,1499.877,1612.266,1504.828,1633.32,1475.778z"/>
		<path d="M1513.781,1329.796c0,0-23.77,53.148,2.717,99.918c0,0-67.916-25.511-87.611-131.807
			C1428.887,1297.906,1451.985,1328.374,1513.781,1329.796z"/>
		<path d="M1447.374,1154.593c0,0-16.102,33.595-5.757,65.992c0,0-28.746-23.996-36.785-79.189
			C1404.832,1141.396,1416.322,1164.192,1447.374,1154.593z"/>
		<path d="M1468.072,1010.612c0,0-29.899-15.597-49.453,3.597c0,0,6.903-79.193,25.302-113.988
			C1443.922,900.221,1455.421,989.013,1468.072,1010.612z"/>
		<g id="XMLID_12_">
			<g>
				<path d="M1908.039,824.148c-2.196-50.001,34.787-46.859,40.087-46.1c5.196,0.154,42.391,3.423,33.839,52.587
					c0,0,39.068-35.446-4.904-75.528c0,0-20.027-21.165-24.726-42.526c-7.447,20.303-29.931,37.737-29.931,37.737
					C1873.892,782.293,1908.039,824.148,1908.039,824.148z"/>
			</g>
		</g>
		<g id="XMLID_11_">
			<g>
				<path d="M1903.553,910.744c-42.613,2.582-39.935-40.821-39.28-47.039c0.134-6.109,2.906-49.753,44.801-39.711
					c0,0-30.199-45.839-64.355,5.754c0,0-18.037,23.494-36.232,29.018c17.287,8.734,32.15,35.115,32.15,35.115
					C1867.882,950.811,1903.553,910.744,1903.553,910.744z"/>
			</g>
		</g>
		<g id="XMLID_10_">
			<g>
				<path d="M1977.344,916.007c2.204,50.005-34.786,46.862-40.078,46.104c-5.213-0.158-42.408-3.419-33.84-52.587
					c0,0-39.067,35.438,4.896,75.524c0,0,20.027,21.165,24.726,42.526c7.447-20.295,29.93-37.737,29.93-37.737
					C2011.484,957.866,1977.344,916.007,1977.344,916.007z"/>
			</g>
		</g>
		<g id="XMLID_9_">
			<g>
				<path d="M1981.838,829.415c42.606-2.586,39.928,40.817,39.28,47.044c-0.142,6.105-2.922,49.749-44.808,39.703
					c0,0,30.199,45.843,64.354-5.753c0,0,18.037-23.494,36.248-29.01c-17.302-8.747-32.157-35.119-32.157-35.119
					C2017.502,789.345,1981.838,829.415,1981.838,829.415z"/>
			</g>
		</g>
		<path d="M1902.179,872.79c0,22.918,17.816,41.496,39.778,41.496c21.97,0,39.778-18.578,39.778-41.496
			c0-22.929-17.808-41.499-39.778-41.499C1919.995,831.291,1902.179,849.861,1902.179,872.79z"/>
		<g>
			<path d="M1894.598,328.569c9.39-18.318,43.561-22.432,57.981-1.852c15.053,17.543,13.876,41.523,8.063,56.511
				c-5.615,15.842-15.312,26.105-20.777,34.164c-12.857,16.43-18.954,28.749-19.522,28.477c0.6,0.297-0.087-14.089,7.336-35.332
				c7.771-20.77,18.646-48.568,4.115-64.733c-10.771-16.047-31.604,5.425-25.555,21.326c0.039,3.601,9.595,2.338,10.029-3.127
				c0.814-4.809-2.938-7.625-2.567-7.597c-0.497,0.431,4.28-0.205,6.895,7.384c2.977,6.259-7.842,24.79-25.05,12.501
				C1886.29,364.094,1883.329,346.156,1894.598,328.569z"/>
			<path d="M1957.783,555.281c-0.142,0.04-0.222,0.075-0.276,0.103C1957.46,555.209,1957.546,555.182,1957.783,555.281z"/>
			<path d="M1957.507,555.383c0.016,0.02,0,0.02,0.016,0.056C1957.46,555.431,1957.46,555.411,1957.507,555.383z"/>
			<path d="M1942.47,499.634c13.82-10.737,40.07-1.919,44.208,13.393c6.105,13.508,3.799,27.214-2.605,35.763
				c-13.899,14.349-24.402,7.257-26.29,6.491c1.99-0.659,12.762-3.546,14.152-13.417c1.334-11.617-9.185-25.037-16.331-16.805
				c-25.176,17.824-36.698,65.7-37.061,63.185c0.197,0.012-3.839-9.52-4.376-26.298
				C1914.357,546.282,1914.909,518.654,1942.47,499.634z"/>
		</g>
	</g>
</g>
</svg>
