<?xml version="1.0" encoding="utf-8"?>
<!DOCTYPE svg PUBLIC "-//W3C//DTD SVG 1.1//EN" "http://www.w3.org/Graphics/SVG/1.1/DTD/svg11.dtd">
<svg version="1.1" id="Layer_1" xmlns="http://www.w3.org/2000/svg" xmlns:xlink="http://www.w3.org/1999/xlink" x="0px" y="0px"
	 viewBox="0 0 2861.3203 1672.5459" enable-background="new 0 0 2861.3203 1672.5459" xml:space="preserve">
<path d="M2793.8979,777.593c-11.2341-8.509-20.7839,2.321-27.0034,11.0214c-30.4153,42.5462-75.8433,52.7773-123.4275,58.5371
	c-15.5676,1.8849-27.2236-0.7021-21.1685-21.3718c1.4165-4.8381,4.3335-12.2607-3.2773-15.37
	c-7.5115-3.0687-15.093-1.98-20.7688,4.4581c-4.4309,5.0259-8.5588,10.3762-12.3228,15.9207
	c-8.1479,12.0004-19.9316,15.8445-33.1086,12.8619c-28.6584-6.4851-57.0439-14.1708-85.5649-21.2706
	c-16.4211-4.0878-25.3271-15.7526-23.4358-31.3121c4.2112-34.6444,16.6877-66.5358,41.4014-92.1559
	c8.4067-8.7154,19.8418-11.0438,32.3491-11.0665c20.9104-0.0377,42.1284-0.0334,62.6719-3.3856
	c90.8723-14.8279,134.6733-84.3702,177.1262-154.9856c4.3354-7.2123,4.1404-15.071-3.731-19.9613
	c-8.8894-5.5229-16.0417-0.8735-22.0339,5.9292c-18.8833,21.4372-36.8123,43.7995-56.7473,64.205
	c-27.1318,27.7719-58.8818,47.491-99.5837,47.9175c-43.3794,0.4545-67.5205-17.6253-70.7825-58.3101
	c-5.7993-72.338,7.8562-142.7307,42.3792-205.6329c32.9275-59.9947,78.6592-112.1995,122.5974-164.9177
	c20.5669-24.6756,37.1616-51.066,46.0969-82.4619c3.6301-12.7549,5.2139-24.1131-6.0625-31.2463
	c-13.2227-8.3643-25.0828-0.6811-32.2317,10.6554c-18.4214,29.2134-40.3411,54.9679-67.1389,76.8552
	c-28.6201,23.3751-46.5432,56.8589-76.0278,79.9635c-19.2034,15.0472-34.7244,14.5422-50.8069-1.6099
	c-8.8127-8.8502-16.8335-18.35-23.0698-29.6522c-23.6577-42.8726-34.6436-86.6659-14.6079-134.2011
	c6.2598-14.8494,4.8062-29.7631-10.6797-36.7238c-16.3782-7.3614-26.8621,4.0104-33.6936,17.9311
	c-4.4021,8.9702-8.0923,18.3321-11.5159,27.7321c-11.0156,30.2427-17.9978,34.5868-50.5759,30.7171
	c-21.6479-2.5714-42.3076-11.3227-64.4934-10.4485c-14.3057,0.5635-23.4309,7.656-26.5364,21.9064
	c-2.9492,13.5292,2.1077,23.1281,14.7476,28.2991c13.1824,5.3933,26.292,11.4255,40.0044,14.9616
	c22.9756,5.9242,41.0813,17.3305,54.8508,37.072c23.4973,33.6881,45.9265,68.1098,71.8442,100.1635
	c13.9849,17.2959,18.8667,38.3301,15.7109,61.5927c-4.7209,34.8084-9.584,69.7727-12.4729,104.6456
	c-5.2603,63.5041,4.3318,128.7262-30.8103,187.6848c-9.1587,15.3661-14.0344,34.0673-17.5103,51.8934
	c-11.1836,57.3408-31.1184,110.8624-64.0259,159.3311c-5.9053,8.6984-11.2185,18.1874-24.9688,18.4291
	c2.4688-39.6147,6.1682-76.6768,35.0569-106.1745c6.6873-6.8293,18.6599-17.1398,7.2983-27.8132
	c-11.9404-11.2176-21.2336,1.1769-30.0837,8.3707c-18.4543,14.9995-31.7048,34.6027-46.5742,52.7984
	c-10.075,12.3276-21.2319,19.6625-35.3474,4.4423c-62.7983-67.7115-131.7708-129.8857-183.5446-207.4694
	c-11.5586-17.3213-12.8636-31.2208,1.4553-47.1425c21.401-23.7965,28.2516-54.8755,38.8678-83.8683
	c2.501-6.8297,6.2542-17.3469-5.2847-21.5872c-8.8618-3.2571-16.7922-0.3926-21.9116,7.7066
	c-4.4492,7.0403-8.0099,14.6353-12.2322,21.8271c-7.6388,13.0102-13.4456,27.2812-24.6124,37.9277
	c-6.7572,6.4424-14.864,10.9078-19.6622-1.3621c-20.766-53.1051-34.8168-107.7245-20.3002-164.6543
	c19.5784-76.7769,60.4423-140.963,120.7435-192.7766c14.5674-12.517,26.2795-27.7855,35.8281-44.7011
	c6.7031-11.8759,10.8022-24.9036,0.4419-34.7317c-10.4929-9.9535-24.0933-8.4806-36.9172-0.277
	c-26.7883,17.1372-49.1731,39.5923-73.353,59.8377c-20.9028,17.5013-38.7902,13.9923-48.4899-11.4173
	c-2.965-7.7677-4.8456-16-8.33-23.5057c-4.0719-8.7706-12.3069-11.2815-21.2335-9.833c-9.2936,1.5079-7.7397,9.9602-8.2102,16.1459
	c-1.5231,20.0102-4.3281,39.8826-0.8597,60.1924c2.0713,12.1247-2.4449,23.4531-15.3752,28.715
	c-12.0914,4.9208-19.7246-2.9535-25.4741-11.1352c-28.6445-40.76-54.1769-82.4734-33.1664-135.5929
	c5.1401-12.9951,8.1343-28.2124-6.2712-35.846c-16.035-8.4967-33.2349-3.1614-40.865,13.2976
	c-10.9521,23.6262-24.384,31.6675-51.1694,25.0597c-16.485-4.0668-38.7416-2.3567-46.0792,20.1952
	c-7.2738,22.3543,5.3757,34.2743,25.4088,41.4331c9.7832,3.4959,16.1388,12.1751,21.6462,20.5574
	c49.7704,75.7529,95.5022,152.4923,109.389,245.2231c20.8308,139.0982,83.213,258.7973,179.7085,361.2746
	c25.8938,27.499,52.6577,54.8897,71.2927,88.7284c-25.2419-10.7682-44.4128-28.9883-63.3557-47.3513
	c-7.3972-7.1706-14.6887-16.4882-25.4082-13.6929c-17.4048,4.5386-27.9874-5.234-39.8798-14.142
	c-70.6927-52.9525-136.5983-110.6669-189.7842-182.069c-32.6986-43.8969-56.153-93.3925-88.3734-137.7207
	c-59.1028-81.3109-117.4504-161.0934-216.219-200.5272c-57.0314-22.7701-114.2756-37.8157-174.1195-23.4219
	c-69.0791,16.615-138.0912,16.9254-207.829,11.3392c-63.4873-5.0856-126.7034-7.4066-190.3619,0.5551
	c-37.2583,4.6599-75.9017,11.9351-112.8684,2.4758c-53.5887-13.7119-108.1525-13.2955-162.3879-18.6157
	c-55.7089-5.4645-102.8318,9.5984-146.7661,44.2099c-19.2516,15.1671-39.2893,30.1708-59.64,44.3826
	c-66.5492,46.4753-108.6524,107.6369-116.9637,191.5781c-8.5724,86.5817,16.7554,171.6492,6.8562,257.9633
	c-5.095,44.4253,0.2723,91.9965-37.8239,125.9721c-28.2281,25.1746-57.808,48.573-93.4674,63.2601
	c-18.2785,7.5286-28.8563,21.792-29.8537,42.7646c-2.2688,47.7133,5.4037,95.5471-1.9075,143.1696
	c-4.4449,28.9504-14.5339,57.2684-12.1925,86.9749c4.5486,57.6993-5.6153,114.0155-16.9067,169.8794
	c-4.4521,22.0287-6.3899,46.36-25.7496,64.0037c-12.6155,11.4982-36.2891,20.3259-19.9563,46.1055
	c1.5062,2.3781-5.1507,12.0999-9.9783,15.9574c-26.5913,21.2493-32.2631,50.2299-29.755,81.3629
	c0.8676,10.7694,1.0046,19.2207-0.0149,25.8208h89.3125v-10.4806c-6.3545-6.582,2.5965-13.5588,6.1577-18.9635
	c15.679-23.7919,29.5399-48.5135,43.0914-73.5714c12.8935-23.8409,17.625-48.7306,17.3061-75.1158
	c-1.1324-93.7008,9.8022-186.5317,30.9229-277.2522c14.8876-63.9463,53.3547-114.5358,117.0866-141.6963
	c27.8293-11.8606,54.3978-26.5878,77.3423-46.7739c16.7646-14.7499,38.8913-19.6111,57.0124-31.8058
	c4.6335-3.1181,9.7549-3.1501,13.1976,2.0367c4.2097,6.3424-0.9532,11.2313-3.6125,16.0872
	c-24.4609,44.6719-59.6103,80.8183-94.2003,117.3835c-9.2136,9.7399-18.9376,18.9989-28.1019,28.7834
	c-16.5487,17.67-19.1343,38.5004-11.7451,60.6182c17.9629,53.7643,31.5043,108.5817,38.7757,164.7787
	c7.8674,60.804,22.1338,120.5361,28.4402,181.6503c1.8434,17.8645,3.0318,28.0426,1.2663,35.2456l16.3342,69.0759h85.6389
	l-1.1415-16.1877c-1.6528-3.5614-2.6215-7.7136-3.4552-11.3052c-22.4086-96.521-37.7776-194.4663-40.0476-293.3074
	c-1.5729-68.4844,35.044-123.188,88.6917-163.9092c48.2786-36.6455,90.1228-79.3669,129.8297-124.5306
	c23.6346-26.8831,26.1559-28.9221,54.2263-5.1991c29.7421,25.1357,63.7327,40.3676,101.1768,44.0659
	c30.2816,2.991,61.3215-2.7152,92.0306-2.8062c54.3256-0.1613,107.3046-11.0988,160.7939-18.0441
	c13.5862-1.7645,20.0813,8.583,17.2578,18.2316c-16.8337,57.5184,0.4077,117.3929-12.9221,165.2394
	c-3.2445,49.8191-5.1387,90.1702-8.2804,130.0903c-3.3364,42.3944-17.969,84.2389-30.4777,125.4713
	c-11.0345,36.3724-25.397,71.7854-39.3964,107.1844c-1.3009,3.2893-2.8589,6.1111-4.6809,8.5574l0.3757,36.4491h92.5295
	l1.1855-44.015c-4.3154-2.6384-2.5453-8.3087-2.2639-12.8472c0.6249-10.077,1.6879-20.1273,2.568-30.1885
	c13.5187-67.6417,22.7228-136.3967,64.1707-195.3079c17.824-25.3346,27.4132-56.451,29.8882-86.6321
	c6.0034-73.2094,42.5688-136.6117,60.7517-205.7448c4.2837-16.2861,17.7802-17.3481,32.6542-14.2255
	c38.5397,8.0902,77.2975,15.1409,115.8551,23.15c37.6107,7.8127,73.7103,5.6135,106.7325-15.6748
	c17.5524-11.3159,29.616-6.5537,39.2557,10.2191c2.9188,5.0795,7.1155,9.6541,9.0035,15.0614
	c29.6405,84.8989,71.5985,163.595,115.5562,241.8635c28.4871,50.7225,60.8662,100.0114,80.1421,155.6951
	c11.6742,33.7233,24.2053,67.182,34.7312,101.26c4.6726,15.1278,4.7461,21.4788-1.6266,23.4208v33.9657h91.8478l-0.2566-57.7614
	c-10.0581-8.4891-18.1425-20.5865-24.0562-37.7336c-19.2158-55.7172-56.1951-105.7782-62.1608-165.4833
	c-4.5925-45.9705-20.0673-87.4763-34.7578-129.9933c-11.9825-34.6793-27.8236-68.4828-28.5571-106.144
	c-0.1422-7.3019-2.6356-16.973,3.7633-21.5455c7.5015-5.3605,13.3821,3.5675,19.7441,6.9261
	c20.5961,10.8728,40.1097,26.2437,62.0565,31.562c37.2642,9.03,71.1393,24.2733,104.3102,42.233
	c8.0775,4.3732,15.6503,11.5468,25.0983,10.4492c42.3097-4.9158,70.896,23.5046,94.9343,48.0662
	c47.0247,48.0493,97.1025,89.1499,158.7554,116.4304c24.0015,10.6201,46.3804,22.2563,62.3125,47.356
	c20.439,32.1989,101.0408,41.0027,132.3364,19.5695c26.4849-18.1382,33.0632-53.4409,10.8682-92.7732
	c-25.2585-44.7605-43.3486-92.8209-68.3306-137.5929c-13.4578-24.1199-25.3306-48.7955-17.2739-78.4653
	c8.8643-32.6444-1.6379-60.9233-23.8792-85.3512c-12.6013-13.8395-4.7083-27.045,2.4141-38.929
	c6.8755-11.4724,18.1482-13.3535,30.9871-8.3232c14.0261,5.4955,28.1797,11.5866,42.8557,14.3395
	c52.9617,9.9351,105.7539,18.1829,158.323,32.6165c101.541,27.8793,153.0972-26.5507,180.9753-112.5276
	c2.9475-9.0887,9.4517-23.8401-2.7905-29.4148c-13.8125-6.2896-20.1726,8.1945-26.1768,17.9297
	c-10.655,17.277-23.2744,32.8522-37.4485,47.2928c-29.7747,30.3347-71.1479,36.0254-108.7412,15.7631
	c-9.4104-5.0723-10.0701-9.41-7.3535-19.7466c11.564-43.9922,31.113-77.2164,84.064-72.7911
	c1.6372,0.137,3.3521-0.2917,4.9934-0.6362c54.45-11.4269,101.9829-33.5406,130.6389-84.73
	C2796.7336,797.3594,2804.6995,785.7745,2793.8979,777.593z M2546.2549,904.8839c-1.1597,14.7781-9.5352,26.6064-19.6223,36.6442
	c-8.4536,8.4129-18.2239,5.2413-27.6738,0.1661c-19.0674-10.2404-38.3232-20.1299-57.5068-30.1534
	c-7.2688-3.798-18.0234-6.857-15.9553-16.4644c2.1919-10.182,12.8535-11.7864,22.6335-11.0864
	c4.9912,0.3568,9.9717,0.8584,14.957,1.2946c-0.0239,0.2013-0.0471,0.4026-0.0706,0.6038
	c23.4878,3.4851,46.9946,6.8542,70.4507,10.543C2538.8264,897.2744,2546.9148,896.4804,2546.2549,904.8839z"/>
</svg>
