<svg xmlns="http://www.w3.org/2000/svg" xmlns:xlink="http://www.w3.org/1999/xlink" width="1290px" height="600px" viewBox="0 0  1290 600" preserveAspectRatio="xMidYMid meet" ><rect id="svgEditorBackground" x="0" y="0" width="1290" height="600" style="fill: none; stroke: none;"/><defs id="svgEditorDefs"><path id="svgEditorClosePathDefs" style="stroke:black;stroke-width:1px;fill:yellow;"/><linearGradient gradientUnits="objectBoundingBox" id="lgrd2-fire" spreadMethod="pad" x1="0%" x2="100%" y1="0%" y2="0%"><stop offset="0%" style="stop-color:rgb(255,255,0);stop-opacity:1"/><stop offset="100%" style="stop-color:rgb(255,0,0);stop-opacity:1"/></linearGradient><linearGradient gradientTransform="skewX(-45)" gradientUnits="objectBoundingBox" id="lgrd2-c-repeat" spreadMethod="repeat" x1="0%" x2="5%" y1="0%" y2="0%"><stop offset="5%" stop-color="red" stop-opacity="0.8"/><stop offset="75%" stop-color="yellow" stop-opacity="1"/></linearGradient><radialGradient fx="30%" fy="30%" gradientUnits="objectBoundingBox" id="rgrd11-a"><stop offset="0" stop-color="#f9caaa"/><stop offset="20%" stop-color="#f9caaa"/><stop offset="20%" stop-color="#f9ae7a"/><stop offset="40%" stop-color="#f9ae7a"/><stop offset="40%" stop-color="#f79959"/><stop offset="60%" stop-color="#f79959"/><stop offset="60%" stop-color="#fc9149"/><stop offset="80%" stop-color="#fc9149"/><stop offset="80%" stop-color="#f79959"/><stop offset="90%" stop-color="#f97821"/><stop offset="100%" stop-color="#f97821"/></radialGradient><radialGradient cx="50%" cy="50%" fx="50%" fy="50%" id="rgrd2-white-red" r="50%"><stop offset="0%" style="stop-color:white;stop-opacity:0"/><stop offset="100%" style="stop-color:red;stop-opacity:1"/></radialGradient><radialGradient cx="50%" cy="50%" fx="50%" fy="50%" gradientUnits="objectBoundingBox" id="rgrd2-b" r="5%" spreadMethod="repeat"><stop offset="5%" stop-color="red" stop-opacity="1"/><stop offset="95%" stop-color="yellow" stop-opacity="1"/></radialGradient></defs><path d="M69.0208282471,193.03125c-16.6285144875,-7.405364277500013,-30.4486981466,-78.0937214301,-36,-101c34.448698146612585,31.09372143007873,45.6899962592,-91.829833778,62,-79.0000019073c16.3100037408,12.829831870700001,20.917194155299995,48.615591998599996,25,67.0000019073c4.082805844700005,18.384409908699993,-47.21581455647484,38.523536151857414,-31.999999999974847,61.999999999957424c38.21581455638743,-10.5235361517787,-2.3714855126251564,58.40536427754259,-19.000000000025153,51.000000000042576Z" style="stroke:black;fill:url(#lgrd2-fire);stroke-width:1px;" id="e2_area3"/><path d="M77.02082824712515,156.03124999995742c44.75008554128742,-17.775700238278716,10.285395786374849,-44.15694537205742,4.999999999974847,-53.999999999957424c-5.285395786500004,-9.8430546278,46.80093211351259,-7.9618560765213005,21,-52.0000038147c5.199067886400002,4.961852261899999,-7.310454345300002,4.206392602600005,-14.999999999987423,-26.000000000021302c-7.6895456548,40.7936073974,-22.87637697841258,95.08886273132131,-23.000000000012577,86.00000381472131c8.87637697841258,12.911141083478725,-3.3274864517999987,-1.377964176000006,0,-2c3.327486451699997,-0.6220358239000063,-29.0855817686,-9.244362311800003,-26,-7c3.085581768499999,2.2443623118000033,-3.1034838548999986,-0.8827963269999941,3,2c6.103483854899999,2.882796327099996,36.255349728,32.6947518385,32,39c-23.255349728087424,9.305248161578703,-19.62568179298742,46.5889040392787,2.000000000025153,30.999999999957424c46.62568179298742,-27.588904039178715,-4.750085541287419,2.7757002382787164,1,-17Z" style="stroke:black;fill:yellow;stroke-width:1px;" id="e4_area3"/></svg>