<?xml version="1.0" encoding="utf-8"?>
<!DOCTYPE svg PUBLIC "-//W3C//DTD SVG 1.1//EN" "http://www.w3.org/Graphics/SVG/1.1/DTD/svg11.dtd">
<svg version="1.1" id="Layer_1" xmlns="http://www.w3.org/2000/svg" xmlns:xlink="http://www.w3.org/1999/xlink" x="0px" y="0px"
	 viewBox="195.1876 133.5105 1535.8125 1575.4512" enable-background="new 195.1876 133.5105 1535.8125 1575.4512"
	 xml:space="preserve">
<g>
	<path fill="#FFFFFF" d="M863.82,268.85c24.26-5.83,48.49-11.76,72.75-17.56c13.54,30.82,15.22,66.64,4.33,98.52
		c-10.89,32.7-34.75,60.8-65.1801,76.97c-34.05,18.47-76.1,21.24-112.3199,7.56c-30.33-11.21-56.29-33.65-71.91-61.94
		c-9.86-17.69-15.62-37.63-16.87-57.84c36.1-8.7,72.2-17.36,108.26-26.21c-8.84,8.7-14.01,21.11-13.13,33.56
		c0.58,11.64,6.24,22.86,15.17,30.32c7.75,6.55,17.88,10.23,28.03,10.05c12.02,0,23.88-5.47,31.76-14.53
		c6.68-7.6,10.62-17.61,10.65-27.74c0.34-13.57-6.37-27.05-17.35-35.01c-4.02-3.11-8.75-5.09-13.47-6.89
		C837.72,275.47,850.72,271.88,863.82,268.85z"/>
	<path fill="#FFFFFF" d="M981.13,325.86c-3.71-25.16-0.2-51.33,10.08-74.58c37.3,8.91,74.4999,18.24,111.8599,26.88
		c-10.59,3.49-20.0699,10.65-25.38,20.56c-6.6,11.74-7.1,26.64-1.36,38.82c4.54,9.85,13,17.82,23.11,21.76
		c10.5,4.21,22.66,3.96,33-0.61c13.54-5.81,23.5601-19.09,25.2401-33.75c1.8999-13.34-3.1801-27.23-12.8401-36.55
		c36.02,8.74,72.04,17.48,108.0901,26.1c-1.5701,34.79-17.89,68.45-43.4501,92c-15.5599,14.46-34.54,25.28-54.99,31.09
		c-19.58,5.73-40.45,6.75-60.5699,3.53c-28.03-4.68-54.4801-18.34-74.4401-38.57C998.92,381.97,985.17,354.67,981.13,325.86z"/>
	<path fill="#000200" d="M700.95,215.99c24.54-30.27,62.01-49.68,100.96-51.89c36.96-2.62,74.7,10.02,102.55,34.47
		c16.36,14.09,29.32,32.02,37.86,51.83c14.29-0.45,28.6-0.17,42.87,0.69c11.37-27.3,31.55-50.79,56.7499-66.25
		c28.41-17.67,63.1801-24.53,96.2101-19.44c36.89,5.45,71.14,26.26,93.12,56.37c11.47,15.54,19.77,33.44,24.0599,52.29
		c4.87,20.85,4.63,42.73,0.25,63.64c33.5801,18.77,65.62,40.23,96.5901,63.04c31.58,23.41,61.8199,48.6,90.7699,75.18
		c30.9501,28.74,60.9401,58.65,87.9901,91.12c-23.91,28.87-50.4,55.48-77.4701,81.37c-65.5599,61.5-137.87,116.41-217.34,158.7401
		c26.53,50.97,47.36,105.31,57.4401,162.02c6.8199-4.27,13.0699-9.42,19.7599-13.91c37.1101-26.07,76.0701-49.71,117.37-68.55
		c37.79-17.05,77.8301-30.4901,119.38-33.73c24.9401-1.77,50.5901,0.6,73.87,10.17c15.66,6.41,30,16.06,41.7101,28.3
		c15.9299,16.24,26.66,37.19,31.74,59.29c5.28,22.84,5.0499,46.64,1.77,69.76c-6.01,41.39-21.05,80.92-39.3401,118.34
		c-33.8199,68.13-78.98,130.03-128.5399,187.48c-25.11,28.76-51.15,56.77-78.91,83c-60.09,55.42-132.33,96.4801-208.47,125.5
		c-28.9301,11.12-58.54,20.3401-88.4601,28.3601C1202.26,1565.46,1249,1570.4,1295.14,1578.75
		c25.62,4.7,51.09,10.4399,75.9299,18.35c15.16,4.97,30.3201,10.5,43.9301,18.98c6.21,4.16,12.75,8.9701,15.46,16.24
		c1.92,5.05,0.24,10.88-3.3999,14.7201c-5.26,5.5499-12.41,8.7899-19.4701,11.39c-17.1899,6.09-35.36,8.74-53.4099,10.83
		c-50.7101,5.25-101.87,3.87-152.63-0.01c-43.99-3.67-87.8501-9.53-130.9801-19.02c-21.0399-4.73-41.96-10.26-62.1699-17.8199
		c-9.81-3.73-19.51-7.92-28.41-13.52c-5.88-3.75-11.55-8.27-14.98-14.46c-7.94,7.46-17.81,12.36-27.6,16.9099
		c-16.91,7.5901-34.5699,13.37-52.35,18.52c-45.23,12.91-91.57,21.53-138.1,28.13c-49.35,6.7-99.12,11.0701-148.95,10.7
		c-21.6-0.37-43.31-1.2599-64.56-5.3799c-9.09-1.9601-18.43-4.2101-26.26-9.4301c-4.52-2.96-8.16-8.3199-6.84-13.92
		c1.77-7.4399,8.29-12.34,14.23-16.49c15.53-10,33.01-16.4,50.39-22.38c40.1201-13.14,81.51-22.01,123.08-29.14
		c34.89-5.85,70.01-10.3199,105.27-13.1699c-80.56-19.1901-159.23-48.5801-229.95-92.05c-35.93-22.08-69.68-47.7999-99.88-77.25
		c-52.16-51.66-100.47-107.4-142.17-167.87c-21.91-31.96-41.93-65.29-58.58-100.2999c-11.66-24.5901-21.61-50.05-28.62-76.3601
		c-8.69-33.1099-13.03-68.2599-5.78-102.08c3.86-17.98,11.31-35.3,22.43-50c12.39-16.48,28.98-29.81,47.86-38.15
		c21.96-9.83,46.4-13.12,70.31-12.11c33.75,1.4,66.76,10.28,98.2,22.23c52.17,20.09,100.64,48.74,146.28,80.8
		c8.78,6.02,17.17,12.6,25.92,18.67c9.24-55.07,28.6-108.03,53.55-157.85c-56.14-27.98-108.75-62.71-158.04-101.41
		c-32.87-25.82-64.23-53.53-94.1-82.77c-21.08-20.92-41.8-42.3-60.68-65.2401c23.8-28.69,50.05-55.26,77.03-80.94
		c64.46-60.67,135.62-114.68,213.52-156.97C663.97,289.37,675.17,247.03,700.95,215.99 M752.68,182.65h-0.38
		c-15.48,7.43-29.58,17.74-41.26,30.33c-24.06,25.59-37.5099,60.74-36.66,95.86c17.64-4.37,35.47-8.21,52.97-13.03
		c19.33-4.07,38.44-9.24,57.7-13.7c36.49-8.98,73.15-17.37,109.56-26.68c13.23-2.66,26.31-6.3,39.5-9.32
		c-15.8-32.41-44.94-58.49-79.36-69.45c-15.49-5.72-32.22-7.64-48.67-7.2C787.67,170.25,769.21,174.38,752.68,182.65 M1034.1,197.24
		c-17.28,12.56-30.98,29.79-40.52,48.85c86.6,20.88,173.16,41.88,259.77,62.73c0.55-30.15-8.86-60.82-27.5699-84.61
		c-1.3301-2.8-3.74-4.94-5.64-7.35c-13.66-15.89-31.03-28.55-50.33-36.72C1125.87,161.19,1071.78,167.53,1034.1,197.24
		 M863.82,268.85c-13.1,3.03-26.1,6.62-39.28,9.26c4.72,1.8,9.45,3.78,13.47,6.89c10.98,7.96,17.69,21.44,17.35,35.01
		c-0.03,10.13-3.97,20.14-10.65,27.74c-7.88,9.06-19.7401,14.53-31.76,14.53c-10.15,0.18-20.28-3.5-28.03-10.05
		c-8.93-7.46-14.59-18.68-15.17-30.32c-0.88-12.45,4.29-24.86,13.13-33.56c-36.06,8.85-72.16,17.51-108.26,26.21
		c1.25,20.21,7.01,40.15,16.87,57.84c15.62,28.29,41.58,50.73,71.91,61.94c36.22,13.68,78.27,10.91,112.3199-7.56
		c30.4301-16.17,54.29-44.27,65.1801-76.97c10.89-31.88,9.21-67.7-4.33-98.52C912.31,257.09,888.08,263.02,863.82,268.85
		 M981.13,325.86c4.04,28.81,17.79,56.11,38.35,76.68c19.96,20.23,46.41,33.89,74.4401,38.57c20.12,3.22,40.99,2.2,60.5699-3.53
		c20.45-5.81,39.4301-16.63,54.99-31.09c25.5601-23.55,41.88-57.21,43.4501-92c-36.05-8.62-72.0701-17.36-108.0901-26.1
		c9.66,9.32,14.74,23.21,12.8401,36.55c-1.6801,14.66-11.7001,27.94-25.2401,33.75c-10.34,4.57-22.5,4.82-33,0.61
		c-10.11-3.94-18.5699-11.91-23.11-21.76c-5.74-12.18-5.24-27.08,1.36-38.82c5.3101-9.91,14.79-17.07,25.38-20.56
		c-37.36-8.64-74.5599-17.97-111.8599-26.88C980.93,274.53,977.42,300.7,981.13,325.86 M944.9,255.87
		c1.45,6.48,4.08,12.64,5.3199,19.19c9.13,39.69-0.03,83.1-24.46,115.7c-19.95,27.18-49.89,46.82-82.79,54.24
		c-38.77,8.97-81.18,0.79-113.62-22.3c-29.35-20.56-50.5099-52.47-57.66-87.62c-12.24,6.45-24.2,13.43-36.02,20.61
		c-61.45,37.45-118.45,81.95-171.02,131.02c-27.04,25.46-53.23,51.88-77.22,80.26c7.24,9.22,15.39,17.67,23.24,26.3701
		c50.57,54.09,106.34,103.34,166.54,146.47c46.13,32.87,95.05,62,146.7599,85.25c42,18.8,85.83,33.73,130.97,42.89
		c52.78,10.8,107.31,13.46,160.78,6.6c83.3101-10.27,162.9601-41.06,235.73-82.19c70.28-39.77,134.78-89.21,193.9601-144
		c27.24-25.94,53.98-52.51,78.21-81.32c-2.9399-3.59-6.03-7.05-9.08-10.53c-48.8-54.66-103.2201-104.26-161.77-148.3
		c-31.4-23.64-64.36-45.18-98.3201-64.95c-3.24,8.67-5.84,17.63-10.1499,25.89c-8.99,17.99-21.64,34.21-37.25,46.93
		c-29.78,24.78-69.9801,36.4-108.39,31.33c-24.1801-2.91-47.52-12.4-67.0701-26.89c-22.5699-16.74-39.99-40.29-49.36-66.78
		c-11.23-31.18-10.53-66.11,0.57-97.23C970.17,255.98,957.54,255.49,944.9,255.87 M1174.1801,836.78
		c-69.8301,29.43-145.14,47.68-221.1901,47.09c-46.44-0.05-92.65-7.41-137.42-19.49l-0.08-0.16
		c-40.52-11.15-79.77-26.65-117.47-45.17c-13.69,27.26-26,55.37-35.09,84.5c-1.94,4.75-3.26,9.72-4.75,14.63
		c-14.33,48.13-21.43,98.59-18.99,148.82c2.22,46.01,11.85,91.5699,27.35,134.91l0.09-0.8c-0.02,2.77,1.5,5.3,2.33,7.91
		c25.15,68.33,62.87,131.45,106.78,189.2999c47.17,61.7401,101.21,118.16,160.24,168.64c2.45,1.92,4.5,4.7001,7.73,5.3401
		c9.44,2.49,19.86,5.3199,26.06,13.48c6.07-5.9501,15.15-6.98,21.16-12.92c18.62-15.62,36.69-31.88,54.23-48.7
		c55.77-53.4301,106.62-112.3,149.0499-176.9301c9.8201-15.1899,19.5801-30.54,27.9701-46.5499
		c6.73-11.0701,12.3999-22.76,18.1899-34.3401c20.04-41.12,35.84-84.4399,45.24-129.26c9.74-46.95,12.62-95.61,5.89-143.16
		c-1.4399-15.78-4.79-31.4-8.2-46.88c-9.9701-42.95-25.78-84.41-45.38-123.86c-2.4501-4.27-4.11-9.18-7.0601-13.03
		C1212.2,819.5,1193.4399,828.7,1174.1801,836.78 M344,858.86c-16.1,1.51-32.03,5.55-46.61,12.62
		c-28.2,13.57-50.28,39.07-59.83,68.86c-11.16,34.02-8.2,70.92-0.03,105.2499c6.56,27.39,16.62,53.8401,28.45,79.37
		c16.39,34.9701,36.1,68.3101,57.79,100.24c41.4,60.7001,89.61,116.5601,141.68,168.3301c28.45,28.0599,60.18,52.72,93.91,74.11
		c68.53,43.28,144.93,73.08,223.39,92.74c10.08,2.39,20.12,5.05,30.32,6.92c38.28-2.1001,76.89-3.1101,115.01,1.9299
		c-0.81-3.52-4.37-5.1799-6.75-7.54c-27.54-24.0399-53.86-49.5-78.87-76.1699c-51.65-54.77-97.9-114.91-135.17-180.42
		c-1.45,2.8301-5.58,6.5701-8.29,2.99c-38.16-50.8099-78.26-100.96-127.45-141.62c-28.53-23.36-59.93-43.2899-93.52-58.53
		c-18.91-8.72-38.59-15.59-58.43-21.83c-0.94-4.04,3.19-8.84,7.37-7.09c38.01,11.33,74.53,27.77,107.99,49.0699
		c28.86,18.36,55.27,40.41,79.18,64.8301c27.34,26.9299,51.51,56.8199,75.2,86.95c4.11,5.6901,8.24,11.4301,12.98,16.64
		c-2.08-5.28-5.16-10.0701-7.63-15.16c-2.25-4.28-4.07-8.8099-6.83-12.7899c-1.08-4.0601-3.36-7.65-5.04-11.4601
		c-30.79-66.5599-50.5-139.3099-49.57-213.03c-0.16-21.1199,2.08-42.15,4.86-63.0399c-3.57-3.54-7.98-6.09-11.87-9.26
		c-53.63-39.05-110.98-74.16-173.8-96.32C417.73,863.53,380.88,855.42,344,858.86 M1500.97,867.11
		c-58.5499,15.76-112.46,45.02-162.9199,78.07c-14.65,9.91-29.4,19.74-43.29,30.71c6.36,38.4,7.6899,77.65,3.5699,116.36
		c-4.8199,46.29-17.09,91.61-34.35,134.76c-1.85,5.3199-4.73,10.28-6.2,15.71c-4.26,8.27-7.85,16.89-11.74,25.3401
		c5.11-6.7401,10.85-13.1101,15.2-20.38c3.6901-3.16,6.04-7.62,9.28-11.2301c18.53-23.2899,37.71-46.12,58.48-67.46
		c27.02-27.67,56.78-52.88,89.79-73.15c33.4199-20.7,69.7-36.77,107.49-47.58c2.6699,2.66,0.76,7.4399-2.54,8.52
		c-4.6799,1.6599-9.52,2.86-14.17,4.59c-36.86,12.03-71.9199,29.45-103.97,51.24c-31.1799,21.11-58.84,46.98-84.4,74.52
		c-26.5399,28.76-50.71,59.63-74.21,90.9c-1.49,2.36-4.28,1.4299-6.3199,0.5c-41.6001,81.2899-98.02,154.27-161.42,219.6899
		c-12.9301,13.74-26.73,26.62-40.34,39.67c-12.16,11.54-25.0601,22.29-37.28,33.75c5.82-0.63,11.47-2.21,17.25-3.13
		c37.05-5.9,74.66-6.83,112.11-6.1c5.62,0.2899,10.9301-1.86,16.35-3.03c36.7001-9.33,72.8401-20.92,107.9701-35.09
		c71.09-28.5701,138.35-68.0801,194.62-120.37c28.35-27.03,55.08-55.7301,80.6799-85.37c48.52-56.8301,92.65-117.99,125.67-185.2201
		c17.0499-35.5299,31.2-72.89,37.1599-111.9999c3.0601-21.25,3.5701-43.08-0.3899-64.25c-3.4301-17.36-10.1101-34.2-20.4801-48.6
		c-11.35-15.98-26.88-28.91-44.5399-37.39c-18.98-8.96-40.1-13-61.03-12.96C1544.6801,857.72,1522.51,861.54,1500.97,867.11
		 M1084.26,1568.28c-9.78,0.01-19.52,0.9099-29.28,1.51c-20.24,1.83-40.61,4.14-60.16,9.95c-7.83,2.52-15.91,5.36-22.14,10.92
		c-3.5,3.0299-4.69,8.61-1.91,12.51c4.29,6.46,11.25,10.4399,17.84,14.1899c25.15,13.12,52.87,20.24,80.3201,26.77
		c71.5499,15.78,144.8999,22.5599,218.1,23.1c15.3199-0.6,30.6699-0.52,45.97-1.72c21.98-1.74,44.14-3.84,65.41-10.01
		c7.0399-2.1899,14.1799-4.58,20.36-8.6899c3.62-2.6101,7.8099-6.4901,6.7-11.4301c-1.49-5.96-6.83-9.75-11.48-13.23
		c-11.78-7.8201-25.1-12.9601-38.38-17.63c-24.23-8.21-49.1899-14.0601-74.28-18.91c-47.62-9.04-95.9199-14.3099-144.3099-16.74
		C1132.79,1567.87,1108.5,1567.11,1084.26,1568.28 M695.98,1586.29c-43.18,7.23-86.23,16.12-127.91,29.6899
		c-17.44,6.01-35.14,12.1801-50.64,22.4c-4.61,3.33-9.94,6.83-11.6,12.61c-0.87,4.12,2.87,7.21,5.93,9.23
		c7.72,4.39,16.54,6.3101,25.16,8.0601c14.67,2.53,29.53,3.98,44.42,4.33c8.54,0.02,17.06,0.89,25.61,0.62
		c52.59-0.52,105.08-5.51,157.06-13.37c40.43-6.39,80.74-14.13,120.06-25.6c20.02-5.78,39.92-12.35,58.62-21.63
		c6.54-3.52,13.18-7.17,18.52-12.42c2.92-2.61,2.92-6.83,4.44-10.21c-1.85-2.4301-3.85-4.86-6.62-6.24
		c-6.95-3.76-14.7-5.71-22.3701-7.33c-28.54-5.3501-57.72-5.3401-86.65-5.01C798.39,1572.52,746.95,1578.2,695.98,1586.29z"/>
	<path fill="#000200" d="M751.62,584.61c1.04-0.07,2.1-0.13,3.16-0.18c1.04,18.23-6.33,36.51-18.2401,50.17
		c-0.84,0.9-1.85,2.29-0.56,3.31c38.04,37.1,87.49,60.85,138.74,73.4c26.16,6.49,53.01,10.13,79.9301,11.22
		c49.36,1.77,99.23-4.64,145.91-21.04c39.9099-13.96,77.74-35.42,107.61-65.63c-3.78-5.58-8.3201-10.68-11.05-16.91
		c-5.28-10.71-8.63-22.77-7.7-34.78c0.72,0.15,2.1599,0.45,2.88,0.6c0.98,10.71,2.5299,21.62,7.59,31.29
		c10.7,23.19,34.66,39.33,60.1,40.98c2.27,0.44,6.6901-0.5099,5.48,3.27c-5.7999,1.13-11.77-0.23-17.48-1.34
		c-12.16-2.7-23.42-8.7599-32.9299-16.73c-27.2401,27.33-60.67,48.02-96.3701,62.37c-40.24,16.19-83.34,24.88-126.5999,27
		c-52.39,2.53-105.45-4.31-154.97-21.84c-40.4-14.35-78.5-36.3-109.07-66.6c-13.61,11.22-31.09,18.01-48.83,17.58
		c-0.02-1.12-0.03-2.23-0.02-3.33c18.61-0.43,37.22-7.53,50.38-20.88C743.72,623.25,751.45,603.9,751.62,584.61z"/>
	<path fill="#93BD57" d="M752.68,182.65c16.53-8.27,34.99-12.4,53.4-13.19c16.45-0.44,33.18,1.48,48.67,7.2
		c-5.47,0.77-10.53-1.6-15.77-2.64c-10.23-1.75-20.54-3.36-30.95-2.8c-10.4901-0.61-20.63,2.36-30.83,4.26
		c-6.41,1.27-12.32,4.16-18.42,6.36C756.83,182.61,754.73,182.71,752.68,182.65z"/>
	<path fill="#8CC63E" d="M1034.1,197.24c37.6801-29.71,91.77-36.05,135.7101-17.1c19.2999,8.17,36.6699,20.83,50.33,36.72
		c1.9,2.41,4.3099,4.55,5.64,7.35c0.1599,4.79,4.25,7.76,6.3199,11.71c4.0801,7.5,8.65,14.86,10.9501,23.16
		c1.51,5.33,4.23,10.33,4.8099,15.92c0.61,5.73,2.89,11.2,2.88,17.01c0.1,4.67,0.05,9.35,0.05,14.02
		c-6.3101-0.93-12.53-2.39-18.63-4.22c-4.5601-1.41-9.4301-1.58-13.86-3.42c-5.64-2.58-12.04-2.11-17.8501-4.15
		c-10.88-3.43-22.34-4.57-33.09-8.42c-6.8199-1.85-13.84-2.8-20.6899-4.47c-6.6001-1.97-13.49-2.73-19.9601-5.14
		c-8.4399-1.89-16.87-3.86-25.2999-5.79c-6.9401-2.56-14.37-3.24-21.41-5.44c-14.41-3.1-28.5699-7.25-43.01-10.22
		c-12.22-3.18-24.66-5.54-36.79-9.03c-2.9-0.85-2.34-4.53-0.98-6.49c6.11-9.92,12.51-19.88,21.09-27.89
		C1024.89,206.62,1030.9,203.2,1034.1,197.24z"/>
	<path fill="#8CC63E" d="M777.2,175.48c10.2-1.9,20.34-4.87,30.83-4.26c10.41-0.56,20.72,1.05,30.95,2.8
		c5.24,1.04,10.3,3.41,15.77,2.64c34.42,10.96,63.56,37.04,79.36,69.45c-13.19,3.02-26.27,6.66-39.5,9.32
		c-5.57-1.21-10.84,1.24-16.23,2.12c-6.47,1.08-12.49,3.89-18.98,4.83c-9.14,1.37-17.86,4.69-27,5.94
		c-5.75,0.4-10.7401,3.67-16.41,4.44c-6.72,1.9-13.83,2.25-20.32,4.96c-3.88,1.37-8.06,1.5-11.98,2.72
		c-12.88,4.02-26.26,6.05-39.19,9.86c-5.71,1.91-12.1,1.88-17.15,5.51c-17.5,4.82-35.33,8.66-52.97,13.03
		c-0.85-35.12,12.6-70.27,36.66-95.86c11.68-12.59,25.78-22.9,41.26-30.33h0.38c2.05,0.06,4.15-0.04,6.1-0.81
		C764.88,179.64,770.79,176.75,777.2,175.48z"/>
	<path fill="#8CC63E" d="M1174.1801,836.78c19.2599-8.08,38.0199-17.28,56.6799-26.63c2.9501,3.85,4.61,8.7599,7.0601,13.03
		c19.6,39.45,35.4099,80.91,45.38,123.86c3.4099,15.48,6.76,31.1,8.2,46.88c-2.21,11.64,2.26,23.31,1.47,35.02
		c-0.78,18.05,1.2101,36.25-1.5399,54.1801c-0.54,10.2-1.0701,20.51-3.5601,30.47c-3.23,22.87-8.41,45.51-15.71,67.42
		c-2.91,10.8199-6.49,21.54-11.4301,31.61c-1.1799,2.77-1.29,5.85-2.4299,8.64c-3.66,8.12-6.4,16.63-10.4801,24.5699
		c-6.33,13.28-11.87,26.9501-19.11,39.78c-2.5299,4.85-6.0699,9.4301-6.5299,15.0701c-8.39,16.0099-18.15,31.36-27.9701,46.5499
		c-42.4299,64.63-93.2799,123.5-149.0499,176.9301c-17.54,16.8199-35.61,33.08-54.23,48.7c-6.01,5.9401-15.09,6.97-21.16,12.92
		c-6.2-8.16-16.62-10.99-26.06-13.48c-3.23-0.64-5.28-3.42-7.73-5.3401c-59.03-50.48-113.07-106.8999-160.24-168.64
		c-43.91-57.85-81.63-120.97-106.78-189.2999c-0.83-2.61-2.35-5.14-2.33-7.91c0.47-2.42,0.66-4.9299-0.57-7.15
		c-3.66-7.6699-5.3-16.0499-7.91-24.09c-1.51-6.6899-4.1-13.1-5.16-19.89c-0.95-5.72-3.25-11.13-3.83-16.9199
		c-0.62-6.1101-2.43-12-3.2-18.0801c-0.62-4.6799-1.23-9.36-1.9901-14.02c-1.02-5.96-0.53-12.0699-1.79-17.99
		c-1.89-8.52-0.3-17.28-1.45-25.88c3.93,1.99,7.55,4.49,11.13,7.05c1.33,1.25,3.19,0.59,4.81,0.5599
		c49.52,29.01,106.41,40.4701,159.56,60.7101c-8.67,13.1899-15.87,27.7799-18.25,43.51c-1.3,8.63-0.45,18.63,6.02,25.13
		c4.97,4.7999,12.16,7.21,19.03,6.1499c10.87-1.5699,20.36-8.76,26.42-17.71c11.01-17.12,13.42-37.87,16-57.61
		c8.95,13.95,21.42,25.27,34.72,34.99c8.75,6.27,17.79,12.55,28.14,15.84c7,2.23,15.34,2.62,21.56-1.89
		c5.44-3.6799,8.36-10.0199,9.3-16.35c0.8-5.61,0.94-11.35,0.06-16.9399c-1.44-8.05-6.5-14.86-12.06-20.62
		c-9.17-9.67-19.74-17.89-30.73-25.4c-0.08-0.9401-0.14-1.87-0.2-2.78c-4.72-2.47-9.2-5.35-13.61-8.3199
		c-1.35-0.9601-2.76-1.91-3.58-3.37c0.35-1.2001,1.71-1.6001,2.65-2.23c4.59-2.38,9.29-4.66,13.32-7.9401
		c1.21-0.91,1.37-2.5699,2-3.8199c10.78-8.92,20.3-19.49,27.48-31.53c5.36-9.4401,9.25-20.35,7.94-31.34
		c-1.08-9.38-8.01-17.57-16.79-20.75c-6.75-2.31-14.04-0.15-20.06,3.14c-12.3701,6.76-22.05,17.27-31.67,27.36
		c-12.73,13.68-24.56,28.42-33.47,44.91c-21.23,1-42.46-3.09-62.65-9.46c-42.22-13.86-79.61-39.34-112.68-68.57
		c-2.55-2.4-5.14-4.76-8.1-6.65c-2.78,1.6-6.9,5.32-3.84,8.57c28.34,25.99,59.86,49,94.98,64.96
		c29.02,13.14,60.86,21.01,92.85,19.66c2.73,0.11,5.24-1.7899,5.77-4.49c1.24-4.89,4.37-8.9,7.0699-13.04
		c5.63-8.25,11.9-16.0299,18.31-23.6699c7.46-8.98,14.97-18.08,24.16-25.37c6.01-4.67,12.96-8.77,20.71-9.3701
		c3.41-0.34,6.8799,0.81,9.52,2.97c5.99,4.88,9.47,12.86,8.6,20.59c-0.67,6.5601-3.69,12.5801-7,18.1901
		c-7.35,12.2-17.26,22.84-28.85,31.1c-7.58,5.33-16.19,9.14-25.32,10.8199c-3.59,0.28-6.89,5.8101-3.04,8.04
		c16.69,11.54,34.08,22.16,49.66,35.22c6.75,5.5901,13.06,11.9301,17.55,19.52c5.48,8.83,6.1,20.71,0.25,29.52
		c-2.2401,3.26-6.72,3.79-10.32,3.0699c-8.15-1.5599-15.39-5.9099-22.33-10.24c-16.03-10.6599-31.34-23.0599-42.44-38.96
		c-2.43-2.97-5.97,0.3101-7.54,2.51c0.25-1.78,0.49-3.54,0.71-5.3c-3.41-1.0699-7.5,0.91-8.06,4.5901
		c-2.62,16.6599-4.66,33.6599-11,49.4199c-3.54,8.41-9.9,16.23-18.65,19.49c-8.83,3.25-20.43-1.6-22.77-11.08
		c-2.16-9.4401,0.89-19.03,3.97-27.9c4.63-12.96,11.79-25.9199,23.88-33.23c2.87-1.54,2.62-5.08,1.85-7.75
		c-5.09,0.5-8.87,4.1899-12.7,7.1899c-7.53-2.9099-15.15-5.5499-22.72-8.3199c-0.69-1.46-1.4901-2.91-3.2401-3.1
		c-11.08-3.0701-21.77-7.42-32.98-10.0601c0.92-0.47,1.84-0.9099,2.78-1.35c-6.32,0.66-11.94-3.54-18.27-2.17
		c-20.94-6.5699-41.65-14-61.61-23.1599c-13.98-6.63-27.76-13.91-40.2-23.15l1.63-0.58c-2.34-1.24-5-1.3101-7.57-1.16
		c-0.58-5.05,0.46-10.08,0.38-15.13c0.1-5.6901-0.45-11.47,0.82-17.07c1.58-6.55,1.03-13.34,1.96-19.97
		c0.47-5.42,2.7-10.52,2.99-15.97c0.79-10.21,3.26-20.17,5.71-30.07c0.9-6.85,3.59-13.26,4.78-20.04c0.59-0.13,1.2-0.25,1.82-0.36
		c-0.9301-8.04,5.41-14.8701,3.65-22.98c9.09-29.13,21.4-57.24,35.09-84.5c37.7,18.52,76.95,34.02,117.47,45.17l0.08,0.16
		c0.29,0.51,0.87,1.55,1.16,2.06c5.41,1.36,10.79,2.88,16.14,4.49c5.27,0.79,10.49,1.86,15.62,3.34c9.8,1.91,19.57,4.09,29.49,5.26
		c7.99,1.21,16.04,1.99,23.97,3.53c10.71,0.22,21.31,1.97,32.03,2.09c11.67,0.12,23.35,0.08,35.03,0.0099
		c8.66-0.08,17.4,0.55,25.97-1.03c4.17-0.8,8.42-1.04,12.66-0.68c4.98,0.52,9.43-2.43,14.37-2.54c7.86-0.5,15.55-2.3199,23.34-3.41
		c8.48-1.24,16.61-4.46,25.26-4.58c8.65-3.43,18.0601-4.28,26.8101-7.46c9.5599-2.69,19.14-5.31,28.5299-8.58
		c6.7201-1.96,13.3401-4.24,19.78-7.01c10.34-3.27,20.05-8.17,30.1901-11.99C1175.49,837.61,1174.61,837.06,1174.1801,836.78
		 M1237.48,955.53c-16.84,26.12-35.9,51.02-58.59,72.35c-26.35,24.9399-58.16,45.26-93.79,53.61
		c-17.13-18.27-38.27-32.28-59.89-44.66c-9.29-4.97-19.46-9.4199-30.21-9.0399c-8.91,0.22-17.53,5.4399-21.73,13.2999
		c-3.4,6.42-3.2,14.13-1.19,20.9501c3.54,11.89,11.56,22.0299,21.33,29.5c15.64,12.47,34.7,21.85,54.9901,22.63
		c-9.17,10.23-18.24,20.58-26.7401,31.37c-8.3,11.1799-17.33,22.62-20.35,36.5399c-2.34,10.02-1.75,21.5,4.64,29.9701
		c3.31,4.13,7.52,8.2899,13.03,8.97c5.85,0.88,11.5601-1.6,16.42-4.64c7.98-5.11,14.6-12.01,20.84-19.0699
		c12.16-14.03,22.6-29.8201,28.9-47.3701c6.47,14.9701,12.79,30.2201,22.5,43.4501c3.71,4.88,7.62,9.7999,12.84,13.16
		c7.59,4.99,17.25,7.21,26.15,4.9199c7.92-2.08,15.12-7.96,17.77-15.84c2.7899-8.5601,0.23-17.71-3.41-25.6
		c-6.38-13.03-15.65-24.6801-27.02-33.7101c21.78-15.59,44.66-29.5299,67.04-44.22c30.13-19.74,59.77-41.26,82.88-69.2
		c2.25-2.22,0.7999-7-2.83-5.76c-3.5,1.88-5.52,5.74-8.3301,8.5c-14.16,15.62-30.37,29.27-47.4,41.65
		c-31.6599,23-65.9399,42.09-97.6,65.1c-3.74-1.66-7.53-3.79-11.7-3.86c-2.99,0.61-6.79,5.5699-3.67,7.8099
		c14.9,3.85,25.6801,15.8101,34.54,27.7001c4.9199,6.88,9.5499,14.3999,10.96,22.88c0.98,5.2899-0.7999,11.5-5.63,14.37
		c-5,2.7899-11.04,3.1899-16.6,2.2899c-7.67-1.39-13.61-7.0399-18.33-12.88c-11.9-14.5499-18.76-32.2799-26.0901-49.37
		c-3.1699-0.6799-5.46,1.67-6.7899,4.24c-2.78,0.2301-5.92,1.3-6.78,4.28c-5.1901,14.76-14.2001,27.76-23.86,39.91
		c-5.6901,6.95-11.54,14-19.0901,19c-4.0099,2.5-8.8999,4.6799-13.6799,3.27c-4.81-1.39-7.97-5.74-10.02-10.05
		c-3.17-7.16-4.82-15.53-2.2-23.12c2.72-8.21,7.93-15.26,12.9-22.22c11.29-16.09,25.11-30.15,37.66-45.21
		c2.26-1.9701,1.25-6.7101-2.24-5.8601c-17.21,1.3-33.78-5.6-47.98-14.73c-8.88-5.8199-17.68-12.24-24-20.9099
		c-3.83-5.5-7.09-11.9601-6.54-18.8601c0.33-5.61,3.04-11.7899,8.5699-13.99c5.14-1.9099,10.85-0.8999,15.97,0.61
		c8.64,2.8,16.86,6.8,24.67,11.41c14.6,9.04,28.8199,18.85,41.6699,30.28c3.36,3.49,8.12,6.2,9.22,11.28
		c14.41-2.24,28.25-7.51,41.4901-13.5601c17.75-8.3099,34.1799-19.27,49.22-31.7999c29.37-24.52,53.51-54.72,74.08-86.8301
		c1.29-1.59,1.3201-3.5,0.72-5.37C1241.74,953.06,1238.77,952.99,1237.48,955.53z"/>
	<path fill="#94BD55" d="M993.58,246.09c9.54-19.06,23.24-36.29,40.52-48.85c-3.2,5.96-9.21,9.38-13.79,14.11
		c-8.58,8.01-14.98,17.97-21.09,27.89c-1.36,1.96-1.92,5.64,0.98,6.49c12.13,3.49,24.57,5.85,36.79,9.03
		c14.4401,2.97,28.6,7.12,43.01,10.22c7.04,2.2,14.47,2.88,21.41,5.44c8.4299,1.93,16.86,3.9,25.2999,5.79
		c6.4701,2.41,13.36,3.17,19.9601,5.14c6.85,1.67,13.87,2.62,20.6899,4.47c10.75,3.85,22.21,4.99,33.09,8.42
		c5.8101,2.04,12.2101,1.57,17.8501,4.15c4.4299,1.84,9.2999,2.01,13.86,3.42c6.1,1.83,12.3199,3.29,18.63,4.22
		c0-4.67,0.0499-9.35-0.05-14.02c0.01-5.81-2.27-11.28-2.88-17.01c-0.58-5.59-3.2999-10.59-4.8099-15.92
		c-2.3-8.3-6.87-15.66-10.9501-23.16c-2.0699-3.95-6.16-6.92-6.3199-11.71c18.71,23.79,28.12,54.46,27.5699,84.61
		C1166.74,287.97,1080.1801,266.97,993.58,246.09z"/>
	<path fill="#92BF58" d="M878.38,257.55c5.39-0.88,10.66-3.33,16.23-2.12c-36.41,9.31-73.07,17.7-109.56,26.68
		c-19.26,4.46-38.37,9.63-57.7,13.7c5.05-3.63,11.44-3.6,17.15-5.51c12.93-3.81,26.31-5.84,39.19-9.86
		c3.92-1.22,8.1-1.35,11.98-2.72c6.49-2.71,13.6-3.06,20.32-4.96c5.67-0.77,10.66-4.04,16.41-4.44c9.14-1.25,17.86-4.57,27-5.94
		C865.89,261.44,871.91,258.63,878.38,257.55z"/>
	<path fill="#92BF58" d="M748.57,1093.1899c6.33-1.37,11.95,2.8301,18.27,2.17c-0.94,0.4401-1.86,0.88-2.78,1.35
		c11.21,2.64,21.9,6.99,32.98,10.0601c1.75,0.1899,2.55,1.64,3.2401,3.1C783.1,1104.12,765.77,1098.84,748.57,1093.1899z"/>
	<path fill="#006837" d="M944.9,255.87c12.64-0.38,25.27,0.11,37.9,0.64c-11.1,31.12-11.8,66.05-0.57,97.23
		c9.37,26.49,26.79,50.04,49.36,66.78c19.55,14.49,42.89,23.98,67.0701,26.89c38.4099,5.07,78.61-6.55,108.39-31.33
		c15.61-12.72,28.26-28.94,37.25-46.93c4.3099-8.26,6.9099-17.22,10.1499-25.89c33.9601,19.77,66.92,41.31,98.3201,64.95
		c58.5499,44.04,112.97,93.64,161.77,148.3c3.0499,3.48,6.14,6.94,9.08,10.53c-24.23,28.81-50.97,55.38-78.21,81.32
		c-59.1801,54.79-123.6801,104.23-193.9601,144c-72.7699,41.13-152.4199,71.92-235.73,82.19c-53.47,6.86-108,4.2-160.78-6.6
		c-45.14-9.16-88.97-24.09-130.97-42.89C672.26,801.81,623.34,772.68,577.21,739.81c-60.2-43.13-115.97-92.38-166.54-146.47
		c-7.85-8.7-16-17.15-23.24-26.3701c23.99-28.3799,50.18-54.8,77.22-80.26c52.57-49.07,109.57-93.57,171.02-131.02
		c11.82-7.18,23.78-14.16,36.02-20.61c7.15,35.15,28.31,67.06,57.66,87.62c32.44,23.09,74.85,31.27,113.62,22.3
		c32.9-7.42,62.84-27.06,82.79-54.24c24.43-32.6,33.59-76.01,24.46-115.7C948.98,268.51,946.35,262.35,944.9,255.87 M751.62,584.61
		c-0.17,19.29-7.9,38.64-22.04,51.93c-13.16,13.35-31.77,20.45-50.38,20.88c-0.01,1.1,0,2.21,0.02,3.33
		c17.7401,0.43,35.22-6.36,48.83-17.58c30.57,30.3,68.67,52.25,109.07,66.6c49.52,17.53,102.58,24.37,154.97,21.84
		c43.2599-2.12,86.3599-10.81,126.5999-27c35.7001-14.35,69.13-35.04,96.3701-62.37c9.5099,7.97,20.7699,14.03,32.9299,16.73
		c5.71,1.11,11.6801,2.47,17.48,1.34c1.2101-3.78-3.21-2.83-5.48-3.27c-25.4399-1.65-49.4-17.79-60.1-40.98
		c-5.0601-9.67-6.61-20.58-7.59-31.29c-0.7201-0.15-2.16-0.45-2.88-0.6c-0.9301,12.01,2.4199,24.07,7.7,34.78
		c2.73,6.23,7.27,11.33,11.05,16.91c-29.87,30.21-67.7001,51.67-107.61,65.63c-46.6801,16.4-96.55,22.81-145.91,21.04
		c-26.92-1.09-53.77-4.73-79.9301-11.22c-51.25-12.55-100.7-36.3-138.74-73.4c-1.29-1.02-0.28-2.41,0.56-3.31
		c11.91-13.66,19.28-31.94,18.2401-50.17C753.72,584.48,752.66,584.54,751.62,584.61z"/>
	<path fill="#006837" d="M344,858.86c36.88-3.44,73.73,4.67,108.44,16.59c62.82,22.16,120.17,57.27,173.8,96.32
		c3.89,3.17,8.3,5.72,11.87,9.26c-2.78,20.89-5.02,41.92-4.86,63.0399c-0.93,73.7201,18.78,146.4701,49.57,213.03
		c1.68,3.8101,3.96,7.4,5.04,11.4601c0.61,3.1599,1.79,6.1899,2.44,9.35c-0.24,0.49-0.72,1.47-0.96,1.96
		c-23.69-30.13-47.86-60.02-75.2-86.95c-23.91-24.42-50.32-46.4701-79.18-64.8301c-33.46-21.2999-69.98-37.74-107.99-49.0699
		c-4.18-1.75-8.31,3.0499-7.37,7.09c19.84,6.24,39.52,13.11,58.43,21.83c33.59,15.2401,64.99,35.17,93.52,58.53
		c49.19,40.66,89.29,90.8101,127.45,141.62c2.71,3.5801,6.84-0.1599,8.29-2.99c37.27,65.51,83.52,125.65,135.17,180.42
		c25.0099,26.6699,51.33,52.13,78.87,76.1699c2.38,2.3601,5.94,4.02,6.75,7.54c-38.12-5.04-76.73-4.03-115.01-1.9299
		c-10.2-1.87-20.24-4.53-30.32-6.92c-78.46-19.66-154.86-49.46-223.39-92.74c-33.73-21.39-65.46-46.05-93.91-74.11
		c-52.07-51.77-100.28-107.63-141.68-168.3301c-21.69-31.9299-41.4-65.2699-57.79-100.24c-11.83-25.5299-21.89-51.98-28.45-79.37
		c-8.17-34.33-11.13-71.23,0.03-105.2499c9.55-29.79,31.63-55.29,59.83-68.86C311.97,864.41,327.9,860.37,344,858.86z"/>
	<path fill="#006837" d="M1500.97,867.11c21.54-5.57,43.7101-9.39,66.03-8.98c20.9301-0.04,42.05,4,61.03,12.96
		c17.6599,8.48,33.1899,21.41,44.5399,37.39c10.37,14.4,17.05,31.24,20.4801,48.6c3.96,21.17,3.45,43,0.3899,64.25
		c-5.96,39.1099-20.11,76.47-37.1599,111.9999c-33.02,67.2301-77.15,128.39-125.67,185.2201
		c-25.6,29.6399-52.33,58.34-80.6799,85.37c-56.27,52.2899-123.53,91.7999-194.62,120.37c-35.13,14.1699-71.27,25.76-107.9701,35.09
		c-5.4199,1.17-10.73,3.3199-16.35,3.03c-37.45-0.73-75.0599,0.2-112.11,6.1c-5.78,0.92-11.43,2.5-17.25,3.13
		c12.22-11.46,25.12-22.21,37.28-33.75c13.61-13.05,27.4099-25.9301,40.34-39.67c63.4-65.4199,119.8199-138.4,161.42-219.6899
		c2.0399,0.9299,4.83,1.86,6.3199-0.5c23.5-31.27,47.67-62.14,74.21-90.9c25.5601-27.54,53.2201-53.41,84.4-74.52
		c32.05-21.79,67.11-39.21,103.97-51.24c4.65-1.73,9.4901-2.9301,14.17-4.59c3.3-1.0801,5.21-5.86,2.54-8.52
		c-37.79,10.8099-74.0701,26.88-107.49,47.58c-33.01,20.27-62.77,45.48-89.79,73.15c-20.77,21.34-39.95,44.17-58.48,67.46
		c-3.24,3.6101-5.59,8.0701-9.28,11.2301c-1.85,1.12-3.54,2.47-4.98,4.08c0.89-2.95,1.25-6,1.52-9.04
		c1.47-5.4299,4.35-10.39,6.2-15.71c17.26-43.15,29.53-88.47,34.35-134.76c4.12-38.71,2.79-77.96-3.5699-116.36
		c13.89-10.97,28.64-20.8,43.29-30.71C1388.51,912.13,1442.42,882.87,1500.97,867.11z"/>
	<path fill="#006837" d="M1084.26,1568.28c24.24-1.17,48.53-0.41,72.76,0.59c48.39,2.4301,96.6899,7.7,144.3099,16.74
		c25.0901,4.85,50.05,10.7001,74.28,18.91c13.28,4.6699,26.6,9.8099,38.38,17.63c4.65,3.48,9.99,7.27,11.48,13.23
		c1.11,4.9399-3.08,8.8199-6.7,11.4301c-6.1801,4.11-13.3201,6.5-20.36,8.6899c-21.27,6.17-43.4301,8.27-65.41,10.01
		c-15.3,1.2-30.65,1.12-45.97,1.72c-73.2001-0.54-146.55-7.3199-218.1-23.1c-27.4501-6.53-55.17-13.65-80.3201-26.77
		c-6.59-3.75-13.55-7.73-17.84-14.1899c-2.78-3.9-1.59-9.4801,1.91-12.51c6.23-5.5601,14.31-8.4,22.14-10.92
		c19.55-5.8099,39.92-8.12,60.16-9.95C1064.74,1569.1899,1074.48,1568.29,1084.26,1568.28z"/>
	<path fill="#006837" d="M695.98,1586.29c50.97-8.0901,102.41-13.77,154.03-14.87c28.93-0.3301,58.11-0.3401,86.65,5.01
		c7.67,1.62,15.42,3.5699,22.3701,7.33c2.77,1.38,4.77,3.8099,6.62,6.24c-1.52,3.38-1.52,7.6-4.44,10.21
		c-5.34,5.25-11.98,8.9-18.52,12.42c-18.7,9.28-38.6,15.85-58.62,21.63c-39.32,11.47-79.63,19.21-120.06,25.6
		c-51.98,7.86-104.47,12.85-157.06,13.37c-8.55,0.27-17.07-0.6-25.61-0.62c-14.89-0.35-29.75-1.7999-44.42-4.33
		c-8.62-1.75-17.44-3.67-25.16-8.0601c-3.06-2.02-6.8-5.11-5.93-9.23c1.66-5.78,6.99-9.28,11.6-12.61
		c15.5-10.22,33.2-16.39,50.64-22.4C609.75,1602.41,652.8,1593.52,695.98,1586.29z"/>
	<path fill="#91C05A" d="M952.99,883.87c76.05,0.59,151.36-17.66,221.1901-47.09c0.4299,0.28,1.3099,0.83,1.74,1.1
		c-10.14,3.82-19.8501,8.72-30.1901,11.99c-6.4399,2.77-13.0599,5.05-19.78,7.01c-9.3899,3.27-18.97,5.89-28.5299,8.58
		c-8.75,3.18-18.16,4.03-26.8101,7.46c-8.65,0.12-16.78,3.34-25.26,4.58c-7.7899,1.09-15.48,2.91-23.34,3.41
		c-4.94,0.11-9.39,3.06-14.37,2.54c-4.24-0.36-8.49-0.12-12.66,0.68c-8.57,1.58-17.31,0.95-25.97,1.03
		c-11.68,0.07-23.36,0.11-35.03-0.0099c-10.72-0.12-21.32-1.87-32.03-2.09c-7.93-1.54-15.98-2.32-23.97-3.53
		c-9.92-1.17-19.69-3.35-29.49-5.26c-5.13-1.48-10.35-2.55-15.62-3.34c-5.35-1.61-10.73-3.13-16.14-4.49
		c-0.29-0.51-0.87-1.55-1.16-2.06C860.34,876.46,906.55,883.82,952.99,883.87z"/>
	<path fill="#91C05A" d="M1292.97,1028.9399c0.79-11.71-3.6799-23.3799-1.47-35.02c6.73,47.55,3.85,96.21-5.89,143.16
		c-9.4,44.8201-25.2,88.14-45.24,129.26c-5.79,11.5801-11.46,23.27-18.1899,34.3401c0.46-5.64,4-10.2201,6.5299-15.0701
		c7.24-12.83,12.78-26.5,19.11-39.78c4.0801-7.9399,6.8201-16.45,10.4801-24.5699c1.1399-2.79,1.25-5.87,2.4299-8.64
		c4.9401-10.0699,8.52-20.79,11.4301-31.61c7.2999-21.91,12.48-44.55,15.71-67.42c2.49-9.96,3.02-20.27,3.5601-30.47
		C1294.1801,1065.1899,1292.1899,1046.99,1292.97,1028.9399z"/>
	<path fill="#91C05A" d="M893.91,1079.52c8.3701-3.21,16.09-7.91,23.11-13.47c-0.63,1.25-0.79,2.9099-2,3.8199
		c-4.03,3.28-8.73,5.5601-13.32,7.9401c-0.94,0.6299-2.3,1.0299-2.65,2.23c0.82,1.46,2.23,2.4099,3.58,3.37
		c4.41,2.97,8.89,5.85,13.61,8.3199c0.06,0.91,0.12,1.84,0.2,2.78C909.02,1089.38,901.41,1084.53,893.91,1079.52z"/>
	<path fill="#91BF4F" d="M658.18,918.18c1.49-4.91,2.81-9.88,4.75-14.63c1.76,8.11-4.58,14.94-3.65,22.98
		c-0.6201,0.11-1.23,0.23-1.82,0.36c-1.19,6.78-3.88,13.19-4.78,20.04c-2.45,9.9-4.92,19.86-5.71,30.07
		c-0.29,5.45-2.52,10.55-2.99,15.97c-0.93,6.63-0.38,13.42-1.96,19.97c-1.27,5.6-0.72,11.3799-0.82,17.07
		c0.08,5.05-0.96,10.08-0.38,15.13c2.57-0.15,5.23-0.08,7.57,1.16l-1.63,0.58c-3.79-1.35-7.82,2.39-7.22,6.23
		c5.09,4.67,11.35,7.85,17.13,11.59c-1.62,0.03-3.48,0.6901-4.81-0.5599c-3.58-2.5601-7.2-5.0601-11.13-7.05
		c1.15,8.6-0.44,17.36,1.45,25.88c1.26,5.92,0.77,12.03,1.79,17.99c0.76,4.66,1.3701,9.3401,1.9901,14.02
		c0.77,6.0801,2.58,11.97,3.2,18.0801c0.58,5.7899,2.88,11.2,3.83,16.9199c1.06,6.79,3.65,13.2001,5.16,19.89
		c2.61,8.04,4.25,16.42,7.91,24.09c1.23,2.2201,1.04,4.73,0.57,7.15l-0.09,0.8c-15.5-43.3401-25.13-88.9-27.35-134.91
		C636.75,1016.77,643.85,966.31,658.18,918.18z"/>
	<path fill="#010300" d="M1237.48,955.53c1.29-2.54,4.26-2.47,6.72-2.4301c0.6001,1.87,0.5701,3.78-0.72,5.37
		c-20.5699,32.11-44.71,62.3101-74.08,86.8301c-15.04,12.5299-31.47,23.49-49.22,31.7999
		c-13.2401,6.05-27.0801,11.3201-41.4901,13.5601c-1.1-5.0801-5.86-7.79-9.22-11.28c-12.85-11.4301-27.0699-21.24-41.6699-30.28
		c-7.8101-4.61-16.03-8.61-24.67-11.41c-5.12-1.5099-10.83-2.5199-15.97-0.61c-5.53,2.2001-8.24,8.38-8.5699,13.99
		c-0.55,6.9,2.71,13.3601,6.54,18.8601c6.32,8.6699,15.12,15.09,24,20.9099c14.2,9.13,30.77,16.03,47.98,14.73
		c3.49-0.85,4.5,3.89,2.24,5.8601c-12.5499,15.0599-26.37,29.12-37.66,45.21c-4.97,6.96-10.18,14.01-12.9,22.22
		c-2.62,7.59-0.97,15.96,2.2,23.12c2.05,4.3101,5.21,8.66,10.02,10.05c4.78,1.4099,9.67-0.77,13.6799-3.27
		c7.55-5,13.4-12.05,19.0901-19c9.6599-12.15,18.6699-25.15,23.86-39.91c0.86-2.98,4-4.0499,6.78-4.28
		c1.33-2.5699,3.62-4.9199,6.7899-4.24c7.3301,17.0901,14.1901,34.8201,26.0901,49.37c4.72,5.8401,10.6599,11.49,18.33,12.88
		c5.5599,0.9,11.6,0.5,16.6-2.2899c4.8301-2.87,6.61-9.0801,5.63-14.37c-1.41-8.4801-6.04-16-10.96-22.88
		c-8.86-11.89-19.64-23.8501-34.54-27.7001c-3.12-2.24,0.6801-7.2,3.67-7.8099c4.1699,0.0699,7.96,2.2,11.7,3.86
		c31.66-23.01,65.9401-42.1,97.6-65.1c17.03-12.38,33.24-26.03,47.4-41.65c2.8101-2.76,4.8301-6.62,8.3301-8.5
		c3.6299-1.24,5.08,3.54,2.83,5.76c-23.11,27.9399-52.75,49.46-82.88,69.2c-22.38,14.6901-45.26,28.63-67.04,44.22
		c11.37,9.03,20.64,20.6801,27.02,33.7101c3.64,7.89,6.2,17.0399,3.41,25.6c-2.65,7.88-9.85,13.76-17.77,15.84
		c-8.9,2.29-18.5601,0.0701-26.15-4.9199c-5.22-3.3601-9.13-8.28-12.84-13.16c-9.71-13.23-16.03-28.48-22.5-43.4501
		c-6.3,17.55-16.74,33.3401-28.9,47.3701c-6.24,7.0599-12.86,13.96-20.84,19.0699c-4.86,3.04-10.5701,5.52-16.42,4.64
		c-5.51-0.6801-9.72-4.84-13.03-8.97c-6.39-8.4701-6.98-19.9501-4.64-29.9701c3.02-13.9199,12.05-25.36,20.35-36.5399
		c8.5001-10.79,17.57-21.14,26.7401-31.37c-20.29-0.78-39.35-10.16-54.9901-22.63c-9.77-7.4701-17.79-17.61-21.33-29.5
		c-2.01-6.8201-2.21-14.53,1.19-20.9501c4.2-7.86,12.82-13.08,21.73-13.2999c10.75-0.38,20.92,4.0699,30.21,9.0399
		c21.62,12.38,42.76,26.39,59.89,44.66c35.63-8.35,67.4401-28.67,93.79-53.61C1201.58,1006.55,1220.64,981.65,1237.48,955.53z"/>
	<path fill="#010300" d="M663.18,981.73c-3.06-3.25,1.06-6.97,3.84-8.57c2.96,1.89,5.55,4.25,8.1,6.65
		c33.07,29.23,70.46,54.71,112.68,68.57c20.19,6.37,41.42,10.46,62.65,9.46c8.91-16.49,20.74-31.23,33.47-44.91
		c9.62-10.09,19.3-20.6,31.67-27.36c6.02-3.29,13.31-5.45,20.06-3.14c8.78,3.18,15.71,11.37,16.79,20.75
		c1.31,10.99-2.58,21.9-7.94,31.34c-7.18,12.04-16.7,22.61-27.48,31.53c-7.02,5.5599-14.74,10.26-23.11,13.47
		c7.5,5.01,15.11,9.86,22.53,14.99c10.99,7.51,21.56,15.73,30.73,25.4c5.56,5.76,10.62,12.5699,12.06,20.62
		c0.88,5.59,0.74,11.33-0.06,16.9399c-0.94,6.3301-3.86,12.67-9.3,16.35c-6.22,4.51-14.56,4.12-21.56,1.89
		c-10.35-3.2899-19.39-9.5699-28.14-15.84c-13.3-9.72-25.77-21.04-34.72-34.99c-2.58,19.74-4.99,40.49-16,57.61
		c-6.06,8.95-15.55,16.14-26.42,17.71c-6.8701,1.0601-14.0601-1.35-19.03-6.1499c-6.47-6.5-7.32-16.5-6.02-25.13
		c2.38-15.7301,9.58-30.3201,18.25-43.51c-53.15-20.24-110.04-31.7001-159.56-60.7101c-5.78-3.74-12.04-6.9199-17.13-11.59
		c-0.6-3.84,3.43-7.58,7.22-6.23c12.44,9.24,26.22,16.52,40.2,23.15c19.96,9.1599,40.67,16.59,61.61,23.1599
		c17.2,5.65,34.53,10.9301,51.71,16.6801c7.5699,2.77,15.1899,5.41,22.72,8.3199c3.83-3,7.61-6.6899,12.7-7.1899
		c0.77,2.67,1.02,6.21-1.85,7.75c-12.09,7.3101-19.25,20.27-23.88,33.23c-3.08,8.87-6.1299,18.46-3.97,27.9
		c2.34,9.48,13.94,14.33,22.77,11.08c8.75-3.26,15.11-11.08,18.65-19.49c6.34-15.76,8.38-32.76,11-49.4199
		c0.56-3.6801,4.65-5.66,8.06-4.5901c-0.22,1.76-0.46,3.52-0.71,5.3c1.57-2.2,5.11-5.48,7.54-2.51c11.1,15.9,26.41,28.3,42.44,38.96
		c6.94,4.3301,14.18,8.6801,22.33,10.24c3.6,0.7201,8.08,0.1901,10.32-3.0699c5.85-8.8101,5.23-20.6901-0.25-29.52
		c-4.4901-7.59-10.8-13.9299-17.55-19.52c-15.58-13.0599-32.97-23.6799-49.66-35.22c-3.85-2.23-0.55-7.76,3.04-8.04
		c9.13-1.6799,17.74-5.49,25.32-10.8199c11.59-8.26,21.5-18.9,28.85-31.1c3.31-5.61,6.33-11.63,7-18.1901
		c0.87-7.73-2.61-15.71-8.6-20.59c-2.64-2.16-6.11-3.31-9.52-2.97c-7.75,0.6-14.7,4.7-20.71,9.3701
		c-9.19,7.29-16.7,16.39-24.16,25.37c-6.41,7.64-12.68,15.4199-18.31,23.6699c-2.7,4.14-5.83,8.15-7.0699,13.04
		c-0.53,2.7001-3.04,4.6-5.77,4.49c-31.99,1.35-63.83-6.52-92.85-19.66C723.04,1030.73,691.52,1007.72,663.18,981.73z"/>
	<path fill="#11603A" d="M1246.04,1268.0601c3.89-8.4501,7.48-17.0701,11.74-25.3401c-0.27,3.04-0.63,6.0901-1.52,9.04
		c1.4399-1.61,3.13-2.96,4.98-4.08C1256.89,1254.95,1251.15,1261.3199,1246.04,1268.0601z"/>
	<path fill="#0F5E3D" d="M687.86,1268.5601c2.76,3.98,4.58,8.5099,6.83,12.7899c2.47,5.09,5.55,9.88,7.63,15.16
		c-4.74-5.21-8.87-10.95-12.98-16.64c0.24-0.49,0.72-1.47,0.96-1.96C689.65,1274.75,688.47,1271.72,687.86,1268.5601z"/>
</g>
</svg>
