<svg xmlns="http://www.w3.org/2000/svg" xmlns:xlink="http://www.w3.org/1999/xlink" width="200px" height="220px" viewBox="0 0 500 550" preserveAspectRatio="xMidYMid meet" ><rect id="svgEditorBackground" x="0" y="0" width="1300" height="550" style="fill: none; stroke: none;"/><defs id="svgEditorDefs"><path id="svgEditorClosePathDefs" style="stroke:black;stroke-width:3.49px;fill:url(#lgrd2-peachpuff-sienna-v);"/><linearGradient gradientUnits="objectBoundingBox" id="lrgd2-e1-repeat" spreadMethod="repeat" x1="20%" x2="40%" y1="0%" y2="0%"><stop offset="0%" stop-color="lightblue"/><stop offset="100%" stop-color="#ef5b2b"/></linearGradient><linearGradient gradientTransform="rotate(90)" gradientUnits="objectBoundingBox" id="lgrd2-d-reflect" spreadMethod="reflect" x1="0%" x2="5%" y1="0%" y2="5%"><stop offset="0%" stop-color="#e20709" stop-opacity="0.8"/><stop offset="5%" stop-color="#9ad346" stop-opacity="1"/></linearGradient><linearGradient gradientTransform="skewX(-45)" gradientUnits="objectBoundingBox" id="lgrd2-c-repeat" spreadMethod="repeat" x1="0%" x2="5%" y1="0%" y2="0%"><stop offset="5%" stop-color="red" stop-opacity="0.8"/><stop offset="75%" stop-color="yellow" stop-opacity="1"/></linearGradient><linearGradient gradientTransform="rotate(90)" gradientUnits="objectBoundingBox" id="lgrd4-a" spreadMethod="repeat" x1="0%" x2="15%" y1="0%" y2="5%"><stop offset="5%" stop-color="#e20709" stop-opacity="0.8"/><stop offset="30%" stop-color="#9ad346" stop-opacity="1"/><stop offset="60%" stop-color="#bcd346" stop-opacity="0.8"/><stop offset="90%" stop-color="#e20709" stop-opacity="0.8"/></linearGradient><linearGradient gradientUnits="objectBoundingBox" id="lrgd2-e1-50-reflect" spreadMethod="reflect" x1="0%" x2="50%" y1="0%" y2="0%"><stop offset="0%" stop-color="lightblue"/><stop offset="100%" stop-color="#ef5b2b"/></linearGradient><linearGradient gradientUnits="objectBoundingBox" id="lgrd2-peachpuff-sienna-v" spreadMethod="pad" x1="0%" x2="0%" y1="0%" y2="100%"><stop offset="0%" style="stop-color:peachpuff;  stop-opacity:0.84;"/><stop offset="100%" style="stop-color:sienna;  stop-opacity:1"/></linearGradient><linearGradient gradientUnits="objectBoundingBox" id="lgrd2-b" spreadMethod="pad" x1="0" x2="100%" y1="0" y2="0"><stop offset="0%" stop-color="#BBC42A"/><stop offset="100%" stop-color="#ED6E46"/></linearGradient><linearGradient gradientUnits="objectBoundingBox" id="lgrd2-fire" spreadMethod="pad" x1="0%" x2="100%" y1="0%" y2="0%"><stop offset="0%" style="stop-color:rgb(255,255,0);stop-opacity:1"/><stop offset="100%" style="stop-color:rgb(255,0,0);stop-opacity:1"/></linearGradient><radialGradient cx="45%" cy="45%" fx="30%" fy="30%" gradientUnits="objectBoundingBox" id="rgrd3-b"><stop offset="0%" stop-color="#f9a5a5"/><stop offset="50%" stop-color="#f98585"/><stop offset="100%" stop-color="#f96b6b"/></radialGradient><radialGradient cx="50%" cy="50%" fx="50%" fy="50%" id="rgrd2-white-red" r="50%"><stop offset="0%" style="stop-color:white;stop-opacity:0"/><stop offset="100%" style="stop-color:red;stop-opacity:1"/></radialGradient><radialGradient fx="30%" fy="30%" gradientUnits="objectBoundingBox" id="rgrd11-a"><stop offset="0" stop-color="#f9caaa"/><stop offset="20%" stop-color="#f9caaa"/><stop offset="20%" stop-color="#f9ae7a"/><stop offset="40%" stop-color="#f9ae7a"/><stop offset="40%" stop-color="#f79959"/><stop offset="60%" stop-color="#f79959"/><stop offset="60%" stop-color="#fc9149"/><stop offset="80%" stop-color="#fc9149"/><stop offset="80%" stop-color="#f79959"/><stop offset="90%" stop-color="#f97821"/><stop offset="100%" stop-color="#f97821"/></radialGradient></defs><g id="e3_group"><path d="M132.02029824989998,98.04219412059999c-12.91127285720006,22.189841661499997,-15.11258066540006,65.67726450229998,-19,81.99999237060004c-3.887419334600054,16.32272786829992,-11.940760004699996,34.45606771259992,-4,50.99999999999994c7.940760004699996,16.54393228729998,49.90398144599999,50.70172050239995,75,62.00000000000006c25.096018554099942,11.298279497600106,30.89569456606091,19.779901424646596,86.00001525876084,-1.9999999999536158c65.10432069273918,-20.77990142474664,101.72939852360003,-98.6961515726,78,-130.00000000000003c-14.729398523600025,-79.3038484274,-63.593770684560695,-80.7892434225464,-95.0000152587609,-90.9999923706464c-31.406244574200002,-10.21074894809999,-108.0887271428,5.810158338400015,-120.99999999999994,28Z" style="stroke: black; stroke-width:3.84px;fill:#FFA07A;" id="e2_area3"/><path d="M137.12841446307488,345.6190519138845c16.268368451146813,-59.50769877065727,15.28213600142513,-38.50300876489405,24.89909153442514,-52.509537101294086c-45.383044467039156,-36.05235791172049,112.33345834489992,-12.539295735999985,90.00001525876087,6.469721971760805c15.666556913960932,23.06957376433229,23.551750437682728,75.17939713870555,-6.000000000039108,85.87888788681698c-8.551750437778196,75.85170595561135,26.635053455839085,122.72056374376916,-12.992807511167939,133.40615869191402c-33.64227646215386,13.176057847207858,-108.72542933135384,19.660634521207726,-88.37480287268497,-56.987739394816344c4.085816708891969,-33.213535321569,35.76046253895757,-35.96279626102796,0.3892183677126013,-85.09055036592645Z" style="stroke:black;fill:url(#lgrd2-d-reflect);stroke-width:3px;" id="e10_area3" transform="matrix(1 0 0 0.680401 0 99.2365)"/><path d="M74.24373842419018,422.6564981806808c10.856006386570684,49.22916762306562,-0.47204468829018253,51.68231299841915,4.790975320909823,65.38568831051913c20.263020009260856,8.703375312046433,64.67481343729999,16.164532127800044,67.99999999996085,5.000000000046498c2.3251865626999972,-9.164532127899975,8.305837127399997,-16.91743366849994,-4.848637301332531,-46.906299281863255c-19.35629136025301,2.89581042573883,-36.02178458047459,2.127689697290748,-67.94233801953814,-23.47938902870237Z" style="stroke:black;fill:lightsalmon;stroke-width:1.62px;" id="e21_area3" transform="matrix(0.700203 0 0 0.766195 88.7771 114.941)"/><path d="M191.03966849057025,454.0274190212464c-17.93496893433911,22.843479312546492,-29.263020009199977,25.29662468790002,-24,39c5.263020009300021,13.703375312000162,64.6748134373,16.16453212780027,74,6c9.325186562699997,-10.164532127899975,2.30583712736086,-17.917433668453555,10,-35c-26.305837127339117,-0.08256633155349391,1.4315548877349897,4.629369383347353,-60,-10Z" style="stroke:black;fill:lightsalmon;stroke-width:1.54px;" id="e12_area3" transform="matrix(0.841888 -0.318198 0.314665 0.851341 -113.091 131.153)"/><path d="M129.55447299628847,502.98757626955927c6.074478901100065,-14.744875361799984,15.929988151700002,-19.07690271680002,16.11338028683474,-26.929798381764726c17.956631561565302,-5.993298901435196,16.101343060386284,-2.421029828911628,43.944551853209816,1.7350732049833368c17.03938850746897,12.009613433877917,31.460999445155437,25.57846092288139,25.94206785987717,43.194725176874215c-37.51893158506084,-5.38373574624643,-92.07447890092169,-3.255124638292841,-87.30675356218643,-15.120348089145466Z" style="stroke:black;fill:url(#lgrd4-a);stroke-width:0px;" id="e24_area3" transform="matrix(0.994571 -0.104061 0.104061 0.994571 -50.7477 13.8464)"/><polygon style="stroke:blue;fill:aqua;stroke-width:1.54px;" id="e28_polygon" points="169.028 44.0278 145.028 102.028 139.028 139.028 139.028 137.028 145.028 184.028 188.028 82.0278 223.028 149.028 228.028 81.0278 237.028 116.028 236.028 152.028 241.028 179.028 247.028 134.028 257.028 112.028 264.028 95.0278 262.028 79.0278 282.028 134.028 283.028 163.028 291.028 139.028 294.028 112.028 293.028 95.0278 319.028 134.028 363.028 164.028 413.028 172.028 351.028 130.028 351.028 127.028 331.028 101.028 285.028 69.0278 249.028 52.0278 194.028 53.0278 176.028 50.0278" /><polygon style="stroke:blue;fill:aqua;stroke-width:1.54px;" id="e29_polygon" points="98.0275 145.042 74.0275 211.042 65.0275 253.042 81.0275 314.042 97.0275 335.042 86.0852 288.085 91.0275 253.042 94.0494 276.535 103.028 298.042 124.028 322.042 114.028 280.042 138.028 301.042 129.028 273.042 147.028 283.042 145.028 270.042 112.028 243.042 113.028 241.042 102.028 218.042 104.028 220.042 107.028 195.042 127.028 119.042" /><polygon style="stroke:blue;fill:aqua;stroke-width:1.54px;" id="e5_polygon" points="160.028 60.0278 106.028 126.028 96.0278 149.028 92.0278 202.028 154.028 113.028"/><polygon style="stroke:blue;fill:aqua;stroke-width:1.54px;" id="e2_polygon" points="137.259 34.0998 113.259 92.1001 107.259 129.1 107.259 127.1 113.259 174.1 156.259 72.0999 191.259 139.1 196.259 71.0999 205.259 106.1 204.259 142.1 209.259 169.1 215.259 124.1 225.259 102.1 232.259 85.0999 230.259 69.0999 250.259 124.1 251.259 153.1 259.259 129.1 262.259 102.1 261.259 85.0999 287.259 124.1 331.259 154.1 381.259 162.1 319.259 120.1 319.259 117.1 334.079 115.021 299.259 91.1001 296.115 105.877 253.259 59.0999 217.259 42.0998 162.259 43.0998 144.259 40.0998" /><path d="M147.95311366263934,372.5306252322253c2.9068036501159042,-22.929172804999496,9.795099494436442,-16.59777223373294,-6.404867179981835,-55.05573561659543c-68.150644955773,-16.092019554351282,6.495695299813747,24.490371725352418,-14.04502676879548,50.31153951011106c-6.6496903340060385,3.8465216497161805,-13.25459137818811,29.121379151749522,-3.9572522071026697,49.47240376675455c48.96016277068071,16.805882894045396,26.189765257070917,-5.164782290638527,117.68337068088056,-36.865343680924354c19.435877080145502,16.946204168219197,72.93842320258292,-59.97725372716263,-6.387341458139218,-22.778436735547587c16.047161302304886,-15.765144270792518,34.692662307837395,-39.09196881979551,-87.11862424581733,38.45721232495737c2.761489957615936,-29.476290767156456,-0.806216871763354,-15.432690840527357,0.229741178955976,-23.541639568755613Z" style="stroke: black; stroke-width:3.84px;fill:#FFA07A;" id="e1_area3" transform="matrix(0.770312 0.0134551 -0.0103655 0.99991 167.476 -19.1817)"/><path d="M130.4665350617644,347.45525200307793c-9.797948976202065,-7.864989983154601,7.914008045836596,-42.65345294797942,4.607848972647844,-41.098487552180416c-11.43254820529583,-14.081686364039854,-39.34173392426692,5.044445732756515,-34.37935067695571,42.437015321605884c8.933552257027202,12.572763277364288,6.221122338242282,39.78100572536414,15.518461509327722,60.13203034036917c48.96016277068071,16.805882894045453,26.189765257070917,-5.164782290638527,117.68337068088056,-36.8653436809243c19.43587708014553,16.946204168219197,72.93842320258292,-59.97725372716263,-6.38734145813919,-22.778436735547643c16.047161302304858,-15.765144270792462,34.69266230783737,-39.09196881979551,-87.11862424581733,38.45721232495737c2.761489957615936,-29.476290767156456,-0.806216871763354,-15.432690840527357,-9.924364781943893,-40.283990018280065Z" style="stroke: black; stroke-width:3.84px;fill:#FFA07A;" id="e3_area3" transform="matrix(0.966911 0.255116 -0.255116 0.966911 105.093 -30.7103)"/></g><path d="M154.04914539258237,499.7943240180018c6.074478901100008,-14.744875361800041,15.929988151700002,-19.076902716800078,25,-26c9.070011848400043,-6.923097283200036,47.64060934310004,-8.10501067140001,56,1c8.359390657000006,9.10501067140001,19.931220711801757,28.195396594482304,11.288221517176993,56.26975987797027c-43.80715310231611,-18.65349562412416,-98.36270041817696,-16.524884516170573,-92.28822151717699,-31.269759877970273Z" style="stroke:black;fill:url(#lgrd4-a);stroke-width:0px;" id="e4_area3" transform="matrix(0.871533 -0.260346 0.260346 0.871533 -90.3259 113.025)"/><polygon style="stroke:black;fill:aqua;stroke-width:1px;" id="e1_polygon" points="374.134 164.828 401.932 235.316 405.903 295.876 394.982 344.523 379.097 362.393 384.061 362.393 386.047 292.898 370.162 231.345 372.148 278.999 357.256 316.725 330.451 341.545 325.983 314.243 322.757 304.563 307.616 296.869 281.804 296.869 280.811 288.927 270.883 296.869 252.02 301.833 292.725 279.991 326.479 256.164 343.357 229.359 355.27 201.561 359.242 179.719 334.422 126.109" /><path d="M147.77684021,196.5970001221c9.993889661600008,9.445622208299994,45.58035415740002,7.820006487799986,57.581954956000004,-1.985595703200005c12.001600798699997,-9.80560219100002,8.848129469700012,-60.520051380599995,-4.963958740199985,-66.5170745849c-13.812088209899997,-5.997023204300007,-42.97231250280001,5.792042168799981,-51.62519836430002,15.884674072299987c-8.652885861499982,10.092631903400019,-10.986687513199996,43.1723740075,-0.9927978515000007,52.61799621580002Z" style="stroke:black;fill:white;stroke-width:3.49px;" id="e5_area3"/><path d="M319.657682246411,226.91055053705037c9.993889661599951,9.445622208299994,45.580354157399995,7.820006487800015,57.581954956000004,-1.9855957031999765c12.001600798699997,-9.805602191000048,8.848129469699984,-60.52005138060002,-4.963958740200042,-66.5170745849c-13.812088209900026,-5.997023204300035,-42.986681429362875,1.8404589531746751,-51.62519836429999,15.884674072299958c-8.652885861499954,10.092631903400047,-10.986687513199968,43.172374007500025,-0.9927978514999722,52.61799621580002Z" style="stroke:black;fill:white;stroke-width:3.49px;" id="e13_area3" transform="matrix(-1.02579 -0.252411 -0.247509 1.00587 700.984 67.784)"/><ellipse id="e6_ellipse" cx="176.568" cy="164.828" style="fill:url(#lrgd2-e1-50-reflect);stroke:black;stroke-width:1px;" rx="22.8342" ry="35.7405" transform="matrix(0.909091 0 0 1 19.03 0)"/><ellipse id="e1_ellipse" cx="290.739" cy="172.77" style="fill:url(#lrgd2-e1-50-reflect);stroke:black;stroke-width:1px;" rx="22.8342" ry="35.7405" transform="matrix(0.967987 0.074206 -0.0816744 1.06541 22.4626 -31.0465)"/><polygon style="stroke:black;fill:navy;stroke-width:1px;" id="e7_polygon" points="208.337 130.08 177.561 121.145 127.921 136.037 158.698 135.044 111.044 145.965 143.806 146.957 126.928 153.907 144.798 195.604 146.784 157.878 146.784 159.864 144.798 143.979 175.575 127.102 187.489 125.116" transform="matrix(-0.850413 -0.129976 -0.192828 0.985373 481.901 34.9859)"/><polygon style="stroke:black;fill:navy;stroke-width:1px;" id="e13_polygon" points="206.351 130.08 175.575 121.145 125.935 136.037 156.712 135.044 109.058 145.965 141.82 146.957 124.942 153.907 146.784 195.604 141.82 170.784 144.798 157.878 144.798 159.864 148.769 142.986 173.589 127.102 185.503 125.116" /><ellipse id="e8_ellipse" cx="178.5534184917773" cy="163.8348509339919" style="fill:navy;stroke:black;stroke-width:1px;" rx="19.8558" ry="17.8703" transform="matrix(0.61021 0 0 1.07876 70.4218 -10.6424)"/><ellipse id="e2_ellipse" cx="356.059" cy="172.843" style="fill:navy;stroke:black;stroke-width:1px;" rx="19.8558" ry="17.8703" transform="matrix(0.605823 0.0730398 -0.129123 1.071 94.3019 -35.3083)"/><circle id="e9_circle" cx="165.64714050295066" cy="150.9285888672351" style="fill:white;stroke:black;stroke-width:1px;" r="13.503434543"/><circle id="e1_circle" cx="279.81826782229535" cy="157.8781127929353" style="fill:white;stroke:black;stroke-width:1px;" r="13.503434543"/><circle id="e2_circle" cx="289.746" cy="167.806" style="fill:white;stroke:black;stroke-width:1px;" r="13.5034" transform="matrix(0.48 0 0 0.48 137.762 100.165)"/><circle id="e3_circle" cx="157.44740295407252" cy="188.91212463386537" style="fill:white;stroke:black;stroke-width:1px;" r="13.5034" transform="matrix(0.54 0 0 0.54 88.0715 71.2539)"/><circle id="e16_circle" cx="301.66" cy="169.792" style="fill:white;stroke:black;stroke-width:1px;" r="9.92792" transform="matrix(0.72 0 0 0.72 77.5152 40.5921)"/><circle id="e4_circle" cx="183.288" cy="182.24" style="fill:white;stroke:black;stroke-width:1px;" r="9.92792" transform="matrix(0.1885 0 0 0.1885 153.931 131.468)"/><circle id="e14_circle" cx="740.963475292753" cy="281.70355873899734" style="fill:white;stroke:black;stroke-width:1px;" r="9.92792" transform="matrix(0.1885 0 0 0.1885 153.931 131.468)"/><path d="M174.5822296143,223.4023895264c6.604469916900001,-6.854306932499981,1.8690303186000108,12.247030732500008,0.9927978515000007,-0.9927978515999882c31.88591186375504,4.630431960056313,68.65268587618101,-9.648168499597546,105.23597717290002,0.9927978515999882c-2.1356065489000002,21.56168112810002,-34.766153494700006,39.316320205800025,-48.64682006840002,47.654037475600035c-30.758134865281733,-2.582997507279117,-64.1864248729,-40.799730543100026,-57.581954956000004,-47.654037475600035Z" style="stroke:black;fill:black;stroke-width:3.49px;" id="e18_area3"/><path d="M191.4597111977,249.21498667819998c5.136869767999997,-8.687254773699976,28.396377974800004,-9.911072740199984,36.733306884800015,-12.906295776399986c8.336928909999983,-2.9952230362000023,36.74297122660002,5.3036561266000035,34.74774169919996,13.89907836910001c-20.85828232401707,18.523344767069005,-22.57077721289997,14.943470445099962,-30.776565551799962,19.85586547860001c-8.205788338800005,4.912395033400003,-37.899014780566546,-14.146977802556421,-40.70448303220002,-20.848648071300033Z" style="stroke: black; stroke-width: 3.49px;fill:url(#rgrd3-b);" id="e20_area3"/><path d="M363.2127573563553,97.31777099150298c15.176940770281703,1.52943044545745,61.530745036481676,24.727131689283226,116.15670831875559,0.9927927441093516c-6.9271563694680935,28.88365043458184,-24.433829290374547,21.03971198508441,-31.76935989781083,32.76213639988765c-1.3787770927004317,4.772878647510709,42.96712321442152,30.97275182419918,50.63241577150001,108.2143554687c10.64366931449996,10.724522730500013,-0.3232029938952792,13.791522160742517,0.9927673339000194,0.9927978516000167c0.3231780752999498,14.006666507000006,-27.877956126793947,79.27169744425768,-83.39454189298772,88.35851743069438c-31.68957170768539,-11.761817315082794,-87.2912873147331,-45.33662315766844,-78.43059238431232,-101.2648284658944c9.853487182868548,-75.78405035710145,62.95395617209999,-93.44580713590003,52.618011474599996,-104.2431793213c-10.335944697499997,-10.79737218539998,2.3492276925999818,1.4729450276000193,-1.985595703099932,-1.9855804442999556c-4.334823395700084,-3.458525471900032,-22.126493246748566,2.4417409596017023,-24.819813020544814,-23.827011663497046Z" style="stroke:black;fill:url(#lgrd2-peachpuff-sienna-v);stroke-width:3.49px;" id="e29_area3"/><ellipse id="e31_ellipse" cx="406.1517944335766" cy="15.543871879587783" style="fill:yellow;stroke:black;stroke-width:1px;" rx="37.7261" ry="20.8486" transform="matrix(0.910434 0.413654 -0.413654 0.910434 38.5868 -136.465)"/><ellipse id="e3_ellipse" cx="334.98269653322853" cy="23.950042724547416" style="fill:url(#lgrd2-fire);stroke:black;stroke-width:1px;" rx="37.7261" ry="20.8486" transform="matrix(0.9004 0.435063 -0.435063 0.9004 113.711 -125.582)"/><g id="e32_group" transform="matrix(0.724064 -0.286284 0.315827 0.939511 144.203 134.333)"><ellipse id="e4_ellipse" cx="406.1517944335766" cy="15.543871879587783" style="fill:yellow;stroke:black;stroke-width:1px;" rx="37.7261" ry="20.8486" transform="matrix(0.910434 0.413654 -0.413654 0.910434 38.5868 -136.465)"/><ellipse id="e5_ellipse" cx="335.415" cy="24.8439" style="fill:url(#lgrd2-fire);stroke:black;stroke-width:1px;" rx="37.7261" ry="20.8486" transform="matrix(0.9004 0.435063 -0.435063 0.9004 113.711 -125.582)"/></g><g id="e14_group" transform="matrix(0.724064 -0.286284 0.315827 0.939511 89.5994 152.203)"><ellipse id="e14_ellipse" cx="406.1517944335766" cy="15.543871879587783" style="fill:yellow;stroke:black;stroke-width:1px;" rx="37.7261" ry="20.8486" transform="matrix(0.910434 0.413654 -0.413654 0.910434 38.5868 -136.465)"/><ellipse id="e15_ellipse" cx="335.415" cy="24.8439" style="fill:url(#lgrd2-fire);stroke:black;stroke-width:1px;" rx="37.7261" ry="20.8486" transform="matrix(0.9004 0.435063 -0.435063 0.9004 113.711 -125.582)"/></g><g id="e15_group" transform="matrix(0.724064 -0.286284 0.315827 0.939511 89.5994 152.203)"><ellipse id="e16_ellipse" cx="406.1517944335766" cy="15.543871879587783" style="fill:yellow;stroke:black;stroke-width:1px;" rx="37.7261" ry="20.8486" transform="matrix(0.910434 0.413654 -0.413654 0.910434 38.5868 -136.465)"/><ellipse id="e17_ellipse" cx="335.415" cy="24.8439" style="fill:url(#lgrd2-fire);stroke:black;stroke-width:1px;" rx="37.7261" ry="20.8486" transform="matrix(0.9004 0.435063 -0.435063 0.9004 113.711 -125.582)"/></g><text style="fill:black;font-family:Arial;font-size:20px;" x="371.155" y="177.734" id="e33_texte" transform="matrix(1.50419 0 0 1.50419 -181.567 -75.7035)"><tspan x="365.875" dx="" y="">THANK</tspan><tspan x="371.155" dy="1.25em" y="">YOU!!!</tspan></text></svg>