<svg class="hair" width="640" height="480" xmlns="http://www.w3.org/2000/svg" xmlns:xlink="http://www.w3.org/1999/xlink">
 <!-- Created with SVG-edit - http://svg-edit.googlecode.com/ -->
 <defs>
  <svg id="svg_6" preserveAspectRatio="xMidYMid meet" viewBox="0 0  1170 480" height="480px" width="1170px" xmlns:xlink="http://www.w3.org/1999/xlink">
   <defs>
    <path stroke-width=" 1px" fill="white" stroke="black" id="svgEditorClosePathDefs"/>
   </defs>
   <rect fill=" none" height="480" width="1170" y="0" x="0" id="svgEditorBackground"/>
   <path stroke-width=" 1px" fill="white" id="e46_area3" stroke="black" d="m356.45227,26.88797c-19.78842,13.32486 -52.23492,71.12961 -69.70953,93.60996c-17.47461,22.48034 -17.63934,61.44448 19.91702,85.64315c-39.12411,-54.47353 15.08804,-93.36437 26.88797,-101.57676c11.79993,-8.2124 37.91104,132.05341 34.85477,116.51453c-3.05627,-15.53891 -12.56351,3.16718 -0.99585,-4.97928c11.56766,-8.14644 31.58591,-96.43844 23.90042,-108.54771c-7.68549,-12.10928 -4.31985,7.54101 -1.99173,-2.98755c2.32813,-10.52856 30.69412,88.19328 22.90457,80.66389c-7.78955,-7.52937 -15.81467,56.63635 -1.9917,-1.99168c-10.07745,-4.85213 -4.28558,-74.93021 -5.9751,-86.63901c-1.68951,-11.70881 37.38464,109.74583 39.83401,89.62654c2.44937,-20.11929 -5.46329,-55.83124 -11.9502,-64.73028c-6.48691,-8.89904 -18.44843,-30.23286 -11.9502,-30.87137c6.49823,-0.63851 19.88507,9.46818 33.85892,22.90456c13.97385,13.43639 92.315,51.96841 93.60992,66.72199c1.29492,14.7536 135.52838,40.54813 116.51453,23.90042c-19.01385,-16.64769 -50.54626,5.57291 -76.68048,-11.95021c-8.20886,-8.56047 -7.38031,-1.17461 -14.93774,-8.96265c-10.54498,-7.78807 -97.89651,-84.67984 -78.67221,-87.63486c19.22427,-2.95502 81.45114,37.24364 108.5477,55.76762c21.12146,12.5489 63.59967,62.07669 99.58508,74.68881c-37.70758,-49.13063 -91.69263,-85.31709 -106.55603,-94.60582c-14.8634,-9.28872 -34.56134,-21.66862 -38.83813,-25.89211c-4.27679,-4.2235 -5.80731,-0.09489 -0.99585,-0.99585c4.81146,-0.90096 46.28259,0.16418 39.83398,2.98755c-6.44861,2.82336 65.94733,78.4614 59.75104,67.71784c-6.19629,-10.74356 -28.94159,-61.51311 -31.86719,-63.73444c-2.9256,-2.22133 53.52863,70.79984 51.78424,57.75934c-1.74438,-13.04051 -23.90424,-56.94775 -35.85065,-62.73859c-11.94641,-5.79086 53.8064,93.36167 57.75934,73.69294c3.953,-19.66872 -17.05109,-52.43378 -26.888,-72.69709c-9.83691,-20.26331 -46.10101,-66.35363 -68.71368,-76.68049c-22.61267,-10.32687 -72.98334,-18.45296 -94.6058,-19.91702c-21.62247,-1.46406 -57.81943,1.90215 -76.68048,1.9917c-18.86105,0.08956 -53.90454,0.61704 -73.69296,13.94191z"/>
  </svg>
 </defs>
 <g>
  <title>Layer 1</title>
  <use x="-175" y="33" id="svg_7" xlink:href="#svg_6"/>
 </g>
</svg>