<?xml version="1.0" encoding="UTF-8" standalone="no"?>
<!-- Created with Inkscape (http://www.inkscape.org/) -->

<svg
   xmlns:dc="http://purl.org/dc/elements/1.1/"
   xmlns:cc="http://creativecommons.org/ns#"
   xmlns:rdf="http://www.w3.org/1999/02/22-rdf-syntax-ns#"
   xmlns:svg="http://www.w3.org/2000/svg"
   xmlns="http://www.w3.org/2000/svg"
   xmlns:xlink="http://www.w3.org/1999/xlink"
   xmlns:sodipodi="http://sodipodi.sourceforge.net/DTD/sodipodi-0.dtd"
   xmlns:inkscape="http://www.inkscape.org/namespaces/inkscape"
   id="svg2"
   version="1.1"
   inkscape:version="0.48.2 r9819"
   width="600"
   height="500"
   sodipodi:docname="animal-71504_1280.jpg">
  <metadata
     id="metadata8">
    <rdf:RDF>
      <cc:Work
         rdf:about="">
        <dc:format>image/svg+xml</dc:format>
        <dc:type
           rdf:resource="http://purl.org/dc/dcmitype/StillImage" />
        <dc:title></dc:title>
      </cc:Work>
    </rdf:RDF>
  </metadata>
  <defs
     id="defs6">
    <linearGradient
       inkscape:collect="always"
       id="linearGradient3966">
      <stop
         style="stop-color:#282219;stop-opacity:1"
         offset="0"
         id="stop3968" />
      <stop
         style="stop-color:#624019;stop-opacity:1"
         offset="1"
         id="stop3970" />
    </linearGradient>
    <linearGradient
       inkscape:collect="always"
       xlink:href="#linearGradient3966"
       id="linearGradient3972"
       x1="801.13672"
       y1="1217.2107"
       x2="831.58069"
       y2="231.88277"
       gradientUnits="userSpaceOnUse" />
  </defs>
  <sodipodi:namedview
     pagecolor="#ffffff"
     bordercolor="#666666"
     borderopacity="1"
     objecttolerance="10"
     gridtolerance="10"
     guidetolerance="10"
     inkscape:pageopacity="0"
     inkscape:pageshadow="2"
     inkscape:window-width="1601"
     inkscape:window-height="822"
     id="namedview4"
     showgrid="false"
     borderlayer="true"
     inkscape:showpageshadow="false"
     inkscape:zoom="0.1479936"
     inkscape:cx="318.50607"
     inkscape:cy="187.70808"
     inkscape:window-x="284"
     inkscape:window-y="16"
     inkscape:window-maximized="0"
     inkscape:current-layer="svg2" />
  <rect
     style="fill:#e2cfab;fill-opacity:1;fill-rule:evenodd;stroke:#000000;stroke-width:0;stroke-linecap:round;stroke-linejoin:round;stroke-miterlimit:4;stroke-opacity:1;stroke-dasharray:none"
     id="rect3946"
     width="623.2475"
     height="524.44952"
     x="-12.496194"
     y="-8.8292646" />
  <g
     id="g3920"
     transform="matrix(0.42118567,0,0,0.42118567,35.064726,257.28164)">
    <g
       transform="translate(0,-453)"
       id="g3895">
      <g
         id="g3871"
         transform="matrix(0.79580661,0,0,0.7935563,51.815543,153.07989)">
        <path
           sodipodi:nodetypes="cccccccccc"
           inkscape:connector-curvature="0"
           id="path3001"
           d="M 397.53263,225.63519 C 380.0254,106.63082 425.41795,4.8804946 462.27369,-105.68673 542.27214,-77.334055 496.38034,168.86275 532.7272,178.03146 609.68091,35.147618 734.40293,-56.241142 856.43253,-159.0029 921.58642,94.868669 726.9959,211.54598 729.3727,415.70295 1126.5256,155.04297 1635.7632,1050.7977 882.29339,838.43687 609.79056,831.50566 502.54132,815.71564 230.20025,825.44211 l 68.31663,-60.93277 C 197.1293,647.10593 220.33501,508.03444 342.31231,417.95423 c 5.61634,-67.33284 9.03117,-130.88658 55.22032,-192.31904 z"
           style="fill:url(#linearGradient3972);fill-opacity:1;stroke:#000000;stroke-width:0;stroke-linecap:butt;stroke-linejoin:miter;stroke-miterlimit:4;stroke-opacity:1;stroke-dasharray:none" />
        <path
           transform="matrix(1.124983,0,0,1.0992457,-49.555546,-65.206245)"
           sodipodi:nodetypes="csscsc"
           inkscape:connector-curvature="0"
           id="path3021"
           d="m 330.42582,463.8795 c -42.71008,72.22734 27.36656,210.22477 69.70862,193.67906 80.5181,-31.46349 73.24873,-0.91687 113.93696,2.09209 100.13185,7.40491 81.9403,-49.95455 160.66406,-156.81 C 664.36084,657.02746 562.22279,693.05341 454.62581,689.94229 341.07142,686.65891 262.32123,567.99481 330.42582,463.8795 z"
           style="fill:#d4c3a1;fill-opacity:1;stroke:#000000;stroke-width:0;stroke-linecap:butt;stroke-linejoin:miter;stroke-miterlimit:4;stroke-opacity:1;stroke-dasharray:none" />
        <path
           sodipodi:nodetypes="ccssccssc"
           inkscape:connector-curvature="0"
           id="path3003"
           d="m 432.9952,566.06506 c 17.08709,16.30807 48.61153,17.26281 71.83622,-5.04664 -32.03644,35.21962 -35.88783,13.9836 -36.35833,30.71496 -1.75182,62.2956 -5.39087,51.43785 0.63171,61.44858 2.75236,4.57498 23.76047,3.55024 28.28013,8.79017 -11.11822,-1.2028 -45.82302,0.82313 -68.71893,-0.36817 7.28685,-4.98824 19.07526,-2.65158 27.20944,-7.86706 4.75051,-3.04594 2.5342,2.9417 4.73338,-62.44994 0.37495,-11.14912 -12.53215,-3.56894 -27.61362,-25.2219 z"
           style="fill:#485751;fill-opacity:1;stroke:#000000;stroke-width:0;stroke-linecap:butt;stroke-linejoin:miter;stroke-miterlimit:4;stroke-opacity:1;stroke-dasharray:none" />
        <path
           sodipodi:nodetypes="ccc"
           inkscape:connector-curvature="0"
           id="path3005"
           d="m 510.13228,491.46319 c 95.01335,-20.47642 181.75622,85.02154 54.044,140.9937 68.10482,-35.04464 25.30662,-100.0623 -54.044,-140.9937 z"
           style="fill:#ac9a84;fill-opacity:1;stroke:#000000;stroke-width:0;stroke-linecap:butt;stroke-linejoin:miter;stroke-miterlimit:4;stroke-opacity:1;stroke-dasharray:none" />
        <path
           sodipodi:nodetypes="ccc"
           inkscape:connector-curvature="0"
           id="path3007"
           d="m 432.38506,499.93995 c -58.70008,-29.52618 -104.07311,46.4912 -42.91138,88.69787 -33.49767,-58.88279 23.71919,-98.32461 42.91138,-88.69787 z"
           style="fill:#ac9a84;fill-opacity:1;stroke:#000000;stroke-width:0;stroke-linecap:butt;stroke-linejoin:miter;stroke-miterlimit:4;stroke-opacity:1;stroke-dasharray:none" />
        <path
           sodipodi:nodetypes="ccc"
           inkscape:connector-curvature="0"
           id="path3011"
           d="m 759.32081,481.89372 c -88.80986,26.07579 -169.70207,27.33018 -207.3048,64.35823 25.36661,-38.10912 145.31221,-50.634 207.3048,-64.35823 z"
           style="fill:#ffffff;fill-opacity:1;stroke:#000000;stroke-width:0;stroke-linecap:butt;stroke-linejoin:miter;stroke-miterlimit:4;stroke-opacity:1;stroke-dasharray:none" />
        <path
           sodipodi:nodetypes="ccc"
           inkscape:connector-curvature="0"
           id="path3017"
           d="M 842.70124,-117.07003 C 856.83208,20.29531 786.11722,225.657 660.73969,257.00137 659.78084,88.545356 730.53296,-17.364881 842.70124,-117.07003 z"
           style="fill:#ac9a84;fill-opacity:1;stroke:#000000;stroke-width:0;stroke-linecap:butt;stroke-linejoin:miter;stroke-miterlimit:4;stroke-opacity:1;stroke-dasharray:none" />
        <path
           sodipodi:nodetypes="ccc"
           inkscape:connector-curvature="0"
           id="path3019"
           d="M 443.40522,-34.385713 C 480.00401,-45.177912 395.38382,202.41721 400.28966,165.96831 404.88145,77.856044 434.42342,37.682555 443.40522,-34.385713 z"
           style="fill:#a89482;fill-opacity:1;stroke:#000000;stroke-width:0;stroke-linecap:butt;stroke-linejoin:miter;stroke-miterlimit:4;stroke-opacity:1;stroke-dasharray:none" />
        <path
           sodipodi:nodetypes="acsca"
           inkscape:connector-curvature="0"
           id="path3845"
           d="m 599.08725,359.55518 c 20.84684,-4.72098 33.05937,55.09074 33.05937,55.09074 -3.0795,9.61628 -43.03001,15.86297 -35.51119,30.52694 18.71602,36.50191 9.64953,23.78079 -6.92226,10.44811 -36.15484,-37.90004 -21.92178,-88.97852 9.37408,-96.06579 z"
           style="fill:#dfd0a5;fill-opacity:1;stroke:#000000;stroke-width:0;stroke-linecap:butt;stroke-linejoin:miter;stroke-miterlimit:4;stroke-opacity:1;stroke-dasharray:none" />
        <path
           sodipodi:nodetypes="cccc"
           inkscape:connector-curvature="0"
           id="path3023"
           d="m 599.80692,365.53787 c -25.3626,23.87066 -19.75789,41.50495 -17.13734,74.26181 38.97853,-19.43425 46.40167,-17.31046 24.75394,-62.83692 z"
           style="fill:#02131f;fill-opacity:1;stroke:#000000;stroke-width:0;stroke-linecap:butt;stroke-linejoin:miter;stroke-miterlimit:4;stroke-opacity:1;stroke-dasharray:none" />
        <path
           sodipodi:nodetypes="ccc"
           inkscape:connector-curvature="0"
           id="path3025"
           d="m 348.19459,372.54358 c 22.05108,20.87365 16.34728,67.71185 0.12167,51.62652 -6.44172,-10.62384 -13.53384,-29.77063 -0.12167,-51.62652 z"
           style="fill:#011420;fill-opacity:1;stroke:#000000;stroke-width:0;stroke-linecap:butt;stroke-linejoin:miter;stroke-miterlimit:4;stroke-opacity:1;stroke-dasharray:none" />
        <path
           style="fill:#ffffff;fill-opacity:1;stroke:#000000;stroke-width:0;stroke-linecap:butt;stroke-linejoin:miter;stroke-miterlimit:4;stroke-opacity:1;stroke-dasharray:none"
           d="m 786.80139,570.94416 c -97.4326,-2.07616 -180.69177,-30.19129 -228.28385,-0.77724 35.30788,-35.14824 161.36439,-5.89153 228.28385,0.77724 z"
           id="path3027"
           inkscape:connector-curvature="0"
           sodipodi:nodetypes="ccc" />
        <path
           style="fill:#ffffff;fill-opacity:1;stroke:#000000;stroke-width:0;stroke-linecap:butt;stroke-linejoin:miter;stroke-miterlimit:4;stroke-opacity:1;stroke-dasharray:none"
           d="m 194.71532,474.95185 c 88.80986,25.62112 169.70207,26.85364 207.3048,63.23606 -25.36661,-37.44464 -145.31221,-49.75113 -207.3048,-63.23606 z"
           id="path3029"
           inkscape:connector-curvature="0"
           sodipodi:nodetypes="ccc" />
        <path
           sodipodi:nodetypes="ccc"
           inkscape:connector-curvature="0"
           id="path3031"
           d="M 773.26315,666.83389 C 681.96991,632.73162 612.64671,578.7238 558.01543,590.7909 c 44.92644,-21.53276 154.27451,47.67128 215.24772,76.04299 z"
           style="fill:#ffffff;fill-opacity:1;stroke:#000000;stroke-width:0;stroke-linecap:butt;stroke-linejoin:miter;stroke-miterlimit:4;stroke-opacity:1;stroke-dasharray:none" />
        <path
           sodipodi:nodetypes="ccc"
           inkscape:connector-curvature="0"
           id="path3033"
           d="m 180.88014,543.16261 c 92.29245,7.01725 171.6737,-8.59496 216.1607,19.79427 -32.74398,-31.99377 -152.66923,-19.27552 -216.1607,-19.79427 z"
           style="fill:#ffffff;fill-opacity:1;stroke:#000000;stroke-width:0;stroke-linecap:butt;stroke-linejoin:miter;stroke-miterlimit:4;stroke-opacity:1;stroke-dasharray:none" />
        <path
           style="fill:#ffffff;fill-opacity:1;stroke:#000000;stroke-width:0;stroke-linecap:butt;stroke-linejoin:miter;stroke-miterlimit:4;stroke-opacity:1;stroke-dasharray:none"
           d="m 193.36861,636.64508 c 89.4613,-23.74476 151.70512,-66.50449 203.05656,-54.33602 -41.44863,-19.4366 -142.93063,33.9324 -203.05656,54.33602 z"
           id="path3035"
           inkscape:connector-curvature="0"
           sodipodi:nodetypes="ccc" />
        <path
           sodipodi:nodetypes="ccc"
           inkscape:connector-curvature="0"
           id="path3843"
           d="m 347.97697,362.04529 c 12.29908,32.95171 6.44109,43.61523 10.2429,73.8088 10.18163,-30.78827 23.97784,-38.39357 -10.2429,-73.8088 z"
           style="fill:#e6ddc2;fill-opacity:1;stroke:#000000;stroke-width:0;stroke-linecap:butt;stroke-linejoin:miter;stroke-miterlimit:4;stroke-opacity:1;stroke-dasharray:none" />
        <path
           sodipodi:nodetypes="ccc"
           inkscape:connector-curvature="0"
           id="path3851"
           d="m 391.73559,677.74987 c 63.94839,25.88082 136.48605,23.49757 203.23125,-4.41807 -41.08825,36.58332 -115.95612,78.29054 -203.23125,4.41807 z"
           style="fill:#000000;fill-opacity:1;stroke:#000000;stroke-width:0;stroke-linecap:butt;stroke-linejoin:miter;stroke-miterlimit:4;stroke-opacity:1;stroke-dasharray:none" />
        <path
           sodipodi:nodetypes="ccc"
           inkscape:connector-curvature="0"
           id="path3853"
           d="m 345.76658,815.40318 c 41.11094,-60.80971 82.29618,-53.93228 69.23076,1.92308 z"
           style="fill:#000000;fill-opacity:1;stroke:#000000;stroke-width:1px;stroke-linecap:butt;stroke-linejoin:miter;stroke-opacity:1" />
        <path
           sodipodi:nodetypes="ccc"
           inkscape:connector-curvature="0"
           id="path3855"
           d="m 543.32498,821.68359 c 61.76948,-93.2135 134.35314,-62.3471 190.38461,7.6923 z"
           style="fill:#000000;fill-opacity:1;stroke:#000000;stroke-width:1px;stroke-linecap:butt;stroke-linejoin:miter;stroke-opacity:1" />
        <path
           sodipodi:nodetypes="cccc"
           inkscape:connector-curvature="0"
           id="path3861"
           d="m 431.94533,507.67232 c -14.63869,46.11389 -4.92224,47.69407 32.85861,72.28275 44.7272,-19.37677 42.76166,-27.56652 40.64107,-73.02182 z"
           style="fill:#957135;fill-opacity:1;stroke:#000000;stroke-width:0;stroke-linecap:butt;stroke-linejoin:miter;stroke-miterlimit:4;stroke-opacity:1;stroke-dasharray:none" />
        <path
           transform="matrix(1,0,0,0.92826856,180.53378,40.964537)"
           d="m 425.25445,374.67838 c 0,3.5645 -2.56854,6.45411 -5.73699,6.45411 -3.16846,0 -5.73699,-2.88961 -5.73699,-6.45411 0,-3.56451 2.56853,-6.45412 5.73699,-6.45412 3.16845,0 5.73699,2.88961 5.73699,6.45412 z"
           sodipodi:ry="6.4541149"
           sodipodi:rx="5.7369909"
           sodipodi:cy="374.67838"
           sodipodi:cx="419.51746"
           id="path3869"
           style="fill:#ffe8e8;fill-opacity:1;fill-rule:evenodd;stroke:#000000;stroke-width:0;stroke-linecap:round;stroke-linejoin:round;stroke-miterlimit:4;stroke-opacity:1;stroke-dasharray:none"
           sodipodi:type="arc" />
      </g>
    </g>
  </g>
</svg>
