<?xml version="1.0" encoding="UTF-8" standalone="no"?>
<!-- Created with Inkscape (http://www.inkscape.org/) -->

<svg
   xmlns:dc="http://purl.org/dc/elements/1.1/"
   xmlns:cc="http://creativecommons.org/ns#"
   xmlns:rdf="http://www.w3.org/1999/02/22-rdf-syntax-ns#"
   xmlns:svg="http://www.w3.org/2000/svg"
   xmlns="http://www.w3.org/2000/svg"
   xmlns:sodipodi="http://sodipodi.sourceforge.net/DTD/sodipodi-0.dtd"
   xmlns:inkscape="http://www.inkscape.org/namespaces/inkscape"
   id="svg2"
   version="1.1"
   inkscape:version="0.91 r13725"
   xml:space="preserve"
   width="1250"
   height="1250"
   viewBox="0 0 1250 1250"
   sodipodi:docname="spiral starburst with hole in center.svg"><metadata
     id="metadata8"><rdf:RDF><cc:Work
         rdf:about=""><dc:format>image/svg+xml</dc:format><dc:type
           rdf:resource="http://purl.org/dc/dcmitype/StillImage" /><dc:title></dc:title></cc:Work></rdf:RDF></metadata><defs
     id="defs6"><clipPath
       clipPathUnits="userSpaceOnUse"
       id="clipPath16"><path
         d="m 0,1000 1000,0 L 1000,0 0,0 0,1000 Z"
         id="path18"
         inkscape:connector-curvature="0" /></clipPath><clipPath
       clipPathUnits="userSpaceOnUse"
       id="clipPath24"><path
         d="m -0.5,999.5 1000,0 0,-1000 -1000,0 0,1000 z"
         id="path26"
         inkscape:connector-curvature="0" /></clipPath></defs><sodipodi:namedview
     pagecolor="#ffffff"
     bordercolor="#666666"
     borderopacity="1"
     objecttolerance="10"
     gridtolerance="10"
     guidetolerance="10"
     inkscape:pageopacity="0"
     inkscape:pageshadow="2"
     inkscape:window-width="640"
     inkscape:window-height="480"
     id="namedview4"
     showgrid="false"
     inkscape:zoom="0.68906667"
     inkscape:cx="591.86339"
     inkscape:cy="582.43034"
     inkscape:current-layer="g10" /><g
     id="g10"
     inkscape:groupmode="layer"
     inkscape:label="spiral starburst with hole in center"
     transform="matrix(1.25,0,0,-1.25,0,1250)"><g
       id="g12"><g
         id="g14"
         clip-path="url(#clipPath16)"><g
           id="g20"><g
             id="g22" /><g
             id="g28"><g
               clip-path="url(#clipPath24)"
               id="g30"><g
                 transform="translate(531.28,586.26)"
                 id="g32"><path
                   d="m 0,0 c -4.89,2.06 -9.84,3.97 -14.85,5.73 -29.09,10.22 -59.95,15.31 -90.8,15.31 -29.7,0 -59.39,-4.72 -87.53,-14.13 -2.35,-0.78 -4.69,-1.59 -7.01,-2.45 l -0.01,0 c -6.97,-2.55 -13.84,-5.39 -20.57,-8.52 -22.28,-10.37 -43.67,-23.92 -67.86,-28.25 -2.81,-0.51 -5.63,-0.87 -8.44,-1.12 -2.81,-0.25 -5.61,-0.36 -8.41,-0.36 -2.82,0 -5.64,0.12 -8.44,0.35 -0.54,0.05 -1.08,0.1 -1.62,0.15 -32.41,3.22 -63.51,21.43 -87.94,43.97 -28.25,26.06 -50.61,57.97 -76.69,86.21 -2.7,2.92 -5.43,5.81 -8.22,8.64 -0.8,0.81 -1.61,1.62 -2.42,2.43 -12.24,12.1 -25.97,23.31 -40.97,32.19 l 0,110.64 c 21.88,-6.78 40.94,-20.18 57.23,-36.64 9.79,-9.88 18.57,-20.87 26.36,-32.19 2.26,-3.27 4.45,-6.59 6.6,-9.93 20.76,-32.35 37.14,-67.61 60.43,-98.18 24.07,-31.58 58.62,-58.73 97.73,-61.97 2.66,-0.23 5.34,-0.34 8.04,-0.33 l 0.06,0 c 3.07,0.01 6.12,0.16 9.16,0.45 21.26,1.97 41.76,10.04 62.54,15.59 2.81,0.75 5.64,1.46 8.47,2.12 0.01,-0.01 0.02,0 0.02,0 2.84,0.65 5.69,1.26 8.54,1.83 17.18,3.37 34.68,5.03 52.19,5.03 31.92,0 63.87,-5.52 93.92,-16.28 0.77,-0.27 1.53,-0.55 2.3,-0.84 l 0.01,0 c 0.76,-0.28 1.53,-0.56 2.29,-0.85 2.3,-0.87 4.59,-1.77 6.86,-2.7 0.75,-0.31 1.51,-0.62 2.26,-0.94 l 0.01,0 c 0.75,-0.32 1.5,-0.63 2.25,-0.96 l 0.01,0 c 0.74,-0.32 1.49,-0.65 2.24,-0.98 C -14.77,9.71 -7.43,6.07 -0.28,2.09 0.09,1.89 0.45,1.68 0.82,1.47 L 0,0 Z"
                   style="fill:#000000;fill-opacity:1;fill-rule:nonzero;stroke:none"
                   id="path34"
                   inkscape:connector-curvature="0" /></g><g
                 transform="translate(499.97,591.77)"
                 id="g36"><path
                   d="m 0,0 c -4.32,0.22 -8.64,0.32 -12.96,0.32 -0.98,0 -1.96,-0.01 -2.95,-0.02 -12.4,-0.13 -24.79,-1.15 -37.05,-3 -5.51,-0.83 -11,-1.83 -16.46,-3 -3.28,-0.7 -6.54,-1.46 -9.78,-2.28 -7.57,-1.91 -15.07,-4.14 -22.46,-6.67 -2.11,-0.73 -4.21,-1.48 -6.3,-2.25 0,-0.01 -0.01,0 -0.01,0 -5.23,-1.94 -10.41,-4.03 -15.51,-6.28 0,-0.01 0,-0.01 -0.01,0 -3.06,-1.35 -6.1,-2.75 -9.11,-4.21 0,0 0,-0.01 -0.01,0 -27.14,-13.12 -52.13,-30.62 -73.46,-51.92 -17.39,-17.37 -32.85,-37.4 -54.11,-49.75 -14.03,-8.15 -29.58,-12.29 -45.61,-13.39 -2.95,-0.21 -5.92,-0.3 -8.89,-0.3 -2.19,0 -4.38,0.05 -6.57,0.15 -20.96,0.99 -42.21,6.55 -61.56,14.64 -30.56,12.78 -58.51,31.2 -87.53,47.33 l -0.01,0 c -1.16,0.65 -2.32,1.29 -3.48,1.92 l -0.01,0 c -6.98,3.83 -14.04,7.51 -21.21,10.92 -1.71,0.82 -3.42,1.61 -5.42,2.39 l 0,94.2 c 6,-3.47 11.65,-7.17 17.06,-11.02 4.32,-3.07 8.56,-6.25 12.75,-9.51 1.05,-0.81 2.09,-1.63 3.14,-2.45 1.04,-0.82 2.08,-1.64 3.11,-2.48 l 0.01,0 c 1.03,-0.82 2.07,-1.65 3.09,-2.5 l 0.01,0 c 25.74,-20.92 49.99,-43.87 77.86,-61.77 23.24,-14.91 50.52,-26.08 77.71,-28.02 2.79,-0.21 5.59,-0.32 8.39,-0.31 2.92,-0.01 5.84,0.11 8.75,0.35 8.78,0.7 17.47,2.5 25.91,5.6 23.07,8.46 41.74,25.51 61.89,39.59 10.71,7.49 21.98,14.16 33.67,19.98 l 0.01,0 c 1.56,0.78 3.12,1.54 4.69,2.29 0.01,-0.01 0.01,-0.01 0.01,0 3.15,1.49 6.32,2.92 9.52,4.29 0.81,0.34 1.61,0.68 2.42,1.01 1.61,0.67 3.22,1.33 4.83,1.97 11.35,4.47 23,8.19 34.84,11.14 0.84,0.21 1.69,0.41 2.54,0.62 5.94,1.42 11.92,2.64 17.93,3.66 6.87,1.18 13.79,2.1 20.73,2.75 1.74,0.17 3.48,0.32 5.21,0.45 6.95,0.52 13.92,0.79 20.89,0.79 14.66,0 29.31,-1.17 43.77,-3.56 L 0,0 Z"
                   style="fill:#000000;fill-opacity:1;fill-rule:nonzero;stroke:none"
                   id="path38"
                   inkscape:connector-curvature="0" /></g><g
                 transform="translate(412.37,570.91)"
                 id="g40"><path
                   d="m 0,0 c 17.99,7.65 36.77,13.4 55.97,17 l 0.32,-1.67 C 51.22,13.77 46.2,12.05 41.24,10.17 37.34,8.71 33.48,7.15 29.66,5.5 23.15,2.69 16.74,-0.38 10.47,-3.7 9.42,-4.25 8.38,-4.81 7.34,-5.38 c -22.84,-12.46 -43.92,-28.19 -62.43,-46.5 -0.85,-0.82 -1.68,-1.66 -2.51,-2.51 -21.61,-21.91 -39.59,-47.39 -52.62,-75.28 -10.41,-22.27 -18.09,-46.37 -33.84,-65.24 -23.1,-27.67 -59.93,-39.31 -96.47,-40.96 -3.08,-0.14 -6.15,-0.21 -9.22,-0.21 -2.48,0 -4.96,0.05 -7.42,0.13 -0.83,0.04 -1.66,0.07 -2.49,0.11 -27.8,1.31 -55.23,7.02 -82.73,11.93 l -0.03,0 c -1.3,0.24 -2.6,0.47 -3.9,0.7 l -0.03,0 c -1.3,0.23 -2.6,0.46 -3.9,0.68 -7.86,1.34 -15.73,2.58 -23.63,3.6 -3.94,0.5 -7.89,0.95 -11.85,1.33 -8.85,0.84 -17.14,1.26 -27.14,1.14 l 0,85.46 c 3,-0.7 5.98,-1.43 8.81,-2.21 2.55,-0.71 5.1,-1.44 7.64,-2.21 5.08,-1.52 10.13,-3.16 15.16,-4.86 32.67,-11.08 64.46,-25.17 98.07,-32.74 11.37,-2.56 23.19,-4.25 35.03,-4.79 2.7,-0.12 5.4,-0.19 8.1,-0.19 2.65,0 5.3,0.06 7.95,0.19 25.71,1.22 50.56,8.57 70.06,25.01 18.79,15.85 30.5,38.25 44.61,58.38 12.91,18.41 28.2,35.1 45.28,49.71 l 0.01,0 c 4.5,3.85 9.11,7.54 13.84,11.1 0.01,-0.01 0.01,0 0.01,0 2.84,2.13 5.72,4.2 8.63,6.23 0.01,-0.01 0.01,-0.01 0.01,0 1.95,1.34 3.91,2.66 5.88,3.96 8.92,5.84 18.17,11.17 27.68,15.96 1.05,0.53 2.12,1.05 3.18,1.57 C -8.66,-3.81 -4.35,-1.85 0,0"
                   style="fill:#000000;fill-opacity:1;fill-rule:nonzero;stroke:none"
                   id="path42"
                   inkscape:connector-curvature="0" /></g><g
                 transform="translate(441.14,570.34)"
                 id="g44"><path
                   d="m 0,0 c -4.23,-3.2 -8.36,-6.54 -12.38,-10 -11.24,-9.64 -21.66,-20.23 -31.16,-31.59 -1.51,-1.81 -3.01,-3.65 -4.48,-5.5 -1.47,-1.85 -2.92,-3.73 -4.34,-5.62 -2.14,-2.83 -4.22,-5.71 -6.24,-8.63 -8.77,-12.64 -16.5,-26 -23.08,-39.92 -0.51,-1.07 -1.01,-2.14 -1.5,-3.21 -0.99,-2.16 -1.94,-4.32 -2.87,-6.5 -2.33,-5.44 -4.48,-10.95 -6.45,-16.53 -0.4,-1.12 -0.78,-2.23 -1.16,-3.35 -1.9,-5.61 -3.62,-11.27 -5.15,-16.98 -3.99,-14.85 -6.71,-30.04 -8.06,-45.37 -2.16,-24.49 -1.12,-49.75 -9.47,-72.87 -14.41,-39.88 -54.23,-65.41 -94.72,-78.02 -40.49,-12.61 -83.49,-15.24 -124.53,-25.89 -37.2,-9.66 -74.81,-27.83 -96.41,-58.99 -0.37,-0.54 -0.74,-1.08 -1.1,-1.62 -0.73,-1.09 -1.43,-2.2 -2.12,-3.32 -1.03,-1.68 -2.01,-3.4 -2.95,-5.15 -1.16,-2.17 -2.47,-4.36 -3.47,-6.58 l 0,135.95 c 19,7.23 39.73,11.14 59.84,12.74 13.39,1.06 26.86,1.3 40.35,1.3 10.89,0 21.8,-0.15 32.69,-0.15 10.2,0 20.38,0.13 30.52,0.66 7.95,0.41 15.87,1.06 23.76,2.07 42.07,5.39 85.69,23.62 106.8,60.4 12.24,21.31 15.58,46.38 21.96,70.11 12.29,45.74 37.09,87.87 70.42,121.49 3.34,3.36 6.75,6.63 10.25,9.82 4.37,3.98 8.88,7.83 13.5,11.52 5.55,4.42 11.27,8.64 17.14,12.62 4.43,2.99 8.94,5.86 13.54,8.58 L 0,0 Z"
                   style="fill:#000000;fill-opacity:1;fill-rule:nonzero;stroke:none"
                   id="path46"
                   inkscape:connector-curvature="0" /></g><g
                 transform="translate(420.72,545.97)"
                 id="g48"><path
                   d="m 0,0 c -2.88,-4.46 -5.62,-9.01 -8.22,-13.64 -3.82,-6.79 -7.34,-13.74 -10.55,-20.83 -0.33,-0.75 -0.66,-1.49 -1,-2.24 l 0,-0.01 c -0.33,-0.74 -0.65,-1.49 -0.98,-2.24 l 0,-0.01 c -0.32,-0.74 -0.64,-1.49 -0.96,-2.25 l 0,-0.01 c -0.32,-0.75 -0.63,-1.51 -0.94,-2.26 -0.62,-1.51 -1.23,-3.03 -1.82,-4.56 -0.29,-0.76 -0.58,-1.52 -0.88,-2.29 l 0,-0.01 c -0.28,-0.76 -0.57,-1.52 -0.85,-2.29 -0.01,-0.01 0,-0.01 0,-0.01 -0.29,-0.76 -0.57,-1.53 -0.84,-2.3 -0.83,-2.31 -1.63,-4.63 -2.39,-6.97 -0.25,-0.78 -0.51,-1.55 -0.76,-2.33 l 0,-0.01 c -0.24,-0.78 -0.49,-1.56 -0.73,-2.34 -0.24,-0.78 -0.48,-1.56 -0.71,-2.35 -0.24,-0.78 -0.47,-1.57 -0.69,-2.35 -0.01,-0.01 0,-0.01 0,-0.01 -0.23,-0.78 -0.45,-1.57 -0.68,-2.35 l 0,-0.01 c -0.22,-0.79 -0.43,-1.57 -0.65,-2.36 l 0,-0.01 c -0.21,-0.79 -0.42,-1.58 -0.63,-2.37 -0.2,-0.79 -0.41,-1.58 -0.61,-2.38 -0.19,-0.79 -0.39,-1.59 -0.58,-2.38 l 0,-0.01 c -0.2,-0.79 -0.38,-1.58 -0.57,-2.38 l 0,-0.01 c -0.19,-0.79 -0.37,-1.59 -0.55,-2.38 l 0,-0.01 c -0.17,-0.8 -0.35,-1.6 -0.52,-2.39 l 0,-0.01 c -0.17,-0.8 -0.34,-1.6 -0.51,-2.4 l 0,-0.01 c -0.16,-0.8 -0.32,-1.6 -0.48,-2.4 l 0,-0.01 c -0.16,-0.8 -0.31,-1.6 -0.46,-2.4 l 0,-0.01 c -0.15,-0.8 -0.3,-1.6 -0.44,-2.4 l 0,-0.02 c -0.14,-0.79 -0.28,-1.6 -0.42,-2.4 l 0,-0.02 c -0.14,-0.8 -0.27,-1.6 -0.4,-2.41 l 0,-0.01 c -0.13,-0.81 -0.25,-1.61 -0.38,-2.42 l 0,-0.01 c -0.12,-0.8 -0.23,-1.61 -0.35,-2.42 l 0,-0.01 c -0.12,-0.81 -0.23,-1.61 -0.33,-2.42 -0.01,0 0,-0.01 0,-0.01 -0.11,-0.81 -0.22,-1.62 -0.32,-2.43 l 0,-0.01 c -0.1,-0.81 -0.19,-1.61 -0.29,-2.42 l 0,-0.02 c -0.09,-0.81 -0.18,-1.62 -0.27,-2.43 l 0,-0.01 c -0.09,-0.81 -0.17,-1.62 -0.25,-2.43 l 0,-0.01 c -0.08,-0.81 -0.15,-1.62 -0.23,-2.43 l 0,-0.02 c -0.07,-0.81 -0.13,-1.62 -0.2,-2.43 l 0,-0.02 c -0.07,-0.81 -0.13,-1.62 -0.19,-2.43 l 0,-0.02 c -0.05,-0.81 -0.11,-1.62 -0.16,-2.43 l 0,-0.02 c -0.05,-0.81 -0.09,-1.62 -0.14,-2.43 l 0,-0.02 c -0.04,-0.81 -0.08,-1.63 -0.12,-2.44 l 0,-0.01 c -0.03,-0.82 -0.07,-1.63 -0.1,-2.44 l 0,-0.02 c -0.02,-0.81 -0.05,-1.62 -0.07,-2.43 l 0,-0.02 c -0.02,-0.81 -0.04,-1.63 -0.06,-2.44 l 0,-0.02 c -0.01,-0.81 -0.02,-1.62 -0.03,-2.43 l 0,-0.02 c -0.01,-0.82 -0.01,-1.64 -0.01,-2.46 0,-17.51 1.66,-35 5.03,-52.18 0.56,-2.86 1.17,-5.71 1.83,-8.54 0,0 0.01,-0.01 0,-0.02 0.66,-2.85 1.37,-5.68 2.12,-8.5 5.35,-20.03 13.05,-39.83 15.36,-60.29 0.43,-3.77 0.67,-7.57 0.68,-11.39 l 0,-0.05 0,-0.17 0,-0.05 c 0,-0.64 -0.01,-1.29 -0.02,-1.93 l 0,-0.05 c -0.01,-0.64 -0.03,-1.28 -0.06,-1.92 l 0,-0.05 c -0.03,-0.64 -0.06,-1.28 -0.11,-1.92 l 0,-0.05 c -0.04,-0.64 -0.08,-1.27 -0.14,-1.91 l 0,-0.05 c -0.05,-0.63 -0.11,-1.27 -0.18,-1.9 -3.99,-38.27 -30.75,-71.99 -61.79,-95.64 -29.51,-22.49 -63.41,-38.63 -94.82,-58.43 -4.48,-2.82 -8.92,-5.73 -13.29,-8.73 -30.26,-20.83 -58.11,-48.82 -68.91,-83.82 l -93.3,0 c -0.35,4.7 -0.55,9.28 -0.55,13.79 0,12.73 1.57,24.82 5.58,37.08 1.03,3.15 2.21,6.22 3.52,9.22 0.26,0.6 0.53,1.2 0.8,1.79 l 0,0.01 c 0.55,1.19 1.12,2.36 1.7,3.52 l 0,0.01 c 0.59,1.16 1.2,2.31 1.83,3.45 l 0,0.01 c 0.32,0.57 0.64,1.13 0.96,1.69 l 0,0.01 c 0.33,0.56 0.65,1.12 0.99,1.68 0,0 -0.01,0 0,0.01 1,1.67 2.05,3.32 3.13,4.94 l 0,0.01 c 17.76,26.52 46.44,46.11 75.97,59.59 38.58,17.62 80.41,27.73 118.09,47.18 37.1,19.15 71.37,50.55 79.34,91.39 0.13,0.64 0.25,1.28 0.36,1.92 l 0,0.03 c 0.14,0.79 0.27,1.59 0.39,2.39 l 0,0.03 c 0.12,0.79 0.23,1.59 0.33,2.39 -0.01,0.01 0,0.02 0,0.03 0.1,0.79 0.19,1.59 0.27,2.39 -0.01,0.01 -0.01,0.02 0,0.03 0.08,0.8 0.15,1.59 0.21,2.39 l 0,0.03 c 0.06,0.8 0.12,1.6 0.16,2.4 l 0,0.03 c 0.05,0.8 0.08,1.6 0.11,2.4 l 0,0.03 c 0.03,0.8 0.05,1.6 0.07,2.4 l 0,0.03 c 0.01,0.81 0.02,1.61 0.02,2.41 0,17.94 -3.34,36.03 -4.9,54.02 -0.65,7.53 -0.98,15.08 -0.98,22.63 0,1.06 0.01,2.13 0.02,3.19 l 0,0.01 c 0.01,1.07 0.03,2.13 0.06,3.19 l 0,0.01 c 0.02,1.06 0.05,2.12 0.09,3.18 l 0,0.01 c 0.04,1.06 0.09,2.12 0.14,3.18 l 0,0.01 c 0.05,1.06 0.1,2.12 0.17,3.18 l 0,0.01 c 0.06,1.06 0.13,2.12 0.21,3.18 l 0,0.01 c 0.07,1.06 0.16,2.12 0.24,3.17 l 0,0.01 c 0.09,1.06 0.19,2.12 0.29,3.18 l 0,0.01 c 0.1,1.05 0.21,2.11 0.32,3.16 l 0,0.01 c 0.12,1.06 0.24,2.11 0.36,3.17 l 0,0.01 c 0.13,1.05 0.26,2.11 0.4,3.16 l 0,0.01 c 0.14,1.05 0.28,2.1 0.43,3.15 l 0,0.01 c 0.15,1.05 0.31,2.1 0.47,3.15 l 0,0.01 c 0.16,1.05 0.33,2.1 0.51,3.15 l 0,0.01 c 0.17,1.05 0.35,2.09 0.54,3.14 l 0,0.01 c 0.19,1.04 0.38,2.09 0.58,3.13 l 0,0.01 c 0.4,2.09 0.82,4.17 1.27,6.25 l 0,0.01 c 0.45,2.08 0.92,4.16 1.41,6.23 l 0,0.01 c 0.25,1.03 0.5,2.06 0.76,3.09 l 0,0.01 c 0.26,1.03 0.52,2.06 0.79,3.09 l 0,0.01 c 0.55,2.06 1.11,4.11 1.7,6.15 l 0,0.01 c 0.3,1.02 0.59,2.04 0.9,3.06 l 0,0.01 c 0.61,2.04 1.25,4.07 1.91,6.09 0,0 -0.01,0.01 0,0.01 0.66,2.03 1.34,4.04 2.04,6.05 l 0,0.01 c 0.35,1 0.71,2 1.07,3 l 0,0.01 c 0.37,1 0.74,2 1.11,2.99 l 0,0.01 c 0.38,1 0.76,1.99 1.15,2.98 0.77,1.99 1.56,3.97 2.38,5.93 0.41,0.98 0.83,1.96 1.25,2.94 0,0 -0.01,0 0,0.01 0.42,0.98 0.84,1.95 1.27,2.92 l 0,0.01 c 0.44,0.97 0.87,1.94 1.31,2.91 0.45,0.97 0.89,1.94 1.35,2.9 0.45,0.96 0.91,1.92 1.38,2.88 0,0 -0.01,0 0,0.01 0.46,0.96 0.93,1.91 1.41,2.86 0.95,1.91 1.92,3.81 2.92,5.69 0.49,0.94 1,1.88 1.5,2.81 l 0,0.01 c 1.02,1.87 2.06,3.73 3.12,5.57 l 0,0.01 c 0.53,0.92 1.07,1.84 1.6,2.76 2.17,3.67 4.41,7.29 6.74,10.85 0.59,0.89 1.17,1.78 1.77,2.66 l 0,0.01 c 0.6,0.89 1.19,1.76 1.79,2.64 4.23,6.14 8.71,12.1 13.44,17.87 L 0,0 Z"
                   style="fill:#000000;fill-opacity:1;fill-rule:nonzero;stroke:none"
                   id="path50"
                   inkscape:connector-curvature="0" /></g><g
                 transform="translate(409.85,516.09)"
                 id="g52"><path
                   d="m 0,0 c -1.18,-5.18 -2.2,-10.38 -3.06,-15.62 -2.39,-14.46 -3.56,-29.11 -3.56,-43.77 0,-6.97 0.27,-13.94 0.79,-20.89 0.13,-1.73 0.28,-3.47 0.45,-5.21 0.65,-6.94 1.57,-13.86 2.75,-20.73 1.02,-6.01 2.24,-11.99 3.66,-17.93 0.21,-0.85 0.41,-1.7 0.62,-2.54 2.95,-11.84 6.67,-23.49 11.14,-34.84 0.64,-1.62 1.29,-3.23 1.97,-4.83 0.33,-0.81 0.67,-1.61 1.01,-2.42 1.37,-3.2 2.8,-6.38 4.29,-9.52 0.01,0 0.01,0 0,-0.01 0.75,-1.57 1.51,-3.14 2.29,-4.69 l 0,-0.01 c 5.82,-11.7 12.49,-22.97 19.98,-33.69 14.08,-20.15 31.13,-38.85 39.59,-61.93 3.09,-8.42 4.89,-17.09 5.6,-25.85 0.24,-2.92 0.36,-5.85 0.35,-8.79 0,-0.91 -0.01,-1.82 -0.03,-2.73 -0.01,-0.03 -0.01,-0.06 0,-0.08 -0.03,-0.91 -0.06,-1.82 -0.11,-2.73 l 0,-0.07 c -0.04,-0.92 -0.1,-1.83 -0.17,-2.74 -1.96,-27.15 -13.12,-54.36 -28.02,-77.58 -18.61,-29 -42.7,-54.15 -64.27,-81.09 -0.01,-0.01 0,-0.01 0,-0.01 -0.83,-1.04 -1.65,-2.07 -2.48,-3.11 l 0,-0.01 c -0.82,-1.04 -1.64,-2.08 -2.45,-3.12 -0.01,-0.01 0,-0.01 0,-0.01 -0.82,-1.05 -1.63,-2.1 -2.43,-3.15 -2.41,-3.16 -4.77,-6.36 -7.08,-9.6 -3.91,-5.48 -7.65,-11.29 -11.15,-17.29 l -105.85,0 c 9.49,16 21.66,30.73 34.76,43.62 2.83,2.79 5.72,5.53 8.64,8.22 28.24,26.06 60.15,48.32 86.21,76.56 22.56,24.45 40.77,55.62 43.97,88.07 0.05,0.54 0.1,1.08 0.15,1.62 -0.01,0.02 0,0.04 0,0.06 0.05,0.54 0.09,1.08 0.12,1.62 l 0,0.06 c 0.04,0.54 0.08,1.08 0.1,1.62 l 0,0.06 c 0.03,0.54 0.05,1.09 0.07,1.63 l 0,0.06 c 0.02,0.54 0.04,1.08 0.05,1.62 l 0,0.06 c 0.01,0.54 0.01,1.09 0.01,1.63 0,2.8 -0.11,5.61 -0.36,8.43 -0.24,2.83 -0.61,5.66 -1.12,8.5 -4.33,24.19 -17.88,45.54 -28.25,67.82 -3.13,6.73 -5.97,13.59 -8.52,20.55 l 0,0.01 c -0.85,2.33 -1.67,4.66 -2.45,7.01 -9.41,28.14 -14.13,57.83 -14.13,87.53 0,1.13 0.01,2.26 0.02,3.39 l 0,0.01 c 0.01,1.13 0.03,2.25 0.06,3.38 l 0,0.01 c 0.03,1.13 0.06,2.25 0.1,3.38 l 0,0.01 c 0.05,1.12 0.09,2.25 0.15,3.37 l 0,0.01 c 0.05,1.13 0.11,2.25 0.18,3.38 l 0,0.01 c 0.07,1.12 0.15,2.25 0.23,3.37 l 0,0.01 c 0.08,1.12 0.17,2.25 0.27,3.37 l 0,0.01 c 0.09,1.12 0.19,2.24 0.3,3.37 0.11,1.12 0.23,2.25 0.35,3.37 0.13,1.12 0.26,2.24 0.39,3.36 l 0,0.01 c 0.14,1.12 0.28,2.24 0.43,3.36 2.46,18.25 6.73,36.25 12.83,53.62 L 0,0 Z"
                   style="fill:#000000;fill-opacity:1;fill-rule:nonzero;stroke:none"
                   id="path54"
                   inkscape:connector-curvature="0" /></g><g
                 transform="translate(409.85,484.3)"
                 id="g56"><path
                   d="m 0,0 c 0.66,-5.27 1.48,-10.52 2.47,-15.73 3.6,-19.2 9.35,-37.98 17,-55.97 1.85,-4.35 3.81,-8.66 5.89,-12.92 0.52,-1.06 1.04,-2.13 1.57,-3.18 7.98,-15.86 17.47,-30.97 28.29,-45.04 1.45,-1.87 2.91,-3.72 4.41,-5.56 2.24,-2.75 4.53,-5.47 6.87,-8.14 3.89,-4.45 7.94,-8.76 12.12,-12.94 10.87,-10.89 22.66,-20.84 35.27,-29.68 20.13,-14.11 42.53,-25.86 58.38,-44.65 16.42,-19.48 23.78,-44.31 25.01,-70 0.13,-2.66 0.19,-5.33 0.19,-8 0,-0.87 -0.01,-1.74 -0.02,-2.61 l 0,-0.11 c -0.02,-0.87 -0.04,-1.74 -0.07,-2.61 l 0,-0.11 c -0.02,-0.87 -0.06,-1.74 -0.1,-2.61 -0.55,-11.8 -2.24,-23.58 -4.79,-34.91 -7.28,-32.31 -20.59,-63.03 -31.45,-94.42 l 0,-0.01 c -0.43,-1.25 -0.86,-2.51 -1.29,-3.76 l 0,-0.01 c -0.42,-1.25 -0.84,-2.51 -1.26,-3.76 l 0,-0.01 c -0.42,-1.26 -0.83,-2.52 -1.24,-3.78 l 0,-0.01 c -0.4,-1.25 -0.8,-2.52 -1.2,-3.78 l 0,-0.01 c -0.39,-1.26 -0.78,-2.53 -1.16,-3.8 -0.77,-2.54 -1.5,-5.08 -2.21,-7.64 -0.8,-2.9 -1.55,-6.04 -2.26,-9.04 l -86.51,0 c 0.81,2 1.64,3.87 2.49,5.65 1.14,2.39 2.31,4.77 3.5,7.14 0.59,1.18 1.2,2.36 1.8,3.54 l 0,0.01 c 1.22,2.35 2.46,4.7 3.72,7.03 0,0 -0.01,0 0,0.01 16.98,31.52 37.35,61.39 51.15,94.39 8.1,19.37 13.67,40.66 14.64,61.68 l 0,0.09 c 0.03,0.69 0.06,1.39 0.08,2.08 l 0,0.1 c 0.03,0.69 0.04,1.38 0.05,2.07 l 0,0.09 c 0.01,0.7 0.02,1.39 0.02,2.08 0.01,2.99 -0.09,5.98 -0.3,8.95 -1.08,16.05 -5.23,31.61 -13.39,45.67 -12.35,21.26 -32.38,36.68 -49.75,54.08 -21.3,21.33 -38.8,46.31 -51.92,73.43 0.01,0.01 0,0.01 0,0.01 -1.45,3.02 -2.85,6.05 -4.21,9.11 0.01,0.01 0.01,0.01 0,0.01 -0.89,2.04 -1.77,4.09 -2.62,6.15 l 0,0.01 c -1.27,3.1 -2.49,6.21 -3.66,9.35 0,0 0.01,0.01 0,0.01 -0.77,2.09 -1.52,4.19 -2.25,6.3 -2.53,7.39 -4.76,14.89 -6.67,22.46 -0.82,3.24 -1.58,6.5 -2.28,9.78 -1.17,5.46 -2.17,10.95 -3,16.46 -1.85,12.26 -2.87,24.65 -3,37.05 L 0,0 Z"
                   style="fill:#000000;fill-opacity:1;fill-rule:nonzero;stroke:none"
                   id="path58"
                   inkscape:connector-curvature="0" /></g><g
                 transform="translate(438.18,413.75)"
                 id="g60"><path
                   d="m 0,0 c -7.43,12.82 -13.82,26.23 -19.03,40.09 l 1.58,0.59 c 2.42,-4.72 4.99,-9.37 7.69,-13.93 1.52,-2.57 3.08,-5.1 4.69,-7.61 1.91,-2.99 3.88,-5.94 5.91,-8.85 1.35,-1.94 2.73,-3.87 4.13,-5.77 8.41,-11.43 17.73,-22.2 27.81,-32.19 3.36,-3.34 6.81,-6.59 10.34,-9.75 31.74,-28.44 69.98,-49.64 111.14,-60.7 23.74,-6.38 48.81,-9.76 70.12,-22 36.78,-21.11 55,-64.8 60.4,-106.86 1.01,-7.85 1.65,-15.73 2.07,-23.64 0.53,-10.15 0.66,-20.34 0.66,-30.55 0,-2.7 -0.01,-5.41 -0.02,-8.11 l 0,-0.05 c -0.02,-2.71 -0.04,-5.41 -0.05,-8.12 -0.01,-0.02 -0.01,-0.04 0,-0.05 -0.02,-2.71 -0.04,-5.42 -0.06,-8.13 l 0,-0.04 c -0.01,-2.73 -0.02,-5.45 -0.02,-8.17 0,-10.11 0.13,-20.21 0.65,-30.28 0.17,-3.36 0.38,-6.71 0.65,-10.06 1.61,-20.19 5.54,-41.07 12.83,-60.07 l -93.88,0 c -0.01,0.64 -0.02,1.26 -0.02,1.88 -0.01,0.62 -0.01,1.24 -0.01,1.85 0,0.53 0.01,1.05 0.01,1.57 0,0 -0.01,0 0,0.01 0,0.51 0,1.02 0.01,1.53 l 0,0.01 c 0.01,0.51 0.01,1.02 0.02,1.52 l 0,0.01 c 0.02,1.01 0.05,2 0.08,2.99 l 0,0.01 c 0.02,0.5 0.03,0.99 0.05,1.47 l 0,0.01 c 0.02,0.49 0.04,0.98 0.06,1.46 l 0,0.01 c 0.02,0.49 0.05,0.97 0.07,1.45 l 0,0.01 c 0.05,0.97 0.11,1.93 0.17,2.89 l 0,0.01 c 0.03,0.48 0.06,0.96 0.09,1.44 0.04,0.48 0.07,0.96 0.11,1.44 0.03,0.48 0.07,0.96 0.11,1.44 l 0,0.01 c 0.04,0.48 0.08,0.96 0.12,1.44 0.08,0.97 0.17,1.94 0.26,2.91 0.25,2.64 0.54,5.27 0.85,7.91 0.15,1.31 0.32,2.63 0.49,3.94 l 0,0.01 c 0.34,2.63 0.7,5.25 1.08,7.87 l 0,0.01 c 0.19,1.31 0.39,2.62 0.59,3.93 l 0,0.01 c 0.2,1.31 0.41,2.61 0.62,3.92 l 0,0.02 c 0.21,1.31 0.43,2.61 0.64,3.91 l 0,0.02 c 0.22,1.3 0.44,2.61 0.67,3.91 -0.01,0.01 -0.01,0.02 0,0.02 0.22,1.3 0.45,2.6 0.68,3.9 -0.01,0.01 -0.01,0.02 0,0.03 0.23,1.3 0.46,2.6 0.69,3.9 l 0,0.03 c 4.91,27.45 10.62,54.82 11.93,82.6 0.04,0.87 0.08,1.74 0.1,2.62 0.04,0.78 0.06,1.57 0.08,2.36 l 0,0.13 c 0.02,0.79 0.04,1.58 0.04,2.37 l 0,0.13 c 0.02,0.79 0.02,1.58 0.02,2.37 0,2.47 -0.05,4.94 -0.13,7.42 -0.02,0.62 -0.04,1.24 -0.08,1.86 -1.63,36.57 -13.27,73.4 -40.96,96.53 -18.87,15.75 -42.97,23.4 -65.24,33.8 -28.97,13.53 -55.32,32.39 -77.79,55.1 -5.83,5.9 -11.39,12.05 -16.67,18.43 -0.76,0.91 -1.51,1.82 -2.25,2.75 -2.23,2.77 -4.4,5.58 -6.53,8.42 -0.7,0.94 -1.4,1.9 -2.1,2.86 -2.78,3.83 -5.46,7.74 -8.04,11.7 -1.29,1.98 -2.56,3.98 -3.8,6 C 2.4,-4.07 1.18,-2.04 0,0"
                   style="fill:#000000;fill-opacity:1;fill-rule:nonzero;stroke:none"
                   id="path62"
                   inkscape:connector-curvature="0" /></g><g
                 transform="translate(453.17,414.61)"
                 id="g64"><path
                   d="m 0,0 c -4.6,4.63 -9.04,9.43 -13.29,14.38 l 1.28,1.1 c 3.89,-3.61 7.89,-7.09 11.98,-10.45 17.32,-14.2 36.42,-26.17 56.69,-35.71 0.01,-0.01 0.01,0 0.01,0 0.96,-0.46 1.92,-0.9 2.89,-1.35 1.94,-0.88 3.89,-1.74 5.85,-2.59 0.98,-0.41 1.95,-0.83 2.94,-1.24 0.99,-0.41 1.97,-0.81 2.96,-1.21 0.99,-0.4 1.98,-0.79 2.97,-1.18 1,-0.38 1.99,-0.76 2.99,-1.14 1,-0.37 1.99,-0.74 2.99,-1.11 30.05,-10.9 61.97,-16.68 93.91,-16.68 7.56,0 15.12,0.33 22.65,0.98 17.98,1.56 36.07,4.9 54,4.9 5.68,0 11.35,-0.34 16.99,-1.17 0.8,-0.12 1.6,-0.25 2.39,-0.39 l 0.03,0 c 0.64,-0.11 1.28,-0.23 1.92,-0.36 3.89,-0.76 7.69,-1.76 11.41,-2.98 35.27,-11.56 62.56,-42.8 79.88,-76.36 19.46,-37.68 29.44,-79.51 47.06,-118.09 13.21,-28.93 32.14,-57.05 57.78,-74.87 l 0.01,0 c 0.54,-0.37 1.07,-0.73 1.6,-1.1 l 0.01,0 c 0.54,-0.36 1.08,-0.71 1.62,-1.07 l 0.01,0 c 1.08,-0.71 2.18,-1.39 3.3,-2.06 l 0.01,0 c 0.55,-0.33 1.11,-0.66 1.67,-0.99 l 0.01,0 c 0.56,-0.32 1.12,-0.64 1.69,-0.96 l 0.01,0 c 0.56,-0.31 1.13,-0.62 1.7,-0.92 0.01,-0.01 0.01,0 0.01,0 0.57,-0.31 1.15,-0.61 1.73,-0.9 l 0.01,0 c 0.57,-0.3 1.15,-0.58 1.74,-0.87 l 0.01,0 c 0.58,-0.28 1.17,-0.56 1.76,-0.84 3.56,-1.64 7.23,-3.08 11.01,-4.32 16.52,-5.41 33.14,-6.37 50.14,-5.05 l 0,-70.51 -123.47,0 c -2.38,2 -4.74,2.45 -7.08,3.7 -2.92,1.56 -5.74,3.26 -8.47,5.07 -1.09,0.73 -2.16,1.48 -3.22,2.24 -0.53,0.38 -1.06,0.77 -1.58,1.16 -29.23,21.93 -46.49,58.31 -55.81,94.23 -10.65,41.05 -13.28,83.98 -25.89,124.47 -12.61,40.49 -38.14,80.28 -78.02,94.69 -23.12,8.35 -48.38,7.29 -72.87,9.45 -18.87,1.67 -37.52,5.4 -55.6,11.01 -27.11,8.42 -52.93,21.06 -76.27,37.25 -2.91,2.03 -5.79,4.11 -8.63,6.24 -1.89,1.42 -3.76,2.87 -5.61,4.34 -1.86,1.47 -3.69,2.97 -5.51,4.48 C 11.95,-11.46 5.84,-5.86 0,0"
                   style="fill:#000000;fill-opacity:1;fill-rule:nonzero;stroke:none"
                   id="path66"
                   inkscape:connector-curvature="0" /></g><g
                 transform="translate(490.94,401.18)"
                 id="g68"><path
                   d="m 0,0 c -7.88,3.47 -15.58,7.32 -23.08,11.54 l 0.83,1.48 c 0.33,-0.14 0.65,-0.27 0.98,-0.41 4.57,-1.9 9.19,-3.67 13.86,-5.31 C 5.7,2.69 19.17,-0.88 32.84,-3.4 49.5,-6.48 66.45,-8.02 83.4,-8.02 c 29.69,0 59.39,4.72 87.52,14.13 9.39,3.13 18.61,6.79 27.59,10.97 22.28,10.37 43.64,23.92 67.83,28.25 2.11,0.38 4.22,0.68 6.33,0.91 3.51,0.38 7.02,0.57 10.52,0.57 2.26,0 4.51,-0.08 6.76,-0.23 0.54,-0.03 1.07,-0.07 1.61,-0.12 33,-2.74 64.72,-21.19 89.58,-44.12 27.26,-25.16 48.76,-55.77 73.64,-83.28 1.77,-1.96 3.57,-3.91 5.38,-5.84 1.82,-1.93 3.65,-3.84 5.51,-5.73 12.83,-13.03 27.89,-25.15 42.89,-34.62 l 0,-110.64 c -21.25,6.78 -40.27,20.18 -56.63,36.64 -9.81,9.88 -18.67,20.87 -26.46,32.19 -3.01,4.36 -5.9,8.8 -8.72,13.29 -19.69,31.41 -35.45,65.31 -57.94,94.82 -24.07,31.59 -58.57,58.73 -97.67,61.97 -0.63,0.06 -1.26,0.1 -1.89,0.14 -2.04,0.13 -4.08,0.19 -6.14,0.19 -3.07,-0.01 -6.13,-0.16 -9.16,-0.45 -21.29,-1.95 -41.78,-10.04 -62.58,-15.59 -2.81,-0.75 -5.64,-1.46 -8.47,-2.12 l -0.02,0 c -2.84,-0.65 -5.69,-1.26 -8.54,-1.83 -17.18,-3.37 -34.68,-5.04 -52.19,-5.03 -31.1,-0.01 -62.22,5.24 -91.6,15.46 -0.77,0.27 -1.54,0.54 -2.31,0.82 -0.77,0.27 -1.54,0.55 -2.31,0.83 -0.77,0.29 -1.53,0.57 -2.29,0.86 l -0.01,0 C 12.86,-5.29 12.1,-5 11.34,-4.7 8.29,-3.52 5.26,-2.28 2.25,-0.98 1.5,-0.66 0.75,-0.33 0.01,0 L 0,0 Z"
                   style="fill:#000000;fill-opacity:1;fill-rule:nonzero;stroke:none"
                   id="path70"
                   inkscape:connector-curvature="0" /></g><g
                 transform="translate(500,408.69)"
                 id="g72"><path
                   d="m 0,0 c 5.3,-0.26 10.6,-0.36 15.91,-0.3 16.86,0.18 33.7,1.99 50.23,5.32 1.09,0.22 2.19,0.45 3.28,0.68 4.37,0.93 8.71,1.97 13.02,3.12 2.15,0.57 4.3,1.17 6.45,1.79 10.72,3.11 21.25,6.87 31.52,11.24 2.05,0.88 4.09,1.77 6.12,2.7 1.02,0.46 2.04,0.93 3.05,1.4 2.02,0.95 4.03,1.92 6.02,2.92 l 0.01,0 c 25.97,12.94 49.91,29.93 70.45,50.44 17.39,17.37 32.83,37.4 54.08,49.75 14.03,8.15 29.57,12.29 45.59,13.39 2.95,0.2 5.92,0.3 8.9,0.3 2.18,0 4.37,-0.05 6.56,-0.15 0.69,-0.03 1.38,-0.07 2.08,-0.12 20.27,-1.24 40.74,-6.7 59.44,-14.52 30.56,-12.78 58.28,-31.2 87.21,-47.33 l 0.01,0 c 1.15,-0.64 2.31,-1.28 3.46,-1.92 0.01,-0.01 0.01,0 0.01,0 1.16,-0.64 2.32,-1.27 3.48,-1.9 2.33,-1.26 4.67,-2.5 7.03,-3.72 1.17,-0.6 2.35,-1.2 3.53,-1.8 2.37,-1.19 4.75,-2.36 7.14,-3.5 1.71,-0.82 3.92,-1.61 4.92,-2.39 l 0,-94.2 c -5,3.47 -11.15,7.16 -16.56,11.02 -5.4,3.84 -10.67,7.85 -15.87,11.96 -1.04,0.83 -2.07,1.65 -3.1,2.48 0,0 0,-0.01 -0.01,0 -26.81,21.57 -51.63,45.66 -80.62,64.27 -23.24,14.91 -50.48,26.08 -77.66,28.02 -2.8,0.21 -5.59,0.31 -8.38,0.31 -2.92,0 -5.84,-0.11 -8.75,-0.35 -8.78,-0.7 -17.46,-2.5 -25.9,-5.6 C 239.57,74.85 220.93,57.8 200.78,43.72 179.34,28.73 155.69,17.04 130.87,8.85 102.74,-0.44 73.11,-5.23 43.5,-5.23 c -8.73,0 -17.47,0.41 -26.16,1.26 -5.89,0.57 -11.77,1.33 -17.61,2.3 L 0,0 Z"
                   style="fill:#000000;fill-opacity:1;fill-rule:nonzero;stroke:none"
                   id="path74"
                   inkscape:connector-curvature="0" /></g><g
                 transform="translate(590.85,430.96)"
                 id="g76"><path
                   d="m 0,0 c -18.97,-8.36 -38.86,-14.59 -59.23,-18.41 l -0.31,1.66 c 5.07,1.57 10.1,3.29 15.06,5.16 l 0,0.01 c 5,1.87 9.94,3.91 14.81,6.09 5.4,2.41 10.72,5.01 15.95,7.77 2.09,1.11 4.17,2.24 6.23,3.4 2.06,1.16 4.1,2.35 6.14,3.56 19.3,11.52 37.21,25.42 53.19,41.23 22.73,22.47 41.59,48.83 55.12,77.79 10.41,22.27 18.06,46.37 33.81,65.24 23.47,28.1 61.06,39.68 98.15,41.04 2.5,0.08 4.99,0.12 7.48,0.13 2.49,-0.01 4.96,-0.05 7.42,-0.13 0.83,-0.04 1.66,-0.07 2.49,-0.11 27.8,-1.31 55.07,-7.02 82.46,-11.93 1.31,-0.24 2.62,-0.47 3.94,-0.7 1.3,-0.23 2.59,-0.45 3.89,-0.68 11.75,-2.02 23.54,-3.8 35.41,-4.93 8.85,-0.84 17.64,-1.26 26.64,-1.14 l 0,-85.46 c -2,0.7 -5.49,1.43 -8.32,2.21 -6.39,1.77 -12.71,3.72 -18.99,5.81 -1.26,0.41 -2.51,0.84 -3.77,1.26 l -3.75,1.29 c -1.26,0.44 -2.51,0.87 -3.75,1.32 -29.93,10.6 -59.2,23.14 -90.23,30.13 -11.38,2.56 -23.19,4.25 -35.02,4.79 -2.69,0.12 -5.39,0.19 -8.09,0.19 -2.66,0 -5.31,-0.07 -7.94,-0.19 -25.69,-1.22 -50.53,-8.57 -70.02,-25.01 C 139.98,135.54 128.29,113.14 114.18,93.01 104.67,79.44 93.86,66.81 82.01,55.25 79.46,52.77 76.87,50.34 74.23,47.98 72.47,46.4 70.7,44.84 68.9,43.3 50.02,27.15 28.95,13.54 6.46,2.94 4.32,1.94 2.17,0.95 0,0"
                   style="fill:#000000;fill-opacity:1;fill-rule:nonzero;stroke:none"
                   id="path78"
                   inkscape:connector-curvature="0" /></g><g
                 transform="translate(558.85,430.12)"
                 id="g80"><path
                   d="m 0,0 c 4.23,3.21 8.36,6.54 12.38,9.99 4.06,3.49 8.01,7.09 11.84,10.81 1.7,1.64 3.37,3.31 5.03,5 2.48,2.54 4.91,5.12 7.29,7.75 2.39,2.64 4.71,5.31 6.99,8.04 0.76,0.9 1.51,1.82 2.26,2.73 1.5,1.84 2.97,3.69 4.41,5.56 1.45,1.88 2.87,3.77 4.27,5.68 10.49,14.32 19.61,29.64 27.2,45.7 l 1.5,3.21 c 0.99,2.16 1.94,4.32 2.87,6.5 2.33,5.44 4.48,10.95 6.45,16.53 0.39,1.12 0.78,2.23 1.16,3.35 1.9,5.61 3.62,11.27 5.15,16.98 3.99,14.85 6.71,30.04 8.06,45.37 2.16,24.49 1.11,49.75 9.46,72.87 14.4,39.88 54.2,65.41 94.69,78.02 40.48,12.61 83.42,15.24 124.47,25.89 33.99,8.82 68.06,24.76 90.12,51.22 0.84,0.99 1.65,2.01 2.45,3.04 3.59,4.62 6.82,9.56 9.63,14.82 1.16,2.17 2.97,4.36 2.97,6.57 l 0,-135.94 c -18,-7.23 -39.23,-11.14 -59.34,-12.74 -6.7,-0.53 -13.41,-0.86 -20.12,-1.05 -6.71,-0.19 -13.43,-0.25 -20.14,-0.25 -10.85,0 -21.71,0.15 -32.56,0.15 -10.15,0 -20.29,-0.14 -30.4,-0.66 -7.93,-0.41 -15.84,-1.06 -23.73,-2.07 -42.06,-5.4 -85.62,-23.62 -106.74,-60.4 C 135.38,211.36 132.07,186.29 125.69,162.55 113.4,116.82 88.6,74.69 55.27,41.07 54.44,40.22 53.6,39.39 52.76,38.57 51.91,37.74 51.06,36.91 50.21,36.09 47.65,33.64 45.04,31.23 42.38,28.88 39.73,26.52 37.03,24.22 34.28,21.97 32.45,20.47 30.61,18.99 28.74,17.54 25,14.63 21.19,11.83 17.31,9.12 11.96,5.4 6.47,1.86 0.86,-1.46 L 0,0 Z"
                   style="fill:#000000;fill-opacity:1;fill-rule:nonzero;stroke:none"
                   id="path82"
                   inkscape:connector-curvature="0" /></g><g
                 transform="translate(616.3,510.07)"
                 id="g84"><path
                   d="m 0,0 c -9.54,-20.27 -21.51,-39.38 -35.72,-56.7 l -1.3,1.09 c 2.88,4.46 5.62,9.01 8.22,13.64 3.82,6.79 7.34,13.74 10.55,20.83 0.33,0.75 0.67,1.5 1,2.24 l 0,0.01 c 0.33,0.75 0.66,1.5 0.98,2.24 l 0,0.01 c 0.33,0.75 0.64,1.5 0.96,2.25 0.95,2.27 1.87,4.54 2.76,6.83 0.29,0.76 0.59,1.53 0.88,2.29 l 0,0.01 c 0.29,0.76 0.57,1.53 0.85,2.29 l 0,0.01 c 0.57,1.53 1.12,3.07 1.66,4.61 l 0,0.01 c 0.27,0.77 0.53,1.55 0.8,2.32 0.26,0.78 0.52,1.55 0.77,2.33 0.26,0.77 0.51,1.55 0.76,2.33 0,0 -0.01,0 0,0.01 0.25,0.78 0.49,1.56 0.73,2.34 0.24,0.78 0.48,1.57 0.71,2.35 0.24,0.78 0.47,1.56 0.69,2.35 l 0,0.01 c 0.23,0.78 0.46,1.57 0.68,2.35 l 0,0.01 c 0.22,0.79 0.43,1.57 0.65,2.36 l 0,0.01 c 0.21,0.79 0.42,1.58 0.63,2.36 l 0,0.01 c 0.21,0.79 0.41,1.58 0.61,2.37 l 0,0.01 c 0.2,0.79 0.39,1.59 0.58,2.38 l 0,0.01 c 0.2,0.79 0.39,1.58 0.57,2.38 l 0,0.01 c 0.19,0.79 0.37,1.59 0.55,2.38 l 0,0.01 c 0.18,0.8 0.35,1.59 0.52,2.39 l 0,0.01 c 0.17,0.8 0.34,1.6 0.51,2.39 -0.01,0.01 0,0.01 0,0.01 0.16,0.8 0.32,1.6 0.48,2.4 l 0,0.01 c 0.16,0.8 0.31,1.6 0.46,2.4 l 0,0.02 c 0.15,0.8 0.3,1.6 0.44,2.4 l 0,0.01 C 2.13,45.19 2.26,46 2.4,46.8 l 0,0.01 c 0.14,0.81 0.27,1.61 0.4,2.41 l 0,0.02 c 0.13,0.81 0.25,1.61 0.38,2.41 -0.01,0.01 -0.01,0.01 0,0.01 0.12,0.81 0.24,1.61 0.35,2.42 l 0,0.01 c 0.12,0.81 0.23,1.62 0.33,2.42 l 0,0.02 c 0.11,0.81 0.22,1.62 0.32,2.42 l 0,0.01 c 0.1,0.81 0.2,1.62 0.29,2.43 l 0,0.01 c 0.09,0.81 0.18,1.62 0.27,2.43 l 0,0.01 c 0.09,0.81 0.17,1.62 0.25,2.43 l 0,0.02 c 0.08,0.81 0.15,1.62 0.23,2.43 -0.01,0.01 -0.01,0.01 0,0.01 0.07,0.81 0.14,1.62 0.2,2.44 l 0,0.01 c 0.07,0.81 0.13,1.62 0.19,2.43 -0.01,0.01 -0.01,0.01 0,0.02 0.05,0.81 0.11,1.62 0.16,2.43 l 0,0.02 c 0.05,0.81 0.1,1.63 0.14,2.44 l 0,0.01 c 0.04,0.81 0.08,1.62 0.12,2.44 l 0,0.02 c 0.03,0.81 0.07,1.62 0.1,2.43 l 0,0.02 c 0.03,0.81 0.05,1.62 0.07,2.44 l 0,0.01 c 0.02,0.81 0.04,1.63 0.06,2.44 l 0,0.02 c 0.01,0.81 0.02,1.62 0.03,2.44 l 0,0.01 c 0.01,0.81 0.01,1.63 0.01,2.44 0.01,17.52 -1.66,35.02 -5.03,52.2 -0.56,2.86 -1.17,5.71 -1.83,8.54 l 0,0.02 c -0.66,2.85 -1.37,5.68 -2.12,8.5 -5.55,20.77 -13.62,41.28 -15.59,62.55 -0.29,3.03 -0.44,6.09 -0.45,9.16 0,0.72 0.01,1.43 0.02,2.14 l 0,0.06 c 0.02,0.64 0.04,1.28 0.06,1.91 l 0,0.06 c 0.03,0.64 0.07,1.27 0.11,1.91 -0.01,0.02 0,0.04 0,0.06 0.04,0.63 0.09,1.26 0.14,1.89 3.27,39.08 30.4,73.49 61.97,97.55 30.57,23.29 65.83,39.46 98.17,60.19 3.35,2.15 6.66,4.34 9.94,6.59 30.12,20.74 57.85,48.86 68.76,82.86 l 93.48,0 c 0.33,-4.08 0.51,-8.25 0.51,-12.48 0,-12.35 -1.56,-25.17 -5.57,-37.43 -1.03,-3.15 -2.21,-6.22 -3.52,-9.22 -0.26,-0.59 -0.52,-1.19 -0.8,-1.78 l 0,-0.01 c -0.27,-0.59 -0.55,-1.17 -0.84,-1.76 l 0,-0.01 c -0.56,-1.17 -1.15,-2.33 -1.76,-3.48 l 0,-0.01 c -0.3,-0.57 -0.61,-1.14 -0.93,-1.7 l 0,-0.01 c -0.31,-0.57 -0.63,-1.13 -0.96,-1.69 l 0,-0.01 c -0.32,-0.56 -0.65,-1.12 -0.99,-1.67 l 0,-0.01 c -0.67,-1.11 -1.35,-2.21 -2.06,-3.3 l 0,-0.01 c -0.35,-0.55 -0.7,-1.09 -1.07,-1.62 l 0,-0.01 C 278.18,386.81 249.5,367.44 219.97,353.95 181.39,336.33 139.56,326.29 101.88,306.84 64.78,287.68 30.51,256.31 22.54,215.48 22.42,214.84 22.3,214.2 22.18,213.56 l 0,-0.03 c -0.14,-0.8 -0.27,-1.59 -0.39,-2.39 l 0,-0.03 c -0.12,-0.79 -0.22,-1.59 -0.33,-2.39 l 0,-0.03 c -0.09,-0.79 -0.18,-1.59 -0.27,-2.39 l 0,-0.03 c -0.08,-0.79 -0.15,-1.59 -0.21,-2.39 l 0,-0.03 c -0.06,-0.8 -0.11,-1.6 -0.16,-2.4 l 0,-0.03 c -0.05,-0.8 -0.08,-1.6 -0.11,-2.4 l 0,-0.03 c -0.03,-0.8 -0.05,-1.6 -0.07,-2.4 l 0,-0.03 c -0.01,-0.81 -0.02,-1.62 -0.02,-2.43 0.01,-17.93 3.34,-36.01 4.9,-53.98 0.65,-7.53 0.98,-15.09 0.98,-22.65 0,-1.06 -0.01,-2.12 -0.02,-3.18 l 0,-0.01 c -0.01,-1.07 -0.03,-2.13 -0.06,-3.19 l 0,-0.01 c -0.02,-1.06 -0.05,-2.12 -0.09,-3.18 l 0,-0.01 c -0.04,-1.06 -0.09,-2.12 -0.14,-3.18 l 0,-0.01 c -0.05,-1.06 -0.1,-2.12 -0.17,-3.18 l 0,-0.01 c -0.06,-1.06 -0.13,-2.12 -0.21,-3.18 l 0,-0.01 c -0.07,-1.06 -0.16,-2.11 -0.24,-3.17 -0.01,-0.01 0,-0.01 0,-0.01 -0.18,-2.12 -0.38,-4.24 -0.61,-6.35 l 0,-0.01 C 24.85,87.75 24.73,86.69 24.6,85.64 24.47,84.58 24.34,83.53 24.2,82.47 24.07,81.41 23.92,80.36 23.77,79.31 l 0,-0.01 C 23.62,78.25 23.46,77.2 23.3,76.15 l 0,-0.01 c -0.16,-1.05 -0.33,-2.1 -0.51,-3.15 -0.35,-2.1 -0.72,-4.2 -1.12,-6.29 -0.2,-1.05 -0.4,-2.09 -0.62,-3.13 l 0,-0.01 C 20.84,62.52 20.63,61.48 20.4,60.44 l 0,-0.01 c -0.22,-1.04 -0.45,-2.07 -0.69,-3.11 l 0,-0.01 C 19.48,56.27 19.24,55.24 18.99,54.2 18.5,52.13 17.98,50.06 17.44,48 17.17,46.97 16.89,45.95 16.61,44.92 l 0,-0.01 C 16.32,43.89 16.04,42.86 15.74,41.84 13.68,34.67 11.33,27.58 8.71,20.6 8.33,19.61 7.95,18.61 7.56,17.62 l 0,-0.01 C 6.79,15.63 6,13.66 5.18,11.69 l 0,-0.01 C 4.77,10.7 4.35,9.72 3.93,8.74 3.51,7.76 3.09,6.78 2.66,5.81 2.23,4.84 1.79,3.87 1.35,2.9 1.34,2.89 1.35,2.89 1.35,2.89 0.9,1.93 0.46,0.96 0,0"
                   style="fill:#000000;fill-opacity:1;fill-rule:nonzero;stroke:none"
                   id="path86"
                   inkscape:connector-curvature="0" /></g><g
                 transform="translate(602.45,524.01)"
                 id="g88"><path
                   d="m 0,0 c -2.52,-13.67 -6.09,-27.14 -10.7,-40.25 l -1.6,0.57 c 1.18,5.18 2.2,10.39 3.06,15.63 0.56,3.38 1.05,6.77 1.48,10.17 0.16,1.24 0.3,2.48 0.44,3.71 l 0,0.01 c 0.27,2.48 0.51,4.96 0.72,7.44 l 0,0.01 c 0.1,1.24 0.2,2.48 0.28,3.72 l 0,0.01 c 0.09,1.25 0.16,2.49 0.23,3.73 0.14,2.49 0.24,4.99 0.31,7.48 0.03,1.24 0.06,2.49 0.07,3.74 l 0,0.01 c 0.02,1.24 0.03,2.49 0.03,3.73 0,29.61 -4.79,59.25 -14.08,87.38 -1.08,3.31 -2.24,6.6 -3.46,9.87 l 0,0.01 c -0.61,1.63 -1.23,3.26 -1.87,4.87 l 0,0.01 c -0.96,2.43 -1.95,4.84 -2.98,7.24 l 0,0.01 c -1.37,3.2 -2.8,6.38 -4.29,9.52 l 0,0.01 c -0.75,1.57 -1.51,3.14 -2.29,4.69 0.01,0.01 0,0.01 0,0.01 -5.82,11.7 -12.49,22.97 -19.98,33.69 -14.08,20.15 -31.13,38.83 -39.59,61.9 -3.09,8.42 -4.89,17.09 -5.6,25.85 -0.24,2.9 -0.35,5.81 -0.35,8.72 0,0.93 0.01,1.86 0.03,2.8 l 0,0.06 c 0.03,0.92 0.06,1.83 0.11,2.75 l 0,0.06 c 0.05,0.91 0.1,1.83 0.17,2.74 1.96,27.13 13.12,54.32 28.02,77.54 17.18,26.76 39.03,50.04 59.25,74.58 l 0,0.01 c 0.85,1.02 1.69,2.04 2.52,3.07 3.35,4.11 6.65,8.25 9.86,12.46 l 0,0.01 c 0.81,1.05 1.6,2.1 2.39,3.16 l 0,0.01 c 0.8,1.06 1.59,2.12 2.36,3.19 l 0,0.01 c 0.79,1.06 1.56,2.13 2.33,3.21 l 0,0.01 c 0.48,0.67 0.95,1.34 1.42,2.03 1.41,2.05 2.8,4.17 4.16,6.26 1.82,2.79 3.58,5.54 5.3,8.04 l 105.84,0 c -2.95,-4.69 -6.16,-9.36 -9.57,-13.97 -0.68,-0.92 -1.37,-1.84 -2.07,-2.75 l 0,-0.01 c -6.98,-9.14 -14.73,-17.95 -22.84,-25.93 -2.83,-2.79 -5.72,-5.52 -8.64,-8.22 -28.24,-26 -60.15,-47.95 -86.21,-76.19 -22.95,-24.88 -41.4,-56.66 -44.12,-89.7 -0.04,-0.54 -0.08,-1.07 -0.12,-1.61 -0.01,-0.02 -0.01,-0.04 0,-0.06 -0.04,-0.54 -0.07,-1.08 -0.1,-1.62 l 0,-0.07 c -0.03,-0.54 -0.05,-1.08 -0.07,-1.62 l 0,-0.06 c -0.02,-0.54 -0.04,-1.08 -0.05,-1.62 l 0,-0.06 c -0.01,-0.56 -0.01,-1.12 -0.01,-1.69 0,-3.49 0.19,-6.98 0.57,-10.48 0.22,-2.12 0.53,-4.25 0.91,-6.38 4.33,-24.2 17.88,-45.52 28.25,-67.8 4.18,-8.98 7.83,-18.19 10.97,-27.57 C -0.1,109.94 4.62,80.24 4.62,50.55 4.62,49.42 4.61,48.3 4.6,47.17 l 0,-0.01 C 4.59,46.03 4.57,44.91 4.54,43.78 l 0,-0.01 C 4.51,42.64 4.48,41.52 4.44,40.39 l 0,-0.01 C 4.39,39.26 4.35,38.13 4.29,37.01 L 4.29,37 C 4.24,35.87 4.18,34.75 4.11,33.62 l 0,-0.01 C 4.04,32.49 3.96,31.36 3.88,30.24 l 0,-0.01 C 3.8,29.11 3.71,27.98 3.61,26.86 l 0,-0.01 C 3.42,24.6 3.2,22.36 2.96,20.11 l 0,-0.01 C 2.84,18.99 2.71,17.87 2.57,16.75 l 0,-0.01 C 2.29,14.5 1.99,12.26 1.66,10.03 l 0,-0.01 C 1.5,8.91 1.33,7.8 1.15,6.68 l 0,-0.01 C 0.97,5.56 0.79,4.45 0.6,3.34 l 0,-0.01 C 0.41,2.22 0.21,1.11 0,0"
                   style="fill:#000000;fill-opacity:1;fill-rule:nonzero;stroke:none"
                   id="path90"
                   inkscape:connector-curvature="0" /></g><g
                 transform="translate(590.15,516.13)"
                 id="g92"><path
                   d="m 0,0 c -0.66,5.27 -1.48,10.52 -2.47,15.73 -1.86,9.9 -4.28,19.69 -7.25,29.31 -1.04,3.39 -2.15,6.76 -3.33,10.11 -0.39,1.11 -0.79,2.23 -1.2,3.34 -9.75,26.67 -23.65,51.84 -40.97,74.34 -1.45,1.87 -2.91,3.72 -4.41,5.56 -2.23,2.76 -4.52,5.48 -6.87,8.14 -3.89,4.45 -7.94,8.76 -12.12,12.94 -10.87,10.88 -22.66,20.84 -35.27,29.68 -20.13,14.12 -42.53,25.83 -58.38,44.63 -16.42,19.47 -23.78,44.28 -25.01,69.96 -0.12,2.61 -0.18,5.24 -0.19,7.88 0,0.91 0.01,1.81 0.02,2.72 l 0,0.11 c 0.02,0.87 0.04,1.74 0.07,2.6 -0.01,0.04 -0.01,0.08 0,0.12 0.03,0.87 0.06,1.74 0.1,2.6 0.55,11.79 2.24,23.57 4.79,34.9 7.28,32.32 20.59,62.81 31.45,94.1 l 0,0.01 c 0.43,1.24 0.86,2.49 1.29,3.74 l 0,0.01 c 0.43,1.25 0.85,2.51 1.26,3.76 l 0,0.01 c 0.42,1.25 0.83,2.51 1.24,3.77 1.62,5.04 3.16,10.1 4.57,15.21 l 0,0.01 c 0.1,0.34 0.19,0.69 0.28,1.05 l 0,0.01 c 0.19,0.71 0.38,1.45 0.56,2.17 l 0,0.01 c 0.45,1.83 0.89,3.59 1.31,4.84 l 86.42,0 c -0.75,-1 -1.51,-3.06 -2.29,-4.69 -1.14,-2.39 -2.31,-4.77 -3.5,-7.14 -0.59,-1.18 -1.19,-2.35 -1.8,-3.53 -0.01,-0.01 0,-0.01 0,-0.01 -0.61,-1.17 -1.22,-2.34 -1.85,-3.51 l 0,-0.01 c -0.61,-1.16 -1.23,-2.33 -1.87,-3.49 l 0,-0.01 c -0.62,-1.16 -1.25,-2.32 -1.9,-3.48 l 0,-0.01 c -16.58,-30.15 -35.96,-58.78 -49.25,-90.56 -7.83,-18.73 -13.3,-39.24 -14.52,-59.56 -0.04,-0.69 -0.08,-1.39 -0.12,-2.08 l 0,-0.09 c -0.03,-0.7 -0.06,-1.39 -0.08,-2.09 l 0,-0.08 c -0.02,-0.69 -0.04,-1.38 -0.05,-2.08 l 0,-0.09 c -0.02,-0.72 -0.02,-1.44 -0.02,-2.16 0,-2.97 0.1,-5.93 0.3,-8.87 1.08,-16.04 5.23,-31.59 13.39,-45.65 12.35,-21.25 32.38,-36.65 49.75,-54.04 20.51,-20.54 37.5,-44.47 50.44,-70.43 l 0,-0.01 c 1,-2 1.97,-4 2.92,-6.02 0.47,-1.01 0.94,-2.03 1.4,-3.05 0.92,-2.03 1.82,-4.07 2.7,-6.12 l 0,-0.01 c 0.87,-2.05 1.72,-4.11 2.54,-6.18 3.3,-8.3 6.21,-16.75 8.7,-25.33 0.62,-2.15 1.22,-4.3 1.79,-6.45 1.15,-4.31 2.19,-8.65 3.12,-13.02 0.23,-1.09 0.46,-2.19 0.68,-3.28 0.88,-4.37 1.65,-8.77 2.32,-13.18 1.85,-12.27 2.87,-24.65 3,-37.05 L 0,0 Z"
                   style="fill:#000000;fill-opacity:1;fill-rule:nonzero;stroke:none"
                   id="path94"
                   inkscape:connector-curvature="0" /></g><g
                 transform="translate(577.57,554.9)"
                 id="g96"><path
                   d="M 0,0 C 1.14,-2.75 2.24,-5.52 3.28,-8.31 L 1.7,-8.9 c -2.42,4.73 -4.99,9.38 -7.7,13.94 -3.32,5.61 -6.86,11.1 -10.59,16.45 -1.35,1.94 -2.72,3.86 -4.13,5.77 -0.7,0.95 -1.41,1.89 -2.12,2.84 -1.43,1.89 -2.88,3.76 -4.36,5.6 -4.43,5.54 -9.07,10.92 -13.92,16.11 -2.42,2.6 -4.89,5.14 -7.41,7.64 -33.61,33.34 -75.74,58.15 -121.48,70.44 -23.74,6.38 -48.81,9.73 -70.12,21.97 -36.78,21.11 -55,64.74 -60.4,106.8 -1.01,7.85 -1.65,15.72 -2.07,23.61 -0.52,10.1 -0.66,20.22 -0.66,30.36 0,2.72 0.01,5.43 0.02,8.15 l 0,0.06 c 0.02,2.69 0.04,5.39 0.05,8.08 l 0,0.05 c 0.02,2.7 0.04,5.4 0.06,8.09 l 0,0.04 c 0.01,2.71 0.02,5.41 0.02,8.11 0,11.76 -0.18,23.51 -0.94,35.25 -0.11,1.68 -0.23,3.36 -0.36,5.03 -0.5,6.26 -1.22,12.62 -2.2,18.96 -2.14,13.94 -5.51,27.77 -10.45,40.15 l 93.71,0 c 0.01,-0.85 0.02,-1.73 0.02,-2.62 0,-7.43 -0.41,-15.96 -1.16,-23.79 -0.25,-2.64 -0.54,-5.27 -0.85,-7.9 -0.15,-1.32 -0.32,-2.63 -0.49,-3.94 l 0,-0.01 c -0.33,-2.62 -0.7,-5.24 -1.08,-7.86 l 0,-0.01 c -0.19,-1.3 -0.39,-2.61 -0.59,-3.92 l 0,-0.01 c -0.2,-1.3 -0.41,-2.61 -0.62,-3.91 l 0,-0.01 c -0.21,-1.3 -0.42,-2.6 -0.64,-3.9 l 0,-0.02 c -0.22,-1.3 -0.44,-2.6 -0.67,-3.9 l 0,-0.02 c -0.22,-1.3 -0.44,-2.59 -0.68,-3.89 l 0,-0.03 c -0.22,-1.29 -0.45,-2.59 -0.69,-3.88 0,-0.01 -0.01,-0.02 0,-0.03 -4.91,-27.34 -10.62,-54.54 -11.93,-82.33 -0.04,-0.87 -0.08,-1.74 -0.1,-2.62 -0.03,-0.78 -0.06,-1.57 -0.08,-2.36 l 0,-0.13 c -0.02,-0.79 -0.03,-1.58 -0.04,-2.37 -0.01,-0.04 -0.01,-0.08 0,-0.13 -0.01,-0.83 -0.02,-1.66 -0.02,-2.5 0.01,-2.46 0.05,-4.93 0.13,-7.41 1.34,-37.12 12.91,-74.72 41.04,-98.21 18.87,-15.75 42.97,-23.37 65.24,-33.77 27.89,-13.03 53.36,-31 75.28,-52.6 0.84,-0.83 1.68,-1.67 2.51,-2.51 15.82,-15.98 29.71,-33.88 41.22,-53.18 0.61,-1.02 1.21,-2.04 1.8,-3.06 1.78,-3.07 3.5,-6.17 5.16,-9.31 C -7.83,17.23 -5.23,11.91 -2.82,6.51 -1.85,4.35 -0.91,2.18 0,0"
                   style="fill:#000000;fill-opacity:1;fill-rule:nonzero;stroke:none"
                   id="path98"
                   inkscape:connector-curvature="0" /></g><g
                 transform="translate(546.83,585.83)"
                 id="g100"><path
                   d="m 0,0 c 4.17,-4.19 8.2,-8.52 12.09,-12.98 0.4,-0.46 0.79,-0.92 1.19,-1.38 l -1.29,-1.11 c -3.91,3.62 -7.92,7.13 -12.04,10.5 -6.59,5.41 -13.44,10.49 -20.52,15.23 -0.89,0.6 -1.77,1.19 -2.66,1.77 -1.78,1.16 -3.58,2.31 -5.39,3.43 -0.91,0.57 -1.81,1.12 -2.72,1.67 -1.82,1.1 -3.66,2.18 -5.51,3.24 -0.92,0.54 -1.85,1.06 -2.78,1.58 -0.93,0.51 -1.86,1.03 -2.8,1.54 -0.94,0.51 -1.87,1.01 -2.81,1.5 -2.83,1.5 -5.68,2.94 -8.56,4.33 -0.96,0.47 -1.92,0.93 -2.88,1.38 -1.93,0.91 -3.87,1.79 -5.82,2.66 -0.97,0.43 -1.95,0.86 -2.92,1.27 l -0.01,0 c -0.98,0.43 -1.96,0.84 -2.94,1.25 -2.95,1.22 -5.93,2.4 -8.92,3.53 -1,0.38 -1.99,0.74 -2.99,1.11 0,0 0,-0.01 -0.01,0 -1,0.36 -2,0.72 -3,1.07 l -0.01,0 c -1,0.35 -2.01,0.7 -3.02,1.04 -28.27,9.54 -58.06,14.56 -87.87,14.57 -7.56,0 -15.11,-0.33 -22.64,-0.98 -17.98,-1.56 -36.07,-4.9 -54.01,-4.9 -5.69,0 -11.36,0.34 -17,1.17 -0.8,0.12 -1.59,0.25 -2.39,0.39 l -0.03,0 c -0.64,0.12 -1.28,0.24 -1.92,0.36 -40.83,7.99 -72.18,42.25 -91.33,79.34 -19.45,37.68 -29.49,79.51 -47.11,118.09 -13.49,29.53 -33.15,58.22 -59.72,75.97 -0.01,-0.01 -0.01,-0.01 -0.01,0 -1.62,1.09 -3.27,2.13 -4.94,3.13 l -0.01,0 c -0.56,0.34 -1.12,0.67 -1.68,0.99 l -0.01,0 c -0.56,0.33 -1.13,0.64 -1.69,0.96 0,0 -0.01,-0.01 -0.01,0 -0.57,0.31 -1.14,0.62 -1.72,0.92 -0.58,0.31 -1.16,0.61 -1.74,0.9 -0.58,0.3 -1.17,0.59 -1.75,0.87 -0.59,0.28 -1.18,0.56 -1.78,0.84 -3.57,1.64 -7.24,3.08 -11.01,4.32 -16.52,5.41 -32.64,6.37 -50.64,5.05 l 0,69.05 125.49,0 c 2.03,0 4.06,-1.67 6.06,-2.74 2.34,-1.25 4.61,-2.58 6.82,-3.99 33.17,-21.16 52.28,-59.86 62.26,-98.34 10.65,-41.04 13.28,-83.92 25.89,-124.4 12.61,-40.49 38.14,-80.26 78.02,-94.66 23.12,-8.35 48.38,-7.28 72.87,-9.44 18.87,-1.67 37.52,-5.4 55.6,-11.01 27.11,-8.42 52.93,-21.06 76.27,-37.25 8.74,-6.07 17.14,-12.64 25.13,-19.68 1.77,-1.57 3.53,-3.15 5.26,-4.76 C -5.06,4.98 -2.51,2.52 0,0"
                   style="fill:#000000;fill-opacity:1;fill-rule:nonzero;stroke:none"
                   id="path102"
                   inkscape:connector-curvature="0" /></g></g></g></g></g></g></g></svg>