<?xml version="1.0" encoding="utf-8"?>
<!DOCTYPE svg PUBLIC "-//W3C//DTD SVG 1.1//EN" "http://www.w3.org/Graphics/SVG/1.1/DTD/svg11.dtd">
<svg version="1.1" id="Layer_1" xmlns="http://www.w3.org/2000/svg" xmlns:xlink="http://www.w3.org/1999/xlink" x="0px" y="0px"
	 viewBox="0 0 1920 1920" enable-background="new 0 0 1920 1920" xml:space="preserve">
<g>
	<rect fill="#FFEA00" width="1920" height="1920"/>
	<path fill="#FFEA00" stroke="#FFEA00" stroke-width="0.0938" d="M1545.86,991.12c9.0601-7.43,18.9-13.92,27.9301-21.43
		c0.6499,1.13,1.3099,2.28,1.98,3.45c-8.8,7.09-18.41,13.48-28.87,17.75L1545.86,991.12z"/>
	<path fill="#FFEA00" stroke="#FFEA00" stroke-width="0.0938" d="M448.13,1020.95c1.89-1.76,3.76-3.54,5.69-5.26
		c13.88,11.35,28.4,21.89,43.13,32.1201C480.47,1039.23,464.04,1030.53,448.13,1020.95z"/>
	<path fill="#050505" stroke="#050505" stroke-width="0.0938" d="M1151.89,244c2.08-19.01,6.39-38.05,15.02-55.22
		c-1.85,10.67-4.04,21.3-4.7101,32.13c-1.7699,22.69,0.55,45.78,7.3501,67.52c5.86,17.81,15.6499,34.71,30.11,46.88
		c28.46,24.3,62.15,41.26,95.73,57.24c21.97,10.37,44.09,20.43,65.88,31.19c14.37,7.36,28.58,15.06,43.29,21.74
		c36.0599,17.06,72.83,33.33,105.6599,56.28c17.4301,12.2,33.65,26.4,46.73,43.25c16,21.35,27.37,47.2,27.88,74.17
		c-4.9399-16.34-12.0199-32.12-22.0599-45.98c-9.3301-13.15-21.47-23.98-34.09-33.87c-29.62-22.53-64.0601-37.34-98.01-52
		c-20.25-8.58-40.61-16.93-60.36-26.64c-16.4701-8.28-33.13-16.16-49.63-24.37c-38.01-18.62-76.9601-36.37-110.67-62.36
		c-12.0601-9.47-23.77-19.56-33.64-31.34c-12.71-15.88-20.38-35.38-23.58-55.37C1150.24,272.97,1150.7,258.39,1151.89,244z"/>
	<path fill="#050505" stroke="#050505" stroke-width="0.0938" d="M684.22,284.73c7.32,14.08,11.27,29.72,13.82,45.32
		c2.73,19.61,3.42,39.77-0.8,59.22c-4.13,19.93-12.91,39.18-26.76,54.24c-24.3,25.69-54.32,45.14-85.44,61.54
		c-17.98,9.61-36.48,18.19-54.74,27.24c-17.2,8.5-34.5,16.8-51.67,25.35c-38.81,18.67-79.64,32.96-117.69,53.25
		c-18.02,9.62-35.44,20.66-50.6,34.43c-11.45,9.67-21.16,21.34-28.78,34.24c-6.75,11.14-11.43,23.35-15.38,35.72
		c0.47-19.9,6.89-39.32,16.46-56.64c15.21-27.7,39.77-48.91,65.83-66.11c36.74-24.13,77.54-40.89,116.85-60.22
		c15.64-8.15,31.27-16.34,47.32-23.66c43.25-20.8,88.34-39.05,127.01-68c8.22-6.36,16.59-12.75,23.08-20.94
		c13.43-16.44,20.95-37.02,24.16-57.84C691.5,336.32,689.57,310.01,684.22,284.73z"/>
	<path fill="#050505" stroke="#050505" stroke-width="0.0938" d="M1203.95,539.02c44.5601-2.6,89.67,0.31,133.05,11.17
		c7.0601,2.66,13.21,7.28,19.71,11.08c34.02,21.73,64.5701,48.47,93.0601,76.97c27.25,27.65,52.66,57.17,75.2999,88.72
		c12.0701,17,23.5601,34.53,32.63,53.34c3.75,8.13,7.54,16.49,8.5701,25.48c-12.21-13.8101-23.5801-28.38-36.09-41.9301
		c-25.1101-28.27-52.7401-54.41-83.4-76.6c-17.85-13.15-36.49-25.2-55.5901-36.44c-14.47-8.31-28.7799-16.95-43.8799-24.08
		c-40.0601-17.63-82.5-28.79-124.13-41.99c-31.5-9.84-62.9501-20.35-92.7001-34.77C1154.55,544.01,1179.23,540.73,1203.95,539.02z"
		/>
	<path fill="#050505" stroke="#050505" stroke-width="0.0938" d="M648.29,553.28c8.77-4.46,17.72-9.44,27.67-10.41
		c15.95-0.8,31.92,0.08,47.8,1.66c25.04,2.62,49.89,7.1899,74.23,13.64c17.11,4.65,34.13,9.99,50.26,17.44
		c-53.88,8.52-107.12,20.91-159.47,36.21c-38.01,11.25-76.17,23.84-109.98,44.98c-35.02,20.62-69.75,41.78-103.4,64.59
		c-34.01,22.95-66.79,47.64-99.11,72.88c-8.94,6.83-17.58,14.03-26.6,20.74c3.32-8.74,9.28-16.09,14.95-23.39
		c10.29-12.62,21.42-24.55,32.9-36.09c28.67-29.05,59.06-56.34,90-82.94c31.04-26.5,62.78-52.2,95.63-76.4301
		C604.17,580.85,625.47,565.79,648.29,553.28z"/>
	<path fill="#050505" d="M1549.65,918.29c17.87-1.19,35.36,5.29,50.15,14.93c30.37,20.16,50.85,54.61,53.88,90.97
		c0.4299,6.2301,0.3199,12.5-0.51,18.7001c-22.29-8.6801-40.9601-24.48-56.74-42.14c-2.42,7.56-5.9301,14.77-8.14,22.38
		c-5.55,49.7-10.3201,99.51-17.8101,148.97c-6.66,43.05-14.77,85.9501-26.3099,127.98c-12.13,44.04-27.78,87.1801-47.8501,128.25
		c-16.8899,35.2001-37.87,68.37-61.74,99.25c-22.24,29.12-48,55.4401-75.95,79.0801c-30.1901,25.97-63.98,47.48-99.23,65.86
		c-60.9501,31.33-127.53,51.49-195.4401,60.2999c74.23-30.4299,147.2101-65.83,211.4501-114.3899
		c0.4199-0.37,1.26-1.1101,1.6799-1.4801c-5.6799,2.87-10.7999,6.7201-16.4199,9.7101c-38.75,22.3099-81.4301,37.63-125.4301,45.46
		c-50.21,9-101.8099,8.7-152.27,1.8c-45.35-5.9401-89.86-18.0901-132.02-35.8401c-9.15-3.62-17.85-8.3099-26.98-11.96
		c34.5,19.9401,71.4901,35.7,110.04,45.88c59.87,15.96,122.58,19.49,184.17,14.35c8.38-0.39,16.6399-2.0499,25.0299-2.25
		c-86.5699,32.35-183.8799,36.26-272.3,8.86c-41.0699-12-79.66-31.35-115.7-54.2c-30.98-19.92-59.55-43.41-86.13-68.86
		c-28.88-27.3201-54.54-57.86-78.18-89.77c-47.3-63.99-84.9-134.79-114.51-208.55c-28.16-70-49.26-143.0699-60.19-217.7899
		c4.66,9.95,8.33,20.36,12.8,30.4099c0.36,0.52,1.09,1.5601,1.45,2.0801c-2.82-14.73-6.39-29.35-8.37-44.25
		c-17.46,12.86-36.19,24.01-55.82,33.23c-20.35,9.05-41.63,17.37-64.14,18.41c25.19-39.36,59.78-72.0701,98.35-98.17
		c23.3-15.66,48.38-28.83,74.97-37.96c10.18-3.33,20.58-6.12,31.22-7.48c-12.63,23.6-29.99,44.52-49.64,62.61
		c79.08,41.32,164.72,71.8901,253.72,81.9c54.8,6.79,110.2,6.27,165.26,3.42c49.75-2.8,99.4-7.12,149.0699-11.09
		c96.75-8.0701,193.3401-19.3201,288.87-36.8201c87.8401-16.48,175.26-40.0499,255.1201-80.96c0.9199-0.73,2.59-0.88,2.9299-2.16
		C1562.88,951.6,1555.05,935.34,1549.65,918.29 M1545.86,991.12c-1.95,0.27-3.4,1.71-4.91,2.82c2.13-0.68,4.25-1.53,5.9501-3.05
		c10.46-4.27,20.0699-10.66,28.87-17.75c-0.67-1.17-1.3301-2.32-1.98-3.45C1564.76,977.2,1554.92,983.69,1545.86,991.12
		 M448.13,1020.95c15.91,9.58,32.34,18.28,48.82,26.86c-14.73-10.2301-29.25-20.77-43.13-32.1201
		C451.89,1017.41,450.02,1019.19,448.13,1020.95 M1536.52,1162.5699c-1.77,8.15-4.16,16.1901-5.36,24.4601
		c3.26-10.88,6.1-21.87,9.01-32.85c2.2-8.75,4.95-17.37,6.6599-26.2401C1542.23,1139.09,1539.46,1150.9,1536.52,1162.5699
		 M802.36,1441.4c-18.09,9.01-35.51,19.7999-50.29,33.6799c-9.9,9.61-19.04,20.9-22.51,34.53c-2.83,10.2001-0.4,21.49,5.87,29.96
		c9.48,13.04,23.33,22.03,37.27,29.6901c35.92,18.77,75.36,29.4399,114.68,38.42c47.76,10.45,96.31,17.2899,145.08,20.6899
		c23.8,1.5,47.7001,2.67,71.55,1.3c14.26-0.3201,28.52-2.0901,42.36-5.5901c21.1801-5.09,42.3101-10.46,63.21-16.6
		c36.25-10.85,72.38-23.08,105.7201-41.2c14.75-8.25,29.1399-17.8101,40.1-30.85c5.71-7.2401,10.46-15.9501,10.38-25.41
		c0.36-9.48-4.48-18.3101-10.52-25.28c-9.3201-10.14-21.28-17.4399-33.63-23.3c-22.01-10.3199-45.73-16.46-69.59-20.6899
		c-44.23-7.49-90.04-7.74-133.88,2.4301c-40.77,9.3999-79.2001,28.1399-112.34,53.6c-13.9,10.2899-26.29,22.38-38.91,34.14
		c12.36-19.62,25.39-39.37,32.02-61.8201c1.76-7.12,3.45-15.5599-0.98-22.0599c-6.03-8.27-14.09-14.9501-22.95-20.01
		c-14.96-8.47-32.12-12.15-49.13-13.39C883.15,1411.5601,840.68,1423.0699,802.36,1441.4z"/>
	<path fill="#EF3536" stroke="#EF3536" stroke-width="0.0938" d="M1540.95,993.94c1.51-1.11,2.9601-2.55,4.91-2.82l1.04-0.23
		C1545.2,992.41,1543.08,993.26,1540.95,993.94z"/>
	<path fill="#EF3536" stroke="#EF3536" stroke-width="0.0938" d="M1536.52,1162.5699c2.9399-11.6699,5.71-23.48,10.3099-34.63
		c-1.71,8.8701-4.46,17.4901-6.6599,26.2401c-2.91,10.98-5.75,21.97-9.01,32.85C1532.36,1178.76,1534.75,1170.72,1536.52,1162.5699z
		"/>
	<path fill="#EF3536" stroke="#EF3536" stroke-width="0.0938" d="M802.36,1441.4c38.32-18.3301,80.79-29.84,123.51-27.76
		c17.01,1.24,34.17,4.92,49.13,13.39c8.86,5.0599,16.92,11.74,22.95,20.01c4.43,6.5,2.74,14.9399,0.98,22.0599
		c-6.63,22.4501-19.66,42.2001-32.02,61.8201c12.6201-11.76,25.01-23.8501,38.91-34.14c33.14-25.4601,71.57-44.2001,112.34-53.6
		c43.84-10.17,89.65-9.92,133.88-2.4301c23.86,4.23,47.58,10.37,69.59,20.6899c12.35,5.8601,24.3099,13.16,33.63,23.3
		c6.04,6.97,10.88,15.8,10.52,25.28c0.08,9.46-4.67,18.1699-10.38,25.41c-10.9601,13.0399-25.35,22.6-40.1,30.85
		c-33.3401,18.12-69.4701,30.35-105.7201,41.2c-20.8999,6.14-42.0299,11.51-63.21,16.6c-13.84,3.5-28.1,5.27-42.36,5.5901
		c-23.85,1.37-47.75,0.2-71.55-1.3c-48.77-3.4-97.3199-10.24-145.08-20.6899c-39.32-8.9801-78.76-19.65-114.68-38.42
		c-13.94-7.66-27.79-16.65-37.27-29.6901c-6.27-8.47-8.7-19.7599-5.87-29.96c3.47-13.63,12.61-24.92,22.51-34.53
		C766.85,1461.2,784.27,1450.41,802.36,1441.4z"/>
</g>
</svg>
