<?xml version="1.0" encoding="UTF-8" standalone="no"?>
<!-- Created with Inkscape (http://www.inkscape.org/) -->
<!-- ClipArt by Arvin61r58 (http://openclipart.org/user-detail/Arvin61r58) -->
<svg
   xmlns:dc="http://purl.org/dc/elements/1.1/"
   xmlns:cc="http://creativecommons.org/ns#"
   xmlns:rdf="http://www.w3.org/1999/02/22-rdf-syntax-ns#"
   xmlns:svg="http://www.w3.org/2000/svg"
   xmlns="http://www.w3.org/2000/svg"
   width="330"
   height="330"
   viewBox="0 0 330 330.00001"
   id="svg4224"
   version="1.1">
  <title
     id="title4798">Decorative Square 3</title>
  <defs
     id="defs4226" />
  <metadata
     id="metadata4229">
    <rdf:RDF>
      <cc:Work
         rdf:about="">
        <dc:format>image/svg+xml</dc:format>
        <dc:type
           rdf:resource="http://purl.org/dc/dcmitype/StillImage" />
        <dc:title>Decorative Square 3</dc:title>
        <dc:creator>
          <cc:Agent>
            <dc:title>Arvin61r58</dc:title>
          </cc:Agent>
        </dc:creator>
        <dc:publisher>
          <cc:Agent>
            <dc:title>Openclipart.org</dc:title>
          </cc:Agent>
        </dc:publisher>
        <dc:identifier>https://openclipart.org/</dc:identifier>
        <dc:source>https://openclipart.org/user-detail/Arvin61r58</dc:source>
        <dc:subject>
          <rdf:Bag>
            <rdf:li>decoration</rdf:li>
            <rdf:li>decorative</rdf:li>
            <rdf:li>design</rdf:li>
            <rdf:li>ornament</rdf:li>
            <rdf:li>square</rdf:li>
            <rdf:li>pattern</rdf:li>
            <rdf:li>emblem</rdf:li>
            <rdf:li />
          </rdf:Bag>
        </dc:subject>
        <dc:description>decorative square ornament</dc:description>
        <cc:license
           rdf:resource="http://creativecommons.org/publicdomain/zero/1.0/" />
      </cc:Work>
      <cc:License
         rdf:about="http://creativecommons.org/publicdomain/zero/1.0/">
        <cc:permits
           rdf:resource="http://creativecommons.org/ns#Reproduction" />
        <cc:permits
           rdf:resource="http://creativecommons.org/ns#Distribution" />
        <cc:permits
           rdf:resource="http://creativecommons.org/ns#DerivativeWorks" />
      </cc:License>
    </rdf:RDF>
  </metadata>
  <g
     id="layer1"
     transform="translate(-239.09525,-387.36223)">
    <title
       id="title4736">Decorative Square  --  by Arvin61r58</title>
    <g
       transform="matrix(1.7647059,0,0,1.7647059,95.271717,-187.68874)"
       id="g5108">
      <rect
         style="opacity:1;fill:#ffffff;fill-opacity:1;fill-rule:nonzero;stroke:#000000;stroke-width:8.50000095;stroke-miterlimit:4;stroke-dasharray:none;stroke-opacity:1"
         id="rect4959"
         width="161.5"
         height="161.5"
         x="94.25"
         y="338.61221" />
      <path
         id="rect4957"
         d="m 104.16602,348.5293 0,4.25 0,137.41601 141.66796,0 0,-141.66601 -141.66796,0 z m 35.21484,8.5 28.66211,0 -26.38672,26.67187 c -14.56547,14.71919 -27.61251,26.75586 -28.99023,26.75586 l 0,-26.71289 26.71484,0 0,-26.71484 z m 42.57617,0 28.66211,0 0,26.71484 26.71484,0 0,26.71289 c -1.37771,0 -14.42473,-12.03667 -28.99023,-26.75586 L 181.95703,357.0293 Z M 175,374.83789 c 16.8201,0 17.80859,0.74219 17.80859,13.35742 0,11.87289 1.48442,13.35742 13.35743,13.35742 12.61511,0 13.35742,0.98859 13.35742,17.8086 0,16.82002 -0.74231,17.81055 -13.35742,17.81055 -11.87301,0 -13.35743,1.48453 -13.35743,13.35742 0,12.61523 -0.98849,13.35742 -17.80859,13.35742 -16.8201,0 -17.80859,-0.74219 -17.80859,-13.35742 0,-11.87289 -1.48441,-13.35742 -13.35743,-13.35742 -12.61509,0 -13.35742,-0.99053 -13.35742,-17.81055 0,-16.82001 0.74233,-17.8086 13.35742,-17.8086 11.87302,0 13.35743,-1.48453 13.35743,-13.35742 0,-12.61523 0.98849,-13.35742 17.80859,-13.35742 z m 0,31.16797 c -11.87303,0 -13.35742,1.48256 -13.35742,13.35547 0,11.87292 1.48439,13.35742 13.35742,13.35742 11.873,0 13.35742,-1.4845 13.35742,-13.35742 0,-11.87291 -1.48442,-13.35547 -13.35742,-13.35547 z m -62.33398,20.125 27.73828,27.73828 27.72851,27.73633 -0.0898,0.0879 13.91406,0 -0.0898,-0.0879 27.72851,-27.73633 27.73828,-27.73828 0,28.84961 -26.71484,0 0,26.71484 -71.23828,0 0,-26.71484 -26.71484,0 0,-28.84961 z"
         style="color:#000000;font-style:normal;font-variant:normal;font-weight:normal;font-stretch:normal;font-size:medium;line-height:normal;font-family:sans-serif;text-indent:0;text-align:start;text-decoration:none;text-decoration-line:none;text-decoration-style:solid;text-decoration-color:#000000;letter-spacing:normal;word-spacing:normal;text-transform:none;direction:ltr;block-progression:tb;writing-mode:lr-tb;baseline-shift:baseline;text-anchor:start;white-space:normal;clip-rule:nonzero;display:inline;overflow:visible;visibility:visible;opacity:1;isolation:auto;mix-blend-mode:normal;color-interpolation:sRGB;color-interpolation-filters:linearRGB;solid-color:#000000;solid-opacity:1;fill:#000000;fill-opacity:1;fill-rule:nonzero;stroke:none;stroke-width:8.50000095;stroke-linecap:butt;stroke-linejoin:miter;stroke-miterlimit:4;stroke-dasharray:none;stroke-dashoffset:0;stroke-opacity:1;color-rendering:auto;image-rendering:auto;shape-rendering:auto;text-rendering:auto;enable-background:accumulate" />
    </g>
  </g>
</svg>
