<?xml version="1.0" encoding="UTF-8" standalone="no"?>
<!-- Created with Inkscape (http://www.inkscape.org/) -->
<!-- ClipArt by Arvin61r58 (http://openclipart.org/user-detail/Arvin61r58) -->
<svg
   xmlns:dc="http://purl.org/dc/elements/1.1/"
   xmlns:cc="http://creativecommons.org/ns#"
   xmlns:rdf="http://www.w3.org/1999/02/22-rdf-syntax-ns#"
   xmlns:svg="http://www.w3.org/2000/svg"
   xmlns="http://www.w3.org/2000/svg"
   width="330"
   height="330"
   viewBox="0 0 330 330.00001"
   id="svg4224"
   version="1.1">
  <title
     id="title4798">Decorative Square 5</title>
  <defs
     id="defs4226" />
  <metadata
     id="metadata4229">
    <rdf:RDF>
      <cc:Work
         rdf:about="">
        <dc:format>image/svg+xml</dc:format>
        <dc:type
           rdf:resource="http://purl.org/dc/dcmitype/StillImage" />
        <dc:title>Decorative Square 5</dc:title>
        <dc:creator>
          <cc:Agent>
            <dc:title>Arvin61r58</dc:title>
          </cc:Agent>
        </dc:creator>
        <dc:publisher>
          <cc:Agent>
            <dc:title>Openclipart.org</dc:title>
          </cc:Agent>
        </dc:publisher>
        <dc:identifier>https://openclipart.org/</dc:identifier>
        <dc:source>https://openclipart.org/user-detail/Arvin61r58</dc:source>
        <dc:subject>
          <rdf:Bag>
            <rdf:li>decoration</rdf:li>
            <rdf:li>decorative</rdf:li>
            <rdf:li>design</rdf:li>
            <rdf:li>ornament</rdf:li>
            <rdf:li>square</rdf:li>
            <rdf:li>pattern</rdf:li>
            <rdf:li>emblem</rdf:li>
            <rdf:li />
          </rdf:Bag>
        </dc:subject>
        <dc:description>decorative square ornament</dc:description>
        <cc:license
           rdf:resource="http://creativecommons.org/publicdomain/zero/1.0/" />
      </cc:Work>
      <cc:License
         rdf:about="http://creativecommons.org/publicdomain/zero/1.0/">
        <cc:permits
           rdf:resource="http://creativecommons.org/ns#Reproduction" />
        <cc:permits
           rdf:resource="http://creativecommons.org/ns#Distribution" />
        <cc:permits
           rdf:resource="http://creativecommons.org/ns#DerivativeWorks" />
      </cc:License>
    </rdf:RDF>
  </metadata>
  <g
     id="layer1"
     transform="translate(-239.09525,-387.36223)">
    <title
       id="title5889">Decorative Square  --  by Arvin61r58</title>
    <g
       id="g5143"
       transform="matrix(1.7647059,0,0,1.7647059,93.744607,-534.7163)">
      <path
         id="path5134"
         d="m 90.865365,616.01116 0,-85 84.999995,0 85,0 0,85 0,85 -85,0 -84.999995,0 0,-85 z"
         style="fill:#000000" />
      <path
         id="path5132"
         d="m 246.69869,616.01116 0,-70.83333 -70.83333,0 -70.83333,0 0,70.83333 0,70.83333 70.83333,0 70.83333,0 0,-70.83333 z"
         style="fill:#000000;stroke:#ffffff;stroke-width:8" />
      <path
         id="path5128"
         d="m 119.19934,559.34417 0,10.625 0,10.625 8.41016,0.10743 c 7.92574,0.1003 8.97518,0.70661 18.15234,10.51757 9.53808,10.19682 15.9375,13.35757 15.9375,7.8711 0,-1.5149 -4.78125,-7.44774 -10.625,-13.1836 -9.90493,-9.7221 -10.625,-10.974 -10.625,-18.49414 l 0,-8.06836 -10.625,0 -10.625,0 z m 56.66602,0 c -11.60003,0 -19.32943,16.74766 -10.625,23.02149 2.07978,1.499 3.54102,4.5845 3.54102,7.47461 0,4.56129 0.51918,4.92187 7.08398,4.92187 6.56478,0 7.08398,-0.36058 7.08398,-4.92187 0,-2.89012 1.46121,-5.97561 3.54102,-7.47461 8.70443,-6.27383 0.97504,-23.02149 -10.625,-23.02149 z m 35.41602,0 0,8.06836 c 0,7.52014 -0.72007,8.77204 -10.625,18.49414 -5.84375,5.73586 -10.625,11.6687 -10.625,13.1836 0,5.39549 5.65955,2.60014 15.9375,-7.8711 9.7221,-9.90493 10.97594,-10.625 18.49609,-10.625 l 8.06641,0 0,-10.625 0,-10.625 -10.625,0 -10.625,0 z m -77.17774,42.31641 c -6.98574,0.2325 -14.9043,6.37014 -14.9043,14.33398 0,11.69034 16.69956,19.41118 23.01954,10.64258 1.49903,-2.07967 4.58446,-3.54297 7.47461,-3.54297 4.56127,0 4.92187,-0.5172 4.92187,-7.08203 0,-6.56478 -0.3606,-7.08398 -4.92187,-7.08398 -2.89015,0 -5.97558,-1.46124 -7.47461,-3.54102 -1.95862,-2.71743 -4.9399,-3.83224 -8.11524,-3.72656 z m 41.76172,0.18359 c -5.9028,0 -7.08398,0.59157 -7.08398,3.54297 0,2.3611 -1.17992,3.54102 -3.54102,3.54102 -2.9514,0 -3.54102,1.18118 -3.54102,7.08398 0,5.90268 0.58962,7.08203 3.54102,7.08203 2.3611,0 3.54102,1.18195 3.54102,3.54297 0,2.95147 1.18118,3.54102 7.08398,3.54102 5.90277,0 7.08398,-0.58955 7.08398,-3.54102 0,-2.36103 1.17989,-3.54297 3.54102,-3.54297 2.95137,0 3.54102,-1.17935 3.54102,-7.08203 0,-5.9028 -0.58965,-7.08398 -3.54102,-7.08398 -2.36113,0 -3.54102,-1.17992 -3.54102,-3.54102 0,-2.9514 -1.18121,-3.54297 -7.08398,-3.54297 z m 42.08594,0 c -3.85605,0 -6.76756,1.22335 -8.43946,3.54297 -1.49903,2.07978 -4.58449,3.54102 -7.47461,3.54102 -4.56129,0 -4.92187,0.5192 -4.92187,7.08398 0,6.56483 0.36057,7.08203 4.92187,7.08203 2.89011,0 5.97558,1.4633 7.47461,3.54297 3.68436,5.11162 13.16583,4.70332 18.67383,-0.80468 8.96127,-8.96127 2.55025,-23.98829 -10.23437,-23.98829 z m -59.00586,28.33399 c -1.51487,0 -7.44774,4.78125 -13.1836,10.625 -9.7221,9.90505 -10.97597,10.625 -18.49609,10.625 l -8.06641,0 0,10.625 0,10.625 10.625,0 10.625,0 0,-8.06641 c 0,-7.52023 0.72007,-8.77408 10.625,-18.49609 10.47124,-10.27792 13.26662,-15.9375 7.8711,-15.9375 z m 33.84179,0 c -5.39548,0 -2.60209,5.65958 7.86915,15.9375 9.90493,9.72201 10.625,10.97586 10.625,18.49609 l 0,8.06641 10.625,0 10.625,0 0,-10.625 0,-10.625 -8.06641,0 c -7.52012,0 -8.77399,-0.71995 -18.49609,-10.625 -5.73589,-5.84375 -11.66677,-10.625 -13.18165,-10.625 z m -16.92187,7.08398 c -6.5648,0 -7.08398,0.35882 -7.08398,4.91992 0,2.89028 -1.46124,5.9755 -3.54102,7.47461 -4.91768,3.5445 -4.68976,13.06633 0.44336,18.54883 5.44289,5.81344 14.25889,5.8701 20.00195,0.12891 l 0,-0.002 c 5.508,-5.508 5.91645,-14.99132 0.80469,-18.67579 -2.07981,-1.49911 -3.54102,-4.58433 -3.54102,-7.47461 0,-4.5611 -0.5192,-4.91992 -7.08398,-4.91992 z"
         style="fill:#ffffff" />
    </g>
  </g>
</svg>
