<?xml version="1.0"?>
<svg xmlns:rdf="http://www.w3.org/1999/02/22-rdf-syntax-ns#" xmlns="http://www.w3.org/2000/svg" xmlns:cc="http://creativecommons.org/ns#" xmlns:xlink="http://www.w3.org/1999/xlink" xmlns:dc="http://purl.org/dc/elements/1.1/" xmlns:svg="http://www.w3.org/2000/svg" id="svg11880" viewBox="0 0 747.49 744.62" version="1.1">
  <defs id="defs3">
    <filter id="filter5170-7" color-interpolation-filters="sRGB">
      <feGaussianBlur id="feGaussianBlur5172-4" stdDeviation="4.4714285"/>
    </filter>
    <radialGradient id="radialGradient5185-0" gradientUnits="userSpaceOnUse" cy="-329.12" cx="77.699" gradientTransform="matrix(1.3758 .37675 -.33041 1.2066 -152.78 55.906)" r="223.57">
      <stop id="stop4986-0" stop-color="#f60" offset="0"/>
      <stop id="stop4988-3" stop-color="#f60" stop-opacity="0" offset="1"/>
    </radialGradient>
    <linearGradient id="linearGradient5162-2" y2="-121.92" gradientUnits="userSpaceOnUse" x2="-11.429" y1="-724.78" x1="140">
      <stop id="stop5144-5" stop-color="#fff" offset="0"/>
      <stop id="stop5146-0" stop-color="#fff" stop-opacity="0" offset="1"/>
    </linearGradient>
    <radialGradient id="radialGradient5028-2" gradientUnits="userSpaceOnUse" cy="-297.72" cx="64.527" gradientTransform="matrix(2.4142 .50374 -.55211 2.6461 -263.02 454.79)" r="107.86">
      <stop id="stop5008-7" stop-color="#520" stop-opacity="0" offset="0"/>
      <stop id="stop5010-3" stop-color="#803300" offset="1"/>
    </radialGradient>
    <filter id="filter5050-2" color-interpolation-filters="sRGB">
      <feGaussianBlur id="feGaussianBlur5052-4" stdDeviation="4.5794576"/>
    </filter>
    <radialGradient id="radialGradient5062-6" gradientUnits="userSpaceOnUse" cy="-391.74" cx="85.641" gradientTransform="matrix(-.069620 1.0443 -.99742 -.066495 -306.2 -477.41)" r="102.6">
      <stop id="stop5058-8" stop-color="#ff0" offset="0"/>
      <stop id="stop5060-0" stop-color="#ff0" stop-opacity="0" offset="1"/>
    </radialGradient>
    <linearGradient id="linearGradient20011" y2="-264.78" gradientUnits="userSpaceOnUse" x2="72.857" y1="-381.92" x1="112.86">
      <stop id="stop5131-7" stop-color="#fff" offset="0"/>
      <stop id="stop5133-9" stop-color="#fff" stop-opacity="0" offset="1"/>
    </linearGradient>
  </defs>
  <g id="g5174" transform="matrix(1.503 0 0 1.503 273.41 829.74)">
    <path id="path5164" filter="url(#filter5170-7)" d="m-78.855-484.21c47.698 16.077 90.416 74.635 56.582 132.29 23.586-14.717 45.459-28.445 75.277-46.76-6.3527-65.932-59.986-108.01-131.86-85.529zm279.92 354.7c-47.698-16.077-90.416-74.635-56.582-132.29-23.586 14.717-45.459 28.445-75.277 46.76 6.3527 65.932 59.986 108.01 131.86 85.529zm-349.85-260.96c49.347-9.9258 115.62 19.428 115.15 86.275 13.068-24.539 25.146-47.364 41.811-78.134-38.468-53.923-105.95-63.546-156.96-8.141zm419.77 167.22c-49.347 9.9258-115.62-19.428-115.15-86.275-13.068 24.539-25.146 47.364-41.811 78.134 38.468 53.923 105.95 63.546 156.96 8.141zm-433.46-51.074c37.772-33.269 109.84-40.985 142.86 17.143-0.95238-27.785-1.9048-53.591-2.8571-88.571-60.276-27.465-123.53-2.0554-140 71.429zm447.14-65.071c-37.772 33.269-109.84 40.985-142.86-17.143 0.95238 27.785 1.9048 53.591 2.8571 88.571 60.276 27.465 123.53 2.0554 140-71.429zm-400.92 172.5c16.077-47.698 74.635-90.416 132.29-56.582-14.717-23.586-28.445-45.459-46.76-75.277-65.932 6.3527-108.01 59.986-85.529 131.86zm354.7-279.92c-16.077 47.698-74.635 90.416-132.29 56.582 14.717 23.586 28.445 45.459 46.76 75.277 65.932-6.3527 108.01-59.986 85.529-131.86zm-260.94 349.84c-9.9258-49.347 19.428-115.62 86.275-115.15-24.539-13.068-47.364-25.146-78.134-41.811-53.923 38.468-63.546 105.95-8.141 156.96zm167.22-419.77c9.9258 49.347-19.428 115.62-86.275 115.15 24.539 13.068 47.364 25.146 78.134 41.811 53.923-38.468 63.546-105.95 8.141-156.96zm-51.078 433.45c-33.269-37.773-40.985-109.84 17.148-142.85-27.785 0.95238-53.591 1.9048-88.571 2.8571-27.465 60.276-2.0554 123.53 71.429 140zm-65.071-447.14c33.269 37.772 40.985 109.84-17.143 142.86 27.785-0.95238 53.591-1.9048 88.571-2.8571 27.465-60.276 2.0554-123.53-71.429-140z"/>
    <path id="path4979" fill="#ff0" d="m-78.855-481.42c47.698 16.077 90.416 74.635 56.582 132.29 23.586-14.717 45.459-28.445 75.277-46.76-6.3527-65.932-59.986-108.01-131.86-85.529zm279.92 354.7c-47.698-16.077-90.416-74.635-56.582-132.29-23.586 14.717-45.459 28.445-75.277 46.76 6.3527 65.932 59.986 108.01 131.86 85.529zm-349.85-260.96c49.347-9.9258 115.62 19.428 115.15 86.275 13.068-24.539 25.146-47.364 41.811-78.134-38.468-53.923-105.95-63.546-156.96-8.141zm419.77 167.22c-49.347 9.9258-115.62-19.428-115.15-86.275-13.068 24.539-25.146 47.364-41.811 78.134 38.468 53.923 105.95 63.546 156.96 8.141zm-433.46-51.074c37.772-33.269 109.84-40.985 142.86 17.143-0.95238-27.785-1.9048-53.591-2.8571-88.571-60.276-27.465-123.53-2.0554-140 71.429zm447.14-65.071c-37.772 33.269-109.84 40.985-142.86-17.143 0.95238 27.785 1.9048 53.591 2.8571 88.571 60.276 27.465 123.53 2.0554 140-71.429zm-400.92 172.5c16.077-47.698 74.635-90.416 132.29-56.582-14.717-23.586-28.445-45.459-46.76-75.277-65.932 6.3527-108.01 59.986-85.529 131.86zm354.7-279.92c-16.077 47.698-74.635 90.416-132.29 56.582 14.717 23.586 28.445 45.459 46.76 75.277 65.932-6.3527 108.01-59.986 85.529-131.86zm-260.94 349.84c-9.9258-49.347 19.428-115.62 86.275-115.15-24.539-13.068-47.364-25.146-78.134-41.811-53.923 38.468-63.546 105.95-8.141 156.96zm167.22-419.77c9.9258 49.347-19.428 115.62-86.275 115.15 24.539 13.068 47.364 25.146 78.134 41.811 53.923-38.468 63.546-105.95 8.141-156.96zm-51.078 433.46c-33.269-37.775-40.985-109.84 17.148-142.86-27.785 0.95238-53.591 1.9048-88.571 2.8571-27.465 60.276-2.0554 123.53 71.429 140zm-65.071-447.14c33.269 37.772 40.985 109.84-17.143 142.86 27.785-0.95238 53.591-1.9048 88.571-2.8571 27.465-60.276 2.0554-123.53-71.429-140z"/>
    <path id="path4982" fill="url(#radialGradient5185-0)" d="m40.156-519.53c20.844 31.051 25.373 74.474 6.4062 107.66-7.616-31.211-30.456-59.932-62.469-68.062-16.096-4.3792-33.335-4.1299-49.625-0.59375 34.265 16.425 59.494 51.679 60.438 90.25-21.586-21.511-53.384-35.685-84.138-28.591-17.866 3.7352-34.115 13.046-47.518 25.279 38.224-2.9083 78.086 15.446 97.781 48.688-33.015-10.822-73.312-2.6169-95.656 24.875-9.3624 10.785-15.99 23.746-20.375 37.344 31.212-21.269 74.819-25.902 108.28-6.8438-32.117 7.7848-61.617 32.04-68.761 65.254-3.6742 15.354-3.2004 31.467 0.13628 46.839 16.549-34.374 52.251-60.427 91.312-59.875-29.644 24.561-40.787 70.345-22.281 105.03 4.5515 9.4214 10.791 18.258 17.906 26.062-2.8517-38.041 15.151-78.162 48.719-97.406-11.698 34.618-1.2908 76.949 28.844 98.562 9.8878 7.6502 21.404 13.235 33.344 17.125-21.277-31.222-25.925-74.826-6.8438-108.31 7.7158 31.428 30.808 60.347 63.062 68.219 15.915 4.2093 32.928 3.9651 49 0.40625-34.352-16.531-60.407-52.244-59.844-91.312 24.579 29.792 70.483 40.708 105 22.281 9.5388-4.6559 18.256-10.707 26.062-17.906-37.936 2.8252-77.828-15.002-97.219-48.344 31.782 9.7307 70 2.9741 92.604-22.373 10.537-11.257 18.199-25.389 22.896-40.19-31.181 21.283-74.817 25.956-108.28 6.8438 31.915-7.7548 61.086-31.55 68.562-64.375 3.8085-15.536 3.5232-32.049 0.0625-47.688-16.542 34.349-52.269 60.463-91.312 59.844 29.652-24.498 40.674-70.235 22.438-104.69-4.74-9.631-10.769-18.488-18.094-26.406 2.8944 38.071-15.109 78.172-48.688 97.438 11.759-34.842 1.1147-77.438-29.406-99.031-9.8551-7.3873-21.124-12.967-32.781-16.625l0.4375 0.625zm41.344 128.12c13.712 7.8452 28.361 14.288 41.531 22.875 7.8588 13.281 17.001 25.918 23.969 39.625 0.13163 15.415 1.8359 30.921 0.875 46.281-7.6272 13.374-13.925 27.664-22.312 40.5-13.283 7.9212-25.999 17.011-39.656 23.969-15.395 0.15375-30.879 1.7543-46.219 0.84375-13.443-7.5618-27.649-13.916-40.531-22.281-7.8729-13.253-16.956-25.915-23.938-39.594-0.13468-15.426-1.8289-30.94-0.875-46.312 7.6221-13.376 13.928-27.643 22.281-40.5 13.248-7.8753 25.927-16.918 39.562-23.969 15.103-0.51137 30.207-1.0122 45.312-1.4375z"/>
    <path id="path5150" fill="url(#radialGradient5185-0)" d="m40.156-519.53c20.844 31.051 25.373 74.474 6.4062 107.66-7.616-31.211-30.456-59.932-62.469-68.062-16.096-4.3792-33.335-4.1299-49.625-0.59375 34.265 16.425 59.494 51.679 60.438 90.25-21.586-21.511-53.384-35.685-84.138-28.591-17.866 3.7352-34.115 13.046-47.518 25.279 38.224-2.9083 78.086 15.446 97.781 48.688-33.015-10.822-73.312-2.6169-95.656 24.875-9.3624 10.785-15.99 23.746-20.375 37.344 31.212-21.269 74.819-25.902 108.28-6.8438-32.117 7.7848-61.617 32.04-68.761 65.254-3.6742 15.354-3.2004 31.467 0.13628 46.839 16.549-34.374 52.251-60.427 91.312-59.875-29.644 24.561-40.787 70.345-22.281 105.03 4.5515 9.4214 10.791 18.258 17.906 26.062-2.8517-38.041 15.151-78.162 48.719-97.406-11.698 34.618-1.2908 76.949 28.844 98.562 9.8878 7.6502 21.404 13.235 33.344 17.125-21.277-31.222-25.925-74.826-6.8438-108.31 7.7158 31.428 30.808 60.347 63.062 68.219 15.915 4.2093 32.928 3.9651 49 0.40625-34.352-16.531-60.407-52.244-59.844-91.312 24.579 29.792 70.483 40.708 105 22.281 9.5388-4.6559 18.256-10.707 26.062-17.906-37.936 2.8252-77.828-15.002-97.219-48.344 31.782 9.7307 70 2.9741 92.604-22.373 10.537-11.257 18.199-25.389 22.896-40.19-31.181 21.283-74.817 25.956-108.28 6.8438 31.915-7.7548 61.086-31.55 68.562-64.375 3.8085-15.536 3.5232-32.049 0.0625-47.688-16.542 34.349-52.269 60.463-91.312 59.844 29.652-24.498 40.674-70.235 22.438-104.69-4.74-9.631-10.769-18.488-18.094-26.406 2.8944 38.071-15.109 78.172-48.688 97.438 11.759-34.842 1.1147-77.438-29.406-99.031-9.8551-7.3873-21.124-12.967-32.781-16.625l0.4375 0.625zm41.344 128.12c13.712 7.8452 28.361 14.288 41.531 22.875 7.8588 13.281 17.001 25.918 23.969 39.625 0.13163 15.415 1.8359 30.921 0.875 46.281-7.6272 13.374-13.925 27.664-22.312 40.5-13.283 7.9212-25.999 17.011-39.656 23.969-15.395 0.15375-30.879 1.7543-46.219 0.84375-13.443-7.5618-27.649-13.916-40.531-22.281-7.8729-13.253-16.956-25.915-23.938-39.594-0.13468-15.426-1.8289-30.94-0.875-46.312 7.6221-13.376 13.928-27.643 22.281-40.5 13.248-7.8753 25.927-16.918 39.562-23.969 15.103-0.51137 30.207-1.0122 45.312-1.4375z"/>
    <path id="path5137" fill="url(#linearGradient5162-2)" d="m45.281-514c18.51 31.853 20.265 74.09 0.90625 105.94-7.1634-34-33.01-65.75-68.438-71.906-12.824-2.5925-26.069-2.1572-38.938-0.0937 33.956 17.933 57.858 54.506 57.75 93.312-22.15-23.475-56.644-38.93-89.094-29.875-14.905 3.6804-28.413 11.575-40.25 21.281 38.707-1.5022 78.29 18.809 97.094 52.906-33.173-12.192-74.584-4.7632-97.625 23 7.1051 6.0338 13.09 14.532 21.969 17.906 23.382-4.0281 48.243 0.26464 68.625 12.469-11.272 2.4843-22.126 6.6454-32.031 12.562 20.761 10.961 42.728 19.385 65.312 25.75-6.8243-12.461-18.736-23.721-17.031-39.031-0.23746-12.398-2.2616-25.35 0.17994-37.464 8.0301-13.361 13.337-28.737 23.307-40.668 13.535-7.5872 25.899-18.024 40.357-23.516 15.312 0.0113 30.988-2.1879 46.083-0.53538 13.583 8.2509 29.332 13.711 41.46 23.793 7.6534 13.618 18.188 25.986 23.52 40.515-0.22854 15.524 2.8769 31.55 0.0615 46.772-7.9605 13.329-13.234 28.492-23.124 40.385-2.885 0.4924-2.0655 4.4991 0.75 3.5625 16.414-1.1671 32.933-2.961 49.281-5.9688-6.6495-6.6834-12.136-14.113-16.781-22.312 34.144 11.848 76.748 3.4564 99.064-26.092 7.2996-9.1875 12.857-19.644 16.967-30.658-32.331 20.326-76.467 23.161-109.56 2.9375 34.252-7.1105 66.241-33.428 72.031-69.094 2.4966-12.593 1.9856-25.591 0-38.219-18.086 34.162-55.319 58.826-94.719 57.031 33.359-25.047 44.617-76.904 21.312-112.47-3.252-5.7898-7.2764-11.027-11.375-16.281 1.5274 38.635-18.38 78.305-52.844 96.75 14.577-37.88 0.71524-86.428-35.625-106.31-6.4777-4.09-13.437-7.2239-20.625-9.9375 0.67708 1.1875 1.3542 2.375 2.0312 3.5625z"/>
    <path id="path4957" d="m177.14-304.07a107.86 107.86 0 1 1 -215.71 0 107.86 107.86 0 1 1 215.71 0z" fill="#ff0" transform="matrix(.90066 0 0 .90066 -.97445 -32.348)"/>
    <path id="path5004" filter="url(#filter5050-2)" d="m61.938-397.75c-47.694-1.5871-91.664 40.395-92.098 88.187-1.8217 41.597 27.483 82.388 68.374 91.987 34.857 9.2401 75.041-3.8486 96.202-33.222 23.848-30.898 25.147-77.585 1.3765-108.89-16.81-23.12-44.821-38.59-73.852-38.06z" fill="url(#radialGradient5028-2)"/>
    <path id="path5054" filter="url(#filter5050-2)" d="m61.938-397.75c-47.694-1.5871-91.664 40.395-92.098 88.187-1.8217 41.597 27.483 82.388 68.374 91.987 34.857 9.2401 75.041-3.8486 96.202-33.222 23.848-30.898 25.147-77.585 1.3765-108.89-16.81-23.12-44.821-38.59-73.852-38.06z" fill="url(#radialGradient5062-6)"/>
    <path id="path5064" fill="url(#linearGradient20011)" d="m57.469-397.78c-16.906 0.39181-33.161 6.2013-47 15.656 4.6159 36.165 31.67 68.936 67.75 77.406 24.981 6.622 52.698 1.777 74.188-12.312-1.6869-15.341-7.1794-30.217-16.625-42.656-16.815-23.122-44.812-38.596-73.844-38.062-1.4904-0.0496-2.9868-0.0656-4.4688-0.0312z"/>
  </g>
  <metadata>
    <rdf:RDF>
      <cc:Work>
        <dc:format>image/svg+xml</dc:format>
        <dc:type rdf:resource="http://purl.org/dc/dcmitype/StillImage"/>
        <cc:license rdf:resource="http://creativecommons.org/licenses/publicdomain/"/>
        <dc:publisher>
          <cc:Agent rdf:about="http://openclipart.org/">
            <dc:title>Openclipart</dc:title>
          </cc:Agent>
        </dc:publisher>
        <dc:title>sum 04</dc:title>
        <dc:date>2010-10-18T22:37:37</dc:date>
        <dc:description>Sun Clip Art</dc:description>
        <dc:source>http://openclipart.org/detail/91387/sum-04-by-inky2010</dc:source>
        <dc:creator>
          <cc:Agent>
            <dc:title>inky2010</dc:title>
          </cc:Agent>
        </dc:creator>
        <dc:subject>
          <rdf:Bag>
            <rdf:li>Summer</rdf:li>
            <rdf:li>clip art</rdf:li>
            <rdf:li>clipart</rdf:li>
            <rdf:li>free</rdf:li>
            <rdf:li>fresh</rdf:li>
            <rdf:li>holiday</rdf:li>
            <rdf:li>icon</rdf:li>
            <rdf:li>inkscape</rdf:li>
            <rdf:li>inky2010</rdf:li>
            <rdf:li>logo</rdf:li>
            <rdf:li>rays</rdf:li>
            <rdf:li>shine</rdf:li>
            <rdf:li>sun</rdf:li>
          </rdf:Bag>
        </dc:subject>
      </cc:Work>
      <cc:License rdf:about="http://creativecommons.org/licenses/publicdomain/">
        <cc:permits rdf:resource="http://creativecommons.org/ns#Reproduction"/>
        <cc:permits rdf:resource="http://creativecommons.org/ns#Distribution"/>
        <cc:permits rdf:resource="http://creativecommons.org/ns#DerivativeWorks"/>
      </cc:License>
    </rdf:RDF>
  </metadata>
</svg>
