<?xml version="1.0" encoding="utf-8"?>
<!DOCTYPE svg PUBLIC "-//W3C//DTD SVG 1.1//EN" "http://www.w3.org/Graphics/SVG/1.1/DTD/svg11.dtd">
<svg version="1.1" id="Layer_1" xmlns="http://www.w3.org/2000/svg" xmlns:xlink="http://www.w3.org/1999/xlink" x="0px" y="0px"
	 viewBox="0 0 1641.33 1679.327" enable-background="new 0 0 1641.33 1679.327" xml:space="preserve">
<g>
	<path d="M1540.7599,973.1735c0.6001-3.28,1.1901-6.55,1.78-9.81c-0.08,0.67-0.17,1.35-0.27,2.05c-0.39,2.1-0.7799,4.2-1.1799,6.29
		C1540.99,972.1935,1540.8799,972.6835,1540.7599,973.1735z"/>
	<path fill="#E6E6E6" d="M1541.09,971.7036c0.4-2.09,0.7899-4.19,1.1799-6.29C1541.97,967.4235,1541.58,969.5435,1541.09,971.7036z"
		/>
	<path fill="#E6E6E6" d="M1536.8899,288.5935c1.4701,11.93-5.0499,53.2-10.87,68.81c-2.48,6.67-19.71,33.64-30.26,47.38
		c-15.61,20.32-29.72,0.06-41.12-14.85c-22.3999-29.27-47.96-56.11-76.08-79.94c-10.77-9.14-69.23-41.25-69.22-56.39
		c0.02-17.62,45.25-49.4,85.61-60.14c27.54-7.33,45.9399-5.94,72.27,5.46C1507.98,216.5735,1531.7999,247.2335,1536.8899,288.5935z"
		/>
	<path fill="#E6E6E6" d="M1284.7999,188.7735c7.63-7.7,14.11-13.47,20.8-18.32
		C1298.4999,176.6035,1291.6899,183.0335,1284.7999,188.7735z"/>
	<path d="M1320.08,161.4735c-19.01,13.56-34.79,38.26-56.5701,47.3c5.4-4.19,11.4-9.83,18.36-17.01c1-1.03,1.9701-2.02,2.9301-2.99
		c6.89-5.74,13.7-12.17,20.8-18.32C1310.1799,167.1335,1314.86,164.2435,1320.08,161.4735z"/>
	<path d="M1127.2699,901.5836c0.65-0.16,1.3101-0.33,1.99-0.5C1128.58,901.2635,1127.9199,901.4235,1127.2699,901.5836z"/>
	<path d="M1125.99,901.8936c0.4199-0.1,0.85-0.2,1.2799-0.31C1126.84,901.6935,1126.4099,901.7935,1125.99,901.8936z"/>
	<path d="M1124.99,902.1235c0.33-0.07,0.6599-0.15,1-0.23C1125.6499,901.9735,1125.3199,902.0535,1124.99,902.1235z"/>
	<path d="M1121.95,902.7535c0.98-0.19,1.99-0.4,3.04-0.63C1123.9399,902.3635,1122.9299,902.5735,1121.95,902.7535z"/>
	<path d="M1119.17,1201.3635c-0.8401-3.72-2.4701-6.99-5.6001-8.84c1.3201,0.5499,2.41,1.27,3.27,2.16
		C1118.4299,1196.3435,1119.21,1198.5635,1119.17,1201.3635z"/>
	<path d="M1117.97,903.3936c0.24-0.03,0.48-0.07,0.73-0.1C1118.45,903.3336,1118.21,903.3635,1117.97,903.3936z"/>
	<path d="M1117.97,903.3936c-0.5701,0.07-1.14,0.14-1.7001,0.19c-0.1699,0.02-0.34,0.04-0.52,0.05
		c-0.5099,0.04-1.0199,0.08-1.5199,0.11c-0.37,0.02-0.74,0.04-1.1101,0.05c-0.4399,0.01-0.8899,0.02-1.33,0.02l-4.7-0.27
		c-0.48-0.06-0.9601-0.13-1.4501-0.21l-7.27-1.77c-0.5499-0.18-1.11-0.37-1.6699-0.57l-3.09-1.19l-2.2001-0.92l-6.91-3.25
		c-28.1899-14.05-42.0699-40.43-38.8899-73.91c2.1699-22.9,25.13-70.2,42.5199-87.58c35.2301-35.23,84.88-15.15,99.2201,40.13
		c14.64,56.44-10.87,113.92-56.03,126.2599c-0.7001,0.19-1.39,0.3701-2.0601,0.55c-0.6799,0.17-1.34,0.34-1.99,0.5
		c-0.4299,0.11-0.86,0.21-1.2799,0.31c-0.3401,0.08-0.67,0.16-1,0.23c-1.05,0.23-2.0601,0.44-3.04,0.63
		c-1.12,0.21-2.2001,0.39-3.25,0.54C1118.45,903.3235,1118.21,903.3635,1117.97,903.3936z"/>
	<path d="M1115.7499,903.6335c0.1801-0.01,0.3501-0.03,0.52-0.05C1116.1,903.6035,1115.9199,903.6235,1115.7499,903.6335z"/>
	<path d="M1114.23,903.7435c0.5-0.03,1.01-0.07,1.5199-0.11C1115.24,903.6835,1114.73,903.7136,1114.23,903.7435z"/>
	<path d="M1113.1199,903.7935c0.3701-0.01,0.7401-0.03,1.1101-0.05C1113.86,903.7635,1113.49,903.7835,1113.1199,903.7935z"/>
	<path d="M1111.7899,903.8135c0.4401,0,0.89-0.01,1.33-0.02C1112.6799,903.8035,1112.23,903.8135,1111.7899,903.8135z"/>
	<path d="M1111.7899,903.8135l-4.7-0.27L1111.7899,903.8135z"/>
	<path fill="#E6E6E6" d="M1110.08,1088.1636c0-2.3201-0.42-4.92-1.1901-7.6801c0.77,2.76,1.2001,5.37,1.2001,7.6801
		c0,3.2999-1.01,8-2.63,13.0699C1109.0699,1096.1636,1110.08,1091.4635,1110.08,1088.1636z"/>
	<path d="M1105.6399,903.3336c0.49,0.08,0.9701,0.15,1.4501,0.21C1106.61,903.4835,1106.1199,903.4135,1105.6399,903.3336z"/>
	<path fill="#E6E6E6" d="M1107.46,1101.2335c-0.4401,1.39-0.92,2.8-1.4401,4.21
		C1106.5399,1104.0336,1107.0199,1102.6235,1107.46,1101.2335z"/>
	<path d="M1098.3699,901.5635l7.27,1.77C1103.2699,902.9735,1100.8799,902.3835,1098.3699,901.5635z"/>
	<path fill="#E6E6E6" d="M1106.0199,1105.4435c-0.35,0.9501-0.71,1.9-1.09,2.8401
		C1105.3099,1107.3435,1105.6699,1106.3936,1106.0199,1105.4435z"/>
	<path d="M1096.7,900.9935c0.5599,0.2,1.12,0.39,1.6699,0.57C1097.8199,901.3835,1097.2599,901.1935,1096.7,900.9935z"/>
	<path d="M1093.61,899.8035l3.09,1.19C1095.7,900.6335,1094.6699,900.2435,1093.61,899.8035z"/>
	<path fill="#E6E6E6" d="M1094.5499,1127.0735h0.01c-0.09,0.1001-0.1801,0.2001-0.28,0.29
		C1094.3699,1127.2736,1094.46,1127.1736,1094.5499,1127.0735z"/>
	<path d="M1091.4099,898.8835l2.2001,0.92C1092.8899,899.5236,1092.1599,899.2136,1091.4099,898.8835z"/>
	<path d="M1084.4999,895.6335l6.91,3.25C1089.2499,897.9435,1086.96,896.8635,1084.4999,895.6335z"/>
	<path fill="#E6E6E6" d="M1079.59,1336.3135c0.2899,0.5,0.5499,0.9901,0.7999,1.4901
		C1080.1399,1337.3135,1079.8699,1336.8135,1079.59,1336.3135z"/>
	<path fill="#E6E6E6" d="M1077.73,1333.2635c0.51,0.77,0.99,1.53,1.4299,2.29
		C1078.71,1334.8036,1078.24,1334.0336,1077.73,1333.2635z"/>
	<path fill="#E6E6E6" d="M1076.1,1330.9336c0.58,0.7899,1.12,1.5599,1.63,2.33
		C1077.22,1332.4935,1076.6699,1331.7135,1076.1,1330.9336z"/>
	<path fill="#E6E6E6" d="M1074.2799,1328.5436c0.64,0.7999,1.25,1.6,1.8201,2.38
		C1075.5199,1330.1335,1074.9099,1329.3435,1074.2799,1328.5436z"/>
	<path fill="#E6E6E6" d="M1072.2599,1326.1035c-1.1-1.29-2.1499-2.47-3.1599-3.5499c1.01,1.08,2.0599,2.2599,3.1699,3.5499
		c0.4701,0.55,0.92,1.09,1.36,1.63C1073.1799,1327.1935,1072.73,1326.6536,1072.2599,1326.1035z"/>
	<path fill="#FFFFFF" d="M1104.1,1068.8036c2.08,3.9299,3.75,7.95,4.7899,11.6799c0.77,2.76,1.1901,5.36,1.1901,7.6801
		c0,3.2999-1.01,8-2.62,13.0699c-0.4401,1.39-0.92,2.8-1.4401,4.21c-0.35,0.9501-0.71,1.9-1.09,2.8401
		c-3.02,7.5499-6.9,14.88-10.38,18.7899c-0.09,0.1001-0.1801,0.2001-0.27,0.29c-2.9199,3.02-9.11,5.4301-14.02,5.4301
		c-3.0399,0-5.61-0.5901-7.87-2.1001c-1.59-1.0599-3.02-2.6-4.36-4.71c-4.37-6.88-7.72-19.9299-12.08-43.38
		c-2.89-15.51-4.35-23.58-4.37-28.2999c-0.03-4.87,1.48-6.1901,4.5599-8.4401c4.26-3.12,8.7001-4.54,13.62-4.23
		c4.92,0.3099,10.3301,2.34,16.51,6.11C1092.72,1051.6836,1099.45,1060.0336,1104.1,1068.8036z"/>
	<path fill="#FFFFFF" d="M1064.35,1317.9535c1.49,1.27,3.0599,2.8,4.75,4.6001c1.01,1.08,2.0599,2.2599,3.1599,3.5499
		c0.4701,0.55,0.92,1.09,1.37,1.63c0.2201,0.27,0.4301,0.54,0.65,0.8101c0.63,0.7999,1.24,1.59,1.8201,2.38c0,0,0,0,0,0.01
		c0.5699,0.7799,1.12,1.5599,1.63,2.33s0.98,1.54,1.4299,2.29c0.14,0.25,0.29,0.5099,0.4301,0.7599
		c0.2799,0.5,0.5499,1,0.7999,1.4901c5.27,10.3099,4.1801,19.34-3.75,28.46c-5.52,6.35-14.35,12.74-26.6799,19.63
		c-20.3301,11.38-29.61,13.71-35.98,8.6699c-0.42-0.34-0.83-0.7-1.23-1.11c-0.6-0.6-1.13-1.23-1.59-1.89
		c-0.34-0.49-0.64-1-0.9-1.5299c-3.4-7.02,0.52-17.52,13.1-36.67c2.35-3.58,4.64-7.3199,6.7501-10.96
		c2.1-3.64,4.0199-7.17,5.59-10.3201c2.22-4.4299,3.77-8.11,4.24-10.24c1.6899-7.6599,3.78-9.4,11.35-9.4
		C1055.8099,1312.4435,1059.74,1314.0135,1064.35,1317.9535z"/>
	<path fill="#E6E6E6" d="M1011.1599,1391.5635c0.46,0.66,0.99,1.29,1.59,1.89h-0.01
		C1012.14,1392.8535,1011.6099,1392.2235,1011.1599,1391.5635z"/>
	<path fill="#E6E6E6" d="M1010.2599,1390.0336c0.26,0.5299,0.56,1.0399,0.9,1.5299
		C1010.8199,1391.0735,1010.52,1390.5635,1010.2599,1390.0336z"/>
	<path fill="#E6E6E6" d="M1023.3499,1353.3635c2.35-3.58,4.65-7.3199,6.7601-10.96c-2.1101,3.64-4.4,7.38-6.7501,10.96
		c-12.58,19.15-16.5,29.65-13.1,36.67C1006.8599,1383.0135,1010.77,1372.5135,1023.3499,1353.3635z"/>
	<path fill="#E6E6E6" d="M919.5699,995.0535c0.53,0.09,1.08,0.18,1.64,0.28C920.6499,995.2335,920.0999,995.1436,919.5699,995.0535z
		"/>
	<path fill="#E6E6E6" d="M911.9199,993.9135c-0.57-0.06-1.11-0.11-1.63-0.16C910.8099,993.7935,911.3599,993.8535,911.9199,993.9135
		z"/>
	<path fill="#E6E6E6" d="M906.4999,993.5936c1.13-0.02,2.38,0.03,3.79,0.16C908.8799,993.6335,907.6299,993.5735,906.4999,993.5936z
		"/>
	<path fill="#E6E6E6" d="M906.4999,993.5936c-0.44,0.0099-0.86,0.02-1.27,0.05C905.64,993.6035,906.0599,993.5936,906.4999,993.5936
		z"/>
	<path fill="#E6E6E6" d="M904.64,993.6835c0.19-0.02,0.39-0.03,0.59-0.04C905.0299,993.6536,904.83,993.6735,904.64,993.6835z"/>
	<path fill="#E6E6E6" d="M903.6199,993.8135c0.33-0.06,0.67-0.1,1.02-0.13C904.2899,993.7235,903.95,993.7635,903.6199,993.8135z"/>
	<path fill="#E6E6E6" d="M903.5099,993.8336c-0.18,0.03-0.36,0.06-0.54,0.09C903.14,993.8936,903.33,993.8535,903.5099,993.8336z"/>
	<path fill="#FFFFFF" d="M911.9199,993.9135c2.15,0.25,4.66,0.63,7.65,1.14c0.53,0.09,1.08,0.18,1.64,0.28
		c2.58,0.46,5.4901,1,8.8101,1.63c35.97,6.8199,48.67,12.55,51.33,23.13c0.72,2.87,0.85,5.27,0.25,7.6299
		c-0.06,0.2101-0.13,0.42-0.19,0.62c-0.04,0.13-0.07,0.26-0.12,0.39c-0.93,2.6801-2.85,5.38-5.97,8.73
		c-3.1,3.3201-6.76,8.91-9.54,14.3401c-0.1,0.2-0.19,0.3899-0.28,0.58c-0.16,0.3-0.31,0.6-0.45,0.9c-0.95,1.96-1.77,3.87-2.38,5.61
		c-2.45,6.96-10.44,19.09-17.76,26.95c-2.48,2.66-4.84,4.9401-7.09,6.86c-12.19,10.3301-21.38,9.8101-30.03-1.1899
		c-9.2-11.7001-16.57-37.25-18.83-65.33c-1.8-22.3301-1.53-23.55,6.4301-28.7701c0.09-0.06,0.18-0.11,0.27-0.17
		c0.29-0.19,0.58-0.37,0.86-0.55c0.14-0.08,0.28-0.17,0.41-0.25c0.34-0.21,0.68-0.41,1.02-0.6c0.07-0.04,0.15-0.08,0.22-0.1201
		c0.38-0.2,0.75-0.39,1.11-0.5699c0.04-0.02,0.08-0.04,0.12-0.05c0.4-0.19,0.79-0.35,1.19-0.5c0.02-0.0099,0.04-0.02,0.06-0.02
		c0.42-0.16,0.84-0.3,1.28-0.42h0.01c0.33-0.09,0.68-0.17,1.03-0.24c0.18-0.03,0.36-0.06,0.54-0.09c0.03-0.01,0.07-0.01,0.11-0.02
		c0.33-0.05,0.67-0.09,1.02-0.13c0.19-0.01,0.39-0.03,0.59-0.04c0.41-0.03,0.83-0.04,1.27-0.05c1.13-0.02,2.38,0.04,3.79,0.16
		C910.8099,993.8035,911.3499,993.8535,911.9199,993.9135z"/>
	<path fill="#FFFFFF" d="M918.1799,1360.1135c3.15,5.23,9.4,14.49,13.89,20.6c1.2,1.63,2.34,3.5,3.37,5.4501
		c2.82,5.33,4.79,11.3099,4.79,15.13c0,4.9399-0.89,7.8199-3.83,10.1799c-1.59,1.28-3.78,2.42-6.79,3.64
		c-8.1,3.3201-24.93,6-38.37,6.6801c-6.33,0.3199-11.9,0.2-15.46-0.52c-3.83-0.77-7.64-3.1901-10.78-6.37
		c-0.32-0.3201-0.62-0.64-0.93-0.98c-1.5-1.66-2.82-3.5-3.89-5.41c-2.26-4.0601-3.35-8.4-2.48-11.99
		c0.97-4.02,4.95-11.72,8.85-17.11c3.89-5.39,11.1-16.79,16.02-25.3201c4.91-8.53,11.08-15.51,13.7-15.51
		C901.83,1338.5835,910.1199,1346.7235,918.1799,1360.1135z"/>
	<path fill="#E6E6E6" d="M864.0699,1413.9236c0.31,0.34,0.61,0.6599,0.93,0.98
		C864.6799,1414.5935,864.3699,1414.2635,864.0699,1413.9236z"/>
	<path fill="#E6E6E6" d="M836.0899,982.1536c0.8,0.53,1.52,1.12,2.16,1.77C837.6099,983.2835,836.89,982.6935,836.0899,982.1536z"/>
	<path fill="#E6E6E6" d="M828.95,979.1935c1.65,0.41,3.13,0.91,4.45,1.5C832.08,980.1135,830.5999,979.6135,828.95,979.1935z"/>
	<path fill="#E6E6E6" d="M815.0899,977.4935c5.57,0.21,10.15,0.75,13.86,1.7c-3.71-0.94-8.29-1.48-13.86-1.69
		c-0.85-0.04-1.7599-0.08-2.71-0.13C813.33,977.4235,814.2399,977.4636,815.0899,977.4935z"/>
	<path fill="#E6E6E6" d="M807.8599,977.0936c1.58,0.11,3.1,0.2,4.52,0.28C810.9599,977.2935,809.4399,977.2036,807.8599,977.0936z"
		/>
	<path fill="#E6E6E6" d="M804.6199,976.8535c1.1,0.09,2.19,0.17,3.24,0.2401C806.8099,977.0236,805.7199,976.9435,804.6199,976.8535
		z"/>
	<path fill="#E6E6E6" d="M798.9199,1364.2736c3.13,13.01,4.28,25.5399,2.64,33.61l0.74-8.58
		C802.2999,1382.0735,801.08,1373.2936,798.9199,1364.2736z"/>
	<path fill="#FFFFFF" d="M797.89,1405.4635c0.1-0.09,0.2-0.1799,0.29-0.27C798.0899,1405.2836,797.9899,1405.3735,797.89,1405.4635z
		"/>
	<path fill="#FFFFFF" d="M791.4899,1070.8435c4.91,0.29,10.77-3.7899,18.15-12.23
		C805.6699,1063.2635,798.1799,1071.9136,791.4899,1070.8435z"/>
	<path fill="#E6E6E6" d="M796.33,1354.8335c0.98,3.14,1.84,6.3,2.59,9.4301C798.1599,1361.1335,797.2899,1357.9635,796.33,1354.8335
		z"/>
	<path fill="#E6E6E6" d="M794.7999,1350.1536c0.54,1.5399,1.05,3.11,1.53,4.6699
		C795.8399,1353.2635,795.33,1351.7035,794.7999,1350.1536z"/>
	<path fill="#E6E6E6" d="M793.9799,1347.8435c0.28,0.76,0.56,1.53,0.82,2.3101
		C794.5299,1349.3835,794.2599,1348.6135,793.9799,1347.8435z"/>
	<path fill="#E6E6E6" d="M791.7799,1342.1935c0.77,1.8401,1.51,3.7301,2.2,5.65
		C793.2799,1345.9336,792.5399,1344.0436,791.7799,1342.1935z"/>
	<path fill="#E6E6E6" d="M790.8399,1340.0035c0.32,0.72,0.64,1.45,0.94,2.1899
		C791.4699,1341.4535,791.1499,1340.7235,790.8399,1340.0035z"/>
	<path fill="#E6E6E6" d="M788.8699,1335.7435c0.34,0.6901,0.68,1.39,1,2.1
		C789.5399,1337.1335,789.2099,1336.4336,788.8699,1335.7435z"/>
	<path fill="#E6E6E6" d="M785.7,1329.7836c0.73,1.26,1.45,2.5599,2.14,3.9099C787.14,1332.3435,786.4299,1331.0436,785.7,1329.7836z
		"/>
	<path fill="#E6E6E6" d="M783.45,1326.1536c0.39,0.58,0.77,1.1699,1.14,1.77C784.2099,1327.3135,783.83,1326.7235,783.45,1326.1536z
		"/>
	<path fill="#E6E6E6" d="M783.9199,1066.1035c0.12,0.15,0.23,0.3,0.35,0.4301
		C784.1499,1066.3936,784.0299,1066.2535,783.9199,1066.1035z"/>
	<path fill="#E6E6E6" d="M781.7099,1323.6335c0.39,0.54,0.78,1.09,1.17,1.66
		C782.4899,1324.7235,782.0999,1324.1736,781.7099,1323.6335z"/>
	<path fill="#E6E6E6" d="M781.89,1062.9835c0.11,0.1901,0.22,0.38,0.33,0.5701
		C782.1099,1063.3635,781.9999,1063.1736,781.89,1062.9835z"/>
	<path fill="#FFFFFF" d="M777.83,1053.8036c0.2,0.48,0.39,0.98,0.59,1.48C778.2199,1054.7836,778.0299,1054.2836,777.83,1053.8036z"
		/>
	<path fill="#FFFFFF" d="M776.0099,1049.6736c0.21,0.4299,0.41,0.87,0.61,1.3199
		C776.4199,1050.5436,776.2099,1050.1035,776.0099,1049.6736z"/>
	<path fill="#FFFFFF" d="M770.3399,1041.3335c1.09,0,3.34,3.41,5.67,8.3401c0.2,0.4299,0.41,0.87,0.61,1.3199
		c0.4,0.89,0.81,1.83,1.21,2.8101c0.2,0.48,0.39,0.98,0.59,1.48c0.1,0.25,0.19,0.5,0.29,0.75c0.25,0.6599,0.5,1.2899,0.76,1.9
		c-3.35-5.0701-6.78-10.4901-9.97-16.1201c-0.42-0.74-0.84-1.49-1.25-2.24C769.0599,1040.7035,769.77,1041.3335,770.3399,1041.3335z
		"/>
	<path fill="#FFFFFF" d="M768.0899,973.0335c-0.17,0-0.34,0-0.5,0.01c0.08-0.01,0.17-0.01,0.26-0.01
		C767.9299,973.0335,768.0099,973.0335,768.0899,973.0335z"/>
	<path fill="#FFFFFF" d="M767.5899,973.0435c-0.19,0-0.38,0.01-0.56,0.02C767.2099,973.0435,767.3999,973.0435,767.5899,973.0435z"
		/>
	<path d="M894.9899,781.1235c1.77,25.34-6.76,44.82-27.33,62.44c-30.13,25.8-66.98,33.08-109.36,21.6
		c-12.92-3.5-27.62-8.98-32.66-12.18c-19.72-12.52-41.17-32.67-47.07-44.24c-7.31-14.33-8.15-40.59-1.77-55.84
		c4.86-11.65,22.01-26.15,39.65-33.52c16.19-6.76,52.79-9.32,73.68-5.14c9.8,1.96,21.74,4.21,26.55,5
		c4.8,0.8,18.63,6.35,30.73,12.33C870.7,743.0936,894.0299,767.3835,894.9899,781.1235z"/>
	<path fill="#FFFFFF" d="M842.2299,995.5435c0,7.68-8.01,25.78-17.68,41.92c-4.59,7.66-9.55,14.88-14.21,20.3301
		c-0.22,0.26-0.46,0.5299-0.7,0.8199c-7.38,8.4401-13.2401,12.52-18.15,12.23c-0.01,0.01-0.02,0.01-0.03,0
		c-0.91-0.15-1.8-0.47-2.66-1.01c-2.1-1.2999-3.58-3.38-4.97-5.4199c-1.42-2.0901-2.88-4.25-4.36-6.48
		c-0.26-0.6101-0.51-1.2401-0.76-1.9c-0.1-0.25-0.1899-0.5-0.29-0.75c-0.2-0.5-0.39-1-0.59-1.48c-0.4-0.9801-0.81-1.92-1.21-2.8101
		c-0.2-0.45-0.4-0.89-0.61-1.3199c-2.33-4.9301-4.58-8.3401-5.67-8.3401c-0.5699,0-1.28-0.63-2.09-1.76c-1.39-2.5299-2.74-5.1-4-7.7
		c-0.02-0.03-0.04-0.0601-0.05-0.09c-0.62-1.4501-1.25-3.01-1.88-4.65c-4.1-10.71-8.03-24.75-8.27-31.98
		c-0.01-0.23-0.01-0.46-0.01-0.69c0-1.47,0.12-3.04,0.35-4.62c0.34-2.38,0.9-4.78,1.6-6.9c0.12-0.35,0.24-0.69,0.36-1.03
		c0,0,0.01,0,0.01-0.0099c0.24-0.66,0.51-1.29,0.78-1.88c0.0699-0.15,0.14-0.29,0.21-0.44c0.14-0.28,0.29-0.55,0.43-0.8
		c0.22-0.3799,0.44-0.73,0.67-1.04c0.03-0.03,0.05-0.06,0.08-0.09c0.1-0.15,0.21-0.29,0.32-0.4301c0.05-0.0699,0.1-0.1299,0.15-0.19
		c0.09-0.11,0.17-0.22,0.25-0.3199c0.06-0.06,0.11-0.12,0.16-0.19c0.09-0.1,0.18-0.2,0.27-0.3c0.05-0.05,0.09-0.1,0.14-0.16
		c0.13-0.13,0.26-0.26,0.38-0.39c0.02-0.01,0.03-0.02,0.04-0.03c0.13-0.14,0.27-0.26,0.41-0.38c0.04-0.04,0.09-0.08,0.14-0.11
		c0.1-0.09,0.2-0.17,0.3-0.25c0.05-0.04,0.1-0.08,0.16-0.11c0.1-0.08,0.21-0.16,0.32-0.23c0.05-0.03,0.09-0.06,0.14-0.09
		c0.3101-0.2,0.65-0.37,1-0.53c0.04-0.02,0.09-0.04,0.13-0.06c0.14-0.05,0.27-0.11,0.41-0.16c0.06-0.02,0.11-0.04,0.17-0.06
		c0.14-0.05,0.29-0.09,0.45-0.14c0.04-0.01,0.09-0.02,0.13-0.04c0.41-0.11,0.85-0.2,1.32-0.27c0.04,0,0.08-0.01,0.12-0.01
		c0.19-0.03,0.4-0.05,0.61-0.07c0.05-0.01,0.1-0.02,0.16-0.02c0.22-0.02,0.45-0.04,0.6801-0.05c0.03,0,0.06,0,0.1,0
		c0.01,0,0.03,0,0.04,0c0.18-0.01,0.37-0.02,0.56-0.02c0.16-0.01,0.33-0.01,0.5-0.01c0.28,0,0.58,0,0.87,0.01c0.04,0,0.07,0,0.11,0
		c0.77,0.02,1.6,0.07,2.51,0.14c0.05,0.01,0.1,0.01,0.16,0.02c0.88,0.07,1.84,0.17,2.88,0.29c0.11,0.01,0.23,0.03,0.35,0.04
		c0.47,0.0601,0.95,0.1201,1.45,0.1801c0.09,0.0099,0.2,0.03,0.3,0.04c0.45,0.06,0.93,0.12,1.42,0.19c0.22,0.03,0.45,0.06,0.68,0.09
		c0.39,0.0601,0.79,0.1201,1.2,0.1801c0.16,0.02,0.31,0.04,0.48,0.06c2.6,0.38,5.63,0.7599,8.85,1.13
		c4.93,0.56,10.3,1.0699,15.27,1.45c1.1,0.09,2.19,0.17,3.24,0.2401c1.58,0.11,3.1,0.2,4.52,0.28c0.95,0.05,1.86,0.09,2.71,0.13
		c5.57,0.21,10.15,0.75,13.86,1.69c1.65,0.42,3.13,0.92,4.45,1.5c0.98,0.44,1.88,0.92,2.69,1.46c0.8,0.54,1.52,1.1299,2.16,1.77
		C841.02,986.7036,842.2299,990.5035,842.2299,995.5435z"/>
	<path fill="#FFFFFF" d="M759.8999,1310.2736c0.23-0.0801,0.47-0.14,0.7-0.2001c0.06-0.0199,0.11-0.0299,0.17-0.0499
		c0.27-0.0601,0.54-0.11,0.81-0.16c0.0099,0,0.03,0,0.04-0.01c0.3-0.04,0.59-0.08,0.89-0.1c0.17-0.01,0.35-0.01,0.52-0.01
		c0.14,0,0.27-0.01,0.4-0.01c0.17,0,0.34,0.02,0.51,0.03c0.15,0.01,0.3,0.02,0.45,0.04c0.16,0.0099,0.33,0.0399,0.5,0.0699
		c0.15,0.02,0.3,0.05,0.45,0.08c0.17,0.03,0.33,0.0701,0.5,0.11c0.15,0.04,0.31,0.0801,0.47,0.13c0.16,0.05,0.32,0.1001,0.49,0.15
		c0.16,0.0601,0.32,0.12,0.48,0.1801c0.16,0.0599,0.32,0.12,0.48,0.1899c0.17,0.0801,0.34,0.16,0.51,0.24
		c0.16,0.0701,0.31,0.14,0.47,0.2201c0.18,0.1,0.37,0.2,0.56,0.3099c0.14,0.08,0.28,0.15,0.42,0.24c0.26,0.15,0.52,0.3201,0.79,0.49
		c0.12,0.0901,0.25,0.17,0.38,0.26c0.27,0.1901,0.55,0.39,0.83,0.6c0.12,0.0901,0.26,0.2001,0.39,0.3c0.21,0.17,0.43,0.34,0.64,0.52
		c0.15,0.12,0.29,0.24,0.43,0.37c0.21,0.1799,0.42,0.36,0.63,0.5499c0.15,0.13,0.3,0.27,0.45,0.4c0.21,0.2001,0.42,0.4,0.63,0.61
		c0.15,0.14,0.3,0.29,0.45,0.4401c0.22,0.22,0.44,0.4399,0.67,0.67c0.14,0.1499,0.29,0.2999,0.43,0.46c0.24,0.25,0.48,0.5,0.72,0.77
		c0.14,0.1499,0.27,0.2899,0.41,0.45c0.27,0.3,0.54,0.61,0.82,0.9301c0.11,0.12,0.22,0.25,0.33,0.38
		c0.39,0.45,0.79,0.9199,1.19,1.3999c0.61,0.74,1.21,1.51,1.8,2.3101c0.39,0.54,0.78,1.09,1.17,1.66
		c0.19,0.2799,0.38,0.5699,0.57,0.86c0.38,0.5699,0.7599,1.1599,1.14,1.77c0.37,0.6,0.7401,1.23,1.11,1.86
		c0.73,1.26,1.44,2.5599,2.14,3.9099c0.35,0.67,0.69,1.3601,1.03,2.05c0.34,0.6901,0.67,1.39,1,2.1
		c0.33,0.7101,0.65,1.4301,0.97,2.16c0.31,0.72,0.63,1.45,0.94,2.1899c0.76,1.8501,1.5,3.7401,2.2,5.65
		c0.28,0.77,0.55,1.54,0.82,2.3101c0.53,1.5499,1.04,3.11,1.53,4.6699c0,0-0.01,0.01,0,0.01c0.96,3.13,1.83,6.3,2.59,9.4301
		c0,0-0.01,0.01,0,0.01c2.16,9.02,3.38,17.7999,3.38,25.03l-0.74,8.58l-3.38,7.3099c-0.09,0.0901-0.19,0.1801-0.29,0.27
		c-0.1,0.0801-0.2,0.16-0.3,0.24c-4.77,3.61-11.15,5.28-15.22,4.4c-1.17-0.26-2.16-0.71-2.85-1.4c-0.46-0.47-3.5-1.1799-8.04-1.97
		c-4.9-0.84-11.55-1.78-18.67-2.58c-29.1-3.26-41.24-9.7101-41.24-21.92c0-5.83,9.9-24.74,20.7-41.41
		c5.84-9.01,11.9399-17.37,16.89-22.6599c0.07-0.0701,0.13-0.14,0.2-0.2101c0.26-0.2699,0.52-0.5499,0.78-0.8099
		c0.12-0.12,0.24-0.24,0.36-0.36c0.21-0.2101,0.42-0.42,0.62-0.61c0.12-0.13,0.25-0.24,0.37-0.3601c0.2-0.1899,0.4-0.37,0.59-0.5499
		c0.1299-0.12,0.25-0.23,0.37-0.33c0.2-0.1801,0.4-0.3601,0.6-0.53c0.11-0.0901,0.22-0.1901,0.33-0.28
		c0.22-0.1801,0.43-0.35,0.64-0.52c0.09-0.0699,0.1899-0.15,0.28-0.22c0.25-0.2,0.5-0.38,0.75-0.5601
		c0.05-0.0399,0.1-0.08,0.15-0.11c0.62-0.4399,1.24-0.83,1.84-1.1799c0.03-0.01,0.06-0.03,0.09-0.05c0.27-0.15,0.53-0.29,0.8-0.41
		c0.06-0.0299,0.12-0.0599,0.18-0.09c0.23-0.11,0.47-0.22,0.7-0.3099c0.07-0.03,0.14-0.0601,0.21-0.0901
		c0.22-0.09,0.45-0.1699,0.68-0.25C759.7599,1310.3135,759.83,1310.2936,759.8999,1310.2736z"/>
	<path fill="#FFFFFF" d="M762.3199,1027.1335c0.63,1.64,1.26,3.2,1.88,4.65c-5.81-11.94-10.01-24.5001-10.15-36.63
		C754.2899,1002.3835,758.2199,1016.4235,762.3199,1027.1335z"/>
	<path fill="#FFFFFF" d="M666.6099,963.5236c0.08,0,0.15,0,0.23,0c-0.17,0-0.33,0.0099-0.5,0.02
		C666.4299,963.5335,666.52,963.5236,666.6099,963.5236z"/>
	<path fill="#FFFFFF" d="M665.52,963.6335c0.27-0.04,0.53-0.07,0.8-0.09C666.0499,963.5635,665.7799,963.5936,665.52,963.6335z"/>
	<path fill="#FFFFFF" d="M646.7599,1077.9535c-0.46,0.0801-0.93,0.13-1.4,0.13c-3.12,0.01-6.35-1.7799-9.85-5.24
		c-0.21-0.2-0.41-0.4099-0.62-0.63c-0.62-0.64-1.25-1.34-1.89-2.08c-0.42-0.5-0.86-1.02-1.29-1.5701
		c-1.96-2.4399-4.0099-5.35-6.17-8.6899c-17.53-27.09-27.07-42.09-32.22-51.55c-5.03-9.24-5.87-13.21-5.87-18.01
		c0-5.64,2.0099-11.92,4.47-13.96c1.08-0.89,4.8-1.97,10.09-3.04c1.69-0.35,3.54-0.69,5.51-1.02c0.99-0.16,2.0099-0.33,3.05-0.49
		c0.53-0.08,1.06-0.16,1.59-0.24c1.61-0.24,3.27-0.47,4.98-0.69c3.41-0.44,6.98-0.85,10.61-1.19c17.25-1.63,32.81-3.86,34.58-4.96
		c0.27-0.17,0.56-0.31,0.86-0.44c0.06-0.03,0.12-0.05,0.18-0.08c0.61-0.25,1.27-0.43,1.97-0.54c0.06-0.0099,0.12-0.02,0.1801-0.03
		c0.2599-0.04,0.53-0.07,0.8-0.09c0.01,0,0.01,0,0.02,0c0.17-0.01,0.33-0.02,0.5-0.02c0.33-0.01,0.67-0.01,1.02,0.0099
		c0.05,0,0.1,0,0.16,0.01c0.41,0.02,0.84,0.06,1.27,0.12c0.04,0.01,0.08,0.01,0.12,0.02c0.44,0.06,0.88,0.14,1.32,0.24
		c0.01,0,0.02,0,0.03,0c0.45,0.1,0.9,0.22,1.35,0.35c0.06,0.02,0.12,0.03,0.18,0.05c0.45,0.14,0.89,0.28,1.34,0.45
		c0.02,0,0.03,0.0099,0.04,0.0099c0.45,0.17,0.89,0.35,1.33,0.54c0.04,0.02,0.08,0.04,0.12,0.05c0.44,0.2,0.88,0.41,1.31,0.63
		c0.05,0.03,0.1,0.06,0.16,0.08c0.87,0.46,1.71,0.96,2.52,1.52c0.05,0.03,0.1,0.06,0.15,0.1c0.4,0.27,0.79,0.56,1.16,0.85
		c0.04,0.03,0.07,0.06,0.11,0.09c0.37,0.3,0.7401,0.6,1.08,0.91c0.02,0.02,0.03,0.03,0.04,0.04c0.35,0.31,0.6801,0.64,1,0.97
		c0.05,0.05,0.1,0.1,0.14,0.16c0.32,0.33,0.62,0.67,0.9,1.02c0.01,0.02,0.03,0.04,0.04,0.06c0.27,0.34,0.52,0.68,0.76,1.03
		c0.03,0.05,0.06,0.1,0.09,0.14c0.23,0.36,0.45,0.72,0.64,1.09c0.03,0.06,0.07,0.12,0.1,0.18c0.19,0.38,0.36,0.76,0.51,1.14
		c0.4,1.05,0.68,2.17,0.84,3.44c0.83,6.9-2.08,18.29-11.22,45.96C663.9599,1059.5635,655.7099,1076.3635,646.7599,1077.9535z"/>
	<path fill="#E6E6E6" d="M645.3599,1078.0835c0.47,0,0.94-0.0499,1.4-0.13C646.2899,1078.0436,645.83,1078.0835,645.3599,1078.0835z
		"/>
	<path fill="#E6E6E6" d="M634.89,1072.2135c0.21,0.2201,0.41,0.4301,0.62,0.63
		C635.3099,1072.6436,635.0999,1072.4336,634.89,1072.2135z"/>
	<path fill="#E6E6E6" d="M632.9999,1070.1335c0.64,0.74,1.27,1.4399,1.89,2.08
		C634.27,1071.5735,633.64,1070.8735,632.9999,1070.1335z"/>
	<path fill="#E6E6E6" d="M631.7099,1068.5635c0.4301,0.55,0.8701,1.0701,1.29,1.5701
		C632.5699,1069.6335,632.14,1069.1135,631.7099,1068.5635z"/>
	<path d="M1170.5499,1178.8335c-3.83-51.48-13.1599-115.0499-52.28-152.13c-32.48-30.8-78.4199-46.85-120.47-56.48
		c-37.62-8.62-75.5601-15.89-113.7-21.81c-74.7-11.58-150.22-17.94-225.8-18.99c-50.6699-0.71-101.8199,1.03-151.02,13.14
		c-31.71,7.81-62.63,20.09-90.05,37.97c-28.23,18.41-33.46,34.09-49.88,60.2401c-50.3,80.0599-28.25,200.1,27.27,270.74
		c41.29,52.51,98.7,78.2001,161.1701,93.89c75.03,18.85,151.02,33.84,227.58,44.9c22.77,3.2899,47.08,6.4399,71.99,8.42
		c76.96,6.1299,159.55,1.0999,219.34-45.5801c6.59-5.15,20-12.9,29.7999-17.23
		C1170.61,1366.6736,1175.0299,1239.1235,1170.5499,1178.8335z M1056.14,1045.8635c4.26-3.12,8.7-4.54,13.6199-4.23
		c4.92,0.3099,10.3301,2.34,16.51,6.11c6.4501,3.9399,13.1801,12.29,17.8301,21.0601c2.08,3.9301,3.75,7.95,4.79,11.6801
		c0.1899,0.6899,0.3599,1.3699,0.51,2.0399c0.23,1,0.3999,1.98,0.51,2.92c0.1199,0.95,0.1799,1.85,0.1799,2.72
		c0,2.0601-0.39,4.6699-1.0901,7.58c-0.1299,0.58-0.2799,1.17-0.45,1.77c-0.3199,1.2101-0.6799,2.4501-1.09,3.7201
		c-0.4401,1.3899-0.92,2.7999-1.4401,4.21c-0.3499,0.95-0.71,1.8999-1.09,2.84c-3.0199,7.5499-6.9,14.88-10.38,18.7899h0.01
		c-0.09,0.1001-0.1799,0.2001-0.28,0.29c-2.9199,3.02-9.1099,5.4301-14.02,5.4301c-3.0399,0-5.6099-0.59-7.8699-2.1
		c-1.5901-1.0601-3.02-2.6001-4.3601-4.71c-4.3699-6.8801-7.72-19.9301-12.08-43.3801c-2.89-15.51-4.35-23.58-4.37-28.2999
		C1051.5499,1049.4335,1053.0599,1048.1135,1056.14,1045.8635z M895.39,997.4135c0.09-0.06,0.1799-0.11,0.27-0.17
		c0.2899-0.1899,0.5798-0.37,0.8599-0.55c0.1401-0.08,0.28-0.17,0.41-0.25c0.34-0.21,0.6801-0.41,1.02-0.6
		c0.0699-0.04,0.15-0.08,0.2201-0.12c0.3799-0.2,0.75-0.39,1.1099-0.57c0.04-0.02,0.0801-0.04,0.1201-0.05
		c0.3999-0.19,0.7899-0.35,1.1899-0.5c0.02-0.01,0.04-0.02,0.0601-0.02c0.4199-0.16,0.8398-0.3,1.2799-0.42h0.01
		c0.33-0.09,0.6801-0.17,1.03-0.24c0.17-0.03,0.36-0.07,0.5399-0.09c0.03-0.01,0.0701-0.01,0.1101-0.02
		c0.33-0.06,0.6699-0.1,1.02-0.13c0.1899-0.02,0.3899-0.03,0.59-0.04c0.41-0.04,0.83-0.05,1.2699-0.05
		c1.1301-0.02,2.3801,0.03,3.79,0.16c0.52,0.04,1.0701,0.1,1.6301,0.16c2.1499,0.25,4.6599,0.63,7.6499,1.14
		c0.53,0.09,1.0801,0.18,1.64,0.28c2.58,0.46,5.49,1,8.8099,1.63c35.97,6.82,48.67,12.55,51.3301,23.13
		c0.72,2.87,0.85,5.27,0.25,7.63c-0.0601,0.21-0.13,0.42-0.1899,0.62c-0.04,0.13-0.0701,0.26-0.1201,0.39
		c-0.9299,2.6801-2.85,5.38-5.97,8.73c-3.1,3.3201-6.76,8.91-9.54,14.3401c-0.1,0.2-0.1899,0.3899-0.28,0.58
		c-0.1599,0.2999-0.3099,0.6-0.45,0.9c-0.95,1.96-1.77,3.87-2.3799,5.61c-2.4501,6.96-10.4401,19.0901-17.76,26.95
		c-2.4801,2.66-4.8401,4.9401-7.0901,6.8601c-12.1899,10.33-21.38,9.8099-30.03-1.1901c-9.2-11.7001-16.5699-37.25-18.83-65.3301
		C887.16,1003.8535,887.4299,1002.6335,895.39,997.4135z M754.39,989.8435c0.1599-1.19,0.3899-2.38,0.6599-3.55
		c0.13-0.58,0.28-1.15,0.4399-1.71c0.1501-0.56,0.3201-1.11,0.5-1.64c0.1101-0.35,0.2301-0.7,0.3601-1.03c0,0,0.01,0,0.01-0.01
		c0.24-0.67,0.5-1.3,0.78-1.88c0.0699-0.15,0.1399-0.29,0.21-0.44c0.1399-0.28,0.28-0.55,0.4299-0.8
		c0.22-0.38,0.4401-0.73,0.67-1.04c0.03-0.03,0.0499-0.06,0.08-0.09c0.1001-0.15,0.21-0.29,0.3201-0.43
		c0.05-0.07,0.1-0.13,0.1499-0.19c0.0901-0.11,0.1702-0.22,0.25-0.32c0.0601-0.06,0.1101-0.12,0.1602-0.19
		c0.0898-0.1,0.1799-0.2,0.2699-0.3c0.05-0.05,0.09-0.1,0.14-0.16c0.13-0.13,0.26-0.2599,0.38-0.39c0.02-0.01,0.03-0.02,0.0399-0.03
		c0.1301-0.14,0.27-0.26,0.4102-0.38c0.0399-0.04,0.0898-0.08,0.1399-0.11c0.1001-0.09,0.2-0.17,0.3-0.25
		c0.05-0.04,0.1-0.08,0.1599-0.11c0.1001-0.08,0.2101-0.16,0.3201-0.23c0.05-0.03,0.0901-0.06,0.14-0.09
		c0.3099-0.2,0.65-0.37,1-0.53c0.0399-0.02,0.09-0.04,0.13-0.06c0.14-0.05,0.27-0.11,0.4099-0.16
		c0.0601-0.02,0.1101-0.04,0.1702-0.06c0.1399-0.05,0.2899-0.09,0.45-0.14c0.04-0.01,0.09-0.02,0.1299-0.04
		c0.4102-0.11,0.8501-0.2,1.3201-0.27c0.04,0,0.0801-0.01,0.12-0.01c0.1901-0.03,0.4-0.05,0.61-0.07
		c0.05-0.01,0.1001-0.02,0.16-0.02c0.22-0.02,0.4501-0.04,0.6801-0.05h0.1399c0.1801-0.02,0.3701-0.02,0.5601-0.02
		c0.0801-0.01,0.1699-0.01,0.26-0.01h0.24c0.28,0,0.5801,0,0.87,0.01h0.11c0.77,0.02,1.6001,0.07,2.51,0.14
		c0.05,0.01,0.1,0.01,0.1599,0.02c0.8801,0.07,1.8401,0.17,2.8801,0.29c0.11,0.01,0.23,0.03,0.35,0.04
		c0.47,0.06,0.9501,0.12,1.4501,0.18c0.0898,0.01,0.2,0.03,0.2999,0.04c0.4501,0.06,0.9301,0.12,1.42,0.19
		c0.22,0.03,0.45,0.06,0.6799,0.09c0.39,0.06,0.79,0.12,1.2,0.18c0.16,0.02,0.3101,0.04,0.48,0.06
		c2.6001,0.38,5.6301,0.76,8.8501,1.13c4.9299,0.56,10.3,1.07,15.27,1.45c1.1,0.09,2.1899,0.17,3.24,0.24
		c1.58,0.11,3.1,0.2,4.52,0.28c0.71,0.04,1.3999,0.07,2.0599,0.1c0.2201,0,0.4401,0.01,0.65,0.02c0.7,0.03,1.38,0.0601,2.04,0.1
		c1,0.05,1.96,0.12,2.8899,0.2c1.8701,0.16,3.5901,0.36,5.1901,0.63c0.5299,0.09,1.0499,0.18,1.5599,0.28
		c0.5,0.1,0.99,0.21,1.47,0.32c0.2401,0.05,0.4801,0.11,0.7101,0.17c1.65,0.41,3.13,0.91,4.4501,1.5
		c0.98,0.44,1.8799,0.92,2.6899,1.46c0.2,0.13,0.3999,0.27,0.5801,0.41c0.5798,0.42,1.0999,0.87,1.5798,1.36
		c2.77,2.78,3.9801,6.58,3.9801,11.62c0,7.68-8.01,25.78-17.6801,41.92c-4.59,7.66-9.55,14.88-14.21,20.3301
		c-0.22,0.26-0.46,0.5299-0.7,0.8199c-3.97,4.65-11.4601,13.3-18.1501,12.23c-0.0099,0.01-0.0199,0.01-0.0299,0
		c-0.52-0.03-1.0399-0.1199-1.5399-0.25c-2.04-0.5399-3.9102-1.8899-5.6501-4.0599c-0.1199-0.14-0.24-0.28-0.3499-0.4301
		c-0.5801-0.76-1.1501-1.61-1.7001-2.5499c-0.11-0.1901-0.2201-0.38-0.33-0.5701c-0.8301-1.48-1.6401-3.16-2.42-5.05
		c-3.35-5.0699-6.78-10.49-9.9701-16.12c-0.4199-0.74-0.8398-1.49-1.25-2.24c-1.1799-1.6599-2.5699-4.37-4-7.7
		c-0.0199-0.03-0.0399-0.0601-0.0499-0.09c-5.8099-11.9401-10.01-24.5001-10.15-36.6301c-0.01-0.23-0.01-0.46-0.01-0.69
		C754.0399,992.9935,754.16,991.4235,754.39,989.8435z M591.92,976.3535c1.0798-0.89,4.7999-1.97,10.0898-3.04
		c1.6901-0.35,3.54-0.69,5.51-1.02c0.99-0.16,2.01-0.33,3.05-0.49c0.53-0.08,1.0601-0.16,1.5901-0.2401
		c1.6099-0.24,3.2699-0.47,4.98-0.69c3.4099-0.44,6.98-0.85,10.6099-1.19c17.25-1.6299,32.8101-3.86,34.5801-4.96
		c0.27-0.17,0.5601-0.31,0.86-0.44c0.0599-0.03,0.12-0.05,0.1801-0.08c0.61-0.25,1.27-0.43,1.97-0.54l0.1799-0.03
		c0.27-0.04,0.53-0.07,0.8-0.09c0.01,0,0.01,0,0.02,0c0.09-0.01,0.1799-0.02,0.27-0.02h0.23c0.3301-0.01,0.6699-0.01,1.02,0.01
		c0.05,0,0.1,0,0.1599,0.01c0.41,0.02,0.8401,0.06,1.27,0.12c0.04,0.01,0.0801,0.01,0.1201,0.02
		c0.4399,0.06,0.8799,0.14,1.3199,0.2401h0.0299c0.4501,0.1,0.9001,0.22,1.3501,0.35c0.0601,0.02,0.12,0.03,0.1799,0.05
		c0.45,0.14,0.89,0.28,1.3401,0.45c0.02,0,0.03,0.01,0.04,0.01c0.45,0.17,0.8899,0.35,1.3298,0.54
		c0.04,0.02,0.0801,0.04,0.1201,0.05c0.4399,0.2,0.8799,0.41,1.3099,0.63c0.05,0.03,0.1,0.06,0.16,0.08
		c0.87,0.46,1.71,0.96,2.52,1.52c0.05,0.03,0.1,0.06,0.1499,0.1c0.4001,0.27,0.79,0.56,1.1602,0.85
		c0.0399,0.03,0.0698,0.06,0.1099,0.09c0.3701,0.3,0.74,0.6,1.0801,0.91l0.04,0.04c0.3499,0.31,0.6799,0.64,1,0.97
		c0.0499,0.05,0.0999,0.1,0.1399,0.16c0.3201,0.33,0.6201,0.67,0.9,1.02c0.01,0.02,0.03,0.04,0.04,0.0601
		c0.2699,0.34,0.5199,0.68,0.7599,1.03c0.03,0.05,0.0601,0.1,0.0901,0.14c0.23,0.36,0.45,0.72,0.64,1.09
		c0.0299,0.06,0.0699,0.12,0.1,0.18c0.1899,0.38,0.36,0.76,0.51,1.14c0.4,1.05,0.6799,2.17,0.8401,3.44
		c0.8298,6.9-2.0801,18.29-11.2201,45.9601c-11.49,34.7799-19.74,51.58-28.6901,53.17c-0.47,0.09-0.9299,0.1299-1.3999,0.1299
		c-3.1201,0.01-6.3501-1.7799-9.8501-5.24c-0.2-0.2-0.4099-0.4099-0.6199-0.6299c-0.6201-0.6401-1.25-1.3401-1.8901-2.0801
		c-0.4299-0.5-0.8599-1.02-1.2899-1.5701c-1.9601-2.4399-4.01-5.35-6.17-8.6899c-17.53-27.09-27.0699-42.09-32.22-51.55
		c-5.03-9.24-5.87-13.21-5.87-18.01C587.45,984.6735,589.46,978.3935,591.92,976.3535z M449.4399,1010.2135
		c15.14-14.37,31.62-21.15,51.39-21.15c8.15,0,12.8,0.23,15.83,1.38c2.99,1.13,4.4,3.16,6.04,6.77c1.53,3.35,1.95,6.41,0.34,12.19
		c-0.08,0.28-0.17,0.57-0.25,0.87c-0.05,0.14-0.09,0.29-0.14,0.45c-0.09,0.3-0.19,0.61-0.3,0.93c-0.67,2.06-1.56,4.44-2.7,7.23
		c-0.17,0.43-0.36,0.87-0.54,1.32c-0.19,0.45-0.38,0.91-0.58,1.38c-0.1,0.23-0.2,0.47-0.3,0.71c-0.72,1.68-1.51,3.48-2.38,5.44
		c-0.25,0.5601-0.51,1.13-0.77,1.71c-0.39,0.87-0.8,1.77-1.22,2.7001c-0.15,0.3099-0.29,0.62-0.4301,0.9399
		c-0.18,0.4-0.36,0.8-0.55,1.2001c-1.3,2.84-2.73,5.9199-4.3,9.2899c-0.19,0.41-0.39,0.8201-0.58,1.2301
		c-0.29,0.61-0.57,1.21-0.84,1.7999c-0.55,1.17-1.09,2.3101-1.62,3.42c-0.27,0.5599-0.53,1.1-0.78,1.64
		c-0.34,0.71-0.67,1.4099-1,2.09c-9.04,18.8-13.61,26.0699-18.37,28.9701c-1.03,0.6199-2.07,1.0499-3.16,1.3398
		c-7.75,2.0701-8.98,1-13.98-12.0898c-3.02-7.9001-10.51-20.3701-16.64-27.7101
		C438.11,1028.1035,437.6799,1021.3635,449.4399,1010.2135z M495.5799,1320.4836c-0.5,3.2699-1.93,5.2-4.6,7.1499
		c-1.97,1.4399-4.58,2.71-7,3.52c-1.66,0.55-3.25,0.89-4.46,0.89c-7.27,0-28.37-15.6-41.76-30.87c-6.35-7.24-9.37-12.89-9-19.0701
		c0.36-5.9399,3.84-12.3699,10.53-21.1699c0.02-0.01,0.03-0.03,0.04-0.04c0.5-0.65,1-1.29,1.49-1.9099
		c0.12-0.1401,0.23-0.29,0.35-0.4301c0.49-0.61,0.99-1.2001,1.48-1.78c0.1-0.12,0.2-0.23,0.3-0.35
		c0.46-0.53,0.92-1.0601,1.38-1.5601c0.07-0.08,0.14-0.1699,0.22-0.25c0.5-0.54,1-1.0699,1.4901-1.59c0.12-0.12,0.24-0.25,0.36-0.37
		c0.5-0.5,0.99-1,1.48-1.47c0.08-0.0801,0.15-0.15,0.23-0.22c0.45-0.4301,0.89-0.8401,1.34-1.24c0.1-0.1001,0.21-0.1901,0.31-0.29
		c0.48-0.42,0.96-0.8301,1.43-1.23c0.12-0.1001,0.24-0.1901,0.36-0.29c0.46-0.38,0.9301-0.75,1.38-1.0901
		c0.05-0.0399,0.11-0.08,0.16-0.1199c0.45-0.3401,0.9-0.66,1.35-0.97c0.12-0.0901,0.24-0.1702,0.36-0.25
		c0.45-0.3101,0.9-0.6001,1.34-0.8701c0.11-0.0699,0.22-0.1299,0.33-0.1899c0.39-0.24,0.77-0.46,1.16-0.66
		c0.08-0.0499,0.17-0.1,0.26-0.15c0.43-0.22,0.85-0.4299,1.27-0.62c0.12-0.0499,0.23-0.1,0.35-0.16c0.42-0.1799,0.83-0.34,1.23-0.49
		c0.08-0.03,0.16-0.0499,0.2401-0.08c0.35-0.12,0.7-0.23,1.05-0.3199c0.09-0.03,0.19-0.05,0.29-0.0801
		c0.38-0.09,0.76-0.1699,1.12-0.23c0.1-0.01,0.2-0.03,0.3-0.04c0.36-0.0499,0.71-0.08,1.06-0.09c0.02,0,0.04-0.01,0.0601-0.01
		c0.02,0,0.04,0.01,0.06,0.01c0.31-0.01,0.62,0,0.92,0.03c0.09,0.01,0.19,0.02,0.28,0.0299c0.3,0.04,0.59,0.0801,0.87,0.1501
		c0.03,0.01,0.07,0.02,0.1,0.0299c0.28,0.0699,0.55,0.16,0.82,0.27c0.08,0.03,0.16,0.0699,0.24,0.1c0.26,0.1201,0.52,0.25,0.76,0.4
		c0.02,0.01,0.03,0.01,0.04,0.02c0.83,0.5299,1.83,1.6801,2.95,3.34c0.36,0.53,0.73,1.1101,1.11,1.74c0.12,0.21,0.25,0.42,0.38,0.64
		c0.13,0.2201,0.26,0.4501,0.39,0.6801s0.26,0.46,0.4,0.7c0.26,0.48,0.54,0.98,0.81,1.5c0.14,0.26,0.27,0.51,0.42,0.78
		c0.13,0.27,0.27,0.54,0.42,0.8201c0.13,0.2699,0.27,0.5499,0.42,0.8298c7.49,15.02,16.86,41.1801,18.73,54.8601
		C495.7399,1313.9836,495.9899,1317.7136,495.5799,1320.4836z M642.16,1373.7136c-1.6001,1.2799-3.5801,2.3099-5.9202,3.09
		c-12.6099,4.2599-35.2699,1.4301-60.2899-7.9301c-21.61-8.0699-25.6-15.1899-17.89-31.9299c3.3-7.1801,9.26-22.25,13.23-33.47
		c3.98-11.2301,10.71-24.17,14.97-28.76c3.74-4.03,5.75-6.0701,7.9102-6.4601c1.22-0.22,2.5,0.11,4.1399,0.88
		c1.28,0.6001,2.77,1.46,4.67,2.5901c1.09,0.6499,2.1801,1.46,3.2699,2.3999c7.9202,6.87,15.3501,20.99,19.04,36.6899
		c0.6901,2.9701,2.6001,8.1901,5.02,14c1.98,4.7401,4.3,9.8701,6.6101,14.4901C647.09,1359.6836,648.46,1368.6736,642.16,1373.7136z
		 M801.5599,1397.8835l-3.38,7.3101c-0.09,0.09-0.1901,0.1799-0.2899,0.27c-0.1001,0.08-0.2001,0.1599-0.3,0.24
		c-4.77,3.6099-11.15,5.28-15.22,4.3999c-1.17-0.26-2.16-0.71-2.8501-1.3999c-0.46-0.47-3.5-1.1801-8.0399-1.97
		c-4.9-0.8401-11.55-1.78-18.67-2.5801c-29.1-3.26-41.24-9.71-41.24-21.9199c0-5.8301,9.9-24.7401,20.7-41.4102
		c5.8401-9.01,11.9401-17.3699,16.8901-22.6599c0.0699-0.0701,0.1299-0.14,0.2-0.21c0.26-0.27,0.52-0.55,0.78-0.8101l0.3599-0.36
		c0.2101-0.2101,0.4202-0.42,0.6201-0.61c0.1199-0.13,0.25-0.24,0.3699-0.3601c0.2001-0.1899,0.4001-0.3699,0.5901-0.5499
		c0.13-0.12,0.25-0.23,0.37-0.33c0.2001-0.1801,0.4-0.3601,0.6-0.53c0.1101-0.0901,0.22-0.1899,0.3301-0.28
		c0.22-0.1799,0.4299-0.35,0.6399-0.52c0.0901-0.0699,0.1901-0.1499,0.28-0.22c0.25-0.2,0.5-0.38,0.75-0.5601
		c0.05-0.0399,0.1001-0.08,0.15-0.1099c0.62-0.4401,1.24-0.8301,1.84-1.1801c0.03-0.01,0.0601-0.03,0.0901-0.0499
		c0.27-0.1501,0.53-0.29,0.7999-0.4102c0.0599-0.0299,0.12-0.0599,0.1801-0.0898c0.23-0.1101,0.47-0.2201,0.7-0.3101
		c0.0701-0.03,0.14-0.0601,0.21-0.0901c0.22-0.09,0.4501-0.1699,0.6801-0.25c0.0599-0.02,0.13-0.0399,0.2001-0.0599
		c0.23-0.08,0.47-0.14,0.7-0.2001c0.0601-0.0199,0.11-0.0299,0.1699-0.0499c0.27-0.0599,0.54-0.11,0.8101-0.16
		c0.01,0,0.03,0,0.04-0.01c0.3-0.04,0.59-0.08,0.8899-0.1c0.17-0.01,0.3501-0.01,0.52-0.01c0.1401,0,0.27-0.0099,0.4-0.0099
		c0.17,0,0.34,0.0199,0.51,0.0299c0.15,0.01,0.2999,0.02,0.4501,0.04c0.1599,0.0099,0.33,0.0399,0.5,0.0699
		c0.1499,0.02,0.2999,0.05,0.45,0.0801c0.1699,0.03,0.3301,0.0699,0.5,0.1099c0.1499,0.04,0.3101,0.0801,0.47,0.1301
		c0.16,0.0499,0.3201,0.1,0.49,0.1499c0.16,0.0601,0.3201,0.1201,0.48,0.1801c0.16,0.0599,0.3201,0.12,0.48,0.1901
		c0.17,0.08,0.3401,0.1599,0.51,0.24c0.16,0.0699,0.3101,0.1399,0.47,0.22c0.1802,0.1,0.3701,0.2,0.5601,0.3101
		c0.14,0.0798,0.28,0.1499,0.42,0.24c0.26,0.1499,0.5199,0.3199,0.7899,0.49c0.1201,0.09,0.25,0.1699,0.3801,0.26
		c0.27,0.1899,0.5499,0.3899,0.83,0.5999c0.12,0.0901,0.26,0.2001,0.39,0.3c0.21,0.17,0.4299,0.3401,0.6399,0.52
		c0.1501,0.12,0.29,0.24,0.4301,0.37c0.2101,0.1801,0.42,0.36,0.63,0.5499c0.15,0.1301,0.3,0.27,0.45,0.4001
		c0.2101,0.2,0.42,0.3999,0.6301,0.6099c0.1499,0.1401,0.2999,0.29,0.45,0.4401c0.22,0.2201,0.4399,0.4401,0.6699,0.67
		c0.1401,0.1499,0.29,0.3,0.4301,0.46c0.24,0.25,0.4801,0.5,0.7201,0.77c0.1399,0.1499,0.2699,0.29,0.4099,0.45
		c0.27,0.3,0.54,0.6101,0.8201,0.9301c0.1099,0.12,0.22,0.25,0.33,0.38c0.39,0.45,0.7899,0.9199,1.1901,1.3999
		c0.6099,0.74,1.21,1.51,1.7999,2.3101c0.39,0.54,0.7799,1.0901,1.17,1.66c0.1899,0.2799,0.3799,0.5699,0.5699,0.86
		c0.39,0.5801,0.77,1.1699,1.14,1.77c0.37,0.6,0.74,1.23,1.11,1.86c0.73,1.26,1.4501,2.5599,2.14,3.91
		c0.35,0.6699,0.6899,1.36,1.03,2.0499c0.34,0.6901,0.6799,1.39,1,2.1c0.33,0.7101,0.6499,1.4301,0.97,2.16
		c0.3201,0.7201,0.64,1.4501,0.9399,2.1901c0.77,1.84,1.51,3.73,2.2001,5.6499c0.2799,0.76,0.5599,1.53,0.8199,2.3101
		c0.54,1.54,1.05,3.11,1.53,4.6699c0,0,0,0,0,0.01c0.98,3.1401,1.8401,6.3,2.5901,9.4301c0,0,0,0,0,0.01
		c0.2699,1.13,0.5299,2.25,0.7699,3.36c0.12,0.5701,0.24,1.13,0.35,1.6799
		C802.2999,1380.4636,802.9899,1390.8635,801.5599,1397.8835z M936.4,1411.4736c-1.5901,1.2799-3.78,2.4199-6.79,3.6399
		c-8.1001,3.3201-24.9301,6-38.3701,6.6801c-6.3298,0.3199-11.8999,0.2-15.46-0.52c-3.83-0.77-7.6399-3.1901-10.78-6.37
		c-0.3199-0.3101-0.6299-0.64-0.9299-0.98c-1.5-1.66-2.8201-3.5-3.89-5.41c-2.2599-4.0599-3.35-8.4-2.48-11.99
		c0.9701-4.02,4.9501-11.72,8.85-17.11c3.89-5.39,11.1001-16.79,16.02-25.3201c4.91-8.53,11.0801-15.51,13.7-15.51
		c5.5601,0,13.8501,8.1401,21.91,21.53c3.15,5.23,9.4,14.49,13.89,20.6001c1.2,1.6299,2.3401,3.5,3.37,5.45
		c2.8199,5.33,4.79,11.3101,4.79,15.13C940.23,1406.2336,939.34,1409.1135,936.4,1411.4736z M1076.64,1366.2635
		c-5.52,6.35-14.3501,12.74-26.6801,19.63c-20.33,11.38-29.61,13.71-35.98,8.6699c-0.42-0.3398-0.83-0.7-1.2301-1.1099h-0.01
		c-0.5999-0.6001-1.1299-1.23-1.5798-1.8901c-0.3401-0.49-0.6401-1-0.9001-1.5299c-1.0999-2.28-1.4399-4.92-0.96-8.1
		c0.0801-0.48,0.17-0.96,0.27-1.46c0.49-2.25,1.3401-4.74,2.5801-7.55c0.5499-1.25,1.1699-2.5601,1.8799-3.9301
		c0.52-1.0299,1.0901-2.1,1.71-3.2c2.04-3.6901,4.5701-7.8099,7.6101-12.4301c2.35-3.58,4.6499-7.3199,6.76-10.96
		c2.1-3.64,4.02-7.1699,5.59-10.3201c2.2201-4.4299,3.77-8.1099,4.24-10.24c1.6901-7.6599,3.78-9.3999,11.35-9.3999
		c4.52,0,8.45,1.5699,13.0601,5.51c1.49,1.27,3.0601,2.7999,4.75,4.6c0.51,0.5399,1.02,1.11,1.55,1.7
		c0.52,0.59,1.0599,1.2101,1.6199,1.85c0.47,0.55,0.92,1.0901,1.3601,1.6301c0.22,0.2699,0.4299,0.5399,0.6499,0.8099
		c0.6401,0.7999,1.25,1.6,1.8201,2.38c0,0,0,0,0,0.01c0.58,0.79,1.12,1.5599,1.63,2.33c0.5099,0.77,0.99,1.53,1.4301,2.29
		c0.1399,0.25,0.2899,0.5099,0.4299,0.7599c0.29,0.5,0.55,0.9901,0.8,1.4901
		C1085.66,1348.1135,1084.5699,1357.1436,1076.64,1366.2635z M1119.92,1228.2736c-0.1702,4.9-0.54,10.2001-1.27,15.49
		c-1.9001,13.9501-6.23,27.8199-15.6201,34.2201c-4.2,2.8599-7.97,5.7999-12.7,4.47c-5.0701-1.41-11.3201-8.2001-16.13-10.91
		c-16.73-9.42-41.5299-18.2001-53.11,4.0599c-3.27,6.27-4.8101,13.27-7.2,19.92c-6.1501,17.1801-18.78,37.5-32.3301,49.84
		c-6.03,5.48-19.12,13.21-27.09,7.95c-2.78-1.8398-4.8099-4.6099-6.58-7.4399c-7.1001-11.34-10.9301-24.36-16.1401-36.6799
		c-3.0898-7.3401-6.7799-14.6001-11.8099-20.8201c-2.98-3.6899-12.59-15.11-17.8199-15.11
		c-13.8601-0.01-27.4301,20.29-34.0601,30.4301c-6.45,9.8699-12.6799,28.45-22.49,35.1299
		c-10.24,6.9801-22.1599-1.22-25.3301-11.3199c-6.8198-21.6801-13.8198-42.8199-19.5199-64.83c-1.9701-7.62-8.03-13-15.2001-16.21
		c-8.7-3.9001-19.0499-4.0901-27.5599,0.45c-4.73,2.52-8.42,6.61-11.86,10.72c-5.0601,6.04-9.8601,12.3201-14.1001,18.96
		c-4.1099,6.4501-6.3599,14.51-11.5,20.0801c-7.71,8.37-17.8799,27.5601-29.8298,29.08c-6,0.77-12.0801-1.45-17.05-4.89
		c-10.65-7.37-14.3-21.11-19.3801-32.4099c-4.8699-10.8201-9.47-21.79-14.5299-32.52c-6.85-14.53-16.6801-35.39-33.8199-39.8
		c-8.24-2.12-16.5601,4.89-22.92,9.5701c-9.9701,7.33-18.61,16.47-25.38,26.83c-5.32,8.16-9.14,26.2001-21.92,25.16
		c-6.9-0.5601-8.19-7.9401-10.9901-13.6001c-9.5699-19.34-19.24-38.2999-30.01-56.84c-6.33-10.92-14.15-18.17-26.4-18.17
		c-1.72,0-3.52,0.1501-5.42,0.4401c-10.68,1.64-20.21,7.37-29.65,12.64c-6.54,3.6499-14.3,7.23-21.26,4.4299
		c-6.82-2.75-9.99-10.51-11.81-17.6299c-7.66-29.9001-3.85-62.5901,10.5-89.92c4.56-8.6801,12.7-12.4501,20.18-4.11
		c3.14,3.51,4.93,7.99,6.86,12.28c3.21,7.1699,8.62,12,12.97,18.3499c6.27,9.1401,12.54,18.27,18.81,27.4102
		c0.86,1.25,1.77,2.5499,3.12,3.24c0.28,0.1499,0.58,0.25,0.89,0.3199c9.74,2.1901,34.47-30.86,38.87-36.4401
		c4.49-5.71,9.64-12.1599,11.44-14.35c4.14-5.0399,21.63-42.1,22.68-48.08c0.16-0.9,3.04-4.8,6.41-8.6801
		c8.14-9.35,14.53-0.12,21.6499,6.9c15.98,15.77,32.28,30.13,43.1501,50.26c3.2,5.91,5.97,12.0801,10.0199,17.4399
		c4.36,5.78,15.6,15.28,23.29,15.3801c13.5499,0.1799,28.47-24.0801,35.23-34.0701c6.88-10.1699,12.66-21.0701,17.2101-32.48
		c4.3499-10.9,5.8799-21.26,16.01-28.5601c12.45-8.96,16.5299,15.48,18.96,22.5c5.51,15.96,13.76,30.8101,21.9299,45.53
		c3.4,6.13,6.9299,12.42,12.3201,16.91c14.7999,12.34,34.3799-0.66,46.7999-10.29c8.1801-6.35,15.3099-14.0699,20.9501-22.76
		c4.1399-6.39,5.6299-19.98,13.6299-22.5c1.1201,3.2301,1.4102,6.8101,2.1301,10.2201c4.6199,22.0399,18.2899,41.84,36.71,54.6599
		c32.51,22.62,55.8101-1.84,73.3899-28.49c6.4501-9.77,38.2201-50.34,48.9801-25.0701c5.14,12.0801,7.36,25.9401,12.01,38.3501
		c5.9401,15.8201,12.98,31.23,21.0599,46.08c6.78,12.4701,13.1801,32.14,30.6801,26.37c8.26-2.72,26.24-7.6399,34.46-2.9299
		c0.05,0.03,0.1,0.0599,0.14,0.09c1.3201,0.5499,2.41,1.27,3.27,2.16c1.59,1.6599,2.37,3.8799,2.3301,6.6799
		c0.8298,3.73,0.8699,7.92,0.8398,11.6001c-0.01,1.6199-0.0399,3.1399-0.01,4.48
		C1120.0499,1220.6636,1120.0499,1224.3435,1119.92,1228.2736z"/>
	<path fill="#E6E6E6" d="M612.1599,971.5635c1.61-0.24,3.27-0.47,4.98-0.69C615.4299,971.0936,613.77,971.3235,612.1599,971.5635z"
		/>
	<path fill="#E6E6E6" d="M607.52,972.2935c0.99-0.17,2.0099-0.33,3.05-0.49C609.5299,971.9636,608.5099,972.1335,607.52,972.2935z"
		/>
	<path fill="#FFFFFF" d="M586.2599,1274.7135c3.74-4.0299,5.75-6.0699,7.91-6.46c1.22-0.22,2.5,0.11,4.14,0.88
		c1.28,0.6,2.77,1.46,4.67,2.59c1.09,0.65,2.18,1.4601,3.27,2.4c7.92,6.87,15.35,20.99,19.04,36.6899
		c0.69,2.9701,2.6,8.1901,5.02,14c1.98,4.7401,4.3,9.8701,6.61,14.4901c10.17,20.38,11.54,29.37,5.24,34.4099
		c-1.6,1.28-3.58,2.3101-5.92,3.0901c-12.61,4.2599-35.27,1.4299-60.29-7.9301c-21.61-8.0699-25.6-15.1899-17.89-31.9301
		c3.3-7.1799,9.26-22.25,13.23-33.47C575.27,1292.2435,581.9999,1279.3036,586.2599,1274.7135z"/>
	<path fill="#E6E6E6" d="M522.7899,1010.2736c0.08-0.3,0.17-0.59,0.25-0.87
		C522.9599,1009.6835,522.8699,1009.9735,522.7899,1010.2736z"/>
	<path fill="#E6E6E6" d="M522.6499,1010.7235c-0.09,0.3-0.19,0.61-0.3,0.9301
		C522.4599,1011.3336,522.5599,1011.0236,522.6499,1010.7235z"/>
	<path fill="#E6E6E6" d="M519.6499,1018.8835c-0.17,0.43-0.35,0.87-0.54,1.32
		C519.2899,1019.7535,519.4799,1019.3135,519.6499,1018.8835z"/>
	<path fill="#E6E6E6" d="M519.1099,1020.2036c-0.19,0.45-0.38,0.91-0.58,1.38
		C518.7299,1021.1135,518.9199,1020.6536,519.1099,1020.2036z"/>
	<path fill="#E6E6E6" d="M518.2299,1022.2935c-0.72,1.68-1.51,3.48-2.38,5.44
		C516.7199,1025.7736,517.5099,1023.9735,518.2299,1022.2935z"/>
	<path fill="#E6E6E6" d="M515.08,1029.4435c-0.39,0.87-0.8,1.77-1.22,2.7001
		C514.2799,1031.2135,514.6899,1030.3135,515.08,1029.4435z"/>
	<path fill="#E6E6E6" d="M513.4299,1033.0835c-1.44,3.16-3.05,6.64-4.85,10.49c-0.19,0.41-0.39,0.8201-0.58,1.2301
		c0.19-0.41,0.38-0.8201,0.57-1.2301C510.3699,1039.7235,511.9799,1036.2435,513.4299,1033.0835z"/>
	<path fill="#E6E6E6" d="M507.9999,1044.8036c-1.14,2.4299-2.21,4.72-3.24,6.86
		C505.7799,1049.5135,506.8599,1047.2335,507.9999,1044.8036z"/>
	<path fill="#E6E6E6" d="M504.7599,1051.6636c-0.34,0.71-0.67,1.4099-1,2.09
		C504.0799,1053.0735,504.4199,1052.3735,504.7599,1051.6636z"/>
	<path fill="#FFFFFF" d="M516.6599,990.4435c2.99,1.13,4.4,3.16,6.04,6.77c1.53,3.35,1.95,6.41,0.34,12.19
		c-0.08,0.28-0.17,0.5699-0.25,0.87c-0.05,0.14-0.09,0.29-0.14,0.45c-0.09,0.3-0.19,0.61-0.3,0.9301c-0.67,2.06-1.56,4.44-2.7,7.23
		c-0.17,0.43-0.36,0.87-0.54,1.32c-0.19,0.45-0.38,0.91-0.58,1.38c-0.1,0.23-0.2,0.47-0.3,0.71c-0.72,1.68-1.51,3.48-2.38,5.44
		c-0.25,0.5601-0.51,1.13-0.77,1.71c-0.39,0.87-0.8,1.77-1.22,2.7001c-0.15,0.3099-0.29,0.62-0.43,0.9399
		c-1.45,3.16-3.06,6.64-4.86,10.49c-0.19,0.41-0.38,0.8201-0.57,1.2301c-1.14,2.4299-2.22,4.71-3.24,6.86
		c-0.34,0.71-0.68,1.4099-1,2.09c-9.04,18.8-13.61,26.0699-18.37,28.97c-1.03,0.62-2.07,1.05-3.16,1.34
		c-7.75,2.0701-8.98,1-13.98-12.09c-3.02-7.9-10.51-20.37-16.64-27.71c-13.5-16.16-13.93-22.9-2.17-34.05
		c15.14-14.37,31.62-21.15,51.39-21.15C508.9799,989.0635,513.6299,989.2935,516.6599,990.4435z"/>
	<path fill="#E6E6E6" d="M475.8299,1252.7335c0.14,0.27,0.28,0.55,0.42,0.83
		C476.0999,1253.2836,475.9599,1253.0035,475.8299,1252.7335z"/>
	<path fill="#E6E6E6" d="M474.9899,1251.1335c0.14,0.25,0.28,0.52,0.42,0.78
		C475.2599,1251.6436,475.1299,1251.3936,474.9899,1251.1335z"/>
	<path fill="#E6E6E6" d="M473.7799,1248.9336c0.14,0.23,0.27,0.46,0.4,0.7
		C474.0399,1249.3936,473.9099,1249.1636,473.7799,1248.9336z"/>
	<path fill="#E6E6E6" d="M473.0099,1247.6135c0.13,0.21,0.25,0.42,0.38,0.64
		C473.2599,1248.0336,473.1299,1247.8235,473.0099,1247.6135z"/>
	<path fill="#FFFFFF" d="M468.9099,1242.5135c0.02,0.01,0.03,0.01,0.04,0.02c0.83,0.5299,1.83,1.6799,2.95,3.34
		c0.36,0.53,0.73,1.11,1.11,1.74c0.12,0.21,0.25,0.42,0.38,0.64s0.26,0.45,0.39,0.6801c0.13,0.23,0.26,0.46,0.4,0.7
		c0.26,0.48,0.54,0.98,0.81,1.5c0.14,0.26,0.27,0.51,0.42,0.78c0.13,0.27,0.27,0.5399,0.42,0.8199c0.13,0.27,0.27,0.55,0.42,0.83
		c7.49,15.02,16.86,41.1801,18.73,54.8601c0.76,5.5599,1.01,9.2899,0.6,12.0599c-0.5,3.27-1.93,5.2001-4.6,7.15
		c-1.97,1.4399-4.58,2.71-7,3.52c-1.66,0.5499-3.25,0.89-4.46,0.89c-7.27,0-28.37-15.6001-41.76-30.87
		c-6.35-7.24-9.37-12.89-9-19.0701c0.36-5.9399,3.84-12.37,10.53-21.1699c0.02-0.01,0.03-0.03,0.04-0.04c0.5-0.65,1-1.29,1.49-1.91
		c0.12-0.14,0.23-0.29,0.35-0.4299c0.49-0.6101,0.99-1.2001,1.48-1.78c0.1-0.12,0.2-0.23,0.3-0.35
		c0.46-0.53,0.92-1.0601,1.38-1.5601c0.07-0.08,0.14-0.17,0.22-0.25c0.5-0.54,1-1.0699,1.49-1.59c0.12-0.12,0.24-0.25,0.36-0.37
		c0.5-0.5,0.99-1,1.48-1.47c0.08-0.0801,0.15-0.15,0.23-0.2201c0.45-0.4299,0.89-0.84,1.34-1.24c0.1-0.1,0.21-0.1899,0.31-0.2899
		c0.48-0.42,0.96-0.8301,1.43-1.2301c0.12-0.1,0.24-0.1899,0.36-0.2899c0.46-0.38,0.93-0.75,1.38-1.0901
		c0.05-0.0399,0.11-0.08,0.16-0.12c0.45-0.34,0.9-0.6599,1.35-0.97c0.12-0.09,0.24-0.17,0.36-0.25c0.45-0.3099,0.9-0.6,1.34-0.87
		c0.11-0.0699,0.22-0.13,0.33-0.1899c0.39-0.24,0.77-0.4601,1.16-0.66c0.08-0.05,0.17-0.1,0.26-0.15
		c0.43-0.22,0.85-0.4299,1.27-0.62c0.12-0.05,0.23-0.1,0.35-0.16c0.42-0.1799,0.83-0.34,1.23-0.49c0.08-0.03,0.16-0.0499,0.24-0.08
		c0.35-0.12,0.7-0.23,1.05-0.3201c0.09-0.0299,0.19-0.0499,0.29-0.08c0.38-0.09,0.76-0.17,1.12-0.23c0.1-0.01,0.2-0.03,0.3-0.04
		c0.36-0.0499,0.71-0.08,1.06-0.09c0.02,0,0.04-0.01,0.06-0.01c0.02,0,0.04,0.01,0.06,0.01c0.31-0.01,0.62,0,0.92,0.03
		c0.09,0.01,0.19,0.02,0.28,0.0299c0.3,0.04,0.59,0.0801,0.87,0.15c0.03,0.01,0.07,0.02,0.1,0.03c0.28,0.0699,0.55,0.16,0.82,0.27
		c0.08,0.03,0.16,0.0699,0.24,0.1C468.4099,1242.2335,468.6699,1242.3635,468.9099,1242.5135z"/>
	<path d="M481.2299,647.5135c26.6,15.59,40.89,42.12,40.89,75.9c0,13.09-2.03,24.9301-5.38,31.45c-13,25.24-37.93,51.96-55.76,59.75
		c-12.58,5.5-35.94,5.85-45.02,0.68c-20.9-11.91-32.63-38.41-32.25-72.84C384.5999,660.8336,429.4499,617.1735,481.2299,647.5135z"
		/>
	<path d="M1539.9899,575.8335c-8.7-28.38-33.8899-61.38-27.3398-91.67c0.8199-3.81,2.1399-7.57,4.0599-11.27
		c9.47-18.29,26.17-31.53,39.99-46.8c43.4801-48.04,57.7999-120.59,35.8199-181.55c-21.97-60.96-79.2899-107.69-143.4299-116.93
		c-44.5-6.42-90.97,5.4-127.97,30.68c-5.41,3.7-10.54,7.86-15.52,12.16c4.58-3.32,9.26-6.21,14.48-8.98
		c-19.01,13.56-34.79,38.26-56.5701,47.3c5.4001-4.19,11.4001-9.83,18.3601-17.01c1-1.03,1.97-2.02,2.9299-2.99
		c-19.51,16.26-39.75,27.05-69.6799,10.59c-42.8-23.55-88.65-42.4301-134.9301-57.9c-177.61-59.37-374.91-60.19-554.45-8.53
		c-16.4,4.72-33.04,9.9301-50.09,9.34c-35.01-1.21-48.9-34.04-72.81-54.44c-28.16-24.02-62.23-40.64-99.2-44.94
		c-76.55-9.21-150.32,31.36-187.66,98.28c-37.81,67.78-24.46,162.28,19.29,224.27c8.97,12.71,19.41,24.75,24.93,39.31
		c10.71,28.3-9.2,57-23.03,80.15c-16.66,27.9-30.72,57.5899-42.75,87.75c-45.26,113.41-61.38,237.41-54.22,358.94
		c3.6,61.26,13.15,122.1801,28.39,181.6201c7.7,30.0499,16.87,59.72,27.52,88.8599c18.53,50.7101,42.8,99.4301,73.1999,144.0901
		c50.34,73.96,118.99,137.46,197.43,182.46c96.39,55.3,218.53,83.1899,327.76,99.24
		c273.5801,40.21,573.9501-59.45,728.3601-298.0599c16.6299-25.7001,31.52-52.3101,44.1299-80.2201
		c37.6602-83.3499,53.8301-173.21,71.1401-262.36c1-5.17,1.99-10.34,2.96-15.52c-0.1001,0.49-0.21,0.98-0.3301,1.47
		c0.6001-3.28,1.1901-6.55,1.78-9.81c-0.08,0.67-0.1699,1.35-0.27,2.05c15.3501-83.17,26-167.83,21.27-252.45
		C1560.95,666.5435,1553.64,620.3135,1539.9899,575.8335z M1394.95,193.4635c27.5399-7.33,45.9401-5.94,72.27,5.46
		c40.76,17.65,64.58,48.31,69.67,89.67c1.47,11.93-5.05,53.2-10.8701,68.81c-2.48,6.67-19.71,33.64-30.26,47.38
		c-15.6099,20.32-29.72,0.06-41.1199-14.85c-22.4001-29.27-47.9601-56.11-76.0801-79.94c-10.77-9.14-69.23-41.25-69.22-56.39
		C1309.36,235.9836,1354.59,204.2035,1394.95,193.4635z M185.7199,157.0335c23.08-30.02,58.89-49.59,96.39-53.97
		c35.5099-4.15,64.5699,18.25,92.45,38.43c12.82,9.28,24.78,26.47,15.25,42.02c-6.24,10.17-17.48,15.94-27.91,21.74
		c-60.73,33.78-110.79,87.24-148.25,144.4c0,0.01-0.01,0.03-0.02,0.04c-3.22,4.92-7.86,8.95-10.32,8.95
		c-2.47,0-9.88-11.4-16.47-25.32C158.67,273.8135,140.6399,215.6635,185.7199,157.0335z M1497.98,870.4235
		c-16.51,16.5099-59.89,8.55-80.35,9.0099c-36.15,0.82-72.3101,2.66-108.15,7.63c-13.4401,1.86-27.2401,4.31-38.64,11.66
		c-26.22,16.9-24.8501,58.98,3.64,72.41c15.6801,7.39,33.75,6.68,51.0599,7.22c36.3401,1.13,132.4,7.83,139.39,52.74
		c4.1901,26.92,2.33,43.8901-5.5099,50.24c-40.7001,32.9501-132.6501-32.83-165.8,18.1801c-12.9301,19.9,11.52,42.5,30.6799,49.13
		c7.05,2.4399,23.5601,9.53,36.71,15.75c13.1501,6.23,26.6501,11.85,30,12.5c15.51,2.99,29.4102,15.0801,29.3501,25.54
		c-0.2,33.6-43.38,80.6499-62.39,105.8099c-27.15,35.92-57.77,69.2201-91.26,99.3199
		c-114.2999,102.75-248.86,148.2201-390.61,157.4901c-115.24,7.5399-231.6899-6.4901-341.23-43.37
		c-98.66-33.22-197.14-78.77-268.73-156.5c-51.94-56.41-72.74-119.6901-106.24-185.99c-23.83-47.15-32.7-89.4-20.77-98.98
		c38.23-30.6901,87.58-41.0601,126.13-72.2202c10.73-8.68,21.77-21.08,18.46-34.47c-2.36-9.54-11.75-16.03-21.38-17.95
		c-9.63-1.93-19.58-0.17-29.24,1.58c-21.34,3.88-42.68,7.76-64.02,11.63c-14.13,2.57-29.24,5.03-42.4-0.69
		c-12.0699-5.25-20.5099-16.78-25.0099-29.16c-6.63-18.21-16.64-48.91,3.16-60.95c25.47-15.48,70.13-15.8,98.93-13.95
		c19.36,1.25,39.22,3.13,57.84-2.35c22.23-6.54,52.49-38.35,30.49-60.8199c-5.9-6.03-13.86-9.53-21.68-12.69
		c-26.9-10.89-54.74-19.48-83.09-25.67c-23.11-5.05-50.68-6.62-66.69-26.97c-13.14-16.7-4.66-54.85,13.15-66.29
		c20.18-12.96,65.67,1.9301,86.15,8.79c20.31,6.8,40.2,16.56,61.61,17.27c21.41,0.71,45.43-11.34,49.14-32.44
		c4.38-24.91-19.92-44.57-41.3-58.1l-84.72-53.61c-9.7-6.14-20.19-13.35-22.84-24.51c-2.21-9.27,1.67-18.8,5.67-27.45
		c33.04-71.54,80.4301-136.31,138.09-189.98c28.83-26.83,60.24-50.9,93.72-71.66c31.9901-19.83,70.78-48.79,109.7701-48.77
		c30.08,0.01,26.49,48.28,27.62,67.98c2.24,39.27,8.91,78.43,19.15,116.4c6.53,24.2,19.3301,95.5,47.34,104.84
		c20.7101,6.9,43.12-20.95,49.8199-36.91c7.9401-18.93,8.3-40.04,8.54-60.55c0.53-44.7,1.0601-89.4,1.5901-134.1
		c0.24-20.21-7.9-80.97,16.5699-93.05c3.84-1.88,26.86-4.37,51.16-5.54c56.61-2.72,58.86-1.44,61.2,35.04
		c3.38,52.7-11.13,108-15.3899,160.51c-2.1901,26.91-4.1901,57.77-1.8,84.66c1.6599,18.66,7.8899,37.4901,20.8,51.06
		c43.9099,46.18,67.8599-8.4,79.6099-45.7599c12.75-40.55,26.3201-80.84,40.7001-120.84c10.8099-30.08,26.24-111.61,63.86-121.68
		c20.24-5.42,45.8-2.09,69.0701,8.99c12.7699,6.08,26.8799,12.14,31.3799,13.47c17.22,5.09,20.5901,14.59,11.41,32.2
		c-2.6901,5.14-4.88,11.06-4.88,13.14s-8.8201,21.23-19.6,42.56c-10.78,21.33-19.6,40.87-19.6,43.44c0,2.56-5.72,19.62-12.7,37.91
		c-13.75,35.97-23.2301,71.18-23.2301,86.25c0,10.99,10.52,23.7599,19.5699,23.7599c16.92,0,49.5801-22.93,88.2201-61.95
		c15.2699-15.41,32.58-34.61,38.45-42.65c17.11-23.43,48.8199-73.52,51.12-80.75c1.16-3.65,5.66-10.48,10.01-15.17
		c13.73-14.82,22.48-11.87,57.03,19.23c66.54,59.9,121.21,128.78,157.39,211.15c11.9,27.11,20.75,54.9,29.2599,83.2
		c4.2401,14.12,15.3301,32.19,11.9202,47.33c-11.04,49.03-112.8101,51.77-151.04,58.91c-13.1001,2.44-26.76,4.85-37.5801,12.6299
		c-31.54,22.6801-2.73,56.89,23.98,67.59c19.9601,8,42.1101,8.21,63.5901,7.39c25.5699-0.99,74.49-7.79,96.85,8.58
		C1502.4999,816.8735,1507.7799,860.6235,1497.98,870.4235z"/>
	<path fill="#E6E6E6" d="M282.1099,103.0635c35.51-4.15,64.57,18.25,92.45,38.43c12.82,9.28,24.78,26.47,15.25,42.02
		c-6.24,10.17-17.48,15.94-27.91,21.74c-60.73,33.78-110.79,87.24-148.25,144.4c0,0.01-0.01,0.03-0.02,0.04
		c-3.22,4.92-7.86,8.95-10.32,8.95c-2.47,0-9.88-11.4-16.47-25.32c-28.17-59.51-46.2-117.66-1.12-176.29
		C208.7999,127.0135,244.6099,107.4435,282.1099,103.0635z"/>
	<path fill="#E6E6E6" d="M159.3099,438.8735c-0.47,1.17-0.96,2.38-1.49,3.63C158.3399,441.2535,158.8399,440.0435,159.3099,438.8735
		z"/>
	<path fill="#E6E6E6" d="M1270.84,898.7235c11.3999-7.35,25.2-9.8,38.64-11.66c35.84-4.97,72-6.81,108.15-7.63
		c20.46-0.46,63.84,7.5,80.35-9.0099c9.7999-9.8,4.5199-53.55-7.52-62.37c-22.36-16.3701-71.28-9.57-96.85-8.58
		c-21.48,0.82-43.63,0.61-63.5901-7.39c-26.71-10.7-55.52-44.91-23.98-67.59c10.8201-7.78,24.48-10.1899,37.5801-12.6299
		c38.23-7.14,140-9.88,151.04-58.91c3.4099-15.14-7.6801-33.21-11.9202-47.33c-8.5099-28.3-17.3599-56.09-29.2599-83.2
		c-36.1801-82.37-90.85-151.25-157.39-211.15c-34.55-31.1-43.3-34.05-57.03-19.23c-4.35,4.69-8.85,11.52-10.01,15.17
		c-2.3,7.23-34.01,57.32-51.12,80.75c-5.87,8.04-23.1801,27.24-38.45,42.65c-38.64,39.02-71.3,61.95-88.2201,61.95
		c-9.0499,0-19.5699-12.77-19.5699-23.7599c0-15.07,9.4801-50.28,23.2301-86.25c6.98-18.29,12.7-35.35,12.7-37.91
		c0-2.57,8.8199-22.11,19.6-43.44c10.7799-21.33,19.6-40.48,19.6-42.56s2.1899-8,4.88-13.14c9.1801-17.61,5.8099-27.11-11.41-32.2
		c-4.5-1.33-18.61-7.39-31.3799-13.47c-23.27-11.08-48.8301-14.41-69.0701-8.99c-37.62,10.07-53.05,91.6-63.86,121.68
		c-14.38,40-27.9501,80.29-40.7001,120.84c-11.75,37.36-35.7,91.94-79.6099,45.7599c-12.9102-13.5699-19.1401-32.4-20.8-51.06
		c-2.39-26.89-0.39-57.75,1.8-84.66c4.2599-52.51,18.7699-107.81,15.3899-160.51c-2.34-36.48-4.59-37.76-61.2-35.04
		c-24.3,1.17-47.3201,3.66-51.16,5.54c-24.47,12.08-16.33,72.84-16.5699,93.05c-0.53,44.7-1.0601,89.4-1.5901,134.1
		c-0.24,20.51-0.6,41.62-8.54,60.55c-6.7,15.96-29.1099,43.81-49.8199,36.91c-28.0099-9.34-40.8099-80.64-47.34-104.84
		c-10.24-37.97-16.91-77.13-19.15-116.4c-1.13-19.7,2.46-67.97-27.62-67.98c-38.99-0.02-77.78,28.94-109.7701,48.77
		c-33.48,20.7599-64.89,44.83-93.72,71.66c-57.66,53.67-105.05,118.44-138.09,189.98c-4,8.65-7.8799,18.18-5.67,27.45
		c2.65,11.16,13.14,18.37,22.84,24.51l84.72,53.61c21.38,13.53,45.68,33.19,41.3,58.1c-3.71,21.1-27.73,33.15-49.14,32.44
		c-21.41-0.71-41.3-10.47-61.61-17.27c-20.48-6.86-65.97-21.75-86.15-8.79c-17.81,11.44-26.29,49.59-13.15,66.29
		c16.01,20.35,43.58,21.92,66.69,26.97c28.35,6.19,56.19,14.78,83.09,25.67c7.82,3.16,15.78,6.66,21.68,12.69
		c22,22.47-8.26,54.28-30.49,60.8199c-18.62,5.48-38.48,3.6-57.84,2.35c-28.8-1.85-73.46-1.53-98.93,13.95
		c-19.8,12.04-9.79,42.74-3.16,60.95c4.5,12.38,12.94,23.91,25.0099,29.16c13.16,5.72,28.27,3.26,42.4,0.69
		c21.34-3.87,42.68-7.75,64.02-11.63c9.66-1.75,19.61-3.51,29.24-1.58c9.63,1.92,19.02,8.41,21.38,17.95
		c3.31,13.39-7.73,25.79-18.46,34.47c-38.55,31.1601-87.9,41.5301-126.13,72.2202c-11.93,9.58-3.06,51.83,20.77,98.98
		c33.5,66.2999,54.3,129.58,106.24,185.99c71.59,77.73,170.07,123.28,268.73,156.5c109.5401,36.8799,225.9901,50.9099,341.23,43.37
		c141.75-9.27,276.3101-54.7401,390.61-157.4901c33.49-30.0999,64.11-63.3999,91.26-99.3199
		c19.01-25.16,62.1901-72.21,62.39-105.8099c0.0601-10.46-13.8401-22.55-29.3501-25.54c-3.3499-0.65-16.8499-6.27-30-12.5
		c-13.1499-6.22-29.6599-13.3101-36.71-15.75c-19.1599-6.63-43.61-29.23-30.6799-49.13c33.1499-51.01,125.1,14.77,165.8-18.1801
		c7.8398-6.3499,9.7-23.3199,5.5099-50.24c-6.99-44.91-103.0499-51.61-139.39-52.74c-17.3099-0.54-35.3799,0.17-51.0599-7.22
		C1245.9899,957.7035,1244.62,915.6235,1270.84,898.7235z M676.7999,752.9035c4.8601-11.65,22.01-26.15,39.65-33.52
		c16.1901-6.76,52.7899-9.32,73.6801-5.14c9.7999,1.96,21.74,4.21,26.5499,5c4.8,0.8,18.63,6.35,30.7301,12.33
		c23.2899,11.52,46.6199,35.81,47.5798,49.55c1.77,25.34-6.7599,44.82-27.3298,62.44c-30.1301,25.8-66.9801,33.08-109.3601,21.6
		c-12.9199-3.5-27.62-8.98-32.6599-12.18c-19.72-12.52-41.17-32.67-47.0701-44.2401
		C671.2599,794.4135,670.42,768.1535,676.7999,752.9035z M383.7099,742.4535c0.89-81.62,45.74-125.28,97.52-94.94
		c26.6,15.59,40.89,42.12,40.89,75.9c0,13.09-2.03,24.93-5.38,31.45c-13,25.24-37.93,51.96-55.76,59.75
		c-12.58,5.5-35.94,5.85-45.02,0.68C395.0599,803.3835,383.3299,776.8835,383.7099,742.4535z M1104.4999,1395.9136
		c-9.7999,4.33-23.21,12.08-29.7999,17.23c-59.7899,46.6799-142.38,51.71-219.34,45.5801c-24.91-1.9801-49.22-5.1301-71.99-8.42
		c-76.5601-11.0601-152.55-26.05-227.58-44.9c-62.4701-15.6899-119.88-41.38-161.1701-93.89
		c-55.52-70.64-77.57-190.6801-27.27-270.74c16.42-26.1501,21.65-41.8301,49.88-60.2401c27.42-17.88,58.34-30.16,90.05-37.97
		c49.2-12.11,100.3501-13.85,151.02-13.14c75.5801,1.05,151.1001,7.41,225.8,18.99c38.1399,5.92,76.08,13.19,113.7,21.81
		c42.05,9.63,87.99,25.68,120.47,56.48c39.1201,37.0801,48.4501,100.65,52.28,152.13
		C1175.0299,1239.1235,1170.61,1366.6736,1104.4999,1395.9136z M1131.3199,900.5335c-0.7,0.19-1.39,0.37-2.0601,0.55
		c-0.6799,0.18-1.3398,0.34-1.99,0.5c-0.4299,0.11-0.8599,0.21-1.28,0.31c-0.3398,0.08-0.6699,0.16-1,0.23
		c-1.0499,0.2401-2.0599,0.45-3.0399,0.63c-1.12,0.21-2.2001,0.39-3.25,0.54c-0.25,0.04-0.49,0.07-0.73,0.1
		c-0.5699,0.07-1.14,0.14-1.7001,0.19c-0.1699,0.02-0.3499,0.04-0.52,0.05c-0.51,0.05-1.0199,0.08-1.5199,0.11
		c-0.37,0.02-0.7401,0.04-1.11,0.05c-0.4401,0.01-0.89,0.02-1.3301,0.02l-4.7-0.27c-0.48-0.06-0.97-0.13-1.45-0.21
		c-2.3701-0.36-4.76-0.95-7.27-1.77c-0.55-0.18-1.1101-0.37-1.67-0.57c-1-0.36-2.0299-0.75-3.09-1.1899
		c-0.72-0.28-1.45-0.59-2.2-0.92c-2.1602-0.94-4.4501-2.02-6.9102-3.25c-28.1899-14.05-42.0699-40.43-38.8899-73.91
		c2.1699-22.9,25.1299-70.2,42.52-87.58c35.23-35.23,84.8799-15.15,99.22,40.13
		C1201.9899,830.7135,1176.48,888.1935,1131.3199,900.5335z"/>
	<path fill="#666666" d="M1119.92,1228.2736c-0.1702,4.9-0.54,10.2001-1.27,15.49c-1.9001,13.9501-6.23,27.8199-15.6201,34.2201
		c-4.2,2.8599-7.97,5.7999-12.7,4.47c-5.0701-1.41-11.3201-8.2001-16.13-10.91c-16.73-9.42-41.5299-18.2001-53.11,4.0599
		c-3.27,6.27-4.8101,13.27-7.2,19.92c-6.1501,17.1801-18.78,37.5-32.3301,49.84c-6.03,5.48-19.12,13.21-27.09,7.95
		c-2.78-1.8398-4.8099-4.6099-6.58-7.4399c-7.1001-11.34-10.9301-24.36-16.1401-36.6799
		c-3.0898-7.3401-6.7799-14.6001-11.8099-20.8201c-2.98-3.6899-12.59-15.11-17.8199-15.11
		c-13.8601-0.01-27.4301,20.29-34.0601,30.4301c-6.45,9.8699-12.6799,28.45-22.49,35.1299
		c-10.24,6.9801-22.1599-1.22-25.3301-11.3199c-6.8198-21.6801-13.8198-42.8199-19.5199-64.83c-1.9701-7.62-8.03-13-15.2001-16.21
		c-8.7-3.9001-19.0499-4.0901-27.5599,0.45c-4.73,2.52-8.42,6.61-11.86,10.72c-5.0601,6.04-9.8601,12.3201-14.1001,18.96
		c-4.1099,6.4501-6.3599,14.51-11.5,20.0801c-7.71,8.37-17.8799,27.5601-29.8298,29.08c-6,0.77-12.0801-1.45-17.05-4.89
		c-10.65-7.37-14.3-21.11-19.3801-32.4099c-4.8699-10.8201-9.47-21.79-14.5299-32.52c-6.85-14.53-16.6801-35.39-33.8199-39.8
		c-8.24-2.12-16.5601,4.89-22.92,9.5701c-9.9701,7.33-18.61,16.47-25.38,26.83c-5.32,8.16-9.14,26.2001-21.92,25.16
		c-6.9-0.5601-8.19-7.9401-10.9901-13.6001c-9.5699-19.34-19.24-38.2999-30.01-56.84c-6.33-10.92-14.15-18.17-26.4-18.17
		c-1.72,0-3.52,0.1501-5.42,0.4401c-10.68,1.64-20.21,7.37-29.65,12.64c-6.54,3.6499-14.3,7.23-21.26,4.4299
		c-6.82-2.75-9.99-10.51-11.81-17.6299c-7.66-29.9001-3.85-62.5901,10.5-89.92c4.56-8.6801,12.7-12.4501,20.18-4.11
		c3.14,3.51,4.93,7.99,6.86,12.28c3.21,7.1699,8.62,12,12.97,18.3499c6.27,9.1401,12.54,18.27,18.81,27.4102
		c0.86,1.25,1.77,2.5499,3.12,3.24c0.28,0.1499,0.58,0.25,0.89,0.3199c9.74,2.1901,34.47-30.86,38.87-36.4401
		c4.49-5.71,9.64-12.1599,11.44-14.35c4.14-5.0399,21.63-42.1,22.68-48.08c0.16-0.9,3.04-4.8,6.41-8.6801
		c8.14-9.35,14.53-0.12,21.6499,6.9c15.98,15.77,32.28,30.13,43.1501,50.26c3.2,5.91,5.97,12.0801,10.0199,17.4399
		c4.36,5.78,15.6,15.28,23.29,15.3801c13.5499,0.1799,28.47-24.0801,35.23-34.0701c6.88-10.1699,12.66-21.0701,17.2101-32.48
		c4.3499-10.9,5.8799-21.26,16.01-28.5601c12.45-8.96,16.5299,15.48,18.96,22.5c5.51,15.96,13.76,30.8101,21.9299,45.53
		c3.4,6.13,6.9299,12.42,12.3201,16.91c14.7999,12.34,34.3799-0.66,46.7999-10.29c8.1801-6.35,15.3099-14.0699,20.9501-22.76
		c4.1399-6.39,5.6299-19.98,13.6299-22.5c1.1201,3.2301,1.4102,6.8101,2.1301,10.2201c4.6199,22.0399,18.2899,41.84,36.71,54.6599
		c32.51,22.62,55.8101-1.84,73.3899-28.49c6.4501-9.77,38.2201-50.34,48.9801-25.0701c5.14,12.0801,7.36,25.9401,12.01,38.3501
		c5.9401,15.8201,12.98,31.23,21.0599,46.08c6.78,12.4701,13.1801,32.14,30.6801,26.37c8.26-2.72,26.24-7.6399,34.46-2.9299
		c0.05,0.03,0.1,0.0599,0.14,0.09c3.13,1.85,4.76,5.12,5.6001,8.84c0.8298,3.73,0.8699,7.92,0.8398,11.6001
		c-0.01,1.6199-0.0399,3.1399-0.01,4.48C1120.0499,1220.6636,1120.0499,1224.3435,1119.92,1228.2736z"/>
	<path fill="#E6E6E6" d="M157.6199,442.9836c-0.47,1.1-0.96,2.23-1.47,3.4C156.6599,445.2135,157.1499,444.0835,157.6199,442.9836z"
		/>
</g>
</svg>
