<?xml version="1.0" encoding="UTF-8" ?>
<!DOCTYPE svg PUBLIC "-//W3C//DTD SVG 1.1//EN" "http://www.w3.org/Graphics/SVG/1.1/DTD/svg11.dtd">
<svg width="671pt" height="583pt" viewBox="0 0 671 583" version="1.1" xmlns="http://www.w3.org/2000/svg">
<path fill="#000000" opacity="1.00" d=" M 105.28 0.00 L 113.87 0.00 C 115.20 0.00 117.85 0.00 119.18 0.00 L 124.90 0.00 C 128.74 1.31 132.59 0.59 136.45 0.00 L 153.58 0.00 C 157.04 0.91 160.51 0.91 163.98 0.00 L 166.81 0.00 C 177.66 1.20 188.72 1.99 199.54 0.00 L 218.68 0.00 C 223.89 0.93 229.22 0.90 234.45 0.00 L 436.55 0.00 C 441.77 0.91 447.11 0.93 452.35 0.00 L 471.57 0.00 C 482.41 0.86 493.54 2.36 504.30 0.00 L 507.12 0.00 C 510.57 0.94 514.02 0.94 517.48 0.00 L 534.66 0.00 C 538.48 1.21 542.35 0.66 546.21 0.00 L 551.91 0.00 C 553.22 0.00 555.86 0.00 557.17 0.00 L 565.73 0.00 C 600.75 3.13 635.95 0.08 671.00 1.88 L 671.00 4.55 C 560.48 197.53 449.00 391.03 336.83 583.00 L 334.17 583.00 C 286.22 499.76 237.52 417.00 189.15 333.85 C 125.28 224.24 63.70 113.93 0.00 4.55 L 0.00 1.88 C 35.05 0.08 70.26 3.13 105.28 0.00 M 96.56 7.41 C 85.07 9.88 111.73 13.05 108.32 7.73 C 104.54 6.46 100.43 7.13 96.56 7.41 M 169.38 7.42 C 150.61 12.18 156.94 35.48 150.15 48.90 C 155.71 48.92 160.77 42.53 165.90 46.75 C 172.97 36.52 163.89 21.89 170.23 11.01 C 171.01 9.81 171.93 6.12 169.38 7.42 M 500.09 7.18 C 505.79 19.55 499.02 34.93 505.09 46.77 C 510.22 42.48 515.29 48.96 520.86 48.88 C 513.28 35.19 520.58 10.51 500.09 7.18 M 564.55 7.41 C 555.78 10.57 580.90 12.51 577.22 7.81 C 573.08 6.86 568.73 6.74 564.55 7.41 M 50.38 8.70 C 30.50 11.45 55.41 12.05 62.71 11.67 C 64.10 4.75 53.79 10.37 50.38 8.70 M 117.37 8.37 C 102.85 15.07 98.84 39.54 111.82 48.94 C 114.33 43.64 119.26 43.43 124.18 45.78 C 125.89 32.68 114.97 18.72 117.37 8.37 M 552.01 8.12 C 557.26 21.48 543.29 33.26 547.66 45.69 C 552.32 42.87 556.80 44.29 559.18 48.94 C 572.66 39.41 567.87 13.00 552.01 8.12 M 609.28 8.24 C 605.89 15.58 623.63 9.36 628.94 12.07 C 627.15 5.07 615.38 9.95 609.28 8.24 M 143.36 9.30 C 132.18 20.92 119.48 47.83 137.07 58.99 C 156.90 49.89 142.04 25.16 145.73 8.82 C 145.14 8.94 143.96 9.18 143.36 9.30 M 292.10 9.14 C 289.08 23.76 275.33 41.70 289.49 54.73 C 305.01 47.89 307.16 17.62 292.10 9.14 M 320.46 9.21 C 313.53 15.53 336.31 17.27 333.82 9.02 C 329.37 8.68 324.89 9.03 320.46 9.21 M 337.25 8.93 C 335.71 16.24 347.64 14.27 352.03 12.95 C 352.89 5.41 341.23 10.49 337.25 8.93 M 377.33 9.18 C 364.48 20.89 366.47 45.86 380.81 54.92 C 395.98 43.27 382.50 20.79 377.33 9.18 M 525.27 8.81 C 530.08 23.91 514.41 44.98 529.99 56.14 C 535.04 64.01 539.89 51.73 542.97 48.46 C 541.57 34.49 538.89 15.84 525.27 8.81 M 30.09 10.29 C 27.23 16.16 40.95 21.28 41.74 26.89 C 35.25 27.17 29.49 19.83 23.40 23.71 C 29.44 31.66 49.25 43.71 54.58 27.84 C 51.23 17.79 39.96 12.52 30.09 10.29 M 68.15 10.28 C 59.28 25.59 52.30 41.31 42.25 56.01 C 49.75 60.71 57.22 52.89 63.05 49.08 C 66.57 45.84 76.37 47.09 73.36 39.43 C 72.07 30.61 77.79 15.46 68.15 10.28 M 150.36 10.13 C 146.47 16.96 162.06 9.24 150.36 10.13 M 231.67 10.46 C 221.26 16.07 209.60 18.82 197.73 16.33 C 191.40 10.45 191.08 24.00 197.56 19.56 C 208.72 21.78 220.37 20.87 230.36 15.26 C 239.87 10.31 253.77 26.13 260.02 18.29 C 251.85 13.34 241.19 11.07 231.67 10.46 M 304.54 10.34 C 292.45 16.55 321.17 11.12 304.54 10.34 M 362.38 10.30 C 357.83 12.64 369.84 16.65 370.09 12.15 C 367.98 10.41 365.10 9.65 362.38 10.30 M 434.48 10.45 C 427.77 14.63 412.42 12.16 411.53 20.61 C 422.85 20.87 434.52 8.95 445.54 17.41 C 454.66 21.42 472.75 22.94 478.06 16.06 C 462.83 20.00 448.34 13.94 434.48 10.45 M 516.13 10.13 C 516.95 18.10 527.10 7.68 516.13 10.13 M 602.17 10.06 C 593.16 17.39 599.58 29.70 597.50 39.24 C 594.54 47.05 604.32 45.83 607.95 49.08 C 613.78 52.89 621.25 60.71 628.75 56.01 C 618.15 41.34 612.00 24.71 602.17 10.06 M 639.42 10.52 C 629.99 12.96 620.63 17.96 616.27 27.18 C 621.21 44.02 641.07 31.93 647.69 23.74 C 642.93 19.37 633.70 28.55 629.27 26.17 C 630.58 22.23 646.80 12.38 639.42 10.52 M 123.36 10.80 C 123.05 14.74 131.28 13.68 133.73 14.04 C 134.47 9.65 125.70 11.65 123.36 10.80 M 540.61 11.45 C 528.18 17.41 561.46 9.59 540.61 11.45 M 314.36 13.34 C 311.76 23.27 304.85 34.25 306.53 45.11 C 312.50 48.59 320.32 49.34 323.90 56.13 C 325.83 60.58 332.92 54.34 328.67 51.56 C 317.88 41.51 325.25 20.60 314.36 13.34 M 355.19 12.72 C 346.69 24.35 352.74 40.86 342.26 51.40 C 339.10 53.84 342.67 58.21 345.68 57.74 C 349.80 50.51 358.14 48.09 365.03 44.53 C 365.14 33.50 359.66 21.37 355.19 12.72 M 89.29 14.26 C 88.93 25.59 77.45 35.41 83.08 46.89 C 88.79 48.91 95.25 48.68 100.25 52.94 C 108.00 50.40 100.38 38.41 100.35 33.30 C 100.57 26.72 98.11 13.75 89.29 14.26 M 176.30 14.23 C 169.54 18.72 188.37 15.06 176.30 14.23 M 261.22 14.19 C 260.90 19.14 267.15 21.64 267.84 26.40 C 269.76 35.05 268.23 50.24 281.60 47.73 C 279.43 34.71 277.73 17.10 261.22 14.19 M 407.46 14.38 C 396.02 18.71 390.23 30.85 390.56 42.48 C 385.97 49.02 394.38 48.80 398.63 45.75 C 403.68 37.10 400.25 25.33 408.39 18.24 C 410.12 16.81 410.77 12.87 407.46 14.38 M 492.28 14.20 C 484.75 19.56 504.58 14.52 492.28 14.20 M 579.38 14.20 C 568.09 21.48 570.38 37.05 567.47 48.66 C 568.18 57.83 576.87 48.02 581.28 48.16 C 594.11 49.60 589.48 33.10 585.14 26.82 C 581.73 23.33 584.89 14.15 579.38 14.20 M 24.34 15.03 C 22.80 23.58 32.14 13.13 24.34 15.03 M 185.26 15.25 C 185.24 31.96 163.98 43.70 171.16 60.71 C 180.48 51.63 196.85 26.24 185.26 15.25 M 483.12 14.97 C 477.19 31.45 489.87 50.35 499.85 60.71 C 505.05 44.57 487.50 27.70 483.12 14.97 M 643.38 14.89 C 643.38 22.94 650.70 14.16 643.38 14.89 M 283.27 16.25 C 263.82 21.93 296.03 19.27 283.27 16.25 M 335.14 16.04 C 327.70 23.89 332.11 35.76 332.76 45.16 C 329.79 50.70 335.47 49.71 338.19 49.64 C 337.71 39.45 344.67 23.35 335.14 16.04 M 385.27 16.20 C 381.68 19.33 391.14 20.77 393.94 20.89 C 394.98 15.93 388.75 16.19 385.27 16.20 M 259.28 23.36 C 251.87 25.89 239.73 22.98 235.07 29.14 C 243.13 27.94 251.45 27.50 259.38 29.66 C 267.04 34.40 264.53 20.35 259.28 23.36 M 409.29 23.02 C 403.05 35.50 427.10 24.52 435.73 29.10 C 430.79 23.17 417.35 24.99 409.29 23.02 M 28.90 34.25 C 30.79 40.15 33.12 51.05 39.42 51.53 C 34.53 46.69 33.24 38.26 28.90 34.25 M 641.31 34.10 C 638.40 40.02 635.66 46.15 631.60 51.55 C 637.43 51.19 641.73 38.87 641.31 34.10 M 203.59 43.34 C 178.23 49.20 165.90 75.82 162.29 98.09 C 153.28 99.15 153.72 110.38 146.97 114.98 C 135.81 124.52 138.13 139.62 136.53 152.49 C 138.45 157.09 140.11 164.17 145.71 164.70 C 152.28 147.36 164.72 132.84 170.00 114.91 C 172.38 110.06 170.76 103.01 175.89 99.82 C 194.42 86.28 200.57 62.93 215.08 46.08 C 212.00 43.31 207.60 42.43 203.59 43.34 M 461.65 43.41 C 459.47 43.59 457.52 44.68 455.90 46.07 C 470.73 64.21 477.96 88.27 497.73 102.36 C 501.29 125.58 516.85 144.37 525.95 165.05 C 537.47 158.81 533.32 144.87 533.24 134.26 C 532.74 120.10 518.80 112.60 514.22 100.09 C 502.37 99.59 511.59 85.24 503.04 79.81 C 498.22 61.01 481.70 43.57 461.65 43.41 M 117.35 48.16 C 109.27 58.19 105.04 69.68 99.17 80.96 C 110.15 87.22 124.31 87.01 134.62 79.27 C 136.03 67.47 129.78 51.31 117.35 48.16 M 254.13 48.28 C 255.27 59.68 267.87 73.70 273.94 85.05 C 292.06 116.36 334.59 130.00 366.93 112.93 C 392.12 100.45 404.12 73.68 417.66 50.66 C 419.13 45.82 411.30 49.83 409.70 49.65 C 399.50 52.47 384.13 49.95 381.08 63.16 C 382.95 74.67 368.12 80.48 373.84 91.47 C 372.14 95.36 365.04 96.61 364.47 91.32 C 361.08 81.11 373.97 78.09 375.15 69.12 C 379.31 61.80 374.16 53.58 369.67 47.86 C 361.37 50.42 351.01 53.96 347.09 62.16 C 350.70 72.03 345.38 82.23 348.98 91.78 C 348.75 98.89 336.30 98.94 338.99 90.55 C 347.74 79.58 345.64 63.63 335.91 53.99 C 324.93 62.52 323.31 79.71 332.01 90.55 C 334.88 99.09 322.32 98.79 322.02 91.78 C 325.62 82.24 320.29 72.03 323.92 62.17 C 319.82 54.10 309.70 50.44 301.34 47.86 C 291.21 56.86 293.09 72.84 303.80 80.31 C 311.38 85.35 304.96 101.17 297.60 92.13 C 302.61 80.19 287.48 72.86 289.10 60.15 C 281.41 48.54 265.82 51.61 254.13 48.28 M 551.45 48.26 C 540.87 54.36 534.82 67.15 536.40 79.16 C 546.57 87.10 560.87 87.12 571.84 80.95 C 565.25 70.12 562.25 54.49 551.45 48.26 M 157.63 50.56 C 149.54 53.96 139.36 59.05 138.49 68.73 C 141.94 77.57 137.05 87.96 127.21 89.15 C 119.06 95.25 120.54 107.88 122.36 116.52 C 132.53 118.09 146.67 112.96 149.34 101.33 C 152.30 88.38 167.65 81.11 167.00 67.12 C 165.65 61.67 165.77 48.87 157.63 50.56 M 216.18 50.02 C 215.46 56.92 227.75 53.08 232.03 55.01 C 237.03 53.86 250.02 61.04 249.89 53.17 C 238.80 51.10 227.44 50.43 216.18 50.02 M 445.55 50.50 C 438.87 53.49 423.30 47.89 420.87 55.73 C 431.82 57.64 443.88 53.92 455.06 52.81 C 456.45 47.04 448.19 51.59 445.55 50.50 M 509.48 50.25 C 504.49 57.88 501.56 69.04 506.52 77.53 C 511.98 85.76 519.52 92.85 522.19 102.65 C 525.28 113.62 538.35 117.15 548.16 116.92 C 551.53 111.63 548.88 104.23 549.39 98.24 C 548.93 85.73 528.68 89.01 531.35 74.98 C 536.55 61.87 521.08 51.31 509.48 50.25 M 86.28 50.83 C 88.24 55.71 94.08 57.93 98.93 59.07 C 96.52 54.34 91.40 51.56 86.28 50.83 M 582.45 51.33 C 578.32 52.19 574.59 54.73 572.51 58.43 C 573.99 60.58 588.64 51.44 582.45 51.33 M 77.55 52.44 C 67.38 55.84 64.90 67.68 56.11 73.13 C 67.76 83.29 82.78 67.82 94.07 65.68 C 90.13 60.97 82.85 53.96 77.55 52.44 M 589.68 52.15 C 587.11 57.92 581.69 60.60 577.00 64.12 C 578.51 72.82 589.65 68.41 595.13 72.98 C 600.24 77.25 610.25 78.70 614.89 73.13 C 605.20 67.30 602.63 52.11 589.68 52.15 M 107.49 54.38 C 98.85 58.50 110.76 60.52 107.49 54.38 M 562.69 54.22 C 562.79 63.23 571.24 55.78 562.69 54.22 M 101.39 64.54 C 95.94 67.40 104.21 68.72 101.39 64.54 M 252.75 64.61 C 239.05 73.55 221.86 76.00 206.00 72.19 C 200.05 72.86 211.55 79.58 204.13 80.14 C 199.42 79.44 190.85 91.10 199.13 88.35 C 211.70 78.95 226.81 89.42 239.10 93.99 C 246.18 97.57 262.66 89.84 263.88 98.67 C 240.73 115.32 209.59 111.55 183.67 103.28 C 179.61 101.74 180.61 106.80 179.27 109.10 C 194.88 124.11 211.55 141.19 214.92 163.42 C 215.73 169.12 221.23 183.65 212.47 183.56 C 205.44 170.66 196.43 159.21 183.98 152.04 C 192.87 164.09 206.45 174.27 207.36 190.78 C 218.03 186.07 223.75 194.04 233.97 196.05 C 220.29 186.21 222.20 168.04 218.30 153.63 C 221.64 149.76 225.96 154.11 227.94 157.11 C 239.82 170.63 251.24 186.08 253.86 204.38 C 254.26 207.64 256.94 211.24 260.40 211.28 C 259.25 184.52 242.12 160.39 220.31 145.84 C 216.49 140.94 218.46 133.84 216.28 128.13 C 223.35 123.86 233.11 118.36 241.06 123.93 C 262.72 133.16 288.62 134.31 310.14 124.13 C 315.33 120.86 307.16 118.74 304.26 119.10 C 284.98 127.46 263.23 124.50 243.43 119.70 C 240.15 118.93 240.11 113.78 243.75 113.63 C 257.72 112.02 269.91 100.43 283.96 107.98 C 285.44 103.80 276.78 98.28 271.72 97.25 C 270.21 93.54 271.37 88.71 267.83 85.96 C 252.02 93.54 234.59 87.72 218.71 83.49 C 217.20 82.96 215.02 81.96 216.26 80.06 C 229.77 80.07 244.26 78.75 255.07 69.81 C 259.21 68.80 256.33 61.83 252.75 64.61 M 414.21 68.48 C 425.11 78.24 440.43 80.68 454.60 80.01 C 456.23 81.90 453.77 82.87 452.29 83.50 C 436.61 87.57 419.73 93.56 403.99 86.18 C 397.69 87.32 402.80 98.50 395.54 98.48 C 391.44 99.33 381.23 109.94 390.21 107.43 C 402.58 100.15 413.84 113.42 426.37 113.52 C 430.35 113.13 431.44 118.61 427.59 119.70 C 407.87 125.03 386.03 127.00 366.73 119.09 C 363.83 118.75 355.68 120.86 360.86 124.12 C 382.36 134.89 408.22 132.36 430.04 124.00 C 437.87 118.10 447.68 124.06 454.70 128.15 C 452.50 136.10 454.66 146.91 444.75 150.01 C 426.41 165.03 410.08 187.46 411.60 211.89 C 418.80 207.46 417.31 198.21 420.34 191.43 C 426.48 177.16 435.86 164.61 446.45 153.38 C 449.40 150.10 455.76 153.57 452.64 158.25 C 446.06 169.05 452.45 185.28 439.64 192.59 C 432.44 198.75 446.46 194.29 449.36 191.39 C 453.04 184.31 464.03 197.94 464.40 186.55 C 466.51 171.80 479.23 163.36 486.98 151.97 C 478.71 158.89 468.29 163.83 464.01 175.03 C 461.69 177.87 459.28 187.42 454.53 182.13 C 451.68 152.89 470.96 127.73 491.73 109.10 C 491.58 98.52 480.92 105.83 474.56 106.58 C 452.26 113.23 426.51 112.19 406.99 98.73 C 406.32 91.75 416.88 96.50 420.66 94.74 C 438.45 96.85 455.58 76.09 472.53 88.63 C 480.65 90.33 470.88 79.42 466.15 79.90 C 459.98 78.93 471.02 72.75 465.02 72.22 C 448.69 76.26 430.87 73.09 416.74 64.01 C 414.16 63.69 413.62 66.55 414.21 68.48 M 569.16 64.69 C 568.24 70.31 574.59 65.47 569.16 64.69 M 85.44 74.65 C 73.93 76.65 63.13 90.11 65.48 100.49 C 73.84 89.38 90.21 96.41 98.78 87.01 C 94.71 84.13 92.73 79.10 96.29 74.60 C 92.67 74.50 89.05 74.62 85.44 74.65 M 574.71 74.60 C 578.27 79.10 576.28 84.13 572.22 87.02 C 581.19 96.26 597.39 89.82 606.21 100.64 C 606.98 84.34 590.42 71.07 574.71 74.60 M 52.81 80.12 C 54.47 83.91 55.25 89.98 59.99 90.98 C 58.29 87.06 56.65 82.41 52.81 80.12 M 617.53 80.52 C 614.18 82.95 612.62 87.28 611.00 90.98 C 615.15 90.27 618.29 82.32 617.53 80.52 M 105.22 89.41 C 93.62 97.34 81.36 108.08 78.78 122.71 C 90.79 112.77 115.52 114.96 117.37 95.41 C 119.93 88.75 109.45 91.41 105.22 89.41 M 565.08 89.53 C 560.76 91.40 550.27 89.01 553.91 96.10 C 556.23 115.31 580.36 112.75 592.20 122.69 C 589.58 108.02 577.08 96.55 565.08 89.53 M 70.05 103.84 C 71.45 107.20 73.50 110.56 76.90 112.17 C 75.82 108.60 73.33 105.61 70.05 103.84 M 599.71 104.64 C 596.95 106.34 595.08 109.13 594.10 112.17 C 596.97 111.54 602.16 103.72 599.71 104.64 M 114.48 109.53 C 107.82 123.28 84.69 126.66 90.18 145.71 C 97.79 134.94 114.55 134.56 121.32 122.50 C 113.30 123.42 119.75 109.15 114.48 109.53 M 555.22 109.22 C 552.82 112.07 556.68 122.83 549.68 122.50 C 556.43 134.59 573.19 135.02 580.82 145.71 C 585.81 126.77 563.13 121.58 555.22 109.22 M 134.60 121.49 C 117.80 127.04 118.75 147.70 105.14 156.22 C 118.39 159.06 123.42 142.16 131.75 134.06 C 131.80 130.19 139.00 120.63 134.60 121.49 M 534.34 120.79 C 540.12 135.40 548.24 154.97 566.01 156.94 C 552.44 147.62 552.94 125.20 534.34 120.79 M 82.95 126.86 C 83.20 134.47 89.38 128.00 82.95 126.86 M 586.35 127.25 C 581.30 133.78 591.64 128.20 586.35 127.25 M 170.79 141.88 C 171.37 146.34 162.41 140.68 164.79 145.30 C 176.11 157.40 182.76 174.38 181.33 191.02 C 184.08 193.21 187.25 189.94 185.63 186.59 C 188.53 173.29 180.91 160.51 175.07 149.06 C 178.50 146.72 180.82 151.30 183.98 152.04 C 178.65 144.62 170.33 139.29 173.20 128.09 C 168.91 131.34 169.43 137.29 170.79 141.88 M 497.80 128.09 C 500.58 139.24 492.48 144.65 486.98 151.97 C 490.20 151.37 492.48 146.69 495.93 149.06 C 490.09 160.50 482.47 173.29 485.37 186.59 C 483.72 189.93 486.94 193.24 489.66 191.00 C 488.35 174.18 495.01 156.93 506.61 144.78 C 507.24 141.06 499.78 146.22 500.21 141.88 C 501.57 137.29 502.09 131.34 497.80 128.09 M 246.25 135.63 C 242.00 135.91 237.73 135.71 233.48 135.71 C 237.13 145.47 245.54 156.58 249.24 165.05 C 258.59 159.01 251.00 152.48 248.30 144.90 C 257.63 147.04 265.95 144.63 266.88 135.10 C 260.01 135.69 253.12 135.37 246.25 135.63 M 310.15 135.50 C 306.94 134.93 293.98 135.94 301.30 138.89 C 318.51 134.59 332.50 158.04 348.69 143.60 C 353.99 135.49 369.23 142.99 371.87 136.04 C 351.32 134.70 330.73 137.94 310.15 135.50 M 404.16 135.11 C 404.92 144.85 412.85 147.43 422.61 144.84 C 419.92 152.37 412.29 159.69 422.33 165.27 C 426.15 154.87 433.34 146.05 437.75 135.91 C 426.56 135.29 415.35 135.79 404.16 135.11 M 268.05 139.29 C 271.50 152.70 266.14 160.86 254.06 165.24 C 258.20 171.34 262.87 177.66 264.73 185.33 C 277.46 195.17 287.48 217.68 307.08 211.23 C 297.50 222.12 299.12 238.83 306.79 250.47 C 304.90 263.55 319.86 269.26 319.91 281.80 C 330.03 272.10 340.97 272.10 351.09 281.80 C 351.83 269.15 365.64 262.34 364.93 249.20 C 372.29 237.79 372.77 221.81 363.93 211.22 C 377.72 216.33 391.23 203.63 397.60 192.62 C 409.01 187.42 409.11 173.24 416.94 165.24 C 405.32 160.73 398.39 153.27 403.09 139.49 C 392.06 142.90 380.25 135.70 369.89 141.95 C 356.74 142.61 339.49 146.97 335.86 161.52 C 331.47 149.71 316.64 141.46 303.36 142.74 C 292.41 135.34 279.84 143.18 268.05 139.29 M 99.58 148.18 C 100.08 154.12 105.64 147.67 99.58 148.18 M 569.42 148.29 C 565.24 154.00 575.74 147.43 569.42 148.29 M 256.63 148.87 C 255.86 153.83 260.63 159.75 264.91 154.49 C 267.67 147.34 260.45 149.04 256.63 148.87 M 406.57 149.17 C 403.79 167.54 424.79 143.39 406.57 149.17 M 109.96 161.26 C 116.67 172.49 124.61 184.70 124.10 198.79 C 129.78 205.96 137.32 213.23 145.10 217.73 C 141.42 209.40 129.83 205.55 126.61 196.44 C 126.09 183.10 120.74 168.94 109.96 161.26 M 559.56 161.45 C 551.92 170.42 545.17 180.22 544.87 192.37 C 545.06 204.41 529.82 208.30 525.93 217.72 C 532.87 216.61 535.37 208.53 541.24 205.28 C 552.01 198.95 544.39 184.12 552.50 175.58 C 552.49 170.94 563.73 163.94 559.56 161.45 M 150.84 164.26 C 155.67 174.00 162.69 184.82 170.81 191.73 C 165.85 182.08 159.55 170.50 150.84 164.26 M 519.43 164.46 C 511.54 171.45 504.56 181.83 500.19 191.73 C 507.40 185.27 517.65 172.47 519.43 164.46 M 141.04 193.02 C 144.55 199.19 144.64 219.76 154.86 216.63 C 151.16 208.81 144.33 201.92 141.04 193.02 M 529.31 193.37 C 526.78 202.42 519.60 208.88 516.14 216.63 C 525.37 219.41 528.46 198.83 529.31 193.37 M 267.07 194.12 C 277.84 215.35 291.10 235.15 302.46 256.17 C 304.23 252.39 299.95 249.28 298.83 246.01 C 293.12 237.87 300.03 227.13 293.88 219.11 C 290.03 210.88 279.15 210.61 274.17 203.57 C 272.14 200.34 271.07 194.79 267.07 194.12 M 402.52 194.49 C 398.19 199.66 396.08 207.17 388.89 209.85 C 378.95 212.85 372.28 223.25 374.57 233.52 C 376.49 241.95 369.42 248.12 367.83 255.68 C 377.09 245.96 381.07 231.21 389.33 220.28 C 392.72 212.37 403.81 200.36 402.52 194.49 M 167.82 197.47 C 176.05 206.64 181.80 222.45 196.43 222.53 C 203.39 218.32 211.91 217.17 219.68 219.63 C 222.05 214.04 229.96 211.14 232.79 217.57 C 233.09 226.93 221.12 228.45 214.60 224.59 C 203.98 222.21 193.71 229.40 191.21 239.79 C 197.76 245.68 205.96 252.08 215.02 251.21 C 219.62 244.90 226.85 242.27 234.01 240.14 C 236.60 233.39 247.36 232.28 248.00 240.79 C 244.48 248.97 233.84 244.91 227.07 247.72 C 221.23 252.32 214.86 258.03 214.04 265.84 C 222.83 268.76 233.94 266.01 240.43 259.27 C 242.60 254.10 246.62 247.53 253.13 248.44 C 259.16 254.35 252.75 262.54 245.31 262.06 C 240.40 268.02 233.09 270.69 226.06 272.96 C 222.42 280.77 221.98 291.03 226.25 298.68 C 232.39 297.90 241.41 300.26 244.50 293.45 C 252.38 287.13 250.12 271.58 262.67 271.34 C 269.97 275.49 264.41 286.00 256.77 283.48 C 255.23 292.22 248.56 298.85 241.69 303.92 C 236.36 316.22 246.55 328.64 249.33 339.03 C 263.27 320.23 275.24 297.06 279.39 273.23 C 280.37 247.98 268.44 221.89 246.11 208.89 C 222.63 194.28 194.10 198.02 167.82 197.47 M 467.92 197.78 C 431.12 195.93 394.46 223.59 392.14 261.60 C 389.41 289.90 406.77 317.06 421.67 339.03 C 424.32 328.57 434.70 316.24 429.31 303.92 C 422.45 298.84 415.74 292.23 414.25 283.46 C 406.98 285.31 401.11 277.08 407.69 271.82 C 414.49 270.34 420.94 278.29 420.95 285.02 C 424.09 295.97 434.69 301.18 445.25 298.17 C 448.74 290.33 448.62 280.66 444.95 272.96 C 437.59 270.82 430.46 267.39 425.17 261.55 C 417.79 262.29 411.90 254.22 417.84 248.30 C 424.28 248.03 428.46 253.89 430.56 259.27 C 437.10 266.05 448.01 268.70 456.94 265.88 C 456.27 258.76 450.74 253.15 445.37 248.92 C 439.03 243.38 427.80 249.46 423.12 241.51 C 422.42 235.99 429.54 232.05 433.68 236.16 C 438.50 244.35 450.66 241.97 455.41 250.73 C 464.39 252.88 473.14 245.64 479.79 239.79 C 477.41 232.76 472.34 225.08 464.15 224.71 C 455.91 222.08 445.75 231.63 439.53 222.38 C 433.48 214.55 448.54 209.78 450.83 219.04 C 458.48 218.30 467.54 217.42 474.57 222.53 C 489.00 222.37 495.32 206.88 503.18 197.47 C 491.44 197.76 479.66 196.99 467.92 197.78 M 170.84 216.57 C 161.36 218.85 152.24 225.71 142.31 221.00 C 148.11 230.93 165.34 230.34 174.20 223.71 C 183.92 225.96 176.63 214.41 170.84 216.57 M 496.96 216.48 C 492.06 218.39 489.02 225.40 496.80 223.71 C 505.38 229.96 523.39 231.42 528.69 220.97 C 517.62 226.56 507.82 216.60 496.96 216.48 M 179.96 226.60 C 166.20 228.37 163.46 244.63 153.28 251.36 C 168.18 256.69 190.05 244.61 190.81 226.36 C 187.19 226.24 183.56 226.30 179.96 226.60 M 480.19 226.36 C 481.40 244.65 501.24 255.69 517.85 252.14 C 507.16 241.69 499.67 221.25 480.19 226.36 M 154.05 233.15 C 152.85 235.84 154.09 240.98 156.96 241.78 C 155.03 239.94 157.49 233.01 154.05 233.15 M 516.26 233.11 C 514.11 234.32 515.54 239.67 514.04 241.78 C 516.78 241.21 518.92 234.55 516.26 233.11 M 189.33 246.30 C 179.56 251.08 175.76 262.26 167.03 268.39 C 181.24 272.51 193.08 256.49 207.61 261.17 C 213.02 263.32 211.32 251.97 205.72 255.40 C 198.83 255.04 195.40 247.28 189.33 246.30 M 479.59 246.51 C 475.60 254.49 459.16 253.46 460.94 261.20 C 476.33 256.44 488.51 271.52 504.00 268.58 C 494.82 262.57 490.86 248.10 479.59 246.51 M 284.08 253.44 C 282.80 254.56 284.44 258.24 285.14 260.10 C 301.97 272.98 310.82 293.31 316.53 313.13 C 317.23 318.57 310.24 319.13 308.48 314.53 C 302.26 304.09 285.51 301.54 286.16 287.53 C 284.25 278.93 281.00 294.80 282.63 297.41 C 284.72 303.26 273.01 303.76 275.74 309.83 C 290.14 318.59 292.63 336.41 297.32 351.16 C 297.67 353.13 298.41 357.24 295.22 356.86 C 288.55 347.30 282.55 335.49 271.04 331.05 C 268.51 329.15 262.96 325.59 262.06 330.85 C 276.85 338.57 289.64 352.22 293.56 368.86 C 297.37 372.14 295.92 362.44 300.33 365.41 C 303.29 368.57 306.91 371.02 311.56 369.82 C 311.01 365.07 303.86 365.34 301.76 361.16 C 294.90 344.80 298.19 326.27 285.99 312.03 C 280.92 306.54 289.47 303.03 293.02 307.93 C 316.23 321.84 327.33 348.37 331.85 373.62 C 335.49 378.84 335.42 364.30 336.43 374.37 C 338.60 375.80 340.13 372.56 339.60 370.70 C 344.82 346.95 355.03 322.07 376.83 308.80 C 379.91 303.90 390.77 304.89 384.83 311.99 C 373.19 326.21 375.56 344.16 369.70 360.51 C 367.77 365.18 360.14 364.89 359.44 369.82 C 364.08 371.02 367.70 368.57 370.67 365.41 C 375.10 362.45 373.59 372.14 377.47 368.86 C 381.41 352.31 394.05 338.47 408.92 330.87 C 408.07 325.57 402.48 329.15 399.96 331.05 C 388.45 335.49 382.44 347.30 375.78 356.86 C 372.59 357.24 373.33 353.13 373.68 351.16 C 378.37 336.41 380.86 318.59 395.26 309.83 C 397.92 303.53 385.60 303.12 388.61 296.73 C 389.44 294.47 386.81 278.72 384.83 287.54 C 385.66 301.11 369.71 303.69 363.45 313.44 C 361.71 317.59 355.02 320.08 354.41 313.88 C 359.60 294.89 367.63 275.11 383.35 262.39 C 386.69 261.25 390.07 250.76 384.06 254.14 C 365.06 267.96 354.49 290.59 350.51 313.26 C 351.78 320.25 346.43 325.55 340.84 328.82 C 334.47 337.41 326.22 325.75 321.25 320.77 C 318.57 295.25 307.61 266.18 284.08 253.44 M 160.32 257.75 C 158.53 266.43 166.80 262.53 160.32 257.75 M 509.36 258.47 C 504.71 267.88 514.65 259.92 509.36 258.47 M 207.52 267.40 C 199.29 273.13 183.33 272.80 181.42 284.61 C 192.11 287.87 200.45 275.59 209.00 270.99 C 211.37 269.98 208.37 268.42 207.52 267.40 M 463.19 267.28 C 462.49 268.38 459.84 270.04 462.03 271.01 C 470.57 275.62 478.91 287.87 489.58 284.61 C 487.62 272.71 471.50 273.07 463.19 267.28 M 216.26 271.33 C 212.57 286.60 193.20 290.60 188.05 304.91 C 197.96 300.80 209.59 302.12 218.93 296.46 C 218.26 288.47 215.90 279.65 221.25 272.60 C 219.62 272.06 217.96 271.55 216.26 271.33 M 453.49 271.54 C 451.77 272.03 448.42 272.13 450.71 274.40 C 456.03 281.00 451.34 288.94 452.33 296.23 C 461.09 302.91 473.15 300.80 482.96 304.92 C 479.15 290.78 460.04 288.66 456.61 274.28 C 456.46 272.69 455.39 270.64 453.49 271.54 M 167.96 273.39 C 165.34 277.39 171.78 282.46 173.33 286.75 C 177.68 283.88 172.82 274.01 167.96 273.39 M 502.31 273.21 C 498.12 275.45 493.77 283.75 497.68 286.77 C 499.00 282.53 506.82 276.33 502.31 273.21 M 335.17 277.51 C 329.04 278.80 332.64 284.26 335.15 287.65 C 338.88 285.59 341.92 277.72 335.17 277.51 M 318.98 284.43 C 322.03 293.04 330.88 303.65 335.08 313.81 C 341.25 304.79 346.65 294.08 352.66 284.95 C 344.70 282.43 339.12 288.07 335.87 296.91 C 330.91 289.92 328.69 282.66 318.98 284.43 M 176.27 289.96 C 177.97 294.07 179.36 300.91 184.57 301.85 C 184.93 296.85 181.93 290.09 176.27 289.96 M 492.48 290.28 C 488.74 292.20 486.03 296.90 486.42 301.19 C 489.63 303.18 497.82 289.60 492.48 290.28 M 220.17 302.62 C 210.12 305.77 197.28 313.34 196.21 324.89 C 209.20 320.52 228.06 325.37 234.47 309.35 C 239.44 300.43 224.98 304.85 220.17 302.62 M 450.12 302.66 C 445.42 304.83 431.50 300.57 436.53 309.35 C 442.93 325.37 461.79 320.52 474.79 324.89 C 473.46 313.41 460.40 305.01 450.12 302.66 M 189.95 310.34 C 188.03 317.24 198.73 315.25 189.95 310.34 M 480.31 310.27 C 471.69 317.80 485.07 314.76 480.31 310.27 M 233.49 317.39 C 225.66 325.35 214.04 330.56 214.98 344.10 C 215.59 358.26 218.59 340.62 222.41 338.37 C 228.12 333.83 242.73 324.32 233.49 317.39 M 436.48 317.59 C 428.22 332.06 456.14 336.49 455.10 349.80 C 460.39 336.34 446.34 322.90 436.48 317.59 M 206.06 327.93 C 209.67 337.84 216.28 330.92 206.06 327.93 M 463.53 328.40 C 461.55 329.44 458.91 330.91 458.43 333.15 C 460.13 336.64 467.06 327.30 463.53 328.40 M 256.19 340.18 C 258.33 350.88 264.43 362.34 270.58 370.87 C 267.81 360.51 263.11 347.59 256.19 340.18 M 413.37 340.30 C 408.30 349.02 404.72 358.56 400.44 367.65 C 399.93 374.97 405.67 365.19 405.90 362.15 C 407.51 355.76 417.72 344.93 413.37 340.30 M 227.18 341.13 C 219.73 347.44 233.26 356.07 236.94 361.90 C 234.58 354.75 229.99 347.30 227.18 341.13 M 443.10 341.21 C 442.29 349.05 435.29 354.21 434.13 361.92 C 437.69 356.25 452.24 346.12 443.10 341.21 M 221.23 350.26 C 218.64 358.11 225.38 368.88 226.70 377.13 C 239.53 383.05 245.82 396.79 252.01 407.77 C 251.34 397.81 243.28 383.53 232.94 378.04 C 222.50 372.79 228.40 355.47 221.23 350.26 M 448.23 350.24 C 443.74 358.32 447.74 372.44 438.06 378.04 C 427.72 383.53 419.66 397.81 418.99 407.77 C 425.10 396.41 431.93 382.95 444.77 376.67 C 445.48 368.79 455.02 354.50 448.23 350.24 M 238.18 361.59 C 236.73 366.82 242.81 362.94 238.18 361.59 M 432.32 361.48 C 428.04 365.20 435.49 364.81 432.32 361.48 M 267.91 375.25 C 263.74 380.11 270.91 386.38 274.41 389.77 C 284.92 393.74 294.38 402.57 306.48 399.56 C 319.76 399.42 332.77 390.49 343.37 397.98 C 357.12 395.69 372.70 405.04 385.10 395.19 C 393.17 391.80 406.39 385.96 403.56 375.69 C 387.81 377.38 370.92 375.32 354.88 377.96 C 346.27 377.99 338.29 385.05 329.75 381.23 C 309.88 373.75 288.40 378.39 267.91 375.25 M 286.85 402.58 C 275.67 406.17 259.73 401.22 254.05 414.99 C 267.82 407.25 284.00 417.94 296.74 407.65 C 305.62 403.76 290.94 403.64 286.85 402.58 M 383.46 402.68 C 379.52 403.57 365.11 404.98 374.80 407.85 C 387.12 417.97 403.36 407.21 416.95 414.99 C 411.10 401.16 394.85 405.95 383.46 402.68 M 312.94 403.63 C 306.04 406.50 300.94 412.96 297.07 418.97 C 302.94 426.57 314.28 430.75 323.81 429.48 C 329.50 421.37 340.80 420.65 346.63 429.00 C 356.37 432.40 367.65 425.52 373.95 419.01 C 369.15 412.13 362.81 402.44 353.15 403.39 C 339.74 405.82 326.36 403.42 312.94 403.63 M 290.17 417.23 C 276.83 418.06 269.05 433.18 254.97 431.96 C 268.52 447.18 284.46 430.12 299.66 428.97 C 296.31 426.82 289.32 419.38 290.17 417.23 M 379.24 416.70 C 384.76 422.90 369.89 424.85 371.59 429.72 C 387.14 429.49 402.48 447.52 416.03 431.96 C 401.40 433.04 393.40 417.22 379.24 416.70 M 257.38 419.50 C 256.32 426.09 262.72 421.72 257.38 419.50 M 413.24 419.40 C 408.01 423.54 415.72 424.49 413.24 419.40 M 334.86 428.27 C 323.77 433.31 317.26 445.02 316.46 456.92 C 328.56 459.18 342.53 459.07 354.54 456.93 C 353.69 444.83 346.78 431.86 334.86 428.27 M 303.57 432.48 C 289.95 435.32 282.63 449.00 270.14 454.15 C 285.29 457.96 314.54 456.36 315.82 435.46 C 311.98 434.24 307.64 432.74 303.57 432.48 M 365.33 432.45 C 362.12 434.08 358.26 433.85 355.20 435.46 C 356.02 457.05 386.22 457.59 400.86 454.12 C 387.80 449.12 380.10 433.20 365.33 432.45 M 265.95 443.86 C 266.20 451.47 272.38 445.00 265.95 443.86 M 403.35 444.25 C 398.30 450.78 408.64 445.19 403.35 444.25 M 311.66 454.75 C 298.05 457.90 296.27 474.65 282.36 477.28 C 294.84 486.57 316.64 478.35 320.87 462.44 C 315.71 464.00 310.73 460.77 311.66 454.75 M 358.95 454.51 C 360.32 460.81 355.37 463.98 350.12 462.44 C 354.58 478.23 375.66 486.78 389.04 477.09 C 374.70 474.63 372.89 457.73 358.95 454.51 M 278.22 461.90 C 278.88 464.84 279.23 468.27 281.86 470.19 C 281.71 467.22 281.64 462.97 278.22 461.90 M 329.22 462.60 C 328.24 467.78 335.17 462.09 329.22 462.60 M 341.21 462.35 C 335.21 464.17 344.72 466.27 341.21 462.35 M 391.46 462.52 C 389.33 464.39 389.27 467.55 389.14 470.19 C 391.28 469.02 394.11 461.46 391.46 462.52 M 335.10 469.27 C 334.00 474.08 333.67 479.27 335.09 484.06 C 338.05 480.86 337.36 472.24 335.10 469.27 M 323.63 470.24 C 317.50 480.87 300.01 483.55 300.87 498.60 C 311.31 494.92 326.55 498.27 332.66 486.94 C 326.65 482.23 332.82 468.90 323.63 470.24 M 342.36 470.44 C 342.49 476.56 340.59 482.23 338.57 487.69 C 344.99 498.53 359.98 494.45 370.10 498.80 C 369.80 492.09 366.96 484.30 359.88 482.25 C 352.21 480.42 351.72 467.28 342.36 470.44 M 287.76 486.34 C 288.49 490.64 290.26 495.80 294.85 497.22 C 292.45 493.75 291.21 488.70 287.76 486.34 M 382.47 486.40 C 380.08 489.83 378.18 493.57 376.14 497.22 C 380.34 496.07 384.05 489.27 382.47 486.40 M 333.59 499.33 C 326.18 506.86 311.61 507.01 309.04 518.89 C 326.86 518.12 344.19 518.03 361.95 518.91 C 358.25 507.22 343.45 502.86 333.59 499.33 M 335.13 522.52 C 322.27 525.04 326.54 544.91 328.10 552.01 C 334.47 547.89 331.00 538.70 335.10 534.19 C 340.73 537.20 336.03 548.12 342.91 552.00 C 344.69 544.92 348.59 523.59 335.13 522.52 M 311.14 525.12 C 313.06 530.76 316.20 538.42 321.95 540.93 C 318.09 536.23 316.30 527.42 311.14 525.12 M 357.57 525.44 C 356.23 531.24 352.04 535.41 349.21 540.21 C 352.03 541.69 362.97 525.68 357.57 525.44 M 334.24 551.96 C 333.38 560.00 340.19 551.37 334.24 551.96 Z" />
<path fill="#000000" opacity="1.00" d=" M 187.11 109.88 C 199.00 112.95 211.16 114.82 223.41 115.42 C 225.23 122.22 208.41 118.60 211.43 126.54 C 212.35 130.46 215.45 139.01 209.35 138.90 C 203.86 127.82 194.42 119.38 187.11 109.88 Z" />
<path fill="#000000" opacity="1.00" d=" M 481.55 110.43 C 482.80 110.07 484.71 109.30 483.34 111.27 C 475.10 119.61 467.31 128.58 461.65 138.86 C 455.74 139.37 458.26 130.21 459.60 126.50 C 461.90 118.61 448.17 122.71 446.79 115.70 C 458.53 115.26 470.20 113.53 481.55 110.43 Z" />
<path fill="#000000" opacity="1.00" d=" M 281.07 151.03 C 288.92 154.42 290.04 168.28 301.00 166.02 C 308.24 167.04 302.21 155.32 305.79 152.84 C 308.58 156.33 307.28 161.42 308.20 165.64 C 313.51 167.59 319.31 167.31 324.85 168.12 C 324.46 175.98 306.77 164.48 312.01 175.93 C 309.63 172.83 307.03 172.91 305.96 176.87 C 296.72 170.02 306.67 183.86 306.72 185.57 C 295.77 186.25 315.47 198.88 306.11 200.73 C 303.44 196.89 301.49 192.35 297.82 189.31 C 293.80 184.13 288.31 194.31 282.97 190.99 C 285.29 186.73 295.20 186.06 292.07 179.99 C 287.78 170.31 273.89 176.74 268.87 170.06 C 279.24 167.16 289.35 171.88 296.95 177.72 C 294.12 171.67 301.08 173.74 303.07 170.02 C 292.42 169.01 284.84 160.35 281.07 151.03 Z" />
<path fill="#000000" opacity="1.00" d=" M 388.57 151.50 C 390.63 155.19 378.84 168.74 371.25 169.18 C 362.47 172.23 378.82 171.33 374.04 177.72 C 381.62 171.79 391.84 167.38 402.16 170.10 C 396.96 176.62 383.36 170.46 378.89 179.95 C 375.85 186.08 385.67 186.72 388.03 190.99 C 383.68 192.88 379.72 189.07 375.88 187.63 C 369.53 188.76 368.49 201.04 362.30 200.15 C 361.45 194.62 367.36 191.62 368.25 186.67 C 356.94 187.55 377.33 169.87 365.03 176.87 C 363.98 172.89 361.33 172.82 358.98 175.96 C 364.31 164.33 346.17 175.95 346.32 168.07 C 351.79 167.69 357.83 168.14 362.77 165.35 C 363.38 161.27 362.33 156.15 365.31 152.77 C 368.02 156.44 362.55 168.76 372.04 166.02 C 380.61 166.35 383.00 156.03 388.57 151.50 Z" />
<path fill="#000000" opacity="1.00" d=" M 335.23 178.45 C 341.84 182.11 349.17 183.46 356.72 182.97 C 354.37 189.44 350.52 195.82 351.13 203.26 C 345.56 208.33 339.97 213.48 335.86 219.97 C 330.40 215.55 326.92 207.59 320.13 203.85 C 319.33 196.79 318.72 189.48 313.94 183.58 C 321.42 183.47 328.68 182.22 335.23 178.45 M 335.17 181.40 C 332.37 184.84 327.44 184.86 324.30 187.47 C 321.61 196.11 325.40 206.65 335.20 208.67 C 345.29 207.43 350.07 195.51 346.27 186.83 C 342.32 185.50 338.47 183.59 335.17 181.40 Z" />
<path fill="#000000" opacity="1.00" d=" M 335.14 188.35 C 343.10 188.97 346.51 202.83 335.86 202.78 C 325.14 203.55 327.15 190.05 335.14 188.35 M 335.11 192.20 C 327.41 199.68 344.48 196.96 335.11 192.20 Z" />
<path fill="#000000" opacity="1.00" d=" M 317.36 217.15 C 324.89 215.90 322.80 233.14 330.38 225.47 C 329.96 228.73 335.27 231.35 335.86 235.86 C 334.46 229.54 342.24 230.75 339.95 225.12 C 348.22 233.82 346.07 215.10 354.37 217.29 C 353.79 222.72 348.79 227.88 348.18 233.82 C 351.70 236.62 357.23 237.90 357.78 243.17 C 353.20 242.55 349.82 238.73 345.22 238.23 C 337.95 246.78 346.54 256.05 347.85 264.80 C 339.80 260.86 336.44 246.52 340.11 237.42 C 336.11 240.54 334.89 240.54 330.89 237.42 C 334.56 246.52 331.20 260.86 323.15 264.80 C 324.37 256.16 333.10 246.51 325.75 238.26 C 321.27 239.05 317.50 241.87 313.19 243.18 C 313.76 238.24 318.73 236.71 322.23 234.27 C 324.13 228.85 314.95 221.45 317.36 217.15 Z" />
<path fill="#000000" opacity="1.00" d=" M 322.15 331.25 C 328.47 330.14 331.56 336.83 335.82 339.49 C 338.45 336.02 347.26 327.08 348.86 333.66 C 342.77 343.82 339.96 357.02 335.14 366.75 C 332.18 354.61 325.54 343.06 322.15 331.25 Z" />
</svg>
