<?xml version="1.0"?>
<svg xmlns:rdf="http://www.w3.org/1999/02/22-rdf-syntax-ns#" xmlns="http://www.w3.org/2000/svg" xmlns:cc="http://web.resource.org/cc/" xmlns:xlink="http://www.w3.org/1999/xlink" xmlns:dc="http://purl.org/dc/elements/1.1/" xmlns:svg="http://www.w3.org/2000/svg" id="svg1363" viewBox="0 0 759.09 814.41" version="1.0">
  <defs id="defs1366">
    <linearGradient id="linearGradient8027" y2="478.57" gradientUnits="userSpaceOnUse" x2="375.35" y1="225.64" x1="377.25">
      <stop id="stop8023" stop-color="#ececec" offset="0"/>
      <stop id="stop8025" stop-color="#ececec" stop-opacity="0" offset="1"/>
    </linearGradient>
  </defs>
  <g id="layer2" fill-rule="evenodd">
    <rect id="rect2164" height="815.84" width="764.5" y=".4649" x="-1.9017" fill="#9292ac"/>
    <path id="path7046" d="m747 415.02a355.01 357.47 0 1 1 -710.02 0 355.01 357.47 0 1 1 710.02 0z" fill="url(#linearGradient8027)" transform="translate(-19.723 4.9307)"/>
  </g>
  <g id="layer3">
    <path id="path7050" d="m667.44-0.5625c-11.48 8.5794-23.78 37.824-26.53 62-15.86 11.418-36.07 2.724-43.91 1.874-5.46 7.815-1.23-1.873-1.62-1.156-0.31-0.752-0.65-1.75-1.07-3.218-0.52 0.866-1.03 1.472-1.56 1.874-0.2-1.291-0.39-2.617-0.59-1.843-0.2 0.745-0.39 1.317-0.57 1.906-1.18-13.494-37.64-41.164-54.56-56.469-19.57 26.491-3.04 77.94-3.12 93.782 9.75-18.784 3.25-0.833 1.5 5.222 10.59-9.547 0.61-1.48 1.59 7.03 4.62-0.7-2.58 10.47-4 16.34-0.02-1.56-8.7 7.08-9.66 8.31-1.9 0.23-3.27 2.39-3.93 4.19-0.58-2.67-1.03-3.73-1.41-3.97l-0.03-0.25c-0.29-1.56-0.37-0.96-0.41 0.35-0.42 0.36-0.77 1.46-1.15 1.84-0.03-1.23-0.17-2.03-0.88-1.41-0.05 0.05-0.11 0.11-0.15 0.16-0.18-0.61-0.35-1.41-0.57-2.56-1.71-0.23-1.53 2.83-1.31 6.37-0.1 1.79-0.19 3.86-0.38 6.88-0.84-2.45-1.42-3.77-1.9-4.38 0.08-3.55-0.03-3.8-0.28-0.28-0.39-0.82-0.65-2-1.19-2.81-1.45 0.26-1.7 2.39-2.56 3.59-0.09 1.45-0.16 2.45-0.25 3.19-0.16 0.15-0.33 0.32-0.5 0.47-1.67-6.8-1.63 1.18-4.88 2.97-2.15-2.8-3.11 1.79-3.94-1.47-0.3 2.31-0.93 3.87-1.53 5.03-0.25 0.12-0.52 0.35-0.84 0.78-1.03 1.45-4.47 4.62-5.13 8.53-1.14 0.4-1.58-4.58-2.15-3.37-1.29 2.73 1.05 10.99-1.22 9-1.66-1.46-1.47-4.61-1.5-5-0.05 0.15-0.22 1.04-0.72 3.22-1.5 3.37-4.18 8.52-5.28 5.46-1.34 11.23-3.49-6.21-3.84 6.54 0.45 15.63-2.58-7.66-3.57 5.81-2.81 0.48-1.23 12.54-4.25 1.78-0.66 8.02-5.23 11.33-5.81 18.94-8.51-20.48 1.48 22.91-8-1.47-3.11 5.35-3.03 15.39-8.4 8.97-1.96 4-4.95 7.62-6.79 11.62-25.21 1.21-45.01 26.66-63.5 31.1-4.71 0.99-15.53 3.71-24 6.03s-18.14 4.23-21.53 4.25c-5.16 0.03-15.95 3.31-31.84 9.65-1.7 0.68-12.77 4.71-24.63 8.97-55.76 20.06-59.05 21.5-68.15 29.69-14.04 12.63-43.03 34.93-50.25 38.66-3.57 1.84-6.81 4.03-7.19 4.9-0.38 0.88-6.07 6.14-12.62 11.69-2.16 1.82-3.99 3.41-5.6 4.87l-0.09 0.1c-5.29 4.82-7.95 8.19-9.88 13.06l-15.31 20.22c5.25-1.23-4.847 9.79-3.56 10.44 1.86 0.94 2.81-3.08 4.22-4.63 0.25 0.43 0.03 1.88-0.41 3.66l-6.094 7.75c-15.036 23.32 16.674-18.45-5.937 12.66 0.48-0.44 3.726-3.71 4.593-4.16 1.99-1.03-2.116 3.97-3.187 5.94-3.341 4.63 0.245 1.1-2.875 8.15-0.557 1.92 1.303 0.33-0.125 5.75-5.203 11.84 13.755-16.65-6.969 14.1 4.467-5.82 5.884-6.36 5.969-4.97-1.638 2.11-1.593 3-0.719 3.22-0.598 1.75-1.404 3.62-1.906 4.5 4.662-5.57 3.581-3.12 1.906 0.18-3.69 3.98-13.095 7.92-9.344 10.94 1.765 1.42 4.399-1.12 6.594-1.69-4.673 4.26-12.533 6.61-14.031 12.75-1.23 5.05 9.169-3 14.531-5.37-0.001 0.04 0.001 0.08 0 0.12-22.867 14.26 8.826-3.55-7.5 14.32 8.53 1.24 4.567 4.59 1.625 11.37 0.474 3.15-2.747 10.77 6 8.56-6.778 11.39 9.422-2.4 0.813 9.19-12.841 12.25 1.919-3.1 4.375 1.44 1.477 2.73-18.03 13.54 2.593 5.37-31.368 22.28 21.708-5.7-3.906 12.72 17.424-7.28 0.905 3.63 4.782 6.41 17.592-5.59-5.983 9.13 5.342 7.37 6.53 0.17 8.57 1.28 8.34 2.72 0 0.01 0.01 0.02 0 0.03-1.96 1.43-3.89 3.12-5.43 4.72-2.73 1.56-5.506 2.84-5.784 3.03 0.23-0.04 1.82-0.57 4.404-1.5-0.66 0.8-1.18 1.52-1.47 2.13-0.42 0.89-0.994 4.1-1.59 8.75l-2.062 0.97c-1.286 5.63-15.46 12.65 1.25 6.31-0.008 0.07-0.024 0.14-0.032 0.22-4.665 2.65-7.377 4.19-8.781 4.97 2.323-1.2 6.687-3.33 8.656-3.63-0.116 1.14-0.259 2.35-0.375 3.57-1.653 1.56-4.387 3.35-7.344 5.43 2.425-0.92 4.713-2.49 7.157-3.31-0.062 0.67-0.127 1.34-0.188 2.03-0.835 0.47-1.612 0.92-2.093 1.28-8.939 6.69 0.796 0.2-2.157 6.03 1.063 2.72-3.187 8.15-7.593 11.25 2.899-1.06 5.788-2.12 8.687-3.18 0.46 0.17 0.915 0.35 1.375 0.53l0.562-0.28c-1.303 17.71-3.164 35.64-4.25 40.75-1.817 8.54-1.553 22.85 0.688 37.81 0.565 3.77-1.828 5.8-14.719 12.34-14.009 7.11-15.878 8.82-20.781 18.88-4.308 8.84-6.87 11.55-12.719 13.56-12.154 4.18-36.548 30.27-42.937 44.31l-1.594 1.16 0.1875 2.91c-0.10643 0.54-0.1875 1.06-0.1875 1.53 0 0.9 0.15117 1.76 0.4375 2.59l1.4687 23.41h758.78l-1.91-127.41-29.84-2.84c-1.73-3.23-8.33-5.14-47.88-13.78-9.01-1.98-18.1-5.78-25.65-10.79-6.44-4.26-13.6-8.34-15.88-9.06s-7.13-4.08-10.81-7.44c-3.68-3.35-10.61-7.11-15.38-8.34-4.76-1.23-11.2-4.06-14.31-6.28-3.1-2.22-9.83-4.82-14.97-5.78-5.13-0.96-9.7-2.11-10.15-2.57-0.46-0.45-2.38-10.48-4.29-22.31l-3.46-21.5 6.22-25.69c3.42-14.11 7.23-31.19 8.46-37.96 2.58-14.14 5.24-28 9.78-51.35 1.77-9.03 3.47-21.51 3.82-27.72 0.34-6.21 0.71-12.38 0.81-13.71 0.1-1.34 1.35-3.64 2.78-5.13s6.53-7.7 11.35-13.81l8.74-11.13-0.43-20.56 2.22-0.94c-0.52 0.17 0.07-1.2 0.5-1.53 1.13-1.74 5.6-6.12-1.32-2.87 9.29-5.09 14.71-22.83 16.16-34.5-2.94-1.23 2.84-6.88 2.5-5.88 0.82-2.27-1.61-2.54-1.75-3.81 2.42-3.26 2.4-4.49 2.09-5.88 1.01-3.86-1.12-3.99 3.22-6.84-5.98 1.58-7.61 0.93-1.93-4.25 0.08-1.3-0.91-1.8-2.94-3.75 8.98-6.67-3.71-0.23 2.62-6.81-1.56 0.51-2.5 0.73-3.03 0.72 0.5-0.56 0.92-1.36 1.25-2.44 1.15-0.59 2.32-1.17 3.47-1.72 1.5-1.07 2.87-2.31 4.25-3.53-8.21 2.38 2.27-2.31 2.22-3.94-3.39-0.65-3.74-1.02 0.37-4 6.46-7.62-8.09 7.04 3.22-4.69 1.01-1.04-7.73 1.47-4.34 0.47 7.95-8.74-4.31 0.16 1.62-6.06-1.5-2.6-2.49-1.99-0.87-4.53 2.63-4.42 2.83-4.66 0.56-5.38-4.56-0.97-0.35-4.62 1.81-5.84-5.55 1.73-0.18-1.96-0.81-4.22-7.54 1.89-0.23-1.39 1.72-3.47 0.42-0.45-13.54 6.4-3.81-0.65 0.97-0.88 6.71-10.21-0.85-4.85 3.07-12.79 6.72-3.9 9.38-8.44 6.82 8.1 4.2-10.26 7.59 1.13 3.11 0.42 4.44 0.77 6.07-2.63v-2.03c12.77 5.83 27.37 6.53 46.62 15.57 19.6-6.78 37.41-13.2 32.44-36.94-15.67-24.24-51.9-43.4-46.06-75.19 5.11-27.88-18.41-38.692-19.26-63.624 7.77-14.925-2.52-2.467-5.87-4 0.55-2.281 4.18-9.588 6.16-13.312 1.87-5.152-1.04 0.039-2.88-2.219-2.26 2.716-3.53 4.149-4.19 4.813-0.03-0.179-0.08-0.354-0.12-0.532 1.77-3.139 7.75-12.142-0.13-5.062 5.79-11.401 1.39-8.2-2.15-5.813 1.29-11.395-1.58-29.278-6-40.344zm15.47 49.156c-0.23 0.629-0.5 1.339-0.88 2.312 2.98-6.021 2.43-5.246 0.88-2.312zm-93.97 11.656c0.02 0.009 0.05 0.08 0.06 0.188l-0.12-0.032c0.02-0.109 0.04-0.165 0.06-0.156zm-267.03 398.47c-0.21 0.2-0.4 0.41-0.6 0.62l-0.09-0.18c0.24-0.16 0.44-0.28 0.69-0.44zm16.43 2.19c0.27-0.02 0.47 0.02 0.6 0.15 3.04 3.04-18.82 10.61-1.56 6.19 1.02 0.38 2.89 5.92 15.62-2 2.47-0.39 13.08-1.38 1.69 7.19 19-11-2.01 6.82 20.19-5.35 2.06 3.8-0.42 8.2 12.31 0.25 1.46 0.2 5.98 4.68 14.56-2.28 3.73 4.22 2.57 3.55 9.06 2.5-9.87 10.86 4.13 1.04 10.1-1.5 0.01 0.4 0.03 0.78 0.12 1.19 0.67-0.01 1.18 0.11 1.59 0.31-0.68 1.07-1.85 2.56-3.74 4.69l4.96-3.63c1.02 1.18 2 2.74 5.85 3.07 0.52 3.91-0.3 10.39 15.81-0.1-6.96 10.4-1.73 4.53-0.91 10.79 0.1-0.02 19.96-3.88 10.72 4.21 7.96-2.23 3.38 4.73 3.19 6.5 27.04-8.09-11.01 9.28 11.03 3.29-5.58 6.05 1.83 7.59 1.97 11.65l5.88-3.28c-0.89 14.21-2.67 21.31-8.82 40.44-4.66 14.51-9.41 27.49-10.53 28.84-1.36 1.65-2.33 3.96-2.94 6.66-5.52 5.01-12.93 7.47-3.84 6.62 0.74-0.17 2.04-0.62 3.16-1-0.02 0.44-0.03 0.87-0.03 1.31-2.61 1.78-5.72 2.87-8.32 4.69-6.44 4.51 5.99-1.8 8.44-1.59 0.03 0.34 0.03 0.68 0.06 1.03-0.57 0.75-1.87 1.94-4.18 3.78 2.66-0.53 4.07-0.66 4.65-0.53 0.04 0.22 0.08 0.44 0.13 0.66-1.77 1.96-13.79 7.36-0.54 5.68 0.38 0.23 0.75 0.46 1.13 0.69-2.91 2.14-5.81 4.24-8.72 6.38l10.13-5.69c0.18 0.47 0.36 0.94 0.56 1.4 6.02 14 5.22 25.14-1.94 26.57-2.85 0.57-8.53 3.63-12.62 6.78-4.1 3.15-10.54 6.6-14.32 7.69-9.58 2.74-10.37 2.63-18.22-3.16-5.42-4-8.47-4.88-13.68-3.91-5.86 1.1-7.79 0.19-15.47-7.15-4.84-4.63-9.96-8.54-11.38-8.69-1.41-0.15-3.43-0.39-4.5-0.53-1.06-0.14-4.18-4.42-6.9-9.5-2.73-5.08-7.93-14.76-11.57-21.53-3.63-6.78-7.76-13.25-9.18-14.38s-6.08-4.83-10.35-8.22c-2.49-1.98-4.55-3.91-6.21-5.84 0.04-0.04 0.07-0.05 0.12-0.09-0.06 0.02-0.1 0.04-0.16 0.06-6.69-7.79-6.74-15.73-1.18-28.78 1.98-4.67 3.23-9.63 2.75-11.03-0.48-1.41 0.22-5.85 1.56-9.91s3.72-13.48 5.28-20.94c2.4-11.47 2.38-14.06 0-16.78-1.55-1.77-3.46-4.96-5.34-8.72 1.86-1 4.09-2.4 6.87-4.4-14.94 14.38 3.02-0.56 7.06-0.75zm187.94 21.78c0.21 3.6 0.41 8.21 1.41 8.84 2.02 1.28 0.66-7.22 2.97-6.56 11.07 3.14-4.26 12.75 5.56 5.56 0.54 17.65 0.74 20.68 1.47 19.16-4.28 22-9.23 41.99-14.97 60.43-1.26 4.04-2.12 7.46-2.6 10.47l-3.68 1.91c5.16 2.5 2 3.41-2.5 7.78 12.6-0.39-1.26 3.02 1.75 6.6 5.31-1.42-3.24 6.3 5.12 4.09-0.46-0.47 0.07-1.77 2.38-4.5 0.3 0.41 0.62 0.81 0.97 1.22 0.46 0.55 0.93 1.13 1.37 1.75-0.95 0.3-2.04 0.68-3.37 1.15-0.51 0.17-0.93 0.27-1.35 0.38 0.43 0.43 1.68 0.14 3.16-0.41-1.48 0.94-0.97 0.77 1.87-0.65 0.34 0.47 0.66 0.96 0.97 1.47 4.94 7.88 8.03 18.91 5.5 21.43-1.23 1.23-6.7 2.46-12.15 2.72-5.46 0.26-12.88 1.17-16.47 2.03-6.28 1.51-6.61 1.25-8.6-6.37-4.59-17.62-4.65-22.74-0.53-39.91 2.29-9.51 5.96-22.38 8.16-28.59 8.8-24.87 20.32-59.07 23.12-68.63 0.14-0.46 0.3-0.92 0.44-1.37zm0.53 118.69c-22.52 12.35-7.16 4.71 0 0zm-305-78.19c-0.2 0.76-1.33 1.87-3.81 3.5 1.21-1.14 2.48-2.31 3.81-3.5zm18 1c-1 0.71-11.21 7.14-17.9 13.25-0.96 0.87 25.31-17.04 8.03 1.65 25.44-11.33-5.53 5.85 1.28 4.57 7.12-1.35 11.73-2.27 14.78-2.94 0.3-0.36 0.69-0.76 1.09-1.19-7.12 0.67-20.62 2.66 0.38-0.44-0.16 0.17-0.23 0.29-0.38 0.44 3.94-0.37 5.79-0.33-1.09 1.19-7.07 8.25 11.91-2.67 1.88 10.87 17.05-6.77 4.4 4.96 18.93 0.79l2.88-2c-0.46 3.67-0.96 7.32-1.35 9.5-0.44 2.52-0.64 4.72-0.53 6.68l-8.87 4.97c0.32-0.03 1.85 7.34 7.09 1.28 0.42-0.79 0.98-1.52 1.63-2.09-0.58 0.86-1.12 1.51-1.63 2.09-1.51 2.83-1.5 6.33 0.91 5.28 7.52-1.25-2.05 4.48 7.97 1.32 0.27-0.1 0.65-0.27 1.03-0.44-0.02-0.03-0.02-0.07-0.03-0.09l0.09 0.06-0.06 0.03c0.48 0.99 1.13 1.34 2.28 1.34-1.08 1.25-2.42 3-2.66 3.38 0.2-0.21 1.23-1.44 2.72-3.31 0.19 0.11 0.38 0.23 0.56 0.34-0.39 0.72-0.89 1.65-1.72 3-7 6.14 3.76 1.26 5.16 3.03 1.66-0.14 2.85-0.11 3.75 0 0.17-0.15 0.45-0.38 0.66-0.56 0.19 0.15 0.4 0.31 0.59 0.47-0.11 0.08-0.23 0.14-0.34 0.22 0.48 0.11 0.84 0.25 1.12 0.4 12.6 10.17 26.45 25.77 37.32 42.38 7.37 11.27 13.4 21.43 13.4 22.59 0 3.6-7.45 7.01-19.87 9.03-6.57 1.07-14.54 2.93-17.72 4.16-3.18 1.22-7.69 2.22-10 2.22-3.82 0-4.07-0.83-2.81-9.22 1.33-8.89 1.17-9.25-3.85-9.25-4.73 0-16.1 3.57-26.84 8.4-13.3 5.98-44.99 12.13-66.75 12.97-23.03 0.89-23.99 1.13-38.78 9.28-8.35 4.6-16.92 8.35-19.1 8.35-2.86 0-5.56-3.55-9.78-12.85-6.8-14.99-7.32-17.22-5.66-24.09 0.69-2.82 2.4-11.55 3.85-19.41 2.42-13.12 3.63-15.33 14.75-27.22 2.57-2.75 5.08-5.3 7.28-7.4 13.11-2.26-23.18 19.28 8.03 3.81 1.56-0.5 4.11-3.06 4.69-1.53 0.56 1.48 0.7 2.55 0.59 3.31 0.88 0.12 1.87 0.25 3.1 0.5 1.03 0.22-1.17 1.77-1.75 2.66-2.21 1.83-8.46 3.29-6.63 5.5 2.64 3.18 8.88-0.72 12.66-2.72-16.07 11.14 0.01 5.74 6.59 2.84-15.46 15.6 18.07-9.1 1.19 5.16l7.41-4.97c13.24 8.4 24.98 13.03 31.15 11.88 7.91-1.49 9.87-5.21 6.88-12.97-1.21-3.13-1.62-10.66-0.94-16.94 0.68-6.26 0.21-14.49-1.03-18.47-4.35-13.87-7.87-35.09-6.44-38.75 0.46-1.17 3.16-4.16 6.91-7.81 1.88 0.84 5.71 3.19 3.03 7.31 14.31-8.03 20-11.38 20.87-11.84zm-83 78.62c-9.34-1.25-0.61 4.24 0 0zm129.22-16.06c-2.65 2.35-1.32 1.65 0.88 0.13-0.26-0.06-0.55-0.09-0.88-0.13zm-4.5-4.31c0.69 0.46 1.39 0.93 2.09 1.44-1.48 0.5-2.91 0.67-2.09-1.44zm3 2.12c0.17 0.13 0.36 0.25 0.53 0.38-0.88 0.46-1.68 0.88-2.75 1.47 1.06-0.87 1.63-1.34 2.22-1.85zm-134.19 7.13c0.15 0 0.4 0.07 0.72 0.22l-5.4 3.31c2.38-2.17 4.15-3.53 4.68-3.53zm375.25 7.87c0.06 0.09 0.13 0.17 0.19 0.25-0.58 0.26-1.16 0.51-1.72 0.72 0.43-0.27 0.87-0.57 1.53-0.97z" fill-rule="evenodd"/>
  </g>
  <metadata>
    <rdf:RDF>
      <cc:Work>
        <dc:format>image/svg+xml</dc:format>
        <dc:type rdf:resource="http://purl.org/dc/dcmitype/StillImage"/>
        <cc:license rdf:resource="http://creativecommons.org/licenses/publicdomain/"/>
        <dc:publisher>
          <cc:Agent rdf:about="http://openclipart.org/">
            <dc:title>Openclipart</dc:title>
          </cc:Agent>
        </dc:publisher>
        <dc:title>Wolf</dc:title>
        <dc:date>2008-02-04T12:37:44</dc:date>
        <dc:description>animal, clip art, clipart, mammal, moon, nature, night, remix, silhouette, wild, wolf, </dc:description>
        <dc:source>http://openclipart.org/detail/12533/wolf-by-peileppe-12533</dc:source>
        <dc:creator>
          <cc:Agent>
            <dc:title>Peileppe</dc:title>
          </cc:Agent>
        </dc:creator>
        <dc:subject>
          <rdf:Bag>
            <rdf:li>animal</rdf:li>
            <rdf:li>clip art</rdf:li>
            <rdf:li>clipart</rdf:li>
            <rdf:li>mammal</rdf:li>
            <rdf:li>moon</rdf:li>
            <rdf:li>nature</rdf:li>
            <rdf:li>night</rdf:li>
            <rdf:li>remix</rdf:li>
            <rdf:li>silhouette</rdf:li>
            <rdf:li>wild</rdf:li>
            <rdf:li>wolf</rdf:li>
          </rdf:Bag>
        </dc:subject>
      </cc:Work>
      <cc:License rdf:about="http://creativecommons.org/licenses/publicdomain/">
        <cc:permits rdf:resource="http://creativecommons.org/ns#Reproduction"/>
        <cc:permits rdf:resource="http://creativecommons.org/ns#Distribution"/>
        <cc:permits rdf:resource="http://creativecommons.org/ns#DerivativeWorks"/>
      </cc:License>
    </rdf:RDF>
  </metadata>
</svg>
