<?xml version="1.0" encoding="utf-8"?>
<svg id="woman" width="86" height="380" viewBox="202.71499633789062 584.406982421875 86.58999633789062 380.0480041503906" preserveAspectRatio="xMidYMid meet" xmlns="http://www.w3.org/2000/svg" xmlns:xlink="http://www.w3.org/1999/xlink">
  <defs id="svgEditorDefs">
    <path id="svgEditorClosePathDefs" class="lines" fill="black" style="stroke-width: 0px; stroke: none;"/>
    <pattern id="pattern-0" x="0" y="0" width="20" height="20" patternUnits="userSpaceOnUse" viewBox="0 0 100 100">
      <g transform="matrix(0.021288, 0, 0, 0.021288, 42.719604, 38.798145)">
        <g id="layer1">
          <path id="path3759" style="stroke:#000000;stroke-width:25;fill:none" transform="matrix(.5 .86603 -.86603 .5 760.31 -108.36)" d="m355.73 422.95-201.44 116.31-201.45-116.31 0.002-232.61 201.45-116.3 201.44 116.3z"/>
          <path id="path3759-1" style="stroke:#000000;stroke-width:25;fill:none" transform="matrix(.5 .86603 -.86603 .5 558.86 -457.27)" d="m355.73 422.95-201.44 116.31-201.45-116.31 0.002-232.61 201.45-116.3 201.44 116.3z"/>
          <path id="path3759-6" style="stroke:#000000;stroke-width:25;fill:none" transform="matrix(.5 .86603 -.86603 .5 961.75 240.55)" d="m355.73 422.95-201.44 116.31-201.45-116.31 0.002-232.61 201.45-116.3 201.44 116.3z"/>
          <path id="path3759-66" style="stroke:#000000;stroke-width:25;fill:none" transform="matrix(.5 .86603 -.86603 .5 1163.2 -108.36)" d="m355.73 422.95-201.44 116.31-201.45-116.31 0.002-232.61 201.45-116.3 201.44 116.3z"/>
          <path id="path3759-4" style="stroke:#000000;stroke-width:25;fill:none" transform="matrix(.5 .86603 -.86603 .5 961.75 -457.27)" d="m355.73 422.95-201.44 116.31-201.45-116.31 0.002-232.61 201.45-116.3 201.44 116.3z"/>
          <path id="path3759-66-3" style="stroke:#000000;stroke-width:25;fill:none" transform="matrix(.5 .86603 -.86603 .5 558.86 240.55)" d="m355.73 422.95-201.44 116.31-201.45-116.31 0.002-232.61 201.45-116.3 201.44 116.3z"/>
          <path id="path3759-4-7" style="stroke:#000000;stroke-width:25;fill:none" transform="matrix(.5 .86603 -.86603 .5 357.42 -108.36)" d="m355.73 422.95-201.44 116.31-201.45-116.31 0.002-232.61 201.45-116.3 201.44 116.3z"/>
          <path id="path3759-5" style="stroke:#000000;stroke-width:25;fill:none" transform="matrix(.5 .86603 -.86603 .5 155.98 240.55)" d="m355.73 422.95-201.44 116.31-201.45-116.31 0.002-232.61 201.45-116.3 201.44 116.3z"/>
          <path id="path3759-1-4" style="stroke:#000000;stroke-width:25;fill:none" transform="matrix(.5 .86603 -.86603 .5 -45.467 -108.36)" d="m355.73 422.95-201.44 116.31-201.45-116.31 0.002-232.61 201.45-116.3 201.44 116.3z"/>
          <path id="path3759-6-1" style="stroke:#000000;stroke-width:25;fill:none" transform="matrix(.5 .86603 -.86603 .5 357.42 589.46)" d="m355.73 422.95-201.44 116.31-201.45-116.31 0.002-232.61 201.45-116.3 201.44 116.3z"/>
          <path id="path3759-66-4" style="stroke:#000000;stroke-width:25;fill:none" transform="matrix(.5 .86603 -.86603 .5 -45.467 589.46)" d="m355.73 422.95-201.44 116.31-201.45-116.31 0.002-232.61 201.45-116.3 201.44 116.3z"/>
          <path id="path3759-4-3" style="stroke:#000000;stroke-width:25;fill:none" transform="matrix(.5 .86603 -.86603 .5 -246.91 240.55)" d="m355.73 422.95-201.44 116.31-201.45-116.31 0.002-232.61 201.45-116.3 201.44 116.3z"/>
          <path id="path3759-66-31" style="stroke:#000000;stroke-width:25;fill:none" transform="matrix(.5 .86603 -.86603 .5 155.98 -457.27)" d="m355.73 422.95-201.44 116.31-201.45-116.31 0.002-232.61 201.45-116.3 201.44 116.3z"/>
          <path id="path3759-4-30" style="stroke:#000000;stroke-width:25;fill:none" transform="matrix(.5 .86603 -.86603 .5 760.31 589.46)" d="m355.73 422.95-201.44 116.31-201.45-116.31 0.002-232.61 201.45-116.3 201.44 116.3z"/>
          <path id="path3759-66-9" style="stroke:#000000;stroke-width:25;fill:none" transform="matrix(.5 .86603 -.86603 .5 558.86 938.38)" d="m355.73 422.95-201.44 116.31-201.45-116.31 0.002-232.61 201.45-116.3 201.44 116.3z"/>
          <path id="path3759-4-6" style="stroke:#000000;stroke-width:25;fill:none" transform="matrix(.5 .86603 -.86603 .5 1163.2 589.46)" d="M 355.73 422.95 L 154.29 539.26 C 154.29 539.26 3236.423 -1530.678 -47.16 422.95 L -47.158 190.34 L 154.292 74.04 L 355.732 190.34 L 355.73 422.95 Z"/>
          <path id="path3759-66-7" style="stroke:#000000;stroke-width:25;fill:none" transform="matrix(.5 .86603 -.86603 .5 155.98 938.38)" d="m355.73 422.95-201.44 116.31-201.45-116.31 0.002-232.61 201.45-116.3 201.44 116.3z"/>
          <path id="path3759-4-76" style="stroke:#000000;stroke-width:25;fill:none" transform="matrix(.5 .86603 -.86603 .5 961.75 938.38)" d="m355.73 422.95-201.44 116.31-201.45-116.31 0.002-232.61 201.45-116.3 201.44 116.3z"/>
          <path id="path3759-4-4" style="stroke:#000000;stroke-width:25;fill:none" transform="matrix(.5 .86603 -.86603 .5 1364.6 240.55)" d="M 355.73 422.95 L 154.29 539.26 C 664.47 212.927 1873.635 -805.675 -47.16 422.95 L -47.158 190.34 L 154.292 74.04 L 355.732 190.34 L 355.73 422.95 Z"/>
          <path id="path3759-66-1" style="stroke:#000000;stroke-width:25;fill:none" transform="matrix(.5 .86603 -.86603 .5 1566.1 -108.36)" d="m355.73 422.95-201.44 116.31-201.45-116.31 0.002-232.61 201.45-116.3 201.44 116.3z"/>
          <path id="path3759-4-66" style="stroke:#000000;stroke-width:25;fill:none" transform="matrix(.5 .86603 -.86603 .5 1364.6 -457.27)" d="m355.73 422.95-201.44 116.31-201.45-116.31 0.002-232.61 201.45-116.3 201.44 116.3z"/>
          <path id="path3759-66-6" style="stroke:#000000;stroke-width:25;fill:none" transform="matrix(.5 .86603 -.86603 .5 -246.91 938.38)" d="m355.73 422.95-201.44 116.31-201.45-116.31 0.002-232.61 201.45-116.3 201.44 116.3z"/>
          <path id="path3759-4-5" style="stroke:#000000;stroke-width:25;fill:none" transform="matrix(.5 .86603 -.86603 .5 -448.35 589.46)" d="m355.73 422.95-201.44 116.31-201.45-116.31 0.002-232.61 201.45-116.3 201.44 116.3z"/>
          <path id="path3759-66-0" style="stroke:#000000;stroke-width:25;fill:none" transform="matrix(.5 .86603 -.86603 .5 -649.8 938.38)" d="m355.73 422.95-201.44 116.31-201.45-116.31 0.002-232.61 201.45-116.3 201.44 116.3z"/>
          <path id="path3759-4-33" style="stroke:#000000;stroke-width:25;fill:none" transform="matrix(.5 .86603 -.86603 .5 1767.5 -457.27)" d="m355.73 422.95-201.44 116.31-201.45-116.31 0.002-232.61 201.45-116.3 201.44 116.3z"/>
          <path id="path3759-66-2" style="stroke:#000000;stroke-width:25;fill:none" transform="matrix(.5 .86603 -.86603 .5 1566.1 589.46)" d="m355.73 422.95-201.44 116.31-201.45-116.31 0.002-232.61 201.45-116.3 201.44 116.3z"/>
          <path id="path3759-4-9" style="stroke:#000000;stroke-width:25;fill:none" transform="matrix(.5 .86603 -.86603 .5 1364.6 938.38)" d="m355.73 422.95-201.44 116.31-201.45-116.31 0.002-232.61 201.45-116.3 201.44 116.3z"/>
          <path id="path3759-66-14" style="stroke:#000000;stroke-width:25;fill:none" transform="matrix(.5 .86603 -.86603 .5 357.42 1287.3)" d="m355.73 422.95-201.44 116.31-201.45-116.31 0.002-232.61 201.45-116.3 201.44 116.3z"/>
          <path id="path3759-4-91" style="stroke:#000000;stroke-width:25;fill:none" transform="matrix(.5 .86603 -.86603 .5 760.31 1287.3)" d="m355.73 422.95-201.44 116.31-201.45-116.31 0.002-232.61 201.45-116.3 201.44 116.3z"/>
          <path id="path3759-66-5" style="stroke:#000000;stroke-width:25;fill:none" transform="matrix(.5 .86603 -.86603 .5 357.42 -806.18)" d="m355.73 422.95-201.44 116.31-201.45-116.31 0.002-232.61 201.45-116.3 201.44 116.3z"/>
          <path id="path3759-4-51" style="stroke:#000000;stroke-width:25;fill:none" transform="matrix(.5 .86603 -.86603 .5 760.31 -806.18)" d="m355.73 422.95-201.44 116.31-201.45-116.31 0.002-232.61 201.45-116.3 201.44 116.3z"/>
          <path id="path3759-66-49" style="stroke:#000000;stroke-width:25;fill:none" transform="matrix(.5 .86603 -.86603 .5 -246.91 -457.27)" d="m355.73 422.95-201.44 116.31-201.45-116.31 0.002-232.61 201.45-116.3 201.44 116.3z"/>
          <path id="path3759-4-99" style="stroke:#000000;stroke-width:25;fill:none" transform="matrix(.5 .86603 -.86603 .5 -448.35 -108.36)" d="m355.73 422.95-201.44 116.31-201.45-116.31 0.002-232.61 201.45-116.3 201.44 116.3z"/>
          <path id="path3759-66-66" style="stroke:#000000;stroke-width:25;fill:none" transform="matrix(.5 .86603 -.86603 .5 -649.8 240.55)" d="m355.73 422.95-201.44 116.31-201.45-116.31 0.002-232.61 201.45-116.3 201.44 116.3z"/>
          <path id="path3759-4-1" style="stroke:#000000;stroke-width:25;fill:none" transform="matrix(.5 .86603 -.86603 .5 -45.467 1287.3)" d="m355.73 422.95-201.44 116.31-201.45-116.31 0.002-232.61 201.45-116.3 201.44 116.3z"/>
          <path id="path3759-66-96" style="stroke:#000000;stroke-width:25;fill:none" transform="matrix(.5 .86603 -.86603 .5 1767.5 240.55)" d="m355.73 422.95-201.44 116.31-201.45-116.31 0.002-232.61 201.45-116.3 201.44 116.3z"/>
          <path id="path3759-4-34" style="stroke:#000000;stroke-width:25;fill:none" transform="matrix(.5 .86603 -.86603 .5 1163.2 1287.3)" d="m355.73 422.95-201.44 116.31-201.45-116.31 0.002-232.61 201.45-116.3 201.44 116.3z"/>
          <path id="path3759-66-37" style="stroke:#000000;stroke-width:25;fill:none" transform="matrix(.5 .86603 -.86603 .5 1163.2 -806.18)" d="m355.73 422.95-201.44 116.31-201.45-116.31 0.002-232.61 201.45-116.3 201.44 116.3z"/>
          <path id="path3759-4-40" style="stroke:#000000;stroke-width:25;fill:none" transform="matrix(.5 .86603 -.86603 .5 -45.467 -806.18)" d="m355.73 422.95-201.44 116.31-201.45-116.31 0.002-232.61 201.45-116.3 201.44 116.3z"/>
          <path id="path3759-66-72" style="stroke:#000000;stroke-width:25;fill:none" transform="matrix(.5 .86603 -.86603 .5 1969 -108.36)" d="m355.73 422.95-201.44 116.31-201.45-116.31 0.002-232.61 201.45-116.3 201.44 116.3z"/>
          <path id="path3759-4-64" style="stroke:#000000;stroke-width:25;fill:none" transform="matrix(.5 .86603 -.86603 .5 1566.1 -806.18)" d="m355.73 422.95-201.44 116.31-201.45-116.31 0.002-232.61 201.45-116.3 201.44 116.3z"/>
          <path id="path3759-66-76" style="stroke:#000000;stroke-width:25;fill:none" transform="matrix(.5 .86603 -.86603 .5 -448.35 1287.3)" d="m355.73 422.95-201.44 116.31-201.45-116.31 0.002-232.61 201.45-116.3 201.44 116.3z"/>
          <path id="path3759-4-0" style="stroke:#000000;stroke-width:25;fill:none" transform="matrix(.5 .86603 -.86603 .5 -851.24 589.46)" d="m355.73 422.95-201.44 116.31-201.45-116.31 0.002-232.61 201.45-116.3 201.44 116.3z"/>
          <path id="path3759-66-5-1" style="stroke:#000000;stroke-width:25;fill:none" transform="matrix(.5 .86603 -.86603 .5 155.98 -1155.1)" d="m355.73 422.95-201.44 116.31-201.45-116.31 0.002-232.61 201.45-116.3 201.44 116.3z"/>
          <path id="path3759-4-51-0" style="stroke:#000000;stroke-width:25;fill:none" transform="matrix(.5 .86603 -.86603 .5 558.86 -1155.1)" d="m355.73 422.95-201.44 116.31-201.45-116.31 0.002-232.61 201.45-116.3 201.44 116.3z"/>
          <path id="path3759-66-37-2" style="stroke:#000000;stroke-width:25;fill:none" transform="matrix(.5 .86603 -.86603 .5 961.75 -1155.1)" d="m355.73 422.95-201.44 116.31-201.45-116.31 0.002-232.61 201.45-116.3 201.44 116.3z"/>
          <path id="path3759-4-40-1" style="stroke:#000000;stroke-width:25;fill:none" transform="matrix(.5 .86603 -.86603 .5 -246.91 -1155.1)" d="m355.73 422.95-201.44 116.31-201.45-116.31 0.002-232.61 201.45-116.3 201.44 116.3z"/>
          <path id="path3759-4-64-7" style="stroke:#000000;stroke-width:25;fill:none" transform="matrix(.5 .86603 -.86603 .5 1364.6 -1155.1)" d="m355.73 422.95-201.44 116.31-201.45-116.31 0.002-232.61 201.45-116.3 201.44 116.3z"/>
          <path id="path3759-66-49-0" style="stroke:#000000;stroke-width:25;fill:none" transform="matrix(.5 .86603 -.86603 .5 -649.8 -457.27)" d="m355.73 422.95-201.44 116.31-201.45-116.31 0.002-232.61 201.45-116.3 201.44 116.3z"/>
          <path id="path3759-4-99-2" style="stroke:#000000;stroke-width:25;fill:none" transform="matrix(.5 .86603 -.86603 .5 -851.24 -108.36)" d="m355.73 422.95-201.44 116.31-201.45-116.31 0.002-232.61 201.45-116.3 201.44 116.3z"/>
          <path id="path3759-66-66-3" style="stroke:#000000;stroke-width:25;fill:none" transform="matrix(.5 .86603 -.86603 .5 -1052.7 240.55)" d="m355.73 422.95-201.44 116.31-201.45-116.31 0.002-232.61 201.45-116.3 201.44 116.3z"/>
          <path id="path3759-4-40-8" style="stroke:#000000;stroke-width:25;fill:none" transform="matrix(.5 .86603 -.86603 .5 -448.35 -806.18)" d="m355.73 422.95-201.44 116.31-201.45-116.31 0.002-232.61 201.45-116.3 201.44 116.3z"/>
          <path id="path3759-66-2-9" style="stroke:#000000;stroke-width:25;fill:none" transform="matrix(.5 .86603 -.86603 .5 1969 589.46)" d="m355.73 422.95-201.44 116.31-201.45-116.31 0.002-232.61 201.45-116.3 201.44 116.3z"/>
          <path id="path3759-4-9-5" style="stroke:#000000;stroke-width:25;fill:none" transform="matrix(.5 .86603 -.86603 .5 1767.5 938.38)" d="m355.73 422.95-201.44 116.31-201.45-116.31 0.002-232.61 201.45-116.3 201.44 116.3z"/>
          <path id="path3759-66-96-2" style="stroke:#000000;stroke-width:25;fill:none" transform="matrix(.5 .86603 -.86603 .5 2170.4 240.55)" d="m355.73 422.95-201.44 116.31-201.45-116.31 0.002-232.61 201.45-116.3 201.44 116.3z"/>
          <path id="path3759-4-34-6" style="stroke:#000000;stroke-width:25;fill:none" transform="matrix(.5 .86603 -.86603 .5 1566.1 1287.3)" d="m355.73 422.95-201.44 116.31-201.45-116.31 0.002-232.61 201.45-116.3 201.44 116.3z"/>
          <path id="path3759-66-5-1-7" style="stroke:#000000;stroke-width:25;fill:none" transform="matrix(.5 .86603 -.86603 .5 155.98 1636.2)" d="m355.73 422.95-201.44 116.31-201.45-116.31 0.002-232.61 201.45-116.3 201.44 116.3z"/>
          <path id="path3759-4-51-0-3" style="stroke:#000000;stroke-width:25;fill:none" transform="matrix(.5 .86603 -.86603 .5 558.86 1636.2)" d="m355.73 422.95-201.44 116.31-201.45-116.31 0.002-232.61 201.45-116.3 201.44 116.3z"/>
          <path id="path3759-66-37-2-5" style="stroke:#000000;stroke-width:25;fill:none" transform="matrix(.5 .86603 -.86603 .5 961.75 1636.2)" d="m355.73 422.95-201.44 116.31-201.45-116.31 0.002-232.61 201.45-116.3 201.44 116.3z"/>
          <path id="path3759-4-40-1-4" style="stroke:#000000;stroke-width:25;fill:none" transform="matrix(.5 .86603 -.86603 .5 -246.91 1636.2)" d="m355.73 422.95-201.44 116.31-201.45-116.31 0.002-232.61 201.45-116.3 201.44 116.3z"/>
          <path id="path3759-4-64-7-1" style="stroke:#000000;stroke-width:25;fill:none" transform="matrix(.5 .86603 -.86603 .5 1364.6 1636.2)" d="m355.73 422.95-201.44 116.31-201.45-116.31 0.002-232.61 201.45-116.3 201.44 116.3z"/>
          <path id="path3759-66-5-7" style="stroke:#000000;stroke-width:25;fill:none" transform="matrix(.5 .86603 -.86603 .5 357.42 -1504)" d="m355.73 422.95-201.44 116.31-201.45-116.31 0.002-232.61 201.45-116.3 201.44 116.3z"/>
          <path id="path3759-4-51-7" style="stroke:#000000;stroke-width:25;fill:none" transform="matrix(.5 .86603 -.86603 .5 760.31 -1504)" d="m355.73 422.95-201.44 116.31-201.45-116.31 0.002-232.61 201.45-116.3 201.44 116.3z"/>
          <path id="path3759-66-37-8" style="stroke:#000000;stroke-width:25;fill:none" transform="matrix(.5 .86603 -.86603 .5 1163.2 -1504)" d="m355.73 422.95-201.44 116.31-201.45-116.31 0.002-232.61 201.45-116.3 201.44 116.3z"/>
          <path id="path3759-4-40-87" style="stroke:#000000;stroke-width:25;fill:none" transform="matrix(.5 .86603 -.86603 .5 -45.467 -1504)" d="m355.73 422.95-201.44 116.31-201.45-116.31 0.002-232.61 201.45-116.3 201.44 116.3z"/>
          <path id="path3759-4-64-8" style="stroke:#000000;stroke-width:25;fill:none" transform="matrix(.5 .86603 -.86603 .5 1566.1 -1504)" d="m355.73 422.95-201.44 116.31-201.45-116.31 0.002-232.61 201.45-116.3 201.44 116.3z"/>
          <path id="path3759-4-40-8-9" style="stroke:#000000;stroke-width:25;fill:none" transform="matrix(.5 .86603 -.86603 .5 -448.35 -1504)" d="m355.73 422.95-201.44 116.31-201.45-116.31 0.002-232.61 201.45-116.3 201.44 116.3z"/>
          <path id="path3759-66-5-18" style="stroke:#000000;stroke-width:25;fill:none" transform="matrix(.5 .86603 -.86603 .5 357.42 1985.1)" d="m355.73 422.95-201.44 116.31-201.45-116.31 0.002-232.61 201.45-116.3 201.44 116.3z"/>
          <path id="path3759-4-51-2" style="stroke:#000000;stroke-width:25;fill:none" transform="matrix(.5 .86603 -.86603 .5 760.31 1985.1)" d="m355.73 422.95-201.44 116.31-201.45-116.31 0.002-232.61 201.45-116.3 201.44 116.3z"/>
          <path id="path3759-66-37-80" style="stroke:#000000;stroke-width:25;fill:none" transform="matrix(.5 .86603 -.86603 .5 1163.2 1985.1)" d="m355.73 422.95-201.44 116.31-201.45-116.31 0.002-232.61 201.45-116.3 201.44 116.3z"/>
          <path id="path3759-4-40-3" style="stroke:#000000;stroke-width:25;fill:none" transform="matrix(.5 .86603 -.86603 .5 -45.467 1985.1)" d="m355.73 422.95-201.44 116.31-201.45-116.31 0.002-232.61 201.45-116.3 201.44 116.3z"/>
          <path id="path3759-4-64-3" style="stroke:#000000;stroke-width:25;fill:none" transform="matrix(.5 .86603 -.86603 .5 1566.1 1985.1)" d="m355.73 422.95-201.44 116.31-201.45-116.31 0.002-232.61 201.45-116.3 201.44 116.3z"/>
          <path id="path3759-4-40-8-92" style="stroke:#000000;stroke-width:25;fill:none" transform="matrix(.5 .86603 -.86603 .5 -448.35 1985.1)" d="m355.73 422.95-201.44 116.31-201.45-116.31 0.002-232.61 201.45-116.3 201.44 116.3z"/>
          <path id="path3759-66-2-9-5" style="stroke:#000000;stroke-width:25;fill:none" transform="matrix(.5 .86603 -.86603 .5 2371.9 589.47)" d="m355.73 422.95-201.44 116.31-201.45-116.31 0.002-232.61 201.45-116.3 201.44 116.3z"/>
          <path id="path3759-4-9-5-3" style="stroke:#000000;stroke-width:25;fill:none" transform="matrix(.5 .86603 -.86603 .5 2170.4 938.38)" d="m355.73 422.95-201.44 116.31-201.45-116.31 0.002-232.61 201.45-116.3 201.44 116.3z"/>
          <path id="path3759-66-96-2-1" style="stroke:#000000;stroke-width:25;fill:none" transform="matrix(.5 .86603 -.86603 .5 2573.3 240.55)" d="m355.73 422.95-201.44 116.31-201.45-116.31 0.002-232.61 201.45-116.3 201.44 116.3z"/>
          <path id="path3759-4-34-6-9" style="stroke:#000000;stroke-width:25;fill:none" transform="matrix(.5 .86603 -.86603 .5 1969 1287.3)" d="m355.73 422.95-201.44 116.31-201.45-116.31 0.002-232.61 201.45-116.3 201.44 116.3z"/>
          <path id="path3759-4-64-7-1-4" style="stroke:#000000;stroke-width:25;fill:none" transform="matrix(.5 .86603 -.86603 .5 1767.5 1636.2)" d="m355.73 422.95-201.44 116.31-201.45-116.31 0.002-232.61 201.45-116.3 201.44 116.3z"/>
          <path id="path3759-4-33-2" style="stroke:#000000;stroke-width:25;fill:none" transform="matrix(.5 .86603 -.86603 .5 2170.4 -457.27)" d="m355.73 422.95-201.44 116.31-201.45-116.31 0.002-232.61 201.45-116.3 201.44 116.3z"/>
          <path id="path3759-66-72-9" style="stroke:#000000;stroke-width:25;fill:none" transform="matrix(.5 .86603 -.86603 .5 2371.9 -108.36)" d="m355.73 422.95-201.44 116.31-201.45-116.31 0.002-232.61 201.45-116.3 201.44 116.3z"/>
          <path id="path3759-4-64-6" style="stroke:#000000;stroke-width:25;fill:none" transform="matrix(.5 .86603 -.86603 .5 1969 -806.18)" d="m355.73 422.95-201.44 116.31-201.45-116.31 0.002-232.61 201.45-116.3 201.44 116.3z"/>
          <path id="path3759-4-64-7-13" style="stroke:#000000;stroke-width:25;fill:none" transform="matrix(.5 .86603 -.86603 .5 1767.5 -1155.1)" d="m355.73 422.95-201.44 116.31-201.45-116.31 0.002-232.61 201.45-116.3 201.44 116.3z"/>
          <path id="path3759-4-33-5" style="stroke:#000000;stroke-width:25;fill:none" transform="matrix(.5 .86603 -.86603 .5 -851.24 1287.3)" d="m355.73 422.95-201.44 116.31-201.45-116.31 0.002-232.61 201.45-116.3 201.44 116.3z"/>
          <path id="path3759-66-72-7" style="stroke:#000000;stroke-width:25;fill:none" transform="matrix(.5 .86603 -.86603 .5 -649.8 1636.2)" d="m355.73 422.95-201.44 116.31-201.45-116.31 0.002-232.61 201.45-116.3 201.44 116.3z"/>
          <path id="path3759-4-64-78" style="stroke:#000000;stroke-width:25;fill:none" transform="matrix(.5 .86603 -.86603 .5 -1052.7 938.38)" d="m355.73 422.95-201.44 116.31-201.45-116.31 0.002-232.61 201.45-116.3 201.44 116.3z"/>
          <path id="path3759-4-64-7-7" style="stroke:#000000;stroke-width:25;fill:none" transform="matrix(.5 .86603 -.86603 .5 -1254.1 589.47)" d="m355.73 422.95-201.44 116.31-201.45-116.31 0.002-232.61 201.45-116.3 201.44 116.3z"/>
          <path id="path3759-66-37-8-1" style="stroke:#000000;stroke-width:25;fill:none" transform="matrix(.5 .86603 -.86603 .5 -1455.6 240.55)" d="m355.73 422.95-201.44 116.31-201.45-116.31 0.002-232.61 201.45-116.3 201.44 116.3z"/>
          <path id="path3759-4-40-1-9" style="stroke:#000000;stroke-width:25;fill:none" transform="matrix(.5 .86603 -.86603 .5 -649.8 -1155.1)" d="m355.73 422.95-201.44 116.31-201.45-116.31 0.002-232.61 201.45-116.3 201.44 116.3z"/>
          <path id="path3759-66-49-0-7" style="stroke:#000000;stroke-width:25;fill:none" transform="matrix(.5 .86603 -.86603 .5 -1052.7 -457.27)" d="m355.73 422.95-201.44 116.31-201.45-116.31 0.002-232.61 201.45-116.3 201.44 116.3z"/>
          <path id="path3759-4-99-2-6" style="stroke:#000000;stroke-width:25;fill:none" transform="matrix(.5 .86603 -.86603 .5 -1254.1 -108.36)" d="m355.73 422.95-201.44 116.31-201.45-116.31 0.002-232.61 201.45-116.3 201.44 116.3z"/>
          <path id="path3759-4-40-8-4" style="stroke:#000000;stroke-width:25;fill:none" transform="matrix(.5 .86603 -.86603 .5 -851.24 -806.18)" d="m355.73 422.95-201.44 116.31-201.45-116.31 0.002-232.61 201.45-116.3 201.44 116.3z"/>
          <path id="path3759-66-5-1-0" style="stroke:#000000;stroke-width:25;fill:none" transform="matrix(.5 .86603 -.86603 .5 155.98 -1852.9)" d="m355.73 422.95-201.44 116.31-201.45-116.31 0.002-232.61 201.45-116.3 201.44 116.3z"/>
          <path id="path3759-4-51-0-2" style="stroke:#000000;stroke-width:25;fill:none" transform="matrix(.5 .86603 -.86603 .5 558.86 -1852.9)" d="m355.73 422.95-201.44 116.31-201.45-116.31 0.002-232.61 201.45-116.3 201.44 116.3z"/>
          <path id="path3759-66-37-2-8" style="stroke:#000000;stroke-width:25;fill:none" transform="matrix(.5 .86603 -.86603 .5 961.75 -1852.9)" d="m355.73 422.95-201.44 116.31-201.45-116.31 0.002-232.61 201.45-116.3 201.44 116.3z"/>
          <path id="path3759-4-40-1-47" style="stroke:#000000;stroke-width:25;fill:none" transform="matrix(.5 .86603 -.86603 .5 -246.91 -1852.9)" d="m355.73 422.95-201.44 116.31-201.45-116.31 0.002-232.61 201.45-116.3 201.44 116.3z"/>
          <path id="path3759-4-64-7-14" style="stroke:#000000;stroke-width:25;fill:none" transform="matrix(.5 .86603 -.86603 .5 1364.6 -1852.9)" d="m355.73 422.95-201.44 116.31-201.45-116.31 0.002-232.61 201.45-116.3 201.44 116.3z"/>
          <path id="path3759-4-64-7-13-4" style="stroke:#000000;stroke-width:25;fill:none" transform="matrix(.5 .86603 -.86603 .5 1767.5 -1852.9)" d="m355.73 422.95-201.44 116.31-201.45-116.31 0.002-232.61 201.45-116.3 201.44 116.3z"/>
          <path id="path3759-4-40-1-9-8" style="stroke:#000000;stroke-width:25;fill:none" transform="matrix(.5 .86603 -.86603 .5 -649.8 -1852.9)" d="m355.73 422.95-201.44 116.31-201.45-116.31 0.002-232.61 201.45-116.3 201.44 116.3z"/>
          <path id="path3759-66-5-1-5" style="stroke:#000000;stroke-width:25;fill:none" transform="matrix(.5 .86603 -.86603 .5 155.98 2334)" d="m355.73 422.95-201.44 116.31-201.45-116.31 0.002-232.61 201.45-116.3 201.44 116.3z"/>
          <path id="path3759-4-51-0-8" style="stroke:#000000;stroke-width:25;fill:none" transform="matrix(.5 .86603 -.86603 .5 558.86 2334)" d="m355.73 422.95-201.44 116.31-201.45-116.31 0.002-232.61 201.45-116.3 201.44 116.3z"/>
          <path id="path3759-66-37-2-88" style="stroke:#000000;stroke-width:25;fill:none" transform="matrix(.5 .86603 -.86603 .5 961.75 2334)" d="M 355.73 422.95 L 154.29 539.26 L -47.16 422.95 C 61.035 381.553 1322.089 -333.553 -47.158 190.34 L 154.292 74.04 L 355.732 190.34 L 355.73 422.95 Z"/>
          <path id="path3759-4-40-1-1" style="stroke:#000000;stroke-width:25;fill:none" transform="matrix(.5 .86603 -.86603 .5 -246.91 2334)" d="m355.73 422.95-201.44 116.31-201.45-116.31 0.002-232.61 201.45-116.3 201.44 116.3z"/>
          <path id="path3759-4-64-7-6" style="stroke:#000000;stroke-width:25;fill:none" transform="matrix(.5 .86603 -.86603 .5 1364.6 2334)" d="m355.73 422.95-201.44 116.31-201.45-116.31 0.002-232.61 201.45-116.3 201.44 116.3z"/>
          <path id="path3759-4-64-7-13-49" style="stroke:#000000;stroke-width:25;fill:none" transform="matrix(.5 .86603 -.86603 .5 1767.5 2334)" d="m355.73 422.95-201.44 116.31-201.45-116.31 0.002-232.61 201.45-116.3 201.44 116.3z"/>
          <path id="path3759-4-40-1-9-0" style="stroke:#000000;stroke-width:25;fill:none" transform="matrix(.5 .86603 -.86603 .5 -649.8 2334)" d="m355.73 422.95-201.44 116.31-201.45-116.31 0.002-232.61 201.45-116.3 201.44 116.3z"/>
          <path id="path3759-4-40-8-9-6" style="stroke:#000000;stroke-width:25;fill:none" transform="matrix(.5 .86603 -.86603 .5 -851.24 -1504)" d="m355.73 422.95-201.44 116.31-201.45-116.31 0.002-232.61 201.45-116.3 201.44 116.3z"/>
          <path id="path3759-4-40-8-92-9" style="stroke:#000000;stroke-width:25;fill:none" transform="matrix(.5 .86603 -.86603 .5 -851.24 1985.1)" d="m355.73 422.95-201.44 116.31-201.45-116.31 0.002-232.61 201.45-116.3 201.44 116.3z"/>
          <path id="path3759-4-33-5-6" style="stroke:#000000;stroke-width:25;fill:none" transform="matrix(.5 .86603 -.86603 .5 -1254.1 1287.3)" d="m355.73 422.95-201.44 116.31-201.45-116.31 0.002-232.61 201.45-116.3 201.44 116.3z"/>
          <path id="path3759-66-72-7-4" style="stroke:#000000;stroke-width:25;fill:none" transform="matrix(.5 .86603 -.86603 .5 -1052.7 1636.2)" d="m355.73 422.95-201.44 116.31-201.45-116.31 0.002-232.61 201.45-116.3 201.44 116.3z"/>
          <path id="path3759-4-64-78-1" style="stroke:#000000;stroke-width:25;fill:none" transform="matrix(.5 .86603 -.86603 .5 -1455.6 938.38)" d="m355.73 422.95-201.44 116.31-201.45-116.31 0.002-232.61 201.45-116.3 201.44 116.3z"/>
          <path id="path3759-4-64-7-7-0" style="stroke:#000000;stroke-width:25;fill:none" transform="matrix(.5 .86603 -.86603 .5 -1657 589.47)" d="m355.73 422.95-201.44 116.31-201.45-116.31 0.002-232.61 201.45-116.3 201.44 116.3z"/>
          <path id="path3759-66-37-8-1-6" style="stroke:#000000;stroke-width:25;fill:none" transform="matrix(.5 .86603 -.86603 .5 -1858.5 240.55)" d="m355.73 422.95-201.44 116.31-201.45-116.31 0.002-232.61 201.45-116.3 201.44 116.3z"/>
          <path id="path3759-4-40-1-9-5" style="stroke:#000000;stroke-width:25;fill:none" transform="matrix(.5 .86603 -.86603 .5 -1052.7 -1155.1)" d="m355.73 422.95-201.44 116.31-201.45-116.31 0.002-232.61 201.45-116.3 201.44 116.3z"/>
          <path id="path3759-66-49-0-7-0" style="stroke:#000000;stroke-width:25;fill:none" transform="matrix(.5 .86603 -.86603 .5 -1455.6 -457.27)" d="m355.73 422.95-201.44 116.31-201.45-116.31 0.002-232.61 201.45-116.3 201.44 116.3z"/>
          <path id="path3759-4-99-2-6-2" style="stroke:#000000;stroke-width:25;fill:none" transform="matrix(.5 .86603 -.86603 .5 -1657 -108.36)" d="m355.73 422.95-201.44 116.31-201.45-116.31 0.002-232.61 201.45-116.3 201.44 116.3z"/>
          <path id="path3759-4-40-8-4-4" style="stroke:#000000;stroke-width:25;fill:none" transform="matrix(.5 .86603 -.86603 .5 -1254.1 -806.18)" d="m355.73 422.95-201.44 116.31-201.45-116.31 0.002-232.61 201.45-116.3 201.44 116.3z"/>
          <path id="path3759-4-64-8-4" style="stroke:#000000;stroke-width:25;fill:none" transform="matrix(.5 .86603 -.86603 .5 1969 -1504)" d="m355.73 422.95-201.44 116.31-201.45-116.31 0.002-232.61 201.45-116.3 201.44 116.3z"/>
          <path id="path3759-4-64-3-7" style="stroke:#000000;stroke-width:25;fill:none" transform="matrix(.5 .86603 -.86603 .5 1969 1985.1)" d="m355.73 422.95-201.44 116.31-201.45-116.31 0.002-232.61 201.45-116.3 201.44 116.3z"/>
          <path id="path3759-66-2-9-5-2" style="stroke:#000000;stroke-width:25;fill:none" transform="matrix(.5 .86603 -.86603 .5 2774.7 589.47)" d="m355.73 422.95-201.44 116.31-201.45-116.31 0.002-232.61 201.45-116.3 201.44 116.3z"/>
          <path id="path3759-4-9-5-3-8" style="stroke:#000000;stroke-width:25;fill:none" transform="matrix(.5 .86603 -.86603 .5 2573.3 938.38)" d="m355.73 422.95-201.44 116.31-201.45-116.31 0.002-232.61 201.45-116.3 201.44 116.3z"/>
          <path id="path3759-66-96-2-1-8" style="stroke:#000000;stroke-width:25;fill:none" transform="matrix(.5 .86603 -.86603 .5 2976.2 240.55)" d="m355.73 422.95-201.44 116.31-201.45-116.31 0.002-232.61 201.45-116.3 201.44 116.3z"/>
          <path id="path3759-4-34-6-9-6" style="stroke:#000000;stroke-width:25;fill:none" transform="matrix(.5 .86603 -.86603 .5 2371.9 1287.3)" d="m355.73 422.95-201.44 116.31-201.45-116.31 0.002-232.61 201.45-116.3 201.44 116.3z"/>
          <path id="path3759-4-64-7-1-4-9" style="stroke:#000000;stroke-width:25;fill:none" transform="matrix(.5 .86603 -.86603 .5 2170.4 1636.2)" d="m355.73 422.95-201.44 116.31-201.45-116.31 0.002-232.61 201.45-116.3 201.44 116.3z"/>
          <path id="path3759-4-33-2-8" style="stroke:#000000;stroke-width:25;fill:none" transform="matrix(.5 .86603 -.86603 .5 2573.3 -457.27)" d="m355.73 422.95-201.44 116.31-201.45-116.31 0.002-232.61 201.45-116.3 201.44 116.3z"/>
          <path id="path3759-66-72-9-6" style="stroke:#000000;stroke-width:25;fill:none" transform="matrix(.5 .86603 -.86603 .5 2774.7 -108.36)" d="m355.73 422.95-201.44 116.31-201.45-116.31 0.002-232.61 201.45-116.3 201.44 116.3z"/>
          <path id="path3759-4-64-6-9" style="stroke:#000000;stroke-width:25;fill:none" transform="matrix(.5 .86603 -.86603 .5 2371.9 -806.18)" d="m355.73 422.95-201.44 116.31-201.45-116.31 0.002-232.61 201.45-116.3 201.44 116.3z"/>
          <path id="path3759-4-64-7-13-1" style="stroke:#000000;stroke-width:25;fill:none" transform="matrix(.5 .86603 -.86603 .5 2170.4 -1155.1)" d="m355.73 422.95-201.44 116.31-201.45-116.31 0.002-232.61 201.45-116.3 201.44 116.3z"/>
        </g>
      </g>
    </pattern>
    <pattern id="pattern-0-0" patternTransform="matrix(1.044058, 0, 0, 3.276306, 239.365021, 791.694763)" xlink:href="#pattern-0"/>
  </defs>
  <path d="M 231.949 762.859 C 230.439 762.859 228.997 770.967 228.295 772.604 C 223.052 784.837 222.302 796.243 221.596 810.365 C 221.291 816.461 220.377 828.637 220.377 828.637 C 220.377 828.637 220.115 823.345 220.377 820.719 C 221.272 811.773 225.553 801.841 229.513 793.921 C 229.762 793.424 228.839 783.502 229.513 784.176 C 236.859 791.521 234.986 816.528 233.777 826.809 C 233.7 827.463 232.552 846.306 233.777 845.081 C 235.22 843.637 234.377 835.978 234.995 833.509 C 236.577 827.179 241.811 803.899 238.649 797.575 C 237.469 795.215 232.201 784.533 234.386 782.349 C 236.826 779.908 238.509 788.115 239.258 791.484 C 241.731 802.612 241.062 814.487 242.912 825.591 C 243.204 827.34 249.003 838.99 249.003 838.99 C 249.003 838.99 246.567 825.137 246.567 824.373 C 246.567 813.759 246.567 800.263 246.567 787.83 C 246.567 786.211 244.74 774.431 244.74 774.431 C 244.74 774.431 248.382 786.998 249.003 787.83 C 255.386 796.381 253.108 809.618 256.991 814.445 C 259.832 817.977 257.754 823.666 258.748 828.637 C 258.87 829.25 261.184 842.645 261.184 842.645 C 261.184 842.645 260.978 828.631 261.184 828.027 C 266.089 813.663 261.135 799.046 266.665 782.958 C 268.264 778.306 259.836 770.906 261.793 768.949 C 262.76 767.983 266.369 776.57 267.274 777.476 C 274.73 784.932 271.952 804.299 275.192 814.019 C 275.653 815.403 275.998 828.44 278.237 826.2 C 279.502 824.936 275.192 813.397 275.192 810.974 C 275.192 799.301 276.388 763.761 266.056 758.596 C 263.199 757.167 259.826 760.493 255.093 762.859 C 252.281 764.265 244.909 757.208 241.085 761.032 C 239.388 762.73 240.052 757.802 239.258 758.596 C 237.824 760.03 238.284 766.269 237.431 767.122 C 236.321 768.232 234.386 759.814 234.386 759.814 C 234.386 759.814 231.181 762.859 230.122 762.859" style="stroke: rgb(0, 0, 0); fill: url(#pattern-0-0);"/>
</svg>