<?xml version="1.0" encoding="utf-8"?>
<svg id="woman" width="86" height="380" viewBox="202.71499633789062 584.406982421875 113 380.0480041503906" preserveAspectRatio="xMidYMid meet" xmlns="http://www.w3.org/2000/svg">
  <defs id="svgEditorDefs">
    <path id="svgEditorClosePathDefs" class="lines" fill="black" style="stroke-width: 0px; stroke: none;"/>
    <linearGradient id="linearGradient4053" y2="486.12" gradientUnits="userSpaceOnUse" x2="147.41" gradientTransform="matrix(.42279 0 0 .54157 98.98 152.52)" y1="133.72" x1="6.9099">
      <stop id="stop4057" style="stop-color:#6c46d1" offset="0"/>
      <stop id="stop4059" style="stop-color:#ff9bff" offset="1"/>
    </linearGradient>
    <linearGradient id="linearGradient4067" y2="504.55" gradientUnits="userSpaceOnUse" x2="221.12" gradientTransform="matrix(.42279 0 0 .54157 98.98 152.52)" y1="400.9" x1="283.31">
      <stop id="stop4071" style="stop-color:#683bc2" offset="0"/>
      <stop id="stop4073" style="stop-color:#ff9bff" offset="1"/>
    </linearGradient>
    <linearGradient id="linearGradient4081" y2="504.55" gradientUnits="userSpaceOnUse" x2="294.82" gradientTransform="matrix(.42279 0 0 .54157 98.98 152.52)" y1="430.84" x1="520.55">
      <stop id="stop4077" style="stop-color:#683bc2" offset="0"/>
      <stop id="stop4079" style="stop-color:#ff00ff" offset="1"/>
    </linearGradient>
    <linearGradient id="linearGradient4097" y2="502.25" gradientUnits="userSpaceOnUse" x2="248.76" gradientTransform="matrix(0.42279, 0, -0.000002, 0.54157, 115.82896, 91.097262)" y1="649.66" x1="331.68">
      <stop id="stop4093" style="stop-color:#6600cc" offset="0"/>
      <stop id="stop4095" style="stop-color:#ff00ff" offset="1"/>
    </linearGradient>
    <filter id="filter5057" height="1.6344" width="1.7163" color-interpolation-filters="sRGB" y="-.31722" x="-.35816">
      <feGaussianBlur id="feGaussianBlur5059" stdDeviation="15.526604"/>
    </filter>
    <filter id="filter5061" height="1.598" width="3.4704" color-interpolation-filters="sRGB" y="-.29899" x="-1.2352">
      <feGaussianBlur id="feGaussianBlur5063" stdDeviation="15.526604"/>
    </filter>
    <filter id="filter5065" height="1.5758" width="3.7707" color-interpolation-filters="sRGB" y="-.28792" x="-1.3854">
      <feGaussianBlur id="feGaussianBlur5067" stdDeviation="15.526604"/>
    </filter>
    <filter id="filter5069" height="1.4257" width="1.3203" color-interpolation-filters="sRGB" y="-.21283" x="-.16016">
      <feGaussianBlur id="feGaussianBlur5071" stdDeviation="15.526604"/>
    </filter>
    <filter id="filter5073" height="1.3082" width="1.4622" color-interpolation-filters="sRGB" y="-.15408" x="-.23112">
      <feGaussianBlur id="feGaussianBlur5075" stdDeviation="15.526604"/>
    </filter>
    <filter id="filter5077" height="1.3024" width="2.3427" color-interpolation-filters="sRGB" y="-.15120" x="-.67135">
      <feGaussianBlur id="feGaussianBlur5079" stdDeviation="15.526604"/>
    </filter>
    <filter id="filter5081" height="1.3479" width="3.6964" color-interpolation-filters="sRGB" y="-.17396" x="-1.3482">
      <feGaussianBlur id="feGaussianBlur5083" stdDeviation="15.526604"/>
    </filter>
    <filter id="filter5085" height="1.3762" width="3.8753" color-interpolation-filters="sRGB" y="-.18812" x="-1.4377">
      <feGaussianBlur id="feGaussianBlur5087" stdDeviation="15.526604"/>
    </filter>
    <filter id="filter5089" height="1.2157" width="1.4829" color-interpolation-filters="sRGB" y="-.10786" x="-.24147">
      <feGaussianBlur id="feGaussianBlur5091" stdDeviation="15.526604"/>
    </filter>
    <filter id="filter5093" height="1.2489" width="1.4758" color-interpolation-filters="sRGB" y="-.12445" x="-.23792">
      <feGaussianBlur id="feGaussianBlur5095" stdDeviation="15.526604"/>
    </filter>
    <filter id="filter5097" height="1.3207" width="1.1882" color-interpolation-filters="sRGB" y="-.16034" x="-.094114">
      <feGaussianBlur id="feGaussianBlur5099" stdDeviation="15.526604"/>
    </filter>
    <filter id="filter5101" height="1.5769" width="1.1615" color-interpolation-filters="sRGB" y="-.28844" x="-.080764">
      <feGaussianBlur id="feGaussianBlur5103" stdDeviation="15.526604"/>
    </filter>
    <filter id="filter5607" height="1.1542" width="1.5505" color-interpolation-filters="sRGB" y="-.077084" x="-.27523">
      <feGaussianBlur id="feGaussianBlur5609" stdDeviation="6.4361233"/>
    </filter>
    <filter id="filter5611" height="1.1677" width="1.637" color-interpolation-filters="sRGB" y="-.083829" x="-.31852">
      <feGaussianBlur id="feGaussianBlur5613" stdDeviation="6.4361233"/>
    </filter>
    <filter id="filter5615" height="1.1524" width="1.3439" color-interpolation-filters="sRGB" y="-.076208" x="-.17196">
      <feGaussianBlur id="feGaussianBlur5617" stdDeviation="6.4361233"/>
    </filter>
    <filter id="filter5619" height="1.1616" width="1.2794" color-interpolation-filters="sRGB" y="-.080799" x="-.13971">
      <feGaussianBlur id="feGaussianBlur5621" stdDeviation="6.4361233"/>
    </filter>
    <filter id="filter5623" color-interpolation-filters="sRGB">
      <feGaussianBlur id="feGaussianBlur5625" stdDeviation="6.4361233"/>
    </filter>
    <linearGradient id="linearGradient5665" y2="619.75" gradientUnits="userSpaceOnUse" x2="-480.89" y1="564.42" x1="-538.9" gradientTransform="matrix(0, 0, 0, 0, 653.561279, 937.393738)">
      <stop id="stop5661" style="stop-color:#8361d6" offset="0"/>
      <stop id="stop5663" style="stop-color:#eeeeee" offset="1"/>
    </linearGradient>
    <filter id="filter5945" height="1.338" width="1.1156" color-interpolation-filters="sRGB" y="-.16902" x="-.057784">
      <feGaussianBlur id="feGaussianBlur5947" stdDeviation="6.4883828"/>
    </filter>
  </defs>
  <path d="M 223.018 756.348 C 218.577 758.667 221.796 762.012 219.846 763.962 C 213.582 770.226 214.135 783.972 214.135 792.513 C 214.135 797.478 204.056 825.578 207.156 828.678 C 210.681 832.203 218.4 834.212 221.749 837.561 C 225.973 841.785 224.573 850.536 227.459 853.423 C 228.051 854.014 239.196 854.217 247.763 847.713 C 248.825 846.907 269.245 844.451 269.969 845.175 C 270.937 846.143 283.933 827.415 289.003 832.485 C 289.792 833.274 288.369 826.386 288.369 822.968 C 288.369 817.445 288.003 810.547 285.196 807.741 C 278.618 801.162 280.774 783.65 274.41 777.286 C 272.668 775.544 276.314 769.038 276.314 769.038 C 276.314 769.038 269.335 762.816 264.894 755.714" style="stroke: rgb(0, 0, 0); fill: rgb(216, 216, 216);"/>
  <g transform="matrix(0.238546, 0.039659, 0.067833, -0.408016, 539.65271, 906.635193)" style="">
    <title id="title6662">morning glory</title>
    <g id="layer1" transform="matrix(0.959607, 0.145529, -0.521614, 1.175663, -1254.182373, -334.186127)" style="">
      <path id="path4031" style="stroke:#000000;stroke-width:.47851px;fill:url(#linearGradient4053)" d="M 169.1 417.04 L 153.519 404.566 C 153.519 404.566 124.559 345.616 104.828 322.238 C 89.823 304.46 72.209 289.5 53.215 279.827 C 36.946 271.541 7.47 288.482 1.602 267.353 C -2.952 250.951 16.558 237.038 27.895 227.437 C 35.261 221.199 44.428 218.581 53.214 217.458 C 62.953 216.214 72.644 221.451 82.429 221.2 C 103.404 220.662 124.033 214.18 144.754 209.974 C 155.823 207.727 166.74 204.233 177.864 202.49 C 187.23 201.022 196.894 197.368 206.105 199.995 C 209.367 200.925 213.398 202.388 214.869 206.232 C 227.16 238.333 210.533 278.133 202.209 312.262 C 197.794 330.367 188.284 345.821 182.733 363.405 C 177.23 380.837 169.1 417.043 169.1 417.043 L 169.1 417.04 Z"/>
      <path id="path4033" style="stroke-width: 0.47851px; fill: url(#linearGradient4067); stroke: rgb(37, 245, 10);" d="M 171.04 414.54 C 164.71 390.91 182.079 366.52 189.543 343.439 C 194.821 327.118 203.261 312.606 208.046 296.038 C 213.154 278.351 217.655 259.958 218.758 241.153 C 219.271 232.406 218.698 223.389 216.81 214.958 C 215.61 209.596 208.22 204.318 210.967 199.989 C 222.193 182.304 245.481 211.141 262.58 217.453 C 278.266 223.243 293.362 231.781 309.323 236.164 C 317.315 238.358 325.5 239.53 333.669 239.906 C 340.49 240.22 343.408 236.164 354.119 238.659 C 364.831 241.154 366.779 247.391 366.779 252.38 C 366.779 257.369 357.893 262.679 353.146 267.349 C 342.22 278.096 331.543 289.818 319.062 297.286 C 311.427 301.855 301.959 300.499 294.716 306.018 C 281.498 316.091 273.003 333.943 262.58 348.429 C 260.242 351.679 253.258 355.369 255.764 358.408 C 269.598 375.188 281.049 321.248 296.665 307.265 C 310.826 294.585 328.609 289.995 343.409 278.575 C 352.751 271.365 358.985 256.222 369.702 253.627 C 381.927 250.667 394.175 260.205 405.733 266.101 C 410.185 268.372 414.547 271.168 418.393 274.832 C 421.707 277.992 423.708 283.146 427.157 286.058 C 430.076 288.524 436.821 286.571 436.895 291.048 C 437.347 318.399 397.936 313.484 378.466 324.728 C 358.334 336.353 338.429 348.642 318.089 359.655 C 295.269 372.011 270.225 378.327 248.948 394.582 C 242.023 399.872 236.543 407.782 230.445 414.54 C 224.533 421.092 212.916 434.498 212.916 434.498 L 210.969 443.23 L 198.309 440.735 L 192.466 427.014 C 192.466 427.014 185.786 426.142 182.727 424.519 C 178.402 422.224 172.56 420.212 171.041 414.54 L 171.04 414.54 Z"/>
      <path id="path4035" style="stroke-width: 0.47851px; fill: url(#linearGradient4081); stroke: rgb(37, 245, 10);" d="M 210.97 437 L 243.106 394.589 L 277.19 377.126 L 322.96 355.92 L 352.175 335.962 L 368.73 323.488 L 407.683 313.509 L 431.055 304.777 L 436.898 288.561 L 455.401 317.251 L 457.349 334.714 L 471.956 345.941 L 472.929 363.404 L 479.746 385.857 L 470.008 409.557 L 465.139 422.031 L 446.636 424.526 L 431.055 432.01 L 387.233 415.794 L 349.254 405.815 L 340.489 395.836 L 290.824 412.052 L 253.819 434.505 L 236.29 444.484 L 218.761 445.732 L 210.97 437 Z"/>
      <path id="path4037" style="stroke:#000000;stroke-width:.47851px;fill:none"/>
      <path id="path4039" style="stroke:#000000;stroke-width:.47851px;fill:#452baa" d="M 162.28 418.29 C 162.28 418.29 138.875 433.324 126.249 433.259 C 120.09 433.227 114.73 424.051 108.72 425.775 C 99.086 428.537 97.167 451.76 87.296 451.97 C 75.113 452.229 63.809 435.623 60.029 420.785 C 58.587 415.125 60.585 408.446 62.951 403.322 C 66.23 396.217 75.855 395.065 77.558 387.106 C 78.1 384.569 77.138 381.377 75.61 379.621 C 66.461 369.113 50.638 376.502 39.579 369.642 C 26.708 361.662 14.467 349.892 6.466 334.712 C 2.847 327.842 -1.008 319.032 0.623 311.012 C 2.534 301.622 13.687 299.672 17.178 291.052 C 18.236 288.443 16.456 284.302 18.152 282.32 C 27.758 271.098 44.612 275.217 57.105 279.826 C 68.528 284.039 76.778 296.939 86.32 306.02 C 97.266 316.439 109.31 325.496 118.456 338.453 C 126.972 350.517 138.906 379.617 138.906 379.617 L 162.28 418.29 Z"/>
      <path id="path4041" style="stroke:#000000;stroke-width:.47851px;fill:url(#linearGradient4097)" d="M 195.678 363.098 C 188.769 362.262 182.092 356.805 175.228 358.107 C 167.616 359.553 159.101 363.674 154.778 371.829 C 151.294 378.401 150.526 388.154 152.83 395.529 C 155.996 405.662 166.226 409.088 172.306 416.735 C 177.558 423.338 181.32 431.814 186.913 437.942 C 190.131 441.463 193.942 444.002 197.625 446.673 C 205.205 452.169 212.634 458.521 220.997 461.642 C 230.084 465.031 239.821 466.593 249.238 465.385 C 254.653 464.688 261.596 464.761 264.819 459.147 C 265.973 457.136 263.333 453.274 264.819 451.662 C 269.339 446.758 276.431 455.03 282.348 455.404 C 292.096 456.02 303.081 459.095 311.563 452.91 C 317.041 448.915 318.62 439.529 322.275 432.951 C 326.718 424.957 331.909 417.621 335.908 409.251 C 338.561 403.701 339.928 397.222 342.725 391.789 C 345.768 385.877 348.86 379.543 353.437 375.573 C 357.687 371.887 365.574 375.099 368.044 369.335 C 371.909 360.319 362.201 339.398 362.201 339.398 L 354.411 333.161 L 324.222 346.882 C 324.222 346.882 298.122 358.064 285.269 364.345 C 275.75 368.998 266.937 376.281 257.028 379.314 C 248.795 381.834 239.229 386.785 231.709 381.809 C 230.027 380.697 230.634 376.104 228.787 375.572 C 225.362 374.586 223.517 383.5 220.023 383.057 C 216.368 382.594 214.741 376.513 212.232 373.077 C 209.875 369.85 208.558 364.926 205.415 363.098 C 202.459 361.38 198.909 363.49 195.677 363.098 L 195.678 363.098 Z" transform="matrix(0.949718, 0.183058, -0.535549, 0.949717, 227.023901, -27.551064)"/>
      <path id="path4107" d="M 169.1 417.04 L 153.519 404.566 C 153.519 404.566 124.559 345.616 104.828 322.238 C 89.823 304.46 72.209 289.5 53.215 279.827 C 36.946 271.541 7.47 288.482 1.602 267.353 C -2.952 250.951 16.558 237.038 27.895 227.437 C 35.261 221.199 44.428 218.581 53.214 217.458 C 62.953 216.214 72.644 221.451 82.429 221.2 C 103.404 220.662 124.033 214.18 144.754 209.974 C 155.823 207.727 166.74 204.233 177.864 202.49 C 187.23 201.022 196.894 197.368 206.105 199.995 C 209.367 200.925 213.398 202.388 214.869 206.232 C 227.16 238.333 210.533 278.133 202.209 312.262 C 197.794 330.367 188.284 345.821 182.733 363.405 C 177.23 380.837 169.1 417.043 169.1 417.043 L 169.1 417.04 Z" style="stroke: rgb(80, 42, 116); stroke-width: 0.47851px; fill: rgb(163, 209, 70);"/>
      <path id="path4109" d="M 171.04 414.54 C 164.71 390.91 182.079 366.52 189.543 343.439 C 194.821 327.118 203.261 312.606 208.046 296.038 C 213.154 278.351 217.655 259.958 218.758 241.153 C 219.271 232.406 218.698 223.389 216.81 214.958 C 215.61 209.596 208.22 204.318 210.967 199.989 C 222.193 182.304 245.481 211.141 262.58 217.453 C 278.266 223.243 293.362 231.781 309.323 236.164 C 317.315 238.358 325.5 239.53 333.669 239.906 C 340.49 240.22 343.408 236.164 354.119 238.659 C 364.831 241.154 366.779 247.391 366.779 252.38 C 366.779 257.369 357.893 262.679 353.146 267.349 C 342.22 278.096 331.543 289.818 319.062 297.286 C 311.427 301.855 301.959 300.499 294.716 306.018 C 281.498 316.091 273.003 333.943 262.58 348.429 C 260.242 351.679 258.79 360.531 255.764 358.408 C 253.412 356.758 274.853 314.193 296.665 307.265 C 313.435 301.938 328.609 289.995 343.409 278.575 C 352.751 271.365 358.985 256.222 369.702 253.627 C 381.927 250.667 394.175 260.205 405.733 266.101 C 410.185 268.372 414.547 271.168 418.393 274.832 C 421.707 277.992 423.708 283.146 427.157 286.058 C 430.076 288.524 436.821 286.571 436.895 291.048 C 437.347 318.399 397.936 313.484 378.466 324.728 C 358.334 336.353 338.429 348.642 318.089 359.655 C 295.269 372.011 270.225 378.327 248.948 394.582 C 242.023 399.872 236.543 407.782 230.445 414.54 C 224.533 421.092 212.916 434.498 212.916 434.498 L 210.969 443.23 L 198.309 440.735 L 192.466 427.014 C 192.466 427.014 185.786 426.142 182.727 424.519 C 178.402 422.224 172.56 420.212 171.041 414.54 L 171.04 414.54 Z" style="stroke-width: 0.47851px; stroke: rgb(213, 255, 0); fill: rgb(154, 194, 59);"/>
      <path id="path4111" d="M 210.97 437 L 243.106 394.589 L 277.19 377.126 L 322.96 355.92 L 352.175 335.962 L 368.73 323.488 L 407.683 313.509 L 431.055 304.777 L 436.898 288.561 C 436.898 288.561 451.486 305.905 455.401 317.251 C 457.257 322.63 454.809 329.816 457.349 334.714 C 460.49 340.774 468.984 339.743 471.956 345.941 C 474.34 350.914 471.93 357.711 472.929 363.404 C 474.304 371.239 480.102 377.84 479.746 385.857 C 479.35 394.77 473.189 401.614 470.008 409.557 C 468.351 413.693 468.122 419.383 465.139 422.031 C 460.041 426.556 452.672 422.701 446.636 424.526 C 441.237 426.158 436.598 431.735 431.055 432.01 C 415.862 432.765 387.233 415.794 387.233 415.794 L 349.254 405.815 L 340.489 395.836 L 290.824 412.052 L 253.819 434.505 L 236.29 444.484 L 218.761 445.732 L 210.97 437 Z" style="stroke-width: 0.47851px; stroke: rgb(37, 245, 10); fill: rgb(92, 179, 79);"/>
      <path id="path4113" style="stroke:#000000;stroke-width:.47851px;fill:none"/>
      <path id="path4115" d="M 277.375 465.373 C 277.375 465.373 167.905 460.492 156.094 464.955 C 130.494 474.627 118.167 470.82 112.157 472.544 C 102.523 475.306 97.167 451.76 87.296 451.97 C 75.113 452.229 63.809 435.623 60.029 420.785 C 58.587 415.125 60.585 408.446 62.951 403.322 C 66.23 396.217 54.473 397.037 51.432 389.487 C 43.406 369.563 46.211 386.499 44.683 384.743 C 35.534 374.235 50.638 376.502 39.579 369.642 C 26.708 361.662 14.467 349.892 6.466 334.712 C 2.847 327.842 -1.008 319.032 0.623 311.012 C 2.534 301.622 13.687 299.672 17.178 291.052 C 18.236 288.443 16.456 284.302 18.152 282.32 C 27.758 271.098 44.612 275.217 57.105 279.826 C 68.528 284.039 76.778 296.939 86.32 306.02 C 97.266 316.439 109.31 325.496 118.456 338.453 C 126.972 350.517 138.906 379.617 138.906 379.617 L 277.375 465.373 Z" style="stroke: rgb(130, 59, 183); stroke-width: 0.47851px; fill: rgb(152, 245, 71);"/>
      <path id="path4117" d="M 195.678 363.098 C 188.769 362.262 182.092 356.805 175.228 358.107 C 167.616 359.553 159.101 363.674 154.778 371.829 C 151.294 378.401 150.526 388.154 152.83 395.529 C 155.996 405.662 166.226 409.088 172.306 416.735 C 177.558 423.338 157.423 486.825 193.787 469.117 C 198.076 467.029 193.942 444.002 197.625 446.673 C 205.205 452.169 212.634 458.521 220.997 461.642 C 230.084 465.031 253.336 457.862 224.019 418.115 C 220.778 413.721 261.596 464.761 264.819 459.147 C 265.973 457.136 263.333 453.274 264.819 451.662 C 269.339 446.758 276.431 455.03 282.348 455.404 C 292.096 456.02 303.081 459.095 311.563 452.91 C 317.041 448.915 332.024 438.51 336.286 432.308 C 345.367 419.091 360.332 409.399 364.331 401.029 C 366.984 395.479 339.928 397.222 342.725 391.789 C 345.768 385.877 348.86 379.543 353.437 375.573 C 357.687 371.887 365.574 375.099 368.044 369.335 C 371.909 360.319 362.201 339.398 362.201 339.398 L 354.411 333.161 L 314.484 346.882 C 314.484 346.882 298.122 358.064 285.269 364.345 C 275.75 368.998 266.937 376.281 257.028 379.314 C 248.795 381.834 239.229 386.785 231.709 381.809 C 230.027 380.697 230.634 376.104 228.787 375.572 C 225.362 374.586 223.517 383.5 220.023 383.057 C 216.368 382.594 214.741 376.513 212.232 373.077 C 209.875 369.85 208.558 364.926 205.415 363.098 C 202.459 361.38 198.909 363.49 195.677 363.098 L 195.678 363.098 Z" style="stroke: rgb(178, 44, 200); stroke-width: 0.47813; fill: rgb(95, 211, 37);" transform="matrix(0.949718, 0.183058, -0.535549, 0.949717, 227.023901, -27.551064)"/>
      <path id="path4937" style="filter: url(#filter5089); stroke-width: 1.298; stroke: rgb(37, 245, 10); fill: rgb(31, 111, 4);" d="M 181.96 476.91 L 301.73 262.7 L 336.28 154.45 L 216.51 499.94 L 181.96 476.91 Z" transform="matrix(.42279 0 0 .54156 98.98 152.52)"/>
      <path id="path4939" style="filter: url(#filter5073); stroke: rgb(94, 42, 113); stroke-width: 1.298; fill: rgb(25, 123, 1);" d="M 135.9 453.88 C 101.1 361.22 60.613 274.26 -4.61 212.03 C 60.086 272.1 110.2 356.45 156.62 446.97 L 135.9 453.88 Z" transform="matrix(.42279 0 0 .54156 98.98 152.52)"/>
      <path id="path4941" style="filter: url(#filter5077); stroke-width: 1.298; fill: rgb(25, 123, 1); stroke: rgb(255, 213, 0);" d="M 87.526 191.3 C 113.445 268.956 146.067 342.59 142.805 437.75 L 119.772 435.447 C 116.952 348.777 108.702 265.727 87.528 191.297 L 87.526 191.3 Z" transform="matrix(.42279 0 0 .54156 98.98 152.52)"/>
      <path id="path4943" style="filter: url(#filter5081); stroke-width: 1.298; stroke: rgb(37, 245, 10); fill: rgb(31, 111, 4);" d="M 172.75 414.72 L 145.11 200.51 L 172.75 414.72 Z" transform="matrix(.42279 0 0 .54156 98.98 152.52)"/>
      <path id="path4945" style="filter: url(#filter5085); stroke-width: 1.298; stroke: rgb(37, 245, 10); fill: rgb(31, 111, 4);" d="M 179.66 389.39 C 204.306 323.362 185.336 257.33 175.053 191.31 C 184.216 259.113 192.711 326.69 165.84 382.48 L 179.66 389.39 Z" transform="matrix(.42279 0 0 .54156 98.98 152.52)"/>
      <path id="path4947" style="filter: url(#filter5069); stroke: rgb(94, 42, 113); stroke-width: 1.298; fill: rgb(51, 147, 27);" d="M 135.693 381.114 C 109.403 336.787 75.378 312.742 37.318 299.268 C 77.51 318.525 87.86 397.397 109.892 443.24 L 135.693 381.114 Z"/>
      <path id="path4949" style="filter: url(#filter5065); stroke-width: 1.298; fill: rgb(25, 123, 1); stroke: rgb(37, 245, 10);" d="M 286.077 333.632 C 286.632 339.721 300.419 385.998 300.419 385.998 C 300.419 385.998 266.836 312.927 272.068 317.797 C 277.298 322.668 286.076 333.629 286.076 333.629 L 286.077 333.632 Z" transform="matrix(0.92722, 0.178723, -0.784818, 0.927218, 296.896689, -25.5055)"/>
      <path id="path4951" style="filter: url(#filter5061); stroke-width: 1.298; fill: rgb(233, 239, 48); stroke: rgb(37, 245, 10);" d="M 230.083 445.74 L 223.268 378.381 C 223.268 378.381 216.451 377.134 217.425 382.123 C 218.398 387.113 230.085 445.74 230.085 445.74 L 230.083 445.74 Z" transform="matrix(0.949718, 0.183059, -0.53555, 0.949717, 231.890367, -20.235266)"/>
      <path id="path4953" style="filter: url(#filter5057); stroke-width: 1.298; fill: rgb(233, 239, 48); stroke: rgb(37, 245, 10);" d="M 288.65 451.35 L 258.458 387.733 C 258.458 387.733 239.956 392.723 245.799 396.465 C 251.642 400.207 288.648 451.352 288.648 451.352 L 288.65 451.35 Z" transform="matrix(0.949719, 0.183057, -0.535545, 0.949718, 238.09164, -27.717262)"/>
      <path id="path4955" style="filter: url(#filter5093); stroke-width: 1.298; stroke: rgb(37, 245, 10); fill: rgb(31, 111, 4);" d="M 398.47 191.3 C 370.71 293.24 341.2 394.82 283.31 490.73 L 195.78 458.48 C 264.12 403.03 354.06 288.63 398.47 191.3 Z" transform="matrix(.42279 0 0 .54156 98.98 152.52)"/>
      <path id="path4957" style="filter: url(#filter5101); stroke-width: 1.298; fill: rgb(75, 27, 147); stroke: rgb(37, 245, 10);" d="M 799.35 352.43 C 661.82 377.19 522.69 408.36 373.03 481.62 L 337.96 470.37 C 497.08 407.09 652.47 360.62 799.35 352.43 Z" transform="matrix(.42279 0 0 .54156 98.98 152.52)"/>
      <path id="path4959" style="filter: url(#filter5097); stroke-width: 1.298; fill: rgb(255, 155, 255); stroke: rgb(37, 245, 10);" d="M 679.36 242.09 L 305.85 474.5 L 283.42 444.74 C 407.08 412.12 566.81 308.05 679.36 242.09 Z" transform="matrix(.42279 0 0 .54156 98.98 152.52)"/>
      <path id="path5597" style="filter:url(#filter5623);stroke:#5d239f;stroke-width:3.6;fill:none" d="M -76.009 163.66 C -76.009 163.66 10.416 228.028 43.761 269.61 C 69.56 301.782 103.647 377.87 103.647 377.87" transform="matrix(.42279 0 0 .54156 98.98 152.52)"/>
      <path id="path5599" style="filter: url(#filter5615); stroke-width: 3.6; fill: rgb(25, 123, 1); stroke: rgb(255, 213, 0);" d="M 39.156 159.05 C 39.156 159.05 92.05 226.076 108.255 265 C 120.93 295.445 128.985 361.739 128.985 361.739" transform="matrix(.42279 0 0 .54156 98.98 152.52)"/>
      <path id="path5601" style="filter: url(#filter5607); stroke-width: 3.6; stroke: rgb(37, 245, 10); fill: rgb(31, 111, 4);" d="M 128.99 149.84 C 128.99 149.84 177.75 218.106 184.269 258.1 C 189.266 288.75 170.449 350.232 170.449 350.232" transform="matrix(.42279 0 0 .54156 98.98 152.52)"/>
      <path id="path5603" style="filter: url(#filter5611); stroke-width: 3.6; fill: rgb(25, 123, 1); stroke: rgb(255, 213, 0);" d="M 94.436 163.66 C 94.436 163.66 127.737 218.363 135.896 248.882 C 144.443 280.854 142.806 347.924 142.806 347.924" transform="matrix(.42279 0 0 .54156 98.98 152.52)"/>
      <path id="path5605" style="filter: url(#filter5619); stroke: rgb(93, 35, 159); stroke-width: 3.6; fill: rgb(25, 123, 1);" d="M 2.303 163.66 L 96.739 308.77 L 112.86 354.84" transform="matrix(.42279 0 0 .54156 98.98 152.52)"/>
      <path id="path5627" style="filter: url(#filter5623); stroke-width: 3.6; stroke: rgb(37, 245, 10); fill: rgb(31, 111, 4);" d="M 105.55 134.99 C 105.55 134.99 102.143 182.688 135.491 224.272 C 161.29 256.444 179.657 352.532 179.657 352.532" transform="matrix(.43362 0 0 .37414 99.027 170.63)"/>
      <path id="path5629" style="filter: url(#filter5615); stroke-width: 3.6; stroke: rgb(37, 245, 10); fill: rgb(31, 111, 4);" d="M 115.17 133.72 C 115.17 133.72 168.064 200.746 184.269 239.67 C 196.944 270.115 202.753 426.43 202.753 426.43" transform="matrix(.43362 0 0 .37414 99.027 170.63)"/>
      <path id="path5631" style="filter: url(#filter5607); stroke-width: 3.6; stroke: rgb(37, 245, 10); fill: rgb(31, 111, 4);" d="M 204.99 124.5 C 204.99 124.5 253.75 192.766 260.269 232.76 C 265.266 263.41 246.449 324.892 246.449 324.892" transform="matrix(.43362 0 0 .37414 99.027 170.63)"/>
      <path id="path5633" style="filter: url(#filter5611); stroke-width: 3.6; stroke: rgb(37, 245, 10); fill: rgb(31, 111, 4);" d="M 170.44 138.32 C 170.44 138.32 203.741 193.023 211.9 223.542 C 220.447 255.514 221.056 382.592 221.056 382.592" transform="matrix(.43362 0 0 .37414 99.027 170.63)"/>
      <path id="path5635" style="filter: url(#filter5619); stroke: rgb(93, 35, 159); stroke-width: 3.6; fill: rgb(25, 123, 1);" d="M 78.312 138.32 L 172.748 283.43 L 186.625 429.52" transform="matrix(.43362 0 0 .37414 99.027 170.63)"/>
      <path id="path5637" style="filter: url(#filter5623); stroke-width: 3.6; fill: none; stroke: rgb(37, 245, 10);" d="M 0 138.32 C 0 138.32 86.425 202.688 119.77 244.27 C 145.569 276.442 179.656 352.53 179.656 352.53" transform="matrix(-.43362 0 0 .37414 334.96 205.56)"/>
      <path id="path5639" style="filter: url(#filter5615); stroke-width: 3.6; fill: none; stroke: rgb(37, 245, 10);" d="M 115.17 133.72 C 115.17 133.72 168.064 200.746 184.269 239.67 C 196.944 270.115 204.999 336.409 204.999 336.409" transform="matrix(-.43362 0 0 .37414 334.96 205.56)"/>
      <path id="path5641" style="filter: url(#filter5607); stroke-width: 3.6; stroke: rgb(37, 245, 10); fill: rgb(31, 111, 4);" d="M 204.99 124.5 C 204.99 124.5 253.75 192.766 260.269 232.76 C 265.266 263.41 246.449 324.892 246.449 324.892" transform="matrix(-.43362 0 0 .37414 334.96 205.56)"/>
      <path id="path5643" style="filter: url(#filter5611); stroke-width: 3.6; stroke: rgb(37, 245, 10); fill: rgb(31, 111, 4);" d="M 240.251 327.459 C 240.251 327.459 254.691 306.993 258.229 295.574 C 261.935 283.612 261.225 258.519 261.225 258.519" transform="matrix(-1, 0, 0, -1, 501.5305, 585.978038)"/>
      <path id="path5645" style="filter: url(#filter5619); stroke-width: 3.6; fill: none; stroke: rgb(37, 245, 10);" d="M 78.312 138.32 L 172.748 283.43 L 188.871 329.496" transform="matrix(-.43362 0 0 .37414 334.96 205.56)"/>
      <path id="path5647" style="filter: url(#filter5623); stroke-width: 3.6; fill: none; stroke: rgb(37, 245, 10);" d="M 0 138.32 C 0 138.32 86.425 202.688 119.77 244.27 C 145.569 276.442 179.656 352.53 179.656 352.53" transform="matrix(-.41885 -.14376 -.075597 .36139 413.38 277.26)"/>
      <path id="path5649" style="filter: url(#filter5615); stroke-width: 3.6; fill: none; stroke: rgb(37, 245, 10);" d="M 115.17 133.72 C 115.17 133.72 168.064 200.746 184.269 239.67 C 196.944 270.115 204.999 336.409 204.999 336.409" transform="matrix(-.41885 -.14376 -.075597 .36139 413.38 277.26)"/>
      <path id="path5651" style="filter: url(#filter5607); stroke-width: 3.6; fill: none; stroke: rgb(37, 245, 10);" d="M 204.99 124.5 C 204.99 124.5 253.75 192.766 260.269 232.76 C 265.266 263.41 246.449 324.892 246.449 324.892" transform="matrix(-.41885 -.14376 -.075597 .36139 413.38 277.26)"/>
      <path id="path5653" style="filter: url(#filter5611); stroke-width: 3.6; fill: none; stroke: rgb(37, 245, 10);" d="M 170.44 138.32 C 170.44 138.32 203.741 193.023 211.9 223.542 C 220.447 255.514 218.81 322.584 218.81 322.584" transform="matrix(-.41885 -.14376 -.075597 .36139 413.38 277.26)"/>
      <path id="path5655" style="filter: url(#filter5619); stroke-width: 3.6; fill: none; stroke: rgb(37, 245, 10);" d="M 78.312 138.32 L 172.748 283.43 L 188.871 329.496" transform="matrix(-.41885 -.14376 -.075597 .36139 413.38 277.26)"/>
      <path id="path5657" style="opacity:.45366;stroke:#500f9b;stroke-linecap:round;stroke-width:5.2;fill:url(#linearGradient5665)" d="M -442.23 585.17 C -442.23 606.795 -468.526 624.326 -500.964 624.326 C -533.402 624.326 -559.698 606.795 -559.698 585.17 C -559.698 563.545 -533.402 546.014 -500.964 546.014 C -468.526 546.014 -442.23 563.545 -442.23 585.17 Z" transform="matrix(.15338 0 0 .16728 121.77 151.38)"/>
      <path id="path5667" style="opacity: 0.45366; stroke: rgb(80, 15, 155); stroke-linecap: round; stroke-width: 5.2; fill: rgb(25, 123, 1);" d="M -442.23 585.17 C -442.23 606.795 -468.526 624.326 -500.964 624.326 C -533.402 624.326 -559.698 606.795 -559.698 585.17 C -559.698 563.545 -533.402 546.014 -500.964 546.014 C -468.526 546.014 -442.23 563.545 -442.23 585.17 Z" transform="matrix(.15338 0 0 .16728 152.94 123.94)"/>
      <path id="path5671" style="opacity: 0.45366; stroke: rgb(80, 15, 155); stroke-linecap: round; stroke-width: 5.2; fill: rgb(25, 123, 1);" d="M -442.23 585.17 C -442.23 606.795 -468.526 624.326 -500.964 624.326 C -533.402 624.326 -559.698 606.795 -559.698 585.17 C -559.698 563.545 -533.402 546.014 -500.964 546.014 C -468.526 546.014 -442.23 563.545 -442.23 585.17 Z" transform="matrix(.15338 0 0 .16728 184.1 123.94)"/>
      <path id="path5675" style="opacity: 0.20976; stroke-linecap: round; stroke-width: 5.2; stroke: rgb(37, 245, 10); fill: rgb(31, 111, 4);" d="M 210.641 372.87 C 210.641 376.486 206.607 379.419 201.632 379.419 C 196.657 379.419 192.623 376.486 192.623 372.87 C 192.623 369.251 196.657 366.319 201.632 366.319 C 206.607 366.319 210.641 369.251 210.641 372.87 Z" transform="matrix(0.949718, 0.183058, -0.535549, 0.949717, 209.828086, -18.161381)"/>
      <path id="path5679" style="opacity: 0.20976; stroke-linecap: round; stroke-width: 5.2; stroke: rgb(37, 245, 10); fill: rgb(31, 111, 4);" d="M 223.72 390.792 C 223.72 394.675 217.339 397.822 209.467 397.823 C 201.595 397.823 195.214 394.675 195.214 390.792 C 195.214 386.909 201.595 383.761 209.467 383.761 C 217.339 383.761 223.72 386.909 223.72 390.792 Z" transform="matrix(0.949717, 0.18306, -0.535553, 0.949716, 219.822358, -18.694387)"/>
      <path id="path5683" style="opacity: 0.20976; stroke-linecap: round; stroke-width: 5.2; stroke: rgb(37, 245, 10); fill: rgb(31, 111, 4);" d="M 270.84 402.01 C 270.84 404.915 264.86 407.27 257.483 407.27 C 250.106 407.27 244.125 404.915 244.125 402.011 C 244.125 399.106 250.106 396.751 257.483 396.751 C 264.86 396.751 270.84 399.106 270.84 402.01 Z" transform="matrix(0.949718, 0.183059, -0.535552, 0.949716, 228.244206, -26.919958)"/>
      <path id="path5687" style="opacity: 0.20976; stroke-linecap: round; stroke-width: 5.2; fill: rgb(233, 239, 48); stroke: rgb(37, 245, 10);" d="M 320.785 388 C 320.785 390.905 314.805 393.26 307.428 393.26 C 300.051 393.26 294.07 390.905 294.07 388.001 C 294.07 385.096 300.051 382.741 307.428 382.741 C 314.805 382.741 320.785 385.096 320.785 388 Z" transform="matrix(0.949717, 0.18306, -0.535553, 0.949716, 223.253066, -36.767381)"/>
      <path id="path5689" style="opacity: 0.30732; stroke-linecap: round; stroke-width: 5.2; fill: url(#linearGradient5665); stroke: rgb(37, 245, 10);" d="M -442.23 585.17 C -442.23 606.795 -468.526 624.326 -500.964 624.326 C -533.402 624.326 -559.698 606.795 -559.698 585.17 C -559.698 563.545 -533.402 546.014 -500.964 546.014 C -468.526 546.014 -442.23 563.545 -442.23 585.17 Z" transform="matrix(-.076691 0 0 .083639 232.44 197.2)"/>
      <path id="path5691" style="opacity: 0.30732; stroke-linecap: round; stroke-width: 5.2; stroke: rgb(37, 245, 10); fill: rgb(31, 111, 4);" d="M -442.23 585.17 C -442.23 606.795 -468.526 624.326 -500.964 624.326 C -533.402 624.326 -559.698 606.795 -559.698 585.17 C -559.698 563.545 -533.402 546.014 -500.964 546.014 C -468.526 546.014 -442.23 563.545 -442.23 585.17 Z" transform="matrix(-.076691 0 0 .083639 216.86 183.48)"/>
      <path id="path5693" style="opacity: 0.30732; stroke-linecap: round; stroke-width: 5.2; stroke: rgb(37, 245, 10); fill: rgb(31, 111, 4);" d="M -442.23 585.17 C -442.23 606.795 -468.526 624.326 -500.964 624.326 C -533.402 624.326 -559.698 606.795 -559.698 585.17 C -559.698 563.545 -533.402 546.014 -500.964 546.014 C -468.526 546.014 -442.23 563.545 -442.23 585.17 Z" transform="matrix(-.076691 0 0 .083639 201.28 183.48)"/>
      <path id="path5701" style="opacity: 0.30732; stroke-linecap: round; stroke-width: 5.2; fill: rgb(25, 123, 1); stroke: rgb(255, 213, 0);" d="M -442.23 585.17 C -442.23 606.795 -468.526 624.326 -500.964 624.326 C -533.402 624.326 -559.698 606.795 -559.698 585.17 C -559.698 563.545 -533.402 546.014 -500.964 546.014 C -468.526 546.014 -442.23 563.545 -442.23 585.17 Z" transform="matrix(-.076691 0 0 .083639 71.76 209.68)"/>
      <path id="path5703" style="opacity: 0.30732; stroke: rgb(80, 15, 155); stroke-linecap: round; stroke-width: 5.2; fill: rgb(25, 123, 1);" d="M -442.23 585.17 C -442.23 606.795 -468.526 624.326 -500.964 624.326 C -533.402 624.326 -559.698 606.795 -559.698 585.17 C -559.698 563.545 -533.402 546.014 -500.964 546.014 C -468.526 546.014 -442.23 563.545 -442.23 585.17 Z" transform="matrix(-.076691 0 0 .083639 56.178 195.96)"/>
      <path id="path5705" style="opacity: 0.30732; stroke: rgb(80, 15, 155); stroke-linecap: round; stroke-width: 5.2; fill: rgb(25, 123, 1);" d="M -442.23 585.17 C -442.23 606.795 -468.526 624.326 -500.964 624.326 C -533.402 624.326 -559.698 606.795 -559.698 585.17 C -559.698 563.545 -533.402 546.014 -500.964 546.014 C -468.526 546.014 -442.23 563.545 -442.23 585.17 Z" transform="matrix(-.076691 0 0 .083639 40.597 195.96)"/>
      <path id="path5713" style="opacity:.45366;stroke:#500f9b;stroke-linecap:round;stroke-width:5.2;fill:url(#linearGradient5665)" d="M -442.23 585.17 C -442.23 606.795 -468.526 624.326 -500.964 624.326 C -533.402 624.326 -559.698 606.795 -559.698 585.17 C -559.698 563.545 -533.402 546.014 -500.964 546.014 C -468.526 546.014 -442.23 563.545 -442.23 585.17 Z" transform="matrix(.15586 0 0 .13683 157.22 323.87)"/>
      <path id="path5715" style="opacity: 0.45366; stroke: rgb(80, 15, 155); stroke-linecap: round; stroke-width: 5.2; fill: rgb(25, 123, 1);" d="M -442.23 585.17 C -442.23 606.795 -468.526 624.326 -500.964 624.326 C -533.402 624.326 -559.698 606.795 -559.698 585.17 C -559.698 563.545 -533.402 546.014 -500.964 546.014 C -468.526 546.014 -442.23 563.545 -442.23 585.17 Z" transform="matrix(.15586 0 0 .13683 188.89 301.42)"/>
      <path id="path5717" style="opacity: 0.30732; stroke-linecap: round; stroke-width: 5.2; stroke: rgb(37, 245, 10); fill: rgb(31, 111, 4);" d="M 189.173 321.158 C 189.173 319.678 187.124 318.478 184.596 318.478 C 182.068 318.479 180.019 319.678 180.019 321.157 C 180.019 322.637 182.068 323.836 184.596 323.836 C 187.124 323.836 189.173 322.637 189.173 321.158 Z" transform="matrix(-0.949716, -0.183063, 0.535562, -0.949714, 187.910093, 659.956954)"/>
      <path id="path5719" style="opacity: 0.30732; stroke-linecap: round; stroke-width: 5.2; stroke: rgb(37, 245, 10); fill: rgb(31, 111, 4);" d="M 174.136 318.26 C 174.136 316.781 172.087 315.582 169.559 315.582 C 167.031 315.582 164.982 316.781 164.982 318.26 C 164.982 319.74 167.031 320.939 169.559 320.939 C 172.087 320.939 174.136 319.74 174.136 318.26 Z" transform="matrix(-0.949718, -0.183059, 0.535551, -0.949716, 160.147481, 651.557055)"/>
      <path id="path5729" style="opacity: 0.45366; stroke-linecap: round; stroke-width: 5.2; stroke: rgb(37, 245, 10); fill: rgb(31, 111, 4);" d="M 245.684 355.505 C 245.684 356.693 243.597 357.657 241.023 357.657 C 238.449 357.657 236.362 356.693 236.362 355.505 C 236.362 354.317 238.449 353.353 241.023 353.353 C 243.597 353.353 245.684 354.317 245.684 355.505 Z" transform="matrix(0.949721, 0.183053, -0.535535, 0.94972, 202.50377, -26.245138)"/>
      <path id="path5731" style="opacity: 0.45366; stroke-linecap: round; stroke-width: 5.2; fill: url(#linearGradient5665); stroke: rgb(37, 245, 10);" d="M 286.348 336.435 C 286.348 337.915 284.299 339.114 281.771 339.114 C 279.243 339.114 277.194 337.915 277.194 336.435 C 277.194 334.956 279.243 333.757 281.771 333.757 C 284.299 333.757 286.348 334.956 286.348 336.435 Z" transform="matrix(0.949718, 0.183059, -0.535552, 0.949716, 194.346867, -34.663551)"/>
      <path id="path5733" style="opacity: 0.30732; stroke-linecap: round; stroke-width: 5.2; fill: url(#linearGradient5665); stroke: rgb(37, 245, 10);" d="M 287.937 347.115 C 287.937 346.374 286.912 345.775 285.648 345.775 C 284.384 345.775 283.36 346.374 283.36 347.115 C 283.36 347.854 284.384 348.454 285.648 348.454 C 286.912 348.454 287.937 347.854 287.937 347.115 Z" transform="matrix(-0.949723, -0.183049, 0.535523, -0.949722, 371.047927, 729.06448)"/>
      <path id="path5735" style="opacity: 0.30732; stroke-linecap: round; stroke-width: 5.2; stroke: rgb(37, 245, 10); fill: rgb(31, 111, 4);" d="M 280.415 345.665 C 280.415 344.925 279.39 344.326 278.126 344.326 C 276.863 344.326 275.838 344.925 275.838 345.665 C 275.838 346.405 276.862 347.005 278.126 347.005 C 279.39 347.005 280.415 346.405 280.415 345.665 Z" transform="matrix(-0.949723, -0.183049, 0.535521, -0.949722, 357.158519, 724.862307)"/>
      <path id="path5745" style="opacity: 0.45366; stroke-linecap: round; stroke-width: 5.2; stroke: rgb(37, 245, 10); fill: rgb(31, 111, 4);" d="M 246.366 342.117 C 246.366 343.041 242.453 343.79 237.627 343.79 C 232.8 343.79 228.887 343.041 228.887 342.117 C 228.887 341.193 232.8 340.444 237.627 340.444 C 242.453 340.444 246.366 341.193 246.366 342.117 Z" transform="matrix(0.949718, 0.183058, -0.535547, 0.949717, 195.168121, -26.296753)"/>
      <path id="path5747" style="opacity: 0.45366; stroke-linecap: round; stroke-width: 5.2; stroke: rgb(37, 245, 10); fill: rgb(31, 111, 4);" d="M 280.984 333.532 C 280.984 334.456 277.071 335.205 272.245 335.205 C 267.418 335.205 263.505 334.456 263.505 333.532 C 263.505 332.608 267.418 331.859 272.245 331.859 C 277.071 331.859 280.984 332.608 280.984 333.532 Z" transform="matrix(0.949718, 0.183059, -0.535552, 0.949716, 192.312709, -33.06563)"/>
      <path id="path5749" style="opacity: 0.30732; stroke-linecap: round; stroke-width: 5.2; fill: url(#linearGradient5665); stroke: rgb(37, 245, 10);" d="M 290.504 342.41 C 290.504 341.948 288.548 341.573 286.134 341.573 C 283.721 341.573 281.764 341.948 281.764 342.409 C 281.764 342.871 283.721 343.246 286.134 343.246 C 288.548 343.246 290.504 342.872 290.504 342.41 Z" transform="matrix(-0.949721, -0.183053, 0.535533, -0.94972, 374.509846, 719.980276)"/>
      <path id="path5751" style="opacity: 0.30732; stroke-linecap: round; stroke-width: 5.2; fill: rgb(233, 239, 48); stroke: rgb(37, 245, 10);" d="M 314.43 421.537 C 314.431 427.609 309.332 432.532 303.042 432.532 C 296.752 432.532 291.654 427.609 291.653 421.537 C 291.653 415.464 296.752 410.542 303.042 410.542 C 309.332 410.542 314.43 415.464 314.43 421.537 Z" transform="matrix(-0.949716, -0.183062, 0.53556, -0.949715, 365.086501, 877.352223)"/>
      <path id="path5761" style="opacity: 0.45366; stroke-linecap: round; stroke-width: 5.2; stroke: rgb(37, 245, 10); fill: rgb(31, 111, 4);" d="M 255.47 334.994 C 255.47 335.456 253.513 335.831 251.1 335.831 C 248.686 335.831 246.73 335.456 246.73 334.995 C 246.73 334.533 248.686 334.158 251.1 334.158 C 253.513 334.158 255.47 334.532 255.47 334.994 Z" transform="matrix(0.949715, 0.183065, -0.535567, 0.949713, 192.038842, -29.121735)"/>
      <path id="path5763" style="opacity: 0.45366; stroke-linecap: round; stroke-width: 5.2; stroke: rgb(37, 245, 10); fill: rgb(31, 111, 4);" d="M 267.71 337.807 C 267.71 340.27 266.23 342.267 264.406 342.267 C 262.581 342.268 261.102 340.271 261.102 337.807 C 261.102 335.344 262.581 333.347 264.406 333.347 C 266.23 333.347 267.709 335.344 267.71 337.807 Z" transform="matrix(0.949712, 0.183069, -0.535581, 0.949711, 194.219361, -31.416514)"/>
      <path id="path5765" style="opacity: 0.30732; stroke-linecap: round; stroke-width: 5.2; stroke: rgb(37, 245, 10); fill: rgb(31, 111, 4);" d="M 278.596 359.857 C 278.596 362.446 276.982 364.546 274.991 364.546 C 273.001 364.546 271.387 362.446 271.387 359.856 C 271.387 357.267 273.001 355.167 274.991 355.167 C 276.982 355.167 278.596 357.267 278.596 359.857 Z" transform="matrix(-0.949721, -0.183054, 0.535535, -0.949719, 343.4409, 751.957468)"/>
      <path id="path5767" style="opacity: 0.30732; stroke-linecap: round; stroke-width: 5.2; stroke: rgb(37, 245, 10); fill: rgb(31, 111, 4);" d="M 258.18 335.347 C 258.18 335.116 257.202 334.929 255.995 334.929 C 254.789 334.929 253.81 335.116 253.81 335.347 C 253.81 335.578 254.789 335.766 255.995 335.766 C 257.202 335.766 258.18 335.578 258.18 335.347 Z" transform="matrix(-0.94972, -0.183055, 0.535538, -0.949719, 319.527257, 700.69446)"/>
      <path id="path5777" style="opacity: 0.45366; stroke-linecap: round; stroke-width: 5.2; fill: url(#linearGradient5665); stroke: rgb(37, 245, 10);" d="M -442.23 585.17 C -442.23 606.795 -468.526 624.326 -500.964 624.326 C -533.402 624.326 -559.698 606.795 -559.698 585.17 C -559.698 563.545 -533.402 546.014 -500.964 546.014 C -468.526 546.014 -442.23 563.545 -442.23 585.17 Z" transform="matrix(.074401 0 0 .021363 421.5 370.12)"/>
      <path id="path5779" style="opacity: 0.45366; stroke-linecap: round; stroke-width: 5.2; fill: url(#linearGradient5665); stroke: rgb(37, 245, 10);" d="M -442.23 585.17 C -442.23 606.795 -468.526 624.326 -500.964 624.326 C -533.402 624.326 -559.698 606.795 -559.698 585.17 C -559.698 563.545 -533.402 546.014 -500.964 546.014 C -468.526 546.014 -442.23 563.545 -442.23 585.17 Z" transform="matrix(.074401 0 0 .021363 436.62 366.61)"/>
      <path id="path5781" style="opacity: 0.30732; stroke-linecap: round; stroke-width: 5.2; fill: url(#linearGradient5665); stroke: rgb(37, 245, 10);" d="M -442.23 585.17 C -442.23 606.795 -468.526 624.326 -500.964 624.326 C -533.402 624.326 -559.698 606.795 -559.698 585.17 C -559.698 563.545 -533.402 546.014 -500.964 546.014 C -468.526 546.014 -442.23 563.545 -442.23 585.17 Z" transform="matrix(-.037201 0 0 .010682 389.68 375.81)"/>
      <path id="path5783" style="opacity: 0.30732; stroke-linecap: round; stroke-width: 5.2; fill: url(#linearGradient5665); stroke: rgb(37, 245, 10);" d="M -442.23 585.17 C -442.23 606.795 -468.526 624.326 -500.964 624.326 C -533.402 624.326 -559.698 606.795 -559.698 585.17 C -559.698 563.545 -533.402 546.014 -500.964 546.014 C -468.526 546.014 -442.23 563.545 -442.23 585.17 Z" transform="matrix(-.037201 0 0 .010682 382.12 375.81)"/>
      <path id="path5793" style="opacity: 0.45366; stroke-linecap: round; stroke-width: 5.2; fill: url(#linearGradient5665); stroke: rgb(37, 245, 10);" d="M 390.806 380.905 C 390.806 383.718 386.893 385.997 382.067 385.997 C 377.24 385.997 373.327 383.718 373.327 380.905 C 373.327 378.093 377.24 375.814 382.067 375.814 C 386.893 375.814 390.806 378.093 390.806 380.905 Z" transform="matrix(1, 0, 0.000001, 1, -0.000548, 0.000125)"/>
      <path id="path5795" style="opacity: 0.45366; stroke-linecap: round; stroke-width: 5.2; fill: url(#linearGradient5665); stroke: rgb(37, 245, 10);" d="M -442.23 585.17 C -442.23 606.795 -468.526 624.326 -500.964 624.326 C -533.402 624.326 -559.698 606.795 -559.698 585.17 C -559.698 563.545 -533.402 546.014 -500.964 546.014 C -468.526 546.014 -442.23 563.545 -442.23 585.17 Z" transform="matrix(.14880 0 0 .13004 486.84 283.48)"/>
      <path id="path5797" style="opacity: 0.30732; stroke-linecap: round; stroke-width: 5.2; fill: url(#linearGradient5665); stroke: rgb(37, 245, 10);" d="M -442.23 585.17 C -442.23 606.795 -468.526 624.326 -500.964 624.326 C -533.402 624.326 -559.698 606.795 -559.698 585.17 C -559.698 563.545 -533.402 546.014 -500.964 546.014 C -468.526 546.014 -442.23 563.545 -442.23 585.17 Z" transform="matrix(-.074401 0 0 .065018 392.97 339.47)"/>
      <path id="path5799" style="opacity: 0.30732; stroke-linecap: round; stroke-width: 5.2; fill: url(#linearGradient5665); stroke: rgb(37, 245, 10);" d="M -442.23 585.17 C -442.23 606.795 -468.526 624.326 -500.964 624.326 C -533.402 624.326 -559.698 606.795 -559.698 585.17 C -559.698 563.545 -533.402 546.014 -500.964 546.014 C -468.526 546.014 -442.23 563.545 -442.23 585.17 Z" transform="matrix(-.074401 0 0 .065018 377.85 339.47)"/>
      <path id="path5809" style="opacity: 0.20976; stroke-linecap: round; stroke-width: 5.2; stroke: rgb(37, 245, 10); fill: rgb(31, 111, 4);" d="M 275.991 419.366 C 275.992 422.174 273.556 424.449 270.551 424.449 C 267.547 424.449 265.111 422.174 265.111 419.366 C 265.111 416.559 267.546 414.284 270.551 414.284 C 273.556 414.284 275.991 416.559 275.991 419.366 Z" transform="matrix(0.949718, 0.183059, -0.535552, 0.949716, 238.196374, -28.43955)"/>
      <path id="path5811" style="opacity: 0.45366; stroke-linecap: round; stroke-width: 5.2; stroke: rgb(37, 245, 10); fill: rgb(31, 111, 4);" d="M 239.602 377.676 C 239.602 379.972 237.127 381.833 234.074 381.833 C 231.02 381.833 228.545 379.972 228.545 377.676 C 228.545 375.38 231.02 373.518 234.074 373.518 C 237.127 373.518 239.602 375.38 239.602 377.676 Z" transform="matrix(0.94972, 0.183056, -0.535541, 0.949718, 214.029995, -23.858326)"/>
      <path id="path5813" style="opacity: 0.45366; stroke-linecap: round; stroke-width: 5.2; fill: rgb(233, 239, 48); stroke: rgb(37, 245, 10);" d="M 303.22 386.043 C 303.22 388.339 300.745 390.2 297.692 390.2 C 294.638 390.2 292.163 388.339 292.163 386.043 C 292.163 383.747 294.638 381.885 297.692 381.885 C 300.745 381.885 303.22 383.747 303.22 386.043 Z" transform="matrix(0.949719, 0.183056, -0.535542, 0.949718, 221.710177, -35.083261)"/>
      <path id="path5815" style="opacity: 0.30732; stroke-linecap: round; stroke-width: 5.2; fill: rgb(233, 239, 48); stroke: rgb(37, 245, 10);" d="M 285.2 437.931 C 285.2 436.783 283.962 435.852 282.436 435.852 C 280.909 435.852 279.672 436.783 279.672 437.931 C 279.671 439.079 280.909 440.01 282.436 440.01 C 283.962 440.01 285.2 439.079 285.2 437.931 Z" transform="matrix(-0.949719, -0.183056, 0.535542, -0.949718, 316.140316, 905.543553)"/>
      <path id="path5817" style="opacity: 0.30732; stroke-linecap: round; stroke-width: 5.2; fill: rgb(233, 239, 48); stroke: rgb(37, 245, 10);" d="M 312.755 389.385 C 312.755 388.237 311.517 387.306 309.991 387.306 C 308.464 387.306 307.227 388.237 307.227 389.385 C 307.227 390.533 308.464 391.464 309.991 391.464 C 311.518 391.464 312.755 390.533 312.755 389.385 Z" transform="matrix(-0.949709, -0.183074, 0.535595, -0.949708, 395.839727, 815.938322)"/>
      <path id="path5829" style="opacity: 0.45366; stroke-linecap: round; stroke-width: 5.2; stroke: rgb(37, 245, 10); fill: rgb(31, 111, 4);" d="M 239.705 416.989 C 239.705 418.797 237.688 420.264 235.201 420.264 C 232.713 420.264 230.696 418.798 230.696 416.989 C 230.696 415.181 232.713 413.714 235.2 413.714 C 237.688 413.714 239.705 415.18 239.705 416.989 Z" transform="matrix(0.949717, 0.183061, -0.535555, 0.949716, 235.147363, -22.087881)"/>
      <path id="path5831" style="opacity: 0.45366; stroke-linecap: round; stroke-width: 5.2; stroke: rgb(37, 245, 10); fill: rgb(31, 111, 4);" d="M 261.85 406.811 C 261.85 408.619 259.833 410.086 257.346 410.086 C 254.858 410.086 252.841 408.619 252.841 406.811 C 252.841 405.002 254.858 403.536 257.346 403.536 C 259.833 403.536 261.85 405.002 261.85 406.811 Z" transform="matrix(0.949718, 0.183058, -0.535549, 0.949717, 230.807061, -26.65347)"/>
      <path id="path5833" style="opacity: 0.45366; stroke-linecap: round; stroke-width: 5.2; stroke: rgb(37, 245, 10); fill: rgb(31, 111, 4);" d="M 276.646 409.662 C 276.646 411.47 274.629 412.938 272.142 412.938 C 269.654 412.938 267.637 411.47 267.637 409.662 C 267.637 407.853 269.654 406.387 272.142 406.387 C 274.629 406.387 276.646 407.853 276.646 409.662 Z" transform="matrix(0.949718, 0.183058, -0.535549, 0.949717, 233.07832, -29.218622)"/>
      <path id="path5835" style="opacity: 0.30732; stroke-linecap: round; stroke-width: 5.2; stroke: rgb(37, 245, 10); fill: rgb(31, 111, 4);" d="M 265.925 427.402 C 265.925 426.498 264.917 425.765 263.673 425.765 C 262.429 425.765 261.421 426.498 261.421 427.402 C 261.421 428.307 262.429 429.04 263.673 429.04 C 264.917 429.04 265.925 428.307 265.925 427.402 Z" transform="matrix(-0.949717, -0.18306, 0.535553, -0.949716, 285.19112, 881.581497)"/>
      <path id="path5837" style="opacity: 0.30732; stroke-linecap: round; stroke-width: 5.2; stroke: rgb(37, 245, 10); fill: rgb(31, 111, 4);" d="M 262.202 419.462 C 262.202 418.558 261.193 417.825 259.95 417.825 C 258.706 417.825 257.697 418.558 257.697 419.462 C 257.697 420.367 258.706 421.1 259.95 421.1 C 261.193 421.1 262.202 420.367 262.202 419.462 Z" transform="matrix(-0.94972, -0.183056, 0.535541, -0.949718, 282.189239, 865.419013)"/>
      <path id="path5839" style="opacity: 0.30732; stroke-linecap: round; stroke-width: 5.2; stroke: rgb(37, 245, 10); fill: rgb(31, 111, 4);" d="M 254.803 418.035 C 254.803 417.131 253.795 416.398 252.551 416.398 C 251.307 416.398 250.299 417.131 250.299 418.035 C 250.299 418.94 251.307 419.673 252.551 419.673 C 253.795 419.673 254.803 418.94 254.803 418.035 Z" transform="matrix(-0.949718, -0.183059, 0.535551, -0.949716, 268.523784, 861.282467)"/>
      <path id="path5853" style="opacity: 0.45366; stroke-linecap: round; stroke-width: 5.2; stroke: rgb(37, 245, 10); fill: rgb(31, 111, 4);" d="M 207.034 407.256 C 207.034 409.253 204.807 410.873 202.06 410.873 C 199.313 410.873 197.086 409.253 197.086 407.256 C 197.086 405.259 199.313 403.639 202.06 403.639 C 204.807 403.639 207.034 405.259 207.034 407.256 Z" transform="matrix(0.949718, 0.183059, -0.535552, 0.949716, 228.266669, -16.510598)"/>
      <path id="path5855" style="opacity: 0.45366; stroke-linecap: round; stroke-width: 5.2; stroke: rgb(37, 245, 10); fill: rgb(31, 111, 4);" d="M 231.492 396.02 C 231.492 398.017 229.265 399.636 226.518 399.636 C 223.771 399.636 221.544 398.017 221.544 396.02 C 221.544 394.023 223.771 392.402 226.518 392.402 C 229.265 392.402 231.492 394.023 231.492 396.02 Z" transform="matrix(0.949718, 0.183058, -0.535548, 0.949717, 223.476968, -21.552899)"/>
      <path id="path5857" style="opacity: 0.45366; stroke-linecap: round; stroke-width: 5.2; stroke: rgb(37, 245, 10); fill: rgb(31, 111, 4);" d="M 247.827 399.167 C 247.827 401.164 245.6 402.783 242.853 402.783 C 240.106 402.783 237.879 401.164 237.879 399.167 C 237.879 397.17 240.106 395.55 242.853 395.55 C 245.6 395.55 247.827 397.17 247.827 399.167 Z" transform="matrix(0.949718, 0.183058, -0.535549, 0.949717, 225.984172, -24.384891)"/>
      <path id="path5859" style="opacity: 0.30732; stroke-linecap: round; stroke-width: 5.2; stroke: rgb(37, 245, 10); fill: rgb(31, 111, 4);" d="M 235.997 418.759 C 235.997 417.76 234.884 416.951 233.51 416.951 C 232.137 416.951 231.023 417.761 231.023 418.759 C 231.023 419.758 232.137 420.567 233.51 420.567 C 234.884 420.567 235.997 419.758 235.997 418.759 Z" transform="matrix(-0.949711, -0.18307, 0.535584, -0.94971, 230.996584, 859.207316)"/>
      <path id="path5861" style="opacity: 0.30732; stroke-linecap: round; stroke-width: 5.2; stroke: rgb(37, 245, 10); fill: rgb(31, 111, 4);" d="M 231.88 409.984 C 231.88 408.986 230.767 408.176 229.393 408.176 C 228.02 408.176 226.906 408.986 226.906 409.984 C 226.906 410.983 228.02 411.793 229.393 411.793 C 230.767 411.793 231.88 410.983 231.88 409.984 Z" transform="matrix(-0.949724, -0.183048, 0.53552, -0.949722, 227.698102, 841.345975)"/>
      <path id="path5863" style="opacity: 0.30732; stroke-linecap: round; stroke-width: 5.2; stroke: rgb(37, 245, 10); fill: rgb(31, 111, 4);" d="M 223.712 408.409 C 223.712 407.411 222.599 406.601 221.225 406.601 C 219.852 406.601 218.738 407.411 218.738 408.409 C 218.738 409.408 219.852 410.217 221.225 410.217 C 222.599 410.218 223.712 409.408 223.712 408.409 Z" transform="matrix(-0.949724, -0.183049, 0.53552, -0.949722, 212.61617, 836.778995)"/>
      <path id="path5877" style="opacity: 0.20976; stroke-linecap: round; stroke-width: 5.2; fill: url(#linearGradient5665); stroke: rgb(37, 245, 10);" d="M -442.23 585.17 C -442.23 606.795 -468.526 624.326 -500.964 624.326 C -533.402 624.326 -559.698 606.795 -559.698 585.17 C -559.698 563.545 -533.402 546.014 -500.964 546.014 C -468.526 546.014 -442.23 563.545 -442.23 585.17 Z" transform="matrix(-.23440 -.080453 .036281 -.17344 212.34 323.68)"/>
      <path id="path5879" style="opacity: 0.20976; stroke-linecap: round; stroke-width: 5.2; fill: rgb(102, 0, 204); stroke: rgb(37, 245, 10);" d="M -442.23 585.17 C -442.23 606.795 -468.526 624.326 -500.964 624.326 C -533.402 624.326 -559.698 606.795 -559.698 585.17 C -559.698 563.545 -533.402 546.014 -500.964 546.014 C -468.526 546.014 -442.23 563.545 -442.23 585.17 Z" transform="matrix(-.21967 -.075396 .027141 -.12975 175.59 281.73)"/>
      <path id="path5881" style="opacity: 0.30732; stroke-linecap: round; stroke-width: 5.2; fill: url(#linearGradient5665); stroke: rgb(37, 245, 10);" d="M -442.23 585.17 C -442.23 606.795 -468.526 624.326 -500.964 624.326 C -533.402 624.326 -559.698 606.795 -559.698 585.17 C -559.698 563.545 -533.402 546.014 -500.964 546.014 C -468.526 546.014 -442.23 563.545 -442.23 585.17 Z" transform="matrix(.20647 .10870 -.095940 .12669 412.24 192.49)"/>
      <path id="path5883" style="opacity: 0.20976; stroke-linecap: round; stroke-width: 5.2; fill: url(#linearGradient5665); stroke: rgb(37, 245, 10);" d="M -442.23 585.17 C -442.23 606.795 -468.526 624.326 -500.964 624.326 C -533.402 624.326 -559.698 606.795 -559.698 585.17 C -559.698 563.545 -533.402 546.014 -500.964 546.014 C -468.526 546.014 -442.23 563.545 -442.23 585.17 Z" transform="matrix(-.089471 -.030709 .026228 -.12538 214.46 280.76)"/>
      <path id="path5887" style="opacity: 0.45366; stroke-linecap: round; stroke-width: 5.2; fill: url(#linearGradient5665); stroke: rgb(37, 245, 10);" d="M -442.23 585.17 C -442.23 606.795 -468.526 624.326 -500.964 624.326 C -533.402 624.326 -559.698 606.795 -559.698 585.17 C -559.698 563.545 -533.402 546.014 -500.964 546.014 C -468.526 546.014 -442.23 563.545 -442.23 585.17 Z" transform="matrix(-.074078 -.025425 0.0169 -.080789 270.92 271.29)"/>
      <path id="path5889" style="opacity: 0.45366; stroke-linecap: round; stroke-width: 5.2; fill: url(#linearGradient5665); stroke: rgb(37, 245, 10);" d="M -442.23 585.17 C -442.23 606.795 -468.526 624.326 -500.964 624.326 C -533.402 624.326 -559.698 606.795 -559.698 585.17 C -559.698 563.545 -533.402 546.014 -500.964 546.014 C -468.526 546.014 -442.23 563.545 -442.23 585.17 Z" transform="matrix(-.074078 -.025425 0.0169 -.080789 253.09 272.88)"/>
      <path id="path5891" style="opacity: 0.45366; stroke-linecap: round; stroke-width: 5.2; fill: url(#linearGradient5665); stroke: rgb(37, 245, 10);" d="M -442.23 585.17 C -442.23 606.795 -468.526 624.326 -500.964 624.326 C -533.402 624.326 -559.698 606.795 -559.698 585.17 C -559.698 563.545 -533.402 546.014 -500.964 546.014 C -468.526 546.014 -442.23 563.545 -442.23 585.17 Z" transform="matrix(-.074078 -.020569 0.0169 -.065359 236.1 261.72)"/>
      <path id="path5895" style="opacity: 0.30732; stroke-linecap: round; stroke-width: 5.2; fill: url(#linearGradient5665); stroke: rgb(37, 245, 10);" d="M -442.23 585.17 C -442.23 606.795 -468.526 624.326 -500.964 624.326 C -533.402 624.326 -559.698 606.795 -559.698 585.17 C -559.698 563.545 -533.402 546.014 -500.964 546.014 C -468.526 546.014 -442.23 563.545 -442.23 585.17 Z" transform="matrix(.14089 -.024883 .032143 .079067 339.91 177.25)"/>
      <path id="path5897" style="opacity: 0.30732; stroke-linecap: round; stroke-width: 5.2; fill: url(#linearGradient5665); stroke: rgb(37, 245, 10);" d="M -442.23 585.17 C -442.23 606.795 -468.526 624.326 -500.964 624.326 C -533.402 624.326 -559.698 606.795 -559.698 585.17 C -559.698 563.545 -533.402 546.014 -500.964 546.014 C -468.526 546.014 -442.23 563.545 -442.23 585.17 Z" transform="matrix(.037039 .012713 .0084499 -.040395 314.63 263.22)"/>
      <path id="path5899" style="opacity: 0.45366; stroke-linecap: round; stroke-width: 5.2; fill: url(#linearGradient5665); stroke: rgb(37, 245, 10);" d="M -442.23 585.17 C -442.23 606.795 -468.526 624.326 -500.964 624.326 C -533.402 624.326 -559.698 606.795 -559.698 585.17 C -559.698 563.545 -533.402 546.014 -500.964 546.014 C -468.526 546.014 -442.23 563.545 -442.23 585.17 Z" transform="matrix(-.081804 -.028077 .018662 -.089215 300.81 283.63)"/>
      <path id="path5901" style="opacity: 0.45366; stroke-linecap: round; stroke-width: 5.2; fill: url(#linearGradient5665); stroke: rgb(37, 245, 10);" d="M -442.23 585.17 C -442.23 606.795 -468.526 624.326 -500.964 624.326 C -533.402 624.326 -559.698 606.795 -559.698 585.17 C -559.698 563.545 -533.402 546.014 -500.964 546.014 C -468.526 546.014 -442.23 563.545 -442.23 585.17 Z" transform="matrix(-.081804 -.028077 .018662 -.089215 281.12 292.56)"/>
      <path id="path5903" style="opacity: 0.45366; stroke-linecap: round; stroke-width: 5.2; fill: url(#linearGradient5665); stroke: rgb(37, 245, 10);" d="M -442.23 585.17 C -442.23 606.795 -468.526 624.326 -500.964 624.326 C -533.402 624.326 -559.698 606.795 -559.698 585.17 C -559.698 563.545 -533.402 546.014 -500.964 546.014 C -468.526 546.014 -442.23 563.545 -442.23 585.17 Z" transform="matrix(-.081804 -.028077 .018662 -.089215 264.5 286.86)"/>
      <path id="path5905" style="opacity: 0.30732; stroke-linecap: round; stroke-width: 5.2; fill: url(#linearGradient5665); stroke: rgb(37, 245, 10);" d="M -442.23 585.17 C -442.23 606.795 -468.526 624.326 -500.964 624.326 C -533.402 624.326 -559.698 606.795 -559.698 585.17 C -559.698 563.545 -533.402 546.014 -500.964 546.014 C -468.526 546.014 -442.23 563.545 -442.23 585.17 Z" transform="matrix(.040902 .014038 .0093312 -.044607 333.98 268.19)"/>
      <path id="path5907" style="opacity: 0.30732; stroke-linecap: round; stroke-width: 5.2; fill: url(#linearGradient5665); stroke: rgb(37, 245, 10);" d="M -442.23 585.17 C -442.23 606.795 -468.526 624.326 -500.964 624.326 C -533.402 624.326 -559.698 606.795 -559.698 585.17 C -559.698 563.545 -533.402 546.014 -500.964 546.014 C -468.526 546.014 -442.23 563.545 -442.23 585.17 Z" transform="matrix(.040902 .014038 .0093312 -.044607 340.76 271.86)"/>
      <path id="path5909" style="opacity: 0.30732; stroke-linecap: round; stroke-width: 5.2; fill: url(#linearGradient5665); stroke: rgb(37, 245, 10);" d="M -442.23 585.17 C -442.23 606.795 -468.526 624.326 -500.964 624.326 C -533.402 624.326 -559.698 606.795 -559.698 585.17 C -559.698 563.545 -533.402 546.014 -500.964 546.014 C -468.526 546.014 -442.23 563.545 -442.23 585.17 Z" transform="matrix(.040902 .014038 .0093312 -.044607 349.07 274.71)"/>
      <path id="path5943" style="filter: url(#filter5945); stroke-width: 1px; stroke: rgb(37, 245, 10); fill: rgb(3, 76, 0);" d="M 191.654 332.538 L 202.366 361.228 L 229.633 362.475 L 245.215 374.949 L 267.612 379.938 L 301.696 369.96 L 305.591 350.001 L 287.089 364.97 L 286.115 348.754 L 262.743 359.981 L 262.743 347.507 L 249.11 362.475 L 229.634 352.497 L 229.634 330.044 L 220.869 347.507 L 191.654 332.538 Z" transform="matrix(0.949717, 0.18306, -0.535555, 0.949716, 202.618744, -27.66244)"/>
    </g>
  </g>
</svg>