<svg class="bottomOverlay" width="86" height="380" viewBox="202.715 584.407 113 380.048" xmlns="http://www.w3.org/2000/svg"><defs><linearGradient id="a" y2="486.12" gradientUnits="userSpaceOnUse" x2="147.41" gradientTransform="matrix(.42279 0 0 .54157 98.98 152.52)" y1="133.72" x1="6.91"><stop offset="0" stop-color="#6c46d1"/><stop offset="1" stop-color="#ff9bff"/></linearGradient><linearGradient id="b" y2="504.55" gradientUnits="userSpaceOnUse" x2="221.12" gradientTransform="matrix(.42279 0 0 .54157 98.98 152.52)" y1="400.9" x1="283.31"><stop offset="0" stop-color="#683bc2"/><stop offset="1" stop-color="#ff9bff"/></linearGradient><linearGradient id="c" y2="504.55" gradientUnits="userSpaceOnUse" x2="294.82" gradientTransform="matrix(.42279 0 0 .54157 98.98 152.52)" y1="430.84" x1="520.55"><stop offset="0" stop-color="#683bc2"/><stop offset="1" stop-color="#f0f"/></linearGradient><linearGradient id="d" y2="502.25" gradientUnits="userSpaceOnUse" x2="248.76" gradientTransform="matrix(.42279 0 0 .54157 115.829 91.097)" y1="649.66" x1="331.68"><stop offset="0" stop-color="#60c"/><stop offset="1" stop-color="#f0f"/></linearGradient><linearGradient id="f" y2="440.06" gradientUnits="userSpaceOnUse" x2="345.5" gradientTransform="matrix(.42279 0 0 .54157 98.98 152.52)" y1="269.61" x1="631.11"><stop offset="0" stop-color="#683bc2"/><stop offset="1" stop-color="#ff9bff"/></linearGradient><linearGradient id="e" y2="601.29" gradientUnits="userSpaceOnUse" x2="257.97" gradientTransform="matrix(.42279 0 0 .54157 98.98 152.52)" y1="456.18" x1="426.11"><stop offset="0" stop-color="#683bc2"/><stop offset="1" stop-color="#ff9bff"/></linearGradient><linearGradient id="h" y2="366.35" gradientUnits="userSpaceOnUse" x2="246.45" gradientTransform="matrix(.42279 0 0 .54157 115.829 91.097)" y1="645.05" x1="361.62"><stop offset="0" stop-color="#452baa"/><stop offset="1" stop-color="#ff9bff"/></linearGradient><linearGradient id="g" y2="488.43" gradientUnits="userSpaceOnUse" x2="375.44" gradientTransform="matrix(.42279 0 0 .54157 98.98 152.52)" y1="338.71" x1="-66.796"><stop offset="0" stop-color="#452baa"/><stop offset="1" stop-color="#ff9bff"/></linearGradient><filter id="q" height="1.634" width="1.716" color-interpolation-filters="sRGB" y="-.317" x="-.358"><feGaussianBlur stdDeviation="15.527"/></filter><filter id="p" height="1.598" width="3.47" color-interpolation-filters="sRGB" y="-.299" x="-1.235"><feGaussianBlur stdDeviation="15.527"/></filter><filter id="o" height="1.576" width="3.771" color-interpolation-filters="sRGB" y="-.288" x="-1.385"><feGaussianBlur stdDeviation="15.527"/></filter><filter id="n" height="1.426" width="1.32" color-interpolation-filters="sRGB" y="-.213" x="-.16"><feGaussianBlur stdDeviation="15.527"/></filter><filter id="j" height="1.308" width="1.462" color-interpolation-filters="sRGB" y="-.154" x="-.231"><feGaussianBlur stdDeviation="15.527"/></filter><filter id="k" height="1.302" width="2.343" color-interpolation-filters="sRGB" y="-.151" x="-.671"><feGaussianBlur stdDeviation="15.527"/></filter><filter id="l" height="1.348" width="3.696" color-interpolation-filters="sRGB" y="-.174" x="-1.348"><feGaussianBlur stdDeviation="15.527"/></filter><filter id="m" height="1.376" width="3.875" color-interpolation-filters="sRGB" y="-.188" x="-1.438"><feGaussianBlur stdDeviation="15.527"/></filter><filter id="i" height="1.216" width="1.483" color-interpolation-filters="sRGB" y="-.108" x="-.241"><feGaussianBlur stdDeviation="15.527"/></filter><filter id="r" height="1.249" width="1.476" color-interpolation-filters="sRGB" y="-.124" x="-.238"><feGaussianBlur stdDeviation="15.527"/></filter><filter id="t" height="1.321" width="1.188" color-interpolation-filters="sRGB" y="-.16" x="-.094"><feGaussianBlur stdDeviation="15.527"/></filter><filter id="s" height="1.577" width="1.161" color-interpolation-filters="sRGB" y="-.288" x="-.081"><feGaussianBlur stdDeviation="15.527"/></filter><filter id="w" height="1.154" width="1.55" color-interpolation-filters="sRGB" y="-.077" x="-.275"><feGaussianBlur stdDeviation="6.436"/></filter><filter id="x" height="1.168" width="1.637" color-interpolation-filters="sRGB" y="-.084" x="-.319"><feGaussianBlur stdDeviation="6.436"/></filter><filter id="v" height="1.152" width="1.344" color-interpolation-filters="sRGB" y="-.076" x="-.172"><feGaussianBlur stdDeviation="6.436"/></filter><filter id="y" height="1.162" width="1.279" color-interpolation-filters="sRGB" y="-.081" x="-.14"><feGaussianBlur stdDeviation="6.436"/></filter><filter id="u" color-interpolation-filters="sRGB"><feGaussianBlur stdDeviation="6.436"/></filter><linearGradient id="z" y2="619.75" gradientUnits="userSpaceOnUse" x2="-480.89" y1="564.42" x1="-538.9" gradientTransform="matrix(0 0 0 0 1323.6 4864.533)"><stop offset="0" stop-color="#8361d6"/><stop offset="1" stop-color="#eee"/></linearGradient><filter id="A" height="1.338" width="1.116" color-interpolation-filters="sRGB" y="-.169" x="-.058"><feGaussianBlur stdDeviation="6.488"/></filter><linearGradient id="B" y2="527.58" gradientUnits="userSpaceOnUse" x2="193.48" y1="476.91" x1="198.08" gradientTransform="matrix(.42279 0 0 .54156 139.067 86.736)"><stop offset="0" stop-color="#ff9bff"/><stop offset="1" stop-color="#60c"/></linearGradient></defs><path d="M223.018 756.348c-4.441 2.319-1.222 5.664-3.172 7.614-6.264 6.264-5.711 20.01-5.711 28.551 0 4.965-10.079 33.065-6.979 36.165 3.525 3.525 11.244 5.534 14.593 8.883 4.224 4.224 2.824 12.975 5.71 15.862.592.591 11.737.794 20.304-5.71 1.062-.806 21.482-3.262 22.206-2.538.968.968 13.964-17.76 19.034-12.69.789.789-.634-6.099-.634-9.517 0-5.523-.366-12.421-3.173-15.227-6.578-6.579-4.422-24.091-10.786-30.455-1.742-1.742 1.904-8.248 1.904-8.248s-6.979-6.222-11.42-13.324" stroke="#000" fill="#d8d8d8"/><g transform="matrix(.23855 .03966 .06783 -.40802 539.653 906.635)"><g><path d="M169.1 417.04l-15.581-12.474s-28.96-58.95-48.691-82.328C89.823 304.46 72.209 289.5 53.215 279.827c-16.269-8.286-45.745 8.655-51.613-12.474-4.554-16.402 14.956-30.315 26.293-39.916 7.366-6.238 16.533-8.856 25.319-9.979 9.739-1.244 19.43 3.993 29.215 3.742 20.975-.538 41.604-7.02 62.325-11.226 11.069-2.247 21.986-5.741 33.11-7.484 9.366-1.468 19.03-5.122 28.241-2.495 3.262.93 7.293 2.393 8.764 6.237 12.291 32.101-4.336 71.901-12.66 106.03-4.415 18.105-13.925 33.559-19.476 51.143-5.503 17.432-13.633 53.638-13.633 53.638v-.003z" stroke="#000" stroke-width=".479" fill="url(#a)" transform="matrix(.9596 .14553 -.52161 1.17566 -1254.182 -334.186)"/><path d="M171.04 414.54c-6.33-23.63 11.039-48.02 18.503-71.101 5.278-16.321 13.718-30.833 18.503-47.401 5.108-17.687 9.609-36.08 10.712-54.885.513-8.747-.06-17.764-1.948-26.195-1.2-5.362-8.59-10.64-5.843-14.969 11.226-17.685 34.514 11.152 51.613 17.464 15.686 5.79 30.782 14.328 46.743 18.711 7.992 2.194 16.177 3.366 24.346 3.742 6.821.314 9.739-3.742 20.45-1.247 10.712 2.495 12.66 8.732 12.66 13.721 0 4.989-8.886 10.299-13.633 14.969-10.926 10.747-21.603 22.469-34.084 29.937-7.635 4.569-17.103 3.213-24.346 8.732-13.218 10.073-21.713 27.925-32.136 42.411-2.338 3.25-9.322 6.94-6.816 9.979 13.834 16.78 25.285-37.16 40.901-51.143 14.161-12.68 31.944-17.27 46.744-28.69 9.342-7.21 15.576-22.353 26.293-24.948 12.225-2.96 24.473 6.578 36.031 12.474 4.452 2.271 8.814 5.067 12.66 8.731 3.314 3.16 5.315 8.314 8.764 11.226 2.919 2.466 9.664.513 9.738 4.99.452 27.351-38.959 22.436-58.429 33.68-20.132 11.625-40.037 23.914-60.377 34.927-22.82 12.356-47.864 18.672-69.141 34.927-6.925 5.29-12.405 13.2-18.503 19.958-5.912 6.552-17.529 19.958-17.529 19.958l-1.947 8.732-12.66-2.495-5.843-13.721s-6.68-.872-9.739-2.495c-4.325-2.295-10.167-4.307-11.686-9.979h-.001z" stroke="#000" stroke-width=".479" fill="url(#b)" transform="matrix(.9596 .14553 -.52161 1.17566 -1254.182 -334.186)"/><path d="M210.97 437l32.136-42.411 34.084-17.463 45.77-21.206 29.215-19.958 16.555-12.474 38.953-9.979 23.372-8.732 5.843-16.216 18.503 28.69 1.948 17.463 14.607 11.227.973 17.463 6.817 22.453-9.738 23.7-4.869 12.474-18.503 2.495-15.581 7.484-43.822-16.216-37.979-9.979-8.765-9.979-49.665 16.216-37.005 22.453-17.529 9.979-17.529 1.248L210.97 437z" stroke="#000" stroke-width=".479" fill="url(#c)" transform="matrix(.9596 .14553 -.52161 1.17566 -1254.182 -334.186)"/><path d="M162.28 418.29s-23.405 15.034-36.031 14.969c-6.159-.032-11.519-9.208-17.529-7.484-9.634 2.762-11.553 25.985-21.424 26.195-12.183.259-23.487-16.347-27.267-31.185-1.442-5.66.556-12.339 2.922-17.463 3.279-7.105 12.904-8.257 14.607-16.216.542-2.537-.42-5.729-1.948-7.485-9.149-10.508-24.972-3.119-36.031-9.979-12.871-7.98-25.112-19.75-33.113-34.93-3.619-6.87-7.474-15.68-5.843-23.7 1.911-9.39 13.064-11.34 16.555-19.96 1.058-2.609-.722-6.75.974-8.732 9.606-11.222 26.46-7.103 38.953-2.494 11.423 4.213 19.673 17.113 29.215 26.194 10.946 10.419 22.99 19.476 32.136 32.433 8.516 12.064 20.45 41.164 20.45 41.164l23.374 38.673z" stroke="#000" stroke-width=".479" fill="#452baa" transform="matrix(.9596 .14553 -.52161 1.17566 -1254.182 -334.186)"/><path d="M195.678 363.098c-6.909-.836-13.586-6.293-20.45-4.991-7.612 1.446-16.127 5.567-20.45 13.722-3.484 6.572-4.252 16.325-1.948 23.7 3.166 10.133 13.396 13.559 19.476 21.206 5.252 6.603 9.014 15.079 14.607 21.207 3.218 3.521 7.029 6.06 10.712 8.731 7.58 5.496 15.009 11.848 23.372 14.969 9.087 3.389 18.824 4.951 28.241 3.743 5.415-.697 12.358-.624 15.581-6.238 1.154-2.011-1.486-5.873 0-7.485 4.52-4.904 11.612 3.368 17.529 3.742 9.748.616 20.733 3.691 29.215-2.494 5.478-3.995 7.057-13.381 10.712-19.959 4.443-7.994 9.634-15.33 13.633-23.7 2.653-5.55 4.02-12.029 6.817-17.462 3.043-5.912 6.135-12.246 10.712-16.216 4.25-3.686 12.137-.474 14.607-6.238 3.865-9.016-5.843-29.937-5.843-29.937l-7.79-6.237-30.189 13.721s-26.1 11.182-38.953 17.463c-9.519 4.653-18.332 11.936-28.241 14.969-8.233 2.52-17.799 7.471-25.319 2.495-1.682-1.112-1.075-5.705-2.922-6.237-3.425-.986-5.27 7.928-8.764 7.485-3.655-.463-5.282-6.544-7.791-9.98-2.357-3.227-3.674-8.151-6.817-9.979-2.956-1.718-6.506.392-9.738 0h.001z" transform="matrix(.81587 .35343 -1.0093 1.0386 -1021.958 -333.538)" stroke="#000" stroke-width=".479" fill="url(#d)"/><path d="M169.1 417.04l-15.581-12.474s-28.96-58.95-48.691-82.328C89.823 304.46 72.209 289.5 53.215 279.827c-16.269-8.286-45.745 8.655-51.613-12.474-4.554-16.402 14.956-30.315 26.293-39.916 7.366-6.238 16.533-8.856 25.319-9.979 9.739-1.244 19.43 3.993 29.215 3.742 20.975-.538 41.604-7.02 62.325-11.226 11.069-2.247 21.986-5.741 33.11-7.484 9.366-1.468 19.03-5.122 28.241-2.495 3.262.93 7.293 2.393 8.764 6.237 12.291 32.101-4.336 71.901-12.66 106.03-4.415 18.105-13.925 33.559-19.476 51.143-5.503 17.432-13.633 53.638-13.633 53.638v-.003z" stroke="#502a74" stroke-width=".479" fill="url(#a)" transform="matrix(.9596 .14553 -.52161 1.17566 -1254.182 -334.186)"/><path d="M171.04 414.54c-6.33-23.63 11.039-48.02 18.503-71.101 5.278-16.321 13.718-30.833 18.503-47.401 5.108-17.687 9.609-36.08 10.712-54.885.513-8.747-.06-17.764-1.948-26.195-1.2-5.362-8.59-10.64-5.843-14.969 11.226-17.685 34.514 11.152 51.613 17.464 15.686 5.79 30.782 14.328 46.743 18.711 7.992 2.194 16.177 3.366 24.346 3.742 6.821.314 9.739-3.742 20.45-1.247 10.712 2.495 12.66 8.732 12.66 13.721 0 4.989-8.886 10.299-13.633 14.969-10.926 10.747-21.603 22.469-34.084 29.937-7.635 4.569-17.103 3.213-24.346 8.732-13.218 10.073-21.713 27.925-32.136 42.411-2.338 3.25-3.79 12.102-6.816 9.979-2.352-1.65 19.089-44.215 40.901-51.143 16.77-5.327 31.944-17.27 46.744-28.69 9.342-7.21 15.576-22.353 26.293-24.948 12.225-2.96 24.473 6.578 36.031 12.474 4.452 2.271 8.814 5.067 12.66 8.731 3.314 3.16 5.315 8.314 8.764 11.226 2.919 2.466 9.664.513 9.738 4.99.452 27.351-38.959 22.436-58.429 33.68-20.132 11.625-40.037 23.914-60.377 34.927-22.82 12.356-47.864 18.672-69.141 34.927-6.925 5.29-12.405 13.2-18.503 19.958-5.912 6.552-17.529 19.958-17.529 19.958l-1.947 8.732-12.66-2.495-5.843-13.721s-6.68-.872-9.739-2.495c-4.325-2.295-10.167-4.307-11.686-9.979h-.001z" stroke="#713798" stroke-width=".479" fill="url(#e)" transform="matrix(.9596 .14553 -.52161 1.17566 -1254.182 -334.186)"/><path d="M210.97 437l32.136-42.411 34.084-17.463 45.77-21.206 29.215-19.958 16.555-12.474 38.953-9.979 23.372-8.732 5.843-16.216s14.588 17.344 18.503 28.69c1.856 5.379-.592 12.565 1.948 17.463 3.141 6.06 11.635 5.029 14.607 11.227 2.384 4.973-.026 11.77.973 17.463 1.375 7.835 7.173 14.436 6.817 22.453-.396 8.913-6.557 15.757-9.738 23.7-1.657 4.136-1.886 9.826-4.869 12.474-5.098 4.525-12.467.67-18.503 2.495-5.399 1.632-10.038 7.209-15.581 7.484-15.193.755-43.822-16.216-43.822-16.216l-37.979-9.979-8.765-9.979-49.665 16.216-37.005 22.453-17.529 9.979-17.529 1.248L210.97 437z" stroke="#000" stroke-width=".479" fill="url(#f)" transform="matrix(.9596 .14553 -.52161 1.17566 -1254.182 -334.186)"/><path d="M277.375 465.373s-109.47-4.881-121.281-.418c-25.6 9.672-37.927 5.865-43.937 7.589-9.634 2.762-14.99-20.784-24.861-20.574-12.183.259-23.487-16.347-27.267-31.185-1.442-5.66.556-12.339 2.922-17.463 3.279-7.105-8.478-6.285-11.519-13.835-8.026-19.924-5.221-2.988-6.749-4.744-9.149-10.508 5.955-8.241-5.104-15.101-12.871-7.98-25.112-19.75-33.113-34.93-3.619-6.87-7.474-15.68-5.843-23.7 1.911-9.39 13.064-11.34 16.555-19.96 1.058-2.609-.722-6.75.974-8.732 9.606-11.222 26.46-7.103 38.953-2.494 11.423 4.213 19.673 17.113 29.215 26.194 10.946 10.419 22.99 19.476 32.136 32.433 8.516 12.064 20.45 41.164 20.45 41.164l138.469 85.756z" stroke="#823bb7" stroke-width=".479" fill="url(#g)" transform="matrix(.9596 .14553 -.52161 1.17566 -1254.182 -334.186)"/><path d="M195.678 363.098c-6.909-.836-13.586-6.293-20.45-4.991-7.612 1.446-16.127 5.567-20.45 13.722-3.484 6.572-4.252 16.325-1.948 23.7 3.166 10.133 13.396 13.559 19.476 21.206 5.252 6.603-14.883 70.09 21.481 52.382 4.289-2.088.155-25.115 3.838-22.444 7.58 5.496 15.009 11.848 23.372 14.969 9.087 3.389 32.339-3.78 3.022-43.527-3.241-4.394 37.577 46.646 40.8 41.032 1.154-2.011-1.486-5.873 0-7.485 4.52-4.904 11.612 3.368 17.529 3.742 9.748.616 20.733 3.691 29.215-2.494 5.478-3.995 20.461-14.4 24.723-20.602 9.081-13.217 24.046-22.909 28.045-31.279 2.653-5.55-24.403-3.807-21.606-9.24 3.043-5.912 6.135-12.246 10.712-16.216 4.25-3.686 12.137-.474 14.607-6.238 3.865-9.016-5.843-29.937-5.843-29.937l-7.79-6.237-39.927 13.721s-16.362 11.182-29.215 17.463c-9.519 4.653-18.332 11.936-28.241 14.969-8.233 2.52-17.799 7.471-25.319 2.495-1.682-1.112-1.075-5.705-2.922-6.237-3.425-.986-5.27 7.928-8.764 7.485-3.655-.463-5.282-6.544-7.791-9.98-2.357-3.227-3.674-8.151-6.817-9.979-2.956-1.718-6.506.392-9.738 0h.001z" transform="matrix(.81587 .35343 -1.0093 1.0386 -1021.958 -333.538)" stroke="#b22cc8" stroke-width=".478" fill="url(#h)"/><path d="M181.96 476.91L301.73 262.7l34.55-108.25-119.77 345.49-34.55-23.03z" transform="matrix(.40571 .06153 -.28249 .6367 -1238.757 -140.47)" filter="url(#i)" stroke="#5e2a71" stroke-width="1.298" fill="#4b1b93"/><path d="M135.9 453.88C101.1 361.22 60.613 274.26-4.61 212.03 60.086 272.1 110.2 356.45 156.62 446.97l-20.72 6.91z" transform="matrix(.40571 .06153 -.28249 .6367 -1238.757 -140.47)" filter="url(#j)" stroke="#5e2a71" stroke-width="1.298" fill="#4b1b93"/><path d="M87.526 191.3c25.919 77.656 58.541 151.29 55.279 246.45l-23.033-2.303c-2.82-86.67-11.07-169.72-32.244-244.15l-.002.003z" transform="matrix(.40571 .06153 -.28249 .6367 -1238.757 -140.47)" filter="url(#k)" stroke="#5e2a71" stroke-width="1.298" fill="#4b1b93"/><path d="M172.75 414.72l-27.64-214.21 27.64 214.21z" transform="matrix(.40571 .06153 -.28249 .6367 -1238.757 -140.47)" filter="url(#l)" stroke="#5e2a71" stroke-width="1.298" fill="#4b1b93"/><path d="M179.66 389.39c24.646-66.028 5.676-132.06-4.607-198.08 9.163 67.803 17.658 135.38-9.213 191.17l13.82 6.91z" transform="matrix(.40571 .06153 -.28249 .6367 -1238.757 -140.47)" filter="url(#m)" stroke="#5e2a71" stroke-width="1.298" fill="#4b1b93"/><path d="M101.37 457.58C39.188 375.73-41.29 331.33-131.31 306.45c95.062 35.56 119.546 181.197 171.656 265.847L101.37 457.58z" transform="matrix(.40571 .06153 -.28249 .6367 -1238.757 -140.47)" filter="url(#n)" stroke="#5e2a71" stroke-width="1.298" fill="#4b1b93"/><path d="M209.703 378.022c-.973 6.237.974 53.637.974 53.637s-14.608-74.844-10.712-69.856c3.895 4.989 9.738 16.216 9.738 16.216v.003z" transform="matrix(.81587 .35343 -1.0093 1.0386 -1031.295 -322.446)" filter="url(#o)" stroke="#5e2a71" stroke-width="1.298" fill="#4b1b93"/><path d="M230.083 445.74l-6.815-67.359s-6.817-1.247-5.843 3.742c.973 4.99 12.66 63.617 12.66 63.617h-.002z" transform="matrix(.81587 .35343 -1.0093 1.0386 -1021.104 -324.23)" filter="url(#p)" stroke="#5e2a71" stroke-width="1.298" fill="#4b1b93"/><path d="M288.65 451.35l-30.192-63.617s-18.502 4.99-12.659 8.732c5.843 3.742 42.849 54.887 42.849 54.887l.002-.002z" transform="matrix(.81587 .35342 -1.0093 1.03861 -1011.25 -332.123)" filter="url(#q)" stroke="#5e2a71" stroke-width="1.298" fill="#4b1b93"/><path d="M398.47 191.3c-27.76 101.94-57.27 203.52-115.16 299.43l-87.53-32.25c68.34-55.45 158.28-169.85 202.69-267.18z" transform="matrix(.40571 .06153 -.28249 .6367 -1238.757 -140.47)" filter="url(#r)" stroke="#5e2a71" stroke-width="1.298" fill="#ff9bff"/><path d="M799.35 352.43c-137.53 24.76-276.66 55.93-426.32 129.19l-35.07-11.25c159.12-63.28 314.51-109.75 461.39-117.94z" transform="matrix(.40571 .06153 -.28249 .6367 -1238.757 -140.47)" filter="url(#s)" stroke="#5e2a71" stroke-width="1.298" fill="#4b1b93"/><path d="M679.36 242.09L305.85 474.5l-22.43-29.76c123.66-32.62 283.39-136.69 395.94-202.65z" transform="matrix(.40571 .06153 -.28249 .6367 -1238.757 -140.47)" filter="url(#t)" stroke="#5e2a71" stroke-width="1.298" fill="#ff9bff"/><path d="M-76.009 163.66s86.425 64.368 119.77 105.95c25.799 32.172 59.886 108.26 59.886 108.26" transform="matrix(.40571 .06153 -.28249 .6367 -1238.757 -140.47)" filter="url(#u)" stroke="#5d239f" stroke-width="3.6" fill="none"/><path d="M39.156 159.05S92.05 226.076 108.255 265c12.675 30.445 20.73 96.739 20.73 96.739" transform="matrix(.40571 .06153 -.28249 .6367 -1238.757 -140.47)" filter="url(#v)" stroke="#5d239f" stroke-width="3.6" fill="none"/><path d="M128.99 149.84s48.76 68.266 55.279 108.26c4.997 30.65-13.82 92.132-13.82 92.132" transform="matrix(.40571 .06153 -.28249 .6367 -1238.757 -140.47)" filter="url(#w)" stroke="#5d239f" stroke-width="3.6" fill="none"/><path d="M94.436 163.66s33.301 54.703 41.46 85.222c8.547 31.972 6.91 99.042 6.91 99.042" transform="matrix(.40571 .06153 -.28249 .6367 -1238.757 -140.47)" filter="url(#x)" stroke="#5d239f" stroke-width="3.6" fill="none"/><path d="M2.303 163.66l94.436 145.11 16.121 46.07" transform="matrix(.40571 .06153 -.28249 .6367 -1238.757 -140.47)" filter="url(#y)" stroke="#5d239f" stroke-width="3.6" fill="none"/><path d="M105.55 134.99s-3.407 47.698 29.941 89.282c25.799 32.172 44.166 128.26 44.166 128.26" transform="matrix(.4161 .0631 -.19516 .43986 -1248.158 -119.171)" filter="url(#u)" stroke="#5d239f" stroke-width="3.6" fill="none"/><path d="M115.17 133.72s52.894 67.026 69.099 105.95c12.675 30.445 18.484 186.76 18.484 186.76" transform="matrix(.4161 .0631 -.19516 .43986 -1248.158 -119.171)" filter="url(#v)" stroke="#5d239f" stroke-width="3.6" fill="none"/><path d="M204.99 124.5s48.76 68.266 55.279 108.26c4.997 30.65-13.82 92.132-13.82 92.132" transform="matrix(.4161 .0631 -.19516 .43986 -1248.158 -119.171)" filter="url(#w)" stroke="#5d239f" stroke-width="3.6" fill="none"/><path d="M170.44 138.32s33.301 54.703 41.46 85.222c8.547 31.972 9.156 159.05 9.156 159.05" transform="matrix(.4161 .0631 -.19516 .43986 -1248.158 -119.171)" filter="url(#x)" stroke="#5d239f" stroke-width="3.6" fill="none"/><path d="M78.312 138.32l94.436 145.11 13.877 146.09" transform="matrix(.4161 .0631 -.19516 .43986 -1248.158 -119.171)" filter="url(#y)" stroke="#5d239f" stroke-width="3.6" fill="none"/><path d="M0 138.32s86.425 64.368 119.77 105.95c25.799 32.172 59.886 108.26 59.886 108.26" transform="matrix(-.4161 -.0631 -.19516 .43986 -1039.975 -43.77)" filter="url(#u)" stroke="#5d239f" stroke-width="3.6" fill="none"/><path d="M115.17 133.72s52.894 67.026 69.099 105.95c12.675 30.445 20.73 96.739 20.73 96.739" transform="matrix(-.4161 -.0631 -.19516 .43986 -1039.975 -43.77)" filter="url(#v)" stroke="#5d239f" stroke-width="3.6" fill="none"/><path d="M204.99 124.5s48.76 68.266 55.279 108.26c4.997 30.65-13.82 92.132-13.82 92.132" transform="matrix(-.4161 -.0631 -.19516 .43986 -1039.975 -43.77)" filter="url(#w)" stroke="#5d239f" stroke-width="3.6" fill="none"/><path d="M170.44 138.32s33.301 54.703 41.46 85.222c8.547 31.972 6.91 99.042 6.91 99.042" transform="matrix(-.4161 -.0631 -.19516 .43986 -1039.975 -43.77)" filter="url(#x)" stroke="#5d239f" stroke-width="3.6" fill="none"/><path d="M78.312 138.32l94.436 145.11 16.123 46.066" transform="matrix(-.4161 -.0631 -.19516 .43986 -1039.975 -43.77)" filter="url(#y)" stroke="#5d239f" stroke-width="3.6" fill="none"/><path d="M0 138.32s86.425 64.368 119.77 105.95c25.799 32.172 59.886 108.26 59.886 108.26" transform="matrix(-.32694 -.22997 -.26105 .41387 -1002.123 51.937)" filter="url(#u)" stroke="#5d239f" stroke-width="3.6" fill="none"/><path d="M115.17 133.72s52.894 67.026 69.099 105.95c12.675 30.445 20.73 96.739 20.73 96.739" transform="matrix(-.32694 -.22997 -.26105 .41387 -1002.123 51.937)" filter="url(#v)" stroke="#5d239f" stroke-width="3.6" fill="none"/><path d="M204.99 124.5s48.76 68.266 55.279 108.26c4.997 30.65-13.82 92.132-13.82 92.132" transform="matrix(-.32694 -.22997 -.26105 .41387 -1002.123 51.937)" filter="url(#w)" stroke="#5d239f" stroke-width="3.6" fill="none"/><path d="M170.44 138.32s33.301 54.703 41.46 85.222c8.547 31.972 6.91 99.042 6.91 99.042" transform="matrix(-.32694 -.22997 -.26105 .41387 -1002.123 51.937)" filter="url(#x)" stroke="#5d239f" stroke-width="3.6" fill="none"/><path d="M78.312 138.32l94.436 145.11 16.123 46.066" transform="matrix(-.32694 -.22997 -.26105 .41387 -1002.123 51.937)" filter="url(#y)" stroke="#5d239f" stroke-width="3.6" fill="none"/><path d="M-442.23 585.17c0 21.625-26.296 39.156-58.734 39.156s-58.734-17.531-58.734-39.156 26.296-39.156 58.734-39.156 58.734 17.531 58.734 39.156z" transform="matrix(.14718 .02232 -.08726 .19666 -1216.293 -138.493)" opacity=".454" stroke="#500f9b" stroke-linecap="round" stroke-width="5.2" fill="url(#z)"/><path d="M-442.23 585.17c0 21.625-26.296 39.156-58.734 39.156s-58.734-17.531-58.734-39.156 26.296-39.156 58.734-39.156 58.734 17.531 58.734 39.156z" transform="matrix(.14718 .02232 -.08726 .19666 -1172.069 -166.217)" opacity=".454" stroke="#500f9b" stroke-linecap="round" stroke-width="5.2" fill="url(#z)"/><path d="M-442.23 585.17c0 21.625-26.296 39.156-58.734 39.156s-58.734-17.531-58.734-39.156 26.296-39.156 58.734-39.156 58.734 17.531 58.734 39.156z" transform="matrix(.14718 .02232 -.08726 .19666 -1142.168 -161.683)" opacity=".454" stroke="#500f9b" stroke-linecap="round" stroke-width="5.2" fill="url(#z)"/><path d="M210.641 372.87c0 3.616-4.034 6.549-9.009 6.549-4.975 0-9.009-2.933-9.009-6.549 0-3.619 4.034-6.551 9.009-6.551 4.975 0 9.009 2.932 9.009 6.551z" transform="matrix(.81587 .35343 -1.0093 1.0386 -1043.357 -325.002)" opacity=".21" stroke="#500f9b" stroke-linecap="round" stroke-width="5.2" fill="url(#z)"/><path d="M223.72 390.792c0 3.883-6.381 7.03-14.253 7.031-7.872 0-14.253-3.148-14.253-7.031 0-3.883 6.381-7.031 14.253-7.031s14.253 3.148 14.253 7.031z" transform="matrix(.81587 .35343 -1.0093 1.0386 -1033.488 -324.174)" opacity=".21" stroke="#500f9b" stroke-linecap="round" stroke-width="5.2" fill="url(#z)"/><path d="M270.84 402.01c0 2.905-5.98 5.26-13.357 5.26-7.377 0-13.358-2.355-13.358-5.259 0-2.905 5.981-5.26 13.358-5.26 7.377 0 13.357 2.355 13.357 5.259z" transform="matrix(.81587 .35343 -1.0093 1.0386 -1021.116 -332.619)" opacity=".21" stroke="#500f9b" stroke-linecap="round" stroke-width="5.2" fill="#60c"/><path d="M320.785 388c0 2.905-5.98 5.26-13.357 5.26-7.377 0-13.358-2.355-13.358-5.259 0-2.905 5.981-5.26 13.358-5.26 7.377 0 13.357 2.355 13.357 5.259z" transform="matrix(.81587 .35343 -1.0093 1.0386 -1020.769 -344.922)" opacity=".21" stroke="#500f9b" stroke-linecap="round" stroke-width="5.2" fill="#60c"/><path d="M-442.23 585.17c0 21.625-26.296 39.156-58.734 39.156s-58.734-17.531-58.734-39.156 26.296-39.156 58.734-39.156 58.734 17.531 58.734 39.156z" transform="matrix(-.0736 -.01116 -.04363 .09833 -1133.994 -68.519)" opacity=".307" stroke="#500f9b" stroke-linecap="round" stroke-width="5.2" fill="url(#z)"/><path d="M-442.23 585.17c0 21.625-26.296 39.156-58.734 39.156s-58.734-17.531-58.734-39.156 26.296-39.156 58.734-39.156 58.734 17.531 58.734 39.156z" transform="matrix(-.0736 -.01116 -.04363 .09833 -1141.788 -86.916)" opacity=".307" stroke="#500f9b" stroke-linecap="round" stroke-width="5.2" fill="url(#z)"/><path d="M-442.23 585.17c0 21.625-26.296 39.156-58.734 39.156s-58.734-17.531-58.734-39.156 26.296-39.156 58.734-39.156 58.734 17.531 58.734 39.156z" transform="matrix(-.0736 -.01116 -.04363 .09833 -1156.738 -89.183)" opacity=".307" stroke="#500f9b" stroke-linecap="round" stroke-width="5.2" fill="url(#z)"/><path d="M-442.23 585.17c0 21.625-26.296 39.156-58.734 39.156s-58.734-17.531-58.734-39.156 26.296-39.156 58.734-39.156 58.734 17.531 58.734 39.156z" transform="matrix(-.0736 -.01116 -.04363 .09833 -1294.693 -77.23)" opacity=".307" stroke="#500f9b" stroke-linecap="round" stroke-width="5.2" fill="url(#z)"/><path d="M-442.23 585.17c0 21.625-26.296 39.156-58.734 39.156s-58.734-17.531-58.734-39.156 26.296-39.156 58.734-39.156 58.734 17.531 58.734 39.156z" transform="matrix(-.0736 -.01116 -.04363 .09833 -1302.49 -95.628)" opacity=".307" stroke="#500f9b" stroke-linecap="round" stroke-width="5.2" fill="url(#z)"/><path d="M-442.23 585.17c0 21.625-26.296 39.156-58.734 39.156s-58.734-17.531-58.734-39.156 26.296-39.156 58.734-39.156 58.734 17.531 58.734 39.156z" transform="matrix(-.0736 -.01116 -.04363 .09833 -1317.44 -97.895)" opacity=".307" stroke="#500f9b" stroke-linecap="round" stroke-width="5.2" fill="url(#z)"/><path d="M-442.23 585.17c0 21.625-26.296 39.156-58.734 39.156s-58.734-17.531-58.734-39.156 26.296-39.156 58.734-39.156 58.734 17.531 58.734 39.156z" transform="matrix(.14956 .02268 -.07137 .16087 -1272.248 69.456)" opacity=".454" stroke="#500f9b" stroke-linecap="round" stroke-width="5.2" fill="url(#z)"/><path d="M-442.23 585.17c0 21.625-26.296 39.156-58.734 39.156s-58.734-17.531-58.734-39.156 26.296-39.156 58.734-39.156 58.734 17.531 58.734 39.156z" transform="matrix(.14956 .02268 -.07137 .16087 -1230.147 47.671)" opacity=".454" stroke="#500f9b" stroke-linecap="round" stroke-width="5.2" fill="url(#z)"/><path d="M189.173 321.158c0-1.48-2.049-2.68-4.577-2.68-2.528.001-4.577 1.2-4.577 2.679 0 1.48 2.049 2.679 4.577 2.679s4.577-1.199 4.577-2.678z" transform="matrix(-.81587 -.35343 1.00931 -1.0386 -1418.105 469.047)" opacity=".307" stroke="#500f9b" stroke-linecap="round" stroke-width="5.2" fill="url(#z)"/><path d="M174.136 318.26c0-1.479-2.049-2.678-4.577-2.678s-4.577 1.199-4.577 2.678c0 1.48 2.049 2.679 4.577 2.679s4.577-1.199 4.577-2.679z" transform="matrix(-.81587 -.35343 1.0093 -1.0386 -1440.365 455.131)" opacity=".307" stroke="#500f9b" stroke-linecap="round" stroke-width="5.2" fill="url(#z)"/><path d="M245.684 355.505c0 1.188-2.087 2.152-4.661 2.152-2.574 0-4.661-.964-4.661-2.152 0-1.188 2.087-2.152 4.661-2.152 2.574 0 4.661.964 4.661 2.152z" transform="matrix(.81588 .35342 -1.00929 1.03861 -1046.169 -335.571)" opacity=".454" stroke="#500f9b" stroke-linecap="round" stroke-width="5.2" fill="url(#z)"/><path d="M286.348 336.435c0 1.48-2.049 2.679-4.577 2.679s-4.577-1.199-4.577-2.679c0-1.479 2.049-2.678 4.577-2.678s4.577 1.199 4.577 2.678z" transform="matrix(.81587 .35343 -1.0093 1.0386 -1049.605 -346.656)" opacity=".454" stroke="#500f9b" stroke-linecap="round" stroke-width="5.2" fill="url(#z)"/><path d="M287.937 347.115c0-.741-1.025-1.34-2.289-1.34-1.264 0-2.288.599-2.288 1.34 0 .739 1.024 1.339 2.288 1.339 1.264 0 2.289-.6 2.289-1.339z" transform="matrix(-.81588 -.35342 1.00928 -1.03862 -1278.412 576.946)" opacity=".307" stroke="#500f9b" stroke-linecap="round" stroke-width="5.2" fill="url(#z)"/><path d="M280.415 345.665c0-.74-1.025-1.339-2.289-1.339-1.263 0-2.288.599-2.288 1.339s1.024 1.34 2.288 1.34c1.264 0 2.289-.6 2.289-1.34z" transform="matrix(-.81588 -.35342 1.00928 -1.03862 -1289.549 569.985)" opacity=".307" stroke="#500f9b" stroke-linecap="round" stroke-width="5.2" fill="url(#z)"/><path d="M246.366 342.117c0 .924-3.913 1.673-8.739 1.673-4.827 0-8.74-.749-8.74-1.673s3.913-1.673 8.74-1.673c4.826 0 8.739.749 8.739 1.673z" transform="matrix(.81587 .35343 -1.0093 1.03861 -1053.18 -336.7)" opacity=".454" stroke="#500f9b" stroke-linecap="round" stroke-width="5.2" fill="url(#z)"/><path d="M280.984 333.532c0 .924-3.913 1.673-8.739 1.673-4.827 0-8.74-.749-8.74-1.673s3.913-1.673 8.74-1.673c4.826 0 8.739.749 8.739 1.673z" transform="matrix(.81587 .35343 -1.0093 1.0386 -1052.39 -345.073)" opacity=".454" stroke="#500f9b" stroke-linecap="round" stroke-width="5.2" fill="url(#z)"/><path d="M290.504 342.41c0-.462-1.956-.837-4.37-.837-2.413 0-4.37.375-4.37.836 0 .462 1.957.837 4.37.837 2.414 0 4.37-.374 4.37-.836z" transform="matrix(-.81588 -.35342 1.00929 -1.03862 -1270.352 566.77)" opacity=".307" stroke="#500f9b" stroke-linecap="round" stroke-width="5.2" fill="url(#z)"/><path d="M314.43 421.537c.001 6.072-5.098 10.995-11.388 10.995s-11.388-4.923-11.389-10.995c0-6.073 5.099-10.995 11.389-10.995 6.29 0 11.388 4.922 11.388 10.995z" transform="matrix(-.81587 -.35343 1.00931 -1.0386 -1361.482 750.415)" opacity=".307" stroke="#500f9b" stroke-linecap="round" stroke-width="5.2" fill="url(#z)"/><path d="M255.47 334.994c0 .462-1.957.837-4.37.837-2.414 0-4.37-.375-4.37-.836 0-.462 1.956-.837 4.37-.837 2.413 0 4.37.374 4.37.836z" transform="matrix(.81586 .35343 -1.00932 1.0386 -1054.71 -340.476)" opacity=".454" stroke="#500f9b" stroke-linecap="round" stroke-width="5.2" fill="url(#z)"/><path d="M267.71 337.807c0 2.463-1.48 4.46-3.304 4.46-1.825.001-3.304-1.996-3.304-4.46 0-2.463 1.479-4.46 3.304-4.46 1.824 0 3.303 1.997 3.304 4.46z" transform="matrix(.81586 .35344 -1.00933 1.0386 -1051.42 -342.857)" opacity=".454" stroke="#500f9b" stroke-linecap="round" stroke-width="5.2" fill="url(#z)"/><path d="M278.596 359.857c0 2.589-1.614 4.689-3.605 4.689-1.99 0-3.604-2.1-3.604-4.69 0-2.589 1.614-4.689 3.604-4.689 1.991 0 3.605 2.1 3.605 4.69z" transform="matrix(-.81588 -.35342 1.00929 -1.03861 -1316.846 599.843)" opacity=".307" stroke="#500f9b" stroke-linecap="round" stroke-width="5.2" fill="url(#z)"/><path d="M258.18 335.347c0-.231-.978-.418-2.185-.418-1.206 0-2.185.187-2.185.418 0 .231.979.419 2.185.419 1.207 0 2.185-.188 2.185-.419z" transform="matrix(-.81587 -.35342 1.0093 -1.03861 -1313.054 536.095)" opacity=".307" stroke="#500f9b" stroke-linecap="round" stroke-width="5.2" fill="url(#z)"/><path d="M-442.23 585.17c0 21.625-26.296 39.156-58.734 39.156s-58.734-17.531-58.734-39.156 26.296-39.156 58.734-39.156 58.734 17.531 58.734 39.156z" transform="matrix(.0714 .01083 -.01114 .02512 -1042.768 162.29)" opacity=".454" stroke="#500f9b" stroke-linecap="round" stroke-width="5.2" fill="url(#z)"/><path d="M-442.23 585.17c0 21.625-26.296 39.156-58.734 39.156s-58.734-17.531-58.734-39.156 26.296-39.156 58.734-39.156 58.734 17.531 58.734 39.156z" transform="matrix(.0714 .01083 -.01114 .02512 -1026.428 160.365)" opacity=".454" stroke="#500f9b" stroke-linecap="round" stroke-width="5.2" fill="url(#z)"/><path d="M-442.23 585.17c0 21.625-26.296 39.156-58.734 39.156s-58.734-17.531-58.734-39.156 26.296-39.156 58.734-39.156 58.734 17.531 58.734 39.156z" transform="matrix(-.0357 -.00541 -.00557 .01256 -1076.27 164.35)" opacity=".307" stroke="#500f9b" stroke-linecap="round" stroke-width="5.2" fill="url(#z)"/><path d="M-442.23 585.17c0 21.625-26.296 39.156-58.734 39.156s-58.734-17.531-58.734-39.156 26.296-39.156 58.734-39.156 58.734 17.531 58.734 39.156z" transform="matrix(-.0357 -.00541 -.00557 .01256 -1083.525 163.25)" opacity=".307" stroke="#500f9b" stroke-linecap="round" stroke-width="5.2" fill="url(#z)"/><path d="M-442.23 585.17c0 21.625-26.296 39.156-58.734 39.156s-58.734-17.531-58.734-39.156 26.296-39.156 58.734-39.156 58.734 17.531 58.734 39.156z" transform="matrix(.14279 .02165 -.06783 .15288 -975.01 90.618)" opacity=".454" stroke="#500f9b" stroke-linecap="round" stroke-width="5.2" fill="url(#z)"/><path d="M-442.23 585.17c0 21.625-26.296 39.156-58.734 39.156s-58.734-17.531-58.734-39.156 26.296-39.156 58.734-39.156 58.734 17.531 58.734 39.156z" transform="matrix(.14279 .02165 -.06783 .15288 -934.874 69.94)" opacity=".454" stroke="#500f9b" stroke-linecap="round" stroke-width="5.2" fill="url(#z)"/><path d="M-442.23 585.17c0 21.625-26.296 39.156-58.734 39.156s-58.734-17.531-58.734-39.156 26.296-39.156 58.734-39.156 58.734 17.531 58.734 39.156z" transform="matrix(-.0714 -.01083 -.03391 .07644 -1054.158 122.105)" opacity=".307" stroke="#500f9b" stroke-linecap="round" stroke-width="5.2" fill="url(#z)"/><path d="M-442.23 585.17c0 21.625-26.296 39.156-58.734 39.156s-58.734-17.531-58.734-39.156 26.296-39.156 58.734-39.156 58.734 17.531 58.734 39.156z" transform="matrix(-.0714 -.01083 -.03391 .07644 -1068.667 119.904)" opacity=".307" stroke="#500f9b" stroke-linecap="round" stroke-width="5.2" fill="url(#z)"/><path d="M275.991 419.366c.001 2.808-2.435 5.083-5.44 5.083-3.004 0-5.44-2.275-5.44-5.083 0-2.807 2.435-5.082 5.44-5.082 3.005 0 5.44 2.275 5.44 5.082z" transform="matrix(.81587 .35343 -1.0093 1.0386 -1010.773 -332.957)" opacity=".21" stroke="#500f9b" stroke-linecap="round" stroke-width="5.2" fill="url(#z)"/><path d="M239.602 377.676c0 2.296-2.475 4.157-5.528 4.157-3.054 0-5.529-1.861-5.529-4.157 0-2.296 2.475-4.158 5.529-4.158 3.053 0 5.528 1.862 5.528 4.158z" transform="matrix(.81587 .35342 -1.0093 1.03861 -1036.353 -331.088)" opacity=".454" stroke="#500f9b" stroke-linecap="round" stroke-width="5.2" fill="url(#z)"/><path d="M303.22 386.043c0 2.296-2.475 4.157-5.528 4.157-3.054 0-5.529-1.861-5.529-4.157 0-2.296 2.475-4.158 5.529-4.158 3.053 0 5.528 1.862 5.528 4.158z" transform="matrix(.81587 .35342 -1.0093 1.03861 -1023.128 -343.167)" opacity=".454" stroke="#500f9b" stroke-linecap="round" stroke-width="5.2" fill="url(#z)"/><path d="M285.2 437.931c0-1.148-1.238-2.079-2.764-2.079-1.527 0-2.764.931-2.764 2.079-.001 1.148 1.237 2.079 2.764 2.079 1.526 0 2.764-.931 2.764-2.079z" transform="matrix(-.81587 -.35342 1.0093 -1.03861 -1423.156 776.436)" opacity=".307" stroke="#500f9b" stroke-linecap="round" stroke-width="5.2" fill="url(#z)"/><path d="M312.755 389.385c0-1.148-1.238-2.079-2.764-2.079-1.527 0-2.764.931-2.764 2.079 0 1.148 1.237 2.079 2.764 2.079 1.527 0 2.764-.931 2.764-2.079z" transform="matrix(-.81585 -.35344 1.00934 -1.0386 -1299.937 682.689)" opacity=".307" stroke="#500f9b" stroke-linecap="round" stroke-width="5.2" fill="url(#z)"/><path d="M239.705 416.989c0 1.808-2.017 3.275-4.504 3.275-2.488 0-4.505-1.466-4.505-3.275 0-1.808 2.017-3.275 4.504-3.275 2.488 0 4.505 1.466 4.505 3.275z" transform="matrix(.81587 .35343 -1.0093 1.0386 -1017.012 -325.933)" opacity=".454" stroke="#500f9b" stroke-linecap="round" stroke-width="5.2" fill="url(#z)"/><path d="M261.85 406.811c0 1.808-2.017 3.275-4.504 3.275-2.488 0-4.505-1.467-4.505-3.275 0-1.809 2.017-3.275 4.505-3.275 2.487 0 4.504 1.466 4.504 3.275z" transform="matrix(.81587 .35343 -1.0093 1.0386 -1018.795 -331.933)" opacity=".454" stroke="#500f9b" stroke-linecap="round" stroke-width="5.2" fill="url(#z)"/><path d="M276.646 409.662c0 1.808-2.017 3.276-4.504 3.276-2.488 0-4.505-1.468-4.505-3.276 0-1.809 2.017-3.275 4.505-3.275 2.487 0 4.504 1.466 4.504 3.275z" transform="matrix(.81587 .35343 -1.0093 1.0386 -1015.278 -334.618)" opacity=".454" stroke="#500f9b" stroke-linecap="round" stroke-width="5.2" fill="url(#z)"/><path d="M265.925 427.402c0-.904-1.008-1.637-2.252-1.637-1.244 0-2.252.733-2.252 1.637 0 .905 1.008 1.638 2.252 1.638 1.244 0 2.252-.733 2.252-1.638z" transform="matrix(-.81587 -.35343 1.0093 -1.0386 -1440.356 743.76)" opacity=".307" stroke="#500f9b" stroke-linecap="round" stroke-width="5.2" fill="url(#z)"/><path d="M262.202 419.462c0-.904-1.009-1.637-2.252-1.637-1.244 0-2.253.733-2.253 1.637 0 .905 1.009 1.638 2.253 1.638 1.243 0 2.252-.733 2.252-1.638z" transform="matrix(-.81587 -.35342 1.0093 -1.03861 -1434.806 724.322)" opacity=".307" stroke="#500f9b" stroke-linecap="round" stroke-width="5.2" fill="url(#z)"/><path d="M254.803 418.035c0-.904-1.008-1.637-2.252-1.637-1.244 0-2.252.733-2.252 1.637 0 .905 1.008 1.638 2.252 1.638 1.244 0 2.252-.733 2.252-1.638z" transform="matrix(-.81587 -.35343 1.0093 -1.0386 -1445.762 717.47)" opacity=".307" stroke="#500f9b" stroke-linecap="round" stroke-width="5.2" fill="url(#z)"/><path d="M207.034 407.256c0 1.997-2.227 3.617-4.974 3.617-2.747 0-4.974-1.62-4.974-3.617 0-1.997 2.227-3.617 4.974-3.617 2.747 0 4.974 1.62 4.974 3.617z" transform="matrix(.81587 .35343 -1.0093 1.0386 -1026.524 -320.378)" opacity=".454" stroke="#500f9b" stroke-linecap="round" stroke-width="5.2" fill="url(#z)"/><path d="M231.492 396.02c0 1.997-2.227 3.616-4.974 3.616-2.747 0-4.974-1.619-4.974-3.616s2.227-3.618 4.974-3.618c2.747 0 4.974 1.621 4.974 3.618z" transform="matrix(.81587 .35343 -1.0093 1.0386 -1028.49 -327.003)" opacity=".454" stroke="#500f9b" stroke-linecap="round" stroke-width="5.2" fill="url(#z)"/><path d="M247.827 399.167c0 1.997-2.227 3.616-4.974 3.616-2.747 0-4.974-1.619-4.974-3.616s2.227-3.617 4.974-3.617c2.747 0 4.974 1.62 4.974 3.617z" transform="matrix(.81587 .35343 -1.0093 1.0386 -1024.607 -329.967)" opacity=".454" stroke="#500f9b" stroke-linecap="round" stroke-width="5.2" fill="url(#z)"/><path d="M235.997 418.759c0-.999-1.113-1.808-2.487-1.808-1.373 0-2.487.81-2.487 1.808 0 .999 1.114 1.808 2.487 1.808 1.374 0 2.487-.809 2.487-1.808z" transform="matrix(-.81586 -.35344 1.00933 -1.0386 -1480.691 709.569)" opacity=".307" stroke="#500f9b" stroke-linecap="round" stroke-width="5.2" fill="url(#z)"/><path d="M231.88 409.984c0-.998-1.113-1.808-2.487-1.808-1.373 0-2.487.81-2.487 1.808 0 .999 1.114 1.809 2.487 1.809 1.374 0 2.487-.81 2.487-1.809z" transform="matrix(-.81588 -.35342 1.00928 -1.03862 -1474.54 688.09)" opacity=".307" stroke="#500f9b" stroke-linecap="round" stroke-width="5.2" fill="url(#z)"/><path d="M223.712 408.409c0-.998-1.113-1.808-2.487-1.808-1.373 0-2.487.81-2.487 1.808 0 .999 1.114 1.808 2.487 1.808 1.374.001 2.487-.809 2.487-1.808z" transform="matrix(-.81588 -.35342 1.00928 -1.03862 -1486.63 680.526)" opacity=".307" stroke="#500f9b" stroke-linecap="round" stroke-width="5.2" fill="url(#z)"/><path d="M-442.23 585.17c0 21.625-26.296 39.156-58.734 39.156s-58.734-17.531-58.734-39.156 26.296-39.156 58.734-39.156 58.734 17.531 58.734 39.156z" transform="matrix(-.18297 -.1287 .12528 -.19863 -1219.255 77.254)" opacity=".21" stroke="#500f9b" stroke-linecap="round" stroke-width="5.2" fill="url(#z)"/><path d="M-442.23 585.17c0 21.625-26.296 39.156-58.734 39.156s-58.734-17.531-58.734-39.156 26.296-39.156 58.734-39.156 58.734 17.531 58.734 39.156z" transform="matrix(-.17147 -.1206 .09372 -.1486 -1232.64 22.587)" opacity=".21" stroke="#500f9b" stroke-linecap="round" stroke-width="5.2" fill="#60c"/><path d="M-442.23 585.17c0 21.625-26.296 39.156-58.734 39.156s-58.734-17.531-58.734-39.156 26.296-39.156 58.734-39.156 58.734 17.531 58.734 39.156z" transform="matrix(.14143 .15784 -.15815 .13498 -959 -47.89)" opacity=".307" stroke="#500f9b" stroke-linecap="round" stroke-width="5.2" fill="url(#z)"/><path d="M-442.23 585.17c0 21.625-26.296 39.156-58.734 39.156s-58.734-17.531-58.734-39.156 26.296-39.156 58.734-39.156 58.734 17.531 58.734 39.156z" transform="matrix(-.06984 -.04912 .09057 -.14359 -1194.833 27.103)" opacity=".21" stroke="#500f9b" stroke-linecap="round" stroke-width="5.2" fill="url(#z)"/><path d="M-442.23 585.17c0 21.625-26.296 39.156-58.734 39.156s-58.734-17.531-58.734-39.156 26.296-39.156 58.734-39.156 58.734 17.531 58.734 39.156z" transform="matrix(-.05782 -.04067 .05836 -.09252 -1135.714 24.186)" opacity=".454" stroke="#500f9b" stroke-linecap="round" stroke-width="5.2" fill="url(#z)"/><path d="M-442.23 585.17c0 21.625-26.296 39.156-58.734 39.156s-58.734-17.531-58.734-39.156 26.296-39.156 58.734-39.156 58.734 17.531 58.734 39.156z" transform="matrix(-.05782 -.04067 .05836 -.09252 -1153.653 23.46)" opacity=".454" stroke="#500f9b" stroke-linecap="round" stroke-width="5.2" fill="url(#z)"/><path d="M-442.23 585.17c0 21.625-26.296 39.156-58.734 39.156s-58.734-17.531-58.734-39.156 26.296-39.156 58.734-39.156 58.734 17.531 58.734 39.156z" transform="matrix(-.06036 -.03496 .05031 -.07438 -1164.136 7.868)" opacity=".454" stroke="#500f9b" stroke-linecap="round" stroke-width="5.2" fill="url(#z)"/><path d="M-442.23 585.17c0 21.625-26.296 39.156-58.734 39.156s-58.734-17.531-58.734-39.156 26.296-39.156 58.734-39.156 58.734 17.531 58.734 39.156z" transform="matrix(.14818 -.00875 -.0104 .09763 -1020.458 -76.333)" opacity=".307" stroke="#500f9b" stroke-linecap="round" stroke-width="5.2" fill="url(#z)"/><path d="M-442.23 585.17c0 21.625-26.296 39.156-58.734 39.156s-58.734-17.531-58.734-39.156 26.296-39.156 58.734-39.156 58.734 17.531 58.734 39.156z" transform="matrix(.02891 .02034 .02918 -.04626 -1089.56 21.06)" opacity=".307" stroke="#500f9b" stroke-linecap="round" stroke-width="5.2" fill="url(#z)"/><path d="M-442.23 585.17c0 21.625-26.296 39.156-58.734 39.156s-58.734-17.531-58.734-39.156 26.296-39.156 58.734-39.156 58.734 17.531 58.734 39.156z" transform="matrix(-.06385 -.04491 .06444 -.10217 -1113.468 43.044)" opacity=".454" stroke="#500f9b" stroke-linecap="round" stroke-width="5.2" fill="url(#z)"/><path d="M-442.23 585.17c0 21.625-26.296 39.156-58.734 39.156s-58.734-17.531-58.734-39.156 26.296-39.156 58.734-39.156 58.734 17.531 58.734 39.156z" transform="matrix(-.06385 -.04491 .06444 -.10217 -1137.021 50.677)" opacity=".454" stroke="#500f9b" stroke-linecap="round" stroke-width="5.2" fill="url(#z)"/><path d="M-442.23 585.17c0 21.625-26.296 39.156-58.734 39.156s-58.734-17.531-58.734-39.156 26.296-39.156 58.734-39.156 58.734 17.531 58.734 39.156z" transform="matrix(-.06385 -.04491 .06444 -.10217 -1149.997 41.557)" opacity=".454" stroke="#500f9b" stroke-linecap="round" stroke-width="5.2" fill="url(#z)"/><path d="M-442.23 585.17c0 21.625-26.296 39.156-58.734 39.156s-58.734-17.531-58.734-39.156 26.296-39.156 58.734-39.156 58.734 17.531 58.734 39.156z" transform="matrix(.03193 .02246 .03222 -.05108 -1073.584 29.719)" opacity=".307" stroke="#500f9b" stroke-linecap="round" stroke-width="5.2" fill="url(#z)"/><path d="M-442.23 585.17c0 21.625-26.296 39.156-58.734 39.156s-58.734-17.531-58.734-39.156 26.296-39.156 58.734-39.156 58.734 17.531 58.734 39.156z" transform="matrix(.03193 .02246 .03222 -.05108 -1068.993 35.02)" opacity=".307" stroke="#500f9b" stroke-linecap="round" stroke-width="5.2" fill="url(#z)"/><path d="M-442.23 585.17c0 21.625-26.296 39.156-58.734 39.156s-58.734-17.531-58.734-39.156 26.296-39.156 58.734-39.156 58.734 17.531 58.734 39.156z" transform="matrix(.03193 .02246 .03222 -.05108 -1062.505 39.58)" opacity=".307" stroke="#500f9b" stroke-linecap="round" stroke-width="5.2" fill="url(#z)"/><path d="M191.654 332.538l10.712 28.69 27.267 1.247 15.582 12.474 22.397 4.989 34.084-9.978 3.895-19.959-18.502 14.969-.974-16.216-23.372 11.227v-12.474l-13.633 14.968-19.476-9.978v-22.453l-8.765 17.463-29.215-14.969z" transform="matrix(.81587 .35343 -1.0093 1.0386 -1045.319 -337.22)" filter="url(#A)" stroke="#000" fill="url(#B)"/></g></g></svg>