<svg class="bottomOverlay" width="86" height="380" viewBox="202.715 584.407 86.59 380.048" xmlns="http://www.w3.org/2000/svg"><defs><filter id="x"><feGaussianBlur stdDeviation=".08"/></filter><filter id="u"><feGaussianBlur stdDeviation=".07"/></filter><filter id="q"><feGaussianBlur stdDeviation=".053"/></filter><filter id="m"><feGaussianBlur stdDeviation=".105"/></filter><filter id="k"><feGaussianBlur stdDeviation=".084"/></filter><filter id="g"><feGaussianBlur stdDeviation=".149"/></filter><filter id="e" height="1.201" width="1.048" y="-.1" x="-.024"><feGaussianBlur stdDeviation=".14"/></filter><filter id="b"><feGaussianBlur stdDeviation=".08"/></filter><radialGradient id="a" gradientUnits="userSpaceOnUse" cx="246.391" cy="212.813" r="86.559"><stop offset="0" stop-color="#ff00b7"/><stop offset="1" stop-color="#99006e"/></radialGradient><radialGradient id="c" gradientUnits="userSpaceOnUse" cx="1018.3" cy="175.795" r="3.3"><stop offset="0" stop-color="#ff00b7"/><stop offset="1" stop-color="#99006e"/></radialGradient><radialGradient id="d" gradientUnits="userSpaceOnUse" cx="1018.4" cy="175.655" r="3.3"><stop offset="0" stop-color="#ff00b7"/><stop offset="1" stop-color="#99006e"/></radialGradient><radialGradient id="f" gradientUnits="userSpaceOnUse" cx="1009.25" cy="173.423" r="7.05"><stop offset="0" stop-color="#ff00b7"/><stop offset="1" stop-color="#99006e"/></radialGradient><radialGradient id="h" gradientUnits="userSpaceOnUse" cx="1006.706" cy="166.22" r="1.894"><stop offset="0" stop-color="#ff00b7"/><stop offset="1" stop-color="#99006e"/></radialGradient><radialGradient id="i" gradientUnits="userSpaceOnUse" cx="248.765" cy="202.497" r="92.449"><stop offset="0" stop-color="#ff00b7"/><stop offset="1" stop-color="#99006e"/></radialGradient><radialGradient id="j" gradientUnits="userSpaceOnUse" cx="235.265" cy="302.521" r="111.225"><stop offset="0" stop-color="#ff00b7"/><stop offset="1" stop-color="#99006e"/></radialGradient><radialGradient id="l" gradientUnits="userSpaceOnUse" cx="1017.36" cy="171.785" r="2.84"><stop offset="0" stop-color="#ff00b7"/><stop offset="1" stop-color="#99006e"/></radialGradient><radialGradient id="n" gradientUnits="userSpaceOnUse" cx="1014" cy="167.6" r="2.1"><stop offset="0" stop-color="#ff00b7"/><stop offset="1" stop-color="#99006e"/></radialGradient><radialGradient id="o" gradientUnits="userSpaceOnUse" cx="356.973" cy="277.665" r="45.496"><stop offset="0" stop-color="#ff00b7"/><stop offset="1" stop-color="#99006e"/></radialGradient><radialGradient id="p" gradientUnits="userSpaceOnUse" cx="486.625" cy="307.735" r="107.165"><stop offset="0" stop-color="#ff00b7"/><stop offset="1" stop-color="#99006e"/></radialGradient><radialGradient id="r" gradientUnits="userSpaceOnUse" cx="1017.429" cy="171.624" r="2.529"><stop offset="0" stop-color="#ff00b7"/><stop offset="1" stop-color="#99006e"/></radialGradient><radialGradient id="s" gradientUnits="userSpaceOnUse" cx="1025.15" cy="168.8" r="6.35"><stop offset="0" stop-color="#ff00b7"/><stop offset="1" stop-color="#99006e"/></radialGradient><radialGradient id="t" gradientUnits="userSpaceOnUse" cx="1026.696" cy="169.288" r="8.296"><stop offset="0" stop-color="#ff00b7"/><stop offset="1" stop-color="#99006e"/></radialGradient><radialGradient id="v" gradientUnits="userSpaceOnUse" cx="1007.648" cy="163.202" r="2.952"><stop offset="0" stop-color="#ff00b7"/><stop offset="1" stop-color="#99006e"/></radialGradient><radialGradient id="w" gradientUnits="userSpaceOnUse" cx="1030.15" cy="164.592" r="3.35"><stop offset="0" stop-color="#ff00b7"/><stop offset="1" stop-color="#99006e"/></radialGradient><radialGradient id="y" gradientUnits="userSpaceOnUse" cx="1032.448" cy="168.193" r="2.348"><stop offset="0" stop-color="#ff00b7"/><stop offset="1" stop-color="#99006e"/></radialGradient></defs><g fill-rule="evenodd" stroke="#000"><path d="M244.01 172.71s3.45 28.5 23.26 54.73c9.4 12.45 45.83 33.52 45.83 33.52l19.85 23.94s-20.53 6.85-30.79 5.48-61.17-16.14-80.32-27.09c-19.16-10.94-53.36-49.52-55.42-58.42-2.05-8.89-11.5-32.01-3.29-47.07 8.21-15.05 24.1-22.03 28.89-22.72 4.79-.68 49.94 22.58 49.94 22.58l2.05 15.05z" fill="url(#a)" stroke-width=".812" transform="matrix(.12318 0 0 .12318 199.273 729.484)"/><g stroke-width=".051"><path d="M1015 173.21s1.9-.14 2.2.99-.6 2.48 1.8 4.67c.7-.36.7-1.06.7-1.06l1.9.77s-1.5-2.19-1.5-3.11c0-.91.2-2.05-.4-2.4-.7-.35-3.8-.35-3.8-.35l-.9.49z" opacity=".953" filter="url(#b)" fill="url(#c)" transform="scale(1.94804) rotate(5.542 -1706.86 -8932.85)"/><path d="M1015.1 173.08s1.9-.14 2.2.99-.6 2.47 1.8 4.66c.7-.35.7-1.06.7-1.06l1.9.78s-1.5-2.19-1.5-3.11.2-2.05-.4-2.4c-.7-.36-3.8-.36-3.8-.36l-.9.5z" fill="url(#d)" transform="scale(1.94804) rotate(5.542 -1706.86 -8932.85)"/></g><path transform="matrix(1.94804 0 0 1.94804 -1738.425 429.351)" d="M1010.4 171.77s-1.8.92-2.7 1.2c-.8.28-5.5-.07-5.5-.07l2.4.78-.6 1.41s3.5.04 4.8-.14c1.9-.26 2.5-1.77 5.1-1.84 1.6-.04 2.4.14 2.4.14s-2.1-1.69-5.9-1.48z" filter="url(#e)" fill="url(#f)" stroke-width=".051"/><path d="M1008.6 163.52s-1.1-.63-1.5-.63c-.5 0-2 .58-2.1 1.36-.2.79-.4 2.42.3 3.36.8.95 1.9 1.94 1.9 1.94s-1.7-3.16-1-4.61c.8-1.59 2.4-1.42 2.4-1.42z" transform="matrix(1.94804 0 0 1.94804 -1738.425 429.351)" filter="url(#g)" fill="url(#h)" stroke-width=".051"/><path d="M232.25 117.91c-29.76 2.09-61.2 23.06-71.66 41.02-13.95 23.95 8.02 67.13 40.3 92.09 44.25 34.2 110.44 35.47 110.44 35.47 0-1.03 43.23 11.95 25.7-38.6-25.18-72.57-42.19-108.02-76.11-125.04-8.69-4.36-18.75-5.64-28.67-4.94zm-41.62 28.34c30.19-9.41 49.04 31.59 62.38 48.27 16.42 20.52 57.82 81.05 57.82 81.05l8.4 10.87s-4.57.08-50.41-10.87c-45.83-10.95-78.79-42-80.16-44.74-27.31-32.41-35.35-72.42 1.97-84.58z" fill="url(#i)" stroke-width=".812" transform="matrix(.12318 0 0 .12318 199.273 729.484)"/><path d="M253.71 276.38s-29.07 14.53-42.48 19-87.19-1.12-87.19-1.12l38.01 12.3-10.07 22.35s55.74.55 76.02-2.23c29.92-4.1 39.12-27.95 80.48-29.07 24.81-.67 38.01 2.24 38.01 2.24s-33.54-26.83-92.78-23.47z" fill="url(#j)" stroke-width=".812" transform="matrix(.12318 0 0 .12318 199.273 729.484)"/><path transform="matrix(1.94804 0 0 1.94804 -1738.425 429.351)" d="M1019.9 171.39s-3.1-1.43-3.8-1.43-1.9 1.37-1.5 2.21c.3.85 2.8 1.44 3.6 1.44.7-.18 1.3-.4 2-.72 0-.45-.3-1.5-.3-1.5z" filter="url(#k)" fill="url(#l)" stroke-width=".051"/><path d="M1011.9 167.01l2.8 4.38 1.4-1.04s-1.4-3.13-2.2-4.52-1.3-2.02-1.3-2.02 1.2 2.92.9 3.48-1.5-.28-1.6-.28z" transform="matrix(1.94804 0 0 1.94804 -1738.425 429.351)" filter="url(#m)" fill="url(#n)" stroke-width=".051"/><path d="M398.03 272.81c-4.89-4.12-49.56-24.03-60.91-24.03s-29.91 21.66-24.76 35.07c5.16 13.41 45.39 22.7 57.77 22.7 11.03-2.83 21.05-6.33 31.98-11.35 0-7.22 2.15-15.29-4.08-22.39z" fill="url(#o)" stroke-width=".812" transform="matrix(.12318 0 0 .12318 199.273 729.484)"/><path d="M379.46 306.11s35.54 13.03 57.43 16.45 66.4 10.92 77.35 6.81c10.94-4.1 70.46-16.42 78.67-29.41 8.21-13-43.78-15.06-43.78-15.06s-29.42 18.48-49.95 19.84c-20.52 1.37-80.72-12.99-80.72-12.99l-38.31 10.26-.69 4.1z" fill="url(#p)" stroke-width=".812" transform="matrix(.12318 0 0 .12318 199.273 729.484)"/><path d="M1015.6 169.98s.4-.17.7-.07c.4.13.7.18 1.6.57 1 .43 1.7.76 1.8.81.5.48.1.98.2 1.54-.4.17-1.4.51-1.6.54-.7-.65.1-1.76 1.1-1.84-.2-.22-1.2-.73-1.5-.85-.8-.33-1.7-.65-1.7-.65s-.9-.11-1.3.61c.1-.36.7-.7.7-.66z" transform="matrix(1.94804 0 0 1.94804 -1738.425 429.351)" filter="url(#q)" fill="url(#r)" stroke-width=".051"/><g stroke-width=".051"><path d="M1019 173.12l2.1-.52s3.5-2.94 3.9-3.12c2-1.64 4.5-2.25 6.5-1.51 0 0-.2-2.64-.9-2.98-.7-.35-2.6-.61-2.6-.61s-2.6 1.73-2.9 2.03-4.7 4.63-4.7 4.63l-1.3 1.62-.3.56.2-.1z" fill="url(#s)" transform="matrix(1.94804 0 0 1.94804 -1738.425 429.351)"/><path d="M1029.8 163.55c-3.4.22-10 8.06-10.4 8.49s-1 1.37-1 1.32c0 0 4.3 1.88 7.9 1.66s8.2-2.41 8.6-5.54c.6-3.6-1.8-6.14-5.1-5.93zm-2.3 1.49c1.1-.2 3.5-.22 3.1 3.42-.3 2.25-1.9 5.82-5.2 6-3.3.17-6.6-1.27-6.6-1.31 0 0 5.3-5.61 5.6-5.79.2-.17 1.8-2 3.1-2.32z" fill="url(#t)" transform="matrix(1.94804 0 0 1.94804 -1738.425 429.351)"/></g><path d="M1004.7 164.66c-.1-.82 1.5-2.01 2.9-2.53 1.3-.53 3-.36 3-.36s-1.5.67-2.1 1.12c-1.2-.12-2.4.41-2.4.41s-.7.28-1.4 1.36z" transform="matrix(1.94804 0 0 1.94804 -1738.425 429.351)" opacity=".558" filter="url(#u)" fill="url(#v)" stroke-width=".051"/><path d="M1026.8 165.52c.8-1.14 1.3-1.64 2.9-2.13 1.4-.42 3.8.67 3.8.67s-1.3 1.37-1.9 1.83c-.7-.94-2.5-1.22-2.5-1.22s-1.1-.15-2.3.85z" transform="matrix(1.8989 .43495 -.43495 1.8989 -1616.11 -9.935)" opacity=".558" filter="url(#u)" fill="url(#w)" stroke-width=".051"/><path d="M1030.8 165.7s.7 1.76.3 3.24-1 2.36-1 2.36 2 .38 3-.05c1-.44 1.5-1.27 1.5-1.27s.5-2.47-.1-3.62-1.4-1.43-1.4-1.43-1.4 0-2.3.77z" transform="matrix(1.94804 0 0 1.94804 -1738.425 429.351)" filter="url(#x)" fill="url(#y)" stroke-width=".051"/></g></svg>