<?xml version="1.0" encoding="utf-8"?>
<svg id="woman" width="86" height="380" viewBox="202.71499633789062 584.406982421875 86.58999633789062 380.0480041503906" preserveAspectRatio="xMidYMid meet" xmlns="http://www.w3.org/2000/svg">
  <defs id="svgEditorDefs">
    <path id="svgEditorClosePathDefs" class="lines" fill="black" style="stroke-width: 0px; stroke: none;"/>
    <filter id="filter5389">
      <feGaussianBlur id="feGaussianBlur5391" stdDeviation="0.080260832"/>
    </filter>
    <filter id="filter5115">
      <feGaussianBlur id="feGaussianBlur5117" stdDeviation="0.06950493"/>
    </filter>
    <filter id="filter5073">
      <feGaussianBlur id="feGaussianBlur5075" stdDeviation="0.052773018"/>
    </filter>
    <filter id="filter4943">
      <feGaussianBlur id="feGaussianBlur4945" stdDeviation="0.10492554"/>
    </filter>
    <filter id="filter4875">
      <feGaussianBlur id="feGaussianBlur4877" stdDeviation="0.083783289"/>
    </filter>
    <filter id="filter5203">
      <feGaussianBlur id="feGaussianBlur5205" stdDeviation="0.14911291"/>
    </filter>
    <filter id="filter4358" height="1.2009" width="1.0477" y="-.10043" x="-.023870">
      <feGaussianBlur id="feGaussianBlur4360" stdDeviation="0.139889"/>
    </filter>
    <filter id="filter4332">
      <feGaussianBlur id="feGaussianBlur4334" stdDeviation="0.079515375"/>
    </filter>
    <linearGradient id="gradient-0" gradientUnits="userSpaceOnUse" x1="246.391" y1="135.065" x2="246.391" y2="290.561">
      <stop offset="0" style="stop-color: rgba(51, 51, 51, 1)"/>
      <stop offset="1" style="stop-color: rgba(0, 0, 0, 1)"/>
    </linearGradient>
    <linearGradient id="gradient-1" gradientUnits="userSpaceOnUse" x1="1018.3" y1="172.72" x2="1018.3" y2="178.87">
      <stop offset="0" style="stop-color: rgba(51, 51, 51, 1)"/>
      <stop offset="1" style="stop-color: rgba(0, 0, 0, 1)"/>
    </linearGradient>
    <linearGradient id="gradient-2" gradientUnits="userSpaceOnUse" x1="1018.4" y1="172.58" x2="1018.4" y2="178.73">
      <stop offset="0" style="stop-color: rgba(51, 51, 51, 1)"/>
      <stop offset="1" style="stop-color: rgba(0, 0, 0, 1)"/>
    </linearGradient>
    <linearGradient id="gradient-3" gradientUnits="userSpaceOnUse" x1="1009.25" y1="171.752" x2="1009.25" y2="175.094">
      <stop offset="0" style="stop-color: rgba(51, 51, 51, 1)"/>
      <stop offset="1" style="stop-color: rgba(0, 0, 0, 1)"/>
    </linearGradient>
    <linearGradient id="gradient-4" gradientUnits="userSpaceOnUse" x1="1006.706" y1="162.89" x2="1006.706" y2="169.55">
      <stop offset="0" style="stop-color: rgba(51, 51, 51, 1)"/>
      <stop offset="1" style="stop-color: rgba(0, 0, 0, 1)"/>
    </linearGradient>
    <linearGradient id="gradient-5" gradientUnits="userSpaceOnUse" x1="248.765" y1="117.73" x2="248.765" y2="287.264">
      <stop offset="0" style="stop-color: rgba(51, 51, 51, 1)"/>
      <stop offset="1" style="stop-color: rgba(0, 0, 0, 1)"/>
    </linearGradient>
    <linearGradient id="gradient-6" gradientUnits="userSpaceOnUse" x1="235.265" y1="276.089" x2="235.265" y2="328.954">
      <stop offset="0" style="stop-color: rgba(51, 51, 51, 1)"/>
      <stop offset="1" style="stop-color: rgba(0, 0, 0, 1)"/>
    </linearGradient>
    <linearGradient id="gradient-7" gradientUnits="userSpaceOnUse" x1="1017.36" y1="169.96" x2="1017.36" y2="173.61">
      <stop offset="0" style="stop-color: rgba(51, 51, 51, 1)"/>
      <stop offset="1" style="stop-color: rgba(0, 0, 0, 1)"/>
    </linearGradient>
    <linearGradient id="gradient-8" gradientUnits="userSpaceOnUse" x1="1014" y1="163.81" x2="1014" y2="171.39">
      <stop offset="0" style="stop-color: rgba(51, 51, 51, 1)"/>
      <stop offset="1" style="stop-color: rgba(0, 0, 0, 1)"/>
    </linearGradient>
    <linearGradient id="gradient-9" gradientUnits="userSpaceOnUse" x1="356.973" y1="248.78" x2="356.973" y2="306.55">
      <stop offset="0" style="stop-color: rgba(51, 51, 51, 1)"/>
      <stop offset="1" style="stop-color: rgba(0, 0, 0, 1)"/>
    </linearGradient>
    <linearGradient id="gradient-10" gradientUnits="userSpaceOnUse" x1="486.625" y1="284.9" x2="486.625" y2="330.569">
      <stop offset="0" style="stop-color: rgba(51, 51, 51, 1)"/>
      <stop offset="1" style="stop-color: rgba(0, 0, 0, 1)"/>
    </linearGradient>
    <linearGradient id="gradient-11" gradientUnits="userSpaceOnUse" x1="1017.429" y1="169.878" x2="1017.429" y2="173.37">
      <stop offset="0" style="stop-color: rgba(51, 51, 51, 1)"/>
      <stop offset="1" style="stop-color: rgba(0, 0, 0, 1)"/>
    </linearGradient>
    <linearGradient id="gradient-12" gradientUnits="userSpaceOnUse" x1="1025.15" y1="164.38" x2="1025.15" y2="173.22">
      <stop offset="0" style="stop-color: rgba(51, 51, 51, 1)"/>
      <stop offset="1" style="stop-color: rgba(0, 0, 0, 1)"/>
    </linearGradient>
    <linearGradient id="gradient-13" gradientUnits="userSpaceOnUse" x1="1026.696" y1="163.538" x2="1026.696" y2="175.038">
      <stop offset="0" style="stop-color: rgba(51, 51, 51, 1)"/>
      <stop offset="1" style="stop-color: rgba(0, 0, 0, 1)"/>
    </linearGradient>
    <linearGradient id="gradient-14" gradientUnits="userSpaceOnUse" x1="1007.648" y1="161.744" x2="1007.648" y2="164.66">
      <stop offset="0" style="stop-color: rgba(51, 51, 51, 1)"/>
      <stop offset="1" style="stop-color: rgba(0, 0, 0, 1)"/>
    </linearGradient>
    <linearGradient id="gradient-15" gradientUnits="userSpaceOnUse" x1="1030.15" y1="163.294" x2="1030.15" y2="165.89">
      <stop offset="0" style="stop-color: rgba(51, 51, 51, 1)"/>
      <stop offset="1" style="stop-color: rgba(0, 0, 0, 1)"/>
    </linearGradient>
    <linearGradient id="gradient-16" gradientUnits="userSpaceOnUse" x1="1032.448" y1="164.93" x2="1032.448" y2="171.455">
      <stop offset="0" style="stop-color: rgba(51, 51, 51, 1)"/>
      <stop offset="1" style="stop-color: rgba(0, 0, 0, 1)"/>
    </linearGradient>
  </defs>
  <g transform="matrix(0.123177, 0, 0, 0.123177, 201.763351, 743.986084)">
    <g id="layer1" transform="translate(-20.219 -117.73)">
      <g id="g3573">
        <path id="path3127" style="fill-rule: evenodd; fill: url(#gradient-0);" d="m244.01 172.71s3.45 28.5 23.26 54.73c9.4 12.45 45.83 33.52 45.83 33.52l19.85 23.94s-20.53 6.85-30.79 5.48-61.17-16.14-80.32-27.09c-19.16-10.94-53.36-49.52-55.42-58.42-2.05-8.89-11.5-32.01-3.29-47.07 8.21-15.05 24.1-22.03 28.89-22.72 4.79-0.68 49.94 22.58 49.94 22.58l2.05 15.05z"/>
        <g id="g3135" transform="matrix(15.741 1.5274 -1.5274 15.741 -15388 -3975.6)">
          <path id="path3137" style="opacity: 0.9529; filter: url(#filter4332); fill-rule: evenodd; fill: url(#gradient-1);" d="m1015 173.21s1.9-0.14 2.2 0.99-0.6 2.48 1.8 4.67c0.7-0.36 0.7-1.06 0.7-1.06l1.9 0.77s-1.5-2.19-1.5-3.11c0-0.91 0.2-2.05-0.4-2.4-0.7-0.35-3.8-0.35-3.8-0.35l-0.9 0.49z"/>
          <path id="path3139" style="fill-rule: evenodd; fill: url(#gradient-2);" d="m1015.1 173.08s1.9-0.14 2.2 0.99-0.6 2.47 1.8 4.66c0.7-0.35 0.7-1.06 0.7-1.06l1.9 0.78s-1.5-2.19-1.5-3.11 0.2-2.05-0.4-2.4c-0.7-0.36-3.8-0.36-3.8-0.36l-0.9 0.5z"/>
        </g>
        <path id="path3141" style="filter: url(#filter4358); fill-rule: evenodd; fill: url(#gradient-3);" transform="matrix(15.815 0 0 15.815 -15731 -2436.6)" d="m1010.4 171.77s-1.8 0.92-2.7 1.2c-0.8 0.28-5.5-0.07-5.5-0.07l2.4 0.78-0.6 1.41s3.5 0.04 4.8-0.14c1.9-0.26 2.5-1.77 5.1-1.84 1.6-0.04 2.4 0.14 2.4 0.14s-2.1-1.69-5.9-1.48z"/>
        <path id="path3143" d="m1008.6 163.52s-1.1-0.63-1.5-0.63c-0.5 0-2 0.58-2.1 1.36-0.2 0.79-0.4 2.42 0.3 3.36 0.8 0.95 1.9 1.94 1.9 1.94s-1.7-3.16-1-4.61c0.8-1.59 2.4-1.42 2.4-1.42z" style="filter: url(#filter5203); fill-rule: evenodd; fill: url(#gradient-4);" transform="matrix(15.815 0 0 15.815 -15731 -2436.6)"/>
        <path id="path3145" style="fill-rule: evenodd; fill: url(#gradient-5);" d="m232.25 117.91c-29.76 2.09-61.2 23.06-71.66 41.02-13.95 23.95 8.02 67.13 40.3 92.09 44.25 34.2 110.44 35.47 110.44 35.47 0-1.03 43.23 11.95 25.7-38.6-25.18-72.57-42.19-108.02-76.11-125.04-8.69-4.36-18.75-5.64-28.67-4.94zm-41.62 28.34c30.19-9.41 49.04 31.59 62.38 48.27 16.42 20.52 57.82 81.05 57.82 81.05l8.4 10.87s-4.57 0.08-50.41-10.87c-45.83-10.95-78.79-42-80.16-44.74-27.31-32.41-35.35-72.42 1.97-84.58z"/>
        <path id="path3147" style="fill-rule: evenodd; fill: url(#gradient-6);" d="m253.71 276.38s-29.07 14.53-42.48 19-87.19-1.12-87.19-1.12l38.01 12.3-10.07 22.35s55.74 0.55 76.02-2.23c29.92-4.1 39.12-27.95 80.48-29.07 24.81-0.67 38.01 2.24 38.01 2.24s-33.54-26.83-92.78-23.47z"/>
        <path id="path3149" style="filter: url(#filter4875); fill-rule: evenodd; fill: url(#gradient-7);" transform="matrix(15.815 0 0 15.815 -15731 -2436.6)" d="m1019.9 171.39s-3.1-1.43-3.8-1.43-1.9 1.37-1.5 2.21c0.3 0.85 2.8 1.44 3.6 1.44 0.7-0.18 1.3-0.4 2-0.72 0-0.45-0.3-1.5-0.3-1.5z"/>
        <path id="path3151" d="m1011.9 167.01l2.8 4.38 1.4-1.04s-1.4-3.13-2.2-4.52-1.3-2.02-1.3-2.02 1.2 2.92 0.9 3.48-1.5-0.28-1.6-0.28z" style="filter: url(#filter4943); fill-rule: evenodd; fill: url(#gradient-8);" transform="matrix(15.815 0 0 15.815 -15731 -2436.6)"/>
        <path id="path3153" style="fill-rule: evenodd; fill: url(#gradient-9);" d="m398.03 272.81c-4.89-4.12-49.56-24.03-60.91-24.03s-29.91 21.66-24.76 35.07c5.16 13.41 45.39 22.7 57.77 22.7 11.03-2.83 21.05-6.33 31.98-11.35 0-7.22 2.15-15.29-4.08-22.39z"/>
        <path id="path3155" style="fill-rule: evenodd; fill: url(#gradient-10);" d="m379.46 306.11s35.54 13.03 57.43 16.45 66.4 10.92 77.35 6.81c10.94-4.1 70.46-16.42 78.67-29.41 8.21-13-43.78-15.06-43.78-15.06s-29.42 18.48-49.95 19.84c-20.52 1.37-80.72-12.99-80.72-12.99l-38.31 10.26-0.69 4.1z"/>
        <path id="path3157" d="m1015.6 169.98s0.4-0.17 0.7-0.07c0.4 0.13 0.7 0.18 1.6 0.57 1 0.43 1.7 0.76 1.8 0.81 0.5 0.48 0.1 0.98 0.2 1.54-0.4 0.17-1.4 0.51-1.6 0.54-0.7-0.65 0.1-1.76 1.1-1.84-0.2-0.22-1.2-0.73-1.5-0.85-0.8-0.33-1.7-0.65-1.7-0.65s-0.9-0.11-1.3 0.61c0.1-0.36 0.7-0.7 0.7-0.66z" style="filter: url(#filter5073); fill-rule: evenodd; fill: url(#gradient-11);" transform="matrix(15.815 0 0 15.815 -15731 -2436.6)"/>
        <g id="g3159" transform="matrix(15.815 0 0 15.815 -15731 -2436.6)">
          <path id="path3161" style="fill-rule: evenodd; fill: url(#gradient-12);" d="m1019 173.12l2.1-0.52s3.5-2.94 3.9-3.12c2-1.64 4.5-2.25 6.5-1.51 0 0-0.2-2.64-0.9-2.98-0.7-0.35-2.6-0.61-2.6-0.61s-2.6 1.73-2.9 2.03-4.7 4.63-4.7 4.63l-1.3 1.62-0.3 0.56 0.2-0.1z"/>
          <path id="path3163" style="fill-rule: evenodd; fill: url(#gradient-13);" d="m1029.8 163.55c-3.4 0.22-10 8.06-10.4 8.49s-1 1.37-1 1.32c0 0 4.3 1.88 7.9 1.66s8.2-2.41 8.6-5.54c0.6-3.6-1.8-6.14-5.1-5.93zm-2.3 1.49c1.1-0.2 3.5-0.22 3.1 3.42-0.3 2.25-1.9 5.82-5.2 6-3.3 0.17-6.6-1.27-6.6-1.31 0 0 5.3-5.61 5.6-5.79 0.2-0.17 1.8-2 3.1-2.32z"/>
        </g>
        <path id="path3165" d="m1004.7 164.66c-0.1-0.82 1.5-2.01 2.9-2.53 1.3-0.53 3-0.36 3-0.36s-1.5 0.67-2.1 1.12c-1.2-0.12-2.4 0.41-2.4 0.41s-0.7 0.28-1.4 1.36z" style="opacity: 0.55797; filter: url(#filter5115); fill-rule: evenodd; fill: url(#gradient-14);" transform="matrix(15.815 0 0 15.815 -15731 -2436.6)"/>
        <path id="path3167" style="opacity: 0.55797; filter: url(#filter5115); fill-rule: evenodd; fill: url(#gradient-15);" d="m1026.8 165.52c0.8-1.14 1.3-1.64 2.9-2.13 1.4-0.42 3.8 0.67 3.8 0.67s-1.3 1.37-1.9 1.83c-0.7-0.94-2.5-1.22-2.5-1.22s-1.1-0.15-2.3 0.85z" transform="matrix(15.416 3.5311 -3.5311 15.416 -14738 -6002.9)"/>
        <path id="path3169" d="m1030.8 165.7s0.7 1.76 0.3 3.24-1 2.36-1 2.36 2 0.38 3-0.05c1-0.44 1.5-1.27 1.5-1.27s0.5-2.47-0.1-3.62-1.4-1.43-1.4-1.43-1.4 0-2.3 0.77z" style="filter: url(#filter5389); fill-rule: evenodd; fill: url(#gradient-16);" transform="matrix(15.815 0 0 15.815 -15731 -2436.6)"/>
      </g>
    </g>
  </g>
</svg>