<?xml version="1.0" encoding="utf-8"?>
<svg class="glasses" width="86" height="380" viewBox="202.715 584.407 86.5933 380.048" preserveAspectRatio="xMidYMax" xmlns="http://www.w3.org/2000/svg" xmlns:xlink="http://www.w3.org/1999/xlink">
  <defs id="svgEditorDefs">
    <path id="svgEditorClosePathDefs" fill="black" style="stroke-width: 0px; stroke: none;" class="clothes"/>
    <pattern id="pattern3224" patternTransform="translate(3.9057 84.358)" xlink:href="#pattern3217"/>
    <pattern id="pattern3217" width="7.3207528" patternUnits="userSpaceOnUse" patternTransform="translate(2.8868 82.83)" height="7.3207528">
      <g id="g3213" transform="matrix(.55908 0 0 .55908 -1.6139 -46.308)">
        <path id="path3209" style="fill-rule:evenodd;stroke-width:0;fill:#b3b3b3" d="m9.3396 86.056a3.2264 3.2264 0 1 1 -6.4528 0 3.2264 3.2264 0 1 1 6.4528 0z"/>
        <path id="path3211" style="fill-rule:evenodd;stroke-width:0;fill:#b3b3b3" d="m9.3396 86.056a3.2264 3.2264 0 1 1 -6.4528 0 3.2264 3.2264 0 1 1 6.4528 0z" transform="translate(6.6415 6.6415)"/>
      </g>
    </pattern>
    <pattern id="pattern-1" patternTransform="translate(3.9057 84.358)" xlink:href="#pattern3217"/>
  </defs>
  <rect id="svgEditorBackground" x="202.71499633789062" y="584.4310302734375" width="86.59329986572266" height="115.80899810791016" style="fill: none; stroke: none; stroke-width: 0;" class="clothes"/>
  <rect id="rect-1" x="-403.988" y="499.579" width="1300" height="550" style="fill: none; stroke: none; stroke-width: 0;" class="clothes"/>
  <path style="stroke: black; fill: none; stroke-width: 0;" class="clothes"/>
  <path style="stroke: black; fill: none; stroke-width: 0;" class="clothes"/>
  <path d="M 260.808 828.783 L 257.184 828.783 L 260.808 828.783 Z" style="stroke: black; fill: none; stroke-width: 0;" class="clothes"/>
  <path style="stroke: black; fill: none; stroke-width: 0;" class="clothes"/>
  <path style="stroke: black; fill: none; stroke-width: 0;" class="clothes"/>
  <g transform="matrix(0.179405, 0, 0, 0.179405, 221.030487, 821.259033)">
    <g id="layer1">
      <g id="g3250" transform="matrix(0 -1 1 0 1.6691 131.73)">
        <rect id="rect3252" ry="5" style="stroke-linejoin:round;fill-rule:evenodd;stroke:#000000;stroke-linecap:round;stroke-width:8;fill:#ff9955" transform="rotate(-45)" height="62.72" width="40.833" y="62.151" x="-17.868"/>
        <path id="path3254" style="stroke-linejoin:round;fill-rule:evenodd;stroke:#000000;stroke-linecap:round;stroke-width:4;fill:#ff6600" transform="rotate(-45)" d="m-22.471 46.675c-0.151-13.764 12.974-19.704 21.051-19.555 8.3513 0.155 21.02 8.007 20.495 19.555v95.825c-0.038 13.52-13.91 18.04-20.305 18.05-8.3544 0.01-20.53-5.67-21.241-18.05v-95.825z"/>
        <rect id="rect3256" ry="5" style="fill-rule:evenodd;fill:#ff9955" transform="rotate(-45)" height="62.72" width="40.833" y="62.151" x="-17.868"/>
        <path id="path3258" style="fill-rule:evenodd;fill:url(#pattern3224)" d="m61.567 31.069c-1.278 0-2.312 0.13-3.292 1.109l-22.412 20.972c-1.959 1.959-1.959 5.104 0 7.062l37.281 37.282c1.959 1.958 4.424 1.449 6.383-0.51l21.303-21.303c1.96-1.959 2.55-4.623 0.59-6.582l-36.202-36.081c-0.979-0.979-2.373-1.949-3.651-1.949z"/>
      </g>
      <g id="g3244">
        <rect id="rect3031" style="stroke-linejoin:round;fill-rule:evenodd;stroke:#000000;stroke-linecap:round;stroke-width:8;fill:#ff9955" transform="rotate(-45)" ry="5" height="62.72" width="40.833" y="62.151" x="-17.868"/>
        <path id="rect3026" style="stroke-linejoin:round;fill-rule:evenodd;stroke:#000000;stroke-linecap:round;stroke-width:4;fill:#ff6600" transform="rotate(-45)" d="m-22.471 46.675c-0.151-13.764 12.974-19.704 21.051-19.555 8.3513 0.155 21.02 8.007 20.495 19.555v95.825c-0.038 13.52-13.91 18.04-20.305 18.05-8.3544 0.01-20.53-5.67-21.241-18.05v-95.825z"/>
        <rect id="rect3029" style="fill-rule:evenodd;fill:#ff9955" transform="rotate(-45)" ry="5" height="62.72" width="40.833" y="62.151" x="-17.868"/>
        <path id="rect3192" style="fill-rule:evenodd;fill:url(#pattern3224)" d="m61.567 31.069c-1.278 0-2.312 0.13-3.292 1.109l-22.412 20.972c-1.959 1.959-1.959 5.104 0 7.062l37.281 37.282c1.959 1.958 4.424 1.449 6.383-0.51l21.303-21.303c1.96-1.959 2.55-4.623 0.59-6.582l-36.202-36.081c-0.979-0.979-2.373-1.949-3.651-1.949z"/>
      </g>
    </g>
  </g>
  <g transform="matrix(0.230863, 0, 0, 0.230863, 245.608856, 753.492554)">
    <g id="g-1">
      <rect id="rect-2" ry="5" style="stroke-linejoin:round;fill-rule:evenodd;stroke:#000000;stroke-linecap:round;stroke-width:8;fill:#ff9955" transform="rotate(-45)" height="62.72" width="40.833" y="62.151" x="-17.868"/>
      <path id="path-1" style="stroke-linejoin:round;fill-rule:evenodd;stroke:#000000;stroke-linecap:round;stroke-width:4;fill:#ff6600" transform="rotate(-45)" d="m-22.471 46.675c-0.151-13.764 12.974-19.704 21.051-19.555 8.3513 0.155 21.02 8.007 20.495 19.555v95.825c-0.038 13.52-13.91 18.04-20.305 18.05-8.3544 0.01-20.53-5.67-21.241-18.05v-95.825z"/>
      <rect id="rect-3" ry="5" style="fill-rule:evenodd;fill:#ff9955" transform="rotate(-45)" height="62.72" width="40.833" y="62.151" x="-17.868"/>
      <path id="path-2" style="fill-rule: evenodd; fill: url(#pattern-1);" d="m61.567 31.069c-1.278 0-2.312 0.13-3.292 1.109l-22.412 20.972c-1.959 1.959-1.959 5.104 0 7.062l37.281 37.282c1.959 1.958 4.424 1.449 6.383-0.51l21.303-21.303c1.96-1.959 2.55-4.623 0.59-6.582l-36.202-36.081c-0.979-0.979-2.373-1.949-3.651-1.949z"/>
    </g>
  </g>
</svg>