<?xml version="1.0" encoding="utf-8"?>
<svg class="glasses" width="86" height="380" viewBox="202.715 584.407 86.5933 380.048" preserveAspectRatio="xMidYMax" xmlns="http://www.w3.org/2000/svg">
  <defs id="svgEditorDefs">
    <path id="svgEditorClosePathDefs" fill="black" style="stroke-width: 0px; stroke: none;" class="clothes"/>
  </defs>
  <g transform="matrix(0.075235, -0.039895, 0.056265, 0.106106, 208.142502, 772.773926)">
    <g id="layer1">
      <g id="g2164" style="fill:#ff8c00" transform="translate(-20,-260)">
        <path id="path2031" style="color: black; stroke: black; stroke-width: 3.29; fill: rgb(93, 255, 0);" d="m30.014 279.4s318.35-0.63 326.15 3.27c7.81 3.9 37.71 6.5 37.71 6.5s-28.6 3.9-44.21 24.71c-15.6 20.8-29.9 40.3-29.9 40.3l-289.83 1.04"/>
        <path id="path3808" style="color: black; stroke: black; stroke-width: 3.29; fill: rgb(93, 255, 0);" d="m345.81 318.36c19.37-27.98 41.61-25.11 48.78-28.7 7.17-3.58 22.96 43.76 7.17 53.09-15.78 9.33-53.8 43.04-53.8 43.04l-0.72 1.44"/>
        <path id="path6433" style="color: black; stroke: black; stroke-width: 3.29; fill: rgb(93, 255, 0);" d="m475.66 309.75c-7.9-30.13 7.89-37.3-24.4-35.15-32.28 2.15-53.08-2.87-54.52 8.61-1.43 11.48-10.04 66.71 9.33 74.61 19.37 7.89 80.35 38.74 82.5 24.39s-7.89-19.37-7.89-19.37l-5.02-53.09z"/>
        <path id="path6443" style="color: black; stroke: black; stroke-width: 3.2344; fill: rgb(93, 255, 0);" d="m722.89 359.52l-210.01 0.57 1.44-82.65 210.07 1.28"/>
        <path id="path6437" style="color: black; stroke: black; stroke-width: 3.29; fill: rgb(93, 255, 0);" d="m472.79 288.23s88.24 22.96 84.65 31.56c-3.59 8.61-25.11 61.7-35.87 59.55s-40.89-10.05-42.33-17.22c-1.43-7.17-5.74-73.17-6.45-73.89z"/>
        <path id="path6439" style="color: black; stroke: black; stroke-width: 3.29; fill: rgb(93, 255, 0);" d="m550.98 314.05s78.81-8.93 68.87-17.21c-12.91-10.76-62.41-39.46-77.48-35.16-15.06 4.31-60.98 28.7-60.98 28.7l69.59 23.67z"/>
        <path id="path6435" style="color: black; stroke: black; stroke-width: 3.29; fill: rgb(93, 255, 0);" d="M 548.116 648.659 C 548.116 648.659 549.544 332.089 545.964 327.068 C 542.374 322.048 544.523 277.569 509.373 289.039 C 474.223 300.519 462.023 305.539 462.023 305.539 C 462.023 305.539 477.803 296.219 479.243 311.279 C 480.674 326.349 472.227 648.509 472.227 648.509" transform="matrix(0.903948, 0.335472, -0.545145, 0.903945, 303.604026, -124.538983)"/>
        <path id="path2933" style="color: black; stroke: black; stroke-width: 3.29; fill: rgb(93, 255, 0);" d="M 248.963 650.808 C 248.963 650.808 253.593 434.188 251.783 413.298 C 249.363 385.318 315.502 278.658 323.302 276.048 C 331.102 273.448 328.503 651.249 328.503 651.249" transform="matrix(0.951103, 0.242302, -0.393744, 0.951101, 196.68448, -47.339465)"/>
      </g>
    </g>
  </g>
</svg>