<?xml version="1.0" encoding="utf-8"?>
<svg class="tails" width="86" height="380" viewBox="202.71499633789062 584.406982421875 163.34844970703125 380.0480041503906" preserveAspectRatio="xMidYMid meet" xmlns="http://www.w3.org/2000/svg">
  <defs id="svgEditorDefs">
    <path id="svgEditorClosePathDefs" class="lines" fill="black" style="stroke-width: 0px; stroke: none;"/>
  </defs>
  <path d="M 273.233 769.751 C 292.036 769.751 313.837 766.67 330.022 782.856 C 333.747 786.581 333.442 796.562 335.638 800.953 C 338.344 806.364 339.397 814.653 336.886 819.675 C 333.56 826.327 330.998 834.924 325.029 840.893 C 321.955 843.967 306.33 840.87 301.939 845.261 C 299.102 848.098 291 852.896 285.714 850.253 C 275.952 845.373 259.758 832.896 267.616 817.179 C 270.859 810.693 277.294 808.432 280.098 802.825 C 281.311 800.399 298.819 798.457 298.819 798.457 C 298.819 798.457 281.346 792.841 281.346 792.841 C 281.346 792.841 312.386 789.559 315.044 792.216 C 316.482 793.654 301.332 812.49 298.195 814.058 C 297.334 814.489 299.443 804.073 299.443 804.073 C 299.443 804.073 267.127 819.186 280.098 832.156 C 293.336 845.393 316.984 831.397 323.781 817.803 C 337.903 789.558 304.102 782.329 288.834 777.239 C 283.212 775.365 262.624 780.495 262.624 774.743" style="stroke: rgb(0, 0, 0); fill: rgb(255, 0, 0);"/>
</svg>