<svg class="tails" width="86" height="380" viewBox="202.715 584.407 198.848 380.048" xmlns="http://www.w3.org/2000/svg"><path d="M260.412 758.125c4.562 0 18.619-9.936 23.831-12.543 12.703-6.351 27.976 7.023 38.256 1.882 8.288-4.144 17.299-8.04 25.713-15.052 1.955-1.629 30.674-26.396 25.086-31.984-4.746-4.745-6.803-15.582-12.543-21.323-2.466-2.466-16.412-2.255-18.187-2.508-19.703-2.815-21.859-19.168-26.967-34.493-1.019-3.055-3.166-11.886 0-15.051 10.549-10.55 30.893-14.506 43.272-20.696 1.019-.509-4.912 4.39-6.898 4.39-4.248 0-10.683 7.568-12.543 11.288-3.7 7.4 7.262-7.789 12.543-2.508 1.709 1.709-15.159 18.08-10.035 23.204.882.882 4.76-7.784 7.526-5.017.139.139 2.03 17.378 2.509 18.814 2.73 8.19 18.399 9.832 23.204 19.442 6.086 12.171 11.937 9.45 7.526 38.255-.158 1.03-4.638 10.238-5.645 11.916-6.434 10.723-14.444 18.854-20.695 31.357-.756 1.512-13.377 5.437-13.797 5.017-1.961-1.96 8.404 1.192 8.78 1.255 6.598 1.099 7.901-9.701 18.814-13.171 2.424-.771 16.967-1.253 14.424-1.253-12.882 0-50.346 28.527-62.087 23.83-9.463-3.785-23.123-16.932-31.984-16.932" stroke="#000" fill="#92d082"/></svg>