<?xml version="1.0" encoding="utf-8"?>
<svg class="tails" width="86" height="380" viewBox="202.71499633789062 584.406982421875 198.848388671875 380.0480041503906" preserveAspectRatio="xMidYMid meet" xmlns="http://www.w3.org/2000/svg">
  <defs id="svgEditorDefs">
    <path id="svgEditorClosePathDefs" class="lines" fill="black" style="stroke-width: 0px; stroke: none;"/>
  </defs>
  <path d="M 260.412 758.125 C 264.974 758.125 279.031 748.189 284.243 745.582 C 296.946 739.231 312.219 752.605 322.499 747.464 C 330.787 743.32 339.798 739.424 348.212 732.412 C 350.167 730.783 378.886 706.016 373.298 700.428 C 368.552 695.683 366.495 684.846 360.755 679.105 C 358.289 676.639 344.343 676.85 342.568 676.597 C 322.865 673.782 320.709 657.429 315.601 642.104 C 314.582 639.049 312.435 630.218 315.601 627.053 C 326.15 616.503 346.494 612.547 358.873 606.357 C 359.892 605.848 353.961 610.747 351.975 610.747 C 347.727 610.747 341.292 618.315 339.432 622.035 C 335.732 629.435 346.694 614.246 351.975 619.527 C 353.684 621.236 336.816 637.607 341.94 642.731 C 342.822 643.613 346.7 634.947 349.466 637.714 C 349.605 637.853 351.496 655.092 351.975 656.528 C 354.705 664.718 370.374 666.36 375.179 675.97 C 381.265 688.141 387.116 685.42 382.705 714.225 C 382.547 715.255 378.067 724.463 377.06 726.141 C 370.626 736.864 362.616 744.995 356.365 757.498 C 355.609 759.01 342.988 762.935 342.568 762.515 C 340.607 760.555 350.972 763.707 351.348 763.77 C 357.946 764.869 359.249 754.069 370.162 750.599 C 372.586 749.828 387.129 749.346 384.586 749.346 C 371.704 749.346 334.24 777.873 322.499 773.176 C 313.036 769.391 299.376 756.244 290.515 756.244" style="stroke: rgb(0, 0, 0); fill: rgb(148, 148, 148);"/>
</svg>