<svg class="bottomOverlay" width="86" height="380" viewBox="202.715 584.407 86.593 380.048" xmlns="http://www.w3.org/2000/svg"><defs><linearGradient id="b" y2="5.628" gradientUnits="userSpaceOnUse" x2="177.82" gradientTransform="translate(.778)" y1="581.14" x1="177.82"><stop offset="0" stop-color="#06001f"/><stop offset="1" stop-color="#0062bf"/></linearGradient><linearGradient id="c" y2="369.47" gradientUnits="userSpaceOnUse" x2="169.1" gradientTransform="translate(.778)" y1="534.81" x1="334.44"><stop offset="0" stop-color="#989f00"/><stop offset="1" stop-color="#fff81f"/></linearGradient><linearGradient id="d" y2="51.202" gradientUnits="userSpaceOnUse" x2="190.46" gradientTransform="translate(.778)" y1="190.54" x1="190.46"><stop offset="0" stop-color="#dbff5f"/><stop offset="1" stop-color="#fff81f"/></linearGradient><filter id="a"><feGaussianBlur stdDeviation="11.835"/></filter></defs><path d="M204.32 325.44c.24-73.87.48-147.74.71-221.69-17.51 31.07-46.21 77.28-62.06 110.57-16.41 33.29-36.06 70.7-51.915 108.35 37.725.87 75.455 1.82 113.26 2.77zm-34.64 255.7c-.63-47.4-1.27-94.8-1.9-142.19H3.95c-.003-16.65 1.9-18.71 1.9-30.28.555-12.37.555-21.01.555-28.3V362.3c0-6.5-.555-13.71-.555-23.14 26.078-55.72 53.818-111.44 83.303-166.45C119.19 117.07 150.42 61.35 183.87 5.63c18.71 3.565 37.41 7.21 56.12 9.351 19.34 2.219 27.02 4.359 48.03 5.786.31 106.6.71 213.21 1.11 319.81h64.12c-1.19 32.02-2.46 64.05-3.72 96.07l-62.94-.72c1.03 48.35 2.06 96.78 3.09 145.21h-120z" fill-rule="evenodd" fill="url(#b)" transform="matrix(.0891 0 0 .08296 248.798 795.318)"/><path d="M156.92 441.24l-35.35-24.25 46.05 6.42-23.86-38.92 40.11 15.06-15.06-40.89 40.9 14.26-17.91-39.23 44.06 23.78-9.9-43.28 35.35 29.41.79-42.09 28.14 27.42 2.38 8.72 63.17 1.59-.4 99.23-64.36 1.98 1.19 142.12-124.99.39-.8-140.92-9.51-.8z" stroke="#000" stroke-width=".036" stroke-miterlimit="10" fill-rule="evenodd" transform="matrix(.0891 0 0 .08296 248.798 795.318)"/><path d="M156.92 436.88l-22.67-13.87 42.09 5.55-26.23-37.72 39.31 15.45-14.66-41.69 42.09 16.33-17.13-38.13 42.09 20.61-9.51-38.12 32.57 25.44.4-38.92 24.17 21.09.8 7.52 61.98 1.19-.4 94.09-62.77 1.58.79 142.91-119.05.39-.79-142.9-13.08-.8z" fill-rule="evenodd" stroke="#000" stroke-width=".036" stroke-miterlimit="10" fill="url(#c)" transform="matrix(.0891 0 0 .08296 248.798 795.318)"/><path d="M231.5 39.71c15.15 5.469 26 13.315 33.77 25.046 7.69 11.492 11.81 29.485 11.49 43.594-.79 14.03-2.85 25.44-15.06 39.71-12.36 13.95-31.38 28.22-57.94 43.67l1.19-37.33c11.26-3.33 20.93-10.23 29.33-21 8.16-10.94 21.08-28.06 20.69-43.677-.64-15.851-8.17-32.101-23.47-50.013zM174.75 162.8c.64 1.27-4.91 3.09-17.83 6.34-12.84 2.94-32.34 6.9-58.81 11.89 7.45 3.96 15.61 7.13 25.44 9.51 9.59 2.38 20.21 3.97 32.18 4.76 6.34-10.78 12.68-21.64 19.02-32.5z" stroke="#000" stroke-width=".036" stroke-miterlimit="10" fill-rule="evenodd" transform="matrix(.0891 0 0 .08296 248.798 795.318)"/><path d="M164.85 172.31c-3.73 6.11-7.45 12.21-11.1 18.23-10.07-.87-18.47-1.82-25.84-3.17-7.29-1.42-13.48-3.25-18.23-5.15 12.92-1.5 24.02-3.09 33.29-4.76 9.12-1.66 16.41-3.48 21.88-5.15zm39.31-12.68v24.17c7.77-2.69 16.73-7.84 26.55-15.45 9.83-7.85 25.36-20.05 32.58-30.2 6.66-9.99 9.51-19.02 9.51-30.2-.24-11.808-4.2-29.245-9.11-38.835-5-9.59-11.18-15.456-19.5-17.913 6.73 11.256 11.02 20.608 13.15 29.01 1.83 8.244.95 12.84-.79 20.208-2.06 7.3-5.15 15.06-9.59 22.67-4.28 7.29-9.83 14.27-16.64 20.61-7.37 6.18-15.7 11.18-26.16 15.93z" fill-rule="evenodd" stroke="#000" stroke-width=".036" stroke-miterlimit="10" fill="url(#d)" transform="matrix(.0891 0 0 .08296 248.798 795.318)"/><path d="M69.971 252.37c4.201-14.43 7.609-21.48 9.908-21.8 2.219-.32 3.646 6.42 3.965 20.21 8.084-2.85 12.441-3.25 13.076-1.19.555 1.9-2.614 6.26-9.512 13.08 3.965 11.65 4.915 17.91 3.169 19.1-2.06.95-6.497-2.85-14.266-12.29-8.4 10.47-13.79 15.06-15.853 14.67-2.061-.79-1.109-6.58 3.172-18.23-6.421-2.7-9.196-4.99-8.006-7.21 1.032-2.3 5.709-4.52 14.347-6.34z" stroke="#000" stroke-width=".036" stroke-miterlimit="10" fill-rule="evenodd" transform="matrix(.0891 0 0 .08296 248.798 795.318)"/><path d="M73.936 252.76c1.505-9.27 2.933-13.87 3.961-13.47.952.47 1.746 5.23 2.377 15.45 6.025-2.77 9.434-3.56 9.908-2.37.478 1.11-1.664 4.04-6.736 9.11 4.358 7.69 5.945 12.05 4.756 12.76-1.426.72-5.23-2.06-12.285-8.32-5.468 7.92-8.799 11.65-10.306 11.49-1.505-.39-.87-4.67 1.587-13.15-6.656-.88-9.035-1.99-8.007-3.97 1.032-2.06 5.946-4.36 14.745-7.53z" fill-rule="evenodd" stroke="#000" stroke-width=".036" stroke-miterlimit="10" fill="#ffff80" transform="matrix(.0891 0 0 .08296 248.798 795.318)"/><path d="M231.66 197.12c11.1-4.36 17.44-5.7 18.71-4.36 1.35 1.43-2.38 5.23-10.86 12.37 5.63 3.8 8.01 6.26 7.14 7.69-1.04 1.26-5.24 1.5-12.92.39-5.47 8.25-8.96 11.81-10.46 11.34-1.59-.64-1.43-5.63.79-14.98-11.02-.32-16.33-1.27-17.12-2.86-.64-1.74 3.64-3.96 13.15-6.97-1.5-5.39-1.43-7.93.56-8.48 1.98-.32 5.55 1.34 11.01 5.86z" stroke="#000" stroke-width=".036" stroke-miterlimit="10" fill-rule="evenodd" transform="matrix(.0891 0 0 .08296 248.798 795.318)"/><path d="M233.41 199.82c6.65-3.57 10.14-4.92 10.46-4.05.16.8-2.61 3.81-8.64 9.04 4.68 2.61 6.82 4.12 6.42 5.15-.55.95-3.49.79-9.11.16-2.78 6.58-4.68 9.67-5.71 9.27-1.11-.47-1.35-4.44-.71-11.89-7.77.48-11.89.08-12.37-.87-.63-1.03 2.38-2.93 9.04-5.39-2.62-4.52-3.17-6.73-1.35-6.97s5.71 1.5 11.97 5.55z" fill-rule="evenodd" stroke="#000" stroke-width=".036" stroke-miterlimit="10" fill="#ffff80" transform="matrix(.0891 0 0 .08296 248.798 795.318)"/><path d="M198.77 49.458c11.18-4.28 17.28-5.866 18.63-4.438 1.35 1.347-2.38 5.389-10.86 12.444 5.78 3.804 8.08 6.261 7.21 7.688-.95 1.268-5.39 1.505-13 .396-5.47 8.244-8.95 11.811-10.46 11.334-1.59-.555-1.43-5.786.79-15.06-10.86-.396-16.25-1.03-17.04-2.773-.71-1.506 3.65-4.122 13.08-6.975-1.59-5.391-1.27-7.926.63-8.482 1.99-.315 5.55 1.349 11.02 5.866z" stroke="#000" stroke-width=".036" stroke-miterlimit="10" fill-rule="evenodd" transform="matrix(.0891 0 0 .08296 248.798 795.318)"/><path d="M200.43 52.153c6.66-3.567 10.15-4.914 10.47-4.042.16.792-2.62 3.805-8.64 9.036 4.68 2.616 6.81 4.122 6.42 5.152-.56.951-3.49.793-9.12.159-2.61 6.578-4.6 9.67-5.62 9.273-1.11-.475-1.27-4.439-.8-11.889-7.77.475-11.89.079-12.36-.872-.56-1.031 2.38-2.933 9.11-5.39-2.77-4.518-3.25-6.737-1.42-6.975 1.82-.237 5.7 1.506 11.96 5.548z" fill-rule="evenodd" stroke="#000" stroke-width=".036" stroke-miterlimit="10" fill="#ffff80" transform="matrix(.0891 0 0 .08296 248.798 795.318)"/><path d="M80.989 350.02c20.691-8.01 31.861-10.62 34.481-8.17 2.3 2.54-4.28 9.91-20.054 22.99 10.544 7.05 14.974 11.57 13.314 14.18-1.98 2.46-9.671 2.62-23.937.8-10.066 15.22-16.327 21.87-19.419 20.92-3.013-1.34-2.537-10.3 1.428-27.82-19.975-.47-30.2-2.22-31.546-5.23-1.109-3.01 6.656-7.29 24.174-12.84-2.854-9.83-2.459-14.98 1.188-15.77 3.647-.72 10.226 2.61 20.371 10.94z" stroke="#000" stroke-width=".036" stroke-miterlimit="10" fill-rule="evenodd" transform="matrix(.0891 0 0 .08296 248.798 795.318)"/><path d="M84.158 355.01c12.367-6.66 18.702-9.19 19.342-7.61.32 1.66-4.597 6.9-15.933 16.88 8.799 4.76 12.443 7.69 11.809 9.44-1.027 1.58-6.338 1.58-16.801.31-5.074 12.21-8.481 17.92-10.543 17.12-2.061-.95-2.535-8.16-1.426-21.95-14.426.71-21.719.47-22.828-1.59s4.598-5.31 16.805-10.06c-5.074-8.41-5.946-12.29-2.616-12.84 3.329-.4 10.62 2.93 22.191 10.3z" fill-rule="evenodd" stroke="#000" stroke-width=".036" stroke-miterlimit="10" fill="#ffff80" transform="matrix(.0891 0 0 .08296 248.798 795.318)"/><path d="M236.97 260.29c4.36-14.35 7.37-21.64 9.91-21.87 2.22-.32 3.57 6.34 4.04 20.29 8.09-2.86 12.45-3.25 13.08-1.19.56 1.9-2.62 6.26-9.51 13.08 3.96 11.65 4.92 17.91 3.17 19.1-1.98 1.03-6.66-3.09-14.35-12.37-8.4 10.31-13.79 15.22-15.85 14.75-2.06-.8-1.11-6.58 3.17-18.31-6.5-2.54-9.03-4.92-7.93-7.14 1.04-2.37 5.79-4.28 14.27-6.34z" stroke="#000" stroke-width=".036" stroke-miterlimit="10" fill-rule="evenodd" transform="matrix(.0891 0 0 .08296 248.798 795.318)"/><path d="M240.94 260.69c1.5-9.27 2.93-13.87 3.96-13.48.95.48 1.74 5.23 2.38 15.46 6.26-2.77 9.19-3.57 9.99-2.38.55 1.11-1.83 4.04-6.82 9.12 4.52 7.76 6.02 11.89 4.83 12.68-1.34.47-5.47-1.9-12.36-8.32-5.47 7.92-8.8 11.65-10.31 11.49-1.5-.48-.87-4.52 1.59-13.08-6.5-.87-9.03-1.98-7.93-3.96 1.04-2.06 6.03-4.36 14.67-7.53z" fill-rule="evenodd" stroke="#000" stroke-width=".036" stroke-miterlimit="10" fill="#ffff80" transform="matrix(.0891 0 0 .08296 248.798 795.318)"/></svg>