<svg class="bottomOverlay" width="86" height="380" viewBox="202.715 584.407 86.593 380.048" xmlns="http://www.w3.org/2000/svg" xmlns:xlink="http://www.w3.org/1999/xlink"><defs><pattern id="c" width="20" height="20" patternUnits="userSpaceOnUse" viewBox="0 0 100 100"><path fill="#fffefe" d="M-.962-.641h105.929V100.16H-.962z"/><path d="M-30.389-4.211h600v358.29h-600z" transform="matrix(.18448 0 0 .29108 2.476 -.544)"/><path d="M97.356 692.96c.771-6.15 3.304-14.23 6.774-21.56 3.26-6.9 3.65-12.05 1.41-18.41-2.09-5.9-1.74-11.82.74-12.61 1.33-.42 1.77-1.23 1.41-2.61-.29-1.1.6-5.35 1.98-9.45 3.02-8.98 2.82-13.6-.79-18.67-1.5-2.09-3.02-5.24-3.38-7-.62-2.98-4.71-12-8.03-17.69-.969-1.66-1.412-5.01-1.32-10 .144-7.77-1.637-16.95-3.536-18.23-2.756-1.87-3.44-.74-2.875 4.73.39 3.78.211 5.5-.573 5.5-.627 0-1.139-.75-1.139-1.67 0-2.38-1.473-.59-1.642 2-.078 1.2-1.334 6.45-2.791 11.67-3.885 13.93-6.428 26.02-6.646 31.59-.206 5.25.962 16.29 1.891 17.87.309.52.667 1.94.795 3.14s1.393 4.72 2.812 7.82c1.42 3.1 2.581 6.23 2.581 6.95 0 .73.9 2.13 2 3.13s2 2.59 2 3.53c0 .95.626 2.25 1.391 2.88 1.806 1.5 2.69 4.92 1.466 5.68-.55.34-.587 1.08-.089 1.75.476.64.98 7.64 1.119 15.55.195 11.05.618 14.95 1.819 16.78.86 1.32 1.676 2.27 1.811 2.11.136-.15.501-2.3.812-4.78zm-3.577-52c-1.834-6-4.785-19.95-4.653-22 .089-1.37-.308-4.45-.882-6.84-.575-2.39-.882-8.58-.683-13.78.289-7.52.763-9.94 2.345-11.95l1.984-2.53.706 4.72c.409 2.72.286 5.38-.291 6.31-.601.96-.655 2.52-.137 3.92.475 1.29.584 2.79.244 3.34-.341.55-.084 3.77.571 7.15 2.331 12.06 1.971 11.16 3.745 9.39.871-.87 1.778-3.53 2.015-5.9.446-4.46.886-5.56 1.837-4.61 1.63 1.64-.17 18.12-2.706 24.78-1.154 3.03-2.444 6.4-2.867 7.5-.598 1.55-.871 1.67-1.228.5zm-17.715 18.75c.543-1.24 1.793-3.6 2.777-5.25 2.154-3.61 2.092-8.98-.189-16.5-3.987-13.14-5.895-32.56-3.753-38.2 2.07-5.46 3.388-10.34 3.586-13.29.117-1.74.502-3.64.856-4.21 1.244-2.01 2.509-17.63 1.619-19.98-.662-1.74-1.66-2.32-3.974-2.32-1.7 0-3.914-.44-4.92-.98-2.304-1.23-4.474 1.04-3.606 3.77.33 1.04-.098 3.56-.949 5.59-.851 2.04-1.299 4.11-.995 4.6s-.055 1.26-.798 1.71c-1.867 1.12-4.482 9.69-5.803 19.01-2.149 15.16.952 32.46 7.713 43.03 1.865 2.91 3.312 5.63 3.218 6.03-.095.41.353 2.58.996 4.82s1.271 6.4 1.394 9.25c.241 5.53 1.232 6.56 2.828 2.92zm-11.371-57.42c-1.234-1.23-.649-8.78 1.266-16.33 2.549-10.05 3.854-13.24 5.232-12.78 1.141.38 2.005 9.78.899 9.78-.839 0-3.413 6.09-3.807 9-.186 1.38-.592 4.41-.903 6.75-.541 4.08-1.249 5.02-2.687 3.58zm28.586-112.14c3.436-3.38 8.951-8.1 12.251-10.49 6.15-4.45 29.8-17.7 31.6-17.7 2.64 0 6.92-3.35 9.2-7.22 5.1-8.62 13.54-17.53 24.2-25.57 3.3-2.48 6.45-5.04 7-5.68.55-.63 1.9-1.5 3-1.91 1.89-.72 1.9-.83.23-2.06-.98-.73-1.51-1.98-1.19-2.82.43-1.12-.38-1.67-3.23-2.16-5.59-.97-26.9-3.23-32.05-2.7-11.79 1.21-14.01 1.82-18.81 3.53-3.31 1.18-9.83 3-13.79 5.55-4.47 2.87-8.66 5.39-8.66 5.81 0 .43-2.33 1.5-4.8 4.19-2.475 2.7-7.185 7.03-10.003 11.31-2.657 4.04-4.145 6.92-7.435 13.43-2.305 4.55-3.764 10.64-4.19 13.12-1.354 7.89-2.372 20.37-.659 28.05.046.21 2.559.17 5.586-.08 5.162-.43 5.887-.83 11.75-6.6zm71.141-39.64c17.49-5.98 33.75-7.92 43.05-5.12l4.75 1.43-.69-3.68c-.38-2.02-1.13-3.95-1.66-4.28-.54-.33-1.1-1.44-1.25-2.48-.15-1.03-1.14-2.11-2.19-2.4-1.04-.28-3.16-1.63-4.69-2.98-7.12-6.3-13.92-5.13-28.36 4.89-10.12 7.02-22.17 18.07-19.71 18.07.36 0 5.2-1.55 10.75-3.45z" fill="#e40000" transform="matrix(.19446 0 0 .30683 24.22 -119.841)"/><path d="M90.027 580.96c0-1.28.708-1.28 1.5 0 .339.55.141 1-.441 1-.583 0-1.059-.45-1.059-1zm-111.02 83.01c1.81-.97 3.565-5.47 6.049-15.51.68-2.75 2.258-6.81 3.506-9.01 5.422-9.59 25.935-24.82 54.439-40.41 13.736-7.52 15.712-9.23 16.521-14.31.374-2.35 1.356-6.67 2.184-9.59.827-2.93 1.334-5.5 1.128-5.7-.207-.21-3.286 1.66-6.843 4.15-3.556 2.5-11.866 7.19-18.466 10.43-21.377 10.49-43.416 16.47-66 17.89-9.258.59-13.086 1.28-16.75 3.02-2.613 1.24-4.75 2.61-4.75 3.06s2.307 1.58 5.128 2.51c4.05 1.35 7.364 1.6 15.75 1.19 16.336-.8 31.96-5.56 44.567-13.58 5.822-3.71 9.391-4.26 4.452-.7-14.387 10.39-29.547 15.55-50.147 17.08l-8.75.65v4.01c0 3.22.629 4.6 3.182 6.98l3.183 2.97 8.046-2.65c9.439-3.12 10.422-3.61 16.29-8.09 2.449-1.87 5.205-3.4 6.125-3.4 1.057.01.516.71-1.467 1.92-1.728 1.06-3.453 2.42-3.834 3.04-.382.62-2.473 2.24-4.648 3.62-4.268 2.69-5.338 4.68-7.504 13.92-2.663 11.36-2.557 11.23-12.96 16.48-2.702 1.36-5.095 2.6-5.316 2.74-.579.36 4.622 4.47 8.269 6.53 3.516 1.98 5.931 2.2 8.616.76zm92.033-96.26c.012-1.82.201-1.96.985-.75 1.252 1.94 1.252 3 0 3-.55 0-.994-1.01-.985-2.25zm-113.59 90.68c.864-.87 1.572-1.9 1.572-2.3s1.51-1.27 3.356-1.94 4.196-2.14 5.221-3.28c1.827-2.01 1.808-2.16-.975-7.3-2.378-4.4-2.724-5.93-2.134-9.42.638-3.78.415-4.46-2.382-7.26-1.894-1.89-3.092-4.12-3.1-5.76-.023-4.57-1.063-6.88-3.618-8.05-4.277-1.95-6.125-1.39-7.314 2.22-.605 1.83-2.44 4.61-4.078 6.18-3.513 3.37-3.639 4.37-.976 7.75 1.1 1.4 2 3.65 2 5s1.157 4.16 2.571 6.24c1.767 2.6 2.505 4.92 2.36 7.39-.354 6.04-.014 7.63 2.107 9.91 2.426 2.6 3.304 2.71 5.39.62zm366.6-11.02c1.35-3.54-2.04-9.49-7.44-13.06-2.24-1.48-3.52-2.88-2.85-3.1 3.66-1.22 13.26 9.94 13.26 15.4 0 1.84.41 3.35.91 3.35 1.22 0 5.09-6.31 5.09-8.3 0-.86 1.3-2.49 2.88-3.62 1.59-1.13 3.61-3.85 4.49-6.05s2.47-4.87 3.54-5.94c4.16-4.16 5.33-10.27 2.96-15.46-.93-2.06-.77-2.97 1-5.45 2.82-3.96 2.69-5.52-.79-9.41-2.61-2.93-3.48-3.27-8.32-3.27-4.18 0-6.32.6-9.43 2.66-7.92 5.24-16.23 6.08-28.4 2.88-9.37-2.47-31.58-11.32-43.68-17.4-5.08-2.56-15.88-7.31-24-10.56-8.11-3.25-18.25-7.36-22.53-9.13s-8.06-2.95-8.39-2.62c-.68.68-.85 4.65-.54 12.73l.21 5.56 5.25 1.31c14.02 3.5 42.2 16.61 57.25 26.64 8.74 5.82 21.87 17.83 25.68 23.47 2.02 3.01 7.19 9.17 11.5 13.71l7.82 8.25h6.77c6.37 0 6.83-.15 7.76-2.59zm3.97-13.06c-1.93-.86-4.63-1.97-6-2.46-1.87-.66-1.29-.77 2.29-.4 5.12.52 8.71 1.98 8.71 3.55 0 1.29-.86 1.17-5-.69zm-6.38-6.38c-3.88-1.16-7.22-4.47-10.36-10.22-3.26-6-8.68-9.66-20.58-13.92-7.46-2.66-8.66-3.37-6.65-3.87 2.63-.65 8.58 1.11 21.23 6.27l7.76 3.17 6.5-2.11c6.35-2.07 10.67-1.92 14.03.46 1.69 1.21 3.56 8.94 2.88 11.96-1.3 5.86-1.72 6.51-5 7.88-3.75 1.57-5.59 1.64-9.81.38zm11.43-3.54c.72-.86 1.34-3.75 1.37-6.42.14-9.2-6.6-12.52-16.11-7.92-2.37 1.15-4.31 2.77-4.31 3.61 0 2.93 4.33 9.21 7.4 10.73 4.06 2 9.99 2 11.65 0zm4.8-20.39c2.53-2.35 3.25-3.73 2.89-5.58-.36-1.88-.04-2.46 1.35-2.46 1.47 0 1.75.67 1.49 3.53-.37 4.22-.19 4-5.13 6.02l-3.95 1.61 3.35-3.12zm-7.85-2.04c-1.19-.77-.97-.97 1.02-.98 1.39-.01 3.53-.72 4.75-1.58 1.83-1.28 2.23-1.3 2.23-.16 0 .77-1.15 1.92-2.55 2.56-3.06 1.39-3.52 1.41-5.45.16zm-354.81 42.99c.403-1.37 1.805-6.02 3.116-10.33l2.383-7.85-2.922.59c-3.828.76-10.509 5.58-11.165 8.04-.284 1.07.324 3.54 1.352 5.5s2.132 4.38 2.453 5.38c.819 2.55 3.892 1.7 4.783-1.33zm171.35-10.57c3.15-1.32 4.5-1.39 8.02-.4 2.33.65 5.58.89 7.23.53 4.26-.94 15.08-11.08 17.61-16.52 1.17-2.49 3.58-6.64 5.36-9.21s3.24-4.99 3.24-5.36c0-2.39 7.75-19.46 9.88-21.76 2.42-2.62 2.6-3.49 2.7-13 .06-5.61.28-10.65.49-11.2.45-1.2-2.04-10.63-3.14-11.87-.43-.48-1.9 1.32-3.28 4-1.37 2.68-3.66 6.42-5.07 8.31-1.42 1.9-2.6 4.37-2.63 5.5-.08 3.89-2.88 10.03-5.42 11.88-1.39 1.02-2.53 2.48-2.53 3.26s-.74 1.42-1.64 1.42c-.91 0-2.24.79-2.97 1.75-1.6 2.11-1.8 5.25-.33 5.25.58 0 .75.5.37 1.11-.49.78-.9.75-1.45-.13-.93-1.5-2.98-.41-2.98 1.58 0 .79-.45 1.44-1 1.44s-1 .63-1 1.39c0 .77-1.15 1.68-2.56 2.04-2.09.52-2.43 1.04-1.88 2.85.97 3.14 1.2 3.24 3.26 1.38 1.01-.91 2.43-1.66 3.15-1.66s-.87 1.67-3.55 3.71l-4.86 3.71-12.03.4-12.03.41v-3.87c0-2.55-.43-3.78-1.25-3.61-.69.14-1.25-.2-1.25-.75s-.68-1-1.5-1c-.83 0-1.5.68-1.5 1.5 0 .83-.71 1.5-1.57 1.5-1.43 0-1.43-.14 0-1.57 1.81-1.82 1.99-3.05.56-3.93-.55-.35-1.28.08-1.61.94-.67 1.75-3.38 2.15-3.38.5 0-.58.38-.82.85-.53 1.5.93 5.03-4 3.96-5.54-.75-1.06-1.08-1.09-1.47-.12-.28.69-1.15 1.25-1.93 1.25s-1.41.51-1.41 1.12c0 .78-.47.74-1.5-.12-.83-.68-1.5-1.98-1.49-2.87.02-1.42.14-1.44 1-.13.88 1.33 1.1 1.33 1.97 0 1.47-2.24 1.22-3.19-.73-2.78-2.32.49-5.25-2.89-5.25-6.04 0-1.38-.25-2.27-.54-1.97-.68.67-6.46-4.32-6.46-5.57 0-.51-1.41-3.21-3.14-6.01-1.72-2.8-3.63-6.47-4.25-8.17-1.2-3.3-8.891-10.85-9.965-9.78-1.133 1.14-.7 9.7.778 15.38.885 3.39 1.219 7.76.881 11.49-.516 5.68-.29 6.51 4.076 14.98 2.54 4.94 4.62 9.65 4.64 10.47.06 3.91 3.99 10.04 7.53 11.73 2.68 1.28 4.4 3.21 6.47 7.26 3.02 5.92 10.9 14.29 14.98 15.9 3.69 1.45 7.28 1.31 11.54-.47zm-12.4-31.31c-.83-.53-.97-1.1-.36-1.48.56-.34 1.26.05 1.58.88.66 1.72.6 1.75-1.22.6zm35.94-9.53c-.05-1.05.19-1.64.52-1.31s.37 1.2.08 1.92c-.32.8-.56.56-.6-.61zm-27.08 6.4c0-1.8-2.32-3.33-3.41-2.24-.8.8-.76 4.76.06 5.58 1.01 1.01 3.35-1.33 3.35-3.34zm5 .52c0-2.48-.45-3.5-1.53-3.5-2.11 0-2.85 2.42-1.52 4.92 1.68 3.14 3.05 2.5 3.05-1.42zm4.81.17c.23-1.89-.14-2.67-1.25-2.67-1.08 0-1.56.95-1.56 3.08 0 3.83 2.35 3.49 2.81-.41zm5.19-.75c0-3.83-2.36-3.49-2.82.41-.22 1.89.14 2.67 1.25 2.67 1.08 0 1.57-.95 1.57-3.08zm5 .14c0-3.25-1.6-4.86-3.22-3.25-1.42 1.43-.09 6.19 1.74 6.19.97 0 1.48-1.01 1.48-2.94zm9.2-17.07c.94-1.64 1.3-2.99.82-2.99-.49 0-1.17.9-1.52 2s-1.06 2-1.57 2-.93.45-.93 1c0 1.91 1.51.97 3.2-2.01zm-42.7 1.01c-.34-.55-1.3-1-2.12-1-.83 0-1.22.45-.88 1s1.29 1 2.11 1c.83 0 1.23-.45.89-1zm-1.08-4.13c-.38-.6-1.11-.54-1.97.17-.75.62-1.8.86-2.34.53-1.18-.73-2.46 1.07-1.66 2.35.32.52 1.86.27 3.57-.58 1.65-.82 2.73-1.93 2.4-2.47zm12.06-1.85c.38-.62 1.36-.52 2.62.25 1.7 1.04 2.24.93 3.46-.71 1.77-2.39 1.87-6.71.19-8.47-1.02-1.07-.85-1.19.96-.65 1.22.37 3.06.22 4.09-.33 2.81-1.51 6.2-.26 6.17 2.26-.03 1.93-.13 1.96-1.05.38-1.17-2.01-4.96-2.32-6.72-.55-1.78 1.78-1.51 7.47.38 8.19 3.08 1.19 5.6.61 6.13-1.39.62-2.37 2.29-2.68 2.29-.43 0 1.12.78 1.47 2.75 1.25 2.37-.28 2.72-.73 2.54-3.32-.18-2.7-.13-2.76.53-.57 1 3.3 2.98 3.74 4.11.9.77-1.9.95-1.98 1-.47.06 1.6.59 1.77 3.81 1.16 2.07-.39 4.04-1.17 4.39-1.74s1.14-.73 1.75-.35c.64.39 1.12.02 1.12-.87 0-.86.56-1.45 1.25-1.31 1.64.33 1.64-4.45 0-5-.76-.25-1.26.5-1.27 1.92-.01 1.35-.32 1.86-.75 1.2-.4-.62-1.86-1.07-3.23-1-2.04.12-2.46.61-2.26 2.64.24 2.46.23 2.46-.72.24-1.1-2.59-4.02-3.04-4.02-.63 0 1.26-.31 1.37-1.37.49-.75-.62-2.21-1.06-3.25-.96-3.59.32-5.05-.16-5.05-1.65 0-.92.93-1.5 2.39-1.5 1.34 0 2.12.44 1.78 1-.34.55.11 1 1 1s1.33-.47.97-1.04c-.41-.66.21-.83 1.7-.45 1.29.32 4.03-.12 6.09-.97 2.86-1.2 3.74-1.27 3.77-.3.02.85.43.74 1.25-.33.67-.87 1.75-1.4 2.41-1.18.82.27 1.18-1.12 1.17-4.42-.02-2.64.42-5.99.98-7.42 1.22-3.18 7.47-8.5 11.04-9.4 3.63-.91 5.12-2.36 5.12-4.99 0-2.24-2.21-4.96-3.21-3.96-.29.29-.32-.56-.07-1.89.57-2.98-1.23-4.27-3.52-2.5-1.53 1.18-1.53 1.11.05-.75.96-1.13 1.75-3.12 1.75-4.42 0-2.23.07-2.26 1.35-.52.89 1.22 2.08 1.66 3.5 1.29 1.18-.31 1.9-.16 1.59.34s-1.69.91-3.06.91c-1.56 0-2.25.41-1.83 1.09.38.61 1.84.88 3.25.61l2.58-.5-2.36 1.78-2.35 1.78 2.09 1.11c1.15.62 2.91.82 3.91.46 1.77-.65 1.77-.6.01 1.4-1.36 1.55-1.51 2.26-.59 2.83 1.7 1.05 9.39-7.91 10.79-12.58 1.5-5.01 1.41-6.67-.56-10.01-1.44-2.44-1.51-3.57-.5-8.15 1.95-8.88 2.47-21.82 1.26-31.32-.62-4.95-1.54-12.05-2.02-15.78-.96-7.4-2.95-11.36-6.37-12.63-7.5-2.79-50.58 7.3-57.76 13.53-.87.75-3.74 4.78-6.39 8.96-5.43 8.58-6.36 13.12-4.28 20.85 1.43 5.3 3.65 7.25 3.87 3.4l.14-2.33.43 2.25c.24 1.24.76 2.25 1.15 2.25s.78 1.24.87 2.75c.15 2.67.12 2.69-.94.5-1.78-3.68-3.78-2.78-3.78 1.71 0 7.9-6.27 20.9-12.22 25.34-5.7 4.25-7.91 4.95-15.42 4.86-5.21-.06-7.53.31-8.09 1.29-.65 1.15-1.24 1.15-3.773-.05-2.931-1.38-2.938-1.4-.312-.9 4.425.84 4.255-1.32-.492-6.39-5.065-5.42-6.823-8.53-8.671-15.36-.707-2.61-1.842-4.75-2.523-4.75-1.51 0-8.502 17.89-8.502 21.75 0 3.23 5.378 11.8 9 14.34 3.417 2.4 9.152 3.54 8.778 1.75-.153-.74-1.178-1.63-2.278-1.99-1.865-.61-1.848-.66.25-.75 1.706-.08 2.25-.7 2.25-2.6 0-1.37.525-2.5 1.166-2.5.642 0 .871.3.509.66s-.1 1.35.583 2.19c.835 1.03.855 1.31.077.84-1.485-.89-2.059.83-1.514 4.55.438 2.98.659 3.15 5.412 4.19 1.5.33 4.31 1.99 6.25 3.69 3.33 2.92 3.52 3.43 3.52 9.42 0 3.49.45 6.62 1.01 6.97s.75 1.07.41 1.61c-.33.54.56 2.14 1.99 3.56 1.42 1.43 2.59 2.25 2.59 1.83 0-.41.69-.18 1.54.53 1.91 1.58 3 .5 3.8-3.79.64-3.42-.1-4.08-2.21-2-1.02 1-1.21.95-.95-.25.22-1.06-.41-1.43-2.18-1.26-2.17.2-2.27.09-.74-.81 1.77-1.05 10.38-.32 11.16.95.22.35 3.34.62 6.93.59 4.41-.03 6.26.29 5.68.99-.47.57-1.05 2.39-1.3 4.04l-.43 3-.15-3.28c-.16-3.5-2.49-5.29-4.4-3.38-.8.81-1.47.81-2.43.01-.97-.8-1.72-.76-2.82.15-1.23 1.02-1.5.95-1.5-.38 0-1.92-1.14-2.09-2.8-.42-1.47 1.47-1.6 6.8-.17 6.8.57 0 1.44-1.01 1.94-2.25.88-2.19.9-2.18.96.39.06 2.19 1.63 3.86 3.65 3.86.23 0 .47-1.24.53-2.75.09-2.06.24-2.25.59-.75.82 3.5 5.35 5.85 6.78 3.52zm-2.22-26.72c-3.24-.63-5.26-4.11-5.26-9.06 0-5.75 9.54-29.23 11.88-29.25.89-.01 2.6-.28 3.8-.6 1.88-.51 2.34-.02 3.27 3.44.6 2.22 3.32 8.33 6.05 13.57 4 7.71 4.85 10.17 4.38 12.82-.67 3.75-5.47 8.78-8.37 8.78-1.99 0-5.01-4.49-5.01-7.45 0-.85-.45-1.55-1-1.55s-1 1.35-1 3c0 3.11-3.06 7.1-5.25 6.86-.69-.07-2.26-.33-3.49-.56zm37.24-24.92c-8.62-2.02-13.5-5.82-13.5-10.5 0-.67-.59-1.93-1.3-2.8-.72-.87-2.1-4.73-3.06-8.58-.97-3.85-2.42-7.51-3.23-8.13-1.12-.86-1.23-1.73-.46-3.75 1.26-3.31 1.91-3.38 1.29-.12-.54 2.81 1.69 3.5 3.65 1.13.62-.75 3.9-2.61 7.29-4.13 5.44-2.44 6.98-2.7 13.3-2.22 16.8 1.27 22.88 7.7 20.52 21.73-1.97 11.68-6.88 16.86-16.56 17.46-3.27.21-6.84.17-7.94-.09zm-25.43-28.63c-.05-1.17-.88-1.75-2.51-1.75-2.25 0-2.39-.28-1.86-3.75.75-4.83 1.3-5.43 1.3-1.42 0 1.75.45 3.17 1 3.17s1-.45 1-1 .39-1 .88-1c1.31 0 1.92 3.25 1.03 5.52-.66 1.69-.78 1.72-.84.23zm-64.978 58.18c1.598-1.14 2.905-2.66 2.905-3.39 0-1.5-2.781-2.98-4.912-2.62-3.278.56-8-1.07-8.6-2.95-.343-1.09-1.193-1.97-1.889-1.97-.74 0-1.266-1.25-1.266-3 0-1.65.262-3 .583-3s.678-1.35.793-3c.302-4.31-1.173-3.69-3.074 1.28-1.917 5.03-2.001 6.86-.548 12.1 2.255 8.12 9.592 11.12 16.008 6.55zm8.712-7.33c.265-4.09.058-4.71-1.5-4.52-.994.13-2.614-.12-3.601-.55-2.614-1.13-3.238.09-1.649 3.22 4.391 8.66 6.275 9.17 6.75 1.85zm112.13-2.62c2.63-5.06 2.88-6.11 1.59-6.61-1.75-.67-6.35 2.02-7.19 4.2-.73 1.9.52 8.43 1.61 8.43.47 0 2.26-2.71 3.99-6.02zm-121.93-2.86c0-1.03-.596-2.37-1.324-2.97-1.059-.88-1.236-.51-.886 1.87.478 3.26 2.21 4.12 2.21 1.1zm-4.291-2.12c-.225-3.22-.48-3.43-2.563-2.11-1.055.67-1.103 1.32-.215 2.98 1.635 3.06 3.022 2.62 2.778-.87zm-9.182-10.06c.95-2.11 1.459-4.53 1.132-5.39-.369-.96-.049-1.55.837-1.55.788 0 1.96-1.01 2.604-2.25s.813-1.92.377-1.51c-.87.81-3.477-.96-3.477-2.36 0-.48.888-.88 1.974-.88 1.193 0 2.604-1.22 3.565-3.08 1.511-2.92 1.491-3.1-.392-3.59-1.091-.29-2.535-1.85-3.209-3.48-1.036-2.5-1.703-2.91-4.332-2.65-2.318.22-3.032.74-2.813 2.05.227 1.35-.407 1.75-2.781 1.75-3.502 0-4.915 2.21-2.938 4.59.928 1.12 2.241 1.39 4.611.94 3.239-.61 3.315-.54 3.315 2.87 0 3.45-.04 3.48-3 2.45-1.65-.57-3-1.4-3-1.83 0-.93-4.032-2.12-5.044-1.49-1.232.76 2.185 9.34 3.893 9.78.908.23.638.31-.599.19-2.321-.23-3.126 1.84-1.182 3.04.587.37.809 1.34.492 2.16-.318.83.411 2.53 1.627 3.79 2.902 3.02 5.968 1.71 8.34-3.55zm-5.527.06c-1.282-.83-1.246-.97.25-.98.962-.01 1.75.43 1.75.98 0 1.22-.113 1.22-2 0zm13 2.44c0-.24-.45-.44-1-.44s-1 .48-1 1.06.45.78 1 .44 1-.82 1-1.06zm154.5-13.96c22-12.45 37.34-19.36 59.59-26.83 5.72-1.92 12.43-4.42 14.91-5.55 3.05-1.39 6.75-2.09 11.5-2.16 8.36-.13 18.16-1.27 19.11-2.22.38-.38-.51-1.64-1.98-2.79-4.08-3.22-5.93-7.57-5.36-12.64.27-2.4 1.26-5.22 2.21-6.27 2.33-2.57 1.14-4.02-3.29-4.01-4.54.01-11.67 3.26-21.34 9.71-8.32 5.56-19.75 10.98-24.9 11.8-3.28.53-3.23.46 1.05-1.4 9.5-4.13 20.77-10.09 27.5-14.55 3.85-2.56 8.01-4.9 9.25-5.22 2.87-.73 2.87-2.16 0-3.27-2.56-.98-5.92-4.44-7.73-7.95-1.2-2.32-1.29-2.25-4.37 3.31-6.19 11.14-15.21 17.8-35.37 26.08-14.08 5.79-55.19 27.01-57.53 29.69-1.93 2.22-2.3 5.84-.76 7.38 1.3 1.31 1.45 4.68.5 11.26l-.78 5.35 3.39-1.75c1.87-.96 8.35-4.55 14.4-7.97zm-174.69-8.74c.174-1.51.735-2.74 1.247-2.74s2.639-1.54 4.726-3.43c2.088-1.88 5.014-3.73 6.503-4.11 1.489-.37 2.708-1.01 2.708-1.42 0-.92-18.035-8.57-31.67-13.45-9.765-3.48-27.622-10.9-37.896-15.73-2.688-1.26-9.117-6.01-14.287-10.54-6.936-6.09-10.74-8.67-14.523-9.84-2.818-.88-5.762-1.86-6.542-2.18-.965-.39-.74.52.706 2.86 4.392 7.1 3.812 15.6-1.499 21.91-1.396 1.66-2.293 3.26-1.993 3.56s3.394.79 6.875 1.1c3.48.3 7.914 1.34 9.852 2.31s5.763 2.08 8.5 2.46c7.695 1.08 24.86 5.51 25.977 6.72.702.75.405.86-1 .35-3.865-1.41-21.434-5.57-23.529-5.57-1.165 0-5.348-1.07-9.295-2.37-6.471-2.13-17.676-4.13-17.676-3.14 0 .21.715 3.45 1.589 7.2.874 3.74 1.367 8.5 1.095 10.56-.58 4.4 1.066 5.01 4.267 1.57 1.885-2.02 2.901-2.17 14.289-2.06 14.64.15 16.571.62 45.76 11.1 12.375 4.45 23.175 7.98 24 7.85.825-.12 1.642-1.46 1.816-2.97zm-92.721-11.92c1.525-2.85.591-14.06-1.635-19.63-1.808-4.52-12.888-15.55-16.593-16.51-4.44-1.17-8.867 7.3-8.867 16.95 0 11.25 10.206 21.04 22.214 21.29 2.841.06 3.989-.43 4.881-2.1zm137.91-4.29c6.23-1.65 19.66-8.38 24.65-12.36 3.67-2.93 13.9-17.95 12.9-18.95-.76-.76-21.5 9.73-29.06 14.7-6.49 4.27-20.493 16.05-20.493 17.24 0 1.29 5.884.98 12.003-.63zm242.25-21.58c2.39-2.59 2.74-3.79 2.73-9.22-.02-7.54-.86-9.22-4.11-8.19-4.43 1.4-9.81 5.44-11.43 8.56-1.95 3.78-1.27 7.17 2.15 10.58 3.13 3.14 6.7 2.56 10.66-1.73zm-378.7-2.6c1.351-1.46 2.983-4.41 3.626-6.55 1.023-3.42.901-4.45-.98-8.33-3.4-6.99-10.597-7.38-14.458-.77-1.544 2.65-1.688 3.84-.835 6.92.959 3.48 7.45 11.38 9.344 11.38.465 0 1.951-1.19 3.303-2.65zm372.38-17.33c8.44-2.42 11.49-10.12 6.78-17.12-5.35-7.95-20.63-7.49-28.35.84-3.63 3.92-3.2 8.51 1.13 11.96 6.14 4.9 13.21 6.39 20.44 4.32z" fill="#fff" transform="matrix(.19446 0 0 .30683 24.22 -119.841)"/></pattern><pattern id="d" patternTransform="matrix(6.23784 0 0 3.28395 198.059 827.379)" xlink:href="#c"/><linearGradient id="a" y2="104.74" gradientUnits="userSpaceOnUse" x2="229.41" gradientTransform="translate(0 .854)" y1="109.05" x1="-10.353"><stop offset="0" stop-color="#000098"/><stop offset=".5" stop-color="#0044d8"/><stop offset="1" stop-color="#0000c0"/></linearGradient><linearGradient id="b" y2="43.606" gradientUnits="userSpaceOnUse" x2="96.841" y1="43.755" x1="-4.508"><stop offset="0" stop-color="#a2a2a2"/><stop offset=".449" stop-color="#fff"/><stop offset="1" stop-color="#9f9f9f"/></linearGradient></defs><path d="M211.308 791.108c0 13.239-9.514 33.939-9.514 48.134 0 7.842 1.465 14.882 1.465 22.271 0 13.668 2.194 27.415 2.194 40.95 0 4.991-2.194 9.395-2.194 12.932 0 4.874.731 9.003.731 12.213.974.719 4.26 5.818 4.26 6.036 2.234.718 2.327-2.343 2.327-6.036 3.378-.718 8.349-4.311 14.635-4.311 2.407-1.643 7.139-.718 9.514-.718 0-16.229 5.855-33.727 5.855-51.008 0-7.517 2.195-13.111 2.195-18.679v-15.087-9.339c0 3.363.732 5.975.732 8.621V849.3c0 3.665-1.464 7.814-1.464 9.339v24.427c0 5.333 2.927 8.711 2.927 12.931 0 3.161.732 5.944.732 8.621 0 5.083.732 8.651.732 12.932 0 3.081 7.174 2.874 9.512 2.874 2.066 0 6.205.343 7.318 1.437 3.415 0 14.726 2.588 17.409 2.588.731-4.006-1.31-14.345-1.31-19.112 4.235-9.032-.731-18.392-.731-25.864 0-8.861 2.195-15.099 2.195-22.989 0-3.007 2.219-20.835 2.927-20.835v-12.212c0-4.705-1.463-9.242-1.463-14.369 0-3.029-1.464-3.53-1.464-6.466-.732-1.376-2.195-4.484-2.195-7.184-.733-3.189-2.196-2.823-2.196-5.029-4.316 0-7.31-2.874-7.317-2.874h-9.514c-4.688 0-7.584-.718-10.977-.718-2.348 1.588-7.215.718-9.512.718h-5.855c-4.95 4.141-6.98.719-9.513.719-3.368-.719-4.078-2.156-7.318-2.156-2.708 0-4.39 2.467-4.39 4.311l-.733.719z" class="clothes" stroke="#000" fill="url(#d)"/><path d="M211.318 806.207c-.21-.083-.563-.38-.786-.662-.382-.48-.394-.567-.203-1.463.65-3.054-.937-10.645-1.422-13.254-.111-.6-.2-1.281-.198-1.514.003-.233-1.295 2.046-.176-3.057.704-3.209-.248-3.337.234-3.958l.423-.544-.366-.934a28.022 28.022 0 0 0-.867-1.933c-1.241-2.473.527-3.275.511-4.908-.013-1.343-.082-1.698-.502-2.569-.667-1.384-1.433-3.91-1.624-5.356a3.333 3.333 0 0 0-.16-.642c-.06-.157-.19-.964-.287-1.794-.174-1.493-.17-1.513.294-1.874.258-.2.556-.344.662-.32.105.025.41-.098.675-.273.266-.175.542-.304.614-.288.072.017.498-.045.948-.138 1.143-.236 1.44-.284 2.208-.353.37-.034.672-.124.672-.2 0-.075.12-.11.268-.075.147.035.732.018 1.3-.038.566-.056 1.738-.005 2.602.113 1.256.172 1.713.155 2.273-.088.825-.357 1.956-.385 2.274-.056.15.155.607.205 1.46.16.75-.039 1.766.056 2.566.24 1.467.337 2.85.383 4.162.139.93-.174 2.691.137 3.167.558.225.2.174.294-.314.584-.32.19-.583.418-.583.506 0 .088-.363.218-.807.29-.928.15-1.087.429-.224.393.32-.013.604-.019.631-.013.027.007.464-.286.971-.65 1.173-.844 1.56-.896 2.627-.354.535.272 1.17.46 1.767.523 2.46.261 7.278 1.901 7.205 2.453-.123.938.342 1.455 1.394 1.55.715.064.883.152 1.636.85.81.75.905.794 2.638 1.23 1.339.336 2.071.611 2.868 1.078.588.344 2.034 1.034 3.213 1.533 1.88.795 2.343.933 3.763 1.12 2.7.356 3.879.19 4.983-.7.8-.646 1.408-.571 2.614.32l.78.576.525-.382c.573-.419.883-.36 2.531.48.755.385.885.41 1.141.224.379-.276.174-.616-.458-.765-.278-.065-.605-.257-.726-.426-.183-.256-.14-.319.258-.371.264-.035.751 0 1.083.078.504.119.716.033 1.288-.516 1.311-1.261 2.212-1.524 4.178-1.218 3.097.482 3.825.517 5.145.244a9.38 9.38 0 0 1 1.434-.167c.374-.006 1.167-.022 1.763-.036 1.02-.023 1.178.017 2.688.682 1.922.846 2.061 1.15.605 1.31-.55.061-1.289.26-1.64.444-.357.185-1.026.31-1.51.281-2.667-.157-3.668.123-1.539.43 1.513.219 1.813.528 1.145 1.18-.755.735-.923 1.165-.943 2.425-.024 1.519-.24 1.979-.914 1.95-.475-.02-.713.138-1.394.921-.147.17-.576.325-.953.345-.377.02-.843.193-1.035.384-.511.506-1.992.619-3.45.262-.674-.165-1.38-.415-1.568-.557-.28-.21-.343-.198-.343.065 0 .427-.677.858-1.344.855-.658-.003-1.97.59-3.163 1.43-.491.346-.97.61-1.066.588-.096-.022-.796.204-1.556.503-1.295.51-1.343.55-.756.632.8.111 1.338-.04 2.27-.642.536-.345 1.12-.5 2.062-.547 1.894-.094 3.623-.288 4.441-.498.391-.1.857-.149 1.035-.107.178.042.605-.04.948-.182.571-.237 1.833-.372 3.095-.332.644.02 1.965.668 1.875.92-.038.104-.452.371-.92.594-.895.426-.929.542-.547 1.893.084.296-.009.488-.342.708-.582.383-3.081 3.368-3.437 4.104-.216.447-.228.676-.061 1.159.303.88.087 1.415-.606 1.5-.863.104-2.89-.007-3.42-.187l-.462-.158.554.63c.522.59.593.624 1.201.569.848-.078 2.54.388 3.442.948.535.331.743.572.816.94.075.375.404.743 1.38 1.538 1.074.876 1.485 1.11 2.536 1.447 1.371.44 2.233.973 3.03 1.871l.517.583-.374.204c-.206.112-.68.181-1.056.154-.376-.028-.767-.012-.87.035-.467.215-1.886 1.754-1.977 2.144-.31 1.332-1.006 1.422-2.945.382-1.59-.854-1.975-.915-3.549-.564l-1.366.304.509.54c.43.457.653.565 1.44.693.512.084 1.006.126 1.098.093.195-.069 4.877 1.313 5.275 1.557.687.421 4.429 1.412 7.286 1.93.706.128 1.335.293 1.398.368.305.363-.164 1.008-.865 1.19-.926.24-.971.235-4.773-.542-3.171-.648-4.524-.788-5.42-.561-.613.155-.638.296-.051.292.616-.005 1.705.904 1.584 1.322-.057.198-.97.524-2.626.936-1.918.477-2.821.818-3.702 1.397-1.357.892-2.283 1.026-3.564.515-2.159-.861-2.36-.912-3.66-.922-1.21-.01-1.38-.046-1.935-.42-1.448-.976-4.893-2.642-5.716-2.764-.683-.102-.534.212.27.566.393.174 1.022.51 1.397.747.57.36.672.5.627.862-.04.321-.169.417-.502.373-.85-.114-1.838-.017-2.185.213-.722.479-2.268.037-3.237-.924-.609-.604-2.267-1.39-3.124-1.48-.828-.088-1.258-.301-4.088-2.032-5.304-3.243-5.409-3.296-7.052-3.575-1.185-.201-1.586-.331-1.927-.627-.408-.353-.595-.89-.285-.817.08.02.29-.034.467-.117.588-.276-1.503-.495-2.546-.266-.844.185-1.015.17-1.557-.147-.568-.33-.68-.33-1.65.009-.573.2-1.566.42-2.207.49-.64.07-1.29.201-1.445.291-.154.09-.558.15-.896.132-.339-.017-.696.008-.795.055-.098.048-.623.037-1.165-.024-.542-.062-1.227-.101-1.523-.088-2.395.108-3.368.16-4.284.233-1.148.091-1.516-.134-1.152-.704.142-.222.128-.285-.058-.273-.132.01-.575.414-.983.9-.408.485-.98 1.052-1.272 1.258-.292.206-.603.469-.692.584-.595.772-4.091 2.01-5.441 1.928-.35-.021-.755-.015-.903.014-.148.03-.44-.015-.65-.098zm5.053-3.089c.338-.228.615-.574.615-.77 0-.31-.067-.353-.513-.335-1.138.048-1.459.297-1.459 1.13 0 .54.534.53 1.357-.025zm55.813 7.674c0-.202-.524-.515-.736-.439-.092.033-.12.144-.063.245.132.237.799.399.799.194zm2.752-.997c.299-.166.435-.348.326-.439-.102-.085-.237-.087-.299-.005-.062.082-.35.093-.64.025-.495-.116-.702.127-.407.48.207.248.492.231 1.02-.061zm-43.931-13.142c.096-.07.147-.524.112-1.007-.035-.484-.002-.829.072-.767.074.062.212-.066.306-.283.106-.243.52-.484 1.074-.625.496-.125.93-.201.962-.169.034.033.498-.021 1.032-.12 2.342-.437 2.74-.503 2.839-.468.057.02.21-.041.34-.136.13-.095.343-.148.471-.118.13.03.33-.032.445-.14.203-.188 1.708-.6 2.074-.567.716.065 1.322-.012 1.241-.158-.053-.095.11-.216.361-.267.252-.052.459-.16.459-.24 0-.08.322-.195.716-.255.395-.06.717-.165.717-.234 0-.07.343-.148.762-.175.419-.026.882-.143 1.03-.26.148-.117.35-.196.448-.176.099.02.865-.13 1.702-.335.838-.204 1.647-.342 1.8-.306.152.035.742.29 1.31.567 1.191.578 1.576.553 1.996-.132.321-.523.124-1.27-.412-1.559-.614-.332-.907-.898-1.024-1.98-.134-1.226-.078-1.095-.533-1.248-1.132-.382-1.981-.223-1.779.334.048.132-.038.501-.192.82-.154.32-.233.666-.175.77.059.105-.022.16-.179.124a.359.359 0 0 0-.397.209c-.234.572-1.05.893-4.528 1.782-1.13.289-2.107.595-2.171.68-.064.086-.169.137-.232.114-.115-.042-1.06.174-2.713.621-.492.134-.987.222-1.098.196-.11-.025-.295.04-.41.146-.113.106-.497.177-.85.158-.622-.034-2.572.343-2.992.577-.113.063-.93.233-1.816.378l-1.61.264-.835-.65c-1.168-.905-1.646-.98-2.11-.332-.206.29-.376.598-.376.687 0 .089.444.507.986.929.542.422 1.026.84 1.076.93.14.25.142.928.004 1.477-.106.422-.061.541.29.775.439.291 1.502.39 1.807.169zm21.613 3.917l.534-.308-.258-1.015c-.227-.889-.226-1.038.004-1.206.145-.106.33-.179.41-.163.081.016.37-.107.64-.273.631-.387.617-.958-.04-1.611-.589-.586-1.026-.603-2.073-.08-.627.314-1.671.213-2.103-.204-.12-.117-.622-.45-1.115-.74a47.563 47.563 0 0 1-1.523-.937 12.945 12.945 0 0 0-.717-.449 36.52 36.52 0 0 1-1.127-.663c-1.307-.788-1.835-.905-2.697-.597-.777.278-.748.32.819 1.18.618.34 1.549.905 2.07 1.255.52.35 1.06.664 1.198.696.14.033.298.14.352.237.054.097.296.27.538.386.242.115 1.014.593 1.716 1.061l1.275.852-.042.862c-.022.473.056 1.059.175 1.3.304.619 1.261.822 1.964.417zm18.954.793c.798-.212.93-.616.253-.777-.6-.143-1.992-.044-2.344.166-.155.093-.397.144-.537.115-.194-.042-.18.017.055.245.398.385 1.62.504 2.573.25zm-31.819-11.153c.39-.1.71-.244.71-.32 0-.075-.585-.493-1.3-.929a78.635 78.635 0 0 1-2.195-1.39c-.493-.33-1.5-.994-2.24-1.476-2.812-1.835-3.226-2.147-3.253-2.449-.043-.473-.082-.627-.303-1.2-.114-.294-.208-.605-.208-.692 0-.086-.204-.334-.453-.55-.344-.298-.59-.387-1.012-.37-.941.04-1.03.379-.427 1.631l.528 1.095-.368.193c-.203.106-.578.299-.833.429-.256.13-.489.386-.518.569-.03.183-.112.362-.184.397-.21.102.372.92.962 1.352.702.515 1.4.524 2.045.027.279-.215.635-.36.79-.324.157.037 1.19.584 2.297 1.216 1.107.632 2.012 1.107 2.012 1.055 0-.051.122.032.27.186.295.305 2.366 1.567 2.74 1.669.126.035.55-.02.94-.12zm40.45 9.385c.573-.014.5-.292-.112-.436-.49-.115-1.386-.61-2.336-1.29-.341-.244-.449-.267-.508-.111-.041.109-.28.15-.53.091-.793-.185-.165.4.975.911.568.255 1.114.506 1.212.558.31.165.881.287 1.3.277zm-3.866-3.149c.283-.102-.343-.666-.878-.791-.232-.055-.636-.286-.9-.514-.264-.228-.425-.316-.358-.196.075.135-.152.234-.59.258-.79.042-.92.27-.307.54.221.098.564.253.761.345.453.21 2.004.455 2.272.358zm-34.806-8.766c.902.025 1.204-.173 1.354-.891.037-.177.238-.513.446-.745.298-.334.386-.713.415-1.799.021-.756-.014-1.387-.077-1.402-.289-.068-.552.43-.466.882.146.77-.299 1.457-1.15 1.774-.484.182-.792.209-.835.074-.127-.397-.76-.387-.935.016-.093.215-.214.381-.268.368-.054-.012-.175-.235-.27-.495-.168-.468-.895-.838-.895-.455 0 .31-1.134-.277-1.48-.767-.173-.244-.405-.797-.515-1.228-.208-.815-1.239-2.123-1.379-1.75-.04.104.018.298.128.429s.2.608.2 1.06c0 .486.094.898.232 1.012.375.31.98 1.373 1.048 1.84.146 1 2.324 2.017 4.447 2.077zm-3.088-3.575c.26-.19.299-.18.444.105.176.343.776.552.944.33.067-.09.27-.033.543.152.508.342 1.069.16.903-.294-.058-.16-.007-.219.126-.145.124.068.25.299.282.512.073.493.28.54.744.17.279-.223.36-.5.337-1.144-.028-.747.033-.886.49-1.14.287-.158.63-.266.763-.238.363.076 1.022-.336 1.01-.633-.005-.143.055-.595.134-1.002.09-.466.07-.953-.055-1.309-.363-1.037-.384-1.686-.067-2.077.232-.287.284-.647.226-1.546-.045-.694-.164-1.221-.29-1.292-.119-.065-.17-.18-.114-.253.056-.074.011-.155-.1-.181-.11-.026-.147-.116-.083-.201.14-.186-1.088-1.628-1.463-1.716-.146-.035-.224-.12-.171-.189.113-.15-1.31-1.054-1.533-.973-.085.03-.154-.066-.154-.214s-.101-.303-.224-.344c-1.435-.48-1.988-.57-3.092-.505-.69.04-1.394.107-1.565.149-.171.042-.388.058-.48.036-.293-.068-1.35.429-1.798.846-.763.708-1.307 2.762-.76 2.866.339.064.75-.34.75-.735 0-.555.641-1.085 1.315-1.086.28 0 .677-.113.883-.25.425-.282.572-.205.417.22-.12.33-.916.553-1.25.35-.123-.073-.372-.01-.555.142-.324.27-.324.285.011.608.31.298.313.325.034.264-.18-.039-.358.105-.424.343-.062.225-.266.452-.451.504-.378.106-.473 1.062-.145 1.455.139.166.085.436-.189.951-.338.637-.36.83-.187 1.66.264 1.274.62 1.733 1.885 2.435 1.107.614 1.714 1.378 1.658 2.087-.027.354.54 1.39.795 1.45.094.022.3-.053.456-.168zm-.13-2.764c0-.405.655-1.971.921-2.203.19-.164 1.757 1.854 1.762 2.269a1.34 1.34 0 0 1-.19.619c-.194.303-.197.302-.629-.19l-.434-.495-.715.2-.716.2v-.4zm3.673-1.656c-.06-.11-.33-.25-.6-.313-.343-.081-.572-.275-.774-.657-.68-1.286.75-2.236 2.274-1.51 1.167.556 1.565 1.994.721 2.61-.45.328-1.408.251-1.62-.13zm-5.82-1.731c-.785-.486-1.08-.936-1.08-1.65 0-1.02.606-1.377 1.843-1.087 1.061.25 1.593.737 1.806 1.655.12.518-.18 1.496-.497 1.629-.275.115-1.545-.22-2.073-.547zm28.322 4.377c.508-.468.43-.94-.118-.716-.195.08-.61.648-.61.836 0 .233.419.164.728-.12zm3.756-1.364l.376-.3-.414-.21c-.805-.408-1.31-.459-1.541-.156-.31.406-.132.653.594.823.401.095.738.04.985-.157zm-25.815-13.605c.301-.113.327-.095-1.108-.788-1.14-.552-2.097-.52-2.11.07-.004.186 2.905.835 3.218.718z"/></svg>