<svg class="bottomOverlay" width="86" height="380" viewBox="202.715 584.407 86.593 380.048" xmlns="http://www.w3.org/2000/svg" xmlns:xlink="http://www.w3.org/1999/xlink"><defs><pattern id="c" width="20" height="20" patternUnits="userSpaceOnUse" viewBox="0 0 100 100"><g fill-rule="evenodd" fill="#430b0b"><path d="M413.61 364.61l-29.8 31.31 31.32 28.79 30.3-30.81-31.82-29.29z" stroke="#000" transform="matrix(.22139 0 0 .23267 -34.508 -78.54)"/><path d="M352.5 381.78s33.33 105.05 129.8 17.68c.51.5 26.26 34.34 26.77 34.34-37.38 41.92-151.52 64.65-156.57-52.02z" stroke="#633232" transform="matrix(.22139 0 0 .23267 -34.508 -78.54)"/><path d="M263.6 502.49l-23.23-41.92c118.86-79.8 183.17 35.35 97.48 87.38l27.78 11.11c33.17-1.36 28.4-40.8 63.64-72.73 13.3-16 107.41-37.04 109.6 97.48-11.45 126.27-149.17 113.64-125.26 0 14.31 74.58 98.32 27.44 99-.51 10.94-11.61 10.27-107.07-45.97-72.73-10.94 10.44-20.03 28.62-23.74 35.86-3.7 7.24-15.4 35.48-65.66 26.77 46.89 96.95-30.76 122.69-38.38 124.25-19.69 9.91-139.58-.81-126.78-155.06 10.27 80.81 50.9 123.98 115.67 107.58 49.03-12.41 48.82-100.68-26.77-71.72l-17.17-53.54c-.73-2.27 24.32 6.37 50-.5 20.85-5.58 38.08-46.32-16.67-46.47-23.99-.06-35.69 16.5-53.54 24.75z" stroke="#9f2f2f" transform="matrix(.22139 0 0 .23267 -34.508 -78.54)"/></g></pattern><pattern id="d" patternTransform="matrix(4.28888 0 0 3.00987 209.021 810.325)" xlink:href="#c"/><linearGradient id="a" y2="104.74" gradientUnits="userSpaceOnUse" x2="229.41" gradientTransform="translate(0 .854)" y1="109.05" x1="-10.353"><stop offset="0" stop-color="#000098"/><stop offset=".5" stop-color="#0044d8"/><stop offset="1" stop-color="#0000c0"/></linearGradient><linearGradient id="b" y2="43.606" gradientUnits="userSpaceOnUse" x2="96.841" y1="43.755" x1="-4.508"><stop offset="0" stop-color="#a2a2a2"/><stop offset=".449" stop-color="#fff"/><stop offset="1" stop-color="#9f9f9f"/></linearGradient></defs><path d="M211.308 791.108c0 13.239-9.514 33.939-9.514 48.134 0 7.842 1.465 14.882 1.465 22.271 0 13.668 2.194 27.415 2.194 40.95 0 4.991-2.194 9.395-2.194 12.932 0 4.874.731 9.003.731 12.213.974.719 4.26 5.818 4.26 6.036 2.234.718 2.327-2.343 2.327-6.036 3.378-.718 8.349-4.311 14.635-4.311 2.407-1.643 7.139-.718 9.514-.718 0-16.229 5.855-33.727 5.855-51.008 0-7.517 2.195-13.111 2.195-18.679v-15.087-9.339c0 3.363.732 5.975.732 8.621V849.3c0 3.665-1.464 7.814-1.464 9.339v24.427c0 5.333 2.927 8.711 2.927 12.931 0 3.161.732 5.944.732 8.621 0 5.083.732 8.651.732 12.932 0 3.081 7.174 2.874 9.512 2.874 2.066 0 6.205.343 7.318 1.437 3.415 0 14.726 2.588 17.409 2.588.731-4.006-1.31-14.345-1.31-19.112 4.235-9.032-.731-18.392-.731-25.864 0-8.861 2.195-15.099 2.195-22.989 0-3.007 2.219-20.835 2.927-20.835v-12.212c0-4.705-1.463-9.242-1.463-14.369 0-3.029-1.464-3.53-1.464-6.466-.732-1.376-2.195-4.484-2.195-7.184-.733-3.189-2.196-2.823-2.196-5.029-4.316 0-7.31-2.874-7.317-2.874h-9.514c-4.688 0-7.584-.718-10.977-.718-2.348 1.588-7.215.718-9.512.718h-5.855c-4.95 4.141-6.98.719-9.513.719-3.368-.719-4.078-2.156-7.318-2.156-2.708 0-4.39 2.467-4.39 4.311l-.733.719z" class="clothes" stroke="#000" fill="url(#d)"/></svg>