<?xml version="1.0" encoding="utf-8"?>
<svg class="pants" width="86" height="380" viewBox="202.715 584.407 86.5933 380.048" preserveAspectRatio="xMidYMid meet" xmlns="http://www.w3.org/2000/svg">
  <defs id="svgEditorDefs">
    <path id="svgEditorClosePathDefs" fill="moccasin" style="stroke-width: 0px; stroke: none; fill-opacity: 1;" class="clothes"/>
    <pattern id="pattern-0" x="0" y="0" width="20" height="20" patternUnits="userSpaceOnUse" viewBox="0 0 100 100">
      <path d="M 0 0 L 50 0 L 50 100 L 0 100 Z" style="fill: rgb(245, 42, 42);"/>
    </pattern>
  </defs>
  <g transform="matrix(0.043158, 0, 0, 0.044642, 248.806152, 798.397278)">
    <g id="layer1" transform="translate(-5.6617 -48.744)">
      <g id="g3594" transform="matrix(4.2085,0,0,4.2085,-1671.5,-160.21)">
        <path id="path3474" style="fill-rule:evenodd;stroke:#d35f5f;stroke-width:1px;fill:#f4d7d7" d="m450.75 120 9.2857 11.429 28.571-11.071s-3.9286-9.2857-20.357-8.9286c-16.429 0.35715-17.5 8.2143-17.5 8.5714z"/>
        <path id="path3476" style="fill-rule:evenodd;stroke:#d35f5f;stroke-width:1px;fill:#f4d7d7" d="m468.25 148.93 0.71428-9.2857 27.143 1.4286 0.35714 0.35714s2.1429 11.429-8.5714 11.786c-10.714 0.35714-19.643-4.2857-19.643-4.2857z"/>
        <path id="path3456" style="fill-rule:evenodd;stroke:#a02c2c;stroke-width:3;fill:#c83737" d="m410.12 89.687 13.132 43.437s52.032-32.445 66.67-11.112c30.203 44.02-45.55 23.356-45.55 23.356l2.4387 35.579s66.936-22.54 70.385 13.796c1.8236 19.213-23.426 33.792-41.416 29.294-28.284-7.0711-38.386-27.274-38.386-27.274l-37.376 32.325s12.122 47.477 91.924 45.457c79.802-2.0203 82.833-91.924 76.772-109.1-6.0609-17.173-26.264-21.213-26.264-21.213s10.102-11.112 10.102-34.345c0-23.234-15.152-48.487-57.579-57.579-42.426-9.0914-84.853 38.386-84.853 37.376z"/>
        <path id="path3458" style="stroke:#a02c2c;stroke-width:3;fill:#f4d7d7" d="m279.81 401.82c-0.0003 8.9263-7.2367 16.162-16.163 16.162-8.9263-0.0003-16.162-7.2367-16.162-16.163 0.0003-8.9263 7.2367-16.162 16.163-16.162 8.9263 0.0003 16.162 7.2367 16.162 16.163" transform="translate(243.45,-304.06)"/>
        <path id="path3460" style="stroke:#a02c2c;stroke-width:3;fill:#f4d7d7" d="m216.17 363.44c-0.00051 15.063-12.212 27.274-27.275 27.273-15.063-0.0005-27.274-12.212-27.273-27.275 0.0005-15.063 12.212-27.274 27.275-27.273 15.063 0.00051 27.274 12.212 27.273 27.275" transform="translate(271.73,-284.86)"/>
        <path id="path3462" style="fill:#501616" d="m226.27 364.95c-0.00023 6.9736-5.6537 12.627-12.627 12.626-6.9736-0.00024-12.627-5.6537-12.626-12.627 0.00023-6.9736 5.6537-12.627 12.627-12.626 6.9736 0.00024 12.627 5.6537 12.626 12.627" transform="translate(252.54,-284.86)"/>
        <path id="path3464" style="fill:#501616" d="m226.27 364.95c-0.00023 6.9736-5.6537 12.627-12.627 12.626-6.9736-0.00024-12.627-5.6537-12.626-12.627 0.00023-6.9736 5.6537-12.627 12.627-12.626 6.9736 0.00024 12.627 5.6537 12.626 12.627" transform="matrix(.76 0 0 .76 341.69 -181.11)"/>
        <path id="path3466" style="fill:#280b0b" d="m219.46 364.51c-0.00008 2.2683-1.839 4.1071-4.1073 4.107-2.2683-0.00008-4.1071-1.839-4.107-4.1073 0.00008-2.2683 1.839-4.1071 4.1073-4.107 2.2683 0.00008 4.1071 1.839 4.107 4.1073" transform="matrix(1.413,0,0,1.413,163.14,-434.44)"/>
        <path id="path3468" style="fill:#280b0b" d="m219.46 364.51c-0.00008 2.2683-1.839 4.1071-4.1073 4.107-2.2683-0.00008-4.1071-1.839-4.107-4.1073 0.00008-2.2683 1.839-4.1071 4.1073-4.107 2.2683 0.00008 4.1071 1.839 4.107 4.1073" transform="matrix(1.413,0,0,1.413,197.96,-419.08)"/>
        <path id="path3470" style="fill:#e9afaf" d="m221.79 362.9c-0.00004 1.1835-0.95946 2.1428-2.1429 2.1428-1.1835-0.00004-2.1428-0.95947-2.1428-2.1429 0.00004-1.1835 0.95946-2.1428 2.1429-2.1428 1.1835 0.00004 2.1428 0.95946 2.1428 2.1429" transform="translate(252.54,-284.86)"/>
        <path id="path3472" style="fill:#ffd5d5" d="m221.79 362.9c-0.00004 1.1835-0.95946 2.1428-2.1429 2.1428-1.1835-0.00004-2.1428-0.95947-2.1428-2.1429 0.00004-1.1835 0.95946-2.1428 2.1429-2.1428 1.1835 0.00004 2.1428 0.95946 2.1428 2.1429" transform="translate(287.9,-268.43)"/>
        <path id="path3478" style="fill:#a02c2c" d="m205 522.72c-0.00032 9.665-7.8356 17.5-17.501 17.499-9.665-0.00032-17.5-7.8356-17.499-17.501 0.00032-9.665 7.8356-17.5 17.501-17.499 9.665 0.00032 17.5 7.8356 17.499 17.501" transform="translate(252.54,-282.01)"/>
        <path id="path3480" style="fill:#a02c2c" d="m205 522.72c-0.00032 9.665-7.8356 17.5-17.501 17.499-9.665-0.00032-17.5-7.8356-17.499-17.501 0.00032-9.665 7.8356-17.5 17.501-17.499 9.665 0.00032 17.5 7.8356 17.499 17.501" transform="matrix(.55102 0 0 .55102 371.01 -50.887)"/>
        <path id="path3482" style="fill:#a02c2c" transform="matrix(.79592 0 0 .79592 347.95 -160.33)" d="m205 522.72c-0.00032 9.665-7.8356 17.5-17.501 17.499-9.665-0.00032-17.5-7.8356-17.499-17.501 0.00032-9.665 7.8356-17.5 17.501-17.499 9.665 0.00032 17.5 7.8356 17.499 17.501"/>
        <path id="path3484" style="fill:#a02c2c" d="m205 522.72c-0.00032 9.665-7.8356 17.5-17.501 17.499-9.665-0.00032-17.5-7.8356-17.499-17.501 0.00032-9.665 7.8356-17.5 17.501-17.499 9.665 0.00032 17.5 7.8356 17.499 17.501" transform="matrix(.79592 0 0 .79592 366.52 -185.33)"/>
        <path id="path3486" style="fill:#a02c2c" transform="matrix(.44898 0 0 .44898 382.64 23.523)" d="m205 522.72c-0.00032 9.665-7.8356 17.5-17.501 17.499-9.665-0.00032-17.5-7.8356-17.499-17.501 0.00032-9.665 7.8356-17.5 17.501-17.499 9.665 0.00032 17.5 7.8356 17.499 17.501"/>
        <path id="path3488" style="fill:#a02c2c" d="m205 522.72c-0.00032 9.665-7.8356 17.5-17.501 17.499-9.665-0.00032-17.5-7.8356-17.499-17.501 0.00032-9.665 7.8356-17.5 17.501-17.499 9.665 0.00032 17.5 7.8356 17.499 17.501" transform="matrix(.44898 0 0 .44898 352.64 -22.191)"/>
        <path id="path3490" style="fill:#a02c2c" transform="matrix(.42857 0 0 .42857 442.54 29.548)" d="m205 522.72c-0.00032 9.665-7.8356 17.5-17.501 17.499-9.665-0.00032-17.5-7.8356-17.499-17.501 0.00032-9.665 7.8356-17.5 17.501-17.499 9.665 0.00032 17.5 7.8356 17.499 17.501"/>
        <path id="path3492" style="fill:#a02c2c" d="m205 522.72c-0.00032 9.665-7.8356 17.5-17.501 17.499-9.665-0.00032-17.5-7.8356-17.499-17.501 0.00032-9.665 7.8356-17.5 17.501-17.499 9.665 0.00032 17.5 7.8356 17.499 17.501" transform="matrix(.7551 0 0 .7551 403.46 -176.14)"/>
        <path id="path3494" style="fill:#a02c2c" transform="matrix(.36735 0 0 .36735 460.09 4.0512)" d="m205 522.72c-0.00032 9.665-7.8356 17.5-17.501 17.499-9.665-0.00032-17.5-7.8356-17.499-17.501 0.00032-9.665 7.8356-17.5 17.501-17.499 9.665 0.00032 17.5 7.8356 17.499 17.501"/>
        <path id="path3496" style="fill:#a02c2c" d="m205 522.72c-0.00032 9.665-7.8356 17.5-17.501 17.499-9.665-0.00032-17.5-7.8356-17.499-17.501 0.00032-9.665 7.8356-17.5 17.501-17.499 9.665 0.00032 17.5 7.8356 17.499 17.501" transform="matrix(.79592 0 0 .79592 402.95 -231.04)"/>
        <path id="path3498" style="fill:#a02c2c" transform="matrix(.79592 0 0 .79592 375.09 -250.33)" d="m205 522.72c-0.00032 9.665-7.8356 17.5-17.501 17.499-9.665-0.00032-17.5-7.8356-17.499-17.501 0.00032-9.665 7.8356-17.5 17.501-17.499 9.665 0.00032 17.5 7.8356 17.499 17.501"/>
        <path id="path3500" style="fill:#a02c2c" d="m205 522.72c-0.00032 9.665-7.8356 17.5-17.501 17.499-9.665-0.00032-17.5-7.8356-17.499-17.501 0.00032-9.665 7.8356-17.5 17.501-17.499 9.665 0.00032 17.5 7.8356 17.499 17.501" transform="matrix(.36735 0 0 .36735 480.09 -33.092)"/>
        <path id="path3502" style="fill:#a02c2c" d="m205 522.72c-0.00032 9.665-7.8356 17.5-17.501 17.499-9.665-0.00032-17.5-7.8356-17.499-17.501 0.00032-9.665 7.8356-17.5 17.501-17.499 9.665 0.00032 17.5 7.8356 17.499 17.501" transform="matrix(.89796 0 0 .89796 348.46 -336.88)"/>
        <path id="path3504" style="fill:#a02c2c" transform="matrix(.36735 0 0 .36735 470.8 -73.092)" d="m205 522.72c-0.00032 9.665-7.8356 17.5-17.501 17.499-9.665-0.00032-17.5-7.8356-17.499-17.501 0.00032-9.665 7.8356-17.5 17.501-17.499 9.665 0.00032 17.5 7.8356 17.499 17.501"/>
        <path id="path3506" style="fill:#a02c2c" d="m205 522.72c-0.00032 9.665-7.8356 17.5-17.501 17.499-9.665-0.00032-17.5-7.8356-17.499-17.501 0.00032-9.665 7.8356-17.5 17.501-17.499 9.665 0.00032 17.5 7.8356 17.499 17.501" transform="matrix(.53061 0 0 .53061 438.05 -177.72)"/>
        <path id="path3508" style="fill:#a02c2c" transform="matrix(.53061 0 0 .53061 402.33 -209.86)" d="m205 522.72c-0.00032 9.665-7.8356 17.5-17.501 17.499-9.665-0.00032-17.5-7.8356-17.499-17.501 0.00032-9.665 7.8356-17.5 17.501-17.499 9.665 0.00032 17.5 7.8356 17.499 17.501"/>
        <path id="path3510" style="fill:#a02c2c" d="m205 522.72c-0.00032 9.665-7.8356 17.5-17.501 17.499-9.665-0.00032-17.5-7.8356-17.499-17.501 0.00032-9.665 7.8356-17.5 17.501-17.499 9.665 0.00032 17.5 7.8356 17.499 17.501" transform="matrix(.36735 0 0 .36735 455.09 -114.52)"/>
        <path id="path3512" style="fill:#a02c2c" transform="matrix(.71429 0 0 .71429 298.97 -263.37)" d="m205 522.72c-0.00032 9.665-7.8356 17.5-17.501 17.499-9.665-0.00032-17.5-7.8356-17.499-17.501 0.00032-9.665 7.8356-17.5 17.501-17.499 9.665 0.00032 17.5 7.8356 17.499 17.501"/>
        <path id="path3514" style="fill:#a02c2c" d="m205 522.72c-0.00032 9.665-7.8356 17.5-17.501 17.499-9.665-0.00032-17.5-7.8356-17.499-17.501 0.00032-9.665 7.8356-17.5 17.501-17.499 9.665 0.00032 17.5 7.8356 17.499 17.501" transform="matrix(.30612 0 0 .30612 368.35 -71.446)"/>
        <path id="path3516" style="fill:#a02c2c" d="m205 522.72c-0.00032 9.665-7.8356 17.5-17.501 17.499-9.665-0.00032-17.5-7.8356-17.499-17.501 0.00032-9.665 7.8356-17.5 17.501-17.499 9.665 0.00032 17.5 7.8356 17.499 17.501" transform="matrix(.5102 0 0 .5102 364.37 -104.55)"/>
        <path id="path3518" style="fill:#a02c2c" transform="matrix(.36735 0 0 .36735 410.8 -29.52)" d="m205 522.72c-0.00032 9.665-7.8356 17.5-17.501 17.499-9.665-0.00032-17.5-7.8356-17.499-17.501 0.00032-9.665 7.8356-17.5 17.501-17.499 9.665 0.00032 17.5 7.8356 17.499 17.501"/>
        <path id="path3520" style="fill:#a02c2c" d="m205 522.72c-0.00032 9.665-7.8356 17.5-17.501 17.499-9.665-0.00032-17.5-7.8356-17.499-17.501 0.00032-9.665 7.8356-17.5 17.501-17.499 9.665 0.00032 17.5 7.8356 17.499 17.501" transform="matrix(.2449 0 0 .2449 455.19 23.772)"/>
        <path id="path3522" style="fill:#a02c2c" transform="matrix(.38776 0 0 .38776 425.91 -39.831)" d="m205 522.72c-0.00032 9.665-7.8356 17.5-17.501 17.499-9.665-0.00032-17.5-7.8356-17.499-17.501 0.00032-9.665 7.8356-17.5 17.501-17.499 9.665 0.00032 17.5 7.8356 17.499 17.501"/>
      </g>
    </g>
  </g>
</svg>