<?xml version="1.0" encoding="utf-8"?>
<svg class="pants" width="86" height="380" viewBox="202.715 584.407 86.5933 380.048" preserveAspectRatio="xMidYMid meet" xmlns="http://www.w3.org/2000/svg" xmlns:xlink="http://www.w3.org/1999/xlink">
  <defs id="svgEditorDefs">
    <path id="svgEditorClosePathDefs" fill="moccasin" style="stroke-width: 0px; stroke: none; fill-opacity: 1;" class="clothes"/>
    <pattern id="pattern-0" x="0" y="0" width="20" height="20" patternUnits="userSpaceOnUse" viewBox="0 0 100 100">
      <rect x="-0.962" y="-0.641" width="105.929" height="100.801" style="fill: rgb(255, 254, 254);"/>
      <g transform="matrix(0.184475, 0, 0, 0.291082, 2.476186, -0.544087)">
        <rect id="rect3615" style="fill:#000000" height="358.29" width="600" y="-4.2108" x="-30.389"/>
        <g id="g5555" transform="matrix(1.0541 0 0 1.0541 117.87 -409.84)">
          <path id="path2593" style="fill:#e40000" d="m97.356 692.96c0.771-6.15 3.304-14.23 6.774-21.56 3.26-6.9 3.65-12.05 1.41-18.41-2.09-5.9-1.74-11.82 0.74-12.61 1.33-0.42 1.77-1.23 1.41-2.61-0.29-1.1 0.6-5.35 1.98-9.45 3.02-8.98 2.82-13.6-0.79-18.67-1.5-2.09-3.02-5.24-3.38-7-0.62-2.98-4.71-12-8.03-17.69-0.969-1.66-1.412-5.01-1.32-10 0.144-7.77-1.637-16.95-3.536-18.23-2.756-1.87-3.44-0.74-2.875 4.73 0.39 3.78 0.211 5.5-0.573 5.5-0.627 0-1.139-0.75-1.139-1.67 0-2.38-1.473-0.59-1.642 2-0.078 1.2-1.334 6.45-2.791 11.67-3.885 13.93-6.428 26.02-6.646 31.59-0.206 5.25 0.962 16.29 1.891 17.87 0.309 0.52 0.667 1.94 0.795 3.14s1.393 4.72 2.812 7.82c1.42 3.1 2.581 6.23 2.581 6.95 0 0.73 0.9 2.13 2 3.13s2 2.59 2 3.53c0 0.95 0.626 2.25 1.391 2.88 1.806 1.5 2.69 4.92 1.466 5.68-0.55 0.34-0.587 1.08-0.089 1.75 0.476 0.64 0.98 7.64 1.119 15.55 0.195 11.05 0.618 14.95 1.819 16.78 0.86 1.32 1.676 2.27 1.811 2.11 0.136-0.15 0.501-2.3 0.812-4.78zm-3.577-52c-1.834-6-4.785-19.95-4.653-22 0.089-1.37-0.308-4.45-0.882-6.84-0.575-2.39-0.882-8.58-0.683-13.78 0.289-7.52 0.763-9.94 2.345-11.95l1.984-2.53 0.706 4.72c0.409 2.72 0.286 5.38-0.291 6.31-0.601 0.96-0.655 2.52-0.137 3.92 0.475 1.29 0.584 2.79 0.244 3.34-0.341 0.55-0.084 3.77 0.571 7.15 2.331 12.06 1.971 11.16 3.745 9.39 0.871-0.87 1.778-3.53 2.015-5.9 0.446-4.46 0.886-5.56 1.837-4.61 1.63 1.64-0.17 18.12-2.706 24.78-1.154 3.03-2.444 6.4-2.867 7.5-0.598 1.55-0.871 1.67-1.228 0.5zm-17.715 18.75c0.543-1.24 1.793-3.6 2.777-5.25 2.154-3.61 2.092-8.98-0.189-16.5-3.987-13.14-5.895-32.56-3.753-38.2 2.07-5.46 3.388-10.34 3.586-13.29 0.117-1.74 0.502-3.64 0.856-4.21 1.244-2.01 2.509-17.63 1.619-19.98-0.662-1.74-1.66-2.32-3.974-2.32-1.7 0-3.914-0.44-4.92-0.98-2.304-1.23-4.474 1.04-3.606 3.77 0.33 1.04-0.098 3.56-0.949 5.59-0.851 2.04-1.299 4.11-0.995 4.6s-0.055 1.26-0.798 1.71c-1.867 1.12-4.482 9.69-5.803 19.01-2.149 15.16 0.952 32.46 7.713 43.03 1.865 2.91 3.312 5.63 3.218 6.03-0.095 0.41 0.353 2.58 0.996 4.82s1.271 6.4 1.394 9.25c0.241 5.53 1.232 6.56 2.828 2.92zm-11.371-57.42c-1.234-1.23-0.649-8.78 1.266-16.33 2.549-10.05 3.854-13.24 5.232-12.78 1.141 0.38 2.005 9.78 0.899 9.78-0.839 0-3.413 6.09-3.807 9-0.186 1.38-0.592 4.41-0.903 6.75-0.541 4.08-1.249 5.02-2.687 3.58zm28.586-112.14c3.436-3.38 8.951-8.1 12.251-10.49 6.15-4.45 29.8-17.7 31.6-17.7 2.64 0 6.92-3.35 9.2-7.22 5.1-8.62 13.54-17.53 24.2-25.57 3.3-2.48 6.45-5.04 7-5.68 0.55-0.63 1.9-1.5 3-1.91 1.89-0.72 1.9-0.83 0.23-2.06-0.98-0.73-1.51-1.98-1.19-2.82 0.43-1.12-0.38-1.67-3.23-2.16-5.59-0.97-26.9-3.23-32.05-2.7-11.79 1.21-14.01 1.82-18.81 3.53-3.31 1.18-9.83 3-13.79 5.55-4.47 2.87-8.66 5.39-8.66 5.81 0 0.43-2.33 1.5-4.8 4.19-2.475 2.7-7.185 7.03-10.003 11.31-2.657 4.04-4.145 6.92-7.435 13.43-2.305 4.55-3.764 10.64-4.19 13.12-1.354 7.89-2.372 20.37-0.659 28.05 0.046 0.21 2.559 0.17 5.586-0.08 5.162-0.43 5.887-0.83 11.75-6.6zm71.141-39.64c17.49-5.98 33.75-7.92 43.05-5.12l4.75 1.43-0.69-3.68c-0.38-2.02-1.13-3.95-1.66-4.28-0.54-0.33-1.1-1.44-1.25-2.48-0.15-1.03-1.14-2.11-2.19-2.4-1.04-0.28-3.16-1.63-4.69-2.98-7.12-6.3-13.92-5.13-28.36 4.89-10.12 7.02-22.17 18.07-19.71 18.07 0.36 0 5.2-1.55 10.75-3.45z"/>
          <path id="path2589" style="fill:#ffffff" d="m90.027 580.96c0-1.28 0.708-1.28 1.5 0 0.339 0.55 0.141 1-0.441 1-0.583 0-1.059-0.45-1.059-1zm-111.02 83.01c1.81-0.97 3.565-5.47 6.049-15.51 0.68-2.75 2.258-6.81 3.506-9.01 5.4224-9.59 25.935-24.82 54.439-40.41 13.736-7.52 15.712-9.23 16.521-14.31 0.374-2.35 1.356-6.67 2.184-9.59 0.827-2.93 1.334-5.5 1.128-5.7-0.207-0.21-3.286 1.66-6.843 4.15-3.556 2.5-11.866 7.19-18.466 10.43-21.377 10.49-43.416 16.47-66 17.89-9.258 0.59-13.086 1.28-16.75 3.02-2.613 1.24-4.75 2.61-4.75 3.06s2.307 1.58 5.128 2.51c4.05 1.35 7.364 1.6 15.75 1.19 16.336-0.8 31.96-5.56 44.567-13.58 5.822-3.71 9.391-4.26 4.452-0.7-14.387 10.39-29.547 15.55-50.147 17.08l-8.75 0.65v4.01c0 3.22 0.629 4.6 3.182 6.98l3.183 2.97 8.046-2.65c9.439-3.12 10.422-3.61 16.29-8.09 2.4486-1.87 5.2047-3.4 6.1251-3.4 1.0567 0.01 0.5159 0.71-1.4675 1.92-1.7275 1.06-3.4528 2.42-3.834 3.04-0.3813 0.62-2.4728 2.24-4.6476 3.62-4.268 2.69-5.338 4.68-7.504 13.92-2.663 11.36-2.557 11.23-12.96 16.48-2.702 1.36-5.095 2.6-5.316 2.74-0.579 0.36 4.622 4.47 8.269 6.53 3.516 1.98 5.931 2.2 8.616 0.76zm92.033-96.26c0.012-1.82 0.201-1.96 0.985-0.75 1.252 1.94 1.252 3 0 3-0.55 0-0.994-1.01-0.985-2.25zm-113.59 90.68c0.864-0.87 1.572-1.9 1.572-2.3s1.51-1.27 3.356-1.94 4.196-2.14 5.221-3.28c1.827-2.01 1.808-2.16-0.975-7.3-2.378-4.4-2.724-5.93-2.134-9.42 0.638-3.78 0.415-4.46-2.382-7.26-1.894-1.89-3.092-4.12-3.1-5.76-0.023-4.57-1.063-6.88-3.618-8.05-4.277-1.95-6.125-1.39-7.314 2.22-0.605 1.83-2.44 4.61-4.078 6.18-3.513 3.37-3.639 4.37-0.976 7.75 1.1 1.4 2 3.65 2 5s1.157 4.16 2.571 6.24c1.767 2.6 2.505 4.92 2.36 7.39-0.354 6.04-0.014 7.63 2.107 9.91 2.426 2.6 3.304 2.71 5.39 0.62zm366.6-11.02c1.35-3.54-2.04-9.49-7.44-13.06-2.24-1.48-3.52-2.88-2.85-3.1 3.66-1.22 13.26 9.94 13.26 15.4 0 1.84 0.41 3.35 0.91 3.35 1.22 0 5.09-6.31 5.09-8.3 0-0.86 1.3-2.49 2.88-3.62 1.59-1.13 3.61-3.85 4.49-6.05s2.47-4.87 3.54-5.94c4.16-4.16 5.33-10.27 2.96-15.46-0.93-2.06-0.77-2.97 1-5.45 2.82-3.96 2.69-5.52-0.79-9.41-2.61-2.93-3.48-3.27-8.32-3.27-4.18 0-6.32 0.6-9.43 2.66-7.92 5.24-16.23 6.08-28.4 2.88-9.37-2.47-31.58-11.32-43.68-17.4-5.08-2.56-15.88-7.31-24-10.56-8.11-3.25-18.25-7.36-22.53-9.13s-8.06-2.95-8.39-2.62c-0.68 0.68-0.85 4.65-0.54 12.73l0.21 5.56 5.25 1.31c14.02 3.5 42.2 16.61 57.25 26.64 8.74 5.82 21.87 17.83 25.68 23.47 2.02 3.01 7.19 9.17 11.5 13.71l7.82 8.25h6.77c6.37 0 6.83-0.15 7.76-2.59zm3.97-13.06c-1.93-0.86-4.63-1.97-6-2.46-1.87-0.66-1.29-0.77 2.29-0.4 5.12 0.52 8.71 1.98 8.71 3.55 0 1.29-0.86 1.17-5-0.69zm-6.38-6.38c-3.88-1.16-7.22-4.47-10.36-10.22-3.26-6-8.68-9.66-20.58-13.92-7.46-2.66-8.66-3.37-6.65-3.87 2.63-0.65 8.58 1.11 21.23 6.27l7.76 3.17 6.5-2.11c6.35-2.07 10.67-1.92 14.03 0.46 1.69 1.21 3.56 8.94 2.88 11.96-1.3 5.86-1.72 6.51-5 7.88-3.75 1.57-5.59 1.64-9.81 0.38zm11.43-3.54c0.72-0.86 1.34-3.75 1.37-6.42 0.14-9.2-6.6-12.52-16.11-7.92-2.37 1.15-4.31 2.77-4.31 3.61 0 2.93 4.33 9.21 7.4 10.73 4.06 2 9.99 2 11.65 0zm4.8-20.39c2.53-2.35 3.25-3.73 2.89-5.58-0.36-1.88-0.04-2.46 1.35-2.46 1.47 0 1.75 0.67 1.49 3.53-0.37 4.22-0.19 4-5.13 6.02l-3.95 1.61 3.35-3.12zm-7.85-2.04c-1.19-0.77-0.97-0.97 1.02-0.98 1.39-0.01 3.53-0.72 4.75-1.58 1.83-1.28 2.23-1.3 2.23-0.16 0 0.77-1.15 1.92-2.55 2.56-3.06 1.39-3.52 1.41-5.45 0.16zm-354.81 42.99c0.403-1.37 1.805-6.02 3.116-10.33l2.383-7.85-2.922 0.59c-3.828 0.76-10.509 5.58-11.165 8.04-0.284 1.07 0.324 3.54 1.352 5.5s2.132 4.38 2.453 5.38c0.819 2.55 3.892 1.7 4.783-1.33zm171.35-10.57c3.15-1.32 4.5-1.39 8.02-0.4 2.33 0.65 5.58 0.89 7.23 0.53 4.26-0.94 15.08-11.08 17.61-16.52 1.17-2.49 3.58-6.64 5.36-9.21s3.24-4.99 3.24-5.36c0-2.39 7.75-19.46 9.88-21.76 2.42-2.62 2.6-3.49 2.7-13 0.06-5.61 0.28-10.65 0.49-11.2 0.45-1.2-2.04-10.63-3.14-11.87-0.43-0.48-1.9 1.32-3.28 4-1.37 2.68-3.66 6.42-5.07 8.31-1.42 1.9-2.6 4.37-2.63 5.5-0.08 3.89-2.88 10.03-5.42 11.88-1.39 1.02-2.53 2.48-2.53 3.26s-0.74 1.42-1.64 1.42c-0.91 0-2.24 0.79-2.97 1.75-1.6 2.11-1.8 5.25-0.33 5.25 0.58 0 0.75 0.5 0.37 1.11-0.49 0.78-0.9 0.75-1.45-0.13-0.93-1.5-2.98-0.41-2.98 1.58 0 0.79-0.45 1.44-1 1.44s-1 0.63-1 1.39c0 0.77-1.15 1.68-2.56 2.04-2.09 0.52-2.43 1.04-1.88 2.85 0.97 3.14 1.2 3.24 3.26 1.38 1.01-0.91 2.43-1.66 3.15-1.66s-0.87 1.67-3.55 3.71l-4.86 3.71-12.03 0.4-12.03 0.41v-3.87c0-2.55-0.43-3.78-1.25-3.61-0.69 0.14-1.25-0.2-1.25-0.75s-0.68-1-1.5-1c-0.83 0-1.5 0.68-1.5 1.5 0 0.83-0.71 1.5-1.57 1.5-1.43 0-1.43-0.14 0-1.57 1.81-1.82 1.99-3.05 0.56-3.93-0.55-0.35-1.28 0.08-1.61 0.94-0.67 1.75-3.38 2.15-3.38 0.5 0-0.58 0.38-0.82 0.85-0.53 1.5 0.93 5.03-4 3.96-5.54-0.75-1.06-1.08-1.09-1.47-0.12-0.28 0.69-1.15 1.25-1.93 1.25s-1.41 0.51-1.41 1.12c0 0.78-0.47 0.74-1.5-0.12-0.83-0.68-1.5-1.98-1.49-2.87 0.02-1.42 0.14-1.44 1-0.13 0.88 1.33 1.1 1.33 1.97 0 1.47-2.24 1.22-3.19-0.73-2.78-2.32 0.49-5.25-2.89-5.25-6.04 0-1.38-0.25-2.27-0.54-1.97-0.68 0.67-6.46-4.32-6.46-5.57 0-0.51-1.41-3.21-3.14-6.01-1.72-2.8-3.63-6.47-4.25-8.17-1.2-3.3-8.891-10.85-9.965-9.78-1.133 1.14-0.7 9.7 0.778 15.38 0.885 3.39 1.219 7.76 0.881 11.49-0.516 5.68-0.29 6.51 4.076 14.98 2.54 4.94 4.62 9.65 4.64 10.47 0.06 3.91 3.99 10.04 7.53 11.73 2.68 1.28 4.4 3.21 6.47 7.26 3.02 5.92 10.9 14.29 14.98 15.9 3.69 1.45 7.28 1.31 11.54-0.47zm-12.4-31.31c-0.83-0.53-0.97-1.1-0.36-1.48 0.56-0.34 1.26 0.05 1.58 0.88 0.66 1.72 0.6 1.75-1.22 0.6zm35.94-9.53c-0.05-1.05 0.19-1.64 0.52-1.31s0.37 1.2 0.08 1.92c-0.32 0.8-0.56 0.56-0.6-0.61zm-27.08 6.4c0-1.8-2.32-3.33-3.41-2.24-0.8 0.8-0.76 4.76 0.06 5.58 1.01 1.01 3.35-1.33 3.35-3.34zm5 0.52c0-2.48-0.45-3.5-1.53-3.5-2.11 0-2.85 2.42-1.52 4.92 1.68 3.14 3.05 2.5 3.05-1.42zm4.81 0.17c0.23-1.89-0.14-2.67-1.25-2.67-1.08 0-1.56 0.95-1.56 3.08 0 3.83 2.35 3.49 2.81-0.41zm5.19-0.75c0-3.83-2.36-3.49-2.82 0.41-0.22 1.89 0.14 2.67 1.25 2.67 1.08 0 1.57-0.95 1.57-3.08zm5 0.14c0-3.25-1.6-4.86-3.22-3.25-1.42 1.43-0.09 6.19 1.74 6.19 0.97 0 1.48-1.01 1.48-2.94zm9.2-17.07c0.94-1.64 1.3-2.99 0.82-2.99-0.49 0-1.17 0.9-1.52 2s-1.06 2-1.57 2-0.93 0.45-0.93 1c0 1.91 1.51 0.97 3.2-2.01zm-42.7 1.01c-0.34-0.55-1.3-1-2.12-1-0.83 0-1.22 0.45-0.88 1s1.29 1 2.11 1c0.83 0 1.23-0.45 0.89-1zm-1.08-4.13c-0.38-0.6-1.11-0.54-1.97 0.17-0.75 0.62-1.8 0.86-2.34 0.53-1.18-0.73-2.46 1.07-1.66 2.35 0.32 0.52 1.86 0.27 3.57-0.58 1.65-0.82 2.73-1.93 2.4-2.47zm12.06-1.85c0.38-0.62 1.36-0.52 2.62 0.25 1.7 1.04 2.24 0.93 3.46-0.71 1.77-2.39 1.87-6.71 0.19-8.47-1.02-1.07-0.85-1.19 0.96-0.65 1.22 0.37 3.06 0.22 4.09-0.33 2.81-1.51 6.2-0.26 6.17 2.26-0.03 1.93-0.13 1.96-1.05 0.38-1.17-2.01-4.96-2.32-6.72-0.55-1.78 1.78-1.51 7.47 0.38 8.19 3.08 1.19 5.6 0.61 6.13-1.39 0.62-2.37 2.29-2.68 2.29-0.43 0 1.12 0.78 1.47 2.75 1.25 2.37-0.28 2.72-0.73 2.54-3.32-0.18-2.7-0.13-2.76 0.53-0.57 1 3.3 2.98 3.74 4.11 0.9 0.77-1.9 0.95-1.98 1-0.47 0.06 1.6 0.59 1.77 3.81 1.16 2.07-0.39 4.04-1.17 4.39-1.74s1.14-0.73 1.75-0.35c0.64 0.39 1.12 0.02 1.12-0.87 0-0.86 0.56-1.45 1.25-1.31 1.64 0.33 1.64-4.45 0-5-0.76-0.25-1.26 0.5-1.27 1.92-0.01 1.35-0.32 1.86-0.75 1.2-0.4-0.62-1.86-1.07-3.23-1-2.04 0.12-2.46 0.61-2.26 2.64 0.24 2.46 0.23 2.46-0.72 0.24-1.1-2.59-4.02-3.04-4.02-0.63 0 1.26-0.31 1.37-1.37 0.49-0.75-0.62-2.21-1.06-3.25-0.96-3.59 0.32-5.05-0.16-5.05-1.65 0-0.92 0.93-1.5 2.39-1.5 1.34 0 2.12 0.44 1.78 1-0.34 0.55 0.11 1 1 1s1.33-0.47 0.97-1.04c-0.41-0.66 0.21-0.83 1.7-0.45 1.29 0.32 4.03-0.12 6.09-0.97 2.86-1.2 3.74-1.27 3.77-0.3 0.02 0.85 0.43 0.74 1.25-0.33 0.67-0.87 1.75-1.4 2.41-1.18 0.82 0.27 1.18-1.12 1.17-4.42-0.02-2.64 0.42-5.99 0.98-7.42 1.22-3.18 7.47-8.5 11.04-9.4 3.63-0.91 5.12-2.36 5.12-4.99 0-2.24-2.21-4.96-3.21-3.96-0.29 0.29-0.32-0.56-0.07-1.89 0.57-2.98-1.23-4.27-3.52-2.5-1.53 1.18-1.53 1.11 0.05-0.75 0.96-1.13 1.75-3.12 1.75-4.42 0-2.23 0.07-2.26 1.35-0.52 0.89 1.22 2.08 1.66 3.5 1.29 1.18-0.31 1.9-0.16 1.59 0.34s-1.69 0.91-3.06 0.91c-1.56 0-2.25 0.41-1.83 1.09 0.38 0.61 1.84 0.88 3.25 0.61l2.58-0.5-2.36 1.78-2.35 1.78 2.09 1.11c1.15 0.62 2.91 0.82 3.91 0.46 1.77-0.65 1.77-0.6 0.01 1.4-1.36 1.55-1.51 2.26-0.59 2.83 1.7 1.05 9.39-7.91 10.79-12.58 1.5-5.01 1.41-6.67-0.56-10.01-1.44-2.44-1.51-3.57-0.5-8.15 1.95-8.88 2.47-21.82 1.26-31.32-0.62-4.95-1.54-12.05-2.02-15.78-0.96-7.4-2.95-11.36-6.37-12.63-7.5-2.79-50.58 7.3-57.76 13.53-0.87 0.75-3.74 4.78-6.39 8.96-5.43 8.58-6.36 13.12-4.28 20.85 1.43 5.3 3.65 7.25 3.87 3.4l0.14-2.33 0.43 2.25c0.24 1.24 0.76 2.25 1.15 2.25s0.78 1.24 0.87 2.75c0.15 2.67 0.12 2.69-0.94 0.5-1.78-3.68-3.78-2.78-3.78 1.71 0 7.9-6.27 20.9-12.22 25.34-5.7 4.25-7.91 4.95-15.42 4.86-5.21-0.06-7.53 0.31-8.09 1.29-0.65 1.15-1.24 1.15-3.773-0.05-2.931-1.38-2.938-1.4-0.312-0.9 4.425 0.84 4.255-1.32-0.492-6.39-5.065-5.42-6.823-8.53-8.671-15.36-0.707-2.61-1.842-4.75-2.523-4.75-1.51 0-8.502 17.89-8.502 21.75 0 3.23 5.378 11.8 9 14.34 3.417 2.4 9.152 3.54 8.778 1.75-0.153-0.74-1.178-1.63-2.278-1.99-1.865-0.61-1.848-0.66 0.25-0.75 1.706-0.08 2.25-0.7 2.25-2.6 0-1.37 0.525-2.5 1.166-2.5 0.642 0 0.871 0.3 0.509 0.66s-0.1 1.35 0.583 2.19c0.835 1.03 0.855 1.31 0.077 0.84-1.485-0.89-2.059 0.83-1.514 4.55 0.438 2.98 0.659 3.15 5.412 4.19 1.5 0.33 4.31 1.99 6.25 3.69 3.33 2.92 3.52 3.43 3.52 9.42 0 3.49 0.45 6.62 1.01 6.97s0.75 1.07 0.41 1.61c-0.33 0.54 0.56 2.14 1.99 3.56 1.42 1.43 2.59 2.25 2.59 1.83 0-0.41 0.69-0.18 1.54 0.53 1.91 1.58 3 0.5 3.8-3.79 0.64-3.42-0.1-4.08-2.21-2-1.02 1-1.21 0.95-0.95-0.25 0.22-1.06-0.41-1.43-2.18-1.26-2.17 0.2-2.27 0.09-0.74-0.81 1.77-1.05 10.38-0.32 11.16 0.95 0.22 0.35 3.34 0.62 6.93 0.59 4.41-0.03 6.26 0.29 5.68 0.99-0.47 0.57-1.05 2.39-1.3 4.04l-0.43 3-0.15-3.28c-0.16-3.5-2.49-5.29-4.4-3.38-0.8 0.81-1.47 0.81-2.43 0.01-0.97-0.8-1.72-0.76-2.82 0.15-1.23 1.02-1.5 0.95-1.5-0.38 0-1.92-1.14-2.09-2.8-0.42-1.47 1.47-1.6 6.8-0.17 6.8 0.57 0 1.44-1.01 1.94-2.25 0.88-2.19 0.9-2.18 0.96 0.39 0.06 2.19 1.63 3.86 3.65 3.86 0.23 0 0.47-1.24 0.53-2.75 0.09-2.06 0.24-2.25 0.59-0.75 0.82 3.5 5.35 5.85 6.78 3.52zm-2.22-26.72c-3.24-0.63-5.26-4.11-5.26-9.06 0-5.75 9.54-29.23 11.88-29.25 0.89-0.01 2.6-0.28 3.8-0.6 1.88-0.51 2.34-0.02 3.27 3.44 0.6 2.22 3.32 8.33 6.05 13.57 4 7.71 4.85 10.17 4.38 12.82-0.67 3.75-5.47 8.78-8.37 8.78-1.99 0-5.01-4.49-5.01-7.45 0-0.85-0.45-1.55-1-1.55s-1 1.35-1 3c0 3.11-3.06 7.1-5.25 6.86-0.69-0.07-2.26-0.33-3.49-0.56zm37.24-24.92c-8.62-2.02-13.5-5.82-13.5-10.5 0-0.67-0.59-1.93-1.3-2.8-0.72-0.87-2.1-4.73-3.06-8.58-0.97-3.85-2.42-7.51-3.23-8.13-1.12-0.86-1.23-1.73-0.46-3.75 1.26-3.31 1.91-3.38 1.29-0.12-0.54 2.81 1.69 3.5 3.65 1.13 0.62-0.75 3.9-2.61 7.29-4.13 5.44-2.44 6.98-2.7 13.3-2.22 16.8 1.27 22.88 7.7 20.52 21.73-1.97 11.68-6.88 16.86-16.56 17.46-3.27 0.21-6.84 0.17-7.94-0.09zm-25.43-28.63c-0.05-1.17-0.88-1.75-2.51-1.75-2.25 0-2.39-0.28-1.86-3.75 0.75-4.83 1.3-5.43 1.3-1.42 0 1.75 0.45 3.17 1 3.17s1-0.45 1-1 0.39-1 0.88-1c1.31 0 1.92 3.25 1.03 5.52-0.66 1.69-0.78 1.72-0.84 0.23zm-64.978 58.18c1.598-1.14 2.905-2.66 2.905-3.39 0-1.5-2.781-2.98-4.912-2.62-3.278 0.56-8-1.07-8.6-2.95-0.343-1.09-1.193-1.97-1.889-1.97-0.74 0-1.266-1.25-1.266-3 0-1.65 0.262-3 0.583-3s0.678-1.35 0.793-3c0.302-4.31-1.173-3.69-3.074 1.28-1.917 5.03-2.001 6.86-0.548 12.1 2.255 8.12 9.592 11.12 16.008 6.55zm8.712-7.33c0.265-4.09 0.058-4.71-1.5-4.52-0.994 0.13-2.614-0.12-3.601-0.55-2.614-1.13-3.238 0.09-1.649 3.22 4.391 8.66 6.275 9.17 6.75 1.85zm112.13-2.62c2.63-5.06 2.88-6.11 1.59-6.61-1.75-0.67-6.35 2.02-7.19 4.2-0.73 1.9 0.52 8.43 1.61 8.43 0.47 0 2.26-2.71 3.99-6.02zm-121.93-2.86c0-1.03-0.596-2.37-1.324-2.97-1.059-0.88-1.236-0.51-0.886 1.87 0.478 3.26 2.21 4.12 2.21 1.1zm-4.291-2.12c-0.225-3.22-0.48-3.43-2.563-2.11-1.055 0.67-1.103 1.32-0.215 2.98 1.635 3.06 3.022 2.62 2.778-0.87zm-9.182-10.06c0.95-2.11 1.459-4.53 1.132-5.39-0.369-0.96-0.049-1.55 0.837-1.55 0.788 0 1.96-1.01 2.604-2.25s0.813-1.92 0.377-1.51c-0.87 0.81-3.477-0.96-3.477-2.36 0-0.48 0.888-0.88 1.974-0.88 1.193 0 2.604-1.22 3.565-3.08 1.511-2.92 1.491-3.1-0.392-3.59-1.091-0.29-2.535-1.85-3.209-3.48-1.036-2.5-1.703-2.91-4.332-2.65-2.318 0.22-3.032 0.74-2.813 2.05 0.227 1.35-0.407 1.75-2.781 1.75-3.502 0-4.915 2.21-2.938 4.59 0.928 1.12 2.241 1.39 4.611 0.94 3.239-0.61 3.315-0.54 3.315 2.87 0 3.45-0.04 3.48-3 2.45-1.65-0.57-3-1.4-3-1.83 0-0.93-4.032-2.12-5.044-1.49-1.232 0.76 2.185 9.34 3.893 9.78 0.908 0.23 0.638 0.31-0.599 0.19-2.321-0.23-3.126 1.84-1.182 3.04 0.587 0.37 0.809 1.34 0.492 2.16-0.318 0.83 0.411 2.53 1.627 3.79 2.902 3.02 5.968 1.71 8.34-3.55zm-5.527 0.06c-1.282-0.83-1.246-0.97 0.25-0.98 0.962-0.01 1.75 0.43 1.75 0.98 0 1.22-0.113 1.22-2 0zm13 2.44c0-0.24-0.45-0.44-1-0.44s-1 0.48-1 1.06 0.45 0.78 1 0.44 1-0.82 1-1.06zm154.5-13.96c22-12.45 37.34-19.36 59.59-26.83 5.72-1.92 12.43-4.42 14.91-5.55 3.05-1.39 6.75-2.09 11.5-2.16 8.36-0.13 18.16-1.27 19.11-2.22 0.38-0.38-0.51-1.64-1.98-2.79-4.08-3.22-5.93-7.57-5.36-12.64 0.27-2.4 1.26-5.22 2.21-6.27 2.33-2.57 1.14-4.02-3.29-4.01-4.54 0.01-11.67 3.26-21.34 9.71-8.32 5.56-19.75 10.98-24.9 11.8-3.28 0.53-3.23 0.46 1.05-1.4 9.5-4.13 20.77-10.09 27.5-14.55 3.85-2.56 8.01-4.9 9.25-5.22 2.87-0.73 2.87-2.16 0-3.27-2.56-0.98-5.92-4.44-7.73-7.95-1.2-2.32-1.29-2.25-4.37 3.31-6.19 11.14-15.21 17.8-35.37 26.08-14.08 5.79-55.19 27.01-57.53 29.69-1.93 2.22-2.3 5.84-0.76 7.38 1.3 1.31 1.45 4.68 0.5 11.26l-0.78 5.35 3.39-1.75c1.87-0.96 8.35-4.55 14.4-7.97zm-174.69-8.74c0.174-1.51 0.735-2.74 1.247-2.74s2.639-1.54 4.726-3.43c2.088-1.88 5.014-3.73 6.503-4.11 1.489-0.37 2.708-1.01 2.708-1.42 0-0.92-18.035-8.57-31.67-13.45-9.765-3.48-27.622-10.9-37.896-15.73-2.6884-1.26-9.1175-6.01-14.287-10.54-6.936-6.09-10.74-8.67-14.523-9.84-2.818-0.88-5.762-1.86-6.542-2.18-0.965-0.39-0.74 0.52 0.706 2.86 4.392 7.1 3.812 15.6-1.499 21.91-1.396 1.66-2.293 3.26-1.993 3.56s3.394 0.79 6.875 1.1c3.48 0.3 7.914 1.34 9.852 2.31s5.763 2.08 8.5 2.46c7.6945 1.08 24.86 5.51 25.977 6.72 0.702 0.75 0.405 0.86-1 0.35-3.865-1.41-21.434-5.57-23.529-5.57-1.1655 0-5.348-1.07-9.295-2.37-6.471-2.13-17.676-4.13-17.676-3.14 0 0.21 0.715 3.45 1.589 7.2 0.874 3.74 1.367 8.5 1.095 10.56-0.58 4.4 1.066 5.01 4.267 1.57 1.885-2.02 2.901-2.17 14.289-2.06 14.64 0.15 16.571 0.62 45.76 11.1 12.375 4.45 23.175 7.98 24 7.85 0.825-0.12 1.642-1.46 1.816-2.97zm-92.721-11.92c1.525-2.85 0.591-14.06-1.635-19.63-1.808-4.52-12.888-15.55-16.593-16.51-4.44-1.17-8.867 7.3-8.867 16.95 0 11.25 10.206 21.04 22.214 21.29 2.841 0.06 3.989-0.43 4.881-2.1zm137.91-4.29c6.23-1.65 19.66-8.38 24.65-12.36 3.67-2.93 13.9-17.95 12.9-18.95-0.76-0.76-21.5 9.73-29.06 14.7-6.49 4.27-20.493 16.05-20.493 17.24 0 1.29 5.884 0.98 12.003-0.63zm242.25-21.58c2.39-2.59 2.74-3.79 2.73-9.22-0.02-7.54-0.86-9.22-4.11-8.19-4.43 1.4-9.81 5.44-11.43 8.56-1.95 3.78-1.27 7.17 2.15 10.58 3.13 3.14 6.7 2.56 10.66-1.73zm-378.7-2.6c1.351-1.46 2.983-4.41 3.626-6.55 1.023-3.42 0.901-4.45-0.98-8.33-3.4-6.99-10.597-7.38-14.458-0.77-1.544 2.65-1.688 3.84-0.835 6.92 0.959 3.48 7.45 11.38 9.344 11.38 0.465 0 1.951-1.19 3.303-2.65zm372.38-17.33c8.44-2.42 11.49-10.12 6.78-17.12-5.35-7.95-20.63-7.49-28.35 0.84-3.63 3.92-3.2 8.51 1.13 11.96 6.14 4.9 13.21 6.39 20.44 4.32z"/>
        </g>
      </g>
    </pattern>
    <pattern id="pattern-1" viewBox="0 0 100 100" patternUnits="userSpaceOnUse" preserveAspectRatio="none" width="100" height="100">
      <g id="g4947" transform="matrix(0.566424, 0, 0, 0.676714, -12.616541, -14.343151)">
        <path id="path4951" d="m2.5958 177.14c40.025 9.7687 96.547 11.765 139.52 0.67424 34.733-6.577 62.288-8.1343 87.307-6.5362l0.29-168.41c-40.49-2.7972-42.06-0.1479-89.55 6.4917-49.986 10.445-95.287 5.2723-140.17-1.2979z" style="fill:url(#linearGradient4963)"/>
      </g>
      <g id="g4973" transform="matrix(0.566424, 0, 0, 0.676714, -12.616541, -14.343151)">
        <path id="path4979" style="fill:url(#linearGradient4983)" d="m72.775 99.745-33.389-18.882-34.484 16.801 7.64-37.59-26.634-27.603 38.111-4.351 18.022-33.86 15.914 34.901 37.773 6.676-28.276 25.921z" transform="matrix(.99969 -.024698 .024698 .99969 71.214 47.164)"/>
      </g>
    </pattern>
    <pattern id="pattern-0-0" patternTransform="matrix(6.237841, 0, 0, 3.283945, 198.058578, 827.378663)" xlink:href="#pattern-0"/>
    <symbol id="symbol-0" viewBox="0 0 100 100"/>
    <linearGradient id="linearGradient4963" y2="104.74" gradientUnits="userSpaceOnUse" x2="229.41" gradientTransform="translate(0 .85421)" y1="109.05" x1="-10.353">
      <stop id="stop4965" style="stop-color:#000098" offset="0"/>
      <stop id="stop9555" style="stop-color:#0044d8" offset="0.5"/>
      <stop id="stop4961" style="stop-color:#0000c0" offset="1"/>
    </linearGradient>
    <linearGradient id="linearGradient4983" y2="43.606" gradientUnits="userSpaceOnUse" x2="96.841" y1="43.755" x1="-4.508">
      <stop id="stop4933" style="stop-color:#a2a2a2" offset="0"/>
      <stop id="stop9559" style="stop-color:#ffffff" offset="0.4492"/>
      <stop id="stop4929" style="stop-color:#9f9f9f" offset="1"/>
    </linearGradient>
  </defs>
  <path d="M 211.308 791.108 C 211.308 804.347 201.794 825.047 201.794 839.242 C 201.794 847.084 203.259 854.124 203.259 861.513 C 203.259 875.181 205.453 888.928 205.453 902.463 C 205.453 907.454 203.259 911.858 203.259 915.395 C 203.259 920.269 203.99 924.398 203.99 927.608 C 204.964 928.327 208.25 933.426 208.25 933.644 C 210.484 934.362 210.577 931.301 210.577 927.608 C 213.955 926.89 218.926 923.297 225.212 923.297 C 227.619 921.654 232.351 922.579 234.726 922.579 C 234.726 906.35 240.581 888.852 240.581 871.571 C 240.581 864.054 242.776 858.46 242.776 852.892 C 242.776 847.384 242.776 842.594 242.776 837.805 C 242.776 834.213 242.776 831.339 242.776 828.466 C 242.776 831.829 243.508 834.441 243.508 837.087 C 243.508 841.637 243.508 845.468 243.508 849.3 C 243.508 852.965 242.044 857.114 242.044 858.639 C 242.044 862.711 242.044 866.063 242.044 869.416 C 242.044 874.445 242.044 878.756 242.044 883.066 C 242.044 888.399 244.971 891.777 244.971 895.997 C 244.971 899.158 245.703 901.941 245.703 904.618 C 245.703 909.701 246.435 913.269 246.435 917.55 C 246.435 920.631 253.609 920.424 255.947 920.424 C 258.013 920.424 262.152 920.767 263.265 921.861 C 266.68 921.861 277.991 924.449 280.674 924.449 C 281.405 920.443 279.364 910.104 279.364 905.337 C 283.599 896.305 278.633 886.945 278.633 879.473 C 278.633 870.612 280.828 864.374 280.828 856.484 C 280.828 853.477 283.047 835.649 283.755 835.649 C 283.755 830.534 283.755 827.765 283.755 823.437 C 283.755 818.732 282.292 814.195 282.292 809.068 C 282.292 806.039 280.828 805.538 280.828 802.602 C 280.096 801.226 278.633 798.118 278.633 795.418 C 277.9 792.229 276.437 792.595 276.437 790.389 C 272.121 790.389 269.127 787.515 269.12 787.515 C 265.461 787.515 262.534 787.515 259.606 787.515 C 254.918 787.515 252.022 786.797 248.629 786.797 C 246.281 788.385 241.414 787.515 239.117 787.515 C 236.677 787.515 234.969 787.515 233.262 787.515 C 228.312 791.656 226.282 788.234 223.749 788.234 C 220.381 787.515 219.671 786.078 216.431 786.078 C 213.723 786.078 212.041 788.545 212.041 790.389 L 211.308 791.108 Z" style="stroke: black; fill: url(#pattern-0-0);" class="clothes"/>
  <g transform="matrix(0.087098, 0.020435, 0, 0.087098, 205.789093, 750.700562)">
    <g id="layer1" transform="translate(180.33325,-76.557339)">
      <path style="fill:#000000" d="M -116.855 698.954 C -119.261 698.565 -123.323 696.099 -125.883 693.473 C -130.259 688.985 -130.399 688.013 -128.21 677.222 C -120.745 640.407 -138.97 557.526 -144.533 528.874 C -145.812 522.287 -146.836 514.703 -146.808 512.021 C -146.779 509.34 -161.673 539 -148.824 477.405 C -140.742 438.662 -151.675 439.756 -146.14 431.329 L -141.287 423.94 L -145.485 414.206 C -147.794 408.853 -152.276 399.915 -155.445 394.345 C -169.695 369.297 -149.394 355.328 -149.576 336.614 C -149.726 321.24 -150.523 317.345 -155.338 308.48 C -162.993 294.387 -171.789 267.448 -173.99 251.357 C -174.288 249.176 -175.109 246.053 -175.813 244.418 C -176.517 242.782 -178.003 233.86 -179.115 224.591 C -181.114 207.918 -181.078 207.679 -175.744 202.285 C -172.779 199.286 -169.36 196.833 -168.145 196.833 C -166.931 196.833 -163.441 194.602 -160.389 191.876 C -157.338 189.15 -154.168 186.919 -153.344 186.919 C -152.52 186.919 -147.619 185.054 -142.452 182.775 C -129.333 176.988 -125.915 175.639 -117.111 172.773 C -112.867 171.391 -109.395 169.548 -109.395 168.676 C -109.395 167.805 -108.01 167.092 -106.316 167.092 C -104.623 167.092 -97.91 165.316 -91.399 163.146 C -84.887 160.976 -71.439 158.409 -61.515 157.441 C -47.098 156.034 -41.85 154.599 -35.415 150.302 C -25.944 143.978 -12.959 140.614 -9.303 143.538 C -7.589 144.908 -2.336 144.251 7.451 141.443 C 16.06 138.972 27.732 137.323 36.918 137.281 C 53.764 137.202 69.634 134.007 84.706 127.66 C 95.38 123.165 115.599 121.988 121.058 125.543 C 123.646 127.228 123.064 128.448 117.457 133.092 C 113.779 136.139 110.766 139.459 110.762 140.47 C 110.762 141.481 106.591 143.958 101.503 145.974 C 90.845 150.198 89.015 153.83 98.925 151.092 C 102.596 150.077 105.856 149.248 106.171 149.248 C 106.486 149.248 111.502 144.71 117.319 139.163 C 130.791 126.318 135.226 124.681 147.486 128.027 C 153.622 129.702 160.914 130.148 167.771 129.268 C 196.017 125.642 251.324 131.491 250.494 138.017 C 249.082 149.121 254.42 153.809 266.49 152.064 C 274.705 150.877 276.633 151.426 285.283 157.412 C 294.573 163.84 295.668 164.094 315.567 164.426 C 330.938 164.683 339.35 165.872 348.492 169.081 C 355.245 171.451 371.845 175.477 385.382 178.028 C 406.961 182.094 412.285 182.43 428.592 180.754 C 459.581 177.568 473.121 172.488 485.795 159.291 C 494.984 149.723 501.963 148.94 515.814 155.924 L 524.767 160.438 L 530.791 154.632 C 537.378 148.286 540.934 148.126 559.856 153.332 C 568.52 155.716 570.021 155.658 572.959 152.826 C 577.301 148.643 574.954 145.282 567.691 145.282 C 564.501 145.282 560.752 143.959 559.358 142.341 C 557.257 139.901 557.763 139.056 562.327 137.384 C 565.353 136.276 570.947 135.369 574.758 135.369 C 580.547 135.369 582.982 133.821 589.542 125.973 C 604.599 107.961 614.946 102.518 637.519 100.734 C 673.071 97.926 681.431 96.361 696.591 89.676 C 701.353 87.576 708.761 84.976 713.051 83.898 C 717.342 82.82 726.452 80.498 733.295 78.737 C 745.007 75.723 746.817 75.757 764.159 79.326 C 786.217 83.864 787.821 86.966 771.096 92.74 C 764.78 94.921 756.305 99.199 752.262 102.247 C 748.169 105.334 740.495 108.566 734.941 109.542 C 704.318 114.925 692.82 120.838 717.268 118.63 C 734.636 117.061 738.083 119.803 730.407 129.08 C 721.737 139.558 719.815 144.955 719.586 159.471 C 719.31 176.975 716.834 182.836 709.084 184.33 C 703.634 185.38 700.898 187.829 693.086 198.652 C 691.394 200.995 686.47 203.934 682.144 205.183 C 677.817 206.433 672.469 209.669 670.26 212.375 C 664.391 219.565 647.393 224.844 630.647 224.679 C 622.907 224.602 614.805 223.627 612.643 222.512 C 609.429 220.855 608.713 221.158 608.713 224.175 C 608.713 229.083 600.939 235.852 593.281 237.612 C 585.727 239.348 570.668 249.69 556.962 262.554 C 551.323 267.846 545.815 272.176 544.72 272.176 C 543.626 272.176 535.586 276.662 526.853 282.146 C 511.991 291.479 511.436 292.073 518.178 291.432 C 527.361 290.559 533.539 287.363 544.248 277.948 C 550.394 272.544 557.108 269.187 567.91 266.115 C 589.661 259.932 609.515 253.046 618.903 248.431 C 623.393 246.224 628.741 244.418 630.787 244.418 C 632.833 244.418 637.731 242.326 641.671 239.769 C 648.227 235.516 662.72 230.562 677.206 227.624 C 684.596 226.125 699.765 230.004 698.729 233.128 C 698.298 234.43 693.547 238.618 688.171 242.435 C 677.893 249.732 677.506 251.163 681.892 265.636 C 682.856 268.816 681.789 271.274 677.961 274.692 C 671.279 280.659 642.585 321.661 638.504 331.074 C 636.027 336.787 635.887 339.448 637.798 344.54 C 641.284 353.83 638.803 360.554 630.845 363.385 C 620.934 366.91 597.668 371.1 591.58 370.456 L 586.272 369.894 L 592.636 375.622 C 598.622 381.01 599.439 381.206 606.428 378.926 C 616.156 375.752 635.585 376.546 645.947 380.541 C 652.082 382.906 654.476 385.102 655.312 389.128 C 656.166 393.244 659.952 396.579 671.154 403.08 C 683.487 410.239 688.208 411.824 700.277 412.864 C 716.013 414.219 725.914 418.01 735.06 426.182 L 740.993 431.483 L 736.702 434.831 C 734.342 436.673 728.884 438.747 724.574 439.442 C 720.264 440.136 715.772 441.373 714.592 442.192 C 709.232 445.91 692.934 467.404 691.892 472.13 C 688.335 488.259 680.342 491.169 658.077 484.445 C 639.819 478.931 635.404 479.265 617.33 487.53 L 601.652 494.699 L 607.489 499.538 C 612.422 503.626 614.985 504.258 624.02 503.614 C 629.9 503.194 635.575 502.342 636.63 501.721 C 638.865 500.405 692.622 503.658 697.19 505.387 C 705.077 508.371 748.042 509.669 780.851 507.915 C 788.953 507.481 796.174 507.691 796.898 508.38 C 800.403 511.719 795.013 520.399 786.967 524.372 C 776.339 529.62 775.816 529.683 732.17 531.006 C 695.754 532.11 680.225 534.146 669.927 539.167 C 662.896 542.595 662.617 544.282 669.349 542.654 C 676.426 540.943 688.931 548.443 687.541 553.565 C 686.88 555.998 676.397 562.193 657.394 571.381 C 635.366 582.032 624.998 588.378 614.886 597.398 C 599.304 611.297 588.668 615.33 573.971 612.914 C 549.179 608.837 546.88 608.797 531.954 612.184 C 518.061 615.337 516.097 615.371 509.73 612.573 C 493.108 605.269 453.547 595.419 444.104 596.234 C 436.26 596.911 437.968 600.109 447.19 602.015 C 451.717 602.951 458.939 605.114 463.239 606.822 C 469.779 609.42 470.956 610.762 470.44 615.035 C 469.983 618.826 468.499 620.276 464.68 620.662 C 454.915 621.651 443.576 625.418 439.588 628.997 C 431.3 636.438 413.543 635.535 402.425 627.108 C 395.435 621.81 376.391 617.254 366.55 618.526 C 357.044 619.755 352.107 618.46 319.618 606.215 C 258.723 583.265 257.519 582.938 238.653 584.163 C 225.046 585.047 220.447 584.63 216.534 582.159 C 211.844 579.199 209.695 573.548 213.258 573.548 C 214.173 573.548 216.583 572.377 218.613 570.947 C 225.375 566.182 201.367 569.302 189.386 574.745 C 179.692 579.149 177.729 579.424 171.506 577.256 C 164.991 574.986 163.701 575.295 152.56 581.797 C 145.985 585.635 134.587 590.845 127.231 593.375 C 119.875 595.904 112.407 599.159 110.635 600.608 C 108.863 602.056 104.234 603.824 100.347 604.535 C 96.46 605.247 92.354 606.496 91.223 607.311 C 90.091 608.126 84.072 609.41 77.848 610.164 C 71.624 610.918 63.753 612.312 60.358 613.262 C 32.867 620.951 21.694 624.181 11.176 627.482 C -2.006 631.618 -6.236 630.024 -2.055 622.497 C -0.427 619.566 -0.578 618.882 -2.713 619.522 C -4.238 619.98 -9.319 625.817 -14.006 632.495 C -18.692 639.173 -25.265 647.216 -28.612 650.369 C -31.959 653.522 -35.532 657.379 -36.552 658.94 C -43.39 669.405 -83.529 693.045 -99.027 695.734 C -103.032 696.429 -107.697 697.597 -109.395 698.329 C -111.092 699.061 -114.45 699.342 -116.855 698.954 L -116.855 698.954 Z M -58.834 649.875 C -54.955 646.35 -51.782 641.626 -51.782 639.377 C -51.782 635.821 -52.548 635.501 -57.668 636.915 C -70.729 640.525 -74.415 644.247 -74.415 653.824 C -74.415 660.018 -68.286 658.465 -58.834 649.875 L -58.834 649.875 Z M 581.964 587.639 C 581.964 585.311 575.947 583.135 573.514 584.583 C 572.466 585.207 572.141 586.549 572.792 587.564 C 574.306 589.923 581.964 589.985 581.964 587.639 L 581.964 587.639 Z M 613.565 568.77 C 616.996 566.066 618.556 563.603 617.308 562.86 C 616.132 562.16 614.588 562.494 613.878 563.602 C 613.167 564.71 609.862 565.617 606.534 565.617 C 600.843 565.617 598.471 568.967 601.854 572.226 C 604.231 574.516 607.497 573.553 613.565 568.77 Z M 109.176 536.223 C 110.286 535.153 110.867 529.814 110.468 524.359 C 110.068 518.903 110.437 514.855 111.288 515.364 C 112.139 515.872 113.724 514.036 114.81 511.284 C 116.022 508.212 120.782 504.328 127.137 501.224 C 132.832 498.444 137.804 496.404 138.186 496.691 C 138.569 496.978 143.899 495.101 150.032 492.52 C 176.923 481.201 181.492 479.377 182.619 479.511 C 183.277 479.589 185.039 478.473 186.534 477.032 C 188.03 475.591 190.463 474.412 191.941 474.412 C 193.419 474.412 195.715 473.151 197.043 471.609 C 199.375 468.901 216.658 460.121 220.852 459.513 C 229.082 458.321 236.037 455.803 235.106 454.352 C 234.495 453.399 236.362 451.58 239.255 450.31 C 242.148 449.04 244.515 447.244 244.515 446.32 C 244.515 445.396 248.219 443.211 252.745 441.466 C 257.272 439.721 260.976 437.64 260.976 436.843 C 260.976 436.045 264.911 434.221 269.721 432.789 C 274.53 431.357 279.854 428.76 281.552 427.019 C 283.25 425.278 285.564 423.826 286.696 423.793 C 287.828 423.76 296.62 419.969 306.235 415.367 C 315.849 410.765 325.145 407 326.893 407 C 328.641 407 335.413 408.341 341.943 409.98 C 355.616 413.412 360.029 412.084 364.857 403.087 C 368.542 396.22 366.279 388.181 360.131 386.301 C 353.079 384.144 349.717 378.436 348.364 366.324 C 346.832 352.617 347.473 353.968 342.252 353.432 C 329.255 352.099 319.502 356.217 321.828 362.056 C 322.381 363.445 321.386 367.919 319.617 371.999 C 317.848 376.079 316.948 380.27 317.616 381.312 C 318.285 382.355 317.359 383.207 315.56 383.207 C 313.76 383.207 311.705 384.769 310.993 386.677 C 308.31 393.875 298.94 399.762 259.005 419.341 C 246.039 425.698 234.824 431.844 234.084 432.998 C 233.344 434.152 232.146 435.019 231.423 434.924 C 230.098 434.749 219.242 439.784 200.276 449.369 C 194.618 452.229 188.944 454.572 187.668 454.577 C 186.392 454.581 184.276 455.83 182.965 457.352 C 181.655 458.873 177.257 460.72 173.193 461.454 C 166.059 462.744 143.664 472.32 138.844 476.142 C 137.55 477.169 128.171 481.322 118.002 485.372 L 99.514 492.736 L 89.921 487.539 C 76.519 480.28 71.03 480.7 65.706 489.396 C 63.331 493.275 61.387 497.282 61.387 498.301 C 61.387 499.32 66.48 502.923 72.704 506.308 C 78.928 509.693 84.487 513.19 85.058 514.079 C 86.667 516.588 86.688 524.357 85.103 531.036 C 83.886 536.165 84.399 537.416 88.433 539.15 C 93.469 541.316 105.679 539.592 109.176 536.223 L 109.176 536.223 Z M 357.327 522.974 L 363.458 518.003 L 360.49 507.049 C 357.89 497.455 357.896 495.734 360.541 493.185 C 362.202 491.584 364.322 490.246 365.252 490.211 C 366.182 490.177 369.488 487.989 372.601 485.35 C 379.844 479.207 379.682 472.693 372.144 466.963 C 365.377 461.82 360.35 462.807 348.333 471.639 C 341.133 476.931 329.148 478.576 324.191 474.952 C 322.807 473.94 317.045 471.471 311.387 469.466 C 305.728 467.46 297.858 464.461 293.897 462.801 C 289.936 461.141 286.232 459.693 285.666 459.584 C 285.101 459.475 279.279 457.413 272.729 455.002 C 257.719 449.478 251.657 449.559 241.767 455.417 C 232.844 460.702 233.179 461.106 251.167 466.768 C 258.259 469.001 268.95 472.972 274.925 475.594 C 280.9 478.215 287.095 480.36 288.692 480.36 C 290.29 480.36 292.105 481.154 292.727 482.123 C 293.349 483.093 296.131 484.436 298.909 485.108 C 301.688 485.78 310.551 489.185 318.606 492.675 L 333.251 499.02 L 332.771 509.022 C 332.508 514.522 333.408 521.031 334.772 523.484 C 338.264 529.766 349.255 529.518 357.326 522.974 L 357.327 522.974 Z M 574.938 481.026 C 584.109 476.439 585.622 471.447 577.849 471.422 C 570.966 471.4 554.979 476.283 550.938 479.643 C 549.151 481.128 546.373 482.371 544.765 482.406 C 542.542 482.454 542.694 483.094 545.397 485.072 C 549.969 488.418 563.997 486.496 574.938 481.026 L 574.938 481.026 Z M 209.618 438.683 C 214.099 436.48 217.766 433.97 217.766 433.105 C 217.766 432.24 211.053 429.013 202.848 425.935 C 194.644 422.856 183.301 418.331 177.642 415.88 C 171.984 413.43 160.41 408.522 151.922 404.975 C 119.641 391.485 114.884 389.021 114.572 385.628 C 114.083 380.302 113.638 378.646 111.091 372.669 C 109.783 369.599 108.712 366.274 108.712 365.28 C 108.712 364.285 106.369 361.992 103.504 360.183 C 99.556 357.691 96.743 357.323 91.887 358.665 C 81.081 361.651 80.064 365.783 86.99 378.538 L 93.046 389.689 L 88.819 392.892 C 86.494 394.654 82.19 397.88 79.255 400.061 C 76.319 402.242 73.644 405.81 73.31 407.991 C 72.977 410.172 72.024 412.447 71.193 413.046 C 68.786 414.781 75.465 422.598 82.238 425.973 C 90.306 429.993 98.327 428.22 105.722 420.783 C 108.922 417.564 113.008 414.931 114.801 414.931 C 116.595 414.931 128.459 418.429 141.165 422.704 C 153.872 426.979 164.268 429.993 164.268 429.401 C 164.268 428.809 165.664 429.441 167.37 430.805 C 170.752 433.51 194.532 442.419 198.815 442.586 C 200.275 442.642 205.136 440.886 209.618 438.683 L 209.618 438.683 Z M 674.042 437.474 C 680.61 435.778 679.784 432.775 672.75 432.775 C 667.126 432.775 656.837 429.509 645.928 424.26 C 642.011 422.375 640.779 422.394 640.098 424.349 C 639.623 425.712 636.883 426.827 634.01 426.827 C 624.912 426.827 632.12 431.867 645.209 434.658 C 651.731 436.049 657.993 437.462 659.124 437.799 C 662.685 438.857 669.238 438.714 674.042 437.474 L 674.042 437.474 Z M 629.65 411.742 C 632.897 409.808 625.712 405.017 619.564 405.017 C 616.911 405.017 612.263 403.456 609.234 401.548 C 606.206 399.639 604.356 399.061 605.124 400.262 C 605.983 401.605 603.377 403.353 598.357 404.803 C 589.274 407.425 587.783 410.394 594.824 411.842 C 597.37 412.365 601.305 413.22 603.569 413.741 C 608.771 414.938 626.574 413.574 629.65 411.742 L 629.65 411.742 Z M 230.032 404.849 C 240.386 402.709 243.849 399.617 245.578 390.969 C 246.004 388.836 248.306 384.448 250.694 381.217 C 254.119 376.581 255.126 371.99 255.467 359.448 C 255.704 350.706 255.302 343.553 254.574 343.553 C 251.264 343.553 248.246 349.984 249.23 354.942 C 250.905 363.385 245.795 372.466 236.024 378.409 C 230.463 381.792 226.93 382.932 226.436 381.504 C 224.976 377.283 217.717 379.107 215.708 384.199 C 214.633 386.925 213.244 389.156 212.622 389.156 C 212 389.156 210.611 386.925 209.535 384.199 C 207.592 379.273 199.247 376.989 199.247 381.382 C 199.247 384.946 186.233 381.258 182.26 376.568 C 180.273 374.222 177.613 368.498 176.35 363.848 C 173.961 355.056 162.124 342.811 160.514 347.466 C 160.061 348.777 160.72 350.841 161.979 352.054 C 163.238 353.267 164.268 358.498 164.268 363.678 C 164.268 369.272 165.354 373.741 166.943 374.682 C 171.241 377.23 178.196 387.807 178.979 392.988 C 180.655 404.08 205.651 409.887 230.032 404.849 L 230.032 404.849 Z M 194.581 372.126 C 197.568 369.247 198.008 369.247 199.68 372.126 C 201.693 375.592 208.584 376.382 210.516 373.369 C 211.285 372.17 213.603 372.279 216.75 373.66 C 222.583 376.221 229.015 372.619 227.118 367.854 C 226.446 366.167 227.029 365.36 228.567 365.848 C 229.982 366.298 231.436 368.603 231.798 370.971 C 232.633 376.436 235.019 376.42 240.343 370.913 C 243.542 367.604 244.475 364.211 244.206 356.869 C 243.894 348.373 244.584 346.609 249.841 342.467 C 253.136 339.872 257.075 337.716 258.594 337.676 C 262.767 337.569 270.327 331.064 270.198 327.692 C 270.136 326.056 270.827 320.712 271.733 315.817 C 272.768 310.226 272.535 304.696 271.104 300.946 C 266.933 290.009 266.691 282.623 270.327 277.275 C 272.99 273.359 273.596 269.075 272.925 258.914 C 272.406 251.066 271.045 245.339 269.586 244.87 C 268.231 244.435 267.646 243.263 268.286 242.266 C 268.926 241.268 268.414 240.452 267.149 240.452 C 265.883 240.452 265.448 239.517 266.181 238.374 C 267.798 235.854 253.692 222.608 249.391 222.608 C 247.707 222.608 246.822 221.841 247.423 220.904 C 248.724 218.875 232.388 212.33 229.828 213.855 C 228.852 214.436 228.054 213.52 228.054 211.82 C 228.054 210.12 226.897 208.614 225.482 208.473 C 209.012 206.834 202.663 207.285 189.988 210.997 C 182.066 213.316 173.977 215.985 172.012 216.928 C 170.047 217.871 167.565 218.642 166.496 218.642 C 163.144 218.642 151.013 227.194 145.86 233.188 C 137.103 243.377 130.856 268.429 137.143 268.147 C 141.026 267.973 145.749 262.231 145.749 257.685 C 145.749 251.309 153.108 243.501 160.843 241.672 C 164.051 240.913 168.613 238.553 170.981 236.428 C 175.867 232.042 177.55 232.532 175.776 237.824 C 174.398 241.934 165.258 246.642 161.415 245.221 C 160.012 244.702 157.146 246.108 155.045 248.345 C 151.321 252.309 151.325 252.484 155.175 255.291 C 158.73 257.883 158.769 258.177 155.562 258.234 C 153.499 258.27 151.452 260.404 150.696 263.306 C 149.978 266.061 147.646 269.215 145.513 270.315 C 141.18 272.549 140.092 283.776 143.856 287.402 C 145.446 288.935 144.829 292.185 141.682 298.841 C 137.798 307.057 137.547 309.334 139.53 318.411 C 142.568 332.311 146.655 336.628 161.181 341.28 C 173.886 345.349 180.852 352.482 180.218 360.771 C 179.901 364.917 186.418 375.277 189.343 375.277 C 190.425 375.277 192.782 373.859 194.58 372.126 L 194.581 372.126 Z M 193.075 340.744 C 193.075 336.093 200.601 316.344 203.662 312.965 C 205.834 310.567 223.834 329.517 223.894 334.266 C 223.918 336.246 222.934 339.675 221.705 341.887 C 219.485 345.886 219.443 345.883 214.488 341.397 L 209.504 336.886 L 201.289 341.111 L 193.075 345.336 L 193.075 340.744 L 193.075 340.744 Z M 235.256 311.83 C 234.556 310.739 231.461 309.847 228.376 309.847 C 224.429 309.847 221.794 308.233 219.475 304.395 C 211.668 291.467 228.096 276.701 245.583 280.93 C 258.983 284.171 263.551 299.616 253.868 308.946 C 248.692 313.933 237.697 315.637 235.256 311.83 L 235.256 311.83 Z M 168.426 307.634 C 159.425 304.174 156.038 299.791 156.038 291.605 C 156.038 279.894 162.991 274.158 177.19 274.158 C 189.377 274.158 195.486 278.323 197.927 288.298 C 199.301 293.913 195.873 305.951 192.223 308.33 C 189.061 310.391 174.487 309.965 168.426 307.634 Z M 493.603 281.594 C 499.44 274.851 498.549 269.641 492.251 273.693 C 490.009 275.136 485.256 282.772 485.256 284.933 C 485.256 287.611 490.055 285.691 493.603 281.594 Z M 536.734 255.818 L 541.048 251.357 L 536.3 250.068 C 527.048 247.555 521.261 248.327 518.603 252.429 C 515.04 257.927 517.083 260.279 525.421 260.279 C 530.03 260.279 533.894 258.756 536.734 255.818 L 536.734 255.818 Z M 240.342 169.151 C 243.801 167.043 244.097 167.185 227.623 163.085 C 214.53 159.827 203.538 162.769 203.394 169.57 C 203.349 171.722 236.745 171.343 240.342 169.151 Z" id="path3344"/>
    </g>
  </g>
</svg>