<?xml version="1.0" encoding="utf-8"?>
<svg width="86" height="380" viewBox="202.715 584.407 86.5933 380.048" preserveAspectRatio="xMidYMid meet" xmlns="http://www.w3.org/2000/svg">
  <defs id="svgEditorDefs">
    <path id="svgEditorClosePathDefs" class="skin" fill="black" style="stroke-width: 0px; stroke: none;"/>
  </defs>
  <path d="M 215.963 766.419 C 214.506 785.431 229.355 775.301 235.521 780.946 C 239.941 784.994 241.029 776.526 241.029 776.526 C 241.029 776.526 251.428 781.81 254.076 779.683 C 254.862 779.051 253.579 776.526 254.366 775.894 C 255.416 775.049 265.516 775.963 266.128 776.526 C 268.19 778.414 266.72 773.368 266.37 773.368 C 263.171 773.368 275.759 776.104 275.968 773.368" style="stroke: rgb(0, 0, 0); fill: rgb(93, 122, 150);" transform="matrix(0.996785, -0.080129, 0.080129, 0.996785, -61.247587, 22.194505)"/>
  <path d="M 243.516 738.913 C 244.915 727.409 245.323 720.517 246.317 713.401 C 246.646 711.049 246.583 706.788 248.193 700.731 C 249.273 696.668 250.297 693.278 255.714 683.586 C 258.131 679.262 247.664 684.154 246.304 679.885 C 245.187 676.379 242.5 684.039 241.438 680.284 C 240.779 677.955 235.844 683.807 235.844 683.807 L 240.995 696.529 C 244.371 702.104 243.407 740.155 243.407 740.155" style="stroke: rgb(0, 0, 0); fill: rgb(93, 122, 150);"/>
  <path d="M 235.911 684.006 C 235.911 681.283 237.416 684.568 237.869 685.475" style="stroke: rgb(0, 0, 0); fill: rgb(93, 122, 150);"/>
  <path d="M 238.603 686.944 L 238.603 686.944 Z" style="stroke: rgb(0, 0, 0); fill: rgb(93, 122, 150);"/>
  <path d="M 254.023 686.454 C 255.033 686.454 251.78 682.579 251.086 683.272 C 247.913 686.445 249.838 681.816 247.415 683.027 C 242.91 685.28 246.399 686.172 243.499 683.272 C 242.818 682.592 241.499 684.496 240.806 684.496 C 239.07 684.496 240.211 684.391 238.603 682.783 C 238.571 682.75 236.4 683.762 236.4 683.762 C 236.4 683.762 239.827 692.328 239.827 692.328 C 239.827 692.328 241.312 687.548 242.519 686.944 C 243.614 686.396 245.588 690.746 244.722 689.881 C 244.207 689.365 246.487 686.48 247.904 687.188 C 248.327 687.4 249.373 690.615 249.373 690.615 C 249.373 690.615 251.821 684.998 251.821 689.636" style="stroke: rgb(0, 0, 0); fill: rgb(93, 122, 150);"/>
  <path d="M 241.296 695.021 C 241.296 688.924 245.212 694.776 245.212 694.776 C 245.212 694.776 246.84 691.924 247.17 691.594 C 247.21 691.554 249.555 693.615 248.883 694.287 C 248.433 694.737 249.47 692.818 250.107 692.818" style="stroke: rgb(0, 0, 0); fill: rgb(93, 122, 150);"/>
  <path d="M 242.03 699.182 C 242.03 698.163 244.006 695.283 245.212 696.489 C 245.303 696.581 245.457 698.448 245.457 698.448 C 245.457 698.448 248.639 695.178 248.639 698.448" style="stroke: rgb(0, 0, 0); fill: rgb(93, 122, 150);"/>
  <path d="M 215.534 768.94 C 215.534 772.588 220.888 775.059 225.019 775.059 C 226.067 775.059 230.183 774.409 230.832 775.059 C 231.087 775.314 235.064 776.946 235.115 776.894 C 235.439 776.57 235.07 774.186 235.727 773.529 C 238.86 770.396 245.492 777.519 247.965 776.282 C 250.147 775.192 250.264 773.678 251.943 771.999 C 252.071 771.871 257.069 773.942 258.062 774.141 C 261.293 774.787 261.23 773.726 263.263 771.693" style="stroke: rgb(0, 0, 0); fill: rgb(93, 122, 150);"/>
  <path d="M 242.764 703.465 C 243.187 703.465 247.048 700.053 247.048 702.853" style="stroke: rgb(0, 0, 0); fill: rgb(93, 122, 150);"/>
</svg>