<?xml version="1.0" encoding="utf-8"?>
<svg width="86" height="380" viewBox="202.715 584.407 86.5933 380.048" preserveAspectRatio="xMidYMid meet" xmlns="http://www.w3.org/2000/svg">
  <defs id="svgEditorDefs">
    <path id="svgEditorClosePathDefs" class="skin" fill="black" style="stroke-width: 0px; stroke: none;"/>
  </defs>
  <g transform="matrix(0.122094, -0.098291, -0.002903, 0.10428, 240.973312, 684.286377)">
    <g id="layer2" transform="translate(-24.461 -24.264)">
      <path id="path7339" style="fill-rule: evenodd; fill: rgb(127, 183, 186);" d="M 65.844 57.875 L 75.75 55.406 C 90.375 34.432 -18.855 178.704 14.035 216.498 L 20.505 212.81 C -7.285 178.638 92.904 17.034 65.84 57.875 L 65.844 57.875 Z M 58.899 96.747 L 57.733 89.159 C 10.354 68.942 42.857 20.697 72.531 40.094 L 78.165 35.33 C 37.97 6.522 -6.124 72.784 58.899 96.747 L 58.899 96.747 Z M 31.104 223.685 L 26.194 226.966 C 102.154 293.934 33.737 199.561 110.147 253.661 C 34.547 191.237 102.224 283.304 31.104 223.685 Z M 128.719 84.594 L 129.739 91.085 C 168.429 85.507 -46.243 213.446 7.387 255.922 L 11.937 251.947 C -44.843 202.947 162.669 78.999 128.719 84.594 L 128.719 84.594 Z M 90.093 45.969 L 85.249 50.312 C 95.245 60.7 95.462 71.343 96.9 88.233 L 104.089 86.906 C 103.209 71.768 101.589 57.108 90.093 45.969 L 90.093 45.969 Z M 102.239 59.415 L 103.839 65.685 C 117.449 70.182 121.879 82.089 118.339 104.09 L 124.629 103.74 C 128.339 80.644 125.199 64.413 102.239 59.415 Z M 62.439 76.676 C 59.105 89.322 61.073 117.85 92.53 118 L 93.687 111.5 C 68.098 110.48 66.593 88.193 71.593 72.594 L 62.439 76.676 L 62.439 76.676 Z M 36.03 87.25 C -0.933 157.19 139.12 176.51 65.472 282.84 L 67.718 289.12 C 150.359 179.65 10.714 152.18 42.155 92.25 L 36.03 87.25 L 36.03 87.25 Z M 114.399 87.722 C 102.439 92.092 87.045 93.328 74.381 92.958 L 75.576 98.628 C 85.112 99.903 106.779 97.023 115.029 94 L 114.399 87.722 Z M 97.561 101.59 C 97.379 122.58 98.706 143.17 72.874 165.19 L 76.718 170.53 C 102.769 149.91 104.219 130.95 104.029 100.53 L 97.561 101.59 L 97.561 101.59 Z M 107.029 110.34 L 107.459 117.24 C 151.029 105.21 153.399 129.29 145.809 137.5 C 138.219 145.71 120.819 139.32 123.189 118.41 L 117.119 118.78 C 113.269 143.94 137.729 156.38 151.339 142.9 C 164.889 129.5 154.819 96.245 107.029 110.34 L 107.029 110.34 Z M 62.093 174.12 C 6.559 228.48 77.686 305.04 77.202 348.12 C 76.721 390.94 48.174 408.09 47.347 445.14 C 46.518 482.26 71.172 511.24 70.138 522.86 C 69.104 534.48 54.109 535.84 54.375 520.45 C 51.031 539.94 67.234 534.508 66.831 517.278 C 66.429 500.048 51.087 482.86 51.737 446.23 C 52.399 408.93 80.627 397.77 82.202 348.12 C 83.778 298.47 14.051 232.08 66.968 178.44 L 62.093 174.12 L 62.093 174.12 Z M 88.376 59.28 C 70.832 59.329 13.76 73.838 5.067 83.63 L 51.718 81.403 C 58.918 74.364 71.231 65.264 90.718 65.935 L 88.376 59.28 L 88.376 59.28 Z M 65.155 534.349 C 48.805 533.431 114.643 376.122 58.293 376.577 C 1.933 377.032 71.264 300.039 24.994 262.439 L 71.759 228.057 C 121.399 269.751 3.223 381.857 58.293 381.483 C 113.353 381.109 44.485 535.774 64.595 537.255 C 84.695 538.736 88.765 515.064 62.795 517.67 C 85.245 519.046 81.505 535.267 65.155 534.349 L 65.155 534.349 Z M 55.946 293.516 C 55.946 293.516 42.478 316.046 41.24 328.846 C 40.001 341.666 39.223 353.726 49.868 364.646 C 43.532 353.176 43.158 348.686 44.327 333.126 C 45.495 317.566 58.995 299.626 58.995 299.626 L 55.946 293.516 Z"/>
    </g>
    <g id="layer3" transform="matrix(1, 0, 0, 1, -24.461, -24.264)">
      <g id="g15781" transform="matrix(1, 0, 0, 1, 90.930885, 20.567699)">
        <path id="path15756" style="fill-rule: evenodd; fill: rgb(127, 183, 186);" d="M -41.422 279.253 C -34.572 277.823 -30.652 275.224 -30.182 272.867 C -30.672 269.752 -37.612 271.853 -36.392 263.257 C -35.512 257.044 -31.872 261.557 -28.292 263.315 C -27.932 260.872 -42.812 254.443 -35.602 250.276 C -21.872 246.905 -22.562 254.71 -21.162 261.808 C -20.972 259.476 -20.122 258.185 -20.912 255.761 C -17.382 257.947 -15.782 258.006 -14.942 262.518 C -13.392 270.735 -28.722 280.438 -41.422 279.253 L -41.422 279.253 Z"/>
        <path id="path15758" style="fill-rule: evenodd; fill: rgb(127, 183, 186);" d="M -31.572 276.427 C -26.022 274.601 -16.492 262.558 -31.332 252.549 C -13.572 261.721 -25.522 275.487 -31.572 276.427 Z"/>
      </g>
      <g id="g15750" transform="matrix(1.0582, 0, 0, 1.0582, 109.198654, -74.875824)">
        <path id="path15748" style="fill-rule: evenodd; fill: rgb(127, 183, 186);" d="M -43.278 225.665 C -45.048 230.45 -49.628 233.596 -54.188 234.859 C -49.048 231.141 -44.748 227.626 -47.698 223.581 C -49.778 220.639 -57.158 229.75 -60.438 225.542 C -63.658 221.41 -60.798 221.372 -57.748 218.555 C -60.358 217.386 -70.898 229.821 -73.438 220.271 C -75.898 211.021 -65.088 210.498 -56.768 211.567 C -59.298 210.596 -61.618 210.495 -64.608 210.587 C -65.608 206.256 -61.058 203.807 -54.558 205.56 C -45.168 208.093 -41.498 220.841 -43.278 225.665 Z"/>
        <path id="path15746" style="fill-rule: evenodd; fill: rgb(127, 183, 186);" d="M -48.978 231.468 C -38.638 220.198 -50.978 209.877 -70.118 217.972 C -49.688 206.139 -36.318 221.785 -48.978 231.468 Z"/>
      </g>
      <g id="g15770" transform="matrix(-.79794 -.77032 .73610 -.83503 171.01 409.98)">
        <path id="path15772" style="fill-rule: evenodd; fill: rgb(127, 183, 186);" d="M 237.23 92.042 C 224.96 91.484 226.27 83.257 230.11 78.952 C 229.62 75.837 221.06 77.265 222.27 68.668 C 223.15 62.455 226.8 66.969 230.38 68.727 C 230.74 66.284 217.53 59.314 224.74 55.147 C 233.22 52.607 237.66 60.358 238.32 66.471 C 238.51 64.139 238.4 63.07 239.99 61.784 C 245.01 63.769 242.34 70.653 238.99 73.471 C 234.49 77.264 221 87.578 237.23 92.042 L 237.23 92.042 Z"/>
        <path id="path15776" style="fill-rule: evenodd; fill: rgb(127, 183, 186);" d="M 234.3 75.954 C 238.44 69.262 233.93 60.959 228.55 58.607 C 236.16 60.936 238.98 70.18 234.3 75.954 Z"/>
      </g>
      <g id="g15787" transform="matrix(1.114 -.55828 -.60199 -1.0563 -147.45 648.8)">
        <path id="path15789" style="fill-rule: evenodd; fill: rgb(127, 183, 186);" d="M 238.43 98.729 C 225.72 92.778 226.79 82.466 230.63 78.16 C 231.12 75.115 219.17 70.921 225.59 65.259 C 226.69 67.761 227.2 69.045 228.37 68.386 C 230.8 67.023 221.79 63.01 223.32 58.331 C 225.43 51.876 238.39 56.433 238.94 65.997 C 239.6 64.003 239.16 63.259 238.53 61.52 C 243.82 65.21 243.03 72.452 238.96 74.08 C 232.73 76.571 221.8 86.209 238.43 98.729 Z"/>
        <path id="path15791" style="fill-rule: evenodd; fill: rgb(127, 183, 186);" d="M 232.37 77.085 C 234.57 71.706 237.47 65.211 226.85 58.363 C 238.11 63.352 236.29 70.17 232.37 77.085 Z"/>
      </g>
      <g id="g15793" transform="matrix(-.73991 -.62512 -.65489 .87070 526.36 146.78)">
        <path id="path15795" style="fill-rule: evenodd; fill: rgb(127, 183, 186);" d="M 292.246 323.308 C 295.606 323.84 297.086 324.16 301.126 325.824 C 296.266 324.836 290.606 322.275 290.656 327.092 C 290.686 329.92 284.326 337.507 279.366 332.652 C 275.966 328.981 279.526 327.718 281.226 326.342 C 278.616 325.173 271.206 335.997 266.366 327.381 C 261.066 317.94 275.006 316.814 281.306 318.494 C 278.766 317.523 273.996 318.116 275.056 313.142 C 277.376 311.425 281.436 311.779 286.086 314.725 C 292.386 318.724 291.206 320.489 292.246 323.308 L 292.246 323.308 Z"/>
        <path id="path15797" style="fill-rule: evenodd; fill: rgb(127, 183, 186);" d="M 290.306 323.606 C 287.416 322.749 279.586 320.06 268.456 325.244 C 278.846 318.898 285.866 322.048 290.306 323.606 Z"/>
      </g>
      <g id="g15799" transform="matrix(-0.14605, -0.78773, -1.1807, 0.17207, 410.599915, 342.142456)">
        <path id="path15801" style="fill-rule: evenodd; fill: rgb(127, 183, 186);" d="M -2.811 276.377 C -0.191 277.278 10.709 275.316 11.149 289.803 C 7.899 277.949 3.429 279.544 -2.771 278.66 C -2.051 281.592 -7.241 287.614 -14.461 286.87 C -17.601 283.864 -14.871 282.006 -13.491 280.02 C -16.101 278.852 -22.161 288.728 -28.361 281.06 C -35.491 272.219 -19.721 270.492 -13.421 272.173 C -15.951 271.201 -20.731 271.795 -19.671 266.821 C -17.351 265.104 -13.281 265.458 -8.641 268.404 C -2.331 272.403 -3.841 273.558 -2.811 276.377 L -2.811 276.377 Z"/>
        <path id="path15803" style="fill-rule: evenodd; fill: rgb(127, 183, 186);" d="M -4.941 276.699 C -10.731 276.475 -16.521 275.18 -25.561 278.553 C -15.851 273.917 -11.981 275.904 -4.941 276.699 Z"/>
      </g>
      <g id="g15805" transform="translate(-163.37 156)">
        <path id="path15807" style="fill-rule: evenodd; fill: rgb(127, 183, 186);" d="M 211.09 52.914 C 210.35 70.883 214.03 80.668 226.02 79.999 C 230.13 76.577 219.3 76.393 222.1 68.854 C 223.9 64.016 227.55 66.694 231.59 69.373 C 232.41 67.237 217.53 62.958 224.89 56.181 C 235.24 51.12 238.86 60.614 240.25 67.713 C 241.06 66.302 241.61 64.704 240.81 62.28 C 244.04 63.084 245.51 64.913 245.25 68.883 C 244.73 76.979 236.89 83.68 226.87 83.614 C 215.64 83.54 205.72 74.691 211.09 52.914 L 211.09 52.914 Z"/>
        <path id="path15809" style="fill-rule: evenodd; fill: rgb(127, 183, 186);" d="M 227.23 80.949 C 236.06 80.303 241.35 64.037 228.55 58.607 C 243.9 63.098 236.32 81.773 227.23 80.949 Z"/>
      </g>
      <g id="g15811" transform="matrix(-.18599 .98255 -.98255 -.18599 170.44 150.35)">
        <path id="path15813" style="fill-rule: evenodd; fill: rgb(127, 183, 186);" d="M 224.9 85.889 C 227.8 83.531 229 82.577 230.62 80.55 C 227.34 79.993 222.08 72.999 225.14 69.002 C 228.82 64.195 229.37 71.107 231.88 69.318 C 232.26 66.872 217.58 64.935 223.98 57.171 C 232.33 50.6 239.82 60.451 239.81 66.878 C 240.65 65.361 240.6 64.241 239.91 62.422 C 245.29 63.79 245.43 66.997 246.09 71.328 C 246.82 76.139 242.69 81.074 237.9 81.226 C 236.03 81.285 234.83 81.345 231.72 80.762 C 230.16 81.295 228.32 84.003 224.9 85.889 L 224.9 85.889 Z"/>
        <path id="path15815" style="fill-rule: evenodd; fill: rgb(127, 183, 186);" d="M 233.35 79.186 C 235.25 73.809 237.64 65.086 227.63 59.094 C 238.95 64.659 236.16 74.014 233.35 79.186 Z"/>
      </g>
    </g>
  </g>
  <g transform="matrix(0.263672, 0, 0, 0.263672, 224.654144, 730.224609)">
    <g id="layer1" transform="translate(-724.88 -598.51)">
      <path id="path4139" d="M 841.26 598.51 C 841.2 598.51 841.07 598.55 841.01 598.55 C 836.6 598.42 828.59 599.74 820.67 601.92 C 812.33 604.21 804.31 607.97 795.26 610.86 C 791.17 608.93 787.01 607.1 782.85 605.61 C 775.61 603.02 768.6 601.33 763.1 601.33 C 761.74 601.33 760.4 601.41 759.1 601.58 C 757.8 601.74 756.53 601.98 755.32 602.3 C 752.91 602.92 750.72 603.81 748.85 604.92 C 745.53 606.9 743.32 609.58 742.85 612.61 C 740.96 612.67 739.15 612.77 737.63 612.95 C 734.04 613.38 731.44 614.1 729.57 615.05 C 728.64 615.52 727.87 616.04 727.26 616.61 C 724.8 618.86 724.88 621.7 724.88 623.45 C 724.88 624.63 725.47 625.94 726.54 627.39 C 727.61 628.84 729.21 630.38 731.38 631.8 C 732.47 632.5 733.69 633.18 735.07 633.8 C 737.83 635.03 741.2 636.02 745.2 636.55 C 747.2 636.81 749.37 636.95 751.7 636.95 C 753.88 636.95 756.31 636.72 758.85 636.39 C 767.18 635.31 776.96 632.7 785.88 629.92 C 787.39 629.45 788.48 629.05 789.92 628.58 C 791.14 629.13 792.39 629.65 793.6 630.2 C 799.4 632.85 756.513 613.752 761.773 615.962 L 761.37 619.653 C 756.15 617.463 800.06 631.38 794.26 628.73 C 793.57 628.42 792.86 628.11 792.17 627.8 C 800.79 624.91 808.23 622.2 810.51 621.39 C 810.74 621.31 811.71 620.96 812.01 620.86 C 816.76 623 821.75 625.09 826.73 626.83 C 830.83 628.26 834.77 629.47 838.26 630.36 C 841.75 631.25 844.79 631.82 847.04 631.92 C 851.53 632.12 857.15 630.76 861.67 628.3 C 862.79 627.68 863.84 626.99 864.79 626.23 C 865.74 625.48 866.59 624.66 867.29 623.76 C 868.7 621.97 869.54 619.86 869.38 617.58 C 869.09 613.21 866.75 610.24 863.42 608.48 C 861.24 607.34 858.56 606.78 855.76 606.42 C 855.12 603.64 853.67 601.68 851.54 600.51 C 850.04 599.69 848.2 599.25 846.17 598.95 C 844.57 598.64 843 598.53 841.57 598.55 C 841.47 598.55 841.36 598.51 841.26 598.51 L 841.26 598.51 Z M 841.26 600.11 L 841.29 600.11 C 843.05 600.18 844.57 600.36 846.01 600.58 C 847.31 600.84 848.61 601.19 849.76 601.76 C 851.71 602.74 853.25 604.14 854.01 606.26 C 853.06 606.19 852.17 606 851.2 605.98 C 836.44 607.49 822.42 612.08 808.1 617.2 C 806.79 616.55 805.25 615.91 804.07 615.26 C 803.09 614.72 801.97 614.23 800.95 613.7 C 801.19 613.6 801.73 613.42 801.95 613.33 C 805.58 611.74 813.29 608.47 821.17 605.58 C 829.03 602.69 837.14 600.2 841.26 600.11 L 841.26 600.11 Z M 763.1 602.92 C 764.39 602.92 765.78 603.01 767.26 603.2 C 768.74 603.4 770.29 603.71 771.92 604.08 C 778.53 605.57 786.15 608.39 793.38 611.7 C 789.03 613.73 785.16 615.63 779.63 617.89 C 777.68 618.69 775.96 619.23 774.07 619.95 C 771.99 619.12 769.9 618.28 767.85 617.55 C 762.08 615.48 756.49 613.88 751.29 613.08 C 748.92 612.71 746.66 612.57 744.48 612.58 C 744.81 610.94 745.75 609.34 747.38 607.92 C 748.05 607.34 748.84 606.81 749.7 606.3 C 751.41 605.28 753.45 604.41 755.73 603.83 C 758 603.24 760.5 602.92 763.1 602.92 L 763.1 602.92 Z M 849.2 609.83 C 849.49 609.81 849.78 609.82 850.04 609.83 C 851.55 609.86 852.99 609.94 854.45 610.01 C 854.42 610.39 854.45 610.77 854.38 611.14 C 854.08 612.86 853.38 614.55 852.38 616.08 C 851.89 616.84 851.29 617.56 850.67 618.23 C 849.41 619.58 847.94 620.72 846.35 621.51 C 845.56 621.91 844.74 622.23 843.92 622.45 C 843.09 622.67 842.27 622.8 841.45 622.83 C 839.74 622.87 838.27 622.67 837.04 622.33 C 835.86 622 834.89 621.54 834.13 621.01 C 835.58 620.75 836.7 619.5 836.7 617.98 C 836.7 616.27 835.28 614.89 833.57 614.89 C 833.41 614.89 833.28 614.9 833.13 614.92 C 832.85 614.9 832.54 614.91 832.23 614.95 C 831.34 615.22 830.49 616.13 830.38 617.58 C 830.32 618.38 830.54 619.21 831.01 620.01 C 831.48 620.82 832.2 621.6 833.13 622.26 C 834.07 622.93 835.24 623.5 836.63 623.89 C 838.03 624.27 839.63 624.47 841.48 624.42 C 842.43 624.4 843.39 624.26 844.32 624.01 C 845.26 623.76 846.19 623.4 847.07 622.95 C 847.95 622.51 848.8 621.97 849.6 621.36 C 850.4 620.75 851.16 620.07 851.85 619.33 C 852.54 618.59 853.18 617.8 853.73 616.95 C 854.28 616.1 854.76 615.19 855.13 614.26 C 855.51 613.34 855.78 612.37 855.95 611.39 C 856.02 610.96 855.98 610.52 856.01 610.08 C 858.3 610.24 860.48 610.51 862.26 611.08 C 863.89 611.6 865.2 612.35 866.13 613.39 C 867.07 614.43 867.66 615.79 867.79 617.7 C 867.85 618.62 867.71 619.48 867.42 620.33 C 867.12 621.17 866.65 621.98 866.04 622.76 C 865.43 623.54 864.66 624.29 863.79 624.98 C 862.92 625.67 861.94 626.31 860.88 626.89 C 858.77 628.04 856.35 628.96 853.95 629.55 C 851.55 630.13 849.16 630.38 847.1 630.3 C 845.06 630.21 842.13 629.67 838.7 628.8 C 835.26 627.92 831.32 626.72 827.26 625.3 C 822.86 623.76 818.37 621.98 814.1 620.11 C 817.82 618.74 822.66 616.91 829.2 614.76 C 836.78 612.27 844.78 610.02 849.2 609.83 L 849.2 609.83 Z M 744.35 614.17 C 751.03 614.13 758.91 616.1 767.29 619.08 C 768.78 619.61 770.31 620.24 771.82 620.83 C 770.41 621.34 768.8 622 767.51 622.42 C 766.03 622.9 764.74 623.27 763.51 623.58 C 762.02 623.84 760.03 624.33 759.17 624.33 C 755.61 624.33 751.8 623.06 748.95 621.08 C 746.26 619.21 744.55 616.73 744.35 614.17 Z M 742.73 614.2 C 742.83 615.73 743.3 617.19 744.17 618.51 C 745.12 619.98 746.47 621.3 748.04 622.39 C 749.61 623.48 751.42 624.37 753.32 624.98 C 755.22 625.59 757.2 625.92 759.17 625.92 C 761.2 625.92 764.35 625.32 768.13 624.39 C 770.39 623.83 773.05 623.01 775.6 622.26 C 775.74 622.32 775.87 622.36 776.01 622.42 C 778.97 623.64 781.91 625.04 784.88 626.36 C 782.84 627.26 782.06 627.66 779.79 628.58 C 770.92 632.14 760.67 635.36 751.7 635.36 C 749.44 635.36 747.34 635.2 745.42 634.95 C 743.49 634.7 741.71 634.34 740.1 633.89 C 736.88 632.99 734.29 631.77 732.26 630.45 C 731.24 629.79 730.37 629.13 729.63 628.45 C 728.9 627.77 728.29 627.09 727.82 626.45 C 726.88 625.18 726.48 624.05 726.48 623.45 C 726.48 622.55 726.45 621.57 726.67 620.61 C 726.88 619.65 727.36 618.7 728.35 617.8 C 728.85 617.34 729.49 616.9 730.32 616.48 C 731.98 615.66 734.37 614.96 737.82 614.55 C 739.23 614.38 740.95 614.27 742.73 614.2 L 742.73 614.2 Z M 798.92 614.48 C 800.37 615.22 801.92 615.92 803.29 616.67 C 804.05 617.09 805.07 617.5 805.88 617.92 C 799.53 620.5 793.64 622.93 786.88 625.48 C 783.93 624.16 781 622.81 778.04 621.58 C 778.96 621.3 779.77 621.12 780.7 620.83 C 787.96 618.56 794.52 616.21 798.92 614.48 Z" style="fill: rgb(127, 183, 186);"/>
    </g>
  </g>
  <g transform="matrix(0.25803, 0, 0, 0.263672, 226.278915, 727.877136)">
    <g id="g-1" transform="matrix(1, 0, 0, 0.54454, -725.934875, -309.436615)">
      <path id="path-2" d="M 841.26 598.51 C 841.2 598.51 841.07 598.55 841.01 598.55 C 836.6 598.42 828.59 599.74 820.67 601.92 C 812.33 604.21 804.31 607.97 795.26 610.86 C 791.17 608.93 787.01 607.1 782.85 605.61 C 775.61 603.02 768.6 601.33 763.1 601.33 C 761.74 601.33 760.4 601.41 759.1 601.58 C 757.8 601.74 756.53 601.98 755.32 602.3 C 752.91 602.92 750.72 603.81 748.85 604.92 C 745.53 606.9 743.32 609.58 742.85 612.61 C 740.96 612.67 739.15 612.77 737.63 612.95 C 734.04 613.38 731.44 614.1 729.57 615.05 C 728.64 615.52 727.87 616.04 727.26 616.61 C 724.8 618.86 724.88 621.7 724.88 623.45 C 724.88 624.63 725.47 625.94 726.54 627.39 C 727.61 628.84 729.21 630.38 731.38 631.8 C 732.47 632.5 733.69 633.18 735.07 633.8 C 737.83 635.03 741.2 636.02 745.2 636.55 C 747.2 636.81 749.37 636.95 751.7 636.95 C 753.88 636.95 756.31 636.72 758.85 636.39 C 767.18 635.31 776.96 632.7 785.88 629.92 C 787.39 629.45 788.48 629.05 789.92 628.58 C 791.14 629.13 792.39 629.65 793.6 630.2 C 799.4 632.85 756.513 613.752 761.773 615.962 L 761.37 619.653 C 756.15 617.463 800.06 631.38 794.26 628.73 C 793.57 628.42 792.86 628.11 792.17 627.8 C 800.79 624.91 808.23 622.2 810.51 621.39 C 810.74 621.31 811.71 620.96 812.01 620.86 C 816.76 623 821.75 625.09 826.73 626.83 C 830.83 628.26 834.77 629.47 838.26 630.36 C 841.75 631.25 844.79 631.82 847.04 631.92 C 851.53 632.12 857.15 630.76 861.67 628.3 C 862.79 627.68 863.84 626.99 864.79 626.23 C 865.74 625.48 866.59 624.66 867.29 623.76 C 868.7 621.97 869.54 619.86 869.38 617.58 C 869.09 613.21 866.75 610.24 863.42 608.48 C 861.24 607.34 858.56 606.78 855.76 606.42 C 855.12 603.64 853.67 601.68 851.54 600.51 C 850.04 599.69 848.2 599.25 846.17 598.95 C 844.57 598.64 843 598.53 841.57 598.55 C 841.47 598.55 841.36 598.51 841.26 598.51 L 841.26 598.51 Z M 841.26 600.11 L 841.29 600.11 C 843.05 600.18 844.57 600.36 846.01 600.58 C 847.31 600.84 848.61 601.19 849.76 601.76 C 851.71 602.74 853.25 604.14 854.01 606.26 C 853.06 606.19 852.17 606 851.2 605.98 C 836.44 607.49 822.42 612.08 808.1 617.2 C 806.79 616.55 805.25 615.91 804.07 615.26 C 803.09 614.72 801.97 614.23 800.95 613.7 C 801.19 613.6 801.73 613.42 801.95 613.33 C 805.58 611.74 813.29 608.47 821.17 605.58 C 829.03 602.69 837.14 600.2 841.26 600.11 L 841.26 600.11 Z M 763.1 602.92 C 764.39 602.92 765.78 603.01 767.26 603.2 C 768.74 603.4 770.29 603.71 771.92 604.08 C 778.53 605.57 786.15 608.39 793.38 611.7 C 789.03 613.73 785.16 615.63 779.63 617.89 C 777.68 618.69 775.96 619.23 774.07 619.95 C 771.99 619.12 769.9 618.28 767.85 617.55 C 762.08 615.48 756.49 613.88 751.29 613.08 C 748.92 612.71 746.66 612.57 744.48 612.58 C 744.81 610.94 745.75 609.34 747.38 607.92 C 748.05 607.34 748.84 606.81 749.7 606.3 C 751.41 605.28 753.45 604.41 755.73 603.83 C 758 603.24 760.5 602.92 763.1 602.92 L 763.1 602.92 Z M 849.2 609.83 C 849.49 609.81 849.78 609.82 850.04 609.83 C 851.55 609.86 852.99 609.94 854.45 610.01 C 854.42 610.39 854.45 610.77 854.38 611.14 C 854.08 612.86 853.38 614.55 852.38 616.08 C 851.89 616.84 851.29 617.56 850.67 618.23 C 849.41 619.58 847.94 620.72 846.35 621.51 C 845.56 621.91 844.74 622.23 843.92 622.45 C 843.09 622.67 842.27 622.8 841.45 622.83 C 839.74 622.87 838.27 622.67 837.04 622.33 C 835.86 622 834.89 621.54 834.13 621.01 C 835.58 620.75 836.7 619.5 836.7 617.98 C 836.7 616.27 835.28 614.89 833.57 614.89 C 833.41 614.89 833.28 614.9 833.13 614.92 C 832.85 614.9 832.54 614.91 832.23 614.95 C 831.34 615.22 830.49 616.13 830.38 617.58 C 830.32 618.38 830.54 619.21 831.01 620.01 C 831.48 620.82 832.2 621.6 833.13 622.26 C 834.07 622.93 835.24 623.5 836.63 623.89 C 838.03 624.27 839.63 624.47 841.48 624.42 C 842.43 624.4 843.39 624.26 844.32 624.01 C 845.26 623.76 846.19 623.4 847.07 622.95 C 847.95 622.51 848.8 621.97 849.6 621.36 C 850.4 620.75 851.16 620.07 851.85 619.33 C 852.54 618.59 853.18 617.8 853.73 616.95 C 854.28 616.1 854.76 615.19 855.13 614.26 C 855.51 613.34 855.78 612.37 855.95 611.39 C 856.02 610.96 855.98 610.52 856.01 610.08 C 858.3 610.24 860.48 610.51 862.26 611.08 C 863.89 611.6 865.2 612.35 866.13 613.39 C 867.07 614.43 867.66 615.79 867.79 617.7 C 867.85 618.62 867.71 619.48 867.42 620.33 C 867.12 621.17 866.65 621.98 866.04 622.76 C 865.43 623.54 864.66 624.29 863.79 624.98 C 862.92 625.67 861.94 626.31 860.88 626.89 C 858.77 628.04 856.35 628.96 853.95 629.55 C 851.55 630.13 849.16 630.38 847.1 630.3 C 845.06 630.21 842.13 629.67 838.7 628.8 C 835.26 627.92 831.32 626.72 827.26 625.3 C 822.86 623.76 818.37 621.98 814.1 620.11 C 817.82 618.74 822.66 616.91 829.2 614.76 C 836.78 612.27 844.78 610.02 849.2 609.83 L 849.2 609.83 Z M 744.35 614.17 C 751.03 614.13 758.91 616.1 767.29 619.08 C 768.78 619.61 770.31 620.24 771.82 620.83 C 770.41 621.34 768.8 622 767.51 622.42 C 766.03 622.9 764.74 623.27 763.51 623.58 C 762.02 623.84 760.03 624.33 759.17 624.33 C 755.61 624.33 751.8 623.06 748.95 621.08 C 746.26 619.21 744.55 616.73 744.35 614.17 Z M 742.73 614.2 C 742.83 615.73 743.3 617.19 744.17 618.51 C 745.12 619.98 746.47 621.3 748.04 622.39 C 749.61 623.48 751.42 624.37 753.32 624.98 C 755.22 625.59 757.2 625.92 759.17 625.92 C 761.2 625.92 764.35 625.32 768.13 624.39 C 770.39 623.83 773.05 623.01 775.6 622.26 C 775.74 622.32 775.87 622.36 776.01 622.42 C 778.97 623.64 781.91 625.04 784.88 626.36 C 782.84 627.26 782.06 627.66 779.79 628.58 C 770.92 632.14 760.67 635.36 751.7 635.36 C 749.44 635.36 747.34 635.2 745.42 634.95 C 743.49 634.7 741.71 634.34 740.1 633.89 C 736.88 632.99 734.29 631.77 732.26 630.45 C 731.24 629.79 730.37 629.13 729.63 628.45 C 728.9 627.77 728.29 627.09 727.82 626.45 C 726.88 625.18 726.48 624.05 726.48 623.45 C 726.48 622.55 726.45 621.57 726.67 620.61 C 726.88 619.65 727.36 618.7 728.35 617.8 C 728.85 617.34 729.49 616.9 730.32 616.48 C 731.98 615.66 734.37 614.96 737.82 614.55 C 739.23 614.38 740.95 614.27 742.73 614.2 L 742.73 614.2 Z M 798.92 614.48 C 800.37 615.22 801.92 615.92 803.29 616.67 C 804.05 617.09 805.07 617.5 805.88 617.92 C 799.53 620.5 793.64 622.93 786.88 625.48 C 783.93 624.16 781 622.81 778.04 621.58 C 778.96 621.3 779.77 621.12 780.7 620.83 C 787.96 618.56 794.52 616.21 798.92 614.48 Z" style="fill: rgb(127, 183, 186);"/>
    </g>
  </g>
  <g transform="matrix(-0.116943, -0.048334, -0.100261, 0.163341, 277.88327, 686.317993)">
    <g clip-rule="evenodd" fill-rule="evenodd">
      <path d="m96.576 7.782c-1.278-1.075 0.679-2.405-0.479-3.36-3.558 0.283-5.447 2.232-6.72 4.8-1.754-5.291 12.458-10.97 12.96-4.8 0.2 2.445-2.12 3.722-5.764 3.36z" style="fill: rgb(127, 183, 186);"/>
      <path d="m114.34 7.302c0.077-0.661 7.235 0.16 4.8 0.48-1.63-0.131-3.9 0.371-4.8-0.48z" style="fill: rgb(127, 183, 186);"/>
      <path d="m109.06 7.302c-3.44 1.434-5.51-0.536 0 0z" style="fill: rgb(127, 183, 186);"/>
      <path d="m101.38 8.262c0.06-1.06 2.036-0.204 2.88-0.48-0.06 1.06-2.04 0.204-2.88 0.48z" style="fill: rgb(127, 183, 186);"/>
      <path d="m123.46 7.782c-1.06 1.466-3.08-0.554 0 0z" style="fill: rgb(127, 183, 186);"/>
      <path d="m111.94 14.022c36.786-1.003 66.596 35.495 54.24 73.92-6 18.66-25.315 36.538-48 38.88-21.387 2.208-39.787-7.396-49.44-19.2-7.973-9.75-14.275-23.69-12.96-41.76 1.073-14.739 8.456-27.979 17.28-36.48 9.116-8.782 22.872-14.922 38.88-15.358zm-39.843 18.24c-8.774 9.636-18.688 26.663-14.88 47.52 1.895 10.377 5.866 17.229 11.04 24 9.104 11.915 24.304 21.69 42.24 22.08 9.114 0.197 22.229-2.88 31.199-8.641 20.24-12.997 34.544-43.48 20.16-72.48-1.259-2.537-3.523-4.923-5.28-7.2-1.733-2.248-3.27-5.182-5.279-7.2-8.96-8.996-26.862-17.179-45.601-14.88-14.471 1.777-26.107 8.57-33.603 16.802z" style="fill: rgb(127, 183, 186);"/>
      <path d="m52.896 21.222c2.301 0.169-1.025 1.438-0.96 2.4 0.82 5.955 4.432 15.068-2.88 15.84-3.218 0.34-7.779-3.542-3.84-7.68 2.348-0.034-1.307 1.412 0.48 2.4 7.402 0.681 2.844-10.597 7.2-12.96z" style="fill: rgb(127, 183, 186);"/>
      <path d="m36.577 37.542c-0.776 0.889-3.788-2.696-4.32 0.48-2.448 0.295-3.475-1.779-3.36-2.88 0.437-4.196 6.902-0.753 7.68 2.4z" style="fill: rgb(127, 183, 186);"/>
      <path d="m169.06 39.462c1.083-0.738 3.548 1.234 3.36 3.36-0.731 1.53-3.292-1.011-2.881 0.96-2.51-1.004 2.48-3.044-0.48-4.32z" style="fill: rgb(127, 183, 186);"/>
      <path d="m17.376 70.182c-1.073 0.207-0.194 2.366-0.48 3.36-0.977 0.874-3.186 2.223-4.8 0.96 1.217-0.766 2.931-2.84 1.44-4.8-0.218 2.182-1.681 5.137-4.32 3.36 1.139-1.567 2.644-2.579 1.44-5.28 1.866-0.947 3.917 0.488 5.76 1.92-1.013-2.021-1.672-9.64 0.96-12-2.455 1.064-4.183 2.857-3.84 6.72-2.031 0.48-1.617 0.067-1.92 1.92-1.463 0.023-2.444-0.436-2.88-1.44-0.145-1.961 0.665 0.081 1.92-0.48 0.513-1.793-1.192-1.368-0.96-2.88 2.118-0.122 2.529-1.951 4.32-2.4-3.85 0.26-11.049 1.243-10.08-5.76 1.073-1.949 5.745-2.048 6.24 0.48 0.135 1.255-0.175 2.065-1.44 1.92 0.98 3.056 3.573 1.457 5.76 0.96 0.832-0.188 1.036 0.691 1.92 0.48 2.169-0.517 4.653-2.087 6.24-2.88-0.911-0.849-3.074-0.446-3.84-1.44-1.667 0.092-1.822 1.698-3.36 1.92-1.461 0.021-1.867-1.013-2.88-1.44 1.928-1.466-0.723-2.365 0.48-3.84-4.676-1.551-4.736-11.357 3.36-9.12 0.494 1.106 1.652 1.548 1.44 3.36-0.847 1.553-4.55 0.25-4.8 2.4-0.521 2.601 2.083 2.078 1.92 4.32 1.932-0.469 1.684-3.116 1.92-5.28 1.45 1.11 1.284 3.837 1.92 5.76 2.693 2.587 7.218 3.342 12 3.84-0.979 1.102-3.986 0.174-5.76 0.48-0.44 2.04 1.15 2.05 2.88 1.92-0.298 2.571-3.849 3.701-5.76 1.92-0.405-2.005 0.933-2.267 0.96-3.84-6.511 0.565-9.98 14.005-0.96 14.4 1.407-0.033 1.783-1.098 2.4-1.92 5.199 4.086-6.145 8.072-7.2 2.4z" style="fill: rgb(127, 183, 186);"/>
      <path d="m172.42 45.222c0.774-0.135 0.826 0.454 1.439 0.48 0.145 1.265-0.664 1.575-1.92 1.439-0.21-1.002 0.33-1.27 0.48-1.919z" style="fill: rgb(127, 183, 186);"/>
      <path d="m173.38 50.022c1.255-0.135 2.064 0.175 1.92 1.44-0.9 0.943-2.32 0.278-1.92-1.44z" style="fill: rgb(127, 183, 186);"/>
      <path d="m49.537 62.982c1.124 0.123 0.276 2.109 0 2.4-1.124-0.123-0.277-2.109 0-2.4z" style="fill: rgb(127, 183, 186);"/>
      <path d="m2.017 67.782c-0.071 1.191-0.089 2.33 0.96 2.4-5.388 0.521-2.979-7.589 3.36-5.76-0.609 1.951-3.85 1.271-4.32 3.36z" style="fill: rgb(127, 183, 186);"/>
      <path d="m174.34 64.902c1.055 0.556 0.207 7.145 0.479 10.08-1.06-0.556-0.21-7.145-0.48-10.08z" style="fill: rgb(127, 183, 186);"/>
      <path d="m177.22 65.382c0.932-0.19 0.701 2.187-0.48 1.44v-0.96c0.4 0.088 0.45-0.187 0.48-0.48z" style="fill: rgb(127, 183, 186);"/>
      <path d="m8.257 65.862c-0.531 1.566-4.199 2.5-2.4 4.8-3.672 1.301-2.937-6.947 2.4-4.8z" style="fill: rgb(127, 183, 186);"/>
      <path d="m51.457 87.462c-0.824-1.576-1.271-3.53-1.44-5.76-1.729 0.168-2.313 0.734-3.84 0-0.553-0.567-0.543-1.697-0.48-2.88-2.385 3.94-10.208 3.655-9.6-2.88 1.56-3.081 6.847-2.433 9.6-4.32 0.958-1.762 0.948-4.492 2.88-5.28-0.403 4.237-0.645 8.635-2.4 11.52 0.054 0.92 1.607-0.564 2.88 0v-5.28c0.526 3.012 1.768 10.163 2.4 14.88z" style="fill: rgb(127, 183, 186);"/>
      <path d="m49.057 66.822c0.183-0.914 0.611 0.307 0.48 0.96-0.183 0.914-0.611-0.306-0.48-0.96z" style="fill: rgb(127, 183, 186);"/>
      <path d="m9.697 66.822c-0.065 2.335 0.591 5.392-1.92 5.28-1.284-1.791-1.516-5.711 1.92-5.28z" style="fill: rgb(127, 183, 186);"/>
      <path d="m48.577 69.222c0.553-1.553 0.543 1.289 0.48 1.92-0.553 1.553-0.544-1.289-0.48-1.92z" style="fill: rgb(127, 183, 186);"/>
      <path d="m178.18 69.222c0.203 1.003-0.329 1.271-0.48 1.92-0.447-0.512-1.771-0.149-1.439-1.439 0.42-0.374 1.08-0.517 1.92-0.481z" style="fill: rgb(127, 183, 186);"/>
      <path d="m176.26 72.582c1.374-0.095 2.619-0.06 2.399 1.44-0.93 0.934-2.94 0.502-2.4-1.44z" style="fill: rgb(127, 183, 186);"/>
      <path d="m30.816 87.942c-4.675 0.191-7.729-5.388-12-7.2-2.046 0.05-1.683 2.794-1.92 3.36-4.562 0.328-5.668-4.31-3.84-7.68 9.585-3.379 10.302 9.651 17.76 11.52z" style="fill: rgb(127, 183, 186);"/>
      <path d="m5.856 79.302c-0.212-0.698-0.421 0.049-0.96 0 0.068 1.852 1.622 2.218 1.44 4.32h-2.4c-0.413-0.387-0.285-1.315-0.96-1.44 0.125-1.475 1.042-2.158 1.44-3.36-0.209-0.712-0.614 0.189-1.44 0-0.357-1.478 1.317-0.922 0.96-2.4 2.079-0.062 1.182 2.847 3.36 1.44-0.385 1.665 0.715 1.845 0.479 3.36-0.427-0.373-1.083-0.516-1.92-0.48 0.103-0.821-0.817-1.243 0.001-1.44z" style="fill: rgb(127, 183, 186);"/>
      <path d="m176.26 76.902c1.003-0.203 1.271 0.329 1.92 0.48 0.577 2.337-2.22 1.301-1.44 3.84-1.18-0.429-1.3-3.358-0.48-4.32z" style="fill: rgb(127, 183, 186);"/>
      <path d="m9.697 78.342c1.613-0.493 0.747 1.493 0.96 2.4-1.662 0.336-1.722-1.683-0.96-2.4z" style="fill: rgb(127, 183, 186);"/>
      <path d="m46.657 93.222c1.785-0.185 0.888 2.312 2.4 2.4 4.782-2.838 0.042-10.26-2.88-11.52-1.392 6.061-1.828 14.954-7.68 15.36-5.458 0.379-7.245-8.452-0.48-9.6 1.916-0.027-1.479 3.392 0.96 4.32 4.275-1.484 5.835-5.685 6.24-11.04 3.24 0.547 4.424 3.025 5.76 4.8 0.106 0.141 0.739-0.701 0.96-0.48 1.244 1.244 0.458 5.587 2.4 7.2-1.562 2.935-1.6 6.269-4.8 6.72-4.642 0.66-7.766-5.557-2.88-8.158z" style="fill: rgb(127, 183, 186);"/>
      <path d="m176.74 83.142c1.36 2.361-0.312 5.301-1.92 6.24-1.573-0.613 3.426-3.773-0.479-3.84-0.11-1.71 0.69-2.51 2.4-2.4z" style="fill: rgb(127, 183, 186);"/>
      <path d="m47.137 86.502c2.38 0.76 0.097 4.36 0 5.76-1.385-1.416 0.674-3.462 0-5.76z" style="fill: rgb(127, 183, 186);"/>
      <path d="m175.78 91.782c0.396 1.357-0.676 1.244-0.479 2.4-0.861 0.061-1.013-0.587-1.92-0.479-2.585 0.88 1.338 5.419-1.44 6.239 0-3.091-1.43-12.819 3.84-8.16z" style="fill: rgb(127, 183, 186);"/>
      <path d="m23.137 94.182c-1.335 1.917-2.965 1.295-3.36 3.36-0.617 3.226 3.224 5.673 6.72 5.76-5.917 1.063-12.133-3.572-11.04-9.6 2.179-2.062 5.922-1.52 7.68 0.482z" style="fill: rgb(127, 183, 186);"/>
      <path d="m39.457 99.941c-2.299 2.276-5.145 4.586-8.64 4.32-6.771-0.514-7.222-10.458 0.48-9.12-3.039 5.54 4.598 7.2 8.16 4.801z" style="fill: rgb(127, 183, 186);"/>
      <path d="m42.336 98.502c-0.16 3.342-8.195 8.527-3.84 13.439 1.968-0.385-0.25-1.976 0.96-2.88 7.077 0.841 3.849 9.396 0 9.601-6.257 0.331-6.019-10.506-2.88-14.4-3.644 1.381-6.875 6.762-3.84 10.561-3.566 3.023-6.664-0.135-6.72-2.881-0.096-4.695 7.053-7.539 11.04-8.159 1.435-2.08 3.862-3.18 5.28-5.278z" style="fill: rgb(127, 183, 186);"/>
      <path d="m166.18 107.14c0.853-1.387 2.905-1.574 2.88-3.84-0.148-0.651-1.202-0.398-1.92-0.479-0.337-2.765 3.456-3.662 4.8-1.92 0.33 4.34-2.07 5.93-5.76 6.24z" style="fill: rgb(127, 183, 186);"/>
      <path d="m45.697 101.38c-0.024 1.896-0.984 2.856-2.88 2.88-1.855-2.01 0.871-4.733 2.88-2.88z" style="fill: rgb(127, 183, 186);"/>
      <path d="m17.376 103.3c0.55 1.51-0.753 1.167-0.96 1.92 0.109 3.163 4.481 1.555 6.72 1.44-2.639 2.467-9.928 3.701-11.52-0.48 0.034-2.66 3.142-4.36 5.76-2.88z" style="fill: rgb(127, 183, 186);"/>
      <path d="m30.816 104.74c-4.656 1.809-11.958 8.88-5.28 13.439 1.558 0.278 2.233-0.326 3.36-0.479 1.121 7.21-9.163 6.815-10.56 1.92-1.109-3.887 2.214-7.88 4.32-10.08 2.035-2.12 4.208-4.02 8.16-4.8z" style="fill: rgb(127, 183, 186);"/>
      <path d="m167.14 109.54c0.011 2.25 0.253 4.732-1.92 4.8-1.742 0.462-0.403-2.156-1.92-1.92-3.021 0.499-2.274 4.766-3.36 7.2-0.84-4.34 1.5-15.21 7.2-10.08z" style="fill: rgb(127, 183, 186);"/>
      <path d="m80.257 128.26c-1.383-0.057-3.143 0.263-3.84-0.479-0.083-2.036-1.987-4.138-1.44-5.28 2.419 1.26 4.393 2.97 5.28 5.76z" style="fill: rgb(127, 183, 186);"/>
      <path d="m146.02 126.34c2.832 2.388 0.805 8.195-3.36 6.24v-2.4c-4.709-0.709-4.364 3.636-7.199 4.8 2.33-4.06 3.44-9.36 10.56-8.64z" style="fill: rgb(127, 183, 186);"/>
      <path d="m127.3 131.14c-1.06 1.47-3.08-0.55 0 0z" style="fill: rgb(127, 183, 186);"/>
      <path d="m120.1 134.02c2.386 1.084 5.247 5.35 8.64 2.4 0.184-1.783-1.944-1.255-1.439-3.36 3.383-2.896 6.999-0.341 6.72 2.88-0.53 6.12-13.5 4.3-13.92-1.92z" style="fill: rgb(127, 183, 186);"/>
      <path d="m101.38 132.58c2.34-1.27 3.62 1.59 0 0z" style="fill: rgb(127, 183, 186);"/>
      <path d="m19.297 132.58c1.805 0.496-1.065 3.263-0.96 5.28 0.079 1.509 1.012 2.086 1.44 3.359 1.698 0.843 2.473-1.612 2.88-0.479 0.721 0.777 0.721 3.542 0 4.319-0.909 0.852-3.17 0.351-4.8 0.48-3.999-3.48-0.31-9.6 1.44-12.96z" style="fill: rgb(127, 183, 186);"/>
      <path d="m106.18 133.54c1.61-1.109 5.271-0.168 7.68-0.48-1.61 1.11-5.28 0.17-7.68 0.48z" style="fill: rgb(127, 183, 186);"/>
      <path d="m117.22 133.54c0.013-0.467 0.587-0.373 0.96-0.48 4.653 3.539 1.396 12.917-3.84 12.96-4.016 0.034-7.412-6.626-1.92-9.119 1.672-0.232 0.537 2.342 1.92 2.399 2.43-0.14 3.45-4.21 2.88-5.76z" style="fill: rgb(127, 183, 186);"/>
      <path d="m115.3 137.38c-1.332-0.108-1.358-1.522-2.4-1.92-3.282 1.558-5.906 3.604-4.32 8.16 1.251 3.594 3.864 6.747 2.881 10.08-1.704 5.769-11.413 2.601-7.681-4.32 1.531-0.411 1.484 0.756 2.4 0.96 2.35-1.777 0.03-3.319 0-5.76-0.062-5.062 2.354-10.079 5.76-10.08 0.87 0 3.41 0.17 3.36 2.88z" style="fill: rgb(127, 183, 186);"/>
      <path d="m40.417 139.3c-0.903 2.297-2.763 3.637-5.76 3.84 1.192-2.01 3.896-2.5 5.76-3.84z" style="fill: rgb(127, 183, 186);"/>
      <path d="m125.86 146.98c-0.308 2.479-2.743 6.374-6.72 6.721 1.428-2.252 4.054-3.307 4.8-6.24-0.021-1.228 0.357-0.585 0.96-0.48-0.396-2.803-3.186-3.214-2.88-6.72 2.487 3.969 2.038 1.749 6.72 0.96 0.213 0.428 0.422 0.858 0.96 0.96 0.312 1.752-0.323 2.557-0.96 3.36 0.301 1.025 2.955 0.45 3.36 0 0.369-1.81-0.586-2.295-0.48-3.84 4.532-1.799 7.276 2.554 5.28 6.239-3.67 2.04-8.16 1.27-11.04-0.96z" style="fill: rgb(127, 183, 186);"/>
      <path d="m103.78 142.66c1.029 1.37 2.381 2.419 1.92 5.279-0.678 0.882-2.331-0.752-3.359 0.48-2.604 1.945-1.1 6.359 0.479 8.16-4.688-1.53-8.076-14.61 0.96-13.92z" style="fill: rgb(127, 183, 186);"/>
      <path d="m32.257 144.1c-5.566 2.32-11.819 12.151-4.8 17.28 2.005 0.405 2.267-0.933 3.84-0.96 2.593 11.75-16.178 9.638-11.521-3.84 1.855-5.36 6.253-10.11 12.481-12.48z" style="fill: rgb(127, 183, 186);"/>
      <path d="m120.58 144.1c5.852 5.83-7.315 12.911-8.159 6.24-0.269-2.115 0.982-2.092 1.92-3.84 1.801-0.361 1.046 1.834 2.399 1.92 2.32-0.4 3.74-1.69 3.84-4.32z" style="fill: rgb(127, 183, 186);"/>
      <path d="m56.257 146.5c0.109 1.71-0.69 2.51-2.4 2.4-1.691-1.65 0.747-4.09 2.4-2.4z" style="fill: rgb(127, 183, 186);"/>
      <path d="m83.617 150.34c2.15-0.036-0.292 1.778 0.48 3.36 2.789 5.408 12.153 2.093 12.96-2.88 1.023 2.952-2.672 5.321-4.8 6.72-1.81 4.431-5.374 7.105-4.32 14.399 0.533 2.348 3.431 2.33 3.36 5.28-3.772 5.043-8.714-0.756-8.16-7.2 0.471-5.479 5.526-8.755 7.2-10.56-6.282 3.36-17.183-6.62-6.72-9.12z" style="fill: rgb(127, 183, 186);"/>
      <path d="m76.417 156.58c-1.611 0.438-0.238 0.893-0.48 2.399-3.754 0.453-5.227-3.047-3.84-6.239 0.558 0.078 0.854-0.106 0.96-0.48 6.41-0.649 4.54 6.98 9.6 7.68-2.613 1.32-4.442-2.27-6.24-3.36z" style="fill: rgb(127, 183, 186);"/>
      <path d="m112.9 153.7c2.875 0.133 4.213 1.841 4.32 3.84 0.317 5.923-10.495 6.726-13.44 1.439 0.276 9.27-3.104 19.349-12.96 15.36-1.429-2.128-1.727-5.223-0.48-7.68 5.411 5.783 14.602 0.016 12.48-9.12 3.59 4.17 11.45 2.09 10.08-3.84z" style="fill: rgb(127, 183, 186);"/>
      <path d="m95.137 158.98c-0.304 1.795-0.756 2.749 0.96 3.36 2.994-0.307 5.051-3.224 3.84-6.24-0.649 0.951-1.333 1.867-3.36 1.44-1.036-1.028-0.245-2.682 0.48-3.36 1.814 0.105 2.331 1.509 3.84 1.92 4.949 9.251-10.68 15.454-10.08 6.721 0.146-2.17 1.483-3.42 4.317-3.84z" style="fill: rgb(127, 183, 186);"/>
      <path d="m18.336 170.98c-2.125 0.046-3.297-0.862-2.88-3.359 1.067-1.111 1.872 0.163 3.36 0 1.352-0.485-0.132-2.039 0-2.88 2.416 0.73 1.601 5.86-0.48 6.24z" style="fill: rgb(127, 183, 186);"/>
      <path d="m49.057 166.18c1.999 0.768-0.983 2.412-1.92 3.36-1.307 1.323-2.885 2.148-3.36 3.36 1.277 0.035 1.426 3.65 2.88 1.92 1.396 0.417 0.54 0.718 0.48 1.92h2.88c-0.212 1.388-1.012 2.188-2.4 2.399-1.65-0.109-2.092-1.428-2.4-2.88-1.36 1.846-4.601 2.613-6.24 0.48-2.101 0.861 4.38 11.805-1.92 12.479-1.125 0.121-1.399-0.592-2.88-0.96-0.148-1.748 0.076-3.123 0.48-4.32 1.172-1.217 1.022 1.013 2.88 0.48 2.229-1.707-0.2-4.611 0-7.2 1.436-1.515 0.86-3.341 1.92-4.8 2.326-3.2 7.296-3 9.6-6.24z" style="fill: rgb(127, 183, 186);"/>
      <path d="m61.537 170.5c-2.784-3.744-9.136-1.261-9.12 3.36-6.978-6.94 7.826-11.03 9.12-3.36z" style="fill: rgb(127, 183, 186);"/>
      <path d="m30.336 168.58c2.512 0.123 3.554 2.925 2.88 4.8-4.493 2.329-6.487-3.245-9.12-2.88 1.994-1.807 3.069 1.39 5.28 0.96 1.227-0.05 0.953-1.61 0.96-2.88z" style="fill: rgb(127, 183, 186);"/>
      <path d="m21.697 169.54c3.832 3.876 5.339 16.1-1.92 16.32-4.167 0.126-7.551-6.798-0.96-8.641-0.373 1.653 0.268 2.293 1.92 1.92 3.397-1.27 1.369-6.66 0.96-9.6z" style="fill: rgb(127, 183, 186);"/>
      <path d="m50.497 176.26c0.927-1.4 2.433-0.396 3.36-0.96-0.21-1.65 0.19-2.69 0.48-3.84 2.15-1.895 6.328-0.755 7.68 0.96-4.893-0.413-4.732 4.228-8.16 5.28 0.45 3.87 3.999 4.641 6.24 6.72 0.145 1.265-0.665 1.575-1.92 1.44-4.389-1.37-6.691-4.83-7.68-9.6z" style="fill: rgb(127, 183, 186);"/>
      <path d="m25.057 171.46c6.285 6.18 4.411 29.553-7.2 20.64v-5.279c1.817-1.467 1.989 1.919 4.8 0.96 6.393-2.01 4.753-11 2.4-16.32z" style="fill: rgb(127, 183, 186);"/>
      <path d="m63.457 174.34c0.826 4.704-5.413 6.247-7.68 4.8 0.884-3.27 3.552-4.77 7.68-4.8z" style="fill: rgb(127, 183, 186);"/>
      <path d="m82.177 174.34c1.694 2.466 1.18 7.14 4.8 7.68 2.067 0.628 1.518-1.361 2.4-1.92 5.93 4.726-6.066 9.482-6.72 2.88-0.239 6.03 0.12 15.685-6.24 15.841-4.096 0.101-7.726-6.75-2.4-9.601 0.266 0.854 0.247 1.993 0.96 2.4 7.555-0.97 6.5-10.73 7.2-17.28z" style="fill: rgb(127, 183, 186);"/>
      <path d="m64.417 174.82c6.545 3.765-3.229 12.609-6.72 6.239 3.593-0.72 6.66-1.98 6.72-6.24z" style="fill: rgb(127, 183, 186);"/>
      <path d="m67.297 176.26c2.482 1.104 3.609 5.355 2.4 8.641-1.421 1.897-8.232 3.484-8.64-0.48 3.724 0.523 5.382-1.018 6.72-2.88 0.354-2.27-0.54-3.3-0.48-5.28z" style="fill: rgb(127, 183, 186);"/>
      <path d="m79.776 176.74c2.595 2.209-0.146 9.742-3.36 10.56-1.42 0.361-2.093-0.312-3.36-0.479-1.94-2.593-1.472-6.479 1.44-7.681 1.742-0.462 0.403 2.157 1.92 1.92 2.308-0.25 3.105-2.01 3.36-4.32z" style="fill: rgb(127, 183, 186);"/>
      <path d="m49.537 179.14c2.915 1.498-2.434 5.11-3.84 2.4-0.385-2.46 3.481-0.68 3.84-2.4z" style="fill: rgb(127, 183, 186);"/>
      <path d="m52.896 182.5c-0.167 3.032-3.424 2.976-5.76 3.84-0.686-1.87 2.899-5.52 5.76-3.84z" style="fill: rgb(127, 183, 186);"/>
      <path d="m54.816 184.9c-0.986 0.773-1.113 2.406-0.96 4.319-4.409 0.51-2.724-5.12 0.96-4.32z" style="fill: rgb(127, 183, 186);"/>
      <path d="m57.217 185.86c1.357 0.755-1.084 2.57 0.48 3.359-1.263 1.386-3.522-0.29-2.88-2.399 0.913-0.2 1.205-1.03 2.4-0.96z" style="fill: rgb(127, 183, 186);"/>
      <path d="m110.02 3.462c0.686-2.089-1.641-2.207-0.48-3.36 2.47-0.39 3.773 0.387 4.801 1.44-0.25 1.831-0.876 3.285-1.92 4.32-5.485 0.845-7.401-1.879-10.08-3.84 0.41-1.313 4.64 3.779 7.68 1.44z" style="fill: rgb(127, 183, 186);"/>
      <path d="m125.86 2.502c1.462 4.781-5.177 6.541-5.76 2.4 0.682 0.042 1.359 0.079 1.439-0.48 0.062-0.861-0.587-1.012-0.479-1.92-3.448-0.409-4.411 1.669-6.72 2.4 1.62-2.956 8.14-5.603 11.52-2.4z" style="fill: rgb(127, 183, 186);"/>
      <path d="m143.62 15.462c0.234-1.366 1.456-1.744 1.92-2.88-0.992-2.758-3.554-1.212-5.76-1.44-6.175-0.638-10.362-2.665-12-8.64 2.228 1.797 3.621 6.363 7.681 4.8 0.234-1.515-0.865-1.695-0.48-3.36 3.562-0.274 5.577 3.607 3.36 6.24 5.341-0.394 11.89-1.208 11.52 5.28-0.776 0.824-2.008 1.192-3.84 0.96 1.687 1.354 3.459 2.621 5.28 3.84 0.691-0.723-1.128-3.008-0.48-5.28 1.204 1.197 1.362 3.438 2.4 4.8 1.64 0.36 0.609-1.95 2.399-1.44 0.142 0.979 1.299 0.941 1.44 1.92-0.212 1.388-1.012 2.188-2.4 2.4 1.628 2.053 3.349 4.012 5.28 5.76 0.271-0.589 0.011-1.489 1.44-1.92-0.362-2.038-2.661-2.14-4.32-2.88 2.933-0.844 6.469 1.845 7.2 4.8-0.208 1.888-3.791 0.687-2.4 2.88-1.767-2.073-4.035-3.644-5.28-6.24-6.59-5.09-12.94-10.419-21.6-13.44-0.857 0.135-0.985-0.454-0.479-0.48 2.976 1.024 6.236 1.763 8.159 3.84 0.56-0.078 0.85 0.106 0.96 0.48z" style="fill: rgb(127, 183, 186);"/>
      <path d="m66.816 27.462c-0.989-0.13-0.114-2.125-1.44-1.92-1.581 3.059-3.401 5.878-7.68 6.24 1.387-2.053 7.535-4.013 2.4-5.76-1.511 1.503 0.814 1.621 0.48 3.36-1.981 1.059-3.938-0.014-5.76-0.48 0.931 2.749 3.117 4.243 3.36 7.68 2.263-0.937 2.932-3.469 4.32-5.28-0.714 3.77-5.514 7.603-6.72 12.48-1.131-0.406 0.399-2.105 0.48-2.88-3.365 2.658-0.176 3.333-1.92 6.72 8.896-19.781 25.946-35.265 48.96-38.88 4.386-0.689 12.505-0.765 17.76 0 32.343 4.709 58.425 34.742 51.84 73.92 0.728-1.192 0.927-2.914 0.96-4.8 1.457 2.274-0.912 4.834-0.479 7.68-0.562-0.078-0.405-0.875-0.48-1.44-2.551 5.868-4.432 11.804-7.68 17.28-10.188 17.174-29.874 32.967-59.04 30.72-5.151-0.396-9.45-1.966-14.88-2.88 1.64 1.08 3.903 1.536 6.239 1.92-2.783 1.014-6.293-1.379-9.12-1.92-0.386 3.433 8.085 2.15 8.64 6.24-1.685-0.556-2.759-1.721-4.8-1.92-0.179 0.942 4.129 3.708 6.24 2.399 1.479-0.64-0.895-2.134 0.479-2.88 2.304 0.097 4.062 0.738 6.24 0.96 2.495 5.731-4.169 9.375-8.641 6.721-1.379 0.8 0.525 2.31 0.96 2.88-0.115 1.237-0.825-0.659-1.92 0 4.706 6.402-4.549 15.89-10.08 9.12 0.207-1.554-0.631-4.152 0.96-4.32-0.407-0.713-1.545-0.694-2.4-0.96-4.242-8.017 7.301-7.689 11.04-4.32 0.271-4.599-13.188-7.72-13.44 0-2.913-0.112-3.402-4.169-2.4-6.72 6.221-5.168 12.229 1.963 16.8 4.32-1.812-2.988-5.287-4.313-6.72-7.681-6.665-0.627-13.125 0.564-11.52 6.721h-1.44c0.132 0.987 1.788 0.451 1.92 1.439-0.355 3.545-6.436 2.589-8.16 0.96 0.072 4.044 7.179 4.722 9.12 2.4 5.266 0.478 2.249 6.795-1.44 7.2-5.17 0.567-9.983-6.528-9.6-10.561-2.817 4.383-8.557 5.844-9.12 12.48 3.631 0.75 2.391-3.369 5.28-3.36 2.188 0.245-0.305 2.192 0.96 3.36 2.798 0.398 2.452-2.349 2.4-4.8-0.393-1.527-3.17-0.671-2.88-2.881 1.468 0.349 1.412-0.828 2.88-0.479 0.164 2.876 2.009 4.07 4.32 4.8-0.115 1.325-1.785 1.096-2.4 1.92 0.709 1.851 0.953 4.167 1.44 6.24 1.491-0.29 2.025 3.02 3.36 4.32 0.386-0.254 0.779-0.501 1.44-0.48 0.978-0.673-0.472-1.653 0.48-2.88 3.476-0.365 5.952 3.152 11.04 1.44-2.349 1.659-6.733 4.154-10.08 1.92-0.997 0.123-0.131 2.108-0.96 2.399h-1.92c-2.231-0.329-2.496-2.624-2.88-4.8-0.918 2.282-0.959 5.441-1.92 7.68 2.388 0.469 0.306-3.533 2.4-3.359 0.718 3.217-3.396 8.477 1.44 8.64 0.656-2.096-1.859-1.021-1.44-2.88 2.252-4.147 7.45-5.35 12.48-6.72-1.909 2.571-6.522 2.438-6.72 6.72 0.445 2.184 3.006-0.245 3.84 0.96 0.139 2.06-0.668 3.172-1.44 4.32-2.397-1.297-4.499 2.529-6.72 2.399-2.662-0.154-4.536-2.237-4.32-6.72-0.892-0.859-2.251 1.886-2.88 2.88-2.129 0.049-2.595-1.565-2.88-3.36 5.037-0.953 6.747-5.894 6.72-10.56-1.699 3.09-1.91 7.75-5.28 8.16-6.29 0.766-6.765-10.215 0.96-7.68 0.656 2.096-1.858 1.021-1.44 2.88 4.343-0.587 5.474-6.508 4.8-10.561-0.409 2.261-3.308 6.235-5.76 3.36-1.71 2.603-5.066 5.053-9.6 3.359 0.24 2.32 2.936 2.185 4.8 2.881-0.271 3.678-2.919 2.129-5.76 2.88-3.09-3.163 1.8-7.002-0.48-9.601-0.606 4.675-1.667 8.893-5.28 10.561-2.671 0.431-3.431-1.05-4.8-1.92 1.354 3.419-1.763 6.219-3.84 6.239-6.181 0.063-4.601-9.869-2.4-14.88-1.131-0.786-2.165 2.617-3.84 2.88-6.792 1.203-7.13-8.239-2.4-9.6 2.1 0.014-0.54 2.026 1.44 2.4 4.567-0.191 2.91-7.809 0.96-9.601 5.737 2.85 2.733 15.778 5.28 23.04 2.101-0.163 2.858-3.37 4.8-0.96-0.772-1.544-0.397-3.182 0.48-4.32 6.111 1.799 8.723-2.354 9.12-7.68 1.97-0.22-0.195 1.025 0.48 2.4 2.23-8.01 12.663-7.818 15.36-15.36 0.817-0.177 0.906 0.374 0.96 0.96 1.191-1.85-0.386-6.466 2.4-6.72 0.632 2.888 1.796 5.243 4.32 6.24 0.405-0.593-2.374-2.085-2.88-3.36-1.903-8.761 9.485-8.1 14.4-5.76-0.275-3.369-4.047-4.045-6.24-5.28-6.795-3.827-12.629-9.009-17.76-14.88 1.544 3.848 5.08 7.888 3.36 13.439 2.348 0.268 1.146-3.014 1.44-4.8 9.246-0.625 8.583 15.095-1.92 12.48 0.789 1.538 1.605 1.225 3.36 0.96-0.474 5.602-4.891 13.058-11.04 12.96-6.976-0.11-8.055-8.81-2.4-12.96-1.553-1.167-2.967-2.473-3.36-4.8 0.744-0.536 1-1.561 2.4-1.44-2.668-0.262-7.992-0.782-6.72-4.8-1.231 1.166-2.447 3.268-1.44 5.28 2.089 0.685 2.207-1.641 3.36-0.48 3.479 8.344-10.894 12.194-9.6 1.44 0.439-3.652 4.458-5.151 4.8-8.16-4.669 0.577-12.959 6.39-9.6 13.439 2.434 0.708 2.97-2.069 4.32-0.96 0.56 2.562 0.224 3.957-0.48 6.24-1.866 0.693-3.26 1.859-6.24 1.44-1.601-0.96-2.481-2.64-3.84-3.841-1.069 1.491-1.595 3.525-3.36 4.32-1.515 0.235-1.695-0.865-3.36-0.479-5.645-10.195 5.788-17.168 13.92-19.681-4.822 3.178-10.587 5.413-11.04 12.96 0.317 1.764 2.981 1.179 3.84 2.4-0.66-8.349 3.449-12.06 9.12-14.88 0.308-0.153 1.082-0.23 1.44-0.48 0.751-0.523 1.431-1.168 3.36-1.92 1.8-0.701 2.935-0.945 3.84-3.84-3.152-1.197-6.436-9.395-0.48-10.08-0.258 1.698 0.407 2.473 1.44 2.88 5.045-0.845 6.7-6.651 6.24-11.52 1.51 1.53 1.85 4.229 3.36 5.76-0.269 1.391-0.749-0.736-1.44-0.479 1.208 6.519-0.192 14.068-7.68 13.439-0.259 1.858 1.223 1.977 1.44 3.36 2.325-1.836 5.269-3.052 5.76-6.721 1.449 3.22-2.625 5.048-3.84 7.2 6.527 0.717 7.376-9.428 5.76-15.84 8.272 11.247 17.486 21.554 32.16 26.4-23.704-11.347-42.272-30.354-38.88-67.2-0.654-0.516-0.841 1.63-2.88 0.48 0.311-2.871-1.265-3.855-1.92-5.76 1.014 7.163-3.214 18.014-11.04 17.76-3.243-0.105-7.811-3.64-5.76-9.6-2.201 0.245-3.539 4.154-7.2 3.84-4.677-0.402-5.704-6.998 0.48-7.68 0.728 1.032 0.816 2.703 1.92 3.36 4.034 0.389 4.033-3.273 5.76-5.76 0.368-0.529 1.273-0.234 1.92-0.96 1.459-1.636 2.421-4.735 3.84-5.76 1.917-1.384 3.486-1.406 7.2-1.44-1.613-1.428-3.52-2.561-6.24-2.88-1.965 0.494-1.311 2.542-0.96 4.32-6.025 2.677-10.107-4.409-5.76-8.16 6.059-1.959 12.355 1.312 13.92 6.72h5.76c-2.766-0.435-4.81-1.59-6.72-2.88 0.078-1.519-1.276-1.604-0.96-3.36-4.234-2.824-7.453-13.078-3.36-18.72 3.213-4.429 11.994-2.628 9.6 5.28-7.329-4.232-10.877 6.766-6.72 11.52 1.124-0.156 0.466-2.094 1.44-2.4 1.741 0.019 1.542 1.977 2.88 2.4 6.558 0.292 9.522-3.567 9.12-9.6-0.289-4.332-3.297-7.183-0.96-10.08 2.494-3.092 7.491-0.343 10.08 1.92 2.191-3.089 1.353-9.208 3.84-12 1.438-0.801 3.858-0.622 4.8-1.92 3.595-0.312 7.72 2.917 9.6 0 0.378-1.978-2.298-0.901-1.92-2.88 3.034-4.573 9.072 0.584 5.76 4.32-2.713 3.062-9.343 0.792-12.48-0.48 1.308 1.638 2.115 7.603-1.44 9.12-1.843 0.243-0.317-2.883-1.92-2.88-3.104 0.735-3.042 4.638-3.84 7.68 2.003-0.237 4.385-2.466 6.72-4.32 5.631-4.47 15.02-10.49 22.08-11.04-11.682 3.842-21.64 9.404-28.803 17.762zm23.52-14.4c-19.077 7.058-36.519 26.982-38.88 50.88-2.055 20.803 6.359 38.715 16.32 48.96 17.826 18.333 49.822 24.149 73.44 11.039 19.871-11.03 36.355-35.086 30.24-66.239-2.156-10.981-7.481-21.271-12-26.88-10.64-13.205-28.952-23.642-53.28-21.12-6.08 0.631-11.584 1.785-15.844 3.361zm-39.359 37.44c-1.694 0.066-2.146 1.374-3.84 1.44 2.024 1.815 0.768 6.912 2.88 8.64 0.223-4.737 1.604-8.317 2.88-12-1.812 0.085-2.71 0.337-1.92 1.92zm0.48 9.12c-0.016-3.863 2.258-7.974 1.92-10.56-0.715 3.131-3.235 6.997-1.92 10.56zm-21.121 2.88c1.045-2.445 1.671 1.166 1.92 2.4 6.856 4.398 14.102-2.442 11.52-10.56-0.142-1.262 1.862-0.378 1.44-1.92-3.562 0.438-7.562 0.438-7.2 4.8 2.38 0.62 2.358-1.162 4.32-0.96 2.824 6.55-6.451 10.628-9.6 5.76-0.37-1.229-0.479-2.721-1.439-3.36 0.048 1.36-1.903 3.174-0.961 3.84zm47.04 111.36c1.559-1.455-2.98-3.882-3.36-1.921 2.345-0.58 2.748 0.78 3.36 1.92zm-17.279-63.36c0.115-0.736 0.791-0.07 0.96 0.479 1.869 2.81 1.288 8.271 3.36 10.08 0.208-8.183-2.562-11.338-5.28-15.84-0.029 2.11 0.193 3.97 0.96 5.28zm-2.88 13.92c0.908 1.012 2.359 1.48 3.84 1.92-2.138-3.638 0.705-11.738-0.96-13.92 0.463 5.42-1.264 8.66-2.88 12zm-8.16-3.84c1.091 0.085 2.797-1.621 1.92-1.92-0.541 0.74-1.379 1.18-1.92 1.92zm7.2 12c0.598 5.919 8.147 2.337 8.16-1.92-0.614-0.026-0.665-0.615-1.44-0.48-0.772 2.27-3.563 2.52-6.72 2.4zm31.2 15.36c1.357 0.397 1.244-0.676 2.4-0.479 0.412-1.531-0.755-1.484-0.96-2.4 1.004-0.276 1.37-1.189 2.88-0.96 0.163 1.488-1.111 2.294 0 3.36 2.653 0.732 1.71-2.131 3.84-1.92 0.055-2.897-5.637-3.103-7.2-1.44-0.685 2.09 1.641 2.207 0.48 3.36-0.565 0.08-1.363-0.08-1.44 0.48z" style="fill: rgb(127, 183, 186);"/>
      <path d="m23.137 126.34c0.093 3.793-9.491 10.419-12 3.36 0.863-2.177 2.292-3.788 5.28-3.84-0.288 1.778-0.79 2.782 0.48 3.84 3.174-0.02 4.998-1.4 6.24-3.36z" style="fill: rgb(127, 183, 186);"/>
      <path d="m154.18 117.22h2.88c6.086 5.988-4.734 12.026-11.04 8.641 2.996-1.005 8.184 0.184 8.64-3.36 0.045-1.484-1.449-1.431-2.88-1.44-0.074-1.193 0.754-1.485 0.96-2.399-0.821-0.021-1.243 0.356-1.439 0.96-0.878-0.299 0.829-2.006 1.92-1.92 8.473-8.327 15.359-18.24 19.2-31.2-2.28 12.126-10.17 22.8-18.24 30.72z" style="fill: rgb(127, 183, 186);"/>
      <path d="m164.26 34.662c0.63 0.169 0.755 0.845 1.439 0.96-0.92-1.16-0.303-3.857-0.479-5.76 1.313 0.766 0.536 3.624 1.439 4.8 1.469 0.348 1.412-0.828 2.88-0.48 0.65 1.417 0.602 2.972-0.479 3.84-1.461 0.021-1.866-1.014-2.88-1.44-0.296 2.056 1.562 1.957 1.439 3.84-1.39-1.653-2.84-3.242-3.36-5.76z" style="fill: rgb(127, 183, 186);"/>
      <path d="m77.856 23.622c6.065-4.486 14.032-8.709 21.601-10.56 20.326-4.972 41.929 3.049 53.76 14.88 11.501 11.501 21.545 34.453 15.84 56.64-2.511 9.764-8.64 20.008-14.88 26.399-9.767 10.005-24.903 19.015-45.601 17.761-31.587-1.915-56.719-28.456-54.72-61.44 1.108-18.329 9.947-33.288 23.996-43.678zm-21.599 31.68c-8.746 32.986 13.019 62.982 38.88 70.561 7.579 2.22 15.88 2.665 23.52 1.92 26.734-2.609 48.764-25.779 50.88-52.32 1.585-19.863-5.833-34.38-14.88-44.64-9.761-11.069-29.269-21.569-51.84-17.76-17.866 3.015-31.878 14.5-39.84 26.88-2.895 4.498-5.704 11.515-6.723 15.362z" style="fill: rgb(127, 183, 186);"/>
      <path d="m57.217 15.942c-1.594 0.327-0.538 3.302-1.92 3.84-6.309 1.375-6.832-6.212-1.92-7.2 5.546-1.115 9.012 5.528 10.56 8.16-1.816-0.114-2.424-5.57-6.72-4.8z" style="fill: rgb(127, 183, 186);"/>
      <path d="m26.977 50.022c-4.941 1.868-8.105-1.879-8.16-4.8-0.138-7.341 14.688-8.55 17.76-3.84-5.506-4.302-14.618 2.484-9.6 8.64z" style="fill: rgb(127, 183, 186);"/>
      <path d="m3.937 72.582c2.433 1.087 5.254 1.785 7.68 2.88-0.373 0.427-0.516 1.084-0.48 1.92-2.832-0.368-5.468-0.933-7.2-2.4 0.022 1.808-4.01 4.112-3.84 0.48 2.644 0.404 3.987-0.493 3.84-2.88z" style="fill: rgb(127, 183, 186);"/>
      <path d="m35.137 75.942c0.523 2.177-1.531 3.545-0.48 5.76 1.619 3.411 6.723 2.992 9.6 0.479-0.415 0.343-2.475 4.73-5.28 5.76-5.691 2.089-13.079-1.53-10.56-9.12 1.914-1.285 3.24-3.158 6.72-2.879z" style="fill: rgb(127, 183, 186);"/>
      <path d="m149.86 120.1c0.939 0.145-4.859 3.764-1.439 0.96 0.46-0.38 0.88-0.69 1.44-0.96z" style="fill: rgb(127, 183, 186);"/>
      <path d="m140.26 126.34c-0.352 0.448-0.873 0.728-1.44 0.96-1.21-0.2 0.8-1.03 1.44-0.96z" style="fill: rgb(127, 183, 186);"/>
      <path d="m137.86 127.3c-1.174 1.227-2.778 2.021-4.8 2.4 1.32-1.07 2.93-1.87 4.8-2.4z" style="fill: rgb(127, 183, 186);"/>
      <path d="m132.58 129.7c-0.406 0.713-1.545 0.694-2.399 0.96-1.1-0.37 1.49-1.01 2.4-0.96z" style="fill: rgb(127, 183, 186);"/>
      <path d="m143.62 139.3c-1.051 1.35-1.915 2.885-4.319 2.88-0.011-1.131 0.826-1.413 0.479-2.88-0.854-0.613-4.479-0.925-5.279 0 0.23-2.19 8.25-4.66 9.12 0z" style="fill: rgb(127, 183, 186);"/>
      <path d="m31.297 140.26c-1.658-3.66 2.281 3.04 0 0z" style="fill: rgb(127, 183, 186);"/>
      <path d="m105.22 163.78c3.087 1.174 5.491 17.352-2.88 14.399-0.741-1.656-1.495-4.22-0.48-6.24 1.665-0.385 1.846 0.716 3.36 0.48 0.57-2 0.96-6.7 0-8.64z" style="fill: rgb(127, 183, 186);"/>
      <path d="m82.177 166.66c0.502 0.073-0.226 2.937-1.44 2.88-0.418-1.86 1.172-1.71 1.44-2.88z" style="fill: rgb(127, 183, 186);"/>
      <path d="m100.9 180.1c1.889-0.769 0.167 2.073 1.44 1.92 7.682 0.768 9.665-8.964 6.72-14.399 0.654-1.467 1.72 1.637 1.92 2.399 2.235 8.533-2.464 22.457-11.04 15.841-0.461-1.95-1.046-5.05 0.96-5.76z" style="fill: rgb(127, 183, 186);"/>
      <path d="m36.097 190.66c1.088-0.532-2.592 1.671-2.88 2.88-0.747 1.706 1.63 0.29 1.44 1.439 0.061 0.861-0.588 1.013-0.48 1.921-1.833 0.231-3.064-0.137-3.84-0.961-0.409-4.09 3.044-4.31 5.76-5.28z" style="fill: rgb(127, 183, 186);"/>
      <path d="m46.657 142.18c0.516 1.244 1.735 1.785 1.92 3.36 1.635 0.355 0.791-1.769 1.92-1.92 1.457-0.177 0.997 1.563 1.44 2.399-0.271 1.169-0.411 2.47-1.92 2.4 4.615 11.273-15.119 13.515-12.48 2.4 1.693 0.387 1.631 2.528 3.84 2.399 1.808 0.208 2.186-1.014 2.88-1.92-6.48 3.627-8.33-10.125-1.92-11.04-0.125-2.114-1.655-2.824-1.44-5.28 1.742 1.139 1.654 4.106 3.36 5.28 0.391-4.209 8.365-4.667 7.2-12 2.656 5.18-0.661 12.37-4.8 13.92zm-1.44 4.8c0.134-1.094-0.116-1.804-0.96-1.92 0.109 0.85-0.484 2.41 0.96 1.92z" style="fill: rgb(127, 183, 186);"/>
    </g>
  </g>
  <g transform="matrix(0.095466, -0.088058, 0.104876, 0.157837, 214.362732, 692.809204)">
    <g clip-rule="evenodd" fill-rule="evenodd">
      <path d="m96.576 7.782c-1.278-1.075 0.679-2.405-0.479-3.36-3.558 0.283-5.447 2.232-6.72 4.8-1.754-5.291 12.458-10.97 12.96-4.8 0.2 2.445-2.12 3.722-5.764 3.36z" style="fill: rgb(127, 183, 186);"/>
      <path d="m114.34 7.302c0.077-0.661 7.235 0.16 4.8 0.48-1.63-0.131-3.9 0.371-4.8-0.48z" style="fill: rgb(127, 183, 186);"/>
      <path d="m109.06 7.302c-3.44 1.434-5.51-0.536 0 0z" style="fill: rgb(127, 183, 186);"/>
      <path d="m101.38 8.262c0.06-1.06 2.036-0.204 2.88-0.48-0.06 1.06-2.04 0.204-2.88 0.48z" style="fill: rgb(127, 183, 186);"/>
      <path d="m123.46 7.782c-1.06 1.466-3.08-0.554 0 0z" style="fill: rgb(127, 183, 186);"/>
      <path d="m111.94 14.022c36.786-1.003 66.596 35.495 54.24 73.92-6 18.66-25.315 36.538-48 38.88-21.387 2.208-39.787-7.396-49.44-19.2-7.973-9.75-14.275-23.69-12.96-41.76 1.073-14.739 8.456-27.979 17.28-36.48 9.116-8.782 22.872-14.922 38.88-15.358zm-39.843 18.24c-8.774 9.636-18.688 26.663-14.88 47.52 1.895 10.377 5.866 17.229 11.04 24 9.104 11.915 24.304 21.69 42.24 22.08 9.114 0.197 22.229-2.88 31.199-8.641 20.24-12.997 34.544-43.48 20.16-72.48-1.259-2.537-3.523-4.923-5.28-7.2-1.733-2.248-3.27-5.182-5.279-7.2-8.96-8.996-26.862-17.179-45.601-14.88-14.471 1.777-26.107 8.57-33.603 16.802z" style="fill: rgb(127, 183, 186);"/>
      <path d="m52.896 21.222c2.301 0.169-1.025 1.438-0.96 2.4 0.82 5.955 4.432 15.068-2.88 15.84-3.218 0.34-7.779-3.542-3.84-7.68 2.348-0.034-1.307 1.412 0.48 2.4 7.402 0.681 2.844-10.597 7.2-12.96z" style="fill: rgb(127, 183, 186);"/>
      <path d="m36.577 37.542c-0.776 0.889-3.788-2.696-4.32 0.48-2.448 0.295-3.475-1.779-3.36-2.88 0.437-4.196 6.902-0.753 7.68 2.4z" style="fill: rgb(127, 183, 186);"/>
      <path d="m169.06 39.462c1.083-0.738 3.548 1.234 3.36 3.36-0.731 1.53-3.292-1.011-2.881 0.96-2.51-1.004 2.48-3.044-0.48-4.32z" style="fill: rgb(127, 183, 186);"/>
      <path d="m17.376 70.182c-1.073 0.207-0.194 2.366-0.48 3.36-0.977 0.874-3.186 2.223-4.8 0.96 1.217-0.766 2.931-2.84 1.44-4.8-0.218 2.182-1.681 5.137-4.32 3.36 1.139-1.567 2.644-2.579 1.44-5.28 1.866-0.947 3.917 0.488 5.76 1.92-1.013-2.021-1.672-9.64 0.96-12-2.455 1.064-4.183 2.857-3.84 6.72-2.031 0.48-1.617 0.067-1.92 1.92-1.463 0.023-2.444-0.436-2.88-1.44-0.145-1.961 0.665 0.081 1.92-0.48 0.513-1.793-1.192-1.368-0.96-2.88 2.118-0.122 2.529-1.951 4.32-2.4-3.85 0.26-11.049 1.243-10.08-5.76 1.073-1.949 5.745-2.048 6.24 0.48 0.135 1.255-0.175 2.065-1.44 1.92 0.98 3.056 3.573 1.457 5.76 0.96 0.832-0.188 1.036 0.691 1.92 0.48 2.169-0.517 4.653-2.087 6.24-2.88-0.911-0.849-3.074-0.446-3.84-1.44-1.667 0.092-1.822 1.698-3.36 1.92-1.461 0.021-1.867-1.013-2.88-1.44 1.928-1.466-0.723-2.365 0.48-3.84-4.676-1.551-4.736-11.357 3.36-9.12 0.494 1.106 1.652 1.548 1.44 3.36-0.847 1.553-4.55 0.25-4.8 2.4-0.521 2.601 2.083 2.078 1.92 4.32 1.932-0.469 1.684-3.116 1.92-5.28 1.45 1.11 1.284 3.837 1.92 5.76 2.693 2.587 7.218 3.342 12 3.84-0.979 1.102-3.986 0.174-5.76 0.48-0.44 2.04 1.15 2.05 2.88 1.92-0.298 2.571-3.849 3.701-5.76 1.92-0.405-2.005 0.933-2.267 0.96-3.84-6.511 0.565-9.98 14.005-0.96 14.4 1.407-0.033 1.783-1.098 2.4-1.92 5.199 4.086-6.145 8.072-7.2 2.4z" style="fill: rgb(127, 183, 186);"/>
      <path d="m172.42 45.222c0.774-0.135 0.826 0.454 1.439 0.48 0.145 1.265-0.664 1.575-1.92 1.439-0.21-1.002 0.33-1.27 0.48-1.919z" style="fill: rgb(127, 183, 186);"/>
      <path d="m173.38 50.022c1.255-0.135 2.064 0.175 1.92 1.44-0.9 0.943-2.32 0.278-1.92-1.44z" style="fill: rgb(127, 183, 186);"/>
      <path d="m49.537 62.982c1.124 0.123 0.276 2.109 0 2.4-1.124-0.123-0.277-2.109 0-2.4z" style="fill: rgb(127, 183, 186);"/>
      <path d="m2.017 67.782c-0.071 1.191-0.089 2.33 0.96 2.4-5.388 0.521-2.979-7.589 3.36-5.76-0.609 1.951-3.85 1.271-4.32 3.36z" style="fill: rgb(127, 183, 186);"/>
      <path d="m174.34 64.902c1.055 0.556 0.207 7.145 0.479 10.08-1.06-0.556-0.21-7.145-0.48-10.08z" style="fill: rgb(127, 183, 186);"/>
      <path d="m177.22 65.382c0.932-0.19 0.701 2.187-0.48 1.44v-0.96c0.4 0.088 0.45-0.187 0.48-0.48z" style="fill: rgb(127, 183, 186);"/>
      <path d="m8.257 65.862c-0.531 1.566-4.199 2.5-2.4 4.8-3.672 1.301-2.937-6.947 2.4-4.8z" style="fill: rgb(127, 183, 186);"/>
      <path d="m51.457 87.462c-0.824-1.576-1.271-3.53-1.44-5.76-1.729 0.168-2.313 0.734-3.84 0-0.553-0.567-0.543-1.697-0.48-2.88-2.385 3.94-10.208 3.655-9.6-2.88 1.56-3.081 6.847-2.433 9.6-4.32 0.958-1.762 0.948-4.492 2.88-5.28-0.403 4.237-0.645 8.635-2.4 11.52 0.054 0.92 1.607-0.564 2.88 0v-5.28c0.526 3.012 1.768 10.163 2.4 14.88z" style="fill: rgb(127, 183, 186);"/>
      <path d="m49.057 66.822c0.183-0.914 0.611 0.307 0.48 0.96-0.183 0.914-0.611-0.306-0.48-0.96z" style="fill: rgb(127, 183, 186);"/>
      <path d="m9.697 66.822c-0.065 2.335 0.591 5.392-1.92 5.28-1.284-1.791-1.516-5.711 1.92-5.28z" style="fill: rgb(127, 183, 186);"/>
      <path d="m48.577 69.222c0.553-1.553 0.543 1.289 0.48 1.92-0.553 1.553-0.544-1.289-0.48-1.92z" style="fill: rgb(127, 183, 186);"/>
      <path d="m178.18 69.222c0.203 1.003-0.329 1.271-0.48 1.92-0.447-0.512-1.771-0.149-1.439-1.439 0.42-0.374 1.08-0.517 1.92-0.481z" style="fill: rgb(127, 183, 186);"/>
      <path d="m176.26 72.582c1.374-0.095 2.619-0.06 2.399 1.44-0.93 0.934-2.94 0.502-2.4-1.44z" style="fill: rgb(127, 183, 186);"/>
      <path d="m30.816 87.942c-4.675 0.191-7.729-5.388-12-7.2-2.046 0.05-1.683 2.794-1.92 3.36-4.562 0.328-5.668-4.31-3.84-7.68 9.585-3.379 10.302 9.651 17.76 11.52z" style="fill: rgb(127, 183, 186);"/>
      <path d="m5.856 79.302c-0.212-0.698-0.421 0.049-0.96 0 0.068 1.852 1.622 2.218 1.44 4.32h-2.4c-0.413-0.387-0.285-1.315-0.96-1.44 0.125-1.475 1.042-2.158 1.44-3.36-0.209-0.712-0.614 0.189-1.44 0-0.357-1.478 1.317-0.922 0.96-2.4 2.079-0.062 1.182 2.847 3.36 1.44-0.385 1.665 0.715 1.845 0.479 3.36-0.427-0.373-1.083-0.516-1.92-0.48 0.103-0.821-0.817-1.243 0.001-1.44z" style="fill: rgb(127, 183, 186);"/>
      <path d="m176.26 76.902c1.003-0.203 1.271 0.329 1.92 0.48 0.577 2.337-2.22 1.301-1.44 3.84-1.18-0.429-1.3-3.358-0.48-4.32z" style="fill: rgb(127, 183, 186);"/>
      <path d="m9.697 78.342c1.613-0.493 0.747 1.493 0.96 2.4-1.662 0.336-1.722-1.683-0.96-2.4z" style="fill: rgb(127, 183, 186);"/>
      <path d="m46.657 93.222c1.785-0.185 0.888 2.312 2.4 2.4 4.782-2.838 0.042-10.26-2.88-11.52-1.392 6.061-1.828 14.954-7.68 15.36-5.458 0.379-7.245-8.452-0.48-9.6 1.916-0.027-1.479 3.392 0.96 4.32 4.275-1.484 5.835-5.685 6.24-11.04 3.24 0.547 4.424 3.025 5.76 4.8 0.106 0.141 0.739-0.701 0.96-0.48 1.244 1.244 0.458 5.587 2.4 7.2-1.562 2.935-1.6 6.269-4.8 6.72-4.642 0.66-7.766-5.557-2.88-8.158z" style="fill: rgb(127, 183, 186);"/>
      <path d="m176.74 83.142c1.36 2.361-0.312 5.301-1.92 6.24-1.573-0.613 3.426-3.773-0.479-3.84-0.11-1.71 0.69-2.51 2.4-2.4z" style="fill: rgb(127, 183, 186);"/>
      <path d="m47.137 86.502c2.38 0.76 0.097 4.36 0 5.76-1.385-1.416 0.674-3.462 0-5.76z" style="fill: rgb(127, 183, 186);"/>
      <path d="m175.78 91.782c0.396 1.357-0.676 1.244-0.479 2.4-0.861 0.061-1.013-0.587-1.92-0.479-2.585 0.88 1.338 5.419-1.44 6.239 0-3.091-1.43-12.819 3.84-8.16z" style="fill: rgb(127, 183, 186);"/>
      <path d="m23.137 94.182c-1.335 1.917-2.965 1.295-3.36 3.36-0.617 3.226 3.224 5.673 6.72 5.76-5.917 1.063-12.133-3.572-11.04-9.6 2.179-2.062 5.922-1.52 7.68 0.482z" style="fill: rgb(127, 183, 186);"/>
      <path d="m39.457 99.941c-2.299 2.276-5.145 4.586-8.64 4.32-6.771-0.514-7.222-10.458 0.48-9.12-3.039 5.54 4.598 7.2 8.16 4.801z" style="fill: rgb(127, 183, 186);"/>
      <path d="m42.336 98.502c-0.16 3.342-8.195 8.527-3.84 13.439 1.968-0.385-0.25-1.976 0.96-2.88 7.077 0.841 3.849 9.396 0 9.601-6.257 0.331-6.019-10.506-2.88-14.4-3.644 1.381-6.875 6.762-3.84 10.561-3.566 3.023-6.664-0.135-6.72-2.881-0.096-4.695 7.053-7.539 11.04-8.159 1.435-2.08 3.862-3.18 5.28-5.278z" style="fill: rgb(127, 183, 186);"/>
      <path d="m166.18 107.14c0.853-1.387 2.905-1.574 2.88-3.84-0.148-0.651-1.202-0.398-1.92-0.479-0.337-2.765 3.456-3.662 4.8-1.92 0.33 4.34-2.07 5.93-5.76 6.24z" style="fill: rgb(127, 183, 186);"/>
      <path d="m45.697 101.38c-0.024 1.896-0.984 2.856-2.88 2.88-1.855-2.01 0.871-4.733 2.88-2.88z" style="fill: rgb(127, 183, 186);"/>
      <path d="m17.376 103.3c0.55 1.51-0.753 1.167-0.96 1.92 0.109 3.163 4.481 1.555 6.72 1.44-2.639 2.467-9.928 3.701-11.52-0.48 0.034-2.66 3.142-4.36 5.76-2.88z" style="fill: rgb(127, 183, 186);"/>
      <path d="m30.816 104.74c-4.656 1.809-11.958 8.88-5.28 13.439 1.558 0.278 2.233-0.326 3.36-0.479 1.121 7.21-9.163 6.815-10.56 1.92-1.109-3.887 2.214-7.88 4.32-10.08 2.035-2.12 4.208-4.02 8.16-4.8z" style="fill: rgb(127, 183, 186);"/>
      <path d="m167.14 109.54c0.011 2.25 0.253 4.732-1.92 4.8-1.742 0.462-0.403-2.156-1.92-1.92-3.021 0.499-2.274 4.766-3.36 7.2-0.84-4.34 1.5-15.21 7.2-10.08z" style="fill: rgb(127, 183, 186);"/>
      <path d="m80.257 128.26c-1.383-0.057-3.143 0.263-3.84-0.479-0.083-2.036-1.987-4.138-1.44-5.28 2.419 1.26 4.393 2.97 5.28 5.76z" style="fill: rgb(127, 183, 186);"/>
      <path d="m146.02 126.34c2.832 2.388 0.805 8.195-3.36 6.24v-2.4c-4.709-0.709-4.364 3.636-7.199 4.8 2.33-4.06 3.44-9.36 10.56-8.64z" style="fill: rgb(127, 183, 186);"/>
      <path d="m127.3 131.14c-1.06 1.47-3.08-0.55 0 0z" style="fill: rgb(127, 183, 186);"/>
      <path d="m120.1 134.02c2.386 1.084 5.247 5.35 8.64 2.4 0.184-1.783-1.944-1.255-1.439-3.36 3.383-2.896 6.999-0.341 6.72 2.88-0.53 6.12-13.5 4.3-13.92-1.92z" style="fill: rgb(127, 183, 186);"/>
      <path d="m101.38 132.58c2.34-1.27 3.62 1.59 0 0z" style="fill: rgb(127, 183, 186);"/>
      <path d="m19.297 132.58c1.805 0.496-1.065 3.263-0.96 5.28 0.079 1.509 1.012 2.086 1.44 3.359 1.698 0.843 2.473-1.612 2.88-0.479 0.721 0.777 0.721 3.542 0 4.319-0.909 0.852-3.17 0.351-4.8 0.48-3.999-3.48-0.31-9.6 1.44-12.96z" style="fill: rgb(127, 183, 186);"/>
      <path d="m106.18 133.54c1.61-1.109 5.271-0.168 7.68-0.48-1.61 1.11-5.28 0.17-7.68 0.48z" style="fill: rgb(127, 183, 186);"/>
      <path d="m117.22 133.54c0.013-0.467 0.587-0.373 0.96-0.48 4.653 3.539 1.396 12.917-3.84 12.96-4.016 0.034-7.412-6.626-1.92-9.119 1.672-0.232 0.537 2.342 1.92 2.399 2.43-0.14 3.45-4.21 2.88-5.76z" style="fill: rgb(127, 183, 186);"/>
      <path d="m115.3 137.38c-1.332-0.108-1.358-1.522-2.4-1.92-3.282 1.558-5.906 3.604-4.32 8.16 1.251 3.594 3.864 6.747 2.881 10.08-1.704 5.769-11.413 2.601-7.681-4.32 1.531-0.411 1.484 0.756 2.4 0.96 2.35-1.777 0.03-3.319 0-5.76-0.062-5.062 2.354-10.079 5.76-10.08 0.87 0 3.41 0.17 3.36 2.88z" style="fill: rgb(127, 183, 186);"/>
      <path d="m40.417 139.3c-0.903 2.297-2.763 3.637-5.76 3.84 1.192-2.01 3.896-2.5 5.76-3.84z" style="fill: rgb(127, 183, 186);"/>
      <path d="m125.86 146.98c-0.308 2.479-2.743 6.374-6.72 6.721 1.428-2.252 4.054-3.307 4.8-6.24-0.021-1.228 0.357-0.585 0.96-0.48-0.396-2.803-3.186-3.214-2.88-6.72 2.487 3.969 2.038 1.749 6.72 0.96 0.213 0.428 0.422 0.858 0.96 0.96 0.312 1.752-0.323 2.557-0.96 3.36 0.301 1.025 2.955 0.45 3.36 0 0.369-1.81-0.586-2.295-0.48-3.84 4.532-1.799 7.276 2.554 5.28 6.239-3.67 2.04-8.16 1.27-11.04-0.96z" style="fill: rgb(127, 183, 186);"/>
      <path d="m103.78 142.66c1.029 1.37 2.381 2.419 1.92 5.279-0.678 0.882-2.331-0.752-3.359 0.48-2.604 1.945-1.1 6.359 0.479 8.16-4.688-1.53-8.076-14.61 0.96-13.92z" style="fill: rgb(127, 183, 186);"/>
      <path d="m32.257 144.1c-5.566 2.32-11.819 12.151-4.8 17.28 2.005 0.405 2.267-0.933 3.84-0.96 2.593 11.75-16.178 9.638-11.521-3.84 1.855-5.36 6.253-10.11 12.481-12.48z" style="fill: rgb(127, 183, 186);"/>
      <path d="m120.58 144.1c5.852 5.83-7.315 12.911-8.159 6.24-0.269-2.115 0.982-2.092 1.92-3.84 1.801-0.361 1.046 1.834 2.399 1.92 2.32-0.4 3.74-1.69 3.84-4.32z" style="fill: rgb(127, 183, 186);"/>
      <path d="m56.257 146.5c0.109 1.71-0.69 2.51-2.4 2.4-1.691-1.65 0.747-4.09 2.4-2.4z" style="fill: rgb(127, 183, 186);"/>
      <path d="m83.617 150.34c2.15-0.036-0.292 1.778 0.48 3.36 2.789 5.408 12.153 2.093 12.96-2.88 1.023 2.952-2.672 5.321-4.8 6.72-1.81 4.431-5.374 7.105-4.32 14.399 0.533 2.348 3.431 2.33 3.36 5.28-3.772 5.043-8.714-0.756-8.16-7.2 0.471-5.479 5.526-8.755 7.2-10.56-6.282 3.36-17.183-6.62-6.72-9.12z" style="fill: rgb(127, 183, 186);"/>
      <path d="m76.417 156.58c-1.611 0.438-0.238 0.893-0.48 2.399-3.754 0.453-5.227-3.047-3.84-6.239 0.558 0.078 0.854-0.106 0.96-0.48 6.41-0.649 4.54 6.98 9.6 7.68-2.613 1.32-4.442-2.27-6.24-3.36z" style="fill: rgb(127, 183, 186);"/>
      <path d="m112.9 153.7c2.875 0.133 4.213 1.841 4.32 3.84 0.317 5.923-10.495 6.726-13.44 1.439 0.276 9.27-3.104 19.349-12.96 15.36-1.429-2.128-1.727-5.223-0.48-7.68 5.411 5.783 14.602 0.016 12.48-9.12 3.59 4.17 11.45 2.09 10.08-3.84z" style="fill: rgb(127, 183, 186);"/>
      <path d="m95.137 158.98c-0.304 1.795-0.756 2.749 0.96 3.36 2.994-0.307 5.051-3.224 3.84-6.24-0.649 0.951-1.333 1.867-3.36 1.44-1.036-1.028-0.245-2.682 0.48-3.36 1.814 0.105 2.331 1.509 3.84 1.92 4.949 9.251-10.68 15.454-10.08 6.721 0.146-2.17 1.483-3.42 4.317-3.84z" style="fill: rgb(127, 183, 186);"/>
      <path d="m18.336 170.98c-2.125 0.046-3.297-0.862-2.88-3.359 1.067-1.111 1.872 0.163 3.36 0 1.352-0.485-0.132-2.039 0-2.88 2.416 0.73 1.601 5.86-0.48 6.24z" style="fill: rgb(127, 183, 186);"/>
      <path d="m49.057 166.18c1.999 0.768-0.983 2.412-1.92 3.36-1.307 1.323-2.885 2.148-3.36 3.36 1.277 0.035 1.426 3.65 2.88 1.92 1.396 0.417 0.54 0.718 0.48 1.92h2.88c-0.212 1.388-1.012 2.188-2.4 2.399-1.65-0.109-2.092-1.428-2.4-2.88-1.36 1.846-4.601 2.613-6.24 0.48-2.101 0.861 4.38 11.805-1.92 12.479-1.125 0.121-1.399-0.592-2.88-0.96-0.148-1.748 0.076-3.123 0.48-4.32 1.172-1.217 1.022 1.013 2.88 0.48 2.229-1.707-0.2-4.611 0-7.2 1.436-1.515 0.86-3.341 1.92-4.8 2.326-3.2 7.296-3 9.6-6.24z" style="fill: rgb(127, 183, 186);"/>
      <path d="m61.537 170.5c-2.784-3.744-9.136-1.261-9.12 3.36-6.978-6.94 7.826-11.03 9.12-3.36z" style="fill: rgb(127, 183, 186);"/>
      <path d="m30.336 168.58c2.512 0.123 3.554 2.925 2.88 4.8-4.493 2.329-6.487-3.245-9.12-2.88 1.994-1.807 3.069 1.39 5.28 0.96 1.227-0.05 0.953-1.61 0.96-2.88z" style="fill: rgb(127, 183, 186);"/>
      <path d="m21.697 169.54c3.832 3.876 5.339 16.1-1.92 16.32-4.167 0.126-7.551-6.798-0.96-8.641-0.373 1.653 0.268 2.293 1.92 1.92 3.397-1.27 1.369-6.66 0.96-9.6z" style="fill: rgb(127, 183, 186);"/>
      <path d="m50.497 176.26c0.927-1.4 2.433-0.396 3.36-0.96-0.21-1.65 0.19-2.69 0.48-3.84 2.15-1.895 6.328-0.755 7.68 0.96-4.893-0.413-4.732 4.228-8.16 5.28 0.45 3.87 3.999 4.641 6.24 6.72 0.145 1.265-0.665 1.575-1.92 1.44-4.389-1.37-6.691-4.83-7.68-9.6z" style="fill: rgb(127, 183, 186);"/>
      <path d="m25.057 171.46c6.285 6.18 4.411 29.553-7.2 20.64v-5.279c1.817-1.467 1.989 1.919 4.8 0.96 6.393-2.01 4.753-11 2.4-16.32z" style="fill: rgb(127, 183, 186);"/>
      <path d="m63.457 174.34c0.826 4.704-5.413 6.247-7.68 4.8 0.884-3.27 3.552-4.77 7.68-4.8z" style="fill: rgb(127, 183, 186);"/>
      <path d="m82.177 174.34c1.694 2.466 1.18 7.14 4.8 7.68 2.067 0.628 1.518-1.361 2.4-1.92 5.93 4.726-6.066 9.482-6.72 2.88-0.239 6.03 0.12 15.685-6.24 15.841-4.096 0.101-7.726-6.75-2.4-9.601 0.266 0.854 0.247 1.993 0.96 2.4 7.555-0.97 6.5-10.73 7.2-17.28z" style="fill: rgb(127, 183, 186);"/>
      <path d="m64.417 174.82c6.545 3.765-3.229 12.609-6.72 6.239 3.593-0.72 6.66-1.98 6.72-6.24z" style="fill: rgb(127, 183, 186);"/>
      <path d="m67.297 176.26c2.482 1.104 3.609 5.355 2.4 8.641-1.421 1.897-8.232 3.484-8.64-0.48 3.724 0.523 5.382-1.018 6.72-2.88 0.354-2.27-0.54-3.3-0.48-5.28z" style="fill: rgb(127, 183, 186);"/>
      <path d="m79.776 176.74c2.595 2.209-0.146 9.742-3.36 10.56-1.42 0.361-2.093-0.312-3.36-0.479-1.94-2.593-1.472-6.479 1.44-7.681 1.742-0.462 0.403 2.157 1.92 1.92 2.308-0.25 3.105-2.01 3.36-4.32z" style="fill: rgb(127, 183, 186);"/>
      <path d="m49.537 179.14c2.915 1.498-2.434 5.11-3.84 2.4-0.385-2.46 3.481-0.68 3.84-2.4z" style="fill: rgb(127, 183, 186);"/>
      <path d="m52.896 182.5c-0.167 3.032-3.424 2.976-5.76 3.84-0.686-1.87 2.899-5.52 5.76-3.84z" style="fill: rgb(127, 183, 186);"/>
      <path d="m54.816 184.9c-0.986 0.773-1.113 2.406-0.96 4.319-4.409 0.51-2.724-5.12 0.96-4.32z" style="fill: rgb(127, 183, 186);"/>
      <path d="m57.217 185.86c1.357 0.755-1.084 2.57 0.48 3.359-1.263 1.386-3.522-0.29-2.88-2.399 0.913-0.2 1.205-1.03 2.4-0.96z" style="fill: rgb(127, 183, 186);"/>
      <path d="m110.02 3.462c0.686-2.089-1.641-2.207-0.48-3.36 2.47-0.39 3.773 0.387 4.801 1.44-0.25 1.831-0.876 3.285-1.92 4.32-5.485 0.845-7.401-1.879-10.08-3.84 0.41-1.313 4.64 3.779 7.68 1.44z" style="fill: rgb(127, 183, 186);"/>
      <path d="m125.86 2.502c1.462 4.781-5.177 6.541-5.76 2.4 0.682 0.042 1.359 0.079 1.439-0.48 0.062-0.861-0.587-1.012-0.479-1.92-3.448-0.409-4.411 1.669-6.72 2.4 1.62-2.956 8.14-5.603 11.52-2.4z" style="fill: rgb(127, 183, 186);"/>
      <path d="m143.62 15.462c0.234-1.366 1.456-1.744 1.92-2.88-0.992-2.758-3.554-1.212-5.76-1.44-6.175-0.638-10.362-2.665-12-8.64 2.228 1.797 3.621 6.363 7.681 4.8 0.234-1.515-0.865-1.695-0.48-3.36 3.562-0.274 5.577 3.607 3.36 6.24 5.341-0.394 11.89-1.208 11.52 5.28-0.776 0.824-2.008 1.192-3.84 0.96 1.687 1.354 3.459 2.621 5.28 3.84 0.691-0.723-1.128-3.008-0.48-5.28 1.204 1.197 1.362 3.438 2.4 4.8 1.64 0.36 0.609-1.95 2.399-1.44 0.142 0.979 1.299 0.941 1.44 1.92-0.212 1.388-1.012 2.188-2.4 2.4 1.628 2.053 3.349 4.012 5.28 5.76 0.271-0.589 0.011-1.489 1.44-1.92-0.362-2.038-2.661-2.14-4.32-2.88 2.933-0.844 6.469 1.845 7.2 4.8-0.208 1.888-3.791 0.687-2.4 2.88-1.767-2.073-4.035-3.644-5.28-6.24-6.59-5.09-12.94-10.419-21.6-13.44-0.857 0.135-0.985-0.454-0.479-0.48 2.976 1.024 6.236 1.763 8.159 3.84 0.56-0.078 0.85 0.106 0.96 0.48z" style="fill: rgb(127, 183, 186);"/>
      <path d="m66.816 27.462c-0.989-0.13-0.114-2.125-1.44-1.92-1.581 3.059-3.401 5.878-7.68 6.24 1.387-2.053 7.535-4.013 2.4-5.76-1.511 1.503 0.814 1.621 0.48 3.36-1.981 1.059-3.938-0.014-5.76-0.48 0.931 2.749 3.117 4.243 3.36 7.68 2.263-0.937 2.932-3.469 4.32-5.28-0.714 3.77-5.514 7.603-6.72 12.48-1.131-0.406 0.399-2.105 0.48-2.88-3.365 2.658-0.176 3.333-1.92 6.72 8.896-19.781 25.946-35.265 48.96-38.88 4.386-0.689 12.505-0.765 17.76 0 32.343 4.709 58.425 34.742 51.84 73.92 0.728-1.192 0.927-2.914 0.96-4.8 1.457 2.274-0.912 4.834-0.479 7.68-0.562-0.078-0.405-0.875-0.48-1.44-2.551 5.868-4.432 11.804-7.68 17.28-10.188 17.174-29.874 32.967-59.04 30.72-5.151-0.396-9.45-1.966-14.88-2.88 1.64 1.08 3.903 1.536 6.239 1.92-2.783 1.014-6.293-1.379-9.12-1.92-0.386 3.433 8.085 2.15 8.64 6.24-1.685-0.556-2.759-1.721-4.8-1.92-0.179 0.942 4.129 3.708 6.24 2.399 1.479-0.64-0.895-2.134 0.479-2.88 2.304 0.097 4.062 0.738 6.24 0.96 2.495 5.731-4.169 9.375-8.641 6.721-1.379 0.8 0.525 2.31 0.96 2.88-0.115 1.237-0.825-0.659-1.92 0 4.706 6.402-4.549 15.89-10.08 9.12 0.207-1.554-0.631-4.152 0.96-4.32-0.407-0.713-1.545-0.694-2.4-0.96-4.242-8.017 7.301-7.689 11.04-4.32 0.271-4.599-13.188-7.72-13.44 0-2.913-0.112-3.402-4.169-2.4-6.72 6.221-5.168 12.229 1.963 16.8 4.32-1.812-2.988-5.287-4.313-6.72-7.681-6.665-0.627-13.125 0.564-11.52 6.721h-1.44c0.132 0.987 1.788 0.451 1.92 1.439-0.355 3.545-6.436 2.589-8.16 0.96 0.072 4.044 7.179 4.722 9.12 2.4 5.266 0.478 2.249 6.795-1.44 7.2-5.17 0.567-9.983-6.528-9.6-10.561-2.817 4.383-8.557 5.844-9.12 12.48 3.631 0.75 2.391-3.369 5.28-3.36 2.188 0.245-0.305 2.192 0.96 3.36 2.798 0.398 2.452-2.349 2.4-4.8-0.393-1.527-3.17-0.671-2.88-2.881 1.468 0.349 1.412-0.828 2.88-0.479 0.164 2.876 2.009 4.07 4.32 4.8-0.115 1.325-1.785 1.096-2.4 1.92 0.709 1.851 0.953 4.167 1.44 6.24 1.491-0.29 2.025 3.02 3.36 4.32 0.386-0.254 0.779-0.501 1.44-0.48 0.978-0.673-0.472-1.653 0.48-2.88 3.476-0.365 5.952 3.152 11.04 1.44-2.349 1.659-6.733 4.154-10.08 1.92-0.997 0.123-0.131 2.108-0.96 2.399h-1.92c-2.231-0.329-2.496-2.624-2.88-4.8-0.918 2.282-0.959 5.441-1.92 7.68 2.388 0.469 0.306-3.533 2.4-3.359 0.718 3.217-3.396 8.477 1.44 8.64 0.656-2.096-1.859-1.021-1.44-2.88 2.252-4.147 7.45-5.35 12.48-6.72-1.909 2.571-6.522 2.438-6.72 6.72 0.445 2.184 3.006-0.245 3.84 0.96 0.139 2.06-0.668 3.172-1.44 4.32-2.397-1.297-4.499 2.529-6.72 2.399-2.662-0.154-4.536-2.237-4.32-6.72-0.892-0.859-2.251 1.886-2.88 2.88-2.129 0.049-2.595-1.565-2.88-3.36 5.037-0.953 6.747-5.894 6.72-10.56-1.699 3.09-1.91 7.75-5.28 8.16-6.29 0.766-6.765-10.215 0.96-7.68 0.656 2.096-1.858 1.021-1.44 2.88 4.343-0.587 5.474-6.508 4.8-10.561-0.409 2.261-3.308 6.235-5.76 3.36-1.71 2.603-5.066 5.053-9.6 3.359 0.24 2.32 2.936 2.185 4.8 2.881-0.271 3.678-2.919 2.129-5.76 2.88-3.09-3.163 1.8-7.002-0.48-9.601-0.606 4.675-1.667 8.893-5.28 10.561-2.671 0.431-3.431-1.05-4.8-1.92 1.354 3.419-1.763 6.219-3.84 6.239-6.181 0.063-4.601-9.869-2.4-14.88-1.131-0.786-2.165 2.617-3.84 2.88-6.792 1.203-7.13-8.239-2.4-9.6 2.1 0.014-0.54 2.026 1.44 2.4 4.567-0.191 2.91-7.809 0.96-9.601 5.737 2.85 2.733 15.778 5.28 23.04 2.101-0.163 2.858-3.37 4.8-0.96-0.772-1.544-0.397-3.182 0.48-4.32 6.111 1.799 8.723-2.354 9.12-7.68 1.97-0.22-0.195 1.025 0.48 2.4 2.23-8.01 12.663-7.818 15.36-15.36 0.817-0.177 0.906 0.374 0.96 0.96 1.191-1.85-0.386-6.466 2.4-6.72 0.632 2.888 1.796 5.243 4.32 6.24 0.405-0.593-2.374-2.085-2.88-3.36-1.903-8.761 9.485-8.1 14.4-5.76-0.275-3.369-4.047-4.045-6.24-5.28-6.795-3.827-12.629-9.009-17.76-14.88 1.544 3.848 5.08 7.888 3.36 13.439 2.348 0.268 1.146-3.014 1.44-4.8 9.246-0.625 8.583 15.095-1.92 12.48 0.789 1.538 1.605 1.225 3.36 0.96-0.474 5.602-4.891 13.058-11.04 12.96-6.976-0.11-8.055-8.81-2.4-12.96-1.553-1.167-2.967-2.473-3.36-4.8 0.744-0.536 1-1.561 2.4-1.44-2.668-0.262-7.992-0.782-6.72-4.8-1.231 1.166-2.447 3.268-1.44 5.28 2.089 0.685 2.207-1.641 3.36-0.48 3.479 8.344-10.894 12.194-9.6 1.44 0.439-3.652 4.458-5.151 4.8-8.16-4.669 0.577-12.959 6.39-9.6 13.439 2.434 0.708 2.97-2.069 4.32-0.96 0.56 2.562 0.224 3.957-0.48 6.24-1.866 0.693-3.26 1.859-6.24 1.44-1.601-0.96-2.481-2.64-3.84-3.841-1.069 1.491-1.595 3.525-3.36 4.32-1.515 0.235-1.695-0.865-3.36-0.479-5.645-10.195 5.788-17.168 13.92-19.681-4.822 3.178-10.587 5.413-11.04 12.96 0.317 1.764 2.981 1.179 3.84 2.4-0.66-8.349 3.449-12.06 9.12-14.88 0.308-0.153 1.082-0.23 1.44-0.48 0.751-0.523 1.431-1.168 3.36-1.92 1.8-0.701 2.935-0.945 3.84-3.84-3.152-1.197-6.436-9.395-0.48-10.08-0.258 1.698 0.407 2.473 1.44 2.88 5.045-0.845 6.7-6.651 6.24-11.52 1.51 1.53 1.85 4.229 3.36 5.76-0.269 1.391-0.749-0.736-1.44-0.479 1.208 6.519-0.192 14.068-7.68 13.439-0.259 1.858 1.223 1.977 1.44 3.36 2.325-1.836 5.269-3.052 5.76-6.721 1.449 3.22-2.625 5.048-3.84 7.2 6.527 0.717 7.376-9.428 5.76-15.84 8.272 11.247 17.486 21.554 32.16 26.4-23.704-11.347-42.272-30.354-38.88-67.2-0.654-0.516-0.841 1.63-2.88 0.48 0.311-2.871-1.265-3.855-1.92-5.76 1.014 7.163-3.214 18.014-11.04 17.76-3.243-0.105-7.811-3.64-5.76-9.6-2.201 0.245-3.539 4.154-7.2 3.84-4.677-0.402-5.704-6.998 0.48-7.68 0.728 1.032 0.816 2.703 1.92 3.36 4.034 0.389 4.033-3.273 5.76-5.76 0.368-0.529 1.273-0.234 1.92-0.96 1.459-1.636 2.421-4.735 3.84-5.76 1.917-1.384 3.486-1.406 7.2-1.44-1.613-1.428-3.52-2.561-6.24-2.88-1.965 0.494-1.311 2.542-0.96 4.32-6.025 2.677-10.107-4.409-5.76-8.16 6.059-1.959 12.355 1.312 13.92 6.72h5.76c-2.766-0.435-4.81-1.59-6.72-2.88 0.078-1.519-1.276-1.604-0.96-3.36-4.234-2.824-7.453-13.078-3.36-18.72 3.213-4.429 11.994-2.628 9.6 5.28-7.329-4.232-10.877 6.766-6.72 11.52 1.124-0.156 0.466-2.094 1.44-2.4 1.741 0.019 1.542 1.977 2.88 2.4 6.558 0.292 9.522-3.567 9.12-9.6-0.289-4.332-3.297-7.183-0.96-10.08 2.494-3.092 7.491-0.343 10.08 1.92 2.191-3.089 1.353-9.208 3.84-12 1.438-0.801 3.858-0.622 4.8-1.92 3.595-0.312 7.72 2.917 9.6 0 0.378-1.978-2.298-0.901-1.92-2.88 3.034-4.573 9.072 0.584 5.76 4.32-2.713 3.062-9.343 0.792-12.48-0.48 1.308 1.638 2.115 7.603-1.44 9.12-1.843 0.243-0.317-2.883-1.92-2.88-3.104 0.735-3.042 4.638-3.84 7.68 2.003-0.237 4.385-2.466 6.72-4.32 5.631-4.47 15.02-10.49 22.08-11.04-11.682 3.842-21.64 9.404-28.803 17.762zm23.52-14.4c-19.077 7.058-36.519 26.982-38.88 50.88-2.055 20.803 6.359 38.715 16.32 48.96 17.826 18.333 49.822 24.149 73.44 11.039 19.871-11.03 36.355-35.086 30.24-66.239-2.156-10.981-7.481-21.271-12-26.88-10.64-13.205-28.952-23.642-53.28-21.12-6.08 0.631-11.584 1.785-15.844 3.361zm-39.359 37.44c-1.694 0.066-2.146 1.374-3.84 1.44 2.024 1.815 0.768 6.912 2.88 8.64 0.223-4.737 1.604-8.317 2.88-12-1.812 0.085-2.71 0.337-1.92 1.92zm0.48 9.12c-0.016-3.863 2.258-7.974 1.92-10.56-0.715 3.131-3.235 6.997-1.92 10.56zm-21.121 2.88c1.045-2.445 1.671 1.166 1.92 2.4 6.856 4.398 14.102-2.442 11.52-10.56-0.142-1.262 1.862-0.378 1.44-1.92-3.562 0.438-7.562 0.438-7.2 4.8 2.38 0.62 2.358-1.162 4.32-0.96 2.824 6.55-6.451 10.628-9.6 5.76-0.37-1.229-0.479-2.721-1.439-3.36 0.048 1.36-1.903 3.174-0.961 3.84zm47.04 111.36c1.559-1.455-2.98-3.882-3.36-1.921 2.345-0.58 2.748 0.78 3.36 1.92zm-17.279-63.36c0.115-0.736 0.791-0.07 0.96 0.479 1.869 2.81 1.288 8.271 3.36 10.08 0.208-8.183-2.562-11.338-5.28-15.84-0.029 2.11 0.193 3.97 0.96 5.28zm-2.88 13.92c0.908 1.012 2.359 1.48 3.84 1.92-2.138-3.638 0.705-11.738-0.96-13.92 0.463 5.42-1.264 8.66-2.88 12zm-8.16-3.84c1.091 0.085 2.797-1.621 1.92-1.92-0.541 0.74-1.379 1.18-1.92 1.92zm7.2 12c0.598 5.919 8.147 2.337 8.16-1.92-0.614-0.026-0.665-0.615-1.44-0.48-0.772 2.27-3.563 2.52-6.72 2.4zm31.2 15.36c1.357 0.397 1.244-0.676 2.4-0.479 0.412-1.531-0.755-1.484-0.96-2.4 1.004-0.276 1.37-1.189 2.88-0.96 0.163 1.488-1.111 2.294 0 3.36 2.653 0.732 1.71-2.131 3.84-1.92 0.055-2.897-5.637-3.103-7.2-1.44-0.685 2.09 1.641 2.207 0.48 3.36-0.565 0.08-1.363-0.08-1.44 0.48z" style="fill: rgb(127, 183, 186);"/>
      <path d="m23.137 126.34c0.093 3.793-9.491 10.419-12 3.36 0.863-2.177 2.292-3.788 5.28-3.84-0.288 1.778-0.79 2.782 0.48 3.84 3.174-0.02 4.998-1.4 6.24-3.36z" style="fill: rgb(127, 183, 186);"/>
      <path d="m154.18 117.22h2.88c6.086 5.988-4.734 12.026-11.04 8.641 2.996-1.005 8.184 0.184 8.64-3.36 0.045-1.484-1.449-1.431-2.88-1.44-0.074-1.193 0.754-1.485 0.96-2.399-0.821-0.021-1.243 0.356-1.439 0.96-0.878-0.299 0.829-2.006 1.92-1.92 8.473-8.327 15.359-18.24 19.2-31.2-2.28 12.126-10.17 22.8-18.24 30.72z" style="fill: rgb(127, 183, 186);"/>
      <path d="m164.26 34.662c0.63 0.169 0.755 0.845 1.439 0.96-0.92-1.16-0.303-3.857-0.479-5.76 1.313 0.766 0.536 3.624 1.439 4.8 1.469 0.348 1.412-0.828 2.88-0.48 0.65 1.417 0.602 2.972-0.479 3.84-1.461 0.021-1.866-1.014-2.88-1.44-0.296 2.056 1.562 1.957 1.439 3.84-1.39-1.653-2.84-3.242-3.36-5.76z" style="fill: rgb(127, 183, 186);"/>
      <path d="m77.856 23.622c6.065-4.486 14.032-8.709 21.601-10.56 20.326-4.972 41.929 3.049 53.76 14.88 11.501 11.501 21.545 34.453 15.84 56.64-2.511 9.764-8.64 20.008-14.88 26.399-9.767 10.005-24.903 19.015-45.601 17.761-31.587-1.915-56.719-28.456-54.72-61.44 1.108-18.329 9.947-33.288 23.996-43.678zm-21.599 31.68c-8.746 32.986 13.019 62.982 38.88 70.561 7.579 2.22 15.88 2.665 23.52 1.92 26.734-2.609 48.764-25.779 50.88-52.32 1.585-19.863-5.833-34.38-14.88-44.64-9.761-11.069-29.269-21.569-51.84-17.76-17.866 3.015-31.878 14.5-39.84 26.88-2.895 4.498-5.704 11.515-6.723 15.362z" style="fill: rgb(127, 183, 186);"/>
      <path d="m57.217 15.942c-1.594 0.327-0.538 3.302-1.92 3.84-6.309 1.375-6.832-6.212-1.92-7.2 5.546-1.115 9.012 5.528 10.56 8.16-1.816-0.114-2.424-5.57-6.72-4.8z" style="fill: rgb(127, 183, 186);"/>
      <path d="m26.977 50.022c-4.941 1.868-8.105-1.879-8.16-4.8-0.138-7.341 14.688-8.55 17.76-3.84-5.506-4.302-14.618 2.484-9.6 8.64z" style="fill: rgb(127, 183, 186);"/>
      <path d="m3.937 72.582c2.433 1.087 5.254 1.785 7.68 2.88-0.373 0.427-0.516 1.084-0.48 1.92-2.832-0.368-5.468-0.933-7.2-2.4 0.022 1.808-4.01 4.112-3.84 0.48 2.644 0.404 3.987-0.493 3.84-2.88z" style="fill: rgb(127, 183, 186);"/>
      <path d="m35.137 75.942c0.523 2.177-1.531 3.545-0.48 5.76 1.619 3.411 6.723 2.992 9.6 0.479-0.415 0.343-2.475 4.73-5.28 5.76-5.691 2.089-13.079-1.53-10.56-9.12 1.914-1.285 3.24-3.158 6.72-2.879z" style="fill: rgb(127, 183, 186);"/>
      <path d="m149.86 120.1c0.939 0.145-4.859 3.764-1.439 0.96 0.46-0.38 0.88-0.69 1.44-0.96z" style="fill: rgb(127, 183, 186);"/>
      <path d="m140.26 126.34c-0.352 0.448-0.873 0.728-1.44 0.96-1.21-0.2 0.8-1.03 1.44-0.96z" style="fill: rgb(127, 183, 186);"/>
      <path d="m137.86 127.3c-1.174 1.227-2.778 2.021-4.8 2.4 1.32-1.07 2.93-1.87 4.8-2.4z" style="fill: rgb(127, 183, 186);"/>
      <path d="m132.58 129.7c-0.406 0.713-1.545 0.694-2.399 0.96-1.1-0.37 1.49-1.01 2.4-0.96z" style="fill: rgb(127, 183, 186);"/>
      <path d="m143.62 139.3c-1.051 1.35-1.915 2.885-4.319 2.88-0.011-1.131 0.826-1.413 0.479-2.88-0.854-0.613-4.479-0.925-5.279 0 0.23-2.19 8.25-4.66 9.12 0z" style="fill: rgb(127, 183, 186);"/>
      <path d="m31.297 140.26c-1.658-3.66 2.281 3.04 0 0z" style="fill: rgb(127, 183, 186);"/>
      <path d="m105.22 163.78c3.087 1.174 5.491 17.352-2.88 14.399-0.741-1.656-1.495-4.22-0.48-6.24 1.665-0.385 1.846 0.716 3.36 0.48 0.57-2 0.96-6.7 0-8.64z" style="fill: rgb(127, 183, 186);"/>
      <path d="m82.177 166.66c0.502 0.073-0.226 2.937-1.44 2.88-0.418-1.86 1.172-1.71 1.44-2.88z" style="fill: rgb(127, 183, 186);"/>
      <path d="m100.9 180.1c1.889-0.769 0.167 2.073 1.44 1.92 7.682 0.768 9.665-8.964 6.72-14.399 0.654-1.467 1.72 1.637 1.92 2.399 2.235 8.533-2.464 22.457-11.04 15.841-0.461-1.95-1.046-5.05 0.96-5.76z" style="fill: rgb(127, 183, 186);"/>
      <path d="m36.097 190.66c1.088-0.532-2.592 1.671-2.88 2.88-0.747 1.706 1.63 0.29 1.44 1.439 0.061 0.861-0.588 1.013-0.48 1.921-1.833 0.231-3.064-0.137-3.84-0.961-0.409-4.09 3.044-4.31 5.76-5.28z" style="fill: rgb(127, 183, 186);"/>
      <path d="m46.657 142.18c0.516 1.244 1.735 1.785 1.92 3.36 1.635 0.355 0.791-1.769 1.92-1.92 1.457-0.177 0.997 1.563 1.44 2.399-0.271 1.169-0.411 2.47-1.92 2.4 4.615 11.273-15.119 13.515-12.48 2.4 1.693 0.387 1.631 2.528 3.84 2.399 1.808 0.208 2.186-1.014 2.88-1.92-6.48 3.627-8.33-10.125-1.92-11.04-0.125-2.114-1.655-2.824-1.44-5.28 1.742 1.139 1.654 4.106 3.36 5.28 0.391-4.209 8.365-4.667 7.2-12 2.656 5.18-0.661 12.37-4.8 13.92zm-1.44 4.8c0.134-1.094-0.116-1.804-0.96-1.92 0.109 0.85-0.484 2.41 0.96 1.92z" style="fill: rgb(127, 183, 186);"/>
    </g>
  </g>
</svg>