<svg class="shirtOverlay" width="86" height="380" viewBox="202.715 584.407 86.593 380.048" xmlns="http://www.w3.org/2000/svg"><path d="M252.49 688.708c-3.079 0-5.747 1.809-7.046 4.443-1.327-2.545-3.941-4.277-6.954-4.277-4.353 0-7.883 3.615-7.883 8.07 0 1.726.528 3.326 1.432 4.638l-.04.023 13.625 16.031 13.521-17.094c.776-1.249 1.226-2.174 1.226-3.764 0-4.454-3.53-8.07-7.881-8.07zm-16.985 8.112h1.14v2.602h2.852l-.738.907h-3.254v-3.509zm6.382 0h1.108c.651 0 1.186.162 1.601.48.414.318.624.732.624 1.244s-.213.938-.634 1.276c-.422.339-.951.509-1.591.509h-1.108c-.644 0-1.175-.17-1.597-.509-.42-.338-.634-.764-.634-1.276s.213-.926.629-1.244c.417-.318.952-.48 1.602-.48zm3.403 0h1.421l1.646 2.169 1.657-2.169h1.428l-2.48 3.167c-.204.261-.413.394-.623.394-.211 0-.421-.133-.625-.398l-2.424-3.163zm6.236 0h4.001l-.738.911h-2.121v.371h2.68l-.733.902h-1.947v.418h2.859l-.738.907h-3.263v-3.509zm-9.639.911c-.317 0-.578.083-.783.243a.745.745 0 0 0-.305.613c0 .249.101.453.305.607.205.154.466.228.783.228h1.108c.315 0 .579-.074.784-.228a.723.723 0 0 0 .302-.607.74.74 0 0 0-.308-.613c-.207-.16-.466-.243-.778-.243h-1.108z" stroke-linejoin="round" fill="#e73207" stroke="rgba(0,0,0,.98)" stroke-width=".6"/></svg>