<?xml version="1.0" encoding="utf-8"?>
<svg id="woman" width="86" height="380" viewBox="202.715 584.407 86.5933 380.048" preserveAspectRatio="xMidYMid meet" xmlns="http://www.w3.org/2000/svg">
  <defs id="svgEditorDefs">
    <path id="svgEditorClosePathDefs" class="lines" fill="black" style="stroke-width: 0px; stroke: none;"/>
  </defs>
  <path id="path3567" style="stroke-linejoin: round; fill: rgb(231, 50, 7); stroke: rgba(0, 0, 0, 0.98); stroke-width: 0.6;" d="M 252.49 688.708 C 249.411 688.708 246.743 690.517 245.444 693.151 C 244.117 690.606 241.503 688.874 238.49 688.874 C 234.137 688.874 230.607 692.489 230.607 696.944 C 230.607 698.67 231.135 700.27 232.039 701.582 L 231.999 701.605 L 245.624 717.636 L 259.145 700.542 C 259.921 699.293 260.371 698.368 260.371 696.778 C 260.371 692.324 256.841 688.708 252.49 688.708 Z M 235.505 696.82 L 236.645 696.82 L 236.645 699.422 L 239.497 699.422 L 238.759 700.329 L 235.505 700.329 L 235.505 696.82 Z M 241.887 696.82 L 242.995 696.82 C 243.646 696.82 244.181 696.982 244.596 697.3 C 245.01 697.618 245.22 698.032 245.22 698.544 C 245.22 699.056 245.007 699.482 244.586 699.82 C 244.164 700.159 243.635 700.329 242.995 700.329 L 241.887 700.329 C 241.243 700.329 240.712 700.159 240.29 699.82 C 239.87 699.482 239.656 699.056 239.656 698.544 C 239.656 698.032 239.869 697.618 240.285 697.3 C 240.702 696.982 241.237 696.82 241.887 696.82 Z M 245.29 696.82 L 246.711 696.82 L 248.357 698.989 L 250.014 696.82 L 251.442 696.82 L 248.962 699.987 C 248.758 700.248 248.549 700.381 248.339 700.381 C 248.128 700.381 247.918 700.248 247.714 699.983 L 245.29 696.82 Z M 251.526 696.82 L 255.527 696.82 L 254.789 697.731 L 252.668 697.731 L 252.668 698.102 L 255.348 698.102 L 254.615 699.004 L 252.668 699.004 L 252.668 699.422 L 255.527 699.422 L 254.789 700.329 L 251.526 700.329 L 251.526 696.82 Z M 241.887 697.731 C 241.57 697.731 241.309 697.814 241.104 697.974 C 240.9 698.134 240.799 698.338 240.799 698.587 C 240.799 698.836 240.9 699.04 241.104 699.194 C 241.309 699.348 241.57 699.422 241.887 699.422 L 242.995 699.422 C 243.31 699.422 243.574 699.348 243.779 699.194 C 243.983 699.04 244.081 698.836 244.081 698.587 C 244.081 698.338 243.98 698.134 243.773 697.974 C 243.566 697.814 243.307 697.731 242.995 697.731 L 241.887 697.731 Z"/>
</svg>