<svg class="shirtOverlay" width="86" height="380" viewBox="202.715 584.407 86.593 380.048" xmlns="http://www.w3.org/2000/svg"><g fill="#66f841"><path d="M232.106 689.363c.73.728 1.357 1.651 2.013 2.518.531.6.814 1.593 1.33 2.204.311.44.208.316.501.016.785-.902 1.403-2.075 2.082-3.148.742-1.164 1.485-2.306 2.165-3.556 1.28-1.748 1.877.939 2.198 2.404.407 2.266.444 4.632.485 6.966.036 2.576.054 5.148-.074 7.717 0 .018-.096 1.214-.066 1.404.007.048.053-.056.082-.076.04-.024.08-.036.12-.054.743.579.209 2.189-.533 1.61-.196-.204-.437-.334-.589-.61-.396-.716-.235-1.595-.187-2.414.126-2.506.071-7.528.071-7.528s-.066-4.348-.427-6.45c-.15-.709-.139-.738-.334-1.375-.038-.121-.16-.232-.124-.356.03-.106.154.035.225 0 .07-.034.123-.124.177-.2.036-.05-.082.081-.122.121-.7 1.284-1.46 2.46-2.224 3.657-.752 1.183-1.434 2.489-2.324 3.442-.639.549-1.296.701-1.856-.183-.502-.668-.854-1.538-1.346-2.225-.643-.854-2.122 15.488-2.84 14.772-.65-.797.947-19.453 1.597-18.656zM246.61 697.021c-.623.865-1.095 1.897-1.383 3.103-.052.413-.336 1.532.002 1.844.31.133.633-.138.935-.27.577-.282 1.093-.645 1.504-1.34.305-.72.492-1.542.616-2.376a4.212 4.212 0 0 0-.11-2c-.192-.387-.562-.398-.853-.452-.632-.136-1.23.023-1.826.338-.092.085-.262.171-.265.374-.45 1.072-1.44.094-.988-.98.238-.495.48-.889.873-1.104.766-.397 1.546-.587 2.356-.418.728.149 1.414.446 1.782 1.519a7.078 7.078 0 0 1 .178 3.133c-.178 1.143-.44 2.272-.91 3.211-.574.9-1.247 1.476-2.035 1.832-.801.351-1.574.638-2.214-.417-.477-1.174-.417-2.242-.146-3.53.36-1.439.904-2.704 1.653-3.744.589-.901 1.421.374.831 1.277zM253.827 696.563v4.986c-.204-.563.124 1.109 0 .884-.08-.146-.001-.463-.113-.542-.882-.625-.939.508-.696-.809.257-1.255.49-2.522.97-3.62.38-.85.92-1.468 1.544-1.818.98-.183 1.368 1.034 1.623 2.263.179.948.195 1.933.255 2.906-.369-.134-.776-.12-1.106-.402-.091-.078.926-2.819 1-3.008.49-1.4.716-2.451 1.717-3.143 1.207-.365 1.805 1.263 2.208 2.726.31 1.393.386 2.863.425 4.322.034.529-.029 1.049-.045 1.575-.042 1.274-1.217 1.184-1.174-.091.015-.474.07-.937.043-1.414-.033-1.246-.089-2.503-.336-3.7-.138-.53-.364-1.432-.68-1.745-.674.278-.783 1.633-1.147 2.393-.292.75-.577 1.506-.805 2.309-.027.094-.012.266-.077.283-.392.106-.797.042-1.195.063-.05-.851-.063-1.71-.207-2.541-.036-.19-.095-.528-.155-.72-.026-.08-.077-.142-.094-.227-.006-.03.16-.036.093-.123-.355.016-.719.749-.922 1.126-.439.894-.552 2.062-.805 3.09-.024.123-.21 1.179-.302 1.248-1.198.906-1.197-.06-1.197-1.285v-4.986c0-1.277 1.178-1.277 1.178 0z" opacity=".948"/></g></svg>