<?xml version="1.0" encoding="utf-8"?>
<svg id="woman" width="86" height="380" viewBox="202.715 584.407 86.5933 380.048" preserveAspectRatio="xMidYMid meet" xmlns="http://www.w3.org/2000/svg">
  <defs id="svgEditorDefs">
    <path id="svgEditorClosePathDefs" class="lines" fill="black" style="stroke-width: 0px; stroke: none;"/>
  </defs>
  <g transform="matrix(0.828497, 0, 0, 1.081204, -14.87739, -77.048439)">
    <path style="opacity: 0.948498; fill-opacity: 1; fill-rule: nonzero; stroke-width: 0; stroke-linecap: round; stroke-linejoin: round; stroke-miterlimit: 4; stroke-dasharray: none; stroke-dashoffset: 0; stroke: rgb(0, 0, 0); fill: rgb(102, 248, 65);" id="path3267" d="M 298.11 708.85 C 298.992 709.523 299.748 710.377 300.54 711.179 C 301.181 711.734 301.522 712.652 302.145 713.217 C 302.521 713.625 302.396 713.51 302.75 713.232 C 303.697 712.398 304.443 711.313 305.263 710.321 C 306.159 709.244 307.055 708.188 307.876 707.032 C 309.421 705.415 310.142 707.9 310.529 709.255 C 311.02 711.351 311.065 713.539 311.115 715.698 C 311.158 718.08 311.18 720.459 311.025 722.835 C 311.024 722.852 310.909 723.958 310.945 724.134 C 310.954 724.178 311.009 724.082 311.044 724.064 C 311.092 724.041 311.142 724.03 311.19 724.014 C 312.086 724.549 311.441 726.038 310.546 725.502 L 310.546 725.502 C 310.309 725.314 310.018 725.194 309.835 724.938 C 309.357 724.276 309.551 723.463 309.609 722.706 C 309.761 720.388 309.695 715.743 309.695 715.743 C 309.695 715.743 309.615 711.722 309.18 709.778 C 308.999 709.122 309.012 709.095 308.776 708.506 C 308.731 708.394 308.584 708.291 308.627 708.177 C 308.663 708.079 308.813 708.209 308.898 708.176 C 308.982 708.145 309.047 708.062 309.112 707.992 C 309.155 707.946 309.013 708.067 308.965 708.104 C 308.12 709.291 307.202 710.379 306.28 711.486 C 305.373 712.58 304.55 713.788 303.475 714.669 C 302.704 715.177 301.911 715.318 301.235 714.5 C 300.629 713.882 300.204 713.078 299.61 712.442 C 298.834 711.652 297.049 726.767 296.183 726.105 C 295.399 725.368 297.326 708.113 298.11 708.85 Z"/>
    <path style="opacity: 0.948498; fill-opacity: 1; fill-rule: nonzero; stroke-width: 0; stroke-linecap: round; stroke-linejoin: round; stroke-miterlimit: 4; stroke-dasharray: none; stroke-dashoffset: 0; stroke: rgb(0, 0, 0); fill: rgb(102, 248, 65);" id="path3269" d="M 315.617 715.933 C 314.865 716.733 314.295 717.687 313.947 718.803 C 313.884 719.185 313.542 720.22 313.95 720.508 C 314.323 720.631 314.714 720.381 315.078 720.259 C 315.775 719.998 316.398 719.662 316.894 719.019 C 317.262 718.354 317.488 717.593 317.637 716.822 C 317.792 716.154 317.736 715.585 317.505 714.971 C 317.272 714.614 316.826 714.604 316.475 714.554 C 315.712 714.428 314.989 714.575 314.271 714.866 C 314.16 714.945 313.954 715.025 313.951 715.212 C 313.407 716.204 312.212 715.299 312.758 714.306 L 312.758 714.306 C 313.046 713.848 313.338 713.484 313.812 713.285 C 314.737 712.918 315.678 712.742 316.656 712.898 C 317.534 713.036 318.362 713.311 318.807 714.303 C 319.154 715.249 319.237 716.191 319.021 717.201 C 318.807 718.258 318.49 719.302 317.923 720.171 C 317.23 721.003 316.418 721.536 315.467 721.865 C 314.5 722.19 313.567 722.455 312.794 721.479 C 312.219 720.394 312.291 719.406 312.618 718.215 C 313.052 716.884 313.709 715.714 314.613 714.752 C 315.324 713.918 316.329 715.098 315.617 715.933 Z"/>
    <path style="opacity: 0.948498; fill-opacity: 1; fill-rule: nonzero; stroke-width: 0; stroke-linecap: round; stroke-linejoin: round; stroke-miterlimit: 4; stroke-dasharray: none; stroke-dashoffset: 0; stroke: rgb(0, 0, 0); fill: rgb(102, 248, 65);" id="path3271" d="M 324.327 715.509 C 324.327 717.046 324.327 718.583 324.327 720.121 C 324.081 719.6 324.477 721.146 324.327 720.938 C 324.231 720.803 324.326 720.51 324.191 720.437 C 323.127 719.859 323.058 720.907 323.351 719.689 C 323.661 718.528 323.943 717.356 324.523 716.34 C 324.98 715.554 325.633 714.983 326.385 714.659 C 327.569 714.49 328.037 715.616 328.344 716.752 C 328.56 717.629 328.58 718.54 328.652 719.44 C 328.207 719.316 327.716 719.329 327.317 719.068 C 327.207 718.996 328.435 716.461 328.524 716.286 C 329.115 714.991 329.388 714.019 330.597 713.379 C 332.054 713.042 332.775 714.547 333.262 715.9 C 333.637 717.189 333.728 718.548 333.775 719.898 C 333.816 720.387 333.74 720.868 333.721 721.355 C 333.67 722.533 332.252 722.45 332.303 721.27 L 332.303 721.27 C 332.322 720.832 332.387 720.404 332.355 719.963 C 332.316 718.81 332.248 717.648 331.95 716.54 C 331.783 716.05 331.511 715.216 331.128 714.927 C 330.315 715.184 330.184 716.437 329.744 717.14 C 329.392 717.834 329.048 718.533 328.773 719.275 C 328.74 719.362 328.759 719.521 328.68 719.537 C 328.207 719.635 327.718 719.576 327.238 719.595 C 327.177 718.808 327.162 718.013 326.988 717.245 C 326.944 717.07 326.873 716.757 326.801 716.579 C 326.769 716.505 326.708 716.448 326.687 716.369 C 326.68 716.341 326.88 716.336 326.799 716.256 C 326.371 716.27 325.932 716.948 325.687 717.297 C 325.157 718.124 325.02 719.204 324.715 720.155 C 324.686 720.269 324.462 721.245 324.351 721.309 C 322.905 722.147 322.906 721.253 322.906 720.121 C 322.906 718.583 322.906 717.046 322.906 715.509 C 322.906 714.328 324.327 714.328 324.327 715.509 Z"/>
  </g>
</svg>