<svg class="shirtOverlay" width="86" height="380" viewBox="202.715 584.407 86.593 380.048" preserveAspectRatio="xMidYMax" xmlns="http://www.w3.org/2000/svg"><defs><radialGradient id="a" gradientUnits="userSpaceOnUse" cy="48.245" cx="75.284" gradientTransform="matrix(1.0357 0 0 1.0361 -24.689 -25.482)" r="38.95"><stop offset="0" stop-color="#fff"/><stop offset="1" stop-color="#ffc613"/></radialGradient></defs><path class="clothes" fill="none" d="M202.715 584.431h86.593V700.24h-86.593z"/><path d="M232.743 676.441c3.659-1.234 9.738.194 11.048 3.007 1.955 2.21 3.412 8.39 1.744 12.024.659-10.194-5.403-15.6-12.792-15.03zM260.04 677.365c-3.489-1.195-8.67.77-10.534 2.911-1.865 2.141-3.254 8.125-1.664 11.644-.628-9.871 5.152-15.106 12.198-14.555z" class="clothes" stroke-width="0"/><path class="clothes" fill="none" d="M-403.988 499.579h1300v550h-1300z"/><g stroke="#000" stroke-width="2.5"><path d="M108.88 50.588c0 27.235-22.111 49.342-49.363 49.342-27.247 0-49.36-22.107-49.36-49.342 0-27.234 22.113-49.338 49.36-49.338 27.252 0 49.363 22.104 49.363 49.338z" stroke-linejoin="round" fill-rule="evenodd" fill="url(#a)" transform="translate(223.29 670.447) scale(.39478)"/><path d="M234.601 683.223l8.048 4.523-8.9 1.429M258.974 683.223l-8.048 4.523 8.9 1.429" fill="none" stroke-width=".98695"/><path d="M223.784 696.406c6.518-.246 10.712.71 17.552-2.982s9.273-2.495 6.843 4.838c-2.43 7.334-11.112 12.983-17.31 18.632-.075-2.456.81-5.427-.227-7.369s-3.439-1.814-5.158-2.72c.7-1.871 1.33-2.69 2.098-5.612.767-2.924-3.127-2.388-3.798-4.787z" fill="#fff" stroke-width=".98695"/><path d="M230.583 700.187c3.223-1.97 6.607-.495 9.43-2.065M231.698 706.575c4.126-.558 6.97-2.64 9.973-5.28M249.136 704.048c.801-3.342 2.886-5.32 6.735-5.212" fill="none" stroke-width=".98695"/></g></svg>