<svg class="shirtOverlay" width="86" height="380" viewBox="202.715 584.407 86.593 380.048" preserveAspectRatio="xMidYMax" xmlns="http://www.w3.org/2000/svg"><path class="clothes" fill="none" d="M202.715 584.431h86.593V700.24h-86.593z"/><path d="M232.743 676.441c3.659-1.234 9.738.194 11.048 3.007 1.955 2.21 3.412 8.39 1.744 12.024.659-10.194-5.403-15.6-12.792-15.03zM260.04 677.365c-3.489-1.195-8.67.77-10.534 2.911-1.865 2.141-3.254 8.125-1.664 11.644-.628-9.871 5.152-15.106 12.198-14.555z" class="clothes" stroke-width="0"/><path class="clothes" fill="none" d="M-403.988 499.579h1300v550h-1300z"/><g transform="matrix(.9337 0 0 .9337 247.267 693.116)"><circle transform="translate(.855 -6.41)" r="19" stroke="#000" stroke-width="2" fill="#efff00"/><circle cy="-5" transform="translate(1.567 -9.4)" cx="6" r="2"/><circle cy="-5" transform="translate(1.994 -9.4)" cx="-6" r="2"/><path d="M13.304 4.901a11.31 11.31 0 1 0-22.62 0" stroke="#000" stroke-width="3" fill="none"/><g stroke-linejoin="round" stroke="#000" stroke-width="2"><path d="M-10.661-.311a3 3 0 0 0 .314-5.992l.6.031a2.9 2.9 0 0 0 .303-5.792l-.889-.246a2.7 2.7 0 0 0 .283-5.393l-1.692-.189a2.3 2.3 0 0 0 .24-4.594l-8.341-1.338a3.4 3.4 0 0 0-2.758 4.862 4 4 0 0 0-.814 5.966 4 4 0 0 0 .086 6.013 4 4 0 0 0 1.683 6.096zm-9.387-.492l2.786 4.151.343 3.022a3.5 7 3 1 0 5.544-.71l.814-5.966z" fill="#efff00"/><path d="M-10.347-6.303l-6.99-.366m7.004-5.641l-6.291-.33m4.882-5.252l-4.684-.446" stroke-linecap="round" fill="none"/></g></g></svg>