<?xml version="1.0" encoding="utf-8"?>
<svg class="shirt" width="86" height="380" viewBox="202.715 584.407 86.5933 380.048" preserveAspectRatio="xMidYMax" xmlns="http://www.w3.org/2000/svg">
  <defs id="svgEditorDefs">
    <path id="svgEditorClosePathDefs" fill="black" style="stroke-width: 0px; stroke: none;" class="clothes"/>
    <linearGradient id="linearGradient2112" y2="34.306" gradientUnits="userSpaceOnUse" x2="14" gradientTransform="matrix(1 0 0 1.4045 6.5455 -7.9663)" y1="21.062" x1="14">
      <stop id="stop2104" style="stop-color:#000000" offset="0"/>
      <stop id="stop2106" style="stop-color:#000000;stop-opacity:0" offset="1"/>
    </linearGradient>
    <linearGradient id="linearGradient2116" y2="33.427" gradientUnits="userSpaceOnUse" x2="13.5" gradientTransform="matrix(1 0 0 1.1719 -1.4545 -3.1412)" y1="21.062" x1="14">
      <stop id="stop2104" style="stop-color:#000000" offset="0"/>
      <stop id="stop2106" style="stop-color:#000000;stop-opacity:0" offset="1"/>
    </linearGradient>
    <linearGradient id="linearGradient2120" y2="33.431" gradientUnits="userSpaceOnUse" x2="14.5" gradientTransform="matrix(1 0 0 1.1598 14.546 -2.815)" y1="21.062" x1="14">
      <stop id="stop2104" style="stop-color:#000000" offset="0"/>
      <stop id="stop2106" style="stop-color:#000000;stop-opacity:0" offset="1"/>
    </linearGradient>
    <linearGradient id="linearGradient2132" y2="29.629" gradientUnits="userSpaceOnUse" x2="38.391" gradientTransform="matrix(1.0489 0 0 1 -5.2224 0)" y1="29.629" x1="9.7893">
      <stop id="stop3070" style="stop-color:#cccccc" offset="0"/>
      <stop id="stop3076" style="stop-color:#ffffff" offset="0.3458"/>
      <stop id="stop3078" style="stop-color:#ffffff" offset="0.7249"/>
      <stop id="stop3072" style="stop-color:#cecece" offset="1"/>
    </linearGradient>
    <linearGradient id="linearGradient2289" y2="16.5" gradientUnits="userSpaceOnUse" x2="46.625" gradientTransform="matrix(.78075 0 0 .78075 9.9002 9.2561)" y1="33.375" x1="39.125">
      <stop id="stop2285" style="stop-color:#730000" offset="0"/>
      <stop id="stop2287" style="stop-color:#ff0202" offset="1"/>
    </linearGradient>
    <linearGradient id="linearGradient2317" y2="8.0444" gradientUnits="userSpaceOnUse" x2="31.775" y1="6.1455" x1="32.099">
      <stop id="stop2313" style="stop-color:#ffd93c" offset="0"/>
      <stop id="stop2315" style="stop-color:#ffffff;stop-opacity:0" offset="1"/>
    </linearGradient>
    <linearGradient id="linearGradient2325" y2="38.297" gradientUnits="userSpaceOnUse" x2="38.07" y1="12.221" x1="28.764">
      <stop id="stop2321" style="stop-color:#f2d565" offset="0"/>
      <stop id="stop2323" style="stop-color:#f2d565;stop-opacity:0" offset="1"/>
    </linearGradient>
    <linearGradient id="linearGradient2327" y2="8.0444" gradientUnits="userSpaceOnUse" x2="8.0879" y1="6.0205" x1="7.2236">
      <stop id="stop2313" style="stop-color:#ffd93c" offset="0"/>
      <stop id="stop2315" style="stop-color:#ffffff;stop-opacity:0" offset="1"/>
    </linearGradient>
    <linearGradient id="linearGradient2343" y2="9.4235" gradientUnits="userSpaceOnUse" x2="32.312" y1="7.361" x1="30.526">
      <stop id="stop2339" style="stop-color:#cc0000" offset="0"/>
      <stop id="stop2345" style="stop-color:#c84a00" offset="0.2759"/>
      <stop id="stop2341" style="stop-color:#be0000" offset="1"/>
    </linearGradient>
    <linearGradient id="linearGradient2347" y2="9.6735" gradientUnits="userSpaceOnUse" x2="8.8115" y1="7.611" x1="10.401">
      <stop id="stop2339" style="stop-color:#cc0000" offset="0"/>
      <stop id="stop2345" style="stop-color:#c84a00" offset="0.2759"/>
      <stop id="stop2341" style="stop-color:#be0000" offset="1"/>
    </linearGradient>
  </defs>
  <rect id="svgEditorBackground" x="202.71499633789062" y="584.4310302734375" width="86.59329986572266" height="115.80899810791016" style="fill: none; stroke: none;" class="clothes"/>
  <path d="M228.76336669921875,672.991455078125c4.324533905631284,-1.4112558776510014,11.51096896064226,0.22129187068173906,13.058807373046875,3.4365234375c2.31151087718564,2.5279263481900216,4.032802321963857,9.591366653129171,2.061920166015625,13.74615478515625c0.7783387185652941,-11.65323189642561,-6.386462290754537,-17.833338000890194,-15.1207275390625,-17.18267822265625Z" id="e39_area3" fill="black" style="stroke: none; stroke-width: 0px;" transform="matrix(0.846 0 0 0.874739 39.2094 87.7496)" class="clothes"/>
  <path d="M235.63641888550254,679.8645072644088c4.324533905631284,-1.4112558776510014,10.747296495861264,0.9085970893099784,13.058807373046875,3.4365234375c2.3115108771856403,2.5279263481900216,4.032802321963857,9.591366653129171,2.061920166015625,13.74615478515625c0.7783387185652941,-11.653231896425611,-6.386462290754537,-17.833338000890194,-15.1207275390625,-17.18267822265625Z" id="e9_area3" fill="black" style="stroke: none; stroke-width: 0px;" transform="matrix(-0.806664 0 0 0.847088 450.119 101.46)" class="clothes"/>
  <rect id="rect-1" x="-403.988" y="499.579" width="1300" height="550" style="fill: none; stroke: none;" class="clothes"/>
  <g transform="matrix(0.99672, 0, 0, 0.99672, 225.056793, 668.316528)">
    <g id="layer1">
      <path id="path2281" style="fill-rule:evenodd;color:#000000;fill:url(#linearGradient2289)" d="m27.436 37.514s16.791 0.673 19.159-6.104c1.589-4.547-5.001-7.369-5.563-10.443-0.561-3.074 3.319-2.293 3.319-2.293l0.634 1.269 2.293-2.733-4.098-0.537 0.78 1.318s-3.781-0.61-3.903 2.683c-0.122 3.294 6.652 7.491 4.31 10.736s-13.679 2.244-13.679 2.244l-3.252 3.86z"/>
      <path id="path4320" style="stroke-linejoin: round; fill-rule: evenodd; color: rgb(0, 0, 0); stroke: rgb(164, 0, 0); stroke-linecap: round; stroke-width: 0.48004; fill: rgb(255, 7, 7);" d="m39.775 19.009a8.6621 8.6621 0 1 1 -17.324 0 8.6621 8.6621 0 1 1 17.324 0z" transform="matrix(2.0831 0 0 2.0831 -44.502 -16.492)"/>
      <path id="path4322" style="opacity:.43182;stroke-linejoin:round;color:#000000;stroke:url(#linearGradient2325);stroke-linecap:round;stroke-width:.50511;fill:none" d="m39.775 19.009a8.6621 8.6621 0 1 1 -17.324 0 8.6621 8.6621 0 1 1 17.324 0z" transform="matrix(1.9798 0 0 1.9798 -41.286 -14.527)"/>
      <path id="path1364" style="stroke:#000000;fill:none" d="m-0.875 1.875a2.9375 2.875 0 0 1 -5.4814 1.4375" transform="matrix(-.96593 -.25882 .25882 -.96593 20.58 17.201)"/>
      <path id="path2094" style="stroke:#000000;fill:none" d="m-0.875 1.875a2.9375 2.875 0 0 1 -5.4814 1.4375" transform="matrix(-.96593 -.25882 .25882 -.96593 11.83 17.201)"/>
      <path id="path2096" style="color:#000000;fill:url(#linearGradient2132)" d="m5.233 21.045c-1.539 7.567 4.6921 17.167 14.851 17.167 10.248 0 16.506-8.43 14.72-17.105l-29.571-0.062z"/>
      <path id="path2110" style="opacity:.18182;stroke:url(#linearGradient2112);stroke-linecap:square;stroke-width:1px;fill:none" d="m20.545 21.529v16.854"/>
      <path id="path2114" style="opacity:.18182;stroke:url(#linearGradient2116);stroke-linecap:square;stroke-width:1px;fill:none" d="m12.545 21.469v14.062"/>
      <path id="path2118" style="opacity:.18182;stroke:url(#linearGradient2120);stroke-linecap:square;stroke-width:1px;fill:none" d="m28.545 21.541v13.918"/>
      <path id="path2756" style="color:#000000;stroke:#a40000;fill:none" d="m5.4864 20.616c-1.7806 8.822 5.1586 18.088 14.809 18.088 10.004 0 16.653-9.579 14.372-18.151l-29.181 0.063z"/>
      <path id="path2276" style="stroke-linejoin:round;fill-rule:evenodd;color:#000000;stroke:#a40000;stroke-linecap:round;fill:url(#linearGradient2343)" d="m34.535 4.7331c-0.125 0.0235-0.246 0.0687-0.356 0.1336l-5.97 3.2746c-0.308 0.1768-0.621 0.4974-0.548 0.8452 0.438 2.0865 2.084 3.5135 4.304 3.7635 0.335 0.038 0.612-0.278 0.766-0.577l2.963-5.8583c0.186-0.3693 0.149-0.8118-0.095-1.1455-0.245-0.3336-0.655-0.5021-1.064-0.4361z"/>
      <path id="path2279" style="stroke-linejoin:round;fill-rule:evenodd;color:#000000;stroke:#a40000;stroke-linecap:round;fill:url(#linearGradient2347)" d="m6.9267 4.8581c0.1257 0.0235 0.2463 0.0687 0.3564 0.1336l5.9699 3.2746c0.308 0.1768 0.621 0.4974 0.548 0.8452-0.437 2.0865-2.084 3.5135-4.3042 3.7635-0.3342 0.038-0.612-0.278-0.7657-0.577l-2.9627-5.8583c-0.1862-0.3693-0.1495-0.8118 0.0949-1.1455 0.2443-0.3336 0.6551-0.5021 1.0634-0.4361z"/>
      <path id="path2299" style="stroke-linejoin:round;opacity:.64773;color:#000000;stroke:url(#linearGradient2317);stroke-linecap:round;fill:none" d="m34.55 5.7962l-5.607 3.037c-0.191 0.1222-0.242 0.1256-0.18 0.3632 0.28 1.0666 1.662 2.2516 2.732 2.5126 0.226 0.056 0.423-0.081 0.53-0.288l2.755-5.5078c0.128-0.2553-0.154-0.1619-0.23-0.117z"/>
      <path id="path2301" style="opacity:.64773;stroke-linejoin:round;color:#000000;stroke:url(#linearGradient2327);stroke-linecap:round;fill:none" d="m6.9035 5.973l5.6075 3.0369c0.191 0.1222 0.242 0.1257 0.179 0.3633-0.28 1.0668-1.661 2.2518-2.7316 2.5128-0.2258 0.055-0.423-0.081-0.5293-0.288l-2.7551-5.508c-0.1286-0.2553 0.1534-0.1619 0.2295-0.117z"/>
    </g>
  </g>
</svg>