<svg class="shirtOverlay" width="86" height="380" viewBox="202.715 584.407 86.593 380.048" preserveAspectRatio="xMidYMax" xmlns="http://www.w3.org/2000/svg"><defs id="svgEditorDefs"><style id="style6">.str5{stroke:#c2c1c1;stroke-width:.3528;stroke-linejoin:bevel}.fil5{fill:#fff}</style><linearGradient id="gradient-8" gradientUnits="userSpaceOnUse" x1="259.663" y1="784.779" x2="259.663" y2="799.681"><stop offset="0" stop-color="#7e7e7e"/><stop offset="1" stop-color="#4b4b4b"/></linearGradient><linearGradient id="gradient-9" gradientUnits="userSpaceOnUse" x1="224.983" y1="783.089" x2="224.983" y2="796.683"><stop offset="0" stop-color="#7e7e7e"/><stop offset="1" stop-color="#4b4b4b"/></linearGradient><linearGradient id="gradient-10" gradientUnits="userSpaceOnUse" x1="246.073" y1="654.969" x2="246.073" y2="660.452"><stop offset="0" stop-color="#7e7e7e"/><stop offset="1" stop-color="#4b4b4b"/></linearGradient><linearGradient id="gradient-11" gradientUnits="userSpaceOnUse" x1="246.056" y1="655.32" x2="246.056" y2="662.609"><stop offset="0" stop-color="#7e7e7e"/><stop offset="1" stop-color="#4b4b4b"/></linearGradient></defs><path id="svgEditorBackground" class="clothes" fill="none" d="M202.715 584.431h86.593V700.24h-86.593z"/><path id="rect-1" class="clothes" fill="none" d="M-403.988 499.579h1300v550h-1300z"/><path id="path49" d="M262.698 794.08c1.405 5.409 7.803 4.352 5.726-.74-.068-.161-.561-.938-.617-1.037 3.304 4.738 6.725 1.214 4.407-1.829 2.977 3.418 5.833 4.442 4.466-.536 5.487-2.432-1.741-7.901-6.194-3.496l.223 1.716c-10.928 2.199-12.681 3.162-29.847 2.18l-.143 1.047c-.495 3.887 2.994 6 4.442 2.545.135 3.893 4.241 4.955 5.839 3.483.691-.635.898-1.663.898-1.663 1.374 6.791 6.924 3.201 5.921.908 1.021 2.531 3.462 3.162 4.499 1.936 1.488-1.748.381-3.504.38-4.514z" class="fil5 str5" transform="rotate(5.29 259.66 792.23)" stroke-linejoin="bevel" stroke="#c2c1c1" stroke-width=".495" fill="url(#gradient-8)"/><path id="path49-1" d="M223.208 790.999c-.244 5.489-5.742 4.417-4.886-.752.029-.162.305-.952.335-1.051-1.937 4.808-5.382 1.231-3.975-1.857-1.89 3.469-4.089 4.508-3.804-.544-4.976-2.47-.497-6.048 3.958-1.577l-.879 1.083c8.941.927 15.325.097 26.759.9l.3 1.063c1.075 3.945-1.464 6.089-3.259 2.583.555 3.952-2.678 5.028-4.257 3.534-.684-.645-1.031-1.687-1.031-1.687.019 6.893-5.208 3.248-4.766.922-.416 2.567-2.337 3.208-3.408 1.964-1.536-1.775-.916-3.556-1.088-4.581z" class="fil5 str5" transform="rotate(5.29 224.981 789.887)" stroke-linejoin="bevel" fill-rule="evenodd" stroke="#c2c1c1" stroke-width=".455" fill="url(#gradient-9)"/><path id="path55-1" d="M238.818 659.171c1.582-1.268 5.672.291 9.152.205 3.602-.09 6.572-1.768 6.67.325l2.596.751c1.633-.743.476-2.069-2.26-3.269a7.043 7.043 0 0 1 2.721 1.663c.855-1.952 1.306-3.437-1.618-3.857-1.774-.255-6.17 1.979-9.425 1.914-4.111-.032-8.276-1.99-10.522-1.153-.761.285.625.768-.184 1.295-.677.448-2.37.804-2.118 1.404.26.621 1.105.129 2.087.223.607-.622 1.64-1.164 2.734-1.576-1.964.802-3.07 1.648-3.098 2.649l3.265-.574z" class="fil5 str5" stroke-linejoin="bevel" stroke="#c2c1c1" stroke-width=".512" fill="url(#gradient-10)"/><path id="path55" class="fil5 str5" d="M239.045 656.601c3.218 2.581 15.629 3.586 15.823-.53l2.596-.751c1.632.743.475 2.069-2.261 3.269a7.039 7.039 0 0 0 2.72-1.662c1.338 3.05-1.299 5.501-10.338 5.681-5.505.044-9.659-1.163-12.854-3.245-.677-.449-1.042-.709-.789-1.309.26-.622 1.22-.86 2.203-.954.607.621 1.64 1.163 2.733 1.576-1.963-.802-3.069-1.649-3.098-2.649l3.265.574z" stroke-linejoin="bevel" stroke="#c2c1c1" stroke-width=".512" fill="url(#gradient-11)"/></svg>