<?xml version="1.0" encoding="utf-8"?>
<svg class="shirt" width="86" height="380" viewBox="202.715 584.407 86.5933 380.048" preserveAspectRatio="xMidYMax" xmlns="http://www.w3.org/2000/svg" xmlns:xlink="http://www.w3.org/1999/xlink">
  <defs id="svgEditorDefs">
    <path id="svgEditorClosePathDefs" fill="black" style="stroke-width: 0px; stroke: none;" class="clothes"/>
    <pattern id="pattern-0" x="0" y="0" width="20" height="20" patternUnits="userSpaceOnUse" viewBox="0 0 100 100">
      <g transform="matrix(0.203196, 0, 0, 0.257614, -16.859308, -40.626976)">
        <path id="path-1" style="stroke:#ff0000;stroke-width:2;display:none;fill:none" d="m329.69 144.95s-9.3692-18.562-37.653-6.364"/>
        <path id="path-2" style="stroke:#ff0000;stroke-width:2;display:none;fill:none" d="m326.89 144.95s-9.3692-18.562-37.653-6.364"/>
        <g id="g-1" transform="matrix(.43321 0 0 .43321 202.84 202.87)">
          <path id="path-3" style="fill:#ff0000" d="m453.72 202.5-181.88 0.03125c9e-13 67.31 36.619 126.02 90.969 157.47 0.061636-62.793 32.614-123.85 90.906-157.5z"/>
          <path id="path-4" style="fill:#ffff00" d="m544.68 359.99-90.96-157.49c-58.292 33.655-90.826 94.722-90.888 157.52 54.412-31.343 123.56-33.678 181.85-0.022878z"/>
          <path id="path-5" style="fill:#00ff00" d="m453.73 517.51 90.91-157.52c-58.292-33.655-127.44-31.296-181.86 0.046873 54.35 31.45 90.946 90.167 90.946 157.48z"/>
          <path id="path-6" style="fill:#00ffff" d="m271.9 517.55 181.87-0.03125c-9e-13 -67.31-36.619-126.02-90.969-157.47-0.061636 62.793-32.614 123.85-90.906 157.5z"/>
          <path id="path-7" style="fill:#0000ff" d="m180.98 360.04 90.965 157.49c58.292-33.655 90.826-94.722 90.888-157.52-54.412 31.343-123.56 33.678-181.85 0.022878z"/>
          <path id="path-8" style="fill:#ff00ff" d="m271.84 202.56-90.91 157.52c58.292 33.655 127.44 31.296 181.86-0.046873-54.35-31.45-90.95-90.16-90.95-157.47z"/>
        </g>
        <g id="g2860" transform="matrix(.43321 0 0 .43321 202.84 66.406)">
          <path id="path2862" style="fill:#ff0000" d="m453.72 202.5-181.88 0.03125c9e-13 67.31 36.619 126.02 90.969 157.47 0.061636-62.793 32.614-123.85 90.906-157.5z"/>
          <path id="path2864" style="fill:#ffff00" d="m544.68 359.99-90.96-157.49c-58.292 33.655-90.826 94.722-90.888 157.52 54.412-31.343 123.56-33.678 181.85-0.022878z"/>
          <path id="path2866" style="fill:#00ff00" d="m453.73 517.51 90.91-157.52c-58.292-33.655-127.44-31.296-181.86 0.046873 54.35 31.45 90.946 90.167 90.946 157.48z"/>
          <path id="path2868" style="fill:#00ffff" d="m271.9 517.55 181.87-0.03125c-9e-13 -67.31-36.619-126.02-90.969-157.47-0.061636 62.793-32.614 123.85-90.906 157.5z"/>
          <path id="path2870" style="fill:#0000ff" d="m180.98 360.04 90.965 157.49c58.292-33.655 90.826-94.722 90.888-157.52-54.412 31.343-123.56 33.678-181.85 0.022878z"/>
          <path id="path2872" style="fill:#ff00ff" d="m271.84 202.56-90.91 157.52c58.292 33.655 127.44 31.296 181.86-0.046873-54.35-31.45-90.95-90.16-90.95-157.47z"/>
        </g>
        <g id="g2874" transform="matrix(.43321 0 0 .43321 321.03 134.62)">
          <path id="path2876" style="fill:#ff0000" d="m453.72 202.5-181.88 0.03125c9e-13 67.31 36.619 126.02 90.969 157.47 0.061636-62.793 32.614-123.85 90.906-157.5z"/>
          <path id="path2878" style="fill:#ffff00" d="m544.68 359.99-90.96-157.49c-58.292 33.655-90.826 94.722-90.888 157.52 54.412-31.343 123.56-33.678 181.85-0.022878z"/>
          <path id="path2880" style="fill:#00ff00" d="m453.73 517.51 90.91-157.52c-58.292-33.655-127.44-31.296-181.86 0.046873 54.35 31.45 90.946 90.167 90.946 157.48z"/>
          <path id="path2882" style="fill:#00ffff" d="m271.9 517.55 181.87-0.03125c-9e-13 -67.31-36.619-126.02-90.969-157.47-0.061636 62.793-32.614 123.85-90.906 157.5z"/>
          <path id="path2884" style="fill:#0000ff" d="m180.98 360.04 90.965 157.49c58.292-33.655 90.826-94.722 90.888-157.52-54.412 31.343-123.56 33.678-181.85 0.022878z"/>
          <path id="path2886" style="fill:#ff00ff" d="m271.84 202.56-90.91 157.52c58.292 33.655 127.44 31.296 181.86-0.046873-54.35-31.45-90.95-90.16-90.95-157.47z"/>
        </g>
        <g id="g2888" transform="matrix(.43321 0 0 .43321 321.08 271.07)">
          <path id="path2890" style="fill:#ff0000" d="m453.72 202.5-181.88 0.03125c9e-13 67.31 36.619 126.02 90.969 157.47 0.061636-62.793 32.614-123.85 90.906-157.5z"/>
          <path id="path2892" style="fill:#ffff00" d="m544.68 359.99-90.96-157.49c-58.292 33.655-90.826 94.722-90.888 157.52 54.412-31.343 123.56-33.678 181.85-0.022878z"/>
          <path id="path2894" style="fill:#00ff00" d="m453.73 517.51 90.91-157.52c-58.292-33.655-127.44-31.296-181.86 0.046873 54.35 31.45 90.946 90.167 90.946 157.48z"/>
          <path id="path2896" style="fill:#00ffff" d="m271.9 517.55 181.87-0.03125c-9e-13 -67.31-36.619-126.02-90.969-157.47-0.061636 62.793-32.614 123.85-90.906 157.5z"/>
          <path id="path2898" style="fill:#0000ff" d="m180.98 360.04 90.965 157.49c58.292-33.655 90.826-94.722 90.888-157.52-54.412 31.343-123.56 33.678-181.85 0.022878z"/>
          <path id="path2900" style="fill:#ff00ff" d="m271.84 202.56-90.91 157.52c58.292 33.655 127.44 31.296 181.86-0.046873-54.35-31.45-90.95-90.16-90.95-157.47z"/>
        </g>
        <g id="g2902" transform="matrix(0.43321, 0, 0, 0.43321, 202.919998, 339.320007)">
          <path id="path2904" style="fill:#ff0000" d="m453.72 202.5-181.88 0.03125c9e-13 67.31 36.619 126.02 90.969 157.47 0.061636-62.793 32.614-123.85 90.906-157.5z"/>
          <path id="path2906" style="fill:#ffff00" d="m544.68 359.99-90.96-157.49c-58.292 33.655-90.826 94.722-90.888 157.52 54.412-31.343 123.56-33.678 181.85-0.022878z"/>
          <path id="path2908" style="fill:#00ff00" d="m453.73 517.51 90.91-157.52c-58.292-33.655-127.44-31.296-181.86 0.046873 54.35 31.45 90.946 90.167 90.946 157.48z"/>
          <path id="path2910" style="fill:#00ffff" d="m271.9 517.55 181.87-0.03125c-9e-13 -67.31-36.619-126.02-90.969-157.47-0.061636 62.793-32.614 123.85-90.906 157.5z"/>
          <path id="path2912" style="fill:#0000ff" d="m180.98 360.04 90.965 157.49c58.292-33.655 90.826-94.722 90.888-157.52-54.412 31.343-123.56 33.678-181.85 0.022878z"/>
          <path id="path2914" style="fill:#ff00ff" d="m271.84 202.56-90.91 157.52c58.292 33.655 127.44 31.296 181.86-0.046873-54.35-31.45-90.95-90.16-90.95-157.47z"/>
        </g>
        <g id="g2916" transform="matrix(.43321 0 0 .43321 84.667 271.13)">
          <path id="path2918" style="fill:#ff0000" d="m453.72 202.5-181.88 0.03125c9e-13 67.31 36.619 126.02 90.969 157.47 0.061636-62.793 32.614-123.85 90.906-157.5z"/>
          <path id="path2920" style="fill:#ffff00" d="m544.68 359.99-90.96-157.49c-58.292 33.655-90.826 94.722-90.888 157.52 54.412-31.343 123.56-33.678 181.85-0.022878z"/>
          <path id="path2922" style="fill:#00ff00" d="m453.73 517.51 90.91-157.52c-58.292-33.655-127.44-31.296-181.86 0.046873 54.35 31.45 90.946 90.167 90.946 157.48z"/>
          <path id="path2924" style="fill:#00ffff" d="m271.9 517.55 181.87-0.03125c-9e-13 -67.31-36.619-126.02-90.969-157.47-0.061636 62.793-32.614 123.85-90.906 157.5z"/>
          <path id="path2926" style="fill:#0000ff" d="m180.98 360.04 90.965 157.49c58.292-33.655 90.826-94.722 90.888-157.52-54.412 31.343-123.56 33.678-181.85 0.022878z"/>
          <path id="path2928" style="fill:#ff00ff" d="m271.84 202.56-90.91 157.52c58.292 33.655 127.44 31.296 181.86-0.046873-54.35-31.45-90.95-90.16-90.95-157.47z"/>
        </g>
        <g id="g2930" transform="matrix(.43321 0 0 .43321 84.622 134.68)">
          <path id="path2932" style="fill:#ff0000" d="m453.72 202.5-181.88 0.03125c9e-13 67.31 36.619 126.02 90.969 157.47 0.061636-62.793 32.614-123.85 90.906-157.5z"/>
          <path id="path2934" style="fill:#ffff00" d="m544.68 359.99-90.96-157.49c-58.292 33.655-90.826 94.722-90.888 157.52 54.412-31.343 123.56-33.678 181.85-0.022878z"/>
          <path id="path2936" style="fill:#00ff00" d="m453.73 517.51 90.91-157.52c-58.292-33.655-127.44-31.296-181.86 0.046873 54.35 31.45 90.946 90.167 90.946 157.48z"/>
          <path id="path2938" style="fill:#00ffff" d="m271.9 517.55 181.87-0.03125c-9e-13 -67.31-36.619-126.02-90.969-157.47-0.061636 62.793-32.614 123.85-90.906 157.5z"/>
          <path id="path2940" style="fill:#0000ff" d="m180.98 360.04 90.965 157.49c58.292-33.655 90.826-94.722 90.888-157.52-54.412 31.343-123.56 33.678-181.85 0.022878z"/>
          <path id="path2942" style="fill:#ff00ff" d="m271.84 202.56-90.91 157.52c58.292 33.655 127.44 31.296 181.86-0.046873-54.35-31.45-90.95-90.16-90.95-157.47z"/>
        </g>
        <g id="g2944" transform="matrix(.43321 0 0 .43321 84.577 -1.765)">
          <path id="path2946" style="fill:#ff0000" d="m453.72 202.5-181.88 0.03125c9e-13 67.31 36.619 126.02 90.969 157.47 0.061636-62.793 32.614-123.85 90.906-157.5z"/>
          <path id="path2948" style="fill:#ffff00" d="m544.68 359.99-90.96-157.49c-58.292 33.655-90.826 94.722-90.888 157.52 54.412-31.343 123.56-33.678 181.85-0.022878z"/>
          <path id="path2950" style="fill:#00ff00" d="m453.73 517.51 90.91-157.52c-58.292-33.655-127.44-31.296-181.86 0.046873 54.35 31.45 90.946 90.167 90.946 157.48z"/>
          <path id="path2952" style="fill:#00ffff" d="m271.9 517.55 181.87-0.03125c-9e-13 -67.31-36.619-126.02-90.969-157.47-0.061636 62.793-32.614 123.85-90.906 157.5z"/>
          <path id="path2954" style="fill:#0000ff" d="m180.98 360.04 90.965 157.49c58.292-33.655 90.826-94.722 90.888-157.52-54.412 31.343-123.56 33.678-181.85 0.022878z"/>
          <path id="path2956" style="fill:#ff00ff" d="m271.84 202.56-90.91 157.52c58.292 33.655 127.44 31.296 181.86-0.046873-54.35-31.45-90.95-90.16-90.95-157.47z"/>
        </g>
        <g id="g2958" transform="matrix(.43321 0 0 .43321 202.71 -70.015)">
          <path id="path2960" style="fill:#ff0000" d="m453.72 202.5-181.88 0.03125c9e-13 67.31 36.619 126.02 90.969 157.47 0.061636-62.793 32.614-123.85 90.906-157.5z"/>
          <path id="path2962" style="fill:#ffff00" d="m544.68 359.99-90.96-157.49c-58.292 33.655-90.826 94.722-90.888 157.52 54.412-31.343 123.56-33.678 181.85-0.022878z"/>
          <path id="path2964" style="fill:#00ff00" d="m453.73 517.51 90.91-157.52c-58.292-33.655-127.44-31.296-181.86 0.046873 54.35 31.45 90.946 90.167 90.946 157.48z"/>
          <path id="path2966" style="fill:#00ffff" d="m271.9 517.55 181.87-0.03125c-9e-13 -67.31-36.619-126.02-90.969-157.47-0.061636 62.793-32.614 123.85-90.906 157.5z"/>
          <path id="path2968" style="fill:#0000ff" d="m180.98 360.04 90.965 157.49c58.292-33.655 90.826-94.722 90.888-157.52-54.412 31.343-123.56 33.678-181.85 0.022878z"/>
          <path id="path2970" style="fill:#ff00ff" d="m271.84 202.56-90.91 157.52c58.292 33.655 127.44 31.296 181.86-0.046873-54.35-31.45-90.95-90.16-90.95-157.47z"/>
        </g>
        <g id="g2972" transform="matrix(.43321 0 0 .43321 320.87 -1.7974)">
          <path id="path2974" style="fill:#ff0000" d="m453.72 202.5-181.88 0.03125c9e-13 67.31 36.619 126.02 90.969 157.47 0.061636-62.793 32.614-123.85 90.906-157.5z"/>
          <path id="path2976" style="fill:#ffff00" d="m544.68 359.99-90.96-157.49c-58.292 33.655-90.826 94.722-90.888 157.52 54.412-31.343 123.56-33.678 181.85-0.022878z"/>
          <path id="path2978" style="fill:#00ff00" d="m453.73 517.51 90.91-157.52c-58.292-33.655-127.44-31.296-181.86 0.046873 54.35 31.45 90.946 90.167 90.946 157.48z"/>
          <path id="path2980" style="fill:#00ffff" d="m271.9 517.55 181.87-0.03125c-9e-13 -67.31-36.619-126.02-90.969-157.47-0.061636 62.793-32.614 123.85-90.906 157.5z"/>
          <path id="path2982" style="fill:#0000ff" d="m180.98 360.04 90.965 157.49c58.292-33.655 90.826-94.722 90.888-157.52-54.412 31.343-123.56 33.678-181.85 0.022878z"/>
          <path id="path2984" style="fill:#ff00ff" d="m271.84 202.56-90.91 157.52c58.292 33.655 127.44 31.296 181.86-0.046873-54.35-31.45-90.95-90.16-90.95-157.47z"/>
        </g>
        <g id="g2986" transform="matrix(.43321 0 0 .43321 439.03 66.42)">
          <path id="path2988" style="fill:#ff0000" d="m453.72 202.5-181.88 0.03125c9e-13 67.31 36.619 126.02 90.969 157.47 0.061636-62.793 32.614-123.85 90.906-157.5z"/>
          <path id="path2990" style="fill:#ffff00" d="m544.68 359.99-90.96-157.49c-58.292 33.655-90.826 94.722-90.888 157.52 54.412-31.343 123.56-33.678 181.85-0.022878z"/>
          <path id="path2992" style="fill:#00ff00" d="m453.73 517.51 90.91-157.52c-58.292-33.655-127.44-31.296-181.86 0.046873 54.35 31.45 90.946 90.167 90.946 157.48z"/>
          <path id="path2994" style="fill:#00ffff" d="m271.9 517.55 181.87-0.03125c-9e-13 -67.31-36.619-126.02-90.969-157.47-0.061636 62.793-32.614 123.85-90.906 157.5z"/>
          <path id="path2996" style="fill:#0000ff" d="m180.98 360.04 90.965 157.49c58.292-33.655 90.826-94.722 90.888-157.52-54.412 31.343-123.56 33.678-181.85 0.022878z"/>
          <path id="path2998" style="fill:#ff00ff" d="m271.84 202.56-90.91 157.52c58.292 33.655 127.44 31.296 181.86-0.046873-54.35-31.45-90.95-90.16-90.95-157.47z"/>
        </g>
        <g id="g3000" transform="matrix(.43321 0 0 .43321 439.03 202.88)">
          <path id="path3002" style="fill:#ff0000" d="m453.72 202.5-181.88 0.03125c9e-13 67.31 36.619 126.02 90.969 157.47 0.061636-62.793 32.614-123.85 90.906-157.5z"/>
          <path id="path3004" style="fill:#ffff00" d="m544.68 359.99-90.96-157.49c-58.292 33.655-90.826 94.722-90.888 157.52 54.412-31.343 123.56-33.678 181.85-0.022878z"/>
          <path id="path3006" style="fill:#00ff00" d="m453.73 517.51 90.91-157.52c-58.292-33.655-127.44-31.296-181.86 0.046873 54.35 31.45 90.946 90.167 90.946 157.48z"/>
          <path id="path3008" style="fill:#00ffff" d="m271.9 517.55 181.87-0.03125c-9e-13 -67.31-36.619-126.02-90.969-157.47-0.061636 62.793-32.614 123.85-90.906 157.5z"/>
          <path id="path3010" style="fill:#0000ff" d="m180.98 360.04 90.965 157.49c58.292-33.655 90.826-94.722 90.888-157.52-54.412 31.343-123.56 33.678-181.85 0.022878z"/>
          <path id="path3012" style="fill:#ff00ff" d="m271.84 202.56-90.91 157.52c58.292 33.655 127.44 31.296 181.86-0.046873-54.35-31.45-90.95-90.16-90.95-157.47z"/>
        </g>
        <g id="g3014" transform="matrix(.43321 0 0 .43321 439.04 339.35)">
          <path id="path3016" style="fill:#ff0000" d="m453.72 202.5-181.88 0.03125c9e-13 67.31 36.619 126.02 90.969 157.47 0.061636-62.793 32.614-123.85 90.906-157.5z"/>
          <path id="path3018" style="fill:#ffff00" d="m544.68 359.99-90.96-157.49c-58.292 33.655-90.826 94.722-90.888 157.52 54.412-31.343 123.56-33.678 181.85-0.022878z"/>
          <path id="path3020" style="fill:#00ff00" d="m453.73 517.51 90.91-157.52c-58.292-33.655-127.44-31.296-181.86 0.046873 54.35 31.45 90.946 90.167 90.946 157.48z"/>
          <path id="path3022" style="fill:#00ffff" d="m271.9 517.55 181.87-0.03125c-9e-13 -67.31-36.619-126.02-90.969-157.47-0.061636 62.793-32.614 123.85-90.906 157.5z"/>
          <path id="path3024" style="fill:#0000ff" d="m180.98 360.04 90.965 157.49c58.292-33.655 90.826-94.722 90.888-157.52-54.412 31.343-123.56 33.678-181.85 0.022878z"/>
          <path id="path3026" style="fill:#ff00ff" d="m271.84 202.56-90.91 157.52c58.292 33.655 127.44 31.296 181.86-0.046873-54.35-31.45-90.95-90.16-90.95-157.47z"/>
        </g>
        <g id="g3028" transform="matrix(.43321 0 0 .43321 321.12 407.53)">
          <path id="path3030" style="fill:#ff0000" d="m453.72 202.5-181.88 0.03125c9e-13 67.31 36.619 126.02 90.969 157.47 0.061636-62.793 32.614-123.85 90.906-157.5z"/>
          <path id="path3032" style="fill:#ffff00" d="m544.68 359.99-90.96-157.49c-58.292 33.655-90.826 94.722-90.888 157.52 54.412-31.343 123.56-33.678 181.85-0.022878z"/>
          <path id="path3034" style="fill:#00ff00" d="m453.73 517.51 90.91-157.52c-58.292-33.655-127.44-31.296-181.86 0.046873 54.35 31.45 90.946 90.167 90.946 157.48z"/>
          <path id="path3036" style="fill:#00ffff" d="m271.9 517.55 181.87-0.03125c-9e-13 -67.31-36.619-126.02-90.969-157.47-0.061636 62.793-32.614 123.85-90.906 157.5z"/>
          <path id="path3038" style="fill:#0000ff" d="m180.98 360.04 90.965 157.49c58.292-33.655 90.826-94.722 90.888-157.52-54.412 31.343-123.56 33.678-181.85 0.022878z"/>
          <path id="path3040" style="fill:#ff00ff" d="m271.84 202.56-90.91 157.52c58.292 33.655 127.44 31.296 181.86-0.046873-54.35-31.45-90.95-90.16-90.95-157.47z"/>
        </g>
        <g id="g3042" transform="matrix(.43321 0 0 .43321 202.95 475.79)">
          <path id="path3044" style="fill:#ff0000" d="m453.72 202.5-181.88 0.03125c9e-13 67.31 36.619 126.02 90.969 157.47 0.061636-62.793 32.614-123.85 90.906-157.5z"/>
          <path id="path3046" style="fill:#ffff00" d="m544.68 359.99-90.96-157.49c-58.292 33.655-90.826 94.722-90.888 157.52 54.412-31.343 123.56-33.678 181.85-0.022878z"/>
          <path id="path3048" style="fill:#00ff00" d="m453.73 517.51 90.91-157.52c-58.292-33.655-127.44-31.296-181.86 0.046873 54.35 31.45 90.946 90.167 90.946 157.48z"/>
          <path id="path3050" style="fill:#00ffff" d="m271.9 517.55 181.87-0.03125c-9e-13 -67.31-36.619-126.02-90.969-157.47-0.061636 62.793-32.614 123.85-90.906 157.5z"/>
          <path id="path3052" style="fill:#0000ff" d="m180.98 360.04 90.965 157.49c58.292-33.655 90.826-94.722 90.888-157.52-54.412 31.343-123.56 33.678-181.85 0.022878z"/>
          <path id="path3054" style="fill:#ff00ff" d="m271.84 202.56-90.91 157.52c58.292 33.655 127.44 31.296 181.86-0.046873-54.35-31.45-90.95-90.16-90.95-157.47z"/>
        </g>
        <g id="g3056" transform="matrix(.43321 0 0 .43321 84.789 407.57)">
          <path id="path3058" style="fill:#ff0000" d="m453.72 202.5-181.88 0.03125c9e-13 67.31 36.619 126.02 90.969 157.47 0.061636-62.793 32.614-123.85 90.906-157.5z"/>
          <path id="path3060" style="fill:#ffff00" d="m544.68 359.99-90.96-157.49c-58.292 33.655-90.826 94.722-90.888 157.52 54.412-31.343 123.56-33.678 181.85-0.022878z"/>
          <path id="path3062" style="fill:#00ff00" d="m453.73 517.51 90.91-157.52c-58.292-33.655-127.44-31.296-181.86 0.046873 54.35 31.45 90.946 90.167 90.946 157.48z"/>
          <path id="path3064" style="fill:#00ffff" d="m271.9 517.55 181.87-0.03125c-9e-13 -67.31-36.619-126.02-90.969-157.47-0.061636 62.793-32.614 123.85-90.906 157.5z"/>
          <path id="path3066" style="fill:#0000ff" d="m180.98 360.04 90.965 157.49c58.292-33.655 90.826-94.722 90.888-157.52-54.412 31.343-123.56 33.678-181.85 0.022878z"/>
          <path id="path3068" style="fill:#ff00ff" d="m271.84 202.56-90.91 157.52c58.292 33.655 127.44 31.296 181.86-0.046873-54.35-31.45-90.95-90.16-90.95-157.47z"/>
        </g>
        <g id="g3070" transform="matrix(.43321 0 0 .43321 -33.369 339.35)">
          <path id="path3072" style="fill:#ff0000" d="m453.72 202.5-181.88 0.03125c9e-13 67.31 36.619 126.02 90.969 157.47 0.061636-62.793 32.614-123.85 90.906-157.5z"/>
          <path id="path3074" style="fill:#ffff00" d="m544.68 359.99-90.96-157.49c-58.292 33.655-90.826 94.722-90.888 157.52 54.412-31.343 123.56-33.678 181.85-0.022878z"/>
          <path id="path3076" style="fill:#00ff00" d="m453.73 517.51 90.91-157.52c-58.292-33.655-127.44-31.296-181.86 0.046873 54.35 31.45 90.946 90.167 90.946 157.48z"/>
          <path id="path3078" style="fill:#00ffff" d="m271.9 517.55 181.87-0.03125c-9e-13 -67.31-36.619-126.02-90.969-157.47-0.061636 62.793-32.614 123.85-90.906 157.5z"/>
          <path id="path3080" style="fill:#0000ff" d="m180.98 360.04 90.965 157.49c58.292-33.655 90.826-94.722 90.888-157.52-54.412 31.343-123.56 33.678-181.85 0.022878z"/>
          <path id="path3082" style="fill:#ff00ff" d="m271.84 202.56-90.91 157.52c58.292 33.655 127.44 31.296 181.86-0.046873-54.35-31.45-90.95-90.16-90.95-157.47z"/>
        </g>
        <g id="g3084" transform="matrix(.43321 0 0 .43321 -33.374 202.88)">
          <path id="path3086" style="fill:#ff0000" d="m453.72 202.5-181.88 0.03125c9e-13 67.31 36.619 126.02 90.969 157.47 0.061636-62.793 32.614-123.85 90.906-157.5z"/>
          <path id="path3088" style="fill:#ffff00" d="m544.68 359.99-90.96-157.49c-58.292 33.655-90.826 94.722-90.888 157.52 54.412-31.343 123.56-33.678 181.85-0.022878z"/>
          <path id="path3090" style="fill:#00ff00" d="m453.73 517.51 90.91-157.52c-58.292-33.655-127.44-31.296-181.86 0.046873 54.35 31.45 90.946 90.167 90.946 157.48z"/>
          <path id="path3092" style="fill:#00ffff" d="m271.9 517.55 181.87-0.03125c-9e-13 -67.31-36.619-126.02-90.969-157.47-0.061636 62.793-32.614 123.85-90.906 157.5z"/>
          <path id="path3094" style="fill:#0000ff" d="m180.98 360.04 90.965 157.49c58.292-33.655 90.826-94.722 90.888-157.52-54.412 31.343-123.56 33.678-181.85 0.022878z"/>
          <path id="path3096" style="fill:#ff00ff" d="m271.84 202.56-90.91 157.52c58.292 33.655 127.44 31.296 181.86-0.046873-54.35-31.45-90.95-90.16-90.95-157.47z"/>
        </g>
        <g id="g3098" transform="matrix(.43321 0 0 .43321 -33.38 66.42)">
          <path id="path3100" style="fill:#ff0000" d="m453.72 202.5-181.88 0.03125c9e-13 67.31 36.619 126.02 90.969 157.47 0.061636-62.793 32.614-123.85 90.906-157.5z"/>
          <path id="path3102" style="fill:#ffff00" d="m544.68 359.99-90.96-157.49c-58.292 33.655-90.826 94.722-90.888 157.52 54.412-31.343 123.56-33.678 181.85-0.022878z"/>
          <path id="path3104" style="fill:#00ff00" d="m453.73 517.51 90.91-157.52c-58.292-33.655-127.44-31.296-181.86 0.046873 54.35 31.45 90.946 90.167 90.946 157.48z"/>
          <path id="path3106" style="fill:#00ffff" d="m271.9 517.55 181.87-0.03125c-9e-13 -67.31-36.619-126.02-90.969-157.47-0.061636 62.793-32.614 123.85-90.906 157.5z"/>
          <path id="path3108" style="fill:#0000ff" d="m180.98 360.04 90.965 157.49c58.292-33.655 90.826-94.722 90.888-157.52-54.412 31.343-123.56 33.678-181.85 0.022878z"/>
          <path id="path3110" style="fill:#ff00ff" d="m271.84 202.56-90.91 157.52c58.292 33.655 127.44 31.296 181.86-0.046873-54.35-31.45-90.95-90.16-90.95-157.47z"/>
        </g>
      </g>
    </pattern>
    <pattern id="pattern-0-0" patternTransform="matrix(1, 0, 0, 1, 235.335144, 723.186768)" xlink:href="#pattern-0"/>
    <pattern id="pattern-0-1" patternTransform="matrix(0.999999, 0, 0, 1, 254.972855, 738.254883)" xlink:href="#pattern-0"/>
  </defs>
  <rect id="svgEditorBackground" x="202.71499633789062" y="584.4310302734375" width="86.59329986572266" height="115.80899810791016" style="fill: none; stroke: none;" class="clothes"/>
  <rect id="rect-1" x="-403.988" y="499.579" width="1300" height="550" style="fill: none; stroke: none;" class="clothes"/>
  <g transform="matrix(1, 0, 0, 1, -0.614964, 0)">
    <path d="M 232.233 728.924 C 232.233 731.56 258.486 727.545 258.677 728.309 C 262.775 744.708 231.968 735.688 231.618 735.688" style="stroke: rgb(0, 0, 0); fill: url(#pattern-0-0);"/>
    <path d="M 256.832 727.694 C 253.802 727.694 252.172 735.333 254.987 738.148 C 258.297 741.458 260.131 729.763 257.447 727.079 C 254.154 723.786 251.633 736.862 250.682 738.763 C 246.413 747.302 251.703 763.768 256.832 768.896 C 259.363 771.428 269.818 768.968 267.286 766.436 C 264.566 763.716 260.786 762.045 258.677 757.827 C 257.721 755.915 256.217 736.918 256.217 736.918 C 256.217 736.918 270.929 755.679 272.206 757.212 C 277.225 763.234 275.026 760.542 280.815 754.752 C 281.398 754.17 258.677 736.639 258.677 735.688" style="stroke: rgb(0, 0, 0); fill: url(#pattern-0-1);"/>
  </g>
</svg>