<?xml version="1.0" encoding="utf-8"?>
<svg class="shirt" width="86" height="380" viewBox="202.715 584.407 86.5933 380.048" preserveAspectRatio="xMidYMax" xmlns="http://www.w3.org/2000/svg">
  <defs id="svgEditorDefs">
    <path id="svgEditorClosePathDefs" fill="black" style="stroke-width: 0px; stroke: none;" class="clothes"/>
    <radialGradient id="radialGradient830" gradientUnits="userSpaceOnUse" cy="48.245" cx="75.284" gradientTransform="matrix(1.0357 0 0 1.0361 -24.689 -25.482)" r="38.95">
      <stop id="stop828" style="stop-color:#ffffff" offset="0"/>
      <stop id="stop829" style="stop-color:#ffc613" offset="1"/>
    </radialGradient>
  </defs>
  <rect id="svgEditorBackground" x="202.71499633789062" y="584.4310302734375" width="86.59329986572266" height="115.80899810791016" style="fill: none; stroke: none;" class="clothes"/>
  <path d="M228.76336669921875,672.991455078125c4.324533905631284,-1.4112558776510014,11.51096896064226,0.22129187068173906,13.058807373046875,3.4365234375c2.31151087718564,2.5279263481900216,4.032802321963857,9.591366653129171,2.061920166015625,13.74615478515625c0.7783387185652941,-11.65323189642561,-6.386462290754537,-17.833338000890194,-15.1207275390625,-17.18267822265625Z" id="e39_area3" fill="black" style="stroke: none; stroke-width: 0px;" transform="matrix(0.846 0 0 0.874739 39.2094 87.7496)" class="clothes"/>
  <path d="M235.63641888550254,679.8645072644088c4.324533905631284,-1.4112558776510014,10.747296495861264,0.9085970893099784,13.058807373046875,3.4365234375c2.3115108771856403,2.5279263481900216,4.032802321963857,9.591366653129171,2.061920166015625,13.74615478515625c0.7783387185652941,-11.653231896425611,-6.386462290754537,-17.833338000890194,-15.1207275390625,-17.18267822265625Z" id="e9_area3" fill="black" style="stroke: none; stroke-width: 0px;" transform="matrix(-0.806664 0 0 0.847088 450.119 101.46)" class="clothes"/>
  <rect id="rect-1" x="-403.988" y="499.579" width="1300" height="550" style="fill: none; stroke: none;" class="clothes"/>
  <g transform="matrix(0.394781, 0, 0, 0.394781, 223.290131, 670.447449)">
    <path id="path826" style="stroke-linejoin:round;fill-rule:evenodd;stroke:#000000;stroke-width:2.5;fill:url(#radialGradient830)" d="m108.88 50.588c0 27.235-22.111 49.342-49.363 49.342-27.247 0-49.36-22.107-49.36-49.342 0-27.234 22.113-49.338 49.36-49.338 27.252 0 49.363 22.104 49.363 49.338z"/>
    <path id="path3012" style="stroke:#000000;stroke-width:2.5;fill:none" d="m28.651 32.361 20.385 11.458-22.543 3.6184"/>
    <path id="path3833" d="m90.389 32.361-20.385 11.458 22.543 3.6184" style="stroke:#000000;stroke-width:2.5;fill:none"/>
    <path id="path3859" style="stroke:#000000;stroke-width:2.5;fill:#ffffff" d="m1.25 65.754c16.512-0.623 27.136 1.801 44.461-7.553s23.49-6.321 17.335 12.254c-6.155 18.577-28.149 32.887-43.848 47.197-0.19145-6.2221 2.0505-13.748-0.57435-18.666s-8.711-4.5948-13.066-6.8922c1.7709-4.7384 3.3698-6.8109 5.3127-14.215 1.9429-7.4043-7.9189-6.0484-9.6203-12.125z"/>
    <path id="path3861" style="stroke:#000000;stroke-width:2.5;fill:none" d="m18.472 75.333c8.1661-4.9933 16.738-1.2549 23.889-5.2328"/>
    <path id="path3863" style="stroke:#000000;stroke-width:2.5;fill:none" d="m21.297 91.512c10.452-1.4129 17.654-6.684 25.263-13.376"/>
    <path id="path3865" style="stroke:#000000;stroke-width:2.5;fill:none" d="m65.468 85.112c2.031-8.465 7.31-13.474 17.061-13.203"/>
  </g>
</svg>