<?xml version="1.0" encoding="utf-8"?>
<svg width="86" height="380" viewBox="202.715 584.407 86.5933 380.048" preserveAspectRatio="xMidYMid meet" xmlns="http://www.w3.org/2000/svg">
  <defs id="svgEditorDefs">
    <path id="svgEditorClosePathDefs" class="skin" fill="black" style="stroke-width: 0px; stroke: none;"/>
  </defs>
  <g transform="matrix(0.062893, -0.022855, 0, 0.062893, 235.852142, 674.622009)">
    <g id="layer1" transform="translate(-164.33 -85.14)"/>
  </g>
  <g transform="matrix(0.113871, -0.034037, 0, 0.113871, 225.458878, 671.774902)">
    <path id="path2181" style="fill:#000000" transform="translate(25.628 -.26489)" d="m178.96 308.18c-7.57-2.13-9.31-10.87-5.05-16.83 3.41-7.32 7.22-14.55 9.8-22.19-5.12 5.75-13.29 1.25-17.24-3.62-3.48-5.06-6.98-10.46-8.88-16.24-0.78-9.26-11.04-14.42-11.62-23.71 5.44-4.77 13.69-0.18 18.53 3.41 5.57 3.61 10.05 8.49 13.58 14.21 3.6 5.43 8.05 11.25 6.68 18.2-0.57 3.5 0.73 6.28 2.21 1.43 5.34-12.72 12.31-25.12 14.19-38.97-0.01-7.67 2.86-14.98 3.47-22.58-6.2 1.57-10.16 7.95-17.18 8.57-6.96 3.02-13.56-1.13-18.79-5.44-2.83-3.83-8.86-9.96-6.83-14.69 6.1-2.48 13.09-1.61 19.31-4.07 6.83-0.74 10.94-6.81 17.45-8.16 14.94-7 29.73-14.46 43.9-22.92 5.9-6.31 14.21-0.84 17.84 4.79 5.29 7.21-2.84 11.97-8.79 14.16-7.49 4.85-15.23 9.32-23.33 13.11-7.28 3.52 1.65 11.88-1.18 18.14-1.71 13.96-5.22 27.65-8.87 41.21-2.94 4.87-4.89 10.81-7.01 16.48 2.48 3.77 9.69-5.01 13.69-6.08 11.27-6.92 21.68-15.19 32.47-22.8 1.77-1.99 5.7-4.68 6.38-6.45-4.85-1.05-9.98-3.45-12.69-7.69-5.75-6.84 6.57-12.7 12.73-10.04 10.42 1.46 19.61 7.1 28.51 12.34 10.12 7.25 19.81 15.68 26.71 26.1 3.22 5.89-1.37 14.96-8.58 13.65-10.1-3.05-15.84-12.94-24.52-18.37-6.58-5.69-12.25 4.17-17.52 7.24-12.85 10.45-25.99 20.85-40.72 28.53-12.16 4.85-22.7 13.03-32.87 21.12-4.72 3.32-8.87 11.93-15.78 8.16zm-115.1-3c-12.899-6.88-25.807-16.16-32.038-29.82 0.714-7.42 11.655-4.96 15.634-1.11 5.845 1.57 11.065 12.4 17.106 6.74 4.546-1.08 10.176 4.41 10.978 7.78 1.978 4 5.04 10.59 6.027 13.09-4.905 0.86-0.553 5.12-6.068 5.95-3.921 2.82-7.929-1.35-11.639-2.63zm54.582 1.19c-7.34-2.36-10.56-9.46-16.58-13.86-4.633-4.2-12.446-7.04-15.222-12.01 3.466-2.5 8.311-1.17 12.445-1.5 3.417 0.98 3.517-1.16 2.947-3.94-1.36-17.55-1.12-35.43-5.537-52.56-1.892-3.69-5.349-6.11-8.525-8.61-11.33 8.61-22.223 17.84-34.064 25.74-6.323 2.42-12.254-6.05-13.563-11.53 1.457-6.52 7.304-11 10.029-17.04 8.424-14.96 16.661-30.03 23.76-45.69 1.218-2.97 6.414-10.94-0.544-7.18-10.107 2.29-20.378 7.4-30.917 5.12-5.295-2.16-10.677-8.5-5.184-12.9 6.564-3.09 11.105-9.35 16.157-14.45 8.091-9.32 12.357-21.14 17.808-32.05 3.384-9.107 7.643-18.274 8.335-28.07-1.862-7.622 9.161-7.598 13.381-4.398 6.007 2.201 10.094 6.645 12.954 12.2 6.16 5.509-2.39 15.28-5.7 20.898-4.932 3.77-5.394 10.4-9.395 14.84-5.628 2.44-7.009 9.8-12.997 12.28-6.819 6.16 7.53 4.11 10.797 3.04 4.811-5.51 2.693-14.37 7.549-19.65 8.766-2.48 19.016 6.85 15.576 15.91-4.57 12.47-9.42 24.85-15.669 36.59-3.691 7.33-7.856 14.47-11.03 22.03 6.231-0.04 11.254-5.7 16.199-9.11 3.82-3.29 12.75-9.29 4.74-12.61-6.619-8.53 5.17-10.35 11.29-9.64 8.11 0.17 14.72 5.7 21.56 9.39 4.85 3.39 12.38 10.93 13.83 0.81 8.09-19.21 13.62-39.34 20.7-58.92 3.54-13.804 9.38-27.001 11.08-41.244 0.83-7.081 3.26-15.284-1.42-21.555-3.96-9.211 10.86-7.72 15.47-4.802 6.07 2.042 7.91 7.901 11.84 12.26 6.79 2.632 13.61 5.823 19.84 9.945 7.41 3.853 13.32 10.465 21.74 12.198 14.27 4.055 29.53 5.426 42.8 12.491 5.67 4.443 12.03 11.005 11.4 18.697-3.89 3.1-6.47 5.99-12.1 4.01-6.68-2.49-13.02-6.03-20.32-6.64-12.24-1.66-24.38-6.087-33.72-14.365-7.09-4.75-13.95-9.774-20.29-15.486-4.38-1.565-7.91-11.441-11.67-8.234 0.81 5.896-2.62 11.346-2.9 17.461-3.75 15.944-7.93 31.944-14.52 46.974-0.95 4.78-8.89 11.07-5.16 14.78 9.6-2.58 17.63-9.12 25.64-14.76 6.12-3.81 9.75-10.65 16.09-14.02 6.8-1.81 13.38 1.35 17.68 6.59 5.76 4.56 4.15 14.06-4.06 14.67-12.47 2.55-20.29 13.33-30.07 20.37-5.62 3.23-10.45 8.68-17.58 8.22-6.67 0.34-10.24-10.27-15.59-9.18-3.2 5.69-5.81 11.42-10.14 16.4-1.83 5.18-7.06 8.82-9.81 11.49 4.17 7.23-3.66 14.21-10.86 12.03-8.58 1.59-9.21-7.66-14.43-12.11-2.94-2.85-9.2-13.46-10.6-4.4-4.98 6.69-12.06 11.52-17.54 17.83-2.09 2.04-4.19 4.07-6.29 6.11 10.19 7.67 18.33 18.09 22.35 30.28 5.51 16.01 6.31 33.1 8.58 49.76 0.3 6.81 1.68 14.35-1.44 20.65-2.25 2.93-6.54 2.88-9.13 0.45z"/>
  </g>
</svg>