<svg class="shirtOverlay" width="86" height="380" viewBox="202.715 584.407 86.593 380.048" xmlns="http://www.w3.org/2000/svg"><defs><linearGradient id="h" y2="125.75" gradientUnits="userSpaceOnUse" x2="203.16" gradientTransform="rotate(-14.675 194.429 -370.835)" y1="70.432" x1="157.16"><stop offset="0" stop-color="#2b6b2d"/><stop offset="1" stop-color="#0f0f0f"/></linearGradient><linearGradient id="b" y2="66.323" gradientUnits="userSpaceOnUse" x2="107.69" y1="93.238" x1="107.93" gradientTransform="matrix(3.27638 0 .00093 1.80478 -192.474 2.674)"><stop offset="0" stop-color="#fff"/><stop offset="1" stop-color="#fff" stop-opacity="0"/></linearGradient><linearGradient id="i" y2="88.461" gradientUnits="userSpaceOnUse" x2="110.25" gradientTransform="translate(171.84 56.715)" y1="91.289" x1="118.62"><stop offset="0" stop-color="#280b0b" stop-opacity=".715"/><stop offset="1" stop-color="#280b0b" stop-opacity="0"/></linearGradient><linearGradient id="f" y2="125.75" gradientUnits="userSpaceOnUse" x2="203.16" gradientTransform="rotate(-14.675 175.17 -177.937)" y1="70.432" x1="157.16"><stop offset="0" stop-color="#2b6b2d"/><stop offset="1" stop-color="#0f0f0f"/></linearGradient><linearGradient id="g" y2="89.698" gradientUnits="userSpaceOnUse" x2="113.43" gradientTransform="translate(122.87 58.306)" y1="91.289" x1="118.62"><stop offset="0" stop-color="#280b0b"/><stop offset="1" stop-color="#280b0b" stop-opacity="0"/></linearGradient><linearGradient id="d" y2="125.75" gradientUnits="userSpaceOnUse" x2="203.16" gradientTransform="rotate(-14.675 133.244 17.627)" y1="70.432" x1="157.16"><stop offset="0" stop-color="#2b6b2d"/><stop offset="1" stop-color="#0f0f0f"/></linearGradient><linearGradient id="e" y2="89.698" gradientUnits="userSpaceOnUse" x2="113.43" gradientTransform="translate(71.96 54.063)" y1="91.289" x1="118.62"><stop offset="0" stop-color="#280b0b"/><stop offset="1" stop-color="#280b0b" stop-opacity="0"/></linearGradient><linearGradient id="a" y2="125.75" gradientUnits="userSpaceOnUse" x2="203.16" gradientTransform="rotate(-14.675 21.485 190.574)" y1="70.432" x1="157.16"><stop offset="0" stop-color="#2b6b2d"/><stop offset="1" stop-color="#0f0f0f"/></linearGradient><linearGradient id="c" y2="89.698" gradientUnits="userSpaceOnUse" x2="113.43" y1="91.289" x1="118.62"><stop offset="0" stop-color="#280b0b"/><stop offset="1" stop-color="#280b0b" stop-opacity="0"/></linearGradient><linearGradient id="o" y2="125.75" gradientUnits="userSpaceOnUse" x2="203.16" gradientTransform="rotate(-14.675 -83.086 -317.36)" y1="70.432" x1="157.16"><stop offset="0" stop-color="#2b6b2d"/><stop offset="1" stop-color="#0f0f0f"/></linearGradient><linearGradient id="k" y2="66.323" gradientUnits="userSpaceOnUse" x2="107.69" y1="93.238" x1="107.93" gradientTransform="matrix(1.09398 0 -.07272 .9228 49.064 10.616)"><stop offset="0" stop-color="#fff"/><stop offset="1" stop-color="#fff" stop-opacity="0"/></linearGradient><linearGradient id="p" y2="89.698" gradientUnits="userSpaceOnUse" x2="113.43" y1="91.289" x1="118.62"><stop offset="0" stop-color="#280b0b"/><stop offset="1" stop-color="#280b0b" stop-opacity="0"/></linearGradient><linearGradient id="q" y2="125.75" gradientUnits="userSpaceOnUse" x2="203.16" gradientTransform="rotate(-14.675 133.244 17.627)" y1="70.432" x1="157.16"><stop offset="0" stop-color="#2b6b2d"/><stop offset="1" stop-color="#0f0f0f"/></linearGradient><linearGradient id="r" y2="89.698" gradientUnits="userSpaceOnUse" x2="113.43" gradientTransform="translate(71.96 54.063)" y1="91.289" x1="118.62"><stop offset="0" stop-color="#280b0b"/><stop offset="1" stop-color="#280b0b" stop-opacity="0"/></linearGradient><linearGradient id="j" y2="125.75" gradientUnits="userSpaceOnUse" x2="203.16" gradientTransform="rotate(-14.675 175.17 -177.937)" y1="70.432" x1="157.16"><stop offset="0" stop-color="#2b6b2d"/><stop offset="1" stop-color="#0f0f0f"/></linearGradient><linearGradient id="l" y2="89.698" gradientUnits="userSpaceOnUse" x2="113.43" gradientTransform="translate(122.87 58.306)" y1="91.289" x1="118.62"><stop offset="0" stop-color="#280b0b"/><stop offset="1" stop-color="#280b0b" stop-opacity="0"/></linearGradient><linearGradient id="m" y2="125.75" gradientUnits="userSpaceOnUse" x2="203.16" gradientTransform="rotate(-14.675 194.429 -370.835)" y1="70.432" x1="157.16"><stop offset="0" stop-color="#2b6b2d"/><stop offset="1" stop-color="#0f0f0f"/></linearGradient><linearGradient id="n" y2="88.461" gradientUnits="userSpaceOnUse" x2="110.25" gradientTransform="translate(171.84 56.715)" y1="91.289" x1="118.62"><stop offset="0" stop-color="#280b0b" stop-opacity=".715"/><stop offset="1" stop-color="#280b0b" stop-opacity="0"/></linearGradient></defs><g transform="matrix(.03805 .03883 .02462 .22036 214.698 640.89)"><path style="block-progression:tb;text-indent:0;text-transform:none" d="M102.342 179.74c-1.102.071-57.148 7.678-57.148 7.678l-.275 3.38s85.214-28.933 134.385 33.547c49.17 62.485 61.015 80.283 276.155 48.779 321.3-47.054 452.39-157.71 598.88-163.88 100.74-4.241-155.546 2.431-96.516 18.328 59.028 15.898-78.268 26.179 24.672-12.717 85.24-32.205 192.635-23.865 219.583-35.14 98.743-41.314-172.195 34.249-171.011 27.226 1.184-7.023 66.082-8.254 66.082-8.254l-.828-2.759-2.897.069h-3.655v7.656h.413c-61.775 39.646 46.087-20.36 49.013-19.946 5.807.822 123.535-26.794 110.694-22.502-87.294 29.177-128.84 14.476-213.312 46.39-101.77 38.45-17.26 37.614-75.62 21.896-58.362-15.718 195.09-31.991 93.03-27.694-150.03 6.317-279.72 117.02-599.64 163.88-213.46 31.27-221.674 14.147-268.984-45.963-43.906-55.8-133.284-16.398-132.865-25.068h.344v-7.311h-4.207s53.75-7.598 53.707-7.595z" color="#000" fill="#1b351b"/><path d="M108.877 196.529c-9.196-3.722-38.284 6.293-29.348 19.392 8.278 12.256 28.969-11.113 29.348-19.392z" stroke="#000" fill="#ff2a2a" stroke-width=".49891"/><path d="M132.61 37.279l-3.593 20.599-8.081 3.801-6.155 24.988 16.984 3.71 16.825-.104-.745-25.724-7.098-5.42.833-20.893-4.139-.441-.69-.074-4.14-.441-.001-.001z" fill="url(#a)" transform="scale(.4989) rotate(49.736 -174.49 320.692)"/><path d="M110.636 191.397c-1.468-1.155-2.823-2.104-3.48-1.793.091 1.17 3.917 5.95 6.142 9.182-2.607-4.493-4.518-8.166-2.662-7.389z" opacity=".43" fill="#18c242"/><path d="M92.843 198.949c-8.06 1.751-17.897 7.901-12.355 16.676-1.733-8.784 5.64-13.77 12.355-16.676z" opacity=".504" fill="#fff"/><path d="M116.14 74.736c0 10.349-3.72 18.738-8.308 18.738-4.589 0-8.309-8.389-8.309-18.738s3.72-18.738 8.309-18.738c4.588 0 8.308 8.389 8.308 18.738z" transform="matrix(.24569 .44517 -.41333 .2738 100.68 135.807)" opacity=".712" fill="url(#b)"/><path d="M97.678 205.137c-1.319.745-2.724.753-3.138.02-.414-.735.318-1.933 1.637-2.678 1.319-.745 2.724-.753 3.138-.02.415.735-.318 1.933-1.637 2.678z" fill="#fff"/><path d="M118.97 59.003s.24 34.562-14.496 45.785c0 0 21.92 3.359 14.496-45.785z" transform="matrix(.32245 .3807 -.3807 .32245 87.247 142.466)" opacity=".487" fill="url(#c)"/><path d="M139.579 206.103c-9.782-1.655-36.033 14.385-24.487 25.254 10.722 10.187 25.898-17.087 24.487-25.254z" stroke="#000" fill="#00f" stroke-width=".49891"/><path d="M180.07 59.95l-3.593 20.599-8.081 3.801-6.155 24.988 16.984 3.71 16.825-.104-.745-25.724-7.098-5.42.833-20.893-4.139-.441-.69-.074-4.14-.441-.001-.001z" fill="url(#d)" transform="scale(.4989) rotate(37.307 -245.845 395.881)"/><path d="M140.192 200.713c-1.682-.811-3.21-1.447-3.784-1.002.34 1.123 5.105 4.967 7.974 7.645-3.513-3.827-6.17-7.002-4.19-6.643z" opacity=".43" fill="#18c242"/><path d="M124.44 211.919c-7.494 3.445-15.777 11.568-8.476 18.944-3.583-8.205 2.545-14.66 8.476-18.944z" opacity=".504" fill="#fff"/><path d="M188.115 137.556c.009 18.677-12.17 33.818-27.205 33.818-15.034 0-27.229-15.141-27.239-33.818-.009-18.677 12.17-33.818 27.205-33.818 15.034 0 27.229 15.141 27.239 33.818z" transform="matrix(.28657 .32593 -.40021 .4134 125.81 108.681)" opacity=".712" fill="url(#b)"/><path d="M130.496 216.92c-1.127 1.011-2.497 1.322-3.06.695-.563-.628-.105-1.956 1.023-2.967 1.127-1.011 2.497-1.322 3.06-.694.563.627.105 1.955-1.023 2.966z" fill="#fff"/><path d="M190.93 113.07s.24 34.562-14.496 45.785c0 0 21.92 3.359 14.496-45.785z" opacity=".487" fill="url(#e)" transform="scale(.4989) rotate(37.307 -245.845 395.881)"/><path d="M160.037 221.667c-9.92-.06-33.248 19.998-20.102 28.867 12.222 8.328 22.81-21.034 20.102-28.867z" stroke="#000" fill="#0f0" stroke-width=".49891"/><path d="M230.99 64.192l-3.593 20.599-8.081 3.801-6.155 24.988 16.984 3.71 16.825-.104-.745-25.724-7.098-5.42.833-20.893-4.139-.441-.69-.074-4.14-.441-.001-.001z" fill="url(#f)" transform="rotate(28.044 -210.364 221.685) scale(.49891)"/><path d="M159.775 216.249c-1.791-.53-3.4-.912-3.897-.38.517 1.053 5.839 4.08 9.101 6.261-4.083-3.21-7.216-5.917-5.204-5.881z" opacity=".43" fill="#18c242"/><path d="M146.032 229.843c-6.841 4.606-13.709 13.957-5.316 20.062-4.857-7.522.152-14.88 5.316-20.062z" opacity=".504" fill="#fff"/><path d="M116.14 74.736c0 10.349-3.72 18.738-8.308 18.738-4.589 0-8.309-8.389-8.309-18.738s3.72-18.738 8.309-18.738c4.588 0 8.308 8.389 8.308 18.738z" transform="matrix(.39283 .32284 -.28286 .40719 129.973 168.273)" opacity=".712" fill="url(#b)"/><path d="M152.81 233.803c-.95 1.18-2.253 1.707-2.91 1.178-.656-.529-.418-1.913.532-3.093.95-1.179 2.253-1.706 2.91-1.177.656.528.418 1.913-.532 3.092z" fill="#fff"/><path d="M241.84 117.31s.24 34.562-14.496 45.785c0 0 21.92 3.359 14.496-45.785z" opacity=".487" fill="url(#g)" transform="rotate(28.044 -210.364 221.685) scale(.49891)"/><path d="M182.066 245.215c-9.889.796-31.4 22.79-17.54 30.492 12.895 7.243 20.913-22.921 17.54-30.492z" stroke="#000" fill="#ff0" stroke-width=".49891"/><path d="M280.48 62.778l-3.593 20.599-8.081 3.801-6.155 24.988 16.984 3.71 16.825-.104-.745-25.724-7.098-5.42.833-20.893-4.139-.441-.69-.074-4.14-.441-.001-.001z" fill="url(#h)" transform="scale(.4989) rotate(23.099 -648.98 492.942)"/><path d="M181.338 239.84c-1.83-.374-3.467-.615-3.915-.043.606 1.005 6.169 3.562 9.607 5.453-4.345-2.847-7.7-5.273-5.692-5.41z" opacity=".43" fill="#18c242"/><path d="M168.818 254.57c-6.42 5.179-12.456 15.086-3.568 20.445-5.487-7.075-1.131-14.837 3.568-20.445z" fill="#fff"/><path d="M116.14 74.736c0 10.349-3.72 18.738-8.308 18.738-4.589 0-8.309-8.389-8.309-18.738s3.72-18.738 8.309-18.738c4.588 0 8.308 8.389 8.308 18.738z" transform="matrix(.4192 .28778 -.24671 .43006 147.516 194.613)" fill="url(#b)"/><path d="M175.917 257.93c-.845 1.258-2.097 1.895-2.797 1.425-.7-.47-.582-1.87.263-3.127.845-1.257 2.097-1.895 2.797-1.424.7.47.581 1.87-.263 3.127z" fill="#fff"/><path d="M290.81 115.72s-14.609 13.348-14.496 45.785c0 0 21.92 3.359 14.496-45.785z" fill="url(#i)" transform="scale(.4989) rotate(23.099 -648.98 492.942)"/><g><path d="M203.147 266.794c-8.784 4.612-19.942 33.281-4.17 34.928 14.702 1.604 10.242-29.288 4.17-34.928z" stroke="#000" fill="#ff2a2a" stroke-width=".49891"/><path d="M132.61 37.279l-3.593 20.599-8.081 3.801-6.155 24.988 16.984 3.71 16.825-.104-.745-25.724-7.098-5.42.833-20.893-4.139-.441-.69-.074-4.14-.441-.001-.001z" fill="url(#a)" transform="translate(135.689 232.695) scale(.49891)"/><path d="M200.368 262.135c-1.83.374-3.43.794-3.617 1.497.951.686 7.07.856 10.976 1.247-5.114-.915-9.152-1.83-7.36-2.744z" opacity=".43" fill="#18c242"/><path d="M194.63 280.594c-3.872 7.282-5.538 18.763 4.74 20.205-7.823-4.355-6.862-13.203-4.74-20.205z" opacity=".504" fill="#fff"/><path d="M116.14 74.736c0 10.349-3.72 18.738-8.308 18.738-4.589 0-8.309-8.389-8.309-18.738s3.72-18.738 8.309-18.738c4.588 0 8.308 8.389 8.308 18.738z" transform="matrix(.4985 .10025 -.05821 .49237 151.513 233.803)" opacity=".712" fill="url(#b)"/><path d="M202.477 280.903c-.284 1.488-1.185 2.565-2.013 2.407-.828-.158-1.27-1.492-.985-2.98.284-1.487 1.185-2.564 2.013-2.406.828.158 1.27 1.492.985 2.98z" fill="#fff"/><path d="M118.97 59.003s.24 34.562-14.496 45.785c0 0 21.92 3.359 14.496-45.785z" transform="translate(147.912 248.358) scale(.49891)" opacity=".487" fill="url(#c)"/></g><g><path d="M221.954 277.874c-9.22 3.66-23.336 30.995-7.826 34.294 14.452 3.144 13.27-28.046 7.826-34.294z" stroke="#000" fill="#00f" stroke-width=".4989"/><path d="M180.07 59.95l-3.593 20.599-8.081 3.801-6.155 24.988 16.984 3.71 16.825-.104-.745-25.724-7.098-5.42.833-20.893-4.139-.441-.69-.074-4.14-.441-.001-.001z" fill="url(#d)" transform="scale(.4989) rotate(6.045 -4098.537 2807.009)"/><path d="M219.68 272.948c-1.858.18-3.493.429-3.754 1.108.874.782 6.942 1.596 10.784 2.396-4.989-1.448-8.908-2.783-7.03-3.504z" opacity=".43" fill="#18c242"/><path d="M212.031 290.701c-4.617 6.834-7.483 18.076 2.586 20.593-7.32-5.155-5.433-13.853-2.586-20.593z" opacity=".504" fill="#fff"/><path d="M116.14 74.736c0 10.349-3.72 18.738-8.308 18.738-4.589 0-8.309-8.389-8.309-18.738s3.72-18.738 8.309-18.738c4.588 0 8.308 8.389 8.308 18.738z" transform="matrix(.48516 .15218 -.10974 .4835 174.082 239.63)" opacity=".712" fill="url(#b)"/><path d="M219.804 291.834c-.44 1.449-1.45 2.426-2.256 2.181-.807-.244-1.105-1.617-.665-3.067.439-1.449 1.449-2.426 2.255-2.181.807.244 1.105 1.617.666 3.067z" fill="#fff"/><path d="M190.93 113.07s.24 34.562-14.496 45.785c0 0 21.92 3.359 14.496-45.785z" opacity=".487" fill="url(#e)" transform="scale(.4989) rotate(6.045 -4098.537 2807.009)"/></g><g><path d="M259.338 287.486c-8.784 4.612-19.942 33.281-4.17 34.928 14.702 1.604 10.243-29.288 4.17-34.928z" stroke="#000" fill="#0f0" stroke-width=".49891"/><path d="M230.99 64.192l-3.593 20.599-8.081 3.801-6.155 24.988 16.984 3.71 16.825-.104-.745-25.724-7.098-5.42.833-20.893-4.139-.441-.69-.074-4.14-.441-.001-.001z" fill="url(#f)" transform="translate(142.798 239.96) scale(.49891)"/><path d="M256.56 282.827c-1.83.374-3.43.794-3.618 1.497.951.686 7.071.856 10.976 1.247-5.113-.915-9.152-1.83-7.359-2.744z" opacity=".43" fill="#18c242"/><path d="M250.822 301.286c-3.873 7.282-5.538 18.764 4.74 20.206-7.824-4.355-6.862-13.204-4.74-20.206z" opacity=".504" fill="#fff"/><path d="M116.14 74.736c0 10.349-3.72 18.738-8.308 18.738-4.589 0-8.309-8.389-8.309-18.738s3.72-18.738 8.309-18.738c4.588 0 8.308 8.389 8.308 18.738z" transform="matrix(.4985 .10025 -.05821 .49237 207.7 254.495)" opacity=".712" fill="url(#b)"/><path d="M258.665 301.595c-.284 1.488-1.185 2.565-2.013 2.407-.828-.158-1.27-1.492-.985-2.98.284-1.487 1.185-2.565 2.013-2.406.828.158 1.27 1.492.985 2.98z" fill="#fff"/><path d="M241.84 117.31s.24 34.562-14.496 45.785c0 0 21.92 3.359 14.496-45.785z" opacity=".487" fill="url(#g)" transform="translate(142.798 239.96) scale(.49891)"/></g><g><path d="M289.137 292.685c-7.493 6.502-11.786 36.965 3.944 34.955 14.678-1.808 3.26-30.856-3.944-34.955z" stroke="#000" fill="#ff0" stroke-width=".4989"/><path d="M280.48 62.778l-3.593 20.599-8.081 3.801-6.155 24.988 16.984 3.71 16.825-.104-.745-25.724-7.098-5.42.833-20.893-4.139-.441-.69-.074-4.14-.441-.001-.001z" fill="url(#h)" transform="rotate(-13.244 1273.971 -467.222) scale(.4989)"/><path d="M285.365 288.787c-1.696.783-3.156 1.559-3.178 2.286 1.083.45 7.079-.787 10.97-1.301-5.187.281-9.328.316-7.792-.985z" opacity=".43" fill="#18c242"/><path d="M284.01 308.071c-2.101 7.976-1.092 19.533 9.243 18.582-8.613-2.446-9.704-11.28-9.243-18.582z" fill="#fff"/><path d="M116.14 74.736c0 10.349-3.72 18.738-8.308 18.738-4.589 0-8.309-8.389-8.309-18.738s3.72-18.738 8.309-18.738c4.588 0 8.308 8.389 8.308 18.738z" transform="matrix(.5082 -.01664 .05615 .4926 231.32 272.403)" fill="url(#b)"/><path d="M291.72 306.572c.064 1.513-.567 2.768-1.409 2.804-.842.036-1.577-1.162-1.641-2.675-.064-1.513.566-2.768 1.409-2.804.842-.036 1.576 1.162 1.64 2.675z" fill="#fff"/><path d="M290.81 115.72s-14.609 13.348-14.496 45.785c0 0 21.92 3.359 14.496-45.785z" fill="url(#i)" transform="rotate(-13.244 1273.971 -467.222) scale(.4989)"/></g><g><path d="M314.927 293.97c-6.357 7.616-5.722 38.374 9.483 33.874 14.2-4.132-1.717-30.98-9.483-33.874z" stroke="#000" fill="#ff2a2a" stroke-width=".49891"/><path d="M132.61 37.279l-3.593 20.599-8.081 3.801-6.155 24.988 16.984 3.71 16.825-.104-.745-25.724-7.098-5.42.833-20.893-4.139-.441-.69-.074-4.14-.441-.001-.001z" fill="url(#a)" transform="matrix(.4611 -.19051 .19051 .4611 239.56 288.214)"/><path d="M310.58 290.725c-1.549 1.045-2.867 2.044-2.772 2.765 1.142.27 6.862-1.91 10.62-3.039-5.074 1.108-9.156 1.804-7.848.274z" opacity=".43" fill="#18c242"/><path d="M312.325 309.976c-.798 8.209 2.047 19.456 12.096 16.865-8.893-1.038-11.383-9.583-12.096-16.865z" opacity=".504" fill="#fff"/><path d="M116.14 74.736c0 10.349-3.72 18.738-8.308 18.738-4.589 0-8.309-8.389-8.309-18.738s3.72-18.738 8.309-18.738c4.588 0 8.308 8.389 8.308 18.738z" transform="matrix(.499 -.0977 .13421 .47728 254.61 283.196)" opacity=".712" fill="url(#b)"/><path d="M319.696 307.266c.305 1.483-.116 2.823-.942 2.993-.825.17-1.742-.894-2.048-2.378-.305-1.483.116-2.823.942-2.993.826-.17 1.742.894 2.048 2.378z" fill="#fff"/><path d="M118.97 59.003s.24 34.562-14.496 45.785c0 0 21.92 3.359 14.496-45.785z" transform="matrix(.4611 -.19051 .19051 .4611 256.839 298.022)" opacity=".487" fill="url(#c)"/></g><g><path d="M347.475 293.739c-7.078 6.952-9.479 37.622 6.096 34.644 14.539-2.711 1.347-30.998-6.096-34.644z" stroke="#000" fill="#00f" stroke-width=".49891"/><path d="M180.07 59.95l-3.593 20.599-8.081 3.801-6.155 24.988 16.984 3.71 16.825-.104-.745-25.724-7.098-5.42.833-20.893-4.139-.441-.69-.074-4.14-.441-.001-.001z" fill="url(#d)" transform="matrix(.47764 -.14411 .14411 .47764 247.108 276.59)"/><path d="M343.468 290.081c-1.643.887-3.053 1.751-3.03 2.478 1.109.382 7.017-1.223 10.868-1.976-5.16.601-9.29.892-7.838-.502z" opacity=".43" fill="#18c242"/><path d="M343.308 309.412c-1.604 8.09.118 19.563 10.374 17.975-8.748-1.91-10.383-10.659-10.374-17.975z" opacity=".504" fill="#fff"/><path d="M116.14 74.736c0 10.349-3.72 18.738-8.308 18.738-4.589 0-8.309-8.389-8.309-18.738s3.72-18.738 8.309-18.738c4.588 0 8.308 8.389 8.308 18.738z" transform="matrix(.5062 -.04802 .08649 .4882 288.513 277.069)" opacity=".712" fill="url(#b)"/><path d="M350.91 307.44c.158 1.505-.394 2.797-1.232 2.885-.838.088-1.646-1.062-1.803-2.568-.158-1.506.394-2.798 1.232-2.886.838-.088 1.646 1.062 1.804 2.568z" fill="#fff"/><path d="M190.93 113.07s.24 34.562-14.496 45.785c0 0 21.92 3.359 14.496-45.785z" opacity=".487" fill="url(#e)" transform="matrix(.47764 -.14411 .14411 .47764 247.108 276.59)"/></g><g><path d="M374.727 290.568c-6.306 7.659-5.465 38.411 9.71 33.81 14.173-4.227-1.925-30.968-9.71-33.81z" stroke="#000" fill="#0f0" stroke-width=".4989"/><path d="M230.99 64.192l-3.593 20.599-8.081 3.801-6.155 24.988 16.984 3.71 16.825-.104-.745-25.724-7.098-5.42.833-20.893-4.139-.441-.69-.074-4.14-.441-.001-.001z" fill="url(#f)" transform="matrix(.45981 -.1936 .1936 .45981 248.878 291.99)"/><path d="M370.358 287.353c-1.542 1.055-2.853 2.062-2.753 2.783 1.143.263 6.85-1.955 10.6-3.11-5.068 1.141-9.144 1.865-7.847.327z" opacity=".43" fill="#18c242"/><path d="M372.233 306.592c-.743 8.214 2.177 19.442 12.209 16.783-8.9-.978-11.447-9.507-12.209-16.783z" opacity=".504" fill="#fff"/><path d="M116.14 74.736c0 10.349-3.72 18.738-8.308 18.738-4.589 0-8.309-8.389-8.309-18.738s3.72-18.738 8.309-18.738c4.588 0 8.308 8.389 8.308 18.738z" transform="matrix(.49833 -.10105 .13741 .47637 314.335 280.2)" opacity=".712" fill="url(#b)"/><path d="M379.582 303.833c.315 1.481-.097 2.824-.922 3-.824.175-1.748-.883-2.064-2.364-.315-1.482.098-2.825.922-3 .824-.176 1.748.883 2.064 2.364z" fill="#fff"/><path d="M241.84 117.31s.24 34.562-14.496 45.785c0 0 21.92 3.359 14.496-45.785z" opacity=".487" fill="url(#g)" transform="matrix(.45981 -.1936 .1936 .45981 248.878 291.99)"/></g><g><path d="M409.4 290.461c-6.725 7.294-7.605 38.046 7.803 34.3 14.387-3.428-.19-31.027-7.804-34.3z" stroke="#000" fill="#ff0" stroke-width=".49891"/><path d="M280.48 62.778l-3.593 20.599-8.081 3.801-6.155 24.988 16.984 3.71 16.825-.104-.745-25.724-7.098-5.42.833-20.893-4.139-.441-.69-.074-4.14-.441-.001-.001z" fill="url(#h)" transform="matrix(.46992 -.16758 .16758 .46992 260.648 293.8)"/><path d="M405.217 287.006c-1.598.968-2.964 1.9-2.904 2.625 1.126.327 6.947-1.569 10.757-2.512-5.124.856-9.234 1.35-7.853-.113z" opacity=".43" fill="#18c242"/><path d="M406.014 306.322c-1.202 8.16 1.086 19.533 11.25 17.44-8.83-1.475-10.897-10.132-11.25-17.44z" fill="#fff"/><path d="M116.14 74.736c0 10.349-3.72 18.738-8.308 18.738-4.589 0-8.309-8.389-8.309-18.738s3.72-18.738 8.309-18.738c4.588 0 8.308 8.389 8.308 18.738z" transform="matrix(.5032 -.07302 .11055 .48331 349.686 276.73)" fill="url(#b)"/><path d="M413.51 303.975c.231 1.496-.256 2.814-1.089 2.943-.833.13-1.696-.98-1.928-2.476-.232-1.496.255-2.814 1.088-2.943.833-.13 1.696.98 1.928 2.476z" fill="#fff"/><path d="M290.81 115.72s-14.609 13.348-14.496 45.785c0 0 21.92 3.359 14.496-45.785z" fill="url(#i)" transform="matrix(.46992 -.16758 .16758 .46992 260.648 293.8)"/></g><g><path d="M841.238 181.455c-7.723 6.227-13.112 36.515 2.68 35.074 14.733-1.276 4.37-30.718-2.68-35.074z" stroke="#000" fill="#ff2a2a" stroke-width=".4989"/><path d="M132.61 37.279l-3.593 20.599-8.081 3.801-6.155 24.988 16.984 3.71 16.825-.104-.745-25.724-7.098-5.42.833-20.893-4.139-.441-.69-.074-4.14-.441-.001-.001z" fill="url(#a)" transform="rotate(-11.175 1207.297 -3846.411) scale(.4989)"/><path d="M837.609 177.423c-1.723.722-3.21 1.444-3.258 2.17 1.066.489 7.102-.531 11.009-.904-5.194.094-9.332-.021-7.751-1.266z" opacity=".43" fill="#18c242"/><path d="M835.558 196.643c-2.387 7.895-1.796 19.481 8.566 18.904-8.518-2.756-9.29-11.623-8.566-18.904z" opacity=".504" fill="#fff"/><path d="M116.14 74.736c0 10.349-3.72 18.738-8.308 18.738-4.589 0-8.309-8.389-8.309-18.738s3.72-18.738 8.309-18.738c4.588 0 8.308 8.389 8.308 18.738z" transform="matrix(.50846 .00172 .03833 .4943 784.19 159.099)" opacity=".712" fill="url(#b)"/><path d="M843.316 195.426c.01 1.515-.666 2.747-1.508 2.752-.843.005-1.534-1.218-1.544-2.732-.01-1.515.666-2.747 1.509-2.752.842-.005 1.534 1.218 1.543 2.732z" fill="#fff"/><path d="M118.97 59.003s.24 34.562-14.496 45.785c0 0 21.92 3.359 14.496-45.785z" transform="rotate(-11.175 1281.22 -3916.706) scale(.4989)" opacity=".487" fill="url(#c)"/></g><g><path d="M772.083 203.316c-4.468 8.858 3.114 38.673 16.906 30.848 12.897-7.24-8.686-29.787-16.906-30.848z" stroke="#000" fill="#00f" stroke-width=".49891"/><path d="M180.07 59.95l-3.593 20.599-8.081 3.801-6.155 24.988 16.984 3.71 16.825-.104-.745-25.724-7.098-5.42.833-20.893-4.139-.441-.69-.074-4.14-.441-.001-.001z" fill="url(#d)" transform="rotate(-35.534 678.002 -938.194) scale(.49891)"/><path d="M767.114 201.14c-1.272 1.368-2.33 2.64-2.074 3.32 1.173.006 6.252-3.413 9.657-5.364-4.692 2.227-8.51 3.83-7.583 2.044z" opacity=".43" fill="#18c242"/><path d="M773.174 219.497c1.08 8.176 6.398 18.488 15.6 13.688-8.897 1.003-13.257-6.757-15.6-13.688z" opacity=".504" fill="#fff"/><path d="M116.14 74.736c0 10.349-3.72 18.738-8.308 18.738-4.589 0-8.309-8.389-8.309-18.738s3.72-18.738 8.309-18.738c4.588 0 8.308 8.389 8.308 18.738z" transform="matrix(.46392 -.20814 .23879 .43451 710.891 206.477)" opacity=".712" fill="url(#b)"/><path d="M779.74 215.186c.633 1.375.525 2.776-.24 3.129-.766.352-1.9-.477-2.533-1.853-.634-1.375-.526-2.776.24-3.129.765-.352 1.899.477 2.532 1.853z" fill="#fff"/><path d="M190.93 113.07s.24 34.562-14.496 45.785c0 0 21.92 3.359 14.496-45.785z" opacity=".487" fill="url(#e)" transform="rotate(-35.534 678.002 -938.194) scale(.49891)"/></g><g><path d="M808.825 193.043c-5.792 8.055-2.941 38.686 11.9 33.102 13.866-5.144-3.945-30.775-11.9-33.102z" stroke="#000" fill="#0f0" stroke-width=".49891"/><path d="M230.99 64.192l-3.593 20.599-8.081 3.801-6.155 24.988 16.984 3.71 16.825-.104-.745-25.724-7.098-5.42.833-20.893-4.139-.441-.69-.074-4.14-.441-.001-.001z" fill="url(#f)" transform="matrix(.44617 -.22325 .22325 .44617 683.338 202.69)"/><path d="M804.255 190.12c-1.469 1.153-2.711 2.245-2.565 2.957 1.158.188 6.707-2.399 10.374-3.796-4.982 1.47-9.003 2.459-7.809.839z" opacity=".43" fill="#18c242"/><path d="M807.384 209.195c-.204 8.245 3.444 19.258 13.28 15.95-8.944-.395-12.044-8.738-13.28-15.95z" opacity=".504" fill="#fff"/><path d="M116.14 74.736c0 10.349-3.72 18.738-8.308 18.738-4.589 0-8.309-8.389-8.309-18.738s3.72-18.738 8.309-18.738c4.588 0 8.308 8.389 8.308 18.738z" transform="matrix(.49066 -.13342 .16826 .46637 747.884 186.646)" opacity=".712" fill="url(#b)"/><path d="M814.537 205.962c.412 1.457.088 2.824-.724 3.053-.81.23-1.802-.766-2.214-2.224-.411-1.457-.087-2.824.724-3.053.811-.23 1.802.766 2.214 2.224z" fill="#fff"/><path d="M241.84 117.31s.24 34.562-14.496 45.785c0 0 21.92 3.359 14.496-45.785z" opacity=".487" fill="url(#g)" transform="matrix(.44617 -.22325 .22325 .44617 683.338 202.69)"/></g><g><path d="M869.501 170.441c-7.893 6.01-14.124 36.136 1.701 35.136 14.765-.865 5.226-30.584-1.7-35.136z" stroke="#000" fill="#ff0" stroke-width=".49891"/><path d="M280.48 62.778l-3.593 20.599-8.081 3.801-6.155 24.988 16.984 3.71 16.825-.104-.745-25.724-7.098-5.42.833-20.893-4.139-.441-.69-.074-4.14-.441-.001-.001z" fill="url(#h)" transform="rotate(-9.582 1243.037 -4236.585) scale(.49891)"/><path d="M865.986 166.31c-1.743.674-3.25 1.354-3.318 2.078 1.053.519 7.115-.333 11.03-.597-5.194-.05-9.328-.28-7.712-1.48z" opacity=".43" fill="#18c242"/><path d="M863.4 185.469c-2.606 7.825-2.337 19.423 8.037 19.135-8.438-2.992-8.963-11.878-8.036-19.135z" fill="#fff"/><path d="M116.14 74.736c0 10.349-3.72 18.738-8.308 18.738-4.589 0-8.309-8.389-8.309-18.738s3.72-18.738 8.309-18.738c4.588 0 8.308 8.389 8.308 18.738z" transform="matrix(.50823 .01588 .02455 .49519 813.099 146.505)" fill="url(#b)"/><path d="M871.19 184.465c-.032 1.514-.741 2.727-1.584 2.708-.843-.018-1.5-1.26-1.467-2.774.033-1.514.742-2.726 1.585-2.708.843.018 1.5 1.26 1.467 2.774z" fill="#fff"/><path d="M290.81 115.72s-14.609 13.348-14.496 45.785c0 0 21.92 3.359 14.496-45.785z" fill="url(#i)" transform="rotate(-9.582 1243.037 -4236.585) scale(.49891)"/></g><g><path d="M492.755 277.002c-5.826 8.03-3.11 38.673 11.755 33.154 13.889-5.083-3.81-30.792-11.755-33.154z" stroke="#000" fill="#ff2a2a" stroke-width=".4989"/><path d="M132.61 37.279l-3.593 20.599-8.081 3.801-6.155 24.988 16.984 3.71 16.825-.104-.745-25.724-7.098-5.42.833-20.893-4.139-.441-.69-.074-4.14-.441-.001-.001z" fill="url(#a)" transform="rotate(-26.33 799.32 -753.559) scale(.4989)"/><path d="M488.199 274.06c-1.475 1.147-2.722 2.233-2.578 2.945 1.157.194 6.717-2.369 10.39-3.75-4.988 1.448-9.013 2.42-7.812.805z" opacity=".43" fill="#18c242"/><path d="M491.244 293.148c-.241 8.244 3.359 19.273 13.21 16.007-8.943-.434-12.006-8.79-13.21-16.007z" opacity=".504" fill="#fff"/><path d="M116.14 74.736c0 10.349-3.72 18.738-8.308 18.738-4.589 0-8.309-8.389-8.309-18.738s3.72-18.738 8.309-18.738c4.588 0 8.308 8.389 8.308 18.738z" transform="matrix(.49123 -.13126 .16622 .4671 431.847 270.337)" opacity=".712" fill="url(#b)"/><path d="M498.414 289.945c.405 1.459.075 2.825-.737 3.05-.812.226-1.8-.774-2.204-2.234-.406-1.459-.076-2.824.737-3.05.812-.225 1.799.775 2.204 2.234z" fill="#fff"/><path d="M118.97 59.003s.24 34.562-14.496 45.785c0 0 21.92 3.359 14.496-45.785z" transform="rotate(-26.33 826.687 -787.517) scale(.4989)" opacity=".487" fill="url(#c)"/></g><g><path d="M452.031 284.71c-5.701 8.12-2.509 38.718 12.27 32.968 13.807-5.299-4.29-30.73-12.27-32.967z" stroke="#000" fill="#00f" stroke-width=".49891"/><path d="M180.07 59.95l-3.593 20.599-8.081 3.801-6.155 24.988 16.984 3.71 16.825-.104-.745-25.724-7.098-5.42.833-20.893-4.139-.441-.69-.074-4.14-.441-.001-.001z" fill="url(#d)" transform="rotate(-27.222 765.751 -580.193) scale(.49891)"/><path d="M447.429 281.84c-1.456 1.169-2.687 2.274-2.532 2.985 1.16.175 6.68-2.474 10.33-3.912-4.964 1.526-8.974 2.56-7.798.926z" opacity=".43" fill="#18c242"/><path d="M450.771 300.88c-.112 8.246 3.659 19.218 13.458 15.799-8.949-.294-12.142-8.603-13.458-15.8z" opacity=".504" fill="#fff"/><path d="M116.14 74.736c0 10.349-3.72 18.738-8.308 18.738-4.589 0-8.309-8.389-8.309-18.738s3.72-18.738 8.309-18.738c4.588 0 8.308 8.389 8.308 18.738z" transform="matrix(.48914 -.13889 .17346 .46446 391.026 278.993)" opacity=".712" fill="url(#b)"/><path d="M457.891 297.563c.428 1.452.12 2.823-.69 3.061-.808.238-1.81-.746-2.238-2.2-.428-1.452-.12-2.822.69-3.06.808-.239 1.81.746 2.238 2.199z" fill="#fff"/><path d="M190.93 113.07s.24 34.562-14.496 45.785c0 0 21.92 3.359 14.496-45.785z" opacity=".487" fill="url(#e)" transform="rotate(-27.222 765.751 -580.193) scale(.49891)"/></g><g><path d="M531.955 268.467c-3.644 9.227 6.618 38.229 19.641 29.182 12.185-8.383-11.359-28.874-19.641-29.182z" stroke="#000" fill="#0f0" stroke-width=".4989"/><path d="M230.99 64.192l-3.593 20.599-8.081 3.801-6.155 24.988 16.984 3.71 16.825-.104-.745-25.724-7.098-5.42.833-20.893-4.139-.441-.69-.074-4.14-.441-.001-.001z" fill="url(#f)" transform="matrix(.37794 -.32568 .32568 .37794 412.648 308.54)"/><path d="M526.808 266.751c-1.142 1.478-2.08 2.84-1.763 3.495 1.17-.1 5.916-3.967 9.13-6.22-4.471 2.645-8.128 4.588-7.367 2.725z" opacity=".43" fill="#18c242"/><path d="M534.512 284.48c1.82 8.044 8.053 17.83 16.78 12.213-8.769 1.807-13.817-5.523-16.78-12.213z" opacity=".504" fill="#fff"/><path d="M116.14 74.736c0 10.349-3.72 18.738-8.308 18.738-4.589 0-8.309-8.389-8.309-18.738s3.72-18.738 8.309-18.738c4.588 0 8.308 8.389 8.308 18.738z" transform="matrix(.44307 -.24947 .27731 .41099 471.302 277.183)" opacity=".712" fill="url(#b)"/><path d="M540.655 279.594c.756 1.312.777 2.717.046 3.138-.73.42-1.935-.302-2.69-1.614-.757-1.313-.777-2.717-.047-3.138.73-.42 1.935.302 2.691 1.614z" fill="#fff"/><path d="M241.84 117.31s.24 34.562-14.496 45.785c0 0 21.92 3.359 14.496-45.785z" opacity=".487" fill="url(#g)" transform="matrix(.37794 -.32568 .32568 .37794 412.648 308.54)"/></g><g><path d="M579.91 262.602c-3.618 9.237 6.724 38.21 19.722 29.127 12.161-8.417-11.44-28.842-19.723-29.127z" stroke="#000" fill="#ff0" stroke-width=".4989"/><path d="M280.48 62.778l-3.593 20.599-8.081 3.801-6.155 24.988 16.984 3.71 16.825-.104-.745-25.724-7.098-5.42.833-20.893-4.139-.441-.69-.074-4.14-.441-.001-.001z" fill="url(#h)" transform="matrix(.37703 -.32673 .32673 .37703 442.518 319.71)"/><path d="M574.758 260.9c-1.138 1.482-2.071 2.847-1.753 3.5 1.168-.104 5.904-3.983 9.111-6.245-4.463 2.658-8.114 4.61-7.358 2.746z" opacity=".43" fill="#18c242"/><path d="M582.512 278.61c1.843 8.039 8.103 17.806 16.815 12.165-8.764 1.832-13.833-5.484-16.815-12.166z" fill="#fff"/><path d="M116.14 74.736c0 10.349-3.72 18.738-8.308 18.738-4.589 0-8.309-8.389-8.309-18.738s3.72-18.738 8.309-18.738c4.588 0 8.308 8.389 8.308 18.738z" transform="matrix(.44237 -.2507 .27845 .41021 519.285 271.484)" fill="url(#b)"/><path d="M588.644 273.701c.76 1.31.784 2.715.055 3.138-.73.423-1.936-.297-2.695-1.607-.76-1.31-.784-2.715-.055-3.138.729-.422 1.936.297 2.695 1.607z" fill="#fff"/><path d="M290.81 115.72s-14.609 13.348-14.496 45.785c0 0 21.92 3.359 14.496-45.785z" fill="url(#i)" transform="matrix(.37703 -.32673 .32673 .37703 442.518 319.71)"/></g><g><path d="M740.213 215.123c-4.734 8.718 1.942 38.75 15.964 31.345 13.11-6.846-7.78-30.036-15.964-31.345z" stroke="#000" fill="#ff2a2a" stroke-width=".49891"/><path d="M132.61 37.279l-3.593 20.599-8.081 3.801-6.155 24.988 16.984 3.71 16.825-.104-.745-25.724-7.098-5.42.833-20.893-4.139-.441-.69-.074-4.14-.441-.001-.001z" fill="url(#a)" transform="matrix(.41459 -.27753 .27753 .41459 665.188 224.312)"/><path d="M735.312 212.797c-1.312 1.329-2.408 2.568-2.173 3.256 1.172.041 6.352-3.222 9.815-5.07-4.758 2.085-8.623 3.571-7.642 1.814z" opacity=".43" fill="#18c242"/><path d="M740.812 231.328c.833 8.205 5.836 18.672 15.179 14.154-8.923.733-13.047-7.155-15.179-14.154z" opacity=".504" fill="#fff"/><path d="M116.14 74.736c0 10.349-3.72 18.738-8.308 18.738-4.589 0-8.309-8.389-8.309-18.738s3.72-18.738 8.309-18.738c4.588 0 8.308 8.389 8.308 18.738z" transform="matrix(.47001 -.194 .22552 .44154 678.955 216.43)" opacity=".712" fill="url(#b)"/><path d="M747.505 227.22c.592 1.394.442 2.79-.334 3.12-.776.33-1.884-.534-2.476-1.928-.591-1.394-.441-2.791.335-3.12.776-.33 1.884.534 2.475 1.928z" fill="#fff"/><path d="M118.97 59.003s.24 34.562-14.496 45.785c0 0 21.92 3.359 14.496-45.785z" transform="matrix(.41459 -.27753 .27753 .41459 684.058 230.528)" opacity=".487" fill="url(#c)"/></g><g><path d="M619.535 251.75c-3.437 9.307 7.47 38.073 20.288 28.737 11.995-8.653-12-28.613-20.288-28.737z" stroke="#000" fill="#00f" stroke-width=".49891"/><path d="M180.07 59.95l-3.593 20.599-8.081 3.801-6.155 24.988 16.984 3.71 16.825-.104-.745-25.724-7.098-5.42.833-20.893-4.139-.441-.69-.074-4.14-.441-.001-.001z" fill="url(#d)" transform="rotate(-42.031 623.88 -539.12) scale(.49891)"/><path d="M614.351 250.15c-1.108 1.503-2.015 2.886-1.684 3.534 1.166-.127 5.825-4.099 8.988-6.423-4.41 2.745-8.023 4.769-7.304 2.89z" opacity=".43" fill="#18c242"/><path d="M622.45 267.703c1.999 8.002 8.449 17.645 17.049 11.836-8.727 2.002-13.937-5.214-17.05-11.836z" opacity=".504" fill="#fff"/><path d="M116.14 74.736c0 10.349-3.72 18.738-8.308 18.738-4.589 0-8.309-8.389-8.309-18.738s3.72-18.738 8.309-18.738c4.588 0 8.308 8.389 8.308 18.738z" transform="matrix(.4374 -.2593 .28642 .4047 559.094 261.815)" opacity=".712" fill="url(#b)"/><path d="M628.485 262.677c.785 1.295.837 2.7.116 3.136-.72.437-1.941-.259-2.726-1.554-.785-1.295-.837-2.699-.116-3.136.72-.437 1.941.259 2.726 1.554z" fill="#fff"/><path d="M190.93 113.07s.24 34.562-14.496 45.785c0 0 21.92 3.359 14.496-45.785z" opacity=".487" fill="url(#e)" transform="rotate(-42.031 623.88 -539.12) scale(.49891)"/></g><g><path d="M658.494 241.719c-4.34 8.921 3.672 38.624 17.35 30.6 12.79-7.425-9.116-29.658-17.35-30.6z" stroke="#000" fill="#0f0" stroke-width=".49891"/><path d="M230.99 64.192l-3.593 20.599-8.081 3.801-6.155 24.988 16.984 3.71 16.825-.104-.745-25.724-7.098-5.42.833-20.893-4.139-.441-.69-.074-4.14-.441-.001-.001z" fill="url(#f)" transform="rotate(-36.361 683.176 -680.5) scale(.49891)"/><path d="M653.494 239.614c-1.252 1.387-2.291 2.673-2.026 3.35 1.173-.011 6.202-3.503 9.579-5.503-4.66 2.295-8.455 3.953-7.553 2.153z" opacity=".43" fill="#18c242"/><path d="M659.817 257.881c1.2 8.16 6.665 18.394 15.797 13.462-8.882 1.13-13.354-6.565-15.797-13.462z" opacity=".504" fill="#fff"/><path d="M116.14 74.736c0 10.349-3.72 18.738-8.308 18.738-4.589 0-8.309-8.389-8.309-18.738s3.72-18.738 8.309-18.738c4.588 0 8.308 8.389 8.308 18.738z" transform="matrix(.46087 -.21482 .24503 .43102 597.351 245.766)" opacity=".712" fill="url(#b)"/><path d="M666.317 253.48c.653 1.366.566 2.768-.194 3.132-.76.364-1.907-.45-2.56-1.816s-.566-2.768.194-3.132c.76-.363 1.907.45 2.56 1.816z" fill="#fff"/><path d="M241.84 117.31s.24 34.562-14.496 45.785c0 0 21.92 3.359 14.496-45.785z" opacity=".487" fill="url(#g)" transform="rotate(-36.361 683.176 -680.5) scale(.49891)"/></g><g><path d="M697.844 227.433c-3.66 9.22 6.547 38.241 19.587 29.218 12.2-8.36-11.305-28.894-19.587-29.218z" stroke="#000" fill="#ff0" stroke-width=".4989"/><path d="M280.48 62.778l-3.593 20.599-8.081 3.801-6.155 24.988 16.984 3.71 16.825-.104-.745-25.724-7.098-5.42.833-20.893-4.139-.441-.69-.074-4.14-.441-.001-.001z" fill="url(#h)" transform="matrix(.37855 -.32497 .32497 .37855 560.188 283.9)"/><path d="M692.701 225.708c-1.145 1.476-2.085 2.836-1.77 3.491 1.17-.098 5.924-3.956 9.141-6.203-4.475 2.637-8.135 4.573-7.37 2.712z" opacity=".43" fill="#18c242"/><path d="M700.373 243.452c1.805 8.048 8.02 17.844 16.757 12.244-8.772 1.792-13.806-5.549-16.757-12.244z" fill="#fff"/><path d="M116.14 74.736c0 10.349-3.72 18.738-8.308 18.738-4.589 0-8.309-8.389-8.309-18.738s3.72-18.738 8.309-18.738c4.588 0 8.308 8.389 8.308 18.738z" transform="matrix(.44353 -.24864 .27654 .4115 637.18 236.032)" fill="url(#b)"/><path d="M706.528 238.573c.753 1.313.77 2.718.04 3.138-.731.419-1.935-.306-2.688-1.62-.754-1.313-.772-2.718-.04-3.138.73-.419 1.934.306 2.688 1.62z" fill="#fff"/><path d="M290.81 115.72s-14.609 13.348-14.496 45.785c0 0 21.92 3.359 14.496-45.785z" fill="url(#i)" transform="matrix(.37855 -.32497 .32497 .37855 560.188 283.9)"/></g><g><path d="M975.568 132.768c-7.798 6.133-13.554 36.354 2.254 35.104 14.749-1.097 4.743-30.662-2.254-35.104z" stroke="#000" fill="#ff2a2a" stroke-width=".49891"/><path d="M132.61 37.279l-3.593 20.599-8.081 3.801-6.155 24.988 16.984 3.71 16.825-.104-.745-25.724-7.098-5.42.833-20.893-4.139-.441-.69-.074-4.14-.441-.001-.001z" fill="url(#a)" transform="matrix(.49058 -.09077 .09077 .49058 903.033 111.512)"/><path d="M971.988 128.693c-1.732.7-3.228 1.405-3.285 2.13 1.06.501 7.11-.445 11.02-.771-5.194.031-9.331-.134-7.735-1.36z" opacity=".43" fill="#18c242"/><path d="M969.704 147.887c-2.483 7.865-2.031 19.458 8.337 19.006-8.485-2.859-9.15-11.735-8.337-19.006z" opacity=".504" fill="#fff"/><path d="M116.14 74.736c0 10.349-3.72 18.738-8.308 18.738-4.589 0-8.309-8.389-8.309-18.738s3.72-18.738 8.309-18.738c4.588 0 8.308 8.389 8.308 18.738z" transform="matrix(.50841 .00788 .03234 .49474 918.795 109.722)" opacity=".712" fill="url(#b)"/><path d="M977.477 146.764c-.009 1.514-.7 2.738-1.542 2.733-.843-.005-1.52-1.236-1.51-2.75.008-1.515.698-2.739 1.541-2.734.843.005 1.52 1.236 1.51 2.75z" fill="#fff"/><path d="M118.97 59.003s.24 34.562-14.496 45.785c0 0 21.92 3.359 14.496-45.785z" transform="matrix(.49058 -.09077 .09077 .49058 917.902 124.689)" opacity=".487" fill="url(#c)"/></g><g><path d="M899.31 157.234c-7.913 5.985-14.235 36.093 1.594 35.14 14.766-.82 5.318-30.568-1.595-35.14z" stroke="#000" fill="#00f" stroke-width=".49891"/><path d="M180.07 59.95l-3.593 20.599-8.081 3.801-6.155 24.988 16.984 3.71 16.825-.104-.745-25.724-7.098-5.42.833-20.893-4.139-.441-.69-.074-4.14-.441-.001-.001z" fill="url(#d)" transform="rotate(-9.408 1174.923 -4810.288) scale(.49891)"/><path d="M895.806 153.092c-1.744.668-3.253 1.344-3.324 2.067 1.051.522 7.116-.31 11.033-.563-5.194-.066-9.328-.31-7.709-1.504z" opacity=".43" fill="#18c242"/><path d="M893.163 172.241c-2.63 7.817-2.397 19.417 7.978 19.16-8.43-3.018-8.927-11.905-7.978-19.16z" opacity=".504" fill="#fff"/><path d="M116.14 74.736c0 10.349-3.72 18.738-8.308 18.738-4.589 0-8.309-8.389-8.309-18.738s3.72-18.738 8.309-18.738c4.588 0 8.308 8.389 8.308 18.738z" transform="matrix(.50818 .01743 .02304 .49526 842.979 133.125)" opacity=".712" fill="url(#b)"/><path d="M900.956 171.262c-.037 1.514-.75 2.724-1.593 2.704-.842-.02-1.495-1.265-1.458-2.779.037-1.514.75-2.724 1.593-2.704.842.021 1.495 1.265 1.458 2.78z" fill="#fff"/><path d="M190.93 113.07s.24 34.562-14.496 45.785c0 0 21.92 3.359 14.496-45.785z" opacity=".487" fill="url(#e)" transform="rotate(-9.408 1174.923 -4810.288) scale(.49891)"/></g><g><path d="M933.338 147.688c-7.764 6.176-13.353 36.428 2.448 35.09 14.742-1.178 4.574-30.688-2.448-35.09z" stroke="#000" fill="#0f0" stroke-width=".49891"/><path d="M230.99 64.192l-3.593 20.599-8.081 3.801-6.155 24.988 16.984 3.71 16.825-.104-.745-25.724-7.098-5.42.833-20.893-4.139-.441-.69-.074-4.14-.441-.001-.001z" fill="url(#f)" transform="matrix(.49007 -.09348 .09348 .49007 809.958 122.84)"/><path d="M929.735 143.632c-1.727.71-3.22 1.423-3.272 2.148 1.063.496 7.106-.484 11.015-.831-5.194.06-9.332-.083-7.743-1.317z" opacity=".43" fill="#18c242"/><path d="M927.558 162.84c-2.44 7.878-1.924 19.468 8.442 18.959-8.5-2.812-9.214-11.684-8.442-18.96z" opacity=".504" fill="#fff"/><path d="M116.14 74.736c0 10.349-3.72 18.738-8.308 18.738-4.589 0-8.309-8.389-8.309-18.738s3.72-18.738 8.309-18.738c4.588 0 8.308 8.389 8.308 18.738z" transform="matrix(.50845 .00507 .03507 .49455 876.434 124.957)" opacity=".712" fill="url(#b)"/><path d="M935.32 161.673c0 1.515-.683 2.742-1.526 2.742s-1.526-1.228-1.526-2.742c0-1.515.684-2.742 1.527-2.742.843 0 1.526 1.228 1.526 2.742z" fill="#fff"/><path d="M241.84 117.31s.24 34.562-14.496 45.785c0 0 21.92 3.359 14.496-45.785z" opacity=".487" fill="url(#g)" transform="matrix(.49007 -.09348 .09348 .49007 809.958 122.84)"/></g></g><g transform="matrix(.02668 -.04376 .17484 .13423 207.637 738.664)"><path style="block-progression:tb;text-indent:0;text-transform:none" d="M69.346 89.471l-8.299-1.557 21.504-.625s-44.576 38.474 4.595 100.954c49.171 62.485 159.962 155.403 454.98 37.527 134.673-53.809 368.76-116.35 515.25-122.52 100.74-4.242 89.612 34.296 212.753 37.366 123.141 3.07 171.44 24.57 274.38-14.327 85.24-32.205 70.244-54.652 87.904-77.922 8.834-11.635 15.397-26.774 16.581-33.797 1.184-7.022-.069-11.656-.069-11.656l-.828-2.758-2.897.07h-3.655V7.88h.413c.042 1.345 0 2.966-.413 5.45-.976 5.782-3.883 14.391-12.07 25.174-16.375 21.565-76.926 45.066-96.657 72.682-32.961 46.132-195.304 32.264-303.708 18.09-108.404-14.176-80.7-29.265-182.76-24.968-150.03 6.317-468.137 91.87-563.2 149.565-70.387 42.72-238.342 15.86-238.342 15.86-75.035-19.652-130.333-63.896-151.603-86.12C-25.057 60.04 136.284 87.855 104.418 86.91l-36.633 3.936.91-3.016h-4.207l4.858 1.64z" color="#000" fill="#1b351b"/><path d="M17.805 38.207C9.57 37.764-1.545 41.092 1.48 51.02c.652-8.93 9.082-11.787 16.326-12.813z" opacity=".504" fill="#fff"/><path d="M28.09 84.66c-1.453.428-2.823.118-3.061-.69s.748-1.811 2.2-2.238 2.824-.117 3.062.691-.748 1.81-2.2 2.238z" fill="#fff"/><path d="M49.443 118.799c-8.472-5.164-38.799.003-32.104 14.378 6.182 13.435 30.387-6.27 32.104-14.378z" stroke="#000" fill="#0f0" stroke-width=".49891"/><path d="M230.99 64.192l-3.593 20.599-8.081 3.8-6.155 24.989 16.984 3.71 16.825-.104-.745-25.724-7.098-5.42.833-20.893-4.14-.441-.69-.074-4.14-.441z" fill="url(#j)" transform="rotate(59.065 20.088 23.944) scale(.49891)"/><path d="M52.01 114.02c-1.261-1.377-2.444-2.533-3.143-2.333-.1 1.169 2.9 6.505 4.573 10.056-1.844-4.856-3.136-8.79-1.43-7.723z" opacity=".43" fill="#18c242"/><path d="M33.228 118.588c-8.237.422-18.942 4.895-14.896 14.452-.286-8.948 7.799-12.673 14.896-14.452z" opacity=".504" fill="#fff"/><path d="M116.14 74.736c0 10.349-3.72 18.738-8.309 18.738s-8.308-8.39-8.308-18.738 3.72-18.738 8.309-18.738 8.308 8.39 8.308 18.738z" transform="matrix(.17027 .47912 -.45225 .20318 51.196 57.548)" opacity=".712" fill="url(#k)"/><path d="M36.994 125.475c-1.422.52-2.81.301-3.1-.49s.628-1.855 2.05-2.376 2.81-.302 3.1.49-.628 1.855-2.05 2.376z" fill="#fff"/><path d="M241.84 117.31s.24 34.562-14.496 45.785c0 0 21.92 3.359 14.496-45.785z" opacity=".487" fill="url(#l)" transform="rotate(59.065 20.088 23.944) scale(.49891)"/><g><path d="M283.08 93.845c-17.606 9.244-39.971 66.708-8.36 70.01 29.47 3.215 20.532-58.704 8.36-70.01z" stroke="#000" fill="#ff0" transform="matrix(-.87537 -.15394 -.82148 .16802 618.2 312.278)"/><path d="M280.48 62.778l-3.593 20.599-8.081 3.8-6.155 24.989 16.984 3.71 16.825-.104-.745-25.724-7.098-5.42.833-20.893-4.14-.441-.69-.074-4.14-.441z" fill="url(#m)" transform="matrix(-.87537 -.15394 -.82148 .16802 618.2 312.278)"/><path d="M305.855 283.758c2.595.691 4.71 1.326 3.882 1.62-2.8-.062-13.816-1.893-21.311-2.966 10.477 1.27 19.069 2.208 17.43 1.346z" opacity=".43" fill="#18c242"/><path d="M285.525 291.746c-5.196 3.647-21.179 8.028-41.586 5.342 20.896.947 33.78-2.33 41.586-5.342z" fill="#fff"/><path d="M116.14 74.736c0 10.349-3.72 18.738-8.309 18.738s-8.308-8.39-8.308-18.738 3.72-18.738 8.309-18.738 8.308 8.39 8.308 18.738z" transform="matrix(-1.0397 -.12005 -.70857 .18378 438.22 289.29)" fill="url(#k)"/><path d="M271.25 289.428c-1.952.588-2.144 1.23-.431 1.431s4.683-.11 6.634-.7 2.143-1.229.43-1.431-4.683.111-6.634.7z" fill="#fff"/><path d="M290.81 115.72s-14.609 13.348-14.496 45.785c0 0 21.92 3.359 14.496-45.785z" fill="url(#n)" transform="matrix(-.87537 -.15394 -.82148 .16802 618.2 312.278)"/><path d="M135.21 88.346c-17.606 9.244-39.971 66.708-8.36 70.01 29.47 3.215 20.532-58.704 8.36-70.01z" stroke="#000" fill="#ff2a2a" transform="matrix(-.95724 -.13533 -.72442 .18334 418.31 277.909)"/><path d="M132.61 37.279l-3.593 20.599-8.081 3.8-6.155 24.989 16.984 3.71 16.825-.104-.745-25.724-7.098-5.42.833-20.893-4.14-.441-.69-.074-4.14-.441z" fill="url(#o)" transform="matrix(-.95724 -.13533 -.72442 .18334 403.822 281.576)"/><path d="M236.979 274.85c2.968.635 5.427 1.223 4.766 1.532-2.822-.006-14.81-1.604-22.87-2.519 11.139 1.05 20.215 1.81 18.104.988z" opacity=".43" fill="#18c242"/><path d="M221.185 283.19c-3.144 3.727-16.62 8.398-38.433 6.14 21.333.521 32.337-2.991 38.433-6.14z" opacity=".504" fill="#fff"/><path d="M116.14 74.736c0 10.349-3.72 18.738-8.309 18.738s-8.308-8.39-8.308-18.738 3.72-18.738 8.309-18.738 8.308 8.39 8.308 18.738z" transform="matrix(-1.102 -.09838 -.60323 .19673 371.851 277.69)" opacity=".712" fill="url(#k)"/><path d="M205.68 281.175c-1.615.624-1.45 1.265.368 1.431s4.6-.204 6.216-.828 1.45-1.264-.369-1.43-4.6.204-6.216.827z" fill="#fff"/><path d="M118.97 59.003s.24 34.562-14.496 45.785c0 0 21.92 3.359 14.496-45.785z" transform="matrix(-.95724 -.13533 -.72442 .18334 357.628 284.016)" opacity=".487" fill="url(#p)"/><g><path d="M182.67 91.017c-17.606 9.244-39.971 66.708-8.36 70.01 29.47 3.215 20.532-58.704 8.36-70.01z" stroke="#000" fill="#00f" transform="matrix(-.7789 -.17161 -.91346 .14992 403.184 278.557)"/><path d="M180.07 59.95l-3.593 20.599-8.081 3.8-6.155 24.989 16.984 3.71 16.825-.104-.745-25.724-7.098-5.42.833-20.893-4.14-.441-.69-.074-4.14-.441z" fill="url(#q)" transform="matrix(-.7789 -.17161 -.91346 .14992 403.184 278.557)"/><path d="M190.63 260.41c2.173.741 3.9 1.418 2.907 1.693-2.742-.12-12.607-2.175-19.42-3.4 9.658 1.484 17.637 2.598 16.514 1.706z" opacity=".43" fill="#18c242"/><path d="M165.789 267.93c-7.288 3.52-25.709 7.543-44.395 4.442 20.187 1.382 34.887-1.608 44.395-4.442z" opacity=".504" fill="#fff"/><path d="M116.14 74.736c0 10.349-3.72 18.738-8.309 18.738s-8.308-8.39-8.308-18.738 3.72-18.738 8.309-18.738 8.308 8.39 8.308 18.738z" transform="matrix(-.9618 -.14135 -.8106 .16798 318.776 268.7)" opacity=".712" fill="url(#k)"/><path d="M152.972 265.323c-2.28.545-2.845 1.178-1.263 1.416s4.713-.012 6.993-.557 2.845-1.178 1.263-1.416-4.713.012-6.993.557z" fill="#fff"/><path d="M190.93 113.07s.24 34.562-14.496 45.785c0 0 21.92 3.359 14.496-45.785z" opacity=".487" fill="url(#r)" transform="matrix(-.7789 -.17161 -.91346 .14992 403.184 278.557)"/></g><g><path d="M233.59 95.259c-17.606 9.244-39.971 66.708-8.36 70.01 29.47 3.215 20.532-58.704 8.36-70.01z" stroke="#000" fill="#0f0" transform="matrix(-.6217 -.1935 -1.02693 .12034 383.946 277.355)"/><path d="M230.99 64.192l-3.593 20.599-8.081 3.8-6.155 24.989 16.984 3.71 16.825-.104-.745-25.724-7.098-5.42.833-20.893-4.14-.441-.69-.074-4.14-.441z" fill="url(#j)" transform="matrix(-.6217 -.1935 -1.02693 .12034 383.946 277.355)"/><path d="M153.95 243.57c1.51.8 2.64 1.522 1.427 1.764-2.599-.203-10.574-2.536-16.245-3.956 8.255 1.763 15.17 3.108 14.818 2.192z" opacity=".43" fill="#18c242"/><path d="M123.104 250.248c-10.163 3.258-31.72 6.674-47.497 3.035 18.713 1.984 35.728-.523 47.497-3.035z" opacity=".504" fill="#fff"/><path d="M116.14 74.736c0 10.349-3.72 18.738-8.309 18.738s-8.308-8.39-8.308-18.738 3.72-18.738 8.309-18.738 8.308 8.39 8.308 18.738z" transform="matrix(-.82753 -.16917 -.94093 .14134 273.15 255.687)" opacity=".712" fill="url(#k)"/><path d="M112.694 247.28c-2.708.47-3.803 1.079-2.445 1.362s4.652.132 7.36-.337 3.802-1.078 2.445-1.361-4.652-.133-7.36.336z" fill="#fff"/><path d="M241.84 117.31s.24 34.562-14.496 45.785c0 0 21.92 3.359 14.496-45.785z" opacity=".487" fill="url(#l)" transform="matrix(-.6217 -.1935 -1.02693 .12034 383.946 277.355)"/></g><g><path d="M283.08 93.845c-17.606 9.244-39.971 66.708-8.36 70.01 29.47 3.215 20.532-58.704 8.36-70.01z" stroke="#000" fill="#ff0" transform="matrix(-.53087 -.20316 -1.0767 .10321 364.055 276.555)"/><path d="M280.48 62.778l-3.593 20.599-8.081 3.8-6.155 24.989 16.984 3.71 16.825-.104-.745-25.724-7.098-5.42.833-20.893-4.14-.441-.69-.074-4.14-.441z" fill="url(#m)" transform="matrix(-.53087 -.20316 -1.0767 .10321 364.055 276.555)"/><path d="M125.745 228.897c1.14.823 1.936 1.561.619 1.783-2.494-.245-9.372-2.702-14.37-4.212 7.414 1.893 13.685 3.349 13.751 2.43z" opacity=".43" fill="#18c242"/><path d="M92.009 235.053c-11.595 3.083-34.601 6.137-48.65 2.25 17.723 2.285 35.796.062 48.65-2.25z" fill="#fff"/><path d="M116.14 74.736c0 10.349-3.72 18.738-8.309 18.738s-8.308-8.39-8.308-18.738 3.72-18.738 8.309-18.738 8.308 8.39 8.308 18.738z" transform="matrix(-.74677 -.18226 -1.00064 .12556 238.87 242.93)" fill="url(#k)"/><path d="M82.996 231.92c-2.908.424-4.274 1.014-3.052 1.318s4.57.208 7.478-.215 4.274-1.014 3.052-1.318-4.57-.208-7.478.215z" fill="#fff"/><path d="M290.81 115.72s-14.609 13.348-14.496 45.785c0 0 21.92 3.359 14.496-45.785z" fill="url(#n)" transform="matrix(-.53087 -.20316 -1.0767 .10321 364.055 276.555)"/></g><g><path d="M135.21 88.346c-17.606 9.244-39.971 66.708-8.36 70.01 29.47 3.215 20.532-58.704 8.36-70.01z" stroke="#000" fill="#ff2a2a" transform="matrix(-.0659 -.22737 -1.19866 .01523 209.843 241.207)"/><path d="M132.61 37.279l-3.593 20.599-8.081 3.8-6.155 24.989 16.984 3.71 16.825-.104-.745-25.724-7.098-5.42.833-20.893-4.14-.441-.69-.074-4.14-.441z" fill="url(#o)" transform="matrix(-.0659 -.22737 -1.19866 .01523 185.87 241.511)"/><path d="M106.596 212.934c-.657.846-1.455 1.588-3.118 1.694-1.775-.412-2.991-3.196-4.446-4.964 2.873 2.303 5.604 4.115 7.564 3.27z" opacity=".43" fill="#18c242"/><path d="M63.006 216.113c-16.984 1.987-44.349 3.096-49.171-1.543 11.496 3.432 32.628 2.723 49.171 1.543z" opacity=".504" fill="#fff"/><path d="M116.14 74.736c0 10.349-3.72 18.738-8.309 18.738s-8.308-8.39-8.308-18.738 3.72-18.738 8.309-18.738 8.308 8.39 8.308 18.738z" transform="matrix(-.30669 -.22412 -1.17525 .04156 181.118 234.334)" opacity=".712" fill="url(#k)"/><path d="M61.226 212.546c-3.537.175-6.007.619-5.517.991s3.752.533 7.288.358 6.007-.619 5.517-.991-3.752-.533-7.288-.358z" fill="#fff"/><path d="M118.97 59.003s.24 34.562-14.496 45.785c0 0 21.92 3.359 14.496-45.785z" transform="matrix(-.0659 -.22737 -1.19866 .01523 146.626 236.42)" opacity=".487" fill="url(#p)"/></g><g><path d="M182.67 91.017c-17.606 9.244-39.971 66.708-8.36 70.01 29.47 3.215 20.532-58.704 8.36-70.01z" stroke="#000" fill="#00f" transform="matrix(-.19176 -.2245 -1.18504 .0391 224.81 234.023)"/><path d="M180.07 59.95l-3.593 20.599-8.081 3.8-6.155 24.989 16.984 3.71 16.825-.104-.745-25.724-7.098-5.42.833-20.893-4.14-.441-.69-.074-4.14-.441z" fill="url(#q)" transform="matrix(-.19176 -.2245 -1.18504 .0391 224.81 234.023)"/><path d="M94.056 197.457c-.185.853-.568 1.606-2.165 1.745-1.996-.374-4.751-3.114-7.181-4.84 4.138 2.228 7.862 3.974 9.346 3.095z" opacity=".43" fill="#18c242"/><path d="M52.414 201.486c-15.809 2.313-42.44 3.962-49.816-.55 13.35 3.179 34 2.053 49.816.55z" opacity=".504" fill="#fff"/><path d="M116.14 74.736c0 10.349-3.72 18.738-8.309 18.738s-8.308-8.39-8.308-18.738 3.72-18.738 8.309-18.738 8.308 8.39 8.308 18.738z" transform="matrix(-.42971 -.21645 -1.14713 .06477 180.13 217.22)" opacity=".712" fill="url(#k)"/><path d="M48.666 197.978c-3.424.244-5.637.735-4.943 1.095s4.032.454 7.456.21 5.637-.735 4.943-1.095-4.032-.454-7.456-.21z" fill="#fff"/><path d="M190.93 113.07s.24 34.562-14.496 45.785c0 0 21.92 3.359 14.496-45.785z" opacity=".487" fill="url(#r)" transform="matrix(-.19176 -.2245 -1.18504 .0391 224.81 234.023)"/></g><g><path d="M233.59 95.259c-17.606 9.244-39.971 66.708-8.36 70.01 29.47 3.215 20.532-58.704 8.36-70.01z" stroke="#000" fill="#0f0" transform="matrix(-.0659 -.22737 -1.19866 .01523 183.467 231.488)"/><path d="M230.99 64.192l-3.593 20.599-8.081 3.8-6.155 24.989 16.984 3.71 16.825-.104-.745-25.724-7.098-5.42.833-20.893-4.14-.441-.69-.074-4.14-.441z" fill="url(#j)" transform="matrix(-.0659 -.22737 -1.19866 .01523 183.467 231.488)"/><path d="M65.45 180.953c-.656.845-1.454 1.587-3.118 1.694-1.775-.413-2.99-3.197-4.446-4.964 2.873 2.302 5.604 4.115 7.565 3.27z" opacity=".43" fill="#18c242"/><path d="M21.86 184.131c-16.985 1.987-44.35 3.097-49.172-1.543 11.496 3.432 32.628 2.724 49.171 1.543z" opacity=".504" fill="#fff"/><path d="M116.14 74.736c0 10.349-3.72 18.738-8.309 18.738s-8.308-8.39-8.308-18.738 3.72-18.738 8.309-18.738 8.308 8.39 8.308 18.738z" transform="matrix(-.30669 -.22412 -1.17525 .04156 139.972 202.354)" opacity=".712" fill="url(#k)"/><path d="M20.08 180.566c-3.536.175-6.006.619-5.517.991s3.753.533 7.29.358 6.006-.619 5.516-.991-3.752-.533-7.288-.358z" fill="#fff"/><path d="M241.84 117.31s.24 34.562-14.496 45.785c0 0 21.92 3.359 14.496-45.785z" opacity=".487" fill="url(#l)" transform="matrix(-.0659 -.22737 -1.19866 .01523 183.467 231.488)"/></g><g><path d="M283.08 93.845c-17.606 9.244-39.971 66.708-8.36 70.01 29.47 3.215 20.532-58.704 8.36-70.01z" stroke="#000" fill="#ff0" transform="matrix(.2105 -.2248 -1.18185 -.03727 88.788 233.542)"/><path d="M280.48 62.778l-3.593 20.599-8.081 3.8-6.155 24.989 16.984 3.71 16.825-.104-.745-25.724-7.098-5.42.833-20.893-4.14-.441-.69-.074-4.14-.441z" fill="url(#m)" transform="matrix(.2105 -.2248 -1.18185 -.03727 88.788 233.542)"/><path d="M47.326 168.007c-1.658.797-3.328 1.486-5.071 1.518-1.225-.48.955-3.25 1.676-5.039.01 2.373.472 4.26 3.395 3.521z" opacity=".43" fill="#18c242"/><path d="M1.174 169.213c-18.884 1.201-46.785 1.094-45.866-3.645 7.016 3.85 28.383 4.078 45.866 3.645z" fill="#fff"/><path d="M116.14 74.736c0 10.349-3.72 18.738-8.309 18.738s-8.308-8.39-8.308-18.738 3.72-18.738 8.309-18.738 8.308 8.39 8.308 18.738z" transform="matrix(-.02715 -.2321 -1.19092 -.01055 93.829 192.136)" fill="url(#k)"/><path d="M3.758 165.654c-3.643.017-6.576.343-6.55.727s2.998.684 6.642.667 6.577-.343 6.551-.728-3-.683-6.643-.666z" fill="#fff"/><path d="M290.81 115.72s-14.609 13.348-14.496 45.785c0 0 21.92 3.359 14.496-45.785z" fill="url(#n)" transform="matrix(.2105 -.2248 -1.18185 -.03727 88.788 233.542)"/></g><g><path d="M135.21 88.346c-17.606 9.244-39.971 66.708-8.36 70.01 29.47 3.215 20.532-58.704 8.36-70.01z" transform="matrix(.3968 -.21595 -1.13298 -.07274 77.412 190.319)" stroke="#000" fill="#ff2a2a"/><path d="M132.61 37.279l-3.593 20.599-8.081 3.8-6.155 24.989 16.984 3.71 16.825-.104-.745-25.724-7.098-5.42.833-20.893-4.14-.441-.69-.074-4.14-.441z" fill="url(#o)" transform="matrix(.3968 -.21595 -1.13298 -.07274 54.752 188.864)"/><path d="M39.339 156.575c-2.305.738-4.531 1.369-6.276 1.348-.802-.512 3.68-3.186 5.897-4.933-1.99 2.347-3.124 4.228.379 3.585z" opacity=".43" fill="#18c242"/><path d="M-7.142 156.367c-19.617.615-47.015-.338-42.116-4.997 3.667 4.02 24.527 4.895 42.116 4.997z" opacity=".504" fill="#fff"/><path d="M116.14 74.736c0 10.349-3.72 18.738-8.309 18.738s-8.308-8.39-8.308-18.738 3.72-18.738 8.309-18.738 8.308 8.39 8.308 18.738z" transform="matrix(.16883 -.23039 -1.16443 -.0466 64.822 181.853)" opacity=".712" fill="url(#k)"/><path d="M-1.604 152.926c-3.604-.094-6.768.139-7.068.52s2.38.767 5.983.861 6.768-.14 7.068-.52-2.38-.767-5.983-.861z" fill="#fff"/><path d="M118.97 59.003s.24 34.562-14.496 45.785c0 0 21.92 3.359 14.496-45.785z" transform="matrix(.3968 -.21595 -1.13298 -.07274 28.906 181.29)" opacity=".487" fill="url(#p)"/></g><g><path d="M182.67 91.017c-17.606 9.244-39.971 66.708-8.36 70.01 29.47 3.215 20.532-58.704 8.36-70.01z" stroke="#000" fill="#00f" transform="matrix(.28314 -.22207 -1.16659 -.0511 81.683 185.07)"/><path d="M180.07 59.95l-3.593 20.599-8.081 3.8-6.155 24.989 16.984 3.71 16.825-.104-.745-25.724-7.098-5.42.833-20.893-4.14-.441-.69-.074-4.14-.441z" fill="url(#q)" transform="matrix(.28314 -.22207 -1.16659 -.0511 81.683 185.07)"/><path d="M36.542 141.567c-1.913.777-3.803 1.445-5.553 1.457-1.065-.494 2.011-3.235 3.313-5.013-.763 2.37-.916 4.26 2.24 3.556z" opacity=".43" fill="#18c242"/><path d="M-9.88 142.23c-19.224.979-47.016.544-44.556-4.178 5.743 3.928 26.98 4.406 44.557 4.179z" opacity=".504" fill="#fff"/><path d="M116.14 74.736c0 10.349-3.72 18.738-8.309 18.738s-8.308-8.39-8.308-18.738 3.72-18.738 8.309-18.738 8.308 8.39 8.308 18.738z" transform="matrix(.0485 -.23215 -1.18433 -.02451 75.064 166.215)" opacity=".712" fill="url(#k)"/><path d="M-6.144 138.706c-3.64-.026-6.671.265-6.771.65s2.769.717 6.408.743 6.67-.265 6.77-.65-2.768-.717-6.407-.743z" fill="#fff"/><path d="M190.93 113.07s.24 34.562-14.496 45.785c0 0 21.92 3.359 14.496-45.785z" opacity=".487" fill="url(#r)" transform="matrix(.28314 -.22207 -1.16659 -.0511 81.683 185.07)"/></g><g><path d="M233.59 95.259c-17.606 9.244-39.971 66.708-8.36 70.01 29.47 3.215 20.532-58.704 8.36-70.01z" stroke="#000" fill="#0f0" transform="matrix(.4044 -.21546 -1.13029 -.07419 44.45 184.733)"/><path d="M230.99 64.192l-3.593 20.599-8.081 3.8-6.155 24.989 16.984 3.71 16.825-.104-.745-25.724-7.098-5.42.833-20.893-4.14-.441-.69-.074-4.14-.441z" fill="url(#j)" transform="matrix(.4044 -.21546 -1.13029 -.07419 44.45 184.733)"/><path d="M39.546 129.23c-2.33.734-4.58 1.363-6.323 1.34-.784-.514 3.792-3.182 6.071-4.926-2.072 2.344-3.273 4.224.252 3.586z" opacity=".43" fill="#18c242"/><path d="M-6.924 128.963c-19.637.589-46.998-.4-41.935-5.052 3.525 4.026 24.351 4.927 41.935 5.052z" opacity=".504" fill="#fff"/><path d="M116.14 74.736c0 10.349-3.72 18.738-8.309 18.738s-8.308-8.39-8.308-18.738 3.72-18.738 8.309-18.738 8.308 8.39 8.308 18.738z" transform="matrix(.17695 -.23019 -1.16266 -.04808 64.129 154.543)" opacity=".712" fill="url(#k)"/><path d="M-1.267 125.53c-3.6-.1-6.772.13-7.085.51s2.352.77 5.952.87 6.772-.131 7.085-.512-2.352-.77-5.952-.869z" fill="#fff"/><path d="M241.84 117.31s.24 34.562-14.496 45.785c0 0 21.92 3.359 14.496-45.785z" opacity=".487" fill="url(#l)" transform="matrix(.4044 -.21546 -1.13029 -.07419 44.45 184.733)"/></g><g><path d="M283.08 93.845c-17.606 9.244-39.971 66.708-8.36 70.01 29.47 3.215 20.532-58.704 8.36-70.01z" stroke="#000" fill="#ff0" transform="matrix(.34055 -.21927 -1.15114 -.06202 38.547 179.424)"/><path d="M280.48 62.778l-3.593 20.599-8.081 3.8-6.155 24.989 16.984 3.71 16.825-.104-.745-25.724-7.098-5.42.833-20.893-4.14-.441-.69-.074-4.14-.441z" fill="url(#m)" transform="matrix(.34055 -.21927 -1.15114 -.06202 38.547 179.424)"/><path d="M35.773 113.333c-2.112.758-4.173 1.409-5.922 1.404-.935-.504 2.851-3.215 4.614-4.98-1.38 2.362-2.026 4.25 1.308 3.576z" opacity=".43" fill="#18c242"/><path d="M-10.739 113.56c-19.445.796-47.073.1-43.386-4.595 4.709 3.98 25.782 4.657 43.386 4.595z" fill="#fff"/><path d="M116.14 74.736c0 10.349-3.72 18.738-8.309 18.738s-8.308-8.39-8.308-18.738 3.72-18.738 8.309-18.738 8.308 8.39 8.308 18.738z" transform="matrix(.10897 -.23155 -1.17579 -.03563 67.797 138.326)" fill="url(#k)"/><path d="M-6.089 110.072c-3.626-.06-6.728.202-6.928.586s2.577.743 6.203.803 6.728-.202 6.928-.586-2.577-.743-6.203-.803z" fill="#fff"/><path d="M290.81 115.72s-14.609 13.348-14.496 45.785c0 0 21.92 3.359 14.496-45.785z" fill="url(#n)" transform="matrix(.34055 -.21927 -1.15114 -.06202 38.547 179.424)"/></g><g><path d="M182.67 91.017c-17.606 9.244-39.971 66.708-8.36 70.01 29.47 3.215 20.532-58.704 8.36-70.01z" stroke="#000" fill="#00f" transform="matrix(.48971 -.20915 -1.09604 -.09046 45.408 138.367)"/><path d="M180.07 59.95l-3.593 20.599-8.081 3.8-6.155 24.989 16.984 3.71 16.825-.104-.745-25.724-7.098-5.42.833-20.893-4.14-.441-.69-.074-4.14-.441z" fill="url(#q)" transform="matrix(.48971 -.20915 -1.09604 -.09046 45.408 138.367)"/><path d="M42.612 93.938c-2.618.7-5.11 1.294-6.838 1.245-.574-.523 5.06-3.12 8.033-4.827-3.01 2.309-4.964 4.168-1.195 3.582z" opacity=".43" fill="#18c242"/><path d="M-3.574 92.996c-19.798.303-46.656-1.08-39.737-5.65 1.889 4.069 22.272 5.27 39.737 5.65z" opacity=".504" fill="#fff"/><path d="M116.14 74.736c0 10.349-3.72 18.738-8.309 18.738s-8.308-8.39-8.308-18.738 3.72-18.738 8.309-18.738 8.308 8.39 8.308 18.738z" transform="matrix(.26908 -.22715 -1.1388 -.06487 56.9 119.556)" opacity=".712" fill="url(#k)"/><path d="M3.454 89.65c-3.546-.15-6.799.032-7.264.408s2.033.802 5.58.953 6.798-.032 7.263-.408-2.032-.802-5.579-.953z" fill="#fff"/><path d="M190.93 113.07s.24 34.562-14.496 45.785c0 0 21.92 3.359 14.496-45.785z" opacity=".487" fill="url(#r)" transform="matrix(.48971 -.20915 -1.09604 -.09046 45.408 138.367)"/></g></g><g><path d="M135.21 88.346c-17.606 9.244-39.971 66.708-8.36 70.01 29.47 3.215 20.532-58.704 8.36-70.01z" stroke="#000" fill="#ff2a2a" transform="matrix(.42127 .03526 -.80805 .19886 1100.085 94.338)"/><path d="M132.61 37.279l-3.593 20.599-8.081 3.8-6.155 24.989 16.984 3.71 16.825-.104-.745-25.724-7.098-5.42.833-20.893-4.14-.441-.69-.074-4.14-.441z" fill="url(#o)" transform="matrix(.42127 .03526 -.80805 .19886 1083.924 98.315)"/><path d="M1090.856 114.62c-2.15.02-4.182.074-5.478.341-.309.341 4.584.841 7.248 1.273-2.837-.726-4.765-1.376-1.77-1.614z" opacity=".43" fill="#18c242"/><path d="M1056.115 121.572c-15.064 2.63-35.066 7.088-28.724 8.39.448-2.29 15.592-5.749 28.724-8.39z" opacity=".504" fill="#fff"/><path d="M116.14 74.736c0 10.349-3.72 18.738-8.309 18.738s-8.308-8.39-8.308-18.738 3.72-18.738 8.309-18.738 8.308 8.39 8.308 18.738z" transform="matrix(.25856 .07518 -.8466 .19214 1095.491 99.875)" opacity=".712" fill="url(#k)"/><path d="M1062.24 122.25c-2.65.573-5.156.939-5.599.817s1.345-.684 3.994-1.257 5.156-.939 5.599-.817-1.345.684-3.994 1.257z" fill="#fff"/><path d="M118.97 59.003s.24 34.562-14.496 45.785c0 0 21.92 3.359 14.496-45.785z" transform="matrix(.42127 .03526 -.80805 .19886 1068.878 105.422)" opacity=".487" fill="url(#p)"/><path d="M182.67 91.017c-17.606 9.244-39.971 66.708-8.36 70.01 29.47 3.215 20.532-58.704 8.36-70.01z" stroke="#000" fill="#00f" transform="matrix(.51527 .01111 -.75158 .20166 1006.978 89.564)"/><path d="M180.07 59.95l-3.593 20.599-8.081 3.8-6.155 24.989 16.984 3.71 16.825-.104-.745-25.724-7.098-5.42.833-20.893-4.14-.441-.69-.074-4.14-.441z" fill="url(#q)" transform="matrix(.51527 .01111 -.75158 .20166 1006.978 89.564)"/><path d="M1036.844 108.003c-2.454.11-4.739.244-5.99.524-.052.299 6.012.504 9.456.749-3.903-.484-6.695-.943-3.466-1.273z" opacity=".43" fill="#18c242"/><path d="M1003.109 115.336c-14.97 2.858-33.986 7.461-25.544 8.273-1.52-1.934 12.804-5.49 25.544-8.273z" opacity=".504" fill="#fff"/><path d="M116.14 74.736c0 10.349-3.72 18.738-8.309 18.738s-8.308-8.39-8.308-18.738 3.72-18.738 8.309-18.738 8.308 8.39 8.308 18.738z" transform="matrix(.36383 .05162 -.80185 .19771 1029.068 95.463)" opacity=".712" fill="url(#k)"/><path d="M1010.751 115.636c-2.534.595-5.088 1.01-5.705.928s.937-.632 3.471-1.227 5.089-1.01 5.706-.928-.938.632-3.472 1.227z" fill="#fff"/><path d="M190.93 113.07s.24 34.562-14.496 45.785c0 0 21.92 3.359 14.496-45.785z" opacity=".487" fill="url(#r)" transform="matrix(.51527 .01111 -.75158 .20166 1006.978 89.564)"/><path d="M233.59 95.259c-17.606 9.244-39.971 66.708-8.36 70.01 29.47 3.215 20.532-58.704 8.36-70.01z" stroke="#000" fill="#0f0" transform="matrix(.49363 .01686 -.76598 .20126 1020.627 89.237)"/><path d="M230.99 64.192l-3.593 20.599-8.081 3.8-6.155 24.989 16.984 3.71 16.825-.104-.745-25.724-7.098-5.42.833-20.893-4.14-.441-.69-.074-4.14-.441z" fill="url(#j)" transform="matrix(.49363 .01686 -.76598 .20126 1020.627 89.237)"/><path d="M1067.37 110.374c-2.384.089-4.612.204-5.876.481-.113.31 5.682.584 8.945.874-3.655-.542-6.246-1.047-3.068-1.355z" opacity=".43" fill="#18c242"/><path d="M1033.353 117.626c-15.011 2.807-34.287 7.382-26.332 8.311-1.054-2.02 13.483-5.558 26.332-8.31z" opacity=".504" fill="#fff"/><path d="M116.14 74.736c0 10.349-3.72 18.738-8.309 18.738s-8.308-8.39-8.308-18.738 3.72-18.738 8.309-18.738 8.308 8.39 8.308 18.738z" transform="matrix(.33931 .05728 -.81353 .19665 1062.527 97.294)" opacity=".712" fill="url(#k)"/><path d="M1040.64 118.016c-2.566.59-5.112.995-5.688.903s1.035-.645 3.6-1.235 5.111-.995 5.688-.903-1.036.644-3.6 1.235z" fill="#fff"/><path d="M241.84 117.31s.24 34.562-14.496 45.785c0 0 21.92 3.359 14.496-45.785z" opacity=".487" fill="url(#l)" transform="matrix(.49363 .01686 -.76598 .20126 1020.627 89.237)"/><g><path d="M283.08 93.845c-17.606 9.244-39.971 66.708-8.36 70.01 29.47 3.215 20.532-58.704 8.36-70.01z" stroke="#000" fill="#ff0" transform="matrix(.7291 -.03955 -.52489 .18245 947.836 115.155)"/><path d="M280.48 62.778l-3.593 20.599-8.081 3.8-6.155 24.989 16.984 3.71 16.825-.104-.745-25.724-7.098-5.42.833-20.893-4.14-.441-.69-.074-4.14-.441z" fill="url(#m)" transform="matrix(.7291 -.03955 -.52489 .18245 947.836 115.155)"/><path d="M1105.811 119.597c-3.068.282-5.847.563-6.86.834.668.176 9.432-.247 14.728-.414-6.51.071-11.45.057-7.868-.42z" opacity=".43" fill="#18c242"/><path d="M1078.004 126.803c-13.32 2.97-27.833 7.301-14.331 7.014-6.85-.973 3.864-4.285 14.331-7.014z" fill="#fff"/><path d="M116.14 74.736c0 10.349-3.72 18.738-8.309 18.738s-8.308-8.39-8.308-18.738 3.72-18.738 8.309-18.738 8.308 8.39 8.308 18.738z" transform="matrix(.62303 -.00286 -.60308 .18467 1064.225 113.11)" fill="url(#k)"/><path d="M1089.151 126.293c-1.98.567-4.43 1.032-5.475 1.04s-.284-.445 1.696-1.011 4.431-1.033 5.475-1.04.284.445-1.696 1.011z" fill="#fff"/><path d="M290.81 115.72s-14.609 13.348-14.496 45.785c0 0 21.92 3.359 14.496-45.785z" fill="url(#n)" transform="matrix(.7291 -.03955 -.52489 .18245 947.836 115.155)"/></g><g><path d="M135.21 88.346c-17.606 9.244-39.971 66.708-8.36 70.01 29.47 3.215 20.532-58.704 8.36-70.01z" stroke="#000" fill="#ff2a2a" transform="matrix(.53394 .01806 -.7225 .18581 1193.966 122.335)"/><path d="M132.61 37.279l-3.593 20.599-8.081 3.8-6.155 24.989 16.984 3.71 16.825-.104-.745-25.724-7.098-5.42.833-20.893-4.14-.441-.69-.074-4.14-.441z" fill="url(#o)" transform="matrix(.53394 .01806 -.7225 .18581 1179.516 126.051)"/><path d="M1206.103 139.358c-2.5.073-4.82.171-6.038.426.024.29 6.328.575 9.94.862-4.148-.526-7.145-1.013-3.902-1.288z" opacity=".43" fill="#18c242"/><path d="M1173.232 146.024c-14.69 2.572-33.099 6.788-24.188 7.697-2.066-1.905 11.777-5.166 24.188-7.697z" opacity=".504" fill="#fff"/><path d="M116.14 74.736c0 10.349-3.72 18.738-8.309 18.738s-8.308-8.39-8.308-18.738 3.72-18.738 8.309-18.738 8.308 8.39 8.308 18.738z" transform="matrix(.38833 .05538 -.77532 .18127 1194.847 127.037)" opacity=".712" fill="url(#k)"/><path d="M1181.182 146.424c-2.458.544-4.984.912-5.64.823s.802-.601 3.26-1.145 4.984-.912 5.64-.824-.802.602-3.26 1.146z" fill="#fff"/><path d="M118.97 59.003s.24 34.562-14.496 45.785c0 0 21.92 3.359 14.496-45.785z" transform="matrix(.53394 .01806 -.7225 .18581 1169.916 132.327)" opacity=".487" fill="url(#p)"/></g><g><path d="M182.67 91.017c-17.606 9.244-39.971 66.708-8.36 70.01 29.47 3.215 20.532-58.704 8.36-70.01z" stroke="#000" fill="#00f" transform="matrix(.53394 .01806 -.7225 .18581 1099.968 105.897)"/><path d="M180.07 59.95l-3.593 20.599-8.081 3.8-6.155 24.989 16.984 3.71 16.825-.104-.745-25.724-7.098-5.42.833-20.893-4.14-.441-.69-.074-4.14-.441z" fill="url(#q)" transform="matrix(.53394 .01806 -.7225 .18581 1099.968 105.897)"/><path d="M1135.517 124.273c-2.5.073-4.82.172-6.039.427.024.29 6.328.575 9.94.862-4.147-.526-7.144-1.013-3.901-1.289z" opacity=".43" fill="#18c242"/><path d="M1102.643 130.94c-14.69 2.572-33.099 6.788-24.188 7.698-2.066-1.906 11.777-5.166 24.188-7.697z" opacity=".504" fill="#fff"/><path d="M116.14 74.736c0 10.349-3.72 18.738-8.309 18.738s-8.308-8.39-8.308-18.738 3.72-18.738 8.309-18.738 8.308 8.39 8.308 18.738z" transform="matrix(.38833 .05538 -.77532 .18127 1124.26 111.952)" opacity=".712" fill="url(#k)"/><path d="M1110.597 131.34c-2.458.543-4.983.912-5.64.823s.803-.602 3.26-1.145 4.984-.913 5.641-.824-.802.602-3.26 1.145z" fill="#fff"/><path d="M190.93 113.07s.24 34.562-14.496 45.785c0 0 21.92 3.359 14.496-45.785z" opacity=".487" fill="url(#r)" transform="matrix(.53394 .01806 -.7225 .18581 1099.968 105.897)"/></g><g><path d="M233.59 95.259c-17.606 9.244-39.971 66.708-8.36 70.01 29.47 3.215 20.532-58.704 8.36-70.01z" stroke="#000" fill="#0f0" transform="matrix(.53394 .01806 -.7225 .18581 1091.646 110.062)"/><path d="M230.99 64.192l-3.593 20.599-8.081 3.8-6.155 24.989 16.984 3.71 16.825-.104-.745-25.724-7.098-5.42.833-20.893-4.14-.441-.69-.074-4.14-.441z" fill="url(#j)" transform="matrix(.53394 .01806 -.7225 .18581 1091.646 110.062)"/><path d="M1151.319 130.146c-2.5.073-4.82.171-6.039.426.024.29 6.328.575 9.94.862-4.147-.526-7.144-1.013-3.901-1.288z" opacity=".43" fill="#18c242"/><path d="M1118.447 136.813c-14.69 2.572-33.099 6.787-24.188 7.697-2.066-1.905 11.777-5.166 24.188-7.697z" opacity=".504" fill="#fff"/><path d="M116.14 74.736c0 10.349-3.72 18.738-8.309 18.738s-8.308-8.39-8.308-18.738 3.72-18.738 8.309-18.738 8.308 8.39 8.308 18.738z" transform="matrix(.38833 .05538 -.77532 .18127 1140.058 117.825)" opacity=".712" fill="url(#k)"/><path d="M1126.394 137.212c-2.459.544-4.984.912-5.641.823s.803-.601 3.26-1.145 4.984-.912 5.641-.823-.802.601-3.26 1.145z" fill="#fff"/><path d="M241.84 117.31s.24 34.562-14.496 45.785c0 0 21.92 3.359 14.496-45.785z" opacity=".487" fill="url(#l)" transform="matrix(.53394 .01806 -.7225 .18581 1091.646 110.062)"/></g><g><path d="M283.08 93.845c-17.606 9.244-39.971 66.708-8.36 70.01 29.47 3.215 20.532-58.704 8.36-70.01z" stroke="#000" fill="#ff0" transform="matrix(.53394 .01806 -.7225 .18581 1094.932 114.636)"/><path d="M280.48 62.778l-3.593 20.599-8.081 3.8-6.155 24.989 16.984 3.71 16.825-.104-.745-25.724-7.098-5.42.833-20.893-4.14-.441-.69-.074-4.14-.441z" fill="url(#m)" transform="matrix(.53394 .01806 -.7225 .18581 1094.932 114.636)"/><path d="M1182.051 135.351c-2.5.073-4.82.172-6.038.426.024.29 6.327.575 9.94.862-4.148-.525-7.145-1.012-3.902-1.288z" opacity=".43" fill="#18c242"/><path d="M1149.176 142.019c-14.69 2.572-33.098 6.787-24.188 7.697-2.066-1.905 11.777-5.166 24.188-7.697z" fill="#fff"/><path d="M116.14 74.736c0 10.349-3.72 18.738-8.309 18.738s-8.308-8.39-8.308-18.738 3.72-18.738 8.309-18.738 8.308 8.39 8.308 18.738z" transform="matrix(.38833 .05538 -.77532 .18127 1170.796 123.03)" fill="url(#k)"/><path d="M1157.132 142.417c-2.458.544-4.983.913-5.64.824s.802-.602 3.26-1.146 4.984-.912 5.641-.823-.803.602-3.261 1.145z" fill="#fff"/><path d="M290.81 115.72s-14.609 13.348-14.496 45.785c0 0 21.92 3.359 14.496-45.785z" fill="url(#n)" transform="matrix(.53394 .01806 -.7225 .18581 1094.932 114.636)"/></g><g><path d="M135.21 88.346c-17.606 9.244-39.971 66.708-8.36 70.01 29.47 3.215 20.532-58.704 8.36-70.01z" stroke="#000" fill="#ff2a2a" transform="matrix(.53394 .01806 -.7225 .18581 1273.873 123.804)"/><path d="M132.61 37.279l-3.593 20.599-8.081 3.8-6.155 24.989 16.984 3.71 16.825-.104-.745-25.724-7.098-5.42.833-20.893-4.14-.441-.69-.074-4.14-.441z" fill="url(#o)" transform="matrix(.53394 .01806 -.7225 .18581 1259.423 127.52)"/><path d="M1286.01 140.826c-2.5.073-4.82.172-6.038.427.024.29 6.328.574 9.94.861-4.147-.525-7.144-1.012-3.901-1.288z" opacity=".43" fill="#18c242"/><path d="M1253.14 147.493c-14.69 2.572-33.1 6.788-24.189 7.697-2.065-1.905 11.778-5.166 24.189-7.697z" opacity=".504" fill="#fff"/><path d="M116.14 74.736c0 10.349-3.72 18.738-8.309 18.738s-8.308-8.39-8.308-18.738 3.72-18.738 8.309-18.738 8.308 8.39 8.308 18.738z" transform="matrix(.38833 .05538 -.77532 .18127 1274.754 128.506)" opacity=".712" fill="url(#k)"/><path d="M1261.09 147.892c-2.459.544-4.984.913-5.641.824s.803-.602 3.26-1.145 4.984-.913 5.641-.824-.802.602-3.26 1.145z" fill="#fff"/><path d="M118.97 59.003s.24 34.562-14.496 45.785c0 0 21.92 3.359 14.496-45.785z" transform="matrix(.53394 .01806 -.7225 .18581 1249.824 133.796)" opacity=".487" fill="url(#p)"/></g><g><path d="M182.67 91.017c-17.606 9.244-39.971 66.708-8.36 70.01 29.47 3.215 20.532-58.704 8.36-70.01z" stroke="#000" fill="#00f" transform="matrix(.53394 .01806 -.7225 .18581 1204.862 122.523)"/><path d="M180.07 59.95l-3.593 20.599-8.081 3.8-6.155 24.989 16.984 3.71 16.825-.104-.745-25.724-7.098-5.42.833-20.893-4.14-.441-.69-.074-4.14-.441z" fill="url(#q)" transform="matrix(.53394 .01806 -.7225 .18581 1204.862 122.523)"/><path d="M1240.411 140.899c-2.5.073-4.82.171-6.038.426.024.29 6.327.575 9.94.862-4.148-.526-7.145-1.013-3.902-1.288z" opacity=".43" fill="#18c242"/><path d="M1207.538 147.566c-14.69 2.572-33.099 6.788-24.188 7.697-2.066-1.905 11.777-5.166 24.188-7.697z" opacity=".504" fill="#fff"/><path d="M116.14 74.736c0 10.349-3.72 18.738-8.309 18.738s-8.308-8.39-8.308-18.738 3.72-18.738 8.309-18.738 8.308 8.39 8.308 18.738z" transform="matrix(.38833 .05538 -.77532 .18127 1229.155 128.578)" opacity=".712" fill="url(#k)"/><path d="M1215.492 147.965c-2.458.544-4.983.912-5.64.823s.802-.601 3.26-1.145 4.984-.912 5.641-.824-.803.602-3.26 1.146z" fill="#fff"/><path d="M190.93 113.07s.24 34.562-14.496 45.785c0 0 21.92 3.359 14.496-45.785z" opacity=".487" fill="url(#r)" transform="matrix(.53394 .01806 -.7225 .18581 1204.862 122.523)"/></g><g><path d="M233.59 95.259c-17.606 9.244-39.971 66.708-8.36 70.01 29.47 3.215 20.532-58.704 8.36-70.01z" stroke="#000" fill="#0f0" transform="matrix(.15655 .1004 -.80805 .19886 1337.63 105.02)"/><path d="M230.99 64.192l-3.593 20.599-8.081 3.8-6.155 24.989 16.984 3.71 16.825-.104-.745-25.724-7.098-5.42.833-20.893-4.14-.441-.69-.074-4.14-.441z" fill="url(#j)" transform="matrix(.15655 .1004 -.80805 .19886 1337.63 105.02)"/><path d="M1303.898 145c-1.18-.22-2.363-.374-3.56-.132-.813.466.833 1.765 1.425 2.707-.123-1.394.09-2.571 2.135-2.575z" opacity=".43" fill="#18c242"/><path d="M1272.2 151.203c-13.009 2.123-32.127 6.365-31.238 9.008 4.598-3.31 19.232-6.644 31.238-9.008z" opacity=".504" fill="#fff"/><path d="M116.14 74.736c0 10.349-3.72 18.738-8.309 18.738s-8.308-8.39-8.308-18.738 3.72-18.738 8.309-18.738 8.308 8.39 8.308 18.738z" transform="matrix(-.00594 .14028 -.81572 .18454 1334.453 123.874)" opacity=".712" fill="url(#k)"/><path d="M1274.16 152.905c-2.497.535-4.526.784-4.53.554s2.02-.85 4.517-1.386 4.527-.784 4.53-.554-2.018.85-4.516 1.386z" fill="#fff"/><path d="M241.84 117.31s.24 34.562-14.496 45.785c0 0 21.92 3.359 14.496-45.785z" opacity=".487" fill="url(#l)" transform="matrix(.15655 .1004 -.80805 .19886 1337.63 105.02)"/></g><g><path d="M283.08 93.845c-17.606 9.244-39.971 66.708-8.36 70.01 29.47 3.215 20.532-58.704 8.36-70.01z" stroke="#000" fill="#ff0" transform="matrix(.42127 .03526 -.80805 .19886 1284.36 121.222)"/><path d="M280.48 62.778l-3.593 20.599-8.081 3.8-6.155 24.989 16.984 3.71 16.825-.104-.745-25.724-7.098-5.42.833-20.893-4.14-.441-.69-.074-4.14-.441z" fill="url(#m)" transform="matrix(.42127 .03526 -.80805 .19886 1284.36 121.222)"/><path d="M1332.98 147.81c-2.151.02-4.182.075-5.479.342-.308.34 4.584.84 7.248 1.273-2.836-.726-4.764-1.376-1.77-1.614z" opacity=".43" fill="#18c242"/><path d="M1298.235 154.764c-15.064 2.629-35.066 7.088-28.724 8.389.448-2.289 15.591-5.748 28.724-8.389z" fill="#fff"/><path d="M116.14 74.736c0 10.349-3.72 18.738-8.309 18.738s-8.308-8.39-8.308-18.738 3.72-18.738 8.309-18.738 8.308 8.39 8.308 18.738z" transform="matrix(.25856 .07518 -.8466 .19214 1337.616 133.066)" fill="url(#k)"/><path d="M1304.365 155.44c-2.649.574-5.155.94-5.598.818s1.345-.684 3.994-1.257 5.156-.939 5.599-.817-1.346.684-3.995 1.257z" fill="#fff"/><path d="M290.81 115.72s-14.609 13.348-14.496 45.785c0 0 21.92 3.359 14.496-45.785z" fill="url(#n)" transform="matrix(.42127 .03526 -.80805 .19886 1284.36 121.222)"/></g><g><path d="M135.21 88.346c-17.606 9.244-39.971 66.708-8.36 70.01 29.47 3.215 20.532-58.704 8.36-70.01z" stroke="#000" fill="#ff2a2a" transform="matrix(.42127 .03526 -.80805 .19886 1386.709 124.91)"/><path d="M132.61 37.279l-3.593 20.599-8.081 3.8-6.155 24.989 16.984 3.71 16.825-.104-.745-25.724-7.098-5.42.833-20.893-4.14-.441-.69-.074-4.14-.441z" fill="url(#o)" transform="matrix(.42127 .03526 -.80805 .19886 1370.548 128.888)"/><path d="M1377.48 145.193c-2.152.02-4.183.074-5.479.34-.308.342 4.584.842 7.248 1.274-2.836-.726-4.765-1.376-1.77-1.614z" opacity=".43" fill="#18c242"/><path d="M1342.739 152.145c-15.064 2.629-35.066 7.088-28.724 8.389.448-2.289 15.591-5.748 28.724-8.39z" opacity=".504" fill="#fff"/><path d="M116.14 74.736c0 10.349-3.72 18.738-8.309 18.738s-8.308-8.39-8.308-18.738 3.72-18.738 8.309-18.738 8.308 8.39 8.308 18.738z" transform="matrix(.25856 .07518 -.8466 .19214 1382.115 130.448)" opacity=".712" fill="url(#k)"/><path d="M1348.863 152.823c-2.65.573-5.156.939-5.599.817s1.346-.684 3.995-1.257 5.155-.939 5.598-.817-1.345.684-3.994 1.257z" fill="#fff"/><path d="M118.97 59.003s.24 34.562-14.496 45.785c0 0 21.92 3.359 14.496-45.785z" transform="matrix(.42127 .03526 -.80805 .19886 1355.502 135.994)" opacity=".487" fill="url(#p)"/></g><g><path d="M182.67 91.017c-17.606 9.244-39.971 66.708-8.36 70.01 29.47 3.215 20.532-58.704 8.36-70.01z" stroke="#000" fill="#00f" transform="matrix(.47368 .04442 -.97796 .1453 1402.865 128.962)"/><path d="M180.07 59.95l-3.593 20.599-8.081 3.8-6.155 24.989 16.984 3.71 16.825-.104-.745-25.724-7.098-5.42.833-20.893-4.14-.441-.69-.074-4.14-.441z" fill="url(#q)" transform="matrix(.47368 .04442 -.97796 .1453 1402.865 128.962)"/><path d="M1406.875 148.696c-2.47-.054-4.813-.074-6.368.114-.442.284 5.035.878 7.976 1.34-3.062-.722-5.103-1.348-1.608-1.454z" opacity=".43" fill="#18c242"/><path d="M1365.242 153.561c-17.95 1.776-42.037 4.971-35.107 6.306 1.11-1.964 19.367-4.456 35.107-6.306z" opacity=".504" fill="#fff"/><path d="M116.14 74.736c0 10.349-3.72 18.738-8.309 18.738s-8.308-8.39-8.308-18.738 3.72-18.738 8.309-18.738 8.308 8.39 8.308 18.738z" transform="matrix(.27679 .07357 -1.0204 .1382 1416.028 136.095)" opacity=".712" fill="url(#k)"/><path d="M1372.091 154.35c-3.185.407-6.154.64-6.63.521s1.72-.547 4.906-.955 6.154-.642 6.63-.522-1.72.547-4.906.955z" fill="#fff"/><path d="M190.93 113.07s.24 34.562-14.496 45.785c0 0 21.92 3.359 14.496-45.785z" opacity=".487" fill="url(#r)" transform="matrix(.47368 .04442 -.97796 .1453 1402.865 128.962)"/></g><g><path d="M233.59 95.259c-17.606 9.244-39.971 66.708-8.36 70.01 29.47 3.215 20.532-58.704 8.36-70.01z" stroke="#000" fill="#0f0" transform="matrix(.60532 .016 -.85922 .16276 1400.957 128.459)"/><path d="M230.99 64.192l-3.593 20.599-8.081 3.8-6.155 24.989 16.984 3.71 16.825-.104-.745-25.724-7.098-5.42.833-20.893-4.14-.441-.69-.074-4.14-.441z" fill="url(#j)" transform="matrix(.60532 .016 -.85922 .16276 1400.957 128.459)"/><path d="M1465.157 146.09c-2.864.064-5.529.15-6.966.373-.028.254 7.104.506 11.169.758-4.629-.462-7.953-.89-4.203-1.13z" opacity=".43" fill="#18c242"/><path d="M1426.406 151.928c-17.24 2.252-39.034 5.944-29.048 6.744-1.992-1.672 14.414-4.528 29.048-6.744z" opacity=".504" fill="#fff"/><path d="M116.14 74.736c0 10.349-3.72 18.738-8.309 18.738s-8.308-8.39-8.308-18.738 3.72-18.738 8.309-18.738 8.308 8.39 8.308 18.738z" transform="matrix(.43217 .04868 -.91858 .15876 1454.67 135.282)" opacity=".712" fill="url(#k)"/><path d="M1435.39 152.28c-2.907.477-5.856.8-6.589.721s1.03-.527 3.937-1.003 5.856-.8 6.588-.721-1.03.527-3.936 1.004z" fill="#fff"/><path d="M241.84 117.31s.24 34.562-14.496 45.785c0 0 21.92 3.359 14.496-45.785z" opacity=".487" fill="url(#l)" transform="matrix(.60532 .016 -.85922 .16276 1400.957 128.459)"/></g></g><g><path d="M1646.855 43.888c-3.142 9.41 8.666 37.818 21.183 28.083 11.716-9.026-12.896-28.22-21.183-28.083z" stroke="#000" fill="#ff2a2a" stroke-width=".4989"/><path d="M132.61 37.279l-3.593 20.599-8.081 3.8-6.155 24.989 16.984 3.71 16.825-.104-.745-25.724-7.098-5.42.833-20.893-4.14-.441-.69-.074-4.14-.441z" fill="url(#o)" transform="matrix(.35987 -.34554 .34554 .35987 1574.58 66.013)"/><path d="M1641.624 42.452c-1.061 1.538-1.924 2.949-1.573 3.585 1.162-.164 5.694-4.28 8.781-6.702-4.321 2.882-7.868 5.019-7.208 3.117z" opacity=".43" fill="#18c242"/><path d="M1650.27 59.74c2.25 7.935 9 17.37 17.413 11.293-8.66 2.277-14.094-4.772-17.413-11.292z" opacity=".504" fill="#fff"/><path d="M116.14 74.736c0 10.349-3.72 18.738-8.309 18.738s-8.308-8.39-8.308-18.738 3.72-18.738 8.309-18.738 8.308 8.39 8.308 18.738z" transform="matrix(.429 -.27294 .29902 .39547 1586.762 55.852)" opacity=".712" fill="url(#k)"/><path d="M1656.144 54.53c.826 1.269.922 2.67.215 3.13s-1.949-.198-2.774-1.467-.922-2.672-.215-3.131 1.949.198 2.774 1.467z" fill="#fff"/><path d="M118.97 59.003s.24 34.562-14.496 45.785c0 0 21.92 3.359 14.496-45.785z" transform="matrix(.35987 -.34554 .34554 .35987 1594.245 68.845)" opacity=".487" fill="url(#p)"/></g></g></svg>