<svg class="shirtOverlay" width="86" height="380" viewBox="202.715 584.407 86.593 380.048" xmlns="http://www.w3.org/2000/svg"><defs><linearGradient id="a" gradientUnits="userSpaceOnUse" x1="21.667" y1="-97.101" x2="21.667" y2="2.717"><stop offset="0" stop-color="#fff"/><stop offset="1" stop-color="#ccc"/></linearGradient><linearGradient id="b" gradientUnits="userSpaceOnUse" x1="-51.457" y1="-130.246" x2="-51.457" y2="-86.914"><stop offset="0" stop-color="#fff"/><stop offset="1" stop-color="#ccc"/></linearGradient><linearGradient id="c" gradientUnits="userSpaceOnUse" x1="-17.153" y1="-111.288" x2="-17.153" y2="-84.205"><stop offset="0" stop-color="#fff"/><stop offset="1" stop-color="#ccc"/></linearGradient><linearGradient id="d" gradientUnits="userSpaceOnUse" x1="-79.442" y1="-103.163" x2="-79.442" y2="-74.275"><stop offset="0" stop-color="#fff"/><stop offset="1" stop-color="#ccc"/></linearGradient><linearGradient id="e" gradientUnits="userSpaceOnUse" x1="10.833" y1="-94.136" x2="10.833" y2="-67.053"><stop offset="0" stop-color="#fff"/><stop offset="1" stop-color="#ccc"/></linearGradient><linearGradient id="f" gradientUnits="userSpaceOnUse" x1="27.985" y1="-69.765" x2="27.985" y2="-49.897"><stop offset="0" stop-color="#fff"/><stop offset="1" stop-color="#ccc"/></linearGradient><linearGradient id="g" gradientUnits="userSpaceOnUse" x1="-103.817" y1="-77.886" x2="-103.817" y2="-50.803"><stop offset="0" stop-color="#fff"/><stop offset="1" stop-color="#ccc"/></linearGradient><linearGradient id="h" gradientUnits="userSpaceOnUse" x1="-103.817" y1="-77.886" x2="-103.817" y2="-50.803"><stop offset="0" stop-color="#fff"/><stop offset="1" stop-color="#ccc"/></linearGradient><linearGradient id="i" gradientUnits="userSpaceOnUse" x1="27.985" y1="-69.765" x2="27.985" y2="-49.897"><stop offset="0" stop-color="#fff"/><stop offset="1" stop-color="#ccc"/></linearGradient><linearGradient id="j" gradientUnits="userSpaceOnUse" x1="-103.817" y1="-77.886" x2="-103.817" y2="-50.803"><stop offset="0" stop-color="#fff"/><stop offset="1" stop-color="#ccc"/></linearGradient><linearGradient id="k" gradientUnits="userSpaceOnUse" x1="27.985" y1="-69.765" x2="27.985" y2="-49.897"><stop offset="0" stop-color="#fff"/><stop offset="1" stop-color="#ccc"/></linearGradient><linearGradient id="l" gradientUnits="userSpaceOnUse" x1="29.791" y1="-355.939" x2="29.791" y2="-310.801"><stop offset="0" stop-color="#fff"/><stop offset="1" stop-color="#ccc"/></linearGradient><linearGradient id="m" gradientUnits="userSpaceOnUse" x1="-173.334" y1="-344.193" x2="-173.334" y2="-302.667"><stop offset="0" stop-color="#fff"/><stop offset="1" stop-color="#ccc"/></linearGradient><linearGradient id="n" gradientUnits="userSpaceOnUse" x1="-103.817" y1="-77.886" x2="-103.817" y2="-50.803"><stop offset="0" stop-color="#fff"/><stop offset="1" stop-color="#ccc"/></linearGradient><linearGradient id="o" gradientUnits="userSpaceOnUse" x1="-103.817" y1="-77.886" x2="-103.817" y2="-50.803"><stop offset="0" stop-color="#fff"/><stop offset="1" stop-color="#ccc"/></linearGradient><linearGradient id="p" gradientUnits="userSpaceOnUse" x1="-103.817" y1="-77.886" x2="-103.817" y2="-50.803"><stop offset="0" stop-color="#fff"/><stop offset="1" stop-color="#ccc"/></linearGradient><linearGradient id="q" gradientUnits="userSpaceOnUse" x1="-103.817" y1="-77.886" x2="-103.817" y2="-50.803"><stop offset="0" stop-color="#fff"/><stop offset="1" stop-color="#ccc"/></linearGradient><linearGradient id="r" gradientUnits="userSpaceOnUse" x1="-103.817" y1="-77.886" x2="-103.817" y2="-50.803"><stop offset="0" stop-color="#fff"/><stop offset="1" stop-color="#ccc"/></linearGradient><linearGradient id="s" gradientUnits="userSpaceOnUse" x1="-103.817" y1="-77.886" x2="-103.817" y2="-50.803"><stop offset="0" stop-color="#fff"/><stop offset="1" stop-color="#ccc"/></linearGradient><linearGradient id="t" gradientUnits="userSpaceOnUse" x1="-103.817" y1="-77.886" x2="-103.817" y2="-50.803"><stop offset="0" stop-color="#fff"/><stop offset="1" stop-color="#ccc"/></linearGradient><linearGradient id="u" gradientUnits="userSpaceOnUse" x1="-103.817" y1="-77.886" x2="-103.817" y2="-50.803"><stop offset="0" stop-color="#fff"/><stop offset="1" stop-color="#ccc"/></linearGradient><linearGradient id="v" gradientUnits="userSpaceOnUse" x1="-103.817" y1="-77.886" x2="-103.817" y2="-50.803"><stop offset="0" stop-color="#fff"/><stop offset="1" stop-color="#ccc"/></linearGradient><linearGradient id="w" gradientUnits="userSpaceOnUse" x1="-103.817" y1="-77.886" x2="-103.817" y2="-50.803"><stop offset="0" stop-color="#fff"/><stop offset="1" stop-color="#ccc"/></linearGradient><linearGradient id="x" gradientUnits="userSpaceOnUse" x1="-103.817" y1="-77.886" x2="-103.817" y2="-50.803"><stop offset="0" stop-color="#fff"/><stop offset="1" stop-color="#ccc"/></linearGradient><linearGradient id="y" gradientUnits="userSpaceOnUse" x1="-103.817" y1="-77.886" x2="-103.817" y2="-50.803"><stop offset="0" stop-color="#fff"/><stop offset="1" stop-color="#ccc"/></linearGradient><linearGradient id="z" gradientUnits="userSpaceOnUse" x1="-103.817" y1="-77.886" x2="-103.817" y2="-50.803"><stop offset="0" stop-color="#fff"/><stop offset="1" stop-color="#ccc"/></linearGradient><linearGradient id="A" gradientUnits="userSpaceOnUse" x1="-103.817" y1="-77.886" x2="-103.817" y2="-50.803"><stop offset="0" stop-color="#fff"/><stop offset="1" stop-color="#ccc"/></linearGradient><linearGradient id="B" gradientUnits="userSpaceOnUse" x1="-103.817" y1="-77.886" x2="-103.817" y2="-50.803"><stop offset="0" stop-color="#fff"/><stop offset="1" stop-color="#ccc"/></linearGradient><linearGradient id="C" gradientUnits="userSpaceOnUse" x1="-103.817" y1="-77.886" x2="-103.817" y2="-50.803"><stop offset="0" stop-color="#fff"/><stop offset="1" stop-color="#ccc"/></linearGradient><linearGradient id="D" gradientUnits="userSpaceOnUse" x1="-103.817" y1="-77.886" x2="-103.817" y2="-50.803"><stop offset="0" stop-color="#fff"/><stop offset="1" stop-color="#ccc"/></linearGradient><linearGradient id="E" gradientUnits="userSpaceOnUse" x1="-103.817" y1="-77.886" x2="-103.817" y2="-50.803"><stop offset="0" stop-color="#fff"/><stop offset="1" stop-color="#ccc"/></linearGradient><linearGradient id="F" gradientUnits="userSpaceOnUse" x1="-103.817" y1="-77.886" x2="-103.817" y2="-50.803"><stop offset="0" stop-color="#fff"/><stop offset="1" stop-color="#ccc"/></linearGradient><linearGradient id="G" gradientUnits="userSpaceOnUse" x1="-103.817" y1="-77.886" x2="-103.817" y2="-50.803"><stop offset="0" stop-color="#fff"/><stop offset="1" stop-color="#ccc"/></linearGradient><linearGradient id="H" gradientUnits="userSpaceOnUse" x1="-103.817" y1="-77.886" x2="-103.817" y2="-50.803"><stop offset="0" stop-color="#fff"/><stop offset="1" stop-color="#ccc"/></linearGradient><linearGradient id="I" gradientUnits="userSpaceOnUse" x1="-103.817" y1="-77.886" x2="-103.817" y2="-50.803"><stop offset="0" stop-color="#fff"/><stop offset="1" stop-color="#ccc"/></linearGradient><linearGradient id="J" gradientUnits="userSpaceOnUse" x1="-103.817" y1="-77.886" x2="-103.817" y2="-50.803"><stop offset="0" stop-color="#fff"/><stop offset="1" stop-color="#ccc"/></linearGradient><linearGradient id="K" gradientUnits="userSpaceOnUse" x1="-103.817" y1="-77.886" x2="-103.817" y2="-50.803"><stop offset="0" stop-color="#fff"/><stop offset="1" stop-color="#ccc"/></linearGradient><linearGradient id="L" gradientUnits="userSpaceOnUse" x1="-103.817" y1="-77.886" x2="-103.817" y2="-50.803"><stop offset="0" stop-color="#fff"/><stop offset="1" stop-color="#ccc"/></linearGradient><linearGradient id="M" gradientUnits="userSpaceOnUse" x1="-103.817" y1="-77.886" x2="-103.817" y2="-50.803"><stop offset="0" stop-color="#fff"/><stop offset="1" stop-color="#ccc"/></linearGradient><linearGradient id="N" gradientUnits="userSpaceOnUse" x1="-103.817" y1="-77.886" x2="-103.817" y2="-50.803"><stop offset="0" stop-color="#fff"/><stop offset="1" stop-color="#ccc"/></linearGradient><linearGradient id="O" gradientUnits="userSpaceOnUse" x1="-103.817" y1="-77.886" x2="-103.817" y2="-50.803"><stop offset="0" stop-color="#fff"/><stop offset="1" stop-color="#ccc"/></linearGradient><linearGradient id="P" gradientUnits="userSpaceOnUse" x1="-103.817" y1="-77.886" x2="-103.817" y2="-50.803"><stop offset="0" stop-color="#fff"/><stop offset="1" stop-color="#ccc"/></linearGradient><linearGradient id="Q" gradientUnits="userSpaceOnUse" x1="-103.817" y1="-77.886" x2="-103.817" y2="-50.803"><stop offset="0" stop-color="#fff"/><stop offset="1" stop-color="#ccc"/></linearGradient><linearGradient id="R" gradientUnits="userSpaceOnUse" x1="-103.817" y1="-77.886" x2="-103.817" y2="-50.803"><stop offset="0" stop-color="#fff"/><stop offset="1" stop-color="#ccc"/></linearGradient><linearGradient id="S" gradientUnits="userSpaceOnUse" x1="-103.817" y1="-77.886" x2="-103.817" y2="-50.803"><stop offset="0" stop-color="#fff"/><stop offset="1" stop-color="#ccc"/></linearGradient><linearGradient id="T" gradientUnits="userSpaceOnUse" x1="-103.817" y1="-77.886" x2="-103.817" y2="-50.803"><stop offset="0" stop-color="#fff"/><stop offset="1" stop-color="#ccc"/></linearGradient><linearGradient id="U" gradientUnits="userSpaceOnUse" x1="-103.817" y1="-77.886" x2="-103.817" y2="-50.803"><stop offset="0" stop-color="#fff"/><stop offset="1" stop-color="#ccc"/></linearGradient><linearGradient id="V" gradientUnits="userSpaceOnUse" x1="-103.817" y1="-77.886" x2="-103.817" y2="-50.803"><stop offset="0" stop-color="#fff"/><stop offset="1" stop-color="#ccc"/></linearGradient><linearGradient id="W" gradientUnits="userSpaceOnUse" x1="-103.817" y1="-77.886" x2="-103.817" y2="-50.803"><stop offset="0" stop-color="#fff"/><stop offset="1" stop-color="#ccc"/></linearGradient><linearGradient id="X" gradientUnits="userSpaceOnUse" x1="-103.817" y1="-77.886" x2="-103.817" y2="-50.803"><stop offset="0" stop-color="#fff"/><stop offset="1" stop-color="#ccc"/></linearGradient><linearGradient id="Y" gradientUnits="userSpaceOnUse" x1="-103.817" y1="-77.886" x2="-103.817" y2="-50.803"><stop offset="0" stop-color="#fff"/><stop offset="1" stop-color="#ccc"/></linearGradient><linearGradient id="Z" gradientUnits="userSpaceOnUse" x1="-103.817" y1="-77.886" x2="-103.817" y2="-50.803"><stop offset="0" stop-color="#fff"/><stop offset="1" stop-color="#ccc"/></linearGradient><linearGradient id="aa" gradientUnits="userSpaceOnUse" x1="-103.817" y1="-77.886" x2="-103.817" y2="-50.803"><stop offset="0" stop-color="#fff"/><stop offset="1" stop-color="#ccc"/></linearGradient><linearGradient id="ab" gradientUnits="userSpaceOnUse" x1="-103.817" y1="-77.886" x2="-103.817" y2="-50.803"><stop offset="0" stop-color="#fff"/><stop offset="1" stop-color="#ccc"/></linearGradient><linearGradient id="ac" gradientUnits="userSpaceOnUse" x1="-103.817" y1="-77.886" x2="-103.817" y2="-50.803"><stop offset="0" stop-color="#fff"/><stop offset="1" stop-color="#ccc"/></linearGradient><linearGradient id="ad" gradientUnits="userSpaceOnUse" x1="-103.817" y1="-77.886" x2="-103.817" y2="-50.803"><stop offset="0" stop-color="#fff"/><stop offset="1" stop-color="#ccc"/></linearGradient><linearGradient id="ae" gradientUnits="userSpaceOnUse" x1="-103.817" y1="-77.886" x2="-103.817" y2="-50.803"><stop offset="0" stop-color="#fff"/><stop offset="1" stop-color="#ccc"/></linearGradient><linearGradient id="af" gradientUnits="userSpaceOnUse" x1="-103.817" y1="-77.886" x2="-103.817" y2="-50.803"><stop offset="0" stop-color="#fff"/><stop offset="1" stop-color="#ccc"/></linearGradient><linearGradient id="ag" gradientUnits="userSpaceOnUse" x1="-103.817" y1="-77.886" x2="-103.817" y2="-50.803"><stop offset="0" stop-color="#fff"/><stop offset="1" stop-color="#ccc"/></linearGradient><linearGradient id="ah" gradientUnits="userSpaceOnUse" x1="-103.817" y1="-77.886" x2="-103.817" y2="-50.803"><stop offset="0" stop-color="#fff"/><stop offset="1" stop-color="#ccc"/></linearGradient><linearGradient id="ai" gradientUnits="userSpaceOnUse" x1="-103.817" y1="-77.886" x2="-103.817" y2="-50.803"><stop offset="0" stop-color="#fff"/><stop offset="1" stop-color="#ccc"/></linearGradient><linearGradient id="aj" gradientUnits="userSpaceOnUse" x1="-103.817" y1="-77.886" x2="-103.817" y2="-50.803"><stop offset="0" stop-color="#fff"/><stop offset="1" stop-color="#ccc"/></linearGradient><linearGradient id="ak" gradientUnits="userSpaceOnUse" x1="-103.817" y1="-77.886" x2="-103.817" y2="-50.803"><stop offset="0" stop-color="#fff"/><stop offset="1" stop-color="#ccc"/></linearGradient><linearGradient id="al" gradientUnits="userSpaceOnUse" x1="-103.817" y1="-77.886" x2="-103.817" y2="-50.803"><stop offset="0" stop-color="#fff"/><stop offset="1" stop-color="#ccc"/></linearGradient><linearGradient id="am" gradientUnits="userSpaceOnUse" x1="-103.817" y1="-77.886" x2="-103.817" y2="-50.803"><stop offset="0" stop-color="#fff"/><stop offset="1" stop-color="#ccc"/></linearGradient><linearGradient id="an" gradientUnits="userSpaceOnUse" x1="-103.817" y1="-77.886" x2="-103.817" y2="-50.803"><stop offset="0" stop-color="#fff"/><stop offset="1" stop-color="#ccc"/></linearGradient><linearGradient id="ao" gradientUnits="userSpaceOnUse" x1="-103.817" y1="-77.886" x2="-103.817" y2="-50.803"><stop offset="0" stop-color="#fff"/><stop offset="1" stop-color="#ccc"/></linearGradient><linearGradient id="ap" gradientUnits="userSpaceOnUse" x1="-103.817" y1="-77.886" x2="-103.817" y2="-50.803"><stop offset="0" stop-color="#fff"/><stop offset="1" stop-color="#ccc"/></linearGradient><linearGradient id="aq" gradientUnits="userSpaceOnUse" x1="-103.817" y1="-77.886" x2="-103.817" y2="-50.803"><stop offset="0" stop-color="#fff"/><stop offset="1" stop-color="#ccc"/></linearGradient><linearGradient id="ar" gradientUnits="userSpaceOnUse" x1="-103.817" y1="-77.886" x2="-103.817" y2="-50.803"><stop offset="0" stop-color="#fff"/><stop offset="1" stop-color="#ccc"/></linearGradient><linearGradient id="as" gradientUnits="userSpaceOnUse" x1="-103.817" y1="-77.886" x2="-103.817" y2="-50.803"><stop offset="0" stop-color="#fff"/><stop offset="1" stop-color="#ccc"/></linearGradient><linearGradient id="at" gradientUnits="userSpaceOnUse" x1="-103.817" y1="-77.886" x2="-103.817" y2="-50.803"><stop offset="0" stop-color="#fff"/><stop offset="1" stop-color="#ccc"/></linearGradient><linearGradient id="au" gradientUnits="userSpaceOnUse" x1="-103.817" y1="-77.886" x2="-103.817" y2="-50.803"><stop offset="0" stop-color="#fff"/><stop offset="1" stop-color="#ccc"/></linearGradient><linearGradient id="av" gradientUnits="userSpaceOnUse" x1="-103.817" y1="-77.886" x2="-103.817" y2="-50.803"><stop offset="0" stop-color="#fff"/><stop offset="1" stop-color="#ccc"/></linearGradient><linearGradient id="aw" gradientUnits="userSpaceOnUse" x1="-103.817" y1="-77.886" x2="-103.817" y2="-50.803"><stop offset="0" stop-color="#fff"/><stop offset="1" stop-color="#ccc"/></linearGradient><linearGradient id="ax" gradientUnits="userSpaceOnUse" x1="-103.817" y1="-77.886" x2="-103.817" y2="-50.803"><stop offset="0" stop-color="#fff"/><stop offset="1" stop-color="#ccc"/></linearGradient><linearGradient id="ay" gradientUnits="userSpaceOnUse" x1="-103.817" y1="-77.886" x2="-103.817" y2="-50.803"><stop offset="0" stop-color="#fff"/><stop offset="1" stop-color="#ccc"/></linearGradient><linearGradient id="az" gradientUnits="userSpaceOnUse" x1="-103.817" y1="-77.886" x2="-103.817" y2="-50.803"><stop offset="0" stop-color="#fff"/><stop offset="1" stop-color="#ccc"/></linearGradient><linearGradient id="aA" gradientUnits="userSpaceOnUse" x1="-103.817" y1="-77.886" x2="-103.817" y2="-50.803"><stop offset="0" stop-color="#fff"/><stop offset="1" stop-color="#ccc"/></linearGradient><linearGradient id="aB" gradientUnits="userSpaceOnUse" x1="-103.817" y1="-77.886" x2="-103.817" y2="-50.803"><stop offset="0" stop-color="#fff"/><stop offset="1" stop-color="#ccc"/></linearGradient><linearGradient id="aC" gradientUnits="userSpaceOnUse" x1="-103.817" y1="-77.886" x2="-103.817" y2="-50.803"><stop offset="0" stop-color="#fff"/><stop offset="1" stop-color="#ccc"/></linearGradient><linearGradient id="aD" gradientUnits="userSpaceOnUse" x1="-103.817" y1="-77.886" x2="-103.817" y2="-50.803"><stop offset="0" stop-color="#fff"/><stop offset="1" stop-color="#ccc"/></linearGradient><linearGradient id="aE" gradientUnits="userSpaceOnUse" x1="-103.817" y1="-77.886" x2="-103.817" y2="-50.803"><stop offset="0" stop-color="#fff"/><stop offset="1" stop-color="#ccc"/></linearGradient><linearGradient id="aF" gradientUnits="userSpaceOnUse" x1="-103.817" y1="-77.886" x2="-103.817" y2="-50.803"><stop offset="0" stop-color="#fff"/><stop offset="1" stop-color="#ccc"/></linearGradient><linearGradient id="aG" gradientUnits="userSpaceOnUse" x1="-103.817" y1="-77.886" x2="-103.817" y2="-50.803"><stop offset="0" stop-color="#fff"/><stop offset="1" stop-color="#ccc"/></linearGradient><linearGradient id="aH" gradientUnits="userSpaceOnUse" x1="-103.817" y1="-77.886" x2="-103.817" y2="-50.803"><stop offset="0" stop-color="#fff"/><stop offset="1" stop-color="#ccc"/></linearGradient><linearGradient id="aI" gradientUnits="userSpaceOnUse" x1="-103.817" y1="-77.886" x2="-103.817" y2="-50.803"><stop offset="0" stop-color="#fff"/><stop offset="1" stop-color="#ccc"/></linearGradient><linearGradient id="aJ" gradientUnits="userSpaceOnUse" x1="-103.817" y1="-77.886" x2="-103.817" y2="-50.803"><stop offset="0" stop-color="#fff"/><stop offset="1" stop-color="#ccc"/></linearGradient><linearGradient id="aK" gradientUnits="userSpaceOnUse" x1="-103.817" y1="-77.886" x2="-103.817" y2="-50.803"><stop offset="0" stop-color="#fff"/><stop offset="1" stop-color="#ccc"/></linearGradient><linearGradient id="aL" gradientUnits="userSpaceOnUse" x1="-103.817" y1="-77.886" x2="-103.817" y2="-50.803"><stop offset="0" stop-color="#fff"/><stop offset="1" stop-color="#ccc"/></linearGradient><linearGradient id="aM" gradientUnits="userSpaceOnUse" x1="-103.817" y1="-77.886" x2="-103.817" y2="-50.803"><stop offset="0" stop-color="#fff"/><stop offset="1" stop-color="#ccc"/></linearGradient><linearGradient id="aN" gradientUnits="userSpaceOnUse" x1="-103.817" y1="-77.886" x2="-103.817" y2="-50.803"><stop offset="0" stop-color="#fff"/><stop offset="1" stop-color="#ccc"/></linearGradient><linearGradient id="aO" gradientUnits="userSpaceOnUse" x1="-103.817" y1="-77.886" x2="-103.817" y2="-50.803"><stop offset="0" stop-color="#fff"/><stop offset="1" stop-color="#ccc"/></linearGradient><linearGradient id="aP" gradientUnits="userSpaceOnUse" x1="-103.817" y1="-77.886" x2="-103.817" y2="-50.803"><stop offset="0" stop-color="#fff"/><stop offset="1" stop-color="#ccc"/></linearGradient><linearGradient id="aQ" gradientUnits="userSpaceOnUse" x1="-103.817" y1="-77.886" x2="-103.817" y2="-50.803"><stop offset="0" stop-color="#fff"/><stop offset="1" stop-color="#ccc"/></linearGradient><linearGradient id="aR" gradientUnits="userSpaceOnUse" x1="-103.817" y1="-77.886" x2="-103.817" y2="-50.803"><stop offset="0" stop-color="#fff"/><stop offset="1" stop-color="#ccc"/></linearGradient><linearGradient id="aS" gradientUnits="userSpaceOnUse" x1="-103.817" y1="-77.886" x2="-103.817" y2="-50.803"><stop offset="0" stop-color="#fff"/><stop offset="1" stop-color="#ccc"/></linearGradient><linearGradient id="aT" gradientUnits="userSpaceOnUse" x1="-103.817" y1="-77.886" x2="-103.817" y2="-50.803"><stop offset="0" stop-color="#fff"/><stop offset="1" stop-color="#ccc"/></linearGradient><linearGradient id="aU" gradientUnits="userSpaceOnUse" x1="-103.817" y1="-77.886" x2="-103.817" y2="-50.803"><stop offset="0" stop-color="#fff"/><stop offset="1" stop-color="#ccc"/></linearGradient><linearGradient id="aV" gradientUnits="userSpaceOnUse" x1="-103.817" y1="-77.886" x2="-103.817" y2="-50.803"><stop offset="0" stop-color="#fff"/><stop offset="1" stop-color="#ccc"/></linearGradient><linearGradient id="aW" gradientUnits="userSpaceOnUse" x1="-103.817" y1="-77.886" x2="-103.817" y2="-50.803"><stop offset="0" stop-color="#fff"/><stop offset="1" stop-color="#ccc"/></linearGradient><linearGradient id="aX" gradientUnits="userSpaceOnUse" x1="-103.817" y1="-77.886" x2="-103.817" y2="-50.803"><stop offset="0" stop-color="#fff"/><stop offset="1" stop-color="#ccc"/></linearGradient><linearGradient id="aY" gradientUnits="userSpaceOnUse" x1="-103.817" y1="-77.886" x2="-103.817" y2="-50.803"><stop offset="0" stop-color="#fff"/><stop offset="1" stop-color="#ccc"/></linearGradient><linearGradient id="aZ" gradientUnits="userSpaceOnUse" x1="-103.817" y1="-77.886" x2="-103.817" y2="-50.803"><stop offset="0" stop-color="#fff"/><stop offset="1" stop-color="#ccc"/></linearGradient><linearGradient id="ba" gradientUnits="userSpaceOnUse" x1="-103.817" y1="-77.886" x2="-103.817" y2="-50.803"><stop offset="0" stop-color="#fff"/><stop offset="1" stop-color="#ccc"/></linearGradient><linearGradient id="bb" gradientUnits="userSpaceOnUse" x1="-103.817" y1="-77.886" x2="-103.817" y2="-50.803"><stop offset="0" stop-color="#fff"/><stop offset="1" stop-color="#ccc"/></linearGradient><linearGradient id="bc" gradientUnits="userSpaceOnUse" x1="-103.817" y1="-77.886" x2="-103.817" y2="-50.803"><stop offset="0" stop-color="#fff"/><stop offset="1" stop-color="#ccc"/></linearGradient><linearGradient id="bd" gradientUnits="userSpaceOnUse" x1="-103.817" y1="-77.886" x2="-103.817" y2="-50.803"><stop offset="0" stop-color="#fff"/><stop offset="1" stop-color="#ccc"/></linearGradient><linearGradient id="be" gradientUnits="userSpaceOnUse" x1="-103.817" y1="-77.886" x2="-103.817" y2="-50.803"><stop offset="0" stop-color="#fff"/><stop offset="1" stop-color="#ccc"/></linearGradient><linearGradient id="bf" gradientUnits="userSpaceOnUse" x1="-103.817" y1="-77.886" x2="-103.817" y2="-50.803"><stop offset="0" stop-color="#fff"/><stop offset="1" stop-color="#ccc"/></linearGradient><linearGradient id="bg" gradientUnits="userSpaceOnUse" x1="-103.817" y1="-77.886" x2="-103.817" y2="-50.803"><stop offset="0" stop-color="#fff"/><stop offset="1" stop-color="#ccc"/></linearGradient><linearGradient id="bh" gradientUnits="userSpaceOnUse" x1="-103.817" y1="-77.886" x2="-103.817" y2="-50.803"><stop offset="0" stop-color="#fff"/><stop offset="1" stop-color="#ccc"/></linearGradient><linearGradient id="bi" gradientUnits="userSpaceOnUse" x1="-103.817" y1="-77.886" x2="-103.817" y2="-50.803"><stop offset="0" stop-color="#fff"/><stop offset="1" stop-color="#ccc"/></linearGradient><linearGradient id="bj" gradientUnits="userSpaceOnUse" x1="-103.817" y1="-77.886" x2="-103.817" y2="-50.803"><stop offset="0" stop-color="#fff"/><stop offset="1" stop-color="#ccc"/></linearGradient><linearGradient id="bk" gradientUnits="userSpaceOnUse" x1="-103.817" y1="-77.886" x2="-103.817" y2="-50.803"><stop offset="0" stop-color="#fff"/><stop offset="1" stop-color="#ccc"/></linearGradient><linearGradient id="bl" gradientUnits="userSpaceOnUse" x1="-103.817" y1="-77.886" x2="-103.817" y2="-50.803"><stop offset="0" stop-color="#fff"/><stop offset="1" stop-color="#ccc"/></linearGradient><linearGradient id="bm" gradientUnits="userSpaceOnUse" x1="21.667" y1="-97.101" x2="21.667" y2="2.717"><stop offset="0" stop-color="#fff"/><stop offset="1" stop-color="#ccc"/></linearGradient><linearGradient id="bn" gradientUnits="userSpaceOnUse" x1="-103.817" y1="-77.886" x2="-103.817" y2="-50.803"><stop offset="0" stop-color="#fff"/><stop offset="1" stop-color="#ccc"/></linearGradient><linearGradient id="bo" gradientUnits="userSpaceOnUse" x1="-103.817" y1="-77.886" x2="-103.817" y2="-50.803"><stop offset="0" stop-color="#fff"/><stop offset="1" stop-color="#ccc"/></linearGradient><linearGradient id="bp" gradientUnits="userSpaceOnUse" x1="-103.817" y1="-77.886" x2="-103.817" y2="-50.803"><stop offset="0" stop-color="#fff"/><stop offset="1" stop-color="#ccc"/></linearGradient><linearGradient id="bq" gradientUnits="userSpaceOnUse" x1="-103.817" y1="-77.886" x2="-103.817" y2="-50.803"><stop offset="0" stop-color="#fff"/><stop offset="1" stop-color="#ccc"/></linearGradient><linearGradient id="br" gradientUnits="userSpaceOnUse" x1="-103.817" y1="-77.886" x2="-103.817" y2="-50.803"><stop offset="0" stop-color="#fff"/><stop offset="1" stop-color="#ccc"/></linearGradient><linearGradient id="bs" gradientUnits="userSpaceOnUse" x1="-103.817" y1="-77.886" x2="-103.817" y2="-50.803"><stop offset="0" stop-color="#fff"/><stop offset="1" stop-color="#ccc"/></linearGradient><linearGradient id="bt" gradientUnits="userSpaceOnUse" x1="-103.817" y1="-77.886" x2="-103.817" y2="-50.803"><stop offset="0" stop-color="#fff"/><stop offset="1" stop-color="#ccc"/></linearGradient><linearGradient id="bu" gradientUnits="userSpaceOnUse" x1="-103.817" y1="-77.886" x2="-103.817" y2="-50.803"><stop offset="0" stop-color="#fff"/><stop offset="1" stop-color="#ccc"/></linearGradient><linearGradient id="bv" gradientUnits="userSpaceOnUse" x1="-103.817" y1="-77.886" x2="-103.817" y2="-50.803"><stop offset="0" stop-color="#fff"/><stop offset="1" stop-color="#ccc"/></linearGradient><linearGradient id="bw" gradientUnits="userSpaceOnUse" x1="-103.817" y1="-77.886" x2="-103.817" y2="-50.803"><stop offset="0" stop-color="#fff"/><stop offset="1" stop-color="#ccc"/></linearGradient><linearGradient id="bx" gradientUnits="userSpaceOnUse" x1="-103.817" y1="-77.886" x2="-103.817" y2="-50.803"><stop offset="0" stop-color="#fff"/><stop offset="1" stop-color="#ccc"/></linearGradient><linearGradient id="by" gradientUnits="userSpaceOnUse" x1="-103.817" y1="-77.886" x2="-103.817" y2="-50.803"><stop offset="0" stop-color="#fff"/><stop offset="1" stop-color="#ccc"/></linearGradient><linearGradient id="bz" gradientUnits="userSpaceOnUse" x1="-103.817" y1="-77.886" x2="-103.817" y2="-50.803"><stop offset="0" stop-color="#fff"/><stop offset="1" stop-color="#ccc"/></linearGradient><linearGradient id="bA" gradientUnits="userSpaceOnUse" x1="-103.817" y1="-77.886" x2="-103.817" y2="-50.803"><stop offset="0" stop-color="#fff"/><stop offset="1" stop-color="#ccc"/></linearGradient><linearGradient id="bB" gradientUnits="userSpaceOnUse" x1="-103.817" y1="-77.886" x2="-103.817" y2="-50.803"><stop offset="0" stop-color="#fff"/><stop offset="1" stop-color="#ccc"/></linearGradient><linearGradient id="bC" gradientUnits="userSpaceOnUse" x1="-103.817" y1="-77.886" x2="-103.817" y2="-50.803"><stop offset="0" stop-color="#fff"/><stop offset="1" stop-color="#ccc"/></linearGradient><linearGradient id="bD" gradientUnits="userSpaceOnUse" x1="29.791" y1="-355.939" x2="29.791" y2="-310.801"><stop offset="0" stop-color="#fff"/><stop offset="1" stop-color="#ccc"/></linearGradient><linearGradient id="bE" gradientUnits="userSpaceOnUse" x1="-103.817" y1="-77.886" x2="-103.817" y2="-50.803"><stop offset="0" stop-color="#fff"/><stop offset="1" stop-color="#ccc"/></linearGradient><linearGradient id="bF" gradientUnits="userSpaceOnUse" x1="418.44" y1="236.5" x2="418.44" y2="386.049"><stop offset="0" stop-color="#fff"/><stop offset="1" stop-color="#ccc"/></linearGradient><linearGradient id="bG" gradientUnits="userSpaceOnUse" x1="-51.457" y1="-130.246" x2="-51.457" y2="-86.914"><stop offset="0" stop-color="#fff"/><stop offset="1" stop-color="#ccc"/></linearGradient><linearGradient id="bH" gradientUnits="userSpaceOnUse" x1="-51.457" y1="-130.246" x2="-51.457" y2="-86.914"><stop offset="0" stop-color="#fff"/><stop offset="1" stop-color="#ccc"/></linearGradient><linearGradient id="bI" gradientUnits="userSpaceOnUse" x1="-51.457" y1="-130.246" x2="-51.457" y2="-86.914"><stop offset="0" stop-color="#fff"/><stop offset="1" stop-color="#ccc"/></linearGradient><linearGradient id="bJ" gradientUnits="userSpaceOnUse" x1="-51.457" y1="-130.246" x2="-51.457" y2="-86.914"><stop offset="0" stop-color="#fff"/><stop offset="1" stop-color="#ccc"/></linearGradient><linearGradient id="bK" gradientUnits="userSpaceOnUse" x1="-51.457" y1="-130.246" x2="-51.457" y2="-86.914"><stop offset="0" stop-color="#fff"/><stop offset="1" stop-color="#ccc"/></linearGradient><linearGradient id="bL" gradientUnits="userSpaceOnUse" x1="-51.457" y1="-130.246" x2="-51.457" y2="-86.914"><stop offset="0" stop-color="#fff"/><stop offset="1" stop-color="#ccc"/></linearGradient><linearGradient id="bM" gradientUnits="userSpaceOnUse" x1="-51.457" y1="-130.246" x2="-51.457" y2="-86.914"><stop offset="0" stop-color="#fff"/><stop offset="1" stop-color="#ccc"/></linearGradient><linearGradient id="bN" gradientUnits="userSpaceOnUse" x1="-51.457" y1="-130.246" x2="-51.457" y2="-86.914"><stop offset="0" stop-color="#fff"/><stop offset="1" stop-color="#ccc"/></linearGradient><linearGradient id="bO" gradientUnits="userSpaceOnUse" x1="-51.457" y1="-130.246" x2="-51.457" y2="-86.914"><stop offset="0" stop-color="#fff"/><stop offset="1" stop-color="#ccc"/></linearGradient><linearGradient id="bP" gradientUnits="userSpaceOnUse" x1="-51.457" y1="-130.246" x2="-51.457" y2="-86.914"><stop offset="0" stop-color="#fff"/><stop offset="1" stop-color="#ccc"/></linearGradient><linearGradient id="bQ" gradientUnits="userSpaceOnUse" x1="-51.457" y1="-130.246" x2="-51.457" y2="-86.914"><stop offset="0" stop-color="#fff"/><stop offset="1" stop-color="#ccc"/></linearGradient><linearGradient id="bR" gradientUnits="userSpaceOnUse" x1="-51.457" y1="-130.246" x2="-51.457" y2="-86.914"><stop offset="0" stop-color="#fff"/><stop offset="1" stop-color="#ccc"/></linearGradient><linearGradient id="bS" gradientUnits="userSpaceOnUse" x1="-51.457" y1="-130.246" x2="-51.457" y2="-86.914"><stop offset="0" stop-color="#fff"/><stop offset="1" stop-color="#ccc"/></linearGradient><linearGradient id="bT" gradientUnits="userSpaceOnUse" x1="-51.457" y1="-130.246" x2="-51.457" y2="-86.914"><stop offset="0" stop-color="#fff"/><stop offset="1" stop-color="#ccc"/></linearGradient><linearGradient id="bU" gradientUnits="userSpaceOnUse" x1="-103.817" y1="-77.886" x2="-103.817" y2="-50.803"><stop offset="0" stop-color="#fff"/><stop offset="1" stop-color="#ccc"/></linearGradient><linearGradient id="bV" gradientUnits="userSpaceOnUse" x1="-103.817" y1="-77.886" x2="-103.817" y2="-50.803"><stop offset="0" stop-color="#fff"/><stop offset="1" stop-color="#ccc"/></linearGradient><linearGradient id="bW" gradientUnits="userSpaceOnUse" x1="-103.817" y1="-77.886" x2="-103.817" y2="-50.803"><stop offset="0" stop-color="#fff"/><stop offset="1" stop-color="#ccc"/></linearGradient><linearGradient id="bX" gradientUnits="userSpaceOnUse" x1="-103.817" y1="-77.886" x2="-103.817" y2="-50.803"><stop offset="0" stop-color="#fff"/><stop offset="1" stop-color="#ccc"/></linearGradient><linearGradient id="bY" gradientUnits="userSpaceOnUse" x1="-103.817" y1="-77.886" x2="-103.817" y2="-50.803"><stop offset="0" stop-color="#fff"/><stop offset="1" stop-color="#ccc"/></linearGradient><linearGradient id="bZ" gradientUnits="userSpaceOnUse" x1="-103.817" y1="-77.886" x2="-103.817" y2="-50.803"><stop offset="0" stop-color="#fff"/><stop offset="1" stop-color="#ccc"/></linearGradient><linearGradient id="ca" gradientUnits="userSpaceOnUse" x1="-103.817" y1="-77.886" x2="-103.817" y2="-50.803"><stop offset="0" stop-color="#fff"/><stop offset="1" stop-color="#ccc"/></linearGradient><linearGradient id="cb" gradientUnits="userSpaceOnUse" x1="-103.817" y1="-77.886" x2="-103.817" y2="-50.803"><stop offset="0" stop-color="#fff"/><stop offset="1" stop-color="#ccc"/></linearGradient><linearGradient id="cc" gradientUnits="userSpaceOnUse" x1="-103.817" y1="-77.886" x2="-103.817" y2="-50.803"><stop offset="0" stop-color="#fff"/><stop offset="1" stop-color="#ccc"/></linearGradient><linearGradient id="cd" gradientUnits="userSpaceOnUse" x1="-103.817" y1="-77.886" x2="-103.817" y2="-50.803"><stop offset="0" stop-color="#fff"/><stop offset="1" stop-color="#ccc"/></linearGradient><linearGradient id="ce" gradientUnits="userSpaceOnUse" x1="-103.817" y1="-77.886" x2="-103.817" y2="-50.803"><stop offset="0" stop-color="#fff"/><stop offset="1" stop-color="#ccc"/></linearGradient><linearGradient id="cf" gradientUnits="userSpaceOnUse" x1="-103.817" y1="-77.886" x2="-103.817" y2="-50.803"><stop offset="0" stop-color="#fff"/><stop offset="1" stop-color="#ccc"/></linearGradient><linearGradient id="cg" gradientUnits="userSpaceOnUse" x1="-103.817" y1="-77.886" x2="-103.817" y2="-50.803"><stop offset="0" stop-color="#fff"/><stop offset="1" stop-color="#ccc"/></linearGradient><linearGradient id="ch" gradientUnits="userSpaceOnUse" x1="21.667" y1="-97.101" x2="21.667" y2="2.717"><stop offset="0" stop-color="#fff"/><stop offset="1" stop-color="#ccc"/></linearGradient><linearGradient id="ci" gradientUnits="userSpaceOnUse" x1="-103.817" y1="-77.886" x2="-103.817" y2="-50.803"><stop offset="0" stop-color="#fff"/><stop offset="1" stop-color="#ccc"/></linearGradient><linearGradient id="cj" gradientUnits="userSpaceOnUse" x1="-103.817" y1="-77.886" x2="-103.817" y2="-50.803"><stop offset="0" stop-color="#fff"/><stop offset="1" stop-color="#ccc"/></linearGradient><linearGradient id="ck" gradientUnits="userSpaceOnUse" x1="-103.817" y1="-77.886" x2="-103.817" y2="-50.803"><stop offset="0" stop-color="#fff"/><stop offset="1" stop-color="#ccc"/></linearGradient><linearGradient id="cl" gradientUnits="userSpaceOnUse" x1="-103.817" y1="-77.886" x2="-103.817" y2="-50.803"><stop offset="0" stop-color="#fff"/><stop offset="1" stop-color="#ccc"/></linearGradient><linearGradient id="cm" gradientUnits="userSpaceOnUse" x1="-103.817" y1="-77.886" x2="-103.817" y2="-50.803"><stop offset="0" stop-color="#fff"/><stop offset="1" stop-color="#ccc"/></linearGradient><linearGradient id="cn" gradientUnits="userSpaceOnUse" x1="-103.817" y1="-77.886" x2="-103.817" y2="-50.803"><stop offset="0" stop-color="#fff"/><stop offset="1" stop-color="#ccc"/></linearGradient><linearGradient id="co" gradientUnits="userSpaceOnUse" x1="-103.817" y1="-77.886" x2="-103.817" y2="-50.803"><stop offset="0" stop-color="#fff"/><stop offset="1" stop-color="#ccc"/></linearGradient><linearGradient id="cp" gradientUnits="userSpaceOnUse" x1="-103.817" y1="-77.886" x2="-103.817" y2="-50.803"><stop offset="0" stop-color="#fff"/><stop offset="1" stop-color="#ccc"/></linearGradient><linearGradient id="cq" gradientUnits="userSpaceOnUse" x1="-103.817" y1="-77.886" x2="-103.817" y2="-50.803"><stop offset="0" stop-color="#fff"/><stop offset="1" stop-color="#ccc"/></linearGradient><linearGradient id="cr" gradientUnits="userSpaceOnUse" x1="-103.817" y1="-77.886" x2="-103.817" y2="-50.803"><stop offset="0" stop-color="#fff"/><stop offset="1" stop-color="#ccc"/></linearGradient><linearGradient id="cs" gradientUnits="userSpaceOnUse" x1="-103.817" y1="-77.886" x2="-103.817" y2="-50.803"><stop offset="0" stop-color="#fff"/><stop offset="1" stop-color="#ccc"/></linearGradient><linearGradient id="ct" gradientUnits="userSpaceOnUse" x1="-103.817" y1="-77.886" x2="-103.817" y2="-50.803"><stop offset="0" stop-color="#fff"/><stop offset="1" stop-color="#ccc"/></linearGradient><linearGradient id="cu" gradientUnits="userSpaceOnUse" x1="-103.817" y1="-77.886" x2="-103.817" y2="-50.803"><stop offset="0" stop-color="#fff"/><stop offset="1" stop-color="#ccc"/></linearGradient><linearGradient id="cv" gradientUnits="userSpaceOnUse" x1="-103.817" y1="-77.886" x2="-103.817" y2="-50.803"><stop offset="0" stop-color="#fff"/><stop offset="1" stop-color="#ccc"/></linearGradient><linearGradient id="cw" gradientUnits="userSpaceOnUse" x1="-103.817" y1="-77.886" x2="-103.817" y2="-50.803"><stop offset="0" stop-color="#fff"/><stop offset="1" stop-color="#ccc"/></linearGradient><linearGradient id="cx" gradientUnits="userSpaceOnUse" x1="-103.817" y1="-77.886" x2="-103.817" y2="-50.803"><stop offset="0" stop-color="#fff"/><stop offset="1" stop-color="#ccc"/></linearGradient><linearGradient id="cy" gradientUnits="userSpaceOnUse" x1="-103.817" y1="-77.886" x2="-103.817" y2="-50.803"><stop offset="0" stop-color="#fff"/><stop offset="1" stop-color="#ccc"/></linearGradient><linearGradient id="cz" gradientUnits="userSpaceOnUse" x1="-103.817" y1="-77.886" x2="-103.817" y2="-50.803"><stop offset="0" stop-color="#fff"/><stop offset="1" stop-color="#ccc"/></linearGradient><linearGradient id="cA" gradientUnits="userSpaceOnUse" x1="-103.817" y1="-77.886" x2="-103.817" y2="-50.803"><stop offset="0" stop-color="#fff"/><stop offset="1" stop-color="#ccc"/></linearGradient><linearGradient id="cB" gradientUnits="userSpaceOnUse" x1="-103.817" y1="-77.886" x2="-103.817" y2="-50.803"><stop offset="0" stop-color="#fff"/><stop offset="1" stop-color="#ccc"/></linearGradient><linearGradient id="cC" gradientUnits="userSpaceOnUse" x1="-103.817" y1="-77.886" x2="-103.817" y2="-50.803"><stop offset="0" stop-color="#fff"/><stop offset="1" stop-color="#ccc"/></linearGradient><linearGradient id="cD" gradientUnits="userSpaceOnUse" x1="-103.817" y1="-77.886" x2="-103.817" y2="-50.803"><stop offset="0" stop-color="#fff"/><stop offset="1" stop-color="#ccc"/></linearGradient><linearGradient id="cE" gradientUnits="userSpaceOnUse" x1="-103.817" y1="-77.886" x2="-103.817" y2="-50.803"><stop offset="0" stop-color="#fff"/><stop offset="1" stop-color="#ccc"/></linearGradient><linearGradient id="cF" gradientUnits="userSpaceOnUse" x1="-103.817" y1="-77.886" x2="-103.817" y2="-50.803"><stop offset="0" stop-color="#fff"/><stop offset="1" stop-color="#ccc"/></linearGradient><linearGradient id="cG" gradientUnits="userSpaceOnUse" x1="-103.817" y1="-77.886" x2="-103.817" y2="-50.803"><stop offset="0" stop-color="#fff"/><stop offset="1" stop-color="#ccc"/></linearGradient><linearGradient id="cH" gradientUnits="userSpaceOnUse" x1="-103.817" y1="-77.886" x2="-103.817" y2="-50.803"><stop offset="0" stop-color="#fff"/><stop offset="1" stop-color="#ccc"/></linearGradient><linearGradient id="cI" gradientUnits="userSpaceOnUse" x1="-103.817" y1="-77.886" x2="-103.817" y2="-50.803"><stop offset="0" stop-color="#fff"/><stop offset="1" stop-color="#ccc"/></linearGradient><linearGradient id="cJ" gradientUnits="userSpaceOnUse" x1="-103.817" y1="-77.886" x2="-103.817" y2="-50.803"><stop offset="0" stop-color="#fff"/><stop offset="1" stop-color="#ccc"/></linearGradient><linearGradient id="cK" gradientUnits="userSpaceOnUse" x1="-103.817" y1="-77.886" x2="-103.817" y2="-50.803"><stop offset="0" stop-color="#fff"/><stop offset="1" stop-color="#ccc"/></linearGradient><linearGradient id="cL" gradientUnits="userSpaceOnUse" x1="-103.817" y1="-77.886" x2="-103.817" y2="-50.803"><stop offset="0" stop-color="#fff"/><stop offset="1" stop-color="#ccc"/></linearGradient><linearGradient id="cM" gradientUnits="userSpaceOnUse" x1="-103.817" y1="-77.886" x2="-103.817" y2="-50.803"><stop offset="0" stop-color="#fff"/><stop offset="1" stop-color="#ccc"/></linearGradient><linearGradient id="cN" gradientUnits="userSpaceOnUse" x1="-103.817" y1="-77.886" x2="-103.817" y2="-50.803"><stop offset="0" stop-color="#fff"/><stop offset="1" stop-color="#ccc"/></linearGradient><linearGradient id="cO" gradientUnits="userSpaceOnUse" x1="459.063" y1="740.21" x2="459.063" y2="760.95"><stop offset="0" stop-color="#fff"/><stop offset="1" stop-color="#ccc"/></linearGradient><linearGradient id="cP" gradientUnits="userSpaceOnUse" x1="472.571" y1="728.8" x2="472.571" y2="750.688"><stop offset="0" stop-color="#fff"/><stop offset="1" stop-color="#ccc"/></linearGradient><linearGradient id="cQ" gradientUnits="userSpaceOnUse" x1="440.629" y1="696.22" x2="440.629" y2="714.1"><stop offset="0" stop-color="#fff"/><stop offset="1" stop-color="#ccc"/></linearGradient><linearGradient id="cR" gradientUnits="userSpaceOnUse" x1="-103.817" y1="-77.886" x2="-103.817" y2="-50.803"><stop offset="0" stop-color="#fff"/><stop offset="1" stop-color="#ccc"/></linearGradient><linearGradient id="cS" gradientUnits="userSpaceOnUse" x1="-103.817" y1="-77.886" x2="-103.817" y2="-50.803"><stop offset="0" stop-color="#fff"/><stop offset="1" stop-color="#ccc"/></linearGradient><linearGradient id="cT" gradientUnits="userSpaceOnUse" x1="-103.817" y1="-77.886" x2="-103.817" y2="-50.803"><stop offset="0" stop-color="#fff"/><stop offset="1" stop-color="#ccc"/></linearGradient><linearGradient id="cU" gradientUnits="userSpaceOnUse" x1="-103.817" y1="-77.886" x2="-103.817" y2="-50.803"><stop offset="0" stop-color="#fff"/><stop offset="1" stop-color="#ccc"/></linearGradient><linearGradient id="cV" gradientUnits="userSpaceOnUse" x1="-103.817" y1="-77.886" x2="-103.817" y2="-50.803"><stop offset="0" stop-color="#fff"/><stop offset="1" stop-color="#ccc"/></linearGradient><linearGradient id="cW" gradientUnits="userSpaceOnUse" x1="-103.817" y1="-77.886" x2="-103.817" y2="-50.803"><stop offset="0" stop-color="#fff"/><stop offset="1" stop-color="#ccc"/></linearGradient><linearGradient id="cX" gradientUnits="userSpaceOnUse" x1="-103.817" y1="-77.886" x2="-103.817" y2="-50.803"><stop offset="0" stop-color="#fff"/><stop offset="1" stop-color="#ccc"/></linearGradient><linearGradient id="cY" gradientUnits="userSpaceOnUse" x1="-103.817" y1="-77.886" x2="-103.817" y2="-50.803"><stop offset="0" stop-color="#fff"/><stop offset="1" stop-color="#ccc"/></linearGradient><linearGradient id="cZ" gradientUnits="userSpaceOnUse" x1="-103.817" y1="-77.886" x2="-103.817" y2="-50.803"><stop offset="0" stop-color="#fff"/><stop offset="1" stop-color="#ccc"/></linearGradient><linearGradient id="da" gradientUnits="userSpaceOnUse" x1="-103.817" y1="-77.886" x2="-103.817" y2="-50.803"><stop offset="0" stop-color="#fff"/><stop offset="1" stop-color="#ccc"/></linearGradient><linearGradient id="db" gradientUnits="userSpaceOnUse" x1="-103.817" y1="-77.886" x2="-103.817" y2="-50.803"><stop offset="0" stop-color="#fff"/><stop offset="1" stop-color="#ccc"/></linearGradient><linearGradient id="dc" gradientUnits="userSpaceOnUse" x1="-103.817" y1="-77.886" x2="-103.817" y2="-50.803"><stop offset="0" stop-color="#fff"/><stop offset="1" stop-color="#ccc"/></linearGradient><linearGradient id="dd" gradientUnits="userSpaceOnUse" x1="-103.817" y1="-77.886" x2="-103.817" y2="-50.803"><stop offset="0" stop-color="#fff"/><stop offset="1" stop-color="#ccc"/></linearGradient><linearGradient id="de" gradientUnits="userSpaceOnUse" x1="349.497" y1="492.225" x2="349.497" y2="511.05"><stop offset="0" stop-color="#fff"/><stop offset="1" stop-color="#ccc"/></linearGradient><linearGradient id="df" gradientUnits="userSpaceOnUse" x1="336.812" y1="505.08" x2="336.812" y2="573.545"><stop offset="0" stop-color="#fff"/><stop offset="1" stop-color="#ccc"/></linearGradient><linearGradient id="dg" gradientUnits="userSpaceOnUse" x1="335.573" y1="443.3" x2="335.573" y2="486.817"><stop offset="0" stop-color="#fff"/><stop offset="1" stop-color="#ccc"/></linearGradient><linearGradient id="dh" gradientUnits="userSpaceOnUse" x1="369.8" y1="506.09" x2="369.8" y2="570.664"><stop offset="0" stop-color="#fff"/><stop offset="1" stop-color="#ccc"/></linearGradient><linearGradient id="di" gradientUnits="userSpaceOnUse" x1="357.457" y1="442.49" x2="357.457" y2="485.433"><stop offset="0" stop-color="#fff"/><stop offset="1" stop-color="#ccc"/></linearGradient><linearGradient id="dj" gradientUnits="userSpaceOnUse" x1="-51.457" y1="-130.246" x2="-51.457" y2="-86.914"><stop offset="0" stop-color="#fff"/><stop offset="1" stop-color="#ccc"/></linearGradient><linearGradient id="dk" gradientUnits="userSpaceOnUse" x1="347.161" y1="457.479" x2="347.161" y2="483"><stop offset="0" stop-color="#fff"/><stop offset="1" stop-color="#ccc"/></linearGradient><linearGradient id="dl" gradientUnits="userSpaceOnUse" x1="375.153" y1="569.202" x2="375.153" y2="582.955"><stop offset="0" stop-color="#fff"/><stop offset="1" stop-color="#ccc"/></linearGradient><linearGradient id="dm" gradientUnits="userSpaceOnUse" x1="336.037" y1="575.427" x2="336.037" y2="589.53"><stop offset="0" stop-color="#fff"/><stop offset="1" stop-color="#ccc"/></linearGradient><linearGradient id="dn" gradientUnits="userSpaceOnUse" x1="369.88" y1="581.703" x2="369.88" y2="593.417"><stop offset="0" stop-color="#fff"/><stop offset="1" stop-color="#ccc"/></linearGradient><linearGradient id="do" gradientUnits="userSpaceOnUse" x1="344.406" y1="583.84" x2="344.406" y2="598.229"><stop offset="0" stop-color="#fff"/><stop offset="1" stop-color="#ccc"/></linearGradient><linearGradient id="dp" gradientUnits="userSpaceOnUse" x1="362.963" y1="584.97" x2="362.963" y2="601.38"><stop offset="0" stop-color="#fff"/><stop offset="1" stop-color="#ccc"/></linearGradient><linearGradient id="dq" gradientUnits="userSpaceOnUse" x1="352.581" y1="586.37" x2="352.581" y2="602.463"><stop offset="0" stop-color="#fff"/><stop offset="1" stop-color="#ccc"/></linearGradient><linearGradient id="dr" gradientUnits="userSpaceOnUse" x1="-103.817" y1="-77.886" x2="-103.817" y2="-50.803"><stop offset="0" stop-color="#fff"/><stop offset="1" stop-color="#ccc"/></linearGradient><linearGradient id="ds" gradientUnits="userSpaceOnUse" x1="-103.817" y1="-77.886" x2="-103.817" y2="-50.803"><stop offset="0" stop-color="#fff"/><stop offset="1" stop-color="#ccc"/></linearGradient><linearGradient id="dt" gradientUnits="userSpaceOnUse" x1="-103.817" y1="-77.886" x2="-103.817" y2="-50.803"><stop offset="0" stop-color="#fff"/><stop offset="1" stop-color="#ccc"/></linearGradient></defs><path d="M95.692-47.192a74.026 49.651 0 1 1-148.05 0 74.026 49.651 0 1 1 148.05 0z" transform="matrix(.03143 -.00682 0 .0261 247.423 709.75)" fill="url(#a)"/><path d="M-29.791-108.58a21.666 21.666 0 1 1-43.332 0 21.666 21.666 0 1 1 43.332 0z" transform="matrix(.03436 -.00745 0 .0261 249.406 708.449)" fill="url(#b)"/><path d="M-3.611-97.746a13.541 13.541 0 1 1-27.083 0 13.541 13.541 0 1 1 27.083 0z" transform="matrix(.03436 -.00745 0 .0261 249.476 708.434)" fill="url(#c)"/><path d="M-64.998-88.719a14.444 14.444 0 1 1-28.888 0 14.444 14.444 0 1 1 28.888 0z" transform="matrix(.03436 -.00745 0 .0261 249.269 708.479)" fill="url(#d)"/><path d="M24.374-80.594a13.541 13.541 0 1 1-27.083 0 13.541 13.541 0 1 1 27.083 0z" transform="matrix(.03436 -.00745 0 .0261 249.406 708.449)" fill="url(#e)"/><path d="M37.916-59.831a9.93 9.93 0 1 1-19.861 0 9.93 9.93 0 1 1 19.861 0z" transform="matrix(.03436 -.00745 0 .0261 249.406 708.449)" fill="url(#f)"/><path d="M-90.275-64.344a13.541 13.541 0 1 1-27.083 0 13.541 13.541 0 1 1 27.083 0z" transform="matrix(.03436 -.00745 0 .0261 249.437 708.418)" fill="url(#g)"/><path d="M-90.275-64.344a13.541 13.541 0 1 1-27.083 0 13.541 13.541 0 1 1 27.083 0z" transform="matrix(.0275 -.00596 0 .02262 248.259 709.015)" fill="url(#h)"/><path d="M37.916-59.831a9.93 9.93 0 1 1-19.861 0 9.93 9.93 0 1 1 19.861 0z" transform="matrix(.03436 -.00745 0 .0261 249.872 708.842)" fill="url(#i)"/><path d="M-90.275-64.344a13.541 13.541 0 1 1-27.083 0 13.541 13.541 0 1 1 27.083 0z" transform="matrix(.0229 -.00497 0 .0189 247.597 709.536)" fill="url(#j)"/><path d="M37.916-59.831a9.93 9.93 0 1 1-19.861 0 9.93 9.93 0 1 1 19.861 0z" transform="matrix(.03124 -.00677 0 .02373 250.022 709.21)" fill="url(#k)"/><path d="M52.36-333.37a22.569 22.569 0 1 1-45.138 0 22.569 22.569 0 1 1 45.138 0z" transform="matrix(.03436 -.00745 0 .0261 249.406 708.449)" fill="url(#l)"/><path d="M-152.57-323.43a20.763 20.763 0 1 1-41.527 0 20.763 20.763 0 1 1 41.527 0z" transform="matrix(.03436 -.00745 0 .0261 249.269 708.321)" fill="url(#m)"/><path d="M-90.275-64.344a13.541 13.541 0 1 1-27.083 0 13.541 13.541 0 1 1 27.083 0z" transform="matrix(.0536 -.01162 0 .04071 247.282 707.076)" fill="url(#n)"/><path d="M-90.275-64.344a13.541 13.541 0 1 1-27.083 0 13.541 13.541 0 1 1 27.083 0z" transform="matrix(.0536 -.01162 0 .04071 246.457 708.246)" fill="url(#o)"/><path d="M-90.275-64.344a13.541 13.541 0 1 1-27.083 0 13.541 13.541 0 1 1 27.083 0z" transform="matrix(.0536 -.01162 0 .04071 245.425 709.305)" fill="url(#p)"/><path d="M-90.275-64.344a13.541 13.541 0 1 1-27.083 0 13.541 13.541 0 1 1 27.083 0z" transform="matrix(.0536 -.01162 0 .04071 244.258 710.342)" fill="url(#q)"/><path d="M-90.275-64.344a13.541 13.541 0 1 1-27.083 0 13.541 13.541 0 1 1 27.083 0z" transform="matrix(.0536 -.01162 0 .04071 242.951 711.252)" fill="url(#r)"/><path d="M-90.275-64.344a13.541 13.541 0 1 1-27.083 0 13.541 13.541 0 1 1 27.083 0z" transform="matrix(.0536 -.01162 0 .04071 241.44 711.684)" fill="url(#s)"/><path d="M-90.275-64.344a13.541 13.541 0 1 1-27.083 0 13.541 13.541 0 1 1 27.083 0z" transform="matrix(.0536 -.01162 0 .04071 239.927 711.803)" fill="url(#t)"/><path d="M-90.275-64.344a13.541 13.541 0 1 1-27.083 0 13.541 13.541 0 1 1 27.083 0z" transform="matrix(.0536 -.01162 0 .04071 238.552 711.58)" fill="url(#u)"/><path d="M-90.275-64.344a13.541 13.541 0 1 1-27.083 0 13.541 13.541 0 1 1 27.083 0z" transform="matrix(.0536 -.01162 0 .04071 237.178 711.302)" fill="url(#v)"/><path d="M-90.275-64.344a13.541 13.541 0 1 1-27.083 0 13.541 13.541 0 1 1 27.083 0z" transform="matrix(.0536 -.01162 0 .04071 236.148 710.639)" fill="url(#w)"/><path d="M-90.275-64.344a13.541 13.541 0 1 1-27.083 0 13.541 13.541 0 1 1 27.083 0z" transform="matrix(.0536 -.01162 0 .04071 235.186 709.908)" fill="url(#x)"/><path d="M-90.275-64.344a13.541 13.541 0 1 1-27.083 0 13.541 13.541 0 1 1 27.083 0z" transform="matrix(.0536 -.01162 0 .04071 234.291 709.11)" fill="url(#y)"/><path d="M-90.275-64.344a13.541 13.541 0 1 1-27.083 0 13.541 13.541 0 1 1 27.083 0z" transform="matrix(.0536 -.01162 0 .04071 233.467 708.244)" fill="url(#z)"/><path d="M-90.275-64.344a13.541 13.541 0 1 1-27.083 0 13.541 13.541 0 1 1 27.083 0z" transform="matrix(.0536 -.01162 0 .04071 232.849 707.282)" fill="url(#A)"/><path d="M-90.275-64.344a13.541 13.541 0 1 1-27.083 0 13.541 13.541 0 1 1 27.083 0z" transform="matrix(.0536 -.01162 0 .04071 232.437 706.274)" fill="url(#B)"/><path d="M-90.275-64.344a13.541 13.541 0 1 1-27.083 0 13.541 13.541 0 1 1 27.083 0z" transform="matrix(.0536 -.01162 0 .04071 232.162 705.185)" fill="url(#C)"/><path d="M-90.275-64.344a13.541 13.541 0 1 1-27.083 0 13.541 13.541 0 1 1 27.083 0z" transform="matrix(.0536 -.01162 0 .04071 232.024 704.015)" fill="url(#D)"/><path d="M-90.275-64.344a13.541 13.541 0 1 1-27.083 0 13.541 13.541 0 1 1 27.083 0z" transform="matrix(.0536 -.01162 0 .04071 232.024 702.814)" fill="url(#E)"/><path d="M-90.275-64.344a13.541 13.541 0 1 1-27.083 0 13.541 13.541 0 1 1 27.083 0z" transform="matrix(.0536 -.01162 0 .04071 232.024 701.613)" fill="url(#F)"/><path d="M-90.275-64.344a13.541 13.541 0 1 1-27.083 0 13.541 13.541 0 1 1 27.083 0z" transform="matrix(.0536 -.01162 0 .04071 232.092 700.397)" fill="url(#G)"/><path d="M-90.275-64.344a13.541 13.541 0 1 1-27.083 0 13.541 13.541 0 1 1 27.083 0z" transform="matrix(.0536 -.01162 0 .04071 232.162 699.338)" fill="url(#H)"/><path d="M-90.275-64.344a13.541 13.541 0 1 1-27.083 0 13.541 13.541 0 1 1 27.083 0z" transform="matrix(.0536 -.01162 0 .04071 232.3 698.368)" fill="url(#I)"/><path d="M-90.275-64.344a13.541 13.541 0 1 1-27.083 0 13.541 13.541 0 1 1 27.083 0z" transform="matrix(.0536 -.01162 0 .04071 247.762 697.312)" fill="url(#J)"/><path d="M-90.275-64.344a13.541 13.541 0 1 1-27.083 0 13.541 13.541 0 1 1 27.083 0z" transform="matrix(.0536 -.01162 0 .04071 247.075 698.506)" fill="url(#K)"/><path d="M-90.275-64.344a13.541 13.541 0 1 1-27.083 0 13.541 13.541 0 1 1 27.083 0z" transform="matrix(.0536 -.01162 0 .04071 246.457 699.737)" fill="url(#L)"/><path d="M-90.275-64.344a13.541 13.541 0 1 1-27.083 0 13.541 13.541 0 1 1 27.083 0z" transform="matrix(.0536 -.01162 0 .04071 245.7 700.892)" fill="url(#M)"/><path d="M-90.275-64.344a13.541 13.541 0 1 1-27.083 0 13.541 13.541 0 1 1 27.083 0z" transform="matrix(.0536 -.01162 0 .04071 244.6 702.019)" fill="url(#N)"/><path d="M-90.275-64.344a13.541 13.541 0 1 1-27.083 0 13.541 13.541 0 1 1 27.083 0z" transform="matrix(.0536 -.01162 0 .04071 243.433 703.107)" fill="url(#O)"/><path d="M-90.275-64.344a13.541 13.541 0 1 1-27.083 0 13.541 13.541 0 1 1 27.083 0z" transform="matrix(.0536 -.01162 0 .04071 241.921 703.696)" fill="url(#P)"/><path d="M-90.275-64.344a13.541 13.541 0 1 1-27.083 0 13.541 13.541 0 1 1 27.083 0z" transform="matrix(.0536 -.01162 0 .04071 240.41 703.815)" fill="url(#Q)"/><path d="M-90.275-64.344a13.541 13.541 0 1 1-27.083 0 13.541 13.541 0 1 1 27.083 0z" transform="matrix(.0536 -.01162 0 .04071 239.034 703.435)" fill="url(#R)"/><path d="M-90.275-64.344a13.541 13.541 0 1 1-27.083 0 13.541 13.541 0 1 1 27.083 0z" transform="matrix(.0536 -.01162 0 .04071 237.935 702.785)" fill="url(#S)"/><path d="M-90.275-64.344a13.541 13.541 0 1 1-27.083 0 13.541 13.541 0 1 1 27.083 0z" transform="matrix(.0536 -.01162 0 .04071 237.04 701.935)" fill="url(#T)"/><path d="M-90.275-64.344a13.541 13.541 0 1 1-27.083 0 13.541 13.541 0 1 1 27.083 0z" transform="matrix(.0536 -.01162 0 .04071 236.423 701.024)" fill="url(#U)"/><path d="M-90.275-64.344a13.541 13.541 0 1 1-27.083 0 13.541 13.541 0 1 1 27.083 0z" transform="matrix(.0536 -.01162 0 .04071 236.01 699.965)" fill="url(#V)"/><path d="M-90.275-64.344a13.541 13.541 0 1 1-27.083 0 13.541 13.541 0 1 1 27.083 0z" transform="matrix(.0536 -.01162 0 .04071 235.598 698.802)" fill="url(#W)"/><path d="M-90.275-64.344a13.541 13.541 0 1 1-27.083 0 13.541 13.541 0 1 1 27.083 0z" transform="matrix(.0536 -.01162 0 .04071 235.254 697.78)" fill="url(#X)"/><path d="M-90.275-64.344a13.541 13.541 0 1 1-27.083 0 13.541 13.541 0 1 1 27.083 0z" transform="matrix(.0536 -.01162 0 .04071 235.048 696.677)" fill="url(#Y)"/><path d="M-90.275-64.344a13.541 13.541 0 1 1-27.083 0 13.541 13.541 0 1 1 27.083 0z" transform="matrix(.0536 -.01162 0 .04071 234.979 695.699)" fill="url(#Z)"/><path d="M-90.275-64.344a13.541 13.541 0 1 1-27.083 0 13.541 13.541 0 1 1 27.083 0z" transform="matrix(.0536 -.01162 0 .04071 234.91 694.827)" fill="url(#aa)"/><path d="M-90.275-64.344a13.541 13.541 0 1 1-27.083 0 13.541 13.541 0 1 1 27.083 0z" transform="matrix(.0536 -.01162 0 .04071 240.057 720.293)" fill="url(#ab)"/><path d="M-90.275-64.344a13.541 13.541 0 1 1-27.083 0 13.541 13.541 0 1 1 27.083 0z" transform="matrix(.0536 -.01162 0 .04071 240.675 720.577)" fill="url(#ac)"/><path d="M-90.275-64.344a13.541 13.541 0 1 1-27.083 0 13.541 13.541 0 1 1 27.083 0z" transform="matrix(.0536 -.01162 0 .04071 241.5 720.816)" fill="url(#ad)"/><path d="M-90.275-64.344a13.541 13.541 0 1 1-27.083 0 13.541 13.541 0 1 1 27.083 0z" transform="matrix(.0536 -.01162 0 .04071 242.394 720.988)" fill="url(#ae)"/><path d="M-90.275-64.344a13.541 13.541 0 1 1-27.083 0 13.541 13.541 0 1 1 27.083 0z" transform="matrix(.0536 -.01162 0 .04071 243.699 721.122)" fill="url(#af)"/><path d="M-90.275-64.344a13.541 13.541 0 1 1-27.083 0 13.541 13.541 0 1 1 27.083 0z" transform="matrix(.0536 -.01162 0 .04071 245.073 721.242)" fill="url(#ag)"/><path d="M-90.275-64.344a13.541 13.541 0 1 1-27.083 0 13.541 13.541 0 1 1 27.083 0z" transform="matrix(.0536 -.01162 0 .04071 246.448 721.362)" fill="url(#ah)"/><path d="M-90.275-64.344a13.541 13.541 0 1 1-27.083 0 13.541 13.541 0 1 1 27.083 0z" transform="matrix(.0536 -.01162 0 .04071 247.755 721.496)" fill="url(#ai)"/><path d="M-90.275-64.344a13.541 13.541 0 1 1-27.083 0 13.541 13.541 0 1 1 27.083 0z" transform="matrix(.0536 -.01162 0 .04071 249.06 721.63)" fill="url(#aj)"/><path d="M-90.275-64.344a13.541 13.541 0 1 1-27.083 0 13.541 13.541 0 1 1 27.083 0z" transform="matrix(.0536 -.01162 0 .04071 250.366 721.87)" fill="url(#ak)"/><path d="M-90.275-64.344a13.541 13.541 0 1 1-27.083 0 13.541 13.541 0 1 1 27.083 0z" transform="matrix(.0536 -.01162 0 .04071 251.671 722.109)" fill="url(#al)"/><path d="M-90.275-64.344a13.541 13.541 0 1 1-27.083 0 13.541 13.541 0 1 1 27.083 0z" transform="matrix(.0536 -.01162 0 .04071 253.115 722.422)" fill="url(#am)"/><path d="M-90.275-64.344a13.541 13.541 0 1 1-27.083 0 13.541 13.541 0 1 1 27.083 0z" transform="matrix(.0536 -.01162 0 .04071 238.683 723.463)" fill="url(#an)"/><path d="M-90.275-64.344a13.541 13.541 0 1 1-27.083 0 13.541 13.541 0 1 1 27.083 0z" transform="matrix(.0536 -.01162 0 .04071 239.713 723.24)" fill="url(#ao)"/><path d="M-90.275-64.344a13.541 13.541 0 1 1-27.083 0 13.541 13.541 0 1 1 27.083 0z" transform="matrix(.0536 -.01162 0 .04071 240.744 723.068)" fill="url(#ap)"/><path d="M-90.275-64.344a13.541 13.541 0 1 1-27.083 0 13.541 13.541 0 1 1 27.083 0z" transform="matrix(.0536 -.01162 0 .04071 241.982 722.904)" fill="url(#aq)"/><path d="M-90.275-64.344a13.541 13.541 0 1 1-27.083 0 13.541 13.541 0 1 1 27.083 0z" transform="matrix(.0536 -.01162 0 .04071 243.286 722.778)" fill="url(#ar)"/><path d="M-90.275-64.344a13.541 13.541 0 1 1-27.083 0 13.541 13.541 0 1 1 27.083 0z" transform="matrix(.0536 -.01162 0 .04071 244.593 722.704)" fill="url(#as)"/><path d="M-90.275-64.344a13.541 13.541 0 1 1-27.083 0 13.541 13.541 0 1 1 27.083 0z" transform="matrix(.0536 -.01162 0 .04071 244.593 722.704)" fill="url(#at)"/><path d="M-90.275-64.344a13.541 13.541 0 1 1-27.083 0 13.541 13.541 0 1 1 27.083 0z" transform="matrix(.0536 -.01162 0 .04071 246.036 722.756)" fill="url(#au)"/><path d="M-90.275-64.344a13.541 13.541 0 1 1-27.083 0 13.541 13.541 0 1 1 27.083 0z" transform="matrix(.0536 -.01162 0 .04071 247.48 722.913)" fill="url(#av)"/><path d="M-90.275-64.344a13.541 13.541 0 1 1-27.083 0 13.541 13.541 0 1 1 27.083 0z" transform="matrix(.0536 -.01162 0 .04071 248.785 723.204)" fill="url(#aw)"/><path d="M-90.275-64.344a13.541 13.541 0 1 1-27.083 0 13.541 13.541 0 1 1 27.083 0z" transform="matrix(.0536 -.01162 0 .04071 234.841 693.276)" fill="url(#ax)"/><path d="M-90.275-64.344a13.541 13.541 0 1 1-27.083 0 13.541 13.541 0 1 1 27.083 0z" transform="matrix(.0536 -.01162 0 .04071 255.804 694.368)" fill="url(#ay)"/><path d="M-90.275-64.344a13.541 13.541 0 1 1-27.083 0 13.541 13.541 0 1 1 27.083 0z" transform="matrix(.0536 -.01162 0 .04071 257.109 693.563)" fill="url(#az)"/><path d="M-90.275-64.344a13.541 13.541 0 1 1-27.083 0 13.541 13.541 0 1 1 27.083 0z" transform="matrix(.0536 -.01162 0 .04071 258.484 692.69)" fill="url(#aA)"/><path d="M-90.275-64.344a13.541 13.541 0 1 1-27.083 0 13.541 13.541 0 1 1 27.083 0z" transform="matrix(.0536 -.01162 0 .04071 259.858 691.87)" fill="url(#aB)"/><path d="M-90.275-64.344a13.541 13.541 0 1 1-27.083 0 13.541 13.541 0 1 1 27.083 0z" transform="matrix(.0536 -.01162 0 .04071 261.165 690.96)" fill="url(#aC)"/><path d="M-90.275-64.344a13.541 13.541 0 1 1-27.083 0 13.541 13.541 0 1 1 27.083 0z" transform="matrix(.0536 -.01162 0 .04071 262.332 689.976)" fill="url(#aD)"/><path d="M-90.275-64.344a13.541 13.541 0 1 1-27.083 0 13.541 13.541 0 1 1 27.083 0z" transform="matrix(.0536 -.01162 0 .04071 263.432 689.007)" fill="url(#aE)"/><path d="M-90.275-64.344a13.541 13.541 0 1 1-27.083 0 13.541 13.541 0 1 1 27.083 0z" transform="matrix(.0536 -.01162 0 .04071 264.532 687.986)" fill="url(#aF)"/><path d="M-90.275-64.344a13.541 13.541 0 1 1-27.083 0 13.541 13.541 0 1 1 27.083 0z" transform="matrix(.0536 -.01162 0 .04071 265.426 686.852)" fill="url(#aG)"/><path d="M-90.275-64.344a13.541 13.541 0 1 1-27.083 0 13.541 13.541 0 1 1 27.083 0z" transform="matrix(.0536 -.01162 0 .04071 266.181 685.696)" fill="url(#aH)"/><path d="M-90.275-64.344a13.541 13.541 0 1 1-27.083 0 13.541 13.541 0 1 1 27.083 0z" transform="matrix(.0536 -.01162 0 .04071 266.938 684.54)" fill="url(#aI)"/><path d="M-90.275-64.344a13.541 13.541 0 1 1-27.083 0 13.541 13.541 0 1 1 27.083 0z" transform="matrix(.0536 -.01162 0 .04071 267.693 683.541)" fill="url(#aJ)"/><path d="M-90.275-64.344a13.541 13.541 0 1 1-27.083 0 13.541 13.541 0 1 1 27.083 0z" transform="matrix(.0536 -.01162 0 .04071 267.9 682.608)" fill="url(#aK)"/><path d="M-90.275-64.344a13.541 13.541 0 1 1-27.083 0 13.541 13.541 0 1 1 27.083 0z" transform="matrix(.0536 -.01162 0 .04071 267.693 681.922)" fill="url(#aL)"/><path d="M-90.275-64.344a13.541 13.541 0 1 1-27.083 0 13.541 13.541 0 1 1 27.083 0z" transform="matrix(.0536 -.01162 0 .04071 267.075 681.587)" fill="url(#aM)"/><path d="M-90.275-64.344a13.541 13.541 0 1 1-27.083 0 13.541 13.541 0 1 1 27.083 0z" transform="matrix(.0536 -.01162 0 .04071 266.388 681.422)" fill="url(#aN)"/><path d="M-90.275-64.344a13.541 13.541 0 1 1-27.083 0 13.541 13.541 0 1 1 27.083 0z" transform="matrix(.0536 -.01162 0 .04071 263.64 681.6)" fill="url(#aO)"/><path d="M-90.275-64.344a13.541 13.541 0 1 1-27.083 0 13.541 13.541 0 1 1 27.083 0z" transform="matrix(.0536 -.01162 0 .04071 263.777 682.302)" fill="url(#aP)"/><path d="M-90.275-64.344a13.541 13.541 0 1 1-27.083 0 13.541 13.541 0 1 1 27.083 0z" transform="matrix(.0536 -.01162 0 .04071 263.57 683.13)" fill="url(#aQ)"/><path d="M-90.275-64.344a13.541 13.541 0 1 1-27.083 0 13.541 13.541 0 1 1 27.083 0z" transform="matrix(.0536 -.01162 0 .04071 262.882 683.958)" fill="url(#aR)"/><path d="M-90.275-64.344a13.541 13.541 0 1 1-27.083 0 13.541 13.541 0 1 1 27.083 0z" transform="matrix(.0536 -.01162 0 .04071 261.92 684.793)" fill="url(#aS)"/><path d="M-90.275-64.344a13.541 13.541 0 1 1-27.083 0 13.541 13.541 0 1 1 27.083 0z" transform="matrix(.0536 -.01162 0 .04071 260.753 685.36)" fill="url(#aT)"/><path d="M-90.275-64.344a13.541 13.541 0 1 1-27.083 0 13.541 13.541 0 1 1 27.083 0z" transform="matrix(.0536 -.01162 0 .04071 259.308 685.881)" fill="url(#aU)"/><path d="M-90.275-64.344a13.541 13.541 0 1 1-27.083 0 13.541 13.541 0 1 1 27.083 0z" transform="matrix(.0536 -.01162 0 .04071 257.728 686.171)" fill="url(#aV)"/><path d="M-90.275-64.344a13.541 13.541 0 1 1-27.083 0 13.541 13.541 0 1 1 27.083 0z" transform="matrix(.0536 -.01162 0 .04071 256.01 686.388)" fill="url(#aW)"/><path d="M-90.275-64.344a13.541 13.541 0 1 1-27.083 0 13.541 13.541 0 1 1 27.083 0z" transform="matrix(.0536 -.01162 0 .04071 254.36 686.328)" fill="url(#aX)"/><path d="M-90.275-64.344a13.541 13.541 0 1 1-27.083 0 13.541 13.541 0 1 1 27.083 0z" transform="matrix(.0536 -.01162 0 .04071 252.848 686.08)" fill="url(#aY)"/><path d="M-90.275-64.344a13.541 13.541 0 1 1-27.083 0 13.541 13.541 0 1 1 27.083 0z" transform="matrix(.0536 -.01162 0 .04071 268.725 681.647)" fill="url(#aZ)"/><path d="M-90.275-64.344a13.541 13.541 0 1 1-27.083 0 13.541 13.541 0 1 1 27.083 0z" transform="matrix(.0536 -.01162 0 .04071 270.03 682.408)" fill="url(#ba)"/><path d="M-90.275-64.344a13.541 13.541 0 1 1-27.083 0 13.541 13.541 0 1 1 27.083 0z" transform="matrix(.0536 -.01162 0 .04071 270.167 683.16)" fill="url(#bb)"/><path d="M-90.275-64.344a13.541 13.541 0 1 1-27.083 0 13.541 13.541 0 1 1 27.083 0z" transform="matrix(.0536 -.01162 0 .04071 270.237 684.138)" fill="url(#bc)"/><path d="M-90.275-64.344a13.541 13.541 0 1 1-27.083 0 13.541 13.541 0 1 1 27.083 0z" transform="matrix(.0536 -.01162 0 .04071 270.167 685.302)" fill="url(#bd)"/><path d="M-90.275-64.344a13.541 13.541 0 1 1-27.083 0 13.541 13.541 0 1 1 27.083 0z" transform="matrix(.0536 -.01162 0 .04071 269.825 686.525)" fill="url(#be)"/><path d="M-90.275-64.344a13.541 13.541 0 1 1-27.083 0 13.541 13.541 0 1 1 27.083 0z" transform="matrix(.0536 -.01162 0 .04071 269.412 687.763)" fill="url(#bf)"/><path d="M-90.275-64.344a13.541 13.541 0 1 1-27.083 0 13.541 13.541 0 1 1 27.083 0z" transform="matrix(.0536 -.01162 0 .04071 268.862 688.926)" fill="url(#bg)"/><path d="M-90.275-64.344a13.541 13.541 0 1 1-27.083 0 13.541 13.541 0 1 1 27.083 0z" transform="matrix(.0536 -.01162 0 .04071 268.313 690.09)" fill="url(#bh)"/><path d="M-90.275-64.344a13.541 13.541 0 1 1-27.083 0 13.541 13.541 0 1 1 27.083 0z" transform="matrix(.0536 -.01162 0 .04071 267.556 691.298)" fill="url(#bi)"/><path d="M-90.275-64.344a13.541 13.541 0 1 1-27.083 0 13.541 13.541 0 1 1 27.083 0z" transform="matrix(.0536 -.01162 0 .04071 266.73 692.52)" fill="url(#bj)"/><path d="M-90.275-64.344a13.541 13.541 0 1 1-27.083 0 13.541 13.541 0 1 1 27.083 0z" transform="matrix(.0536 -.01162 0 .04071 265.769 693.72)" fill="url(#bk)"/><path d="M-90.275-64.344a13.541 13.541 0 1 1-27.083 0 13.541 13.541 0 1 1 27.083 0z" transform="matrix(.0536 -.01162 0 .04071 264.876 694.854)" fill="url(#bl)"/><path d="M95.692-47.192a74.026 49.651 0 1 1-148.05 0 74.026 49.651 0 1 1 148.05 0z" transform="matrix(.02276 -.00494 0 .0189 246.144 698.837)" fill="url(#bm)"/><path d="M-90.275-64.344a13.541 13.541 0 1 1-27.083 0 13.541 13.541 0 1 1 27.083 0z" transform="matrix(.0536 -.01162 0 .04071 254.695 722.862)" fill="url(#bn)"/><path d="M-90.275-64.344a13.541 13.541 0 1 1-27.083 0 13.541 13.541 0 1 1 27.083 0z" transform="matrix(.0536 -.01162 0 .04071 256.07 723.139)" fill="url(#bo)"/><path d="M-90.275-64.344a13.541 13.541 0 1 1-27.083 0 13.541 13.541 0 1 1 27.083 0z" transform="matrix(.0536 -.01162 0 .04071 257.652 723.527)" fill="url(#bp)"/><path d="M-90.275-64.344a13.541 13.541 0 1 1-27.083 0 13.541 13.541 0 1 1 27.083 0z" transform="matrix(.0536 -.01162 0 .04071 250.229 723.57)" fill="url(#bq)"/><path d="M-90.275-64.344a13.541 13.541 0 1 1-27.083 0 13.541 13.541 0 1 1 27.083 0z" transform="matrix(.0536 -.01162 0 .04071 251.534 723.965)" fill="url(#br)"/><path d="M-90.275-64.344a13.541 13.541 0 1 1-27.083 0 13.541 13.541 0 1 1 27.083 0z" transform="matrix(.0536 -.01162 0 .04071 252.77 724.428)" fill="url(#bs)"/><path d="M-90.275-64.344a13.541 13.541 0 1 1-27.083 0 13.541 13.541 0 1 1 27.083 0z" transform="matrix(.0536 -.01162 0 .04071 254.145 724.86)" fill="url(#bt)"/><path d="M-90.275-64.344a13.541 13.541 0 1 1-27.083 0 13.541 13.541 0 1 1 27.083 0z" transform="matrix(.0536 -.01162 0 .04071 255.52 725.346)" fill="url(#bu)"/><path d="M-90.275-64.344a13.541 13.541 0 1 1-27.083 0 13.541 13.541 0 1 1 27.083 0z" transform="matrix(.0536 -.01162 0 .04071 256.827 725.74)" fill="url(#bv)"/><path d="M-90.275-64.344a13.541 13.541 0 1 1-27.083 0 13.541 13.541 0 1 1 27.083 0z" transform="matrix(.0536 -.01162 0 .04071 258.132 726.189)" fill="url(#bw)"/><path d="M-90.275-64.344a13.541 13.541 0 1 1-27.083 0 13.541 13.541 0 1 1 27.083 0z" transform="matrix(.0536 -.01162 0 .04071 259.438 726.585)" fill="url(#bx)"/><path d="M-90.275-64.344a13.541 13.541 0 1 1-27.083 0 13.541 13.541 0 1 1 27.083 0z" transform="matrix(.0536 -.01162 0 .04071 260.743 727.033)" fill="url(#by)"/><path d="M-90.275-64.344a13.541 13.541 0 1 1-27.083 0 13.541 13.541 0 1 1 27.083 0z" transform="matrix(.0536 -.01162 0 .04071 261.98 727.495)" fill="url(#bz)"/><path d="M-90.275-64.344a13.541 13.541 0 1 1-27.083 0 13.541 13.541 0 1 1 27.083 0z" transform="matrix(.0536 -.01162 0 .04071 263.218 728.01)" fill="url(#bA)"/><path d="M-90.275-64.344a13.541 13.541 0 1 1-27.083 0 13.541 13.541 0 1 1 27.083 0z" transform="matrix(.0536 -.01162 0 .04071 264.524 728.51)" fill="url(#bB)"/><path d="M-90.275-64.344a13.541 13.541 0 1 1-27.083 0 13.541 13.541 0 1 1 27.083 0z" transform="matrix(.0536 -.01162 0 .04071 265.83 728.958)" fill="url(#bC)"/><path d="M52.36-333.37a22.569 22.569 0 1 1-45.138 0 22.569 22.569 0 1 1 45.138 0z" transform="matrix(.03436 -.00745 0 .0261 249.68 710.007)" fill="url(#bD)"/><path d="M-90.275-64.344a13.541 13.541 0 1 1-27.083 0 13.541 13.541 0 1 1 27.083 0z" transform="matrix(.0536 -.01162 0 .04071 249.137 704.428)" fill="url(#bE)"/><path d="M397.18 236.5l-10.937 25.137-.247 18.457 4.224 21.955 15.655 21.316-17.147-14.32-6.709 1.91 1.991 15.592 7.702 6.68 12.177 3.182 7.954 7.64-14.662-1.91-16.155 15.592 11.926 2.725 14.662-3.364 19.385 8.912 8.2 9.545 3.73 10.5 11.679-12.094s5.713-6.681 5.216-15.908c-.497-9.227-3.226-20.366-7.203-28.002-3.976-7.636-18.638-32.455-18.638-32.455l-6.462-17.818s-2.485-4.135 0-4.453c2.485-.318 7.455 8.273 7.455 8.273l.974-.427c1.163 2.153 2.791 5.576 3.95 9.656 1.988 7 3.322 14.314 3.322 14.314s2.693-7.592 2.146-15.27c-.289-4.069-1.209-8.744-1.935-11.971l1.729-.756 3.231-14.637s-.994-3.501-2.485-6.047c-1.491-2.545-22.116-17.818-22.116-17.818l-13.171 20.045-.745 16.547 6.214 19.728 11.679 30.861s2.238 4.776 1.244 5.731c-.994.954-5.967-5.092-5.967-5.092h-3.725l-8.452-24.82-12.425-24.82 2.737-42.316z" transform="matrix(.18327 -.03974 0 .13922 183.015 645.537)" fill="url(#bF)"/><path d="M-29.791-108.58a21.666 21.666 0 1 1-43.332 0 21.666 21.666 0 1 1 43.332 0z" transform="matrix(.04474 -.0097 0 .03399 251.06 695.305)" fill="url(#bG)"/><path d="M-29.791-108.58a21.666 21.666 0 1 1-43.332 0 21.666 21.666 0 1 1 43.332 0z" transform="matrix(.04474 -.0097 0 .03399 250.51 693.283)" fill="url(#bH)"/><path d="M-29.791-108.58a21.666 21.666 0 1 1-43.332 0 21.666 21.666 0 1 1 43.332 0z" transform="matrix(.04474 -.0097 0 .03399 249.822 691.084)" fill="url(#bI)"/><path d="M-29.791-108.58a21.666 21.666 0 1 1-43.332 0 21.666 21.666 0 1 1 43.332 0z" transform="matrix(.04474 -.0097 0 .03399 249.135 689.3)" fill="url(#bJ)"/><path d="M-29.791-108.58a21.666 21.666 0 1 1-43.332 0 21.666 21.666 0 1 1 43.332 0z" transform="matrix(.04474 -.0097 0 .03399 245.149 696.952)" fill="url(#bK)"/><path d="M-29.791-108.58a21.666 21.666 0 1 1-43.332 0 21.666 21.666 0 1 1 43.332 0z" transform="matrix(.04474 -.0097 0 .03399 244.461 695.221)" fill="url(#bL)"/><path d="M-29.791-108.58a21.666 21.666 0 1 1-43.332 0 21.666 21.666 0 1 1 43.332 0z" transform="matrix(.04474 -.0097 0 .03399 247.623 719.805)" fill="url(#bM)"/><path d="M-29.791-108.58a21.666 21.666 0 1 1-43.332 0 21.666 21.666 0 1 1 43.332 0z" transform="matrix(.04474 -.0097 0 .03399 247.623 721.58)" fill="url(#bN)"/><path d="M-29.791-108.58a21.666 21.666 0 1 1-43.332 0 21.666 21.666 0 1 1 43.332 0z" transform="matrix(.04474 -.0097 0 .03399 251.06 722.141)" fill="url(#bO)"/><path d="M-29.791-108.58a21.666 21.666 0 1 1-43.332 0 21.666 21.666 0 1 1 43.332 0z" transform="matrix(.04474 -.0097 0 .03399 251.06 720.366)" fill="url(#bP)"/><path d="M-29.791-108.58a21.666 21.666 0 1 1-43.332 0 21.666 21.666 0 1 1 43.332 0z" transform="matrix(.04474 -.0097 0 .03399 251.06 718.642)" fill="url(#bQ)"/><path d="M-29.791-108.58a21.666 21.666 0 1 1-43.332 0 21.666 21.666 0 1 1 43.332 0z" transform="matrix(.04474 -.0097 0 .03399 254.838 717.823)" fill="url(#bR)"/><path d="M-29.791-108.58a21.666 21.666 0 1 1-43.332 0 21.666 21.666 0 1 1 43.332 0z" transform="matrix(.04474 -.0097 0 .03399 254.838 719.702)" fill="url(#bS)"/><path d="M-29.791-108.58a21.666 21.666 0 1 1-43.332 0 21.666 21.666 0 1 1 43.332 0z" transform="matrix(.04474 -.0097 0 .03399 254.77 721.65)" fill="url(#bT)"/><path d="M-90.275-64.344a13.541 13.541 0 1 1-27.083 0 13.541 13.541 0 1 1 27.083 0z" transform="matrix(.0536 -.01162 0 .04071 263.914 696.003)" fill="url(#bU)"/><path d="M-90.275-64.344a13.541 13.541 0 1 1-27.083 0 13.541 13.541 0 1 1 27.083 0z" transform="matrix(.0536 -.01162 0 .04071 262.952 697.255)" fill="url(#bV)"/><path d="M-90.275-64.344a13.541 13.541 0 1 1-27.083 0 13.541 13.541 0 1 1 27.083 0z" transform="matrix(.0536 -.01162 0 .04071 261.852 698.538)" fill="url(#bW)"/><path d="M-90.275-64.344a13.541 13.541 0 1 1-27.083 0 13.541 13.541 0 1 1 27.083 0z" transform="matrix(.0536 -.01162 0 .04071 260.82 699.806)" fill="url(#bX)"/><path d="M-90.275-64.344a13.541 13.541 0 1 1-27.083 0 13.541 13.541 0 1 1 27.083 0z" transform="matrix(.0536 -.01162 0 .04071 259.79 701.074)" fill="url(#bY)"/><path d="M-90.275-64.344a13.541 13.541 0 1 1-27.083 0 13.541 13.541 0 1 1 27.083 0z" transform="matrix(.0536 -.01162 0 .04071 258.553 702.23)" fill="url(#bZ)"/><path d="M-90.275-64.344a13.541 13.541 0 1 1-27.083 0 13.541 13.541 0 1 1 27.083 0z" transform="matrix(.0536 -.01162 0 .04071 232.504 697.489)" fill="url(#ca)"/><path d="M-90.275-64.344a13.541 13.541 0 1 1-27.083 0 13.541 13.541 0 1 1 27.083 0z" transform="matrix(.0536 -.01162 0 .04071 232.712 696.661)" fill="url(#cb)"/><path d="M-90.275-64.344a13.541 13.541 0 1 1-27.083 0 13.541 13.541 0 1 1 27.083 0z" transform="matrix(.0536 -.01162 0 .04071 232.917 695.99)" fill="url(#cc)"/><path d="M-90.275-64.344a13.541 13.541 0 1 1-27.083 0 13.541 13.541 0 1 1 27.083 0z" transform="matrix(.0536 -.01162 0 .04071 233.192 695.304)" fill="url(#cd)"/><path d="M-90.275-64.344a13.541 13.541 0 1 1-27.083 0 13.541 13.541 0 1 1 27.083 0z" transform="matrix(.0536 -.01162 0 .04071 233.536 694.707)" fill="url(#ce)"/><path d="M-90.275-64.344a13.541 13.541 0 1 1-27.083 0 13.541 13.541 0 1 1 27.083 0z" transform="matrix(.0536 -.01162 0 .04071 233.879 694.11)" fill="url(#cf)"/><path d="M-90.275-64.344a13.541 13.541 0 1 1-27.083 0 13.541 13.541 0 1 1 27.083 0z" transform="matrix(.0536 -.01162 0 .04071 234.361 693.484)" fill="url(#cg)"/><path d="M95.692-47.192a74.026 49.651 0 1 1-148.05 0 74.026 49.651 0 1 1 148.05 0z" transform="matrix(0 .02 -.02878 .00624 247.155 712.663)" fill="url(#ch)"/><path d="M-90.275-64.344a13.541 13.541 0 1 1-27.083 0 13.541 13.541 0 1 1 27.083 0z" transform="matrix(.07645 -.01658 0 .05808 234.696 746.537)" fill="url(#ci)"/><path d="M-90.275-64.344a13.541 13.541 0 1 1-27.083 0 13.541 13.541 0 1 1 27.083 0z" transform="matrix(.07645 -.01658 0 .05808 235.798 744.26)" fill="url(#cj)"/><path d="M-90.275-64.344a13.541 13.541 0 1 1-27.083 0 13.541 13.541 0 1 1 27.083 0z" transform="matrix(.07645 -.01658 0 .05808 237.037 741.796)" fill="url(#ck)"/><path d="M-90.275-64.344a13.541 13.541 0 1 1-27.083 0 13.541 13.541 0 1 1 27.083 0z" transform="matrix(.07645 -.01658 0 .05808 238.618 739.467)" fill="url(#cl)"/><path d="M-90.275-64.344a13.541 13.541 0 1 1-27.083 0 13.541 13.541 0 1 1 27.083 0z" transform="matrix(.07645 -.01658 0 .05808 240.612 736.892)" fill="url(#cm)"/><path d="M-90.275-64.344a13.541 13.541 0 1 1-27.083 0 13.541 13.541 0 1 1 27.083 0z" transform="matrix(.07645 -.01658 0 .05808 242.883 734.676)" fill="url(#cn)"/><path d="M-90.275-64.344a13.541 13.541 0 1 1-27.083 0 13.541 13.541 0 1 1 27.083 0z" transform="matrix(.07645 -.01658 0 .05808 245.772 732.742)" fill="url(#co)"/><path d="M-90.275-64.344a13.541 13.541 0 1 1-27.083 0 13.541 13.541 0 1 1 27.083 0z" transform="matrix(.07645 -.01658 0 .05808 249.005 731.31)" fill="url(#cp)"/><path d="M-90.275-64.344a13.541 13.541 0 1 1-27.083 0 13.541 13.541 0 1 1 27.083 0z" transform="matrix(.07645 -.01658 0 .05808 252.443 730.407)" fill="url(#cq)"/><path d="M-90.275-64.344a13.541 13.541 0 1 1-27.083 0 13.541 13.541 0 1 1 27.083 0z" transform="matrix(.07645 -.01658 0 .05808 255.813 730.409)" fill="url(#cr)"/><path d="M-90.275-64.344a13.541 13.541 0 1 1-27.083 0 13.541 13.541 0 1 1 27.083 0z" transform="matrix(.07645 -.01658 0 .05808 258.564 731.065)" fill="url(#cs)"/><path d="M-90.275-64.344a13.541 13.541 0 1 1-27.083 0 13.541 13.541 0 1 1 27.083 0z" transform="matrix(.07645 -.01658 0 .05808 260.972 732.424)" fill="url(#ct)"/><path d="M-90.275-64.344a13.541 13.541 0 1 1-27.083 0 13.541 13.541 0 1 1 27.083 0z" transform="matrix(.07645 -.01658 0 .05808 263.036 734.172)" fill="url(#cu)"/><path d="M-90.275-64.344a13.541 13.541 0 1 1-27.083 0 13.541 13.541 0 1 1 27.083 0z" transform="matrix(.07645 -.01658 0 .05808 264.136 736.285)" fill="url(#cv)"/><path d="M-90.275-64.344a13.541 13.541 0 1 1-27.083 0 13.541 13.541 0 1 1 27.083 0z" transform="matrix(.07645 -.01658 0 .05808 265.512 738.547)" fill="url(#cw)"/><path d="M-90.275-64.344a13.541 13.541 0 1 1-27.083 0 13.541 13.541 0 1 1 27.083 0z" transform="matrix(.07645 -.01658 0 .05808 266.474 741.003)" fill="url(#cx)"/><path d="M-90.275-64.344a13.541 13.541 0 1 1-27.083 0 13.541 13.541 0 1 1 27.083 0z" transform="matrix(.07645 -.01658 0 .05808 266.337 741.084)" fill="url(#cy)"/><path d="M-90.275-64.344a13.541 13.541 0 1 1-27.083 0 13.541 13.541 0 1 1 27.083 0z" transform="matrix(.07645 -.01658 0 .05808 261.935 724.64)" fill="url(#cz)"/><path d="M-90.275-64.344a13.541 13.541 0 1 1-27.083 0 13.541 13.541 0 1 1 27.083 0z" transform="matrix(.07645 -.01658 0 .05808 263.793 724.706)" fill="url(#cA)"/><path d="M-90.275-64.344a13.541 13.541 0 1 1-27.083 0 13.541 13.541 0 1 1 27.083 0z" transform="matrix(.07645 -.01658 0 .05808 265.237 724.655)" fill="url(#cB)"/><path d="M-90.275-64.344a13.541 13.541 0 1 1-27.083 0 13.541 13.541 0 1 1 27.083 0z" transform="matrix(.07645 -.01658 0 .05808 265.994 724.595)" fill="url(#cC)"/><path d="M-90.275-64.344a13.541 13.541 0 1 1-27.083 0 13.541 13.541 0 1 1 27.083 0z" transform="matrix(.07645 -.01658 0 .05808 274.11 730.778)" fill="url(#cD)"/><path d="M-90.275-64.344a13.541 13.541 0 1 1-27.083 0 13.541 13.541 0 1 1 27.083 0z" transform="matrix(.07645 -.01658 0 .05808 274.729 729.756)" fill="url(#cE)"/><path d="M-90.275-64.344a13.541 13.541 0 1 1-27.083 0 13.541 13.541 0 1 1 27.083 0z" transform="matrix(.07645 -.01658 0 .05808 275.83 730.56)" fill="url(#cF)"/><path d="M-90.275-64.344a13.541 13.541 0 1 1-27.083 0 13.541 13.541 0 1 1 27.083 0z" transform="matrix(.07645 -.01658 0 .05808 272.185 730.88)" fill="url(#cG)"/><path d="M-90.275-64.344a13.541 13.541 0 1 1-27.083 0 13.541 13.541 0 1 1 27.083 0z" transform="matrix(.0536 -.01162 0 .04071 269.614 728.974)" fill="url(#cH)"/><path d="M-90.275-64.344a13.541 13.541 0 1 1-27.083 0 13.541 13.541 0 1 1 27.083 0z" transform="matrix(.0536 -.01162 0 .04071 268.512 729.63)" fill="url(#cI)"/><path d="M-90.275-64.344a13.541 13.541 0 1 1-27.083 0 13.541 13.541 0 1 1 27.083 0z" transform="matrix(.0536 -.01162 0 .04071 268.445 730.847)" fill="url(#cJ)"/><path d="M-90.275-64.344a13.541 13.541 0 1 1-27.083 0 13.541 13.541 0 1 1 27.083 0z" transform="matrix(.0536 -.01162 0 .04071 269.476 731.669)" fill="url(#cK)"/><path d="M-90.275-64.344a13.541 13.541 0 1 1-27.083 0 13.541 13.541 0 1 1 27.083 0z" transform="matrix(.0536 -.01162 0 .04071 270.988 731.288)" fill="url(#cL)"/><path d="M-90.275-64.344a13.541 13.541 0 1 1-27.083 0 13.541 13.541 0 1 1 27.083 0z" transform="matrix(.0536 -.01162 0 .04071 271.333 729.854)" fill="url(#cM)"/><path d="M-90.275-64.344a13.541 13.541 0 1 1-27.083 0 13.541 13.541 0 1 1 27.083 0z" transform="matrix(.0536 -.01162 0 .04071 270.851 728.915)" fill="url(#cN)"/><path d="M447.82 740.21l7.507 14.635s6.932 10.316 13.135 4.128c5.865-5.852-4.128-11.26-4.128-11.26z" fill="url(#cO)" transform="matrix(.18327 -.03974 0 .13922 183.015 645.537)"/><path d="M463.8 728.8l4 14.612s4.298 10.61 11.06 6.205c6.395-4.166-1.591-10.93-1.591-10.93z" fill="url(#cP)" transform="matrix(.18327 -.03974 0 .13922 183.015 645.537)"/><path d="M428.42 696.22l9.94 12.883s8.577 8.968 13.356 2.877c4.52-5.76-6.068-10.023-6.068-10.023z" fill="url(#cQ)" transform="matrix(.18327 -.03974 0 .13922 183.015 645.537)"/><path d="M-90.275-64.344a13.541 13.541 0 1 1-27.083 0 13.541 13.541 0 1 1 27.083 0z" transform="matrix(.0536 -.01162 0 .04071 264.112 724.892)" fill="url(#cR)"/><path d="M-90.275-64.344a13.541 13.541 0 1 1-27.083 0 13.541 13.541 0 1 1 27.083 0z" transform="matrix(.0536 -.01162 0 .04071 264.937 725.288)" fill="url(#cS)"/><path d="M-90.275-64.344a13.541 13.541 0 1 1-27.083 0 13.541 13.541 0 1 1 27.083 0z" transform="matrix(.0536 -.01162 0 .04071 265.624 725.766)" fill="url(#cT)"/><path d="M-90.275-64.344a13.541 13.541 0 1 1-27.083 0 13.541 13.541 0 1 1 27.083 0z" transform="matrix(.0536 -.01162 0 .04071 266.38 726.28)" fill="url(#cU)"/><path d="M-90.275-64.344a13.541 13.541 0 1 1-27.083 0 13.541 13.541 0 1 1 27.083 0z" transform="matrix(.0536 -.01162 0 .04071 267.136 726.742)" fill="url(#cV)"/><path d="M-90.275-64.344a13.541 13.541 0 1 1-27.083 0 13.541 13.541 0 1 1 27.083 0z" transform="matrix(.0536 -.01162 0 .04071 266.929 729.555)" fill="url(#cW)"/><path d="M-90.275-64.344a13.541 13.541 0 1 1-27.083 0 13.541 13.541 0 1 1 27.083 0z" transform="matrix(.05203 -.02107 .01289 .03673 265.753 743.969)" fill="url(#cX)"/><path d="M-90.275-64.344a13.541 13.541 0 1 1-27.083 0 13.541 13.541 0 1 1 27.083 0z" transform="matrix(.05203 -.02107 .01289 .03673 264.182 743.53)" fill="url(#cY)"/><path d="M-90.275-64.344a13.541 13.541 0 1 1-27.083 0 13.541 13.541 0 1 1 27.083 0z" transform="matrix(.05203 -.02107 .01289 .03673 264.245 742.191)" fill="url(#cZ)"/><path d="M-90.275-64.344a13.541 13.541 0 1 1-27.083 0 13.541 13.541 0 1 1 27.083 0z" transform="matrix(.05203 -.02107 .01289 .03673 265.877 741.143)" fill="url(#da)"/><path d="M-90.275-64.344a13.541 13.541 0 1 1-27.083 0 13.541 13.541 0 1 1 27.083 0z" transform="matrix(.05203 -.02107 .01289 .03673 267.403 741.59)" fill="url(#db)"/><path d="M-90.275-64.344a13.541 13.541 0 1 1-27.083 0 13.541 13.541 0 1 1 27.083 0z" transform="matrix(.05203 -.02107 .01289 .03673 267.469 742.908)" fill="url(#dc)"/><path d="M-90.275-64.344a13.541 13.541 0 1 1-27.083 0 13.541 13.541 0 1 1 27.083 0z" transform="matrix(.07645 -.01658 0 .05808 233.941 748.632)" fill="url(#dd)"/><path d="M350.59 511.05l3.895-10.343s2.593-8.118-5.131-8.47c-7.304-.334-4.877 7.126-4.877 7.126z" fill="url(#de)" transform="matrix(.18327 -.03974 0 .13922 183.015 645.537)"/><path d="M342.63 505.08s1.43 10.521-5.036 17.396c-.986 1.048-2.118 2.218-3.312 3.523a15.964 15.964 0 0 0-.9-2.37c-2.148-4.497-8.33-4.759-8.33-4.759s3.461 3.957 3.517 10.048c.054 5.985-3.4 6.764-6.035 15.5-.91 3.02-1.222 6.398-.932 9.09.086 4.104-.33 5.677 2.351 10.725 2.607 4.908 4.49 6.095 10.844 8.538 6.267 2.409 17.33-1.574 17.33-1.574l-9.789-1.903c-3.262-.633-6.644-3.16-10.058-8.92-3.07-5.18-3.776-11.25-1.905-16.18 2.189-5.764 9.436-12.522 12.232-16.799 2.627-4.017 4.72-8.924 4.526-13.683-.22-5.406-4.503-8.632-4.503-8.632z" fill="url(#df)" transform="matrix(.18327 -.03974 0 .13922 183.015 645.537)"/><path d="M339.56 443.3s.976 6.736-3.44 11.139c-.672.671-1.446 1.42-2.261 2.256a9.826 9.826 0 0 0-.615-1.518c-1.467-2.88-5.69-3.047-5.69-3.047s2.365 2.534 2.403 6.434c.037 3.832-2.46 4.59-4.26 10.184-.623 1.934-.697 3.837-.498 5.56.059 2.629.392 5.249 1.605 6.868 2.327 3.106 4.39 4.877 8.098 5.467 4.513.718 11.144-1.008 11.144-1.008l-6.686-1.219c-2.228-.405-6.076-2.702-7.699-5.062-2.228-3.241-2.32-7.546-.61-11.14 2.026-4.253 7.867-9.506 9.323-11.144 1.62-1.823 4.05-5.06 3.644-8.502-.405-3.444-4.459-5.268-4.459-5.268z" fill="url(#dg)" transform="matrix(.18327 -.03974 0 .13922 183.015 645.537)"/><path d="M357.12 506.09c-2.163 1.874-4.272 7.804-3.784 12.633 0 0 .405 3.495 4.927 9.174 3.61 4.533 17.18 12.227 19.175 19.917 1.938 7.47-.41 11.162-2.769 14.515-2.478 3.522-14.164 8.312-14.164 8.312s7.403.34 13.015-1.605c7.896-2.738 13.367-10.378 12.77-19.266.228-3.812-1.614-7.992-4.059-12.375-4.384-7.862-8.157-8.091-9.367-13.944-1.231-5.958 1.266-10.69 1.266-10.69s-5.295 2.824-6.416 7.753c-.616 2.706-1.093 4.09-.639 6.097-2.164-1.756-4.532-3.969-7.258-7.917-2.906-4.21-2.698-12.602-2.698-12.602z" fill="url(#dh)" transform="matrix(.18327 -.03974 0 .13922 183.015 645.537)"/><path d="M347.87 442.49c-1.622 1.28-2.9 3.252-3.445 6.686 0 0 1.011 4.254 5.062 7.09 3.286 2.299 12.095 6.213 14.988 12.761 3.097 7.01-1.066 8.446-2.836 10.734-1.858 2.404-10.623 5.672-10.623 5.672s6.57-.37 10.36-1.154c4.466-.924 9.533-5.486 9.085-12.381.171-2.601-1.317-6.16-3.15-9.152-3.288-5.365-6.118-5.521-7.026-9.516-.924-4.065.95-7.294.95-7.294s-4.427 1.236-5.268 4.6c-.462 1.845-.364 3.481-.023 4.85-1.623-1.197-3.4-2.707-5.443-5.402-2.18-2.872-2.631-7.494-2.631-7.494z" fill="url(#di)" transform="matrix(.18327 -.03974 0 .13922 183.015 645.537)"/><path d="M-29.791-108.58a21.666 21.666 0 1 1-43.332 0 21.666 21.666 0 1 1 43.332 0z" transform="matrix(.04474 -.0097 0 .03399 247.623 723.2)" fill="url(#dj)"/><path d="M350.3 483s8.24-2.63 8.305-8.507c.056-5.067-9.993-11.764-13.045-11.373-3.436.44-9.843 5.904-9.843 11.373 0 5.192 9.115 8.305 9.115 8.305s-12.558-1.62-12.963-8.507c-.304-7.557 6.481-13.708 13.285-16.812 6.703 2.457 17.283 8.484 17.3 17.014.404 5.063-12.154 8.507-12.154 8.507z" fill="url(#dk)" transform="matrix(.18327 -.03974 0 .13922 183.015 645.537)"/><path d="M360.5 580.03s16.379-11.114 20.766-10.822c4.387.292 7.8.05 8.482 5.85.764 6.495-6.39 7.897-6.39 7.897s1.418-7.312-4.432-7.605c-5.85-.292-16.964 7.605-16.964 7.605z" fill="url(#dl)" transform="matrix(.18327 -.03974 0 .13922 183.015 645.537)"/><path d="M350.78 578.86s-19.198-4.819-23.219-3.039c-4.02 1.78-7.309 2.724-5.96 8.406 1.512 6.363 8.712 5.224 8.712 5.224s-3.84-6.381 1.554-8.663 18.543 1.321 18.543 1.321z" fill="url(#dm)" transform="matrix(.18327 -.03974 0 .13922 183.015 645.537)"/><path d="M357.72 582.61s16.432-1.955 19.619-.124c3.188 1.831 5.841 2.917 4.2 7.346-1.836 4.96-7.731 3.328-7.731 3.328s3.78-4.743-.507-7.114-15.568-.79-15.568-.79z" fill="url(#dn)" transform="matrix(.18327 -.03974 0 .13922 183.015 645.537)"/><path d="M356.66 583.84s-17.746.396-20.799 2.833c-3.052 2.438-5.67 3.999-3.15 8.48 2.821 5.02 8.776 2.384 8.776 2.384s-4.84-4.493-.72-7.673c4.12-3.18 16.346-3.196 16.346-3.196z" fill="url(#do)" transform="matrix(.18327 -.03974 0 .13922 183.015 645.537)"/><path d="M353.06 584.97s16.16 4.637 18.34 7.348c2.18 2.712 4.185 4.61.744 7.617-3.855 3.368-8.644-.208-8.644-.208s5.57-2.453 2.6-6.024c-2.972-3.572-14.17-6.559-14.17-6.559z" fill="url(#dp)" transform="matrix(.18327 -.03974 0 .13922 183.015 645.537)"/><path d="M361.69 586.37s-15.101 4.648-17.065 7.304c-1.964 2.656-3.79 4.52-.434 7.416 3.76 3.244 8.158-.276 8.158-.276s-5.349-2.339-2.668-5.838 13.154-6.5 13.154-6.5z" fill="url(#dq)" transform="matrix(.18327 -.03974 0 .13922 183.015 645.537)"/><path d="M-90.275-64.344a13.541 13.541 0 1 1-27.083 0 13.541 13.541 0 1 1 27.083 0z" transform="matrix(.0536 -.01162 0 .04071 262.765 722.969)" fill="url(#dr)"/><path d="M-90.275-64.344a13.541 13.541 0 1 1-27.083 0 13.541 13.541 0 1 1 27.083 0z" transform="matrix(.04242 -.0092 0 .03222 260.855 722.229)" fill="url(#ds)"/><path d="M-90.275-64.344a13.541 13.541 0 1 1-27.083 0 13.541 13.541 0 1 1 27.083 0z" transform="matrix(.0536 -.01162 0 .04071 234.91 694.043)" fill="url(#dt)"/></svg>