<?xml version="1.0" encoding="utf-8"?>
<svg width="86" height="380" viewBox="202.715 584.407 86.5933 380.048" preserveAspectRatio="xMidYMid meet" xmlns="http://www.w3.org/2000/svg">
  <defs id="svgEditorDefs">
    <path id="svgEditorClosePathDefs" class="skin" fill="black" style="stroke-width: 0px; stroke: none;"/>
  </defs>
  <g transform="matrix(0.062893, -0.022855, 0, 0.062893, 235.852142, 674.622009)">
    <g id="layer1" transform="translate(-164.33 -85.14)"/>
  </g>
  <g transform="matrix(0.045927, -0.012579, 0, 0.045927, 237.050247, 677.74646)">
    <g id="g-1" transform="translate(-96.857 -21.009)">
      <path id="path1682" style="fill:#000000" d="m525.15 579.84c-3.41-0.87-36.6-13.14-73.75-27.27-146.92-55.87-174.33-63.73-224.67-64.36-23.78-0.3-35.01 1.45-63.79 9.92-41.06 12.09-42.12 12.16-55.66 3.9-7.26-4.42-10.423-8.77-10.423-14.33 0-6.88 2.309-8.62 16.833-12.7 9.26-2.61 25.83-6.44 36.82-8.52 11-2.08 21.43-5.51 23.18-7.63 4.63-5.57 10.2-48.97 7.88-61.36-1.09-5.81-5.45-15.25-9.68-20.99-9.61-13.03-9.59-17.51 0.28-49.27 4.38-14.11 7.99-26.63 8.01-27.82 0.03-1.19-8.19 2.79-18.26 8.85-34.96 21.06-61.935 23.24-61.79 5 0.06-7.24 4.09-10.8 27.75-24.51 15.23-8.81 35.76-22.12 45.63-29.57 20.3-15.32 29.8-16.79 48.11-7.46 20.98 10.71 32.36 22.14 32.36 32.51 0 5.13-1.37 9.33-3.04 9.33-1.68 0-15.32 13.92-30.31 30.94l-27.25 30.93 13.97 9.25c26.31 17.43 29.31 29.73 16.17 66.17-4.41 12.22-8.02 23.13-8.02 24.24s10.06 2.01 22.34 2.01c25.47 0 80.6 7.2 124.71 16.27 16.52 3.4 31.31 6.18 32.88 6.18s2.85-20.2 2.85-44.89c0-40.63-0.53-44.89-5.61-44.88-3.08 0.02-27.98 5.06-55.31 11.21-58.09 13.07-63.38 13.37-80.49 4.64-10.87-5.54-12.74-7.94-11.9-15.23 0.99-8.62 1.31-8.72 74.2-23.5 40.26-8.16 74.65-16.28 76.41-18.04 1.76-1.77 2.73-7.35 2.15-12.42-0.96-8.43-1.99-9.11-12.27-8.11-6.18 0.6-13.9 3.48-17.17 6.41-8.23 7.36-31.58 7.03-39.97-0.57-7.92-7.16-19.48-34.68-32.56-77.48-5.39-17.64-12.53-35.31-15.87-39.27-12.35-14.66 0.04-26.14 24.01-22.25 10.12 1.65 87.24-11.03 94.53-15.53 1.68-1.04 3.06-7.45 3.06-14.24v-12.35l-16.83 4.48c-24.13 6.43-41.66 5.79-51.38-1.85-9.74-7.66-8.47-18.39 2.49-21.14 4-1 20.06-4.95 35.69-8.78 27.64-6.77 28.45-7.23 29.39-16.83 0.58-5.97-1.31-12.623-4.81-16.867-5.66-6.862-6.35-6.918-34.56-2.795l-28.79 4.207-2.56 14.265c-7.65 42.68-15.84 57.56-31.7 57.56-13.62 0-20.79-4.74-24.87-16.45-6.29-18.04-4.2-31.55 8.31-53.833 8.08-14.381 12.42-26.732 13.63-38.747 1.63-16.172 2.48-17.718 10.29-18.622 6.61-0.765 10.49 1.6 17.34 10.589 8.74 11.453 9.02 11.553 26.76 9.528 9.86-1.126 57.13-9.859 105.04-19.408 47.91-9.548 91.92-17.355 97.8-17.348 14.51 0.016 28.56 9.233 44.15 28.958 19.59 24.774 17.17 41.577-5.98 41.577-14.57 0-66.77 24.526-69.32 32.576-2.67 8.42-10.1 11.53-33.67 14.14-31.09 3.43-35.11 5.6-35.11 18.94 0 13.68 0.91 13.78 40.24 4.62 44.07-10.26 44.78-10.32 55.88-4.58 15.32 7.92 38.56 32.38 38.56 40.59 0 3.87-2.02 9.32-4.49 12.11-2.47 2.78-8.41 14.44-13.2 25.9-15.88 37.99-36.54 76.4-43.86 81.53-9.86 6.9-22.53 6.34-32.41-1.43-6.64-5.22-10.94-6.07-22.08-4.37-7.61 1.16-15.64 3.53-17.84 5.27-4.61 3.64-5.42 20.36-1.12 23.02 4.76 2.95 55.52-7.73 68.56-14.42 33.83-17.36 97.68 6.33 90.82 33.69-2.8 11.13-12.98 14.59-43.03 14.63-44.6 0.06-117.29 6.45-119.9 10.54-1.34 2.12-2.56 19.73-2.69 39.13s-1.36 42.11-2.74 50.46c-2.89 17.55-6.92 15.12 41.26 24.88 60.25 12.21 93.93 16.02 141.74 16.03 25.87 0.02 49.32 0.9 52.11 1.97s5.07 5.49 5.07 9.83c0 6.66-3.6 9.54-23.25 18.58-27.71 12.76-69.35 25.76-103.35 32.26-13.57 2.6-24.91 4.56-25.2 4.35-0.29-0.2-3.31-1.08-6.73-1.95zm-127.67-287c4.36-3.55 5.5-17.38 1.61-19.37-1.33-0.67-11.22-0.4-21.98 0.62l-19.57 1.84 5.73 13.43 5.72 13.43 12.24-3.35c6.74-1.83 14.05-4.81 16.25-6.6zm80.3-14.16c4.38-1.17 9.23-6.5 12.04-13.21 6.19-14.81 18.3-65.16 16.19-67.27-3.6-3.6-52.82 6.35-54.62 11.04-2.88 7.5 0.91 10.57 13.07 10.57 14.98 0 31.6 15.57 28.21 26.43-2.98 9.54-6.5 11.55-24.55 14-14.98 2.04-21.96 9.15-16.94 17.26 2.22 3.61 15.37 4.19 26.6 1.18zm-99.7-34.83c18.99-5.64 24.86-11.43 22.22-21.95l-1.91-7.6-26.51 5.29c-14.58 2.92-26.25 6.68-25.94 8.37 4.34 23.76 4.83 24 32.14 15.89zm113.46-149.4c7.25 2.173 13.56 3.491 14.02 2.927 11.28-13.829 20.5-30.052 18.33-32.224-2.68-2.683-76.45 8.23-80.06 11.846-0.95 0.945-0.21 1.718 1.63 1.718s5.08 4.161 7.18 9.248c3.63 8.748 4.42 9.066 14.77 5.89 7.98-2.448 14.51-2.287 24.13 0.595zm-291.94 62.58c-16.66-7.23-44.86-30.11-53.85-43.69-12.62-19.072-9.27-21.796 26.82-21.796h31.02l15.58 15.576c14.56 14.56 15.57 16.64 15.57 31.95 0 12.91-1.31 17.08-6.2 19.7-8.32 4.45-15.67 4.01-28.94-1.74z"/>
      <text id="text1684" y="708.08026" x="328.76169" style="font-size: 45.182px; font-family: &quot;Bitstream Vera Sans&quot;; fill: rgb(0, 0, 0); white-space: pre;">       <tspan id="tspan1686" x="328.76169" y="708.08026">LUCK</tspan>     </text>
    </g>
  </g>
</svg>