<?xml version="1.0" encoding="utf-8"?>
<svg width="86" height="380" viewBox="202.715 584.407 86.5933 380.048" preserveAspectRatio="xMidYMid meet" xmlns="http://www.w3.org/2000/svg">
  <defs id="svgEditorDefs">
    <path id="svgEditorClosePathDefs" class="skin" fill="black" style="stroke-width: 0px; stroke: none;"/>
  </defs>
  <g transform="matrix(0.062893, -0.022855, 0, 0.062893, 235.852142, 674.622009)">
    <g id="layer1" transform="translate(-164.33 -85.14)"/>
  </g>
  <g transform="matrix(0.117849, -0.026399, 0, 0.117849, 227.329346, 669.354126)">
    <path id="path2175" style="fill:#000000" transform="translate(-560.1 -4.4787)" d="m705.34 307.04c-6.46-2.43-15.17-9.17-14.05-16.33 7.67-7.03 17.65-10.91 26.92-15.4 16.63-6.93 34.09-11.6 51.39-16.51 7.4-3.22 4.2-13 5.03-19.36-0.14-6.8 0.47-13.73-0.77-20.44-7.69 2.08-13.59 7.66-19.61 12.46-5.54 3.5-14.99 4.86-18.28-2.19-6.07-3.92-7.94-14.19 0.63-16.33 10.7-5.86 21.27-11.96 31.84-18.05 4.48-4.22 1.67-12.04 2.23-17.78-1.03-1.81 0.78-10.85-2.97-8.16-4.16 2.28-8.35 4.48-12.94 5.55-6.84 2.76-15.53 6.88-22.2 1.48-5.86-3.33-10.22-9.05-5.86-15.95-6.66-6.1-10.32-14.94-14.63-22.85-6.96-12.78-11.81-26.82-20.54-38.565-4.16-3.311-10.63-14.753-0.71-14.116 6.75-0.898 12.24 8.04 18.55 2.327 11.28-6.423 21.87-14.89 34.86-17.499 12.2-5.191 24.08-11.147 36.21-16.493 5.75-4.218 12.94-5.138 19.29-8.197 6.37-2.91 12.57-5.244 19.22-7.405 9.53-2.214 20.16 2.898 24.93 11.217 1.22 12.144 0.81 24.554-1.02 36.636-0.33 7.216-6.41 11.701-8.64 18.235-2.02 6.83-5.39 13.17-7.32 20.03-3.26 5.47-3.13 14.19-10.55 15.94-5.87 2.42-12.09 6.69-17.51 11.14-2.84 1.77-5.79 3.36-8.68 5.04-0.8 9.11-0.38 18.39 1.34 27.35 7.1-3.03 15.25-7.38 22.87-3.06 5.45 2.6 9.88 9.08 8.82 14.18-6.39 2.31-13.16 5.03-19.33 8.45-5.52 2.9-15.19 6.36-10.68 14.37 3.19 9.96 1.66 20.63 3.1 30.86 10.03-0.24 19.86-3.32 29.67-5.36 11.64-3 23.7-4.09 35.68-3.79 7.14 0.7 14.66 0.93 21.26 3.93 6.36 3.21 12.54 6.97 17.34 12.4 3.75 3.97 3.99 17.72-4.03 15.95-8.98-0.43-12.45-11.44-21.47-11.22-12.89-0.84-25.63 1.59-38.2 4.06-11.09 1.07-22.18 2.77-32.65 6.79-13.9 5.7-28.51 9.17-42.9 13.37-7.67 2.33-15.39 4.69-22.16 9.1-8.23 4.11-16.59 8.06-24 13.54-2.91 1.63-6.36 1.47-9.48 0.65zm45.83-159.17c5.4-3.63 11.06-6.86 16.83-9.87-0.17-3.79 0.5-7.78-0.83-11.39-5.91-0.62-8.82 6.61-14.48 8.16-5.34 3.11-13.79 7.29-18.24 0.62-4.11-3.88-8.02-9.02-3.78-14.92 11.48-7.1 24.15-12.06 36.29-17.94 1.91-1.63-1.02-5.735-1.03-8.185-1.24-2.2-2.74-9.326-6.11-7.531-13.44 6.422-25.78 15.056-39.57 20.686-7.16 1.66 2.6 11.4 3.38 16.36 4.94 9.72 9.13 20.02 15.65 28.8 4.08 1.67 8.38-3.16 11.89-4.79zm48.69-25.92c1.98-0.96 5.79 0.11 6.42-2.36 1.81-6.09 4-12.09 5.33-18.31-7.1 3.17-13.75 7.25-20.61 10.92 0.25 3.8-0.64 7.88 0.72 11.47 2.71-0.36 5.4-1.31 8.14-1.72zm-6.97-33.883c5.65-3.545 12.95-7.555 19.28-3.054 7.7 4.143 6.97-9.372 9.11-13.874 0.67-4.241 4.96-16.045-3.35-10.423-13.95 5.923-28.13 11.507-41.42 18.814-3.37 4.035 8.06 6.289 8.49 11.559 1.95 2.146 5.54-2.553 7.89-3.022zm-179.39 215.94c-4.04-4.29-12.46-8.16-9.14-15.34 4.53-6.95 11.16-12.26 16.12-18.92 8.73-9.47 18.16-18.27 27.35-27.28-2.14-9.13-2.02-18.62-4.05-27.73-5.4-0.62-9.6 11.14-16.21 9.32-6.46-1.04-15.65-5.93-14.11-13.86 4.78-4.89 9.92-10.03 15.77-13.64 4.14-4.9 13.29-7.6 10.14-15.9-1.07-8.52-2.08-17.07-3.95-25.46-4.4-0.38-10.4 5.47-14.69 3.45-6.81-2.17-12.59-6.32-17.61-11.55-3.18-2.25-7.08-8.96-4.31-11.55 6.82 0.15 14.76 2.36 20.27-2.92 9.8-7.65 20.63-13.9 30.77-21.07 5.8-4.87 12.89-2.31 18.25 1.73 2.3 2.19 4.33 6.65 4.98 9.59 5.6-0.61-5.36 7.83-7.52 10.12-4.38 3.27-13.83 6.13-14.81 10.61 6.36 4.46 5.12 13.03 6.77 19.73 1.19 3.18 0.03 11.56 5.08 6.58 6.37-3.11 15.07 0.31 18.64 5.82 0.49 5.96-1.42 9.36-7.55 12.25-4.27 2.85-8.16 6.2-11.99 9.6 1.3 7.88 1.9 15.94 4.12 23.63 7.23-2.7 10.25-11.75 17.91-14.06 6.51-0.93 9.9 9.71 8.85 15.54-3.2 6.31-9.26 10.79-12.79 16.97-10.4 12.14-22.25 23-32.24 35.49-2.14 6.05-8.32 11.15-12.08 16.79-4.76 4.71-8.48 12.3-15.97 12.61-1.97 0.09-4.19 0.41-6-0.55z"/>
  </g>
</svg>