<svg class="shirtOverlay" width="86" height="380" viewBox="202.715 584.407 86.593 380.048" xmlns="http://www.w3.org/2000/svg"><defs><linearGradient id="b" gradientUnits="userSpaceOnUse" x1="245.022" y1="730.134" x2="245.022" y2="737.207" gradientTransform="matrix(.99458 0 .04468 .60063 -31.67 290.81)"><stop offset="0" stop-color="#4b4b4b"/><stop offset="1" stop-color="#181818"/></linearGradient><linearGradient id="c" gradientUnits="userSpaceOnUse" x1="245.863" y1="733.043" x2="245.863" y2="750.081" gradientTransform="matrix(.99606 -.08868 .08545 .95979 -61.672 51.28)"><stop offset="0" stop-color="#747474"/><stop offset=".217" stop-color="#fff"/><stop offset=".361" stop-color="#e9e9e9"/><stop offset=".416" stop-color="#fff"/><stop offset=".506"/><stop offset="1" stop-color="#949494"/></linearGradient><linearGradient id="a" gradientUnits="userSpaceOnUse" x1="229.413" y1="732.576" x2="229.413" y2="741.271" gradientTransform="matrix(.92854 -.37124 .20684 .51736 -135.135 438.735)"><stop offset="0" stop-color="#d8d8d8"/><stop offset=".439" stop-color="#848484"/><stop offset=".754" stop-color="#fff"/><stop offset=".919"/><stop offset="1" stop-color="#a5a5a5"/></linearGradient></defs><path d="M272.248 750.477" stroke="#000" fill="#d8d8d8"/><path fill="#d8d8d8" stroke-width=".113" stroke="#000" d="M301.657 750.988l-4.859 13.81 11.252-8.695 8.439 8.695-1.278-12.531z" transform="matrix(.60435 .152 -.00513 .99999 52.786 -62.95)"/><g stroke-width="4.762" stroke="#000"><path d="M1529.61 1396.25l3.387-4.66-77.903-49.479-.13.179 71.13 58.8 3.452-4.75-.065.09 71.13 58.799 6.902-9.5z" transform="matrix(.0121 .00454 -.00133 .02607 221.234 702.396)"/><path d="M1458.48 1337.45l-77.902-49.478 3.386-4.66-77.902-49.48-.13.18 71.13 58.8 3.387-4.661 71.13 58.8zM1027.003 1391.59l-71.13 58.8-3.386-4.66-71.13 58.799.087.12-3.473-4.78-100.59 76.385-.744 1.024 36.828-122.075-.21-.069-48.044 137.87.744-1.024 118.918-82.612-3.386-4.66 77.902-49.48-3.386-4.66 77.902-49.478z" transform="matrix(.0121 .00454 -.00133 .02607 221.234 702.396)"/><path d="M818.944 1456.983l22.984-89.38-.21-.068-33.941 85.82z" transform="matrix(.0121 .00454 -.00133 .02607 221.234 702.396)"/><path d="M870.39 1280.005l5.48 1.78 22.983-89.38 5.48 1.78 22.983-89.379-.14-.045 5.619 1.826 22.984-89.38-.21-.068-33.942 85.819 5.479 1.78-33.942 85.82 5.48 1.78-33.942 85.818 5.687 1.848-.208-.068-33.942 85.82 11.168 3.628zM1794.79 1593.005l-.745-1.025-41.822-138.626-5.478 1.78-22.984-89.379-5.479 1.78-22.984-89.379-5.479 1.78-22.984-89.379-11.167 3.629 33.941 85.819.036-.012-5.514 1.792 33.941 85.818-5.479 1.78 33.941 85.82.106-.034-5.584 1.814 41.563 119.27.744 1.025-104.72-72.75 3.386-4.66-77.902-49.478-.13.178 71.13 58.8 3.386-4.66zM1280 1211.563v-.483l-26.062 22.753-3.386-4.66-71.13 58.799-3.386-4.66-71.13 58.8-3.386-4.661-71.13 58.8.13.178 77.901-49.479-3.386-4.66 77.903-49.479-3.451-4.75.064.09 77.903-49.479-3.386-4.66 25.932-15.507v.483l22.546 19.684 6.902-9.5z" transform="matrix(.0121 .00454 -.00133 .02607 221.234 702.396)"/><path d="M1636.884 1174.567l32.245 81.528.2-.065-21.835-84.91z" transform="matrix(.0121 .00454 -.00133 .02607 221.234 702.396)"/><path d="M1663.924 1257.786l32.244 81.528.2-.065-21.835-84.91z" transform="matrix(.0121 .00454 -.00133 .02607 221.234 702.396)"/><path d="M1701.573 1337.558l-10.61 3.447 32.245 81.528-5.205 1.691 39.485 113.308.707.973-99.484-69.112-.016.022 3.233-4.45-74.008-47.004-.061.085 3.278-4.513-74.007-47.004-.123.17 67.573 55.859 3.217-4.427 67.574 55.86 3.216-4.428 110.463 83.882-.707-.973-39.73-131.695-5.206 1.691zM1520.347 1362.101l-74.007-47.005-.124.17 67.574 55.86z" transform="matrix(.0121 .00454 -.00133 .02607 221.234 702.396)"/><path d="M1449.556 1310.669l-74.007-47.005-.123.17 67.573 55.86z" transform="matrix(.0121 .00454 -.00133 .02607 221.234 702.396)"/><path d="M1378.766 1259.237l-74.007-47.005-.123.17 67.573 55.86zM1252.024 1207.804l-67.573 55.86.045.062-3.262-4.49-67.574 55.86-3.217-4.427-67.573 55.86.077.105-3.294-4.533-67.574 55.86-3.216-4.428-67.574 55.86.09.123-3.307-4.55-95.56 72.566-.707.973 34.987-115.972 5.205 1.691 21.835-84.91-.2-.065-32.244 81.528 5.369 1.745-.164-.054-45.643 130.977.707-.973 112.972-78.482-3.217-4.427 74.007-47.005-3.306-4.55.09.122 74.007-47.004-3.217-4.428 74.007-47.004-3.334-4.59.118.162 74.007-47.005-3.217-4.427 74.007-47.005z" transform="matrix(.0121 .00454 -.00133 .02607 221.234 702.396)"/><path d="M890.871 1256.095l5.205 1.691 21.835-84.91 5.204 1.691 21.835-84.91-.2-.065-32.244 81.528 5.205 1.691-32.244 81.528 5.205 1.691-32.245 81.528 10.61 3.447zM1569.351 1391.52l6.23-8.573-70.307-44.654 3.056-4.206-70.307-44.655 3.056-4.206-70.307-44.654-.059.08 3.115-4.286-70.307-44.655 3.056-4.206-26.577-15.892v-.437l-23.521 20.535-3.056-4.206-64.195 53.066-3.056-4.205-64.195 53.066-3.056-4.206-64.195 53.067.035.048-3.09-4.254-64.196 53.066.118.162 70.306-44.655-3.055-4.206 70.306-44.654-3.152-4.34.096.133 70.307-44.654-3.056-4.206 70.307-44.655-3.097-4.262.041.056 23.404-13.994v.436l20.348 17.764 3.056-4.206 64.195 53.067 3.056-4.206 64.195 53.067 3.056-4.207 64.195 53.067 3.114-4.287-.058.081z" transform="matrix(.0121 .00454 -.00133 .02607 221.234 702.396)"/><path d="M984.42 1382.947l-64.195 53.067.058.08-3.114-4.286-90.783 68.938-.671.924 33.237-110.173-.094-.03 5.039 1.637 20.743-80.665 4.945 1.607 20.743-80.665 4.944 1.606 20.743-80.664-.19-.062-30.632 77.452 4.945 1.606-30.632 77.452 5.064 1.645-.12-.038-30.632 77.451 4.945 1.607-43.36 124.427.671-.924 107.324-74.558-3.056-4.206 70.307-44.654zM1655.772 1286.85l-19.706-76.632-4.697 1.526-19.706-76.631-4.697 1.526-19.706-76.632-9.575 3.111 29.1 73.58-4.697 1.526 29.1 73.579-4.697 1.526 29.1 73.579-4.696 1.526 29.1 73.58.18-.06-19.706-76.63zM1496.913 1307.473l-66.791-42.422-.112.154 60.986 50.413zM1366.122 1218.787l60.985 50.413 5.918-8.145-66.792-42.421 2.904-3.996-66.792-42.422-.111.153 60.985 50.414zM1190.863 1214.638l-60.985 50.413-2.903-3.995-60.985 50.413.111.153 66.792-42.422-2.903-3.995 66.791-42.422z" transform="matrix(.0121 .00454 -.00133 .02607 221.234 702.396)"/><path d="M1002.213 1358.04l66.791-42.422-5.917-8.145-60.985 50.414zM904.228 1286.85l-29.1 73.578 4.697 1.527-41.192 118.206.638-.878 101.957-70.83-2.903-3.996 66.791-42.422-5.918-8.144-60.985 50.413-2.903-3.996-86.243 65.491-.638.878 31.576-104.664 4.697 1.526 19.706-76.631z" transform="matrix(.0121 .00454 -.00133 .02607 221.234 702.396)"/><path d="M928.811 1211.803l-.18-.059-29.1 73.58 9.574 3.11zM1675.298 1363.54l35.635 102.26.638.878-89.784-62.374 2.903-3.996-66.792-42.421 2.903-3.996-66.791-42.422-.111.153 60.985 50.413 2.958-4.072-.055.077 60.985 50.413 2.903-3.996 99.692 75.704-.638-.878-35.856-118.855zM1659.995 1334.003l.171-.055-18.72-72.8-4.463 1.45-18.72-72.8-9.096 2.955 27.645 69.9.138-.045-4.6 1.495z" transform="matrix(.0121 .00454 -.00133 .02607 221.234 702.396)"/><path d="M1422.51 1242.035l57.936 47.893 2.862-3.94-.104.144 57.936 47.892 2.758-3.795 57.936 47.892 2.81-3.869-.052.073 94.707 71.919-.606-.834-34.064-112.912-9.096 2.955 33.853 97.147.606.834-85.295-59.254 2.758-3.796-63.452-40.301 2.758-3.796-63.452-40.3 2.758-3.797-63.451-40.3zM1079.554 1289.928l-2.758-3.796 63.452-40.3-2.758-3.797 63.452-40.3-2.758-3.797 63.452-40.3-2.848-3.92.09.124 21.122-12.63v.393l18.364 16.033 2.758-3.796 57.936 47.892 2.758-3.795 57.936 47.892 5.621-7.737-63.451-40.301 2.758-3.796-63.452-40.3-.053.072 2.81-3.869-23.985-14.343v-.393l-21.228 18.532-2.758-3.796-57.936 47.893-2.758-3.796-57.936 47.892.103.142-2.86-3.938-57.937 47.893.001.001-2.758-3.797-57.936 47.893.105.145z" transform="matrix(.0121 .00454 -.00133 .02607 221.234 702.396)"/><path d="M1640.996 1307.394l-4.24 1.377 32.16 92.29.577.793-81.03-56.293 2.62-3.606-60.28-38.285-.1.138 55.039 45.498 2.62-3.606 89.972 68.322-.576-.792-32.36-107.266-4.24 1.377-17.784-69.16-4.321 1.404.081-.026-17.784-69.16-8.641 2.807 26.263 66.405-4.24 1.378z" transform="matrix(.0121 .00454 -.00133 .02607 221.234 702.396)"/><path d="M1415.384 1220.024l55.04 45.498 2.62-3.606 55.039 45.498 5.34-7.35-60.279-38.286 2.62-3.607-60.28-38.285-.086.118 2.707-3.724-60.28-38.286-.1.138 55.04 45.498z" transform="matrix(.0121 .00454 -.00133 .02607 221.234 702.396)"/><path d="M1360.446 1174.388l-60.28-38.286-.014.02 2.634-3.626L1280 1118.87v-.374l-20.166 17.606-2.62-3.606-55.04 45.498-2.62-3.606-55.039 45.498-2.62-3.606-55.039 45.498.1.138 60.28-38.286-2.62-3.606 60.279-38.286-2.62-3.606 60.28-38.286-2.62-3.606 20.065-11.998v.374l17.446 15.23 2.62-3.606 55.039 45.498z" transform="matrix(.0121 .00454 -.00133 .02607 221.234 702.396)"/><path d="M1029.297 1303.808l60.28-38.286-5.341-7.35-55.04 45.497-2.62-3.606-55.038 45.498-2.62-3.606-77.835 59.106-.576.792 28.497-94.46-.162-.052-37.176 106.681.576-.792 92.016-63.924-2.62-3.606 60.28-38.286zM1581.1 1153.328l-4.027 1.309 24.95 63.084-4.027 1.309 24.95 63.085-4.028 1.308 30.553 87.675.547.753-76.979-53.477-.095.131 85.473 64.907-.547-.753-30.742-101.903-4.028 1.309-16.895-65.702-4.158 1.35.13-.042-16.895-65.702-4.027 1.309-16.895-65.702-8.21 2.667z" transform="matrix(.0121 .00454 -.00133 .02607 221.234 702.396)"/><path d="M1575.528 1314.948l-57.265-36.371-.095.131 52.287 43.223zM1520.752 1275.15l-57.265-36.37-.096.13 52.288 43.224z" transform="matrix(.0121 .00454 -.00133 .02607 221.234 702.396)"/><path d="M1460.902 1242.337l5.074-6.984-57.266-36.37 2.49-3.427-57.266-36.371 2.49-3.426-57.266-36.371 2.49-3.426-21.648-12.945v-.355l-19.158 16.726.095.13L1280 1108.12v.356l16.573 14.469 2.499-3.439-.01.013 52.288 43.223 2.489-3.426 52.287 43.223 2.561-3.525-.072.1zM1096.609 1238.91l57.265-36.37-2.49-3.427 57.266-36.37-5.073-6.984-52.288 43.223.023.032-2.512-3.458-52.287 43.223-2.489-3.426-52.287 43.224-2.49-3.426-52.286 43.223-2.49-3.426-73.942 56.15-.547.753 27.072-89.736-.154-.05-35.317 101.347.547-.753 87.415-60.728-2.521-3.47.032.044 57.265-36.371-2.489-3.426 57.266-36.371z" transform="matrix(.0121 .00454 -.00133 .02607 221.234 702.396)"/><path d="M941.082 1283.423l16.895-65.702 4.027 1.309 16.895-65.702-.154-.05-24.95 63.085 4.027 1.308-24.95 63.085zM1402.275 1179.124l2.365-3.255-54.403-34.553-.064.089 2.43-3.343-54.403-34.553 2.365-3.255-20.565-12.297v-.337l-18.2 15.889-2.365-3.255-49.672 41.062-2.365-3.254-49.673 41.062.09.124 54.402-34.552-2.39-3.291.026.036 54.402-34.553-2.365-3.254 18.11-10.83v.338l15.745 13.746 2.4-3.303-.035.049 49.672 41.062 2.365-3.255 49.673 41.062 2.41-3.317-.046.063 49.673 41.062 2.365-3.255 49.673 41.062 2.41-3.317-.046.062 49.673 41.062 2.365-3.254 81.2 61.66-.52-.714-29.206-96.808-3.964 1.288.138-.045-16.05-62.417-3.826 1.243-16.05-62.416-7.8 2.534 23.703 59.93.073-.024-3.9 1.267 23.704 59.93-3.826 1.244 29.025 83.291.52.715-73.13-50.803-.02.026 2.384-3.28-54.402-34.553 2.365-3.255-54.402-34.553 2.364-3.254zM1103.323 1213.677l-49.673 41.062-2.365-3.255-49.672 41.062.09.125 54.402-34.553-2.364-3.255 54.402-34.553z" transform="matrix(.0121 .00454 -.00133 .02607 221.234 702.396)"/><path d="M977.904 1198.17l16.05-62.418 3.827 1.244 16.05-62.417-.147-.048-23.702 59.93 3.826 1.244-23.703 59.93 3.952 1.284-.126-.04-23.702 59.93 3.826 1.243-33.551 96.28.52-.715 83.044-57.692-4.82-6.634-70.245 53.343-.52.715 25.719-85.25 3.825 1.244 16.05-62.417zM1570.626 1177.17l-3.635 1.182 22.517 56.933-3.634 1.181 27.574 79.127.493.68-69.473-48.264 2.246-3.091-51.682-32.826 2.247-3.091-51.682-32.826-.086.119 47.189 39.009 2.246-3.092 47.19 39.009 2.289-3.151-.043.059 77.14 58.578-.494-.68-27.745-91.967-3.635 1.181-15.248-59.296-3.704 1.204.07-.023-15.249-59.296-7.409 2.408zM1114.403 1196.175l-2.246-3.091-47.19 39.008.087.119 51.682-32.825-2.29-3.151.043.059 51.682-32.825-4.579-6.303z" transform="matrix(.0121 .00454 -.00133 .02607 221.234 702.396)"/><path d="M1004.483 1117.83l3.634 1.18-22.517 56.934 3.635 1.181-22.518 56.934 7.409 2.407 15.248-59.295-.057-.02 3.692 1.2 15.248-59.296 3.635 1.181 15.247-59.295-.139-.046z" transform="matrix(.0121 .00454 -.00133 .02607 221.234 702.396)"/><path d="M938.479 1326.706l.493-.68 78.893-54.806-2.29-3.151.043.059 51.682-32.825-4.579-6.303-47.189 39.01-2.246-3.092-66.734 50.675-.493.68 24.432-80.987-.139-.046zM1559.68 1157.238l-7.038 2.286 21.391 54.088.118-.038-3.57 1.16 26.194 75.17.47.646-66-45.85 2.134-2.938-49.098-31.183-.082.112 44.83 37.058 2.134-2.937 73.282 55.65-.468-.646-26.359-87.37-3.452 1.123z" transform="matrix(.0121 .00454 -.00133 .02607 221.234 702.396)"/><path d="M1007.358 1159.524l14.486-56.33-.133-.044-21.391 54.088 3.453 1.122-21.392 54.087 3.453 1.122-30.28 86.893.47-.646 74.947-52.067-2.134-2.937 49.098-31.184-2.134-2.937 49.098-31.184-2.134-2.937 49.098-31.184-2.135-2.937 49.098-31.184-2.134-2.938 49.098-31.183-2.175-2.994.041.056 16.344-9.773v.305l14.21 12.406 2.134-2.938 44.83 37.059 4.35-5.987-49.098-31.184-.06.08 2.194-3.018-18.56-11.098v-.304l-16.426 14.34-2.134-2.938-44.83 37.059-2.133-2.937-44.83 37.058-2.134-2.937-44.83 37.058-2.134-2.937-44.83 37.058-2.134-2.937-44.83 37.059-2.134-2.938-63.396 48.142-.47.646 23.212-76.938 3.453 1.122 14.485-56.331zM1429.373 1157.832l42.589 35.206 2.027-2.79 42.588 35.205 4.133-5.688-46.643-29.625 2.027-2.79-46.643-29.625z" transform="matrix(.0121 .00454 -.00133 .02607 221.234 702.396)"/><path d="M1031.346 1087.018l3.28 1.066-20.322 51.383 3.28 1.065-20.322 51.383 3.363 1.093-.082-.027-28.766 82.548.445-.613 71.2-49.463-2.029-2.794.002.003 46.643-29.624-2.027-2.79 46.643-29.625-2.027-2.79 46.643-29.626-2.028-2.79 46.643-29.625-2.066-2.844.039.054 46.643-29.625-4.133-5.688-42.588 35.206-2.027-2.79-42.589 35.205-2.027-2.79-42.588 35.205.039.054-2.066-2.844-42.589 35.205.063.086-2.09-2.876-42.588 35.205-2.028-2.79-60.226 45.735-.446.613 22.05-73.091 3.28 1.066 13.762-53.515-.12-.039 3.4 1.105 13.762-53.514-.063-.021 3.343 1.086 13.761-53.514-.125-.041zM1532.411 1122.584l-3.116 1.012-13.073-50.838-3.117 1.012-13.073-50.839-6.352 2.064 19.306 48.814-3.117 1.012 19.306 48.814-3.116 1.013 19.306 48.814.06-.02-3.177 1.032 23.641 67.841.424.583-59.565-41.38-.074.102 66.138 50.224-.423-.583-23.788-78.85-3.117 1.012z" transform="matrix(.0121 .00454 -.00133 .02607 221.234 702.396)"/><path d="M1267.176 1050.299l-1.926-2.65 14.75-8.821v.275l12.824 11.196 1.926-2.65 40.46 33.444 3.925-5.403-44.31-28.144 1.925-2.65-16.75-10.017v-.274l-14.824 12.941-1.926-2.65-40.459 33.445-1.926-2.651-40.459 33.445.049.067-1.975-2.718-40.458 33.446-1.927-2.651-40.458 33.445-1.927-2.65-40.458 33.444.037.051-1.963-2.702-57.216 43.449-.423.582 20.948-69.436 3.116 1.012 13.074-50.839-.12-.038-19.306 48.813 3.117 1.013-27.328 78.42.423-.582 67.64-46.99-1.925-2.651 44.31-28.144-1.994-2.745.068.095 44.311-28.144-1.926-2.65 44.311-28.144-1.926-2.651 44.31-28.144-1.934-2.663.009.013z" transform="matrix(.0121 .00454 -.00133 .02607 221.234 702.396)"/><path d="M1334.278 1064.611l38.436 31.773 1.83-2.518 38.436 31.773 1.83-2.519 38.435 31.773 1.83-2.518 38.436 31.773 1.83-2.518 62.83 47.712-.402-.553-22.598-74.909-3.018.98.057-.018-12.42-48.297-2.96.962-12.42-48.297-2.96.962-12.42-48.297-6.034 1.961 18.34 46.373-2.96.962 18.34 46.373-2.96.962 18.34 46.373-2.96.962 22.46 64.45.401.553-56.586-39.31-.035.047 1.865-2.566-42.096-26.737-.062.086 1.892-2.604-42.095-26.736 1.83-2.519-42.096-26.736-.035.048 1.865-2.566-42.095-26.736 1.83-2.519-42.096-26.736 1.83-2.518-15.913-9.516v-.26l-14.083 12.294.07.096 14.013-8.379v.261l12.183 10.637 1.865-2.567-.035.048 38.436 31.773zM1056.645 1158.019l3.017.98-.056-.018-18.341 46.373 2.961.962-25.962 74.499.403-.553 64.258-44.641-1.83-2.518 42.095-26.736-1.843-2.537.014.018 42.095-26.736-1.83-2.518 42.095-26.737-3.729-5.133-38.436 31.773-1.829-2.518-38.436 31.773-1.83-2.519-38.436 31.773-1.83-2.518-54.354 41.276-.403.553 19.901-65.964-.057-.019 3.018.98 12.419-48.297 2.961.962 12.419-48.297 2.961.962 12.419-48.297 2.961.962 12.419-48.297-.113-.036-18.341 46.373 2.961.962-18.341 46.373 3.017.98-.056-.018z" transform="matrix(.0121 .00454 -.00133 .02607 221.234 702.396)"/></g><path fill="#d8d8d8" stroke-width=".102" stroke="#000" d="M301.657 750.988l-4.859 13.81 11.252-8.695 8.439 8.695-1.278-12.531z" transform="matrix(.768 -.05312 -.00513 .99999 10.585 .594)"/><path stroke-width="4.297" stroke="#000" d="M1529.61 1396.25l3.387-4.66-77.903-49.479-.13.179 71.13 58.8 3.452-4.75-.065.09 71.13 58.799 6.902-9.5z" transform="matrix(.01538 .00043 -.00165 .02647 225.648 707.512)"/><path stroke-width="4.297" stroke="#000" d="M1458.48 1337.45l-77.902-49.478 3.386-4.66-77.902-49.48-.13.18 71.13 58.8 3.387-4.661 71.13 58.8zM1027.003 1391.59l-71.13 58.8-3.386-4.66-71.13 58.799.087.12-3.473-4.78-100.59 76.385-.744 1.024 36.828-122.075-.21-.069-48.044 137.87.744-1.024 118.918-82.612-3.386-4.66 77.902-49.48-3.386-4.66 77.902-49.478z" transform="matrix(.01538 .00043 -.00165 .02647 225.648 707.512)"/><path stroke-width="4.297" stroke="#000" d="M818.944 1456.983l22.984-89.38-.21-.068-33.941 85.82z" transform="matrix(.01538 .00043 -.00165 .02647 225.648 707.512)"/><path stroke-width="4.297" stroke="#000" d="M870.39 1280.005l5.48 1.78 22.983-89.38 5.48 1.78 22.983-89.379-.14-.045 5.619 1.826 22.984-89.38-.21-.068-33.942 85.819 5.479 1.78-33.942 85.82 5.48 1.78-33.942 85.818 5.687 1.848-.208-.068-33.942 85.82 11.168 3.628zM1794.79 1593.005l-.745-1.025-41.822-138.626-5.478 1.78-22.984-89.379-5.479 1.78-22.984-89.379-5.479 1.78-22.984-89.379-11.167 3.629 33.941 85.819.036-.012-5.514 1.792 33.941 85.818-5.479 1.78 33.941 85.82.106-.034-5.584 1.814 41.563 119.27.744 1.025-104.72-72.75 3.386-4.66-77.902-49.478-.13.178 71.13 58.8 3.386-4.66zM1280 1211.563v-.483l-26.062 22.753-3.386-4.66-71.13 58.799-3.386-4.66-71.13 58.8-3.386-4.661-71.13 58.8.13.178 77.901-49.479-3.386-4.66 77.903-49.479-3.451-4.75.064.09 77.903-49.479-3.386-4.66 25.932-15.507v.483l22.546 19.684 6.902-9.5z" transform="matrix(.01538 .00043 -.00165 .02647 225.648 707.512)"/><path stroke-width="4.297" stroke="#000" d="M1636.884 1174.567l32.245 81.528.2-.065-21.835-84.91z" transform="matrix(.01538 .00043 -.00165 .02647 225.648 707.512)"/><path stroke-width="4.297" stroke="#000" d="M1663.924 1257.786l32.244 81.528.2-.065-21.835-84.91z" transform="matrix(.01538 .00043 -.00165 .02647 225.648 707.512)"/><path stroke-width="4.297" stroke="#000" d="M1701.573 1337.558l-10.61 3.447 32.245 81.528-5.205 1.691 39.485 113.308.707.973-99.484-69.112-.016.022 3.233-4.45-74.008-47.004-.061.085 3.278-4.513-74.007-47.004-.123.17 67.573 55.859 3.217-4.427 67.574 55.86 3.216-4.428 110.463 83.882-.707-.973-39.73-131.695-5.206 1.691zM1520.347 1362.101l-74.007-47.005-.124.17 67.574 55.86z" transform="matrix(.01538 .00043 -.00165 .02647 225.648 707.512)"/><path stroke-width="4.297" stroke="#000" d="M1449.556 1310.669l-74.007-47.005-.123.17 67.573 55.86z" transform="matrix(.01538 .00043 -.00165 .02647 225.648 707.512)"/><path stroke-width="4.297" stroke="#000" d="M1378.766 1259.237l-74.007-47.005-.123.17 67.573 55.86zM1252.024 1207.804l-67.573 55.86.045.062-3.262-4.49-67.574 55.86-3.217-4.427-67.573 55.86.077.105-3.294-4.533-67.574 55.86-3.216-4.428-67.574 55.86.09.123-3.307-4.55-95.56 72.566-.707.973 34.987-115.972 5.205 1.691 21.835-84.91-.2-.065-32.244 81.528 5.369 1.745-.164-.054-45.643 130.977.707-.973 112.972-78.482-3.217-4.427 74.007-47.005-3.306-4.55.09.122 74.007-47.004-3.217-4.428 74.007-47.004-3.334-4.59.118.162 74.007-47.005-3.217-4.427 74.007-47.005z" transform="matrix(.01538 .00043 -.00165 .02647 225.648 707.512)"/><path stroke-width="4.297" stroke="#000" d="M890.871 1256.095l5.205 1.691 21.835-84.91 5.204 1.691 21.835-84.91-.2-.065-32.244 81.528 5.205 1.691-32.244 81.528 5.205 1.691-32.245 81.528 10.61 3.447zM1569.351 1391.52l6.23-8.573-70.307-44.654 3.056-4.206-70.307-44.655 3.056-4.206-70.307-44.654-.059.08 3.115-4.286-70.307-44.655 3.056-4.206-26.577-15.892v-.437l-23.521 20.535-3.056-4.206-64.195 53.066-3.056-4.205-64.195 53.066-3.056-4.206-64.195 53.067.035.048-3.09-4.254-64.196 53.066.118.162 70.306-44.655-3.055-4.206 70.306-44.654-3.152-4.34.096.133 70.307-44.654-3.056-4.206 70.307-44.655-3.097-4.262.041.056 23.404-13.994v.436l20.348 17.764 3.056-4.206 64.195 53.067 3.056-4.206 64.195 53.067 3.056-4.207 64.195 53.067 3.114-4.287-.058.081z" transform="matrix(.01538 .00043 -.00165 .02647 225.648 707.512)"/><path stroke-width="4.297" stroke="#000" d="M984.42 1382.947l-64.195 53.067.058.08-3.114-4.286-90.783 68.938-.671.924 33.237-110.173-.094-.03 5.039 1.637 20.743-80.665 4.945 1.607 20.743-80.665 4.944 1.606 20.743-80.664-.19-.062-30.632 77.452 4.945 1.606-30.632 77.452 5.064 1.645-.12-.038-30.632 77.451 4.945 1.607-43.36 124.427.671-.924 107.324-74.558-3.056-4.206 70.307-44.654zM1655.772 1286.85l-19.706-76.632-4.697 1.526-19.706-76.631-4.697 1.526-19.706-76.632-9.575 3.111 29.1 73.58-4.697 1.526 29.1 73.579-4.697 1.526 29.1 73.579-4.696 1.526 29.1 73.58.18-.06-19.706-76.63zM1496.913 1307.473l-66.791-42.422-.112.154 60.986 50.413zM1366.122 1218.787l60.985 50.413 5.918-8.145-66.792-42.421 2.904-3.996-66.792-42.422-.111.153 60.985 50.414zM1190.863 1214.638l-60.985 50.413-2.903-3.995-60.985 50.413.111.153 66.792-42.422-2.903-3.995 66.791-42.422z" transform="matrix(.01538 .00043 -.00165 .02647 225.648 707.512)"/><path stroke-width="4.297" stroke="#000" d="M1002.213 1358.04l66.791-42.422-5.917-8.145-60.985 50.414zM904.228 1286.85l-29.1 73.578 4.697 1.527-41.192 118.206.638-.878 101.957-70.83-2.903-3.996 66.791-42.422-5.918-8.144-60.985 50.413-2.903-3.996-86.243 65.491-.638.878 31.576-104.664 4.697 1.526 19.706-76.631z" transform="matrix(.01538 .00043 -.00165 .02647 225.648 707.512)"/><path stroke-width="4.297" stroke="#000" d="M928.811 1211.803l-.18-.059-29.1 73.58 9.574 3.11zM1675.298 1363.54l35.635 102.26.638.878-89.784-62.374 2.903-3.996-66.792-42.421 2.903-3.996-66.791-42.422-.111.153 60.985 50.413 2.958-4.072-.055.077 60.985 50.413 2.903-3.996 99.692 75.704-.638-.878-35.856-118.855zM1659.995 1334.003l.171-.055-18.72-72.8-4.463 1.45-18.72-72.8-9.096 2.955 27.645 69.9.138-.045-4.6 1.495z" transform="matrix(.01538 .00043 -.00165 .02647 225.648 707.512)"/><path stroke-width="4.297" stroke="#000" d="M1422.51 1242.035l57.936 47.893 2.862-3.94-.104.144 57.936 47.892 2.758-3.795 57.936 47.892 2.81-3.869-.052.073 94.707 71.919-.606-.834-34.064-112.912-9.096 2.955 33.853 97.147.606.834-85.295-59.254 2.758-3.796-63.452-40.301 2.758-3.796-63.452-40.3 2.758-3.797-63.451-40.3zM1079.554 1289.928l-2.758-3.796 63.452-40.3-2.758-3.797 63.452-40.3-2.758-3.797 63.452-40.3-2.848-3.92.09.124 21.122-12.63v.393l18.364 16.033 2.758-3.796 57.936 47.892 2.758-3.795 57.936 47.892 5.621-7.737-63.451-40.301 2.758-3.796-63.452-40.3-.053.072 2.81-3.869-23.985-14.343v-.393l-21.228 18.532-2.758-3.796-57.936 47.893-2.758-3.796-57.936 47.892.103.142-2.86-3.938-57.937 47.893.001.001-2.758-3.797-57.936 47.893.105.145z" transform="matrix(.01538 .00043 -.00165 .02647 225.648 707.512)"/><path stroke-width="4.297" stroke="#000" d="M1640.996 1307.394l-4.24 1.377 32.16 92.29.577.793-81.03-56.293 2.62-3.606-60.28-38.285-.1.138 55.039 45.498 2.62-3.606 89.972 68.322-.576-.792-32.36-107.266-4.24 1.377-17.784-69.16-4.321 1.404.081-.026-17.784-69.16-8.641 2.807 26.263 66.405-4.24 1.378z" transform="matrix(.01538 .00043 -.00165 .02647 225.648 707.512)"/><path stroke-width="4.297" stroke="#000" d="M1415.384 1220.024l55.04 45.498 2.62-3.606 55.039 45.498 5.34-7.35-60.279-38.286 2.62-3.607-60.28-38.285-.086.118 2.707-3.724-60.28-38.286-.1.138 55.04 45.498z" transform="matrix(.01538 .00043 -.00165 .02647 225.648 707.512)"/><path stroke-width="4.297" stroke="#000" d="M1360.446 1174.388l-60.28-38.286-.014.02 2.634-3.626L1280 1118.87v-.374l-20.166 17.606-2.62-3.606-55.04 45.498-2.62-3.606-55.039 45.498-2.62-3.606-55.039 45.498.1.138 60.28-38.286-2.62-3.606 60.279-38.286-2.62-3.606 60.28-38.286-2.62-3.606 20.065-11.998v.374l17.446 15.23 2.62-3.606 55.039 45.498z" transform="matrix(.01538 .00043 -.00165 .02647 225.648 707.512)"/><path stroke-width="4.297" stroke="#000" d="M1029.297 1303.808l60.28-38.286-5.341-7.35-55.04 45.497-2.62-3.606-55.038 45.498-2.62-3.606-77.835 59.106-.576.792 28.497-94.46-.162-.052-37.176 106.681.576-.792 92.016-63.924-2.62-3.606 60.28-38.286zM1581.1 1153.328l-4.027 1.309 24.95 63.084-4.027 1.309 24.95 63.085-4.028 1.308 30.553 87.675.547.753-76.979-53.477-.095.131 85.473 64.907-.547-.753-30.742-101.903-4.028 1.309-16.895-65.702-4.158 1.35.13-.042-16.895-65.702-4.027 1.309-16.895-65.702-8.21 2.667z" transform="matrix(.01538 .00043 -.00165 .02647 225.648 707.512)"/><path stroke-width="4.297" stroke="#000" d="M1575.528 1314.948l-57.265-36.371-.095.131 52.287 43.223zM1520.752 1275.15l-57.265-36.37-.096.13 52.288 43.224z" transform="matrix(.01538 .00043 -.00165 .02647 225.648 707.512)"/><path stroke-width="4.297" stroke="#000" d="M1460.902 1242.337l5.074-6.984-57.266-36.37 2.49-3.427-57.266-36.371 2.49-3.426-57.266-36.371 2.49-3.426-21.648-12.945v-.355l-19.158 16.726.095.13L1280 1108.12v.356l16.573 14.469 2.499-3.439-.01.013 52.288 43.223 2.489-3.426 52.287 43.223 2.561-3.525-.072.1z" transform="matrix(.01538 .00043 -.00165 .02647 225.648 707.512)"/><path d="M240.473 740.782l.94-.938-.032-.092.94-.938-.066-.187-.875 1.122-.033-.092-.875 1.121-.033-.091-.876 1.121-.032-.092-.876 1.122-.032-.092-1.23 1.455-.01.02.565-2.365h-.003l-.71 2.667.01-.02 1.444-1.57-.033-.093v.001l.941-.938-.032-.091.94-.938z"/><path stroke-width="4.297" stroke="#000" d="M941.082 1283.423l16.895-65.702 4.027 1.309 16.895-65.702-.154-.05-24.95 63.085 4.027 1.308-24.95 63.085zM1402.275 1179.124l2.365-3.255-54.403-34.553-.064.089 2.43-3.343-54.403-34.553 2.365-3.255-20.565-12.297v-.337l-18.2 15.889-2.365-3.255-49.672 41.062-2.365-3.254-49.673 41.062.09.124 54.402-34.552-2.39-3.291.026.036 54.402-34.553-2.365-3.254 18.11-10.83v.338l15.745 13.746 2.4-3.303-.035.049 49.672 41.062 2.365-3.255 49.673 41.062 2.41-3.317-.046.063 49.673 41.062 2.365-3.255 49.673 41.062 2.41-3.317-.046.062 49.673 41.062 2.365-3.254 81.2 61.66-.52-.714-29.206-96.808-3.964 1.288.138-.045-16.05-62.417-3.826 1.243-16.05-62.416-7.8 2.534 23.703 59.93.073-.024-3.9 1.267 23.704 59.93-3.826 1.244 29.025 83.291.52.715-73.13-50.803-.02.026 2.384-3.28-54.402-34.553 2.365-3.255-54.402-34.553 2.364-3.254zM1103.323 1213.677l-49.673 41.062-2.365-3.255-49.672 41.062.09.125 54.402-34.553-2.364-3.255 54.402-34.553z" transform="matrix(.01538 .00043 -.00165 .02647 225.648 707.512)"/><path stroke-width="4.297" stroke="#000" d="M977.904 1198.17l16.05-62.418 3.827 1.244 16.05-62.417-.147-.048-23.702 59.93 3.826 1.244-23.703 59.93 3.952 1.284-.126-.04-23.702 59.93 3.826 1.243-33.551 96.28.52-.715 83.044-57.692-4.82-6.634-70.245 53.343-.52.715 25.719-85.25 3.825 1.244 16.05-62.417zM1570.626 1177.17l-3.635 1.182 22.517 56.933-3.634 1.181 27.574 79.127.493.68-69.473-48.264 2.246-3.091-51.682-32.826 2.247-3.091-51.682-32.826-.086.119 47.189 39.009 2.246-3.092 47.19 39.009 2.289-3.151-.043.059 77.14 58.578-.494-.68-27.745-91.967-3.635 1.181-15.248-59.296-3.704 1.204.07-.023-15.249-59.296-7.409 2.408zM1114.403 1196.175l-2.246-3.091-47.19 39.008.087.119 51.682-32.825-2.29-3.151.043.059 51.682-32.825-4.579-6.303z" transform="matrix(.01538 .00043 -.00165 .02647 225.648 707.512)"/><path stroke-width="4.297" stroke="#000" d="M1004.483 1117.83l3.634 1.18-22.517 56.934 3.635 1.181-22.518 56.934 7.409 2.407 15.248-59.295-.057-.02 3.692 1.2 15.248-59.296 3.635 1.181 15.247-59.295-.139-.046z" transform="matrix(.01538 .00043 -.00165 .02647 225.648 707.512)"/><path stroke-width="4.297" stroke="#000" d="M938.479 1326.706l.493-.68 78.893-54.806-2.29-3.151.043.059 51.682-32.825-4.579-6.303-47.189 39.01-2.246-3.092-66.734 50.675-.493.68 24.432-80.987-.139-.046zM1559.68 1157.238l-7.038 2.286 21.391 54.088.118-.038-3.57 1.16 26.194 75.17.47.646-66-45.85 2.134-2.938-49.098-31.183-.082.112 44.83 37.058 2.134-2.937 73.282 55.65-.468-.646-26.359-87.37-3.452 1.123z" transform="matrix(.01538 .00043 -.00165 .02647 225.648 707.512)"/><path stroke-width="4.297" stroke="#000" d="M1007.358 1159.524l14.486-56.33-.133-.044-21.391 54.088 3.453 1.122-21.392 54.087 3.453 1.122-30.28 86.893.47-.646 74.947-52.067-2.134-2.937 49.098-31.184-2.134-2.937 49.098-31.184-2.134-2.937 49.098-31.184-2.135-2.937 49.098-31.184-2.134-2.938 49.098-31.183-2.175-2.994.041.056 16.344-9.773v.305l14.21 12.406 2.134-2.938 44.83 37.059 4.35-5.987-49.098-31.184-.06.08 2.194-3.018-18.56-11.098v-.304l-16.426 14.34-2.134-2.938-44.83 37.059-2.133-2.937-44.83 37.058-2.134-2.937-44.83 37.058-2.134-2.937-44.83 37.058-2.134-2.937-44.83 37.059-2.134-2.938-63.396 48.142-.47.646 23.212-76.938 3.453 1.122 14.485-56.331zM1429.373 1157.832l42.589 35.206 2.027-2.79 42.588 35.205 4.133-5.688-46.643-29.625 2.027-2.79-46.643-29.625z" transform="matrix(.01538 .00043 -.00165 .02647 225.648 707.512)"/><path stroke-width="4.297" stroke="#000" d="M1031.346 1087.018l3.28 1.066-20.322 51.383 3.28 1.065-20.322 51.383 3.363 1.093-.082-.027-28.766 82.548.445-.613 71.2-49.463-2.029-2.794.002.003 46.643-29.624-2.027-2.79 46.643-29.625-2.027-2.79 46.643-29.626-2.028-2.79 46.643-29.625-2.066-2.844.039.054 46.643-29.625-4.133-5.688-42.588 35.206-2.027-2.79-42.589 35.205-2.027-2.79-42.588 35.205.039.054-2.066-2.844-42.589 35.205.063.086-2.09-2.876-42.588 35.205-2.028-2.79-60.226 45.735-.446.613 22.05-73.091 3.28 1.066 13.762-53.515-.12-.039 3.4 1.105 13.762-53.514-.063-.021 3.343 1.086 13.761-53.514-.125-.041zM1532.411 1122.584l-3.116 1.012-13.073-50.838-3.117 1.012-13.073-50.839-6.352 2.064 19.306 48.814-3.117 1.012 19.306 48.814-3.116 1.013 19.306 48.814.06-.02-3.177 1.032 23.641 67.841.424.583-59.565-41.38-.074.102 66.138 50.224-.423-.583-23.788-78.85-3.117 1.012z" transform="matrix(.01538 .00043 -.00165 .02647 225.648 707.512)"/><path stroke-width="4.297" stroke="#000" d="M1267.176 1050.299l-1.926-2.65 14.75-8.821v.275l12.824 11.196 1.926-2.65 40.46 33.444 3.925-5.403-44.31-28.144 1.925-2.65-16.75-10.017v-.274l-14.824 12.941-1.926-2.65-40.459 33.445-1.926-2.651-40.459 33.445.049.067-1.975-2.718-40.458 33.446-1.927-2.651-40.458 33.445-1.927-2.65-40.458 33.444.037.051-1.963-2.702-57.216 43.449-.423.582 20.948-69.436 3.116 1.012 13.074-50.839-.12-.038-19.306 48.813 3.117 1.013-27.328 78.42.423-.582 67.64-46.99-1.925-2.651 44.31-28.144-1.994-2.745.068.095 44.311-28.144-1.926-2.65 44.311-28.144-1.926-2.651 44.31-28.144-1.934-2.663.009.013z" transform="matrix(.01538 .00043 -.00165 .02647 225.648 707.512)"/><path stroke-width="4.297" stroke="#000" d="M1334.278 1064.611l38.436 31.773 1.83-2.518 38.436 31.773 1.83-2.519 38.435 31.773 1.83-2.518 38.436 31.773 1.83-2.518 62.83 47.712-.402-.553-22.598-74.909-3.018.98.057-.018-12.42-48.297-2.96.962-12.42-48.297-2.96.962-12.42-48.297-6.034 1.961 18.34 46.373-2.96.962 18.34 46.373-2.96.962 18.34 46.373-2.96.962 22.46 64.45.401.553-56.586-39.31-.035.047 1.865-2.566-42.096-26.737-.062.086 1.892-2.604-42.095-26.736 1.83-2.519-42.096-26.736-.035.048 1.865-2.566-42.095-26.736 1.83-2.519-42.096-26.736 1.83-2.518-15.913-9.516v-.26l-14.083 12.294.07.096 14.013-8.379v.261l12.183 10.637 1.865-2.567-.035.048 38.436 31.773z" transform="matrix(.01538 .00043 -.00165 .02647 225.648 707.512)"/><path d="M239.789 738.618l.049.027-.385 1.218.048.027-.558 1.96.008-.014 1.15-1.152-.026-.067.75-.688-.027-.068.75-.688-.027-.067.75-.688-.055-.138-.696.823-.027-.067-.696.823-.027-.068-.696.823-.027-.067-.978 1.066-.008.015.442-1.737.048.027.288-1.273.048.027.288-1.272.048.026.287-1.272.048.027.288-1.273h-.002l-.384 1.218.049.027-.384 1.219.049.027h-.001z"/><g><path fill="#d8d8d8" stroke-width=".102" stroke="#000" d="M301.657 750.988l-4.859 13.81 11.252-8.695 8.439 8.695-1.278-12.531z" transform="matrix(.71632 -.29377 .25656 .96653 -166.071 98.762)"/><g stroke-width="4.297" stroke="#000"><path d="M1529.61 1396.25l3.387-4.66-77.903-49.479-.13.179 71.13 58.8 3.452-4.75-.065.09 71.13 58.799 6.902-9.5z" transform="matrix(.01474 -.00444 .00535 .02606 223.228 712.971)"/><path d="M1458.48 1337.45l-77.902-49.478 3.386-4.66-77.902-49.48-.13.18 71.13 58.8 3.387-4.661 71.13 58.8zM1027.003 1391.59l-71.13 58.8-3.386-4.66-71.13 58.799.087.12-3.473-4.78-100.59 76.385-.744 1.024 36.828-122.075-.21-.069-48.044 137.87.744-1.024 118.918-82.612-3.386-4.66 77.902-49.48-3.386-4.66 77.902-49.478z" transform="matrix(.01474 -.00444 .00535 .02606 223.228 712.971)"/><path d="M818.944 1456.983l22.984-89.38-.21-.068-33.941 85.82z" transform="matrix(.01474 -.00444 .00535 .02606 223.228 712.971)"/><path d="M870.39 1280.005l5.48 1.78 22.983-89.38 5.48 1.78 22.983-89.379-.14-.045 5.619 1.826 22.984-89.38-.21-.068-33.942 85.819 5.479 1.78-33.942 85.82 5.48 1.78-33.942 85.818 5.687 1.848-.208-.068-33.942 85.82 11.168 3.628zM1794.79 1593.005l-.745-1.025-41.822-138.626-5.478 1.78-22.984-89.379-5.479 1.78-22.984-89.379-5.479 1.78-22.984-89.379-11.167 3.629 33.941 85.819.036-.012-5.514 1.792 33.941 85.818-5.479 1.78 33.941 85.82.106-.034-5.584 1.814 41.563 119.27.744 1.025-104.72-72.75 3.386-4.66-77.902-49.478-.13.178 71.13 58.8 3.386-4.66zM1280 1211.563v-.483l-26.062 22.753-3.386-4.66-71.13 58.799-3.386-4.66-71.13 58.8-3.386-4.661-71.13 58.8.13.178 77.901-49.479-3.386-4.66 77.903-49.479-3.451-4.75.064.09 77.903-49.479-3.386-4.66 25.932-15.507v.483l22.546 19.684 6.902-9.5z" transform="matrix(.01474 -.00444 .00535 .02606 223.228 712.971)"/><path d="M1636.884 1174.567l32.245 81.528.2-.065-21.835-84.91z" transform="matrix(.01474 -.00444 .00535 .02606 223.228 712.971)"/><path d="M1663.924 1257.786l32.244 81.528.2-.065-21.835-84.91z" transform="matrix(.01474 -.00444 .00535 .02606 223.228 712.971)"/><path d="M1701.573 1337.558l-10.61 3.447 32.245 81.528-5.205 1.691 39.485 113.308.707.973-99.484-69.112-.016.022 3.233-4.45-74.008-47.004-.061.085 3.278-4.513-74.007-47.004-.123.17 67.573 55.859 3.217-4.427 67.574 55.86 3.216-4.428 110.463 83.882-.707-.973-39.73-131.695-5.206 1.691zM1520.347 1362.101l-74.007-47.005-.124.17 67.574 55.86z" transform="matrix(.01474 -.00444 .00535 .02606 223.228 712.971)"/><path d="M1449.556 1310.669l-74.007-47.005-.123.17 67.573 55.86z" transform="matrix(.01474 -.00444 .00535 .02606 223.228 712.971)"/><path d="M1378.766 1259.237l-74.007-47.005-.123.17 67.573 55.86zM1252.024 1207.804l-67.573 55.86.045.062-3.262-4.49-67.574 55.86-3.217-4.427-67.573 55.86.077.105-3.294-4.533-67.574 55.86-3.216-4.428-67.574 55.86.09.123-3.307-4.55-95.56 72.566-.707.973 34.987-115.972 5.205 1.691 21.835-84.91-.2-.065-32.244 81.528 5.369 1.745-.164-.054-45.643 130.977.707-.973 112.972-78.482-3.217-4.427 74.007-47.005-3.306-4.55.09.122 74.007-47.004-3.217-4.428 74.007-47.004-3.334-4.59.118.162 74.007-47.005-3.217-4.427 74.007-47.005z" transform="matrix(.01474 -.00444 .00535 .02606 223.228 712.971)"/><path d="M890.871 1256.095l5.205 1.691 21.835-84.91 5.204 1.691 21.835-84.91-.2-.065-32.244 81.528 5.205 1.691-32.244 81.528 5.205 1.691-32.245 81.528 10.61 3.447zM1569.351 1391.52l6.23-8.573-70.307-44.654 3.056-4.206-70.307-44.655 3.056-4.206-70.307-44.654-.059.08 3.115-4.286-70.307-44.655 3.056-4.206-26.577-15.892v-.437l-23.521 20.535-3.056-4.206-64.195 53.066-3.056-4.205-64.195 53.066-3.056-4.206-64.195 53.067.035.048-3.09-4.254-64.196 53.066.118.162 70.306-44.655-3.055-4.206 70.306-44.654-3.152-4.34.096.133 70.307-44.654-3.056-4.206 70.307-44.655-3.097-4.262.041.056 23.404-13.994v.436l20.348 17.764 3.056-4.206 64.195 53.067 3.056-4.206 64.195 53.067 3.056-4.207 64.195 53.067 3.114-4.287-.058.081z" transform="matrix(.01474 -.00444 .00535 .02606 223.228 712.971)"/><path d="M984.42 1382.947l-64.195 53.067.058.08-3.114-4.286-90.783 68.938-.671.924 33.237-110.173-.094-.03 5.039 1.637 20.743-80.665 4.945 1.607 20.743-80.665 4.944 1.606 20.743-80.664-.19-.062-30.632 77.452 4.945 1.606-30.632 77.452 5.064 1.645-.12-.038-30.632 77.451 4.945 1.607-43.36 124.427.671-.924 107.324-74.558-3.056-4.206 70.307-44.654zM1655.772 1286.85l-19.706-76.632-4.697 1.526-19.706-76.631-4.697 1.526-19.706-76.632-9.575 3.111 29.1 73.58-4.697 1.526 29.1 73.579-4.697 1.526 29.1 73.579-4.696 1.526 29.1 73.58.18-.06-19.706-76.63zM1496.913 1307.473l-66.791-42.422-.112.154 60.986 50.413zM1366.122 1218.787l60.985 50.413 5.918-8.145-66.792-42.421 2.904-3.996-66.792-42.422-.111.153 60.985 50.414zM1190.863 1214.638l-60.985 50.413-2.903-3.995-60.985 50.413.111.153 66.792-42.422-2.903-3.995 66.791-42.422z" transform="matrix(.01474 -.00444 .00535 .02606 223.228 712.971)"/><path d="M1002.213 1358.04l66.791-42.422-5.917-8.145-60.985 50.414zM904.228 1286.85l-29.1 73.578 4.697 1.527-41.192 118.206.638-.878 101.957-70.83-2.903-3.996 66.791-42.422-5.918-8.144-60.985 50.413-2.903-3.996-86.243 65.491-.638.878 31.576-104.664 4.697 1.526 19.706-76.631z" transform="matrix(.01474 -.00444 .00535 .02606 223.228 712.971)"/><path d="M928.811 1211.803l-.18-.059-29.1 73.58 9.574 3.11zM1675.298 1363.54l35.635 102.26.638.878-89.784-62.374 2.903-3.996-66.792-42.421 2.903-3.996-66.791-42.422-.111.153 60.985 50.413 2.958-4.072-.055.077 60.985 50.413 2.903-3.996 99.692 75.704-.638-.878-35.856-118.855zM1659.995 1334.003l.171-.055-18.72-72.8-4.463 1.45-18.72-72.8-9.096 2.955 27.645 69.9.138-.045-4.6 1.495z" transform="matrix(.01474 -.00444 .00535 .02606 223.228 712.971)"/><path d="M1422.51 1242.035l57.936 47.893 2.862-3.94-.104.144 57.936 47.892 2.758-3.795 57.936 47.892 2.81-3.869-.052.073 94.707 71.919-.606-.834-34.064-112.912-9.096 2.955 33.853 97.147.606.834-85.295-59.254 2.758-3.796-63.452-40.301 2.758-3.796-63.452-40.3 2.758-3.797-63.451-40.3zM1079.554 1289.928l-2.758-3.796 63.452-40.3-2.758-3.797 63.452-40.3-2.758-3.797 63.452-40.3-2.848-3.92.09.124 21.122-12.63v.393l18.364 16.033 2.758-3.796 57.936 47.892 2.758-3.795 57.936 47.892 5.621-7.737-63.451-40.301 2.758-3.796-63.452-40.3-.053.072 2.81-3.869-23.985-14.343v-.393l-21.228 18.532-2.758-3.796-57.936 47.893-2.758-3.796-57.936 47.892.103.142-2.86-3.938-57.937 47.893.001.001-2.758-3.797-57.936 47.893.105.145z" transform="matrix(.01474 -.00444 .00535 .02606 223.228 712.971)"/><path d="M1640.996 1307.394l-4.24 1.377 32.16 92.29.577.793-81.03-56.293 2.62-3.606-60.28-38.285-.1.138 55.039 45.498 2.62-3.606 89.972 68.322-.576-.792-32.36-107.266-4.24 1.377-17.784-69.16-4.321 1.404.081-.026-17.784-69.16-8.641 2.807 26.263 66.405-4.24 1.378z" transform="matrix(.01474 -.00444 .00535 .02606 223.228 712.971)"/><path d="M1415.384 1220.024l55.04 45.498 2.62-3.606 55.039 45.498 5.34-7.35-60.279-38.286 2.62-3.607-60.28-38.285-.086.118 2.707-3.724-60.28-38.286-.1.138 55.04 45.498z" transform="matrix(.01474 -.00444 .00535 .02606 223.228 712.971)"/><path d="M1360.446 1174.388l-60.28-38.286-.014.02 2.634-3.626L1280 1118.87v-.374l-20.166 17.606-2.62-3.606-55.04 45.498-2.62-3.606-55.039 45.498-2.62-3.606-55.039 45.498.1.138 60.28-38.286-2.62-3.606 60.279-38.286-2.62-3.606 60.28-38.286-2.62-3.606 20.065-11.998v.374l17.446 15.23 2.62-3.606 55.039 45.498z" transform="matrix(.01474 -.00444 .00535 .02606 223.228 712.971)"/><path d="M1029.297 1303.808l60.28-38.286-5.341-7.35-55.04 45.497-2.62-3.606-55.038 45.498-2.62-3.606-77.835 59.106-.576.792 28.497-94.46-.162-.052-37.176 106.681.576-.792 92.016-63.924-2.62-3.606 60.28-38.286zM1581.1 1153.328l-4.027 1.309 24.95 63.084-4.027 1.309 24.95 63.085-4.028 1.308 30.553 87.675.547.753-76.979-53.477-.095.131 85.473 64.907-.547-.753-30.742-101.903-4.028 1.309-16.895-65.702-4.158 1.35.13-.042-16.895-65.702-4.027 1.309-16.895-65.702-8.21 2.667z" transform="matrix(.01474 -.00444 .00535 .02606 223.228 712.971)"/><path d="M1575.528 1314.948l-57.265-36.371-.095.131 52.287 43.223zM1520.752 1275.15l-57.265-36.37-.096.13 52.288 43.224z" transform="matrix(.01474 -.00444 .00535 .02606 223.228 712.971)"/><path d="M1460.902 1242.337l5.074-6.984-57.266-36.37 2.49-3.427-57.266-36.371 2.49-3.426-57.266-36.371 2.49-3.426-21.648-12.945v-.355l-19.158 16.726.095.13L1280 1108.12v.356l16.573 14.469 2.499-3.439-.01.013 52.288 43.223 2.489-3.426 52.287 43.223 2.561-3.525-.072.1zM1096.609 1238.91l57.265-36.37-2.49-3.427 57.266-36.37-5.073-6.984-52.288 43.223.023.032-2.512-3.458-52.287 43.223-2.489-3.426-52.287 43.224-2.49-3.426-52.286 43.223-2.49-3.426-73.942 56.15-.547.753 27.072-89.736-.154-.05-35.317 101.347.547-.753 87.415-60.728-2.521-3.47.032.044 57.265-36.371-2.489-3.426 57.266-36.371z" transform="matrix(.01474 -.00444 .00535 .02606 223.228 712.971)"/><path d="M941.082 1283.423l16.895-65.702 4.027 1.309 16.895-65.702-.154-.05-24.95 63.085 4.027 1.308-24.95 63.085zM1402.275 1179.124l2.365-3.255-54.403-34.553-.064.089 2.43-3.343-54.403-34.553 2.365-3.255-20.565-12.297v-.337l-18.2 15.889-2.365-3.255-49.672 41.062-2.365-3.254-49.673 41.062.09.124 54.402-34.552-2.39-3.291.026.036 54.402-34.553-2.365-3.254 18.11-10.83v.338l15.745 13.746 2.4-3.303-.035.049 49.672 41.062 2.365-3.255 49.673 41.062 2.41-3.317-.046.063 49.673 41.062 2.365-3.255 49.673 41.062 2.41-3.317-.046.062 49.673 41.062 2.365-3.254 81.2 61.66-.52-.714-29.206-96.808-3.964 1.288.138-.045-16.05-62.417-3.826 1.243-16.05-62.416-7.8 2.534 23.703 59.93.073-.024-3.9 1.267 23.704 59.93-3.826 1.244 29.025 83.291.52.715-73.13-50.803-.02.026 2.384-3.28-54.402-34.553 2.365-3.255-54.402-34.553 2.364-3.254zM1103.323 1213.677l-49.673 41.062-2.365-3.255-49.672 41.062.09.125 54.402-34.553-2.364-3.255 54.402-34.553z" transform="matrix(.01474 -.00444 .00535 .02606 223.228 712.971)"/><path d="M977.904 1198.17l16.05-62.418 3.827 1.244 16.05-62.417-.147-.048-23.702 59.93 3.826 1.244-23.703 59.93 3.952 1.284-.126-.04-23.702 59.93 3.826 1.243-33.551 96.28.52-.715 83.044-57.692-4.82-6.634-70.245 53.343-.52.715 25.719-85.25 3.825 1.244 16.05-62.417zM1570.626 1177.17l-3.635 1.182 22.517 56.933-3.634 1.181 27.574 79.127.493.68-69.473-48.264 2.246-3.091-51.682-32.826 2.247-3.091-51.682-32.826-.086.119 47.189 39.009 2.246-3.092 47.19 39.009 2.289-3.151-.043.059 77.14 58.578-.494-.68-27.745-91.967-3.635 1.181-15.248-59.296-3.704 1.204.07-.023-15.249-59.296-7.409 2.408zM1114.403 1196.175l-2.246-3.091-47.19 39.008.087.119 51.682-32.825-2.29-3.151.043.059 51.682-32.825-4.579-6.303z" transform="matrix(.01474 -.00444 .00535 .02606 223.228 712.971)"/><path d="M1004.483 1117.83l3.634 1.18-22.517 56.934 3.635 1.181-22.518 56.934 7.409 2.407 15.248-59.295-.057-.02 3.692 1.2 15.248-59.296 3.635 1.181 15.247-59.295-.139-.046z" transform="matrix(.01474 -.00444 .00535 .02606 223.228 712.971)"/><path d="M938.479 1326.706l.493-.68 78.893-54.806-2.29-3.151.043.059 51.682-32.825-4.579-6.303-47.189 39.01-2.246-3.092-66.734 50.675-.493.68 24.432-80.987-.139-.046zM1559.68 1157.238l-7.038 2.286 21.391 54.088.118-.038-3.57 1.16 26.194 75.17.47.646-66-45.85 2.134-2.938-49.098-31.183-.082.112 44.83 37.058 2.134-2.937 73.282 55.65-.468-.646-26.359-87.37-3.452 1.123z" transform="matrix(.01474 -.00444 .00535 .02606 223.228 712.971)"/><path d="M1007.358 1159.524l14.486-56.33-.133-.044-21.391 54.088 3.453 1.122-21.392 54.087 3.453 1.122-30.28 86.893.47-.646 74.947-52.067-2.134-2.937 49.098-31.184-2.134-2.937 49.098-31.184-2.134-2.937 49.098-31.184-2.135-2.937 49.098-31.184-2.134-2.938 49.098-31.183-2.175-2.994.041.056 16.344-9.773v.305l14.21 12.406 2.134-2.938 44.83 37.059 4.35-5.987-49.098-31.184-.06.08 2.194-3.018-18.56-11.098v-.304l-16.426 14.34-2.134-2.938-44.83 37.059-2.133-2.937-44.83 37.058-2.134-2.937-44.83 37.058-2.134-2.937-44.83 37.058-2.134-2.937-44.83 37.059-2.134-2.938-63.396 48.142-.47.646 23.212-76.938 3.453 1.122 14.485-56.331zM1429.373 1157.832l42.589 35.206 2.027-2.79 42.588 35.205 4.133-5.688-46.643-29.625 2.027-2.79-46.643-29.625z" transform="matrix(.01474 -.00444 .00535 .02606 223.228 712.971)"/><path d="M1031.346 1087.018l3.28 1.066-20.322 51.383 3.28 1.065-20.322 51.383 3.363 1.093-.082-.027-28.766 82.548.445-.613 71.2-49.463-2.029-2.794.002.003 46.643-29.624-2.027-2.79 46.643-29.625-2.027-2.79 46.643-29.626-2.028-2.79 46.643-29.625-2.066-2.844.039.054 46.643-29.625-4.133-5.688-42.588 35.206-2.027-2.79-42.589 35.205-2.027-2.79-42.588 35.205.039.054-2.066-2.844-42.589 35.205.063.086-2.09-2.876-42.588 35.205-2.028-2.79-60.226 45.735-.446.613 22.05-73.091 3.28 1.066 13.762-53.515-.12-.039 3.4 1.105 13.762-53.514-.063-.021 3.343 1.086 13.761-53.514-.125-.041zM1532.411 1122.584l-3.116 1.012-13.073-50.838-3.117 1.012-13.073-50.839-6.352 2.064 19.306 48.814-3.117 1.012 19.306 48.814-3.116 1.013 19.306 48.814.06-.02-3.177 1.032 23.641 67.841.424.583-59.565-41.38-.074.102 66.138 50.224-.423-.583-23.788-78.85-3.117 1.012z" transform="matrix(.01474 -.00444 .00535 .02606 223.228 712.971)"/><path d="M1267.176 1050.299l-1.926-2.65 14.75-8.821v.275l12.824 11.196 1.926-2.65 40.46 33.444 3.925-5.403-44.31-28.144 1.925-2.65-16.75-10.017v-.274l-14.824 12.941-1.926-2.65-40.459 33.445-1.926-2.651-40.459 33.445.049.067-1.975-2.718-40.458 33.446-1.927-2.651-40.458 33.445-1.927-2.65-40.458 33.444.037.051-1.963-2.702-57.216 43.449-.423.582 20.948-69.436 3.116 1.012 13.074-50.839-.12-.038-19.306 48.813 3.117 1.013-27.328 78.42.423-.582 67.64-46.99-1.925-2.651 44.31-28.144-1.994-2.745.068.095 44.311-28.144-1.926-2.65 44.311-28.144-1.926-2.651 44.31-28.144-1.934-2.663.009.013z" transform="matrix(.01474 -.00444 .00535 .02606 223.228 712.971)"/><path d="M1334.278 1064.611l38.436 31.773 1.83-2.518 38.436 31.773 1.83-2.519 38.435 31.773 1.83-2.518 38.436 31.773 1.83-2.518 62.83 47.712-.402-.553-22.598-74.909-3.018.98.057-.018-12.42-48.297-2.96.962-12.42-48.297-2.96.962-12.42-48.297-6.034 1.961 18.34 46.373-2.96.962 18.34 46.373-2.96.962 18.34 46.373-2.96.962 22.46 64.45.401.553-56.586-39.31-.035.047 1.865-2.566-42.096-26.737-.062.086 1.892-2.604-42.095-26.736 1.83-2.519-42.096-26.736-.035.048 1.865-2.566-42.095-26.736 1.83-2.519-42.096-26.736 1.83-2.518-15.913-9.516v-.26l-14.083 12.294.07.096 14.013-8.379v.261l12.183 10.637 1.865-2.567-.035.048 38.436 31.773zM1056.645 1158.019l3.017.98-.056-.018-18.341 46.373 2.961.962-25.962 74.499.403-.553 64.258-44.641-1.83-2.518 42.095-26.736-1.843-2.537.014.018 42.095-26.736-1.83-2.518 42.095-26.737-3.729-5.133-38.436 31.773-1.829-2.518-38.436 31.773-1.83-2.519-38.436 31.773-1.83-2.518-54.354 41.276-.403.553 19.901-65.964-.057-.019 3.018.98 12.419-48.297 2.961.962 12.419-48.297 2.961.962 12.419-48.297 2.961.962 12.419-48.297-.113-.036-18.341 46.373 2.961.962-18.341 46.373 3.017.98-.056-.018z" transform="matrix(.01474 -.00444 .00535 .02606 223.228 712.971)"/></g></g><g><path fill="#d8d8d8" stroke-width=".102" stroke="#000" d="M301.657 750.988l-4.859 13.81 11.252-8.695 8.439 8.695-1.278-12.531z" transform="matrix(.70476 -.33886 .59685 .80235 -414.418 235.86)"/><g stroke-width="4.34" stroke="#000"><path d="M1529.61 1396.25l3.387-4.66-77.903-49.479-.13.179 71.13 58.8 3.452-4.75-.065.09 71.13 58.799 6.902-9.5z" transform="matrix(.01501 -.00559 .01435 .02182 217.294 718.68)"/><path d="M1458.48 1337.45l-77.902-49.478 3.386-4.66-77.902-49.48-.13.18 71.13 58.8 3.387-4.661 71.13 58.8zM1027.003 1391.59l-71.13 58.8-3.386-4.66-71.13 58.799.087.12-3.473-4.78-100.59 76.385-.744 1.024 36.828-122.075-.21-.069-48.044 137.87.744-1.024 118.918-82.612-3.386-4.66 77.902-49.48-3.386-4.66 77.902-49.478z" transform="matrix(.01501 -.00559 .01435 .02182 217.294 718.68)"/><path d="M818.944 1456.983l22.984-89.38-.21-.068-33.941 85.82z" transform="matrix(.01501 -.00559 .01435 .02182 217.294 718.68)"/><path d="M870.39 1280.005l5.48 1.78 22.983-89.38 5.48 1.78 22.983-89.379-.14-.045 5.619 1.826 22.984-89.38-.21-.068-33.942 85.819 5.479 1.78-33.942 85.82 5.48 1.78-33.942 85.818 5.687 1.848-.208-.068-33.942 85.82 11.168 3.628zM1794.79 1593.005l-.745-1.025-41.822-138.626-5.478 1.78-22.984-89.379-5.479 1.78-22.984-89.379-5.479 1.78-22.984-89.379-11.167 3.629 33.941 85.819.036-.012-5.514 1.792 33.941 85.818-5.479 1.78 33.941 85.82.106-.034-5.584 1.814 41.563 119.27.744 1.025-104.72-72.75 3.386-4.66-77.902-49.478-.13.178 71.13 58.8 3.386-4.66zM1280 1211.563v-.483l-26.062 22.753-3.386-4.66-71.13 58.799-3.386-4.66-71.13 58.8-3.386-4.661-71.13 58.8.13.178 77.901-49.479-3.386-4.66 77.903-49.479-3.451-4.75.064.09 77.903-49.479-3.386-4.66 25.932-15.507v.483l22.546 19.684 6.902-9.5z" transform="matrix(.01501 -.00559 .01435 .02182 217.294 718.68)"/><path d="M1636.884 1174.567l32.245 81.528.2-.065-21.835-84.91z" transform="matrix(.01501 -.00559 .01435 .02182 217.294 718.68)"/><path d="M1663.924 1257.786l32.244 81.528.2-.065-21.835-84.91z" transform="matrix(.01501 -.00559 .01435 .02182 217.294 718.68)"/><path d="M1701.573 1337.558l-10.61 3.447 32.245 81.528-5.205 1.691 39.485 113.308.707.973-99.484-69.112-.016.022 3.233-4.45-74.008-47.004-.061.085 3.278-4.513-74.007-47.004-.123.17 67.573 55.859 3.217-4.427 67.574 55.86 3.216-4.428 110.463 83.882-.707-.973-39.73-131.695-5.206 1.691zM1520.347 1362.101l-74.007-47.005-.124.17 67.574 55.86z" transform="matrix(.01501 -.00559 .01435 .02182 217.294 718.68)"/><path d="M1449.556 1310.669l-74.007-47.005-.123.17 67.573 55.86z" transform="matrix(.01501 -.00559 .01435 .02182 217.294 718.68)"/><path d="M1378.766 1259.237l-74.007-47.005-.123.17 67.573 55.86zM1252.024 1207.804l-67.573 55.86.045.062-3.262-4.49-67.574 55.86-3.217-4.427-67.573 55.86.077.105-3.294-4.533-67.574 55.86-3.216-4.428-67.574 55.86.09.123-3.307-4.55-95.56 72.566-.707.973 34.987-115.972 5.205 1.691 21.835-84.91-.2-.065-32.244 81.528 5.369 1.745-.164-.054-45.643 130.977.707-.973 112.972-78.482-3.217-4.427 74.007-47.005-3.306-4.55.09.122 74.007-47.004-3.217-4.428 74.007-47.004-3.334-4.59.118.162 74.007-47.005-3.217-4.427 74.007-47.005z" transform="matrix(.01501 -.00559 .01435 .02182 217.294 718.68)"/><path d="M890.871 1256.095l5.205 1.691 21.835-84.91 5.204 1.691 21.835-84.91-.2-.065-32.244 81.528 5.205 1.691-32.244 81.528 5.205 1.691-32.245 81.528 10.61 3.447zM1569.351 1391.52l6.23-8.573-70.307-44.654 3.056-4.206-70.307-44.655 3.056-4.206-70.307-44.654-.059.08 3.115-4.286-70.307-44.655 3.056-4.206-26.577-15.892v-.437l-23.521 20.535-3.056-4.206-64.195 53.066-3.056-4.205-64.195 53.066-3.056-4.206-64.195 53.067.035.048-3.09-4.254-64.196 53.066.118.162 70.306-44.655-3.055-4.206 70.306-44.654-3.152-4.34.096.133 70.307-44.654-3.056-4.206 70.307-44.655-3.097-4.262.041.056 23.404-13.994v.436l20.348 17.764 3.056-4.206 64.195 53.067 3.056-4.206 64.195 53.067 3.056-4.207 64.195 53.067 3.114-4.287-.058.081z" transform="matrix(.01501 -.00559 .01435 .02182 217.294 718.68)"/><path d="M984.42 1382.947l-64.195 53.067.058.08-3.114-4.286-90.783 68.938-.671.924 33.237-110.173-.094-.03 5.039 1.637 20.743-80.665 4.945 1.607 20.743-80.665 4.944 1.606 20.743-80.664-.19-.062-30.632 77.452 4.945 1.606-30.632 77.452 5.064 1.645-.12-.038-30.632 77.451 4.945 1.607-43.36 124.427.671-.924 107.324-74.558-3.056-4.206 70.307-44.654zM1655.772 1286.85l-19.706-76.632-4.697 1.526-19.706-76.631-4.697 1.526-19.706-76.632-9.575 3.111 29.1 73.58-4.697 1.526 29.1 73.579-4.697 1.526 29.1 73.579-4.696 1.526 29.1 73.58.18-.06-19.706-76.63zM1496.913 1307.473l-66.791-42.422-.112.154 60.986 50.413zM1366.122 1218.787l60.985 50.413 5.918-8.145-66.792-42.421 2.904-3.996-66.792-42.422-.111.153 60.985 50.414zM1190.863 1214.638l-60.985 50.413-2.903-3.995-60.985 50.413.111.153 66.792-42.422-2.903-3.995 66.791-42.422z" transform="matrix(.01501 -.00559 .01435 .02182 217.294 718.68)"/><path d="M1002.213 1358.04l66.791-42.422-5.917-8.145-60.985 50.414zM904.228 1286.85l-29.1 73.578 4.697 1.527-41.192 118.206.638-.878 101.957-70.83-2.903-3.996 66.791-42.422-5.918-8.144-60.985 50.413-2.903-3.996-86.243 65.491-.638.878 31.576-104.664 4.697 1.526 19.706-76.631z" transform="matrix(.01501 -.00559 .01435 .02182 217.294 718.68)"/><path d="M928.811 1211.803l-.18-.059-29.1 73.58 9.574 3.11zM1675.298 1363.54l35.635 102.26.638.878-89.784-62.374 2.903-3.996-66.792-42.421 2.903-3.996-66.791-42.422-.111.153 60.985 50.413 2.958-4.072-.055.077 60.985 50.413 2.903-3.996 99.692 75.704-.638-.878-35.856-118.855zM1659.995 1334.003l.171-.055-18.72-72.8-4.463 1.45-18.72-72.8-9.096 2.955 27.645 69.9.138-.045-4.6 1.495z" transform="matrix(.01501 -.00559 .01435 .02182 217.294 718.68)"/><path d="M1422.51 1242.035l57.936 47.893 2.862-3.94-.104.144 57.936 47.892 2.758-3.795 57.936 47.892 2.81-3.869-.052.073 94.707 71.919-.606-.834-34.064-112.912-9.096 2.955 33.853 97.147.606.834-85.295-59.254 2.758-3.796-63.452-40.301 2.758-3.796-63.452-40.3 2.758-3.797-63.451-40.3zM1079.554 1289.928l-2.758-3.796 63.452-40.3-2.758-3.797 63.452-40.3-2.758-3.797 63.452-40.3-2.848-3.92.09.124 21.122-12.63v.393l18.364 16.033 2.758-3.796 57.936 47.892 2.758-3.795 57.936 47.892 5.621-7.737-63.451-40.301 2.758-3.796-63.452-40.3-.053.072 2.81-3.869-23.985-14.343v-.393l-21.228 18.532-2.758-3.796-57.936 47.893-2.758-3.796-57.936 47.892.103.142-2.86-3.938-57.937 47.893.001.001-2.758-3.797-57.936 47.893.105.145z" transform="matrix(.01501 -.00559 .01435 .02182 217.294 718.68)"/><path d="M1640.996 1307.394l-4.24 1.377 32.16 92.29.577.793-81.03-56.293 2.62-3.606-60.28-38.285-.1.138 55.039 45.498 2.62-3.606 89.972 68.322-.576-.792-32.36-107.266-4.24 1.377-17.784-69.16-4.321 1.404.081-.026-17.784-69.16-8.641 2.807 26.263 66.405-4.24 1.378z" transform="matrix(.01501 -.00559 .01435 .02182 217.294 718.68)"/><path d="M1415.384 1220.024l55.04 45.498 2.62-3.606 55.039 45.498 5.34-7.35-60.279-38.286 2.62-3.607-60.28-38.285-.086.118 2.707-3.724-60.28-38.286-.1.138 55.04 45.498z" transform="matrix(.01501 -.00559 .01435 .02182 217.294 718.68)"/><path d="M1360.446 1174.388l-60.28-38.286-.014.02 2.634-3.626L1280 1118.87v-.374l-20.166 17.606-2.62-3.606-55.04 45.498-2.62-3.606-55.039 45.498-2.62-3.606-55.039 45.498.1.138 60.28-38.286-2.62-3.606 60.279-38.286-2.62-3.606 60.28-38.286-2.62-3.606 20.065-11.998v.374l17.446 15.23 2.62-3.606 55.039 45.498z" transform="matrix(.01501 -.00559 .01435 .02182 217.294 718.68)"/><path d="M1029.297 1303.808l60.28-38.286-5.341-7.35-55.04 45.497-2.62-3.606-55.038 45.498-2.62-3.606-77.835 59.106-.576.792 28.497-94.46-.162-.052-37.176 106.681.576-.792 92.016-63.924-2.62-3.606 60.28-38.286zM1581.1 1153.328l-4.027 1.309 24.95 63.084-4.027 1.309 24.95 63.085-4.028 1.308 30.553 87.675.547.753-76.979-53.477-.095.131 85.473 64.907-.547-.753-30.742-101.903-4.028 1.309-16.895-65.702-4.158 1.35.13-.042-16.895-65.702-4.027 1.309-16.895-65.702-8.21 2.667z" transform="matrix(.01501 -.00559 .01435 .02182 217.294 718.68)"/><path d="M1575.528 1314.948l-57.265-36.371-.095.131 52.287 43.223zM1520.752 1275.15l-57.265-36.37-.096.13 52.288 43.224z" transform="matrix(.01501 -.00559 .01435 .02182 217.294 718.68)"/><path d="M1460.902 1242.337l5.074-6.984-57.266-36.37 2.49-3.427-57.266-36.371 2.49-3.426-57.266-36.371 2.49-3.426-21.648-12.945v-.355l-19.158 16.726.095.13L1280 1108.12v.356l16.573 14.469 2.499-3.439-.01.013 52.288 43.223 2.489-3.426 52.287 43.223 2.561-3.525-.072.1zM1096.609 1238.91l57.265-36.37-2.49-3.427 57.266-36.37-5.073-6.984-52.288 43.223.023.032-2.512-3.458-52.287 43.223-2.489-3.426-52.287 43.224-2.49-3.426-52.286 43.223-2.49-3.426-73.942 56.15-.547.753 27.072-89.736-.154-.05-35.317 101.347.547-.753 87.415-60.728-2.521-3.47.032.044 57.265-36.371-2.489-3.426 57.266-36.371z" transform="matrix(.01501 -.00559 .01435 .02182 217.294 718.68)"/><path d="M941.082 1283.423l16.895-65.702 4.027 1.309 16.895-65.702-.154-.05-24.95 63.085 4.027 1.308-24.95 63.085zM1402.275 1179.124l2.365-3.255-54.403-34.553-.064.089 2.43-3.343-54.403-34.553 2.365-3.255-20.565-12.297v-.337l-18.2 15.889-2.365-3.255-49.672 41.062-2.365-3.254-49.673 41.062.09.124 54.402-34.552-2.39-3.291.026.036 54.402-34.553-2.365-3.254 18.11-10.83v.338l15.745 13.746 2.4-3.303-.035.049 49.672 41.062 2.365-3.255 49.673 41.062 2.41-3.317-.046.063 49.673 41.062 2.365-3.255 49.673 41.062 2.41-3.317-.046.062 49.673 41.062 2.365-3.254 81.2 61.66-.52-.714-29.206-96.808-3.964 1.288.138-.045-16.05-62.417-3.826 1.243-16.05-62.416-7.8 2.534 23.703 59.93.073-.024-3.9 1.267 23.704 59.93-3.826 1.244 29.025 83.291.52.715-73.13-50.803-.02.026 2.384-3.28-54.402-34.553 2.365-3.255-54.402-34.553 2.364-3.254zM1103.323 1213.677l-49.673 41.062-2.365-3.255-49.672 41.062.09.125 54.402-34.553-2.364-3.255 54.402-34.553z" transform="matrix(.01501 -.00559 .01435 .02182 217.294 718.68)"/><path d="M977.904 1198.17l16.05-62.418 3.827 1.244 16.05-62.417-.147-.048-23.702 59.93 3.826 1.244-23.703 59.93 3.952 1.284-.126-.04-23.702 59.93 3.826 1.243-33.551 96.28.52-.715 83.044-57.692-4.82-6.634-70.245 53.343-.52.715 25.719-85.25 3.825 1.244 16.05-62.417zM1570.626 1177.17l-3.635 1.182 22.517 56.933-3.634 1.181 27.574 79.127.493.68-69.473-48.264 2.246-3.091-51.682-32.826 2.247-3.091-51.682-32.826-.086.119 47.189 39.009 2.246-3.092 47.19 39.009 2.289-3.151-.043.059 77.14 58.578-.494-.68-27.745-91.967-3.635 1.181-15.248-59.296-3.704 1.204.07-.023-15.249-59.296-7.409 2.408zM1114.403 1196.175l-2.246-3.091-47.19 39.008.087.119 51.682-32.825-2.29-3.151.043.059 51.682-32.825-4.579-6.303z" transform="matrix(.01501 -.00559 .01435 .02182 217.294 718.68)"/><path d="M1004.483 1117.83l3.634 1.18-22.517 56.934 3.635 1.181-22.518 56.934 7.409 2.407 15.248-59.295-.057-.02 3.692 1.2 15.248-59.296 3.635 1.181 15.247-59.295-.139-.046z" transform="matrix(.01501 -.00559 .01435 .02182 217.294 718.68)"/><path d="M938.479 1326.706l.493-.68 78.893-54.806-2.29-3.151.043.059 51.682-32.825-4.579-6.303-47.189 39.01-2.246-3.092-66.734 50.675-.493.68 24.432-80.987-.139-.046zM1559.68 1157.238l-7.038 2.286 21.391 54.088.118-.038-3.57 1.16 26.194 75.17.47.646-66-45.85 2.134-2.938-49.098-31.183-.082.112 44.83 37.058 2.134-2.937 73.282 55.65-.468-.646-26.359-87.37-3.452 1.123z" transform="matrix(.01501 -.00559 .01435 .02182 217.294 718.68)"/><path d="M1007.358 1159.524l14.486-56.33-.133-.044-21.391 54.088 3.453 1.122-21.392 54.087 3.453 1.122-30.28 86.893.47-.646 74.947-52.067-2.134-2.937 49.098-31.184-2.134-2.937 49.098-31.184-2.134-2.937 49.098-31.184-2.135-2.937 49.098-31.184-2.134-2.938 49.098-31.183-2.175-2.994.041.056 16.344-9.773v.305l14.21 12.406 2.134-2.938 44.83 37.059 4.35-5.987-49.098-31.184-.06.08 2.194-3.018-18.56-11.098v-.304l-16.426 14.34-2.134-2.938-44.83 37.059-2.133-2.937-44.83 37.058-2.134-2.937-44.83 37.058-2.134-2.937-44.83 37.058-2.134-2.937-44.83 37.059-2.134-2.938-63.396 48.142-.47.646 23.212-76.938 3.453 1.122 14.485-56.331zM1429.373 1157.832l42.589 35.206 2.027-2.79 42.588 35.205 4.133-5.688-46.643-29.625 2.027-2.79-46.643-29.625z" transform="matrix(.01501 -.00559 .01435 .02182 217.294 718.68)"/><path d="M1031.346 1087.018l3.28 1.066-20.322 51.383 3.28 1.065-20.322 51.383 3.363 1.093-.082-.027-28.766 82.548.445-.613 71.2-49.463-2.029-2.794.002.003 46.643-29.624-2.027-2.79 46.643-29.625-2.027-2.79 46.643-29.626-2.028-2.79 46.643-29.625-2.066-2.844.039.054 46.643-29.625-4.133-5.688-42.588 35.206-2.027-2.79-42.589 35.205-2.027-2.79-42.588 35.205.039.054-2.066-2.844-42.589 35.205.063.086-2.09-2.876-42.588 35.205-2.028-2.79-60.226 45.735-.446.613 22.05-73.091 3.28 1.066 13.762-53.515-.12-.039 3.4 1.105 13.762-53.514-.063-.021 3.343 1.086 13.761-53.514-.125-.041zM1532.411 1122.584l-3.116 1.012-13.073-50.838-3.117 1.012-13.073-50.839-6.352 2.064 19.306 48.814-3.117 1.012 19.306 48.814-3.116 1.013 19.306 48.814.06-.02-3.177 1.032 23.641 67.841.424.583-59.565-41.38-.074.102 66.138 50.224-.423-.583-23.788-78.85-3.117 1.012z" transform="matrix(.01501 -.00559 .01435 .02182 217.294 718.68)"/><path d="M1267.176 1050.299l-1.926-2.65 14.75-8.821v.275l12.824 11.196 1.926-2.65 40.46 33.444 3.925-5.403-44.31-28.144 1.925-2.65-16.75-10.017v-.274l-14.824 12.941-1.926-2.65-40.459 33.445-1.926-2.651-40.459 33.445.049.067-1.975-2.718-40.458 33.446-1.927-2.651-40.458 33.445-1.927-2.65-40.458 33.444.037.051-1.963-2.702-57.216 43.449-.423.582 20.948-69.436 3.116 1.012 13.074-50.839-.12-.038-19.306 48.813 3.117 1.013-27.328 78.42.423-.582 67.64-46.99-1.925-2.651 44.31-28.144-1.994-2.745.068.095 44.311-28.144-1.926-2.65 44.311-28.144-1.926-2.651 44.31-28.144-1.934-2.663.009.013z" transform="matrix(.01501 -.00559 .01435 .02182 217.294 718.68)"/><path d="M1334.278 1064.611l38.436 31.773 1.83-2.518 38.436 31.773 1.83-2.519 38.435 31.773 1.83-2.518 38.436 31.773 1.83-2.518 62.83 47.712-.402-.553-22.598-74.909-3.018.98.057-.018-12.42-48.297-2.96.962-12.42-48.297-2.96.962-12.42-48.297-6.034 1.961 18.34 46.373-2.96.962 18.34 46.373-2.96.962 18.34 46.373-2.96.962 22.46 64.45.401.553-56.586-39.31-.035.047 1.865-2.566-42.096-26.737-.062.086 1.892-2.604-42.095-26.736 1.83-2.519-42.096-26.736-.035.048 1.865-2.566-42.095-26.736 1.83-2.519-42.096-26.736 1.83-2.518-15.913-9.516v-.26l-14.083 12.294.07.096 14.013-8.379v.261l12.183 10.637 1.865-2.567-.035.048 38.436 31.773zM1056.645 1158.019l3.017.98-.056-.018-18.341 46.373 2.961.962-25.962 74.499.403-.553 64.258-44.641-1.83-2.518 42.095-26.736-1.843-2.537.014.018 42.095-26.736-1.83-2.518 42.095-26.737-3.729-5.133-38.436 31.773-1.829-2.518-38.436 31.773-1.83-2.519-38.436 31.773-1.83-2.518-54.354 41.276-.403.553 19.901-65.964-.057-.019 3.018.98 12.419-48.297 2.961.962 12.419-48.297 2.961.962 12.419-48.297 2.961.962 12.419-48.297-.113-.036-18.341 46.373 2.961.962-18.341 46.373 3.017.98-.056-.018z" transform="matrix(.01501 -.00559 .01435 .02182 217.294 718.68)"/></g></g><path stroke="#000" stroke-width=".6" fill="url(#a)" d="M233.888 735.645l-8.95 5.626 6.393-8.695z"/><path d="M232.46 730.116c4.601 0 12.672 2.335 17.27 1.275 2.842-.655 4.865-.514 8.19-2.04.246-.113-.329 5.287-.129 5.355 2.388.812-1.841 1.36-7.547 1.583-8.399.33-20-.046-18.405-1.328.02-.017-.41-3.315.093-5.355" transform="rotate(.292 245.087 732.874)" stroke="#000" fill="url(#b)"/><path fill="url(#c)" fill-opacity=".72" d="M234.355 732.652l-5.114 12.392 6.393-5.994 4.092 11.031-.001-10.458 3.325-.859.256 10.298 3.58-11.156 4.347 12.015.512-10.871 4.347 6.58-1.79-8.959 10.486 4.637-9.974-9.032-8.696 4.017-5.881-3.068-3.58 3.896z"/></svg>