<?xml version="1.0" encoding="utf-8"?>
<svg width="80px" height="80px" viewBox="0 0 80 80" xmlns="http://www.w3.org/2000/svg">
  <path d="M 212.816 20.57 C 212.816 20.943 212.025 20.988 212.025 21.361" style="stroke: rgb(0, 0, 0); stroke-opacity: 0; fill: rgb(44, 53, 232);"/>
  <rect x="-0.791" y="2.373" width="79.905" height="78.323" style="fill: rgb(72, 217, 59);"/>
  <path d="M 2.373 19.778 C 4.577 19.778 26.739 9.334 26.899 9.494 C 28.26 10.855 38.766 26.108 38.766 26.108 C 38.766 26.108 60.127 11.867 60.127 11.867 C 60.127 11.867 59.927 17.996 60.127 18.196 C 60.795 18.865 70.411 26.108 70.411 26.108 C 70.411 26.108 75.382 18.987 78.323 18.987" style="stroke: rgb(0, 0, 0); stroke-opacity: 0; fill: rgb(44, 53, 232);"/>
  <path d="M -0.791 44.304 C -0.791 40.572 4.708 41.178 7.12 38.766 C 25.582 20.304 18.317 46.738 35.601 55.38 C 38.03 56.594 37.637 50.179 39.557 48.259 C 43.242 44.575 46.87 38.573 49.842 35.601 C 51.731 33.712 60.872 46.632 62.5 48.259 C 66.014 51.773 81.158 41.468 83.861 38.766" style="stroke: rgb(0, 0, 0); stroke-opacity: 0; fill: rgb(44, 53, 232);"/>
  <path d="M -3.165 68.038 C -3.165 65.118 4.988 62.259 6.329 60.918 C 16.77 50.477 12.266 52.614 21.361 61.709 C 22.359 62.707 33.228 72.785 33.228 72.785 C 33.228 72.785 48.333 55.306 49.842 53.797 C 56.021 47.618 71.203 72.785 71.203 72.785 C 71.203 72.785 94.845 55.472 97.31 53.006" style="stroke: rgb(0, 0, 0); stroke-opacity: 0; fill: rgb(44, 53, 232);"/>
</svg>