<svg width="80" height="80" xmlns:rdf="http://www.w3.org/1999/02/22-rdf-syntax-ns#" xmlns="http://www.w3.org/2000/svg" xmlns:cc="http://web.resource.org/cc/" xmlns:dc="http://purl.org/dc/elements/1.1/" id="svg2" viewBox="0 0 379.28 380.88" version="1.0"> <rect id="rect2193" height="398" width="396" y="-9.12" x="-7" fill="#aee071"/> <g id="g2246" transform="matrix(1.7306 0 0 1.7306 -30.489 -14.087)" fill="#d7f5b3" fill-rule="evenodd"> <g id="g2168"> <path id="path2157" d="m50.086 17.659c0.7 0.008 1.297-1.235 1.318 0.042s-1.996 4.824-0.46 4.462c0.708-0.167 1.408-1.374 1.449 0.19 0.03 1.115-0.807 2.72-0.847 3.791 0.948 2.439 4.313-2.909 5.779-1.818 0.555 0.876 0.749 1.487 1.538 1.657 0.922-0.434 2.303-1.287 3.163-1.826 0.248-0.769-0.187-1.242-0.668-2.16-0.212-1.815 6.102-2.055 4.464-4.095-0.948-0.501-2.756-0.579-3.706-1.162-1.335-0.818 0.061-0.821 0.559-1.35 1.082-1.149-2.995-1.177-4.091-1.834-1.095-0.657 0.279-0.552 0.623-1.162-0.911-1.499-6.991-3.1375-7.657-2.7532-0.618 0.3569-2.403 6.8122-1.464 8.0182z"/> <path id="path2159" d="m90.086 17.659c0.7 0.008 1.297-1.235 1.318 0.042s-1.996 4.824-0.46 4.462c0.708-0.167 1.408-1.374 1.449 0.19 0.03 1.115-0.807 2.72-0.847 3.791 0.948 2.439 4.313-2.909 5.779-1.818 0.555 0.876 0.749 1.487 1.538 1.657 0.922-0.434 2.307-1.287 3.167-1.826 0.24-0.769-0.19-1.242-0.67-2.16-0.21-1.815 6.1-2.055 4.46-4.095-0.95-0.501-2.75-0.579-3.7-1.162-1.34-0.818 0.06-0.821 0.56-1.35 1.08-1.149-3-1.177-4.096-1.834-1.095-0.657 0.279-0.552 0.623-1.162-0.911-1.499-6.991-3.1375-7.657-2.7532-0.618 0.3569-2.403 6.8122-1.464 8.0182z"/> <path id="path2162" d="m130.09 17.659c0.7 0.008 1.29-1.235 1.31 0.042 0.03 1.277-1.99 4.824-0.46 4.462 0.71-0.167 1.41-1.374 1.45 0.19 0.03 1.115-0.8 2.72-0.84 3.791 0.94 2.439 4.31-2.909 5.78-1.818 0.55 0.876 0.74 1.487 1.53 1.657 0.92-0.434 2.31-1.287 3.17-1.826 0.24-0.769-0.19-1.242-0.67-2.16-0.21-1.815 6.1-2.055 4.46-4.095-0.95-0.501-2.75-0.579-3.7-1.162-1.34-0.818 0.06-0.821 0.56-1.35 1.08-1.149-3-1.177-4.1-1.834-1.09-0.657 0.28-0.552 0.63-1.162-0.91-1.499-6.99-3.1375-7.66-2.7532-0.62 0.3569-2.4 6.8122-1.46 8.0182z"/> <path id="path2164" d="m170.09 17.659c0.7 0.008 1.29-1.235 1.31 0.042 0.03 1.277-1.99 4.824-0.46 4.462 0.71-0.167 1.41-1.374 1.45 0.19 0.03 1.115-0.8 2.72-0.84 3.791 0.94 2.439 4.31-2.909 5.78-1.818 0.55 0.876 0.74 1.487 1.53 1.657 0.92-0.434 2.31-1.287 3.17-1.826 0.24-0.769-0.19-1.242-0.67-2.16-0.21-1.815 6.1-2.055 4.46-4.095-0.95-0.501-2.75-0.579-3.7-1.162-1.34-0.818 0.06-0.821 0.56-1.35 1.08-1.149-3-1.177-4.1-1.834-1.09-0.657 0.28-0.552 0.63-1.162-0.91-1.499-6.99-3.1375-7.66-2.7532-0.62 0.3569-2.4 6.8122-1.46 8.0182z"/> <path id="path2166" d="m210.09 17.659c0.7 0.008 1.29-1.235 1.31 0.042 0.03 1.277-1.99 4.824-0.46 4.462 0.71-0.167 1.41-1.374 1.45 0.19 0.03 1.115-0.8 2.72-0.84 3.791 0.94 2.439 4.31-2.909 5.78-1.818 0.55 0.876 0.74 1.487 1.53 1.657 0.92-0.434 2.31-1.287 3.17-1.826 0.24-0.769-0.19-1.242-0.67-2.16-0.21-1.815 6.1-2.055 4.46-4.095-0.95-0.501-2.75-0.579-3.7-1.162-1.34-0.818 0.06-0.821 0.56-1.35 1.08-1.149-3-1.177-4.1-1.834-1.09-0.657 0.28-0.552 0.63-1.162-0.91-1.499-6.99-3.1375-7.66-2.7532-0.62 0.3569-2.4 6.8122-1.46 8.0182z"/> </g> <g id="g2176" transform="translate(20,40)"> <path id="path2178" d="m12.802 12.395c0.344 0.61 1.718 0.506 0.623 1.162-1.096 0.657-5.176 0.684-4.0938 1.833 0.4984 0.529 1.8938 0.532 0.5595 1.35-0.9507 0.583-2.7587 0.661-3.7065 1.162-1.6379 2.04 4.6758 2.28 4.4638 4.095-0.481 0.918-0.9136 1.393-0.6653 2.161 0.8363 0.581 2.2653 1.35 3.1623 1.826 0.79-0.169 0.982-0.782 1.536-1.658 1.466-1.091 4.831 4.257 5.779 1.818-0.04-1.071-0.876-2.676-0.847-3.791 0.041-1.564 0.741-0.357 1.449-0.19 1.536 0.362-0.478-3.183-0.457-4.46s0.618-0.034 1.317-0.042c0.843-1.538-0.778-7.623-1.444-8.0073-0.618-0.3569-7.101 1.3243-7.676 2.7413z"/> <path id="path2180" d="m52.802 12.395c0.344 0.61 1.718 0.506 0.623 1.162-1.096 0.657-5.176 0.684-4.094 1.833 0.499 0.529 1.894 0.532 0.56 1.35-0.951 0.583-2.759 0.661-3.707 1.162-1.638 2.04 4.676 2.28 4.464 4.095-0.481 0.918-0.914 1.393-0.665 2.161 0.836 0.581 2.265 1.35 3.162 1.826 0.79-0.169 0.982-0.782 1.536-1.658 1.466-1.091 4.831 4.257 5.779 1.818-0.04-1.071-0.876-2.676-0.847-3.791 0.041-1.564 0.741-0.357 1.449-0.19 1.536 0.362-0.478-3.183-0.457-4.46s0.618-0.034 1.317-0.042c0.843-1.538-0.778-7.623-1.444-8.0073-0.618-0.3569-7.101 1.3243-7.676 2.7413z"/> <path id="path2182" d="m92.802 12.395c0.344 0.61 1.718 0.506 0.623 1.162-1.096 0.657-5.176 0.684-4.094 1.833 0.499 0.529 1.894 0.532 0.56 1.35-0.951 0.583-2.759 0.661-3.707 1.162-1.638 2.04 4.676 2.28 4.464 4.095-0.481 0.918-0.914 1.393-0.665 2.161 0.836 0.581 2.265 1.35 3.162 1.826 0.79-0.169 0.982-0.782 1.536-1.658 1.466-1.091 4.831 4.257 5.779 1.818-0.04-1.071-0.876-2.676-0.847-3.791 0.041-1.564 0.737-0.357 1.447-0.19 1.54 0.362-0.48-3.183-0.46-4.46 0.03-1.277 0.62-0.034 1.32-0.042 0.84-1.538-0.78-7.623-1.44-8.0073-0.62-0.357-7.103 1.3243-7.678 2.7413z"/> <path id="path2184" d="m132.8 12.395c0.35 0.61 1.72 0.506 0.62 1.162-1.09 0.657-5.17 0.684-4.09 1.833 0.5 0.529 1.9 0.532 0.56 1.35-0.95 0.583-2.76 0.661-3.71 1.162-1.63 2.04 4.68 2.28 4.47 4.095-0.48 0.918-0.92 1.393-0.67 2.161 0.84 0.581 2.27 1.35 3.17 1.826 0.78-0.169 0.98-0.782 1.53-1.658 1.47-1.091 4.83 4.257 5.78 1.818-0.04-1.071-0.88-2.676-0.85-3.791 0.04-1.564 0.74-0.357 1.45-0.19 1.54 0.362-0.48-3.183-0.46-4.46 0.03-1.277 0.62-0.034 1.32-0.042 0.84-1.538-0.78-7.623-1.44-8.0073-0.62-0.357-7.1 1.3243-7.68 2.7413z"/> <path id="path2186" d="m172.8 12.395c0.35 0.61 1.72 0.506 0.62 1.162-1.09 0.657-5.17 0.684-4.09 1.833 0.5 0.529 1.9 0.532 0.56 1.35-0.95 0.583-2.76 0.661-3.71 1.162-1.63 2.04 4.68 2.28 4.47 4.095-0.48 0.918-0.92 1.393-0.67 2.161 0.84 0.581 2.27 1.35 3.17 1.826 0.78-0.169 0.98-0.782 1.53-1.658 1.47-1.091 4.83 4.257 5.78 1.818-0.04-1.071-0.88-2.676-0.85-3.791 0.04-1.564 0.74-0.357 1.45-0.19 1.54 0.362-0.48-3.183-0.46-4.46 0.03-1.277 0.62-0.034 1.32-0.042 0.84-1.538-0.78-7.623-1.44-8.0073-0.62-0.357-7.1 1.3243-7.68 2.7413z"/> </g> <g id="g2190" transform="translate(0,80)"> <path id="path2194" d="m50.086 17.659c0.7 0.008 1.297-1.235 1.318 0.042s-1.996 4.824-0.46 4.462c0.708-0.167 1.408-1.374 1.449 0.19 0.03 1.115-0.807 2.72-0.847 3.791 0.948 2.439 4.313-2.909 5.779-1.818 0.555 0.876 0.749 1.487 1.538 1.657 0.922-0.434 2.303-1.287 3.163-1.826 0.248-0.769-0.187-1.242-0.668-2.16-0.212-1.815 6.102-2.055 4.464-4.095-0.948-0.501-2.756-0.579-3.706-1.162-1.335-0.818 0.061-0.821 0.559-1.35 1.082-1.149-2.995-1.177-4.091-1.834-1.095-0.657 0.279-0.552 0.623-1.162-0.911-1.499-6.991-3.1375-7.657-2.7532-0.618 0.3569-2.403 6.8122-1.464 8.0182z"/> <path id="path2196" d="m90.086 17.659c0.7 0.008 1.297-1.235 1.318 0.042s-1.996 4.824-0.46 4.462c0.708-0.167 1.408-1.374 1.449 0.19 0.03 1.115-0.807 2.72-0.847 3.791 0.948 2.439 4.313-2.909 5.779-1.818 0.555 0.876 0.749 1.487 1.538 1.657 0.922-0.434 2.307-1.287 3.167-1.826 0.24-0.769-0.19-1.242-0.67-2.16-0.21-1.815 6.1-2.055 4.46-4.095-0.95-0.501-2.75-0.579-3.7-1.162-1.34-0.818 0.06-0.821 0.56-1.35 1.08-1.149-3-1.177-4.096-1.834-1.095-0.657 0.279-0.552 0.623-1.162-0.911-1.499-6.991-3.1375-7.657-2.7532-0.618 0.3569-2.403 6.8122-1.464 8.0182z"/> <path id="path2198" d="m130.09 17.659c0.7 0.008 1.29-1.235 1.31 0.042 0.03 1.277-1.99 4.824-0.46 4.462 0.71-0.167 1.41-1.374 1.45 0.19 0.03 1.115-0.8 2.72-0.84 3.791 0.94 2.439 4.31-2.909 5.78-1.818 0.55 0.876 0.74 1.487 1.53 1.657 0.92-0.434 2.31-1.287 3.17-1.826 0.24-0.769-0.19-1.242-0.67-2.16-0.21-1.815 6.1-2.055 4.46-4.095-0.95-0.501-2.75-0.579-3.7-1.162-1.34-0.818 0.06-0.821 0.56-1.35 1.08-1.149-3-1.177-4.1-1.834-1.09-0.657 0.28-0.552 0.63-1.162-0.91-1.499-6.99-3.1375-7.66-2.7532-0.62 0.3569-2.4 6.8122-1.46 8.0182z"/> <path id="path2200" d="m170.09 17.659c0.7 0.008 1.29-1.235 1.31 0.042 0.03 1.277-1.99 4.824-0.46 4.462 0.71-0.167 1.41-1.374 1.45 0.19 0.03 1.115-0.8 2.72-0.84 3.791 0.94 2.439 4.31-2.909 5.78-1.818 0.55 0.876 0.74 1.487 1.53 1.657 0.92-0.434 2.31-1.287 3.17-1.826 0.24-0.769-0.19-1.242-0.67-2.16-0.21-1.815 6.1-2.055 4.46-4.095-0.95-0.501-2.75-0.579-3.7-1.162-1.34-0.818 0.06-0.821 0.56-1.35 1.08-1.149-3-1.177-4.1-1.834-1.09-0.657 0.28-0.552 0.63-1.162-0.91-1.499-6.99-3.1375-7.66-2.7532-0.62 0.3569-2.4 6.8122-1.46 8.0182z"/> <path id="path2202" d="m210.09 17.659c0.7 0.008 1.29-1.235 1.31 0.042 0.03 1.277-1.99 4.824-0.46 4.462 0.71-0.167 1.41-1.374 1.45 0.19 0.03 1.115-0.8 2.72-0.84 3.791 0.94 2.439 4.31-2.909 5.78-1.818 0.55 0.876 0.74 1.487 1.53 1.657 0.92-0.434 2.31-1.287 3.17-1.826 0.24-0.769-0.19-1.242-0.67-2.16-0.21-1.815 6.1-2.055 4.46-4.095-0.95-0.501-2.75-0.579-3.7-1.162-1.34-0.818 0.06-0.821 0.56-1.35 1.08-1.149-3-1.177-4.1-1.834-1.09-0.657 0.28-0.552 0.63-1.162-0.91-1.499-6.99-3.1375-7.66-2.7532-0.62 0.3569-2.4 6.8122-1.46 8.0182z"/> </g> <g id="g2204" transform="translate(20,120)"> <path id="path2206" d="m12.802 12.395c0.344 0.61 1.718 0.506 0.623 1.162-1.096 0.657-5.176 0.684-4.0938 1.833 0.4984 0.529 1.8938 0.532 0.5595 1.35-0.9507 0.583-2.7587 0.661-3.7065 1.162-1.6379 2.04 4.6758 2.28 4.4638 4.095-0.481 0.918-0.9136 1.393-0.6653 2.161 0.8363 0.581 2.2653 1.35 3.1623 1.826 0.79-0.169 0.982-0.782 1.536-1.658 1.466-1.091 4.831 4.257 5.779 1.818-0.04-1.071-0.876-2.676-0.847-3.791 0.041-1.564 0.741-0.357 1.449-0.19 1.536 0.362-0.478-3.183-0.457-4.46s0.618-0.034 1.317-0.042c0.843-1.538-0.778-7.623-1.444-8.0073-0.618-0.3569-7.101 1.3243-7.676 2.7413z"/> <path id="path2208" d="m52.802 12.395c0.344 0.61 1.718 0.506 0.623 1.162-1.096 0.657-5.176 0.684-4.094 1.833 0.499 0.529 1.894 0.532 0.56 1.35-0.951 0.583-2.759 0.661-3.707 1.162-1.638 2.04 4.676 2.28 4.464 4.095-0.481 0.918-0.914 1.393-0.665 2.161 0.836 0.581 2.265 1.35 3.162 1.826 0.79-0.169 0.982-0.782 1.536-1.658 1.466-1.091 4.831 4.257 5.779 1.818-0.04-1.071-0.876-2.676-0.847-3.791 0.041-1.564 0.741-0.357 1.449-0.19 1.536 0.362-0.478-3.183-0.457-4.46s0.618-0.034 1.317-0.042c0.843-1.538-0.778-7.623-1.444-8.0073-0.618-0.3569-7.101 1.3243-7.676 2.7413z"/> <path id="path2210" d="m92.802 12.395c0.344 0.61 1.718 0.506 0.623 1.162-1.096 0.657-5.176 0.684-4.094 1.833 0.499 0.529 1.894 0.532 0.56 1.35-0.951 0.583-2.759 0.661-3.707 1.162-1.638 2.04 4.676 2.28 4.464 4.095-0.481 0.918-0.914 1.393-0.665 2.161 0.836 0.581 2.265 1.35 3.162 1.826 0.79-0.169 0.982-0.782 1.536-1.658 1.466-1.091 4.831 4.257 5.779 1.818-0.04-1.071-0.876-2.676-0.847-3.791 0.041-1.564 0.737-0.357 1.447-0.19 1.54 0.362-0.48-3.183-0.46-4.46 0.03-1.277 0.62-0.034 1.32-0.042 0.84-1.538-0.78-7.623-1.44-8.0073-0.62-0.357-7.103 1.3243-7.678 2.7413z"/> <path id="path2212" d="m132.8 12.395c0.35 0.61 1.72 0.506 0.62 1.162-1.09 0.657-5.17 0.684-4.09 1.833 0.5 0.529 1.9 0.532 0.56 1.35-0.95 0.583-2.76 0.661-3.71 1.162-1.63 2.04 4.68 2.28 4.47 4.095-0.48 0.918-0.92 1.393-0.67 2.161 0.84 0.581 2.27 1.35 3.17 1.826 0.78-0.169 0.98-0.782 1.53-1.658 1.47-1.091 4.83 4.257 5.78 1.818-0.04-1.071-0.88-2.676-0.85-3.791 0.04-1.564 0.74-0.357 1.45-0.19 1.54 0.362-0.48-3.183-0.46-4.46 0.03-1.277 0.62-0.034 1.32-0.042 0.84-1.538-0.78-7.623-1.44-8.0073-0.62-0.357-7.1 1.3243-7.68 2.7413z"/> <path id="path2214" d="m172.8 12.395c0.35 0.61 1.72 0.506 0.62 1.162-1.09 0.657-5.17 0.684-4.09 1.833 0.5 0.529 1.9 0.532 0.56 1.35-0.95 0.583-2.76 0.661-3.71 1.162-1.63 2.04 4.68 2.28 4.47 4.095-0.48 0.918-0.92 1.393-0.67 2.161 0.84 0.581 2.27 1.35 3.17 1.826 0.78-0.169 0.98-0.782 1.53-1.658 1.47-1.091 4.83 4.257 5.78 1.818-0.04-1.071-0.88-2.676-0.85-3.791 0.04-1.564 0.74-0.357 1.45-0.19 1.54 0.362-0.48-3.183-0.46-4.46 0.03-1.277 0.62-0.034 1.32-0.042 0.84-1.538-0.78-7.623-1.44-8.0073-0.62-0.357-7.1 1.3243-7.68 2.7413z"/> </g> <g id="g2218" transform="translate(0,160)"> <path id="path2222" d="m50.086 17.659c0.7 0.008 1.297-1.235 1.318 0.042s-1.996 4.824-0.46 4.462c0.708-0.167 1.408-1.374 1.449 0.19 0.03 1.115-0.807 2.72-0.847 3.791 0.948 2.439 4.313-2.909 5.779-1.818 0.555 0.876 0.749 1.487 1.538 1.657 0.922-0.434 2.303-1.287 3.163-1.826 0.248-0.769-0.187-1.242-0.668-2.16-0.212-1.815 6.102-2.055 4.464-4.095-0.948-0.501-2.756-0.579-3.706-1.162-1.335-0.818 0.061-0.821 0.559-1.35 1.082-1.149-2.995-1.177-4.091-1.834-1.095-0.657 0.279-0.552 0.623-1.162-0.911-1.499-6.991-3.1375-7.657-2.7532-0.618 0.3569-2.403 6.8122-1.464 8.0182z"/> <path id="path2224" d="m90.086 17.659c0.7 0.008 1.297-1.235 1.318 0.042s-1.996 4.824-0.46 4.462c0.708-0.167 1.408-1.374 1.449 0.19 0.03 1.115-0.807 2.72-0.847 3.791 0.948 2.439 4.313-2.909 5.779-1.818 0.555 0.876 0.749 1.487 1.538 1.657 0.922-0.434 2.307-1.287 3.167-1.826 0.24-0.769-0.19-1.242-0.67-2.16-0.21-1.815 6.1-2.055 4.46-4.095-0.95-0.501-2.75-0.579-3.7-1.162-1.34-0.818 0.06-0.821 0.56-1.35 1.08-1.149-3-1.177-4.096-1.834-1.095-0.657 0.279-0.552 0.623-1.162-0.911-1.499-6.991-3.1375-7.657-2.7532-0.618 0.3569-2.403 6.8122-1.464 8.0182z"/> <path id="path2226" d="m130.09 17.659c0.7 0.008 1.29-1.235 1.31 0.042 0.03 1.277-1.99 4.824-0.46 4.462 0.71-0.167 1.41-1.374 1.45 0.19 0.03 1.115-0.8 2.72-0.84 3.791 0.94 2.439 4.31-2.909 5.78-1.818 0.55 0.876 0.74 1.487 1.53 1.657 0.92-0.434 2.31-1.287 3.17-1.826 0.24-0.769-0.19-1.242-0.67-2.16-0.21-1.815 6.1-2.055 4.46-4.095-0.95-0.501-2.75-0.579-3.7-1.162-1.34-0.818 0.06-0.821 0.56-1.35 1.08-1.149-3-1.177-4.1-1.834-1.09-0.657 0.28-0.552 0.63-1.162-0.91-1.499-6.99-3.1375-7.66-2.7532-0.62 0.3569-2.4 6.8122-1.46 8.0182z"/> <path id="path2228" d="m170.09 17.659c0.7 0.008 1.29-1.235 1.31 0.042 0.03 1.277-1.99 4.824-0.46 4.462 0.71-0.167 1.41-1.374 1.45 0.19 0.03 1.115-0.8 2.72-0.84 3.791 0.94 2.439 4.31-2.909 5.78-1.818 0.55 0.876 0.74 1.487 1.53 1.657 0.92-0.434 2.31-1.287 3.17-1.826 0.24-0.769-0.19-1.242-0.67-2.16-0.21-1.815 6.1-2.055 4.46-4.095-0.95-0.501-2.75-0.579-3.7-1.162-1.34-0.818 0.06-0.821 0.56-1.35 1.08-1.149-3-1.177-4.1-1.834-1.09-0.657 0.28-0.552 0.63-1.162-0.91-1.499-6.99-3.1375-7.66-2.7532-0.62 0.3569-2.4 6.8122-1.46 8.0182z"/> <path id="path2230" d="m210.09 17.659c0.7 0.008 1.29-1.235 1.31 0.042 0.03 1.277-1.99 4.824-0.46 4.462 0.71-0.167 1.41-1.374 1.45 0.19 0.03 1.115-0.8 2.72-0.84 3.791 0.94 2.439 4.31-2.909 5.78-1.818 0.55 0.876 0.74 1.487 1.53 1.657 0.92-0.434 2.31-1.287 3.17-1.826 0.24-0.769-0.19-1.242-0.67-2.16-0.21-1.815 6.1-2.055 4.46-4.095-0.95-0.501-2.75-0.579-3.7-1.162-1.34-0.818 0.06-0.821 0.56-1.35 1.08-1.149-3-1.177-4.1-1.834-1.09-0.657 0.28-0.552 0.63-1.162-0.91-1.499-6.99-3.1375-7.66-2.7532-0.62 0.3569-2.4 6.8122-1.46 8.0182z"/> </g> <g id="g2232" transform="translate(20,200)"> <path id="path2234" d="m12.802 12.395c0.344 0.61 1.718 0.506 0.623 1.162-1.096 0.657-5.176 0.684-4.0938 1.833 0.4984 0.529 1.8938 0.532 0.5595 1.35-0.9507 0.583-2.7587 0.661-3.7065 1.162-1.6379 2.04 4.6758 2.28 4.4638 4.095-0.481 0.918-0.9136 1.393-0.6653 2.161 0.8363 0.581 2.2653 1.35 3.1623 1.826 0.79-0.169 0.982-0.782 1.536-1.658 1.466-1.091 4.831 4.257 5.779 1.818-0.04-1.071-0.876-2.676-0.847-3.791 0.041-1.564 0.741-0.357 1.449-0.19 1.536 0.362-0.478-3.183-0.457-4.46s0.618-0.034 1.317-0.042c0.843-1.538-0.778-7.623-1.444-8.0073-0.618-0.3569-7.101 1.3243-7.676 2.7413z"/> <path id="path2236" d="m52.802 12.395c0.344 0.61 1.718 0.506 0.623 1.162-1.096 0.657-5.176 0.684-4.094 1.833 0.499 0.529 1.894 0.532 0.56 1.35-0.951 0.583-2.759 0.661-3.707 1.162-1.638 2.04 4.676 2.28 4.464 4.095-0.481 0.918-0.914 1.393-0.665 2.161 0.836 0.581 2.265 1.35 3.162 1.826 0.79-0.169 0.982-0.782 1.536-1.658 1.466-1.091 4.831 4.257 5.779 1.818-0.04-1.071-0.876-2.676-0.847-3.791 0.041-1.564 0.741-0.357 1.449-0.19 1.536 0.362-0.478-3.183-0.457-4.46s0.618-0.034 1.317-0.042c0.843-1.538-0.778-7.623-1.444-8.0073-0.618-0.3569-7.101 1.3243-7.676 2.7413z"/> <path id="path2238" d="m92.802 12.395c0.344 0.61 1.718 0.506 0.623 1.162-1.096 0.657-5.176 0.684-4.094 1.833 0.499 0.529 1.894 0.532 0.56 1.35-0.951 0.583-2.759 0.661-3.707 1.162-1.638 2.04 4.676 2.28 4.464 4.095-0.481 0.918-0.914 1.393-0.665 2.161 0.836 0.581 2.265 1.35 3.162 1.826 0.79-0.169 0.982-0.782 1.536-1.658 1.466-1.091 4.831 4.257 5.779 1.818-0.04-1.071-0.876-2.676-0.847-3.791 0.041-1.564 0.737-0.357 1.447-0.19 1.54 0.362-0.48-3.183-0.46-4.46 0.03-1.277 0.62-0.034 1.32-0.042 0.84-1.538-0.78-7.623-1.44-8.0073-0.62-0.357-7.103 1.3243-7.678 2.7413z"/> <path id="path2240" d="m132.8 12.395c0.35 0.61 1.72 0.506 0.62 1.162-1.09 0.657-5.17 0.684-4.09 1.833 0.5 0.529 1.9 0.532 0.56 1.35-0.95 0.583-2.76 0.661-3.71 1.162-1.63 2.04 4.68 2.28 4.47 4.095-0.48 0.918-0.92 1.393-0.67 2.161 0.84 0.581 2.27 1.35 3.17 1.826 0.78-0.169 0.98-0.782 1.53-1.658 1.47-1.091 4.83 4.257 5.78 1.818-0.04-1.071-0.88-2.676-0.85-3.791 0.04-1.564 0.74-0.357 1.45-0.19 1.54 0.362-0.48-3.183-0.46-4.46 0.03-1.277 0.62-0.034 1.32-0.042 0.84-1.538-0.78-7.623-1.44-8.0073-0.62-0.357-7.1 1.3243-7.68 2.7413z"/> <path id="path2242" d="m172.8 12.395c0.35 0.61 1.72 0.506 0.62 1.162-1.09 0.657-5.17 0.684-4.09 1.833 0.5 0.529 1.9 0.532 0.56 1.35-0.95 0.583-2.76 0.661-3.71 1.162-1.63 2.04 4.68 2.28 4.47 4.095-0.48 0.918-0.92 1.393-0.67 2.161 0.84 0.581 2.27 1.35 3.17 1.826 0.78-0.169 0.98-0.782 1.53-1.658 1.47-1.091 4.83 4.257 5.78 1.818-0.04-1.071-0.88-2.676-0.85-3.791 0.04-1.564 0.74-0.357 1.45-0.19 1.54 0.362-0.48-3.183-0.46-4.46 0.03-1.277 0.62-0.034 1.32-0.042 0.84-1.538-0.78-7.623-1.44-8.0073-0.62-0.357-7.1 1.3243-7.68 2.7413z"/> </g> </g> <metadata> <rdf:RDF> <cc:Work> <dc:format>image/svg+xml</dc:format> <dc:type rdf:resource="http://purl.org/dc/dcmitype/StillImage"/> <cc:license rdf:resource="http://creativecommons.org/licenses/publicdomain/"/> <dc:publisher> <cc:Agent rdf:about="http://openclipart.org/"> <dc:title>Openclipart</dc:title> </cc:Agent> </dc:publisher> </cc:Work> <cc:License rdf:about="http://creativecommons.org/licenses/publicdomain/"> <cc:permits rdf:resource="http://creativecommons.org/ns#Reproduction"/> <cc:permits rdf:resource="http://creativecommons.org/ns#Distribution"/> <cc:permits rdf:resource="http://creativecommons.org/ns#DerivativeWorks"/> </cc:License> </rdf:RDF> </metadata></svg>