<?xml version="1.0" encoding="utf-8"?>
<svg width="86" height="380" viewBox="202.715 584.407 86.5933 380.048" preserveAspectRatio="xMidYMid meet" xmlns="http://www.w3.org/2000/svg">
  <rect id="svgEditorBackground" x="202.71499633789062" y="584.406982421875" width="86.59329986572266" height="380.0480041503906" style="fill: none; stroke: none;"/>
  <defs id="svgEditorDefs">
    <path id="svgEditorClosePathDefs" class="skin" fill="black" style="stroke-width: 0px; stroke: none;"/>
  </defs>
  <g transform="matrix(0.052535, 0, 0, 0.052535, 219.966324, 572.539734)">
    <rect id="rect-1" x="-116.457" y="611.267" width="1312.151" height="717.106" style="fill: none; stroke: none;"/>
    <polygon stroke="black" stroke-width="1" id="e6_areaS2" style="fill: none;" points="287.595 940.428" transform="matrix(0.91087, 0.412693, -0.412693, 0.91087, 413.741514, -34.868241)"/>
    <polygon stroke="black" stroke-width="1" id="e1_areaS2" style="fill: none;" points="287.595 940.428" transform="matrix(0.91087, 0.412693, -0.412693, 0.91087, 413.741514, -34.868241)"/>
    <polygon stroke="black" stroke-width="1" id="e2_areaS2" style="fill: none;" points="814.073 716.257" transform="matrix(-0.801337 0.412693 0.363066 0.91087 1154.21 -47.951)"/>
    <polygon stroke="black" stroke-width="1" id="e3_areaS2" style="fill: none;" points="814.073 716.257" transform="matrix(-0.801337 0.412693 0.363066 0.91087 1154.21 -47.951)"/>
  </g>
  <ellipse id="e6_ellipse" class="whites" cx="228.074" cy="621.448" style="stroke-width: 0px; stroke: none;" rx="12.701399803161621" ry="6.913360118865967" fill="white"/>
  <path class="lines" d="M215.01727294921875,624.1927490234375c2.877985040417002,-0.1781952820878132,11.063564840921742,5.140996577778424,12.371490478515625,3.4365234375c1.3079256375938826,-1.7044731402784237,14.423753568115046,-6.383666776017321,13.746109008789062,-3.4365234375c-0.6776445593259837,2.9471433385173214,-11.629423867347242,3.7605570364473806,-13.058807373046875,5.4984130859375c-1.429383505699633,1.7378560494901194,-12.500251061532936,-4.63291258522122,-13.058792114257812,-5.4984130859375Z" id="e8_area3" fill="black" style="stroke: none; stroke-width: 0px;"/>
  <ellipse id="e1_ellipse" class="whites" cx="258.1274719238281" cy="622.1353149414062" style="stroke-width: 0px; stroke: none;" rx="12.7014" ry="6.91336" fill="white" transform="matrix(-0.879749 0 0 1 493.24 -0.687305)"/>
  <path class="lines" d="M 253.432 629.038 C 255.964 629.216 263.165 623.897 264.316 625.601 C 265.466 627.306 277.005 631.985 276.409 629.038 C 275.813 626.091 266.178 625.277 264.92 623.539 C 263.663 621.802 253.923 628.172 253.432 629.038 Z" id="e2_area3" fill="black" style="stroke: none; stroke-width: 0px;" transform="matrix(-1, 0, 0, -1, 529.863269, 1253.230466)"/>
  <path class="irises" d="M 226.801 629.492 C 226.801 624.904 229.405 621.383 229.405 617.827 C 227.964 617.05 227.002 613.94 225.5 613.94 C 224.431 616.632 223.33 618.099 223.33 619.384 C 222.897 622.052 224.197 621.766 224.197 624.825 C 225.046 624.825 226.073 627.937 226.369 627.937 Z" style="stroke-width: 0; stroke: rgb(0, 0, 0); fill: rgb(255, 191, 0);"/>
  <path style="stroke: black; fill: none;" d="M 226.988 616.809 Z"/>
  <path style="stroke: black; fill: none;" d="M 225.177 619.225 Z"/>
  <path style="stroke: black; fill: none;" d="M 225.177 618.621 Z"/>
  <path style="stroke: black; fill: none;" d="M 225.177 618.621 Z"/>
  <path style="stroke: black; fill: none;" d="M 225.177 618.621 Z"/>
  <path class="irises" d="M 266.288 628.813 C 266.288 624.224 268.892 620.703 268.892 617.148 C 267.452 616.37 266.49 613.26 264.987 613.26 C 263.918 615.953 262.818 617.419 262.818 618.705 C 262.385 621.372 263.685 621.086 263.685 624.146 C 264.533 624.146 265.561 627.258 265.857 627.258 Z" style="stroke-width: 0; stroke: rgb(0, 0, 0); fill: rgb(255, 191, 0);"/>
  <path class="lines" d="M 215.514 618.017 C 218.133 618.017 218.179 616.205 220.345 616.205 C 222.396 615.601 223.1 614.997 225.176 614.997 C 227.256 614.997 229.003 616.205 231.216 616.205 C 232.445 616.205 235.42 618.017 236.047 618.017 C 236.651 622.246 247.375 623.453 242.087 623.453 C 240.669 622.849 234.518 613.186 232.424 613.186 C 229.599 613.186 227.579 611.978 225.177 611.978 C 224.573 613.265 220.345 613.723 220.345 614.394 C 219.741 616.356 214.306 616.92 214.306 619.829 L 214.306 618.621 L 215.514 618.017 Z" style="stroke: black; stroke-opacity: 0; stroke-width: 0;"/>
  <path class="lines" d="M 251.679 615.904 C 254.09 615.904 254.132 617.716 256.127 617.716 C 258.015 618.32 258.664 618.924 260.575 618.924 C 262.49 618.924 264.098 617.716 266.135 617.716 C 267.267 617.716 270.006 615.904 270.583 615.904 C 271.14 611.675 281.013 610.468 276.144 610.468 C 274.839 611.072 269.175 620.735 267.248 620.735 C 264.647 620.735 262.787 621.943 260.575 621.943 C 260.02 620.656 256.127 620.198 256.127 619.527 C 255.57 617.565 250.567 617.001 250.567 614.092 L 250.567 615.3 L 251.679 615.904 Z" style="stroke: black; stroke-opacity: 0; stroke-width: 0;" transform="matrix(-1, 0, 0, -1, 528.056166, 1232.411009)"/>
</svg>