<?xml version="1.0" encoding="utf-8"?>
<svg width="86" height="380" viewBox="202.715 584.407 86.5933 380.048" preserveAspectRatio="xMidYMid meet" xmlns="http://www.w3.org/2000/svg">
  <defs id="svgEditorDefs">
    <path id="svgEditorClosePathDefs" class="skin" fill="black" style="stroke-width: 0px; stroke: none;"/>
  </defs>
  <g transform="matrix(0.04236, 0, 0, 0.043485, 211.488541, 604.083252)">
    <rect id="svgEditorBackground" width="1610" height="870" style="fill: none; stroke: none;"/>
    <path class="whites" d="M 104 432 C 140.914 400.813 227.702 353.846 274 340 C 320.298 326.154 499.582 318.303 567 347 C 634.418 375.697 697.293 403.394 705 445 C 712.707 486.606 531.221 501.383 471 508 C 410.779 514.617 322.104 515.587 274 505 C 225.896 494.413 108.177 478.064 104 432 Z" id="e2_areaS3" fill="whitesmoke" style="stroke-width: 1px; stroke: none;"/>
    <path class="lines" d="M 24.335 309.253 C 46.025 286.898 98.635 251.779 182.164 203.896 C 265.694 156.013 389.942 157.314 554.91 207.798 C 719.878 258.283 794.036 295.743 777.383 320.179 C 760.729 344.614 742.26 344.354 721.974 319.398 C 701.689 294.442 661.672 274.151 601.923 258.526 C 542.175 242.9 488.446 230.413 440.736 221.066 C 393.026 211.718 350.77 211.978 313.969 221.846 C 277.167 231.714 238.549 241.599 198.115 251.502 C 157.681 261.405 114.026 289.24 67.15 335.007 C 20.274 380.774 6.003 372.189 24.335 309.253 Z" id="e6_areaS2" fill="black" style="stroke-width: 1px; stroke: none;"/>
    <circle class="irises" id="e7_circle" cx="394" cy="457.25860595703125" style="stroke-width: 1px; stroke: none;" r="83.2346" fill="green" transform="matrix(1, 0, 0, 0.801576, 8, 77.972099)"/>
    <path d="M 105 432 C 141.914 400.813 228.702 353.846 275 340 C 321.298 326.154 500.582 318.303 568 347 C 635.418 375.697 713.293 415.394 706 445 C 698.707 474.606 576.221 393.383 496 397 C 415.779 400.617 358.104 399.587 273 410 C 187.896 420.413 179.177 406.064 105 432 Z" id="e14_areaS3" style="stroke-width: 1px; stroke: none;" class="skin" fill="khaki"/>
    <circle class="lines" id="e8_circle" cx="403" cy="444" style="stroke-width: 1px; stroke: none;" r="25.495" fill="black"/>
    <path class="whites" d="M 914.458 407.519 C 949.338 438.706 1031.345 485.673 1075.093 499.519 C 1118.841 513.365 1288.248 521.216 1351.952 492.519 C 1415.656 463.823 1475.067 436.126 1482.35 394.519 C 1489.633 352.913 1318.144 338.136 1261.24 331.519 C 1204.337 324.902 1120.547 323.932 1075.093 334.519 C 1029.638 345.106 918.405 361.456 914.458 407.519 Z" id="path-1" fill="whitesmoke" style="stroke-width: 1px; stroke: none;" transform="matrix(-1, 0, 0, -1, 2397.033286, 838.519104)"/>
    <path class="lines" d="M 851.427 222.591 C 871.922 244.946 921.634 280.065 1000.562 327.948 C 1079.49 375.831 1196.894 374.53 1352.774 324.046 C 1508.654 273.561 1578.727 236.101 1562.991 211.665 C 1547.255 187.23 1529.803 187.49 1510.635 212.446 C 1491.467 237.402 1453.654 257.693 1397.197 273.319 C 1340.74 288.944 1289.971 301.431 1244.889 310.779 C 1199.807 320.126 1159.88 319.866 1125.105 309.998 C 1090.331 300.13 1053.84 290.245 1015.634 280.342 C 977.427 270.44 936.177 242.605 891.884 196.837 C 847.59 151.07 834.104 159.655 851.427 222.591 Z" id="e1_areaS2" fill="black" style="stroke-width: 1px; stroke: none;" transform="matrix(-1, 0, 0, -1, 2409.277107, 530.843862)"/>
    <circle class="irises" id="e1_circle" cx="423.0762023925781" cy="322.5246276855469" style="stroke-width: 1px; stroke: none;" r="83.2346" fill="green" transform="matrix(-0.944912, 0, 0, 0.801576, 1600.76001, 184.972)"/>
    <path d="M 913.288 346.052 C 948.168 377.239 1030.175 424.207 1073.923 438.052 C 1117.671 451.898 1287.078 459.749 1350.782 431.052 C 1414.486 402.356 1488.071 362.659 1481.18 333.052 C 1474.289 303.446 1358.55 384.67 1282.748 381.052 C 1206.947 377.435 1152.449 378.465 1072.033 368.052 C 991.617 357.64 983.379 371.989 913.288 346.052 Z" id="e3_areaS3" style="stroke-width: 1px; stroke: none;" class="skin" fill="khaki" transform="matrix(-1, 0, 0, -1, 2394.917889, 777.051922)"/>
    <circle class="lines" id="e3_circle" cx="432.0762023925781" cy="336" style="stroke-width: 1px; stroke: none;" r="25.4951" fill="black" transform="matrix(-0.944912, 0, 0, 1, 1608.319946, 107)"/>
  </g>
</svg>