<?xml version="1.0" encoding="utf-8"?>
<svg width="86" height="380" viewBox="202.715 584.407 86.5933 380.048" preserveAspectRatio="xMidYMid meet" xmlns="http://www.w3.org/2000/svg">
  <rect id="svgEditorBackground" x="202.71499633789062" y="584.406982421875" width="86.59329986572266" height="380.0480041503906" style="fill: none; stroke: none;"/>
  <defs id="svgEditorDefs">
    <path id="svgEditorClosePathDefs" class="skin" fill="black" style="stroke-width: 0px; stroke: none;"/>
  </defs>
  <g transform="matrix(0.052535, 0, 0, 0.052535, 219.966324, 572.539734)">
    <rect id="rect-1" x="-116.457" y="611.267" width="1312.151" height="717.106" style="fill: none; stroke: none;"/>
    <polygon stroke="black" stroke-width="1" id="e6_areaS2" style="fill: none;" points="287.595 940.428" transform="matrix(0.91087, 0.412693, -0.412693, 0.91087, 413.741514, -34.868241)"/>
    <polygon stroke="black" stroke-width="1" id="e1_areaS2" style="fill: none;" points="287.595 940.428" transform="matrix(0.91087, 0.412693, -0.412693, 0.91087, 413.741514, -34.868241)"/>
    <polygon stroke="black" stroke-width="1" id="e2_areaS2" style="fill: none;" points="814.073 716.257" transform="matrix(-0.801337 0.412693 0.363066 0.91087 1154.21 -47.951)"/>
    <polygon stroke="black" stroke-width="1" id="e3_areaS2" style="fill: none;" points="814.073 716.257" transform="matrix(-0.801337 0.412693 0.363066 0.91087 1154.21 -47.951)"/>
  </g>
  <path class="lines" d="M223.54769053021238,610.504235159804c2.4782809023610355,-7.702326980400585,-1.5559329133332938,0.06852772254842424,-17.869935684337975,-13.746139400276093c7.565287532491226,5.237032062299022,31.093160107045094,4.4198181943045265,35.05256813062704,2.7492521932448426c3.9594080235819433,-1.670566001059683,18.340349368034225,3.25506172010671,16.495330810546847,4.81109619140625c-6.656155087886077,-1.880491621842225,-18.137798858730633,-2.0549170181625414,-19.244552612304688,0c-1.1067537535740541,2.054917018162655,-14.162470672378731,8.389676246998533,-14.43341064453125,6.185791015625Z" id="e5_area3" fill="black" style="stroke: none; stroke-width: 0px;" transform="matrix(0.641023 0 0 0.700839 73.2001 192.636)"/>
  <ellipse id="e6_ellipse" class="whites" cx="228.074" cy="621.448" style="stroke-width: 0px; stroke: none;" rx="12.701399803161621" ry="6.913360118865967" fill="white"/>
  <path class="lines" d="M215.01727294921875,624.1927490234375c2.877985040417002,-0.1781952820878132,11.063564840921742,5.140996577778424,12.371490478515625,3.4365234375c1.3079256375938826,-1.7044731402784237,14.423753568115046,-6.383666776017321,13.746109008789062,-3.4365234375c-0.6776445593259837,2.9471433385173214,-11.629423867347242,3.7605570364473806,-13.058807373046875,5.4984130859375c-1.429383505699633,1.7378560494901194,-12.500251061532936,-4.63291258522122,-13.058792114257812,-5.4984130859375Z" id="e8_area3" fill="black" style="stroke: none; stroke-width: 0px;"/>
  <path class="lines" d="M270.4313975671393,611.4849243555284c2.4782809023610355,-7.702326980400585,-1.5559329133332938,0.06852772254842428,-17.869935684337975,-13.746139400276093c7.565287532491226,5.237032062299022,31.093160107045094,4.4198181943045265,35.05256813062704,2.7492521932448426c3.9594080235819433,-1.670566001059683,18.340349368034225,3.25506172010671,16.495330810546847,4.81109619140625c-6.656155087886077,-1.880491621842225,-18.137798858730633,-2.0549170181625414,-19.244552612304688,0c-1.1067537535740541,2.054917018162655,-14.162470672378731,8.389676246998533,-14.43341064453125,6.185791015625Z" id="e1_area3" fill="black" style="stroke: none; stroke-width: 0px;" transform="matrix(-0.563939 0 0 0.700839 428.842 191.949)"/>
  <ellipse id="e1_ellipse" class="whites" cx="258.1274719238281" cy="622.1353149414062" style="stroke-width: 0px; stroke: none;" rx="12.7014" ry="6.91336" fill="white" transform="matrix(-0.879749 0 0 1 493.24 -0.687305)"/>
  <path class="lines" d="M245.07080935195734,624.8800542420659c2.877985040417002,-0.17819528208781327,11.063564840921742,5.140996577778424,12.371490478515625,3.4365234375c1.3079256375938826,-1.7044731402784237,14.423753568115046,-6.383666776017321,13.746109008789062,-3.4365234375c-0.6776445593259841,2.9471433385173214,-11.629423867347242,3.7605570364473806,-13.058807373046875,5.4984130859375c-1.4293835056996333,1.7378560494901194,-12.500251061532936,-4.63291258522122,-13.058792114257812,-5.4984130859375Z" id="e2_area3" fill="black" style="stroke: none; stroke-width: 0px;" transform="matrix(-0.879749 0 0 1 493.24 -0.687305)"/>
  <ellipse class="irises" transform="matrix(0.999998, 0, 0, 1.000003, -169.782184, 568.240647)" style="stroke-width: 0; fill: rgb(35, 191, 4);" cx="397.376" cy="52.796" rx="6.643" ry="6.643"/>
  <ellipse class="irises" transform="matrix(1, 0, 0, 1.000004, -190.64325, 567.937223)" style="stroke-width: 0; fill: rgb(35, 191, 4);" cx="456.981" cy="52.796" rx="6.945" ry="6.643"/>
</svg>