<?xml version="1.0" encoding="utf-8"?>
<svg id="woman" width="86" height="380" viewBox="202.715 584.407 86.5933 380.048" preserveAspectRatio="xMidYMid meet" xmlns="http://www.w3.org/2000/svg">
  <defs id="svgEditorDefs">
    <path id="svgEditorClosePathDefs" class="lines" fill="black" style="stroke-width: 0px; stroke: none;"/>
  </defs>
  <g transform="matrix(0.135137, 0, 0, 0.135137, 412.141602, 774.910645)">
    <g id="layer1" transform="translate(-43.762 -19.407)">
      <g id="g13437" transform="matrix(-5.765318, -7.920144, -8.257332, 6.010768, 6769.932617, 489.509003)">
        <path id="path13373" style="fill-rule: evenodd; stroke-width: 0.25pt; stroke: rgb(226, 26, 226); fill: rgb(109, 189, 168);" d="M 410.007 663.84 C 406.127 664.39 396.16 660.64 396.29 661.54 C 396.74 664.64 398.77 664.92 400.49 665.41 C 403.26 666.19 405.99 665.22 409.44 665.19 C 412.16 665.16 413.52 663.96 417.89 663.42 C 421.02 663.03 423.88 662.73 427.06 662.53 C 428.78 662.43 431.08 661.97 432.09 661.21 C 432.48 660.92 431.54 659.99 431.26 659.39"/>
        <path id="path13378" style="stroke-width: 0.25pt; stroke: rgb(226, 26, 226); fill: rgb(109, 189, 168);" d="m404.03 657.07c1.44 0.42 1.67 0.91 2.06 1.82 3.25 0.55 4.05 3.24 4.13 5.52 0.57-0.24 0.92-0.14 1.49-0.38 0.42-2.38-0.26-4.26-2.05-5.64 0.98-0.85 1.96-1.69 2.93-2.54 2.41 1.2 3.61 4.94 3.65 7.07 0.75-0.13 1.51-0.26 2.26-0.39 0.3-2.48-1.78-6.73-4.14-8.28 1.32-1.01 2.65-2.03 3.98-3.04 2.17 3.17 3.46 7.22 4.53 10.66 0.75 0.09 1.73-0.03 2.48 0.06-0.97-4.39-2.78-8.11-4.97-12.1 2.8 1.64 5.65 1.67 8.56 1.77-1.91 3.22-3.11 6.88-4.75 10.11 0.94 0.03 1.94 0.13 2.87 0.16 1.48-3.42 2.73-7.35 4.2-10.77 0.06-0.66 0.11-1.33 0.17-1.99-3.87 0.09-7.62-0.2-11.27-1.88-3.67 3.13-7.33 6.26-10.99 9.39-1.72 0.15-3.43 0.3-5.14 0.45z"/>
      </g>
    </g>
  </g>
  <g transform="matrix(-0.119244, 0.073372, 0.070818, 0.115094, 29.893795, 877.478027)">
    <g id="g-1" transform="translate(-43.762 -19.407)">
      <g id="g-2" transform="matrix(-5.765318, -7.920144, -8.257332, 6.010768, 6769.932617, 489.509003)">
        <path id="path-1" style="fill-rule: evenodd; stroke-width: 0.25pt; stroke: rgb(226, 26, 226); fill: rgb(109, 189, 168);" d="M 407.724 663.911 C 405.951 664.218 402.652 663.211 400.053 662.389 C 397.909 661.713 399.118 659.648 398.951 660.029 C 397.496 663.343 398.357 665.008 399.791 665.506 C 402.1 666.299 404.375 665.313 407.251 665.283 C 409.519 665.252 410.652 664.033 414.295 663.484 C 416.904 663.088 419.288 662.783 421.939 662.58 C 423.372 662.479 425.29 662.011 426.131 661.239 C 426.457 660.944 425.673 660 425.44 659.39" transform="matrix(1, 0, 0, 1, -0.000047, 0.000027)"/>
        <path id="path-2" style="stroke-width: 0.25pt; stroke: rgb(226, 26, 226); fill: rgb(109, 189, 168);" d="M 403.917 660.104 C 405.357 660.538 405.072 659.852 405.462 660.793 C 408.712 661.361 409.512 664.141 409.592 666.497 C 410.162 666.249 410.512 666.353 411.082 666.104 C 411.502 663.645 410.822 661.702 409.032 660.276 C 410.012 659.397 410.992 658.529 411.962 657.651 C 414.372 658.891 415.572 662.756 415.612 664.958 C 416.362 664.823 417.122 664.689 417.872 664.554 C 418.172 661.991 416.092 657.599 413.732 655.998 C 415.052 654.954 416.382 653.9 417.712 652.856 C 419.882 656.132 421.172 660.317 422.242 663.872 C 422.992 663.965 423.972 663.841 424.722 663.934 C 423.752 659.397 421.942 655.554 419.752 651.43 C 422.552 653.125 425.402 653.155 428.312 653.259 C 426.402 656.587 425.202 660.368 423.562 663.707 C 424.502 663.738 425.502 663.841 426.432 663.872 C 427.912 660.338 429.162 656.277 430.632 652.742 C 430.692 652.06 430.742 651.368 430.802 650.686 C 426.932 650.779 423.182 650.479 419.532 648.743 C 415.862 651.978 412.202 655.212 408.542 658.447 C 406.822 658.602 405.627 659.949 403.917 660.104 Z" transform="matrix(0.937619, 0.301241, -0.334639, 0.959018, 246.084583, -98.69748)"/>
      </g>
    </g>
  </g>
</svg>