<svg class="shoes" width="86" height="380" viewBox="202.715 584.407 86.593 380.048" xmlns="http://www.w3.org/2000/svg" xmlns:xlink="http://www.w3.org/1999/xlink"><defs><pattern id="h" patternTransform="scale(2.8174)" xlink:href="#a"/><pattern id="g" patternTransform="scale(.29409)" xlink:href="#b"/><pattern id="f" patternTransform="scale(.60417)" xlink:href="#c"/><pattern id="e" patternTransform="translate(1024 446.51)" xlink:href="#d"/><pattern id="d" width="129.796" patternUnits="userSpaceOnUse" patternTransform="translate(834.11 482.88)" height="226.417"><path d="M21.601 52.341S45.887-9.088 80.173 3.769c34.287 12.858 62.857 54.286 38.567 77.143C94.458 103.77 24.458 185.202 5.89 152.34c-18.575-32.86 34.283-81.428 55.711-71.428 21.429 10 65.719-28.571 64.289 39.998-1.43 68.57-37.146 128.57-54.289 92.86S23.03 55.2 21.601 52.34z" fill-rule="evenodd" stroke="#053fa0" stroke-width="4" fill="#ffed00"/></pattern><pattern id="c" width="193.949" patternUnits="userSpaceOnUse" patternTransform="translate(1004.1 440.81)" height="232.117"><path fill-rule="evenodd" fill="#fff" d="M1004.1 440.81h193.95v231.73H1004.1z" transform="translate(-1004.1 -440.81)"/><path fill="url(#e)" d="M1024 446.51h129.8v226.42H1024z" transform="translate(-1004.1 -440.81)"/></pattern><pattern id="b" width="117.178" patternUnits="userSpaceOnUse" patternTransform="translate(979.85 512.49)" height="140.238"><path fill="url(#f)" d="M0 0h117.18v140.24H0z"/></pattern><pattern id="a" width="34.461" patternUnits="userSpaceOnUse" patternTransform="translate(979.85 611.48)" height="41.243"><path fill="url(#g)" d="M0 0h34.461v41.243H0z"/></pattern><radialGradient id="j" gradientUnits="userSpaceOnUse" cy="4.317" cx="-244.78" gradientTransform="matrix(1 0 0 .99358 0 .028)" r="18.846"><stop offset="0" stop-color="#4d4d4d"/><stop offset="1" stop-color="#4c3b34"/></radialGradient><linearGradient id="k" y2="220.86" gradientUnits="userSpaceOnUse" x2="409.7" y1="340.76" x1="409.58"><stop offset="0"/><stop offset="1" stop-opacity="0"/></linearGradient><linearGradient id="l" y2="231.21" gradientUnits="userSpaceOnUse" x2="532.83" y1="229.45" x1="555.37"><stop offset="0" stop-color="#4a3932"/><stop offset="1" stop-color="#706059"/></linearGradient><radialGradient id="m" gradientUnits="userSpaceOnUse" cy="429.19" cx="244.77" r="12.446"><stop offset="0" stop-color="#999"/><stop offset="1" stop-color="#7c6c65"/></radialGradient><linearGradient id="n" y2="274.82" gradientUnits="userSpaceOnUse" x2="391.34" y1="252.52" x1="380.11"><stop offset="0"/><stop offset="1" stop-opacity="0"/></linearGradient><linearGradient id="o" y2="268.1" gradientUnits="userSpaceOnUse" x2="404.26" y1="256.07" x1="393.89"><stop offset="0"/><stop offset="1" stop-opacity="0"/></linearGradient><linearGradient id="p" y2="80.156" gradientUnits="userSpaceOnUse" x2="512.16" y1="116.66" x1="449.04" gradientTransform="matrix(1.6825 0 0 .79752 -234.733 41.038)"><stop offset="0" stop-color="#805d37"/><stop offset=".441" stop-color="#2b1100"/><stop offset="1" stop-color="#805d37"/></linearGradient><linearGradient id="q" gradientUnits="userSpaceOnUse" x1="-409.939" y1="133.527" x2="-409.939" y2="348.727"><stop offset="0" stop-color="#aae1e4"/><stop offset="1" stop-color="#5cc6cb"/></linearGradient><radialGradient id="i" gradientUnits="userSpaceOnUse" cx="476.888" cy="153.294" r="52.885"><stop offset="0" stop-color="#7bcece"/><stop offset="1" stop-color="#3da6a6"/></radialGradient></defs><path d="M261.03 951.765l1.19-.884-.113-4.484-2.606-1.835 1.53 7.203z"/><path d="M433.13 196.03c-.217-5.831-1.105-11.618-1.681-17.425-1.07-10.79-2.319-21.562-3.297-32.36-1.578-17.408-4.149-52.274-4.149-52.274l.83-10.787s20.935-12.522 32.36-11.616c6.293.499 10.285 8.912 16.595 9.127 8.533.291 14.699-10.508 23.233-10.787 9.189-.3 25.722 9.957 25.722 9.957s4.114 26.049 2.963 38.998c-.397 4.475 3.788 8.787 3.949 13.276.082 2.279.159 5.665.093 7.945-.134 4.634-.389 5.947-.784 10.567-.356 4.17-.427 9.711.208 13.848.98 6.382-1.692 12.872.07 19.084 1.219 4.299-1.238 7.987-1.521 12.446-.36 5.684-8.297 14.935-8.297 14.935l-23.706 21.09-11.973 4.632-51.103-18.254s.766-14.939.489-22.403l-.001.001z" fill="url(#i)" transform="matrix(-.1931 0 0 .23161 352.747 885.041)"/><path d="M286.536 947.663s-.316-1.389-.567-2.039c-.06-.158-.027-.4-.226-.447-1.468-.347-2.715.373-4.079.447-.569.032-1.148-.108-1.723-.066-.608.045-1.21.265-1.79.066-.185-.063-.306-.301-.491-.367-.46-.165-.987.146-1.442-.04-.533-.218-.909-.8-1.362-1.2-.36-.32-.738-.616-1.082-.962-.535-.538-1.113-1.05-1.522-1.73-1.44-2.394-2.459-5.18-3.124-8.023-.098-.419-.184-.869-.12-1.297.047-.317.286-.555.36-.865.075-.31.231-.695.08-.96-.054-.097-.186-.125-.28-.097-.54.162-.853.872-1.202 1.393-.128.191-.263.39-.32.625-.207.845.32 1.875-.04 2.642-.357.76-1.175 1.052-1.843 1.394-1.329.679-2.765 1.128-4.206 1.249-1.42.119-2.897.015-4.246-.529-1.392-.56-2.614-1.646-3.766-2.738a15.034 15.034 0 0 1-2.443-2.979c-.1-.161-.074-.516-.24-.528-.284-.02-.05 1.786-.24 2.642-.095.423-.326.786-.441 1.201-.13.468-.25.95-.28 1.441-.04.61.062 1.22.12 1.826.071.756.093 1.531.28 2.258.117.46.302.896.52 1.298.068.123.24.336.24.336l6.17.625 5.287 4.516 5.007 6.246 7.21 1.393 8.372-2.595 3.429-4.136z" fill="#50a7a0"/><path d="M287.328 947.575s-2.697 3.013-4.26 4.157c-1.689 1.236-3.506 2.339-5.438 2.853-1.917.512-3.953.56-5.891.176a13.204 13.204 0 0 1-5.245-2.31c-1.571-1.158-2.671-3.05-4.046-4.524-.778-.835-2.379-2.446-2.379-2.446l1.02 6.346-6.038.04-4.726-10.6s2.343-.216 3.513-.135c1.029.071 2.067.207 3.059.544 1.107.376 2.23.839 3.172 1.63 1.4 1.176 2.283 3.06 3.512 4.485 1.084 1.255 2.14 2.58 3.4 3.573 1.152.91 2.392 1.77 3.738 2.134 1.621.44 3.34.287 4.985 0a13.096 13.096 0 0 0 4.192-1.495c1.895-1.072 3.563-2.663 5.212-4.212.425-.4 1.2-1.304 1.2-1.304s.593-.025.793.192c.193.21.227.896.227.896z" fill="#1c110b"/><path d="M244.114 941.552c.348.133.672-1.894 1.034-1.946.38-.056 1.159 1.78 1.502 1.572.327-.198-.653-1.914-.428-2.26.237-.362 1.879.309 2-.129.115-.416-1.58-.764-1.625-1.2-.047-.456 1.512-1.458 1.336-1.869-.167-.391-1.616.79-1.906.522-.305-.282.244-2.279-.12-2.424-.347-.137-.635 1.928-.998 1.98-.381.053-1.223-1.783-1.562-1.571-.324.201.68 1.881.454 2.228-.237.363-1.914-.256-2.032.183-.113.417 1.612.772 1.66 1.206.051.456-1.516 1.439-1.34 1.848.166.389 1.595-.813 1.882-.54.301.285-.222 2.26.143 2.4z" fill="#7c6c65"/><path transform="matrix(-.12223 .12383 .10324 .1466 214.638 967.373)" d="M-229.07 15.048c-1.105 1.765-8.741-4.408-10.48-3.265-1.827 1.199.417 10.736-1.719 11.243-2.034.483-3.03-9.357-5.07-9.784-2.143-.449-7.242 8.034-9.112 6.89-1.781-1.089 4.538-8.594 3.398-10.34-1.197-1.833-11.063.263-11.558-1.876-.472-2.037 9.469-3.079 9.908-5.121.461-2.145-8.058-7.379-6.914-9.246 1.089-1.777 8.681 4.669 10.421 3.517 1.826-1.21-.14-10.975 1.99-11.458 2.029-.46 2.81 9.341 4.858 9.768 2.15.448 7.557-7.973 9.417-6.816 1.77 1.102-4.655 8.742-3.533 10.497C-236.287.9-226.44-1.298-225.95.833c.466 2.029-9.45 2.922-9.864 4.967-.434 2.147 7.904 7.395 6.744 9.249v-.001z" fill="url(#j)"/><path d="M525.38 239.56c-5.683.048-13.212.244-18 .844-8.29 1.038-17.081 1.504-24.469 5.406-5.709 3.016-9.485 8.759-14.094 13.281-6.072 5.959-11.602 12.468-17.844 18.25-4.897 4.536-9.316 10.008-15.344 12.875-7.25 3.449-15.631 4.356-23.656 4.562-6.98.18-14.04-.975-20.75-2.906-8.447-2.431-16.629-6.121-24.062-10.812-3.07-1.937-5.119-5.249-8.281-7.031-3.198-1.802-6.693-3.678-10.281-4.531.599.527 1.17 1.026 1.656 1.406 8.541 6.689 17.189 13.557 27 18.188 6.827 3.222 14.248 5.382 21.719 6.469 8.515 1.239 17.419 1.895 25.812 0 6.972-1.574 13.373-5.29 19.344-9.219 6.518-4.288 12.014-10.017 17.625-15.438 6.368-6.152 10.933-14.266 18.188-19.344 4.881-3.417 10.674-5.408 16.406-7.031 5.136-1.455 10.514-2.069 15.844-2.375 4.523-.26 12.062.189 15.75.437a24.49 24.49 0 0 0 1.656-3.031c-1.214-.002-2.59-.014-4.219 0z" fill="url(#k)" transform="matrix(-.1931 0 0 .23161 352.747 885.041)"/><path d="M537.26 222.58l17.01-2.074 7.053 3.733s1.574 4.497.415 6.224c-1.219 1.815-6.223 2.074-6.223 2.074l-3.319-4.564-16.18 3.734 1.244-9.127z" fill="url(#l)" transform="matrix(-.1931 0 0 .23161 352.747 885.041)"/><path d="M257.22 429.19c0 6.874-5.572 12.446-12.446 12.446s-12.446-5.572-12.446-12.446 5.572-12.446 12.446-12.446 12.446 5.572 12.446 12.446z" transform="matrix(-.03038 0 0 .03644 252.383 922.26)" fill="url(#m)"/><path d="M386.28 261.56c-1.265.362-2.542.402-3.844.313-.316 2.042-.45 4.2.094 5.656 1.404 3.759 8.812 8.219 8.812 8.219s-4.615-5.426-5.281-8.782c-.287-1.447-.11-3.466.219-5.406z" fill="url(#n)" transform="matrix(-.1931 0 0 .23161 352.747 885.041)"/><path d="M397.53 259.25c-.392.211-.793.417-1.219.563-.402.137-.829.185-1.25.218l7.438 6.938s-3.727-4.393-4.969-7.719z" fill="url(#o)" transform="matrix(-.1931 0 0 .23161 352.747 885.041)"/><path d="M585.097 123.933l-39.188-.114 5.929-27.659s7.131-3.521 11.784-3.548c5.202-.031 13.377 3.811 13.377 3.811l8.098 27.51z" fill="url(#p)" transform="matrix(-.1931 0 0 .23161 352.747 885.041)"/><path d="M-453.981 348.439c27.561-46.943 23.508 4.543 38.909 0 13.033-3.844 22.759-4.601 29.182-2.271 28.19 10.227 26.569-12.487-4.863-68.143-16.281-28.827-14.66-61.385 4.863-97.672 8.681-16.137-27.74-54.615-31.613-45.428-13.088 31.041-33.362 12.606-26.751 72.685" transform="translate(129.04 999.03) scale(.2703)" stroke="#000" fill="url(#q)"/><path d="M232.465 952.202c1.168 4.953 3.609 7.043 7.927 9.594 1.761 1.041 4.577-1.866 8.448-8.719 1.546-2.738-.895-.328-7.322 7.231" fill="#080808"/></svg>