<svg class="shoes" width="86" height="380" viewBox="202.715 584.407 86.593 380.048" xmlns="http://www.w3.org/2000/svg"><g stroke-width=".25pt" stroke="#e21ae2" fill="#4b095d"><path d="M410.007 663.84c-3.88.55-13.847-3.2-13.717-2.3.45 3.1 2.48 3.38 4.2 3.87 2.77.78 5.5-.19 8.95-.22 2.72-.03 4.08-1.23 8.45-1.77 3.13-.39 5.99-.69 9.17-.89 1.72-.1 4.02-.56 5.03-1.32.39-.29-.55-1.22-.83-1.82" fill-rule="evenodd" transform="matrix(-.7791 -1.0703 -1.11587 .81228 1321.096 838.439)"/><path d="M404.03 657.07c1.44.42 1.67.91 2.06 1.82 3.25.55 4.05 3.24 4.13 5.52.57-.24.92-.14 1.49-.38.42-2.38-.26-4.26-2.05-5.64.98-.85 1.96-1.69 2.93-2.54 2.41 1.2 3.61 4.94 3.65 7.07l2.26-.39c.3-2.48-1.78-6.73-4.14-8.28 1.32-1.01 2.65-2.03 3.98-3.04 2.17 3.17 3.46 7.22 4.53 10.66.75.09 1.73-.03 2.48.06-.97-4.39-2.78-8.11-4.97-12.1 2.8 1.64 5.65 1.67 8.56 1.77-1.91 3.22-3.11 6.88-4.75 10.11.94.03 1.94.13 2.87.16 1.48-3.42 2.73-7.35 4.2-10.77.06-.66.11-1.33.17-1.99-3.87.09-7.62-.2-11.27-1.88-3.67 3.13-7.33 6.26-10.99 9.39l-5.14.45z" transform="matrix(-.7791 -1.0703 -1.11587 .81228 1321.096 838.439)"/></g><g stroke-width=".25pt" stroke="#e21ae2" fill="#4b095d"><path d="M407.724 663.911c-1.773.307-5.072-.7-7.671-1.522-2.144-.676-.935-2.741-1.102-2.36-1.455 3.314-.594 4.979.84 5.477 2.309.793 4.584-.193 7.46-.223 2.268-.031 3.401-1.25 7.044-1.799 2.609-.396 4.993-.701 7.644-.904 1.433-.101 3.351-.569 4.192-1.341.326-.295-.458-1.239-.691-1.849" transform="matrix(.1266 -1.33457 1.4103 .08595 -738.87 1425.097)" fill-rule="evenodd"/><path d="M403.917 660.104c1.44.434 1.155-.252 1.545.689 3.25.568 4.05 3.348 4.13 5.704.57-.248.92-.144 1.49-.393.42-2.459-.26-4.402-2.05-5.828.98-.879 1.96-1.747 2.93-2.625 2.41 1.24 3.61 5.105 3.65 7.307l2.26-.404c.3-2.563-1.78-6.955-4.14-8.556 1.32-1.044 2.65-2.098 3.98-3.142 2.17 3.276 3.46 7.461 4.53 11.016.75.093 1.73-.031 2.48.062-.97-4.537-2.78-8.38-4.97-12.504 2.8 1.695 5.65 1.725 8.56 1.829-1.91 3.328-3.11 7.109-4.75 10.448.94.031 1.94.134 2.87.165 1.48-3.534 2.73-7.595 4.2-11.13.06-.682.11-1.374.17-2.056-3.87.093-7.62-.207-11.27-1.943-3.67 3.235-7.33 6.469-10.99 9.704-1.72.155-2.915 1.502-4.625 1.657z" transform="matrix(.54354 -1.22543 1.31015 .52902 -846.912 1088.196)"/></g></svg>