<svg class="shirtOverlay" width="86" height="380" viewBox="202.715 584.407 86.593 380.048" xmlns="http://www.w3.org/2000/svg" xmlns:xlink="http://www.w3.org/1999/xlink"><defs><pattern id="ah" width="20" height="20" patternUnits="userSpaceOnUse" viewBox="0 0 100 100"><g transform="matrix(.15572 0 0 .28517 1.168 9.229)"><path d="M-792.69 164.69c2.296-6.592 31.373-15.242 44.561-21.834 51.47-6.38 89.729.383 143.83 2.947 25.206 12.636 30.867 8.04 43.348 17.604-30.247 6.592-51.065 12.447-70.39 19.04z" stroke-width="0" fill="#2d2d2d" transform="translate(1089 -99.63)"/><g stroke-width="0"><path d="M352.29 254.45c-1.67.84-3.068 2.413-3.779 4.14-2.35 5.713 1.023 12.6-.755 18.515-2.526 8.398-13.603 22.52-13.603 22.52l55.924 2.464s4.839-14.19 3.778-21.336c-.571-3.852-4.575-6.588-5.29-10.416-.917-4.914 3.606-10.382 1.512-14.92-1.027-2.226-3.673-3.573-6.046-4.184-10.298-2.653-22.24-1.563-31.74 3.216zm2.716 5.737c7.291-3.678 16.467-4.527 24.372-2.48 1.82.47 3.843 1.513 4.629 3.221 1.601 3.483-1.862 7.675-1.157 11.443.548 2.938 3.623 5.036 4.062 7.992.813 5.484-2.905 16.375-2.905 16.375l-42.911-1.884s8.498-10.839 10.438-17.284c1.367-4.54-1.212-9.828.59-14.215.542-1.32 1.607-2.526 2.881-3.168z" fill="#2d2d2d" transform="matrix(.9859 .10044 0 1.0805 66.1 -297.03)"/><path d="M320.36 284.98l17.691-24.653s-1.437-14.657.626-20.943c.579-1.765 1.648-3.455 3.128-4.189 7.707-3.822 17.851-3.53 26.28.698 2.076 1.042 4.17 3.13 5.006 5.585 1.877 5.508 4.106 11.934 4.106 11.934l2.773 17.944c-2.293 7.727 10.12-9.661.085 21.717z" transform="matrix(.67797 -.02565 0 .63785 184.24 -118.154)" filter="url(#a)" fill="#2d2d2d"/><path d="M351.87 258.44l-3.118 3.61s.859 10.965-.624 16.142c-2.077 7.248-11.227 19.635-11.227 19.635l46.154 2.148s4.002-12.377 3.118-18.602c-.472-3.325-4.156-5.04-2.524-7.976 1.954-3.512 3.504-12.943-.594-14.114l-4.99-3.647zm2.241 5.002l20.114-2.163 3.82 2.81s-1.541 6.687-.954 9.976c.452 2.537 2.99 4.416 3.352 6.968.678 4.778-2.397 14.277-2.397 14.277l-35.414-1.643s7.02-9.507 8.614-15.069c1.14-3.974.488-12.393.488-12.393z" fill="#666" transform="matrix(.9859 .10044 0 1.0805 66.1 -297.03)"/></g><path d="M-1058.8 353.13c-3.441 34.327 294.48 54.899 351.51 30.758l198.96-84.222-201.32-4.473s-339.09-42.417-349.16 57.936z" filter="url(#b)" stroke-width="0" fill="#999" transform="translate(1089 -99.63)"/><path d="M443.74 506.14c-2.24 7.149-13.709 13.265-46.744 14.024-31.057.713-48.744-3.723-42.744-10.032 6.72-7.067 22.368-15.752 49.744-15.553 20.92.152 43.744-1.204 39.744 11.561z" transform="matrix(1.6453 0 0 1.2645 -538.8 -397.03)" opacity=".668" filter="url(#c)" stroke-width="0" fill="#2d2d2d"/><path d="M443.74 506.14c-2.24 7.149-13.709 13.265-46.744 14.024-31.057.713-48.744-3.723-42.744-10.032 6.72-7.067 22.368-15.752 49.744-15.553 20.92.152 43.744-1.204 39.744 11.561z" transform="matrix(2.4997 .15284 -.20552 .80951 -695.5 -215)" opacity=".951" filter="url(#d)" stroke-width="0" fill="#2d2d2d"/><path d="M614.62 441.54c-2.24 7.149-13.709 13.265-46.744 14.024-31.057.713-48.744-3.723-42.744-10.032 6.72-7.067 22.368-15.752 49.744-15.553 20.92.152 43.744-1.204 39.744 11.561z" transform="matrix(1.0079 0 0 1.1331 -50.7 -303.56)" opacity=".868" filter="url(#e)" stroke-width="0" fill="#666"/><path d="M443.74 506.14c-2.24 7.149-13.709 13.265-46.744 14.024-31.057.713-48.744-3.723-42.744-10.032 6.72-7.067 22.368-15.752 49.744-15.553 20.92.152 43.744-1.204 39.744 11.561z" transform="matrix(1.7779 0 0 2.9313 -326.9 -1231.93)" opacity=".4" filter="url(#c)" stroke-width="0" fill="#2d2d2d"/><path d="M606.41 368.85c0 19.565-9.33 35.426-20.839 35.426s-20.839-15.861-20.839-35.426 9.33-35.426 20.839-35.426 20.839 15.861 20.839 35.426z" transform="translate(-27.8 -237.17)" stroke-width="0" fill="#0e232e"/><path d="M518 545.36c0 22.644-16.789 41-37.5 41s-37.5-18.356-37.5-41 16.789-41 37.5-41 37.5 18.356 37.5 41z" transform="translate(-79.8 -394.17)" stroke-width="0" fill="#0e232e"/><path d="M-1054.4 298.11c-4.512-36.344 17.622-67.746 60.083-71.621 39.92-3.643 62.654 19.011 54.942 51.234-8.639 36.093-28.751 80.442-63.939 79.429-26.89-.774-45.227-11.851-51.086-59.043z" stroke-width="0" fill="url(#f)" transform="translate(1089 -99.63)"/><path d="M-669.05 300.08c-2.24 42.08-9.289 77.347-42.323 81.813-10.352 1.4-23.639.168-30.638-4.453-13.999-9.244-20.526-29.102-16.526-53.862 6.72-41.601 22.368-92.717 49.744-91.55 20.92.892 43.744-7.088 39.744 68.053z" stroke-width="0" fill="url(#g)" transform="translate(1089 -99.63)"/><path d="M-870.92 164.85s-4.196-3.865-4.038-6.813c14.323-25.293-27.753-32.424-30.42-7.949.403 12.17 14.765 6.973 20.459 8.706 2.149.63 3.769 13.248 3.769 13.248s4.34.91 6.192-.379c1.884-1.311 4.038-6.813 4.038-6.813z" stroke-width="0" fill="url(#h)" transform="translate(1089 -99.63)"/><path d="M-534.22 206.55c-.37-.03-.745-.025-1.12-.024-1.235.004-2.473.17-3.743.508-14.847 3.96-23.052 39.104-23.052 66.841 5.593 10.383 3.254 22.375 13.425 27.08 6.554 3.033 15.459 1.739 21.518-1.05 12.394-5.704 26.52-74.52.382-90.574-.009-.007-.028.004-.038-.002-2.307-1.594-4.784-2.57-7.372-2.78zM-623.92 138.33c-1.111 1.526-8.89 22.506-8.15 24.032.741 1.526 32.228 2.289 32.228 2.289l-5.553-22.334z" stroke-width="0" fill="#0e232e" transform="translate(1089 -99.63)"/><path d="M-630.22 164.65c-1.482 1.144-10.372 11.444-10.372 11.444l47.785 3.433-7.038-13.35z" stroke-width="0" fill="#364e59" transform="translate(1089 -99.63)"/><path d="M-1017.8 224.18c-26.561-10.123-26.672 22.043-43.996 23.11-3.411.21-8.803-.785-11.392 1.572 8.888-103.26 125.63-68.05 178.67-85.565-44.657 17.072-71.463.596-123.28 60.882z" stroke-width="0" fill="url(#i)" transform="translate(1089 -99.63)"/><path d="M-1019.3 222.7c77.844 13.841 120.29 21.297 182.67 19.582 77.251-35.391 134.39-33.987 196.79-65.819-65.793-12.694-172.21-11.305-252.65-14.176-45.069 18.718-72.223-1.39-126.81 60.414z" stroke-width="0" fill="url(#j)" transform="translate(1089 -99.63)"/><path d="M-717.85 249.48c-11.949-4.058-35.21 1.859-48.12-7.9-18.887-14.277-47.902-11.5-69.202.328 12.289-12.654 146.66-47.056 195.55-64.445l11.613-1.061c12.645 1.478 17.361 128.51 4.026 127.44-4.105-.332-47.487 21.193-47.487 21.193 9.234-78.96-20.804-111.85-46.377-75.55z" stroke-width="0" fill="url(#k)" transform="translate(1089 -99.63)"/><path d="M-624.78 304.05l61.401-18.227c4.866-40.14 11.844-80.272-4.026-120.5l-58.382 12.151c9.72 42.867 7.336 83.709 1.006 126.58z" stroke-width="0" fill="url(#l)" transform="translate(1089 -99.63)"/><path d="M-671.19 326.76l2.038-8.303 105.78-36.217c6.01-37.411 7.76-77.093-4.628-117.14l6.11-1.364c-10.584-12.662-2.493.323-11.5-10.778 82.968 14.538 58.626 48.176 63.288 98.868-2.583-80.082-33.382-67.207-42.148 28.352-1.421 6.385-8.739 15.202-16.44 14.884-1.396-.058-1.416.44-2.715-.072-4.458-1.761-16.771 3.433-16.771 3.433z" stroke-width="0" fill="url(#m)" transform="translate(1089 -99.63)"/><path d="M-1055.7 246.6l-17.044 1.25c-11.259 40.241 7.048 77.568 55.288 86.473 7.668 1.194-14.536-25.807-7.144-25.21 69.25 5.595 127.6 17.577 184.44 16.699 2.882-.044-4.242 21.586-1.432 22.06 23.264 3.926 91.978 6.89 100.87-1.125-4.393-58.486 15.647-86.299 21.427-96.689 0 0-43.248-11.717-45.945-6.766 11.542 39.617-74.203 35.771-70.964-1.012-19.839-.74-145.32-14.49-171.13-19.356 3.898 19.034-31.65 52.152-48.375 23.675z" stroke-width="0" fill="url(#n)" transform="translate(1089 -99.63)"/><path d="M438 445.86c0 25.681-6.268 46.5-14 46.5s-14-20.819-14-46.5 6.268-46.5 14-46.5 14 20.819 14 46.5z" transform="matrix(1.523 -.44576 0 1.1072 -254.1 -91.965)" stroke-width="0" fill="url(#o)"/><path d="M-697.47 264.75l-.593 17.164-1.019 22.776-1.038-22.176-.598-16.351c-2.724 2.079-5.196 6.305-7.206 12.013l3.062 12.136 4.09 17.411-5.584-12.489-3.826-9.205c-1.583 6.792-2.626 14.784-2.925 23.297l4.997.956 6.819 2.058-6.878 4.702-4.918 2.836c.316 8.05 1.32 15.325 2.826 21.308l4.404-12.246 5.555-14.514-4.144 19.136-3.459 14.967c2.049 4.986 4.576 8.243 7.358 9.166l.583-16.166 1.039-22.587 1.019 22.357.578 16.419c2.8-.872 5.405-3.996 7.622-8.738l-3.728-14.639-4.144-17.497 5.555 12.302 5.13 12.241c2.216-7.458 3.72-16.882 4.144-27.12l-7.304-1.32-6.878-1.982 6.819-4.755 7.27-4.265.137 1.644c-.371-11.047-2.028-20.698-4.512-27.61l-4.531 12.704-5.58 14.696 4.085-19.044 3.283-14.306c-2.2-3.65-4.764-5.587-7.51-5.28z" stroke-width="0" fill="#0e232e" transform="translate(1089 -99.63)"/><path d="M-468 260.36c0 15.464-8.059 28-18 28s-18-12.536-18-28 8.059-28 18-28 18 12.536 18 28z" transform="matrix(.28571 0 0 .42857 530.59 104.79)" stroke-width="0" fill="url(#p)"/><path d="M-468 260.36c0 15.464-8.059 28-18 28s-18-12.536-18-28 8.059-28 18-28 18 12.536 18 28z" transform="matrix(.28571 0 0 .38438 531.83 117.36)" stroke-width="0" fill="url(#q)"/><g stroke-width="0"><path d="M438 445.86c0 25.681-6.268 46.5-14 46.5s-14-20.819-14-46.5 6.268-46.5 14-46.5 14 20.819 14 46.5z" transform="matrix(.83636 -.27 0 .67062 207.453 -28.298)" fill="url(#o)"/><path d="M415.32 402.28l-.593 17.164-1.019 22.776-1.038-22.176-.598-16.351c-2.724 2.079-5.196 6.305-7.206 12.013l3.062 12.136 4.09 17.411-5.584-12.489-3.826-9.205c-1.583 6.792-2.626 14.784-2.925 23.297l4.997.956 6.819 2.058-6.878 4.702-4.918 2.836c.316 8.05 1.32 15.325 2.826 21.308l4.404-12.246 5.555-14.514-4.144 19.136-3.459 14.967c2.049 4.986 4.576 8.243 7.358 9.166l.583-16.166 1.039-22.587 1.019 22.357.578 16.419c2.8-.872 5.405-3.996 7.622-8.738l-3.728-14.639-4.144-17.497 5.555 12.302 5.13 12.241c2.216-7.458 3.72-16.882 4.144-27.12l-7.304-1.32-6.878-1.982 6.819-4.755 7.27-4.265.137 1.644c-.371-11.047-2.028-20.698-4.512-27.61l-4.531 12.704-5.58 14.696 4.085-19.044 3.283-14.306c-2.2-3.65-4.764-5.587-7.51-5.28z" fill="#0e232e" transform="matrix(.54915 0 0 .60569 333.9 -116.244)"/><path d="M-468 260.36c0 15.464-8.059 28-18 28s-18-12.536-18-28 8.059-28 18-28 18 12.536 18 28z" transform="matrix(.1569 0 0 .25958 638.343 90.878)" fill="url(#p)"/><path d="M-468 260.36c0 15.464-8.059 28-18 28s-18-12.536-18-28 8.059-28 18-28 18 12.536 18 28z" transform="matrix(.1569 0 0 .23282 639.019 98.485)" fill="url(#q)"/></g><path d="M-1020.2 333.95l-8.307-26.388 188.68 15.138 1.169 25.915z" stroke-width="0" fill="#ffc022" transform="translate(1089 -99.63)"/><g stroke-width="0"><path d="M352.29 254.45c-1.67.84-3.068 2.413-3.779 4.14-2.35 5.713 1.023 12.6-.755 18.515-2.526 8.398-13.603 22.52-13.603 22.52l55.924 2.464s4.839-14.19 3.778-21.336c-.571-3.852-4.575-6.588-5.29-10.416-.917-4.914 3.606-10.382 1.512-14.92-1.027-2.226-3.673-3.573-6.046-4.184-10.298-2.653-22.24-1.563-31.74 3.216zm2.716 5.737c7.291-3.678 16.467-4.527 24.372-2.48 1.82.47 3.843 1.513 4.629 3.221 1.601 3.483-1.862 7.675-1.157 11.443.548 2.938 3.623 5.036 4.062 7.992.813 5.484-2.905 16.375-2.905 16.375l-42.911-1.884s8.498-10.839 10.438-17.284c1.367-4.54-1.212-9.828.59-14.215.542-1.32 1.607-2.526 2.881-3.168z" fill="#2d2d2d" transform="matrix(1.0087 0 0 .96013 -36.3 -227.11)"/><path d="M320.36 284.98l17.691-24.653s-1.437-14.657.626-20.943c.579-1.765 1.648-3.455 3.128-4.189 7.707-3.822 17.851-3.53 26.28.698 2.076 1.042 4.17 3.13 5.006 5.585 1.877 5.508 4.106 11.934 4.106 11.934l2.773 17.944c-2.293 7.727 10.12-9.661.085 21.717z" transform="matrix(.69365 -.08416 0 .5668 84.573 -78.856)" filter="url(#a)" fill="#2d2d2d"/><path d="M351.87 258.44l-3.118 3.61s.859 10.965-.624 16.142c-2.077 7.248-11.227 19.635-11.227 19.635l46.154 2.148s4.002-12.377 3.118-18.602c-.472-3.325-4.156-5.04-2.524-7.976 1.954-3.512 3.504-12.943-.594-14.114l-4.99-3.647zm2.241 5.002l20.114-2.163 3.82 2.81s-1.541 6.687-.954 9.976c.452 2.537 2.99 4.416 3.352 6.968.678 4.778-2.397 14.277-2.397 14.277l-35.414-1.643s7.02-9.507 8.614-15.069c1.14-3.974.488-12.393.488-12.393z" fill="#666" transform="matrix(1.0087 0 0 .96013 -36.3 -227.11)"/></g><path d="M-693.54 222.02l41.53-11.178 46.224-6.113 29.033-8.53-8.295-24.707-66.361 22.158-39.402 6.52-15.225 9.291z" filter="url(#r)" stroke-width="0" fill="url(#s)" transform="translate(1089 -99.63)"/><path d="M-662.68 317.91l-5.106-10.522 99.06-31.497.247.924z" opacity=".371" filter="url(#t)" stroke-width="0" fill="#fff" transform="translate(1089 -99.63)"/><path d="M-1053.8 305.18l27.109 22.525 265.91 16.825-2.57-18.887z" opacity=".376" filter="url(#u)" stroke="#000" stroke-width=".798" fill="url(#v)" transform="translate(1089 -99.63)"/><path d="M94.422 353.11l-9.952 24.044 292.66 17.516 34.217-36.288z" transform="matrix(.55664 0 0 .97002 38.7 -220.73)" opacity=".098" filter="url(#u)" stroke="#000" stroke-width=".798" fill="url(#w)"/><path d="M-724.84 100.37c-24.003.27-49.732 3.199-78.081 10.099-20.322 6.11-49.134 30.276-75.992 52.951 84.675-5.117 169.37 7.89 253.73 15.471 8.628-21.268 20.875-58.852 12.199-65.698-5.296-4.179-71.846-13.272-111.85-12.822zm.94 4.609c35.089.232 66.27 6.182 96.729 13.178 4.12 19.018-1.148 38.03-9.21 57.047-80.397-8.148-156.87-16.881-237.33-14.53 25.095-20.275 52.284-41.191 71.272-46.655 28.695-6.685 54.532-9.2 78.54-9.041z" stroke-width="0" fill="url(#x)" transform="translate(1089 -99.63)"/><path d="M-874.32 162.19c-2.143-2.266 61.885-49.282 65.698-47.785 52.684-11.407 119.03-15.915 187.08 2.848 5.701 0-2.852 61.847-7.251 60.528-5.3-1.588-249.63-21.463-245.53-15.592z" opacity=".439" stroke="#8b8585" stroke-width="1.463" fill="url(#y)" transform="translate(1089 -99.63)"/><path d="M-704.12 165.87c11.063-19.94 22.127-38.623 33.19-54.645 18.548 2.035 49.758.4 49.502 8.151-.391 11.882-4.166 38.703-10.449 54.788-20.955-2.16-53.488-6.782-72.244-8.294z" opacity=".4" stroke-width="0" fill="url(#z)" transform="translate(1089 -99.63)"/><path d="M-997.86 195.16c94.926-29.707 169.21-20.51 266.76-21.205l22.055 6.84c-102.01-2.329-186.28-13.066-272.01 16.417z" filter="url(#A)" stroke-width="0" fill="#fff" transform="translate(1089 -99.63)"/><path d="M-1007.4 250.08l158.79 12.708c-.895 15.599-6.245 30.065-15.46 40.954l-133.06-10.355c-9.263-22.679-12.252-34.44-10.276-43.307z" stroke="#000" stroke-width=".2" fill="url(#B)" transform="translate(1089 -99.63)"/><path d="M-997.77 255.45l-.311.752 13.422 4.187-11.772-.86-.499-.16-.062.107-8.658-.617-.093.859 9.374.67 8.44 2.63-17.471-1.26-.062.858 8.346.618-.218.483 9.966 3.113-17.782-1.261-.062.832 8.938.644-.218.564 6.384 1.986-15.416-1.127-.093.858 19.153 1.396 7.63 2.389-3.052.456-5.948-.43-6.571-2.04-.312.699 3.52 1.1-11.368-.832-.062.805 14.824 1.074 1.153.376-10.37 1.61-3.55-.268-.094.805-2.771.43c.11.28.197.571.311.858l6.415-.993 8.284.59.312.108-11.211 1.745-.25-.027v.054l-2.771.429c.113.274.225.553.343.832l3.114-.483 12.737.94-14.668 2.308c.117.267.222.533.342.805l3.177-.51 9.436.698-11.71 1.798c.117.259.254.543.374.805l15.073-2.335 11.274.832-11.741 1.798-10.028-.724-.094.751 6.79.51-10.153 1.557c.12.255.222.493.343.751l13.36-2.066 11.772.859-11.959 1.852-6.104-.457-.062.698 3.083.215-5.232.805 3.737.269 5.138-.806 11.772.86-4.827.75 3.675.242 4.672-.724 11.834.859-4.392.67 3.457.242 4.298-.67 11.959.885-3.924.617 3.363.215 3.8-.59 7.412.536 2.335.725-1.058.16 4.982.35-.903-.295 2.43-.376 7.287.537 2.927.912 3.301.215-2.865-.886 11.865.859 2.585.805 3.363.215-2.46-.752 11.772.86 2.149.67 3.394.242-2.024-.644 11.647.832 1.806.563 3.582.242-1.713-.537 1.682.134.062-.67-4.578-.323-11.492-3.57 11.803.86 6.571 2.04c.195-.222.4-.447.592-.672l-3.644-1.127 4.329.322c.121-.148.223-.307.342-.456l.032-.242-7.755-.563-11.274-3.516 11.211.832 8.47 2.63c.188-.244.38-.478.561-.725l-5.2-1.637 6.041.456c.175-.251.359-.497.53-.751l-9.873-.725-10.526-3.274.592-.08 9.872.724 10.09 3.086c.158-.237.314-.484.468-.724l-6.82-2.094 7.754.564c.153-.258.287-.518.436-.779l-11.647-.858-3.239-.994 6.073-.939 8.844 2.765c.16-.28.313-.55.467-.832l-7.287-2.255 8.097.59v-.188l.125.054c.133-.267.276-.535.405-.805l-9.561-2.952.934-.135 9.685.698c.11-.26.237-.516.343-.778l-6.478-.483 2.243-.35-.156-.697-5.232.805-5.668-.402-3.083-.967 7.848-1.207 11.429.832c.098-.281.217-.55.311-.832l-7.941-.59 4.39-.672-.124-.778-7.785 1.208-11.678-.86 10.838-1.69 13.049.94c.077-.275.144-.557.218-.833l-9.561-.671 6.01-.94-.187-.778-9.405 1.45-11.896-.832 11.834-1.825 13.827 1.02c.062-.287.13-.572.187-.86l-10.215-.751 5.793-.886-.187-.724 4.951.375c.048-.287.113-.57.156-.858l-13.36-.967 9.343-1.45-.156-.777-12.737 1.959-11.398-.832 21.395-3.275-3.892-.268-21.27 3.274-10.806-.778 20.928-3.275-3.769-.268-20.866 3.275-11.896-.86 20.772-3.22-3.955-.295-20.679 3.22-9-.644 20.585-3.194-3.955-.268-19.744 3.06-18.343-5.69-3.8-.269 18.998 5.905-8.876-.644-18.904-5.851-3.924-.269 18.872 5.851-12.706-.939-18.78-5.797-3.612-.242 18.81 5.798-9.872-.725-18.405-5.744-3.737-.242 18.312 5.69-11.18-.805-16.66-5.18zm4.952 5.207l11.803.859 8.47 2.63-11.834-.859-8.44-2.63zm15.322 1.1l11.18.832 8.408 2.604-11.18-.805-8.408-2.63zm15.01 1.1l9.935.726 8.564 2.63-10.028-.725-8.47-2.63zm-33.54.43l11.74.86 11.99 3.73-11.646-.805-12.083-3.785zm47.025.537l12.706.94 3.83 1.18-4.858.752-3.083-.215-8.595-2.657zm-31.765.59l11.834.86 11.865 3.677-11.71-.806-11.99-3.73zm48.427.618l3.861.295-1.993.295-1.868-.59zm-33.136.483l11.18.805 6.446 2.013-5.699.886h-.062l-11.865-3.704zm40.766.08l1.339.081 3.737 1.181-4.578.725-4.422-1.37 3.924-.616zm5.107.376l3.955.269-2.024.322-1.93-.59zm-11.024.537l2.834.886-5.761-.43 2.927-.456zm18.841.027l11.928.859-8.751 1.369-2.523-.161-4.64-1.45 3.986-.617zm-38.617.08l9.218.671-4.702.725-4.516-1.396zm-45.188.457l11.71.832 9.032 2.818-11.865-.886-8.876-2.764zm77.857.375l2.772.86-5.668-.403 2.896-.457zm-18.904.162l8.315.59-4.235.671-4.08-1.262zm40.485.053l10.775.779-8.844 1.368-10.682-.778 8.75-1.369zm-42.697.134l4.391 1.37-5.2.804-4.33-1.368 5.14-.806zm-41.607.35l11.647.831 5.544 1.718-3.8.59-4.36-.321-9.031-2.819zm55.994.348l.312.027 5.792 1.798-6.042.94-.56-.027-5.7-1.772 6.198-.966zm42.821.215l11.398.832-8.876 1.369-11.367-.832 8.845-1.37zm-38.648.08l8.004.59-4.08.618-3.924-1.208zm-25.662.135l3.426 1.073-7.07-.51 3.644-.563zm-19.37.295l8.034.564-4.142.644-3.893-1.208zm57.831.51l9.468.67-4.828.752-4.64-1.422zm-25.039.027l4.018 1.234-8.191-.59 4.173-.644zm65.867.053l11.772.86-8.844 1.368-11.865-.859 8.938-1.369zm-43.35.054l5.2 1.61-4.578.698-5.17-1.61 4.547-.698zm-43.476.215l4.298 1.342-5.139.805-1.744-.134-3.457-1.074 6.042-.94zm3.364.215l5.73.402-2.959.456-2.772-.858zm55.808.375l11.367.832-11.99 1.852-1.09-.08-5.015-1.557 6.727-1.047zm-22.236.215l3.861 1.208-7.972-.564 4.11-.644zm-23.918.08l1.432.108 5.325 1.664-4.36.671-2.647-.188-4.733-1.476 4.982-.778zm-42.603.027l11.834.86.186.053-6.041.94-5.98-1.853zm21.706.295l1.744.537-3.582-.241 1.838-.296zm26.129.054l7.069.51-3.613.564-3.456-1.074zm55.808.43l11.865.858-11.865 1.826-11.96-.86 11.96-1.824zm-67.86.241l3.052.94-6.229-.457 3.177-.483zm44.285.027l3.083.966-6.416-.456 3.332-.51zm-21.738.107l5.138 1.584-4.516.698-1.557-.108-4.298-1.342 5.232-.832zm-42.23.027l8.783.644-4.859.752-4.328-1.342.405-.054zm45.531.134l7.662.564-3.924.59-3.738-1.154zm-47.71.188l4.328 1.342-4.36.671-3.3-.241-2.71-.832 6.041-.94zm59.14.617l.84.081 5.077 1.557-5.045.778-2.336-.161-4.422-1.342 5.886-.913zm-45.158.108l6.104 1.906-3.737.59-4.39-.322-3.956-1.235 5.98-.94zm2.772 0l10.464.778-5.294.832-5.17-1.61zm20.492.08l2.398.752-4.89-.376 2.492-.376zm26.627.161l6.665.457-3.457.536-3.208-.993zm-71.69.242l1.028.322-2.087-.161 1.06-.161zm59.202.59l2.585.806-5.232-.403 2.647-.403zm22.018 0l5.793 1.799-3.769.563-1.619-.107-5.014-1.557 4.61-.698zm-41.357.054l9.187.671-4.671.725-4.516-1.396zm44.565 0l9.405.671-4.858.752-4.547-1.423zm-89.037.054l8.845.67-5.949.913-4.39-1.342 1.494-.241zm18.654.027l2.274.724-4.672-.349 2.398-.375zm23.482.026l5.014 1.557-4.578.725-2.803-.215-3.612-1.127 5.98-.94zm-45.313.43l4.391 1.368-3.893.618-4.515-.35-2.149-.67 6.166-.966zm105.17.375l11.928.86-10.775 1.663-4.048-.295-3.8-1.18 6.696-1.048zm-22.796.027l3.146.966-6.385-.456 3.24-.51zm-66.458.054l11.585.859.436.134-5.98.94-6.165-1.906.124-.027zm43.787.08l5.512 1.718-4.453.698-2.491-.188-4.298-1.342 5.73-.886zm3.021.027l9.094.67-4.64.726-4.454-1.396zm-48.707.188l6.166 1.932-3.208.51-5.543-.43-3.457-1.073 6.042-.94zm23.482.054l1.806.563-3.675-.268 1.87-.295zm-44.627.322l-.093.241.155.054-1.339-.107 1.277-.188zm84.054.483l10.246.751-5.2.805-5.046-1.556zm-44.814.053l10.121.725-5.761.886-4.952-1.53.592-.08zm42.167 0l5.824 1.799-3.955.617-2.866-.215-4.39-1.368 5.387-.833zm-22.142.027l2.616.805-5.325-.375 2.709-.43zm44.378.054l1.869.563-3.8-.268 1.931-.295zm-90.251.215l1.837.563-3.737-.268 1.9-.295zm23.482.053l4.92 1.53-4.08.644-3.799-.295-3.02-.94 5.98-.939zm16.599.671l10.806.805-5.512.86-5.294-1.665zm43.569.054l5.792 1.798-4.235.671-3.862-.295-3.892-1.208 6.197-.966zm-22.983.054l2.554.778-5.201-.376 2.647-.402zm26.129 0l9.062.67.187.054-4.578.725-4.671-1.45zm-92.213.026l10.651.779.965.295-6.166.966-6.197-1.932.747-.108zm43.413.108l5.512 1.718-4.173.644-3.519-.269-3.8-1.18 5.98-.913zm-45.717.241l6.228 1.933-2.74.43-12.737-.94 9.25-1.423zm23.482.08l1.277.403-2.616-.187 1.339-.215zm83.961.51h.062l11.68.833-6.011.94-5.73-1.772zm-44.316.055l10.869.805-5.543.859-5.326-1.664zm-2.273.134l5.761 1.798-4.235.671-3.488-.268-4.08-1.262 6.042-.94zm-42.261.053l9.591.698.125.054-6.104.94-4.765-1.504 1.153-.187zm64.683 0l2.117.645-4.266-.322 2.148-.323zm22.236.054l5.699 1.798-3.021.457-3.02-.215-4.267-1.315 4.609-.725zm-67.548.054l2.117.67-4.329-.321 2.212-.35zm-22.236.349l4.796 1.476-3.675.564-4.952-.35-2.305-.724 6.136-.966zm62.41.456l10.775.805.186.054-5.48.859-5.482-1.718zm-45.935.08l11.242.833-6.01.939-5.513-1.718.28-.053zm66.708.081l2.335.725-4.796-.35 2.46-.375zm-23.014.054l5.761 1.798-3.924.617-3.55-.268-4.018-1.262 5.73-.885zm-22.921.053l2.242.698-4.61-.349 2.368-.349zm-22.828.135l5.512 1.717-3.737.564-4.61-.322-3.27-1.02 6.105-.94zm-22.08.349l.84.268-1.712-.134.872-.134zm84.864.348l11.678.86-6.073.939-5.824-1.772.218-.026zm-45.935.08l11.616.833.124.054-5.98.912-5.76-1.798zm21.333.189l2.366.724-4.796-.349 2.43-.375zm22.516.027l5.792 1.798-3.519.563-3.893-.295-3.862-1.208 5.482-.858zm-87.075.026l8.408.618.592.187-11.087 1.718-9.468-.698 11.554-1.825zm41.42.027l5.792 1.798-3.706.564-4.609-.322-3.52-1.1 6.043-.94zm67.704 0l1.245.403-2.553-.215 1.308-.188zm-90.563.161l1.619.51-3.332-.242 1.712-.268zm86.296.644l8.906.644 1.215.376-4.547.698-5.574-1.718zm-46.278.054l11.74.859-5.979.94-5.761-1.8zm-45.22.107l10.153.725.56.188-6.166.94-5.512-1.719.965-.134zm89.162.054l5.885 1.825-3.737.564-4.64-.322-3.612-1.128 6.104-.94zm-22.89.08l2.024.645-4.142-.323 2.118-.322zm-22.952.054l5.792 1.798-3.581.537-4.672-.322-3.519-1.1 5.98-.913zm-23.077.054l1.837.563-3.768-.268 1.93-.295zm-22.765.134l5.543 1.718-3.426.537-11.305-.832 9.187-1.423zm63.064.644l11.149.805.342.108-5.73.885-5.761-1.798zm-45.717.054l10.62.778.591.188-6.104.94-5.761-1.799.654-.107zm43.88.215l5.761 1.798-3.613.563-4.702-.348-3.457-1.074 6.01-.94zm22.485 0l1.775.563-3.613-.268 1.838-.295zm21.987.053l8.377 2.604-2.585-.188-.124-.51-2.18.322-4.018-.295-4.017-1.235 4.547-.698zm-67.611.027l1.806.564-3.706-.269 1.9-.295zm-23.108.08l5.761 1.772-3.332.51-5.606-.403-2.99-.94 6.166-.939zm63.344.671l10.588.779.685.215-5.575.858-5.855-1.825.156-.027zm-45.624.08l10.526.78.622.187-6.041.94-5.762-1.799.654-.107zm66.427.162l2.024.617-4.142-.295 2.118-.322zm-22.921.08l5.854 1.826-3.3.51-4.734-.35-3.55-1.1 5.73-.886zm-22.86.08l1.682.51L-920 285l1.744-.27zm-23.076.055l5.761 1.798-3.208.483-5.637-.403-2.99-.939 6.074-.94zm-23.014.053l1.526.483-3.146-.241 1.62-.242zm86.203.618l11.118.805.529.16-6.073.94-6.01-1.852.436-.053zm-45.406.08l10.402.778.654.188-5.98.94-5.761-1.799.685-.107zm-45.75.08l9.655.698 1.027.322-10.682 1.638-11.74-.86 11.74-1.798zm66.335.188l1.868.59-3.8-.294 1.932-.296zm22.516 0l5.979 1.852-2.99.457-5.107-.376-3.457-1.074 5.575-.859zm-45.562.108l5.761 1.798-3.145.483-5.668-.402-2.99-.94 6.042-.94zm-23.108.08l1.401.43-2.834-.215 1.433-.215zm40.735.671l10.682.779.622.187-6.01.94-5.886-1.825.592-.08zm-45.562.054l9.498.698 1.09.349-6.197.966-5.73-1.798 1.339-.215zm65.96.241l1.619.51-3.301-.241 1.682-.269zm-22.86.081l5.887 1.825-3.021.456-5.762-.402-3.083-.966 5.98-.913zm-23.013.08l1.339.403-2.71-.188 1.37-.215zm-22.983.054l5.73 1.798-2.834.43-11.741-.86 8.844-1.368zm63.624.59l10.215.752.965.295-5.73.886-5.948-1.852.498-.08zm-45.406.081l9.342.698 1.215.376-6.104.939-5.761-1.798 1.308-.215zm43.1.268l5.949 1.88-3.021.456-5.793-.43-3.145-.966 6.01-.94zm22.517 0l1.401.43-2.834-.215 1.433-.215zm-45.593.108l1.401.43-2.834-.215 1.433-.215zm-23.046.08l5.792 1.799-2.772.43-6.726-.484-2.46-.778 6.165-.967zm18.218.671l9.467.698 1.215.376-6.042.94-5.855-1.826 1.215-.188zm-45.562.08l11.772.86-11.96 1.852-11.771-.86 11.959-1.851zm88.414.216l8.688 2.71-11.242-.832-3.176-.993 5.73-.886zm-22.828.08l1.308.403-2.71-.188 1.402-.215zm-23.014.08l5.854 1.826-2.647.402-6.727-.483-2.584-.805 6.104-.94zm-22.952.08l.996.296-2.024-.134 1.028-.161zm41.139.564l9.405.698 1.37.43-5.98.912-5.948-1.852 1.153-.188zm-45.468.108l8.44.617 1.65.51-10.215 1.584-11.803-.886 11.928-1.825zm65.586.241l1.494.484-3.052-.242 1.558-.242zm-23.077.108l5.948 1.852-2.616.402-6.665-.483-2.678-.832 6.01-.94zm-23.014.107l.934.295-1.93-.134.996-.16zm-8.004.376l.311.027-.155.026-.156-.053zm49.143.188l9.716.698 11.243 3.516-11.803-.86-10.215-3.193 1.06-.161zm-45.437.08l8.44.618 1.712.536-6.228.967-5.824-1.825 1.9-.296zm42.51.376l8.47 2.63-11.71-.859-2.74-.858 5.98-.913zm-23.014.08l.997.323-2.025-.161 1.028-.161zm-22.952.081l5.824 1.825-2.367.376-11.96-.886 8.503-1.315zm15.135.322l.311.027-.155.027-.156-.054zm3.52.269l8.408.617 1.837.563-6.073.94-5.948-1.852 1.775-.269zm19.525.429l1.059.322-2.149-.161 1.09-.161zm-23.014.107l5.948 1.852-2.242.35-7.661-.564-2.211-.698 6.166-.94zm15.384.322l.312.027-.156.027-.156-.054zm3.301.242l8.502.617 11.43 3.57-11.804-.859-9.81-3.06 1.682-.268zm-3.488.537l8.128 2.523-11.896-.86-2.304-.724 6.073-.94zm-22.92.08l.715.215-1.463-.107.747-.108zm38.367.269l11.71.858 11.43 3.543-11.679-.832-11.46-3.57zm-23.232.858l.654.215-1.339-.107.685-.108zm-8.47.215l1.712.134-.872.135-.84-.269z" stroke-width="0" fill="url(#C)" transform="translate(1089 -99.63)"/><path d="M108 380.36c0 16.016-14.327 29-32 29s-32-12.984-32-29 14.327-29 32-29 32 12.984 32 29z" transform="matrix(.99599 .38518 -1.0983 1.2742 632.74 -362.23)" opacity=".259" stroke-width="0" fill="#2d2d2d"/><path d="M108 380.36c0 16.016-14.327 29-32 29s-32-12.984-32-29 14.327-29 32-29 32 12.984 32 29z" transform="matrix(.67652 .11956 -.41426 1.1062 160.32 -292.77)" opacity=".259" stroke-width="0" fill="#2d2d2d"/><path d="M108 380.36c0 16.016-14.327 29-32 29s-32-12.984-32-29 14.327-29 32-29 32 12.984 32 29z" transform="matrix(.65263 .24524 -.51214 1.0236 201 -274.82)" stroke-width="0" fill="#999"/><path d="M108 380.36c0 16.016-14.327 29-32 29s-32-12.984-32-29 14.327-29 32-29 32 12.984 32 29z" transform="matrix(.62029 .2033 -.51245 .91695 203.6 -228.77)" stroke-width="0" fill="url(#D)"/><path d="M87.788 345.83c-8.384 2.174-17.266 8.332-22.896 16.572-.226.33-.418.66-.629.99 9.86-5.74 20.627-8.444 29.085-6.553 6.464 1.445 10.476 5.321 11.898 10.594 4.92-10.29 2.378-19.601-6.69-21.92-3.251-.83-6.957-.671-10.769.317z" transform="matrix(.92081 -.24673 .2172 .8106 -99.7 -149.429)" stroke-linejoin="round" filter="url(#E)" stroke="#1e1515" stroke-linecap="round" stroke-width=".053" fill="url(#F)"/><path d="M-552.57 493.89l11.788-20.629" transform="matrix(.10347 -.05691 .06954 .11446 64.3 40.39)" filter="url(#G)" stroke="#000" fill="none"/><path d="M-530.47 489.47l16.209-27.997" transform="matrix(.10347 -.05691 .06954 .11446 64.3 40.39)" filter="url(#H)" stroke="#000" fill="none"/><path d="M-506.89 486.53l16.209-32.418" transform="matrix(.10347 -.05691 .06954 .11446 64.3 40.39)" filter="url(#I)" stroke="#000" fill="none"/><path d="M-480.37 486.53l17.682-44.206" transform="matrix(.10347 -.05691 .06954 .11446 64.3 40.39)" filter="url(#J)" stroke="#000" fill="none"/><path d="M-450.9 486.53l27.997-53.047" transform="matrix(.10347 -.05691 .06954 .11446 64.3 40.39)" filter="url(#K)" stroke="#000" fill="none"/><path d="M-417.01 493.89l25.05-64.835" transform="matrix(.10347 -.05691 .06954 .11446 64.3 40.39)" filter="url(#L)" stroke="#000" fill="none"/><path d="M-380.17 490.95l23.576-69.256" transform="matrix(.10347 -.05691 .06954 .11446 64.3 40.39)" filter="url(#M)" stroke="#000" fill="none"/><path d="M-356.59 505.68l27.997-72.203" transform="matrix(.10347 -.05691 .06954 .11446 64.3 40.39)" filter="url(#N)" stroke="#000" fill="none"/><path d="M-333.02 513.05l32.418-73.676" transform="matrix(.10347 -.05691 .06954 .11446 64.3 40.39)" filter="url(#O)" stroke="#000" fill="none"/><path d="M-312.39 521.89l35.365-72.203" transform="matrix(.10347 -.05691 .06954 .11446 64.3 40.39)" filter="url(#P)" stroke="#000" fill="none"/><path d="M-299.13 542.52l44.206-83.991" transform="matrix(.10347 -.05691 .06954 .11446 64.3 40.39)" filter="url(#Q)" stroke="#000" fill="none"/><path d="M-284.39 563.15l47.153-81.044" transform="matrix(.10347 -.05691 .06954 .11446 64.3 40.39)" filter="url(#R)" stroke="#000" fill="none"/><path d="M-278.5 586.73c5.894-5.894 32.418-36.838 32.418-36.838" transform="matrix(.10347 -.05691 .06954 .11446 64.3 40.39)" filter="url(#S)" stroke="#000" fill="none"/><path d="M41.4 128.37l-.215-3.032M43.4 126.61l-.27-4.127M45.6 124.93l-.577-4.633M48.4 123.42l-1.245-6.066M51.4 121.75l-.792-7.665M55.5 120.66l-1.917-8.847M59.1 118.23l-2.377-9.269M62.5 118.57l-2.124-9.858M65.5 118.07l-1.77-10.278M68.2 117.91l-1.361-10.277M71 119.52l-1.267-12.13M74 121.04l-.757-11.96M76.2 123.4c.2-1.01.792-6.061.792-6.061" stroke="#909090" stroke-width=".126" fill="none"/><path d="M325.61 401.15c0 6.905-5.248 12.503-11.722 12.503-6.474 0-11.722-5.598-11.722-12.503s5.248-12.503 11.722-12.503c6.474 0 11.722 5.598 11.722 12.503z" transform="matrix(.54223 -.14529 .12655 .4723 -165.7 -3.458)" opacity=".917" stroke-width="0" fill="url(#T)"/><path d="M325.61 401.15c0 6.905-5.248 12.503-11.722 12.503-6.474 0-11.722-5.598-11.722-12.503s5.248-12.503 11.722-12.503c6.474 0 11.722 5.598 11.722 12.503z" transform="matrix(.54223 -.14529 .12655 .4723 -165.7 -3.458)" opacity=".917" stroke-width="0" fill="url(#U)"/><path d="M108 380.36c0 16.016-14.327 29-32 29s-32-12.984-32-29 14.327-29 32-29 32 12.984 32 29z" transform="matrix(.92968 .35954 -1.0251 1.1894 609.97 -328.02)" stroke-width="0" fill="#2d2d2d"/><path d="M108 380.36c0 16.016-14.327 29-32 29s-32-12.984-32-29 14.327-29 32-29 32 12.984 32 29z" transform="matrix(.90385 .34755 -.99665 1.1497 599.93 -310.8)" stroke-width="0" fill="url(#V)"/><path d="M-794.18 217.89c-13.96 3.83-28.749 14.675-38.123 29.189-.376.582-.697 1.162-1.047 1.743 16.418-10.109 34.345-14.872 48.428-11.542 10.763 2.545 17.443 9.374 19.812 18.66 8.192-18.123 3.96-34.525-11.14-38.607-5.413-1.463-11.584-1.183-17.93.557z" stroke-linejoin="round" stroke="#1e1515" stroke-linecap="round" stroke-width=".091" fill="url(#W)" transform="translate(1089 -99.63)"/><path d="M-552.57 493.89l11.788-20.629" transform="matrix(.19847 -.05992 .06498 .27324 338.75 -17.091)" filter="url(#G)" stroke="#000" fill="none"/><path d="M-530.47 489.47l16.209-27.997" transform="matrix(.15371 -.03734 .0503 .14492 328.1 47.91)" filter="url(#H)" stroke="#000" fill="none"/><path d="M-506.89 486.53l16.209-32.418" transform="matrix(.15371 -.03734 .0503 .14492 328.1 47.91)" filter="url(#I)" stroke="#000" fill="none"/><path d="M-480.37 486.53l17.682-44.206" transform="matrix(.15371 -.03734 .0503 .14492 328.1 47.91)" filter="url(#J)" stroke="#000" fill="none"/><path d="M-450.9 486.53l27.997-53.047" transform="matrix(.15371 -.03734 .0503 .14492 328.1 47.91)" filter="url(#K)" stroke="#000" fill="none"/><path d="M-417.01 493.89l25.05-64.835" transform="matrix(.15371 -.03734 .0503 .14492 328.1 47.91)" filter="url(#L)" stroke="#000" fill="none"/><path d="M-380.17 490.95l23.576-69.256" transform="matrix(.15371 -.03734 .0503 .14492 328.1 47.91)" filter="url(#M)" stroke="#000" fill="none"/><path d="M-356.59 505.68l27.997-72.203" transform="matrix(.15371 -.03734 .0503 .14492 328.1 47.91)" filter="url(#N)" stroke="#000" fill="none"/><path d="M-333.02 513.05l32.418-73.676" transform="matrix(.15371 -.03734 .0503 .14492 328.1 47.91)" filter="url(#O)" stroke="#000" fill="none"/><path d="M-312.39 521.89l35.365-72.203" transform="matrix(.15371 -.03734 .0503 .14492 328.1 47.91)" filter="url(#P)" stroke="#000" fill="none"/><path d="M-299.13 542.52l44.206-83.991" transform="matrix(.15371 -.03734 .0503 .14492 328.1 47.91)" filter="url(#Q)" stroke="#000" fill="none"/><path d="M-284.39 563.15l47.153-81.044" transform="matrix(.15371 -.03734 .0503 .14492 328.1 47.91)" filter="url(#R)" stroke="#000" fill="none"/><path d="M-278.5 586.73c5.894-5.894 32.418-36.838 32.418-36.838" transform="matrix(.19847 -.05992 .06498 .27324 338.75 -17.091)" filter="url(#S)" stroke="#000" fill="none"/><path d="M263.14 146.97l3.031-6.343" stroke="#909090" stroke-width=".42" fill="none"/><path d="M271.19 138.65l1.083-4.662M274.66 137.35l.86-5.303M278.74 136.35l.494-7.067M283.27 135.25l1.635-8.733M288.85 135.06l.589-10.331M294.36 133.25l.14-10.917M298.73 134.51l.671-11.509M302.72 134.7l1.276-11.888M306.34 135.21l1.804-11.784M309.42 137.7l2.57-13.823M312.72 140.14l3.17-13.506M314.81 143.34c.61-1.074 3.13-6.549 3.13-6.549" stroke="#909090" stroke-width=".155" fill="none"/><path d="M-838.76 271.95l27.611-19.276c19.027-5.564 21.978-.412 20.318 7.815l-10.419 24.486c-13.456 1.375-27.99 9.219-37.51-13.024z" opacity=".21" stroke-width="0" fill="url(#X)" transform="translate(1089 -99.63)"/><path d="M325.61 401.15c0 6.905-5.248 12.503-11.722 12.503-6.474 0-11.722-5.598-11.722-12.503s5.248-12.503 11.722-12.503c6.474 0 11.722 5.598 11.722 12.503z" transform="matrix(.93333 0 0 .8125 -6.8 -165.338)" opacity=".917" fill="url(#T)" stroke-width="0"/><path d="M325.61 401.15c0 6.905-5.248 12.503-11.722 12.503-6.474 0-11.722-5.598-11.722-12.503s5.248-12.503 11.722-12.503c6.474 0 11.722 5.598 11.722 12.503z" transform="matrix(.93333 0 0 .8125 -6.8 -165.338)" opacity=".917" fill="url(#U)" stroke-width="0"/><path d="M306.33 414.17c0 6.042-7.347 10.94-16.411 10.94-9.063 0-16.411-4.898-16.411-10.94s7.347-10.94 16.411-10.94c9.063 0 16.411 4.898 16.411 10.94z" transform="matrix(.79365 0 0 .66667 34.7 -96.504)" opacity=".917" stroke-width="0" fill="url(#Y)"/><path d="M-753.25 228.16c-1.967-7.735-13.079-31.527-22.84-35.365l124.51-16.209c6.181.286 14.167-.33 12.893 3.684z" filter="url(#Z)" stroke-width="0" fill="url(#aa)" transform="translate(1089 -99.63)"/><path d="M-631.73 183.88c10.701-10.917 11.004-3.937 13.092-35.504.257-3.889 4.867-6.626 8.49-8.04 17.566-5.053 45.561-6.38 43.451 16.58-.747 16.154-27.392 9.256-37.958 11.557-3.986.836-6.992 17.585-6.992 17.585s-12.828 3.093-11.487-.502c3.115-8.352-8.596-1.677-8.596-1.677z" stroke-width="0" fill="url(#ab)" transform="translate(1089 -99.63)"/><path d="M-863.07 158.82c21.321-20.559 44.351-36.922 68.79-46.144h6.688c-32.045 20.132-49.65 34.687-59.236 46.144z" opacity=".639" stroke-width="0" fill="#fff" transform="translate(1089 -99.63)"/><path d="M-568.86 163.49l-.344.094-39.03 10.312-.126.03-.093.095-11.062 10.312-.282.25.188.343s1.914 3.534 3.969 8.063 4.235 10.065 4.812 13.875c2.29 15.112.479 38.144-1.937 57.344s-5.407 34.594-5.407 34.594l-.156.781.781-.219 55.25-16.219.282-.062.062-.281s3.593-15.856 6.5-35.031 5.152-41.665 2.344-55.094c-1.142-5.463-5.024-12.63-8.625-18.5-3.601-5.872-6.938-10.406-6.938-10.406l-.187-.282zm-.406 1.156c.173.237 3.207 4.357 6.687 10.031 3.578 5.834 7.416 13.034 8.5 18.22 2.74 13.102.557 35.583-2.344 54.718-2.865 18.9-6.35 34.306-6.437 34.688l-54.188 15.875c.226-1.173 2.927-15.382 5.25-33.844 2.42-19.236 4.292-42.288 1.969-57.625-.612-4.035-2.837-9.563-4.906-14.125-1.983-4.371-3.694-7.5-3.844-7.781l10.719-9.969 38.594-10.188z" style="block-progression:tb;text-indent:0;text-transform:none" opacity=".102" color="#000" fill="url(#ac)" transform="translate(1089 -99.63)"/><path style="block-progression:tb;text-indent:0;text-transform:none" d="M-859.48 161.9c-25.944 5.284-56.21 7.686-83.406 13.281-27.197 5.595-51.377 14.371-65.094 32.656l-.438.563.563.406c2.742 2.166 4.77 3.253 5.906 5.562 1.137 2.31 1.466 6.07.438 13.688l-.094.75.75.063c56.447 3.595 118.03 2.736 173.16 5.875l.562.031.156-.531c.88-2.986 3.614-6.251 7.407-9.375s8.594-6.108 13.469-8.625c4.875-2.518 9.852-4.569 13.938-5.875 2.042-.654 3.866-1.135 5.343-1.375 1.478-.24 2.61-.232 3.157-.063l.406-1.344c-.973-.3-2.235-.225-3.813.032-1.578.257-3.441.738-5.53 1.406-4.18 1.336-9.184 3.417-14.126 5.969-4.941 2.552-9.816 5.566-13.719 8.78-3.703 3.052-6.502 6.282-7.656 9.563-54.849-3.099-115.92-2.315-171.94-5.843.894-7.112.637-11.123-.656-13.75-1.241-2.52-3.339-3.789-5.719-5.594 13.448-17.443 37.028-26.084 63.813-31.594 27.073-5.57 57.335-7.971 83.406-13.281l-.281-1.375z" opacity=".205" color="#000" fill="url(#ad)" transform="translate(1089 -99.63)"/><path d="M-563.3 189.26l-1.415 4.19-11.392 3.192-1.88-2.673z" opacity=".502" filter="url(#ae)" stroke-width="0" fill="#364e59" transform="translate(1089 -99.63)"/><path d="M-583.06 190.12l4.584 3.783 15.819-3.797.401-4.214z" stroke-width="0" fill="url(#af)" transform="translate(1089 -99.63)"/><path d="M-724.98 240.82c0 7.12-6.762 12.893-15.104 12.893-8.342 0-15.104-5.773-15.104-12.893 0-7.12 6.762-12.893 15.104-12.893 8.341 0 15.104 5.773 15.104 12.893z" transform="matrix(1.1269 0 0 1.0303 1184.772 -106.549)" opacity=".629" filter="url(#ag)" stroke-width="0" fill="#fff"/></g></pattern><pattern id="ai" patternTransform="matrix(1.47299 -.25369 .19992 1.16081 240.75 718.404)" xlink:href="#ah"/><filter id="a" color-interpolation-filters="sRGB"><feGaussianBlur stdDeviation="1.171"/></filter><filter id="u" height="1.229" width="1.033" color-interpolation-filters="sRGB" y="-.115" x="-.016"><feGaussianBlur stdDeviation="1.986"/></filter><filter id="A" height="1.746" width="1.062" color-interpolation-filters="sRGB" y="-.373" x="-.031"><feGaussianBlur stdDeviation="3.743"/></filter><filter id="d" height="2.773" width="1.543" color-interpolation-filters="sRGB" y="-.886" x="-.272"><feGaussianBlur stdDeviation="10.562"/></filter><filter id="c" height="1.495" width="1.139" color-interpolation-filters="sRGB" y="-.248" x="-.07"><feGaussianBlur stdDeviation="2.647"/></filter><filter id="S" height="1.374" width="1.425" color-interpolation-filters="sRGB" y="-.187" x="-.213"><feGaussianBlur stdDeviation="2.873"/></filter><filter id="R" height="1.17" width="1.292" color-interpolation-filters="sRGB" y="-.085" x="-.146"><feGaussianBlur stdDeviation="2.873"/></filter><filter id="Q" height="1.164" width="1.312" color-interpolation-filters="sRGB" y="-.082" x="-.156"><feGaussianBlur stdDeviation="2.873"/></filter><filter id="P" height="1.191" width="1.39" color-interpolation-filters="sRGB" y="-.095" x="-.195"><feGaussianBlur stdDeviation="2.873"/></filter><filter id="O" height="1.187" width="1.425" color-interpolation-filters="sRGB" y="-.094" x="-.213"><feGaussianBlur stdDeviation="2.873"/></filter><filter id="N" height="1.191" width="1.493" color-interpolation-filters="sRGB" y="-.095" x="-.246"><feGaussianBlur stdDeviation="2.873"/></filter><filter id="M" height="1.199" width="1.585" color-interpolation-filters="sRGB" y="-.1" x="-.292"><feGaussianBlur stdDeviation="2.873"/></filter><filter id="L" height="1.213" width="1.55" color-interpolation-filters="sRGB" y="-.106" x="-.275"><feGaussianBlur stdDeviation="2.873"/></filter><filter id="K" height="1.26" width="1.493" color-interpolation-filters="sRGB" y="-.13" x="-.246"><feGaussianBlur stdDeviation="2.873"/></filter><filter id="J" height="1.312" width="1.78" color-interpolation-filters="sRGB" y="-.156" x="-.39"><feGaussianBlur stdDeviation="2.873"/></filter><filter id="I" height="1.425" width="1.851" color-interpolation-filters="sRGB" y="-.213" x="-.425"><feGaussianBlur stdDeviation="2.873"/></filter><filter id="H" height="1.493" width="1.851" color-interpolation-filters="sRGB" y="-.246" x="-.425"><feGaussianBlur stdDeviation="2.873"/></filter><filter id="G" height="1.669" width="2.17" color-interpolation-filters="sRGB" y="-.334" x="-.585"><feGaussianBlur stdDeviation="2.873"/></filter><filter id="E" height="1.202" width="1.105" color-interpolation-filters="sRGB" y="-.101" x="-.052"><feGaussianBlur stdDeviation=".946"/></filter><filter id="b" height="1.56" width="1.11" color-interpolation-filters="sRGB" y="-.28" x="-.055"><feGaussianBlur stdDeviation="12.605"/></filter><filter id="e" height="1.393" width="1.111" color-interpolation-filters="sRGB" y="-.196" x="-.055"><feGaussianBlur stdDeviation="2.1"/></filter><filter id="r" color-interpolation-filters="sRGB"><feGaussianBlur stdDeviation="1.936"/></filter><filter id="t" color-interpolation-filters="sRGB"><feGaussianBlur stdDeviation="1.691"/></filter><filter id="Z" color-interpolation-filters="sRGB"><feGaussianBlur stdDeviation=".668"/></filter><filter id="ae" height="1.275" width="1.138" color-interpolation-filters="sRGB" y="-.137" x="-.069"><feGaussianBlur stdDeviation=".422"/></filter><filter id="ag" color-interpolation-filters="sRGB"><feGaussianBlur stdDeviation=".338"/></filter><linearGradient id="f" y2="527.36" gradientUnits="userSpaceOnUse" x2="467" gradientTransform="matrix(-1.2854 0 0 -.86761 -391.45 764.55)" y1="604.36" x1="440"><stop offset="0"/><stop offset="1" stop-color="#2d2d2d"/></linearGradient><linearGradient id="g" y2="502" gradientUnits="userSpaceOnUse" x2="391.22" gradientTransform="translate(-1112.8 -137.54)" y1="453.37" x1="384.59"><stop offset="0" stop-color="#2d2d2d"/><stop offset="1" stop-color="#0d0a0a"/></linearGradient><linearGradient id="h" y2="293.13" gradientUnits="userSpaceOnUse" x2="248.29" gradientTransform="translate(-1112.8 -137.54)" y1="282.07" x1="213.66"><stop offset="0" stop-color="#ffc022"/><stop offset="1" stop-color="#ffff3e"/></linearGradient><linearGradient id="i" y2="339.17" gradientUnits="userSpaceOnUse" x2="111.99" gradientTransform="translate(-1112.8 -137.54)" y1="327.98" x1="15.981"><stop offset="0" stop-color="#ffc022"/><stop offset="1" stop-color="#ffff3e"/></linearGradient><linearGradient id="j" y2="310.5" gradientUnits="userSpaceOnUse" x2="381.35" gradientTransform="translate(-1112.8 -137.54)" y1="335.51" x1="177.13"><stop offset="0" stop-color="#ffff3e"/><stop offset="1" stop-color="#fff"/></linearGradient><linearGradient id="k" y2="415.36" gradientUnits="userSpaceOnUse" x2="483" gradientTransform="translate(-1112.8 -137.54)" y1="332.36" x1="458"><stop offset="0" stop-color="#ffff3e"/><stop offset="1" stop-color="#ffc022"/></linearGradient><linearGradient id="l" y2="411.36" gradientUnits="userSpaceOnUse" x2="525" gradientTransform="translate(-1112.8 -137.54)" y1="321.36" x1="512"><stop offset="0" stop-color="#ffff3e"/><stop offset="1" stop-color="#ffc022"/></linearGradient><linearGradient id="m" y2="426.11" gradientUnits="userSpaceOnUse" x2="551.84" gradientTransform="translate(-1112.8 -137.54)" y1="312.65" x1="556.99"><stop offset="0" stop-color="#ffff3e"/><stop offset="1" stop-color="#ffc022"/></linearGradient><linearGradient id="n" y2="380.36" gradientUnits="userSpaceOnUse" x2="322" gradientTransform="translate(-1112.8 -137.54)" y1="480.36" x1="310"><stop offset="0" stop-color="#ffc022"/><stop offset="1" stop-color="#ffff3e"/></linearGradient><linearGradient id="o" y2="423.58" gradientUnits="userSpaceOnUse" x2="414.55" y1="469.82" x1="413.62"><stop offset="0" stop-color="#666"/><stop offset="1" stop-color="#999"/></linearGradient><linearGradient id="p" y2="256.43" gradientUnits="userSpaceOnUse" x2="-462.24" y1="253.13" x1="-477.71"><stop offset="0" stop-color="#666"/><stop offset="1" stop-color="#ccc"/></linearGradient><linearGradient id="q" y2="257.66" gradientUnits="userSpaceOnUse" x2="-501.84" y1="257.66" x1="-476.47"><stop offset="0" stop-color="#ccc"/><stop offset="1" stop-color="#999"/></linearGradient><linearGradient id="s" y2="318.83" gradientUnits="userSpaceOnUse" x2="468.87" gradientTransform="matrix(.99516 -.16467 0 .89393 -1113.9 -27.884)" y1="354.26" x1="477.21"><stop offset="0" stop-color="#fff"/><stop offset="1" stop-color="#fff" stop-opacity="0"/></linearGradient><linearGradient id="v" y2="416.78" gradientUnits="userSpaceOnUse" x2="164.63" gradientTransform="matrix(.92919 .03806 0 .6851 -1108 -1.131)" y1="468.87" x1="154.21"><stop offset="0" stop-color="#2d2d2d"/><stop offset="1" stop-color="#2d2d2d" stop-opacity="0"/></linearGradient><linearGradient id="w" y2="416.78" gradientUnits="userSpaceOnUse" x2="164.63" gradientTransform="matrix(.92919 .03806 0 .6851 40.205 46.798)" y1="468.87" x1="154.21"><stop offset="0" stop-color="#2d2d2d"/><stop offset="1" stop-color="#2d2d2d" stop-opacity="0"/></linearGradient><linearGradient id="x" y2="272.47" gradientUnits="userSpaceOnUse" x2="493.88" gradientTransform="translate(-1112.8 -137.54)" y1="249.55" x1="491.28"><stop offset="0" stop-color="#2d2d2d"/><stop offset="1" stop-color="#666"/></linearGradient><linearGradient id="y" y2="277.29" gradientUnits="userSpaceOnUse" x2="382.75" gradientTransform="translate(-1112.3 -138.58)" y1="278.76" x1="291.39"><stop offset="0" stop-color="#666"/><stop offset="1" stop-color="#fff"/></linearGradient><linearGradient id="z" y2="286.13" gradientUnits="userSpaceOnUse" x2="475.95" gradientTransform="matrix(.95967 0 0 .78422 -1108.8 -75.279)" y1="284.65" x1="449.43"><stop offset="0" stop-color="#fff"/><stop offset="1" stop-color="#ccc"/></linearGradient><linearGradient id="B" y2="398.12" gradientUnits="userSpaceOnUse" x2="206.29" gradientTransform="translate(-1112.8 -137.54)" y1="424.64" x1="125.25"><stop offset="0" stop-color="#666"/><stop offset="1" stop-color="#2d2d2d"/></linearGradient><linearGradient id="C" y2="352.44" gradientUnits="userSpaceOnUse" x2="213.66" gradientTransform="matrix(1.0792 0 0 .93007 -1128 -107.15)" y1="457.06" x1="148.83"><stop offset="0" stop-color="#fff"/><stop offset="1" stop-color="#2d2d2d"/></linearGradient><linearGradient id="D" y2="380.6" gradientUnits="userSpaceOnUse" x2="75.826" y1="392.51" x1="72.412"><stop offset="0" stop-color="#ccc"/><stop offset="1" stop-color="#fff"/></linearGradient><linearGradient id="F" y2="431.56" gradientUnits="userSpaceOnUse" x2="-245.07" gradientTransform="matrix(.94539 -.23229 .19175 .65624 240.82 9.896)" y1="426.72" x1="-242.48"><stop offset="0" stop-color="#2d2d2d"/><stop offset="1" stop-color="#ccc"/></linearGradient><linearGradient id="T" y2="405.96" gradientUnits="userSpaceOnUse" x2="311.09" y1="410.45" x1="307.75"><stop offset="0" stop-color="#364e59"/><stop offset="1" stop-color="#364e59" stop-opacity="0"/></linearGradient><linearGradient id="U" y2="396.34" gradientUnits="userSpaceOnUse" x2="312.21" y1="389.93" x1="312.21"><stop offset="0" stop-color="#fff"/><stop offset="1" stop-color="#fff" stop-opacity="0"/></linearGradient><linearGradient id="V" y2="392.49" gradientUnits="userSpaceOnUse" x2="62.715" y1="360.22" x1="84.016"><stop offset="0" stop-color="#fff"/><stop offset="1" stop-color="#ccc"/></linearGradient><linearGradient id="W" y2="431.56" gradientUnits="userSpaceOnUse" x2="-245.07" gradientTransform="matrix(1.5741 -.40916 .31928 1.1559 -539.37 -373.82)" y1="426.72" x1="-242.48"><stop offset="0" stop-color="#2d2d2d"/><stop offset="1" stop-color="#ccc"/></linearGradient><linearGradient id="X" y2="423.03" gradientUnits="userSpaceOnUse" x2="286.01" gradientTransform="translate(-1112.8 -137.54)" y1="396.98" x1="306.85"><stop offset="0" stop-color="#364e59"/><stop offset="1" stop-color="#364e59" stop-opacity="0"/></linearGradient><linearGradient id="Y" y2="408.96" gradientUnits="userSpaceOnUse" x2="294.35" y1="418.86" x1="275.07"><stop offset="0" stop-color="#666"/><stop offset="1" stop-color="#666" stop-opacity="0"/></linearGradient><linearGradient id="aa" y2="347.65" gradientUnits="userSpaceOnUse" x2="388.64" gradientTransform="translate(-1112.8 -137.54)" y1="336.23" x1="381.28"><stop offset="0" stop-color="#fff"/><stop offset="1" stop-color="#ffff3e"/></linearGradient><linearGradient id="ab" y2="313.76" gradientUnits="userSpaceOnUse" x2="500.63" gradientTransform="translate(-1112.8 -137.54)" y1="278.76" x1="503.21"><stop offset="0" stop-color="#ffc022"/><stop offset="1" stop-color="#ffff3e"/></linearGradient><linearGradient id="ac" y2="341.38" gradientUnits="userSpaceOnUse" x2="502.47" gradientTransform="translate(-1112.8 -137.54)" y1="413.59" x1="498.79"><stop offset="0" stop-color="#666"/><stop offset="1" stop-color="#ffc022"/></linearGradient><linearGradient id="ad" y2="304.55" gradientUnits="userSpaceOnUse" x2="144.41" gradientTransform="translate(-1112.8 -137.54)" y1="367.17" x1="130.41"><stop offset="0" stop-color="#f90"/><stop offset="1" stop-color="#f90" stop-opacity=".073"/></linearGradient><linearGradient id="af" y2="197.19" gradientUnits="userSpaceOnUse" x2="-569.42" y1="184.16" x1="-574.63"><stop offset="0" stop-color="#fffc3d"/><stop offset="1" stop-color="#ffc022"/></linearGradient></defs><path class="shirtOverlay" fill="url(#ai)" d="M238.386 653.06l-34.366 17.182v27.664l24.743-5.327-24.056 7.732.258 8.699 4.382 3.2 6.014 3.652-10.482 2.276-4.983 17.398 13.059-.687 2.062-48.112-6.185 105.846 71.308.171-6.014-108.078-1.375 49.485 8.935 2.062 9.622.001-4.295-29.898.601-7.389-18.643-3.264 21.135-1.718-.43-22.338-30.671-17.183-10.653 50.174 16.839 14.433-20.276 16.495 20.791.688-23.969 20.275 25.817-.859-27.643 6.444 6.723 11.942-24.056-18.729 29.21-11.427-24.399-8.677 10.997-14.09-12.371-4.811 16.495-10.309z"/><path class="shirtOverlay" fill="none" d="M202.715 584.431h86.593V700.24h-86.593z"/></svg>