<?xml version="1.0" encoding="utf-8"?>
<svg class="shirt" width="86" height="380" viewBox="202.715 584.407 86.5933 380.048" preserveAspectRatio="xMidYMid meet" xmlns="http://www.w3.org/2000/svg" xmlns:xlink="http://www.w3.org/1999/xlink">
  <rect id="svgEditorBackground" x="202.71499633789062" y="584.406982421875" width="86.59329986572266" height="380.0480041503906" style="fill: none; stroke: none;" class="clothes"/>
  <defs id="svgEditorDefs">
    <path id="svgEditorClosePathDefs" class="skin" fill="black" style="stroke-width: 0px; stroke: none;"/>
    <pattern id="pattern-0" x="0" y="0" width="20" height="20" patternUnits="userSpaceOnUse" viewBox="0 0 100 100">
      <ellipse transform="matrix(-0.727589, 0.686013, -0.686013, -0.727589, 58.519876, 23.917265)" cx="26.601" cy="32.677" rx="15.798" ry="15.798" style="fill: rgb(19, 22, 19);"/>
      <ellipse transform="matrix(-0.177153, 0.984183, -0.984183, -0.177153, 118.144781, -21.682482)" cx="66.995" cy="49.589" rx="8.342" ry="8.342" style="fill: rgb(225, 192, 135);"/>
      <ellipse transform="matrix(-0.144534, 0.9895, -0.9895, -0.144534, 99.746187, 43.133934)" cx="29.885" cy="75.862" rx="14.769" ry="14.769" style="fill: rgb(232, 170, 93);"/>
      <ellipse transform="matrix(0.014597, 0.999894, -0.999893, 0.014597, 150.245914, -11.06155)" cx="78.161" cy="83.415" rx="22.498" ry="22.498" style="fill: rgb(228, 198, 197);"/>
      <ellipse transform="matrix(-0.615644, 0.788024, -0.788025, -0.615644, 123.865442, -33.532999)" cx="71.429" cy="22.824" rx="6.668" ry="6.668" style="fill: rgb(255, 233, 180);"/>
      <rect x="37.603" y="31.363" width="14.286" height="15.435"/>
      <rect x="52.381" y="13.793" width="27.915" height="20.361" style="fill: rgb(229, 205, 165);"/>
      <rect x="15.271" y="38.588" width="30.378" height="48.768" style="fill: rgb(248, 226, 195);"/>
    </pattern>
    <pattern id="pattern-0-0" patternTransform="matrix(1, 0, 0, 1, 235.602493, 759.214478)" xlink:href="#pattern-0"/>
    <pattern id="pattern-0-1" patternTransform="matrix(1, 0, 0, 1, 233.902222, 718.646851)" xlink:href="#pattern-0"/>
  </defs>
  <path d="M 219.708 687.434 C 222.637 693.526 237.647 725.607 232.687 733.129 C 227.728 740.651 210.468 761.085 215.629 772.578 C 220.791 784.072 269.579 773.053 272.796 773.049 C 276.015 773.044 254.719 735.004 256.731 732.065 C 258.743 729.124 258.018 733.192 260.034 719.071 C 262.05 704.95 261.705 707.727 261.732 704.952 C 261.759 702.177 264.51 701.716 268.182 695.995 C 276.335 685.238 254.397 667.684 247.277 690.986 C 240.157 714.288 254.383 660.656 219.708 687.434 Z" id="path-1" class="skin" style="stroke: none; stroke-width: 0px; fill: url(#pattern-0-1);"/>
  <polygon id="e1_polygon" style="stroke-width: 0px; stroke: none; fill: url(#pattern-0-0);" points="207.457 777.462 207.457 776.087 213.643 760.279 215.705 761.654 221.203 756.843 230.138 774.025 224.64 762.341 241.822 758.217 247.321 774.025 243.884 757.53 269.315 758.905 263.129 771.276 267.252 756.843 276.188 761.654 276.187 763.028 283.748 770.589 281.686 781.586 278.249 772.651 274.126 771.963 276.187 777.462 264.503 779.524 260.379 775.4 263.129 772.651 255.568 778.836 243.884 779.524 236.324 780.898 221.203 775.4 212.955 771.276 212.955 774.713 208.832 777.462" class="clothes"/>
</svg>