<svg class="shirtOverlay" width="86" height="380" viewBox="202.715 584.407 86.593 380.048" xmlns="http://www.w3.org/2000/svg" xmlns:xlink="http://www.w3.org/1999/xlink"><path class="clothes" fill="none" d="M202.715 584.407h86.593v380.048h-86.593z"/><defs><pattern id="a" width="20" height="20" patternUnits="userSpaceOnUse" viewBox="0 0 100 100"><path d="M0 65.517h101.724V100H0z" fill="#876565"/></pattern><pattern id="b" patternTransform="translate(233.278 717.399)" xlink:href="#a"/><pattern id="c" patternTransform="matrix(.82235 0 0 .16402 235.602 759.214)" xlink:href="#a"/></defs><path d="M219.084 686.186c2.929 6.092 17.939 38.173 12.979 45.695-4.959 7.522-22.219 27.956-17.058 39.449 5.162 11.494 53.95.475 57.167.471 3.219-.005-18.077-38.045-16.065-40.984 2.012-2.941 1.287 1.127 3.303-12.994s1.671-11.344 1.698-14.119c.027-2.775 2.778-3.236 6.45-8.957 8.153-10.757-13.785-28.311-20.905-5.009-7.12 23.302 7.106-30.33-27.569-3.552z" class="skin" fill="url(#b)"/><path class="clothes" fill="url(#c)" d="M207.457 777.462v-1.375l6.186-15.808 2.062 1.375 5.498-4.811 8.935 17.182-5.498-11.684 17.182-4.124 5.499 15.808-3.437-16.495 25.431 1.375-6.186 12.371 4.123-14.433 8.936 4.811-.001 1.374 7.561 7.561-2.062 10.997-3.437-8.935-4.123-.688 2.061 5.499-11.684 2.062-4.124-4.124 2.75-2.749-7.561 6.185-11.684.688-7.56 1.374-15.121-5.498-8.248-4.124v3.437l-4.123 2.749z"/></svg>