<svg class="shirtOverlay" width="86" height="380" viewBox="202.715 584.407 86.593 380.048" xmlns="http://www.w3.org/2000/svg" xmlns:xlink="http://www.w3.org/1999/xlink"><path class="clothes" fill="none" d="M202.715 584.407h86.593v380.048h-86.593z"/><defs><pattern id="a" width="20" height="20" patternUnits="userSpaceOnUse" viewBox="0 0 100 100"><path d="M33.234 3.605h52.955L53.248 98.023H.293z" transform="rotate(-19.233 43.241 50.814)" fill="#8fbaf5"/><path d="M33.234 3.605h52.955L53.248 98.023H.293z" transform="rotate(-19.233 -73.624 133.605)" fill="#8fbaf5"/></pattern><pattern id="c" patternTransform="matrix(.51502 .057 -.10214 .92277 235.131 717.611)" xlink:href="#a"/><pattern id="d" patternTransform="matrix(.49747 -.17477 .18943 .5392 232.853 763.094)" xlink:href="#a"/><pattern id="l" patternTransform="translate(1462.9 -42.857) scale(27.347)" xlink:href="#b"/><pattern id="g" patternTransform="translate(1462.9 -42.857) scale(27.347)" xlink:href="#b"/><pattern id="b" height="10" width="10" patternUnits="userSpaceOnUse" patternTransform="scale(27.347)"><circle cx="2.567" cy=".81" r=".15" fill="#fff"/><circle cx="3.048" cy="2.33" r=".15" fill="#fff"/><circle cx="4.418" cy="2.415" r=".15" fill="#fff"/><circle cx="1.844" cy="3.029" r=".15" fill="#fff"/><circle cx="6.08" cy="1.363" r=".15" fill="#fff"/><circle cx="5.819" cy="4.413" r=".15" fill="#fff"/><circle cx="4.305" cy="4.048" r=".15" fill="#fff"/><circle cx="5.541" cy="3.045" r=".15" fill="#fff"/><circle cx="4.785" cy="5.527" r=".15" fill="#fff"/><circle cx="2.667" cy="5.184" r=".15" fill="#fff"/><circle cx="7.965" cy="1.448" r=".15" fill="#fff"/><circle cx="7.047" cy="5.049" r=".15" fill="#fff"/><circle cx="4.34" cy=".895" r=".15" fill="#fff"/><circle cx="7.125" cy=".34" r=".15" fill="#fff"/><circle cx="9.553" cy="1.049" r=".15" fill="#fff"/><circle cx="7.006" cy="2.689" r=".15" fill="#fff"/><circle cx="8.909" cy="2.689" r=".15" fill="#fff"/><circle cx="9.315" cy="4.407" r=".15" fill="#fff"/><circle cx="7.82" cy="3.87" r=".15" fill="#fff"/><circle cx="8.27" cy="5.948" r=".15" fill="#fff"/><circle cx="7.973" cy="7.428" r=".15" fill="#fff"/><circle cx="9.342" cy="8.072" r=".15" fill="#fff"/><circle cx="8.206" cy="9.315" r=".15" fill="#fff"/><circle cx="9.682" cy="9.475" r=".15" fill="#fff"/><circle cx="9.688" cy="6.186" r=".15" fill="#fff"/><circle cx="3.379" cy="6.296" r=".15" fill="#fff"/><circle cx="2.871" cy="8.204" r=".15" fill="#fff"/><circle cx="4.59" cy="8.719" r=".15" fill="#fff"/><circle cx="3.181" cy="9.671" r=".15" fill="#fff"/><circle cx="5.734" cy="7.315" r=".15" fill="#fff"/><circle cx="6.707" cy="6.513" r=".15" fill="#fff"/><circle cx="5.73" cy="9.67" r=".15" fill="#fff"/><circle cx="6.535" cy="8.373" r=".15" fill="#fff"/><circle cx="4.37" cy="7.154" r=".15" fill="#fff"/><circle cx=".622" cy="7.25" r=".15" fill="#fff"/><circle cx=".831" cy="5.679" r=".15" fill="#fff"/><circle cx="1.257" cy="8.519" r=".15" fill="#fff"/><circle cx="1.989" cy="6.877" r=".15" fill="#fff"/><circle cx=".374" cy="3.181" r=".15" fill="#fff"/><circle cx="1.166" cy="1.664" r=".15" fill="#fff"/><circle cx="1.151" cy=".093" r=".15" fill="#fff"/><circle cx="1.151" cy="10.093" r=".15" fill="#fff"/><circle cx="1.302" cy="4.451" r=".15" fill="#fff"/><circle cx="3.047" cy="3.763" r=".15" fill="#fff"/></pattern><filter id="f"><feGaussianBlur stdDeviation="3.674"/></filter><filter id="i" height="1.18" width="2.538" y="-.09" x="-.769"><feGaussianBlur stdDeviation="11.001"/></filter><filter id="m" height="1.413" width="1.504" y="-.206" x="-.252"><feGaussianBlur stdDeviation="16.206"/></filter><filter id="o" height="1.404" width="1.365" y="-.202" x="-.182"><feGaussianBlur stdDeviation="15.967"/></filter><linearGradient id="e" y2="972.13" gradientUnits="userSpaceOnUse" x2="682.45" gradientTransform="translate(-40.98 -479.24)" y1="1055" x1="124.08"><stop offset="0" stop-color="#5db6b5"/><stop offset=".5" stop-color="#247279"/><stop offset="1" stop-color="#14181d"/></linearGradient><linearGradient id="h" y2="972.13" gradientUnits="userSpaceOnUse" x2="682.45" gradientTransform="translate(-13.838 -482.1)" y1="1055" x1="124.08"><stop offset="0" stop-color="#fff"/><stop offset="1" stop-color="#fff" stop-opacity="0"/></linearGradient><linearGradient id="j" y2="288.75" gradientUnits="userSpaceOnUse" x2="605.5" gradientTransform="translate(-40.98 -479.24)" y1="288.75" x1="150.93"><stop offset="0" stop-color="#5db6b5"/><stop offset=".5" stop-color="#247279"/><stop offset="1" stop-color="#14181d"/></linearGradient><linearGradient id="k" y2="288.75" gradientUnits="userSpaceOnUse" x2="150.93" gradientTransform="translate(-40.98 -479.24)" y1="220.18" x1="408.07"><stop offset="0" stop-color="#5db6b5" stop-opacity=".275"/><stop offset=".5" stop-color="#247974"/><stop offset="1" stop-color="#14181d"/></linearGradient><linearGradient id="n" y2="728.17" gradientUnits="userSpaceOnUse" x2="310.49" gradientTransform="translate(-40.98 -479.24)" y1="619.07" x1="385.61"><stop offset="0" stop-color="#fff"/><stop offset="1" stop-color="#fff" stop-opacity="0"/></linearGradient><linearGradient id="p" y2="302.83" gradientUnits="userSpaceOnUse" x2="416.18" gradientTransform="translate(-36.94 -483.28)" y1="327.07" x1="262.64"><stop offset="0" stop-color="#fff"/><stop offset="1" stop-color="#fff" stop-opacity="0"/></linearGradient></defs><path d="M219.708 687.434c2.929 6.092 17.939 38.173 12.979 45.695-4.959 7.522-22.219 27.956-17.058 39.449 5.162 11.494 53.95.475 57.167.471 3.219-.005-18.077-38.045-16.065-40.984 2.012-2.941 1.287 1.127 3.303-12.994s1.671-11.344 1.698-14.119c.027-2.775 2.778-3.236 6.45-8.957 8.153-10.757-13.785-28.311-20.905-5.009-7.12 23.302 7.106-30.33-27.569-3.552z" class="skin" fill="url(#c)"/><path class="clothes" fill="url(#d)" d="M207.457 777.462v-1.375l6.186-15.808 2.062 1.375 5.498-4.811 8.935 17.182-5.498-11.684 17.182-4.124 5.499 15.808-3.437-16.495 25.431 1.375-6.186 12.371 4.123-14.433 8.936 4.811-.001 1.374 7.561 7.561-2.062 10.997-3.437-8.935-4.123-.688 2.061 5.499-11.684 2.062-4.124-4.124 2.75-2.749-7.561 6.185-11.684.688-7.56 1.374-15.121-5.498-8.248-4.124v3.437l-4.123 2.749z"/><g fill-rule="evenodd"><path d="M212.17-156.21h239.96l-17.35 97.252s64.48 106.88 81.62 159.37 112.77 987.39 112.77 987.39L375 1307.702l-291.02-214c-.004 0 61.71-902.22 100.28-983.87 38.56-81.657 69.54-156.3 69.54-156.3l-41.63-109.74z" fill="url(#e)" transform="matrix(.02664 0 0 .03119 236.228 700.134)"/><path d="M233.42-206.45l17.03 162.71c0 .002-5.72-22.855 8.57-34.284 14.29-11.428 145.71-31.426 157.14-14.285 11.43 17.142 20 40 20 40l16.62-158.7-219.36 4.56z" filter="url(#f)" stroke="#000" transform="matrix(.02664 0 0 .03119 236.228 700.134)"/><path d="M212.17-156.21h239.96l-17.35 97.252s64.48 106.88 81.62 159.37 112.77 987.39 112.77 987.39L375 1307.702l-291.02-214c-.004 0 61.71-902.22 100.28-983.87 38.56-81.657 69.54-156.3 69.54-156.3l-41.63-109.74z" fill="url(#g)" transform="matrix(.02664 0 0 .03119 236.228 700.134)"/><path d="M239.31-159.07h239.96L429.6-61.815s66.5 116.98 83.64 169.46c17.14 52.5 112.76 983.36 112.76 983.36l-233.96 201.7-280.92-201.9s61.72-902.18 100.28-983.83c38.57-81.654 69.54-156.3 69.54-156.3l-41.63-109.74z" opacity=".262" fill="url(#h)" transform="matrix(.02664 0 0 .03119 236.228 700.134)"/><path transform="matrix(.05329 0 0 .03119 224.585 685.188)" d="M367.7 299.28l34.34-2.02-2.02 292.94-32.32-290.92z" filter="url(#i)"/><path d="M240.617 693.95l2.284 4.632s-.152-.712.228-1.069c.381-.356 3.883-.98 4.187-.445.305.534.533 1.247.533 1.247l3.35-7.217s.229-.267-.228-.891-9.973-.446-10.506 0-1.294 1.158-1.294 1.158l1.446 2.584z" fill="#46bac5"/><path d="M164.73-198.31l85.72 148.57c0 .002-5.72-22.855 8.57-34.284 14.29-11.428 145.71-31.426 157.14-14.285 11.43 17.142 20 40 20 40l125.72-231.43s8.57-8.57-8.57-28.57c-17.15-20-374.29-14.29-394.29 0s-48.57 37.14-48.57 37.14l54.28 82.86z" fill="url(#j)" transform="matrix(.02664 0 0 .03119 236.228 700.134)"/><path d="M164.73-198.31l85.72 148.57c0 .002-5.72-22.855 8.57-34.284 14.29-11.428 145.71-31.426 157.14-14.285 11.43 17.142 20 40 20 40l125.72-231.43s8.57-8.57-8.57-28.57c-17.15-20-374.29-14.29-394.29 0s-48.57 37.14-48.57 37.14l54.28 82.86z" fill="url(#k)" transform="matrix(.02664 0 0 .03119 236.228 700.134)"/><path d="M164.73-198.31l85.72 148.57c0 .002-5.72-22.855 8.57-34.284 14.29-11.428 145.71-31.426 157.14-14.285 11.43 17.142 20 40 20 40l125.72-231.43s8.57-8.57-8.57-28.57c-17.15-20-374.29-14.29-394.29 0s-48.57 37.14-48.57 37.14l54.28 82.86z" fill="url(#l)" transform="matrix(.02664 0 0 .03119 236.228 700.134)"/><path d="M294.73-11.167l35.72 120 47.14 12.86 28.57-55.714 13.59 58.044-73.83 94.08-76.02-43.51-.39-128.94 25.22-56.817z" opacity=".094" filter="url(#m)" fill="url(#n)" transform="matrix(.02664 0 0 .03119 236.228 700.134)"/><path d="M225.7-311.77h210.11l-28.28 177.78-101.02 12.12-80.81-189.9z" opacity=".385" filter="url(#o)" fill="url(#p)" transform="matrix(.02664 0 0 .03119 236.228 700.134)"/></g></svg>