<svg class="shirtOverlay" width="86" height="380" viewBox="202.715 584.407 86.593 380.048" xmlns="http://www.w3.org/2000/svg" xmlns:xlink="http://www.w3.org/1999/xlink"><path class="clothes" fill="none" d="M202.715 584.407h86.593v380.048h-86.593z"/><defs><pattern id="a" width="20" height="20" patternUnits="userSpaceOnUse" viewBox="0 0 100 100"><path d="M23.645 7.569h36.896L37.59 101.988H.694z" transform="rotate(-19.233 30.618 54.778)" fill="#55dc43"/><path d="M-.561-30.271h52.955L19.453 64.147h-52.955z" transform="rotate(-19.233 9.446 16.938)" fill="#55dc43"/></pattern><pattern id="c" patternTransform="matrix(.51502 .057 -.10214 .92277 235.131 717.611)" xlink:href="#a"/><pattern id="d" patternTransform="matrix(.49747 -.17477 .18943 .5392 232.853 763.094)" xlink:href="#a"/><pattern id="b" height="10" width="10" patternUnits="userSpaceOnUse" patternTransform="scale(27.347)"><circle cx="2.567" cy=".81" r=".15" fill="#fff"/><circle cx="3.048" cy="2.33" r=".15" fill="#fff"/><circle cx="4.418" cy="2.415" r=".15" fill="#fff"/><circle cx="1.844" cy="3.029" r=".15" fill="#fff"/><circle cx="6.08" cy="1.363" r=".15" fill="#fff"/><circle cx="5.819" cy="4.413" r=".15" fill="#fff"/><circle cx="4.305" cy="4.048" r=".15" fill="#fff"/><circle cx="5.541" cy="3.045" r=".15" fill="#fff"/><circle cx="4.785" cy="5.527" r=".15" fill="#fff"/><circle cx="2.667" cy="5.184" r=".15" fill="#fff"/><circle cx="7.965" cy="1.448" r=".15" fill="#fff"/><circle cx="7.047" cy="5.049" r=".15" fill="#fff"/><circle cx="4.34" cy=".895" r=".15" fill="#fff"/><circle cx="7.125" cy=".34" r=".15" fill="#fff"/><circle cx="9.553" cy="1.049" r=".15" fill="#fff"/><circle cx="7.006" cy="2.689" r=".15" fill="#fff"/><circle cx="8.909" cy="2.689" r=".15" fill="#fff"/><circle cx="9.315" cy="4.407" r=".15" fill="#fff"/><circle cx="7.82" cy="3.87" r=".15" fill="#fff"/><circle cx="8.27" cy="5.948" r=".15" fill="#fff"/><circle cx="7.973" cy="7.428" r=".15" fill="#fff"/><circle cx="9.342" cy="8.072" r=".15" fill="#fff"/><circle cx="8.206" cy="9.315" r=".15" fill="#fff"/><circle cx="9.682" cy="9.475" r=".15" fill="#fff"/><circle cx="9.688" cy="6.186" r=".15" fill="#fff"/><circle cx="3.379" cy="6.296" r=".15" fill="#fff"/><circle cx="2.871" cy="8.204" r=".15" fill="#fff"/><circle cx="4.59" cy="8.719" r=".15" fill="#fff"/><circle cx="3.181" cy="9.671" r=".15" fill="#fff"/><circle cx="5.734" cy="7.315" r=".15" fill="#fff"/><circle cx="6.707" cy="6.513" r=".15" fill="#fff"/><circle cx="5.73" cy="9.67" r=".15" fill="#fff"/><circle cx="6.535" cy="8.373" r=".15" fill="#fff"/><circle cx="4.37" cy="7.154" r=".15" fill="#fff"/><circle cx=".622" cy="7.25" r=".15" fill="#fff"/><circle cx=".831" cy="5.679" r=".15" fill="#fff"/><circle cx="1.257" cy="8.519" r=".15" fill="#fff"/><circle cx="1.989" cy="6.877" r=".15" fill="#fff"/><circle cx=".374" cy="3.181" r=".15" fill="#fff"/><circle cx="1.166" cy="1.664" r=".15" fill="#fff"/><circle cx="1.151" cy=".093" r=".15" fill="#fff"/><circle cx="1.151" cy="10.093" r=".15" fill="#fff"/><circle cx="1.302" cy="4.451" r=".15" fill="#fff"/><circle cx="3.047" cy="3.763" r=".15" fill="#fff"/></pattern><filter id="f"><feGaussianBlur stdDeviation="3.674"/></filter><filter id="j" height="1.18" width="2.538" y="-.09" x="-.769"><feGaussianBlur stdDeviation="11.001"/></filter><filter id="p" height="1.413" width="1.504" y="-.206" x="-.252"><feGaussianBlur stdDeviation="16.206"/></filter><filter id="r" height="1.404" width="1.365" y="-.202" x="-.182"><feGaussianBlur stdDeviation="15.967"/></filter><pattern id="e" patternTransform="translate(351.575 570.746)" xlink:href="#b"/><pattern id="g" patternTransform="translate(338.1 -132.374)" xlink:href="#b"/><pattern id="h" patternTransform="translate(351.575 570.746)" xlink:href="#b"/><pattern id="i" patternTransform="translate(363.56 561.817)" xlink:href="#b"/><pattern id="k" patternTransform="translate(379.87 438.73)" xlink:href="#b"/><pattern id="l" patternTransform="translate(332.236 -195.498)" xlink:href="#b"/><pattern id="m" patternTransform="translate(332.236 -195.498)" xlink:href="#b"/><pattern id="n" patternTransform="translate(332.236 -195.498)" xlink:href="#b"/><pattern id="o" patternTransform="translate(332.236 -195.498)" xlink:href="#b"/><pattern id="q" patternTransform="translate(339.63 98.468)" xlink:href="#b"/><pattern id="s" patternTransform="translate(325.755 -221.82)" xlink:href="#b"/></defs><path d="M219.708 687.434c2.929 6.092 17.939 38.173 12.979 45.695-4.959 7.522-22.219 27.956-17.058 39.449 5.162 11.494 53.95.475 57.167.471 3.219-.005-18.077-38.045-16.065-40.984 2.012-2.941 1.287 1.127 3.303-12.994s1.671-11.344 1.698-14.119c.027-2.775 2.778-3.236 6.45-8.957 8.153-10.757-13.785-28.311-20.905-5.009-7.12 23.302 7.106-30.33-27.569-3.552z" class="skin" fill="url(#c)"/><path class="clothes" fill="url(#d)" d="M207.457 777.462v-1.375l6.186-15.808 2.062 1.375 5.498-4.811 8.935 17.182-5.498-11.684 17.182-4.124 5.499 15.808-3.437-16.495 25.431 1.375-6.186 12.371 4.123-14.433 8.936 4.811-.001 1.374 7.561 7.561-2.062 10.997-3.437-8.935-4.123-.688 2.061 5.499-11.684 2.062-4.124-4.124 2.75-2.749-7.561 6.185-11.684.688-7.56 1.374-15.121-5.498-8.248-4.124v3.437l-4.123 2.749z"/><g fill-rule="evenodd"><path d="M212.17-156.21h239.96l-17.35 97.252s64.48 106.88 81.62 159.37 112.77 987.39 112.77 987.39L375 1307.702l-291.02-214c-.004 0 61.71-902.22 100.28-983.87 38.56-81.657 69.54-156.3 69.54-156.3l-41.63-109.74z" fill="url(#e)" transform="matrix(.02664 0 0 .03119 236.228 700.134)"/><path d="M233.42-206.45l17.03 162.71c0 .002-5.72-22.855 8.57-34.284 14.29-11.428 145.71-31.426 157.14-14.285 11.43 17.142 20 40 20 40l16.62-158.7-219.36 4.56z" filter="url(#f)" stroke="#000" fill="url(#g)" transform="matrix(.02664 0 0 .03119 236.228 700.134)"/><path d="M212.17-156.21h239.96l-17.35 97.252s64.48 106.88 81.62 159.37 112.77 987.39 112.77 987.39L375 1307.702l-291.02-214c-.004 0 61.71-902.22 100.28-983.87 38.56-81.657 69.54-156.3 69.54-156.3l-41.63-109.74z" fill="url(#h)" transform="matrix(.02664 0 0 .03119 236.228 700.134)"/><path d="M239.31-159.07h239.96L429.6-61.815s66.5 116.98 83.64 169.46c17.14 52.5 112.76 983.36 112.76 983.36l-233.96 201.7-280.92-201.9s61.72-902.18 100.28-983.83c38.57-81.654 69.54-156.3 69.54-156.3l-41.63-109.74z" opacity=".262" fill="url(#i)" transform="matrix(.02664 0 0 .03119 236.228 700.134)"/><path transform="matrix(.05329 0 0 .03119 224.585 685.188)" d="M367.7 299.28l34.34-2.02-2.02 292.94-32.32-290.92z" filter="url(#j)" fill="url(#k)"/><path d="M164.73-198.31l85.72 148.57c0 .002-5.72-22.855 8.57-34.284 14.29-11.428 145.71-31.426 157.14-14.285 11.43 17.142 20 40 20 40l125.72-231.43s8.57-8.57-8.57-28.57c-17.15-20-374.29-14.29-394.29 0s-48.57 37.14-48.57 37.14l54.28 82.86z" fill="url(#l)" transform="matrix(.02664 0 0 .03119 236.228 700.134)"/><path d="M164.73-198.31l85.72 148.57c0 .002-5.72-22.855 8.57-34.284 14.29-11.428 145.71-31.426 157.14-14.285 11.43 17.142 20 40 20 40l125.72-231.43s8.57-8.57-8.57-28.57c-17.15-20-374.29-14.29-394.29 0s-48.57 37.14-48.57 37.14l54.28 82.86z" fill="url(#m)" transform="matrix(.02664 0 0 .03119 236.228 700.134)"/><path d="M164.73-198.31l85.72 148.57c0 .002-5.72-22.855 8.57-34.284 14.29-11.428 145.71-31.426 157.14-14.285 11.43 17.142 20 40 20 40l125.72-231.43s8.57-8.57-8.57-28.57c-17.15-20-374.29-14.29-394.29 0s-48.57 37.14-48.57 37.14l54.28 82.86z" fill="url(#n)" transform="matrix(.02664 0 0 .03119 236.228 700.134)"/><path d="M164.73-198.31l85.72 148.57c0 .002-5.72-22.855 8.57-34.284 14.29-11.428 145.71-31.426 157.14-14.285 11.43 17.142 20 40 20 40l125.72-231.43s8.57-8.57-8.57-28.57c-17.15-20-374.29-14.29-394.29 0s-48.57 37.14-48.57 37.14l54.28 82.86z" fill="url(#o)" transform="matrix(.02664 0 0 .03119 236.228 700.134)"/><path d="M294.73-11.167l35.72 120 47.14 12.86 28.57-55.714 13.59 58.044-73.83 94.08-76.02-43.51-.39-128.94 25.22-56.817z" opacity=".094" filter="url(#p)" fill="url(#q)" transform="matrix(.02664 0 0 .03119 236.228 700.134)"/><path d="M225.7-311.77h210.11l-28.28 177.78-101.02 12.12-80.81-189.9z" opacity=".385" filter="url(#r)" fill="url(#s)" transform="matrix(.02664 0 0 .03119 236.228 700.134)"/></g><path d="M233.007 721.858c-3.614.052-6.335 1.946-5.682 7.032.442 3.443 1.288 3.8 1.642 5.525.14.686-.226 1.375-.6 2.298-7.347 1.403-14.691 4.032-15.794 8.785 3.928-1.73 7.499-1.074 11.057.352.018 3.512-1.915 7.327-.177 10.53.14-2.887 5.472-6.414 10.98-9.726h.002l.059-.005.02-.003.016-.002a10.745 10.745 0 0 0 1.256-.222l.18-.04.239-.063c.005 0 .01-.003.015-.005.032-.008.064-.014.096-.023l.128-.036c.08-.022.158-.046.237-.07a15.48 15.48 0 0 0 .481-.154l.088-.03c.13-.045.26-.091.39-.14l.03-.01c.15-.056.3-.114.45-.175l.025-.01c.125-.051.251-.106.376-.16l.172-.074c.757-.338 1.499-.731 2.208-1.163a19.55 19.55 0 0 0 .87-.56l.195-.138.222-.157a18.52 18.52 0 0 0 .998-.777l.177-.149.024-.02c.115-.1.226-.2.337-.302l.02-.018c.229-.21.446-.42.651-.635l.013-.016c.101-.105.201-.21.296-.316l.036-.039.11-.128c.038-.043.073-.086.109-.13l.033-.038a10.5 10.5 0 0 0 .175-.218l.09-.119c.035-.045.07-.09.103-.136l.023-.031.006-.008c.31.066.637.108.983.124.28.013.559-.015.83-.075.017.022.036.043.052.065l.044.061.093.119c.057.072.114.146.174.218l.034.039c.05.059.098.119.15.177.022.027.045.054.069.08l.036.039c.089.1.18.2.275.298l.1.103.15.152a14.237 14.237 0 0 0 .432.414l.02.018c.116.106.235.21.356.314l.023.02c.097.084.195.166.296.248l.12.1c.225.181.457.36.695.533l.132.093c.514.368 1.057.718 1.618 1.042l.06.033c.57.327 1.157.625 1.754.89.05.023.1.046.15.067.125.055.25.109.375.16.01.004.02.006.028.01.302.122.606.234.909.337l.07.026c.117.04.236.077.354.113.035.01.069.023.103.034h.003c.098.03.195.057.293.085l.183.048c.08.021.157.043.237.062l.015.003a12.55 12.55 0 0 0 .713.152l.049.01.208.036c.097.015.192.028.288.041.05.007.1.015.15.02.009.002.018.002.028.003l.033.003.047.005h.002c5.507 3.312 10.839 6.84 10.98 9.726 1.737-3.203-.193-7.018-.175-10.53 3.558-1.426 7.13-2.082 11.056-.352-1.102-4.754-8.448-7.381-15.796-8.785-.374-.923-.74-1.612-.6-2.298.355-1.725 1.2-2.082 1.642-5.525 1.441-11.224-13.544-6.893-18.3-1.564a6.114 6.114 0 0 0-.559-.044c-.253-.009-.5.008-.738.049-2.595-2.916-8.26-5.535-12.623-5.472z" stroke="#ccc" stroke-linecap="round" stroke-width=".32936" fill="#ccc"/><path d="M250.835 734.935c7.51.266 26.968 2.251 28.82 10.234-3.927-1.73-7.5-1.074-11.058.353-.018 3.511 1.914 7.325.176 10.528-.295-6.07-23.526-14.96-23.114-18.763z" stroke="#000" stroke-linecap="round" stroke-width=".49404" fill="#fdd"/><path d="M245.18 729.946c.11-6.16 21.427-14.674 19.722-1.386-.442 3.443-1.288 3.8-1.642 5.525-.35 1.705 2.425 3.4.689 8.759-2.528 7.802-15.85 1.032-17.952-4.336z" stroke="#000" stroke-width=".49404" fill="#fdd"/><path d="M262.351 745.277c-.777 1.118-2.459 1.171-3.996 1.093-4.814-.244-10.984-4.353-12.359-7.862.204-.366 18.27 4.016 16.355 6.769z" stroke="#000" stroke-width=".49404" fill="#fad1d1"/><path d="M250.452 733.148c2.128-.046 5.159-1.79 6.907-3.008M250.868 734.327c3.401.898 4.194 1.657 5.315 2.472" stroke="#000" stroke-linecap="round" stroke-width=".32936" fill="#ffd5d5"/><path d="M241.062 734.935c-7.51.266-26.967 2.251-28.82 10.234 3.928-1.73 7.5-1.074 11.058.353.018 3.511-1.914 7.325-.176 10.528.296-6.069 23.526-14.958 23.114-18.762z" stroke="#000" stroke-linecap="round" stroke-width=".49404" fill="#fdd"/><path d="M246.718 729.946c-.11-6.16-21.427-14.674-19.722-1.386.442 3.442 1.288 3.8 1.642 5.525.35 1.704-2.426 3.4-.69 8.758 2.528 7.802 15.85 1.033 17.953-4.336z" stroke="#000" stroke-width=".49404" fill="#fdd"/><path d="M229.546 745.277c.778 1.118 2.46 1.171 3.996 1.093 4.814-.244 10.984-4.353 12.36-7.862-.204-.366-18.27 4.016-16.356 6.769z" stroke="#000" stroke-width=".49404" fill="#fad1d1"/><path d="M241.446 733.148c-2.128-.046-5.159-1.79-6.908-3.008" stroke="#000" stroke-linecap="round" stroke-width=".32936" fill="#ffd5d5"/><path d="M250.864 733.657c0 3.573-2.277 6.587-4.823 6.47-3.483-.162-5.154-2.913-4.823-6.47.386-4.147 2.197-6.8 4.823-6.705 3.602.13 4.823 3.132 4.823 6.705z" stroke="#000" stroke-linecap="round" stroke-width=".49404" fill="#fdd"/><path d="M241.03 734.327c-3.402.898-4.195 1.657-5.316 2.472" stroke="#000" stroke-linecap="round" stroke-width=".32936" fill="#ffd5d5"/></svg>