<svg class="shirtOverlay" width="86" height="380" viewBox="202.715 584.407 86.593 380.048" preserveAspectRatio="xMidYMax" xmlns="http://www.w3.org/2000/svg"><path class="clothes" fill="none" d="M202.715 584.431h86.593V700.24h-86.593z"/><path class="clothes" fill="none" d="M-403.988 499.579h1300v550h-1300z"/><path fill="red" class="clothes" d="M239.073 683.29l12.372-10.31 19.244-6.873 5.498 8.248 5.499 11.684-6.873 34.365 2.749 35.053 7.56 8.248v-1.375l-15.808 4.124-7.56-35.053.687-13.059v.688l-4.811 14.433 2.749 6.186 14.434 28.179 7.56 13.059 7.561 6.873-83.852 10.31 10.997-15.809v-16.495l16.496-28.179 2.061-10.997-3.436-13.059-4.811-6.185 4.124 16.495.687 6.873-7.56 35.74-4.812-1.375-11.684 2.749h.688l9.622-19.244v-.687l.687-17.87-9.622-40.551 12.371 1.374z"/><path d="M256.223 716.562a6.614 4.352 0 1 1-13.228 0 6.614 4.352 0 1 1 13.228 0z" stroke="#000" stroke-width=".48102" fill="#fff"/><path d="M256.309 714.042a6.614 4.352 0 1 1-13.228 0 6.614 4.352 0 1 1 13.228 0z" stroke="#000" stroke-width=".48102" fill="#fff"/><path d="M249.264 695.773c-7.903 0-14.315 4.31-14.315 9.62 0 1.692.655 3.28 1.796 4.661-.967.768-1.566 1.835-1.566 3.014 0 2.34 2.358 4.24 5.266 4.24 2.217 0 4.113-1.108 4.89-2.669 1.251.24 2.565.375 3.929.375 7.903 0 14.318-4.31 14.318-9.62s-6.415-9.62-14.318-9.62z" fill-rule="evenodd" stroke="#000" stroke-width=".48102" fill="#fff"/><path d="M-380 456.65a95.714 104.29 0 1 1-191.43 0 95.714 104.29 0 1 1 191.43 0z" transform="matrix(.04303 0 0 .03961 269.048 688.565)" stroke="#000" stroke-width="6" fill="#fff"/><path d="M252.373 706.77c-.343 1.912-1.546 3.464-3.452 3.464-1.904 0-2.993-2.354-2.993-4.266s.974-2.949 2.879-2.949c2.42.458 2.936 1.38 3.566 3.75z" stroke="#000" stroke-width=".2076403"/><g stroke="#000" stroke-width="6"><path d="M-380 456.65a95.714 104.29 0 1 1-191.43 0 95.714 104.29 0 1 1 191.43 0z" transform="matrix(.02793 0 0 -.03108 251.327 718.215)" fill="#fff"/><path d="M-369.92 456.65c0 57.56-42.88 112.83-95.71 112.83-52.84 0-85.63-36.04-105.8-112.83 12.61-70.38 42.88-91.47 95.72-104.29 52.83 0 105.79 46.72 105.79 104.29z" transform="matrix(.02272 0 0 -.0268 249.02 716.377)"/></g><path d="M250.038 700.253c-2.09 0-3.842.855-4.46 2.03.855-.746 2.245-1.238 3.827-1.238 2.603 0 4.718 1.318 4.718 2.942 0 .32-.105.623-.257.91.553-.481.887-1.066.887-1.703 0-1.623-2.112-2.941-4.715-2.941z" stroke="#000" stroke-width=".4946489" fill="#fff"/><path d="M237.811 698.81c-1.865 0-3.377 1.22-3.377 2.721 0 .349.089.678.238.985.049-1.467 1.536-2.646 3.37-2.646 1.431 0 2.647.72 3.139 1.733 0-.024.01-.047.01-.072 0-1.501-1.515-2.72-3.38-2.72z" stroke="#000" stroke-width=".48102" fill="#fff"/><path d="M241.935 711.58c0 1.359-.122-.745-1.374-1.031-1.138 0-1.375 2.333-1.375.974 0-1.36.18-1.604 1.547-2.864 1.08 1.374 1.202 1.562 1.202 2.92z"/><path d="M252.12 709.694c-.313.25-.508.529-.508.827 0 1.028 2.09 1.861 4.667 1.861 2.434 0 4.435-.744 4.648-1.693-.767.61-2.332 1.034-4.16 1.034-2.575 0-4.667-.833-4.667-1.861a.79.79 0 0 1 .02-.168zM237.24 714.758a1.088 1.06 0 1 1-2.177 0 1.088 1.06 0 1 1 2.177 0zM239.13 716.046a1.088 1.06 0 1 1-2.177 0 1.088 1.06 0 1 1 2.176 0z" stroke="#000" stroke-width=".48102" fill="#fff"/><path d="M241.306 716.562a1.088 1.06 0 1 1-2.177 0 1.088 1.06 0 1 1 2.177 0zM243.539 716.333a1.088 1.06 0 1 1-2.177 0 1.088 1.06 0 1 1 2.177 0z" stroke="#000" stroke-width=".48102" fill="#fff"/><path d="M260.194 700.726c-1.522-1.214-3.375-1.646-4.962-1.317 1.256.045 2.575.51 3.71 1.417 2.47 1.971 3.131 5.257 1.475 7.332-.64.802-1.535 1.301-2.533 1.505 1.486.058 2.886-.478 3.785-1.605 1.656-2.075.996-5.36-1.475-7.332z" fill-rule="evenodd" fill="#999"/><path d="M241.445 698.18c-.644 0-1.2.359-1.505.887a1.712 1.712 0 0 1 1.076-.387c.966 0 1.753.798 1.753 1.783a1.8 1.8 0 0 1-.245.898 1.79 1.79 0 0 0 .67-1.397c0-.985-.783-1.784-1.75-1.784zM255.108 717.18c-.493.64-1.624 1.265-3.034 1.59-.855.198-1.662.246-2.334.18.167.583 1.56.763 3.14.397 1.603-.37 2.79-1.159 2.652-1.76-.04-.173-.196-.306-.424-.407zM254.939 714.581c-.494.642-1.624 1.265-3.035 1.59-.855.199-1.662.248-2.334.18.168.584 1.56.764 3.142.398 1.602-.37 2.789-1.158 2.65-1.759-.04-.174-.195-.308-.423-.409z" fill="#999"/><g><path d="M579.336 941.017C573.54 935.6 568.8 929.97 568.8 928.505c0-1.466-1.569-3.765-3.486-5.108-3.231-2.263-3.408-3.536-2.411-17.372.665-9.229 1.996-15.946 3.486-17.593 1.326-1.465 2.411-4.555 2.411-6.867 0-3.083 1.91-5.46 7.164-8.915 6.722-4.42 7.937-4.647 19.67-3.668 6.877.573 12.88 1.417 13.338 1.876.458.458-.048 2.768-1.127 5.134-1.077 2.365-1.96 7.58-1.96 11.59 0 6.46-.675 7.744-5.95 11.299-7.013 4.726-15.113 16.853-16.59 24.84-1.083 5.852 1.565 13.531 7.783 22.577 5.501 8.002-.413 5.353-11.792-5.281zm-22.757-73.647c-2.795-2.838-.947-7.393 4.903-12.086 7.358-5.902 6.45-9.712-1.986-8.343-11.404 1.85-17.978-10.12-7.553-13.755 3.403-1.186 5.057-2.894 5.057-5.222 0-3.558-4.045-4.774-5.9-1.773-2.693 4.357-12.643-.448-12.643-6.107 0-1.371 2.603-3.581 5.785-4.91 7.166-2.995 8.403-4.845 5.082-7.6-1.955-1.624-3.055-1.67-4.533-.192-2.538 2.539-8.483 2.5-11.054-.072-3.172-3.172-2.394-7.155 2.248-11.516 6.286-5.905 4.814-9.218-4.095-9.218-9.709 0-12.686-3.975-7.284-9.726 5.688-6.054 4.891-8.566-2.29-7.218-5.836 1.094-10.83-.91-10.83-4.345 0-.82 1.87-3.117 4.156-5.105 4.999-4.346 4.136-6.477-2.623-6.477-6.211 0-8.071-3.999-3.969-8.532 3.876-4.282 1.184-7.893-3.868-5.19-2.351 1.26-3.85 1.207-5.238-.18-2.699-2.699-2.454-4.304 1.404-9.21 3.904-4.961 3.117-7.231-2.505-7.231-5.427 0-6.85-2.9-3.332-6.787 3.518-3.888 2.17-8.385-2.515-8.385-4.105 0-4.668-5.298-.896-8.428 3.693-3.066 3.09-6.429-1.264-7.047-5.418-.77-5.667-6.568-.492-11.43 4.277-4.019 5.7-8.495 2.698-8.495-.872 0-2.055.759-2.628 1.686-.573.927-2.135 1.686-3.47 1.686-4.539 0-2.453-5.526 5.156-13.66 8.676-9.276 10.009-13.519 2.503-7.97-4.603 3.404-5.33 3.51-7.71 1.13-2.38-2.379-1.805-3.615 6.087-13.098 4.792-5.759 8.314-10.87 7.826-11.358-.488-.488-3.208.484-6.044 2.16-3.777 2.23-5.658 2.545-7.027 1.176-3.301-3.3.187-9.08 7.468-12.376 8.414-3.808 17.461-11.13 15.803-12.79-.656-.655-3.082-.33-5.393.724-5.047 2.3-9.657.897-8.96-2.726.58-3.008 12.96-10.69 22.079-13.7 6.937-2.29 9.124-4.645 6.628-7.141-1.114-1.114-5.4-.561-12.743 1.642-6.086 1.825-11.459 2.926-11.94 2.446-3.206-3.207 8.666-12.196 16.204-12.268 5.246-.05 18.205-6.074 18.205-8.462 0-1.27-3.57-1.804-10.536-1.575-13.64.45-13.47.497-11.481-3.22 1.618-3.024 13.46-6.647 30.867-9.443 9.096-1.461 7.778-3.973-2.396-4.568-4.795-.28-8.987-1.327-9.316-2.328-.646-1.963 16.964-7.453 23.908-7.453 2.73 0 4.24-.942 4.24-2.65 0-2.202-1.495-2.477-8.85-1.63-9.012 1.039-15.377-.963-12.208-3.839.92-.834 6.435-2.491 12.257-3.682 5.822-1.191 10.987-2.816 11.478-3.61 1.92-3.106-1.234-4.32-8.005-3.082-15.515 2.837-15.705-4.329-.246-9.32 11.238-3.63 13.508-7.172 3.888-6.065-11.698 1.346-14.329 1.066-14.329-1.522 0-1.626 3.908-3.785 10.957-6.053 8.559-2.754 11.075-4.323 11.496-7.165.43-2.903-.315-3.639-3.683-3.639-2.322 0-6.291.787-8.82 1.749-6.754 2.568-9.107-.58-4.277-5.721 3.749-3.99 3.75-4.023.315-4.922-5.267-1.377-4.151-5.339 2.872-10.207 9.336-6.47 16.244-8.537 20.647-6.18 2.107 1.127 6.28 1.485 9.997.857l6.38-1.078.947 7.059c1.401 10.445.373 11.876-7.618 10.598-5.388-.862-6.63-.599-6.014 1.273.426 1.297 3.22 2.599 6.209 2.893 4.046.398 5.86 1.655 7.103 4.926 2.383 6.268.764 8.859-5.58 8.928l-5.53.06 4.635 3.796c8.342 6.83 4.998 17.44-4.896 15.533-4.764-.918-4.76-.907.553 1.565 6.71 3.123 7.674 4.695 6.282 10.24-1.003 3.997-1.679 4.332-6.794 3.373-6.651-1.248-7.537 1.071-1.467 3.837 3.315 1.51 4.215 3.167 4.215 7.757 0 7.077-1.62 8.304-7.84 5.939l-4.753-1.807 4.133 4.4c3.305 3.517 3.759 4.974 2.266 7.272-1.09 1.68-3.695 2.743-6.265 2.557-5.565-.401-5.554.955.043 5.418 3.909 3.117 4.197 4 2.4 7.359-1.223 2.285-3.006 3.426-4.442 2.843-1.32-.536-3.537-1.434-4.928-1.997-3.786-1.532-3.05 2.312.843 4.395 4.006 2.143 4.398 7.164.793 10.155-2.005 1.664-3.6 1.705-7.165.185l-4.585-1.955 4.954 4.131c4.467 3.726 4.758 4.56 2.964 8.498-1.094 2.401-3.065 4.779-4.38 5.283-3.387 1.3-12.266-3.671-15.573-8.719-2.047-3.124-3.292-3.763-4.652-2.39-1.356 1.371-.266 3.2 4.044 6.785 3.245 2.699 6.68 4.928 7.632 4.953.953.025 3.39 1.207 5.418 2.627 3.232 2.263 3.446 3.147 1.74 7.164-1.07 2.52-2.491 5.235-3.159 6.033-2.118 2.529-18.049-3.92-21.57-8.732-2.993-4.09-3.42-4.226-4.5-1.438-1.631 4.21 1.773 7.211 13.726 12.098 11.147 4.557 10.971 4.029 7.23 21.69l-2.098 9.896-11.243-.804c-6.184-.443-13.62-1.99-16.523-3.439-5.993-2.99-9.01-.827-4.766 3.416 1.911 1.912 6.42 2.69 16.531 2.855 13.898.227 13.904.229 15.232 5.196.92 3.437.626 5.672-.951 7.25-3.092 3.09-25.05 3.426-28.651.437-1.465-1.216-3.895-1.737-5.402-1.158-2.308.885-2.388 1.476-.507 3.742 1.84 2.218 5.209 2.585 19.154 2.087l16.921-.603.544 5.692c.3 3.132-.192 6.43-1.091 7.33-1.057 1.056-.654 3.354 1.141 6.495 2.123 3.715 2.34 5.56.919 7.826-2.43 3.878-14.194 5.942-26.552 4.66-7.732-.803-9.703-.546-9.104 1.186.88 2.546 24.34 2.127 31.41-.561 5.197-1.976 6.499-.642 7.893 8.087l1.119 7-9.28 2.078c-8.078 1.807-12.121 1.718-18.773-.413-2.443-.782-3.06 3.213-.633 4.1 2.61.953 22.912-1.2 26.929-2.856 2.082-.858 3.557.226 5.547 4.074 1.492 2.884 2.304 5.903 1.805 6.71-1.516 2.453-17.636 5.626-23.063 4.54-3.649-.729-4.895-.424-4.388 1.074.804 2.373 13.264 2.651 24.213.54 6.71-1.293 7.048-1.144 9.76 4.294 2.635 5.28 2.63 5.765-.078 7.745-4 2.924-13.168 4.434-20.098 3.31-4.41-.716-5.806-.347-5.806 1.533 0 1.362 1.085 2.892 2.41 3.4 2.395.92 18.593-1.342 25.806-3.602 2.825-.885 4.053-.393 4.892 1.96.615 1.727 2.246 4.454 3.624 6.059 3.449 4.018.645 7.047-9.03 9.756-6.148 1.72-8.408 1.723-11.607.012-4.911-2.629-8.78-.887-5.856 2.636 2.541 3.061 10.707 2.92 19.261-.335 11.899-4.527 12.54-4.586 13.74-1.271.626 1.728 2.531 5.155 4.235 7.616 1.703 2.46 3.097 4.969 3.097 5.573 0 .604-3.5 2.647-7.776 4.539-5.877 2.6-9.581 3.168-15.171 2.33-7.556-1.133-9.42.377-4.996 4.048 1.858 1.542 6.083 1.365 18.68-.78 8.953-1.526 16.422-2.519 16.598-2.208 1.682 2.986 4.188 12.292 3.577 13.281-1.262 2.043-22.246 5.166-26.886 4.002-4.763-1.196-5.386.478-1.934 5.199 2.176 2.975 3.188 3.041 16.183 1.052 7.623-1.167 14.104-1.88 14.4-1.582.298.296 1.653 3.769 3.013 7.717 1.775 5.151 1.944 7.504.6 8.335-3.747 2.315-20.258 3.66-23.517 1.916-4.673-2.5-7.104.657-3.214 4.177 2.777 2.514 4.644 2.61 16.913.875 7.585-1.072 14.23-1.51 14.767-.973 1.555 1.555 4.201 14.8 3.26 16.32-.469.76-5.077 1.91-10.24 2.554-7.429.929-10.3.575-13.765-1.696-4.192-2.747-4.494-2.72-7.071.611-1.958 2.531-5.453 3.781-12.807 4.582-5.563.606-10.683.524-11.379-.182zm-26.69-172.033c.385-.348-2.026-.632-5.36-.632-3.332 0-7.271-1.211-8.752-2.692-1.48-1.481-3.81-2.263-5.177-1.739-2.615 1.003-3.321 4.72-1.285 6.755 1.134 1.134 19.071-.341 20.573-1.692zm-3.61-57.202c-2.527-1.371-5.425-4.045-6.44-5.942-1.475-2.757-2.33-3.047-4.257-1.448-1.326 1.101-2.41 3.382-2.41 5.07 0 2.384 1.596 3.211 7.164 3.713 3.94.355 7.923.747 8.85.872.927.125-.382-.895-2.908-2.265zm36.483-158.539c1.467-.563 2.667-1.7 2.667-2.528 0-2.46-6.16-1.711-8.429 1.023-1.71 2.061-1.619 2.528.499 2.528 1.428 0 3.797-.46 5.263-1.023zm-8.112-20.602c-2.014-3.258 1.054-6.901 7.977-9.47 3.859-1.433 8.533-2.478 10.387-2.323 1.855.155 4.94-.234 6.856-.866 2.523-.83 4.616.06 7.586 3.226l4.101 4.373-4.188 3.397c-3.346 2.714-5.55 3.168-10.957 2.255-9.244-1.56-11.135-1.578-16.278-.155-2.533.702-4.897.513-5.484-.437z" fill="#fff" stroke="#000" stroke-width="6.08" transform="matrix(.11675 .01377 -.0132 .11194 215.58 639.639)"/><path d="M569.966 952.208c-5.795-5.108-10.536-10.419-10.536-11.802 0-1.383-1.569-3.551-3.486-4.818-3.231-2.134-3.408-3.335-2.411-16.386.665-8.706 1.996-15.043 3.486-16.596 1.326-1.382 2.411-4.297 2.411-6.478 0-2.908 1.911-5.15 7.164-8.409 6.722-4.169 7.937-4.383 19.669-3.46 6.878.541 12.88 1.337 13.338 1.769.459.433-.047 2.612-1.126 4.843-1.077 2.231-1.959 7.151-1.959 10.933 0 6.094-.676 7.305-5.951 10.658-7.013 4.459-15.113 15.898-16.59 23.431-1.083 5.521 1.565 12.764 7.783 21.297 5.501 7.548-.413 5.05-11.792-4.982zm-22.757-69.47c-2.795-2.676-.947-6.973 4.903-11.4 7.358-5.568 6.45-9.161-1.986-7.87-11.404 1.746-17.978-9.547-7.553-12.975 3.403-1.119 5.057-2.73 5.057-4.926 0-3.356-4.045-4.503-5.9-1.672-2.693 4.11-12.643-.423-12.643-5.761 0-1.294 2.603-3.378 5.785-4.632 7.166-2.825 8.403-4.569 5.082-7.169-1.955-1.531-3.055-1.575-4.533-.18-2.538 2.394-8.483 2.358-11.054-.068-3.172-2.992-2.394-6.749 2.248-10.863 6.286-5.57 4.814-8.696-4.095-8.696-9.709 0-12.686-3.749-7.284-9.174 5.688-5.711 4.891-8.08-2.291-6.809-5.835 1.033-10.829-.857-10.829-4.098 0-.774 1.87-2.94 4.157-4.816 4.998-4.099 4.135-6.11-2.624-6.11-6.211 0-8.071-3.771-3.969-8.047 3.876-4.04 1.184-7.446-3.868-4.896-2.351 1.188-3.85 1.139-5.238-.17-2.699-2.546-2.454-4.06 1.404-8.687 3.904-4.681 3.117-6.822-2.505-6.822-5.427 0-6.85-2.734-3.332-6.401 3.518-3.668 2.169-7.91-2.515-7.91-4.105 0-4.668-4.997-.896-7.951 3.693-2.891 3.09-6.064-1.264-6.647-5.418-.726-5.667-6.195-.492-10.782 4.277-3.79 5.699-8.012 2.698-8.012-.872 0-2.055.715-2.628 1.59-.573.874-2.135 1.59-3.471 1.59-4.538 0-2.452-5.213 5.157-12.886 8.676-8.749 10.009-12.751 2.503-7.516-4.603 3.21-5.33 3.31-7.71 1.066-2.379-2.245-1.805-3.411 6.087-12.356 4.792-5.432 8.314-10.254 7.826-10.714-.488-.46-3.208.456-6.044 2.037-3.777 2.104-5.658 2.401-7.027 1.11-3.301-3.114.187-8.566 7.468-11.675 8.414-3.592 17.461-10.499 15.803-12.064-.656-.618-3.082-.311-5.393.682-5.047 2.169-9.657.847-8.96-2.57.58-2.839 12.959-10.085 22.079-12.924 6.937-2.16 9.124-4.382 6.628-6.736-1.114-1.05-5.401-.529-12.743 1.549-6.086 1.722-11.459 2.76-11.939 2.307-3.207-3.025 8.665-11.504 16.203-11.572 5.246-.047 18.205-5.729 18.205-7.982 0-1.199-3.57-1.702-10.536-1.485-13.639.424-13.471.468-11.481-3.037 1.618-2.853 13.461-6.271 30.867-8.909 9.096-1.378 7.778-3.747-2.396-4.308-4.795-.264-8.987-1.253-9.316-2.196-.646-1.852 16.964-7.03 23.908-7.03 2.731 0 4.239-.89 4.239-2.5 0-2.077-1.494-2.337-8.85-1.538-9.011.98-15.376-.908-12.207-3.621.919-.787 6.435-2.35 12.257-3.474 5.822-1.123 10.987-2.656 11.478-3.405 1.919-2.93-1.234-4.075-8.005-2.907-15.515 2.676-15.705-4.083-.246-8.792 11.238-3.423 13.508-6.764 3.888-5.72-11.698 1.269-14.329 1.005-14.329-1.436 0-1.534 3.908-3.571 10.957-5.71 8.559-2.598 11.075-4.077 11.496-6.758.43-2.738-.315-3.433-3.683-3.433-2.322 0-6.291.742-8.82 1.649-6.754 2.423-9.107-.546-4.277-5.396 3.749-3.764 3.751-3.795.315-4.643-5.267-1.299-4.151-5.036 2.873-9.627 9.335-6.103 16.243-8.054 20.646-5.831 2.107 1.064 6.28 1.401 9.997.809l6.38-1.017.947 6.659c1.401 9.853.373 11.202-7.618 9.997-5.388-.813-6.63-.565-6.014 1.2.426 1.224 3.22 2.452 6.209 2.729 4.046.376 5.859 1.562 7.103 4.647 2.383 5.913.764 8.356-5.579 8.422l-5.532.057 4.636 3.581c8.342 6.443 4.998 16.45-4.896 14.651-4.764-.866-4.761-.856.552 1.477 6.711 2.945 7.675 4.428 6.283 9.659-1.003 3.77-1.679 4.086-6.794 3.181-6.651-1.177-7.537 1.011-1.467 3.62 3.314 1.424 4.215 2.987 4.215 7.317 0 6.675-1.62 7.833-7.841 5.602l-4.752-1.704 4.133 4.149c3.305 3.319 3.759 4.693 2.266 6.861-1.09 1.584-3.695 2.587-6.265 2.412-5.565-.379-5.554.9.043 5.111 3.909 2.94 4.197 3.773 2.4 6.941-1.223 2.156-3.006 3.232-4.442 2.682a4633.18 4633.18 0 0 0-4.928-1.884c-3.786-1.445-3.049 2.181.843 4.145 4.006 2.023 4.398 6.758.793 9.58-2.005 1.569-3.6 1.608-7.165.174l-4.585-1.844 4.954 3.897c4.467 3.515 4.758 4.302 2.964 8.016-1.094 2.265-3.065 4.508-4.38 4.984-3.387 1.226-12.266-3.464-15.573-8.225-2.047-2.947-3.292-3.55-4.652-2.254-1.356 1.293-.266 3.018 4.044 6.4 3.245 2.546 6.679 4.648 7.632 4.672.953.023 3.391 1.138 5.418 2.478 3.231 2.135 3.446 2.968 1.741 6.758-1.07 2.377-2.492 4.938-3.16 5.69-2.118 2.386-18.049-3.697-21.57-8.236-2.993-3.858-3.42-3.987-4.5-1.357-1.631 3.972 1.773 6.802 13.726 11.412 11.148 4.299 10.971 3.801 7.229 20.46l-2.097 9.335-11.243-.759c-6.184-.417-13.619-1.877-16.523-3.243-5.993-2.82-9.01-.781-4.766 3.222 1.911 1.803 6.42 2.538 16.531 2.693 13.898.214 13.904.215 15.232 4.901.92 3.242.626 5.351-.951 6.839-3.092 2.915-25.05 3.231-28.651.412-1.465-1.147-3.895-1.638-5.402-1.092-2.308.835-2.388 1.392-.507 3.53 1.841 2.092 5.209 2.438 19.154 1.969l16.921-.57.544 5.37c.3 2.954-.192 6.064-1.091 6.913-1.057.997-.654 3.165 1.141 6.128 2.123 3.504 2.339 5.244.919 7.382-2.431 3.657-14.194 5.605-26.552 4.395-7.732-.757-9.703-.515-9.104 1.119.88 2.402 24.34 2.007 31.411-.529 5.196-1.864 6.498-.605 7.892 7.628l1.119 6.604-9.281 1.959c-8.077 1.705-12.12 1.622-18.772-.389-2.443-.738-3.06 3.031-.633 3.867 2.611.9 22.912-1.131 26.929-2.693 2.082-.81 3.557.212 5.547 3.843 1.492 2.72 2.304 5.568 1.805 6.329-1.516 2.313-17.636 5.307-23.063 4.283-3.649-.688-4.895-.401-4.388 1.012.804 2.239 13.264 2.501 24.213.51 6.71-1.22 7.048-1.079 9.761 4.05 2.634 4.981 2.629 5.438-.079 7.306-3.999 2.759-13.168 4.183-20.098 3.122-4.409-.675-5.806-.327-5.806 1.447 0 1.284 1.085 2.727 2.41 3.207 2.395.867 18.593-1.266 25.806-3.398 2.825-.835 4.053-.371 4.892 1.848.615 1.63 2.246 4.202 3.624 5.716 3.449 3.79.645 6.647-9.03 9.203-6.147 1.623-8.408 1.625-11.607.011-4.911-2.479-8.78-.837-5.856 2.486 2.541 2.888 10.707 2.755 19.261-.316 11.898-4.27 12.539-4.326 13.74-1.198.626 1.629 2.531 4.862 4.235 7.184 1.703 2.321 3.097 4.687 3.097 5.257 0 .57-3.499 2.496-7.776 4.281-5.877 2.452-9.581 2.989-15.171 2.198-7.556-1.069-9.419.356-4.996 3.819 1.858 1.454 6.083 1.288 18.68-.737 8.953-1.438 16.422-2.375 16.597-2.082 1.682 2.817 4.189 11.595 3.578 12.528-1.263 1.927-22.246 4.873-26.886 3.775-4.763-1.128-5.386.451-1.934 4.904 2.176 2.807 3.188 2.869 16.183.992 7.623-1.101 14.104-1.772 14.401-1.492.297.28 1.652 3.555 3.012 7.279 1.775 4.859 1.944 7.079.599 7.863-3.746 2.183-20.257 3.453-23.516 1.807-4.673-2.359-7.104.62-3.214 3.94 2.777 2.371 4.644 2.463 16.913.826 7.585-1.012 14.23-1.425 14.767-.919 1.555 1.467 4.201 13.961 3.261 15.396-.47.717-5.078 1.8-10.24 2.409-7.43.875-10.3.542-13.766-1.6-4.192-2.591-4.494-2.567-7.071.576-1.958 2.388-5.453 3.567-12.807 4.322-5.563.572-10.683.495-11.379-.171zm-26.691-162.276c.386-.328-2.025-.596-5.358-.596-3.333 0-7.272-1.143-8.753-2.54-1.481-1.397-3.811-2.135-5.177-1.64-2.614.946-3.321 4.452-1.285 6.372 1.134 1.07 19.071-.322 20.573-1.596zm-3.61-53.959c-2.526-1.293-5.424-3.815-6.439-5.604-1.475-2.601-2.329-2.875-4.257-1.366-1.326 1.038-2.411 3.19-2.411 4.782 0 2.249 1.597 3.03 7.165 3.503 3.94.334 7.923.705 8.85.823.927.117-.382-.844-2.908-2.138zm36.484-149.547c1.467-.531 2.667-1.604 2.667-2.385 0-2.32-6.16-1.614-8.429.965-1.711 1.945-1.619 2.385.499 2.385 1.428 0 3.797-.434 5.263-.965zm-8.112-19.434c-2.014-3.073 1.054-6.509 7.977-8.933 3.859-1.351 8.533-2.337 10.387-2.191 1.855.146 4.94-.221 6.856-.816 2.523-.784 4.616.055 7.586 3.042l4.101 4.125-4.188 3.205c-3.346 2.56-5.55 2.988-10.957 2.127-9.244-1.472-11.135-1.489-16.278-.146-2.533.661-4.897.483-5.484-.413z" fill="#fff" stroke="#000" stroke-width="5.986" transform="matrix(-.12803 .05914 -.0132 .11194 302.565 625.293)"/></g><g stroke="#000"><path d="M239.686 696.056l14.83 6.144 12.711 4.025-2.966-5.508-3.601-3.39 5.72-14.194-7.203-3.39-7.839-.424-5.508 14.407-11.652-1.695z"/><path fill="#fff" d="M245.406 692.666l16.313 5.72.848-4.237-16.313-5.084"/></g></svg>