<?xml version="1.0" encoding="utf-8"?>
<svg class="shirt" width="86" height="380" viewBox="202.715 584.407 86.5933 380.048" preserveAspectRatio="xMidYMax" xmlns="http://www.w3.org/2000/svg">
  <defs id="svgEditorDefs">
    <path id="svgEditorClosePathDefs" fill="red" style="stroke-width: 0px; stroke: none;" class="clothes"/>
  </defs>
  <rect id="svgEditorBackground" x="202.71499633789062" y="584.4310302734375" width="86.59329986572266" height="115.80899810791016" style="fill: none; stroke: none;" class="clothes"/>
  <rect id="rect-1" x="-403.988" y="499.579" width="1300" height="550" style="fill: none; stroke: none;" class="clothes"/>
  <path stroke="#000" d="M 232.964 687.532 C 226.629 687.532 221.493 692.781 221.493 699.257 C 221.493 705.732 226.629 710.981 232.964 710.981 C 239.299 710.981 244.434 705.731 244.434 699.257 C 244.434 692.781 239.299 687.532 232.964 687.532 Z M 224.362 699.712 C 222.708 699.196 221.776 697.405 222.282 695.714 C 222.788 694.022 224.54 693.07 226.194 693.588 C 227.849 694.105 228.78 695.895 228.275 697.586 C 227.765 699.276 226.015 700.229 224.36 699.712 Z M 230.846 707.734 C 229.88 709.201 227.932 709.588 226.498 708.598 C 225.063 707.609 224.685 705.619 225.652 704.152 C 226.62 702.686 228.567 702.299 230.002 703.288 C 231.435 704.276 231.813 706.267 230.846 707.732 Z M 229.972 691.028 C 229.972 689.259 231.374 687.825 233.105 687.825 C 234.835 687.825 236.238 689.259 236.238 691.028 C 236.238 692.796 234.835 694.23 233.105 694.23 C 231.373 694.23 229.971 692.796 229.971 691.027 Z M 239.786 708.246 C 238.441 709.359 236.468 709.147 235.379 707.772 C 234.29 706.398 234.497 704.381 235.842 703.268 C 237.187 702.155 239.159 702.367 240.249 703.741 C 241.337 705.115 241.129 707.132 239.785 708.246 Z M 241.608 699.323 C 240.004 699.986 238.178 699.193 237.53 697.554 C 236.881 695.913 237.657 694.047 239.261 693.384 C 240.865 692.721 242.692 693.514 243.34 695.154 C 243.99 696.795 243.214 698.66 241.609 699.324 Z" fill="#9BCB4E"/>
  <path stroke="#86C54A" d="M 232.964 686.166 C 225.892 686.166 220.158 692.026 220.158 699.256 C 220.158 706.485 225.892 712.345 232.964 712.345 C 240.036 712.345 245.769 706.485 245.769 699.256 C 245.769 692.027 240.037 686.166 232.963 686.166 Z M 232.964 710.937 C 226.652 710.937 221.536 705.707 221.536 699.256 C 221.536 692.805 226.652 687.575 232.964 687.575 C 239.275 687.575 244.391 692.804 244.391 699.256 C 244.391 705.706 239.276 710.937 232.964 710.937 Z" fill="#1A6030"/>
  <circle cy="262.3" cx="231.65" r="16.247" stroke="#86C54A" fill="#1A6030" transform="matrix(0.168652, 0, 0, 0.172389, 193.895416, 654.038025)"/>
  <circle cy="262.3" cx="231.65" r="8.596" stroke="#000" fill="#00969E" transform="matrix(0.168652, 0, 0, 0.172389, 193.895416, 654.038025)"/>
  <path stroke="#000" d="M 259.083 686.68 C 252.748 686.68 247.612 691.929 247.612 698.405 C 247.612 704.88 252.748 710.129 259.083 710.129 C 265.418 710.129 270.553 704.879 270.553 698.405 C 270.553 691.929 265.418 686.68 259.083 686.68 Z M 250.481 698.86 C 248.827 698.344 247.895 696.553 248.401 694.862 C 248.907 693.17 250.659 692.218 252.313 692.736 C 253.968 693.253 254.899 695.043 254.394 696.734 C 253.884 698.424 252.134 699.377 250.479 698.86 Z M 256.965 706.882 C 255.999 708.349 254.051 708.736 252.617 707.746 C 251.182 706.757 250.804 704.767 251.771 703.3 C 252.739 701.834 254.686 701.447 256.121 702.436 C 257.554 703.424 257.932 705.415 256.965 706.88 Z M 256.091 690.176 C 256.091 688.407 257.493 686.973 259.224 686.973 C 260.954 686.973 262.357 688.407 262.357 690.176 C 262.357 691.944 260.954 693.378 259.224 693.378 C 257.492 693.378 256.09 691.944 256.09 690.175 Z M 265.905 707.394 C 264.56 708.507 262.587 708.295 261.498 706.92 C 260.409 705.546 260.616 703.529 261.961 702.416 C 263.306 701.303 265.278 701.515 266.368 702.889 C 267.456 704.263 267.248 706.28 265.904 707.394 Z M 267.727 698.471 C 266.123 699.134 264.297 698.341 263.649 696.702 C 263 695.061 263.776 693.195 265.38 692.532 C 266.984 691.869 268.811 692.662 269.459 694.302 C 270.109 695.943 269.333 697.808 267.728 698.472 Z" fill="#9BCB4E"/>
  <path stroke="#86C54A" d="M 259.083 685.314 C 252.011 685.314 246.277 691.174 246.277 698.404 C 246.277 705.633 252.011 711.493 259.083 711.493 C 266.155 711.493 271.888 705.633 271.888 698.404 C 271.888 691.175 266.156 685.314 259.082 685.314 Z M 259.083 710.085 C 252.771 710.085 247.655 704.855 247.655 698.404 C 247.655 691.953 252.771 686.723 259.083 686.723 C 265.394 686.723 270.51 691.952 270.51 698.404 C 270.51 704.854 265.395 710.085 259.083 710.085 Z" fill="#1A6030"/>
  <circle cy="262.3" cx="231.65" r="16.247" stroke="#86C54A" transform="matrix(0.168652, 0, 0, 0.172389, 220.014206, 653.186157)" fill="#1A6030"/>
  <circle cy="262.3" cx="231.65" r="8.596" stroke="#000" transform="matrix(0.168652, 0, 0, 0.172389, 220.014206, 653.186157)" fill="#00969E"/>
  <path d="M 225.015 688.183 C 225.006 685.642 225.841 678.016 226.927 671.624 C 227.935 665.694 229.159 660.826 230.125 662.065 C 231.785 664.194 225.487 689.319 228.421 689.319" style="stroke: rgb(0, 0, 0); fill: rgb(143, 201, 124);"/>
</svg>