<svg class="shirtOverlay" width="86" height="380" viewBox="202.715 584.407 86.593 380.048" preserveAspectRatio="xMidYMax" xmlns="http://www.w3.org/2000/svg" xmlns:bx="https://boxy-svg.com"><path class="clothes" fill="none" d="M202.715 584.431h86.593V700.24h-86.593z"/><path class="clothes" fill="none" d="M-403.988 499.579h1300v550h-1300z"/><path d="M248.519 695.202c.545.212 16.76 4.495 17.447 0 3.965-25.933-6.543-4.903-16.357-14.855" stroke="#000" fill="#b9b9b9"/><g bx:origin="0.502 0.565" fill="#662e01" fill-rule="evenodd"><path d="M247.052 696.379c-.022-.163.586-.447 1.358-.634.771-.186 1.415-.205 1.437-.043.022.163-.586.447-1.358.634-.771.186-1.415.205-1.437.043z"/><path d="M250.4 698.678c-.163.043-.413-.675-.56-1.602-.145-.928-.132-1.716.03-1.759.164-.043.414.675.56 1.603.146.928.133 1.715-.03 1.758zM246.854 693.193c-.008-.166.616-.407 1.392-.537.777-.131 1.414-.103 1.422.063.008.165-.615.406-1.392.537-.776.131-1.413.103-1.422-.063z"/><path d="M249.97 695.757c-.164.031-.352-.71-.42-1.656-.069-.945.01-1.737.173-1.768.164-.032.353.71.42 1.655.069.945-.01 1.738-.173 1.769zM246.852 689.988c0-.167.632-.378 1.41-.472.777-.094 1.407-.034 1.406.133 0 .167-.632.378-1.41.472-.777.094-1.407.034-1.406-.133z"/><path d="M249.803 692.718c-.164.024-.31-.731-.327-1.685-.016-.953.104-1.746.268-1.77.165-.023.311.732.328 1.685.016.954-.104 1.747-.269 1.77z"/><g><path d="M247.002 686.77c.008-.168.646-.353 1.422-.413.777-.06 1.4.027 1.39.195-.008.167-.645.353-1.422.413-.776.06-1.4-.027-1.39-.195z"/><path d="M249.8 689.642c-.164.017-.273-.748-.243-1.707.03-.96.187-1.751.352-1.768.164-.016.273.749.243 1.708-.03.96-.187 1.75-.351 1.767z"/></g><g><path d="M247.268 683.55c.015-.17.656-.333 1.43-.367.775-.034 1.391.075 1.376.243-.015.168-.656.332-1.43.366-.775.034-1.391-.075-1.376-.243z"/><path d="M249.943 686.529c-.165.01-.244-.761-.178-1.723.066-.962.253-1.752.417-1.763.164-.01.244.761.178 1.723-.066.962-.253 1.752-.417 1.763z"/></g><g><path d="M247.63 680.327c.02-.169.664-.316 1.436-.329.773-.013 1.383.114 1.363.282-.02.168-.663.316-1.436.328-.772.013-1.383-.113-1.362-.281z"/><path d="M250.203 683.39c-.164.006-.22-.77-.124-1.734.095-.963.305-1.75.47-1.757.163-.006.219.77.123 1.734-.095.963-.305 1.75-.469 1.757z"/></g></g><g bx:origin="0.523 0.577" fill="#662e01" fill-rule="evenodd"><path d="M266.641 696.88c.042-.156-.487-.447-1.18-.65-.693-.202-1.289-.24-1.33-.084-.042.155.487.446 1.18.649.692.203 1.288.24 1.33.085z"/><path d="M263.23 698.984c.145.047.471-.635.728-1.52.256-.886.346-1.643.2-1.689-.145-.046-.471.635-.728 1.521-.256.886-.346 1.642-.2 1.688zM267.24 693.829c.028-.159-.52-.409-1.225-.558-.705-.15-1.3-.142-1.33.017-.03.158.52.409 1.224.558.705.15 1.3.142 1.33-.017z"/><path d="M264.01 696.194c.148.035.42-.67.605-1.576.187-.905.217-1.668.069-1.703-.148-.035-.42.671-.606 1.576s-.217 1.668-.069 1.703zM267.659 690.754c.02-.16-.539-.383-1.25-.497-.71-.113-1.304-.076-1.325.085-.02.16.539.382 1.25.496.71.114 1.304.076 1.325-.084z"/><path d="M264.56 693.283c.15.028.384-.692.523-1.607.14-.914.13-1.68-.019-1.707-.15-.027-.384.693-.523 1.607-.14.915-.131 1.68.019 1.707z"/><g><path d="M267.743 687.015c.014-.161-.555-.359-1.268-.44-.714-.082-1.305-.017-1.319.144-.013.161.555.358 1.269.44.714.082 1.304.017 1.318-.144z"/><path d="M264.767 689.685c.151.021.352-.71.45-1.631.096-.921.053-1.686-.098-1.707-.15-.02-.352.71-.449 1.632-.097.92-.053 1.685.097 1.706z"/></g><g><path d="M268.11 684.562c.008-.162-.567-.34-1.282-.396-.716-.056-1.303.03-1.311.191-.008.162.567.34 1.282.396.716.056 1.303-.03 1.31-.191z"/><path d="M265.236 687.339c.15.015.325-.723.389-1.648.064-.925-.007-1.689-.159-1.704-.15-.015-.325.723-.389 1.648-.064.925.007 1.689.159 1.704z"/></g><g><path d="M268.192 681.458c.003-.162-.576-.323-1.292-.359-.716-.036-1.3.066-1.303.229-.004.162.575.323 1.292.359.716.036 1.3-.067 1.303-.229z"/><path d="M265.402 684.319c.151.011.304-.733.34-1.66.038-.927-.055-1.69-.207-1.7-.151-.011-.304.732-.34 1.66-.038.927.055 1.689.207 1.7z"/></g></g></svg>