<svg class="shirtOverlay" width="86" height="380" viewBox="202.715 584.407 86.593 380.048" preserveAspectRatio="xMidYMax" xmlns="http://www.w3.org/2000/svg"><path class="clothes" fill="none" d="M202.715 584.431h86.593V700.24h-86.593z"/><path class="clothes" fill="none" d="M-403.988 499.579h1300v550h-1300z"/><path stroke="#000" d="M232.964 687.532c-6.335 0-11.471 5.249-11.471 11.725 0 6.475 5.136 11.724 11.471 11.724s11.47-5.25 11.47-11.724c0-6.476-5.135-11.725-11.47-11.725zm-8.602 12.18c-1.654-.516-2.586-2.307-2.08-3.998.506-1.692 2.258-2.644 3.912-2.126 1.655.517 2.586 2.307 2.081 3.998-.51 1.69-2.26 2.643-3.915 2.126zm6.484 8.022a3.088 3.088 0 0 1-4.348.864c-1.435-.989-1.813-2.979-.846-4.446a3.092 3.092 0 0 1 4.35-.864c1.433.988 1.811 2.979.844 4.444zm-.874-16.706c0-1.769 1.402-3.203 3.133-3.203 1.73 0 3.133 1.434 3.133 3.203 0 1.768-1.403 3.202-3.133 3.202-1.732 0-3.134-1.434-3.134-3.203zm9.814 17.218a3.087 3.087 0 0 1-4.407-.474c-1.089-1.374-.882-3.391.463-4.504a3.088 3.088 0 0 1 4.407.473c1.088 1.374.88 3.391-.464 4.505zm1.822-8.923c-1.604.663-3.43-.13-4.078-1.769-.649-1.641.127-3.507 1.731-4.17 1.604-.663 3.431.13 4.079 1.77.65 1.641-.126 3.506-1.731 4.17z" fill="#9BCB4E"/><path stroke="#86C54A" d="M232.964 686.166c-7.072 0-12.806 5.86-12.806 13.09 0 7.229 5.734 13.089 12.806 13.089 7.072 0 12.805-5.86 12.805-13.089s-5.732-13.09-12.806-13.09zm0 24.771c-6.312 0-11.428-5.23-11.428-11.681 0-6.451 5.116-11.681 11.428-11.681 6.311 0 11.427 5.229 11.427 11.681 0 6.45-5.115 11.681-11.427 11.681z" fill="#1A6030"/><circle cy="262.3" cx="231.65" r="16.247" stroke="#86C54A" fill="#1A6030" transform="matrix(.16865 0 0 .17239 193.895 654.038)"/><circle cy="262.3" cx="231.65" r="8.596" stroke="#000" fill="#00969E" transform="matrix(.16865 0 0 .17239 193.895 654.038)"/><path stroke="#000" d="M259.083 686.68c-6.335 0-11.471 5.249-11.471 11.725 0 6.475 5.136 11.724 11.471 11.724s11.47-5.25 11.47-11.724c0-6.476-5.135-11.725-11.47-11.725zm-8.602 12.18c-1.654-.516-2.586-2.307-2.08-3.998.506-1.692 2.258-2.644 3.912-2.126 1.655.517 2.586 2.307 2.081 3.998-.51 1.69-2.26 2.643-3.915 2.126zm6.484 8.022a3.088 3.088 0 0 1-4.348.864c-1.435-.989-1.813-2.979-.846-4.446a3.092 3.092 0 0 1 4.35-.864c1.433.988 1.811 2.979.844 4.444zm-.874-16.706c0-1.769 1.402-3.203 3.133-3.203 1.73 0 3.133 1.434 3.133 3.203 0 1.768-1.403 3.202-3.133 3.202-1.732 0-3.134-1.434-3.134-3.203zm9.814 17.218a3.087 3.087 0 0 1-4.407-.474c-1.089-1.374-.882-3.391.463-4.504a3.088 3.088 0 0 1 4.407.473c1.088 1.374.88 3.391-.464 4.505zm1.822-8.923c-1.604.663-3.43-.13-4.078-1.769-.649-1.641.127-3.507 1.731-4.17 1.604-.663 3.431.13 4.079 1.77.65 1.641-.126 3.506-1.731 4.17z" fill="#9BCB4E"/><path stroke="#86C54A" d="M259.083 685.314c-7.072 0-12.806 5.86-12.806 13.09 0 7.229 5.734 13.089 12.806 13.089 7.072 0 12.805-5.86 12.805-13.089s-5.732-13.09-12.806-13.09zm0 24.771c-6.312 0-11.428-5.23-11.428-11.681 0-6.451 5.116-11.681 11.428-11.681 6.311 0 11.427 5.229 11.427 11.681 0 6.45-5.115 11.681-11.427 11.681z" fill="#1A6030"/><circle cy="262.3" cx="231.65" r="16.247" stroke="#86C54A" transform="matrix(.16865 0 0 .17239 220.014 653.186)" fill="#1A6030"/><circle cy="262.3" cx="231.65" r="8.596" stroke="#000" transform="matrix(.16865 0 0 .17239 220.014 653.186)" fill="#00969E"/><path d="M225.015 688.183c-.009-2.541.826-10.167 1.912-16.559 1.008-5.93 2.232-10.798 3.198-9.559 1.66 2.129-4.638 27.254-1.704 27.254" stroke="#000" fill="#8fc97c"/></svg>